<svg xmlns="http://www.w3.org/2000/svg" viewBox="0 0 15 15" height="1em" width="1em">
  <path d="M1.5 1A2.7 2.7 0 0 1 4 3l.5-3L5 3a2.7 2.7 0 0 1 2.5-2c-.2.03-1 .26-1 2v.083A1.959 1.959 0 0 1 4.5 5h-.083A1.959 1.959 0 0 1 2.5 3c0-1.739-.8-1.97-1-2Zm10.512 10 3-.5-3-.5A2.686 2.686 0 0 0 14 7.5c-.03.2-.248 1-1.988 1a2 2 0 0 0 0 4c1.739 0 1.958.8 1.988 1a2.686 2.686 0 0 0-1.988-2.5ZM9.688 5.548a1 1 0 0 1 0-2 1 1 0 0 1 0-2 .986.986 0 0 1 .852.507l.023-.012a.978.978 0 0 1-.116-.444 1 1 0 1 1 2 0 .978.978 0 0 1-.116.444l.019.01a.986.986 0 0 1 .85-.5 1 1 0 0 1 .025 2 1 1 0 0 1-.025 2 .986.986 0 0 1-.85-.5l-.016.009a.978.978 0 0 1 .113.44 1 1 0 0 1-2 0 .978.978 0 0 1 .113-.44l-.02-.011a.986.986 0 0 1-.852.507Zm.71-1.995A1.051 1.051 0 1 0 11.449 2.5 1.051 1.051 0 0 0 10.4 3.553Zm-5.452 7.891-.516-.515 4.462-4.454a1.746 1.746 0 0 1-.452-.255l-4.364 4.355-.519-.518A16.051 16.051 0 0 0 4.912 6a3.373 3.373 0 0 1-.412.035c-.041 0-.073-.008-.112-.01a16.953 16.953 0 0 1-1.257 3.606L2.76 9.26a.246.246 0 0 0-.4.079L.231 14.445a.287.287 0 0 0-.016.089.25.25 0 0 0 .25.25.289.289 0 0 0 .1-.019l5.1-2.124a.246.246 0 0 0 .079-.4l-.372-.372a16.874 16.874 0 0 1 3.612-1.256c0-.059-.015-.106-.015-.166A3.349 3.349 0 0 1 9 10.089a16.076 16.076 0 0 0-4.054 1.355Z"/>
</svg>
