<svg xmlns="http://www.w3.org/2000/svg" viewBox="0 0 15 15" height="1em" width="1em">
  <path d="M1.082 9.939C.987 9.867 1 9.748 1 9.748L1.526 3.5s.008-.069.039-.104c.019-.022.043-.054.09-.073C2.182 3.107 5.053 1.552 6.5 3c.24.278.5.688.5 1v5.288s.006.112-.095.18a.252.252 0 0 1-.242.003c-2.226-1.114-4.711.154-5.338.487a.22.22 0 0 1-.243-.02zm12.593.019c-.627-.333-3.112-1.6-5.338-.487a.252.252 0 0 1-.242-.003C7.994 9.4 8 9.288 8 9.288V4c0-.312.26-.722.5-1 1.446-1.448 4.3.107 4.827.323.046.019.07.051.09.073.03.035.039.104.039.104l.543 6.248s.014.119-.08.19a.22.22 0 0 1-.244.02zm-4.81 2.728a.24.24 0 0 0 .118-.077.214.214 0 0 0 .042-.109c.05-.938 1.624-1.812 4.648-.03.077.044.166.04.242-.015.086-.063.085-.17.085-.17v-.553s0-.077-.027-.119a.227.227 0 0 0-.093-.085c-2.025-1.315-4.586-1.898-5.885-.16a.197.197 0 0 1-.073.09c-.057.045-.126.042-.126.042h-.585s-.07.003-.126-.041a.197.197 0 0 1-.073-.09c-1.3-1.739-3.86-1.184-5.885.131a.227.227 0 0 0-.093.086c-.027.042-.027.118-.027.118v.554s-.001.107.085.17a.22.22 0 0 0 .243.015c3.023-1.782 4.598-.88 4.647.057a.214.214 0 0 0 .043.109.24.24 0 0 0 .118.077c.721.18 1.768.25 2.722 0z"/>
</svg>
