<svg viewBox="0 0 15 15" xmlns="http://www.w3.org/2000/svg" height="1em" width="1em">
  <path d="M1.785 3.812a1.469 1.469 0 0 1 2.352-.382l.717.716a.5.5 0 1 1-.708.708l-.716-.717a.469.469 0 0 0-.75.122L1.308 7h3.939c.817 0 1.5.566 1.693 1.325a2.41 2.41 0 0 1 .56-.075c.2 0 .385.034.559.075A1.751 1.751 0 0 1 9.752 7h3.939l-1.37-2.74a.469.469 0 0 0-.751-.123l-.716.717a.5.5 0 1 1-.707-.708l.716-.716a1.47 1.47 0 0 1 2.352.382l1.726 3.45v.001c.037.07.059.151.059.237v1a.5.5 0 0 1-.5.5H14v.5c0 1.589-1.002 2.5-2.75 2.5h-.5C9.002 12 8 11.089 8 9.5v-.159a1.709 1.709 0 0 0-.5-.091c-.17 0-.35.043-.5.091V9.5C7 11.089 5.998 12 4.25 12h-.5C2.002 12 1 11.089 1 9.5V9H.5a.5.5 0 0 1-.5-.5v-1a.5.5 0 0 1 .06-.237l-.001-.001 1.726-3.45ZM9.752 8A.753.753 0 0 0 9 8.752V9.5c0 .698.2 1.5 1.75 1.5h.5C12.8 11 13 10.198 13 9.5v-.747A.754.754 0 0 0 12.247 8H9.752Zm-7 0A.754.754 0 0 0 2 8.752V9.5c0 .698.199 1.5 1.75 1.5h.5C5.801 11 6 10.198 6 9.5v-.748A.753.753 0 0 0 5.247 8H2.753Z"/>
</svg>
