<svg xmlns="http://www.w3.org/2000/svg" viewBox="0 0 15 15" height="1em" width="1em">
  <path d="M13.128 1.87c-1.541-1.54-4.553-.776-6.28 1.05a6.828 6.828 0 0 0-1.88 4.4 5.728 5.728 0 0 1-.57 2.72.681.681 0 0 0-.67.17l-2.49 2.5a.694.694 0 0 0 0 .98l.07.07a.705.705 0 0 0 .98 0l2.5-2.49a.683.683 0 0 0 .18-.66 8.57 8.57 0 0 1 3.12-.58 6.549 6.549 0 0 0 3.99-1.87c2.03-2.03 2.501-4.84 1.05-6.29Zm-2.2-.04a2.307 2.307 0 0 1 1.64.61 2.548 2.548 0 0 1 .5 2.44l-2.95-2.96a3.865 3.865 0 0 1 .81-.09Zm-4.57 6.81a2.648 2.648 0 0 1-.48-2.55l3.04 3.04a2.852 2.852 0 0 1-2.56-.49Zm2.88.39-3.26-3.27a5.162 5.162 0 0 1 .49-1.08l3.85 3.85a5.51 5.51 0 0 1-1.08.5Zm1.34-.66-3.94-3.95a5.203 5.203 0 0 1 .74-.9l4.1 4.1a5.687 5.687 0 0 1-.9.75Zm1.11-.96-4.1-4.1a5.571 5.571 0 0 1 .84-.65l3.92 3.92a5.719 5.719 0 0 1-.66.83Zm.82-1.09L8.698 2.5a4.17 4.17 0 0 1 1.09-.48l3.2 3.2a5.566 5.566 0 0 1-.48 1.1Z"/>
</svg>
