<svg viewBox="0 0 24 24" fill="none" xmlns="http://www.w3.org/2000/svg" height="1em" width="1em">
  <path fill-rule="evenodd" clip-rule="evenodd" d="M16 12a4 4 0 1 1-8 0 4 4 0 0 1 8 0Zm-2 0a2 2 0 1 1-4 0 2 2 0 0 1 4 0Z" fill="currentColor"/>
  <path fill-rule="evenodd" clip-rule="evenodd" d="M12 3c5.591 0 10.29 3.824 11.622 9-1.332 5.176-6.03 9-11.622 9S1.71 17.176.378 12C1.71 6.824 6.408 3 12 3Zm0 16c-4.476 0-8.269-2.942-9.543-7C3.731 7.942 7.524 5 12 5c4.476 0 8.269 2.942 9.543 7-1.274 4.058-5.067 7-9.543 7Z" fill="currentColor"/>
</svg>
