<svg viewBox="0 0 24 24" fill="none" xmlns="http://www.w3.org/2000/svg" height="1em" width="1em">
  <path fill-rule="evenodd" clip-rule="evenodd" d="M14 7a1 1 0 0 0-1 1v8a1 1 0 0 0 1 1h4a1 1 0 0 0 1-1V8a1 1 0 0 0-1-1h-4Zm3 2h-2v6h2V9Z" fill="currentColor"/>
  <path d="M6 7a1 1 0 0 0 0 2h4a1 1 0 1 0 0-2H6Zm0 4a1 1 0 1 0 0 2h4a1 1 0 1 0 0-2H6Zm-1 5a1 1 0 0 1 1-1h4a1 1 0 1 1 0 2H6a1 1 0 0 1-1-1Z" fill="currentColor"/>
  <path fill-rule="evenodd" clip-rule="evenodd" d="M4 3a3 3 0 0 0-3 3v12a3 3 0 0 0 3 3h16a3 3 0 0 0 3-3V6a3 3 0 0 0-3-3H4Zm16 2H4a1 1 0 0 0-1 1v12a1 1 0 0 0 1 1h16a1 1 0 0 0 1-1V6a1 1 0 0 0-1-1Z" fill="currentColor"/>
</svg>
