<svg xmlns="http://www.w3.org/2000/svg" xmlns:xlink="http://www.w3.org/1999/xlink" aria-label="CentOS" viewBox="0 0 512 512"><rect width="512" height="512" rx="15%" fill="#fff"/><g id="a"><path fill="#9ccd2a" d="M118 118h124v124H118z"/><path fill="#932279" d="M270 118h124v124H270z"/><path fill="#efa724" d="M270 270h124v124H270z"/><path fill="#262577" d="M118 270h124v124H118z"/></g><use xlink:href="#a" transform="rotate(225 256 256)"/><path fill="none" stroke="#fff" stroke-width="9" d="m236 256-87 88-88-88 88-88zm6-14H118V118h124zm0 28v124H118V270zm14-34-88-87 88-88 88 88zm0 40-88 87 88 88 88-88zm14-34V118h124v124zm0 28h124v124H270zm6-14 87 88 88-88-88-88z"/></svg>