<svg xmlns="http://www.w3.org/2000/svg" aria-label="Sentry" viewBox="0 0 512 512"><rect width="512" height="512" rx="15%" fill="#fff"/><path d="M283 122a31 31 0 0 0-54 0l-44 77 11 6a216 216 0 0 1 108 174h-31a185 185 0 0 0-92-147l-11-7-42 72 12 6a104 104 0 0 1 50 76h-71a5 5 0 0 1-4-7l20-34a72 72 0 0 0-23-13l-19 34a31 31 0 0 0 26 46h98v-13a129 129 0 0 0-54-104l16-27a160 160 0 0 1 69 131v13h82v-13a242 242 0 0 0-110-203l32-54a5 5 0 0 1 8 0l137 237a5 5 0 0 1-5 7h-32v26h33a31 31 0 0 0 26-46z" fill="#221f20"/></svg>