<svg xmlns="http://www.w3.org/2000/svg" viewBox="0 0 36 28"><path d="M34.302 10.321a6.672 6.672 0 0 0-4.1-2.194 8.543 8.543 0 0 0-2.675-5.854 8.368 8.368 0 0 0-5.978-2.27 8.591 8.591 0 0 0-5.041 1.54 8.729 8.729 0 0 0-3.222 4.206A7.929 7.929 0 0 0 8.354 8.31a8.043 8.043 0 0 0-1.665 2.877h12.086v10.265h10.518a6.736 6.736 0 0 0 4.724-2.002A6.872 6.872 0 0 0 36 14.681a6.79 6.79 0 0 0-1.698-4.36z" fill="url(#a)"/><path d="M18.848 10.51H0v4.848h18.848V10.51z" fill="#0078D4"/><path d="M2.866 14.087a1.152 1.152 0 1 0 0-2.303 1.152 1.152 0 0 0 0 2.303z" fill="#50E6FF"/><path d="M18.848 16.607H0v4.847h18.848v-4.847z" fill="#0078D4"/><path d="M2.866 20.184a1.152 1.152 0 1 0 0-2.304 1.152 1.152 0 0 0 0 2.304z" fill="#50E6FF"/><path d="M18.848 22.764H0v4.847h18.848v-4.847z" fill="#0078D4"/><path d="M2.866 26.34a1.152 1.152 0 1 0 0-2.304 1.152 1.152 0 0 0 0 2.304z" fill="#50E6FF"/><path d="M34.302 10.321a6.672 6.672 0 0 0-4.1-2.194 8.543 8.543 0 0 0-2.675-5.854 8.368 8.368 0 0 0-5.978-2.27 8.591 8.591 0 0 0-5.041 1.54 8.729 8.729 0 0 0-3.222 4.206A7.929 7.929 0 0 0 8.354 8.31a8.043 8.043 0 0 0-1.665 2.877h12.086v10.265h10.518a6.736 6.736 0 0 0 4.724-2.002A6.872 6.872 0 0 0 36 14.681a6.79 6.79 0 0 0-1.698-4.36z" fill="url(#b)"/><path d="M18.848 10.51H0v4.848h18.848V10.51z" fill="#0078D4"/><path d="M2.866 14.087a1.152 1.152 0 1 0 0-2.303 1.152 1.152 0 0 0 0 2.303z" fill="#50E6FF"/><path d="M18.848 16.607H0v4.847h18.848v-4.847z" fill="#0078D4"/><path d="M2.866 20.184a1.152 1.152 0 1 0 0-2.304 1.152 1.152 0 0 0 0 2.304z" fill="#50E6FF"/><path d="M18.848 22.764H0v4.847h18.848v-4.847z" fill="#0078D4"/><path d="M2.866 26.34a1.152 1.152 0 1 0 0-2.304 1.152 1.152 0 0 0 0 2.304z" fill="#50E6FF"/><path d="M34.302 10.321a6.672 6.672 0 0 0-4.1-2.194 8.543 8.543 0 0 0-2.675-5.854 8.368 8.368 0 0 0-5.978-2.27 8.591 8.591 0 0 0-5.041 1.54 8.729 8.729 0 0 0-3.222 4.206A7.929 7.929 0 0 0 8.354 8.31a8.043 8.043 0 0 0-1.665 2.877h12.086v10.265h10.518a6.736 6.736 0 0 0 4.724-2.002A6.872 6.872 0 0 0 36 14.681a6.79 6.79 0 0 0-1.698-4.36z" fill="url(#c)"/><path d="M18.848 10.51H0v4.848h18.848V10.51z" fill="#0078D4"/><path d="M2.866 14.087a1.152 1.152 0 1 0 0-2.303 1.152 1.152 0 0 0 0 2.303z" fill="#50E6FF"/><path d="M18.848 16.607H0v4.847h18.848v-4.847z" fill="#0078D4"/><path d="M2.866 20.184a1.152 1.152 0 1 0 0-2.304 1.152 1.152 0 0 0 0 2.304z" fill="#50E6FF"/><path d="M18.848 22.764H0v4.847h18.848v-4.847z" fill="#0078D4"/><path d="M2.866 26.34a1.152 1.152 0 1 0 0-2.304 1.152 1.152 0 0 0 0 2.304z" fill="#50E6FF"/><path d="M34.302 10.321a6.672 6.672 0 0 0-4.1-2.194 8.543 8.543 0 0 0-2.675-5.854 8.368 8.368 0 0 0-5.978-2.27 8.591 8.591 0 0 0-5.041 1.54 8.729 8.729 0 0 0-3.222 4.206A7.929 7.929 0 0 0 8.354 8.31a8.043 8.043 0 0 0-1.665 2.877h12.086v10.265h10.518a6.736 6.736 0 0 0 4.724-2.002A6.872 6.872 0 0 0 36 14.681a6.79 6.79 0 0 0-1.698-4.36z" fill="url(#d)"/><path d="M18.848 10.51H0v4.848h18.848V10.51z" fill="#0078D4"/><path d="M2.866 14.087a1.152 1.152 0 1 0 0-2.303 1.152 1.152 0 0 0 0 2.303z" fill="#50E6FF"/><path d="M18.848 16.607H0v4.847h18.848v-4.847z" fill="#0078D4"/><path d="M2.866 20.184a1.152 1.152 0 1 0 0-2.304 1.152 1.152 0 0 0 0 2.304z" fill="#50E6FF"/><path d="M18.848 22.764H0v4.847h18.848v-4.847z" fill="#0078D4"/><path d="M2.866 26.34a1.152 1.152 0 1 0 0-2.304 1.152 1.152 0 0 0 0 2.304z" fill="#50E6FF"/><path d="M34.302 10.321a6.672 6.672 0 0 0-4.1-2.194 8.543 8.543 0 0 0-2.675-5.854 8.368 8.368 0 0 0-5.978-2.27 8.591 8.591 0 0 0-5.041 1.54 8.729 8.729 0 0 0-3.222 4.206A7.929 7.929 0 0 0 8.354 8.31a8.043 8.043 0 0 0-1.665 2.877h12.086v10.265h10.518a6.736 6.736 0 0 0 4.724-2.002A6.872 6.872 0 0 0 36 14.681a6.79 6.79 0 0 0-1.698-4.36z" fill="url(#e)"/><path d="M18.848 10.51H0v4.848h18.848V10.51z" fill="#0078D4"/><path d="M2.866 14.087a1.152 1.152 0 1 0 0-2.303 1.152 1.152 0 0 0 0 2.303z" fill="#50E6FF"/><path d="M18.848 16.607H0v4.847h18.848v-4.847z" fill="#0078D4"/><path d="M2.866 20.184a1.152 1.152 0 1 0 0-2.304 1.152 1.152 0 0 0 0 2.304z" fill="#50E6FF"/><path d="M18.848 22.764H0v4.847h18.848v-4.847z" fill="#0078D4"/><path d="M2.866 26.34a1.152 1.152 0 1 0 0-2.304 1.152 1.152 0 0 0 0 2.304z" fill="#50E6FF"/><path d="M34.302 10.321a6.672 6.672 0 0 0-4.1-2.194 8.543 8.543 0 0 0-2.675-5.854 8.368 8.368 0 0 0-5.978-2.27 8.591 8.591 0 0 0-5.041 1.54 8.729 8.729 0 0 0-3.222 4.206A7.929 7.929 0 0 0 8.354 8.31a8.043 8.043 0 0 0-1.665 2.877h12.086v10.265h10.518a6.736 6.736 0 0 0 4.724-2.002A6.872 6.872 0 0 0 36 14.681a6.79 6.79 0 0 0-1.698-4.36z" fill="url(#f)"/><path d="M18.848 10.51H0v4.848h18.848V10.51z" fill="#0078D4"/><path d="M2.866 14.087a1.152 1.152 0 1 0 0-2.303 1.152 1.152 0 0 0 0 2.303z" fill="#50E6FF"/><path d="M18.848 16.607H0v4.847h18.848v-4.847z" fill="#0078D4"/><path d="M2.866 20.184a1.152 1.152 0 1 0 0-2.304 1.152 1.152 0 0 0 0 2.304z" fill="#50E6FF"/><path d="M18.848 22.764H0v4.847h18.848v-4.847z" fill="#0078D4"/><path d="M2.866 26.34a1.152 1.152 0 1 0 0-2.304 1.152 1.152 0 0 0 0 2.304z" fill="#50E6FF"/><path d="M34.302 10.321a6.672 6.672 0 0 0-4.1-2.194 8.543 8.543 0 0 0-2.675-5.854 8.368 8.368 0 0 0-5.978-2.27 8.591 8.591 0 0 0-5.041 1.54 8.729 8.729 0 0 0-3.222 4.206A7.929 7.929 0 0 0 8.354 8.31a8.043 8.043 0 0 0-1.665 2.877h12.086v10.265h10.518a6.736 6.736 0 0 0 4.724-2.002A6.872 6.872 0 0 0 36 14.681a6.79 6.79 0 0 0-1.698-4.36z" fill="url(#g)"/><path d="M18.848 10.51H0v4.848h18.848V10.51z" fill="#0078D4"/><path d="M2.866 14.087a1.152 1.152 0 1 0 0-2.303 1.152 1.152 0 0 0 0 2.303z" fill="#50E6FF"/><path d="M18.848 16.607H0v4.847h18.848v-4.847z" fill="#0078D4"/><path d="M2.866 20.184a1.152 1.152 0 1 0 0-2.304 1.152 1.152 0 0 0 0 2.304z" fill="#50E6FF"/><path d="M18.848 22.764H0v4.847h18.848v-4.847z" fill="#0078D4"/><path d="M2.866 26.34a1.152 1.152 0 1 0 0-2.304 1.152 1.152 0 0 0 0 2.304z" fill="#50E6FF"/><path d="M34.302 10.321a6.672 6.672 0 0 0-4.1-2.194 8.543 8.543 0 0 0-2.675-5.854 8.368 8.368 0 0 0-5.978-2.27 8.591 8.591 0 0 0-5.041 1.54 8.729 8.729 0 0 0-3.222 4.206A7.929 7.929 0 0 0 8.354 8.31a8.043 8.043 0 0 0-1.665 2.877h12.086v10.265h10.518a6.736 6.736 0 0 0 4.724-2.002A6.872 6.872 0 0 0 36 14.681a6.79 6.79 0 0 0-1.698-4.36z" fill="url(#h)"/><path d="M18.848 10.51H0v4.848h18.848V10.51z" fill="#0078D4"/><path d="M2.866 14.087a1.152 1.152 0 1 0 0-2.303 1.152 1.152 0 0 0 0 2.303z" fill="#50E6FF"/><path d="M18.848 16.607H0v4.847h18.848v-4.847z" fill="#0078D4"/><path d="M2.866 20.184a1.152 1.152 0 1 0 0-2.304 1.152 1.152 0 0 0 0 2.304z" fill="#50E6FF"/><path d="M18.848 22.764H0v4.847h18.848v-4.847z" fill="#0078D4"/><path d="M2.866 26.34a1.152 1.152 0 1 0 0-2.304 1.152 1.152 0 0 0 0 2.304z" fill="#50E6FF"/><path d="M34.302 10.321a6.672 6.672 0 0 0-4.1-2.194 8.543 8.543 0 0 0-2.675-5.854 8.368 8.368 0 0 0-5.978-2.27 8.591 8.591 0 0 0-5.041 1.54 8.729 8.729 0 0 0-3.222 4.206A7.929 7.929 0 0 0 8.354 8.31a8.043 8.043 0 0 0-1.665 2.877h12.086v10.265h10.518a6.736 6.736 0 0 0 4.724-2.002A6.872 6.872 0 0 0 36 14.681a6.79 6.79 0 0 0-1.698-4.36z" fill="url(#i)"/><path d="M18.848 10.51H0v4.848h18.848V10.51z" fill="#50E6FF"/><path d="M2.866 14.087a1.152 1.152 0 1 0 0-2.303 1.152 1.152 0 0 0 0 2.303z" fill="#fff"/><path d="M18.848 16.607H0v4.847h18.848v-4.847z" fill="#50E6FF"/><path d="M2.866 20.184a1.152 1.152 0 1 0 0-2.304 1.152 1.152 0 0 0 0 2.304z" fill="#fff"/><path d="M18.848 22.764H0v4.847h18.848v-4.847z" fill="#50E6FF"/><path d="M2.866 26.34a1.152 1.152 0 1 0 0-2.304 1.152 1.152 0 0 0 0 2.304z" fill="#fff"/><defs><linearGradient id="a" x1="22.137" y1="24.878" x2="20.485" y2="-.146" gradientUnits="userSpaceOnUse"><stop stop-color="#0078D4"/><stop offset=".16" stop-color="#1380DA"/><stop offset=".53" stop-color="#3C91E5"/><stop offset=".82" stop-color="#559CEC"/><stop offset="1" stop-color="#5EA0EF"/></linearGradient><linearGradient id="b" x1="22.137" y1="24.878" x2="20.485" y2="-.146" gradientUnits="userSpaceOnUse"><stop stop-color="#0078D4"/><stop offset=".16" stop-color="#1380DA"/><stop offset=".53" stop-color="#3C91E5"/><stop offset=".82" stop-color="#559CEC"/><stop offset="1" stop-color="#5EA0EF"/></linearGradient><linearGradient id="c" x1="22.137" y1="24.878" x2="20.485" y2="-.146" gradientUnits="userSpaceOnUse"><stop stop-color="#0078D4"/><stop offset=".16" stop-color="#1380DA"/><stop offset=".53" stop-color="#3C91E5"/><stop offset=".82" stop-color="#559CEC"/><stop offset="1" stop-color="#5EA0EF"/></linearGradient><linearGradient id="d" x1="22.137" y1="24.878" x2="20.485" y2="-.146" gradientUnits="userSpaceOnUse"><stop stop-color="#0078D4"/><stop offset=".16" stop-color="#1380DA"/><stop offset=".53" stop-color="#3C91E5"/><stop offset=".82" stop-color="#559CEC"/><stop offset="1" stop-color="#5EA0EF"/></linearGradient><linearGradient id="e" x1="22.137" y1="24.878" x2="20.485" y2="-.146" gradientUnits="userSpaceOnUse"><stop stop-color="#0078D4"/><stop offset=".16" stop-color="#1380DA"/><stop offset=".53" stop-color="#3C91E5"/><stop offset=".82" stop-color="#559CEC"/><stop offset="1" stop-color="#5EA0EF"/></linearGradient><linearGradient id="f" x1="22.137" y1="24.878" x2="20.485" y2="-.146" gradientUnits="userSpaceOnUse"><stop stop-color="#0078D4"/><stop offset=".16" stop-color="#1380DA"/><stop offset=".53" stop-color="#3C91E5"/><stop offset=".82" stop-color="#559CEC"/><stop offset="1" stop-color="#5EA0EF"/></linearGradient><linearGradient id="g" x1="22.137" y1="24.878" x2="20.485" y2="-.146" gradientUnits="userSpaceOnUse"><stop stop-color="#0078D4"/><stop offset=".16" stop-color="#1380DA"/><stop offset=".53" stop-color="#3C91E5"/><stop offset=".82" stop-color="#559CEC"/><stop offset="1" stop-color="#5EA0EF"/></linearGradient><linearGradient id="h" x1="22.137" y1="24.878" x2="20.485" y2="-.146" gradientUnits="userSpaceOnUse"><stop stop-color="#0078D4"/><stop offset=".16" stop-color="#1380DA"/><stop offset=".53" stop-color="#3C91E5"/><stop offset=".82" stop-color="#559CEC"/><stop offset="1" stop-color="#5EA0EF"/></linearGradient><linearGradient id="i" x1="22.137" y1="24.878" x2="20.485" y2="-.146" gradientUnits="userSpaceOnUse"><stop stop-color="#0078D4"/><stop offset=".16" stop-color="#1380DA"/><stop offset=".53" stop-color="#3C91E5"/><stop offset=".82" stop-color="#559CEC"/><stop offset="1" stop-color="#5EA0EF"/></linearGradient></defs></svg>