<svg xmlns="http://www.w3.org/2000/svg" viewBox="0 0 193 148"><path d="M173.355 69.173a40.81 40.81 0 0 0 1.17-9.726 41.221 41.221 0 0 0-41.175-41.176 40.66 40.66 0 0 0-10.637 1.426 59.427 59.427 0 0 0-103.621 39.75 57.76 57.76 0 0 0 .862 9.837 25.17 25.17 0 0 0 6.061 49.61h19.416l4.728-4.639H26.015A20.534 20.534 0 0 1 5.248 93.963 20.532 20.532 0 0 1 25.54 73.195a54.761 54.761 0 0 1 95.627-48.165 36.496 36.496 0 0 1 46.038 48.116h.397A20.552 20.552 0 0 1 188.155 93.7a20.553 20.553 0 0 1-20.553 20.554h-58.276v4.639h58.276a25.194 25.194 0 0 0 5.753-49.722v.003z" fill="#0078D4"/><path d="M97.117 86.565v32.365h4.776l.002-40.822-40.82.002v4.778H94.04l-62.7 61.516 3.378 3.377 62.398-61.216z" fill="#999"/></svg>