<svg xmlns="http://www.w3.org/2000/svg" viewBox="0 0 48 48"><path d="M24.61 23.37V6.29h-1.262v17.08H4.542v20.135h1.262V24.632h17.544v19.412h1.262V24.632h17.721v18.873h1.262V23.37H24.61z" fill="#50E6FF"/><path d="M29.025 5.025a5.017 5.017 0 0 1-5.012 5.017A5.017 5.017 0 0 1 19 5.025 5.017 5.017 0 0 1 24.013.008a5.017 5.017 0 0 1 5.012 5.017zm.001 37.825a5.017 5.017 0 0 1-5.013 5.016A5.011 5.011 0 0 1 19 42.85a5.017 5.017 0 0 1 5.013-5.017 5.017 5.017 0 0 1 5.013 5.017z" fill="#0078D4"/><path d="M48 42.85a5.017 5.017 0 0 1-5.013 5.016 5.004 5.004 0 0 1-5.004-5.017 5.017 5.017 0 0 1 5.013-5.017A5.01 5.01 0 0 1 48 42.849z" fill="#50E6FF"/><path d="M10.127 42.85a5.017 5.017 0 0 1-5.013 5.016A5.004 5.004 0 0 1 .109 42.85a5.017 5.017 0 0 1 5.013-5.017 5.01 5.01 0 0 1 5.005 5.017z" fill="#0078D4"/></svg>