<svg xmlns="http://www.w3.org/2000/svg" viewBox="0 0 49 49"><path d="M48.115.464H32.981L22.917 10.552v2.597h3.22c.992 0 1.791.799 1.791 1.79v18.25h20.179V.465h.008z" fill="#0078D7"/><path d="M22.883 10.57 32.998.455V10.57H22.883z" fill="#50E6FF"/><path d="M4.42 15.504a.762.762 0 0 1-.765-.765v-4.54A6.153 6.153 0 0 1 9.8 4.054h8.76c.42 0 .766.336.766.765 0 .42-.345.765-.766.765H9.81a4.632 4.632 0 0 0-4.624 4.623v4.54a.76.76 0 0 1-.765.757z" fill="#0078D7"/><path d="m17.965 2.945 3.102 2-3.102 1.993V2.945zm25.887 32.859c.42 0 .765.336.765.765v2.27a6.153 6.153 0 0 1-6.146 6.145H32.99a.762.762 0 0 1-.765-.765c0-.43.345-.765.765-.765h5.482a4.632 4.632 0 0 0 4.624-4.624v-2.27a.748.748 0 0 1 .757-.756z" fill="#0078D7"/><path d="m33.586 46.094-3.094-1.992 3.103-2.001v3.993h-.009zm-8.223-30.38H10.238L.174 25.802v22.63h25.19V15.713z" fill="#0078D7"/><path d="m.14 25.81 10.115-10.114V25.81H.14zm17.615 1.513-7.64 7.64-2.287-2.291-1.526 1.529 3.813 3.812 9.169-9.164-1.53-1.526z" fill="#50E6FF"/></svg>