<svg viewBox="0 0 48 48" fill="none" xmlns="http://www.w3.org/2000/svg" height="1em" width="1em">
  <path d="M10 28v7h8" stroke="#000" stroke-width="4" stroke-linecap="round" stroke-linejoin="round"/>
  <path d="M18 28h24v14H18V28Z" fill="#2F88FF" stroke="#000" stroke-width="4" stroke-linecap="round" stroke-linejoin="round"/>
  <path stroke="#000" stroke-width="4" stroke-linecap="round" stroke-linejoin="round" d="M6 13.5v-1M6 20v-1M6 7V6m26 7.5v-1m0 7.5v-1m0-12V6m0 14h-1M7 20H6M7 6H6m7 0h-1m7.5 0h-1m1 14h-1M26 6h-1M13 20h-1m14 0h-1m7-14h-1"/>
</svg>
