<svg viewBox="0 0 48 48" fill="none" xmlns="http://www.w3.org/2000/svg" height="1em" width="1em">
  <path d="M41 4H7a3 3 0 0 0-3 3v34a3 3 0 0 0 3 3h34a3 3 0 0 0 3-3V7a3 3 0 0 0-3-3Z" fill="#2F88FF" stroke="#000" stroke-width="4" stroke-linecap="round" stroke-linejoin="round"/>
  <path d="M10 14h8m-8 0h8m-7 23 6-6m-3-13v-8m3 27-6-6m19-17h8m-8 17h8m-8 6h8" stroke="#fff" stroke-width="4" stroke-linecap="round" stroke-linejoin="round"/>
  <path d="M24 4v40M4 24h40" stroke="#fff" stroke-width="4" stroke-linecap="round"/>
  <path d="M30 4H18m12 40H18M4 28v-8m40 8v-8" stroke="#000" stroke-width="4" stroke-linecap="round" stroke-linejoin="round"/>
</svg>
