<svg viewBox="0 0 48 48" fill="none" xmlns="http://www.w3.org/2000/svg" height="1em" width="1em">
  <path d="M24 44c9.941 0 18-8.059 18-18S33.941 8 24 8 6 16.059 6 26s8.059 18 18 18Z" fill="#2F88FF" stroke="#000" stroke-width="4" stroke-linejoin="round"/>
  <path d="M24 8c-.25-1-2-4-6-4m6 4c.083-1 .6-3.2 2-4" stroke="#000" stroke-width="4" stroke-linecap="round" stroke-linejoin="round"/>
  <path d="M31 33s-2 4-7 4-7-4-7-4" stroke="#fff" stroke-width="4" stroke-linecap="round" stroke-linejoin="round"/>
  <path d="M31 33s1.5-4-1-4-3 7-3 7m6-15h-4m-12-2v4" stroke="#fff" stroke-width="4" stroke-linecap="round" stroke-linejoin="round"/>
  <path d="M4 24v4m40-4v4" stroke="#000" stroke-width="4" stroke-linecap="round" stroke-linejoin="round"/>
</svg>
