<svg viewBox="0 0 48 48" fill="none" xmlns="http://www.w3.org/2000/svg" height="1em" width="1em">
  <path d="M19 9.556V4h-6v10m16-4.444V4h6v10" stroke="#000" stroke-width="4" stroke-linecap="round" stroke-linejoin="round"/>
  <path d="M11 20c0-5.523 4.477-10 10-10h6c5.523 0 10 4.477 10 10v20a4 4 0 0 1-4 4H15a4 4 0 0 1-4-4V20Z" fill="#2F88FF" stroke="#000" stroke-width="4" stroke-linecap="round" stroke-linejoin="round"/>
  <path d="M11 29H5v10h6m26-10h6v10h-6" stroke="#000" stroke-width="4" stroke-linecap="round" stroke-linejoin="round"/>
  <path d="M28 23v4m-11-4h14" stroke="#fff" stroke-width="4" stroke-linecap="round" stroke-linejoin="round"/>
</svg>
