<svg viewBox="0 0 48 48" fill="none" xmlns="http://www.w3.org/2000/svg" height="1em" width="1em">
  <path d="M9.455 30.994A13.95 13.95 0 0 1 4 19.885C4 12.217 10.105 6 17.636 6c6.297 0 11.598 4.346 13.166 10.253a8.921 8.921 0 0 1 4.107-.996c5.02 0 9.091 4.144 9.091 9.257 0 3.795-2.244 7.058-5.455 8.486" stroke="#000" stroke-width="4" stroke-linecap="round" stroke-linejoin="round"/>
  <path d="M26 42a6 6 0 1 0 0-12 6 6 0 0 0 0 12Z" fill="#2F88FF" stroke="#000" stroke-width="4" stroke-linejoin="round"/>
  <path d="M22.243 15.757a6 6 0 0 0-8.485 8.485" stroke="#000" stroke-width="4" stroke-linecap="round" stroke-linejoin="round"/>
</svg>
