<svg viewBox="0 0 48 48" fill="none" xmlns="http://www.w3.org/2000/svg" height="1em" width="1em">
  <path d="M8.92 8.714C8.495 7.39 9.476 6 10.867 6h26.266c1.391 0 2.372 1.39 1.947 2.714C37.9 12.4 36 19.09 36 24s1.9 11.6 3.08 15.286c.425 1.325-.556 2.714-1.947 2.714H10.867c-1.391 0-2.372-1.39-1.947-2.714C10.1 35.6 12 28.91 12 24S10.1 12.4 8.92 8.714Z" fill="#2F88FF" stroke="#000" stroke-width="4" stroke-linecap="round" stroke-linejoin="round"/>
  <path d="M4 15c1.5 2 2 6 2 9s-.5 7-2 9" stroke="#000" stroke-width="4" stroke-linecap="round" stroke-linejoin="round"/>
  <path d="M18 15.5h12M18 24h12m-12 8h4" stroke="#fff" stroke-width="4" stroke-linecap="round"/>
  <path d="M44 15c-1.5 2-2 6-2 9s.5 6 2 9" stroke="#000" stroke-width="4" stroke-linecap="round" stroke-linejoin="round"/>
</svg>
