<svg viewBox="0 0 48 48" fill="none" xmlns="http://www.w3.org/2000/svg" height="1em" width="1em">
  <g clip-path="url(#a)" stroke-width="4" stroke-linejoin="round">
    <path d="m16.1 25.829 22.627-19.8s2.12-2.12 4.242 0c2.121 2.122 0 4.243 0 4.243L23.17 32.9l-7.07-7.071Z" fill="#2F88FF" stroke="#000"/>
    <path d="m22.464 20.879 5.657 5.657" stroke="#fff" stroke-linecap="round"/>
    <path d="m5.493 30.778 10.607-4.95 7.07 7.072-4.95 10.606s-4.95.707-9.192-3.535c-4.243-4.243-3.536-9.193-3.536-9.193Z" stroke="#000"/>
    <path d="m6.908 36.435 4.95-2.121m.707 7.778 1.415-2.828" stroke="#000" stroke-linecap="round"/>
    <path d="m18.93 23.354 2.828-2.475 2.828-2.475m6.01 6.01-2.475 2.828-2.475 2.829" stroke="#000"/>
  </g>
  <defs>
    <clipPath id="a">
      <path fill="#fff" d="M0 0h48v48H0z"/>
    </clipPath>
  </defs>
</svg>
