<svg viewBox="0 0 48 48" fill="none" xmlns="http://www.w3.org/2000/svg" height="1em" width="1em">
  <path d="M15 8C8.925 8 4 12.925 4 19c0 11 13 21 20 23.326C31 40 44 30 44 19c0-6.075-4.925-11-11-11-3.72 0-7.01 1.847-9 4.674A10.987 10.987 0 0 0 15 8Z" fill="#2F88FF" stroke="#000" stroke-width="4" stroke-linecap="round" stroke-linejoin="round"/>
  <path fill-rule="evenodd" clip-rule="evenodd" d="m28 20-8 8 8-8Z" fill="#2F88FF"/>
  <path d="m28 20-8 8" stroke="#fff" stroke-width="4" stroke-linecap="round" stroke-linejoin="round"/>
  <path fill-rule="evenodd" clip-rule="evenodd" d="m20 20 8 8-8-8Z" fill="#2F88FF"/>
  <path d="m20 20 8 8" stroke="#fff" stroke-width="4" stroke-linecap="round" stroke-linejoin="round"/>
</svg>
