<svg viewBox="0 0 48 48" fill="none" xmlns="http://www.w3.org/2000/svg" height="1em" width="1em">
  <rect x="6" y="6" width="36" height="36" rx="3" fill="#2F88FF" stroke="#000" stroke-width="4"/>
  <path d="M35 12h-4.586c-.89 0-1.337 1.077-.707 1.707l4.586 4.586c.63.63 1.707.184 1.707-.707V13a1 1 0 0 0-1-1Zm-23 1v4.586c0 .89 1.077 1.337 1.707.707l4.586-4.586c.63-.63.184-1.707-.707-1.707H13a1 1 0 0 0-1 1Zm1 23h4.586c.89 0 1.337-1.077.707-1.707l-4.586-4.586c-.63-.63-1.707-.184-1.707.707V35a1 1 0 0 0 1 1Zm23-1v-4.586c0-.89-1.077-1.337-1.707-.707l-4.586 4.586c-.63.63-.184 1.707.707 1.707H35a1 1 0 0 0 1-1Z" fill="#fff"/>
</svg>
