<svg viewBox="0 0 48 48" fill="none" xmlns="http://www.w3.org/2000/svg" height="1em" width="1em">
  <path d="M10 38v6h28v-6m0-18v-6L30 4H10v16" stroke="#000" stroke-width="4" stroke-linecap="round" stroke-linejoin="round"/>
  <path d="M28 4v10h10" stroke="#000" stroke-width="4" stroke-linecap="round" stroke-linejoin="round"/>
  <rect x="4" y="20" width="40" height="18" rx="2" stroke="#000" stroke-width="4" stroke-linejoin="round"/>
  <path d="M21 25v8m-11-8v8" stroke="#000" stroke-width="4" stroke-linecap="round"/>
  <path d="M32 33v-8h5m-5 5h5m-27-5h3.5a2.5 2.5 0 0 1 2.5 2.5v0a2.5 2.5 0 0 1-2.5 2.5H10m11-5h2a4 4 0 0 1 4 4v0a4 4 0 0 1-4 4h-2" stroke="#000" stroke-width="4" stroke-linecap="round" stroke-linejoin="round"/>
  <path d="M16 12h4" stroke="#000" stroke-width="4" stroke-linecap="round"/>
</svg>
