<svg viewBox="0 0 48 48" fill="none" xmlns="http://www.w3.org/2000/svg" height="1em" width="1em">
  <path d="M43 23v-9a2 2 0 0 0-2-2H24l-5-6H7a2 2 0 0 0-2 2v32a2 2 0 0 0 2 2h15" stroke="#000" stroke-width="4" stroke-linecap="round" stroke-linejoin="round"/>
  <circle cx="35" cy="35" r="4" fill="#2F88FF" stroke="#000" stroke-width="4"/>
  <path d="M35 28v3m0 8v3m4.828-12-2.121 2.121M31.828 38l-2.121 2.121M30 30l2.121 2.121M38 38l2.121 2.121M28 35h3m8 0h3" stroke="#000" stroke-width="4" stroke-linecap="round" stroke-linejoin="round"/>
</svg>
