<svg viewBox="0 0 48 48" fill="none" xmlns="http://www.w3.org/2000/svg" height="1em" width="1em">
  <path d="M19 30v3a7 7 0 0 1-7 7v0a7 7 0 0 1-7-7V19m24 11v3a7 7 0 0 0 7 7v0a7 7 0 0 0 7-7V19" stroke="#000" stroke-width="4" stroke-linecap="round" stroke-linejoin="round"/>
  <rect x="5" y="8" width="38" height="22" rx="11" fill="#2F88FF" stroke="#000" stroke-width="4"/>
  <path d="M21 19h-8m4-4v8" stroke="#fff" stroke-width="4" stroke-linecap="round" stroke-linejoin="round"/>
  <rect x="32" y="15" width="4" height="4" rx="2" fill="#fff"/>
  <rect x="28" y="20" width="4" height="4" rx="2" fill="#fff"/>
</svg>
