<svg viewBox="0 0 48 48" fill="none" xmlns="http://www.w3.org/2000/svg" height="1em" width="1em">
  <path d="M42.336 16C39.249 8.936 32.2 4 24 4 15.799 4 8.75 8.936 5.664 16" stroke="#000" stroke-width="4" stroke-linecap="round" stroke-linejoin="round"/>
  <path d="M24 14a19.94 19.94 0 0 0-6 14.283c0 .5.018.996.055 1.488A19.938 19.938 0 0 1 24 44a19.938 19.938 0 0 1 5.945-14.23A19.94 19.94 0 0 0 24 14Z" fill="#2F88FF" stroke="#000" stroke-width="4" stroke-linecap="round" stroke-linejoin="round"/>
  <path d="M4 24c0 11.046 8.954 20 20 20a19.938 19.938 0 0 0-5.945-14.23A19.936 19.936 0 0 0 4 24Z" fill="#2F88FF" stroke="#000" stroke-width="4" stroke-linecap="round" stroke-linejoin="round"/>
  <path d="M44 24c0 11.046-8.954 20-20 20a19.938 19.938 0 0 1 5.945-14.23A19.936 19.936 0 0 1 44 24Z" fill="#2F88FF" stroke="#000" stroke-width="4" stroke-linecap="round" stroke-linejoin="round"/>
</svg>
