<svg viewBox="0 0 48 48" fill="none" xmlns="http://www.w3.org/2000/svg" height="1em" width="1em">
  <path d="M40 22v-1c0-8.837-7.163-16-16-16S8 12.163 8 21v1m0 12s-2 5 2 7 24 2 28 0 2-7 2-7" stroke="#000" stroke-width="4" stroke-linecap="round" stroke-linejoin="round"/>
  <rect x="5" y="21" width="38" height="14" rx="7" fill="#2F88FF" stroke="#000" stroke-width="4" stroke-linecap="round" stroke-linejoin="round"/>
  <path d="m11 29 1.592-.796A5.996 5.996 0 0 1 17.5 28l.424.17A4.979 4.979 0 0 0 22 28v0a4.979 4.979 0 0 1 4.076-.17l.96.384a4.71 4.71 0 0 0 3.857-.16v0a4.712 4.712 0 0 1 4.214 0L37 29" stroke="#fff" stroke-width="4" stroke-linecap="round" stroke-linejoin="round"/>
  <circle cx="17" cy="15.05" r="2.5" fill="#000"/>
  <circle cx="23.75" cy="12.3" r="2.5" fill="#000"/>
</svg>
