<svg viewBox="0 0 48 48" fill="none" xmlns="http://www.w3.org/2000/svg" height="1em" width="1em">
  <path d="M11 26v18h26V26L24 13 11 26Z" fill="#2F88FF" stroke="#000" stroke-width="4" stroke-linejoin="round"/>
  <path d="M3.586 21.586a2 2 0 1 0 2.828 2.828l-2.828-2.828ZM24 4l1.414-1.414a2 2 0 0 0-2.828 0L24 4Zm17.586 20.414a2 2 0 1 0 2.828-2.828l-2.828 2.828Zm-35.172 0 19-19-2.828-2.828-19 19 2.828 2.828Zm16.172-19 19 19 2.828-2.828-19-19-2.828 2.828Z" fill="#000"/>
  <path d="M19 31h10m-5-5v10" stroke="#fff" stroke-width="4" stroke-linecap="round" stroke-linejoin="round"/>
</svg>
