<svg viewBox="0 0 48 48" fill="none" xmlns="http://www.w3.org/2000/svg" height="1em" width="1em">
  <path d="M42 4H6a2 2 0 0 0-2 2l.001 36a2 2 0 0 0 2 2h36a2 2 0 0 0 2-2V6a2 2 0 0 0-2-2Z" fill="#2F88FF" stroke="#000" stroke-width="4"/>
  <path d="M20.009 34.008H33.5v-14" stroke="#fff" stroke-width="4" stroke-linecap="round" stroke-linejoin="round"/>
  <path d="M24.5 38.5 23 37l-3-3 3-3 1.5-1.5m4.5-5 1.5-1.5 3-3 3 3 1.5 1.5" stroke="#fff" stroke-width="4" stroke-linecap="round" stroke-linejoin="round"/>
  <path d="M14 4v40M4 14.038 44 14" stroke="#fff" stroke-width="4" stroke-linecap="round"/>
  <path d="M8 4h20M8 44h20" stroke="#000" stroke-width="4" stroke-linecap="round" stroke-linejoin="round"/>
  <path d="M44 8v10M4 8v10" stroke="#000" stroke-width="4" stroke-linecap="round"/>
</svg>
