<svg viewBox="0 0 48 48" fill="none" xmlns="http://www.w3.org/2000/svg" height="1em" width="1em">
  <path d="M32.297 6H15.704a1 1 0 0 0-.942.662l-6.67 18.581a1 1 0 0 0-.04.525l1.793 9.42a1 1 0 0 0 .982.812h26.346a1 1 0 0 0 .982-.813l1.794-9.419a1 1 0 0 0-.041-.525l-6.67-18.58A1 1 0 0 0 32.297 6Z" fill="#2F88FF" stroke="#000" stroke-width="4" stroke-linecap="round" stroke-linejoin="round"/>
  <path d="M24 36v8" stroke="#000" stroke-width="4" stroke-linecap="round" stroke-linejoin="round"/>
  <path d="M24 12v6m-7.5 5.402 3 5.196m12-5.196-3 5.196" stroke="#fff" stroke-width="4" stroke-linecap="round" stroke-linejoin="round"/>
</svg>
