<svg viewBox="0 0 48 48" fill="none" xmlns="http://www.w3.org/2000/svg" height="1em" width="1em">
  <path d="M12 6a2 2 0 0 1 2-2h20a2 2 0 0 1 2 2v24a2 2 0 0 1-2 2H14a2 2 0 0 1-2-2V6Z" fill="#2F88FF" stroke="#000" stroke-width="4" stroke-linejoin="round"/>
  <circle cx="18" cy="26" r="2" fill="#fff"/>
  <circle cx="30" cy="26" r="2" fill="#fff"/>
  <path d="M12 20h24" stroke="#fff" stroke-width="4" stroke-linecap="round" stroke-linejoin="round"/>
  <path d="M21 38h6m-9 6h12" stroke="#000" stroke-width="4" stroke-linecap="round" stroke-linejoin="round"/>
  <path d="m17 32-6 12m20-12 6 12" stroke="#000" stroke-width="4" stroke-linecap="round"/>
  <path d="M36 15v10M12 15v10" stroke="#000" stroke-width="4" stroke-linecap="round" stroke-linejoin="round"/>
</svg>
