<svg viewBox="0 0 48 48" fill="none" xmlns="http://www.w3.org/2000/svg" height="1em" width="1em">
  <g clip-path="url(#a)" stroke="#000" stroke-width="4" stroke-linejoin="round">
    <path d="M29.234 6.98c3.714-1.568 11.276-2.47 13.794 5.891 2.518 8.362-8.307 14.612-8.026 8.099.28-6.514 7.995-1.152 7.83 3.562-.165 4.714-5.063 5.232-5.063 5.232" stroke-linecap="round"/>
    <rect x="4.241" y="15.778" width="26" height="12" rx="2" transform="rotate(-30 4.241 15.778)" fill="#2F88FF"/>
    <path d="M21.5 19.67 29 32.66" stroke-linecap="round"/>
    <rect x="26.401" y="34.16" width="6" height="10" rx="3" transform="rotate(-30 26.401 34.16)" fill="#2F88FF"/>
    <path d="m11.401 8.18 5.197-3m5.303 21.186 5.197-3" stroke-linecap="round"/>
  </g>
  <defs>
    <clipPath id="a">
      <path fill="#fff" d="M0 0h48v48H0z"/>
    </clipPath>
  </defs>
</svg>
