<svg viewBox="0 0 48 48" fill="none" xmlns="http://www.w3.org/2000/svg" height="1em" width="1em">
  <path d="M24 37c7.18 0 13-5.82 13-13s-5.82-13-13-13-13 5.82-13 13 5.82 13 13 13Z" fill="#2F88FF" stroke="#000" stroke-width="4" stroke-linejoin="round"/>
  <path d="M24 6a2.5 2.5 0 1 0 0-5 2.5 2.5 0 0 0 0 5Zm14.5 6a2.5 2.5 0 1 0 0-5 2.5 2.5 0 0 0 0 5Zm6 14.5a2.5 2.5 0 1 0 0-5 2.5 2.5 0 0 0 0 5Zm-6 14.5a2.5 2.5 0 1 0 0-5 2.5 2.5 0 0 0 0 5ZM24 47a2.5 2.5 0 1 0 0-5 2.5 2.5 0 0 0 0 5ZM9.5 41a2.5 2.5 0 1 0 0-5 2.5 2.5 0 0 0 0 5Zm-6-14.5a2.5 2.5 0 1 0 0-5 2.5 2.5 0 0 0 0 5Zm6-14.5a2.5 2.5 0 1 0 0-5 2.5 2.5 0 0 0 0 5Z" fill="#000"/>
</svg>
