<svg viewBox="0 0 48 48" fill="none" xmlns="http://www.w3.org/2000/svg" height="1em" width="1em">
  <path d="M4 24h3m3-14 2 2m12-8v3M14 24c0-5.522 4.478-10 10-10s10 4.478 10 10a9.987 9.987 0 0 1-4.215 8.158M38 10l-2 2m8 12h-3m-3.019 13.982-1.62-1.62" stroke="#000" stroke-width="4" stroke-linecap="round" stroke-linejoin="round"/>
  <path d="M23.5 28c-3 0-9.5.2-9.5 3s4.606 2.79 7 3c2 .175 5.462 1.688 5 4-1 5-17 4-21 4" stroke="#000" stroke-width="4" stroke-linecap="round" stroke-linejoin="round"/>
</svg>
