<svg viewBox="0 0 48 48" fill="none" xmlns="http://www.w3.org/2000/svg" height="1em" width="1em">
  <path d="M6 12a8 8 0 0 1 8-8h5a2 2 0 0 1 2 2v34a2 2 0 0 1-2 2h-5a8 8 0 0 1-8-8V12Zm36 2a8 8 0 0 0-8-8h-6a2 2 0 0 0-2 2v34a2 2 0 0 0 2 2h6a8 8 0 0 0 8-8V14Z" fill="#2F88FF" stroke="#000" stroke-width="4"/>
  <rect x="11" y="30" width="5" height="5" rx="2.5" fill="#fff"/>
  <rect x="31.5" y="14" width="5" height="5" rx="2.5" fill="#fff"/>
  <path d="M15 17h-3m22 11v6m-3-3h6" stroke="#fff" stroke-width="4" stroke-linecap="round" stroke-linejoin="round"/>
</svg>
