<svg viewBox="0 0 48 48" fill="none" xmlns="http://www.w3.org/2000/svg" height="1em" width="1em">
  <path d="M42 6H6a2 2 0 0 0-2 2v32a2 2 0 0 0 2 2h36a2 2 0 0 0 2-2V8a2 2 0 0 0-2-2Z" fill="#2F88FF" stroke="#000" stroke-width="4" stroke-linejoin="round"/>
  <path d="M4 18h40m-26.5 0v24m13-24v24M4 30h40" stroke="#fff" stroke-width="4" stroke-linecap="round" stroke-linejoin="round"/>
  <path d="M44 8v32a2 2 0 0 1-2 2H6a2 2 0 0 1-2-2V8" stroke="#000" stroke-width="4" stroke-linecap="round" stroke-linejoin="round"/>
</svg>
