<svg viewBox="0 0 48 48" fill="none" xmlns="http://www.w3.org/2000/svg" height="1em" width="1em">
  <path d="m22 29-8.224 4.112a3 3 0 0 1-3.287-.4L4 27.18l3.562-1.365a3 3 0 0 1 1.986-.057l3.28 1.047a3 3 0 0 0 2.27-.182l22.262-11.3A3 3 0 0 1 38.718 15H44l-1.553 3.106a3 3 0 0 1-1.341 1.341L32 24" stroke="#000" stroke-width="4" stroke-linecap="round" stroke-linejoin="round"/>
  <path d="m22 29-4 2 5 10 9-17m-15 1-5-9 16 4" stroke="#000" stroke-width="4" stroke-linecap="round" stroke-linejoin="round"/>
</svg>
