<svg viewBox="0 0 48 48" fill="none" xmlns="http://www.w3.org/2000/svg" height="1em" width="1em">
  <path d="M40 16.398V6a2 2 0 0 0-2-2H10a2 2 0 0 0-2 2v36a2 2 0 0 0 2 2h10" stroke="#000" stroke-width="4" stroke-linecap="round" stroke-linejoin="round"/>
  <path d="M16 14h13m-13 7h5" stroke="#000" stroke-width="4" stroke-linecap="round"/>
  <path d="M34 44c-5.523 0-10-4.477-10-10s4.477-10 10-10 10 4.477 10 10-4.477 10-10 10Z" fill="#2F88FF" stroke="#000" stroke-width="4" stroke-linecap="round" stroke-linejoin="round"/>
  <path d="m27 27 14 14" stroke="#fff" stroke-width="4" stroke-linecap="round"/>
  <path d="M24 34c0-5.523 4.477-10 10-10m0 20c5.523 0 10-4.477 10-10" stroke="#000" stroke-width="4" stroke-linecap="round" stroke-linejoin="round"/>
</svg>
