<svg viewBox="0 0 24 24" fill="none" xmlns="http://www.w3.org/2000/svg" height="1em" width="1em">
  <path d="M17.669 18.268a5.163 5.163 0 0 1-1.9-.337 4.024 4.024 0 0 1-1.439-.958 4.348 4.348 0 0 1-.905-1.485 5.461 5.461 0 0 1-.319-1.9 5.244 5.244 0 0 1 .328-1.864 4.358 4.358 0 0 1 .934-1.493 4.46 4.46 0 0 1 1.444-.994 4.6 4.6 0 0 1 1.858-.363 4.262 4.262 0 0 1 1.979.44 3.983 3.983 0 0 1 1.39 1.183c.369.507.635 1.082.783 1.691.162.648.22 1.317.171 1.983h-6.431c-.026.633.191 1.25.606 1.729a2.186 2.186 0 0 0 1.584.538c.454.01.9-.12 1.278-.373.3-.183.53-.46.653-.789h2.155a4.108 4.108 0 0 1-1.588 2.3 4.642 4.642 0 0 1-2.581.692Zm-.069-7.544a2.092 2.092 0 0 0-.974.2c-.238.12-.449.287-.62.49-.15.185-.263.399-.328.628a2.812 2.812 0 0 0-.111.587h3.982a2.377 2.377 0 0 0-.563-1.409 1.834 1.834 0 0 0-1.386-.496Zm-9.63 7.312H2V5.731h5.8a7.645 7.645 0 0 1 1.6.155c.446.087.87.26 1.251.508a2.4 2.4 0 0 1 .8.939c.2.454.295.947.28 1.443a2.71 2.71 0 0 1-.417 1.555c-.32.443-.755.792-1.256 1.011.681.17 1.28.577 1.69 1.147.38.587.573 1.276.552 1.975a3.418 3.418 0 0 1-.358 1.614c-.23.444-.564.826-.974 1.113a4.32 4.32 0 0 1-1.4.64 6.28 6.28 0 0 1-1.603.206l.005-.001Zm-3.26-5.483v3.39H7.6c.255.003.51-.023.76-.077.229-.044.446-.133.64-.262a1.29 1.29 0 0 0 .44-.491c.118-.25.173-.524.162-.8a1.614 1.614 0 0 0-.534-1.358 2.286 2.286 0 0 0-1.414-.4l-2.944-.002Zm0-4.725v2.875h2.742c.424.017.842-.104 1.192-.345a1.3 1.3 0 0 0 .464-1.119 1.487 1.487 0 0 0-.152-.708 1.122 1.122 0 0 0-.417-.428 1.677 1.677 0 0 0-.6-.215 3.575 3.575 0 0 0-.7-.061l-2.529.001Zm15.341-.056h-4.99V6.557h4.99v1.215Z" fill="#000"/>
</svg>
