<svg viewBox="0 0 24 24" fill="none" xmlns="http://www.w3.org/2000/svg" height="1em" width="1em">
  <path d="M12 22C6.477 22 2 17.523 2 12S6.477 2 12 2s10 4.477 10 10c-.006 5.52-4.48 9.994-10 10Zm-4.88-3.455-.005.01a8.148 8.148 0 0 0 7.939 1.033 34.534 34.534 0 0 0-1.679-5.977 12.638 12.638 0 0 0-4.546 2.773 9.68 9.68 0 0 0-1.65 2.057l-.007.011v-.01l-.018.035-.012.02-.007.013-.017.036.002-.001Zm9.659-5.5c-.492 0-.984.034-1.472.1a37.456 37.456 0 0 1 1.5 5.463 8.052 8.052 0 0 0 3.22-5.127 12.187 12.187 0 0 0-3.248-.439v.003Zm-12.962-1.09v.056a8.181 8.181 0 0 0 1.925 5.264 13.522 13.522 0 0 1 6.772-5.375l.119-.034c-.177-.391-.343-.74-.509-1.066a31.124 31.124 0 0 1-8.195 1.155h-.112Zm12.649-.606a21.36 21.36 0 0 1 3.7.338 8.105 8.105 0 0 0-1.692-4.659 11.791 11.791 0 0 1-4.4 3.084l.029-.012-.031.013a23.484 23.484 0 0 1 .548 1.233l.041.1c.6-.066 1.202-.099 1.805-.097ZM8.377 4.677a8.178 8.178 0 0 0-4.33 5.414c2.33-.036 4.65-.33 6.915-.878h.028L11 9.2l.054-.013h.006l.04-.008h.016l.021-.006.04-.01.023-.01.022-.006h.02a51.796 51.796 0 0 0-2.866-4.47h.001ZM12 3.839a8.437 8.437 0 0 0-1.631.155 45.662 45.662 0 0 1 2.879 4.528 9.666 9.666 0 0 0 4.036-2.746A8.192 8.192 0 0 0 12 3.839Z" fill="#000"/>
</svg>
