<svg viewBox="0 0 24 24" fill="none" xmlns="http://www.w3.org/2000/svg" height="1em" width="1em">
  <path d="M18 22H6a2 2 0 0 1-2-2V4a2 2 0 0 1 2-2h7a.104.104 0 0 1 .027 0h.006a.15.15 0 0 0 .029.006c.088.006.175.023.259.051h.042a.421.421 0 0 1 .052.043.988.988 0 0 1 .293.2l6 6a.987.987 0 0 1 .2.293.735.735 0 0 1 .023.066l.01.028c.028.083.044.17.049.258a.1.1 0 0 0 .007.029v.006A.112.112 0 0 1 20 9v11a2 2 0 0 1-2 2Zm-5.884-4.6c-.006.296.063.59.2.852a1.4 1.4 0 0 0 .55.555c.237.129.502.195.772.193.366.019.724-.11.994-.357A1.33 1.33 0 0 0 15 17.65a1.506 1.506 0 0 0-.3-.95 2.178 2.178 0 0 0-.932-.632 1.67 1.67 0 0 1-.514-.334.54.54 0 0 1-.145-.364.6.6 0 0 1 .13-.408.449.449 0 0 1 .362-.154.434.434 0 0 1 .378.181.859.859 0 0 1 .132.517H15a1.738 1.738 0 0 0-.172-.782 1.237 1.237 0 0 0-.486-.531A1.382 1.382 0 0 0 13.62 14a1.407 1.407 0 0 0-1 .374 1.3 1.3 0 0 0-.392.986 1.4 1.4 0 0 0 .29.882c.258.292.585.515.951.649.186.072.356.18.5.317.101.127.15.287.139.448 0 .361-.157.544-.465.544a.578.578 0 0 1-.483-.19 1.012 1.012 0 0 1-.148-.612l-.896.002ZM9 17.5c-.022.395.097.784.335 1.1.235.27.581.418.939.4.356.008.695-.15.918-.427.25-.325.376-.728.356-1.137v-3.369h-.887v3.322c0 .528-.13.8-.387.8s-.383-.232-.383-.689H9ZM13 4v5h5l-5-5Z" fill="#000"/>
</svg>
