<svg viewBox="0 0 24 24" fill="none" xmlns="http://www.w3.org/2000/svg" height="1em" width="1em">
  <path d="M12 22C6.477 22 2 17.523 2 12S6.477 2 12 2s10 4.477 10 10c-.006 5.52-4.48 9.994-10 10Zm0-18a8 8 0 1 0 8 8 8.009 8.009 0 0 0-8-8Zm-2 14c-.014 0-.14-.005-1-.005H8v-.066c0-.033 0-.078.007-.133a4.7 4.7 0 0 1 .472-1.743 3.6 3.6 0 0 1 1.23-1.414l.014-.009.016-.012.015-.008h.025l.011-.007A4.117 4.117 0 0 1 12 14a4.06 4.06 0 0 1 2.29.635c.527.355.951.843 1.23 1.414.204.414.346.855.419 1.311.032.188.046.339.052.432 0 .044.006.088.007.133v.062h-2v-.059c0-.055-.013-.14-.031-.246a2.698 2.698 0 0 0-.236-.747 1.638 1.638 0 0 0-.551-.645A2.11 2.11 0 0 0 12 16a2.11 2.11 0 0 0-1.18.3 1.647 1.647 0 0 0-.551.645 2.716 2.716 0 0 0-.266.993v.058H10V18Zm-1.5-6a1.5 1.5 0 1 1 0-3 1.5 1.5 0 0 1 0 3Zm6.993-.014a1.493 1.493 0 1 1 0-2.986 1.493 1.493 0 0 1 0 2.986Z" fill="#000"/>
</svg>
