<svg viewBox="0 0 24 24" fill="none" xmlns="http://www.w3.org/2000/svg" height="1em" width="1em">
  <path d="M9.847 15.827c2.643 1.113 6.116-.372 7.98-3.505 1.974-3.317 1.397-7.226-1.29-8.731-2.685-1.505-6.463-.036-8.437 3.282-1.636 2.749-1.52 5.905.098 7.762L5 20.009l1.769.99 3.078-5.172Zm6.236-4.482a6.647 6.647 0 0 1-1.346 1.633V5.04c.288.051.55.142.778.27 1.375.77 2.205 3.284.568 6.035ZM11.674 14.2V5.84c.678-.47 1.386-.732 2.042-.817v8.657c-.7.37-1.41.532-2.042.52Zm-1.021-.2a2.203 2.203 0 0 1-.24-.116c-1.376-.77-2.205-3.284-.568-6.035.248-.418.52-.785.808-1.104V14Z" fill="#000"/>
</svg>
