<svg viewBox="0 0 20 20" fill="none" xmlns="http://www.w3.org/2000/svg" height="1em" width="1em">
  <path fill-rule="evenodd" clip-rule="evenodd" d="M5.675 2.5a1 1 0 0 1 1-1h6.643a1 1 0 0 1 1 1v3.875a1 1 0 0 1-1 1H6.675a1 1 0 0 1-1-1V2.5Zm2 1v1.875h4.643V3.5H7.675Z" fill="currentColor"/>
  <path d="M16.086 18H3.907A1.107 1.107 0 0 1 2.8 16.893V3.607c0-.611.496-1.107 1.107-1.107H7.23v2.214H5.014v11.072h9.965V4.714h-2.215V2.5h3.322c.611 0 1.107.496 1.107 1.107v13.286c0 .611-.496 1.107-1.107 1.107Z" fill="currentColor"/>
</svg>
