<svg viewBox="0 0 20 20" fill="none" xmlns="http://www.w3.org/2000/svg" height="1em" width="1em">
  <path fill-rule="evenodd" clip-rule="evenodd" d="M1.59 9.331a1 1 0 0 1 1.412-.074l3.334 3a1 1 0 0 1-1.338 1.486l-3.334-3a1 1 0 0 1-.074-1.412Z" fill="currentColor"/>
  <path fill-rule="evenodd" clip-rule="evenodd" d="M6.41 6.331a1 1 0 0 1-.074 1.412l-3.334 3a1 1 0 1 1-1.338-1.486l3.334-3a1 1 0 0 1 1.412.074Zm12 3a1 1 0 0 1-.074 1.412l-3.334 3a1 1 0 1 1-1.338-1.486l3.334-3a1 1 0 0 1 1.412.074Z" fill="currentColor"/>
  <path fill-rule="evenodd" clip-rule="evenodd" d="M13.59 6.331a1 1 0 0 1 1.412-.074l3.334 3a1 1 0 0 1-1.338 1.486l-3.334-3a1 1 0 0 1-.074-1.412Zm-1.827-2.796a1 1 0 0 1 .702 1.228l-3 11a1 1 0 0 1-1.93-.526l3-11a1 1 0 0 1 1.228-.702Z" fill="currentColor"/>
</svg>
