<svg viewBox="0 0 20 20" fill="none" xmlns="http://www.w3.org/2000/svg" height="1em" width="1em">
  <path d="M12.25 10a1.25 1.25 0 1 1 0-2.5 1.25 1.25 0 0 1 0 2.5Zm2 2.5a1.25 1.25 0 1 1 0-2.5 1.25 1.25 0 0 1 0 2.5Z" fill="currentColor"/>
  <path fill-rule="evenodd" clip-rule="evenodd" d="M14.5 4h-9a5 5 0 0 0-5 5v2a5 5 0 0 0 5 5h9a5 5 0 0 0 5-5V9a5 5 0 0 0-5-5Zm-12 5a3 3 0 0 1 3-3h9a3 3 0 0 1 3 3v2a3 3 0 0 1-3 3h-9a3 3 0 0 1-3-3V9Z" fill="currentColor"/>
  <path d="M4 11a1 1 0 1 1 0-2h4a1 1 0 0 1 0 2H4Z" fill="currentColor"/>
  <path d="M7 12a1 1 0 1 1-2 0V8a1 1 0 0 1 2 0v4Z" fill="currentColor"/>
</svg>
