<svg viewBox="0 0 20 20" fill="none" xmlns="http://www.w3.org/2000/svg" height="1em" width="1em">
  <path fill-rule="evenodd" clip-rule="evenodd" d="M16.49 13.713a4.003 4.003 0 0 0 0-7.426A4 4 0 0 0 10 2.877a4 4 0 0 0-6.49 3.41 4.003 4.003 0 0 0 0 7.426 4 4 0 0 0 6.49 3.41 4 4 0 0 0 6.49-3.41Zm-2.108-7.035a1 1 0 0 0 .835 1.334 2 2 0 0 1 0 3.976 1 1 0 0 0-.835 1.334 2 2 0 0 1-3.55 1.783 1 1 0 0 0-1.665 0 2 2 0 0 1-3.55-1.783 1 1 0 0 0-.834-1.333 2 2 0 0 1 0-3.977 1 1 0 0 0 .835-1.334 2 2 0 0 1 3.55-1.783 1 1 0 0 0 1.665 0 2 2 0 0 1 3.55 1.783Z" fill="currentColor"/>
  <path d="M13.5 10a3.5 3.5 0 1 1-7 0 3.5 3.5 0 0 1 7 0Z" fill="currentColor"/>
</svg>
