<svg viewBox="0 0 20 20" fill="none" xmlns="http://www.w3.org/2000/svg" height="1em" width="1em">
  <path d="M10.558 2.25a.75.75 0 0 1 .685.447l.443 1A.75.75 0 0 1 11 4.75H9a.75.75 0 0 1-.703-1.012l.373-1a.75.75 0 0 1 .703-.488h1.185Zm-1.115 15.5a.75.75 0 0 1-.686-.447l-.443-1A.75.75 0 0 1 9 15.25h2a.75.75 0 0 1 .703 1.012l-.373 1a.75.75 0 0 1-.703.488H9.443Zm8.307-7.193a.75.75 0 0 1-.446.686l-1 .443A.75.75 0 0 1 15.25 11V9a.75.75 0 0 1 1.012-.703l1 .373a.75.75 0 0 1 .488.703v1.184ZM2.25 9.442a.75.75 0 0 1 .447-.685l1-.443A.75.75 0 0 1 4.75 9v2a.75.75 0 0 1-1.012.703l-1-.373a.75.75 0 0 1-.488-.703V9.442Zm13.624-4.528a.75.75 0 0 1 .17.8l-.395 1.02a.75.75 0 0 1-1.23.26l-1.414-1.413a.75.75 0 0 1 .219-1.213l.97-.443a.75.75 0 0 1 .843.151l.837.838ZM4.126 15.086a.75.75 0 0 1-.17-.8l.395-1.02a.75.75 0 0 1 1.23-.26l1.414 1.413a.75.75 0 0 1-.219 1.213l-.97.443a.75.75 0 0 1-.842-.151l-.838-.838Zm10.96.788a.75.75 0 0 1-.8.17l-1.02-.395a.75.75 0 0 1-.26-1.23l1.414-1.414a.75.75 0 0 1 1.212.219l.444.97a.75.75 0 0 1-.152.842l-.838.838ZM4.914 4.126a.75.75 0 0 1 .801-.17l1.02.395a.75.75 0 0 1 .26 1.23L5.58 6.995a.75.75 0 0 1-1.213-.219l-.443-.97a.75.75 0 0 1 .152-.843l.837-.837Z" fill="currentColor"/>
  <path fill-rule="evenodd" clip-rule="evenodd" d="M5.58 14.42A6.236 6.236 0 0 0 10 16.25a6.236 6.236 0 0 0 4.42-1.83A6.236 6.236 0 0 0 16.25 10a6.236 6.236 0 0 0-1.83-4.42A6.236 6.236 0 0 0 10 3.75a6.236 6.236 0 0 0-4.42 1.83A6.236 6.236 0 0 0 3.75 10c0 1.678.668 3.256 1.83 4.42Zm5.657-3.183A1.737 1.737 0 0 1 10 11.75c-.472 0-.91-.185-1.237-.513A1.737 1.737 0 0 1 8.25 10c0-.472.185-.91.513-1.237A1.737 1.737 0 0 1 10 8.25c.472 0 .91.185 1.237.513.328.327.513.765.513 1.237 0 .472-.185.91-.513 1.237Z" fill="currentColor"/>
</svg>
