<svg viewBox="0 0 20 20" fill="none" xmlns="http://www.w3.org/2000/svg" height="1em" width="1em">
  <g opacity=".8" fill="currentColor">
    <path fill-rule="evenodd" clip-rule="evenodd" d="M4.456 13.267a46.6 46.6 0 0 1-.98-1.559c-1.13-1.866.24-4.205 2.398-4.208V5.375A1.875 1.875 0 0 1 8.63 3.72a1.875 1.875 0 0 1 3.645-.448 1.875 1.875 0 0 1 2.849 1.603v.21a1.5 1.5 0 0 1 .5-.085h.375c1.035 0 1.875.84 1.875 1.875v4.56a.493.493 0 0 1 .004.065c0 2.136-.806 3.774-2.043 4.874C14.608 17.465 12.985 18 11.378 18c-3.263 0-5.393-2.187-6.922-4.733ZM7.749 4.5c.483 0 .875.392.875.875V7.5a.5.5 0 0 0 1 0V3.875a.875.875 0 1 1 1.75 0V7a.5.5 0 0 0 1 0V4.875a.875.875 0 0 1 1.75 0V7.5a.5.5 0 0 0 1 0v-1a.5.5 0 0 1 .5-.5h.375c.483 0 .875.392.875.875V11.5c0 .022.001.043.004.064-.016 1.831-.706 3.172-1.707 4.062-1.022.909-2.4 1.374-3.793 1.374-2.73 0-4.6-1.805-6.07-4.254a.584.584 0 0 0-.016-.026 45.535 45.535 0 0 1-.96-1.53c-.715-1.18.14-2.687 1.542-2.69V10a.5.5 0 0 0 1 0V5.375c0-.483.392-.875.875-.875Z"/>
    <path d="M17.318 11.75c0 3.037-3.515 5.466-6 5.466s-7.5-3.429-7.5-6.466c0-1.935.233-1.98 2.5-2.5.47-.108.208-3.775 1-4 1.5-.426 2.881-1.326 3.5-1.5 1 .5 2.204 1.06 2.5 1 1.665-.333 1 2.5 3 2 1.419.878 1 4.086 1 6Z"/>
  </g>
  <path fill-rule="evenodd" clip-rule="evenodd" d="M7.183 3.72a1.875 1.875 0 0 1 3.645-.448 1.875 1.875 0 0 1 2.849 1.603v.21a1.5 1.5 0 0 1 .5-.085h.375c1.035 0 1.875.84 1.875 1.875v4.56a.493.493 0 0 1 .004.065c0 2.136-.806 3.774-2.043 4.874C13.16 17.465 11.538 18 9.931 18c-3.264 0-5.394-2.187-6.923-4.733a46.567 46.567 0 0 1-.978-1.559C.898 9.842 2.269 7.503 4.427 7.5V5.375A1.875 1.875 0 0 1 7.183 3.72Zm-.006 1.655a.875.875 0 1 0-1.75 0V10a.5.5 0 0 1-1 0V8.5c-1.403.003-2.257 1.51-1.542 2.69.357.59.697 1.135.962 1.533l.006.01.007.01C5.33 15.193 7.199 17 9.93 17c1.394 0 2.771-.465 3.794-1.374 1.001-.89 1.69-2.23 1.707-4.062a.496.496 0 0 1-.004-.064V6.875A.875.875 0 0 0 14.552 6h-.375a.5.5 0 0 0-.5.5v1a.5.5 0 1 1-1 0V4.875a.875.875 0 1 0-1.75 0V7a.5.5 0 1 1-1 0V3.875a.875.875 0 1 0-1.75 0V7.5a.5.5 0 0 1-1 0V5.375Z" fill="#000"/>
</svg>
