<svg viewBox="0 0 20 20" fill="none" xmlns="http://www.w3.org/2000/svg" height="1em" width="1em">
  <path opacity=".8" fill-rule="evenodd" clip-rule="evenodd" d="M3 7.5A2.5 2.5 0 0 1 5.5 5h12A2.5 2.5 0 0 1 20 7.5v7a2.5 2.5 0 0 1-2.5 2.5h-12A2.5 2.5 0 0 1 3 14.5v-7Z" fill="currentColor"/>
  <path fill-rule="evenodd" clip-rule="evenodd" d="M4 4a1.5 1.5 0 0 0-1.5 1.5v7A1.5 1.5 0 0 0 4 14h12a1.5 1.5 0 0 0 1.5-1.5v-7A1.5 1.5 0 0 0 16 4H4ZM1.5 5.5A2.5 2.5 0 0 1 4 3h12a2.5 2.5 0 0 1 2.5 2.5v7A2.5 2.5 0 0 1 16 15H4a2.5 2.5 0 0 1-2.5-2.5v-7Z" fill="#000"/>
  <path fill-rule="evenodd" clip-rule="evenodd" d="M9.182 6.818a.5.5 0 0 1 .5-.5h2.727a.5.5 0 0 1 0 1H9.682a.5.5 0 0 1-.5-.5Zm0 4.092a.5.5 0 0 1 .5-.5h5.454a.5.5 0 1 1 0 1H9.682a.5.5 0 0 1-.5-.5Zm0-2.728a.5.5 0 0 1 .5-.5h5.454a.5.5 0 0 1 0 1H9.682a.5.5 0 0 1-.5-.5Zm0 1.363a.5.5 0 0 1 .5-.5h5.454a.5.5 0 0 1 0 1H9.682a.5.5 0 0 1-.5-.5Z" fill="#000"/>
  <path d="M7.773 8.182a1.364 1.364 0 1 1-2.728 0 1.364 1.364 0 0 1 2.728 0Z" fill="#000"/>
  <path d="M8.045 10.775c0 .688-.732.623-1.636.623-.904 0-1.636.066-1.636-.623 0-.688.732-1.557 1.636-1.557.904 0 1.636.87 1.636 1.557Z" fill="#000"/>
</svg>
