<svg viewBox="0 0 20 20" fill="none" xmlns="http://www.w3.org/2000/svg" height="1em" width="1em">
  <g clip-path="url(#a)">
    <g opacity=".8" fill="currentColor">
      <path fill-rule="evenodd" clip-rule="evenodd" d="M20.5 17.45a.75.75 0 0 0-.75-.75h-3.5a.75.75 0 0 0 0 1.5h3.5a.75.75 0 0 0 .75-.75Z"/>
      <path d="M15.604 12.588c.262 0 .52-.05.754-.168.795-.402 2.642-1.51 2.642-3.126 0-1.615-1.847-2.724-2.642-3.126A1.66 1.66 0 0 0 15.604 6H15a2 2 0 0 0-2 2v2.588a2 2 0 0 0 2 2h.604Z"/>
      <path fill-rule="evenodd" clip-rule="evenodd" d="M15.547 8c.313.166.73.422 1.058.731.384.363.395.553.395.563 0 .01-.01.2-.395.563-.328.31-.745.566-1.058.731H15V8h.547Zm.81 4.42a1.66 1.66 0 0 1-.753.168H15a2 2 0 0 1-2-2V8a2 2 0 0 1 2-2h.604c.262 0 .52.05.754.168C17.153 6.57 19 7.678 19 9.294c0 1.615-1.847 2.724-2.642 3.126Z"/>
      <path fill-rule="evenodd" clip-rule="evenodd" d="M18.25 8.85a.75.75 0 0 0-.75.75v7.165a.75.75 0 0 0 1.5 0V9.6a.75.75 0 0 0-.75-.75ZM4.03 9.5l.69-2.757-1.94-.486-.845 3.38A1.5 1.5 0 0 0 3.39 11.5h6.72a1.5 1.5 0 0 0 1.455-1.864l-.845-3.379-1.94.486.69 2.757H4.03Z"/>
      <path d="M3.639 6.944h6.222V10.5H3.64V6.944ZM3.75 3h6v3.5h-6V3Z"/>
      <path fill-rule="evenodd" clip-rule="evenodd" d="M2.75 2h8v5.5h-8V2Zm2 2v1.5h4V4h-4Z"/>
      <path fill-rule="evenodd" clip-rule="evenodd" d="M1.9 2.2a.5.5 0 0 1 .5-.5h8.7a.5.5 0 1 1 0 1H2.4a.5.5 0 0 1-.5-.5Z"/>
    </g>
    <path fill-rule="evenodd" clip-rule="evenodd" d="M1.4 2.5a1 1 0 0 1 1-1h6.2a1 1 0 0 1 1 1v3.8a1 1 0 0 1-1 1H2.4a1 1 0 0 1-1-1V2.5Zm7.2 0H2.4v3.8h6.2V2.5Z" fill="#000"/>
    <path fill-rule="evenodd" clip-rule="evenodd" d="M.65 2a.5.5 0 0 1 .5-.5h8.7a.5.5 0 0 1 0 1h-8.7a.5.5 0 0 1-.5-.5Zm1.74 4.598L1.61 10.5h7.78l-.78-3.902.98-.196.78 3.902a1 1 0 0 1-.98 1.196H1.61a1 1 0 0 1-.98-1.196l.78-3.902.98.196ZM19.25 17.5a.5.5 0 0 0-.5-.5h-4a.5.5 0 0 0 0 1h4a.5.5 0 0 0 .5-.5ZM13.75 7h.604c.137 0 .235.026.302.06.359.182.924.508 1.385.944.473.446.709.881.709 1.29 0 .41-.236.845-.71 1.29-.46.436-1.025.763-1.384.944a.668.668 0 0 1-.302.06h-.604a1 1 0 0 1-1-1V8a1 1 0 0 1 1-1Zm1.358 5.42a1.66 1.66 0 0 1-.754.168h-.604a2 2 0 0 1-2-2V8a2 2 0 0 1 2-2h.604c.262 0 .52.05.754.168.795.402 2.642 1.51 2.642 3.126 0 1.615-1.847 2.724-2.642 3.126Z" fill="#000"/>
    <path fill-rule="evenodd" clip-rule="evenodd" d="M17.25 8.7a.5.5 0 0 0-.5.5v7.565a.5.5 0 1 0 1 0V9.2a.5.5 0 0 0-.5-.5Z" fill="#000"/>
  </g>
  <defs>
    <clipPath id="a">
      <path fill="#fff" d="M0 0h20v20H0z"/>
    </clipPath>
  </defs>
</svg>
