<svg viewBox="0 0 20 20" fill="none" xmlns="http://www.w3.org/2000/svg" height="1em" width="1em">
  <g clip-path="url(#a)">
    <path fill-rule="evenodd" clip-rule="evenodd" d="M6.065 4.429a4.1 4.1 0 0 1 5.799 0l5.799 5.799a4.1 4.1 0 1 1-5.799 5.799l-5.799-5.8a4.1 4.1 0 0 1 0-5.798Z" fill="currentColor" opacity=".8"/>
    <path fill-rule="evenodd" clip-rule="evenodd" d="M15.85 10.192 9.484 3.828a4 4 0 0 0-5.657 5.657l6.364 6.364a4 4 0 1 0 5.657-5.657ZM4.535 4.536a3 3 0 0 1 4.242 0l6.364 6.364a3 3 0 1 1-4.242 4.242L4.535 8.778a3 3 0 0 1 0-4.242Z" fill="#000"/>
    <path d="m13.037 7.58-.243.97c-1.201-.3-2.223-.154-3.101.432-.87.58-1.454 1.687-1.73 3.355l-.987-.164c.318-1.917 1.032-3.27 2.162-4.023 1.122-.748 2.434-.936 3.899-.57Z" fill="#000"/>
  </g>
  <defs>
    <clipPath id="a">
      <path fill="#fff" d="M0 0h20v20H0z"/>
    </clipPath>
  </defs>
</svg>
