<svg viewBox="0 0 20 20" fill="none" xmlns="http://www.w3.org/2000/svg" height="1em" width="1em">
  <path d="M8.637 9.318a1 1 0 0 0 0 1.364l4.632 4.963c.62.664 1.731.226 1.731-.682V5.037c0-.908-1.112-1.346-1.731-.682L8.637 9.318Z" fill="currentColor"/>
  <path fill-rule="evenodd" clip-rule="evenodd" d="M10.736 10 13 7.574v4.852L10.736 10Zm-2.1.682a1 1 0 0 1 0-1.364l4.633-4.963c.62-.664 1.731-.226 1.731.682v9.926c0 .908-1.112 1.346-1.731.682l-4.632-4.963Z" fill="currentColor"/>
  <path d="M3.637 9.318a1 1 0 0 0 0 1.364l4.632 4.963c.62.664 1.731.226 1.731-.682V5.037c0-.908-1.112-1.346-1.731-.682L3.637 9.318Z" fill="currentColor"/>
  <path fill-rule="evenodd" clip-rule="evenodd" d="M5.736 10 8 7.574v4.852L5.736 10Zm-2.1.682a1 1 0 0 1 0-1.364L8.27 4.355c.619-.665 1.73-.226 1.73.682v9.926c0 .908-1.112 1.346-1.731.682l-4.632-4.963Z" fill="currentColor"/>
</svg>
