<svg viewBox="0 0 20 20" fill="none" xmlns="http://www.w3.org/2000/svg" height="1em" width="1em">
  <g opacity=".8" fill="currentColor">
    <path d="M5.25 3.5a.5.5 0 0 1 .5-.5h11a.5.5 0 0 1 .5.5v7a.5.5 0 0 1-.5.5h-11a.5.5 0 0 1-.5-.5v-7Z"/>
    <path fill-rule="evenodd" clip-rule="evenodd" d="M7.25 5v4h8V5h-8Zm-1.5-2a.5.5 0 0 0-.5.5v7a.5.5 0 0 0 .5.5h11a.5.5 0 0 0 .5-.5v-7a.5.5 0 0 0-.5-.5h-11Z"/>
    <path d="M5.25 10.5a.5.5 0 0 1 .5-.5h11a.5.5 0 0 1 .5.5v7a.5.5 0 0 1-.5.5h-11a.5.5 0 0 1-.5-.5v-7Z"/>
    <path fill-rule="evenodd" clip-rule="evenodd" d="M7.25 12v4h8v-4h-8Zm-1.5-2a.5.5 0 0 0-.5.5v7a.5.5 0 0 0 .5.5h11a.5.5 0 0 0 .5-.5v-7a.5.5 0 0 0-.5-.5h-11Zm-2.5-7A.75.75 0 0 1 4 2.25h14.5a.75.75 0 0 1 0 1.5H4A.75.75 0 0 1 3.25 3Z"/>
    <path fill-rule="evenodd" clip-rule="evenodd" d="m5.576 16.5 1.636-5.725-1.924-.55-1.908 6.682a1.25 1.25 0 0 0 1.2 1.593h13.34c.83 0 1.43-.795 1.201-1.593l-1.909-6.682-1.922.55 1.635 5.725H5.576Z"/>
  </g>
  <path fill-rule="evenodd" clip-rule="evenodd" d="M3.5 3a1 1 0 0 1 1-1h11a1 1 0 0 1 1 1v7a1 1 0 0 1-1 1h-11a1 1 0 0 1-1-1V3Zm12 0h-11v7h11V3Z" fill="#000"/>
  <path fill-rule="evenodd" clip-rule="evenodd" d="M2.25 2.5a.5.5 0 0 1 .5-.5h14.5a.5.5 0 0 1 0 1H2.75a.5.5 0 0 1-.5-.5Zm2.24 7.598L3.11 17h13.78l-1.38-6.902.98-.196 1.38 6.902A1 1 0 0 1 16.89 18H3.11a1 1 0 0 1-.98-1.196l1.38-6.902.98.196Z" fill="#000"/>
</svg>
