<svg viewBox="0 0 20 20" fill="none" xmlns="http://www.w3.org/2000/svg" height="1em" width="1em">
  <path fill-rule="evenodd" clip-rule="evenodd" d="M16.81 12.108a1 1 0 0 0 1-1v-5.5a1 1 0 0 0-1-1h-2.5a1 1 0 0 0-1 1v5.5a1 1 0 0 0 1 1h2.5Zm-1.25-6a1 1 0 1 0 0 2 1 1 0 0 0 0-2Zm-6.73 9.335c.086.086.23.053.273-.056l.194-1.165a5.161 5.161 0 0 1 1.783-3.114v-4.68l-4.196-.84a1.018 1.018 0 0 1-.076-.018 1.432 1.432 0 0 0-1.61.628l-.217.353-.506 1.338a3.899 3.899 0 0 0 .018 2.809l.31.62c.242.483.733.788 1.272.79H7.58c.042 0 .084.002.125.007A1 1 0 0 1 8.8 13.35l-.15.594a1.979 1.979 0 0 0-.057.548l.014.41a.849.849 0 0 0 .202.521l.02.02Zm3.428-10.82-4.948-.99A3.432 3.432 0 0 0 3.495 5.15l-.255.415a.999.999 0 0 0-.102.206l-.534 1.41a5.898 5.898 0 0 0 .045 4.292.74.74 0 0 0 .037.082l.329.658a3.427 3.427 0 0 0 3.065 1.895h.525c-.012.15-.015.301-.01.452l.014.41a2.848 2.848 0 0 0 .764 1.845l.042.042c1.191 1.191 3.227.628 3.635-1.007a.993.993 0 0 0 .016-.078l.204-1.222a3.161 3.161 0 0 1 1.354-2.103 1 1 0 0 0 .456-.84v-5.98a.997.997 0 0 0-.822-1.003Z" fill="currentColor"/>
</svg>
