<svg xmlns="http://www.w3.org/2000/svg" aria-label="Roundcube" viewBox="0 0 512 512" height="1em" width="1em">
  <rect width="512" height="512" rx="15%" fill="#fff"/>
  <path d="M256 107.6v340.6l192-111V218.7z" fill="#37beff"/>
  <path d="M256 107.6 64 218.7v118.5l192 111.1z" fill="#404f54"/>
  <path d="M256 63.7c-73.3 0-132.8 59.6-132.8 133 0 24.2 6.5 46.9 17.7 66.4L256 329.7z" fill="#ccc"/>
  <path d="M256 63.7c-42.1 28.4-59.5 85.7-59.5 133.1s17.4 104.5 59.5 132.9l115.1-66.6a132.5 132.5 0 0 0 17.7-66.4c0-73.4-59.5-133-132.9-133z" fill="#e5e5e5"/>
</svg>
