<svg viewBox="0 0 36 36" xmlns="http://www.w3.org/2000/svg" height="1em" width="1em">
  <path class="clr-i-outline clr-i-outline-path-1" d="M8 8H4v2h6V4H8v4z"/>
  <path class="clr-i-outline clr-i-outline-path-2" d="M19 8h-4v2h6V4h-2v4z"/>
  <path class="clr-i-outline clr-i-outline-path-3" d="M30 4v4h-4v2h6V4h-2z"/>
  <path class="clr-i-outline clr-i-outline-path-4" d="M8 19H4v2h6v-6H8v4z"/>
  <path class="clr-i-outline clr-i-outline-path-5" d="M19 19h-4v2h6v-6h-2v4z"/>
  <path class="clr-i-outline clr-i-outline-path-6" d="M30 19h-4v2h6v-6h-2v4z"/>
  <path class="clr-i-outline clr-i-outline-path-7" d="M8 30H4v2h6v-6H8v4z"/>
  <path class="clr-i-outline clr-i-outline-path-8" d="M19 30h-4v2h6v-6h-2v4z"/>
  <path class="clr-i-outline clr-i-outline-path-9" d="M30 30h-4v2h6v-6h-2v4z"/>
  <path fill="none" d="M0 0h36v36H0z"/>
</svg>
