<svg viewBox="0 0 36 36" xmlns="http://www.w3.org/2000/svg" height="1em" width="1em">
  <path d="M8.5 29.65a6.51 6.51 0 0 1-6.5-6.5 6.39 6.39 0 0 1 6.5-6.36 6.39 6.39 0 0 1 6.5 6.36 6.51 6.51 0 0 1-6.5 6.5Zm0-11a4.5 4.5 0 1 0 4.5 4.5 4.51 4.51 0 0 0-4.5-4.5Z" class="clr-i-outline clr-i-outline-path-1"/>
  <path d="M27.5 29.65a6.51 6.51 0 0 1-6.5-6.5 6.5 6.5 0 0 1 13 0 6.51 6.51 0 0 1-6.5 6.5Zm0-11a4.5 4.5 0 1 0 4.5 4.5 4.51 4.51 0 0 0-4.5-4.5Z" class="clr-i-outline clr-i-outline-path-2"/>
  <path d="M19 24.66H8a1 1 0 0 1-.89-1.45l5-10 1.78.9-4.27 8.62H19Z" class="clr-i-outline clr-i-outline-path-3"/>
  <path class="clr-i-outline clr-i-outline-path-4" d="M13 12.68h11v1.91H13z"/>
  <path d="M28 24.66a1 1 0 0 1-.94-.66l-4.77-13.34H20a1 1 0 0 1-1-1 1 1 0 0 1 1-.93h3a.94.94 0 0 1 .94.6l5 14a1 1 0 0 1-.6 1.27 1 1 0 0 1-.34.06Z" class="clr-i-outline clr-i-outline-path-5"/>
  <path d="M13 14.66a1 1 0 0 1-.71-.29l-1.7-1.71H8a1 1 0 0 1-1-1 .94.94 0 0 1 1-1h3a1.08 1.08 0 0 1 .75.27l2 2a1 1 0 0 1 0 1.41 1 1 0 0 1-.75.32Z" class="clr-i-outline clr-i-outline-path-6"/>
  <path fill="none" d="M0 0h36v36H0z"/>
</svg>
