<svg viewBox="0 0 36 36" xmlns="http://www.w3.org/2000/svg" height="1em" width="1em">
  <path d="m33.53 18.76-6.93-3.19h-2l-6.5 3-6.5-3V8l6.08 2.8a1 1 0 0 0 .84 0l.24-.11a4.17 4.17 0 0 1 .29-.65l1.33-2.31-2.28 1-5.1-2.3 5.1-2.35 3.47 1.6 1-1.73-4.07-1.87a1 1 0 0 0-.84 0l-7.5 3.45a1 1 0 0 0-.58.91v9.14l-6.9 3.18a1 1 0 0 0-.58.91v9.78a1 1 0 0 0 .58.91l7.5 3.45a1 1 0 0 0 .84 0l7.08-3.26 7.08 3.26a1 1 0 0 0 .84 0l7.5-3.45a1 1 0 0 0 .58-.91v-9.78a1 1 0 0 0-.57-.91ZM10.6 17.31l5.11 2.35L10.6 22l-5.11-2.33Zm0 14.49-6.5-3v-7.57L10.18 24a1 1 0 0 0 .82 0l6.08-2.8v7.6Zm15-14.48 5.11 2.35-5.1 2.33-5.11-2.33Zm0 14.49-6.51-3v-7.59l6.1 2.78a1 1 0 0 0 .81 0l6.08-2.8v7.61Z" class="clr-i-outline--alerted clr-i-outline-path-1--alerted"/>
  <path d="m26.85 1.14-5.72 9.91a1.27 1.27 0 0 0 1.1 1.95h11.45a1.27 1.27 0 0 0 1.1-1.91l-5.72-9.95a1.28 1.28 0 0 0-2.21 0Z" class="clr-i-outline--alerted clr-i-outline-path-2--alerted clr-i-alert"/>
  <path fill="none" d="M0 0h36v36H0z"/>
</svg>
