<svg viewBox="0 0 36 36" xmlns="http://www.w3.org/2000/svg" height="1em" width="1em">
  <path class="clr-i-outline--alerted clr-i-outline-path-1--alerted" d="M8 8h2v2H8z"/>
  <path class="clr-i-outline--alerted clr-i-outline-path-2--alerted" d="M12 8h2v2h-2z"/>
  <path class="clr-i-outline--alerted clr-i-outline-path-3--alerted" d="M16 8h2v2h-2z"/>
  <path class="clr-i-outline--alerted clr-i-outline-path-4--alerted" d="M8 13h2v2H8z"/>
  <path class="clr-i-outline--alerted clr-i-outline-path-5--alerted" d="M12 13h2v2h-2z"/>
  <path class="clr-i-outline--alerted clr-i-outline-path-6--alerted" d="M16 13h2v2h-2z"/>
  <path class="clr-i-outline--alerted clr-i-outline-path-7--alerted" d="M8 18h2v2H8z"/>
  <path class="clr-i-outline--alerted clr-i-outline-path-8--alerted" d="M12 18h2v2h-2z"/>
  <path class="clr-i-outline--alerted clr-i-outline-path-9--alerted" d="M16 18h2v2h-2z"/>
  <path class="clr-i-outline--alerted clr-i-outline-path-10--alerted" d="M8 23h2v2H8z"/>
  <path class="clr-i-outline--alerted clr-i-outline-path-11--alerted" d="M12 23h2v2h-2z"/>
  <path class="clr-i-outline--alerted clr-i-outline-path-12--alerted" d="M16 23h2v2h-2z"/>
  <path class="clr-i-outline--alerted clr-i-outline-path-13--alerted" d="M23 18h2v2h-2z"/>
  <path class="clr-i-outline--alerted clr-i-outline-path-14--alerted" d="M27 18h2v2h-2z"/>
  <path class="clr-i-outline--alerted clr-i-outline-path-15--alerted" d="M23 23h2v2h-2z"/>
  <path class="clr-i-outline--alerted clr-i-outline-path-16--alerted" d="M27 23h2v2h-2z"/>
  <path d="M20 31h-3v-3H9v3H6V5.12A.12.12 0 0 1 6.12 5h13.76a.12.12 0 0 1 .12.12v3.12l2-3.41A2.12 2.12 0 0 0 19.88 3H6.12A2.12 2.12 0 0 0 4 5.12V33h18V15.38a3.68 3.68 0 0 1-2-.74Z" class="clr-i-outline--alerted clr-i-outline-path-17--alerted"/>
  <path class="clr-i-outline--alerted clr-i-outline-path-18--alerted" d="M31 15.4V31h-8v2h10V15.4h-2z"/>
  <path d="M26.85 1.14 21.13 11a1.28 1.28 0 0 0 1.1 2h11.45a1.28 1.28 0 0 0 1.1-2l-5.72-9.86a1.28 1.28 0 0 0-2.21 0Z" class="clr-i-outline--alerted clr-i-outline-path-19--alerted clr-i-alert"/>
  <path fill="none" d="M0 0h36v36H0z"/>
</svg>
