<svg viewBox="0 0 36 36" xmlns="http://www.w3.org/2000/svg" height="1em" width="1em">
  <path d="M32 8h-7.3l-1.06-2.72A2 2 0 0 0 21.78 4h-7.56a2 2 0 0 0-1.87 1.28L11.3 8H4a2 2 0 0 0-2 2v20a2 2 0 0 0 2 2h28a2 2 0 0 0 2-2V10a2 2 0 0 0-2-2ZM6.17 13.63a.8.8 0 0 1 0-1.6h2.4a.8.8 0 0 1 0 1.6ZM18 28a9 9 0 1 1 9-9 9 9 0 0 1-9 9Z" class="clr-i-solid clr-i-solid-path-1"/>
  <path d="M11.11 19.06a7.07 7.07 0 0 0 4.11 6.41l1.09-1.74a5 5 0 1 1 5.22-8.39l1.09-1.76a7.06 7.06 0 0 0-11.51 5.48Z" class="clr-i-solid clr-i-solid-path-2"/>
  <path fill="none" d="M0 0h36v36H0z"/>
</svg>
