<svg viewBox="0 0 36 36" xmlns="http://www.w3.org/2000/svg" height="1em" width="1em">
  <path d="M9.5 24C7.6 24 6 25.6 6 27.5S7.6 31 9.5 31s3.5-1.6 3.5-3.5v-.1c0-1.9-1.6-3.4-3.5-3.4z" class="clr-i-solid clr-i-solid-path-1"/>
  <circle cx="23.5" cy="27.5" r="3.5" class="clr-i-solid clr-i-solid-path-2"/>
  <path d="M29.5 14.5C31 13.6 32 12 32 10.2v-.6C32 7 29.9 5 27.3 5h-8.5c-1.9 0-3.7 1.2-4.4 3H5c-1.7 0-3 1.3-3 3v17h2V11c0-.6.4-1 1-1h10.9l.1-.8c.3-1.3 1.4-2.2 2.7-2.2h8.5C28.8 7 30 8.2 30 9.7v.5c0 1.5-1.2 2.7-2.7 2.7H24v9h7.8l.2.3V25c0 .6-.4 1-1 1h-2v2h2c1.7 0 3-1.3 3-3v-3.3l-4.5-7.2z" class="clr-i-solid clr-i-solid-path-3"/>
  <path class="clr-i-solid clr-i-solid-path-4" d="M19 9h7.9v2H19z"/>
  <path class="clr-i-solid clr-i-solid-path-5" d="M20 22h1.9v-9H15v15h1.9V15H20z"/>
  <path class="clr-i-solid clr-i-solid-path-6" d="M6 13h6.9v7H6z"/>
  <path fill="none" d="M0 0h36v36H0z"/>
</svg>
