<svg viewBox="0 0 36 36" xmlns="http://www.w3.org/2000/svg" height="1em" width="1em">
  <path d="M30.88 8H5.12a1.1 1.1 0 0 0 0 2.2h25.76a1.1 1.1 0 1 0 0-2.2Z" class="clr-i-outline clr-i-outline-path-1"/>
  <path d="M25.5 16.2a1.1 1.1 0 1 0 0-2.2h-15a1.1 1.1 0 1 0 0 2.2Z" class="clr-i-outline clr-i-outline-path-2"/>
  <path d="M30.25 20H5.75a1.1 1.1 0 0 0 0 2.2h24.5a1.1 1.1 0 0 0 0-2.2Z" class="clr-i-outline clr-i-outline-path-3"/>
  <path d="M24.88 26H11.12a1.1 1.1 0 1 0 0 2.2h13.76a1.1 1.1 0 1 0 0-2.2Z" class="clr-i-outline clr-i-outline-path-4"/>
  <path fill="none" d="M0 0h36v36H0z"/>
</svg>
