<svg viewBox="0 0 36 36" xmlns="http://www.w3.org/2000/svg" height="1em" width="1em">
  <path class="clr-i-solid--alerted clr-i-solid-path-1--alerted" d="m32.57 15.72-1.07-.32h-8.65A5.5 5.5 0 1 1 18 12.5a5.53 5.53 0 0 1 .65 0A3.68 3.68 0 0 1 19 9.89l2.09-3.62-.86-2.83a.61.61 0 0 0-.54-.44h-3.38a.61.61 0 0 0-.58.43l-1 3.3a11.63 11.63 0 0 0-2.38 1l-3-1.62a.61.61 0 0 0-.72.11L6.2 8.59a.61.61 0 0 0-.11.72l1.62 3a11.63 11.63 0 0 0-1 2.37l-3.31 1a.61.61 0 0 0-.43.58v3.38a.61.61 0 0 0 .43.58l3.33 1a11.62 11.62 0 0 0 1 2.33l-1.64 3.14a.61.61 0 0 0 .11.72l2.39 2.39a.61.61 0 0 0 .72.11l3.09-1.65a11.65 11.65 0 0 0 2.3.94l1 3.37a.61.61 0 0 0 .58.43h3.38a.61.61 0 0 0 .58-.43l1-3.38a11.63 11.63 0 0 0 2.28-.94l3.11 1.66a.61.61 0 0 0 .72-.11l2.39-2.39a.61.61 0 0 0 .11-.72l-1.66-3.1a11.63 11.63 0 0 0 .95-2.29l3.37-1a.61.61 0 0 0 .43-.58v-3.41a.61.61 0 0 0-.37-.59Z"/>
  <path class="clr-i-solid--alerted clr-i-solid-path-2--alerted clr-i-alert" d="M26.85 1.14 21.13 11a1.28 1.28 0 0 0 1.1 2h11.45a1.28 1.28 0 0 0 1.1-2l-5.72-9.86a1.28 1.28 0 0 0-2.21 0Z"/>
  <path fill="none" d="M0 0h36v36H0z"/>
</svg>
