<svg version="1.1" viewBox="0 0 36 36" preserveAspectRatio="xMidYMid meet" xmlns="http://www.w3.org/2000/svg" height="1em" width="1em">
  <path d="M32,30H4a2,2,0,0,1-2-2V8A2,2,0,0,1,4,6H32a2,2,0,0,1,2,2V28A2,2,0,0,1,32,30ZM4,8V28H32V8Z" class="clr-i-outline clr-i-outline-path-1"/>
  <path d="M9,25.3a.8.8,0,0,1-.8-.8v-13a.8.8,0,0,1,1.6,0v13A.8.8,0,0,1,9,25.3Z" class="clr-i-outline clr-i-outline-path-2"/>
  <path d="M14.92,25.3a.8.8,0,0,1-.8-.8v-13a.8.8,0,0,1,1.6,0v13A.8.8,0,0,1,14.92,25.3Z" class="clr-i-outline clr-i-outline-path-3"/>
  <path d="M21,25.3a.8.8,0,0,1-.8-.8v-13a.8.8,0,0,1,1.6,0v13A.8.8,0,0,1,21,25.3Z" class="clr-i-outline clr-i-outline-path-4"/>
  <path d="M27,25.3a.8.8,0,0,1-.8-.8v-13a.8.8,0,0,1,1.6,0v13A.8.8,0,0,1,27,25.3Z" class="clr-i-outline clr-i-outline-path-5"/>
  <rect x="0" y="0" width="36" height="36" fill-opacity="0"/>
</svg>
