<svg viewBox="0 0 36 36" xmlns="http://www.w3.org/2000/svg" height="1em" width="1em">
  <path d="M4 18.24V7.91c0-.65 2.09-1.84 5.5-1.84S15 7.27 15 7.91V9.7a18.75 18.75 0 0 1 2-.2V7.91c0-2.52-3.77-3.84-7.5-3.84S2 5.4 2 7.91v10.33C2 20.4 4.77 21.67 7.9 22v-2C5.46 19.68 4 18.78 4 18.24Z" class="clr-i-outline--alerted clr-i-outline-path-1--alerted"/>
  <path d="M24.65 18.52c-.85 1-3.42 2-6.65 2a14.49 14.49 0 0 1-4-.52v1.46a16.33 16.33 0 0 0 4 .47 12.76 12.76 0 0 0 6.65-1.56v3.12c-.85 1-3.42 2-6.65 2a14.49 14.49 0 0 1-4-.53v1.46a16.33 16.33 0 0 0 4 .47 12.76 12.76 0 0 0 6.65-1.56v2.29C24.65 28.57 22 30 18 30s-6.65-1.43-6.65-2.38V15.23c0-.95 2.65-2.38 6.65-2.38h.75a3.69 3.69 0 0 1-.08-2h-.66c-4.93 0-8.65 1.88-8.65 4.38v12.31c0 2.5 3.72 4.38 8.65 4.38s8.65-1.88 8.65-4.38V15.4h-2Z" class="clr-i-outline--alerted clr-i-outline-path-2--alerted"/>
  <path d="M22 4.8c-1.75.63-3 1.68-3 3.12V9.5h.25Z" class="clr-i-outline--alerted clr-i-outline-path-3--alerted"/>
  <path d="M33.68 15.4H32v2.84c0 .54-1.46 1.44-3.9 1.73v2c3.13-.32 5.9-1.6 5.9-3.75v-2.84Z" class="clr-i-outline--alerted clr-i-outline-path-4--alerted"/>
  <path d="M26.85 1.14 21.13 11a1.28 1.28 0 0 0 1.1 2h11.45a1.28 1.28 0 0 0 1.1-2l-5.72-9.86a1.28 1.28 0 0 0-2.21 0Z" class="clr-i-outline--alerted clr-i-outline-path-5--alerted clr-i-alert"/>
  <path fill="none" d="M0 0h36v36H0z"/>
</svg>
