<svg xmlns="http://www.w3.org/2000/svg" viewBox="0 0 36 36" height="1em" width="1em">
  <g data-name="Layer 3">
    <path d="M16.43 16.69a7 7 0 1 1 7-7 7 7 0 0 1-7 7Zm0-11.92a5 5 0 1 0 5 5 5 5 0 0 0-5-5ZM22 17.9a25.41 25.41 0 0 0-16.12 1.67 4.06 4.06 0 0 0-2.31 3.68v5.95a1 1 0 1 0 2 0v-5.95a2 2 0 0 1 1.16-1.86 22.91 22.91 0 0 1 9.7-2.11 23.58 23.58 0 0 1 5.57.66Zm.14 9.51h6.14v1.4h-6.14z"/>
    <path d="M33.17 21.47H28v2h4.17v8.37H18v-8.37h6.3v.42a1 1 0 0 0 2 0V20a1 1 0 0 0-2 0v1.47H17a1 1 0 0 0-1 1v10.37a1 1 0 0 0 1 1h16.17a1 1 0 0 0 1-1V22.47a1 1 0 0 0-1-1Z"/>
  </g>
</svg>
