<svg viewBox="0 0 36 36" xmlns="http://www.w3.org/2000/svg" height="1em" width="1em">
  <path d="M28.32 16.35a1 1 0 0 0-1.41 1.41L30.16 21H18a1 1 0 0 0 0 2h12.19l-3.28 3.28a1 1 0 1 0 1.41 1.41L34 22Z" class="clr-i-outline--alerted clr-i-outline-path-1--alerted"/>
  <path d="M6 13.61h7.61V6h7.68l1.15-2H10.87L4 10.87V30a2 2 0 0 0 2 2h18a2 2 0 0 0 2-2H6Zm0-1.92L11.69 6H12v6H6Z" class="clr-i-outline--alerted clr-i-outline-path-2--alerted"/>
  <path d="M26.85 1.14 21.13 11a1.28 1.28 0 0 0 1.1 2h11.45a1.28 1.28 0 0 0 1.1-2l-5.72-9.86a1.28 1.28 0 0 0-2.21 0Z" class="clr-i-outline--alerted clr-i-outline-path-3--alerted clr-i-alert"/>
  <path fill="none" d="M0 0h36v36H0z"/>
</svg>
