<svg viewBox="0 0 36 36" xmlns="http://www.w3.org/2000/svg" height="1em" width="1em">
  <path class="clr-i-outline--alerted clr-i-outline-path-1--alerted" d="M28 15.4V30H8V6h12v2.25l2.25-3.9-.36-.35H7.83A1.88 1.88 0 0 0 6 5.91v24.18A1.88 1.88 0 0 0 7.83 32h20.34A1.88 1.88 0 0 0 30 30.09V15.4Z"/>
  <path class="clr-i-outline--alerted clr-i-outline-path-2--alerted clr-i-alert" d="M26.85 1.14 21.13 11a1.28 1.28 0 0 0 1.1 2h11.45a1.28 1.28 0 0 0 1.1-2l-5.72-9.86a1.28 1.28 0 0 0-2.21 0Z"/>
  <path fill="none" d="M0 0h36v36H0z"/>
</svg>
