<svg viewBox="0 0 36 36" xmlns="http://www.w3.org/2000/svg" height="1em" width="1em">
  <path d="M33.68 15.4H32v5.68h-3.08v-4.81H27v4.81h-8.08v-4.81H17v4.81H8.9v-4.81H7v4.81H4V15h16.58a3.58 3.58 0 0 1-1.76-1.92H14v-4h-2v4H4V8h16.14l1.15-2H4a2 2 0 0 0-2 2v20a2 2 0 0 0 2 2h28a2 2 0 0 0 2-2V15.38ZM23.8 28v-3.73h-1.6V28H14v-3.73h-1.6V28H4v-5h28v5Z" class="clr-i-outline--alerted clr-i-outline-path-1--alerted"/>
  <path d="M26.85 1.14 21.13 11a1.28 1.28 0 0 0 1.1 2h11.45a1.28 1.28 0 0 0 1.1-2l-5.72-9.86a1.28 1.28 0 0 0-2.21 0Z" class="clr-i-outline--alerted clr-i-outline-path-2--alerted clr-i-alert"/>
  <path fill="none" d="M0 0h36v36H0z"/>
</svg>
