<svg viewBox="0 0 36 36" xmlns="http://www.w3.org/2000/svg" height="1em" width="1em">
  <path class="clr-i-solid clr-i-solid-path-1" d="M5.92 2a1 1 0 0 0-1 1v30a1 1 0 0 0 2 0V3a1 1 0 0 0-1-1Z"/>
  <path class="clr-i-solid clr-i-solid-path-2" d="M30.5 3.82a1 1 0 0 0-1 0 14.9 14.9 0 0 1-6.13 1.16 13.11 13.11 0 0 1-5.18-1.49A12.78 12.78 0 0 0 13.2 2a10.86 10.86 0 0 0-4.2.85V20a8.8 8.8 0 0 1 4.25-1.08 11.22 11.22 0 0 1 4.2 1.28 14.84 14.84 0 0 0 6 1.66 16.79 16.79 0 0 0 7-1.37 1 1 0 0 0 .55-.89V4.67a1 1 0 0 0-.5-.85Z"/>
  <path fill="none" d="M0 0h36v36H0z"/>
</svg>
