<svg version="1.1" viewBox="0 0 36 36" preserveAspectRatio="xMidYMid meet" xmlns="http://www.w3.org/2000/svg" height="1em" width="1em">
  <path d="M21,9.08A1.13,1.13,0,0,0,19.86,8H4.62a1.1,1.1,0,1,0,0,2.19H11V27a1.09,1.09,0,0,0,2.17,0V10.19h6.69A1.14,1.14,0,0,0,21,9.08Z" class="clr-i-outline clr-i-outline-path-1"/>
  <path d="M30.67,15H21.15a1.1,1.1,0,1,0,0,2.19H25V26.5a1.09,1.09,0,0,0,2.17,0V17.23h3.54a1.1,1.1,0,1,0,0-2.19Z" class="clr-i-outline clr-i-outline-path-2"/>
  <rect x="0" y="0" width="36" height="36" fill-opacity="0"/>
</svg>
