<svg version="1.1" viewBox="0 0 36 36" preserveAspectRatio="xMidYMid meet" xmlns="http://www.w3.org/2000/svg" height="1em" width="1em">
  <path d="M18.37,21.71,10.3,16.88a1,1,0,0,1-.47-.83V6.27l2.24,3A1,1,0,0,0,13.66,8l-4-5.33A1,1,0,0,0,8,2.69L4,8a1,1,0,0,0,.2,1.4,1,1,0,0,0,.6.2,1,1,0,0,0,.8-.39l2.23-3v9.78A3,3,0,0,0,9.28,18.6l8.06,4.82A1.37,1.37,0,0,1,18,24.59v8.83a1,1,0,0,0,2,0V24.59A3.37,3.37,0,0,0,18.37,21.71Z"/>
  <path d="M31.66,8l-4-5.33a1,1,0,0,0-1.59,0L22,8a1,1,0,0,0,.2,1.4,1,1,0,0,0,.6.2,1,1,0,0,0,.8-.39l2.32-3.07v9.89a1,1,0,0,1-.47.83l-.11.08-4.87,3.88a5.52,5.52,0,0,1,1.11,1.68l5-4a3,3,0,0,0,1.38-2.51V6.38l2.15,2.85A1,1,0,1,0,31.66,8Z"/>
  <rect x="0" y="0" width="36" height="36" fill-opacity="0"/>
</svg>
