<svg viewBox="0 0 36 36" xmlns="http://www.w3.org/2000/svg" height="1em" width="1em">
  <path d="m18.37 21.71-8.07-4.83a1 1 0 0 1-.47-.83V6.27l2.24 3A1 1 0 0 0 13.66 8l-4-5.33A1 1 0 0 0 8 2.69L4 8a1 1 0 0 0 .2 1.4 1 1 0 0 0 .6.2 1 1 0 0 0 .8-.39l2.23-3v9.78a3 3 0 0 0 1.45 2.61l8.06 4.82a1.37 1.37 0 0 1 .66 1.17v8.83a1 1 0 0 0 2 0v-8.83a3.37 3.37 0 0 0-1.63-2.88ZM31.66 8l-4-5.33a1 1 0 0 0-1.59 0L22 8a1 1 0 0 0 .2 1.4 1 1 0 0 0 .6.2 1 1 0 0 0 .8-.39l2.32-3.07v9.89a1 1 0 0 1-.47.83l-.11.08-4.87 3.88a5.52 5.52 0 0 1 1.11 1.68l5-4a3 3 0 0 0 1.38-2.51V6.38l2.15 2.85A1 1 0 1 0 31.66 8Z"/>
  <path fill="none" d="M0 0h36v36H0z"/>
</svg>
