<svg viewBox="0 0 36 36" xmlns="http://www.w3.org/2000/svg" height="1em" width="1em">
  <path d="M26 5.74A1.74 1.74 0 0 0 24.26 4H3.74A1.74 1.74 0 0 0 2 5.74v14.52A1.74 1.74 0 0 0 3.74 22H4V6h22Z" class="clr-i-solid clr-i-solid-path-1"/>
  <path d="M30 9.74A1.74 1.74 0 0 0 28.26 8H7.74A1.74 1.74 0 0 0 6 9.74v14.52A1.74 1.74 0 0 0 7.74 26H8V10h22Z" class="clr-i-solid clr-i-solid-path-2"/>
  <path d="M19.62 22.6A1.55 1.55 0 1 0 18 21.05a1.6 1.6 0 0 0 1.62 1.55Z" class="clr-i-solid clr-i-solid-path-3"/>
  <path d="M32.26 12H11.74A1.74 1.74 0 0 0 10 13.74v14.52A1.74 1.74 0 0 0 11.74 30h20.52A1.74 1.74 0 0 0 34 28.26V13.74A1.74 1.74 0 0 0 32.26 12Zm-12.64 5.74a3.31 3.31 0 1 1-3.38 3.31 3.35 3.35 0 0 1 3.38-3.31Zm0 11.13a7.94 7.94 0 0 1-8-7.82 7.83 7.83 0 0 1 .11-1.29l1.75.3a5.36 5.36 0 0 0-.11 1 6.18 6.18 0 0 0 6.28 6.06 6.35 6.35 0 0 0 5-2.46h2.1a8.06 8.06 0 0 1-7.13 4.21Zm10.27-6.67h-5.53v-1.76h1.48A6.19 6.19 0 0 0 19.62 15a6.48 6.48 0 0 0-1.41.16l-.45-1.7a8.16 8.16 0 0 1 1.86-.22 8 8 0 0 1 8 7.21h2.26a.88.88 0 0 1 0 1.76Z" class="clr-i-solid clr-i-solid-path-4"/>
  <path fill="none" d="M0 0h36v36H0z"/>
</svg>
