<svg viewBox="0 0 36 36" xmlns="http://www.w3.org/2000/svg" height="1em" width="1em">
  <path d="M33 7.64c-1.34-2.75-5.2-5-9.69-3.69a11.55 11.55 0 0 0-5.12 3.55 16.89 16.89 0 0 0-2.48 4.56L22.27 15l-5.57 5.26L19 23l-1.57 1.34-3.6-4.22 4.74-4.51-5.44-2.41a19.49 19.49 0 0 1 2.3-5.5 14.77 14.77 0 0 1 1.06-1.54h.06a9.66 9.66 0 0 0-3.89-2.18C8.19 2.66 4.34 4.89 3 7.64c-1.88 3.85-1.1 8.18 2.32 12.87C8 24.18 11.83 27.9 17.39 32.22a1 1 0 0 0 1.23 0c5.55-4.31 9.39-8 12.07-11.71 3.41-4.69 4.19-9.02 2.31-12.87Z" class="clr-i-solid clr-i-solid-path-1"/>
  <path fill="none" d="M0 0h36v36H0z"/>
</svg>
