<svg viewBox="0 0 36 36" xmlns="http://www.w3.org/2000/svg" height="1em" width="1em">
  <path d="M21.08 34h-14A1.08 1.08 0 0 1 6 33V12a1.08 1.08 0 0 1 1.08-1.08h14A1.08 1.08 0 0 1 22.16 12v21a1.08 1.08 0 0 1-1.08 1ZM8.16 31.88H20V13H8.16Z" class="clr-i-outline clr-i-outline-path-1"/>
  <path class="clr-i-outline clr-i-outline-path-2" d="M10.08 14.96h8v2h-8z"/>
  <path d="M26.1 27.81h-2V9h-12V7h13a1 1 0 0 1 1 1Z" class="clr-i-outline clr-i-outline-path-3"/>
  <path d="M30.08 23h-2V5h-11V3h12a1 1 0 0 1 1 1Z" class="clr-i-outline clr-i-outline-path-4"/>
  <path class="clr-i-outline clr-i-outline-path-5" d="M13.08 27.88h2v2.16h-2z"/>
  <path fill="none" d="M0 0h36v36H0z"/>
</svg>
