<svg viewBox="0 0 36 36" xmlns="http://www.w3.org/2000/svg" height="1em" width="1em">
  <path d="m23.38 16.77.6-.6A5 5 0 0 0 24 9.1l-5.29-5.26a5 5 0 0 0-7.07 0l-8.55 8.55a5 5 0 0 0 0 7.07l5.26 5.26a5 5 0 0 0 7.07 0l.45-.45 2.1 2.2h3.44v3h3.69v1.63L28 34h6v-6.55Zm-8.56-6.59-5.45 5.46a1 1 0 0 1-1.41 0l-.4-.4a1 1 0 0 1 0-1.41L13 8.36a1 1 0 0 1 1.41 0l.4.4a1 1 0 0 1 .01 1.42ZM32 32h-3.14l-1.77-1.76v-2.8h-3.68v-3H18.8l-1.52-1.61L22 18.18l10 10.1Z" class="clr-i-solid clr-i-solid-path-1"/>
  <path fill="none" d="M0 0h36v36H0z"/>
</svg>
