<svg viewBox="0 0 36 36" xmlns="http://www.w3.org/2000/svg" height="1em" width="1em">
  <path class="clr-i-solid clr-i-solid-path-1" d="M18 20.25a1 1 0 0 1-.43-.1l-15-7.09a1 1 0 0 1 0-1.81l15-7.09a1 1 0 0 1 .85 0l15 7.09a1 1 0 0 1 0 1.81l-15 7.09a1 1 0 0 1-.42.1Z"/>
  <path class="clr-i-solid clr-i-solid-path-2" d="M18 26.16a1 1 0 0 1-.43-.1L2.57 19a1 1 0 1 1 .85-1.81L18 24.06l14.57-6.89a1 1 0 1 1 .86 1.83l-15 7.09a1 1 0 0 1-.43.07Z"/>
  <path class="clr-i-solid clr-i-solid-path-3" d="M18 32.07a1 1 0 0 1-.43-.1l-15-7.09a1 1 0 0 1 .85-1.81L18 30l14.57-6.89a1 1 0 1 1 .85 1.81L18.43 32a1 1 0 0 1-.43.07Z"/>
  <path fill="none" d="M0 0h36v36H0z"/>
</svg>
