<svg version="1.1" viewBox="0 0 36 36" preserveAspectRatio="xMidYMid meet" xmlns="http://www.w3.org/2000/svg" height="1em" width="1em">
  <path d="M33.68,15.4H22.23a3.68,3.68,0,0,1-3.18-5.51l.72-1.25L14,5.68V9H12V5.27l-9.67,4A.52.52,0,0,0,2,9.75v20.7a.54.54,0,0,0,.74.49L12,27.12V23h2v4.53l9,4.61V28h2v3.79l8.63-2.7a.54.54,0,0,0,.37-.51V15.38ZM14,21H12V17h2Zm0-6H12V11h2ZM25,26H23V22h2Zm0-6H23V16h2Z"/>
  <path class="clr-i-alert" d="M26.85,1.14l-5.72,9.91A1.27,1.27,0,0,0,22.23,13H33.68a1.27,1.27,0,0,0,1.1-1.91L29.06,1.14A1.28,1.28,0,0,0,26.85,1.14Z"/>
  <rect width="36" height="36" fill-opacity="0"/>
</svg>
