<svg viewBox="0 0 36 36" xmlns="http://www.w3.org/2000/svg" height="1em" width="1em">
  <path class="clr-i-outline--alerted clr-i-outline-path-1--alerted" d="M7.12 22h1.8v3h-1.8z"/>
  <path class="clr-i-outline--alerted clr-i-outline-path-2--alerted" d="M12.12 22h1.8v3h-1.8z"/>
  <path class="clr-i-outline--alerted clr-i-outline-path-3--alerted" d="M17.11 22h1.8v3h-1.8z"/>
  <path class="clr-i-outline--alerted clr-i-outline-path-4--alerted" d="M22.1 22h1.8v3h-1.8z"/>
  <path class="clr-i-outline--alerted clr-i-outline-path-5--alerted" d="M27.1 22h1.8v3h-1.8z"/>
  <path class="clr-i-outline--alerted clr-i-outline-path-6--alerted" d="M6.23 18h23.69v1.4H6.23z"/>
  <path d="M33.91 18.47 33 15.4h-2.14L32 19.06V27H4v-7.94L7.13 9h12.43l1.15-2H7.13a2 2 0 0 0-1.91 1.41L2.09 18.48a2 2 0 0 0-.09.59V27a2 2 0 0 0 2 2h28a2 2 0 0 0 2-2v-7.94a2 2 0 0 0-.09-.59Z" class="clr-i-outline--alerted clr-i-outline-path-7--alerted"/>
  <path d="M26.85 1.14 21.13 11a1.28 1.28 0 0 0 1.1 2h11.45a1.28 1.28 0 0 0 1.1-2l-5.72-9.86a1.28 1.28 0 0 0-2.21 0Z" class="clr-i-outline--alerted clr-i-outline-path-8--alerted clr-i-alert"/>
  <path fill="none" d="M0 0h36v36H0z"/>
</svg>
