<svg viewBox="0 0 36 36" xmlns="http://www.w3.org/2000/svg" height="1em" width="1em">
  <path class="clr-i-solid clr-i-solid-path-1" d="M33 16.71a1 1 0 0 1-.71-.29L19.7 3.82a1 1 0 0 1 1.41-1.41L33.71 15a1 1 0 0 1-.71 1.71Z"/>
  <path class="clr-i-solid clr-i-solid-path-2" d="m20.44 7.59-6.79 6.79a10.94 10.94 0 0 0-10.24 2.84 1 1 0 0 0 0 1.42L9.73 25l-7.44 7.41a1 1 0 1 0 1.41 1.41l7.44-7.44 6.33 6.33a1 1 0 0 0 .71.29 1 1 0 0 0 .71-.3 11 11 0 0 0 2.84-10.24l6.79-6.79Z"/>
  <path fill="none" d="M0 0h36v36H0z"/>
</svg>
