<svg viewBox="0 0 36 36" xmlns="http://www.w3.org/2000/svg" height="1em" width="1em">
  <path d="m18 21.13-5.11 5.14a1 1 0 0 0 1.42 1.41L17 25v7.69a1 1 0 0 0 2 0V25l2.69 2.71a1 1 0 0 0 1.42-1.41Z" class="clr-i-outline--alerted clr-i-outline-path-1--alerted"/>
  <path d="M5.85 19h7.69a1 1 0 0 0 0-2H5.85l2.71-2.69a1 1 0 1 0-1.41-1.42L2 18l5.14 5.11a1 1 0 1 0 1.41-1.42Z" class="clr-i-outline--alerted clr-i-outline-path-2--alerted"/>
  <path d="M31.38 15.4h-2.84l1.61 1.6h-7.69a1 1 0 1 0 0 2h7.69l-2.71 2.69a1 1 0 0 0 1.41 1.42L34 18Z" class="clr-i-outline--alerted clr-i-outline-path-3--alerted"/>
  <path d="m18 14.87 1.15-1.16-.1-.15A3.68 3.68 0 0 1 19 10V3.33a1 1 0 0 0-2 0V11l-2.69-2.68a1 1 0 1 0-1.42 1.41Z" class="clr-i-outline--alerted clr-i-outline-path-4--alerted"/>
  <path d="M26.85 1.14 21.13 11a1.28 1.28 0 0 0 1.1 2h11.45a1.28 1.28 0 0 0 1.1-2l-5.72-9.86a1.28 1.28 0 0 0-2.21 0Z" class="clr-i-outline--alerted clr-i-outline-path-5--alerted clr-i-alert"/>
  <path fill="none" d="M0 0h36v36H0z"/>
</svg>
