<svg viewBox="0 0 36 36" xmlns="http://www.w3.org/2000/svg" height="1em" width="1em">
  <path class="clr-i-solid clr-i-solid-path-1" d="m33.81 8.13-2.18-1.65a1.92 1.92 0 0 0-2.36 0L10 22.06a5.46 5.46 0 1 0 2 1.81l3.9-3.12 13.37 10.77a1.92 1.92 0 0 0 2.36 0l2.18-1.64L20.94 19ZM7.45 29.75a2.86 2.86 0 1 1 2.86-2.86 2.87 2.87 0 0 1-2.86 2.86Z"/>
  <path class="clr-i-solid clr-i-solid-path-2" d="M14.3 15.24 12 13.38a5.46 5.46 0 1 0-2 1.81L12.16 17Zm-6.85-2a2.86 2.86 0 1 1 2.86-2.86 2.86 2.86 0 0 1-2.86 2.85Z"/>
  <path fill="none" d="M0 0h36v36H0z"/>
</svg>
