<svg viewBox="0 0 36 36" xmlns="http://www.w3.org/2000/svg" height="1em" width="1em">
  <path class="clr-i-outline clr-i-outline-path-1" d="M11.29 26.72a1 1 0 0 0 1.41 0l5.3-5.23 5.3 5.23a1 1 0 0 0 1.4-1.42l-5.28-5.21 5.28-5.21a1 1 0 0 0-1.41-1.42L18 18.68l-5.3-5.23a1 1 0 0 0-1.41 1.42l5.28 5.21-5.27 5.22a1 1 0 0 0-.01 1.42Z"/>
  <path class="clr-i-outline clr-i-outline-path-2" d="M30.92 8h-4.37a1 1 0 0 0 0 2H31v20H5V10h4.38a1 1 0 0 0 0-2h-4.3A2 2 0 0 0 3 10v20a2 2 0 0 0 2.08 2h25.84A2 2 0 0 0 33 30V10a2 2 0 0 0-2.08-2Z"/>
  <path fill="none" d="M0 0h36v36H0z"/>
</svg>
