<svg viewBox="0 0 36 36" xmlns="http://www.w3.org/2000/svg" height="1em" width="1em">
  <path class="clr-i-solid clr-i-solid-path-1" d="M23.41 25.25a1 1 0 0 1-.54-1.85 6.21 6.21 0 0 0-.19-10.65 1 1 0 1 1 1-1.73 8.21 8.21 0 0 1 .24 14.06 1 1 0 0 1-.51.17Z"/>
  <path class="clr-i-solid clr-i-solid-path-2" d="M25.62 31.18a1 1 0 0 1-.45-1.89A12.44 12.44 0 0 0 25 6.89a1 1 0 1 1 .87-1.8 14.44 14.44 0 0 1 .24 26 1 1 0 0 1-.49.09Z"/>
  <path class="clr-i-solid clr-i-solid-path-3" d="m18.33 4-9.26 8h-6a1 1 0 0 0-1 1v9.92a1 1 0 0 0 1 1h5.81l9.46 8.24a1 1 0 0 0 1.66-.73V4.72A1 1 0 0 0 18.33 4Z"/>
  <path fill="none" d="M0 0h36v36H0z"/>
</svg>
