<svg viewBox="0 0 36 36" xmlns="http://www.w3.org/2000/svg" height="1em" width="1em">
  <path class="clr-i-solid clr-i-solid-path-1" d="M32.94 14H31V9a1 1 0 0 0-1-1H6a1 1 0 0 1-1-1 1 1 0 0 1 1-1h23.6a1 1 0 1 0 0-2H6a2.94 2.94 0 0 0-3 2.88v21A4.13 4.13 0 0 0 7.15 32H30a1 1 0 0 0 1-1v-5h1.94a.93.93 0 0 0 1-.91v-10a1.08 1.08 0 0 0-1-1.09ZM32 24h-8.58a3.87 3.87 0 0 1-3.73-4 3.87 3.87 0 0 1 3.73-4H32Z"/>
  <circle class="clr-i-solid clr-i-solid-path-2" cx="24.04" cy="19.92" r="1.5"/>
  <path fill="none" d="M0 0h36v36H0z"/>
</svg>
