<svg xmlns="http://www.w3.org/2000/svg" width="22" height="22"><path d="M8.753 9.049a1 1 0 0 0 0-1.414l-.976-.977c-.85-.85-2.329-.85-3.178 0L2 9.257V5c0-1.654 1.346-3 3-3h10c1.654 0 3 1.346 3 3a1 1 0 1 0 2 0c0-2.757-2.243-5-5-5H5C2.243 0 0 2.243 0 5v8c0 2.757 2.243 5 5 5a1 1 0 1 0 0-2c-1.654 0-3-1.346-3-3v-.985c.071-.042.146-.076.207-.137l3.806-3.806c.122-.12.231-.117.35 0l.976.977a1 1 0 0 0 1.414 0Z" fill="var(--iconFill, #464646)"/><circle cx="14.5" cy="5.5" r="1.5" fill="var(--iconFill, #464646)"/><path d="M17 8h-4c-2.757 0-5 2.243-5 5v4c0 2.757 2.243 5 5 5h4c2.757 0 5-2.243 5-5v-4c0-2.757-2.243-5-5-5Zm3 9c0 1.654-1.346 3-3 3h-4c-1.654 0-3-1.346-3-3v-4c0-1.654 1.346-3 3-3h4c1.654 0 3 1.346 3 3v4Z" fill="var(--iconFill, #464646)"/><path d="M14.222 12.126c-.532-.341-1.222.05-1.222.694v4.36c0 .643.69 1.035 1.222.694l3.403-2.18a.83.83 0 0 0 0-1.388l-3.403-2.18Z" fill="var(--iconFill, #464646)"/></svg>