<svg xmlns="http://www.w3.org/2000/svg" width="22" height="22"><path d="M16 20H6c-2.757 0-5-2.243-5-5V8c0-2.757 2.243-5 5-5h.586l1.121-1.121A2.982 2.982 0 0 1 9.828 1h2.344c.8 0 1.555.313 2.121.879L15.414 3H16c2.757 0 5 2.243 5 5v7c0 2.757-2.243 5-5 5ZM6 5C4.346 5 3 6.346 3 8v7c0 1.654 1.346 3 3 3h10c1.654 0 3-1.346 3-3V8c0-1.654-1.346-3-3-3h-1a1 1 0 0 1-.707-.293l-1.414-1.414A1.007 1.007 0 0 0 12.172 3H9.828c-.263 0-.52.106-.707.293L7.707 4.707A1 1 0 0 1 7 5H6Z" fill="var(--iconFill, #464646)"/><path d="M11 16.5c-2.757 0-5-2.243-5-5s2.243-5 5-5 5 2.243 5 5-2.243 5-5 5Zm0-8c-1.654 0-3 1.346-3 3s1.346 3 3 3 3-1.346 3-3-1.346-3-3-3Z" fill="var(--iconFill, #464646)"/></svg>