<svg xmlns="http://www.w3.org/2000/svg" width="22" height="22"><path d="M13.531 1.449 1.304 13.684a1 1 0 0 0-.293.705L1 19.986a1 1 0 0 0 .998 1.002L7.613 21h.002a1 1 0 0 0 .707-.293l12.256-12.26a4.981 4.981 0 0 0-.03-7 4.974 4.974 0 0 0-7.017.002ZM3 18.992 3.007 15A4.451 4.451 0 0 1 7 19l-4-.008Zm5.704-1.496a6.452 6.452 0 0 0-4.188-4.195l8.136-8.14 4.192 4.194-8.14 8.141Zm10.429-10.43-.875.875-4.192-4.195.876-.877a2.97 2.97 0 0 1 4.19 0c1.15 1.147 1.157 3.022 0 4.197Z" fill="var(--iconFill, #464646)"/></svg>