<svg xmlns="http://www.w3.org/2000/svg" width="22" height="22"><path d="M16 1H6C3.243 1 1 3.243 1 6v10c0 2.757 2.243 5 5 5h10c2.757 0 5-2.243 5-5V6c0-2.757-2.243-5-5-5Zm3 15c0 1.654-1.346 3-3 3H6c-1.654 0-3-1.346-3-3V6c0-1.654 1.346-3 3-3h10c1.654 0 3 1.346 3 3v10Z" fill="var(--iconFill, #464646)"/><rect x="6" y="12" width="6" height="6" rx="2" ry="2" fill="var(--iconFill, #464646)"/><rect x="4" y="4" width="6" height="6" rx="2" ry="2" fill="var(--iconFill, #464646)"/><rect x="12" y="6" width="6" height="6" rx="2" ry="2" fill="var(--iconFill, #464646)"/></svg>