<svg xmlns="http://www.w3.org/2000/svg" width="22" height="22"><path d="M20.096 8.467c-.34-.238-.906-.636-.984-.824-.09-.222.026-.906.103-1.358.18-1.056.386-2.255-.436-3.07-.816-.81-2.008-.606-3.058-.428-.453.078-1.139.195-1.36.103-.192-.08-.59-.647-.828-.986C12.937 1.056 12.195 0 11 0S9.063 1.056 8.467 1.904c-.238.34-.636.906-.824.984-.223.09-.905-.027-1.358-.103-1.055-.18-2.254-.385-3.07.436-.81.815-.607 2.008-.428 3.058.078.453.194 1.138.103 1.36-.08.192-.647.59-.986.828C1.056 9.063 0 9.805 0 11s1.056 1.937 1.904 2.533c.34.238.906.636.984.824.09.222-.026.906-.103 1.358-.18 1.056-.386 2.255.436 3.07.814.81 2.008.606 3.058.428.453-.077 1.139-.195 1.36-.103.192.08.59.647.828.986C9.063 20.944 9.805 22 11 22s1.937-1.056 2.533-1.904c.238-.34.636-.906.824-.984.222-.092.904.026 1.358.103 1.056.18 2.256.386 3.07-.436.81-.815.607-2.008.428-3.058-.078-.453-.194-1.138-.103-1.36.08-.192.647-.59.986-.828C20.944 12.937 22 12.195 22 11s-1.056-1.937-1.904-2.533Zm-1.15 3.43c-.68.476-1.38.97-1.683 1.699-.313.755-.165 1.622-.022 2.46.073.43.196 1.15.155 1.292-.197.093-.914-.03-1.344-.104-.834-.142-1.7-.29-2.456.019-.73.302-1.223 1.004-1.7 1.683-.245.348-.7.996-.88 1.056-.212-.06-.667-.708-.912-1.056-.477-.68-.97-1.38-1.7-1.683a2.693 2.693 0 0 0-1.038-.185c-.466 0-.949.082-1.423.163-.428.074-1.14.19-1.29.155-.093-.195.03-.915.103-1.344.143-.836.29-1.7-.019-2.456-.302-.73-1.004-1.223-1.683-1.7-.348-.245-.996-.7-1.056-.88.06-.212.708-.667 1.056-.912.68-.477 1.38-.97 1.683-1.7.313-.755.165-1.622.022-2.46-.073-.43-.196-1.15-.155-1.292.2-.09.915.032 1.344.104.835.143 1.701.29 2.456-.019.73-.302 1.223-1.004 1.7-1.683.245-.348.7-.996.88-1.056.212.06.667.708.912 1.056.477.68.97 1.38 1.7 1.683.756.313 1.622.165 2.46.022.43-.073 1.144-.187 1.292-.155.092.195-.03.915-.104 1.344-.143.836-.29 1.7.019 2.456.302.73 1.004 1.223 1.683 1.7.34.238.963.676 1.05.896-.087.22-.71.658-1.05.896Z" fill="var(--iconFill, #464646)"/><path d="M11 7c-2.206 0-4 1.794-4 4s1.794 4 4 4 4-1.794 4-4-1.794-4-4-4Zm0 6c-1.103 0-2-.897-2-2s.897-2 2-2 2 .897 2 2-.897 2-2 2Z" fill="var(--iconFill, #464646)"/></svg>