<svg xmlns="http://www.w3.org/2000/svg" width="22" height="22"><path d="M19 4H9a1 1 0 1 0 0 2h10a1 1 0 1 0 0-2Z" fill="var(--iconFill, #464646)"/><circle cx="4" cy="5" r="2" fill="var(--iconFill, #464646)"/><path d="M19 10H9a1 1 0 1 0 0 2h10a1 1 0 1 0 0-2Z" fill="var(--iconFill, #464646)"/><circle cx="4" cy="11" r="2" fill="var(--iconFill, #464646)"/><path d="M19 16H9a1 1 0 1 0 0 2h10a1 1 0 1 0 0-2Z" fill="var(--iconFill, #464646)"/><circle cx="4" cy="17" r="2" fill="var(--iconFill, #464646)"/></svg>