<svg width="48" height="48" fill="none" xmlns="http://www.w3.org/2000/svg"><path d="M19 9.556V4h-6v10M29 9.556V4h6v10" stroke="#000" stroke-width="4" stroke-linecap="round" stroke-linejoin="round"/><path d="M11 20c0-5.523 4.477-10 10-10h6c5.523 0 10 4.477 10 10v20a4 4 0 0 1-4 4H15a4 4 0 0 1-4-4V20Z" fill="#2F88FF" stroke="#000" stroke-width="4" stroke-linecap="round" stroke-linejoin="round"/><path d="M11 29H5v10h6M37 29h6v10h-6" stroke="#000" stroke-width="4" stroke-linecap="round" stroke-linejoin="round"/><path d="M28 23v4M17 23h14" stroke="#fff" stroke-width="4" stroke-linecap="round" stroke-linejoin="round"/></svg>