<svg width="48" height="48" fill="none" xmlns="http://www.w3.org/2000/svg"><path d="M36 26V14a2 2 0 0 0-2-2H10a2 2 0 0 0-2 2v24a2 2 0 0 0 2 2h17M16 12v28M28 12v17M28 12V6a2 2 0 0 0-2-2h-8a2 2 0 0 0-2 2v6" stroke="#000" stroke-width="4" stroke-linecap="round" stroke-linejoin="round"/><path d="M35 44a9 9 0 1 0 0-18 9 9 0 0 0 0 18Z" fill="#2F88FF" stroke="#000" stroke-width="4"/><path d="M34 32v4h4" stroke="#fff" stroke-width="4" stroke-linecap="round" stroke-linejoin="round"/><path d="M13 40v4" stroke="#000" stroke-width="4" stroke-linecap="round"/></svg>