<svg width="48" height="48" fill="none" xmlns="http://www.w3.org/2000/svg"><path d="M13.28 42a2 2 0 0 1-1.816-1.162l-5.077-11a2 2 0 0 1 0-1.676l5.077-11A2 2 0 0 1 13.28 16h21.44a2 2 0 0 1 1.816 1.162l5.077 11a2 2 0 0 1 0 1.676l-5.077 11A2 2 0 0 1 34.72 42H13.28Z" fill="#2F88FF" stroke="#000" stroke-width="4" stroke-linejoin="bevel"/><path d="M9 23h9v10H8M39 23H25v9h15" stroke="#fff" stroke-width="4" stroke-linecap="round" stroke-linejoin="round"/><path d="M38 4s-9.5 3.5-17.436 4.394C12.628 9.288 8 9 8 9M26 8v8l-9-7M10.615 19l-4.228 9.162a2 2 0 0 0 0 1.676L9 35.5" stroke="#000" stroke-width="4" stroke-linecap="round" stroke-linejoin="round"/><path d="m37.385 19 4.228 9.162a2 2 0 0 1 0 1.676L39 35.5" stroke="#000" stroke-width="4" stroke-linecap="round" stroke-linejoin="bevel"/></svg>