<svg width="48" height="48" fill="none" xmlns="http://www.w3.org/2000/svg"><path d="M13.5 39.37A16.927 16.927 0 0 0 24 43c3.963 0 7.61-1.356 10.5-3.63M19 9.747C12.051 11.882 7 18.351 7 26c0 1.925.32 3.775.91 5.5M29 9.747C35.949 11.882 41 18.351 41 26c0 1.925-.32 3.775-.91 5.5" stroke="#000" stroke-width="4"/><path d="M43 36c0 1.342-.528 2.56-1.388 3.458A5 5 0 1 1 43 36ZM15 36c0 1.342-.528 2.56-1.388 3.458A5 5 0 1 1 15 36ZM29 9c0 1.342-.528 2.56-1.388 3.458A5 5 0 1 1 29 9Z" fill="#2F88FF" stroke="#000" stroke-width="4" stroke-linecap="round" stroke-linejoin="round"/></svg>