<svg width="48" height="48" fill="none" xmlns="http://www.w3.org/2000/svg"><g clip-path="url(#a)" stroke="#000" stroke-width="4" stroke-linecap="round" stroke-linejoin="round"><path d="M17.118 26.013 9.253 12.39a1.605 1.605 0 0 0-2.896 1.36l5.52 14.918c.082.22.123.452.125.686l.057 12.672a2 2 0 0 0 2 1.991h4.957a2 2 0 0 0 1.954-2.426L18 28l-.882-1.987ZM12 29l6-1M30.564 25.729l7.69-13.322a1.625 1.625 0 0 1 2.947 1.337l-5.106 14.977a2.002 2.002 0 0 0-.105.573l-.466 12.798a2 2 0 0 1-2 1.928h-4.963a2 2 0 0 1-1.94-2.485L30 28l.334-1.665a2 2 0 0 1 .229-.606ZM30 28l6 1M15 7l3.5 4M23 4l1 6M33 6l-3 4"/></g><defs><clipPath id="a"><path fill="#fff" d="M0 0h48v48H0z"/></clipPath></defs></svg>