<svg width="48" height="48" fill="none" xmlns="http://www.w3.org/2000/svg"><path fill-rule="evenodd" clip-rule="evenodd" d="M8 12a4 4 0 1 0 0-8 4 4 0 0 0 0 8ZM10 42a6 6 0 1 0 0-12 6 6 0 0 0 0 12ZM38 44a6 6 0 1 0 0-12 6 6 0 0 0 0 12ZM22 28a8 8 0 1 0 0-16 8 8 0 0 0 0 16ZM34 12a4 4 0 1 0 0-8 4 4 0 0 0 0 8Z" fill="#2F88FF" stroke="#000" stroke-width="4" stroke-linecap="round" stroke-linejoin="round"/><path d="m11 11 4 4M30 12l-2 2M34 33.5 28 26M14 31l4-4" stroke="#000" stroke-width="4" stroke-linecap="round" stroke-linejoin="round"/></svg>