<svg width="48" height="48" fill="none" xmlns="http://www.w3.org/2000/svg"><path d="M24 12a4 4 0 1 0 0-8 4 4 0 0 0 0 8ZM24 44a4 4 0 1 0 0-8 4 4 0 0 0 0 8ZM8 28a4 4 0 1 0 0-8 4 4 0 0 0 0 8ZM40 28a4 4 0 1 0 0-8 4 4 0 0 0 0 8Z" fill="#2F88FF" stroke="#000" stroke-width="4" stroke-linejoin="round"/><path d="M12 24h24M24 12v24M37.305 15.11a16.073 16.073 0 0 0-4.415-4.415m-17.78 0a16.074 16.074 0 0 0-4.415 4.415l4.415-4.415ZM10.696 32.89a16.08 16.08 0 0 0 4.415 4.415l-4.415-4.415Zm22.195 4.415a16.079 16.079 0 0 0 4.415-4.415l-4.415 4.415Z" stroke="#000" stroke-width="4" stroke-linecap="round" stroke-linejoin="round"/></svg>