<svg width="48" height="48" fill="none" xmlns="http://www.w3.org/2000/svg"><path d="M24 44c9.941 0 18-8.059 18-18S33.941 8 24 8 6 16.059 6 26s8.059 18 18 18Z" fill="#2F88FF" stroke="#000" stroke-width="4" stroke-linejoin="round"/><path d="M24 8c-.25-1-2-4-6-4M24 8c.083-1 .6-3.2 2-4" stroke="#000" stroke-width="4" stroke-linecap="round" stroke-linejoin="round"/><path d="M31 35s-2-4-7-4-7 4-7 4M34 20l-6-1M20 19l-6 1M15 20v5M33 20v5" stroke="#fff" stroke-width="4" stroke-linecap="round" stroke-linejoin="round"/><path d="M4 24v4M44 24v4" stroke="#000" stroke-width="4" stroke-linecap="round" stroke-linejoin="round"/></svg>