<svg width="48" height="48" fill="none" xmlns="http://www.w3.org/2000/svg"><path d="m20 15 4 4 4-4" stroke="#000" stroke-width="4" stroke-linecap="round" stroke-linejoin="round"/><path d="M24 19V8a4 4 0 0 1 4-4h12a4 4 0 0 1 4 4v11M28 33l-4-4-4 4" stroke="#000" stroke-width="4" stroke-linecap="round" stroke-linejoin="round"/><path d="M24 29v11a4 4 0 0 1-4 4H8a4 4 0 0 1-4-4V29M33 20l-4 4 4 4" stroke="#000" stroke-width="4" stroke-linecap="round" stroke-linejoin="round"/><path d="M29 24h11a4 4 0 0 1 4 4v12a4 4 0 0 1-4 4H29M15 28l4-4-4-4" stroke="#000" stroke-width="4" stroke-linecap="round" stroke-linejoin="round"/><path d="M19 24H8a4 4 0 0 1-4-4V8a4 4 0 0 1 4-4h11" stroke="#000" stroke-width="4" stroke-linecap="round" stroke-linejoin="round"/></svg>