<svg width="48" height="48" fill="none" xmlns="http://www.w3.org/2000/svg"><path d="M24 36v-6M20 40H6M28 40h14" stroke="#000" stroke-width="4" stroke-linecap="round" stroke-linejoin="round"/><path d="M28 40a4 4 0 1 1-8 0 4 4 0 0 1 8 0Z" fill="#2F88FF" stroke="#000" stroke-width="4" stroke-linecap="round" stroke-linejoin="round"/><path d="M37 17c0 7.18-5.82 13-13 13s-13-5.82-13-13m26 0c0-7.18-5.82-13-13-13S11 9.82 11 17m26 0H11" stroke="#000" stroke-width="4" stroke-linecap="round" stroke-linejoin="round"/><path d="M29 17c0 7.18-2.239 13-5 13s-5-5.82-5-13 2.239-13 5-13 5 5.82 5 13Z" fill="#2F88FF" stroke="#000" stroke-width="4" stroke-linecap="round" stroke-linejoin="round"/><path d="M37 17H11" stroke="#000" stroke-width="4" stroke-linecap="round" stroke-linejoin="round"/></svg>