<svg width="48" height="48" fill="none" xmlns="http://www.w3.org/2000/svg"><path d="M36 27c0 7.217-5.373 17-12 17s-12-9.783-12-17c0-7.216 1.5-11 12-11s12 3.784 12 11Z" fill="#2F88FF" stroke="#000" stroke-width="4"/><ellipse rx="5" ry="3.5" transform="scale(1 -1) rotate(45 40.625 38.327)" fill="#2F88FF" stroke="#000" stroke-width="4"/><ellipse cx="9" cy="17.5" rx="5" ry="3.5" transform="rotate(45 9 17.5)" fill="#2F88FF" stroke="#000" stroke-width="4"/><path d="M12 4c0 6.627 5.373 12 12 12s12-5.373 12-12" stroke="#000" stroke-width="4" stroke-linecap="round"/><path d="M18 7c0 4.97 2.686 9 6 9s6-4.03 6-9" stroke="#000" stroke-width="4" stroke-linecap="round"/><circle cx="20" cy="26" r="2" fill="#fff"/><circle cx="24" cy="34" r="2" fill="#fff"/><circle cx="28" cy="26" r="2" fill="#fff"/></svg>