<svg width="48" height="48" fill="none" xmlns="http://www.w3.org/2000/svg"><path d="M10 44h28a2 2 0 0 0 2-2V14H30V4H10a2 2 0 0 0-2 2v36a2 2 0 0 0 2 2Z" fill="#2F88FF" stroke="#000" stroke-width="4" stroke-linecap="round" stroke-linejoin="round"/><path d="m30 4 10 10" stroke="#000" stroke-width="4" stroke-linecap="round" stroke-linejoin="round"/><circle cx="24" cy="27" r="5" fill="#43CCF8" stroke="#fff" stroke-width="4"/><path d="M24 19v3M24 32v3M29.828 21l-2.121 2.121M19.828 31l-2.121 2.121M18 21l2.121 2.121M28 31l2.121 2.121M16 27h3M29 27h3" stroke="#fff" stroke-width="4" stroke-linecap="round" stroke-linejoin="round"/></svg>