<svg width="48" height="48" fill="none" xmlns="http://www.w3.org/2000/svg"><path d="M42 30v-5.538C42 14.265 33.941 6 24 6S6 14.265 6 24.462V30" stroke="#000" stroke-width="4" stroke-linecap="round" stroke-linejoin="round"/><path d="M34 32a4 4 0 0 1 4-4h4v14h-4a4 4 0 0 1-4-4v-6Z" fill="#2F88FF" stroke="#000" stroke-width="4" stroke-linejoin="round"/><path d="M42 32h2a2 2 0 0 1 2 2v2a2 2 0 0 1-2 2h-2v-6ZM6 32H4a2 2 0 0 0-2 2v2a2 2 0 0 0 2 2h2v-6Z" fill="#000"/><path d="M6 28h4a4 4 0 0 1 4 4v6a4 4 0 0 1-4 4H6V28Z" fill="#2F88FF" stroke="#000" stroke-width="4" stroke-linejoin="round"/></svg>