<svg width="48" height="48" fill="none" xmlns="http://www.w3.org/2000/svg"><circle cx="24" cy="26" r="15" fill="#2F88FF" stroke="#000" stroke-width="4"/><path d="M21 31.563C21 29.663 24 24 24 24s3 5.664 3 7.563C27 33.46 25.657 35 24 35s-3-1.539-3-3.438Z" fill="#43CCF8" stroke="#fff" stroke-width="4" stroke-linejoin="round"/><circle cx="17.039" cy="23.493" r="2" fill="#fff"/><circle cx="31.039" cy="23.493" r="2" fill="#fff"/><path d="M17 11.927C15.621 9.524 8.495 6.093 5.35 9.306 4.014 10.418 2.986 15.45 5.727 23L10 19.98M31 11.927c1.379-2.403 8.505-5.834 11.65-2.621 1.336 1.112 2.364 6.144-.377 13.694L38 19.98" stroke="#000" stroke-width="4" stroke-linecap="round" stroke-linejoin="round"/></svg>