<svg width="48" height="48" fill="none" xmlns="http://www.w3.org/2000/svg"><path d="M7 9v15a6 6 0 0 0 6 6h22a6 6 0 0 0 6-6V9" stroke="#000" stroke-width="4" stroke-linecap="round" stroke-linejoin="round"/><path d="M7 10a6 6 0 0 1 6-6h22a6 6 0 0 1 0 12H13a6 6 0 0 1-6-6Z" fill="#2F88FF" stroke="#000" stroke-width="4" stroke-linecap="round" stroke-linejoin="round"/><circle cx="15" cy="10" r="2" fill="#fff"/><circle cx="21" cy="10" r="2" fill="#fff"/><circle cx="27" cy="10" r="2" fill="#fff"/><circle cx="33" cy="10" r="2" fill="#fff"/><path d="M19 30v14M29 30v14" stroke="#000" stroke-width="4" stroke-linecap="round" stroke-linejoin="round"/></svg>