<svg width="48" height="48" fill="none" xmlns="http://www.w3.org/2000/svg"><path d="M20.785 18.73a.719.719 0 0 1 1.016 0l7.469 7.469c.28.28.28.735 0 1.016L17.757 38.728a6 6 0 0 1-8.485-8.486L20.785 18.73Z" fill="#2F88FF" stroke="#000" stroke-width="4"/><path d="M42.581 22.389a.894.894 0 0 0 0-1.264L26.874 5.418a.894.894 0 0 0-1.263 0l-.783.783c-4.686 4.686-4.686 12.284 0 16.97 4.687 4.687 12.285 4.687 16.97 0l.783-.782Z" stroke="#000" stroke-width="4"/><path d="m19.879 28.121-1.415 1.414" stroke="#fff" stroke-width="4" stroke-linecap="round" stroke-linejoin="round"/><path d="m27.657 17.515 2.828 2.828" stroke="#000" stroke-width="4" stroke-linecap="round" stroke-linejoin="round"/></svg>