<svg width="48" height="48" fill="none" xmlns="http://www.w3.org/2000/svg"><path d="M44 22a2 2 0 1 0-4 0h4ZM24 8a2 2 0 1 0 0-4v4Zm15 32H9v4h30v-4ZM8 39V9H4v30h4Zm32-17v17h4V22h-4ZM9 8h15V4H9v4Zm0 32a1 1 0 0 1-1-1H4a5 5 0 0 0 5 5v-4Zm30 4a5 5 0 0 0 5-5h-4a1 1 0 0 1-1 1v4ZM8 9a1 1 0 0 1 1-1V4a5 5 0 0 0-5 5h4Z" fill="#000"/><path d="m6 35 10.693-9.802a2 2 0 0 1 2.653-.044L32 36M28 31l4.773-4.773a2 2 0 0 1 2.615-.186L42 31" stroke="#000" stroke-width="4" stroke-linecap="round" stroke-linejoin="round"/><path d="M31.414 9.586a2 2 0 1 0-2.828 2.828l2.828-2.828ZM34 15l-1.414 1.414a2 2 0 0 0 2.828 0L34 15Zm9.414-6.586a2 2 0 1 0-2.828-2.828l2.828 2.828Zm-14.828 4 4 4 2.828-2.828-4-4-2.828 2.828Zm6.828 4 8-8-2.828-2.828-8 8 2.828 2.828Z" fill="#000"/></svg>