<svg width="48" height="48" fill="none" xmlns="http://www.w3.org/2000/svg"><path d="M36 27V8c0-2.21 1.79-4 4-4h4M10 27V8c0-2.21 1.79-4 4-4h4M10 12h26M10 20h26M4 34l2.5 1.351c1.6.865 3.4.865 5 0 1.6-.864 3.4-.864 5 0 1.6.865 3.4.865 5 0 1.6-.864 3.4-.864 5 0 1.6.865 3.4.865 5 0 1.6-.864 3.4-.864 5 0 1.6.865 3.4.865 5 0L44 34M4 40l2.5 1.351c1.6.865 3.4.865 5 0 1.6-.864 3.4-.864 5 0 1.6.865 3.4.865 5 0 1.6-.864 3.4-.864 5 0 1.6.865 3.4.865 5 0 1.6-.864 3.4-.864 5 0 1.6.865 3.4.865 5 0L44 40" stroke="#000" stroke-width="4" stroke-miterlimit="2" stroke-linecap="round" stroke-linejoin="round"/></svg>