<svg width="48" height="48" fill="none" xmlns="http://www.w3.org/2000/svg"><path d="M32 28h6v11a3 3 0 1 1-6 0V28Z" fill="#2F88FF" stroke="#000" stroke-width="4"/><path d="M29 12h10a3 3 0 0 1 3 3v10a3 3 0 0 1-3 3H28" stroke="#000" stroke-width="4" stroke-linecap="round"/><path d="M14 14h-2a6 6 0 0 0 0 12h2" stroke="#000" stroke-width="4" stroke-linejoin="round"/><path d="M14.198 33a.198.198 0 0 1-.198-.198V6.198c0-.11.089-.198.198-.198H17.5C24.956 6 31 12.044 31 19.5S24.956 33 17.5 33h-3.302Z" fill="#2F88FF" stroke="#000" stroke-width="4"/></svg>