<svg width="48" height="48" fill="none" xmlns="http://www.w3.org/2000/svg"><path d="M4 18a3 3 0 0 1 3-3h34a3 3 0 0 1 3 3v6.14a3 3 0 0 1-.456 1.59l-3.663 5.86A3 3 0 0 1 37.337 33H10.663a3 3 0 0 1-2.544-1.41l-3.663-5.86A3 3 0 0 1 4 24.14V18Z" fill="#2F88FF" stroke="#000" stroke-width="4" stroke-linecap="round" stroke-linejoin="round"/><path d="M11 15h26v8H11v-8Z" fill="#2F88FF" stroke="#fff" stroke-width="4" stroke-linecap="round" stroke-linejoin="round"/><path d="M21 23v-2M27 23v-2M32 23v-2M16 23v-2" stroke="#fff" stroke-width="4" stroke-linecap="round" stroke-linejoin="round"/><path d="M8 15h32" stroke="#000" stroke-width="4" stroke-linecap="round" stroke-linejoin="round"/></svg>