<svg width="48" height="48" fill="none" xmlns="http://www.w3.org/2000/svg"><path d="M30 17c4 0 11.088-.112 11.959 6.64C42.417 27.192 39.238 32.674 24 43" stroke="#000" stroke-width="4" stroke-linecap="round" stroke-linejoin="round"/><path d="M16 11a2 2 0 1 0 4 0h-4ZM4 11a2 2 0 1 0 4 0H4Zm4 0a4 4 0 0 1 4-4V3a8 8 0 0 0-8 8h4Zm4-4a4 4 0 0 1 4 4h4a8 8 0 0 0-8-8v4Z" fill="#000"/><path d="M28 11a2 2 0 1 0 4 0h-4Zm-12 0a2 2 0 1 0 4 0h-4Zm4 0a4 4 0 0 1 4-4V3a8 8 0 0 0-8 8h4Zm4-4a4 4 0 0 1 4 4h4a8 8 0 0 0-8-8v4Z" fill="#000"/><path d="M6 11v18M18 11v18" stroke="#000" stroke-width="4" stroke-linecap="round" stroke-linejoin="round"/><path d="M30 11v18c0 5 2.5 10 12 10" stroke="#000" stroke-width="4" stroke-linecap="round"/></svg>