<svg xmlns="http://www.w3.org/2000/svg" viewBox="0 0 32 32" height="1em" width="1em">
  <path d="M16 0C7.161 0 0 7.161 0 16s7.161 16 16 16 16-7.161 16-16S24.839 0 16 0zm8.307 21.656a.5.5 0 0 1-.5.5h-2.089a.5.5 0 0 1-.495-.5v-6.438c0-.052-.063-.078-.104-.042l-4.427 4.427a.991.991 0 0 1-1.391 0l-4.427-4.427c-.036-.036-.109-.01-.109.042v6.438c0 .276-.219.5-.495.5H8.181a.493.493 0 0 1-.495-.5V10.343c0-.276.219-.495.495-.495h1.432c.266 0 .516.104.703.292l5.505 5.505c.094.099.25.099.349 0l5.505-5.505a.976.976 0 0 1 .698-.292h1.432c.276 0 .5.219.5.495z"/>
</svg>
