<svg xmlns="http://www.w3.org/2000/svg" viewBox="0 0 32 32" height="1em" width="1em">
  <path d="M27.979.005H12.678v8.656h.145a4.842 4.842 0 0 1 4.745-1.776l-.032-.005c2.62.193 5.213 1.781 5.36 6.875v10.073a.405.405 0 0 1-.38.385h-2.819a.383.383 0 0 1-.38-.385v-9.76c0-2.371-.781-4.151-3.12-4.151h-.052a3.475 3.475 0 0 0-3.468 3.703v-.011 10.219a.383.383 0 0 1-.38.385H9.5a.385.385 0 0 1-.385-.385V.005H4.167a2.037 2.037 0 0 0-2.031 1.959v27.979a2.135 2.135 0 0 0 2.119 2.063h23.724a1.946 1.946 0 0 0 1.885-2.068v.005V1.964A1.844 1.844 0 0 0 28.027.005l-.048.005zm-3.391 27.974H7.407v-1.765h17.181z"/>
</svg>
