<svg xmlns="http://www.w3.org/2000/svg" viewBox="0 0 32 32" height="1em" width="1em">
  <path d="M30.875 19H10.427c0 .771.115 1.469.349 2.099.251.62.579 1.177.989 1.661.417.485.901.901 1.475 1.251.547.349 1.145.64 1.787.864.635.229 1.301.401 1.973.511 1.464.235 2.959.219 4.416-.036.751-.141 1.48-.323 2.204-.557.719-.24 1.411-.516 2.109-.839a38.35 38.35 0 0 0 2.14-1.057v6.781c-.817.396-1.619.735-2.416 1.02-.803.281-1.599.527-2.417.724-.812.199-1.635.349-2.484.439-.864.093-1.74.14-2.609.14-1.197 0-2.359-.14-3.473-.416a13.267 13.267 0 0 1-5.833-3.079 11.966 11.966 0 0 1-3.459-5.532 12.455 12.455 0 0 1-.475-3.479c0-1.312.177-2.568.543-3.76.364-1.199.88-2.287 1.557-3.287a11.876 11.876 0 0 1 2.473-2.667c1-.792 2.109-1.432 3.292-1.901a6.952 6.952 0 0 0-1.552 2.365 10.13 10.13 0 0 0-.713 2.739h11.391c0-1.151-.115-2.151-.349-3.011-.235-.859-.609-1.572-1.136-2.14-.52-.568-1.192-1-2.015-1.281-.824-.281-1.824-.427-2.985-.427-1.375 0-2.749.197-4.125.615-1.375.4-2.681.973-3.921 1.697a19.12 19.12 0 0 0-3.416 2.593 15.927 15.927 0 0 0-2.625 3.24c.145-1.323.437-2.625.864-3.885a16.432 16.432 0 0 1 1.625-3.453 15.52 15.52 0 0 1 2.317-2.869 13.858 13.858 0 0 1 2.948-2.199A15.228 15.228 0 0 1 12.365.453 17.586 17.586 0 0 1 16.345 0c.817 0 1.635.073 2.448.219.817.151 1.609.355 2.385.609a14.188 14.188 0 0 1 4.125 2.213 14.161 14.161 0 0 1 3.052 3.265 14.754 14.754 0 0 1 1.88 4.084c.427 1.484.645 3.031.645 4.636v3.973z"/>
</svg>
