<svg xmlns="http://www.w3.org/2000/svg" viewBox="0 0 32 32" height="1em" width="1em">
  <path d="M.271 11.557a.631.631 0 0 0-.271.521v.005c0 .089.021.172.052.255l3.068 6.938a.646.646 0 0 0 .802.349c2.005-.719 8.948-2.979 13.443-1.76 0 0-4.51.26-8.583 3.458a.647.647 0 0 0-.193.76l1.375 3.104.526 1.234a.398.398 0 0 0 .703.063c.953-1.432 2.557-2.146 4.099-2.771a23.227 23.227 0 0 1 4.906-1.401 21.538 21.538 0 0 1 5.427-.224.634.634 0 0 0 .667-.443l1.385-4.427a.628.628 0 0 0-.234-.703c-1.542-1.12-7.656-4.875-18.401-3.365 0 0 9.167-5.271 20.813.521a.643.643 0 0 0 .896-.385l1.219-3.901a.531.531 0 0 0 .031-.182v-.021a.649.649 0 0 0-.323-.547c-1.464-.823-6.411-3.302-13.214-3.302-5.219 0-11.526 1.453-18.193 6.224z"/>
</svg>
