<svg xmlns="http://www.w3.org/2000/svg" viewBox="0 0 32 32" height="1em" width="1em">
  <path d="M16.255 3.172a12.462 12.462 0 0 0-12.313 9.193c.068-.026-.073.016 0 0-5.167 3.401-5.229 10.812-.328 14.589l.005-.01-.01.042a8.976 8.976 0 0 0 5.438 1.807h6.896l.042.036h6.922c8.917.073 12.5-11.469 5.115-16.464a12.447 12.447 0 0 0-3.76-6.068l-.057.057.005-.068a12.465 12.465 0 0 0-7.953-3.115zm-.479 5.531c1.656-.057 3.359.49 4.646 1.531a6.91 6.91 0 0 1 2.484 5.438v.693c4.708-.094 4.708 7.016 0 6.922h-6.922l-.01.01v-.052H9.047c-.49 0-.974-.104-1.422-.307-2.203-.995-2.729-3.891-1.021-5.604 1.714-1.708 4.604-1.182 5.604 1.021l4.016-4.016a9 9 0 0 0-5.411-3.354c.026-.01.052-.031.073-.026a6.901 6.901 0 0 1 4.896-2.255z"/>
</svg>
