<svg xmlns="http://www.w3.org/2000/svg" viewBox="0 0 32 32" height="1em" width="1em">
  <path d="M16.786 4.146a11.66 11.66 0 0 1 4.552 1.224 11.79 11.79 0 0 1 3.609 2.792c1 1.156 1.76 2.474 2.286 3.953.521 1.479.729 3.036.62 4.672a11.437 11.437 0 0 1-.406 2.464 12.502 12.502 0 0 1-.901 2.271 27.072 27.072 0 0 1-1.958 3.214 23.762 23.762 0 0 1-2.349 2.823 25.612 25.612 0 0 1-2.714 2.406 26.638 26.638 0 0 1-3.005 1.969l-.047.036a.285.285 0 0 1-.146.031.444.444 0 0 1-.214-.13.388.388 0 0 1-.067-.344.465.465 0 0 1 .052-.083c.37-.526.672-1.073.917-1.646.24-.578.401-1.182.49-1.813a.17.17 0 0 0-.052-.115.159.159 0 0 0-.115-.052c-.349.047-.703.073-1.057.083-.354.016-.708 0-1.063-.047a11.811 11.811 0 0 1-8.166-4.016 12.113 12.113 0 0 1-2.286-3.953 11.667 11.667 0 0 1-.62-4.672c.047-.844.182-1.667.411-2.464s.526-1.536.901-2.24c.583-1.151 1.24-2.234 1.958-3.245s1.5-1.953 2.344-2.828a25.515 25.515 0 0 1 5.719-4.37l.047-.031a.29.29 0 0 1 .146-.036.399.399 0 0 1 .214.13.343.343 0 0 1 .083.234.374.374 0 0 1-.016.109c-.01.031-.031.057-.052.083a8.676 8.676 0 0 0-.917 1.651 7.308 7.308 0 0 0-.484 1.807c0 .047.016.083.047.115s.073.052.115.052c.349-.047.703-.073 1.057-.083.365-.01.714.005 1.068.047zm-1.078 16.489a4.421 4.421 0 0 0 3.359-1.141c.964-.849 1.479-1.917 1.568-3.198a4.46 4.46 0 0 0-1.141-3.38 4.403 4.403 0 0 0-3.198-1.552 4.5 4.5 0 0 0-3.38 1.141 4.405 4.405 0 0 0-1.552 3.203 4.519 4.519 0 0 0 1.13 3.38c.833.964 1.906 1.484 3.214 1.547z"/>
</svg>
