<svg xmlns="http://www.w3.org/2000/svg" viewBox="0 0 300 151" height="1em" width="1em">
  <g fill="none">
    <path fill="#EC2227" d="M0 .884h300v150H0z"/>
    <path fill="#035EA5" d="M0 .884h300v100H0z"/>
    <path fill="#FFF" d="M0 .884h300v50H0z"/>
    <path fill="#035EA5" d="m92.908 53.496 1.575-23.246a45.316 45.316 0 0 0-38.81 0l1.575 23.246a25.164 25.164 0 0 0 17.83 22.388 25.161 25.161 0 0 0 17.83-22.388"/>
    <path fill="#FFF" d="M60.525 56.645A22.361 22.361 0 0 0 75.079 72.94a22.361 22.361 0 0 0 14.554-16.295l-7.277-9.702-2.911 3.881-4.366-8.732-4.366 8.732-2.911-3.881-7.277 9.702"/>
    <path fill="#035EA5" d="M61.175 59.071a4.852 4.852 0 0 0 6.627 1.776 4.849 4.849 0 0 1 4.851 0 4.856 4.856 0 0 0 4.852 0 4.849 4.849 0 0 1 4.851 0 4.852 4.852 0 0 0 6.627-1.776v1.401a4.852 4.852 0 0 1-6.627 1.776 4.849 4.849 0 0 0-4.851 0 4.85 4.85 0 0 1-4.852 0 4.849 4.849 0 0 0-4.851 0 4.852 4.852 0 0 1-6.627-1.776v-1.401z"/>
    <path fill="#035EA5" d="M61.175 61.872a4.852 4.852 0 0 0 6.627 1.776 4.849 4.849 0 0 1 4.851 0 4.856 4.856 0 0 0 4.852 0 4.849 4.849 0 0 1 4.851 0 4.851 4.851 0 0 0 6.627-1.775v1.4a4.851 4.851 0 0 1-6.627 1.776 4.849 4.849 0 0 0-4.851 0 4.85 4.85 0 0 1-4.852 0 4.849 4.849 0 0 0-4.851 0 4.851 4.851 0 0 1-6.627-1.775v-1.402z"/>
    <path fill="#FEDC00" d="m75.079 35.421.364 1.189 1.212-.279-.848.91.848.91-1.212-.28-.364 1.189-.364-1.189-1.212.28.848-.91-.848-.91 1.212.279zm-5.458-7.277.364 1.189 1.211-.279-.848.91.848.91-1.211-.28-.364 1.189-.364-1.189-1.211.28.847-.91-.847-.91 1.211.279zm10.915 0 .364 1.189 1.212-.279-.848.91.848.91-1.212-.28-.364 1.189-.364-1.189-1.212.28.848-.91-.848-.91 1.212.279z"/>
    <path fill="#EC2227" d="m57.035 29.632 1.611 23.77a23.762 23.762 0 0 0 16.433 21.014 23.764 23.764 0 0 0 16.432-21.014l1.611-23.77c.45.213.904.42 1.361.618l-1.575 23.246a25.164 25.164 0 0 1-17.829 22.389 25.163 25.163 0 0 1-17.83-22.389L55.673 30.25c.458-.198.912-.405 1.362-.618"/>
  </g>
</svg>
