<svg xmlns="http://www.w3.org/2000/svg" viewBox="0 0 300 150" height="1em" width="1em">
  <defs>
    <clipPath id="a">
      <path d="M0 0h150v75H0Zm0 0"/>
    </clipPath>
    <clipPath id="b">
      <path d="M0 0v37.5h200V100Zm150 0H75v100H-50Zm0 0"/>
    </clipPath>
    <clipPath id="c">
      <path d="M0 0h200v100H0Zm0 0"/>
    </clipPath>
    <clipPath id="d">
      <path d="M0 0v37.5h200V100Zm150 0H75v100H-50Zm0 0"/>
    </clipPath>
  </defs>
  <path fill="#012169" d="M0 0h300v150H0z"/>
  <path fill="#012169" stroke="#fff" stroke-width="15" d="m0 0 150 75M0 75 150 0"/>
  <g clip-path="url(#a)">
    <g clip-path="url(#b)">
      <path fill="#012169" d="m0 0 150 75M0 75 150 0"/>
    </g>
  </g>
  <g clip-path="url(#c)">
    <g clip-path="url(#d)">
      <path fill="none" stroke="#c8102e" stroke-width="10" d="m0 0 150 75M0 75 150 0"/>
    </g>
  </g>
  <path fill="#012169" stroke="#fff" d="M75 0v100M0 37.5h175" stroke-width="25"/>
  <path fill="#012169" stroke="#c8102e" stroke-width="15" d="M75 0v100M0 37.5h175"/>
  <path fill="#012169" d="M0 75h150V0h150v150H0Zm0 0"/>
  <path fill="#fff" d="m225 12.75 2.531 7.781h8.156l-6.593 4.782 2.531 7.78-6.625-4.78-6.625 4.78 2.531-7.78-6.594-4.782h8.157Zm25.32 5.383-.851 8.137 7.449 3.316-7.969 1.687-.851 8.137-4.11-7.062-7.996 1.675 5.477-6.082-4.078-7.046 7.453 3.316Zm20.942 15.215-4.09 7.086 5.457 6.062-7.965-1.703-4.09 7.09-.879-8.121-7.984-1.727 7.476-3.324-.859-8.102 5.457 6.063Zm12.941 22.418-6.617 4.808 2.52 7.758-6.586-4.793-6.618 4.813 2.5-7.778-6.593-4.824 8.183.004 2.508-7.75 2.52 7.758Zm2.707 25.742-8.004 1.703-.851 8.113-4.067-7.058-8.004 1.703 5.45-6.09-4.063-7.086 7.473 3.328 5.445-6.055-.855 8.11Zm-8 24.617-8.004-1.7-4.078 7.063-.844-8.097-8.004-1.7 7.454-3.347-.829-8.13 5.473 6.083 7.438-3.317-4.079 7.063Zm-17.32 19.235-6.621-4.805-6.598 4.793 2.524-7.743-6.622-4.808 8.168-.027 2.551-7.762 2.524 7.785 8.148-.008-6.601 4.793Zm-23.649 10.53-4.093-7.085-7.977 1.695 5.457-6.047-4.094-7.086 7.473 3.301 5.484-6.055-.855 8.137 7.441 3.305-7.976 1.699Zm-25.882 0-.86-8.136-7.976-1.7 7.441-3.304-.855-8.137 5.484 6.055 7.473-3.3-4.094 7.085 5.457 6.047-7.977-1.695Zm-23.649-10.53 2.528-7.782-6.602-4.793 8.148.008 2.524-7.785 2.55 7.762 8.169.027-6.622 4.808 2.524 7.743-6.598-4.793Zm-17.32-19.235 5.472-6.082-4.078-7.063 7.438 3.317 5.473-6.082-.829 8.129 7.454 3.347-8.004 1.7-.844 8.097-4.078-7.062Zm-8-24.617 7.476-3.332-.855-8.11 5.445 6.055 7.473-3.328-4.063 7.086 5.45 6.09-8.004-1.703-4.067 7.058-.851-8.113Zm2.707-25.742 8.183-.004 2.52-7.758 2.508 7.75 8.183-.004-6.593 4.824 2.5 7.778-6.618-4.813-6.585 4.793 2.52-7.758Zm12.941-22.418 7.477 3.324 5.457-6.063-.86 8.102 7.477 3.324-7.984 1.727-.88 8.12-4.09-7.089-7.964 1.703 5.457-6.062Zm20.942-15.215 5.476 6.078 7.453-3.316-4.078 7.046 5.477 6.082-7.996-1.675-4.11 7.062-.851-8.137-7.969-1.687 7.45-3.316Zm0 0"/>
</svg>
