<svg xmlns="http://www.w3.org/2000/svg" viewBox="0 0 512 512" height="1em" width="1em">
  <path fill="var(--ci-primary-color, currentColor)" d="m397.222 139.1-.218-.223c-61.693-61.692-154.082-74.423-228.455-38.211l24.213 24.213c60.468-24.573 132.5-12.4 181.509 36.52L464 254.683v3.107l-67.821 70.51 22.63 22.63L496 270.683V241.79Z" class="ci-primary"/>
  <path fill="var(--ci-primary-color, currentColor)" d="M358.99 290.323A103.984 103.984 0 0 0 221.677 153.01l25.09 25.09a71.974 71.974 0 0 1 87.133 87.133ZM16 16v21.94l99.977 99.978c-.326.321-.656.636-.981.96L16 241.79v28.893l98.778 102.689.218.222a199.715 199.715 0 0 0 257.5 20.84L474.06 496H496v-23.313L39.313 16Zm65.982 203.355 17.036-17.71L293.14 395.767a168.457 168.457 0 0 1-30.727 4.018ZM48 257.79v-3.107l11.794-12.261 151.439 151.439a166.38 166.38 0 0 1-73.5-42.788Zm278.879 126.462L121.206 178.578l16.523-17.178c.29-.289.586-.567.877-.854l210.9 210.9a166.053 166.053 0 0 1-22.627 12.806Z" class="ci-primary"/>
</svg>
