<svg xmlns="http://www.w3.org/2000/svg" viewBox="0 0 512 512" height="1em" width="1em">
  <path fill="var(--ci-primary-color, currentColor)" d="M440 40H72a32.036 32.036 0 0 0-32 32v368a32.036 32.036 0 0 0 32 32h368a32.036 32.036 0 0 0 32-32V72a32.036 32.036 0 0 0-32-32Zm0 400H72V72h368Z" class="ci-primary"/>
  <path fill="var(--ci-primary-color, currentColor)" d="m120.614 261.739.031 2.261.317 22.978 21.874 7.041 60.183 19.373 18.781 59.642 7.051 22.387h54.3l7.051-22.387 18.782-59.642 60.183-19.373 21.874-7.041.314-22.978.031-2.261.071-5.092.322-23.282-22.053-7.465-56.47-19.127-23.3-68.995-7.348-21.763h-53.22l-7.348 21.763-23.3 69-56.466 19.122-22.053 7.469.322 23.282ZM224 232l28.359-83.989h7.282L288 232l71.46 24.2c-.049 3.519-.053 3.836-.1 7.354L283.428 288l-23.751 75.421h-7.354L228.572 288l-75.93-24.442c-.049-3.518-.053-3.835-.1-7.354Z" class="ci-primary"/>
</svg>
