<svg xmlns="http://www.w3.org/2000/svg" viewBox="0 0 512 512" height="1em" width="1em">
  <path fill="var(--ci-primary-color, currentColor)" d="M472 80H40a24.028 24.028 0 0 0-24 24v240a24.028 24.028 0 0 0 24 24h432a24.028 24.028 0 0 0 24-24V104a24.028 24.028 0 0 0-24-24Zm-8 256H48V112h416Z" class="ci-primary"/>
  <path fill="var(--ci-primary-color, currentColor)" class="ci-primary" d="M144 272h160v32H144zm-64 0h32v32H80zm320 0h32v32h-32zm-64 0h32v32h-32zm32-64h32v32h-32zm-64 0h32v32h-32zm-64 0h32v32h-32zm-64 0h32v32h-32zm-64 0h32v32h-32zm224-64h32v32h-32zm64 0h32v32h-32zm-128 0h32v32h-32zm-64 0h32v32h-32zm-64 0h32v32h-32zm-64 0h32v32H80z"/>
</svg>
