<svg xmlns="http://www.w3.org/2000/svg" viewBox="0 0 512 512" height="1em" width="1em">
  <path fill="var(--ci-primary-color, currentColor)" d="m29.663 482.25.087.087a24.847 24.847 0 0 0 17.612 7.342 25.178 25.178 0 0 0 8.1-1.345l142.006-48.172 272.5-272.5A88.832 88.832 0 0 0 344.334 42.039l-272.5 272.5-48.168 142.002a24.844 24.844 0 0 0 5.997 25.709Zm337.3-417.584a56.832 56.832 0 0 1 80.371 80.373L411.5 180.873 331.127 100.5ZM99.744 331.884 308.5 123.127l80.373 80.373-208.757 208.756-121.634 41.262Z" class="ci-primary"/>
</svg>
