<svg xmlns="http://www.w3.org/2000/svg" viewBox="0 0 512 512" height="1em" width="1em">
  <path fill="var(--ci-primary-color, currentColor)" class="ci-primary" d="M272 434.744V209.176h-32v225.568l-51.882-51.882-22.628 22.627L256 496l90.51-90.511-22.628-22.627L272 434.744z"/>
  <path fill="var(--ci-primary-color, currentColor)" d="M400 161.176c0-79.4-64.6-144-144-144s-144 64.6-144 144a96 96 0 0 0 0 192h80v-32h-80a64 64 0 0 1 0-128h32v-32a112 112 0 0 1 224 0v32h32a64 64 0 0 1 0 128h-80v32h80a96 96 0 0 0 0-192Z" class="ci-primary"/>
</svg>
