<svg xmlns="http://www.w3.org/2000/svg" viewBox="0 0 512 512" height="1em" width="1em">
  <path fill="var(--ci-primary-color, currentColor)" d="M252.592 496h6.816a108.122 108.122 0 0 0 108-108v-55.692a177.481 177.481 0 0 0 66.37-138.531C433.778 95.751 354.027 16 256 16S78.222 95.751 78.222 193.777a177.477 177.477 0 0 0 66.371 138.531V388a108.121 108.121 0 0 0 107.999 108Zm6.816-32h-6.816a76.106 76.106 0 0 1-70.631-48H330.04a76.107 76.107 0 0 1-70.632 48Zm76-80H176.593v-40h158.815ZM110.222 193.777C110.222 113.4 175.618 48 256 48s145.778 65.4 145.778 145.777a146.392 146.392 0 0 1-59.817 117.737l-.661.486H170.7l-.665-.486a146.394 146.394 0 0 1-59.813-117.737Z" class="ci-primary"/>
</svg>
