<svg xmlns="http://www.w3.org/2000/svg" viewBox="0 0 512 512" height="1em" width="1em">
  <path fill="var(--ci-primary-color, currentColor)" d="M472 16H160a24.027 24.027 0 0 0-24 24v312a24.027 24.027 0 0 0 24 24h312a24.027 24.027 0 0 0 24-24V40a24.027 24.027 0 0 0-24-24Zm-8 328H168V48h296Z" class="ci-primary"/>
  <path fill="var(--ci-primary-color, currentColor)" d="M344 464H48V168h56v-32H40a24.027 24.027 0 0 0-24 24v312a24.027 24.027 0 0 0 24 24h312a24.027 24.027 0 0 0 24-24v-64h-32Z" class="ci-primary"/>
</svg>
