<svg xmlns="http://www.w3.org/2000/svg" viewBox="0 0 512 512" height="1em" width="1em">
  <path fill="var(--ci-primary-color, currentColor)" d="M472 96H40a24.028 24.028 0 0 0-24 24v80h32v-72h416v256H48v-72H16v80a24.028 24.028 0 0 0 24 24h432a24.028 24.028 0 0 0 24-24V120a24.028 24.028 0 0 0-24-24Z" class="ci-primary"/>
  <path fill="var(--ci-primary-color, currentColor)" class="ci-primary" d="m212.687 323.078 22.626 22.627 90.511-90.509-90.511-90.51-22.626 22.628 51.881 51.882H16v31.999h248.569l-51.882 51.883z"/>
</svg>
