<svg xmlns="http://www.w3.org/2000/svg" viewBox="0 0 512 512" height="1em" width="1em">
  <path fill="var(--ci-primary-color, currentColor)" d="M256.25 16A240 240 0 0 0 88 84.977V16H56v128h128v-32h-77.713A208 208 0 0 1 256.25 48C370.8 48 464 141.2 464 255.75S370.8 463.5 256.25 463.5 48.5 370.3 48.5 255.75h-32a239.75 239.75 0 0 0 409.279 169.529A239.75 239.75 0 0 0 256.25 16Z" class="ci-primary"/>
  <path fill="var(--ci-primary-color, currentColor)" class="ci-primary" d="M240 111.951 239.465 288H368v-32h-96.437L272 112.049l-32-.098z"/>
</svg>
