<svg xmlns="http://www.w3.org/2000/svg" viewBox="0 0 512 512" height="1em" width="1em">
  <path fill="var(--ci-primary-color, currentColor)" d="M448 216h-48v-32c0-79.4-64.6-144-144-144s-144 64.6-144 144v32H64a48.055 48.055 0 0 0-48 48v128a48.055 48.055 0 0 0 48 48h48a32.036 32.036 0 0 0 32-32V184a112 112 0 0 1 224 0v224a32.036 32.036 0 0 0 32 32h48a48.055 48.055 0 0 0 48-48V264a48.055 48.055 0 0 0-48-48ZM112 408H64a16.019 16.019 0 0 1-16-16V264a16.019 16.019 0 0 1 16-16h48v56h.008l.012 104Zm352-16a16.019 16.019 0 0 1-16 16h-48V248h48a16.019 16.019 0 0 1 16 16Z" class="ci-primary"/>
</svg>
