<svg viewBox="0 0 15 15" fill="none" xmlns="http://www.w3.org/2000/svg" height="1em" width="1em">
  <path d="m9.007 4.4.034-.498-.034.498ZM2.955 8.139l-.461-.194.46.194ZM7.5 14c-1.627 0-3.1-.958-3.762-2.444l-.913.406A5.116 5.116 0 0 0 7.5 15v-1Zm3.761-2.444A4.116 4.116 0 0 1 7.5 14v1a5.116 5.116 0 0 0 4.675-3.038l-.914-.406ZM2 15V6H1v9h1ZM7.5 1A5.5 5.5 0 0 1 13 6.5h1A6.5 6.5 0 0 0 7.5 0v1ZM2 6.5A5.5 5.5 0 0 1 7.5 1V0A6.5 6.5 0 0 0 1 6.5h1Zm11 0V15h1V6.5h-1ZM8.974 4.9l1.493.099.066-.998-1.492-.1-.067.998ZM11 4.5V3h-1v1.5h1ZM3.416 8.331A5.624 5.624 0 0 1 8.974 4.9l.067-.997a6.624 6.624 0 0 0-6.547 4.042l.922.387Zm6.73-3.477c.47.47 1.33 1.49 1.69 3.342l.98-.19c-.406-2.1-1.394-3.291-1.962-3.86l-.708.708ZM6.5 13H8v-1H6.5v1ZM8 13a2 2 0 0 0 2-2H9a1 1 0 0 1-1 1v1Zm4.5-4h-2v1h2V9Zm-4-1H12V7H8.5v1Zm-5 0h3V7h-3v1Zm3 0h2V7h-2v1Zm-2 1h-2v1h2V9ZM6 7.5A1.5 1.5 0 0 1 4.5 9v1A2.5 2.5 0 0 0 7 7.5H6ZM10.5 9A1.5 1.5 0 0 1 9 7.5H8a2.5 2.5 0 0 0 2.5 2.5V9Zm-6.762 2.556c-.495-1.116-.73-2.255-.322-3.225l-.922-.387c-.57 1.36-.2 2.826.33 4.018l.914-.406Zm8.437.406c.53-1.19.91-2.574.642-3.957l-.982.19c.212 1.09-.08 2.25-.574 3.36l.914.407Z" fill="#000"/>
</svg>
