<svg viewBox="0 0 15 15" fill="none" xmlns="http://www.w3.org/2000/svg" height="1em" width="1em">
  <path d="M14.5 6.497h.5v-.139l-.071-.119-.429.258Zm-14 0-.429-.258L0 6.36v.138h.5Zm2.126-3.541-.429-.258.429.258Zm9.748 0 .429-.258-.429.258ZM3.5 11.5V11H3v.5h.5Zm8 0h.5V11h-.5v.5ZM14 6.497V12.5h1V6.497h-1ZM.929 6.754l2.126-3.54-.858-.516L.071 6.24l.858.515ZM5.198 2h4.604V1H5.198v1Zm6.747 1.213 2.126 3.541.858-.515-2.126-3.54-.858.514ZM2.5 13h-1v1h1v-1Zm.5-1.5v1h1v-1H3ZM13.5 13h-1v1h1v-1Zm-1.5-.5v-1h-1v1h1Zm-.5-1.5h-8v1h8v-1ZM1 12.5V6.497H0V12.5h1Zm11.5.5a.5.5 0 0 1-.5-.5h-1a1.5 1.5 0 0 0 1.5 1.5v-1Zm-10 1A1.5 1.5 0 0 0 4 12.5H3a.5.5 0 0 1-.5.5v1Zm-1-1a.5.5 0 0 1-.5-.5H0A1.5 1.5 0 0 0 1.5 14v-1ZM9.802 2a2.5 2.5 0 0 1 2.143 1.213l.858-.515A3.5 3.5 0 0 0 9.802 1v1ZM3.055 3.213A2.5 2.5 0 0 1 5.198 2V1a3.5 3.5 0 0 0-3 1.698l.857.515ZM14 12.5a.5.5 0 0 1-.5.5v1a1.5 1.5 0 0 0 1.5-1.5h-1ZM2 10h3V9H2v1Zm11-1h-3v1h3V9ZM3 7h9V6H3v1Z" fill="#000"/>
</svg>
