<svg viewBox="0 0 15 15" fill="none" xmlns="http://www.w3.org/2000/svg" height="1em" width="1em">
  <path d="m10.312 9.39.39-.312-.624-.78-.39.312.624.78ZM7.5 11l-.312.39.312.25.312-.25L7.5 11ZM5.312 8.61l-.39-.313-.625.781.39.312.625-.78Zm-.624-3-.39.312.624.78.39-.312-.624-.78ZM7.5 4l.312-.39-.312-.25-.312.25L7.5 4Zm2.188 2.39.39.313.625-.781-.39-.312-.625.78Zm0 2.22-2.5 2 .624.78 2.5-2-.624-.78Zm-1.876 2-2.5-2-.624.78 2.5 2 .624-.78Zm-2.5-4.22 2.5-2-.624-.78-2.5 2 .624.78Zm1.876-2 2.5 2 .624-.78-2.5-2-.624.78ZM7.5 14A6.5 6.5 0 0 1 1 7.5H0A7.5 7.5 0 0 0 7.5 15v-1ZM14 7.5A6.5 6.5 0 0 1 7.5 14v1A7.5 7.5 0 0 0 15 7.5h-1ZM7.5 1A6.5 6.5 0 0 1 14 7.5h1A7.5 7.5 0 0 0 7.5 0v1Zm0-1A7.5 7.5 0 0 0 0 7.5h1A6.5 6.5 0 0 1 7.5 1V0Z" fill="#000"/>
</svg>
