<svg viewBox="0 0 15 15" fill="none" xmlns="http://www.w3.org/2000/svg" height="1em" width="1em">
  <path d="m1.5 8.5-.395-.307a.5.5 0 0 0 .041.66L1.5 8.5Zm5-7-.354.354L6.5 1.5Zm2 2 .354.354.353-.354-.353-.354L8.5 3.5Zm-2 2-.354.354.354.353.354-.353L6.5 5.5Zm-2-2-.354.354L4.5 3.5Zm3.136.864.354.353-.354-.353Zm-.272.272-.354-.353.354.353Zm.272 5.728-.353-.354.353.354Zm5.728-5.728-.354-.353.354.353Zm0-.272-.354.353.354-.353Zm-6 6 .353-.354-.353.354ZM2 15h11v-1H2v1Zm5.854-.854-6-6-.708.708 6 6 .708-.707Zm-5.96-5.339 3.5-4.5-.789-.614-3.5 4.5.79.614Zm4.252-6.953 2 2 .708-.708-2-2-.708.708Zm2 1.292-2 2 .708.708 2-2-.708-.708Zm-1.292 2-2-2-.708.708 2 2 .708-.708Zm-2-3.292a.914.914 0 0 1 1.292 0l.708-.708a1.914 1.914 0 0 0-2.708 0l.708.708Zm-.708-.708a1.914 1.914 0 0 0 0 2.708l.708-.708a.914.914 0 0 1 0-1.292l-.708-.708ZM7.283 4.01l-.273.273.707.707.273-.273-.707-.707Zm.707 6.707 5.727-5.727-.707-.707-5.727 5.727.707.707Zm5.727-5.727c.27-.27.27-.71 0-.98l-.707.707a.307.307 0 0 1 0-.434l.707.707ZM7.01 10.717c.27.27.71.27.98 0l-.707-.707c.12-.12.314-.12.434 0l-.707.707Zm0-6.434a4.55 4.55 0 0 0 0 6.434l.707-.707a3.55 3.55 0 0 1 0-5.02l-.707-.707Zm.98.434a3.55 3.55 0 0 1 5.02 0l.707-.707a4.55 4.55 0 0 0-6.434 0l.707.707Z" fill="#000"/>
</svg>
