<svg viewBox="0 0 15 15" fill="none" xmlns="http://www.w3.org/2000/svg" height="1em" width="1em">
  <path d="M4.875 3.79C2.512 3.79.526 5.402.5 7.4a7 7 0 0 1 7-6.9c2.72 0 5.22 1.304 6.38 3.57.182.361.634 1.176.62 2.401a3.357 3.357 0 0 1-1.664 2.892 3.26 3.26 0 0 1-1.656.457c-.003 0-1.486.072-2.272-.475-.165-.115-.258-.252-.258-.395 0-.173.136-.252.18-.31.277-.36.427-.795.427-1.088 0-.294-.06-1.031-.399-1.615M4.875 3.79c.191 0 1.283.019 2.296.55.894.47 1.362 1.037 1.687 1.598M4.875 3.79C2.69 3.79.827 5.17.538 6.958a3.228 3.228 0 0 0-.032.451 7 7 0 0 0 9.214 6.732c-.57.18-1.172.234-1.765.159m.903-8.363c.292.503.377 1.12.395 1.47a1.769 1.769 0 0 0-1.75-1.652c-.373-.008-.657.127-.83.208l-.02.01a4.414 4.414 0 0 0-1.49 1.194M7.956 14.3a4.131 4.131 0 0 1-1.668-.596l-.005-.002c-.488-.303-.91-.7-1.244-1.167a4.414 4.414 0 0 1 .126-5.368m2.79 7.133a4.13 4.13 0 0 0 1.275-.037c.179-.038.347-.08.483-.124l.072-.024a7.018 7.018 0 0 0 3.642-2.887.219.219 0 0 0-.291-.309 5.13 5.13 0 0 1-.577.258 5.571 5.571 0 0 1-1.963.353c-2.587 0-4.841-1.78-4.841-4.064a1.721 1.721 0 0 1 .895-1.492 4.414 4.414 0 0 0-1.486 1.193m4.091.3v.018m0 0Z" stroke="#000"/>
</svg>
