<svg viewBox="0 0 15 15" fill="none" xmlns="http://www.w3.org/2000/svg" height="1em" width="1em">
  <path fill-rule="evenodd" clip-rule="evenodd" d="M3.719 2.42A2.5 2.5 0 0 1 5.106 2h4.789a2.5 2.5 0 0 1 1.386.42l.87.58a2.5 2.5 0 0 1 2.48 2.322l.32 4.476a1.5 1.5 0 0 1-.825 1.448l-2.09 1.045a3.68 3.68 0 0 1-.753.279 15.62 15.62 0 0 1-7.566 0 3.68 3.68 0 0 1-.753-.279l-2.09-1.045A1.5 1.5 0 0 1 .05 9.798l.32-4.476A2.5 2.5 0 0 1 2.849 3l.87-.58ZM3 8V7H2V6h1V5h1v1h1v1H4v1H3Zm10-1h-1V6h1v1Zm-2 2h1V8h-1v1Z" fill="#000"/>
</svg>
