<svg viewBox="0 0 15 15" fill="none" xmlns="http://www.w3.org/2000/svg" height="1em" width="1em">
  <path d="m6.793 1.207.353.354-.353-.354ZM1.207 6.793l-.353-.354.353.354Zm0 1.414.354-.353-.354.353Zm5.586 5.586-.354.353.354-.353Zm1.414 0-.353-.354.353.354Zm5.586-5.586.353.354-.353-.354Zm0-1.414-.354.353.354-.353ZM8.207 1.207l.354-.353-.354.353ZM6.44.854.854 6.439l.707.707 5.585-5.585L6.44.854ZM.854 8.56l5.585 5.585.707-.707-5.585-5.585-.707.707Zm7.707 5.585 5.585-5.585-.707-.707-5.585 5.585.707.707Zm5.585-7.707L8.561.854l-.707.707 5.585 5.585.707-.707Zm0 2.122a1.5 1.5 0 0 0 0-2.122l-.707.707a.5.5 0 0 1 0 .708l.707.707ZM6.44 14.146a1.5 1.5 0 0 0 2.122 0l-.707-.707a.5.5 0 0 1-.708 0l-.707.707ZM.854 6.44a1.5 1.5 0 0 0 0 2.122l.707-.707a.5.5 0 0 1 0-.708L.854 6.44Zm6.292-4.878a.5.5 0 0 1 .708 0L8.56.854a1.5 1.5 0 0 0-2.122 0l.707.707Zm-2 1.293 1 1 .708-.708-1-1-.708.708ZM7.5 5a.5.5 0 0 1-.5-.5H6A1.5 1.5 0 0 0 7.5 6V5Zm.5-.5a.5.5 0 0 1-.5.5v1A1.5 1.5 0 0 0 9 4.5H8ZM7.5 4a.5.5 0 0 1 .5.5h1A1.5 1.5 0 0 0 7.5 3v1Zm0-1A1.5 1.5 0 0 0 6 4.5h1a.5.5 0 0 1 .5-.5V3Zm.646 2.854 1.5 1.5.707-.708-1.5-1.5-.707.708ZM10.5 8a.5.5 0 0 1-.5-.5H9A1.5 1.5 0 0 0 10.5 9V8Zm.5-.5a.5.5 0 0 1-.5.5v1A1.5 1.5 0 0 0 12 7.5h-1Zm-.5-.5a.5.5 0 0 1 .5.5h1A1.5 1.5 0 0 0 10.5 6v1Zm0-1A1.5 1.5 0 0 0 9 7.5h1a.5.5 0 0 1 .5-.5V6ZM7 5.5v4h1v-4H7Zm.5 5.5a.5.5 0 0 1-.5-.5H6A1.5 1.5 0 0 0 7.5 12v-1Zm.5-.5a.5.5 0 0 1-.5.5v1A1.5 1.5 0 0 0 9 10.5H8Zm-.5-.5a.5.5 0 0 1 .5.5h1A1.5 1.5 0 0 0 7.5 9v1Zm0-1A1.5 1.5 0 0 0 6 10.5h1a.5.5 0 0 1 .5-.5V9Z" fill="#000"/>
</svg>
