<svg viewBox="0 0 15 15" fill="none" xmlns="http://www.w3.org/2000/svg" height="1em" width="1em">
  <path d="M4.5 6.995H4v1h.5v-1Zm6 1h.5v-1h-.5v1ZM4.5 9.5H4v.5h.5v-.5Zm6 0v.5h.5v-.5h-.5Zm-6-4V5H4v.5h.5Zm6 0h.5V5h-.5v.5Zm3-2h.5v-.207l-.146-.147-.354.354Zm-3-3 .354-.354L10.707 0H10.5v.5Zm-6 7.495h6v-1h-6v1ZM4.5 10h6V9h-6v1Zm0-4h6V5h-6v1Zm8 8h-10v1h10v-1ZM2 13.5v-12H1v12h1Zm11-10v10h1v-10h-1ZM2.5 1h8V0h-8v1Zm7.646-.146 3 3 .708-.708-3-3-.708.708ZM2.5 14a.5.5 0 0 1-.5-.5H1A1.5 1.5 0 0 0 2.5 15v-1Zm10 1a1.5 1.5 0 0 0 1.5-1.5h-1a.5.5 0 0 1-.5.5v1ZM2 1.5a.5.5 0 0 1 .5-.5V0A1.5 1.5 0 0 0 1 1.5h1Zm2 4v4h1v-4H4Zm3 0v4h1v-4H7Zm3 0v4h1v-4h-1ZM4 4h3V3H4v1Zm4 8h3v-1H8v1Z" fill="#000"/>
</svg>
