<svg viewBox="0 0 15 15" fill="none" xmlns="http://www.w3.org/2000/svg" height="1em" width="1em">
  <path d="m2 3.571-.158-.474a.5.5 0 0 0-.327.596L2 3.57Zm2.357-.785.447-.224a.5.5 0 0 0-.605-.25l.158.474Zm4.714 9.428-.447.224a.5.5 0 0 0 .705.205l-.258-.429ZM13 9.857l.257.429a.5.5 0 0 0 .165-.697L13 9.857Zm-2.75-4.321-.121-.485a.5.5 0 0 0-.3.753l.421-.268Zm1.571-.393.4-.3a.5.5 0 0 0-.52-.185l.12.485ZM13 6.714l.158.475a.5.5 0 0 0 .242-.775l-.4.3ZM3.571 9.857l-.485.121a.5.5 0 0 0 .644.354l-.159-.475ZM2.158 4.046l2.357-.786-.316-.949-2.357.786.316.949ZM3.91 3.009l2.918 5.837.895-.447-2.919-5.837-.894.447Zm2.918 5.837 1.796 3.592.895-.447-1.796-3.592-.895.447Zm2.5 3.797 3.93-2.357-.515-.858-3.929 2.358.515.857Zm4.094-3.054-1.65-2.593-.844.537 1.65 2.593.844-.537Zm-1.65-2.593-1.1-1.729-.844.537 1.1 1.729.844-.537Zm-1.4-.975 1.57-.393-.242-.97-1.571.393.242.97Zm1.05-.578L12.6 7.014l.8-.6-1.179-1.571-.8.6Zm1.42.797-1.65.55.316.949 1.65-.55-.316-.949Zm-1.65.55L7.117 8.148l.317.949 4.074-1.358-.316-.949ZM7.117 8.148 3.413 9.383l.317.949 3.704-1.235-.317-.949Zm-3.06 1.588L2.484 3.45l-.97.243 1.571 6.285.97-.242ZM2.5 1h10V0h-10v1ZM14 2.5v10h1v-10h-1ZM12.5 14h-10v1h10v-1ZM1 12.5v-10H0v10h1ZM2.5 14A1.5 1.5 0 0 1 1 12.5H0A2.5 2.5 0 0 0 2.5 15v-1ZM14 12.5a1.5 1.5 0 0 1-1.5 1.5v1a2.5 2.5 0 0 0 2.5-2.5h-1ZM12.5 1A1.5 1.5 0 0 1 14 2.5h1A2.5 2.5 0 0 0 12.5 0v1Zm-10-1A2.5 2.5 0 0 0 0 2.5h1A1.5 1.5 0 0 1 2.5 1V0Z" fill="#000"/>
</svg>
