<svg viewBox="0 0 15 15" fill="none" xmlns="http://www.w3.org/2000/svg" height="1em" width="1em">
  <path d="m8.854 4.854.353-.354-.707-.707-.354.353.708.708ZM5.5 7.5l-.354-.354-.353.354.353.354L5.5 7.5Zm2.646 3.354.354.353.707-.707-.353-.354-.708.708Zm0-6.708-3 3 .708.708 3-3-.708-.708Zm-3 3.708 3 3 .708-.708-3-3-.708.708ZM7.5 14A6.5 6.5 0 0 1 1 7.5H0A7.5 7.5 0 0 0 7.5 15v-1ZM14 7.5A6.5 6.5 0 0 1 7.5 14v1A7.5 7.5 0 0 0 15 7.5h-1ZM7.5 1A6.5 6.5 0 0 1 14 7.5h1A7.5 7.5 0 0 0 7.5 0v1Zm0-1A7.5 7.5 0 0 0 0 7.5h1A6.5 6.5 0 0 1 7.5 1V0Z" fill="#000"/>
</svg>
