<svg viewBox="0 0 15 15" fill="none" xmlns="http://www.w3.org/2000/svg" height="1em" width="1em">
  <path fill-rule="evenodd" clip-rule="evenodd" d="M4.54 2.407A3.013 3.013 0 0 1 7.5 0a3.013 3.013 0 0 1 2.96 2.407l.338 1.672a6.796 6.796 0 0 0 1.022 2.449l.58.863c.363.539.6 1.148.698 1.782a1.54 1.54 0 0 1 1.3.955l.492 1.22a1.52 1.52 0 0 1-.445 1.74l-1.884 1.558a1.55 1.55 0 0 1-1.91.048l-.76-.564a1.256 1.256 0 0 1-.029-.023c-.372.1-.764.154-1.168.154H6.306c-.404 0-.796-.053-1.168-.154l-.03.023-.759.564a1.55 1.55 0 0 1-1.91-.048L.554 13.089a1.52 1.52 0 0 1-.444-1.742l.492-1.219a1.54 1.54 0 0 1 1.3-.955 4.397 4.397 0 0 1 .697-1.782l.58-.863a6.797 6.797 0 0 0 1.023-2.449l.337-1.672Zm6.304 7.069a1.53 1.53 0 0 0-.488.618l-.768 1.777a2.581 2.581 0 0 1-1.303.353h-1.57c-.467 0-.915-.126-1.303-.353l-.768-1.777a1.528 1.528 0 0 0-.489-.618c.026-.322.114-.641.264-.938l1.258-2.495.007.007a2.583 2.583 0 0 0 3.632 0l.007-.007 1.258 2.495c.15.297.238.616.264.938ZM9.041 4.269V3.056H8.014v.801c.218.044.431.117.634.218l.393.194Zm-2.055-.412v-.801H5.96v1.213l.393-.194c.203-.101.417-.174.634-.218Zm-4.953 6.33a.514.514 0 0 0-.477.32l-.492 1.219a.507.507 0 0 0 .148.58l1.884 1.557a.517.517 0 0 0 .637.017l.759-.565a.507.507 0 0 0 .164-.608L3.7 10.495a.514.514 0 0 0-.472-.309H2.033Zm11.411.32a.514.514 0 0 0-.477-.32h-1.195a.514.514 0 0 0-.472.308l-.956 2.212a.507.507 0 0 0 .164.608l.759.565c.19.141.454.134.637-.017l1.884-1.557a.507.507 0 0 0 .148-.58l-.492-1.22ZM6.811 4.986a1.552 1.552 0 0 1 1.378 0l.498.247-.097.097a1.55 1.55 0 0 1-2.18 0l-.097-.097.498-.247Z" fill="#000"/>
</svg>
