<svg viewBox="0 0 15 15" fill="none" xmlns="http://www.w3.org/2000/svg" height="1em" width="1em">
  <path d="M5.5 7h4V6h-4v1Zm4.5.5v3h1v-3h-1ZM9.5 11h-4v1h4v-1ZM5 10.5v-3H4v3h1Zm.5.5a.5.5 0 0 1-.5-.5H4A1.5 1.5 0 0 0 5.5 12v-1Zm4.5-.5a.5.5 0 0 1-.5.5v1a1.5 1.5 0 0 0 1.5-1.5h-1ZM9.5 7a.5.5 0 0 1 .5.5h1A1.5 1.5 0 0 0 9.5 6v1Zm-4-1A1.5 1.5 0 0 0 4 7.5h1a.5.5 0 0 1 .5-.5V6Zm.5.5v-1H5v1h1Zm3-1v1h1v-1H9ZM7.5 4A1.5 1.5 0 0 1 9 5.5h1A2.5 2.5 0 0 0 7.5 3v1ZM6 5.5A1.5 1.5 0 0 1 7.5 4V3A2.5 2.5 0 0 0 5 5.5h1Z" fill="#000"/>
</svg>
