<svg viewBox="0 0 15 15" fill="none" xmlns="http://www.w3.org/2000/svg" height="1em" width="1em">
  <path d="m7.5.5.369-.338a.5.5 0 0 0-.738 0L7.5.5Zm0 13-.393.309a.5.5 0 0 0 .786 0L7.5 13.5ZM4.623 9.838l-.393.31.393-.31Zm.246-6.467L4.5 3.032l.369.337Zm5.262 0 .369-.338-.369.337Zm.246 6.467.393.31-.393-.31ZM8 15V.5H7V15h1Zm-.107-1.809L5.016 9.53l-.786.618 2.877 3.662.786-.618ZM5.237 3.708 7.87.838 7.13.162 4.5 3.032l.736.676ZM7.131.838l2.632 2.87.737-.675L7.869.163 7.13.837Zm2.853 8.691-2.877 3.662.786.618 2.877-3.662-.786-.618Zm-.221-5.82a4.5 4.5 0 0 1 .22 5.82l.787.618a5.5 5.5 0 0 0-.27-7.114l-.737.675Zm-4.747 5.82a4.5 4.5 0 0 1 .221-5.82L4.5 3.032a5.5 5.5 0 0 0-.27 7.114l.786-.618Z" fill="#000"/>
</svg>
