<svg viewBox="0 0 15 15" fill="none" xmlns="http://www.w3.org/2000/svg" height="1em" width="1em">
  <path d="M8.5 14.5H8a.5.5 0 0 0 .5.5v-.5Zm0-12V2a.5.5 0 0 0-.5.5h.5Zm6 9h.5-.5Zm-3 3V14v.5Zm3-9H14h.5Zm-3-3V3v-.5Zm-5-2H7a.5.5 0 0 0-.5-.5v.5Zm0 12v.5a.5.5 0 0 0 .5-.5h-.5Zm-6-9H1 .5Zm3-3V1 .5Zm0 12v.5-.5Zm-3-3H0h.5Zm13.5-4v6h1v-6h-1ZM11.5 14h-3v1h3v-1Zm-2.5.5v-12H8v12h1ZM8.5 3h3V2h-3v1Zm5.5 8.5a2.5 2.5 0 0 1-2.5 2.5v1a3.5 3.5 0 0 0 3.5-3.5h-1Zm1-6A3.5 3.5 0 0 0 11.5 2v1A2.5 2.5 0 0 1 14 5.5h1Zm-9-5v12h1V.5H6ZM6.5 12h-3v1h3v-1ZM1 9.5v-6H0v6h1ZM3.5 1h3V0h-3v1ZM1 3.5A2.5 2.5 0 0 1 3.5 1V0A3.5 3.5 0 0 0 0 3.5h1ZM3.5 12A2.5 2.5 0 0 1 1 9.5H0A3.5 3.5 0 0 0 3.5 13v-1Zm9.5-1.5A1.5 1.5 0 0 0 11.5 9v1a.5.5 0 0 1 .5.5h1ZM11.5 12a1.5 1.5 0 0 0 1.5-1.5h-1a.5.5 0 0 1-.5.5v1ZM10 10.5a1.5 1.5 0 0 0 1.5 1.5v-1a.5.5 0 0 1-.5-.5h-1Zm1 0a.5.5 0 0 1 .5-.5V9a1.5 1.5 0 0 0-1.5 1.5h1ZM3.5 5a.5.5 0 0 1-.5-.5H2A1.5 1.5 0 0 0 3.5 6V5Zm.5-.5a.5.5 0 0 1-.5.5v1A1.5 1.5 0 0 0 5 4.5H4ZM3.5 4a.5.5 0 0 1 .5.5h1A1.5 1.5 0 0 0 3.5 3v1Zm0-1A1.5 1.5 0 0 0 2 4.5h1a.5.5 0 0 1 .5-.5V3Z" fill="#000"/>
</svg>
