<svg viewBox="0 0 15 15" fill="none" xmlns="http://www.w3.org/2000/svg" height="1em" width="1em">
  <path d="m6.086 2.914-.354-.353.354.353ZM1.914 7.086l-.353-.354.353.354Zm0 2.828.354-.353-.354.353Zm3.172 3.172.353-.354-.353.354Zm2.828 0 .354.353-.354-.353Zm4.172-4.172-.354-.353.354.353Zm0-2.828.353-.354-.353.354ZM8.914 2.914l-.353.354.353-.354Zm3.767 7.586.353-.354-.353-.353-.354.353.354.354Zm1.18 1.18-.353.354.354-.353ZM11.639 14l.312-.39-.312.39Zm2.086 0-.312-.39.312.39ZM5.732 2.56 1.561 6.733l.707.707 4.171-4.171-.707-.707Zm-4.171 7.708 3.171 3.171.707-.707-3.171-3.171-.707.707Zm6.707 3.171 4.171-4.171-.707-.707-4.171 4.171.707.707Zm4.171-7.707L9.268 2.561l-.707.707 3.171 3.171.707-.707Zm0 3.536a2.5 2.5 0 0 0 0-3.536l-.707.707a1.5 1.5 0 0 1 0 2.122l.707.707Zm-7.707 4.171a2.5 2.5 0 0 0 3.536 0l-.707-.707a1.5 1.5 0 0 1-2.122 0l-.707.707ZM1.561 6.732a2.5 2.5 0 0 0 0 3.536l.707-.707a1.5 1.5 0 0 1 0-2.122l-.707-.707Zm4.878-3.464a1.5 1.5 0 0 1 2.122 0l.707-.707a2.5 2.5 0 0 0-3.536 0l.707.707ZM7 7V2.5H6V7h1ZM2 2.5v4h1v-4H2ZM4.5 0A2.5 2.5 0 0 0 2 2.5h1A1.5 1.5 0 0 1 4.5 1V0ZM7 2.5A2.5 2.5 0 0 0 4.5 0v1A1.5 1.5 0 0 1 6 2.5h1ZM1.5 10h10V9h-10v1Zm10.827.854 1.181 1.18.707-.707-1.18-1.18-.708.707Zm-.473 1.18 1.18-1.18-.707-.708-1.18 1.181.707.707Zm.096 1.576c-.29-.232-.422-.51-.438-.77-.015-.257.081-.545.342-.806l-.707-.707c-.444.444-.667 1.004-.633 1.575.035.569.324 1.099.811 1.488l.625-.78Zm1.462 0a1.17 1.17 0 0 1-1.462 0l-.625.78a2.17 2.17 0 0 0 2.711 0l-.624-.78Zm.096-1.576c.26.26.357.549.341.807-.016.259-.147.537-.437.769l.624.78c.487-.39.777-.919.811-1.489.035-.57-.188-1.13-.632-1.574l-.707.707Z" fill="#000"/>
</svg>
