<svg viewBox="0 0 15 15" fill="none" xmlns="http://www.w3.org/2000/svg" height="1em" width="1em">
  <path d="M5 8.5a.5.5 0 1 1 1 0 .5.5 0 0 1-1 0Zm4 0a.5.5 0 1 1 1 0 .5.5 0 0 1-1 0Z" fill="#000"/>
  <path fill-rule="evenodd" clip-rule="evenodd" d="M8 2.022A5.5 5.5 0 0 1 13 7.5v6a1.5 1.5 0 0 1-1.5 1.5h-8A1.5 1.5 0 0 1 2 13.5v-6a5.5 5.5 0 0 1 5-5.478V0h1v2.022ZM5.5 7a1.5 1.5 0 1 0 0 3 1.5 1.5 0 0 0 0-3Zm4 0a1.5 1.5 0 1 0 0 3 1.5 1.5 0 0 0 0-3Zm1.5 5H4v-1h7v1Z" fill="#000"/>
  <path d="M0 8v4h1V8H0Zm15 0h-1v4h1V8Z" fill="#000"/>
</svg>
