<svg viewBox="0 0 15 15" fill="none" xmlns="http://www.w3.org/2000/svg" height="1em" width="1em">
  <path d="M1.5.5V0a.5.5 0 0 0-.5.5h.5Zm12 14v.5a.5.5 0 0 0 .455-.707l-.455.207Zm-2.488-5.474-.224-.447a.5.5 0 0 0-.231.654l.455-.207ZM7.36 2.78l.447.224-.447-.224ZM4.765 14.058l-.428-.258.428.258ZM8.772 3.317l.475-.158-.475.158Zm.457 1.371-.474.158.474-.158Zm2.235-.295-.474.158.474-.158Zm-2.487-2.61.417.278-.417-.277Zm1.362 3.885.098-.49-.098.49ZM1 .5v12h1V.5H1ZM3.5 15h10v-1h-10v1Zm10.455-.707L11.467 8.82l-.91.414 2.488 5.474.91-.414ZM1.5 1H9V0H1.5v1ZM13 5a4 4 0 0 1-2.212 3.58l.448.893A5 5 0 0 0 14 5h-1ZM9 1a4 4 0 0 1 4 4h1a5 5 0 0 0-5-5v1ZM1 12.5A2.5 2.5 0 0 0 3.5 15v-1A1.5 1.5 0 0 1 2 12.5H1Zm1.447 1.224 5.36-10.72-.894-.447-5.36 10.72.894.447Zm5.36-10.72a2.838 2.838 0 0 1 2.624-1.568l.03-1a3.838 3.838 0 0 0-3.548 2.12l.894.448ZM4.929 14.757l.265-.442-.857-.515-.266.443.858.514Zm.265-.442a58.922 58.922 0 0 1 6.182-8.486l-.752-.658a59.924 59.924 0 0 0-6.287 8.63l.857.514Zm3.104-10.84.457 1.371.949-.316-.457-1.371-.95.316Zm3.64.76-.464-1.393-.948.316.464 1.393.949-.316ZM10.443.5a2.26 2.26 0 0 0-1.88 1.006l.832.555a1.26 1.26 0 0 1 1.048-.561v-1Zm-.201 5.658a1.483 1.483 0 0 0 1.698-1.923l-.949.316c.117.352-.19.7-.553.627l-.196.98ZM8.755 4.846a1.974 1.974 0 0 0 1.486 1.312l.196-.98a.974.974 0 0 1-.733-.648l-.949.316Zm.492-1.687a1.26 1.26 0 0 1 .147-1.098l-.833-.555a2.26 2.26 0 0 0-.263 1.969l.949-.316Zm1.184-1.723a.438.438 0 0 1-.25-.09.475.475 0 0 1-.186-.41c.026-.385.382-.436.447-.436v1c.132 0 .523-.082.551-.497a.525.525 0 0 0-.207-.454.562.562 0 0 0-.325-.112l-.03 1Z" fill="#000"/>
</svg>
