<svg viewBox="0 0 15 15" fill="none" xmlns="http://www.w3.org/2000/svg" height="1em" width="1em">
  <path d="m3.5 11.5-.429-.257a.5.5 0 0 0 .686.686L3.5 11.5Zm3-5-.257-.429-.107.065-.065.107.429.257Zm5-3 .429.257a.5.5 0 0 0-.686-.686l.257.429Zm-3 5 .257.429.107-.065.065-.107L8.5 8.5Zm5.5-1A6.5 6.5 0 0 1 7.5 14v1A7.5 7.5 0 0 0 15 7.5h-1ZM7.5 14A6.5 6.5 0 0 1 1 7.5H0A7.5 7.5 0 0 0 7.5 15v-1ZM1 7.5A6.5 6.5 0 0 1 7.5 1V0A7.5 7.5 0 0 0 0 7.5h1ZM7.5 1A6.5 6.5 0 0 1 14 7.5h1A7.5 7.5 0 0 0 7.5 0v1ZM3.929 11.757l3-5-.858-.514-3 5 .858.514ZM6.757 6.93l5-3-.514-.858-5 3 .514.858Zm4.314-3.686-3 5 .858.514 3-5-.858-.514ZM8.243 8.07l-5 3 .514.858 5-3-.514-.858Z" fill="#000"/>
</svg>
