<svg viewBox="0 0 15 15" fill="none" xmlns="http://www.w3.org/2000/svg" height="1em" width="1em">
  <path d="m13.83 8.34-.496-.066a.5.5 0 0 0 .08.346l.415-.28ZM6.66 1.17l-.28.415a.5.5 0 0 0 .344.081l-.065-.496ZM1.17 6.66l.496.065a.5.5 0 0 0-.08-.345l-.416.28Zm7.17 7.17.279-.415a.5.5 0 0 0-.345-.08l.066.495Zm5.985-5.423c.039-.29.066-.593.066-.907h-1c0 .257-.022.513-.057.774l.99.133Zm.066-.907A6.892 6.892 0 0 0 7.5.609v1A5.892 5.892 0 0 1 13.391 7.5h1ZM7.5.609a7.07 7.07 0 0 0-.905.065l.129.992c.264-.034.52-.057.776-.057v-1Zm-.562.146A4.437 4.437 0 0 0 4.457 0v1c.712 0 1.374.216 1.923.585l.558-.83ZM4.457 0A4.456 4.456 0 0 0 0 4.457h1A3.456 3.456 0 0 1 4.457 1V0ZM0 4.457c0 .918.279 1.772.755 2.481l.83-.558A3.436 3.436 0 0 1 1 4.457H0Zm.675 2.137a6.88 6.88 0 0 0-.066.906h1c0-.257.022-.513.057-.775l-.991-.131ZM.609 7.5A6.891 6.891 0 0 0 7.5 14.391v-1A5.891 5.891 0 0 1 1.609 7.5h-1ZM7.5 14.391c.314 0 .616-.027.906-.066l-.132-.99a5.888 5.888 0 0 1-.774.056v1Zm.561-.146c.71.477 1.564.755 2.482.755v-1a3.439 3.439 0 0 1-1.924-.585l-.558.83Zm2.482.755A4.457 4.457 0 0 0 15 10.543h-1A3.457 3.457 0 0 1 10.543 14v1ZM15 10.543c0-.918-.28-1.772-.756-2.481l-.83.558c.37.55.586 1.21.586 1.924h1ZM7 8h1V7H7v1Zm2.947-2.724A2.309 2.309 0 0 0 7.882 4v1c.496 0 .949.28 1.17.724l.895-.448ZM9 9a1 1 0 0 1-1 1v1a2 2 0 0 0 2-2H9ZM8 8a1 1 0 0 1 1 1h1a2 2 0 0 0-2-2v1Zm-.882 2c-.496 0-.95-.28-1.17-.724l-.895.448A2.309 2.309 0 0 0 7.118 11v-1ZM5 6a2 2 0 0 0 2 2V7a1 1 0 0 1-1-1H5Zm1 0a1 1 0 0 1 1-1V4a2 2 0 0 0-2 2h1Zm2 4h-.882v1H8v-1Zm-.118-6H7v1h.882V4Z" fill="#000"/>
</svg>
