<svg viewBox="0 0 15 15" fill="none" xmlns="http://www.w3.org/2000/svg" height="1em" width="1em">
  <path d="m3.5 10.494.257-.429-.119-.07H3.5v.5Zm0-5.996v.5h.138l.12-.071-.258-.429Zm5-2.998H9a.5.5 0 0 0-.757-.429L8.5 1.5Zm0 11.992-.257.429A.5.5 0 0 0 9 13.492h-.5Zm5.353-9.348-.353-.353-.707.707.354.354.706-.708Zm-.706 5.996-.354.354.707.707.353-.353-.706-.708ZM3.5 9.994h-2v1h2v-1Zm-2 0a.5.5 0 0 1-.5-.5H0c0 .83.672 1.5 1.5 1.5v-1Zm-.5-.5V5.498H0v3.998h1Zm0-3.997a.5.5 0 0 1 .5-.499v-1a1.5 1.5 0 0 0-1.5 1.5h1Zm.5-.499h2v-1h-2v1Zm2.257-.071 5-2.998-.514-.858-5 2.998.514.858ZM8 1.5v11.992h1V1.5H8Zm.757 11.563-5-2.998-.514.858 5 2.998.514-.858ZM13.5 4.498c-.353.354-.354.354-.354.353a.01.01 0 0 1-.002-.002l.003.003.02.022a3.186 3.186 0 0 1 .386.597c.22.439.447 1.112.447 2.025h1c0-1.086-.272-1.911-.553-2.472a4.198 4.198 0 0 0-.39-.639 2.932 2.932 0 0 0-.181-.217l-.014-.015-.005-.005-.002-.002-.001-.001-.354.353Zm.5 2.998c0 .913-.228 1.586-.447 2.025a3.184 3.184 0 0 1-.386.597.83.83 0 0 1-.02.022l-.003.003.001-.001.001-.001.354.353c.353.354.354.354.354.353h.001l.002-.003.005-.005.014-.014.043-.048c.035-.04.082-.097.137-.17.11-.146.251-.36.391-.639.28-.56.553-1.386.553-2.472h-1Z" fill="#000"/>
</svg>
