<svg viewBox="0 0 15 15" fill="none" xmlns="http://www.w3.org/2000/svg" height="1em" width="1em">
  <path d="m.5 7.5-.354-.354a.5.5 0 0 0 0 .708L.5 7.5Zm7 7-.354.354a.5.5 0 0 0 .708 0L7.5 14.5Zm7-7 .354.354A.5.5 0 0 0 15 7.5h-.5Zm-7-7V0a.5.5 0 0 0-.354.146L7.5.5ZM.146 7.854l7 7 .708-.708-7-7-.708.708Zm7.708 7 7-7-.708-.708-7 7 .708.708ZM15 7.5v-6h-1v6h1ZM13.5 0h-6v1h6V0ZM7.146.146l-7 7 .708.708 7-7-.708-.708ZM15 1.5A1.5 1.5 0 0 0 13.5 0v1a.5.5 0 0 1 .5.5h1ZM10.5 5a.5.5 0 0 1-.5-.5H9A1.5 1.5 0 0 0 10.5 6V5Zm.5-.5a.5.5 0 0 1-.5.5v1A1.5 1.5 0 0 0 12 4.5h-1Zm-.5-.5a.5.5 0 0 1 .5.5h1A1.5 1.5 0 0 0 10.5 3v1Zm0-1A1.5 1.5 0 0 0 9 4.5h1a.5.5 0 0 1 .5-.5V3Z" fill="#000"/>
</svg>
