<svg viewBox="0 0 15 15" fill="none" xmlns="http://www.w3.org/2000/svg" height="1em" width="1em">
  <path d="M10.5 14.49v.5h.5v-.5h-.5Zm-10 0H0v.5h.5v-.5Zm7-4.996v.5-.5Zm-4 0v-.5.5ZM8 3.498a2.499 2.499 0 0 1-2.5 2.498v1C7.433 6.996 9 5.43 9 3.498H8ZM5.5 5.996A2.499 2.499 0 0 1 3 3.498H2a3.499 3.499 0 0 0 3.5 3.498v-1ZM3 3.498A2.499 2.499 0 0 1 5.5 1V0A3.499 3.499 0 0 0 2 3.498h1ZM5.5 1A2.5 2.5 0 0 1 8 3.498h1A3.499 3.499 0 0 0 5.5 0v1Zm5 12.99H.5v1h10v-1Zm-9.5.5v-1.995H0v1.995h1Zm2.5-4.496h4v-1h-4v1Zm6.5 2.5v1.996h1v-1.996h-1Zm-2.5-2.5a2.5 2.5 0 0 1 2.5 2.5h1a3.5 3.5 0 0 0-3.5-3.5v1Zm-6.5 2.5a2.5 2.5 0 0 1 2.5-2.5v-1a3.5 3.5 0 0 0-3.5 3.5h1ZM12 5v5h1V5h-1Zm-2 3h5V7h-5v1Z" fill="#000"/>
</svg>
