<svg viewBox="0 0 15 15" fill="none" xmlns="http://www.w3.org/2000/svg" height="1em" width="1em">
  <path d="M3 14.5v.5h1v-.5H3Zm8 0v.5h1v-.5h-1Zm-7 0v-2H3v2h1ZM6.5 10h2V9h-2v1Zm4.5 2.5v2h1v-2h-1ZM8.5 10a2.5 2.5 0 0 1 2.5 2.5h1A3.5 3.5 0 0 0 8.5 9v1ZM4 12.5A2.5 2.5 0 0 1 6.5 10V9A3.5 3.5 0 0 0 3 12.5h1ZM7.5 3A2.5 2.5 0 0 0 5 5.5h1A1.5 1.5 0 0 1 7.5 4V3ZM10 5.5A2.5 2.5 0 0 0 7.5 3v1A1.5 1.5 0 0 1 9 5.5h1ZM7.5 8A2.5 2.5 0 0 0 10 5.5H9A1.5 1.5 0 0 1 7.5 7v1Zm0-1A1.5 1.5 0 0 1 6 5.5H5A2.5 2.5 0 0 0 7.5 8V7Zm-6-6h12V0h-12v1Zm12.5.5v12h1v-12h-1ZM13.5 14h-12v1h12v-1ZM1 13.5v-12H0v12h1Zm.5.5a.5.5 0 0 1-.5-.5H0A1.5 1.5 0 0 0 1.5 15v-1Zm12.5-.5a.5.5 0 0 1-.5.5v1a1.5 1.5 0 0 0 1.5-1.5h-1ZM13.5 1a.5.5 0 0 1 .5.5h1A1.5 1.5 0 0 0 13.5 0v1Zm-12-1A1.5 1.5 0 0 0 0 1.5h1a.5.5 0 0 1 .5-.5V0Z" fill="#000"/>
</svg>
