<svg viewBox="0 0 15 15" fill="none" xmlns="http://www.w3.org/2000/svg" height="1em" width="1em">
  <path d="m6.853 8.848.354-.353-.707-.707-.353.353.706.707ZM9 10.493v.5h1v-.5H9Zm1-.999v-.5H9v.5h1ZM9 1.5V2h1v-.5H9Zm1-1V0H9v.5h1ZM4.5 4.997H4v1h.5v-1Zm1 1H6v-1h-.5v1Zm8-1H13v1h.5v-1Zm1 1h.5v-1h-.5v1Zm-2.353-3.852-.354.354.707.707.353-.354-.706-.707Zm1.706-.292.354-.353L13.5.792l-.353.354.706.707Zm-8-.707L5.5.792l-.707.708.354.353.706-.707Zm.294 1.706.353.354.707-.707-.354-.354-.706.707Zm6.706 5.29-.353-.354-.707.707.354.353.706-.707Zm.294 1.706.353.353.707-.707-.354-.354-.706.708ZM.853 14.844l6-5.996-.706-.707-6 5.996.706.707ZM10 10.495v-1H9v1h1ZM10 1.5v-1H9v1h1ZM4.5 5.997h1v-1h-1v1Zm9 0h1v-1h-1v1Zm-.647-3.145 1-.999-.706-.707-1 1 .706.706Zm-7.706-.999 1 1 .706-.708-1-1-.706.708Zm7 6.995 1 1 .706-.708-1-.999-.706.707Z" fill="#000"/>
</svg>
