<svg viewBox="0 0 15 15" fill="none" xmlns="http://www.w3.org/2000/svg" height="1em" width="1em">
  <path d="m1.9 11.7.447.224.138-.277L2.3 11.4l-.4.3Zm1.4 1.4.3-.4-.247-.185-.277.138.224.447ZM.5 14.5l-.447-.224a.5.5 0 0 0 .67.671L.5 14.5Zm4-10-.277-.416A.5.5 0 0 0 4 4.5h.5Zm6 6v.5a.5.5 0 0 0 .416-.223L10.5 10.5ZM6.254 5.026l.493-.083-.493.083Zm.14.836-.493.082.493-.082Zm-.432.997.277.416-.277-.416Zm4.68 3.428.416.277-.416-.277Zm-.668-1.541.083-.493-.083.493Zm-.836-.14-.082.493.082-.493Zm-.997.432-.416-.277.416.277ZM0 7.5c0 1.688.558 3.247 1.5 4.5l.8-.6A6.47 6.47 0 0 1 1 7.5H0ZM7.5 0A7.5 7.5 0 0 0 0 7.5h1A6.5 6.5 0 0 1 7.5 1V0ZM15 7.5A7.5 7.5 0 0 0 7.5 0v1A6.5 6.5 0 0 1 14 7.5h1ZM7.5 15A7.5 7.5 0 0 0 15 7.5h-1A6.5 6.5 0 0 1 7.5 14v1ZM3 13.5A7.47 7.47 0 0 0 7.5 15v-1a6.469 6.469 0 0 1-3.9-1.3l-.6.8ZM.723 14.947l2.8-1.4-.448-.894-2.8 1.4.448.894Zm.729-3.47-1.4 2.8.894.447 1.4-2.8-.894-.447ZM4 4.5v1h1v-1H4ZM9.5 11h1v-1h-1v1ZM4 5.5A5.5 5.5 0 0 0 9.5 11v-1A4.5 4.5 0 0 1 5 5.5H4Zm.777-.584.214-.142-.555-.832-.213.142.554.832Zm.984.192.14.836.986-.164-.14-.837-.986.165Zm-.076 1.335-.962.641.554.832.962-.641-.554-.832Zm.216-.499a.5.5 0 0 1-.216.499l.554.832a1.5 1.5 0 0 0 .648-1.495l-.986.164Zm-.91-1.17a.5.5 0 0 1 .77.334l.986-.165a1.5 1.5 0 0 0-2.311-1.001l.555.832Zm5.925 6.003.142-.213-.832-.555-.142.214.832.554Zm-.86-2.524-.836-.14-.164.987.836.139.165-.986Zm-2.33.508-.642.962.832.554.641-.962-.832-.554Zm1.494-.648a1.5 1.5 0 0 0-1.495.648l.832.554a.5.5 0 0 1 .499-.216l.164-.986Zm1.838 2.451a1.5 1.5 0 0 0-1.001-2.311l-.165.986a.5.5 0 0 1 .334.77l.832.555Z" fill="#000"/>
</svg>
