<svg xmlns="http://www.w3.org/2000/svg" viewBox="0 0 32 32" height="1em" width="1em">
  <path d="M26.129 13.067c-.737 0-1.44.143-2.09.392L21.415 8.27h2.049V7.204h-3.782l1.078 2.133h-9.236l-.538-1.066h1.816V7.205H9.253l1.199 2.375c-.006.009-.015.016-.02.025L8.171 13.54a5.825 5.825 0 0 0-2.301-.471c-3.234 0-5.864 2.631-5.864 5.865s2.631 5.864 5.864 5.864a5.87 5.87 0 0 0 5.837-5.331h4.364c.19 0 .365-.101.461-.266l4.923-8.485 1.626 3.215a5.861 5.861 0 0 0-2.818 5.002c0 3.234 2.631 5.865 5.864 5.865s5.864-2.631 5.864-5.865-2.631-5.865-5.864-5.865zm-15.105-2.355 3.881 7.687h-3.198a5.869 5.869 0 0 0-2.599-4.352l1.915-3.335zm-.387 7.687H6.608l1.968-3.426a4.806 4.806 0 0 1 2.061 3.426zM5.871 23.73c-2.646 0-4.798-2.152-4.798-4.798s2.152-4.799 4.798-4.799c.623 0 1.217.123 1.763.34l-2.409 4.193a.534.534 0 0 0 .462.799h4.95A4.805 4.805 0 0 1 5.87 23.73zm10.073-5.64-3.882-7.688h8.344l-4.461 7.688zm10.185 5.641a4.804 4.804 0 0 1-4.798-4.799c0-1.702.893-3.196 2.234-4.048l2.257 4.465.952-.481-2.251-4.451a4.753 4.753 0 0 1 1.606-.283c2.646 0 4.798 2.153 4.798 4.799s-2.152 4.799-4.798 4.799z"/>
</svg>
