<svg xmlns="http://www.w3.org/2000/svg" viewBox="0 0 32 32" height="1em" width="1em">
  <path d="M30.622 9.602H8.215L6.406 2.138H1.379v1.066h4.188l5.198 21.443a2.656 2.656 0 0 0-1.923 2.547 2.666 2.666 0 1 0 5.332 0c0-.603-.208-1.153-.545-1.599h7.487a2.644 2.644 0 0 0-.545 1.599 2.666 2.666 0 1 0 2.665-2.666H11.833l-.517-2.133h14.968L30.621 9.6zM13.107 27.196c0 .882-.717 1.599-1.599 1.599s-1.599-.717-1.599-1.599.717-1.599 1.599-1.599 1.599.718 1.599 1.599zm11.729 0a1.6 1.6 0 0 1-3.199 0 1.6 1.6 0 0 1 3.199 0zm-13.778-5.865L8.473 10.669h20.662L25.52 21.331H11.058z"/>
</svg>
