<svg xmlns="http://www.w3.org/2000/svg" viewBox="0 0 29 32" height="1em" width="1em">
  <path d="M16.784 10.755a3.148 3.148 0 1 0 .001 6.295 3.148 3.148 0 0 0-.001-6.295zm0 5.245a2.1 2.1 0 0 1 0-4.197 2.1 2.1 0 0 1 0 4.197z"/>
  <path d="M4.196 6.034v15.735h25.176V6.034H4.196zm24.128 3.549V20.72H5.246V7.083h23.078v2.5z"/>
  <path d="M23.746 22.819H3.147V8.133H2.098v15.735h25.177v-1.049h-1.049z"/>
  <path d="M21.648 24.917H1.049V10.231H0v15.735h25.177v-1.049h-1.049zM6.819 8.165h3.147v1.049H6.819V8.165z"/>
  <path d="M6.819 18.623h3.147v1.049H6.819v-1.049zM23.603 8.165h3.147v1.049h-3.147V8.165zm0 10.458h3.147v1.049h-3.147v-1.049z"/>
</svg>
