<svg version="1.1" xmlns="http://www.w3.org/2000/svg" viewBox="0 0 32 32" height="1em" width="1em">
  <path d="M30.394 4.005h-28.789v1.066h2.132v19.192h11.729v2.666h-8.53v1.066h18.126v-1.066h-8.53v-2.666h11.729v-19.192h2.133v-1.066zM27.196 23.197h-22.391v-18.126h22.391v18.126z" fill="#000000"/>
  <path d="M14.401 8.27h-6.397v6.398h6.398v-6.398zM13.334 13.601h-4.265v-4.265h4.265v4.265z" fill="#000000"/>
  <path d="M16.533 13.601h7.464v1.066h-7.464v-1.066z" fill="#000000"/>
  <path d="M16.533 8.27h7.464v1.066h-7.464v-1.066z" fill="#000000"/>
  <path d="M16.533 10.935h7.464v1.066h-7.464v-1.066z" fill="#000000"/>
  <path d="M8.003 16.8h15.994v1.066h-15.994v-1.066z" fill="#000000"/>
  <path d="M8.003 19.998h15.994v1.066h-15.994v-1.066z" fill="#000000"/>
</svg>
