<svg xmlns="http://www.w3.org/2000/svg" viewBox="0 0 26 32" height="1em" width="1em">
  <path d="M24.693 4.32c-.853-.853-2.027-1.28-3.147-1.28s-2.293.427-3.147 1.28l-3.84 3.84-2.187-2.187-.747.747 2.56 2.56L2.612 20.8c-1.387 1.387-1.547 3.627-.373 5.173l-2.24 2.24.747.747 2.24-2.24a3.94 3.94 0 0 0 2.4.8c1.013 0 2.027-.373 2.773-1.173l11.573-11.52 2.4 2.4.747-.747-2.08-2.08 3.84-3.84c1.76-1.707 1.76-4.48.053-6.24zM7.413 25.653c-.533.533-1.28.853-2.027.853s-1.493-.32-2.027-.853a2.864 2.864 0 0 1 0-4.053l11.573-11.573 4.053 4.053L7.412 25.653zm12.694-11.946-4.8-4.8 3.84-3.84c.64-.64 1.493-1.013 2.4-1.013s1.76.373 2.4 1.013c.64.64 1.013 1.493 1.013 2.4s-.373 1.76-1.013 2.4l-3.84 3.84z"/>
</svg>
