<svg xmlns="http://www.w3.org/2000/svg" viewBox="0 0 31 32" height="1em" width="1em">
  <path d="M30.933 16.533v-1.067H27.2c-.107-2.88-1.227-5.44-3.04-7.467l2.667-2.667-.747-.747-2.667 2.667a11.463 11.463 0 0 0-7.36-3.04V.532h-1.067v3.68c-2.827.107-5.387 1.28-7.36 3.04L4.959 4.585l-.747.747 2.667 2.667c-1.867 2.027-3.04 4.587-3.147 7.467H-.001v1.067h3.733c.16 2.827 1.28 5.387 3.04 7.307l-2.667 2.667.747.747 2.667-2.667a11.463 11.463 0 0 0 7.36 3.04v3.84h1.067V27.68c2.827-.107 5.44-1.28 7.36-3.04l2.667 2.667.747-.747-2.667-2.667c1.76-1.973 2.933-4.48 3.04-7.307h3.84zm-4.8-1.066h-6.4a4.273 4.273 0 0 0-.907-2.133l4.533-4.533c1.6 1.76 2.613 4.107 2.773 6.667zM15.467 19.2c-1.76 0-3.2-1.44-3.2-3.2s1.44-3.2 3.2-3.2c1.76 0 3.2 1.44 3.2 3.2s-1.44 3.2-3.2 3.2zm7.146-11.147-4.587 4.587c-.587-.427-1.28-.747-2.027-.853V5.28c2.56.16 4.853 1.173 6.613 2.773zm-7.68-2.773v6.453c-.747.107-1.44.373-2.027.853L8.319 7.999a11.032 11.032 0 0 1 6.613-2.72zM7.573 8.8l4.533 4.533c-.48.587-.8 1.333-.907 2.133h-6.4c.16-2.56 1.173-4.907 2.773-6.667zm-2.72 7.733h6.4c.107.747.373 1.44.853 2.027l-4.48 4.48a9.926 9.926 0 0 1-2.773-6.507zM8.32 23.84l4.48-4.48c.587.48 1.333.8 2.133.907v6.347c-2.56-.16-4.853-1.173-6.613-2.773zM16 26.56v-6.347a4.273 4.273 0 0 0 2.133-.907l4.48 4.48A10.197 10.197 0 0 1 16 26.559zm7.36-3.467-4.48-4.48c.427-.587.747-1.28.853-2.027h6.4a10.745 10.745 0 0 1-2.773 6.507z"/>
</svg>
