<svg xmlns="http://www.w3.org/2000/svg" viewBox="0 0 32 32" height="1em" width="1em">
  <path d="M16 3.205C8.934 3.205 3.205 8.933 3.205 16S8.934 28.794 16 28.795c7.067-.001 12.795-5.729 12.795-12.795S23.066 3.205 16 3.205zm-.001 18.659c-3.233 0-5.863-2.631-5.863-5.864s2.631-5.864 5.864-5.864h.001c3.233 0 5.863 2.631 5.863 5.864s-2.631 5.864-5.865 5.864zm6.396-8.537 4.028-2.693A11.65 11.65 0 0 1 27.728 16c0 1.909-.461 3.71-1.273 5.305l-4.035-2.699a6.912 6.912 0 0 0-.024-5.279zm3.495-3.619-3.99 2.668a6.944 6.944 0 0 0-2.325-2.305l2.669-3.991a11.808 11.808 0 0 1 3.645 3.629zM21.316 5.55l-2.698 4.034a6.902 6.902 0 0 0-2.617-.515H16c-.927 0-1.809.185-2.617.515L10.685 5.55c1.597-.816 3.402-1.279 5.315-1.279s3.719.463 5.316 1.279zm-11.56.528 2.67 3.992a6.965 6.965 0 0 0-2.329 2.311L6.106 9.712a11.819 11.819 0 0 1 3.65-3.634zm-4.182 4.561 4.029 2.694a6.907 6.907 0 0 0-.024 5.266l-4.036 2.7A11.659 11.659 0 0 1 4.273 16c0-1.931.472-3.753 1.303-5.361zm.495 11.59 3.992-2.669a6.959 6.959 0 0 0 2.331 2.35L9.723 25.9a11.81 11.81 0 0 1-3.654-3.671zm4.581 4.203 2.695-4.03c.818.34 1.713.529 2.654.529H16c.941 0 1.838-.189 2.656-.529l2.695 4.03c-1.606.827-3.424 1.297-5.351 1.297s-3.745-.47-5.35-1.297zm11.628-.533-2.669-3.991a6.956 6.956 0 0 0 2.327-2.344l3.992 2.67a11.821 11.821 0 0 1-3.65 3.665z"/>
</svg>
