<!DOCTYPE svg PUBLIC "-//W3C//DTD SVG 1.1//EN" "http://www.w3.org/Graphics/SVG/1.1/DTD/svg11.dtd">
<svg version="1.1" xmlns="http://www.w3.org/2000/svg" xmlns:xlink="http://www.w3.org/1999/xlink" viewBox="0 0 26 32" height="1em" width="1em">
  <g/>
  <path d="M-0.007 28.236l13.916-13.916 0.754 0.754-13.916 13.916-0.754-0.754z" fill="#000000"/>
  <path d="M9.973 10.453h4.267v1.067h-4.267v-1.067z" fill="#000000"/>
  <path d="M21.707 10.453h4.267v1.067h-4.267v-1.067z" fill="#000000"/>
  <path d="M17.44 14.72h1.067v4.267h-1.067v-4.267z" fill="#000000"/>
  <path d="M17.44 2.987h1.067v4.267h-1.067v-4.267z" fill="#000000"/>
  <path d="M23.991 5.717l-3.017 3.017-0.754-0.754 3.017-3.017 0.754 0.754z" fill="#000000"/>
  <path d="M23.246 17.042l-3.017-3.017 0.754-0.754 3.017 3.017-0.754 0.754z" fill="#000000"/>
  <path d="M14.986 8.741l-3.017-3.017 0.754-0.754 3.017 3.017-0.754 0.754z" fill="#000000"/>
</svg>
