<svg xmlns="http://www.w3.org/2000/svg" viewBox="0 0 27 32" height="1em" width="1em">
  <path d="M2.098 5.903A6.887 6.887 0 0 1 7 3.873c1.852 0 3.593.721 4.902 2.03l14.035 14.036a4.802 4.802 0 0 1 0 6.783c-.906.907-2.11 1.405-3.392 1.405s-2.486-.499-3.392-1.405l-6.197-6.196.005-.005-7.407-7.408a2.641 2.641 0 0 1-.78-1.881c0-.711.277-1.379.78-1.882.502-.502 1.17-.78 1.881-.78s1.379.278 1.881.78l11.871 11.87-.742.742-11.871-11.87c-.609-.608-1.67-.608-2.278 0-.304.304-.472.709-.472 1.14s.168.835.472 1.139L19.894 25.98c.708.709 1.648 1.098 2.65 1.098s1.942-.389 2.65-1.098a3.752 3.752 0 0 0 0-5.3L11.159 6.644c-1.112-1.111-2.589-1.723-4.16-1.723s-3.049.612-4.16 1.723c-1.111 1.111-1.724 2.589-1.724 4.16s.613 3.05 1.724 4.161L15.14 27.266l-.742.742L2.097 15.706C.787 14.396.066 12.655.066 10.803S.787 7.21 2.097 5.901z"/>
</svg>
