<svg xmlns="http://www.w3.org/2000/svg" viewBox="0 0 32 32" height="1em" width="1em">
  <path d="M23.086 1.606H8.913c-.797 0-1.444.647-1.444 1.444v25.901c0 .798.647 1.444 1.444 1.444h14.173c.797 0 1.444-.646 1.444-1.444V3.05c0-.797-.647-1.444-1.444-1.444zm.378 27.345a.377.377 0 0 1-.377.377H8.914a.377.377 0 0 1-.377-.377v-4.95h14.928v4.95zm0-6.017H8.536V5.892h14.928v17.042zm0-18.108H8.536V3.05c0-.208.169-.378.377-.378h14.173c.208 0 .377.17.377.378v1.776z"/>
  <path d="M14.401 26.129H17.6v1.066h-3.199v-1.066z"/>
</svg>
