<svg xmlns="http://www.w3.org/2000/svg" viewBox="0 0 21 32" height="1em" width="1em">
  <path d="M10.667 7.467C9.174 7.467 8 8.64 8 10.134s1.173 2.667 2.667 2.667c1.493 0 2.667-1.173 2.667-2.667s-1.173-2.667-2.667-2.667zm0 4.266c-.907 0-1.6-.693-1.6-1.6s.693-1.6 1.6-1.6c.907 0 1.6.693 1.6 1.6s-.693 1.6-1.6 1.6z"/>
  <path d="M16 18.933V9.12c0-2.987-1.973-7.04-5.333-9.12-3.36 2.08-5.333 6.133-5.333 9.173v9.813L.001 25.599h21.333l-5.333-6.667zm-10.667 5.6H2.24l3.093-3.893v3.893zm9.6 0H6.4V9.173c0-2.4 1.493-5.867 4.267-7.893 2.773 2.027 4.267 5.44 4.267 7.893v15.36zM16 20.64l3.093 3.893H16V20.64zm-5.867 6.027H11.2V32h-1.067v-5.333zm2.667 0h1.067v3.2H12.8v-3.2zm-5.333 0h1.067v3.2H7.467v-3.2z"/>
</svg>
