<svg version="1.1" xmlns="http://www.w3.org/2000/svg" viewBox="0 0 32 32" height="1em" width="1em">
  <path d="M24.782 1.606h-7.025l-16.151 16.108 12.653 12.681 16.135-16.093v-7.096l-5.613-5.6zM29.328 13.859l-15.067 15.027-11.147-11.171 15.083-15.044h6.143l4.988 4.976v6.211z" fill="#000000"/>
  <path d="M21.867 7.999c0 1.173 0.956 2.128 2.133 2.128s2.133-0.954 2.133-2.128c0-1.174-0.956-2.129-2.133-2.129s-2.133 0.955-2.133 2.129zM25.066 7.999c0 0.585-0.479 1.062-1.066 1.062s-1.066-0.476-1.066-1.062c0-0.586 0.478-1.063 1.066-1.063s1.066 0.477 1.066 1.063z" fill="#000000"/>
</svg>
