<svg xmlns="http://www.w3.org/2000/svg" viewBox="0 0 32 32" height="1em" width="1em">
  <path d="m29.532 25.76-5.655-5.655.754-.754-.754-.754-2.261 2.261-3.771-3.77 4.53-4.532a5.579 5.579 0 0 0 1.882.324 5.562 5.562 0 0 0 3.954-1.637 5.569 5.569 0 0 0 1.178-6.174l-.311-.722-2.43 2.43-1.956.027.026-1.866 2.477-2.477-.72-.312a5.576 5.576 0 0 0-2.229-.461 5.552 5.552 0 0 0-3.952 1.637 5.56 5.56 0 0 0-1.311 5.84l-4.529 4.529-6.409-6.408.754-.754-4.145-4.146L2.39 4.647l4.147 4.147.753-.754 6.409 6.408-4.529 4.529a5.57 5.57 0 0 0-1.888-.326 5.558 5.558 0 0 0-3.953 1.637 5.565 5.565 0 0 0-1.176 6.181l.312.72 2.477-2.477 1.865-.025-.027 1.956-2.43 2.43.722.311a5.59 5.59 0 0 0 2.221.458 5.551 5.551 0 0 0 3.952-1.636 5.565 5.565 0 0 0 1.314-5.833l4.532-4.532 3.771 3.769-2.263 2.263.754.754.754-.754 5.654 5.654c.503.504 1.174.781 1.885.781s1.381-.277 1.885-.781a2.668 2.668 0 0 0 0-3.769zM3.899 4.648l.754-.753 2.638 2.638-.754.754-2.639-2.639zm7.549 17.808a4.513 4.513 0 0 1-.955 4.999 4.491 4.491 0 0 1-3.198 1.324c-.347 0-.689-.039-1.021-.116l1.569-1.569.047-3.485-3.394.046-1.619 1.619a4.497 4.497 0 0 1 1.208-4.229 4.495 4.495 0 0 1 3.199-1.325c.626 0 1.233.125 1.806.373l.333.144L20.242 9.418l-.144-.333a4.505 4.505 0 0 1 .952-5.004 4.494 4.494 0 0 1 3.198-1.325c.35 0 .695.04 1.03.117L23.66 4.491l-.047 3.394 3.485-.047 1.57-1.57a4.504 4.504 0 0 1-1.209 4.221 4.499 4.499 0 0 1-3.2 1.325c-.624 0-1.23-.125-1.801-.371l-.332-.143-10.821 10.823.143.332zm17.331 6.319c-.302.302-.704.469-1.131.469s-.829-.167-1.131-.469l-5.654-5.654 2.262-2.262 5.655 5.655a1.6 1.6 0 0 1 .001 2.261z"/>
</svg>
