<svg version="1.1" xmlns="http://www.w3.org/2000/svg" viewBox="0 0 32 32" height="1em" width="1em">
  <path d="M28.186 9.069l-6.855 4.122v-4.655c0-0.883-0.716-1.599-1.599-1.599h-17.060c-0.884 0-1.599 0.716-1.599 1.599v14.928c0 0.883 0.715 1.599 1.599 1.599h17.060c0.883 0 1.599-0.716 1.599-1.599v-4.744l7.006 4.211h2.591v-13.861h-2.742zM20.265 23.464c0 0.294-0.24 0.533-0.533 0.533h-17.060c-0.295 0-0.533-0.239-0.533-0.533v-14.928c0-0.294 0.238-0.533 0.533-0.533h17.060c0.294 0 0.533 0.239 0.533 0.533v14.928zM29.861 21.864h-1.229l-7.301-4.389v-3.039l7.15-4.3h1.38v11.729z" fill="#000000"/>
</svg>
