<svg xmlns="http://www.w3.org/2000/svg" viewBox="0 0 32 32" height="1em" width="1em">
  <path d="M11.202 13.334v5.331h4.372l3.625 3.625V9.709l-3.625 3.625h-4.372zm5.126.754 1.805-1.805v7.433l-2.117-2.117h-3.747V14.4h3.747l.312-.312zM26.691 8.04l-.86.64c1.526 2.044 2.431 4.578 2.431 7.32s-.905 5.276-2.431 7.32l.86.64c1.657-2.221 2.637-4.976 2.637-7.959s-.981-5.739-2.637-7.96z"/>
  <path d="M24.112 22.04c1.26-1.689 2.017-3.775 2.017-6.04s-.756-4.351-2.017-6.04l-.854.636c1.128 1.511 1.804 3.378 1.804 5.404s-.676 3.893-1.804 5.404l.854.636zm-2.562-1.907c.863-1.156 1.38-2.583 1.38-4.133s-.517-2.977-1.38-4.133l-.854.636c.73.978 1.168 2.186 1.168 3.497s-.438 2.519-1.168 3.497l.854.636z"/>
  <path d="M15.999 28.262c-6.761 0-12.261-5.5-12.261-12.262s5.5-12.262 12.261-12.262c3.37 0 6.422 1.37 8.641 3.577l.758-.758A13.279 13.279 0 0 0 16 2.672C8.64 2.672 2.672 8.639 2.672 16S8.64 29.328 16 29.328c3.669 0 6.988-1.486 9.398-3.885l-.758-.758a12.22 12.22 0 0 1-8.641 3.577z"/>
</svg>
