<svg xmlns="http://www.w3.org/2000/svg" class="icon icon-tabler icon-tabler-apps-off" viewBox="0 0 24 24" stroke-width="2" stroke="currentColor" fill="none" stroke-linecap="round" stroke-linejoin="round" height="1em" width="1em">
  <path d="M0 0h24v24H0z" stroke="none"/>
  <path d="M8 4h1a1 1 0 0 1 1 1v1m-.29 3.704A.997.997 0 0 1 9 10H5a1 1 0 0 1-1-1V5c0-.276.111-.525.292-.706M18 14h1a1 1 0 0 1 1 1v1m-.29 3.704A.997.997 0 0 1 19 20h-4a1 1 0 0 1-1-1v-4c0-.276.111-.525.292-.706"/>
  <rect x="4" y="14" width="6" height="6" rx="1"/>
  <path d="M14 7h6m-3-3v6M3 3l18 18"/>
</svg>
