<svg xmlns="http://www.w3.org/2000/svg" class="icon icon-tabler icon-tabler-assembly" viewBox="0 0 24 24" stroke-width="2" stroke="currentColor" fill="none" stroke-linecap="round" stroke-linejoin="round" height="1em" width="1em">
  <path d="M0 0h24v24H0z" stroke="none"/>
  <path d="M19 6.873a2 2 0 0 1 1 1.747v6.536a2 2 0 0 1-1.029 1.748l-6 3.833a2 2 0 0 1-1.942 0l-6-3.833A2 2 0 0 1 4 15.157V8.62a2 2 0 0 1 1.029-1.748l6-3.572a2.056 2.056 0 0 1 2 0l6 3.573H19z"/>
  <path d="M15.5 9.422c.312.18.503.515.5.876v3.277c0 .364-.197.7-.515.877l-3 1.922a.997.997 0 0 1-.97 0l-3-1.922A1.003 1.003 0 0 1 8 13.576v-3.278c0-.364.197-.7.514-.877l3-1.79c.311-.174.69-.174 1 0l3 1.79H15.5z"/>
</svg>
