<svg xmlns="http://www.w3.org/2000/svg" class="icon icon-tabler icon-tabler-brand-coinbase" viewBox="0 0 24 24" stroke-width="2" stroke="currentColor" fill="none" stroke-linecap="round" stroke-linejoin="round" height="1em" width="1em">
  <path d="M0 0h24v24H0z" stroke="none"/>
  <path d="M12.95 22c-4.503.001-8.445-3.04-9.61-7.413-1.165-4.373.737-8.988 4.638-11.25a9.906 9.906 0 0 1 12.008 1.598l-3.335 3.367a5.185 5.185 0 0 0-7.354.013 5.252 5.252 0 0 0 0 7.393 5.185 5.185 0 0 0 7.354.013L20 19.088A9.887 9.887 0 0 1 12.95 22z"/>
</svg>
