<svg xmlns="http://www.w3.org/2000/svg" class="icon icon-tabler icon-tabler-brand-airbnb" viewBox="0 0 24 24" stroke-width="2" stroke="currentColor" fill="none" stroke-linecap="round" stroke-linejoin="round" height="1em" width="1em">
  <path d="M0 0h24v24H0z" stroke="none"/>
  <path d="M12 10c-2 0-3 1-3 3 0 1.5 1.494 3.535 3 5.5 1 1 1.5 1.5 2.5 2s2.5 1 4.5-.5 1.5-3.5.5-6-2.333-5.5-5-9.5C13.666 3.5 13 3 11.997 3c-1 0-1.623.45-2.497 1.5-2.667 4-4 7-5 9.5S3 18.5 5 20s3.5 1 4.5.5 1.5-1 2.5-2c1.506-1.965 3-4 3-5.5 0-2-1-3-3-3z"/>
</svg>
