<svg xmlns="http://www.w3.org/2000/svg" class="icon icon-tabler icon-tabler-file-dislike" viewBox="0 0 24 24" stroke-width="2" stroke="currentColor" fill="none" stroke-linecap="round" stroke-linejoin="round" height="1em" width="1em">
  <path d="M0 0h24v24H0z" stroke="none"/>
  <rect x="3" y="14" width="3" height="5" rx="1"/>
  <path d="M6 15a1 1 0 0 1 1-1h3.756a1 1 0 0 1 .958.713l1.2 3c.09.303.133.63-.056.884-.188.254-.542.403-.858.403h-2v2.467a1.1 1.1 0 0 1-2.015.61L6 19v-4zm8-12v4a1 1 0 0 0 1 1h4"/>
  <path d="M5 11V5a2 2 0 0 1 2-2h7l5 5v11a2 2 0 0 1-2 2h-2.5"/>
</svg>
