<svg xmlns="http://www.w3.org/2000/svg" class="icon icon-tabler icon-tabler-fish-off" viewBox="0 0 24 24" stroke-width="2" stroke="currentColor" fill="none" stroke-linecap="round" stroke-linejoin="round" height="1em" width="1em">
  <path d="M0 0h24v24H0z" stroke="none"/>
  <path d="M16.69 7.44a6.973 6.973 0 0 0-1.63 3.635"/>
  <path d="M2 9.504c5.307 5.948 10.293 8.57 14.597 7.1m2.583-1.449c.988-.788 1.93-1.836 2.82-3.153-3.005-4.443-6.596-5.812-10.564-4.548M8.672 8.72C6.527 9.986 4.294 11.935 2 14.506M18 11v.01m-6.847.159c-.287.777-.171 1.554.347 2.331M3 3l18 18"/>
</svg>
