<svg xmlns="http://www.w3.org/2000/svg" class="icon icon-tabler icon-tabler-health-recognition" viewBox="0 0 24 24" stroke-width="2" stroke="currentColor" fill="none" stroke-linecap="round" stroke-linejoin="round" height="1em" width="1em">
  <path d="M0 0h24v24H0z" stroke="none"/>
  <path d="M4 8V6a2 2 0 0 1 2-2h2M4 16v2a2 2 0 0 0 2 2h2m8-16h2a2 2 0 0 1 2 2v2m-4 12h2a2 2 0 0 0 2-2v-2M8.603 9.61a2.04 2.04 0 0 1 2.912 0L12 10l.5-.396a2.035 2.035 0 0 1 2.897.007 2.104 2.104 0 0 1 0 2.949L12 16l-3.397-3.44a2.104 2.104 0 0 1 0-2.95z"/>
</svg>
