<svg xmlns="http://www.w3.org/2000/svg" class="icon icon-tabler icon-tabler-microwave-off" viewBox="0 0 24 24" stroke-width="2" stroke="currentColor" fill="none" stroke-linecap="round" stroke-linejoin="round" height="1em" width="1em">
  <path d="M0 0h24v24H0z" stroke="none"/>
  <path d="M18 18H4a1 1 0 0 1-1-1V7a1 1 0 0 1 1-1h2m4 0h10a1 1 0 0 1 1 1v10M15 6v5m0 4v3m3-6h.01M18 9h.01"/>
  <path d="M6.5 10.5c1-.667 1.5-.667 2.5 0 .636.265 1.272.665 1.907.428M6.5 13.5c1-.667 1.5-.667 2.5 0 .833.347 1.667.926 2.5 0M3 3l18 18"/>
</svg>
