<svg xmlns="http://www.w3.org/2000/svg" class="icon icon-tabler icon-tabler-signature-off" viewBox="0 0 24 24" stroke-width="2" stroke="currentColor" fill="none" stroke-linecap="round" stroke-linejoin="round" height="1em" width="1em">
  <path d="M0 0h24v24H0z" stroke="none"/>
  <path d="M3 17c3.333-3.333 5-6 5-8 0-.394-.017-.735-.05-1.033M6 6C5 6 3.968 7.085 4 9c.034 2.048 1.658 4.877 2.5 6C8 17 9 17.5 10 16l2-3c.333 2.667 1.333 4 3 4 .219 0 .708-.341 1.231-.742M20 16c.303.245.64.677 1 1M3 3l18 18"/>
</svg>
