<svg xmlns="http://www.w3.org/2000/svg" class="icon icon-tabler icon-tabler-ufo" viewBox="0 0 24 24" stroke-width="2" stroke="currentColor" fill="none" stroke-linecap="round" stroke-linejoin="round" height="1em" width="1em">
  <path d="M0 0h24v24H0z" stroke="none"/>
  <path d="M16.95 9.01c3.02.739 5.05 2.123 5.05 3.714C22 15.091 17.52 17 12 17S2 15.091 2 12.724C2 11.134 4.04 9.739 7.07 9"/>
  <path d="M7 9c0 1.105 2.239 2 5 2s5-.895 5-2v-.035C17 6.223 14.761 4 12 4S7 6.223 7 8.965V9m8 8 2 3m-8.5-3L7 20m5-6h.01M7 13h.01M17 13h.01"/>
</svg>
