<svg xmlns="http://www.w3.org/2000/svg" viewBox="0 0 448 512" height="1em" width="1em">
  <path d="M448 336V48c0-26.51-21.5-48-48-48H96C42.98 0 0 42.98 0 96v320c0 53.02 42.98 96 96 96h320c17.67 0 32-14.33 32-31.1 0-11.72-6.607-21.52-16-27.1v-81.36c9.8-9.64 16-22.24 16-36.44zM128 166c0-8.838 7.164-16 16-16h53.1V96c0-8.838 7.164-16 16-16h52c8.836 0 16 7.162 16 16v54H336c8.836 0 16 7.162 16 16v52c0 8.836-7.164 16-16 16h-54v54c0 8.836-7.164 16-16 16h-52c-8.836 0-16-7.164-16-16v-54h-54c-8.836 0-16-7.164-16-16v-52zm256 282H96c-17.67 0-32-14.33-32-32s14.33-32 32-32h288v64z"/>
</svg>
