<svg viewBox="0 0 25 24" version="1.1" xmlns="http://www.w3.org/2000/svg" fill-rule="evenodd" height="1em" width="1em">
  <path d="M23.4,24 L0.6,24 C0.3,24 0,23.7 0,23.4 C0,23.1 0.3,22.8 0.6,22.8 L23.4,22.8 C23.7,22.8 24,23.1 24,23.4 C24,23.7 23.7,24 23.4,24 L23.4,24 Z"/>
  <path d="M9.5,9.7 C9.5,10 9.6,10.1 9.8,10.1 L9.9,10.1 L10.1,10.1 L10.1,10.9 C9.9,10.9 9.5,11 9.3,11 C8.8,11 8.5,10.8 8.4,10.4 C8,10.8 7.3,11 6.7,11 C5.8,11 5,10.5 5,9.5 C5,8.3 6,8.1 6.9,8 C7.7,7.8 8.4,8 8.4,7.3 C8.4,6.7 7.8,6.6 7.4,6.6 C6.8,6.6 6.3,6.9 6.3,7.4 L5.2,7.4 C5.3,6.1 6.4,5.7 7.5,5.7 C8.5,5.7 9.5,6.1 9.5,7.2 L9.5,9.7 L9.5,9.7 Z M8.4,8.3 C8,8.6 7.5,8.6 7,8.6 C6.5,8.7 6.1,8.9 6.1,9.5 C6.1,10 6.7,10.1 7.1,10.1 C7.6,10.1 8.3,9.8 8.3,9.1 L8.3,8.3 L8.4,8.3 Z"/>
  <path d="M11,6 L12.1,6 L12.1,6.7 L12.1,6.7 C12.4,6.1 13,5.9 13.7,5.9 C15.3,5.9 16.1,7.1 16.1,8.6 C16.1,10 15.4,11.2 13.9,11.2 C13.3,11.2 12.6,11 12.2,10.4 L12.2,10.4 L12.2,12.9 L11,12.9 L11,6 L11,6 Z M13.5,6.8 C12.6,6.8 12.1,7.5 12.1,8.6 C12.1,9.6 12.6,10.4 13.5,10.4 C14.5,10.4 14.9,9.5 14.9,8.6 C14.9,7.6 14.4,6.8 13.5,6.8 L13.5,6.8 Z"/>
  <path d="M17,4 L18,4 L18,5 L17,5 L17,4 L17,4 Z M17,6 L18,6 L18,11 L17,11 L17,6 L17,6 Z"/>
  <path d="M22,1.2 C22.4,1.2 22.8,1.5 22.8,2 L22.8,16 C22.8,16.4 22.5,16.8 22,16.8 L2,16.8 C1.6,16.8 1.2,16.5 1.2,16 L1.2,2 C1.2,1.6 1.5,1.2 2,1.2 L22,1.2 L22,1.2 Z M22,0 L2,0 C0.9,0 0,0.9 0,2 L0,16 C0,17.1 0.9,18 2,18 L22,18 C23.1,18 24,17.1 24,16 L24,2 C24,0.9 23.1,0 22,0 L22,0 L22,0 Z"/>
</svg>
