<svg viewBox="0 0 24 21" version="1.1" xmlns="http://www.w3.org/2000/svg" fill-rule="evenodd" height="1em" width="1em">
  <path d="M18,0 L6,0 L0,10.5 L6,21 L18,21 L24,10.5 L18,0 L18,0 Z M22.5,10 L12.8,10 L17.6,1.5 L22.5,10 L22.5,10 Z M6.3,19.4 L1.4,11 L11,11 L6.3,19.4 L6.3,19.4 Z M11.9,11.6 L16.7,20 L7.2,20 L11.9,11.6 L11.9,11.6 Z M11.9,9.5 L7,1 L16.7,1 L11.9,9.5 L11.9,9.5 Z M6.2,1.6 L11,10 L1.5,10 L6.2,1.6 L6.2,1.6 Z M17.7,19.6 L12.8,11 L22.6,11 L17.7,19.6 L17.7,19.6 Z" stroke="none" fill="#010101"/>
</svg>
