<svg viewBox="0 0 16 15" version="1.1" xmlns="http://www.w3.org/2000/svg" height="1em" width="1em">
  <g stroke="none" stroke-width="1" fill="none" fill-rule="evenodd">
    <path d="M14,2 L16,2 L16,3 L14,3 L14,5 L13,5 L13,3 L11,3 L11,2 L13,2 L13,0 L14,0 L14,2 Z" fill="#000000" fill-rule="nonzero"/>
    <path d="M1,14 L9,14 L9,15 L1,15 C0.44771525,15 6.04600958e-16,14.5522847 -4.4408921e-16,14 L0,3 C-6.76353751e-17,2.44771525 0.44771525,2 1,2 L13,2 C13.5522847,2 14,2.44771525 14,3 L14,9.77272727 L13,9.77272727 L13,3 L1,3 L1,14 Z" fill="#000000" fill-rule="nonzero" transform="translate(7.000000, 8.500000) scale(1, -1) translate(-7.000000, -8.500000)"/>
  </g>
</svg>
