<svg viewBox="0 0 24 18" xmlns="http://www.w3.org/2000/svg" height="1em" width="1em">
  <path d="M6 9h1V8H6v1zM4 9h1V8H4v1zm-1-.5c0 .828-.67 1.5-1.5 1.5S0 9.328 0 8.5.67 7 1.5 7 3 7.672 3 8.5zM13 12c-1.657 0-3-1.343-3-3s1.343-3 3-3 3 1.343 3 3-1.343 3-3 3zm9.5-5c-.652 0-1.2.42-1.408 1h-4.234c-.157-.606-.452-1.152-.85-1.61l2.274-3.41c.072.008.144.02.218.02.828 0 1.5-.672 1.5-1.5S19.328 0 18.5 0 17 .672 17 1.5c0 .39.152.74.395 1.007l-2.132 3.198C14.62 5.262 13.84 5 13 5c-1.862 0-3.413 1.277-3.858 3H8v1h1c0 2.21 1.79 4 4 4 .84 0 1.62-.262 2.263-.705l2.132 3.198c-.243.267-.395.618-.395 1.007 0 .828.672 1.5 1.5 1.5s1.5-.672 1.5-1.5-.672-1.5-1.5-1.5c-.074 0-.146.012-.218.02l-2.274-3.41c.61-.702.992-1.607.992-2.61h4.092c.207.58.756 1 1.408 1 .828 0 1.5-.672 1.5-1.5S23.328 7 22.5 7z" fill="#000" fill-rule="evenodd"/>
</svg>
