<svg xmlns="http://www.w3.org/2000/svg" viewBox="0 0 24 24" height="1em" width="1em">
  <path d="M15 20a3 3 0 1 1-6 0 3 3 0 1 1 6 0z" fill="#f39c12"/>
  <path d="M12 0a1.5 1.5 0 0 0-1.5 1.5c0 .183.034.37.094.531-1.361.198-2.453.688-3.25 1.469-.846.829-1.25 1.965-1.25 3.375 0 2.24-.458 4.381-1.313 6.406A12.989 12.989 0 0 1 1 18.344c0 .444.165.831.5 1.156s.73.5 1.188.5h18.624c.459 0 .853-.175 1.188-.5s.5-.712.5-1.156a12.986 12.986 0 0 1-3.781-5.063 16.35 16.35 0 0 1-1.313-6.406c0-1.41-.404-2.546-1.25-3.375-.797-.78-1.889-1.271-3.25-1.469.06-.162.094-.348.094-.531A1.5 1.5 0 0 0 12 0z" fill="#f1c40f"/>
  <path d="M12 17c-1.657 0-3 1.3-3 3 0 1.6 1.343 3 3 3v-6z" fill="#e67e22"/>
  <path fill="#f39c12" d="M12 0c-.828 0-1.5.6-1.5 1.5 0 .1.034.3.094.5-1.361.2-2.453.7-3.25 1.5-.846.8-1.25 1.9-1.25 3.3 0 2.3-.458 4.4-1.313 6.4-.855 2.1-2.106 3.7-3.781 5.1 0 .5.165.8.5 1.2.335.3.73.5 1.188.5H12V0z"/>
  <path d="M9 20c0 .3.074.6.188 1h5.624c.114-.4.188-.7.188-1H9z" fill="#e67e22"/>
</svg>
