<svg xmlns="http://www.w3.org/2000/svg" viewBox="0 0 24 24" height="1em" width="1em">
  <path d="M3 8v13a2 2 0 0 0 2 2h14a2 2 0 0 0 2-2V8H3z" fill="#16a085"/>
  <path d="M3 7v13c0 1.1.895 2 2 2h14c1.105 0 2-.9 2-2V7H3z" fill="#ecf0f1"/>
  <path d="M3 6v13c0 1.1.895 2 2 2h14c1.105 0 2-.9 2-2V6H3z" fill="#bdc3c7"/>
  <path d="M3 5v13c0 1.1.895 2 2 2h14c1.105 0 2-.9 2-2V5H3z" fill="#ecf0f1"/>
  <path d="M5 1a2 2 0 0 0-2 2v18a2 2 0 0 0 2 2h2v-1H5.5a1.5 1.5 0 0 1 0-3H19a2 2 0 0 0 2-2V3a2 2 0 0 0-2-2H5z" fill="#16a085"/>
  <path d="M8 1v18h11a2 2 0 0 0 2-2V3a2 2 0 0 0-2-2H8z" fill="#1abc9c"/>
</svg>
