<svg xmlns="http://www.w3.org/2000/svg" viewBox="0 0 24 24" height="1em" width="1em">
  <path d="M23 12c0 6.075-4.925 11-11 11S1 18.075 1 12 5.925 1 12 1s11 4.925 11 11z" fill="#34495e"/>
  <path d="M12 1C5.373 1 0 6.373 0 13h2C2 7.477 6.477 3 12 3s10 4.477 10 10h2c0-6.627-5.373-12-12-12z" fill="#2c3e50"/>
  <path d="M13 11v2h7a1 1 0 0 0 0-2h-7zm-1-6c-.552 0-1 .4-1 1v5h2V6c0-.6-.448-1-1-1z" fill="#bdc3c7"/>
  <path fill="#c0392b" d="m6.017 17.305 4.95-4.95.707.707-4.95 4.95z"/>
  <path d="M12 10c-1.105 0-2 .9-2 2s.895 2 2 2 2-.9 2-2-.895-2-2-2zm0 1c.552 0 1 .4 1 1 0 .5-.448 1-1 1s-1-.5-1-1c0-.6.448-1 1-1z" fill="#bdc3c7"/>
  <path d="M12 0C5.373 0 0 5.3 0 12c0 6.6 5.373 12 12 12s12-5.4 12-12c0-6.7-5.373-12-12-12zm0 2c5.523 0 10 4.4 10 10 0 5.5-4.477 10-10 10S2 17.5 2 12C2 6.4 6.477 2 12 2z" fill="#95a5a6"/>
  <path d="M13 12a1 1 0 1 1-2 0 1 1 0 0 1 2 0z" fill="#2c3e50"/>
  <path d="M13.73 11c.17.3.281.6.281 1 0 .3-.111.7-.281 1h1.093c.114-.4.188-.7.188-1 0-.4-.074-.7-.188-1H13.73z" fill="#95a5a6"/>
</svg>
