<svg xmlns="http://www.w3.org/2000/svg" viewBox="0 0 24 24" height="1em" width="1em">
  <path d="M9.5 5C5.91 5 3 7.9 3 11.5v.1c-1.784.9-3 2.7-3 4.9 0 3 2.462 5.5 5.5 5.5h13.501c2.76 0 5-2.3 5-5 0-2.1-1.298-3.9-3.126-4.7.071-.2.125-.5.125-.8 0-2-1.567-3.5-3.5-3.5-.798 0-1.536.2-2.125.7A6.482 6.482 0 0 0 9.5 5z" fill="#95a5a6"/>
  <path d="M9.5 4C5.91 4 3 6.9 3 10.5v.1c-1.784.9-3 2.7-3 4.9 0 3 2.462 5.5 5.5 5.5h13.501c2.76 0 5-2.3 5-5 0-2.1-1.298-3.9-3.126-4.7.071-.2.125-.5.125-.8 0-2-1.567-3.5-3.5-3.5-.798 0-1.536.2-2.125.7A6.482 6.482 0 0 0 9.5 4z" fill="#bdc3c7"/>
</svg>
