<svg xmlns="http://www.w3.org/2000/svg" viewBox="0 0 24 24" height="1em" width="1em">
  <path d="M12 0c-1.066 4.13-2.808 8.142-5.375 11.562-2.503 2.78-2.018 7.549.906 9.844C8.771 22.447 10.392 22.992 12 23c1.608-.008 3.229-.553 4.469-1.594 2.924-2.295 3.409-7.064.906-9.844C14.808 8.142 13.066 4.13 12 0z" fill="#2980b9"/>
  <path d="M12.02.9c-.591 2.9-1.557 5.7-2.98 8.1-1.388 1.9-1.119 5.2.502 6.8.687.7 1.586 1.1 2.478 1.1.891 0 1.79-.4 2.478-1.1 1.621-1.6 1.89-4.9.502-6.8-1.423-2.4-2.389-5.2-2.98-8.1z" fill="#3498db"/>
</svg>
