<svg xmlns="http://www.w3.org/2000/svg" viewBox="0 0 24 24" height="1em" width="1em">
  <path d="M5 2c-1.105 0-2 .9-2 2v18c0 1.1.895 2 2 2h14c1.105 0 2-.9 2-2V8l-6-6H5z" fill="#95a5a6"/>
  <path d="M5 1c-1.105 0-2 .9-2 2v18c0 1.1.895 2 2 2h14c1.105 0 2-.9 2-2V7l-6-6H5z" fill="#bdc3c7"/>
  <path d="M13.41 14.4c.391-.4.586-.9.586-1.4 0-.6-.195-1.1-.586-1.5-.39-.3-.862-.5-1.414-.5s-1.023.2-1.414.5c-.391.4-.586.9-.586 1.5 0 .5.195 1 .586 1.4s.862.6 1.414.6 1.024-.2 1.414-.6m4.586-2.3v1.7c0 .1-.021.2-.062.2-.042.1-.094.1-.157.1l-1.445.2c-.099.3-.2.6-.305.8.183.2.461.6.836 1 .052.1.078.2.078.2 0 .1-.023.2-.07.2-.141.2-.398.5-.773.9-.375.3-.62.5-.735.5-.062 0-.13 0-.203-.1l-1.078-.8c-.229.1-.466.2-.711.3-.083.7-.159 1.2-.226 1.4-.037.2-.131.3-.282.3h-1.734c-.073 0-.138-.1-.195-.1-.052 0-.081-.1-.086-.2l-.219-1.4c-.255-.1-.49-.2-.703-.3l-1.102.8c-.052.1-.117.1-.195.1-.073 0-.138 0-.195-.1-.657-.6-1.086-1-1.29-1.3-.036 0-.054-.1-.054-.2 0 0 .02-.1.062-.2.079-.1.211-.2.399-.5.187-.2.328-.4.422-.5-.141-.3-.248-.5-.32-.8l-1.43-.2c-.068 0-.123 0-.164-.1s-.063-.1-.063-.2v-1.7c0-.1.02-.1.063-.2s.09-.1.148-.1l1.453-.2c.073-.3.175-.5.305-.7-.209-.3-.487-.7-.836-1.1-.052-.1-.078-.1-.078-.2s.023-.1.07-.2c.135-.2.39-.5.766-.8.38-.4.627-.6.742-.6.068 0 .135 0 .203.1l1.078.8c.229-.1.466-.2.711-.3.083-.7.159-1.2.227-1.4.036-.2.13-.2.281-.2h1.922c.057.1.088.1.094.2l.218 1.4c.255.1.49.2.703.3l1.11-.8c.047-.1.109-.1.187-.1.068 0 .133 0 .196.1.671.6 1.101 1.1 1.289 1.3.036.1.054.1.054.2s-.02.1-.062.2c-.078.1-.211.3-.399.5-.187.2-.328.4-.421.5.135.3.242.6.32.8l1.43.2c.067 0 .122.1.164.1.041.1.062.1.062.2" fill="#7f8c8d"/>
  <path d="m21 7-6-6v4c0 1.1.895 2 2 2h4z" fill="#95a5a6"/>
</svg>
