<svg xmlns="http://www.w3.org/2000/svg" viewBox="0 0 24 24" height="1em" width="1em">
  <path d="M2 5C.895 5 0 5.9 0 7v14c0 1.1.895 2 2 2h20c1.105 0 2-.9 2-2V7c0-1.1-.895-2-2-2H2z" fill="#2980b9"/>
  <path d="M3 1c-1.105 0-2 .9-2 2v14c0 1.1.895 2 2 2h18c1.105 0 2-.9 2-2V5c0-1.1-.895-2-2-2h-8l-3-2H3z" fill="#2980b9"/>
  <path d="M23 14V6c0-1.1-.895-2-2-2H3c-1.105 0-2 .9-2 2v8h22z" fill="#bdc3c7"/>
  <path d="M2 5C.895 5 0 5.9 0 7v13c0 1.1.895 2 2 2h20c1.105 0 2-.9 2-2V7c0-1.1-.895-2-2-2H2z" fill="#3498db"/>
  <path d="M12 8.344 5.469 14l.937 1L7 14.469V19h4v-3h2v3h4v-4.531l.594.531.937-1L17 12.688V9h-2v1.938l-3-2.594z" fill="#2980b9"/>
</svg>
