<svg xmlns="http://www.w3.org/2000/svg" viewBox="0 0 24 24" height="1em" width="1em">
  <path d="M13.993 11.47c-.033.532.005.994-.028 1.527 2.06-.06 4.05-.05 6.04-.04-.037-.462-.005-.995-.042-1.457l-5.97-.03zm5.018 1.481c-1.316-.184-2.702-.297-4.018-.482.027 3.14-.016 6.349.012 9.488l2 2 1.98-1.98c.045-.379.02-.687-.005-.995-.641-.358-1.283-.717-1.995-1.005l1.985-.985c.045-.379.02-.687-.005-.995l-1-1 1.06-1.06-.014-2.986z" fill="#95a5a6"/>
  <path fill="#7f8c8d" d="m18.016 12.947-.051 4.05 1.06-1.06-.014-2.986-.995-.004zm-.051 4.05.048 2.452.957-.457-.005-.995-1-1zm.053 3.447-.023 2.523.99-.99-.005-.995-.962-.538zm-1.992-7.507-.02 10.02 1 1-.02-3.98.035-7.035-.995-.005z"/>
  <path d="M18.579 1.21a6.065 6.065 0 0 0-4.625.052 5.992 5.992 0 0 0-3.19 3.31c-.815 2.058-.393 4.308.882 5.926l-.667 1.686 4.65 1.839.93.367.666-1.685a5.98 5.98 0 0 0 4.698-3.72c1.219-3.082-.262-6.557-3.344-7.776zm-2.95 12.813-3.731-1.442-3.299 8.34 1.154 2.607 2.566-1.136.368-.93-1.492-1.665 2.227-.195.368-.93-.533-1.286 1.269-.573 1.103-2.79zm2.214-10.954c1.028.407 1.513 1.528 1.107 2.555s-1.579 1.56-2.607 1.154a2 2 0 0 1-1.124-2.596c.203-.513.6-.886 1.07-1.089a2.055 2.055 0 0 1 1.554-.024z" fill="#bdc3c7"/>
  <path d="m12.84 12.92-3.678 9.299.562 1.298 1.47-3.72 2.575-6.51-.93-.368zm1.86.735-1.472 3.72 1.298-.562 1.103-2.79-.93-.368zm-1.472 3.72-.92 2.325 1.114-.098.368-.93-.562-1.297zm-1.287 3.255-.92 2.324 1.298-.562.368-.93-.746-.832z" fill="#95a5a6"/>
  <path d="M19.99-.028c-2.236.027-4.004 1.795-3.96 3.96a3.933 3.933 0 0 0 4 4c2.166.044 3.933-1.723 3.96-3.96a3.933 3.933 0 0 0-4-4zm.01 1.99c1.118-.013 2.013.882 2 2S21.067 6 20.02 5.942a1.966 1.966 0 0 1-2-2c-.057-1.047.862-1.966 1.98-1.98z" fill="#7f8c8d"/>
  <path d="M20.029 2.699a6.009 6.009 0 0 0-8.485 0c-2.404 2.404-2.343 6.142 0 8.485 2.343 2.343 6.08 2.404 8.485 0a6.009 6.009 0 0 0 0-8.485zm-1.414 1.414c.781.781.778 2.05 0 2.828-.849.849-2.047.782-2.829 0-.78-.78-.848-1.98 0-2.828a2.003 2.003 0 0 1 2.829 0z" fill="#f39c12"/>
  <g fill="#f1c40f">
    <path d="M20 1.962a6.009 6.009 0 0 0-8.485 0c-2.405 2.405-2.344 6.143 0 8.486 2.342 2.342 6.08 2.404 8.485 0 2.333-2.334 2.343-6.143 0-8.486zm-1.414 1.415c.78.78.778 2.05 0 2.828-.849.849-2.048.781-2.829 0s-.848-1.98 0-2.828a2.003 2.003 0 0 1 2.829 0z"/>
    <path d="m10.1 7.62 4.243 4.242-1.414 1.414-4.243-4.242z"/>
    <path d="M9.393 9.74 3.03 16.106v2.828h2.829l.707-.707-.707-2.121 2.121.707.707-.707V14.69H10.1l2.122-2.12z"/>
  </g>
  <path d="M11.515 11.862 8.686 14.69H10.1l2.122-2.12-.707-.708zM8.686 14.69l-1.768 1.768 1.061.354.707-.707V14.69zm-2.475 2.475-1.768 1.768h1.415l.707-.707-.354-1.06zm3.889-6.717-7.07 7.07v1.415l2.828-2.828 4.95-4.95-.708-.707z" fill="#f39c12"/>
  <path d="M20.02-.057a4 4 0 0 0-3.22 6.375l1.532-1.313a2.01 2.01 0 0 1-.312-1.062 2 2 0 0 1 2-2c.51 0 .959.215 1.312.53l1.563-1.312A3.98 3.98 0 0 0 20.02-.057z" fill="#7f8c8d"/>
  <path d="M19.99-.028c-2.236.027-4.004 1.795-3.96 3.96-.052.938.225 1.781.73 2.427l.384-.322c-.073-.357-.144-.71-.114-1.105C16.986 2.767 18.754 1 20.99.972c.585.02 1.15.16 1.667.395l.228-.196A4.08 4.08 0 0 0 19.99-.028z" fill="#95a5a6"/>
</svg>
