<svg xmlns="http://www.w3.org/2000/svg" viewBox="0 0 24 24" height="1em" width="1em">
  <path fill="#16a085" d="M0 3h24v14H0z"/>
  <path fill="#1abc9c" d="M0 4h24v14H0z"/>
  <path d="M5 5c0 2.2-1.79 4-4 4v3.9c2.21 0 4 1.8 4 4.1h14v-.1c0-2.2 1.791-4 4-4V9c-2.209 0-4-1.8-4-4H5z" fill="#ecf0f1"/>
  <path d="M16 11c0 2.761-1.791 5-4 5-2.21 0-4-2.239-4-5s1.79-5 4-5c2.209 0 4 2.239 4 5z" fill="#1abc9c"/>
  <path d="m10.281 8.7 2.472-.7H13v5c0 .3.022.5.067.6.05.1.15.1.3.2h.914v.2h-3.82v-.2h.929c.139-.1.237-.1.292-.2s.082-.3.082-.6V9.8c0-.5-.025-.7-.075-.9-.035-.1-.1-.1-.195-.2h-.329c-.185 0-.442 0-.772.1l-.112-.1" fill="#ecf0f1"/>
  <g fill="#ecf0f1">
    <path d="M4 18.972c-.875 0-1.642.202-2.188.5H1v1c0 .829 1.343 1.5 3 1.5s3-.671 3-1.5v-.999h-.812c-.546-.299-1.313-.5-2.188-.5z" fill="#f39c12"/>
    <path d="M7 19.46c0 .828-1.343 1.5-3 1.5s-3-.672-3-1.5 1.343-1.5 3-1.5 3 .672 3 1.5z" fill="#f1c40f"/>
    <path d="M4 16.972c-.875 0-1.642.202-2.188.5H1v1c0 .829 1.343 1.5 3 1.5s3-.671 3-1.5v-.999h-.812c-.546-.299-1.313-.5-2.188-.5z" fill="#f39c12"/>
    <path d="M7 17.46c0 .829-1.343 1.5-3 1.5s-3-.671-3-1.5 1.343-1.5 3-1.5 3 .672 3 1.5z" fill="#f1c40f"/>
    <path d="M4 14.972c-.875 0-1.642.203-2.188.5H1v1c0 .829 1.343 1.5 3 1.5s3-.671 3-1.5v-1h-.812c-.546-.297-1.313-.5-2.188-.5z" fill="#f39c12"/>
    <path d="M7 15.46c0 .829-1.343 1.5-3 1.5s-3-.671-3-1.5 1.343-1.5 3-1.5 3 .672 3 1.5z" fill="#f1c40f"/>
    <path d="M4 12.972c-.875 0-1.642.202-2.188.5H1v1c0 .829 1.343 1.5 3 1.5s3-.671 3-1.5v-1h-.812c-.546-.298-1.313-.5-2.188-.5z" fill="#f39c12"/>
    <path d="M7 13.46c0 .829-1.343 1.5-3 1.5s-3-.671-3-1.5 1.343-1.5 3-1.5 3 .672 3 1.5z" fill="#f1c40f"/>
    <path d="M11 18.972c-.876 0-1.642.202-2.188.5H8v1c0 .829 1.343 1.5 3 1.5s3-.671 3-1.5v-.999h-.813c-.546-.299-1.313-.5-2.188-.5z" fill="#f39c12"/>
    <path d="M14 19.46c0 .828-1.344 1.5-3 1.5s-3-.672-3-1.5 1.342-1.5 3-1.5 3 .672 3 1.5z" fill="#f1c40f"/>
    <path d="M13 17.973c-.875 0-1.642.202-2.188.5H10v1c0 .828 1.343 1.5 3 1.5s3-.672 3-1.5v-1h-.812c-.546-.298-1.313-.5-2.188-.5z" fill="#f39c12"/>
    <path d="M16 18.46c0 .829-1.344 1.5-3 1.5s-3-.671-3-1.5 1.342-1.5 3-1.5 3 .672 3 1.5z" fill="#f1c40f"/>
    <path d="M4 10.972c-.875 0-1.642.202-2.188.5H1v1c0 .829 1.343 1.5 3 1.5s3-.671 3-1.5v-.999h-.812c-.546-.299-1.313-.5-2.188-.5z" fill="#f39c12"/>
    <path d="M7 11.46c0 .829-1.343 1.5-3 1.5s-3-.671-3-1.5 1.343-1.5 3-1.5 3 .672 3 1.5z" fill="#f1c40f"/>
  </g>
</svg>
