<svg xmlns="http://www.w3.org/2000/svg" viewBox="0 0 24 24" height="1em" width="1em">
  <g fill="#2980b9">
    <path d="M17 17c0 3.3 0 6-5 6s-5-2.7-5-6c0-3.4 1.686-6 5-6s5 2.6 5 6z" fill="#95a5a6"/>
    <path d="M8 18v3h2v-3H8zm3 0v3h2v-3h-2zm3 0v3h2v-3h-2z" fill="#bdc3c7"/>
    <path d="M8 19v2h1v-2H8zm3 0v2h1v-2h-1zm3 0v2h1v-2h-1z" fill="#7f8c8d"/>
    <path d="M7.5 21c.577 1.2 1.821 2 4.5 2 2.679 0 3.923-.8 4.5-2h-9zM12 1C5 1 3 5 3.062 12.1 3.373 14.5 4.92 15.6 7 17c.808 1 .594 1.6 2 2 1.473-.1 1.526 0 3 0s1.527-.1 3 0c1.406-.4 1.192-1 2-2 2.08-1.4 3.629-2.5 3.938-4.9C21 6 19 1 12 1z" fill="#bdc3c7"/>
    <path d="M11 12a3 3 0 1 1-6 0 3 3 0 0 1 6 0zm1.91 6c.28 0 .561-.2.774-.4.427-.5.415-1.2 0-1.7L12 14l-1.684 1.9c-.415.5-.427 1.2 0 1.7.426.5 1.121.5 1.547 0l.137-.1.137.1c.213.2.494.4.773.4zM19 12a3 3 0 1 1-6 0 3 3 0 0 1 6 0z" fill="#95a5a6"/>
    <path d="M8 9c-1.657 0-3 1.3-3 3 0 .1.034.3.063.5C5.306 11 6.518 10 8 10s2.694 1 2.938 2.5c.028-.2.062-.4.062-.5 0-1.7-1.343-3-3-3zm8 0c-1.657 0-3 1.3-3 3 0 .1.034.3.062.5C13.306 11 14.518 10 16 10s2.694 1 2.938 2.5c.028-.2.062-.4.062-.5 0-1.7-1.343-3-3-3zm-4 5-1.688 1.9c-.326.4-.408.9-.218 1.4a.8.8 0 0 1 .218-.4L12 15l1.688 1.9a.8.8 0 0 1 .218.4c.19-.5.108-1-.218-1.4L12 14z" fill="#7f8c8d"/>
  </g>
</svg>
