<svg xmlns="http://www.w3.org/2000/svg" viewBox="0 0 24 24" height="1em" width="1em">
  <path d="M17 6c3.314 0 6 2.6 6 6 0 3.3-2.686 6-6 6H7c-3.314 0-6-2.7-6-6 0-3.4 2.686-6 6-6h10z" fill="#95a5a6"/>
  <path d="M17 5c3.314 0 6 2.6 6 6 0 3.3-2.686 6-6 6H7c-3.314 0-6-2.7-6-6 0-3.4 2.686-6 6-6h10z" fill="#bdc3c7"/>
  <path d="M17 7c2.209 0 4 1.8 4 4s-1.791 4-4 4H7c-2.21 0-4-1.8-4-4s1.79-4 4-4h10z" fill="#2ecc71"/>
  <path d="M17 7c2.209 0 4 1.8 4 4 0 .1-.042.3-.062.5C20.69 9.5 19.039 8 17 8H7c-2.039 0-3.69 1.5-3.938 3.5-.02-.2-.062-.4-.062-.5 0-2.2 1.79-4 4-4h10z" fill="#27ae60"/>
  <path d="M11.977 10.3 12 11.5c.04 1.9-1.567 3.5-3.5 3.5H7c-2.209 0-4-1.8-4-4 0-.4.074-.7.156-1z" fill="#7f8c8d"/>
  <path d="M8.5 7c1.933 0 3.5 1.5 3.5 3.5 0 1.9-1.567 3.5-3.5 3.5h-2C4.567 14 3 12.4 3 10.5 3 8.5 4.567 7 6.5 7h2z" fill="#ecf0f1"/>
  <path d="M9.5 8c.276 0 .5.1.5.4v3.2c0 .2-.224.4-.5.4s-.5-.2-.5-.4V8.4c0-.3.224-.4.5-.4zm-2 0c.276 0 .5.1.5.4v3.2c0 .2-.224.4-.5.4s-.5-.2-.5-.4V8.4c0-.3.224-.4.5-.4zm-2 0c.276 0 .5.1.5.4v3.2c0 .2-.224.4-.5.4s-.5-.2-.5-.4V8.4c0-.3.224-.4.5-.4z" fill="#bdc3c7"/>
</svg>
