<svg viewBox="0 0 21 15" version="1.1" xmlns="http://www.w3.org/2000/svg" xmlns:xlink="http://www.w3.org/1999/xlink" height="1em" width="1em">
  <desc>
    Created with sketchtool.
  </desc>
  <defs>
    <linearGradient x1="50%" y1="0%" x2="50%" y2="100%" id="a">
      <stop stop-color="#FFFFFF" offset="0%"/>
      <stop stop-color="#F0F0F0" offset="100%"/>
    </linearGradient>
    <linearGradient x1="50%" y1="0%" x2="50%" y2="100%" id="b">
      <stop stop-color="#5098EA" offset="0%"/>
      <stop stop-color="#458BDB" offset="100%"/>
    </linearGradient>
    <linearGradient x1="50%" y1="0%" x2="50%" y2="100%" id="c">
      <stop stop-color="#E82045" offset="0%"/>
      <stop stop-color="#D01739" offset="100%"/>
    </linearGradient>
  </defs>
  <g stroke="none" stroke-width="1" fill="none" fill-rule="evenodd">
    <g>
      <rect fill="url(#a)" x="0" y="0" width="21" height="15"/>
      <rect fill="url(#b)" x="0" y="0" width="21" height="15"/>
      <path d="M1.80304035,4.95957252 C1.39898655,4.7864066 1.39898655,4.2135934 1.80304035,4.04042748 L3.36921134,3.36921134 L4.04042748,1.80304035 C4.2135934,1.39898655 4.7864066,1.39898655 4.95957252,1.80304035 L5.63078866,3.36921134 L7.19695965,4.04042748 C7.60101345,4.2135934 7.60101345,4.7864066 7.19695965,4.95957252 L5.63078866,5.63078866 L4.95957252,7.19695965 C4.7864066,7.60101345 4.2135934,7.60101345 4.04042748,7.19695965 L3.36921134,5.63078866 L1.80304035,4.95957252 Z" fill="url(#a)" fill-rule="nonzero"/>
      <polygon fill="url(#c)" points="3.75 5.25 2 4.5 3.75 3.75 4.5 2 5.25 3.75 7 4.5 5.25 5.25 4.5 7"/>
      <rect fill="#F9D536" x="0" y="11" width="21" height="1"/>
      <rect fill="#F9D536" x="0" y="9" width="21" height="1"/>
    </g>
  </g>
</svg>
