<svg viewBox="0 0 21 15" version="1.1" xmlns="http://www.w3.org/2000/svg" height="1em" width="1em">
  <defs>
    <linearGradient x1="50%" y1="0%" x2="50%" y2="100%" id="a">
      <stop stop-color="#FFFFFF" offset="0%"/>
      <stop stop-color="#F0F0F0" offset="100%"/>
    </linearGradient>
    <linearGradient x1="50%" y1="0%" x2="50%" y2="100%" id="b">
      <stop stop-color="#FFCB49" offset="0%"/>
      <stop stop-color="#FFC638" offset="100%"/>
    </linearGradient>
    <linearGradient x1="50%" y1="0%" x2="50%" y2="100%" id="c">
      <stop stop-color="#DC1D34" offset="0%"/>
      <stop stop-color="#CC162C" offset="100%"/>
    </linearGradient>
    <linearGradient x1="50%" y1="0%" x2="50%" y2="100%" id="d">
      <stop stop-color="#4985D4" offset="0%"/>
      <stop stop-color="#3D77C2" offset="100%"/>
    </linearGradient>
    <linearGradient x1="50%" y1="0%" x2="50%" y2="100%" id="e">
      <stop stop-color="#4BA343" offset="0%"/>
      <stop stop-color="#408D39" offset="100%"/>
    </linearGradient>
  </defs>
  <g stroke="none" stroke-width="1" fill="none" fill-rule="evenodd">
    <g>
      <rect fill="url(#a)" x="0" y="0" width="21" height="15"/>
      <rect fill="url(#b)" x="0" y="0" width="21" height="4"/>
      <rect fill="url(#c)" x="0" y="7" width="21" height="4"/>
      <rect fill="url(#d)" x="0" y="11" width="21" height="4"/>
      <rect fill="url(#a)" x="0" y="4" width="21" height="3"/>
      <polygon fill="url(#e)" points="0 15 10 7.5 0 0"/>
      <path d="M4.75,4.59451311 C4.51028506,4.53281475 4.25897468,4.5 4,4.5 C2.34314575,4.5 1,5.84314575 1,7.5 C1,9.15685425 2.34314575,10.5 4,10.5 C4.25897468,10.5 4.51028506,10.4671852 4.75,10.4054869 C3.45607959,10.0724548 2.5,8.89787957 2.5,7.5 C2.5,6.10212043 3.45607959,4.92754521 4.75,4.59451311 Z M5.5,6 C5.22385763,6 5,5.77614237 5,5.5 C5,5.22385763 5.22385763,5 5.5,5 C5.77614237,5 6,5.22385763 6,5.5 C6,5.77614237 5.77614237,6 5.5,6 Z M5.5,8 C5.22385763,8 5,7.77614237 5,7.5 C5,7.22385763 5.22385763,7 5.5,7 C5.77614237,7 6,7.22385763 6,7.5 C6,7.77614237 5.77614237,8 5.5,8 Z M5.5,10 C5.22385763,10 5,9.77614237 5,9.5 C5,9.22385763 5.22385763,9 5.5,9 C5.77614237,9 6,9.22385763 6,9.5 C6,9.77614237 5.77614237,10 5.5,10 Z" fill="url(#a)"/>
    </g>
  </g>
</svg>
