<svg viewBox="0 0 21 15" version="1.1" xmlns="http://www.w3.org/2000/svg" height="1em" width="1em">
  <defs>
    <linearGradient x1="50%" y1="0%" x2="50%" y2="100%" id="a">
      <stop stop-color="#FFFFFF" offset="0%"/>
      <stop stop-color="#F0F0F0" offset="100%"/>
    </linearGradient>
    <linearGradient x1="50%" y1="0%" x2="50%" y2="100%" id="b">
      <stop stop-color="#06A86E" offset="0%"/>
      <stop stop-color="#007A4E" offset="100%"/>
    </linearGradient>
    <linearGradient x1="50%" y1="0%" x2="50%" y2="100%" id="c">
      <stop stop-color="#FFBF2E" offset="0%"/>
      <stop stop-color="#FFB612" offset="100%"/>
    </linearGradient>
    <linearGradient x1="50%" y1="0%" x2="50%" y2="100%" id="d">
      <stop stop-color="#262626" offset="0%"/>
      <stop stop-color="#0D0D0D" offset="100%"/>
    </linearGradient>
    <linearGradient x1="50%" y1="0%" x2="50%" y2="100%" id="e">
      <stop stop-color="#F44E46" offset="0%"/>
      <stop stop-color="#DF3931" offset="100%"/>
    </linearGradient>
    <linearGradient x1="50%" y1="0%" x2="50%" y2="100%" id="f">
      <stop stop-color="#072CB4" offset="0%"/>
      <stop stop-color="#042396" offset="100%"/>
    </linearGradient>
  </defs>
  <g stroke="none" stroke-width="1" fill="none" fill-rule="evenodd">
    <g>
      <rect fill="url(#a)" x="0" y="0" width="21" height="15"/>
      <rect fill="url(#b)" x="0" y="0" width="21" height="15"/>
      <polygon fill="url(#c)" points="0 2 7 7.5 0 13"/>
      <polygon fill="url(#d)" points="-1 2.25 5.75 7.5 -1 12.75"/>
      <polygon fill="#FFFFFF" points="9 6 2 0 21 0 21 6"/>
      <polygon fill="url(#e)" points="9.25 5 3.25 0 21 0 21 5"/>
      <polygon fill="#FFFFFF" points="2 15 21 15 21 9 9 9"/>
      <polygon fill="url(#f)" points="3.25 15 21 15 21 10 9.25 10"/>
    </g>
  </g>
</svg>
