<svg xmlns="http://www.w3.org/2000/svg" viewBox="0 0 24 24" height="1em" width="1em">
  <path d="M21.36 11.54a.71.71 0 0 0-.73-.29 5.278 5.278 0 0 1-6.34-4.78 5.379 5.379 0 0 1 .37-2.42.729.729 0 0 0-.15-.78.7.7 0 0 0-.76-.16 6.317 6.317 0 0 0-3.98 5.88 5.494 5.494 0 0 0-1.22-.13 6.039 6.039 0 0 0-6.05 6.03c0 .1.01.2.01.3a6.114 6.114 0 0 0 6.19 5.75h5.99a3.941 3.941 0 0 0 3.98-3.61 3.755 3.755 0 0 0-.63-2.38 6.283 6.283 0 0 0 3.36-2.65.682.682 0 0 0-.04-.76Zm-6.67 8.4H8.7a5.121 5.121 0 0 1-5.19-4.8 5.042 5.042 0 0 1 5.04-5.28 5.059 5.059 0 0 1 4.92 3.95.548.548 0 0 0 .26.37l.25.13.2-.05a2.873 2.873 0 0 1 3.49 3 2.931 2.931 0 0 1-2.98 2.68Zm2.61-5.83a3.917 3.917 0 0 0-2.95-.89 6.043 6.043 0 0 0-3.57-3.92 5.338 5.338 0 0 1 2.73-4.98 6.325 6.325 0 0 0 4.51 7.85 6.642 6.642 0 0 0 2.12.17 5.2 5.2 0 0 1-2.84 1.77Z" data-name="Cloud Moon"/>
</svg>
