<svg xmlns="http://www.w3.org/2000/svg" viewBox="0 0 24 24" height="1em" width="1em">
  <path d="M18.83 2.25a6.469 6.469 0 0 0-4.37 6.12v3.15a1.784 1.784 0 0 0 1.78 1.78h2.7v8.14a.5.5 0 0 0 .5.5.508.508 0 0 0 .5-.5V2.56a.508.508 0 0 0-.5-.5.467.467 0 0 0-.17.03ZM16.24 12.3a.781.781 0 0 1-.78-.78V8.37a5.482 5.482 0 0 1 3.48-5.1v9.03Zm-4.8-10.23a.5.5 0 0 0-.5.5v4.98H8.5V2.57a.5.5 0 0 0-.5-.5.5.5 0 0 0-.5.5v4.98H5.06V2.57a.5.5 0 0 0-.5-.5.5.5 0 0 0-.5.5v6.48a2.507 2.507 0 0 0 2.5 2.5h.94v9.89a.508.508 0 0 0 .5.5.5.5 0 0 0 .5-.5v-9.89h.94a2.5 2.5 0 0 0 2.5-2.5V2.57a.5.5 0 0 0-.5-.5Zm-.5 6.98a1.5 1.5 0 0 1-1.5 1.5H6.56a1.511 1.511 0 0 1-1.5-1.5v-.5h5.88Z" data-name="Fork &amp; Knife"/>
</svg>
