<svg xmlns="http://www.w3.org/2000/svg" viewBox="0 0 24 24" height="1em" width="1em">
  <path d="M20.944 18.432a2.577 2.577 0 0 1-2.729 2.5c-2.153.012-4.307 0-6.46 0a.5.5 0 0 1 0-1c2.2 0 4.4.032 6.6 0 1.107-.016 1.589-.848 1.589-1.838V5.63a1.545 1.545 0 0 0-.969-1.471 3.027 3.027 0 0 0-1.061-.095h-6.159a.5.5 0 0 1 0-1c2.225 0 4.465-.085 6.688 0a2.566 2.566 0 0 1 2.5 2.67Z"/>
  <path d="M15.794 12.354a.459.459 0 0 0 .138-.312.3.3 0 0 0 .006-.042.29.29 0 0 0-.006-.041.455.455 0 0 0-.138-.313l-3.669-3.668a.5.5 0 0 0-.707.707l2.816 2.815H3.492a.5.5 0 0 0 0 1h10.742l-2.816 2.815a.5.5 0 0 0 .707.707Z"/>
</svg>
