<svg xmlns="http://www.w3.org/2000/svg" viewBox="0 0 24 24" height="1em" width="1em">
  <path d="M9.479 3.5a1.5 1.5 0 0 0-2.12 0L3.5 7.35a1.516 1.516 0 0 0-.44 1.06 1.5 1.5 0 0 0 .44 1.06L14.519 20.5a1.509 1.509 0 0 0 2.13 0l3.85-3.86a1.491 1.491 0 0 0 0-2.12Zm-1.12 3.58a.5.5 0 0 0 0 .71.524.524 0 0 0 .71 0c.55-.56 1.09-1.1 1.65-1.64l1.25 1.25-.9.9a.483.483 0 0 0 0 .7.5.5 0 0 0 .71 0c.29-.3.6-.6.9-.89l1.25 1.25-1.64 1.65a.495.495 0 0 0 .7.7c.56-.55 1.1-1.09 1.65-1.64l1.25 1.25-.9.9a.524.524 0 0 0-.14.36.5.5 0 0 0 .14.35.513.513 0 0 0 .71 0l.9-.9 1.26 1.26-1.65 1.64a.5.5 0 0 0 .71.71c.55-.56 1.09-1.1 1.65-1.64l1.23 1.23a.5.5 0 0 1 0 .7l-3.86 3.86a.5.5 0 0 1-.71 0L4.209 8.77a.491.491 0 0 1-.15-.36.485.485 0 0 1 .15-.35l3.86-3.86a.508.508 0 0 1 .7 0l1.24 1.24Z"/>
  <path d="m18.939 12.96-.04-.04c.01 0 .01 0 .02.01s.02.02.02.03Z"/>
</svg>
