<svg xmlns="http://www.w3.org/2000/svg" viewBox="0 0 24 24" height="1em" width="1em">
  <path d="M16.657 21.949H7.343a2.5 2.5 0 0 1-2.5-2.5v-8.227a6.468 6.468 0 0 1 .112-1.2l.269-1.432a5.572 5.572 0 0 0 .094-1.015V3.3a1.252 1.252 0 0 1 1.25-1.25h2.247a1.251 1.251 0 0 1 1.25 1.25v3.113a1.935 1.935 0 0 0 3.87 0V3.3a1.251 1.251 0 0 1 1.25-1.25h2.247a1.252 1.252 0 0 1 1.25 1.25v4.275a5.486 5.486 0 0 0 .1 1.015l.269 1.431a6.57 6.57 0 0 1 .111 1.2v8.227a2.5 2.5 0 0 1-2.505 2.501ZM6.568 3.051a.251.251 0 0 0-.25.25v4.274a6.543 6.543 0 0 1-.111 1.2l-.27 1.432a5.5 5.5 0 0 0-.094 1.015v8.227a1.5 1.5 0 0 0 1.5 1.5h9.314a1.5 1.5 0 0 0 1.5-1.5v-8.227a5.519 5.519 0 0 0-.094-1.016l-.269-1.43a6.453 6.453 0 0 1-.112-1.2V3.3a.251.251 0 0 0-.25-.25h-2.247a.251.251 0 0 0-.25.25v3.113a2.935 2.935 0 0 1-5.87 0V3.3a.251.251 0 0 0-.25-.25Z"/>
  <path d="M11.986 17.333v-3.459a.075.075 0 0 0-.114-.064l-.638.392a.149.149 0 0 1-.228-.128v-.65a.3.3 0 0 1 .145-.258l.764-.457a.3.3 0 0 1 .154-.043h.631a.3.3 0 0 1 .3.3v4.367a.3.3 0 0 1-.3.3h-.409a.3.3 0 0 1-.305-.3Z"/>
</svg>
