<svg xmlns="http://www.w3.org/2000/svg" viewBox="0 0 24 24" height="1em" width="1em">
  <path d="M16.6 20.463a1.5 1.5 0 0 1-.7-.174l-3.666-1.927a.5.5 0 0 0-.464 0L8.1 20.289a1.5 1.5 0 0 1-2.177-1.581l.7-4.082a.5.5 0 0 0-.143-.442l-2.964-2.891a1.5 1.5 0 0 1 .832-2.559l4.1-.6a.5.5 0 0 0 .376-.273l1.833-3.714a1.5 1.5 0 0 1 2.69 0l1.833 3.714a.5.5 0 0 0 .376.274l4.1.6a1.5 1.5 0 0 1 .832 2.559l-2.965 2.891a.5.5 0 0 0-.144.442l.7 4.082a1.5 1.5 0 0 1-1.479 1.754Zm-3.9-2.986 3.664 1.923a.5.5 0 0 0 .725-.527l-.7-4.082a1.5 1.5 0 0 1 .432-1.328l2.965-2.89a.5.5 0 0 0-.277-.853l-4.1-.6a1.5 1.5 0 0 1-1.13-.821l-1.83-3.705a.516.516 0 0 0-.9 0l-1.83 3.714a1.5 1.5 0 0 1-1.13.82l-4.1.6a.5.5 0 0 0-.277.853l2.968 2.887a1.5 1.5 0 0 1 .431 1.332l-.7 4.082a.5.5 0 0 0 .726.527l3.663-1.932a1.5 1.5 0 0 1 1.4 0Z"/>
</svg>
