<svg xmlns="http://www.w3.org/2000/svg" viewBox="0 0 24 24" height="1em" width="1em">
  <g data-name="Trash">
    <path d="M19.45 4.06h-4.18v-.5a1.5 1.5 0 0 0-1.5-1.5h-3.54a1.5 1.5 0 0 0-1.5 1.5v.5H4.55a.5.5 0 0 0 0 1h.72l.42 14.45a2.493 2.493 0 0 0 2.5 2.43h7.62a2.493 2.493 0 0 0 2.5-2.43l.42-14.45h.72a.5.5 0 0 0 0-1Zm-9.72-.5a.5.5 0 0 1 .5-.5h3.54a.5.5 0 0 1 .5.5v.5H9.73Zm7.58 15.92a1.5 1.5 0 0 1-1.5 1.46H8.19a1.5 1.5 0 0 1-1.5-1.46L6.26 5.06h11.48Z"/>
    <path d="M8.375 8a.5.5 0 0 1 1 0l.25 10a.5.5 0 0 1-1 0Zm7.25.007a.5.5 0 0 0-1 0l-.25 10a.5.5 0 0 0 1 0Z"/>
  </g>
</svg>
