<svg xmlns="http://www.w3.org/2000/svg" viewBox="0 0 24 24" height="1em" width="1em">
  <path d="M12.5 4.06v-.5a.509.509 0 0 0-.15-.35.483.483 0 0 0-.7 0 .491.491 0 0 0-.15.35v.5a8.41 8.41 0 0 0-7.88 7.82.976.976 0 0 0 .27.74 1.029 1.029 0 0 0 .74.32h6.87v5.22a1.653 1.653 0 0 1-.62 1.54 1.528 1.528 0 0 1-2.38-1.16.5.5 0 0 0-1 0 2.433 2.433 0 0 0 2.43 2.4 2.45 2.45 0 0 0 2.57-2.29c.08-1.39 0-2.81 0-4.2v-1.51h6.87a1.029 1.029 0 0 0 .74-.32.976.976 0 0 0 .27-.74 8.41 8.41 0 0 0-7.88-7.82Zm6.87 7.88-14.75.01a7.4 7.4 0 0 1 14.76-.02c0 .01 0 .01-.01.01Z"/>
</svg>
