<svg xmlns="http://www.w3.org/2000/svg" viewBox="0 0 24 24" height="1em" width="1em">
  <path d="M16.279 17.039a7.926 7.926 0 0 1-5.206 1.941 7.964 7.964 0 0 1-7.96-7.96 7.964 7.964 0 0 1 7.96-7.96 7.964 7.964 0 0 1 7.96 7.96 7.93 7.93 0 0 1-2.04 5.319l.165.165 3.583 3.582c.455.456-.252 1.163-.707.708l-3.755-3.755Zm1.754-6.019a6.964 6.964 0 0 0-6.96-6.96 6.963 6.963 0 0 0-6.96 6.96 6.963 6.963 0 0 0 6.96 6.96 6.964 6.964 0 0 0 6.96-6.96Zm-7.46.5h-1.5c-.645 0-.643-1 0-1h1.5v-1.5c0-.645 1-.643 1 0v1.5h1.5c.645 0 .643 1 0 1h-1.5v1.5c0 .645-1 .643-1 0v-1.5Z"/>
</svg>
