<svg xmlns="http://www.w3.org/2000/svg" viewBox="0 0 512 512" height="1em" width="1em">
  <path d="M320 176V16H32v480h128v-96h32v96h288V176ZM112 432H80v-32h32Zm0-80H80v-32h32Zm0-80H80v-32h32Zm0-80H80v-32h32Zm0-80H80V80h32Zm128-32h32v32h-32Zm-48 272h-32v-32h32Zm0-80h-32v-32h32Zm0-80h-32v-32h32Zm0-80h-32V80h32Zm80 320h-32v-32h32Zm0-80h-32v-32h32Zm0-80h-32v-32h32Zm0-80h-32v-32h32v32Zm176 272H320v-32h32v-32h-32v-48h32v-32h-32v-48h32v-32h-32v-32h128Z"/>
  <path d="M384 400h32v32h-32zm0-80h32v32h-32zm0-80h32v32h-32z"/>
</svg>
