<svg role="img" focusable="false" aria-hidden="true" xmlns="http://www.w3.org/2000/svg" viewBox="0 0 14 14" height="1em" width="1em">
  <path d="m 12.995989,6.2078727 c -0.06604,-1.26187 -1.198536,-2.20791 -2.462072,-2.20791 l -0.195207,0 c -1.1004118,0 -2.1718652,-0.33854 -3.0779026,-0.96333 -0.8747877,-0.60333 -2.0008241,-0.86708 -3.1918603,-0.59791 -0.3752066,0.0846 -3.07061076,0.85791 -3.0689441,3.89456 8.333e-4,1.47812 0.8058296,2.76666 1.9997824,3.45853 l 0,1.5414503 c 0,0.18416 0.149166,0.33333 0.3333318,0.33333 l 0.3333318,0 c 0.1841658,0 0.3333318,-0.14917 0.3333318,-0.33333 l 0,-1.13041 c 0.3199985,0.0825 0.6541636,0.13041 0.9999953,0.13041 0.1133329,0 0.222499,-0.0152 0.3333318,-0.0246 l 0,1.02458 c 0,0.18416 0.149166,0.33333 0.3333318,0.33333 l 0.3333318,0 c 0.1841658,0 0.3333318,-0.14917 0.3333318,-0.33333 l 0,-1.23812 C 6.6297686,9.9897027 6.913934,9.8578327 7.1735161,9.6886627 c 0.9529123,-0.62104 2.0318656,-1.02208 3.1693599,-1.02208 0.530831,0 0.333541,-0.006 0.480207,-0.0162 l 1.5502,2.8424903 c 0.05958,0.10893 0.172916,0.17372 0.292707,0.17372 0.02729,0 0.055,-0.003 0.08229,-0.0104 0.147707,-0.0375 0.25104,-0.17062 0.25104,-0.32291 0,0 0.0029,-5.0049803 -0.0033,-5.1253903 z M 10.666,6.8332827 c -0.27604,0 -0.499998,-0.22396 -0.499998,-0.5 0,-0.27625 0.223958,-0.5 0.499998,-0.5 0.27604,0 0.499997,0.22375 0.499997,0.5 0,0.27604 -0.223957,0.5 -0.499997,0.5 z m 1.666659,3.1926903 -0.830413,-1.5224903 c 0.314998,-0.12146 0.598539,-0.30417 0.830413,-0.54125 l 0,2.0637403 z"/>
</svg>
