<svg aria-hidden="true" xmlns="http://www.w3.org/2000/svg" viewBox="0 0 14 14" height="1em" width="1em">
  <path d="M6.132 12.924c-.065-.069-.068-.1-.068-.67 0-.537.006-.605.059-.67.08-.098.26-.099.357 0 .066.066.07.1.08.607.005.295.002.57-.009.61-.048.194-.287.266-.419.126zm1.38 0c-.066-.069-.069-.1-.069-.66 0-.323.014-.613.03-.644.047-.086.194-.136.292-.099.17.065.184.13.174.771-.01.572-.012.587-.084.645-.103.083-.26.077-.344-.013zm-.751-1.82a1.098 1.098 0 0 1-.448-.308l-.08-.093-.17.087c-.228.115-.56.141-.774.06a1.044 1.044 0 0 1-.521-.512l-.082-.184-.158.03c-.2.036-.466-.012-.643-.115-.26-.152-.419-.422-.446-.755l-.015-.195-.126-.02c-.566-.09-.906-.616-.761-1.178.048-.19.048-.205 0-.234-.57-.343-.713-.932-.348-1.426l.104-.14-.104-.145c-.157-.218-.207-.363-.207-.6a.864.864 0 0 1 .342-.7c.088-.071.18-.137.202-.144.034-.011.031-.046-.012-.18-.11-.34-.048-.676.17-.923.13-.147.371-.284.563-.318l.114-.02.017-.212c.03-.36.204-.634.501-.792.112-.06.181-.071.438-.071.168 0 .306-.012.306-.027 0-.068.172-.361.273-.465.259-.267.668-.334 1.034-.168l.196.088.187-.174c.23-.212.422-.286.702-.267a.92.92 0 0 1 .617.293l.131.133.2-.094c.493-.23 1.02-.045 1.25.44l.088.182h.285c.253 0 .307.01.465.085.296.146.458.394.49.755l.02.218.157.037c.35.083.536.218.67.487.113.225.13.475.052.735a.893.893 0 0 0-.04.157c.274.157.434.318.528.531.13.292.073.657-.146.944a.54.54 0 0 0-.077.121c0 .011.043.073.095.138.122.152.218.406.218.578 0 .317-.185.64-.463.808l-.125.076c-.005 0 .007.047.026.096.226.587-.081 1.169-.686 1.298l-.154.033-.014.23c-.035.544-.466.905-1.017.853l-.197-.018-.083.186c-.1.224-.316.436-.521.515a1.071 1.071 0 0 1-.765-.05l-.156-.08-.145.148c-.08.08-.21.18-.29.218-.18.088-.483.11-.667.05zm.45-2.528c.64-.118 1.168-.719 1.39-1.583l.033-.13.133.047c.423.15.828-.036.932-.428.087-.328-.108-.84-.529-1.39a2.155 2.155 0 0 1-.213-.336 1.316 1.316 0 0 0-.19-.282 4.97 4.97 0 0 1-.233-.28.88.88 0 0 0-.27-.226 2.998 2.998 0 0 1-.25-.146 1.013 1.013 0 0 0-.486-.193 4.99 4.99 0 0 1-.36-.066.629.629 0 0 0-.328 0c-.09.021-.258.05-.373.062a.83.83 0 0 0-.356.116 5.45 5.45 0 0 1-.314.175 1.07 1.07 0 0 0-.262.188c-.316.339-.473.542-.515.664-.025.076-.11.216-.188.312-.201.246-.39.575-.481.84-.102.293-.095.587.019.753a.665.665 0 0 0 .418.278c.118.022.209.012.494-.051.074-.017.083-.01.122.148.23.894.844 1.504 1.571 1.558.027 0 .133-.012.235-.03zm-.543-.528c-.463-.21-.807-.843-.89-1.635L5.74 6.05l-.159.122c-.36.274-.726.387-.8.247-.047-.088-.04-.169.028-.366.078-.22.296-.57.495-.795.084-.095.17-.229.19-.298.045-.15.062-.176.157-.241a.477.477 0 0 0 .126-.154c.061-.122.233-.247.34-.247.041 0 .083-.021.092-.046.036-.092.222-.177.379-.172a.98.98 0 0 0 .283-.045c.122-.045.145-.045.267 0a.682.682 0 0 0 .211.048.533.533 0 0 1 .409.138c.071.06.156.108.188.108.073 0 .28.178.28.24 0 .025.063.103.14.173a.529.529 0 0 1 .16.225c.012.054.08.169.153.255.2.237.399.544.478.737.078.188.094.404.035.463-.099.098-.409-.01-.762-.26l-.194-.137-.02.303a2.6 2.6 0 0 1-.277 1.047c-.168.323-.33.501-.564.618a.827.827 0 0 1-.707.034z"/>
</svg>
