<svg role="img" focusable="false" aria-hidden="true" xmlns="http://www.w3.org/2000/svg" viewBox="0 0 14 14" height="1em" width="1em">
  <path d="m 6.132399,12.924227 c -0.06504,-0.069 -0.06814,-0.1 -0.06814,-0.6702 0,-0.5372 0.0059,-0.6049 0.05864,-0.6699 0.07925,-0.098 0.260622,-0.099 0.357285,0 0.06587,0.066 0.07038,0.1 0.07977,0.6066 0.0055,0.2953 0.0016,0.5702 -0.0086,0.6109 -0.04865,0.1938 -0.287454,0.2653 -0.418928,0.1253 z m 1.378868,0 c -0.06496,-0.069 -0.06814,-0.1 -0.06814,-0.66 0,-0.3231 0.01356,-0.6128 0.03014,-0.6438 0.04624,-0.086 0.193338,-0.1364 0.291506,-0.099 0.169906,0.065 0.184626,0.1299 0.17389,0.7707 -0.0096,0.5715 -0.01152,0.5864 -0.08378,0.6449 -0.102724,0.083 -0.25906,0.077 -0.343617,-0.013 z m -0.750622,-1.8201 c -0.152858,-0.05 -0.330274,-0.1721 -0.447707,-0.3083 l -0.08037,-0.093 -0.170333,0.087 c -0.227139,0.1156 -0.559934,0.1415 -0.773011,0.06 -0.205806,-0.079 -0.422032,-0.291 -0.521277,-0.5121 l -0.08225,-0.1833 -0.157301,0.029 c -0.200745,0.037 -0.466475,-0.011 -0.643584,-0.1146 C 3.625646,9.9170266 3.466182,9.6465266 3.439445,9.3135266 l -0.01561,-0.1944 -0.125445,-0.02 c -0.566688,-0.091 -0.906341,-0.6161 -0.761597,-1.1784 0.04863,-0.1889 0.04863,-0.2048 1.01e-4,-0.234 -0.569537,-0.3426 -0.71336,-0.9314 -0.348205,-1.4253 l 0.10404,-0.1407 -0.103926,-0.1446 c -0.156913,-0.2184 -0.206793,-0.363 -0.207264,-0.6007 -5.54e-4,-0.2792 0.113721,-0.5124 0.342329,-0.6988 0.08855,-0.072 0.179616,-0.1374 0.20236,-0.145 0.03332,-0.011 0.03094,-0.046 -0.01224,-0.1796 -0.109779,-0.3399 -0.04815,-0.676 0.169244,-0.9229 0.129925,-0.1475 0.371887,-0.2839 0.564128,-0.3178 l 0.113197,-0.02 0.0178,-0.2123 c 0.03014,-0.3595 0.203571,-0.6338 0.50091,-0.7925 0.111272,-0.059 0.181019,-0.071 0.437898,-0.071 0.168049,-10e-5 0.305544,-0.012 0.305544,-0.027 0,-0.068 0.172056,-0.3607 0.272955,-0.4648 0.259126,-0.2672 0.667905,-0.3337 1.034745,-0.1682 l 0.195204,0.088 0.187229,-0.1733 c 0.229239,-0.2122 0.422646,-0.28589995 0.702243,-0.2676 0.236493,0.015 0.439118,0.1117 0.617322,0.2933 l 0.130821,0.1332 0.20042,-0.094 c 0.492218,-0.2304 1.020059,-0.045 1.25003,0.4393 l 0.08693,0.183 0.2856,0 c 0.252393,0 0.306384,0.01 0.464354,0.085 0.296838,0.1457 0.458356,0.3938 0.49091,0.7542 l 0.01977,0.2187 0.156689,0.037 c 0.349906,0.083 0.535607,0.2179 0.670086,0.4869 0.112496,0.2252 0.130123,0.4751 0.05184,0.7352 -0.02522,0.084 -0.04285,0.1541 -0.03917,0.1563 0.272833,0.1572 0.432912,0.3185 0.527603,0.5317 0.129533,0.2915 0.07307,0.657 -0.145804,0.9439 -0.04257,0.056 -0.0774,0.1102 -0.0774,0.121 0,0.011 0.04276,0.073 0.09502,0.1379 0.122356,0.1522 0.218357,0.4062 0.218357,0.5777 0,0.3173 -0.18552,0.6409 -0.463139,0.8078 -0.06414,0.039 -0.12053,0.073 -0.125321,0.076 -0.0048,0 0.0069,0.047 0.02608,0.096 0.225871,0.5876 -0.0813,1.169 -0.686093,1.2987 l -0.153715,0.033 -0.01476,0.2298 c -0.03488,0.5435 -0.465042,0.9043004 -1.016574,0.8529004 l -0.196509,-0.018 -0.08358,0.1862 c -0.100349,0.2236 -0.315459,0.4359 -0.520987,0.5144 -0.212123,0.081 -0.556892,0.059 -0.764668,-0.049 l -0.15656,-0.081 -0.144376,0.148 c -0.07941,0.081 -0.209958,0.1797 -0.290113,0.2185 -0.181031,0.088 -0.483166,0.1103 -0.667504,0.05 z M 7.210173,8.5760266 c 0.640751,-0.1181 1.168452,-0.7189 1.390897,-1.5834 l 0.0333,-0.1294 0.132984,0.047 c 0.423107,0.1502 0.827341,-0.036 0.931929,-0.4284 0.08718,-0.3275 -0.107915,-0.8396 -0.529191,-1.3892 -0.08292,-0.1082 -0.178939,-0.2597 -0.213382,-0.337 -0.03444,-0.077 -0.12007,-0.2038 -0.190283,-0.2814 -0.07021,-0.078 -0.17483,-0.2038 -0.232482,-0.2806 -0.06237,-0.083 -0.171785,-0.1747 -0.270167,-0.226 -0.09094,-0.048 -0.203499,-0.1131 -0.25013,-0.1459 -0.160709,-0.113 -0.291113,-0.1648 -0.485373,-0.1929 -0.107158,-0.015 -0.268868,-0.045 -0.359356,-0.066 -0.127709,-0.029 -0.20134,-0.029 -0.329048,4e-4 -0.09049,0.021 -0.258228,0.049 -0.372755,0.062 -0.144342,0.017 -0.253668,0.052 -0.356323,0.1153 -0.08145,0.05 -0.22273,0.129 -0.313954,0.1754 -0.09123,0.046 -0.209256,0.1309 -0.262289,0.1879 -0.315137,0.3389 -0.472491,0.5422 -0.514106,0.6643 -0.02585,0.076 -0.110683,0.216 -0.188528,0.3116 -0.200889,0.2466 -0.389379,0.5754 -0.481299,0.8397 -0.10205,0.2934 -0.0945,0.5879 0.01934,0.7539 0.09872,0.1441 0.254089,0.2473 0.417613,0.2775 0.118193,0.022 0.209059,0.012 0.494531,-0.051 0.07401,-0.017 0.08265,-0.01 0.12225,0.1485 0.229093,0.8936 0.843914,1.5035 1.570782,1.558 0.027,0 0.132763,-0.012 0.235034,-0.031 z m -0.542091,-0.5285 c -0.463202,-0.2103 -0.807414,-0.8426 -0.890027,-1.635 l -0.03779,-0.3625 -0.159216,0.1216 c -0.359512,0.2743 -0.725606,0.3875 -0.800542,0.2476 -0.04684,-0.088 -0.04039,-0.1691 0.02899,-0.3665 0.07708,-0.2192 0.295235,-0.57 0.494302,-0.7949 0.08391,-0.095 0.169425,-0.2288 0.190034,-0.2976 0.04467,-0.1495 0.06218,-0.1763 0.157579,-0.2415 0.04009,-0.027 0.0965,-0.097 0.125351,-0.1542 0.06127,-0.1219 0.233225,-0.2466 0.34012,-0.2466 0.04108,0 0.0827,-0.021 0.09249,-0.046 0.03517,-0.092 0.221228,-0.1765 0.37828,-0.1724 0.0827,0 0.210305,-0.018 0.283558,-0.045 0.121446,-0.045 0.144925,-0.045 0.266372,0.001 0.07325,0.028 0.168441,0.049 0.211531,0.047 0.164948,-0.01 0.28336,0.033 0.408725,0.1381 0.07147,0.06 0.156328,0.1086 0.188569,0.1086 0.07253,0 0.280167,0.1779 0.280167,0.24 0,0.025 0.06265,0.1026 0.139231,0.1723 0.08413,0.077 0.14761,0.1658 0.160401,0.2253 0.01164,0.054 0.0805,0.1692 0.153006,0.2553 0.199017,0.2366 0.398324,0.5437 0.477682,0.7364 0.07769,0.1885 0.09395,0.4046 0.03489,0.4637 -0.09843,0.098 -0.408677,-0.01 -0.762112,-0.2594 l -0.193837,-0.1383 -0.01913,0.3038 c -0.02437,0.3869 -0.118047,0.7402 -0.277572,1.0468 -0.167989,0.3228 -0.330959,0.5012 -0.564595,0.6179 -0.234229,0.117 -0.496315,0.1298 -0.706454,0.034 z"/>
</svg>
