<svg role="img" focusable="false" aria-hidden="true" xmlns="http://www.w3.org/2000/svg" viewBox="0 0 14 14" height="1em" width="1em">
  <path d="m 2.5075989,11.926753 c -0.2181548,-0.019 -0.5011541,-0.1237 -0.6728957,-0.2494 -0.060504,-0.044 -0.1957634,-0.1785 -0.3005005,-0.2982 -0.74289052,-0.8491 -0.70799815,-2.0529999 0.086206,-2.9757999 0.1366193,-0.1589 0.3523939,-0.3568 0.5119248,-0.4697 0.064504,-0.046 0.4180284,-0.2231 0.7856334,-0.3945 1.2164527,-0.5671 1.2957981,-0.6073 1.4000652,-0.7093 0.072005,-0.071 0.093306,-0.1066 0.079205,-0.1339 -0.060504,-0.1171 -0.219995,-0.7059 -0.2473368,-0.9128 -0.017601,-0.1332 -0.038403,-0.2487 -0.046203,-0.2565 -0.022102,-0.022 -0.4226287,0.2649 -0.4313593,0.3091 -0.004,0.022 0.019701,0.061 0.053204,0.087 0.1749719,0.1376 0.1698316,0.408 -0.010001,0.5007 -0.078805,0.041 -0.2636779,0.047 -0.3303924,0.011 -0.070905,-0.038 -0.1159579,-0.1499 -0.1159579,-0.2883 0,-0.182 -0.022302,-0.2702 -0.072305,-0.2861 -0.060404,-0.019 -0.1793422,0.075 -0.2091643,0.1649 -0.052204,0.1583 -0.2317257,0.2599 -0.3738754,0.2116 -0.1270486,-0.043 -0.176822,-0.1352 -0.1680514,-0.3106 0.004,-0.087 0.1313989,-0.2092 0.2470268,-0.2383 0.1279887,-0.032 0.1777021,-0.079 0.1777021,-0.1687 0,-0.079 0.003,-0.078 -0.1524404,-0.037 -0.2272154,0.059 -0.3869563,-0.036 -0.3869563,-0.23 0,-0.1397 0.080106,-0.212 0.235106,-0.212 0.096907,0 0.1258885,0.011 0.1927031,0.076 0.043303,0.042 0.1005868,0.076 0.1274187,0.076 0.053204,0 0.1285587,-0.072 0.089706,-0.086 -0.2014537,-0.072 -0.2981703,-0.2223 -0.2367861,-0.3692 0.061004,-0.146 0.1898229,-0.1916 0.3216118,-0.1137 0.067305,0.04 0.161421,0.1965 0.161421,0.2689 0,0.05 0.066304,0.1026 0.094006,0.075 0.013201,-0.013 -0.002,-0.071 -0.038803,-0.148 -0.075705,-0.1582 -0.066204,-0.2914 0.026702,-0.3712 0.079505,-0.068 0.2441766,-0.073 0.3025105,-0.01 0.059404,0.066 0.087706,0.1917 0.062504,0.2793 -0.032902,0.1149 -4e-5,0.089 0.1158579,-0.092 0.058004,-0.091 0.1530304,-0.2176 0.2110743,-0.2823 0.090606,-0.1011 0.1204182,-0.1193 0.2110644,-0.1291 0.1500402,-0.016 0.3007804,0.056 0.485193,0.2331 0.2934999,0.2816 0.5087945,0.6785 0.6296028,1.1608 0.095906,0.3829 0.097407,0.3821 0.5024441,-0.2493 0.3983871,-0.6211 0.5870599,-0.8098 0.970956,-0.9711 0.3639448,-0.1529 0.7570615,-0.1705 1.4664797,-0.066 0.1085974,0.016 0.1328291,0.012 0.1712217,-0.026 0.050003,-0.05 0.040503,-0.1172 -0.027802,-0.1948 -0.086206,-0.098 -0.098407,-0.1502 -0.081806,-0.3497 l 0.016101,-0.193 -0.093706,-0.1082 -0.093706,-0.1083 -0.076705,0.057 c -0.162061,0.1195 -0.3300825,0.124 -0.4318794,0.012 -0.064804,-0.072 -0.088806,-0.2226 -0.050103,-0.3152 0.044103,-0.1055 0.250197,-0.1892 0.4181984,-0.1698 0.1338091,0.015 0.1822624,-0.021 0.1822624,-0.1382 0,-0.069 -0.016601,-0.092 -0.1272286,-0.1736 -0.1359293,-0.1005 -0.1564107,-0.1365 -0.1583808,-0.2792 -0.002,-0.1192 0.055504,-0.202 0.1714917,-0.2484 0.091606,-0.037 0.097207,-0.036 0.206214,0.023 0.1301988,0.071 0.1893229,0.1722 0.1893229,0.3247 0,0.067 0.016401,0.1225 0.048603,0.1634 0.058804,0.075 0.077605,0.076 0.1418196,0.012 0.041303,-0.041 0.047303,-0.067 0.035402,-0.1538 -0.026602,-0.1943 0.072605,-0.3332 0.2427765,-0.3399 0.087706,0 0.1108276,0.01 0.1708416,0.074 0.061304,0.069 0.068005,0.09 0.057304,0.1857 -0.010101,0.09 -0.028602,0.1228 -0.1082073,0.1934 -0.055204,0.049 -0.096007,0.1064 -0.096007,0.1349 0,0.077 0.056604,0.059 0.1192881,-0.038 0.1109675,-0.1715 0.3263622,-0.2206 0.4453502,-0.1017 0.090106,0.09 0.092806,0.2039 0.007,0.3057 -0.079605,0.095 -0.1558506,0.1323 -0.3103611,0.1532 -0.1250685,0.017 -0.1254985,0.017 -0.1111575,0.089 0.008,0.04 0.020501,0.078 0.027802,0.085 0.007,0.01 0.077005,0.011 0.1546706,0.01 0.1361692,-0.01 0.1444798,0 0.2325458,0.085 0.1160579,0.116 0.1229383,0.2095 0.022801,0.3097 -0.057404,0.057 -0.087506,0.068 -0.1853926,0.068 -0.099507,0 -0.1316289,-0.012 -0.2165747,-0.083 -0.075505,-0.063 -0.1044471,-0.076 -0.1191181,-0.053 -0.053304,0.084 -0.012901,0.1914 0.2122244,0.5634 0.2683883,0.4435 0.2815992,0.4598 0.4287792,0.5278 0.009,0 0.052604,-0.024 0.097107,-0.064 0.054304,-0.048 0.1057372,-0.1327 0.1562606,-0.258 0.1134974,-0.2815 0.2412964,-0.3816 0.6426834,-0.5035 0.258127,-0.078 0.59137,-0.1 0.988407,-0.063 0.337723,0.031 0.570189,0.088 0.847998,0.2057 0.438659,0.1865 0.560858,0.3151 0.58618,0.6172 0.0128,0.1525 0.008,0.176 -0.0622,0.319 -0.09711,0.1974 -0.385726,0.4895 -0.766252,0.7756 -0.572499,0.4305 -1.17238,0.6586 -1.533714,0.5832 -0.166561,-0.035 -0.259938,-0.091 -0.404238,-0.2447 -0.1556,-0.1654 -0.184392,-0.1602 -0.4026565,0.072 -0.265068,0.2817 -0.368555,0.441 -0.5516575,0.8492 -0.1804122,0.402 -0.2030438,0.5172 -0.118308,0.6019 0.074605,0.075 0.090206,0.056 0.076905,-0.09 -0.011501,-0.1267 -0.007,-0.1428 0.055704,-0.2134 0.052504,-0.059 0.092606,-0.079 0.1745719,-0.088 0.1797822,-0.02 0.2365961,0.084 0.1857026,0.3397 -0.025202,0.1269 -0.024802,0.1544 0.002,0.1716 0.062704,0.04 0.116518,0.02 0.1630011,-0.058 0.057104,-0.097 0.1565507,-0.1423 0.2662574,-0.1217 0.09891,0.019 0.201144,0.132 0.201144,0.2233 0,0.126 -0.162661,0.2593 -0.3164311,0.2593 -0.043203,0 -0.066504,0.017 -0.083506,0.062 -0.012901,0.034 -0.019401,0.066 -0.014301,0.071 0.005,0.01 0.058804,0.01 0.1192381,0.011 0.134239,0 0.170142,0.035 0.190993,0.1745 0.0131,0.088 0.007,0.1191 -0.0309,0.1699 -0.0404,0.054 -0.06391,0.062 -0.1671414,0.061 l -0.1201382,-0.001 0,0.077 c 0,0.1112 -0.069205,0.1711 -0.1976334,0.1711 -0.1217283,0 -0.1853526,-0.062 -0.2122745,-0.205 -0.026102,-0.1391 -0.1060272,-0.1716 -0.1060272,-0.043 0,0.052 -0.021301,0.1056 -0.060704,0.1525 -0.052504,0.062 -0.076105,0.072 -0.1753519,0.072 -0.096407,0 -0.1207482,-0.01 -0.1530204,-0.059 -0.056504,-0.086 -0.027402,-0.2439 0.060804,-0.3283 0.068205,-0.065 0.068305,-0.066 0.025302,-0.1268 -0.023802,-0.034 -0.047103,-0.08 -0.051903,-0.1045 -0.006,-0.03 -0.074805,-0.071 -0.2196649,-0.13 -0.2944201,-0.1206 -0.3901166,-0.179 -0.4542109,-0.277 l -0.055504,-0.085 0.082806,-0.2482 c 0.078705,-0.2359 0.1709717,-0.676 0.1529804,-0.73 -0.005,-0.014 -0.043103,0 -0.090006,0.034 -0.3175016,0.2295 -0.6266126,0.2772 -1.0666125,0.1645 -0.4638015,-0.1189 -0.5467272,-0.1321 -0.6406436,-0.1021 -0.097807,0.031 -0.2038938,0.121 -0.2520871,0.2132 -0.031502,0.06 -0.030102,0.063 0.043103,0.082 0.041603,0.011 0.1953533,0.082 0.3416233,0.1577 0.3411431,0.177 0.4991339,0.3236 0.5422268,0.5032 0.016401,0.069 0.023902,0.1614 0.016701,0.2063 -0.014401,0.089 -0.1226184,0.2865 -0.2863995,0.5231 -0.1185781,0.1712 -0.1248785,0.2152 -0.054304,0.3794 0.038403,0.089 0.059204,0.1132 0.087906,0.1013 0.1491501,-0.062 0.2753887,-0.048 0.3690251,0.04 0.046003,0.043 0.055604,0.075 0.055604,0.1871 0,0.1179 -0.008,0.1411 -0.061804,0.1836 -0.071305,0.056 -0.1673013,0.061 -0.3673849,0.02 -0.1339191,-0.028 -0.1404096,-0.027 -0.1831625,0.026 -0.060704,0.075 -0.056604,0.097 0.036202,0.1986 0.103097,0.1126 0.1224183,0.1987 0.069605,0.31 -0.076105,0.1604999 -0.2510271,0.2189999 -0.3714553,0.1242 -0.081406,-0.064 -0.1097674,-0.1363 -0.1276686,-0.3253 -0.012301,-0.1301 -0.021101,-0.1524 -0.059904,-0.1524 -0.030802,0 -0.051303,0.023 -0.063704,0.071 -0.010101,0.039 -0.060904,0.1122 -0.1128177,0.163 -0.1253585,0.1225 -0.2329258,0.1279 -0.3321226,0.017 -0.1257585,-0.1408 -0.075505,-0.2879 0.1413796,-0.4138 0.065704,-0.038 0.1195581,-0.077 0.1195581,-0.087 0,-0.043 -0.046103,-0.036 -0.1262785,0.018 -0.1787922,0.1215 -0.3705352,0.076 -0.4026874,-0.095 -0.035302,-0.1879 0.032902,-0.2503 0.29445,-0.2697 0.1671614,-0.012 0.175892,-0.016 0.175892,-0.07 0,-0.049 -0.016801,-0.061 -0.1148778,-0.086 -0.1291488,-0.033 -0.1620011,-0.06 -0.1951233,-0.1614 -0.030502,-0.093 0.014101,-0.2251 0.089206,-0.2634 0.1302289,-0.067 0.2475469,-0.021 0.3642248,0.1413 0.045803,0.064 0.092006,0.1068 0.102587,0.096 0.043603,-0.046 0.1196481,-0.3512 0.1059772,-0.4252 -0.020901,-0.1133 -0.084506,-0.14 -0.3636947,-0.1528 -0.1985535,-0.01 -0.2871096,-0.026 -0.4573011,-0.087 -0.1160879,-0.041 -0.2534173,-0.1 -0.3051808,-0.1295 l -0.094106,-0.054 -0.1404095,0.058 c -0.2881196,0.1186 -0.9043415,0.3148 -1.3129993,0.4181 -0.7853734,0.1987 -1.2823872,0.3926 -1.647672,0.6427 -0.2361961,0.1618 -0.3698952,0.3131 -0.4876032,0.5519 -0.1963933,0.3985 -0.1694815,1.0475999 0.061904,1.4922999 0.2243753,0.4313 0.6834065,0.6842 1.1697796,0.6444 0.353304,-0.029 0.3778057,-0.027 0.4259489,0.033 0.063304,0.078 0.056904,0.2031 -0.013601,0.2685 -0.1059872,0.098 -0.4751323,0.1457 -0.8689391,0.1118 z"/>
</svg>
