<svg role="img" focusable="false" aria-hidden="true" xmlns="http://www.w3.org/2000/svg" viewBox="0 0 14 14" height="1em" width="1em">
  <path d="m 4.5113849,0.99997741 c 0.57023,0 1.03302,0.46278999 1.03302,1.03301999 0,0.57022 -0.46279,1.03298 -1.03302,1.03298 -0.5702298,0 -1.0330194,-0.46276 -1.0330194,-1.03298 0,-0.57023 0.4627896,-1.03301999 1.0330194,-1.03301999 M 3.8519069,5.8816874 c -0.6394327,0.34236 -1.1190148,0.80225 -1.4613138,1.40698 -0.3393003,0.60626 -0.6544759,1.41609 -0.5700201,2.19276 0.088962,0.7765796 0.3362811,1.6316596 0.867118,2.2198296 0.5353148,0.58206 1.5472379,1.13399 2.3042909,1.2547 0.760062,0.1146 1.72521,0.009 2.423417,-0.35591 0.698208,-0.37099 1.26375,-0.97274 1.728254,-1.83531 L 8.6821569,9.9112674 c -0.196031,0.5443796 -0.521775,1.0963296 -1.011923,1.5169996 -0.493121,0.4178 -0.895771,0.7254 -2.035847,0.79782 -1.087282,-0.10858 -1.7312263,-0.58661 -2.2288969,-1.03449 -0.4901126,-0.45097 -0.6484579,-1.07532 -0.7118169,-1.6392896 -0.060298,-0.56705 0.1071057,-1.27581 0.3378319,-1.72822 0.2352497,-0.45243 0.5790811,-0.76762 1.0510719,-0.96368 l -0.2306885,-0.97875 z m 0.836855,1.9424 c -0.202102,-0.64996 -0.373996,-1.24261 -0.515758,-1.81872 -0.1432697,-0.57758 -0.3453357,-1.17776 -0.3393004,-1.60301 0.00455,-0.42678 0.1191328,-0.75855 0.3559084,-0.92596 0.238269,-0.1659 0.803759,-0.16892 1.051072,-0.0723 0.23827,0.092 0.288051,0.36041 0.393623,0.62431 0.10254,0.26089 0.179476,0.56403 0.230726,0.92593 0.628867,-0.0271 1.103936,-0.0332 1.443227,-0.0181 0.336281,0.0108 0.464468,-0.0196 0.57002,0.10704 0.09651,0.12819 0.143269,0.52632 0.03617,0.65902 -0.111589,0.12367 -0.372456,0.086 -0.677076,0.10715 -0.306113,0.021 -0.68012,0.0271 -1.140075,0.0181 l 0.26693,0.85505 c 0.325761,0.001 0.634883,0.0137 0.944051,0.0362 0.307621,0.0227 0.631875,0.007 0.891258,0.0889 0.251844,0.0784 0.446311,0.11012 0.6409,0.37403 0.19452,0.25935 0.324254,0.78119 0.517262,1.17626 0.191504,0.38903 0.413215,0.76153 0.624318,1.15819 0.2080981,0.39513 0.4026501,0.7857096 0.6062311,1.1943696 0.553473,-0.23227 0.959131,-0.33933 1.229044,-0.32123 0.266891,0.0181 0.393622,0.29856 0.374031,0.42822 -0.02262,0.12517 -0.173441,0.17951 -0.499175,0.33783 -0.334774,0.15538 -0.808306,0.35745 -1.461278,0.60627 -0.4132151,-0.64398 -0.8113511,-1.28184 -1.2290791,-1.9424296 -0.419197,-0.66352 -0.823351,-1.31498 -1.247131,-1.99514 l -3.065892,0 z"/>
</svg>
