<svg role="img" focusable="false" aria-hidden="true" xmlns="http://www.w3.org/2000/svg" viewBox="0 0 14 14" height="1em" width="1em">
  <path d="m 2.4647118,12.970648 c -0.1645962,-0.057 -0.1862164,-0.1182 -0.2355523,-0.6644 -0.024567,-0.272 -0.081059,-0.7789 -0.1255367,-1.1265 -0.044478,-0.3475 -0.080845,-0.669 -0.080817,-0.7143 1.648e-4,-0.2657 0.1986163,-0.5224003 0.4649246,-0.6014003 0.082074,-0.024 0.1809812,-0.044 0.2197931,-0.044 0.08666,8e-4 0.2649771,0.08 0.4207654,0.1867003 0.3954246,0.271 0.6369116,0.3072 0.9691385,0.1449 C 4.485448,9.9622477 4.8659124,9.4559477 4.97817,8.9796477 c 0.058965,-0.2502 0.039501,-0.6652 -0.043719,-0.9323 -0.1686371,-0.5411 -0.4499393,-0.7712 -0.9368418,-0.7666 -0.1921009,0 -0.2335047,0.013 -0.5082716,0.1423 -0.3946801,0.185 -0.5654783,0.2163 -0.7676026,0.1407 -0.1933602,-0.072 -0.2961039,-0.1602 -0.3582666,-0.3061 -0.06799,-0.1597 -0.061598,-0.5534 0.025987,-1.6005 0.037917,-0.4533 0.077171,-0.9455 0.087231,-1.0937 0.015263,-0.2248 0.028654,-0.2815 0.080876,-0.3422 l 0.062584,-0.073 1.538364,0.01 c 1.5182161,0.01 1.5398503,0.01 1.6518357,-0.05 0.1611106,-0.082 0.261467,-0.2442 0.2632397,-0.425 0.00113,-0.1157 -0.020267,-0.1845 -0.1123742,-0.3613 -0.062577,-0.1201 -0.1328765,-0.2829 -0.1562221,-0.3617 -0.1611081,-0.544 -0.018007,-1.0732 0.4057527,-1.5006 0.4758571,-0.47989996 1.0721404,-0.58899996 1.660203,-0.3036 0.2383193,0.1156 0.5191555,0.4127 0.6593119,0.6974 0.2462141,0.5002 0.2474469,0.8464 0.00487,1.3687 -0.1868643,0.4023 -0.2354378,0.5996 -0.1921053,0.7803 0.062621,0.261 0.2820421,0.4061 0.6140133,0.4061 0.2327398,0 2.2335919,-0.2577 2.4789469,-0.3193 0.05234,-0.013 0.06189,-5e-4 0.07891,0.1041 0.07264,0.4466 0.279078,1.6173 0.372796,2.1142 0.127652,0.6769 0.124417,0.7418 -0.04636,0.9308 -0.230345,0.255 -0.46144,0.2761 -0.933568,0.085 -0.546094,-0.2208 -0.902292,-0.1898 -1.2975195,0.113 -0.2426434,0.1858 -0.403607,0.5347 -0.434025,0.9405 -0.019887,0.2654 0.014053,0.4658 0.1264308,0.7464 0.2109885,0.5269 0.5352829,0.7847 0.9902587,0.7872 0.209623,10e-4 0.377238,-0.063 0.562163,-0.2143 0.122479,-0.1004 0.319388,-0.1777 0.451237,-0.1772 0.106208,4e-4 0.334173,0.1178 0.432896,0.223 0.131052,0.1396 0.153335,0.2652003 0.119972,0.6761003 -0.02612,0.3216 -0.08919,1.3431 -0.128525,2.0815 -0.0098,0.1845 -0.03102,0.3261 -0.05438,0.3635 -0.04184,0.067 -0.191148,0.1551 -0.226068,0.1336 -0.01201,-0.01 -0.292916,-0.051 -0.62423,-0.096 -2.5001053,-0.3445 -4.2265073,-0.3728 -6.6604362,-0.1094 -0.5124598,0.055 -1.4896908,0.1817 -1.5660261,0.2024 -0.022666,0.01 -0.083325,0 -0.1347975,-0.021 z"/>
</svg>
