<svg role="img" focusable="false" aria-hidden="true" xmlns="http://www.w3.org/2000/svg" viewBox="0 0 14 14" height="1em" width="1em">
  <path d="m 7,1.96774 c 2.781121,0 5.032258,2.2507 5.032258,5.03226 0,2.78112 -2.250702,5.03226 -5.032258,5.03226 C 4.218879,12.03226 1.9677419,9.78156 1.9677419,7 1.9677419,4.21888 4.218444,1.96774 7,1.96774 M 7,1 C 3.686282,1 1,3.68628 1,7 c 0,3.31372 2.686282,6 6,6 3.313718,0 6,-2.68628 6,-6 C 13,3.68628 10.313718,1 7,1 Z M 7,2.35484 C 4.43454,2.35484 2.3548387,4.43454 2.3548387,7 2.3548387,9.56546 4.43454,11.64516 7,11.64516 9.56546,11.64516 11.645161,9.56546 11.645161,7 11.645161,4.43454 9.56546,2.35484 7,2.35484 Z m 0,1.06451 c 0.481016,0 0.870968,0.38996 0.870968,0.87097 C 7.870968,4.77134 7.481016,5.16129 7,5.16129 6.518984,5.16129 6.129032,4.77134 6.129032,4.29032 6.129032,3.80931 6.518984,3.41935 7,3.41935 Z M 9.848573,5.79088 C 9.153927,5.95489 8.505565,6.0993 7.861315,6.17331 7.881905,8.61741 8.15904,9.15037 8.467048,9.93833 8.554558,10.16236 8.443898,10.4149 8.219863,10.5024 7.995806,10.5899 7.743274,10.4792 7.655766,10.25522 7.445161,9.71551 7.242395,9.27209 7.117194,8.35484 l -0.234339,0 C 6.757847,9.27059 6.555419,9.71471 6.344258,10.25522 6.256798,10.47913 6.004339,10.58996 5.780185,10.5024 5.556153,10.4149 5.445492,10.16234 5.533,9.93833 5.840573,9.15105 6.118121,8.61879 6.138734,6.17331 5.494484,6.09931 4.846121,5.95491 4.151452,5.79088 3.943387,5.74178 3.814532,5.53327 3.863669,5.32518 3.912809,5.11709 4.121258,4.98826 4.329371,5.0374 c 2.339177,0.55231 3.006847,0.5512 5.341331,0 0.20804,-0.0491 0.416564,0.0797 0.465701,0.28778 0.04909,0.20809 -0.07977,0.41659 -0.28783,0.4657 z"/>
</svg>
