<svg aria-hidden="true" xmlns="http://www.w3.org/2000/svg" viewBox="0 0 14 14" height="1em" width="1em">
  <path d="M6.098 12.992c-1.52-.12-2.438-.397-2.972-.897-.225-.21-.263-.276-.263-.456 0-.118.054-.302.122-.417.118-.2.122-.26.129-1.897.007-1.661.005-1.696-.122-1.978-.162-.36-.163-.567-.005-.769.124-.158.124-.163.107-1.925-.017-1.646-.026-1.777-.125-1.903-.36-.457.144-1.129 1.063-1.419.878-.277 1.34-.33 2.895-.33 1.566-.002 2.244.072 3.079.336.928.293 1.357.877 1.03 1.403-.115.186-.12.265-.142 1.893-.022 1.683-.021 1.701.1 1.872a.793.793 0 0 1 .031.892l-.144.247v3.322l.145.259c.555.994-.925 1.688-3.767 1.765-.487.013-1.01.014-1.162 0zm2.645-.547c.694-.091 1.233-.239 1.525-.418l.188-.116-.034-1.993c-.019-1.096-.041-2-.05-2.009-.01-.01-.224.054-.478.14-.254.085-.66.173-.903.194-.25.022-.45.066-.46.102-.023.076-.081 2.354-.082 3.224l-.001.617-.235.04c-.415.07-2.196.035-2.834-.055-.985-.14-1.806-.409-2.015-.661-.105-.127-.182-.107-.142.037.13.458 1.128.805 2.71.943.64.056 2.237.03 2.811-.045zm.037-4.64c.67-.092 1.038-.176 1.365-.315.196-.083.238-.129.27-.3.034-.182-.02-3.846-.058-3.885-.008-.01-.269.059-.578.15-.31.093-.72.184-.91.203l-.349.036-.036 1.413c-.02.776-.036 1.653-.036 1.948v.537l-.29.035c-.51.06-2.097.035-2.669-.044-1.162-.161-1.753-.349-2.095-.666-.114-.106-.155-.12-.178-.06-.093.242.565.656 1.32.832 1.104.256 2.872.304 4.244.117zm.299-4.643c.64-.122 1.28-.361 1.515-.565.112-.098.187-.195.167-.216-.02-.02-.232.05-.47.156-.752.336-1.753.483-3.28.482-1.562 0-2.51-.145-3.328-.504-.214-.093-.402-.156-.42-.138-.064.064.242.326.532.456.339.152 1.074.333 1.64.404.6.076 3.126.023 3.644-.075zm-3.533-.896c.69-.328-.417-.812-1.15-.503-.351.148-.342.391.02.518.278.097.911.09 1.13-.015z"/>
</svg>
