<svg aria-hidden="true" xmlns="http://www.w3.org/2000/svg" viewBox="0 0 14 14" height="1em" width="1em">
  <path d="M10.973 3.348s-.01-.054-.04-.074a.166.166 0 0 0-.064-.023l-.965-.072-.71-.706a.209.209 0 0 0-.09-.039.566.566 0 0 0-.195.007l-.369.114c-.16-.473-.378-.808-.652-1.003a.994.994 0 0 0-.666-.186.99.99 0 0 0-.167-.175c-.266-.216-.61-.249-1.02-.1-1.232.448-1.755 2.044-1.943 2.842l-1.074.333s-.252.072-.312.143c-.065.078-.077.289-.077.289l-.911 7.023L8.578 13l3.704-.803-1.309-8.85zm-3.802-.369-1.186.367c.157-.615.46-1.244 1.037-1.49.12.315.153.745.15 1.123zm-.995-1.5c.25-.09.443-.087.589.011-.775.353-1.113 1.243-1.259 2.005l-.95.293c.213-.766.686-1.97 1.62-2.309zm.665 5.176a2.048 2.048 0 0 0-1.009-.21.973.973 0 0 0-.261.051.617.617 0 0 0-.197.112.491.491 0 0 0-.127.165.547.547 0 0 0-.052.214.425.425 0 0 0 .027.17c.02.055.053.11.097.163.044.054.1.108.168.162.068.055.149.111.242.169.131.083.264.177.392.286.128.11.25.234.355.375a1.658 1.658 0 0 1 .334 1.082c-.016.36-.094.67-.225.927a1.561 1.561 0 0 1-1.236.862c-.256.035-.53.02-.813-.043H4.53l-.006-.002h-.007l-.008-.002a2.66 2.66 0 0 1-.711-.284 2.158 2.158 0 0 1-.27-.185 1.229 1.229 0 0 1-.194-.197l.312-1.036a2.802 2.802 0 0 0 .437.303c.09.05.186.097.286.135.1.038.204.068.306.083.09.013.171.01.242-.005a.43.43 0 0 0 .299-.238.522.522 0 0 0 .045-.197.656.656 0 0 0-.02-.203.674.674 0 0 0-.09-.191 1.131 1.131 0 0 0-.165-.191 2.593 2.593 0 0 0-.248-.202 2.61 2.61 0 0 1-.332-.29 1.806 1.806 0 0 1-.258-.338 1.532 1.532 0 0 1-.164-.393 1.545 1.545 0 0 1-.045-.46c.012-.279.067-.535.16-.766.094-.233.228-.442.394-.622.17-.184.378-.34.616-.458.246-.122.527-.21.838-.25a3.079 3.079 0 0 1 .787-.006c.117.015.223.037.317.064.096.027.178.059.245.093l-.454 1.354zm.742-3.803c0-.047-.001-.095-.004-.142a3.302 3.302 0 0 0-.15-.932.53.53 0 0 1 .255.094c.215.152.37.458.48.8l-.581.18z"/>
</svg>
