<svg role="img" focusable="false" aria-hidden="true" xmlns="http://www.w3.org/2000/svg" viewBox="0 0 14 14" height="1em" width="1em">
  <path d="M 7.0000001,2.906262 9.8296464,4.543557 11.48444,3.588676 7.0000001,1 1.9871267,3.894638 3.64042,4.848019 7.0000001,2.906262 Z m 3.6035499,6.24072 0,-1.973754 -1.0113739,0.583427 0,0.8069 -2.3517061,1.35733 0,0.0025 0,-2.717661 5.018872,-2.896138 0,5.793276 L 7.2399701,13 l 0,-1.908261 3.3635799,-1.943757 z m -7.2080993,0 3.3645794,1.941257 0,1.910261 -5.0193726,-2.896138 0,-5.794276 1.6547932,0.954881 0,3.884515 z m 3.6045494,-5.074366 -2.3512061,1.35883 2.3512061,1.35783 2.352206,-1.35833 -2.352206,-1.35783 z m -2.592176,4.490439 2.351706,1.35733 0,-2.716161 -2.3527059,-1.35683 0,2.716161 z"/>
</svg>
