<svg role="img" focusable="false" aria-hidden="true" xmlns="http://www.w3.org/2000/svg" viewBox="0 0 14 14" height="1em" width="1em">
  <path d="m 0.99999918,11.4994 0,-1.1894 0.68727002,-0.023 c 0.79762,-0.027 1.13179,-0.093 1.6123,-0.3181 0.92887,-0.4352 1.58245,-1.2425 1.82923,-2.2593 0.0403,-0.166 0.061,-0.4073 0.061,-0.7097 0,-0.3024 -0.0208,-0.5437 -0.061,-0.7097 -0.24678,-1.0168 -0.90036,-1.8241 -1.82923,-2.2594 -0.48051,-0.2252 -0.81468,-0.2911 -1.6123,-0.318 l -0.68727002,-0.023 0,-1.1897 0,-1.1897 0.87054002,0.019 c 0.69724,0.015 0.93817,0.034 1.21033,0.095 2.37631,0.5323 4.14949,2.4271 4.47735,4.7842 0.0508,0.3654 0.0508,1.2187 0,1.5841 -0.32888,2.3645 -2.11545,4.2671 -4.49311,4.7849 -0.29153,0.063 -0.5241,0.082 -1.2129,0.095 l -0.85221002,0.017 0,-1.1894 z m 4.76647002,1.1694 c 0.009,-0.01 0.13142,-0.1018 0.27141,-0.2072 0.63834,-0.4804 1.09419,-0.965 1.56222,-1.6607 0.15998,-0.2378 0.29088,-0.4465 0.29088,-0.4637 0,-0.017 0.42473,-0.037 0.94384,-0.045 0.92484,-0.013 0.9479,-0.015 1.14544,-0.1079 0.3700198,-0.1736 0.5831098,-0.4722 0.6142798,-0.8605 0.0264,-0.329 -0.0635,-0.5689 -0.3029,-0.8083 C 10.030619,8.2544 9.8655692,8.2089 9.1812692,8.2089 l -0.52911,0 0.0225,-0.082 c 0.0124,-0.045 0.0424,-0.3175 0.0666,-0.6048 0.0344,-0.4071 0.0344,-0.6375 0,-1.0446 -0.0243,-0.2873 -0.0543,-0.5595 -0.0666,-0.6048 l -0.0225,-0.082 0.52911,0 c 0.6843,0 0.8493498,-0.046 1.1103698,-0.3066 0.23941,-0.2394 0.32931,-0.4793 0.3029,-0.8083 -0.0312,-0.3884 -0.24426,-0.6869 -0.6142798,-0.8606 -0.19754,-0.093 -0.2206,-0.095 -1.14544,-0.1078 -0.51911,-0.01 -0.94384,-0.027 -0.94384,-0.045 0,-0.017 -0.1309,-0.226 -0.29088,-0.4637 -0.46803,-0.6957 -0.92388,-1.1803 -1.56222,-1.6608 -0.13999,-0.1054 -0.26212,-0.1986 -0.27141,-0.2071 -0.009,-0.01 0.98037,-0.01 2.19925,0 l 2.2161398,0.011 0.32213,0.1004 c 1.01118,0.3151 1.76049,0.9551 2.18903,1.8696 0.22804,0.4866 0.3085,0.8682 0.30696,1.4559 -0.002,0.7473 -0.16332,1.289 -0.56597,1.9002 l -0.22113,0.3357 0.22113,0.3356 c 0.40265,0.6112 0.56401,1.153 0.56597,1.9003 10e-4,0.5877 -0.0789,0.9693 -0.30696,1.4559 -0.42854,0.9145 -1.17785,1.5544 -2.18903,1.8695 l -0.32213,0.1004 -2.2161398,0.012 c -1.21888,0.01 -2.20854,0 -2.19925,0 z"/>
</svg>
