<svg role="img" focusable="false" aria-hidden="true" xmlns="http://www.w3.org/2000/svg" viewBox="0 0 14 14" height="1em" width="1em">
  <path d="M 7.00025,1.00025 C 3.686888,1.00025 1,3.685638 1,7 1,10.312362 3.686888,12.99975 7.00025,12.99975 10.313612,12.99975 13,10.312362 13,7 13,3.685638 10.313612,1.00025 7.00025,1.00025 M 5.9362943,9.367901 C 5.2928211,9.367901 4.6498479,9.15491 4.1558685,8.727428 3.5488938,8.20295 3.1889088,7.48798 3.1414108,6.715512 3.0964126,5.966043 3.351402,5.243573 3.8593809,4.682097 4.4303571,4.050623 5.4538144,3.069664 5.4968126,3.027666 5.7743011,2.761677 6.2142827,2.772176 6.4797717,3.050166 6.7447606,3.328654 6.735761,3.769636 6.4577727,4.035625 6.4472727,4.045625 5.4273156,5.023583 4.889338,5.617559 4.6353486,5.899547 4.507354,6.259032 4.529853,6.631016 4.554352,7.0255 4.7438441,7.395485 5.0648307,7.673973 5.4868131,8.038958 6.3197784,8.119454 6.8412567,7.652473 7.1507438,7.372984 7.5272281,6.964001 7.531228,6.959502 7.7912171,6.676013 8.2311988,6.658014 8.513687,6.919002 8.7961753,7.178992 8.8151745,7.619973 8.555185,7.903461 8.537686,7.920961 8.1292027,8.365442 7.7692177,8.689429 7.2667387,9.14041 6.6012664,9.3679 5.9362941,9.3679 M 10.141119,9.3184 c -0.5714763,0.630974 -1.5944336,1.612433 -1.6379318,1.654431 -0.1349944,0.127995 -0.3074872,0.192492 -0.47998,0.192492 -0.1839924,0 -0.3659848,-0.0725 -0.5029791,-0.214991 -0.2654889,-0.279488 -0.2559893,-0.71947 0.021999,-0.985459 0.0105,-0.01 1.031457,-0.988458 1.5684347,-1.582934 C 9.3646512,8.100451 9.4926458,7.740466 9.4701468,7.368482 9.4461478,6.973998 9.2561557,6.604013 8.9351691,6.326525 8.5131867,5.96154 7.6802214,5.880044 7.1592431,6.348525 6.848756,6.626514 6.4727717,7.036496 6.4692718,7.040496 6.2087827,7.323485 5.769801,7.342484 5.4863128,7.082496 5.2043245,6.822006 5.1843254,6.380525 5.4453148,6.097037 5.4623138,6.078537 5.8702971,5.634056 6.2307821,5.310569 7.2202408,4.421606 8.8411733,4.404107 9.8441315,5.272069 c 0.6069745,0.525478 0.9674595,1.239948 1.0139575,2.012416 0.046,0.748469 -0.209491,1.472439 -0.71697,2.033915"/>
</svg>
