<svg aria-hidden="true" xmlns="http://www.w3.org/2000/svg" viewBox="0 0 14 14" height="1em" width="1em">
  <path d="M9.032 1.72c-.019.03-.009.055.021.055s.071-.025.09-.056c.019-.03.009-.056-.021-.056s-.071.025-.09.056zM4.23 4.116c0 .025.025.045.054.045.071 0 .188-.222.14-.269-.037-.038-.194.143-.194.224zm.53.436c.039.063.248-.035.248-.116 0-.069-.037-.067-.172 0-.06.032-.094.082-.076.112zm.758.541c.098.098.127.086.316-.13.287-.326.21-.402-.161-.157-.24.16-.255.187-.155.287zm3.644.289c-.37.268-.442.227-.564-.32-.059-.264.232-.365.602-.21.28.116.266.31-.038.53zm-1.813.943c.21.048.293.037.906-.127.244-.065.563-.12.708-.12.256 0 .263-.01.263-.17 0-.091.065-.262.143-.378.117-.172.137-.25.107-.424-.05-.302-.114-.367-.612-.632-.492-.262-.504-.278-.726-1.007-.122-.4-.153-.615-.156-1.073-.005-.671-.023-.697-.526-.754-.375-.042-.665.037-1.012.277-.338.235-.408.409-.4.995.01.672.112 1.107.516 2.2.36.974.468 1.14.79 1.213zm2.414.63c.064.064.13.04.13-.046a.083.083 0 0 0-.084-.083c-.087 0-.11.066-.046.13zm-.968.106c.25.124.293.119.37-.05.095-.209.012-.27-.278-.208-.295.063-.324.142-.092.258zm-2.456 3.025c0 .21.089.237.173.052.044-.097.036-.207-.033-.443-.125-.43-.223-.48-.176-.089a5.3 5.3 0 0 1 .036.48zM8.7 12.934c.052.083 1.554.063 1.976-.026 1.132-.24 2.072-1.223 2.264-2.367.04-.238.06-1.491.06-3.58 0-2.62-.016-3.287-.083-3.604-.268-1.272-1.248-2.153-2.594-2.331-.318-.042-.317-.048-.131.627.807 2.937.935 3.478.904 3.812-.054.58-.207 1.216-.341 1.417-.222.332-.657.742-.963.907-.162.087-.686.304-1.165.484-.496.186-.912.376-.964.44-.087.106-.083.148.07.709.09.328.265.983.39 1.456.314 1.196.538 1.992.577 2.056zm-5.4-.03c.22.048.74.077 1.416.08 1.238.01 1.14.078.935-.69a173.034 173.034 0 0 1-1.395-5.662C3.582 3.698 2.98 1.34 2.88 1.24c-.016-.016-.187.054-.38.156-.666.354-1.207 1.049-1.4 1.804-.132.511-.132 7.078 0 7.589a2.939 2.939 0 0 0 2.2 2.115z"/>
</svg>
