<svg aria-hidden="true" xmlns="http://www.w3.org/2000/svg" viewBox="0 0 14 14" height="1em" width="1em">
  <path d="M2.832 11.074c0-.013.01-.094.01-.18a11.12 11.12 0 0 1 .162-1.47c.095-.521.197-.931.372-1.499.04-.127.07-.233.067-.236 0 0-.036.046-.074.106-.46.726-.852 1.232-1.255 1.62l-.088.085.01-.167a8.371 8.371 0 0 1 .405-2.198 2.42 2.42 0 0 0 .064-.223c0-.01-.03.037-.064.094a9.195 9.195 0 0 1-.381.57 6.207 6.207 0 0 1-.518.612c-.103.107-.106.105-.097-.049.03-.507.122-1.015.276-1.524a.995.995 0 0 0 .039-.146s-.052.07-.111.157c-.203.3-.39.536-.556.698L1 7.414l.01-.095c.065-1.001.461-2.042 1.067-2.804.086-.108.25-.291.33-.368l.042-.04-.01.135a5.113 5.113 0 0 1-.174 1.037c-.01.035.012.014.056-.062.22-.376.477-.74.727-1.03.168-.195.313-.345.322-.335.02.02 0 .385-.044.668-.04.272-.14.724-.21.941a.635.635 0 0 0-.025.098c.01.01.066-.093.169-.273.274-.48.597-.94.946-1.347.14-.163.465-.495.47-.48.01.019-.018.386-.038.576a8.924 8.924 0 0 1-.294 1.513 2.256 2.256 0 0 0-.038.143c0 .016.042-.051.139-.224a11.36 11.36 0 0 1 1.77-2.375l.168-.171v.219a10.97 10.97 0 0 1-.221 1.759c-.306 1.489-.974 3.09-1.83 4.39a10.61 10.61 0 0 1-1.159 1.472c-.198.213-.341.347-.334.313zM6.84 8.43a1.18 1.18 0 0 1-.552-.232.762.762 0 0 1-.261-.376 1.12 1.12 0 0 1-.058-.288v-.047h.465l.015.066c.05.223.138.346.304.428.115.057.17.069.339.074.25.01.387-.033.509-.153.089-.087.104-.123.105-.24 0-.129-.018-.182-.09-.252-.093-.093-.213-.139-.647-.246-.293-.072-.42-.111-.51-.156-.192-.097-.308-.226-.357-.398a.898.898 0 0 1-.014-.367c.09-.411.517-.674 1.052-.648.483.023.818.245.936.62.021.069.03.104.05.233l.01.033-.225-.01c-.123 0-.232-.01-.241-.015a.228.228 0 0 1-.04-.088.48.48 0 0 0-.132-.24c-.106-.101-.228-.139-.451-.14-.205 0-.325.04-.416.14a.264.264 0 0 0-.072.229.28.28 0 0 0 .14.24c.085.057.184.09.503.172.347.089.496.137.624.203a.663.663 0 0 1 .349.44.86.86 0 0 1 0 .38c-.087.328-.324.529-.72.615a1.486 1.486 0 0 1-.324.024h-.285zm4.8 0c-.31-.042-.6-.215-.735-.438a1.186 1.186 0 0 1-.134-.435l-.01-.069h.469l.01.026c.049.204.083.276.178.37a.621.621 0 0 0 .287.158c.103.028.34.03.433 0 .169-.047.31-.154.352-.268a.416.416 0 0 0-.014-.288c-.063-.139-.179-.192-.696-.321-.313-.078-.416-.111-.523-.164-.18-.09-.28-.196-.339-.355a.734.734 0 0 1 .101-.691c.11-.154.328-.286.546-.332a1.64 1.64 0 0 1 .655.01c.352.085.594.314.67.634.028.123.033.18.018.19-.01 0-.112.01-.234.01h-.22l-.01-.04c-.066-.251-.165-.361-.38-.419a1.019 1.019 0 0 0-.404 0c-.146.035-.254.117-.289.216a.353.353 0 0 0 .01.245c.043.099.16.18.343.234.045.014.195.053.333.087.468.116.62.183.759.332a.675.675 0 0 1 .175.378.787.787 0 0 1-.19.63 1.057 1.057 0 0 1-.553.289 3.527 3.527 0 0 1-.603.013zM8.4 8.376h-.022V5.664h.702c.787 0 .886 0 1.001.047.228.083.35.21.393.405.02.093.028.24.018.35a.417.417 0 0 1-.044.166.65.65 0 0 1-.3.283s.05.028.112.06a.573.573 0 0 1 .189.132c.126.125.172.242.182.469.01.197-.016.311-.093.43a.84.84 0 0 1-.596.363c-.074.01-1.5.022-1.543.013zm1.523-.42a.437.437 0 0 0 .204-.209c.035-.073.036-.077.036-.184 0-.103 0-.113-.031-.174a.438.438 0 0 0-.186-.192c-.082-.037-.17-.043-.646-.043h-.447v.84H9.86l.064-.032zm-.186-1.173a.33.33 0 0 0 .111-.027.347.347 0 0 0 .155-.152c.025-.051.026-.061.026-.187 0-.127 0-.136-.027-.188-.046-.094-.14-.158-.264-.179a4.9 4.9 0 0 0-.469-.016l-.407-.01v.21c0 .115 0 .287-.01.382l-.01.173h.409c.224-.001.44 0 .478-.01z"/>
</svg>
