<svg aria-hidden="true" xmlns="http://www.w3.org/2000/svg" viewBox="0 0 14 14" height="1em" width="1em">
  <path d="M6.965 1c-.617 0-1.236.056-1.938.161-1.092.164-2.2.5-2.906.878l-.145.078v6.441l.054.3c.064.352.205.788.341 1.06.234.465.642.958 1.032 1.249.488.363 1.682.99 3.173 1.667.2.091.389.165.42.166.174 0 2.536-1.167 3.234-1.602.956-.597 1.538-1.456 1.741-2.572.053-.292.053-.3.053-3.5v-3.21l-.145-.078c-.721-.387-1.862-.727-2.985-.89A12.915 12.915 0 0 0 6.965 1Zm2.399 1.092c.971 0 2.189.038 2.282.096.02.012.027.842.027 3.09 0 2.586-.006 3.115-.036 3.346-.136 1.029-.625 1.833-1.445 2.375-.364.24-.728.441-1.473.812-.528.263-1.686.804-1.72.803-.006 0-.235-.1-.508-.223-.593-.267-1.828-.877-2.167-1.072-.633-.363-1.004-.658-1.279-1.014-.352-.456-.524-.837-.65-1.439-.054-.255-.055-.294-.063-2.249l-.008-1.99.213-.186a9.512 9.512 0 0 1 1.824-1.233c1.165-.592 2.377-.923 3.958-1.083.212-.02.603-.03 1.044-.033zm.835 2.776a1.25 1.25 0 0 0-.28.032c-.382.09-.685.317-.837.627a.762.762 0 0 0-.092.37c-.03.588.182.915.876 1.342.428.264.558.427.56.705 0 .141-.009.175-.072.264-.1.141-.226.202-.443.213a1.18 1.18 0 0 1-.671-.194 1.527 1.527 0 0 0-.168-.093c-.007 0-.014.165-.014.365v.365l.181.083c.359.166.76.218 1.105.145.439-.093.77-.404.88-.826.047-.177.048-.562.004-.729-.098-.367-.316-.593-.947-.983-.358-.221-.472-.364-.472-.588 0-.127.038-.213.137-.307.215-.204.643-.181.995.053.08.053.152.097.16.097.008 0 .015-.152.015-.338v-.339l-.094-.062c-.198-.131-.526-.207-.823-.202zM7.1 4.895H7c-.153.01-.346.03-.43.05-.215.053-.486.162-.553.224l-.058.053v2.843c0 1.563.008 2.85.017 2.858.009.01.197.014.417.01l.401-.01.006-.91.006-.909h.357c.314.001.377-.01.52-.055.578-.2.95-.764 1.061-1.614.036-.27.015-.953-.035-1.175-.098-.43-.235-.704-.474-.946-.305-.307-.645-.437-1.136-.428zm-1.674.042-.417.01-.418.01-.012 1.668-.012 1.668-.067.049c-.05.038-.113.052-.266.059-.173.01-.215 0-.31-.047-.087-.045-.122-.084-.18-.202l-.073-.145-.012-1.525-.013-1.526h-.823v1.562c0 1.427.004 1.575.044 1.72.133.482.408.755.864.859.228.052.768.034 1.054-.034.12-.03.31-.098.423-.155l.206-.102.006-1.931.006-1.932zm1.752.585c.25.001.435.133.548.39.1.227.133.486.132 1.023-.001.539-.024.701-.133.993-.07.183-.277.4-.425.443a.98.98 0 0 1-.451 0l-.067-.024V5.612l.09-.039a.95.95 0 0 1 .255-.05h.051z"/>
</svg>
