<svg role="img" focusable="false" aria-hidden="true" xmlns="http://www.w3.org/2000/svg" viewBox="0 0 14 14" height="1em" width="1em">
  <path d="m 9.726255,8.3273984 c 0,0 -0.0496,0.323334 -0.25895,0.389086 0,0 -0.0979,0.02951 -0.19722,-0.0094 0,0 -0.0966,-0.03757 -0.15966,-0.12478 0,0 -0.0604,-0.08453 -0.0724,-0.211978 0,0 -0.009,-0.08856 0.004,-0.232116 0,0 0.0201,-0.09928 0.0724,-0.179778 0,0 0.059,-0.09124 0.14222,-0.128802 0,0 0.0684,-0.02684 0.15698,-0.02012 0,0 0.0858,0.0067 0.15026,0.04025 0,0 0.19723,0.15965 0.16234,0.477634 m -2.30767,1.034424 c 0,0 -0.15966,0.107335 -0.38372,0.09928 0,0 -0.19991,-0.0067 -0.3864,-0.09794 0,0 -0.0966,-0.04829 -0.14088,-0.146237 0,0 -0.0429,-0.09392 -0.0282,-0.210649 0,0 0.0121,-0.08855 0.0564,-0.161002 0,0 0.051,-0.07916 0.1288,-0.118058 0,0 0.15027,-0.09929 0.36225,-0.09526 0,0 0.20661,0.0041 0.36628,0.09928 0,0 0.0751,0.03488 0.12611,0.108675 0,0 0.0496,0.07246 0.0604,0.158321 0,0 0.0134,0.111356 -0.0295,0.206617 0,0 -0.0416,0.09525 -0.13149,0.15697 m -2.9973,-1.552256 c 0,0 0.0818,-0.03354 0.1771,-0.0094 0,0 0.0805,0.02012 0.15564,0.07782 0,0 0.0859,0.09124 0.10867,0.237476 0,0 0.0174,0.112696 0,0.272358 0,0 -0.0174,0.101974 -0.0631,0.178449 0,0 -0.0563,0.09123 -0.14355,0.128801 0,0 -0.10197,0.03488 -0.20528,0.01877 0,0 -0.11135,-0.01877 -0.17844,-0.09123 0,0 -0.0912,-0.108676 -0.10465,-0.277731 0,0 -0.0121,-0.147577 0.0362,-0.304558 0,0 0.0255,-0.07514 0.0832,-0.138195 0,0 0.0617,-0.06977 0.13416,-0.09257 m 3.90934,-5.009471 c -0.0557,0 -0.11576,0.0057 -0.17681,0.0198 0,0 -0.24552,0.05635 -0.44811,0.237477 l -0.003,0.0013 c 0,0 -0.20795,0.187819 -0.37164,0.43737 0,0 -0.18111,-0.0054 -0.36626,-0.0067 l -0.15029,0 c 0,0 -0.12343,-0.0067 -0.35823,0.0094 l -0.35015,0.01206 c 0,0 -0.41325,0.02147 -0.84795,0.116729 0,0 -0.12343,0.008 -0.20393,-0.03488 0,0 -0.3864,-0.199904 -0.95527,-0.386394 l -0.29384,-0.07515 c 0,0 -0.18246,-0.04426 -0.31126,-0.05768 0,0 -0.36492,-0.03623 -0.58093,0.143556 0,0 -0.26163,0.30724 -0.38506,0.707059 0,0 -0.0859,0.261613 -0.11002,0.634605 0,0 -0.008,0.232094 0.0483,0.509823 0,0 0.0308,0.156993 0.12342,0.492411 0,0 0.0148,0.0456 -0.0121,0.09525 0,0 -0.49508,0.858668 -0.52191,1.709294 0,0 -0.003,0.01207 -10e-4,0.143556 0,0 0,0.08587 -0.051,0.11942 l -0.25894,0.02413 -0.3314,0.03757 c 0,0 -0.19991,0.02279 -0.31798,0.07915 0,0 -0.0926,0.03893 -0.0952,0.161023 0,0 0.007,0.05096 0.0523,0.06975 0,0 0.0979,0.0161 0.2388,-0.0013 l 0.2348,-0.0255 0.32873,-0.02817 0.12072,-0.0026 c 0,0 0.0698,0.0041 0.0966,0.05098 0,0 0.0282,0.09793 0.0751,0.321993 0,0 0.0443,0.209309 0.0791,0.317984 0,0 0.0147,0.03891 10e-4,0.0711 0,0 -0.0161,0.03622 -0.0684,0.05635 l -0.26834,0.07782 c 0,0 -0.15562,0.04832 -0.25624,0.111379 0,0 -0.0429,0.01473 -0.0671,0.06036 0,0 -0.0201,0.04026 -0.0148,0.07247 0,0 0.005,0.03085 0.0577,0.05769 0,0 0.0604,0.03086 0.12883,0.02012 0,0 0.12342,-0.02014 0.22137,-0.05233 l 0.24417,-0.05097 c 0,0 0.13553,-0.01877 0.21737,0.06442 l 0.10732,0.18916 0.11539,0.186501 c 0,0 0.0107,0.02549 0.0617,0.08855 0,0 0.0268,0.02817 0.0201,0.07379 0,0 -0.008,0.04964 -0.0563,0.07515 0,0 -0.14759,0.09391 -0.45349,0.2669736 0,0 -0.0724,0.04296 -0.14757,0.106017 0,0 -0.10467,0.0872 -0.13955,0.156959 l 0,0.08052 c 0,0 0.005,0.04828 0.0349,0.06975 0,0 0.0483,0.02014 0.10062,0.01342 0,0 0.0483,-0.0067 0.0858,-0.0349 l 0.37433,-0.230743 c 0,0 0.22407,-0.139536 0.38239,-0.2039356 0,0 0.0349,-0.02147 0.0791,-0.02147 0,0 0.0483,0.0013 0.0832,0.03354 0,0 0.27772,0.2173386 0.43738,0.3273546 0,0 0.41056,0.283113 0.74733,0.421297 0,0 0.41591,0.169045 0.74998,0.250891 0,0 0.30994,0.07513 0.77146,0.127451 l 0.67622,0.06574 c 0,0 0.79695,0.07246 1.58451,0.01207 0,0 0.39445,-0.0295 0.6279,-0.07513 0,0 0.36628,-0.0416 0.76609,-0.15429 0,0 0.28979,-0.08186 0.54337,-0.18382 0,0 0.24822,-0.09928 0.46961,-0.244179 0,0 0.15696,-0.101974 0.43737,-0.324685 0,0 0.18917,-0.166363 0.34883,-0.3448006 0,0 0.0242,-0.02685 0.0644,-0.04026 l 0.0805,-0.0013 c 0,0 0.0496,0.01207 0.13149,0.04964 0,0 0.0926,0.04427 0.13015,0.05634 l 0.28845,0.1274606 c 0,0 0.17309,0.07917 0.29652,0.09794 0,0 0.0456,0.0027 0.0751,-0.02949 0,0 0.0255,-0.02684 0.0268,-0.06172 0,0 0.0228,-0.08052 -0.055,-0.1502796 0,0 -0.13015,-0.09257 -0.35018,-0.199904 l -0.3609,-0.177097 c 0,0 -0.047,-0.02416 -0.059,-0.05904 0,0 -0.009,-0.02817 0.005,-0.05098 l 0.0939,-0.210638 0.0926,-0.21334 0.0443,-0.116717 c 0,0 0.0295,-0.06844 0.0912,-0.08051 l 0.27102,0.01609 0.26566,0.03623 0.15697,0.0054 c 0,0 0.0979,0 0.15162,-0.03354 0,0 0.0241,-0.01878 0.0241,-0.06442 0,0 0,-0.04561 -0.0268,-0.06037 0,0 -0.18113,-0.105993 -0.41458,-0.147588 l -0.13685,-0.0228 -0.12075,-0.01877 -0.0751,-0.0094 c 0,0 -0.0322,-0.0067 -0.0577,-0.03087 0,0 -0.0268,-0.02547 -0.0215,-0.04828 0,0 0.004,-0.08589 0.0282,-0.254935 0,0 0.0242,-0.169055 0.0268,-0.258943 l 10e-4,-0.09928 c 0,0 -10e-4,-0.06036 0.0335,-0.0872 0,0 0.14758,-0.04292 0.40116,-0.02817 l 0.41593,0.01608 0.13684,-0.0093 c 0,0 0.11001,-0.0161 0.11538,-0.09794 0,0 -0.0121,-0.06439 -0.0805,-0.101962 0,0 -0.008,-0.0054 -0.12344,-0.04966 l -0.31259,-0.03488 -0.3341,-0.0093 -0.0952,0.0054 c 0,0 -0.0563,0.0054 -0.0845,0 0,0 -0.0309,0.0013 -0.0537,-0.02951 0,0 -0.0201,-0.02549 -0.0228,-0.055 l -0.0832,-0.532653 c 0,0 -0.0496,-0.236115 -0.16236,-0.482984 0,0 0.0832,-0.115377 0.20663,-0.327366 l 0.008,-0.01746 c 0,0 0.19856,-0.417254 0.20393,-0.829148 0,0 0.003,-0.114046 -0.0134,-0.224062 0,0 -0.0201,-0.163683 -0.13819,-0.297846 0,0 -0.11807,-0.132811 -0.28041,-0.174406 l -0.0684,-0.0161 c 0,0 -0.0389,-0.658763 -0.2294,-1.090783 0,0 -0.10599,-0.191863 -0.1771,-0.273709 0,0 -0.12344,-0.143546 -0.28042,-0.178438 0,0 -0.14757,-0.02681 -0.33675,-0.0013 l -0.31799,0.06171 c 0,0 -0.18919,0.055 -0.34482,0.118057 0,0 -0.14087,0.05636 -0.33139,0.151619 l -0.30052,0.182469 c 0,0 -0.25893,-0.391777 -0.61314,-0.533993 l -0.005,-0.0013 -0.004,-0.0027 c 0,0 -0.12831,-0.04604 -0.29547,-0.04528 z m 2.4408,0.439742 c 0.0926,0.01077 0.13685,0.09525 0.13685,0.09525 0.0966,0.144896 0.1516,0.287112 0.1516,0.287112 0.0496,0.127462 0.0832,0.303218 0.0832,0.303218 l 0.0376,0.248211 0.0215,0.186501 c -0.39445,-0.0161 -0.76877,0.108675 -0.76877,0.108675 -0.0671,0.01878 -0.12612,0.07112 -0.12612,0.07112 l -0.0738,-0.08991 c -0.13282,-0.143556 -0.30858,-0.221371 -0.30858,-0.221371 -0.17039,-0.07648 -0.3676,-0.08318 -0.3676,-0.08318 -0.008,-0.0966 -0.0335,-0.170396 -0.0335,-0.170396 l -0.001,-0.0041 -0.0215,-0.06305 -0.0751,-0.190532 c 0.35555,-0.199905 0.52325,-0.254913 0.52325,-0.254913 0.17174,-0.06709 0.35554,-0.12745 0.35554,-0.12745 0.23211,-0.07648 0.32602,-0.08588 0.32602,-0.08588 l 0.14089,-0.0093 z m -7.33627,0.225404 c 0.10465,0.0026 0.34349,0.05365 0.34349,0.05365 0.59704,0.151609 1.17126,0.48838 1.17126,0.48838 0.1288,0.0738 0.33005,0.03488 0.33005,0.03488 l 0.1704,-0.03891 c 0.10197,-0.02415 0.1677,-0.02817 0.1677,-0.02817 l 0.60913,-0.04427 c 0.43873,-0.01744 0.88415,-0.02014 0.88415,-0.02014 l -0.0376,0.08991 -0.003,0.01076 c -0.1543,0.46422 -0.1704,0.763396 -0.1704,0.763396 -0.0282,0.536674 0.29918,0.847945 0.29918,0.847945 l 0.005,0.0067 0.007,0.0054 c 0.23882,0.199904 0.57692,0.222733 0.57692,0.222733 0.33811,0.02281 0.79024,-0.128823 0.79024,-0.128823 l 0.0295,-0.01077 c 0.0402,-0.01877 0.0805,-0.05231 0.0805,-0.05231 0.13954,0.207957 0.35556,0.326014 0.35556,0.326014 0.21734,0.119409 0.46152,0.118057 0.46152,0.118057 0.13282,0.0013 0.267,-0.03354 0.267,-0.03354 0.008,0.06306 0.0402,0.119419 0.0402,0.119419 0.10734,0.236137 0.29652,0.411904 0.29652,0.411904 0.22674,0.209298 0.49508,0.24954 0.49508,0.24954 0.40652,0.06038 0.76743,-0.252242 0.76743,-0.252242 l 0.0349,0.112718 c 0.0939,0.300538 0.12881,0.65338 0.12881,0.65338 0,0.0577 -0.0416,0.08051 -0.0416,0.08051 -0.0483,0.02013 -0.13953,0.03085 -0.13953,0.03085 l -0.14355,0.02147 -0.1382,0.03087 c -0.0832,0.01744 -0.14624,0.04964 -0.14624,0.04964 -0.0684,0.05098 -0.051,0.130121 -0.051,0.130121 0.0362,0.09258 0.1449,0.09795 0.1449,0.09795 l 0.21467,-0.02818 0.21467,-0.03086 0.0148,0.0013 c 0.0402,0.0041 0.051,0.01341 0.051,0.01341 0.0228,0.01743 0.0188,0.07244 0.0188,0.07244 0.005,0.147588 -0.008,0.217361 -0.008,0.217361 -0.0215,0.183809 -0.0523,0.355534 -0.0523,0.355534 -0.0215,0.03488 -0.0764,0.03623 -0.0764,0.03623 l -0.0899,-0.0054 -0.161,0.0067 c -0.0751,0.0228 -0.0952,0.101951 -0.0952,0.101951 -0.003,0.07246 0.0952,0.115388 0.0952,0.115388 l 0.17443,0.05101 c 0.0268,0.008 0.0389,0.0322 0.0389,0.0322 0.0148,0.03086 -0.004,0.07645 -0.004,0.07645 -0.0644,0.207957 -0.2187,0.472274 -0.2187,0.472274 -0.0416,0.09526 -0.14623,0.06842 -0.14623,0.06842 l -0.16235,-0.03621 c -0.0939,-0.01744 -0.15563,0.02683 -0.15563,0.02683 -0.0295,0.0161 -0.0376,0.05635 -0.0376,0.05635 -0.007,0.03488 0.004,0.06442 0.004,0.06442 0.0188,0.05635 0.0818,0.09525 0.0818,0.09525 0.0362,0.02281 0.11406,0.06038 0.11406,0.06038 0.0215,0.01475 0.0241,0.03757 0.0241,0.03757 0.003,0.0228 -0.0174,0.04828 -0.0174,0.04828 -0.11538,0.147588 -0.29518,0.2857826 -0.29518,0.2857826 -0.12747,0.09526 -0.33407,0.220041 -0.33407,0.220041 -0.59167,0.335408 -1.25581,0.444094 -1.25581,0.444094 -0.42262,0.107335 -1.15786,0.1476 -1.15786,0.1476 -0.90831,0.05098 -1.76296,-0.04563 -1.76296,-0.04563 -0.41055,-0.0322 -0.79157,-0.12343 -0.79157,-0.12343 -0.14625,-0.03488 -0.57962,-0.163693 -0.57962,-0.163693 -0.31395,-0.09391 -0.65472,-0.289783 -0.65472,-0.289783 -0.27907,-0.159661 -0.6051,-0.4065316 -0.6051,-0.4065316 -0.0148,-0.0094 -0.004,-0.04024 -0.004,-0.04024 0.0349,-0.03623 0.15295,-0.09392 0.15295,-0.09392 0.10062,-0.04963 0.13686,-0.112706 0.13686,-0.112706 0.007,-0.05233 -0.0188,-0.09526 -0.0188,-0.09526 -0.0295,-0.04963 -0.0845,-0.05232 -0.0845,-0.05232 -0.0899,-0.0041 -0.1838,0.02953 -0.1838,0.02953 l -0.17309,0.07244 c -0.13416,0.02548 -0.19857,-0.05635 -0.19857,-0.05635 l -0.14759,-0.201256 c -0.0778,-0.116728 -0.12342,-0.21601 -0.12342,-0.21601 -0.0161,-0.03086 0,-0.06038 0,-0.06038 0.0147,-0.02683 0.0483,-0.04159 0.0483,-0.04159 0.10867,-0.02952 0.27905,-0.09123 0.27905,-0.09123 0.0376,-0.02683 0.0416,-0.04427 0.0416,-0.04427 0.0107,-0.04158 -0.003,-0.07917 -0.003,-0.07917 -0.0161,-0.04293 -0.0617,-0.055 -0.0617,-0.055 l -0.15696,-0.01066 -0.1771,0.01876 c -0.0724,0.02684 -0.11808,-0.0134 -0.11808,-0.0134 -0.13014,-0.281751 -0.15429,-0.55546 -0.15429,-0.55546 l 0,-0.05904 c -10e-4,-0.0389 0.0188,-0.06037 0.0188,-0.06037 0.0201,-0.02147 0.0563,-0.02281 0.0563,-0.02281 l 0.12343,0.0026 0.1221,0.0094 c 0.051,-0.0054 0.17844,0 0.17844,0 0.10465,-0.0094 0.12613,-0.09659 0.12613,-0.09659 0.004,-0.07917 -0.0778,-0.114047 -0.0778,-0.114047 -0.10197,-0.02818 -0.14223,-0.04698 -0.14223,-0.04698 l -0.18917,-0.02951 -0.18649,-0.02013 c -0.0228,-0.0027 -0.0456,-0.02414 -0.0456,-0.02414 -0.0215,-0.02013 -0.0349,-0.04561 -0.0349,-0.04561 0.009,-0.787565 0.33005,-1.48122 0.33005,-1.48122 0.0644,-0.170395 0.19856,-0.379693 0.19856,-0.379693 l 0.24418,-0.359566 c 0.0376,-0.0805 0.0215,-0.144897 0.0215,-0.144897 -0.0228,-0.07514 -0.0993,-0.08587 -0.0993,-0.08587 -0.0429,-0.008 -0.0885,0.01206 -0.0885,0.01206 l -0.0765,0.04427 c -0.0376,0.01207 -0.0537,-0.01609 -0.0537,-0.01609 -0.0496,-0.09526 -0.0791,-0.220021 -0.0791,-0.220021 -0.0228,-0.0966 -0.0376,-0.237498 -0.0376,-0.237498 0.008,-0.351513 0.0805,-0.613137 0.0805,-0.613137 0.0845,-0.30858 0.26968,-0.531291 0.26968,-0.531291 0.10734,-0.110016 0.31663,-0.105984 0.31663,-0.105984 z"/>
</svg>
