<svg role="img" focusable="false" aria-hidden="true" xmlns="http://www.w3.org/2000/svg" viewBox="0 0 14 14" height="1em" width="1em">
  <path fill="#c1272d" d="M12.99995312 6.99189619c0-.60265152-.1802375-1.18031173-.5359299-1.7175076-.3193073-.48214934-.76666575-.90892395-1.32950935-1.26864872-1.08686393-.69422379-2.51540076-1.07668924-4.02214677-1.07668924-.50329583 0-.9994178.04252742-1.4805825.12683205-.29848904-.2794525-.64799222-.53086598-1.01779791-.72957734-1.97562605-.95754682-3.6139867-.02250625-3.6139867-.02250625s1.5232506 1.25134706 1.27554127 2.34815125c-.68142336.67607813-1.05085395 1.49127297-1.05085395 2.33994585 0 .00262573.00014067.00539212.00014067.00811162 0 .00267262-.00014067.00529835-.00014067.00815851 0 .84867288.36928992 1.66386772 1.05085395 2.33980519C2.52325059 10.44486948 1 11.6962634 1 11.6962634s1.63836064.93489992 3.61398669-.02250623c.3697588-.19871137.7191682-.4502655 1.0177979-.72957735.48125848.08421086.97728668.12669139 1.48058251.12669139 1.50683979 0 2.93523595-.38218412 4.02214677-1.0764548.5628436-.35967788 1.01020205-.78631183 1.32955625-1.26869562C12.81971562 8.18861872 13 7.61067718 13 7.008307c0-.00281328-.00014066-.00539212-.00014066-.00815851l.00009378-.0082523z"/>
  <path fill="#fff" d="M7.1123671 3.78105255c2.79007069 0 5.0519949 1.44480696 5.0519949 3.22702 0 1.78207237-2.26192421 3.2269731-5.0519949 3.2269731-.62126605 0-1.21627483-.07183242-1.765896-.20279061-.55867058.67199887-1.78760517 1.60638302-2.98146753 1.30442427.38832645-.4170688.96364226-1.12184238.84051436-2.28278937-.71560471-.55670127-1.14509883-1.26925827-1.14509883-2.0458174-.00014067-1.7823537 2.26178354-3.22701999 5.051948-3.22701999"/>
  <path fill="#c1272d" d="M7.1123671 7.78303748c.37069656 0 .6711549-.30045833.6711549-.67115489 0-.37064967-.30045834-.671108-.6711549-.671108-.37064967 0-.671108.30045833-.671108.671108 0 .37069656.30045833.6711549.671108.6711549zm2.33333464 0c.37064967 0 .67115489-.30045833.67115489-.67115489 0-.37064967-.30050522-.671108-.6711549-.671108-.37064966 0-.671108.30045833-.671108.671108 0 .37069656.30045834.6711549.671108.6711549zm-4.66676305-.00014066c.37060278 0 .67101423-.30041145.67101423-.67096734 0-.37060279-.30041145-.67106112-.67096734-.67106112-.37064968 0-.67106112.30045833-.67106112.67101423 0 .37060278.30041144.67101423.67101423.67101423z"/>
  <path fill="#ccc" d="M7.1123671 9.81047478c-.62126605 0-1.21627483-.06236105-1.765896-.17583002-.49326181.51431452-1.50923109 1.20567814-2.56210122 1.18026484-.1387416.21024581-.28953342.38213724-.4193663.52167594 1.19386235.30195874 2.42279694-.63233163 2.98146751-1.30442428.54966807.13105197 1.14472373.20279062 1.76589601.20279062 2.76765822 0 5.0152347-1.42192561 5.05105713-3.1843988C12.1276018 8.57825803 9.88002533 9.8104279 7.1123671 9.8104279z"/>
</svg>
