<svg aria-hidden="true" xmlns="http://www.w3.org/2000/svg" viewBox="0 0 14 14" height="1em" width="1em">
  <path d="m11.691 2.483-.014-.158c0-.01 0-.018-.002-.03l-.003-.035c-.03-.252-.238-.445-.541-.445H2.867c-.302 0-.508.192-.54.443l-.001.037-.002.03-.015.157-.615 7.331c0 .206.245.375.546.375h9.523c.301 0 .545-.169.547-.375l-.619-7.33ZM8.848 7.136c-.133.349-.439.598-.772.75-.363.167-.768.231-1.166.237a5.15 5.15 0 0 1-1.258-.135 3.471 3.471 0 0 1-.621-.19c-.177-.077-.322-.253-.318-.452.003-.202.149-.37.334-.444.194-.077.38-.045.569.023.42.145.865.205 1.309.19.253-.007.695-.142.624-.533a.593.593 0 0 0-.173-.29.805.805 0 0 0-.307-.16c-.207-.056-.42-.099-.63-.144-.423-.094-.649-.164-1.024-.391-.33-.197-.401-.324-.452-.62-.067-.388.123-.695.435-.93.698-.53 1.366-.511 2.19-.36.202.038.445.072.622.18.175.105.273.318.198.516-.07.188-.249.216-.442.195-.208-.022-.293-.077-.49-.114-.411-.075-.563-.138-.958-.026-.157.046-.37.195-.29.392.067.162.316.215.463.255.407.109.724.234 1.129.353.38.11.667.32.903.654.211.298.256.708.128 1.048l-.002-.003v-.001ZM7 12.185h5.221c.43 0 .779-.258.779-.574a.453.453 0 0 0-.008-.074l-.803-8.505a.545.545 0 0 0-.347-.423l.608 7.203v1.272c0 .284-.307.517-.69.517H2.24c-.379 0-.689-.235-.689-.518v-1.27l.607-7.203a.547.547 0 0 0-.347.424l-.803 8.502A.313.313 0 0 0 1 11.61c0 .315.347.575.778.575H7zm0-.727h4.761c.3 0 .548-.169.548-.374v-.961a.772.772 0 0 1-.547.204H2.239a.786.786 0 0 1-.547-.203v.958c0 .206.245.375.547.375H7v.001z"/>
</svg>
