<svg role="img" focusable="false" aria-hidden="true" xmlns="http://www.w3.org/2000/svg" viewBox="0 0 14 14" height="1em" width="1em">
  <path d="M 3.782,2.3515 5.507,4.2185 4.29,6.6175 6.86,6.157 8.03,8.98 13,2.463 3.782,2.3515 Z M 3.464,6.3955 3.9425,6.002 3.3255,6.197 3.2625,6.107 3.5175,5.8595 3.183,5.9945 C 1.9065,6.4895 1,7.7275 1,9.175 1,10.1505 1.411,11.0275 2.0665,11.6485 1.785,11.1535 1.624,10.5815 1.624,9.971 1.624,8.5385 2.5285,7.2635 3.7815,6.761 L 3.939,6.378 3.564,6.5435 3.4585,6.401 3.464,6.3955 Z M 5.646,5.4105 6.445,4 11.144,2.8995 5.646,5.4105 Z"/>
</svg>
