<svg aria-hidden="true" xmlns="http://www.w3.org/2000/svg" viewBox="0 0 14 14" height="1em" width="1em">
  <path d="M12.002 6.304c-.007-.021-.021-.033-.033-.047l-1.64-.905c-.022-.014-.047-.014-.073 0l-1.38.844a.077.077 0 0 0-.033.06l-.022.737-.562-.375a.069.069 0 0 0-.073 0l-.81.497-.033-.823c0-.021-.015-.047-.033-.054l-.844-.57.79-.407a.076.076 0 0 0 .04-.068l-.134-3.1c0-.022-.021-.048-.04-.062L5 1.007C4.978 1 4.959 1 4.945 1l-2.9.905A.077.077 0 0 0 2 1.99l.642 3.12c.021.08.797.642.905.724l-.63.302c-.034.022-.048.054-.04.08l.482 2.35c.014.069.556.542.635.617l-.407.249c-.022.014-.04.047-.033.072.033.167.36 1.822.396 1.854l1.526 1.62c.014.014.032.014.053.021.015 0 .026-.007.04-.014l1.962-1.568c.021-.014.026-.033.026-.054l-.047-1.078.656.555a.077.077 0 0 0 .094 0l1.567-1.25c.021-.014.026-.033.026-.054l.054-.783.475.328a.068.068 0 0 0 .087 0l1.28-1.024c.014-.007.026-.026.026-.047.02-.152.241-1.66.227-1.706zm-4.8.112.094 2.17-2.124 1.435-.328-2.264 2.358-1.34zm-.18-4.218.126 2.953L4.65 6.449l-.462-3.16 2.832-1.09Zm-4.24 2.859-.61-2.932L4.04 3.283l.455 3.115-1.713-1.341zm.717 3.464-.443-2.13 1.64 1.366.322 2.19-1.52-1.426zm.57 2.759-.322-1.573 1.446 1.427.228 1.58-1.353-1.434zm1.511 1.51-.248-1.661L7.34 9.69l.073 1.641-1.833 1.46zm1.922-2.697c0-.08.021-.537-.047-.589l-.57-.468.523-.35c.054-.04.026-.133.026-.187l.689.53.014 1.6-.635-.536zm2.21-.596-1.427 1.14L8.27 9.03l1.54-1.1-.099 1.568zm.65-.602-.448-.314.046-.797c.007-.021-.007-.047-.025-.06l-.966-.638.014-.703 1.514.951-.136 1.561zm1.279-.933-1.132.898.134-1.526 1.197-.858-.199 1.486Z"/>
</svg>
