<svg role="img" focusable="false" aria-hidden="true" xmlns="http://www.w3.org/2000/svg" viewBox="0 0 14 14" height="1em" width="1em">
  <path d="m 9.0778708,5.67012 c 0,-1.01589 -1.183068,-0.94731 -2.04465,-0.63868 -0.02786,0.84443 -0.05358,1.72959 -0.0643,2.5676 0.015,0.06 0.05572,0.13288 0.32363,0.13288 0.788712,0 1.787462,-0.91731 1.785318,-2.0618 z m -4.168601,1.54742 c 0.0043,0 0.13931,-0.0579 0.240043,-0.0579 0.570102,0 0.44365,0.94517 -0.308627,0.94517 -0.460796,0 -0.795142,-0.38793 -0.795142,-0.92159 0,-0.90016 0.91945,-2.04894 2.158243,-2.7112 0.02143,-0.26576 0.0643,-0.47151 0.22504,-0.60439 0.240043,-0.1929 0.570102,-0.075 0.632256,0.2379 1.547419,-0.4758 2.89766,0.0214 2.89766,1.54313 0,1.66958 -1.699589,3.27058 -3.002679,2.96196 -0.0021,0.84443 0.01929,1.59457 0.05787,2.14324 l 0,0.004 c 0.0043,0.0729 0.01286,0.26791 -0.113591,0.40936 -0.205751,0.22718 -0.715842,0.21432 -0.78014,-0.47794 -0.08787,-0.9516 0.0043,-4.41722 0.03001,-5.19736 -0.460797,0.32149 -1.253796,1.07805 -1.253796,1.62672 0.0043,0.0536 0.0086,0.0857 0.01286,0.0986 z M 1.0000002,5.39579 c 0,0 -0.00214,0.80157 0.8230041,0.80157 l 0.6429719,0 0.4800858,4.65511 c 0,0 0,0.94946 0.9580278,0.94946 l 6.1918202,0 c 0,0 0.958028,-0.009 0.958028,-0.94946 l 0.480086,-4.65511 0.642972,0 c 0,0 0.823004,0.0257 0.823004,-0.80157 0,0 0.0021,-0.80158 -0.823004,-0.80158 l -0.645115,0 C 11.375424,4.04555 10.884623,3.00179 8.9728528,3.00179 l -0.600108,0 0,-0.40936 c 0,0 -0.05787,-0.39436 -0.452223,-0.39436 l -1.8389,0 c 0,0 -0.452224,0 -0.452224,0.39436 l 0,0.40936 -0.60225,0 c 0,0 -2.2504018,0.09 -2.582604,1.59242 l -0.6215395,0 c 0,0 -0.8230041,-0.0257 -0.8230041,0.80158 z"/>
</svg>
