<svg aria-hidden="true" xmlns="http://www.w3.org/2000/svg" viewBox="0 0 14 14" height="1em" width="1em">
  <path d="M1 1v12h12V1H1Zm7.023 8.957c-.177.08-.89.16-1.34-.38-.245-.284-.677-.892-1.13-1.704-.238 0-.393 0-.573-.016V9.1c0 .63.161.568.691.64v.217a26.319 26.319 0 0 0-.953-.021c-.351 0-.7.016-.9.021V9.74c.415-.078.59-.035.59-.64V6.17c0-.606-.172-.563-.59-.64v-.218c.69.027 1.422-.016 1.899-.016.85 0 1.497.386 1.497 1.222 0 .565-.447 1.13-1.05 1.272a8.933 8.933 0 0 0 1.13 1.578c.194.209.461.394.73.394v.195zm.614-3.616c-.624 0-.863-.42-.863-.862v-.863c0-.327.236-.814.91-.814.676 0 .815.48.815.48l-.287.192s-.147-.335-.527-.335c-.212 0-.528.196-.528.528v.718c0 .359.177.624.48.624.377 0 .576-.292.576-.718h-.48v-.287h.814c0 .55.126 1.337-.91 1.337zm-3.12 1.197c-.253 0-.365-.008-.537-.021V5.65c.172-.016.402-.016.603-.016.624 0 .996.327.996.924 0 .587-.401.98-1.063.98z"/>
</svg>
