<svg role="img" focusable="false" aria-hidden="true" xmlns="http://www.w3.org/2000/svg" viewBox="0 0 14 14" height="1em" width="1em">
  <path d="m 2.0523438,6.37187 c 0.00234,-0.002 0.00469,-0.007 0.00703,-0.009 0,0.002 0,0.007 -0.00234,0.009 l -0.00469,0 z M 7,3.26406 c -0.1664062,0 -0.3421875,0.0141 -0.5015625,0.0399 l 0.086719,1.57968 -0.515625,-1.5 C 5.7343752,3.47034 5.4203127,3.60396 5.1320314,3.77271 L 5.8210939,5.21177 4.7640627,4.0188 C 4.4968752,4.22739 4.255469,4.46646 4.0468752,4.74302 L 5.2328125,5.80703 3.8007812,5.11094 C 3.634375,5.39922 3.4984375,5.71328 3.4117188,6.04844 L 4.91875,6.57812 3.325,6.48442 C 3.303906,6.65083 3.292187,6.82661 3.292187,7.00005 c 0,0.17344 0.014063,0.34219 0.032813,0.50859 l 1.5867187,-0.0937 -1.5,0.52969 c 0.086719,0.33516 0.2203125,0.64922 0.3890625,0.94453 L 5.2328125,8.19297 4.0398437,9.25 C 4.2484375,9.52422 4.4875,9.77266 4.7640625,9.97422 L 5.8164063,8.78125 5.125,10.22031 c 0.2882813,0.17344 0.6023437,0.30703 0.9375,0.3961 l 0.5226563,-1.51407 -0.09375,1.59375 c 0.1664062,0.0258 0.3421875,0.0399 0.5085937,0.0399 0.1734375,0 0.3421875,-0.0141 0.5085935,-0.0399 l -0.09375,-1.60781 0.529688,1.52578 c 0.335156,-0.0937 0.649219,-0.22031 0.9375,-0.39609 L 8.1929685,8.78125 9.2453125,9.97422 C 9.5195315,9.76562 9.7609375,9.52656 9.9624995,9.25 L 8.7765625,8.19297 10.208593,8.88203 C 10.375001,8.59375 10.510938,8.27969 10.597656,7.9375 L 9.0976565,7.41484 10.677343,7.50854 c 0.02578,-0.1664 0.03281,-0.33515 0.03281,-0.50859 0,-0.17344 -0.007,-0.34922 -0.03281,-0.51563 L 9.0906245,6.57802 10.590624,6.05537 C 10.503905,5.72021 10.377344,5.39912 10.201563,5.11084 L 8.7742185,5.80693 9.9601565,4.74287 C 9.7515625,4.46865 9.5124995,4.22724 9.2429685,4.01865 l -1.057031,1.19297 0.689062,-1.43203 c -0.288281,-0.17344 -0.602343,-0.30703 -0.9375,-0.3961 l -0.522656,1.50703 0.09375,-1.58671 C 7.3421875,3.27571 7.1734375,3.26391 7,3.26391 Z M 12.142188,4 l 0,6 L 7,13 1.8578125,10 l 0,-6 L 7,1 12.142188,4 Z M 11.741407,4.24141 7,1.48984 2.2585937,4.24141 l 0,5.51015 L 7,12.51016 l 4.741407,-2.7586 0,-5.51015 z M 7,1.86953 l 4.399219,2.56406 0,5.13047 L 7,12.13047 2.6007812,9.56406 l 0,-5.12812 L 7,1.86953 Z M 7,3.0625 C 4.8367187,3.0625 3.0882812,4.82266 3.0882812,7 3.0882812,9.17031 4.8367187,10.93047 7,10.93047 9.1562505,10.93047 10.911718,9.17031 10.911718,7 10.911718,4.82266 9.1562505,3.0625 7,3.0625 Z"/>
</svg>
