<svg role="img" focusable="false" aria-hidden="true" xmlns="http://www.w3.org/2000/svg" viewBox="0 0 14 14" height="1em" width="1em">
  <path d="m 5.05,13 3.9,0 0,-2.925 -0.975,-0.9005 -1.95,0 -0.975,0.9005 0,2.925 z m 5.025,-7.95 -0.9005,0.975 0,1.95 0.9005,0.975 2.925,0 0,-3.9 -2.925,0 z M 8.95,1 l -3.9,0 0,2.925 0.975,0.9005 1.95,0 L 8.95,3.925 8.95,1 Z m 4.05,12 0,-2.925 -0.9005,-0.9005 -2.925,0 0,3.8255 L 13,13 Z M 1.9,1 1,1.9 1,4.825 4.825,4.825 4.825,1 1.9,1 Z m 7.275,0 0,2.925 0.9,0.9 2.925,0 L 13,1 9.175,1 Z M 7,7.525 C 6.7,7.525 6.475,7.3 6.475,7 6.475,6.7 6.7,6.475 7,6.475 7.3,6.475 7.525,6.7 7.525,7 7.525,7.3 7.3,7.525 7,7.525 m -2.175,2.55 -0.9,-0.9 -2.925,0 0,3.825 2.925,0 0.9005,-0.9005 0,-2.0245 z m 0,-5.025 -3.825,0 0,3.9 2.925,0 0.9005,-0.975 0,-2.925 z"/>
</svg>
