<svg role="img" focusable="false" aria-hidden="true" xmlns="http://www.w3.org/2000/svg" viewBox="0 0 14 14" height="1em" width="1em">
  <path d="m 9.6693761,6.3223595 c -0.02637,-0.304584 -0.08225,-0.608381 -0.160162,-0.903915 -0.24595,-0.932249 -0.655605,-1.824752 -1.233292,-2.598413 -0.157408,-0.210927 -0.327409,-0.412409 -0.509215,-0.602873 -0.187315,-0.196366 -0.395094,-0.376598 -0.525743,-0.620974 -0.08264,-0.154654 -0.161343,-0.311274 -0.241621,-0.467108 -0.0012,0.0488 -0.0043,0.09759 -0.0043,0.145996 0,-0.0488 0.0035,-0.09759 0.0043,-0.14639 -0.01495,-0.03738 -0.02991,-0.07516 -0.05116,-0.128681 -0.0087,0.02951 -0.01417,0.03975 -0.01417,0.05076 -0.0067,0.253821 -0.150718,0.426182 -0.32977,0.587132 -0.201482,0.181019 -0.389191,0.377386 -0.582803,0.567062 0.0067,0.0087 0.01417,0.01731 0.02164,0.02597 -0.0075,-0.0087 -0.01495,-0.01692 -0.02164,-0.02597 -0.57572,0.757133 -1.0829674,1.566604 -1.3816491,2.475241 -0.086968,0.264446 -0.1554404,0.534794 -0.2034499,0.809078 -0.1019216,0.582803 -0.1491441,1.149078 -0.1164819,1.739358 0.018102,0.326228 0.075162,0.647341 0.1601627,0.963337 0.3089132,1.147898 0.9361842,2.0998235 1.7936642,2.9089005 0.159376,0.150325 0.331344,0.286875 0.497803,0.430118 3.93e-4,-0.0016 7.87e-4,-0.0028 0.0012,-0.0043 -3.94e-4,0.0016 -7.88e-4,0.0028 -0.0012,0.0043 0.0244,0.08421 0.04919,0.168426 0.07359,0.25264 0.02282,0.130648 0.04565,0.261297 0.06847,0.391946 0.01102,0.136157 0.02164,0.272709 0.03266,0.408867 -3.94e-4,0.08303 -0.0039,0.166459 0.0012,0.249098 0.0012,0.02125 0.02912,0.04093 0.04447,0.06139 3.94e-4,-7.87e-4 7.87e-4,-0.0016 0.0016,-0.0024 -3.93e-4,7.87e-4 -7.87e-4,0.0016 -0.0016,0.0024 0.04644,0.01613 0.09248,0.03266 0.138913,0.0488 0.04171,0.01613 0.08343,0.03266 0.144422,0.05627 -0.0091,-0.136158 -0.01692,-0.249886 -0.02479,-0.363614 -3.94e-4,-0.119236 -7.87e-4,-0.238865 -0.0012,-0.358102 -0.0024,0.0028 -0.0055,0.0055 -0.0083,0.0083 0.0028,-0.0028 0.0055,-0.0055 0.0083,-0.0083 0.01653,-0.181806 0.03345,-0.363612 0.04998,-0.54542 0.0122,-0.03974 0.024,-0.0791 0.0362,-0.118843 0.03463,-0.06139 0.06887,-0.122384 0.103496,-0.183773 0.127894,-0.103103 0.265232,-0.196367 0.382108,-0.310881 0.210927,-0.207385 0.42146,-0.417131 0.609956,-0.644193 0.244769,-0.294353 0.455696,-0.6158575 0.62491,-0.9605815 0.481275,-0.980258 0.704007,-2.073457 0.615465,-3.163508 -7.87e-4,-0.0094 -0.0016,-0.01928 -0.0024,-0.02912 z"/>
</svg>
