<svg role="img" focusable="false" aria-hidden="true" xmlns="http://www.w3.org/2000/svg" viewBox="0 0 14 14" height="1em" width="1em">
  <path d="m 11.179001,4.071085 c 0,2.25559 -1.9862036,4.04312 -5.3560186,4.04312 l -0.98234,0 -0.752767,3.29508 -2.36601,0 2.310903,-10.4093 3.921757,0 c 2.0801066,0 3.2244756,1.30998 3.2244756,3.0711 z m -2.4824266,0.0678 c 0,-0.94473 -0.779185,-1.19542 -1.684835,-1.19542 l -1.044612,0 -0.692039,3.1179 0.929476,0 c 1.350816,-3e-5 2.49201,-0.53074 2.49201,-1.92248 z m 3.1630476,-0.5058 c 0.446942,3.52712 -2.8903096,5.33854 -6.3771546,5.29002 l -0.76133,3.23915 -1.638466,0 -0.18501,0.83776 2.53133,0 0.730923,-3.23435 c 5.0969696,-0.15399 7.0581546,-3.87245 5.6997076,-6.13258 z"/>
</svg>
