<svg role="img" focusable="false" aria-hidden="true" xmlns="http://www.w3.org/2000/svg" viewBox="0 0 14 14" height="1em" width="1em">
  <path d="M 12.142857,1 1.8571429,1 C 1.3857143,1 1,1.38571 1,1.85714 L 1,12.14286 C 1,12.61429 1.3857143,13 1.8571429,13 L 12.142857,13 C 12.614286,13 13,12.61429 13,12.14286 L 13,1.85714 C 13,1.38571 12.614286,1 12.142857,1 Z m -1.714286,6.89464 c 0,1.32322 -0.305357,2.2125 -2.7803567,2.2125 l -0.4526786,0 c -1.18125,0 -1.6714286,-0.3991 -1.8857143,-1.03928 l -0.024107,0 0,0.93214 -1.7142857,0 0,-6.21429 1.7142857,0 0,2.0009 0.029464,0 C 5.4383927,4.96964 6.3785712,4.74732 7.1821427,4.74732 l 0.4633928,0 c 2.4750005,0 2.7803575,0.88661 2.7803575,2.20982 l 0,0.9375 z m -1.7142853,-0.7741 0,0.61339 c 0,0.58125 -0.091071,0.90536 -1.0285714,0.90536 l -1.2133929,0 c -0.7741071,0 -1.18125,-0.17411 -1.18125,-0.95625 l 0,-0.50893 c 0,-0.78482 0.4071429,-0.95625 1.18125,-0.95625 l 1.2133929,0 c 0.9375,-0.005 1.0285714,0.32143 1.0285714,0.90268 z"/>
</svg>
