<svg aria-hidden="true" xmlns="http://www.w3.org/2000/svg" viewBox="0 0 14 14" height="1em" width="1em">
  <path d="M12.817 8.7c-.356-.381-1.084-.6-2.115-.6-.551 0-1.19.055-1.883.185a10.147 10.147 0 0 1-1.156-1.362c-.265-.37-.497-.761-.71-1.147.406-1.272.603-2.308.603-3.055 0-.837-.302-1.71-1.172-1.71a.818.818 0 0 0-.676.4c-.392.705-.215 2.25.46 3.776a35.525 35.525 0 0 1-.852 2.306c-.29.69-.623 1.4-.963 2.051-1.955.794-3.22 1.72-3.338 2.446a.806.806 0 0 0 .229.726c.066.055.318.273.74.273 1.298 0 2.665-2.143 3.36-3.435.533-.18 1.066-.344 1.598-.508a17.676 17.676 0 0 1 1.705-.383c1.37 1.253 2.577 1.452 3.184 1.452.747 0 1.014-.31 1.104-.562a.866.866 0 0 0-.127-.871l.01.02zm-.694.527c-.052.272-.32.454-.694.454-.105 0-.195-.019-.302-.036-.68-.163-1.318-.51-1.954-1.055a8.874 8.874 0 0 1 1.492-.125c.37 0 .691.016.906.072.246.053.636.218.549.69h.01zm-3.767-.855c-.46.095-.958.207-1.474.347-.409.112-.835.238-1.262.386.232-.452.427-.889.605-1.304.214-.51.39-1.036.568-1.525.175.305.37.616.566.891.32.436.656.852.991 1.212v-.01zM6.027 1.62a.389.389 0 0 1 .34-.218c.373 0 .444.435.444.781 0 .585-.177 1.473-.48 2.487-.532-1.412-.569-2.594-.303-3.05Zm-1.954 8.462c-.906 1.524-1.776 2.47-2.31 2.47a.434.434 0 0 1-.265-.092c-.107-.108-.16-.236-.124-.38.106-.546 1.12-1.309 2.7-1.998Z"/>
</svg>
