<svg role="img" focusable="false" aria-hidden="true" xmlns="http://www.w3.org/2000/svg" viewBox="0 0 14 14" height="1em" width="1em">
  <path d="m 7.000001,1 -4.5802892,1.063665 0,1.635306 0,0.443716 0,0.85612 0,0.409721 c 0,-0.02666 -0.00129,0.338022 0.06441,0.830178 0.065699,0.492156 0.1981783,1.165629 0.4669747,1.922469 0.537593,1.513679 1.6331066,3.366834 3.8109445,4.693007 L 7.000896,13 7.239751,12.854182 c 4.327676,-2.652866 4.340539,-7.39298 4.340539,-7.445654 l 0,-1.3553 0,-0.361413 0,-1.62815 L 7.000001,1 Z m 0,0.941106 3.664231,0.850753 0,0.589534 C 9.848321,3.134873 8.580766,2.84464 7.000001,2.84464 c -1.5855857,0 -2.836955,0.275821 -3.6642313,0.53049 l 0,-0.583271 3.6642313,-0.850753 z m 0,1.819592 c 1.714038,0 2.951998,0.357009 3.664231,0.597585 l 0,1.050245 c 0,0.05146 -0.0143,4.059908 -3.66602,6.483972 C 5.2049202,10.70928 4.2780282,9.160718 3.8143741,7.855226 3.5713233,7.170877 3.450956,6.557719 3.3921287,6.117042 3.3333015,5.676365 3.3357697,5.461525 3.3357697,5.408528 l 0,-0.409721 0,-0.642314 C 4.0504851,4.105513 5.2770538,3.760698 7.000001,3.760698 Z m 0.178918,0.458923 c -0.0687,0.05863 -0.136872,0.145961 -0.136872,0.29253 -0.41131,0 -0.445326,0.205276 -0.548383,0.263904 C 5.9797558,4.951938 5.9109301,4.835035 5.7735215,4.952288 5.7048175,5.010918 5.6715381,5.069 5.6715381,5.127628 c -0.034352,0.146569 0.034096,0.263903 0.2397498,0.263903 0.068704,0 0.2060342,-0.08767 0.3086327,-0.08767 0.1713028,0 0.3424694,0.146712 0.6163704,0.146712 0.102599,0 0.205319,-0.05891 0.376622,-0.293425 -0.0687,0.322453 -0.171245,0.440138 -0.479499,0.440138 -0.03435,0.205197 -0.273486,0.937878 -0.5134934,1.113761 -0.41131,0.263825 -0.6170081,0.323154 -0.8570152,0.352468 -0.034352,0.02931 -0.273386,-2.72e-4 -0.3077382,0.08767 -0.034352,0.08794 -0.034352,0.146648 0,0.263904 0,0.117255 0.068268,0.32188 0.1708663,0.615476 0,0.05863 0.068984,0.117191 0.1028774,0.117191 0.068705,0.02931 0.068884,0.05904 0.068884,0.05904 0.034352,0.293138 0.2048607,0.440137 0.2048607,0.440137 0,0 0.3433426,-0.352403 0.2746383,-0.469659 -0.034352,-0.05863 -0.2406443,-0.11719 -0.2406438,-0.11719 l 0,-0.117192 C 5.6022971,7.884272 5.4314311,7.474132 5.4657833,7.474132 l 0.5823764,0 c 0,0 0.3767643,0.557342 1.0958703,0.938422 0.102598,-0.08794 0.274023,-0.235069 0.548382,-0.205755 -0.685211,0.05863 -0.685691,0.704119 -0.514388,0.967944 0.240007,0.410394 0.240108,0.49845 0.205755,0.586849 -0.171302,0.234511 -0.205497,0.263632 -0.273744,0.351574 -0.03435,0.05863 0.03382,0.08877 -0.03489,0.118085 -0.342605,0.146569 -0.410615,0.3802 -0.410615,0.3802 0,0 0.582197,0.05931 0.685254,-0.02863 0.03435,-0.02931 0.034,-0.176234 0.034,-0.176234 0,0 0.137408,0.02952 0.171761,0.02952 0.03435,-0.02931 0.101982,-0.02973 0.101982,-0.05904 0,-0.02931 0.06888,-0.146025 0.06888,-0.175339 0.03435,-0.117255 0.206034,-0.381509 0.308633,-0.440137 0,-0.02931 -0.171761,-0.204588 -0.171761,-0.29253 -0.03435,-0.38108 0.342569,-0.35196 0.822126,-0.850753 0.03435,-0.05863 0.10252,-0.02952 0.136872,-0.02952 0.890866,0 0.788053,-0.615777 0.925003,-1.289996 C 9.474295,7.562159 9.474431,7.415089 9.474431,7.415089 9.440081,7.151264 9.680186,6.711048 9.680186,6.711048 c 0,0 -0.343163,0.176105 -0.377516,0.410616 C 9.16572,6.887153 9.405548,6.534815 9.405548,6.534815 9.268597,6.593445 9.096915,6.710812 9.096915,7.121664 c 0,1.055757 -0.03427,0.996921 -0.136872,1.172805 C 8.925693,8.323779 8.823708,8.324259 8.85806,8.236319 8.82371,8.119064 8.89209,7.855461 8.069929,7.444609 7.69297,7.239412 7.488189,6.915764 7.556435,6.769195 7.659034,6.857135 7.898984,6.857755 8.035934,6.857755 7.933336,6.799125 7.693128,6.652271 7.624424,6.56433 7.727022,6.62296 8.172727,6.710627 8.309678,6.652 8.069671,6.56406 7.761553,6.359535 7.693307,6.242279 7.762007,6.300909 8.138375,6.359055 8.309678,6.300429 8.138375,6.241799 7.863994,6.12474 7.79529,5.948857 c 0.136951,0.02931 0.240229,0.05863 0.582376,0 -0.2739,-0.08794 -0.479778,-0.263839 -0.582376,-0.381095 0.102598,0 0.445426,0.02925 0.582376,0.117191 C 8.308966,5.50907 8.000845,5.362758 7.761295,5.216189 c 0.0687,0 0.342549,0.02931 0.479499,0 C 8.103844,5.098933 7.795648,4.981392 7.761295,4.922764 c 0.102599,0 0.240387,-0.05856 0.308634,-0.117191 -0.445205,0 -0.513952,-0.293425 -0.685255,-0.293425 C 7.315974,4.482838 7.213271,4.278246 7.178919,4.219618 Z M 5.4622047,5.602654 c -0.06733,0 -0.7398239,0.536939 -0.7398239,0.567169 -0.033436,0.05954 -0.033995,0.08946 -0.033995,0.08946 -0.3361928,0.08977 -0.4365584,0.269271 -0.4365584,0.269271 0,0 0.4377754,0.238712 0.5385417,0.149397 0.06733,-0.05954 0.1001939,-0.238856 0.1001939,-0.238856 0,0 0.1011886,-6.41e-4 0.1350828,-0.03042 L 5.1258396,6.319215 C 5.226606,6.229445 5.4291047,6.08036 5.4291047,6.08036 5.4964357,6.1399 5.6982397,6.378587 5.7994641,6.498132 5.8667941,6.468362 6.0341682,6.348908 6.1349346,6.169819 5.8995077,5.930728 5.6307592,5.60265 5.4622046,5.60265 Z M 6.606382,8.230058 c -0.03344,0.477724 0.03377,0.835731 -0.0331,0.865961 -0.3027574,0.08977 -0.4709754,-0.02977 -0.6056359,0 -0.06733,0.02977 -0.033757,0.09017 -0.1010884,0.05994 -0.3700873,-0.05954 -0.5716416,0.11898 -0.5716416,0.118979 0,0 0.4038812,0.418918 0.5385417,0.389146 0.033436,0 0.1681823,-0.119875 0.1681823,-0.119875 0,0 0.032864,0.119625 0.1001938,0.149397 0.033436,0 0.1002942,0.02977 0.1341883,0 0.033894,-0.02977 0.1347466,-0.08946 0.1681827,-0.08946 C 6.504971,9.544606 6.87518,9.484271 7.009841,9.484271 c 0.03344,-0.05954 0.06789,-0.119374 0.03399,-0.178917 0,0 -0.336278,-0.298463 -0.168182,-0.865961 C 6.842209,8.409623 6.639814,8.259831 6.606378,8.230059 Z"/>
</svg>
