<svg role="img" focusable="false" aria-hidden="true" xmlns="http://www.w3.org/2000/svg" viewBox="0 0 14 14" height="1em" width="1em">
  <path d="m 5.2557841,1.0800194 c -1.7970173,0.222645 -2.9083388,0.75103 -3.0409108,1.454486 -0.024104,0.114177 -0.024104,0.75103 -0.012052,1.41833 0.024104,0.997779 0.041865,1.250237 0.1319377,1.411988 0.096416,0.186489 0.096416,0.216301 0,0.468759 -0.090073,0.234063 -0.096416,0.414843 -0.065969,1.387883 0.024104,0.612749 0.072312,1.207738 0.1141769,1.316206 0.053917,0.150333 0.053917,0.234062 0,0.354582 -0.090073,0.192198 -0.096416,1.8870896 -0.012052,2.3977136 0.036156,0.240406 0.1141769,0.426895 0.2283537,0.570885 0.5347283,0.6673 1.9530585,1.063748 4.0380555,1.129716 2.589911,0.08436 4.5670739,-0.40279 5.0358339,-1.238184 0.126228,-0.216302 0.131937,-0.312718 0.131937,-1.411987 0,-0.9311756 -0.01776,-1.2261326 -0.09578,-1.4119876 -0.07802,-0.198541 -0.07802,-0.264509 -0.01776,-0.378686 0.05392,-0.102125 0.07231,-0.450365 0.06026,-1.28005 -0.01205,-1.189976 -0.02981,-1.364413 -0.162385,-1.556611 -0.06597,-0.09642 -0.06026,-0.14399 0.01205,-0.294323 0.07802,-0.143989 0.09642,-0.408499 0.09007,-1.460195 -0.0057,-0.745321 -0.03616,-1.363779 -0.07802,-1.477956 -0.162385,-0.498572 -0.883602,-0.95528 -1.8629859,-1.189976 -1.202029,-0.282271 -3.148744,-0.37234398 -4.494762,-0.210593 z m 0.276561,0.565175 c -0.01776,0.02981 0.318427,0.03616 0.769426,0.01776 0.6673,-0.0241 2.427526,0.07802 2.367901,0.138281 -0.01205,0.01205 -0.282271,0.04821 -0.607041,0.08436 -0.330478,0.03616 -0.648905,0.09642 -0.721217,0.131938 -0.119885,0.06597 -0.119885,0.07231 -0.01776,0.150332 0.102125,0.07231 0.09578,0.07802 -0.06026,0.114177 -0.492863,0.102125 -0.81129,0.228354 -0.925466,0.372344 -0.288614,0.366634 -0.03616,0.733269 0.582936,0.865207 0.468759,0.09642 2.319693,0.03616 2.830317,-0.09007 0.5651759,-0.14399 0.8531549,-0.306375 0.8531549,-0.48652 0,-0.246115 -0.360925,-0.426895 -1.2318409,-0.607041 -0.463051,-0.09007 -0.168094,-0.108468 0.408499,-0.01776 0.5708849,0.09007 1.0339349,0.26451 1.1836339,0.456708 0.108468,0.14399 0.119885,0.240406 0.119885,1.285758 0,1.292102 0.01205,1.261654 -0.576593,1.532507 -0.8531549,0.402791 -2.2416719,0.553124 -4.6514379,0.510625 -0.456708,-0.01205 -0.492864,-0.01776 -0.366635,-0.09007 0.126229,-0.07231 0.08436,-0.08436 -0.420551,-0.114177 C 4.3664731,5.8576864 3.7530893,5.6832494 3.4651099,5.4548954 3.1162362,5.1783344 2.8942256,4.6797614 2.8644128,4.0911164 c -0.029813,-0.558832 0.078021,-1.202028 0.1921977,-1.160163 0.041865,0.01776 0.1319377,-0.08436 0.2163017,-0.234063 0.2404057,-0.456708 0.7630819,-0.769425 1.6225799,-0.985727 0.510624,-0.126229 0.685061,-0.14399 0.636853,-0.06597 z m -2.2594329,4.506815 c 0,0.246114 0.1198857,0.348239 0.5886449,0.48652 1.694892,0.510624 5.516646,0.444655 6.6102059,-0.114177 0.222645,-0.114177 0.252458,-0.150333 0.252458,-0.336187 0,-0.228354 0.06026,-0.26451 0.20425,-0.114177 0.114177,0.114177 0.108468,0.01205 0.09578,1.255945 l -0.0057,1.021883 -0.174437,0.162385 c -0.372344,0.342531 -1.6644449,0.612749 -3.2451599,0.685061 -1.958768,0.09007 -4.2004403,-0.294322 -4.5429709,-0.781477 -0.065969,-0.09642 -0.084364,-0.354583 -0.084364,-1.171581 0,-0.889311 0.012052,-1.063748 0.1021248,-1.15953 0.1382809,-0.156042 0.1985409,-0.131938 0.1985409,0.06597 z m 0.1801457,3.437358 c 0.5169672,0.378686 3.0827752,0.6311436 4.8195322,0.4808106 0.95528,-0.08436 1.7786219,-0.2404056 2.1750689,-0.4148426 0.26451,-0.119885 0.276562,-0.13828 0.276562,-0.366634 0,-0.168094 0.0241,-0.246115 0.08436,-0.246115 0.20425,0 0.234063,0.162385 0.222011,1.2679976 -0.0057,0.600697 -0.02981,1.124008 -0.04187,1.165872 -0.04821,0.119886 -0.558833,0.372344 -0.985727,0.480812 C 9.2760691,12.149466 8.5967161,12.23383 7.5088651,12.269986 5.5018981,12.335954 3.6148085,12.02958 3.1041842,11.555112 2.9779553,11.428883 2.9722465,11.387018 2.9722465,10.341031 c 0,-1.0396436 0.00571,-1.0878516 0.1382808,-1.2261326 l 0.1319377,-0.143989 0.029813,0.258166 c 0.024104,0.180146 0.072312,0.282271 0.1801457,0.360292 z"/>
</svg>
