<svg role="img" focusable="false" aria-hidden="true" xmlns="http://www.w3.org/2000/svg" viewBox="0 0 14 14" height="1em" width="1em">
  <path d="M 11.969849,3.6347598 C 11.605851,3.0912638 11.000356,2.4702688 10.392361,2.0682718 9.1293704,1.2032778 7.6663814,0.89628079 6.3723912,1.0302798 c -1.3494898,0.145499 -2.5049811,0.653995 -3.4549739,1.501988 -0.8799934,0.785994 -1.4609889,1.746987 -1.716987,2.66348 -0.25899804,0.916493 -0.2244983,1.764987 -0.131999,2.403982 0.097499,0.648495 0.4204968,1.464489 0.4204968,1.464489 0.065999,0.156499 0.1574988,0.219998 0.2049985,0.246498 0.2359982,0.128999 0.6234952,0.0155 0.920993,-0.318497 0.015,-0.0205 0.023,-0.049 0.015,-0.073 -0.082999,-0.319497 -0.1129992,-0.559996 -0.142499,-0.745994 -0.0675,-0.367997 -0.097499,-0.984493 -0.0525,-1.554489 0.0225,-0.308497 0.082499,-0.638495 0.1874986,-0.984492 0.2029985,-0.683495 0.6309953,-1.39699 1.2999902,-1.989985 0.7204946,-0.638495 1.6444876,-1.032992 2.5229809,-1.134992 0.3079977,-0.037 0.8939933,-0.0725 1.599488,0.1015 0.1504988,0.0375 0.796494,0.205998 1.4874887,0.673995 0.502996,0.341997 0.907993,0.763994 1.186991,1.181491 0.283998,0.398497 0.592496,1.070492 0.682995,1.562488 0.127999,0.559996 0.127999,1.153491 0.037,1.731487 -0.1125,0.578995 -0.315498,1.141991 -0.630996,1.637487 -0.217498,0.383998 -0.668495,0.8914942 -1.2014905,1.2724912 -0.4804964,0.337997 -1.0289923,0.581995 -1.591988,0.716994 -0.2849979,0.0675 -0.5709957,0.1105 -0.8639935,0.12 -0.260498,0.008 -0.6059954,0 -0.8484936,-0.041 -0.3604973,-0.0575 -0.4354967,-0.149499 -0.5179961,-0.274498 0,0 -0.057499,-0.09 -0.073499,-0.330998 0.0055,-2.2024832 0.0045,-1.6144872 0.0045,-2.7579792 0,-0.322997 -0.0105,-0.615995 -0.0075,-0.881993 0.015,-0.436497 0.052,-0.736495 0.3639973,-1.061492 0.2254983,-0.239498 0.5409959,-0.383997 0.8884933,-0.383997 0.1054992,0 0.4689964,0.005 0.788494,0.270498 0.3424974,0.285998 0.399997,0.676995 0.4134969,0.781494 0.077999,0.611495 -0.3259976,1.066992 -0.4809964,1.182491 -0.1919985,0.143999 -0.3644972,0.213998 -0.4809964,0.254998 -0.2479981,0.083 -0.520496,0.106999 -0.7654942,0.091 -0.0375,-0.0025 -0.071499,0.022 -0.078999,0.0595 l -0.082499,0.427997 c -0.080499,0.324997 0.099999,0.443996 0.2049985,0.485996 0.3354975,0.103499 0.6329952,0.146499 0.9854926,0.119999 0.5404959,-0.038 1.0734918,-0.250998 1.5259884,-0.672995 0.3849971,-0.365997 0.6044955,-0.817494 0.6794949,-1.32249 0.074999,-0.560496 -0.0225,-1.163991 -0.2779979,-1.674987 -0.2809979,-0.563496 -0.7659942,-1.033992 -1.4049894,-1.29149 -0.6454951,-0.253999 -1.1589912,-0.262998 -1.8209862,-0.094 l -0.0075,0.0025 c -0.4299967,0.147999 -0.797994,0.330498 -1.1809911,0.725995 -0.262498,0.272998 -0.4774964,0.603495 -0.6084954,0.976492 -0.129999,0.375998 -0.1649987,0.656495 -0.1709987,1.092492 -0.008,0.322998 0.0075,0.622995 0.0075,0.903993 l 0,1.850486 c 0,0.5919962 -0.02,0.6944952 0,0.9989932 0.011,0.201998 0.039,0.430497 0.127499,0.675995 0.090999,0.270498 0.2819979,0.547996 0.4129969,0.675995 0.1834986,0.195498 0.4169968,0.352497 0.6464951,0.449996 0.525496,0.233498 1.2389906,0.270498 1.8174863,0.247998 0.3829971,-0.0145 0.7679942,-0.0675 1.1454913,-0.156999 0.7549943,-0.179498 1.4799888,-0.505996 2.1174839,-0.958992 0.683495,-0.481497 1.27749,-1.138492 1.605488,-1.696487 0.420497,-0.6629952 0.692495,-1.4069902 0.833994,-2.1714842 0.127499,-0.765994 0.121499,-1.551488 -0.0495,-2.305983 -0.134999,-0.699994 -0.495496,-1.467989 -0.911493,-2.087984 l 0.019,0.0185 z"/>
</svg>
