<svg aria-hidden="true" xmlns="http://www.w3.org/2000/svg" viewBox="0 0 14 14" height="1em" width="1em">
  <path d="M6.542 12.945c-.154-.055-.244-.207-.244-.41 0-.205.058-.322.193-.386.223-.105.493-.04.589.141.068.13.069.386 0 .49a.455.455 0 0 1-.538.165zm.312-.212c.077-.089.072-.328-.01-.415-.084-.09-.192-.085-.273.017-.054.068-.063.113-.052.235.024.244.193.327.335.163zm-3.755.21s.063-.172.14-.373c.077-.2.147-.389.156-.419.013-.044.043-.053.156-.046l.14.01.087.229.16.419.072.19h-.117c-.104 0-.122-.011-.15-.091-.03-.086-.04-.091-.198-.091-.157 0-.168 0-.198.091-.027.078-.047.091-.14.091-.06 0-.108 0-.108-.01zm.536-.394a3.18 3.18 0 0 1-.038-.152c-.01-.046-.029-.084-.042-.084-.019 0-.121.25-.121.294 0 .01.05.01.11.01.1 0 .108-.01.09-.069zm.47-.023v-.427h.269l.147.293.147.292.009-.292.008-.293h.18v.853h-.263l-.15-.281-.15-.282-.009.282-.008.281h-.18v-.426zm.938.41a2.964 2.964 0 0 1-.005-.418l.01-.403h.251c.29 0 .424.056.495.194.105.203.023.493-.167.587-.1.05-.543.08-.584.038zm.483-.21c.07-.058.085-.096.082-.198-.004-.16-.073-.237-.226-.251l-.12-.011v.534h.09c.05 0 .126-.032.174-.073zm1.792.19c-.02-.054-.167-.747-.167-.786 0-.017.046-.03.103-.03.113 0 .107-.019.19.51.01.073.027.124.036.115.009-.01.038-.15.065-.313l.049-.297.14-.01c.16-.01.147-.033.212.367.022.13.048.236.06.236.01 0 .037-.106.057-.236.06-.382.056-.373.173-.373.092 0 .102.01.089.069l-.092.409a9.578 9.578 0 0 0-.077.358c0 .01-.067.017-.15.017h-.148l-.054-.305c-.03-.168-.062-.297-.072-.288a1.76 1.76 0 0 0-.064.298l-.046.28-.144.01c-.099.01-.15 0-.16-.032zm1.112-.39v-.427h.27l.147.297.148.297.009-.297.008-.297h.18v.853h-.273l-.145-.281-.145-.282-.009.282-.008.281h-.18v-.426zm.914 0v-.428l.297.01c.282.01.298.012.307.077.01.065 0 .07-.19.07h-.2v.09c0 .091 0 .091.182.091.175 0 .183 0 .183.076 0 .07-.012.076-.137.08-.075 0-.154.01-.175.01-.021 0-.043.048-.048.102l-.01.098.193.01c.173.01.193.016.202.078.01.067.004.069-.297.069h-.307v-.428zm.708.01.008-.42h.26c.296 0 .429.055.501.195a.517.517 0 0 1-.015.453c-.084.138-.223.188-.517.188h-.246l.009-.419zm.487.225c.122-.093.138-.328.03-.425a.359.359 0 0 0-.174-.056l-.122-.01-.004.243c-.002.134.002.254.01.266.022.037.203.024.26-.019zm-9.537-.87c-.014-.01.043-.2.127-.421l.153-.404h.282l.156.404.155.403-.076.021c-.106.03-.153 0-.19-.101-.03-.087-.038-.09-.192-.081-.144.01-.166.019-.207.1-.043.088-.14.124-.208.08zm.5-.406a3.15 3.15 0 0 1-.038-.153c-.026-.12-.053-.104-.108.07l-.049.152h.107c.097 0 .106-.01.088-.07zm.622.382c-.138-.07-.172-.188-.159-.535l.011-.266h.209v.319c0 .29.006.322.062.352.085.045.18.01.214-.081a1.46 1.46 0 0 0 .029-.333v-.257h.219l-.011.335c-.01.315-.015.339-.091.415-.108.107-.33.13-.483.051zm.754.031c-.035-.01-.053-.044-.053-.1 0-.085.003-.087.098-.06.133.038.185.036.248-.01.079-.059.031-.139-.103-.175-.218-.06-.282-.153-.233-.345.027-.104.172-.173.362-.172.142 0 .196.024.189.083l-.01.069c-.001.019-.05.023-.125.01-.125-.02-.213.02-.213.097 0 .022.069.062.152.09.217.072.3.22.213.382-.065.121-.318.184-.525.13zm1.447 0c-.067-.01-.068-.02-.068-.42v-.41h.272c.257 0 .275 0 .335.08.081.104.08.18-.006.266l-.069.07.082.196c.073.173.076.198.033.214-.106.038-.182-.01-.218-.126-.039-.13-.106-.212-.173-.212-.032 0-.043.042-.043.164 0 .173-.02.198-.145.178zm.37-.54c.028-.076-.01-.129-.108-.149-.122-.024-.14-.01-.124.102.012.082.026.093.114.093.06 0 .106-.018.117-.046zm.323.535c0-.013.068-.2.15-.416l.15-.393.147-.01.147-.01.155.41c.13.343.147.412.107.422a.203.203 0 0 1-.225-.099c-.032-.064-.063-.078-.194-.085-.15-.01-.157-.01-.188.084-.02.055-.055.094-.087.095-.03 0-.08.01-.109.013-.029.01-.053 0-.053-.013zm.515-.463c-.055-.194-.075-.2-.13-.038-.028.08-.05.148-.05.153 0 .01.193.03.208.023a.497.497 0 0 0-.028-.138zm.757.47-.266-.01v-.821h.213v.67h.167c.166 0 .168.001.168.091 0 .05-.004.09-.008.085-.004 0-.127-.01-.274-.016zm.398-.328c-.014-.493-.011-.503.115-.503h.106l-.009.416-.008.416h-.195l-.01-.335zm.297.321c-.005-.01.06-.198.145-.42l.154-.404h.283l.157.406c.087.224.158.416.158.427 0 .01-.031.014-.069.01a.622.622 0 0 0-.119-.015c-.027 0-.064-.043-.082-.094-.03-.086-.042-.091-.188-.091-.145 0-.16.01-.19.089-.026.069-.056.09-.137.1-.056.01-.106 0-.112 0zm.531-.36c0-.059-.073-.281-.093-.281-.02 0-.118.296-.103.311.03.03.196 0 .196-.03zm.427-.038v-.426h.305l.121.259c.067.142.134.259.15.259.015 0 .02-.112.012-.26l-.016-.258h.22v.814l-.108.018a.328.328 0 0 1-.146 0c-.021-.01-.102-.14-.18-.295l-.141-.281-.002.282c-.001.203-.013.282-.04.284-.021 0-.069.01-.107.015-.068.013-.068.012-.068-.414zm1.826.405c-.03-.01-.078-.115-.133-.3-.048-.158-.1-.288-.117-.288-.019 0-.023.108-.012.29l.019.29h-.212v-.823h.351l.055.19c.03.105.073.232.094.282.039.09.04.089.124-.19l.086-.282h.356v.411c0 .307-.01.412-.038.415-.171.014-.159.036-.175-.308l-.015-.32-.11.32c-.111.327-.127.345-.273.313zm1.327-.09c-.04-.093-.054-.102-.174-.101-.153 0-.19.02-.22.113-.017.054-.044.07-.126.07-.064 0-.104-.016-.103-.039.001-.02.067-.202.146-.403l.144-.366h.296l.148.392c.081.216.148.402.148.414 0 .012-.049.022-.108.022-.094 0-.114-.013-.151-.102zm-.125-.416a.517.517 0 0 0-.061-.143c-.016 0-.064.123-.09.228-.016.062-.007.074.068.083.125.016.138-.01.083-.168zm.529.503c-.048-.01-.054-.055-.054-.422v-.412l.304.01c.296.01.307.013.401.107.188.188.14.543-.089.661-.082.043-.448.08-.562.056zm.42-.178c.08-.031.131-.185.103-.311-.031-.136-.098-.187-.247-.187h-.116v.238c0 .132.009.248.02.26.026.025.172.025.24 0zm.49.181c-.01-.01-.02-.202-.02-.425v-.407h.29c.27 0 .29 0 .29.061 0 .037-.022.062-.054.063-.03 0-.108 0-.175.01-.114 0-.122.012-.131.105l-.01.099h.185c.177 0 .185 0 .185.076 0 .073-.009.076-.183.076h-.183v.218h.145c.234-.01.251 0 .251.06 0 .055-.021.061-.22.063-.122 0-.25.01-.286.014-.035.01-.073 0-.084-.01zm-8.702-.344v-.335h-.106c-.094 0-.107-.01-.107-.076v-.076h.64v.076c0 .067-.014.076-.107.076h-.107v.67h-.213v-.335zm8.744-.71c-.17-.086-.145-.335.039-.4.204-.072.36.24.187.375-.095.074-.123.078-.226.025zm.21-.064c.062-.075.062-.165-.001-.245-.071-.09-.136-.098-.215-.027-.063.057-.074.223-.019.279.05.05.192.046.235-.01zm-.2-.132c.004-.1.014-.114.081-.114.068 0 .076.013.076.114 0 .129-.007.136-.064.06-.039-.05-.04-.05-.041 0-.001.03-.014.054-.029.054-.015 0-.025-.051-.023-.114zm.135-.044c-.019-.056-.084-.066-.084-.012 0 .027.021.048.048.048.026 0 .043-.016.036-.036zm-10.83-.115a.418.418 0 0 1-.207-.311c-.018-.094-.002-.148.098-.336.144-.27.993-1.76 1.097-1.924l.075-.117.264.02c.936.075 1.87-.28 2.615-.99.274-.263.494-.426.71-.53.183-.086.223-.093.518-.092.29 0 .336.01.483.086.196.102.393.279.546.489.148.204.183.23.322.23.089.002.138-.02.206-.087.129-.13.12-.252-.036-.477-.313-.45-.699-.72-1.175-.821a1.443 1.443 0 0 0-.691 0c-.445.094-.832.334-1.417.88-.68.634-1.133.853-1.826.882-.154.01-.28.01-.28 0 0-.018.266-.487 1.477-2.597.534-.93 1.214-2.116 1.51-2.635.298-.52.579-.982.624-1.027a.412.412 0 0 1 .455-.068c.13.062.14.075.612.897.337.585.66 1.145 1.443 2.498.344.595.556.96 1.478 2.559l.944 1.63c.802 1.38.779 1.336.779 1.473a.413.413 0 0 1-.192.37c-.095.059-.17.06-2.306.06l-2.21.001-.372-.562a29.543 29.543 0 0 1-.435-.665l-.06-.104.367-.589c.417-.667.486-.792.486-.884 0-.1-.19-.273-.298-.273-.166 0-.165 0-.812 1.031-.28.447-.323.54-.32.712.001.207.06.325.399.806.175.249.329.47.341.49.018.03-.499.038-2.545.038-2.493 0-2.572 0-2.666-.06zM7.83 9.08c.037-.039.266-.323.509-.633s.502-.623.575-.696c.27-.269.62-.34 1.016-.206.177.06.254.072.31.05a.224.224 0 0 0 .14-.204c0-.046-.297-.52-.772-1.236-.106-.16-.2-.203-.312-.143-.099.053-.096.147.02.558.05.183.087.336.082.341-.005.01-.109.03-.23.056-.449.093-.743.34-1.07.892a92.01 92.01 0 0 1-.278.467c-.224.372-.334.58-.334.632 0 .084.112.19.2.19a.238.238 0 0 0 .144-.068z"/>
</svg>
