<svg role="img" focusable="false" aria-hidden="true" xmlns="http://www.w3.org/2000/svg" viewBox="0 0 14 14" height="1em" width="1em">
  <path d="m 7.0133929,4.23303 c 0.040178,-0.47142 0.13125,-1.4116 1.3339285,-1.4116 l 2.6410716,0 c 0.554464,0 0.859821,-0.20893 0.859821,-0.57857 l 0,-0.32947 c 0,-0.32678 0.249107,-0.59196 0.575893,-0.59196 C 12.750893,1.32143 13,1.58661 13,1.91339 l 0,0.97768 c 0,1.14911 -0.575893,1.66071 -1.789286,1.66071 l -2.691964,0 c -0.80625,0 -0.8839286,0.39375 -0.8839286,0.7259 0,0.0348 -0.00268,0.067 -0.00536,0.0991 C 7.6107114,5.70625 7.3374971,5.97143 7.0026757,5.97143 6.6678542,5.97143 6.39464,5.70893 6.37589,5.37678 6.37321,5.34468 6.37053,5.31248 6.37053,5.27768 c 0,-0.32947 -0.080357,-0.7259 -0.8839286,-0.7259 l -2.6973214,0 C 1.5758929,4.55178 1,4.04018 1,2.89107 L 1,1.91339 C 1,1.58661 1.2517857,1.32143 1.5785714,1.32143 c 0.3267857,0 0.5758929,0.26518 0.5758929,0.59196 l 0,0.32947 c 0,0.36964 0.3053571,0.57857 0.8598214,0.57857 l 2.6410714,0 c 1.2,0 1.29375,0.94018 1.3339286,1.4116 l 0.024107,0 z M 7,12.67857 c 0.3080357,0 0.5732143,-0.1875 0.6883929,-0.43661 0.029464,-0.0482 2.6008931,-4.54285 2.6303571,-4.59107 0.31875,-0.525 -0.08571,-1.18661 -0.7285714,-1.18661 -0.3723215,0 -0.6241072,0.17143 -0.7982143,0.54375 L 7,10.16071 5.2080357,7.00803 C 5.0366071,6.63571 4.7821429,6.46428 4.4098214,6.46428 3.7669643,6.46428 3.3625,7.12321 3.68125,7.65089 3.710714,7.70179 6.2821429,12.19375 6.3116071,12.24196 6.4267857,12.49107 6.6919643,12.67857 7,12.67857 Z"/>
</svg>
