<svg role="img" focusable="false" aria-hidden="true" xmlns="http://www.w3.org/2000/svg" viewBox="0 0 14 14" height="1em" width="1em">
  <path d="m 12.116493,3.1388785 -2.6389163,-0.24112 0.3750743,-0.89482 c 0.278627,-0.62959 -0.289343,-1.08236001 -0.7689024,-0.99127 l -7.2684047,1.18952 c -0.4045445,0.0723 -0.6965667,0.49028 -0.573328,0.98055 l 2.8157367,9.3313195 c 0.1741416,0.57064 0.9832305,0.64834 1.2779318,0.18753 l 0.9457231,-2.16471 6.3012495,-6.1967695 c 0.439373,-0.45009 0.115201,-1.14933 -0.466164,-1.20023 z m -2.9309385,-1.56192 c 0.1366343,-0.0187 0.2009327,0.067 0.1393134,0.19825 l -0.4500892,1.06896 -4.7527277,-0.43669 5.0635035,-0.83052 z m -7.3648524,1.45475 c -0.083052,-0.13663 0.026791,-0.26791 0.1634252,-0.2438 l 6.6629276,0.60816 -2.5960502,6.18069 -4.2303026,-6.54505 z m 3.035423,9.3366695 c -0.069657,0.10717 -0.2116491,0.0831 -0.2518357,-0.0322 L 2.3779554,4.9552585 5.7991691,10.249158 c -0.1875372,0.40187 -0.943044,2.11917 -0.943044,2.11917 z m 7.3085919,-8.4257695 -5.3233771,5.23496 2.4031549,-5.72524 2.8505652,0.25987 c 0.107164,0.0295 0.152709,0.142 0.06966,0.23041 z"/>
</svg>
