<svg aria-hidden="true" xmlns="http://www.w3.org/2000/svg" viewBox="0 0 14 14" height="1em" width="1em">
  <path d="m6.998 3.731.22-.38a.494.494 0 1 1 .856.494L5.957 7.51H7.49c.496 0 .774.584.559.988H3.56a.493.493 0 1 1 0-.988h1.258l1.611-2.79-.503-.874a.495.495 0 0 1 .856-.493l.216.38ZM5.094 9.006l-.475.822a.494.494 0 1 1-.856-.493l.353-.61c.397-.123.721-.029.978.28ZM9.18 7.513h1.285a.493.493 0 1 1 0 .987H9.75l.481.835a.495.495 0 0 1-.856.493c-.81-1.405-1.42-2.458-1.824-3.16-.414-.713-.119-1.43.174-1.671.324.556.808 1.396 1.454 2.516ZM7 1C3.685 1 1 3.685 1 7s2.685 6 6 6 6-2.685 6-6-2.685-6-6-6Zm5.226 6A5.226 5.226 0 1 1 1.775 7a5.226 5.226 0 0 1 10.45 0z"/>
</svg>
