<svg aria-hidden="true" xmlns="http://www.w3.org/2000/svg" viewBox="0 0 14 14" height="1em" width="1em">
  <path d="M9.12 5.07c.14 0 .276.007.41.024-.361-1.71-2.196-2.982-4.282-2.982C2.909 2.112 1 3.7 1 5.72c0 1.165.64 2.128 1.7 2.872L2.279 9.87l1.483-.744c.533.105.956.212 1.488.212.135 0 .264-.007.4-.018a3.001 3.001 0 0 1-.136-.89c-.002-1.852 1.59-3.36 3.607-3.36zM6.84 3.916c.317 0 .529.212.529.532 0 .317-.212.528-.528.528-.323 0-.64-.211-.64-.528.003-.32.319-.532.64-.532zm-2.975 1.06c-.317 0-.64-.211-.64-.528 0-.323.323-.532.64-.532.323 0 .532.212.532.532 0 .319-.21.528-.532.528zM13 8.382c0-1.7-1.7-3.083-3.609-3.083-2.022 0-3.608 1.384-3.608 3.083 0 1.7 1.588 3.083 3.608 3.083.421 0 .849-.111 1.279-.216l1.165.64-.323-1.061C12.367 10.187 13 9.338 13 8.382Zm-4.78-.534c-.212 0-.421-.212-.421-.428 0-.212.211-.421.42-.421.324 0 .533.212.533.421 0 .218-.212.428-.532.428zm2.336 0c-.211 0-.42-.212-.42-.428 0-.212.21-.421.42-.421.317 0 .533.212.533.421.002.218-.216.428-.533.428z"/>
</svg>
