<svg role="img" focusable="false" aria-hidden="true" xmlns="http://www.w3.org/2000/svg" viewBox="0 0 14 14" height="1em" width="1em">
  <path d="M 11.9125,1 2.0875,1 C 1.4875,1 1,1.4875 1,2.0875 l 0,9.825 C 1,12.5125 1.4875,13 2.0875,13 l 9.825,0 C 12.5125,13 13,12.5125 13,11.9125 l 0,-9.825 C 13,1.4875 12.5125,1 11.9125,1 Z M 5.01,3.3335 c 0.399,0 0.734,0.315 0.734,0.72 0,0.41 -0.335,0.722 -0.734,0.722 l 0,0.0135 C 4.6085,4.789 4.283,4.464 4.283,4.0615 4.283,3.659 4.608,3.334 5.0105,3.334 Z m 4.908,6.9075 c -0.742,0 -1.102,-0.4425 -1.102,-1.045 0,-0.173 0.022,-0.3565 0.075,-0.54 L 9.246,7.3835 c 0.044,-0.14 0.055,-0.27 0.055,-0.3875 0,-0.41 -0.25,-0.6575 -0.648,-0.6575 -0.5065,0 -0.84,0.3635 -1.0125,1.065 l -0.69,2.7675 -1.207,0 0.216,-0.87 C 5.6055,9.884 5.112,10.2435 4.5045,10.2435 3.771,10.2435 3.426,9.8225 3.426,9.187 3.428,9.0045 3.4495,8.822 3.491,8.6445 l 0,10e-4 0.55,-2.245 -0.8535,0 0.259,-0.9525 2.05,0 -0.81,3.2025 c -0.0525,0.205 -0.075,0.375 -0.075,0.493 0,0.205 0.101,0.265 0.2585,0.302 0.0975,0.02 0.8625,0.006 1.28,-0.92 l 0.53,-2.125 -0.8615,0 0.26,-0.9375 1.86,0 -0.24,1.08 c 0.3235,-0.6 0.9685,-1.1775 1.606,-1.1775 0.675,0 1.2375,0.4875 1.2375,1.41 0,0.267 -0.04,0.5325 -0.12,0.7875 l -0.345,1.238 c -0.03,0.127 -0.052,0.2325 -0.052,0.33 0,0.217 0.09,0.3225 0.247,0.3225 0.157,0 0.3675,-0.12 0.6,-0.78 l 0.4715,0.18 c -0.2775,0.982 -0.788,1.387 -1.425,1.387 z"/>
</svg>
