<svg role="img" focusable="false" aria-hidden="true" xmlns="http://www.w3.org/2000/svg" viewBox="0 0 14 14" height="1em" width="1em">
  <path d="M 9.5631855,3.19548 C 8.9673455,2.81973 8.3956605,2.67211 7.8266605,2.29635 7.4777455,2.06017 6.9865805,1.49117 6.5786175,1 c -0.07247,0.7864 -0.308655,1.10579 -0.590472,1.32856 -0.571684,0.45628 -0.934019,0.59584 -1.43592,0.86692 -0.424066,0.22277 -2.705435,1.79289 -2.705435,4.71841 0,2.93089 2.463878,5.08611 5.201521,5.08611 2.729591,0 5.1048975,-1.98613 5.1048975,-4.99217 0,-3.01409 -2.2276885,-4.58958 -2.5900235,-4.81235 z m 0.0671,8.73899 c -0.539477,0.53947 -2.418251,0.77029 -3.132186,0.11272 -0.12883,-0.12883 0.0081,-0.32207 0.174458,-0.32207 0,0 0.456274,0.35696 1.382241,0.35696 0.72467,0 1.234623,-0.20666 1.46276,-0.37575 0.163722,-0.12346 0.225453,0.11541 0.112727,0.22814 z m -1.46276,-1.41177 c 0.233504,-0.0966 0.778349,-0.10199 0.987698,0.0349 0.110043,0.0752 0.432118,0.50459 0.166406,0.6361 -0.225453,0.11273 -0.03221,-0.42138 -0.71125,-0.42138 -0.394543,0 -0.523373,0.13957 -0.716619,0.29524 -0.187877,0.16103 -0.263028,0.21471 -0.327443,0.12614 -0.161038,-0.22008 0.42675,-0.59852 0.601208,-0.67099 z m 2.4826655,0.46433 C 10.242228,10.96023 9.4289875,9.67725 8.9056155,9.65847 8.0762705,9.63427 6.1116095,11.82442 4.5763825,10.78573 3.5350045,10.0718 4.1845235,7.97294 5.9666755,7.9622 c 1.328562,-0.0134 2.249161,1.31514 2.9121,1.30172 0.571684,-0.008 1.6586885,-1.12189 2.1954815,-1.12189 1.30709,0 0.625363,2.93357 -0.424066,2.845 z"/>
</svg>
