<svg aria-hidden="true" xmlns="http://www.w3.org/2000/svg" viewBox="0 0 14 14" height="1em" width="1em">
  <path d="M12.472 11.048c0 .242-.326.405-.67.31-.253-.068-.653-.366-.754-.569-.118-.242.084-.681.394-.642.327.034 1.03.53 1.03.901zM8.768 3.234c-.079-1.503-2.1-1.661-2.624-.49.93-.507 1.88-.327 2.624.49Zm-6.21 6.913c-.326.034-1.03.53-1.03.901 0 .242.326.405.67.31.253-.068.647-.366.749-.569.124-.242-.08-.681-.389-.642zm10.37.299a.74.74 0 0 1 .04.225c.017.658-.924 1.334-1.532 1.357a.969.969 0 0 1-.89-.49 90.2 90.2 0 0 1-7.087 0 .994.994 0 0 1-.895.49c-.603-.023-1.543-.699-1.531-1.357a.992.992 0 0 1 .039-.225c-.116-.198-.101-.319.113-.242a1.91 1.91 0 0 1 .23-.288c-.053-.227.027-.293.231-.191a2.01 2.01 0 0 1 .332-.191c0-.329.247-.232.36-.119.26-.037.42.015.558.119v-.411c-.27 0-.847-.237-.957-.755-.104-.432.054-.793.524-.99.016-.125.168-.293.31-.333.157-.04.258.096.292.214.155 0 .37.03.439.169.113-.011.23-.028.343-.04a.624.624 0 0 0-.168-.095c-.107-.186-.288-.23-.513-.242 0-.017 0-.034.006-.056-.411-.012-.918-.119-1.143-.372-.444-.493-.332-1.741.253-2.156.175-.118.45-.017.473.202.05.43.009.56.546.54.17-.162.35-.303.552-.416-.31-.028-.602.034-.912.08.266-.26.499-.531 1.182-.885.49-.248 1.042-.433 1.588-.484-.389-.163-.833-.248-1.244-.343 1.593-.338 3.637-.462 5.09.782.376.321.675.755.889 1.25.829.101.76-.116.805-.524.022-.214.298-.32.473-.197.31.22.461.642.512 1.002.045.372.005.862-.26 1.149-.224.253-.714.366-1.12.377v.056c-.23.006-.422.051-.534.243a.757.757 0 0 0-.175.095c.118.011.237.028.35.04.038-.117.26-.175.438-.175.034-.113.141-.248.293-.214a.458.458 0 0 1 .31.332c.225.09.461.254.523.535.04.17.034.315.006.456-.12.526-.695.755-.957.755 0 .14 0 .275-.006.41.167-.125.341-.149.558-.118.123-.123.365-.196.365.119.119.056.237.123.333.191.21-.105.284-.011.225.191.084.09.169.186.23.287.212-.075.23.044.113.243zm-1.537-5.292c.36.14.546.461.63.743.023-.22-.055-.822-.286-1.064-.152-.152-.293-.107-.293.017a.95.95 0 0 1-.05.304zm-.388.259c.27.326.355.867.265 1.311.225-.045.427-.13.546-.253a.581.581 0 0 0 .1-.158c-.022-.444-.213-.89-.618-1.019-.068.068-.192.102-.293.119zm-.456.016c.158.428.259.89.298 1.346.073 0 .158-.006.242-.017.124-.507-.005-1.075-.292-1.323-.08 0-.17 0-.248-.006zM2.62 5.154a.934.934 0 0 1-.05-.304c0-.124-.147-.17-.293-.017-.237.242-.31.844-.287 1.064.084-.282.27-.603.63-.743zm.118 1.57c-.09-.444-.005-.985.265-1.311-.101-.017-.225-.051-.293-.119-.405.13-.59.575-.62 1.02a.755.755 0 0 0 .102.157c.118.13.321.208.546.253zM3.6 5.452a1.983 1.983 0 0 0-.31.101l-.253.107v-.006a1.646 1.646 0 0 0-.113 1.104c.096.011.18.017.265.017.05-.462.191-.912.41-1.323zm1.835-.484a1.59 1.59 0 0 0 1.588 1.587A1.59 1.59 0 0 0 8.61 4.968a1.588 1.588 0 0 0-3.175 0zM8.61 6.995c.208 1.054.069 1.347.344 1.21.332-.169.473-.816.478-1.188C9.162 7 8.886 7 8.61 6.995zm-1.492-.012v-.006c-.005.107.006.794.09.856.231.113.822.096 1.064.022.113-.033.051-.77.034-.872a39.198 39.198 0 0 0-1.188 0zm-.292 0v-.006c-.406.006-.805.006-1.205.017-.04.192-.096 1.02.04 1.075.27.119.866.107 1.136.034.096-.05.051-.946.029-1.12zm-1.785 1.2c.113.05.18.05.203-.09.039-.18.05-.766.101-1.087-.253.006-.512.017-.766.034-.112.41.006.94.462 1.142zm-1.368-.231c.912.98 1.93 1.784 3.248 2.218 1.408-.4 2.41-1.25 3.4-2.23-.23-.09-.16-.216-.151-.242-.186-.017-.372-.04-.552-.056-.197.687-.749 1.103-.974.659-.056-.107-.073-.242-.096-.35-.078.175-.276.17-.512.186-.276.023-.659.028-.918-.062-.062.27-.23.27-.557.299-.293.028-1.013.084-1.143-.225-.022.596-.732.208-.94-.147a1.463 1.463 0 0 1-.146-.366c-.164.017-.327.034-.49.057.05.076.032.188-.17.259zm-.265 3.164C3.29 10.63 3.02 10.08 2.71 9.99c-.467-.141-1.435.49-1.38 1.137.266.405.834.743 1.234.76.371.017.749-.231.827-.603a.782.782 0 0 0 .017-.168zm.152-.124a10.723 10.723 0 0 1 2.207-.98c-.805-.428-1.418-.996-2.027-1.604-.045.028-.106.05-.163.073-.034.102.182.11.113.259-.045.084-.18.157-.315.191a.614.614 0 0 1-.164.135h-.005c-.006.282-.006.563.005.845.187.332.322.694.35 1.08zm6.683.264c-.766-.444-1.543-.861-2.41-1.103-.287.13-.58.236-.878.32-.045.018-.045.018-.09 0a7.108 7.108 0 0 1-.726-.275 9.459 9.459 0 0 0-2.342 1.058H3.79v.006c.006 0 .006 0 .006-.006a87.86 87.86 0 0 0 6.446 0zm.563-1.334-.006.006c.012-.287.017-.574.017-.861a.663.663 0 0 1-.169-.141c-.135-.028-.27-.107-.315-.186-.04-.084.028-.158.124-.214a.135.135 0 0 1-.011-.05.578.578 0 0 1-.158-.068c-.659.614-1.362 1.182-2.156 1.599.81.242 1.582.585 2.33.99.022-.305.151-.744.344-1.075zm.484.068c-.304.09-.58.641-.698 1.126 0 .496.443.79.844.77.4-.016.969-.354 1.233-.76.062-.647-.906-1.277-1.379-1.136zM7.056 4.46h.006-.006zm0 2.016c.597 0 1.081-.45 1.081-1.008 0-.752-.844-1.21-1.503-.923a.482.482 0 0 1 .344.45c0 .484-.694.666-.969.236-.152.71.404 1.245 1.047 1.245zm-4.639 5.066c.012.136.254.265.45.197a.808.808 0 0 0 .361-.337c.062-.147-.022-.417-.203-.383-.185.034-.619.349-.608.523zm8.558-.523c-.175-.034-.26.236-.197.383a.75.75 0 0 0 .36.337c.191.068.44-.061.445-.197.017-.174-.422-.49-.608-.523z"/>
</svg>
