<svg role="img" focusable="false" aria-hidden="true" xmlns="http://www.w3.org/2000/svg" viewBox="0 0 14 14" height="1em" width="1em">
  <path d="m 7.8228996,6.999995 a 0.82290009,0.82290009 0 0 1 -0.8229,0.8229 0.82290009,0.82290009 0 0 1 -0.8229,-0.8229 0.82290009,0.82290009 0 0 1 0.8229,-0.8229 0.82290009,0.82290009 0 0 1 0.8229,0.8229 z m -5.189645,-3.92278 2.803426,3.26564 1.990192,-5.33721 c -1.799772,-0.0784 -3.582989,0.66196 -4.793618,2.07157 z m -1.213858,5.7431 4.22984,-0.79502 -3.627065,-4.39216 c -0.96776,1.51946 -1.21821297,3.43395 -0.602775,5.18718 z m 4.366745,3.92279 1.426414,-4.06066 -5.617258,0.94505 c 0.832013,1.59783 2.364777,2.77197 4.190844,3.11561 z m 5.5806034,-1.82032 -2.8034264,-3.26564 -1.990192,5.33721 c 1.799772,0.0784 3.5829904,-0.66197 4.7936184,-2.07157 z m 1.213859,-5.74311 -4.2298414,0.79502 3.6270664,4.39216 c 0.967759,-1.51946 1.218213,-3.43394 0.602775,-5.18718 z M 8.2138576,1.256895 6.7874446,5.317555 12.404702,4.372505 C 11.572689,2.774665 10.039925,1.600525 8.2138576,1.256895 Z"/>
</svg>
