<svg aria-hidden="true" xmlns="http://www.w3.org/2000/svg" viewBox="0 0 14 14" height="1em" width="1em">
  <path d="M6.85 10.385h.719s.216-.023.327-.142C8 10.133 8 9.928 8 9.928s-.016-.963.434-1.105c.444-.14 1.006.93 1.606 1.342.458.314.802.247.802.247l1.606-.022s.84-.053.443-.713c-.03-.053-.225-.488-1.185-1.38-1.006-.93-.871-.78.338-2.394.734-.982 1.035-1.583.937-1.838-.083-.24-.63-.18-.63-.18l-1.8.015s-.136-.015-.233.045c-.098.06-.157.196-.157.196s-.286.764-.668 1.41C8.682 6.915 8.36 6.99 8.232 6.9c-.302-.196-.224-.79-.224-1.217 0-1.32.202-1.875-.39-2.017-.196-.046-.341-.075-.843-.083-.645-.007-1.19.005-1.498.155-.202.102-.36.326-.27.338.12.015.39.073.533.268.187.253.18.818.18.818s.105 1.558-.248 1.752c-.247.13-.577-.14-1.297-1.378-.368-.63-.646-1.335-.646-1.335s-.052-.128-.15-.203a.781.781 0 0 0-.278-.113L1.384 3.9s-.255.008-.345.12c-.083.098-.008.308-.008.308s1.343 3.143 2.866 4.726c1.395 1.451 2.978 1.358 2.978 1.358l-.025-.028z"/>
</svg>
