<svg aria-hidden="true" xmlns="http://www.w3.org/2000/svg" viewBox="0 0 14 14" height="1em" width="1em">
  <path d="M1.001 7.083s0-.092.005-.147l1.065.003-.002.065a.597.597 0 0 0 .216.447.61.61 0 0 0 .336.1c.228 0 .437-.14.44-.355l-.001-.02c-.007-.166-.113-.258-.265-.329-.136-.063-.368-.162-.62-.287a4.333 4.333 0 0 1-.74-.446C1.125 5.868.985 5.55 1 5.11c.015-.375.178-.698.483-.966s.681-.374 1.08-.374c.506 0 .928.204 1.208.537.284.348.338.679.35.921l.002.047H3.018a.642.642 0 0 0-.13-.324.436.436 0 0 0-.34-.144.523.523 0 0 0-.267.078.296.296 0 0 0-.15.25c0 .122.056.217.214.297.153.08.618.286.683.31.663.259 1.082.677 1.13 1.308v.043a1.55 1.55 0 0 1-.307.905 1.53 1.53 0 0 1-1.225.604C1.527 8.598 1.004 7.8 1.001 7.083m4.844 3.15c.992 0 1.517-.726 1.518-1.408V5.527h-1.06v1.642a.358.358 0 0 1-.09.266.444.444 0 0 1-.353.153c-.176 0-.302-.065-.366-.154a.451.451 0 0 1-.077-.265V5.527H4.341v1.665c.001.694.515 1.407 1.378 1.409.169 0 .336-.034.499-.1l.078-.03v.326a.39.39 0 0 1-.056.214c-.052.095-.168.187-.364.185a.42.42 0 0 1-.35-.157.397.397 0 0 1-.077-.168L4.36 8.867l.022.173c.126.595.669 1.195 1.463 1.194m5.637 0c.992-.001 1.516-.727 1.518-1.409V5.527h-1.06v1.642c0 .075-.01.177-.09.266a.44.44 0 0 1-.353.153c-.177.001-.302-.064-.366-.154a.45.45 0 0 1-.076-.265V5.527H9.978v1.665c.001.695.515 1.408 1.378 1.41.169 0 .336-.035.498-.1l.079-.03v.325a.39.39 0 0 1-.055.215c-.053.094-.17.186-.365.185a.42.42 0 0 1-.35-.157c-.061-.08-.075-.158-.077-.169l-1.089-.004.022.173c.127.596.669 1.195 1.463 1.194m-1.73-4.707H8.72v-.113c0-.068.002-.142.015-.208a.47.47 0 0 1 .037-.126.228.228 0 0 1 .1-.108c.057-.033.172-.077.402-.078h.703V3.766h-.703c-.334 0-.627.059-.877.18a1.388 1.388 0 0 0-.761.998 2.19 2.19 0 0 0-.045.47v3.05h1.13l-.002-1.87h1.032V5.528"/>
</svg>
