<svg aria-hidden="true" xmlns="http://www.w3.org/2000/svg" viewBox="0 0 14 14" height="1em" width="1em">
  <path d="M7 1a6 6 0 1 0 0 12A6 6 0 0 0 7 1Zm0 11.168A5.168 5.168 0 1 1 7 1.832a5.168 5.168 0 0 1 0 10.335zm.3-4.85-.563-.027c-.472-.017-.598-.042-.598-.218 0-.067.05-.159.151-.21.084.018.169.027.254.027 1.208 0 1.815-.585 1.815-1.49 0-.15-.037-.285-.113-.368h.48V4.027H7.3a2.862 2.862 0 0 0-.733-.1c-1.271 0-1.902.737-1.902 1.59 0 .535.253.92.63 1.121a.85.85 0 0 0-.51.77c0 .293.16.527.404.644-.32.168-.607.578-.607.97 0 .83.675 1.238 1.82 1.238 1.437 0 2.348-.802 2.348-1.705h-.01c0-.837-.538-1.205-1.44-1.238zm-.731-2.39c.448 0 .671.24.671.596 0 .355-.25.57-.662.57-.447 0-.671-.223-.671-.587 0-.34.241-.58.662-.58zm1.004 3.777c0 .314-.306.556-.91.556-.472 0-.75-.203-.75-.501 0-.176.113-.354.3-.498.045.007.113 0 .165.007l.675.016c.398.017.54.194.54.42h-.02zm2.245-2.278v.001a.926.926 0 0 0-.911.922c0 .506.416.912.911.912a.92.92 0 0 0 .924-.912.93.93 0 0 0-.924-.923z"/>
</svg>
