<svg role="img" focusable="false" aria-hidden="true" xmlns="http://www.w3.org/2000/svg" viewBox="0 0 14 14" height="1em" width="1em">
  <path d="m 2.8013954,9.679063 c 0.050156,0.37102 -0.135233,0.74953 -0.490776,0.92085 -0.4417922,0.21328 -0.9738177,0.0274 -1.1877998,-0.41437 -0.21281022,-0.44132 -0.026484,-0.97452 0.4148393,-1.18709 0.1652326,-0.0797 0.342887,-0.1036 0.5121039,-0.0792 -1.83466785,-2.60974 1.2187369,-4.4655 1.2187369,-4.4655 -0.1373423,1.00874 -0.1931229,2.13654 -0.1931229,2.13654 -1.5775612,0.97147 0.021562,1.50139 0.9330369,1.70787 0.4633544,1.25671 1.6682633,2.15482 3.0857482,2.15482 0.044999,0 0.088358,-0.005 0.1328892,-0.007 l 0.00258,0.44203 c -2.3254439,0.0326 -3.7194914,-0.68297 -4.4282338,-1.20937 z m 2.5314572,-7.68038 c 0.020859,-0.16406 -0.00234,-0.33586 -0.079452,-0.4957 -0.2132789,-0.44156 -0.7457732,-0.62765003 -1.187331,-0.41461 -0.4420265,0.21328 -0.6281183,0.74601 -0.4146049,1.1878 0.163592,0.33914 0.5160882,0.52547 0.8713969,0.49758 -0.52851,0.70101 -1.2616271,2.09927 -1.2285806,4.45378 l 0.5118695,-0.004 c -4.687e-4,-0.0211 -0.00328,-0.0415 -0.00328,-0.0628 0,-1.38163 0.8524127,-2.56239 2.0589623,-3.05059 0.1877324,-0.88476 0.720461,-2.67888 1.7306065,-1.03804 0,0 1.1282691,0.0558 2.1370083,0.19313 0,-2.4e-4 -1.8243554,-3.00068003 -4.3965935,-1.26702 z m 7.1291424,3.14457 c 0.441557,-0.21304 0.628352,-0.74554 0.414839,-1.18709 -0.213279,-0.4418 -0.746008,-0.62742 -1.187565,-0.41461 -0.357887,0.17273 -0.54351,0.55523 -0.489136,0.92905 -0.743195,-0.51421 -2.1056019,-1.14959 -4.2995628,-1.11889 l 0.00328,0.52734 c 0.063281,-0.004 0.1263268,-0.01 0.1907792,-0.01 1.3898289,0 2.5757537,0.86249 3.0583266,2.08029 0.916396,0.2114 2.462317,0.74015 0.901397,1.70014 0,0 -0.05484,1.12803 -0.19242,2.13654 0,0 3.127701,-1.90217 1.147487,-4.56113 0.150702,0.0117 0.306325,-0.0115 0.452574,-0.082 z m -2.6837994,6.08127 c 0.5022604,-0.76078 1.0879574,-2.10209 1.0579574,-4.21074 l -0.457495,0.003 c 0.0019,0.0483 0.007,0.0954 0.007,0.14414 0,1.41256 -0.8917874,2.61443 -2.1419303,3.08083 -0.2074196,0.91288 -0.7368671,2.49981 -1.7055286,0.92553 0,0 -1.1278004,-0.0548 -2.1372427,-0.19265 0,0 1.8731049,3.07825 4.4976081,1.1946 0.00727,0.11062 0.033984,0.22148 0.085311,0.32741 0.2123415,0.44273 0.7453046,0.62765 1.1868625,0.41508 0.442026,-0.21328 0.627884,-0.74601 0.414839,-1.1871 -0.153748,-0.31921 -0.474838,-0.50226 -0.8074131,-0.50038 z"/>
</svg>
