<svg aria-hidden="true" xmlns="http://www.w3.org/2000/svg" viewBox="0 0 14 14" height="1em" width="1em">
  <path d="M8.262 9.72a5.8 5.8 0 0 0 1.8-.745.908.908 0 0 0-.967-1.536 3.933 3.933 0 0 1-4.17 0 .907.907 0 0 0-1.25.282l-.001.003a.906.906 0 0 0 .283 1.25h.001a5.77 5.77 0 0 0 1.798.745L4.024 11.45a.898.898 0 0 0-.014 1.269l.015.015a.886.886 0 0 0 .637.265.887.887 0 0 0 .637-.265l1.71-1.702 1.703 1.703a.908.908 0 0 0 1.283-1.283L8.262 9.72ZM7.01 7.194a3.1 3.1 0 0 0 3.098-3.096A3.102 3.102 0 0 0 7.01 1a3.102 3.102 0 0 0-3.098 3.099A3.1 3.1 0 0 0 7.01 7.195Zm0-4.378a1.284 1.284 0 0 1 0 2.565 1.284 1.284 0 0 1-1.283-1.282A1.285 1.285 0 0 1 7.01 2.815Z"/>
</svg>
