<svg aria-hidden="true" xmlns="http://www.w3.org/2000/svg" viewBox="0 0 14 14" height="1em" width="1em">
  <path d="m7.364 6.449-.03-.083a.36.36 0 0 1-.022.012l.052.07zm.221-.177-.057-.066-.017.018.074.048zm.143-.246-.078-.04-.008.023.086.017zm.044-.28-.088-.01.002.025.086-.015zm-.06-.278-.085.023.01.023.076-.046zm-1.16.928.06-.063-.02-.015-.04.078zm.54.138.002-.088-.024.004.023.084zm-.283-.018.034-.081a.532.532 0 0 1-.024-.007l-.01.088zm-.196-.183a.68.68 0 0 0 .206.095l.039-.353-.245.258zm.713-1.266-.049.074a.508.508 0 0 1 .023.01l.025-.084zm-.993.312.069.054c.003-.007.008-.014.012-.02l-.082-.034zm-.096.267.084.026.004-.024-.088-.002zm.008.284.087-.006-.005-.024-.082.03zm1.312-.698-.072.051.017.019.055-.07zm-1.202.96.079-.037-.013-.021-.066.058zm.488.243a.69.69 0 0 0 .227.015l-.092-.343-.135.328zm.208-1.438-.018.086a.11.11 0 0 1 .025.002l-.007-.088zm-.282.033.014.087.024-.007-.038-.08zm-.251.134.045.075.02-.014-.065-.06zm.815 1.203a.69.69 0 0 0 .178-.143l-.298-.191.12.334zm-.124-.568a.208.208 0 1 1-.417 0 .208.208 0 0 1 .417 0zm-.876.125a.68.68 0 0 0 .088.21l.266-.235-.354.025zm-.012-.252a.685.685 0 0 0 .006.228l.334-.123-.34-.105Zm.271.646.163-.315-.321.152a.693.693 0 0 0 .158.163zm.408.4a.951.951 0 1 0 0-1.902.951.951 0 0 0 0 1.902zm0-1.74a.79.79 0 0 1 0 1.579.79.79 0 0 1 0-1.579zm-.598.455a.693.693 0 0 0-.077.215l.355.006-.278-.22zm3.177 4.305C7.771 9.288 7 10.205 7 10.205c-.009.917 1.247 2.562 2.787 2.76 1.54.2 2.527-.536 2.527-.536s-.926-2.241-2.735-2.691zm-5.158 0c-1.809.45-2.734 2.691-2.734 2.691s.986.736 2.527.537c1.54-.2 2.795-1.844 2.786-2.761 0 0-.77-.918-2.579-.467zm2.674-3.292a.674.674 0 0 0 .217-.068l-.21-.286-.008.354zM1.963 7.842h10.074l.312-.934h-1.48l.29-1.676L11.545 3s-1.02-2-4.522-2C2.764 1 2.456 3 2.456 3l.675 3.908h-1.48l.312.934zM7 4.674a1.094 1.094 0 1 1-1.094 1.094c0-.603.491-1.094 1.094-1.094zm.685 1.062a.687.687 0 0 0-.048-.222l-.304.181.352.04zm-.035.25a.678.678 0 0 0 .036-.218V5.76l-.35.06.314.165zm-.122.22a.695.695 0 0 0 .114-.197l-.348-.07.234.267zm.1-.715a.69.69 0 0 0-.126-.19l-.218.28.344-.09zm-.143-.208a.675.675 0 0 0-.185-.131l-.102.34.287-.208zm-.922-.043a.681.681 0 0 0-.148.172l.329.134-.18-.306zm.47-.157L7 5.081a.672.672 0 0 0-.193.029l.153.32.073-.347zm-.25.034a.681.681 0 0 0-.2.107l.258.244-.058-.35zm.494.023a.675.675 0 0 0-.22-.056l.027.354.193-.298z"/>
</svg>
