<svg role="img" focusable="false" aria-hidden="true" xmlns="http://www.w3.org/2000/svg" viewBox="0 0 14 14" height="1em" width="1em">
  <path d="m 3.9874129,4.8353885 c 0.016646,-0.0077 0.033699,-0.01502 0.050751,-0.02152 -0.016646,0.0065 -0.033699,0.01421 -0.050751,0.02152 z m -2.4697523,4.554608 0.051157,0 c 0.1510353,0 0.1936663,0 0.3674381,0 l 0.136825,0 c 0.010556,0 0.021112,0 0.031669,0 0.011774,0 0.02436,0 0.036947,0 0,0 0.00203,0 0.00244,0 0.00528,0 0.010556,0 0.015428,0 0.00203,0 0.00203,0 0.00365,0 0.00203,0 0.00447,0.0024 0.0069,0.002 0.9654893,-0.04953 1.4129111,-0.548924 1.6378401,-1.268372 0.1749898,-0.558262 0.318311,-1.028015 0.4441737,-1.422655 0,0 0,4.06e-4 0,4.06e-4 0.00162,-0.0049 0.00284,-0.0093 0.00447,-0.01421 0.3032887,-0.425497 0.6167276,-0.792935 0.8993098,-1.090946 l 0,0 c 0,0 0.0065,0 0.0065,0 0.4323994,1.322371 0.5992692,3.681689 1.8639869,3.681689 0.051157,0 0.1043444,0.0012 0.1559075,-0.0041 -0.051563,0.0053 -0.1015022,0.01218 -0.1526593,0.01218 l 1.0044661,0 c -0.071052,0 -0.1384492,-0.01056 -0.2034105,-0.02395 -0.041007,-0.0085 -0.080796,-0.02111 -0.1197728,-0.03451 0.038977,0.01299 0.078766,0.02314 0.1201787,0.03126 0.064961,0.0134 0.1323589,0.01949 0.2030046,0.01949 0.1863581,0 0.3418595,-0.01421 0.4774665,-0.05847 -0.135607,0.04425 -0.2911084,0.06577 -0.4774665,0.06577 l 0.9825416,0 c 0,0 0,0 0,0 0.00853,0 0.017052,0 0.025173,0 0,0 0,0 0,0 0,0 4.06e-4,0 8.12e-4,0 l 4.06e-4,-0.002 0.3706862,-0.0037 c -0.047503,0 -0.091758,-0.0085 -0.134389,-0.02274 4.06e-4,-8.12e-4 0.00122,-0.0012 0.00162,-0.002 0.041819,0.01259 0.085262,0.01502 0.1319529,0.01502 0.9756398,0 1.9593988,-1.751928 3.5870888,-4.6622 l -0.639058,0 4.06e-4,0.02598 -0.118961,0 c -0.600081,1.065368 -1.019488,1.97564 -1.375152,2.703208 0.35607,-0.72838 0.775071,-1.63784 1.374746,-2.703208 l -0.877385,0 c -0.01665,0 -0.03329,0 -0.04994,0 -0.01583,0 -0.03167,0 -0.0471,0 l -0.002,0 c -0.03248,0 -0.06374,-0.0045 -0.09501,-0.0024 0,4.06e-4 -4.06e-4,-0.0028 -4.06e-4,-0.002 -0.942347,0.05684 -1.3832728,0.53512 -1.6049535,1.245229 -0.3881445,1.240764 -0.6232238,2.043849 -0.8493707,2.556639 0,0 0,-4.06e-4 0,0 0,0.0012 -8.12e-4,0.0012 -8.12e-4,0.0016 l 0,-0.0012 c -0.1039383,0.101502 -0.2119366,0.194072 -0.317499,0.278116 -0.055217,0.04385 -0.1104344,0.08526 -0.1660576,0.124239 0.046285,0.05562 0.093788,0.107592 0.1437272,0.155095 0.075518,0.07349 0.1563134,0.135201 0.2444173,0.182704 0,0 -4.06e-4,0 -4.06e-4,0 -0.088104,-0.0475 -0.1688997,-0.109216 -0.2448234,-0.182704 -0.049939,-0.0475 -0.097036,-0.09947 -0.1437271,-0.155095 0,0 0,0 0,0 0.055623,-0.03898 0.1104344,-0.0808 0.1656516,-0.124645 -0.3041246,-0.67356 -0.4807386,-1.818099 -0.8083877,-2.709289 0.3276491,0.890784 0.5046691,2.035729 0.8083638,2.709298 0.1055623,-0.084044 0.2111247,-0.176614 0.317093,-0.278116 -0.4393017,-1.316281 -0.5968331,-3.709298 -1.8700771,-3.709298 -0.089728,0 -0.180268,0.0085 -0.270402,0.02477 0.090134,-0.01665 0.180674,-0.02517 0.270402,-0.02517 l -0.5006091,-0.0069 c 0.079578,0 0.1546893,0.02233 0.226147,0.02233 0,0 0,0 0,0 -0.071458,0 -0.1465692,-0.02233 -0.225741,-0.02233 -0.0069,0 -0.013804,-0.0016 -0.020706,-0.0012 0.0069,0 0.013804,-0.0024 0.020706,-0.0024 l -2.0138044,0 c -0.011368,0 -0.022737,-0.0016 -0.034511,-0.0016 -1.0986602,0 -2.6126675,2.053999 -3.29476245,4.678847 0,0 0.049533,0 0.13114085,0 0,0 0,0 0,0 0.094194,0 0.3857085,0 0.3857085,0 z m 9.6082014,-4.668697 c 0,0 0,0 0,0 -0.327649,0.103126 -0.568819,0.28177 -0.747869,0.518473 0.17905,-0.236703 0.419814,-0.415347 0.747869,-0.518473 z m -1.5395859,4.411693 c -0.00325,0.0016 -0.00609,0.0032 -0.00934,0.0049 -0.00447,0.0024 -0.00934,0.0045 -0.013804,0.0069 -4.06e-4,0 -8.12e-4,4.06e-4 -8.12e-4,4.06e-4 0.00812,-0.0041 0.015834,-0.0081 0.023955,-0.01177 z m -0.1335769,0.059277 c 0.00203,-0.0016 0.00406,-0.0016 0.0065,-0.0024 -0.00203,0.0012 -0.00406,0.0016 -0.00609,0.0024 -0.00447,0.002 -0.00893,0.0032 -0.013398,0.0049 0.00447,-0.0016 0.00853,-0.0032 0.012992,-0.0049 z m -0.015834,0.0065 c 0,0 0,0 0,0 0,0 -4.06e-4,0 -4.06e-4,0 0,0 0,0 4.06e-4,0 z m -0.1015022,0.0341 c 0.00771,-0.0024 0.014616,-0.0045 0.021924,-0.0065 0.00365,-0.0016 0.00731,-0.0028 0.010962,-0.0037 0.00447,-0.0016 0.00853,-0.0028 0.01218,-0.0045 0.00447,-0.0016 0.00893,-0.0024 0.012586,-0.0041 0.00365,-0.0016 0.0069,-0.0024 0.010556,-0.0041 0.00853,-0.0032 0.017052,-0.0057 0.025985,-0.0089 0.00122,0 0.00244,-4.06e-4 0.00325,-0.0012 -8.12e-4,4.06e-4 -0.00203,8.12e-4 -0.00284,0.0012 -0.00853,0.0032 -0.017052,0.0057 -0.025579,0.0089 -0.00365,0.0016 -0.00731,0.0024 -0.010556,0.0037 -0.00365,0.0016 -0.00812,0.0028 -0.012586,0.0041 -0.00365,0.0016 -0.00812,0.0024 -0.012586,0.0045 -0.00365,0.0016 -0.00731,0.002 -0.010962,0.0037 -0.00771,0.002 -0.014616,0.0041 -0.021924,0.0065 -4.06e-4,0 -0.00122,4.06e-4 -0.00162,4.06e-4 4.06e-4,0 8.12e-4,-4.06e-4 0.00122,-4.06e-4 z m -5.2971986,-4.416159 0,-0.0032 c 0,0 0.00244,0.0032 0.00284,0.0032 l 0,0 c -0.021518,0 -0.042631,0.01502 -0.063743,0.02396 0.00325,-0.0016 0.0069,-0.0037 0.01015,-0.0049 -0.017052,0.0073 -0.034105,0.01502 -0.051157,0.02314 -0.00893,0.0045 -0.01827,0.0085 -0.027203,0.0134 z m 0.051969,-0.02598 0,0 z m 0.1457572,-0.04385 c -0.00284,0.0016 -0.00487,0.0077 -0.00731,0.0077 -0.017864,0.0045 -0.035729,0.0093 -0.053593,0.01421 -0.00203,0 -0.00365,0.0016 -0.00609,0.002 -0.00487,0.0012 -0.00974,0.0028 -0.015022,0.0045 0.00528,-0.0016 0.01015,-0.0045 0.015022,-0.0053 0.00244,0 0.00447,-0.002 0.00609,-0.002 0.017864,-0.0049 0.035729,-0.0097 0.053593,-0.01421 0.00244,0 0.00447,-0.0073 0.00731,-0.0073 0.00487,-0.0016 0.00974,-0.0081 0.015022,-0.0085 -0.00528,4.06e-4 -0.01015,0.0085 -0.015022,0.0093 z m 0.023548,-0.0024 c -0.00244,0.0016 -0.00528,0.0032 -0.00771,0.0041 0.00244,-0.0016 0.00487,-0.0045 0.00771,-0.0053 0.00528,-0.0016 0.01015,-0.0057 0.015834,-0.0057 -0.00568,0 -0.010556,0.0061 -0.015834,0.0069 z m 0.1961022,-0.0065 c -0.00974,-0.0016 -0.019082,-8.12e-4 -0.028421,-8.12e-4 -4.06e-4,0 -8.12e-4,0 -8.12e-4,0 0.00934,0 0.018676,-0.0012 0.028421,0 0.00122,0 0.00203,-4.06e-4 0.00325,-4.06e-4 -8.12e-4,4.06e-4 -0.00122,0.0012 -0.00244,0.0012 z m 0.025173,-0.01259 c -0.023548,0 -0.046691,0.0049 -0.070646,0.0065 0.00325,0 0.0065,0.0041 0.00974,0.0049 -0.00609,-8.12e-4 -0.01218,-0.0045 -0.01827,-0.0049 0.00284,-4.06e-4 0.00568,-0.002 0.00853,-0.002 -0.00162,0 -0.00162,-8.12e-4 -0.00325,-8.12e-4 -0.00203,-0.0016 -0.00487,-0.0024 -0.00487,-0.0024 l 0,0.002 c -0.025984,0.0016 -0.02436,0.002 -0.035729,0.0032 l -0.00162,-0.002 c -0.00325,0 -0.00568,0.0016 -0.00853,0.0016 -0.00447,0.0016 -0.00974,0.0016 -0.014616,0.002 -0.00284,0 -0.00568,0 -0.00853,0.0016 -0.00528,0.0016 -0.01015,0.0024 -0.015022,0.0032 -4.06e-4,0 -8.12e-4,4.06e-4 -0.00122,4.06e-4 4.06e-4,0 8.12e-4,0 0.00122,0 0.00528,0 0.00974,-0.0024 0.015022,-0.0037 0.00284,0 0.00568,-0.002 0.00853,-0.002 0.00487,0 0.00974,-0.0016 0.014616,-0.0024 0.00244,0 0.00487,0 0.00812,-0.0016 0.00974,-0.0012 0.019488,-0.002 0.029233,-0.0028 0.00203,0 0.00365,4.06e-4 0.00568,4.06e-4 0.027609,-0.0024 0.054405,-0.0032 0.081608,-0.0032 z m 0.065367,0.02842 c -0.01827,-0.0049 -0.036947,-0.0085 -0.055623,-0.01178 -0.00162,0 -0.00325,-8.12e-4 -0.00487,-0.0012 0.00122,4.06e-4 0.00284,8.12e-4 0.00447,8.12e-4 0.018676,0.0037 0.037353,0.0073 0.055623,0.01218 4.06e-4,0 0.00122,4.06e-4 0.00162,4.06e-4 -4.06e-4,0 -4.06e-4,0 -8.12e-4,0 z m 0.3974828,0.317499 0,0 c 0,0 0,4.06e-4 -4.061e-4,4.06e-4 -0.057247,-0.09663 -0.1201786,-0.177832 -0.1900121,-0.237109 8.12e-4,4.06e-4 0.00203,0.0012 0.00284,0.0016 0.068615,0.05968 0.1303289,0.139667 0.1871701,0.235485 0,0 0,0 0,0 z m 0.089322,0.172148 0,0 z m 1.0194886,-0.494113 c 0.073082,-0.01381 0.1465692,-0.02274 0.2188388,-0.02598 -0.072676,0.0037 -0.1457572,0.01218 -0.2192449,0.02639 z m -0.7149818,0.691027 c -4.06e-4,-0.0012 -0.00122,-0.002 -0.00162,-0.0032 4.06e-4,0.0012 0.00122,0.002 0.00162,0.0032 l 0,0 z m 0.9358508,-0.608638 c -0.1153065,0.04304 -0.2310191,0.09826 -0.3467316,0.165652 0.1157125,-0.0674 0.2314251,-0.122615 0.3467316,-0.165652 0.078766,-0.02923 0.1571255,-0.05237 0.2354852,-0.06983 -0.078766,0.01746 -0.1571255,0.0406 -0.2354852,0.06983 z m 0.2967925,-0.08282 0,0 0,0 0,0 z m 0.8786034,4.472188 c 0.047503,-0.01259 0.095412,-0.02761 0.1429151,-0.04425 0,0 0,0 0,0 -0.047909,0.01665 -0.095412,0.03126 -0.1429151,0.04425 z m 1.2310191,-0.07998 c 0,0 0,0 0,0 -0.00284,0.0016 -0.00568,0.0028 -0.00853,0.0045 0.00284,-0.0016 0.00609,-0.0032 0.00893,-0.0049 z m 0.2541615,0.131141 c -0.1157125,-0.0138 -0.2192448,-0.04791 -0.3138449,-0.09907 0.0946,0.05116 0.1981324,0.08526 0.3138449,0.09907 0.017052,0.0016 0.033699,0.0032 0.051157,0.0045 -0.017458,-0.0012 -0.034511,-0.0028 -0.051157,-0.0045 z m -0.00812,-0.344701 4.06e-4,-0.002 c 0,0 0,-4.06e-4 4.06e-4,-4.06e-4 0.063743,0.108404 0.1343889,0.197726 0.2139667,0.259439 -0.079578,-0.0605 -0.1506293,-0.147787 -0.2143727,-0.257003 z m 0.1810799,0.349167 c -0.00325,0.0016 -0.00609,0.0016 -0.00934,0.0016 -4.06e-4,0 -4.06e-4,0 -8.12e-4,0 0.00325,0 0.0065,0 0.00934,-0.0016 0.00609,0 0.01218,0 0.018676,-0.0016 4.06e-4,0 8.12e-4,0 8.12e-4,0 -0.0065,0.0016 -0.012586,0.0016 -0.018676,0.0016 z m 0.076736,-0.0085 c -0.0069,0.0012 -0.01421,0.0016 -0.021518,0.0032 -0.00203,0 -0.00406,0.0016 -0.00609,0.0016 0,0 -0.00162,0 -0.00162,0 -0.0065,8.12e-4 -0.013398,0.002 -0.019894,0.002 -4.061e-4,0 -8.12e-4,0 -8.12e-4,0 0.0065,0 0.013398,-0.0016 0.019894,-0.002 l 0.00162,0 c 0.00203,0 0.00406,-0.0016 0.00609,-0.0016 0.00731,-0.0016 0.014616,-0.0024 0.021518,-0.0032 8.12e-4,0 0.00122,0 0.00162,0 -4.061e-4,0 -4.061e-4,0 -8.121e-4,0 z"/>
</svg>
