<svg role="img" focusable="false" aria-hidden="true" xmlns="http://www.w3.org/2000/svg" viewBox="0 0 14 14" height="1em" width="1em">
  <path d="M 11.534103,6.7427511 C 11.34449,3.6818461 7.9585334,1.0272561 6.5770624,1.0001681 5.1685044,0.97307808 2.5680895,4.2235991 2.4597389,7.5282931 2.3513883,10.616286 5.0330663,12.729123 6.1978354,13 c 0.02709,-1.462733 0.162526,-6.8260889 0.162526,-7.4491059 0.05418,-1.273119 0.108351,-3.277606 0.325052,-3.331781 0.135438,-0.02709 0.297964,1.083506 0.270877,1.73361 0,0.135438 0,0.541753 0,1.110594 0.243788,-0.243789 0.487577,-0.487578 0.623016,-0.623016 0.406314,-0.406315 0.595928,-0.35214 0.379227,0 -0.108351,0.216701 -0.623016,0.948067 -1.002243,1.462733 0,1.056419 0,2.383714 0,3.602658 0.541753,-0.623016 1.191856,-1.354383 1.543996,-1.679434 0.731367,-0.704279 0.81263,-0.595929 0.46049,0.10835 -0.216701,0.433403 -1.246032,1.62526 -1.977399,2.5733279 0,1.083506 0,2.004486 0,2.437889 2.004487,-0.406315 4.7403396,-3.1692559 4.5507256,-6.2030739"/>
</svg>
