<svg role="img" focusable="false" aria-hidden="true" xmlns="http://www.w3.org/2000/svg" viewBox="0 0 14 14" height="1em" width="1em">
  <path d="m 2.8200597,11.455 c -0.15144,-0.1674 -0.13972,-0.201 0.22286,-0.6398 0.21048,-0.2547 0.38223,-0.4853 0.38167,-0.5123 -5.7e-4,-0.027 -0.26224,-0.199 -0.5815,-0.3819 -1.7994,-1.0311 -2.34994009,-3.0215 -1.34596,-4.8662 0.36934,-0.6786 1.37299,-1.5824 2.21588,-1.9956 1.14856,-0.5629 1.75158,-0.6883 3.32392,-0.691 1.18318,0 1.47878,0.029 2.09077,0.2201 2.6802703,0.8369 4.2028503,2.8068 3.8114303,4.9311 -0.31498,1.7095 -1.60384,2.9188 -3.6753503,3.4486 -0.79178,0.2025 -2.64181,0.256 -3.45059,0.1 -0.34339,-0.066 -0.50256,-0.042 -0.91253,0.1393 -0.45592,0.2016 -1.38148,0.4245 -1.76287,0.4245 -0.0868,0 -0.22982,-0.08 -0.31773,-0.1766 z m 1.95306,-0.7417 c 0.53691,-0.1913 0.69805,-0.2115 1.04538,-0.1314 0.72783,0.1679 2.53193,0.1202 3.34759,-0.088 C 10.50705,10.151 11.62061,9.4032 12.09114,8.5296 13.52261,5.8722 11.17209,3.0025 7.4127197,2.8179 c -1.94265,-0.095 -3.66074,0.4844 -4.78533,1.6149 -0.77906,0.7832 -1.04183,1.3331 -1.08699,2.2747 -0.0676,1.4092 0.4606,2.2368 1.89907,2.9755 0.80282,0.4123 0.81788,0.4595 0.35447,1.1103 l -0.19715,0.2769 0.27079,-0.065 c 0.14894,-0.036 0.55643,-0.1669 0.90554,-0.2912 z m 1.38682,-2.5563 c -0.88998,-0.7286 -1.17829,-1.2547 -1.13351,-2.0685 0.0223,-0.4047 0.48875,-0.8242 0.91654,-0.8242 0.44033,0 0.67984,0.1296 0.89579,0.4847 l 0.17179,0.2825 0.16314,-0.249 c 0.19768,-0.3017 0.75083,-0.5498 1.03439,-0.464 0.57758,0.1749 0.92656,0.9169 0.7223,1.5358 -0.15149,0.459 -0.75344,1.0947 -1.42004,1.4997 -0.30018,0.1823 -0.58296,0.3304 -0.62839,0.329 -0.0454,0 -0.37033,-0.2381 -0.72201,-0.526 z"/>
</svg>
