<svg role="img" focusable="false" aria-hidden="true" xmlns="http://www.w3.org/2000/svg" viewBox="0 0 14 14" height="1em" width="1em">
  <path d="m 7,3.6885 0,10e-4 c -1.827,0 -3.31,1.483 -3.31,3.31 0,1.827 1.483,3.31 3.31,3.31 1.827,0 3.31,-1.483 3.31,-3.31 0,-1.828 -1.482,-3.31 -3.31,-3.3115 z m -1.431,4.123 -0.4975,0 0,-0.168 -0.091,0.077 C 4.9095,7.7745 4.8285,7.8145 4.742,7.837 4.701,7.847 4.641,7.8545 4.566,7.8545 4.435,7.858 4.3085,7.806 4.217,7.712 4.1235,7.617 4.0785,7.499 4.0785,7.354 c 0,-0.119 0.023,-0.2135 0.07,-0.287 C 4.1985,6.992 4.2685,6.932 4.351,6.893 4.4535,6.848 4.5625,6.817 4.674,6.803 4.799,6.7865 4.932,6.773 5.0755,6.764 l 0,-0.0085 c 0,-0.088 -0.033,-0.1485 -0.098,-0.1815 -0.065,-0.035 -0.161,-0.051 -0.29,-0.051 -0.0585,0 -0.127,0.01 -0.205,0.0315 -0.079,0.022 -0.154,0.05 -0.229,0.082 l -0.0435,0 0,-0.385 c 0.0485,-0.015 0.128,-0.031 0.24,-0.05 0.1085,-0.02 0.219,-0.03 0.3315,-0.03 0.275,0 0.475,0.046 0.6,0.138 0.125,0.0915 0.1875,0.231 0.1875,0.4185 l 0,1.084 z M 7.179,7.728 C 7.144,7.742 7.112,7.756 7.079,7.771 7.042,7.786 7.004,7.8 6.964,7.811 6.917,7.823 6.871,7.833 6.829,7.841 6.787,7.848 6.731,7.852 6.661,7.852 6.5295,7.852 6.408,7.8355 6.2995,7.802 6.1945,7.771 6.0965,7.7195 6.0145,7.6485 5.933,7.5775 5.8685,7.4885 5.828,7.3885 5.783,7.2835 5.7605,7.16 5.7605,7.0195 c -0.004,-0.135 0.021,-0.2675 0.073,-0.39 0.045,-0.102 0.112,-0.192 0.196,-0.265 0.0825,-0.067 0.1775,-0.1165 0.28,-0.145 0.11,-0.033 0.2235,-0.048 0.3375,-0.048 0.185,0 0.366,0.0435 0.53,0.1275 l 0,0.427 -0.0635,0 C 7.0895,6.7045 7.0655,6.6835 7.04,6.664 7.01,6.64 6.979,6.619 6.946,6.601 6.8625,6.5535 6.7675,6.529 6.671,6.531 6.544,6.531 6.446,6.574 6.376,6.6625 6.307,6.751 6.271,6.8695 6.271,7.0195 c 0,0.16 0.0375,0.28 0.1125,0.3575 0.075,0.0785 0.1735,0.1175 0.296,0.1175 0.055,0 0.111,-0.0065 0.165,-0.021 C 6.921,7.452 6.992,7.4135 7.052,7.361 7.076,7.341 7.096,7.32 7.1135,7.306 l 0.065,0 0,0.4215 z m 2.1665,0.0865 0,-0.7985 c 0,-0.0785 0,-0.145 -0.0035,-0.1985 C 9.341,6.7725 9.332,6.7275 9.316,6.686 9.3045,6.653 9.281,6.626 9.251,6.611 9.1745,6.579 9.0885,6.5795 9.012,6.612 8.969,6.632 8.928,6.6555 8.89,6.682 l 0,1.1315 -0.4965,0 0,-0.7975 C 8.3935,6.938 8.392,6.873 8.3885,6.818 8.387,6.773 8.3785,6.728 8.3635,6.686 8.35,6.653 8.3255,6.626 8.2955,6.611 8.2655,6.5945 8.223,6.587 8.1705,6.587 c -0.0415,0 -0.0825,0.01 -0.12,0.028 -0.039,0.02 -0.076,0.043 -0.114,0.068 l 0,1.131 -0.4975,0 0,-1.594 0.4965,0 0,0.178 c 0.072,-0.0625 0.148,-0.1165 0.23,-0.1615 0.074,-0.04 0.157,-0.06 0.242,-0.06 0.091,-0.002 0.18,0.0225 0.257,0.07 0.0765,0.05 0.135,0.122 0.17,0.207 0.095,-0.0885 0.185,-0.157 0.27,-0.205 C 9.1895,6.2005 9.2745,6.176 9.362,6.176 9.43,6.175 9.497,6.1875 9.56,6.2135 c 0.0575,0.022 0.11,0.058 0.15,0.105 0.045,0.053 0.08,0.115 0.1,0.182 0.0225,0.071 0.033,0.164 0.033,0.2765 l 0,1.038 -0.4975,0 z M 7,1 1,7 7,13 13,7 7,1 Z m 0,9.6785 C 4.969,10.6775 3.3225,9.0315 3.3215,7 3.3225,4.969 4.969,3.322 7,3.321 9.0315,3.322 10.6775,4.9685 10.6785,7 10.6775,9.0315 9.0315,10.6775 7,10.6785 Z M 4.7175,7.125 c -0.04,0.0125 -0.075,0.036 -0.101,0.0675 -0.024,0.036 -0.0365,0.079 -0.035,0.1225 0,0.075 0.019,0.126 0.06,0.154 C 4.68,7.497 4.7385,7.51 4.8175,7.51 4.861,7.51 4.9045,7.5 4.9495,7.48 4.9945,7.461 5.0365,7.4325 5.072,7.3975 l 0,-0.33 C 4.988,7.075 4.9205,7.0825 4.8695,7.09 4.817,7.095 4.766,7.107 4.717,7.125 Z"/>
</svg>
