<svg role="img" focusable="false" aria-hidden="true" xmlns="http://www.w3.org/2000/svg" viewBox="0 0 14 14" height="1em" width="1em">
  <path d="m 11.246457,7.9524 c 0,0 -4.3742024,-5.84467 -4.8931734,-6.49955 C 6.1208276,1.15952 5.7642356,1 5.3271676,1 c -0.53869,0 -1.199709,0.24207 -1.902321,0.77412 -1.272728,0.96381 -1.606369,2.00175 -1.099747,2.71843 0.506621,0.71665 4.924048,6.54277 4.924048,6.54277 L 11.901357,13 11.246457,7.9524 Z m -0.96326,0.0741 C 10.045327,8.20889 9.7215866,8.3069 9.3592546,8.29942 8.7999736,8.28822 8.2798076,8.03111 7.9678076,7.6116 c 0,0 -1.996427,-2.66709 -2.517,-3.3625 0.657845,-0.4521 1.300457,-0.57828 1.538214,-0.61107 1.121418,1.48835 2.647075,3.52445 3.2941754,4.38847 z M 6.5900216,3.109 c -0.388427,0.0894 -0.971476,0.28512 -1.559709,0.71083 -0.586776,0.42463 -0.949456,0.98877 -1.153369,1.39654 -0.158009,-0.21076 -0.301951,-0.4032 -0.42699,-0.57099 0.141757,-0.33131 0.468524,-0.95272 1.063107,-1.38297 0.772864,-0.55931 1.545,-0.65758 1.685155,-0.67122 0.116389,0.15341 0.248389,0.32794 0.391806,0.51781 z m -3.620388,0.40777 c 0.129757,-0.34008 0.466252,-0.72807 0.947534,-1.0925 0.510873,-0.38688 1.024806,-0.60874 1.41,-0.60874 0.181136,0 0.31133,0.0484 0.386971,0.14383 0.0196,0.0248 0.04535,0.0577 0.07593,0.0973 -0.386418,0.0821 -1.002729,0.27513 -1.624719,0.72527 -0.551854,0.39938 -0.905417,0.92211 -1.115243,1.32219 -0.02333,-0.0322 -0.04337,-0.0601 -0.05907,-0.0823 -0.03804,-0.0538 -0.139048,-0.19672 -0.02141,-0.50505 z m 1.314262,2.24152 c 0.106602,-0.26697 0.374505,-0.83176 0.874893,-1.28074 0.449913,0.60088 1.965204,2.62474 2.516447,3.36327 0.285233,0.38207 0.397077,0.89691 0.306932,1.41253 -0.06192,0.35432 -0.218243,0.66714 -0.418165,0.84716 -0.66134,-0.87297 -2.166729,-2.86144 -3.280107,-4.34222 z m 6.0205314,5.68203 -2.5016194,-1.05644 c 0.267496,-0.23618 0.466835,-0.62266 0.544486,-1.06674 0.05464,-0.31241 0.04605,-0.62555 -0.02059,-0.91891 0.306844,0.16806 0.659213,0.2645 1.025126,0.27184 0.015,2.9e-4 0.02986,4.3e-4 0.04477,4.3e-4 0.41315,0 0.7884704,-0.11522 1.0784804,-0.32481 l 0.35377,2.72633 c -0.24941,0.025 -0.42676,0.14447 -0.52442,0.3683 z"/>
</svg>
