<svg role="img" focusable="false" aria-hidden="true" xmlns="http://www.w3.org/2000/svg" viewBox="0 0 14 14" height="1em" width="1em">
  <path fill="#f7f5ed" d="M6.99746829 5.206376l.0235081-.0174163 4.8423562 3.6154833H2.13158837l4.84237182-3.6154833z" class="fil0"/>
  <path fill="#f7f5ed" d="M4.56374 10.5595L9.43626 7.022l-.0265-.019h-.003l-.009-.01c-.45053-.3173-.89911-.6396-1.34661-.9653-.00005-.0001-.00008-.0001-.00012-.0001C6.88672 5.18 5.72961 4.3088 4.5638 3.4406v7.1135l.00011-.0001z" class="fil0"/>
  <path fill="#e75a4d" d="M11.86331462 11.342143h.34182027c.43471944 0 .79038762-.35566584.79038762-.79038762V3.35103691c0-.43471944-.35567521-.79038762-.79038762-.79038762h-.34182027v8.7814859zm-9.73174422.0668536h-.34182027c-.43471007 0-.79038762-.35566584-.79038762-.79038762V3.35106034c0-.43471944.35566584-.79038762.79038762-.79038762h.34182027v8.8483395z" class="fil1"/>
  <path fill="#f7f5ed" d="M6.99745032 6.15873972l.0235081.01742411 4.8423562-3.61551454H2.1315704l4.84237182 3.61551454z" class="fil0"/>
  <path fill="#b7b6ad" d="M7.00268302 7.8725505l4.86067846 3.46960812V4.2977573c-.80412541.59883956-1.60412714 1.19911616-2.40519884 1.79209822-.75827446.56129689-1.51750643 1.11605681-2.28213667 1.65685245l-.00021868.0001562-.1731149.12568243z"/>
  <path fill="#b7b6ad" fill-rule="nonzero" d="M2.14986923 11.4342229l-.03659766-.0505307 4.89550325-3.5571426.0365508.0505307z"/>
  <path fill="#e75a4d" d="M7.00268302 7.8725505C5.15723469 6.77326957 2.80294143 4.78635871.99939375 3.45886958l.53361435-.83645881.58299228-.04767177.01559853-.01407643L6.9739633 6.1761693l.02351278-.0174249.02351279.0174249 4.842364-3.61550673.01559892.01407643.5829923.04767177.53361434.83645881C11.0449094 4.89462874 9.00882679 6.55608909 7.0026799 7.8725505z" class="fil1"/>
  <path fill="none" d="M0-2034h2048V14H0z"/>
</svg>
