<svg aria-hidden="true" xmlns="http://www.w3.org/2000/svg" viewBox="0 0 14 14" height="1em" width="1em">
  <path d="M1 3.704c0-.034.017-.05.05-.05h.767c.036 0 .053.016.053.05v1.522c.285-.144.594-.215.934-.213.45.002.828.116 1.13.337.351.253.525.598.525 1.037v2.552c0 .035-.017.052-.05.052h-.512a.306.306 0 0 1-.308-.305v-2.3c0-.016.051-.505-.858-.505-.912 0-.86.49-.86.506v2.552c0 .035-.016.052-.052.052h-.768C1.017 8.991 1 8.974 1 8.94V3.704zm9.332 4.153c.257.191.64.358 1.095.358.437 0 .615-.084.684-.255.056-.148-.011-.302-.229-.398l-1.005-.44c-.4-.176-.633-.45-.697-.818-.107-.631.416-.999.425-1.006.248-.18.6-.29 1.097-.29.357 0 .702.063 1.033.186.025.01.036.025.036.05v.837c0 .04-.043.064-.075.045-.744-.388-1.436-.23-1.575-.127-.124.092-.112.234.049.302l1.08.474c.31.133.527.345.654.64.103.236.124.48.058.732-.18.692-.842.854-.855.86-.197.057-.442.08-.68.08-.312 0-.612-.05-.904-.154a.377.377 0 0 1-.274-.388V7.9c0-.04.043-.07.083-.043zM8.054 5.009c-.595 0-1.954.377-1.954 1.94v3.441c0 .015.011.05.05.05h.767c.036 0 .053-.016.053-.05V8.725c.31.238.671.358 1.082.358a2.03 2.03 0 0 0 2.038-2.038 2.026 2.026 0 0 0-2.036-2.036Zm0 3.204c-.323 0-.598-.114-.825-.341a1.121 1.121 0 0 1-.342-.825c0-.647.518-1.166 1.167-1.166A1.16 1.16 0 0 1 9.22 7.047a1.16 1.16 0 0 1-1.166 1.166Zm-2.337.726c0 .035-.016.052-.052.052h-.767c-.03 0-.05-.026-.05-.052V5.155c0-.026.02-.052.05-.052h.767c.036 0 .052.016.052.052v3.784m-.436-5.38a.54.54 0 1 1 .002 1.086.54.54 0 0 1-.002-1.086"/>
</svg>
