<svg aria-hidden="true" xmlns="http://www.w3.org/2000/svg" viewBox="0 0 14 14" height="1em" width="1em">
  <path d="M5.145 3.818c-.168.197-.337.392-.376.656l.037.045a1.4 1.4 0 0 1 .436-.327c0 .279.18.552.419.686l.04.003a1.72 1.72 0 0 1 .099-.918c.183-.154.424-.215.579-.377-.388-.091-.757-.015-1.088.112l-.146.12zm1.592.852c-.25.019-.483.063-.718.125.104.096.235.128.333.217-.308.117-.63.19-.9.428l.057.033a4.05 4.05 0 0 1 1.605.016l.03-.022-.3-.547.462-.1c-.246-.23-.527-.456-.849-.554.049.134.184.267.28.403zm1.808.55c.245.045.516.05.75.006-.386-.197-.88-.158-1.187-.504.057.182.183.474.436.497zM4.87 6.61c.096.31-.228.686.032.969.22.257.49.47.75.66l-.022-.097c-.23-.27-.444-.569-.55-.89.27.095.557.226.867.27-.349-.52-.987-1.019-.746-1.732.012-.118.168-.208.13-.317-.366.28-.519.69-.46 1.138zm7.939-.897c-.494-.684-2.28-.792-3.088-1.693.138-.448-.151-.816-.445-1.096-.443-.325-1.053-.175-1.524-.04-.536-.113-1.032-.305-1.554-.457-1.162-.122-2.306.727-2.306.727-.824.545-2.116 1.674-2.734 2.332.152.02.314-.098.485-.12l1.188-.326C2.339 5.464 1.3 6.21 1 6.799c.37-.134 1.148-.582 1.536-.619-.338.31-1.043.899-1.264 1.273.027.013.008.045.013.069.29-.167.996-.603 1.317-.632-.33.356-.936 1.04-1.07 1.499.287-.196 1.007-.591 1.322-.712-.072.18-.231.315-.334.497-.143.25-.481.535-.493.833.25-.243.562-.456.874-.628-.14.3-.395.55-.465.908.204-.207.593-.314.857-.409l-.032.032c-.023.019-.32.238-.522.482.18-.011.047-.034.273.018l-.374.152c.274.359.571.669.889.929-.014-.079-.012-.167-.06-.182l.924-.52c-.314.052-1.172.317-1.224.273.188-.21 1.163-.49 1.348-.858 0 0 .03-.013-.066.023l-.735.04c-.144-.52.467-.793.154-1.207-.467-.618-.849-1.255-.767-2.038.043.093.086.196.164.27.032-.173.04-.368.088-.523.067.235.138.504.382.65l.012-.016c-.2-.74-.074-1.626.652-2.08-.194.065-.48.047-.763.17.048-.068.133-.42.33-.595.16-.108.24-.237.404-.327.326-.26.657-.475 1.225-.565.53-.085 1.002.16 1.5.24-.022.076-.117.112-.15.174-.046.086-.161.173-.115.266l.385-.148c.541-.136 1.055-.41 1.645-.349l.295.375c-.633-.504-1.292.14-1.919.278-.24.043-.476.129-.704.179.26.194.569.238.906.202.036.245.336.636.558.692-.032-.228-.286-.539-.123-.818.21-.117.509-.376.746-.183-.151.015-.279.118-.41.187-.097.071-.122.289-.102.338.098.296.634.575 1.544.565-.078-.135-.53-.53-.502-.682.917.91 2.607 1.124 2.999 1.522.034.133-.364.426-.287.543-.045.14.171.388.392.656-.173-1.082.4-.368.104.408l-.417-.092c-1.354-.095-1.882-.559-2.949-1.256-.396-.263-.843-.64-1.114-.859l-.595-.227c.79.959.994.87.602 1.582l-.207-.363-.08-.664c-.232.795-.36 1.633.695 2.12l.6.085c-.28-.23-.529-.451-.467-.72.327.631 1.845.943 2.487 1.12a.78.78 0 0 1 .29.183c-.169.152-.267.13-.492.21-.49-.167-1.158-.301-1.38-.62.123.177-1.96.422-1.558.456-.59-.027-1.182-.41-1.597-.881l-.108-.037c.012.463.448.788.678 1.182l.455.202c-.217.14-.49.27-.627.516-.048.122-.144.275-.083.403.204-.217.471-.324.735-.39l-.198.3c.042.336-.234.927-.422 1.275-.222.544-1.633.033-2.9-.344 1.02.76 2.253 1.049 3.67.926l-.153-.331c.333-.656.156-1.707 1.025-2.16.589-.314.655-.485 1.334-.357.367.07 1.17.346 1.554.259.348-.202.523-.294.823-.527.378.067.5.027.637-.18.07-.192.24-.701.394-1.034l.011-.18c-.151-.451-.114-1.222-.19-1.333zM8.502 4.422a.232.232 0 0 0-.003.093.326.326 0 0 1-.135-.252.612.612 0 0 1 .234.026.216.216 0 0 0-.096.133zm.272.214a.217.217 0 0 0 .085-.196c.066.057.124.124.177.196a.731.731 0 0 1-.262 0zm.845 2.599c.01-.074-.003-.162.032-.222.053.022.15.023.172.068-.075.032-.128.116-.204.154zm.474.24.012-.205c.062-.014.108.025.142.053l-.155.151zm.366.163c.014-.03-.009-.24.032-.238l.124.073c-.037-.003-.12.167-.157.165zm.337.174.039-.097c-.007-.189 0-.15.14-.122-.05.047-.094.212-.18.219zm.444.127.01-.295.143.033-.153.262zm.39-.046c-.01-.228 0-.202.176-.134l-.175.134zm.42.143c.004-.08.028-.172.002-.248.049.004.104-.012.145.022-.011.092-.106.148-.148.226zm-1.591-.398c.037.003.12-.167.156-.165l-.123-.073c-.043-.003-.02.208-.033.238zm-3.666 3.075c.056.105.058.233.114.338a.913.913 0 0 0-.054-.883c-.298-.132-.586-.269-.844-.476.107.363.456.765.784 1.021zm-.107.728.29-.236c-.282-.183-.758-.51-1.017-.753.203.421.21.887.726.99z"/>
</svg>
