<svg aria-hidden="true" xmlns="http://www.w3.org/2000/svg" viewBox="0 0 14 14" height="1em" width="1em">
  <path d="m4.86 3.058-.418-.026.026-.417.417.025-.026.418zm6.592 4.049-.078-.102c-.023-.03-.048-.058-.072-.088-.022-.03-.047-.056-.07-.084a8.57 8.57 0 0 0-.16-.18l-.038-.04-.045-.05-.068-.065c-.007-.009-.016-.017-.025-.026A5.435 5.435 0 0 0 8.92 5.22l-.115-.04.017-.04a2.054 2.054 0 0 0-.06-1.628 2.055 2.055 0 0 0-1.219-1.08c-.328-.108-.615-.16-.855-.153-.017-.052-.05-.288.248-.924L6.33 1l-.143.2c-.165.227-.324.447-.473.664a.928.928 0 0 0-.622-.29l-.698-.043h-.006c-.017-.002-.035-.002-.052-.002a.937.937 0 0 0-.935.878l-.044.7v.002a.938.938 0 0 0 .877.99l.501.03c-.032.42.037.81.203 1.153a5.64 5.64 0 0 0-1.83 1.242c-1.653 1.672-1.653 3.502-1.653 4.973v.888l.653-.694c.133.465.326.904.572 1.308h.849a4.599 4.599 0 0 1-.84-1.924l.956-1.015-.492 1.545.87-.634c1.537-1.117 3.372-1.375 5.455-.764.902.266 1.78.02 2.236-.629l.052-.082c.046.249.07.499.07.748 0 .781-.127 1.843-.69 2.756h.806c.388-.782.591-1.716.591-2.756 0-1.1-.393-2.21-1.092-3.137zM5.447 4.096c.061-.501.289-.975.615-1.485a.68.68 0 0 0 .642.375c.108-.005.302.012.616.115.357.118.643.372.804.713a1.356 1.356 0 0 1-.364 1.629l-.204-.251V5.19a.73.73 0 0 0-1.03-.102.724.724 0 0 0-.267.529c-.6-.27-.9-.822-.814-1.52l.002-.001zM7.599 6.65l-.26.212a.114.114 0 0 1-.162-.016l-.055-.067a.119.119 0 0 1 .017-.167l.255-.21-.527-.65a.153.153 0 0 1 .022-.218.152.152 0 0 1 .217.02l1.481 1.823a.155.155 0 0 1-.084.25.158.158 0 0 1-.155-.052l-.147-.183-.523.427a.122.122 0 0 1-.077.028.119.119 0 0 1-.093-.045l-.238-.29a.12.12 0 0 1 .017-.168l.526-.428L7.6 6.65h-.001zM4.876 3.433l-.598-.037a.232.232 0 0 1-.217-.244l.045-.7a.23.23 0 0 1 .23-.219h.012l.7.046a.23.23 0 0 1 .217.244l-.003.05c-.16.284-.293.567-.387.86h.001zm6.262 5.74c-.282.403-.843.541-1.462.36-1.943-.57-3.698-.452-5.234.35l.818-2.561-2.645 2.804a4.623 4.623 0 0 1 2.879-4.155 2.388 2.388 0 0 0 1.076.471.705.705 0 0 0 .105.704l.038.045a.693.693 0 0 0 .11.687l.238.29a.695.695 0 0 0 .982.1l.143-.116a.724.724 0 0 0 .448.04.734.734 0 0 0 .404-1.176l-.836-1.028c.073-.059.14-.122.204-.19.068.018.136.038.2.06a4.775 4.775 0 0 1 1.783 1.106l.043.04.085.088.055.06c.04.043.08.088.12.134l.063.075.065.08.057.075c.02.025.04.05.058.077.42.574.494 1.164.202 1.578v.003zm-4.915 2.513a.477.477 0 1 1-.478-.477c.262 0 .476.215.476.477m2.96 0a.477.477 0 1 1-.478-.477c.263 0 .477.215.477.477"/>
</svg>
