<svg aria-hidden="true" xmlns="http://www.w3.org/2000/svg" viewBox="0 0 14 14" height="1em" width="1em">
  <path d="M4.973 5.287a.527.527 0 0 1-.527.527.527.527 0 0 1-.528-.527.527.527 0 0 1 .528-.527.527.527 0 0 1 .527.527Zm5.313.362a.527.527 0 0 1-.527.527.527.527 0 0 1-.527-.527.527.527 0 0 1 .527-.527.527.527 0 0 1 .527.527ZM7.32 10.074a.527.527 0 0 1-.527.527.527.527 0 0 1-.527-.527.527.527 0 0 1 .527-.528.527.527 0 0 1 .527.528ZM7 13a6 6 0 0 1-6-6 6 6 0 0 1 6-6 6 6 0 0 1 6 6 6 6 0 0 1-6 6Zm0-.718a5.283 5.283 0 0 0 5.262-4.812 3.354 3.354 0 0 1-2.764 1.452A3.347 3.347 0 0 1 6.75 7.493 2.401 2.401 0 0 0 4.6 9.881 2.385 2.385 0 0 0 7 12.282zm-3.038-.96a3.347 3.347 0 0 1-.323-1.44c0-1.34 1.062-3.172 3.06-3.349.14-.313.207-.644.207-.971 0-1.205-1.03-2.407-2.406-2.407C2.274 3.155 1.718 5.74 1.718 7c0 1.786.886 3.366 2.244 4.322zm5.545-3.36c1.448 0 2.394-1.191 2.394-2.402 0-1.537-1.96-3.842-4.901-3.842-.668 0-1.419.114-2.225.49 1.853.148 3.092 1.723 3.092 3.354 0 .476-.102.958-.313 1.411a2.39 2.39 0 0 0 1.953.988z"/>
</svg>
