<svg role="img" focusable="false" aria-hidden="true" xmlns="http://www.w3.org/2000/svg" viewBox="0 0 14 14" height="1em" width="1em">
  <path d="m 6.9999052,1 c 0.642751,0 4.8750008,2.44275 5.1960008,3 0.3225,0.55725 0.3225,5.44275 0,6 -0.3225,0.55725 -4.5525008,3 -5.1960008,3 -0.6435,0 -4.874999,-2.44275 -5.197499,-3 -0.32025,-0.55725 -0.32025,-5.44275 0,-6 0.3225,-0.55725 4.554749,-3 5.197499,-3 z m 1.14735,3.399 c -0.0705,0 -0.128999,0.05775 -0.128999,0.129 l 0,1.93725 -2.036851,0 0,-2.0115 0.350251,0 c 0.0705,0 0.127499,-0.05775 0.127499,-0.129 0,-0.0465 -0.02475,-0.08775 -0.0615,-0.11025 L 5.6109052,3.46 c -0.024,-0.0315 -0.0705,-0.05475 -0.112499,-0.05475 -0.042,0 -0.08025,0.0225 -0.1035,0.054 l -0.84,0.75525 c -0.036,0.0225 -0.06,0.063 -0.06,0.1095 0,0.07125 0.057,0.129 0.127501,0.129 l 0.3525,0 0.003,5.0175 c 0,0.072 0.05625,0.129 0.1275,0.129 l 0.74625,0 c 0.0705,0 0.129,-0.05775 0.129,-0.1275 l 0,-2.0025 2.037,0 0,2.076 -0.350251,0 c -0.0705,0 -0.127499,0.05775 -0.127499,0.129 0,0.0465 0.024,0.087 0.06,0.1095 l 0.788999,0.75525 c 0.0225,0.03 0.0705,0.05475 0.112501,0.05475 0.042,0 0.0795,-0.0225 0.103499,-0.05475 l 0.84,-0.75525 c 0.036,-0.0225 0.06,-0.063 0.06,-0.1095 0,-0.07125 -0.05775,-0.129 -0.1275,-0.129 l -0.3525,0 -0.003,-5.0175 c 0,-0.072 -0.057,-0.12975 -0.1275,-0.12975 l -0.747,0 0,7.5e-4 z"/>
</svg>
