<svg role="img" focusable="false" aria-hidden="true" xmlns="http://www.w3.org/2000/svg" viewBox="0 0 14 14" height="1em" width="1em">
  <path d="m 12.688754,8.8135 0.0075,0 c -0.085,-0.177 -0.246,-0.304 -0.4375,-0.345 -0.0665,-0.3015 -0.1575,-0.45 -0.165,-0.472 0.035,-0.039 0.0675,-0.079 0.075,-0.088 0.28,-0.345 0.097,-0.8475 -0.38,-0.968 -0.2685,-0.255 -0.5115,-0.375 -0.711,-0.48 -0.1915,-0.09 -0.115,-0.052 -0.294,-0.135 -0.048,-0.232 -0.0635,-0.772 -0.14,-1.155 -0.067,-0.337 -0.205,-0.585 -0.4165,-0.75 -0.085,-0.18 -0.2025,-0.367 -0.3464997,-0.502 0.6659997,-1.02 0.8399997,-2.025 0.3524997,-2.55 C 10.018754,1.113 9.6957543,1 9.3102543,1 c -0.545,0 -1.212,0.2215 -1.887,0.63 l -0.446,-0.36 c -1.877,-1.4775 -7.18600005,5.055 -5.312,6.4825 l 0.484,0.37 c -0.3035,0.844 0.119,1.852 1,2.175 0.187,0.072 0.405,0.106 0.622,0.094 0,0 1.4175,2.6075 4.4175,2.6085 3.4649997,0 4.3499997,-3.395 4.3649997,-3.425 0,0 0.277,-0.416 0.135,-0.7615 z M 1.8052543,7.32 l 0.0035,0 c -0.38,-0.6425 0.2825,-1.961 0.7535,-2.71 1.1625,-1.853 3.1,-3.314 3.98,-3.105 l 0.2425,-0.093 0.6615,0.559 c 0.455,-0.274 1.0335,-0.5515 1.575,-0.6065 -0.33,0.073 -0.731,0.245 -1.2075,0.535 -0.01,0.0075 -1.125,0.765 -1.805,1.44 -0.3715,0.3675 -1.86,2.1525 -1.86,2.1525 0.273,-0.51 0.452,-0.765 0.8835,-1.305 0.2475,-0.3075 0.51,-0.6 0.7725,-0.8775 0.1275,-0.1275 0.2475,-0.2475 0.375,-0.3675 0.0465,-0.039 0.0915,-0.0765 0.136,-0.1165 -0.1475,0.102 -0.555,0.386 -0.781,0.575 -1.1335,0.9365 -2.2285,2.3995 -2.641,3.8245 l 0.02,0 c -0.205,0.1125 -0.405,0.2925 -0.583,0.5365 -0.0075,0 -0.4575,-0.333 -0.525,-0.442 z m 1.8555,2.68 c -0.67,0 -1.215,-0.5715 -1.215,-1.2775 0,-0.705 0.545,-1.2785 1.215,-1.2785 0.175,0 0.34,0.0375 0.488,0.1075 0,0 0.2585,0.131 0.3315,0.746 0.075,-0.1925 0.114,-0.35 0.114,-0.35 0.0865,0.264 0.13,0.5425 0.113,0.825 0.0725,-0.097 0.15,-0.277 0.15,-0.277 0.132,0.787 -0.44,1.505 -1.196,1.505 z m 1.495,-4.514 -0.02,-0.032 c 0.049,-0.065 0.105,-0.1275 0.159,-0.191 0.221,-0.33 0.716,-0.96 1.531,-1.427 -0.086,-0.013 -0.295,0.015 -0.332,0.018 0.2085,-0.18 0.595,-0.2985 0.8625,-0.3525 -0.077,-0.05 -0.264,-0.063 -0.356,-0.065 -0.028,-0.0075 -0.028,-0.0075 -0.06,0 0.252,-0.1425 0.719,-0.225 1.143,-0.15 -0.06,-0.075 -0.18,-0.1275 -0.2625,-0.15 l -0.038,-0.015 0.03,-0.0075 c 0.255,-0.0525 0.555,0 0.7875,0.0975 -0.03,-0.0675 -0.0975,-0.135 -0.1425,-0.18 l -0.0375,-0.03 c 0.2475,0.0525 0.48,0.1575 0.66,0.2775 -0.03,-0.045 -0.09,-0.1275 -0.1275,-0.1725 0.2325,0.0675 0.495,0.2325 0.615,0.4725 l 0.0075,0.0225 c -0.45,-0.345 -1.755,-0.2475 -3.06,0.6 -0.513,0.327 -0.905,0.6875 -1.221,1.0615 -0.0885,0.1315 -0.138,0.22 -0.14,0.223 z m 7.0074997,3.982 c -0.015,0.03 -0.18,0.915 -1.125,1.6575 -1.1849997,0.938 -2.7529997,0.841 -3.3379997,0.315 -0.315,-0.3 -0.45,-0.719 -0.45,-0.719 0,0 -0.0375,0.24 -0.045,0.33 -0.24,-0.405 -0.2175,-0.9 -0.2175,-0.9 0,0 -0.128,0.232 -0.18,0.367 -0.173,-0.45 -0.083,-0.9075 -0.083,-0.9075 l -0.135,0.203 c 0,0 -0.0675,-0.51 0.09,-0.93 0.1725,-0.45 0.5025,-0.7725 0.57,-0.8175 -0.255,-0.075 -0.54,-0.307 -0.54,-0.307 0,0 0.1125,0.008 0.195,-0.015 0,0 -0.5025,-0.36 -0.5925,-0.915 0.075,0.09 0.232,0.188 0.232,0.188 -0.052,-0.1425 -0.0825,-0.4725 -0.03,-0.7875 0.09,-0.6075 0.5925,-0.9975 1.1625,-0.9975 0.599,0 1.005,0.1275 1.514,-0.3375 0.105,-0.0975 0.1875,-0.18 0.338,-0.2175 0.015,0 0.06,-0.015 0.135,-0.015 0.082,-0.003 0.1625,0.0175 0.2325,0.06 0.2769997,0.165 0.3374997,0.5925 0.3669997,0.9 0.105,1.1625 0.06,0.9525 0.5325,1.1925 0.224,0.1125 0.479,0.2175 0.764,0.525 l 0,0.008 c 0.24,0 0.36,0.195 0.255,0.33 -0.81,0.9675 -1.9424997,1.432 -3.2019997,1.47 l -0.165,0.0075 c -0.51,0.015 -0.675,0.675 -0.3525,1.065 0.2015,0.2475 0.592,0.33 0.915,0.33 1.3799997,0.03 2.7669997,-0.945 3.0069997,-1.485 l 0.015,-0.038 c -0.0525,0.0675 -1.395,1.3275 -3.0224997,1.2825 0,0 -0.18,-0.0075 -0.345,-0.045 -0.218,-0.0525 -0.39,-0.15 -0.45,-0.375 0.135,0.03 0.3075,0.045 0.51,0.045 1.1775,0 2.0249997,-0.54 1.9424997,-0.5475 l -0.015,0 c -0.135,0.03 -1.5519997,0.577 -2.4449997,0.292 0.002,-0.025 0.006,-0.052 0.0125,-0.0765 0.08,-0.267 0.2215,-0.23 0.45,-0.24 l -0.05,0.0585 c 0.817,-0.028 1.4769997,-0.2325 1.9714997,-0.465 0.525,-0.2525 0.923,-0.575 1.073,-0.735 0.187,0.315 0.187,0.72 0.187,0.72 0,0 0.068,-0.027 0.165,-0.027 0.3075,0 0.375,0.2775 0.1425,0.555 z M 3.9722543,8.563 c -0.022,-0.015 -0.038,-0.0385 -0.045,-0.065 -0.01,-0.049 -0.005,-0.076 0.0375,-0.106 0.0325,-0.0225 0.059,-0.033 0.059,-0.0465 0,-0.012 -0.0275,-0.0275 -0.065,-0.0275 l 0.0085,-0.0215 c -0.045,0.0015 -0.0885,0.02 -0.12,0.053 -0.06,0.067 -0.0825,0.202 0.015,0.315 0.112,0.12 0.285,0.15 0.307,0.3 0.005,0.025 0.007,0.05 0.005,0.075 0,0.0225 -0.0085,0.06 -0.0085,0.0675 -0.03,0.1275 -0.143,0.255 -0.328,0.255 l -0.071,0 c -0.024,-0.0075 -0.0415,-0.0075 -0.0565,-0.0075 -0.01,0 -0.018,0 -0.021,0.008 -0.017,0.0225 0.0765,0.135 0.249,0.135 l 0.01,0 c 0.255,-0.008 0.465,-0.27 0.415,-0.555 -0.045,-0.2515 -0.2965,-0.305 -0.39,-0.379 z m 4.4935,-1.35 0.008,0 c 0.026,0 0.041,-0.005 0.0485,-0.015 0.02,-0.0335 -0.113,-0.141 -0.307,-0.141 l -0.0265,0.01 c -0.03,0 -0.06,0 -0.09,0.008 l -0.0825,0.0225 c -0.015,0 -0.0225,0.0075 -0.03,0.0075 -0.06,0.0225 -0.113,0.0525 -0.1575,0.0975 -0.052,0.06 -0.075,0.1125 -0.052,0.12 l 0.007,0 c 0.023,0 0.0525,-0.015 0.105,-0.035 0.1585,-0.0685 0.3315,-0.095 0.503,-0.079 0.029,0.0015 0.0515,0.005 0.074,0.005 z m 1.457,-0.312 c -0.015,0.0975 0.03,0.18 0.097,0.195 0.0075,0 0.015,0.0075 0.015,0.0075 0.0675,0 0.12,-0.065 0.135,-0.1525 0.015,-0.095 -0.03,-0.181 -0.105,-0.1915 -0.005,-0.002 -0.009,-0.002 -0.013,-0.002 l 0.013,-0.015 c -0.0675,0 -0.1274994,0.068 -0.1419994,0.158 z m -0.514,0.354 c 0.036,0.021 0.0765,0.032 0.118,0.032 0.0535,0 0.1,-0.0225 0.1225,-0.0625 0.04,-0.07 -0.008,-0.1675 -0.1025,-0.22 -0.038,-0.021 -0.08,-0.032 -0.117,-0.032 l -0.0035,0.005 c -0.052,0 -0.097,0.022 -0.12,0.06 -0.037,0.0675 0.009,0.1725 0.1035,0.2175 z m -2.897,-5.328 0.162,0.0525 -0.131,-0.475 -0.0765,0.236 0.045,0.186 m 0.266,0.496 c 0.0515,-0.0385 0.1125,-0.0835 0.1815,-0.1325 l 0.0085,0 -0.555,-0.168 0.36,0.305 0.005,-0.005 z m -0.4085,0.3575 -0.053,0.046 0.059,-0.04 -0.006,-0.005 z m 0.1935,-0.16 -0.87,-0.72 0.045,0.323 0.6315,0.557 c 0.025,-0.02 0.0485,-0.043 0.0735,-0.062 l 0.12,-0.0975 z m 0.6735,-0.5175 -0.267,-0.2235 0.0975,0.3375 c 0.0525,-0.0375 0.11,-0.075 0.17,-0.114 z m -3.516,5.9905 c 0.195,10e-4 0.3375,0.096 0.405,0.194 0.06,0.09 0.0375,0.143 0.0675,0.1685 0.0075,0.0065 0.015,0.01 0.0225,0.01 0.0075,0 0.015,-0.001 0.015,-0.0035 0.0375,-0.015 0.0525,-0.0725 0.06,-0.1125 0.0075,-0.0965 -0.045,-0.205 -0.1125,-0.2815 -0.13,-0.139 -0.3125,-0.2175 -0.5025,-0.214 l -0.0075,0 c -0.0975,0 -0.18,0.017 -0.21,0.026 -0.015,0.005 -0.045,0.011 -0.0675,0.0185 -0.3825,0.15 -0.555,0.525 -0.4725,0.9 0.0165,0.095 0.058,0.185 0.12,0.259 0.0375,0.039 0.075,0.0565 0.0975,0.0565 0.03,0 0.045,-0.025 0.0225,-0.0675 -0.0075,-0.0215 -0.06,-0.1115 -0.0675,-0.275 -0.006,-0.166 0.032,-0.34 0.14,-0.472 0.079,-0.098 0.1765,-0.141 0.1875,-0.146 l 0.0025,0.003 0.043,-0.0225 0.02,-0.0085 c 0.0485,-0.015 0.021,-0.009 0.071,-0.018 l 0.015,0 c 0.044,-0.01 0.09,-0.015 0.135,-0.015 l 0.016,0 z m 4.26,-1.2965 c 0.1315,0.003 0.261,0.031 0.3825,0.0825 0.083,0.03 0.15,0.06 0.18,0.06 0.015,0 0.0225,-0.008 0.0225,-0.008 0.015,-0.012 0.0075,-0.04 -0.0225,-0.077 -0.0675,-0.0975 -0.195,-0.183 -0.315,-0.225 -0.0865,-0.032 -0.1775,-0.047 -0.268,-0.047 l 0.0135,-0.018 c -0.1875,0 -0.375,0.0675 -0.525,0.1875 -0.113,0.09 -0.1575,0.1875 -0.113,0.195 l 0.0085,0 c 0.037,0 0.097,-0.0225 0.18,-0.0525 0.18,-0.0675 0.322,-0.0975 0.45,-0.0975 l 0.0075,0 z m 1.685,-0.3855 c 0.133,-0.012 0.2665,0.0115 0.3864997,0.07 -0.0075,-0.33 -0.1999997,-0.701 -0.3449997,-0.65 -0.085,0.03 -0.1,0.18 -0.097,0.27 0.005,0.1115 0.02,0.21 0.056,0.315 l 0,-0.005 z"/>
</svg>
