<svg aria-hidden="true" xmlns="http://www.w3.org/2000/svg" viewBox="0 0 14 14" height="1em" width="1em">
  <path d="M11.691 12.96c-.014-.022-.018-.041-.01-.041.01 0-.555-.57-1.254-1.268-.891-.891-1.296-1.269-1.358-1.269-.048 0-.233.082-.41.182-.177.1-.337.18-.356.181a.475.475 0 0 0-.136.052c-.775.398-2.216.509-3.18.244-.933-.256-1.67-.684-2.324-1.348-.625-.635-.954-1.192-1.259-2.129-.293-.9-.25-2.154.108-3.12.56-1.511 1.862-2.706 3.394-3.116l.322-.088c.386-.11 1.738-.082 2.154.043.067.02.198.056.293.081l.171.044-.141.186a1.34 1.34 0 0 0-.188.34c-.034.112-.066.152-.111.14-.394-.107-.572-.125-1.191-.124-.712 0-1.025.043-1.317.172-.095.042-.282.119-.414.171-.506.2-1.293.821-1.653 1.305a4.63 4.63 0 0 0-.733 1.541c-.092.341-.106.475-.108 1.017-.003.663.043.94.245 1.481.372.994 1.152 1.874 2.058 2.322.714.354 1.08.437 1.922.44.587 0 .736-.011 1.047-.091 1.178-.302 2.2-1.128 2.77-2.24.179-.35.38-1.024.413-1.381l.037-.411c.02-.214-.055-.827-.144-1.18a5.873 5.873 0 0 0-.235-.684 2.175 2.175 0 0 1-.176-.616c-.022-.276-.092-.436-.268-.612l-.121-.121.107-.195a4.42 4.42 0 0 1 .12-.213c.035-.043.363.334.594.682.567.856.798 1.54.882 2.617.026.336-.055 1.103-.155 1.47-.171.628-.295.91-.648 1.473-.12.191-.217.382-.217.424 0 .047.446.521 1.15 1.223a48.755 48.755 0 0 1 1.273 1.3c.245.305.228.61-.052.914-.091.1-.16.19-.151.201.008.011-.152.025-.355.032-.224.01-.38 0-.395-.03zm-1.249-1.21c-.686-.689-1.278-1.269-1.316-1.29-.05-.027-.171.018-.484.183-1.697.898-3.673.8-5.257-.259-1.032-.69-1.78-1.77-2.106-3.035-.12-.47-.15-1.514-.06-2.038C1.69 2.605 4.251.74 6.94 1.143c.222.033.458.078.524.098.066.021.198.057.292.082.198.051.213.11.065.246a1.345 1.345 0 0 0-.22.343l-.112.245-.335-.073A4.195 4.195 0 0 0 2.63 4.03c-.425.704-.604 1.435-.569 2.327.043 1.087.403 1.929 1.163 2.72a4.072 4.072 0 0 0 1.703 1.077c.814.264 1.653.28 2.45.048a4.224 4.224 0 0 0 2.556-2.074c.623-1.174.642-2.644.051-3.82a1.608 1.608 0 0 1-.102-.446c-.034-.35-.059-.409-.267-.626l-.155-.161.115-.228c.063-.126.124-.253.134-.282.056-.152.714.67 1.025 1.28a4.82 4.82 0 0 1 .565 2.135 5.148 5.148 0 0 1-.855 3.033c-.1.15-.182.289-.182.308 0 .019.57.605 1.266 1.303.696.698 1.285 1.32 1.309 1.382.106.285.034.556-.228.849l-.13.145h-.788l-1.248-1.25zm0 0c-.686-.689-1.278-1.269-1.316-1.29-.05-.027-.171.018-.484.183-1.697.898-3.673.8-5.257-.259-1.032-.69-1.78-1.77-2.106-3.035-.12-.47-.15-1.514-.06-2.038C1.69 2.605 4.251.74 6.94 1.143c.222.033.458.078.524.098.066.021.198.057.292.082.198.051.213.11.065.246a1.345 1.345 0 0 0-.22.343l-.112.245-.335-.073A4.195 4.195 0 0 0 2.63 4.03c-.425.704-.604 1.435-.569 2.327.043 1.087.403 1.929 1.163 2.72a4.072 4.072 0 0 0 1.703 1.077c.814.264 1.653.28 2.45.048a4.224 4.224 0 0 0 2.556-2.074c.623-1.174.642-2.644.051-3.82a1.608 1.608 0 0 1-.102-.446c-.034-.35-.059-.409-.267-.626l-.155-.161.115-.228c.063-.126.124-.253.134-.282.056-.152.714.67 1.025 1.28a4.82 4.82 0 0 1 .565 2.135 5.148 5.148 0 0 1-.855 3.033c-.1.15-.182.289-.182.308 0 .019.57.605 1.266 1.303.696.698 1.285 1.32 1.309 1.382.106.285.034.556-.228.849l-.13.145h-.788l-1.248-1.25zM5.634 9.815a.878.878 0 0 1-.271-.083c-.044-.036-.054-.449-.054-2.177 0-2.43-.01-2.354.312-2.496.152-.067.25-.076.714-.065.472.012.553.024.652.098.219.162.214.11.204 2.452l-.01 2.174-.202.053c-.258.068-1.062.095-1.345.045zm.702-.078c.013-.022-.017-.04-.068-.04a3.67 3.67 0 0 1-.305-.027c-.139-.017-.211-.01-.211.018 0 .024.031.051.07.061.137.036.49.027.514-.013zm.652-.089a2.18 2.18 0 0 0 .126-.057c.007 0 .011-.965.008-2.135-.005-2.112-.006-2.126-.09-2.217-.048-.05-.11-.091-.14-.091-.081 0-.064.095.027.151.044.028.08.076.08.108 0 .108-.08.108-.18 0-.086-.093-.123-.105-.262-.087-.167.022-.197 0-.113-.083.026-.027.031-.049.01-.049-.021 0-.011-.018.022-.04.041-.027-.071-.039-.354-.04-.384 0-.421.01-.503.094-.234.25-.237.26-.212.69.03.516.028 3.562-.002 3.61-.012.022-.013.064 0 .097.03.077.32.078.385 0 .039-.047.024-.07-.083-.125-.115-.06-.122-.072-.06-.107.041-.023.133-.026.219-.01.08.017.206.027.278.02.074-.01.131.01.131.033 0 .024-.035.043-.078.043-.072 0-.15.067-.117.099.008.01.154.026.326.042.3.028.312.026.312-.056 0-.05.026-.085.06-.085.033 0 .083-.036.11-.081.068-.11.112-.101.112.02 0 .057-.024.1-.054.1s-.096.046-.148.101c-.093.1-.094.101-.009.101a.614.614 0 0 0 .199-.049zM5.74 5.351c.024-.091.123-.185.159-.15.051.052-.03.229-.104.229-.056 0-.07-.021-.055-.08zM4.593 9.477c-.57-.264-1.174-.824-1.512-1.402-.11-.19-.113-.207-.11-.778.006-.908.04-.941.962-.941.548 0 .61.01.707.084.223.176.226.197.226 1.703 0 .764-.015 1.398-.033 1.41-.018.01-.126-.024-.24-.077zm.153-.333c0-.15.002-.326.005-.392a43.93 43.93 0 0 0-.02-1.108c-.024-.919-.031-.988-.103-1.02a.194.194 0 0 1-.097-.111c-.013-.05-.056-.076-.125-.076-.122 0-.143.103-.027.14.09.027.139.128.08.164-.05.03-.157-.054-.157-.126 0-.039-.067-.052-.242-.05-.256 0-.339-.028-.24-.09.047-.029.04-.038-.034-.038-.05 0-.083.016-.07.035.012.02-.005.047-.04.06-.035.013-.071 0-.084-.036-.03-.077-.148-.076-.297.001-.153.08-.224.204-.142.25.048.027.055.098.035.383-.015.201-.041.34-.063.327-.02-.013-.029-.062-.018-.11.01-.046.005-.176-.012-.287-.03-.197-.03-.195-.044.121-.023.516-.017.559.092.676.102.11.193.143.193.069 0-.073.07-.042.092.04.014.055-.005.096-.056.123-.122.065-.093.192.064.285.078.046.141.11.141.141 0 .032.028.068.062.081.034.013.09.076.122.14.06.114.19.156.239.076.014-.022.042-.04.063-.04.055 0 .046.11-.01.13-.028.01-.036.046-.02.088.02.054.054.066.129.047.117-.03.26.034.26.116 0 .054.231.261.293.262.017 0 .03-.121.03-.271zM3.364 7.816c-.01-.017-.003-.066.015-.111.028-.07.032-.066.035.03.003.109-.016.14-.05.08zm-.028-.88c0-.066-.022-.143-.048-.17-.063-.061.016-.15.104-.115.045.017.055.062.037.176-.03.196-.093.27-.093.109zm4.328 2.47c-.013-.05-.018-1.36-.011-2.91.01-2.616.017-2.829.082-2.93.15-.227.233-.25.888-.244.67.01.747.032.883.3.064.125.07.307.07 2.014v1.878l-.101.23a3.63 3.63 0 0 1-1.43 1.594c-.306.183-.35.191-.381.067zm.222-.091a.187.187 0 0 1 .125-.06c.1 0 .097-.066-.005-.092-.086-.023-.11-.166-.036-.212.024-.015.095.01.156.056.097.07.123.075.186.029.064-.046.066-.063.019-.12-.084-.101.009-.182.125-.11.074.047.095.043.17-.033l.085-.087-.11.027c-.122.03-.138 0-.055-.113.06-.08.148-.09.214-.025.033.033.062.012.11-.08.035-.07.082-.126.103-.126.022 0 .071-.062.11-.139.039-.076.134-.244.212-.372l.14-.234.007-1.515c.003-.833.017-1.667.031-1.852.031-.404-.034-.672-.182-.751-.096-.051-.336-.046-.51.01-.067.023-.09.015-.09-.03 0-.058-.097-.063-.648-.033-.035 0-.116.09-.18.195l-.118.191.02 2.637c.01 1.45.006 2.68-.01 2.731-.05.155.034.224.13.108zm.935-.953c-.07-.071-.061-.233.015-.262.116-.044.175.121.086.242-.04.055-.061.06-.1.02zM3.71 6.076c-.664-.162-.775-1.15-.161-1.447.637-.309 1.325.273 1.095.926a.794.794 0 0 1-.934.52zm.327-.183.054-.096c.005-.01.036.01.068.033.107.089.276-.042.38-.295.08-.193.087-.243.047-.365-.052-.157-.102-.203-.222-.203-.062 0-.08-.027-.08-.114 0-.225-.341-.295-.663-.136-.13.064-.188.121-.21.205a.35.35 0 0 1-.112.173c-.097.068-.114.317-.029.433.044.061.068.065.14.026.08-.042.088-.037.088.052 0 .061-.027.106-.07.116-.063.015-.062.02.01.045.044.015.162.072.262.125.209.113.276.113.338 0zm.347-.562c0-.117.062-.168.096-.079.042.108.027.178-.036.178-.037 0-.06-.038-.06-.098zm-.473-.515c.025-.077.191-.09.191-.013 0 .04-.036.063-.104.063-.065 0-.098-.02-.087-.05zm2.023-.138c-.479-.252-.597-.813-.254-1.204.171-.194.323-.265.576-.265.67 0 1.01.71.609 1.264-.176.243-.658.349-.931.205zm.181-.154c.028-.033.07-.06.093-.06.024 0 .083-.038.132-.084.053-.05.128-.078.184-.07.09.013.09.017-.036.093-.185.11-.174.193.02.16.21-.035.353-.202.415-.48.048-.21.045-.233-.036-.343a.443.443 0 0 1-.087-.175c0-.088-.108-.157-.2-.128-.045.014-.082.043-.082.064 0 .02-.055.038-.121.038-.137 0-.164-.077-.039-.11.13-.034.069-.11-.098-.124-.187-.016-.29.054-.216.146.044.054.04.058-.03.032-.09-.034-.1-.036-.168-.029-.032 0-.041.056-.028.156.02.144.018.147-.045.07-.065-.08-.066-.08-.123 0-.066.088-.078.287-.02.323.02.013.055-.01.077-.048.04-.073.096-.05.11.045.004.03.02.109.034.176.035.157-.049.219-.13.096-.09-.136-.143-.103-.061.039.071.123.27.276.36.276.025 0 .068-.027.095-.06zm-.16-.202a.06.06 0 0 1 .12 0 .06.06 0 0 1-.12 0zm.743-.29a15.007 15.007 0 0 0-.045-.263c-.015-.08-.004-.111.038-.111.06 0 .109.162.109.365 0 .174-.074.18-.102.01zm-.642.057c-.017-.04-.02-.083-.006-.097.041-.041.074.016.055.096-.017.07-.019.07-.049 0zm2.28-1.036c-.315-.133-.487-.396-.489-.745-.003-.656.779-1.007 1.274-.572.182.16.255.33.255.593 0 .425-.29.73-.718.752-.125.01-.27-.01-.323-.028zm.63-.135a.118.118 0 0 0 .048-.09c0-.033.039-.112.086-.176a.295.295 0 0 0 .064-.256c-.012-.076-.004-.157.019-.18.053-.053-.024-.296-.12-.381a.729.729 0 0 0-.36-.113c-.017 0-.031.026-.031.053 0 .028-.043.056-.096.064-.085.012-.093 0-.07-.091.021-.084.012-.104-.049-.104-.04 0-.107.036-.147.08a.404.404 0 0 1-.143.102.173.173 0 0 0-.096.087c-.025.066.02.065.312-.01.089-.022.1-.015.08.059-.018.067-.056.085-.188.089-.092 0-.194.01-.227.01-.056.01-.072.077-.082.363-.004.11.117.347.178.347.029 0 .085.037.126.08a.47.47 0 0 0 .196.114c.127.033.413.01.5-.048zm-.314-.097c0-.098.07-.155.125-.1.023.022.007.065-.044.11-.08.073-.081.073-.081-.01zm.099-.816c-.015-.024-.017-.053-.005-.064.028-.03.107.022.107.07 0 .05-.07.048-.102-.01zm1.692 9.743c-.686-.688-1.278-1.268-1.316-1.288-.05-.028-.171.017-.484.182-1.697.898-3.673.8-5.256-.259-1.033-.69-1.782-1.77-2.107-3.035-.12-.47-.15-1.514-.06-2.038.47-2.706 3.031-4.572 5.72-4.168.222.033.458.078.524.098.066.021.198.057.292.082.198.051.213.109.065.245a1.345 1.345 0 0 0-.22.344l-.112.245-.335-.073A4.195 4.195 0 0 0 2.63 4.03c-.425.704-.604 1.434-.569 2.327.043 1.087.403 1.928 1.163 2.72a4.072 4.072 0 0 0 1.704 1.077c.813.264 1.652.28 2.45.048a4.224 4.224 0 0 0 2.555-2.074c.623-1.175.642-2.644.051-3.82a1.608 1.608 0 0 1-.102-.446c-.034-.35-.059-.409-.267-.626l-.155-.161.115-.228c.063-.126.124-.253.134-.282.056-.152.714.67 1.025 1.28.368.721.53 1.335.565 2.135a5.148 5.148 0 0 1-.855 3.033c-.1.15-.182.289-.182.308 0 .019.57.605 1.266 1.303.696.698 1.285 1.32 1.309 1.382.107.284.034.556-.228.849l-.13.145h-.788l-1.248-1.25zM5.634 9.815a.878.878 0 0 1-.271-.083c-.044-.036-.054-.449-.054-2.177 0-2.43-.01-2.354.312-2.496.152-.067.25-.076.715-.065.47.012.552.024.651.098.219.162.214.11.204 2.452l-.01 2.174-.202.053c-.258.068-1.062.095-1.345.045zm-1.04-.339c-.57-.264-1.175-.824-1.513-1.402-.11-.189-.113-.206-.11-.778.006-.907.04-.94.962-.94.548 0 .61.01.707.083.223.176.226.197.226 1.704 0 .763-.015 1.397-.033 1.409-.018.01-.126-.023-.24-.076zm3.07-.07c-.013-.05-.018-1.36-.011-2.912.01-2.615.017-2.828.082-2.928.15-.228.233-.25.888-.245.67.01.747.032.883.3.064.125.07.307.07 2.015v1.877l-.101.23a3.63 3.63 0 0 1-1.43 1.595c-.306.183-.35.19-.381.067zm-3.955-3.33c-.664-.163-.775-1.15-.161-1.447.637-.309 1.325.273 1.095.926a.794.794 0 0 1-.934.52zm2.224-1.398c-.479-.252-.597-.813-.254-1.204.171-.195.323-.265.576-.265.67 0 1.01.71.609 1.264-.176.243-.658.349-.931.205zm2.401-1.625c-.314-.133-.486-.395-.488-.745-.003-.656.779-1.007 1.274-.572.182.16.255.33.255.593 0 .426-.29.73-.718.752-.125.01-.27-.01-.323-.028zm2.03 8.697c-.69-.686-1.271-1.248-1.294-1.248a4.74 4.74 0 0 0-.502.234c-.845.427-1.37.551-2.333.551-.865 0-1.354-.1-2.11-.43-2.131-.932-3.39-3.342-2.945-5.64.316-1.631 1.433-3.054 2.929-3.73.734-.332 1.444-.466 2.304-.435.587.021 1.28.145 1.516.272.09.048.103.153.022.183-.089.034-.293.345-.349.53-.028.095-.068.171-.089.171a7.6 7.6 0 0 1-.446-.085c-.346-.07-.5-.08-.993-.063-1.105.041-1.982.412-2.734 1.157-.837.828-1.23 1.774-1.23 2.957 0 .606.06.967.247 1.465.46 1.229 1.556 2.203 2.864 2.546.4.105 1.175.142 1.614.078a4.145 4.145 0 0 0 3.362-2.951c.285-.99.192-2.017-.274-3.01a1.004 1.004 0 0 1-.104-.44c0-.27-.115-.522-.302-.664l-.136-.104.138-.265c.076-.145.138-.29.138-.322 0-.113.112-.054.33.174.652.685 1.136 1.66 1.304 2.629.09.524.063 1.527-.056 2.016a5.574 5.574 0 0 1-.77 1.746l-.162.24 1.282 1.29c1.155 1.16 1.286 1.307 1.326 1.468a.753.753 0 0 1-.217.752l-.176.176h-.903l-1.252-1.248zm-4.73-1.935a.878.878 0 0 1-.271-.083c-.044-.036-.054-.449-.054-2.177 0-2.43-.01-2.354.312-2.496.152-.067.25-.076.715-.065.47.012.552.024.651.098.219.162.214.11.204 2.452l-.01 2.174-.202.053c-.258.068-1.062.095-1.345.045zm-1.04-.339c-.57-.264-1.175-.824-1.513-1.402-.11-.189-.113-.206-.11-.778.006-.908.04-.94.962-.94.548 0 .61.01.707.083.223.176.226.197.226 1.704 0 .763-.015 1.397-.033 1.409-.018.01-.126-.023-.24-.076zm3.06-2.87c.01-2.724.015-2.94.081-3.04.15-.228.233-.25.888-.245.67.01.747.032.883.3.064.125.07.307.07 2.015v1.877l-.104.236c-.307.696-1.057 1.466-1.682 1.727l-.145.06.01-2.93zm-3.945-.53c-.664-.163-.775-1.15-.161-1.447.637-.309 1.325.273 1.095.926a.794.794 0 0 1-.934.52zm2.224-1.398c-.479-.252-.597-.813-.254-1.204.171-.195.323-.265.576-.265.67 0 1.01.71.609 1.264-.176.243-.658.349-.931.205zm2.401-1.625c-.314-.133-.486-.395-.488-.745-.003-.656.779-1.007 1.274-.572.182.16.255.33.255.593 0 .426-.29.73-.718.752-.125.01-.27-.01-.323-.028zm2.03 8.697c-.69-.686-1.271-1.248-1.294-1.248a4.74 4.74 0 0 0-.502.234c-.845.427-1.37.551-2.333.551-.693 0-1.07-.054-1.59-.228a5.127 5.127 0 0 1-3.022-2.628c-.72-1.48-.708-3.139.033-4.587.756-1.478 2.107-2.465 3.76-2.747.564-.096 1.455-.06 2.02.081.626.157.657.185.444.398-.122.122-.315.477-.316.582 0 .066-.018.065-.497-.034-.346-.071-.5-.081-.993-.063-1.105.04-1.982.412-2.734 1.156a4.105 4.105 0 0 0-1.157 2.076c-.108.462-.1 1.362.015 1.827a4.203 4.203 0 0 0 3.023 3.066c.4.104 1.175.142 1.614.078a4.145 4.145 0 0 0 3.362-2.951c.285-.991.192-2.017-.274-3.011a1.004 1.004 0 0 1-.104-.44c0-.27-.115-.521-.302-.664l-.136-.104.138-.264c.076-.146.138-.291.138-.323 0-.113.112-.054.33.174.652.686 1.136 1.66 1.304 2.629.09.525.063 1.528-.056 2.017a5.41 5.41 0 0 1-.738 1.693c-.085.127-.155.253-.155.28 0 .029.568.623 1.262 1.322 1.137 1.143 1.267 1.287 1.306 1.449a.769.769 0 0 1-.21.75l-.17.177h-.915l-1.252-1.248zM5.52 9.856a1.122 1.122 0 0 1-.212-.058c-.025-.016-.04-.832-.04-2.247.001-2.103.005-2.229.077-2.346.131-.216.286-.258.936-.258.502 0 .595.01.707.079.286.174.272.058.285 2.484l.011 2.184-.091.06c-.051.032-.2.078-.331.102-.276.05-1.09.05-1.342 0zm-1.037-.372a3.465 3.465 0 0 1-1.195-1.011c-.373-.494-.393-.554-.394-1.192 0-.647.043-.772.323-.916.154-.079.237-.09.661-.09.57 0 .73.037.89.204l.118.124.012 1.507.011 1.507-.092-.001c-.05 0-.2-.06-.334-.132zm3.148.065c-.015-.015-.027-1.342-.027-2.95 0-2.844.002-2.925.08-3.053.12-.196.304-.29.564-.292.122 0 .249-.018.282-.04.05-.032.047-.039-.02-.04a.942.942 0 0 1-.28-.112c-.465-.255-.598-.82-.29-1.227a.833.833 0 0 1 1.44.151c.202.437-.017.93-.5 1.124-.257.103-.235.144.077.144a.71.71 0 0 1 .54.22l.1.109.011 2.003.011 2.003-.16.319c-.307.61-.907 1.231-1.492 1.543-.242.129-.29.143-.336.098zm-4.012-3.44a.851.851 0 0 1-.539-.806.827.827 0 0 1 1.364-.628.829.829 0 0 1-.137 1.367c-.227.118-.494.144-.688.067zM5.933 4.75c-.667-.32-.673-1.237-.01-1.537.723-.329 1.437.445 1.07 1.158-.19.369-.7.551-1.06.38zm5.593 8.195a8.948 8.948 0 0 0-.302-.285 74.78 74.78 0 0 1-1.209-1.18l-.95-.942-.419.219c-.798.418-1.498.59-2.41.59-1.398 0-2.59-.476-3.58-1.429A4.964 4.964 0 0 1 1.62 8.55a5.19 5.19 0 0 1 .983-6.09 5.24 5.24 0 0 1 2.726-1.4c.56-.105 1.633-.065 2.174.08.41.11.584.19.584.27 0 .023-.072.116-.16.204a1.15 1.15 0 0 0-.246.395c-.094.257-.146.298-.303.239-.186-.071-.833-.16-1.168-.16-1.934 0-3.646 1.432-4.004 3.35-.077.412-.058 1.203.039 1.629.44 1.945 2.236 3.302 4.209 3.18 1.096-.067 2.025-.51 2.784-1.326.654-.703 1.009-1.565 1.053-2.555.032-.73-.104-1.41-.397-1.992a.902.902 0 0 1-.116-.454c0-.29-.08-.476-.29-.668l-.171-.156.11-.212c.06-.117.136-.28.168-.363.032-.083.084-.151.117-.151.083 0 .575.539.804.88.392.584.72 1.406.837 2.093.06.35.06 1.322 0 1.663a5.44 5.44 0 0 1-.76 1.963l-.217.338 1.266 1.272c1.337 1.344 1.317 1.32 1.317 1.69a.805.805 0 0 1-.225.59l-.14.14h-.512c-.349 0-.526-.017-.556-.05zM5.853 9.961a1.888 1.888 0 0 0-.276-.043c-.425-.048-.393.153-.38-2.408.01-2.066.017-2.233.084-2.336.097-.149.29-.26.502-.292l.175-.026-.113-.07c-.364-.222-.543-.61-.458-.99a1.2 1.2 0 0 1 .162-.371c.315-.434 1.032-.456 1.387-.042a.917.917 0 0 1-.21 1.366c-.182.116-.183.117-.065.117.163 0 .456.156.558.295.081.111.083.165.094 2.364.012 2.552.052 2.285-.353 2.372-.225.048-1.034.096-1.108.066zm-1.257-.345c-.621-.276-1.205-.812-1.6-1.467l-.143-.24v-.63c0-.588.006-.64.091-.767a.651.651 0 0 1 .506-.278c.162 0 .154-.045-.032-.17a.894.894 0 0 1-.395-.65c-.034-.404.137-.72.484-.896.386-.196.91-.067 1.149.283.283.415.14 1.062-.286 1.291-.082.044-.148.091-.148.106 0 .014.088.034.195.045a.578.578 0 0 1 .476.293c.067.11.075.248.086 1.55.007.786.002 1.47-.011 1.52-.028.112-.136.115-.372.01zm2.967-.061c-.046-.122-.056-4.516-.013-5.455l.025-.543.17-.172c.105-.104.208-.17.266-.171.196 0 .206-.06.032-.2-.408-.327-.433-.988-.05-1.332.196-.176.238-.198.44-.236a.843.843 0 0 1 .773.213c.223.205.29.358.29.658a.866.866 0 0 1-.321.706l-.172.147.116.024c.206.043.377.151.465.293.085.138.086.162.078 2.146L9.655 7.64l-.114.253c-.16.352-.58.893-.912 1.173-.307.258-.74.53-.913.572-.095.023-.117.01-.152-.083z"/>
</svg>
