<svg aria-hidden="true" xmlns="http://www.w3.org/2000/svg" viewBox="0 0 14 14" height="1em" width="1em">
  <path d="M2.482 11.28a2.923 2.923 0 0 1-.266-.037c-.497-.099-.88-.35-1.051-.69a1.463 1.463 0 0 1-.117-.36 1.442 1.442 0 0 1 0-.301 1.21 1.21 0 0 1 .232-.529 1.81 1.81 0 0 1 .283-.282 1.69 1.69 0 0 1 .508-.26c.027-.01.113-.036.191-.062.078-.026.278-.089.443-.14.61-.188.88-.287 1.194-.439.346-.168.661-.377.934-.619.063-.056.34-.329.453-.448l.087-.091-.11-.114a11.68 11.68 0 0 0-.441-.445 4.235 4.235 0 0 0-1.287-.79 9.97 9.97 0 0 0-.85-.29 35.826 35.826 0 0 1-.455-.145l-.223-.073a1.574 1.574 0 0 1-.814-.602 1.275 1.275 0 0 1-.176-.423 1.263 1.263 0 0 1-.011-.319 1.166 1.166 0 0 1 .524-.815c.067-.044.24-.132.322-.162a2.17 2.17 0 0 1 .464-.113c.335-.044.777 0 1.087.12.327.122.617.344.782.6a1 1 0 0 1 .169.471c.022.231-.07.512-.231.71a2.117 2.117 0 0 1-.377.345s.013.011.03.02c.017.01.076.044.13.078.122.073.261.142.5.245a23.808 23.808 0 0 1 1.93.929l.024.013.877-.495 2.71-1.53c.358-.203.679-.382.712-.397.673-.307 1.352-.369 1.926-.175.128.043.279.112.381.173l.034.02-.048.03-.839.494C7.596 7.044 7.631 7.022 7.641 7.03c.01 0 .545.32 1.198.704l1.395.819 1.47.862c.693.407 1.26.743 1.26.745 0 0-.04.026-.091.052a2.463 2.463 0 0 1-.85.24c-.108.011-.42.01-.523 0a2.467 2.467 0 0 1-.849-.253c-.104-.053-.607-.337-3.183-1.8l-1.116-.633-.08.045c-.475.27-.921.486-1.65.798-.304.13-.429.186-.53.237a2.116 2.116 0 0 0-.323.204s.025.018.056.036c.083.048.224.153.28.209.103.103.19.267.25.472a.831.831 0 0 1 .016.475c-.113.438-.559.823-1.121.966a3.725 3.725 0 0 1-.347.066 3.77 3.77 0 0 1-.423.01zm.34-.553a1.16 1.16 0 0 0 .384-.118c.348-.172.517-.503.429-.837a.771.771 0 0 0-.203-.335.84.84 0 0 0-.538-.215c-.295-.02-.569.06-.801.234-.253.19-.392.463-.352.692a.56.56 0 0 0 .125.264.723.723 0 0 0 .26.22c.193.099.436.132.696.096zm.11-5.959a.79.79 0 0 0 .587-.358c.218-.36.084-.788-.316-1.01a1.356 1.356 0 0 0-.42-.128 1.561 1.561 0 0 0-.341 0 .915.915 0 0 0-.525.218.668.668 0 0 0-.112.141.548.548 0 0 0-.057.534c.13.325.516.583.914.613.07.01.194 0 .27-.01z"/>
</svg>
