<svg role="img" focusable="false" aria-hidden="true" xmlns="http://www.w3.org/2000/svg" viewBox="0 0 14 14" height="1em" width="1em">
  <path d="m 6.145969,12.402862 c -0.074,-0.024 -0.18484,-0.077 -0.24626,-0.1166 -0.0614,-0.04 -1.15261,-1.1147 -2.42484,-2.3889999 -2.67411008,-2.6785 -2.47136,-2.4404 -2.47136,-2.9028 0,-0.4613 -0.20427008,-0.222 2.49588,-2.9236 2.17286,-2.1741 2.34619,-2.3419 2.48844,-2.4085 0.19859,-0.093 0.40108,-0.1258 0.58973,-0.095 0.32822,0.053 0.19247,-0.07 2.7685,2.5041 2.25711,2.2553 2.36526,2.3672 2.43742,2.5224 0.13305,0.2861 0.11691,0.623 -0.0433,0.9048 -0.034,0.06 -0.4009,0.4481 -0.84792,0.8974 l -0.7879,0.7919 1.44783,1.4479999 c 0.79631,0.7964 1.44783,1.4602 1.44783,1.4752 0,0.043 -0.16883,0.1657 -0.3356,0.2437 -0.29985,0.1403 -0.64419,0.1136 -0.9257,-0.072 -0.0834,-0.055 -1.00524,-0.9615 -2.43561,-2.3952999 -2.66071,-2.6671 -2.45964,-2.4306 -2.45964,-2.8929 0,-0.2473 0.003,-0.2654 0.081,-0.4225 0.0725,-0.147 0.16497,-0.2488 0.87922,-0.9686 l 0.79821,-0.8043 -0.93828,-0.9358 c -0.97625,-0.9737 -1.04412,-1.0305 -1.23185,-1.0317 -0.19618,0 -0.22609,0.026 -2.20636,2.01 -1.64003,1.6431 -1.89644,1.9093 -1.9321,2.0056 -0.047,0.1269 -0.036,0.2565 0.0319,0.3764 0.0703,0.1242 3.80167,3.8417999 3.90513,3.8906999 0.11193,0.053 0.29752,0.055 0.39731,0 0.0413,-0.021 0.34167,-0.303 0.66752,-0.627 l 0.59246,-0.5891999 0.37548,0.3753999 0.37548,0.3755 -0.81549,0.8098 c -0.77229,0.767 -0.8246,0.814 -0.98743,0.8876 -0.22256,0.1005 -0.48311,0.12 -0.6897,0.052 z m 3.34499,-4.1819999 c 0.078,-0.022 0.18347,-0.1135 0.55007,-0.4749 0.55448,-0.5466 0.60402,-0.6295 0.52838,-0.8842 -0.0337,-0.1134 -0.0836,-0.1707 -0.62555,-0.7175 l -0.58896,-0.5943 -0.57029,0.5696 c -0.68645,0.6855 -0.73198,0.7555 -0.66022,1.0151 0.0209,0.076 0.11451,0.1835 0.48653,0.5599 0.55376,0.5603 0.6216,0.6009 0.88004,0.5263 z"/>
</svg>
