<svg role="img" focusable="false" aria-hidden="true" xmlns="http://www.w3.org/2000/svg" viewBox="0 0 14 14" height="1em" width="1em">
  <path d="m 12.464208,6.9135908 c 0,0 -0.191243,-0.22756 -0.217957,-0.51537 -0.02675,-0.28803 0.107114,-0.18751 0.107114,-0.18751 0,0 -0.05368,-0.38179 -0.321567,-0.7099 -0.267693,-0.32813 -0.555724,-0.71649 -0.682986,-1.23214 -0.127263,-0.51562 -0.36142,-0.81678 -0.522188,-1.02445 -0.160799,-0.20766 -0.227808,-0.61616 -0.321567,-0.76332 -0.09376,-0.14747 -0.107115,-0.96097 -0.7833115,-1.33433 -0.676386,-0.37335998 -1.908528,0.0553 -2.270137,0.3096 -0.361672,0.25456 -0.689776,0.9912 -1.124995,1.29261 -0.435251,0.30117 -0.790102,0.30796 -1.138353,0.90401 -0.34803,0.59574 -0.421893,0.93726 -0.40503,1.28554 0,0 -0.251272,0.0302 -0.281241,-0.1104 -0.03022,-0.14062 0.07033,-0.61288 0.140621,-0.7535 0,0 0.07033,0.0604 0.06025,0.1207 0,0 0.210947,-0.43197 0.08037,-0.69306 0,0 0.07033,0.015 0.105473,0.0501 0,0 0.08533,-0.40683 0.08533,-0.67285 0,-0.26627 -0.100547,-0.47226 -0.276314,-0.59276 0,0 0.130799,-0.17062 -0.015,-0.35643 0,0 -0.06518,-0.14934 -0.23602,-0.3258 -0.17062,-0.1765 -0.30142,-0.27704 -0.477187,-0.27186 0,0 0.03025,-0.0654 0.0605,-0.10548 0,0 -0.1458,0.0171 -0.195947,0.0839 0,0 -0.08037,-0.0487 -0.0954,-0.16428 0,0 -0.14062,0.0401 -0.155873,0.14062 0,0 -0.309598,-0.10547 -0.441787,0.23107 0,0 0.05018,0.0199 0.06518,0.0551 0,0 -0.04525,0.10058 -0.240947,0.11555 -0.195946,0.0151 -0.75846,0 -0.929048,0.0602 -0.170873,0.0603 -0.241168,0.12069 -0.241168,0.19102 0,0 -0.08533,0.0401 -0.125652,0.22594 0,0 -0.133578,0.0652 -0.133578,0.18073 0,0.11555 0.07336,0.082 0.07336,0.082 0,0 -0.0804,0.22945 0.200841,0.24442 0,0 0.04525,0.11558 0.28642,0.11558 0.240946,0 0.416745,0.0401 0.51726,0.19077 0,0 -0.08037,0.30142 -0.396787,0.57748 0,0 0.07033,0.0101 0.14062,0.005 0,0 -0.276346,0.23087 -0.346672,0.56744 0,0 0.09565,-0.0954 0.150726,-0.0905 0,0 -0.34642,0.95927 0.135694,1.90853 0,0 0.04522,-0.0954 0.06515,-0.10547 0,0 -0.01993,0.32157 0.175768,0.57262 0,0 0.01522,-0.14062 0.09047,-0.19083 0,0 0.300977,0.54726 0.610102,0.79335 0.308904,0.2461 0.781165,0.36164 0.886639,0.61269 0,0 0.165725,-0.18514 0.165725,-0.30587 0,0 0.04522,0.11504 0.03,0.23555 0,0 0.185873,-0.0902 0.246094,-0.14043 0.06025,-0.0504 0.321567,-0.23103 0.356714,0.0602 0.03515,0.29112 -0.25781,0.87375 0.01011,1.597 0,0 -0.09376,0.13175 -0.09376,0.30682 0,0.17533 0.133799,0.2623 0.133799,0.34266 0,0.0804 -0.06022,0.22785 -0.06022,0.3818202 0,0.15398 0.140621,0.40008 0.01336,0.94996 -0.127263,0.54978 -0.180725,0.69726 -0.254557,0.79101 -0.07358,0.0938 -0.36164,0.2545 -0.307956,0.52241 0,0 -0.676166,0.087 -0.669597,0.32135 0.0068,0.23438 0.348251,0.30745 0.756565,0.30745 0.408535,0 0.515176,-0.0865 0.528755,-0.23387 0.01383,-0.14722 -0.09401,-0.17419 0,-0.2611 0.09423,-0.087 0.194526,-0.18751 0.181168,-0.55572 -0.01336,-0.36846 0.167368,-0.70989 0.167368,-0.70989 0,0 -0.03354,-0.31481 0.07383,-0.50886 0.107084,-0.19428 0.394924,-0.57584 0.200873,-1.1585302 0,0 0.05343,0.0202 0.120441,0.0267 0,0 -0.113873,-0.32134 0.09376,-0.70973 0.207662,-0.38833 0.314777,-1.17865 0.314777,-1.17865 0,0 0.475324,0.0403 0.682955,0 0,0 -0.455366,0.95441 -0.408503,1.67298 0,0 -0.113905,0.11511 -0.113905,0.24237 0,0.12701 0.06704,0.28778 0.180915,0.4017202 0.113936,0.11368 0.488935,0.34146 0.696344,0.58919 0.207662,0.2478 0.348283,0.52219 0.408504,0.59602 0,0 -0.194052,0.1273 -0.140621,0.32814 0,0 -0.194273,0.0603 -0.174125,0.22758 0,0 -0.281273,0.007 -0.428462,0.13409 -0.147409,0.12698 -0.220988,0.29457 -0.08716,0.34803 0.134052,0.0537 0.629555,0.0537 0.79686,0.0537 0.167336,0 0.36164,-0.12723 0.374998,-0.2142 0.01336,-0.0872 -0.06025,-0.30142 -0.06025,-0.30142 0,0 0.100579,0.0134 0.140621,-0.10714 0,0 0.187515,0.69634 0.475324,0.67616 0,0 0.0403,-0.007 0.04686,-0.0668 0,0 0.134052,0.0333 0.201094,-0.0335 0.06679,-0.067 0.227588,-1.01109 -0.341462,-1.0247 0,0 0.04007,-0.0938 -0.06704,-0.16055 -0.107115,-0.067 0.937512,-1.3860902 1.057954,-1.4999902 0,0 -0.14741,-1.17843 0.14741,-1.74776 0.294598,-0.56909 0.5355445,-0.95766 0.5355445,-0.95766 0,0 0.06025,1.26564 0.636123,2.23666 0,0 0.107115,0.14744 0.08037,0.32814 -0.02672,0.18072 -0.100294,0.27445 -0.100294,0.50226 0,0.2275802 0.167336,0.8303902 0.0065,1.4866302 -0.03212,0.1315 -0.35482,0.52222 -0.240915,0.8435 0,0 -0.267852,0.15427 -0.267852,0.35508 0,0.20087 0.12041,0.24097 0.207631,0.24097 0.08694,0 0.133831,-0.087 0.180694,-0.087 0.04686,0 0.113905,0.12726 0.328135,0.12726 0.214231,0 0.401714,-0.17416 0.401714,-0.27467 0,-0.10036 -0.174125,-0.26792 -0.174125,-0.26792 0,0 0.113873,-0.10708 0.113873,-0.24091 0,-0.13409 -0.180694,-0.35482 -0.180694,-0.6361 0,-0.28127 0.05858,-0.82736 0.167336,-1.0648 0.217515,-0.4755502 0.194084,-0.8538302 0.06704,-0.9541202 0,0 0.06679,-0.30468 0.06679,-0.62627 0,-0.32135 -0.247736,-1.18194 -0.0401,-2.04893 0,0 0.247736,-0.36164 0.30142,-0.93091 0,0 0.448608,0.91082 0.113684,1.54685 -0.334673,0.63613 -0.267852,0.62959 -0.274452,0.82361 -0.0068,0.19427 0.09376,0.46222 0.09376,0.46222 l 0.304925,-0.30821 c 0,0 -0.0038,-0.21423 0.143683,-0.36824 0.14741,-0.15398 0.254525,-0.57208 0.187515,-0.6876 0,0 0.07358,0.0516 0.107084,0.0783 0,0 0.05368,-0.20084 -0.04686,-0.4954 -6.3e-5,-7e-5 0.107747,-0.0538 0.224715,0.006 z m -4.0214355,3.01341 c -0.127263,0.2008402 -0.515619,0.8303602 -0.515619,0.8303602 0,0 -0.401967,-0.22756 -0.529008,-0.48211 -0.127231,-0.25453 -0.234378,-0.4150802 -0.28803,-0.4554002 0,0 0.164052,-0.22077 0.204157,-0.45515 0,0 0.07197,0.006 0.112262,0.14953 0.243315,-0.30609 0.402441,-0.63704 0.446967,-0.98674 0,0 0.06025,0.0602 0.113905,0.0804 0,0 0.0066,-0.24117 0.09376,-0.41508 0.08694,-0.17415 0.274451,-0.39514 0.301388,-0.7301 l 0.120473,0 c 0,0 -0.100547,0.75003 0,1.39288 0.100295,0.64294 0.06679,0.8705 -0.06025,1.07141 z"/>
</svg>
