<svg role="img" focusable="false" aria-hidden="true" xmlns="http://www.w3.org/2000/svg" viewBox="0 0 14 14" height="1em" width="1em">
  <path d="m 12.363781,2.42494 -2.525814,0 c -0.345513,0 -0.633837,0.28118 -0.633837,0.62669 l 0,0.9436 -4.4154088,0 0,-0.9436 c 0,-0.34551 -0.2859412,-0.62669 -0.6338364,-0.62669 l -2.5258141,0 C 1.2811755,2.42494 1,2.70612 1,3.05163 l 0,7.89674 c 0,0.34551 0.2811755,0.62669 0.6338364,0.62669 l 10.7323276,0 C 12.718824,11.57506 13,11.29388 13,10.94837 L 13,3.05163 C 12.9952,2.70612 12.714059,2.42494 12.363781,2.42494 Z M 4.4670373,9.37808 c -0.8721207,0 -1.5822081,-0.70771 -1.5822081,-1.58221 0,-0.87927 0.7077046,-1.58697 1.5822081,-1.58697 0.8792693,0 1.5869738,0.7077 1.5869738,1.58697 0,0.8745 -0.7077045,1.58221 -1.5869738,1.58221 z m 5.0611597,0 c -0.879269,0 -1.586974,-0.70771 -1.586974,-1.58698 0,-0.87212 0.707705,-1.5822 1.586974,-1.5822 0.872121,0 1.582208,0.7077 1.582208,1.5822 0,0.87927 -0.710087,1.58698 -1.582208,1.58698 z"/>
</svg>
