<svg aria-hidden="true" xmlns="http://www.w3.org/2000/svg" viewBox="0 0 14 14" height="1em" width="1em">
  <path d="M11.48 4.37c-.714 0-1.207.284-1.54.678a.88.88 0 0 0-.16-.238c-.273-.308-.712-.452-1.3-.452-.576 0-1.056.18-1.39.462-.172-.28-.585-.467-1.082-.467-.65 0-1.358.092-1.778.769-.01-.244-.032-.373-.169-.518-.166-.176-.436-.222-.698-.222-.478 0-.838.209-1.097.634C1.89 5.616.98 7.59 1 8.546c.014.618.428 1.063 1.17 1.08.579.015 1.034-.14 1.323-.432.26.282.655.447 1.128.447.528 0 1.059-.158 1.372-.504.264.324.68.513 1.214.51a2.188 2.188 0 0 0 1.713-.842c.22.598.777.836 1.386.836 1.335 0 1.92-.918 2.41-2.369.11-.327.256-.873.28-1.33.041-.764-.282-1.571-1.517-1.571zM2.598 8.02c.69-.12.864.129.842.36-.065.692-.7.847-1.251.834-.4-.009-.76-.193-.77-.657-.017-.812.811-2.69 1.201-3.314.18-.295.4-.441.75-.441.331 0 .413.17.408.374-.013.544-.892 2.197-1.18 2.843zm2.249-.639a7.219 7.219 0 0 0-.203.657c.227-.056.397-.096.688-.089.332.008.544.146.544.42 0 .666-.735.86-1.245.86-.56 0-1.052-.318-1.052-.93 0-.718.39-1.807.755-2.532.448-.89.906-1.008 1.695-1.008.347 0 .747.148.747.475 0 .454-.385.627-.766.65a5.255 5.255 0 0 1-.563.006s-.127.194-.262.538c.706-.1 1.005.06.886.47-.161.551-.639.587-1.224.483zM8.32 5.665c-.19 0-.316.12-.409.251-.204.288-.648 1.44-.717 1.912-.047.324.093.39.246.39.245 0 .52-.26.614-.688 0 0-.467-.01-.338-.425.125-.402.362-.489.756-.505.775-.032.698.54.636.846-.201.99-.907 1.787-1.904 1.787-.683 0-1.107-.378-1.107-1.075 0-.496.246-1.275.44-1.731.416-.97.852-1.65 1.962-1.65.666 0 1.191.24 1.114.864-.056.457-.286.726-.702.759-.116.009-.593-.003-.435-.454.056-.157.078-.281-.156-.281zm4.192.819a6.698 6.698 0 0 1-.668 1.79c-.467.84-1.035.959-1.53.953-.496-.006-1.055-.19-1.06-.954-.002-.549.235-1.324.436-1.832.35-.92.708-1.671 1.84-1.658 1.32.016 1.085 1.19.982 1.7zm-1.12-.8c-.113-.001-.212.02-.3.158-.2.258-.784 1.854-.774 2.172.004.114.067.214.208.214.161 0 .25-.111.33-.246.184-.311.7-1.721.715-2.074.004-.102-.013-.222-.179-.224z"/>
</svg>
