<svg role="img" focusable="false" aria-hidden="true" xmlns="http://www.w3.org/2000/svg" viewBox="0 0 14 14" height="1em" width="1em">
  <path d="m 3.5362817,7.9660189 c -0.081418,0.0055 -0.1879722,0.04208 -0.2590083,0.16994 -0.057922,0.104368 -0.1945294,0.120761 -0.2579154,0.1 -0.1060075,-0.03497 -0.2415224,-0.05902 -0.3726658,0.03442 -0.1311434,0.09344 -0.2726691,0.02295 -0.2480797,-0.147536 0.025136,-0.170487 0.086336,-0.321848 0.249719,-0.415834 0.3568193,-0.205456 0.1087397,-0.348075 0.304362,-0.554079 0.1956222,-0.206005 0.1530006,-0.269391 0.1464435,-0.54971 -0.6628207,-0.09945 -1.0387652,-0.290701 -1.4584241,-0.814728 -0.419659,-0.524028 -0.5824954,-0.955708 -0.6256634,-1.613064 -0.043168,-0.657357 -0.00601,-1.083026 0.2781333,-1.628911 0.2841441,-0.545338 0.5830418,-0.808171 1.1010583,-1.08084 0.5180165,-0.272669 1.0256508,-0.337694 1.495035,-0.329498 0.4693841,0.0076 0.7819426,0.04208 1.0469616,0.193437 0.265019,0.151361 0.5076343,0.341519 0.6622742,0.343158 0.15464,0.0016 0.2601011,-0.03934 0.3349618,-0.09672 0.02022,0.509273 -0.4382372,0.553534 -0.8486068,0.564463 -0.4103696,0.01093 -0.6622743,-0.159011 -1.0404045,-0.09563 -0.3775837,0.06339 -0.9966899,0.234965 -1.2977734,0.759539 -0.3010834,0.524573 -0.3114656,0.709813 -0.2868762,1.14969 0.025136,0.439877 0.4038124,0.768282 0.6174669,0.771561 0.2136545,0.0033 0.261194,-0.05847 0.4486198,-0.180323 0.1868794,-0.121854 1.1420406,-1.30433 1.4682598,-1.569896 0.3262193,-0.265565 0.6475207,-0.34753 0.9950504,-0.351901 0.34753,-0.0044 0.436052,0.0076 0.715825,0.1224 0.279772,0.114751 0.452445,0.32622 0.678121,0.455177 0.115296,-0.06776 0.186879,-0.169393 0.292887,-0.246986 0.378676,-0.277041 0.575391,-0.351355 1.02565,-0.307641 0.259009,0.02514 0.585228,0.173219 0.779757,0.342066 0.346437,0.30163 0.6327673,0.720742 0.8644543,1.039858 0.180322,0.248079 0.392337,0.545338 0.69506,0.638231 0.330591,0.10109 0.579217,-0.326766 0.615828,-0.564463 0.02076,-0.134422 0.04754,-0.252451 0.04809,-0.400534 5.46e-4,-0.148083 -0.01475,-0.327858 -0.05738,-0.481952 -0.04262,-0.15464 -0.115843,-0.308187 -0.195075,-0.435505 -0.128958,-0.207098 -0.339881,-0.424031 -0.558999,-0.535503 -0.122947,-0.06284 -0.412556,-0.176497 -0.59561,-0.180322 -0.22349,-0.0049 -0.3939773,0.07049 -0.6010743,0.08415 -0.250265,0.01694 -0.697792,0.07322 -0.893961,-0.120214 -0.125133,-0.122947 -0.140433,-0.204912 -0.161743,-0.365563 0.05519,0.04535 0.132236,0.07541 0.201086,0.08142 0.156826,0.01311 0.303816,-0.114751 0.430041,-0.189066 0.104369,-0.0612 0.251905,-0.170486 0.389059,-0.225675 0.3519023,-0.142073 0.7841283,-0.137701 1.1551553,-0.1 0.297805,0.0306 0.683585,0.162836 0.944779,0.310372 0.262287,0.14863 0.515284,0.398349 0.700524,0.634407 0.23278,0.296712 0.360098,0.551348 0.444795,0.921829 0.107647,0.472662 0.137701,1.182476 0.0077,1.648582 -0.102729,0.367201 -0.443702,0.931664 -0.734403,1.208158 -0.28633,0.272669 -0.61692,0.404359 -0.993411,0.476488 0.01475,0.07595 0.01694,0.146444 0.03661,0.208737 0.02787,0.08852 0.08033,0.186879 0.189065,0.155733 0.04317,-0.01257 0.06666,-0.02295 0.123493,0.02678 0.05683,0.04972 0.02732,0.243161 -0.133329,0.329498 -0.08142,0.04371 -0.167208,0.05355 -0.297805,0.05628 -0.130597,0.0027 -0.333869,0.0033 -0.475395,-0.02186 -0.141525,-0.02459 -0.226222,-0.137154 -0.383048,-0.15464 -0.242615,-0.02732 -0.4278553,-0.20218 -0.6223853,-0.327312 -0.08087,-0.05246 -0.108193,-0.053 -0.155186,-0.07923 0.02514,0.07705 0.05901,0.157372 0.07595,0.231687 0.01694,0.07431 0.0098,0.143165 0.01858,0.202726 0.0087,0.05956 0.02514,0.105461 0.03497,0.154093 0.0388,0.03497 0.05137,0.08743 0.11639,0.104369 0.06502,0.01694 0.167208,-0.0093 0.234419,-0.01803 0.06721,-0.0087 0.1114723,-0.04535 0.1639293,-0.03552 0.05246,0.0098 0.102183,0.04754 0.145897,0.08251 0.04371,0.03497 0.08142,0.04044 0.117483,0.127865 0.03552,0.08798 0.0683,0.267751 0.07322,0.38742 0.0049,0.119668 -0.0087,0.228408 -0.04426,0.324033 -0.03552,0.09508 -0.06666,0.137701 -0.163382,0.231687 -0.09672,0.09399 -0.2535443,0.23278 -0.4098243,0.329498 0.02896,0.04262 0.04153,0.08196 0.08688,0.128411 0.04535,0.04645 0.1387933,0.09836 0.1803223,0.14699 0.04153,0.04863 0.06284,0.08415 0.06339,0.138793 5.47e-4,0.05464 -0.0022,0.126226 -0.04645,0.185787 -0.110926,0.148629 -0.2420693,0.175404 -0.4016273,0.245347 0.02677,0.167208 0.04863,0.286877 0.0098,0.4540841 -0.01585,0.0683 -0.05082,0.222944 -0.134969,0.262287 -0.08415,0.03934 -0.245894,0.02022 -0.348623,0.03661 -0.102729,0.01639 -0.160104,0.03169 -0.239883,0.04754 -0.04863,0.07049 -0.120761,0.147536 -0.145897,0.210922 -0.02514,0.06339 -0.01749,0.08579 0.0033,0.149722 0.02076,0.06448 0.0918,0.157919 0.112018,0.233326 0.02022,0.07541 0.02404,0.156279 0.0055,0.231687 -0.01858,0.07541 -0.05082,0.13005 -0.115297,0.197261 -0.06448,0.06721 -0.190704,0.119669 -0.25409,0.174312 -0.06339,0.0541 -0.125679,0.06065 -0.10874,0.150815 0.0235,0.123493 0.204365,0.324033 0.334962,0.371573 0.07814,0.02841 0.183055,0.01967 0.278134,-0.02077 -0.0066,0.105462 -0.09781,0.176498 -0.157372,0.246987 0.161743,-0.04645 0.318569,-0.134968 0.426762,-0.251905 -0.03388,0.101637 -0.149176,0.265566 -0.322394,0.408731 -0.173219,0.143165 -0.172126,0.114204 -0.257916,0.171033 0.156826,0.03169 0.302723,0.02295 0.424577,0.0011 -0.06666,0.03661 -0.17595,0.08852 -0.320755,0.103821 -0.144804,0.0153 -0.233872,0.0044 -0.364469,-0.02732 -0.130597,-0.03169 -0.249173,-0.150269 -0.407638,-0.231687 0.0153,0.05847 0.02623,0.128958 0.09289,0.189065 0.06666,0.06011 0.167208,0.09071 0.273762,0.143165 -0.136062,-0.0153 -0.279227,-0.02022 -0.412556,-0.04972 -0.0989,-0.02186 -0.165568,-0.04481 -0.237697,-0.08087 -0.07213,-0.03606 -0.128411,-0.08798 -0.192344,-0.132236 0.0306,0.05847 0.03989,0.127865 0.09235,0.175951 0.05246,0.04809 0.137154,0.06612 0.206004,0.09945 -0.07158,-0.0016 -0.140432,0.01421 -0.214747,-0.0049 -0.07432,-0.01913 -0.144258,-0.04809 -0.221304,-0.104915 -0.07759,-0.05683 -0.156826,-0.127318 -0.222944,-0.1989 -0.06612,-0.07158 -0.147537,-0.164476 -0.172126,-0.230594 -0.02459,-0.06612 0.01475,-0.112565 0.0224,-0.168847 -0.04535,0.03005 -0.101636,0.04645 -0.136608,0.09016 -0.03497,0.04371 -0.06612,0.08306 -0.05027,0.159011 0.0153,0.07595 0.08524,0.168301 0.134969,0.252451 -0.147537,-0.120761 -0.229501,-0.166661 -0.265019,-0.312558 -0.03279,-0.136062 0.05191,-0.259555 0.116936,-0.36283 0.03224,-0.05082 0.07978,-0.0989 0.109833,-0.148083 -0.06667,-0.06502 -0.142619,-0.121308 -0.199994,-0.195622 -0.05737,-0.07431 -0.08087,-0.174858 -0.13934,-0.245894 -0.05847,-0.07104 -0.136608,-0.115844 -0.204912,-0.174312 0.06011,0.128958 0.158465,0.286876 0.179776,0.386873 0.02131,0.1 -0.02404,0.160651 -0.05956,0.214748 -0.03552,0.0541 -0.09235,0.06612 -0.146443,0.0989 -0.0541,0.03279 -0.138247,0.0071 -0.171033,0.05628 -0.03224,0.04918 -0.04098,0.122947 -0.0098,0.171579 l 0.126772,0.199994 c -0.04645,-0.0235 -0.126772,-0.0918 -0.163383,-0.140433 -0.03661,-0.04863 -0.0918,-0.09344 -0.09945,-0.159011 -0.0076,-0.06557 -0.01147,-0.122401 0.03115,-0.180869 0.04262,-0.05847 0.159012,-0.07814 0.210923,-0.122947 0.05191,-0.04481 0.08142,-0.07431 0.07814,-0.132236 -0.0033,-0.05792 -0.05956,-0.09945 -0.108739,-0.136061 -0.149176,-0.111472 -0.33988,-0.214748 -0.4666524,-0.34917 -0.071582,-0.07595 -0.1060076,-0.1377 -0.1202148,-0.190158 -0.014207,-0.05246 0.00109,-0.09344 0.036064,-0.157918 0.035518,-0.06448 0.1573722,-0.150815 0.1721262,-0.220758 0.01475,-0.06994 -0.04645,-0.08524 -0.102183,-0.109833 -0.055736,-0.02459 -0.1606507,0.01257 -0.2125617,-0.0306 C 5.633585,10.369234 5.700796,10.279075 5.642328,10.22935 5.58386,10.17962 5.4516236,10.20749 5.3833197,10.15394 5.3150157,10.10039 5.2866017,10.034272 5.2631049,9.9572249 c -0.023497,-0.07705 -0.026229,-0.16229 -0.010382,-0.218026 0.015847,-0.05574 0.063932,-0.06612 0.092893,-0.09508 0.028961,-0.02896 0.054097,-0.053 0.0153,-0.09672 -0.038797,-0.04371 -0.1655686,0.0027 -0.2382439,-0.053 -0.072675,-0.05574 -0.028414,-0.188519 -0.079779,-0.244801 -0.051365,-0.05628 -0.1437113,-0.03442 -0.1923437,-0.05191 -0.048632,-0.01803 -0.067757,0.04535 -0.097811,-0.05464 -0.030054,-0.1 -0.0306,-0.398348 -0.071036,-0.50982 -0.040436,-0.111472 -0.119122,-0.0076 -0.1557328,-0.118029 -0.036611,-0.110379 -0.00164,-0.287423 -0.018579,-0.454631 l -0.074861,-0.45463 c -0.261194,0.175404 -0.4333197,0.230594 -0.7141852,0.279773 -0.023497,0.686317 -0.087975,1.090676 0.1448042,1.851854 C 4.095928,10.498743 4.5674979,10.947909 5.2035435,11.592698 4.3641245,10.963739 3.9635907,10.452826 3.7127789,9.7976549 3.4619671,9.1424849 3.510053,8.5949609 3.5351888,7.9643799 Z m 4.459423,-0.275401 c 0.06448,0.0027 0.143165,0.01912 0.188518,0.04863 0.04535,0.02951 0.09344,0.05355 0.134422,0.09562 0.102729,0.104369 0.179776,0.230594 0.213655,0.375398 0.02186,0.09235 0.02514,0.210923 0.03279,0.319663 -0.03115,-0.1 -0.05191,-0.204912 -0.09617,-0.294527 -0.06994,-0.141525 -0.188519,-0.279772 -0.335509,-0.343705 -0.04863,-0.02076 -0.08087,-0.01694 -0.107647,-0.01311 0.01202,0.02022 0.03224,0.03716 0.03279,0.06612 5.47e-4,0.02896 -0.006,0.08688 -0.05574,0.110926 -0.08033,0.03934 -0.16994,0.01148 -0.231686,-0.04317 -0.06175,-0.05464 -0.08415,-0.148629 -0.05137,-0.2295 0.03934,-0.09563 0.187972,-0.09617 0.275948,-0.09235 z m -0.809265,-0.136608 c 0.0082,-0.165022 0.06776,-0.303816 0.215294,-0.384687 0.0765,-0.04153 0.193983,-0.09563 0.302177,-0.10874 0.103821,-0.01202 0.356819,-0.0033 0.508727,0.06612 0.116936,0.05355 0.196168,0.136061 0.298897,0.196715 0.102729,0.06065 0.175405,0.10109 0.273216,0.169394 0.149722,0.104368 0.237697,0.219118 0.341519,0.287969 0.04973,0.03333 0.120215,0.02841 0.186333,0.04863 -0.05136,0.0153 -0.119122,0.03224 -0.174311,0.01421 -0.0694,-0.0224 -0.166115,-0.08579 -0.220212,-0.131143 -0.09508,-0.08033 -0.144258,-0.119668 -0.24808,-0.179776 -0.06175,-0.03606 -0.163929,-0.07869 -0.232233,-0.122947 -0.0683,-0.04426 -0.186333,-0.142072 -0.251904,-0.174858 -0.08306,-0.04208 -0.23278,-0.06502 -0.325673,-0.06229 -0.127865,0.0038 -0.312559,0.02459 -0.410916,0.114204 -0.09836,0.08907 -0.135515,0.167208 -0.113111,0.283051 0.03716,-0.04262 0.06175,-0.09617 0.09836,-0.127864 0.0765,-0.06557 0.164476,-0.06885 0.260101,-0.05628 0.107101,0.01421 0.161197,0.07595 0.196715,0.17759 -0.02404,-0.01749 -0.06776,-0.05574 -0.102182,-0.06776 -0.08087,-0.02787 -0.142619,-0.01912 -0.218573,0.02131 -0.08961,0.04809 -0.06557,0.119668 -0.07814,0.198354 -0.006,0.03661 -0.01967,0.06612 -0.02951,0.0989 -0.03388,-0.0087 -0.06503,-0.02295 -0.09071,-0.04809 0.0011,0.03716 -0.0044,0.0694 0.0033,0.110926 0.0076,0.04153 0.02787,0.09125 0.04153,0.136607 -0.06229,-0.06229 -0.126225,-0.120761 -0.166661,-0.201633 -0.04044,-0.08087 -0.06776,-0.170486 -0.06339,-0.259008 z m 0.108194,-1.199962 c 0.0459,-0.0683 0.05956,-0.173219 0.08798,-0.258462 -0.01148,0.108193 0.01038,0.226769 -0.04208,0.304908 -0.05246,0.07814 -0.145351,0.06448 -0.222397,0.08743 0.05956,-0.04535 0.13005,-0.06557 0.176497,-0.133875 z m -1.103244,1.601589 c 0.05901,-0.04809 0.218572,-0.0093 0.33824,-0.0011 -0.08579,0.02186 -0.171579,0.04371 -0.257368,0.06612 -0.0082,0.02896 -0.0044,0.06284 -0.02404,0.08743 -0.01967,0.02459 -0.05683,0.03442 -0.08524,0.05136 0.0027,-0.0765 -0.0306,-0.155732 0.02842,-0.203818 z m 0.841503,-3.326125 c 0.07158,0.03825 0.161744,0.08907 0.224583,0.09071 0.06284,0.0016 0.07923,-0.04098 0.11639,-0.06557 0.05847,0.190158 0.125133,0.398894 0.224037,0.57102 0.04153,0.07213 0.0683,0.0388 0.09945,0.111472 0.03115,0.07268 0.04535,0.220211 0.07541,0.313105 0.03005,0.09289 0.06885,0.16065 0.103822,0.241522 -0.08798,-0.12404 -0.201087,-0.282505 -0.249719,-0.386327 -0.04863,-0.103821 -0.01749,-0.112564 -0.05738,-0.210922 -0.03989,-0.09836 -0.119669,-0.251904 -0.17923,-0.37813 -0.04262,0.0055 -0.09563,0.01366 -0.128411,0.0033 -0.03279,-0.01038 -0.02623,-0.04481 -0.05519,-0.06721 -0.02951,-0.0224 -0.07869,-0.01366 -0.120214,-0.04918 -0.04153,-0.03552 -0.05082,-0.10874 -0.0541,-0.173765 z m -0.384141,0.937129 c 0.06721,-0.006 0.150269,0.01202 0.213108,0.0087 0.06284,-0.0033 0.107647,-0.01967 0.161744,-0.03005 -0.0098,-0.09453 -5.46e-4,-0.268298 -0.08798,-0.331684 -0.05628,-0.04098 -0.287969,-0.0098 -0.350263,0.0033 -0.139339,0.03005 -0.301629,0.113111 -0.436051,0.165022 0.128957,-0.09016 0.240429,-0.173765 0.395616,-0.220212 0.09289,-0.02787 0.310372,-0.06448 0.406544,-0.03825 0.04371,0.01202 0.05246,0.03005 0.07923,0.06721 0.09125,0.127865 0.09125,0.237698 0.11475,0.386873 0.0235,0.03661 0.04809,0.06065 0.06721,0.09781 0.01912,0.03716 0.02951,0.09672 0.03497,0.144804 -0.02404,-0.03443 -0.0093,-0.07814 -0.07541,-0.103822 -0.06612,-0.02568 -0.167754,-0.0016 -0.257369,0.0076 0.06503,0.04699 0.09727,0.09235 0.1,0.191797 0.0027,0.11639 -0.09563,0.20054 -0.198901,0.208737 -0.143165,0.01093 -0.216933,-0.02022 -0.274854,-0.142619 -0.02514,-0.05355 -0.0071,-0.118029 -0.0093,-0.170486 -0.172126,0.01202 -0.169393,0.0066 -0.295072,0.110925 0.0683,0.1 0.111471,0.157919 0.224036,0.21748 0.06339,0.03388 0.134969,0.06612 0.213655,0.07978 0.07869,0.01366 0.207097,0.02623 0.289608,0.01366 0.08251,-0.01257 0.128958,-0.03606 0.190158,-0.09289 0.0612,-0.05683 0.06666,-0.1377 0.09071,-0.201633 -0.0055,0.06175 -0.01257,0.139887 -0.03552,0.184694 -0.0694,0.136061 -0.190158,0.175951 -0.333323,0.176497 -0.137701,5.46e-4 -0.308734,-0.03115 -0.436599,-0.0847 -0.102729,-0.04262 -0.272669,-0.162836 -0.313105,-0.267204 -0.02732,-0.07158 -0.006,-0.159012 -0.0087,-0.238791 0.142072,-0.09453 0.177043,-0.07104 0.345344,-0.0989 0.07049,-0.01148 0.118575,-0.0377 0.185786,-0.04371 z m -0.827296,-0.639324 c 0.00383,-0.05683 0.010382,-0.05519 0.0153,-0.08306 -0.1295041,-0.03442 -0.1814151,0.04918 -0.2568225,0.205458 -0.028414,0.05847 -5.465e-4,0.09289 -0.0306,0.13169 -0.030054,0.0388 -0.079232,0.03279 -0.1289577,0.06994 -0.049725,0.03716 -0.098357,0.107647 -0.1442577,0.145897 -0.095079,0.07814 -0.2229438,0.126226 -0.3327764,0.178683 0.074861,-0.05519 0.2207581,-0.13934 0.2677511,-0.219665 0.025136,-0.04262 0.021311,-0.122947 0.060107,-0.161744 0.038797,-0.0388 0.052457,-0.06503 0.102729,-0.07486 0.050272,-0.0098 0.030054,-0.06776 0.046447,-0.114204 0.016393,-0.04645 0.048632,-0.07923 0.083058,-0.125132 0.034425,-0.04645 0.077593,-0.115844 0.1453507,-0.14098 0.067757,-0.02513 0.173765,0.0022 0.2245831,-0.01257 0.051364,-0.01475 0.021857,-0.05191 0.059015,-0.07431 0.03716,-0.0224 0.109832,-0.01257 0.159557,-0.03661 0.08852,-0.04262 0.130597,-0.113658 0.183601,-0.189065 0.0076,0.163383 0.006,0.280865 -0.053,0.434959 -0.06612,0.173218 -0.133329,0.274855 -0.320757,0.381409 -0.064479,0.03661 -0.1289577,0.04918 -0.1825079,0.06885 0.031147,-0.04262 0.075954,-0.0612 0.093986,-0.127865 0.018032,-0.06666 0.00437,-0.199447 0.00874,-0.25573 z m 3.030506,0.796696 c -0.08907,0.006 -0.110379,-0.006 -0.181962,0.04426 0.0388,0.06011 0.07759,0.120215 0.115844,0.180868 -0.0033,-0.119122 0.0082,-0.142618 0.06557,-0.225129 z m -0.233326,-0.08634 c 0.123493,-0.05246 0.23114,-0.09508 0.365562,-0.103822 0.0541,-0.0033 0.137701,0.0049 0.191797,0.0077 0.04645,-0.0683 0.105462,-0.121854 0.127319,-0.199994 0.01421,-0.05191 0.0071,-0.291794 -0.01803,-0.354087 -0.07377,-0.181415 -0.145898,-0.189065 -0.247534,-0.292887 -0.07377,-0.07541 -0.07705,-0.190158 -0.0989,-0.318569 -0.0082,-0.04699 -0.03115,-0.107101 -0.04208,-0.155733 -0.133329,-0.0224 -0.275947,-0.03005 -0.428948,-0.0224 0.07431,-0.07104 0.145897,-0.136061 0.167208,-0.243161 0.02131,-0.107101 0.0038,-0.238244 -0.05683,-0.33387 -0.06065,-0.09562 -0.157919,-0.179229 -0.246987,-0.257369 -0.08907,-0.07814 -0.216933,-0.142618 -0.301083,-0.206551 0.109832,-0.03934 0.221851,-0.09726 0.329498,-0.118029 0.280319,-0.05464 0.521841,0.02896 0.791778,0.192344 0.157372,0.09508 0.286876,0.18524 0.451352,0.357366 0.164476,0.172126 0.367748,0.487416 0.5267593,0.674296 0.159012,0.186879 0.287423,0.334962 0.426216,0.446434 0.138794,0.111472 0.264473,0.143165 0.396163,0.214747 l 0.206004,0.218572 0.166662,-0.206004 0.268297,0.0306 0.05519,-0.301083 0.24644,-0.06721 -0.04044,-0.405999 0.177044,-0.125679 -0.132783,-0.252451 0.134969,-0.275947 -0.175951,-0.315291 0.06776,-0.303816 -0.203818,-0.173765 -0.02678,-0.322394 -0.28469,-0.10874 -0.114204,-0.280865 -0.319662,-0.0038 -0.156826,-0.20819 -0.215294,0.0153 -0.239883,-0.02623 -0.136061,-0.1 -0.196715,0.130597 -0.2382443,-0.124586 -0.473756,0.179776 0.308734,-0.268844 0.320208,-0.05136 0.2453483,-0.06229 0.331137,0.10874 0.291248,-0.07377 0.280865,0.166115 0.297258,-0.01639 0.145897,0.262287 0.296166,0.03442 0.160104,0.291247 0.186333,0.101637 0.04918,0.373212 0.165569,0.157372 -0.07322,0.326766 0.195622,0.247533 -0.183054,0.265019 0.196168,0.165568 -0.250265,0.221851 0.253544,0.263927 -0.306548,0.0989 0.199448,0.283051 -0.250266,0.04317 0.163929,0.311465 -0.281958,-0.0038 0.142072,0.233326 -0.30928,-0.03716 0.07377,0.335509 -0.233872,-0.205458 -0.08033,0.407091 -0.161197,-0.292341 -0.08743,0.36447 -0.198901,-0.268844 0.0055,0.381955 -0.220212,-0.343705 c 0.04645,0.195076 0.03716,0.408184 0.165023,0.592331 0.396708,-0.05355 0.656263,-0.153547 0.960079,-0.445888 0.276494,-0.266112 0.607631,-0.821832 0.697245,-1.173733 0.102183,-0.402174 0.105462,-1.140948 0.0049,-1.550225 -0.09672,-0.393977 -0.222943,-0.582495 -0.448073,-0.903797 -0.215294,-0.228408 -0.426763,-0.46993 -0.699432,-0.632767 -0.400533,-0.239336 -0.914725,-0.303815 -1.370995,-0.297258 -0.252997,0.0033 -0.4223913,0.05191 -0.5737523,0.1071 -0.264473,0.09617 -0.475941,0.306002 -0.744785,0.409277 -0.08743,0.03388 -0.157919,0.03497 -0.226769,-0.0022 0.06776,0.134969 0.140979,0.196169 0.309826,0.245348 0.121854,0.03552 0.413102,0.01311 0.613096,-0.0055 0.215293,-0.01967 0.3273123,-0.0836 0.6196523,-0.07978 0.285784,0.0038 0.512552,0.112564 0.636046,0.183054 0.255729,0.145897 0.438784,0.308187 0.597795,0.56501 0.08743,0.140979 0.148629,0.29999 0.191797,0.46228 0.04317,0.16229 0.06175,0.344252 0.06503,0.503263 0.0027,0.159011 -0.0093,0.300537 -0.04809,0.443702 -0.09071,0.334962 -0.291248,0.675389 -0.703257,0.622931 -0.251904,-0.03224 -0.63222,-0.505448 -0.759539,-0.679213 -0.256822,-0.350263 -0.5212953,-0.738229 -0.8436893,-1.030023 -0.196715,-0.17759 -0.466106,-0.300537 -0.730578,-0.32458 -0.496159,-0.04535 -0.643696,0.04863 -1.016908,0.35682 0.07595,0.02404 0.150268,0.0377 0.227862,0.07268 0.172672,0.07814 0.331137,0.178683 0.468837,0.307641 0.144258,0.135514 0.209283,0.221304 0.214748,0.414741 0.0033,0.128957 -0.102729,0.231686 -0.199448,0.32458 -0.05956,0.05683 -0.1377,0.108739 -0.185786,0.153 -0.06393,0.05847 -0.142619,0.122401 -0.06284,0.215841 0.03005,0.03497 0.08251,0.06175 0.126772,0.09399 0.06994,0.05191 0.0377,0.244801 -0.0541,0.296165 -0.11803,0.06557 -0.259009,0.05792 -0.356273,-0.02951 0.122947,-0.01858 0.20054,-0.03443 0.197808,-0.134969 -0.0016,-0.05847 -0.07595,-0.106554 -0.14863,-0.139886 -0.175404,-0.07978 -0.30764,-0.0683 -0.481952,-0.193436 -0.17595,-0.126772 -0.179775,-0.196169 -0.227861,-0.39507 -0.0847,0.0087 -0.163383,0.01093 -0.276494,0.04863 -0.113112,0.0377 -0.239337,0.127319 -0.342066,0.149176 -0.259555,0.05574 -0.311466,0.03934 -0.453538,0.0027 -0.2502651,-0.06448 -0.575938,0.0459 -0.8994251,0.149722 -0.05355,0.01694 -0.2715761,5.47e-4 -0.4180196,0.05191 -0.2262224,0.07923 -0.5436987,0.271576 -0.7272995,0.426216 -0.2781334,0.233873 -0.6431492,0.934397 -0.8497001,1.738197 -0.021857,0.244255 0.048086,0.409277 -0.1060076,0.528399 -0.1540935,0.119122 -0.1497221,0.425123 -0.2021794,0.510913 -0.052457,0.08579 -0.1125648,0.04754 -0.2251296,0.1683 -0.1125647,0.120762 -0.1693935,0.100544 -0.1666614,0.327859 0.096718,-0.06339 0.2382439,-0.137701 0.3617373,-0.142072 0.1098326,-0.0038 0.1109255,0.140433 0.3928838,-0.138247 0.1508149,-0.149176 0.4404233,-0.153547 0.6409635,-0.219119 0.2005401,-0.06557 0.5628238,-0.201087 0.9256539,-0.606538 0.3628301,-0.405452 0.5360487,-0.832215 0.6065383,-1.449135 0.011475,0.109286 0.0306,0.23278 -0.016393,0.534409 -0.046993,0.30163 -0.1475364,0.640417 0.065025,1.046416 l 0.1322362,0.252997 C 5.5679118,7.3425409 5.4138183,7.1671369 5.3673717,7.0420039 L 5.2602712,6.7534889 c -0.2393367,0.375944 -0.2945263,0.443155 -0.6267563,0.712546 -0.013114,0.167207 -0.016393,0.341519 0.03825,0.501077 0.054643,0.159558 -0.032239,0.344251 0.00929,0.449166 0.041529,0.105461 0.1377006,0.04535 0.1688472,0.151908 0.031147,0.106554 -0.016393,0.317476 0.032239,0.421298 0.048632,0.103822 0.1677543,0.04098 0.225676,0.07431 0.057922,0.03333 0.0765,0.07923 0.1076469,0.123493 0.031147,0.04426 -0.012021,0.148629 0.050818,0.182508 0.06284,0.03388 0.1611972,0.0049 0.2267689,0.0377 0.065572,0.03279 0.075407,0.110925 0.059561,0.180868 -0.015847,0.06994 -0.08579,0.102183 -0.1163898,0.173219 -0.0306,0.07104 -0.027321,0.120761 0.00984,0.186333 0.037157,0.06557 0.1185755,0.1016361 0.1999937,0.1344221 0.081418,0.03279 0.1956223,0.01421 0.2797719,0.06011 0.08415,0.0459 0.159558,0.136608 0.203819,0.202726 0.04426,0.06612 0.05683,0.112565 0.05464,0.181962 -0.0022,0.0694 -0.0306,0.149722 -0.06776,0.216386 -0.03716,0.06721 -0.119122,0.148629 0.0087,0.277041 0.127864,0.128411 0.122947,0.07322 0.196168,0.156279 -0.0082,-0.143711 -0.06721,-0.261194 -0.02404,-0.369387 0.04317,-0.108194 0.173765,-0.127319 0.242616,-0.175951 0.06885,-0.04863 0.108193,-0.115844 0.16229,-0.173219 -5.47e-4,0.07431 0.0071,0.15464 -0.0011,0.210376 -0.01694,0.113658 -0.05082,0.214747 0.118575,0.233326 0.0765,0.0082 0.149176,-0.04153 0.229501,-0.07104 -0.04208,0.07541 -0.115297,0.136061 -0.126225,0.226769 -0.01093,0.09071 0.0022,0.189611 0.06502,0.279226 0.06229,0.08962 0.170486,0.156279 0.249719,0.208737 0.07923,0.05246 0.121308,0.05683 0.182508,0.08524 0.0027,0.08907 -0.01475,0.182508 -0.0044,0.266658 0.01038,0.08415 0.03661,0.157372 0.0847,0.226769 0.04863,0.06885 0.125679,0.10874 0.198901,0.160104 -0.03989,-0.09344 -0.121308,-0.181961 -0.120215,-0.279772 0.0011,-0.09781 0.0306,-0.167755 0.126226,-0.254637 0.09563,-0.08688 0.319662,-0.16229 0.425123,-0.246987 0.105461,-0.0847 0.139886,-0.136608 0.17759,-0.218572 0.0377,-0.08197 0.02732,-0.214748 0.03442,-0.288516 0.03497,0.103276 0.03989,0.135515 0.05082,0.243708 0.01093,0.108194 -0.06339,0.260102 -0.09453,0.340427 0.130597,-0.06339 0.213654,-0.163929 0.255183,-0.262287 0.02787,0.01639 0.01366,0.06229 0.02404,0.149722 0.04645,-0.04645 0.09945,-0.08197 0.146443,-0.125679 0.04699,-0.04371 0.09836,-0.08196 0.121855,-0.143165 0.0235,-0.0612 0.01366,-0.125679 -0.0038,-0.196715 -0.01749,-0.07104 -0.09672,-0.153001 -0.13934,-0.230594 -0.04262,-0.07759 0.0076,-0.153547 0.0049,-0.246987 -0.08524,-0.01475 -0.157919,-0.05792 -0.25573,-0.04371 -0.09781,0.01421 -0.210376,0.12404 -0.310919,0.125679 -0.100544,0.0016 -0.156826,-0.09235 -0.238791,-0.118576 -0.08196,-0.02623 -0.165568,-0.02295 -0.248079,-0.03442 0.104914,-0.1 0.510913,-0.148082 0.789046,-0.193436 0.244255,-0.03989 0.48687,-0.06284 0.73495,-0.06612 0.110379,-0.0016 0.252997,0.03497 0.329497,0.01257 0.0765,-0.0224 0.06065,-0.07432 0.08306,-0.13169 0.06393,-0.1595581 0.03224,-0.3016301 -0.0022,-0.4622811 -0.222397,-0.02623 -0.454084,-0.05792 -0.678121,-0.04098 -0.219118,0.01694 -0.478673,0.120761 -0.704349,0.127865 -0.196169,0.006 -0.487416,-0.0377 -0.656264,-0.140433 -0.206004,-0.125679 -0.365562,-0.395616 -0.422391,-0.481952 -0.09235,-0.140979 -0.208736,-0.41802 -0.279226,-0.544792 -0.07049,-0.126772 -0.08634,-0.16229 -0.14535,-0.214747 -0.05902,-0.053 -0.13934,-0.05683 -0.209284,-0.08524 0.08033,0.0082 0.168301,-0.01749 0.240977,0.02459 0.109832,0.06284 0.232779,0.324034 0.301083,0.437145 0.07213,-0.242615 0.05519,-0.337694 0.265019,-0.474302 -0.168847,0.189065 -0.172672,0.33223 -0.214201,0.554627 0.140433,0.230048 0.334962,0.596703 0.590692,0.698339 0.09235,0.03661 0.250265,0.06011 0.350262,0.07213 0.309826,0.03825 0.60927,-0.06011 0.913633,-0.134969 0.222943,-0.05519 0.448619,-0.03279 0.719103,-0.01694 0.0918,0.0055 0.308733,-0.04972 0.3535403,-0.143165 0.02404,-0.05027 0.0224,-0.110379 -0.01257,-0.163929 -0.03497,-0.05355 -0.1278643,-0.07923 -0.1775903,-0.127319 -0.04973,-0.04809 -0.07814,-0.104914 -0.117482,-0.157918 -0.206551,0.03989 -0.377038,0.05464 -0.530585,0.05901 0.110379,-0.04535 0.215841,-0.07104 0.330591,-0.115843 0.114751,-0.04481 0.244801,-0.118575 0.337148,-0.179229 0.09235,-0.06065 0.151361,-0.09672 0.2185723,-0.167755 0.06667,-0.07104 0.152455,-0.144257 0.20218,-0.23114 0.04973,-0.08688 0.05683,-0.184147 0.05956,-0.291794 0.0027,-0.107647 -0.0022,-0.258462 -0.04317,-0.344798 -0.04098,-0.08634 -0.121308,-0.113111 -0.185787,-0.133329 -0.06448,-0.02022 -0.1081933,0.03115 -0.1748583,0.03825 -0.06666,0.0071 -0.128957,0.04918 -0.225676,0.0038 -0.09672,-0.04535 -0.210922,-0.1377 -0.308733,-0.274855 -0.09781,-0.137154 -0.167208,-0.361737 -0.266658,-0.534409 -0.17158,-0.297258 -0.385234,-0.575392 -0.589599,-0.850793 -0.01694,-0.06776 -0.04208,-0.161743 -0.05027,-0.25409 -0.01475,-0.160651 -0.01749,-0.327859 0.03224,-0.484138 0.03825,-0.120215 0.09399,-0.246987 0.219666,-0.296166 0.05027,-0.01967 0.113657,-0.02732 0.159011,-0.01093 0.04535,0.01639 0.08907,0.06721 0.07158,0.126225 -0.01912,0.06448 -0.06393,0.06612 -0.09453,0.0989 -0.05137,0.05519 -0.07213,0.09563 -0.0918,0.164476 0.05574,-0.0011 0.131143,-0.0049 0.176497,0.0071 0.05956,0.01585 0.115297,0.05519 0.14535,0.139886 -0.07104,-0.06339 -0.106554,-0.09235 -0.195622,-0.09453 -0.04098,-0.0011 -0.09016,0.01366 -0.134968,0.02022 -0.01694,0.05464 -0.02678,0.121854 -0.05027,0.164476 -0.0235,0.04262 -0.06994,0.03224 -0.08743,0.08196 -0.01749,0.04918 -0.01803,0.13005 -0.0093,0.195075 z m 0.621838,-0.07431 c 0.02732,0.01093 0.0377,0.01311 0.07213,0.03934 0.03443,0.02623 0.08197,0.05246 0.109833,0.115297 0.02732,0.06284 0.02623,0.160104 0.02022,0.199447 -0.02404,-0.0071 -0.05683,-0.0022 -0.08142,-0.0235 -0.02459,-0.02131 -0.03989,-0.0694 -0.07158,-0.09016 -0.03169,-0.02077 -0.05847,-0.01639 -0.09399,-0.02077 0.01803,0.05137 0.02677,0.103276 0.01858,0.149722 -0.01858,0.102183 -0.07814,0.153548 -0.175405,0.166115 -0.04262,0.0055 -0.109832,-0.0087 -0.146443,-0.0153 0.01694,0.03825 0.0459,0.07158 0.06339,0.109833 0.08196,-0.01202 0.143165,-0.01038 0.186879,-0.0306 0.04371,-0.02022 0.09125,-0.06667 0.148083,-0.08634 0.05683,-0.01967 0.1071,-0.01913 0.169393,-0.02896 -0.04918,0.04208 -0.08087,0.08415 -0.129504,0.126225 0.03552,0.103822 0.07158,0.208191 0.107101,0.312013 0.07595,0.04754 0.14699,0.07268 0.242615,0.131143 0.09563,0.05847 0.210376,0.163383 0.3349623,0.220758 0.124586,0.05738 0.198355,0.08852 0.328952,0.113111 0.130597,0.02459 0.233326,0.130051 0.361737,0.14699 0.127865,0.01694 0.367201,0.02076 0.465559,0.01093 0.112018,-0.01093 0.257369,-0.06885 0.270483,-0.191251 -0.09399,0.02295 -0.237151,0.0022 -0.309826,-0.174312 -0.03224,-0.07869 -0.01639,-0.222943 -0.06557,-0.31529 -0.04918,-0.09235 -0.117482,-0.122401 -0.199447,-0.237151 -0.08197,-0.114204 -0.21584,-0.294526 -0.291248,-0.447527 -0.07541,-0.153001 -0.09289,-0.326766 -0.156279,-0.46392 -0.06339,-0.137154 -0.159558,-0.24808 -0.233872,-0.354087 -0.16229,-0.23114 -0.2934343,-0.389059 -0.5606383,-0.505449 -0.128412,-0.05628 -0.274855,-0.07104 -0.412556,-0.106554 -0.05574,0.02514 -0.132782,0.053 -0.146443,0.118029 -0.01366,0.06503 0.01257,0.16229 0.06011,0.211469 0.07923,0.08197 0.197262,0.171033 0.243708,0.30163 0.02951,0.0836 0.03825,0.365016 0.01257,0.44097 -0.02678,0.07923 -0.08907,0.126772 -0.140432,0.179775 z m 0.02568,0.665007 c -0.02514,0.02131 -0.04371,0.04317 -0.0836,0.0612 -0.03989,0.01803 -0.09453,0.0224 -0.147537,0.03552 0.07431,0.115843 0.152454,0.232779 0.22349,0.354087 0.07104,0.121308 0.132783,0.254637 0.201087,0.381955 -0.0033,-0.07322 0.0011,-0.150815 -0.0093,-0.219119 -0.01038,-0.0683 -0.04153,-0.127864 -0.07213,-0.230047 -0.0306,-0.102182 -0.0683,-0.241522 -0.111472,-0.384141 z m -1.99939,-2.54309 c -0.01038,0.113658 0.0087,0.291794 0.03224,0.403266 0.02842,0.133329 0.05519,0.202726 0.163383,0.283051 0.198354,0.14699 0.32458,0.122401 0.477034,0.207644 0.07268,0.04044 0.164476,0.10874 0.191251,0.180322 0.02678,0.07158 -0.01749,0.150269 -0.07268,0.180869 0.09617,0.01421 0.204365,-0.09399 0.159011,-0.205458 -0.0224,-0.05464 -0.127865,-0.07923 -0.160104,-0.134422 -0.03224,-0.05519 -0.03224,-0.112018 -0.01694,-0.168301 0.02732,-0.10109 0.227861,-0.193436 0.298351,-0.273215 0.10874,-0.122947 0.150815,-0.226223 0.08907,-0.384688 -0.08634,-0.222943 -0.421298,-0.401626 -0.621292,-0.489055 -0.0918,-0.03989 -0.143165,-0.04262 -0.214747,-0.06448 0.146443,0.08579 0.300537,0.154093 0.374851,0.345891 0.06175,0.160104 0.0082,0.220758 0.01038,0.360098 0.0011,0.06448 0.08634,0.09726 0.124039,0.1377 0.03279,0.03552 0.03005,0.06175 0.0038,0.110926 -0.0027,-0.04426 -0.02186,-0.07705 -0.05574,-0.10109 -0.05628,-0.03989 -0.116389,-0.03115 -0.146443,-0.112565 -0.04535,-0.12404 0.04481,-0.240976 -0.05628,-0.380316 -0.07541,-0.103822 -0.175951,-0.220758 -0.312013,-0.22349 -0.06393,-0.0016 -0.112564,0.0082 -0.180868,0.02841 l -0.09125,-0.109832 -0.0022,-0.0016 c -0.185786,-0.16994 -0.313105,-0.309827 -0.574299,-0.426217 -0.261194,-0.116389 -0.389605,-0.134422 -0.688503,-0.127864 -0.2988974,0.0066 -0.5961558,0.03169 -0.942593,0.33059 -0.3464372,0.298898 -1.2393053,1.442578 -1.4556919,1.587382 -0.2163866,0.144804 -0.2644725,0.193983 -0.5349558,0.193983 -0.2704833,0 -0.6928744,-0.382502 -0.7092674,-0.860629 -0.016393,-0.478127 -0.023497,-0.648067 0.3092799,-1.224551 0.3327765,-0.576485 0.9349433,-0.752982 1.3819238,-0.813089 0.4469805,-0.05956 0.715278,0.09781 1.0464152,0.09836 0.3311371,5.47e-4 0.6573564,-0.05628 0.7535282,-0.319116 -0.046993,0.02787 -0.110379,0.05956 -0.2879691,0.05027 -0.17759,-0.0093 -0.4240304,-0.214747 -0.7010708,-0.352994 -0.2770405,-0.137701 -0.5852275,-0.154094 -0.9808435,-0.161197 -0.395616,-0.0071 -0.8890431,0.02295 -1.3780988,0.286876 -0.4890556,0.263926 -0.8223785,0.544245 -1.1059761,1.060622 -0.2835977,0.516377 -0.3256728,0.938222 -0.2803191,1.563885 0.045354,0.625664 0.2387903,1.090677 0.6098169,1.548586 0.371573,0.457909 0.7425996,0.681945 1.4119775,0.765003 l 0.1409792,-0.621292 -0.2513583,0.361191 0.00601,-0.401627 -0.2273153,0.282505 -0.099997,-0.383048 -0.1841473,0.307094 -0.0918,-0.427309 -0.2672048,0.21584 0.084697,-0.352994 -0.3535408,0.03934 0.16229,-0.245348 -0.3223487,0.00379 0.1874258,-0.327312 -0.2857834,-0.045353 0.2278617,-0.297805 -0.3502622,-0.103822 0.2901548,-0.277587 -0.2863298,-0.233326 0.2240367,-0.174312 -0.2092831,-0.278679 0.2234903,-0.260101 -0.083604,-0.343159 0.1896115,-0.165569 0.056282,-0.392337 0.2125616,-0.1071 0.1830543,-0.306548 0.3382408,-0.03607 0.1672078,-0.275401 0.3398801,0.01749 0.3213013,-0.174311 0.3333229,0.07759 0.3781302,-0.114204 0.280319,0.06557 0.3655623,0.05355 0.3529944,0.282504 -0.5415131,-0.189065 -0.272669,0.130597 -0.2251295,-0.1377 -0.1551864,0.105461 -0.2743083,0.02732 -0.2458939,-0.01585 -0.1792294,0.219119 -0.3655622,0.0038 -0.130597,0.295072 -0.3251264,0.114204 -0.0306,0.338788 -0.233326,0.182508 0.077593,0.319115 -0.201633,0.331137 0.15464,0.289609 -0.1519078,0.265019 0.2021794,0.13169 -0.0459,0.426216 0.281412,0.07104 0.063386,0.316383 0.3065478,-0.03169 0.1901579,0.216933 0.2355118,-0.230047 c 0.4289482,-0.213655 0.6054454,-0.333323 0.9398611,-0.69506 0.3808624,-0.411463 0.5988883,-0.792325 1.1059762,-1.074283 0.3633765,-0.20218 0.6600887,-0.274855 1.0688187,-0.204366 0.383595,0.06612 0.512006,0.296166 0.794511,0.538781 0.03005,-0.0541 0.03606,-0.0683 0.08524,-0.108193 -0.0153,0.07049 -0.03989,0.143165 -0.04645,0.210922 z"/>
</svg>
