<svg aria-hidden="true" xmlns="http://www.w3.org/2000/svg" viewBox="0 0 14 14" height="1em" width="1em">
  <path d="M5.872 12.182c-.1-.012-.193-.04-.208-.06a1.15 1.15 0 0 0-.278-.13c-.488-.184-.763-.587-.87-1.275-.086-.552-.012-.882.347-1.556.777-1.46.89-1.665 1.043-1.885.09-.13.324-.387.52-.572a3.039 3.039 0 0 1 2.13-.839c.71 0 1.21.188 1.747.666.34.302.416.25.26-.18-.156-.425-.15-.571.027-.615.337-.085 1.107.609 1.452 1.307.145.294.264.443.542.683.196.168.369.336.384.371.038.087-.01.203-.087.21a9.3 9.3 0 0 0-.635.163c-.387.106-.697.157-.957.159-.344 0-.397.016-.507.134-.164.177-.157.217.072.417.146.128.18.185.136.23-.07.073-.277-.024-.964-.449a5.177 5.177 0 0 0-.481-.278c-.017 0-.031.056-.031.125 0 .09.071.179.253.312.245.18.469.508.37.542-.06.021-.799-.543-1.037-.792-.176-.184-.186-.187-.587-.187-.318 0-.414.017-.438.08-.041.108.115.27.299.311.19.042.36.254.36.45 0 .292-.177.247-.684-.173-.237-.196-.41-.256-.41-.142 0 .032.037.196.08.366.045.17.067.33.05.358-.108.175-.548-.2-.694-.591-.056-.152-.137-.276-.185-.286-.047-.01-.164.052-.26.136a4.183 4.183 0 0 1-.605.382c-.495.261-.69.484-.776.886-.064.3-.006.6.162.837.145.203.511.404.737.404.269 0 .246-.121-.044-.232-.275-.105-.36-.233-.314-.475.097-.514.677-.732 1.164-.436.37.225.289.95-.149 1.319-.089.075-.182.136-.206.136-.025 0-.076.032-.115.07-.084.084-.363.129-.613.099zm.52-1.083c0-.086-.082-.1-.13-.023-.043.069.02.166.081.128.027-.016.049-.064.049-.105zm.458-.166a.15.15 0 0 0-.112-.108c-.08-.016-.086 0-.036.09.07.131.173.144.148.018zm-1.314 1.21c-.765-.218-1.154-.875-1.114-1.88.017-.432.036-.497.266-.957.388-.774.934-1.77 1.129-2.054.62-.909 1.684-1.483 2.748-1.483.67 0 1.19.186 1.716.613.243.197.259.182.143-.145-.11-.315-.098-.452.05-.55.176-.115.384-.06.718.19.364.272.735.725.942 1.149.123.253.241.404.438.56.259.204.428.438.428.592 0 .04-.044.112-.097.16-.14.127-1.257.397-1.643.397-.295 0-.33.012-.396.134-.065.122-.061.143.037.221.178.141.233.29.15.405-.07.095-.08.094-.35-.042a16.182 16.182 0 0 1-.615-.335l-.338-.195.247.276c.174.194.247.32.247.426 0 .101-.026.15-.08.15-.098 0-.81-.537-1.062-.8-.171-.18-.194-.188-.533-.188-.2 0-.354.023-.354.052 0 .028.104.1.23.16.492.23.541.96.052.775a1.923 1.923 0 0 1-.388-.26c-.282-.237-.39-.266-.327-.09.023.065.042.235.042.378 0 .223-.015.262-.105.275-.192.028-.527-.27-.685-.611-.08-.172-.166-.314-.191-.314-.025 0-.123.068-.218.15a3.55 3.55 0 0 1-.54.346c-.43.226-.652.456-.734.76-.09.334-.022.642.194.88.219.243.31.266.2.052a.7.7 0 0 1-.08-.24c0-.154.263-.574.415-.664.317-.187.977-.053 1.122.229.214.412-.015 1.094-.458 1.368-.295.182-.798.229-1.206.112zm-3.997-.547c-.15-.117-.39-.506-.456-.735-.08-.277.11-.404 1.27-.851.687-.265 1.074-.389 1.154-.369.146.036.491.582.491.776 0 .177-.15.283-1.177.834-.891.477-1.057.522-1.282.345zm1.3-3.172c-.594-.08-1.18-.161-1.302-.18-.267-.04-.494-.221-.533-.426-.033-.176.134-.846.26-1.037a.768.768 0 0 1 .269-.22c.18-.085.198-.082 1.605.268.783.195 1.472.388 1.532.43.072.051.109.133.109.244 0 .235-.182.863-.277.958-.127.127-.508.119-1.662-.038zm2.4-2.302c-.31-.193-2.122-1.962-2.158-2.107-.05-.201.1-.453.434-.72.574-.46 1.004-.552 1.3-.275.071.067.504.585.96 1.152.77.956.83 1.046.815 1.22-.014.172-.056.219-.438.491-.509.364-.653.401-.914.239zm2.69-1.153c-.146-.145-.156-.212-.26-1.635-.047-.65-.059-1.102-.03-1.177a.692.692 0 0 1 .216-.243c.151-.108.228-.12.748-.123.555 0 .588 0 .768.14.103.08.203.192.222.25.044.138-.12 2.414-.19 2.639-.03.093-.097.192-.15.22-.053.029-.345.053-.649.053-.511 0-.56-.01-.675-.124z"/>
</svg>
