<svg aria-hidden="true" xmlns="http://www.w3.org/2000/svg" viewBox="0 0 14 14" height="1em" width="1em">
  <path d="M5.037 13a1.424 1.424 0 0 1-1.373-1.796l-.008-.003.045-.113L7.2 2.005c.052-.135.028-.455.003-.634a.243.243 0 0 1 .004-.12l.004-.011.003-.008V1.23l.004-.01c.054-.146.225-.219.504-.219.337 0 .801.105 1.276.286.398.154.761.345 1.016.538.301.225.421.427.354.6l-.016.022-.008.008a.381.381 0 0 1-.075.082c-.157.136-.382.368-.42.473l-3.531 9.21-.008-.002a1.436 1.436 0 0 1-1.272.78h-.003l.002.003zm-1.094-1.859-.01.025a1.18 1.18 0 0 0 .682 1.509 1.168 1.168 0 0 0 1.513-.673l.013-.03 3.48-9.045c.073-.195.42-.51.49-.57l.007-.008c.006-.008.01-.008.01-.015 0-.03-.03-.135-.278-.323-.24-.18-.577-.36-.952-.502-.434-.164-.884-.27-1.184-.27-.195 0-.262.041-.273.063v.02c.008.052.074.517-.017.757l-3.48 9.06v.002zm4.475-5.753s-.482.554-.921.754c-.44.199-.765.146-1.16.378-.395.23-.594.552-.594.552l-1.608 4.18c-.174.473.084 1.026.563 1.21a.941.941 0 0 0 1.206-.527l2.514-6.548ZM5.953 10.38c.052-.02.112 0 .133.052.02.053 0 .112-.053.133-.052.021-.112 0-.133-.052a.102.102 0 0 1 .053-.133zm-.507-.901a.149.149 0 0 1-.199-.077.148.148 0 0 1 .077-.199.148.148 0 0 1 .2.077c.036.075.003.157-.078.195v.004zm.143-.548a.291.291 0 0 1 .143-.379.287.287 0 0 1 .375.143c.06.144 0 .312-.142.378a.293.293 0 0 1-.383-.142h.007zm1.213-1.129A.148.148 0 0 1 7 7.877a.149.149 0 0 1-.077.2.148.148 0 0 1-.2-.078.146.146 0 0 1 .078-.198v.001zm-.647-.69c.053-.02.113 0 .133.053.022.052 0 .113-.052.133-.052.021-.113 0-.132-.052a.102.102 0 0 1 .051-.133zM7.841 1.57c.05-.13.496-.081.997.113.5.192.865.455.815.585-.052.132-.498.082-.998-.11-.502-.193-.867-.456-.816-.589h.002z"/>
</svg>
