<svg role="img" focusable="false" aria-hidden="true" xmlns="http://www.w3.org/2000/svg" viewBox="0 0 14 14" height="1em" width="1em">
  <path d="m 5.115705,10.20737 c 0.2365009,0.118 0.4895018,0.208001 0.7590028,0.270001 0.6035022,0.14 1.1925044,0.1165 1.7645065,-0.0705 l -0.3125011,1.378505 1.1935044,1.010003 C 7.9237154,12.95188 7.3132131,13.01788 6.6907108,12.99588 5.9632081,12.97288 5.2642056,12.818879 4.5957031,12.533378 c -0.1800007,-0.0765 -0.3525013,-0.161 -0.5205019,-0.255001 l -0.0595,-1.441005 1.100004,-0.630002 z m 6.291523,-7.0255262 -0.656502,1.743006 -1.8070069,0.217501 c -0.0525,-0.0455 -0.1065004,-0.0905 -0.1635006,-0.1275 -0.5925022,-0.450002 -1.2600046,-0.713003 -2.0020074,-0.787503 -0.1730006,-0.0145 -0.3375012,-0.0145 -0.4950018,-0.0145 l 0.6300023,-1.613006 -1.363505,-1.552506 c 0.4135015,-0.045 0.818503,-0.052 1.2295045,-0.045 0.245001,0.0075 0.4875018,0.0255 0.7295027,0.0565 0.3400013,0.0445 0.6755025,0.119501 1.0075037,0.210001 0.7025026,0.200001 1.342505,0.517002 1.9210075,0.965003 0.364501,0.279502 0.688002,0.595503 0.970003,0.948004 z m -8.0175293,5.077019 c 0.1595006,0.422001 0.3940014,0.807003 0.7045026,1.158004 0.2325008,0.269501 0.4950018,0.487502 0.7815028,0.6595022 l -1.100004,0.630503 0.06,1.432005 C 3.472699,11.913376 3.1381977,11.643875 2.8356966,11.336374 2.3251947,10.811372 1.9356933,10.21187 1.6656923,9.5363668 c -0.0745,-0.1875 -0.1350005,-0.375001 -0.1875007,-0.562502 l 0.817503,-0.959503 1.1100041,0.254501 -0.016,-0.01 z m 8.1865303,-4.856518 c 0.0995,0.1365 0.192001,0.280001 0.281501,0.427001 0.370501,0.624003 0.627002,1.291005 0.769503,2.002008 0.1355,0.705002 0.1575,1.414505 0.06,2.126008 -0.0525,0.342001 -0.1275,0.675002 -0.232001,1.001003 l -1.627506,0.349502 -0.9750035,-1.178505 c 0.1130004,-0.433501 0.1275004,-0.885003 0.03,-1.354505 C 9.7702222,6.2178548 9.5227213,5.7423528 9.1557199,5.3498518 l 1.7545071,-0.210001 0.653002,-1.738006 0.013,0 z m -9.9075367,1.889507 1.0500039,-0.222001 0.6180023,0.754503 c -0.1955007,0.542002 -0.2400009,1.105004 -0.1425006,1.690006 0.0225,0.167001 0.0595,0.328001 0.1050004,0.484502 L 2.1891942,7.7463608 1.3941913,8.6868638 c -0.0965,-0.416501 -0.1415005,-0.842503 -0.1415005,-1.277004 0.0015,-0.725503 0.1350005,-1.425006 0.4035015,-2.099508 l 0.008,-0.0195 0.0045,10e-4 z m 1.9785073,-2.430009 0.8945033,0.345001 0.094,0.855003 c -0.4845018,0.356502 -0.8625032,0.811503 -1.1320042,1.365005 -0.0255,0.0495 -0.048,0.099 -0.0695,0.150001 L 2.8041965,4.8123498 1.7771927,5.0293508 c 0.255501,-0.552002 0.6005022,-1.045504 1.0315038,-1.480006 0.257501,-0.261001 0.535002,-0.489501 0.8335031,-0.688002 l 0.005,5e-4 z m 5.8910217,6.026022 c 0.0975,-0.162001 0.1770007,-0.326001 0.2400009,-0.495002 l 0.9690038,1.175004 1.627506,-0.350501 c -0.0935,0.256501 -0.203501,0.507502 -0.331001,0.753503 -0.335502,0.6455022 -0.776503,1.2045042 -1.324005,1.6800062 -0.556002,0.481002 -1.1845047,0.832503 -1.8855073,1.053504 -0.0135,0.0045 -0.028,0.008 -0.0415,0.013 l -1.2055045,-1.019504 0.3145012,-1.387505 0.0255,-0.0105 C 8.6167179,9.9998688 9.1557199,9.5353668 9.5392213,8.8823648 l 0,0.0055 z M 3.8922005,2.7068418 c 0.2140008,-0.1255 0.4370016,-0.236501 0.6695025,-0.333001 0.4905018,-0.210501 0.9975037,-0.329501 1.5180056,-0.382501 l 0.563502,0.637002 -0.2625009,0.659502 c -0.5100019,0.0975 -0.9895037,0.285001 -1.4395053,0.555002 l -0.0975,0.06 -0.089,-0.868504 -0.8625032,-0.330001 0,0.0025 z"/>
</svg>
