<svg role="img" focusable="false" aria-hidden="true" xmlns="http://www.w3.org/2000/svg" viewBox="0 0 14 14" height="1em" width="1em">
  <path d="m 7.2419461,6.0607089 0.122506,-0.466263 c 0.196433,-0.744543 0.229171,-0.744543 0.998532,-0.05703 0.376496,0.335837 1.096749,0.973715 1.6042,1.415688 0.5972189,0.532269 0.8918679,0.842759 0.8348389,0.900316 -0.0734,0.0734 -4.5337917,2.6597611 -4.5501611,2.6349431 -0.00845,0 0.02429,-0.229171 0.073398,-0.5074511 0.1394042,-0.826918 0.5333252,-0.736622 -2.2816811,-0.736622 l -2.6534245,-0.03327 0,0.23762 c 0,0.360127 0.4419734,0.6875141 1.7103367,1.2931821 l 1.1131182,0.52382 -0.1964326,0.163694 c -0.1145857,0.0903 -0.3110183,0.188512 -0.4335247,0.212802 -0.9737144,0.196432 0.7936512,0.368047 3.4127532,0.335308 l 2.12802,-0.02429 0.8918669,-0.441973 c 0.769361,-0.368576 0.990084,-0.531741 1.563013,-1.10467 0.736622,-0.7366221 1.186516,-1.4975351 1.35021,-2.3075551 0.05756,-0.26191 0.08185,-0.891868 0.06548,-1.456875 -0.02429,-0.940976 -0.04119,-1.022823 -0.302569,-1.563013 -0.671145,-1.358659 -1.964326,-2.095281 -4.1736649,-2.365112 -0.973715,-0.122506 -1.481166,-0.26191 -1.947957,-0.540189 l -0.2698313,-0.155246 0,0.220723 c 0.00845,0.122506 0.057557,0.311018 0.1225063,0.425604 0.171615,0.294649 0.155245,0.327388 -0.1394037,0.327388 -0.1473245,0 -0.4335247,0.08185 -0.638406,0.171614 -0.5644798,0.253462 -1.1046695,0.335837 -1.6612286,0.23762 -0.2619101,-0.04911 -0.531741,-0.114585 -0.5972185,-0.139403 -0.065478,-0.02482 -0.1145857,0 -0.1145857,0.04911 0,0.163694 0.3358364,0.81002 0.5238203,1.014902 l 0.188512,0.204353 -0.2782796,0.04119 c -0.1473244,0.02429 -0.5972185,0.229172 -0.9900837,0.458343 -0.8020999,0.449894 -1.0803794,0.54019 -1.464796,0.425604 -0.31893896,-0.08977 -0.31893896,-0.08185 -0.089768,0.327388 l 0.1800633,0.318939 z"/>
</svg>
