<svg role="img" focusable="false" aria-hidden="true" xmlns="http://www.w3.org/2000/svg" viewBox="0 0 14 14" height="1em" width="1em">
  <path d="m 4.9520184,12.936803 c -1.12784,-0.2039 -2.19411,-0.9875 -2.66789,-1.9606 -0.32895,-0.6757 -0.45541,-1.3901003 -0.37418,-2.1137003 0.15054,-1.3412 0.84482,-2.4395 1.92406,-3.0439 0.56899,-0.3186 1.38421,-0.4769 1.991,-0.3867 l 0.35091,0.052 9e-5,1.0725 9e-5,1.0725 -0.332,-0.014 c -0.79998,-0.033 -1.39595,0.3096 -1.70379,0.9784 -0.1473,0.32 -0.18461,0.8887 -0.081,1.2351 0.12773,0.4273003 0.50542,0.8132003 0.96145,0.9825003 0.15535,0.058 0.32344,0.08 0.61152,0.079 0.35862,-4e-4 0.42448,-0.013 0.67663,-0.1323 0.36505,-0.1726 0.63141,-0.4231 0.78797,-0.7411 0.10147,-0.2061003 0.13414,-0.3430003 0.16587,-0.6951003 0.0217,-0.2412 0.0401,-2.2122 0.0409,-4.38 l 10e-4,-3.94149998 0.68371,0 c 0.37605,0 0.8277,0.012 1.00368,0.027 l 0.31995,0.027 0,0.1584 c 0,0.3813 0.22299,1.1127 0.45156,1.4812 0.0571,0.092 0.2564996,0.3178 0.4431796,0.5018 0.36068,0.3555 0.66494,0.5352 1.13352,0.6692 0.138,0.04 0.28359,0.089 0.32353,0.109 0.0399,0.02 0.11522,0.038 0.16728,0.038 0.0521,4e-4 0.13701,0.012 0.18876,0.026 l 0.0941,0.025 0,0.9948 0,0.9948 -0.17773,-0.019 c -0.9611,-0.1037 -1.72925,-0.3601 -2.3423096,-0.782 -0.30468,-0.2096 -0.33102,-0.222 -0.30218,-0.1422 0.0104,0.029 0.003,1.1249 -0.0164,2.436 -0.0336,2.2728 -0.0396,2.3992 -0.12781,2.7173003 -0.33904,1.2222 -1.09994,2.1297 -2.10183,2.5068 -0.6126,0.2306 -1.39679,0.2932 -2.09405,0.1671 z"/>
</svg>
