<svg aria-hidden="true" xmlns="http://www.w3.org/2000/svg" viewBox="0 0 14 14" height="1em" width="1em">
  <path d="M1 8.33c0-.01.02-.04.045-.075a.327.327 0 0 0 .044-.081c0-.01.015-.037.034-.063.018-.026.057-.092.086-.146.079-.145.158-.288.285-.513.062-.11.113-.208.113-.219 0-.01.007-.019.016-.019.01 0 .02-.014.026-.03a.96.96 0 0 1 .067-.13l.12-.214a2.38 2.38 0 0 1 .076-.134c.007-.01.043-.074.08-.143.08-.15.096-.173.118-.16.009.01.126.022.261.037l.321.036c.074.01.1.042.057.068a.17.17 0 0 0-.036.05 1.26 1.26 0 0 1-.07.128c-.028.05-.06.107-.07.129-.01.02-.05.093-.09.158a1.35 1.35 0 0 0-.072.126s-.117.211-.26.462c-.142.25-.258.46-.258.464 0 .01-.026.051-.058.104a5.87 5.87 0 0 0-.078.13c-.019.032-.043.035-.388.04-.203 0-.37 0-.37-.01zm2.143-.896v-.907l.246.014c.135.01.272.018.304.023l.058.01v1.071l1.133-.01h1.133l.036-.039c.049-.052.05-.166.002-.21-.038-.034-.134-.05-.6-.09-.176-.016-.39-.036-.473-.046-.083-.01-.252-.025-.375-.034-.298-.022-.428-.067-.576-.197a.774.774 0 0 1-.204-.363l-.01-.065h.096c.053 0 .168.01.257.02.088.01.245.024.348.033.32.026.627.054.795.073.088.01.253.026.366.035.454.037.572.061.655.131.074.063.149.14.149.153 0 .01.012.025.027.037.03.025.133.228.133.263 0 .012.008.023.018.023.012 0 .018-.17.018-.475 0-.443.002-.474.031-.465.018.01.148.014.29.02.143.01.27.02.282.03.017.015.022.143.022.534v.516l.052.058.052.058.573.01c.314 0 .598 0 .63-.01.043-.011.071-.035.1-.086.038-.067.04-.088.04-.516V6.59l.297.012c.164.01.304.016.313.022.008.01.015.234.015.508v.5h1.14c1.082 0 1.142 0 1.17-.034.03-.034.04-.155.016-.194-.022-.034-.102-.057-.232-.068a41.35 41.35 0 0 1-.935-.09 4.095 4.095 0 0 0-.322-.026c-.172 0-.399-.062-.493-.133a.868.868 0 0 1-.238-.283c-.084-.177-.087-.173.157-.162.116 0 .287.016.38.025.093.01.27.02.393.026.123.01.296.018.384.028.088.01.297.026.464.036.576.034.619.046.802.222.04.04.106.135.144.212.06.12.071.159.078.29.016.298-.07.535-.256.709a.787.787 0 0 1-.246.135c-.035.014-.404.02-1.228.02H9.376l-.002-.317c-.001-.223-.006-.294-.017-.24-.039.196-.19.405-.346.477-.172.079-.18.08-.996.08-.532 0-.797-.01-.83-.02-.278-.11-.423-.27-.49-.539-.028-.114-.045-.119-.059-.017a.71.71 0 0 1-.277.446c-.187.137-.086.13-1.738.13H3.143v-.906zM2.125 6.34c0-.01.02-.053.044-.096.048-.086.109-.197.195-.357a.864.864 0 0 1 .117-.165l.061-.061h1.226v.285c0 .268.016.351.044.238.047-.185.233-.414.393-.485.088-.04.096-.04 1.188-.04l1.13.001c.03 0 .032.025.028.344l-.005.344h-2.21c-1.417 0-2.21 0-2.21-.013zm4.549 0a2.683 2.683 0 0 1-.012-.348v-.336h.634l-.005.348-.005.348h-.3c-.165 0-.305 0-.312-.012zm2.077-.336v-.348h.626v.296c0 .164.007.291.015.286.01 0 .025-.047.037-.093a.653.653 0 0 1 .21-.328c.187-.171.087-.16 1.437-.16.652-.001 1.195-.002 1.208-.001.017 0 .021.076.018.344l-.005.344H8.75v-.348zm3.943.264h.08c.023 0 .005.01-.04.01-.044 0-.062 0-.04-.01zm-.13-.07c-.024-.026-.044-.056-.043-.067 0-.01.017 0 .038.031.02.028.055.057.075.066.032.013.033.015.005.016-.017.001-.052-.02-.076-.046zm.286.027c.05-.03.08-.063.08-.084 0-.01.01-.02.02-.024.012 0 .027-.054.034-.113.013-.099.014-.1.016-.029.004.117-.062.238-.14.26-.042.012-.043.011-.01-.01zm-.201-.243.005-.156h.066c.083-.01.15.05.13.11a.298.298 0 0 0-.001.164c.006.025.003.044-.007.044s-.018-.015-.018-.034c0-.068-.02-.091-.083-.091-.057 0-.06 0-.06.062 0 .034-.008.062-.019.062-.012 0-.016-.057-.013-.157zm.154-.02a.052.052 0 0 0 .018-.049c-.005-.024-.025-.035-.073-.039-.064-.01-.067 0-.067.05 0 .047.006.054.049.053.027 0 .06-.01.073-.015zm-.317.095c0-.02.005-.025.01-.01.006.012.006.027 0 .033-.006.01-.01-.01-.01-.023zm0-.168c0-.025.005-.035.01-.022a.07.07 0 0 1 0 .045c-.005.012-.01 0-.01-.022zm.474-.031a.44.44 0 0 0-.04-.076c-.025-.036-.022-.034.017.01.026.028.047.063.047.076 0 .034-.012.03-.024-.01zm-.44-.028c0-.029.037-.084.058-.083.015 0 .016 0 .002.013a.22.22 0 0 0-.04.049c-.01.02-.02.029-.02.021zm.089-.12a.147.147 0 0 1 .07-.017c.057 0 .043.01-.034.024-.044.01-.055.01-.036-.01zm.187 0c-.049-.012-.05-.013-.009-.014a.26.26 0 0 1 .072.015c.03.02.015.02-.063 0z"/>
</svg>
