<svg role="img" focusable="false" aria-hidden="true" xmlns="http://www.w3.org/2000/svg" viewBox="0 0 14 14" height="1em" width="1em">
  <path d="M 11.237475,1 5.6307774,1 c -0.327514,0 -0.593974,0.26644 -0.593974,0.59395 l 0,0.96574 c 0,0.32751 0.26646,0.59395 0.593974,0.59395 l 5.6066976,0 c 0.327514,0 0.593951,-0.26644 0.593951,-0.59395 l 0,-0.96574 C 11.831426,1.26644 11.564989,1 11.237475,1 Z M 3.4572864,8.14832 c -0.488506,0.28485 -0.869012,0.71889 -1.089113,1.25033 -0.266132,0.64252 -0.266132,1.35019 0,1.9927 0.266132,0.64251 0.766544,1.14293 1.409033,1.40906 C 4.0984404,12.93346 4.4359854,13 4.7735314,13 c 0.220827,0 0.441631,-0.0287 0.657888,-0.0856 L 3.4572864,8.14836 Z M 11.203632,7.68918 c -1.4922605,-7e-5 -2.7062716,1.21396 -2.7062716,2.70622 0,0.40348 0.09117,0.80386 0.264022,1.16585 l 0.926762,-0.38388 c 0.1296091,-0.0527 0.254202,-0.11527 0.3697496,-0.18551 0.281132,-0.17013 0.524857,-0.39009 0.724661,-0.65421 l 0.0025,-0.003 c 0.0038,-0.005 0.0076,-0.01 0.01169,-0.0153 0.01591,-0.0214 0.03117,-0.0433 0.04601,-0.0646 l 0.0067,-0.009 c 0.0076,-0.0108 0.01523,-0.0217 0.02304,-0.0333 0.0074,-0.011 0.01451,-0.0223 0.02161,-0.0335 l 0.006,-0.01 c 0.0143,-0.0223 0.0285,-0.0446 0.04256,-0.068 0.0034,-0.006 0.0067,-0.0115 0.01003,-0.0173 l 0.0015,-0.003 C 11.121491,9.79544 11.23146,9.48613 11.28096,9.16204 11.30179,9.0276 11.3119,8.88843 11.31101,8.75064 l 0,-1.05904 c -0.03619,-0.001 -0.07209,-0.002 -0.107366,-0.002 z m -0.605201,-3.82293 -4.3286326,0 -0.712591,0 0,3.38605 -1.450799,0.60096 1.9926961,4.81076 2.003148,-0.82973 C 7.8942224,11.38573 7.7848164,10.89227 7.7848164,10.39542 c 0,-1.88516 1.5336731,-3.41886 3.4188616,-3.41886 0.03544,0 0.07132,8e-4 0.107391,0.002 l 0,-3.11228 -0.712638,0 z"/>
</svg>
