<svg role="img" focusable="false" aria-hidden="true" xmlns="http://www.w3.org/2000/svg" viewBox="0 0 14 14" height="1em" width="1em">
  <path d="M 10.463959,1 3.5360411,1 C 2.1408168,1 1,2.14107 1,3.53393 l 0,6.92946 C 1,11.85893 2.1408168,13 3.5360411,13 l 6.9279179,0 C 11.859183,13 13,11.85893 13,10.46607 L 13,3.53393 C 13,2.14107 11.859183,1 10.463959,1 Z M 9.1249721,9.475 C 8.3778175,10.76607 6.7174738,11.21339 5.4240125,10.47143 4.8107565,11.5375 3.953805,10.70179 4.2912296,10.11786 L 4.7116715,9.38929 C 4.8696719,9.11339 5.2258424,9.01696 5.5016737,9.17768 5.9997768,9.46696 5.4989937,9.17468 5.9970989,9.46429 6.7362196,9.89018 7.6949342,9.63304 8.12341,8.89375 8.5492078,8.15446 8.2921223,7.19554 7.5530016,6.76696 7.0763222,6.49375 7.5369336,6.75626 7.0548985,6.48304 6.3961169,6.10268 6.9638475,5.09286 7.6333408,5.47857 c 0.4981031,0.28929 -0.00268,-0.003 0.4954251,0.28661 1.2961393,0.75 1.7433609,2.41875 0.9962062,3.70982 z M 9.7087704,3.88214 C 9.2535148,4.67232 9.2722607,4.65357 9.1999554,4.72589 9.0258871,4.9 8.7634457,4.95893 8.4902923,4.82229 7.9921892,4.53301 8.4929723,4.82529 7.9948672,4.53568 7.2557465,4.10979 6.2970319,4.36693 5.8685561,5.10622 5.4400803,5.84551 5.6998438,6.80443 6.4389645,7.23301 c 0,0 0.4954251,0.28392 0.4981031,0.28392 C 7.5958491,7.89729 7.0281186,8.90711 6.3586253,8.5214 5.8605222,8.23211 6.3613053,8.5244 5.8632002,8.23479 4.5724169,7.49015 4.1251953,5.8214 4.8696719,4.52765 5.6168266,3.23658 7.2771703,2.78926 8.5706316,3.53122 l 0.1285427,-0.225 C 9.0821245,2.63926 10.091721,3.21782 9.7087704,3.88211 Z"/>
</svg>
