<svg role="img" focusable="false" aria-hidden="true" xmlns="http://www.w3.org/2000/svg" viewBox="0 0 14 14" height="1em" width="1em">
  <path d="m 6.5727505,3.9769498 c 0.095816,-0.0748 0.2407084,-0.0701 0.3225025,0.0117 l 3.972856,3.90976 -0.0631,-0.0631 1.03528,0.96517 c 0.08647,0.0818 0.07712,0.21033 -0.01636,0.28511 L 7.1967199,12.91589 c -0.2313605,0.17761 -0.4042966,0.0187 -0.4042966,0.0187 L 1.9151582,8.3517898 c -0.081794,-0.0818 -0.070109,-0.21033 0.028044,-0.28511 l 1.0703369,-0.81561 c 0.098153,-0.0748 0.2430453,-0.0701 0.3248394,0.0117 L 6.8882423,10.70981 c 0.086468,0.0818 0.2336974,0.0865 0.3318503,0.009 L 9.3981525,8.9894498 c 0.095816,-0.0748 0.1051639,-0.20331 0.021033,-0.28511 l -1.9630583,-1.89996 c -0.084131,-0.0818 -0.2313605,-0.0865 -0.3271764,-0.0117 l -0.00234,0.002 c -0.095816,0.0748 -0.2430453,0.0701 -0.3271764,-0.0117 L 5.207955,5.2802998 c -0.081794,-0.0818 -0.072446,-0.21032 0.025707,-0.28511 l 1.3390862,-1.01892 m 0.3458722,6.01304 c 0.086468,0.0818 0.2360344,0.0865 0.3341873,0.009 l 1.1731611,-0.90675 -0.00701,-0.007 0.179947,-0.14022 c 0.098153,-0.0748 0.1075008,-0.20332 0.021033,-0.28511 l -1.3344111,-1.27029 c -0.084131,-0.0818 -0.2336974,-0.0865 -0.3318504,-0.0117 l -0.00234,0.002 c -0.098153,0.0748 -0.2453823,0.0724 -0.3318504,-0.009 l -2.2107775,-2.14534 c -0.084131,-0.0818 -0.072446,-0.20799 0.025707,-0.28511 l 2.1546902,-1.67094 c 0.095816,-0.0748 0.2407083,-0.0701 0.3248394,0.0117 l 3.748507,3.71579 c 0.08647,0.0818 0.233697,0.0865 0.329513,0.0117 l 1.070334,-0.83664 c 0.09582,-0.0748 0.102827,-0.20332 0.01636,-0.28511 l -4.9193307,-4.82819 c -0.035055,-0.028 -0.186958,-0.12852998 -0.3809268,0.0257 l -4.8328627,3.78823 c -0.098153,0.0748 -0.1121747,0.20332 -0.028044,0.28511 l 0.9885402,0.97452"/>
</svg>
