<svg aria-hidden="true" xmlns="http://www.w3.org/2000/svg" viewBox="0 0 14 14" height="1em" width="1em">
  <path d="M13 11.377A1.623 1.623 0 0 1 11.377 13a1.623 1.623 0 0 1-1.624-1.623 1.623 1.623 0 0 1 1.624-1.624A1.623 1.623 0 0 1 13 11.377ZM13 7a1.623 1.623 0 0 1-1.623 1.623A1.623 1.623 0 0 1 9.753 7a1.623 1.623 0 0 1 1.624-1.623A1.623 1.623 0 0 1 13 7ZM8.623 7A1.623 1.623 0 0 1 7 8.623 1.623 1.623 0 0 1 5.377 7 1.623 1.623 0 0 1 7 5.377 1.623 1.623 0 0 1 8.623 7ZM13 2.623a1.623 1.623 0 0 1-1.623 1.624 1.623 1.623 0 0 1-1.624-1.624A1.623 1.623 0 0 1 11.377 1 1.623 1.623 0 0 1 13 2.623Zm-4.377 0A1.623 1.623 0 0 1 7 4.247a1.623 1.623 0 0 1-1.623-1.624A1.623 1.623 0 0 1 7 1a1.623 1.623 0 0 1 1.623 1.623Zm-4.376 0a1.623 1.623 0 0 1-1.624 1.624A1.623 1.623 0 0 1 1 2.623 1.623 1.623 0 0 1 2.623 1a1.623 1.623 0 0 1 1.624 1.623Z"/>
</svg>
