<svg aria-hidden="true" xmlns="http://www.w3.org/2000/svg" viewBox="0 0 14 14" height="1em" width="1em">
  <path d="M6.846 5.956c0 .743-.65 1.352-1.447 1.352-.796 0-1.446-.61-1.446-1.352 0-.75.65-1.353 1.446-1.353.797 0 1.447.603 1.447 1.353zm5.96 1.171c-.429.53-1.246 1.18-2.491 1.688 1.32 4.494-3.221 5.21-3.148 2.906 0 .04-.006-1.238-.006-2.19-.1-.02-.201-.046-.322-.073 0 .958-.006 2.304-.006 2.263.073 2.304-4.467 1.587-3.148-2.906-1.245-.509-2.062-1.159-2.491-1.688-.214-.321.02-.663.375-.415.047.034.1.067.147.1V2.166C1.716 1.522 2.198 1 2.794 1h8.418c.596 0 1.078.522 1.078 1.165v4.648l.141-.1c.355-.249.59.093.375.414zm-1.092-4.433c0-.77-.247-1.071-.957-1.071H3.31c-.743 0-.95.254-.95 1.071v4.507c1.586.83 2.946.683 3.69.656.314-.007.515.054.635.181.04.04.235.222.476.402.027-.368.234-.603.79-.583.757.034 2.15.181 3.763-.696V2.694zM8.761 4.603c-.797 0-1.446.603-1.446 1.353 0 .743.65 1.352 1.446 1.352.804 0 1.447-.61 1.447-1.352 0-.75-.643-1.353-1.447-1.353z"/>
</svg>
