<svg aria-hidden="true" xmlns="http://www.w3.org/2000/svg" viewBox="0 0 14 14" height="1em" width="1em">
  <path d="M8.419 11.53c0-1.062.786-1.97 1.771-2.154-.046-.986-.461-1.664-1.109-2.171-.652-.508-1.56-.893-2.544-1.279-1.065-.416-1.86-.785-1.86-1.586 0-.676.585-1.185 1.568-1.185.6 0 .987.093 1.185.2a.3.3 0 0 1-.044.154.544.544 0 0 0-.045.247c0 .677.491 1.278 1.369 1.278.8 0 1.277-.601 1.277-1.479 0-.739-.416-1.385-1.094-1.832C8.204 1.278 7.243 1 6.155 1c-1.126.077-2.094.492-2.77 1.108A3.209 3.209 0 0 0 2.306 4.54c0 1.093.385 1.802 1.016 2.341.63.539 1.538.923 2.632 1.308 1.186.383 1.879.781 1.879 1.569 0 .795-.693 1.276-1.786 1.276-.571 0-1.063-.097-1.479-.383.11-.202.11-.406.11-.6 0-.572-.504-1.284-1.383-1.284-.78 0-1.365.6-1.365 1.478 0 .736.465 1.434 1.223 1.923.743.509 1.785.832 2.912.832.99 0 1.884-.188 2.574-.682a1.814 1.814 0 0 1-.196-.804l-.025.016Zm3.65 0c0 .786-.638 1.386-1.389 1.386-.75 0-1.373-.6-1.373-1.385 0-.75.615-1.367 1.365-1.367.751 0 1.382.617 1.382 1.375l.015-.01z"/>
</svg>
