<svg aria-hidden="true" xmlns="http://www.w3.org/2000/svg" viewBox="0 0 14 14" height="1em" width="1em">
  <path d="M5.639 3.808a.626.626 0 1 0 0 1.253.626.626 0 0 0 0-1.253zm0 .575c-.201 0-.365-.101-.365-.226s.164-.227.365-.227c.201 0 .364.102.364.227s-.163.226-.364.226zm7.132 2.495c-.617-.593-3.704-.964-4.677-1.071a2.89 2.89 0 0 0 .12-.346 3.86 3.86 0 0 1 .425-.157 4.4 4.4 0 0 0 .151.354c1.959.055 2.06-1.455 2.139-1.868.078-.405.074-.796.746-1.51-1.001-.292-2.44.452-2.922 1.56a2.99 2.99 0 0 0-.543-.15c-.129-.519-.799-1.965-2.557-1.965-1.139 0-2.287.47-3.15 1.29a4.71 4.71 0 0 0-1.087 1.56A5.263 5.263 0 0 0 1 6.671c0 2.614 1.784 4.904 2.792 4.904.44 0 .82-.33.908-.625.075.203.303.833.378.993.112.237.625.442.85.196.288.16.819.257 1.107-.171.556.117 1.049-.214 1.06-.61.272-.015.406-.398.347-.704-.044-.224-.514-1.031-.697-1.31.362.296 1.281.38 1.392 0 .585.46 1.496.22 1.568-.154.71.184 1.524-.221 1.39-.712 1.142-.079.996-1.292.676-1.6zM9.8 4.866a2.878 2.878 0 0 0-.949-.193c-.379 0-.61.215-.966.215-.075 0-.253 0-.397-.051.094.099.212.152.439.152.135 0 .405-.069.622-.134.003.046.008.091.015.137-.408.097-.836.357-.96.424a1.41 1.41 0 0 1 .18-1.45c.98.003 1.773.676 2.015.9zm.424-.046-.15-.14a4.378 4.378 0 0 0-.48-.39c.246-.488.555-1.02.945-1.35-.43.173-.853.69-1.104 1.243a3.818 3.818 0 0 0-.388-.217c.35-.746 1.161-1.37 2.057-1.418-.6.544-.375 1.629-.88 2.272zm-1.231.509c-.067-.144-.133-.381-.125-.521.11-.003.325.039.359.047a1.89 1.89 0 0 0-.02.228c.02-.036.08-.162.103-.212.214.041.496.11.66.186-.193.126-.522.262-.978.271zM7.656 3.647c-.782.793-.473 1.796-.188 2.249C7.062 6.57 6.266 7.03 5.34 7.24c1.039 0 1.65-.268 2.006-.53a1.74 1.74 0 0 0 .412-.423c1.54.1 3.98.596 4.218.756a.527.527 0 0 1 .208.344c-1.157-.162-3.244-.333-3.79-.361.388.055 3.217.59 3.707.716-.15.243-.49.415-1.002.296.277.377-.26.83-1.01.58.165.37-.5.704-1.259.318.01.37-.94.413-1.315.004.007.048.052.142.07.183a1.937 1.937 0 0 1-1.914 1.753A4.179 4.179 0 0 1 1.514 6.67c0-2.538 1.876-4.432 4.14-4.432 1.296 0 1.882 1.02 2.002 1.408z"/>
</svg>
