<svg aria-hidden="true" xmlns="http://www.w3.org/2000/svg" viewBox="0 0 14 14" height="1em" width="1em">
  <path d="M7.013 4.233c.04-.471.132-1.412 1.334-1.412h2.641c.555 0 .86-.208.86-.578v-.33a.58.58 0 0 1 .576-.592.58.58 0 0 1 .576.592v.978c0 1.15-.576 1.66-1.79 1.66H8.52c-.807 0-.884.395-.884.727 0 .034-.003.067-.006.099a.629.629 0 0 1-1.254 0 1.164 1.164 0 0 1-.004-.1c0-.329-.08-.725-.884-.725H2.789C1.576 4.552 1 4.04 1 2.892v-.979a.58.58 0 0 1 .579-.592c.326 0 .575.266.575.592v.33c0 .37.306.578.86.578h2.641c1.2 0 1.294.94 1.334 1.412h.024zM7 12.679a.765.765 0 0 0 .688-.437c.03-.048 2.601-4.543 2.63-4.591.32-.525-.085-1.187-.728-1.187-.372 0-.624.172-.798.544L7 10.161 5.208 7.008c-.171-.372-.426-.544-.798-.544-.643 0-1.048.66-.729 1.187.03.05 2.601 4.543 2.63 4.591.116.25.381.437.689.437Z"/>
</svg>
