<svg role="img" focusable="false" aria-hidden="true" xmlns="http://www.w3.org/2000/svg" viewBox="0 0 14 14" height="1em" width="1em">
  <path d="m 6.6754994,12.612711 c -0.2515,-0.028 -0.5331,-0.1034 -0.7217,-0.1923 -0.081,-0.038 -4.01,-2.1399 -4.4755,-2.3941 -0.2411,-0.1316001 -0.3747,-0.2522001 -0.4461,-0.4025001 -0.026,-0.055 -0.032,-0.085 -0.032,-0.1654 2e-4,-0.084 0.01,-0.1085 0.036,-0.1689 0.059,-0.1182 0.1903,-0.2351 0.3562,-0.3181 0.084,-0.042 2.4458,-0.9937 2.4517,-0.9879 0,0 -0.056,0.1727 -0.13,0.3782 l -0.1346,0.3735 0.013,0.08 c 0.029,0.1717 0.1073,0.306 0.2747,0.472 0.6563,0.6507 2.3475,1.0065001 3.9608,0.8332001 0.787,-0.084 1.4755,-0.2848001 1.9503,-0.5673001 0.3763006,-0.224 0.5903006,-0.4801 0.6273006,-0.7507 0.01,-0.07 0.01,-0.079 -0.1231,-0.4417 -0.073,-0.2037 -0.1305,-0.3728 -0.1275,-0.3758 0.01,-0.01 2.3625,0.9416 2.4526,0.9868 0.1632,0.082 0.303,0.2107 0.3592,0.3307 0.026,0.057 0.033,0.088 0.033,0.1628 10e-5,0.08 -0.01,0.1033 -0.041,0.1745 -0.049,0.099 -0.1569,0.2129 -0.2781,0.2927 -0.075,0.05 -4.3396006,2.3422001 -4.5966006,2.4713001 -0.1986,0.1 -0.4949,0.1797 -0.781,0.2108 -0.1399,0.015 -0.4888,0.014 -0.6287,0 z m -0.1042,-4.3260001 c -1.2744,-0.089 -2.258,-0.54 -2.3778,-1.0899 l -0.015,-0.067 0.3386,-0.95 c 0.1863,-0.5225 0.3446,-0.9649 0.3518,-0.9831 0.013,-0.033 0.013,-0.033 0.05,0.04 0.075,0.1493 0.278,0.3166 0.5279,0.4344 0.2845,0.134 0.6498,0.228 1.0817,0.2783 0.2052,0.024 0.7795,0.02 0.999,-0.01 0.7812,-0.095 1.3764,-0.3643 1.5537,-0.7036 0.019,-0.035 0.037,-0.064 0.04,-0.064 0,1e-4 0.1629,0.4397 0.3545,0.9769 l 0.3483,0.9768 -0.013,0.064 c -0.1321,0.6296 -1.3837,1.1164 -2.8446,1.1063 -0.1394,-10e-4 -0.3168,-0.01 -0.3944,-0.012 z m 0.1644,-4.1906 c -0.4392,-0.04 -0.8137,-0.1526 -1.0596,-0.3195 -0.067,-0.046 -0.2202,-0.1986 -0.2202,-0.2203 0,-0.025 0.6415,-1.811 0.6636,-1.8471 0.013,-0.021 0.054,-0.067 0.092,-0.1012 0.3406,-0.3112 1.2375,-0.3112 1.5781,0 0.037,0.034 0.079,0.08 0.092,0.1012 0.022,0.036 0.6636,1.8218 0.6636,1.8471 0,0.022 -0.1529,0.1746 -0.2202,0.2203 -0.219,0.1487 -0.5545,0.259 -0.932,0.3066 -0.1416,0.018 -0.5204,0.025 -0.6569,0.013 z"/>
</svg>
