<svg aria-hidden="true" xmlns="http://www.w3.org/2000/svg" viewBox="0 0 14 14" height="1em" width="1em">
  <path d="M6.282 12.627c-.873-.171-1.137-.246-1.533-.431-.251-.118-.652-.413-.89-.655-.613-.623-.735-1.084-.846-3.213-.048-.912-.11-1.742-.139-1.845-.073-.262.21-.25.535.023.316.266.342.396.417 2.095.057 1.294.08 1.438.29 1.868.398.813 1.101 1.256 2.333 1.47.787.138 1.809.067 2.32-.161 1.296-.578 1.737-2.064.856-2.887-.465-.434-1.167-.553-1.623-.274-.22.134-.27.216-.27.45 0 .156.059.343.13.415.272.272.782.076.782-.3 0-.142.02-.153.124-.067.16.132.164.761.008 1.06a2.28 2.28 0 0 1-.379.473c-.242.23-.307.249-.871.249-.724 0-.973-.14-1.271-.71-.168-.32-.186-.443-.143-.959.042-.494.029-.6-.081-.641-.172-.066-.593.114-.93.397-.303.257-.548.254-.585-.01-.035-.24.523-.705 1.114-.932 1.37-.524 3.358-.38 4.315.313.477.346.771.97.771 1.638 0 1.264-.779 2.206-2.11 2.553-.453.118-1.876.165-2.324.077zm3.533-5.2c-.11-.13-.108-.142.372-2.188.319-1.358.463-1.653.762-1.558.264.084.237.398-.15 1.727-.378 1.297-.669 2.065-.798 2.108-.049.016-.133-.024-.186-.088zM5.06 7.15c-.159-.176-.597-1.671-.977-3.328-.315-1.375-.294-1.61.142-1.653.204-.02.293.02.397.178.194.296.802 3.449.817 4.239.01.539-.011.665-.117.686-.07.014-.19-.04-.262-.122zm3.272-.079c-.159-.064-.124-1.246.093-3.094.104-.89.234-1.7.29-1.803.19-.356.674-.144.674.296 0 .261-.363 2.733-.55 3.745-.155.844-.23.969-.507.856zm-1.625-.174c-.083-.134-.223-1.12-.384-2.69-.191-1.876-.21-2.641-.067-2.784.17-.17.547-.12.658.087.195.364.425 4.913.27 5.32-.052.133-.405.183-.477.067zm-.426 5.807c-.559-.077-1.271-.301-1.722-.54a2.845 2.845 0 0 1-1.288-1.38c-.191-.418-.22-.617-.282-1.917a35.402 35.402 0 0 0-.14-1.99c-.04-.296-.041-.57-.004-.61.106-.117.49.018.7.246.244.263.283.5.362 2.191.06 1.292.077 1.394.303 1.808.548 1.007 1.731 1.487 3.465 1.405 1.142-.054 1.818-.455 2.205-1.31.209-.46.213-.773.016-1.201-.18-.395-.366-.571-.777-.743-.803-.336-1.629.114-1.255.684.089.136.19.186.34.167.212-.025.293-.114.398-.44.051-.16.06-.157.222.041.132.163.16.29.13.599a1.426 1.426 0 0 1-1.423 1.309c-1.015 0-1.638-.782-1.5-1.882.044-.357.03-.45-.075-.49-.136-.052-.774.283-.956.502-.279.336-.71-.041-.468-.41.506-.771 2.16-1.24 3.666-1.04 1.673.223 2.48.885 2.58 2.112.11 1.384-.794 2.512-2.265 2.824-.533.113-1.652.145-2.232.065zm3.49-5.207a.366.366 0 0 1-.093-.314c.734-3.261.801-3.484 1.077-3.59.21-.081.458.126.458.383 0 .32-.703 2.736-.936 3.219-.208.43-.314.494-.505.302zm-4.798-.262c-.18-.316-.987-3.344-1.183-4.44-.114-.634.484-.995.859-.519.207.264.867 3.566.878 4.394l.008.58-.262.026c-.144.014-.279 0-.3-.041zm3.228-.164c-.108-.108-.052-1.258.145-2.985.11-.964.24-1.828.29-1.92.191-.357.702-.285.802.113.08.314-.54 4.36-.718 4.692-.08.15-.406.213-.519.1zM6.72 6.939c-.165-.13-.266-.736-.477-2.88-.202-2.047-.207-2.395-.04-2.635a.452.452 0 0 1 .75.024c.247.377.487 5.047.279 5.435-.098.183-.32.208-.512.057zm-.38 5.817c-1.203-.156-2.059-.539-2.632-1.176-.572-.637-.707-1.108-.789-2.755a74.943 74.943 0 0 0-.122-2.01c-.061-.701.014-.785.498-.555.48.227.556.476.641 2.066.041.776.128 1.597.193 1.825.311 1.095 1.461 1.7 3.233 1.7.984 0 1.445-.13 1.928-.544.472-.405.711-.931.66-1.458-.07-.725-.533-1.16-1.296-1.215-.415-.03-.515-.01-.664.14-.224.224-.223.464.004.622.22.154.484.042.484-.204 0-.254.25-.302.428-.082.47.581-.234 1.822-1.109 1.954-.828.124-1.547-.32-1.772-1.095-.104-.356-.114-.53-.046-.795.047-.186.067-.37.044-.406-.085-.14-.362-.058-.709.205-.52.396-.546.407-.73.309-.274-.147-.218-.52.125-.821.725-.637 1.584-.87 3.023-.818.812.029 1.14.077 1.516.223 1.103.427 1.592 1.09 1.589 2.156-.006 2-1.793 3.085-4.498 2.734zm3.354-5.189c-.03-.03-.055-.162-.055-.293 0-.24.612-2.99.742-3.33.103-.27.296-.398.557-.368.435.05.435.316-.004 1.826-.502 1.73-.72 2.22-.987 2.22-.109 0-.223-.024-.253-.054zm-4.731-.322c-.188-.188-.595-1.588-1.046-3.601-.23-1.029-.23-1.32.003-1.51.245-.197.442-.187.705.04.194.166.253.366.539 1.802.443 2.225.555 3.103.417 3.27-.138.165-.453.165-.618-.001zm3.187-.197c-.129-.24-.106-.77.12-2.804.233-2.098.31-2.34.739-2.34.557 0 .586.228.287 2.262-.29 1.98-.446 2.77-.577 2.927-.139.167-.47.141-.57-.045zm-1.482-.075c-.095-.095-.188-.384-.248-.767-.172-1.1-.443-4.242-.39-4.526.064-.336.37-.563.664-.49.397.1.45.31.59 2.336.156 2.252.126 3.326-.097 3.49-.203.148-.338.137-.519-.043zm-.914 5.744c-1.083-.235-1.97-.793-2.385-1.501-.42-.717-.484-1.187-.639-4.754-.012-.267.008-.292.245-.315.3-.03.742.293.876.64.046.117.112.89.148 1.716.061 1.438.074 1.52.303 1.945.492.912 1.482 1.351 3.057 1.357.781 0 .971-.024 1.326-.187.777-.358 1.202-.945 1.202-1.659 0-.52-.247-.903-.746-1.16-.586-.302-1.243-.157-1.243.274 0 .429.503.472.566.049.04-.27.262-.317.442-.095.183.227.203.801.04 1.19-.133.318-.635.78-.928.854-.115.029-.428.037-.695.017-.929-.067-1.474-.764-1.393-1.78.056-.692-.012-.698-.88-.08-.475.337-.922-.128-.574-.597.25-.338.751-.647 1.391-.858.824-.272 2.386-.276 3.24-.01.774.243 1.286.642 1.57 1.22.2.408.219.527.189 1.142-.065 1.339-.819 2.234-2.177 2.588-.616.16-2.198.16-2.935 0zm3.924-5.15c-.17-.17-.15-.316.3-2.224.412-1.742.532-1.955 1.032-1.83.4.1.405.363.037 1.678-.355 1.268-.689 2.222-.84 2.404-.125.151-.363.138-.53-.028zM4.96 7.262c-.112-.113-.287-.497-.414-.915-.29-.953-.875-3.474-.875-3.774a.589.589 0 0 1 1.042-.397c.203.236.238.374.65 2.573.42 2.24.427 2.329.22 2.535-.223.224-.383.218-.623-.022zm3.249-.06c-.122-.072-.145-.21-.145-.867 0-.867.29-3.658.425-4.08.22-.695 1.067-.521 1.067.218 0 .345-.446 3.429-.587 4.063-.15.674-.388.882-.76.665zm-1.521-.14c-.247-.165-.324-.588-.573-3.128-.236-2.41-.181-2.777.417-2.777.353 0 .595.22.654.596.19 1.203.282 4.925.129 5.212-.087.162-.446.217-.627.097zm-.282 5.806c-1.603-.183-2.727-.874-3.257-2-.23-.488-.251-.618-.314-1.906a91.844 91.844 0 0 0-.122-2.106c-.046-.614-.035-.732.075-.774.19-.073.665.107.877.333.257.273.321.634.384 2.16.043 1.04.09 1.407.216 1.7.435 1.01 1.458 1.488 3.19 1.49.79 0 .875-.015 1.365-.269.887-.458 1.26-1.302.918-2.074-.125-.282-.254-.424-.503-.551-.436-.222-1.011-.228-1.207-.011-.193.213-.103.503.155.503.147 0 .203-.059.241-.249.07-.347.412-.35.59 0 .364.702-.144 1.714-1.001 1.997-.396.13-1.044.05-1.406-.173-.157-.097-.388-.35-.513-.563-.194-.33-.226-.472-.218-.987.004-.33-.018-.601-.05-.601s-.185.092-.34.204c-.548.396-.727.47-.902.377-.648-.347-.065-1.16 1.145-1.597.335-.121.75-.181 1.446-.209 1.53-.061 2.37.16 3.075.81.47.433.674.938.67 1.658-.01 2.032-1.79 3.153-4.514 2.842zm3.25-5.262c-.164-.163-.118-.568.232-2.058.387-1.649.504-1.965.762-2.06.337-.126.73.128.73.471 0 .429-.79 3.033-1.067 3.518-.14.246-.475.311-.658.129zM4.893 7.31c-.219-.246-.742-2.096-1.186-4.19-.104-.488-.104-.6-.001-.846.193-.461.815-.502 1.096-.073.15.227.813 3.419.905 4.347.068.695-.028.907-.411.907-.157 0-.33-.062-.403-.145zm3.224-.172c-.095-.105-.137-.302-.137-.642 0-.688.401-4.167.503-4.356a.984.984 0 0 1 .283-.286c.171-.113.233-.116.431-.02.416.2.468.443.317 1.498-.29 2.024-.558 3.504-.672 3.725-.144.278-.51.318-.725.081zm-1.4-.02a.726.726 0 0 1-.23-.244c-.114-.213-.285-1.506-.464-3.5-.137-1.528-.137-1.656-.009-1.925.227-.477.787-.485 1.095-.016.157.24.402 3.433.359 4.683-.024.697-.047.79-.223.932-.22.178-.32.191-.528.07zm-.964 5.68c-1.136-.246-2.147-.92-2.537-1.692-.32-.63-.38-.975-.471-2.697-.138-2.592-.16-2.317.179-2.344.391-.03.805.238.968.626.09.215.147.75.188 1.772.056 1.369.075 1.494.29 1.933.437.895 1.395 1.32 2.988 1.325.78 0 .972-.024 1.325-.187.74-.34 1.12-.868 1.12-1.551 0-.475-.178-.829-.522-1.039-.376-.23-.55-.213-.32.03.133.143.18.295.18.596 0 .934-.674 1.616-1.594 1.616-.602 0-.946-.14-1.28-.52-.339-.385-.47-.804-.424-1.354.045-.541-.023-.56-.551-.157-.44.336-.729.37-.913.106-.194-.277-.159-.445.168-.807 1.127-1.247 4.368-1.338 5.709-.16.651.57.902 1.713.583 2.65-.292.854-1.156 1.6-2.151 1.856-.617.159-2.202.158-2.935 0zm2.629-3.685a.75.75 0 0 1 .113-.31c.125-.152-.103-.135-.33.025-.279.194-.234.57.06.515.07-.014.14-.117.157-.23zm1.247-1.5c-.145-.145-.166-.236-.122-.519.12-.769.729-3.165.86-3.387.164-.278.445-.371.73-.242.393.18.398.418.032 1.725-.688 2.455-.986 2.937-1.5 2.422zm-4.695-.202c-.123-.086-.262-.387-.43-.932-.322-1.046-.915-3.552-.916-3.875-.003-.747.895-1.006 1.273-.366.138.233.667 2.738.879 4.157.096.646.046.918-.197 1.08-.15.1-.415.072-.609-.064zm3.23-.167c-.168-.118-.184-.197-.184-.91 0-.866.29-3.658.424-4.08.253-.793 1.234-.61 1.234.23 0 .532-.576 4.137-.713 4.465-.186.446-.418.535-.76.295zM6.538 7.05c-.09-.1-.187-.457-.262-.974-.205-1.4-.427-4.115-.362-4.407.099-.435.304-.608.687-.58.559.043.645.249.769 1.826.155 1.985.148 3.874-.015 4.108-.165.235-.615.25-.817.027zm-.65 5.828c-1.577-.285-2.672-1.175-3.007-2.445-.061-.233-.136-1.045-.166-1.804-.03-.76-.086-1.6-.126-1.868-.1-.665-.007-.832.43-.773.76.102 1.023.554 1.113 1.908l.06.896.147-.226c.47-.717 2.211-1.293 3.508-1.16l.488.05-.23-.181-.23-.181.05-1.083c.077-1.674.36-3.778.543-4.026.327-.447.92-.383 1.164.125.108.223.096.414-.11 1.865-.25 1.752-.486 2.964-.628 3.23-.05.092-.15.168-.225.168-.243 0-.024.12.465.253l.48.131-.121-.213c-.111-.194-.089-.352.264-1.87.211-.912.452-1.788.535-1.947.316-.61 1.097-.48 1.154.192.028.317-.416 2.011-.785 2.998-.267.716-.487.98-.773.927-.192-.035-.195-.031-.042.056.091.052.341.27.556.484.49.49.687 1.08.624 1.868-.053.655-.435 1.471-.867 1.85-.39.343-1.182.714-1.755.823-.606.115-1.739.094-2.516-.046zm2.583-1.325c1.189-.353 1.717-1.797.907-2.478-.291-.245-.38-.23-.234.044.058.107.083.371.062.631-.072.86-.8 1.521-1.673 1.517a1.755 1.755 0 0 1-1.767-1.966c.021-.194.004-.353-.038-.353-.043 0-.249.13-.458.29-.45.344-.625.36-.899.087l-.203-.203v.273a2.09 2.09 0 0 0 1.077 1.825c.804.437 2.342.597 3.226.334zm-.134-2.502c.024-.125.03-.242.012-.26-.068-.07-.285.185-.285.333 0 .242.224.183.273-.072zM5.098 7.556a.56.56 0 0 1-.32-.23c-.197-.3-.543-1.468-.94-3.174-.308-1.325-.342-1.562-.261-1.83.212-.71 1.15-.67 1.43.06.143.373.735 3.496.79 4.168.07.871-.086 1.098-.699 1.006zm1.44-.457c-.238-.238-.32-.684-.544-2.958-.248-2.513-.223-2.857.218-3.058.555-.253 1.052.09 1.135.783.114.949.237 3.457.208 4.251-.027.782-.047.871-.226 1.016-.262.212-.558.2-.791-.034z"/>
</svg>
