<svg role="img" focusable="false" aria-hidden="true" xmlns="http://www.w3.org/2000/svg" viewBox="0 0 14 14" height="1em" width="1em">
  <path d="m 9.0524827,12.912277 c -0.05733,-0.03 -0.227372,-0.179 -0.377868,-0.3318 -0.27692,-0.2813 -0.549552,-0.6425 -0.903504,-1.1969 -0.10692,-0.1674 -0.20421,-0.3144 -0.216201,-0.3266 -0.01199,-0.012 -0.102111,0.024 -0.200269,0.082 -0.231196,0.1342 -0.435384,0.2263 -0.725725,0.3271 -0.209503,0.073 -0.26653,0.082 -0.534227,0.082 -0.271114,4e-4 -0.31087,-0.01 -0.416958,-0.065 -0.166281,-0.092 -0.247569,-0.2601 -0.247569,-0.5116 0,-0.1667 0.01123,-0.2082 0.107168,-0.3959 l 0.107168,-0.2098 -0.224437,0.1125 c -0.830136,0.4159 -1.493413,0.4905 -2.031018,0.2284 -0.231345,-0.1128 -0.343532,-0.378 -0.343122,-0.8111998 5.76e-4,-0.6085 0.330553,-1.4916 0.925537,-2.4769 0.202849,-0.336 0.224833,-0.3845 0.2006,-0.443 -0.331659,-0.8012 -0.506853,-1.4025 -0.5677,-1.9486 l -0.01815,-0.1629 -0.524346,3e-4 c -0.702378,3e-4 -1.358,0.059 -1.892489,0.1692 l -0.16938898,0.035 0.06515,-0.054 c 0.169361,-0.1401 0.618418,-0.278 1.120574,-0.3441 0.36662,-0.048 0.936754,-0.093 1.184417,-0.093 l 0.183725,0 0.0035,-0.3453 c 0.0019,-0.1899 0.01759,-0.4215 0.03484,-0.5147 0.07025,-0.3793 0.304732,-0.8277 0.500659,-0.9574 0.130633,-0.086 0.332388,-0.1064 0.472614,-0.047 0.129451,0.055 0.300372,0.214 0.425798,0.3962 l 0.100155,0.1455 0.02927,-0.3113 c 0.09297,-0.9886 0.397681,-1.6273 0.885706,-1.8567 0.283764,-0.13340004 0.64301,-0.025 1.051189,0.3178 0.435035,0.3652 1.092161,1.2437 1.529499,2.0448 0.102565,0.1879 0.127068,0.2157 0.19995,0.2271 0.04568,0.01 0.245224,0.038 0.443423,0.068 0.547799,0.084 1.1352543,0.2379 1.4981343,0.3935 0.06234,0.027 0.123664,0.049 0.136279,0.049 0.02914,0 0.394802,-0.6132 0.612056,-1.0264 0.182562,-0.3472 0.396678,-0.8325 0.469371,-1.0638 0.105666,-0.3362 0.126926,0.049 0.02263,0.4104 -0.08826,0.3055 -0.277648,0.7707 -0.557224,1.3687 l -0.226152,0.4837 0.150844,0.084 c 0.375066,0.2078 0.826933,0.6216 1.006879,0.9221 0.08977,0.1499 0.146758,0.3956 0.119103,0.5136 -0.06172,0.2633 -0.310787,0.3894 -0.891685,0.4514 -0.05045,0.01 -0.01945,0.035 0.169349,0.163 0.482871,0.3267 0.845823,0.6686 1.065144,1.0033 0.141421,0.2158 0.195547,0.3772 0.194828,0.5808 -0.0016,0.4652 -0.416708,0.8187 -1.198181,1.0206 -0.472572,0.1221 -0.744773,0.1498 -1.615711,0.1645 l -0.8208853,0.014 -0.182419,0.2351 c -0.236916,0.3053 -0.878953,0.9533998 -1.153149,1.1640998 -0.118246,0.091 -0.214994,0.1756 -0.214994,0.1883 0,0.033 0.0596,0.144 0.239898,0.4454 0.320414,0.5357 0.713044,1.0962 1.02999,1.4702 0.07554,0.089 0.137345,0.1683 0.137345,0.1759 0,0.027 -0.06703,0.01 -0.169389,-0.042 z m -2.384477,-2.1966 c 0.159721,-0.035 0.394156,-0.1216 0.5065,-0.1877 0.0475,-0.028 0.03704,-0.053 -0.179091,-0.4298 -0.126249,-0.2200998 -0.2387,-0.4101998 -0.249892,-0.4224998 -0.01119,-0.012 -0.08305,0.024 -0.159687,0.08 -0.07664,0.056 -0.227895,0.1619 -0.336129,0.2346 -0.220272,0.1479998 -0.298348,0.2704998 -0.298348,0.4682998 0,0.2458 0.289777,0.3497 0.716647,0.257 z m 1.133604,-0.5807 c 0.302019,-0.2254998 1.044569,-0.9649998 1.289266,-1.2839998 0.4309,-0.5617 0.716294,-1.0523 0.864045,-1.4854 0.076679,-0.2247 0.08462,-0.2772 0.086149,-0.5693 l 0.0017,-0.3218 -0.2604316,-0.1399 c -0.789264,-0.4238 -1.983596,-0.8281 -3.096612,-1.048 l -0.490457,-0.097 0.0083,-0.239 c 0.0046,-0.1314 0.01567,-0.2462 0.02462,-0.2551 0.02254,-0.022 0.685373,0.076 1.156423,0.1715 0.60835,0.1235 1.364859,0.3199 1.9006,0.4934 0.268976,0.087 0.493677,0.1538 0.499335,0.1481 0.0057,-0.01 -0.05121,-0.1149 -0.126369,-0.2428 -0.09323,-0.1586 -0.215826,-0.3131 -0.385813,-0.4862 -0.227043,-0.2311 -0.238607,-0.2475 -0.1303,-0.1847 0.301563,0.175 0.620375,0.4549 0.816505,0.7167 l 0.091349,0.122 0.235608,-0.3425 c 0.129584,-0.1883 0.23085,-0.3501 0.225036,-0.3595 -0.01654,-0.027 -0.488459,-0.2173 -0.8260054,-0.3335 -0.722438,-0.2488 -1.391032,-0.3682 -2.060228,-0.368 -0.628177,10e-5 -1.005074,0.082 -1.453909,0.3154 l -0.213474,0.1111 0.01502,0.3405 c 0.0362,0.8202 0.262985,1.9501 0.632061,3.1491 0.07844,0.2549 0.145437,0.477 0.148881,0.4937 0.0034,0.017 -0.09338,0.082 -0.215159,0.1451 l -0.221421,0.1148 -0.06128,-0.1394 c -0.231659,-0.5268 -0.55306,-1.487 -0.71874,-2.1473 -0.11138,-0.4439 -0.249525,-1.1294 -0.249525,-1.2382 0,-0.096 -0.04596,-0.049 -0.136391,0.1385 -0.175132,0.3641 -0.284363,0.7113 -0.321548,1.0223 -0.01665,0.1393 -0.02149,0.1489 -0.04565,0.091 -0.01486,-0.035 -0.02668,-0.1994 -0.02626,-0.3643 8.55e-4,-0.3389 0.06205,-0.5742 0.229948,-0.8842 0.04991,-0.092 0.08795,-0.1703 0.08453,-0.1737 -0.0098,-0.01 -0.401828,-0.058 -0.629168,-0.078 l -0.206073,-0.018 0.01771,0.2314 c 0.103903,1.3578 0.745878,2.8923 1.477419,3.5315 0.210356,0.1838 0.490839,0.3658 0.529493,0.3437 0.01611,-0.01 0.134835,-0.087 0.263831,-0.173 0.636538,-0.4236 1.313879,-1.0038 2.169662,-1.8583 l 0.658191,-0.6573 0.19527,0.1333 c 0.107398,0.073 0.195015,0.1398 0.194702,0.1479 -0.001,0.026 -0.410402,0.5238 -0.750884,0.9135 -0.396053,0.4533 -1.173533,1.2314 -1.536498,1.5377 -0.144372,0.1218 -0.263265,0.2303 -0.264206,0.241 -0.0025,0.028 0.20865,0.024 0.480397,-0.01 0.262133,-0.032 0.614179,-0.1267 0.773177,-0.2079 0.164895,-0.084 0.140924,-0.045 -0.04863,0.08 -0.305407,0.2008 -0.743511,0.3361 -1.095904,0.3385 -0.07525,5e-4 -0.136814,0 -0.136814,0.011 0,0.01 0.04751,0.1186 0.290973,0.6742998 0.02982,0.068 0.06744,0.1237 0.08359,0.1237 0.01615,0 0.134908,-0.079 0.263905,-0.1753 z M 5.2954277,9.4645772 c 0.23019,-0.067 0.642987,-0.2419 0.642805,-0.2719 -5.2e-5,-0.01 -0.07921,-0.056 -0.175904,-0.1061 -0.314115,-0.1612 -0.769798,-0.6722 -1.149105,-1.2886 l -0.158893,-0.2582 -0.105719,0.2299 c -0.374699,0.8149 -0.464628,1.4372 -0.236997,1.6401 0.174301,0.1554 0.748766,0.1819 1.183813,0.055 z m 5.0339873,-0.7481 c 0.272569,-0.032 0.61308,-0.1252 0.794693,-0.2172 0.497478,-0.2521 0.471005,-0.7177 -0.07157,-1.2588 -0.190439,-0.1899 -0.626521,-0.5405 -0.646935,-0.52 -0.0069,0.01 -0.02438,0.1165 -0.03881,0.2435 -0.05185,0.4564 -0.20187,0.9193 -0.4635673,1.4305 -0.09525,0.1861 -0.177372,0.3482 -0.182489,0.3602 -0.0097,0.023 0.20688,0.01 0.6086803,-0.038 z m 1.118919,-2.6988 c 0.111546,-0.058 0.143199,-0.1082 0.144156,-0.2301 0.0017,-0.2215 -0.232219,-0.5375 -0.564196,-0.7621 l -0.161097,-0.109 -0.08514,0.1496 c -0.04683,0.082 -0.159033,0.2661 -0.249346,0.4085 -0.09031,0.1424 -0.164205,0.266 -0.164205,0.2748 0,0.01 0.102611,0.06 0.228024,0.1143 0.125413,0.054 0.280795,0.127 0.345293,0.162 0.10013,0.054 0.139879,0.061 0.271973,0.048 0.08509,-0.01 0.19063,-0.034 0.234539,-0.056 z m -6.2662493,-1.4991 c -0.0015,-0.2491 -0.07876,-0.7579 -0.126912,-0.8357 -0.06958,-0.1124 -0.183013,-0.2172 -0.271239,-0.2505 -0.168296,-0.064 -0.364871,0.1221 -0.461896,0.4362 -0.06058,0.1961 -0.11746,0.6531 -0.0853,0.6853 0.01209,0.012 0.215196,0.025 0.451344,0.03 0.236147,0 0.444017,0.011 0.461933,0.014 0.02065,0 0.03239,-0.025 0.03207,-0.079 z m 1.13641,-0.6058 c 0.370026,-0.1637 0.79834,-0.2468 1.37236,-0.2664 0.240077,-0.01 0.436503,-0.02 0.436503,-0.026 0,-0.047 -0.495987,-0.6633 -0.6769,-0.8411 -0.470426,-0.4624 -0.782715,-0.4879 -1.074488,-0.088 -0.118374,0.1623 -0.237642,0.4003 -0.292124,0.5829 -0.05373,0.18 -0.119214,0.577 -0.119352,0.7235 l -1.04e-4,0.111 0.104248,-0.066 c 0.05734,-0.036 0.169773,-0.095 0.249857,-0.1302 z"/>
</svg>
