<svg role="img" focusable="false" aria-hidden="true" xmlns="http://www.w3.org/2000/svg" viewBox="0 0 14 14" height="1em" width="1em">
  <path d="m 6.3653733,12.9415 c -0.8948,-0.1994 -1.20949,-0.4092 -2.46409,-1.6427 -1.11139,-1.0927 -1.22697,-1.2456 -1.22697,-1.6230995 0,-1.0191 1.41434,-1.3052 1.80697,-0.3655 0.11002,0.2633 0.0916,0.5388 -0.0556,0.8295995 l -0.12839,0.2538 0.59654,0.5786 c 0.3281,0.3183 0.69562,0.6367 0.8167,0.7077 1.04994,0.6153 2.28645,0.474 3.12867,-0.3576 0.5429,-0.536 0.77758,-1.156 0.73799,-1.9496995 -0.0238,-0.4773 -0.13403,-0.8382 -0.37222,-1.2188 -0.0834,-0.1333 -0.7923,-0.888 -1.57527,-1.6772 -0.78298,-0.7892 -1.44598,-1.4946 -1.47335,-1.5674 -0.18656,-0.4966 0.0933,-1.093 0.58975,-1.2569 0.62103,-0.2049 1.30325,0.3506 1.22649,0.9988 -0.0162,0.1372 -0.0777,0.3138 -0.14259,0.4099 l -0.11403,0.1688 1.07008,1.0821 c 1.16043,1.1734 1.3412907,1.4147 1.5866807,2.1171 0.12123,0.347 0.13154,0.4314 0.13209,1.082 5.2e-4,0.6151995 -0.0135,0.7479995 -0.1093,1.0350995 -0.17887,0.5359 -0.4227007,0.9476 -0.7967507,1.3452 -0.65254,0.6937 -1.46725,1.0678 -2.40421,1.1042 -0.34494,0.013 -0.60197,0 -0.82921,-0.054 z m 0.11762,-2.6659 c -0.11644,-0.062 -0.27514,-0.2032 -0.35267,-0.3132995 -0.12253,-0.1739 -0.14098,-0.2412 -0.14114,-0.515 -1.5e-4,-0.2104 0.0299,-0.3819 0.0906,-0.5166 l 0.0907,-0.2015 -0.72858,-0.7382 c -1.43663,-1.4556 -1.61603,-1.6908 -1.86651,-2.4475 -0.10296,-0.3111 -0.1199,-0.4481 -0.12305,-0.9958 -0.003,-0.5408 0.0127,-0.6876 0.10649,-0.988 0.19976,-0.64 0.45332,-1.0612 0.92281,-1.533 0.3597,-0.3615 0.49424,-0.4613 0.87224,-0.6469 0.62419,-0.3064 0.94449,-0.38250004 1.59957,-0.37990004 0.75541,0 1.36987,0.18710004 1.96123,0.58740004 0.35364,0.2394 2.2123307,2.1029 2.3206207,2.3266 0.19176,0.3961 0.0696,0.8905 -0.28321,1.1461 -0.47815,0.3463 -1.1246207,0.1858 -1.3891007,-0.3449 -0.15457,-0.3102 -0.15227,-0.5886 0.007,-0.9042 l 0.12354,-0.2442 -0.57432,-0.5563 c -0.83893,-0.8126 -1.24849,-1.0342 -2.00155,-1.0827 -1.20192,-0.078 -2.33139,0.7343 -2.63312,1.8927 -0.0923,0.3542 -0.0923,0.9592 0,1.3134 0.15685,0.6022 0.27438,0.7517 1.81404,2.3072 0.79394,0.8021 1.47768,1.5262 1.51943,1.609 0.11143,0.221 0.0969,0.6094 -0.0313,0.8357 C 7.5442333,10.3139 6.9091833,10.5037 6.4825233,10.2756 Z"/>
</svg>
