<svg aria-hidden="true" xmlns="http://www.w3.org/2000/svg" viewBox="0 0 14 14" height="1em" width="1em">
  <path d="M10.321 8.709h-.353v.93a3.492 3.492 0 0 1-2.408.958c-1.96 0-3.547-1.612-3.547-3.6 0-1.984 1.586-3.6 3.547-3.6.945 0 1.837.375 2.507 1.056l1.669-1.696A5.836 5.836 0 0 0 7.554 1C4.268 1 1.643 3.695 1.643 7c0 3.281 2.598 6 5.911 6 1.693 0 3.335-.702 4.58-2.21-.053-.74-.358-2.081-1.813-2.081zm-.324-3.013H7.15v2.383h3.171c.898 0 1.621.405 2.036 1.12v-.82c0-1.746-1.082-2.683-2.36-2.683z"/>
</svg>
