<svg aria-hidden="true" xmlns="http://www.w3.org/2000/svg" viewBox="0 0 14 14" height="1em" width="1em">
  <path d="m8.918 10.166-.33.577-.108 1.88c0 .208-.664.377-1.48.377-.815 0-1.478-.169-1.478-.377l-.136-1.861-.35-.596c.966.406 2.954.392 3.882 0zM4.324 4.23l.319 2.942c.138-.469.487-1.102.937-1.294a.462.462 0 0 1 .439.021.58.58 0 0 1 .236.277c.028.152-.047.213-.105.213-.07 0-.124-.108-.16-.171-.096-.171-.241-.178-.396-.066-.161.118-.302.314-.4.486a2.8 2.8 0 0 0-.282.66c-.035.132-.068.343-.014.467.024.052.059.084.115.084.117 0 .288-.154.37-.236a1.78 1.78 0 0 0 .293-.375l.122-.364c.061-.16.232-.131.232 0 0 .24-.086.32-.234.814-.136.457-.178.604-.178.604-.017.066-.08.176-.148.176-.028 0-.05-.009-.06-.028-.024-.033-.022-.124-.02-.148.005-.075.148-.52.171-.59a3.055 3.055 0 0 1-.15.154c-.126.12-.33.277-.503.277a.286.286 0 0 1-.18-.056l.177 1.866c.047.117.919.4 2.068.4 1.15 0 2.022-.286 2.067-.4l.255-2.218c-.133.122-.288.272-.46.347-.126.054-.407.09-.407-.133 0-.122.213-.347.338-.504.032-.04.11-.139.11-.19 0-.068-.14-.052-.274.058a1.347 1.347 0 0 0-.204.228c-.101.14-.155.262-.2.363-.145.333-.096.202-.213.516-.117.311-.098.276-.122.328a.229.229 0 0 1-.094.105.142.142 0 0 1-.143-.007c-.02-.014-.03-.044-.03-.086a.29.29 0 0 1 .007-.064c.035-.143.183-.424.352-.804.037-.086.023-.06.018-.054a1.228 1.228 0 0 1-.337.247c-.136.06-.305.06-.34-.097-.002-.009-.002-.018-.005-.028-.276.216-.57.275-.469-.19-.107.193-.295.35-.525.35-.096 0-.166-.033-.201-.12-.054-.129.03-.35.108-.558.04-.105.093-.232.166-.38.038-.08.099-.126.178-.105.014.005.026.01.038.017.06.042.037.105.007.168-.09.176-.167.305-.218.488-.021.077-.047.21.035.21a.27.27 0 0 0 .162-.056c.107-.08.194-.199.26-.316.047-.084.103-.195.131-.288a.793.793 0 0 1 .042-.113c.026-.058.061-.12.122-.12.03 0 .056.012.075.036.04.051.03.105.01.162-.047.13-.11.248-.162.391a.864.864 0 0 0-.063.274c0 .08.086.061.159.028a.723.723 0 0 0 .16-.105c.027-.115.02-.09.618-1.599.03-.077.087-.11.143-.11.028 0 .052.01.075.026.04.03.04.096.024.145-.017.045-.015.03-.106.246-.122.284-.202.488-.31.748-.044.108-.18.443-.203.523-.014.051-.03.136.023.136.127 0 .453-.307.542-.399.004-.007.011-.009.02-.014.015-.044.029-.086.04-.129.033-.089.064-.192.125-.265.019-.023.04-.037.063-.037.066 0 .098.028.098.094 0 .025-.016.12-.025.145a2.22 2.22 0 0 1 .105-.105c.352-.326.603-.16.603.005 0 .173-.209.414-.324.548-.037.044-.115.127-.117.15 0 .03.021.042.051.042.047 0 .15-.082.188-.11.117-.091.277-.232.39-.33l.346-3.207c-.715.4-4.632.403-5.351.005zm5.384-.199c0 .492-5.42.492-5.42 0 0-.206 1.215-.373 2.71-.373.211 0 .418.002.617.01l.295-1.142 1.437-1.512c.033-.033.136-.005.232.082.096.087.155.185.124.218l-.002.002-1.343 1.418-.235.954c.936.061 1.585.19 1.585.342zm-1.627.108c0-.019-.02-.035-.058-.05l-.005.02c0 .03-.117.056-.26.056-.143 0-.26-.026-.26-.056 0-.002 0-.005.002-.007l.005-.017c-.043.014-.07.033-.07.054 0 .05.145.087.32.087.18.002.326-.038.326-.087z"/>
</svg>
