<svg aria-hidden="true" xmlns="http://www.w3.org/2000/svg" viewBox="0 0 14 14" height="1em" width="1em">
  <path fill="#f6ae32" d="M1.83 10.57c-.15-.054-.207-.103-.257-.224a.45.45 0 0 1 .008-.385 92.072 92.072 0 0 1 1.225-2.135c.038-.045.144-.232.251-.443a2367.445 2367.445 0 0 1 2.652-4.637C6.706 1.005 6.709 1 6.963 1c.157 0 .299.085.397.236.042.064.302.509.578.989l2.443 4.224a594.562 594.562 0 0 1 2.01 3.488c.039.075.07.18.07.233 0 .111-.097.27-.224.364l-.086.064-5.103.006c-4.182.005-5.124-.001-5.218-.035z"/>
  <path fill="#048163" d="M6.542 12.97c-.144-.041-.22-.182-.221-.405 0-.163.01-.188.104-.283.092-.091.123-.104.263-.104.21 0 .323.07.387.235.086.227.004.468-.19.548-.116.05-.197.051-.343.01zm.313-.147c.07-.077.096-.284.049-.397a.267.267 0 0 0-.128-.127c-.08-.033-.102-.03-.172.022-.213.159-.134.561.11.561a.215.215 0 0 0 .14-.059zm-3.718.113c0-.021.061-.197.136-.39.133-.349.135-.353.239-.362.06-.005.118.008.136.03.031.04.285.697.285.738 0 .056-.154.017-.187-.047-.051-.097-.086-.114-.233-.114-.108 0-.14.014-.197.091-.068.092-.18.126-.179.054zm.486-.279c.04-.047-.023-.268-.081-.288-.068-.023-.166.253-.11.31.036.034.155.021.191-.022zm.494-.083v-.4l.114.01c.11.009.12.02.243.254.07.135.146.245.168.245.03 0 .043-.068.05-.254.008-.243.012-.254.076-.245.066.01.068.02.068.392v.383h-.122c-.122 0-.123-.001-.245-.238-.16-.311-.211-.308-.224.016-.008.212-.015.237-.068.237-.057 0-.06-.023-.06-.4zm.933.331a2.736 2.736 0 0 1-.009-.39l.01-.322h.229c.378 0 .52.105.52.383 0 .281-.152.398-.518.398-.198 0-.217-.006-.232-.069zm.442-.068c.102-.052.125-.1.125-.265 0-.17-.11-.279-.269-.266l-.114.01-.009.242a1.51 1.51 0 0 0 .007.283c.02.054.152.052.26-.003zm1.857.11a7.844 7.844 0 0 1-.17-.736c0-.018.032-.033.073-.033.057 0 .078.02.09.084.01.047.034.17.053.277.034.18.07.25.11.21.01-.009.04-.138.067-.286l.05-.27.112-.009c.128-.01.126-.013.18.302.06.356.122.364.18.023.053-.311.06-.33.127-.33.076 0 .075.049-.003.405-.091.413-.078.39-.215.39-.067 0-.122-.01-.123-.023a10.105 10.105 0 0 0-.054-.268c-.07-.337-.127-.333-.188.016l-.047.26-.112.009c-.061.005-.12-.004-.13-.02zm1.115-.373v-.4l.115.01c.11.009.12.02.242.254.07.135.146.245.169.245.03 0 .043-.067.05-.252.007-.228.014-.253.068-.253.057 0 .06.023.06.4v.4l-.115-.01c-.108-.009-.12-.021-.237-.239-.163-.305-.211-.303-.223.008-.008.212-.015.237-.07.237-.056 0-.059-.023-.059-.4zm.925.01.009-.39h.252c.28 0 .348.05.101.077-.18.019-.23.058-.204.163.017.069.037.079.18.087.118.007.16.021.16.055s-.042.048-.159.055c-.17.01-.218.061-.178.189.016.048.052.061.191.068.104.006.177.025.185.048.01.029-.057.038-.266.038h-.28l.01-.39zm.71.35a2.807 2.807 0 0 1-.006-.39l.009-.35h.23c.377 0 .52.104.52.382 0 .17-.074.302-.2.355-.135.056-.53.058-.552.003zm.448-.098c.16-.083.174-.36.025-.483a.241.241 0 0 0-.177-.046l-.11.009-.008.242a1.51 1.51 0 0 0 .006.283c.021.055.153.052.264-.005zm-9.539-.941c-.021-.056.244-.734.3-.77.033-.02.078-.021.132-.002.07.025.105.085.215.366.073.185.133.361.134.39.001.09-.119.065-.177-.038-.048-.085-.065-.091-.227-.091-.164 0-.178.005-.223.091-.049.094-.128.122-.154.054zm.493-.307c.023-.06-.064-.282-.111-.282-.051 0-.135.209-.11.274.022.058.2.064.22.008zm.588.3c-.11-.062-.153-.218-.14-.506.009-.225.01-.23.093-.24l.085-.009v.28c0 .335.025.398.165.398.152 0 .182-.06.197-.386.012-.282.014-.288.088-.288h.076l-.01.32c-.01.282-.02.33-.078.389-.087.086-.354.11-.476.041zm.765.028a.112.112 0 0 1-.023-.068c0-.035.025-.041.109-.028.29.048.35-.128.084-.252-.197-.091-.26-.204-.18-.325.066-.1.177-.142.352-.13.1.006.14.022.14.055s-.036.046-.131.048c-.079 0-.151.022-.182.052-.047.047-.047.055.002.108a.457.457 0 0 0 .173.094c.184.056.243.23.127.374-.047.057-.095.073-.253.083-.107.006-.206.001-.218-.011zm.88-.019a2.74 2.74 0 0 1-.023-.346l-.008-.306-.089-.016c-.111-.02-.135-.078-.042-.103.09-.024.403-.025.466 0 .075.028.057.103-.025.103-.115 0-.138.06-.148.384-.007.261-.016.306-.062.314-.03.006-.06-.008-.069-.03zm.536-.04c-.029-.076-.02-.68.01-.71.008-.008.122-.014.253-.015.21-.001.246.007.294.067.072.088.07.157-.01.257l-.064.082.065.15c.08.188.081.245.002.245-.045 0-.081-.045-.137-.17-.068-.154-.083-.17-.16-.161-.078.009-.086.023-.1.163-.018.179-.101.23-.153.092zm.41-.452c.052-.084-.014-.16-.138-.16-.085 0-.106.012-.114.07a.286.286 0 0 0 .007.117c.024.062.201.043.245-.027zm.376.505c-.007-.012.05-.192.128-.398l.141-.375h.255l.121.314c.173.448.174.449.112.472-.036.014-.076-.01-.132-.079-.076-.092-.092-.098-.246-.089-.126.008-.172.024-.198.071-.054.098-.148.142-.18.084zm.49-.41c-.02-.16-.085-.235-.141-.167a.428.428 0 0 0-.055.17l-.017.124h.23l-.016-.127zm.52.411c-.019-.032-.033-.344-.026-.583.005-.181.01-.19.08-.19.076 0 .076.001.085.328l.009.33.162.009c.134.007.161.018.153.06-.008.043-.052.055-.229.062-.12.005-.225-.002-.233-.016zm.637-.045a2.706 2.706 0 0 1-.008-.392l.009-.322.085-.01.085-.01-.009.393c-.008.38-.01.393-.076.402-.05.007-.073-.009-.086-.06zm.336.029c-.008-.021.046-.197.12-.39l.133-.353h.262l.145.368c.08.202.134.379.121.393-.042.047-.136.005-.176-.08-.037-.077-.055-.084-.222-.084-.156 0-.185.01-.217.07-.058.11-.139.147-.166.076zm.493-.307c.023-.06-.064-.282-.11-.282-.052 0-.136.209-.11.274.021.058.198.064.22.008zm.464.326c-.012-.012-.022-.19-.022-.396 0-.33.006-.375.054-.387.137-.034.205.02.328.26.16.309.2.307.2-.009 0-.242 0-.245.077-.245h.078l-.009.39-.008.39h-.108c-.103 0-.112-.009-.238-.252-.172-.33-.216-.33-.227 0-.007.199-.02.254-.057.262-.026.005-.057-.001-.068-.013zm1.377 0c-.011-.012-.021-.19-.021-.396v-.374l.115-.014a.51.51 0 0 1 .147-.003c.018.007.067.118.109.248.105.323.15.324.256.009l.082-.247h.303l-.009.39c-.008.368-.012.39-.07.39-.055 0-.062-.025-.076-.272-.01-.166-.029-.278-.05-.285-.034-.01-.054.032-.188.405-.045.127-.067.153-.13.153-.067 0-.085-.027-.153-.23-.117-.345-.12-.35-.155-.316-.017.018-.034.147-.037.288-.005.205-.016.259-.054.266-.026.005-.057 0-.069-.012zm1.16-.008c-.01-.015.047-.194.125-.398l.142-.37h.255l.142.372c.078.204.135.384.126.398-.035.057-.135.02-.18-.067-.045-.086-.059-.091-.223-.091-.162 0-.179.007-.227.092-.051.089-.126.119-.16.064zm.503-.341a.592.592 0 0 0-.046-.172c-.038-.091-.054-.104-.09-.073-.056.046-.12.234-.094.276.01.017.066.031.124.031.086 0 .106-.012.106-.062zm.482.351c-.013-.013-.023-.186-.023-.385 0-.44.002-.441.356-.397.295.036.38.107.402.332.017.185-.046.323-.18.393-.103.053-.518.096-.555.057zm.415-.14c.105-.056.142-.123.143-.258.001-.185-.15-.317-.326-.284-.048.01-.057.047-.065.253-.005.133-.002.26.007.283.019.05.151.053.241.005zm.531.137a2.269 2.269 0 0 1-.02-.394v-.374l.127-.02c.145-.023.393.006.393.046 0 .03-.086.053-.244.065-.088.007-.11.022-.118.083-.014.1.067.155.233.155.18 0 .159.073-.025.086-.165.012-.219.053-.207.156.009.073.022.08.178.089.183.01.259.05.183.098-.052.033-.468.041-.5.01zm-10.73-1.42a.414.414 0 0 1-.18-.384c.01-.054.226-.46.481-.905a930.923 930.923 0 0 0 .757-1.31c.006-.009.172-.011.37-.006.626.014 1.244-.123 1.716-.381.256-.14.686-.459.846-.627.184-.194.585-.479.778-.554.262-.102.636-.098.865.01.202.094.412.278.584.51.148.2.286.27.439.219.25-.083.302-.343.12-.599-.234-.33-.601-.644-.898-.77-.451-.19-1.008-.166-1.495.066-.279.132-.466.27-.902.667-.594.54-.872.724-1.297.856-.184.058-.812.115-.812.074 0-.011.464-.83 1.03-1.818l1.75-3.053c.394-.69.74-1.28.768-1.312a.379.379 0 0 1 .457-.099c.124.065.191.153.411.539.231.405.395.688 1.309 2.265.365.632.796 1.376.955 1.654a1621.685 1621.685 0 0 0 2.403 4.154c.215.373.243.498.15.677-.101.197-.005.19-2.43.19h-2.2l-.076-.115-.419-.627c-.188-.281-.342-.53-.342-.551 0-.022.112-.219.249-.438.657-1.049.664-1.067.474-1.258-.086-.085-.128-.104-.233-.104-.175 0-.235.07-.697.808-.412.659-.467.777-.467.999 0 .183.048.295.243.574.4.571.462.663.462.686 0 .014-1.14.025-2.534.025-2.487 0-2.535 0-2.635-.061zm6.063-1.318c.038-.018.25-.261.468-.54.738-.94.792-.991 1.123-1.08.164-.043.464-.005.635.08.194.097.4-.017.4-.222 0-.055-.133-.287-.39-.68a15.972 15.972 0 0 0-.461-.684.215.215 0 0 0-.285-.053c-.12.064-.124.16-.027.52.05.185.092.347.092.36 0 .014-.102.05-.227.078-.356.084-.663.309-.904.662-.226.33-.743 1.242-.759 1.338-.012.076.001.114.063.176.085.085.161.097.272.045z"/>
</svg>
