<svg aria-hidden="true" xmlns="http://www.w3.org/2000/svg" viewBox="0 0 14 14" height="1em" width="1em">
  <path d="M11.97 3.635a6.097 6.097 0 0 0-1.578-1.567 6.067 6.067 0 0 0-4.02-1.038c-1.35.146-2.505.654-3.455 1.502-.88.786-1.46 1.747-1.717 2.664C.941 6.112.976 6.96 1.068 7.6c.098.648.42 1.464.42 1.464.067.157.158.22.206.247.236.129.623.015.92-.319a.081.081 0 0 0 .016-.073c-.083-.32-.113-.56-.143-.746-.067-.368-.097-.984-.052-1.554a4.53 4.53 0 0 1 .187-.985c.203-.683.631-1.397 1.3-1.99A4.706 4.706 0 0 1 6.445 2.51a4.486 4.486 0 0 1 1.6.102c.15.037.796.206 1.487.674a4.45 4.45 0 0 1 1.187 1.181c.284.399.593 1.07.683 1.563a4.6 4.6 0 0 1 .037 1.731 4.719 4.719 0 0 1-.63 1.638c-.218.384-.67.891-1.202 1.272a4.682 4.682 0 0 1-1.592.717c-.285.068-.571.11-.864.12-.26.008-.606 0-.849-.04-.36-.058-.435-.15-.518-.275 0 0-.057-.09-.073-.331.005-2.203.004-1.615.004-2.758 0-.323-.01-.616-.007-.882.015-.437.052-.737.364-1.062.225-.24.54-.384.888-.384.106 0 .47.005.789.27.342.287.4.678.413.782.078.612-.326 1.067-.48 1.183a1.742 1.742 0 0 1-.482.255 2.04 2.04 0 0 1-.765.09.075.075 0 0 0-.08.06l-.082.428c-.08.325.1.444.205.486.336.104.633.147.986.12a2.467 2.467 0 0 0 1.526-.673 2.24 2.24 0 0 0 .68-1.322 2.939 2.939 0 0 0-.279-1.675 2.683 2.683 0 0 0-1.405-1.292c-.645-.254-1.159-.263-1.82-.094l-.008.003c-.43.148-.798.33-1.181.726a2.713 2.713 0 0 0-.609.976c-.13.376-.165.657-.17 1.093-.009.323.007.623.007.904v1.85c0 .592-.02.695 0 1 .01.201.039.43.127.675a1.932 1.932 0 0 0 1.06 1.126c.525.234 1.239.27 1.817.248a5.951 5.951 0 0 0 1.146-.157 6.108 6.108 0 0 0 2.117-.959c.684-.481 1.278-1.138 1.606-1.696a6.15 6.15 0 0 0 .834-2.172 5.993 5.993 0 0 0-.05-2.306c-.135-.7-.495-1.468-.911-2.088l.019.019z"/>
</svg>
