<svg aria-hidden="true" xmlns="http://www.w3.org/2000/svg" viewBox="0 0 14 14" height="1em" width="1em">
  <path d="M5.026 3.619c-.664.783-1.093 1.942-1.123 3.24v.282c.03 1.299.458 2.456 1.122 3.24.861 1.117 2.14 1.826 3.57 1.826.878 0 1.7-.268 2.404-.735a5.964 5.964 0 0 1-4.284 1.521A6 6 0 0 1 7 1h.022A5.982 5.982 0 0 1 11 2.527a4.343 4.343 0 0 0-2.405-.735c-1.429 0-2.708.71-3.57 1.827h.001zM13 7a5.981 5.981 0 0 1-2.001 4.473c-1.539.75-2.973.225-3.448-.103 1.511-.332 2.653-2.16 2.653-4.37 0-2.211-1.141-4.037-2.653-4.37.474-.327 1.909-.851 3.448-.103A5.98 5.98 0 0 1 13 7Z"/>
</svg>
