<svg role="img" focusable="false" aria-hidden="true" xmlns="http://www.w3.org/2000/svg" viewBox="0 0 14 14" height="1em" width="1em">
  <path d="m 9.3865899,6.03839 2.7562501,0 0,-0.39643 -2.7562501,0 0,0.39643 z m 0,-0.99375 2.7562501,0 0,-0.33214 -2.7562501,0 0,0.33214 z m 0,1.9875 2.7562501,0 0,-0.46339 -2.7562501,0 0,0.46339 z m -4.2241072,2.32232 -3.0776785,0 c 0.069643,0.22768 0.1553572,0.45 0.2571429,0.66429 l 3.7044642,0 C 5.7008756,9.86607 5.4008756,9.63839 5.1624827,9.35446 m 3.9026786,-0.33214 2.9383937,0 c 0.04821,-0.19553 0.08304,-0.39375 0.104464,-0.59732 l -2.7964291,0 C 9.2553399,8.63661 9.1723042,8.8375 9.0651613,9.02232 m -1.1116071,0.99375 3.7339288,0 c 0.09911,-0.21428 0.155357,-0.43393 0.227679,-0.66428 l -3.0803578,0 C 8.59909,9.63839 8.2964114,9.86607 7.9535542,10.01607 M 12.14284,1 9.3865899,1 l 0,0.067 2.7562501,0 0,-0.067 z M 6.9999827,13 c 1.0580358,0 2.0410715,-0.31607 2.8607143,-0.8625 l -5.71875,0 C 4.9589113,12.68393 5.941947,13 6.9999827,13 m 2.3866072,-8.95179 2.7562501,0 0,-0.2625 -2.7562501,0 0,0.2625 z m 0,-0.99375 2.7562501,0 0,-0.19821 -2.7562501,0 0,0.19821 z m 0,-0.99375 2.7562501,0 0,-0.13125 -2.7562501,0 0,0.13125 z m -4.7732143,2.65179 -2.75625,0 0,0.33214 2.75625,0 0,-0.33214 z m -1.7169643,6.29732 8.1776787,0 c 0.179464,-0.22768 0.3375,-0.47143 0.476786,-0.72857 l -9.0776789,0 c 0.1392857,0.25714 0.2464285,0.50089 0.4232142,0.72857 m 1.7169643,-3.18214 0,-0.33214 -2.75625,0 0,0.33214 c 0,0.067 0,0.13393 0.00268,0.19821 l 2.7616071,0 c -0.00536,-0.0643 -0.00804,-0.13125 -0.00804,-0.19821 m 4.7732144,0 c 0,0.067 -0.00268,0.13393 -0.010714,0.19821 l 2.7616069,0 c 0.0027,-0.067 0.0054,-0.13125 0.0054,-0.19821 l 0,-0.33214 -2.7562497,0 0,0.33214 z m -5.4375001,4.17857 6.099107,0 c 0.316071,-0.23304 0.608035,-0.49821 0.8625,-0.79554 l -7.8508926,0 c 0.2571428,0.29465 0.5732143,0.5625 0.8892857,0.79554 m 0.6642857,-10.07679 -2.75625,0 0,0.13125 2.75625,0 0,-0.13125 z M 4.613377,1 l -2.75625,0 0,0.067 2.75625,0 0,-0.067 z m 0,4.64196 -2.75625,0 0,0.39643 2.75625,0 0,-0.39643 z m 0,0.92679 -2.75625,0 0,0.46339 2.75625,0 0,-0.46339 z m 0,-2.78304 -2.75625,0 0,0.26518 2.75625,0 0,-0.26518 z m 0,-0.92946 -2.75625,0 0,0.19821 2.75625,0 0,-0.19821 z m 0.075,5.56875 -2.7964285,0 c 0.024107,0.20357 0.058928,0.40179 0.1044643,0.59732 l 2.9383928,0 C 4.8276613,8.8375 4.741947,8.63661 4.6883756,8.425"/>
</svg>
