<svg role="img" focusable="false" aria-hidden="true" xmlns="http://www.w3.org/2000/svg" viewBox="0 0 14 14" height="1em" width="1em">
  <path d="M 10.388393,3.98929 8.9366071,2.75447 10.902679,1.70982 13,2.89375 10.388393,3.98929 Z M 6.1428571,3.03572 7.3669643,2.28036 8.2964286,3.20714 6.8125,3.98393 6.1428571,3.03572 Z M 4.3991071,3.2125 5.2535714,2.62054 5.7142857,3.38125 4.73125,3.98393 4.3991071,3.2125 Z M 3.775,5.575 3.5392857,4.64286 4.3321429,4.15268 4.6830357,5.09822 3.775,5.575 Z M 3.2071429,3.33304 3.8473214,2.84822 4.0857143,3.49107 3.3705357,3.98125 3.2071429,3.33304 Z M 2.5803571,5.29643 2.4839281,4.53572 3.0812495,4.12054 3.2446424,4.88929 2.5803566,5.29643 Z M 1.7607143,5.74107 2.3178571,5.39822 2.4062501,6.29286 1.7928572,6.61429 1.7607142,5.74107 Z M 1.0375,6.94375 1.5517857,6.67054 1.5625,7.69375 1,7.92947 1.0375,6.94375 Z M 2.6205357,8.53214 1.8625,8.75447 1.819643,7.50089 2.4919644,7.21429 2.6205358,8.53214 Z M 3.6517857,6.81518 2.81875,7.16339 2.6794643,6.07054 3.4133929,5.68482 3.6517857,6.81518 Z M 4.3,9.86339 3.1857143,10.02143 2.96875,8.32054 3.9116071,8.03125 4.3,9.86339 Z M 5.0633929,6.11607 5.63125,7.64554 4.39375,8.00982 4.0267857,6.56072 5.0633929,6.11607 Z M 7.3589286,12.29018 5.4598214,12.20179 4.8089286,9.63572 6.2875,9.40536 7.3589286,12.29018 Z m -2.2741072,-7.49196 1.1303572,-0.6 0.75,1.22946 -1.3607143,0.57054 -0.5196429,-1.2 z M 6.1830357,7.34018 7.825,6.83929 9.2392857,9.15893 7.1017857,9.46161 6.1830357,7.34018 Z M 7.5598214,5.04732 9.3625,4.27589 11.116964,6.02768 8.74375,6.72947 7.5598214,5.04732 Z"/>
</svg>
