<svg role="img" focusable="false" aria-hidden="true" xmlns="http://www.w3.org/2000/svg" viewBox="0 0 14 14" height="1em" width="1em">
  <path d="m 11.666314,1.7290785 -9.3331572,0 C 1.5963983,1.7290785 1,2.3191205 1,3.0468745 l 0,3.95339 c 0,2.910488 2.3877119,5.2706565 5.333157,5.2706565 l 1.333686,0 C 10.612288,12.270921 13,9.9107525 13,7.0002645 l 0,-3.95339 c 0,-0.727754 -0.596928,-1.317796 -1.333157,-1.317796 z M 7,10.294756 c -2.2092161,0 -4,-1.7701265 -4,-3.9533895 l 0,-1.976695 2,0 0,1.976695 c 0,1.091631 0.8951271,1.976695 2,1.976695 1.104873,0 1.99947,-0.885064 1.99947,-1.976695 l 2,0 c 0,2.183263 -1.790784,3.9533895 -4,3.9533895 z M 10.966631,5.6824685 9.033369,5.1882945 9.5,3.2772775 l 1.966631,0.494174 -0.5,1.910487 z"/>
</svg>
