<svg aria-hidden="true" xmlns="http://www.w3.org/2000/svg" viewBox="0 0 14 14" height="1em" width="1em">
  <path d="M6.56 4.415c-.43.083-1.148.42-1.466.683-.766.635-1.142 1.484-1.142 2.558 0 .67.078 1.026.366 1.597.562 1.118 1.743 1.88 3.535 2.265.43.098.678.113 2.109.132l1.626.02.23-.136c.219-.127 1.225-1.075 1.18-1.114-.01 0-.195 0-.41.024-.214.02-.888.063-1.493.093-2.315.108-3.696-.117-4.814-.79-.327-.2-.84-.728-.982-1.021-.503-1.045-.214-2.275.674-2.87 1.05-.699 2.485-.43 3.164.595l.122.18.469-.248c.258-.142.478-.26.488-.269.058-.049-.21-.425-.557-.776-.322-.332-.468-.44-.854-.63-.728-.356-1.43-.45-2.246-.293zm-.172-1.45a4.734 4.734 0 0 0-3.515 2.65c-.61 1.28-.552 2.93.151 4.312a5.515 5.515 0 0 0 2.407 2.372l.386.19h1.709c1.84 0 2.158-.028 2.89-.273.352-.112.664-.263.395-.19-.234.068-2.162.034-2.71-.044-2.831-.415-4.535-2.094-4.535-4.472 0-.552.015-.654.147-1.035.273-.796.771-1.45 1.42-1.865.64-.41 1.255-.586 2.036-.576.571 0 1.03.093 1.533.297.2.083.371.142.376.137.01 0 .117-.22.24-.468.258-.523.258-.523-.172-.689a4.9 4.9 0 0 0-1.83-.366c-.376-.01-.791 0-.928.02zm-.61-1.367c-1.333.278-2.383.922-3.364 2.08-.669.786-1.191 1.982-1.352 3.1-.22 1.552.146 3.022 1.118 4.477.273.41.332.469.62.615.556.293 1.084.459 1.894.59.083.016.156.02.156.01s-.122-.111-.278-.224c-.44-.332-1.147-1.079-1.465-1.548-.786-1.147-1.03-1.996-.976-3.383.02-.561.054-.79.151-1.108.65-2.124 2.412-3.579 4.355-3.598h.4l.03-.318c.02-.175.044-.42.063-.551l.03-.23h-.484a5.71 5.71 0 0 0-.898.088z"/>
</svg>
