<svg aria-hidden="true" xmlns="http://www.w3.org/2000/svg" viewBox="0 0 14 14" height="1em" width="1em">
  <path d="M11.222 9.524V7.993c0-.615.348-.699.592-.699V6.69c-.243 0-.592-.084-.592-.707V4.459c0-.848-.135-1.259-.985-1.259h-.41v.488h.225c.42 0 .543.125.543.545v1.675c0 .757.21.95.63 1.067v.034c-.42.117-.623.302-.623 1.06V9.75c0 .422-.12.596-.54.596h-.224v.454h.412c.854 0 .99-.427.99-1.276h-.018zM2.159 7.295c.244 0 .592.084.592.699v1.531c0 .85.204 1.275 1.053 1.275h.383v-.454h-.195c-.42 0-.577-.175-.577-.595V8.072c0-.758-.24-.943-.66-1.06v-.034c.42-.118.668-.311.668-1.069V4.233c0-.42.157-.545.577-.545h.194v-.487H3.82c-.846 0-1.049.412-1.049 1.26v1.528c0 .622-.344.713-.592.713V7.3l-.019-.005zm5.743 1.949a1.73 1.73 0 0 0 .588-.283 1.31 1.31 0 0 0 .375-.45c.088-.178.133-.375.133-.593 0-.19-.033-.353-.099-.487a.952.952 0 0 0-.318-.356 2.31 2.31 0 0 0-.559-.275c-.226-.08-.5-.16-.82-.24-.345-.087-.584-.165-.718-.232a.35.35 0 0 1-.202-.336c0-.177.07-.307.211-.386.14-.083.314-.12.52-.12.223 0 .447.03.67.105.224.067.462.187.714.344l.472-.712a4.085 4.085 0 0 0-.89-.412 3.016 3.016 0 0 0-.951-.15c-.255 0-.494.03-.712.097a1.82 1.82 0 0 0-.577.293 1.33 1.33 0 0 0-.383.464c-.09.18-.135.39-.135.615 0 .172.03.314.09.442.06.127.15.233.277.33.128.097.293.179.503.254.21.075.457.15.75.218.388.09.659.172.823.255.165.074.248.195.248.352a.408.408 0 0 1-.203.367c-.135.082-.33.127-.57.127-.531 0-1.086-.187-1.656-.562l-.487.81c.135.09.285.172.457.247.173.075.352.135.54.187.187.053.382.09.585.12.202.03.39.037.57.037.284 0 .54-.037.771-.104l-.017.034zm3.73-4.86c.33 0 .427.104.427.435v1.312c0 .594.105.746.523.839v.026c-.418.093-.523.238-.523.831V9.15c0 .33-.096.464-.426.464h-.145s-.001.25-.015.355c.058 0 .287-.007.287-.007.668 0 .822-.324.822-.99v-1.2c0-.482.28-.547.418-.547v-.479c-.138 0-.418-.066-.418-.554V4.997c0-.667-.154-.99-.822-.99 0 0-.235.007-.304.015.015.134.03.363.03.363h.147zM2.565 9.97c-.015-.106-.01-.356-.01-.356H2.41c-.331 0-.461-.134-.461-.465V7.83c0-.595-.139-.74-.418-.832v-.03c.279-.092.418-.243.418-.838V4.819c0-.331.13-.435.46-.435h.142s.007-.228.023-.362a6.015 6.015 0 0 0-.33-.015c-.667 0-.855.323-.855.99v1.195c0 .489-.284.555-.389.555v.474c.105 0 .382.066.382.547v1.203c0 .667.187.982.855.982 0 0 .262.023.315.023l.012-.006z"/>
</svg>
