<svg aria-hidden="true" xmlns="http://www.w3.org/2000/svg" viewBox="0 0 14 14" height="1em" width="1em">
  <path d="M9.095 2.861 1 4.118l1.307 8.397 4.325-.704c-.05-.352 1.106-3.368 1.307-3.922l-2.213.352.302-.905 1.559-.251.402.503s.1-.252.1-.352L5.929 4.57c-.101-.151-.101-.352.05-.453l.1-.1c.151-.1.352-.1.453.05l1.91 2.212c.403-1.206.755-2.262.755-2.614.05-.1.05-.453-.1-.805zM3.062 7.84l1.357-.251-.352.905-.905.15-.1-.804Zm2.916-2.564.15.05c.202.05.252.252.202.453L4.82 9.8l-.905 1.207.1-1.509 1.51-4.022c.05-.201.25-.251.452-.201zm5.43-1.408c-.2.201-.452.855-.955 2.765h.05l.151.805-.402.05c-.05.252-.1.503-.201.805.854.452.402 1.558.352 1.558-.05 0-.05 0-.05-.05s.05-.201-.101-.251c-.1-.05-.302-.1-.453-.201-.15.603-.301 1.307-.452 2.061l3.167-.503-1.055-7.09-.05.05zm-.352-.503c.201-.1.302-.201.453-.201a.5.5 0 0 1 .452.251c.1.151.453.252.604.252.1 0 .251-.352.352-.654.1-.302.1-.653.05-.704-.05-.05-.453-.15-.553-.15-.05.05-.151.1-.352.1-.201 0-.402-.15-.553-.302-.252-.251-.553-.352-.855-.452-.302-.1-.654-.1-.955-.1-.453-.051-.956-.051-1.408.1-.201.05-.352.1-.553.2a.53.53 0 0 1-.252.101c-.05.05-.05.101 0 .101s.252-.05.252-.05-.252.1-.252.2c0 .051.05.051.05.051s.151-.05.252-.05c.201 0 .503-.1.754-.1.302 0 .604.1.905.402.453.553.403 1.257.403 1.407-.101 1.056-2.464 7.492-2.565 7.945-.1.452-.1.704.453.855.553.15.754 0 .854-.201.05-.352 1.56-8.297 2.464-9z"/>
</svg>
