<svg role="img" focusable="false" aria-hidden="true" xmlns="http://www.w3.org/2000/svg" viewBox="0 0 14 14" height="1em" width="1em">
  <path d="m 1.6762407,10.956466 c -0.099,-0.049 -0.22707,-0.1639 -0.28455,-0.2559 -0.0602,-0.096 -0.16033,-0.9979998 -0.23608,-2.1254998 -0.21020998,-3.1285996 -0.21017998,-3.1337996 0.0167,-3.3175996 0.19302,-0.1563 1.00842,-0.29 2.60383,-0.4267 l 0.68958,-0.059 0.29764,-0.7385 c 0.45563,-1.1305 0.31329,-1.063 2.24094,-1.063 l 1.64965,0 0.17592,0.2236 c 0.0968,0.123 0.28479,0.5012 0.41786,0.8403 0.13306,0.3392 0.30393,0.6484 0.37969,0.6871 0.0758,0.039 0.4836203,0.096 0.9063603,0.1268 1.24071,0.091 2.08073,0.2416 2.28872,0.41 0.17824,0.1444 0.19114,0.222 0.16978,1.0213 -0.0214,0.8026 -0.13198,2.4903996 -0.24793,3.7855994 -0.0304,0.3393 -0.1104,0.6238 -0.21015,0.747 l -0.16109,0.199 -5.2584003,0.017 c -3.3899,0.011 -5.32238,-0.014 -5.43845,-0.071 z m 6.15563,-0.2616 c 0.19332,-0.052 0.53881,-0.2142 0.76774,-0.3595 l 0.41624,-0.2641 0.41858,0.2059 c 0.5840703,0.2874 1.4826203,0.2877 2.0656503,9e-4 0.56059,-0.2758 0.79668,-0.6256998 0.83585,-1.2386998 0.0533,-0.8347 -0.26569,-1.1695 -1.60415,-1.6831996 -0.8485203,-0.3256 -1.0701603,-0.5076 -0.9322503,-0.7653 0.2159103,-0.4034 1.0970303,-0.2693 1.3106403,0.1995 l 0.0952,0.2089 0.54159,-0.164 c 0.29787,-0.09 0.55666,-0.179 0.57508,-0.1974 0.0184,-0.018 -0.0801,-0.2127 -0.21902,-0.4317 -0.51617,-0.8139 -1.76205,-1.1176 -2.6795603,-0.6531 l -0.41543,0.2104 -0.43367,-0.2919 c -1.43928,-0.9685 -3.50603,-0.3535 -4.24024,1.2618 -0.24378,0.5364 -0.25986,1.7293996 -0.0304,2.2562996 0.35774,0.8215 0.94082,1.3802998 1.72671,1.6548998 0.46358,0.162 1.30307,0.1854 1.80147,0.05 z m -1.68438,-0.3247 c -1.1184,-0.3996998 -1.7113,-1.2546998 -1.72043,-2.4809998 -0.008,-1.0096996 0.55406,-1.9012996 1.47153,-2.3362996 0.67751,-0.3213 1.59775,-0.2978 2.31145,0.059 0.92462,0.462 1.36696,1.199 1.36815,2.2794996 8.7e-4,0.7933 -0.2309,1.3967 -0.71921,1.8725 -0.68168,0.6640998 -1.83105,0.9211998 -2.71149,0.6064998 z m 1.79573,-1.4508998 c 0.29797,-0.2979 0.32433,-0.3666 0.35172,-0.9167 0.0331,-0.6642996 -0.12106,-1.0240996 -0.56262,-1.3133996 -0.35566,-0.2331 -1.14278,-0.2133 -1.49494,0.037 -0.76864,0.5473 -0.73777,1.8435996 0.0566,2.3788996 0.2573,0.1734 0.39088,0.2015 0.81732,0.1716 0.44702,-0.031 0.5494,-0.075 0.83187,-0.3578 z m 2.1620103,0.4306 c -0.3729503,-0.167 -0.4047303,-0.2441 -0.2893503,-0.7023 l 0.0995,-0.395 0.4521503,0.1777 c 0.5255,0.2067 0.75972,0.3936 0.75972,0.6062 0,0.3381 -0.5737,0.514 -1.02199,0.3134 z"/>
</svg>
