<svg role="img" focusable="false" aria-hidden="true" xmlns="http://www.w3.org/2000/svg" viewBox="0 0 14 14" height="1em" width="1em">
  <path d="m 12.770545,7.3741632 c -0.304491,-0.689981 -0.878975,-1.237965 -1.545956,-1.575456 -1.176968,-0.595983 -2.6404268,-0.592483 -3.8143939,0.015 -0.8154771,0.418488 -1.496458,1.168467 -1.6894526,2.080941 -0.1589956,0.671982 -0.0165,1.395461 0.3399904,1.980445 0.5304852,0.8809748 1.4894583,1.4434598 2.4854304,1.6239538 0.7214798,0.146496 1.4679587,0.0595 2.1689397,-0.142496 0.420988,0.162996 0.795978,0.426988 1.203966,0.622983 -0.105497,-0.35349 -0.217994,-0.70298 -0.33799,-1.050971 0.457987,-0.32499 0.872975,-0.730479 1.121968,-1.2394648 0.37199,-0.70748 0.394489,-1.585455 0.0675,-2.314935 z M 7.808684,2.6412962 C 6.5612189,1.9393152 5.0077625,1.8338182 3.6658001,2.3188052 c -0.8819753,0.317491 -1.679953,0.907474 -2.1729392,1.709952 -0.4474874,0.724979 -0.61498273,1.628954 -0.3994888,2.458431 0.216494,0.919974 0.8554761,1.691452 1.6309543,2.206438 -0.1499958,0.424988 -0.2924918,0.849476 -0.427488,1.277464 0.4874863,-0.254993 0.9749727,-0.521485 1.462959,-0.780478 0.5849836,0.187495 1.2074662,0.279492 1.8299487,0.258993 -0.1649953,-0.471487 -0.2024943,-0.982473 -0.1274964,-1.475459 0.1124969,-0.685481 0.4874864,-1.312463 0.9969721,-1.77695 0.8629758,-0.807477 2.0854416,-1.147968 3.247909,-1.06547 -0.2179939,-1.06747 -0.9679729,-1.969445 -1.9119465,-2.48993 l 0.0135,0 z m 0.8664757,4.99436 c -0.1044971,0.325991 -0.5779838,0.423988 -0.8074774,0.175995 -0.2529929,-0.229494 -0.1544957,-0.70898 0.177495,-0.811477 0.3669898,-0.154996 0.7909779,0.268492 0.6299824,0.635482 z m 2.3974333,0.046 c -0.127997,0.292992 -0.570484,0.36149 -0.787978,0.134997 -0.104497,-0.0955 -0.134997,-0.239494 -0.171996,-0.36499 0.052,-0.228994 0.209995,-0.466487 0.464987,-0.477487 0.352491,-0.049 0.667982,0.386489 0.487487,0.70798 l 0.0075,0 z M 7.4951928,4.4547452 c 0.004,0.480486 -0.6374822,0.780478 -0.9974721,0.454487 -0.3734895,-0.267492 -0.2674925,-0.918474 0.1709952,-1.05297 0.392489,-0.157496 0.856476,0.171995 0.8254769,0.592483 l 10e-4,0.006 z m -3.0294152,0.121996 c -0.085998,0.417489 -0.6454819,0.618983 -0.9729727,0.338991 -0.3794894,-0.267493 -0.2729924,-0.930474 0.1724952,-1.06547 0.4364877,-0.167996 0.9324738,0.274992 0.8004775,0.726479 z"/>
</svg>
