<svg role="img" focusable="false" aria-hidden="true" xmlns="http://www.w3.org/2000/svg" viewBox="0 0 14 14" height="1em" width="1em">
  <path d="m 6.3059061,12.950281 c -0.8586433,-0.09 -1.9479397,-0.4985 -2.7075929,-1.0144 -0.4335949,-0.2943 -1.0585734,-0.8921 -1.3907087,-1.3301 -0.3499558,-0.4614 -0.81671,-1.4100001 -0.9830404,-1.9979001 -0.56828735,-2.0087 -0.016987,-4.2207 1.4321089,-5.7463 0.2075868,-0.2185 0.5356415,-0.5172 0.7290104,-0.6639 0.4609339,-0.3496 1.4099013,-0.8167 1.9962312,-0.9826 1.0131827,-0.28659999 2.2239209,-0.28679999 3.2358906,-5e-4 0.5879069,0.1664 1.5365608,0.6331 1.9979788,0.9831 1.949767,1.4787 2.823041,4.0703 2.160613,6.4119 -0.165869,0.5864 -0.632946,1.5353001 -0.982534,1.9962001 -0.992496,1.3086 -2.5445198,2.18 -4.1822237,2.3481 -0.5999524,0.062 -0.6889936,0.061 -1.3057332,0 z m 2.0744903,-1.0847 c 0.8524075,-0.2553 1.4776988,-0.6196 2.1170206,-1.2334 0.668846,-0.6421001 1.1015,-1.3501001 1.381962,-2.2617001 0.133097,-0.4327 0.144656,-0.5429 0.144656,-1.3797 0,-0.8368 -0.01156,-0.9471 -0.144656,-1.3797 -0.280462,-0.9115 -0.713116,-1.6196 -1.381962,-2.2618 -0.635841,-0.6104 -1.2540195,-0.9716 -2.1170206,-1.2371 -0.4326025,-0.1331 -0.5428418,-0.1447 -1.379663,-0.1447 -0.8368202,0 -0.9470595,0.012 -1.379662,0.1447 -0.8630011,0.2655 -1.4811786,0.6267 -2.1170202,1.2371 -0.6688459,0.6422 -1.1015,1.3503 -1.3819612,2.2618 -0.1330978,0.4326 -0.1446563,0.5429 -0.1446563,1.3797 0,0.8368 0.011559,0.947 0.1446563,1.3797 0.2804612,0.9116 0.7131153,1.6196 1.3819612,2.2617001 0.4546313,0.4365 0.7269357,0.6308 1.2497033,0.8916 0.818974,0.4084 1.3773151,0.5261 2.3807282,0.5016 0.6467043,-0.016 0.8539524,-0.042 1.2459137,-0.1598 z m 0.1969795,-0.9263 c -0.1186069,-0.018 -0.1428078,-0.06 -0.1957196,-0.3388 -0.079797,-0.4199 -0.2363619,-0.6613001 -0.5170889,-0.7972001 -0.3136775,-0.1519 -0.6233793,-0.1412 -1.566063,0.054 -0.584248,0.1209 -0.8662759,0.1556001 -1.0610716,0.1305 -0.8270326,-0.1068 -1.3995061,-0.7263 -1.611829,-1.7447 -0.1047033,-0.5022 -0.086808,-0.6489 0.084909,-0.6963 0.2194704,-0.061 0.64883,-0.052 0.8388189,0.017 0.16177,0.059 0.1776724,0.084 0.1776724,0.2829 0,0.5287 0.4230459,0.9369 0.9710494,0.9369 l 0.2528832,0 0.033049,-0.2542 c 0.115754,-0.8902 0.3356266,-1.6468 0.6758681,-2.326 l 0.2070981,-0.4134 -0.1311424,-0.086 c -0.1819532,-0.1193 -0.5962355,-0.2376 -0.8318144,-0.2376 -0.1083454,0 -0.3076558,0.033 -0.442913,0.074 -0.2207266,0.066 -0.2494244,0.065 -0.2801251,-0.013 -0.027379,-0.07 -0.050708,-0.055 -0.116835,0.073 -0.045448,0.088 -0.1307864,0.2133 -0.1896449,0.2779 -0.088246,0.097 -0.1006516,0.1598 -0.070737,0.3594 0.041838,0.279 0.1326793,0.2334 -0.8165041,0.4098 -0.3333093,0.062 -0.61995,0.099 -0.6369794,0.082 -0.054264,-0.054 -0.3869289,-2.142 -0.3468972,-2.1771 0.065739,-0.058 1.3464141,-0.275 1.4302435,-0.2428 0.046438,0.018 0.079397,0.099 0.079397,0.1954 0,0.137 0.030799,0.1777 0.1823062,0.241 0.1002677,0.042 0.2300832,0.1369 0.2884777,0.2111 l 0.1061724,0.135 0.032059,-0.1277 c 0.042838,-0.1706 0.1350322,-0.2007 0.7017249,-0.2287 0.4432471,-0.022 0.5227097,-0.01 1.0003192,0.1585 0.327644,0.1151 0.5375501,0.1636 0.5696437,0.1315 0.032089,-0.032 0.2746182,0.082 0.6581658,0.3085 0.3340397,0.1976 0.6173256,0.3684 0.6295231,0.3796 0.012199,0.011 -0.078907,0.2243 -0.2024563,0.4737 -0.1911339,0.3857 -0.3814657,0.8443 -0.3814657,0.9191 0,0.012 0.1012356,0.1309 0.2249683,0.2652 0.3796558,0.4119 0.748014,0.5396 1.2972516,0.4497 0.3836002,-0.063 0.4103102,-0.037 0.3908852,0.3717 l -0.01387,0.292 -0.2139978,0.046 c -0.117699,0.025 -0.3962761,0.037 -0.6190585,0.025 -0.4573135,-0.024 -0.7581636,-0.1445 -1.1058437,-0.4421 l -0.2188287,-0.1873 -0.057997,0.2704 c -0.031899,0.1488 -0.057997,0.2903 -0.057997,0.3145 0,0.024 0.1143551,0.059 0.2541221,0.078 0.5225447,0.07 1.0511401,0.5043 1.3285332,1.0906 0.1506065,0.3183 0.3575467,1.0697001 0.3140206,1.1402001 -0.074257,0.1201 -0.6296951,0.1836 -1.0422775,0.1191 z M 4.8283493,5.4302809 c 0.056368,-0.1237 0.050588,-0.1571 -0.043428,-0.2511 -0.1419949,-0.142 -0.1763095,-0.098 -0.1331043,0.1727 0.041108,0.2571 0.086026,0.2771 0.1765304,0.078 z m 3.3220829,-0.2823 c -0.6868076,-0.3632 -0.4717428,-1.4334 0.3091208,-1.5381 0.6872996,-0.092 1.1767076,0.738 0.770975,1.3077 -0.2288962,0.3215 -0.7127755,0.4247 -1.0800958,0.2304 z"/>
</svg>
