<svg role="img" focusable="false" aria-hidden="true" xmlns="http://www.w3.org/2000/svg" viewBox="0 0 14 14" height="1em" width="1em">
  <path d="m 2.4824016,11.280198 c -0.1112,-0.011 -0.1928,-0.023 -0.2663,-0.037 -0.4973,-0.099 -0.8804,-0.3504 -1.0516,-0.6894 -0.047,-0.093 -0.1,-0.2563 -0.1162,-0.3611 -0.011,-0.069 -0.01,-0.2243995 0,-0.3010995 0.03,-0.1846 0.1083,-0.3631 0.2314,-0.5285 0.059,-0.08 0.2031,-0.2231 0.2832,-0.2824 0.1576,-0.1167 0.343,-0.2114 0.5081,-0.2595 0.027,-0.01 0.113,-0.036 0.1911,-0.062 0.078,-0.026 0.2774,-0.089 0.443,-0.1399 0.6104,-0.1878 0.8806,-0.2872 1.1936,-0.4391 0.3463,-0.1681 0.6616,-0.3769 0.9345,-0.6189 0.063,-0.056 0.3391,-0.3293 0.4529,-0.4483 l 0.087,-0.091 -0.1093,-0.114 c -0.2031,-0.2119 -0.3692,-0.3791 -0.4423,-0.4451 -0.3651,-0.33 -0.7817,-0.5855 -1.2868,-0.7894 -0.2222,-0.09 -0.4192,-0.1571 -0.8499,-0.2908 -0.1641,-0.051 -0.3687,-0.1159 -0.4547,-0.1443 -0.086,-0.028 -0.1863,-0.061 -0.2229,-0.073 -0.3311,-0.1062 -0.6341,-0.3304 -0.8143,-0.6027 -0.081,-0.1226 -0.1486,-0.2841 -0.1763,-0.4223 -0.016,-0.08 -0.022,-0.2374 -0.011,-0.3193 0.014,-0.1133 0.061,-0.2558 0.1255,-0.3853 0.08,-0.1591 0.2205,-0.3106 0.3989,-0.4297 0.067,-0.044 0.2408,-0.132 0.3218,-0.1617 0.145,-0.053 0.3065,-0.093 0.4644,-0.1137 0.3346,-0.044 0.7772,0 1.087,0.1201 0.327,0.1221 0.6167,0.3442 0.782,0.5994 0.099,0.1529 0.1524,0.3024 0.1683,0.4719 0.022,0.2309 -0.07,0.5116 -0.231,0.7101 -0.082,0.1002 -0.26,0.267 -0.344,0.3213 -0.018,0.012 -0.033,0.023 -0.033,0.024 -2e-4,0 0.013,0.011 0.03,0.02 0.017,0.01 0.076,0.044 0.1314,0.078 0.1208,0.073 0.2605,0.1412 0.4984,0.2444 0.5385,0.2336 0.8324,0.3698 1.3,0.6022 0.2558,0.1271 0.5452,0.277 0.6312,0.3269 l 0.023,0.013 0.8774,-0.495 c 1.4071,-0.7938 2.0161,-1.1377 2.7102,-1.5306 0.3582994,-0.2028 0.6788994,-0.3812 0.7122994,-0.3965 0.6722,-0.307 1.3517,-0.3688 1.9254,-0.1751 0.1284,0.043 0.2792,0.112 0.3812,0.1735 l 0.034,0.02 -0.048,0.029 c -0.026,0.016 -0.4039,0.2386 -0.8386,0.4947 -4.5178994,2.6618 -4.4826994,2.6409 -4.4720994,2.6481 0.01,0 0.5444,0.3205 1.1973,0.7037 0.6529,0.3832 1.2809994,0.7517 1.3955994,0.819 0.1147,0.067 0.7759,0.4555 1.4695,0.8626 0.6935,0.4071 1.2609,0.7421995 1.2609,0.7446995 0,0 -0.041,0.026 -0.092,0.052 -0.2413,0.1231 -0.5335,0.2055 -0.8489,0.2394 -0.1083,0.012 -0.4198,0.01 -0.5242,0 -0.3208,-0.04 -0.5799,-0.1168 -0.8483,-0.2527 -0.1045,-0.053 -0.6073,-0.3369995 -3.1831994,-1.7990995 l -1.1159,-0.6333 -0.08,0.045 c -0.4754,0.2697 -0.9216,0.4854 -1.65,0.7977 -0.3044,0.1304 -0.4289,0.1862 -0.5294,0.2373 -0.1052,0.053 -0.3245,0.1916 -0.3239,0.204 10e-5,0 0.025,0.018 0.056,0.036 0.083,0.048 0.224,0.1523 0.28,0.2084 0.1033,0.1037 0.1903,0.2675 0.2507,0.4721 0.052,0.176 0.056,0.3145995 0.015,0.4750995 -0.1125,0.4384 -0.5585,0.8227 -1.1205,0.9656 -0.087,0.022 -0.2424,0.052 -0.3471,0.066 -0.061,0.01 -0.3687,0.016 -0.423,0.01 z m 0.3399,-0.5529 c 0.1442,-0.02 0.2551,-0.054 0.384,-0.1182 0.3472,-0.1717 0.5167,-0.5029 0.4282,-0.8367995 -0.031,-0.1161 -0.1119,-0.2501 -0.203,-0.3352 -0.1385,-0.1293 -0.3153,-0.2001 -0.538,-0.2153 -0.2943,-0.02 -0.5683,0.06 -0.8005,0.2344 -0.2534,0.1902 -0.3924,0.463 -0.3524,0.6914995 0.016,0.094 0.053,0.1721 0.1253,0.2644 0.082,0.1046 0.1534,0.1653 0.2593,0.2195 0.1938,0.099 0.437,0.1325 0.6971,0.096 z m 0.1089,-5.9590995 c 0.2473,-0.028 0.4694,-0.1631 0.5874,-0.3583 0.2179,-0.3605 0.084,-0.7875 -0.3152,-1.0092 -0.1013,-0.056 -0.2765,-0.1099 -0.4199,-0.129 -0.089,-0.012 -0.2567,-0.013 -0.3417,0 -0.2186,0.026 -0.4037,0.1037 -0.5244,0.2188 -0.043,0.041 -0.061,0.064 -0.1122,0.1409 -0.112,0.1691 -0.1313,0.3485 -0.057,0.5334 0.1301,0.3251 0.5156,0.5835 0.9141,0.6128 0.069,0.01 0.1933,0 0.2693,-0.01 z"/>
</svg>
