<svg role="img" focusable="false" aria-hidden="true" xmlns="http://www.w3.org/2000/svg" viewBox="0 0 14 14" height="1em" width="1em">
  <path d="m 12.085404,3.3897434 0,-0.005 c -1.128908,-1.128908 -3.0110879,-1.128908 -4.2149236,0 l -4.5905599,4.668984 c -0.2997101,0.301209 -0.2997101,0.752772 0,1.053981 0.3047053,0.301209 0.7552695,0.301209 1.0549796,0 l 0.074927,-0.07493 0.4545604,-0.452063 3.4636499,-3.46415 0.6713506,-0.676845 0.074928,-0.07493 c 0.2247825,-0.226281 0.6019178,-0.376635 0.979053,-0.376635 0.377135,0 0.752772,0.150854 1.052982,0.452063 0.302208,0.304705 0.451563,0.680342 0.451563,1.055479 0,0.374637 -0.149855,0.755269 -0.451563,1.05398 L 6.6641471,10.990382 c 0.6029169,0.605415 1.5055438,0.605415 2.1079612,0 L 12.16183,7.6056654 c 1.129907,-1.205334 1.129907,-3.010588 -0.07593,-4.215922 z m -1.428618,1.501547 -0.0015,0 c -0.301709,-0.301708 -0.7532719,-0.301708 -1.0539811,0 l -0.074927,0.07493 -0.4520627,0.451563 -3.4596538,3.46365 -0.7552695,0.752772 C 4.6346093,9.8599864 4.2599717,10.01134 3.8793398,10.01134 3.5047022,10.01134 3.1300646,9.8599864 2.8293554,9.5597774 2.5296453,9.2585684 2.3782917,8.8829314 2.3782917,8.5057964 c 0,-0.376635 0.149855,-0.752772 0.4495652,-1.05398 l 4.4407048,-4.442204 c -0.6024173,-0.601918 -1.5060433,-0.601918 -2.1089602,0 l -3.3117967,3.388223 c -1.13040663,1.129907 -1.13040663,3.012087 0,4.2159216 1.1289081,1.130907 3.0110876,1.130907 4.2159223,0 L 10.731712,5.9462724 c 0.226281,-0.302208 0.226281,-0.752772 -0.07493,-1.05498 z"/>
</svg>
