<svg role="img" focusable="false" aria-hidden="true" xmlns="http://www.w3.org/2000/svg" viewBox="0 0 14 14" height="1em" width="1em">
  <path d="m 10.238045,1.5908152 c -0.06829,-0.002 -0.136708,0.007 -0.200328,0.0269 -0.1240211,0.0393 -0.2523921,0.11643 -0.3148021,0.23052 -0.126621,0.23149 -0.138233,0.54194 -0.04943,0.79038 0.243635,0.6816 0.9481891,1.10219 1.4786141,1.59029 0.180857,0.16642 1.885842,1.37283 1.013783,2.69265 -0.03302,0.05 -0.07088,0.0964 -0.113606,0.13953 0.116073,0.16672 0.22603,0.33723 0.313934,0.51912 0.04077,-0.0315 0.08,-0.0634 0.117942,-0.0953 0.640165,-0.53857 0.598473,-1.60621 0.336482,-2.14406 -0.232565,-0.47745 -0.593091,-0.88883 -0.966952,-1.26616 -0.337384,-0.34053 -1.491417,-1.00142 -1.624307,-1.41523 -0.06297,-0.19608 -0.118571,-0.50789 0.05724,-0.61532 0.09395,-0.0574 0.339577,0.01 0.460495,0.17073 0.06984,0.093 0.184202,0.23123 0.168241,-0.003 -0.01718,-0.25168 -0.299629,-0.5315 -0.476972,-0.58758 -0.06364,-0.0201 -0.132037,-0.032 -0.200328,-0.0338 z m -0.4986531,3.34437 c -0.02139,9.8e-4 -0.02969,0.0293 -0.02688,0.0971 0.02334,0.56444 -0.399655,0.7258 -0.462229,0.66904 -0.07095,-0.0644 -0.09612,-0.0263 -0.08672,0.0511 0.01244,0.10257 0.02185,0.12087 0.113606,0.28166 0.01536,0.0269 0.02408,0.0872 -0.01908,0.0208 -0.257195,-0.396 -0.128226,-0.71547 -0.04249,-0.93251 0.04901,-0.12407 -0.0085,-0.13593 -0.07458,-0.0563 -0.322034,0.38816 -0.640214,0.68379 -0.918388,1.20722 -0.03943,0.0742 -0.0405,0.125 0.06417,0.0338 0.258308,-0.22503 0.459129,-0.0457 0.375507,0.1352 -0.221567,0.47925 -0.6113,0.59398 -0.751014,0.65431 -0.522972,0.2258 -0.580506,0.20885 -0.809985,1.13876 -0.142849,0.57887 0.04771,1.9938598 0.222876,2.7645898 0.01694,0.0745 0.03509,0.14616 0.05463,0.2158 0.152746,-0.14606 0.306489,-0.3015 0.503856,-0.37526 -0.04605,-0.21187 -0.08655,-0.47415 -0.115341,-0.80598 -0.02308,-1.1012598 -0.0074,-2.1678698 1.505498,-1.9352098 1.1795361,0.16365 1.9269141,0.0595 2.4516371,-0.14992 -0.07468,-0.18993 -0.16559,-0.37253 -0.269706,-0.54858 -0.708073,0.22823 -1.6551741,0.14224 -2.0102211,-0.0529 -0.636803,-0.34994 -0.141953,-0.59871 -0.01734,-0.59452 0.302973,0.0102 0.43316,0.25117 0.454425,0.30332 0.06238,0.15302 0.09972,0.10383 0.1812491,0.0243 0.570162,-0.55636 0.374306,-1.60469 -0.2488931,-2.1042 -0.03353,-0.0269 -0.05794,-0.0424 -0.07458,-0.0416 z m 1.0883641,3.53329 c -0.238489,0.008 -0.512225,0.0898 -0.721529,0.33886 -0.3482861,0.41438 -0.4869261,0.92555 -0.5489511,1.3848898 0.174953,0.0655 0.355721,0.10953 0.5411461,0.13087 0.0622,-0.6547198 0.232576,-1.0550398 0.463964,-1.2652998 0.234763,-0.21333 0.473717,-0.15842 0.522935,-0.13346 0.08036,0.0407 0.131838,0.20672 0.136154,0.31892 0.01182,0.30732 0.229479,0.17627 0.269706,-0.052 0.02032,-0.1153 0.04913,-0.54007 -0.21854,-0.65084 -0.09506,-0.0393 -0.259394,-0.0781 -0.444885,-0.0719 z M 9.4983039,10.961805 c -0.0065,0.11991 -0.01417,0.22181 -0.02862,0.29726 -0.121206,0.63313 -0.439805,1.32126 -1.2488,0.43852 -0.03339,-0.0534 -0.07479,-0.11774 -0.118809,-0.20366 -0.1961,0.0595 -0.36946,0.18593 -0.485644,0.35446 0.120336,0.24649 0.249633,0.42899 0.362498,0.53731 0.552533,0.5303 1.200233,0.40501 1.515037,0.15426 0.238834,-0.19023 0.476938,-0.50114 0.5593591,-1.48195 -0.1883621,-0.0122 -0.3741691,-0.0438 -0.5550231,-0.0962 z M 11.381044,2.8509152 c -0.202663,0.006 -0.430509,0.0825 -0.663425,0.28512 0.140236,0.12173 0.294565,0.22874 0.446619,0.33713 0.127263,-0.0837 0.279057,-0.12287 0.450956,-0.104 0.479834,0.0527 0.647573,0.36021 0.719794,0.69158 0.03985,0.18285 0.180785,0.32097 0.180382,-0.0199 -3.08e-4,-0.25983 -0.0074,-0.55878 -0.445752,-0.93857 -0.114687,-0.0994 -0.352441,-0.24729 -0.648682,-0.25133 -0.01328,-2e-4 -0.02638,-4.2e-4 -0.03989,0 z m -1.052808,0.75137 c -0.01461,0.0228 -0.02967,0.0445 -0.04423,0.0685 -0.144334,0.23818 -0.262102,1.14601 0.150896,1.99155 0.1923,0.39369 0.48011,0.86282 0.85855,1.39095 0.947915,1.32286 0.874316,2.64747 -0.112739,3.1389698 0.08526,0.18218 0.144674,0.37732 0.163905,0.57718 0.604893,-0.26939 0.921223,-0.68334 1.074489,-1.1283598 0.403666,-1.17207 -0.116619,-2.11197 -0.267105,-2.33127 l -0.977359,-1.42392 c -0.443117,-0.64573 -0.532832,-1.37836 -0.373773,-1.88667 -0.158918,-0.13093 -0.319226,-0.26025 -0.472636,-0.39693 z m -2.2435041,5.07419 c -0.119316,0.004 -0.121151,0.0479 -0.152631,0.11353 -0.103313,0.21542 -0.114156,0.44695 -0.122278,0.67078 -0.008,0.22042 0.05469,0.30011 0.125747,0.33452 0.111019,0.0538 0.525318,0.4584998 0.849011,0.7288498 0.566179,0.47286 1.2883271,0.52853 1.8150961,0.45845 0.02688,-0.20827 -0.04231,-0.41752 -0.149163,-0.59972 -0.01933,0.002 -0.03841,0.003 -0.0581,0.004 -0.8850281,0.0522 -2.0323961,-0.6069698 -1.9070211,-1.5079498 0.01652,-0.11869 -0.07918,-0.12475 -0.106668,-0.14559 -0.06873,-0.0521 -0.155932,-0.0521 -0.235017,-0.0563 -0.02226,-10e-4 -0.04193,-10e-4 -0.05897,-8.6e-4 z m -5.539814,-5.82556 c -0.296241,0.004 -0.533995,0.15195 -0.648683,0.25133 -0.438347,0.37979 -0.444577,0.67874 -0.444885,0.93857 -4.02e-4,0.3409 0.139664,0.20278 0.179515,0.0199 0.07222,-0.33137 0.240828,-0.63892 0.720662,-0.69158 0.887965,-0.0975 1.239715,1.35087 0.439682,2.51672 l -0.791774,1.1535 c 0.137358,0.13146 0.309312,0.22531 0.489113,0.29119 0.05637,-0.0923 0.117523,-0.18476 0.183851,-0.27732 0.37844,-0.52813 0.66625,-0.99726 0.85855,-1.39095 0.412998,-0.84554 0.295231,-1.75337 0.150897,-1.99155 -0.39055,-0.64451 -0.801189,-0.82442 -1.136928,-0.81984 z m -0.915787,4.80119 c -0.184478,0.42081 -0.373116,1.14478 -0.08239,1.98894 0.181474,0.5269098 0.591781,1.0104598 1.438721,1.2618298 0.226013,0.0671 0.548441,0.11871 0.900177,0.10053 -0.01418,-0.20709 -0.01893,-0.41529 -0.03469,-0.62225 -0.09407,0.009 -0.187266,0.0114 -0.277511,0.006 -1.368175,-0.0806 -1.869404,-1.1532898 -1.400564,-2.4144498 -0.193169,-0.0857 -0.374652,-0.19427 -0.543748,-0.32066 z m 4.25199,1.02437 c -0.01705,-5.2e-4 -0.03671,-3.2e-4 -0.05897,8.6e-4 -0.07909,0.004 -0.166289,0.004 -0.235017,0.0563 -0.02749,0.0208 -0.123186,0.0269 -0.106669,0.14559 0.08305,0.5968 -0.392317,1.08733 -0.979961,1.3354898 0.02765,0.2194 0.04185,0.44018 0.0529,0.66125 0.218225,-0.0757 0.432441,-0.18863 0.627869,-0.35185 0.323692,-0.27035 0.737992,-0.6750698 0.84901,-0.7288498 0.07106,-0.0344 0.133746,-0.11411 0.125747,-0.33452 -0.0081,-0.22383 -0.01896,-0.45536 -0.122278,-0.67078 -0.03148,-0.0656 -0.03329,-0.10989 -0.152631,-0.11353 z m 2.788119,-0.53212 c -0.19075,0.004 -0.37685,0.0619 -0.548951,0.27819 -0.04682,0.0589 -0.134506,0.14498 0.02602,0.1638 0.404341,0.0474 0.522582,0.12619 0.687707,0.24699 0.281746,0.20611 0.573777,0.40456 0.842073,0.62051 0.07514,-0.20491 0.177262,-0.39987 0.305262,-0.57631 -0.131224,-0.11376 -0.30665,-0.26016 -0.581039,-0.48792 -0.01205,-0.01 -0.02447,-0.0628 -0.02168,-0.0936 0.007,-0.078 -0.02865,-0.10829 -0.132685,-0.10746 -0.190948,0.002 -0.385953,-0.0483 -0.576703,-0.0442 z m 1.7639301,1.16043 c -0.118832,0.20009 -0.182963,0.42556 -0.228079,0.65345 0.0113,0.0134 0.02279,0.0271 0.03382,0.0407 0.309452,0.3828598 0.702699,0.9232198 0.131818,1.4862898 -0.104679,0.10325 -0.227041,0.1457 -0.352959,0.14906 -1.6e-5,6e-5 -8.52e-4,-5e-5 -8.66e-4,0 -0.04458,0.19169 -0.1056901,0.37842 -0.1933911,0.55292 0.4379271,0.11477 0.8568171,0.0546 1.1690161,-0.39952 0.434949,-0.63266 0.493486,-1.41814 -0.46223,-2.3849998 -0.03922,-0.0397 -0.06458,-0.0651 -0.09713,-0.0979 z M 8.1723219,10.844805 c -0.406733,0.001 -0.611075,0.28958 -0.804782,0.45846 -0.277751,0.24214 -0.345684,0.74129 -0.201196,1.14223 0.04873,0.13522 0.155291,0.49518 0.482176,0.53905 0.274148,0.0368 0.410815,0.0143 0.183851,-0.13779 -0.152977,-0.10249 -0.227022,-0.22581 -0.294856,-0.32847 -0.203874,-0.30851 -0.0093,-0.72976 0.206399,-0.89437 0.660506,-0.5041 0.97586,0.0419 1.380618,0.26607 0.01181,0.007 0.02371,0.0126 0.03556,0.0191 0.114343,-0.14844 0.182028,-0.32594 0.223739,-0.51045 -0.01057,-0.008 -0.02122,-0.015 -0.03122,-0.0225 -0.528833,-0.39853 -0.901998,-0.53207 -1.180289,-0.53125 z M 5.3174269,8.1443552 c -0.190751,-0.004 -0.386623,0.0457 -0.57757,0.0442 -0.104039,-8.3e-4 -0.139735,0.0295 -0.132685,0.10746 0.0028,0.0308 -0.0096,0.0836 -0.02168,0.0936 -0.748034,0.62091 -0.767388,0.64627 -1.12999,1.0131 -0.268168,0.2713 -0.456756,0.52795 -0.579305,0.7713098 0.199171,0.0865 0.413439,0.13299 0.630471,0.1534 0.07342,-0.11861 0.159682,-0.22881 0.24022,-0.3284598 0.373279,-0.46182 0.905799,-0.80052 1.4049,-1.16563 0.165126,-0.1208 0.283367,-0.1996 0.687707,-0.24699 0.160523,-0.0188 0.07284,-0.10495 0.02602,-0.1638 -0.172102,-0.21631 -0.357334,-0.27406 -0.548084,-0.27819 z m 0.486511,2.7013198 c -0.27722,0.002 -0.647904,0.13637 -1.17075,0.53038 -0.257949,0.19439 -0.712905,0.41024 -1.018118,0.1092 -0.15421,-0.15209 -0.237277,-0.30279 -0.271441,-0.44892 -0.223498,-0.0322 -0.441756,-0.0929 -0.651284,-0.17679 -0.0092,0.34074 0.109183,0.64927 0.300926,0.92817 0.477589,0.69468 1.20494,0.46951 1.867997,0.10227 0.320161,-0.17733 0.58431,-0.5549 1.007712,-0.45586 0.08324,-0.17581 0.139534,-0.36201 0.182984,-0.55118 -0.07392,-0.0241 -0.155619,-0.0379 -0.248026,-0.0373 z m 0.84294,0.48359 c -0.0562,0.1839 -0.12458,0.36423 -0.208133,0.53732 0.104413,0.19567 0.144266,0.44784 0.0095,0.6517 -0.06783,0.10266 -0.141879,0.22598 -0.294855,0.32847 -0.226965,0.15205 -0.0903,0.17458 0.183851,0.13779 0.326884,-0.0439 0.433446,-0.40383 0.482175,-0.53905 0.13949,-0.38707 0.08154,-0.86571 -0.172577,-1.11623 z M 3.7624969,1.5968752 c -0.06829,0.002 -0.13669,0.0137 -0.200328,0.0338 -0.177343,0.0561 -0.459794,0.3359 -0.476972,0.58758 -0.01596,0.23383 0.09754,0.0956 0.167374,0.003 0.120918,-0.16094 0.366543,-0.22814 0.460495,-0.17073 0.175807,0.10743 0.120206,0.41924 0.05724,0.61532 -0.04533,0.14114 -0.210609,0.31106 -0.420602,0.48704 0.118994,0.11636 0.221681,0.24838 0.313934,0.38739 0.28601,-0.25917 0.537046,-0.54253 0.663425,-0.8961 0.0888,-0.24844 0.07719,-0.55802 -0.04943,-0.78951 -0.06241,-0.11409 -0.190781,-0.19119 -0.314801,-0.23053 -0.06362,-0.0202 -0.132038,-0.0287 -0.200329,-0.0269 z m -0.940068,1.95861 c -0.277661,0.20149 -0.541923,0.38856 -0.676434,0.52433 -0.373861,0.37733 -0.734387,0.78958 -0.966952,1.26702 -0.26199102,0.53786 -0.30281602,1.6055 0.337349,2.14407 0.532327,0.44786 1.311118,0.8771 3.210456,0.61359 1.512889,-0.23267 1.529449,0.8348 1.506365,1.9360698 -0.09727,1.12115 -0.329554,1.46349 -0.454424,1.66309 -0.463905,0.50619 -0.765988,0.49518 -0.962617,0.27472 -0.187536,0.0994 -0.382036,0.18831 -0.585375,0.24786 0.08521,0.14869 0.180626,0.24314 0.275777,0.31892 0.314804,0.25075 0.962505,0.37691 1.515037,-0.15339 0.217975,-0.20921 0.496513,-0.69331 0.653886,-1.38576 0.175164,-0.77073 0.366591,-2.1857198 0.223743,-2.7645898 -0.229479,-0.92992 -0.287013,-0.91383 -0.809986,-1.13963 -0.139714,-0.0603 -0.529447,-0.17419 -0.751014,-0.65345 -0.08362,-0.18088 0.117199,-0.36022 0.375507,-0.13519 0.104677,0.0912 0.102736,0.0404 0.06331,-0.0338 -0.278174,-0.52343 -0.595487,-0.81993 -0.917521,-1.20809 -0.06604,-0.0796 -0.124457,-0.0677 -0.07545,0.0563 0.08573,0.21704 0.214701,0.53651 -0.04249,0.9325 -0.04315,0.0665 -0.03444,0.006 -0.01908,-0.0208 0.09175,-0.16079 0.102033,-0.17909 0.114474,-0.28166 0.0094,-0.0774 -0.01664,-0.11461 -0.08759,-0.0503 -0.06257,0.0568 -0.484698,-0.10546 -0.461362,-0.6699 0.005,-0.1205 -0.02482,-0.11604 -0.101465,-0.0546 -0.623199,0.49951 -0.819054,1.54784 -0.248893,2.10421 0.08153,0.0796 0.118869,0.12875 0.18125,-0.0243 0.02126,-0.0522 0.151452,-0.29398 0.454424,-0.30419 0.124608,-0.004 0.618591,0.24545 -0.01821,0.59539 -0.506475,0.27831 -2.217822,0.33566 -2.721343,-0.42639 -0.87205902,-1.31983 0.832926,-2.52623 1.013783,-2.69266 0.08397,-0.0773 0.172552,-0.15269 0.262768,-0.22792 -0.05828,-0.17237 -0.148444,-0.33592 -0.287917,-0.45153 z m 0.320005,4.91819 c -0.01634,-1.1e-4 -0.03264,3.5e-4 -0.04856,8.7e-4 -0.152842,0.005 -0.284486,0.0382 -0.365968,0.0719 -0.267669,0.11078 -0.239726,0.53555 -0.219407,0.65084 0.04023,0.22827 0.258754,0.35933 0.270574,0.052 0.0043,-0.1122 0.05493,-0.27903 0.135286,-0.31978 0.04922,-0.025 0.28904,-0.0799 0.523802,0.13346 0.04562,0.0414 0.08872,0.0906 0.129216,0.14732 0.119126,-0.11872 0.240634,-0.23494 0.367703,-0.34578 -0.01373,-0.0175 -0.02719,-0.0348 -0.04163,-0.052 -0.218025,-0.2594 -0.505958,-0.33709 -0.751014,-0.33886 z m 1.149936,1.06511 c -0.157892,0.13061 -0.306079,0.26964 -0.441416,0.42292 5.6e-5,2.8e-4 -5.5e-5,6e-4 0,8.7e-4 0.03756,0.2009298 0.06251,0.4337998 0.07198,0.7011098 0.01335,0.37676 0.045,0.67443 0.09019,0.91343 0.193852,-0.0112 0.379224,-0.10044 0.538545,-0.21146 -0.0076,-0.0339 -0.01521,-0.0676 -0.02168,-0.10139 -0.05858,-0.306 -0.0019,-1.03378 -0.237619,-1.7254798 z m 2.467247,-8.53815 c -0.03532,4.3e-4 -0.07093,0.006 -0.104934,0.0121 -0.519488,0.0924 -1.013135,0.32259 -1.470809,0.58498 -0.231694,0.13284 -0.293813,0.18898 -0.406727,0.43939 -0.246581,0.54685 -0.450762,1.23469 -0.594047,1.69861 -0.07688,0.24894 -0.02328,0.29185 0.0555,0.39606 0.831318,1.09958 1.890103,2.29946 2.448168,3.25424 0.05242,0.0897 0.120764,0.25877 0.290224,-0.0571 0.01863,-0.0439 0.02256,-0.0309 0.04038,0.003 0.168272,0.31176 0.236348,0.14346 0.288597,0.0541 0.558066,-0.95478 1.61685,-2.15466 2.448168,-3.25424 0.07879,-0.10421 0.132384,-0.14712 0.0555,-0.39606 -0.143284,-0.46392 -0.347465,-1.15176 -0.594047,-1.69861 -0.112914,-0.25041 -0.175033,-0.30655 -0.406727,-0.43939 -0.457674,-0.26239 -0.951321,-0.49262 -1.470809,-0.58498 -0.068,-0.0121 -0.143546,-0.0214 -0.207266,0.005 -0.04011,0.0168 -0.06836,0.0611 -0.110251,0.0771 -0.01394,0.005 -0.02999,0.009 -0.04444,0.005 -0.04546,-0.0117 -0.07204,-0.0649 -0.114146,-0.0825 -0.03186,-0.0133 -0.06702,-0.0178 -0.102332,-0.0173 z"/>
</svg>
