<svg role="img" focusable="false" aria-hidden="true" xmlns="http://www.w3.org/2000/svg" viewBox="0 0 14 14" height="1em" width="1em">
  <path d="M 7,1 C 3.6865,1 1,3.6865 1,7 c 0,3.3135 2.6865,6 6,6 3.3135,0 6,-2.6865 6,-6 C 13,3.6865 10.3135,1 7,1 Z m 3.2445,6.9825 C 9.619,7.57 9.262,7.221 8.95,6.594 8.7365,7.0235 8.2395,7.6615 7.401,8.1635 6.981,9.4685 4.9895,11.966 4.3445,11.606 4.154,11.5085 4.1185,11.366 4.161,11.2235 c 0.0465,-0.352 0.783,-1.17 0.783,-1.17 0,0 0.0145,0.1725 0.247,0.5325 C 4.8765,9.618 5.7015,8.4335 5.919,8.0205 6.2635,7.916 6.286,7.473 6.286,7.473 6.309,6.791 6.0015,6.303 5.7085,6.003 5.919,6.2655 5.9865,6.656 5.9935,7.0155 l 0,0.1275 C 5.979,7.4435 5.8885,7.848 5.701,7.848 l 0,0.008 C 5.506,7.848 5.2585,7.893 5.0415,7.961 L 4.561,8.0805 c 0,0 0.255,-0.0075 0.39,0.113 C 4.794,8.4485 4.4485,8.756 4.0655,8.9355 3.511,9.198 3.346,8.6805 3.631,8.3505 3.6985,8.268 3.7735,8.2005 3.833,8.1485 3.788,8.1035 3.7655,8.0435 3.7585,7.9685 3.721,7.796 3.736,7.5785 3.9835,7.226 4.0285,7.1515 4.0885,7.076 4.156,7.0015 l 0.0075,-0.008 0.008,-0.0075 0,-0.0075 C 4.186,6.9555 4.2085,6.9405 4.2235,6.9185 4.5085,6.626 4.966,6.3185 5.679,6.0485 6.526,4.8035 6.8335,4.5705 6.8335,4.5705 6.924,4.481 7.089,4.361 7.141,4.331 6.706,3.5735 6.6165,2.508 6.729,2.2235 6.714,2.2385 6.706,2.2535 6.6985,2.276 6.7435,2.1785 6.766,2.1485 6.811,2.096 c 0.12,-0.135 0.5175,-0.21 0.668,0.09 0.075,0.1575 0.09,0.3675 0.09,0.5175 -0.3225,-0.0145 -0.6075,0.345 -0.6075,0.345 0,0 0.262,-0.12 0.593,-0.1275 0,0 0.0895,0.082 0.1945,0.2245 -0.142,0.278 -0.3895,0.8625 -0.21,1.4855 0.0305,0.12 0.075,0.225 0.128,0.3145 0.0075,0.008 0.0075,0.008 0.0075,0.0155 l 0.015,0.0145 C 7.982,5.4185 8.514,5.4635 8.514,5.4635 8.2665,5.3435 8.0565,5.1405 7.9295,4.901 7.8615,4.7735 7.816,4.661 7.794,4.578 7.6515,4.038 7.8615,3.7155 7.9815,3.5055 c 0.27,-0.42 0.772,-0.6755 1.3045,-0.615 0.75,0.0825 1.2905,0.765 1.1995,1.515 C 10.4335,4.863 10.156,5.246 9.781,5.448 9.8715,5.695 9.7735,5.988 9.7735,5.988 9.998,6.273 10.013,6.438 10.006,6.5955 9.7135,6.5505 9.4355,6.746 9.4355,6.746 c 0,0 0.5555,-0.128 0.878,0.157 0.21,0.2245 0.352,0.435 0.4345,0.585 0.12,0.2175 0.675,0.2325 0.6145,0.615 -0.0675,0.3895 -0.4945,0.3895 -1.155,-0.045 l 0.037,-0.0755 z m -2.412,-2.305 c -0.11,-0.1095 -0.287,-0.1095 -0.3975,0 l -0.2325,0.234 c -0.111,0.105 -0.111,0.285 0,0.398 l 0.255,0.255 c 0.111,0.1125 0.2885,0.105 0.3975,0 L 8.09,6.3315 C 8.2005,6.219 8.2005,6.039 8.09,5.9345 L 7.8325,5.672 l 0,0.0055 z M 6.73,5.5845 c -0.07,0.07 -0.07,0.184 0,0.2555 0.0705,0.069 0.184,0.069 0.255,0 0.07,-0.0715 0.07,-0.1855 0,-0.2555 C 6.914,5.514 6.8005,5.514 6.73,5.5845 Z m 0.6345,-0.126 c 0.071,-0.0695 0.071,-0.183 0,-0.255 -0.0705,-0.069 -0.1835,-0.069 -0.255,0 -0.0695,0.072 -0.0695,0.1855 0,0.255 0.071,0.071 0.1845,0.071 0.255,0 z M 10.057,4.8065 C 10.3525,4.241 9.9335,3.911 9.6445,3.6405 9.1825,3.2055 8.7215,3.018 8.1945,3.626 7.6685,4.2255 8.003,4.9305 8.4845,5.268 8.9645,5.613 9.752,5.381 10.052,4.8105 l 0.005,-0.004 z M 9.2595,4.575 C 9.0735,4.3525 9.4205,3.949 9.638,4.19 10.038,4.635 9.4445,4.798 9.2595,4.575 Z"/>
</svg>
