<svg role="img" focusable="false" aria-hidden="true" xmlns="http://www.w3.org/2000/svg" viewBox="0 0 14 14" height="1em" width="1em">
  <path d="m 6.96499,1.000079 c -0.61711,0 -1.2357,0.056 -1.9384,0.1613 -1.09141,0.1641 -2.19962,0.4989 -2.90561,0.8778 l -0.14528,0.078 0,3.2204 0,3.2204 0.0546,0.3003 c 0.0639,0.3515 0.20439,0.7882 0.34088,1.0596 0.23374,0.4649 0.64146,0.9585 1.03154,1.2488 0.48862,0.3637 1.68247,0.9909 3.17356,1.6674 0.19976,0.091 0.38847,0.1653 0.41939,0.1659 0.17404,0 2.53598,-1.1668 3.23429,-1.6024 0.95597,-0.5963 1.5379,-1.4557 1.74104,-2.5713 0.0532,-0.2919 0.0533,-0.3 0.0533,-3.5008 l 0,-3.2083 -0.14528,-0.078 c -0.72134,-0.3872 -1.8616,-0.7273 -2.98459,-0.8903 C 8.19773,1.047779 7.58212,0.99807901 6.965,1.000079 Z m 2.39855,1.0921 c 0.97168,0 2.18921,0.038 2.2824,0.096 0.0199,0.012 0.0272,0.842 0.0272,3.0893 0,2.5863 -0.006,3.1157 -0.0362,3.3461 -0.13596,1.0291 -0.625,1.833 -1.4449,2.375 -0.36413,0.2407 -0.7284,0.4418 -1.47296,0.8128 -0.52775,0.263 -1.68622,0.8033 -1.72024,0.8022 -0.006,-2e-4 -0.23439,-0.1005 -0.50739,-0.223 -0.59315,-0.2662 -1.82833,-0.8767 -2.16711,-1.0712 -0.63338,-0.3637 -1.00476,-0.6582 -1.27938,-1.0144 -0.3518,-0.4564 -0.52378,-0.8369 -0.65031,-1.439 -0.0535,-0.2548 -0.0546,-0.2942 -0.0624,-2.249 l -0.008,-1.9896 0.21305,-0.1866 c 0.51461,-0.4507 1.21239,-0.9224 1.82324,-1.2326 1.16584,-0.5919 2.37713,-0.9233 3.9589,-1.0831 0.21139,-0.021 0.60225,-0.031 1.04392,-0.033 z m 0.83589,2.7755 c -0.0988,0 -0.19422,0.012 -0.28017,0.032 -0.38197,0.09 -0.68503,0.3172 -0.83726,0.6277 -0.0674,0.1375 -0.083,0.2005 -0.0919,0.3697 -0.0309,0.5884 0.18206,0.9146 0.8759,1.342 0.42821,0.2638 0.55777,0.4272 0.55931,0.7052 7.8e-4,0.1411 -0.008,0.1743 -0.0717,0.2642 -0.0996,0.141 -0.22513,0.2012 -0.44298,0.2124 -0.21501,0.011 -0.43845,-0.053 -0.6706,-0.1934 -0.0852,-0.051 -0.16102,-0.093 -0.16841,-0.093 -0.007,0 -0.0134,0.1641 -0.0134,0.3648 l 0,0.3648 0.18075,0.083 c 0.35883,0.1658 0.75921,0.2182 1.1055,0.1448 0.43844,-0.093 0.7703,-0.4043 0.88005,-0.8256 0.0461,-0.1771 0.0479,-0.5619 0.003,-0.7292 -0.0978,-0.3675 -0.31537,-0.5935 -0.94683,-0.9834 -0.35764,-0.2208 -0.47216,-0.3633 -0.47216,-0.5873 0,-0.1269 0.0387,-0.2135 0.13705,-0.307 0.21548,-0.2046 0.64342,-0.1817 0.99554,0.053 0.0796,0.053 0.15149,0.097 0.1598,0.097 0.008,0 0.0151,-0.1524 0.0151,-0.3386 l 0,-0.3386 -0.0943,-0.062 c -0.19816,-0.1312 -0.52596,-0.2069 -0.8225,-0.2024 z m -3.09928,0.027 c -0.0327,6e-4 -0.0661,0 -0.10016,0 -0.15315,0.01 -0.34629,0.031 -0.42917,0.051 -0.21552,0.052 -0.48694,0.1614 -0.55431,0.2237 l -0.0577,0.053 0,2.8422 c 0,1.5632 0.008,2.8497 0.0167,2.8589 0.009,0.01 0.19715,0.014 0.41769,0.01 l 0.40099,-0.01 0.006,-0.9096 0.006,-0.9095 0.35686,0 c 0.31362,10e-4 0.37671,-0.01 0.52068,-0.055 0.57742,-0.1995 0.94875,-0.7645 1.06071,-1.6142 0.0356,-0.2702 0.0149,-0.9529 -0.0356,-1.1753 -0.0977,-0.4302 -0.2349,-0.7038 -0.47424,-0.9458 -0.30412,-0.3075 -0.64439,-0.4371 -1.13515,-0.4283 z m -1.67376,0.042 -0.41783,0.01 -0.41782,0.01 -0.0121,1.6681 -0.0121,1.6681 -0.0661,0.049 c -0.0506,0.038 -0.11296,0.052 -0.26635,0.059 -0.17344,0.01 -0.2149,0 -0.30924,-0.047 -0.0879,-0.045 -0.12298,-0.084 -0.1816,-0.2014 l -0.0726,-0.1453 -0.0121,-1.5255 -0.0121,-1.5254 -0.41163,0 -0.41163,0 0,1.5618 c 0,1.4267 0.004,1.5753 0.0434,1.7191 0.13305,0.4825 0.40827,0.7561 0.86464,0.8596 0.22768,0.052 0.76758,0.034 1.05347,-0.034 0.11998,-0.029 0.31066,-0.098 0.42373,-0.1543 l 0.20563,-0.1023 0.006,-1.9316 0.006,-1.9316 z m 1.75164,0.5857 c 0.24943,9e-4 0.43468,0.1327 0.54812,0.3904 0.0997,0.2266 0.13297,0.4851 0.13152,1.0226 -10e-4,0.5384 -0.0232,0.7011 -0.13298,0.9926 -0.0689,0.1829 -0.27643,0.3993 -0.42488,0.443 -0.11819,0.035 -0.35748,0.035 -0.45115,0 l -0.0666,-0.024 0,-1.3673 0,-1.3673 0.0908,-0.039 c 0.0499,-0.022 0.16444,-0.044 0.25443,-0.05 0.0172,-0.001 0.0341,0 0.0507,0 z"/>
</svg>
