<svg role="img" focusable="false" aria-hidden="true" xmlns="http://www.w3.org/2000/svg" viewBox="0 0 14 14" height="1em" width="1em">
  <path d="m 3.2529322,10.600279 c 0.025016,0.12962 -0.052306,0.25243 -0.1819341,0.27972 -0.1228055,0.025 -0.2478852,-0.0523 -0.2729012,-0.18193 -0.025016,-0.12281 0.052306,-0.25244 0.1751116,-0.27973 0.1228055,-0.0273 0.2524336,0.0523 0.2797237,0.18194 z m 3.2543465,1.62376 c -0.1432731,0.10461 -0.1819341,0.30474 -0.084144,0.45483 0.1046121,0.1501 0.3047396,0.18876 0.4548352,0.0842 0.1432732,-0.10461 0.1819342,-0.30474 0.077322,-0.45484 -0.095515,-0.14782 -0.2979171,-0.18875 -0.4480127,-0.0841 z M 4.551487,1.7105186 c 0.1432731,-0.0318 0.2342401,-0.17511 0.2024017,-0.31838 -0.025016,-0.1501 -0.1682891,-0.24107 -0.3115622,-0.20695 -0.1432731,0.0318 -0.2342402,0.17511 -0.2069501,0.31838 0.031839,0.1501 0.1728374,0.24106 0.3161106,0.20695 z m -2.7676728,4.6143 c -0.2274176,-0.15691 -0.5389798,-0.0978 -0.695898,0.13645 -0.15691813,0.22742 -0.0977895,0.54581 0.1296281,0.70272 0.2274176,0.16147 0.5389798,0.10462 0.695898,-0.12962 0.1569182,-0.23652 0.09779,-0.54808 -0.1296281,-0.70955 z m 6.1857599,-3.88656 c 0.2410627,-0.14328 0.3115622,-0.45484 0.1751116,-0.68908 -0.1432731,-0.24106 -0.4480127,-0.31838 -0.6822529,-0.17511 -0.2342402,0.14327 -0.3115622,0.45483 -0.1682891,0.6959 0.1364506,0.23424 0.4411903,0.31156 0.6754304,0.16829 z m -4.3459511,1.31902 c 0.1751116,-0.12281 0.2137726,-0.36387 0.09779,-0.53898 -0.115983,-0.17511 -0.3570457,-0.21377 -0.5253348,-0.0978 -0.1751116,0.1228 -0.2137726,0.36387 -0.09779,0.53898 0.115983,0.17738 0.3547715,0.21605 0.5253348,0.0978 z m 8.466759,3.54771 c -0.16829,0.0387 -0.279724,0.20695 -0.241063,0.38434 0.03184,0.16829 0.202402,0.27972 0.370691,0.24106 0.168289,-0.0318 0.279723,-0.2024 0.241062,-0.37751 -0.03411,-0.16829 -0.202401,-0.27972 -0.37069,-0.24789 z m 0.902848,-1.29173 c -0.02502,-0.12963 -0.150096,-0.20695 -0.272902,-0.18193 -0.129628,0.025 -0.20695,0.15692 -0.181934,0.28654 0.02502,0.12281 0.150096,0.20695 0.279724,0.18194 0.122805,-0.0341 0.20695,-0.15692 0.175112,-0.28655 z m -1.826164,-1.67607 c -0.195579,0.13645 -0.241063,0.40253 -0.111435,0.59811 0.129628,0.19558 0.395707,0.24106 0.591286,0.11144 0.188757,-0.13645 0.23424,-0.40253 0.104612,-0.59811 -0.129628,-0.19786 -0.395706,-0.24789 -0.584463,-0.11144 z m -0.143273,3.17021 c 0.598108,0.98017 0.3434,2.27417 -0.598108,2.9359604 -0.395707,0.27972 -0.8437198,0.40253 -1.2940067,0.38888 -0.2729012,1.07114 -1.5782785,1.46912 -2.3901594,0.74138 -0.025016,0.0205 -0.059129,0.0387 -0.084145,0.0659 -0.889203,0.61631 -2.0990648,0.39571 -2.7153666,-0.50714 -0.2205951,-0.3252 -0.3320298,-0.6959 -0.3434007,-1.06659 C 2.1112953,9.8179086 1.5518478,7.9280686 2.6639201,6.8887686 c -0.6435919,-1.06659 0.013645,-2.44247 1.2144102,-2.61303 0.5708183,-1.5055 2.4470139,-2.2196 3.7205527,-1.2326 1.5327949,-0.50714 3.099702,0.66861 2.976897,2.29919 0.934687,0.28655 1.200765,1.52142 0.448013,2.16502 z m -1.5919234,1.68971 c -0.0705,-0.46848 -0.9301382,-0.10461 -0.9801701,-0.6163 -0.070499,-0.72774 0.9938151,-2.2992 0.9096706,-2.91095 -0.077322,-0.5458 -0.4411902,-0.66178 -0.7595749,-0.66861 -0.3047397,-0.007 -0.3843358,0.0455 -0.4866738,0.10462 -0.065951,0.0387 -0.1500956,0.11143 -0.2660786,-0.007 -0.1432731,-0.13645 -0.2524336,-0.26608 -0.4411902,-0.29337 -0.2797238,-0.0455 -0.4025293,0.0455 -0.604931,0.2206 -0.077322,0.0659 -0.2729012,0.29337 -0.4548353,0.20695 -0.077322,-0.0387 -0.3502231,-0.17511 -0.5458023,-0.25926 -0.3706908,-0.16146 -0.9096706,0.10462 -1.1052497,0.45484 -0.2933688,0.52078 -0.8641871,2.57209 -0.9483316,2.84499 -0.1955792,0.60493 0.2478852,1.10525 0.8391711,1.07114 0.2524336,-0.0136 0.4161743,-0.10461 0.5776408,-0.39571 0.090967,-0.16829 0.9483316,-2.44928 1.0142827,-2.56072 0.045484,-0.0773 0.2024017,-0.18193 0.3320297,-0.11598 0.1296281,0.0705 0.1569182,0.21377 0.1364506,0.3434 -0.025016,0.22059 -0.6367694,1.61239 -0.657237,1.76703 -0.077322,0.52079 0.6117535,0.60493 0.8778321,0.091 0.084145,-0.16147 1.0392987,-2.10589 1.1234432,-2.23551 0.09779,-0.14328 0.168289,-0.18876 0.2660786,-0.18194 0.0705,0 0.1887567,0.0205 0.1614666,0.24789 -0.031839,0.21377 -0.798236,1.64423 -0.8846547,1.99445 -0.1046121,0.46848 0.1500957,0.94151 0.56627,1.15073 0.2592561,0.12963 1.4213602,0.35705 1.3303932,-0.25243 z m 0.129628,2.0990604 c -0.2342401,0.16829 -0.2933687,0.50032 -0.129628,0.74139 0.1614665,0.24106 0.4866737,0.29791 0.7277364,0.13645 0.241063,-0.16829 0.297917,-0.50032 0.136451,-0.74139 -0.168289,-0.24106 -0.4934967,-0.30701 -0.7345594,-0.13645 z"/>
</svg>
