<svg role="img" focusable="false" aria-hidden="true" xmlns="http://www.w3.org/2000/svg" viewBox="0 0 14 14" height="1em" width="1em">
  <path d="m 13,3.3391531 c 0,-1.039957 -0.836965,-1.886922 -1.863422,-1.886922 l -8.2741556,0 C 1.8349652,1.4517311 1,2.2986961 1,3.3416531 l 0,3.767843 c 0,0.167993 0.022499,0.333486 0.067497,0.498479 0.014999,0.067 0.034998,0.131994 0.059997,0.194992 0.1249948,0.311487 0.3264864,0.584975 0.5864756,0.796467 0.2549893,0.261989 0.5849756,0.547477 0.982459,0.854964 l 0.052498,0.037 0.217491,0.164993 0.2599891,0.198492 c 0.5949752,0.4559809 1.6024333,1.2264489 3.0823716,2.3549019 0.2414897,0.18299 0.5189782,0.337984 0.691471,0.337984 0.1714928,0 0.4509812,-0.154994 0.6914712,-0.337986 1.4799383,-1.128453 2.4858965,-1.898921 3.0818715,-2.3549019 l 0.48598,-0.369984 -0.001,0 0.055,-0.0425 c 0.398984,-0.305987 0.73147,-0.594975 0.983959,-0.854964 0.25699,-0.208991 0.453981,-0.47998 0.574976,-0.787967 0.083,-0.219991 0.125995,-0.452981 0.126995,-0.687971 l 0,-3.574852 -0.0015,0 0.0015,-0.0015 0,-0.194992 z m -2.069914,3.12087 c -0.0465,-0.0085 -0.094,-0.016 -0.141494,-0.0225 -0.0525,0 -0.112995,-0.0075 -0.164993,-0.0075 -0.138994,-0.003 -0.277988,0.025 -0.404983,0.082 -0.106996,0.05 -0.199992,0.123995 -0.2699889,0.217991 -0.067497,0.098 -0.1149952,0.207492 -0.142994,0.322987 -0.029999,0.126995 -0.044998,0.261989 -0.044998,0.404983 l 0,1.43994 -2.5133953,0 -1.8669222,-2.791384 -0.7779676,0.787468 0,1.987417 -1.3599433,0 0,-6.184743 1.3579434,0 0,2.564894 2.4148994,-2.563394 1.6979292,0 -2.4148994,2.442399 2.5828924,3.646348 0,-3.089372 0.8309654,0 0,0.590976 0.0115,0 c 0.041998,-0.0975 0.097496,-0.189992 0.1649931,-0.273489 0.071997,-0.084 0.1499938,-0.155993 0.2414898,-0.214991 0.09,-0.053 0.187492,-0.104995 0.289988,-0.134994 0.102496,-0.03 0.209991,-0.045 0.319987,-0.045 0.057,0 0.119995,0.015 0.189992,0.03 l 0,0.809967 z"/>
</svg>
