<svg aria-hidden="true" xmlns="http://www.w3.org/2000/svg" viewBox="0 0 14 14" height="1em" width="1em">
  <path d="M6.589 12.061a2.477 2.477 0 0 1-.387-.138c-.077-.04-1.1-.472-2.274-.961-2.268-.945-2.655-1.12-2.822-1.277-.1-.092-.106-.137-.106-.704v-.605l.152.128c.191.16.355.235 2.543 1.146.98.407 2.024.846 2.32.975.878.382 1.034.374 2.06-.104.35-.163 1.332-.597 2.183-.964 1.958-.845 2.474-1.088 2.623-1.237L13 8.2v.61c0 .605-.001.61-.129.73-.172.16-.652.385-2.707 1.273-.954.412-1.956.854-2.226.982-.432.205-.87.346-1.046.336-.03 0-.167-.033-.303-.07zm.077-1.945a3.275 3.275 0 0 1-.445-.164c-.152-.068-1.227-.52-2.39-1.005-2.245-.937-2.558-1.079-2.725-1.232C1.006 7.624 1 7.58 1 7.008V6.4l.106.097c.172.158.601.354 2.654 1.208 1.073.446 2.124.888 2.336.982.763.336 1.008.317 2.012-.153.383-.18 1.393-.626 2.244-.992 1.865-.803 2.35-1.032 2.52-1.189l.128-.12v1.205l-.17.15c-.2.176-.35.246-2.596 1.219-.94.407-1.943.85-2.226.983-.489.23-.94.382-1.1.372-.04 0-.149-.023-.242-.045zm.006-2.057c-.09-.018-.512-.183-.938-.365a293.61 293.61 0 0 0-2.297-.965c-1.912-.795-2.097-.88-2.285-1.037L1 5.563v-.631c0-.348.022-.673.048-.722.069-.128.105-.144 2.131-.935C6.62 1.933 6.804 1.87 7.21 1.87c.395 0 .515.04 2.86.958 1.135.445 2.212.865 2.395.934.537.203.535.2.535.97 0 .657 0 .658-.129.78-.166.157-.71.413-2.613 1.232-.851.366-1.835.8-2.187.966-.353.166-.751.322-.886.347-.268.051-.275.051-.513 0zm.964-2.56c.223-.324.395-.6.382-.612-.022-.022-.967.113-2.166.309l-.516.084.187.079c.2.084 1.681.715 1.697.723.005 0 .192-.26.416-.584zm2.905-.976c.482-.19.858-.357.835-.37-.094-.059-1.495-.605-1.562-.609-.102-.01-1.794.672-1.76.706.038.038 1.487.612 1.555.616.03 0 .45-.153.932-.343zm-5.064.18c.694-.241.723-.62.065-.873-.32-.124-1.152-.17-1.61-.09-.391.068-.761.248-.833.405-.104.23.217.49.76.615.359.082 1.312.048 1.618-.058zm1.957-.994.091-.24.359-.03c.197-.018.42-.047.496-.065.128-.03.113-.042-.223-.164-.198-.072-.36-.156-.36-.186.001-.03.043-.143.092-.253.05-.11.076-.199.058-.199a4.72 4.72 0 0 0-.392.12l-.36.12-.367-.143a4.009 4.009 0 0 0-.403-.143c-.02 0 .016.102.08.228l.116.23-.361.126c-.199.07-.379.144-.4.164-.022.02.147.05.375.068.703.054.688.048.865.357.087.152.177.27.2.263.024-.01.084-.12.134-.253z"/>
</svg>
