<svg aria-hidden="true" xmlns="http://www.w3.org/2000/svg" viewBox="0 0 14 14" height="1em" width="1em">
  <path d="M11 1H3a2 2 0 0 0-2 2v8a2 2 0 0 0 2 2h8a2 2 0 0 0 2-2V3a2 2 0 0 0-2-2ZM7.169 9.148l-.434-3.38-1.289 2.319-1.292-2.311-.428 3.372H2.76l.7-5.043h.755L5.444 6.4l1.227-2.296h.757l.699 5.043h-.96zm3.264-2.868H9.64v1.628c0 .547.043.576.547.576h.246l-.086.736h-.646c-.678 0-.966-.475-.966-.945V6.276h-.513l.078-.735h.427v-.789l.895-.094v.888h.794v.733h.016zm.839 2.94h-.743l.08-.743h.744l-.086.74.005.002z"/>
</svg>
