<svg role="img" focusable="false" aria-hidden="true" xmlns="http://www.w3.org/2000/svg" viewBox="0 0 14 14" height="1em" width="1em">
  <path d="m 10.58925,1.0005 -2.216,0 -1.348,6.9935 -1.3705,-6.9935 -2.2265,0 c 0.108,0.1095 0.167,0.317 0.195,0.536 l 0,10.605 c 0,0.3105 -0.0525,0.6915 -0.2125,0.8585 0.507,-0.107 1.1535,-0.208 1.707,-0.3055 l 0,-7.007 1.2445,6.1875 c 0.035,0.23 0.0675,0.542 -0.0105,0.599 0.4235,-0.0645 0.847,-0.126 1.272,-0.183 -0.0525,-0.08 -0.032,-0.326 -0.0025,-0.5305 l 1.227,-6.1855 0,6.5475 c 0.527,-0.0615 1.183,-0.12 1.735,-0.1745 l 0.006,-0.004 c -0.162,-0.164 -0.215,-0.55 -0.215,-0.862 l 0,-9.219 c 0,-0.3135 0.0525,-0.698 0.215,-0.863 l 0,5e-4 z"/>
</svg>
