<svg aria-hidden="true" xmlns="http://www.w3.org/2000/svg" viewBox="0 0 14 14" height="1em" width="1em">
  <path d="M8.551 12.86c.592-.367 1.042-.874 1.183-1.578.197-.93-.14-1.69-.76-2.337-.395-.423-.901-.76-1.38-1.07-.338-.226-.704-.451-.986-.761-.253-.254-.422-.563-.366-1.014-.31.31-.479.648-.507 1.014-.056.422.085.788.338 1.126.113.141.225.282.31.423.169.197.281.45.281.704 0 .45-.281.789-.676.817a.782.782 0 0 1-.816-.733c0-.14.028-.281.028-.478-.648.535-1.098 1.183-1.127 2.027-.028.873.451 1.465 1.127 1.972-.056.056-.113 0-.17 0-1.97-.676-3.013-2.535-2.562-4.619.254-1.24.93-2.281 1.746-3.21.563-.648 1.211-1.183 1.774-1.803.367-.422.676-.873.845-1.408.113-.366.085-.648-.028-.901.057-.057.113-.028.141.028.704.676 1.127 1.464 1.07 2.478-.028.394-.169.789-.253 1.183-.085.31-.113.648-.028.958.084.31.253.563.563.647.479.141 1.07-.225.957-.816.536.281.958.62 1.352 1.07 1.55 1.746 1.324 4.14-.507 5.604-.45.338-.93.62-1.464.817-.028-.084-.085-.056-.085-.14z"/>
</svg>
