<svg role="img" focusable="false" aria-hidden="true" xmlns="http://www.w3.org/2000/svg" viewBox="0 0 14 14" height="1em" width="1em">
  <path d="m 12.787919,6.1324246 0.03301,0.04151 -0.317105,-0.615205 c -0.09503,-0.178559 -0.160053,-0.371623 -0.191064,-0.57169 l -0.106535,-0.680226 c -0.09003,-0.594198 -0.461654,-1.108869 -0.996831,-1.38196 L 10.593189,2.6162556 C 10.41563,2.5222246 10.251076,2.4031846 10.105027,2.2636386 L 9.6178652,1.7609706 C 9.1892226,1.3358296 8.5835212,1.1397646 7.987323,1.2347966 l -0.6752245,0.112537 c -0.2025673,0.03001 -0.4051347,0.03001 -0.6082022,0 L 6.0266711,1.2347966 C 5.4364749,1.1522686 4.8422773,1.3498346 4.4196368,1.7689736 L 3.9314745,2.2571356 C 3.7914279,2.4041846 3.626373,2.5232246 3.4438123,2.6072526 l -0.6162048,0.308102 c -0.5401796,0.266589 -0.914304,0.78226 -0.9993323,1.378959 l -0.1050349,0.678725 c -0.032511,0.200067 -0.097032,0.393631 -0.1915637,0.573191 l -0.3231074,0.615205 c -0.2780925,0.531676 -0.2780925,1.165387 0,1.695563 l 0.3171054,0.615205 c 0.093031,0.179059 0.1580525,0.372624 0.1900632,0.57319 l 0.1050349,0.677726 c 0.088529,0.5936974 0.4611533,1.1068684 0.9988321,1.3754574 l 0.6152045,0.307102 c 0.1800599,0.09003 0.3386126,0.202568 0.4886625,0.345115 l 0.4886625,0.489163 c 0.4261417,0.425141 1.0293422,0.620206 1.6230396,0.525174 l 0.6762249,-0.12004 c 0.1950648,-0.03001 0.3981324,-0.03001 0.6001995,0 l 0.6772252,0.113038 c 0.5951979,0.09503 1.2003991,-0.102534 1.6230397,-0.533177 l 0.4886628,-0.488163 c 0.135045,-0.15005 0.300099,-0.270089 0.488162,-0.353117 l 0.616205,-0.307602 c 0.535178,-0.272091 0.906301,-0.787762 0.990329,-1.3829604 l 0.106036,-0.683227 c 0.03001,-0.203068 0.09003,-0.398633 0.187562,-0.57119 l 0.315105,-0.615205 c 0.266588,-0.535178 0.261086,-1.162886 -0.015,-1.691562 z m -6.5191674,-2.938977 -0.005,0 c 0.2450815,-0.272591 0.5726905,-0.458653 0.93231,-0.530177 0.062521,-0.0135 0.1260419,-0.02001 0.1900632,-0.02151 0.2475823,-0.0175 0.4951647,0.02301 0.7212398,0.117539 0.6052012,0.229077 1.0188388,0.795265 1.0518498,1.44298 l 0.002,0.09503 c -0.005,0.919305 -0.7482488,1.663553 -1.6675544,1.668054 -0.09003,0 -0.1800599,-0.0075 -0.2700898,-0.02251 C 6.9069638,5.8878436 6.6123659,5.7437956 6.3742867,5.5277236 6.0511793,5.2451296 5.8561144,4.8434956 5.8341071,4.4143536 5.8115996,3.9662046 5.9681517,3.5270586 6.2692518,3.1939476 Z m -2.0821923,0.251083 0.0095,-0.008 c 0.080027,-0.06002 0.1700565,-0.111037 0.2640878,-0.147049 0.1920638,-0.09253 0.4111367,-0.111537 0.6162048,-0.05302 0.1180393,0.05302 0.2200732,0.137546 0.2960985,0.243581 0.2325773,0.296599 0.2850948,0.826275 0.1575524,1.282927 -0.1285428,0.525174 -0.4976655,0.958318 -0.995331,1.167888 0.03101,0.445148 0.075025,0.965321 0.1150383,1.452483 -0.1165388,0.06502 -0.2320772,0.139046 -0.3601197,0.214071 -0.037512,0.02501 -0.075025,0.04601 -0.117039,0.06252 -0.142044,-1.270422 -0.2850915,-2.584358 -0.4276389,-3.823771 0.1275424,-0.143047 0.2780924,-0.278092 0.4431473,-0.39113 z m -0.7882621,5.698895 -0.037513,-0.0135 c -0.06002,0.08253 -0.1285427,0.157552 -0.2035676,0.232577 -0.022507,0.02301 -0.045015,0.04501 -0.075025,0.05252 -0.015005,-0.02301 -0.03001,-0.05252 -0.037512,-0.08253 -0.082527,-0.165055 -0.1575523,-0.33011 -0.2400798,-0.496165 -0.008,-0.03001 -0.038013,-0.06702 -0.038013,-0.07503 0.03001,-0.03701 0.06002,-0.07503 0.098033,-0.105035 0.2350781,-0.248583 0.3801264,-0.568189 0.4131373,-0.908302 0.007,-0.21007 -0.023008,-0.428642 -0.098033,-0.623707 -0.06002,-0.187563 -0.1350449,-0.368123 -0.2175723,-0.54018 -0.1280426,-0.263588 -0.2630875,-0.496665 -0.2630875,-0.856785 0,-0.593697 0.2930975,-0.986828 0.7062348,-1.198898 0.075025,0.222574 0.1275424,0.457152 0.2025674,0.690229 -0.1880625,0.136546 -0.2400798,0.402634 -0.2100699,0.700233 0.035012,0.217072 0.1000333,0.427642 0.1950649,0.626208 0.095032,0.193064 0.1675557,0.395132 0.2175723,0.605201 0.1350449,0.692731 -0.014005,1.410469 -0.4131373,1.992663 z M 5.0988626,11.054061 C 4.5371759,10.77897 4.0175031,10.44886 3.6133687,10.003712 c 0.3451148,-0.5701894 0.646715,-1.1653874 0.9023,-1.7820924 0.2850948,-0.663221 0.4786592,-1.363454 0.5731906,-2.079692 0.2175723,-0.07503 0.4501497,-0.128042 0.6682222,-0.201567 0.015005,0.01 0,0.04201 0,0.06352 -0.037513,0.158053 -0.075025,0.3001 -0.1200399,0.466155 -0.1275424,0.503168 -0.3000998,1.013837 -0.4651547,1.5025 -0.2335777,0.653217 -0.5041676,1.283927 -0.7742574,1.885627 0.3081024,0.2550854 0.6382122,0.4801594 0.9988321,0.6682224 -0.088529,0.18006 -0.1885627,0.352617 -0.3000998,0.518672 l 0.0025,0.0085 z m 0.2080692,-1.009335 0.005,0.003 -0.005,-0.001 0,-0.002 C 5.1603831,9.9707056 5.0343412,9.8866726 4.8992963,9.8126486 5.3004296,8.6982776 5.713567,7.5859076 6.0216695,6.3965126 c 0.1585527,0.08503 0.328109,0.160053 0.4761583,0.255085 -0.075025,0.308102 -0.1700566,0.605201 -0.2550848,0.891296 -0.085028,0.285095 -0.1800599,0.57319 -0.2750915,0.859286 -0.2250748,0.562187 -0.3836276,1.124373 -0.6612199,1.6425464 z m 2.3807916,1.147381 c -0.1880625,0.09603 -0.3836276,0.163555 -0.5861949,0.200067 -0.5861949,0.08603 -0.8642874,-0.243081 -1.0143373,-0.635211 -0.037512,-0.110037 -0.075025,-0.223575 -0.09003,-0.340114 -0.052517,-0.368122 -0.06002,-0.7422464 -0.015005,-1.1133704 0.035012,-0.476658 0.1450482,-0.945314 0.3236076,-1.388962 0.037513,-0.103534 0.09003,-0.203567 0.1500499,-0.297098 0.1565521,-0.281094 0.3651214,-0.530177 0.6152046,-0.732744 0.1680558,-0.124041 0.3486159,-0.230076 0.5361782,-0.322607 -0.002,-0.008 -0.0015,-0.01601 -0.003,-0.02401 l 0.039013,0.008 -0.010003,0 c -0.010003,0.005 -0.017506,0.011 -0.027009,0.01601 0.012004,0.06702 0.020007,0.135045 0.020007,0.201067 0.015005,0.158052 0.015005,0.360119 0.015005,0.503667 -0.3151047,0.09903 -0.5786924,0.312104 -0.7437473,0.598199 -0.1850615,0.294098 -0.3086026,0.624208 -0.3601197,0.968822 -0.082027,0.499166 -0.1650549,1.2534174 0.068023,1.7105694 0.067523,0.125041 0.1950649,0.286595 0.3531174,0.307602 0.1165388,0.02401 0.2335777,-0.03851 0.2775923,-0.149049 0.022507,-0.07252 0.022507,-0.147549 0.022507,-0.222074 l 0,-0.6572194 c -0.1050349,0 -0.3451147,0.02101 -0.4731573,0.02101 0.0075,-0.170056 0,-0.350116 0.015005,-0.508669 0.2930974,-0.04251 0.5786924,-0.07502 0.8862947,-0.107536 l 0,1.9636534 z M 9.587355,10.618416 9.612363,10.586906 C 9.3947907,9.9787036 9.1772183,9.3850056 9.0571784,8.7092816 c -0.1730575,0.07503 -0.3301097,0.15005 -0.4886624,0.225075 0.015005,0.517672 0,1.021839 -0.015005,1.6155374 0,0.157552 -0.015005,0.300099 -0.015005,0.48116 -0.09003,0.05202 -0.1870622,0.105035 -0.2850948,0.15005 -0.09003,0.03751 -0.1875624,0.105035 -0.2850948,0.150049 0,-0.458152 0,-0.976324 0.03001,-1.4494814 0.023008,-0.24008 0.008,-0.496165 0.03001,-0.75175 0.0085,-0.12004 0.0085,-0.247583 0.0085,-0.36012 0,-0.413138 -0.03001,-0.826775 -0.075025,-1.23291 -0.015005,-0.255085 -0.06002,-0.518172 -0.1050349,-0.796265 0.1800599,-0.06752 0.3531174,-0.15005 0.5401796,-0.21007 0.038513,0.6002 0.075025,1.126875 0.1285428,1.71207 0.1430475,-0.05152 0.2785926,-0.126543 0.4131373,-0.187063 -0.015005,-0.495164 -0.045015,-1.096364 -0.045015,-1.660552 -0.008,-0.03401 -0.008,-0.07002 0,-0.105035 0.014005,-0.02301 0.035012,-0.04151 0.06002,-0.05252 0.1575524,-0.12004 0.3381124,-0.247082 0.4881623,-0.36012 -0.022507,0.394131 -0.03001,0.775258 -0.022507,1.167888 0.015005,0.285095 0.023008,0.572691 0.053018,0.848783 0.052017,0.445148 0.1400465,0.884294 0.2650881,1.314437 0.095032,0.330109 0.1910635,0.657718 0.3076024,0.9653214 -0.1335445,0.166555 -0.2860953,0.317605 -0.4561518,0.445148 z m 1.436478,-4.7800894 0.03701,0.03851 c -0.09703,0.04251 -0.18006,0.105035 -0.278092,0.148049 -0.07703,-0.245081 -0.191564,-0.477659 -0.338113,-0.689229 -0.195065,0.645215 -0.165055,1.389462 -0.09703,2.073189 0.015,0.173058 0.04501,0.338613 0.08253,0.503168 0.09003,0.45365 0.247082,0.891296 0.465155,1.300432 -0.142047,0.187062 -0.284095,0.36012 -0.435145,0.547682 -0.03751,-0.04402 -0.06502,-0.09503 -0.08253,-0.15005 C 10.302593,9.4525286 10.23507,9.2949756 10.17455,9.1299216 10.092523,8.9108486 10.0245,8.6857736 9.9724831,8.4606986 9.845941,7.9805386 9.7604125,7.4903756 9.7163979,6.9952116 c -0.03001,-0.495165 -0.0075,-0.99133 0.075025,-1.486995 0.037512,-0.255084 0.09003,-0.488162 0.1580525,-0.736244 0.015005,-0.04502 0.03001,-0.09003 0.037012,-0.135045 -0.022507,-0.04502 -0.045015,-0.07503 -0.075025,-0.113038 -0.1350449,-0.173057 -0.2625873,-0.308102 -0.4131374,-0.465155 -0.03001,-0.03101 -0.06002,-0.06102 -0.097532,-0.08353 -0.03001,-0.03001 -0.06002,-0.05302 -0.09003,-0.08303 0.015005,-0.04401 0.038013,-0.08503 0.067523,-0.12004 0.075025,-0.12004 0.1650549,-0.233077 0.2550848,-0.338612 l 0.0085,0 c 0.3676222,0.210069 0.7137372,0.601199 0.9838272,0.976824 0.287095,0.394131 0.512671,0.830276 0.668723,1.29193 -0.09003,0.03801 -0.172558,0.08303 -0.27009,0.135045 z M 6.7719189,5.0820756 c 0.2025674,0.191063 0.475158,0.293097 0.7537506,0.285095 0.2685893,0 0.5251746,-0.110037 0.7102362,-0.307603 0.1950648,-0.175058 0.3081024,-0.425141 0.3151047,-0.688729 l 0,-0.149049 c -0.02901,-0.581694 -0.5251746,-1.028842 -1.1063678,-0.999333 -0.0065,0 -0.013004,0 -0.020007,10e-4 -0.2565853,0.01 -0.4991659,0.12154 -0.6762248,0.308102 -0.2400798,0.221574 -0.3601197,0.545181 -0.3231074,0.87029 0.015005,0.262587 0.1350449,0.508169 0.3301097,0.680226 l 0.016506,0 z m -2.3597846,-0.54118 0.008,0 c 0.03151,0.275091 0.042014,0.583694 0.073524,0.816771 0.3081024,-0.127542 0.4886625,-0.381126 0.520173,-0.773257 0.010003,-0.12004 0.010003,-0.24008 0,-0.360119 -0.021007,-0.224075 -0.063021,-0.425142 -0.2965987,-0.414138 -0.075025,0.008 -0.147549,0.03251 -0.2120705,0.07302 -0.057019,0.02401 -0.1050349,0.06502 -0.1380459,0.117039 -0.005,0.03901 -0.0025,0.07853 0.0075,0.116539 0.0075,0.159053 0.03001,0.306102 0.037513,0.424141 z"/>
</svg>
