<svg role="img" focusable="false" aria-hidden="true" xmlns="http://www.w3.org/2000/svg" viewBox="0 0 14 14" height="1em" width="1em">
  <path d="m 13,7.47364 c 0,1.20187 -2.04375,2.17687 -4.5656244,2.17687 -0.465,0 -0.9112499,-0.0337 -1.3331249,-0.0937 0.144375,0.007 0.290625,0.0112 0.43875,0.0112 2.5218743,0 4.5656243,-1.06687 4.5656243,-2.38312 0,-0.55125 -0.358125,-1.0575 -0.96,-1.4625 C 12.270625,6.11801 13,6.75551 13,7.47364 Z M 1.8943763,6.82489 c -0.00188,-1.31625 2.0399998,-2.38688 4.5618745,-2.3925 0.148125,0 0.2925,0.004 0.4368749,0.009 C 6.4712508,4.38139 6.0250008,4.34949 5.5618759,4.34949 3.0400012,4.35649 0.99812639,5.33574 1.0000014,6.53761 1.0018814,7.25614 1.7331263,7.89364 2.8618762,8.28739 2.2562512,7.88426 1.8962513,7.37614 1.8943763,6.82489 Z m 1.1287499,0.74812 c 0,0 0.1968749,0.2475 0.5493749,0.2475 0.335625,0 0.5324999,-0.21562 0.5324999,-0.47062 0,-0.525 -0.7537499,-0.47063 -0.7537499,-0.74438 0,-0.10125 0.099375,-0.17062 0.234375,-0.17062 0.106875,0 0.211875,0.0487 0.211875,0.12375 l 0,0.0731 0.2662499,0 0,-0.14812 c 0,-0.22688 -0.2887499,-0.315 -0.4762499,-0.315 -0.309375,0 -0.5343749,0.19125 -0.5343749,0.45187 0,0.49875 0.7537499,0.47625 0.7537499,0.74813 0,0.12375 -0.10875,0.18937 -0.230625,0.18937 -0.223125,0 -0.388125,-0.18937 -0.388125,-0.18937 L 3.0231262,7.57299 Z m 2.2649997,-1.38 0,1.02 c 0,0.21188 -0.133125,0.33375 -0.33375,0.33375 -0.2006249,0 -0.3337499,-0.12187 -0.3337499,-0.33187 l 0,-1.02188 -0.29625,0 0,1.03125 c 0,0.35438 0.25125,0.59813 0.6318749,0.59813 0.376875,0 0.62625,-0.24375 0.62625,-0.59813 l 0,-1.03125 -0.294375,0 z m 0.6449999,1.60125 0.29625,0 0,-0.55312 0.290625,0 c 0.2999999,0 0.5099999,-0.21563 0.5099999,-0.52688 0,-0.31125 -0.21,-0.52125 -0.5099999,-0.52125 l -0.7331249,0 0,0.25125 0.1462499,0 0,1.35 z m 0.29625,-0.80625 0,-0.54562 0.241875,0 c 0.163125,0 0.256875,0.10687 0.256875,0.27 0,0.16687 -0.095625,0.27562 -0.2625,0.27562 l -0.23625,0 z m 1.0687499,0.80625 0.29625,0 0,-0.55312 0.2906249,0 c 0.3,0 0.51,-0.21563 0.51,-0.52688 0,-0.31125 -0.21,-0.52125 -0.51,-0.52125 l -0.7331249,0 0,0.25125 0.14625,0 0,1.35 z m 0.294375,-0.80625 0,-0.54562 0.2418749,0 c 0.163125,0 0.256875,0.10687 0.256875,0.27 0,0.16687 -0.09375,0.27562 -0.2625,0.27562 l -0.2362499,0 z m 1.0706249,0.6525 c 0,0.10875 0.045,0.15375 0.1537499,0.15375 l 0.705,0 c 0.1087499,0 0.1537499,-0.045 0.1537499,-0.15375 l 0,-0.24375 -0.2681249,0 0,0.0975 c 0,0.0319 -0.01875,0.0487 -0.04875,0.0487 l -0.34875,0 c -0.031875,0 -0.04875,-0.0188 -0.04875,-0.0487 l 0,-1.1475 c 0,-0.10687 -0.045,-0.15375 -0.15375,-0.15375 l -0.2887499,0 0,0.25125 0.0975,0 c 0.031875,0 0.04875,0.0188 0.04875,0.0487 l 0,1.1475 z m 1.1887498,0 c 0,0.10875 0.045,0.15375 0.1537496,0.15375 l 0.725625,0 c 0.106875,0 0.15375,-0.045 0.15375,-0.15375 l 0,-0.24375 -0.268125,0 0,0.0975 c 0,0.0319 -0.01875,0.0487 -0.04875,0.0487 l -0.369375,0 c -0.03188,0 -0.04875,-0.0188 -0.04875,-0.0487 l 0,-0.38062 0.519375,0 0,-0.25125 -0.519375,0 0,-0.42 0.36,0 c 0.03187,0 0.04875,0.0188 0.04875,0.0487 l 0,0.0975 0.26625,0 0,-0.24375 c 0,-0.10688 -0.04687,-0.15375 -0.15375,-0.15375 l -0.9674995,0 0,0.25125 0.14625,0 0,1.19812 z m 1.1043746,-1.425 0,0.11063 0.03,0 0,-0.11063 0.05063,0 0,-0.0225 -0.131247,0 0,0.0225 0.05063,0 z m 0.106875,-0.0225 0,0.13313 0.02813,0 0,-0.10688 0.04312,0.10688 0.02437,0 0.04312,-0.10688 0,0.10688 0.02813,0 0,-0.13313 -0.04312,0 -0.03938,0.0956 -0.03937,-0.0956 -0.045,0 z"/>
</svg>
