<svg aria-hidden="true" xmlns="http://www.w3.org/2000/svg" viewBox="0 0 14 14" height="1em" width="1em">
  <path d="M6.295 12.032c-.025 0-.084-.017-.13-.03a.743.743 0 0 1-.545-.565 1.265 1.265 0 0 1 .022-.622c.125-.337.413-.521.813-.52.428 0 .718.215.816.603.031.123.035.364.01.48-.106.445-.513.716-.983.654zm.421-.146c.2-.096.315-.314.338-.646.031-.446-.188-.78-.553-.84-.264-.042-.482.059-.584.273a1.408 1.408 0 0 0-.093.477c0 .2.094.466.213.6a.59.59 0 0 0 .68.136zm3.817.135a.797.797 0 0 1-.174-.054c-.074-.038-.073-.034-.055-.261.01-.118.013-.128.044-.128s.034.01.037.097a.31.31 0 0 0 .025.13c.033.051.172.112.304.132.106.016.127.015.193-.01a.408.408 0 0 0 .266-.405c-.01-.086-.013-.104-.06-.152-.06-.063-.138-.09-.343-.123-.369-.058-.477-.15-.489-.41a.457.457 0 0 1 .133-.385c.167-.176.414-.223.692-.132.162.053.162.053.162.19 0 .161-.012.218-.047.218-.032 0-.04-.017-.054-.115-.021-.136-.102-.209-.27-.24a.38.38 0 0 0-.403.21.249.249 0 0 0-.026.162c.017.19.091.243.407.29.111.018.241.046.29.064.158.059.221.175.208.382a.629.629 0 0 1-.363.51c-.106.05-.31.062-.477.03zm-7.41-.011a.478.478 0 0 1-.422-.398 5.76 5.76 0 0 1-.017-.606c0-.524 0-.524-.035-.565-.026-.03-.055-.043-.108-.05-.058-.01-.073-.013-.073-.036 0-.027.018-.03.332-.03.323 0 .333.001.333.032 0 .023-.01.03-.043.03a.226.226 0 0 0-.159.094c-.013.024-.016.186-.012.569.01.513.01.54.04.624.074.185.231.27.48.257.204-.01.322-.086.403-.26l.04-.085v-1.114l-.038-.036a.215.215 0 0 0-.12-.046c-.061-.01-.083-.017-.087-.037 0-.025.017-.027.282-.027.277 0 .287 0 .287.03 0 .025-.01.032-.047.032-.073 0-.153.04-.17.085-.01.024-.015.246-.016.538 0 .526-.012.64-.075.763a.476.476 0 0 1-.35.236c-.105.02-.32.02-.435 0zM1 11.969c0-.015.022-.03.044-.032.066-.01.124-.037.143-.071.01-.018.159-.38.33-.806.305-.751.315-.774.358-.778h.044l.253.646c.359.913.407 1.01.507 1.01.026 0 .036.01.036.031 0 .03-.01.031-.302.031-.247 0-.301 0-.301-.022 0-.025.033-.04.085-.04.066 0 .085-.016.085-.071 0-.042-.054-.213-.117-.366-.01-.025-.042-.027-.354-.027h-.344l-.072.182c-.04.1-.072.196-.072.214 0 .04.028.054.131.066.057.01.08.016.082.036 0 .025-.016.027-.267.027-.252 0-.273 0-.268-.027zm1.105-.619a16.171 16.171 0 0 0-.288-.715c-.01 0-.294.7-.294.724 0 .013.082.018.296.018.275 0 .295 0 .286-.027zm2.543.612c0-.018.011-.028.032-.028.045 0 .12-.041.138-.077.01-.02.016-.277.016-.722v-.691l-.212.01c-.117.01-.22.019-.23.027a.322.322 0 0 0-.03.123c-.01.1-.013.107-.048.107s-.037 0-.037-.089c0-.049 0-.135-.01-.192l-.01-.104h1.351v.189c0 .178-.01.189-.037.193-.026 0-.035-.01-.043-.044-.01-.027-.01-.071-.01-.098a.222.222 0 0 0-.015-.071c-.015-.024-.17-.044-.363-.046l-.107-.001.01.698c.01.69.01.7.044.735a.19.19 0 0 0 .085.046c.035.01.052.018.052.036 0 .024-.026.026-.286.026-.265 0-.286 0-.286-.028zm2.723 0c0-.017.01-.031.02-.031.012 0 .037-.016.055-.036.034-.036.034-.038.034-.734 0-.688 0-.7-.032-.729a.216.216 0 0 0-.085-.04c-.04-.01-.053-.018-.053-.04 0-.032.01-.032.53-.026.474.01.54.01.632.037.254.077.392.228.452.496a1.33 1.33 0 0 1 0 .5.865.865 0 0 1-.421.53c-.176.093-.251.103-.72.104-.403 0-.414-.001-.414-.031zm.992-.12c.26-.127.384-.376.365-.736-.026-.488-.275-.69-.85-.69l-.152-.001v1.488l.267-.01c.264-.01.268-.01.37-.056zm.6.119c0-.017.018-.03.05-.036a.296.296 0 0 0 .086-.043l.035-.033v-.687c0-.442-.01-.697-.016-.716-.01-.017-.046-.037-.085-.047-.051-.013-.07-.025-.07-.046 0-.028.024-.03.59-.03h.59l-.01.105c-.01.057-.01.144-.01.191 0 .084 0 .087-.038.08-.035-.01-.04-.015-.04-.092 0-.15-.06-.176-.42-.176H9.38v.68h.2c.117 0 .216-.01.239-.017.044-.02.087-.1.087-.16 0-.032.01-.04.039-.04h.039v.527h-.037c-.031 0-.038-.01-.047-.063a.251.251 0 0 0-.048-.1c-.036-.037-.045-.039-.255-.039H9.38v.67l.29-.01c.225-.01.301-.013.338-.033.056-.03.061-.04.076-.155.011-.084.012-.088.057-.088.044 0 .046 0 .037.048-.01.027-.01.114-.01.194v.145h-.603c-.553 0-.603-.01-.603-.03zm2.46 0c0-.018.011-.028.032-.028.045 0 .12-.041.138-.076.025-.046.021-1.343 0-1.393-.013-.026-.044-.046-.092-.062-.047-.015-.073-.032-.073-.048 0-.022.034-.025.286-.025.262 0 .286 0 .286.027 0 .018-.017.03-.052.037a.232.232 0 0 0-.085.046c-.033.035-.034.045-.03.363v.328l.352-.363c.29-.3.352-.371.352-.407v-.044h.186c.17-.001.185 0 .185.027 0 .02-.01.028-.038.028-.02 0-.055.01-.077.015-.022.01-.2.159-.399.335l-.364.322c0 .001.18.187.406.412.293.293.43.42.486.448.042.02.077.049.078.062 0 .02-.027.024-.177.023h-.178l-.39-.391a6.74 6.74 0 0 0-.41-.391c-.016 0-.02.076-.02.324 0 .313 0 .326.034.356a.204.204 0 0 0 .085.04c.034.01.051.019.051.037 0 .024-.026.026-.286.026-.267 0-.286 0-.286-.028zm-.406-2.45a.19.19 0 0 1-.089-.163c0-.075.086-.153.168-.153.17 0 .233.223.089.31a.145.145 0 0 1-.168 0zm.144-.015c.046-.024.092-.094.092-.14 0-.071-.08-.146-.156-.146a.165.165 0 0 0-.138.093c-.028.067 0 .138.061.181.061.041.08.043.14.012zm-.122-.128v-.097h.068c.08 0 .108.038.059.078-.027.022-.028.028-.01.066.03.057 0 .053-.029-.01-.035-.062-.071-.06-.078 0 0 .028-.01.01-.01-.046zm.118-.054c0-.022-.01-.027-.05-.027-.045 0-.055.01-.055.032 0 .027.01.031.05.027.033 0 .052-.014.055-.032zm-7.868.192c0-.01.83-1.497 1.839-3.31 1.479-2.66 1.836-3.293 1.85-3.274.024.032 3.636 6.536 3.65 6.57.01.025-.017.027-.416.027h-.425l-.063-.15L8.625 6.75 7.59 4.283h-.615c-.361 0-.621 0-.63.01-.01.01-.505 1.186-1.107 2.618L4.146 9.515h-.43c-.247 0-.43 0-.426-.01zm.972.01s.607-1.104 1.349-2.444c1.055-1.908 1.352-2.433 1.367-2.418.025.027 2.683 4.838 2.683 4.856 0 .01-.159.013-.397.01h-.396l-.715-1.826-.714-1.825h-.944l-.718 1.833-.717 1.833H4.66c-.22 0-.399 0-.399-.01zm1-.16c.47-.872 1.702-3.107 1.71-3.1.011.014 1.775 3.216 1.787 3.246.01.019-.25.022-1.79.022H5.173l.09-.168zM3.196 5.738V1.96h1.549c1.461 0 1.547 0 1.538.027-.01.015-.697 1.7-1.535 3.747L3.21 9.484c-.01.018-.013-1.668-.014-3.746zm5.984-.013L7.64 1.967h3.083v7.519l-1.54-3.758z"/>
</svg>
