<svg role="img" focusable="false" aria-hidden="true" xmlns="http://www.w3.org/2000/svg" viewBox="0 0 14 14" height="1em" width="1em">
  <path fill="#e44d26" d="M6.99630789 6.19647148h-1.5019499l.09726428 1.08985707H6.9999936V6.19647148z"/>
  <path fill="#e44d26" d="M2.74920817 3.35827881l.77369995 8.67788514 3.47187834.96383565 3.48149977-.96518565.77451423-8.67653514h-8.5015923zm7.06399239 8.12406375l-2.81320696.77991423v-1.10447135l-.00490714.00135-2.18014271-.6052071-.1491-1.67110704h1.06840708l.07577142.84882852 1.18532135.32007855.00098571-.00027857v-.00008572l.00366429-.00100714V8.35064277H4.61827233l-.26157855-2.9329498-.02547857-.2855357H6.9999936V4.06784305h3.4750712l-.66186424 7.4144995z"/>
  <path fill="#f16529" d="M9.19419345 10.37409978l-.01600714.17982855-2.17819271.60366425v1.10466421l2.81320696-.77991423.66186424-7.4144995H6.9999936v1.06429278h2.66243554l-.02545714.28555712-.04849286.53954997-.02134285.23922855H6.9999936v1.08985707h2.47028555l-.02597143.28579284z"/>
  <path fill="#f16529" d="M8.18336495 9.7309641l.12351428-1.38034276H6.9999936v1.6997356z"/>
  <path fill="#ebebeb" d="M5.59162227 7.28632855l-.09726428-1.08985707h1.5019499V5.13213584H4.3312152l.02547857.28555712.26157855 2.93292838h2.37803556V7.28632855zm1.40468562 3.8722926v-1.10719278l-.00098572.00027857-1.18532135-.32005712-.07577142-.84884995H4.66582233l.14912142 1.67112846 2.1801427.60522854.00490715-.00137143v-.00019286z"/>
  <path d="M4.0810795 2.61822172v-.54188568h.49478569v.54188568h.5408571V1.0000004h-.54087853v.53438568h-.49478568V1.0000004H3.5402224v1.61822132zm2.28782128 0V1.53661465h.47635712V1.0000004H5.35181514v.53661425h.47618568v1.08160707zm.71337852 0h.5292214v-.8020928l.37236426.57537853h.00932143l.37210712-.57537853v.8020928h.53864996V1.0000004h-.56419282l-.34656426.56858568-.34692855-.56858568h-.56397853zm3.3924855 0v-.53489996h-.76062852V1.0000004h-.54102854v1.61822132z"/>
  <path fill="#fff" d="M8.18336495 9.7309641l-1.18337135.31939284-.00368571.00098571v1.1072785l.00368571-.00102857 2.17819271-.60366425.01600714-.17982855.25011427-2.80197839.02597143-.28579284H6.99630789v1.06429279h1.31057134zM6.99630789 6.1938572v.00261428h2.5708284l.02134285-.23922855.04849286-.53954997.02545714-.28555712H6.99630789v.66104995z"/>
</svg>
