<svg role="img" focusable="false" aria-hidden="true" xmlns="http://www.w3.org/2000/svg" viewBox="0 0 14 14" height="1em" width="1em">
  <path d="m 7.0215555,12.984003 c 0.2394862,-0.002 0.4764725,-0.0145 0.7129588,-0.047 0.5399689,-0.069 1.0714382,-0.216488 1.5729092,-0.431475 0.7044595,-0.300983 1.3489225,-0.735458 1.8963905,-1.271427 0.501471,-0.494472 0.920947,-1.075438 1.219929,-1.7134011 0.254486,-0.548468 0.434475,-1.136935 0.509971,-1.7379 0.0745,-0.579966 0.0675,-1.172932 -0.0225,-1.749399 -0.0745,-0.479972 -0.209488,-0.947945 -0.396477,-1.393919 -0.119993,-0.280484 -0.262485,-0.550469 -0.426975,-0.808454 -0.583967,-0.918447 -1.430417,-1.656904 -2.4048611,-2.150376 -0.34648,-0.177489 -0.711459,-0.322481 -1.0859373,-0.434474 l -0.0025,0 c 0.059497,0.0315 0.1199931,0.066 0.17249,0.100494 0.059997,0.037 0.1194931,0.073 0.1754899,0.112493 0.2844836,0.192489 0.5469684,0.413476 0.779455,0.664962 0.5314695,0.572467 0.8984485,1.273926 1.1089355,2.020383 0.141992,0.490972 0.216988,0.998943 0.247486,1.508413 0.022,0.371479 0.022,0.745457 -0.0235,1.114436 -0.07449,0.634963 -0.276983,1.254927 -0.613964,1.797896 -0.247486,0.401477 -0.5699671,0.759456 -0.9514451,1.04194 C 8.8674468,10.071168 8.050994,10.348152 7.271539,10.164163 7.1445463,10.133663 7.0165537,10.091163 6.8975606,10.03517 6.7620705,9.9731769 6.6275782,9.8966809 6.5080851,9.8106859 6.2755986,9.6551949 6.0656107,9.4682059 5.886121,9.2577179 5.6686336,8.9977329 5.489144,8.7022499 5.3616513,8.3842679 5.2046604,7.9812919 5.1221651,7.5483169 5.1146656,7.1143419 c -0.014999,-0.636463 0.1124935,-1.276427 0.4269753,-1.834894 0.2099879,-0.371979 0.4944715,-0.69796 0.831452,-0.958945 0.1124935,-0.089 0.2319866,-0.16649 0.3519797,-0.239486 l 0.008,-0.0035 c -0.2329866,-0.0525 -0.4799723,-0.0755 -0.7204585,-0.06 -0.2089879,0.0145 -0.4114762,0.0525 -0.6139645,0.119493 -0.1794896,0.06 -0.3519797,0.135492 -0.5094706,0.224987 -0.1274926,0.07449 -0.2539853,0.157491 -0.3664788,0.247485 -0.105494,0.09 -0.2099879,0.17949 -0.3074823,0.277484 -0.5614676,0.576467 -0.883949,1.340923 -1.0109416,2.127878 -0.074996,0.486471 -0.074996,0.980443 -0.045497,1.475414 0.052497,0.69696 0.1954887,1.39292 0.4724727,2.0303831 0.1719901,0.396977 0.3964771,0.763456 0.6739611,1.086437 0.4269754,0.493472 0.9669442,0.87645 1.5659096,1.115436 0.3374805,0.135492 0.6969598,0.232487 1.056439,0.269984 0.036997,0.0075 0.074495,0.0075 0.1044932,0.0075 l -0.010499,-0.016 z M 5.5546402,12.785014 c -0.081995,-0.035 -0.156991,-0.07449 -0.224987,-0.113993 -0.074496,-0.0415 -0.1499914,-0.084 -0.2244871,-0.129493 C 4.812683,12.360539 4.5511981,12.148051 4.310712,11.904065 3.7637436,11.335098 3.3972647,10.620639 3.1872768,9.8636829 3.045285,9.3467129 2.9697894,8.8127439 2.9397911,8.2777749 c -0.021999,-0.35148 -0.014499,-0.69646 0.022999,-1.04094 0.067496,-0.628464 0.2474857,-1.250428 0.5619676,-1.789897 0.224487,-0.396977 0.5314693,-0.748957 0.8914485,-1.026441 0.2469857,-0.186989 0.5244697,-0.34498 0.8164529,-0.449974 0.4119762,-0.149491 0.8539507,-0.194489 1.281426,-0.134992 0.1649905,0.0225 0.328981,0.0605 0.4794723,0.112494 0.014499,0 0.014499,0 0.022499,0.015 0.0075,0.0075 0.022499,0.0075 0.029998,0.015 0.022499,0.008 0.051997,0.0225 0.082495,0.037 0.1194931,0.06 0.2394862,0.135492 0.3519797,0.209988 0.4494741,0.314481 0.8164529,0.748956 1.0484395,1.250927 0.2099879,0.456974 0.3074822,0.966945 0.3154818,1.468916 0.007,0.539468 -0.089995,1.078437 -0.3224814,1.572909 -0.277484,0.591966 -0.7489568,1.093937 -1.3189239,1.415918 0.044997,0.015 0.089995,0.0225 0.1354922,0.0375 0.1124935,0.022 0.224487,0.037 0.3439801,0.037 0.7339577,0.0225 1.4459166,-0.3294811 1.9698863,-0.8234531 0.097494,-0.08999 0.1874892,-0.187489 0.2699844,-0.292483 0.1124929,-0.135 0.2174869,-0.269492 0.3069819,-0.411484 0.119493,-0.187489 0.217488,-0.374978 0.306983,-0.576967 0.112993,-0.269484 0.201988,-0.546968 0.254485,-0.831952 0.09799,-0.501971 0.105494,-1.010941 0.0745,-1.512912 -0.0675,-1.010942 -0.336481,-2.022384 -0.9209472,-2.861835 C 9.854392,2.5701039 9.7648971,2.4501109 9.6669028,2.3376179 9.5024123,2.1501279 9.3224227,1.9781379 9.1354335,1.8206469 8.9254456,1.6481569 8.692959,1.4911659 8.4539728,1.3631739 8.207487,1.2516799 7.9150039,1.1396869 7.6080216,1.0641909 l -0.1499913,-0.03 c -0.104494,-0.015 -0.2099879,-0.022 -0.3169817,-0.03 -0.1624906,-0.0075 -0.3344807,-0.005 -0.5074707,0.008 -0.3519797,0.0225 -0.7059592,0.07999 -1.055939,0.16849 -1.6779032,0.432975 -3.1458184,1.602408 -3.9272734,3.153818 -0.2504855,0.494472 -0.4274753,1.022941 -0.5309693,1.56591 -0.11949311,0.621464 -0.13499221,1.261427 -0.051997,1.887391 0.059996,0.50997 0.1869892,1.011442 0.3889775,1.488414 0.1134935,0.284984 0.2554853,0.561968 0.4124762,0.8239521 0.5469685,0.891449 1.3414226,1.617907 2.2548699,2.119878 0.3439801,0.195489 0.7039593,0.34498 1.0784377,0.472473 0.1129935,0.037 0.224987,0.07449 0.3444801,0.104494 l 0.008,-0.012 z"/>
</svg>
