<svg role="img" focusable="false" aria-hidden="true" xmlns="http://www.w3.org/2000/svg" viewBox="0 0 14 14" height="1em" width="1em">
  <path d="M 11.235,1 C 12.21,1 13,1.79 13,2.765 l 0,8.47 C 13,12.21 12.21,13 11.235,13 l -8.47,0 C 1.79,13 1,12.21 1,11.235 L 1,2.765 C 1,1.79 1.79,1 2.765,1 l 8.47,0 z M 9.3825,8.235 c -0.39,0 -0.705,0.315 -0.705,0.705 0,0.39 0.315,0.707 0.705,0.707 0.39,0 0.705,-0.3225 0.705,-0.7125 0,-0.39 -0.315,-0.705 -0.705,-0.705 z M 5.305,9.6235 c 0.6,0 1.028,-0.021 1.29,-0.06 0.263,-0.042 0.488,-0.111 0.66,-0.206 0.225,-0.116 0.39,-0.282 0.51,-0.495 0.12,-0.213 0.18,-0.4575 0.18,-0.74 0,-0.39 -0.105,-0.7015 -0.315,-0.935 -0.21,-0.24 -0.495,-0.367 -0.87,-0.397 0.33,-0.09 0.578,-0.225 0.728,-0.405 0.1575,-0.172 0.2325,-0.412 0.2325,-0.712 0,-0.24 -0.0515,-0.4425 -0.15,-0.63 C 7.4655,4.8635 7.324,4.721 7.129,4.6085 6.9565,4.511 6.7615,4.451 6.5215,4.406 6.2895,4.369 5.8765,4.346 5.2845,4.346 l -1.4575,0 0,5.243 1.478,0 z M 5.673,7.531 c 0.3525,0 0.5925,0.044 0.72,0.131 0.135,0.09 0.195,0.2475 0.195,0.465 0,0.2025 -0.0675,0.345 -0.21,0.4275 -0.135,0.09 -0.3825,0.127 -0.72,0.127 l -0.503,0 0,-1.1485 0.525,0 z m 4.328,0.353 0,-3.53 -1.23,0 0,3.53 1.229,0 z M 5.4625,5.54 c 0.355,0 0.5925,0.04 0.716,0.12 C 6.301,5.74 6.362,5.8775 6.362,6.075 6.362,6.265 6.297,6.398 6.167,6.477 6.0345,6.554 5.7935,6.593 5.441,6.593 l -0.285,0 0,-1.053 0.3075,0 z"/>
</svg>
