<svg role="img" focusable="false" aria-hidden="true" xmlns="http://www.w3.org/2000/svg" viewBox="0 0 14 14" height="1em" width="1em">
  <path d="m 10.762344,8.988167 0,-7.743177 -1.0294585,0 0,1.452939 -0.032,0 C 9.5953915,2.470439 9.4603975,2.252448 9.2799045,2.044456 9.0999125,1.838465 8.8964205,1.655973 8.6639305,1.497479 8.4309402,1.340486 8.1829505,1.216991 7.9044621,1.129495 7.6279737,1.044998 7.3344859,1 7.018999,1 6.4140242,1 5.8690469,1.112495 5.3960666,1.334986 4.9225864,1.558477 4.524603,1.863464 4.2036163,2.249948 3.8826297,2.636432 3.6371399,3.087913 3.468647,3.605391 3.300654,4.12387 3.2156575,4.669847 3.2156575,5.246823 c 0,0.599475 0.070497,1.162952 0.2124911,1.69093 0.1429941,0.528478 0.3684847,0.987958 0.6839715,1.380942 0.3154869,0.389984 0.7059706,0.698471 1.1874506,0.916462 0.48048,0.217991 1.0594558,0.330486 1.7354277,0.330486 0.623974,0 1.1649514,-0.157493 1.630932,-0.47298 0.4659801,-0.315487 0.8189661,-0.73647 1.0594561,-1.262448 l 0.0305,0 0,1.141953 c 0,1.021957 -0.210491,1.803425 -0.631973,2.352402 -0.4199827,0.540477 -1.1119538,0.818966 -2.0729138,0.818966 -0.2859881,0 -0.5639765,-0.0305 -0.8344652,-0.0905 C 5.9455458,11.993036 5.698556,11.895543 5.4730654,11.768048 5.2545725,11.632557 5.0595807,11.467564 4.9015873,11.249073 4.7435938,11.031582 4.6385982,10.768593 4.5856004,10.452606 l -1.0534561,0 c 0.033499,0.443482 0.1574935,0.826966 0.3684847,1.149952 0.2119911,0.322987 0.4804799,0.585976 0.8009666,0.796467 0.3204866,0.202992 0.6834715,0.352985 1.0859547,0.450981 C 6.1930334,12.947006 6.6070162,13 7.0344984,13 c 0.6914712,0 1.270447,-0.0975 1.7429274,-0.277488 0.4734807,-0.187993 0.8569647,-0.450982 1.1504517,-0.803967 0.3004875,-0.353985 0.5104785,-0.774468 0.6464735,-1.277947 0.134995,-0.503479 0.209991,-1.066955 0.209991,-1.68343 l -0.022,0.031 z M 7.020499,8.709679 c -0.4774801,0 -0.8919629,-0.0945 -1.2394484,-0.285488 C 5.4325651,8.234199 5.1425772,7.983209 4.9150867,7.672722 4.6815964,7.362235 4.5166033,7.00675 4.404108,6.603267 4.2916127,6.199783 4.2381149,5.786801 4.2381149,5.361318 c 0,-0.435482 0.052498,-0.862464 0.1504937,-1.281446 C 4.4936043,3.659889 4.6585974,3.286405 4.884588,2.959918 5.1100786,2.633932 5.4030664,2.368943 5.748552,2.167951 6.0940376,1.96696 6.51502,1.865464 7.0034997,1.865464 c 0.4884796,0 0.9014624,0.104496 1.247448,0.310487 0.3379859,0.207491 0.6234738,0.47948 0.8414648,0.816966 0.217991,0.338486 0.375484,0.71447 0.47348,1.127453 0.0975,0.412983 0.142494,0.827965 0.142494,1.240948 0,0.425983 -0.06,0.838965 -0.172492,1.241949 C 9.4228985,7.00675 9.2499065,7.362235 9.0169155,7.672722 8.7844255,7.983209 8.5064371,8.234199 8.1679512,8.424191 7.8299652,8.615183 7.4389815,8.709679 6.9885003,8.709679 l 0.031999,0 z"/>
</svg>
