<svg aria-hidden="true" xmlns="http://www.w3.org/2000/svg" viewBox="0 0 14 14" height="1em" width="1em">
  <path d="M7.726 11.973c0-.032.068-.415.151-.853.157-.823.195-.905.375-.793.07.044.118.04.227-.016a.875.875 0 0 1 .334-.072c.594 0 .641.916.064 1.254-.199.117-.554.155-.609.066-.016-.026-.069-.047-.117-.047-.069 0-.1.057-.142.26-.047.228-.067.258-.168.258-.063 0-.115-.026-.115-.057zm1.11-.755c.23-.212.268-.453.1-.622a.413.413 0 0 0-.244-.12c-.428 0-.72.558-.417.797.182.143.366.125.561-.055zm-5.175.317c-.349-.196-.352-.698-.006-1.022.503-.472 1.172-.233 1.088.39-.03.23-.121.375-.34.542-.207.158-.549.2-.742.09zm.63-.126c.199-.112.371-.4.371-.622 0-.208-.23-.406-.474-.406-.49 0-.84.54-.593.916.151.23.41.272.695.112zm1.57.109c-.277-.169-.325-.537-.115-.878.136-.219.548-.422.763-.375.218.048.35.145.417.308.24.58-.536 1.267-1.066.945zm.64-.112c.247-.168.353-.344.353-.585 0-.175-.024-.233-.132-.326-.286-.246-.763-.098-.935.29-.11.248-.088.433.068.574.201.183.423.2.646.047zm3.06.063c-.118-.118-.138-.174-.138-.391 0-.464.346-.838.775-.838.094 0 .222.033.284.074.09.06.13.063.204.016.092-.058.27-.027.231.04-.011.02-.068.295-.126.613-.098.542-.112.577-.214.577-.06 0-.118-.026-.129-.059-.015-.045-.062-.039-.194.024-.273.13-.529.11-.693-.055zm.833-.258c.44-.44-.068-1.004-.525-.582-.23.211-.268.453-.1.621.182.182.42.167.625-.039zm.646.318c-.155-.131-.16-.272-.01-.29.068-.01.149.018.182.06a.185.185 0 0 0 .276.016c.11-.11.06-.222-.144-.326-.236-.12-.27-.162-.27-.34-.001-.205.228-.409.46-.409.195 0 .34.107.34.252 0 .087-.209.112-.259.032-.048-.077-.205-.054-.254.038-.063.116-.015.175.217.268.153.061.21.115.25.24.047.14.074.16.21.16.085 0 .181.033.213.072.073.087.145.09.256.01.127-.092.057-.25-.14-.316-.176-.058-.304-.203-.304-.344 0-.049.072-.16.16-.249.192-.192.44-.22.594-.066.177.177.06.292-.19.188-.111-.046-.154-.046-.21 0-.123.102-.078.192.143.29.274.12.341.255.238.473a.567.567 0 0 1-.491.322c-.209 0-.286-.042-.368-.2l-.073-.14-.157.151c-.2.194-.511.246-.67.111zm-9.947-.069c.015-.062.062-.303.104-.536.106-.587.112-.602.218-.574.05.013.155-.01.233-.047.164-.082.333-.054.506.082.114.09.12.09.263 0 .237-.143.344-.159.519-.075.249.118.285.26.192.758-.085.453-.102.504-.16.468-.022-.013-.01-.156.025-.319.133-.624.063-.837-.277-.837-.295 0-.4.14-.51.683-.053.259-.105.48-.116.49-.07.07-.07-.094.004-.468.082-.422.081-.432-.01-.555a.408.408 0 0 0-.649.019c-.044.067-.116.315-.16.55-.048.265-.103.437-.144.45-.047.016-.057-.01-.037-.09zm3.939.077c-.014-.014.014-.22.06-.46.112-.569.11-.651-.006-.682-.119-.03-.123-.108-.006-.108.118 0 .176-.08.214-.294.046-.252.124-.219.11.047-.01.2 0 .225.095.239.143.02.135.103-.01.103-.153 0-.186.074-.284.636-.078.45-.12.573-.173.52zm2.034-.022c0-.06.187-1.04.219-1.148.02-.067.039-.074.091-.03.052.043.1.042.21 0 .186-.077.236-.027.062.063a.928.928 0 0 0-.22.165c-.085.093-.106.162-.22.727-.03.15-.074.271-.098.271a.044.044 0 0 1-.044-.045zm.64.52c-.026-.04.21-1.452.285-1.712.027-.09.274-.118.324-.035.018.029.084.019.176-.03.332-.171.752.015.822.365.036.178.08.172.205-.03.124-.2.449-.4.654-.4.083 0 .217.035.296.076.104.054.159.06.196.024.091-.092.268-.062.268.045 0 .12-.19 1.186-.22 1.235-.032.052-.225.043-.281-.013-.033-.033-.107-.024-.232.029-.362.151-.742-.01-.804-.342-.037-.2-.08-.198-.208.01-.136.22-.45.4-.696.4-.107 0-.207-.021-.224-.05-.073-.116-.184-.013-.232.216-.043.204-.066.237-.175.25-.069.01-.138-.01-.155-.034zm1.133-.871c.188-.188.213-.4.066-.547-.243-.242-.707.01-.707.378 0 .351.363.447.64.169zm1.474.083c.334-.234.25-.725-.124-.725-.219 0-.483.256-.483.467 0 .291.349.439.607.258zm-6.64.324a.6.6 0 0 1-.256-.267c-.079-.161-.083-.211-.034-.395.105-.394.433-.669.798-.67.767 0 .84.932.103 1.309-.25.127-.393.133-.612.024zm.69-.254c.271-.253.33-.58.138-.771-.17-.171-.322-.19-.566-.072-.392.19-.513.674-.224.901.165.13.48.103.652-.058zm1.525.254c-.626-.312-.226-1.332.522-1.331.753 0 .805.991.069 1.325-.24.11-.383.11-.591.01zm.601-.2c.421-.257.454-.779.06-.942-.122-.051-.177-.047-.355.02-.273.105-.424.313-.424.585 0 .375.371.55.72.337zm4.516.177a.42.42 0 0 1-.132-.224c-.01-.098.01-.12.122-.133a.3.3 0 0 1 .22.063c.113.102.255.073.273-.057.012-.081-.028-.122-.198-.197-.155-.069-.222-.129-.245-.222-.047-.184.03-.355.212-.479.211-.142.43-.14.566.01.193.205.04.396-.21.262-.124-.066-.275-.028-.246.06.01.032.116.106.234.162.153.073.23.145.265.248.04.113.078.144.18.144.07 0 .165.034.21.075.103.093.29.046.269-.067-.008-.043-.1-.122-.203-.176a.719.719 0 0 1-.254-.214c-.135-.24.175-.607.511-.607.172 0 .395.192.37.319-.016.08-.087.089-.415.049-.185-.023-.157.152.034.217.211.072.312.186.307.351a.52.52 0 0 1-.315.45c-.253.12-.438.097-.598-.073l-.138-.148-.104.095c-.252.23-.522.265-.715.095zm-9.936 0c-.026-.077.197-1.233.248-1.285.024-.025.07-.019.11.015.052.042.096.044.165.01.145-.078.38-.06.545.042.147.091.15.091.288 0 .168-.11.455-.119.609-.018.179.117.212.284.139.707-.093.541-.107.586-.192.586-.066 0-.07-.037-.037-.271.021-.15.04-.398.042-.553.003-.264-.006-.286-.13-.346-.107-.051-.161-.053-.27-.01-.208.086-.247.16-.35.676-.079.386-.114.48-.186.494-.098.019-.1.072.026-.646l.061-.347-.135-.116c-.099-.085-.167-.108-.258-.087-.196.046-.365.266-.403.526-.068.463-.128.678-.19.678-.036 0-.072-.025-.082-.055zm3.923-.06c0-.061.032-.28.07-.482.099-.513.094-.566-.05-.602-.154-.04-.124-.138.052-.169.115-.02.143-.055.187-.235.073-.3.194-.292.173.012-.015.21-.008.223.098.223.063 0 .128.014.145.031.053.053-.068.158-.183.158-.125 0-.134.022-.233.566-.04.22-.083.448-.096.506-.032.145-.163.139-.163-.01zm2.055.075c-.03-.05.173-1.186.227-1.274.023-.037.06-.04.119-.01.056.03.134.027.23-.01.184-.069.257 0 .112.1-.337.24-.347.256-.45.735-.093.428-.167.571-.238.457zm.658.468c-.025-.04.211-1.453.286-1.713.027-.09.274-.118.324-.035.018.029.084.019.176-.03.332-.171.752.015.822.365.036.178.08.172.205-.029.124-.202.449-.4.654-.4a.77.77 0 0 1 .296.075c.104.054.159.06.196.024.091-.092.268-.062.268.045 0 .12-.19 1.187-.22 1.235-.032.052-.225.043-.281-.013-.033-.033-.107-.024-.232.029-.362.151-.742-.01-.804-.341-.037-.2-.08-.199-.208.01-.136.22-.45.4-.696.4-.107 0-.207-.022-.224-.05-.073-.117-.184-.014-.232.215-.043.204-.066.237-.175.25-.069.01-.138-.01-.155-.034zm1.134-.872c.188-.188.213-.399.066-.547-.243-.242-.707.01-.707.378 0 .351.363.447.64.17zm1.474.083c.334-.234.25-.724-.124-.724-.219 0-.483.255-.483.466 0 .291.349.44.607.258zm-6.64.324a.6.6 0 0 1-.256-.267c-.079-.161-.083-.21-.034-.395.105-.393.433-.669.798-.669.767 0 .84.931.103 1.308-.25.127-.393.133-.612.024zm.69-.253c.271-.254.33-.58.138-.772-.17-.171-.322-.19-.566-.072-.392.19-.513.674-.224.902.165.13.48.102.652-.058zm1.525.253c-.626-.312-.226-1.332.522-1.331.753 0 .805.991.069 1.325-.24.11-.383.11-.591.01zm.601-.2c.421-.257.454-.779.06-.942-.122-.051-.177-.047-.355.02-.273.105-.424.313-.424.585 0 .375.371.55.72.338zm4.516.177a.42.42 0 0 1-.132-.224c-.01-.098.01-.12.122-.133a.3.3 0 0 1 .22.063c.113.102.255.073.273-.057.012-.081-.028-.121-.198-.197-.155-.069-.222-.129-.245-.222-.047-.184.03-.355.212-.478.211-.143.43-.14.566.01.193.205.04.395-.21.262-.124-.066-.275-.028-.246.06.01.032.116.105.234.161.153.073.23.145.265.248.04.113.078.144.18.144.07 0 .165.034.21.075.103.093.29.046.269-.067-.008-.043-.1-.122-.203-.175a.719.719 0 0 1-.254-.215c-.135-.24.175-.607.511-.607.172 0 .395.192.37.32-.016.08-.087.088-.415.048-.185-.023-.157.152.034.217.211.072.312.186.307.352a.52.52 0 0 1-.315.45c-.253.12-.438.097-.598-.073l-.138-.149-.104.095c-.252.23-.522.265-.715.095zm-9.936 0c-.026-.077.197-1.232.248-1.285.024-.025.07-.019.11.015.052.042.096.044.165.01.145-.078.38-.06.545.042.147.091.15.091.288.001.168-.11.455-.12.609-.019.179.117.212.284.139.707-.093.542-.107.586-.192.586-.066 0-.07-.037-.037-.27.021-.15.04-.399.042-.554.003-.264-.006-.286-.13-.346-.107-.05-.161-.053-.27-.01-.208.086-.247.16-.35.676-.079.387-.114.48-.186.494-.098.02-.1.072.026-.646l.061-.347-.135-.116c-.099-.085-.167-.108-.258-.087-.196.046-.365.266-.403.526-.068.463-.128.678-.19.678-.036 0-.072-.025-.082-.055zm3.923-.06c0-.061.032-.279.07-.482.099-.513.094-.566-.05-.602-.154-.04-.124-.138.052-.169.115-.02.143-.055.187-.235.073-.3.194-.292.173.012-.015.21-.008.224.098.224.063 0 .128.014.145.03.053.054-.068.158-.183.158-.125 0-.134.022-.233.566-.04.22-.083.448-.096.507-.032.144-.163.138-.163-.01zm2.055.075c-.03-.05.173-1.185.227-1.274.023-.037.06-.04.119-.01.056.03.134.027.23-.01.184-.069.257 0 .112.1-.337.24-.347.256-.45.736-.093.427-.167.57-.238.456zm-.841-2.72c-1.665-.313-2.817-1.7-2.817-3.392 0-.807.23-1.489.71-2.111 1.017-1.318 2.84-1.705 4.345-.921.446.232.983.717 1.255 1.136a3.449 3.449 0 0 1-2.044 5.236 3.744 3.744 0 0 1-1.449.053zm1.567-.305c1.378-.462 2.265-1.67 2.262-3.083 0-.536-.093-.935-.327-1.418a3.245 3.245 0 0 0-3.561-1.745 4.047 4.047 0 0 0-.769.285 3.285 3.285 0 0 0-1.644 1.931c-.107.324-.124.456-.123.943 0 .48.02.622.124.943.173.53.422.931.835 1.348.285.287.444.402.801.579.245.121.584.251.752.289.438.098 1.25.063 1.65-.072zm-1.697-.31a2.867 2.867 0 0 1-2.12-2.763c-.001-.485.067-.785.286-1.257.151-.325.253-.463.573-.78.6-.593 1.176-.83 2.014-.829.521.001.838.074 1.298.302.652.322 1.17.926 1.42 1.654.109.32.128.455.129.896 0 .456-.017.567-.14.921a3.67 3.67 0 0 1-.32.67 3.022 3.022 0 0 1-1.662 1.186c-.36.093-1.124.093-1.478 0zM7.73 7.39c1.33-.64 1.65-2.36.635-3.424-.465-.487-.994-.693-1.683-.654-.535.03-.99.234-1.364.61-1.176 1.18-.692 3.067.924 3.605.123.041.355.057.662.048.43-.014.505-.03.826-.185zm-.03 4.408c.017-.15.09-.556.16-.903.137-.686.193-.78.395-.672.09.048.142.046.291-.017a.57.57 0 0 1 .767.31l.08.183.167-.194c.163-.191.465-.366.635-.368a.8.8 0 0 1 .25.076c.122.058.177.064.217.024.076-.076.269-.067.3.014.014.037-.007.23-.049.43-.102.491-.1.508.047.472.082-.021.171 0 .277.066.142.088.16.09.218.02.07-.084.05-.106-.236-.264a.53.53 0 0 1-.199-.199c-.118-.26.18-.601.534-.61.153 0 .212.02.305.129.184.214.133.29-.186.28-.33-.012-.356.064-.069.198.113.052.227.148.26.217a.28.28 0 0 0 .203.153c.079.016.175.06.213.098.086.086.208.045.208-.07 0-.056-.057-.105-.165-.14-.313-.104-.398-.402-.187-.654.294-.349.824-.264.824.132 0 .077-.03.097-.145.097a.6.6 0 0 1-.23-.046c-.063-.034-.103-.027-.144.023-.048.058-.022.084.157.16.117.05.238.139.268.195.13.24-.095.61-.427.706-.197.057-.313.025-.48-.132-.12-.112-.135-.115-.214-.044a1.16 1.16 0 0 1-.264.152.477.477 0 0 1-.59-.157l-.092-.127-.033.13c-.037.148-.218.22-.326.132-.051-.043-.116-.04-.286.019-.368.125-.662 0-.78-.34l-.05-.146-.221.228c-.256.264-.507.357-.765.283-.224-.064-.222-.065-.257.107-.062.31-.07.318-.245.318h-.168l.032-.271zm1.098-.605c.112-.072.2-.318.164-.459-.033-.128-.225-.236-.36-.202-.177.044-.353.223-.385.39-.024.123-.005.174.096.276.135.135.271.134.485 0zm1.58-.068c.307-.336.015-.75-.383-.544-.267.138-.344.489-.144.651.15.12.36.079.528-.107zm-9.327.452c-.014-.037.019-.308.073-.602.15-.808.122-.742.322-.745.097 0 .276-.01.397-.012.16-.01.247.016.319.08.097.088.102.088.281-.013.269-.151.453-.135.646.058.186.186.195.271.085.813-.08.39-.145.51-.245.447-.05-.031-.046-.128.02-.514.08-.462.08-.48-.004-.574-.115-.127-.32-.123-.472.01-.099.086-.139.194-.211.573-.088.455-.158.586-.265.497-.04-.033-.037-.127.008-.362.12-.617.065-.814-.223-.814-.24 0-.346.16-.441.662-.047.245-.106.472-.132.505-.061.078-.126.075-.158-.01zm2.569-.011c-.379-.235-.368-.791.022-1.134.44-.385 1.018-.28 1.16.212.089.312-.149.764-.486.924-.206.098-.536.097-.696 0zm.682-.237c.165-.084.33-.43.286-.602a.477.477 0 0 0-.149-.214c-.435-.343-1.108.333-.765.769.144.182.334.197.628.047zm.663.251c-.014-.036.019-.292.073-.57.053-.277.085-.524.07-.548-.014-.024-.067-.043-.118-.043-.06 0-.091-.032-.091-.094 0-.069.031-.094.119-.094.122 0 .176-.079.232-.341.02-.091.057-.13.125-.13.088 0 .096.024.082.224-.016.215-.01.224.116.24.168.018.156.165-.015.188a.379.379 0 0 0-.153.05c-.02.02-.08.267-.134.55-.054.284-.12.542-.147.575-.064.077-.128.075-.159-.01zm.865-.01c-.24-.13-.34-.494-.221-.807.109-.288.514-.577.813-.58.263 0 .528.21.6.48.041.15.033.217-.049.402a1.5 1.5 0 0 1-.179.311c-.22.244-.695.34-.964.194zm.682-.232c.13-.052.282-.34.282-.53 0-.339-.375-.497-.703-.297-.292.178-.395.602-.19.79.162.15.31.159.611.037zm.53.255c-.04-.063.01-.464.116-.96l.082-.38.184-.01c.102 0 .227-.014.278-.024.18-.034.138.137-.06.237-.211.108-.266.218-.344.689-.073.444-.162.598-.257.444zm-.835-2.755C4.542 8.524 3.39 7.136 3.39 5.445c0-.807.23-1.489.71-2.111 1.017-1.318 2.84-1.704 4.345-.921.446.232.983.717 1.255 1.136a3.449 3.449 0 0 1-2.044 5.236 3.744 3.744 0 0 1-1.449.053zm1.567-.306c1.378-.462 2.265-1.67 2.262-3.083 0-.536-.093-.935-.327-1.418a3.245 3.245 0 0 0-3.561-1.745 4.047 4.047 0 0 0-.769.286 3.286 3.286 0 0 0-1.644 1.93c-.107.324-.124.456-.123.943 0 .48.02.623.124.943.173.53.422.931.835 1.348.285.287.444.402.801.579.245.121.584.251.752.289.438.098 1.25.063 1.65-.072zm-1.697-.31a2.867 2.867 0 0 1-2.12-2.763c-.001-.485.067-.785.286-1.257.15-.325.253-.463.573-.78.6-.593 1.176-.83 2.014-.829.521.001.838.074 1.298.302.652.322 1.17.926 1.42 1.654.109.32.128.455.129.896 0 .456-.017.567-.14.921a3.71 3.71 0 0 1-.32.67 3.022 3.022 0 0 1-1.662 1.186c-.36.093-1.124.093-1.478 0zM7.73 7.39c1.33-.64 1.65-2.36.635-3.423-.465-.488-.994-.694-1.683-.654-.535.03-.99.233-1.364.61-1.176 1.18-.692 3.066.924 3.605.123.04.355.057.662.048.43-.014.505-.03.826-.186zm-.03 4.408a15.6 15.6 0 0 1 .16-.903c.137-.686.193-.78.395-.672.09.048.142.046.291-.017a.57.57 0 0 1 .767.31l.08.183.167-.194c.163-.19.465-.366.635-.368a.8.8 0 0 1 .25.076c.122.058.177.064.217.024.076-.076.269-.067.3.014.014.037-.007.23-.049.43-.102.491-.1.509.047.472.082-.021.171 0 .277.066.142.088.16.09.218.02.07-.084.05-.105-.236-.264a.53.53 0 0 1-.199-.198c-.118-.26.18-.602.534-.611.153 0 .212.02.305.13.184.213.133.29-.186.279-.33-.011-.356.065-.069.198.112.052.227.148.26.217a.28.28 0 0 0 .202.153c.08.016.176.06.214.098.086.086.208.045.208-.07 0-.056-.057-.105-.165-.14-.313-.104-.399-.402-.187-.653.294-.35.824-.265.824.131 0 .077-.03.097-.145.097a.601.601 0 0 1-.23-.046c-.063-.034-.103-.027-.144.023-.048.058-.022.084.156.161.118.05.24.138.27.194.128.24-.096.61-.428.706-.197.057-.313.025-.48-.132-.12-.112-.135-.115-.214-.044a1.16 1.16 0 0 1-.264.152.477.477 0 0 1-.59-.157l-.092-.126-.033.13c-.037.147-.218.22-.326.131-.051-.043-.116-.039-.286.02-.368.124-.663 0-.78-.34l-.05-.146-.221.227c-.257.265-.507.357-.765.283-.224-.064-.223-.065-.257.107-.062.31-.07.318-.245.318h-.168l.032-.27zm1.098-.604c.112-.072.2-.319.164-.46-.033-.128-.225-.236-.36-.202-.177.044-.353.224-.385.39-.024.123-.005.175.096.276.135.135.271.134.485 0zm1.58-.068c.307-.337.015-.75-.383-.544-.267.137-.344.488-.144.65.15.121.36.08.528-.106zm-9.327.45c-.014-.036.019-.307.073-.6.15-.81.122-.743.322-.746.097 0 .276-.01.397-.012.16-.01.247.016.319.08.097.088.102.088.281-.013.269-.151.453-.135.646.058.186.186.195.271.085.813-.08.391-.145.51-.245.447-.05-.03-.046-.128.02-.514.08-.461.08-.48-.004-.574-.115-.127-.32-.123-.472.01-.099.086-.139.194-.211.573-.088.455-.158.587-.265.497-.04-.033-.037-.126.009-.362.12-.616.065-.814-.223-.814-.24 0-.346.16-.441.662-.047.245-.106.473-.132.505-.061.078-.126.075-.158-.01zm2.569-.01c-.379-.235-.368-.791.022-1.133.44-.386 1.018-.28 1.16.21.089.313-.149.765-.486.925-.206.098-.536.097-.696 0zm.682-.237c.165-.084.33-.43.286-.602a.477.477 0 0 0-.149-.214c-.435-.342-1.108.334-.765.77.144.182.334.196.628.046zm.663.251c-.014-.036.019-.292.073-.57.053-.277.085-.524.07-.547-.014-.024-.067-.043-.118-.043-.06 0-.091-.032-.091-.094 0-.07.031-.094.119-.094.122 0 .176-.08.232-.342.02-.091.057-.13.125-.13.087 0 .096.024.082.224-.016.215-.01.225.116.24.168.018.156.165-.015.188a.379.379 0 0 0-.153.05c-.02.02-.08.267-.134.55-.054.284-.12.542-.147.575-.064.077-.128.075-.159-.01zm.865-.01c-.24-.13-.34-.494-.221-.807.109-.288.514-.577.813-.58.263 0 .528.21.6.48.041.151.033.217-.049.402a1.5 1.5 0 0 1-.179.311c-.22.244-.695.34-.964.194zm.682-.232c.13-.052.282-.34.282-.53 0-.339-.375-.497-.703-.297-.292.178-.395.602-.19.79.162.15.31.16.611.037zm.53.255c-.04-.063.01-.464.116-.96l.082-.38.184-.01c.102 0 .227-.014.278-.024.18-.034.138.137-.06.238-.211.108-.266.217-.344.688-.073.445-.162.598-.257.444zM6.193 8.89c-.757-.15-1.279-.431-1.841-.992-.36-.359-.461-.496-.647-.874-.28-.57-.363-.928-.363-1.579 0-.651.082-1.008.363-1.579.186-.377.288-.515.647-.874.711-.71 1.47-1.028 2.454-1.029.629 0 1.035.091 1.557.349.883.436 1.512 1.184 1.82 2.168.16.508.16 1.422 0 1.93-.381 1.216-1.3 2.115-2.481 2.427-.405.107-1.111.131-1.509.053zm1.273-.333c.462-.096 1.116-.432 1.473-.755.375-.34.727-.876.894-1.363.118-.342.131-.443.13-.994-.003-.535-.019-.66-.129-.99a3.192 3.192 0 0 0-1.614-1.84c-1.217-.596-2.569-.4-3.545.512-.946.885-1.266 2.132-.858 3.345.276.822 1.039 1.625 1.827 1.922a3.23 3.23 0 0 0 1.822.163zm-.99-.197c-.7-.109-1.235-.377-1.725-.864-.574-.572-.844-1.228-.844-2.05 0-.824.27-1.48.844-2.05.677-.673 1.54-.97 2.446-.845 1.532.213 2.635 1.541 2.54 3.06a2.908 2.908 0 0 1-2.744 2.748 3.32 3.32 0 0 1-.517 0zm.977-.915a2.083 2.083 0 0 0 1.45-2 2.062 2.062 0 0 0-1.952-2.086C5.364 3.26 4.242 4.901 4.92 6.333c.153.323.529.744.811.91.516.302 1.18.38 1.723.201zm.193 4.594c-.023-.06.12-.989.251-1.62.014-.069.008-.097-.015-.066a.69.69 0 0 1-.184.127c-.223.114-.266.194-.355.659-.084.436-.166.574-.31.52-.052-.02-.066-.084-.054-.233.009-.113.01-.206 0-.206a.975.975 0 0 0-.135.144c-.366.435-1.04.43-1.267-.01-.107-.208-.07-.552.087-.789.139-.21.534-.432.762-.43.213 0 .448.149.572.354l.11.182.031-.197c.038-.234.118-.314.276-.274.064.016.173 0 .244-.03.108-.048.135-.046.176.02.045.07.058.07.163 0 .09-.06.141-.064.248-.024.1.038.18.035.314-.011a.6.6 0 0 1 .764.299l.085.166.084-.128c.192-.293.784-.484.985-.317.057.047.104.047.235 0 .133-.048.178-.048.238 0 .04.034.074.09.074.124 0 .043.054.027.171-.053.27-.183.503-.172.693.033l.133.144.13-.123c.182-.175.4-.23.595-.148.175.073.27.215.249.37-.013.088-.044.103-.204.1a1.07 1.07 0 0 1-.242-.022c-.03-.012-.056 0-.058.026-.002.026.062.069.142.097.171.058.324.227.324.36 0 .166-.148.411-.306.509-.228.141-.563.13-.706-.025l-.11-.12-.177.12c-.223.151-.521.161-.697.024l-.122-.096-.1.1c-.076.076-.134.094-.227.07-.136-.033-.134-.033-.561 0-.289.027-.299.024-.46-.138-.09-.09-.164-.203-.165-.251 0-.068-.034-.05-.158.085-.238.26-.415.333-.753.315l-.289-.016-.027.166a.845.845 0 0 1-.062.224c-.054.087-.357.072-.392-.019zm-1.159-.752c.272-.176.358-.572.158-.733-.201-.163-.566-.08-.728.167a.65.65 0 0 0-.077.301c0 .343.322.475.647.265zm2.282-.154c.177-.158.207-.403.063-.51-.119-.086-.207-.08-.385.029-.209.127-.266.403-.11.529.147.12.258.107.432-.048zm1.552 0c.157-.157.18-.35.06-.483-.147-.163-.44-.071-.556.175-.177.372.2.605.496.308zm1.117.053c.01-.03-.069-.09-.175-.133-.107-.043-.218-.122-.247-.176-.052-.098-.054-.098-.09-.01-.077.2-.051.258.117.258.087 0 .186.033.219.072.065.079.147.072.176-.015zm1.001-.01c0-.022-.08-.08-.177-.127a.58.58 0 0 1-.247-.234c-.062-.13-.099-.151-.307-.172a1.316 1.316 0 0 0-.253-.01c-.01.01.072.052.182.096.146.058.218.122.266.238.053.126.092.157.201.157.074 0 .161.032.193.07.058.07.142.056.142-.022zm-11.386.451c-.077-.056-.075-.093.027-.645.146-.794.146-.795.362-.798.098 0 .278-.01.399-.012.157-.01.247.016.316.077.093.084.101.084.301-.013.248-.12.324-.123.536-.023a.54.54 0 0 1 .302.498l.002.156.063-.142c.132-.294.56-.589.855-.589.19 0 .446.142.548.303.14.224.1.631-.087.863-.296.368-.76.496-1.085.298-.186-.113-.262-.246-.298-.521l-.028-.212-.061.343c-.07.393-.15.509-.296.43-.078-.04-.09-.08-.066-.2.167-.822.155-.939-.1-.964-.253-.026-.345.104-.444.629-.088.468-.166.609-.306.555-.084-.032-.083-.184.002-.628.06-.31.06-.367 0-.46a.234.234 0 0 0-.19-.106c-.27 0-.343.117-.443.707a5.75 5.75 0 0 1-.075.385c-.032.108-.136.139-.233.068zm3.262-.343c.101-.066.252-.373.252-.513 0-.126-.22-.303-.378-.303a.56.56 0 0 0-.565.58c0 .155.084.273.236.33.096.035.33-.013.455-.095zm.653.345c-.073-.054-.072-.093.02-.574.118-.629.12-.578-.009-.596-.077-.01-.106-.047-.106-.132 0-.093.029-.123.138-.142.117-.02.144-.055.188-.236.044-.183.07-.214.185-.227.133-.015.134-.013.118.21-.015.207-.007.227.102.253.086.02.118.059.118.143 0 .096-.026.119-.153.13-.113.012-.16.043-.176.119-.012.057-.056.283-.097.503-.042.22-.086.436-.098.48-.03.107-.135.138-.23.07zm1.225-2.737c-.757-.15-1.279-.431-1.841-.992-.36-.359-.461-.496-.647-.874-.28-.57-.363-.928-.363-1.579 0-.65.082-1.008.363-1.579.186-.377.288-.515.647-.874.711-.71 1.47-1.028 2.454-1.029.629 0 1.035.091 1.557.349.883.436 1.512 1.184 1.82 2.168.16.508.16 1.422 0 1.93-.381 1.216-1.3 2.115-2.481 2.427-.405.107-1.111.131-1.509.053zm1.273-.333c.462-.096 1.116-.432 1.473-.755.375-.34.727-.876.894-1.363.118-.342.131-.443.13-.994-.003-.535-.019-.66-.129-.99a3.192 3.192 0 0 0-1.614-1.84c-1.217-.596-2.569-.4-3.545.512-.946.886-1.266 2.132-.858 3.345.276.822 1.039 1.625 1.827 1.923a3.23 3.23 0 0 0 1.822.162zm-.99-.197c-.7-.109-1.235-.377-1.725-.864-.574-.572-.844-1.228-.844-2.05 0-.824.27-1.48.844-2.05.677-.673 1.54-.97 2.446-.845 1.532.213 2.635 1.541 2.54 3.06A2.908 2.908 0 0 1 6.993 8.36a3.32 3.32 0 0 1-.517 0zm.977-.914a2.083 2.083 0 0 0 1.45-2 2.062 2.062 0 0 0-1.95-2.088c-1.588-.099-2.71 1.543-2.032 2.975.153.323.529.744.811.91.516.303 1.18.38 1.723.202zm.193 4.594c-.023-.061.12-.99.251-1.621.014-.068.008-.096-.015-.065a.69.69 0 0 1-.184.126c-.223.114-.266.194-.355.66-.084.435-.166.574-.31.518-.052-.02-.066-.083-.054-.232.009-.113.01-.206 0-.206a.975.975 0 0 0-.135.144c-.366.435-1.04.43-1.267-.01-.107-.208-.07-.552.087-.789.139-.21.534-.432.762-.429.213 0 .448.148.572.353l.11.182.031-.197c.038-.234.118-.314.276-.274.064.016.173 0 .244-.03.108-.048.135-.046.176.02.045.07.058.07.163 0 .09-.06.141-.064.248-.024.1.038.18.035.314-.011a.6.6 0 0 1 .764.299l.085.166.084-.128c.192-.293.784-.484.985-.317.057.047.104.047.235 0 .133-.048.178-.048.238 0 .04.034.074.09.074.124 0 .043.054.027.171-.053.27-.183.503-.172.693.033l.133.144.13-.123c.182-.175.4-.23.595-.148.175.073.27.215.249.37-.013.088-.044.103-.204.1a1.07 1.07 0 0 1-.242-.022c-.03-.012-.056 0-.058.026-.002.026.062.069.142.097.171.058.324.227.324.361 0 .165-.148.41-.306.508-.228.141-.563.13-.706-.025l-.11-.12-.177.12c-.223.151-.521.161-.697.024l-.122-.096-.1.1c-.076.076-.134.094-.227.07-.136-.033-.134-.033-.561 0-.289.027-.299.024-.46-.137-.09-.091-.164-.204-.165-.252 0-.068-.034-.05-.158.085-.238.26-.415.333-.753.315l-.289-.016-.027.167a.845.845 0 0 1-.062.223c-.054.087-.357.072-.392-.019zm-1.159-.753c.272-.176.358-.572.158-.733-.201-.163-.566-.08-.728.167a.65.65 0 0 0-.077.301c0 .343.322.475.647.265zm2.282-.154c.177-.158.207-.403.063-.509-.119-.087-.207-.08-.385.028-.209.127-.266.403-.11.529.147.12.258.107.432-.048zm1.552 0c.157-.157.18-.35.06-.483-.147-.163-.44-.071-.556.175-.177.372.2.605.496.308zm1.117.053c.01-.03-.069-.09-.175-.132-.107-.043-.218-.123-.247-.177-.052-.098-.054-.098-.09-.01-.077.2-.051.258.117.258.087 0 .186.033.219.072.065.079.147.072.176-.015zm1.001-.01c0-.022-.08-.079-.177-.127a.58.58 0 0 1-.247-.234c-.062-.13-.099-.151-.307-.172a1.316 1.316 0 0 0-.253-.01c-.01.01.072.052.182.096.146.058.218.122.266.238.053.126.092.157.201.157.074 0 .161.032.193.07.058.07.142.056.142-.022zm-11.386.451c-.077-.056-.075-.093.027-.645.146-.794.146-.795.362-.798.098 0 .278-.01.399-.012.157-.01.247.016.316.077.093.084.101.084.301-.013.248-.12.324-.123.536-.023a.54.54 0 0 1 .302.498l.002.156.063-.141c.132-.294.56-.59.855-.59.19 0 .446.142.548.303.14.225.1.631-.087.863-.296.368-.76.496-1.085.298-.186-.113-.262-.246-.298-.52l-.028-.213-.061.343c-.07.393-.15.509-.296.43-.078-.04-.09-.08-.066-.2.167-.822.155-.939-.1-.964-.253-.026-.345.104-.444.629-.088.468-.166.609-.306.555-.084-.032-.083-.184.002-.628.06-.31.06-.367 0-.46a.234.234 0 0 0-.19-.106c-.27 0-.343.117-.443.707a5.75 5.75 0 0 1-.075.385c-.032.108-.136.139-.233.068zm3.262-.343c.101-.066.252-.373.252-.513 0-.126-.22-.303-.378-.303a.56.56 0 0 0-.565.58c0 .155.084.273.236.33.096.036.33-.012.455-.094zm.653.345c-.073-.054-.072-.093.02-.574.118-.629.12-.578-.009-.596-.077-.01-.106-.047-.106-.132 0-.093.029-.123.138-.142.117-.02.144-.055.188-.236.044-.183.07-.214.185-.227.133-.015.134-.013.118.21-.015.207-.007.227.102.253.086.02.118.059.118.143 0 .096-.026.119-.153.131-.113.011-.16.042-.176.118-.012.057-.056.283-.097.504-.042.22-.086.435-.098.478-.03.108-.135.14-.23.07zm1.124-2.69A3.645 3.645 0 0 1 3.36 6.318c-.113-.412-.113-1.318.001-1.739.504-1.859 2.314-2.995 4.166-2.615 2.298.47 3.51 2.974 2.464 5.087a3.614 3.614 0 0 1-2.242 1.841c-.383.107-1.283.132-1.656.047zm1.514-.482c1.033-.263 1.875-1.082 2.2-2.138.153-.498.153-1.245 0-1.744a3.151 3.151 0 0 0-2.22-2.144c-.398-.103-1.113-.104-1.51 0a3.14 3.14 0 0 0-2.29 2.321c-.109.461-.076 1.232.07 1.663a3.13 3.13 0 0 0 3.75 2.044zM6.17 8.371a3.463 3.463 0 0 1-1.329-.683 3.332 3.332 0 0 1-.868-1.334 3.088 3.088 0 0 1 0-1.812 3.099 3.099 0 0 1 1.985-1.96c.263-.083.44-.103.872-.102.48 0 .59.02.945.145 1.491.526 2.32 2.058 1.932 3.573-.129.503-.345.886-.729 1.292a3.03 3.03 0 0 1-1.252.81c-.402.133-1.133.166-1.556.071zm1.373-1.015a2.054 2.054 0 0 0 1.248-2.404 2.033 2.033 0 0 0-2.835-1.348c-.36.165-.793.59-.963.946-.386.809-.222 1.74.412 2.344.463.442.925.62 1.521.583a2.46 2.46 0 0 0 .617-.121z"/>
</svg>
