<svg aria-hidden="true" xmlns="http://www.w3.org/2000/svg" viewBox="0 0 14 14" height="1em" width="1em">
  <path d="M7.561 6.63h-1.24V5.516h1.24V6.63zm0-3.83h-1.24v1.137h1.24V2.8zm1.466 2.714h-1.24v1.114h1.24V5.514zm-2.93-1.352h-1.24V5.29h1.24V4.162zm1.464 0h-1.24V5.29h1.24V4.162zm5.19 1.875c-.27-.182-.893-.247-1.37-.157-.063-.45-.314-.842-.771-1.195l-.263-.174-.174.263c-.345.52-.439 1.38-.07 1.946a1.886 1.886 0 0 1-.907.2h-8.15c-.163.953.109 2.19.825 3.04.695.823 1.738 1.24 3.1 1.24 2.952 0 5.136-1.359 6.158-3.828.401.008 1.267.002 1.712-.847.028-.047.123-.248.159-.32l-.25-.168Zm-9.583-.523H1.931v1.114H3.17V5.514zm1.464 0H3.393v1.114h1.24V5.514zm1.465 0h-1.24v1.114h1.24V5.514zM4.632 4.162H3.393V5.29h1.24V4.162z"/>
</svg>
