<svg role="img" focusable="false" aria-hidden="true" xmlns="http://www.w3.org/2000/svg" viewBox="0 0 14 14" height="1em" width="1em">
  <path d="m 12.001907,6.30389 c -0.007,-0.0211 -0.02109,-0.0328 -0.03281,-0.0469 L 10.328472,5.3523 c -0.02109,-0.0141 -0.04687,-0.0141 -0.07266,0 L 8.8753435,6.19605 c -0.02109,0.0141 -0.03281,0.0399 -0.03281,0.0609 l -0.02109,0.73594 -0.5625,-0.375 c -0.02109,-0.0141 -0.05391,-0.0141 -0.07266,0 l -0.810937,0.49687 -0.03281,-0.82265 c 0,-0.0211 -0.01406,-0.0469 -0.03281,-0.0539 l -0.84375,-0.56953 0.789844,-0.40781 c 0.02578,-0.0141 0.03984,-0.0399 0.03984,-0.068 L 7.1620675,2.09209 c 0,-0.0211 -0.02109,-0.0469 -0.03984,-0.0609 L 4.9987895,1.00697 c -0.0211,-0.00699 -0.03985,-0.00699 -0.053913,-0.00699 l -2.899219,0.90469 c -0.03281,0.0141 -0.05391,0.0469 -0.04687,0.0867 l 0.642188,3.11953 c 0.02109,0.0797 0.796875,0.64219 0.904687,0.72422 l -0.630468,0.30234 c -0.03281,0.0211 -0.04687,0.0539 -0.03984,0.0797 l 0.482812,2.35078 c 0.01406,0.068 0.555469,0.54141 0.635157,0.61641 l -0.407813,0.24843 c -0.02109,0.0141 -0.03984,0.0469 -0.03281,0.0727 0.03281,0.16641 0.360937,1.82109 0.396093,1.85391 l 1.525782,1.61953 c 0.01406,0.0141 0.03281,0.0141 0.05391,0.0211 0.01406,0 0.02578,-0.007 0.03984,-0.0141 l 1.961718,-1.56797 c 0.02109,-0.0141 0.02578,-0.0328 0.02578,-0.0539 l -0.04687,-1.07812 0.65625,0.55547 c 0.02578,0.0211 0.06797,0.0211 0.09375,0 l 1.567968,-1.25157 c 0.02109,-0.0141 0.02578,-0.0328 0.02578,-0.0539 l 0.05391,-0.78281 0.4757805,0.32812 c 0.02578,0.0211 0.06094,0.0211 0.08672,0 l 1.279687,-1.02422 c 0.01406,-0.007 0.02578,-0.0258 0.02578,-0.0469 0.02109,-0.15235 0.241406,-1.65938 0.227343,-1.70625 z m -4.7999995,0.1125 0.09375,2.17031 -2.123437,1.43437 -0.328125,-2.26406 2.357812,-1.34062 z M 7.0214395,2.19764 7.1480015,5.15076 4.6495645,6.4492 4.1878455,3.28982 7.0214395,2.19764 Z m -4.239844,2.85937 -0.609375,-2.93203 1.867969,1.15781 0.454687,3.11485 -1.713281,-1.34063 z m 0.717187,3.46406 -0.442968,-2.13046 1.640625,1.3664 0.321093,2.18906 -1.51875,-1.425 z m 0.569532,2.7586 -0.321094,-1.57266 1.446094,1.42735 0.227343,1.57968 -1.352343,-1.43437 z m 1.511718,1.51172 -0.248437,-1.66172 2.008594,-1.43906 0.07266,1.64062 -1.832813,1.46016 z m 1.921875,-2.69766 c 0,-0.0797 0.02109,-0.53672 -0.04687,-0.58828 L 6.8855065,9.0367 7.4081625,8.68748 c 0.05391,-0.0398 0.02578,-0.13359 0.02578,-0.1875 l 0.689062,0.52969 0.01406,1.60078 -0.635157,-0.53672 z m 2.210157,-0.59531 -1.427344,1.13906 -0.01406,-1.60781 1.539844,-1.09922 -0.09844,1.56797 z M 10.361282,8.89607 9.9136265,8.58201 9.9604965,7.78514 c 0.007,-0.0211 -0.007,-0.0469 -0.02578,-0.0609 l -0.965625,-0.6375 0.01406,-0.70313 1.5140625,0.95157 -0.135938,1.56093 z M 11.64097,7.96326 10.508939,8.86092 10.642532,7.33514 11.840189,6.47732 11.64097,7.96326 Z"/>
</svg>
