<svg role="img" focusable="false" aria-hidden="true" xmlns="http://www.w3.org/2000/svg" viewBox="0 0 14 14" height="1em" width="1em">
  <path d="m 11.4935,4.125 0.0205,0.001 0.0195,0.003 0.02,0.0055 0.0195,0.0075 0.019,0.01 0.0195,0.011 0.0175,0.015 0.0175,0.0145 0.0185,0.0225 0.023,0.0225 0.015,0.0225 0.022,0.0225 0.0375,0.0595 0.0145,0.03 0.0145,0.0375 0.015,0.037 0.0155,0.037 0.014,0.037 0.0145,0.045 0.0145,0.045 0.015,0.045 0.0155,0.0445 0.0145,0.052 0.014,0.052 0.0155,0.0525 0.015,0.052 0.0145,0.052 0.0145,0.052 0.015,0.06 0.015,0.059 0.0145,0.0675 0.0075,0.06 0.0145,0.067 0.015,0.067 0.0085,0.0675 0.014,0.0745 0.0075,0.074 0.0075,0.0745 0.0155,0.0745 0.0075,0.0745 0.008,0.074 0.0075,0.0825 0.0075,0.082 0.0075,0.0815 0.0075,0.0825 0.0075,0.082 0.008,0.0895 0.0075,0.1715 0.008,0.0895 0.0075,0.0895 0.0075,0.09 0.0075,0.09 0.0075,0.0965 0.0075,0.0965 0.0075,0.0965 0.008,0.0975 0.0075,0.0965 0,0.194 0.008,0.1045 0.0075,0.1045 0,0.2015 0.0075,0.104 0,0.3055 0.0075,0.2095 0.0075,0.3125 0,0.6345 0.0075,0.1865 0.015,0.1345 0.023,0.0895 0.0215,0.0595 0.0235,0.052 0.0295,0.045 0.0225,0.022 0.0225,0.0225 0.022,0.0225 0.031,0.0145 0.0445,0.023 0.0445,0.0145 0.048,0.015 0.071,0.0145 0.0965,0.0055 0.1345,-0.008 0.05,0 0,1.1265 -0.1195,0.0145 -0.283,0.013 -0.305,-0.0145 -0.224,-0.0335 -0.172,-0.0445 -0.127,-0.0445 -0.1185,-0.0595 -0.118,-0.075 -0.104,-0.092 -0.067,-0.067 -0.068,-0.0745 -0.085,-0.1345 -0.075,-0.1565 -0.0595,-0.171 -0.041,-0.2015 -0.027,-0.228 -0.0075,-0.254 0,-0.969 -0.0075,-0.209 0,-0.4325 -0.0075,-0.201 0,-0.1435 -0.008,-0.0995 0,-0.1985 -0.0075,-0.097 0,-0.0965 L 10.9645,7.2645 10.957,7.1675 10.95,7.078 10.9485,6.988 10.941,6.8985 10.9335,6.807 l 0,-0.089 L 10.926,6.628 10.9175,6.5385 10.9115,6.449 10.9045,6.364 10.896,6.279 10.8885,6.197 10.881,6.1125 10.8735,6.0325 10.8665,5.951 10.859,5.869 10.8505,5.794 10.843,5.72 10.835,5.641 10.8275,5.5705 10.82,5.503 10.798,5.364 10.79,5.297 10.7825,5.2295 10.7675,5.167 10.7545,5.0995 10.74,5.0405 10.725,4.9805 10.7095,4.921 10.6925,4.8695 10.678,4.8175 10.6655,4.766 10.643,4.721 10.6285,4.669 10.614,4.6245 10.603,4.5795 10.5885,4.535 10.573,4.49 10.558,4.453 10.5435,4.415 10.529,4.378 10.514,4.3485 10.499,4.318 10.4845,4.288 10.4625,4.258 10.4475,4.2355 10.4295,4.213 10.414,4.191 10.3935,4.176 10.3795,4.1615 10.3565,4.1465 10.3425,4.139 10.3195,4.131 10.295,4.125 10.273,4.117 10.258,4.1095 l -0.015,0 1.276,0 -0.0255,0.0155 z M 1.004,2.542 1.5885,2.5525 2.133,2.5655 2.618,2.573 3.0435,2.588 3.4085,2.6025 3.7295,2.617 4.013,2.632 4.266,2.6465 4.4975,2.6695 4.7065,2.6915 4.9,2.7145 5.0785,2.7365 5.243,2.7595 5.3995,2.7815 5.541,2.812 5.676,2.8415 5.802,2.871 5.922,2.901 6.0335,2.931 6.138,2.961 6.235,2.9985 6.332,3.028 6.4215,3.065 6.503,3.103 6.586,3.14 6.66,3.177 6.742,3.214 6.816,3.259 6.8835,3.304 6.951,3.349 7.0105,3.393 7.07,3.438 7.1295,3.483 7.189,3.528 7.241,3.573 7.293,3.625 7.345,3.67 l 0.0525,0.052 0.045,0.052 0.045,0.052 0.052,0.0525 0.045,0.052 0.045,0.052 0.037,0.052 0.045,0.0525 0.037,0.0595 0.037,0.052 0.037,0.0595 0.0375,0.06 0.037,0.0595 0.037,0.06 0.03,0.0595 0.0305,0.0595 0.037,0.0595 0.03,0.0595 0.03,0.0595 0.03,0.0595 0.03,0.06 0.0225,0.059 0.024,0.06 L 8.228,5.041 8.253,5.1 8.283,5.1675 8.313,5.227 8.335,5.2865 8.3655,5.354 8.3925,5.4215 8.4145,5.481 8.44,5.548 8.4625,5.608 8.485,5.6745 8.5075,5.742 8.53,5.8095 8.5525,5.8765 8.5745,5.944 8.5895,6.011 8.612,6.0785 8.6315,6.146 8.646,6.2125 8.6655,6.28 8.68,6.3475 8.7005,6.4145 8.715,6.4815 8.7375,6.549 8.752,6.6085 8.7745,6.676 l 0,0.007 0.0145,0.06 0.0155,0.0635 0.0145,0.067 0.0145,0.0675 0.015,0.0595 0.015,0.0675 0.0145,0.0665 0.0225,0.06 0.0145,0.067 0.015,0.0595 0.015,0.0675 0.0145,0.0595 0.0145,0.0595 0.015,0.06 0.015,0.0595 0.0145,0.06 0.015,0.0595 0.015,0.0595 0.0145,0.0595 0.0145,0.0595 0.015,0.0595 0.015,0.0595 0.007,0.06 0.015,0.052 0.023,0.1115 0.0145,0.0525 0.0145,0.052 0.015,0.052 0.011,0.052 0.0145,0.052 0.008,0.052 0.0145,0.052 0.015,0.052 0.0075,0.052 0.0145,0.0525 0.015,0.045 0.015,0.0485 0.0075,0.0445 0.015,0.045 0.0075,0.045 0.0075,0.0445 0.0075,0.045 0.0075,0.0375 0.008,0.045 0.0075,0.0425 0.008,0.0375 0.007,0.037 0.008,0.039 0.012,0.037 L 9.422,9.4185 9.4295,9.456 9.437,9.49 9.445,9.52 9.4565,9.557 9.468,9.5875 9.476,9.62 9.4835,9.65 9.4915,9.68 9.499,9.71 9.5065,9.74 9.514,9.77 9.5215,9.7925 9.5365,9.818 9.544,9.8405 9.5515,9.863 9.5595,9.885 9.574,9.908 9.5815,9.93 l 0.019,0.0375 0.0075,0.019 0.015,0.0305 0.0075,0.0145 0.0075,0.015 0.0075,0.0145 0.008,0.015 0.0075,0.0075 0.0075,0.0075 0.0075,0.0075 0.008,0.0075 0.0075,0.008 0.0145,0.008 0.008,0.002 0.0075,0.0075 0.015,0 -3.5135,0 L 6.1975,10.124 6.169,10.116 6.1405,10.109 l -0.03,-0.008 -0.03,-0.0075 -0.008,0 -0.026,-0.012 L 6.0185,10.074 5.99,10.0585 5.9595,10.0435 5.9375,10.029 5.9075,10.014 5.885,9.9995 5.8545,9.9845 5.8325,9.962 5.8105,9.9395 5.78,9.917 5.7575,9.8945 l -0.03,-0.022 -0.03,-0.03 -0.03,-0.028 -0.022,-0.03 L 5.615,9.7575 5.585,9.735 5.555,9.705 5.5245,9.675 5.5025,9.645 5.4715,9.6425 5.442,9.6125 5.4195,9.5785 5.3925,9.546 5.333,9.472 5.3035,9.4345 5.281,9.3975 5.2505,9.3525 5.221,9.3155 5.1905,9.2705 5.1605,9.233 5.1305,9.189 5.1005,9.144 5.0705,9.099 5.04,9.054 5.0105,9.009 4.98,8.964 4.95,8.9195 4.92,8.8675 4.8905,8.8225 4.8675,8.7705 4.8375,8.718 4.8075,8.666 4.7775,8.6135 4.747,8.5615 4.7175,8.5095 4.6875,8.4575 4.6575,8.4055 4.627,8.3535 4.5975,8.3015 4.567,8.2495 4.5375,8.1975 4.507,8.138 4.477,8.078 4.447,8.0185 4.4165,7.9585 4.387,7.899 4.3565,7.8395 4.327,7.78 4.297,7.7205 4.2295,7.7065 4.205,7.6435 4.1755,7.582 4.145,7.5205 4.1155,7.458 4.0835,7.3955 4.0535,7.332 4.0235,7.2725 3.9915,7.213 3.9615,7.1535 3.93,7.094 3.9,7.0345 3.87,6.9595 3.84,6.8925 3.8085,6.833 3.777,6.773 3.747,6.706 3.7155,6.6465 3.685,6.579 3.655,6.5195 3.625,6.452 3.595,6.385 3.565,6.318 3.536,6.251 3.5065,6.1835 3.476,6.124 3.4465,6.057 3.417,5.9905 3.3875,5.923 3.3575,5.8555 3.3275,5.7885 3.268,5.6545 3.238,5.58 3.208,5.52 3.1785,5.453 3.148,5.393 3.118,5.3335 3.0815,5.2745 3.0515,5.207 3.0145,5.147 2.9845,5.088 2.9475,5.028 2.917,4.9685 2.8875,4.9085 2.8575,4.849 2.8275,4.7895 2.798,4.721 2.738,4.6015 2.708,4.542 2.6775,4.4825 2.6405,4.423 2.6035,4.3635 2.536,4.249 2.507,4.1895 2.47,4.1345 2.432,4.0745 2.4025,4.0185 2.372,3.9665 2.3095,3.8625 2.2725,3.8095 2.242,3.758 2.213,3.7055 2.1825,3.661 2.1525,3.6085 2.121,3.5565 2.088,3.5115 2.0585,3.4665 2.0215,3.4215 1.9835,3.3775 1.954,3.333 1.9165,3.288 1.8725,3.2295 1.839,3.1915 1.8045,3.1525 1.775,3.1155 1.746,3.0655 1.709,3.0285 1.676,2.9985 1.6385,2.964 1.6075,2.9315 1.57,2.891 1.5375,2.861 1.505,2.831 1.471,2.802 1.4375,2.7755 1.403,2.753 1.368,2.7305 1.336,2.701 1.2985,2.678 1.2685,2.656 1.2315,2.634 1.198,2.619 1.164,2.604 1.129,2.589 1.0935,2.574 1.0595,2.5585 1.03,2.547 1,2.544 l 0.004,0 0,-0.002 z"/>
</svg>
