<svg role="img" focusable="false" aria-hidden="true" xmlns="http://www.w3.org/2000/svg" viewBox="0 0 14 14" height="1em" width="1em">
  <path d="M 6.4195,12.986 C 3.38,12.694 1,10.1285 1,7.014 c 0,-3.3115 2.6885,-6 6,-6 3.3115,0 6,2.6885 6,6 0,3.115 -2.38,5.6795 -5.4195,5.9715 l 0,-3.523 C 8.6905,9.2 9.5155,8.202 9.5155,7.014 9.5155,5.625 8.389,4.4975 7,4.4975 c -1.389,0 -2.516,1.1275 -2.516,2.5165 0,1.1885 0.8265,2.186 1.935,2.4485 l 5e-4,3.5235 z M 6.2255,5.6585 c 0.321,0 0.581,0.2605 0.581,0.581 0,0.3205 -0.2605,0.581 -0.581,0.581 -0.3205,0 -0.58,-0.2605 -0.58,-0.581 0,-0.3205 0.26,-0.5805 0.58,-0.581 z"/>
</svg>
