<svg role="img" focusable="false" aria-hidden="true" xmlns="http://www.w3.org/2000/svg" viewBox="0 0 14 14" height="1em" width="1em">
  <path d="m 9.8661049,4.6185 c 0,-0.125 0,-0.238 0.075,-0.3125 0.0995,-0.088 0.2000001,-0.075 0.3000001,-0.075 l 0.714,0 c 0.383,0 0.9375,0.0995 1.3125,0.4385 0.375,0.3495 0.4575,0.8505 0.4575,1.302 l 0,1.126 c 0,0.2995 0.0075,0.5135 -0.142,0.789 -0.1875,0.3505 -0.5775,0.45 -0.5775,0.501 0,0.05 0.4195,0.126 0.607,0.501 0.1505,0.3 0.135,0.4875 0.135,0.788 l 0,1.5525 c 0,0.3075 0,0.6975 -0.4495,1.2225 -0.4275,0.4715 -1.0195,0.54 -1.32,0.54 -0.2245,0 -0.3895,0.008 -0.615,0 -0.1495,-0.0155 -0.3745001,0.008 -0.4270001,-0.0685 -0.0745,-0.1115 -0.097,-0.089 -0.097,-0.427 l 0,-7.8815 0.027,0.004 z m -2.73,8.1745 c 0,0.201 -0.0495,0.201 -0.425,0.201 -0.288,0 -0.375,0 -0.375,-0.176 l 0,-8.2035 c 0,-0.125 0.0115,-0.2615 0.087,-0.337 0.1005,-0.088 0.1875,-0.0505 0.288,-0.0505 l 0.714,0 c 0.4005,0 0.939,0.0995 1.314,0.438 0.375,0.3495 0.4635,0.864 0.4635,1.302 l 0,1.13 c 0,0.2995 0.0125,0.5135 -0.138,0.789 -0.1875,0.3505 -0.588,0.45 -0.588,0.501 0,0.05 0.4125,0.126 0.6,0.501 0.15,0.3 0.1385,0.4875 0.1385,0.788 l 0,3.1125 c 0,0.1955 -0.09,0.1955 -0.4275,0.1955 -0.292,0 -0.375,0.008 -0.375,-0.1795 l 0,-3.1795 c 0,-0.5135 -0.337,-0.826 -0.6145,-0.826 -0.5925,0 -0.6675,-0.0115 -0.6675,0.1875 l 0,3.795 0.0055,0.0115 z m -1.914,0.1875 c -0.338,0 -0.375,0 -0.375,-0.175 l 0,-8.3745 c 0,-0.1625 0.074,-0.1875 0.375,-0.1875 0.337,0 0.425,0.0115 0.425,0.199 l 0,8.3395 c 0,0.1875 -0.0225,0.202 -0.42,0.202 l -0.005,-0.0035 z M 10.804605,12.167 c 0.098,0.0155 0.113,0.0155 0.2255,0.0155 0.135,0 0.4495,-0.037 0.675,-0.2705 0.2475,-0.2695 0.2625,-0.449 0.2625,-0.659 l 0,-1.6055 c 0,-0.577 -0.3375,-0.824 -0.7125,-0.824 -0.54,0 -0.578,0.037 -0.578,0.337 l 0,2.632 c 0,0.1435 0.0075,0.375 0.12,0.3905 l 0.0075,-0.016 z M 2.8041049,10.3885 c 0.213,-2.1515 0.4005,-3.98 0.5995,-5.9465 0.0255,-0.2115 0.126,-0.199 0.3525,-0.199 0.3495,0 0.4745,0.0255 0.462,0.1625 -0.375,3.082 -0.663,5.362 -1.0385,8.407 -0.023,0.1805 -0.1575,0.1875 -0.4125,0.1875 -0.3225,0 -0.4725,0 -0.5025,-0.21 -0.3375,-2.8205 -0.645,-5.325 -1.012,-8.399 -0.008,-0.1505 0.0525,-0.1505 0.4045,-0.1505 0.3675,0 0.443,0.0375 0.4495,0.202 0.203,2.1905 0.353,3.8925 0.5405,5.9775 0,0.038 0.0155,0.12 0.075,0.12 0.075,0 0.09,-0.082 0.09,-0.135 l -0.008,-0.0165 z m 4.6575,-5.331 c -0.1125,0 -0.2255,0 -0.2765,0.0865 -0.037,0.075 -0.037,0.1385 -0.037,0.2135 l 0,2.341 c 0,0.1375 -0.0255,0.2755 0.075,0.3505 0.074,0.0595 0.162,0.045 0.2245,0.045 0.1385,0 0.465,-0.037 0.69,-0.2775 0.2495,-0.2785 0.2495,-0.4875 0.2495,-0.6675 l 0,-1.177 c 0,-0.2875 -0.05,-0.501 -0.2625,-0.7255 -0.1375,-0.125 -0.2125,-0.1875 -0.663,-0.1875 l 0,-0.0015 z m 3.6170001,0 c -0.176,0 -0.3125,0 -0.3635,0.0865 -0.0365,0.075 -0.0365,0.1385 -0.0365,0.2135 l 0,2.341 c 0,0.1375 -0.013,0.25 0.0745,0.338 0.0745,0.075 0.1255,0.0625 0.225,0.0625 0.175,0 0.4635,-0.037 0.69,-0.2745 0.249,-0.2785 0.249,-0.466 0.249,-0.6675 l 0,-1.185 c 0,-0.2875 -0.0495,-0.501 -0.263,-0.7255 -0.1375,-0.125 -0.224,-0.1875 -0.5755,-0.1875 l 0,-0.0015 z M 6.4446049,2.005 l -0.789,0 0,-0.8075 c 0,-0.1855 -0.0865,-0.1975 -0.418,-0.1975 -0.2935,0 -0.3675,0.0245 -0.3675,0.184 l 0,0.821 -0.7685,0 c -0.1845,0 -0.198,0.087 -0.198,0.4175 0,0.295 0.0255,0.3675 0.1845,0.3675 l 0.7815,0 0,0.7745 c 0,0.171 0.0375,0.171 0.367,0.171 0.393,0 0.418,-0.0115 0.418,-0.1965 l 0,-0.7475 0.8135,0 c 0.1725,0 0.1725,-0.038 0.1725,-0.368 5e-4,-0.393 -0.012,-0.418 -0.196,-0.4185 z"/>
</svg>
