<svg role="img" focusable="false" aria-hidden="true" xmlns="http://www.w3.org/2000/svg" viewBox="0 0 14 14" height="1em" width="1em">
  <path d="m 7,1 c 3.3115,0 6,2.6885 6,6 0,3.3115 -2.6885,6 -6,6 C 3.6885,13 1,10.3115 1,7 1,3.6885 3.6885,1 7,1 Z m 1.6395,8.84 c -0.383,0.2205 -0.5145,0.711 -0.293,1.0945 0.2205,0.3825 0.711,0.514 1.094,0.292 C 9.8235,11.006 9.955,10.5155 9.733,10.132 9.5125,9.7495 9.0225,9.618 8.6395,9.84 Z M 7,9.34 C 6.6475,9.34 6.3135,9.2615 6.0145,9.1225 L 5.458,10.12 c 0.465,0.2295 0.989,0.3605 1.542,0.3605 0.323,0 0.634,-0.0455 0.93,-0.128 C 7.982,10.031 8.1725,9.7355 8.4775,9.559 8.782,9.3835 9.134,9.366 9.4375,9.481 10.0305,8.8995 10.416,8.1065 10.4725,7.2235 L 9.33,7.207 C 9.225,8.4025 8.2225,9.34 7,9.34 Z M 4.66,7 C 4.66,6.2085 5.0535,5.5095 5.655,5.085 L 5.07,4.1045 C 4.368,4.5695 3.8475,5.289 3.6295,6.122 c 0.253,0.202 0.415,0.517 0.415,0.87 0,0.352 -0.162,0.6595 -0.415,0.8695 0.218,0.8325 0.7385,1.552 1.4405,2.017 L 5.655,8.896 C 5.0535,8.485 4.66,7.787 4.66,7 Z M 2.92,6.199 C 2.4775,6.199 2.119,6.5575 2.119,7 2.119,7.4425 2.4775,7.801 2.92,7.801 3.3625,7.801 3.7205,7.4425 3.7205,7 3.7205,6.5575 3.3625,6.199 2.92,6.199 Z M 7,4.66 c 1.2225,0 2.225,0.9375 2.33,2.1325 l 1.1425,-0.017 C 10.416,5.893 10.03,5.1005 9.4375,4.5175 9.133,4.6335 8.781,4.6145 8.4775,4.4405 8.173,4.2645 7.9825,3.968 7.93,3.645 7.633,3.565 7.323,3.52 7,3.52 6.445,3.52 5.9225,3.65 5.458,3.88 L 6.0145,4.8775 C 6.3145,4.738 6.6485,4.66 7,4.66 Z M 8.6395,4.1595 C 9.022,4.3805 9.5125,4.25 9.734,3.867 9.9545,3.4845 9.8245,2.994 9.44,2.772 9.0575,2.552 8.567,2.6825 8.3455,3.0665 c -0.2205,0.382 -0.09,0.872 0.294,1.093 z"/>
</svg>
