<svg aria-hidden="true" xmlns="http://www.w3.org/2000/svg" viewBox="0 0 14 14" height="1em" width="1em">
  <path d="M6.62 11.546a5.198 5.198 0 0 1-.826-.149A4.58 4.58 0 0 1 2.48 7.592a6.86 6.86 0 0 1 0-1.182 4.569 4.569 0 0 1 3.46-3.844c.538-.136 1.266-.156 1.865-.053a4.583 4.583 0 0 1 2.769 1.656c.436.549.75 1.217.89 1.897.073.36.084.483.084.935 0 .454-.01.576-.086.939a4.599 4.599 0 0 1-.71 1.653 4.592 4.592 0 0 1-2.815 1.87c-.32.067-.463.08-.877.084h-.44zm.382-2.181a.767.767 0 0 0 .381-.209 2.11 2.11 0 0 1 .103-.096s0 .057.01.127v.126h.35v-1.09c0-.794 0-1.094-.01-1.107-.02-.024-.353-.025-.373 0-.01.01-.015.245-.018.71 0 .63-.01.702-.028.766-.063.191-.162.317-.3.384a.43.43 0 0 1-.198.043c-.165.01-.247-.02-.337-.109-.111-.11-.108-.082-.108-.993 0-.595 0-.79-.016-.802-.022-.022-.35-.022-.372 0-.02.02-.022 1.691 0 1.792a.576.576 0 0 0 .292.385.957.957 0 0 0 .258.084c.094.012.28.01.363-.011zm2.29-.019c.123-.035.25-.1.358-.181l.085-.064.033.056a.407.407 0 0 0 .204.17c.102.034.329.02.384-.024.017-.013.024-.235.01-.275-.01-.015-.025-.021-.07-.021-.034 0-.08-.01-.101-.014-.083-.03-.081-.011-.081-.716 0-.371-.01-.676-.013-.725a.558.558 0 0 0-.317-.417c-.148-.07-.304-.093-.566-.085-.18 0-.247.012-.322.034-.216.063-.364.177-.443.342a.814.814 0 0 0-.077.32v.046h.17c.216 0 .222 0 .233-.064a.352.352 0 0 1 .205-.272c.062-.028.085-.031.27-.031h.2l.089.043a.29.29 0 0 1 .123.096c.032.049.035.064.035.182 0 .128 0 .128-.042.166-.058.052-.134.07-.46.116-.33.046-.453.075-.577.136a.573.573 0 0 0-.343.557c0 .21.053.345.183.47a.643.643 0 0 0 .31.16c.04.01.083.017.097.02.065.015.329 0 .42-.03zm-.41-.35c-.134-.046-.191-.14-.182-.3.01-.1.023-.133.103-.198.071-.057.207-.096.494-.14a3.97 3.97 0 0 0 .34-.066l.076-.024-.01.191c0 .177-.01.195-.04.26A.577.577 0 0 1 9.28 9a.996.996 0 0 1-.404 0zm-3.1.128v-.188H4.306V7.62c0-1.036 0-1.32-.016-1.338-.014-.02-.04-.022-.217-.019h-.202v3.043c.01.013.204.016.958.013h.952V9.13zM9.233 6.43c.134-.034.329-.12.433-.19.304-.205.515-.528.583-.891.03-.159.02-.45-.02-.595a1.384 1.384 0 0 0-.987-.983c-.098-.027-.138-.03-.35-.03-.224.002-.25 0-.358.037a1.374 1.374 0 0 0-.804 2.037c.088.147.3.36.447.45.161.098.346.165.54.196.128.02.372.01.515-.031zM11.3 3.696a1.334 1.334 0 0 1-.981-.95c-.026-.095-.03-.14-.03-.337 0-.198 0-.24.03-.33.069-.238.184-.437.35-.6a1.306 1.306 0 0 1 1.849.01c.33.333.459.799.344 1.252a1.326 1.326 0 0 1-.911.94c-.102.03-.143.035-.33.039-.176 0-.234 0-.32-.02zm-4.642 7.862a4.633 4.633 0 0 1-2.309-.84 4.537 4.537 0 0 1-1.445-1.704 4.55 4.55 0 0 1-.435-1.435 5.973 5.973 0 0 1-.02-.942 4.57 4.57 0 0 1 6.29-3.863 4.566 4.566 0 0 1 2.362 2.213c.228.464.36.905.437 1.449.033.232.033.899 0 1.13A4.565 4.565 0 0 1 11.108 9c-.236.48-.5.85-.87 1.222a4.547 4.547 0 0 1-2.664 1.311c-.149.02-.771.036-.915.024zm.332-2.2c.042-.01.127-.038.187-.067a.65.65 0 0 0 .21-.154l.102-.102v.12c0 .066.01.128.014.139.015.024.247.035.302.014l.036-.014V7.117h-.364l-.01.682c-.01.741-.01.754-.084.916a.5.5 0 0 1-.25.263c-.096.047-.104.049-.237.049-.168 0-.244-.028-.33-.125-.1-.11-.099-.104-.099-.987 0-.424 0-.779-.01-.788-.01-.013-.055-.016-.186-.013h-.174v.877c0 .846 0 .88.023.963a.6.6 0 0 0 .46.394c.098.021.314.024.418.01zm2.266-.014c.141-.034.27-.097.39-.189.055-.043.098-.067.1-.058a.503.503 0 0 0 .15.18.408.408 0 0 0 .303.057c.166-.026.161-.02.161-.17 0-.144 0-.15-.085-.15a.368.368 0 0 1-.095-.018c-.082-.034-.081-.024-.081-.739 0-.41-.01-.676-.014-.725-.042-.228-.227-.392-.512-.454a2.028 2.028 0 0 0-.61 0 .957.957 0 0 0-.356.16.662.662 0 0 0-.214.455v.087h.363l.012-.039c.052-.174.11-.248.227-.294.102-.039.339-.049.457-.019.115.03.194.08.234.151.027.05.032.075.033.171 0 .204-.035.225-.494.29-.384.055-.446.07-.587.137-.258.124-.382.36-.343.653.036.268.22.462.495.521.13.028.337.025.467-.01zm-.372-.337c-.133-.043-.2-.14-.2-.29 0-.152.095-.252.298-.312a3.33 3.33 0 0 1 .299-.055 3.14 3.14 0 0 0 .417-.084c.017 0 .019.022.019.183 0 .174 0 .194-.034.26-.061.133-.164.22-.334.282a.879.879 0 0 1-.465.016zm-3.13.296c.02-.014.021-.038.018-.186V8.95l-.733-.01-.734-.01-.01-1.332c0-.732-.01-1.332-.01-1.334h-.196c-.132 0-.197 0-.208.016-.012.012-.015.363-.015 1.503 0 .818 0 1.494.01 1.502.01.01.018.018.03.022.01 0 .426.01.922.01.708.001.909 0 .926-.015zM9.23 6.422c.398-.104.713-.36.89-.72.083-.17.117-.287.137-.47a1.33 1.33 0 0 0-.368-1.064 1.322 1.322 0 0 0-.857-.423 1.323 1.323 0 0 0-.718.13 1.364 1.364 0 0 0-.736.906 1.05 1.05 0 0 0-.028.323c0 .183 0 .224.035.337.14.523.549.898 1.092 1.002.135.026.413.015.552-.02zm2.091-2.713a1.349 1.349 0 0 1-.963-.813 1.228 1.228 0 0 1-.086-.526 1.2 1.2 0 0 1 .125-.526 1.306 1.306 0 0 1 1.063-.748 1.324 1.324 0 0 1 1.33.76 1.32 1.32 0 0 1-.605 1.736 1.134 1.134 0 0 1-.559.137c-.156 0-.217 0-.305-.02zm-4.585 7.862a4.627 4.627 0 0 1-1.213-.24 4.593 4.593 0 0 1-2.345-1.818 4.574 4.574 0 0 1-.73-2.045 5.903 5.903 0 0 1 .01-.994 4.579 4.579 0 0 1 4.08-4.029 6.95 6.95 0 0 1 .935 0c1.09.126 2.012.566 2.767 1.32.75.75 1.195 1.683 1.32 2.768.021.184.021.75 0 .935a4.563 4.563 0 0 1-1.32 2.767 4.576 4.576 0 0 1-2.748 1.318 8.46 8.46 0 0 1-.753.018zm.182-2.214a.783.783 0 0 0 .51-.274L7.501 9v.138c0 .102 0 .142.019.153.012.01.066.014.159.011h.14V7.127h-.348l-.01.678c-.01.576-.01.692-.028.762-.05.196-.157.347-.294.415-.262.131-.562.054-.663-.17l-.031-.069-.01-.805-.01-.805h-.168c-.126 0-.17 0-.178.013-.015.024-.013 1.609 0 1.718.038.271.248.459.56.499a.76.76 0 0 0 .257 0zm2.376-.034a.98.98 0 0 0 .36-.186.831.831 0 0 1 .087-.065s.019.026.034.058a.389.389 0 0 0 .173.166c.045.024.075.03.171.03a.98.98 0 0 0 .173-.018l.056-.016v-.265l-.078-.01c-.088-.01-.128-.026-.153-.068-.013-.022-.018-.197-.023-.737l-.01-.707-.03-.078a.597.597 0 0 0-.265-.272c-.155-.073-.253-.09-.516-.09-.207 0-.255 0-.344.028-.22.06-.368.167-.447.325-.073.145-.105.34-.059.358.034.013.291.01.318-.01.014-.01.025-.025.025-.038 0-.063.055-.169.117-.224.08-.072.166-.101.331-.11.23-.012.398.044.471.155.033.05.035.063.035.194 0 .136 0 .14-.038.179-.053.056-.119.074-.436.118-.325.045-.437.068-.544.11-.275.107-.42.33-.4.617.012.175.07.308.18.411.182.171.511.227.816.14zm-.363-.295c-.14-.03-.22-.102-.245-.215a.26.26 0 0 1 .01-.191c.036-.12.155-.2.369-.244.047-.01.17-.03.274-.045a2.982 2.982 0 0 0 .36-.074l.03-.01v.19c0 .237-.02.298-.129.41-.152.155-.43.23-.664.177zm-3.17.253a.934.934 0 0 0 0-.317c-.015-.02-.078-.022-.743-.025H4.29l-.01-1.324-.01-1.325h-.389v1.492c0 1.092 0 1.497.01 1.51.013.015.176.018.936.018.896 0 .92 0 .933-.025zm3.501-2.877a1.354 1.354 0 0 0 .762-2.06 1.706 1.706 0 0 0-.325-.336 1.353 1.353 0 0 0-2.1.733 1.642 1.642 0 0 0-.032.573c.089.553.52.999 1.078 1.116.058.012.15.016.293.013.178 0 .224-.01.324-.039zm2.13-2.67a1.372 1.372 0 0 1-.767-.406 1.328 1.328 0 0 1 .378-2.108 1.1 1.1 0 0 1 .539-.132c.216-.01.358.015.54.085.327.127.62.42.748.749.07.18.092.323.085.539-.01.23-.034.338-.133.539-.17.347-.487.607-.857.702a1.634 1.634 0 0 1-.533.031zm-4.689 7.844a4.71 4.71 0 0 1-1.292-.274 5.651 5.651 0 0 1-.838-.413 4.587 4.587 0 0 1-1.679-5.93 4.42 4.42 0 0 1 .874-1.208c.753-.754 1.693-1.198 2.786-1.32.22-.023.72-.02.948.01.916.11 1.7.44 2.406 1.011.181.147.487.452.637.636a4.596 4.596 0 0 1 .754 4.525 5.756 5.756 0 0 1-.406.818 4.604 4.604 0 0 1-1.462 1.462c-.21.132-.606.327-.838.413-.596.22-1.25.315-1.89.274zm.273-2.24a.702.702 0 0 0 .41-.229c.063-.063.117-.115.121-.115 0 0 .01.066.011.146v.147h.299V8.222c0-.99 0-1.067-.019-1.082a.72.72 0 0 0-.306 0c-.02.015-.022.081-.025.705v.688l-.036.102c-.085.241-.233.374-.455.412a.472.472 0 0 1-.43-.132c-.102-.113-.1-.085-.1-.968 0-.694 0-.784-.02-.803-.016-.016-.05-.02-.15-.02a.962.962 0 0 0-.155.013c-.024.013-.025.036-.025.843 0 .51 0 .856.013.899.01.039.03.105.05.148.117.248.45.376.813.312zm2.306-.02c.123-.033.27-.11.373-.193a.831.831 0 0 1 .086-.065s.024.03.045.07c.079.14.193.198.37.186a.483.483 0 0 0 .141-.02c.035-.015.036-.016.036-.138v-.124h-.059c-.077 0-.137-.026-.169-.073-.024-.036-.026-.07-.032-.752l-.01-.715-.043-.086c-.117-.238-.383-.346-.814-.331-.278.01-.453.062-.594.177a.668.668 0 0 0-.204.402c-.02.122-.024.12.165.115h.163l.015-.058c.05-.193.162-.284.388-.313.235-.03.461.034.546.154.034.05.04.068.044.172.01.132-.01.179-.064.227-.058.049-.139.069-.48.117a4.5 4.5 0 0 0-.408.073c-.315.096-.475.297-.475.596 0 .397.293.638.747.617a.998.998 0 0 0 .227-.033zm-.292-.267c-.211-.028-.32-.136-.322-.316 0-.116.02-.17.09-.233.1-.092.189-.12.56-.176a2.804 2.804 0 0 0 .404-.084c.014 0 .016.04.013.21v.212l-.045.082a.577.577 0 0 1-.104.135.809.809 0 0 1-.592.17zm-3.235.074v-.163h-.737c-.405 0-.738 0-.74-.01 0 0-.01-.602-.01-1.334l-.01-1.332h-.341l-.029.01v1.492c0 .82 0 1.495.01 1.5 0 0 .424.01.932.01h.923v-.163zm3.28-2.69c.17-.018.294-.054.461-.135.331-.162.564-.429.681-.783a1.377 1.377 0 0 0-.05-.97 1.401 1.401 0 0 0-.696-.681 1.403 1.403 0 0 0-.757-.087 1.344 1.344 0 0 0 .075 2.656.857.857 0 0 0 .286 0zm2.384-2.69a1.343 1.343 0 0 1-.283-2.596 1.344 1.344 0 0 1 1.776 1.034 1.345 1.345 0 0 1-1.493 1.564zM6.386 12.95c-.199-.022-.198-.022-.187-.067.01-.02.01-.038.013-.041 0 0 .29.018.404.032.053.01.055.01.055.052v.045H6.61a3.983 3.983 0 0 1-.223-.02zm.846-.022v-.042l.175-.015c.096-.01.2-.017.227-.02.046 0 .053 0 .064.032.01.023.01.04 0 .048-.014.014-.261.04-.385.04h-.09v-.042zm1.033-.096c-.01-.01-.01-.025-.01-.044 0-.034 0-.036.205-.087.112-.03.212-.055.222-.057.021-.01.05.064.032.08a3.053 3.053 0 0 1-.388.109h-.062zm-2.789-.05a2.95 2.95 0 0 1-.299-.09s.01-.023.014-.046c.01-.03.021-.04.034-.034.011 0 .108.032.216.06.108.03.2.058.206.062 0 0 .01.024 0 .044-.01.044-.024.044-.173 0zm3.768-.288c-.01-.019-.01-.039 0-.044.01-.01.054-.028.108-.052.054-.023.143-.065.198-.092.055-.028.103-.05.107-.05 0 0 .015.017.026.039.019.037.019.039-.012.059-.04.026-.373.174-.392.175-.01 0-.021-.015-.03-.034zm-4.716-.048a7.194 7.194 0 0 1-.205-.097l-.107-.054.02-.039c.01-.021.025-.039.03-.039.01 0 .103.044.214.098l.202.098-.013.038c-.01.021-.02.038-.028.038a.759.759 0 0 1-.112-.043zm5.632-.43c-.02-.03-.019-.033.01-.053.19-.134.35-.24.359-.24.01 0 .022.015.034.034.026.039.047.019-.193.184a1.318 1.318 0 0 1-.171.107c-.01 0-.025-.014-.037-.032zM3.572 11.9a5.155 5.155 0 0 1-.18-.133l-.05-.04.023-.035c.013-.02.03-.033.038-.03.01 0 .082.054.164.114l.18.13c.032.02.032.022.01.055-.011.019-.03.034-.038.033a.988.988 0 0 1-.147-.094zm3.131-.321a4.71 4.71 0 0 1-1.292-.275 5.651 5.651 0 0 1-.838-.412 4.587 4.587 0 0 1-1.679-5.93 4.42 4.42 0 0 1 .874-1.209C4.52 3 5.46 2.555 6.554 2.434c.22-.024.72-.021.948.01.916.11 1.7.439 2.406 1.01.181.147.487.452.637.636a4.596 4.596 0 0 1 .754 4.525 5.756 5.756 0 0 1-.406.818 4.604 4.604 0 0 1-1.462 1.462c-.21.132-.606.327-.838.413-.596.22-1.25.315-1.89.274zm.273-2.24a.702.702 0 0 0 .41-.23c.063-.062.117-.114.121-.114 0 0 .01.066.011.146v.146h.299V8.222c0-.99 0-1.066-.019-1.081a.72.72 0 0 0-.306 0c-.02.015-.022.08-.025.704v.689l-.036.101c-.085.241-.233.375-.455.412a.472.472 0 0 1-.43-.132c-.102-.113-.1-.085-.1-.967 0-.694 0-.785-.02-.803-.016-.016-.05-.02-.15-.02a.962.962 0 0 0-.155.013c-.024.013-.025.036-.025.842 0 .51 0 .856.013.9.01.038.03.104.05.147.117.249.45.377.813.312zm2.306-.02c.123-.034.27-.11.373-.194a.831.831 0 0 1 .086-.065s.024.031.045.07c.079.14.193.198.37.187a.483.483 0 0 0 .141-.021c.035-.014.036-.015.036-.138v-.124h-.059c-.077 0-.137-.026-.169-.073-.024-.036-.026-.07-.032-.752l-.01-.715-.043-.086c-.117-.237-.383-.346-.814-.331-.278.01-.453.062-.594.178a.668.668 0 0 0-.204.401c-.02.123-.024.12.165.116h.163l.015-.058c.05-.194.162-.285.388-.314.235-.03.461.034.546.155.034.049.04.068.044.172.01.132-.01.178-.064.226-.058.049-.139.069-.48.117a4.5 4.5 0 0 0-.408.073c-.315.096-.475.297-.475.597 0 .396.293.638.747.617a.998.998 0 0 0 .227-.033zm-.292-.268c-.211-.028-.32-.135-.322-.315 0-.117.02-.17.09-.234.1-.092.189-.12.56-.176a2.804 2.804 0 0 0 .404-.084c.014 0 .016.041.013.211v.211l-.045.082a.577.577 0 0 1-.104.135.809.809 0 0 1-.592.17zm-3.235.074v-.162h-.737c-.405 0-.738 0-.74-.01 0 0-.01-.603-.01-1.335l-.01-1.331h-.341l-.029.01v1.491c0 .82 0 1.495.01 1.5 0 0 .424.01.932.01h.923v-.162zm3.28-2.69c.17-.017.294-.053.461-.135.331-.161.564-.428.681-.783a1.377 1.377 0 0 0-.05-.97 1.401 1.401 0 0 0-.696-.68 1.403 1.403 0 0 0-.757-.088 1.344 1.344 0 0 0 .075 2.656.857.857 0 0 0 .286 0zm1.951 4.96-.028-.03.168-.169.169-.168.034.034.034.034-.166.163c-.091.09-.17.164-.175.164-.01 0-.022-.013-.037-.03zm-8.154-.111a4.872 4.872 0 0 1-.162-.162l-.095-.1.03-.033c.016-.018.036-.028.044-.023.01.01.084.081.17.168.152.157.154.16.13.185-.012.014-.03.026-.037.026a.29.29 0 0 1-.08-.062zm8.854-.65-.03-.025.127-.18c.07-.1.132-.186.137-.192.011-.013.076.025.076.044 0 .023-.254.377-.27.376 0 0-.023-.01-.04-.024zm-9.502-.09a3.837 3.837 0 0 1-.228-.349c0-.01.014-.025.032-.036.032-.021.032-.02.087.06.03.045.09.129.13.187a.74.74 0 0 1 .077.119c0 .01-.056.055-.068.054 0 0-.015-.016-.03-.036zm10.07-.778c-.02-.01-.037-.024-.037-.03 0-.01.044-.101.098-.212l.098-.202.04.015c.032.013.037.02.03.047a5.33 5.33 0 0 1-.19.403l-.04-.02zM1.65 9.665a3.622 3.622 0 0 1-.175-.39c0-.02.065-.052.078-.038 0 .01.037.072.07.147l.094.204.03.068-.037.02c-.037.02-.04.018-.06-.012zm10.991-.855c-.029-.01-.034-.018-.027-.04.01-.016.033-.116.063-.223l.054-.195h.038c.021 0 .041.01.044.01.014.014-.11.46-.126.458-.01 0-.025-.01-.045-.014zM1.224 8.537a1.976 1.976 0 0 1-.05-.23c0-.043 0-.047.037-.05h.04l.054.212c.03.117.054.219.054.227 0 .013-.039.03-.072.03-.01 0-.036-.083-.063-.185zm11.632-.738c-.016-.01-.027-.016-.024-.022 0-.01.013-.077.02-.16.031-.314.023-.285.074-.285.041 0 .044 0 .044.039 0 .059-.039.418-.047.43-.01.014-.029.013-.068 0zm-11.79-.107a3.071 3.071 0 0 1-.032-.374v-.09h.086l.016.215c.01.118.02.223.022.232 0 .01-.01.02-.024.025-.045.012-.063.01-.069-.01zm11.82-.935a4.298 4.298 0 0 1-.03-.446s.024-.01.045-.01c.034 0 .038 0 .046.056.01.032.013.14.019.238l.01.178h-.041c-.023 0-.044-.01-.046-.016zM1.035 6.63c0-.072.04-.421.05-.43.01 0 .024-.01.044 0 .042.01.041 0 .022.21-.025.278-.02.261-.072.261-.04 0-.045 0-.045-.039zm11.67-1.074c-.07-.273-.068-.259-.02-.27.024-.01.044-.01.046 0 .012.014.099.366.102.408 0 .048 0 .051-.037.055h-.04l-.05-.192zM1.22 5.647c-.02 0-.029-.015-.029-.034 0-.03.1-.396.115-.421.013-.022.097.01.088.03-.01.016-.069.24-.101.362-.018.067-.024.072-.072.063zm11.204-.935a8.89 8.89 0 0 0-.097-.21 2.988 2.988 0 0 1-.07-.152s.017-.013.038-.024c.032-.016.04-.017.053 0 .02.023.183.386.183.405 0 .012-.053.044-.073.044 0 0-.018-.028-.033-.062zM1.55 4.667c-.02-.01-.036-.021-.036-.032s.044-.11.097-.22l.097-.202.04.02c.044.023.05.04.021.08-.01.013-.052.098-.093.187a3.06 3.06 0 0 1-.082.17H1.55zm.483-.918-.03-.025.05-.076c.072-.111.216-.303.226-.303.01 0 .023.012.04.025l.033.025-.032.043-.135.186a1.512 1.512 0 0 1-.111.146c-.01 0-.024-.01-.041-.02zm9.386 0a1.343 1.343 0 0 1-.283-2.596 1.344 1.344 0 0 1 1.776 1.033 1.345 1.345 0 0 1-1.493 1.565zm-8.745-.805-.028-.028.046-.056c.025-.031.101-.107.169-.169.12-.11.123-.112.148-.09.014.013.026.03.026.038 0 .014-.312.333-.325.333 0 0-.02-.013-.035-.028zm.77-.695c-.012-.019-.017-.038-.011-.043.02-.019.232-.164.306-.212l.074-.048.02.028a.11.11 0 0 1 .02.043c0 .01-.042.043-.094.077a6.754 6.754 0 0 0-.182.126.58.58 0 0 1-.099.063c-.01 0-.022-.015-.034-.034zm6.228-.486a4.512 4.512 0 0 0-.198-.097l-.152-.072.014-.039c.01-.02.022-.039.032-.039.01 0 .11.044.22.097l.202.097-.02.04c-.024.046-.036.048-.098.013zm-5.345-.052c-.02-.036-.018-.039.01-.058.043-.028.372-.176.391-.176.021 0 .052.065.038.08-.01.01-.069.035-.14.067l-.204.092-.075.034-.02-.038zm4.377-.339a5.226 5.226 0 0 0-.208-.059 1.34 1.34 0 0 1-.14-.042s0-.026.002-.047c.01-.028.017-.038.035-.035.043.01.401.108.418.118.012.01.013.02 0 .051-.01.023-.018.041-.023.04l-.086-.026zm-3.41-.025c-.035-.065-.027-.07.21-.13.236-.06.244-.06.245.01 0 .025-.018.032-.172.07-.095.023-.194.05-.22.06-.045.014-.05.013-.063-.01zm1.007-.22v-.053c.014-.013.265-.039.383-.039h.09v.086l-.216.016c-.118.01-.223.02-.232.023-.011 0-.021-.01-.026-.034zm1.234.018a6.094 6.094 0 0 0-.179-.018c-.017 0-.023-.013-.023-.047 0-.042 0-.046.04-.046.071 0 .42.04.43.05.01.01.01.024 0 .044-.01.042-.015.042-.27.016zm-.304 11.84c-.01-.01-.014-.03-.012-.06v-.05l.11-.01c.061-.01.166-.016.234-.023.107-.01.125-.01.14.01.017.024.021.09 0 .1-.01.01-.198.024-.387.037H7.22zm-.871-.022a.809.809 0 0 1-.175-.03c-.01-.01-.01-.032 0-.062.01-.04.017-.049.045-.047.101.01.4.034.426.038.026.01.03.012.026.061v.055h-.078c-.043 0-.15-.01-.24-.017zm1.89-.124c0-.01-.01-.034-.01-.055v-.04l.136-.033.233-.062c.053-.015.102-.023.108-.017.01.01.014.032.018.058.01.057.016.054-.24.119-.193.049-.234.055-.243.029zm-2.78-.041c-.258-.07-.306-.087-.306-.104 0-.033.03-.098.043-.098.01 0 .071.017.139.037.068.02.166.047.218.06.052.013.098.03.102.039.01.022-.013.101-.028.105-.01 0-.083-.016-.168-.04zm3.765-.288c-.01-.026-.018-.052-.015-.06 0-.01.372-.184.426-.2.013 0 .027.01.042.04a.371.371 0 0 1 .022.053c0 .012-.425.214-.45.214 0 0-.015-.02-.025-.047zm-4.726-.056a24.82 24.82 0 0 1-.205-.098c-.055-.026-.1-.055-.1-.064 0-.01.01-.034.024-.057l.025-.041.2.095c.108.052.208.098.22.102.012 0 .023.014.023.022 0 .031-.04.091-.062.09a.686.686 0 0 1-.126-.05zm5.645-.422a.252.252 0 0 1-.027-.052s.079-.062.176-.128l.2-.138c.02-.015.028-.012.057.02.018.02.034.042.034.051 0 .01-.022.032-.049.053a5.307 5.307 0 0 1-.346.232c-.01 0-.029-.01-.045-.038zm-6.516-.068c-.186-.126-.305-.22-.305-.239.001-.028.048-.081.067-.076.037.01.386.265.386.283a.137.137 0 0 1-.029.057l-.03.037-.09-.062zm3.144-.378A4.586 4.586 0 0 1 4.45 3.19a4.595 4.595 0 0 1 4.462-.36 4.68 4.68 0 0 1 1.845 1.536c.675.965.953 2.133.784 3.298a4.594 4.594 0 0 1-1.46 2.738 4.696 4.696 0 0 1-1.832 1.015 4.682 4.682 0 0 1-1.467.168zm.194-2.245a.708.708 0 0 0 .412-.23c.062-.063.115-.114.12-.114 0 0 .01.066.01.146v.146h.146c.142 0 .146 0 .153-.026 0-.016.01-.5 0-1.075V7.142h-.338l-.01.695-.01.695-.036.102c-.084.236-.216.362-.43.407-.234.049-.454-.05-.53-.24-.03-.074-.03-.076-.034-.87v-.796H6.1v.831c0 .508 0 .858.01.9a.57.57 0 0 0 .436.45.95.95 0 0 0 .428.014zm2.306-.02c.123-.034.27-.11.373-.194a.831.831 0 0 1 .086-.065s.024.031.045.07c.046.082.12.144.204.173a.617.617 0 0 0 .308-.01c.035-.014.036-.015.036-.138v-.123h-.06c-.075 0-.14-.028-.17-.073-.022-.034-.024-.087-.03-.752l-.01-.715-.043-.087c-.073-.148-.22-.253-.426-.305a2.278 2.278 0 0 0-.662 0c-.309.078-.476.255-.525.555-.019.117-.017.118.172.113h.156l.022-.08c.057-.209.202-.296.494-.296.227 0 .363.051.438.164.034.051.036.063.036.194 0 .13 0 .142-.033.174a.363.363 0 0 1-.157.09c-.018 0-.176.027-.35.052a4.512 4.512 0 0 0-.409.073c-.314.096-.474.297-.474.597 0 .398.29.638.747.617.073 0 .172-.018.227-.033zm-.318-.272c-.194-.029-.295-.138-.296-.317 0-.108.021-.166.082-.226.091-.089.23-.13.602-.185a2.266 2.266 0 0 0 .369-.078c.014 0 .016.041.013.211 0 .192-.01.217-.036.276-.11.225-.43.364-.734.319zm-3.209.078v-.162h-.737c-.405 0-.738 0-.74-.01 0 0-.01-.603-.01-1.335l-.01-1.331h-.341l-.029.01V7.79c0 .82 0 1.495.01 1.5 0 0 .424.01.932.01h.923v-.162zm3.28-2.69c.17-.017.294-.053.461-.135a1.33 1.33 0 0 0 .711-.875c.038-.14.041-.482 0-.625a1.524 1.524 0 0 0-.162-.396 1.678 1.678 0 0 0-.415-.429 1.342 1.342 0 1 0-1.305 2.338c.157.076.352.123.556.134a.82.82 0 0 0 .15-.012zM10.97 11.4l-.03-.04.168-.168a1.81 1.81 0 0 1 .18-.167c.015 0 .084.06.084.076 0 .02-.334.34-.354.34-.01 0-.034-.019-.049-.04zm-8.24-.193c-.107-.109-.164-.176-.161-.19 0-.012.02-.034.04-.049l.036-.027.168.168c.093.092.169.175.169.183 0 .017-.059.083-.075.083-.01 0-.086-.076-.177-.168zm8.945-.559c-.016-.013-.029-.03-.029-.038 0-.01.034-.06.075-.115.041-.056.101-.14.133-.188.032-.048.067-.087.078-.087.011 0 .036.013.056.03l.037.03-.062.09c-.126.185-.22.304-.24.304a.1.1 0 0 1-.048-.025zm-9.508-.101a4.138 4.138 0 0 1-.237-.354c0-.01.08-.065.095-.065 0 0 .04.048.078.107.04.059.101.15.138.2l.067.093-.036.033c-.02.018-.043.033-.051.033-.01 0-.033-.022-.054-.049zm10.067-.77-.042-.025.068-.14c.038-.077.084-.177.103-.221.02-.045.041-.081.05-.081.03 0 .09.04.09.062 0 .033-.197.431-.213.431a.17.17 0 0 1-.056-.026zm-10.587-.08a3.439 3.439 0 0 1-.191-.438c.01-.02.099-.043.11-.031 0 .01.034.07.064.14.031.072.073.164.093.205.02.041.037.079.037.085 0 .01-.08.055-.096.055l-.018-.016zm10.981-.87c-.043-.016-.044 0 .024-.244.071-.26.062-.24.11-.239.078 0 .08.016.04.172-.09.342-.09.342-.173.311zm-11.373-.12a3.223 3.223 0 0 1-.101-.428c0-.019.017-.03.049-.036.025-.01.049-.01.054 0 0 0 .019.048.03.1.012.052.038.156.059.23a.46.46 0 0 1 .027.147c-.01.01-.032.014-.058.018-.043.01-.05 0-.061-.028zm11.588-.891c-.023-.01-.03-.02-.024-.041 0-.016.014-.106.022-.198.023-.269.018-.254.079-.254.037 0 .054.01.06.023.01.023-.03.452-.043.473-.01.015-.055.014-.095 0zm-11.787-.1a3.323 3.323 0 0 1-.04-.388v-.095c.01-.01.032-.014.06-.011h.052l.01.11c.01.061.015.166.02.234.01.082.01.129 0 .14-.013.017-.095.022-.105.01zm11.818-.942c0-.01-.012-.104-.02-.211-.01-.107-.018-.208-.022-.223-.01-.034.032-.06.083-.054.03 0 .036.012.044.062.014.089.036.419.029.43-.011.018-.11.013-.115-.01zM1.027 6.539c.01-.08.016-.193.024-.25l.015-.104h.051c.028 0 .055.01.061.013 0 .01.001.077-.01.16a2.48 2.48 0 0 0-.018.207c0 .105-.01.117-.075.117h-.059l.01-.146zm11.717-.774c0-.01-.019-.06-.033-.12a6.334 6.334 0 0 0-.058-.226.356.356 0 0 1-.022-.127c.01-.01.032-.014.058-.018.057-.01.055-.014.12.242.05.193.054.232.03.24-.05.015-.088.02-.094.01zM1.21 5.663a.06.06 0 0 1-.035-.015c-.02-.019.113-.482.138-.482.01 0 .036.01.06.015.048.017.051-.01-.03.284-.06.211-.063.216-.132.198zm11.213-.91-.097-.217a3.65 3.65 0 0 1-.082-.189c0-.01.084-.052.1-.052.01 0 .16.317.191.4l.021.056-.045.02c-.062.025-.07.023-.088-.018zm-10.89-.08-.043-.026.033-.075c.087-.196.176-.367.19-.367.01 0 .035.012.058.026l.042.026-.075.153a7.11 7.11 0 0 0-.104.22c-.016.038-.036.069-.045.069a.19.19 0 0 1-.058-.025zm.485-.914-.037-.03.062-.09c.127-.187.22-.305.24-.305.033 0 .086.063.071.084-.16.232-.263.37-.279.37a.128.128 0 0 1-.056-.03zm9.367-.015a1.342 1.342 0 1 1 .413-2.657 1.342 1.342 0 0 1-.413 2.657zm-8.717-.788c-.02-.015-.036-.034-.036-.042 0-.024.33-.346.354-.346.012 0 .035.018.05.04l.029.04-.168.168a1.715 1.715 0 0 1-.18.167c-.01 0-.029-.012-.049-.027zm.767-.693a.11.11 0 0 1-.023-.045c0-.022.372-.286.403-.286.01 0 .064.08.064.095 0 0-.049.039-.109.078s-.145.098-.19.13a.376.376 0 0 1-.103.06c-.011 0-.03-.014-.043-.032zm6.27-.471a11.187 11.187 0 0 0-.212-.102 3.334 3.334 0 0 1-.18-.088c-.01-.01.026-.098.042-.104.012 0 .426.186.445.206.01.01-.024.081-.042.096-.01.01-.029 0-.054-.01zm-5.389-.068c-.04-.067-.047-.062.295-.216a.517.517 0 0 1 .139-.05c.018.011.043.1.03.11-.01.01-.07.035-.14.065a6.731 6.731 0 0 0-.205.093.485.485 0 0 1-.085.037c-.01 0-.02-.018-.034-.04zm4.415-.328c-.021-.01-.118-.036-.214-.063l-.176-.048v-.049a.15.15 0 0 1 .013-.059c.01-.01.291.058.422.101.066.022.07.03.047.094-.015.044-.032.048-.096.025zM5.28 1.352c-.01-.02-.016-.043-.019-.052 0-.01 0-.02.011-.029a3.38 3.38 0 0 1 .445-.118c.031 0 .044.023.044.077 0 .035 0 .038-.094.059-.082.02-.285.073-.35.092-.016 0-.027 0-.036-.03zm2.358-.18a2.193 2.193 0 0 0-.195-.018c-.113 0-.123-.01-.123-.076V1.02l.133.01c.207.013.362.036.369.054.01.027-.015.104-.035.105-.01.001-.077-.01-.149-.015zm-1.343-.01c-.01-.01-.014-.039-.012-.063 0-.04.01-.043.069-.052.103-.014.4-.034.419-.027.017.01.023.102.01.112 0 0-.097.012-.205.02l-.229.02c-.02 0-.04 0-.05-.012zm.187 11.829c-.021 0-.095-.011-.164-.02-.069-.01-.132-.018-.142-.024-.014-.01-.015-.025-.01-.074.014-.073-.012-.068.26-.044.292.026.267.017.263.096v.068h-.207zm.727-.01c0-.011-.01-.043 0-.07v-.05l.11-.01c.061-.01.172-.015.247-.022.157-.015.173-.01.166.084 0 .05-.01.052-.062.06-.032.01-.147.014-.256.019-.172.01-.199.01-.206-.011zm1.046-.114c-.025-.015-.04-.108-.023-.126a.854.854 0 0 1 .178-.056c.09-.022.191-.049.226-.06.073-.025.086-.017.11.06.02.06.012.064-.17.115-.217.06-.304.078-.32.067zm-2.767-.05c-.239-.065-.326-.094-.333-.114 0-.01 0-.04.01-.067.016-.038.026-.048.05-.047a7.1 7.1 0 0 1 .453.117c.031.01 0 .15-.036.148l-.145-.037zm3.74-.291c-.044-.074-.035-.092.063-.134.048-.02.145-.065.216-.099a.996.996 0 0 1 .147-.062c.02 0 .069.075.069.107 0 .014-.027.036-.075.06-.077.04-.377.171-.388.171 0 0-.018-.019-.032-.042zm-4.727-.06c-.205-.093-.3-.143-.307-.163-.01-.02.041-.124.058-.124.01 0 .06.025.12.056.06.03.158.078.218.104.059.027.11.056.114.066.01.02-.034.114-.053.12a.89.89 0 0 1-.15-.06zm5.643-.423c-.019-.025-.032-.053-.03-.063a.72.72 0 0 1 .147-.115c.08-.053.172-.117.206-.142l.063-.045.038.045c.021.025.038.055.038.066 0 .026-.38.298-.417.298-.01 0-.026-.02-.044-.045zm-6.507-.062a4.347 4.347 0 0 1-.316-.236c-.017-.02.04-.112.07-.112.017 0 .13.077.382.258.024.017.029.03.023.055-.01.033-.054.09-.071.089 0 0-.044-.025-.087-.054zm3.092-.382a4.62 4.62 0 0 1-2.657-1.05 5.703 5.703 0 0 1-.62-.62 4.601 4.601 0 0 1-.437-5.227 4.673 4.673 0 0 1 1.914-1.81 4.605 4.605 0 0 1 6.618 3.397 4.566 4.566 0 0 1-.727 3.279 4.799 4.799 0 0 1-1.149 1.181 4.539 4.539 0 0 1-2.585.85H6.73zm.298-2.285c.137-.036.226-.092.355-.223.07-.07.127-.119.133-.112.01.01.013.076.015.154v.142h.273V7.158H7.5l-.01.666c-.01.629-.01.672-.034.768-.07.258-.216.413-.447.472a.534.534 0 0 1-.448-.093.445.445 0 0 1-.096-.133l-.043-.087V7.16h-.304v.805c0 .836 0 .934.05 1.044.099.223.36.35.684.331.059 0 .14-.015.179-.025zM9.293 9.3a.92.92 0 0 0 .389-.216c.03-.028.06-.047.068-.042.01 0 .025.032.04.062.083.165.235.231.445.191l.086-.016v-.23h-.062a.199.199 0 0 1-.168-.086c-.022-.033-.024-.09-.03-.745-.01-.777-.01-.752-.09-.875-.067-.098-.188-.172-.362-.22-.084-.022-.136-.026-.34-.026-.262 0-.36.017-.512.089a.614.614 0 0 0-.332.522v.056h.302l.024-.079c.06-.198.186-.282.447-.3.198-.013.367.03.459.117.07.066.092.128.092.26 0 .227-.045.256-.51.32-.366.051-.446.07-.577.13a.535.535 0 0 0-.322.37.642.642 0 0 0 .144.585c.177.172.504.23.808.141zm-.362-.244c-.099-.023-.132-.038-.186-.085-.062-.055-.093-.14-.092-.254.001-.146.062-.234.207-.3.094-.043.19-.066.441-.103.235-.035.295-.047.376-.079.032-.012.055-.015.063-.01.01.01.01.103.01.225 0 .202-.01.216-.04.287-.119.24-.474.385-.776.316zm-3.189.07v-.149H5.01c-.566 0-.735-.01-.743-.019-.01-.01-.01-.608-.01-1.33V6.311h-.351v2.975h1.838v-.15zm3.42-2.722a1.29 1.29 0 0 0 .666-.356c.13-.129.189-.208.264-.358a1.326 1.326 0 1 0-2.468-.947c-.033.108-.036.134-.036.35 0 .206 0 .248.029.345.037.136.126.327.202.433.193.27.5.47.826.535.122.024.396.024.517 0zm1.803 5.01c-.02-.021-.034-.046-.032-.055a3.07 3.07 0 0 1 .364-.349c.024 0 .089.066.089.09 0 .025-.338.352-.363.352-.012 0-.038-.017-.058-.038zm-8.244-.2a1.245 1.245 0 0 1-.167-.192c0-.027.07-.094.093-.088.027.01.348.343.348.364 0 .023-.066.09-.09.09a1.41 1.41 0 0 1-.184-.173zm8.96-.55c-.027-.017-.049-.041-.049-.052 0-.011.037-.071.082-.133.045-.062.107-.149.137-.193.032-.048.064-.081.077-.081.013 0 .042.016.067.036l.044.037-.069.103c-.078.116-.215.3-.231.31a.158.158 0 0 1-.058-.027zm-9.571-.177c-.133-.189-.193-.28-.193-.294 0-.018.082-.079.105-.079.01 0 .06.063.112.14.05.077.115.17.143.209l.05.07-.045.038c-.025.02-.054.038-.066.038-.012 0-.058-.052-.106-.12zm10.117-.699c-.027-.014-.049-.03-.049-.036 0-.01.032-.076.072-.155a7.32 7.32 0 0 0 .103-.217.22.22 0 0 1 .05-.079c.02-.01.107.026.12.046.01.013-.14.345-.189.426-.03.05-.04.05-.107.015zM1.572 9.575a3.79 3.79 0 0 1-.135-.314s.019-.016.042-.03c.062-.038.094-.034.114.016.01.023.054.123.1.222.044.099.081.185.081.192 0 .016-.08.063-.108.063-.017 0-.042-.04-.094-.15zm11.05-.74c-.035-.016-.043-.026-.038-.05.01-.03.11-.418.121-.45 0-.013.02-.016.061-.01.091.014.093.022.05.19-.022.083-.053.19-.07.24-.033.101-.049.111-.125.078zM1.258 8.746c-.029-.037-.134-.468-.12-.49.015-.024.108-.04.126-.022.012.012.09.291.13.459 0 .023 0 .03-.055.049-.074.025-.064.025-.08 0zm11.583-.917c-.037-.011-.037 0-.014-.255.025-.29.017-.266.093-.266.048 0 .067.01.073.022a3.2 3.2 0 0 1-.033.452c-.01.046-.013.052-.048.054-.021 0-.053 0-.071-.01zM1.042 7.727c-.01-.01-.023-.189-.04-.408-.01-.103 0-.118.086-.112h.056l.01.11c0 .062.016.172.023.247.012.123.011.138-.01.153-.024.018-.115.022-.125.01zm11.819-.941c0-.01-.012-.104-.02-.211-.01-.107-.018-.214-.022-.237-.01-.037 0-.044.029-.056.02-.01.054-.012.076-.01.035 0 .04.01.049.056 0 .029.014.147.018.263l.01.211h-.067c-.043 0-.07-.01-.073-.016zm-11.849-.11c-.016-.042.03-.484.053-.507h.069c.072.014.067-.012.043.259-.025.29-.017.266-.093.266-.048 0-.067-.01-.073-.021zm11.73-.897a.212.212 0 0 1-.03-.08 9.766 9.766 0 0 0-.062-.234c-.048-.176-.047-.18.028-.205.021-.01.046-.01.055-.01.018.01.066.155.112.352.028.117.03.135.012.152a.067.067 0 0 1-.043.02c-.013 0-.032 0-.04.01h-.033zM1.207 5.676c-.06-.012-.062-.03 0-.24.064-.236.083-.283.11-.283.033 0 .111.036.111.052 0 .01-.02.088-.047.179l-.065.233c-.02.072-.025.075-.105.06zm11.2-.927a7.265 7.265 0 0 0-.099-.218 1.631 1.631 0 0 1-.078-.182c0-.019.076-.067.108-.067.017 0 .04.035.083.127.063.136.147.327.147.336 0 .013-.087.057-.112.057-.02 0-.033-.014-.05-.052zm-10.88-.06c-.033-.018-.044-.03-.041-.053.01-.045.194-.43.215-.439.02-.01.1.027.114.05.01.01-.151.367-.196.442-.017.029-.034.029-.09 0zm.491-.91a.125.125 0 0 1-.042-.04c0-.01.018-.054.047-.098.076-.112.227-.316.241-.325.018-.01.108.054.108.078a.626.626 0 0 1-.082.133 8.58 8.58 0 0 0-.137.193c-.058.086-.077.094-.135.06zm9.347-.023a1.365 1.365 0 0 1-1.09-1.674 1.35 1.35 0 0 1 .39-.655c.173-.163.355-.264.591-.329.15-.04.437-.048.598-.014a1.36 1.36 0 0 1 1.072 1.09c.03.156.02.422-.019.576-.035.138-.147.37-.232.48a1.397 1.397 0 0 1-.755.502 1.531 1.531 0 0 1-.555.024zm-8.71-.795c-.02-.02-.036-.045-.036-.054 0-.025.337-.352.363-.352.023 0 .092.064.092.086 0 .021-.335.349-.361.353-.012 0-.039-.013-.058-.033zm.777-.682a.159.159 0 0 1-.034-.064c0-.032.393-.303.423-.292.018.01.07.083.07.103 0 .01-.025.027-.055.048l-.198.137a3.45 3.45 0 0 1-.158.106c-.01 0-.03-.014-.049-.04zM9.7 1.808a3.179 3.179 0 0 0-.214-.106 5.127 5.127 0 0 1-.19-.09c-.01-.01.024-.105.042-.12.014-.013.047 0 .152.044.204.092.31.148.318.168.011.03-.044.123-.073.124 0 0-.02-.01-.035-.02zm-5.394-.074c-.047-.077-.04-.085.202-.195.121-.055.225-.1.23-.1.016 0 .048.056.056.098.01.036 0 .041-.035.057a8.16 8.16 0 0 0-.224.1 2.499 2.499 0 0 1-.191.082c-.01 0-.023-.019-.038-.042zm4.306-.357a12.647 12.647 0 0 0-.226-.064l-.07-.019.01-.053c.013-.097.02-.098.24-.038.232.062.289.084.289.112 0 .043-.038.111-.061.11a2.3 2.3 0 0 1-.18-.047zm-3.343-.01c-.035-.095-.03-.115.037-.133.23-.06.39-.099.42-.099.027 0 .036.01.042.036 0 .02.01.044.013.055v.033c0 .01-.106.04-.224.07-.295.077-.27.074-.283.038zm2.323-.189c-.096-.01-.2-.02-.23-.025l-.055-.01v-.065c0-.048 0-.067.022-.073.042-.016.484.03.507.053v.07c-.014.073-.001.071-.239.046zm-1.311-.016c-.01-.015-.013-.05-.011-.076 0-.047.01-.048.069-.057.147-.02.429-.034.445-.02.01.01.016.038.016.07 0 .034-.01.06-.016.063-.01 0-.098.012-.198.02-.1.01-.206.016-.236.021-.046.01-.056 0-.07-.02z"/>
</svg>
