<svg aria-hidden="true" xmlns="http://www.w3.org/2000/svg" viewBox="0 0 14 14" height="1em" width="1em">
  <path d="M6.728 12.997a3.947 3.947 0 0 1-2.588-1.179 3.972 3.972 0 0 1-1.07-2.015 1.095 1.095 0 0 1-.012-.433 3.85 3.85 0 0 1 .767-1.86c.167-.216.469-.532.44-.462a4.65 4.65 0 0 0-.123.454 4.36 4.36 0 0 0 .615 3.347 4.316 4.316 0 0 0 3.434 1.934c.048 0 .045 0-.078.044a3.712 3.712 0 0 1-.703.15c-.137.016-.56.029-.682.02zm1.497-.584a3.949 3.949 0 0 1-1.9-.563c-.279-.168-.337-.22-.499-.434a3.82 3.82 0 0 1-.764-2.409l.002-.073.058.113a4.486 4.486 0 0 0 1.232 1.455 4.302 4.302 0 0 0 2.1.849c.221.028.773.028.994 0a4.325 4.325 0 0 0 2.363-1.068l.117-.103-.068.13a3.961 3.961 0 0 1-1.2 1.372 3.967 3.967 0 0 1-2.435.73zm-4.47-.426-.144-.08a3.974 3.974 0 0 1-1.997-3.01 5.744 5.744 0 0 1-.005-.888c.07-.647.29-1.255.652-1.802a.875.875 0 0 1 .238-.258 3.786 3.786 0 0 1 1.582-.753c.244-.052.434-.073.714-.08l.262-.01-.156.087c-.25.14-.46.28-.681.458a6.65 6.65 0 0 0-.639.643 4.341 4.341 0 0 0-.013 5.43c.096.12.135.166.22.258.033.037.032.037-.032.001zm5.716-1.067a3.808 3.808 0 0 1-1.97-.815c-.124-.1-.444-.4-.435-.408.002 0 .06.014.128.035.284.087.588.147.88.175.187.018.618.018.805 0a4.336 4.336 0 0 0 1.983-.7 4.01 4.01 0 0 0 .676-.564c.753-.759 1.175-1.716 1.252-2.84l.007-.102.021.067c.069.216.119.436.157.69.022.143.025.21.025.534 0 .393-.01.507-.073.808a3.988 3.988 0 0 1-2.646 2.978c-.022.01-.093.027-.159.046-.275.081-.498.114-.651.095zm-1.945-.182a4.012 4.012 0 0 1-2.083-1.86c-.066-.124-.064-.124.069 0 .163.149.436.346.658.477a.328.328 0 0 1 .122.117c.336.496.771.922 1.25 1.224l.154.098c.042.027-.005.013-.17-.05zm-2.758-.63a4.06 4.06 0 0 1-.27-2.535c.037-.175.11-.42.12-.403.006.01.01.05.01.094 0 .167.061.561.127.82l.027.105-.027.146a3.514 3.514 0 0 0-.065.773c0 .401.025.622.111.994a.973.973 0 0 1 .023.115 1.04 1.04 0 0 1-.056-.11zm3.376-.563a4.617 4.617 0 0 1-.612-.099 2.26 2.26 0 0 1-.346-.103s.034-.01.075-.01c.227-.01.599-.063.858-.132l.1-.027.14.027c.27.053.44.067.777.067.403 0 .688-.035 1.044-.126a.697.697 0 0 1 .087-.02 4.04 4.04 0 0 1-2.123.42zm.908-.64a4.4 4.4 0 0 0 1.59-1.447c.383-.58.608-1.195.697-1.903a5.77 5.77 0 0 0 0-.988 4.668 4.668 0 0 0-.2-.887 4.448 4.448 0 0 0-.913-1.547c-.035-.036-.058-.064-.051-.062.085.032.34.18.502.293.289.198.672.558.871.816.378.491.634 1.037.76 1.623.068.313.079.43.079.847 0 .35-.003.404-.026.556a3.976 3.976 0 0 1-.627 1.656c-.1.153-.139.192-.331.337a3.81 3.81 0 0 1-1.888.753c-.055.01-.21.015-.346.018l-.246.01.129-.07zm-.201-.4a4.66 4.66 0 0 0 .488-.665c.069-.114.087-.135.15-.179a4.273 4.273 0 0 0 1.293-1.373.459.459 0 0 1 .04-.065 4.003 4.003 0 0 1-1.91 2.285l-.123.066zm-7.667-.296a4.115 4.115 0 0 1-.178-1.377c.046-.684.209-1.241.52-1.787a3.92 3.92 0 0 1 1.7-1.6 3.67 3.67 0 0 1 .87-.313c.227-.05.274-.056.423-.04a3.8 3.8 0 0 1 2.01.829c.15.12.42.377.41.388-.004 0-.037 0-.073-.015a4.369 4.369 0 0 0-.797-.175 5.023 5.023 0 0 0-.66-.034c-.69.037-1.22.17-1.777.444a4.322 4.322 0 0 0-2.25 2.716 5.113 5.113 0 0 0-.16.959l-.008.1zm2.002-.418s.026-.077.057-.161c.113-.306.306-.668.502-.942.183-.255.483-.572.732-.772.162-.131.436-.313.606-.404.156-.083.157-.094-.01.101a4.225 4.225 0 0 0-.418.589.376.376 0 0 1-.153.164c-.235.16-.42.313-.624.52a4.17 4.17 0 0 0-.617.787 1.301 1.301 0 0 1-.075.118zm6.559-.811c0-.01.01-.042.022-.079a4.96 4.96 0 0 0 .19-.93c.045-.48.005-1-.112-1.466-.127-.507-.26-.78-.574-1.182a12.741 12.741 0 0 1-.201-.264 4.54 4.54 0 0 0-.977-.984 4.493 4.493 0 0 0-1.053-.56 4.42 4.42 0 0 0-1.215-.251l-.164-.01.078-.027c.156-.054.597-.16.761-.182.336-.046.562-.056.814-.034a3.974 3.974 0 0 1 1.516.416c.387.195.708.43 1.027.75.554.558.9 1.192 1.079 1.983a1.48 1.48 0 0 1 0 .605 3.824 3.824 0 0 1-.842 1.85c-.102.123-.35.379-.35.362zm-.361-.26a4.32 4.32 0 0 0-.132-.817l-.022-.08.027-.145c.053-.28.067-.45.068-.774 0-.317-.015-.495-.062-.752a5.757 5.757 0 0 0-.084-.373c-.013-.043.046.076.1.2a4.033 4.033 0 0 1 .115 2.892c-.002 0-.007-.066-.01-.15zm-.869-1.57a4.524 4.524 0 0 0-.667-.487c-.072-.043-.088-.059-.156-.16a4.644 4.644 0 0 0-.707-.8 4.777 4.777 0 0 0-.548-.407 2.353 2.353 0 0 1-.143-.093 3.998 3.998 0 0 1 2.33 2.043c-.002 0-.05-.044-.109-.096zm.341-.188a5.049 5.049 0 0 0-.437-.659 4.798 4.798 0 0 0-.903-.847 4.628 4.628 0 0 0-.855-.466 5.951 5.951 0 0 0-.47-.157c-.033-.01-.12-.028-.192-.046a5.395 5.395 0 0 0-.573-.102 7.37 7.37 0 0 0-.916 0c-.904.105-1.7.458-2.389 1.057l-.131.114.038-.077a4.005 4.005 0 0 1 1.739-1.732 3.993 3.993 0 0 1 1.993-.416 4.086 4.086 0 0 1 2.089.683.79.79 0 0 1 .242.217c.45.553.726 1.2.826 1.936.016.121.032.488.024.573l-.006.069zm-5.05-.105c.181-.095.522-.22.771-.283.17-.043.418-.086.598-.103.18-.018.569-.018.748 0 .272.027.586.09.822.168l.1.033h-.06c-.21 0-.562.055-.83.12l-.166.04-.12-.023a4.177 4.177 0 0 0-1.85.06c-.076.023-.078.02-.013-.013z"/>
</svg>
