<svg role="img" focusable="false" aria-hidden="true" xmlns="http://www.w3.org/2000/svg" viewBox="0 0 14 14" height="1em" width="1em">
  <path d="m 12.9735,6.092 0,1.7965 c 0,0.0695 -0.025,0.129 -0.0745,0.1795 -0.05,0.049 -0.11,0.075 -0.1785,0.075 l -0.3895,0 0,-2.306 0.3895,0 c 0.069,0 0.129,0.025 0.1785,0.0745 0.0495,0.051 0.0745,0.1095 0.0745,0.1805 z M 12.72,8.409 c 0.069,0 0.129,0.025 0.1785,0.0745 0.0495,0.0495 0.0745,0.11 0.0745,0.1785 l 0,1.8035 c 0,0.07 -0.025,0.129 -0.0745,0.18 -0.05,0.0485 -0.11,0.073 -0.1785,0.073 l -0.3895,0 0,-2.3105 0.3895,0 z m 0,-5.145 c 0.069,0 0.1335,0.0255 0.192,0.075 C 12.9705,3.39 13,3.4495 13,3.519 l 0,1.797 C 13,5.3895 12.9695,5.4515 12.912,5.4985 12.8535,5.5435 12.789,5.566 12.72,5.566 l -0.6445,0 0,5.542 c 0,0.0675 -0.0265,0.12 -0.0785,0.1655 -0.0525,0.0375 -0.112,0.06 -0.182,0.06 l -3.352,0 0,-1.1325 2.6035,0 0,-0.5405 -2.6035,0 0,-0.6365 2.6035,0 0,-0.5105 -2.6035,0 0,-0.6525 2.6035,0 0,-0.5025 -2.6035,0 0,-0.637 2.6035,0 0,-0.503 -2.6035,0 0,-0.6525 2.6035,0 0,-0.51 -2.6035,0 0,-0.6375 2.6035,0 0,-0.5325 -2.6035,0 0,-1.2665 3.4435,0 c 0.008,0 0.0375,0.022 0.0845,0.0675 0.0475,0.047 0.076,0.1045 0.085,0.172 l 0,0.4055 0.644,0 z M 7.823,1.332 7.823,12.668 1,11.49 1,2.5405 7.8235,1.3325 7.823,1.332 Z m -1.9465,3.36 -0.8005,0.0525 0,1.4895 c -0.009,0.8725 -0.009,1.3765 0,1.5105 L 3.481,4.835 2.6665,4.867 l 0,4.128 0.637,0.052 0,-3.046 1.72,3.1325 0.8525,0.052 0,-4.4935 z"/>
</svg>
