<svg role="img" focusable="false" aria-hidden="true" xmlns="http://www.w3.org/2000/svg" viewBox="0 0 14 14" height="1em" width="1em">
  <path d="M 10.428571,1 3.5714286,1 C 2.1571429,1 1,2.15714 1,3.57143 l 0,6.85714 C 1,11.84286 2.1571429,13 3.5714286,13 l 6.8571424,0 C 11.842857,13 13,11.84286 13,10.42857 L 13,3.57143 C 13,2.15714 11.842857,1 10.428571,1 Z m -3.5089281,9.39911 c -1.0607143,0 -2.19375,-0.47679 -2.19375,-1.4384 l 0,-0.72857 1.06875,0 0,0.47679 c 0,0.40446 0.5223214,0.65625 1.1223214,0.65625 0.6482143,0 1.10625,-0.27857 1.10625,-0.79018 0,-0.6375 -0.7285714,-0.85446 -1.4651786,-1.14107 C 5.7035714,7.10179 4.8678571,6.73214 4.8678571,5.58304 c 0,-1.28572 1.0339286,-1.77858 2.1401786,-1.77858 1.0071429,0 2.0223214,0.37768 2.0223214,1.12233 l 0,0.83571 -1.06875,0 0,-0.43125 c 0,-0.32411 -0.4767857,-0.49554 -0.9535714,-0.49554 -0.5223214,0 -0.9535714,0.21697 -0.9535714,0.70179 0,0.59196 0.6026786,0.78214 1.2589286,1.04196 C 8.275,6.91161 9.2178571,7.30804 9.2178571,8.49464 9.2205371,9.79643 8.125,10.39911 6.9196429,10.39911 Z"/>
</svg>
