<svg aria-hidden="true" xmlns="http://www.w3.org/2000/svg" viewBox="0 0 14 14" height="1em" width="1em">
  <path d="M2.49 11.146c0-.052.523-1.397.554-1.424.028-.025.069-.031.2-.031.092 0 .179 0 .195.01.016.01.045.044.064.082.037.07.549 1.335.549 1.353 0 .01-.1.01-.221.01h-.222l-.047-.15-.047-.152h-.508L2.956 11l-.052.155h-.207c-.139 0-.207 0-.207-.014zm.905-.616c0-.027-.133-.413-.142-.413-.009 0-.142.386-.142.413 0 .01.064.013.142.013.078 0 .142-.01.142-.013zm1.585.382-.247-.44-.104-.186-.005.43-.005.43h-.417l.007-.652c.007-.705.012-.742.102-.783a.766.766 0 0 1 .298-.01c.015.01.136.177.27.381.133.205.253.372.266.372.013 0 .12-.158.24-.351.119-.193.232-.365.251-.382.041-.036.267-.044.338-.012.1.045.102.061.102.787v.668h-.39l-.005-.466-.005-.466-.251.461c-.139.254-.263.464-.277.467-.016 0-.077-.088-.168-.249zm3.434.235c-.482-.01-.532-.012-.553-.041-.018-.024-.026-.192-.036-.675-.007-.353-.01-.663-.006-.687.006-.044.007-.044.202-.044h.195l.005.53c.003.357.011.54.024.556.015.018.084.024.276.024.188 0 .258.01.263.022.055.159.09.236.128.28a.367.367 0 0 1 .038.049c-.003 0-.244-.01-.535-.013zm.796-.015c-.09-.043-.12-.077-.182-.208l-.05-.106V10.4c0-.4.003-.42.042-.493a.451.451 0 0 1 .294-.2 2.75 2.75 0 0 1 .446-.014c.321.01.362.01.426.044a.413.413 0 0 1 .189.201c.04.077.042.093.042.488 0 .385-.002.413-.038.48a.444.444 0 0 1-.225.204c-.077.034-.127.04-.48.046-.362.01-.4.01-.464-.025zm.709-.33a.182.182 0 0 0 .077-.059c.01-.018.024-.149.03-.291.021-.411-.002-.442-.336-.442-.193 0-.278.022-.3.077a3.151 3.151 0 0 0-.022.298c-.013.3.004.39.085.422.066.027.397.022.466-.01zm-8.663.31a.416.416 0 0 1-.207-.223c-.038-.081-.041-.12-.048-.463-.004-.244 0-.4.014-.448a.42.42 0 0 1 .204-.24c.069-.037.097-.039.601-.045l.529-.01-.005.165-.005.166-.423.01-.424.01-.042.05c-.042.048-.043.06-.043.325 0 .155.008.29.018.31.035.066.111.088.306.088.12 0 .191-.01.205-.021.013-.013.021-.076.021-.162 0-.134-.002-.142-.055-.192l-.056-.052.264.01h.264l.005.266c.006.302-.008.377-.087.443l-.054.046h-.456c-.405-.001-.463 0-.527-.034zm5.12-.018-.051-.052v-.591c0-.647 0-.65.105-.72.059-.04.067-.04.608-.04h.548l-.005.155-.005.156H7.17c-.264 0-.416.012-.431.024-.03.025-.032.195-.002.224.015.015.127.021.39.021h.37v.302h-.381c-.359 0-.382 0-.4.034-.032.06-.022.139.021.169.033.023.107.028.444.028h.405v.337H6.429l-.052-.052zm4.28-.6c.001-.717.001-.72.107-.773.058-.029.136-.03 1.031-.027h.97l.065.05c.062.048.17.21.171.257 0 .017-.076.022-.32.022h-.319v1.119h-.391v-1.137h-.924l.005.138.005.137.213.01.213.01.005.127.005.128-.194.01c-.13 0-.203.014-.222.03-.025.02-.03.065-.03.288v.264h-.39v-.652zM5.447 8.98c-1.028-.025-1.842-.068-2.078-.108a.845.845 0 0 1-.534-.337c-.155-.202-.24-.422-.301-.78-.033-.196-.056-1.11-.063-2.574-.004-.808-.001-.933.026-1.074.066-.34.188-.577.4-.777.24-.226.504-.335.94-.386 1.18-.14 4.942-.144 5.817-.01.472.074.846.263 1.083.55.24.29.417.743.469 1.205.027.24.03 2.446.004 2.645-.07.517-.217.92-.435 1.184-.169.204-.524.44-.662.44-.055 0-.2-.09-.214-.135a.542.542 0 0 1 .117-.144c.295-.299.44-.618.513-1.132.025-.172.03-.34.03-.87-.001-.653-.02-1.019-.072-1.376a1.622 1.622 0 0 0-.16-.567c-.148-.305-.441-.545-.734-.602-.21-.041-1.438-.064-3.25-.062-2 0-1.96 0-2.178.11-.158.08-.301.255-.379.461-.055.148-.069.377-.071 1.195-.002.64.002.773.027.892.04.19.086.3.178.428.154.215.296.311.507.346.281.046 3.93.095 4.12.056.13-.027.213-.098.284-.242.054-.11.056-.122.057-.35.002-.407-.034-.532-.168-.576-.048-.016-.289-.017-1.003 0-.516.01-1.382.024-1.924.032-1.15.017-1.111.012-1.286.185l-.105.104-.205-.03a1.08 1.08 0 0 1-.222-.045 6.928 6.928 0 0 1-.024-.644c-.008-.602-.007-.634.028-.752a.697.697 0 0 1 .445-.47c.087-.032.157-.038.552-.051a82.72 82.72 0 0 1 3.391-.02c.668.018.733.023.913.064.273.063.468.161.615.31.21.212.32.424.384.738.029.14.033.255.033.941 0 .555-.007.824-.023.928-.105.662-.56 1.127-1.22 1.247-.253.046-2.54.08-3.622.053z"/>
</svg>
