<svg role="img" focusable="false" aria-hidden="true" xmlns="http://www.w3.org/2000/svg" viewBox="0 0 14 14" height="1em" width="1em">
  <path d="m 9.0320316,1.7192898 c -0.0189,0.031 -0.009,0.056 0.0212,0.056 0.0305,0 0.0709,-0.025 0.0898,-0.056 0.0189,-0.031 0.009,-0.056 -0.0212,-0.056 -0.0305,0 -0.071,0.025 -0.0898,0.056 z m -4.80158,2.3976 c 0,0.025 0.0241,0.045 0.0536,0.045 0.0713,0 0.18747,-0.2216 0.14069,-0.2684 -0.0377,-0.038 -0.19425,0.1425 -0.19425,0.2235 z m 0.52916,0.4364 c 0.0389,0.063 0.24798,-0.035 0.24798,-0.1159 0,-0.069 -0.0367,-0.067 -0.17173,0 -0.0599,0.032 -0.0942,0.082 -0.0763,0.1112 z m 0.75867,0.541 c 0.0979,0.098 0.12682,0.086 0.3162,-0.1296 0.28687,-0.3267 0.20876,-0.4025 -0.16197,-0.1572 -0.23975,0.1587 -0.25466,0.1864 -0.15423,0.2868 z m 3.6442,0.2883 c -0.37012,0.2681 -0.4422,0.2273 -0.5643,-0.3198 -0.0588,-0.2635 0.2316,-0.3648 0.60216,-0.21 0.27908,0.1166 0.26524,0.3103 -0.0379,0.5298 z m -1.81324,0.9433 c 0.21009,0.048 0.29252,0.037 0.90566,-0.1273 0.24424,-0.065 0.56273,-0.1192 0.70775,-0.1198 0.2562,0 0.26367,-0.01 0.26367,-0.1691 0,-0.092 0.0644,-0.2626 0.14308,-0.3785 0.11705,-0.1722 0.13652,-0.2493 0.107,-0.424 -0.051,-0.3019 -0.1141,-0.367 -0.61252,-0.6322 -0.49234,-0.2619 -0.50393,-0.278 -0.72595,-1.0071 -0.12155,-0.3991 -0.15299,-0.6149 -0.15636,-1.073 -0.005,-0.6712 -0.0228,-0.6968 -0.52589,-0.7538 -0.37507,-0.042 -0.6651,0.037 -1.01174,0.2773 -0.3381,0.2343 -0.40806,0.4084 -0.39953,0.9944 0.01,0.6725 0.11179,1.1077 0.51557,2.1998 0.36038,0.9748 0.46755,1.1395 0.78926,1.2133 z m 2.41367,0.6299 c 0.0639,0.064 0.12952,0.04 0.12952,-0.046 0,-0.046 -0.0375,-0.083 -0.0833,-0.083 -0.0867,0 -0.11013,0.066 -0.0463,0.1296 z m -0.96789,0.1061 c 0.25049,0.1246 0.29264,0.1189 0.36953,-0.05 0.095,-0.2085 0.0125,-0.2703 -0.27804,-0.2082 -0.295,0.063 -0.32322,0.1427 -0.0915,0.258 z m -2.45568,3.0255002 c 5.6e-4,0.2103 0.0883,0.2365 0.17261,0.052 0.0441,-0.097 0.036,-0.2071002 -0.0326,-0.4430002 -0.12501,-0.4301 -0.22345,-0.4797 -0.17655,-0.089 0.0198,0.1651 0.0362,0.3813 0.0365,0.4805002 z m 2.36069,2.8466 c 0.0515,0.083 1.5536804,0.063 1.9763104,-0.026 1.1313,-0.2397 2.07183,-1.2234 2.26342,-2.3671 0.0398,-0.2374 0.0609,-1.4910002 0.0602,-3.5803002 -7.8e-4,-2.6195 -0.0161,-3.287 -0.0829,-3.6036 -0.26829,-1.2722 -1.24846,-2.1529 -2.59447,-2.3311 -0.31766,-0.042 -0.31648,-0.048 -0.13099,0.6272 0.80734,2.9373 0.93566,3.4781 0.90443,3.8124 -0.0542,0.5803 -0.20726,1.2151 -0.34146,1.4163 -0.2217,0.3325 -0.65703,0.7425 -0.9629404,0.907 -0.1612,0.087 -0.68533,0.3047 -1.16473,0.4845 -0.4958,0.186 -0.91154,0.3756 -0.9642,0.4397 -0.0871,0.1061 -0.083,0.1477 0.0703,0.7089 0.0896,0.3279 0.26478,0.9834002 0.38929,1.4566002 0.31463,1.1958 0.53838,1.992 0.57768,2.0556 z m -5.39933,-0.03 c 0.21954,0.048 0.73921,0.077 1.41546,0.08 1.23819,0.01 1.13987,0.078 0.93459,-0.6895 -0.421,-1.5732 -0.9217,-3.6065002 -1.39426,-5.6620002 -0.67464,-2.9343 -1.27691,-5.2938 -1.37679,-5.3937 -0.016,-0.016 -0.18677,0.054 -0.3794,0.1566 -0.66641,0.3535 -1.20692,1.049 -1.40146,1.8036 -0.13176004,0.511 -0.13176004,7.0777002 0,7.5888002 0.27128,1.0521 1.13809,1.8853 2.20186,2.1164 z"/>
</svg>
