<svg aria-hidden="true" xmlns="http://www.w3.org/2000/svg" viewBox="0 0 14 14" height="1em" width="1em">
  <path d="M4.036 4.262v3.163l-.072.145a1.445 1.445 0 0 1-.542.54c-.232.12-.39.16-.635.16-.373 0-.647-.116-.917-.386a1.324 1.324 0 0 1-.366-1.249 1.18 1.18 0 0 1 .357-.618c.292-.294.573-.401.992-.38.274.012.444.064.65.195a.7.7 0 0 0 .142.083c.002-.005.016-.098.031-.208a4.3 4.3 0 0 1 .04-.247c.01-.038-.018-.058-.165-.128-.258-.12-.44-.158-.765-.158-.346 0-.513.038-.816.188-.464.225-.797.649-.933 1.184a2.23 2.23 0 0 0 .011.867c.16.585.585 1.026 1.18 1.232.203.069.228.071.547.073.29 0 .357-.007.502-.053.22-.067.401-.159.586-.295.083-.06.152-.11.156-.11.003 0 .005.083.005.184v.185l.569.013V4.246h-.28c-.153 0-.278.007-.278.015zm4.595.442v.345h.446v-.691h-.446v.346zM5.87 4.512c-.018.011-.027.05-.023.094l.007.075.752.007.754.005.013-.054a.279.279 0 0 0 .005-.096c-.007-.037-.052-.04-.743-.044-.406-.005-.75.002-.765.013zm4.594.007c-.028.028-.033.082-.013.138.012.031.1.035.759.035h.745l.024-.053c.018-.038.018-.065 0-.1-.027-.047-.033-.047-.756-.047-.54 0-.738.006-.758.027zm-4.186.673a1.794 1.794 0 0 0-.88.43c-.265.244-.418.5-.526.864a1.373 1.373 0 0 0-.055.468c0 .34.035.493.18.792.099.203.14.259.317.437.239.239.424.357.73.462.202.07.225.071.557.073.334 0 .352-.002.558-.073.756-.263 1.226-.908 1.23-1.689a1.629 1.629 0 0 0-.187-.814c-.1-.207-.136-.256-.328-.446a1.38 1.38 0 0 0-.419-.319 2.365 2.365 0 0 0-.379-.152 2.21 2.21 0 0 0-.799-.033Zm.767.504a1.4 1.4 0 0 1 .76.685c.36.738-.044 1.608-.858 1.85a1.517 1.517 0 0 1-.69 0 1.372 1.372 0 0 1-.937-.996c-.16-.682.26-1.378.948-1.572.179-.05.59-.031.777.033zm3.828-.504c-.685.136-1.174.574-1.381 1.236-.052.167-.058.22-.058.535 0 .366.02.471.13.723.198.453.617.814 1.13.977.237.076.652.087.908.025a1.788 1.788 0 0 0 1.3-2.324 1.77 1.77 0 0 0-1.215-1.136 2.18 2.18 0 0 0-.814-.035zm.655.471c.348.083.7.361.86.68.109.223.146.375.146.602 0 .341-.111.634-.336.88a1.35 1.35 0 0 1-.578.378c-.16.056-.223.065-.413.067-.376 0-.649-.111-.914-.376a1.407 1.407 0 0 1-.36-.603 1.512 1.512 0 0 1 .012-.747c.15-.428.482-.752.906-.872.17-.05.488-.053.678-.01zM8.85 5.268l-.219.007v1.621c0 1.783.002 1.742-.136 2.017a1.53 1.53 0 0 1-.212.288 1.16 1.16 0 0 0-.142.163c0 .027.267.392.285.39.05-.002.395-.49.504-.71.156-.312.148-.189.143-2.076l-.007-1.706-.216.007z"/>
</svg>
