<svg aria-hidden="true" xmlns="http://www.w3.org/2000/svg" viewBox="0 0 14 14" height="1em" width="1em">
  <path d="M11.25 6.281v.027l-.002.025c-.045 1.164-.03 5.678-.029 5.91.001.54-.42.972-.81.642L6.872 10.12a189.857 189.857 0 0 1-2.404 2.463c-.496.473-.905-.664-.53-.904.034-.021 1.127-.975 2.337-2.025l-2.62-2.048c-.227-.177-.314-.472-.184-.63a.234.234 0 0 1 .166-.063.218.218 0 0 1 .082.019c.81.36 2.008 1.246 3.2 2.163C8.162 8.02 9.355 7 9.512 6.914c.194-.107.245.176.18.258-.066.083-1.1 1.163-2.234 2.34 1.117.865 2.176 1.693 2.845 2.067l.11-5.31c-.087-.103-2.703-3.58-2.986-3.873-.452.39-2.822 3.056-2.942 3.171.541.054 2.838.191 4.285.342.365.035.608.303-.175.296l-5.63-.009a.222.222 0 0 1-.199-.133.205.205 0 0 1 .048-.228c.03-.03 4.077-4.461 4.416-4.743A.36.36 0 0 1 7.473 1a.374.374 0 0 1 .246.114c.042.038 2.175 2.97 3.216 4.4.25.338.312.568.314.75v.016z"/>
</svg>
