<svg role="img" focusable="false" aria-hidden="true" xmlns="http://www.w3.org/2000/svg" viewBox="0 0 14 14" height="1em" width="1em">
  <path d="m 1.0172285,9.203745 0,-7.645443 C 1.0172285,1.249688 1.2669164,1 1.5750312,1 L 12.388015,1 c 0.311611,0 0.5593,0.249688 0.5593,0.559301 l 0,7.370786 C 12.612734,8.725343 12.218228,8.622472 11.770287,8.622472 c -0.626217,0 -1.101123,0.149813 -1.425218,0.447441 -0.324595,0.298626 -0.4843948,0.663171 -0.4843948,1.111111 0,0.484394 0.1647938,0.843945 0.4993758,1.073658 0.194756,0.142322 0.554307,0.269663 1.068664,0.380524 l 0.524344,0.11985 c 0.314608,0.06642 0.534333,0.149813 0.679151,0.229713 0.139825,0.09139 0.214732,0.218227 0.214732,0.382023 0,0.282646 -0.144819,0.476903 -0.434457,0.573283 l -0.01498,0.008 -1.103621,0 c -0.143322,-0.05194 -0.254681,-0.126852 -0.34457,-0.224729 -0.08989,-0.11186 -0.149812,-0.274657 -0.179775,-0.505868 l -0.9887639,0 c 0,0.282647 0.051436,0.521848 0.164794,0.739076 l -0.8389513,0 c 0.094881,-0.194756 0.1498127,-0.410986 0.1498127,-0.657678 0,-0.43945 -0.1498127,-0.774032 -0.4424469,-1.006741 C 8.627216,11.14382 8.3445693,11.024969 7.9710362,10.934082 L 7.1121099,10.733333 c -0.329588,-0.06991 -0.5443196,-0.139825 -0.6491885,-0.19975 -0.1548065,-0.08989 -0.2297129,-0.224719 -0.2297129,-0.394507 0,-0.189763 0.0799,-0.339575 0.2347066,-0.444444 0.164794,-0.104869 0.3745319,-0.154807 0.6441948,-0.154807 0.2446941,0 0.4394507,0.04494 0.6042447,0.129838 0.2466916,0.12784 0.3745318,0.344569 0.3945069,0.642697 l 0.9987515,0 C 9.0946317,9.790012 8.9023721,9.387016 8.5353309,9.11186 8.1637953,8.837203 7.7238452,8.694881 7.2019975,8.694881 c -0.6267166,0 -1.0961298,0.149813 -1.4247191,0.439451 -0.3196005,0.291136 -0.4843945,0.66417 -0.4843945,1.103621 0,0.484394 0.164794,0.842946 0.4993758,1.073657 0.2007491,0.134832 0.5593009,0.261174 1.0736579,0.379526 l 0.5218477,0.11985 c 0.3046193,0.06742 0.5293384,0.142322 0.6791511,0.23221 0.1398252,0.08989 0.2147316,0.214732 0.2147316,0.379526 0,0.284644 -0.1498128,0.469413 -0.4394507,0.574282 l -1.1186018,0 C 6.5817728,12.94407 6.4639201,12.869164 6.3790263,12.764794 6.2891386,12.654931 6.2242198,12.483146 6.1942572,12.258427 l -1.0072409,0 c 0,0.278652 0.052434,0.524345 0.1598002,0.739076 l -1.0436954,0 c 0.164794,-0.259675 0.2761548,-0.559301 0.3310862,-0.893883 l -1.0252185,0 C 3.5390762,12.358302 3.4531836,12.55206 3.3468165,12.677903 3.2169788,12.842697 3.047191,12.947566 2.8374532,13 L 2.2247191,13 C 2,12.947566 1.8067416,12.821223 1.650437,12.620474 1.4187266,12.341823 1.3068664,11.924345 1.3068664,11.372035 c 0,-0.559301 0.1148565,-0.98377 0.3295881,-1.28839 0.2247191,-0.306117 0.514357,-0.454432 0.8938826,-0.454432 0.3745318,0 0.6491885,0.104869 0.8439451,0.321598 0.1048689,0.119851 0.1947565,0.299626 0.2596754,0.537329 l 1.0387016,0 C 4.6576779,10.179526 4.5428215,9.868914 4.3300874,9.559301 3.9445693,9.009988 3.3343321,8.735331 2.5003746,8.735331 c -0.5792759,0 -1.065668,0.179775 -1.4531836,0.529338 L 1.022222,9.209739 Z m 11.9320845,1.815731 0,-0.77603 -0.257677,0 C 12.674156,9.945318 12.541822,9.733084 12.300624,9.607241 12.144319,9.525341 11.942572,9.483396 11.704869,9.483396 c -0.269662,0 -0.476903,0.05493 -0.634207,0.160799 -0.155806,0.107366 -0.238702,0.258676 -0.238702,0.450437 0,0.177278 0.0829,0.309613 0.238202,0.397003 0.109863,0.05243 0.324595,0.126842 0.654183,0.201748 l 0.858926,0.204744 c 0.149812,0.02996 0.27965,0.07491 0.399501,0.114857 l -0.02497,0.01498 z"/>
</svg>
