<svg aria-hidden="true" xmlns="http://www.w3.org/2000/svg" viewBox="0 0 14 14" height="1em" width="1em">
  <path d="M1 1v12h12V1H1Zm5.848 6.122c-.375.375-.963.55-1.627.55a2.67 2.67 0 0 1-.459-.03v1.94h-.931V4.503a8.129 8.129 0 0 1 1.435-.107c.688 0 1.192.145 1.52.42.306.252.505.657.505 1.138 0 .489-.153.894-.444 1.169zm1.81 2.536c-.451 0-.856-.106-1.131-.26l.183-.68c.214.131.619.268.955.268.412 0 .595-.168.595-.412 0-.252-.152-.382-.61-.542-.726-.253-1.032-.65-1.024-1.085 0-.657.542-1.169 1.405-1.169.413 0 .772.107.985.222l-.183.664a1.672 1.672 0 0 0-.786-.213c-.337 0-.52.16-.52.39 0 .236.176.35.65.518.672.245.985.589.993 1.139 0 .672-.527 1.16-1.513 1.16zM5.304 5.114c-.26 0-.443.023-.543.046V6.9c.115.03.268.038.459.038.702 0 1.13-.343 1.13-.947 0-.572-.397-.878-1.046-.878Z"/>
</svg>
