<svg aria-hidden="true" xmlns="http://www.w3.org/2000/svg" viewBox="0 0 14 14" height="1em" width="1em">
  <path d="M6.03 12.501c-2.036-.318-3.825-1.503-4.57-3.025-1.046-2.142-.252-4.76 1.796-5.915.293-.166 1.002-.455 1.576-.644.573-.188 1.185-.462 1.358-.608.219-.184.316-.22.316-.115 0 .269-.463.582-1.225.828-1.799.583-2.921 1.393-3.468 2.504-.235.476-.262.668-.262 1.811 0 1.161.025 1.334.28 1.866.452.948 1.541 2.025 2.048 2.025.293 0 .707-.448.983-1.065.294-.654.575-.854 1.203-.854.233 0 .204.035-.202.24-.43.217-.498.306-.712.933-.147.43-.345.78-.523.923l-.287.23.577.175c.994.3 2.37.42 3.227.279 1.879-.309 3.628-1.758 4.18-3.461.096-.3.243-.616.326-.704.134-.142.162-.142.252 0 .163.257.121.684-.133 1.35-.474 1.238-2.161 2.585-3.84 3.064-.772.22-2.07.293-2.9.163zm-.456-.7c-.218-.095-.152-.55.106-.734.132-.094.502-.324.823-.511.581-.34 1.07-.907 1.07-1.242a.743.743 0 0 0-.136-.363c-.127-.173-.177-.174-.773-.017-.74.195-1.307.135-1.708-.18l-.278-.22-.547.255c-.3.14-.704.36-.897.49-.22.15-.351.189-.351.106 0-.248.53-.702 1.277-1.095.493-.259.859-.542 1.068-.827.39-.53.407-.437.048.278l-.272.54.222.221c.17.17.352.22.792.216.471 0 .792-.113 1.851-.627l1.281-.622.603.25c.53.22.595.278.54.494-.108.435.241.265.455-.221.16-.362.079-.495-.534-.882-.487-.307-.67-.312-1.363-.039-.571.225-1.23.275-1.486.113-.103-.065-.243-.036-.426.09-.488.337-.597.37-.364.108.433-.487.677-1.084.677-1.655 0-.515-.017-.55-.3-.607a1.488 1.488 0 0 1-.559-.28l-.26-.221.3.107c.479.171 1.194.13 1.457-.083.14-.113.293-.428.376-.773.077-.32.145-.474.15-.342.01.277.284.32.594.094.177-.13.183-.183.06-.479-.16-.387-.849-1.042-1.264-1.2a7.245 7.245 0 0 0-.869-.228c-.55-.111-.566-.123-.286-.216.784-.262 1.974.298 2.453 1.155.387.692.453.988.238 1.07-.27.104-.2.535.149.933.175.2.32.412.32.47 0 .059-.261.239-.58.4-.42.213-.661.274-.879.223a8.574 8.574 0 0 0-.446-.094c-.187-.03-.472.993-.32 1.149.114.117.857.117 1.864 0 .44-.053.677-.039.726.041.149.241.221.102.237-.458.018-.653.68-2.2 1.1-2.568.202-.177.189-.133-.076.267-.604.91-1.219 2.863-.866 2.75.388-.125 1.478-2.637 1.322-3.044-.035-.09-.004-.132.075-.104.086.03.129.24.12.582-.016.641-.825 2.453-1.217 2.727-.238.168-.24.18-.056.384.173.19.177.255.046.661-.115.36-.216.474-.496.568-.194.064-.396.187-.449.273-.073.119-.127.127-.22.034-.068-.068-.086-.183-.04-.256.045-.073.092-.264.105-.424.02-.262-.02-.298-.402-.359-.343-.055-.515-.015-.893.206-.257.151-.467.31-.467.352 0 .23.574.878.828.934.617.136.81.224.951.437.136.204.128.216-.112.17-.342-.065-.8.168-.59.3.337.213-.591.085-.984-.136l-.415-.233-.345.328a3.88 3.88 0 0 1-.78.545c-.555.278-.763.517-.596.684.092.092.216.078.5-.058.482-.23.943-.23 1.13 0 .125.154.124.167-.005.09-.11-.068-.135-.049-.09.07.05.128-.037.162-.435.167a8.23 8.23 0 0 0-.922.066c-.235.032-.487.032-.56 0zm3.224-1.75c0-.051.096-.166.213-.254.205-.155.2-.161-.12-.165-.25 0-.428-.107-.706-.414-.205-.227-.395-.478-.424-.56-.03-.082-.09-.113-.136-.07-.046.042-.02.152.056.245.077.092.168.343.203.558.047.287.16.455.426.635.342.23.488.238.488.025zm.1-4.742a.8.8 0 0 1 .395-.156c.17 0 .164-.05-.072-.52-.32-.639-.63-.765-.784-.321a1.77 1.77 0 0 1-.405.583c-.29.268-.292.28-.092.427.264.193.694.187.958-.013z"/>
</svg>
