<svg aria-hidden="true" xmlns="http://www.w3.org/2000/svg" viewBox="0 0 14 14" height="1em" width="1em">
  <path d="M6.188 3.387c-.17.006-.3.221-.293.482.008.263.152.47.32.466.17-.008.3-.222.293-.484-.007-.26-.152-.468-.32-.463v-.001zm.088.623c-.063.003-.118-.08-.12-.188-.005-.107.043-.194.107-.195.064-.003.118.082.121.188.004.104-.044.194-.108.195zm1.94.137H8.21a.077.077 0 0 1-.074-.079c.004-.074-.01-.282-.104-.382a.17.17 0 0 0-.134-.055c-.257 0-.262.378-.263.393a.076.076 0 0 1-.078.079c-.046 0-.075-.038-.075-.08 0-.19.088-.548.419-.548a.33.33 0 0 1 .244.103c.159.167.147.484.146.496 0 .039-.034.071-.077.073zM7 6.75c.099.003.15-.006.223-.018.188-.037.378-.215.558-.315.388-.24.459-.196 1.073-.74a3.33 3.33 0 0 1-1.206.632c-.11.032-.372.052-.647.054a2.747 2.747 0 0 1-.648-.054 3.272 3.272 0 0 1-1.204-.633c.613.545.686.5 1.073.74.18.1.37.28.558.316.07.013.123.016.22.018zm4.044.105c-.032-.454-.118-.998-.351-1.32C10.918 2.669 8.968.972 7 1c-1.968.032-3.917 1.668-3.692 4.536-.233.321-.32.862-.35 1.319-.577.884-1.214 2.235-.504 3.537.361-.157.652-.5.747-.923.275.675.677 1.315 1.22 1.808-.777.152-1.328.518-1.31.916.023.492.903.852 1.963.802.883-.042 1.613-.352 1.82-.74.023.003.19.003.213 0 .207.389.937.7 1.82.74 1.06.049 1.941-.31 1.963-.802.018-.4-.532-.764-1.308-.915.543-.495.946-1.133 1.219-1.807.095.423.386.765.747.922.708-1.302.07-2.652-.506-3.537h-.001v-.001h.003zm-3.053-3.97c.39.011.693.488.676 1.062-.02.574-.35 1.03-.74 1.017-.39-.014-.69-.487-.673-1.063.017-.574.35-1.028.737-1.016zM5.95 2.82c.402-.015.742.456.762 1.049.018.593-.293 1.084-.694 1.095-.402.015-.742-.454-.762-1.048-.018-.593.292-1.085.693-1.095V2.82zM4.707 5.624C4.759 5.39 6.144 5.109 7 5.106c.857-.005 2.24.287 2.295.518.034.17-.725.759-1.203.95-.461.179-.565.436-1.091.436s-.63-.256-1.09-.437c-.48-.19-1.24-.78-1.205-.95zM7 11.965c-1.826-.006-3.63-1.447-2.837-4.293.11.06.227.114.35.169-.025.357-.102 1.515-.07 1.698.038.222 1.216.387 1.321.31.093-.068.082-1.205.07-1.61a6.284 6.284 0 0 0 4.003-.565c.795 2.844-1.01 4.297-2.836 4.291H7z"/>
</svg>
