<svg aria-hidden="true" xmlns="http://www.w3.org/2000/svg" viewBox="0 0 14 14" height="1em" width="1em">
  <path d="M8.54 12.997c-.219-.01-.566-.044-.868-.084l-.083-.011.116-.12c.358-.364.642-.733.884-1.145a6.39 6.39 0 0 0 .289-.58c.393-.951.461-1.95.204-2.983a5.567 5.567 0 0 0-1.006-2.06c-.31-.394-.676-.723-.967-.87l-.032-.017V1.976l.084.044c.977.518 1.625 1.23 2.07 2.274.136.32.24.625.431 1.26l.155.508c.032.103.034.127.013.167-.018.035-.072.079-.16.129a.825.825 0 0 0-.193.132c-.119.12-.088.264.136.649.144.245.409.66.78 1.224.22.334.227.346.24.4.043.165.045.284.007.372a.33.33 0 0 1-.114.12c-.053.03-.16.062-.315.095l-.217.047c-.07.017-.072.017-.106.053-.144.15-.113.392.098.76.071.126.079.14.075.15-.002.01-.022.015-.045.024-.21.078-.371.183-.393.255-.013.043-.003.07.04.113a.73.73 0 0 0 .256.134.92.92 0 0 1 .077.031c.006 0-.01.018-.06.051a.685.685 0 0 0-.253.256.392.392 0 0 0-.048.204c0 .096.012.15.087.374.083.251.088.274.088.397a.4.4 0 0 1-.015.148c-.056.179-.21.332-.484.482a2.37 2.37 0 0 1-.34.151 1.896 1.896 0 0 1-.43.018zM5.243 9.228a2.052 2.052 0 0 1-1.898-1.792 2.675 2.675 0 0 1 0-.508c.022-.16.062-.322.113-.46A2.34 2.34 0 0 1 3.78 5.9c.061-.076.202-.22.278-.284a2.12 2.12 0 0 1 .572-.341c.05-.02.075-.032.079-.041.003-.01.16-.8.35-1.762l.348-1.759c.002 0 .045-.036.095-.067.447-.281.836-.44 1.253-.513.265-.046.428-.06 1.077-.096.2-.01.429-.024.508-.03.079-.01.144-.01.146-.01 0 .001-.02 0-.045.01-.063.01-.246.032-.403.057-.366.058-.71.137-.964.222a2.61 2.61 0 0 0-.395.16l-.107.052.003.1.049 2.046.045 1.946.042.036a2.056 2.056 0 0 1 .696 1.266c.019.122.02.44.003.565a2.058 2.058 0 0 1-1.286 1.636 2.133 2.133 0 0 1-.881.136zm.343-.237c.13-.014.294-.053.427-.102a2.42 2.42 0 0 0 .332-.163c.16-.102.355-.277.463-.417.2-.26.322-.542.371-.86.014-.093.02-.343.01-.443a1.796 1.796 0 0 0-.502-1.085 1.81 1.81 0 0 0-1.103-.546 2.846 2.846 0 0 0-.433 0 1.813 1.813 0 0 0-1.29.804 1.844 1.844 0 0 0-.29.781c-.012.095-.01.366.004.463A1.82 1.82 0 0 0 5.28 8.997c.055 0 .237 0 .308-.01zm-.303-.826a1.007 1.007 0 0 1-.631-.317 1.2 1.2 0 0 1-.164-.243.918.918 0 0 1-.091-.428c0-.134.011-.2.052-.319a.988.988 0 0 1 .787-.65 1.52 1.52 0 0 1 .309 0c.425.074.75.411.81.844.01.07.005.255-.01.322a1.087 1.087 0 0 1-.153.36c-.053.08-.184.21-.267.266a1.01 1.01 0 0 1-.377.15c-.074.014-.2.019-.265.01zm.248-.521a.495.495 0 0 0 .31-.31c.017-.048.018-.06.018-.15a.367.367 0 0 0-.018-.151.462.462 0 0 0-.123-.195.353.353 0 0 0-.118-.087.432.432 0 0 0-.22-.053.486.486 0 0 0-.121.954c.074.02.2.015.272-.01z"/>
</svg>
