<svg role="img" focusable="false" aria-hidden="true" xmlns="http://www.w3.org/2000/svg" viewBox="0 0 14 14" height="1em" width="1em">
  <path d="m 2.952095,8.2683965 c -0.0383,-0.031 -0.0383,-0.031 10e-4,-0.013 0.022,0.01 0.0536,0.024 0.0701,0.03 0.026,0.01 0.0258,0.011 -10e-4,0.013 -0.0172,8e-4 -0.0487,-0.012 -0.0701,-0.03 z m 1.12767,-0.1492 -0.15565,-0.1502 0.005,-0.5282 0.005,-0.5282 0.0785,-0.068 0.0785,-0.068 0.50839,0 0.50839,0 -0.006,0.1452 -0.006,0.1453 -0.43072,0.01 -0.43072,0.01 -0.005,0.3755 -0.005,0.3755 0.0655,0.06 c 0.0651,0.059 0.0673,0.06 0.30882,0.06 0.27805,6e-4 0.26758,0.01 0.26758,-0.1814 l 0,-0.1185 -0.17028,0 -0.17028,0 0,-0.1302 0,-0.1303 0.32053,0 0.32053,0 0,0.3316 c 0,0.3502 -0.01,0.3981 -0.10015,0.4798 -0.0401,0.036 -0.0805,0.041 -0.43778,0.05 l -0.39362,0.01 -0.15564,-0.1502 z m 3.97726,0.1387 c -0.0877,-0.018 -0.14274,-0.055 -0.17487,-0.1174 -0.0242,-0.047 -0.0301,-0.1637 -0.0314,-0.6205 -0.002,-0.7812 -0.0341,-0.743 0.6216,-0.743 0.48299,0 0.51194,0.01 0.58146,0.1511 0.0362,0.075 0.0396,0.1246 0.0396,0.5739 0,0.2706 -0.005,0.5194 -0.0122,0.553 -0.007,0.034 -0.0373,0.091 -0.0679,0.1277 l -0.0557,0.067 -0.4227,0.01 c -0.23248,0.01 -0.4476,0.01 -0.47804,0 z m 0.72065,-0.3275 c 0.0201,-0.029 0.0187,-0.7965 -0.002,-0.8284 -0.0123,-0.019 -0.0895,-0.024 -0.31522,-0.02 l -0.29897,0.01 0,0.4307 0,0.4307 0.27045,0.01 c 0.28149,0.01 0.32078,0.01 0.34527,-0.029 z m 1.46072,0.3095 c -0.0154,-0.017 -0.0952,-0.1549 -0.17733,-0.3068 l -0.14936,-0.2763 -0.14366,0.01 -0.14366,0.01 -0.006,0.2954 -0.006,0.2955 -0.14972,0 -0.14971,0 0,-0.7412 0,-0.7412 0.47178,0 c 0.51388,0 0.54907,0.01 0.62207,0.1141 0.0327,0.048 0.038,0.094 0.038,0.3266 0,0.2475 -0.004,0.2758 -0.0446,0.3329 -0.0245,0.034 -0.0718,0.074 -0.10518,0.088 -0.0333,0.014 -0.0606,0.026 -0.0606,0.028 0,0.001 0.0675,0.1288 0.15011,0.2831 0.0826,0.1542 0.15017,0.2896 0.15025,0.3009 2.4e-4,0.034 -0.26477,0.025 -0.29737,-0.01 z m -0.10272,-0.882 c 0.0272,-0.043 0.024,-0.2279 -0.004,-0.2564 -0.0161,-0.016 -0.10551,-0.024 -0.27045,-0.024 l -0.24641,0 0,0.1486 c 0,0.1008 0.008,0.1514 0.025,0.1574 0.0138,0.01 0.12679,0.01 0.25116,0.01 0.1775,0 0.23019,-0.01 0.2451,-0.032 z m 2.31843,0.9062 -0.51586,0 0,-0.7409 0,-0.7409 0.53089,0 0.53088,0 0,0.1503 0,0.1502 -0.36828,0 c -0.41721,0 -0.38214,-0.017 -0.39084,0.1842 l -0.005,0.114 0.0691,0.013 c 0.038,0.01 0.17389,0.01 0.30192,0.01 0.12804,0 0.23386,0 0.23515,0 0.004,0.016 0.004,0.083 6.4e-4,0.1753 l -0.003,0.085 -0.2901,0 c -0.33238,0 -0.32016,-0.01 -0.3038,0.1966 l 0.009,0.1065 0.36782,0 0.36782,0 0.006,0.1382 c 0.003,0.076 -10e-4,0.1437 -0.01,0.1503 -0.009,0.01 -0.24815,0.01 -0.53187,0.01 z m -9.9015,-0.025 c -0.20436,-0.012 -0.26443,-0.023 -0.40067,-0.078 -0.23945,-0.096 -0.29259,-0.123 -0.27989,-0.1436 0.006,-0.01 -0.002,-0.014 -0.0177,-0.01 -0.0398,0.015 -0.27693,-0.1099 -0.26003,-0.1372 0.008,-0.013 9.9e-4,-0.017 -0.0195,-0.01 -0.018,0.01 -0.0443,0 -0.0584,-0.012 -0.0141,-0.013 -0.0518,-0.038 -0.0839,-0.054 -0.0321,-0.016 -0.0848,-0.055 -0.11731,-0.085 -0.0325,-0.03 -0.0633,-0.055 -0.0685,-0.055 -0.0185,0 -0.24672,-0.2067 -0.24672,-0.2234 0,-0.01 0.0139,-0.017 0.0309,-0.017 0.017,0 0.0508,-0.019 0.0751,-0.041 0.0243,-0.023 0.069,-0.046 0.0993,-0.053 0.0303,-0.01 0.0551,-0.018 0.0551,-0.027 0,-0.019 0.18668,-0.1099 0.2653,-0.1297 0.0469,-0.012 0.067,0.001 0.15906,0.1009 0.058,0.063 0.12456,0.1402 0.14797,0.1719 0.0234,0.032 0.0499,0.051 0.0588,0.043 0.009,-0.01 0.0104,0 0.003,0.021 -0.007,0.02 -0.006,0.032 0.003,0.026 0.009,0 0.0683,0.04 0.13293,0.1006 0.0646,0.061 0.13865,0.1241 0.16458,0.1411 0.0259,0.017 0.0471,0.044 0.0471,0.06 0,0.016 0.009,0.024 0.0191,0.017 0.0153,-0.01 0.15521,0.08 0.29139,0.1852 0.011,0.01 0.0906,0.052 0.17694,0.097 0.23604,0.1226 0.2228,0.1306 -0.17694,0.1079 z m 2.83472,-0.7213 0,-0.7412 0.52087,0 0.52087,0 0,0.1503 0,0.1502 -0.37062,0 -0.37062,0 0,0.1499 c 0,0.1822 -0.0112,0.1768 0.34864,0.1673 l 0.25242,-0.01 -2e-5,0.1347 -2e-5,0.1347 -0.29549,0.01 -0.29549,0.01 0,0.147 0,0.1469 0.3656,0 0.36561,0 0,0.1511 0,0.151 -0.52086,0 -0.52087,0 0,-0.7412 z m 1.26211,0 0,-0.7412 0.52086,0 0.52087,0 0,0.1503 0,0.1502 -0.37062,0 -0.37061,0 0,0.1481 c 0,0.1211 0.006,0.1505 0.0341,0.1612 0.0188,0.01 0.15174,0.012 0.29549,0.01 l 0.26136,0 0.006,0.132 0.006,0.1319 -0.29639,0.01 -0.2964,0.01 -0.006,0.2955 -0.006,0.2955 -0.14972,0 -0.14971,0 0,-0.7412 z m 4.11155,0.6727 -0.0748,-0.068 -0.006,-0.5718 c -0.007,-0.6347 -0.003,-0.6583 0.12205,-0.7343 0.0583,-0.035 0.10297,-0.039 0.49072,-0.039 l 0.42659,0 -0.006,0.1453 -0.006,0.1452 -0.35533,0.01 c -0.34865,0 -0.35553,0.01 -0.36629,0.05 -0.006,0.024 -0.008,0.2204 -0.005,0.4353 l 0.006,0.3906 0.36061,0.01 0.3606,0.01 0.006,0.1453 0.006,0.1452 -0.44191,0 -0.4419,0 -0.0748,-0.069 z m -7.35173,-0.021 c -0.15875,-0.074 -0.51214,-0.2866 -0.5227,-0.3138 -0.004,-0.01 -0.0352,-0.031 -0.0701,-0.047 -0.0349,-0.017 -0.10857,-0.071 -0.16367,-0.1198 -0.0551,-0.049 -0.10789,-0.09 -0.11733,-0.09 -0.009,-3e-4 -0.0122,-0.014 -0.006,-0.03 0.007,-0.018 0.002,-0.025 -0.0141,-0.019 -0.0139,0 -0.0536,-0.022 -0.0883,-0.06 -0.0347,-0.038 -0.0753,-0.077 -0.0902,-0.086 -0.0446,-0.027 -0.36579,-0.4019 -0.39574,-0.4618 -0.0153,-0.03 -0.0429,-0.073 -0.0613,-0.096 -0.0738,-0.088 -0.16975,-0.3014 -0.16724,-0.3718 0.004,-0.1178 0.12289,-0.2218 0.45717,-0.4004 0.27144,-0.145 0.55867,-0.2431 0.97389,-0.3325 0.22069,-0.047 1.02287,-0.055 1.06578,-0.01 0.0218,0.023 0.0156,0.026 -0.038,0.019 -0.0352,-0.01 -0.0595,-0.001 -0.0539,0.01 0.006,0.01 -0.016,0.016 -0.048,0.016 -0.0886,0 -0.24426,0.053 -0.29408,0.099 -0.0322,0.03 -0.0882,0.047 -0.20294,0.061 -0.0871,0.01 -0.2035,0.033 -0.25859,0.05 -0.10923,0.034 -0.44875,0.1952 -0.53408,0.2541 -0.03,0.021 -0.0694,0.032 -0.0901,0.025 -0.0251,-0.01 -0.0289,-0.01 -0.0118,0.01 0.0186,0.014 0.01,0.029 -0.0343,0.062 -0.0326,0.024 -0.068,0.044 -0.0785,0.044 -0.0106,0 -0.0222,0.01 -0.0259,0.016 -0.004,0.01 -0.063,0.054 -0.13188,0.1009 -0.0689,0.046 -0.12521,0.088 -0.12521,0.092 0,0.01 0.0842,0.215 0.12651,0.3111 0.025,0.057 0.22192,0.3653 0.27149,0.4252 0.018,0.022 0.0553,0.065 0.0828,0.095 0.0275,0.031 0.0693,0.077 0.0928,0.1032 0.0589,0.065 0.24778,0.2283 0.32828,0.2829 0.0366,0.025 0.0853,0.078 0.10818,0.1191 0.0229,0.041 0.0732,0.099 0.11181,0.129 0.081,0.064 0.1923,0.188 0.16725,0.1869 -0.009,-4e-4 -0.0823,-0.031 -0.16202,-0.069 z m 0.22974,-2.4468 c -0.007,-0.01 -0.0239,-0.01 -0.0384,0 -0.016,0.01 -0.0112,0.011 0.0121,0.012 0.0211,9e-4 0.0329,0 0.0263,-0.01 z m -0.46436,1.5725 c -0.0994,-0.127 -0.22223,-0.3504 -0.25991,-0.4725 -0.0136,-0.044 0.003,-0.068 0.1053,-0.1508 0.0235,-0.019 0.0587,-0.029 0.0781,-0.023 0.0269,0.01 0.0289,0.01 0.008,-0.01 -0.0333,-0.024 0.005,-0.054 0.0403,-0.032 0.0137,0.01 0.0177,0.01 0.01,-0.01 -0.0167,-0.027 0.28177,-0.211 0.31202,-0.1923 0.0127,0.01 0.0161,0 0.008,-0.01 -0.0182,-0.029 0.055,-0.067 0.10119,-0.052 0.0274,0.01 0.0297,0.01 0.009,-0.01 -0.0204,-0.015 -0.003,-0.028 0.0701,-0.055 0.0535,-0.02 0.12686,-0.047 0.16296,-0.062 0.059,-0.023 0.16333,-0.05 0.41904,-0.1086 0.0927,-0.021 0.45088,-0.026 0.52201,-0.01 0.0248,0.01 0.0451,0.021 0.0451,0.032 0,0.011 -0.0132,0.015 -0.0294,0.01 -0.0162,-0.01 -0.0353,0 -0.0425,0.01 -0.007,0.012 -0.0401,0.016 -0.0758,0.01 -0.0345,-0.01 -0.0516,-0.01 -0.038,0 0.0158,0.01 -0.008,0.025 -0.0664,0.04 -0.073,0.02 -0.0888,0.031 -0.0798,0.06 0.01,0.031 -0.01,0.039 -0.14397,0.059 -0.2142,0.032 -0.35129,0.063 -0.36449,0.081 -0.006,0.01 -0.0517,0.033 -0.10128,0.054 -0.0932,0.04 -0.25303,0.1384 -0.34056,0.2091 -0.0276,0.022 -0.0564,0.041 -0.0641,0.041 -0.008,2e-4 -0.0555,0.04 -0.1063,0.088 -0.0729,0.069 -0.0901,0.097 -0.0819,0.1352 0.0132,0.061 0.0326,0.4988 0.0221,0.4988 -0.004,0 -0.0581,-0.064 -0.11937,-0.1425 z m -1.4919,-0.8308 c 9.6e-4,-0.023 0.006,-0.028 0.0121,-0.012 0.006,0.014 0.005,0.032 -0.002,0.038 -0.007,0.01 -0.0114,-0.01 -0.0105,-0.026 z"/>
</svg>
