<svg role="img" focusable="false" aria-hidden="true" xmlns="http://www.w3.org/2000/svg" viewBox="0 0 14 14" height="1em" width="1em">
  <path d="M 1,1 1,13 13,13 13,1 1,1 Z M 8.088,8.897 C 7.766,9.189 7.383,9.332 6.933,9.332 6.483,9.332 6.101,9.2635 5.771,9.129 5.448,8.994 5.283,8.8665 5.283,8.739 L 5.245,8.7865 c 0,-0.065 0.04,-0.162 0.122,-0.2925 0.0815,-0.13 0.155,-0.195 0.22,-0.195 0.007,0 0.06,0.03 0.157,0.092 0.0975,0.0625 0.236,0.1235 0.4185,0.186 0.182,0.0615 0.402,0.0925 0.6585,0.0925 0.2625,0 0.4725,-0.0735 0.6375,-0.22 0.165,-0.146 0.2475,-0.345 0.2475,-0.595 0,-0.25 -0.075,-0.445 -0.218,-0.585 C 7.3455,7.1295 7.053,6.9975 6.618,6.8745 6.183,6.7495 5.868,6.5925 5.673,6.4015 5.478,6.2085 5.38,5.9175 5.38,5.5275 5.38,5.1375 5.53,4.81 5.83,4.5465 6.13,4.2765 6.52,4.149 7,4.149 c 0.3375,0 0.63,0.037 0.8925,0.127 0.262,0.0825 0.39,0.18 0.39,0.2775 0,0.082 -0.0375,0.195 -0.113,0.322 -0.075,0.135 -0.1425,0.195 -0.195,0.195 -0.0085,0 -0.045,-0.0225 -0.1285,-0.06 -0.2175,-0.12 -0.465,-0.18 -0.742,-0.18 -0.277,0 -0.488,0.0525 -0.645,0.165 C 6.309,5.108 6.234,5.258 6.234,5.438 c 0,0.18 0.06,0.322 0.172,0.427 0.112,0.105 0.3075,0.195 0.585,0.285 0.615,0.1875 1.0275,0.39 1.245,0.615 0.218,0.225 0.33,0.563 0.33,1.0125 10e-4,0.45 -0.156,0.825 -0.479,1.117 z"/>
</svg>
