<svg role="img" focusable="false" aria-hidden="true" xmlns="http://www.w3.org/2000/svg" viewBox="0 0 14 14" height="1em" width="1em">
  <path d="M 7.5275,11.63 C 6.855,11.641 6.365,11.425 6.3345,10.8375 c -0.0125,-0.22 -0.009,-0.455 10e-4,-0.596 0.0685,-0.858 0.6665,-1.475 1.265,-1.595 0.741,-0.147 1.2275,0.19 1.2275,1.155 0,0.6515 -0.18,1.809 -1.295,1.8285 l -0.008,0 z M 6.9615,1 C 3.66,1 1,3.6485 1,7.112 c 0,1.797 0.96,3.531 2.3115,4.5735 0.26,0.2 0.569,0.1835 0.7485,0.01 0.1485,-0.1425 0.136,-0.492 -0.1425,-0.7375 -1.08,-0.943 -1.826,-2.38 -1.826,-3.8175 0,-2.575 2.29,-4.745 4.87,-4.745 3.14,0 4.818,2.551 4.818,4.715 0,1.325 -0.645,2.92 -1.813,3.937 0.0075,0 0.2465,-0.471 0.2465,-1.392 0,-1.565 -0.988,-2.418 -2.14,-2.418 -0.8315,0 -1.3335,0.299 -1.67,0.576 0,-0.636 0.0225,-1.826 0.0225,-1.826 0,-0.786 -0.27,-1.415 -1.235,-1.43 -0.555,-0.0075 -0.966,0.2465 -1.22,0.8235 -0.09,0.218 -0.06,0.458 0.127,0.5625 0.15,0.09 0.405,0.023 0.523,-0.142 0.0825,-0.105 0.127,-0.127 0.202,-0.12 0.12,0.015 0.1285,0.2025 0.1285,0.33 C 4.958,6.108 5.0475,7.463 4.995,10.944 4.99,11.899 5.7465,13 7.55,13 8.33,13 8.928,12.7825 9.7965,12.289 11.1215,11.54 13,9.879 13,7.064 12.9765,3.5225 10.1325,1 6.9665,1"/>
</svg>
