<svg role="img" focusable="false" aria-hidden="true" xmlns="http://www.w3.org/2000/svg" viewBox="0 0 14 14" height="1em" width="1em">
  <path d="m 9.952,4.1305622 c -0.3645,-0.007 -0.665,0.2825 -0.672,0.6465 l 0,0.009 c 0.006,0.366 0.306,0.6575 0.672,0.6525 0.3915,0 0.702,-0.2895 0.702,-0.6525 5e-4,-0.366 -0.31,-0.6555 -0.702,-0.6555 z m 2.355,0 c -0.3735,0 -0.68,0.29 -0.68,0.6555 0,0.3555 0.3065,0.6525 0.6805,0.6525 0.3835,0 0.6925,-0.2895 0.6925,-0.6525 0,-0.366 -0.309,-0.6555 -0.693,-0.6555 z m -7.42,0.2715 c -0.374,0 -0.626,0.187 -0.757,0.6075 -0.121,0.4285 -0.897,3.411 -0.897,3.411 l -1.018,-3.972 -1.215,0 c 0,0 1.167,4.232 1.326,4.728 0.1205,0.3825 0.42,0.693 0.85,0.693 0.5045,0 0.7395,-0.366 0.842,-0.693 0.1125,-0.338 0.869,-3.1305 0.869,-3.1305 0,0 0.7575,2.7945 0.8595,3.1305 0.1125,0.3265 0.345,0.693 0.841,0.693 0.4395,0 0.728,-0.3105 0.86,-0.693 0.1575,-0.495 1.3285,-4.728 1.3285,-4.728 l -1.225,0 -1.0105,3.972 c 0,0 -0.775,-2.9825 -0.906,-3.411 -0.121,-0.422 -0.385,-0.6075 -0.7475,-0.6075 z m 4.504,1.6815 0,3.7475 1.161,0 0,-3.7475 -1.161,0 z m 2.3465,0 0,3.7475 1.1585,0 0,-3.7475 -1.1585,0 z"/>
</svg>
