<svg role="img" focusable="false" aria-hidden="true" xmlns="http://www.w3.org/2000/svg" viewBox="0 0 14 14" height="1em" width="1em">
  <path d="m 9.3,1 c 1.3,0 2.131,0.0045 2.914,0.787 C 12.995,2.5705 13,3.397 13,4.7005 l 0,4.6 c 0,1.3 -0.005,2.1305 -0.787,2.914 C 11.4295,12.9955 10.6035,13 9.299,13 l -4.6,0 C 3.3995,13 2.569,12.9955 1.7855,12.213 1.005,11.4305 1,10.6035 1,9.2995 l 0,-4.6 C 1,3.4 1.005,2.569 1.787,1.786 2.5705,1.005 3.3965,1 4.7,1 L 9.3005,1 9.3,1 Z m 2.199,5.5755 C 11.285,4.289 9.342,2.501 7,2.501 4.5145,2.501 2.5,4.5145 2.5,7 c 0,2.4005 1.876,4.367 4.2425,4.5 l 3.568,0 C 10.967,11.4985 11.498,10.967 11.5,10.3095 l 0,-3.735 -10e-4,0.001 z M 10.3565,10.87 c -0.282,0 -0.5115,-0.23 -0.5115,-0.512 0,-0.283 0.2295,-0.512 0.5115,-0.512 0.283,0 0.5125,0.229 0.5125,0.512 0,0.282 -0.2295,0.512 -0.5125,0.512 z M 7,10.4745 C 5.0815,10.4725 3.5275,8.918 3.5255,7 3.5275,5.082 5.0815,3.5275 7,3.5255 8.918,3.5275 10.4725,5.082 10.4745,7 10.4725,8.918 8.918,10.4725 7,10.4745 Z"/>
</svg>
