<svg aria-hidden="true" xmlns="http://www.w3.org/2000/svg" viewBox="0 0 14 14" height="1em" width="1em">
  <path d="M4.952 12.937c-1.128-.204-2.194-.988-2.668-1.96a3.803 3.803 0 0 1-.374-2.114c.15-1.342.845-2.44 1.924-3.044.569-.319 1.384-.477 1.991-.387l.35.052.001 1.072V7.63l-.332-.014c-.8-.033-1.396.31-1.704.978-.147.32-.184.889-.08 1.235.127.428.505.814.96.983.156.058.324.08.612.079.359 0 .425-.013.677-.132.365-.173.631-.423.788-.741.101-.207.134-.343.166-.696.021-.24.04-2.212.04-4.38L7.306 1h.683c.376 0 .828.012 1.004.027l.32.027v.158c0 .382.223 1.113.452 1.482.057.092.256.317.443.501.36.356.665.536 1.133.67.138.04.284.089.324.109.04.02.115.038.167.038.052 0 .137.012.189.026l.094.025v1.989l-.178-.019c-.96-.104-1.73-.36-2.342-.782-.305-.21-.331-.222-.302-.142.01.029.003 1.125-.017 2.436-.033 2.273-.04 2.4-.128 2.717-.339 1.222-1.1 2.13-2.101 2.507-.613.23-1.397.293-2.094.167z"/>
</svg>
