<svg role="img" focusable="false" aria-hidden="true" xmlns="http://www.w3.org/2000/svg" viewBox="0 0 14 14" height="1em" width="1em">
  <path d="M 11.979633,4.7270177 8.5554562,4.5966307 c -0.29437,-0.0112 -0.315701,0.08212 -0.07626,0.253841 0.721792,0.517546 1.9030018,1.783014 0.446354,3.923058 L 6.8204355,12.505942 c -0.1447849,0.256506 -0.023198,0.483683 0.2711718,0.475417 3.5190997,-0.09839 6.9640747,-3.5433653 5.6050167,-7.7338623 -0.09092,-0.280238 -0.422623,-0.50928 -0.716992,-0.520479 z M 2.2625109,4.1729417 c -0.150651,-0.25304 -0.4119571,-0.263439 -0.5535424,-0.0051 -1.40305401,2.560267 -0.90417261,6.8198243 3.1380734,8.4172573 0.2738382,0.108256 0.6577982,-0.0027 0.8495116,-0.22611 L 7.9285882,9.7547267 c 0.191713,-0.22371 0.132253,-0.296769 -0.151185,-0.217044 -0.7652533,0.215711 -2.2413664,0.335165 -3.1986001,-1.47318 L 2.2625109,4.1729417 Z M 11.48875,3.8380437 c 0.292503,-0.03386 0.405558,-0.265839 0.222911,-0.497015 -1.8088788,-2.292295 -6.0057752,-3.52310002 -8.8737433,-0.6426 -0.2077118,0.208778 -0.2607729,0.609536 -0.1378524,0.877242 l 1.4235852,3.094878 c 0.1231872,0.267439 0.1959796,0.245041 0.2277096,-0.04773 0.084258,-0.778585 0.5554089,-2.150176 2.8130406,-2.285362 L 11.48875,3.8380427 Z"/>
</svg>
