<svg role="img" focusable="false" aria-hidden="true" xmlns="http://www.w3.org/2000/svg" viewBox="0 0 14 14" height="1em" width="1em">
  <path d="m 10.697395,2.617734 c -0.96458,-1.14277 -2.21911,-1.680423 -3.76151,-1.611929 -1.42911,-0.06849 -2.63368,0.471219 -3.61216,1.617079 -0.97849,1.145861 -1.46825,2.577542 -1.46825,4.295045 0,1.530045 0.37646,2.852033 1.12835,3.966478 C 3.937595,12.294974 5.284815,13 7.028585,13 c 1.73862,0 3.08429,-0.73953 4.03703,-2.218076 0.71842,-1.114446 1.07891,-2.405534 1.07891,-3.873265 0,-1.716988 -0.48306,-3.147639 -1.44713,-4.290925 z m -1.48679,7.572977 c -0.23277,0.799785 -0.55825,1.381212 -0.97694,1.745828 -0.32805,0.284791 -0.73695,0.426414 -1.22671,0.426414 -0.72769,0 -1.29366,-0.33011 -1.6969,-0.989302 -0.5804,-0.944498 -0.87086,-2.403989 -0.87086,-4.377959 0,-1.660853 0.18849,-2.934947 0.56392,-3.82228 0.46143,-1.080456 1.1335,-1.621199 2.01929,-1.621199 0.47997,0 0.90433,0.156558 1.27255,0.468644 0.36822,0.312086 0.67206,0.849224 0.90896,1.607809 0.23793,0.76013 0.35741,1.904446 0.35741,3.434491 -5.2e-4,1.285938 -0.11742,2.3288 -0.35072,3.127554 z"/>
</svg>
