<svg role="img" focusable="false" aria-hidden="true" xmlns="http://www.w3.org/2000/svg" viewBox="0 0 14 14" height="1em" width="1em">
  <path d="m 10.006823,5.68736 c -0.5360739,0 -0.8659762,0.46734 -0.8659762,1.27832 0,0.81098 0.3299023,1.31956 0.8659642,1.31956 0.536061,0 0.865963,-0.50858 0.865963,-1.31956 0,-0.81098 -0.329877,-1.27832 -0.865951,-1.27832 z m 2.742329,-2.26398 -11.4983043,0 C 1.112317,3.42337 1,3.53568 1,3.67422 l 0,6.65156 c 0,0.13855 0.112317,0.25085 0.2508477,0.25085 l 11.4983043,0 C 12.887696,10.57663 13,10.46433 13,10.32578 L 13,3.67422 C 13,3.53567 12.887696,3.42337 12.749152,3.42337 Z m -9.4912848,5.79655 -1.182107,0 0,-4.46726 1.182107,0 0,4.46726 z m 2.4054158,0.0825 c -0.5635669,0 -1.2095874,-0.20618 -1.6906756,-0.63916 L 4.6461209,7.8523 c 0.3161433,0.25427 0.7147653,0.43298 1.044655,0.43298 0.3573827,0 0.5085811,-0.11684 0.5085811,-0.31615 0,-0.21304 -0.2268039,-0.28177 -0.6048062,-0.43297 L 5.0378445,7.30242 C 4.5567689,7.10998 4.1375272,6.7045 4.1375272,6.05846 c 0,-0.76286 0.6872724,-1.38829 1.6631952,-1.38829 0.5085811,0 1.0721355,0.19245 1.4844914,0.59793 L 6.6941665,6.01036 C 6.3917697,5.79732 6.1305871,5.68735 5.8007224,5.68735 c -0.2886629,0 -0.4673542,0.10308 -0.4673542,0.30239 0,0.21303 0.2542842,0.28864 0.6597795,0.44671 L 6.5360823,6.6495 c 0.5567062,0.21992 0.8728495,0.60479 0.8728495,1.22334 2.51e-5,0.75603 -0.632274,1.42954 -1.7456488,1.42954 z m 4.34354,0 c -1.2371053,0 -2.0755511,-0.86595 -2.0755511,-2.33672 0,-1.47076 0.8384709,-2.29549 2.0755511,-2.29549 1.23708,0 2.075539,0.8316 2.075539,2.29549 2.5e-5,1.47077 -0.838446,2.33672 -2.075539,2.33672 z"/>
</svg>
