<svg role="img" focusable="false" aria-hidden="true" xmlns="http://www.w3.org/2000/svg" viewBox="0 0 14 14" height="1em" width="1em">
  <path d="M 10.422536,10.47012 8.3119178,3.54133 C 8.2769388,3.42647 8.1709748,3.34799 8.0509191,3.34799 l -1.0509048,0 -1.0509048,0 c -0.1200557,0 -0.2260199,0.0785 -0.2609987,0.19334 l -2.1106186,6.92879 c -0.053396,0.17531 0.077753,0.35237 0.261013,0.35237 l 1.5076846,0 c 0.1269515,0 0.2371132,-0.0876 0.2657958,-0.21121 l 0.318992,-1.37568 1.069051,0 1.0690366,0 0.3189921,1.37568 c 0.028668,0.12365 0.1388728,0.21121 0.2657957,0.21121 l 1.507699,0 c 0.183232,-10e-6 0.314395,-0.17707 0.260984,-0.35237 z M 7,7.7062 l -0.7125674,0 0.1264947,-0.51747 C 6.5979156,6.47578 6.7818896,5.56736 6.9658921,4.8199 l 0.034108,0 0.034108,0 C 7.2181106,5.56736 7.4020846,6.47578 7.5860729,7.18873 L 7.7125674,7.7062 7,7.7062 Z m 6,5.00826 0,-11.42892 C 13,1.12784 12.872163,1 12.714459,1 L 1.2855409,1 C 1.1278367,1 1,1.12784 1,1.28554 L 1,12.71446 C 1,12.87216 1.1278367,13 1.2855409,13 L 12.714459,13 C 12.872163,13 13,12.87215 13,12.71446 Z M 2.0707785,2.07078 7,2.07078 l 0,0.92028 1.0509048,0 c 0.1359603,0 0.2656102,0.0428 0.3748724,0.12373 0.109248,0.0809 0.1879573,0.19247 0.2275618,0.32254 l 2.110619,6.9288 c 0.05875,0.19285 0.02361,0.39637 -0.09638,0.55836 -0.119985,0.162 -0.304444,0.25492 -0.50605,0.25492 l -1.507685,0 c -0.1417139,0 -0.280858,-0.0486 -0.3917907,-0.13672 -0.1109469,-0.0882 -0.1896848,-0.21276 -0.2216939,-0.3508 l -0.254931,-1.09938 -0.7854088,0 0,2.33671 -4.9292358,0 0,-9.85844 z"/>
</svg>
