<svg aria-hidden="true" xmlns="http://www.w3.org/2000/svg" viewBox="0 0 14 14" height="1em" width="1em">
  <path d="M10.423 10.47 8.312 3.541a.273.273 0 0 0-.261-.193H5.95a.273.273 0 0 0-.262.193l-2.11 6.93a.273.273 0 0 0 .26.351h1.508a.273.273 0 0 0 .266-.21l.319-1.376H8.07l.318 1.375a.273.273 0 0 0 .266.211h1.508a.273.273 0 0 0 .26-.352zM7 7.706h-.713l.127-.517c.184-.713.368-1.622.552-2.37h.068c.184.748.368 1.657.552 2.37l.127.517H7Zm6 5.008V1.286A.286.286 0 0 0 12.714 1H1.286A.286.286 0 0 0 1 1.286v11.428c0 .158.128.286.286.286h11.428a.286.286 0 0 0 .286-.286ZM2.07 2.071H7v.92h1.05a.626.626 0 0 1 .603.446l2.111 6.93a.624.624 0 0 1-.096.557.624.624 0 0 1-.506.255H8.654a.632.632 0 0 1-.614-.487l-.255-1.1H7v2.337H2.07V2.071z"/>
</svg>
