<svg role="img" focusable="false" aria-hidden="true" xmlns="http://www.w3.org/2000/svg" viewBox="0 0 14 14" height="1em" width="1em">
  <path fill="#40c4ff" d="M11.54285721 1.94285707c.2.31428572.31428572.65714286.31428572 1.05714287 0 1.11428573-.8857143 2.00000003-2.00000003 2.00000003-.2 0-.37142858-.02857143-.54285715-.08571429.34285715.57142858.97142858.94285716 1.68571431.94285716 1.11428573 0 2.00000003-.8857143 2.00000003-2.00000003 0-.91428573-.6-1.68571431-1.45714288-1.91428574z"/>
  <g fill="#b39ddb" transform="translate(-.71428583 .14285704) scale(.28571)">
    <circle cx="31" cy="19" r="2"/>
    <circle cx="13" cy="19" r="2"/>
    <path d="M27 31l-5 6-5-6v-6h10z"/>
  </g>
  <path fill="#d1c4e9" d="M8.14285716 3.85714281c0-2.1714286-5.14285722-1.42857145-5.14285722 0v2.00000003c0 1.42857145 1.14285716 2.57142861 2.57142861 2.57142861s2.57142861-1.14285716 2.57142861-2.57142861V3.85714281z"/>
  <g fill="#673ab7" transform="translate(-.71428583 .14285704) scale(.28571)">
    <circle cx="26" cy="19" r="1"/>
    <circle cx="18" cy="19" r="1"/>
    <path d="M22 4c-6.1 0-10 4.9-10 11v2.3l2 1.7v-5l12-4 4 4v5l2-1.7V15c0-4-1-8-6-9l-1-2h-3zm5 27s-2 1-5 1-5-1-5-1S6 33 6 44h32c0-11-11-13-11-13z"/>
  </g>
</svg>
