<svg role="img" focusable="false" aria-hidden="true" xmlns="http://www.w3.org/2000/svg" viewBox="0 0 14 14" height="1em" width="1em">
  <path fill="#fbe9e7" d="M2.71428565 1.2857142h8.5714287v11.4285716h-8.5714287z"/>
  <path fill="#f4511e" d="M8.71428574 11.51428578v-.80000001h.80000001L8.0857143 9.28571432l-.80000001.80000001zm-3.42857148 0v-.80000001h-.80000001L5.9142857 9.28571432l.80000001.80000001z"/>
  <path fill="#ff8a65" d="M4.42857139 3.85714281h5.14285722v1.14285716H4.42857139zm0 2.00000003h5.14285722v.57142858H4.42857139zM7 7.57142858c-.80000001 0-1.42857145.62857144-1.42857145 1.42857145S6.19999999 10.42857148 7 10.42857148s1.42857145-.62857144 1.42857145-1.42857145S7.80000001 7.57142858 7 7.57142858zM7 9.8571429c-.4857143 0-.85714287-.37142858-.85714287-.85714287 0-.4857143.37142858-.85714287.85714287-.85714287.4857143 0 .85714287.37142858.85714287.85714287 0 .4857143-.37142858.85714287-.85714287.85714287z"/>
  <path fill="#ff8a65" d="M2.42857136.99999991v12.00000018h9.14285728V.99999991H2.42857136zm8.5714287 10.57142873c-.4857143 0-.85714287.37142858-.85714287.85714287H3.85714281c0-.4857143-.37142858-.85714287-.85714287-.85714287V2.42857136c.4857143 0 .85714287-.37142858.85714287-.85714287h6.28571438c0 .4857143.37142858.85714287.85714287.85714287v9.14285728z"/>
</svg>
