<svg aria-hidden="true" xmlns="http://www.w3.org/2000/svg" viewBox="0 0 14 14" height="1em" width="1em">
  <path d="M2.63 6.38q0 .266-.187.438-.151.135-.464.135h-.088V5.807h.088q.318 0 .464.14.187.162.187.433zm9.25-.338q0 .27-.333.27h-.1v-.526h.105q.328 0 .328.256zm-8.9.338q0-.385-.261-.627-.26-.243-.672-.243h-.495v1.735h.495q.385 0 .62-.198.312-.266.312-.667zm.155.865h.339V5.51h-.339v1.735zm1.667-.526q0-.209-.107-.323-.106-.115-.393-.219-.151-.052-.206-.099-.054-.047-.054-.12 0-.083.07-.138.07-.054.18-.054.15 0 .276.14l.177-.229q-.214-.193-.51-.193-.23 0-.386.144-.156.143-.156.351 0 .182.093.29.094.106.334.19.192.067.234.098.1.063.1.177 0 .105-.074.175-.073.07-.187.07-.25 0-.37-.229l-.219.208q.23.334.6.334.265 0 .431-.16.167-.158.167-.413zm1.448.469v-.402q-.193.193-.406.193-.255 0-.42-.17-.164-.168-.164-.429 0-.25.164-.424.165-.175.404-.175.224 0 .422.198v-.4q-.208-.105-.417-.105-.385 0-.653.263-.27.263-.27.643t.266.643q.266.263.651.263.219 0 .422-.099zm6.417 3.145V7.59q-.339.208-.753.437-.414.23-1.237.61-.823.38-1.716.716-.893.336-2.175.7-1.28.365-2.625.615h8.172q.136 0 .235-.1.099-.098.099-.234zM8.234 6.391q0-.391-.276-.667t-.666-.276q-.391 0-.667.276t-.276.667q0 .39.276.666t.667.276q.39 0 .666-.276t.276-.666zm.792.9.75-1.78h-.37l-.468 1.166-.464-1.167h-.37l.74 1.782h.182zm.901-.046h.958v-.292h-.62v-.469h.6v-.291h-.6v-.386h.62V5.51h-.958v1.735zm2.037 0h.416l-.547-.73q.396-.083.396-.489 0-.245-.161-.38-.162-.136-.453-.136h-.506v1.735h.339v-.693h.047zM13 3.698v6.604q0 .292-.2.495-.201.203-.488.203H1.688q-.286 0-.486-.203Q1 10.594 1 10.302V3.698q0-.292.2-.495Q1.402 3 1.688 3h10.626q.286 0 .486.203.201.203.201.495z"/>
</svg>
