<svg aria-hidden="true" xmlns="http://www.w3.org/2000/svg" viewBox="0 0 14 14" height="1em" width="1em">
  <path d="M2.677 6.745H2.6q-.099 0-.099-.094 0-.146.099-.443.026-.078.078-.101.052-.024.146-.024.401 0 .401.256 0 .213-.159.31-.159.096-.388.096zm1.781.838q-.244 0-.244-.15 0-.324.64-.324l.016.016q-.026.458-.412.458zm4.032-.828h-.08q-.099 0-.099-.099 0-.146.1-.442.025-.079.075-.1.05-.02.148-.02.401 0 .401.255 0 .213-.158.31-.16.096-.388.096zm1.78.834q-.244 0-.244-.157 0-.323.64-.323l.016.016q-.026.464-.411.464zM2.944 5.677h-.667q-.042 0-.075.02-.034.022-.045.04l-.036.065q-.016.037-.235.99-.218.953-.218 1 0 .036.028.065.029.028.07.028h.323q.13 0 .17-.18l.078-.359.17-.18q.244 0 .455-.038.21-.04.42-.128.207-.088.33-.273.122-.185.122-.44 0-.188-.075-.318-.076-.13-.214-.19t-.278-.081q-.141-.02-.323-.02zm1.802.5q-.198 0-.386.031-.01 0-.044.005l-.047.008-.039.008-.039.01-.034.016-.034.021-.026.026-.023.037-.021.046q-.047.152-.047.204 0 .052.047.052.026 0 .112-.026l.102-.031q.156-.042.302-.042.385 0 .385.187 0 .058-.052.073-.042.01-.094.016-.052.005-.112.008-.06.003-.09.008-.199.02-.337.052-.138.031-.294.101-.156.07-.237.204-.08.132-.08.325 0 .198.135.31.135.112.333.112.125 0 .237-.034.112-.034.172-.068.06-.033.2-.122-.015.037-.015.078 0 .042.028.07.029.03.065.03h.292q.005-.006.037-.02l.039-.017.026-.019q.018-.013.026-.028.008-.016.013-.042l.234-1.01q.02-.068.02-.156 0-.422-.754-.422zm2.75.026H7.11q-.114 0-.203.12-.026.036-.153.265-.128.23-.243.425-.114.195-.135.2l-.026-.02q0-.401-.14-.865-.006-.026-.019-.044T6.16 6.25q-.018-.016-.034-.026-.016-.01-.044-.016L6.036 6.2q-.015-.003-.049-.005l-.047-.003h-.096q-.198 0-.198.11l.005.026q.026.276.13.786.104.51.13.745.01.083.01.125 0 .099-.158.32-.16.222-.16.305 0 .068.21.068.317 0 .395-.13l1.276-2.162q.052-.104.052-.135 0-.047-.042-.047zm1.26-.516h-.672q-.093 0-.15.12-.032.068-.243.998-.21.93-.21.992 0 .104.223.104h.133l.05-.005.044-.01.044-.016.034-.023.029-.032.015-.044.11-.474q.01-.052.054-.088.045-.037.102-.037.245 0 .456-.036.21-.037.419-.128.208-.091.33-.273.123-.183.123-.438 0-.187-.076-.318-.075-.13-.213-.19t-.279-.08q-.14-.021-.323-.021zm1.802.49q-.135 0-.385.031-.198.031-.25.084-.037.041-.057.099-.042.125-.042.203 0 .052.042.052.005 0 .213-.063.156-.041.302-.041.386 0 .386.187 0 .063-.052.073-.021.005-.297.036-.198.021-.336.053-.138.03-.295.101-.156.07-.237.203-.08.133-.08.326 0 .192.135.304.136.112.334.112.125 0 .234-.03.11-.032.177-.068.068-.037.198-.125l-.016.083q0 .026.01.044.011.018.035.029l.041.018q.018.008.055.01l.05.003h.09q.22 0 .25-.13l.235-1.01q.016-.078.016-.162 0-.422-.756-.422zm1.677-.474h-.286q-.13 0-.172.208-.052.23-.19.87t-.221.99v.026q0 .083.083.093h.302q.052 0 .096-.033.045-.034.055-.086l.432-1.948h-.005l.005-.026q0-.037-.028-.065-.029-.029-.07-.029zM13 3.667v6.666q0 .271-.198.47-.198.197-.469.197H1.667q-.271 0-.47-.198Q1 10.604 1 10.333V3.667q0-.271.198-.47Q1.396 3 1.667 3h10.666q.271 0 .47.198.197.198.197.469z"/>
</svg>
