<svg role="img" focusable="false" aria-hidden="true" xmlns="http://www.w3.org/2000/svg" viewBox="0 0 14 14" height="1em" width="1em">
  <path d="M 1.619777,5.88542 H 2.083315 L 1.848943,5.32292 z M 4.854155,8.625 5.239565,8.21354 4.874985,7.80208 h -0.84896 v 0.25521 h 0.73958 V 8.34375 H 4.026025 V 8.625 h 0.82813 z m 0.82291,-0.40625 0.51563,0.57292 V 7.66146 z m 1.5,-0.24479 q 0,-0.17188 -0.20833,-0.17188 h -0.4375 v 0.35938 h 0.43229 q 0.21354,0 0.21354,-0.1875 z m 1.50521,-0.0208 q 0,-0.15104 -0.21875,-0.15104 h -0.42708 v 0.31771 h 0.42187 q 0.22396,0 0.22396,-0.16667 z M 7.234355,5.52608 q 0,-0.15104 -0.21875,-0.15104 h -0.42708 v 0.3125 h 0.42188 q 0.22395,0 0.22395,-0.16146 z m 2.39063,0.35938 h 0.46354 L 9.859355,5.32296 z M 4.640605,5.07816 V 6.48962 H 4.296865 V 5.38546 L 3.807275,6.48962 H 3.510405 L 3.020815,5.38546 v 1.10416 h -0.6875 L 2.203105,6.17712 H 1.499985 L 1.369777,6.48962 H 1.005193 L 1.60936,5.07816 h 0.500005 l 0.57291,1.33855 V 5.07816 h 0.55209 l 0.4427,0.95834 0.40104,-0.95834 h 0.5625 z M 7.536445,7.974 q 0,0.10417 -0.0286,0.18229 -0.0286,0.0781 -0.0729,0.13021 -0.0443,0.0521 -0.11719,0.0859 -0.0729,0.0338 -0.13542,0.0521 -0.0625,0.0182 -0.16406,0.0234 -0.10156,0.005 -0.16406,0.005 -0.0625,0 -0.16927,-0.003 -0.10677,-0.003 -0.15365,-0.003 V 8.92086 H 5.874985 L 5.458315,8.45211 5.026025,8.92086 H 3.692695 V 7.5094 h 1.35417 l 0.41666,0.46354 0.42708,-0.46354 h 1.07813 q 0.56771,0 0.56771,0.46354 z M 6.020815,6.19796 v 0.29166 h -1.1302 V 5.07816 h 1.1302 v 0.29688 h -0.79166 v 0.25521 h 0.77083 v 0.28646 h -0.77083 v 0.28125 h 0.79166 z m 6.97917,2.91141 v 1.19271 q 0,0.28646 -0.20052,0.49219 Q 12.598945,11 12.312485,11 h -10.625 Q 1.401027,11 1.200506,10.79427 0.999985,10.58854 0.999985,10.30208 V 6.77083 H 1.57811 L 1.708318,6.45312 h 0.286459 l 0.130208,0.31771 h 1.13542 V 6.53125 l 0.099,0.23958 h 0.58854 l 0.10416,-0.24479 v 0.24479 h 2.81771 V 6.25521 l 0.0521,-0.005 q 0.0521,0 0.0521,0.0729 v 0.44791 h 1.45312 V 6.65123 q 0.1198,0.0625 0.28646,0.0937 0.16667,0.0312 0.27344,0.0339 0.10677,0.003 0.32812,-0.003 0.22136,-0.005 0.26823,-0.005 l 0.13021,-0.31771 h 0.29167 l 0.13021,0.31771 h 1.18229 V 6.46875 l 0.17708,0.30208 h 0.94792 V 4.80208 h -0.9375 v 0.22917 l -0.13021,-0.22917 h -0.96354 v 0.22917 l -0.11979,-0.22917 h -1.29688 q -0.35937,0 -0.56771,0.11459 V 4.80208 H 7.531305 V 4.91667 Q 7.406305,4.80208 7.151095,4.80208 H 3.880265 L 3.656305,5.30729 3.432345,4.80208 H 2.401095 V 5.03125 L 2.286515,4.80208 H 1.406235 L 0.999985,5.73437 V 3.69792 q 0,-0.28646 0.200521,-0.49219 Q 1.401027,3 1.687485,3 h 10.625 q 0.28646,0 0.48698,0.20573 0.20052,0.20573 0.20052,0.49219 v 3.53125 h -0.625 q -0.26563,0 -0.42187,0.11458 V 7.22917 h -0.92188 q -0.28646,0 -0.40625,0.11458 V 7.22917 H 8.979155 V 7.34375 Q 8.817695,7.22917 8.526025,7.22917 H 7.437485 V 7.34375 Q 7.317695,7.22917 6.963525,7.22917 H 5.744775 L 5.463525,7.53125 5.203105,7.22917 h -1.8177 v 1.96875 h 1.78645 l 0.28646,-0.30729 0.27084,0.30729 h 1.09895 V 8.73437 h 0.10938 q 0.30729,0 0.46875,-0.0677 v 0.53125 h 0.90625 V 8.68229 h 0.0417 q 0.0417,0 0.0521,0.0104 0.0104,0.0104 0.0104,0.0521 v 0.45313 h 2.75521 q 0.29687,0 0.45833,-0.125 v 0.125 h 0.875 q 0.3125,0 0.49479,-0.0885 z M 9.052065,7.89062 q 0,0.1198 -0.0625,0.22396 -0.0625,0.10417 -0.17708,0.15104 0.13021,0.0469 0.17708,0.13542 0.0469,0.0885 0.0469,0.23958 V 8.92188 H 8.697925 V 8.6875 q 0,-0.17187 -0.0625,-0.22656 -0.0625,-0.0547 -0.23959,-0.0547 H 8.036465 V 8.92187 H 7.697925 V 7.51041 h 0.80206 q 0.25,0 0.40104,0.0781 0.15104,0.0781 0.15104,0.30208 z M 7.609355,5.45833 q 0,0.125 -0.0651,0.22917 -0.0651,0.10417 -0.17448,0.15104 0.13542,0.0469 0.17969,0.13281 0.0443,0.0859 0.0443,0.24219 v 0.27604 h -0.33854 q 0,-0.0469 0.003,-0.13802 0.003,-0.0911 0,-0.13021 -0.003,-0.0391 -0.0156,-0.0964 -0.013,-0.0573 -0.0443,-0.0833 -0.0312,-0.026 -0.0911,-0.0443 -0.0599,-0.0182 -0.15365,-0.0182 H 6.588995 V 6.48956 H 6.255665 V 5.0781 l 0.79687,0.005 q 0.25521,0 0.40625,0.0755 0.15104,0.0755 0.15104,0.29948 z m 2.75521,3.17188 v 0.29167 h -1.125 V 7.51042 h 1.125 v 0.29166 h -0.78646 v 0.25521 h 0.77084 V 8.34375 H 9.578105 V 8.625 z M 8.145815,5.07812 V 6.48958 H 7.802065 V 5.07812 h 0.34375 z m 3.60938,3.39584 q 0,0.44792 -0.53125,0.44792 h -0.65625 V 8.61979 h 0.65625 q 0.17708,0 0.17708,-0.13021 0,-0.0833 -0.0885,-0.10937 -0.0885,-0.026 -0.21615,-0.026 -0.1276,0 -0.25781,-0.0182 -0.13021,-0.0182 -0.21875,-0.11719 -0.0885,-0.099 -0.0885,-0.28646 0,-0.20312 0.13542,-0.3125 0.13541,-0.10937 0.34375,-0.10937 h 0.67708 v 0.29687 h -0.61979 q -0.1875,0 -0.1875,0.13021 0,0.0833 0.0911,0.10677 0.0911,0.0234 0.21875,0.0208 0.12761,-0.003 0.25521,0.013 0.12761,0.0156 0.21875,0.11197 0.0911,0.0964 0.0911,0.28386 z m 1.24479,-0.26042 v 0.52604 q -0.125,0.1823 -0.45833,0.1823 h -0.65104 V 8.61979 h 0.65104 q 0.17187,0 0.17187,-0.13021 0,-0.0677 -0.0651,-0.099 -0.0651,-0.0313 -0.16146,-0.0286 -0.0964,0.003 -0.20833,-0.0104 -0.11198,-0.013 -0.20834,-0.0417 -0.0964,-0.0287 -0.16146,-0.125 -0.0651,-0.0964 -0.0651,-0.25261 0,-0.20312 0.13802,-0.3125 0.13802,-0.10937 0.34636,-0.10937 h 0.67187 v 0.29687 h -0.61458 q -0.1875,0 -0.1875,0.13021 0,0.10417 0.15104,0.11458 0.15104,0.0104 0.35677,0.026 0.20573,0.0156 0.29427,0.13541 z m -0.85938,-3.13021 v 1.40625 h -0.47916 l -0.63542,-1.05729 v 1.05729 h -0.6875 l -0.13542,-0.3125 h -0.69791 l -0.13021,0.3125 h -0.39062 q -0.67188,0 -0.67188,-0.69271 0,-0.71875 0.69271,-0.71875 h 0.32812 v 0.3073 q -0.0365,0 -0.14583,-0.005 -0.10938,-0.005 -0.14844,-0.003 -0.0391,0.003 -0.11979,0.0104 -0.0807,0.008 -0.11198,0.0339 -0.0312,0.026 -0.0755,0.0703 -0.0443,0.0443 -0.0599,0.11979 -0.0156,0.0755 -0.0156,0.17448 0,0.19791 0.0703,0.30208 0.0703,0.10417 0.25782,0.10417 h 0.15104 l 0.47916,-1.10938 h 0.50521 l 0.56771,1.33334 V 5.08316 h 0.51563 l 0.59374,0.97917 V 5.08316 h 0.34375 z"/>
</svg>
