<svg aria-hidden="true" xmlns="http://www.w3.org/2000/svg" viewBox="0 0 14 14" height="1em" width="1em">
  <path d="M11.04 11.226a.321.321 0 0 0-.386-.251 5.63 5.63 0 0 1-1.217.145c-1.52 0-2.73-.932-3.253-2.289h3.045a.321.321 0 0 0 .313-.25l.171-.76a.321.321 0 0 0-.314-.392H5.804a5.782 5.782 0 0 1 .003-1.132h3.927a.321.321 0 0 0 .314-.253l.175-.797a.321.321 0 0 0-.314-.39H6.205c.552-1.205 1.679-2.01 3.15-2.01.388 0 .765.06 1.014.111a.322.322 0 0 0 .375-.23l.321-1.189a.321.321 0 0 0-.25-.4A7.8 7.8 0 0 0 9.405 1C6.8 1 4.7 2.614 3.924 4.857h-.886a.321.321 0 0 0-.321.322v.797a.32.32 0 0 0 .321.321h.578a7.952 7.952 0 0 0-.005 1.132h-.573a.321.321 0 0 0-.321.321v.76a.32.32 0 0 0 .321.321h.807C4.516 11.251 6.609 13 9.404 13c.705 0 1.301-.122 1.637-.209a.322.322 0 0 0 .235-.373l-.236-1.192z"/>
</svg>
