<svg aria-hidden="true" xmlns="http://www.w3.org/2000/svg" viewBox="0 0 14 14" height="1em" width="1em">
  <g fill="#455a64">
    <path d="M6 9.333h2V11H6z"/>
    <path d="M10.667 11.333H3.333s0-.666.667-.666h6c.667 0 .667.666.667.666z"/>
  </g>
  <path fill="#546e7a" d="M1 2.667h12v7H1z"/>
  <path fill="#bbdefb" d="M1.667 3.333h10.666V9H1.667z"/>
  <path fill="#1e88e5" fill-rule="evenodd" d="M5.702 7.667h.875l.513-3h-.884l-.168 1H4.886l.177-1H4.18l-.513 3h.883l.196-1.242 1.152.001z" clip-rule="evenodd"/>
  <path fill="#1e88e5" d="M9.347 4.667h-1.59l-.484 3h1.521c.95 0 1.705-.601 1.761-1.79.056-1.187-1.208-1.21-1.208-1.21zM8.707 7h-.453l.299-1.667h.407c.395.021.81.06.78.709C9.7 6.857 9.064 7 8.706 7z"/>
</svg>
