<svg role="img" focusable="false" aria-hidden="true" xmlns="http://www.w3.org/2000/svg" viewBox="0 0 14 14" height="1em" width="1em">
  <path fill="#f44336" d="M12.8427947 4.62248716l-.68870866-.68870866c-2.42545225-2.36556455-8.23456012-2.03618214-10.33062997 0l-.68870867.68870866c-.17966313.17966313-.17966313.47910168 0 .68870867L2.51216473 6.6586693c.17966313.17966313.50904554.17966313.68870867 0L4.72801 5.1914204l-.11977542-1.5870243c.47910168-.47910168 4.31191512-.47910168 4.7910168 0l-.08983156 1.64691203L10.7766687 6.6586693c.17966313.17966313.50904554.17966313.68870867 0l1.37741733-1.34747347c.20960698-.20960699.20960698-.50904554 0-.68870867z"/>
  <g fill="#b71c1c">
    <path d="M7.00374298 11.7191808l-2.3955084-2.84466623h4.7910168z"/>
    <path d="M6.10542733 6.77844472h1.7966313v2.24578913h-1.7966313z"/>
  </g>
</svg>
