<svg role="img" focusable="false" aria-hidden="true" xmlns="http://www.w3.org/2000/svg" viewBox="0 0 14 14" height="1em" width="1em">
  <path d="m 6.1938821,12.936278 c -1.887613,-0.2363 -3.720395,-1.5343 -4.535586,-3.2121999 -0.486771,-1.002 -0.64378,-1.6728 -0.644592,-2.7542 -7.67e-4,-1.0137 0.182387,-1.8027 0.621891,-2.6792 0.332229,-0.6626 0.554455,-0.9631 1.161647,-1.5711 1.152233,-1.1537 2.558778,-1.7194 4.275247,-1.7194 4.0177369,0 6.8604009,3.975 5.6201199,7.8588 -0.6983,2.1866999 -2.682384,3.8063999 -5.0025669,4.0838999 -0.650271,0.078 -0.827808,0.077 -1.49616,-0.01 z m 2.092834,-1.2653 c 0.886655,-0.2497 1.585751,-0.6817 2.2505079,-1.3905 0.550082,-0.5864999 0.939754,-1.2703999 1.155745,-2.0284999 0.204435,-0.7175 0.202508,-1.824 -0.0045,-2.5695 -0.138136,-0.4975 -0.673897,-1.5509 -0.812257,-1.597 -0.03536,-0.012 -0.335448,0.2518 -0.666853,0.5857 -0.3314039,0.3338 -0.6241169,0.6077 -0.6504729,0.6084 -0.02636,0 -0.0486,-0.1351 -0.04944,-0.3021 -8.73e-4,-0.173 -0.06913,-0.4679 -0.158744,-0.686 l -0.157229,-0.3825 0.350424,-0.3541 c 0.192732,-0.1948 0.350423,-0.3854 0.350423,-0.4236 0,-0.038 -0.109252,-0.1418 -0.242782,-0.2302 -1.845605,-1.2214 -4.292861,-1.0223 -5.92587,0.4821 -1.785926,1.6453 -2.11821,4.192 -0.813644,6.236 l 0.220111,0.3449 0.55509,-0.5525 c 0.3053,-0.3039 0.571535,-0.5526 0.591633,-0.5526 0.0201,0 0.06912,0.1079 0.108937,0.2396 0.03982,0.1318 0.171204,0.3834 0.291971,0.5591 l 0.219577,0.3195 -0.425617,0.4339999 -0.425617,0.4341 0.159732,0.1267 c 0.41268,0.3273 1.445468,0.7368 2.140416,0.8487 0.396679,0.064 1.476176,-0.019 1.938428,-0.1497 z m -1.977895,-1.5547 c -0.5782,-0.2158999 -0.991379,-0.6038999 -1.254031,-1.1775999 -0.232526,-0.5079 -0.217565,-1.0291 0.05236,-1.824 l 0.21264,-0.6263 -0.108418,-0.6284 c -0.08385,-0.4861 -0.0939,-0.705 -0.04436,-0.9663 0.272855,-1.4388 1.973252,-2.0207 3.057067,-1.0463 0.547071,0.4919 0.725204,1.1096 0.557975,1.9349 -0.119362,0.5891 -0.09262,0.8696 0.14105,1.4794 0.313646,0.8185 0.184158,1.6414 -0.352168,2.2379 -0.428244,0.4763 -0.818197,0.6548999 -1.487884,0.6814999 -0.349831,0.014 -0.625345,-0.01 -0.774237,-0.065 z m 0.912965,-0.5323999 c 0.243649,-0.2205 0.104553,-0.4448 -0.355295,-0.5729 -0.144447,-0.04 -0.354634,-0.1111 -0.467082,-0.1573 -0.181247,-0.075 -0.219317,-0.071 -0.335438,0.034 -0.18405,0.1665 -0.16569,0.3852 0.04472,0.5325 0.38382,0.2687 0.911098,0.3461 1.113096,0.1633 z m -1.27786,-1.214 c 0.146419,-0.1325 0.156353,-0.5484 0.01644,-0.6883 -0.229356,-0.2294 -0.538527,-0.027 -0.538527,0.3522 0,0.3878 0.27167,0.5628 0.522086,0.3361 z m 2.002421,-3.688 c 0.188072,-0.2871 -0.148678,-0.6798 -0.505981,-0.5901 -0.256669,0.064 -0.287379,0.3232 -0.06581,0.5544 0.218235,0.2278 0.436953,0.2415 0.571787,0.036 z"/>
</svg>
