<svg aria-hidden="true" xmlns="http://www.w3.org/2000/svg" viewBox="0 0 14 14" height="1em" width="1em">
  <path d="M6.324 12.99a1.115 1.115 0 0 1-.497-.249l-.087-.076-.12.031a.96.96 0 0 1-.65-.057.929.929 0 0 1-.346-.341c-.028-.06-.044-.08-.06-.071-.424.185-.791.22-1.127.106a.894.894 0 0 1-.397-.248.89.89 0 0 1-.28-.74c.018-.293.123-.52.347-.749l.143-.145v-.112c0-.202.062-.42.172-.603.107-.179.374-.425.574-.53.04-.022.073-.048.073-.059 0-.01-.074-.327-.163-.702A2713.309 2713.309 0 0 1 3.45 6.54c-.298-1.248-.281-1.159-.239-1.302a.56.56 0 0 1 .078-.15l.055-.071-.064-.07a.782.782 0 0 1-.171-.357.716.716 0 0 1 .073-.423c.098-.204.364-.43.604-.513l.057-.02-.004-.114a1.05 1.05 0 0 1 .334-.802c.08-.072.301-.197.386-.22.032-.01.034-.016.034-.15 0-.534.296-.981.808-1.22.197-.092.357-.129.567-.13.187 0 .296.022.467.092.183.074.427.271.553.446l.048.068.095-.04c.497-.202 1.023-.147 1.335.142.05.047.11.112.133.145l.042.06h.165c.255 0 .459.066.65.21.08.058.087.06.132.042.221-.09.43-.114.627-.072.329.07.638.318.79.635a.963.963 0 0 1 .045.765l-.048.133.054.09c.188.313.195.714.018 1.122l-.052.12.066.065a.641.641 0 0 1 .11.16c.036.08.043.113.042.225 0 .115-.03.259-.251 1.181a912.82 912.82 0 0 0-.612 2.58c-.199.84-.376 1.58-.394 1.644a.593.593 0 0 1-.204.32c-.036.026-.568.298-1.182.605l-1.116.558-.036.08c-.111.25-.379.489-.654.586-.1.035-.353.05-.468.03zm.333-.428a.79.79 0 0 0 .402-.349c.08-.155.015-.472-.13-.633a.373.373 0 0 0-.258-.128c-.08-.01-.101-.02-.152-.07-.057-.058-.059-.064-.053-.142a.78.78 0 0 1 .043-.174.968.968 0 0 0 .031-.453.69.69 0 0 0-.585-.543.423.423 0 0 0-.297.04c-.162.081-.38.378-.46.628a.291.291 0 0 1-.073.104c-.044.039-.067.047-.13.047a.161.161 0 0 1-.13-.048c-.078-.07-.092-.135-.053-.252.046-.136.174-.375.27-.504l.084-.111-.057-.07c-.206-.25-.559-.38-.854-.311a.793.793 0 0 0-.588.753c0 .141.024.216.092.283l.057.057-.078.018a.74.74 0 0 0-.562.745c.013.24.149.407.397.492a.741.741 0 0 0 .28.035 1 1 0 0 0 .528-.133c.1-.052.124-.072.15-.126.039-.08.1-.118.193-.118.13 0 .208.108.21.286 0 .157.092.314.221.38.077.04.265.056.36.03a.702.702 0 0 0 .157-.08c.075-.05.105-.061.165-.061.065 0 .08.01.133.06.038.038.06.074.06.099 0 .116.264.271.465.273.047 0 .12-.011.162-.025zm1.4-1.243c.022-.17.402-4.817.395-4.824-.006-.01-.534.24-.904.422l-.05.025v4.72l.275-.138.276-.138.009-.067zm1.06-.468c.202-.1.327-.172.332-.19a4626.603 4626.603 0 0 1 1.083-4.568c.157-.661.16-.67.143-.67-.036 0-.862.407-.842.415.023.01.028-.015-.15.82l-.895 4.258c-.011.053-.014.097-.007.097.008 0 .159-.073.336-.162zM6.942 8.699V6.94l-.472-.228a6.023 6.023 0 0 0-.482-.218c-.008.01.232 2.987.254 3.153.008.062.011.065.14.129.229.113.408.314.507.568a.834.834 0 0 0 .048.112c.003 0 .005-.791.005-1.758zM5.011 7.7a95.376 95.376 0 0 0-.383-1.865 15.383 15.383 0 0 0-.867-.411c-.007 0 .118.554.277 1.225.16.67.356 1.505.438 1.853.082.348.155.643.161.655.007.012.05.03.095.043.196.05.37.142.54.285a.426.426 0 0 0 .106.077c.002-.01-.163-.843-.367-1.862zm3.061-1.737c.836-.317.87-.331 1.61-.688.417-.2.791-.377.833-.391.087-.03.124-.08.194-.256a.992.992 0 0 0 .073-.436c-.019-.256-.165-.415-.408-.448l-.08-.01.088-.058a.781.781 0 0 0 .26-.28c.04-.075.044-.099.044-.23 0-.14-.003-.155-.058-.265a.754.754 0 0 0-.348-.349c-.11-.055-.125-.058-.265-.058-.131 0-.157 0-.232.043a.751.751 0 0 0-.278.262l-.058.089-.01-.068a.597.597 0 0 0-.34-.427c-.258-.12-.501-.084-.671.102l-.076.083-.006-.165c-.005-.143-.012-.178-.049-.253-.136-.278-.51-.378-.914-.243a1.235 1.235 0 0 0-.213.093c-.075.048-.196.173-.197.204a.28.28 0 0 1-.02.063l-.02.046-.02-.062a2.09 2.09 0 0 0-.09-.2c-.28-.567-.721-.778-1.204-.577a.937.937 0 0 0-.61.909c0 .188.043.415.106.567.004.01-.035 0-.086-.03a.349.349 0 0 0-.21-.048.416.416 0 0 0-.23.057.539.539 0 0 0-.275.281c-.09.192-.073.413.05.657.033.068.061.126.061.13 0 0-.026 0-.058-.01a.708.708 0 0 0-.332.015.766.766 0 0 0-.363.192c-.193.183-.204.356-.033.51a.589.589 0 0 0 .158.1c.072.027.747.316 2.59 1.11a398.924 398.924 0 0 1 .83.358l.856-.323zm-1.27-.97c-.048-.05-.059-.073-.069-.15a.536.536 0 0 0-.04-.15.394.394 0 0 0-.231-.183c-.087-.021-.139-.012-.257.042-.095.044-.16.04-.228-.013-.064-.051-.086-.11-.086-.23 0-.132-.031-.204-.125-.283a.343.343 0 0 0-.522.11.551.551 0 0 0-.04.15c-.01.079-.021.101-.07.15-.052.052-.066.058-.139.058-.073 0-.086-.01-.14-.06-.059-.058-.06-.063-.06-.17 0-.118.038-.26.097-.357a.868.868 0 0 1 .397-.33l.07-.026-.006-.112c-.016-.37.234-.743.617-.921.352-.165.696-.12 1.031.131.146.11.237.226.352.452.001 0 .06-.01.13-.027a.963.963 0 0 1 .668.071c.186.1.345.31.401.53.012.047.028.085.036.085a.977.977 0 0 0 .114-.035.95.95 0 0 1 .733.039.905.905 0 0 1 .487.799c0 .133-.028.187-.118.226a.194.194 0 0 1-.208-.019c-.051-.036-.069-.083-.09-.234a.506.506 0 0 0-.138-.31c-.1-.105-.157-.126-.342-.126-.152 0-.169 0-.266.051-.062.03-.151.094-.22.157-.129.12-.187.142-.283.106a.23.23 0 0 1-.093-.075c-.034-.049-.036-.062-.024-.161.007-.06.012-.181.013-.27 0-.19-.024-.253-.133-.347-.172-.147-.475-.132-.61.03-.094.111-.21.138-.311.072-.054-.035-.077-.094-.095-.234a.682.682 0 0 0-.382-.528c-.096-.047-.117-.052-.244-.052-.126 0-.15.01-.24.049-.222.109-.343.272-.372.5a.996.996 0 0 1-.024.14c-.004.01.005.017.02.022a.813.813 0 0 1 .5.452l.027.071h.116c.123 0 .273.045.366.102.081.05.21.176.261.256a.72.72 0 0 1 .11.374c0 .108-.001.112-.06.17-.055.055-.068.06-.141.06-.073 0-.087-.01-.139-.057z"/>
</svg>
