<svg role="img" focusable="false" aria-hidden="true" xmlns="http://www.w3.org/2000/svg" viewBox="0 0 14 14" height="1em" width="1em">
  <path d="m 4.39735,8.2151249 c -0.026,0.031 -0.095,0.1288 -0.155,0.2218 -0.1288,0.2003 -0.2552,0.3267 -0.4005,0.3982 -0.091,0.045 -0.1455,0.055 -0.3577,0.055 -0.3028,0 -0.5102,-0.057 -0.732,-0.2003 -0.081,-0.052 -0.143,-0.083 -0.1382,-0.067 0.01,0.017 0.2431,0.8656 0.5245,1.8861001 0.2814,1.0228 0.5151,1.8622 0.5198,1.8646 0,0 0.052,0.026 0.1073,0.055 0.4387,0.2217 1.2065,0.4125 2.0792,0.5173 0.4339,0.052 1.774,0.072 2.2246,0.036 1.054,-0.088 1.9433,-0.3315 2.4966,-0.6796 l 0.1311,-0.083 0.3529,-1.6405 c 0.1931,-0.9013001 0.3768,-1.7549001 0.4078,-1.8932001 l 0.055,-0.2527 -0.1336,0.081 c -0.1955,0.1192 -0.4315,0.1836 -0.658,0.186 -0.1717,0 -0.2098,-0.01 -0.3696,-0.086 -0.098,-0.048 -0.2741,-0.1644 -0.3934,-0.2575 -0.3672,-0.2909 -0.3958,-0.2789 -0.4936,0.2003 -0.055,0.2719 -0.143,0.5317 -0.2218,0.6558 -0.076,0.1192 -0.2599,0.2813 -0.3767,0.3314 -0.1503,0.064 -0.3315,0.098 -0.5246,0.098 -0.4674,0 -0.7392,-0.1741 -1.0897,-0.6939 -0.1073,-0.1573 -0.2097,-0.2932 -0.2288,-0.3005 -0.048,-0.017 -0.098,0.031 -0.3363,0.3195 -0.2218,0.2718 -0.4292,0.4364 -0.6438,0.5127 -0.1145,0.038 -0.1788,0.045 -0.3768,0.038 -0.2933,-0.014 -0.4626,-0.074 -0.6295,-0.2241 -0.1884,-0.1693 -0.248,-0.3005 -0.3864,-0.8417 -0.071,-0.2742 -0.15,-0.3481 -0.2526,-0.2361 z m 1.6859,-3.6958 c -0.3051,0.033 -0.7392,0.1121 -1.0635,0.1979 -1.2613,0.329 -2.2246,0.9729 -2.6157,1.7406 -0.1241,0.2457 -0.1717,0.4554 -0.1717,0.7512 0,0.372 0.067,0.6008 0.2766,0.9418 0.2147,0.3482 0.5508,0.5365 0.9633,0.5437 0.2933,0 0.4197,-0.081 0.6391,-0.4244 0.1407,-0.2241 0.2288,-0.298 0.3577,-0.298 0.1359,0 0.2479,0.074 0.3028,0.1978 0.024,0.055 0.074,0.217 0.1072,0.3625 0.076,0.3051 0.1478,0.4649 0.2694,0.5913 0.1646,0.1693 0.5175,0.248 0.7773,0.1741 0.2409,-0.072 0.3648,-0.1693 0.6533,-0.5127 0.2456,-0.2957 0.3028,-0.341 0.4221,-0.341 0.1288,0 0.1908,0.057 0.3982,0.3648 0.2885,0.4244 0.4769,0.5722 0.7987,0.6223 0.1669,0.026 0.4174,0 0.5651,-0.064 0.217,-0.091 0.3792,-0.3267 0.4554,-0.6558 0.1407,-0.6151 0.1526,-0.6461 0.3005,-0.7224 0.1455,-0.076 0.26,-0.036 0.5676,0.2099 0.112,0.088 0.255,0.186 0.3219,0.2193 0.2289,0.1168 0.5317,0.098 0.8083,-0.048 0.3457,-0.1812 0.5508,-0.6151 0.5508,-1.1611 0,-0.3839 -0.086,-0.6582 -0.3219,-1.0063 -0.4531,-0.6676 -1.4474,-1.2471 -2.6086,-1.5214 -0.4292,-0.1024 -1.0897,-0.2026 -1.1206,-0.1693 -0.01,0 -0.012,0.298 -0.012,0.6486 l 0,0.6391 -0.074,0.084 c -0.1384,0.1598 -0.5055,0.2384 -0.8513,0.1835 -0.2051,-0.031 -0.3314,-0.091 -0.4196,-0.1931 l -0.062,-0.076 0,-0.6391 c 0,-0.3529 -0.01,-0.6439 -0.017,-0.651 -0.012,0 -0.1002,0 -0.1979,0.012 z m 0.6628,-1.8551 c -0.081,0.017 -0.1621,0.052 -0.1978,0.086 l -0.06,0.055 0,1.4617 0,1.4592 0.072,0.062 c 0.091,0.074 0.1956,0.098 0.4411,0.098 0.2456,0 0.3506,-0.024 0.4411,-0.098 l 0.072,-0.062 0,-1.4544 0,-1.4545 -0.067,-0.064 c -0.1071,-0.1097 -0.4219,-0.1479 -0.7009,-0.088 z m 0.1073,-1.4831 c -0.3504,0.4412 -0.4387,0.7607 -0.2862,1.0325 0.081,0.143 0.2242,0.2122 0.434,0.2122 0.2909,0 0.4649,-0.1478 0.5031,-0.4221 0.031,-0.2169 -0.1359,-0.5771 -0.4148,-0.8965 l -0.093,-0.10729996 -0.143,0.18119996 z"/>
</svg>
