<svg role="img" focusable="false" aria-hidden="true" xmlns="http://www.w3.org/2000/svg" viewBox="0 0 14 14" height="1em" width="1em">
  <path d="m 9.5335648,10.728521 c -0.190654,0.1875 -0.426493,0.2682 -0.77866,0.2682 -0.345676,0 -0.581638,-0.078 -0.77217,-0.2553 l -0.122818,-0.1132 -0.116327,0.1034 c -0.06465,0.055 -0.197145,0.139 -0.297309,0.1841 -0.148655,0.068 -0.226166,0.084 -0.468494,0.084 -0.352167,0 -0.575149,-0.071 -0.778661,-0.252 l -0.142164,-0.126 -0.148654,0.1292 c -0.245512,0.2165 -0.633312,0.307 -0.998336,0.2327 -0.216492,-0.042 -0.462004,-0.1648 -0.568658,-0.2779 l -0.07102,-0.074 -0.129185,0.1098 c -0.206819,0.1777 -0.439474,0.2554 -0.781844,0.2554 -0.219676,0 -0.33282,-0.016 -0.458821,-0.068 l -0.171185,-0.068 -0.0065,0.6495 -0.0097,0.6461 -0.264982,0.058 c -1.033968,0.223 -0.620331,0.4846 1.043643,0.6558 1.030663,0.1067 1.715649,0.1325 3.583135,0.1293 1.440993,0 2.038794,-0.013 2.594472,-0.055 1.5766682,-0.1195 2.4458192,-0.2909 2.4458192,-0.4782 0,-0.068 -0.258492,-0.1842 -0.565475,-0.2488 l -0.274655,-0.061 -0.0097,-0.6494 c -0.0033,-0.3587 -0.0097,-0.6527 -0.01616,-0.6527 -0.0033,0 -0.08731,0.032 -0.184165,0.071 -0.135675,0.055 -0.245513,0.071 -0.468494,0.071 -0.352167,0 -0.584822,-0.081 -0.7916412,-0.2715 -0.07751,-0.071 -0.142164,-0.126 -0.142164,-0.126 -0.0032,0 -0.06135,0.062 -0.129185,0.1294 z m -6.79794,-0.6623 0.0097,0.5783 0.193838,0.097 c 0.158328,0.078 0.229349,0.094 0.420004,0.094 0.381187,0 0.717313,-0.2035 0.775477,-0.462 0.01935,-0.087 0.03551,-0.1002 0.126001,-0.1002 0.09698,0 0.109838,0.013 0.145348,0.126 0.113022,0.3845 0.74964,0.5655 1.188991,0.3393 0.197023,-0.1002 0.332819,-0.2585 0.332819,-0.3877 0,-0.068 0.01616,-0.077 0.129185,-0.077 0.113021,0 0.129185,0.01 0.129185,0.074 0,0.1292 0.148654,0.3037 0.336003,0.3942 0.210002,0.1034 0.497637,0.1228 0.74315,0.052 0.197144,-0.058 0.4298,-0.2682 0.45882,-0.4168 0.01935,-0.091 0.03233,-0.1034 0.126001,-0.1034 0.09367,0 0.109838,0.016 0.158328,0.1389 0.06465,0.1745 0.151839,0.2553 0.358657,0.349 0.445841,0.2003 1.066173,-0.013 1.163153,-0.4007 0.01935,-0.074 0.03882,-0.087 0.145348,-0.087 0.106654,0 0.126001,0.013 0.145348,0.087 0.09698,0.3877 0.7173132,0.601 1.1631542,0.4038 0.284329,-0.1291 0.274656,-0.1066 0.274656,-0.7269 0,-0.5072997 -0.0032,-0.5459997 -0.05498,-0.5234997 -0.588006,0.2326 -2.1647952,0.3715 -4.2099572,0.3715 -2.045162,0 -3.621952,-0.1389 -4.209958,-0.3715 -0.05155,-0.023 -0.05474,0.013 -0.04825,0.5524997 z m 1.964345,-2.2002997 c -0.164818,0.1745 -0.536331,0.2617 -0.862661,0.2003 l -0.135675,-0.023 -0.0097,0.3133 -0.0097,0.3135 -0.09698,0.019 c -0.05167,0.013 -0.213309,0.048 -0.355351,0.081 -0.258492,0.058 -0.478167,0.1454 -0.516984,0.21 -0.06784,0.1067 0.277839,0.2489 0.807803,0.3393 2.274634,0.3749 7.3052512,0.2197 7.7220712,-0.2423 0.05498,-0.061 0.05498,-0.068 0.0032,-0.126 -0.06465,-0.071 -0.294003,-0.1486 -0.655843,-0.2197 l -0.268166,-0.052 0,-0.4007 c 0,-0.3877 -0.01616,-0.4458 -0.09698,-0.3522 -0.06465,0.081 -0.3133502,0.1584 -0.5104952,0.1616 -0.252002,0 -0.462003,-0.061 -0.620331,-0.2004 l -0.132491,-0.113 -0.103348,0.1002 c -0.158328,0.1486 -0.32633,0.2068 -0.604169,0.21 -0.271472,0 -0.478168,-0.071 -0.610659,-0.2132 l -0.07751,-0.084 -0.126001,0.1066 c -0.310289,0.2648 -0.9016,0.2551 -1.19242,-0.019 l -0.084,-0.078 -0.119512,0.1033 c -0.300491,0.2617 -0.89817,0.2488 -1.188989,-0.026 l -0.08719,-0.084 -0.06796,0.074 z m -1.001519,-0.4652 0,0.475 0.09049,0.032 c 0.281146,0.1067 0.558985,0.061 0.752824,-0.1195 0.07114,-0.068 0.126001,-0.1519 0.126001,-0.1907 0,-0.055 0.01935,-0.071 0.09049,-0.071 0.07114,0 0.09698,0.023 0.142165,0.1292 0.174492,0.4168 0.969315,0.4007 1.143806,-0.023 0.06784,-0.155 0.174491,-0.1453 0.245512,0.023 0.174492,0.4168 0.969316,0.4007 1.143685,-0.023 0.06784,-0.1583 0.171185,-0.1453 0.255308,0.029 0.190655,0.3973 0.940172,0.3973 1.130827,0 0.05167,-0.1067 0.08082,-0.1357 0.148655,-0.1357 0.06135,0 0.09367,0.026 0.135674,0.1195 0.142165,0.3199 0.649475,0.4168 0.9951522,0.1874 0.158328,-0.1034 0.222981,-0.2972 0.222981,-0.6559 0,-0.2455 -0.0065,-0.2681 -0.05498,-0.2488 -0.126001,0.052 -0.6655162,0.1454 -1.1081732,0.1972 -0.626822,0.071 -2.885292,0.1001 -3.676809,0.048 -0.681802,-0.045 -1.260134,-0.1163 -1.56381,-0.1938 l -0.219676,-0.055 0,0.4749 z m 5.28262,-1.9742 c -0.135675,0.1422 -0.345677,0.21 -0.630006,0.2069 -0.252002,0 -0.445841,-0.071 -0.600985,-0.2133 -0.07102,-0.061 -0.07102,-0.061 -0.219676,0.048 -0.31984,0.2456 -0.836824,0.2327 -1.14699,-0.029 l -0.100165,-0.084 -0.100164,0.084 c -0.310165,0.2617 -0.827149,0.2747 -1.146989,0.029 -0.148655,-0.1098 -0.148655,-0.1098 -0.219676,-0.048 -0.03551,0.035 -0.113144,0.087 -0.171185,0.1163 l -0.103348,0.052 -0.0097,0.2973 -0.0097,0.294 -0.300493,0.058 c -0.306982,0.058 -0.526658,0.1454 -0.549311,0.2133 -0.04531,0.1454 0.73666,0.294 1.925651,0.3684 0.726985,0.045 2.755984,0.023 3.350479,-0.035 0.814048,-0.081 1.3988702,-0.2231 1.3665432,-0.3297 -0.02265,-0.071 -0.239023,-0.1583 -0.5169842,-0.21 -0.148655,-0.026 -0.287513,-0.055 -0.306983,-0.061 -0.02902,-0.01 -0.042,-0.097 -0.042,-0.3005 l 0,-0.2908 -0.103348,-0.055 c -0.05816,-0.029 -0.145349,-0.087 -0.190655,-0.1292 l -0.08082,-0.078 -0.09355,0.097 z m -4.442613,-0.3683 c 0,0.2035 0.01286,0.3683 0.02584,0.3683 0.05167,0 0.197023,-0.1776 0.216492,-0.2681 0.01935,-0.071 0.042,-0.087 0.116328,-0.087 0.07433,0 0.09367,0.013 0.09367,0.068 0,0.039 0.05498,0.1228 0.122818,0.1907 0.245512,0.2488 0.701149,0.2488 0.953151,0 0.06465,-0.068 0.119511,-0.1519 0.119511,-0.1907 0,-0.055 0.01935,-0.068 0.09698,-0.068 0.07751,0 0.09698,0.013 0.09698,0.068 0,0.039 0.05498,0.1228 0.122817,0.1907 0.245513,0.2488 0.70115,0.2488 0.953152,0 0.06465,-0.068 0.119512,-0.1519 0.119512,-0.1907 0,-0.055 0.01935,-0.068 0.09367,-0.068 0.07433,0 0.09698,0.016 0.116328,0.087 0.07114,0.3005 0.588005,0.4555 0.924008,0.2811 0.113022,-0.058 0.255309,-0.2293 0.255309,-0.307 0,-0.048 0.02265,-0.061 0.106654,-0.061 0.09049,0 0.113144,0.019 0.168002,0.1357 0.03551,0.074 0.09698,0.1551 0.13898,0.181 l 0.07102,0.045 0,-0.3715 0,-0.3715 -0.148655,0.045 c -0.378003,0.1131 -1.027479,0.1583 -2.323124,0.1551 -1.28597,0 -1.828792,-0.035 -2.268143,-0.1518 l -0.171185,-0.045 0,0.3649 z m 1.179318,-1.0629997 c -0.31984,0.023 -0.882009,0.1098997 -1.030663,0.1583997 -0.36184,0.1228 -0.06135,0.2488 0.820661,0.3424 0.248818,0.026 0.82066,0.042 1.486299,0.042 1.082336,0 1.654301,-0.035 2.109815,-0.1324 0.252003,-0.052 0.345677,-0.094 0.345677,-0.1552 0,-0.09 -0.458821,-0.1971 -0.998336,-0.2326 l -0.316656,-0.023 0.01298,0.097 c 0.01286,0.071 0,0.1033 -0.04531,0.126 -0.03233,0.013 -0.378003,0.029 -0.768987,0.032 -0.546005,0 -0.726986,-0.01 -0.781844,-0.039 -0.06135,-0.039 -0.084,-0.035 -0.164818,0.01 -0.09049,0.052 -0.100164,0.052 -0.177675,0 -0.04531,-0.029 -0.09049,-0.097 -0.103348,-0.1518 -0.02277,-0.1065997 -10e-5,-0.1000997 -0.387798,-0.074 z m 0.387676,-2.3554 c -0.07433,0.035 -0.148655,0.1001 -0.171185,0.1486 -0.03882,0.091 -0.05816,0.937 -0.01935,1.034 0.0097,0.029 0.05167,0.052 0.09367,0.052 0.042,0 0.084,-0.023 0.09367,-0.052 0.0097,-0.029 0.01935,-0.2262 0.01935,-0.4362 0,-0.252 0.01286,-0.3813 0.03233,-0.3683 0.01935,0.013 0.03233,0.4038 0.03233,1.0662 0,0.9885997 0.0032,1.0499997 0.06135,1.0790997 0.042,0.023 0.07751,0.019 0.119512,-0.013 0.05498,-0.039 0.06135,-0.1001 0.07114,-0.6622997 0.0065,-0.4588 0.01935,-0.6138 0.04849,-0.6042 0.02914,0.01 0.042,0.1874 0.04849,0.6237 0.0065,0.5201997 0.01616,0.6170997 0.06135,0.6494997 0.02902,0.023 0.07102,0.029 0.103348,0.013 0.02914,-0.013 0.174492,-0.013 0.32633,0 0.281145,0.032 1.001642,0.01 1.037153,-0.032 0.01298,-0.013 -0.02265,-0.2874997 -0.07433,-0.6137997 -0.09049,-0.5525 -0.09049,-0.5945 -0.042,-0.6333 0.04849,-0.035 0.05498,-0.1099 0.05498,-0.5622 0,-0.5622 -0.0065,-0.5848 -0.171308,-0.672 -0.113021,-0.058 -0.668822,-0.061 -0.788334,-0.01 -0.06784,0.029 -0.100164,0.029 -0.155144,-0.01 -0.042,-0.026 -0.187471,-0.049 -0.36184,-0.055 -0.232533,-0.01 -0.316534,0 -0.420004,0.048 z m 0.759313,0.8143 c 0,0.3845 0.0032,0.4168 0.06465,0.4361 0.04849,0.016 0.05816,0.039 0.04518,0.1067 -0.0097,0.048 -0.05167,0.2843 -0.09049,0.5235 l -0.07751,0.4361 -0.0033,-0.979 c -0.0032,-0.6461 0.0065,-0.9725 0.02914,-0.9596 0.01935,0.013 0.03233,0.1938 0.03233,0.4362 z m 0.255186,-0.3652 c -0.0032,0.032 -0.01616,0.094 -0.02902,0.139 -0.02265,0.068 -0.02584,0.061 -0.02914,-0.058 -0.0032,-0.074 0.01298,-0.1356 0.02914,-0.1356 0.01935,0 0.03233,0.026 0.02902,0.055 z m 0.681803,0.081 c 0,0.1584 -0.01616,0.1519 -0.042,-0.016 -0.0097,-0.065 -0.0065,-0.1195 0.01286,-0.1195 0.01616,0 0.02914,0.061 0.02914,0.1356 z m -0.529965,-1.1018 c -0.113144,0.091 -0.116327,0.2585 -0.0032,0.3684 0.229349,0.2326 0.562168,-0.1195 0.339309,-0.3554 -0.0938,-0.10009999 -0.219676,-0.10339999 -0.336126,-0.013 z m -0.985356,0.016 c -0.03882,0.048 -0.06784,0.1195 -0.06784,0.1583 0,0.039 0.02902,0.1099 0.06784,0.1584 0.05167,0.065 0.09368,0.084 0.190655,0.084 0.09698,0 0.138981,-0.019 0.190655,-0.084 0.03882,-0.048 0.06784,-0.1196 0.06784,-0.1584 0,-0.039 -0.02914,-0.1098 -0.06784,-0.1583 -0.05167,-0.065 -0.09367,-0.084 -0.190655,-0.084 -0.09698,0 -0.138981,0.019 -0.190655,0.084 z"/>
</svg>
