<svg role="img" focusable="false" aria-hidden="true" xmlns="http://www.w3.org/2000/svg" viewBox="0 0 14 14" height="1em" width="1em">
  <path d="m 6.2486704,12.955024 c -3.222518,-0.4287 -5.53196606,-3.3355998 -5.206389,-6.5532998 0.269497,-2.6634 2.163615,-4.7566 4.807471,-5.3128 0.563277,-0.11839996 1.768582,-0.11869996 2.330745,0 2.3010786,0.4841 4.0265686,2.1188 4.6631626,4.4178 0.164647,0.5946 0.195801,2.0747 0.05683,2.6998 -0.42119,1.8947998 -1.614665,3.4067998 -3.3255166,4.2131998 -1.010022,0.4761 -2.26068,0.6775 -3.326303,0.5357 z m 1.980682,-1.2481 c 0.901024,-0.2431 1.705915,-0.732 2.3429186,-1.4231 0.504213,-0.5469998 0.793401,-1.0200998 1.026874,-1.6798998 0.500858,-1.4153 0.333287,-2.9039 -0.476867,-4.236 -0.102605,-0.1687 -0.210048,-0.2982 -0.238762,-0.2878 -0.02871,0.01 -0.210126,0.17 -0.403139,0.3547 -0.193012,0.1847 -0.370378,0.3358 -0.394144,0.3358 -0.09345,0 -1.0549826,-0.6102 -1.0549826,-0.6695 0,-0.035 0.208694,-0.2737 0.463764,-0.5311 l 0.463763,-0.4681 -0.159918,-0.1242 c -0.258517,-0.2008 -1.149871,-0.6134 -1.599184,-0.7403 -0.63645,-0.1798 -1.848603,-0.1557 -2.534275,0.05 -1.33225,0.4002 -2.528033,1.4398 -3.088002,2.6846 -0.559095,1.2429 -0.569094,2.7234 -0.02672,3.956 0.180014,0.4091 0.52201,0.9597 0.596085,0.9597 0.02813,0 0.224364,-0.1792 0.436077,-0.3983 0.359097,-0.3715 0.392785,-0.3915 0.501903,-0.298 0.06433,0.055 0.304072,0.2104 0.532756,0.345 0.228683,0.1346 0.428646,0.2552 0.444361,0.2679 0.01572,0.013 -0.200174,0.2538998 -0.479755,0.5357998 l -0.508329,0.5125 0.159919,0.1234 c 0.437754,0.3377 1.335288,0.7059 2.029606,0.8327 0.424701,0.078 1.508832,0.021 1.966047,-0.1021 z m -2.69862,-2.4228998 c -0.605959,-0.351 -1.12371,-0.6826 -1.150559,-0.7367 -0.04907,-0.099 -0.135821,-2.7535 -0.08998,-2.7533 0.11239,0 2.206725,1.2751 2.280801,1.3882 0.07903,0.1206 0.093,0.3765 0.07878,1.4433 l -0.01729,1.2968 -1.101742,-0.6383 z m 1.837367,-0.6741 c 0,-1.174 0.01316,-1.3459 0.111943,-1.4627 0.09444,-0.1115 1.948274,-1.2244 2.203186,-1.3225 0.06787,-0.026 0.07761,0.2211 0.05166,1.3106 -0.03167,1.3297 -0.03355,1.3444 -0.191902,1.4966 -0.08796,0.085 -0.613287,0.4135 -1.167404,0.7311 l -1.007486,0.5773 0,-1.3304 z m -0.575706,-2.1826 c -0.174238,-0.071 -2.17489,-1.2128 -2.17489,-1.2414 0,-0.01 0.488889,-0.297 1.086419,-0.6386 0.814475,-0.4656 1.143407,-0.6211 1.314082,-0.6211 0.169403,0 0.476597,0.1432 1.200414,0.5595 0.535013,0.3077 1.023651,0.5943 1.085864,0.6369 0.0986,0.068 -0.02448,0.1561 -0.959511,0.6903 -1.144451,0.6538 -1.302126,0.7162 -1.552378,0.6144 z"/>
</svg>
