<svg role="img" focusable="false" aria-hidden="true" xmlns="http://www.w3.org/2000/svg" viewBox="0 0 14 14" height="1em" width="1em">
  <path d="m 7.9475,6.3115 0.685,-1.027 C 8.8075,5.022 9.1625,4.951 9.425,5.126 9.687,5.301 9.7585,5.656 9.583,5.9185 L 8.8985,6.9455 C 8.7235,7.208 8.3685,7.279 8.106,7.104 7.8435,6.929 7.7725,6.574 7.9475,6.3115 Z M 7.007,5.9695 C 7.2695,6.145 7.625,6.0735 7.8005,5.811 L 8.492,4.774 C 8.668,4.511 8.5965,4.1555 8.3335,3.98 8.071,3.8045 7.7155,3.876 7.54,4.139 L 6.8485,5.176 C 6.6725,5.439 6.7435,5.7945 7.007,5.9695 Z m 3.5035,1.9745 -0.606,0.9085 c -0.161,0.2415 -0.0955,0.568 0.146,0.729 0.2415,0.161 0.568,0.0955 0.729,-0.146 L 11.385,8.527 C 11.5465,8.2855 11.481,7.959 11.2395,7.798 10.998,7.637 10.6715,7.702 10.5105,7.944 Z M 8.975,7.524 C 8.8,7.7855 8.871,8.1395 9.1325,8.314 9.3945,8.4885 9.748,8.418 9.9225,8.156 l 0.656,-0.984 C 10.7535,6.91 10.6825,6.5565 10.4205,6.382 10.159,6.2075 9.8055,6.278 9.631,6.54 L 8.975,7.524 Z M 11.8075,13 c -0.3045,0 -0.61,-0.116 -0.843,-0.349 L 7.4535,9.079 C 7.9975,8.4775 7.7335,7.4395 6.8625,7.285 L 5.3255,7.012 4.7965,6.483 C 4.496,6.183 4.083,6.025 3.66,6.0475 2.969,6.0845 2.2665,5.839 1.739,5.3115 1.246,4.818 1,4.172 1,3.5255 1,3.2455 1.046,2.9655 1.1385,2.698 l 1.607,1.607 C 3.372,4.342 4.3415,3.3725 4.3045,2.7455 L 2.698,1.1385 C 2.9655,1.046 3.245,1 3.525,1 4.1715,1 4.818,1.2465 5.311,1.7395 5.8385,2.267 6.0835,2.9695 6.047,3.6605 6.0245,4.0835 6.1825,4.4975 6.4825,4.797 L 6.496,4.8105 C 5.8745,5.852 6.7125,6.5655 7.399,6.539 7.2755,7.1295 7.9075,7.7445 8.45,7.7445 8.3155,8.2645 8.718,8.807 9.3445,8.93 9.092,9.841 10.4735,10.8135 11.273,9.5875 l 1.378,1.3775 C 12.884,11.198 13,11.503 13,11.808 13,12.466 12.467,13 11.8075,13 Z M 12.25,11.75 c 0,-0.276 -0.224,-0.5 -0.5005,-0.5 -0.276,0 -0.5,0.224 -0.5,0.5 0,0.276 0.224,0.5 0.5,0.5 0.2765,0 0.5005,-0.224 0.5005,-0.5 z M 7.4345,9.7805 C 7.101,9.4365 6.584,9.411 5.6425,9.3485 5.4995,9.339 5.4115,9.431 5.4,9.57 l -0.229,2.104 c 0,0 1.397,0.944 1.97,1.326 0.532,-0.9605 1.3495,-1.0185 1.9605,-1.501 L 7.4345,9.7805 Z m -0.811,-0.846 c 0.7285,0 0.839,-1.032 0.1515,-1.154 C 4.1895,7.321 4.3255,7.336 4.2405,7.336 3.923,7.336 3.6475,7.5625 3.586,7.875 L 3.363,9.848 c -0.0305,0.3155 0.0725,0.588 0.3165,0.766 0.2435,0.177 1.013,0.7245 1.013,0.7245 0,0 0.164,-1.4175 0.21,-1.8255 0.0465,-0.4075 0.2755,-0.689 0.712,-0.6675 0.046,0.002 0.9295,0.089 1.009,0.089 z"/>
</svg>
