<svg role="img" focusable="false" aria-hidden="true" xmlns="http://www.w3.org/2000/svg" viewBox="0 0 14 14" height="1em" width="1em">
  <path d="M 1.1499,10.9766 C 0.99662,10.8886 1.00208,11.0276 1.00096,7.1818 L 0.99996,3.53 1.08276,3.3651 C 1.17026,3.1908 1.31622,3.0696 1.50317,3.016 c 0.15403,-0.044 10.83963,-0.044 10.99366,0 0.18695,0.054 0.33292,0.1748 0.42041,0.3491 l 0.0828,0.1649 0,3.646 0,3.646 -0.0974,0.098 -0.0974,0.097 -5.79423,-10e-4 c -4.29528,-8e-4 -5.81148,-0.011 -5.8609,-0.039 z m 11.27559,-3.9264 0.009,-3.3833 -0.071,-0.058 c -0.0669,-0.055 -0.37205,-0.058 -5.35984,-0.058 -4.73291,0 -5.29667,0.01 -5.36297,0.052 l -0.0741,0.052 0,3.3759 c 0,1.8567 0.01,3.3859 0.0223,3.3982 0.0123,0.012 2.45353,0.019 5.425,0.014 l 5.40268,-0.01 0.009,-3.3834 z m -9.89226,2.3193 0,-0.3142 L 3.0249,8.8631 C 3.29532,8.7574 3.57095,8.6373 3.63741,8.5961 3.79178,8.5001 3.8999,8.3631 3.8999,8.2623 3.8999,8.2193 3.8249,8.026 3.73323,7.8336 3.55097,7.4509 3.52519,7.2804 3.61657,7.0618 3.64677,6.9898 3.66687,6.835 3.66727,6.6712 3.66827,6.1903 3.83192,5.9879 4.27515,5.9178 c 0.42021,-0.066 0.79788,0.043 0.95187,0.2756 0.0759,0.1147 0.0909,0.1812 0.10967,0.4865 0.012,0.1945 0.0386,0.4061 0.0591,0.4701 0.0685,0.2135 0.045,0.3205 -0.1537,0.7008 l -0.19107,0.3655 0.0622,0.1155 c 0.0877,0.1629 0.25731,0.2634 0.78031,0.4623 l 0.45631,0.1735 0.009,0.358 0.009,0.358 -1.91779,0 -1.9178,0 0,-0.3141 z m 4.5,-0.053 0,-0.3 2.21667,0 2.21667,0 0,0.3 0,0.3 -2.21667,0 -2.21667,0 0,-0.3 z m 0,-1.3333 0,-0.3 0.7,0 0.7,0 0,0.3 0,0.3 -0.7,0 -0.7,0 0,-0.3 z m 1.93334,0 0,-0.3 1.25,0 1.25,0 0,0.3 0,0.3 -1.25,0 -1.25,0 0,-0.3 z m -2.03334,-1.3334 0,-0.3 2.26667,0 2.26667,0 0,0.3 0,0.3 -2.26667,0 -2.26667,0 0,-0.3 z m -4.4,-1.7833 0,-0.55 3.68334,0 3.68333,0 0,0.55 0,0.55 -3.68333,0 -3.68334,0 0,-0.55 z m 7.83334,0 0,-0.55 0.55,0 0.55,0 0,0.55 0,0.55 -0.55,0 -0.55,0 0,-0.55 z"/>
</svg>
