<svg role="img" focusable="false" aria-hidden="true" xmlns="http://www.w3.org/2000/svg" viewBox="0 0 14 14" height="1em" width="1em">
  <path fill="red" d="M3.57143 10.428575q0 .53571-.375.91071t-.91072.375q-.53571 0-.91071-.375T1 10.428575q0-.53572.375-.91072t.91071-.375q.53572 0 .91072.375t.375.91072zm0-3.42858q0 .53572-.375.91072t-.91072.375q-.53571 0-.91071-.375T1 6.999995q0-.53571.375-.91071t.91071-.375q.53572 0 .91072.375t.375.91071zm0-3.42857q0 .53572-.375.91072t-.91072.375q-.53571 0-.91071-.375T1 3.571425q0-.53571.375-.91071t.91071-.375q.53572 0 .91072.375t.375.91071z"/>
  <path d="M13 9.785715v1.28571q0 .0871-.0636.15067-.0636.0636-.15067.0636H4.64288q-.0871 0-.15067-.0636-.0636-.0636-.0636-.15067v-1.28571q0-.0871.0636-.15067.0636-.0636.15067-.0636h8.14285q.0871 0 .15067.0636.0636.0636.0636.15067zm0-3.42857v1.28571q0 .0871-.0636.15067-.0636.0636-.15067.0636H4.64288q-.0871 0-.15067-.0636-.0636-.0636-.0636-.15067v-1.28571q0-.0871.0636-.15067.0636-.0636.15067-.0636h8.14285q.0871 0 .15067.0636.0636.0636.0636.15067zm0-3.42857v1.28571q0 .087-.0636.15067-.0636.0636-.15067.0636H4.64288q-.0871 0-.15067-.0636-.0636-.0636-.0636-.15067v-1.28571q0-.0871.0636-.15067.0636-.0636.15067-.0636h8.14285q.0871 0 .15067.0636.0636.0636.0636.15067z"/>
</svg>
