<svg role="img" focusable="false" aria-hidden="true" xmlns="http://www.w3.org/2000/svg" viewBox="0 0 14 14" height="1em" width="1em">
  <path d="m 13,6.181818 v 1.636364 q 0,0.340909 -0.23864,0.579546 -0.23863,0.238635 -0.57954,0.238635 H 8.63636 v 3.545455 q 0,0.34091 -0.23863,0.579545 Q 8.15909,13 7.81818,13 H 6.18182 Q 5.84091,13 5.60227,12.761363 5.36364,12.522728 5.36364,12.181818 V 8.636363 H 1.818182 q -0.340909,0 -0.579546,-0.238635 Q 1,8.159091 1,7.818182 V 6.181818 Q 1,5.840909 1.238636,5.602272 1.477273,5.363637 1.818182,5.363637 H 5.36364 V 1.818182 q 0,-0.34091 0.23863,-0.579545 Q 5.84091,1 6.18182,1 h 1.63636 q 0.34091,0 0.57955,0.238637 0.23863,0.238635 0.23863,0.579545 v 3.545455 h 3.54546 q 0.34091,0 0.57954,0.238635 Q 13,5.840909 13,6.181818 z"/>
</svg>
