<svg role="img" focusable="false" aria-hidden="true" xmlns="http://www.w3.org/2000/svg" viewBox="0 0 14 14" height="1em" width="1em">
  <path d="m 9.547745,12.976828 c -0.66996,-0.1125 -1.21486,-0.3916 -1.67879,-0.8597 -0.41456,-0.4183 -0.68674,-0.9284 -0.81406,-1.5257 -0.0313,-0.1468 -0.0425,-0.302 -0.0425,-0.587 0,-0.2849005 0.0113,-0.4402005 0.0425,-0.5869005 0.12896,-0.605 0.40178,-1.1123 0.82662,-1.5371 0.42484,-0.4249 0.93214,-0.6977 1.53709,-0.8267 0.27838,-0.059 0.89559,-0.059 1.17398,0 0.60495,0.129 1.11225,0.4018 1.53709,0.8267 0.42484,0.4248 0.69765,0.9321 0.82662,1.5371 0.0313,0.1467 0.0425,0.302 0.0425,0.5869005 0,0.285 -0.0113,0.4402 -0.0425,0.587 -0.12897,0.605 -0.40178,1.1123 -0.82662,1.5371 -0.4164,0.4164 -0.93085,0.6958 -1.51361,0.8219 -0.24147,0.052 -0.82803,0.067 -1.06832,0.026 z m 0.99788,-0.788 c 0.11523,-0.028 0.30873,-0.1028 0.45785,-0.177 0.45903,-0.2285 0.7809,-0.5503 1.00951,-1.0095 0.17836,-0.3582 0.23277,-0.5914 0.23277,-0.9979 0,-0.4064005 -0.0544,-0.6396005 -0.23277,-0.9978005 -0.22859,-0.4591 -0.55043,-0.781 -1.00951,-1.0096 -0.35819,-0.1783 -0.59146,-0.2327 -0.99788,-0.2327 -0.40642,0 -0.63969,0.054 -0.99788,0.2327 -0.45909,0.2286 -0.78093,0.5505 -1.00952,1.0096 -0.17835,0.3582 -0.23276,0.5914 -0.23276,0.9978005 0,0.4065 0.0544,0.6397 0.23276,0.9979 0.32288,0.6485 0.90219,1.0834 1.62562,1.2206 0.24046,0.046 0.65676,0.03 0.92181,-0.034 z m -1.06949,-1.4656 c -0.0945,-0.042 -0.19315,-0.1616 -0.21041,-0.2557 -0.008,-0.042 -0.0107,-0.4473 -0.007,-0.9016005 0.007,-0.7918 0.009,-0.8287 0.0555,-0.8908 0.092,-0.1232 0.16706,-0.1616 0.31553,-0.1616 0.14846,0 0.22347,0.038 0.31552,0.1616 0.0456,0.061 0.0488,0.101 0.0554,0.696 l 0.007,0.6312005 0.63121,0.01 c 0.59504,0.01 0.63492,0.01 0.69599,0.055 0.12319,0.092 0.16161,0.1671 0.16161,0.3155 0,0.1485 -0.0384,0.2235 -0.16163,0.3155 -0.0624,0.047 -0.0972,0.049 -0.92599,0.054 -0.68021,0 -0.87623,0 -0.93279,-0.026 z m -7.91144,0 c -0.2076,-0.065 -0.3797,-0.2145 -0.48939,-0.4243 l -0.0741,-0.1417 0,-3.5337005 0,-3.5337 0.0687,-0.1356 c 0.0814,-0.1609 0.25355,-0.3295 0.40753,-0.3992 0.0858,-0.039 0.16972,-0.052 0.37236,-0.059 l 0.2616,-0.01 0.01,0.2783 c 0.0117,0.3411 0.0588,0.4669 0.23869,0.637 0.15056,0.1424 0.30553,0.2049 0.5082,0.2049 0.20268,0 0.35765,-0.062 0.50821,-0.2049 0.17946,-0.1697 0.22701,-0.2962 0.23862,-0.6345 l 0.009,-0.2759 2.24909,0 2.24909,0 0.009,0.2759 c 0.0116,0.3383 0.0591,0.4648 0.23861,0.6345 0.15056,0.1424 0.30554,0.2049 0.50821,0.2049 0.20267,0 0.35765,-0.062 0.50821,-0.2049 0.17984,-0.1701 0.22699,-0.2959 0.23869,-0.637 l 0.01,-0.2783 0.2616,0.01 c 0.20263,0.01 0.28656,0.021 0.37235,0.059 0.15398,0.07 0.3261,0.2383 0.40754,0.3992 l 0.0687,0.1356 0.007,1.579 0.007,1.579 -0.37646,0 -0.37646,0 0,-0.7513 0,-0.7514 -4.1324,0 -4.1324,0 0,2.6016 c 0,1.9921 0.007,2.6081 0.0282,2.6297 0.0215,0.021 0.55412,0.028001 2.25404,0.028001 l 2.22586,0 0,0.3757 0,0.3757 -2.29513,0 c -1.77536,0 -2.31639,-0.01 -2.38904,-0.031 z m 0.92744,-2.2214005 0,-0.7513 0.75135,0 0.75134,0 0,0.7513 0,0.7514 -0.75134,0 -0.75135,0 0,-0.7514 z m 2.25404,0 0,-0.7513 0.75134,0 0.75135,0 0,0.7513 0,0.7514 -0.75135,0 -0.75134,0 0,-0.7514 z m -2.25404,-2.254 0,-0.7513 0.75135,0 0.75134,0 0,0.7513 0,0.7514 -0.75134,0 -0.75135,0 0,-0.7514 z m 2.25404,0 0,-0.7513 0.75134,0 0.75135,0 0,0.7513 0,0.7514 -0.75135,0 -0.75134,0 0,-0.7514 z m 2.25404,0 0,-0.7513 0.75134,0 0.75135,0 0,0.7513 0,0.7514 -0.75135,0 -0.75134,0 0,-0.7514 z m -4.28619,-3.0372 c -0.095,-0.043 -0.19323,-0.1629 -0.21041,-0.2566 -0.008,-0.042 -0.0107,-0.4473 -0.007,-0.9016 0.007,-0.7918 0.009,-0.8286 0.0555,-0.8907 0.092,-0.1232 0.16705,-0.1617 0.31552,-0.1617 0.14849,0 0.22354,0.038 0.31553,0.1617 0.0469,0.063 0.0484,0.093 0.0484,0.9536 0,0.861 -0.002,0.8908 -0.0484,0.9536 -0.0266,0.036 -0.076,0.085 -0.10978,0.1107 -0.0777,0.058 -0.2645,0.074 -0.35953,0.031 z m 6.01077,0 c -0.095,-0.043 -0.19323,-0.1629 -0.21041,-0.2566 -0.008,-0.042 -0.0107,-0.4473 -0.007,-0.9016 0.007,-0.7918 0.009,-0.8286 0.0555,-0.8907 0.092,-0.1232 0.16705,-0.1617 0.31552,-0.1617 0.14849,0 0.22353,0.038 0.31552,0.1617 0.0469,0.063 0.0484,0.093 0.0484,0.9536 0,0.861 -0.002,0.8908 -0.0484,0.9536 -0.0266,0.036 -0.076,0.085 -0.10978,0.1107 -0.0777,0.058 -0.26449,0.074 -0.35952,0.031 z"/>
</svg>
