<svg aria-hidden="true" xmlns="http://www.w3.org/2000/svg" viewBox="0 0 14 14" height="1em" width="1em">
  <path d="M5.2 7a2.4 2.4 0 1 0 0-4.8 2.4 2.4 0 0 0 0 4.8zm1.68.6h-.313a3.267 3.267 0 0 1-2.734 0H3.52A2.52 2.52 0 0 0 1 10.12v.78a.9.9 0 0 0 .9.9h6.6a.9.9 0 0 0 .9-.9v-.78A2.52 2.52 0 0 0 6.88 7.6zm6.056-2.408-.521-.526a.223.223 0 0 0-.315-.002l-1.965 1.95-.853-.86a.223.223 0 0 0-.315-.001l-.527.523a.222.222 0 0 0-.002.315L9.97 8.134a.223.223 0 0 0 .315.002l2.65-2.629a.224.224 0 0 0 .001-.315z"/>
</svg>
