<svg aria-hidden="true" xmlns="http://www.w3.org/2000/svg" viewBox="0 0 14 14" height="1em" width="1em">
  <path d="m7.947 6.311.685-1.027a.572.572 0 0 1 .951.635l-.684 1.027a.572.572 0 0 1-.951-.635Zm-.94-.341a.572.572 0 0 0 .794-.159l.691-1.037a.572.572 0 1 0-.952-.635l-.692 1.037a.571.571 0 0 0 .159.793Zm3.503 1.974-.605.908a.526.526 0 0 0 .875.583l.605-.908a.525.525 0 1 0-.874-.583Zm-1.535-.42a.57.57 0 1 0 .947.632l.656-.984a.569.569 0 1 0-.947-.632l-.656.984ZM11.807 13a1.19 1.19 0 0 1-.843-.349l-3.51-3.572c.543-.602.28-1.64-.591-1.794l-1.538-.273-.529-.529c-.3-.3-.713-.458-1.136-.435a2.518 2.518 0 0 1-1.921-.737 2.533 2.533 0 0 1-.6-2.613l1.607 1.607c.626.037 1.595-.932 1.558-1.56L2.699 1.138a2.53 2.53 0 0 1 2.613.602 2.52 2.52 0 0 1 .736 1.92c-.022.423.136.837.436 1.137l.013.014c-.622 1.041.216 1.755.903 1.728-.123.59.508 1.206 1.051 1.206-.134.52.268 1.062.895 1.185-.253.911 1.128 1.883 1.928.658l1.378 1.377A1.192 1.192 0 0 1 11.807 13Zm.443-1.25a.5.5 0 1 0-1 0 .5.5 0 0 0 1 0zM7.434 9.78c-.333-.343-.85-.369-1.792-.431-.143-.01-.23.082-.242.221l-.229 2.104s1.397.944 1.97 1.326c.532-.96 1.35-1.018 1.96-1.501L7.434 9.78Zm-.81-.845c.728 0 .839-1.033.151-1.155-2.586-.459-2.45-.444-2.535-.444a.669.669 0 0 0-.654.539l-.223 1.973c-.03.316.072.588.317.766.243.177 1.012.725 1.012.725l.21-1.826c.047-.407.276-.689.712-.667.046.002.93.089 1.01.089z"/>
</svg>
