<svg role="img" focusable="false" aria-hidden="true" xmlns="http://www.w3.org/2000/svg" viewBox="0 0 14 14" height="1em" width="1em">
  <path d="m 1,7.0001 0,-2.5716 6,0 6,0 0,2.5716 0,2.5714 -6,0 -6,0 0,-2.5714 z m 11.14286,0 0,-1.7144 -5.14286,0 -5.14286,0 0,1.7144 0,1.7143 5.14286,0 5.14286,0 0,-1.7143 z M 2.28571,8.0715 c 0,-0.2144 0,-0.2144 0.21429,-0.2144 l 0.21429,0 0,-0.857 0,-0.8572 -0.21429,0 c -0.21429,0 -0.21429,0 -0.21429,-0.2144 l 0,-0.2141 0.64286,0 0.64286,0 0,0.2141 c 0,0.2144 0,0.2144 -0.21429,0.2144 l -0.21428,0 0,0.8572 0,0.857 0.21428,0 c 0.21429,0 0.21429,0 0.21429,0.2144 l 0,0.2143 -0.64286,0 -0.64286,0 0,-0.2143 z"/>
</svg>
