<svg role="img" focusable="false" aria-hidden="true" xmlns="http://www.w3.org/2000/svg" viewBox="0 0 14 14" height="1em" width="1em">
  <path d="m 11.2,5.2 0,1.2 0.6,0 0,1.2 -0.6,0 0,1.2 -9,0 0,-3.6 9,0 M 11.5,4 1.9,4 C 1.4029375,4 1,4.40294 1,4.9 L 1,9.1 C 1,9.59706 1.4029375,10 1.9,10 l 9.6,0 c 0.497063,0 0.9,-0.40294 0.9,-0.9 l 0,-0.3 0.15,0 C 12.798531,8.8 13,8.59853 13,8.35 l 0,-2.7 C 13,5.40147 12.798531,5.2 12.55,5.2 l -0.15,0 0,-0.3 C 12.4,4.40294 11.997063,4 11.5,4 Z m -2.7,1.8 -6,0 0,2.4 6,0 0,-2.4 z"/>
</svg>
