<svg role="img" focusable="false" aria-hidden="true" xmlns="http://www.w3.org/2000/svg" viewBox="0 0 14 14" height="1em" width="1em">
  <path d="m 10.49091,5.581818 v 2.836364 q 0,0.272727 -0.19091,0.463636 -0.19091,0.19091 -0.46364,0.19091 -0.27272,0 -0.46363,-0.19091 Q 9.18182,8.690909 9.18182,8.418182 v -2.4 H 8.74545 v 6.218181 Q 8.74545,12.55 8.52045,12.775 8.29545,13 7.98182,13 7.66818,13 7.44318,12.775 7.21818,12.55 7.21818,12.236363 V 9.072728 H 6.78182 v 3.163635 Q 6.78182,12.55 6.55682,12.775 6.33182,13 6.01818,13 5.70454,13 5.47954,12.775 5.25454,12.55 5.25454,12.236363 V 6.018182 H 4.81818 v 2.4 q 0,0.272727 -0.19091,0.463636 -0.19091,0.19091 -0.46363,0.19091 -0.27273,0 -0.46364,-0.19091 Q 3.50909,8.690909 3.50909,8.418182 V 5.581818 q 0,-0.545455 0.38182,-0.927272 0.38182,-0.381819 0.92727,-0.381819 h 4.36364 q 0.54545,0 0.92727,0.381819 0.38182,0.381817 0.38182,0.927272 z M 8.52727,2.527272 q 0,0.634091 -0.44659,1.080683 Q 7.63409,4.054546 7,4.054546 q -0.63409,0 -1.08068,-0.446591 -0.44659,-0.446592 -0.44659,-1.080683 0,-0.63409 0.44659,-1.080681 Q 6.36591,1 7,1 7.63409,1 8.08068,1.446591 8.52727,1.893182 8.52727,2.527272 z"/>
</svg>
