<svg role="img" focusable="false" aria-hidden="true" xmlns="http://www.w3.org/2000/svg" viewBox="0 0 14 14" height="1em" width="1em">
  <path d="m 1.8737136,12.47613 c -0.153961,-0.154 -0.18275,-0.2211 -0.18275,-0.4259 0,-0.3887 0.338185,-0.6611 0.728261,-0.5865 0.07536,0.014 0.208387,0.098 0.295625,0.1848 0.276786,0.2768 0.200097,0.7728 -0.146914,0.9503 -0.235431,0.1204 -0.497421,0.074 -0.694222,-0.1227 z m 1.644752,-0.9504 c -0.513671,-0.2325 -0.7754,-0.6302 -0.7754,-1.1781 0,-1.1520001 1.357192,-1.7212001 2.168767,-0.9096001 0.251221,0.2512 0.378024,0.5563 0.378024,0.9096001 0,0.9148 -0.952967,1.5486 -1.771391,1.1781 z m 2.585627,-1.9592001 c -0.569893,-0.1586 -1.073377,-0.5442 -1.564559,-1.1982 -0.121537,-0.1619 -0.148074,-0.1734 -0.281405,-0.1225 -0.250232,0.096 -0.804681,0.1271 -1.142788,0.065 -1.337131,-0.2448 -2.30633001,-1.5901 -2.08335,-2.8919 0.141212,-0.8244 0.822276,-1.7345 1.574405,-2.104 0.460342,-0.2262 1.058674,-0.3503 1.485385,-0.3082 l 0.33144,0.033 0.03793,-0.1757 c 0.14282,-0.6616 0.907393,-1.2815 1.819152,-1.475 0.432084,-0.092 1.066721,-0.064 1.573333,0.068 0.703977,0.1833 1.311662,0.6721 1.604001,1.29 0.111649,0.236 0.161109,0.2919 0.232282,0.2623 0.184447,-0.077 1.1240944,-0.093 1.4144054,-0.024 0.855002,0.2015 1.439642,0.7405 1.751698,1.6151 0.125185,0.3508 0.142908,0.4828 0.143935,1.0719 10e-4,0.595 -0.01563,0.7201 -0.145555,1.0926 -0.182725,0.524 -0.420688,0.8977 -0.795171,1.2488 -0.361957,0.3393 -0.764823,0.5388 -1.314707,0.6509 -0.368644,0.075 -0.504605,0.078 -1.0042054,0.021 l -0.577834,-0.066 -0.416696,0.3357 c -0.229182,0.1847 -0.573914,0.4101 -0.76607,0.501 -0.318676,0.1507 -0.40369,0.1664 -0.967501,0.1786 -0.422096,0.01 -0.710096,-0.012 -0.908127,-0.067 z"/>
</svg>
