<svg role="img" focusable="false" aria-hidden="true" xmlns="http://www.w3.org/2000/svg" viewBox="0 0 14 14" height="1em" width="1em">
  <path d="M 1.4801,9.02235 C 1.30548,8.93435 1.20859,8.83735 1.12054,8.66275 1.00456,8.43275 1,8.36995 1,6.99995 c 0,-1.3699 0.005,-1.4327 0.12054,-1.6627 0.088,-0.1746 0.18494,-0.2715 0.35956,-0.3596 0.23,-0.116 0.29284,-0.1205 1.66276,-0.1205 1.36992,0 1.43276,0 1.66275,0.1205 0.17462,0.088 0.27151,0.185 0.35957,0.3596 0.11598,0.23 0.12053,0.2928 0.12053,1.6627 0,1.37 -0.005,1.4328 -0.12053,1.6628 -0.0881,0.1746 -0.18495,0.2715 -0.35957,0.3596 -0.22999,0.1159 -0.29283,0.1205 -1.66275,0.1205 -1.36992,0 -1.43276,0 -1.66276,-0.1205 z m 2.94847,-2.0224 0,-1.2857 -1.28571,0 -1.28572,0 0,1.2857 0,1.2858 1.28572,0 1.28571,0 0,-1.2858 z m 1.71429,0 0,-1.2857 3.42857,0 3.42857,0 0,1.2857 0,1.2858 -3.42857,0 -3.42857,0 0,-1.2858 z"/>
</svg>
