<svg role="img" focusable="false" aria-hidden="true" xmlns="http://www.w3.org/2000/svg" viewBox="0 0 14 14" height="1em" width="1em">
  <path d="m 10.429041,6.143327 c -0.638049,0 -1.186958,0.352334 -1.481586,0.869341 -0.07694,-0.0056 -0.152475,-0.0122 -0.2327,-0.0122 -1.755571,0 -3.421065,-1.337086 -4.0290875,-2.992728 0.3654703,-0.314333 0.6000469,-0.774572 0.6000469,-1.293455 0,-0.946282 -0.7680037,-1.714286 -1.7142857,-1.714286 -0.9462819,0 -1.7142857,0.768004 -1.7142857,1.714286 0,0.632418 0.346235,1.179451 0.8571429,1.476894 l 0,5.618109 C 2.203378,10.106264 1.857143,10.653297 1.857143,11.285715 c 0,0.945813 0.7680038,1.714286 1.7142857,1.714286 0.946282,0 1.7142857,-0.768473 1.7142857,-1.714286 0,-0.632887 -0.346235,-1.179451 -0.8571428,-1.476425 l 0,-3.084213 c 1.1273751,1.192588 2.6835564,1.98921 4.2857144,1.98921 0.08539,0 0.155759,-0.0056 0.2327,-0.0084 0.296505,0.514661 0.845414,0.865588 1.481586,0.865588 0.945812,0 1.714285,-0.768473 1.714285,-1.714286 0,-0.945813 -0.768473,-1.714286 -1.714285,-1.714286 z m -6.8571431,6 c -0.4729064,0 -0.8571429,-0.383298 -0.8571429,-0.857143 0,-0.472906 0.3842365,-0.857142 0.8571429,-0.857142 0.4743138,0 0.8571428,0.384236 0.8571428,0.857142 0,0.473845 -0.382829,0.857143 -0.8571428,0.857143 z m 0,-8.571897 c -0.4729064,0 -0.8571429,-0.382829 -0.8571429,-0.857143 0,-0.474314 0.3842365,-0.857143 0.8571429,-0.857143 0.4743138,0 0.8571428,0.382829 0.8571428,0.857143 0,0.474314 -0.382829,0.857143 -0.8571428,0.857143 z m 6.8571431,5.143326 c -0.472907,0 -0.857143,-0.383298 -0.857143,-0.857143 0,-0.473845 0.384236,-0.857143 0.857143,-0.857143 0.473844,0 0.857143,0.382829 0.857143,0.857143 0,0.474314 -0.383299,0.857143 -0.857143,0.857143 z"/>
</svg>
