<svg role="img" focusable="false" aria-hidden="true" xmlns="http://www.w3.org/2000/svg" viewBox="0 0 14 14" height="1em" width="1em">
  <path d="M 5.8837197,13 C 5.4213843,13 5.0465045,12.625 5.0465045,12.16278 l 0,-0.83719 -2.2325413,0 c -0.462355,0 -0.8372152,-0.37502 -0.8372152,-0.83722 l 0,-7.5348706 c 0,-0.46234 0.3748602,-0.83722 0.8372152,-0.83722 l 0.9767282,0 c 0,0 0.2790849,-0.0332 0.2790849,-0.4186 0,-0.38536 0.4518376,-0.69768003 0.8371956,-0.69768003 l 2.2325609,0 c 0.3850833,0 0.8369209,0.45145003 0.8371956,0.83667003 l 0,-0.13832 c 2.943e-4,0.38467 0.2790848,0.41793 0.2790848,0.41793 l 0.9767282,0 c 0.4622177,0 0.8372156,0.37486 0.8372156,0.83722 l 0,1.95349 1.953495,1.95348 0,5.3023106 C 12.023252,12.625 11.64851,13 11.186037,13 l -5.3023173,0 z m 0,-8.0930306 0,7.2558006 5.3023173,0 0,-3.9069806 -3.0697564,0 0,-3.34882 -2.2325609,0 z m 5.3023173,2.51163 -2.2325412,-2.23256 0,2.23256 2.2325412,0 z m -6.8371955,-4.18606 3.3488413,0 c 0,0 -0.2790848,-0.3123 -0.2790848,-0.69766 0,-0.38538 -0.3124424,-0.69768 -0.6976827,-0.69768 l -1.395326,0 c -0.3853776,0 -0.6976826,0.3123 -0.6976826,0.69768 0,0.38536 -0.2790652,0.69766 -0.2790652,0.69766 z"/>
</svg>
