<svg role="img" focusable="false" aria-hidden="true" xmlns="http://www.w3.org/2000/svg" viewBox="0 0 14 14" height="1em" width="1em">
  <path d="M2.99999994 11.85714293V2.14285707c0-.62857144.51428572-1.14285716 1.14285716-1.14285716h5.7142858c.62857144 0 1.14285716.51428572 1.14285716 1.14285716v9.71428586c0 .62857144-.51428572 1.14285716-1.14285716 1.14285716H4.1428571c-.62857144 0-1.14285716-.51428572-1.14285716-1.14285716z"/>
  <path fill="#f3e5f5" d="M9.8571429 1.85714278H4.1428571c-.17142857 0-.28571429.11428572-.28571429.28571429v9.71428586c0 .17142857.11428572.28571429.28571429.28571429h5.7142858c.17142857 0 .28571429-.11428572.28571429-.28571429V2.14285707c0-.17142857-.11428572-.28571429-.28571429-.28571429z"/>
  <path fill="#9c27b0" d="M4.7428571 7.85714287L6.42857143 9.8571429l1.68571431-2.00000003z"/>
  <path fill="#9c27b0" d="M7.57142858 4.71428568c-.94285716 0-1.71428574.77142858-1.71428574 1.71428574v1.71428574H7V6.42857142c0-.31428572.25714286-.57142858.57142858-.57142858s.57142858.25714286.57142858.57142858V7h1.14285716v-.57142858c0-.94285716-.77142858-1.71428574-1.71428574-1.71428574z"/>
</svg>
