<svg role="img" focusable="false" aria-hidden="true" xmlns="http://www.w3.org/2000/svg" viewBox="0 0 14 14" height="1em" width="1em">
  <path d="m 14,7 q 0,0.2031 -0.148437,0.3516 l -2,2 Q 11.703125,9.5 11.5,9.5 11.296875,9.5 11.148438,9.3516 11,9.2031 11,9 L 11,8 3,8 3,9 Q 3,9.2031 2.8515625,9.3516 2.703125,9.5 2.5,9.5 2.296875,9.5 2.1484375,9.3516 l -2,-2 Q 0,7.2031 0,7 0,6.7969 0.1484375,6.6484 l 2,-2 Q 2.296875,4.5 2.5,4.5 2.703125,4.5 2.8515625,4.6484 3,4.7969 3,5 l 0,1 8,0 0,-1 Q 11,4.7969 11.148438,4.6484 11.296875,4.5 11.5,4.5 q 0.203125,0 0.351563,0.1484 l 2,2 Q 14,6.7969 14,7 Z"/>
</svg>
