<svg role="img" focusable="false" aria-hidden="true" xmlns="http://www.w3.org/2000/svg" viewBox="0 0 14 14" height="1em" width="1em">
  <path d="M3.241575 12.764c.70786.1517 1.95506.236 2.88202.236 2.51124 0 4.63483-1.0955 4.63483-3.4213 0-1.3989-.82584-2.4944-2.44382-2.7472 1.38202-.3203 2.39326-1.2135 2.37641-2.7304C10.674115 2.2135 9.123595 1 6.275285 1c-.70787 0-2.08989.067-3.03371.1854V12.764m2.22472-6.6236V2.9213c.33708-.034.60674-.034.96067-.034 1.2809 0 1.9045.7248 1.9045 1.5843 0 1.0618-.8427 1.6685-2.27528 1.6685h-.58989m0 1.8034h.79213c1.41573 0 2.14045.5899 2.14045 1.6686 0 .9943-.96067 1.5-2.00561 1.5-.30338 0-.6236 0-.92697-.034V7.9432"/>
</svg>
