<svg role="img" focusable="false" aria-hidden="true" xmlns="http://www.w3.org/2000/svg" viewBox="0 0 14 14" height="1em" width="1em">
  <path d="M6.9994782 9.8694296q0-.2932301-.1633114-.5624592-.0083482-.0083481-.1262664-.1836601-.1179181-.1753119-.2076611-.3099264-.0897431-.1346146-.2040089-.3589721-.1142658-.2243576-.1711378-.41167-.032871-.1304404-.1711379-.1304404-.1382668 0-.1711378.1304404-.056872.1873124-.1711379.41167-.1142658.2243575-.2040088.3589721-.089743.1346145-.2076612.3099264-.1179181.175312-.1262663.1836601-.1633114.2692291-.1633114.5624592 0 .4320184.3057524.7377714.3057523.305752.737771.305752t.7377711-.305752q.3057524-.305753.3057524-.7377714zm4.1740938-1.0435235q0 1.7285969-1.2230095 2.9510839Q8.7275531 12.999478 6.9994782 13q-1.7280749.000522-2.9510843-1.22301-1.2230095-1.223531-1.2230095-2.9510839 0-1.182312.6605504-2.2420101.049046-.073568.5097611-.7377711.4607156-.6642026.82334-1.2308359.3626244-.5666332.8113395-1.4510193.4487151-.8843862.676725-1.6425059.073568-.2447063.2770554-.3829731.2034871-.1382669.4158441-.1387886.2123571-.00052184.4200182.1387886.2076612.1393104.2728814.3829731.2285316.7581197.6767251 1.6425059.4481933.8843861.8113394 1.4510193.3631462.5666333.82334 1.2308359.460194.6642027.509761.7377711.660551 1.0351753.660551 2.2420101z"/>
</svg>
