<svg role="img" focusable="false" aria-hidden="true" xmlns="http://www.w3.org/2000/svg" viewBox="0 0 14 14" height="1em" width="1em">
  <path d="M 3.8000778,1.800156 C 2.9170015,1.800156 2.200234,2.516924 2.200234,3.4 c 0,0.590279 0.3237166,1.100917 0.8001562,1.378723 l 0,5.243178 C 2.524419,10.299239 2.200234,10.809409 2.200234,11.400156 2.200234,12.282764 2.9170015,13 3.8000778,13 c 0.8830764,0 1.5998439,-0.717236 1.5998439,-1.599844 0,-0.590747 -0.3232481,-1.100917 -0.8001562,-1.378255 l 0,-5.243178 C 5.0766736,4.500917 5.3999217,3.990279 5.3999217,3.4 c 0,-0.883076 -0.7167675,-1.599844 -1.5998439,-1.599844 z m 0,10.399688 c -0.4413039,0 -0.8001561,-0.357915 -0.8001561,-0.800156 0,-0.441304 0.3583837,-0.800156 0.8001561,-0.800156 0.4427094,0 0.8001562,0.358383 0.8001562,0.800156 0,0.442241 -0.3574468,0.800156 -0.8001562,0.800156 z m 0,-7.999688 C 3.3587739,4.200156 2.9999217,3.842709 2.9999217,3.4 c 0,-0.442709 0.3583837,-0.800156 0.8001561,-0.800156 0.4427094,0 0.8001562,0.357447 0.8001562,0.800156 0,0.442709 -0.3574468,0.800156 -0.8001562,0.800156 z m 7.2000002,5.821745 0,-5.022057 c 0,-2.40609 -2.4,-2.4 -2.4,-2.4 l -0.800156,0 0,-1.599844 -2.4000003,2.4 2.4000003,2.4 0,-1.599844 c 0,0 0.333554,0 0.800156,0 0.705524,0 0.800156,0.800156 0.800156,0.800156 l 0,5.021589 c -0.47644,0.277338 -0.800156,0.786571 -0.800156,1.378255 0,0.882608 0.717236,1.599844 1.599844,1.599844 0.882608,0 1.599844,-0.717236 1.599844,-1.599844 0,-0.590747 -0.323717,-1.100917 -0.800157,-1.378255 z m -0.799688,2.177943 c -0.441304,0 -0.800156,-0.357915 -0.800156,-0.800156 0,-0.441304 0.358384,-0.800156 0.800156,-0.800156 0.442241,0 0.800156,0.358383 0.800156,0.800156 0,0.442241 -0.357915,0.800156 -0.800156,0.800156 z"/>
</svg>
