<svg role="img" focusable="false" aria-hidden="true" xmlns="http://www.w3.org/2000/svg" viewBox="0 0 14 14" height="1em" width="1em">
  <path fill="#f00" d="M3.35714 7q0 .0937-.0603.15402L1.368274 9.08259q-.06027.0603-.154018.0603-.08705 0-.15067-.0636Q1 9.01563 1 8.92858V5.07143q0-.087.06362-.15067.06362-.0636.15067-.0636.09375 0 .154018.0603l1.928566 1.92858q.0603.0603.0603.15401z"/>
  <path fill="#000" d="M13 10.21429V11.5q0 .0871-.0636.15067-.0636.0636-.15067.0636H1.214286q-.08705 0-.15067-.0636Q1 11.58706 1 11.5v-1.28571q0-.0871.06362-.15067.06362-.0636.15067-.0636h11.571424q.0871 0 .15067.0636.0636.0636.0636.15067zm0-2.57143v1.28572q0 .087-.0636.15067-.0636.0636-.15067.0636H5.5q-.0871 0-.15067-.0636-.0636-.0636-.0636-.15067V7.64286q0-.087.0636-.15067.0636-.0636.15067-.0636h7.28571q.0871 0 .15067.0636.0636.0636.0636.15067zm0-2.57143v1.28572q0 .087-.0636.15067-.0636.0636-.15067.0636H5.5q-.0871 0-.15067-.0636-.0636-.0636-.0636-.15067V5.07143q0-.087.0636-.15067.0636-.0636.15067-.0636h7.28571q.0871 0 .15067.0636.0636.0636.0636.15067zM13 2.5v1.28572q0 .0871-.0636.15067-.0636.0636-.15067.0636H1.214286q-.08705 0-.15067-.0636Q1 3.87277 1 3.78572V2.5q0-.0871.06362-.15067.06362-.0636.15067-.0636h11.571424q.0871 0 .15067.0636.0636.0636.0636.15067z"/>
</svg>
