<svg aria-hidden="true" xmlns="http://www.w3.org/2000/svg" viewBox="0 0 14 14" height="1em" width="1em">
  <path d="M5.688 10.87V9.844l-.193-.055c-.255-.073-.393-.198-.451-.409-.076-.276-.113-.349-.259-.504-.232-.247-.259-.373-.168-.78a.54.54 0 0 0 0-.316c-.052-.232-.064-.41-.032-.507.016-.047.095-.158.177-.247.178-.194.193-.22.26-.453.088-.314.179-.403.513-.503.193-.058.224-.076.375-.22.09-.085.2-.173.243-.195.1-.051.284-.053.447 0 .07.02.176.038.236.038s.166-.017.236-.038c.163-.05.347-.047.447 0 .043.022.153.11.243.196.151.143.182.16.375.219.334.1.425.189.514.503.066.233.08.259.26.453.08.09.16.2.176.247.032.096.02.275-.032.507a.513.513 0 0 0 0 .305c.094.405.064.544-.168.791-.145.155-.183.228-.258.504-.058.21-.197.336-.452.409l-.192.055v1.028c0 .565-.005 1.028-.012 1.028s-.265-.127-.574-.282l-.563-.281-.562.281c-.31.155-.568.282-.574.282-.007 0-.012-.463-.012-1.028zm1.387-1.856c.43-.09.784-.451.877-.894.132-.628-.303-1.25-.947-1.357-.742-.122-1.413.555-1.294 1.305a1.147 1.147 0 0 0 1.364.946Zm-5.182 2.063c-.413-.082-.792-.468-.87-.887C1.01 10.111 1 9.14 1 7.598c0-2.359.002-2.467.043-2.504a.169.169 0 0 1 .095-.04c.032 0 .318.2.725.503.37.277 1.03.765 1.467 1.084l.795.582-.005.183c-.003.112.01.251.036.357.039.165.038.18-.002.358-.093.405-.01.721.266 1.02.11.118.142.172.177.297.023.084.063.198.09.253.07.151.253.338.414.424l.142.076v.911H3.619c-.892 0-1.669-.012-1.726-.023Zm6.537-.43v-.456l.142-.077a1.09 1.09 0 0 0 .414-.423 1.98 1.98 0 0 0 .09-.254.594.594 0 0 1 .176-.297c.276-.298.36-.614.267-1.019-.04-.176-.04-.194-.003-.354a1.48 1.48 0 0 0 .039-.241c0-.067.046-.105.72-.597.9-.655 1.876-1.377 2.243-1.66.294-.225.368-.254.443-.171.036.039.039.246.039 2.504 0 1.54-.01 2.51-.023 2.588-.08.429-.457.806-.889.888-.078.015-.789.024-1.892.024H8.43v-.456zm.765-3.971c-.04-.041-.088-.147-.133-.29-.12-.387-.33-.6-.699-.713a.669.669 0 0 1-.36-.212c-.274-.262-.566-.352-.9-.276a.934.934 0 0 1-.534 0c-.334-.075-.627.015-.9.277-.137.13-.18.156-.333.201-.393.116-.616.339-.728.728-.03.103-.062.188-.072.188-.023 0-1.608-1.16-2.338-1.71-1.043-.787-1.12-.856-1.172-1.044-.032-.119-.034-.645-.002-.812a1.16 1.16 0 0 1 .887-.888c.174-.032 10.004-.032 10.178 0 .428.08.805.457.887.888.032.167.03.693-.002.812a.615.615 0 0 1-.084.171c-.12.158-1.261 1.022-3.525 2.667l-.108.078-.062-.065z"/>
</svg>
