<svg role="img" focusable="false" aria-hidden="true" xmlns="http://www.w3.org/2000/svg" viewBox="0 0 14 14" height="1em" width="1em">
  <path d="m 7.006275,13 c 0.8375,0 1.525,-0.62188 1.615625,-1.34375 l -3.23125,0 C 5.47815,12.37812 6.168775,13 7.006275,13 Z M 10.92815,6.05937 c 0,-3.05 -1.640625,-4.0875 -3.175,-4.31874 0,-0.0156 0.0031,-0.0312 0.0031,-0.05 C 7.756275,1.30625 7.41565,1 7.000025,1 6.5844,1 6.256275,1.30625 6.256275,1.69062 c 0,0.0188 0,0.0344 0.0031,0.05 -1.5375,0.23437 -3.1875,1.27499 -3.1875,4.32499 0,3.55625 -0.884375,3.9375 -2.071875,4.9375 l 12,0 C 11.818775,10 10.92815,9.61563 10.92815,6.05937 Z"/>
</svg>
