<svg aria-hidden="true" xmlns="http://www.w3.org/2000/svg" viewBox="0 0 14 14" height="1em" width="1em">
  <path d="M6.392 11.532a9.188 9.188 0 0 1-.82-.17l-.514-.13v-.725c0-.82.049-1.057.28-1.382.331-.466.694-.627 1.498-.663 1.159-.053 1.735.188 2.09.875.103.198.11.262.11 1.053v.842l-.28.1c-.62.221-1.58.303-2.364.2zm-1.849-1.196a10.958 10.958 0 0 1-1.271-.245l-.273-.08V8.422l.153-.311a1.43 1.43 0 0 1 .755-.732c.23-.105.335-.12.968-.14l.71-.021.053.242a1.9 1.9 0 0 0 .312.69c.07.098.064.106-.214.254-.321.171-.642.5-.785.805-.11.231-.197.659-.197.955 0 .11-.016.199-.035.195-.02 0-.099-.015-.176-.024zm4.811-.433c-.08-.722-.38-1.194-.95-1.498-.154-.082-.28-.167-.28-.188 0-.02.034-.067.077-.102.1-.082.296-.502.296-.634.001-.236.03-.25.509-.25.857.001 1.254.128 1.617.515.333.356.402.616.402 1.502v.75l-.165.068c-.223.093-.874.24-1.195.269l-.26.024-.05-.455zm-7.128-.738c-.293-.031-.814-.16-1.022-.251L1 8.824l.017-.785c.016-.73.026-.803.14-1.05.146-.311.407-.58.724-.741.208-.106.291-.118.942-.133l.714-.016v.116c0 .177.125.491.277.699l.138.187-.272.136c-.336.168-.672.52-.834.873-.094.205-.128.364-.143.677l-.02.41-.146-.01c-.081 0-.22-.015-.31-.025zm9.072-.424c-.016-.314-.05-.473-.143-.677a1.886 1.886 0 0 0-.83-.863l-.276-.134.12-.157c.143-.187.295-.567.295-.737v-.12l.69.016c.628.015.713.027.948.138.327.155.588.416.743.743.113.24.122.312.138 1.062l.017.803-.384.122c-.382.12-.87.21-1.152.212l-.147.001-.02-.41zM6.816 8.35c-.604-.117-1.03-.77-.894-1.374.069-.306.15-.449.37-.647.466-.421 1.228-.382 1.637.084.218.248.298.464.299.804 0 .747-.66 1.278-1.412 1.133zm-2.02-1.217a.997.997 0 0 1-.636-.33c-.543-.567-.415-1.467.26-1.834.308-.167.584-.2.9-.108.325.095.564.296.716.6.166.333.16.522-.026.732-.128.147-.294.459-.384.723-.052.155-.485.268-.83.217zm4.123.015c-.275-.036-.421-.11-.422-.213 0-.186-.224-.586-.445-.798-.2-.191-.216-.222-.185-.365.15-.69.82-1.104 1.478-.911.844.247 1.129 1.323.512 1.94-.25.25-.625.388-.938.347zM2.701 5.96c-.68-.196-1.037-.974-.737-1.608.13-.276.357-.505.6-.606.239-.1.715-.092.951.015.338.153.677.636.677.963 0 .044-.093.17-.207.282-.229.222-.377.479-.425.736-.029.151-.052.174-.236.22a1.1 1.1 0 0 1-.623 0zm7.92-.041c-.12-.037-.153-.077-.18-.22-.049-.262-.194-.513-.425-.734-.237-.227-.253-.32-.11-.636a1.165 1.165 0 0 1 1.072-.701c1.189 0 1.61 1.577.582 2.18-.235.137-.682.19-.94.11zm-4.247-.234a1.529 1.529 0 0 0-.124-.376c-.05-.1-.092-.192-.092-.206 0-.014.379-.025.842-.025.463 0 .843.019.843.042 0 .023-.042.133-.093.246-.05.112-.093.25-.094.306 0 .145-.058.164-.3.1-.204-.055-.542-.024-.852.077-.088.028-.103.01-.13-.163zm.36-.748c-.25-.051-.352-.107-.584-.316-.256-.232-.376-.488-.403-.86-.019-.261-.004-.351.094-.565.58-1.269 2.429-.888 2.429.5 0 .367-.111.64-.359.889a1.314 1.314 0 0 1-1.178.352zm-1.372-.311c-.205-.066-.56-.062-.854.01-.113.028-.129.018-.13-.08 0-.2-.214-.577-.443-.778-.22-.194-.222-.199-.16-.347.088-.215.307-.449.53-.566.286-.152.82-.146 1.096.012.176.1.198.13.17.234a4.116 4.116 0 0 0-.054.503c-.022.357-.014.408.116.686.103.218.127.314.09.352-.063.063-.094.06-.36-.026zm2.949-.016c-.044-.082-.035-.142.048-.32.13-.275.17-.69.092-.966-.072-.26-.034-.319.304-.477a1.144 1.144 0 0 1 1.463.446c.107.182.112.209.045.247-.286.16-.55.516-.666.896-.038.124-.083.19-.123.18a1.834 1.834 0 0 0-1.031.062c-.053.022-.096 0-.132-.069z"/>
</svg>
