<svg aria-hidden="true" xmlns="http://www.w3.org/2000/svg" viewBox="0 0 14 14" height="1em" width="1em">
  <path d="M5.342 10.554a.253.253 0 0 0 .265.046l2.008-.823L5.87 8.211l-.6 2.085a.252.252 0 0 0 .073.258zm.687-1.787 1.015.911-.79.324-.461-.415.236-.82ZM13 3.553a.511.511 0 0 0-.168-.35l-.99-.89a.51.51 0 0 0-.718.04l-.584.65 1.747 1.567.584-.65c.09-.1.136-.232.13-.367zm-.749.365-1.058-.95.305-.34 1.058.95-.305.34zm-2.753.247L6.323 7.703l-.245.274 1.747 1.567.245-.274 3.174-3.538.287-.32-1.747-1.566-.287.32Zm-.15 1.598-2.082 2.32a.145.145 0 0 1-.102.049.146.146 0 0 1-.106-.037l-.103-.093a.147.147 0 0 1-.011-.208l2.081-2.32a.147.147 0 0 1 .208-.011l.103.092a.147.147 0 0 1 .011.208zm.604-1.102.103.092c.06.054.065.147.01.208l-.025.03-.15.165-.006.007a.144.144 0 0 1-.101.049.143.143 0 0 1-.106-.038l-.104-.092a.146.146 0 0 1-.01-.208l.18-.202a.148.148 0 0 1 .209-.011ZM2.675 9.813c0 .251.204.455.454.455h1.455a.667.667 0 0 1 .03-.15l.218-.76H3.13a.455.455 0 0 0-.454.455Zm2.955-2.36h-2.5a.455.455 0 0 0 0 .91h1.986l.514-.91zm1.7-1.882h-4.2a.454.454 0 0 0 0 .91h3.384l.816-.91zm.625-1.45a.454.454 0 0 0-.454-.454H3.13a.454.454 0 1 0 0 .909h4.372a.454.454 0 0 0 .454-.454zm.771 7.424H1.91v-9.09h6.818v1.549l.908-1.013v-.52a.926.926 0 0 0-.925-.925H1.925A.925.925 0 0 0 1 2.47v9.057c0 .512.414.926.925.926h6.786c.51 0 .925-.414.925-.926V8.546l-.91 1.013v1.986z"/>
</svg>
