<svg role="img" focusable="false" aria-hidden="true" xmlns="http://www.w3.org/2000/svg" viewBox="0 0 14 14" height="1em" width="1em">
  <path d="m 3.75,10.5 v 1 H 1 v -1 H 3.75 z M 6.5,9.5 Q 6.70313,9.5 6.85156,9.64844 7,9.79687 7,10 v 2 Q 7,12.20313 6.85156,12.35156 6.70313,12.5 6.5,12.5 h -2 Q 4.29688,12.5 4.14844,12.35156 4,12.20313 4,12 V 10 Q 4,9.79687 4.14844,9.64844 4.29688,9.5 4.5,9.5 h 2 z m 1.25,-3 v 1 H 1 v -1 h 6.75 z m -5,-4 v 1 H 1 v -1 h 1.75 z m 10.25,8 v 1 H 7.25 v -1 H 13 z M 5.5,1.5 Q 5.70312,1.5 5.85156,1.64844 6,1.79688 6,2 V 4 Q 6,4.20312 5.85156,4.35156 5.70312,4.5 5.5,4.5 h -2 Q 3.29687,4.5 3.14844,4.35156 3,4.20312 3,4 V 2 Q 3,1.79688 3.14844,1.64844 3.29687,1.5 3.5,1.5 h 2 z m 5,4 q 0.20312,0 0.35156,0.14844 Q 11,5.79687 11,6 V 8 Q 11,8.20312 10.85156,8.35156 10.70312,8.5 10.5,8.5 h -2 Q 8.29688,8.5 8.14844,8.35156 8,8.20312 8,8 V 6 Q 8,5.79687 8.14844,5.64844 8.29688,5.5 8.5,5.5 h 2 z m 2.5,1 v 1 h -1.75 v -1 H 13 z m 0,-4 v 1 H 6.25 v -1 H 13 z"/>
</svg>
