<svg aria-hidden="true" xmlns="http://www.w3.org/2000/svg" viewBox="0 0 14 14" height="1em" width="1em">
  <path d="M1.424 10.37a1.174 1.174 0 0 1-.293-.14L1 10.137V3.866l.223-.13.222-.132 5.367-.014c2.952-.01 5.477 0 5.61.015.135.016.314.076.4.133l.154.105.012 3.165.012 3.165-.2.114-.2.114-5.507.01c-3.563.01-5.564-.01-5.67-.039zm11.046-.71c.078-.077.085-.255.098-2.53.01-1.668-.002-2.503-.036-2.622-.042-.144-.081-.183-.226-.225-.121-.035-1.763-.046-5.416-.037l-5.242.014-.09.11c-.085.107-.09.22-.09 2.617 0 1.683.017 2.536.05 2.599a.351.351 0 0 0 .153.135c.058.024 2.407.038 5.409.033 5.024-.01 5.311-.014 5.39-.093zM2.09 9.299c-.091-.036-.106-.077-.106-.293 0-.301.052-.362.31-.362.323 0 .347.022.347.331 0 .224-.017.284-.091.324-.109.058-.315.058-.46 0zm1.008 0c-.113-.066-.12-.581-.008-.624.127-.05.467-.031.525.028.031.03.057.167.057.303 0 .196-.019.257-.09.295-.116.062-.377.06-.484 0zm1.497.018c-.072-.02-.082-.066-.07-.335l.014-.312 2.432-.012c1.757-.01 2.45 0 2.496.04.04.034.064.15.064.304 0 .2-.019.26-.09.3-.09.047-4.664.062-4.846.015zm5.908-.018c-.063-.037-.082-.11-.082-.322 0-.305.026-.33.328-.33.304 0 .329.024.329.33 0 .224-.017.284-.091.324-.115.062-.376.06-.484 0zm1.03.018c-.073-.02-.083-.066-.07-.335l.013-.312.25-.014c.326-.02.383.033.383.35 0 .228-.012.257-.12.298a.815.815 0 0 1-.456.013zM2.52 8.256a1.262 1.262 0 0 1-.011-.32l.014-.252h.61v.61l-.294.014c-.22.01-.3 0-.319-.052zm1.013-.03c-.054-.1-.065-.375-.02-.491.021-.057.097-.074.323-.074.331 0 .351.02.351.346 0 .258-.06.31-.359.31-.196 0-.257-.019-.295-.09zm1.003.03a1.262 1.262 0 0 1-.012-.32l.015-.252h.609v.61l-.293.014c-.22.01-.3 0-.32-.052zm1.012-.03A.609.609 0 0 1 5.5 7.99c0-.27.065-.328.371-.328.31 0 .332.023.332.346 0 .257-.06.31-.36.31-.195 0-.256-.019-.295-.09zm1.005-.016a1.306 1.306 0 0 1-.013-.318l.014-.207h.61v.609l-.292.014c-.273.013-.293.01-.32-.098zm1.028.043a1.276 1.276 0 0 1-.01-.316l.015-.252h.609l.015.207c.027.388-.001.426-.322.426-.195 0-.29-.02-.307-.064zm1.022.01c-.06-.059-.077-.398-.028-.525.021-.056.096-.074.303-.074.306 0 .372.058.372.328 0 .263-.068.328-.344.328-.136 0-.272-.025-.303-.056zm.995-.01a1.26 1.26 0 0 1-.011-.318l.014-.253h.609v.61l-.293.014c-.22.01-.3 0-.32-.052zm1.013-.027c-.058-.108-.064-.424-.01-.51.029-.044.21-.056.738-.046l.7.013v.609l-.69.013c-.644.012-.692.01-.738-.079zm-8.217-.942c-.097-.06-.117-.508-.025-.6.03-.03.167-.055.303-.055.204 0 .256.017.3.1.052.097.037.484-.02.541-.054.053-.476.063-.558.013zm1.032 0c-.113-.066-.12-.582-.008-.624.127-.05.467-.031.526.028.03.03.056.167.056.303 0 .196-.019.256-.09.295-.116.06-.377.06-.484 0zm1.043.019c-.108-.045-.14-.116-.14-.312-.002-.296.06-.36.343-.36.135 0 .272.025.303.056.064.064.075.451.014.547-.043.069-.405.116-.52.069zm.972-.02c-.063-.036-.082-.11-.082-.321 0-.306.025-.33.328-.33s.328.024.328.33c0 .224-.017.284-.09.324-.115.06-.377.06-.484 0zm1.043.017c-.107-.041-.139-.113-.14-.31 0-.296.06-.36.343-.36.136 0 .272.026.303.057.031.03.056.167.056.303 0 .196-.018.256-.09.295-.096.051-.354.059-.472.014zm.973-.016c-.062-.036-.082-.11-.082-.294 0-.298.052-.359.31-.359.326 0 .346.02.346.351 0 .266-.01.297-.106.323-.158.043-.376.033-.468-.021zm1.029.018c-.072-.02-.082-.066-.07-.335l.013-.312.25-.014c.326-.02.383.033.383.346 0 .2-.018.26-.09.3-.092.048-.33.056-.486.015zm.986-.015c-.098-.06-.117-.508-.026-.6.031-.03.169-.055.306-.055.23 0 .254.01.3.129.047.123.032.458-.024.514-.052.052-.476.061-.556.012zm1.147-.054c-.036-.037-.057-.208-.057-.472 0-.353-.012-.418-.082-.44a1.13 1.13 0 0 1-.152-.061c-.077-.04-.118-.325-.073-.504l.028-.111.878.013.878.013v1.594l-.681.013c-.49.01-.697 0-.738-.044zM2.192 6.24a1.258 1.258 0 0 1-.011-.318l.014-.252h.61v.609l-.294.014c-.22.01-.3 0-.319-.053zm1.02.01c-.058-.059-.076-.398-.027-.525.021-.057.097-.074.322-.074.32 0 .35.029.352.342 0 .248-.071.314-.344.314-.135 0-.272-.025-.303-.056zm.995-.01a1.258 1.258 0 0 1-.01-.318l.014-.252h.609v.609l-.293.014c-.22.01-.3 0-.32-.053zm1.013-.029a.609.609 0 0 1-.048-.237c0-.27.065-.328.371-.328.31 0 .332.023.332.346 0 .258-.061.31-.36.31-.196 0-.256-.019-.295-.09zm1.003.03a1.26 1.26 0 0 1-.011-.32l.014-.251h.61v.609l-.294.014c-.22.01-.3 0-.319-.053zm1.01-.059c-.06-.155-.058-.331.003-.445.04-.074.1-.09.323-.09.31 0 .331.022.331.345 0 .258-.06.31-.362.31-.224 0-.254-.012-.295-.12zm1.007.013a1.305 1.305 0 0 1-.013-.318l.015-.207h.609v.609l-.291.014c-.274.013-.294.01-.32-.098zm1.03.045a1.26 1.26 0 0 1-.011-.318l.014-.252h.609v.609l-.293.014c-.22.01-.3 0-.32-.053zm-7.234-.986c-.034-.041-.051-.171-.043-.319l.015-.25.314-.014.313-.014.032.17a.828.828 0 0 1-.01.318c-.041.142-.055.15-.303.163-.185.01-.277-.01-.318-.055zm1.036.024c-.042-.027-.057-.126-.047-.316l.014-.277h.609l.015.25c.008.144-.01.278-.041.316-.06.073-.448.091-.55.026zm.976-.05c-.053-.1-.064-.376-.02-.492.022-.057.098-.074.323-.074.332 0 .352.02.352.346 0 .258-.06.31-.36.31-.195 0-.256-.019-.295-.09zm1.04.052c-.043-.027-.058-.128-.048-.317l.014-.277h.61v.609l-.258.012a.867.867 0 0 1-.319-.028zm.976-.052c-.054-.1-.065-.376-.02-.492.022-.057.097-.074.323-.074.331 0 .351.02.351.346 0 .258-.06.31-.359.31-.196 0-.257-.019-.295-.09zm1.034.026c-.033-.041-.05-.171-.042-.319l.014-.25h.609v.61l-.262.014c-.186.01-.278-.01-.319-.055zm1.011.033c-.017-.017-.031-.166-.031-.33v-.3l.316.014.317.014.014.25c.008.144-.01.278-.041.317-.057.068-.514.096-.575.035zm1.003-.035c-.032-.038-.049-.173-.04-.317l.013-.25.314-.014.313-.014.03.202a.79.79 0 0 1-.02.33c-.044.118-.068.129-.301.129-.162 0-.274-.024-.309-.067zm1 0a1.27 1.27 0 0 1-.01-.317l.015-.252h.609l.014.25c.008.144-.009.278-.04.316-.075.09-.553.092-.587 0zm1.022.01c-.064-.063-.075-.451-.017-.544.028-.044.159-.057.48-.047l.442.014.014.25c.008.144-.01.278-.041.317-.071.085-.794.094-.878.01z"/>
</svg>
