<svg role="img" focusable="false" aria-hidden="true" xmlns="http://www.w3.org/2000/svg" viewBox="0 0 14 14" height="1em" width="1em">
  <g transform="translate(-.12893745 -.14110466) scale(.28528)">
    <path fill="#90caf9" d="M33 13v29H5V4h19z"/>
    <path fill="#e1f5fe" d="M31.5 14H23V5.5z"/>
    <path fill="#616161" d="M34.50469859 37.5805l1.9796-1.9796 8.484 8.484-1.9796 1.9796z"/>
    <circle cx="28" cy="29" r="11" fill="#616161"/>
    <circle cx="28" cy="29" r="9" fill="#90caf9"/>
    <path fill="#37474f" d="M36.84869859 39.87969859l1.9796-1.9796 6.15089985 6.15089985-1.9796 1.9796z"/>
    <path fill="#1976d2" d="M30 31h-9.7c.4 1.6 1.3 3 2.5 4H30v-4zm-9.7-4H30v-4h-7.3c-1.2 1-2 2.4-2.4 4zm-.2-7H11v2h7.3c.5-.7 1.1-1.4 1.8-2zm-3 4H11v2h5.4c.2-.7.4-1.4.7-2zM16 29c0-.3 0-.7.1-1H11v2h5.1c-.1-.3-.1-.7-.1-1zm.4 3H11v2h6.1c-.3-.6-.5-1.3-.7-2z"/>
  </g>
</svg>
