<svg role="img" focusable="false" aria-hidden="true" xmlns="http://www.w3.org/2000/svg" viewBox="0 0 14 14" height="1em" width="1em">
  <path d="m 2.9322778,4.864557 c 1.0654586,0 1.9322786,-0.8668286 1.9322786,-1.9322743 0,-1.0654628 -0.86682,-1.93228278 -1.9322786,-1.93228278 -1.0654362,0 -1.9322777,0.86681998 -1.9322777,1.93228278 0,1.0654457 0.8668312,1.9322743 1.9322777,1.9322743 z m 0,-2.6499771 c 0.3957643,0 0.7177037,0.3219514 0.7177037,0.7177028 0,0.3957429 -0.3219394,0.7177029 -0.7177037,0.7177029 -0.3957411,0 -0.7177028,-0.32196 -0.7177028,-0.7177029 0,-0.3957514 0.3219617,-0.7177028 0.7177028,-0.7177028 z m 6.9427363,10.3104071 0.3747519,0.37476 c 0.133669,0.133671 0.350394,0.133671 0.484074,0 l 0.653541,-0.653529 0.653541,0.653529 c 0.13368,0.133671 0.350393,0.133671 0.484074,0 l 0.374741,-0.37476 c 0.133669,-0.133672 0.133669,-0.350391 0,-0.484071 l -0.65353,-0.653538 0.653541,-0.653546 c 0.133669,-0.133672 0.133669,-0.3504 0,-0.48408 L 12.525007,9.8749998 c -0.13368,-0.133662 -0.350394,-0.133662 -0.484074,0 L 11.387381,10.528547 10.73384,9.8749998 c -0.133669,-0.133662 -0.350394,-0.133662 -0.484074,0 L 9.8750141,10.249752 c -0.1336689,0.133671 -0.1336689,0.350401 0,0.484081 l 0.6535419,0.653537 -0.6535419,0.653528 c -0.13368,0.133698 -0.13368,0.350418 0,0.484089 z m -6.1753137,-0.38213 0.5520798,0 c 0.2439197,0 0.4416634,-0.197743 0.4416634,-0.44166 l 0,-1.9496142 c 0,-1.0147544 0.8302508,-1.8336772 1.8450283,-1.8360944 C 6.9771104,7.9146313 7.4029956,7.827837 7.8044342,7.6580456 8.1941916,7.4931913 8.5440773,7.2573399 8.844409,6.9570399 9.144685,6.6567399 9.3805664,6.306837 9.5453839,5.9170856 9.7162524,5.5131913 9.802841,5.0845599 9.802841,4.643097 l 0,-0.6265886 0.654722,0 c 0.242915,0 0.373603,-0.2852571 0.21498,-0.4692171 L 9.3001176,1.9556284 c -0.113232,-0.1313142 -0.3167169,-0.1313142 -0.4299377,0 L 7.497721,3.5472742 C 7.3391196,3.7312427 7.4698039,4.0164999 7.7127233,4.0164999 l 0.6547106,0 0,0.6274971 c 0,1.0147714 -0.83025,1.8336857 -1.8450386,1.8360943 C 6.0837679,6.4809484 5.6578827,6.5677342 5.2564433,6.7375427 4.8666867,6.902397 4.516801,7.1382484 4.2164804,7.4385313 3.9161822,7.7388227 3.680323,8.0887342 3.5154722,8.4784942 3.3446367,8.882397 3.2580259,9.3110118 3.2580259,9.7524828 l 0,1.9487142 c 1.11e-5,0.243917 0.1977548,0.44166 0.4416745,0.44166 z"/>
</svg>
