<svg aria-hidden="true" xmlns="http://www.w3.org/2000/svg" viewBox="0 0 14 14" height="1em" width="1em">
  <path d="M13 5.326v5.317q0 .442-.315.757-.314.314-.756.314H2.07q-.442 0-.756-.314Q1 11.085 1 10.643V5.326q.295.328.676.582Q4.1 7.556 5.004 8.218q.382.282.62.44.238.157.633.32.395.165.736.165h.014q.341 0 .736-.164.395-.164.633-.322.238-.157.62-.438 1.138-.824 3.334-2.31.382-.262.67-.583zm0-1.969q0 .53-.328 1.011-.328.482-.817.824L8.72 7.368l-.285.205q-.217.157-.361.254t-.348.218q-.205.12-.385.18-.181.06-.335.06h-.014q-.154 0-.335-.06-.18-.06-.385-.18-.204-.12-.348-.218-.144-.097-.361-.254l-.285-.205q-.61-.428-1.754-1.222-1.146-.793-1.373-.954-.415-.281-.784-.773Q1 3.926 1 3.504q0-.522.278-.87t.793-.348h9.858q.435 0 .753.314.318.315.318.757z"/>
</svg>
