<svg role="img" focusable="false" aria-hidden="true" xmlns="http://www.w3.org/2000/svg" viewBox="0 0 14 14" height="1em" width="1em">
  <path d="m 10.237393,2.0821171 c -0.03092,-0.0012 -0.0595,0.0032 -0.0875,0.0125 -0.111996,0.03733 -0.1624942,0.150828 -0.1624942,0.337489 l 0,1.262457 -1.387454,0 c -0.4573179,0 -0.8734708,0.09616 -1.2374586,0.287491 -0.3639879,0.191327 -0.691977,0.441985 -0.9999667,0.749975 -0.3079897,0.307989 -1.0731941,1.302249 -1.0731941,1.302249 -0.2217774,0.01819 -0.489318,0.03187 -4.2891266,0.02271 0.00649,1.048496 0.026775,0.319471 0.0125,1.949935 2.6059925,-0.0193 3.7930296,0.06973 4.3873533,0.05 0.2068031,0.321628 0.51382,0.714121 0.9624678,1.21246 0.3079897,0.307989 0.6359788,0.558648 0.9999666,0.7499749 0.3639878,0.191326 0.7801408,0.28749 1.2374587,0.28749 l 1.3874536,0 0,1.262458 c 0,0.18666 0.0505,0.300157 0.1624942,0.337489 0.111996,0.03733 0.253825,-0.01933 0.412486,-0.149995 l 2.274924,-1.8874379 c 0.102664,-0.084 0.162495,-0.194327 0.162495,-0.324989 0,-0.121329 -0.05983,-0.215993 -0.162495,-0.29999 l -2.274921,-1.912441 c -0.158661,-0.130663 -0.30049,-0.174828 -0.412486,-0.137496 -0.111996,0.03733 -0.1624942,0.150828 -0.1624942,0.337489 l 0,1.19996 -1.387454,0 c -0.2426587,0 -0.4728174,-0.06783 -0.687477,-0.212493 C 7.6978112,8.3747401 7.4849851,8.1824131 7.2749921,7.9444211 7.0649991,7.7064291 6.8553393,7.4399381 6.650013,7.1319481 c -0.029331,-0.044 -0.058165,-0.09312 -0.087497,-0.137495 0.027695,-0.04188 0.0598,-0.08345 0.087497,-0.124996 0.2053263,-0.30799 0.4149861,-0.574481 0.6249791,-0.812473 0.209993,-0.237992 0.4228191,-0.430318 0.6374787,-0.57498 0.2146596,-0.144662 0.4448183,-0.224993 0.687477,-0.224993 l 1.387454,0 0,1.21246 c 0,0.18666 0.0505,0.300157 0.1624942,0.337488 0.111996,0.03733 0.253825,-0.01933 0.412486,-0.149995 l 2.274924,-1.899936 c 0.102664,-0.084 0.162495,-0.19116 0.162495,-0.31249 0,-0.130662 -0.05983,-0.228492 -0.162495,-0.312489 l -2.274924,-1.899937 c -0.118996,-0.098 -0.232242,-0.146495 -0.324989,-0.149995 z"/>
</svg>
