<svg role="img" focusable="false" aria-hidden="true" xmlns="http://www.w3.org/2000/svg" viewBox="0 0 14 14" height="1em" width="1em">
  <path d="M 12.773226,6.465851 7.533883,1.226508 c -0.301656,-0.301656 -0.791115,-0.301656 -1.092771,0 L 5.3531289,2.314491 6.733191,3.694553 C 7.054,3.586021 7.421627,3.658903 7.677529,3.914278 7.934495,4.171244 8.00685,4.542595 7.895657,4.864468 L 9.22571,6.19452 c 0.321873,-0.111192 0.693223,-0.03937 0.950189,0.218129 0.359115,0.359114 0.359115,0.941145 0,1.300259 -0.359114,0.359114 -0.941145,0.359114 -1.300791,0 C 8.604841,7.442641 8.538339,7.045754 8.675068,6.712709 l -1.240673,-1.240673 0,3.264481 c 0.08725,0.04362 0.170247,0.101084 0.243134,0.17397 0.359114,0.359115 0.359114,0.941146 0,1.300792 -0.359114,0.359114 -0.941677,0.359114 -1.30026,0 -0.3591138,-0.359646 -0.3591138,-0.941677 0,-1.300792 0.08885,-0.08885 0.191528,-0.155882 0.301124,-0.200571 l 0,-3.294807 C 6.568797,5.37042 6.466117,5.303917 6.377269,5.214537 6.1054067,4.942675 6.0399681,4.543127 6.1793576,4.20955 L 4.8189798,2.84864 1.2262419,6.440846 c -0.30165589,0.302188 -0.30165589,0.791647 0,1.093303 l 5.2398751,5.239343 c 0.301656,0.301656 0.790583,0.301656 1.092771,0 l 5.21487,-5.21487 c 0.301656,-0.301656 0.301656,-0.791647 0,-1.093303 z"/>
</svg>
