<svg aria-hidden="true" xmlns="http://www.w3.org/2000/svg" viewBox="0 0 14 14" height="1em" width="1em">
  <path d="M5.45 12.985a2.031 2.031 0 0 1-.585-.214 2.365 2.365 0 0 1-.345-.289c-.274-.273-.403-.512-.49-.908l-.014-.064-1.19-.01-1.19-.01-.133-.062a.887.887 0 0 1-.424-.415c-.069-.14-.076-.174-.075-.366v-.212l.218-.478c.623-1.372 1.04-2.69 1.2-3.796.026-.184.058-.559.07-.833.022-.523.055-.748.153-1.06a3.93 3.93 0 0 1 .489-.95c.301-.4.784-.802 1.188-.99.166-.077.186-.104.187-.241.001-.172.142-.482.305-.672.187-.219.512-.382.818-.41a1.259 1.259 0 0 1 1.345 1.062l.028.184.202.099a3.288 3.288 0 0 1 1.587 1.784c.133.373.17.578.195 1.12.027.55.067.903.154 1.357.187.973.626 2.274 1.144 3.39l.19.411v.235c0 .212-.005.247-.068.37a.97.97 0 0 1-.43.411l-.135.063-1.185.01-1.186.01-.04.169a1.84 1.84 0 0 1-.628.966 1.97 1.97 0 0 1-.619.304 2.366 2.366 0 0 1-.736.035zm-2.834-2.532c.104-.082.546-1.19.814-2.041.347-1.106.517-2.011.562-2.993.024-.523.05-.655.188-.934.172-.348.444-.624.779-.79a1.62 1.62 0 0 1 .666-.18c.217-.019.233-.024.296-.094.092-.103.09-.232-.003-.336l-.069-.077-.214.01c-.287.01-.573.079-.856.214a2.235 2.235 0 0 0-1.08 1.09c-.135.293-.175.48-.199.918a9.97 9.97 0 0 1-.096 1.102c-.15 1.057-.53 2.318-1.102 3.663-.113.267-.115.317-.012.42.096.096.228.11.326.033zm2.69-8.418a3.87 3.87 0 0 1 .936.012c.121.02.224.032.228.028.017-.017-.116-.268-.174-.33-.153-.163-.43-.268-.635-.24-.255.036-.508.222-.6.442-.05.121-.046.14.029.125.035-.01.133-.024.217-.037zm3.83 2.94c-.09-.044-.157-.173-.137-.263.008-.035.398-.544.867-1.13l.853-1.067-.777-.012c-.855-.013-.862-.014-.922-.156a.245.245 0 0 1 .079-.289c.058-.046.093-.047 1.134-.047.723 0 1.093.01 1.13.025.085.038.143.152.127.248-.01.062-.215.333-.861 1.14l-.848 1.06.77.013c.83.013.847.015.911.14.045.087.045.149 0 .238-.07.135-.096.138-1.224.137-.884 0-1.037-.01-1.101-.037zm2.489-2.006c-.077-.037-.135-.154-.12-.243.008-.047.162-.302.39-.642.207-.31.377-.57.377-.577 0-.01-.132-.012-.292-.012-.166 0-.317-.01-.35-.026-.142-.065-.169-.285-.048-.398l.06-.057h1.215l.06.061a.283.283 0 0 1 .074.154c.012.088-.006.12-.377.677l-.389.586.316.012c.301.01.319.014.377.073a.283.283 0 0 1 .074.157c.011.088.005.105-.07.18l-.083.083h-.583c-.34-.001-.603-.011-.631-.025z"/>
</svg>
