<svg role="img" focusable="false" aria-hidden="true" xmlns="http://www.w3.org/2000/svg" viewBox="0 0 14 14" height="1em" width="1em">
  <path d="m 9.3092272,1.0000168 c -0.231159,-0.00125 -0.449474,0.06832 -0.656249,0.206249 L 5.6529823,3.2125138 C 5.101583,3.5803128 4.9476832,4.3298618 5.3154827,4.8812608 l 2.1374971,3.187496 c 0.3677995,0.551399 1.0985984,0.686549 1.6499974,0.318749 l 2.9999958,-1.987497 c 0.551399,-0.367799 0.705299,-1.117348 0.3375,-1.668748 L 10.302976,1.5437658 C 10.073101,1.1991408 9.6944922,1.0021028 9.3092272,1.0000168 Z m -4.5937436,4.049994 -0.4874994,0.3375 c -0.5513992,0.367799 -0.705899,1.117348 -0.3374995,1.668747 l -1.1812484,1.499998 0.3374996,0.506249 1.8374974,-0.506249 c 0.3677995,0.551399 1.1173485,0.686549 1.6687477,0.31875 l 0.4874993,-0.3375 -2.3249967,-3.487495 z m -2.0999971,4.349994 c 0,0 -1.2562483,1.5037482 -1.2562483,2.3437472 0,0.695999 0.5602492,1.256248 1.2562483,1.256248 0.695999,0 1.2562482,-0.560249 1.2562482,-1.256248 0,-0.839999 -1.2562482,-2.3437472 -1.2562482,-2.3437472 z"/>
</svg>
