<svg role="img" focusable="false" aria-hidden="true" xmlns="http://www.w3.org/2000/svg" viewBox="0 0 14 14" height="1em" width="1em">
  <path fill="#faa" d="M8.26315788 1.66315796v.63157894C10.56842101 2.61052637 12.36842099 4.60000003 12.36842099 7c0 2.39999997-1.79999998 4.38947363-4.10526311 4.7052631v.63157894C10.91578943 12.02105257 12.99999993 9.7473684 12.99999993 7c0-2.74736839-2.0842105-5.02105257-4.73684205-5.33684204z"/>
  <path d="M3.8421053 9.52631576H1.63157901c-.34736842 0-.63157894-.28421052-.63157894-.63157894V5.10526318c0-.34736842.28421052-.63157894.63157894-.63157894H3.8421053v5.05263152z"/>
  <path fill="#4d4d4d" d="M3.8421053 9.52631576V4.47368424l3.78947364-3.1578947v11.36842092z"/>
  <path fill="red" d="M8.26315788 4.88421055v.66315789C8.83157893 5.8 9.21052629 6.3368421 9.21052629 7c0 .66315789-.37894736 1.19999999-.94736841 1.45263156v.66315789C9.17894734 8.83157893 9.84210523 8.0105263 9.84210523 7c0-1.0105263-.66315789-1.83157893-1.57894735-2.11578945z"/>
  <path fill="#f55" d="M8.26315788 3.27368425v.63157894C9.71578944 4.18947372 10.78947364 5.48421054 10.78947364 7c0 1.51578946-1.0736842 2.81052628-2.52631576 3.0947368v.63157895C10.06315786 10.41052628 11.42105258 8.86315787 11.42105258 7s-1.35789472-3.44210522-3.1578947-3.72631575z"/>
</svg>
