<svg role="img" focusable="false" aria-hidden="true" xmlns="http://www.w3.org/2000/svg" viewBox="0 0 14 14" height="1em" width="1em">
  <path d="m 10.091945,4.1379068 -1.9484234,0 c -0.370225,0 -0.669991,0.2973 -0.671163,0.6616 0,0.3654 0.298554,0.6604 0.668788,0.6604 l 1.9484044,0 c 0.867029,0 1.571643,0.6938 1.57046,1.5501 -0.0012,0.8563 -0.706988,1.5538 -1.575229,1.5538 l -1.9484234,0 c -0.370225,0 -0.669991,0.2974 -0.669991,0.6616 0,0.3655 0.298584,0.6604 0.668798,0.6604 l 1.9483844,0 c 1.606326,0 2.914058,-1.2935 2.916442,-2.8783 0.0036,-1.5836 -1.301741,-2.8722 -2.908047,-2.8698 z m -4.2665264,4.432 -1.914944,0 c -0.867039,0 -1.571682,-0.695 -1.57048,-1.5501 0.0012,-0.8563 0.7082,-1.5538 1.575239,-1.555 l 1.914984,0 c 0.370224,0 0.66998,-0.2973 0.66998,-0.6616 0,-0.3654 -0.298564,-0.6604 -0.668778,-0.6604 l -1.914974,0 c -1.606306,0 -2.914058,1.2934 -2.916442,2.8782 -0.0024,1.5848 1.302953,2.8734 2.909249,2.871 l 1.914984,0 c 0.370214,0 0.66999,-0.2962 0.671173,-0.6616 -1e-5,-0.3655 -0.299766,-0.6604 -0.669991,-0.6604 z m 2.560743,3.9429002 c 0.150365,0.2568 0.514151,0.327 0.773234,0.1794 0.259251,-0.1477 0.395459,-0.5028 0.245094,-0.7596 l -0.754467,-1.2131 c -0.150265,-0.2567 -0.530067,-0.3179 -0.78913,-0.1703 -0.259241,0.1477 -0.379414,0.4938 -0.229138,0.7506 l 0.754407,1.213 z m -2.114278,-1.213 c 0.150275,-0.2568 0.03009,-0.6029 -0.229139,-0.7506 -0.259052,-0.1476 -0.638864,-0.086 -0.78913,0.1703 l -0.754466,1.2131 c -0.150365,0.2568 -0.01416,0.6119 0.245094,0.7596 0.259082,0.1476 0.622869,0.078 0.773234,-0.1794 l 0.754407,-1.213 z m 1.359861,-8.5997002 c -0.150276,0.2567 -0.03009,0.6029 0.229138,0.7505 0.259053,0.1476 0.638865,0.086 0.78913,-0.1702 l 0.754467,-1.2132 c 0.150365,-0.2568 0.01416,-0.6119 -0.245094,-0.7596 -0.259083,-0.1475 -0.622869,-0.077 -0.773234,0.1794 l -0.754407,1.2131 z m -2.114268,-1.2131 c -0.150365,-0.2568 -0.514152,-0.3269 -0.773234,-0.1794 -0.259252,0.1477 -0.395459,0.5028 -0.245094,0.7596 l 0.754466,1.2132 c 0.150266,0.2567 0.530068,0.3178 0.78913,0.1702 0.259242,-0.1476 0.379414,-0.4938 0.229139,-0.7505 l -0.754407,-1.2131 z"/>
</svg>
