<svg role="img" focusable="false" aria-hidden="true" xmlns="http://www.w3.org/2000/svg" viewBox="0 0 14 14" height="1em" width="1em">
  <path d="m 12.999823,7.11841 c 0,-0.002 -1.13e-4,-0.004 -1.42e-4,-0.007 -0.0033,-0.15038 -0.124056,-0.2702 -0.276257,-0.2702 l -0.07254,0 L 11.530659,4.6754 C 11.483399,4.5839 11.389137,4.527 11.285075,4.52697 l -1.9125301,-4e-4 0.072962,-0.57836 C 9.4663249,3.71708 9.3948679,3.49885 9.2442567,3.33367 9.0939297,3.16883 8.8840455,3.07803 8.6532297,3.07803 l -5.9358309,0 c -0.1492478,0 -0.2760303,0.11548 -0.2902593,0.26436 l -0.0595,0.47651 3.3819468,0 c 0.2195973,0 0.3929577,0.17802 0.3872206,0.39762 -0.00577,0.2196 -0.1884413,0.39761 -0.4080386,0.39761 l -1.1280635,0 c 1.988e-4,5.7e-4 3.976e-4,10e-4 5.964e-4,0.002 l -3.312648,0 C 1.1333559,4.61613 1.0041593,4.742 1.000098,4.8973 0.996037,5.0526 1.1186158,5.17847 1.273913,5.17847 l 4.385585,0 C 5.8630771,5.20987 6.015165,5.38588 6.00957,5.59903 6.00344,5.83312 5.8096546,6.02292 5.5759703,6.02488 l -3.0235248,0 c -0.1568593,0 -0.287334,0.12715 -0.2914521,0.28401 -0.00412,0.15686 0.1197106,0.28401 0.2765699,0.28401 l 2.9879099,0 c 0.2065612,0.0288 0.361688,0.20625 0.3560646,0.42148 -0.00616,0.23527 -0.2019034,0.42601 -0.4371782,0.42601 l -3.4278145,0 0,3.1e-4 -0.2880156,0 c -0.1568593,0 -0.287334,0.12716 -0.2914522,0.28402 -0.00412,0.15685 0.1196823,0.28401 0.27657,0.28401 l 0.2485665,0 -0.097217,1.01727 c -0.020846,0.2311 0.050611,0.44933 0.2012502,0.61451 0.1502986,0.16487 0.3602112,0.25564 0.591027,0.25564 l 0.2144283,0 c 0.1021872,0.58432 0.6077269,1.02582 1.2261041,1.02582 0.6183773,0 1.1470354,-0.4415 1.2797538,-1.02579 l 2.6759237,0 c 0.2163596,0 0.4211884,-0.0827 0.581825,-0.21818 0.1468905,0.14098 0.3416085,0.21818 0.5542192,0.21818 l 0.044022,0 c 0.1021588,0.58429 0.6076984,1.02579 1.2261039,1.02579 0.618377,0 1.147035,-0.4415 1.279754,-1.02579 l 0.176626,0 c 0.460126,0 0.868193,-0.37407 0.909659,-0.83386 l 0.173076,-1.91724 c 2.28e-4,-0.003 1.14e-4,-0.005 2.84e-4,-0.008 2.84e-4,-0.004 8.24e-4,-0.008 9.38e-4,-0.0118 5.6e-5,-0.002 -1.71e-4,-0.005 -1.71e-4,-0.007 z m -8.8871313,3.23548 c -0.3915092,0 -0.7017061,-0.31849 -0.6914533,-0.71 0.010253,-0.39154 0.3371211,-0.71006 0.7286303,-0.71006 0.3915093,0 0.7016777,0.31852 0.6914249,0.71006 -0.010253,0.39151 -0.3370927,0.71 -0.7286019,0.71 z m 6.3618473,0 c -0.391509,0 -0.7016775,-0.31849 -0.6914531,-0.71 0.010253,-0.39154 0.3371211,-0.71006 0.7286301,-0.71006 0.39151,0 0.701706,0.31852 0.691425,0.71006 -0.01025,0.39151 -0.337093,0.71 -0.728602,0.71 z M 12.259832,9.02594 C 12.245062,9.18973 12.094453,9.3281 11.930948,9.3281 l -0.191055,0 C 11.613395,8.77561 11.12234,8.36581 10.52657,8.36581 c -0.59577,0 -1.1082679,0.4098 -1.2636788,0.96229 l -0.058478,0 C 9.1322172,9.3281 9.0678039,9.301 9.0229585,9.2518 8.9778295,9.2023 8.9565855,9.13499 8.9631455,9.06219 l 0.3581095,-3.96737 0.822468,1.7e-4 -0.130361,1.44425 c -0.020876,0.2311 0.05055,0.44933 0.201165,0.61451 0.150298,0.1649 0.360268,0.25573 0.591112,0.25573 l 1.600061,0 -0.145869,1.61642 z"/>
</svg>
