<svg aria-hidden="true" xmlns="http://www.w3.org/2000/svg" viewBox="0 0 14 14" height="1em" width="1em">
  <path d="M11.908 12.96a1.123 1.123 0 0 0-.124-.04 94.98 94.98 0 0 1-1.214-1.201l-1.2-1.2-.206.125a3.514 3.514 0 0 1-4.353-.584 3.535 3.535 0 0 1-.79-3.54 3.535 3.535 0 0 1 2.743-2.344 4.34 4.34 0 0 1 1.172 0 3.517 3.517 0 0 1 2.874 2.862 4.16 4.16 0 0 1-.002 1.21 3.61 3.61 0 0 1-.533 1.33l-.112.165 1.156 1.154c.636.635 1.19 1.21 1.23 1.278a.583.583 0 0 1 .025.512c-.09.174-.319.316-.501.313a.698.698 0 0 1-.165-.041zm-4.202-2.754c.37-.035.894-.255 1.234-.518.432-.333.761-.825.916-1.37.076-.265.103-.798.057-1.088A2.6 2.6 0 0 0 7.35 5.044a2.61 2.61 0 0 0-2.51 1.927c-.056.202-.064.295-.063.688.002.413.009.477.076.697.314 1.024 1.193 1.761 2.22 1.862.231.023.276.022.633-.012zM5.89 8.76v-.22h3.416l-.032.061a3.276 3.276 0 0 1-.14.22l-.107.159H5.89v-.22zm0-1.047v-.22h3.607v.134a1.4 1.4 0 0 1-.017.22l-.017.086H5.89v-.22zm0-.991v-.22h3.272l.056.09c.03.049.08.148.111.22l.056.13H5.891v-.22zm-3.786 5.671a1.045 1.045 0 0 1-.676-.687c-.055-.177-.055-.233-.048-5.04l.008-4.862.103-.21a1.01 1.01 0 0 1 .73-.573c.085-.018 1.149-.025 3.022-.02 2.781.01 2.896.01 3.015.06.068.029.176.088.239.13.17.116 1.772 1.793 1.863 1.952.142.247.155.353.156 1.237v.81l-.241-.258-.24-.258-.015-.348c-.013-.328-.018-.356-.092-.463-.142-.204-.225-.225-.873-.226-.537 0-.57 0-.706-.067a.501.501 0 0 1-.22-.183l-.078-.117-.013-.718c-.016-.798-.024-.84-.203-.95-.093-.058-.099-.058-2.802-.057-2.57 0-2.715 0-2.82.051a.42.42 0 0 0-.246.258c-.038.09-.042.641-.042 4.867 0 4.227.004 4.777.042 4.867a.42.42 0 0 0 .247.258c.105.048.276.051 3.745.051 3.552 0 3.637 0 3.745-.054.06-.03.131-.069.158-.089.041-.03.07-.012.228.144l.182.179-.127.115c-.07.063-.197.144-.284.18l-.157.063-3.718.01c-3.621 0-3.722 0-3.882-.048z"/>
</svg>
