<svg role="img" focusable="false" aria-hidden="true" xmlns="http://www.w3.org/2000/svg" viewBox="0 0 14 14" height="1em" width="1em">
  <path fill="#2980b9" d="M11.8835 1.4856299H2.1160005C1.4996049 1.4856299 1 1.9857339 1 2.6016304v6.2328329c0 .6158965.4996049 1.1160005 1.1160005 1.1160005h1.8611654L3.977665 12.51437l2.8468993-2.5639062H11.884c.616894 0 1.116-.500104 1.116-1.1160005V2.6016304c-.000499-.6158965-.499605-1.1160005-1.1165-1.1160005zM4.0051158 5.9860666c-.2760055 0-.4991057-.2235993-.4991057-.4991057 0-.2760055.2231002-.4991058.4991057-.4991058.2755064 0 .4991058.2231003.4991058.4991058 0 .2755064-.2235994.4991057-.4991058.4991057zm1.9964231-.020962c-.2760055 0-.4991058-.2235994-.4991058-.4991058 0-.2760055.2231003-.4991057.4991058-.4991057.2755064 0 .4991058.2231002.4991058.4991057 0 .2755064-.2235994.4991058-.4991058.4991058zm2.0064051.010481c-.275506 0-.499106-.2231003-.499106-.4991057 0-.2755064.2236-.4991058.499106-.4991058.276006 0 .499106.2235994.499106.4991058 0 .2755063-.2236.4991057-.499106.4991057zm1.986441.010481c-.276005 0-.499106-.2235993-.499106-.4991057 0-.2760055.223101-.4991058.499106-.4991058.275506 0 .499106.2231003.499106.4991058 0 .2755064-.2236.4991057-.499106.4991057z"/>
</svg>
