<svg aria-hidden="true" xmlns="http://www.w3.org/2000/svg" viewBox="0 0 14 14" height="1em" width="1em">
  <path d="M1.746 11.51h.753v-.754h-.753zM1 10.781h.753v-.753H1zm9.364-3.31c0-.485-.1-.865-.301-1.14a.954.954 0 0 0-.821-.416.964.964 0 0 0-.825.416c-.198.275-.298.655-.298 1.14 0 .485.1.866.298 1.144.2.275.476.412.825.412a.957.957 0 0 0 .82-.412c.202-.278.302-.659.302-1.144M8.119 6.07c.139-.239.314-.416.524-.53.213-.118.466-.176.76-.176.488 0 .883.193 1.187.58.306.388.459.897.459 1.528s-.153 1.14-.46 1.527a1.433 1.433 0 0 1-1.186.581 1.58 1.58 0 0 1-.76-.172 1.39 1.39 0 0 1-.524-.534v.602h-.663V3.897h.663V6.07M5.176 7.458c-.533 0-.902.06-1.108.182-.205.122-.308.33-.308.624 0 .235.076.421.23.56.155.136.365.204.63.204.366 0 .659-.129.879-.387.222-.26.333-.606.333-1.036v-.147h-.656m1.316-.273v2.291h-.66v-.61a1.45 1.45 0 0 1-.563.542c-.224.115-.5.172-.824.172-.412 0-.739-.114-.983-.344-.241-.232-.362-.541-.362-.929 0-.451.15-.792.452-1.022.303-.229.755-.344 1.355-.344h.925v-.064c0-.304-.1-.538-.3-.703-.2-.167-.479-.251-.84-.251a2.658 2.658 0 0 0-1.298.33v-.61c.242-.093.476-.162.703-.208.227-.047.448-.071.663-.071.581 0 1.015.15 1.302.451.287.302.43.758.43 1.37m5.755 4.324H13v-.753h-.753zm-1.507 0h.753v-.753h-.753zm-1.507 0h.753v-.753h-.753zm-1.507 0h.753v-.753h-.753zm-1.507 0h.753v-.753H6.22zm-1.507 0h.754v-.753h-.754zm-1.507 0h.754v-.753h-.754zM1 9.272h.753v-.754H1zm11.247.772H13v-.753h-.753zm0-1.507H13v-.753h-.753zm0-1.507H13v-.753h-.753zm0-1.507H13V4.77h-.753zm0-1.507H13v-.753h-.753zM1 7.765h.753V7.01H1zm0-1.507h.753v-.754H1zM1 4.75h.753v-.753H1zm0-1.507h.753V2.49H1zm10.497.013h.753v-.753h-.753zm-1.507 0h.753v-.753H9.99zm-1.507 0h.753v-.753h-.753zm-1.507 0h.753v-.753h-.753zm-1.507 0h.754v-.753h-.754zm-1.507 0h.754v-.753h-.754zm-1.507 0h.754v-.753h-.754z"/>
</svg>
