<svg role="img" focusable="false" aria-hidden="true" xmlns="http://www.w3.org/2000/svg" viewBox="0 0 14 14" height="1em" width="1em">
  <path d="m 8.129367,10.580762 c 0.2815743,0.175014 1.1676554,0.66213 2.072535,1.739599 0.817999,-0.33423 1.600915,-0.653431 2.377526,-0.970093 -0.352194,-0.86475 -0.08478,-1.348129 -0.43533,-2.2070481 C 11.904739,8.5570734 11.701693,8.5004814 11.312761,8.4804174 l 0.122832,0.30288 c 0.07476,0.18234 -0.200952,0.293484 -0.27447,0.112164 l -0.110292,-0.269658 c -0.08942,-0.22017 -0.376843,-0.163974 -0.628363,-0.165444 l 0.149568,0.366798 c 0.07396,0.181518 -0.200532,0.294306 -0.27489,0.112164 L 10.16766,8.6211654 C 10.07575,8.3962134 9.7762126,8.4611814 9.5226284,8.4655434 l 0.1583402,0.388326 c 0.07476,0.183192 -0.2013542,0.2934605 -0.2748962,0.112614 L 8.7631114,7.393378 C 8.5634254,6.9041675 7.8055767,7.1940878 8.0119649,7.7002183 L 8.9603254,10.025119 C 8.8216234,9.9327909 8.5659394,9.8187549 8.3913033,9.7777869 7.8506848,9.6495489 7.5031224,10.191385 8.129367,10.580762 Z M 2,2.1992188 C 1.725,2.1992187 1.4888021,2.2983073 1.2929688,2.4941406 1.0971354,2.689974 1,2.9242188 1,3.1992188 l 0,7.6015622 c 0,0.275 0.097135,0.509245 0.2929688,0.705078 C 1.4888021,11.701693 1.725,11.800781 2,11.800781 l 4.3144531,0 0,-0.800781 L 2,11 c -0.054167,0 -0.101045,-0.01901 -0.140625,-0.05859 -0.039587,-0.03955 -0.058594,-0.08643 -0.058594,-0.140625 l 0,-7.6015622 c 0,-0.054167 0.01901,-0.1010584 0.058594,-0.140625 C 1.8989583,3.0189937 1.9458333,3 2,3 l 10,0 c 0.05417,0 0.101058,0.019007 0.140625,0.058594 0.0396,0.039613 0.05859,0.086492 0.05859,0.140625 l 0,3.09375 0.800781,0 0,-3.09375 C 13,2.9242188 12.902865,2.689974 12.707031,2.4941406 12.511198,2.2983073 12.275,2.1992188 12,2.1992188 l -10,0 z m 1.8007812,1.6015624 c -0.3333333,0 -0.6182291,0.1162761 -0.8515624,0.3496094 C 2.7158854,4.383724 2.5996094,4.6666667 2.5996094,5 c 0,0.3333333 0.116276,0.616276 0.3496094,0.8496094 0.2333333,0.2333333 0.5182291,0.3496094 0.8515624,0.3496094 0.3333334,-10e-8 0.6162761,-0.1162761 0.8496094,-0.3496094 C 4.883724,5.616276 5,5.3333333 5,5 5,4.6666667 4.883724,4.383724 4.6503906,4.1503906 4.4170573,3.9170573 4.1341146,3.8007812 3.8007812,3.8007812 Z m 5,1 L 5.5996094,8 l -1,-1 -2,2 0,1.199219 3.7148437,0 0,-1.1269534 A 2.7780557,2.7780557 0 0 1 9.09375,6.2929688 l 1.199219,0 -1.4921878,-1.4921876 z"/>
</svg>
