<svg aria-hidden="true" xmlns="http://www.w3.org/2000/svg" viewBox="0 0 14 14" height="1em" width="1em">
  <path fill="#e32629" d="M7 1a6 6 0 1 0 0 12A6 6 0 0 0 7 1zm4.776 4.085-1.647.506a3.42 3.42 0 0 0-.705-1.018 3.42 3.42 0 0 0-1.018-.704l.507-1.648a5.15 5.15 0 0 1 1.722 1.139c.5.503.886 1.087 1.14 1.725zM7 9.57a2.572 2.572 0 1 1 .001-5.144A2.572 2.572 0 0 1 7 9.571zM3.362 3.363a5.11 5.11 0 0 1 1.723-1.139l.506 1.647a3.42 3.42 0 0 0-1.018.705c-.3.3-.536.643-.704 1.018L2.22 5.088a5.183 5.183 0 0 1 1.141-1.725zM2.224 8.915l1.647-.506a3.445 3.445 0 0 0 1.723 1.722l-.507 1.648a5.15 5.15 0 0 1-1.722-1.139 5.155 5.155 0 0 1-1.14-1.725zm8.413 1.723c-.5.5-1.084.883-1.722 1.138l-.506-1.647a3.42 3.42 0 0 0 1.018-.705c.3-.3.535-.643.704-1.018l1.648.506a5.183 5.183 0 0 1-1.142 1.725z"/>
</svg>
