<svg aria-hidden="true" xmlns="http://www.w3.org/2000/svg" viewBox="0 0 14 14" height="1em" width="1em">
  <path d="M1.75 11.875v-9.75C1.75 1.504 2.254 1 2.875 1h8.25c.621 0 1.125.504 1.125 1.125v9.75c0 .621-.504 1.125-1.125 1.125h-8.25a1.125 1.125 0 0 1-1.125-1.125Zm9-6.656V2.78a.281.281 0 0 0-.281-.281H3.53a.281.281 0 0 0-.281.281v2.44c0 .155.126.281.281.281h6.938a.281.281 0 0 0 .281-.281Zm-6 3V7.28A.281.281 0 0 0 4.469 7H3.53a.281.281 0 0 0-.281.281v.938c0 .155.126.281.281.281h.938a.281.281 0 0 0 .281-.281Zm6 3V7.28a.281.281 0 0 0-.281-.28H9.53a.281.281 0 0 0-.281.281v3.938c0 .155.126.281.281.281h.938a.281.281 0 0 0 .281-.281zm-6 0v-.938A.281.281 0 0 0 4.469 10H3.53a.281.281 0 0 0-.281.281v.938c0 .155.126.281.281.281h.938a.281.281 0 0 0 .281-.281Zm3-3V7.28A.281.281 0 0 0 7.469 7H6.53a.281.281 0 0 0-.281.281v.938c0 .155.126.281.281.281h.938a.281.281 0 0 0 .281-.281Zm0 3v-.938A.281.281 0 0 0 7.469 10H6.53a.281.281 0 0 0-.281.281v.938c0 .155.126.281.281.281h.938a.281.281 0 0 0 .281-.281Z"/>
</svg>
