<svg role="img" focusable="false" aria-hidden="true" xmlns="http://www.w3.org/2000/svg" viewBox="0 0 14 14" height="1em" width="1em">
  <path fill="gray" d="M5.459789 4.64957q-.40178.61607-.91741 1.82813-.14732-.30134-.24777-.4855-.10044-.18415-.2712-.42522-.17076-.24107-.34152-.37835-.17076-.13727-.42188-.23437-.25111-.0971-.54575-.0971H1.214255q-.09375 0-.154018-.0603-.060268-.0602-.060268-.15399V3.35716q0-.0937.06027-.15402.06027-.0603.154018-.0603h1.500004q1.6741 0 2.74553 1.5067zm7.54018 5.35045q0 .0937-.0603.15402l-2.14285 2.14285q-.0603.0603-.15402.0603-.0871 0-.15067-.0636-.0636-.0636-.0636-.15067v-1.28571q-.21428 0-.5692.003-.35491.003-.54241.007-.1875.003-.48884-.007-.30133-.0101-.47544-.0335-.17411-.0234-.42857-.0703-.25447-.0469-.42188-.12388-.16741-.077-.38839-.19085-.22098-.11384-.39509-.26786-.17411-.15401-.3683-.35825-.1942-.20425-.375-.46541.39509-.62276.91071-1.82812.14732.30134.24777.48549.10044.18415.2712.42522.17076.24107.34152.37835t.42188.23438q.25111.0971.54576.0971h1.71428V7.85687q0-.0937.0603-.15402.0603-.0603.15402-.0603.0803 0 .16071.067l2.13616 2.13616q.0603.0603.0603.15402z"/>
  <path d="M12.999969 4.00002q0 .0937-.0603.15401l-2.14285 2.14286q-.0603.0603-.15402.0603-.0871 0-.15067-.0636-.0636-.0636-.0636-.15067V4.85721h-1.71428q-.32143 0-.58259.10045-.26116.10044-.46206.30134-.20089.20089-.34152.41183-.14062.21093-.30133.51897-.21429.41518-.52233 1.14509-.19419.44196-.33147.7433-.13728.30134-.36161.70313-.22433.40178-.42857.66964t-.49553.5558q-.2913.28795-.60268.45871-.31139.17076-.71317.28125-.40179.11049-.85714.11049H1.214245q-.09375 0-.154018-.0603-.060258-.0603-.060258-.15404V9.35716q0-.0937.06027-.15402.06027-.0603.154018-.0603h1.500004q.32142 0 .58258-.10044.26117-.10045.46206-.30134t.34152-.41183q.14062-.21094.30134-.51898.21428-.41517.52232-1.14508.19419-.44197.33147-.74331.13728-.30134.36161-.70312.22433-.40179.42857-.66965.20424-.26785.49553-.5558.2913-.28795.60268-.45871.31139-.17075.71317-.28124.40179-.1105.85715-.1105h1.71428V1.85713q0-.0937.0603-.15402.0603-.0603.15402-.0603.0803 0 .16071.067l2.13616 2.13616q.0603.0603.0603.15402z"/>
</svg>
