<svg role="img" focusable="false" aria-hidden="true" xmlns="http://www.w3.org/2000/svg" viewBox="0 0 14 14" height="1em" width="1em">
  <path d="M12.11168714 8.7835473v1.49945035q0 .939129-.66685257 1.60598158-.6668643.6668643-1.6059933.6668643H3.27284594q-.939129 0-1.60598627-.6668643-.66685961-.66685257-.66685961-1.60598158v-6.5659953q0-.939129.66685961-1.60599331.66685727-.66685258 1.60598627-.66685258h6.56599531q.4971887 0 .92334877.19729394.11836933.05526014.14204554.18151371.02369968.13416129-.0709817.22886613l-.38670363.3866919q-.11052028.11052027-.25254235.06312092-.1815137-.04739936-.35513143-.04739936h-6.5659953q-.52086492 0-.89177659.3709234-.37091519.37091167-.37091519.89177658V10.282939q0 .52086492.37091519.89177658.37091167.37091167.89177658.37091167h6.5659953q.52086492 0 .89177659-.37091167.3709234-.37091166.3709234-.89177658v-.99436567q0-.10254217.0709817-.17362946l.50508469-.50507295q.11836932-.11838106.27620682-.05526014.1578375.06312092.1578375.2288544z"/>
  <path fill="#e57373" d="M12.89698272 4.28720834L11.935489 3.3257289c-.13735628-.13738772-.37772966-.13738772-.54942502 0l-.4464078.44642212 1.51091875 1.51091303.4464078-.44642212c.13735629-.13738773.13735629-.3776696 0-.54943359z"/>
  <path fill="#ff9800" d="M5.94927553 8.774299l4.22432263-4.22432264 1.50521836 1.50521837-4.22432263 4.22432263z"/>
  <path fill="#b0bec5" d="M12.45053694 5.29608444l-.75260919.75260919-1.50521836-1.50521836.75260919-.7526092z"/>
  <path fill="#ffc107" d="M5.96049222 8.7855942l-.51508594 1.99166565 1.99166564-.51508595z"/>
  <path fill="#37474f" d="M5.68577972 9.74708796l-.24037344 1.03017189 1.03017189-.24037344z"/>
</svg>
