<svg aria-hidden="true" xmlns="http://www.w3.org/2000/svg" viewBox="0 0 14 14" height="1em" width="1em">
  <path d="M1 11.667h12V13H1v-1.333z"/>
  <path fill="gray" d="M1 1h1.333v1.333H1V1zm0 2.667h1.333V5H1V3.667zm0 2.666h1.333v1.334H1V6.333zM1 9h1.333v1.333H1V9zm2.667-8H5v1.333H3.667V1zm0 5.333H5v1.334H3.667V6.333zM6.333 1h1.334v1.333H6.333V1zm0 2.667h1.334V5H6.333V3.667zm0 2.666h1.334v1.334H6.333V6.333zm0 2.667h1.334v1.333H6.333V9zM9 1h1.333v1.333H9V1zm0 5.333h1.333v1.334H9V6.333zM11.667 1H13v1.333h-1.333V1zm0 2.667H13V5h-1.333V3.667zm0 2.666H13v1.334h-1.333V6.333zm0 2.667H13v1.333h-1.333V9z"/>
</svg>
