<svg aria-hidden="true" xmlns="http://www.w3.org/2000/svg" viewBox="0 0 14 14" height="1em" width="1em">
  <path d="M10.925 10.042q0-.101-.068-.175-.069-.075-.162-.075h-.923q-.094 0-.163.075-.068.074-.068.175 0 .102.068.176.069.074.163.074h.923q.093 0 .162-.074.068-.074.068-.176zm2.077-.75v3.75q0 .102-.068.176-.069.074-.162.074H7.695q-.094 0-.163-.074-.068-.074-.068-.176v-3.75q0-.101.068-.175.069-.075.163-.075h5.077q.093 0 .162.075.068.074.068.175zm.231-1.75v1q0 .102-.068.176-.069.074-.163.074H7.464q-.094 0-.162-.074-.069-.074-.069-.176v-1q0-.101.069-.175.068-.075.162-.075h5.538q.094 0 .163.075.068.074.068.175zM2.145.998a.368.368 0 0 0-.02.002.368.368 0 0 0-.281.375v11.25a.368.368 0 0 0 .375.375h4.336v-.75H2.594V1.719h8.812v4.806h.75v-5.15A.368.368 0 0 0 11.781 1H2.22a.368.368 0 0 0-.074-.002Zm8.98.94-1.938.03v.095l1.938-.032zm0 .218-1.938.031v.094l1.938-.031Zm0 .188-1.938.031v.094l1.938-.031zm0 .187-1.938.031v.094l1.938-.031Zm0 .188-1.938.031v.094l1.938-.031Zm-5.969.156-1.937.031V3l1.937-.031Zm2.875 0-1.906.031V3l1.906-.031Zm-2.875.219-1.937.031v.094l1.937-.031zm2.875 0-1.906.031v.094l1.906-.031zm-2.875.187-1.937.031v.094l1.937-.031zm2.875 0-1.906.031v.094l1.906-.031Zm-2.875.188L3.22 3.5v.094l1.937-.031zm2.875 0L6.125 3.5v.094l1.906-.031zm-2.875.187-1.937.031v.094l1.937-.031Zm2.875 0-1.906.031v.094l1.906-.031Zm-4.969.938v5.25h3.493v-.219h-1.43v-.063a5.96 5.96 0 0 0-.016-.253c.27-.002 1.063-.003 1.446-.006v-.116H5.104c-.004-.065-.01-.067-.01-.156v-.125h1.46v-.094h-1.46V8.5h1.46v-.094h-1.46v-.281h1.46v-.104c-.38.004-1.193.004-1.46.006v-.312c.267-.002 1.08-.003 1.46-.006v-.115h-1.46V7.28h1.46v-.094h-1.46V6.87c.267-.002 1.08-.003 1.46-.006V6.75h-1.46v-.344H7.25v.12h.094v-.12h1.468v.12h.106v-.12h1.832v.12h.219V4.593H3.187zm.22.218H5v.25h-.813c-.473.002-.725-.001-.843 0H3.28zm1.812 0H7.25v.25H5.094v-.25zm2.25 0h1.468v.25H7.345v-.25zm1.562 0h1.844v.25H8.908c0-.133-.002-.108-.002-.25zm-5.625.344h.063c.118-.001.37.002.844 0H5v.34l-.844.004c-.474.002-.725-.001-.843 0H3.28zm1.813 0H7.25v.33c-.662.005-1.755.007-2.156.01v-.34zm2.25 0h1.468v.323c-.608.002-1.008.002-1.468.005v-.328zm1.566 0h1.84v.313c-1.047 0-1.063.006-1.838.01l-.002-.323Zm-5.629.438h.031c.119-.002.37.002.844 0H5v.312h-.844c-.474.002-.694-.001-.812 0H3.28zm1.813 0H7.25v.312H5.094v-.312zm2.25 0h1.468v.312H7.345v-.312zm1.568 0h1.838v.312H8.914l-.002-.312zM3.282 6h.062c.118-.001.338.002.812 0H5v.313h-.813c-.473.001-.693-.002-.812 0h-.094zm1.812 0H7.25v.313c-.658 0-1.758-.001-2.156 0V6zm2.25 0h1.468v.313H7.345V6zm1.572 0h1.834v.313H8.918L8.916 6Zm-4.729.406H5v.344h-.781c-.474.002-.725-.001-.844 0-.06 0-.078.03-.094.031v-.343h.094c.118-.002.339-.03.813-.032ZM5 6.871v.316h-.813c-.473.002-.693-.001-.812 0-.045.001-.07 0-.094 0v-.312h.094c.118-.001.37.002.844 0L5 6.871Zm-1.625.41c.118-.001.339.002.813 0H5v.313h-.781c-.474.002-.725.03-.844.031h-.094v-.32c.024-.009.05-.023.094-.024ZM5 7.715v.312l-.781.004c-.474.002-.725-.001-.844 0-.06.001-.078 0-.094 0V7.72h.094c.118-.002.37.002.844 0L5 7.715Zm-1.719.41h.094c.118-.001.37.002.844 0H5v.281h-.781c-.474.002-.725-.001-.844 0-.06.001-.078 0-.094 0zm0 .375h.094c.118-.001.37.002.844 0H5v.313h-.844c-.474.001-.725-.002-.843 0H3.28zm0 .406h.031c.119-.001.37.002.844 0H5v.281h-.844c-.474.002-.694.03-.812.032H3.28zM5 9.31v.254c0 .038.03.052.031.062h-1.75v-.313h.063c.118 0 .338.002.812 0L5 9.31Zm1.25.722-3.125.031v.094l3.125-.031Zm-3.125.219v.125l3.125-.031v-.094zm3.125.188-3.125.03v.095l3.125-.032zm0 .187-3.125.031v.094l3.125-.031zm0 .188-3.125.03v.095l3.125-.032zm0 .187-3.125.031v.094l3.125-.031zm0 .219-3.125.031v.094l3.125-.031zm0 .187-3.125.031v.094L6.25 11.5Zm0 .188-3.125.031v.094l3.125-.031zm0 .187-3.125.031v.094l3.125-.031Z"/>
</svg>
