<svg role="img" focusable="false" aria-hidden="true" xmlns="http://www.w3.org/2000/svg" viewBox="0 0 14 14" height="1em" width="1em">
  <path fill="#2e7d32" d="M7.4 2.02857135c-.22857143-.22857143-.57142857-.22857143-.8 0L3.1714285 5.45714283c-.22857143.22857144-.22857143.57142858 0 .80000002.11428572.11428571.25714286.17142857.40000001.17142857.14285714 0 .28571429-.05714286.4-.17142857L7.4 2.82857137c.22857143-.22857144.22857143-.57142858 0-.80000002z"/>
  <path fill="#1b5e20" d="M10.82857149 5.45714283L7.4 2.02857135c-.22857144-.22857143-.57142858-.22857143-.80000002 0-.22857143.22857144-.22857143.57142858 0 .80000002l3.42857148 3.42857148c.11428572.11428571.25714286.17142857.40000001.17142857.14285714 0 .28571429-.05714286.4-.17142857.22857144-.22857144.22857144-.57142858 0-.80000002z"/>
  <path fill="#388e3c" d="M10.82857149 12.14285722H3.1714285c-.28571429 0-.51428572-.2-.57142858-.45714286L1.5714285 6.42857142h10.85714302l-1.05714287 5.25714294c-.05714286.25714286-.2857143.45714286-.54285715.45714286z"/>
  <path fill="#4caf50" d="M12.42857151 7H1.57142849c-.31428572 0-.57142858-.25714286-.57142858-.57142858v-.57142858c0-.31428572.25714286-.57142858.57142858-.57142858h10.85714302c.31428572 0 .57142858.25714286.57142858.57142858v.57142858c0 .31428572-.25714286.57142858-.57142858.57142858z"/>
  <path fill="#dcedc8" d="M8.94285717 7.51428572l-2.25714289 2.2571429-1.05714287-1.0857143-.62857144.62857143 1.68571431 1.68571431 2.88571433-2.88571433z"/>
</svg>
