<svg role="img" focusable="false" aria-hidden="true" xmlns="http://www.w3.org/2000/svg" viewBox="0 0 14 14" height="1em" width="1em">
  <path fill="green" d="M11.512914 4.903743c0-.659694-.539751-1.199445-1.199446-1.199445H8.5142995c-.209903 0-.329847-.239889-.209903-.419806.179917-.299861.269875-.659695.179917-1.049515-.119945-.599722-.569737-1.0795-1.139473-1.199445-.989543-.20990296-1.829154.53975-1.829154 1.469321 0 .299861.08996.53975.209903.779639.119944.179917 0 .419806-.239889.419806h-1.799169c-.6596946 0-1.199445.539751-1.199445 1.199445v2.09903c0 .209903.2398891.329847.4198059.209903.2998613-.179917.659695-.269875 1.0495151-.179917.599722.119945 1.0795.569737 1.199445 1.139473.209903.959557-.53975 1.829154-1.469321 1.829154-.2998609 0-.53975-.08996-.7796391-.209902-.1499307-.119945-.3898198 0-.3898198.209902v1.799169C2.5170726 12.46025 3.0568231 13 3.7165185 13h6.5969485c.659695 0 1.199446-.53975 1.199446-1.199445V4.903743z"/>
</svg>
