<svg role="img" focusable="false" aria-hidden="true" xmlns="http://www.w3.org/2000/svg" viewBox="0 0 14 14" height="1em" width="1em">
  <path d="M8.71436 10.42863H7.8571V3.571452h.85726c.11605 0 .21657-.04241.30131-.127233.0847-.08482.12715-.18526.12715-.301315 0-.116055-.0422-.216493-.12731-.301397L7.30132 1.127233C7.21658 1.042411 7.11606 1 7 1c-.11605 0-.21649.04241-.30131.127233L4.98441 2.841507c-.0848.0849-.12723.185342-.12723.301397 0 .116055.0424.216493.12723.301315.0849.08482.18535.127233.3014.127233h.85718v6.857178h-.8571c-.11613 0-.21657.04241-.30139.127151-.0848.0849-.12724.185425-.12724.301397 0 .116055.0424.216493.12724.301397l1.71427 1.714192c.0848.08482.18526.127233.30131.127233.11606 0 .21658-.04241.30132-.127233l1.71427-1.714192c.0847-.0849.12715-.185342.12715-.301397 0-.115972-.0424-.216493-.12715-.301397-.0847-.08482-.18518-.127151-.30131-.127151z"/>
</svg>
