<svg aria-hidden="true" xmlns="http://www.w3.org/2000/svg" viewBox="0 0 14 14" height="1em" width="1em">
  <path d="M6.859 12.806c0-.5-.21-.852-.935-1.563l-.704-.69-.696-1.38c-.539-1.07-.812-1.526-1.215-2.027-.606-.756-.657-.957-.295-1.184.315-.198.795-.15 1.174.116.302.213.71.692 1.05 1.237.252.403.401.508.57.402.11-.07.121-.3.138-2.943l.018-2.867.18-.143c.263-.206.778-.197.979.017.143.153.15.217.15 1.562v1.402l.176-.19c.16-.173.211-.188.53-.158.469.045.673.266.673.726 0 .309.004.316.105.172.058-.083.214-.171.346-.196.469-.088.928.26.928.704 0 .232 0 .232.138.094.28-.28.901-.102 1.073.31.074.178.097.674.101 2.182l.006 1.951-.312.623c-.396.795-.505 1.107-.563 1.621l-.047.416H6.859v-.195zM3.273 3.829v-.966h-.622l.453-.904.454-.904.432.887.433.887-.3.02-.298.022v1.923h-.552V3.83zm2.214-1.064A1.235 1.235 0 0 1 6.617 1c.333 0 .747.172.946.392.31.342.411.936.234 1.36-.185.443-.274.386-.23-.147.055-.652-.11-1.01-.554-1.206-.396-.175-.705-.12-1.039.186-.25.228-.253.24-.29.875l-.037.643z"/>
</svg>
