<svg role="img" focusable="false" aria-hidden="true" xmlns="http://www.w3.org/2000/svg" viewBox="0 0 14 14" height="1em" width="1em">
  <g fill="#ffa000">
    <path d="M8.71428574 10.14285719l-.57142858.57142858.57142858.57142858v.57142858l-1.14285716 1.14285716H6.42857142l-1.14285716-1.14285716v-5.7142858h3.42857148v2.28571432l-.57142858.57142858.57142858.57142858z"/>
    <path d="M11.00000006 2.3714285c-.14285715-.51428572-.57142858-.8857143-1.05714287-1.02857144C9.25714289 1.1999999 8.20000002.9999999 7 .9999999c-1.20000002 0-2.2571429.2-2.94285719.34285715-.48571429.14285714-.91428573.51428572-1.05714287 1.02857144-.14285715.4857143-.28571429 1.1714286-.28571429 1.91428574 0 .74285716.14285714 1.42857145.28571429 1.91428575.14285714.51428572.54285715.8857143 1.05714287 1.00000001.6857143.17142858 1.74285717.37142858 2.94285719.37142858 1.20000002 0 2.2571429-.2 2.94285719-.34285715.51428572-.11428571.91428572-.51428572 1.05714287-1.00000001.14285714-.4857143.28571429-1.1714286.28571429-1.91428575 0-.77142858-.14285715-1.45714288-.28571429-1.94285717zM8.42857145 3.85714281h-2.8571429c-.31428572 0-.57142858-.25714286-.57142858-.57142858v-.57142858c0-.17142857.8857143-.28571429 2.00000003-.28571429 1.11428573 0 2.00000003.11428572 2.00000003.28571429v.57142858c0 .31428572-.25714286.57142858-.57142858.57142858z"/>
  </g>
  <path fill="#d68600" d="M6.71428571 7.57142858h.57142858v5.42857151h-.57142858z"/>
</svg>
