<svg role="img" focusable="false" aria-hidden="true" xmlns="http://www.w3.org/2000/svg" viewBox="0 0 14 14" height="1em" width="1em">
  <path d="m 8,10.5 -2,0 C 5.862,10.5 5.75,10.612 5.75,10.75 5.75,10.888 5.862,11 6,11 l 2,0 C 8.138,11 8.25,10.888 8.25,10.75 8.25,10.612 8.138,10.5 8,10.5 Z m 0,1 -2,0 C 5.862,11.5 5.75,11.612 5.75,11.75 5.75,11.888 5.862,12 6,12 l 2,0 C 8.138,12 8.25,11.888 8.25,11.75 8.25,11.612 8.138,11.5 8,11.5 Z m 0.125,1 -2.25,0 0.594,0.391 C 6.546,12.96 6.659,13 6.7765,13 l 0.4475,0 c 0.117,0 0.2305,-0.04 0.3075,-0.109 L 8.125,12.5 Z M 10,5.6005 C 10,7.385 8.393,8.592 8.393,10 l -2.7860002,0 c 0,-1.408 -1.6069999,-2.615 -1.6069999,-4.3995 0,-1.8615 1.499,-2.886 2.9984999,-2.886 C 8.4989999,2.7145 10,3.74 10,5.6005 Z m 2,-0.3455 0,0.686 -1.269,0 c 0.01,-0.1115 0.019,-0.224 0.019,-0.3405 0,-0.1185 -0.0085,-0.232 -0.0175,-0.345 l 1.2675,0 z m -5.3240002,-3.2765 0,-0.9785 0.6855001,0 0,0.982 c -0.121,-0.011 -0.242,-0.018 -0.3630001,-0.018 -0.1075,0 -0.215,0.01 -0.3225,0.014 z M 9.4364999,2.7505 10.221499,1.879 10.731,2.338 9.9295,3.2265 C 9.8045003,3.078 9.6329998,2.8905 9.4364999,2.7505 Z m -5.369,0.476 -0.8015,-0.8885 0.5095,-0.459 0.785,0.8715 c -0.196,0.14 -0.368,0.3275 -0.493,0.476 z M 3.269,5.941 l -1.2690001,0 0,-0.686 1.2675,0 c -0.009,0.113 -0.0175,0.227 -0.0175,0.3455 0,0.1165 0.009,0.229 0.019,0.3405 z"/>
</svg>
