<svg role="img" focusable="false" aria-hidden="true" xmlns="http://www.w3.org/2000/svg" viewBox="0 0 14 14" height="1em" width="1em">
  <path fill="#3f51b5" d="M13 2.7142855H1v8.5714295h12V2.7142855zM6.4285714 10.714286V9.5714285h1.1428572v1.1428575H6.4285714zm2.2857146 0V9.5714285h1.142857v1.1428575H8.714286zm2.285714 0V9.5714285h1.142857v1.1428575H11zm-6.8571429 0V9.5714285h1.1428572v1.1428575H4.1428571zm-2.2857142 0V9.5714285H3v1.1428575H1.8571429zm4.5714285-6.2857145v-1.142857h1.1428572v1.142857H6.4285714zm2.2857146 0v-1.142857h1.142857v1.142857H8.714286zm2.285714 0v-1.142857h1.142857v1.142857H11zm-6.8571429 0v-1.142857h1.1428572v1.142857H4.1428571zm-2.2857142 0v-1.142857H3v1.142857H1.8571429z"/>
</svg>
