<svg role="img" focusable="false" aria-hidden="true" xmlns="http://www.w3.org/2000/svg" viewBox="0 0 14 14" height="1em" width="1em">
  <path d="m 2.6213487,9.0700335 c -0.39071,-0.097 -0.70465,-0.2754 -0.99526,-0.566 -0.83495006,-0.8349 -0.83476006,-2.1731 4.3e-4,-3.0083 1.22323,-1.2232 3.28705,-0.5652 3.60286,1.1488 0.27453,1.4899 -1.12623,2.7926 -2.60803,2.4255 z m 1.02028,-0.883 c 0.83023,-0.3772 1.03819,-1.4534 0.40349,-2.0881 -0.28694,-0.2869 -0.46668,-0.3572 -0.91422,-0.3572 -0.44509,0 -0.62754,0.071 -0.9077,0.3507 -0.23787,0.2378 -0.33343,0.449 -0.36605,0.8088 -0.0354,0.3905 0.0754,0.7056 0.34632,0.9845 0.3781,0.3893 0.97095,0.5135 1.43816,0.3013 z m 2.49291,-1.1869 0,-1.2873 3.43273,0 3.4327303,0 0,1.2873 0,1.2872 -3.4327303,0 -3.43273,0 0,-1.2872 z"/>
</svg>
