<svg role="img" focusable="false" aria-hidden="true" xmlns="http://www.w3.org/2000/svg" viewBox="0 0 14 14" height="1em" width="1em">
  <path d="m 10.747763,8.225634 0.560172,-1.46723 c 0.09375,-0.2461 -0.08672,-0.50861 -0.351572,-0.50861 l -1.3711332,0 c 0.2578199,-0.44298 0.4171992,-0.95159 0.4171992,-1.50004 l 0,-0.007 c 0.918776,-0.18281 1.500043,-0.44767 1.500043,-0.74299 0,-0.31172 -0.639862,-0.58829 -1.6430156,-0.77346 C 9.6438252,2.457534 9.2266259,1.684074 8.9078668,1.285624 8.6852042,1.006714 8.3008183,0.91999396 7.9820592,1.079374 l -0.6468934,0.32344 c -0.2109435,0.10548 -0.4593881,0.10548 -0.6703316,0 L 6.0179408,1.079374 c -0.3187591,-0.15938004 -0.7031451,-0.0727 -0.9258076,0.20625 -0.3164153,0.39845 -0.7359585,1.17191 -0.9515896,1.94068 -1.0008098,0.18517 -1.6406717,0.46174 -1.6406717,0.77346 0,0.29532 0.5812665,0.56018 1.5000427,0.74299 l 0,0.007 c 0,0.54845 0.1593795,1.05706 0.4171993,1.50004 l -1.3476946,0 c -0.2695389,0 -0.4500128,0.27422 -0.344541,0.52267 l 0.6047047,1.41098 c -0.9398705,0.54611 -1.5797325,1.5516 -1.5797325,2.71648 l 0,1.05003 c 0,0.57892 0.4711072,1.05003 1.0500299,1.05003 l 8.4002396,0 c 0.578922,0 1.050029,-0.47111 1.050029,-1.05003 l 0,-1.05003 c 0,-1.13441 -0.604704,-2.11881 -1.502386,-2.67429 z m -4.8727951,4.02433 -0.9750277,-4.50013 1.1625331,0.75002 0.562516,0.93753 -0.7500214,2.81258 z m 2.2500641,0 -0.7500213,-2.81258 0.562516,-0.93753 1.1625331,-0.75002 -0.9750278,4.50013 z m 0.9773716,-6.99629 c -0.091409,0.27891 -0.1640672,0.57657 -0.3867298,0.78283 -0.2367255,0.21798 -1.125032,0.52502 -1.5000427,-0.58595 -0.065627,-0.19688 -0.3609478,-0.19688 -0.4289184,0 -0.3984489,1.17659 -1.3125374,0.75939 -1.5000428,0.58595 -0.2226625,-0.20626 -0.2976647,-0.50392 -0.3867297,-0.78283 -0.01875,-0.0586 -0.1476605,-0.1336 -0.1476605,-0.13595 l 0,-0.25313 c 0.6633002,0.0844 1.4297282,0.13594 2.2500641,0.13594 0.8203358,0 1.5867639,-0.0492 2.2500641,-0.13594 l 0,0.25313 c -0.00234,0.002 -0.1312538,0.075 -0.1500043,0.13595 z"/>
</svg>
