<svg role="img" focusable="false" aria-hidden="true" xmlns="http://www.w3.org/2000/svg" viewBox="0 0 14 14" height="1em" width="1em">
  <g transform="translate(-.02439032 .12195114) scale(.29268)">
    <path fill="#cfd8dc" d="M12 40V20h32v20c0 2.2-1.8 4-4 4H16c-2.2 0-4-1.8-4-4z"/>
    <path fill="#78909c" d="M44 16v6H12v-6c0-2.2 1.8-4 4-4h24c2.2 0 4 1.8 4 4z"/>
    <g fill="#37474f">
      <circle cx="37" cy="16" r="3"/>
      <circle cx="20" cy="16" r="3"/>
    </g>
    <path fill="#b0bec5" d="M37 10c-1.1 0-2 .9-2 2v4c0 1.1.9 2 2 2s2-.9 2-2v-4c0-1.1-.9-2-2-2zm-17 0c-1.1 0-2 .9-2 2v4c0 1.1.9 2 2 2s2-.9 2-2v-4c0-1.1-.9-2-2-2z"/>
    <path fill="#90a4ae" d="M32 34h4v4h-4zm-6 0h4v4h-4zm-6 0h4v4h-4zm12-6h4v4h-4zm-6 0h4v4h-4zm-6 0h4v4h-4z"/>
    <circle cx="16" cy="15" r="12" fill="#f44336"/>
    <circle cx="16" cy="15" r="9" fill="#eee"/>
    <path d="M15 8h2v7h-2z"/>
    <path d="M20.5183 18.1009l-1.3433 1.3433-3.81780007-3.81780007 1.3433-1.3433z"/>
    <circle cx="16" cy="15" r="1.5"/>
  </g>
</svg>
