<svg aria-hidden="true" xmlns="http://www.w3.org/2000/svg" viewBox="0 0 14 14" height="1em" width="1em">
  <path d="M2.214 11.852a1.643 1.643 0 0 1-.496-.166c-.305-.174-.53-.486-.645-.898l-.053-.19-.01-4.23L1 2.135h10.505V3.63H13v3.455c0 3.631 0 3.604-.083 3.896-.11.389-.355.67-.713.818l-.153.064H7.19c-2.672 0-4.916 0-4.986-.014zm8.748-.798a1.043 1.043 0 0 1-.176-.438c-.012-.085-.02-1.502-.02-3.932v-3.8H1.757v3.79c0 4.054 0 3.864.093 4.07a.643.643 0 0 0 .423.356c.068.018 1.05.024 4.416.025h4.328l-.055-.072zM2.517 9.618c-.01-.01-.013-.848-.013-1.869V5.893h3.374V9.63H4.204c-.921 0-1.68-.01-1.687-.013zm4.128-.361v-.374h2.607v.748H6.645v-.374zm0-1.505v-.364h3.354v.728H6.645v-.364zm0-1.495v-.364h3.354v.728H6.645v-.364zm-4.136-1.5.01-.369h7.485v.748H2.508l.01-.37z"/>
</svg>
