<svg role="img" focusable="false" aria-hidden="true" xmlns="http://www.w3.org/2000/svg" viewBox="0 0 14 14" height="1em" width="1em">
  <path d="M8.6816406 0c-.2901 0-.5234375.16880625-.5234375.37890625V13.621094c0 .21.2333375.378906.5234375.378906h4.7929684c.29 0 .525391-.168906.525391-.378906V.37890625C14 .16880625 13.764609 0 13.474609 0H8.6816406zm.6875 1.1582031h3.4199214V4.375H9.3691406V1.1582031zm0 4.2851563h3.4199214v3.2148437H9.3691406V5.4433594zm0 4.2832031h3.4199214v3.2148435H9.3691406V9.7265625z"/>
  <path fill="green" d="M4.0319 3.0001q.264 0 .4658.1915l.3882.3882q.1965.1966.1965.4709 0 .2795-.1965.4658L3.3695 6.0382h3.6436q.2691 0 .4372.194.1683.1941.1683.4684v.6625q0 .2743-.1683.4684-.1681.1941-.4372.1941H3.3695l1.5164 1.5216q.1965.1863.1965.4658 0 .2795-.1965.4658l-.3882.3882q-.1967.1966-.4658.1966-.2742 0-.471-.1966L.1917 7.4977q-.1916-.1812-.1916-.4658 0-.2795.1916-.471l3.3692-3.3693q.2019-.1915.471-.1915z"/>
</svg>
