<svg aria-hidden="true" xmlns="http://www.w3.org/2000/svg" viewBox="0 0 14 14" height="1em" width="1em">
  <path d="M1 7V1h.834v1.733h.834v2.566h-.834v6.867h1.733v-.834h1.732v.834h.835v-.834h1.732v-.899h-.834V9.6h.834v.834H8.7v1.733h1.733v-.899H9.6v-.834h-.832L8.75 8.717 8.733 7l-1.717-.017-1.717-.017v.9H3.567v.835h-.834v-.834h.834v-.829L4 7.02 4.433 7l.02-.433.018-.433H2.733V5.3h1.732V3.567H5.3v-.834h.835V1h.83l.018.85L7 2.7l.433.02.433.019V1H8.7v.834h.9V1h.834v.834h.898V1h.835v.834H13v.867h-1.7l-.019.85-.017.85H8.7V5.3H7.032v-.835h.834v-.898H6.134v.834h-.835v1.733h4.3V5.3h3.4v.834h-.833v.898H13v.835h-1.663l-.019-.434L11.3 7l-.433-.019-.433-.019v-.828H9.6v1.732h1.668v.835h-.834v1.732h.834v1.733H13V13H1V7zm8.586-3.866-.02-.433h-.833l-.02.433-.018.433h.91l-.02-.433zm2.58 7.716v-.417h-.835V8.765H13v.834h-.834v.834H13v.834h-.834v-.417zm-9.433-.834V9.6h.834v.834h-.834v-.417zm1.732 0V9.6H5.3v-.834h.835v1.668h-1.67v-.417zm2.567-1.732v-.418h.834v.835h-.834v-.417zm5.134-4.3v-.417H13V4.4h-.834v-.417zM3.134 2.685l-.401-.023V1h.834v.866c0 .477-.007.861-.016.854a3.192 3.192 0 0 0-.417-.035zm1.331-1.268V1H5.3v.834h-.834v-.417z"/>
</svg>
