<svg aria-hidden="true" xmlns="http://www.w3.org/2000/svg" viewBox="0 0 14 14" height="1em" width="1em">
  <path d="M8.038 2.786h-.001c-.305-.084-.18-.516.319-1.023l-.002-.001c.078-.097-.1-.307-.437-.498-.371-.211-.79-.317-.935-.237-.007.004-.01.01-.015.014l-.003-.001c-.749.63-.886 1.544-.909 1.767C3.39 2.393 1 4.407 1 8.113 1 11.328 5.187 13 7 13c1.813 0 6-1.672 6-4.887 0-3.647-2.121-5.785-4.962-5.327m1.059 3.728c.226-.072 2.448-1.089 2.448-.79 0 .35-1.217 2.173-2.124 2.455-.287.09-1.377-.78-1.163-1.838.055-.267.53.273.839.173M7.675 1.69c.13.053.256.09.365.11-.262.36-.444.874-.293 1.013.186.17.575.388.692.478.116.09-.548.113-.82.396.001 0-.67-1.117.056-1.997M7 7.246c.234 0 1.143.41 1.143 1.087S7.63 8.4 7 8.4s-1.142.61-1.142-.068c0-.678.908-1.087 1.142-1.087m-.948-4.32c.06.417-.352.773-.352.773-.007-.273-.272-.437-.272-.437.185-.196.624-.336.624-.336M4.904 6.514c.31.1.784-.44.838-.173C5.956 7.4 4.866 8.27 4.579 8.18c-.906-.282-2.123-2.104-2.123-2.455 0-.299 2.222.718 2.448.79m6.166 3.878-.698-.395-.445 1.137-.73-.717-.571 1.36-1.492-1.063-.762.915-.825-.964-1.27.47-.738-1.303-.953.422-.625-2.556.958 1.6.933-.495.584 1.12 1.05-.609.857 1.154.807-1.104.988.742.603-.867.929.498.55-1.032.651.676 1.469-1.683-1.27 2.694"/>
</svg>
