<svg role="img" focusable="false" aria-hidden="true" xmlns="http://www.w3.org/2000/svg" viewBox="0 0 14 14" height="1em" width="1em">
  <path d="m 7.6414027,12.959363 c -1.0175,-0.1273 -1.45901,-0.3508 -1.69526,-0.8582 -0.0813,-0.1747 -0.14707,-0.4277 -0.1474,-0.5672 -3.3e-4,-0.1385 -0.0289,-0.3262 -0.0634,-0.417 -0.0346,-0.091 -0.51825,-0.6276 -1.07491,-1.1927 -1.11471,-1.1315 -1.40929,-1.5321 -1.683,-2.2886 -0.36846,-1.0182 -0.91098,-1.9228 -1.5988,-2.6658 -0.38462996,-0.4154 -0.43072996,-0.6249 -0.18777,-0.8531 0.23777,-0.2234 0.57459,-0.2241 1.26235,0 0.52771,0.1697 0.63229,0.2277 0.90502,0.5018 0.23211,0.2333 0.36504,0.4439 0.53755,0.8516 0.18268,0.4317 0.30395,0.6179 0.59766,0.9177 0.20267,0.2068 0.3845,0.3761 0.40406,0.3761 0.0196,0 0.1521,-0.3859 0.29453,-0.8576 0.29287,-0.9698 0.40193,-1.2122 0.64574,-1.435 0.47589,-0.4348 0.79758,-0.4721 1.27898,-0.1482 l 0.30768,0.2071 0.36546,-0.2522 c 0.29146,-0.2011 0.41828,-0.2522 0.62626,-0.2522 0.29196,0 0.50949,0.1567 0.63358,0.4563 l 0.0719,0.1735 0.15143,-0.1191 c 0.19897,-0.1565 0.58344,-0.2568 0.8010693,-0.209 0.16254,0.036 0.43162,0.288 0.49408,0.4633 0.0196,0.055 0.0727,0.036 0.18294,-0.065 0.19037,-0.1749 0.62873,-1.336 0.92304,-2.4448 0.25325,-0.9542 0.33915,-1.1564 0.52775,-1.2423 0.19038,-0.087 0.5316,-0.021 0.66728,0.1293 0.18571,0.2052 0.0892,0.9176 -0.35056,2.5873 -0.37281,1.4156 -0.39091,1.5175 -0.45399,2.5575 -0.13422,2.213 -0.41218,3.0824 -1.45059,4.5368 -0.23265,0.3259 -0.42301,0.631 -0.42301,0.678 0,0.047 -0.0418,0.246 -0.0928,0.4419 -0.1898093,0.7288 -0.5853593,0.9996 -1.5011093,1.0279 -0.2983,0.01 -0.72838,-0.01 -0.95575,-0.035 z"/>
</svg>
