<svg aria-hidden="true" xmlns="http://www.w3.org/2000/svg" viewBox="0 0 14 14" height="1em" width="1em">
  <path d="M12.373 10.74c-.034-.01-.038-.02-.024-.066.015-.054.024-.06.05-.038a.09.09 0 0 0 .054.018c.047 0 .086-.046.132-.154.041-.096.046-.067-.053-.311-.14-.35-.15-.366-.19-.366-.016 0-.023-.01-.023-.019 0-.019.01-.019.146-.019.14 0 .146 0 .146.019 0 .015-.01.019-.032.02-.057 0-.062.01-.042.075.021.067.132.345.142.356.01.011.166-.361.166-.397 0-.017-.031-.033-.063-.033-.018 0-.025-.01-.025-.02 0-.017.01-.018.121-.018.116 0 .122 0 .122.019 0 .012-.01.019-.018.019-.01 0-.029.01-.043.024-.026.026-.144.278-.28.596-.085.198-.118.255-.164.279a.216.216 0 0 1-.123.018zm-10.122-.353a.13.13 0 0 1-.09-.063c-.015-.026-.018-.058-.022-.242-.01-.235 0-.23-.071-.23-.03 0-.037 0-.037-.02 0-.014.01-.02.023-.02.012 0 .055-.01.095-.018l.086-.022c.01 0 .013.034.012.215 0 .24 0 .272.05.306.062.046.182.014.235-.062.024-.034.024-.04.024-.192 0-.178 0-.188-.07-.188-.031 0-.037 0-.037-.019 0-.014.01-.019.023-.019.012 0 .055-.01.095-.019l.085-.022c.01 0 .013.047.015.271 0 .19 0 .278.012.286.01.01.029.013.05.016.026 0 .04.01.04.019 0 .01-.023.013-.112.013h-.113l.01-.056c.01-.064.011-.064-.075.014a.24.24 0 0 1-.227.053zm.69 0c-.044-.01-.057-.015-.057-.028v-.09c0-.065 0-.073.02-.073.022 0 .03.018.03.063 0 .018.01.04.017.048.05.045.166.062.223.033.067-.035.09-.105.052-.154-.018-.023-.04-.031-.215-.08-.064-.018-.105-.056-.117-.109-.035-.157.124-.262.33-.218.075.016.079.022.072.105 0 .058-.01.07-.021.068-.01 0-.017-.015-.02-.031-.01-.063-.065-.103-.151-.103-.055 0-.091.016-.108.05-.04.077-.01.117.137.156.132.036.168.054.19.096.052.096-.014.225-.136.267a.593.593 0 0 1-.25 0zm1.64 0c-.082-.016-.12-.063-.12-.15 0-.13.074-.185.3-.22l.076-.013v-.043c-.01-.082-.062-.124-.153-.123-.066 0-.1.02-.116.067-.01.024-.017.034-.03.034-.016 0-.02-.01-.02-.048v-.048l.074-.036a.246.246 0 0 1 .144-.036c.084 0 .15.026.184.075.02.029.022.04.025.25 0 .129.01.223.013.23.01.01.024.013.04.015.02 0 .033.01.035.02 0 .015-.01.017-.095.017H4.84v-.05c0-.026 0-.048-.01-.048 0 0-.026.017-.051.037-.084.07-.125.084-.198.07zm.156-.09c.013 0 .041-.025.061-.044l.036-.035v-.086c0-.047 0-.086-.01-.086l-.094.021c-.114.027-.153.06-.16.131-.01.1.056.139.163.1zm1.334.09c-.082-.017-.117-.062-.117-.15 0-.13.06-.176.277-.216.048-.01.09-.018.094-.02v-.05c-.016-.09-.103-.137-.2-.11-.037.01-.047.02-.064.056-.029.059-.056.058-.056-.001 0-.048.018-.066.104-.105a.32.32 0 0 1 .237 0c.088.049.098.085.09.325-.01.199 0 .216.049.221.02 0 .033.01.035.02 0 .015-.01.017-.096.017h-.1v-.098s-.036.024-.075.053a.361.361 0 0 1-.089.054h-.09zm.165-.094c.013-.01.041-.028.061-.048l.037-.036v-.166l-.037.01c-.094.017-.179.048-.202.076-.052.061-.038.159.025.18.036.012.077.01.117-.012zm3.728.094c-.013 0-.04-.016-.057-.025-.032-.016-.033-.016-.054 0-.012.011-.03.02-.038.02-.014 0-.016-.01-.01-.036.01-.046.01-.766 0-.803-.01-.024-.011-.027-.051-.027-.031 0-.046 0-.05-.015v-.02s.043-.013.09-.024a2.21 2.21 0 0 0 .11-.025l.022-.01-.01.233-.01.232.053-.05a.28.28 0 0 1 .183-.08.26.26 0 0 1 .165.068c.051.053.071.116.067.212-.01.112-.045.188-.132.253-.106.078-.133.09-.2.095h-.085zm.16-.07c.09-.023.145-.111.146-.237 0-.064 0-.086-.024-.127-.062-.125-.22-.136-.306-.02-.019.024-.02.04-.02.172 0 .168 0 .173.094.205.062.022.057.02.11.01zm.509.068c-.084-.02-.12-.073-.111-.166.01-.115.068-.158.263-.195l.115-.022-.01-.038c-.014-.086-.06-.127-.146-.128-.07 0-.104.017-.124.064-.012.028-.022.038-.034.036-.014 0-.017-.013-.017-.046 0-.04 0-.044.044-.07.116-.072.257-.07.339 0 .043.04.045.052.05.284v.224h.039c.027 0 .04.01.042.022 0 .015-.01.017-.095.017h-.098v-.05c0-.026 0-.048-.01-.048 0 0-.037.024-.075.053a.312.312 0 0 1-.09.054h-.095zm.17-.093c.015-.01.042-.027.061-.044l.034-.03v-.087c0-.063 0-.087-.012-.086-.025 0-.163.04-.191.053-.038.02-.06.061-.06.115 0 .091.076.126.168.078zm.45.09c-.034-.01-.057-.016-.056-.023v-.09c0-.069 0-.078.02-.078.022 0 .03.018.03.063 0 .092.202.133.276.055.036-.038.043-.094.017-.128-.019-.024-.038-.032-.215-.08a.189.189 0 0 1-.082-.046c-.025-.026-.03-.039-.032-.095 0-.056 0-.07.019-.099.057-.085.17-.116.308-.087.074.016.079.022.072.105 0 .058-.01.07-.021.068-.01 0-.017-.015-.02-.031-.01-.063-.065-.103-.152-.103-.055 0-.09.016-.108.05-.04.077-.01.117.137.155.133.036.169.054.192.096.05.096-.015.226-.137.267a.593.593 0 0 1-.25 0zm.585 0c-.066-.012-.06 0-.055-.132 0-.05 0-.058.02-.058.015 0 .019.01.023.05.01.058.025.077.095.097.096.027.172 0 .206-.062.016-.03.017-.042.01-.068-.014-.042-.044-.06-.158-.088-.113-.03-.15-.05-.175-.094-.042-.08-.01-.177.074-.23.044-.027.054-.028.142-.028.05 0 .111.01.134.012l.041.013v.077c0 .069 0 .077-.018.077-.014 0-.02-.01-.024-.037-.01-.062-.065-.1-.147-.1-.082 0-.127.039-.125.107 0 .052.032.072.154.102.12.03.15.044.18.08.023.031.027.126.01.167a.311.311 0 0 1-.114.105.59.59 0 0 1-.267.011zm-8.234-.01c-.011 0-.028-.017-.04-.03-.017-.02-.02-.037-.021-.244v-.223h-.048c-.064 0-.064-.02 0-.047l.049-.02v-.196l.055-.024c.054-.024.075-.025.067 0 0 .01-.01.06-.01.117l-.01.105h.182v.058H3.66v.19c0 .184 0 .192.02.218.021.028.027.029.13.013.03 0 .021.016-.024.054-.038.032-.048.035-.097.035-.03 0-.064 0-.074-.01zM1 10.353c0-.014.01-.018.027-.018.044 0 .069-.026.11-.115.057-.123.275-.62.306-.696.021-.053.03-.065.047-.065.02 0 .043.05.2.419.184.432.197.457.25.457.017 0 .023.01.023.02 0 .018-.01.018-.17.018-.164 0-.17 0-.17-.019 0-.016.01-.019.035-.019.04 0 .072-.015.072-.032 0-.01-.02-.06-.043-.119l-.043-.106h-.367l-.046.108a.449.449 0 0 0-.041.123c.01.017.034.026.08.026.025 0 .032 0 .032.02 0 .019-.01.019-.15.019-.145 0-.152 0-.152-.019zm.613-.337c0-.018-.151-.371-.157-.365-.01.01-.154.359-.154.367 0 0 .07.01.155.01.086 0 .156 0 .156-.01zm2.29.34c0-.012.014-.018.045-.022.04 0 .044-.01.052-.038 0-.018.01-.122.01-.231 0-.22 0-.218-.069-.218-.029 0-.037 0-.037-.018 0-.015.01-.02.05-.025a.456.456 0 0 0 .106-.024c.032-.01.06-.015.063-.012v.07l-.01.063.032-.039c.052-.062.077-.082.117-.094.046-.014.09 0 .09.024v.08c0 .073-.016.082-.057.034-.034-.04-.09-.04-.13 0-.042.042-.051.093-.047.263 0 .168 0 .167.078.167.04 0 .046 0 .046.02 0 .019-.01.019-.171.019-.158 0-.17 0-.168-.017zm1.216 0c0-.012.016-.019.044-.023.023 0 .044-.01.049-.013.01-.01.015-.636.01-.726l-.01-.073h-.046c-.038 0-.046-.01-.046-.022 0-.012.01-.02.022-.023.012 0 .052-.012.09-.021a.785.785 0 0 1 .085-.018c.016 0 .017.022.017.423 0 .253 0 .435.01.45.01.02.017.025.05.028.032 0 .044.01.046.02 0 .016-.01.017-.159.017-.15 0-.162 0-.159-.017zm.407 0c0-.016.01-.019.038-.019.022 0 .043-.01.05-.015.01-.01.012-.074.013-.23 0-.242 0-.242-.074-.242-.031 0-.037 0-.035-.017 0-.012.02-.02.066-.028.035-.01.082-.018.104-.026.023-.01.043-.01.045-.01v.264c0 .295.001.302.062.302.032 0 .04 0 .04.019s-.01.019-.156.019c-.15 0-.156 0-.156-.019zm1.063 0c0-.012.015-.018.047-.022h.044l.01-.049c0-.027.01-.13.01-.231 0-.203 0-.202-.07-.202-.028 0-.036 0-.036-.018 0-.015.01-.02.049-.025a.456.456 0 0 0 .106-.024c.032-.01.06-.016.062-.013v.11c.01 0 .023-.016.042-.035.058-.06.093-.076.165-.077.082 0 .151.032.181.086.018.033.021.06.028.248a.97.97 0 0 0 .017.223c.01.01.02.012.033.012.032 0 .053.01.053.025 0 .01-.022.014-.107.014h-.107v-.217c0-.197 0-.219-.019-.247-.025-.041-.066-.061-.122-.061a.177.177 0 0 0-.141.065l-.029.033v.162c0 .218 0 .22.057.226.031 0 .044.01.047.022 0 .016-.01.017-.159.017s-.162 0-.159-.017zm1.224 0c0-.01.01-.02.023-.025.013-.01.026-.02.03-.03 0-.012.01-.187.01-.388 0-.411 0-.398-.07-.398-.033 0-.038 0-.038-.022V9.47h.651v.062c-.013.123-.016.132-.035.132-.016 0-.02-.01-.02-.047 0-.064-.012-.078-.082-.09a.914.914 0 0 0-.258 0c-.012.01-.015.04-.018.173v.165l.023.01a.75.75 0 0 0 .212 0l.044-.01.01-.051c.01-.041.012-.051.026-.051.017 0 .018.01.018.146 0 .135 0 .146-.018.146-.02 0-.03-.018-.03-.057 0-.04-.013-.052-.059-.061a.64.64 0 0 0-.2 0c-.022.01-.022.01-.022.19v.185h.178c.192 0 .204-.01.215-.055.022-.092.026-.099.046-.099s.02 0 .014.045c0 .025-.01.073-.01.107v.062h-.316c-.277 0-.316 0-.316-.015zm.751 0c0-.012.014-.018.042-.02.022 0 .044-.01.051-.019.01-.012.012-.074.012-.232 0-.243 0-.237-.072-.237-.027 0-.035 0-.035-.018 0-.015.01-.02.05-.025.026 0 .074-.015.107-.025.067-.021.072-.018.066.047 0 .045.01.043.059-.012.079-.082.242-.064.3.033l.016.028.05-.042c.068-.058.087-.067.155-.067.075-.001.132.027.168.082.027.04.027.04.03.245 0 .113.01.213.013.223.01.01.02.017.032.017.033 0 .054.01.054.025 0 .01-.022.014-.106.014h-.107l.01-.173c.01-.207 0-.276-.045-.318-.056-.056-.168-.042-.217.027-.021.03-.022.038-.02.214 0 .121.01.188.014.197.01.01.028.014.049.014.03 0 .038 0 .038.02 0 .018-.01.018-.156.018-.15 0-.156 0-.156-.019 0-.016.01-.019.038-.019.021 0 .043-.01.05-.013.01-.01.011-.073.012-.182 0-.19-.01-.227-.053-.268-.027-.023-.037-.025-.087-.022-.065 0-.1.026-.127.077-.016.03-.017.052-.013.207 0 .111.01.178.016.187.01.01.027.015.047.017.025 0 .037.01.039.02 0 .016-.01.017-.16.017-.148 0-.16 0-.158-.017zM5.63 9.603c-.034-.026-.034-.07 0-.102a.084.084 0 0 1 .05-.024c.031 0 .072.04.072.073 0 .032-.04.073-.07.073a.106.106 0 0 1-.05-.02zM6.647 8.56c-.01-.01-.012-.015-.012-.02 0 0 .026-.046.057-.093.082-.122.113-.177.099-.177-.01 0-.052.01-.1.015a.573.573 0 0 0-.177.059.643.643 0 0 1-.195.063 2.494 2.494 0 0 0-.124.025c-.024.01-.021-.01 0-.03l.022-.014-.027-.023c-.032-.027-.034-.036-.01-.036.01 0 .078-.013.15-.03.072-.015.151-.028.176-.028.037 0 .064-.01.138-.05l.092-.05-.037-.032-.037-.032.013-.048c.01-.026.026-.076.043-.11l.035-.073c.01-.013-.13 0-.246.023-.053.01-.174.04-.268.063-.322.083-.468.098-.556.058-.064-.029-.08-.058-.086-.157V7.78H5.47c-.13 0-.234-.023-.226-.047.01-.016.147-.034.202-.025.025 0 .064.017.086.028a.27.27 0 0 0 .051.02c.015 0 .01-.048-.032-.207-.029-.115-.03-.13-.02-.18.02-.09.095-.148.195-.149.047 0 .09.022.126.062.04.044.041.082.01.154-.023.05-.032.11-.017.118h.04c.03 0 .031-.01.014-.025-.01-.011-.013-.017-.01-.013.01 0 .015-.01.022-.024.01-.016.027-.052.047-.08.041-.054.042-.066.023-.197a.454.454 0 0 1 .122-.404.452.452 0 0 0 .053-.06c0-.01-.067-.01-.132 0-.125.021-.427.137-.473.18-.035.034-.048.09-.04.19.01.091 0 .12-.06.173l-.025.024v-.067c0-.078.014-.136.057-.235.017-.04.026-.071.021-.071-.01 0-.055.022-.11.048-.104.05-.198.123-.225.176a.806.806 0 0 0-.043.132.573.573 0 0 0-.02.29c.015.048.01.055-.016.014-.014-.027-.017-.053-.017-.15 0-.12.01-.168.053-.264.012-.028.02-.053.017-.056 0 0-.075.018-.16.047-.095.033-.147.054-.137.058.023.01.021.052 0 .065-.04.022-.079-.033-.046-.067.01-.01.01-.011-.022-.01a2.729 2.729 0 0 1-.322.029c-.02-.013-.047.01-.05.037 0 .024-.01.032-.025.034-.033 0-.053-.016-.047-.048 0-.024 0-.027-.025-.033a.357.357 0 0 0-.186.01.616.616 0 0 0-.091.067.675.675 0 0 1-.077.062.61.61 0 0 1-.189.025s.01-.015.023-.027c.016-.011.05-.04.076-.062a.22.22 0 0 1 .07-.045c.067-.013.179-.04.192-.046.012-.01.012-.01 0-.01-.01 0-.022-.01-.03-.016-.011-.015-.01-.015.022-.01.237.042.592.028.783-.031.033-.01.052-.02.044-.023-.01 0-.052-.016-.098-.03a.593.593 0 0 1-.126-.054.173.173 0 0 0-.072-.03c-.016 0-.04-.01-.05-.012a1.238 1.238 0 0 1-.15-.14h.047a.22.22 0 0 1 .177.096c.065.098.175.143.332.137.07 0 .102-.01.13-.024.153-.08.23-.123.23-.13 0-.012-.025-.017-.102-.024-.06-.01-.144-.047-.15-.075 0-.012.014-.014.1-.01.097 0 .103.01.134.035.06.057.058.056.126.03.07-.026.242-.11.242-.119h-.032c-.025 0-.053 0-.134-.042a.561.561 0 0 0-.129-.05c-.028 0-.036-.013-.014-.021.01 0 .041-.01.076-.012.086-.01.161.01.223.05.067.046.095.049.199.019a.84.84 0 0 1 .238-.031.893.893 0 0 1 .504.097.99.99 0 0 0 .075.035c.014 0-.02-.062-.05-.093a.347.347 0 0 0-.217-.091c-.05-.01-.61-.01-1.411-.011-.825 0-1.344 0-1.37-.011a.311.311 0 0 1-.2-.143.264.264 0 0 1-.017-.153c.016-.067.095-.122.177-.122.057 0 .14.087.13.135-.014.055-.047.087-.078.076-.012 0-.011-.012.01-.05l.022-.046-.037-.033c-.03-.027-.041-.032-.063-.027-.104.025-.135.11-.077.213a.165.165 0 0 0 .075.066c.092.047.165.05 1.075.038.976-.012 1.828 0 1.888.02.053.02.151.095.183.141a.309.309 0 0 1 .056.129c0 .017.15.175.176.184.015.01-.028-.105-.078-.2-.106-.2-.24-.37-.39-.492a2.31 2.31 0 0 0-.363-.227l-.051-.023v.027c-.01.028-.042.042-.061.023-.016-.017 0-.058.024-.062.016 0 0-.017-.08-.055a.431.431 0 0 0-.106-.046 1.141 1.141 0 0 0-.077.299c-.01.076 0 .086.015.104.037.038.086.043.27.03.245-.017.363-.01.44.025.062.027.114.075.107.096 0 .014-.08.013-.197 0a4.746 4.746 0 0 0-.467-.011c-.377 0-.38 0-.397-.021-.024-.03-.02-.088.01-.185.05-.168.072-.389.038-.389a.236.236 0 0 0-.108.06.236.236 0 0 0-.052.113.928.928 0 0 1-.123.243.41.41 0 0 1-.193.17c-.031.01-.163.012-.682.012-.6 0-.644 0-.674-.018-.037-.02-.038-.045 0-.062.016-.01.115-.014.296-.017.475-.01.754-.043.873-.103.037-.019.038-.02.024-.037-.02-.02-.02-.04 0-.057.014-.014.053-.015.06 0 .014.021.037.01.054-.032.022-.05.035-.13.022-.137a.766.766 0 0 0-.135.127c-.139.147-.18.173-.283.184-.074.01-.087-.01-.041-.045.037-.03.053-.039.15-.067a.213.213 0 0 0 .116-.07c.03-.032.044-.052.036-.055-.024-.01-.042-.035-.04-.055 0-.015.012-.02.036-.024.027 0 .033 0 .042.023.01.025.01.026.029.01a.414.414 0 0 0 .078-.12c0-.016-.101-.014-.17 0-.03.01-.119.041-.195.073a1.796 1.796 0 0 1-.194.072c-.061.016-.238.032-.228.02 0 0 .056-.017.117-.029.083-.017.147-.038.259-.086a.962.962 0 0 1 .331-.1c.104-.01.102-.01.107-.171v-.14l-.06-.043a.447.447 0 0 0-.19-.088.351.351 0 0 0-.184.073c-.037.037-.045.066-.034.124 0 .023.01.064.01.092 0 .073-.03.13-.044.083 0-.01-.016-.04-.03-.068a.255.255 0 0 1-.024-.08c0-.08.094-.186.2-.224a.46.46 0 0 0 .067-.03c.022-.02-.204-.13-.313-.152-.093-.02-.117-.014-.21.048-.046.03-.066.038-.103.038a.52.52 0 0 1-.166-.02s.025-.022.055-.04c.046-.026.07-.032.149-.038.052 0 .122-.011.157-.014.04 0 .087 0 .13.01.06.013.065.013.06 0-.052-.122-.055-.18-.019-.279.014-.037.033-.096.042-.13a.203.203 0 0 1 .025-.062c.018 0 .035.076.032.15 0 .062-.01.078-.03.109a.525.525 0 0 0-.048.08c-.019.043-.019.044 0 .087a.25.25 0 0 0 .146.118.96.96 0 0 1 .199.095c.046.035.16.087.177.08.01 0 .014-.019.015-.042 0-.059.027-.157.06-.217.044-.085.136-.193.311-.37a1.62 1.62 0 0 0 .363-.496c.05-.106.055-.119.06-.205 0-.05.012-.124.02-.163l.015-.07-.033-.042a.37.37 0 0 1-.081-.162c-.017-.07-.017-.068.01-.068.033 0 .113.04.17.085l.05.04.055-.082a.51.51 0 0 1 .063-.082c.03 0 .044.109.025.179-.01.025 0 .033.04.07A.272.272 0 0 1 6.335 4c.01.015.034.047.063.07.031.025.055.052.057.065.01.067-.03.098-.127.098-.086 0-.11.014-.108.064 0 .058.056.28.068.284.01 0 .014-.01.017-.016 0-.015.015-.02.04-.02.02 0 .07-.015.115-.033a2.09 2.09 0 0 1 .101-.04c.043-.012.116.01.181.045l.063.038h1.062v.112l.046-.088a3.06 3.06 0 0 1 .129-.21c.084-.125.126-.209.126-.254 0-.031-.028-.042-.13-.051a.218.218 0 0 1-.073-.012s0-.013.018-.022c.013-.01.053-.045.09-.081.076-.075.111-.088.168-.061a.24.24 0 0 1 .109.128l-.001.098a1.87 1.87 0 0 1-.1.363c-.047.102-.09.25-.09.309 0 .06.02.107.06.132.02.013.033.011.151-.029.146-.049.253-.063.342-.044.083.018.243.085.328.137.138.085.297.26.376.414.027.054.05.1.052.1.01.01.045-.02.082-.052.032-.03.037-.038.032-.065-.01-.042.016-.063.05-.047.015.01.025.019.025.03a.42.42 0 0 1-.084.107l-.084.088.01.065c.01.087 0 .11-.062.123-.032.01-.066 0-.129-.01-.104-.021-.191-.017-.229.01-.022.017-.03.035-.043.102-.02.097-.018.1.07.116.03.01.138.03.24.054.212.049.21.049.284-.017l.066-.06c.023-.02.127-.048.142-.04.01.01-.034.058-.093.104a.401.401 0 0 1-.098.052l-.06.022.034.015c.02.01.076.033.127.055.051.022.1.046.111.054.036.028.01.025-.069-.01a2.647 2.647 0 0 0-.358-.117c-.147-.036-.16-.037-.154 0 .01.031-.036.055-.06.035-.018-.014-.02-.045-.01-.054.01 0 .01-.01.01-.014 0-.01-.077-.03-.112-.03-.027 0-.034.017-.01.026.017.01.02.043 0 .043-.01 0-.026-.01-.043-.024a.137.137 0 0 0-.041-.024c-.017 0-.043.32-.03.36.01.023 0 .039-.017.085l-.028.057-.117.01c-.126.01-.288 0-.308-.012-.032-.02.05-.055.182-.077.076-.013.14-.047.163-.085a.554.554 0 0 0 .033-.168c.017-.157.013-.202-.02-.209a1.16 1.16 0 0 0-.293 0l-.061.01-.07.124c-.102.184-.17.332-.169.369 0 .053-.016.06-.132.06-.18 0-.354-.011-.35-.022.01-.02.061-.044.129-.055.038-.01.086-.014.107-.018a.306.306 0 0 0 .196-.128c.052-.07.175-.3.165-.309-.018-.018-.236.06-.42.15-.129.063-.19.103-.177.116h.075c.12-.02.156-.016.239.029.05.027.07.043.065.05-.018.018-.214 0-.278-.022a.216.216 0 0 0-.125-.016c-.084.01-.102.017-.194.102-.106.098-.243.293-.27.386-.01.02-.023.065-.035.097-.012.032-.03.082-.038.112l-.016.053.093-.092a.778.778 0 0 0 .093-.103c0-.01.015-.04.033-.078.052-.107.127-.163.265-.2.075-.02.102-.02 1.075-.024 1.547-.01 1.71-.01 1.76-.029.05-.02.106-.083.114-.128.016-.087-.033-.159-.107-.159-.06 0-.1.053-.07.093.01.01.015.03.016.041 0 .017-.01.022-.023.022-.036 0-.064-.042-.064-.095 0-.038 0-.048.038-.08.043-.04.075-.05.136-.039.082.015.13.07.136.155.01.109-.038.186-.14.236l-.063.032-.513.01c-.283 0-.886.01-1.34.014-.456 0-.86.01-.901.016-.097.012-.186.055-.225.108-.044.061-.038.07.027.04a.592.592 0 0 1 .305-.069c.08 0 .17 0 .209.01.166.026.606.165.795.251l.434.196c.01 0 .01 0 .001-.02-.01-.02-.01-.03 0-.04.015-.016.047-.02.068-.01.02.012.01.057-.02.065-.02.01-.015.01.027.026.098.039.389.104.464.104.014 0 .029.01.033.011.01.01-.02.01-.09 0a2.224 2.224 0 0 1-.629-.167 1.804 1.804 0 0 0-.11-.042s.011.025.031.055c.035.053.037.054.05.034.016-.024.052-.027.074-.01.02.02.02.03 0 .053-.022.022-.028.023-.048.01-.024-.015-.03 0-.013.032.024.047.03.219.01.31a.872.872 0 0 1-.103.236c-.02.021-.018 0 0-.044.066-.117.101-.35.07-.457a.481.481 0 0 0-.288-.325c-.122-.047-.185-.063-.185-.05 0 .01.032.049.072.092.054.059.075.089.083.122.013.053.014.09 0 .098-.022.013-.097-.111-.132-.217a.239.239 0 0 0-.112-.138.935.935 0 0 0-.122-.044l-.165-.05a1.127 1.127 0 0 0-.264-.049s.017.033.044.067a.545.545 0 0 1 .07.115.98.98 0 0 1 .048.233.33.33 0 0 0 .082.193c.053.059.084.149.05.149-.036 0-.095-.076-.107-.137a.11.11 0 0 0-.019-.053c-.012-.016-.014-.012-.02.037-.01.06-.025.075-.025.02v-.033s-.022.019-.044.043c-.04.044-.117.077-.136.058-.015-.015.035-.068.092-.095.063-.031.1-.071.109-.12a.608.608 0 0 0-.116-.381c-.072-.076-.158-.12-.11-.057a.515.515 0 0 1 .084.192c.022.084.021.129-.01.19-.018.044-.03.043-.045-.01-.01-.03-.01-.06 0-.134.017-.126.01-.16-.057-.219a.24.24 0 0 0-.078-.05c-.045-.01-.16.02-.253.066l-.083.041v.047c0 .039 0 .056.03.1.036.06.074.083.15.09a.157.157 0 0 0 .152-.065c.04-.066.01-.16-.057-.16-.02 0-.038.01-.064.04-.043.049-.067.053-.067.013 0-.02.011-.038.04-.063.032-.03.045-.035.082-.035.05 0 .074.01.114.046.035.033.042.069.023.133-.034.117-.17.18-.29.137-.085-.03-.166-.112-.18-.18-.01-.034-.017-.037-.05-.014a.991.991 0 0 0-.162.207c-.032.063-.067.187-.057.197 0 0 .057.013.115.018.16.015.302.035.573.083.295.052.47.076.49.068.013 0 .014-.016.01-.07 0-.037-.01-.094-.01-.128 0-.06 0-.063.04-.099.083-.077.2-.074.29.01.065.062.07.126.02.27a1.204 1.204 0 0 0-.074.272c-.015.103-.036.137-.101.17-.044.022-.063.025-.19.028-.157 0-.22 0-.428-.053a6.641 6.641 0 0 0-.454-.088c-.074-.01-.074.01 0 .034.08.027.096.045.101.118v.058l-.045.045a.376.376 0 0 0-.043.047s.013.01.026.014c.013.01.058.038.1.069a.49.49 0 0 0 .114.066l.186.046c.117.028.144.045.092.058-.029.01-.03.01-.01.035.015.017.015.018-.012.018a.94.94 0 0 1-.236-.067.453.453 0 0 1-.078-.054.204.204 0 0 0-.099-.048c-.035-.01-.084-.024-.11-.035a.589.589 0 0 0-.05-.02c-.01 0 .05.105.103.182a.763.763 0 0 1 .058.091c0 .014-.056.01-.09-.01a.143.143 0 0 1-.05-.044c-.02-.033-.038-.035-.072-.01-.02.016-.039.02-.106.02-.045 0-.1 0-.123.01a.118.118 0 0 1-.084 0c-.037-.01-.045-.017-.062-.056-.033-.074-.02-.133.045-.233.03-.045.05-.08.045-.08a.463.463 0 0 0-.137.151c-.019.061-.115.24-.142.264-.026.024-.07.03-.09.01zm.11-.096c.04-.064.113-.217.096-.203a.31.31 0 0 0-.043.067c-.015.03-.043.078-.062.106a.327.327 0 0 0-.035.06c0 .022.021.01.044-.03zm.394 0c.098-.01.117-.014.117-.045 0-.016 0-.018-.027-.013-.015 0-.087.01-.16.01-.075 0-.134 0-.134.01 0 0 0 .012.01.022.013.024.046.038.077.033.013 0 .066-.01.116-.011zm.21-.106c-.073-.136-.103-.18-.068-.1.051.119.116.23.127.219 0 0-.024-.056-.059-.12zm.515.065.038-.018-.072-.012c-.04-.01-.096-.02-.125-.03a.191.191 0 0 0-.057-.014c-.01.01.048.045.11.067l.07.025s.017-.01.037-.018zm-.56-.015c0-.01 0-.017-.01-.02-.01 0-.01 0-.01.014 0 .01 0 .02.01.02s.01-.01.01-.014zm-.128-.031c.034-.01.052-.032.043-.065 0-.01-.025-.041-.05-.068a.545.545 0 0 1-.058-.072c-.027-.051-.059-.014-.104.12-.024.072-.026.084-.014.092.014.01.106.01.183-.01zm-.736-.044c.034-.015.045-.023.036-.03-.014-.01-.035-.01-.157.024-.079.019-.084.022-.07.037.014.015.021.016.08 0 .034-.01.084-.023.111-.034zm.528-.054c.014-.028.024-.051.02-.051-.01 0-.043.057-.05.083-.01.037 0 .03.03-.032zm.282.03c0-.01-.01-.012-.01-.01v.016c.01.016.015.013.01 0zm.24-.041c0-.011-.12-.07-.143-.07-.012 0-.01.01.016.025.055.042.126.067.126.045zm-.737-.04c.024-.01.034-.017.028-.023-.011-.011-.07.01-.113.034l-.03.018.039-.01a.261.261 0 0 0 .076-.021zm.44-.05c0-.01-.016-.015-.027-.021-.021-.011-.021-.011 0 .01.019.02.04.029.03.01zm-.35-.04c0-.01-.022-.02-.048-.028-.056-.02-.065-.031-.065-.087 0-.052.034-.091.096-.11.028-.01.037-.015.028-.02-.015-.01-.065 0-.084.014-.038.03-.076.152-.059.185.01.018.103.066.12.06.01 0 .01-.01.01-.014zm.558-.01c.058-.028.085-.101.055-.142-.013-.017-.014-.014-.015.038 0 .048 0 .06-.026.08a.18.18 0 0 1-.056.033c-.017 0-.022.01-.013.01.01 0 .034-.01.055-.018zm-.019-.047c.03-.021.035-.05.02-.092-.033-.082-.072-.085-.155-.014l-.032.027.022.046a.246.246 0 0 0 .032.053c.016.01.085 0 .112-.021zm-.477-.044c.026-.054.023-.085-.011-.096-.055-.02-.126.025-.129.08 0 .03 0 .035.032.046.065.024.084.019.107-.03zm.099.019c0-.01 0-.011-.01-.013-.01 0-.011 0-.011.013 0 .01 0 .015.01.013.01 0 .01-.01.01-.013zm.1-.055c.023-.018.026-.026.022-.056a.202.202 0 0 0-.016-.062c-.01-.023-.015-.027-.04-.024-.032 0-.035.01-.062.09-.01.026.026.073.052.073.01 0 .03-.01.044-.021zm-.978-.063c.207-.052.469-.106.594-.122.134-.017.484-.014.638.01.07.01.258.043.418.076l.292.06h.175c.166 0 .178 0 .211-.022.042-.026.04-.019.076-.172.032-.133.044-.2.037-.2 0 0-.024.01-.048.016a1.098 1.098 0 0 1-.383.01c-.053-.01-.171-.027-.26-.04a4.953 4.953 0 0 1-.208-.034 7.055 7.055 0 0 0-.398-.058 4.05 4.05 0 0 0-.686.01 7.14 7.14 0 0 0-.341.06c-.12.024-.254.051-.297.058a.614.614 0 0 1-.3-.017c-.026-.012-.049-.019-.052-.016 0 0 0 .046.01.096s.018.124.021.164c.011.133.029.159.118.175.082.014.204 0 .383-.045zm-.328-.01a.614.614 0 0 0 .058-.134.542.542 0 0 1 .053-.124c.01 0 .042.045.081.104a.923.923 0 0 0 .09.12c.016.013.013.014-.028.02-.05.01-.116.01-.089 0 .02-.01.022-.023 0-.047-.01-.015-.022-.017-.06-.013-.047.01-.063.018-.063.05 0 .01.01.016.022.016.018 0 .02 0 .01.01s-.032.01-.053.01c-.033 0-.036 0-.022-.012zm.126-.093c.015-.01.014-.01-.01-.045-.023-.038-.023-.038-.032-.015-.024.063-.024.068 0 .067.012 0 .03 0 .039-.01zm2.278.079c-.028 0-.051-.01-.051-.013 0 0 .01-.01.015-.01.016 0 .019-.026.01-.046 0-.01-.028-.015-.054-.018-.038-.01-.048 0-.06.012-.018.024-.018.043 0 .043.01 0 .015 0 .015.01s-.01.01-.015 0c-.01 0-.029-.01-.045-.01H8l.023-.021a.967.967 0 0 0 .087-.127.445.445 0 0 1 .072-.102s.03.06.056.13a.653.653 0 0 0 .064.137c.014.011.013.012-.01.01-.013 0-.047 0-.075-.01zm-.042-.108-.017-.045-.017-.038-.022.037c-.017.03-.019.04-.01.045.016.01.066.011.065.001zm-.27.058a.25.25 0 0 1-.07-.023s.01-.01.012 0c.024.01.035-.012.055-.11.02-.103.02-.119 0-.119-.01 0-.014 0-.014-.01s.01-.01.015-.01c.01 0 .043.01.078.016.035.01.063.016.063.021 0 0-.01.01-.014 0-.021-.01-.03.011-.048.101-.02.103-.02.127 0 .127.01 0 .015 0 .015.01s0 .01-.01.01a.83.83 0 0 0-.078-.017zm-1.725-.01c-.036-.012-.046-.033-.078-.16-.01-.028-.017-.044-.032-.05-.019-.01-.016-.01.022-.02.024-.01.058-.015.075-.02.031-.01.046 0 .017.013-.02.01-.018.031.01.121.02.071.038.1.065.1.026 0 .062-.02.077-.042.014-.022.014-.03-.001-.095-.02-.09-.03-.106-.055-.106-.031 0 0-.015.046-.024.038-.01.038-.01.023.011-.015.017-.015.024 0 .104.019.077.019.088.01.112-.028.05-.112.078-.175.057zm1.506-.04c-.109-.022-.148-.035-.11-.035.02 0 .03-.026.05-.126.015-.082.015-.083-.01-.1-.011-.01-.016-.017-.01-.017.03 0 .147.024.147.03 0 0-.01.01-.013 0-.022-.01-.032.017-.05.117-.02.11-.017.118.048.118.034 0 .05-.01.072-.029.016-.016.032-.026.035-.024.01.01-.026.086-.038.085a2.1 2.1 0 0 1-.126-.024zm-1.255 0c-.01-.015-.017-.08-.011-.08 0 0 .015.01.025.023.037.047.134.037.134-.014 0-.023-.023-.036-.079-.045-.059-.01-.095-.029-.102-.058-.015-.06.025-.1.107-.107.022 0 .047-.01.056-.01.016-.01.028.017.028.057 0 .016 0 .015-.03-.01-.035-.03-.092-.03-.11 0-.018.03 0 .05.068.061.073.013.1.028.108.06.015.06-.035.108-.117.113-.024 0-.047.01-.051.01-.01.01-.021.01-.026 0zm1.03-.04c-.044 0-.073-.022-.036-.022.02 0 .022 0 .016-.027-.01-.034 0-.03-.057-.038-.03 0-.05 0-.06.01-.02.017-.019.046 0 .053l-.045.001h-.093c-.027 0-.037-.01-.073-.058a.263.263 0 0 0-.05-.058s-.01.021-.01.047c0 .039 0 .049.022.058.018.01.01.011-.06.011-.064 0-.079 0-.063-.01.018-.01.021-.021.027-.114.01-.1.01-.104-.016-.122-.022-.018-.02-.018.087-.014.091 0 .115.01.137.024.038.03.036.07-.01.097l-.032.021.044.054c.024.03.05.055.059.055a.45.45 0 0 0 .09-.116.576.576 0 0 1 .084-.114s.028.057.052.124c.024.067.05.128.058.138.017.019.014.019-.08.01zm-.05-.143c-.01-.024-.017-.044-.019-.044 0 0-.013.016-.025.035-.024.039-.017.052.032.052h.026l-.015-.044zm-.281-.048c.02-.031.01-.072-.021-.08-.041-.01-.052 0-.052.054 0 .048 0 .049.029.049.02 0 .034-.01.044-.023zm-.397.161c.021-.017.022-.02.012-.11-.01-.05-.01-.097-.01-.104 0-.018-.044-.014-.062.01a.056.056 0 0 0-.016.034c0 .01 0 .016-.01.016s-.01-.017-.01-.038c0-.043 0-.044.141-.055.043 0 .09-.01.105-.01.026 0 .027 0 .026.036v.042l-.02-.027c-.014-.019-.03-.027-.05-.027h-.03l.01.095c.01.118.01.13.037.13.012 0 .017 0 .012.01-.01 0-.042.01-.082.013-.071.01-.072.01-.051-.01zm.543.163c0-.01.001-.01-.014 0-.01.01-.023.016-.027.022 0 .01 0 .01.014 0 .011-.01.023-.016.027-.021zm-.304-.032c.01-.02 0-.025-.04-.025h-.034l.023.019c.027.023.043.025.05.01zm.272 0c.024-.02.021-.025-.012-.025-.03 0-.045.013-.035.029.01.013.026.012.046 0zm1.22-.342c.016-.013.017-.016 0-.024-.01-.01-.023-.01-.034-.01-.011 0-.03 0-.041-.01-.02-.01-.022 0-.022.024 0 .03 0 .03.037.03.02 0 .046-.01.056-.014zM5.793 7.5v-.034h-.112v.027c0 .021.01.03.032.041.017.01.043.013.056.012.021 0 .024-.01.024-.036zm.38-.015c.254-.06.38-.078.681-.096l.195-.01V7.32c0-.086-.056-.185-.146-.275a.607.607 0 0 0-.078-.07s-.014.015-.02.035a.284.284 0 0 1-.14.14.261.261 0 0 1-.227-.013.177.177 0 0 1-.082-.154c0-.092.052-.149.137-.149.04 0 .053 0 .077.028.054.052.024.085-.045.05-.032-.017-.057-.012-.089.016-.026.024-.028.051-.01.105.02.049.06.072.125.072a.168.168 0 0 0 .153-.081c.021-.034.028-.054.025-.083 0-.038 0-.04-.081-.08a.743.743 0 0 0-.275-.091.184.184 0 0 0-.146.077c-.033.05-.037.076-.019.158.015.071.015.08 0 .14-.019.068-.024.076-.038.067a.505.505 0 0 1-.05-.173c0-.037.085-.222.12-.258.027-.03.018-.034-.033-.011a.336.336 0 0 0-.19.234.512.512 0 0 0 .011.267c.017.035.022.038.07.044.07.01.13.032.158.062.018.02.02.027.01.036-.014.015-.13-.013-.169-.04-.039-.029-.048-.026-.04.014.01.038 0 .042-.028.018-.017-.015-.018-.015-.018 0a.22.22 0 0 1-.052.103l-.02.023.048-.01c.027 0 .11-.022.186-.04zm2.442-.027c.036-.056.026-.136-.02-.172a.223.223 0 0 0-.159-.04c-.072.02-.11.095-.08.156.026.054.045.045.054-.026.01-.067.021-.078.08-.067.074.014.098.062.067.135a.138.138 0 0 0-.015.05c0 .014 0 .014.03 0a.16.16 0 0 0 .042-.036zm-2.987-.04c-.01-.082 0-.105.043-.127.038-.02.081-.02.106 0 .018.015.019.022.01.065-.011.06 0 .08.032.045a.086.086 0 0 0-.018-.124c-.07-.046-.164-.037-.198.02a.169.169 0 0 0-.025.116c.01.023.042.075.052.075v-.072zm2.864.023c.025-.023.028-.06.01-.078-.02-.017-.03 0-.037.052-.01.051 0 .056.031.026zm-2.759-.065c.01-.04-.01-.066-.036-.055-.025.01-.03.05-.01.073.025.03.04.023.046-.017zm1.394-.272c.01-.031.017-.062.02-.07.01-.015-.017-.06-.043-.083-.02-.018-.021-.018-.04-.001-.024.022-.024.039 0 .104a.76.76 0 0 1 .024.078c.01.042.023.032.04-.03zm.115-.317c.039-.082.097-.185.127-.23l.056-.082-.015-.055a.472.472 0 0 1-.01-.192l.01-.03-.045.027a.997.997 0 0 0-.074.052l-.029.023.02.042c.025.057.022.129-.01.242a.792.792 0 0 1-.115.247.41.41 0 0 0-.037.062c0 .01.031.04.04.04 0 0 .04-.066.08-.147zm-.2.116c.01-.01 0-.025-.02-.06a1.285 1.285 0 0 1-.12-.234c-.038-.09-.039-.174 0-.244l.024-.05-.108-.07a1.44 1.44 0 0 0-.115-.068s0 .013.01.029a.15.15 0 0 1-.01.143c-.012.025-.018.051-.015.064 0 .012.032.052.065.09.073.085.17.228.224.334.023.044.045.08.049.08 0 0 .012-.01.018-.013zm.087-.088a.629.629 0 0 0 .062-.09c.032-.055.033-.06.03-.14v-.172l-.001-.089-.034.02a.916.916 0 0 0-.06.038c-.036.025-.055.022-.116-.016a.486.486 0 0 0-.055-.032s.01.031.014.067a.204.204 0 0 1 0 .134.263.263 0 0 0-.011.104.69.69 0 0 0 .121.198c.023.014.026.012.057-.023zm.413-.46c.166-.142.47-.298.776-.398.123-.04.114-.032.156-.16.026-.081.026-.107 0-.165-.027-.054-.037-.06-.076-.047-.054.02-.12 0-.19-.044a1.204 1.204 0 0 0-.105-.064.596.596 0 0 1-.191-.195L7.857 5.2v.32c0 .422.01.399-.245.555-.169.105-.16.093-.128.179a.2.2 0 0 1 .011.095V6.4s.027-.02.055-.045zm.46-.338c-.012-.032 0-.05.035-.05.031 0 .034 0 .034.03 0 .025 0 .028-.032.031-.021 0-.034 0-.037-.012zm-.086-.067a.04.04 0 0 1-.014-.037c0-.02.01-.024.037-.024.029 0 .035 0 .037.024 0 .021-.018.05-.037.05 0 0-.014-.01-.023-.014zm.259-.028c-.02-.019-.013-.046.013-.058.029-.013.055 0 .06.025.01.036-.046.06-.073.033zM8 5.853c-.028-.028 0-.074.037-.062.016.01.02.013.017.037 0 .034-.032.047-.054.024zm.116-.029a.55.55 0 0 1-.027-.076c-.01-.04.015-.165.03-.165.017 0 .054.119.054.17a.29.29 0 0 1-.018.078l-.018.04-.021-.046zm-1.48.5c0-.025.01-.072.014-.104a.353.353 0 0 0 .014-.064s-.058-.042-.13-.087c-.145-.091-.176-.117-.201-.165-.033-.064-.039-.132-.039-.41V5.22l-.028-.026a.377.377 0 0 0-.088-.052l-.06-.026-.014.033a1.707 1.707 0 0 1-.072.208.621.621 0 0 0-.058.21.958.958 0 0 1-.049.28l-.027.085.106.053c.058.029.142.074.186.099.093.053.413.263.422.277.014.022.024.01.024-.037zM6.15 6c-.027-.027 0-.063.042-.053.04.01.028.064-.014.064-.01 0-.02-.01-.027-.012zm-.108-.041c-.02-.024 0-.054.028-.054.035 0 .057.024.043.047-.013.022-.055.026-.07.01zm.13-.088c-.03-.047 0-.287.041-.287.034 0 .045.137.017.209a.318.318 0 0 0-.02.066c-.01.037-.019.04-.038.012zm1.062.386c.525-.331.535-.339.56-.428.012-.037.014-.167.014-.644v-.599h-.576c-.49 0-.577 0-.587.011-.01.012-.016.012-.045 0a.441.441 0 0 0-.145-.014h-.112v.531l.03.053c.024.047.028.064.028.132 0 .088-.013.136-.04.15-.017.01-.018.023-.018.174 0 .187.012.246.061.299.044.048.638.422.67.422.015 0 .08-.035.16-.085zm-.168.054c-.01-.01-.01-.019 0-.037l.013-.024.01.028c.01.032-.01.053-.022.034zm-.28-.241a3.192 3.192 0 0 1-.298-.195c-.052-.06-.052-.06-.055-.654v-.553H7.72v1.125l-.026.05c-.026.048-.033.053-.313.221a4.626 4.626 0 0 1-.3.171c-.01 0-.135-.075-.285-.165zm.39.068.082-.05v-.66h-.36v.665l.078.047a.397.397 0 0 0 .095.047.45.45 0 0 0 .1-.049zm-.197-.2c-.03-.02-.068-.127-.052-.145.01-.01.01-.02.01-.025v-.024c.01-.01.01-.026 0-.045-.01-.035-.012-.035.088 0a.453.453 0 0 1 .096.05c.044.035.043.04.01-.083-.016-.06-.017-.068 0-.091.024-.043.044-.05.075-.026.036.027.041.052.01.052-.039 0-.047.019-.032.074.01.026.02.062.03.079.01.017.015.053.015.079 0 .044 0 .05-.039.083-.038.034-.04.035-.114.035-.051 0-.082 0-.096-.014zm-.12-.194v-.317h-.391V5.6c0 .153.01.177.024.212a.208.208 0 0 0 .04.056c.02.019.305.19.316.191 0 0 .01-.141.01-.315zm-.179.136c0-.012-.01-.013-.025 0-.018.01-.02.01-.02-.023 0-.025 0-.035-.019-.04-.02-.01-.028-.034-.01-.034.01 0 .01-.01.01-.017 0-.01 0-.012-.01 0-.01.015-.046.016-.073 0a.123.123 0 0 1-.033-.043c-.017-.04-.019-.122 0-.122.01 0 .01 0 0-.015-.01-.012-.01-.015 0-.015.018 0 .021-.015.01-.024-.015-.01-.01-.027 0-.02.02.01.018 0 0-.03-.022-.033-.01-.04.025-.014.036.026.045.041.053.097.01.043.02.07.036.07.012 0 .01-.044 0-.057-.017-.017 0-.032.035-.032.036 0 .048.011.058.052.01.035.023.026.03-.02.011-.07.015-.078.05-.103l.034-.026-.014.034c-.013.03-.013.034 0 .028.017-.01.011.01-.016.039-.014.017-.014.017.012.01l.027-.01-.017.033c-.015.029-.015.03 0 .026.02-.01.02 0-.001.028-.015.022-.015.024 0 .018.023-.01.021.046 0 .074-.015.019-.021.02-.039.01-.025-.013-.028 0-.01.024.019.025.018.03 0 .038-.017.01-.019.012-.013.04.01.034.01.035-.014.024-.017-.01-.022-.01-.027 0 0 .01-.011.015-.018.015-.01 0-.015-.01-.018-.015zm.784.085c.15-.091.16-.098.186-.147.026-.051.027-.055.027-.221v-.17h-.39v.317c0 .19 0 .316.01.316 0 0 .08-.043.168-.095zm-.148-.106c0-.01.01-.024.023-.034a.144.144 0 0 0 .036-.064l.013-.046-.039-.037c-.045-.042-.057-.076-.038-.102.016-.022.025-.015.04.027.01.017.014.032.02.034.017.01.021-.03.01-.047-.026-.031 0-.058.081-.071.04-.01.05.01.05.075 0 .03 0 .059.01.062.011.012.084.01.084 0s-.01-.014-.019-.017c-.026-.01-.037-.053-.018-.072.018-.018.087-.034.098-.023 0 0 .01.018 0 .029-.01.018-.012.02-.04.014-.042-.01-.042 0 0 .036l.032.027-.018.034c-.01.019-.015.042-.012.05 0 .01 0 .037-.014.06-.016.034-.026.043-.045.043-.02 0-.024 0-.019-.02 0-.015-.01-.01-.03.019-.022.023-.047.04-.059.04-.024 0-.029-.027-.01-.035.01 0 .021-.018.03-.033.011-.024.011-.03 0-.04-.022-.018-.044 0-.067.047-.024.052-.093.085-.093.045zm-.71-.597v-.127H6.47v.253h.136v-.126zm.253 0v-.127h-.107v.253h.107v-.126zm.397-.217v-.343H6.9v.692h.36V5.05zm-.26.291c0-.017-.01-.026-.016-.026-.017 0-.019-.015 0-.024.01 0 .01-.015 0-.026 0-.016 0-.019.01-.014.01 0 .021 0 .03-.014.014-.02.014-.02.026 0 .01.012.02.017.031.014.017 0 .018 0 .01.015-.01.016-.01.023 0 .033.014.01.013.013-.01.02-.01 0-.02.014-.02.023 0 .012 0 .013-.017.01-.012-.01-.022-.01-.034.01-.016.014-.017.014-.017-.01zm.15-.102s.001-.014.01-.02c.01-.01.017-.01.025 0 .01.01.01.016 0 .02-.01.01-.03.01-.037 0zM6.96 5.15c-.012-.013-.01-.033.013-.053.011-.011.016-.01.032.01.023.026.023.027.01.042-.016.015-.039.016-.052 0zm.172-.011c0-.01 0-.014-.01-.014 0 0-.01-.01 0-.017.01-.02.042-.047.042-.031 0 .01.01.01.013.01.013 0 .015.026 0 .045-.011.018-.046.023-.046.01zm-.073-.114c-.01-.01-.01-.018-.01-.027 0-.017.04-.044.04-.03 0 .01.01.01.014.01.016 0 .017.03 0 .045-.015.014-.038.015-.05 0zm-.06-.12c0-.01-.01-.026-.013-.035-.02-.036-.01-.085.02-.085.01 0 .028-.01.039-.019.017-.016.02-.017.027 0 0 .01.02.018.037.022.035.01.04.033.02.091l-.013.042H7.06c-.046 0-.056 0-.06-.015zm.121-.072c.01-.02-.026-.039-.067-.039-.038 0-.063.02-.055.043.01.02.116.016.122 0zm.557.209v-.346h-.385v.686h.39v-.346zm-.312.276c0-.01.011-.052.024-.1l.024-.085-.02.01c-.013 0-.035.01-.05.012l-.029.01.01-.038a.349.349 0 0 0 0-.144l-.01-.038.045.01h.045a4.236 4.236 0 0 1-.038-.165c0-.01.022 0 .062.013l.062.024.06-.024c.032-.013.058-.02.058-.014 0 .01-.01.045-.02.088a.406.406 0 0 0-.016.082h.044c.046-.01.047-.01.026.06-.012.043-.012.052 0 .1.02.057.02.058-.028.042-.017-.01-.033-.01-.036-.01 0 0 0 .045.011.094a.36.36 0 0 1 .012.093s-.029-.01-.06-.017c-.055-.02-.057-.02-.106 0l-.063.022c-.01 0-.012-.001-.012-.01zm.2-.228c.017-.018.02-.073 0-.09-.01-.01-.024-.012-.038-.012-.014 0-.03 0-.036-.011-.01-.01-.012-.01-.017 0 0 .01-.016.01-.028.01-.032 0-.045.019-.045.06 0 .047.017.057.09.058.037 0 .06 0 .07-.015zm-.14-.06c0-.014.016-.018.07-.02.06 0 .066 0 .066.017 0 .018-.01.02-.07.02-.06 0-.067 0-.065-.017zm-.723.276c0-.02-.014-.036-.033-.03-.015.01-.026.032-.018.045.01.016.047 0 .05-.015zM6.63 5.08c.02-.016.068-.02.059 0v.01c.01 0 .012 0 .016-.01.01-.015.023-.012.027.01 0 .016 0 .015.012 0 .01-.021-.01-.061-.037-.078-.014-.01-.02-.01-.028.01-.01.017-.011.017-.022 0-.01-.011-.018-.013-.031-.01-.01 0-.022.01-.026.01-.015 0-.01.015.013.027l.02.013-.021.024c-.024.026-.015.03.015.01zm-.081-.014v-.022c0-.01 0-.017-.013-.023-.02-.015-.043.01-.035.035.01.02.043.028.045.01zm.292-.001v-.021c0-.01 0-.017-.013-.023-.02-.014-.043.01-.035.033.01.018.044.027.046.011zm-.24-.233v-.131h-.126v.255c0 .01.022.012.066.01h.061v-.131zm.258 0v-.136h-.107v.272h.107v-.136zm-.153-.05c-.01-.033-.041-.03-.054 0 0 .012 0 .02.015.025.025.01.045-.01.039-.03zm.01 1.318c0-.01 0-.023.01-.031.01-.011.01-.01.02.01.01.01.01.025.01.03a.018.018 0 0 1-.034-.01zm.69 0c.001-.01 0-.023.01-.031.01-.011.012-.01.02.01.01.01.01.025.01.03-.01.016-.033.01-.033-.01zm-.976-.185s0-.017.01-.03l.012-.022.011.024c.01.013.01.027.01.03-.01.01-.03.01-.035 0zm1.259-.011c0-.024.019-.036.03-.02.014.023.01.039-.011.039-.013 0-.019-.01-.019-.02zm-1.31-.342c-.01-.012 0-.049.016-.049.01 0 .022.036.015.05 0 .01-.01.01-.015.01 0 0-.011 0-.015-.01zm1.365 0c0-.01 0-.022.01-.03.012-.017.013-.017.024 0 .01.011.01.025.01.03-.01.014-.03.012-.037 0zm-1.369-.456c0-.01 0-.019.01-.027.01-.013.011-.013.02 0 .014.023.01.04-.01.04-.012 0-.02-.01-.02-.013zm1.369 0s0-.018.01-.03l.012-.022.011.024c.01.013.01.027.01.03-.01.01-.03.01-.035 0zm-1.364-.46c-.01-.012 0-.048.015-.048.01 0 .022.036.015.048 0 .01-.01.01-.015.01 0 0-.011 0-.015-.01zm.336-.014c0-.032.016-.04.029-.015.012.023.01.04-.015.04-.01 0-.014-.01-.014-.025zm.336.014c0-.01-.001-.019.01-.03.01-.017.013-.018.02-.01.013.021.01.048-.01.048-.01 0-.017 0-.02-.01zm.34 0c-.01-.012 0-.048.015-.048.011 0 .022.036.015.048 0 .01-.01.01-.015.01 0 0-.01 0-.015-.01zm.336-.014c0-.032.016-.04.029-.015.012.023.01.04-.015.04-.01 0-.014-.01-.014-.025zM8.88 5.907c.01-.021.01-.065 0-.08-.01-.01-.04 0-.116.035a.518.518 0 0 0-.11.053s.05.01.11.01c.093 0 .113 0 .118-.015zm-.2-.077c.037-.013.092-.035.122-.048.047-.021.053-.027.048-.046-.01-.034-.104-.125-.131-.125-.03 0-.053.014-.038.024.018.011.012.044-.017.087-.015.022-.04.062-.054.087-.032.055-.027.057.071.022zM6.292 4.776c-.014-.037-.083.078-.083.137 0 .011.02.036.041.058l.041.038v-.233zm2.448 3.42c0-.055.062-.15.126-.191.05-.033.059-.035.059-.012 0 .04-.04.099-.11.161-.07.063-.075.065-.075.041zm.273-.078c-.025-.03.037-.061.066-.033.017.017 0 .047-.031.047-.012 0-.028-.01-.035-.015zm-3.665-.036a.299.299 0 0 1-.043-.071.586.586 0 0 1-.034-.198c.01-.01.083.076.102.12.01.02.02.07.023.11.01.081 0 .09-.048.038zm3.822-.053a.385.385 0 0 1-.062-.083c-.017-.037-.023-.096-.01-.096s.099.088.113.116c.01.014.016.04.02.06.01.056-.01.056-.062 0zm-.183-.017a.047.047 0 0 1 .018-.058c.025-.016.051 0 .051.039 0 .025 0 .029-.032.03-.02 0-.034 0-.037-.01zM4.97 7.977c-.01-.014.01-.043.05-.078.02-.018.059-.051.084-.075l.046-.043v.027a.236.236 0 0 1-.046.121.264.264 0 0 1-.115.057c-.01 0-.016 0-.02-.01zm3.941-.102c-.015-.011-.017-.018-.01-.032.014-.023.056-.023.06 0 0 .017-.014.046-.027.046 0 0-.015-.01-.026-.014zm-.124 0c-.014-.014-.01-.06.012-.066.039-.013.075.029.05.058-.012.015-.05.019-.061.01zm-3.845-.03c-.012-.011-.01-.058.01-.07.018-.015.054-.01.067.01.01.01.01.027 0 .04-.01.023-.012.027-.039.027-.018 0-.035 0-.039-.01zm4.188-.07c-.025-.025-.025-.041 0-.063.045-.04.103.02.063.064-.022.024-.038.024-.063-.001zm.107 0c-.024-.044.023-.086.06-.053.022.02.023.036 0 .056-.024.022-.047.02-.06 0zm.144-.038a.457.457 0 0 1-.083-.149c-.023-.059-.036-.103-.031-.108.015-.015.122.097.146.151.024.056.038.154.022.154-.01 0-.03-.022-.054-.048zm-4.346.01c-.018-.018-.014-.055.01-.066.014-.01.024-.01.04.01.02.016.022.02.012.044-.012.027-.04.033-.06.014zm-.138-.032c-.031-.037.026-.081.06-.046.016.016.017.023.01.04-.013.024-.051.028-.068.01zm-.214-.02.019-.041a.303.303 0 0 1 .2-.143c.097-.025.097-.02 0 .063-.082.069-.218.145-.218.121zm4.167-.01c-.03-.01-.06-.018-.068-.023-.014-.01-.012-.01.01-.02.073-.026.27-.034.27-.01 0 .013-.037.04-.074.054-.047.017-.072.016-.138 0zm.331-.026c-.029-.03 0-.073.041-.062.028.01.04.03.025.055-.01.02-.048.025-.066.01zM5.217 7.57c-.07-.02-.062-.04.025-.065a.314.314 0 0 1 .143-.016c.104.01.11.019.036.053a.3.3 0 0 1-.205.028zm4.618-.013a.421.421 0 0 1-.056-.041c-.055-.051-.114-.167-.085-.167.02 0 .063.027.09.055.026.027.115.154.115.164 0 .01-.035 0-.063-.011zm-5.572-.014c0-.02.065-.112.103-.145.05-.044.11-.083.118-.075 0 0 0 .018-.013.033a.564.564 0 0 0-.036.058.32.32 0 0 1-.103.114c-.043.022-.069.028-.069.015zm.874-.058c-.034-.02-.01-.073.029-.066.013 0 .017.012.017.037 0 .036-.016.046-.046.029zm5.086-.03a.298.298 0 0 1-.129-.061.123.123 0 0 0-.047-.026c-.033-.011-.034-.012-.017-.025.01-.01.04-.013.066-.013h.048l-.01-.04c-.01-.035 0-.04.02-.048.021-.01.03-.01.045.01.028.025.023.05-.014.067-.017.01-.026.014-.02.014.017 0 .13.107.13.123 0 .015-.014.015-.075 0zm-.344-.028c-.011-.011-.02-.024-.02-.03 0-.016.03-.04.053-.04.042 0 .06.044.03.073-.021.02-.04.019-.063 0zm-5.115-.03c-.017-.02-.017-.02 0-.041.017-.017.025-.02.038-.011.024.015.027.044.01.059-.023.017-.027.016-.048-.01zm.158.01c-.02-.012-.022-.041 0-.058.011-.01.021-.01.04 0 .027.013.03.032.01.054-.019.018-.023.018-.046 0zm4.388 0c-.018-.018-.018-.02-.01-.044.012-.022.046-.025.073-.01.017.013.018.015 0 .039-.019.029-.046.033-.069.01zm-.134 0c-.021-.012-.022-.051 0-.068.02-.016.066 0 .07.023 0 .019-.023.055-.04.055-.01 0-.018 0-.028-.01zm-4.942-.023c-.015-.02 0-.051.02-.06.037-.011.063.035.036.063a.04.04 0 0 1-.056 0zm4.993-.078c-.016-.03 0-.054.034-.054.033 0 .049.024.036.054-.015.032-.052.032-.07 0zm1.055 0V7.27c0-.018.01-.023.031-.023.035 0 .055.026.039.05-.014.023-.06.029-.068.01zm-5.351-.021c-.011-.028-.01-.043.015-.054.017-.01.024-.01.041.01.016.016.018.024.01.037-.014.023-.058.028-.066.01zm4.87-.01c-.016-.02 0-.061.02-.068.023-.01.058.01.058.03 0 .046-.05.07-.078.038zm.195 0a.69.69 0 0 1 .119-.191c.045-.041.071-.044.061-.01 0 .014-.01.038-.012.052-.012.062-.169.197-.169.146zM3.86 7.263c-.013-.01-.016-.02-.012-.038.01-.032.032-.041.06-.022.028.018.03.036.01.058-.018.019-.033.019-.056 0zm-.13-.01c-.03-.03 0-.073.042-.062.021.01.025.01.022.038 0 .025-.01.032-.027.034-.013 0-.03 0-.037-.01zm5.945-.03c0-.023.054-.098.103-.144.046-.043.106-.076.117-.065.01.01-.06.11-.097.15-.045.049-.123.085-.123.059zm.229-.023c-.02-.02-.02-.027 0-.048.024-.022.065-.013.074.015.013.04-.044.066-.077.033zm.286 0c-.017-.022-.001-.048.032-.052.033 0 .052.02.037.046-.013.024-.051.027-.07 0zm-5.903-.026c-.01-.027.015-.046.049-.04.024 0 .029.017.019.045-.01.024-.06.02-.068-.01zm6.032.01c-.019-.019-.015-.037.011-.048.032-.014.067 0 .063.034 0 .016-.01.022-.032.024-.016 0-.035 0-.04-.01zm-5.876-.012a.296.296 0 0 1-.066-.058.304.304 0 0 0-.066-.062c-.016-.01-.029-.02-.029-.025 0-.017.066-.01.106.017a.584.584 0 0 1 .157.129c0 .016-.064.015-.103 0zm-.525-.016c-.018-.02-.018-.02 0-.04.015-.016.027-.02.046-.015.022.01.025.011.023.038 0 .025-.01.032-.028.034-.016 0-.032 0-.043-.017zm.176-.01a.234.234 0 0 1-.072-.075.727.727 0 0 0-.059-.083c-.03-.034-.03-.037-.012-.037.055 0 .13.061.185.154.048.08.037.09-.041.04zm-.43.01c-.012-.01-.015-.02-.01-.039.01-.037.06-.037.076 0 .01.022.01.027-.01.039-.023.017-.035.017-.058 0zm.129-.023c-.01-.01-.01-.047.01-.06.029-.029.078.011.063.051-.01.015-.055.022-.068.01zm5.444-.04c0-.016.06-.063.114-.087a.38.38 0 0 1 .191-.028c.08.02-.05.094-.2.113-.099.012-.105.012-.105 0zm-4.219-.017c-.019-.019-.019-.028 0-.043.018-.015.044-.01.058.012.01.014.01.02-.01.032-.024.018-.03.018-.049 0zm-.142-.01c-.02-.022 0-.063.033-.063.034 0 .05.024.037.054a.042.042 0 0 1-.07.01zm4.266.01c-.01 0-.017-.014-.023-.024-.013-.025.013-.057.046-.057.025 0 .046.03.036.053-.01.013-.035.036-.044.034 0 0-.01 0-.015-.01zM4.97 6.97c-.012-.012-.01-.05.01-.055.01 0 .024 0 .036.012.02.015.02.02.01.034-.013.016-.04.021-.053.01zm-.123-.017c-.019-.022-.01-.058.017-.062.045-.01.07.046.032.066-.025.014-.035.013-.049 0zm4.061-.012c-.017 0-.032-.01-.032-.012 0-.014.072-.057.112-.068.055-.015.212-.014.207 0 0 .01-.031.026-.063.044a.248.248 0 0 1-.126.036h-.098zm-.23-.046c-.014-.01-.017-.02-.013-.038.012-.046.084-.04.084.01 0 .042-.037.058-.073.032zm-3.219-.04c-.017-.02 0-.049.03-.049s.047.027.03.048c-.01.01-.02.015-.03.015-.01 0-.023-.01-.03-.015zm3.03-.055c0-.01.028-.026.057-.042a.26.26 0 0 1 .123-.033c.074 0 .12 0 .12.017 0 0-.01.012-.022.015-.012 0-.04.015-.063.025-.053.025-.222.038-.215.017zm.99-.307a.36.36 0 0 1-.14-.124.134.134 0 0 0-.025-.04c-.02-.012-.01-.024.024-.024.05 0 .12.052.169.125.062.092.054.11-.027.063zm.597-.043a.29.29 0 0 1-.08-.07.598.598 0 0 0-.044-.058c-.022-.025-.02-.036.012-.036.03 0 .073.024.111.063l.026.026.03-.022c.027-.02.03-.02.053-.01.014.01.025.022.025.03 0 .018-.033.044-.057.044-.025 0-.027.012-.01.03.01.01.015.015.015.02 0 .017-.035.01-.085-.02zm.184.018c-.02-.02-.014-.056.012-.062.037-.01.06 0 .062.023.01.042-.045.068-.074.04zm-6.23-.023c0-.037.175-.19.218-.19.02 0 .02 0-.016.076-.042.086-.059.098-.176.124-.02 0-.027 0-.027-.01zm5.685-.023c-.01 0-.012-.019-.01-.03 0-.019.01-.024.031-.024.031 0 .056.027.04.043-.016.015-.048.021-.061.012zm-5.394-.055c-.017-.02 0-.048.03-.048.026 0 .045.025.036.047-.01.02-.05.021-.066 0zm.133-.017a.04.04 0 0 1-.014-.037c0-.019.01-.024.034-.027.04 0 .058.024.036.055-.017.024-.032.026-.056.01zm5.785 0c-.018-.02-.01-.048.021-.058.032-.01.056.01.056.038 0 .034-.054.048-.077.02zm-.62-.017c-.019-.018-.016-.035.01-.047.03-.017.06 0 .056.028 0 .02-.01.027-.027.03-.014 0-.03 0-.037-.01zm.11-.027c-.033-.037.025-.083.06-.048.017.016.016.033 0 .051-.02.02-.036.02-.056 0zm-3.62-.017s-.01-.017-.01-.029c0-.038.07-.045.084-.01 0 .01 0 .022-.01.03-.012.014-.059.02-.071.01zm-.132-.017c-.01-.01-.01-.019-.001-.035.016-.03.072-.024.076.01.01.037-.05.056-.076.026zm-2.072 0c-.035-.01-.03-.025.02-.049a.483.483 0 0 1 .224-.036c.035.01.037.01.021.025-.038.042-.204.08-.266.061zm.451-.01c-.018-.018-.019-.035 0-.05.033-.034.088.01.066.046-.013.023-.042.025-.063 0zm5.702 0c-.033-.01-.072-.02-.088-.027l-.028-.015.046-.02c.074-.032.105-.034.189-.013l.103.025c.015 0 .027.01.027.014 0 .01-.135.05-.166.05-.013 0-.051-.01-.084-.014zm-5.546-.01c-.04-.038.01-.082.056-.05.014.01.015.018.01.04-.011.03-.04.035-.063.01zm5.061-.01c-.018-.017-.019-.025 0-.04.016-.016.066-.015.072 0 .01.02-.014.054-.035.054-.01 0-.025-.01-.034-.015zm-4.75-.01c-.02-.02-.019-.036 0-.056.015-.014.022-.014.044 0 .014.01.026.019.026.029 0 .02-.025.048-.044.048-.01 0-.02-.01-.029-.015zm4.4 0c-.03-.028-.01-.066.034-.06.034 0 .046.032.024.056s-.038.025-.058 0zm-.592-.014c-.025-.015-.021-.046.01-.054a.78.78 0 0 1 .034 0c.016.01.012.051-.01.058-.018.01-.015.01-.036 0zm.71 0c-.012-.012-.01-.04.01-.053.023-.02.065 0 .06.032 0 .016-.01.023-.032.025h-.036zm-.838-.02c-.02-.018-.02-.025 0-.041.03-.031.082 0 .059.036-.014.022-.037.024-.055.01zm.608-.022c-.017-.011-.01-.055.014-.063.021-.01.053.01.053.03 0 .035-.036.052-.067.033zm1.05-.036c-.018-.022 0-.048.035-.048.037 0 .056.03.03.049-.025.018-.05.018-.064 0zm-.168-.01c-.023-.023-.01-.06.028-.06.034 0 .053.027.038.052-.014.023-.046.026-.065.01zm-6.012-.01c-.01-.012-.01-.021 0-.04.02-.042.075-.021.068.027 0 .028-.047.036-.066.013zm.117 0c-.026-.03.012-.08.043-.055.018.015.02.041 0 .057-.016.016-.032.015-.046 0zm4.593 0c-.016-.02 0-.064.025-.064.026 0 .053.02.053.037 0 .038-.053.055-.078.026zM4.205 6.1c-.01-.01-.01-.025-.01-.039.012-.046.07-.022.062.026 0 .027-.038.035-.056.013zm5.606.01c0-.018.143-.193.173-.212.04-.026.107-.05.116-.041.019.019-.146.2-.214.234-.047.024-.075.03-.075.02zm-1.254-.016c-.019-.019-.013-.046.012-.058.044-.02.077.037.035.06-.024.013-.033.013-.047 0zm-4.72-.01c-.03-.029 0-.073.042-.062.04.01.028.074-.015.074-.01 0-.021-.01-.027-.012zm6.442-.043c-.023-.016-.027-.042-.01-.06.028-.028.083 0 .072.035-.01.032-.037.043-.062.025zm-.157-.013c-.023-.023-.016-.047.016-.055.025-.01.052.01.052.03 0 .012-.03.044-.042.044l-.026-.019zM4.428 6.01c-.048-.025-.078-.054-.067-.065 0 0 .054 0 .114.01.144.018.206.05.143.073a.268.268 0 0 1-.19-.017zm-.373 0c-.029-.029.01-.068.05-.053.033.013.027.061-.01.065-.014 0-.033 0-.04-.013zm-.111-.017c-.03-.029 0-.076.036-.057.022.012.025.022.01.05-.012.021-.03.024-.046.01zm.264-.01a.213.213 0 0 1-.105-.126c-.018-.052-.02-.108 0-.108.023 0 .083.072.123.148a.522.522 0 0 0 .05.081c.014.01.01.024-.01.024-.01 0-.036-.01-.058-.018zm.557-.223c-.01-.015.047-.067.097-.09.062-.028.196-.02.165.01-.01.01-.039.025-.074.044-.07.038-.174.057-.187.036zm.035-.14c-.03-.029 0-.076.036-.057.023.012.025.022.01.05-.011.021-.03.024-.046.01zm-.21-.085c-.027-.03-.017-.055.022-.055s.06.024.044.051c-.015.024-.046.026-.066 0zm5.147-.026a1.099 1.099 0 0 0-.068-.038c-.01 0 0-.01.01-.02.031-.025.087-.018.162.02a.375.375 0 0 0 .082.033c.01 0 .015 0 .015.01 0 .017-.037.03-.09.03a.212.212 0 0 1-.11-.035zm-5.336.013c-.02-.019-.014-.054.01-.062.029-.01.052.016.044.048-.01.027-.033.034-.053.014zm-.115-.04c-.017-.047.03-.074.058-.034.01.016.013.025 0 .035-.014.017-.056.016-.063 0zm5.711-.018a.044.044 0 0 1 .032-.076c.026 0 .044.018.044.044a.042.042 0 0 1-.044.044c-.01 0-.026-.01-.032-.012zM4.48 5.425c-.031-.03 0-.077.042-.058a.036.036 0 0 1-.015.07c-.01 0-.021-.01-.027-.012zm5.347 0c-.02-.019-.02-.025 0-.047.016-.022.059-.017.063.01 0 .017-.023.055-.038.055l-.023-.015zm-5.46-.012c-.022-.024-.02-.037.01-.056.03-.02.064 0 .064.028 0 .044-.042.06-.072.028zm5.73-.047c-.01-.023.01-.047.037-.047.026 0 .036.027.018.05-.016.018-.047.017-.055 0zm-.142 0c-.036-.02-.01-.072.033-.066.034.01.046.032.024.056-.02.022-.031.024-.057.01zM4.74 5.342c-.015-.017-.01-.039.023-.057.024-.015.065.026.05.05-.014.023-.056.027-.072.01zm.123 0c-.019-.018-.019-.024 0-.047.027-.037.093 0 .07.04a.046.046 0 0 1-.067.01zm4.91-.05c.047-.08.168-.227.185-.227.014 0 .011.05-.01.1-.027.08-.12.163-.18.163h-.02l.021-.037zm-5.661-.01c-.01-.032.01-.047.038-.04.047.013.04.066-.01.066-.017 0-.025-.01-.03-.025zm5.387.01c-.027-.022-.02-.047.015-.056.044-.011.07.027.04.058-.02.019-.027.019-.054 0zm.117 0c-.015-.018-.01-.04.023-.057.024-.015.065.026.05.05-.014.023-.057.027-.073.01zm-5.34-.034a.32.32 0 0 1-.101-.053.677.677 0 0 0-.093-.055c-.013-.01-.022-.014-.018-.02.01-.015.099-.01.15.01.05.02.16.106.15.12-.01.01-.044.01-.09 0zm.416-.014c-.026-.031.012-.08.046-.058.034.02.022.072-.017.072-.01 0-.022-.01-.029-.014zm.132-.021c-.02-.02-.02-.027 0-.047.02-.018.054-.014.062.01v.034c-.01.026-.04.029-.062.01zm4.639-.045c-.017-.017-.014-.041.01-.06.032-.03.07-.014.07.028a.042.042 0 0 1-.044.044c-.011 0-.026-.01-.032-.012zm.232-.01a.4.4 0 0 1 .101-.152c.045-.042.128-.086.14-.075 0 0 0 .018-.014.033a.546.546 0 0 0-.04.066c-.024.048-.05.07-.122.11-.063.035-.066.036-.066.019zM4.389 5.15a.359.359 0 0 1-.136-.123c-.067-.088-.05-.103.052-.046a.54.54 0 0 1 .152.17c0 .012-.035.011-.068-.001zm5.153-.083c-.043-.08-.045-.086-.039-.138.011-.094.034-.115.06-.054.01.02.022.044.031.053.027.03.03.222 0 .222 0 0-.029-.038-.054-.084zm-.304.042a.287.287 0 0 1-.05-.138c0-.054.022-.154.035-.158.01 0 .02.022.033.053.046.115.032.303-.018.243zm-4.892-.117c-.026-.02-.018-.07.012-.073.022 0 .06.022.06.039 0 .01-.036.047-.047.047 0 0-.016-.01-.025-.013zm.109-.01c-.021-.012-.022-.051 0-.068.017-.014.039-.01.057.023.01.012.01.02-.01.036-.021.023-.023.023-.047.01zm5.342-.054c-.01-.01-.01-.047.01-.06.016-.016.052-.015.065 0 .02.024 0 .064-.036.064-.015 0-.03 0-.034-.01zM4.234 4.9c-.027-.033.01-.09.045-.068.032.02.038.04.018.062-.021.024-.047.026-.063.01zm.119-.041c-.017-.01-.015-.047 0-.062.022-.018.048 0 .048.036 0 .028-.021.039-.051.027zm.13-.01c-.02-.02-.02-.037-.002-.053.023-.02.064 0 .064.022 0 .042-.035.058-.064.03zm5.23 0c-.018-.02 0-.066.025-.07.027 0 .045.02.041.053 0 .02-.01.028-.028.03-.014 0-.031 0-.038-.013zm.165-.028c-.018-.022 0-.063.032-.063.042 0 .06.034.031.062-.019.019-.047.02-.063 0zm.117-.014c-.02-.04.016-.07.062-.053.018.01.02.044 0 .06-.018.018-.055.014-.066-.01zM4.4 4.774c-.032-.037-.037-.055-.044-.178 0-.065 0-.08.01-.08.016 0 .04.022.056.052.01.016.02.24.011.24 0 0-.015-.015-.03-.034zm5.404.01c0-.01-.016-.045-.03-.08a.55.55 0 0 1-.029-.113c-.01-.056 0-.121.016-.121 0 0 .026.036.048.079.033.065.04.089.04.135 0 .085-.029.148-.045.1zm-5.582-.026c-.014-.03 0-.054.036-.054.012 0 .028.01.034.015.02.023 0 .063-.034.063-.017 0-.028-.01-.036-.024zm5.686-.078c-.015-.018-.01-.06.015-.067h.039c.026.01.033.046.013.066-.016.016-.052.015-.066 0zm-3.19-.562c-.018-.017-.015-.062 0-.08.012-.013.06-.015.368-.015.31 0 .356 0 .37.015.017.018.02.063 0 .08-.018.017-.73.017-.746 0zm.257-.013c0-.01 0-.025-.017-.04-.018-.018-.032-.023-.074-.023-.045 0-.052 0-.052.019 0 .03.046.059.094.059.03 0 .044 0 .049-.015zm.272 0c0-.01 0-.025-.017-.04-.018-.018-.032-.023-.074-.023-.045 0-.052 0-.052.019 0 .03.046.059.094.059.03 0 .044 0 .05-.015zm.198 0c.01-.01.01-.024.01-.036 0-.02-.01-.023-.041-.023-.047 0-.054.016-.022.048.028.028.038.03.054.01zm-.514-.28V3.72l-.03-.01c-.017 0-.063-.01-.103-.018l-.073-.012.067-.048c.116-.083.11-.065.054-.164A.665.665 0 0 1 6.8 3.38s.044.01.095.025a.336.336 0 0 0 .1.021s.02-.04.036-.084a.764.764 0 0 1 .038-.086s.024.033.045.083c.02.05.038.092.04.093 0 0 .044-.01.096-.026a.705.705 0 0 1 .098-.026s-.019.041-.046.088a.364.364 0 0 0-.043.094s.038.031.078.06a.4.4 0 0 1 .073.056s-.036.012-.08.018c-.126.02-.116.01-.108.126l.01.104-.078-.07-.078-.07-.076.07-.076.069V3.82z"/>
</svg>
