<svg aria-hidden="true" xmlns="http://www.w3.org/2000/svg" viewBox="0 0 14 14" height="1em" width="1em">
  <path d="M3.477 12.313c-.68-.039-.729-.052-.804-.225a18.548 18.548 0 0 1-.252-.777l-.212-.684-.212-.319a6.862 6.862 0 0 1-.643-1.263 7.182 7.182 0 0 1-.297-1.179C.993 7.445.981 6.791 1.03 6.453c.141-.968.5-1.871 1.056-2.654.302-.426.326-.502.396-1.272.053-.59.068-.65.19-.766.115-.108.18-.12.687-.12.452.001.48 0 .57.058.178.108.19.149.19.624 0 .483-.03.647-.16.909-.048.094-.385.575-.75 1.07a26.71 26.71 0 0 0-.73 1.022c-.158.292-.29.937-.311 1.525a4.807 4.807 0 0 0 1.226 3.36c.121.137.277.296.346.354l.126.105h6.285l.2-.192A4.817 4.817 0 0 0 11.83 6.68c-.036-.544-.189-1.182-.342-1.422-.04-.063-.351-.492-.692-.954-.713-.968-.747-1.02-.84-1.287-.066-.19-.07-.22-.07-.662 0-.43.003-.468.05-.531.123-.165.143-.17.664-.179.512-.01.611.01.733.108.112.094.145.228.189.755.063.774.087.847.448 1.37.507.735.826 1.521.977 2.408.093.543.061 1.357-.077 2a6.373 6.373 0 0 1-.873 2.04l-.206.306-.22.715c-.122.392-.24.746-.264.785-.076.124-.145.141-.692.17-.279.015-.587.033-.686.041l-.18.014v-.624h-.422v.595H8.063v-.595H7.64v.595H6.376v-.595h-.421v.595H4.69v-.595h-.422v.62h-.093c-.05 0-.365-.02-.698-.038zm3.23-2.31a.948.948 0 0 1-.559-.515c-.045-.098-.055-.167-.056-.357 0-.205.008-.254.066-.378.087-.187.258-.365.435-.455.13-.066.165-.072.403-.073.23 0 .277.01.402.066a.99.99 0 0 1 .432.422c.057.11.07.171.078.368.008.198.001.258-.044.379a.987.987 0 0 1-.476.502.996.996 0 0 1-.682.04zm-.052-2.411a1.012 1.012 0 0 1-.483-.465l-.08-.165V2.82l.077-.165a.913.913 0 0 1 1.052-.506.92.92 0 0 1 .612.492l.068.13v4.24l-.07.132c-.089.17-.25.33-.417.416-.114.06-.167.07-.38.076-.205.01-.271 0-.379-.044z"/>
</svg>
