<svg role="img" focusable="false" aria-hidden="true" xmlns="http://www.w3.org/2000/svg" viewBox="0 0 14 14" height="1em" width="1em">
  <path d="M 6.9999998,1 C 3.9349949,2.0640814 2.7142855,5.2857143 2.7142855,7.8571429 2.7142855,10.428571 4.2099424,12.365511 6.1428569,13 4.4285712,10.206928 4.4285712,7.8571429 6.9999998,6.1428571 c -0.4327903,1.1595583 0,3.4285719 0.8571428,4.2857139 0.3698186,-0.343506 0.8571429,-1.221194 0.8571429,-1.7142853 1.7142855,1.7142853 0.482484,3.1142233 0,4.2857143 0.9327257,-0.47923 2.5714295,-1.714286 2.5714295,-4.2857143 0,-2.5714286 -1.7142866,-3.4285714 -1.7142866,-6 C 8.3855575,3.2279227 7.8571426,4.4285714 7.8571426,5.2857143 7.0410904,4.8086632 6.1428569,2.9255077 6.9999998,1 Z"/>
</svg>
