<svg role="img" focusable="false" aria-hidden="true" xmlns="http://www.w3.org/2000/svg" viewBox="0 0 14 14" height="1em" width="1em">
  <path d="m 1.3647363,12.948522 c -0.0592,-0.027 -0.14634,-0.091 -0.19368,-0.1406 -0.37385995,-0.3941 -0.0946,-1.0458 0.44812,-1.0458 l 0.1351,0 0.007,-5.0240996 0.007,-5.0242 0.0851,-0.1614 c 0.10896,-0.2066 0.27581,-0.3675 0.47983,-0.4627 l 0.16142,-0.075 2.87863,0 2.87862,0 0.16439,0.076 c 0.19678,0.091 0.38229,0.2724 0.48627,0.4755 l 0.0757,0.148 0.0135,1.6411 0.0135,1.6411 0.36319,0.017 c 0.19975,0.01 0.41161,0.032 0.4708,0.05 0.4097197,0.1273 0.8157497,0.4697 0.9894997,0.8343 0.1789,0.3755 0.18077,0.4011 0.18088,2.4807 1.1e-4,1.8014996 0.002,1.8670996 0.0526,1.9502996 0.1548,0.2539 0.54403,0.2157 0.66368,-0.065 0.0305,-0.072 0.0369,-0.5805996 0.0369,-2.9256996 l 0,-2.8391 -0.41027,-6e-4 c -0.46711,-7e-4 -0.56333,-0.027 -0.71203,-0.1966 -0.11967,-0.1363 -0.15663,-0.2875 -0.11535,-0.472 0.0336,-0.1504 0.0577,-0.1801 0.61589,-0.7624 l 0.14736,-0.1538 -0.45979,-0.4683 c -0.25288,-0.2575 -0.47971,-0.5068 -0.50407,-0.5539 -0.0614,-0.1187 -0.08,-0.3163 -0.0429,-0.4542 0.0384,-0.1425 0.19392,-0.3199 0.33774,-0.3854 0.14475,-0.066 0.37018,-0.065 0.50972,0 0.0702,0.034 0.39137,0.3365 0.89239,0.8407 0.82202,0.8272 0.87939,0.9001 0.95028,1.2076 0.0176,0.076 0.0274,1.3774 0.0279,3.6838 7.3e-4,3.9519996 0.0119,3.6964996 -0.17879,4.0869996 -0.18227,0.3732 -0.57933,0.6948 -1.01774,0.8242 -0.19599,0.058 -0.58409,0.065 -0.79364,0.014 -0.54129,-0.131 -0.99528,-0.5517 -1.1768297,-1.0905 l -0.0732,-0.2173 -0.0139,-1.9638996 c -0.013,-1.837 -0.0171,-1.9686 -0.0626,-2.0356 -0.0784,-0.1154 -0.2002,-0.157 -0.45997,-0.157 l -0.23146,0 0.007,2.7508 0.007,2.7507996 0.16142,0.016 c 0.18748,0.018 0.28907,0.065 0.4089,0.1905 0.23585,0.2458 0.22583,0.6399 -0.0222,0.8752 -0.19175,0.182 0.11432,0.1696 -4.18585,0.169 -3.73701,-6e-4 -3.89944,0 -4.00269,-0.051 z m 5.99339,-6.9721996 c 0.13225,-0.037 0.2843,-0.1719 0.34591,-0.3075 0.0454,-0.1 0.049,-0.2124 0.049,-1.5472 0,-1.3347 -0.004,-1.4471 -0.049,-1.5471 -0.0616,-0.1357 -0.21366,-0.2708 -0.34591,-0.3076 -0.14492,-0.04 -3.83017,-0.039 -3.97557,0 -0.14037,0.039 -0.32107,0.2196 -0.36003,0.36 -0.0407,0.1465 -0.0415,2.8367 -9e-4,2.9828 0.0376,0.1355 0.19781,0.3049 0.33394,0.353 0.0888,0.031 0.43961,0.038 2.00427,0.039 1.24413,7e-4 1.93163,-0.01 1.99829,-0.027 z"/>
</svg>
