<svg aria-hidden="true" xmlns="http://www.w3.org/2000/svg" viewBox="0 0 14 14" height="1em" width="1em">
  <path d="m6.755 12.975.057-1.32c.07-1.594.07-1.51.014-1.585-.05-.069-.107-.102-.177-.102-.083 0-.668.078-1.439.19-.78.115-1.202.172-1.208.164 0 0 .049-.178.114-.39.136-.443.143-.496.08-.62-.036-.072-.123-.146-1.39-1.174a62.138 62.138 0 0 1-1.348-1.11c0-.01.14-.078.307-.156.168-.078.321-.158.341-.177.047-.044.06-.115.04-.216-.01-.044-.12-.454-.245-.91a39.688 39.688 0 0 1-.224-.833s.35.07.772.159c.423.089.795.162.826.162a.235.235 0 0 0 .186-.096c.016-.024.073-.196.126-.383a7.12 7.12 0 0 1 .107-.358c.01-.012.23.23.628.674.34.381.642.714.672.74.063.053.16.084.22.071.09-.02.147-.118.146-.257 0-.039-.12-.715-.27-1.501a94.707 94.707 0 0 1-.264-1.435s.196.092.43.21c.408.208.428.217.512.217.105 0 .187-.04.237-.116.018-.028.247-.45.508-.937.261-.487.479-.886.484-.886.01 0 .224.399.485.886.26.487.49.909.507.936a.276.276 0 0 0 .17.114c.097.022.187-.011.601-.223.222-.114.406-.204.409-.201 0 0-.117.648-.265 1.435-.15.797-.27 1.466-.27 1.51 0 .194.112.292.266.233a.452.452 0 0 0 .111-.065c.025-.022.324-.352.664-.732.396-.444.62-.684.626-.672.01.01.053.17.107.357.053.187.11.36.126.383a.235.235 0 0 0 .186.096c.032 0 .403-.073.826-.162.422-.089.77-.16.772-.158 0 0-.102.39-.233.863s-.24.898-.244.946c-.01.131.011.15.389.326.171.08.312.151.312.157 0 .01-.609.505-1.352 1.108-1.268 1.03-1.355 1.103-1.392 1.175-.063.124-.056.177.081.62.065.212.116.387.114.39-.01.01-.428-.049-1.209-.163-.789-.116-1.356-.19-1.444-.19-.07 0-.15.064-.186.149-.023.054-.022.126.01 1.302.018.685.033 1.32.034 1.413V13h-.22c-.2 0-.22 0-.22-.025z"/>
</svg>
