<svg role="img" focusable="false" aria-hidden="true" xmlns="http://www.w3.org/2000/svg" viewBox="0 0 14 14" height="1em" width="1em">
  <path d="m 12.142857,8.285715 -10.2857141,0 C 1.3838393,8.285715 1,8.669555 1,9.142855 l 0,0.85715 c 0,0.4733 0.3838393,0.85714 0.8571429,0.85714 l 10.2857141,0 C 12.616161,10.857145 13,10.473305 13,10.000005 l 0,-0.85715 c 0,-0.4733 -0.383839,-0.85714 -0.857143,-0.85714 z m 0,-5.14286 -10.2857141,0 C 1.3838393,3.142855 1,3.526695 1,4.000005 l 0,0.85714 c 0,0.4733 0.3838393,0.85714 0.8571429,0.85714 l 10.2857141,0 C 12.616161,5.714285 13,5.330445 13,4.857145 l 0,-0.85714 c 0,-0.47331 -0.383839,-0.85715 -0.857143,-0.85715 z"/>
</svg>
