<svg role="img" focusable="false" aria-hidden="true" xmlns="http://www.w3.org/2000/svg" viewBox="0 0 14 14" height="1em" width="1em">
  <path d="m 7.1999672,4 0,-0.79999 c 0,-0.11039 -0.089601,-0.19999 -0.1999914,-0.19999 -0.1103902,0 -0.1999914,0.0896 -0.1999914,0.19999 l 0,0.79999 c 0,0.11039 0.089601,0.19999 0.1999914,0.19999 0.1103903,0 0.1999914,-0.0896 0.1999914,-0.19999 z m 0.6059977,1.99999 c 0,-0.11039 -0.08939,-0.2 -0.1999914,-0.2 l -0.00199,0 c -0.1103903,0 -0.199007,0.0896 -0.199007,0.2 0,0.11039 0.090609,0.19999 0.2009992,0.19999 C 7.7165768,6.2 7.8059671,6.11038 7.8059671,5.99999 Z M 11.999948,1.00001 c -0.312608,0 -0.60799,0.1508 -0.795794,0.40001 l -8.4083571,0 C 2.607993,1.15081 2.3125879,1.00001 2.0000031,1.00001 c -0.5514119,0 -1.00000385,0.4486 -1.00000385,1.00001 0,0.55139 0.44859195,1 1.00000385,1 0.3126082,0 0.6079898,-0.1508 0.7957938,-0.40001 l 7.1875735,0 c 0.1103906,0 0.1999916,-0.0896 0.1999916,-0.19999 0,-0.11039 -0.0896,-0.19999 -0.1999916,-0.19999 l -7.2943778,0 c -0.071203,0 -0.1369917,0.0378 -0.172804,0.0994 -0.1095933,0.1882 -0.3026004,0.30061 -0.5162089,0.30061 -0.3307956,0 -0.5999977,-0.2692 -0.5999977,-0.6 0,-0.33079 0.2692021,-0.6 0.5999977,-0.6 0.2136085,0 0.4065921,0.11241 0.5162089,0.30061 0.035789,0.0616 0.1016012,0.0994 0.172804,0.0994 l 8.6219664,0 c 0.0712,0 0.136991,-0.0378 0.172804,-0.0994 0.109593,-0.1882 0.3026,-0.30061 0.516209,-0.30061 0.330795,0 0.599997,0.26921 0.599997,0.6 0,0.3308 -0.269202,0.6 -0.599997,0.6 -0.213609,0 -0.406593,-0.11241 -0.516209,-0.30061 -0.03579,-0.0616 -0.101601,-0.0994 -0.172804,-0.0994 l -0.511006,0 c -0.11039,0 -0.199991,0.0896 -0.199991,0.19999 l 0,8.86056 -3.3999948,1.2524 0,-2.113 c 0,-0.11039 -0.089601,-0.19999 -0.1999914,-0.19999 -0.1103902,0 -0.1999914,0.0896 -0.1999914,0.19999 l 0,2.113 -3.3999946,-1.2524 0,-8.06057 c 0,-0.11039 -0.089601,-0.19999 -0.1999914,-0.19999 -0.1103902,0 -0.1999914,0.0896 -0.1999914,0.19999 l 0,8.19998 c 0,0.0838 0.052195,0.1586 0.1308042,0.1878 l 3.7999773,1.3998 c 0.022406,0.008 0.045797,0.0124 0.069211,0.0124 0.023414,0 0.046805,-0.004 0.069211,-0.0124 l 3.7999775,-1.3998 c 0.07861,-0.0292 0.130804,-0.10399 0.130804,-0.1878 l 0,-8.79998 0.204211,0 c 0.187804,0.24921 0.483209,0.40001 0.795794,0.40001 0.551389,0 1.000004,-0.44859 1.000004,-1 C 12.999954,1.44861 12.551362,1.00001 11.99995,1.00001 Z M 4.6059852,6.75139 c -0.015,0.0598 -0.00159,0.12321 0.036398,0.17161 0.037805,0.0486 0.096,0.077 0.157593,0.077 0.032203,0 0.072,0.0148 0.1117965,0.0362 C 4.5957661,7.4896 4.6321645,8.1116 5.0209676,8.8894 5.0527716,8.9528 5.1155606,8.99479 5.1863654,8.9996 5.2567714,9.0036 5.3249743,8.9714 5.3649585,8.913 5.502747,8.712 5.6377465,8.559 5.7533631,8.44641 5.8079721,8.76921 6.0285652,9.2174 6.6719689,9.7536 6.7087659,9.7844 6.7541639,9.8 6.7999606,9.8 6.8367576,9.8 6.8735546,9.79 6.9063666,9.7694 6.9795616,9.7234 7.0149755,9.63541 6.9939756,9.55141 6.8403668,8.93742 7.0851706,8.78182 7.0893656,8.77901 7.1881776,8.72941 7.228373,8.60941 7.1789666,8.5106 7.1295606,8.412 7.009561,8.37159 6.9105613,8.4212 6.8935693,8.4292 6.5867736,8.59021 6.5483596,9.0872 5.9787603,8.45999 6.1665643,8.11101 6.1663533,8.11101 6.2169543,8.03521 6.2097593,7.9348 6.1491503,7.86681 6.0883533,7.79881 5.9897524,7.78061 5.9085418,7.82221 c -0.015,0.008 -0.3127956,0.1642 -0.6645911,0.5876 C 5.0219515,7.8448 5.054342,7.42942 5.3407467,7.14581 5.4189577,7.06821 5.4197547,6.94202 5.3425467,6.86341 5.3251567,6.84561 5.2139458,6.736 5.0607588,6.66382 5.2821485,6.21162 5.7879513,6.20023 5.8111543,6.20001 c 0.081,0 0.1541947,-0.049 0.1849915,-0.12419 0.030797,-0.0752 0.013008,-0.16139 -0.044789,-0.2182 C 5.8451619,5.75283 5.7437482,5.58823 5.7525607,5.54142 c 0.06839,-0.0684 0.2650068,-0.0102 0.3542095,0.0356 0.057398,0.0302 0.1259995,0.0306 0.1841946,0.001 0.057797,-0.0296 0.097804,-0.0854 0.1069918,-0.14979 0.027,-0.18879 0.1275932,-0.42839 0.202007,-0.42839 0.1450073,0 0.2042102,0.24101 0.2046086,0.24199 0.019805,0.0922 0.1012027,0.158 0.1953977,0.158 l 0.5999976,0 c 0.2213898,0 0.5163964,0.3472 0.692599,0.55459 0.063797,0.075 0.1197885,0.14079 0.166007,0.1868 0.1057966,0.1058 0.2342102,0.138 0.3371941,0.1638 0.1570072,0.0392 0.2042102,0.051 0.2042102,0.2948 0,0.19999 -0.057609,0.19999 -0.2107961,0.19999 -0.017602,-2.1e-4 -0.045609,-0.004 -0.081,-0.008 -0.2307881,-0.0264 -0.6607943,-0.0768 -0.920387,0.1542 -0.085593,0.0764 -0.1878039,0.217 -0.1878039,0.45419 0,0.37481 0.3263893,0.53179 0.5999976,0.58139 l 0,0.3464 C 7.9291926,8.22859 7.486788,8.02438 7.1453988,7.663 7.0696018,7.5826 6.9429933,7.579 6.8627905,7.655 c -0.08039,0.0758 -0.084,0.20241 -0.0082,0.2828 0.6079898,0.6438 1.4638068,0.84899 1.4999942,0.85738 0.05939,0.0136 0.1219917,-1.8e-4 0.1698039,-0.0382 0.047789,-0.0378 0.075609,-0.0956 0.075609,-0.15661 l 0,-0.79999 c 0,-0.10999 -0.08939,-0.19919 -0.1994055,-0.19999 -0.00401,0 -0.4005923,-0.0112 -0.4005923,-0.19999 0,-0.0964 0.030609,-0.13479 0.053789,-0.1552 0.125601,-0.11201 0.4635919,-0.0726 0.6079898,-0.0558 0.05639,0.007 0.1005933,0.011 0.1270073,0.011 0.4056078,0 0.6112007,-0.20179 0.6112007,-0.59999 0,-0.5562 -0.3173894,-0.6356 -0.506998,-0.68299 C 8.8263796,5.90082 8.7689813,5.88642 8.7413954,5.85902 8.7013874,5.81902 8.6529894,5.76142 8.597396,5.69623 8.3479985,5.40262 8.0063983,5.00044 7.5999937,5.00044 l -0.4559984,0 C 7.0606053,4.80964 6.8897933,4.60043 6.5999897,4.60043 6.2847799,4.60043 6.1292025,4.90744 6.0572028,5.13602 5.865602,5.09062 5.633806,5.09482 5.4698145,5.25902 5.3936195,5.33522 5.3536118,5.43363 5.3540102,5.54341 c 3.985e-4,0.1106 0.043195,0.2206 0.097593,0.3162 C 5.1213701,5.96301 4.7393872,6.2182 4.6059815,6.7518 Z"/>
</svg>
