<svg aria-hidden="true" xmlns="http://www.w3.org/2000/svg" viewBox="0 0 14 14" height="1em" width="1em">
  <path d="M10.124 9.676C10.064 9.726 9 12.27 9 12.368c0 .034.014.08.032.103.034.049 1.17.529 1.248.529.032 0 .078-.02.108-.042.056-.046 1.124-2.6 1.124-2.688 0-.104-.105-.168-.68-.402a6.926 6.926 0 0 0-.613-.234.207.207 0 0 0-.095.04zm-6.963.202c-.32.134-.595.261-.614.285a.222.222 0 0 0-.034.108c0 .102 1.043 2.61 1.114 2.673.032.032.08.056.11.056.027 0 .305-.105.614-.232.561-.234.674-.3.674-.4 0-.056-1.066-2.636-1.105-2.678-.08-.083-.166-.06-.759.188zm3.534-2.227c-.18.024-.48.117-.66.203a2.325 2.325 0 0 0-1.296 1.56 2.332 2.332 0 0 0 2.163 2.895c1.071.055 2.032-.633 2.356-1.69.064-.202.069-.246.069-.643 0-.398-.005-.442-.069-.644A2.352 2.352 0 0 0 7.4 7.67a2.847 2.847 0 0 0-.705-.02zm.52.83c.3.222.19.666-.171.707-.407.046-.58-.512-.224-.72.117-.067.295-.062.395.013zM6.044 9.65c.3.222.19.666-.17.708-.408.046-.581-.512-.225-.72.117-.068.295-.063.395.012zm2.28-.032c.044.017.11.068.15.11.058.061.072.103.082.215.007.117 0 .156-.049.224-.122.18-.283.234-.473.161-.297-.112-.324-.529-.044-.688a.352.352 0 0 1 .334-.021zm-1.17 1.171c.044.017.11.068.149.11.058.06.073.102.082.214.008.118 0 .157-.048.225-.122.18-.283.234-.473.16-.298-.111-.325-.528-.044-.687a.352.352 0 0 1 .334-.022zm2.62-5.136-.725.724.505.154c.28.083.548.151.602.151a.383.383 0 0 0 .307-.18c.047-.08.05-.113.044-.83l-.007-.746-.727.727zm-.955-.144-.607.607.203.066.204.064.671-.673.673-.67h-.536l-.608.607zm-3.843.26c-.476.479-.849.864-.83.86.02-.01.496-.152 1.057-.325l1.017-.312v-1.09h-.378l-.866.868zm-.864-.236-.631.632.014.124c.015.12.076.271.11.271.01 0 .39-.373.846-.83l.83-.828h-.537l-.632.631zm2.108-4.29c0 .227-.003.244-.05.244-.026 0-.18.044-.34.098a4.032 4.032 0 0 0-2.28 1.933c-.107.197-.121.214-.204.227a1.456 1.456 0 0 0-.505.195c-.351.234-.525.61-.525 1.15v.203h-.78v1.561h.89l.095.186c.222.431.7.756 1.188.807l.139.015.19.46c.193.467.234.532.346.532.096 0 .147-.04.24-.202.156-.27.292-.441.519-.656a2.677 2.677 0 0 1 1.22-.673c.207-.054.28-.061.648-.061s.441.01.651.063c.517.136.92.37 1.288.746.127.13.28.317.341.415.218.35.2.331.31.339.076 0 .112 0 .147-.042a4.14 4.14 0 0 0 .224-.488l.18-.441h.1c.14 0 .437-.085.613-.178.21-.11.539-.447.643-.659l.083-.164h.871v-1.56h-.78v-.29c0-.223-.013-.327-.05-.45a1.19 1.19 0 0 0-.958-.809c-.082-.012-.097-.027-.178-.19A3.932 3.932 0 0 0 8 1.522l-.207-.054-.008-.234L7.778 1H6.22v.244zm.212 3.332a.728.728 0 0 1 .124.132c.051.078.054.095.054.74 0 .613-.005.667-.049.74a.427.427 0 0 1-.107.12c-.034.021-.593.202-1.24.402-.963.297-1.204.363-1.326.363a.748.748 0 0 1-.693-.424L3.11 6.48v-.843c0-.844 0-.844.056-.937a.47.47 0 0 1 .146-.139c.088-.046.147-.046 1.571-.042 1.459.01 1.48.01 1.549.056zm4.234-.03a.514.514 0 0 1 .151.11l.073.079.007.856c.005.734 0 .87-.031.973-.056.165-.234.353-.415.439-.266.127-.3.12-1.622-.286a36.997 36.997 0 0 1-1.22-.387.403.403 0 0 1-.194-.244c-.02-.066-.025-.288-.02-.695.008-.578.01-.6.064-.69a.47.47 0 0 1 .146-.14c.085-.044.156-.046 1.537-.049 1.175 0 1.46.01 1.524.034z"/>
</svg>
