<svg aria-hidden="true" xmlns="http://www.w3.org/2000/svg" viewBox="0 0 14 14" height="1em" width="1em">
  <path d="M6.192 6.352c.03.231.225.404.458.404h.7a.461.461 0 0 0 .458-.404l.513-4.041a.35.35 0 0 0-.117-.307l-1.107-.968a.147.147 0 0 0-.194 0l-1.107.968a.35.35 0 0 0-.117.307l.513 4.041zm3.957 1.054c-.17-1.395-.707-2.3-1.532-2.766L8.39 6.426a1.05 1.05 0 0 1-1.04.917h-.7a1.05 1.05 0 0 1-1.04-.917L5.382 4.64c-.824.467-1.362 1.37-1.532 2.766-.173 1.42-.697 3.81-.859 4.53a.24.24 0 0 0 .159.282l2.308.77a.24.24 0 0 0 .316-.213l.188-2.922a.34.34 0 0 0-.192-.328l-1.31-.628a.33.33 0 0 1-.154-.44l.297-.619a.33.33 0 0 1 .44-.154l1.316.631a.34.34 0 0 1 .192.306v1.7c0 .032.01.064.03.091l.29.407a.158.158 0 0 0 .257 0l.291-.407a.158.158 0 0 0 .03-.092V8.621c0-.13.075-.25.192-.306l1.316-.631a.329.329 0 0 1 .44.154l.297.62a.33.33 0 0 1-.155.439l-1.309.628a.34.34 0 0 0-.192.328l.188 2.922a.24.24 0 0 0 .316.213l2.308-.77a.24.24 0 0 0 .159-.281c-.162-.721-.686-3.111-.86-4.531z"/>
</svg>
