<svg aria-hidden="true" xmlns="http://www.w3.org/2000/svg" viewBox="0 0 14 14" height="1em" width="1em">
  <path d="m10.543 4.185 2.133-1.28a.667.667 0 1 0-.686-1.143L8.642 3.77A13.11 13.11 0 0 0 7 3.667c-3.314 0-6 1.194-6 2.666v3.35c0 .635.5 1.218 1.333 1.675V9.351c0-.367.3-.667.667-.667.367 0 .667.3.667.667v2.55c.779.232 1.687.384 2.666.432v-2.316c0-.366.3-.666.667-.666.367 0 .667.3.667.666v2.316c.979-.048 1.887-.2 2.666-.432v-2.55c0-.367.3-.667.667-.667.367 0 .667.3.667.667v2.007c.832-.457 1.333-1.04 1.333-1.674v-3.35c0-.883-.97-1.664-2.457-2.149zM7 8c-2.761 0-5-.746-5-1.667 0-.92 2.239-1.666 5-1.666l.145.002L5.323 5.76a.667.667 0 1 0 .687 1.143L9.4 4.871c1.549.283 2.6.832 2.6 1.463C12 7.254 9.76 8 7 8z"/>
</svg>
