<svg role="img" focusable="false" aria-hidden="true" xmlns="http://www.w3.org/2000/svg" viewBox="0 0 14 14" height="1em" width="1em">
  <path d="m 9.3054836,7.0047282 c -0.7988432,-0.31953 -1.5077051,-1.72227 -1.8852107,-2.699 -0.7471,-1.9344 -1.4749011,-3.10511 -3.5764343,-3.05517 -2.6856521,0.0634 -2.8438385,2.55927 -2.8438385,2.55927 l 0,8.3137998 c 0,0.34638 0.2811714,0.62735 0.6273514,0.62735 l 10.4988355,0 c 0.346021,0 0.689803,-0.2741 0.743584,-0.61628 0.219359,-1.39723 0.468206,-4.6938098 -2.043916,-4.8196698 -0.631068,-0.0322 -1.1306392,-0.15399 -1.5203714,-0.3103 z m 2.8784804,5.1458298 -10.6785586,0 0,-2.3377898 0.6160038,0 0,1.7137898 0.6635516,0 0,-1.7137898 0.5447221,0 0,1.7137898 0.6635517,0 0,-1.7137898 0.5447221,0 0,1.7137898 0.6633918,0 0,-1.7137898 0.5449219,0 0,1.7137898 0.6633918,0 0,-1.7137898 0.5452415,0 0,1.7137898 0.6634318,0 0,-1.7137898 0.544762,0 0,1.7137898 0.6633919,0 0,-1.7137898 0.5450816,0 0,1.7137898 0.663032,0 0,-1.7137898 0.545082,0 0,1.7137898 0.663711,0 0,-1.7137898 0.939769,0 0,2.3377898 7.99e-4,0 z"/>
</svg>
