<svg aria-hidden="true" xmlns="http://www.w3.org/2000/svg" viewBox="0 0 14 14" height="1em" width="1em">
  <path d="M6.502 5.169c.284-.224.426-.549.426-.975 0-.125-.018-.245-.055-.36a1.003 1.003 0 0 0-.163-.315 1.084 1.084 0 0 0-.274-.25 1.17 1.17 0 0 0-.381-.16c.218-.104.38-.235.487-.392a.986.986 0 0 0 .16-.567 1.04 1.04 0 0 0-.108-.48 1.048 1.048 0 0 0-.31-.36 1.503 1.503 0 0 0-.489-.23A2.363 2.363 0 0 0 5.157 1H3.553v4.506h1.692c.553 0 .972-.113 1.257-.337zM4.15 1.536h.945c.189 0 .349.013.478.041a.866.866 0 0 1 .316.124c.08.056.138.126.173.209.035.083.053.18.053.291 0 .249-.078.425-.234.53-.156.105-.398.157-.728.157H4.15V1.536zm0 3.434V3.416h1.007c.22 0 .405.016.553.047a.93.93 0 0 1 .355.14.514.514 0 0 1 .187.243.999.999 0 0 1 .054.348c0 .517-.354.775-1.064.775H4.15zm3.763.165c.14.147.307.259.503.335.196.076.412.114.649.114.184 0 .357-.023.519-.07.161-.046.304-.114.428-.202a1.137 1.137 0 0 0 .466-.779h-.607a.486.486 0 0 1-.076.255.639.639 0 0 1-.185.186.924.924 0 0 1-.259.114c-.095.026-.19.04-.286.04a.981.981 0 0 1-.372-.069.843.843 0 0 1-.302-.206 1.042 1.042 0 0 1-.212-.347 1.715 1.715 0 0 1-.1-.492h2.457v-.14c0-.269-.036-.51-.108-.72a1.5 1.5 0 0 0-.307-.538 1.304 1.304 0 0 0-.483-.336 1.671 1.671 0 0 0-.635-.116 1.59 1.59 0 0 0-.62.118c-.19.078-.351.192-.486.34a1.587 1.587 0 0 0-.314.537 2.12 2.12 0 0 0-.113.715c0 .27.039.512.116.724.077.211.186.39.327.537zm.289-1.99a.944.944 0 0 1 .201-.292.773.773 0 0 1 .273-.174.912.912 0 0 1 .327-.058.84.84 0 0 1 .602.235c.166.157.271.39.317.7H8.085a1.44 1.44 0 0 1 .117-.411zM6.531 8.089a1.852 1.852 0 0 0-.593-.578 1.457 1.457 0 0 0-.751-.204c-.272 0-.523.068-.752.202-.23.135-.428.327-.594.575-.167.25-.297.548-.39.899a4.49 4.49 0 0 0-.142 1.167c0 .424.047.813.138 1.162.092.35.221.65.387.9.167.25.365.445.595.582.23.137.481.206.758.206.274 0 .527-.07.756-.208.23-.14.427-.335.592-.586.166-.251.294-.552.386-.9.093-.348.139-.734.139-1.156 0-.425-.047-.813-.14-1.163a2.997 2.997 0 0 0-.39-.898zm-.105 2.998a2.43 2.43 0 0 1-.278.7c-.12.189-.261.335-.425.436a1.01 1.01 0 0 1-.54.153.998.998 0 0 1-.536-.153 1.334 1.334 0 0 1-.424-.437 2.376 2.376 0 0 1-.277-.7 3.986 3.986 0 0 1-.1-.936c0-.347.035-.658.102-.932a2.32 2.32 0 0 1 .28-.695c.12-.19.262-.337.427-.437a1.021 1.021 0 0 1 1.068-.002c.163.099.303.243.422.431.119.19.212.422.279.696.067.276.1.589.1.939s-.033.663-.098.937zm4.193-.287a1.296 1.296 0 0 0-.458-.696 1.823 1.823 0 0 0-.333-.206 2.63 2.63 0 0 0-.362-.144 17.097 17.097 0 0 0-.36-.108c-.172-.05-.316-.1-.431-.153a1.076 1.076 0 0 1-.277-.17.508.508 0 0 1-.148-.218.874.874 0 0 1-.043-.296c0-.26.078-.464.235-.615.158-.152.381-.228.673-.228.596 0 .92.332.974.996h.502a2.218 2.218 0 0 0-.12-.694 1.54 1.54 0 0 0-.31-.52 1.313 1.313 0 0 0-.468-.328 1.56 1.56 0 0 0-.601-.112c-.208 0-.398.037-.57.115a1.324 1.324 0 0 0-.725.8 1.77 1.77 0 0 0-.101.61c0 .206.025.386.075.542.048.155.124.293.226.414.102.12.234.227.392.317.16.09.35.17.57.24.227.066.418.13.574.194.156.062.281.132.378.21a.671.671 0 0 1 .206.274 1 1 0 0 1 .065.383c0 .145-.023.274-.07.39a.861.861 0 0 1-.197.296.855.855 0 0 1-.308.188c-.12.043-.252.064-.399.064-.151 0-.293-.024-.425-.07a.96.96 0 0 1-.352-.222 1.157 1.157 0 0 1-.25-.38 1.64 1.64 0 0 1-.12-.541h-.497c.006.274.044.527.116.754.07.227.174.425.313.59a1.4 1.4 0 0 0 .516.385c.207.092.449.138.727.138a1.382 1.382 0 0 0 1.043-.464c.13-.146.231-.32.303-.524a1.95 1.95 0 0 0 .109-.666 2.05 2.05 0 0 0-.072-.545zM3.452 6.197h7.213v.45H3.452v-.45z"/>
</svg>
