<svg role="img" focusable="false" aria-hidden="true" xmlns="http://www.w3.org/2000/svg" viewBox="0 0 14 14" height="1em" width="1em">
  <path d="m 10.803666,7.409621 c -0.199213,1.399866 -1.4054954,2.479865 -2.8594824,2.479865 -0.380002,0 -0.742987,-0.07395 -1.075521,-0.208042 l -1.0014392,1.734447 c 0.6412692,0.302211 1.3467682,0.461632 2.0768322,0.461632 0.381409,0 0.756165,-0.04401 1.118511,-0.128459 0.02789,-0.548252 0.324089,-1.071682 0.834724,-1.366471 0.5099964,-0.294533 1.1104504,-0.289799 1.5986954,-0.04069 0.76154,-0.808368 1.216902,-1.833094 1.307488,-2.932285 l -1.999808,0 z M 5.0556571,7.000959 c 0,-0.920321 0.432588,-1.741355 1.1049483,-2.270671 L 5.1595497,2.996225 C 4.9247673,3.160253 4.702652,3.345904 4.495762,3.552666 3.9164189,4.132009 3.5009757,4.831494 3.2723348,5.594952 c 0.4606084,0.298372 0.7656335,0.816301 0.7656335,1.406007 0,0.589579 -0.3050251,1.107636 -0.7656335,1.40588 0.2286409,0.763458 0.6440841,1.462943 1.2234272,2.042286 0.206762,0.206762 0.4286215,0.392157 0.6632759,0.556313 L 6.1602216,9.271247 C 5.4879892,8.741931 5.0556571,7.920897 5.0556571,7.000959 Z M 7.9441836,4.112305 c 1.453603,0 2.6596304,1.079359 2.8593544,2.478713 l 2.000064,0 C 12.712762,5.491443 12.256886,4.46659 11.494707,3.65835 11.00659,3.90695 10.406392,3.911685 9.8965236,3.61741 9.3862716,3.322749 9.0902026,2.800214 9.0617986,2.252602 8.6995816,2.168162 8.3253366,2.124399 7.9441836,2.124399 c -0.729809,0 -1.435051,0.159294 -2.0764485,0.461376 L 6.8690466,4.320094 C 7.2015806,4.186262 7.5644376,4.112308 7.9441836,4.112308 Z M 11.900938,2.167386 A 1.1673863,1.1673863 0 0 1 10.733552,3.334773 1.1673863,1.1673863 0 0 1 9.5661646,2.167386 1.1673863,1.1673863 0 0 1 10.733552,1 1.1673863,1.1673863 0 0 1 11.900938,2.167386 Z m 10e-4,9.665228 A 1.1673863,1.1673863 0 0 1 10.734552,13 1.1673863,1.1673863 0 0 1 9.5671646,11.832614 1.1673863,1.1673863 0 0 1 10.734552,10.665227 1.1673863,1.1673863 0 0 1 11.901938,11.832614 Z M 3.5311711,7.00096 A 1.1673863,1.1673863 0 0 1 2.3637847,8.168346 1.1673863,1.1673863 0 0 1 1.1963984,7.00096 1.1673863,1.1673863 0 0 1 2.3637847,5.833573 1.1673863,1.1673863 0 0 1 3.5311711,7.00096 Z"/>
</svg>
