<svg role="img" focusable="false" aria-hidden="true" xmlns="http://www.w3.org/2000/svg" viewBox="0 0 14 14" height="1em" width="1em">
  <path d="m 8.0307655,2.81821 -3.03e-4,0 c -0.300469,0 -0.545245,-0.24435 -0.545548,-0.54464 -1.21e-4,-0.30138 0.244351,-0.54609 0.545064,-0.54627 0.300833,0 0.545487,0.24435 0.54579,0.5447 1.21e-4,0.14611 -0.05648,0.28313 -0.159386,0.38616 -0.103025,0.10314 -0.239927,0.15987 -0.385617,0.16005 l 0,0 z m -1.454653,-0.8485 -3.64e-4,0 c -0.267077,0 -0.484582,-0.2172 -0.484763,-0.48428 -1.82e-4,-0.12975 0.05018,-0.25144 0.141629,-0.34313 0.09151,-0.0916 0.213262,-0.14218 0.34277,-0.1423 0.267502,0 0.484946,0.21726 0.485188,0.48422 2.42e-4,0.26774 -0.21708,0.48525 -0.48446,0.48549 l 0,0 z m 1.636038,3.09093 c -0.367375,0 -0.66639,-0.29871 -0.666633,-0.66578 -3.63e-4,-0.36804 0.298409,-0.66724 0.666027,-0.66754 0.36786,0 0.666876,0.29865 0.667239,0.66572 3.03e-4,0.36804 -0.29847,0.66724 -0.666027,0.6676 l -6.06e-4,0 z m -1.332902,-1.15151 -3.64e-4,0 c -0.333922,0 -0.605727,-0.27151 -0.60603,-0.60519 -1.21e-4,-0.16247 0.06279,-0.31465 0.177143,-0.42913 0.114418,-0.1146 0.266532,-0.17768 0.428402,-0.1778 0.334468,0 0.606333,0.2715 0.606515,0.60524 1.21e-4,0.16241 -0.06279,0.31453 -0.177142,0.42907 C 7.1934145,3.8458 7.0413005,3.909 6.8793695,3.90913 l -1.21e-4,0 z m -0.848321,1.63634 -4.85e-4,0 c -0.400586,0 -0.726812,-0.3258 -0.727236,-0.72615 -3.03e-4,-0.40167 0.325681,-0.72796 0.72663,-0.72839 0.401192,0 0.727357,0.32581 0.727842,0.72615 3.03e-4,0.40168 -0.32568,0.72802 -0.72663,0.72845 l -1.21e-4,0 z M 7.0000905,13 c -2.238917,0 -4.060522,-1.89233 -4.060522,-4.21839 0,-1.2783 0.550093,-2.47382 1.509136,-3.28002 0.218534,-0.18375 0.537912,-0.18375 0.756568,6e-5 0.515489,0.43356 1.136124,0.66282 1.794818,0.66282 0.659482,0 1.280542,-0.2292 1.796031,-0.66282 0.218595,-0.18381 0.537912,-0.18381 0.756507,-6e-5 C 10.510884,6.307 11.060432,7.50264 11.060432,8.78161 11.060432,11.10773 9.2390075,13 7.0000905,13 Z m -2.11359,-6.27399 c -0.490521,0.55731 -0.765113,1.28582 -0.765113,2.0576 0,1.6727 1.291389,3.03336 2.878703,3.03336 1.587253,0 2.878582,-1.36066 2.878582,-3.03336 0,-0.77233 -0.274047,-1.50059 -0.76384,-2.0576 -0.63318,0.40174 -1.367386,0.61882 -2.114742,0.61882 -0.746629,0 -1.48047,-0.21702 -2.11359,-0.61882 z"/>
</svg>
