<svg role="img" focusable="false" aria-hidden="true" xmlns="http://www.w3.org/2000/svg" viewBox="0 0 14 14" height="1em" width="1em">
  <path d="m 9.7092747,1.0002783 c -0.638517,6.5e-4 -1.20976,0.0495 -1.467931,0.12521 -0.0147,0.004 -0.02827,0.0108 -0.04025,0.0191 -0.386629,-0.0783 -0.786616,-0.11943 -1.196306,-0.11943 -0.96217,0 -1.871266,0.22634 -2.677132,0.62861 -0.155714,-0.0674 -0.314419,-0.11042 -0.471329,-0.12293 -0.484118,-0.0387 -0.925314,0.0264 -1.293233,0.12993 -0.577385,0.16264 -0.986166,0.43238 -1.097818,0.54902 -0.259329,0.18988 -0.386539,0.66903 -0.436547,1.22797 -0.07579,0.84711 0.01466,1.9009 0.08364,2.33031 0.0023,0.0171 0.0077,0.0335 0.01602,0.0488 -0.07841,0.3863 -0.119593,0.78621 -0.119593,1.1956 0,1.65319 0.671366,3.1498097 1.756356,4.2333397 1.085423,1.08396 2.584346,1.75436 4.239636,1.75436 1.655249,0 3.1540013,-0.67046 4.2392473,-1.75436 C 12.328909,10.162258 13,8.6656983 13,7.0124683 c 0,-1.0306 -0.260896,-2.00053 -0.720289,-2.84733 0.0121,-0.0121 0.02395,-0.0251 0.03556,-0.0382 0.193031,-0.21743 0.315411,-0.52181 0.37597,-0.84947 0.05912,-0.3199 0.0598,-0.66475 0.01022,-0.97201 -0.0591,-0.36584 -0.191923,-0.68449 -0.386132,-0.85845 -0.0044,-0.004 -0.009,-0.008 -0.01407,-0.0121 -0.314083,-0.22674 -0.986024,-0.35133 -1.702422,-0.40387 -0.294907,-0.0216 -0.5992753,-0.0315 -0.8895083,-0.0312 l 0,0 z m 0.02658,0.28133 c 0.2744803,7.1e-4 0.5624213,0.0108 0.8430023,0.0312 0.666849,0.049 1.282477,0.15712 1.551954,0.34689 0.142277,0.12992 0.242967,0.38708 0.291947,0.69028 0.04481,0.27741 0.04432,0.58834 -0.009,0.87679 -0.05187,0.28068 -0.15286,0.53721 -0.30953,0.71368 -0.106533,0.11997 -0.240181,0.20285 -0.402936,0.22906 -0.35911,0.0578 -0.567854,-0.29434 -0.857465,-0.78315 -0.257082,-0.43391 -0.571045,-0.96328 -1.1013373,-1.434 -0.21255,-0.15321 -0.398486,0.003 -0.28612,0.12831 l 0.002,10e-4 c 0.5621603,0.46634 0.8817763,1.0076 1.1423103,1.44733 0.346524,0.58487 0.595983,1.00613 1.144719,0.91777 0.112787,-0.0182 0.215396,-0.055 0.307967,-0.10692 0.423608,0.79694 0.663616,1.70638 0.663616,2.67173 0,1.57597 -0.639491,3.0023797 -1.673109,4.0347197 -1.033328,1.03206 -2.4613193,1.67048 -4.0391483,1.67048 -1.577873,0 -3.006032,-0.63836 -4.039538,-1.67048 -1.033736,-1.03234 -1.673107,-2.4587997 -1.673107,-4.0347197 0,-0.38709 0.03855,-0.76534 0.112168,-1.13081 -0.03954,-0.2106 -0.05752,-0.43831 -0.06878,-0.61222 -1.56e-4,-0.001 -2.4e-4,-0.003 -3.94e-4,-0.004 -0.04724,-0.5002 -0.07927,-1.20498 -0.0258,-1.80274 0.04413,-0.49326 0.1416,-0.90359 0.328678,-1.02937 0.01305,-0.008 0.02413,-0.0194 0.03322,-0.0312 0.06187,-0.0798 0.419606,-0.31491 0.968063,-0.46941 0.276123,-0.0777 0.597087,-0.13194 0.947746,-0.13033 0.08093,3.8e-4 0.16349,0.004 0.247389,0.0108 0.494617,0.0395 1.021701,0.45717 1.387418,0.96694 0.15102,0.21049 0.273322,0.43467 0.353304,0.65359 0.07793,0.21329 0.115841,0.42094 0.101221,0.60325 -0.01533,0.19135 -0.09108,0.3544 -0.244261,0.46395 -0.268425,0.19195 -0.645131,0.074 -1.076327,-0.0612 -0.671931,-0.2107 -1.460197,-0.45745 -2.30194,0.17637 l 1e-5,2.1e-4 c -0.210783,0.14791 -0.06027,0.36509 0.06487,0.31898 0.789187,-0.6537 1.527209,-0.42254 2.153039,-0.22632 0.502818,0.15765 0.942109,0.29518 1.324891,0.0215 0.227448,-0.16265 0.33962,-0.39848 0.361506,-0.67154 0.01787,-0.22298 -0.02654,-0.47069 -0.118019,-0.72109 -0.08944,-0.24479 -0.223758,-0.49269 -0.388481,-0.72228 -0.224865,-0.31341 -0.508982,-0.59597 -0.816036,-0.79446 0.721741,-0.3289 1.524049,-0.51194 2.369164,-0.51194 0.425222,0 0.839496,0.0467 1.238125,0.13461 0.168596,-0.0725 0.395345,-0.0978 0.593014,-0.12575 l 0.0022,-7e-4 c 0.225216,-0.0199 0.493393,-0.0324 0.780864,-0.0343 0.0386,-2.7e-4 0.07764,-5e-4 0.116863,-3.9e-4 l 0,0 z m 0.6108553,3.03736 c -0.5522153,0 -1.0001153,0.44718 -1.0001153,0.99853 0,0.55135 0.4479,0.99853 1.0001153,0.99853 0.552215,0 1.000111,-0.44718 1.000111,-0.99853 0,-0.55135 -0.447896,-0.99853 -1.000111,-0.99853 l 0,0 z m -6.2363533,0.72929 c -1.079615,0 -1.955285,0.87428 -1.955285,1.9522 0,1.07791 0.87567,1.9518 1.955285,1.9518 1.079614,0 1.955284,-0.87389 1.955284,-1.9518 0,-1.07792 -0.87567,-1.9522 -1.955284,-1.9522 l 0,0 z m 0.540117,1.02155 c 0.494895,2e-5 0.896546,0.40102 0.896546,0.89513 0,0.49412 -0.401651,0.89514 -0.896546,0.89514 -0.494895,0 -0.896546,-0.40102 -0.896546,-0.89514 0,-0.49411 0.401651,-0.89513 0.896546,-0.89513 z m 4.968539,0.77925 c -0.02457,0 -0.04808,0.004 -0.06996,0.0121 l -2.785,0.81085 c -0.0055,0.001 -0.01076,0.003 -0.01603,0.004 l -7.79e-4,3.9e-4 -0.0016,4e-4 -3.99e-4,4e-4 c -0.08032,0.0284 -0.137962,0.10464 -0.137962,0.19471 0,0.0857 0.05201,0.15901 0.126237,0.19042 4.87e-4,2.3e-4 0.0011,1.7e-4 0.0016,4e-4 l 1.714147,0.96575 0,0.008 c 0,0.29705 -0.132073,0.56687 -0.345877,0.76286 -0.217846,0.19971 -0.520336,0.3230897 -0.855511,0.3230897 -0.211407,0 -0.413974,-0.0492 -0.590533,-0.1393097 -0.172514,-0.0881 -0.321284,-0.2154 -0.429906,-0.37342 -0.0015,-0.003 -0.0031,-0.005 -0.0047,-0.007 -0.03376,-0.0498 -0.09085,-0.0827 -0.155545,-0.0827 -0.10356,0 -0.187598,0.0839 -0.187598,0.1873 0,0.0416 0.01377,0.0797 0.03674,0.11082 0.143838,0.2103797 0.341432,0.3799597 0.57099,0.4971197 0.230232,0.11755 0.491226,0.18223 0.760538,0.18223 0.431847,0 0.824245,-0.1618 1.109154,-0.42299 0.207033,-0.1897797 0.357319,-0.4317297 0.425997,-0.7031497 0.279596,0.23133 0.648309,0.3711 1.049746,0.3711 0.4318473,0 0.8242453,-0.16142 1.1091543,-0.4226 0.288961,-0.2649 0.467422,-0.63185 0.467422,-1.03795 0,-0.0172 -4.44e-4,-0.0381 -0.0016,-0.0609 2.3e-5,-0.001 0,-0.003 0,-0.004 0,-0.10342 -0.08403,-0.1873 -0.187597,-0.1873 -0.103561,0 -0.187594,0.0839 -0.187594,0.1873 0,0.001 -4e-5,0.004 0,0.005 8.9e-5,0.003 5.77e-4,0.005 7.8e-4,0.008 6.34e-4,0.0137 7.84e-4,0.0303 7.84e-4,0.0507 0,0.29704 -0.132073,0.56685 -0.345877,0.76285 -0.21785,0.1997 -0.52033,0.32308 -0.8555103,0.32308 -0.321714,0 -0.614278,-0.11391 -0.830497,-0.30085 -0.0446,-0.0386 -0.08585,-0.08 -0.123506,-0.12454 l 0.919216,-1.78322 c 0.01778,-0.0305 0.02814,-0.0659 0.02814,-0.10383 0,-0.11419 -0.09276,-0.20682 -0.207135,-0.20682 l 0,0 z"/>
</svg>
