<svg role="img" focusable="false" aria-hidden="true" xmlns="http://www.w3.org/2000/svg" viewBox="0 0 14 14" height="1em" width="1em">
  <path d="m 4.833896,6.0787671 0.988423,-0.498571 0,0.96283 -0.988423,0.498491 0,-0.962755 m 0,-1.169006 0.988423,-0.498571 0,0.962755 -0.988423,0.498571 0,-0.962755 m -1.065923,1.134623 0.842308,-0.395402 0,0.842471 -0.842308,0.403959 0,-0.851028 m 0,-1.169091 0.842308,-0.40388 0,0.850948 -0.842308,0.404039 0,-0.851103 m -0.988665,1.813853 0.687717,-0.309427 0,-0.636208 -0.687717,0.335259 0,0.610379 m 0,-1.169094 0.687717,-0.309428 0,-0.627494 -0.687717,0.326622 0,0.610297 m -0.928362,0.154761 0.498491,-0.30087 0,0.532961 -0.498491,0.283595 0,-0.515686 m 0,-1.169091 0.498491,-0.300791 0,0.532881 -0.498491,0.275118 0,-0.507208 M 1,5.3824981 l 0.386764,-0.180427 0,0.378127 L 1,5.7435101 1,5.3824981 m 0,-1.169011 0.386764,-0.189144 0,0.378207 L 1,4.5744991 1,4.2134871 m 3.833896,5.492921 0.988423,-0.498731 0,0.9628289 -0.988423,0.507129 0,-0.9712319 m 0,-1.177755 0.988423,-0.49857 0,0.962754 -0.988423,0.507208 0,-0.971387 m -1.065923,1.143384 0.842308,-0.404119 0,0.8511029 -0.842308,0.395322 0,-0.8423089 m 0,-1.169106 0.842308,-0.404119 0,0.851103 -0.842308,0.40396 0,-0.850948 m -0.988665,1.8223219 0.687717,-0.318065 0,-0.6274949 -0.687717,0.326703 0,0.6188549 m 0,-1.1776419 0.687717,-0.318065 0,-0.627494 -0.687717,0.326622 0,0.618936 m -0.928362,0.154667 0.498491,-0.30079 0,0.532881 -0.498491,0.283675 0,-0.515766 m 0,-1.169166 0.498491,-0.300711 0,0.524324 -0.498491,0.283675 0,-0.507288 M 1,7.8410411 l 0.386764,-0.189144 0,0.369649 L 1,8.1934151 1,7.8410411 m 0,1.177672 0.386764,-0.189143 0,0.36965 L 1,9.3711681 1,9.0187131 m 5.037214,-2.063088 0,1.065923 1.065923,-0.558713 0,-1.023052 -1.065923,0.515846 m 0,-1.220674 0,1.065923 1.065923,-0.550156 0,-1.031529 -1.065923,0.515766 m 0,-1.20349 0,1.065924 1.065923,-0.558714 0,-1.03153 -1.065923,0.524324 m 0,-1.220599 0,1.065923 1.065923,-0.558713 0,-1.022972 -1.065923,0.515766 m 0,7.3066309 0,1.065923 1.065923,-0.558713 0,-1.023053 -1.065923,0.515846 m 0,-1.2206679 0,1.0658429 1.065923,-0.5499959 0,-1.03153 -1.065923,0.515687 m 0,-1.237796 0,1.057366 1.065923,-0.550236 0,-1.031455 -1.065923,0.524324 m -1.203318,-0.859608 0.988423,-0.498571 0,0.962755 -0.988423,0.507208 0,-0.971388 m 0,-3.618919 0.988423,-0.498651 0,0.962829 -0.988423,0.498571 0,-0.962754 m 0,7.2463759 0.988423,-0.498491 0,0.962755 -0.988423,0.498331 0,-0.962593 m -1.065923,-3.6618449 0.842308,-0.395402 0,0.84239 -0.842308,0.404039 0,-0.851028 m 0,-3.627479 0.842308,-0.395482 0,0.84239 -0.842308,0.404119 0,-0.851028 m 0,7.2464189 0.842308,-0.395402 0,0.842389 -0.842308,0.40404 0,-0.851028 m -0.988665,-6.5931679 0.687717,-0.309427 0,-0.627495 -0.687717,0.326622 0,0.610298 m 0,7.2463799 0.687717,-0.309428 0,-0.627495 -0.687717,0.326623 0,0.610298 m 0,-3.6274489 0.687717,-0.309508 0,-0.627575 -0.687717,0.326782 0,0.610298 m -0.928362,-1.014341 0.498491,-0.300871 0,0.532961 -0.498491,0.283675 0,-0.515765 m 0,-3.618921 0.498491,-0.300791 0,0.524324 -0.498491,0.283595 0,-0.507128 m 0,7.2464459 0.498491,-0.30087 0,0.53288 -0.498491,0.275198 0,-0.507208 m 8.231737,-8.4123269 c -0.953072,-0.0054 -1.887891,0.207512 -2.807612,0.607207 l 0,1.173865 c 0.752384,-0.332743 1.368868,-0.51213 1.908347,-0.546385 l 0,2.664793 c -0.641754,0.05127 -1.27511,0.247663 -1.908347,0.537712 l 0,0.833487 c 0.701346,-0.340917 1.334745,-0.494605 1.908347,-0.537374 l 0,2.544275 c -0.675771,0.119857 -1.325985,0.299395 -1.908347,0.572177 l 0,1.1987569 C 9.08021,10.110394 10.997163,10.213491 13,11.1848 l 0,-8.3723759 c -0.992846,-0.472825 -1.964212,-0.696439 -2.917317,-0.701819 z m 0.202402,1.096937 c 0.512044,-0.0013 1.027339,0.101735 1.53722,0.318189 l 0,2.690585 c -0.249288,-0.09453 -0.799376,-0.26649 -1.134556,-0.26649 l -0.756558,0 0,-2.724826 c 0.117698,-0.01129 0.23573,-0.01716 0.353894,-0.01746 z m 0.118153,3.495802 c 0.473084,8.13e-4 0.948408,0.09111 1.419067,0.278091 l 0,2.64756 c -0.601739,-0.197701 -1.16037,-0.309553 -1.891114,-0.275163 l 0,-2.621767 c 0.15693,-0.01933 0.314352,-0.02899 0.472047,-0.02872 z M 1,6.6031741 l 0.386764,-0.189144 0,0.378127 L 1,6.9641861 1,6.6031741 m 0,-3.610364 0.386764,-0.1977 0,0.378287 L 1,3.3452661 1,2.9928111 m 0,7.2464519 0.386764,-0.197701 0,0.378207 L 1,10.591717 1,10.239263"/>
</svg>
