<svg role="img" focusable="false" aria-hidden="true" xmlns="http://www.w3.org/2000/svg" viewBox="0 0 14 14" height="1em" width="1em">
  <path d="m 8.2264726,12.232195 c -0.20303,-0.013 -0.41387,-0.027 -0.46853,-0.032 -0.0547,-0.01 -0.13133,-0.011 -0.17038,-0.014 -0.0569,0 -0.0625,-0.011 -0.0284,-0.033 0.0317,-0.021 0.0136,-0.029 -0.071,-0.031 -0.0625,0 -0.12356,0 -0.13575,-3e-4 -0.0122,0 -0.0838,-0.016 -0.15909,-0.041 -0.12513,-0.041 -0.20692,-0.062 -0.26765,-0.067 -0.0126,-10e-4 -0.0159,-0.014 -0.007,-0.027 0.0134,-0.022 -0.087,-0.049 -0.23946,-0.064 -0.0234,0 -0.049,-0.012 -0.0568,-0.021 -0.0185,-0.022 -0.10046,-0.073 -0.24112,-0.1485 -0.0898,-0.049 -0.10504,-0.051 -0.0733,-0.013 0.037,0.045 0.0338,0.046 -0.0428,0.013 -0.0456,-0.019 -0.095,-0.046 -0.10984,-0.058 -0.0148,-0.013 -0.0532,-0.023 -0.0852,-0.024 -0.10522,0 -0.15898,-0.065 -0.13287,-0.1579 0.0128,-0.045 0.0172,-0.1003 0.01,-0.122 -0.008,-0.024 -9.6e-4,-0.032 0.0186,-0.02 0.0211,0.013 0.0321,-0.01 0.0321,-0.064 0,-0.046 0.0182,-0.1187 0.0404,-0.1616 0.0222,-0.043 0.0492,-0.1418 0.06,-0.2199 0.0127,-0.092 0.0277,-0.1286 0.043,-0.1039 0.0155,0.025 0.0228,0.01 0.0213,-0.046 -0.003,-0.1283 0.0675,-0.4108 0.0981,-0.3918 0.0155,0.01 0.02,-0.01 0.0105,-0.037 -0.009,-0.029 0.006,-0.126 0.0336,-0.2149 0.0429,-0.1379 0.0551,-0.1546 0.0834,-0.1136 0.0256,0.037 0.0262,0.027 0.003,-0.045 -0.0251,-0.077 -0.022,-0.1029 0.0183,-0.1474 0.0268,-0.03 0.0429,-0.071 0.0357,-0.091 -0.007,-0.02 -5.5e-4,-0.069 0.0147,-0.1082 0.0153,-0.039 0.0324,-0.097 0.0382,-0.1277 0.0262,-0.1422 0.15843,-0.597 0.18181,-0.6251 0.0143,-0.017 0.0325,-0.083 0.0405,-0.1466 0.008,-0.063 0.0268,-0.1476 0.0418,-0.1871 0.015,-0.039 0.0217,-0.08 0.0149,-0.089 -0.007,-0.01 -0.004,-0.01 0.007,0 0.0304,0.023 0.12406,-0.249 0.1057,-0.3068 -0.009,-0.028 0.002,-0.08 0.0249,-0.1144 0.0374,-0.057 0.0693,-0.1636 0.0951,-0.3177 0.0344,-0.205 0.0906,-0.3407 0.14129,-0.3407 0.0295,0 0.0536,0.015 0.0536,0.033 0,0.018 0.0116,0.044 0.0258,0.057 0.0153,0.014 0.0163,0.01 0.002,-0.017 -0.0177,-0.031 -0.0112,-0.036 0.0265,-0.021 0.0274,0.011 0.0806,0.027 0.11804,0.036 0.0376,0.01 0.0599,0.03 0.0498,0.047 -0.0101,0.016 -0.007,0.023 0.008,0.014 0.0144,-0.01 0.15946,0.027 0.32228,0.081 0.16283,0.053 0.31911,0.097 0.34729,0.097 0.0282,0 0.0512,0.01 0.0512,0.022 0,0.012 0.0224,0.024 0.0497,0.025 0.0273,0 0.10719,0.016 0.17747,0.033 0.54148,0.1297 0.62948,0.1421 1.05269,0.1484 0.6276704,0.01 1.1306504,0 1.1456304,-0.027 0.007,-0.012 0.0669,-0.024 0.13282,-0.028 0.066,0 0.14024,-0.017 0.16509,-0.03 0.0249,-0.013 0.14421,-0.04 0.26525,-0.061 0.12103,-0.021 0.22006,-0.05 0.22006,-0.064 0,-0.014 0.0447,-0.021 0.0994,-0.014 0.0547,0.01 0.0994,0 0.0994,-0.01 0,-0.012 0.0192,-0.014 0.0426,0 0.0447,0.017 0.0606,0.1522 0.0179,0.1522 -0.0136,0 -0.0313,0.054 -0.0394,0.1207 -0.008,0.066 -0.0311,0.159 -0.0512,0.2059 -0.0201,0.047 -0.0408,0.1235 -0.046,0.1704 -0.005,0.047 -0.0208,0.089 -0.0346,0.094 -0.0138,0 -0.019,0.037 -0.0115,0.071 0.0113,0.052 0.008,0.055 -0.0191,0.02 -0.0269,-0.035 -0.0296,-0.031 -0.0152,0.02 0.01,0.035 -0.003,0.1012 -0.0286,0.1517 -0.0254,0.049 -0.0399,0.095 -0.0322,0.1032 0.008,0.01 5.6e-4,0.053 -0.0158,0.1 -0.0226,0.065 -0.0362,0.076 -0.0563,0.047 -0.0183,-0.026 -0.021,-0.019 -0.009,0.025 0.0174,0.062 0.007,0.1035 -0.10589,0.4348 -0.0297,0.087 -0.0503,0.1699 -0.0457,0.1846 0.0119,0.039 -0.0648,0.2952 -0.0936,0.3131 -0.0135,0.01 -0.0245,0.046 -0.0245,0.083 0,0.037 -0.0134,0.076 -0.0298,0.086 -0.0164,0.01 -0.0277,0.04 -0.0251,0.066 0.009,0.09 -0.002,0.1498 -0.0246,0.1359 -0.0125,-0.01 -0.0259,0.033 -0.0298,0.091 -0.004,0.057 -0.0192,0.1167 -0.0341,0.1316 -0.0149,0.015 -0.027,0.058 -0.027,0.095 0,0.038 -0.0181,0.1084 -0.0402,0.1576 -0.0221,0.049 -0.0485,0.1504 -0.0586,0.2249 -0.0101,0.074 -0.0302,0.1281 -0.0447,0.1192 -0.0144,-0.01 -0.0187,0 -0.009,0.028 0.0158,0.041 -0.0681,0.326 -0.10513,0.3567 -0.009,0.01 -0.0251,0.064 -0.0347,0.1254 -0.0168,0.1066 -0.0646,0.1691 -0.10857,0.142 -0.0114,-0.01 -0.0287,3e-4 -0.0385,0.016 -0.01,0.016 -0.0498,0.029 -0.0888,0.029 -0.039,0 -0.0637,0.012 -0.0549,0.026 0.009,0.014 -0.0223,0.034 -0.0693,0.045 -0.047,0.01 -0.0854,0.029 -0.0854,0.042 0,0.013 -0.0276,0.016 -0.0612,0.01 -0.042,-0.011 -0.0548,-0.01 -0.0409,0.017 0.0192,0.031 0.008,0.037 -0.0753,0.044 -0.0195,0 -0.0422,0.012 -0.0503,0.022 -0.0145,0.019 -0.12797,0.05 -0.24076,0.065 -0.0312,0 -0.10527,0.029 -0.16452,0.055 -0.0593,0.026 -0.11795,0.041 -0.13043,0.033 -0.0125,-0.01 -0.14289,0.01 -0.2898,0.038 -0.39311,0.077 -0.4054,0.078 -0.80663,0.053 z m 2.9867404,-3.1792 c -0.009,-0.023 -0.0158,-0.016 -0.0172,0.017 -0.001,0.03 0.005,0.047 0.0149,0.037 0.009,-0.01 0.0104,-0.034 0.002,-0.054 z m -1.07773,-1.0909 c -0.009,-0.01 -0.0339,-0.01 -0.0544,0 -0.0227,0.01 -0.0159,0.016 0.0172,0.017 0.0299,0 0.0467,0 0.0373,-0.015 z m -4.9331504,3.3977 c -0.85573,-0.3799 -1.84282,-0.5633 -2.63177,-0.4892 -0.51795,0.049 -1.04654,0.1778 -1.4643,0.3575 -0.063,0.027 -0.10647998,0.034 -0.10647998,0.016 0,-0.016 0.15457998,-0.5818 0.34349998,-1.2569 0.18893,-0.6751 0.44489,-1.5916 0.56881,-2.0367 0.12392,-0.4451 0.23181,-0.8305 0.23976,-0.8565 0.008,-0.026 0.12013,-0.099 0.24931,-0.162 1.10297,-0.5389 2.24364,-0.5642 3.51182,-0.078 0.42987,0.1648 0.76592,0.3214 0.76592,0.3568 0,0.029 -0.1111,0.4278 -0.582,2.0884 -0.14615,0.5153 -0.33743,1.1926 -0.42507,1.5049 -0.19988,0.7124 -0.18586,0.6678 -0.20875,0.6648 -0.0107,-10e-4 -0.128,-0.051 -0.26075,-0.1097 z m 4.37545,-3.8941 c -0.20303,-0.013 -0.41386,-0.027 -0.46852,-0.032 -0.0547,-0.01 -0.13133,-0.011 -0.17038,-0.014 -0.0569,0 -0.0625,-0.011 -0.0284,-0.033 0.0317,-0.021 0.0136,-0.029 -0.071,-0.031 -0.0625,0 -0.12356,0 -0.13576,-2e-4 -0.0122,0 -0.0838,-0.016 -0.15908,-0.041 -0.12513,-0.041 -0.20692,-0.062 -0.26765,-0.067 -0.0126,-10e-4 -0.0159,-0.014 -0.007,-0.027 0.0134,-0.022 -0.087,-0.049 -0.23946,-0.064 -0.0234,0 -0.049,-0.012 -0.0568,-0.021 -0.0185,-0.022 -0.10046,-0.073 -0.24112,-0.1486 -0.0898,-0.049 -0.10504,-0.051 -0.0733,-0.013 0.037,0.045 0.0338,0.046 -0.0428,0.013 -0.0456,-0.02 -0.095,-0.046 -0.10985,-0.058 -0.0148,-0.013 -0.0532,-0.023 -0.0852,-0.024 -0.10523,0 -0.15898,-0.066 -0.13288,-0.1578 0.0128,-0.045 0.0173,-0.1004 0.01,-0.1221 -0.008,-0.024 -9.6e-4,-0.032 0.0186,-0.02 0.0211,0.013 0.0321,-0.01 0.0321,-0.064 0,-0.046 0.0182,-0.1186 0.0404,-0.1615 0.0222,-0.043 0.0492,-0.1418 0.06,-0.2199 0.0127,-0.092 0.0277,-0.1286 0.043,-0.1039 0.0155,0.025 0.0228,0.01 0.0214,-0.046 -0.003,-0.1283 0.0675,-0.4108 0.0981,-0.3919 0.0155,0.01 0.02,-0.01 0.0105,-0.036 -0.009,-0.029 0.006,-0.1259 0.0336,-0.2148 0.0429,-0.1379 0.0551,-0.1546 0.0833,-0.1136 0.0256,0.037 0.0262,0.027 0.003,-0.046 -0.0251,-0.077 -0.022,-0.1029 0.0183,-0.1474 0.0268,-0.03 0.0429,-0.071 0.0357,-0.091 -0.007,-0.02 -5.5e-4,-0.069 0.0147,-0.1082 0.0153,-0.039 0.0324,-0.097 0.0382,-0.1277 0.0262,-0.1422 0.15842,-0.597 0.1818,-0.6251 0.0143,-0.017 0.0325,-0.083 0.0405,-0.1466 0.008,-0.063 0.0268,-0.1476 0.0418,-0.1871 0.015,-0.039 0.0217,-0.08 0.0149,-0.089 -0.007,-0.01 -0.004,-0.011 0.007,0 0.0304,0.023 0.12406,-0.249 0.1057,-0.3068 -0.009,-0.028 0.002,-0.08 0.0249,-0.1144 0.0374,-0.057 0.0693,-0.1636 0.0951,-0.3177 0.0344,-0.205 0.0906,-0.3407 0.14128,-0.3407 0.0295,0 0.0536,0.015 0.0536,0.033 0,0.018 0.0116,0.044 0.0259,0.057 0.0153,0.014 0.0163,0.01 0.002,-0.017 -0.0177,-0.03 -0.0112,-0.036 0.0265,-0.021 0.0274,0.01 0.0806,0.027 0.11805,0.036 0.0377,0.01 0.0599,0.03 0.0498,0.047 -0.0101,0.016 -0.007,0.023 0.008,0.014 0.0144,-0.01 0.15946,0.027 0.32228,0.081 0.16282,0.053 0.3191,0.097 0.34729,0.097 0.0282,0 0.0513,0.01 0.0513,0.022 0,0.012 0.0224,0.024 0.0497,0.025 0.0273,0 0.10719,0.017 0.17747,0.033 0.5414804,0.1297 0.6294704,0.1421 1.0526804,0.1484 0.62768,0.01 1.13066,0 1.14563,-0.027 0.007,-0.012 0.0669,-0.024 0.13282,-0.028 0.066,0 0.14025,-0.017 0.1651,-0.03 0.0248,-0.013 0.14421,-0.04 0.26524,-0.061 0.12104,-0.021 0.22007,-0.05 0.22007,-0.064 0,-0.014 0.0447,-0.021 0.0994,-0.014 0.0547,0.01 0.0994,0 0.0994,-0.01 0,-0.012 0.0192,-0.014 0.0426,0 0.0447,0.017 0.0606,0.1522 0.0179,0.1522 -0.0136,0 -0.0313,0.054 -0.0394,0.1207 -0.008,0.066 -0.0311,0.159 -0.0512,0.2059 -0.0201,0.047 -0.0408,0.1235 -0.046,0.1703 -0.005,0.047 -0.0208,0.089 -0.0346,0.094 -0.0138,0 -0.019,0.037 -0.0115,0.071 0.0113,0.052 0.008,0.055 -0.0191,0.02 -0.0269,-0.035 -0.0296,-0.032 -0.0152,0.02 0.01,0.035 -0.003,0.1013 -0.0286,0.1518 -0.0254,0.049 -0.0399,0.095 -0.0322,0.1032 0.008,0.01 5.6e-4,0.053 -0.0158,0.1 -0.0226,0.065 -0.0362,0.076 -0.0563,0.047 -0.0183,-0.026 -0.021,-0.019 -0.009,0.026 0.0174,0.062 0.007,0.1035 -0.10589,0.4348 -0.0297,0.087 -0.0502,0.1698 -0.0457,0.1845 0.0119,0.039 -0.0648,0.2953 -0.0936,0.3131 -0.0135,0.01 -0.0245,0.046 -0.0245,0.083 0,0.037 -0.0134,0.076 -0.0298,0.086 -0.0164,0.01 -0.0277,0.04 -0.0251,0.066 0.009,0.09 -0.002,0.1499 -0.0246,0.1359 -0.0125,-0.01 -0.0259,0.033 -0.0298,0.091 -0.004,0.057 -0.0192,0.1168 -0.0341,0.1316 -0.0149,0.015 -0.027,0.058 -0.027,0.095 0,0.038 -0.0181,0.1084 -0.0402,0.1576 -0.0221,0.049 -0.0485,0.1505 -0.0586,0.2249 -0.0101,0.074 -0.0302,0.1282 -0.0447,0.1193 -0.0144,-0.01 -0.0187,0 -0.009,0.028 0.0158,0.041 -0.0681,0.3259 -0.10512,0.3566 -0.009,0.01 -0.025,0.064 -0.0347,0.1255 -0.0168,0.1066 -0.0646,0.1691 -0.10856,0.142 -0.0114,-0.01 -0.0287,2e-4 -0.0385,0.016 -0.01,0.016 -0.0498,0.029 -0.0888,0.029 -0.039,0 -0.0637,0.012 -0.0549,0.026 0.009,0.014 -0.0223,0.034 -0.0693,0.045 -0.047,0.01 -0.0854,0.029 -0.0854,0.042 0,0.013 -0.0276,0.016 -0.0612,0.01 -0.0419,-0.011 -0.0548,-0.01 -0.0409,0.017 0.0192,0.031 0.008,0.037 -0.0753,0.044 -0.0195,0 -0.0422,0.012 -0.0503,0.022 -0.0145,0.019 -0.12797,0.05 -0.24076,0.065 -0.0312,0 -0.10527,0.029 -0.16453,0.055 -0.0592,0.026 -0.11794,0.041 -0.13042,0.033 -0.0125,-0.01 -0.14289,0.01 -0.28981,0.038 -0.3931104,0.077 -0.4053904,0.078 -0.8066304,0.053 z m 2.9867404,-3.1792 c -0.009,-0.023 -0.0158,-0.016 -0.0171,0.017 -10e-4,0.03 0.005,0.047 0.0149,0.037 0.009,-0.01 0.0104,-0.034 0.002,-0.054 z m -1.07772,-1.0909 c -0.009,-0.01 -0.0339,-0.01 -0.0544,0 -0.0226,0.01 -0.0159,0.016 0.0172,0.017 0.0299,0 0.0467,-0.01 0.0373,-0.015 z m -4.9331504,3.3976 c -0.85573,-0.3798 -1.84283,-0.5633 -2.63178,-0.4891 -0.51795,0.049 -1.04653,0.1777 -1.46429,0.3575 -0.063,0.027 -0.10648,0.034 -0.10648,0.016 0,-0.016 0.15457,-0.5818 0.3435,-1.2569 0.18892,-0.6751 0.44489,-1.5916 0.56881,-2.0367 0.12392,-0.4451 0.23181,-0.8306 0.23975,-0.8566 0.008,-0.026 0.12014,-0.099 0.24932,-0.162 1.10297,-0.5389 2.24364,-0.5641 3.51182,-0.078 0.42987,0.1648 0.76592,0.3214 0.76592,0.3568 0,0.029 -0.11111,0.4278 -0.582,2.0884 -0.14615,0.5154 -0.33743,1.1926 -0.42507,1.505 -0.19988,0.7124 -0.18587,0.6677 -0.20875,0.6647 -0.0107,-0.001 -0.128,-0.051 -0.26075,-0.1096 z"/>
</svg>
