<svg aria-hidden="true" xmlns="http://www.w3.org/2000/svg" viewBox="0 0 14 14" height="1em" width="1em">
  <path d="M8.226 12.232a32.594 32.594 0 0 1-.468-.032c-.055-.01-.131-.01-.17-.014-.057 0-.063-.01-.029-.033.032-.02.014-.029-.07-.03l-.137-.001a.964.964 0 0 1-.159-.041 1.27 1.27 0 0 0-.267-.067c-.013-.001-.016-.014-.007-.027.013-.022-.087-.05-.24-.064a.09.09 0 0 1-.057-.021 1.272 1.272 0 0 0-.24-.149c-.09-.049-.106-.05-.074-.013.037.045.034.046-.043.013a.61.61 0 0 1-.11-.058c-.014-.013-.053-.023-.085-.024-.105 0-.159-.065-.133-.158a.274.274 0 0 0 .01-.122c-.008-.024 0-.032.019-.02.021.013.032-.01.032-.064a.42.42 0 0 1 .04-.161.85.85 0 0 0 .06-.22c.013-.092.028-.129.043-.104.016.025.023.01.022-.046-.003-.128.067-.41.098-.392.015.01.02-.01.01-.037a.562.562 0 0 1 .034-.215c.043-.138.055-.154.083-.113.026.037.026.027.003-.045-.025-.077-.022-.103.019-.148.026-.03.042-.07.035-.09-.007-.02 0-.07.015-.109a.879.879 0 0 0 .038-.128c.026-.142.159-.597.182-.625a.402.402 0 0 0 .04-.146 1.02 1.02 0 0 1 .042-.187c.015-.04.022-.08.015-.09-.007-.01-.004-.01.007 0 .03.024.124-.248.106-.306-.01-.028.002-.08.025-.115a.91.91 0 0 0 .095-.317c.034-.205.09-.34.141-.34.03 0 .054.014.054.032a.09.09 0 0 0 .026.057c.015.014.016.01.002-.017-.018-.03-.012-.036.026-.02.027.01.08.026.118.035.038.01.06.03.05.047-.01.016-.007.023.008.014.014-.01.16.027.322.081.163.053.32.097.347.097.029 0 .052.01.052.022 0 .012.022.024.05.025.027 0 .107.016.177.033.541.13.63.142 1.053.148.627.01 1.13 0 1.145-.027.007-.012.067-.024.133-.028.066 0 .14-.017.165-.03.025-.013.144-.04.265-.06.121-.022.22-.05.22-.065 0-.014.045-.02.1-.014.055.01.1 0 .1-.01 0-.012.018-.014.042 0 .045.017.06.153.018.153-.014 0-.032.054-.04.12a.918.918 0 0 1-.05.206.726.726 0 0 0-.047.17c-.005.048-.02.09-.034.095-.014 0-.02.037-.012.07.011.053.008.056-.02.02-.026-.034-.029-.03-.014.02.01.036-.003.102-.029.152-.025.05-.04.095-.032.104.008.01 0 .053-.016.1-.022.065-.036.076-.056.047-.018-.026-.021-.02-.01.025.018.062.008.103-.105.434a.688.688 0 0 0-.046.185c.012.039-.065.295-.093.313-.014.01-.025.046-.025.083 0 .037-.013.076-.03.086-.016.01-.027.04-.025.066.01.09-.002.15-.024.136-.013-.01-.026.033-.03.091a.298.298 0 0 1-.034.132c-.015.015-.027.058-.027.095a.474.474 0 0 1-.04.157.996.996 0 0 0-.06.225c-.01.074-.03.128-.044.12-.014-.01-.018 0-.009.027.016.041-.068.326-.105.357a.397.397 0 0 0-.035.125c-.016.107-.064.17-.108.142-.012-.01-.029 0-.039.016-.01.016-.05.03-.088.03-.04 0-.064.011-.055.025.009.014-.023.034-.07.045-.047.01-.085.03-.085.042 0 .013-.028.016-.061.01-.042-.01-.055-.01-.041.017.019.031.008.037-.075.044a.075.075 0 0 0-.05.022c-.015.02-.129.05-.242.065a.625.625 0 0 0-.164.055c-.06.026-.118.041-.13.033-.013-.01-.143.01-.29.038-.393.077-.406.078-.807.053zm2.987-3.179c-.009-.023-.016-.016-.017.017-.001.03.005.047.015.037.009-.01.01-.034.002-.054zm-1.078-1.09c-.009-.01-.033-.01-.054 0-.023.01-.016.015.017.016.03 0 .047 0 .038-.015zM5.202 11.36c-.855-.38-1.842-.564-2.631-.49a5.047 5.047 0 0 0-1.465.358c-.063.027-.106.034-.106.016 0-.016.154-.582.343-1.257a1981.146 1981.146 0 0 0 .809-2.893c.008-.026.12-.099.25-.162 1.102-.539 2.243-.564 3.511-.078.43.165.766.321.766.357 0 .029-.111.428-.582 2.088a715.81 715.81 0 0 0-.425 1.505c-.2.712-.186.668-.209.665a3.975 3.975 0 0 1-.26-.11zm4.376-3.894a32.59 32.59 0 0 1-.469-.032c-.054-.01-.131-.011-.17-.014-.057 0-.063-.011-.029-.033.032-.021.014-.03-.07-.031h-.136a.964.964 0 0 1-.16-.042 1.27 1.27 0 0 0-.267-.067c-.013 0-.016-.014-.007-.027.013-.022-.087-.049-.24-.064a.09.09 0 0 1-.056-.02 1.276 1.276 0 0 0-.241-.15c-.09-.048-.105-.05-.074-.012.037.045.034.046-.042.013a.683.683 0 0 1-.11-.058.166.166 0 0 0-.086-.024c-.105 0-.159-.066-.132-.158a.273.273 0 0 0 .01-.122c-.008-.024-.001-.032.018-.02.021.013.032-.01.032-.064 0-.046.018-.119.04-.162a.85.85 0 0 0 .06-.22c.013-.091.028-.128.044-.103.015.025.022.01.021-.046-.003-.129.068-.411.098-.392.016.01.02-.01.01-.036a.562.562 0 0 1 .034-.215c.043-.138.055-.155.084-.114.025.037.026.027.003-.046-.026-.077-.022-.103.018-.147.027-.03.043-.071.036-.091-.007-.02-.001-.069.014-.108a.879.879 0 0 0 .038-.128c.027-.142.159-.597.182-.625a.402.402 0 0 0 .04-.147 1.02 1.02 0 0 1 .043-.187c.015-.039.021-.08.014-.089-.007-.01-.004-.01.007 0 .03.023.125-.249.106-.307-.009-.028.002-.08.025-.114a.91.91 0 0 0 .095-.318c.035-.205.09-.34.141-.34.03 0 .054.015.054.033a.09.09 0 0 0 .026.057c.015.014.016.01.002-.017-.018-.03-.011-.036.026-.021.028.01.081.027.119.036.037.01.06.03.05.047-.01.016-.008.023.007.014.015-.01.16.027.323.08.162.054.319.098.347.098.028 0 .051.01.051.022 0 .012.023.024.05.025.027 0 .107.017.177.033.542.13.63.142 1.053.148.628.01 1.13 0 1.146-.027.007-.012.067-.024.132-.028.066 0 .14-.017.166-.03a1.57 1.57 0 0 1 .265-.06c.12-.022.22-.05.22-.065 0-.014.045-.02.1-.014.054.01.099 0 .099-.01 0-.012.019-.014.042 0 .045.017.06.152.018.152-.013 0-.031.054-.04.121a.918.918 0 0 1-.05.206.726.726 0 0 0-.046.17c-.005.047-.021.09-.035.094-.014 0-.019.037-.012.071.012.052.008.055-.019.02s-.03-.032-.015.02c.01.035-.003.101-.028.152-.026.049-.04.095-.033.103.008.01.001.053-.015.1-.023.065-.037.076-.057.047-.018-.026-.02-.019-.009.026.018.062.007.104-.106.435a.692.692 0 0 0-.045.184c.012.04-.065.296-.094.314-.013.01-.024.046-.024.083 0 .037-.014.076-.03.086-.017.01-.028.04-.025.066.009.09-.002.15-.025.135-.012-.01-.026.033-.03.091-.004.057-.019.117-.034.132-.015.015-.027.058-.027.095a.474.474 0 0 1-.04.158.998.998 0 0 0-.059.225c-.01.074-.03.128-.044.119-.015-.01-.019 0-.01.028.017.04-.067.326-.104.356a.4.4 0 0 0-.035.126c-.017.107-.065.17-.109.142-.011-.01-.028 0-.038.016-.01.016-.05.029-.089.029-.039 0-.064.012-.055.026.01.014-.022.034-.07.045-.046.01-.085.029-.085.042 0 .013-.027.016-.06.01-.043-.011-.056-.01-.042.017.02.031.008.037-.075.044a.075.075 0 0 0-.05.022c-.015.019-.128.05-.241.065a.625.625 0 0 0-.165.055c-.059.026-.118.041-.13.033-.012-.01-.143.01-.29.038-.393.077-.405.078-.806.053zm2.987-3.18c-.01-.023-.016-.016-.018.017 0 .03.005.047.015.037.01-.01.01-.034.002-.054zm-1.078-1.09c-.01-.01-.034-.01-.055 0-.022.01-.015.016.018.017.03 0 .046-.01.037-.015zM6.554 6.593c-.856-.38-1.843-.563-2.632-.489a5.044 5.044 0 0 0-1.464.358c-.063.027-.107.034-.107.016 0-.016.155-.582.344-1.257a2007.025 2007.025 0 0 0 .808-2.894c.008-.026.12-.099.25-.162 1.102-.539 2.243-.564 3.511-.078.43.165.766.322.766.357 0 .03-.11.428-.582 2.089l-.425 1.505c-.2.712-.186.667-.209.664a4.007 4.007 0 0 1-.26-.11z"/>
</svg>
