<svg aria-hidden="true" xmlns="http://www.w3.org/2000/svg" viewBox="0 0 14 14" height="1em" width="1em">
  <path d="M1.952 12.817c-.165-.165-.184-.225-.184-.58 0-.289.034-.445.125-.582.107-.161.124-.294.125-.944 0-.663-.016-.777-.125-.916-.122-.155-.125-.254-.125-4.322V1.31l.155-.155L2.078 1l4.266.017 4.266.017.414.204a2.14 2.14 0 0 1 1.043 1.07l.165.35v8.684l-.165.35a2.145 2.145 0 0 1-1.043 1.07l-.413.204-4.237.017L2.137 13Zm8.557-1.532c.363-.349.3-.896-.135-1.161-.198-.121-.302-.124-3.608-.11l-3.405.017-.018.652c-.01.358-.003.689.014.735.027.07.644.081 3.497.067l3.465-.017zm-2.99-4.04.41-.65.714-.04c.394-.02.722-.041.73-.046.061-.032-.025-.218-.296-.645-.172-.27-.312-.519-.312-.55 0-.033.14-.28.312-.55.172-.272.313-.525.313-.564 0-.1-.194-.134-.871-.152l-.59-.015-.414-.656c-.227-.36-.452-.656-.499-.656-.047 0-.273.295-.503.656l-.418.656-.71.04a17.13 17.13 0 0 0-.728.046c-.06.032.026.218.297.645.172.27.312.518.312.55 0 .032-.14.28-.312.55-.172.271-.312.522-.312.558 0 .102.234.14.86.141h.578l.228.36.439.69c.116.184.244.322.286.308.041-.014.26-.318.485-.676Z"/>
</svg>
