<svg role="img" focusable="false" aria-hidden="true" xmlns="http://www.w3.org/2000/svg" viewBox="0 0 14 14" height="1em" width="1em">
  <path d="m 5.026155,11.73178 c 0.485227,-0.1191 0.937684,-0.4759 1.159505,-0.9143 0.131495,-0.2599 0.208084,-0.6522 0.208084,-1.0660002 l 0,-0.3471 3.213525,0 c 3.730481,0 3.412491,-0.049 3.366739,0.5208 C 12.918568,10.61578 12.46186,11.26078 11.794664,11.59058 l -0.376435,0.186 -3.323802,0.01 c -2.756112,0.01 -3.280158,0 -3.068272,-0.054 z m -0.870714,-0.6054 c -0.28032,-0.1217 -0.452272,-0.2701 -0.595718,-0.5142 L 3.42219,10.37828 3.39722,6.5576798 l -0.02497,-3.8206 -0.138864,-0.2635 -0.138864,-0.2636 3.3851,0.014 3.3851,0.014 0.279647,0.1311 c 0.357048,0.1675 0.720281,0.5307 0.887712,0.8878 l 0.131135,0.2796 0.01417,2.6344 0.01417,2.6345 -2.698555,0 -2.698555,0 -4.79e-4,0.7117 c -4.8e-4,0.6443002 -0.01168,0.7353002 -0.11874,0.9614002 -0.139171,0.2938 -0.381691,0.5386 -0.640785,0.6467 -0.230693,0.096 -0.659302,0.097 -0.878986,0 z m 3.567564,-3.9179002 0.340528,-0.5479 0.5504,-0.014 c 0.676483,-0.017 0.685431,-0.033 0.332344,-0.5892 l -0.252169,-0.3972 0.269851,-0.4298 c 0.148419,-0.2364 0.257703,-0.4615 0.242854,-0.5001 -0.02099,-0.055 -0.151021,-0.07 -0.584186,-0.07 l -0.557188,0 -0.34148,-0.5494 c -0.229247,-0.3688 -0.370989,-0.5493 -0.431257,-0.5493 -0.06027,0 -0.20201,0.1805 -0.431257,0.5493 l -0.341482,0.5494 -0.557186,0 c -0.433165,0 -0.563198,0.016 -0.584186,0.07 -0.01485,0.039 0.09423,0.2634 0.242394,0.4994 l 0.269393,0.429 -0.269393,0.4291 c -0.148166,0.236 -0.257243,0.4607 -0.242394,0.4994 0.02099,0.055 0.151021,0.07 0.584186,0.07 l 0.557187,0 0.341481,0.5493 c 0.229247,0.3688 0.370988,0.5494 0.431257,0.5494 0.06025,0 0.201754,-0.1801 0.430303,-0.5478 z m -6.640353,-2.6899 c -0.06923,-0.077 -0.08265,-0.2138 -0.08265,-0.8457 0,-0.8063 0.03017,-0.9543 0.240402,-1.1792 0.444037,-0.4749 1.27706,-0.3176 1.504394,0.2841 0.02991,0.079 0.05312,0.5102 0.05312,0.9864 l 0,0.8458 -0.816304,0 c -0.727395,0 -0.825306,-0.01 -0.898957,-0.091 z"/>
</svg>
