<svg aria-hidden="true" xmlns="http://www.w3.org/2000/svg" viewBox="0 0 14 14" height="1em" width="1em">
  <path d="M8.877 12.968c-.124-.012-.642-.054-1.152-.095l-.926-.074-.092-.234-.092-.234-.503.25c-.543.27-1.035.368-1.192.238-.158-.131-.366-.78-.402-1.257-.04-.517.067-.86.318-1.025.137-.09.193-.091.504-.01.192.05.517.166.722.257.433.192.433.192.433.078 0-.128.887-.18 2.19-.129l1.088.043.411-.202c.487-.24.967-.646 1.203-1.018.165-.261.172-.265.255-.132.047.075.122.282.168.46.045.179.127.44.181.583.202.524.083 1.42-.253 1.903-.31.45-.96.648-2.057.629-.318-.01-.68-.02-.804-.031zm-6.502-.228c-.226-.084-.14-.31.193-.502.248-.144.329-.248.567-.734l.278-.566-.347-.365c-.19-.2-.422-.494-.515-.654-.227-.39-.499-1.354-.516-1.832l-.015-.389.297.018c.163.01.424-.023.58-.074.17-.056.472-.085.765-.074l.483.018.08.314c.113.445.228 1.931.186 2.416-.122 1.419-.122 1.416-.006 1.843l.114.421-.146.119c-.127.103-.255.116-1.002.105-.472-.01-.92-.036-.996-.064zm3.411-2.284a2.485 2.485 0 0 0-.772-.177l-.354-.01-.044-.9c-.024-.494-.086-1.102-.139-1.35-.112-.528-.117-.52.46-.804.662-.327 1.285-.462 2.307-.499.96-.035 1.461.022 2.162.242.387.122.416.146.686.573.155.245.508.69.783.987l.502.54-.114.253c-.145.32-.658.8-1.106 1.035l-.347.18H8.2c-.885 0-1.696.024-1.802.049-.138.032-.312 0-.612-.123zm6.306-.286c-.04-.075-.076-.334-.08-.577-.006-.403-.018-.439-.139-.427-.098.01-.147-.041-.194-.198-.034-.116-.095-.198-.136-.182-.145.056-1.047-.962-1.432-1.616a2.862 2.862 0 0 0-.446-.56 2.55 2.55 0 0 1-.434-.564l-.184-.339.179.141c.4.315.933.215 1.205-.225.209-.338.188-.704-.063-1.095-.325-.506-.23-.65.157-.239.311.33.641.955.791 1.5.094.34.196.544.364.73.527.583 1.078 1.682.921 1.839-.038.038-.009.219.079.485.176.537.136.89-.14 1.225-.223.27-.344.298-.448.102zM1.889 7.352c-.442-.2-.739-.682-.663-1.075.064-.336 1.342-.146 1.342.2 0 .15.154.111.327-.082.353-.394.56-.708.605-.92.066-.304.134-.42.435-.747.295-.32.406-.363.27-.104-.362.695.334 1.568 1.021 1.281.25-.104.496-.387.496-.57 0-.085.036-.117.113-.101.147.03.123.235-.079.676-.198.432-.707.973-1.144 1.214-.301.166-.407.188-.962.2-.343.01-.682.042-.753.08-.197.106-.72.08-1.008-.052Zm3.716-.697c.155-.32.57-1.136.587-1.154.012-.012.194.038.404.113.525.185 1.261.15 1.774-.085l.362-.166.078.26c.043.143.16.421.261.619.101.197.176.366.167.376-.01.01-.32-.029-.689-.085-.705-.108-1.8-.09-2.376.04-.16.035-.358.08-.441.1-.083.018-.14.01-.127-.018Zm3.858-.881c-.219-.122-.324-.346-.327-.699l-.002-.305-.305.235c-.536.411-.812.505-1.465.5-.7-.01-1.037-.136-1.516-.584-.177-.166-.304-.254-.282-.194.023.059.023.235 0 .39-.095.628-.667.838-1.06.39-.262-.298-.263-.557-.003-.95.202-.304.251-.663.186-1.35-.015-.165.012-.277.085-.35.1-.1.116-.1.238.011.114.104.13.106.13.014 0-.305.297-.867.64-1.208.894-.895 2.31-.898 3.176-.01.324.333.541.703.602 1.024.03.166.07.21.189.21.082 0 .173.036.202.081.029.044.052.39.052.767 0 .617.014.702.14.837.34.364.32.8-.052 1.114-.215.18-.396.202-.628.073z"/>
</svg>
