<svg aria-hidden="true" xmlns="http://www.w3.org/2000/svg" viewBox="0 0 14 14" height="1em" width="1em">
  <path d="M6.2 2.6c-.7 0-.915 1.102-1.271 2.928l-.127.642-.6 4.005c-.032.249-.187.58-.322.665l-2.4 1.8a.2.2 0 0 0 .24.32l2.386-1.79c.276-.173.457-.666.492-.94l.598-3.99.125-.635C5.583 4.265 5.83 3 6.2 3c.196 0 .2 0 .2.2 0 .388-.198 2.959-.2 2.985a.2.2 0 1 0 .4.03c.007-.106.2-2.612.2-3.015 0-.42-.18-.6-.6-.6zm1-1.4a.2.2 0 0 0-.4 0v.6a.2.2 0 0 0 .4 0v-.6zm5.6 5.6h-2.4a.2.2 0 0 0 0 .4h2.4a.2.2 0 1 0 0-.4zm-.877 3.274a.2.2 0 0 0 .273-.074.2.2 0 0 0-.073-.273L10.7 8.905a.2.2 0 1 0-.2.347l1.423.822zm.597 2.566-2.402-1.802c-.127-.092-.264-.42-.32-.668l-.602-4.01-.125-.632C8.714 3.702 8.5 2.6 7.8 2.6c-.42 0-.6.18-.6.6 0 .403.192 2.909.2 3.015a.2.2 0 0 0 .4-.03c-.003-.026-.2-2.597-.2-2.985 0-.2.004-.2.2-.2.37 0 .617 1.265.879 2.605.04.203.08.415.123.625l.603 4.014c.015.07.162.688.475.916l2.4 1.8a.2.2 0 0 0 .28-.04.2.2 0 0 0-.04-.28zM6.1 6.6c-.45 0-.65.482-.7.785l-.2 2.6a.2.2 0 1 0 .4.03l.197-2.582C5.798 7.429 5.883 7 6.1 7c.281 0 .3.334.3.4V11c0 .343-.182.7-.541 1.058-.36.36-.917.55-.922.552a.2.2 0 0 0 .126.38c.027-.01.65-.22 1.078-.649.437-.437.659-.888.659-1.341V7.4c0-.277-.146-.8-.7-.8zm2.963 6.01c-.005-.002-.56-.19-.922-.552C7.782 11.7 7.6 11.343 7.6 11V7.4c0-.041.008-.4.3-.4.214 0 .3.416.3.416l.2 2.6a.2.2 0 0 0 .399-.03l-.202-2.62C8.55 7.083 8.349 6.6 7.9 6.6c-.554 0-.7.523-.7.8V11c0 .453.221.904.658 1.341.429.429 1.052.64 1.079.648a.2.2 0 0 0 .126-.38zM9.3 3.017a.2.2 0 0 0 .273-.073l.5-.867a.2.2 0 0 0-.346-.2l-.5.867a.2.2 0 0 0 .073.273zm.527 2.351a.2.2 0 0 0 .273.074l2.023-1.168a.2.2 0 0 0-.2-.347L9.9 5.095a.2.2 0 0 0-.073.273zm-7.95-1.095L3.9 5.442a.2.2 0 1 0 .2-.346l-2.023-1.17a.2.2 0 1 0-.2.347zm2.55-1.329a.2.2 0 1 0 .347-.2l-.5-.867a.2.2 0 1 0-.347.2l.5.867zM3.8 7a.2.2 0 0 0-.2-.2H1.2a.2.2 0 0 0 0 .4h2.4a.2.2 0 0 0 .2-.2zm-.5 1.905-1.423.822a.2.2 0 0 0 .2.346l1.423-.82a.2.2 0 0 0-.2-.348z"/>
</svg>
