<svg role="img" focusable="false" aria-hidden="true" xmlns="http://www.w3.org/2000/svg" viewBox="0 0 14 14" height="1em" width="1em">
  <path d="M 9.708625,6.82525 7.6,5.56 l 0,-0.96 0.9,0 c 0.16575,0 0.3,-0.13425 0.3,-0.3 l 0,-0.6 C 8.8,3.53425 8.66575,3.4 8.5,3.4 l -0.9,0 0,-0.9 C 7.6,2.33425 7.46575,2.2 7.3,2.2 l -0.6,0 C 6.53425,2.2 6.4,2.33425 6.4,2.5 l 0,0.9 -0.9,0 C 5.33425,3.4 5.2,3.53425 5.2,3.7 l 0,0.6 c 0,0.16575 0.13425,0.3 0.3,0.3 l 0.9,0 0,0.96 -2.108625,1.26525 A 0.59994375,0.59994375 0 0 0 4,7.33975 L 4,11.8 l 1.8,0 0,-1.8 C 5.8,9.33719 6.3371875,8.8 7,8.8 7.6628125,8.8 8.2,9.33719 8.2,10 l 0,1.8 1.8,0 0,-4.46025 C 10,7.129 9.889375,6.93362 9.708625,6.82525 Z M 1,9.62425 1,11.5 c 0,0.16575 0.13425,0.3 0.3,0.3 l 2.1,0 0,-3.6 -2.0364375,0.87262 A 0.60045,0.60045 0 0 0 1,9.62425 Z M 12.636438,9.07262 10.6,8.2 l 0,3.6 2.1,0 c 0.16575,0 0.3,-0.13425 0.3,-0.3 l 0,-1.87575 c 0,-0.24 -0.143063,-0.45694 -0.363562,-0.55163 z"/>
</svg>
