<svg aria-hidden="true" xmlns="http://www.w3.org/2000/svg" viewBox="0 0 14 14" height="1em" width="1em">
  <path d="M6.946 11.514c-.047-.045-.39-.429-.763-.852a1081.78 1081.78 0 0 0-3.8-4.28c-1.1-1.236-1.29-1.456-1.351-1.57-.04-.074-.042-.09-.008-.144.02-.033.461-.556.98-1.161l.942-1.1h7.86l1.097 1.08L13 4.567l-.163.202c-.194.24-.556.67-1.601 1.904-.431.508-1.039 1.229-1.351 1.602-.556.664-1.588 1.893-2.268 2.7-.373.442-.534.619-.565.619a.397.397 0 0 1-.106-.082zm.581-1.424c.655-.755.81-.954.758-.964a2.46 2.46 0 0 0-.313.056 4.254 4.254 0 0 1-1.886 0c-.287-.065-.367-.075-.367-.046 0 .05 1.295 1.473 1.34 1.473.01 0 .22-.235.468-.522zm.649-1.817c.532-.1.89-.247 1.08-.442.187-.19.09-.383-.271-.542-.309-.137-.475-.16-1.827-.25-.883-.059-2.17-.157-2.816-.215-.354-.032-.668-.032-.668 0 0 .023.438.544.687.815l.134.146.151-.03c.242-.05 1.046-.044 1.27.01.298.073.571.183.806.326.285.173.344.2.512.224.188.028.689.01.942-.042zm2.71-2.212a36.454 36.454 0 0 0 .957-1.118c.092-.11.188-.231.215-.268l.047-.066-.503-.495c-.278-.273-.515-.496-.528-.496-.042 0-.06.328-.044.752l.016.41-.987-.01-.987-.01-.12-.27c-.389-.87-1.029-1.25-2.185-1.298-.898-.037-1.796.29-2.133.778-.162.234-.13.447.096.654.156.143.296.214.648.328.522.17.862.206 2.399.25 1.065.031 1.512.062 1.704.117.306.087.739.36 1.085.686.09.085.176.155.19.155a.432.432 0 0 0 .13-.106zm-8.264-.808c.017-.366.05-.517.165-.763.173-.371.602-.848 1.014-1.126.131-.09.24-.174.24-.188 0-.016-.173-.028-.455-.032l-.454-.01-.455.535c-.45.53-.752.915-.802 1.024-.023.05-.011.075.084.19.218.262.612.7.63.7.01 0 .024-.15.033-.334zm7.165-2.007c.017-.031.022-.065.012-.076-.01-.011-.243-.023-.516-.027l-.496-.01.29.293.29.293.195-.21c.107-.115.208-.235.225-.266z"/>
</svg>
