<svg role="img" focusable="false" aria-hidden="true" xmlns="http://www.w3.org/2000/svg" viewBox="0 0 14 14" height="1em" width="1em">
  <path d="m 7.6137709,12.984638 c -0.226468,-0.022 -0.734477,-0.1135 -0.777118,-0.1399 -0.0151,-0.01 -0.04949,-0.1966 -0.07726,-0.4207 -0.02753,-0.2221 -0.05523,-0.4191 -0.06157,-0.4379 -0.0072,-0.021 -0.05072,0.024 -0.117053,0.1233 -0.163702,0.244 -0.341218,0.351 -0.582169,0.351 -0.163959,0 -0.243826,-0.034 -0.544909,-0.2356 -0.401276,-0.268 -0.478333,-0.3649 -0.49803,-0.6262 -0.01517,-0.2012 0.008,-0.2809 0.140111,-0.4834 0.06575,-0.1007 0.11407,-0.1886 0.107376,-0.1953 -0.0104,-0.01 -0.689481,0.068 -0.908129,0.1042 -0.06976,0.012 -0.07938,0 -0.217939,-0.2097 -0.212774,-0.3258 -3.07921292,-5.3539002 -3.071173,-5.3873002 0.01095,-0.045 0.528497,-0.8183 0.548337,-0.8189 0.0099,-3e-4 0.538436,0.3489 1.174547,0.776 0.903734,0.6068 1.161402,0.7694 1.178695,0.7437 0.01217,-0.018 0.04464,-0.076 0.07215,-0.1281 0.06179,-0.1176 0.208446,-0.3369 0.344868,-0.5158 0.05664,-0.074 0.102989,-0.1407 0.102989,-0.1477 0,-0.01 -0.519351,-0.3617 -1.154114,-0.7882 -0.634762,-0.4266 -1.154113,-0.7832 -1.154113,-0.7926 0,-0.01 0.123603,-0.1987 0.274672,-0.4208 0.25589,-0.3763 0.279285,-0.4034 0.342113,-0.3968 0.03709,0 0.90122,0.1127 1.920283,0.2418 1.019064,0.1291 1.855566,0.232 1.858895,0.2286 0.0033,0 -0.09294,-0.061 -0.213926,-0.1287 -0.120988,-0.067 -0.234686,-0.1324 -0.252662,-0.1442 -0.02552,-0.017 0.08098,-0.2111 0.485764,-0.8867 0.285146,-0.476 0.530826,-0.8837 0.545955,-0.9062 0.02456,-0.036 0.134541,0.026 1.025292,0.5792 0.5487814,0.341 1.0053113,0.6271 1.0145109,0.6358 0.0092,0.01 0.087508,0.4441 0.1740187,0.9675 0.086511,0.5235 0.1614925,0.9648 0.1666263,0.9807 0.00527,0.016 0.069432,-0.031 0.1472292,-0.108 0.1533186,-0.1522 0.2695035,-0.201 0.475052,-0.1994 0.156912,0.001 0.273014,0.053 0.58572,0.2631 0.351824,0.2361 0.448377,0.3772 0.448377,0.6552 0,0.1585 -0.02457,0.2444 -0.100372,0.3509 l -0.04862,0.068 0.05249,0 c 0.02887,0 0.189738,-0.017 0.357484,-0.039 0.167747,-0.021 0.321486,-0.032 0.341644,-0.025 0.06142,0.024 0.368645,0.5097 0.517633,0.819 0.226977,0.4713 0.394564,1.0497 0.436005,1.5048 0.02246,0.2467 0.02606,0.2539 0.178159,0.3572 l 0.142499,0.097 -4.05e-4,0.2549 c -8.33e-4,0.5099 -0.08224,1.0122 -0.24189,1.4923 -0.413054,1.2422002 -1.298366,2.2458002 -2.475393,2.8061002 -0.4729902,0.2251 -0.4349278,0.2199 -0.6347619,0.087 l -0.1694279,-0.1127 -0.255781,0.067 c -0.4909073,0.1287 -1.1368393,0.185 -1.6026703,0.1396 z m 2.4547291,-1.2626 c 0.02518,-0.014 0.06263,-0.057 0.08323,-0.097 0.108206,-0.2092 -0.157784,-0.409 -0.3309345,-0.2485 -0.069911,0.065 -0.087349,0.2113 -0.03322,0.2792 0.067614,0.085 0.1917134,0.114 0.2809225,0.066 z m -0.5705956,-0.9255 c 0.092143,-0.092 0.094815,-0.208 0.00682,-0.296 -0.087992,-0.088 -0.203894,-0.085 -0.2960374,0.01 -0.1038588,0.1038 -0.079724,0.2626 0.049892,0.3282 0.093678,0.047 0.1644647,0.036 0.2393229,-0.039 z m 1.6088266,-0.2439 c 0.04041,-0.038 0.05507,-0.078 0.05507,-0.1505 0,-0.127 -0.08154,-0.2118 -0.203567,-0.2118 -0.182064,0 -0.27842,0.2214 -0.153987,0.3539 0.07451,0.079 0.22262,0.083 0.30248,0.01 z m -0.843165,-0.5428 c 0.118444,-0.093 0.101427,-0.2776002 -0.03198,-0.3465002 -0.09561,-0.049 -0.150637,-0.043 -0.233966,0.027 -0.2104289,0.177 0.049713,0.4896002 0.265947,0.3195002 z m -1.8055571,-0.023 c 0.8197875,-0.2097 1.3855658,-1.0319 1.276089,-1.8546 -0.097,-0.7289 -0.581548,-1.2831 -1.285055,-1.4698 -0.207242,-0.055 -0.623969,-0.055 -0.832865,-5e-4 -0.610523,0.16 -1.109389,0.665 -1.250864,1.2664 -0.05503,0.234 -0.05028,0.5941 0.01091,0.8272 0.155503,0.5923 0.636717,1.0769 1.221615,1.2302 0.239655,0.063 0.617082,0.063 0.860166,0 z m -0.746646,-0.4159 c -0.457396,-0.1287 -0.801933,-0.4709 -0.916265,-0.9098 -0.05109,-0.1962 -0.046,-0.5162 0.01115,-0.7012 0.289065,-0.9355 1.443161,-1.2253 2.1291984,-0.5345 0.2612197,0.263 0.3768913,0.5464 0.375262,0.9195 -0.00249,0.5708 -0.3967977,1.0809 -0.9459374,1.224 -0.166361,0.043 -0.502982,0.044 -0.653405,0 z m 4.0631921,-0.3842 c 0.122522,-0.1372 0.02928,-0.3429 -0.155393,-0.3429 -0.22209,0 -0.29097,0.2913 -0.09239,0.3907 0.09327,0.047 0.177888,0.03 0.247787,-0.048 z m -1.051897,-0.2109 c 0.109784,-0.1098 0.05145,-0.3188 -0.09955,-0.3567 -0.08682,-0.022 -0.19411,0.027 -0.235802,0.1079 -0.04944,0.096 -0.04308,0.1507 0.02703,0.234 0.08106,0.096 0.220105,0.103 0.308318,0.015 z m -5.2018421,-6.194 c -0.373618,-0.4201 -0.364724,-1.0341 0.02085,-1.4394 0.19339,-0.2033 0.394174,-0.303 0.68305,-0.3393 0.123477,-0.015 0.450235,0.043 0.476244,0.085 0.01374,0.022 -1.035393,1.8029 -1.063787,1.8055 -0.0087,9e-4 -0.06106,-0.049 -0.116355,-0.1115 z"/>
</svg>
