<svg role="img" focusable="false" aria-hidden="true" xmlns="http://www.w3.org/2000/svg" viewBox="0 0 14 14" height="1em" width="1em">
  <path d="m 4.1503,12.966209 c -0.082,-0.04 -0.1562,-0.097 -0.2268,-0.1725 -0.091,-0.098 -0.093,-0.103 -0.096,-0.3185 l 0,-0.1826 0.038,-0.068 c 0.079,-0.1406 0.154,-0.2079 0.2717,-0.2436 l 0.063,-0.019 3.1253,0 c 2.3917,0 3.1329,-0.01 3.1574,-0.014 0.062,-0.018 0.055,-0.024 0.2394,0.1896 l 0.1728,0.1995 0,0.1769 c 0,0.1708 -7e-4,0.1782 -0.019,0.2146 -0.04,0.079 -0.1325,0.1581 -0.2759,0.237 l -0.067,0.037 -3.1584,-10e-5 -3.1584,-10e-5 -0.064,-0.032 z m 0.4507,-1.4268 c 0,-0.2317 0,-0.2299 -0.108,-0.3428 -0.099,-0.1056 -0.1273,-0.1829 -0.1074,-0.291 0.024,-0.1281 0.091,-0.2041 0.2569,-0.2925 l 0.068,-0.036 0,-0.1961 c 0,-0.1899 -6e-4,-0.1973 -0.019,-0.2344 -0.01,-0.021 -0.035,-0.052 -0.055,-0.068 -0.1405,-0.1141 -0.1418,-0.1168 -0.1418,-0.3018 0,-0.1345 0,-0.1465 0.018,-0.1812 0.035,-0.071 0.1033,-0.1272 0.2398,-0.1989 l 0.068,-0.036 0,-0.1961 c 0,-0.2478 0,-0.2483 -0.1195,-0.3399 -0.028,-0.022 -0.06,-0.056 -0.072,-0.076 -0.021,-0.035 -0.021,-0.041 -0.024,-0.1764 0,-0.1258 -0.001,-0.1446 0.014,-0.1842 0.028,-0.075 0.092,-0.1287 0.1995,-0.1679 l 0.059,-0.022 0.024,-0.071 c 0.024,-0.069 0.024,-0.076 0.028,-0.2486 l 0,-0.1773 -0.047,-0.014 c -0.062,-0.018 -0.1192,-0.05 -0.1362,-0.075 -0.01,-0.011 -0.031,-0.071 -0.052,-0.1328 l -0.038,-0.1121 0.1916,-0.1921 0.1915,-0.1921 0,-0.192 0,-0.1921 0.6334,0 0.6334,0 0.01,0.1501 c 0.01,0.1967 0.01,0.5338 -0.033,2.9913 -0.01,0.4138 -0.016,1.0062 -0.021,1.3166 0,0.3103 -0.012,0.5773 -0.016,0.5932 -0.011,0.041 -0.034,0.067 -0.07,0.078 -0.023,0.01 -0.2342,0.01 -0.8044,0.01 l -0.7729,0 0,-0.1941 z m 1.0273,-0.1041 c 0.1264,-0.041 0.232,-0.1222 0.2766,-0.2129 l 0.022,-0.045 0,-0.1881 0,-0.188 -0.022,-0.044 c -0.043,-0.088 -0.153,-0.1736 -0.2741,-0.213 -0.056,-0.018 -0.078,-0.021 -0.1722,-0.021 -0.076,-2e-4 -0.1231,0 -0.1592,0.013 -0.1982,0.052 -0.313,0.2156 -0.313,0.4454 0,0.2193 0.1223,0.4252 0.2791,0.4697 0.026,0.01 0.076,0.01 0.169,0.01 0.1134,0 0.1408,-0.01 0.1935,-0.023 z m -0.2655,-0.2055 c -0.063,-0.019 -0.1183,-0.072 -0.1396,-0.135 -0.017,-0.049 -0.016,-0.1632 9e-4,-0.214 0.019,-0.055 0.076,-0.1108 0.1312,-0.1272 0.056,-0.017 0.1545,-0.016 0.2087,0 0.059,0.019 0.1133,0.073 0.1303,0.1308 0.01,0.023 0.013,0.07 0.013,0.1035 0,0.088 -0.017,0.138 -0.063,0.1838 -0.05,0.05 -0.094,0.065 -0.1886,0.064 -0.04,-4e-4 -0.082,0 -0.093,-0.01 z m 0.276,-0.9407 c 0.1481,-0.028 0.2682,-0.1223 0.3355,-0.2625 0.043,-0.091 0.061,-0.1661 0.061,-0.2636 -2e-4,-0.082 -0.013,-0.1249 -0.065,-0.2127 -0.04,-0.069 -0.1604,-0.1865 -0.2228,-0.2189 l -0.052,-0.027 -0.1401,4e-4 c -0.1574,5e-4 -0.1988,0.01 -0.2868,0.049 -0.1082,0.051 -0.183,0.1498 -0.2124,0.2803 -0.018,0.079 -0.017,0.193 0,0.2684 0.044,0.1715 0.1863,0.3464 0.3147,0.3866 0.046,0.014 0.1908,0.014 0.266,-10e-5 z m -0.2041,-0.2344 c -0.045,-0.029 -0.1108,-0.1021 -0.1405,-0.1565 -0.03,-0.055 -0.037,-0.1642 -0.015,-0.2303 0.033,-0.098 0.1259,-0.1495 0.2585,-0.1418 0.1546,0.01 0.2326,0.1015 0.224,0.2658 0,0.054 -0.01,0.073 -0.03,0.1152 -0.047,0.088 -0.14,0.1575 -0.2233,0.1668 -0.031,0 -0.043,5e-4 -0.073,-0.019 z m 0.1922,-0.9828 c 0.1609,-0.038 0.3762,-0.2024 0.4407,-0.3369 0.022,-0.045 0.024,-0.056 0.024,-0.1349 0,-0.1032 -0.014,-0.1613 -0.057,-0.246 -0.062,-0.1203 -0.1908,-0.2197 -0.3236,-0.2508 -0.073,-0.017 -0.2526,-0.012 -0.3112,0.01 -0.1422,0.05 -0.2476,0.1369 -0.2841,0.2346 -0.023,0.061 -0.023,0.26 -2e-4,0.3493 0.046,0.1785 0.1888,0.3343 0.3462,0.3766 0.055,0.015 0.1026,0.015 0.1662,-1e-4 z m -0.1265,-0.2359 c -0.065,-0.033 -0.1254,-0.094 -0.1546,-0.1552 -0.02,-0.042 -0.023,-0.058 -0.023,-0.1207 10e-5,-0.04 0,-0.085 0.01,-0.1018 0.014,-0.049 0.055,-0.096 0.1076,-0.1223 0.047,-0.023 0.051,-0.024 0.1601,-0.024 0.1259,3e-4 0.1483,0.01 0.2024,0.055 0.053,0.048 0.069,0.091 0.069,0.1846 3e-4,0.071 0,0.085 -0.021,0.1264 -0.027,0.057 -0.099,0.1315 -0.1543,0.158 -0.026,0.013 -0.058,0.02 -0.092,0.022 -0.046,0 -0.058,-3e-4 -0.1025,-0.023 z m 0.2625,-0.9806 c 0.179,-0.042 0.3265,-0.1878 0.3721,-0.3674 0.016,-0.061 0.016,-0.1716 0,-0.2328 -0.023,-0.09 -0.065,-0.1621 -0.1352,-0.232 -0.074,-0.073 -0.1338,-0.1085 -0.2256,-0.132 -0.1206,-0.031 -0.2193,-0.018 -0.3434,0.045 -0.128,0.064 -0.2259,0.1589 -0.2606,0.2514 -0.015,0.039 -0.016,0.058 -0.014,0.196 0,0.1406 0,0.1555 0.021,0.1902 0.045,0.091 0.1449,0.1825 0.261,0.2387 0.1124,0.054 0.2179,0.069 0.3246,0.043 z m -0.2824,-0.2337 c -0.037,-0.028 -0.074,-0.079 -0.09,-0.1222 -0.014,-0.04 -0.016,-0.2112 0,-0.2577 0.013,-0.048 0.055,-0.096 0.1074,-0.1222 0.046,-0.023 0.051,-0.024 0.1558,-0.024 0.096,1e-4 0.1132,0 0.1486,0.018 0.069,0.032 0.1065,0.079 0.1242,0.1584 0.012,0.051 0,0.1379 -0.03,0.1935 -0.053,0.1062 -0.185,0.1778 -0.3268,0.1778 -0.05,0 -0.061,0 -0.086,-0.022 z m 1.0029,2.1049 c 2e-4,-1.8663 0,-2.0304 0.016,-2.343 0.01,-0.1849 0.02,-0.4298 0.024,-0.5442 0,-0.1145 0.011,-0.2162 0.012,-0.2261 l 0,-0.018 0.8262,0 0.8262,0 0,0.3321 c -0.01,0.5762 0,1.0255 0.036,3.2254 0.01,0.372 0.014,0.8618 0.016,1.0885 0,0.2267 0.01,0.4292 0.01,0.4501 l 0,0.038 -0.8847,0 -0.8846,0 10e-5,-2.0069 z m 0.9656,1.7229 c 0.1718,-0.033 0.3473,-0.1797 0.3949,-0.3311 0.044,-0.14 0,-0.3047 -0.1356,-0.4639 -0.035,-0.042 -0.101,-0.093 -0.1512,-0.1163 -0.035,-0.016 -0.05,-0.017 -0.2176,-0.017 l -0.1802,0 -0.056,0.027 c -0.072,0.035 -0.1734,0.1352 -0.208,0.2046 -0.024,0.048 -0.024,0.049 -0.023,0.1761 4e-4,0.1033 0,0.1417 0.018,0.1984 0.04,0.1618 0.1142,0.2549 0.2408,0.3024 0.083,0.031 0.2147,0.039 0.3183,0.02 z m -0.2414,-0.2313 c -0.049,-0.023 -0.078,-0.053 -0.1015,-0.105 -0.015,-0.034 -0.018,-0.054 -0.018,-0.1246 -2e-4,-0.078 0,-0.088 0.024,-0.1317 0.027,-0.052 0.074,-0.094 0.1222,-0.1075 0.016,0 0.078,-0.01 0.1379,-0.01 0.096,0 0.1123,0 0.148,0.019 0.051,0.024 0.094,0.072 0.1119,0.1248 0.02,0.059 0.014,0.1911 -0.01,0.2365 -0.022,0.042 -0.062,0.079 -0.1063,0.099 -0.031,0.014 -0.053,0.016 -0.152,0.016 -0.1055,10e-5 -0.1197,0 -0.1561,-0.019 z m 0.4019,-0.9906 c 0.063,-0.023 0.1562,-0.1165 0.1915,-0.1909 0.048,-0.1018 0.055,-0.1313 0.055,-0.2441 -2e-4,-0.099 0,-0.107 -0.027,-0.169 -0.053,-0.1306 -0.1578,-0.2349 -0.2848,-0.284 -0.077,-0.03 -0.1865,-0.043 -0.307,-0.037 -0.073,0 -0.089,0.01 -0.1356,0.03 -0.069,0.034 -0.1643,0.128 -0.2024,0.1996 l -0.028,0.052 0,0.132 c 0,0.151 0.01,0.219 0.046,0.302 0.032,0.067 0.1066,0.1427 0.1763,0.1769 0.08,0.039 0.1358,0.048 0.3139,0.049 0.1427,6e-4 0.1622,-10e-4 0.2041,-0.017 z m -0.3619,-0.1579 c -0.063,-0.017 -0.1197,-0.068 -0.1437,-0.1309 -0.011,-0.03 -0.013,-0.057 -0.011,-0.152 0,-0.1123 0,-0.1166 0.027,-0.1546 0.053,-0.086 0.1191,-0.1116 0.2712,-0.1062 0.1009,0 0.1427,0.018 0.1882,0.063 0.046,0.046 0.06,0.088 0.061,0.1794 2e-4,0.073 0,0.084 -0.023,0.1281 -0.029,0.059 -0.091,0.123 -0.1492,0.1527 -0.037,0.019 -0.054,0.023 -0.1193,0.024 -0.042,0 -0.087,-7e-4 -0.1001,0 z m 0.2071,-0.9973 c 0.1072,-0.023 0.2505,-0.1083 0.3242,-0.1936 0.018,-0.021 0.044,-0.061 0.058,-0.088 l 0.024,-0.049 0,-0.1228 c 0,-0.108 -0.01,-0.1299 -0.024,-0.1813 -0.049,-0.135 -0.1552,-0.2669 -0.2565,-0.3176 l -0.056,-0.028 -0.1453,0 c -0.1037,0 -0.159,0 -0.193,0.012 -0.1598,0.041 -0.27,0.155 -0.3037,0.3151 -0.017,0.083 -0.016,0.2082 0,0.2841 0.066,0.2585 0.3199,0.4224 0.5715,0.3691 z m -0.2495,-0.2366 c -0.052,-0.026 -0.086,-0.064 -0.1044,-0.1188 -0.012,-0.034 -0.012,-0.2183 -9e-4,-0.2587 0.014,-0.049 0.055,-0.096 0.1077,-0.1223 0.047,-0.023 0.051,-0.024 0.1601,-0.024 0.1281,5e-4 0.1497,0.01 0.2071,0.06 0.051,0.047 0.065,0.089 0.064,0.184 0,0.088 -0.021,0.1545 -0.073,0.2441 l -0.032,0.056 -0.1394,0 -0.1394,0 -0.05,-0.025 z m 0.2131,-0.9801 c 0.2843,-0.046 0.4252,-0.216 0.4391,-0.5294 0,-0.1045 0,-0.1056 -0.019,-0.1562 -0.073,-0.1554 -0.2993,-0.295 -0.4782,-0.2946 -0.277,6e-4 -0.5099,0.2473 -0.4903,0.5193 0.013,0.185 0.1737,0.4156 0.3211,0.4617 0.045,0.014 0.1379,0.014 0.2275,-8e-4 z m -0.2227,-0.2315 c -0.038,-0.028 -0.053,-0.048 -0.081,-0.1045 -0.022,-0.045 -0.023,-0.054 -0.023,-0.1481 0,-0.055 0,-0.1134 0.01,-0.1298 0.013,-0.048 0.055,-0.096 0.1075,-0.1222 0.046,-0.023 0.05,-0.024 0.1557,-0.024 0.096,1e-4 0.1133,0 0.1506,0.019 0.047,0.021 0.091,0.065 0.1105,0.1108 0.018,0.042 0.024,0.1329 0.012,0.1882 -0.026,0.1264 -0.1625,0.2185 -0.3366,0.2276 -0.073,0 -0.077,0 -0.104,-0.017 z m 1.2884,4.0873 c 0,-0.012 0,-0.2327 -0.01,-0.4903 0,-0.2575 -0.013,-0.8103 -0.02,-1.2285 -0.01,-0.4182 -0.016,-0.9512 -0.02,-1.1845 0,-0.2333 -0.01,-0.8268 -0.013,-1.3189 l 0,-0.8948 0.5874,0 c 0.561,0 0.5889,0 0.6185,0.018 0.053,0.026 0.061,0.055 0.061,0.2249 l 10e-5,0.1442 0.061,0.01 c 0.1386,0.022 0.2018,0.075 0.2839,0.2355 l 0.05,0.098 0,0.078 c -0.01,0.1042 -0.021,0.1342 -0.1042,0.2088 -0.1764,0.1577 -0.1739,0.1521 -0.1737,0.3775 l 10e-5,0.1526 0.086,0.047 c 0.1029,0.055 0.1676,0.1042 0.1997,0.1512 0.04,0.059 0.046,0.087 0.046,0.2267 0,0.1216 -10e-4,0.1304 -0.02,0.1676 -0.014,0.027 -0.043,0.059 -0.091,0.1 -0.106,0.09 -0.1041,0.085 -0.1068,0.3246 l 0,0.2001 0.093,0.048 c 0.054,0.028 0.1037,0.06 0.1186,0.076 0.014,0.015 0.046,0.067 0.071,0.1137 l 0.046,0.086 0,0.1152 c 0,0.1177 -0.01,0.1516 -0.034,0.1917 -0.018,0.026 -0.072,0.055 -0.1364,0.074 l -0.046,0.013 10e-5,0.2495 10e-5,0.2496 0.093,0.048 c 0.058,0.03 0.103,0.059 0.1198,0.078 0.015,0.016 0.047,0.069 0.071,0.1179 0.044,0.088 0.044,0.088 0.044,0.1628 0,0.1212 -0.017,0.1541 -0.1214,0.2362 -0.038,0.03 -0.06,0.054 -0.074,0.083 -0.02,0.041 -0.021,0.043 -0.021,0.2359 l 0,0.1945 -0.8243,0 -0.8244,0 -10e-5,-0.022 z m 1.0093,-0.2953 c 0.1407,-0.073 0.2177,-0.1465 0.2398,-0.2285 0.01,-0.02 0.01,-0.1005 0.01,-0.2134 l 0,-0.1812 -0.024,-0.044 c -0.036,-0.067 -0.1407,-0.1678 -0.208,-0.2008 l -0.056,-0.027 -0.1542,0 -0.1542,0 -0.062,0.034 c -0.1804,0.099 -0.2801,0.198 -0.3153,0.3138 -0.015,0.049 -0.016,0.069 -0.013,0.1491 0.01,0.1974 0.078,0.3024 0.2656,0.4119 l 0.064,0.037 0.1632,0 0.1632,0 0.087,-0.045 z m -0.316,-0.1903 c -0.049,-0.018 -0.1145,-0.067 -0.1449,-0.1087 -0.067,-0.092 -0.078,-0.1691 -0.036,-0.2543 0.029,-0.057 0.099,-0.1258 0.1567,-0.1541 0.056,-0.027 0.128,-0.026 0.1879,0 0.057,0.027 0.1292,0.1027 0.1564,0.1621 0.019,0.041 0.02,0.052 0.018,0.135 0,0.088 0,0.091 -0.032,0.1336 -0.02,0.031 -0.041,0.05 -0.072,0.067 -0.038,0.021 -0.052,0.024 -0.1232,0.026 -0.055,0 -0.09,0 -0.1112,-0.01 z m 0.2569,-0.9983 c 0.097,-0.036 0.2034,-0.1765 0.2384,-0.3146 0.014,-0.057 0.016,-0.216 0,-0.278 -0.024,-0.1162 -0.1014,-0.2226 -0.1979,-0.2734 -0.094,-0.05 -0.1348,-0.057 -0.3294,-0.057 l -0.1721,-4e-4 -0.051,0.027 c -0.1243,0.067 -0.2336,0.2623 -0.2334,0.416 3e-4,0.2063 0.1155,0.4283 0.2489,0.4795 0.039,0.015 0.061,0.017 0.2449,0.017 0.1876,4e-4 0.2051,-8e-4 0.2481,-0.017 z m -0.3424,-0.1661 c -0.044,-0.024 -0.1266,-0.1175 -0.1524,-0.1721 -0.032,-0.067 -0.032,-0.1213 0.001,-0.1864 0.03,-0.06 0.096,-0.124 0.158,-0.1529 0.04,-0.019 0.056,-0.022 0.122,-0.022 0.095,0 0.1382,0.015 0.1841,0.065 0.04,0.043 0.053,0.072 0.06,0.1351 0.01,0.073 -0.01,0.1431 -0.04,0.1936 -0.072,0.1082 -0.2519,0.1835 -0.3328,0.1393 z m 0.1299,-1.0043 c 0.1854,-0.047 0.3303,-0.1415 0.3838,-0.2502 0.018,-0.037 0.019,-0.045 0.019,-0.2149 0,-0.17 -6e-4,-0.1774 -0.019,-0.2161 -0.026,-0.054 -0.1347,-0.1612 -0.2062,-0.2034 -0.1016,-0.06 -0.1581,-0.075 -0.2861,-0.079 -0.1271,0 -0.1494,10e-4 -0.2172,0.045 -0.1011,0.066 -0.192,0.166 -0.2368,0.2619 -0.025,0.053 -0.025,0.053 -0.021,0.1623 0,0.084 0.01,0.1207 0.021,0.1575 0.062,0.1736 0.1859,0.315 0.3128,0.3572 0.034,0.011 0.1693,2e-4 0.2494,-0.02 z m -0.182,-0.2196 c -0.062,-0.03 -0.1227,-0.091 -0.1545,-0.1542 -0.022,-0.045 -0.025,-0.057 -0.025,-0.1226 10e-5,-0.04 0,-0.086 0.01,-0.1025 0.014,-0.049 0.054,-0.096 0.1076,-0.1223 0.046,-0.023 0.052,-0.024 0.1601,-0.024 0.1009,0 0.1158,0 0.1496,0.018 0.043,0.021 0.09,0.07 0.1089,0.1125 0.01,0.02 0.013,0.054 0.013,0.1091 3e-4,0.071 0,0.085 -0.021,0.1264 -0.027,0.057 -0.1,0.1315 -0.1543,0.158 -0.026,0.013 -0.058,0.02 -0.092,0.022 -0.044,0 -0.059,-7e-4 -0.1007,-0.021 z m 0.1482,-0.9937 c 0.084,-0.024 0.1691,-0.065 0.2337,-0.1129 0.065,-0.049 0.1026,-0.092 0.1305,-0.1516 0.02,-0.042 0.02,-0.049 0.02,-0.2078 l 10e-5,-0.1641 -0.024,-0.051 c -0.072,-0.1527 -0.3129,-0.2807 -0.528,-0.2807 -0.1327,-1e-4 -0.2291,0.037 -0.313,0.1197 -0.083,0.082 -0.1166,0.163 -0.1246,0.3002 -0.01,0.1781 0.039,0.315 0.1577,0.4361 0.055,0.056 0.1375,0.1081 0.1996,0.1258 0.05,0.014 0.1736,0.01 0.2478,-0.014 z m -0.2356,-0.206 c -0.033,-0.01 -0.083,-0.044 -0.1039,-0.074 -0.036,-0.053 -0.043,-0.084 -0.044,-0.1963 -2e-4,-0.088 0,-0.1097 0.016,-0.1398 0.026,-0.057 0.052,-0.085 0.1014,-0.1094 0.043,-0.021 0.052,-0.022 0.1541,-0.023 0.096,-10e-5 0.1125,0 0.15,0.019 0.046,0.021 0.092,0.067 0.1128,0.1118 0.019,0.042 0.019,0.2485 2e-4,0.2899 -0.02,0.045 -0.063,0.088 -0.1069,0.1086 -0.036,0.017 -0.05,0.019 -0.1521,0.018 -0.062,-4e-4 -0.1193,0 -0.1281,0 z m -3.9096,-1.7664 c 0,-0.2406 0,-0.4038 -0.01,-0.4164 -0.012,-0.032 -0.075,-0.095 -0.1386,-0.1386 -0.09,-0.062 -0.18,-0.1103 -0.3537,-0.1908 l -0.1599,-0.074 -0.024,0.029 c -0.043,0.054 -0.1101,0.1136 -0.164,0.1457 -0.1115,0.066 -0.2261,0.092 -0.441,0.1001 l -0.14,0.01 -0.066,-0.04 c -0.1464,-0.088 -0.3011,-0.2281 -0.3706,-0.3346 -0.065,-0.1 -0.066,-0.1063 -0.07,-0.3493 l 0,-0.214 0.04,-0.07 c 0.1108,-0.1937 0.2037,-0.2874 0.3897,-0.3932 l 0.072,-0.041 0.2077,2e-4 c 0.1967,2e-4 0.2104,0 0.2604,0.019 0.148,0.052 0.3379,0.2333 0.419,0.3995 0.046,0.094 0.053,0.1334 0.053,0.3106 l 0,0.1574 0.038,0.01 c 0.05,0.012 0.1414,0.056 0.2741,0.1297 0.1696,0.094 0.1982,0.1 0.2512,0.044 0.018,-0.019 0.043,-0.047 0.055,-0.063 0.012,-0.016 0.037,-0.036 0.057,-0.046 l 0.035,-0.017 2.0804,0 2.0803,0 0.1121,0.068 c 0.062,0.037 0.1162,0.068 0.1214,0.068 0.01,1e-4 0.1157,-0.045 0.2457,-0.1 0.3748,-0.1581 0.4122,-0.1684 0.4606,-0.1277 0.035,0.029 0.05,0.087 0.047,0.1805 l 0,0.075 -0.3861,0.1915 -0.3862,0.1916 0,0.4427 0,0.4427 -2.293,0 -2.2929,0 0,-0.3956 z m 0.9226,0.081 c 0.074,-0.037 0.1351,-0.094 0.162,-0.1515 0.019,-0.04 0.02,-0.049 0.02,-0.1988 0,-0.1535 -4e-4,-0.1573 -0.021,-0.2001 -0.028,-0.057 -0.1211,-0.1491 -0.1874,-0.1858 -0.1108,-0.061 -0.1849,-0.068 -0.3091,-0.028 -0.045,0.014 -0.082,0.03 -0.082,0.034 -6e-4,0.02 0.094,0.093 0.1862,0.144 0.056,0.031 0.1142,0.068 0.1304,0.084 0.058,0.055 0.082,0.1587 0.047,0.2056 -0.028,0.038 -0.072,0.055 -0.1396,0.055 -0.069,-5e-4 -0.139,-0.026 -0.2931,-0.1081 -0.049,-0.026 -0.092,-0.047 -0.096,-0.047 -0.012,0 0,0.1425 0.022,0.1915 0.031,0.088 0.067,0.122 0.2105,0.1981 l 0.081,0.043 0.1044,0 c 0.1029,0 0.1055,0 0.1659,-0.033 z m 3.1568,-0.037 c 0.051,-0.023 0.1085,-0.082 0.1354,-0.1405 0.019,-0.042 0.048,-0.1614 0.041,-0.1686 -0.01,-0.01 -0.1006,0.027 -0.1439,0.049 -0.021,0.011 -0.065,0.037 -0.098,0.058 -0.07,0.045 -0.1224,0.061 -0.1825,0.053 -0.1,-0.013 -0.1206,-0.041 -0.1248,-0.1682 0,-0.1098 0.01,-0.1455 0.045,-0.1817 0.025,-0.023 0.044,-0.031 0.11,-0.045 0.125,-0.028 0.1816,-0.052 0.236,-0.1029 0.026,-0.024 0.048,-0.046 0.048,-0.049 0,0 -0.013,-0.012 -0.028,-0.02 -0.015,-0.01 -0.028,-0.02 -0.028,-0.027 0,-0.01 -0.027,-0.011 -0.1661,-0.01 -0.1651,0 -0.1663,0 -0.2069,0.025 -0.087,0.048 -0.1659,0.1284 -0.2083,0.2122 -0.023,0.044 -0.023,0.048 -0.023,0.1774 0,0.1232 0,0.1346 0.019,0.1707 0.025,0.05 0.089,0.1203 0.1353,0.1473 0.063,0.037 0.097,0.042 0.2536,0.039 0.1293,0 0.1484,0 0.1858,-0.021 z m -3.9114,-1.825 c 0,-0.3878 8e-4,-0.4099 0.016,-0.4505 0.02,-0.053 0.064,-0.098 0.1188,-0.1182 0.04,-0.015 0.063,-0.016 0.5336,-0.016 l 0.4921,0 0,0.4962 0,0.4962 -0.5802,0 -0.5803,0 0,-0.4079 z m 1.4379,0.4024 c 0,0 -0.01,-0.2262 -0.01,-0.4962 l 3e-4,-0.4907 0.7201,0 0.7201,0 0,0.4962 0,0.4962 -0.715,0 c -0.3932,0 -0.7174,0 -0.7204,-0.01 z m 1.7115,-0.4907 0,-0.4962 0.4649,0 0.4649,0 0.05,0.025 c 0.06,0.03 0.1249,0.093 0.1525,0.1473 l 0.02,0.04 0,0.3901 0,0.3902 -0.5785,0 -0.5784,0 0,-0.4962 z m -3.0933,-0.8345 c 0,0 0.065,-0.1961 0.1438,-0.4333 0.079,-0.2372 0.142,-0.4341 0.1399,-0.4376 0,0 -0.025,-0.01 -0.05,-0.016 -0.095,-0.02 -0.1219,-0.041 -0.1219,-0.094 0,-0.029 0.074,-0.1157 0.2679,-0.3129 0.2285,-0.2328 0.4096,-0.394 0.5029,-0.4475 0.037,-0.021 0.091,-0.023 0.1147,0 0.027,0.022 0.037,0.049 0.046,0.1305 l 0.01,0.077 0.1401,-0.054 c 0.077,-0.03 0.2402,-0.092 0.3626,-0.1395 l 0.2225,-0.086 0.2537,0 c 0.3165,0 0.357,0.011 0.7458,0.1332 0.1299,0.041 0.3037,0.081 0.3495,0.081 0.022,0 0.024,0 0.037,-0.058 0.018,-0.076 0.036,-0.094 0.1018,-0.1017 0.049,-0.01 0.051,-0.01 0.09,0.024 0.134,0.1006 0.4793,0.4491 0.5902,0.5954 0.089,0.1169 0.099,0.1448 0.079,0.2161 -0.01,0.028 -0.023,0.051 -0.089,0.136 -0.013,0.017 -0.013,0.02 0.013,0.081 0.072,0.1711 0.2447,0.6598 0.2447,0.693 0,0.013 -0.1051,0.014 -2.0968,0.014 -1.1533,0 -2.0969,-9e-4 -2.0969,0 z m 2.333,-0.1796 c 0.2311,-0.076 0.4394,-0.304 0.4773,-0.5215 0.01,-0.032 0.01,-0.098 0,-0.1727 0,-0.1341 -0.023,-0.2114 -0.074,-0.3222 -0.08,-0.1728 -0.2311,-0.3286 -0.3701,-0.3811 -0.043,-0.016 -0.06,-0.017 -0.2581,-0.017 -0.2419,10e-5 -0.2642,0 -0.3896,0.064 -0.1286,0.062 -0.2327,0.1608 -0.2907,0.2757 -0.044,0.087 -0.05,0.1191 -0.054,0.3048 0,0.1932 0,0.2779 0.034,0.3684 0.058,0.1704 0.2153,0.3284 0.3863,0.3879 0.087,0.03 0.1294,0.034 0.3137,0.032 0.1459,0 0.1793,0 0.2201,-0.018 z m -0.461,-0.1581 c -0.054,-0.02 -0.083,-0.039 -0.1344,-0.088 -0.093,-0.089 -0.1666,-0.2233 -0.186,-0.3403 -0.02,-0.1222 0.018,-0.3264 0.083,-0.4402 0.06,-0.1058 0.1722,-0.1875 0.2924,-0.213 0.071,-0.015 0.2084,-0.015 0.2741,7e-4 0.118,0.028 0.2545,0.1184 0.3322,0.2212 0.076,0.1009 0.116,0.2118 0.116,0.3247 0,0.27 -0.1579,0.4859 -0.3907,0.5341 -0.076,0.016 -0.3438,0.016 -0.3864,4e-4 z m 0.3792,-0.2353 c 0.06,-0.03 0.1218,-0.091 0.1516,-0.1516 0.025,-0.052 0.026,-0.056 0.026,-0.1535 0,-0.092 0,-0.1039 -0.022,-0.1462 -0.03,-0.064 -0.093,-0.1286 -0.1576,-0.1602 -0.051,-0.025 -0.056,-0.026 -0.1528,-0.026 -0.094,10e-5 -0.1031,0 -0.1467,0.023 -0.063,0.031 -0.128,0.096 -0.1576,0.1585 -0.023,0.048 -0.024,0.056 -0.024,0.1508 0,0.093 0,0.1032 0.023,0.148 0.034,0.073 0.1104,0.1441 0.1813,0.1705 0.014,0.01 0.068,0.01 0.1321,0.01 0.095,0 0.1125,0 0.1463,-0.021 z m -2.1192,-0.6593 c -0.1682,-0.1219 -0.3309,-0.2868 -0.3851,-0.3903 -0.022,-0.041 -0.023,-0.05 -0.023,-0.1402 0,-0.093 8e-4,-0.098 0.027,-0.1521 0.037,-0.075 0.1285,-0.1669 0.2047,-0.2044 0.049,-0.024 0.064,-0.027 0.1335,-0.03 0.097,0 0.1393,0.01 0.2202,0.064 0.069,0.047 0.2089,0.1899 0.2893,0.2938 0.032,0.041 0.057,0.077 0.057,0.081 0,0 -0.013,0.016 -0.028,0.028 -0.022,0.017 -0.031,0.02 -0.043,0.013 -0.01,0 -0.069,-0.059 -0.1341,-0.1216 -0.1211,-0.1155 -0.1906,-0.1682 -0.2427,-0.1838 -0.017,-0.01 -0.072,-0.01 -0.1327,-0.01 -0.1599,0 -0.1802,0.023 -0.186,0.1651 -0.01,0.1341 0.021,0.1798 0.1843,0.3222 0.1109,0.096 0.1424,0.1329 0.1424,0.165 0,0.021 -0.045,0.1148 -0.054,0.1144 0,-2e-4 -0.017,-0.01 -0.03,-0.018 z m 3.8796,-0.01 c -0.01,-0.015 -0.022,-0.028 -0.026,-0.028 0,0 -0.01,-0.016 -0.01,-0.035 0,-0.051 0.033,-0.094 0.1361,-0.1811 0.1048,-0.088 0.1446,-0.1317 0.1726,-0.189 0.019,-0.039 0.021,-0.049 0.018,-0.129 0,-0.095 -0.013,-0.1255 -0.057,-0.17 -0.037,-0.037 -0.083,-0.058 -0.1401,-0.063 -0.046,0 -0.055,0 -0.1082,0.025 -0.067,0.033 -0.1466,0.1013 -0.2622,0.2235 -0.045,0.047 -0.096,0.097 -0.1132,0.1111 l -0.032,0.025 -0.035,-0.035 c -0.019,-0.019 -0.035,-0.037 -0.035,-0.04 0,0 0.339,-0.3119 0.4644,-0.4214 0.026,-0.023 0.031,-0.024 0.064,-0.018 0.02,0 0.061,0.011 0.092,0.015 0.1092,0.016 0.2058,0.086 0.2533,0.1819 0.017,0.035 0.019,0.05 0.021,0.1891 0,0.1712 -0.001,0.1908 -0.053,0.2668 -0.039,0.058 -0.1679,0.1826 -0.2563,0.2489 -0.037,0.027 -0.069,0.05 -0.072,0.05 0,0 -0.014,-0.013 -0.024,-0.028 z"/>
</svg>
