<svg role="img" focusable="false" aria-hidden="true" xmlns="http://www.w3.org/2000/svg" viewBox="0 0 14 14" height="1em" width="1em">
  <path d="M 7,1 C 3.688,1 1,3.688 1,7 c 0,3.312 2.688,6 6,6 3.312,0 6,-2.688 6,-6 C 13,3.688 10.312,1 7,1 Z M 6.71684,1.49745 c 0.003,-1.8e-4 0.007,1.6e-4 0.0102,0 l 0.0255,0.40689 C 6.40647,1.92084 6.06965,1.97134 5.74489,2.05357 L 5.84565,2.45026 C 4.99321,2.66617 4.23395,3.11508 3.63902,3.72577 L 3.34693,3.44005 C 3.10936,3.68377 2.89697,3.95149 2.71172,4.23852 L 2.36989,4.01275 C 3.30351,2.56921 4.8938,1.58996 6.71683,1.49745 Z m 0.55612,0 c 1.82727,0.0894 3.42179,1.06909 4.35714,2.5153 L 11.28827,4.23852 C 11.10343,3.95221 10.89124,3.68454 10.65434,3.44133 l -0.2921,0.28444 C 9.76723,3.11476 9.00707,2.66625 8.15434,2.45026 L 8.2551,2.05357 C 7.93034,1.97127 7.59352,1.92084 7.24745,1.90434 L 7.27295,1.49745 Z M 7,3.29592 c 0.17347,-4e-4 0.34694,0.0102 0.4898,0.0306 L 7.26658,5.18366 c 0.46919,0.0684 0.88056,0.31398 1.16454,0.6671 l 1.4898,-1.11735 c 0.18096,0.22543 0.38611,0.57909 0.49362,0.84694 L 8.70281,6.31249 c 0.086,0.21257 0.13392,0.4442 0.13392,0.6875 0,0.23439 -0.0436,0.45837 -0.12372,0.66454 l 1.6977,0.72577 C 10.30596,8.65973 10.10295,9.01276 9.92474,9.23979 L 8.44515,8.13264 C 8.16155,8.49383 7.74547,8.74604 7.27041,8.81632 l 0.21939,1.82653 c -0.28572,0.044 -0.69388,0.0434 -0.9796,0.003 L 6.72959,8.81677 C 6.25419,8.74647 5.83847,8.49342 5.55485,8.13182 L 4.07908,9.23896 C 3.89812,9.01352 3.69297,8.65987 3.58546,8.39202 L 5.28699,7.66371 C 5.20709,7.45784 5.16327,7.23441 5.16327,7.00044 c 0,-0.24372 0.0476,-0.47591 0.13392,-0.68878 L 3.58929,5.58207 C 3.69404,5.31264 3.89705,4.95961 4.07526,4.73258 L 5.56888,5.85121 C 5.85286,5.49809 6.26423,5.25253 6.73342,5.18411 L 6.5102,3.32952 C 6.65306,3.30752 6.82653,3.29672 7,3.29632 Z M 2.09694,4.48469 2.46429,4.66582 C 2.30935,4.96618 2.18267,5.28331 2.08929,5.6148 L 2.48214,5.72577 C 2.36793,6.13107 2.30612,6.55833 2.30612,7 c 0,0.4421 0.0616,0.86986 0.17602,1.27551 L 2.08929,8.38648 c 0.0933,0.33095 0.22025,0.6478 0.375,0.9477 L 2.09694,9.51531 C 1.70898,8.76108 1.4898,7.90602 1.4898,7 c 0,-0.90602 0.21918,-1.76108 0.60714,-2.51531 z m 9.80612,0 C 12.29102,5.23892 12.5102,6.09398 12.5102,7 c 0,0.90602 -0.21918,1.76108 -0.60714,2.51531 L 11.53571,9.33418 c 0.15481,-0.29999 0.28165,-0.61664 0.375,-0.9477 L 11.51786,8.27551 C 11.63228,7.86986 11.69388,7.4421 11.69388,7 c 0,-0.44167 -0.0618,-0.86893 -0.17602,-1.27423 L 11.91071,5.6148 C 11.81731,5.2834 11.69059,4.96611 11.53571,4.66582 L 11.90306,4.48469 Z M 2.71173,9.76148 c 0.18532,0.28703 0.39763,0.55474 0.63521,0.79847 l 0.29209,-0.28572 c 0.59493,0.61069 1.35419,1.0596 2.20663,1.27552 L 5.7449,11.94643 c 0.32476,0.0823 0.66158,0.13273 1.00765,0.14923 l -0.0255,0.40689 C 4.89978,12.41315 3.30526,11.43346 2.36991,9.98725 L 2.71174,9.76148 Z m 8.57781,0 0.34056,0.22577 c -0.93535,1.44621 -2.52987,2.42591 -4.35714,2.5153 l -0.0255,-0.40689 c 0.34607,-0.0165 0.68289,-0.067 1.00765,-0.14923 L 8.15435,11.54975 c 0.85273,-0.216 1.61289,-0.66451 2.2079,-1.27552 l 0.2921,0.28444 c 0.23719,-0.24351 0.45014,-0.51049 0.6352,-0.79719 z"/>
</svg>
