<svg aria-hidden="true" xmlns="http://www.w3.org/2000/svg" viewBox="0 0 14 14" height="1em" width="1em">
  <path d="M3.742 12.148a294.51 294.51 0 0 1-1.854-.865c-.017-.01.022-.533.123-1.638.082-.893.15-1.663.15-1.71l.001-.086-.137-.01a.63.63 0 0 1-.537-.374c-.05-.105-.05-.14-.05-1.107 0-.99 0-.998.054-1.116a.559.559 0 0 1 .26-.29l.101-.06V1.857H1.6c-.208 0-.272-.01-.356-.05a.423.423 0 0 1 .004-.759C1.34 1.002 1.394 1 2.283 1c.86 0 .944 0 1.032.044.17.08.25.204.25.398a.375.375 0 0 1-.135.299c-.11.104-.172.114-.675.114H2.28v5.174l.148.028C3.65 7.289 4.756 8.2 5.41 9.512c.437.875.68 1.904.714 3.03l.013.457h-.565l-1.83-.85zm2.84-2.237c0-1.7-.003-3.09-.007-3.09-.016 0-3.764-.666-3.814-.677-.052-.012-.054-.021-.047-.22l.007-.208 4.71-.01 4.711-.01v.214c0 .202-.003.214-.053.226-.03.01-.84.152-1.8.322-.96.17-1.803.32-1.871.334l-.125.025-.006 3.081-.006 3.082-.85.01-.849.01V9.91zm2.146 2.667c.049-1.372.373-2.557.96-3.506.564-.911 1.386-1.593 2.282-1.894.223-.075.572-.155.59-.136.011.01.439 4.23.43 4.237l-1.86.862-1.855.858h-.561l.014-.421zM2.745 4.772c.094-.72.197-1.084.454-1.586.54-1.06 1.568-1.784 2.911-2.054.493-.1.714-.12 1.327-.119 1.047.001 1.756.151 2.531.534.413.205.713.417 1.02.724.641.638.987 1.397 1.12 2.453l.015.125H2.735l.01-.077zm7.192-1.283a.82.82 0 0 0 .485-.63c.008-.07.01-.125.003-.125a.972.972 0 0 0-.132.08c-.356.24-.923.27-1.317.071a1.74 1.74 0 0 1-.19-.109L8.72 2.73v.096c0 .289.227.573.555.694a1 1 0 0 0 .662-.032z"/>
</svg>
