<svg aria-hidden="true" xmlns="http://www.w3.org/2000/svg" viewBox="0 0 14 14" height="1em" width="1em">
  <path d="M9.357 8.37c-.391-.259-.847-.395-1.287-.544a1.708 1.708 0 0 1-.312-.134c-.087-.052-.12-.157-.14-.25a1.476 1.476 0 0 1-.017-.149c.32-.437.532-1.15.532-1.735 0-.913-.516-1.167-1.152-1.167-.637 0-1.152.254-1.152 1.167 0 .606.227 1.35.566 1.78a1.251 1.251 0 0 1-.013.103c-.02.092-.053.197-.14.248-.097.058-.205.094-.311.132-.441.148-.897.279-1.288.538-.203.134-.341.393-.417.62a2.55 2.55 0 0 0-.106.781h5.76a2.515 2.515 0 0 0-.106-.78c-.076-.229-.214-.475-.417-.61Zm.85-1.106c-.293-.195-.635-.296-.965-.407a1.274 1.274 0 0 1-.234-.1c-.065-.04-.09-.118-.104-.188a.873.873 0 0 1-.013-.111c.24-.328.399-.863.399-1.302 0-.685-.387-.875-.864-.875-.182 0-.35.028-.49.1.317.243.485.64.485 1.177 0 .618-.207 1.33-.523 1.811l.003.017a.385.385 0 0 0 .02.067c.069.038.151.068.244.1l.138.047c.409.136.832.3 1.213.553.062.04.12.047.175.167h.909a1.71 1.71 0 0 0-.08-.592c-.056-.17-.16-.364-.312-.464Zm-5.722.879c.371-.247.783-.395 1.182-.527.058-.018.115-.044.172-.063l.011-.007a1.56 1.56 0 0 0 .23-.095.327.327 0 0 0 .012-.038c-.328-.48-.551-1.22-.551-1.855 0-.538.169-.938.488-1.18a1.07 1.07 0 0 0-.483-.097c-.478 0-.864.19-.864.875 0 .455.17 1.012.424 1.336a.925.925 0 0 1-.01.076c-.015.07-.04.148-.104.186-.073.044-.154.071-.234.1-.33.11-.672.208-.966.403-.152.1-.256.3-.312.472a1.697 1.697 0 0 0-.08.591h.902c.057-.12.118-.135.183-.177ZM7 1C3.692 1 1 3.692 1 7s2.692 6 6 6 6-2.692 6-6-2.692-6-6-6Zm.36 11.266v-.946h-.72v.946A5.286 5.286 0 0 1 1.734 7.36h.946v-.72h-.946A5.286 5.286 0 0 1 6.64 1.734v.946h.72v-.946a5.286 5.286 0 0 1 4.906 4.906h-.946v.72h.946a5.287 5.287 0 0 1-4.906 4.906Z"/>
</svg>
