<svg role="img" focusable="false" aria-hidden="true" xmlns="http://www.w3.org/2000/svg" viewBox="0 0 14 14" height="1em" width="1em">
  <path d="m 12.199988,8 0,-5.2 q 0,-0.0812 -0.0594,-0.14063 -0.0594,-0.0594 -0.14063,-0.0594 l -9.9999905,0 q -0.08125,0 -0.14063,0.0594 -0.05937,0.0594 -0.05937,0.14063 l 0,5.2 q 0,0.0812 0.05937,0.14063 0.05938,0.0594 0.14063,0.0594 l 9.9999905,0 q 0.0813,0 0.14063,-0.0594 0.0594,-0.0594 0.0594,-0.14063 z m 0.79999,-5.2 0,6.8 q 0,0.4125 -0.29375,0.70625 Q 12.412488,10.6 11.999978,10.6 l -3.3999905,0 q 0,0.23125 0.1,0.48437 0.1,0.25313 0.20001,0.44376 0.1,0.19062 0.1,0.27187 0,0.1625 -0.11875,0.28125 Q 8.7624975,12.2 8.6000075,12.2 l -3.2,0 q -0.1625,0 -0.28125,-0.11875 -0.11875,-0.11875 -0.11875,-0.28125 0,-0.0875 0.1,-0.275 0.1,-0.1875 0.19999,-0.4375 0.10001,-0.25 0.10001,-0.4875 l -3.4,0 q -0.412505,0 -0.706255,-0.29375 Q 1.0000025,10.0125 1.0000025,9.6 l 0,-6.8 q 0,-0.4125 0.29375,-0.70625 Q 1.5875025,1.8 2.0000075,1.8 l 9.9999905,0 q 0.41251,0 0.70625,0.29375 0.29375,0.29375 0.29375,0.70625 z M 6.396266,3.4911415 3.1080903,5.1819217 3.325245,5.5979297 6.3720986,4.0331485 8.2693577,5.2484408 10.891874,3.350947 10.616647,2.9708383 8.2534025,4.6808586 Z m 3.0382893,1.5321668 0.9385407,0 0,2.5809857 -0.9385407,0 z m -1.759763,0.8212227 0.9385403,0 0,1.759763 -0.9385403,0 z m -1.8771978,-0.8212227 0.9385403,0 0,2.5809857 -0.9385403,0 z m -1.994398,0.8212227 0.9385402,0 0,1.759763 -0.9385402,0 z"/>
</svg>
