<svg role="img" focusable="false" aria-hidden="true" xmlns="http://www.w3.org/2000/svg" viewBox="0 0 14 14" height="1em" width="1em">
  <path d="m 8.68591,9.70192 -0.2616,0 C 8.39023,9.57064 8.33743,9.44452 8.26987,9.32992 L 8.45539,9.14404 c 0.05628,-0.05628 0.05628,-0.1476 0,-0.20388 L 8.14999,8.63452 c -0.05628,-0.05628 -0.14748,-0.05628 -0.20364,0 L 7.75987,8.82004 C 7.64539,8.75248 7.51927,8.69968 7.38799,8.6656 l 0,-0.2616 C 7.38799,8.32444 7.32547,8.26 7.24567,8.26 l -0.432,0 c -0.07956,0 -0.14232,0.06444 -0.14232,0.144 l 0,0.2616 C 6.54031,8.69968 6.41407,8.75224 6.29959,8.81992 l -0.186,-0.1854 c -0.05628,-0.05628 -0.1476,-0.05628 -0.20388,0 l -0.30552,0.3054 c -0.05628,0.05628 -0.05628,0.14748 0,0.20364 l 0.18552,0.18636 c -0.0678,0.1146 -0.12036,0.24072 -0.15444,0.372 l -0.2616,0 c -0.07956,0 -0.144,0.06252 -0.144,0.14232 l 0,0.432 c 0,0.07956 0.06444,0.14232 0.144,0.14232 l 0.2616,0 c 0.03408,0.13128 0.08664,0.2574 0.15444,0.372 l -0.18552,0.18588 c -0.05628,0.05628 -0.05628,0.1476 0,0.20388 l 0.3054,0.30552 c 0.05628,0.0564 0.14748,0.0564 0.20364,1.2e-4 l 0.18636,-0.18552 c 0.11448,0.06756 0.24072,0.12036 0.37176,0.15444 l 0,0.26172 c 0,0.07944 0.06264,0.14388 0.14232,0.14388 l 0.432,0 c 0.07956,0 0.14232,-0.06444 0.14232,-0.14388 l 0,-0.26172 c 0.13128,-0.03408 0.2574,-0.08688 0.372,-0.15444 l 0.18588,0.18552 c 0.05628,0.05628 0.1476,0.05628 0.20388,0 l 0.30552,-0.3054 c 0.0564,-0.05628 0.0564,-0.14748 1.2e-4,-0.20364 L 8.26987,10.79044 c 0.06756,-0.11448 0.12036,-0.2406 0.15444,-0.37188 l 0.2616,0 c 0.07956,0 0.144,-0.06252 0.144,-0.14232 l 0,-0.432 c 0,-0.0798 -0.06444,-0.14232 -0.144,-0.14232 z M 7.02991,10.78 c -0.39768,0 -0.72,-0.32256 -0.72,-0.72 0,-0.39768 0.32232,-0.72 0.72,-0.72 0.39756,0 0.72,0.32232 0.72,0.72 0,0.39756 -0.32244,0.72 -0.72,0.72 z m -3.00996,-3.72 6.02004,0 0,0.48 -6.02004,0 z m 0,-1.2 6.02004,0 0,0.48 -6.02004,0 z m 0,-0.96 2.55996,0 0,0.48 -2.55996,0 z m 0,-0.96 2.55996,0 0,0.48 -2.55996,0 z m 3.43992,-1.02 2.58,0 0,2.4 -2.58,0 z m -3.43992,0.06 2.55996,0 0,0.48 -2.55996,0 z M 11.58487,1.3396 C 11.58487,1.15456 11.43043,1 11.24515,1 8.41495,1 5.58487,1 2.75467,1 2.56963,1 2.41507,1.15456 2.41507,1.3396 c 0,3.77364 0,7.5474 0,11.3208 0,0.18516 0.15456,0.3396 0.3396,0.3396 2.8302,0 5.66028,0 8.49048,0 0.09996,0 0.17604,-0.03636 0.2304,-0.09096 0.0032,-0.0028 0.0064,-0.0061 0.0094,-0.009 0.0028,-0.0029 0.0064,-0.0062 0.0089,-0.0094 0.0546,-0.05424 0.09108,-0.13032 0.09108,-0.23028 0,-3.7734 0,-7.54716 0,-11.3208 z m -0.67932,10.9812 c -2.60364,0 -5.20752,0 -7.81128,0 0,-3.54732 0,-7.0944 0,-10.6416 2.60376,0 5.20752,0 7.81128,0 0,3.5472 0,7.09428 0,10.6416 z"/>
</svg>
