<svg role="img" focusable="false" aria-hidden="true" xmlns="http://www.w3.org/2000/svg" viewBox="0 0 14 14" height="1em" width="1em">
  <path d="M 9.19952,8.287255 11.40625,6.145435 8.36298,5.698315 7,2.943505 5.63702,5.698315 2.59375,6.145435 4.80048,8.287255 4.27404,11.323315 7,9.888225 9.71875,11.323315 z M 13,5.712735 q 0,0.15866 -0.1875,0.34616 l -2.61779,2.55288 0.62019,3.60577 q 0.007,0.0505 0.007,0.14423 0,0.36058 -0.29568,0.36058 -0.13702,0 -0.28846,-0.0865 L 7,10.933895 3.76202,12.635815 q -0.15865,0.0865 -0.28846,0.0865 -0.15144,0 -0.22717,-0.10457 -0.0757,-0.10456 -0.0757,-0.25601 0,-0.0433 0.0144,-0.14423 L 3.80528,8.611735 1.180278,6.058855 Q 1,5.864185 1,5.712735 1,5.445915 1.403846,5.381005 L 5.02404,4.854565 6.64663,1.573315 Q 6.78365,1.277645 7,1.277645 q 0.21635,0 0.35337,0.29567 l 1.62259,3.28125 3.62019,0.52644 Q 13,5.445915 13,5.712735 z"/>
</svg>
