<svg role="img" focusable="false" aria-hidden="true" xmlns="http://www.w3.org/2000/svg" viewBox="0 0 14 14" height="1em" width="1em">
  <path d="m 10.840904,1.6818181 -7.6818081,0 q -0.609375,0 -1.0433259,0.4339487 -0.4339509,0.4339486 -0.4339509,1.0433247 l 0,7.6818175 q 0,0.609375 0.4339509,1.043325 0.4339509,0.433948 1.0433259,0.433948 l 7.6818081,0 q 0.609375,0 1.043326,-0.433948 0.433951,-0.43395 0.433951,-1.043325 l 0,-7.6818175 q 0,-0.6093761 -0.433951,-1.0433247 Q 11.450279,1.6818181 10.840904,1.6818181 Z M 13.5,3.1590915 l 0,7.6818165 q 0,1.098722 -0.780184,1.878906 Q 11.939631,13.5 10.840904,13.5 l -7.6818081,0 Q 2.0603684,13.5 1.2801841,12.719814 0.5,11.93963 0.5,10.840908 l 0,-7.6818165 Q 0.5,2.0603694 1.2801841,1.2801853 2.0603684,0.5 3.1590959,0.5 l 7.6818081,0 q 1.098727,0 1.878912,0.7801853 Q 13.5,2.0603694 13.5,3.1590915 Z"/>
</svg>
