<svg role="img" focusable="false" aria-hidden="true" xmlns="http://www.w3.org/2000/svg" viewBox="0 0 14 14" height="1em" width="1em">
  <path d="M 11.068975,6.28432 C 11.489088,4.919851 11.719316,3.582841 11.752266,2.309829 11.761766,1.944844 11.602724,1.530223 11.356866,1.277818 11.063484,0.97683201 10.664493,0.91536701 10.270782,1.118137 9.6398737,1.443624 9.1887117,2.401075 8.8262617,3.170754 c -0.02091,0.04436 -0.0414,0.08766 -0.06168,0.130533 -0.08005,-0.368153 -0.323375,-0.683079 -0.66935,-0.847407 -0.08153,-0.392021 -0.392444,-0.699132 -0.783197,-0.778761 -0.0042,-0.02197 -0.0095,-0.04351 -0.01605,-0.06527 C 7.2155147,1.334844 6.9726097,1.12785 6.6921127,1.094477 6.5298967,1.074627 6.3761307,1.108837 6.2430628,1.186567 6.129005,1.123197 6.0010069,1.089407 5.8696292,1.089407 c -0.3673083,0 -0.6758979,0.256208 -0.756372,0.599015 -0.4015256,0.109411 -0.6959637,0.477986 -0.699132,0.906336 -0.458132,0.118283 -0.7918566,0.53227 -0.7918566,1.02462 0,0.130532 0.024501,0.259798 0.071603,0.381671 -0.1189149,0.1468 -0.1848149,0.33056 -0.1848149,0.523402 0,0.115748 0.023868,0.227271 0.068857,0.330345 C 3.3669068,4.624568 3.0699341,4.436373 2.7364207,4.448624 2.6198283,4.452424 2.5281597,4.549797 2.5317504,4.66639 c 0.00359,0.114269 0.097372,0.20467 0.2110069,0.20467 0.00718,2.11e-4 0.013729,-4.22e-4 0.020488,-4.22e-4 0.1979114,0 0.3818824,0.130955 0.5157946,0.283032 C 2.944048,5.2502 2.540199,5.407343 2.3517925,5.762612 2.2385796,5.976153 2.2252728,6.238275 2.2998325,6.538205 c -0.037597,0.06146 -0.055973,0.133489 -0.05196,0.210584 l 0.3594932,5.108943 C 2.6401057,12.498357 3.1681506,13 3.8094088,13 l 5.9291039,0 c 0.6412583,0 1.1693033,-0.501643 1.2018313,-1.138466 L 11.30913,6.571366 c 0.004,-0.07562 -0.02366,-0.15081 -0.07583,-0.205727 -0.04288,-0.04626 -0.102441,-0.07287 -0.164328,-0.08132 z M 8.9371507,3.905582 c 0.08364,-0.15609 0.174889,-0.349566 0.271415,-0.554659 0.317461,-0.674208 0.75257,-1.597442 1.2559033,-1.85724 0.228116,-0.117438 0.42307,-0.09209 0.589932,0.07899 0.188407,0.193053 0.281132,0.51157 0.27564,0.726168 -0.03232,1.248721 -0.260432,2.56292 -0.678221,3.906268 -0.01373,0.04414 -0.04414,0.133278 -0.08744,0.255573 l -0.359915,0.159893 c -0.0078,0.0036 -0.01542,0.0074 -0.02281,0.01204 -0.101807,0.06104 -0.2194553,0.09125 -0.3371043,0.09251 -0.117648,-0.0013 -0.235086,-0.03147 -0.336893,-0.09251 l -0.150598,-0.0904 C 9.1874507,6.440619 8.9933417,6.386758 8.7956417,6.386758 c -0.05344,0 -0.106454,0.0046 -0.158836,0.01246 -0.146374,0.0188 -0.289158,0.06653 -0.416733,0.143206 l -0.150388,0.0904 c -0.08216,0.04921 -0.175311,0.07329 -0.269725,0.08364 0.0046,-0.01584 0.0099,-0.03147 0.01457,-0.04731 0.05851,-0.19939 0.121661,-0.396034 0.187561,-0.590989 0.02408,-0.07139 0.04921,-0.142149 0.07456,-0.212907 0.05513,-0.155034 0.112791,-0.308379 0.172354,-0.460245 0.02556,-0.06484 0.05006,-0.130532 0.07646,-0.194743 0.184183,-0.450528 0.387586,-0.886693 0.611688,-1.304694 z m -2.440414,2.498921 c -0.02323,0.004 -0.04626,0.0082 -0.06907,0.01373 -0.0697,0.01542 -0.1381369,0.03633 -0.2038257,0.06527 L 6.183289,6.29805 c 0.060831,0.0051 0.1214504,0.01014 0.1782676,0.01014 0.368365,0 0.664915,-0.109622 1.005821,-0.352101 0.107299,-0.07646 0.202347,-0.134334 0.292748,-0.182281 -0.01943,0.05513 -0.03865,0.110045 -0.05745,0.165384 -0.01352,0.03971 -0.02809,0.07878 -0.04119,0.118705 -0.0621,0.187984 -0.12124,0.377446 -0.176368,0.568599 l -0.14046,-0.08407 C 7.0750496,6.44083 6.8809406,6.386969 6.6832406,6.386969 c -0.05111,0 -0.101596,0.0049 -0.151866,0.01204 -0.01141,0.0013 -0.02302,0.0038 -0.03464,0.0055 z M 6.1611112,3.54968 C 6.1137982,3.55938 6.0669082,3.52771 6.0571919,3.48294 6.0470529,3.43668 6.0776799,3.38916 6.1239369,3.37902 L 7.3088707,3.121968 c 0.04098,0 0.07688,0.02894 0.08554,0.06865 0.0068,0.03042 -0.0046,0.05428 -0.01225,0.0659 -0.0074,0.01141 -0.02408,0.03147 -0.05449,0.03823 L 6.1611112,3.54968 Z m 0.08322,0.8567 c 0.024712,-0.03168 0.048791,-0.06252 0.072025,-0.09336 0.016686,-0.02218 0.031261,-0.0452 0.043511,-0.06822 0.05196,-0.09779 0.06421,-0.207416 0.04013,-0.314926 l 0.881625,-0.192631 c 0.0059,0.02704 0.01225,0.05386 0.02239,0.07879 0.0395,0.09674 0.110045,0.177212 0.208262,0.233396 0.0321,0.01774 0.06569,0.03548 0.100327,0.05386 0.02852,0.015 0.05703,0.03063 0.08576,0.04626 0.01373,0.0074 0.02767,0.01479 0.0414,0.02239 0.02514,0.01415 0.04942,0.02978 0.07393,0.0452 0.02091,0.01288 0.04161,0.02619 0.06189,0.04034 0.02345,0.01626 0.04583,0.03422 0.06822,0.05238 0.01964,0.01605 0.03844,0.03358 0.05703,0.05154 0.02007,0.01964 0.03992,0.03971 0.0583,0.06168 0.03253,0.03887 0.06379,0.07921 0.08935,0.127576 -0.08956,0.1977 -0.173833,0.399414 -0.255363,0.602817 -0.01267,0.03147 -0.02619,0.0621 -0.03865,0.09357 -0.231495,0.05872 -0.455175,0.168552 -0.731448,0.365196 -0.348088,0.247337 -0.607252,0.313026 -1.0343323,0.251139 L 5.960454,5.276388 C 5.873432,4.879298 6.0620499,4.638931 6.2443311,4.40638 Z M 4.9937087,9.658318 c 0.1165924,0 0.2112181,0.09442 0.2112181,0.211218 0,0.116804 -0.094626,0.211219 -0.2112181,0.211219 l -1.4785267,0 c -0.1165924,0 -0.2112181,-0.09441 -0.2112181,-0.211219 0,-0.116803 0.094626,-0.211218 0.2112181,-0.211218 l 1.4785267,0 z m -1.4785267,0.844873 1.9009629,0 c 0.1165924,0 0.2112181,0.09441 0.2112181,0.211218 0,0.116803 -0.094626,0.211218 -0.2112181,0.211218 l -1.9009629,0 c -0.1165924,0 -0.2112181,-0.09441 -0.2112181,-0.211218 0,-0.116804 0.094626,-0.211218 0.2112181,-0.211218 z M 4.082725,4.206357 4.2210729,4.092299 4.1313049,3.937476 c -0.056184,-0.09716 -0.085966,-0.206994 -0.085966,-0.318094 0,-0.342174 0.2680358,-0.621193 0.6102091,-0.635556 L 4.9119668,2.973056 4.8521918,2.723608 c -0.010139,-0.04182 -0.015208,-0.08301 -0.015208,-0.122085 0,-0.272048 0.2124854,-0.50122 0.4836894,-0.521919 l 0.1951656,-0.01479 0,-0.210162 c 0.00613,-0.189885 0.1626379,-0.342596 0.3542127,-0.342596 0.1102559,0 0.1892515,0.05027 0.2359307,0.09251 L 6.2540461,1.738267 6.3959847,1.598018 c 0.06484,-0.06421 0.152077,-0.09547 0.246492,-0.08364 0.113212,0.01331 0.215442,0.101596 0.248392,0.21502 0.0112,0.03802 0.01436,0.07477 0.0099,0.112157 l -0.02471,0.235719 0.237831,0 c 0.303521,0 0.557405,0.237198 0.578316,0.540085 l 0.0095,0.13877 0.131167,0.04605 c 0.330134,0.115958 0.547266,0.42835 0.539873,0.777916 -0.0032,0.149331 -0.05133,0.293171 -0.138559,0.419268 -0.141305,-0.119972 -0.293593,-0.200869 -0.421591,-0.268247 -0.03316,-0.01753 -0.06527,-0.03443 -0.09758,-0.05238 -0.0091,-0.0051 -0.02007,-0.01394 -0.02387,-0.03612 -0.0051,-0.03042 0.0063,-0.06696 0.02936,-0.09378 0.09209,-0.106877 0.129054,-0.252617 0.09927,-0.39012 L 7.7942157,3.042335 C 7.7424657,2.805559 7.4951307,2.645667 7.2583557,2.698683 l -0.0564,0.01225 c -6.33e-4,2.12e-4 -0.0013,0 -0.0017,2.12e-4 L 6.5803297,2.846747 5.9754014,2.978758 C 5.732923,3.031778 5.5787338,3.27214 5.6319607,3.51483 l 0.012673,0.05745 c 0,2.11e-4 0,4.22e-4 0,6.34e-4 0,2.11e-4 2.112e-4,4.22e-4 2.112e-4,8.44e-4 l 0.012462,0.05724 c 0.030627,0.140671 0.1284206,0.259164 0.2612768,0.316193 0.03295,0.01415 0.060408,0.04098 0.069913,0.06822 0.00549,0.01563 0.00232,0.02366 -0.00993,0.04393 -0.021122,0.02809 -0.043511,0.05682 -0.066534,0.08597 -0.023445,0.02978 -0.047735,0.06125 -0.072236,0.09357 -0.0076,0.0099 -0.014785,0.02028 -0.022389,0.03042 -0.018165,0.0245 -0.036118,0.04985 -0.054283,0.07604 -0.00908,0.01331 -0.017954,0.02704 -0.027036,0.04077 -0.016264,0.02513 -0.032105,0.0509 -0.047524,0.07773 -0.00866,0.015 -0.017109,0.02978 -0.025557,0.0452 -0.016053,0.02978 -0.030627,0.06125 -0.044778,0.09315 -0.00591,0.01331 -0.012251,0.02598 -0.017742,0.03971 -0.018587,0.04626 -0.035062,0.09442 -0.048369,0.145107 -0.0019,0.0076 -0.00275,0.01584 -0.00465,0.02366 -0.01035,0.04351 -0.018376,0.08829 -0.023868,0.13539 -0.00211,0.01859 -0.00253,0.03802 -0.0038,0.05724 -0.00169,0.02492 -0.00486,0.04879 -0.00486,0.07477 -0.00613,-0.008 -0.012039,-0.01479 -0.018165,-0.0226 -0.01394,-0.01816 -0.027881,-0.03464 -0.041821,-0.05196 -0.03126,-0.03865 -0.062732,-0.0754 -0.094203,-0.109834 -0.015419,-0.0169 -0.031049,-0.03358 -0.046468,-0.04942 C 5.2811227,4.810464 5.2475387,4.779414 5.2141663,4.750264 5.2017043,4.739494 5.1894533,4.727454 5.1769923,4.717314 5.1324253,4.680984 5.0874363,4.648884 5.042024,4.620784 5.028295,4.612384 5.014354,4.605994 5.000625,4.598184 4.967886,4.579804 4.934936,4.562914 4.901775,4.548764 4.88361,4.540964 4.865234,4.534194 4.846858,4.527854 4.816654,4.517084 4.78645,4.508424 4.756034,4.501244 4.737658,4.496844 4.719282,4.491944 4.700906,4.488784 4.662464,4.482284 4.623811,4.478884 4.5849473,4.477804 c -0.00887,-2.11e-4 -0.017742,-0.0025 -0.026613,-0.0025 -0.2194556,0 -0.4192679,0.08554 -0.5964799,0.20108 C 3.9424224,4.628644 3.9322834,4.577324 3.9322834,4.524307 3.9320722,4.400956 3.9869884,4.284997 4.0826707,4.206424 Z M 2.7256487,5.960101 C 2.8149937,5.79176 3.031915,5.663339 3.4085168,5.555618 3.5846727,5.505348 3.7481556,5.411356 3.8808005,5.284625 c 0.05893,-0.0564 0.1146915,-0.105187 0.1685521,-0.148909 0.047947,-0.03907 0.094203,-0.07329 0.1387703,-0.102652 0.00169,-0.0011 0.00338,-0.0021 0.00507,-0.0032 0.088289,-0.05745 0.1702418,-0.09568 0.246914,-0.115325 0.00317,-8.45e-4 0.00613,-0.0015 0.00929,-0.0021 0.037597,-0.0089 0.074138,-0.01394 0.1094109,-0.01394 0.2657124,0 0.5506456,0.265079 0.8469846,0.787844 0.1552454,0.27395 0.2069938,0.678432 0.1396152,1.031167 -0.015841,-0.0015 -0.03126,-0.0036 -0.04689,-0.0061 C 5.4226906,6.69684 5.3491864,6.67255 5.2832863,6.63305 L 5.1326902,6.54264 C 4.9630821,6.441044 4.7689727,6.387184 4.5712725,6.387184 c -0.053438,0 -0.1064539,0.0046 -0.158836,0.01246 -0.1463741,0.0188 -0.2891576,0.06653 -0.4167333,0.143206 L 3.9224102,6.58678 C 3.7971579,6.66176 3.6528959,6.69957 3.5082115,6.700837 3.3635271,6.699537 3.2190539,6.661977 3.0940128,6.58678 L 2.8095023,6.415909 C 2.7725393,6.393939 2.7321963,6.378519 2.6903753,6.370709 2.6567913,6.203001 2.6686193,6.067822 2.7256483,5.960101 Z m 3.1129324,5.810398 -2.3233991,0 c -0.1165924,0 -0.2112181,-0.09441 -0.2112181,-0.211218 0,-0.116803 0.094626,-0.211218 0.2112181,-0.211218 l 2.3233991,0 c 0.1165924,0 0.2112181,0.09441 0.2112181,0.211218 0,0.116804 -0.094626,0.211218 -0.2112181,0.211218 z m 1.2673086,0 -0.422436,0 c -0.116593,0 -0.211218,-0.09441 -0.211218,-0.211218 0,-0.116803 0.09463,-0.211218 0.211218,-0.211218 l 0.422436,0 c 0.116592,0 0.211218,0.09441 0.211218,0.211218 0,0.116804 -0.09463,0.211218 -0.211218,0.211218 z m 2.554049,-8.370996 c 0.0226,0.0076 0.04541,0.0112 0.06801,0.0112 0.08808,0 0.170241,-0.05534 0.200023,-0.143417 0.04858,-0.143206 0.2050933,-0.220301 0.3480883,-0.17172 0.176367,0.05977 0.365407,0.04752 0.53248,-0.03464 0.166863,-0.08238 0.291693,-0.224736 0.351679,-0.401103 0.0376,-0.110256 -0.02154,-0.230439 -0.132012,-0.268036 -0.110889,-0.03781 -0.230439,0.02175 -0.268035,0.132222 -0.02366,0.06949 -0.07287,0.125675 -0.13856,0.157992 -0.06569,0.03232 -0.140037,0.03717 -0.209739,0.01331 -0.363718,-0.122717 -0.7605973,0.07245 -0.8839483,0.435954 -0.0376,0.110679 0.02154,0.230651 0.132011,0.268247 z m -0.49953,1.471768 c 0.02239,0.0076 0.04541,0.0112 0.0678,0.0112 0.08808,0 0.170241,-0.05534 0.200023,-0.143417 0.03189,-0.09399 0.09843,-0.170031 0.187562,-0.213964 0.08913,-0.04393 0.189885,-0.05027 0.283877,-0.01838 0.4144103,0.140249 0.8664173,-0.08216 1.0070883,-0.496996 0.0376,-0.110256 -0.02176,-0.230439 -0.132011,-0.268036 -0.110468,-0.03802 -0.230439,0.02175 -0.267825,0.132222 -0.0659,0.194321 -0.276907,0.298452 -0.471439,0.232551 -0.2010793,-0.06822 -0.4163113,-0.05428 -0.6064073,0.03971 -0.190096,0.09378 -0.332457,0.256208 -0.400681,0.457076 -0.0376,0.110468 0.02154,0.230439 0.132012,0.268036 z m -0.499742,1.471768 c 0.02239,0.0076 0.04541,0.0112 0.0678,0.0112 0.08808,0 0.170241,-0.05534 0.200023,-0.143418 0.06611,-0.193898 0.277541,-0.298028 0.471439,-0.232339 0.41441,0.140248 0.8666283,-0.08216 1.0070883,-0.496785 0.0376,-0.110256 -0.02154,-0.230439 -0.132011,-0.268036 -0.11089,-0.03739 -0.230439,0.02175 -0.268036,0.132222 -0.0659,0.19411 -0.2773303,0.29824 -0.4714393,0.23234 -0.413776,-0.139615 -0.866417,0.08237 -1.007088,0.496785 -0.03739,0.110467 0.02175,0.230439 0.132223,0.268036 z"/>
</svg>
