<svg role="img" focusable="false" aria-hidden="true" xmlns="http://www.w3.org/2000/svg" viewBox="0 0 14 14" height="1em" width="1em">
  <path d="m 6.6644266,12.993534 c -1.2522,-0.071 -2.4346,-0.5241 -3.4161,-1.3086 -0.6756,-0.54 -1.2416,-1.2436 -1.6266,-2.0222004 -0.5218,-1.0551 -0.71939998,-2.2237 -0.5762,-3.4063 0.091,-0.7547 0.3351,-1.5047 0.7037,-2.166 0.5195,-0.932 1.2664,-1.7042 2.1745,-2.2483 0.7492,-0.4488 1.6014,-0.7303 2.4675,-0.8151 0.2349,-0.023 0.3247,-0.027 0.6034,-0.027 0.2806,-1.0003e-4 0.3831,0 0.6094,0.027 0.9853,0.099 1.904,0.4276 2.7243004,0.9747 1.439,0.9596 2.3915,2.487 2.6215,4.2036 0.039,0.2942 0.054,0.5652 0.049,0.8951 0,0.2333 -0.01,0.3103 -0.025,0.4897 -0.1379,1.3846 -0.7482,2.6738004 -1.729,3.6527004 -1.0138,1.0117 -2.3326004,1.6229 -3.7521004,1.7389 -0.2237,0.018 -0.6156,0.024 -0.8285,0.012 z m 0.6844,-1.3426 c 0.7938,-0.058 1.5737,-0.3272 2.2373,-0.7732 0.1374,-0.092 0.2083,-0.1438 0.2088,-0.1516 3e-4,0 -5.4827,-5.4934004 -6.2801,-6.2862004 l -0.2438,-0.2425 -0.051,0.071 c -0.5267,0.7342 -0.8192,1.5538 -0.8757,2.4533 -0.01,0.1631 0,0.545 0.012,0.7029 0.021,0.2134 0.048,0.3855 0.091,0.5824 0.1895,0.862 0.6368,1.671 1.2724,2.3017004 0.6007,0.596 1.3419,1.0133 2.1639,1.2183 0.4701,0.1173 0.9709,0.1595 1.4649,0.1236 z m -4.3001,-3.9512004 0,-0.5362 1.555,0 1.5549,0 0.5373,0.5377 0.5373,0.5377 -2.0938,0 -2.0938,0 0,-0.5362 z m 7.7352004,2.0216 c 0.027,-0.034 0.1816,-0.2705 0.225,-0.3439 0.2945,-0.4977 0.4903,-1.0266 0.587,-1.5861 0.045,-0.2585 0.061,-0.4384 0.065,-0.7303 0,-0.3089 -0.01,-0.4851 -0.047,-0.7566 -0.1448,-0.9799 -0.6113,-1.8994 -1.3227,-2.6074 -0.7810004,-0.7772 -1.7785004,-1.2425 -2.8854004,-1.346 -0.2274,-0.021 -0.6033,-0.018 -0.8645,0.01 -0.7962,0.076 -1.5793,0.369 -2.2384,0.8366 l -0.038,0.027 3.253,3.2553 c 1.7892,1.7904 3.2541004,3.2552 3.2554004,3.2552 0,0 0.01,0 0.011,-0.011 z m -1.9567004,-2.0186 c -0.293,-0.2933 -0.5328,-0.5352 -0.5328,-0.5377 0,0 0.3316,0 0.7369,0 l 0.737,0 0,0.5362 0,0.5362 -0.2056,0 -0.2057,0 -0.5328,-0.5332 z m 1.1437,-0.012 0,-0.5452 0.1786004,0 0.1786,0 0,0.5468 0,0.5468 -0.1801,0 -0.1802004,0 0,-0.5452 z m 0.5508004,0 0,-0.5467 0.1831,0 0.1832,0 0,0.5467 0,0.5467 -0.1832,0 -0.1831,0 0,-0.5467 z m -0.5523004,-0.9872 c 0,-0.2232 0,-0.2825 -0.01,-0.3289 -0.033,-0.1918 -0.1339,-0.3125 -0.3107,-0.3712 -0.1198,-0.04 -0.096,-0.038 -0.7663,-0.043 -0.664,0 -0.6352,0 -0.7473,-0.04 -0.1181,-0.039 -0.2139,-0.099 -0.3065,-0.1913 -0.2058,-0.2058 -0.293,-0.4931 -0.2521,-0.8298 l 0,-0.037 -0.038,0 c -0.021,0 -0.073,-0.013 -0.1166,-0.024 -0.3268,-0.084 -0.582,-0.2862 -0.7285,-0.5779 -0.1196,-0.2381 -0.1411,-0.54 -0.058,-0.8141 0.094,-0.3121 0.3134,-0.5589 0.5951,-0.6712 0.1077,-0.043 0.275,-0.079 0.3692,-0.079 l 0.03,0 0,0.1832 0,0.1833 -0.027,0 c -0.037,0 -0.1427,0.021 -0.1949,0.039 -0.1397,0.048 -0.2414,0.1259 -0.3273,0.252 -0.1286,0.1889 -0.1639,0.4369 -0.093,0.6541 0.031,0.096 0.091,0.1972 0.1607,0.2707 0.033,0.034 0.1121,0.095 0.1614,0.1229 0.131,0.074 0.2847,0.1099 0.4697,0.1101 0.1088,10e-5 0.1378,0.01 0.1792,0.044 0.043,0.039 0.064,0.084 0.064,0.1379 0,0.038 0,0.048 -0.031,0.1082 -0.05,0.1063 -0.058,0.142 -0.058,0.2733 10e-5,0.104 0,0.1147 0.016,0.165 0.046,0.1499 0.1299,0.259 0.2409,0.3127 0.091,0.044 0.048,0.041 0.7115,0.045 0.5274,0 0.6047,0 0.6604,0.014 0.2361,0.039 0.3926,0.1129 0.5284004,0.2496 0.089,0.09 0.1425,0.1749 0.1853,0.2966 0.044,0.124 0.044,0.1341 0.047,0.4954 l 0,0.3259 -0.1805,0 -0.1805004,0 0,-0.2723 z m 0.5531004,-0.1107 c 0,-0.4 8e-4,-0.421 -0.025,-0.5512 -0.028,-0.139 -0.1013,-0.3171 -0.1795,-0.4356 -0.1647,-0.2494 -0.4103004,-0.4203 -0.6855004,-0.477 -0.1068,-0.022 -0.131,-0.023 -0.5032,-0.027 l -0.3752,0 -0.032,-0.018 c -0.038,-0.021 -0.058,-0.043 -0.077,-0.085 -0.034,-0.074 -0.026,-0.1181 0.041,-0.2205 0.108,-0.1655 0.1664,-0.3257 0.1784,-0.4895 0.024,-0.3327 -0.1432,-0.6324 -0.4352,-0.7784 -0.099,-0.049 -0.2551,-0.091 -0.3718,-0.098 l -0.057,0 0,-0.1823 0,-0.1824 0.039,0 c 0.1709,0 0.3782,0.052 0.5521,0.1395 0.1279,0.064 0.2223,0.1339 0.3242,0.2398 0.1166,0.1212 0.1855,0.2287 0.2396,0.3736 0.051,0.1377 0.07,0.2355 0.074,0.3925 0,0.179 -0.011,0.2912 -0.064,0.4437 -0.016,0.046 -0.031,0.088 -0.033,0.094 0,0.01 0.014,0.01 0.1807,0.013 0.3328,0.01 0.5047,0.041 0.7284004,0.1476 0.1731,0.083 0.3608,0.2323 0.4855,0.387 0.1491,0.1849 0.2603,0.4094 0.3164,0.6382 0.041,0.1666 0.041,0.1629 0.043,0.6353 l 0,0.4311 -0.184,0 -0.1839,0 0,-0.383 z"/>
</svg>
