<svg role="img" focusable="false" aria-hidden="true" xmlns="http://www.w3.org/2000/svg" viewBox="0 0 14 14" height="1em" width="1em">
  <path d="m 1.000001,10.412203 0,-0.8293197 5.133493,0.006 5.133492,0.006 0.0073,0.7887297 c 0.0067,0.71859 0.0032,0.79175 -0.03937,0.82287 -0.03702,0.0262 -1.096802,0.034 -5.140739,0.0337 l -5.094108,-4e-4 0,-0.82932 z m 10.592072,0.76833 c -0.0073,-0.0174 -0.0099,-0.3891 -0.0058,-0.82269 l 0.0073,-0.7884197 0.258387,0 0.258387,0 0.0073,0.8227297 0.0073,0.82273 -0.259637,0 c -0.183948,0 -0.263472,-0.009 -0.272799,-0.0343 z m 0.864396,-0.78838 0.0073,-0.8227297 0.265186,-0.009 0.265187,-0.009 0,0.8305097 0,0.83052 -0.272363,0 -0.272363,0 0.0073,-0.82273 z M 11.597887,9.2657433 c -0.0099,-0.009 -0.01801,-0.19903 -0.01801,-0.42022 0,-0.22111 -0.01308,-0.46329 -0.02917,-0.53805 -0.03399,-0.15864 -0.15315,-0.33535 -0.277651,-0.412 -0.215357,-0.13278 -0.298977,-0.14208 -1.394563,-0.15922 l -1.035023,-0.0174 -0.206378,-0.10198 c -0.47194,-0.23331 -0.753761,-0.74311 -0.722349,-1.30655 0.0076,-0.1354 0.0011,-0.21879 -0.01772,-0.2307 -0.01627,-0.0116 -0.113082,-0.0401 -0.215153,-0.0662 -0.75041,-0.19177 -1.268879,-0.83987 -1.268603,-1.58554 2.96e-4,-0.80076 0.52514,-1.48248 1.259177,-1.63555 0.104977,-0.0232 0.222389,-0.036 0.260945,-0.0317 0.06901,0.009 0.07017,0.0116 0.0779,0.26005 0.0078,0.24929 0.007,0.2522 -0.06296,0.27864 -0.03893,0.0145 -0.09399,0.0261 -0.12238,0.0261 -0.119853,0 -0.359651,0.11913 -0.502155,0.2493 -0.265041,0.24232 -0.409596,0.66339 -0.345669,1.00714 0.107969,0.58061 0.590093,0.94481 1.252455,0.94615 0.190834,3.8e-4 0.204083,0.006 0.29237,0.093 0.106836,0.10692 0.116773,0.18827 0.04123,0.33698 -0.173866,0.34232 -0.116104,0.77859 0.137228,1.03642 0.174418,0.17753 0.176277,0.17782 1.301072,0.19583 1.099589,0.0174 1.150247,0.0233 1.465094,0.17753 0.189469,0.0927 0.410189,0.30906 0.504188,0.49455 0.125838,0.24842 0.152104,0.40994 0.152104,0.9354 l 0,0.48386 -0.253855,0 c -0.13961,0 -0.26199,-0.009 -0.271985,-0.0174 z m 0.839667,-0.043 c -0.0076,-0.0337 -0.01743,-0.34881 -0.02237,-0.70035 -0.0084,-0.60832 -0.0122,-0.64961 -0.08147,-0.85672 -0.158205,-0.47328 -0.47096,-0.84974 -0.868894,-1.0459 -0.315492,-0.15544 -0.53775,-0.19147 -1.180778,-0.19147 -0.586966,0 -0.655847,-0.0145 -0.716523,-0.16213 -0.0455,-0.10982 -0.02441,-0.19961 0.09271,-0.39401 0.181159,-0.30087 0.217013,-0.42836 0.218378,-0.77659 0.0012,-0.30569 -0.001,-0.31754 -0.09937,-0.52346 -0.184355,-0.38605 -0.528258,-0.63299 -0.987286,-0.70894 l -0.217564,-0.036 0,-0.25656 0,-0.25655 0.13069,-0.009 c 0.179125,-0.0116 0.534963,0.0822 0.780406,0.20513 0.243541,0.12203 0.568293,0.41929 0.703789,0.64401 0.270329,0.44829 0.334544,1.03694 0.166399,1.52568 -0.02943,0.0854 -0.04687,0.16649 -0.0387,0.17956 0.0081,0.0145 0.147658,0.0233 0.310007,0.0233 0.16236,0 0.386242,0.0174 0.497549,0.0386 0.867438,0.1659 1.539458,0.81619 1.779532,1.72181 0.0645,0.24348 0.07151,0.32341 0.08316,0.9524 l 0.01278,0.68674 -0.274455,0 c -0.262484,0 -0.275036,-0.003 -0.288024,-0.0613 z"/>
</svg>
