<svg class="social-skype" role="img" focusable="false" aria-hidden="true" xmlns="http://www.w3.org/2000/svg" viewBox="0 0 14 14" height="1em" width="1em">
  <path d="m 12.508201,7.98131 c 0.05586,-0.31747 0.08671,-0.64351 0.08671,-0.97701 0,-3.09239 -2.506952,-5.59925 -5.5993695,-5.59925 -0.352369,0 -0.69667,0.0341 -1.03101,0.0964 -0.494534,-0.30111 -1.075252,-0.47452 -1.69666,-0.47452 -1.804893,0 -3.267874,1.46295 -3.267874,3.26784 0,0.62904 0.178136,1.21619 0.486,1.71472 -0.05796,0.32312 -0.08982,0.65508 -0.08982,0.99486 0,3.09254 2.506864,5.59949 5.599369,5.59949 0.358893,0 0.709339,-0.0352 1.04933,-0.0997 0.492611,0.29758 1.069806,0.46893 1.68731,0.46893 1.8047765,0 3.2678155,-1.46307 3.2678155,-3.26793 0,-0.63289 -0.180437,-1.22336 -0.491796,-1.72381 z m -5.3153305,2.94102 c -1.59469,0 -3.197505,-0.72297 -3.189379,-1.96768 0.0025,-0.37546 0.282932,-0.72014 0.655893,-0.72014 0.938796,0 0.930233,1.39532 2.425282,1.39532 1.049213,0 1.407116,-0.57228 1.407116,-0.97095 0,-1.44038 -4.533699,-0.55733 -4.533699,-3.26654 0,-1.46607 1.204515,-2.47753 3.09769,-2.3663 1.805679,0.10608 2.863514,0.90023 2.9661265,1.64211 0.05053,0.48442 -0.2718645,0.86138 -0.8312915,0.86138 -0.816641,0 -0.900233,-1.08886 -2.30633,-1.08886 -0.634486,0 -1.170321,0.26365 -1.170321,0.83592 0,1.19598 4.5069325,0.50156 4.5069325,3.13363 -2.9e-5,1.51754 -1.2147095,2.51211 -3.0280195,2.51211 z"/>
</svg>
