<svg class="social-discord" role="img" focusable="false" aria-hidden="true" xmlns="http://www.w3.org/2000/svg" viewBox="0 0 14 14" height="1em" width="1em">
  <path d="m 8.716,6.7 c 0,0.366 -0.27,0.666 -0.612,0.666 -0.336,0 -0.612,-0.3 -0.612,-0.666 0,-0.366 0.27,-0.666 0.612,-0.666 0.342,0 0.612,0.3 0.612,0.666 z M 5.914,6.034 c -0.342,0 -0.612,0.3 -0.612,0.666 0,0.366 0.276,0.666 0.612,0.666 0.342,0 0.612,-0.3 0.612,-0.666 C 6.532,6.334 6.256,6.034 5.914,6.034 Z M 12.25,2.236 12.25,13 C 10.738422,11.6642 11.221844,12.10638 9.466,10.474 l 0.318,1.11 -6.804,0 c -0.678,0 -1.23,-0.552 -1.23,-1.236 l 0,-8.112 C 1.75,1.552 2.302,1 2.98,1 l 8.04,0 c 0.678,0 1.23,0.552 1.23,1.236 z M 10.54,7.924 C 10.54,5.992 9.676,4.426 9.676,4.426 8.812,3.778 7.99,3.796 7.99,3.796 L 7.906,3.892 C 8.926,4.204 9.4,4.654 9.4,4.654 7.9747422,3.87285 6.3005312,3.87271 4.918,4.48 4.696,4.582 4.564,4.654 4.564,4.654 c 0,0 0.498,-0.474 1.578,-0.786 L 6.082,3.796 c 0,0 -0.822,-0.018 -1.686,0.63 0,0 -0.864,1.566 -0.864,3.498 0,0 0.504,0.87 1.83,0.912 0,0 0.222,-0.27 0.402,-0.498 C 5.002,8.11 4.714,7.63 4.714,7.63 4.802266,7.6918 4.9478125,7.77187 4.96,7.78 5.9727344,8.34714 7.4112812,8.53295 8.704,7.99 8.914,7.912 9.148,7.798 9.394,7.636 c 0,0 -0.3,0.492 -1.086,0.714 0.18,0.228 0.396,0.486 0.396,0.486 C 10.03,8.794 10.54,7.924 10.54,7.924 Z"/>
</svg>
