<svg class="social-gravatar" aria-hidden="true" xmlns="http://www.w3.org/2000/svg" viewBox="0 0 14 14" height="1em" width="1em">
  <path d="M6.72 12.994a6.057 6.057 0 0 1-.988-.13 6.11 6.11 0 0 1-.78-.23 6.584 6.584 0 0 1-1.027-.496 5.797 5.797 0 0 1-1.72-1.562 6.293 6.293 0 0 1-.73-1.312 5.976 5.976 0 0 1-.446-2.277c0-.427.048-.888.134-1.282.01-.031.015-.071.019-.09 0-.017.018-.076.032-.13a6.005 6.005 0 0 1 1.363-2.532c.096-.107.224-.234.276-.275.22-.175.45-.26.734-.27.217-.01.427.038.607.132.214.113.393.296.502.513.084.167.122.334.123.537 0 .243-.053.444-.176.649a1.45 1.45 0 0 1-.222.273A3.554 3.554 0 0 0 3.416 6.76a3.595 3.595 0 0 0 .131 1.226c.01.019.025.082.044.138a3.515 3.515 0 0 0 2.054 2.195c.346.14.687.22 1.074.251.112.01.453.01.573 0a3.528 3.528 0 0 0 1.32-.367 3.558 3.558 0 0 0 1.545-1.493 3.48 3.48 0 0 0 .424-1.462c.01-.087.01-.418 0-.51a3.492 3.492 0 0 0-.465-1.536s-.086-.141-.115-.186a4.175 4.175 0 0 0-.36-.464 3.5 3.5 0 0 0-1.364-.926l-.088-.034v2.896a1.153 1.153 0 0 1-.445.835 1.189 1.189 0 0 1-.915.25 1.154 1.154 0 0 1-.787-.47 1.136 1.136 0 0 1-.226-.643c-.01-.112-.01-4.225 0-4.337.017-.304.126-.552.335-.769.162-.167.355-.278.566-.326A1.27 1.27 0 0 1 7.059 1a5.77 5.77 0 0 1 1.937.344c.022.01.049.018.06.022a6.222 6.222 0 0 1 1.212.607 5.829 5.829 0 0 1 2.078 2.36 5.836 5.836 0 0 1 .593 2.023 6.04 6.04 0 0 1-.167 2.173c-.08.304-.196.628-.327.918-.06.132-.147.311-.195.399-.01.016-.025.046-.036.067a6.235 6.235 0 0 1-.69 1.008 6.768 6.768 0 0 1-.484.502c-.18.166-.414.352-.61.487-.462.32-.987.587-1.508.768A5.812 5.812 0 0 1 6.97 13h-.248z"/>
</svg>
