<svg class="social-flickr" role="img" focusable="false" aria-hidden="true" xmlns="http://www.w3.org/2000/svg" viewBox="0 0 14 14" height="1em" width="1em">
  <path d="m 9.829561,3.829575 c -1.235968,0 -2.306587,0.70724 -2.829576,1.73907 C 6.476996,4.536845 5.406378,3.829575 4.170439,3.829575 2.419463,3.829575 1,5.248985 1,7.000015 c 0,1.75092 1.419463,3.17041 3.170468,3.17041 1.235939,0 2.306558,-0.70727 2.829547,-1.73906 0.522989,1.03179 1.593607,1.73906 2.829575,1.73906 1.750947,0 3.17041,-1.41946 3.17041,-3.17041 -2.9e-5,-1.75103 -1.419463,-3.17044 -3.170439,-3.17044 z m 0,5.49538 c -1.281987,0 -2.324994,-1.04298 -2.324994,-2.32494 0,-1.28196 1.043036,-2.32497 2.324994,-2.32497 1.281929,0 2.324907,1.04301 2.324907,2.32497 2.9e-5,1.28199 -1.042978,2.32494 -2.324907,2.32494 z"/>
</svg>
