<svg class="social-vine" role="img" focusable="false" aria-hidden="true" xmlns="http://www.w3.org/2000/svg" viewBox="0 0 14 14" height="1em" width="1em">
  <path d="m 6.0669672,6.164125 c 0.2816977,0 0.4756816,-0.21246 0.4756816,-0.48496 0,-0.2725 -0.1939839,-0.48034 -0.4756816,-0.48034 -0.2817386,0 -0.4711041,0.18936 -0.4711041,0.48034 0,0.29097 0.1893655,0.48496 0.4711041,0.48496 m 5.9545768,0.98839 c 0.203303,0 0.299471,0.10833 0.299471,0.24228 0,0.17748 -0.165283,0.47832 -0.947858,0.48727 0.03093,-0.42946 0.312915,-0.72955 0.648387,-0.72955 l 0,0 z m -0.575891,1.17991 C 12.338335,8.356135 13,8.016995 13,7.353225 c 0,-0.48962 -0.377906,-0.84728 -0.973796,-0.84728 -0.799071,0 -1.214751,0.61424 -1.380982,1.27009 -0.09695,0.38335 -0.244748,0.88679 -0.540343,0.88679 -0.184788,0 -0.2355933,-0.18475 -0.2355933,-0.41568 l 0,-0.77132 c 0,-0.63276 -0.3094509,-0.96988 -0.7944109,-0.96988 -0.4295363,0 -0.7617915,0.2586 -0.9511157,0.57263 l -0.018475,-0.5311 -0.6234788,0 c 0,0 -0.069115,2.11535 -0.7667402,2.11535 -0.2401707,0 -0.318688,-0.27279 -0.318688,-0.58196 l 0,-1.53339 -0.6096229,0 c -0.3233068,0.36487 -0.7570905,0.47572 -1.0804385,0.47572 -0.5819521,0 -1.0299628,-0.40644 -1.0299628,-1.11314 0,-0.34636 0.1339413,-0.52649 0.3233068,-0.52649 0.1801279,0 0.3002133,0.16166 0.3002133,0.48958 0,0.18644 -0.049939,0.39077 -0.086765,0.51168 0,0 0.1793445,0.31284 0.6696655,0.21683 0.1041262,-0.23118 0.1607462,-0.53052 0.1607462,-0.79317 0,-0.70666 -0.3602974,-1.11772 -1.0207668,-1.11772 -0.6789442,0 -1.0761497,0.52191 -1.0761497,1.21013 0,0.68175 0.3187294,1.26696 0.8442265,1.53361 C 3.5698761,7.876575 3.2886321,8.265945 2.9954292,8.559355 2.4633751,7.916165 1.9823326,7.058085 1.784967,5.383565 L 1,5.383565 c 0.3626479,2.78885 1.4434574,3.67683 1.7291963,3.84735 0.1616533,0.097 0.3008732,0.0924 0.4486706,0.009 0.2320468,-0.13192 0.9286821,-0.82852 1.3148769,-1.64445 0.3465238,-9.1e-4 0.8421646,-0.0827 1.1600691,-0.32319 l 0,0.79454 c 0,0.89602 0.3417816,1.24242 0.8728872,1.24242 0.4260719,0 0.7549871,-0.33213 0.9144548,-0.70476 l 0,0.65395 0.7344095,0 0,-0.77135 c 0,-0.88213 0.2952647,-1.31166 0.6647995,-1.31166 0.2077989,0 0.2955948,0.13856 0.2955948,0.48957 l 0,0.70204 c 0,0.59581 0.3140281,0.94221 0.7851323,0.94221 0.387102,0 0.734574,-0.30195 0.87132,-0.68381 0.233408,0.48257 0.770781,0.68381 1.239411,0.68381 0.35407,0 0.642655,-0.0735 0.867526,-0.20743 l 0,-0.66966 c -0.190231,0.12953 -0.424959,0.23971 -0.765874,0.23971 -0.325162,0 -0.570199,-0.10301 -0.686821,-0.33963 l 0,0 z"/>
</svg>
