<svg class="social-dribble" aria-hidden="true" xmlns="http://www.w3.org/2000/svg" viewBox="0 0 14 14" height="1em" width="1em">
  <path d="M7 1a6 6 0 1 0 0 12A6 6 0 0 0 7 1Zm4.942 5.72c-1.287-.21-2.471-.222-3.55-.036a21.26 21.26 0 0 0-.384-.84c1.154-.5 2.082-1.18 2.774-2.04a4.93 4.93 0 0 1 1.16 2.917zm-1.92-3.64c-.603.776-1.434 1.39-2.494 1.84A23.088 23.088 0 0 0 5.784 2.2c.39-.098.796-.157 1.216-.157 1.138 0 2.184.39 3.021 1.037zm-5.258-.497a22.232 22.232 0 0 1 1.768 2.69c-1.215.358-2.666.542-4.342.553a4.969 4.969 0 0 1 2.574-3.243ZM2.044 7c0-.043.005-.085.006-.128 1.924-.003 3.584-.224 4.975-.661.117.237.228.476.335.716-1.69.528-3.083 1.61-4.169 3.24A4.933 4.933 0 0 1 2.043 7Zm1.914 3.905C4.943 9.36 6.2 8.355 7.757 7.89a19.57 19.57 0 0 1 1.021 3.73A4.924 4.924 0 0 1 7 11.957a4.926 4.926 0 0 1-3.042-1.052zm5.793.215a20.58 20.58 0 0 0-.96-3.449c.938-.132 1.97-.098 3.1.099a4.96 4.96 0 0 1-2.14 3.35z"/>
</svg>
