<svg class="social-periscope" role="img" focusable="false" aria-hidden="true" xmlns="http://www.w3.org/2000/svg" viewBox="0 0 14 14" height="1em" width="1em">
  <path d="M 7 1 C 4.411797 1 2.3144531 3.0974269 2.3144531 5.6855469 C 2.3144531 9.1701169 6.0612958 13 7 13 C 7.9387867 13 11.685547 9.1701169 11.685547 5.6855469 C 11.685547 3.0974269 9.5882854 1 7 1 z M 7 2.8574219 C 8.5703657 2.8574219 9.84375 4.1308019 9.84375 5.7011719 C 9.84375 7.2715419 8.5703657 8.5449219 7 8.5449219 C 5.4296343 8.5449219 4.15625 7.2715419 4.15625 5.7011719 C 4.15625 5.0786719 4.357959 4.5034362 4.6972656 4.0351562 C 4.7336553 4.6365263 5.2312596 5.1132812 5.8417969 5.1132812 C 6.4760164 5.1132812 6.9902344 4.5990637 6.9902344 3.9648438 C 6.9902344 3.5117437 6.7268454 3.1224469 6.3457031 2.9355469 C 6.5558719 2.8859469 6.7746483 2.8574219 7 2.8574219 z"/>
</svg>
