<svg aria-hidden="true" xmlns="http://www.w3.org/2000/svg" viewBox="0 0 14 14" height="1em" width="1em">
  <path d="M10.412 12.949c-.268-.122-.365-.447-.343-1.143.015-.445.096-1.192.136-1.237.016-.018 1.754.2 1.789.224.018.013-.237.712-.368 1.008-.27.61-.562 1.026-.804 1.144a.409.409 0 0 1-.41 0zm.82-2.854c-.603-.085-.929-.144-.937-.166a1.028 1.028 0 0 1 .022-.235c.031-.181.04-.198.096-.186.034.01.46.067.946.133.486.066.893.128.905.137.017.015-.072.425-.097.442-.005 0-.426-.053-.935-.125zm.198-1.036a35.757 35.757 0 0 1-.993-.149 6.87 6.87 0 0 1 .041-.49c.07-.664.072-1.814.003-2.249-.272-1.721-1.123-2.533-2.933-2.797-.396-.058-1.513-.084-2.038-.05a4.767 4.767 0 0 1-.38.019c-.01-.01-.2-1.99-.192-2 .008-.011.71-.118 1.071-.163 2.306-.287 4.457-.227 5.6.155.746.25 1.03.6 1.215 1.497.107.523.133.874.131 1.798-.002 1.1-.08 2.019-.273 3.21-.063.392-.246 1.344-.259 1.353-.005 0-.451-.058-.993-.135zM1.608 3.518c-.377-.096-.563-.272-.563-.531 0-.304.451-.665 1.205-.965.216-.085 1.053-.35 1.066-.337.004 0 .043.413.088.91l.082.904-.115.016c-.063.01-.449.022-.857.03-.596.013-.774.01-.906-.026zm2.461-.085-.086-.946a23.519 23.519 0 0 1-.077-.942 2.53 2.53 0 0 1 .44-.086c.025.026.183 1.91.16 1.93-.026.023-.437.065-.437.044z"/>
</svg>
