<svg role="img" focusable="false" aria-hidden="true" xmlns="http://www.w3.org/2000/svg" viewBox="0 0 14 14" height="1em" width="1em">
  <path d="m 10.411964,12.948938 c -0.2678,-0.1216 -0.36533,-0.4468 -0.34283,-1.1429 0.0144,-0.4446 0.0963,-1.1918 0.13551,-1.2367 0.0161,-0.018 1.75484,0.1992 1.78933,0.224 0.0179,0.013 -0.23736,0.712 -0.36787,1.0078 -0.2692,0.61 -0.56195,1.0263 -0.80417,1.1436 -0.15164,0.073 -0.25515,0.074 -0.40997,0 z m 0.82039,-2.8543 c -0.60316,-0.085 -0.92933,-0.1432995 -0.93691,-0.1660995 -0.006,-0.019 0.003,-0.1246 0.022,-0.2341 0.0307,-0.1818 0.039,-0.1981 0.0952,-0.1862 0.0339,0.01 0.45965,0.067 0.94611,0.1332 0.48646,0.066 0.89361,0.1277 0.90478,0.1369 0.0177,0.015 -0.072,0.4248995 -0.0966,0.4412995 -0.005,0 -0.42569,-0.053 -0.93459,-0.125 z m 0.19772,-1.0357995 c -0.54138,-0.077 -0.98838,-0.1442 -0.99333,-0.1488 -0.005,0 0.0138,-0.2248 0.0417,-0.4892 0.0701,-0.6651 0.0715,-1.8151 0.003,-2.2498 -0.27264,-1.7215 -1.1235897,-2.533 -2.9332197,-2.7972 -0.39611,-0.058 -1.51355,-0.084 -2.03807,-0.049 -0.204,0.014 -0.37533,0.022 -0.38074,0.018 -0.01,-0.01 -0.19983,-1.9891 -0.19161,-2.0003 0.008,-0.011 0.70957,-0.1177 1.07165,-0.1628 2.30529,-0.28660004 4.4563297,-0.22690004 5.5995397,0.1555 0.74628,0.2496 1.03004,0.5993 1.21472,1.497 0.1075,0.5226 0.13321,0.8738 0.13158,1.7975 -0.002,1.1 -0.0801,2.019 -0.27303,3.2098 -0.0635,0.3922 -0.24595,1.3449 -0.25917,1.3536 -0.005,0 -0.45128,-0.058 -0.99267,-0.1349 z m -9.8216597,-5.5408 c -0.37738,-0.096 -0.56378,-0.2719 -0.56378,-0.5312 0,-0.3039 0.45134,-0.665 1.20554,-0.9644 0.21559,-0.085 1.05257,-0.3507 1.06535,-0.3374 0.004,0 0.0433,0.4131 0.0885,0.9101 l 0.082,0.9034 -0.11511,0.016 c -0.0633,0.01 -0.44892,0.022 -0.85692,0.031 -0.59551,0.012 -0.77412,0.01 -0.90559,-0.027 z m 2.46055,-0.085 c 0,-0.01 -0.0387,-0.4331 -0.0859,-0.9462 -0.0472,-0.513 -0.0818,-0.9369 -0.0769,-0.9418 0.0168,-0.017 0.42794,-0.097 0.43925,-0.086 0.0258,0.026 0.18316,1.9094 0.16121,1.9294 -0.0265,0.024 -0.43771,0.066 -0.43771,0.045 z"/>
</svg>
