<svg aria-hidden="true" xmlns="http://www.w3.org/2000/svg" viewBox="0 0 14 14" height="1em" width="1em">
  <path d="M2.203 11.996c-.01-.01-.02-2.147-.02-4.748 0-4.69 0-4.728-.056-4.784-.053-.051-.094-.055-.592-.055H1v-.424l.796.01.796.01v10l-.185.01c-.101 0-.193 0-.204-.012zm3.21-.395c-.01-.011-.019-.283-.019-.606v-.587h6.03l-.008.599-.008.598h-.394l-.008-.401-.008-.402h-.392v.817h-.395v-.817h-.393l-.007.402-.008.401h-.394l-.008-.401-.008-.402H9v.817h-.394v-.817h-.393l-.008.402-.008.401h-.394l-.008-.401-.008-.402h-.392v.817H7v-.817h-.393l-.007.402-.008.401-.19.01-.19.01v-.82h-.423v.818H5.61a.676.676 0 0 1-.198-.02zM1 9.802v-.21h.789v.422H1v-.211Zm2-3.197V3.197h10v6.817H3V6.605zm.745 2.924c.067-.096.055-.206-.03-.274a.27.27 0 0 0-.129-.058c-.077 0-.192.126-.192.21 0 .167.257.256.35.122zm6.593-.017c.552-.156.933-.369 1.317-.735.975-.928 1.222-2.313.628-3.51-.812-1.634-2.839-2.167-4.374-1.15-.554.368-1.02 1.024-1.206 1.7a3.209 3.209 0 0 0 .05 1.73c.332.967 1.135 1.715 2.102 1.958.33.082.327.082.821.072.355-.01.511-.022.662-.064zM9.254 9.18c-.712-.131-1.22-.41-1.639-.903a2.618 2.618 0 0 1-.38-2.753 2.59 2.59 0 0 1 2.62-1.508c.356.036.555.093.882.252.535.259.931.655 1.193 1.192.186.382.26.7.262 1.117.001.49-.091.87-.307 1.263a2.615 2.615 0 0 1-1.581 1.26c-.198.058-.322.075-.614.083-.201.01-.398 0-.436 0zm.534-.409c.381-.082.539-.49.398-1.033a2.576 2.576 0 0 1-.06-.266c0-.02.04-.061.087-.092a.968.968 0 0 0 .187-.193c.093-.124.11-.135.189-.119.117.023.322.166.588.408.194.176.232.2.33.2.229 0 .29-.165.29-.79 0-.378-.009-.457-.057-.567-.134-.302-.53-.408-1.036-.275l-.221.058-.112-.131a1.212 1.212 0 0 0-.22-.2c-.06-.037-.109-.09-.109-.115 0-.102.128-.3.368-.572.209-.236.252-.301.252-.378 0-.233-.178-.301-.781-.301-.546 0-.68.046-.817.28-.108.183-.121.498-.036.815l.063.232-.143.128a1.36 1.36 0 0 0-.202.225c-.051.083-.072.095-.136.08-.132-.03-.302-.145-.542-.365-.275-.252-.33-.28-.459-.226-.168.07-.2.185-.2.736 0 .61.04.723.31.869.15.08.588.083.853.01l.178-.053.085.103c.047.057.141.142.21.19.109.074.122.094.107.161-.03.132-.143.3-.344.515-.107.115-.215.25-.241.3-.042.081-.042.102-.007.188.046.11.109.15.28.184.175.035.784.034.948 0zm-.675-.376c0-.011.055-.085.122-.166.185-.219.272-.385.272-.52 0-.116.002-.118.1-.118.082 0 .104.013.129.077.067.174.115.43.098.521-.033.175-.057.187-.404.208-.175.01-.317.01-.317 0zm.352-1.224c-.295-.073-.437-.262-.437-.58 0-.203.036-.297.16-.414a.624.624 0 0 1 .822-.014c.15.138.21.405.145.641a.64.64 0 0 1-.28.32.775.775 0 0 1-.41.047zm.262-.426c.074-.07.082-.212.015-.286-.072-.08-.218-.067-.29.025-.147.186.103.422.275.261zm1.507.242c-.224-.186-.383-.27-.514-.27-.114 0-.114 0-.114-.109v-.11l.22-.059c.25-.067.326-.072.45-.029.074.026.09.05.105.148.01.065.013.215.008.335l-.009.216-.146-.121zm-3.31-.159c-.042-.016-.082-.05-.09-.077a2.29 2.29 0 0 1-.03-.548l.019-.075.13.11c.15.126.393.247.547.272.1.016.106.023.106.122 0 .105 0 .105-.176.154-.23.064-.411.079-.506.042zm1.518-1.387c-.07-.221-.087-.393-.05-.505.04-.119.091-.134.459-.134h.252l-.094.115c-.167.203-.304.433-.304.51-.001.128-.029.164-.125.164-.085 0-.094-.01-.138-.15zm3.107 4.094c.114-.114.053-.282-.118-.325-.06-.015-.092 0-.148.053-.131.132-.056.328.125.328.047 0 .11-.025.141-.056zM5.338 9.14c.041-.04.056-.094.056-.197v-.14h.395v-.395h-.395v-.394h.395v-.422h-.395v-.14c0-.116-.012-.148-.074-.197-.068-.054-.111-.058-.523-.058-.247 0-.472.012-.5.028-.06.032-.114.17-.114.287v.08H3.79v.422h.394v.394H3.79v.395h.394V8.9c0 .092.006.097.106.105.096.01.106.017.114.1l.009.093h.435c.397 0 .44 0 .491-.056zm-.732-.943V7.59H5v1.212h-.394v-.605zm.732-2.268c.041-.04.056-.094.056-.197v-.14h.395v-.395h-.395v-.395h.395v-.391l-.19-.01-.19-.01-.015-.148c-.024-.235-.045-.245-.529-.256-.495-.011-.607.013-.651.14a.669.669 0 0 0-.03.183v.094h-.395V4.8h.394v.394H3.79v.394h.394v.097c0 .092.006.097.106.106.096.01.106.017.114.1l.009.092h.435c.397 0 .44 0 .491-.056zM4.606 5v-.59H5v1.18h-.394V5zm-.874-1.07c.116-.116.02-.338-.146-.338-.075 0-.192.125-.192.205 0 .162.222.25.338.133zm8.817 0a.184.184 0 0 0-.018-.28.267.267 0 0 0-.123-.058.267.267 0 0 0-.123.058c-.143.113-.061.336.123.336.047 0 .11-.025.141-.056zM1.366 8.197v-.634h.423v1.268h-.422v-.634zM1 6.605v-.197h.789v.394H1v-.197Zm.366-2.015v-.635l.204.01.205.01.007.627.008.626h-.424v-.635z"/>
</svg>
