<svg aria-hidden="true" xmlns="http://www.w3.org/2000/svg" viewBox="0 0 14 14" height="1em" width="1em">
  <path d="M5.43 3.279c-.07-.084.036-.516.193-.781.094-.162.415-.49.497-.511.129-.03.183.117.068.19-.289.19-.507.546-.568.923a.57.57 0 0 1-.051.181.092.092 0 0 1-.138 0zm.493.023c-.073-.09.04-.47.202-.683.075-.096.257-.244.304-.244.02 0 .05.028.07.061.04.06.04.06-.105.197a1 1 0 0 0-.298.537.478.478 0 0 1-.037.139c-.033.04-.101.035-.136-.01zm1.552.898c-.054-.054-.028-.118.1-.235a.965.965 0 0 0 .29-.523c.02-.145.088-.199.168-.133.054.042.054.049.026.194-.045.225-.134.39-.307.568-.153.154-.218.187-.277.129zm.3.431a.1.1 0 0 1-.07-.1c0-.022.063-.088.14-.148a1.4 1.4 0 0 0 .495-.85.796.796 0 0 1 .052-.19c.033-.044.129-.037.155.013.028.054-.022.342-.092.527-.129.34-.542.795-.68.748zm3.986 1.477a1.427 1.427 0 0 0-.877-.497c-.15-.024-.202-.054-.202-.117 0-.115.214-.12.521-.014.24.084.406.19.61.391.185.186.234.275.182.338-.056.068-.124.04-.234-.1zm-.406.277a.923.923 0 0 0-.513-.289c-.157-.033-.213-.082-.169-.15.021-.033.059-.042.169-.04.197 0 .455.127.626.3.148.153.173.211.115.275-.021.024-.052.045-.066.045a.77.77 0 0 1-.162-.141zm-.919 1.655a1.122 1.122 0 0 1-.595-.375c-.078-.096-.09-.153-.045-.197.054-.054.117-.026.242.108.138.15.333.255.52.281.136.021.19.087.134.164-.04.06-.085.061-.256.02zm-.023.49a1.502 1.502 0 0 1-.61-.249c-.17-.114-.358-.302-.422-.422-.028-.052-.028-.068.002-.112.057-.08.11-.06.24.1.206.258.54.446.886.495.136.021.173.045.173.12 0 .045-.065.11-.098.1l-.171-.032zM4.338 6.064a1.384 1.384 0 0 0-.882-.465c-.124-.016-.166-.06-.133-.145.026-.07.133-.07.382-.01.286.073.488.192.725.424.187.186.206.214.199.284-.005.063-.019.077-.066.084-.047 0-.094-.033-.225-.176zm-.366.314a.903.903 0 0 0-.513-.284c-.155-.03-.202-.077-.157-.16.047-.09.377-.022.61.125.147.096.323.29.323.363 0 .047-.057.103-.103.103-.007 0-.08-.066-.16-.147zm-.93 1.657a1.142 1.142 0 0 1-.53-.319c-.13-.14-.153-.196-.101-.248.056-.056.124-.028.237.1.129.146.335.26.53.291.159.026.21.096.128.176-.044.045-.098.045-.265 0zm.042.504a1.593 1.593 0 0 1-.994-.562c-.106-.125-.13-.2-.078-.251.052-.051.09-.028.295.18.172.176.237.225.404.305.13.063.262.106.382.124.136.021.192.042.208.073.055.104-.035.155-.217.132zm2.372 2.094c-.028-.054.021-.342.09-.523.1-.265.398-.637.583-.734.061-.03.075-.03.12 0 .08.056.059.113-.08.22a1.403 1.403 0 0 0-.502.833 1.5 1.5 0 0 1-.056.218c-.028.042-.129.035-.155-.014zm.514.047c-.054-.042-.054-.049-.026-.194.042-.216.129-.38.288-.551.148-.158.23-.2.289-.15.063.054.037.117-.101.246a.904.904 0 0 0-.281.52c-.022.141-.09.192-.17.13zm1.54.891c-.023-.024-.04-.054-.04-.066a.84.84 0 0 1 .141-.157.922.922 0 0 0 .288-.513c.033-.158.082-.214.153-.17.098.064.033.395-.13.638-.084.127-.288.31-.344.31-.016 0-.047-.019-.068-.042zm.272.424c-.016 0-.03-.04-.03-.073 0-.049.032-.089.133-.168a1.33 1.33 0 0 0 .476-.774c.042-.22.057-.263.101-.29.131-.085.162.191.056.499a1.58 1.58 0 0 1-.515.731c-.108.087-.155.103-.22.075zm-1.163.964a2.475 2.475 0 0 1-.907-.368 3.206 3.206 0 0 1-.575-.567 2.313 2.313 0 0 1 1.278-3.571c.167-.045.176-.05.172-.11-.017-.214-.305-.608-.55-.755-.133-.08-.41-.188-.43-.17-.006.01-.038.104-.069.214-.032.11-.086.263-.12.338-.215.487-.721.975-1.225 1.181-.322.132-.45.153-.896.15-.378 0-.427 0-.621-.066C1.297 8.813.617 7.318 1.222 6.037c.134-.28.265-.464.495-.686a1.88 1.88 0 0 1 .56-.401 2.31 2.31 0 0 1 3.266 1.458c.044.169.05.176.112.171a.933.933 0 0 0 .258-.1c.143-.07.225-.132.333-.247.143-.15.293-.417.324-.57.014-.067.009-.072-.087-.097a2.314 2.314 0 0 1-1.076-.58 2.275 2.275 0 0 1-.661-1.087c-.047-.172-.054-.249-.052-.608 0-.377.005-.426.066-.619.248-.813.846-1.388 1.674-1.613.27-.073.804-.073 1.092 0 .249.063.596.22.797.366.174.124.465.425.58.6a2.306 2.306 0 0 1-.526 3.121 2.485 2.485 0 0 1-.79.392c-.169.045-.176.049-.171.112.002.037.047.155.1.258.071.143.132.225.245.333.152.142.422.295.57.323.072.014.075.012.1-.087a2.23 2.23 0 0 1 .622-1.114 2.23 2.23 0 0 1 1.078-.633c.134-.035.242-.045.575-.042.377 0 .427 0 .619.066.363.11.682.293.947.54.727.68.933 1.76.511 2.654-.133.281-.218.4-.434.628-.29.3-.588.485-.977.607a2.304 2.304 0 0 1-2.52-.811 2.487 2.487 0 0 1-.392-.79c-.045-.169-.05-.176-.113-.171a.935.935 0 0 0-.258.1c-.143.07-.225.132-.333.247-.143.15-.293.417-.323.57-.014.067-.01.072.087.098a2.366 2.366 0 0 1 1.627 1.357c.14.336.164.465.162.917 0 .378-.005.427-.066.62-.352 1.15-1.468 1.85-2.624 1.64zm.875-.396c.22-.056.6-.249.755-.385.471-.405.698-.893.698-1.49 0-.716-.37-1.351-.987-1.698-.14-.077-.4-.176-.541-.202-.078-.014-.09-.012-.099.037a9.524 9.524 0 0 0-.107 1.266v.204l.091.091a.411.411 0 0 1-.05.647.561.561 0 0 1-.355.054.534.534 0 0 1-.263-.241c-.07-.164-.012-.404.12-.49.056-.038.058-.047.058-.289 0-.389-.077-1.203-.117-1.27-.023-.036-.333.048-.523.145a1.937 1.937 0 0 0-.69 2.917c.14.18.362.38.566.501.148.09.457.202.647.235.176.033.612.014.797-.033zm-3.67-3.679c.219-.06.547-.232.718-.375.3-.246.556-.645.645-1.008.03-.124.033-.164.011-.178-.063-.037-.912-.115-1.296-.117h-.204l-.09.094a.402.402 0 0 1-.571.03.398.398 0 0 1-.139-.324c0-.31.33-.506.61-.363.051.026.11.073.131.105.038.056.047.06.288.06.39 0 1.203-.078 1.271-.118.019-.012.012-.068-.023-.197A1.933 1.933 0 1 0 1.56 7.83c.253.54.715.92 1.29 1.065.224.059.754.052.974-.01zm7.323-.026c.89-.21 1.533-1.076 1.474-1.986a1.87 1.87 0 0 0-.18-.71 1.632 1.632 0 0 0-.378-.544 1.86 1.86 0 0 0-1.374-.57 1.92 1.92 0 0 0-1.742 1.086c-.112.234-.185.504-.143.532.064.038.915.115 1.3.117.203 0 .208 0 .269-.073a.494.494 0 0 1 .321-.162c.108 0 .256.08.328.174a.51.51 0 0 1 .073.375.536.536 0 0 1-.242.263c-.164.07-.403.012-.49-.12-.037-.056-.046-.059-.288-.059-.39 0-1.2.075-1.268.117-.04.024.023.265.13.49.28.594.833 1.006 1.476 1.105.18.026.544.01.734-.035zM6.685 5.161c.03-.136.082-.69.096-1.058l.016-.408-.096-.09a.4.4 0 0 1-.035-.575.397.397 0 0 1 .324-.138c.31 0 .506.33.363.61a.381.381 0 0 1-.105.13c-.057.038-.06.047-.06.3 0 .397.076 1.187.118 1.257.024.04.265-.024.49-.131a1.936 1.936 0 0 0 1.067-2.213 2.303 2.303 0 0 0-.401-.783 2 2 0 0 0-.987-.629 2.435 2.435 0 0 0-.954-.01 1.992 1.992 0 0 0-1.154.818c-.24.366-.321.673-.307 1.142.012.352.063.546.22.847.228.431.685.8 1.16.935.2.06.23.056.245 0z"/>
</svg>
