<svg role="img" focusable="false" aria-hidden="true" xmlns="http://www.w3.org/2000/svg" viewBox="0 0 14 14" height="1em" width="1em">
  <path d="m 10.080467,6.0972 c -0.1197415,0 -0.2171857,0.0974 -0.2171857,0.21719 0,0.11977 0.097444,0.21718 0.2171857,0.21718 0.119743,0 0.217129,-0.0974 0.217129,-0.21718 0,-0.11977 -0.09739,-0.21719 -0.217129,-0.21719 z m 0.115833,0.65147 -0.2316652,0 c -0.039991,0 -0.072395,0.0324 -0.072395,0.0724 l 0,1.04704 c 0,0.04 0.032404,0.0724 0.072395,0.0724 l 0.2316652,0 c 0.03999,0 0.07239,-0.0324 0.07239,-0.0724 l 0,-1.04704 c 0,-0.04 -0.0324,-0.0724 -0.07239,-0.0724 z m -0.6811826,-0.72832 -1.0626776,0 c -0.039991,0 -0.072395,0.0324 -0.072395,0.0724 l 0,1.76335 c 0,0.04 0.032404,0.0724 0.072395,0.0724 l 0.2316653,0 c 0.039991,0 0.072395,-0.0324 0.072395,-0.0724 l 0,-0.63111 0.6080055,0 c 0.039991,0 0.072395,-0.0324 0.072395,-0.0724 l 0,-0.23166 c 0,-0.04 -0.032404,-0.0724 -0.072395,-0.0724 l -0.6080055,0 0,-0.45172 0.7586169,0 c 0.039991,0 0.072395,-0.0324 0.072395,-0.0724 l 0,-0.23167 c 0,-0.04 -0.032404,-0.0724 -0.072395,-0.0724 z M 11.132315,4.84468 10.059212,4.84368 C 9.357585,3.84743 8.2234387,3.25649 6.9999855,3.25649 c -1.2234821,0 -2.3580338,0.59138 -3.0601244,1.58844 l -1.0721757,0 C 1.8378464,4.84465 1,5.68243 1,6.71224 l 0,0.57624 c 0,1.02923 0.8378464,1.86656 1.8676854,1.86656 l 1.0721178,0 c 0.7015983,0.99706 1.8361789,1.58847 3.0601823,1.58847 1.222237,0 2.3558041,-0.59034 3.0580105,-1.58555 l 1.074319,-0.003 C 12.162183,9.15504 13,8.31725 13,7.28747 L 13,6.71123 C 13,5.682 12.162154,4.84468 11.132315,4.84468 Z M 5.8345934,6.30472 5.2465401,7.93089 c -0.010512,0.0289 -0.038804,0.0485 -0.068949,0.0478 L 4.9588122,7.97569 C 4.9280302,7.97531 4.9008382,7.95549 4.8910502,7.92629 L 4.5456952,6.89631 4.1986606,7.92655 c -0.00979,0.0291 -0.036864,0.0488 -0.067588,0.0493 l -0.2184314,0.003 c -3.475e-4,0 -6.661e-4,0 -0.00101,0 -0.030319,0 -0.057395,-0.0188 -0.067936,-0.0473 L 3.2435374,6.30544 c -0.00666,-0.018 -0.00588,-0.0379 0.00214,-0.0554 0.00802,-0.0174 0.022674,-0.031 0.040715,-0.0376 l 0.2173599,-0.0802 c 0.037385,-0.0139 0.079114,0.005 0.092985,0.0429 L 4.012229,7.30089 4.3677483,6.24534 c 0.00996,-0.0295 0.037559,-0.0493 0.068602,-0.0493 5.79e-5,0 5.79e-5,0 5.79e-5,0 l 0.2196186,1.7e-4 c 0.031101,3e-5 0.058698,0.0199 0.068602,0.0494 L 5.0762677,7.29442 5.4806105,6.17631 c 0.00652,-0.018 0.019952,-0.0328 0.037327,-0.0409 0.017433,-0.008 0.037269,-0.009 0.055368,-0.003 l 0.2178522,0.0788 c 0.037559,0.0135 0.057019,0.055 0.043437,0.0926 z m 0.5271254,1.53759 c 0,0.04 -0.032404,0.0724 -0.072395,0.0724 l -0.2316653,0 c -0.039991,0 -0.072395,-0.0324 -0.072395,-0.0724 l 0,-1.04701 c 0,-0.04 0.032404,-0.0724 0.072395,-0.0724 l 0.2316653,0 c 0.039991,0 0.072395,0.0324 0.072395,0.0724 l 0,1.04701 z M 6.1734907,6.53157 c -0.1197419,0 -0.2171282,-0.0974 -0.2171282,-0.21718 0,-0.11977 0.097386,-0.21719 0.2171282,-0.21719 0.1197999,0 0.2171862,0.0974 0.2171862,0.21719 0,0.11977 -0.097386,0.21718 -0.2171862,0.21718 z M 12.536669,7.2875 c 0,0.77428 -0.629984,1.40424 -1.404354,1.40424 l -3.3316654,0.003 c -0.2768689,0 -0.537753,0 -0.7689259,-10e-4 C 7.1752982,8.54382 7.2798951,8.35426 7.2798951,8.11515 l 0,-1.43169 c 0,-0.75911 0.6178512,-1.3767 1.3772789,-1.3767 l 2.475141,0.001 c 0.77437,0 1.404354,0.62947 1.404354,1.40323 l 0,0.57624 z"/>
</svg>
