<svg role="img" focusable="false" aria-hidden="true" xmlns="http://www.w3.org/2000/svg" viewBox="0 0 14 14" height="1em" width="1em">
  <path d="m 2.203032,11.9962 c -0.01096,-0.011 -0.01993,-2.1474 -0.01993,-4.7477 0,-4.6901 -4.41e-4,-4.7281 -0.05634,-4.784 -0.05239,-0.052 -0.0939,-0.056 -0.59155,-0.056 l -0.535211,0 0,-0.2118 0,-0.2117 0.795775,0.01 0.795774,0.01 0,5 0,5 -0.184292,0.01 c -0.101361,0 -0.193262,0 -0.204225,-0.012 z m 3.210114,-0.3955 c -0.01033,-0.011 -0.01878,-0.2829 -0.01878,-0.6057 l 0,-0.5868 3.014645,0 3.014645,0 -0.0076,0.5986 -0.0076,0.5985 -0.197182,0 -0.197184,0 -0.0078,-0.4014 -0.0078,-0.4014 -0.19641,0 -0.19641,0 0,0.4085 0,0.4084 -0.197182,0 -0.197184,0 0,-0.4084 0,-0.4085 -0.196409,0 -0.19641,0 -0.0078,0.4014 -0.0078,0.4014 -0.197183,0 -0.197183,0 -0.0078,-0.4014 -0.0078,-0.4014 -0.19641,0 -0.19641,0 0,0.4085 0,0.4084 -0.197183,0 -0.197183,0 0,-0.4084 0,-0.4085 -0.196409,0 -0.196411,0 -0.0078,0.4014 -0.0078,0.4014 -0.197183,0 -0.197183,0 -0.0078,-0.4014 -0.0078,-0.4014 -0.196409,0 -0.19641,0 0,0.4085 0,0.4084 -0.197183,0 -0.197183,0 0,-0.4084 0,-0.4085 -0.19641,0 -0.19641,0 -0.0078,0.4014 -0.0078,0.4014 -0.190141,0.01 -0.190141,0.01 0,-0.4098 0,-0.4097 -0.211268,0 -0.211267,0 0,0.4084 0,0.4085 -0.178404,0 c -0.09812,0 -0.186854,-0.01 -0.197183,-0.019 z M 1,9.8025 1,9.5913 l 0.394366,0 0.394366,0 0,0.2112 0,0.2113 -0.394366,0 L 1,10.0138 1,9.8025 Z m 2,-3.1972 0,-3.4084 5,0 5,0 0,3.4084 0,3.4085 -5,0 -5,0 0,-3.4085 z m 0.744882,2.9234 c 0.06728,-0.096 0.05504,-0.2062 -0.03037,-0.2734 -0.04082,-0.032 -0.09844,-0.058 -0.128041,-0.058 -0.0771,0 -0.192103,0.1257 -0.192103,0.21 0,0.1669 0.256507,0.256 0.350515,0.1218 z m 6.593146,-0.017 C 10.889537,9.356 11.270916,9.1433 11.655288,8.7771 12.629832,7.8485 12.877489,6.4635 12.282944,5.267 11.470862,3.6327 9.444262,3.1001 7.90893,4.1175 7.354939,4.4846 6.888698,5.1414 6.703064,5.8163 6.559304,6.339 6.579482,7.0434 6.752644,7.5471 c 0.332275,0.9667 1.135265,1.7144 2.102183,1.9574 0.331106,0.083 0.327045,0.083 0.82123,0.073 0.354891,-0.01 0.511411,-0.023 0.661971,-0.065 z M 9.253521,9.1797 C 8.542064,9.0488 8.034469,8.7691 7.61496,8.2767 6.973837,7.5242 6.821485,6.4193 7.235331,5.5236 7.706447,4.5039 8.751452,3.9028 9.85559,4.0162 c 0.355271,0.036 0.554602,0.093 0.881175,0.2515 0.535177,0.2592 0.931401,0.6551 1.192853,1.1921 0.185957,0.382 0.260436,0.6997 0.261894,1.1171 0.0017,0.4897 -0.0907,0.8708 -0.30624,1.2629 -0.339265,0.6172 -0.890083,1.0563 -1.581375,1.2605 -0.197446,0.058 -0.321687,0.075 -0.613756,0.083 -0.201409,0.01 -0.397887,0 -0.43662,0 z M 9.788168,8.7715 c 0.381055,-0.082 0.538835,-0.4911 0.398273,-1.0333 -0.03282,-0.1266 -0.05964,-0.2464 -0.0596,-0.2662 5.6e-5,-0.02 0.03887,-0.061 0.08627,-0.092 0.0474,-0.031 0.131717,-0.1178 0.187363,-0.1928 0.09215,-0.1243 0.108951,-0.1349 0.188378,-0.119 0.116823,0.023 0.322302,0.1658 0.588214,0.4079 0.19363,0.1763 0.232272,0.1997 0.329889,0.1997 0.229068,0 0.289177,-0.1643 0.289155,-0.7905 -1.5e-5,-0.3774 -0.0079,-0.456 -0.05648,-0.5659 C 11.605822,6.0168 11.209662,5.9114 10.704481,6.0437 L 10.482855,6.1017 10.371128,5.971 c -0.06145,-0.072 -0.160584,-0.1616 -0.220299,-0.1993 -0.05971,-0.038 -0.108571,-0.09 -0.108571,-0.1156 0,-0.1018 0.127813,-0.3006 0.36816,-0.5726 0.208328,-0.2357 0.251558,-0.3006 0.251558,-0.3776 0,-0.2327 -0.177833,-0.3012 -0.781314,-0.3012 -0.545681,0 -0.679725,0.046 -0.816673,0.2795 C 8.956423,4.8677 8.94254,5.1831 9.028069,5.5 L 9.090669,5.732 8.948285,5.86 C 8.869975,5.931 8.778832,6.0319 8.745748,6.0854 8.694618,6.1684 8.674308,6.1804 8.610405,6.1654 8.477569,6.1344 8.307525,6.0202 8.068074,5.8004 7.793464,5.5482 7.737101,5.5204 7.609146,5.5739 7.441113,5.6439 7.409749,5.7594 7.409058,6.3095 c -7.62e-4,0.6107 0.0395,0.7238 0.309257,0.869 0.149925,0.081 0.58847,0.084 0.853924,0.01 l 0.177868,-0.052 0.08486,0.1029 C 8.881637,7.2964 8.975968,7.381 9.04459,7.4282 9.1536,7.5032 9.167137,7.5232 9.151774,7.59 9.121314,7.7216 9.009149,7.8899 8.808262,8.1054 8.701369,8.2201 8.592797,8.3549 8.566991,8.4051 c -0.04172,0.081 -0.04245,0.1019 -0.0065,0.1879 0.04568,0.1093 0.108152,0.1506 0.278877,0.1843 0.176027,0.035 0.784825,0.034 0.948829,0 z M 9.112676,8.3955 c 0,-0.012 0.05519,-0.086 0.122635,-0.1663 0.184931,-0.2191 0.271732,-0.3856 0.271732,-0.521 0,-0.1154 0.0016,-0.1172 0.09929,-0.1172 0.08229,0 0.10441,0.013 0.129195,0.077 0.06724,0.1742 0.115696,0.4302 0.09863,0.5212 -0.0328,0.1748 -0.05675,0.1872 -0.404579,0.2079 -0.174296,0.01 -0.316902,0.01 -0.316902,0 z M 9.464789,7.1706 C 9.170364,7.0976 9.028169,6.9091 9.028169,6.591 c 0,-0.2034 0.03596,-0.2967 0.159457,-0.414 0.221346,-0.2103 0.602358,-0.2169 0.822748,-0.014 0.149791,0.1377 0.210127,0.4052 0.144611,0.641 -0.03009,0.1083 -0.164465,0.2622 -0.280033,0.3208 -0.09571,0.048 -0.305011,0.072 -0.410163,0.046 z M 9.727083,6.7448 c 0.07425,-0.069 0.08176,-0.2117 0.01503,-0.2854 -0.07212,-0.08 -0.21861,-0.067 -0.290956,0.025 -0.146119,0.1857 0.103358,0.4215 0.275926,0.2606 z m 1.506765,0.2425 c -0.22425,-0.1864 -0.382717,-0.2696 -0.513512,-0.2696 -0.114501,0 -0.114702,-2e-4 -0.114702,-0.1096 l 0,-0.1096 0.220228,-0.059 c 0.249562,-0.067 0.32608,-0.072 0.45024,-0.029 0.0739,0.026 0.08997,0.049 0.104517,0.1479 0.0095,0.065 0.01325,0.215 0.0084,0.3342 l -0.0088,0.2169 -0.146434,-0.1218 z M 7.923825,6.8281 c -0.0419,-0.016 -0.08209,-0.051 -0.08932,-0.077 -0.0276,-0.1 -0.04872,-0.4765 -0.03072,-0.5482 l 0.01885,-0.075 0.130936,0.1102 c 0.14982,0.1261 0.392004,0.2468 0.546428,0.2724 0.09992,0.016 0.105634,0.023 0.105634,0.122 0,0.1041 -5.61e-4,0.1046 -0.176057,0.1534 -0.229082,0.064 -0.410843,0.079 -0.505753,0.042 z M 9.441918,5.4413 C 9.372078,5.2197 9.355148,5.048 9.392118,4.936 9.431228,4.8175 9.483038,4.8024 9.850962,4.8024 l 0.252367,0 -0.09392,0.1143 C 9.842115,5.1201 9.704832,5.3499 9.704525,5.4269 c -5.21e-4,0.128 -0.0281,0.1643 -0.124931,0.1643 -0.08455,0 -0.09351,-0.01 -0.137677,-0.1499 z m 3.107378,4.0935 c 0.113671,-0.1137 0.05234,-0.2818 -0.118301,-0.3244 -0.0594,-0.015 -0.09177,0 -0.147887,0.053 -0.131547,0.1316 -0.05649,0.328 0.125343,0.328 0.04695,0 0.109546,-0.025 0.140845,-0.056 z M 5.338028,9.1405 c 0.04131,-0.041 0.05634,-0.094 0.05634,-0.1972 l 0,-0.1409 0.197183,0 0.197183,0 0,-0.1972 0,-0.1972 -0.197183,0 -0.197183,0 0,-0.1971 0,-0.1972 0.197183,0 0.197183,0 0,-0.2113 0,-0.2112 -0.197183,0 -0.197183,0 0,-0.1388 c 0,-0.1164 -0.01198,-0.1483 -0.07422,-0.1972 -0.06803,-0.054 -0.111636,-0.058 -0.522979,-0.058 -0.246817,0 -0.471943,0.012 -0.50028,0.028 -0.05916,0.032 -0.113787,0.1692 -0.113787,0.2865 l 0,0.08 -0.197184,0 -0.197182,0 0,0.2112 0,0.2113 0.197182,0 0.197184,0 0,0.1971 0,0.1972 -0.197184,0 -0.197182,0 0,0.1972 0,0.1972 0.197182,0 0.197184,0 0,0.097 c 0,0.092 0.0057,0.097 0.105633,0.1056 0.09644,0.01 0.106402,0.017 0.114461,0.1003 l 0.0088,0.092 0.434835,0 c 0.397276,0 0.439701,0 0.491173,-0.056 z m -0.732394,-0.9437 0,-0.6056 0.197183,0 0.197183,0 0,0.6056 0,0.6056 -0.197183,0 -0.197183,0 0,-0.6056 z M 5.338028,5.9292 c 0.04131,-0.041 0.05634,-0.094 0.05634,-0.1972 l 0,-0.1408 0.197183,0 0.197183,0 0,-0.1972 0,-0.1972 -0.197183,0 -0.197183,0 0,-0.1972 0,-0.1972 0.197183,0 0.197183,0 0,-0.1959 0,-0.1959 -0.19014,-0.01 L 5.408453,4.3906 5.393613,4.243 C 5.369993,4.008 5.348963,3.9978 4.865277,3.9869 4.370433,3.9759 4.25837,3.9999 4.213911,4.1276 4.196971,4.1766 4.183101,4.2584 4.183101,4.3103 l 0,0.094 -0.197183,0 -0.197183,0 0,0.1972 0,0.1972 0.197183,0 0.197183,0 0,0.1971 0,0.1972 -0.197183,0 -0.197183,0 0,0.1972 0,0.1972 0.197183,0 0.197183,0 0,0.097 c 0,0.092 0.0057,0.097 0.105634,0.1056 0.09644,0.01 0.106402,0.017 0.114461,0.1003 l 0.0088,0.092 0.434835,0 c 0.397276,0 0.439701,0 0.491173,-0.056 z m -0.732394,-0.9296 0,-0.5915 0.197183,0 0.197183,0 0,0.5915 0,0.5916 -0.197183,0 -0.197183,0 0,-0.5916 z M 3.732395,3.9292 c 0.115914,-0.1159 0.02003,-0.338 -0.145925,-0.338 -0.07497,0 -0.192104,0.1248 -0.192104,0.2046 0,0.1623 0.221705,0.2497 0.338029,0.1334 z m 8.816901,0 c 0.08106,-0.081 0.07293,-0.2082 -0.01788,-0.2797 -0.04082,-0.032 -0.09615,-0.058 -0.122962,-0.058 -0.02681,0 -0.08214,0.026 -0.122962,0.058 -0.143196,0.1127 -0.06146,0.336 0.122962,0.336 0.04695,0 0.109546,-0.025 0.140845,-0.056 z m -11.183099,4.2676 0,-0.6338 0.211268,0 0.211267,0 0,0.6338 0,0.6338 -0.211267,0 -0.211268,0 0,-0.6338 z M 1,6.6052 1,6.408 l 0.394366,0 0.394366,0 0,0.1972 0,0.1972 -0.394366,0 L 1,6.8024 1,6.6052 Z m 0.366197,-2.0153 0,-0.635 0.204225,0.01 0.204226,0.01 0.0076,0.6268 0.0076,0.6267 -0.211807,0 -0.211806,0 0,-0.635 z"/>
</svg>
