<svg role="img" focusable="false" aria-hidden="true" xmlns="http://www.w3.org/2000/svg" viewBox="0 0 14 14" height="1em" width="1em">
  <path d="m 3.4726423,12.901214 c 0,-0.2518 0.50069,-0.6972 0.85956,-0.7645 0.21664,-0.041 0.39375,-0.1323 0.39358,-0.2036 -1.1e-4,-0.071 0.0575,-0.6938 0.12805,-1.3832 0.11383,-1.1114996 0.17308,-1.3265996 0.52304,-1.8985996 0.21707,-0.3548 0.46306,-0.8419 0.54665,-1.0825 0.0945,-0.272 0.17338,-0.3728 0.20856,-0.2665 0.0311,0.094 0.1398,1.0939 0.24152,2.222 0.23855,2.6456996 0.20646,2.5228996 0.68247,2.6121996 0.3599,0.067 0.86063,0.5124 0.86063,0.7647 0,0.054 -0.99992,0.099 -2.22203,0.099 -1.22212,0 -2.22203,-0.044 -2.22203,-0.099 z m -0.79765,-2.3335 c 0,-0.6297996 1.22144,-3.3366996 1.7018,-3.7713996 0.19933,-0.1804 0.22799,-0.1747 0.50306,0.1004 0.16043,0.1604 0.40003,0.2916 0.53244,0.2916 0.19664,0 0.22658,0.047 0.16337,0.2564 -0.18335,0.6074 -1.11009,1.9437 -1.97564,2.8487996 -0.57226,0.5984 -0.92503,0.7029 -0.92503,0.2742 z m 4.5668,-3.7042996 -0.50399,-0.074 -0.009,-0.6553 -0.009,-0.6552 1.04401,0 c 1.11664,0 2.4763597,0.2147 3.1546597,0.4981 0.69483,0.2904 0.5036,0.5218 -0.60924,0.7373 -0.8381197,0.1623 -2.4444297,0.2402 -3.0678597,0.1489 z m -1.832,-0.1644 c -0.23159,-0.1172 -0.28487,-0.2285 -0.28487,-0.595 0,-0.3839 0.0485,-0.4742 0.32644,-0.6074 0.29175,-0.1398 0.35835,-0.1327 0.62672,0.067 0.42185,0.3135 0.44774,0.7397 0.0633,1.0421 -0.35778,0.2814 -0.35989,0.2817 -0.73161,0.094 z m -1.13129,-1.8122 c -0.60071,-1.0518 -1.2734,-3.4926 -1.05464,-3.8267 0.23543,-0.35949997 1.26224,0.9353 2.07572,2.6175 0.53033,1.0966 0.56411,1.3457 0.18256,1.3457 -0.14823,0 -0.40244,0.1045 -0.5649,0.2323 l -0.2954,0.2324 -0.34334,-0.6012 z"/>
</svg>
