<svg role="img" focusable="false" aria-hidden="true" xmlns="http://www.w3.org/2000/svg" viewBox="0 0 14 14" height="1em" width="1em">
  <path style="fill-rule:evenodd" d="m 2.8,12.4 2.4,-1.2 3.6,0 2.4,1.2 0,0.6 -8.4,0 0,-0.6 z M 1,2.2000637 C 1,1.5372868 1.5389274,1 2.1944771,1 L 11.805523,1 C 12.465215,1 13,1.534035 13,2.2000637 L 13,9.999936 C 13,10.662713 12.461073,11.2 11.805523,11.2 l -9.6110459,0 C 1.5347856,11.2 1,10.665965 1,9.999936 L 1,2.2000637 Z M 2.2,2.2 l 9.6,0 0,6.6 -9.6,0 0,-6.6 z"/>
</svg>
