<svg role="img" focusable="false" aria-hidden="true" xmlns="http://www.w3.org/2000/svg" viewBox="0 0 14 14" height="1em" width="1em">
  <path d="m 12.880185,11.248876 c -0.270514,-0.38484 -0.832193,-0.86964 -1.76951,-1.4107699 -0.705071,-0.40708 -1.4998395,-0.75368 -2.1729991,-0.9662 -0.080202,0.47301 -0.3295381,0.88919 -0.6839201,1.1833599 0.5206675,0.47686 1.2184337,0.99201 1.9237162,1.3992 0.937291,0.54116 1.637984,0.78517 2.106511,0.82702 0.24691,0.0221 0.495824,-0.0971 0.627929,-0.32587 0.132106,-0.22879 0.110822,-0.50395 -0.03173,-0.70674 z M 5.0623398,8.8719061 c -0.673186,0.21252 -1.4679279,0.55912 -2.1729996,0.9662 -0.9372912,0.5411599 -1.4989696,1.0259299 -1.76951,1.4107699 -0.14254924,0.20279 -0.1638591,0.47795 -0.031754,0.70674 0.1321054,0.22879 0.3810193,0.34792 0.6279289,0.32587 0.4685533,-0.0418 1.1692206,-0.28589 2.1065118,-0.82702 0.7052827,-0.40719 1.4030489,-0.92234 1.9237164,-1.3992 C 5.3918777,9.7610661 5.1425417,9.3449161 5.0623396,8.8719061 Z m 1.937668,-2.29535 c 0.2402635,0 0.470505,0.0435 0.6835245,0.12277 0.1525185,-0.68922 0.2497052,-1.55068 0.2497052,-2.36473 0,-1.08229 -0.1390152,-1.81113 -0.3370282,-2.23783 -0.1043339,-0.22483 -0.3319908,-0.38086 -0.5961751,-0.38086 -0.2641843,0 -0.4918412,0.15603 -0.5961751,0.38086 -0.198013,0.4267 -0.3370282,1.15551 -0.3370282,2.23783 0,0.81405 0.097187,1.67554 0.2497052,2.36473 0.2129668,-0.0793 0.4432083,-0.12277 0.6834717,-0.12277 z m 1.1746272,1.96581 a 1.1746271,1.1746271 0 0 1 -1.1746272,1.17463 1.1746271,1.1746271 0 0 1 -1.1746271,-1.17463 1.1746271,1.1746271 0 0 1 1.1746271,-1.17462 1.1746271,1.1746271 0 0 1 1.1746272,1.17462 z"/>
</svg>
