<svg role="img" focusable="false" aria-hidden="true" xmlns="http://www.w3.org/2000/svg" viewBox="0 0 14 14" height="1em" width="1em">
  <path d="m 11.169897,12.875868 c -0.063,-0.068 -0.7934,-0.8449 -1.6223003,-1.726 l -1.5071,-1.6019999 0.7156,-0.7157 0.7156,-0.7157 0.1414,0.1352 c 0.078,0.074 0.8469003,0.8152 1.7091003,1.6463 l 1.5677,1.5112999 -0.7952,0.7952 c -0.4374,0.4374 -0.7985,0.7953 -0.8024,0.7953 0,0 -0.059,-0.056 -0.1224,-0.1239 z m 0.6631,-1.3566 c 0.069,-0.2125 0.1236,-0.387 0.1221,-0.3879 0,-10e-4 -0.1506,-0.1089 -0.3313,-0.24 l -0.3285,-0.2382 -0.3184,0.2315 c -0.1751,0.1273 -0.3233,0.2361 -0.3294,0.2418 -0.014,0.013 -0.011,0.021 0.1282,0.4497 l 0.1091,0.3357 0.4117,0 0.4117,0 0.1248,-0.3862 z m -8.2844003,1.4248 c -0.1926,-0.035 -0.3657,-0.099 -0.5303,-0.1965 -0.1082,-0.064 -0.3303,-0.2625 -0.4143,-0.3705 -0.074,-0.096 -0.1665,-0.2891 -0.1985,-0.4172 -0.036,-0.1426 -0.045,-0.4341 -0.019,-0.5919 l 0.019,-0.1143 1.6505,-1.6504999 1.6504,-1.6504 0.2757,0.04 0.2756,0.04 1.4417,-1.4496 1.4417,-1.4497 0.038,-0.097 c 0.098,-0.2494 0.1323,-0.5224 0.09,-0.7148 -0.075,-0.3427 -0.3246,-0.5813 -0.7684,-0.7358 -0.1398,-0.049 -0.3732,-0.099 -0.511,-0.111 l -0.091,-0.01 -0.3912,-0.3914 -0.3912,-0.3913 0.7979,-0.798 0.798,-0.798 0.4414,0.4412 0.4414,0.4412 0,0.088 c -0.01,0.1225 0.026,0.3167 0.07,0.4286 0.1258,0.3234 0.4512003,0.5116 0.8844003,0.5116 l 0.081,0 0.1132,0.087 c 0.9171,0.701 1.5532,1.4035 1.902,2.1006 0.1439,0.2877 0.1938,0.449 0.2444,0.7912 0.029,0.1953 0.033,0.2563 0.033,0.5464 7e-4,0.4314 -0.037,0.7472 -0.1452,1.2152 -0.073,0.3181 -0.2553,0.897 -0.319,1.0161 -0.014,0.026 -0.029,0.012 -0.3257,-0.284 l -0.3112,-0.311 -0.01,-0.2861 c -0.018,-0.6613 -0.1129,-1.1294 -0.3071,-1.5195 -0.129,-0.259 -0.285,-0.444 -0.4946,-0.5865 -0.1856,-0.1261 -0.2668,-0.1467 -0.3784,-0.096 -0.041,0.018 -0.3415,0.3111 -1.2636003,1.2299 -0.6655,0.6631 -1.425,1.4193 -1.6878,1.6804 l -0.4779,0.4747 -0.031,0.2792 -0.031,0.2792 -0.1151,0.1168 c -0.063,0.064 -0.7886,0.8159999 -1.6115,1.6705999 l -1.4963,1.5538 -0.1345,0 c -0.075,0 -0.1769,-0.01 -0.2312,-0.015 z m 1.7157,-6.2937999 -0.5212,-0.5212 -0.1075,0.043 c -0.236,0.094 -0.5006,0.1597 -0.7663,0.1903 -0.1982,0.023 -0.551,0.01 -0.7326,-0.03 -0.9804,-0.2063 -1.6581,-1.0211 -2.0137,-2.421 -0.051,-0.1997 -0.052,-0.2098 -0.039,-0.2882 0.025,-0.1462 0.1063,-0.2234 0.2358,-0.224 l 0.057,-3e-4 0.072,0.1059 c 0.314,0.458 0.7037,0.8052 1.0594,0.9439 0.1665,0.065 0.2397,0.079 0.4112,0.08 0.1264,5e-4 0.1769,0 0.2579,-0.027 0.3401,-0.092 0.7783,-0.4449 1.0387,-0.8367 0.1714,-0.2579 0.2686,-0.5046 0.3307,-0.8394 0.023,-0.1216 0.025,-0.1551 0.014,-0.2142 -0.049,-0.2631 -0.435,-0.7298 -0.9759,-1.1798 l -0.1134,-0.094 -8e-4,-0.086 c 0,-0.116 0.032,-0.1796 0.1146,-0.2222 0.051,-0.026 0.074,-0.03 0.1624,-0.029 0.1251,0 0.2086,0.023 0.4296,0.1098 0.4124,0.1623 0.8329,0.3995 1.1667,0.6579 0.144,0.1115 0.3749,0.3343 0.4939,0.4766 0.4676,0.5592 0.6213,1.2326 0.4429,1.9407 -0.033,0.1287 -0.097,0.3237 -0.1388,0.4212 l -0.028,0.065 0.5431,0.5431 0.543,0.5431 -0.7074,0.7073 -0.7073,0.7074 -0.5213,-0.5213 z"/>
</svg>
