<svg role="img" focusable="false" aria-hidden="true" xmlns="http://www.w3.org/2000/svg" viewBox="0 0 14 14" height="1em" width="1em">
  <path fill="#455a64" d="M11.92228256 8.99870922H2.07156459c-.16643468 0-.30148981-.13720863-.30148981-.30764266 0-.16981875.13505513-.30764266.3014898-.30764266h9.85071798c.16704996 0 .30179745.13782391.30179745.30764266 0 .17043403-.13474749.30764266-.30179745.30764266zm-1.7229944 2.87756198l.56052492-.25349755.5069951 1.12104985-.56052492.25349755zM6.38471468 1.00000006h1.23057064v2.15349862H6.38471468zM3.29267632 13.00000008l-.56052493-.25349756.5069951-1.12104985.56052493.25349755z"/>
  <g fill="#e91e63" transform="translate(-.38342384 -.23057058) scale(.30764)">
    <circle cx="40" cy="29" r="2"/>
    <circle cx="8" cy="29" r="2"/>
  </g>
  <path fill="#b0bec5" d="M8.49975797 5.225472c-.28241596.3014898-.66450815.50761038-1.09428494.56637013l2.83738825 6.17777226.56144785-.25565105.0778336-1.3247093L8.49975797 5.225472zm-2.99643951 0c.28241596.3014898.66450814.50761038 1.09428494.56637013L3.76021515 11.9696144l-.56144786-.25565105-.07783359-1.3247093L5.50331846 5.225472z"/>
  <path fill="#78909c" d="M7 2.53821336c-1.01922013 0-1.84585596.82663583-1.84585596 1.84585596S5.98077987 6.22992528 7 6.22992528s1.84585596-.82663583 1.84585596-1.84585596S8.01922013 2.53821336 7 2.53821336zM7 5.3069973c-.50945624 0-.92292798-.41347174-.92292798-.92292798S6.49054376 3.46114134 7 3.46114134s.92292798.41347174.92292798.92292798S7.50945624 5.3069973 7 5.3069973zm-.61528532 2.46114128h1.23057064v1.84585596H6.38471468z"/>
</svg>
