<svg role="img" focusable="false" aria-hidden="true" xmlns="http://www.w3.org/2000/svg" viewBox="0 0 14 14" height="1em" width="1em">
  <path d="m 5.8000245,1.0000205 c -0.6629978,0 -1.199996,0.536998 -1.199996,1.199996 l 0,9.5999675 c 0,0.662998 0.5369982,1.199996 1.199996,1.199996 l 1.7999938,0 c 0.6629978,0 1.1999959,-0.536998 1.1999959,-1.199996 l 0,-9.5999675 c 0,-0.662998 -0.5369981,-1.199996 -1.1999959,-1.199996 l -1.7999938,0 z m -4.7999837,0.599998 c 0,0.496798 -0.012,1.078196 0.3749987,1.649994 l 2.6249911,3.749987 0,-2.999989 -0.599998,0 0,-0.599998 -0.5999979,0 0,-0.599998 -0.599998,0 0,-0.599998 -0.5999979,0 0,-0.599998 -0.599998,0 z m 5.6999806,1.049996 c 0.2483991,0 0.4499985,0.2016 0.4499985,0.449999 0,0.248399 -0.2015994,0.449998 -0.4499985,0.449998 -0.2483992,0 -0.4499985,-0.201599 -0.4499985,-0.449998 0,-0.248399 0.2015993,-0.449999 0.4499985,-0.449999 z m 2.6999907,0.749998 0,2.99999 1.1999959,1.199995 C 11.101606,8.1015965 12.043603,8.7999935 13,8.7999935 12.620801,7.9113965 12.096403,7.0671995 11.800004,6.4000025 10.858007,5.1016065 9.4000121,3.4000125 9.4000121,3.4000125 Z m -7.7999733,3.599987 c -0.3449988,0.033 -0.599998,0.562199 -0.599998,1.199996 0,1.717195 2.9999898,3.5999885 2.9999898,3.5999885 l 0,-1.199997 C 2.9764341,9.5763915 3.4000326,9.4989915 3.4000326,8.7999935 c 0,-0.917397 -0.4025986,-1.199996 -0.5999979,-1.199996 0.1247996,0.2202 0.0852,1.087647 -0.2249992,1.256246 C 2.2132367,9.0524425 1.522639,8.5107945 1.6000388,6.9999995 Z m 4.7999836,2.99999 0.599998,0 0,0.5999975 0.5999979,0 0,0.599998 -0.5999979,0 0,0.599998 -0.599998,0 0,-0.599998 -0.5999979,0 0,-0.599998 0.5999979,0 0,-0.5999975 z"/>
</svg>
