<svg aria-hidden="true" xmlns="http://www.w3.org/2000/svg" viewBox="0 0 14 14" height="1em" width="1em">
  <path d="M3.658 10.816q0-.19-.139-.328-.139-.14-.328-.14-.19 0-.329.14-.139.138-.139.328t.139.329q.139.139.329.139t.328-.14q.14-.138.14-.328zM8.362 7.75l-4.981 4.98q-.271.27-.657.27-.38 0-.665-.27l-.774-.789q-.278-.262-.278-.657 0-.387.278-.665l4.974-4.974q.285.716.836 1.268.552.551 1.267.836zm4.63-3.177q0 .284-.168.774-.343.979-1.2 1.588-.859.61-1.889.61-1.351 0-2.311-.96-.96-.961-.96-2.312-.001-1.35.96-2.311Q8.384 1 9.735 1q.424 0 .887.12.464.121.786.34.117.08.117.205 0 .124-.117.205l-2.14 1.234V4.74l1.41.782.576-.354q.54-.333.99-.592.45-.26.515-.26.11 0 .172.073.062.073.062.183z"/>
</svg>
