<svg role="img" focusable="false" aria-hidden="true" xmlns="http://www.w3.org/2000/svg" viewBox="0 0 14 14" height="1em" width="1em">
  <path d="m 2.8719815,8.2702569 c 0.098872,0.20008 0.2311941,0.3878 0.3971658,0.55478 0.00151,0.002 0.00295,0.003 0.00447,0.005 l 0.6201096,0.62011 1.1809993,1.1809801 0.134623,0.13464 c 0.075205,0.0752 0.1737592,0.11278 0.2723136,0.11278 0.098554,0 0.1971219,-0.0376 0.2723267,-0.11278 L 9.2279307,7.2918169 c 0.1503965,-0.1504 0.1503965,-0.39425 0,-0.54464 l -0.1346231,-0.13461 -1.6784118,-1.6784 -0.1227103,-0.12273 c -0.2385851,-0.23859 -0.5199687,-0.40823 -0.8193998,-0.50922 -0.027937,-0.009 -0.00357,-0.50574 -1.455e-4,-0.56287 0.024328,-0.40672 -0.3209164,-0.64901 -0.5788051,-0.90689 -0.1777653,-0.17778 -0.3555571,-0.35555 -0.5333357,-0.53333 -0.078814,-0.0788 -0.1839928,-0.11823 -0.2891712,-0.11823 -0.1294402,0 -0.2588671,0.0597 -0.3391755,0.17906 -0.110282,0.16394 -0.083006,0.3845 0.056708,0.5242 l 0.8629917,0.86299 c 8.198e-4,0.14947 0.00164,0.29894 0.00247,0.44841 -0.494755,0.0325 -0.9802944,0.23772 -1.3584209,0.61587 l -0.9751644,0.97516 c -0.050388,-0.0207 -0.1043057,-0.0311 -0.1582502,-0.0311 -0.1051387,0 -0.2102774,0.0394 -0.2890654,0.11818 -0.00583,0.006 -0.451163,0.45116 -0.451163,0.45116 -0.1576288,0.15763 -0.1576288,0.4207 0,0.57834 0.011741,0.0117 0.024116,0.0225 0.036928,0.0325 0.00998,0.0128 0.020745,0.0252 0.032472,0.0369 l 0.1699514,0.16997 c -0.034257,0.38387 0.035976,0.77521 0.21037,1.12811 z m 3.7747341,0.65209 -0.7949529,0.79495 c -0.064548,0.0645 -0.1491405,0.0968 -0.2337327,0.0968 -0.084592,0 -0.1691845,-0.0323 -0.2337327,-0.0968 -0.1290964,-0.12908 -0.1290964,-0.33836 0,-0.46743 l 0.7949529,-0.79496 c 0.1290964,-0.12909 0.338369,-0.12909 0.467439,0 0.1291228,0.12907 0.1291228,0.33836 2.64e-5,0.46744 z m -2.2678603,-0.67794 0.794953,-0.79495 c 0.1291096,-0.1291 0.3383822,-0.1291 0.4674522,0 0.1290831,0.12908 0.1290831,0.33837 0,0.46744 l -0.794953,0.79495 c -0.064548,0.0645 -0.1491405,0.0968 -0.2337327,0.0968 -0.084592,0 -0.1691845,-0.0323 -0.2337327,-0.0968 -0.12907,-0.12907 -0.12907,-0.33836 1.32e-5,-0.46744 z M 2.3720437,12.878727 c 0.062777,0.0628 0.1450549,0.0942 0.2273466,0.0942 0.082278,0 0.1645701,-0.0314 0.2273466,-0.0942 l 2.0142555,-2.01426 -0.467439,-0.46745 -1.7741631,1.77415 -0.8472315,-0.84722 0.6574344,-1.05763 c 0.026404,0.0325 0.065064,0.0559 0.112609,0.0614 l 0.3599071,0.0418 c 0.051948,0.006 0.1037901,-0.012 0.1407711,-0.049 l 0.6370994,-0.6371001 -0.5476416,-0.54765 -0.036055,-0.0361 -0.036399,-0.0364 c -0.1430717,-0.14306 -0.266139,-0.30145 -0.3681046,-0.47102 l -1.623317,2.6114501 c -0.0788804,0.1269 -0.059947,0.29142 0.045707,0.39706 l 1.2778745,1.27788 z m 8.6019533,-11.5040601 -3.3253564,3.32538 1.6783722,1.67839 3.3253822,-3.32537 c 0.463473,-0.46348 0.463473,-1.21492 0,-1.67839 -0.463485,-0.46347002 -1.214939,-0.46347002 -1.678398,-1e-5 z"/>
</svg>
