<svg role="img" focusable="false" aria-hidden="true" xmlns="http://www.w3.org/2000/svg" viewBox="0 0 14 14" height="1em" width="1em">
  <path d="m 4.5933874,1.0256784 c -0.3516,0.081 -0.7446,0.3051 -0.9669,0.5517 -0.071,0.078 -0.183,0.2295 -0.2466,0.3346 -0.6126,1.0156 -0.5614,2.0824 0.1784,3.8085004 0.1416,0.3272 0.2002,0.498 0.21,0.5932 0,0.073 0.027,0.5347 0.046,1.0254 0.09,2.1778 0.1465,2.9029002 0.2808,3.5694002 0.1196,0.5884 0.2319,0.9839 0.3955,1.3941 0.1782,0.4443 0.2466,0.5517 0.4078,0.6323 0.1611,0.083 0.2515,0.085 0.393,0.015 0.1782,-0.09 0.1953,-0.144 0.2466,-0.7471 0.1831,-2.1826 0.5322,-3.4595002 1.1011,-4.0307002 0.1343,-0.1368 0.271,-0.2221 0.3491,-0.2221 0.2002,0 0.5321,0.3345 0.7421,0.7495 0.3687,0.7348 0.6446,2.1069002 0.7471,3.7182002 0.012,0.1612 0.034,0.2955 0.061,0.3589 0.1026,0.2368 0.4174,0.293 0.6519,0.1148 0.2515,-0.1904 0.6957,-1.5772 0.8105996,-2.5367 0.058,-0.4859002 0.1196,-1.4892002 0.1855,-3.0518002 0.019,-0.4834 0.041,-0.9374 0.049,-1.0108 0.01,-0.083 0.063,-0.2392 0.1513,-0.4394 0.6982,-1.5747 0.8301,-2.6392004 0.4346,-3.5498004 -0.2783,-0.6446 -0.6543,-1.0181 -1.2329996,-1.2232 -0.1879,-0.066 -0.2368,-0.073 -0.5004,-0.073 -0.2368,0 -0.3833,0.017 -0.7569,0.09 -0.7642,0.1464 -0.9301,0.1685 -1.3061,0.1709 -0.398,0 -0.5493,-0.017 -1.2818,-0.1562 -0.586,-0.11239999 -0.9278,-0.13689999 -1.15,-0.086 z"/>
</svg>
