<svg role="img" focusable="false" aria-hidden="true" xmlns="http://www.w3.org/2000/svg" viewBox="0 0 14 14" height="1em" width="1em">
  <path d="m 0.999946,6.5533145 c 0,-0.668588 0.2074928,-1.262248 0.6224784,-1.78098 0.4149856,-0.518732 0.9452449,-0.85879 1.5792507,-1.002882 0.1786744,-0.789625 0.5821326,-1.435159 1.2103746,-1.942363 0.6282421,-0.507205 1.3544669,-0.760807 2.1729107,-0.760807 0.4668586,0 0.8933716,0.07493 1.2680116,0.230547 0,0.0058 0,0.0058 0.0058,0.01153 0.484149,0.184438 0.910662,0.48415 1.273775,0.893372 l 0.01729,0 c 0.391931,0.420749 0.651297,0.92219 0.789625,1.510086 l 0.178675,0 c 0.622478,0 1.164265,0.167147 1.631124,0.495677 l 0,-0.0058 c 0.305475,0.207492 0.564841,0.461095 0.772334,0.76657 0.207493,0.305476 0.345821,0.63977 0.420749,1.002882 0.02305,0.121037 0.03458,0.21902 0.04611,0.299712 l 0,0.03458 c 0,0.0058 0,0.03458 0.0058,0.09798 0.0058,0.0634 0.0058,0.10951 0.0058,0.138328 l 0,0.01729 c 0,0.507205 -0.121037,0.979827 -0.368876,1.412104 -0.242075,0.432277 -0.576369,0.783862 -1.002882,1.043228 -0.420749,0.259366 -0.887608,0.397694 -1.394813,0.414985 -0.07493,0 -0.115273,-0.03458 -0.115273,-0.09798 l 0,-0.772335 c 0,-0.07493 0.04034,-0.10951 0.115273,-0.10951 0.495678,-0.02305 0.910663,-0.21902 1.256485,-0.587896 0.345821,-0.368876 0.518732,-0.801153 0.518732,-1.302594 0,-0.512968 -0.184439,-0.951008 -0.559078,-1.319884 -0.368876,-0.368877 -0.81268,-0.553315 -1.331412,-0.553315 l -0.927954,0 c -0.06916,0 -0.103747,-0.03458 -0.103747,-0.09798 L 9.040399,4.2478015 C 8.982759,3.6714325 8.740687,3.1757555 8.30841,2.7550065 c -0.0058,-0.0058 -0.0058,-0.01153 -0.01153,-0.01729 -0.0058,-0.0058 -0.01153,-0.01153 -0.01153,-0.01729 -0.0058,-0.0058 -0.01153,-0.01153 -0.02306,-0.01153 0,-0.01153 -0.0058,-0.01729 -0.01153,-0.01729 -0.420749,-0.380403 -0.910662,-0.599424 -1.4755039,-0.645533 -0.040346,-0.0058 -0.1037464,-0.0058 -0.1959654,-0.0058 -0.6340057,0 -1.1815562,0.213257 -1.648415,0.634006 -0.4668588,0.420749 -0.7319884,0.945245 -0.7896253,1.567723 l -0.04611,0.340058 c -0.017291,0.05187 -0.063401,0.08069 -0.1268012,0.08069 l -0.2824207,0.01729 c -0.4841499,0.05764 -0.8933718,0.265129 -1.2161384,0.616714 -0.3227665,0.351585 -0.4841498,0.772335 -0.4841498,1.256485 l 0,0.02305 0.017291,0 c 0.00576,0.276657 0.063401,0.536023 0.1729107,0.778098 0.1152738,0.247839 0.2651297,0.455332 0.4610951,0.628242 0.1210375,0.103747 0.259366,0.195966 0.426513,0.276657 l 0,0.0058 c 0.2305475,0.10951 0.4610951,0.172911 0.6974063,0.184438 0.063401,0 0.097983,0.03458 0.097983,0.103747 l 0,0.772334 c 0,0.0634 -0.034582,0.09798 -0.097983,0.09798 -0.2997118,-0.01729 -0.5821325,-0.07493 -0.8530259,-0.172911 l 0,0.0058 C 2.4293408,9.0893375 2.0201189,8.8126805 1.6915887,8.4322765 1.3630584,8.0518735 1.1440382,7.6023055 1.0518192,7.1008645 l 0,-0.01729 c -0.00576,-0.0058 -0.00576,-0.01153 -0.00576,-0.02305 C 1.0114734,6.9106625 0.999946,6.7377525 0.999946,6.5533145 Z m 3.1700288,4.1325645 c 0,-0.01729 0.00576,-0.04035 0.011527,-0.07493 0.00576,-0.02882 0.011527,-0.05187 0.011527,-0.06916 l 0.051873,-0.340057 c 0.040346,-0.138329 0.1152737,-0.2363125 0.2363112,-0.3054765 0.1210375,-0.06916 0.2478386,-0.08069 0.3919308,-0.04611 0.1325649,0.04035 0.2247839,0.121037 0.2939482,0.2363115 0.063401,0.121037 0.074928,0.242075 0.040346,0.363112 L 5.126746,10.79539 c -0.057637,0.253603 -0.2017292,0.380404 -0.4380404,0.380404 -0.017291,0 -0.04611,-0.0058 -0.080692,-0.01153 -0.034582,-0.0058 -0.057637,-0.01153 -0.080692,-0.01153 -0.1210374,-0.03458 -0.2074928,-0.09798 -0.2651297,-0.190202 -0.063401,-0.08646 -0.092219,-0.178674 -0.092219,-0.276657 z m 0.426513,-1.6945245 c 0,-0.138329 0.04611,-0.247839 0.1325648,-0.340058 0.086455,-0.09222 0.2017291,-0.132565 0.3400577,-0.132565 0.1383285,0 0.2478386,0.04611 0.3400576,0.132565 0.092219,0.08646 0.1325648,0.201729 0.1325648,0.340058 0,0.132565 -0.04611,0.242075 -0.1325648,0.334294 -0.086455,0.09222 -0.2017291,0.132565 -0.3400576,0.132565 -0.1325649,0 -0.242075,-0.04611 -0.3285303,-0.138329 -0.092219,-0.09222 -0.1440922,-0.201729 -0.1440922,-0.32853 z m 0.9452449,3.4524495 c 0,-0.02305 0.00576,-0.0634 0.023055,-0.132564 l 0.074928,-0.340058 c 0.040346,-0.132565 0.1210374,-0.230548 0.2363112,-0.293948 0.1210375,-0.06916 0.2420749,-0.08069 0.3631124,-0.04035 0.1325648,0.02305 0.2363112,0.09798 0.3054755,0.213257 0.069164,0.115273 0.086455,0.247838 0.04611,0.39193 l -0.074928,0.340058 c -0.057638,0.236315 -0.2132571,0.351589 -0.4610958,0.351589 -0.040346,0 -0.092219,-0.0058 -0.1383285,-0.01729 -0.1268011,-0.03458 -0.2190202,-0.09798 -0.2824207,-0.190202 -0.057637,-0.09222 -0.092219,-0.184438 -0.092219,-0.282421 z m 0.4553315,-1.677233 c 0,-0.132565 0.04611,-0.24784 0.1325648,-0.334294 0.092219,-0.09222 0.2017291,-0.132565 0.3400576,-0.132565 0.1383286,0 0.2478387,0.04611 0.3400577,0.132565 0.092219,0.09222 0.1325647,0.201729 0.1325647,0.334294 0,0.138329 -0.046109,0.247839 -0.1325647,0.340058 -0.092219,0.09222 -0.2017291,0.132565 -0.3400577,0.132565 -0.1325648,0 -0.2420749,-0.04611 -0.3342939,-0.138329 -0.092219,-0.09222 -0.1383285,-0.201729 -0.1383285,-0.334294 z M 6.3544129,9.4582135 c 0,-0.05764 0.00576,-0.10951 0.017291,-0.15562 l 0.1325649,-0.518732 c 0.040346,-0.132565 0.1210374,-0.236311 0.2363112,-0.305475 0.1210375,-0.06916 0.242075,-0.08646 0.368876,-0.04611 0.138329,0.04035 0.236311,0.115274 0.305476,0.230548 0.06916,0.115273 0.08069,0.236311 0.04034,0.363112 l -0.149855,0.518732 c -0.04611,0.161383 -0.126802,0.26513 -0.236312,0.322767 -0.10951,0.05764 -0.236311,0.06916 -0.3688758,0.03458 -0.1152738,-0.02305 -0.2017291,-0.08069 -0.259366,-0.172911 -0.069164,-0.09222 -0.092219,-0.184438 -0.086455,-0.270893 z M 7.945191,10.691643 c 0,-0.01729 0,-0.04611 0.0058,-0.07493 0.0058,-0.02882 0.0058,-0.05187 0.0058,-0.0634 l 0.05187,-0.340058 c 0.04035,-0.138329 0.115273,-0.2363115 0.236311,-0.3054765 0.121037,-0.06916 0.247838,-0.08069 0.391931,-0.04611 0.132564,0.04035 0.230547,0.121037 0.293948,0.2363115 0.06916,0.121038 0.08069,0.242075 0.04035,0.363113 l -0.08069,0.345821 c -0.05764,0.253602 -0.201729,0.380403 -0.43804,0.380403 -0.01729,0 -0.04611,-0.0058 -0.08069,-0.01153 -0.03458,-0.0058 -0.0634,-0.01153 -0.08069,-0.01153 -0.115273,-0.03458 -0.201729,-0.09798 -0.259366,-0.190202 -0.05187,-0.09222 -0.08646,-0.184438 -0.08646,-0.282421 z M 8.371704,8.9971185 c 0,-0.138329 0.04611,-0.247839 0.132565,-0.340058 0.09222,-0.09222 0.201729,-0.132565 0.340057,-0.132565 0.138329,0 0.247839,0.04611 0.340058,0.132565 0.09222,0.09222 0.132565,0.201729 0.132565,0.340058 0,0.132564 -0.04611,0.247838 -0.132565,0.334294 -0.08646,0.08646 -0.195965,0.132564 -0.334294,0.132564 -0.138328,0 -0.247839,-0.04611 -0.334294,-0.138328 -0.09222,-0.08646 -0.144092,-0.195966 -0.144092,-0.32853 z"/>
</svg>
