<svg aria-hidden="true" xmlns="http://www.w3.org/2000/svg" viewBox="0 0 14 14" height="1em" width="1em">
  <path d="M1.002 6.774c.006-.196.104-.497.29-.913.184-.416.439-.856.768-1.33 1.076-1.51 2.596-2.301 4.557-2.388v-.249a.37.37 0 0 1 .121-.289.42.42 0 0 1 .567 0 .39.39 0 0 1 .127.29v.254c.567.023 1.098.11 1.59.26.491.15.92.341 1.284.578a5.74 5.74 0 0 1 1.624 1.55c.237.341.446.711.613 1.098.168.388.29.7.353.931.064.232.098.347.104.353v.11c0 .104-.04.185-.121.254a.414.414 0 0 1-.284.099c-.179 0-.295-.052-.347-.15-.45-.51-.942-.758-1.474-.758a2.01 2.01 0 0 0-.596.133 1.996 1.996 0 0 0-.474.243 3.72 3.72 0 0 0-.335.254c-.104.087-.156.127-.162.133-.11.098-.214.15-.306.15-.133 0-.232-.034-.301-.104-.422-.422-.804-.676-1.162-.763v4.475l-.006.122-.023.133-.035.144-.052.15-.075.157-.098.15-.122.145c-.295.34-.711.509-1.26.509-.584 0-1.024-.168-1.319-.51a1.57 1.57 0 0 1-.179-.219 1.152 1.152 0 0 1-.121-.237 1.906 1.906 0 0 1-.07-.22 1.304 1.304 0 0 1-.034-.208 1.519 1.519 0 0 1-.018-.19v-.134c0-.04.006-.07.006-.075 0-.104.046-.196.133-.272a.37.37 0 0 1 .318-.08c.104 0 .185.046.254.132.07.087.104.197.104.324-.034.237.012.44.145.607.121.168.376.255.763.255.3 0 .52-.07.654-.208a.676.676 0 0 0 .167-.278.74.74 0 0 0 .047-.272l-.006-.11V6.555a2.268 2.268 0 0 0-1.116.659.363.363 0 0 1-.133.133.338.338 0 0 1-.174.064c-.104 0-.22-.064-.347-.197-.462-.515-.954-.77-1.474-.758a1.967 1.967 0 0 0-.648.116 1.92 1.92 0 0 0-.456.226 3.913 3.913 0 0 0-.313.26 2.982 2.982 0 0 1-.185.167c-.121.081-.22.128-.294.128a.575.575 0 0 1-.278-.099.397.397 0 0 1-.173-.185 1.04 1.04 0 0 1-.018-.295zm1.209-.82c.393-.209.763-.307 1.11-.307h.046c.665 0 1.272.254 1.821.769.22-.19.486-.358.804-.509.312-.15.653-.237 1.024-.26h.046c.665 0 1.272.254 1.821.769.22-.19.486-.358.804-.509.312-.15.653-.237 1.023-.26h.052c.324 0 .665.087 1.012.254a30.524 30.524 0 0 0-.509-.96C10.23 3.59 8.796 2.913 6.97 2.913c-.913 0-1.729.174-2.451.52a4.495 4.495 0 0 0-1.764 1.51c-.133.196-.318.537-.543 1.011z"/>
</svg>
