<svg role="img" focusable="false" aria-hidden="true" xmlns="http://www.w3.org/2000/svg" viewBox="0 0 14 14" height="1em" width="1em">
  <path d="m 2.3541205,8.385301 c 0,0.819599 0.2049,1.585746 0.623608,2.289532 0.418708,0.703786 0.979955,1.273942 1.69265,1.69265 C 5.3830735,12.786192 6.1492205,13 6.9777285,13 7.8062365,13 8.5812915,12.786192 9.3028955,12.367483 10.0245,11.948775 10.594656,11.378619 11.013364,10.674833 11.432071,9.962138 11.64588,9.2049 11.64588,8.385301 11.64588,7.85078 11.494432,7.218263 11.182629,6.478842 10.870825,5.739421 10.49666,5.053452 10.060133,4.429844 9.6681515,3.922049 9.2049005,3.360802 8.6703785,2.755011 8.1358575,2.1492205 7.2004455,1.2138085 6.9866375,1 L 5.8463255,2.1492205 C 5.2939865,2.683742 4.7594655,3.298441 4.2516705,4.002227 3.7438755,4.706013 3.2984415,5.463252 2.9242765,6.273942 2.5322942,7.084633 2.3541205,7.788419 2.3541205,8.385301 Z"/>
</svg>
