<svg role="img" focusable="false" aria-hidden="true" xmlns="http://www.w3.org/2000/svg" viewBox="0 0 14 14" height="1em" width="1em">
  <path d="m 4.1155759,6.994676 c 0,0.66016 0.042591,1.267081 0.1330967,1.815439 0.090506,0.548359 0.2342503,1.091393 0.4418813,1.618456 0.207631,0.527063 0.505767,1.006212 0.889086,1.442769 0.383318,0.436557 0.851819,0.809228 1.394853,1.12866 0.809229,0 1.586513,-0.159716 2.326531,-0.473824 0.7400181,-0.314109 1.3788821,-0.745342 1.9165931,-1.277729 0.537711,-0.532387 0.96362,-1.171251 1.277728,-1.916593 C 12.809454,8.586513 12.96917,7.814552 12.96917,6.994676 12.96917,6.1748 12.809454,5.402839 12.495345,4.662822 12.181237,3.922804 11.750004,3.289264 11.217617,2.751553 10.68523,2.213842 10.046366,1.787933 9.3010239,1.473824 8.5556819,1.159716 7.7837219,1 6.9744929,1 6.0854069,1.606921 5.3879809,2.448092 4.8768889,3.523514 4.3657977,4.598935 4.1155759,5.748891 4.1155759,6.994676 Z"/>
</svg>
