<svg role="img" focusable="false" aria-hidden="true" xmlns="http://www.w3.org/2000/svg" viewBox="0 0 14 14" height="1em" width="1em">
  <path d="m 5.861165,12.8583 c -0.051,-0.076 -0.093,-0.1565 -0.093,-0.1801 0,-0.024 0.16496,-0.1461 0.36672,-0.2724 0.20165,-0.1262 0.393,-0.2585 0.42509,-0.294 0.051,-0.056 0.055,-0.1452 0.033,-0.676 -0.021,-0.4949 -0.036,-0.6115 -0.079,-0.6115 -0.029,0 -0.29013,0.1325 -0.58016,0.2945 -0.28993,0.1619 -0.53787,0.2944 -0.55086,0.2944 -0.025,0 -0.20355,-0.385 -0.20355,-0.4398 0,-0.018 0.19875,-0.1341 0.44159,-0.2579 l 0.44169,-0.2252 0,-0.4172 c 0,-0.6277999 0,-0.6174999 -0.34511,-0.8280999 -0.16446,-0.099 -0.35802,-0.2082 -0.4302,-0.2425 l -0.13127,-0.062 -0.4208,0.2349 -0.42079,0.235 -0.018,0.4587 -0.018,0.4586999 -0.22084,0 -0.22075,0 -0.01,-0.5979999 c -0.01,-0.3755 -0.024,-0.5981 -0.048,-0.5981 -0.043,0 -0.98407,0.541 -1.05885,0.6087 -0.033,0.029 -0.058,0.1868 -0.074,0.4632999 l -0.024,0.4185 -0.13087,0.011 c -0.072,0.01 -0.17726,-0.01 -0.23385,-0.028 -0.082,-0.031 -0.099,-0.056 -0.083,-0.1214 0.011,-0.045 0.032,-0.265 0.045,-0.4883999 l 0.025,-0.4061 -0.48319,-0.2274 c -0.26573,-0.1251 -0.48318,-0.2359 -0.48318,-0.2462 0,-0.066 0.17056,-0.3519 0.21005,-0.3519 0.026,0 0.23504,0.099 0.46369,0.2202 l 0.4155,0.2202 0.14846,-0.082 c 0.47939,-0.2654 0.93238,-0.5662 0.92418,-0.6139 -0.01,-0.029 -0.24514,-0.1949 -0.53347,-0.3678 -0.30333,-0.182 -0.52428,-0.3379 -0.52428,-0.3699 0,-0.031 0.064,-0.1293 0.14167,-0.2195 l 0.14146,-0.164 0.41201,0.2686 c 0.27593,0.1798 0.43249,0.2607 0.47428,0.2446 0.08,-0.031 0.70573,-0.4199 0.79021,-0.4915 0.053,-0.045 0.064,-0.1124 0.061,-0.371 0,-0.1739 -0.014,-0.3984 -0.028,-0.4987 l -0.024,-0.1824 -0.36801,-0.2311 c -0.20235,-0.1272 -0.39141,-0.2315 -0.42,-0.2317 -0.029,-3e-4 -0.21515,0.091 -0.4144,0.202 -0.19935,0.1112 -0.37851,0.2024 -0.39821,0.2024 -0.02,0 -0.077,-0.081 -0.12687,-0.1797 -0.11047,-0.2181 -0.13656,-0.188 0.46709,-0.5402 0.23774,-0.1388 0.4324,-0.272 0.4324,-0.296 0,-0.024 -0.24214,-0.1808 -0.53797,-0.3483 l -0.53797,-0.3044 -0.38251,0.1903 c -0.21045,0.1046 -0.39031,0.1902 -0.3998,0.1902 -0.03,0 -0.16586,-0.2883 -0.16586,-0.3507 0,-0.039 0.14156,-0.1266 0.42129,-0.2595 0.23165,-0.1102 0.4292,-0.2131 0.4389,-0.2289 0.01,-0.016 0,-0.2566 -0.024,-0.5355 -0.036,-0.4351 -0.034,-0.5119 0.012,-0.541 0.079,-0.05 0.31463,-0.042 0.35762,0.011 0.02,0.025 0.044,0.2492 0.053,0.4976 0.011,0.329 0.03,0.4656 0.069,0.5033 0.082,0.08 1.01025,0.5724 1.07854,0.5724 0.053,0 0.06,-0.07 0.06,-0.6182 0,-0.4066 0.014,-0.6324 0.041,-0.6595 0.038,-0.038 0.17176,-0.034 0.3967,0.013 l 0.088,0.018 -0.025,0.4917 -0.025,0.4917 0.10197,0.071 c 0.18746,0.1296 0.75352,0.414 0.8241,0.414 0.07,0 0.69363,-0.3335 0.8144,-0.4354 0.055,-0.047 0.064,-0.1229 0.064,-0.5416 l 0,-0.4872 -0.38641,-0.2287 c -0.21255,-0.1258 -0.3864,-0.2439 -0.3864,-0.2623 0,-0.074 0.18885,-0.3266 0.24444,-0.3266 0.033,0 0.26633,0.117 0.51907,0.2599 0.25284,0.143 0.48249,0.2512 0.51048,0.2404 0.057,-0.022 0.07,-0.4882 0.027,-0.9933 l -0.024,-0.2832 -0.34412,-0.2228 c -0.18925,-0.1227 -0.34402,-0.2394 -0.34402,-0.2593 0,-0.057 0.19796,-0.3225 0.24115,-0.3234 0.021,-4e-4 0.20355,0.1151 0.4049,0.2567 0.20125,0.1416 0.3881,0.2576 0.4152,0.2576 0.027,10e-5 0.22854,-0.124 0.44759,-0.2759 0.21905,-0.1517 0.4205,-0.27569998 0.44759,-0.2755 0.055,5e-4 0.21485,0.2281 0.21485,0.3056 0,0.027 -0.16556,0.1544 -0.36791,0.2828 -0.20235,0.1282 -0.39091,0.2593 -0.4191,0.2914 -0.072,0.082 -0.038,1.2911 0.037,1.2911 0.027,0 0.28933,-0.1338 0.58276,-0.2972 0.29343,-0.1634 0.54997,-0.287 0.57016,-0.2745 0.042,0.026 0.18626,0.3383 0.18576,0.4015 -3e-4,0.023 -0.20125,0.1473 -0.4469,0.2766 l -0.44669,0.2354 0.021,0.5007 c 0.024,0.5722 -0.018,0.5 0.47838,0.8156 0.15746,0.1002 0.31093,0.182 0.34102,0.182 0.03,0 0.25254,-0.099 0.49458,-0.2205 l 0.43989,-0.2206 0.01,-0.4511 0.01,-0.451 0.22075,0 0.22084,0 0.01,0.5695 c 0.01,0.3133 0.024,0.5837 0.042,0.601 0.05,0.05 1.07234,-0.5628 1.11133,-0.6655 0.018,-0.048 0.033,-0.225 0.033,-0.3941 0,-0.4032 0.01,-0.4238 0.19926,-0.4238 0.26903,0 0.28123,0.027 0.23634,0.5241 -0.021,0.2376 -0.03,0.4567 -0.018,0.4867 0.012,0.03 0.22865,0.1531 0.48249,0.2737 0.25383,0.1205 0.46158,0.2378 0.46158,0.2605 0,0.058 -0.15966,0.3313 -0.19375,0.3317 -0.015,1e-4 -0.22774,-0.1 -0.47159,-0.2221 l -0.44339,-0.2222 -0.53017,0.3235 c -0.29163,0.1779 -0.53077,0.3433 -0.53137,0.3677 -6e-4,0.024 0.23904,0.188 0.53257,0.3637 0.33582,0.201 0.53357,0.3414 0.53357,0.3789 -10e-5,0.033 -0.062,0.1318 -0.13847,0.22 l -0.13836,0.1603 -0.4175,-0.269 -0.4176,-0.269 -0.18925,0.1033 c -0.10408,0.057 -0.30523,0.1802 -0.4469,0.2742 l -0.25763,0.171 0,0.4945 0,0.4946 0.3973,0.2506 c 0.21845,0.138 0.4158,0.2508 0.43849,0.2508 0.023,0 0.20605,-0.092 0.40761,-0.2047 0.20145,-0.1125 0.3885,-0.1961 0.41549,-0.1857 0.064,0.024 0.20905,0.3087 0.18116,0.3538 -0.012,0.019 -0.23594,0.1633 -0.49828,0.3205 -0.26224,0.1574 -0.47688,0.3034 -0.47688,0.3247 0,0.021 0.24254,0.1771 0.53907,0.3464 l 0.53907,0.3077 0.3861,-0.1921 c 0.25484,-0.1267 0.39841,-0.1795 0.4225,-0.1555 0.02,0.02 0.066,0.1029 0.10248,0.1841 0.081,0.1809 0.094,0.1685 -0.4142,0.4062 -0.21285,0.1 -0.39481,0.2034 -0.40421,0.2304 -0.01,0.027 0,0.2608999 0.024,0.5197999 0.022,0.259 0.03,0.4879 0.017,0.5088 -0.013,0.021 -0.10347,0.041 -0.20115,0.044 -0.21715,0.01 -0.22854,-0.018 -0.23464,-0.5272 0,-0.1922 -0.014,-0.3854999 -0.026,-0.4294999 -0.015,-0.057 -0.16756,-0.1582 -0.52388,-0.3496 -0.27643,-0.1483 -0.53567,-0.2697 -0.57616,-0.2697 -0.07,0 -0.074,0.028 -0.084,0.6063 -0.01,0.3344999 -0.026,0.6225999 -0.046,0.6425999 -0.036,0.036 -0.28833,0.034 -0.4166,0 -0.064,-0.019 -0.067,-0.052 -0.042,-0.5274 l 0.026,-0.5073999 -0.46289,-0.2455 -0.46289,-0.2455 -0.4056,0.226 c -0.22315,0.1243 -0.4131,0.238 -0.4222,0.2527 -0.01,0.015 -0.028,0.2365 -0.042,0.4927999 -0.02,0.3539 -0.015,0.4797 0.021,0.5224 0.026,0.031 0.19535,0.1421 0.37711,0.2469 0.18175,0.1049 0.33891,0.2129 0.34931,0.2401 0.024,0.063 -0.15846,0.342 -0.22355,0.342 -0.027,0 -0.25443,-0.1158 -0.50547,-0.2572 -0.25114,-0.1415 -0.47739,-0.2574 -0.50268,-0.2577 -0.035,-3e-4 -0.046,0.1518 -0.046,0.6389 l 0,0.6392 0.33422,0.2119 c 0.18375,0.1164 0.34232,0.2331 0.35221,0.2591 0.021,0.054 -0.16226,0.3482 -0.21604,0.3482 -0.019,0 -0.20256,-0.1159 -0.40701,-0.2575 -0.20455,-0.1418 -0.395,-0.2577 -0.42329,-0.2577 -0.028,0 -0.23065,0.1242 -0.44969,0.2761 C 6.209935,12.8758 6.013185,13 5.991885,13 c -0.021,0 -0.081,-0.062 -0.13207,-0.1373 z m 1.16202,-2.2916 c 0.014,-0.051 0.027,-0.3155 0.03,-0.5887999 0,-0.2733 0.016,-0.5152 0.031,-0.5378 0.047,-0.072 1.84905,-1.0157 1.90074,-0.9958 0.027,0.01 0.24414,0.1362 0.48208,0.2794 0.23784,0.1433 0.44439,0.2606 0.45879,0.2606 0.054,0 0.14896,-0.1387 0.12947,-0.1896 -0.011,-0.029 -0.22275,-0.177 -0.47009,-0.3286 l -0.44979,-0.2755 0.01,-0.9925 c 0.01,-0.5459 0.017,-1.0262 0.026,-1.0676 0.011,-0.05 0.16306,-0.1579 0.45749,-0.3246 0.48768,-0.2761 0.53577,-0.3171 0.50108,-0.4266 -0.038,-0.1207 -0.14746,-0.091 -0.60785,0.1639 -0.23725,0.1316 -0.44609,0.2389 -0.46409,0.2385 -0.018,-4e-4 -0.43849,-0.2533 -0.93437,-0.5619 l -0.90169,-0.5613 -0.01,-0.5767 c -0.01,-0.5479 -0.014,-0.578 -0.087,-0.6011 -0.14447,-0.046 -0.17306,0.042 -0.20055,0.618 -0.015,0.3202 -0.043,0.5564 -0.067,0.576 -0.022,0.018 -0.45349,0.2531 -0.95807,0.5215 -0.88638,0.4716 -0.92067,0.4862 -1.01215,0.4332 -0.052,-0.03 -0.23275,-0.1355 -0.40161,-0.2339 -0.32792,-0.1912 -0.42909,-0.195 -0.42909,-0.016 0,0.07 0.076,0.1314 0.4049,0.3303 l 0.4048,0.2447 -0.01,0.6778 c 0,0.3727 -0.019,0.8797 -0.031,1.1266 l -0.023,0.4487 -0.4104,0.233 c -0.37791,0.2146 -0.4105,0.2416 -0.4105,0.342 0,0.075 0.02,0.1129 0.066,0.1217 0.036,0.01 0.27493,-0.1046 0.53057,-0.248 0.25564,-0.1433 0.48429,-0.2605 0.50808,-0.2605 0.051,0 1.55102,0.9284 1.6341,1.0114 0.048,0.048 0.055,0.1485 0.045,0.6095999 -0.013,0.5879 0.01,0.6749 0.15597,0.6533 0.044,-0.01 0.086,-0.049 0.10077,-0.103 z M 6.050325,8.6385001 c -0.46199,-0.29 -0.86519,-0.5525 -0.89609,-0.5833 -0.05,-0.05 -0.052,-0.178 -0.016,-1.0974 0.022,-0.5728 0.053,-1.0528 0.068,-1.0667 0.10518,-0.094 1.85925,-0.991 1.89644,-0.9697 0.21295,0.122 1.75978,1.0934 1.77157,1.1125 0.01,0.014 0,0.4885 -0.021,1.0551 -0.031,0.8796 -0.046,1.0392 -0.098,1.0902 -0.065,0.064 -1.78617,0.9899 -1.83535,0.9877 -0.016,-7e-4 -0.40711,-0.2385 -0.86909,-0.5284 z m 1.57042,-0.4914 c 0.30672,-0.1713 0.58026,-0.3328 0.60785,-0.359 0.038,-0.036 0.054,-0.2235 0.067,-0.76 0.01,-0.3916 0,-0.7301 -0.014,-0.7521 -0.06,-0.08 -1.234,-0.7552 -1.29359,-0.7441 -0.1,0.018 -1.2539,0.6697 -1.27309,0.7183 -0.021,0.053 -0.035,1.4806 -0.015,1.5009 0.01,0.01 0.29293,0.1795 0.63355,0.3818 0.35961,0.2134 0.64254,0.3588 0.67444,0.3466 0.03,-0.012 0.30592,-0.1612 0.61265,-0.3324 z"/>
</svg>
