<svg role="img" focusable="false" aria-hidden="true" xmlns="http://www.w3.org/2000/svg" viewBox="0 0 14 14" height="1em" width="1em">
  <path d="m 4.234948,10.24038 c 0,-0.461747 0.108646,-0.890901 0.320507,-1.292892 C 4.767316,8.545496 5.066093,8.214124 5.451788,7.94794 l 0,-5.388863 c 0,-0.434586 0.146673,-0.803984 0.445451,-1.102762 C 6.196016,1.157537 6.565414,1 7,1 7.440018,1 7.809416,1.152105 8.108194,1.450883 8.406972,1.755093 8.559077,2.119058 8.559077,2.553644 l 0,5.388864 c 0.385694,0.266184 0.67904,0.602988 0.8909,0.999547 0.211861,0.39656 0.315075,0.831146 0.315075,1.292893 0,0.499774 -0.124943,0.966953 -0.369398,1.390674 C 9.1512,12.049344 8.814396,12.386148 8.390675,12.630602 7.966953,12.875057 7.505206,13 7,13 6.500226,13 6.038479,12.875057 5.614758,12.630602 5.191037,12.386148 4.854233,12.049344 4.604346,11.625622 4.354459,11.201901 4.234948,10.740154 4.234948,10.24038 Z m 0.956089,0 c 0,0.505206 0.179266,0.939792 0.532367,1.298325 0.353101,0.358534 0.782255,0.5378 1.282028,0.5378 0.505206,0 0.939792,-0.179266 1.303758,-0.543232 0.363965,-0.363966 0.548664,-0.793119 0.548664,-1.28746 0,-0.336804 -0.08692,-0.651879 -0.260751,-0.939792 C 8.423269,9.018108 8.184246,8.795383 7.880036,8.637845 L 7.727931,8.561795 C 7.673611,8.540065 7.646441,8.485745 7.646441,8.404257 l 0,-5.845178 C 7.646441,2.385244 7.586681,2.238571 7.461742,2.11906 7.336799,2.004982 7.184694,1.945226 6.999995,1.945226 6.826161,1.945226 6.674056,2.004986 6.549112,2.11906 6.424169,2.233139 6.364413,2.379812 6.364413,2.559079 l 0,5.834314 c 0,0.08148 -0.02716,0.135808 -0.07605,0.157537 L 6.14169,8.62698 C 5.842912,8.784517 5.609323,9.007242 5.440921,9.295155 5.272519,9.583068 5.191034,9.892711 5.191034,10.240379 Z m 0.423721,0 c 0,0.385695 0.130376,0.717067 0.396559,0.988683 0.266184,0.271616 0.581259,0.407424 0.956089,0.407424 0.37483,0 0.695337,-0.135808 0.972386,-0.407424 0.277048,-0.271616 0.412856,-0.602988 0.412856,-0.98325 0,-0.342237 -0.119511,-0.646447 -0.353101,-0.907198 C 7.765958,9.077863 7.478044,8.920326 7.14124,8.876867 l 0,-3.998189 c 0,-0.03259 -0.0163,-0.07062 -0.05432,-0.103214 -0.03803,-0.03803 -0.07605,-0.05432 -0.119511,-0.05432 -0.04889,0 -0.08692,0.0163 -0.114079,0.04346 -0.02716,0.03259 -0.04346,0.06519 -0.04346,0.114079 l 0,3.987325 C 6.478498,8.914898 6.196017,9.067004 5.962427,9.327755 5.728838,9.593939 5.614759,9.892717 5.614759,10.240385 Z"/>
</svg>
