<svg role="img" focusable="false" aria-hidden="true" xmlns="http://www.w3.org/2000/svg" viewBox="0 0 14 14" height="1em" width="1em">
  <path d="M 1,7.005324 C 1,6.190772 1.1597161,5.408163 1.4738243,4.668146 1.7879326,3.928128 2.2191659,3.289264 2.7515528,2.751553 3.2839397,2.213842 3.9228039,1.787933 4.6681455,1.473824 5.4134871,1.159716 6.1854481,1 6.9946761,1 7.809228,1 8.591837,1.159716 9.331854,1.473824 c 0.740018,0.314109 1.378882,0.745342 1.916593,1.277729 0.537711,0.532387 0.96362,1.171251 1.277729,1.916593 C 12.840284,5.413487 13,6.185448 13,7.005324 c 0,0.809228 -0.159716,1.586513 -0.473824,2.32653 -0.314109,0.740018 -0.745342,1.378882 -1.277729,1.916593 -0.532387,0.537711 -1.171251,0.96362 -1.916593,1.277729 C 8.586513,12.840284 7.814552,13 6.9946761,13 6.1854481,13 5.4081633,12.840284 4.6681455,12.526176 3.9281278,12.212067 3.2892635,11.780834 2.7515528,11.248447 2.2138421,10.71606 1.7879326,10.077196 1.4738243,9.331854 1.1597161,8.586513 1,7.819876 1,7.005324 Z m 0.6388642,0 c 0,0.724046 0.1437445,1.416149 0.4259095,2.076309 0.2821651,0.660159 0.6654836,1.235137 1.1446318,1.714285 0.4791482,0.479149 1.0488021,0.857143 1.7142857,1.144632 C 5.5891748,12.228039 6.2812777,12.36646 7,12.36646 c 0.72937,0 1.421473,-0.143745 2.081633,-0.42591 0.660159,-0.282165 1.229813,-0.665483 1.714285,-1.144632 C 11.28039,10.31677 11.658385,9.747116 11.94055,9.081633 12.222715,8.416149 12.36646,7.724046 12.36646,7.005324 12.36646,6.03638 12.126886,5.14197 11.647737,4.31677 11.168589,3.491571 10.513753,2.842059 9.688554,2.357587 8.863354,1.873114 7.968944,1.638864 7,1.638864 c -0.7240461,0 -1.4161491,0.143745 -2.0763088,0.42591 C 4.2635315,2.346939 3.6885537,2.730257 3.2094055,3.214729 2.7302573,3.699201 2.3522626,4.268855 2.0647737,4.929015 1.7772848,5.589175 1.6388642,6.281278 1.6388642,7.005324 Z"/>
</svg>
