<svg role="img" focusable="false" aria-hidden="true" xmlns="http://www.w3.org/2000/svg" viewBox="0 0 14 14" height="1em" width="1em">
  <path d="m 0.99999985,10.313585 c 0,0.09397 0.032686,0.175689 0.10214505,0.241062 0.069459,0.06537 0.1552605,0.09806 0.2574056,0.09806 l 7.6445347,0 c 0.09806,0 0.179776,-0.03269 0.249234,-0.09806 0.06946,-0.06537 0.102145,-0.143003 0.102145,-0.241062 0,-0.09806 -0.03269,-0.179775 -0.102145,-0.245148 -0.06946,-0.069459 -0.151174,-0.1021445 -0.249234,-0.1021445 l -7.6445347,0 c -0.1021451,0 -0.1879469,0.03269 -0.2574056,0.1021445 -0.069459,0.06946 -0.10214505,0.147089 -0.10214505,0.245148 z M 2.0704802,9.0306435 c 0,0.09397 0.03269,0.17569 0.102145,0.236977 0.06946,0.07354 0.151175,0.110316 0.245148,0.110316 l 7.6486208,0 c 0.09397,0 0.175689,-0.03269 0.241062,-0.102145 0.06537,-0.06946 0.09806,-0.151174 0.09806,-0.245148 0,-0.09397 -0.03269,-0.175689 -0.09397,-0.241062 -0.06537,-0.06537 -0.143003,-0.09806 -0.241062,-0.09806 l -7.6486208,0 c -0.09806,0 -0.179775,0.03269 -0.245148,0.09806 -0.06946,0.06946 -0.106231,0.147089 -0.106231,0.241062 z m 0.05312,-0.980592 c 0,0.03677 0.02043,0.05311 0.06537,0.05311 l 0.58427,0 c 0.0286,0 0.0572,-0.02043 0.0858,-0.06537 0.09806,-0.212461 0.241062,-0.384065 0.433095,-0.518897 0.192032,-0.134831 0.404494,-0.212461 0.637385,-0.228804 l 0.220633,-0.0286 c 0.04494,0 0.06946,-0.02452 0.06946,-0.07354 l 0.0286,-0.208375 c 0.04494,-0.441267 0.228805,-0.808989 0.559755,-1.107253 0.3309499,-0.294177 0.719101,-0.445352 1.1685389,-0.445352 0.441267,0 0.829418,0.147089 1.160368,0.441266 0.33095,0.294178 0.5188971,0.657815 0.5638401,1.094995 l 0.0286,0.236977 c 0,0.04494 0.02451,0.06946 0.07763,0.06946 l 0.6578139,0 c 0.2614921,0 0.502554,0.06946 0.719102,0.212461 0.216547,0.138917 0.3758931,0.326864 0.482124,0.559755 0.0286,0.04494 0.05311,0.06537 0.08172,0.06537 l 0.5883559,0 c 0.05311,0 0.07354,-0.0286 0.05311,-0.09397 l -0.08172,-0.224719 c 0.310521,-0.384065 0.461695,-0.833503 0.461695,-1.3524 0,-0.290092 -0.0572,-0.563841 -0.167518,-0.829418 -0.110317,-0.265583 -0.261491,-0.490302 -0.453524,-0.682335 -0.1879469,-0.192032 -0.4167519,-0.343207 -0.6823289,-0.45761 -0.265577,-0.114402 -0.539326,-0.163432 -0.833504,-0.163432 -0.629213,0 -1.152196,0.228805 -1.560776,0.686415 -0.347293,-0.171604 -0.710929,-0.257405 -1.094995,-0.257405 -0.572012,0 -1.082737,0.179775 -1.528089,0.539326 -0.445353,0.35955 -0.731359,0.81716 -0.858019,1.376916 -0.727273,0.192032 -1.217569,0.645556 -1.462717,1.368742 -0.0041,0.0041 -0.0041,0.01634 -0.0041,0.03269 z m 0.6619,3.5178745 c 0,0.09806 0.03677,0.179775 0.110316,0.245148 0.06537,0.06946 0.143003,0.106231 0.241063,0.106231 l 7.6567918,0 c 0.09397,0 0.175689,-0.03269 0.245148,-0.102145 0.06946,-0.06946 0.102145,-0.151175 0.102145,-0.249234 0,-0.09397 -0.03269,-0.171604 -0.102145,-0.236976 -0.06946,-0.06129 -0.151175,-0.09397 -0.245148,-0.09397 l -7.6567918,0 c -0.09806,0 -0.179776,0.03269 -0.249234,0.09397 -0.06946,0.06537 -0.102145,0.143003 -0.102145,0.236976 z m 2.684372,-7.9550555 c 0,0.09806 0.03269,0.175689 0.09397,0.241062 l 0.265577,0.261491 c 0.06946,0.07354 0.147088,0.110317 0.236976,0.110317 0.08989,0 0.171604,-0.03269 0.245148,-0.102145 0.06946,-0.06946 0.106231,-0.151175 0.106231,-0.249234 0,-0.09806 -0.03269,-0.183861 -0.102145,-0.257405 l -0.261491,-0.249234 c -0.06537,-0.06946 -0.147089,-0.106231 -0.245148,-0.106231 -0.09806,0 -0.179776,0.03269 -0.245149,0.102145 -0.06129,0.06537 -0.09397,0.151175 -0.09397,0.249234 z m 2.1736459,1.789581 c 0.2737491,-0.277834 0.604699,-0.412666 0.99285,-0.412666 0.400408,0 0.743616,0.143003 1.025536,0.424923 0.28192,0.281921 0.4249239,0.625128 0.4249239,1.021451 0,0.265577 -0.06537,0.510725 -0.2002049,0.735444 -0.388151,-0.388151 -0.862103,-0.580184 -1.417773,-0.580184 l -0.138917,0 C 8.2114402,6.1092955 7.9826352,5.7129725 7.6435142,5.4024515 Z m 0.6537281,-2.136874 c 0,0.09397 0.03269,0.175689 0.09806,0.241062 0.06537,0.06537 0.143003,0.09806 0.241063,0.09806 0.102145,0 0.187947,-0.03269 0.2574049,-0.09806 0.06946,-0.06537 0.102145,-0.143003 0.102145,-0.241062 l 0,-0.83759 c 0,-0.09397 -0.03677,-0.175689 -0.106231,-0.245148 -0.07354,-0.06946 -0.159346,-0.102145 -0.257405,-0.102145 -0.09397,0 -0.1756899,0.03269 -0.2410619,0.102145 -0.06537,0.06946 -0.09806,0.151175 -0.09806,0.245148 l 0,0.83759 z m 2.2431058,0.927477 c 0,0.08989 0.03269,0.175689 0.09806,0.245148 0.151174,0.14709 0.318692,0.14709 0.502553,0 l 0.58427,-0.58427 c 0.06537,-0.07354 0.09806,-0.159345 0.09806,-0.26149 0,-0.09397 -0.03269,-0.17569 -0.09806,-0.241062 -0.06537,-0.06537 -0.147089,-0.09806 -0.241062,-0.09806 -0.09806,0 -0.179776,0.03269 -0.245149,0.09806 l -0.596527,0.600612 c -0.06946,0.07354 -0.102145,0.155261 -0.102145,0.241063 z m 0.330949,4.821246 c 0,0.09806 0.03677,0.179775 0.106231,0.245148 l 0.261491,0.265577 c 0.06537,0.06537 0.147089,0.09806 0.236977,0.09806 0.0858,0 0.167518,-0.03269 0.249234,-0.09806 0.06537,-0.06946 0.09806,-0.159346 0.09806,-0.261491 0,-0.08989 -0.03269,-0.167518 -0.09806,-0.228805 l -0.265577,-0.269663 c -0.07354,-0.06537 -0.155261,-0.09806 -0.245148,-0.09806 -0.09806,0 -0.179776,0.03269 -0.245149,0.102145 -0.06537,0.06537 -0.09806,0.147089 -0.09806,0.245148 z M 11.476,6.4361595 c 0,0.09806 0.03677,0.179775 0.106231,0.245148 0.06129,0.06946 0.143003,0.102145 0.241062,0.102145 l 0.837589,0 c 0.09397,0 0.17569,-0.03269 0.241063,-0.102145 C 12.96731,6.6118485 13,6.5301325 13,6.4361595 c 0,-0.09806 -0.03269,-0.179775 -0.09806,-0.245148 -0.06537,-0.06537 -0.143003,-0.09806 -0.241063,-0.09806 l -0.837589,0 c -0.09806,0 -0.179775,0.03269 -0.245148,0.102145 -0.06946,0.06537 -0.102145,0.147088 -0.102145,0.241062 z"/>
</svg>
