<svg role="img" focusable="false" aria-hidden="true" xmlns="http://www.w3.org/2000/svg" viewBox="0 0 14 14" height="1em" width="1em">
  <path d="m 1.994305,6.002278 c 0,-0.676538 0.1298405,-1.32574 0.3963554,-1.947608 C 2.6571752,3.432802 3.0125282,2.906606 3.4635533,2.462415 3.9145783,2.018223 4.447608,1.66287 5.062642,1.396355 5.677676,1.129841 6.326879,1 7.003417,1 c 0.676537,0 1.32574,0.129841 1.947608,0.396355 0.615034,0.266515 1.148064,0.621868 1.592255,1.06606 0.444191,0.444191 0.799544,0.977221 1.066059,1.592255 0.266515,0.615034 0.396356,1.264237 0.396356,1.947608 0,1.107061 -0.328019,2.091116 -0.984055,2.965831 -0.656037,0.867882 -1.503417,1.462415 -2.535308,1.783599 l 0,2.248292 -2.897494,0 0,-2.220957 C 4.536446,10.471526 3.6685647,9.876993 2.9988608,8.995444 2.3291569,8.113895 1.994305,7.116173 1.994305,6.002278 Z m 1.1002278,0 c 0,1.059225 0.3826879,1.968109 1.1548975,2.726651 0.7585417,0.765376 1.6742597,1.148064 2.7471527,1.148064 0.703872,0 1.359909,-0.170843 1.954442,-0.519362 0.601367,-0.348519 1.072893,-0.820046 1.428246,-1.414579 0.348519,-0.594533 0.526196,-1.243735 0.526196,-1.947608 0,-0.526196 -0.102506,-1.025057 -0.307517,-1.51025 C 10.392938,4 10.112756,3.589977 9.764237,3.241458 9.415717,2.892938 8.998861,2.612756 8.513667,2.407745 8.028474,2.202733 7.529613,2.100228 7.003417,2.100228 6.477221,2.100228 5.97836,2.202733 5.493166,2.407745 5.007972,2.612756 4.59795,2.892938 4.2494303,3.241458 3.9009109,3.589977 3.6207287,4.006834 3.4157173,4.485194 3.1970385,4.977221 3.0945328,5.476082 3.0945328,6.002278 Z m 0.3963553,0.246014 0,-0.492028 1.4829159,0 0,0.492028 -1.4829159,0 z M 4.2357629,3.829157 4.591116,3.473804 5.62984,4.512528 5.274487,4.874715 4.2357629,3.829157 Z M 5.964692,7.198178 c 0,-0.287016 0.102506,-0.53303 0.300684,-0.744875 C 6.463553,6.241458 6.709567,6.132118 6.989749,6.125285 l 1.865604,-3.068337 0.451025,0.23918 -1.38041,3.300683 c 0.123007,0.170843 0.177676,0.36902 0.177676,0.601367 0,0.300683 -0.102505,0.55353 -0.31435,0.758542 C 7.577449,8.161731 7.324601,8.264237 7.023918,8.264237 6.730068,8.264237 6.477221,8.161731 6.272209,7.95672 6.067198,7.751708 5.964692,7.498861 5.964692,7.198178 Z m 0.895217,-3.191344 0,-1.476082 0.471526,0 0,1.482915 -0.471526,0 z m 2.009111,2.234624 0,-0.505695 1.482916,0 0,0.505695 -1.482916,0 z"/>
</svg>
