<svg role="img" focusable="false" aria-hidden="true" xmlns="http://www.w3.org/2000/svg" viewBox="0 0 14 14" height="1em" width="1em">
  <path d="m 1,7.0144855 c 0,-0.127474 0.046354,-0.237566 0.133269,-0.324481 0.092709,-0.08691 0.2028005,-0.127474 0.3302752,-0.127474 l 6.9995168,0 c 0.127475,0 0.231772,0.04056 0.312893,0.127474 0.08112,0.08692 0.127474,0.197007 0.127474,0.330276 0,0.127474 -0.04056,0.231772 -0.127474,0.312892 -0.08112,0.08112 -0.185418,0.127475 -0.312893,0.127475 l -6.9995168,0 c -0.1274747,0 -0.2433607,-0.04056 -0.3302752,-0.127475 C 1.0405601,7.2462575 1,7.1419605 1,7.0144855 Z m 1.3964268,-1.680347 c 0,-0.127475 0.046355,-0.231772 0.133269,-0.318687 0.086914,-0.08692 0.1970063,-0.133269 0.3244809,-0.133269 l 7.0053113,0 c 0.121681,0 0.225978,0.04635 0.312892,0.133269 0.08691,0.08691 0.127475,0.191212 0.127475,0.318687 0,0.127474 -0.04056,0.231772 -0.127475,0.324481 -0.08691,0.08691 -0.191211,0.133268 -0.312892,0.133268 l -6.999517,0 c -0.1274746,0 -0.2375664,-0.04635 -0.3244809,-0.133268 -0.086914,-0.08691 -0.1390633,-0.197007 -0.1390633,-0.324481 z m 0.938677,3.325929 c 0,-0.12168 0.046354,-0.225978 0.1390633,-0.312892 0.08112,-0.08112 0.1854176,-0.127475 0.3128923,-0.127475 l 7.0111056,0 c 0.127475,0 0.237567,0.04056 0.324481,0.127475 0.08691,0.08112 0.127475,0.185417 0.127475,0.312892 0,0.127475 -0.04636,0.237567 -0.133269,0.324481 -0.08691,0.086915 -0.197007,0.133269 -0.324481,0.133269 l -7.0053116,0 c -0.1274747,0 -0.2317721,-0.04635 -0.3244809,-0.133269 -0.092709,-0.08691 -0.1274747,-0.197006 -0.1274747,-0.324481 z M 9.465476,7.0144855 c 0,-0.133269 0.04056,-0.24336 0.127474,-0.330275 0.08691,-0.08691 0.197007,-0.127475 0.330275,-0.127475 l 2.619025,0 c 0.133269,0 0.243361,0.04056 0.330275,0.127475 C 12.959435,6.7711305 13,6.8812165 13,7.0086915 c 0,0.127475 -0.04056,0.231772 -0.127475,0.312892 -0.08691,0.08112 -0.197006,0.127475 -0.324481,0.127475 l -2.619024,0 c -0.133269,0 -0.243361,-0.04056 -0.330275,-0.127475 -0.09271,-0.07533 -0.133269,-0.179623 -0.133269,-0.307098 z"/>
</svg>
