<svg role="img" focusable="false" aria-hidden="true" xmlns="http://www.w3.org/2000/svg" viewBox="0 0 14 14" height="1em" width="1em">
  <path d="m 6.9674342,13 c 1.087517,0 2.089738,-0.266548 3.011995,-0.804976 0.9222558,-0.538427 1.6472678,-1.263438 2.1803638,-2.185695 0.533096,-0.922257 0.804976,-1.924478 0.804976,-3.011994 0,-1.087517 -0.266549,-2.089738 -0.804976,-3.011995 C 11.621366,3.063083 10.896354,2.338072 9.9794292,1.804976 9.0625032,1.271879 8.0549512,1 6.9674342,1 c 0.586406,0.314527 1.10351,0.703687 1.540649,1.167481 0.437139,0.463794 0.783651,0.970236 1.039538,1.508663 0.255886,0.538427 0.44247,1.082186 0.5597508,1.636606 0.117281,0.55442 0.181253,1.114171 0.181253,1.684585 0,0.485117 -0.02132,0.938249 -0.0693,1.354064 -0.04798,0.415816 -0.143936,0.868948 -0.2825408,1.348734 -0.138605,0.479787 -0.33052,0.911595 -0.565082,1.295425 -0.234563,0.383829 -0.55442,0.756996 -0.970236,1.114171 C 7.9856482,12.466904 7.5111922,12.760107 6.9674342,13 Z"/>
</svg>
