<svg aria-hidden="true" xmlns="http://www.w3.org/2000/svg" viewBox="0 0 14 14" height="1em" width="1em">
  <path d="M1 7.616c0 .099.037.179.105.247a.34.34 0 0 0 .246.098h1.835a.35.35 0 0 0 .357-.29l.554-3.244.997 8.115a.39.39 0 0 0 .117.222.323.323 0 0 0 .222.086.346.346 0 0 0 .234-.086.395.395 0 0 0 .123-.222l.77-5.954.64 1.724a.33.33 0 0 0 .32.228h.031a.33.33 0 0 0 .197-.08.326.326 0 0 0 .117-.191l.942-4.224.437 8.115a.377.377 0 0 0 .093.228.316.316 0 0 0 .221.105.345.345 0 0 0 .234-.062.363.363 0 0 0 .136-.203l1.016-4.273h1.705a.33.33 0 0 0 .246-.099A.335.335 0 0 0 13 7.61a.335.335 0 0 0-.105-.246.345.345 0 0 0-.246-.105H10.66a.339.339 0 0 0-.215.074.335.335 0 0 0-.123.19l-.511 2.18-.444-8.225a.35.35 0 0 0-.098-.228.308.308 0 0 0-.222-.099.343.343 0 0 0-.24.068.34.34 0 0 0-.135.21L7.44 6.95l-.714-1.945a.31.31 0 0 0-.148-.173.327.327 0 0 0-.221-.049.32.32 0 0 0-.204.099.378.378 0 0 0-.104.209l-.604 4.624-.942-7.733a.391.391 0 0 0-.117-.216.36.36 0 0 0-.221-.092.324.324 0 0 0-.234.074.321.321 0 0 0-.123.215l-.912 5.301H1.351a.335.335 0 0 0-.246.105.335.335 0 0 0-.105.246z"/>
</svg>
