<svg aria-hidden="true" xmlns="http://www.w3.org/2000/svg" viewBox="0 0 14 14" height="1em" width="1em">
  <path d="M1 10.314c0 .094.033.175.102.24a.36.36 0 0 0 .258.099h7.644c.098 0 .18-.033.25-.098a.312.312 0 0 0 .101-.241.32.32 0 0 0-.102-.246.336.336 0 0 0-.249-.102H1.36a.348.348 0 0 0-.258.102.327.327 0 0 0-.102.246zM2.07 9.03c0 .094.033.175.103.237.07.073.15.11.245.11h7.648a.318.318 0 0 0 .241-.102.346.346 0 0 0 .099-.245.343.343 0 0 0-.094-.241.323.323 0 0 0-.242-.098H2.422a.333.333 0 0 0-.245.098.329.329 0 0 0-.107.24zm.054-.98c0 .036.02.052.065.052h.584c.029 0 .057-.02.086-.065a1.279 1.279 0 0 1 1.071-.748l.22-.029c.045 0 .07-.024.07-.073l.028-.208c.045-.442.229-.81.56-1.108.33-.294.72-.445 1.169-.445.44 0 .829.147 1.16.441.33.294.519.658.564 1.095l.028.237c0 .045.025.07.078.07h.658c.261 0 .502.07.719.212.216.139.376.327.482.56.029.045.053.065.082.065h.588c.053 0 .074-.028.053-.094l-.082-.224a2.08 2.08 0 0 0 .462-1.353c0-.29-.057-.564-.167-.83a2.108 2.108 0 0 0-1.97-1.303c-.629 0-1.152.23-1.56.687a2.437 2.437 0 0 0-1.095-.258c-.573 0-1.083.18-1.529.54-.445.36-.73.817-.858 1.377-.727.192-1.217.645-1.462 1.368-.004.004-.004.017-.004.033zm.662 3.517c0 .098.036.18.11.245.065.07.143.106.24.106h7.658a.333.333 0 0 0 .245-.102.336.336 0 0 0 .102-.25.31.31 0 0 0-.102-.236.36.36 0 0 0-.245-.094H3.137a.363.363 0 0 0-.25.094.31.31 0 0 0-.101.237zM5.47 3.613c0 .098.033.176.094.24l.265.262c.07.074.148.11.237.11a.35.35 0 0 0 .246-.101.361.361 0 0 0 .004-.507l-.262-.25a.324.324 0 0 0-.245-.106.32.32 0 0 0-.245.103.356.356 0 0 0-.094.249zm2.174 1.79c.273-.278.604-.413.992-.413.4 0 .744.143 1.026.425.282.282.425.625.425 1.021 0 .266-.066.51-.2.736a1.93 1.93 0 0 0-1.418-.58h-.14a2.32 2.32 0 0 0-.685-1.19Zm.653-2.137a.33.33 0 0 0 .098.24.323.323 0 0 0 .241.099.361.361 0 0 0 .258-.098.312.312 0 0 0 .102-.241v-.838a.338.338 0 0 0-.106-.245.361.361 0 0 0-.258-.102.318.318 0 0 0-.24.102.346.346 0 0 0-.099.245v.838zm2.243.927c0 .09.033.176.098.245.152.147.32.147.503 0l.584-.584a.378.378 0 0 0 .098-.262.33.33 0 0 0-.098-.24.33.33 0 0 0-.24-.099.333.333 0 0 0-.246.098l-.597.601a.345.345 0 0 0-.102.241zm.331 4.821c0 .098.037.18.107.245l.261.266a.327.327 0 0 0 .237.098.394.394 0 0 0 .25-.098.371.371 0 0 0 .097-.261.303.303 0 0 0-.098-.23l-.265-.269a.36.36 0 0 0-.245-.098.32.32 0 0 0-.246.102.333.333 0 0 0-.098.245zm.605-2.578c0 .098.037.18.106.245.062.07.143.102.241.102h.838a.318.318 0 0 0 .24-.102.346.346 0 0 0 .099-.245.333.333 0 0 0-.34-.343h-.837a.32.32 0 0 0-.245.102.318.318 0 0 0-.102.241z"/>
</svg>
