<svg role="img" focusable="false" aria-hidden="true" xmlns="http://www.w3.org/2000/svg" viewBox="0 0 14 14" height="1em" width="1em">
  <path d="M 1.005758,7 C 1.005758,5.928983 1.270633,4.927063 1.8119,4.005758 2.353167,3.084453 3.078695,2.3474088 4,1.806142 4.921305,1.2648752 5.923224,1 6.994242,1 8.076775,1 9.078695,1.2648752 10,1.806142 c 0.921305,0.5412668 1.646833,1.2667947 2.1881,2.1881 0.541266,0.921305 0.806142,1.923224 0.806142,3.005758 0,1.082534 -0.264876,2.084453 -0.806142,3.005758 C 11.646833,10.927063 10.921305,11.652591 10,12.193858 9.078695,12.735125 8.076775,13 6.994242,13 5.911708,13 4.921305,12.735125 4,12.193858 3.078695,11.652591 2.353167,10.927063 1.8119,10.005758 1.270633,9.084453 1.005758,8.082534 1.005758,7 Z m 5.12476,-3.915547 c 1.001919,0.126679 1.84261,0.564299 2.522073,1.324376 0.679463,0.760077 1.024952,1.65835 1.024952,2.683302 0,0.955854 -0.299424,1.796545 -0.898273,2.533589 -0.598848,0.737044 -1.358925,1.197697 -2.28023,1.393474 0.230326,0.02303 0.391555,0.04606 0.495202,0.04606 1.128599,0 2.084453,-0.403071 2.879078,-1.197697 0.794626,-0.794625 1.197697,-1.750479 1.197697,-2.879078 0,-1.105567 -0.403071,-2.049904 -1.197697,-2.84453 C 9.078695,3.360845 8.111324,2.9692898 6.994242,2.9692898 6.694818,2.9923228 6.40691,3.0268718 6.130518,3.084453 Z"/>
</svg>
