<svg role="img" focusable="false" aria-hidden="true" xmlns="http://www.w3.org/2000/svg" viewBox="0 0 14 14" height="1em" width="1em">
  <path d="m 1.0923075,8.046154 c 0,0.584615 0.2021978,1.085714 0.610989,1.507692 C 2.1120877,9.975824 2.608791,10.2 3.197802,10.226374 c 0.048352,0 0.074725,-0.02637 0.074725,-0.07473 l 0,-0.602197 c 0,-0.05275 -0.026374,-0.07912 -0.074725,-0.07912 C 2.8153844,9.43956 2.4945053,9.29011 2.2351646,9.013187 1.975824,8.740659 1.8439559,8.415385 1.8439559,8.041758 c 0,-0.369231 0.1230769,-0.69011 0.3736263,-0.962637 C 2.4681317,6.806593 2.7714284,6.652747 3.1406591,6.621978 l 0.2285715,-0.03516 c 0.057143,0 0.087912,-0.02637 0.087912,-0.07473 L 3.4835166,6.287912 C 3.5318686,5.813187 3.7296704,5.413187 4.0857144,5.096703 4.4417583,4.775824 4.8593408,4.617582 5.3428573,4.617582 c 0.4791208,0 0.8967032,0.158242 1.2527472,0.479121 0.356044,0.316484 0.5582418,0.716484 0.610989,1.195605 l 0.030769,0.254945 c 0,0.04835 0.026374,0.07473 0.083516,0.07473 l 0.7032967,0 c 0.4,0 0.7384616,0.140659 1.0197803,0.417582 0.2813186,0.276924 0.421978,0.610989 0.421978,1.002198 0,0.373627 -0.1318682,0.698901 -0.3912088,0.971429 -0.2593407,0.272527 -0.5802198,0.426373 -0.9626374,0.457143 -0.057143,0 -0.087912,0.02637 -0.087912,0.07912 l 0,0.602197 c 0,0.04835 0.030769,0.07473 0.087912,0.07473 C 8.6967027,10.208802 9.193406,9.984623 9.5978025,9.562645 10.002197,9.140667 10.204396,8.635173 10.204396,8.046162 c 0,-0.298901 -0.07033,-0.602198 -0.2065935,-0.90989 0.3428575,-0.413187 0.5186815,-0.892308 0.5186815,-1.437363 0,-0.312088 -0.06154,-0.610989 -0.184616,-0.896703 C 10.208792,4.516492 10.046153,4.274733 9.8395605,4.06814 9.6329665,3.861546 9.3868126,3.698909 9.1054939,3.575832 8.8197796,3.457151 8.5252741,3.395612 8.2131862,3.395612 c -0.6769231,0 -1.2483516,0.254945 -1.7054945,0.76044 C 6.1296697,3.975832 5.7428566,3.883524 5.3428566,3.883524 4.7186807,3.883524 4.1692302,4.072535 3.6901093,4.454953 3.2109884,4.837371 2.9032961,5.329678 2.7670324,5.936272 2.2835159,6.050557 1.8835159,6.301107 1.5670324,6.696711 1.2505493,7.092308 1.0923075,7.540659 1.0923075,8.046154 Z M 4.3890108,13 4.5208789,13 6.8593405,9.549451 c 0.017582,-0.01758 0.021978,-0.03956 0.00879,-0.06154 -0.013187,-0.02198 -0.030769,-0.03077 -0.061539,-0.03077 l -0.9582417,0 1.010989,-1.85055 c 0.030769,-0.06154 0.013187,-0.0967 -0.061539,-0.0967 l -1.2923077,0 c -0.035165,0 -0.065934,0.02198 -0.096703,0.06154 l -0.9494486,2.514283 c -0.00879,0.06154 0.00879,0.09231 0.061538,0.09231 l 0.9538462,0 L 4.3890108,13 Z M 4.775824,2.635165 c 0,0.10989 0.035165,0.202198 0.1054945,0.272527 l 0.2901099,0.285715 c 0.1846154,0.140659 0.3604395,0.140659 0.5318681,0 0.07033,-0.07912 0.1054945,-0.171429 0.1054945,-0.281319 0,-0.101099 -0.035165,-0.189011 -0.1054945,-0.259341 L 5.4219778,2.367033 c -0.083516,-0.07473 -0.1714285,-0.10989 -0.2725274,-0.10989 -0.1010989,0 -0.189011,0.03516 -0.2637363,0.10989 C 4.8109891,2.441753 4.775824,2.534066 4.775824,2.635165 Z M 7.1230767,4.582418 C 7.4219778,4.283516 7.786813,4.134066 8.2131866,4.134066 c 0.4307693,0 0.7956044,0.153846 1.0945055,0.457143 0.3032964,0.303296 0.4527474,0.672527 0.4527474,1.107692 0,0.268132 -0.07473,0.531868 -0.224176,0.795604 C 9.1054943,6.081319 8.5999998,5.874725 8.0153844,5.874725 l -0.1362637,0 C 7.764835,5.373626 7.5098899,4.942857 7.1230767,4.582418 Z M 7.8351646,2.257143 c 0,0.10989 0.035165,0.202198 0.1054945,0.272527 0.07033,0.07033 0.1582418,0.105495 0.2681319,0.105495 0.1054945,0 0.189011,-0.03516 0.2593407,-0.105495 0.07033,-0.07033 0.1010989,-0.162637 0.1010989,-0.272527 l 0,-0.896703 c 0,-0.105495 -0.035165,-0.189011 -0.1010989,-0.259341 C 8.397802,1.030769 8.3142855,1 8.208791,1 8.1032965,1 8.0153844,1.03516 7.9450548,1.101099 7.8747248,1.167029 7.8351646,1.254945 7.8351646,1.36044 l 0,0.896703 z m 2.4263744,1.01978 c 0,0.101099 0.03956,0.189011 0.118681,0.263736 0.07912,0.07473 0.162637,0.10989 0.241758,0.10989 0.07033,0 0.162638,-0.03516 0.272528,-0.10989 l 0.632967,-0.628571 c 0.07472,-0.07912 0.10989,-0.171429 0.10989,-0.276923 0,-0.105495 -0.03517,-0.197802 -0.10989,-0.268132 -0.07473,-0.07033 -0.162638,-0.105495 -0.263736,-0.105495 -0.0967,0 -0.18022,0.03516 -0.254945,0.109891 L 10.38022,3 C 10.3011,3.08352 10.261539,3.175824 10.261539,3.276923 Z m 0.356044,5.195604 c 0,0.101099 0.03517,0.189011 0.105494,0.268132 l 0.285715,0.29011 c 0.07033,0.07033 0.158241,0.105495 0.254945,0.105495 0.105494,0 0.193406,-0.03516 0.263736,-0.10989 0.07472,-0.07473 0.10989,-0.167033 0.10989,-0.276923 0,-0.101099 -0.03517,-0.184616 -0.10989,-0.25055 l -0.272528,-0.29011 c -0.08352,-0.07033 -0.171428,-0.101099 -0.272527,-0.101099 -0.101099,0 -0.189011,0.03517 -0.259341,0.105495 -0.07033,0.07033 -0.105494,0.158242 -0.105494,0.25934 z m 0.637362,-2.773626 c 0,0.0967 0.03956,0.18022 0.114286,0.25055 0.07472,0.07472 0.162637,0.10989 0.263736,0.10989 l 0.896704,0 c 0.105494,0 0.193405,-0.03517 0.268132,-0.105495 0.07473,-0.07033 0.10989,-0.153846 0.10989,-0.259341 0,-0.105494 -0.03956,-0.193406 -0.114286,-0.268131 -0.07472,-0.07473 -0.162637,-0.10989 -0.263736,-0.10989 l -0.896704,0 c -0.101099,0 -0.189011,0.03516 -0.263736,0.10989 -0.07473,0.07912 -0.114286,0.167033 -0.114286,0.272527 z"/>
</svg>
