<svg aria-hidden="true" xmlns="http://www.w3.org/2000/svg" viewBox="0 0 14 14" height="1em" width="1em">
  <path d="M1 8.148c0 .497.147.942.444 1.332.298.391.68.653 1.146.782l-.293.755c-.022.062 0 .098.062.098h.946l-.635 1.87h.129l1.936-2.514c.018-.018.018-.04.009-.062-.009-.023-.031-.032-.062-.032h-.973l1.106-2.065c.031-.062.013-.097-.062-.097H3.438c-.04 0-.075.022-.102.066l-.475 1.28a1.394 1.394 0 0 1-.79-.516 1.395 1.395 0 0 1-.312-.897c0-.373.125-.697.373-.968.25-.271.565-.43.938-.475l.226-.014c.053 0 .084-.022.098-.062l.03-.262a1.82 1.82 0 0 1 .61-1.208 1.833 1.833 0 0 1 1.27-.488c.484 0 .905.164 1.27.488.364.324.573.728.621 1.208l.036.262c0 .049.027.076.08.076h.715c.395 0 .737.142 1.026.426.288.284.43.622.43 1.017 0 .386-.133.72-.4 1.004a1.389 1.389 0 0 1-.967.457c-.058 0-.09.027-.09.08v.595c0 .05.032.076.09.076a2.07 2.07 0 0 0 1.074-.32 2.224 2.224 0 0 0 1.057-1.892c0-.324-.062-.622-.19-.897.337-.426.506-.915.506-1.461 0-.422-.107-.813-.316-1.173a2.31 2.31 0 0 0-.852-.852 2.298 2.298 0 0 0-2.105-.116c-.302.133-.56.32-.782.555a2.529 2.529 0 0 0-1.208-.288c-.63 0-1.19.195-1.674.586-.484.39-.8.888-.933 1.497a2.144 2.144 0 0 0-1.217.772A2.196 2.196 0 0 0 1 8.148ZM4.735 2.69c0 .102.036.19.111.266l.289.293a.383.383 0 0 0 .244.116c.093.013.182-.018.27-.102a.368.368 0 0 0 .134-.284.362.362 0 0 0-.11-.267l-.28-.293a.362.362 0 0 0-.267-.107.393.393 0 0 0-.28.107.399.399 0 0 0-.111.27zm.524 8.158c0 .107.036.196.107.262.07.071.16.107.257.107a.379.379 0 0 0 .271-.107.346.346 0 0 0 .111-.262.365.365 0 0 0-.11-.27.37.37 0 0 0-.272-.116.355.355 0 0 0-.257.115.361.361 0 0 0-.107.271zm0-1.616c0 .106.036.19.107.257a.39.39 0 0 0 .528.005.348.348 0 0 0 .111-.262.362.362 0 0 0-.11-.267.365.365 0 0 0-.272-.11.337.337 0 0 0-.257.11.376.376 0 0 0-.107.267zm0 3.246c0 .098.036.182.107.253a.35.35 0 0 0 .257.111.379.379 0 0 0 .271-.106.34.34 0 0 0 .111-.262.365.365 0 0 0-.11-.271.37.37 0 0 0-.272-.116.355.355 0 0 0-.257.116.405.405 0 0 0-.107.275zm1.435-2.491a.35.35 0 0 0 .11.266.373.373 0 0 0 .53 0 .376.376 0 0 0 0-.524.352.352 0 0 0-.263-.106.376.376 0 0 0-.266.106.337.337 0 0 0-.111.258zm0 1.616a.362.362 0 0 0 .373.364.352.352 0 0 0 .262-.106.348.348 0 0 0 .102-.262.348.348 0 0 0-.364-.364.376.376 0 0 0-.267.102.362.362 0 0 0-.106.266zm.444-6.946c.297-.284.657-.43 1.088-.43.435 0 .808.15 1.114.457.307.302.462.675.462 1.11 0 .293-.07.56-.208.804a2.124 2.124 0 0 0-1.564-.64h-.137a2.513 2.513 0 0 0-.755-1.3Zm.71-2.34c0 .106.036.195.111.27a.362.362 0 0 0 .267.112.349.349 0 0 0 .266-.111.379.379 0 0 0 .107-.271v-.915c0-.107-.036-.2-.107-.271a.353.353 0 0 0-.266-.115.349.349 0 0 0-.267.11.383.383 0 0 0-.11.271v.92zm2.478 1.017a.376.376 0 0 0 .347.382.345.345 0 0 0 .28-.116l.64-.64a.338.338 0 0 0 .115-.266.353.353 0 0 0-.116-.266.338.338 0 0 0-.266-.116.34.34 0 0 0-.258.116l-.64.64a.345.345 0 0 0-.102.266zm.342 5.29c0 .101.036.19.111.266l.29.28a.39.39 0 0 0 .274.11l.01.01a.29.29 0 0 0 .24-.12.338.338 0 0 0 .115-.267.384.384 0 0 0-.116-.27l-.275-.276a.372.372 0 0 0-.271-.12.353.353 0 0 0-.267.115.39.39 0 0 0-.11.271zm.653-2.83c0 .107.04.196.116.262.07.08.16.116.266.116h.915a.365.365 0 0 0 .271-.111.362.362 0 0 0 .111-.267.356.356 0 0 0-.111-.266.379.379 0 0 0-.27-.107h-.916a.37.37 0 0 0-.27.107.349.349 0 0 0-.112.266z"/>
</svg>
