<svg role="img" focusable="false" aria-hidden="true" xmlns="http://www.w3.org/2000/svg" viewBox="0 0 14 14" height="1em" width="1em">
  <path d="m 1,10.47929 c 0,0.106508 0.039941,0.195267 0.1198225,0.266273 0.075444,0.07544 0.1642012,0.110946 0.27071,0.110946 l 2.6094675,0 c 0.1153846,0 0.2130178,0.03994 0.3017751,0.124261 0.088757,0.08432 0.1331361,0.18639 0.1331361,0.301775 0,0.115385 -0.044379,0.221893 -0.1331361,0.306213 C 4.2130181,11.673078 4.1153846,11.717456 4,11.717456 c -0.1153846,0 -0.2130178,-0.04438 -0.3017751,-0.133136 -0.079882,-0.07101 -0.1686391,-0.106509 -0.2707101,-0.106509 -0.1065089,0 -0.1952663,0.0355 -0.2662722,0.106509 -0.071006,0.07101 -0.1065089,0.159763 -0.1065089,0.266272 0,0.106509 0.035503,0.195266 0.1065089,0.266272 0.2352071,0.235208 0.5147929,0.35503 0.8387574,0.35503 0.3284024,0 0.6079882,-0.115385 0.8343195,-0.346154 0.2263314,-0.23077 0.3461539,-0.510355 0.3461539,-0.838757 0,-0.328403 -0.1153846,-0.607988 -0.3461539,-0.838758 C 4.6035503,10.217456 4.3239645,10.102072 4,10.102072 l -2.6094675,0 c -0.1065088,0 -0.1952662,0.0355 -0.2751479,0.110945 C 1.0399408,10.288462 1,10.377219 1,10.47929 Z M 1,9.1434915 c 0,0.102071 0.039941,0.18639 0.1198225,0.257396 0.071006,0.07101 0.1642012,0.106509 0.27071,0.106509 l 4.8683432,0 c 0.3284024,0 0.6079882,-0.115385 0.8387574,-0.346154 0.2307693,-0.230769 0.3461539,-0.510355 0.3461539,-0.838757 0,-0.328403 -0.1153846,-0.603551 -0.3461539,-0.83432 -0.2307692,-0.226331 -0.510355,-0.341716 -0.8387574,-0.341716 -0.3372781,0 -0.612426,0.110947 -0.8343195,0.337278 -0.071006,0.07101 -0.102071,0.164202 -0.102071,0.27071 0,0.106509 0.035503,0.195267 0.102071,0.266273 0.066568,0.06657 0.1553255,0.102071 0.2662722,0.102071 0.1065089,0 0.1952663,-0.0355 0.2751479,-0.102071 0.08432,-0.08432 0.1819527,-0.124261 0.3017752,-0.124261 0.1198225,0 0.2174556,0.03994 0.3017751,0.124261 0.08432,0.08432 0.1286983,0.18639 0.1286983,0.301775 0,0.119822 -0.044379,0.221893 -0.1286983,0.306213 -0.08432,0.08432 -0.1863905,0.128698 -0.3017751,0.128698 l -4.877219,0 c -0.1065088,0 -0.1952662,0.03994 -0.2751479,0.115385 C 1.0399408,8.9526625 1,9.0414205 1,9.1434915 Z m 2.5695266,-2.902367 c 0,-0.106509 0.039941,-0.195267 0.1153846,-0.275148 0.079882,-0.07101 0.1686391,-0.106509 0.2662722,-0.106509 l 0.9008876,0 c 0.102071,0 0.1863905,0.0355 0.2573965,0.110947 0.071006,0.07544 0.102071,0.164201 0.102071,0.27071 0,0.106509 -0.035503,0.195266 -0.102071,0.266272 -0.071006,0.07544 -0.1553255,0.110947 -0.2573965,0.110947 l -0.9008876,0 c -0.1065088,0 -0.1952662,-0.0355 -0.27071,-0.110947 -0.075444,-0.07544 -0.1109468,-0.164201 -0.1109468,-0.266272 z m 1.2647929,-3.071006 c 0,-0.102071 0.035503,-0.190829 0.102071,-0.27071 0.08432,-0.07101 0.1819527,-0.106509 0.2840237,-0.106509 0.097633,0 0.1863905,0.0355 0.2618343,0.106509 l 0.6346154,0.652367 c 0.071006,0.06657 0.1065089,0.155325 0.1065089,0.261834 0,0.106509 -0.035503,0.195266 -0.1065089,0.266272 -0.071006,0.07101 -0.1597633,0.106509 -0.2618343,0.106509 -0.1065089,0 -0.1952663,-0.0355 -0.2618343,-0.106509 L 4.9408284,3.4452665 C 4.8698225,3.3698225 4.8343195,3.2810655 4.8343195,3.1701185 Z m 1.1360947,3.017751 0,-0.03107 c 0.00888,-0.403846 0.1198225,-0.776627 0.3284024,-1.122781 0.2130177,-0.341716 0.4926035,-0.612426 0.8431952,-0.81213 0.3505918,-0.199704 0.7322486,-0.297337 1.1405326,-0.297337 0.3106509,0 0.6079881,0.06213 0.8964497,0.18639 0.2840237,0.124261 0.5325439,0.288462 0.7366859,0.497042 0.20858,0.20858 0.372782,0.452662 0.492604,0.736686 0.119823,0.284024 0.181953,0.585799 0.181953,0.89645 0,0.41716 -0.102071,0.798816 -0.306213,1.153846 -0.204142,0.35503 -0.483728,0.634615 -0.8343199,0.838757 -0.3505917,0.20858 -0.7366863,0.310651 -1.1538461,0.315089 l -0.093195,0 c -0.031065,0 -0.057692,-0.0089 -0.075444,-0.03107 -0.022189,-0.02219 -0.031065,-0.04882 -0.031065,-0.07988 l 0,-0.54142 c 0,-0.05769 0.031065,-0.08876 0.097633,-0.08876 l 0.1065089,0 C 8.7263314,7.8032815 9.0946746,7.6523555 9.3964497,7.3417045 9.698225,7.0354915 9.85355,6.6671485 9.85355,6.2366755 c 0,-0.426036 -0.155325,-0.789941 -0.4615382,-1.096154 -0.306213,-0.301775 -0.6745562,-0.452663 -1.1094674,-0.452663 -0.4171598,0 -0.7810651,0.142012 -1.0828403,0.434912 -0.3017751,0.288461 -0.4615384,0.639053 -0.4792899,1.051775 0,0.02663 -0.013314,0.04882 -0.035503,0.07544 -0.022189,0.02663 -0.06213,0.03994 -0.1153846,0.03994 l -0.5014793,0 c -0.066568,0.0044 -0.097633,-0.03106 -0.097633,-0.102071 z m 1.9304734,4.3846165 0,-0.8831365 c 0,-0.106509 0.035503,-0.195267 0.1109467,-0.266273 0.075444,-0.071 0.1642012,-0.106508 0.2662722,-0.106508 0.1109468,0 0.1997042,0.0355 0.2707101,0.106508 0.071006,0.07101 0.1065088,0.159764 0.1065088,0.266273 l 0,0.8831365 c 0,0.106509 -0.035503,0.199704 -0.1109467,0.275148 -0.075444,0.07544 -0.1642012,0.110946 -0.2662722,0.110946 -0.1065089,0 -0.1952663,-0.0355 -0.2662722,-0.110946 -0.071006,-0.07544 -0.1109467,-0.168639 -0.1109467,-0.275149 z m 0,-7.7573975 0,-0.909763 c 0,-0.102071 0.035503,-0.190828 0.1109467,-0.266272 0.075444,-0.07544 0.1642012,-0.110947 0.2662722,-0.110947 0.1065089,0 0.1952663,0.0355 0.2662722,0.110947 0.071006,0.07544 0.1109467,0.164201 0.1109467,0.266272 l 0,0.905325 c 0,0.102071 -0.035503,0.186391 -0.1109467,0.257397 -0.075444,0.06657 -0.1642012,0.102071 -0.2662722,0.102071 -0.1065089,0 -0.1952663,-0.0355 -0.2662722,-0.102071 -0.071006,-0.06657 -0.1109467,-0.150888 -0.1109467,-0.252959 z m 2.4541424,5.849113 c 0,-0.102071 0.0355,-0.186391 0.102071,-0.248521 0.06657,-0.07101 0.150887,-0.102071 0.252958,-0.102071 0.106509,0 0.195266,0.0355 0.266272,0.102071 l 0.643491,0.630177 c 0.07101,0.07544 0.106509,0.16864 0.106509,0.270711 0,0.102071 -0.0355,0.190828 -0.106509,0.261834 -0.177514,0.137574 -0.355029,0.137574 -0.532544,0 l -0.630177,-0.634616 c -0.07101,-0.071 -0.102071,-0.168639 -0.102071,-0.279585 z m 0,-4.850592 c 0,-0.110947 0.0355,-0.199704 0.102071,-0.261834 l 0.630177,-0.652367 c 0.07988,-0.07101 0.164201,-0.106509 0.261834,-0.106509 0.102071,0 0.190829,0.0355 0.266273,0.110947 0.07544,0.07544 0.110946,0.164201 0.110946,0.266272 0,0.110947 -0.0355,0.204142 -0.106509,0.275148 l -0.643491,0.634615 c -0.07988,0.07101 -0.168639,0.106509 -0.266272,0.106509 -0.102071,0 -0.181952,-0.0355 -0.252958,-0.106509 -0.07101,-0.07101 -0.102071,-0.159763 -0.102071,-0.266272 z m 1.002958,2.427515 c 0,-0.106509 0.0355,-0.195267 0.106509,-0.275148 0.07101,-0.07101 0.155325,-0.106509 0.252959,-0.106509 l 0.896449,0 c 0.102071,0 0.190829,0.03994 0.27071,0.115385 C 12.964495,6.0502925 13,6.1390535 13,6.2411245 c 0,0.102071 -0.03994,0.190828 -0.115385,0.266272 -0.07988,0.07544 -0.168639,0.110947 -0.27071,0.110947 l -0.896449,0 c -0.102071,0 -0.186391,-0.0355 -0.257397,-0.110947 -0.07101,-0.07101 -0.102071,-0.159763 -0.102071,-0.266272 z"/>
</svg>
