<svg role="img" focusable="false" aria-hidden="true" xmlns="http://www.w3.org/2000/svg" viewBox="0 0 14 14" height="1em" width="1em">
  <path d="m 1,8.148037 c 0,0.497409 0.1465581,0.941524 0.4441155,1.332346 0.2975573,0.390822 0.6794966,0.65285 1.1458179,0.781643 l -0.2931162,0.754996 c -0.022206,0.06218 0,0.09771 0.062176,0.09771 l 0.945966,0 -0.6350851,1.869726 0.1287935,0 1.9363434,-2.513694 c 0.017765,-0.01776 0.017765,-0.03997 0.00888,-0.06218 -0.00888,-0.0222 -0.031088,-0.03109 -0.062176,-0.03109 l -0.9726128,0 1.1058475,-2.065137 c 0.03109,-0.06217 0.013326,-0.0977 -0.062174,-0.0977 l -1.3145818,0 c -0.03997,0 -0.0755,0.02221 -0.1021465,0.06662 L 2.8608438,9.560324 C 2.5410807,9.480383 2.2746114,9.311619 2.0703183,9.04515 1.861584,8.783122 1.7594375,8.485564 1.7594375,8.148037 1.7594375,7.77498 1.8837898,7.450775 2.1324944,7.179865 2.3811991,6.908954 2.6965211,6.749073 3.0695781,6.704661 L 3.296077,6.691341 c 0.053294,0 0.084382,-0.02221 0.097705,-0.06218 L 3.42487,6.367132 C 3.473723,5.887488 3.6735746,5.483343 4.0333082,5.159138 4.3930417,4.834934 4.8149514,4.670611 5.3034784,4.670611 c 0.4840859,0 0.9059956,0.164323 1.2701702,0.488527 0.3641747,0.324205 0.572909,0.72835 0.6217617,1.207994 l 0.035529,0.262029 c 0,0.04885 0.026647,0.0755 0.079941,0.0755 l 0.7150259,0 c 0.3952628,0 0.7372317,0.142117 1.0259068,0.426351 0.288675,0.284234 0.430792,0.621762 0.430792,1.017025 0,0.38638 -0.1332347,0.719467 -0.3997039,1.0037 -0.2664693,0.284234 -0.5862325,0.435234 -0.9681718,0.457439 -0.057735,0 -0.088823,0.02665 -0.088823,0.07994 l 0,0.595115 c 0,0.04885 0.031088,0.0755 0.088823,0.0755 0.3908216,-0.0089 0.7505552,-0.11547 1.0747595,-0.319764 C 9.513693,9.840115 9.771281,9.569205 9.962249,9.236118 c 0.19097,-0.333086 0.284234,-0.697261 0.284234,-1.088082 0,-0.324205 -0.06218,-0.621762 -0.19097,-0.897114 0.337528,-0.426351 0.506292,-0.914878 0.506292,-1.46114 0,-0.421909 -0.106588,-0.812731 -0.315322,-1.172464 C 10.03775,4.257585 9.753516,3.973351 9.3937824,3.764617 9.0340489,3.555883 8.6432272,3.449295 8.2213175,3.449295 c -0.3197631,0 -0.6306439,0.06662 -0.9326424,0.199852 C 6.9866765,3.782381 6.7290896,3.96891 6.5070318,4.204291 6.1472983,4.013322 5.7475944,3.915616 5.2990377,3.915616 4.6683938,3.915616 4.1088083,4.111027 3.6247224,4.501849 3.1406366,4.89267 2.8253146,5.390079 2.6920799,5.998518 2.1991118,6.113988 1.7949667,6.371575 1.4752036,6.771279 1.1598816,7.179865 1,7.637304 1,8.148037 Z m 3.6328645,4.405625 c 0,0.06662 0.022206,0.137676 0.071058,0.208734 0.048853,0.07106 0.11547,0.119911 0.2042931,0.151 0.048853,0.01332 0.088823,0.01776 0.1110289,0.01776 0.066617,0 0.1243523,-0.01332 0.1687639,-0.03553 0.093264,-0.03553 0.1598816,-0.119911 0.1909696,-0.253146 l 0.1199112,-0.457439 c 0.026647,-0.111029 0.013324,-0.208734 -0.035529,-0.297557 -0.048853,-0.08882 -0.1332347,-0.142117 -0.2353812,-0.164323 -0.093264,-0.03109 -0.1820874,-0.01777 -0.2753516,0.03109 -0.093264,0.05329 -0.1554404,0.128794 -0.1865285,0.23094 L 4.65507,12.447071 c -0.013323,0.06218 -0.022206,0.09771 -0.022206,0.106588 z M 4.7350111,2.689857 c 0,0.102147 0.035529,0.19097 0.1110289,0.26647 l 0.288675,0.293116 c 0.071058,0.07106 0.1509993,0.106588 0.2442635,0.11547 0.093264,0.01332 0.1820874,-0.01777 0.2709105,-0.102147 0.088823,-0.07994 0.1332346,-0.173205 0.1332346,-0.284234 0,-0.102146 -0.035529,-0.190969 -0.1110289,-0.266469 L 5.392302,2.418947 C 5.321243,2.347887 5.2324204,2.312359 5.1258327,2.312359 c -0.1110289,0 -0.2042931,0.03553 -0.2797927,0.106588 -0.071058,0.07994 -0.1110289,0.168764 -0.1110289,0.27091 z m 0.4929682,7.732051 c -0.00444,0.07106 0.017765,0.142117 0.062176,0.208734 0.044412,0.06662 0.1154701,0.11547 0.2131755,0.142117 0.093264,0.03109 0.1865285,0.02221 0.2753516,-0.02665 0.088823,-0.04885 0.1509992,-0.133235 0.1865285,-0.248705 L 6.0984455,10.039965 C 6.1295335,9.942265 6.1162105,9.848996 6.0629165,9.760173 6.0096225,9.671353 5.9296818,9.609173 5.8230941,9.578085 5.7209475,9.546995 5.6276833,9.555885 5.5388602,9.609175 5.4500372,9.662465 5.3878609,9.737969 5.3567729,9.844557 L 5.250185,10.310879 c -0.013323,0.06662 -0.022206,0.102146 -0.022206,0.111029 z m 1.2568468,0.746114 c 0,0.06218 0.013323,0.124352 0.044412,0.173205 0.057735,0.09326 0.1376758,0.159881 0.2398224,0.190969 0.048853,0.01777 0.093264,0.02665 0.1243523,0.02665 0.057735,0 0.1021465,-0.0089 0.1376758,-0.03553 0.088823,-0.03109 0.1554404,-0.119911 0.1998519,-0.266469 L 7.3419694,10.80829 C 7.3730574,10.701702 7.3641754,10.608438 7.3108814,10.519615 7.2620284,10.430795 7.1865291,10.373057 7.0843825,10.34641 6.982236,10.31532 6.8845306,10.3242 6.7957075,10.3775 6.7068845,10.42635 6.6447082,10.501853 6.6136201,10.603999 l -0.1243523,0.46188 c 0,0.03553 -0.00444,0.07106 -0.00444,0.102147 z M 7.0932642,9.027385 c 0,0.07994 0.022206,0.150999 0.071058,0.222058 0.048853,0.07106 0.1199112,0.119911 0.2176166,0.146558 0.0755,0.02665 0.1643227,0.01777 0.2709104,-0.02221 0.088823,-0.03997 0.1509993,-0.124352 0.1909697,-0.253146 L 7.9637306,8.676534 C 7.9903776,8.565505 7.9814956,8.4678 7.9282016,8.378977 7.8749076,8.290157 7.7994081,8.23686 7.6928204,8.214654 7.5906739,8.183564 7.4974096,8.192444 7.4085865,8.241304 7.3197635,8.290154 7.2620284,8.365656 7.2309403,8.463362 L 7.1021469,8.934124 c -0.00444,0.06218 -0.00888,0.09326 -0.00888,0.09326 z M 7.1376762,4.657289 C 7.4352336,4.373055 7.7949671,4.226497 8.2257591,4.226497 c 0.4352332,0 0.8082902,0.150999 1.1147298,0.457439 0.3064391,0.301998 0.4618801,0.675055 0.4618801,1.110289 0,0.293116 -0.07106,0.559585 -0.208735,0.803849 C 9.1672835,6.171723 8.6476684,5.958547 8.0303479,5.958547 l -0.1376758,0 C 7.7638786,5.43005 7.5107328,4.994817 7.1376758,4.657289 Z M 7.8482609,2.3168 c 0,0.106588 0.035529,0.195411 0.1110289,0.270911 0.0755,0.0755 0.1643227,0.111029 0.2664693,0.111029 0.1065877,0 0.1954108,-0.03553 0.2664693,-0.111029 0.071059,-0.0755 0.1065877,-0.164323 0.1065877,-0.270911 l 0,-0.914877 c 0,-0.106588 -0.035529,-0.199852 -0.1065877,-0.270911 -0.071058,-0.0755 -0.1598816,-0.11547 -0.2664693,-0.11547 -0.1065877,0 -0.1954108,0.03553 -0.2664693,0.111029 -0.071058,0.0755 -0.1110289,0.164323 -0.1110289,0.27091 l 0,0.919319 z m 2.4781641,1.017025 c 0,0.106588 0.03553,0.195411 0.102146,0.266469 0.06218,0.07106 0.142117,0.106588 0.244264,0.11547 0.102146,0.0089 0.195411,-0.03109 0.279793,-0.11547 l 0.639526,-0.639526 c 0.07994,-0.07106 0.11547,-0.159882 0.11547,-0.266469 0,-0.106588 -0.03997,-0.195411 -0.11547,-0.26647 -0.07106,-0.07994 -0.159882,-0.11547 -0.266469,-0.11547 -0.102147,0 -0.186529,0.03997 -0.257587,0.11547 l -0.639527,0.639527 c -0.07106,0.06662 -0.102146,0.15544 -0.102146,0.266469 z m 0.341969,5.289415 c 0,0.102147 0.03553,0.19097 0.111029,0.266469 l 0.288675,0.279793 c 0.07994,0.0755 0.173205,0.111029 0.275351,0.111029 l 0.0089,0.0089 c 0.0977,0 0.177646,-0.03997 0.239822,-0.119911 0.07994,-0.07106 0.11547,-0.159881 0.11547,-0.266469 0,-0.102147 -0.03997,-0.19097 -0.11547,-0.270911 L 11.316819,8.356789 c -0.07994,-0.07994 -0.168764,-0.119911 -0.27091,-0.119911 -0.106588,0 -0.195411,0.03997 -0.266469,0.11547 -0.07106,0.0755 -0.111029,0.168764 -0.111029,0.27091 z m 0.65285,-2.829015 c 0,0.106587 0.03997,0.19541 0.11547,0.262028 0.07106,0.07994 0.159881,0.11547 0.266469,0.11547 l 0.914878,0 c 0.106587,0 0.195411,-0.03553 0.27091,-0.111029 C 12.964471,5.985194 13,5.896371 13,5.794225 13,5.692078 12.96447,5.598814 12.888971,5.527755 12.813471,5.456695 12.724648,5.421168 12.618061,5.421168 l -0.914878,0 c -0.106588,0 -0.199852,0.03553 -0.270911,0.106587 -0.0755,0.07106 -0.111028,0.159882 -0.111028,0.26647 z"/>
</svg>
