<svg role="img" focusable="false" aria-hidden="true" xmlns="http://www.w3.org/2000/svg" viewBox="0 0 14 14" height="1em" width="1em">
  <path d="m 9.7473736,12.9178 c -0.014,-0.045 -0.091,-0.1943 -0.1723,-0.3311 -0.1418,-0.24 -0.2226,-0.4526 -0.6855,-1.8034 -0.245,-0.7151 -0.5451,-1.3545 -0.7515,-1.6014 -0.1544,-0.1847 -0.2104,-0.2031 -0.3214,-0.1056 -0.058,0.051 -0.052,0.024 0.034,-0.1364 0.059,-0.1102 0.1477,-0.2211 0.198,-0.2464 0.058,-0.029 0.2491,-0.046 0.5156,-0.047 l 0.4242,-6e-4 0.4274,0.4689 c 0.2351,0.2579 0.4526,0.5048 0.4834,0.5488 0.031,0.044 0.082,0.08 0.1136004,0.08 0.045,0 0.053,-0.027 0.037,-0.1293 -0.036,-0.2198 -0.1875004,-0.5015 -0.3887004,-0.7213 -0.1789,-0.1954 -0.1862,-0.2104 -0.1028,-0.2104 0.07,0 0.1256,0.054 0.2545,0.2479 0.1372,0.2062 0.2224004,0.2858 0.5084004,0.4742 0.3267,0.2153 0.3604,0.2288 0.6821,0.2725 0.2052,0.028 0.3384,0.063 0.3384,0.088 0,0.099 -0.1266,0.1375 -0.5249,0.1592 -0.354,0.019 -0.4281,0.035 -0.5342,0.1102 -0.079,0.056 -0.191,0.093 -0.3124004,0.1035 -0.1841,0.015 -0.1923,0.012 -0.305,-0.1306 -0.08,-0.1015 -0.1545,-0.1535 -0.242,-0.1699 -0.1599,-0.03 -0.1852,-0.098 -0.1852,-0.4967 l 0,-0.311 -0.1646,-0.081 c -0.091,-0.045 -0.286,-0.1 -0.4342,-0.1224 -0.232,-0.035 -0.2775,-0.033 -0.3263,0.015 -0.051,0.051 -0.038,0.096 0.1317,0.4582 0.1035,0.2208 0.2557,0.5714 0.338,0.7791 0.082,0.2077 0.1877,0.4435 0.2341,0.524 0.046,0.08 0.1272,0.2862 0.1796,0.4573 0.052,0.171 0.1295,0.3603 0.1713,0.4207 0.042,0.06 0.1404,0.2468 0.2191,0.4144 0.079,0.1675 0.199,0.3815 0.2675,0.4756 0.1344,0.1848 0.2436004,0.3829 0.2436004,0.4421 0,0.065 -0.1574004,0.1862 -0.2423004,0.1862 -0.053,0 -0.091,-0.029 -0.1075,-0.082 z m -3.8341,-0.9049 c -0.138,-0.061 -0.3437,-0.1202 -0.4573,-0.1318 -0.2773,-0.028 -0.4072,-0.082 -0.4466,-0.186 -0.018,-0.048 -0.044,-0.2421 -0.057,-0.4325 -0.019,-0.2697 -0.039,-0.3598 -0.092,-0.4076 -0.092,-0.083 -0.086,-0.1131 0.048,-0.2388 0.1416,-0.1322 0.4694,-0.6436 0.4694,-0.7322 0,-0.083 -0.1089,-0.14 -0.2693,-0.14 -0.094,0 -0.1476,0.025 -0.2037,0.096 -0.042,0.053 -0.076,0.1123 -0.076,0.1317 0,0.019 -0.026,0.09 -0.058,0.1579 -0.07,0.1465 -0.2698,0.2358 -0.5674,0.2532 -0.1086,0.01 -0.2881,0.023 -0.3988,0.038 -0.2915,0.038 -0.4795,-0.024 -0.6381,-0.2087 -0.116,-0.1355 -0.1302,-0.1747 -0.1302,-0.3594 0,-0.2453 -0.043,-0.297 -0.311,-0.3711 -0.1766,-0.049 -0.1833,-0.056 -0.1948,-0.1956 -0.015,-0.1784 -0.06,-0.2371 -0.1846,-0.2378 -0.1643,-10e-4 -0.2066,-0.053 -0.1992,-0.2445 0,-0.096 0.017,-0.2293 0.029,-0.2963 0.02,-0.1066 0.01,-0.1366 -0.1073,-0.241 -0.1037,-0.095 -0.1301,-0.1464 -0.1301,-0.2529 0,-0.103 -0.022,-0.1478 -0.093,-0.1949 -0.1562,-0.1024 -0.2077,-0.2456 -0.1804,-0.5016 0.023,-0.2124 0.018,-0.2304 -0.072,-0.3092 -0.094,-0.081 -0.096,-0.092 -0.073,-0.3841 0.023,-0.2976 0.023,-0.3017 -0.088,-0.4237 -0.1274,-0.141 -0.1941,-0.3026 -0.1527,-0.3696 0.074,-0.1196 0.6682,-0.1452 0.8788,-0.038 0.1849,0.094 0.214,0.092 0.2561,-0.018 0.039,-0.1038 0.1031,-0.1125 0.3468,-0.047 0.2027,0.054 0.2335,0.029 0.2612,-0.2115 0.018,-0.1517 0,-0.2177 -0.092,-0.4179 -0.062,-0.1308 -0.1131,-0.2659 -0.1132,-0.3002 0,-0.072 0.1973,-0.1383 0.4107,-0.1387 0.2014,-3e-4 0.2683,-0.116 0.2138,-0.3701 -0.034,-0.1569 -0.031,-0.2 0.013,-0.2492 0.035,-0.038 0.058,-0.1568 0.065,-0.333 0.011,-0.2638 0.014,-0.273 0.097,-0.2614 0.236,0.033 0.3559,-0.1212 0.3112,-0.4008 -0.022,-0.1388 -0.02,-0.1418 0.09,-0.1418 0.062,0 0.122,-0.016 0.1338,-0.035 0.012,-0.019 0,-0.1348 -0.03,-0.2568 -0.029,-0.1248 -0.037,-0.2308 -0.019,-0.2421 0.018,-0.011 0.088,0.014 0.1551,0.056 0.067,0.042 0.1329,0.076 0.1456,0.076 0.05,0 0.019,-0.1138 -0.05,-0.1829 -0.041,-0.041 -0.073,-0.122 -0.073,-0.183 0,-0.09 0.015,-0.1097 0.084,-0.1097 0.1589,0 0.1732,-0.054 0.1478,-0.5559 -0.013,-0.2577 -0.012,-0.4685 0,-0.4685 0.051,0 0.4309,0.3299 0.5459,0.4735 0.1274,0.1593 0.1858,0.1803 0.2385,0.086 0.03,-0.054 0.043,-0.055 0.096,-0.011 0.034,0.028 0.1106,0.1223 0.1705,0.2094 0.06,0.087 0.1225,0.1499 0.1391,0.1397 0.017,-0.01 0.041,-0.076 0.054,-0.1471 0.03,-0.1593 0.1006,-0.1644 0.1958,-0.014 l 0.072,0.1143 -0.1661,0.2425 c -0.1643,0.2398 -0.2508,0.3338 -0.3072,0.3338 -0.016,0 -0.078,-0.097 -0.1374,-0.2147 -0.1172,-0.2323 -0.5332,-0.7365 -0.6075,-0.7365 -0.1046,0 -0.087,0.1341 0.055,0.4309 0.081,0.1693 0.1477,0.3271 0.1477,0.3507 0,0.024 0.041,0.1035 0.091,0.1775 0.05,0.074 0.091,0.1501 0.091,0.169 0,0.067 -0.236,0.067 -0.4548,10e-4 -0.2637,-0.08 -0.3867,-0.086 -0.3867,-0.019 0,0.027 0.031,0.077 0.069,0.1115 0.088,0.079 0.7433,0.3149 0.8764,0.3149 0.087,0 0.1173,0.032 0.2217,0.2358 0.067,0.1297 0.1152,0.2527 0.1081,0.2733 -0.01,0.021 -0.1885,-0.043 -0.4033,-0.141 -0.5075,-0.232 -0.5374,-0.2408 -0.5657,-0.1672 -0.056,0.1464 0.5822,0.6101 0.9721,0.7059 l 0.2568,0.063 0.1784,0.3474 c 0.19,0.37 0.3212,0.7214 0.2834,0.7591 -0.057,0.057 -0.7919,-0.2824 -1.0638,-0.4907 -0.3187,-0.2444 -0.9087,-0.6345 -0.9595,-0.6345 -0.072,0 -0.095,0.093 -0.045,0.1853 0.081,0.1516 0.3349,0.3979 0.6522,0.6328 0.3826,0.2833 0.6198,0.4179 1.0295,0.5836 0.4754,0.1925 0.5047,0.2098 0.5302,0.3133 0.013,0.053 0.1214,0.2969 0.2407,0.5424 0.2288,0.471 0.2457,0.5231 0.1692,0.5231 -0.091,0 -1.7873,-0.6028 -1.9876,-0.7065 -0.058,-0.03 -0.212,-0.1334 -0.3428,-0.2301 -0.2274,-0.1682 -0.8258,-0.4502 -0.9604,-0.4525 -0.1198,0 -0.06,0.09 0.1852,0.285 0.1346,0.1071 0.3379,0.2717 0.4518,0.3658 0.3356,0.2775 0.5785,0.4038 1.1717,0.6088 0.3081,0.1065 0.8319,0.2894 1.1639,0.4065 l 0.6037,0.2128 0.2652,0.5325 0.2653,0.5326 -0.095,0.012 c -0.1383,0.017 -0.6103,-0.095 -0.9383,-0.2235 -0.2631,-0.1029 -0.2863,-0.1207 -0.3197,-0.2446 -0.048,-0.1799 -0.2231,-0.4368 -0.4211,-0.6193 -0.2926,-0.2697 -0.3428,-0.1641 -0.1314,0.2766 0.083,0.1735 0.1447,0.3222 0.1366,0.3303 -0.017,0.017 -1.0859,-0.1683 -1.1297,-0.1954 -0.015,-0.01 -0.028,-0.048 -0.028,-0.085 0,-0.1158 -0.245,-0.5459 -0.4619,-0.8111 -0.2472,-0.3021 -0.2675,-0.3165 -0.3281,-0.2336 -0.055,0.076 0.015,0.2859 0.2271,0.6735 0.07,0.1282 0.1187,0.2418 0.1081,0.2524 -0.035,0.035 -0.4373,-0.1377 -0.6317,-0.2704 -0.1545,-0.1055 -0.2012,-0.163 -0.2489,-0.3067 -0.071,-0.2149 -0.4013,-0.6949 -0.4777,-0.6949 -0.089,0 -0.1045,0.106 -0.043,0.2971 0.035,0.1081 0.042,0.1785 0.02,0.1785 -0.099,0 -0.487,-0.252 -0.8158,-0.5303 -0.2012,-0.1704 -0.387,-0.3101 -0.4127,-0.3104 -0.1736,0 -0.016,0.3496 0.3077,0.688 0.1282,0.134 0.233,0.2478 0.233,0.253 0,0.01 -0.021,0.01 -0.046,0.01 -0.1008,4e-4 -0.3211,0.079 -0.3764,0.1344 -0.054,0.054 -0.054,0.064 -6e-4,0.1169 0.08,0.08 0.53,0.097 0.7813,0.03 0.187,-0.05 0.198,-0.049 0.3109,0.035 0.064,0.048 0.1623,0.1154 0.2175,0.1506 0.055,0.035 0.1005,0.076 0.1006,0.091 0,0.015 -0.2138,0.027 -0.4754,0.027 -0.4416,0 -0.4756,0 -0.4756,0.069 0,0.083 0.1447,0.1568 0.4756,0.2432 0.1888,0.049 0.3237,0.057 0.6543,0.039 l 0.4165,-0.023 0.3975,0.1524 c 0.2187,0.084 0.3976,0.164 0.3976,0.1783 0,0.039 -0.3963,0.2389 -0.6037,0.3043 -0.1445,0.046 -0.9166,0.2074 -0.9896,0.2074 -0.01,0 -0.016,0.025 -0.016,0.056 0,0.088 0.1612,0.1271 0.5285,0.1271 0.2987,0 0.3852,-0.016 0.6996,-0.1299 0.1974,-0.071 0.4961,-0.2047 0.6638,-0.2961 l 0.305,-0.1662 0.3558,0.06 c 0.4764,0.08 0.7485,0.1595 0.7306,0.2143 -0.045,0.1388 -0.9586,0.6514 -1.6004,0.8984 -0.5056,0.1946 -1.2137,0.5284 -1.2342,0.5818 -0.03,0.078 0.064,0.1231 0.2099,0.099 0.266,-0.043 0.8032,-0.211 1.2598,-0.3936 0.3775,-0.151 0.6063,-0.2766 1.1316,-0.6213 0.3747,-0.2458 0.6809,-0.4233 0.7107,-0.4119 0.029,0.011 0.2069,0.056 0.3958,0.099 0.1889,0.043 0.3435,0.094 0.3435,0.112 0,0.068 -0.1845,0.3441 -0.3125,0.4671 -0.073,0.07 -0.164,0.1854 -0.2021,0.2558 -0.163,0.302 -0.1703,0.3053 -0.6563,0.2962 -0.4484,-0.01 -0.6618,0.04 -0.7082,0.1613 -0.041,0.1064 0.09,0.1462 0.4825,0.1462 0.2241,0 0.3888,0.015 0.3954,0.036 0.01,0.02 -0.034,0.092 -0.09,0.1591 l -0.1015,0.1224 -0.3485,-0.044 c -0.3015,-0.038 -0.38,-0.036 -0.5831,0.016 -0.2739,0.07 -0.3232,0.1062 -0.2671,0.1953 0.049,0.078 0.18,0.108 0.4962,0.1136 0.1346,0 0.2525,0.017 0.2619,0.032 0.01,0.015 -0.109,0.1706 -0.2631,0.3453 -0.1541,0.1748 -0.31,0.3683 -0.3465,0.43 -0.061,0.1032 -0.061,0.1141 -0.01,0.1354 0.086,0.033 0.2625,-0.061 0.5217,-0.2763 0.1232,-0.1026 0.233,-0.1865 0.2439,-0.1865 0.011,0 0.02,0.1468 0.02,0.3263 0,0.1794 0.01,0.3523 0.022,0.3841 0.032,0.083 0.1139,0.071 0.1748,-0.024 0.086,-0.1348 0.1804,-0.6383 0.157,-0.8355 -0.02,-0.1717 -0.016,-0.1827 0.1316,-0.323 0.084,-0.08 0.1577,-0.1403 0.1638,-0.1342 0.01,0.01 0.01,0.2645 0,0.5742 0,0.3096 -0.01,0.6206 -0.01,0.6911 5e-4,0.1733 -0.1527,0.2991 -0.3864,0.3174 -0.1299,0.01 -0.2297,-0.013 -0.4211,-0.097 z m 0.9278,-0.1082 c 0,-0.019 0.016,-0.044 0.035,-0.056 0.053,-0.033 0.2454,-0.6668 0.2735,-0.9017 0.016,-0.1362 0,-0.3256 -0.039,-0.5595 -0.057,-0.3194 -0.058,-0.3592 -0.01,-0.4104 0.051,-0.051 0.066,-0.045 0.15,0.066 0.051,0.067 0.1271,0.2013 0.1685,0.2978 0.078,0.1818 0.281,0.5005 0.3471,0.5449 0.021,0.014 0.061,0.01 0.089,-0.017 0.102,-0.085 0.028,-0.3862 -0.2122,-0.8654 -0.2152,-0.4293 -0.2223,-0.4521 -0.167,-0.5364 0.086,-0.1311 0.1123,-0.1079 0.099,0.087 l -0.012,0.1751 0.264,0.2452 0.264,0.2452 -0.029,0.1559 c -0.016,0.086 -0.031,0.2662 -0.032,0.4009 0,0.1347 -0.019,0.2602 -0.04,0.279 -0.02,0.019 -0.1235,0.062 -0.2298,0.097 -0.2561,0.083 -0.3914,0.2035 -0.524,0.4661 -0.083,0.165 -0.1397,0.2298 -0.2347,0.2695 -0.1474,0.062 -0.1639,0.063 -0.1639,0.018 z M 11.359374,9.5224 c -0.06,-0.039 -0.1921,-0.098 -0.2927,-0.1315 -0.3279,-0.1087 -0.9329,-0.5322 -0.9329,-0.6529 0,-0.025 0.2496,-0.065 0.6677,-0.106 l 0.6676,-0.066 0.3252,0.152 c 0.3099,0.1449 0.4248,0.1643 0.4248,0.072 0,-0.023 -0.06,-0.097 -0.1339,-0.1646 -0.098,-0.089 -0.1199,-0.1282 -0.082,-0.1427 0.029,-0.011 0.1753,-0.058 0.326,-0.1033 0.2173,-0.066 0.2741,-0.098 0.2741,-0.1538 0,-0.1125 -0.2563,-0.1451 -0.7253,-0.092 -0.2178,0.024 -0.4051,0.035 -0.4162,0.024 -0.011,-0.011 0.031,-0.063 0.094,-0.1164 0.063,-0.053 0.1144,-0.1282 0.1144,-0.1673 0,-0.2448 -0.5905,0.01 -0.6288,0.2686 -0.015,0.1001 -0.1155,0.1269 -0.6004,0.1594 -0.276,0.018 -0.3806,0.014 -0.3806,-0.016 0,-0.023 0.1111,-0.1138 0.247,-0.2018 0.4394,-0.2849 0.6448,-0.5712 0.4096,-0.5712 -0.043,0 -0.2427,0.085 -0.4447,0.1886 -0.3375004,0.1734 -0.3787004,0.2065 -0.5098004,0.4093 -0.079,0.1214 -0.149,0.227 -0.1566,0.2347 -0.027,0.027 -1.0455,-0.077 -1.0455,-0.107 0,-0.017 0.015,-0.031 0.034,-0.031 0.032,0 0.1603,-0.1556 0.4343,-0.5253 0.092,-0.1241 0.1521,-0.168 0.2561,-0.1871 0.2296,-0.042 0.8105004,-0.2922 1.6212004,-0.6979 0.6019,-0.3012 0.8185,-0.4291 0.9709,-0.5733 0.218,-0.2061 0.2542,-0.3213 0.101,-0.3213 -0.095,0 -0.4896,0.1878 -1.145,0.5446 -0.1892,0.1029 -0.3803,0.1871 -0.4248,0.1871 -0.044,0 -0.1778,0.051 -0.2963,0.1142 -0.4223004,0.2238 -0.6360004,0.3249 -0.6867004,0.3249 -0.04,0 -0.029,-0.06 0.049,-0.2653 0.055,-0.1459 0.1272,-0.3394 0.1603,-0.43 0.052,-0.1426 0.1009,-0.1917 0.3624,-0.3639 0.1662004,-0.1095 0.3928004,-0.2835 0.5034004,-0.3867 0.1107,-0.1032 0.3007,-0.2629 0.4223,-0.3549 0.3935,-0.298 0.671,-0.6694 0.5732,-0.7672 -0.06,-0.06 -0.1456,-0.01 -0.6568,0.3958 -0.8242,0.6518 -0.9619004,0.7563 -0.9768004,0.7414 -0.019,-0.019 0.063,-0.3745 0.1425004,-0.6127 0.036,-0.1082 0.089,-0.1934 0.1269,-0.2056 0.099,-0.031 0.3957,-0.3374 0.4997,-0.5148 0.1346,-0.2297 0.3519,-0.7864 0.3296,-0.8445 -0.053,-0.1374 -0.2071,0 -0.484,0.4254 l -0.1778,0.2744 -0.012,-0.128 c -0.025,-0.2598 0.03,-0.5021 0.1473,-0.6474 0.1037,-0.1289 0.3222,-0.5606 0.3222,-0.6365 0,-0.072 -0.1506,-0.027 -0.2743,0.081 -0.072,0.063 -0.1359,0.1084 -0.1423,0.1006 -0.01,-0.01 -0.032,-0.1704 -0.057,-0.3615 -0.059,-0.4546 -0.074,-0.5122 -0.133,-0.5122 -0.1035,0 -0.1337,0.1672 -0.1595004,0.8839 -0.03,0.8336 -0.05,0.8933 -0.2302,0.6892 -0.062,-0.07 -0.1766,-0.198 -0.2544,-0.2835 -0.2289,-0.2518 -0.3395,-0.1885 -0.2326,0.1333 0.084,0.254 0.2777,0.4928 0.4769,0.5892 0.1394,0.068 0.1635,0.094 0.1452,0.1594 -0.034,0.12 -0.2807,0.8081 -0.2968,0.826 -0.024,0.026 -0.2635,-0.2191 -0.4983,-0.5097 -0.2885,-0.3569 -0.3242,-0.386 -0.3804,-0.309 -0.095,0.1303 0.1642,0.6326 0.5196,1.0056 l 0.2681,0.2815 -0.065,0.2518 c -0.052,0.1995 -0.2189,0.6952 -0.3595,1.0658 -0.032,0.084 -0.1147,0.047 -0.3208,-0.1463 -0.1689,-0.1583 -0.227,-0.2469 -0.3295,-0.5031 -0.1213,-0.3031 -0.2126,-0.3996 -0.2603,-0.2751 -0.033,0.085 0.038,0.4032 0.158,0.7148 0.089,0.2304 0.1316,0.29 0.3129,0.435 0.1156,0.092 0.2102,0.1854 0.2104,0.2066 6e-4,0.077 -0.4263,0.597 -0.6088,0.7412 l -0.1871,0.148 -0.2048,-0.409 c -0.2559,-0.5113 -0.272,-0.5765 -0.1752,-0.7123 0.1018,-0.1431 0.204,-0.413 0.2746,-0.7253 0.032,-0.1432 0.1101,-0.3737 0.1729,-0.5122 0.1928,-0.4252 0.2147,-0.5141 0.35,-1.4215 0.1226,-0.8222 0.1283,-0.8982 0.087,-1.1719 -0.042,-0.2796 -0.083,-0.3841 -0.1505,-0.3841 -0.055,0 -0.1,0.1251 -0.1377,0.3852 -0.02,0.1403 -0.08,0.5514 -0.1331,0.9135 -0.1057,0.7248 -0.2333,1.2639 -0.3856,1.6281 -0.055,0.1308 -0.1284,0.3613 -0.164,0.5122 -0.036,0.1509 -0.089,0.3221 -0.1182,0.3803 l -0.053,0.106 -0.1469,-0.2523 c -0.081,-0.1388 -0.1676,-0.3099 -0.1929,-0.3804 -0.025,-0.07 -0.099,-0.2302 -0.165,-0.3551 l -0.1192,-0.2271 0.097,-0.2302 c 0.1497,-0.355 0.1923,-0.7476 0.1675,-1.5473 -0.022,-0.7263 -0.072,-0.9695 -0.1993,-0.9695 -0.1127,0 -0.1385,0.1878 -0.1457,1.061 -0.01,0.8113 -0.028,1.0609 -0.092,1.0609 -0.015,0 -0.064,-0.1276 -0.1097,-0.2835 -0.045,-0.156 -0.1406,-0.4295 -0.2118,-0.6079 l -0.1295,-0.3243 0.1184,-0.35 c 0.2081,-0.615 0.1884,-1.0684 -0.046,-1.0684 -0.1316,0 -0.1711,0.071 -0.1715,0.3091 -4e-4,0.1937 -0.075,0.5836 -0.1207,0.6291 -0.01,0.01 -0.058,-0.055 -0.1087,-0.141 l -0.093,-0.1569 0.091,-0.1464 c 0.141,-0.2273 0.1999,-0.3814 0.2412,-0.6303 0.025,-0.1527 0.055,-0.2295 0.089,-0.2295 0.028,0 0.06,-0.025 0.072,-0.055 0.037,-0.097 0.1152,-0.059 0.2026,0.098 0.047,0.084 0.1057,0.1595 0.1311,0.1678 0.025,0.01 0.098,-0.044 0.1622,-0.1162 0.064,-0.072 0.1451,-0.1313 0.1805,-0.1313 0.035,0 0.1583,0.082 0.2733,0.183 0.1937,0.1695 0.344,0.2334 0.344,0.1463 0,-0.099 0.1214,-0.015 0.2362,0.1646 0.071,0.1107 0.1508,0.2013 0.1778,0.2013 0.027,0 0.1296,-0.074 0.2283,-0.1647 0.099,-0.091 0.1895,-0.1646 0.202,-0.1646 0.013,0 0.1089,0.099 0.2143,0.2201 0.1728,0.1988 0.4177,0.3653 0.5371,0.3653 0.044,0 0.1741,-0.1426 0.2101,-0.2305 0.013,-0.032 0.029,-0.028 0.056,0.011 0.061,0.087 0.1461,0.01 0.2476,-0.2338 0.2273,-0.539 0.5155004,-0.773 0.5813004,-0.4721 0.041,0.1858 0.1031,0.3163 0.2093,0.4372 0.087,0.099 0.123,0.1158 0.2121,0.098 0.1011,-0.02 0.1123,-0.01 0.1967,0.181 0.073,0.1648 0.1099,0.207 0.1987,0.2265 0.1562,0.034 0.2033,0.1103 0.224,0.362 0.017,0.2017 0.028,0.227 0.1281,0.278 0.1479,0.076 0.1671,0.1091 0.1417,0.2479 -0.035,0.1897 0.01,0.293 0.1321,0.3203 0.1699,0.037 0.2749,0.2143 0.2749,0.4634 0,0.1139 0.012,0.2196 0.027,0.2347 0.047,0.047 0.027,0.3948 -0.027,0.491 -0.086,0.1501 -0.065,0.2104 0.1064,0.3109 0.1537,0.09 0.1623,0.1042 0.1854,0.3035 0.025,0.2185 0,0.3141 -0.1362,0.5814 -0.077,0.1487 -0.078,0.1552 -0.013,0.2272 0.052,0.057 0.061,0.1046 0.042,0.2098 -0.039,0.2096 -0.1929,0.3275 -0.5222,0.4007 -0.3094,0.069 -0.4619,0.1785 -0.4421,0.3179 0.01,0.074 0.031,0.081 0.2311,0.079 0.1207,0 0.2853,-0.01 0.3658,-0.018 0.1421,-0.015 0.1467,-0.012 0.1578,0.1035 0.015,0.1587 0.092,0.1936 0.3256,0.1475 0.1046,-0.021 0.2165,-0.028 0.2485,-0.015 0.068,0.026 0.2376,0.3902 0.2376,0.5109 0,0.097 -0.063,0.1709 -0.1466,0.1709 -0.1259,0 -0.1978,0.098 -0.2178,0.2972 -0.02,0.1946 -0.021,0.1957 -0.2162,0.2892 -0.1081,0.052 -0.2563,0.1618 -0.3293,0.2448 -0.1612,0.1832 -0.3041,0.2197 -0.462,0.1179 z"/>
</svg>
