<svg role="img" focusable="false" aria-hidden="true" xmlns="http://www.w3.org/2000/svg" viewBox="0 0 14 14" height="1em" width="1em">
  <path d="m 1,8.557306 c 0,0.11343 0.042536,0.207956 0.122883,0.283576 0.07562,0.08035 0.1701458,0.118157 0.2835762,0.118157 l 4.4521466,0 c 0.1087042,0 0.2032296,-0.03781 0.2788499,-0.118157 0.07562,-0.08035 0.1134305,-0.174872 0.1134305,-0.283576 0,-0.108704 -0.03781,-0.20323 -0.1087042,-0.27885 -0.07562,-0.07562 -0.1654195,-0.11343 -0.27885,-0.11343 l -4.4568728,0 c -0.1134304,0 -0.2079559,0.03781 -0.2883024,0.11343 C 1.0378102,8.354076 1,8.448602 1,8.557306 Z m 0.1559669,2.906656 c 0,0.113431 0.03781,0.207956 0.1181568,0.283576 0.07562,0.08035 0.1701457,0.118157 0.2835762,0.118157 l 4.4568728,0 c 0.1134305,0 0.2079559,-0.03781 0.2883024,-0.118157 0.080347,-0.08035 0.1181568,-0.174872 0.1181568,-0.283576 0,-0.108704 -0.03781,-0.203229 -0.1181568,-0.27885 -0.080347,-0.07562 -0.1748719,-0.11343 -0.2883024,-0.11343 l -4.4521465,0 c -0.1134305,0 -0.2079559,0.03781 -0.2835763,0.11343 -0.080347,0.07562 -0.122883,0.170146 -0.122883,0.27885 z m 0.647499,-1.465144 c 0,0.113431 0.03781,0.20323 0.1181568,0.27885 0.080347,0.07562 0.1795983,0.108705 0.297755,0.108705 l 4.442694,0 c 0.1134305,0 0.2032296,-0.03781 0.2788499,-0.108705 0.07562,-0.07562 0.1087042,-0.165419 0.1087042,-0.27885 0,-0.118156 -0.03781,-0.212682 -0.1087042,-0.288302 C 6.8653016,9.634896 6.7755022,9.597085 6.6620717,9.597085 l -4.442694,0 c -0.1181567,0 -0.2174084,0.03781 -0.297755,0.113431 -0.07562,0.07562 -0.1181568,0.170146 -0.1181568,0.288302 z M 2.9519496,6.997637 c 0,-0.113431 0.042536,-0.207956 0.122883,-0.293029 0.080347,-0.07562 0.1795983,-0.11343 0.2835762,-0.11343 l 0.9594329,0 c 0.1087042,0 0.1985033,0.03781 0.2741236,0.118156 0.07562,0.08035 0.1087043,0.174872 0.1087043,0.288303 0,0.11343 -0.03781,0.207956 -0.1087043,0.283576 -0.07562,0.08035 -0.1654194,0.118157 -0.2741236,0.118157 l -0.9594329,0 C 3.2449783,7.39937 3.1504529,7.36156 3.0701063,7.281213 2.9897593,7.200863 2.9519496,7.106341 2.9519496,6.997637 Z M 4.3036629,3.727058 c 0,-0.103978 0.03781,-0.20323 0.1134304,-0.288303 0.089799,-0.07562 0.1890509,-0.11343 0.2977551,-0.11343 0.1039779,0 0.1985033,0.03781 0.2788499,0.11343 l 0.6711304,0.694762 c 0.07562,0.07089 0.1134305,0.16542 0.1134305,0.27885 0,0.11343 -0.03781,0.207956 -0.1134305,0.283576 -0.07562,0.07562 -0.1701458,0.113431 -0.2835762,0.113431 -0.1134305,0 -0.2079559,-0.03781 -0.27885,-0.113431 L 4.4170933,4.020087 C 4.341473,3.935014 4.3036629,3.840488 4.3036629,3.727058 Z m 1.2051989,3.213864 0,-0.03308 C 5.5183118,6.477751 5.6364711,6.080744 5.8586058,5.712095 6.0807404,5.348172 6.3832217,5.05987 6.7565971,4.847188 7.1299724,4.634506 7.5364317,4.530528 7.9712485,4.530528 c 0.3308389,0 0.647499,0.06617 0.9547065,0.198503 0.302481,0.132336 0.567153,0.307208 0.784561,0.529342 0.222135,0.222135 0.397007,0.48208 0.524616,0.784561 0.127609,0.302482 0.193777,0.623868 0.193777,0.954707 0,0.444269 -0.108704,0.850728 -0.326113,1.22883 C 9.885388,8.604573 9.587633,8.902328 9.214258,9.119736 8.840882,9.341871 8.4296967,9.450575 7.9854273,9.455301 l -0.094525,0 c -0.033084,0 -0.061441,-0.0095 -0.085073,-0.03308 -0.023631,-0.02363 -0.03781,-0.05199 -0.03781,-0.08507 l 0,-0.576605 c 0,-0.06144 0.033084,-0.09453 0.1039779,-0.09453 l 0.1134305,0 C 8.4391497,8.661316 8.83143,8.500597 9.152816,8.169758 9.474202,7.843645 9.639622,7.451365 9.639622,6.992917 9.639622,6.539195 9.474202,6.15164 9.14809,5.825528 8.821977,5.504141 8.4296971,5.343448 7.9665227,5.343448 c -0.4442694,0 -0.8318236,0.151241 -1.15321,0.463175 -0.3213863,0.307207 -0.4915321,0.680583 -0.5104372,1.120126 0,0.02836 -0.00945,0.05199 -0.033084,0.08035 -0.023631,0.02836 -0.061442,0.04254 -0.1181568,0.04254 l -0.5387948,0 c -0.070894,0.0047 -0.1039781,-0.0331 -0.1039781,-0.108717 z m 2.06538,4.669554 0,-0.940527 c 0,-0.113431 0.03781,-0.207956 0.1134305,-0.283576 0.07562,-0.07562 0.1701457,-0.113431 0.2835762,-0.113431 0.1134305,0 0.2126822,0.03781 0.2883025,0.113431 0.07562,0.07562 0.1134305,0.170145 0.1134305,0.283576 l 0,0.940527 c 0,0.113431 -0.03781,0.212683 -0.1181568,0.293029 -0.080347,0.08035 -0.174872,0.118157 -0.2835762,0.118157 -0.1134305,0 -0.2079559,-0.03781 -0.2835762,-0.118157 -0.07562,-0.08035 -0.1134305,-0.174872 -0.1134305,-0.293029 z m 0,-8.26152 0,-0.968885 c 0,-0.113431 0.03781,-0.207956 0.1181568,-0.283576 0.080347,-0.07562 0.1701457,-0.118157 0.2835762,-0.118157 0.1087042,0 0.2032296,0.03781 0.2835762,0.118157 0.080347,0.08035 0.1181568,0.174872 0.1181568,0.283576 l 0,0.964159 c 0,0.108704 -0.03781,0.198503 -0.1181568,0.274124 -0.080347,0.07089 -0.174872,0.108704 -0.2835762,0.108704 -0.1134305,0 -0.2079559,-0.03781 -0.2835762,-0.108704 C 7.6120516,3.547464 7.5742418,3.45766 7.5742418,3.348956 Z M 10.178417,9.57818 c 0,-0.108704 0.03308,-0.198503 0.108704,-0.264671 0.07089,-0.07562 0.160693,-0.108704 0.269397,-0.108704 0.113431,0 0.207956,0.03781 0.283577,0.108704 l 0.685309,0.671131 c 0.07562,0.08035 0.11343,0.179598 0.11343,0.288302 0,0.108704 -0.03781,0.20323 -0.11343,0.27885 -0.189051,0.146514 -0.378102,0.146514 -0.567153,0 L 10.287121,9.875935 C 10.216231,9.800315 10.178417,9.696337 10.178417,9.57818 Z m 0,-5.165813 c 0,-0.118157 0.03308,-0.212682 0.108704,-0.27885 l 0.67113,-0.694762 c 0.08507,-0.07562 0.174872,-0.11343 0.27885,-0.11343 0.113431,0 0.207956,0.03781 0.283576,0.118157 0.08035,0.08035 0.118157,0.174872 0.118157,0.283576 0,0.118157 -0.03781,0.217408 -0.11343,0.293029 l -0.685309,0.675856 c -0.08507,0.07562 -0.179599,0.113431 -0.283577,0.113431 -0.108704,0 -0.193777,-0.03781 -0.269397,-0.113431 -0.07562,-0.07562 -0.108704,-0.170146 -0.108704,-0.283576 z m 1.068137,2.58527 c 0,-0.108704 0.03781,-0.207956 0.118157,-0.293029 0.07562,-0.07562 0.165419,-0.11343 0.264671,-0.11343 l 0.959432,0 c 0.108705,0 0.20323,0.04254 0.288303,0.122883 C 12.957467,6.794411 13,6.888933 13,6.997637 13,7.106341 12.95746,7.200866 12.877117,7.281213 12.792047,7.361563 12.697519,7.39937 12.588814,7.39937 l -0.959432,0 c -0.108705,0 -0.198504,-0.03781 -0.274124,-0.118157 -0.07089,-0.07562 -0.108704,-0.170146 -0.108704,-0.283576 z"/>
</svg>
