<svg xmlns="http://www.w3.org/2000/svg" viewBox="0 0 64 64" height="1em" width="1em">
  <circle cx="32" cy="32" r="15" fill="#2bc7f4"/>
  <path d="M4.287 20.521A29.833 29.833 0 0 0 2 32c0 4.064.816 7.941 2.287 11.479m55.425 0A29.815 29.815 0 0 0 62 32c0-4.065-.816-7.941-2.287-11.479m-4.619 1.913A24.856 24.856 0 0 1 57 32c0 3.387-.68 6.618-1.906 9.566M8.906 22.435A24.85 24.85 0 0 0 7 32c0 3.387.68 6.617 1.906 9.566m41.566-1.914A19.88 19.88 0 0 0 52 32c0-2.71-.547-5.293-1.528-7.652m-36.944.001A19.875 19.875 0 0 0 12 32c0 2.71.547 5.292 1.528 7.651" fill="none" stroke="#556a8a" stroke-width="2" stroke-miterlimit="10"/>
  <path fill="#fff" d="m40 32-12 7V25z"/>
</svg>
