<svg xmlns="http://www.w3.org/2000/svg" viewBox="0 0 49 49" height="1em" width="1em">
  <path d="m45.994 24.304-3.23-3.233-13.227 13.232 3.232 3.232 13.225-13.231z" fill="#0078D4"/>
  <path d="m32.312 10.616-3.23 3.232 13.682 13.69 3.23-3.233-13.682-13.69zm-16.5 26.919 3.23-3.232L5.818 21.071l-3.231 3.233 13.226 13.232z" fill="#0078D4"/>
  <path d="m2.585 24.303 3.231 3.233L19.5 13.846l-3.23-3.232-13.684 13.69z" fill="#0078D4"/>
  <path d="M20.102 30.59a2.285 2.285 0 1 0-.002-4.57 2.285 2.285 0 0 0 .002 4.57zm4.188-4.19a2.285 2.285 0 1 0-.002-4.57 2.285 2.285 0 0 0 .001 4.57zm4.186-4.19a2.285 2.285 0 1 0-.001-4.57 2.285 2.285 0 0 0 .001 4.57z" fill="#50E6FF"/>
</svg>
