<svg xmlns="http://www.w3.org/2000/svg" viewBox="0 0 48 48" height="1em" width="1em">
  <path d="M0 42.972h48V6.012H0v36.96z" fill="#0078D4"/>
  <path d="M15.15 35.308a8.787 8.787 0 0 1 8.791-8.792 8.787 8.787 0 0 1 8.792 8.792H15.149zM0 10.003h47.983V5H0v5.003z" fill="#50E6FF"/>
  <path d="M7.478 8.825a1.221 1.221 0 1 0 0-2.442 1.221 1.221 0 0 0 0 2.442zm-3.79 0a1.221 1.221 0 1 0 0-2.442 1.221 1.221 0 0 0 0 2.442zm7.664 0a1.221 1.221 0 1 0 0-2.442 1.221 1.221 0 0 0 0 2.442z" fill="#fff"/>
  <path d="M28.951 20.142a4.985 4.985 0 1 1-9.97 0 4.985 4.985 0 1 1 9.97 0z" fill="#50E6FF"/>
</svg>
