<svg xmlns="http://www.w3.org/2000/svg" viewBox="0 0 48 49" height="1em" width="1em">
  <path d="M2.56 5.968A2.514 2.514 0 0 1 .042 3.45 2.514 2.514 0 0 1 2.56.932 2.509 2.509 0 0 1 5.078 3.45 2.52 2.52 0 0 1 2.56 5.968zm7.554 0a2.52 2.52 0 0 1 0-5.037 2.52 2.52 0 0 1 2.518 2.519 2.514 2.514 0 0 1-2.518 2.518zm7.57 0a2.52 2.52 0 0 1 0-5.037 2.52 2.52 0 0 1 0 5.037zm7.63 0a2.514 2.514 0 0 1-2.518-2.518c0-1.39 1.12-2.518 2.518-2.518a2.52 2.52 0 0 1 0 5.037zm7.528 0a2.52 2.52 0 0 1 0-5.037 2.52 2.52 0 0 1 0 5.037zm7.588 0a2.52 2.52 0 0 1 0-5.037 2.52 2.52 0 0 1 0 5.037zM2.56 13.523a2.52 2.52 0 0 1 0-5.037 2.52 2.52 0 0 1 0 5.037zm37.87 0a2.52 2.52 0 0 1 0-5.037 2.52 2.52 0 0 1 0 5.037zM2.534 21.195a2.52 2.52 0 0 1 0-5.037 2.514 2.514 0 0 1 2.518 2.518 2.525 2.525 0 0 1-2.517 2.519zm15.142 0a2.52 2.52 0 0 1 0-5.037 2.52 2.52 0 0 1 0 5.037zm7.638 0a2.52 2.52 0 0 1 0-5.037 2.52 2.52 0 0 1 0 5.037zm15.116-.082a2.52 2.52 0 0 1 0-5.037 2.52 2.52 0 0 1 0 5.037zm-37.81 7.64a2.52 2.52 0 0 1 0-5.037 2.514 2.514 0 0 1 2.517 2.52 2.525 2.525 0 0 1-2.518 2.517zm15.14 0a2.52 2.52 0 0 1 0-5.037 2.52 2.52 0 0 1 0 5.037zM2.619 36.316a2.514 2.514 0 0 1-2.518-2.518 2.514 2.514 0 0 1 2.518-2.519 2.514 2.514 0 0 1 2.518 2.519 2.525 2.525 0 0 1-2.518 2.518zm0 7.554a2.514 2.514 0 0 1-2.518-2.518 2.514 2.514 0 0 1 2.518-2.518 2.514 2.514 0 0 1 2.518 2.518 2.525 2.525 0 0 1-2.518 2.519zm7.554 0a2.514 2.514 0 0 1-2.518-2.518 2.514 2.514 0 0 1 2.518-2.518 2.52 2.52 0 0 1 0 5.037zm7.587 0a2.514 2.514 0 0 1-2.518-2.518 2.514 2.514 0 0 1 2.518-2.518 2.52 2.52 0 0 1 0 5.037z" fill="#50E6FF"/>
  <path d="m45.524 44.529-7.293-7.218a8.506 8.506 0 0 0 1.752-5.189c0-4.725-3.84-8.565-8.564-8.565s-8.564 3.84-8.564 8.565 3.84 8.566 8.564 8.566c1.87 0 3.604-.598 5.002-1.609l7.326 7.252 1.777-1.802zM31.419 38.16a6.053 6.053 0 0 1-6.047-6.047 6.053 6.053 0 0 1 6.047-6.047 6.053 6.053 0 0 1 6.046 6.047 6.053 6.053 0 0 1-6.046 6.047zM10.13 18.611H7.639V8.471h10.046v2.56h-7.553v7.58zm7.605 15.204v2.493H7.587V26.26h2.56v7.555h7.588zm7.536-22.783V8.514H35.36v10.098H32.8v-7.58h-7.528z" fill="#0078D4"/>
</svg>
