<svg xmlns="http://www.w3.org/2000/svg" viewBox="0 0 48 49" height="1em" width="1em">
  <path d="M10.22 11.355.253 1.388h9.967v9.967z" fill="#0078D4"/>
  <path d="m22.679 11.355-9.967-9.967h9.967v9.967zm12.45 0-9.967-9.967h9.967v9.967zm12.458 0L37.63 1.388h9.958v9.967z" fill="#50E6FF"/>
  <path d="M10.22 23.805.253 13.838h9.967v9.967zm12.459 0-9.967-9.967h9.967v9.967z" fill="#0078D4"/>
  <path d="m35.129 23.805-9.967-9.967h9.967v9.967zm12.458 0-9.958-9.967h9.958v9.967z" fill="#50E6FF"/>
  <path d="M10.22 36.272.253 26.305h9.967v9.967zm12.459 0-9.967-9.967h9.967v9.967zm12.45 0-9.967-9.967h9.967v9.967z" fill="#0078D4"/>
  <path d="m47.587 36.272-9.958-9.967h9.958v9.967z" fill="#50E6FF"/>
  <path d="M10.22 48.747.253 38.78h9.967v9.967zm12.459 0-9.967-9.967h9.967v9.967zm12.45 0-9.967-9.967h9.967v9.967zm12.458 0L37.63 38.78h9.958v9.967z" fill="#0078D4"/>
</svg>
