<svg xmlns="http://www.w3.org/2000/svg" viewBox="0 0 48 49" height="1em" width="1em">
  <path d="M42.699 23.584a4.325 4.325 0 1 0-4.866 4.289v7.572c0 5.233-4.258 9.487-9.488 9.487-5.233 0-9.487-4.258-9.487-9.487v-5.457c.531-.23.902-.759.902-1.374V26.02a11.041 11.041 0 0 0 7.404-4.45 1.541 1.541 0 0 0 .164-1.534l.06-.08c.884-1.203 2.097-3.99 2.51-6.387l.104-.609c.423-2.401.86-4.887.046-6.554C28.88 4.005 26.5 3.637 25.37 3.603a1.751 1.751 0 0 0-1.7-1.318 1.765 1.765 0 1 0 1.518 2.667c.748-.004 2.733.175 3.642 2.045.619 1.276.203 3.639-.164 5.726-.035.206-.074.412-.109.615-.398 2.325-1.569 4.863-2.261 5.81a1.55 1.55 0 0 0-1.682.587 7.9 7.9 0 0 1-6.397 3.258 7.888 7.888 0 0 1-5.708-2.433 1.539 1.539 0 0 0-1.482-.43c-.3-.332-.591-.678-.811-.975-.692-.94-1.867-3.485-2.265-5.814-.035-.202-.07-.409-.109-.615-.367-2.09-.783-4.457-.164-5.73.909-1.87 2.894-2.048 3.642-2.044a1.765 1.765 0 1 0-.189-1.356c-1.128.034-3.509.402-4.677 2.803-.81 1.671-.374 4.153.046 6.554.035.207.073.41.105.609.412 2.398 1.625 5.184 2.51 6.386.234.318.534.675.842 1.021a1.522 1.522 0 0 0 .252 1.727 11 11 0 0 0 6.537 3.328v2.583c0 .552.297 1.031.74 1.294v5.537c0 5.98 4.867 10.847 10.848 10.847 5.98 0 10.847-4.866 10.847-10.847V27.83a4.328 4.328 0 0 0 3.517-4.247zm-4.325 2.415a2.412 2.412 0 1 1 .001-4.825 2.412 2.412 0 0 1 0 4.825z" fill="#0078D4"/>
  <path d="M38.375 25.02a1.437 1.437 0 1 0 0-2.873 1.437 1.437 0 0 0 0 2.873z" fill="#50E6FF"/>
</svg>
