<svg viewBox="0 0 256 256" xmlns="http://www.w3.org/2000/svg" preserveAspectRatio="xMidYMid" height="1em" width="1em">
  <defs>
    <linearGradient x1="0%" y1="100%" x2="100%" y2="0%" id="a">
      <stop stop-color="#B0084D" offset="0%"/>
      <stop stop-color="#FF4F8B" offset="100%"/>
    </linearGradient>
  </defs>
  <path fill="url(#a)" d="M0 0h256v256H0z"/>
  <path d="M109.008 178.024h9.392v-6.455h-9.392v6.455Zm15.792 0h9.6v-6.455h-9.6v6.455ZM86.4 46.814 44.8 67.463v128.356l41.6 14.068V46.814Zm6.4 40.845v83.91h9.6v6.455h-9.6v36.349a3.237 3.237 0 0 1-1.331 2.62 3.177 3.177 0 0 1-2.887.44l-48-16.23a3.226 3.226 0 0 1-2.182-3.06V65.452c0-1.226.694-2.353 1.789-2.895l48-23.824a3.163 3.163 0 0 1 3.1.155 3.233 3.233 0 0 1 1.511 2.74v39.576h9.6v6.455h-9.6Zm48 90.365h9.6v-6.455h-9.6v6.455Zm.208-90.365h9.392v-6.455h-9.392v6.455Zm-16 0h9.392v-6.455h-9.392v6.455Zm-16 0h9.392v-6.455h-9.392v6.455ZM211.2 67.463l-41.6-20.649v163.073l41.6-14.068V67.463Zm6.4 130.68a3.226 3.226 0 0 1-2.182 3.06l-48 16.23a3.173 3.173 0 0 1-2.887-.44 3.238 3.238 0 0 1-1.331-2.62v-36.35h-6.192v-6.454h6.192v-83.91h-6.192v-6.455h6.192V41.628c0-1.117.573-2.153 1.51-2.74a3.163 3.163 0 0 1 3.101-.155l48 23.824a3.233 3.233 0 0 1 1.789 2.895v132.69Zm-80.211-89.962-5.978-2.317-16 41.955 5.978 2.317 16-41.955Zm21.673 20.487a3.243 3.243 0 0 0 0-4.563l-12.8-12.91-4.524 4.564 10.537 10.628-10.537 10.627 4.524 4.564 12.8-12.91Zm-49.324 12.91-12.8-12.91a3.243 3.243 0 0 1 0-4.563l12.8-12.91 4.524 4.564-10.537 10.628 10.537 10.627-4.524 4.564Z" fill="#FFF"/>
</svg>
