<svg viewBox="0 0 256 256" xmlns="http://www.w3.org/2000/svg" preserveAspectRatio="xMidYMid" height="1em" width="1em">
  <defs>
    <linearGradient x1="0%" y1="100%" x2="100%" y2="0%" id="a">
      <stop stop-color="#2E27AD" offset="0%"/>
      <stop stop-color="#527FFF" offset="100%"/>
    </linearGradient>
  </defs>
  <path fill="url(#a)" d="M0 0h256v256H0z"/>
  <path d="m194.942 167.338 4.105-4.138H180l-5.035-5.075-9.524 9.6-27.643-27.863 4.49-4.524 23.153 23.337 9.524-9.6 7.663 7.725h16.42l-4.105-4.138 4.49-4.524L211.2 160l-11.769 11.862-4.489-4.524Zm-29.502-50.263 5.035-5.075h10.041l9.509 10.662-4.724 4.276-7.613-8.538h-4.585l-7.663 7.725-7.664-7.725h-17.734V112h20.362l5.036 5.075Zm33.607-1.875h-5.035v-6.4h15.874v16h-6.35v-5.075l-8.21 8.275 8.21 8.275V131.2h6.35v16h-15.874v-6.4h5.035l-8.21-8.275-8.21 8.275H163.58l-5.42 5.462-4.488-4.524 7.28-7.338H180l19.048-19.2Zm-61.25 42.538 6.35-6.4 4.489 4.524-6.35 6.4-4.489-4.524ZM105.12 44.8c31.807 0 53.97 10.118 53.97 19.2 0 9.082-22.163 19.2-53.97 19.2-31.808 0-53.97-10.118-53.97-19.2 0-9.082 22.162-19.2 53.97-19.2Zm31.747 60.8h-6.35V176c0 1.766 1.42 3.2 3.175 3.2h25.398V192c0 9.082-22.163 19.2-53.97 19.2-30.795 0-53.97-11.133-53.97-18.352v-24.291c9.705 8.352 29.705 13.843 53.97 13.843 7.886 0 15.546-.605 22.76-1.802l-1.03-6.316c-6.876 1.139-14.187 1.718-21.73 1.718-31.808 0-53.97-10.118-53.97-19.2v-33.043c9.705 8.352 29.705 13.843 53.97 13.843 7.886 0 15.546-.605 22.76-1.802l-1.03-6.316c-6.876 1.139-14.187 1.718-21.73 1.718-31.808 0-53.97-10.118-53.97-19.2V75.757C60.854 84.109 80.854 89.6 105.12 89.6c24.264 0 44.265-5.491 53.97-13.843V108.8h6.35V64c0-14.595-25.932-25.6-60.32-25.6C70.73 38.4 44.8 49.405 44.8 64v128.848c0 13.184 28.188 24.752 60.32 24.752 34.388 0 60.32-11.005 60.32-25.6v-12.8h44.446v-6.4h-73.019v-67.2Z" fill="#FFF"/>
</svg>
