<svg viewBox="0 0 256 256" xmlns="http://www.w3.org/2000/svg" preserveAspectRatio="xMidYMid" height="1em" width="1em">
  <path d="M128 0c70.692 0 128 57.308 128 128 0 70.692-57.308 128-128 128C57.308 256 0 198.692 0 128 0 57.308 57.308 0 128 0Z"/>
  <path d="M123 72.45c17.9 0 33.25 4.95 45.35 14.4 10.184 7.96 17.68 18.9 21.617 31.278l.133.422.1.3.1.35.2.65.3 1.2.8 2.8.85 3.2 3.75 13.7 3.7 13.8 4.2 15.7 6.75 25.25 2.55 9.5-.55.6c-17.622 19.256-41.713 32.483-68.827 36.288l-.823.112-.25-1.65-.45-3.3-.4-2.4-.45-3.15-.6-3.85-.25-1.5-.55-3.65-.35-2.15-.45-2.8-.45-2.7-.45-2.6-.45-2.55-.4-2.5-.45-2.4-.4-2.3-.3-1.7-.35-1.65-.6-3.15-.3-1.5-.35-1.85-.3-1.3-.25-1.25-.25-1.2-.15-.8-.35-1.5-.5-2.2-.2-.7-.25-1-.2-.95-.25-.95-.25-.9-.15-.55-.25-.85-.2-.8-.15-.55-.2-.5-.15-.45-.2-.7-.15-.5-.1-.3a33.4 33.4 0 0 0-.706-1.886l-.194-.464-.15-.3 1.15-3-4.55.15-1.25.05c-41.3.85-67.95-16.7-67.95-44.2 0-29.15 29-52.6 66.2-52.6Zm-40.3 137.7c.935-3.2 4.246-5.091 7.45-4.29l.15.04c3.25.837 5.19 4.098 4.485 7.348l-.035.152-.05.15-6.05 22.55-.85-.35a114.35 114.35 0 0 1-9.94-4.253l-.81-.397 5.6-20.8.05-.15Zm34.8-15.25c.95-3.25 4.35-5.15 7.65-4.25a6.25 6.25 0 0 1 3.815 2.991l.085.159.2.9.3 1.45.2 1.05-.05.25-.15.7v.15l-8.5 31.5-.05.15a6.25 6.25 0 0 1-12.08-3.098l.03-.152v-.15l8.5-31.5.05-.15Zm-51.6-36.7c3.024 2.64 6.509 5.05 10.322 7.096l.478.254-7.7 28.6-.05.15a6.25 6.25 0 0 1-12.084-3.149L56.9 191l.05-.15 8.5-31.5.05-.2.4-.95Zm-27.9-32c.95-3.2 4.35-5.1 7.65-4.25 3.2.886 5.14 4.148 4.435 7.398l-.035.152v.15l-8.5 31.5-.05.15a6.25 6.25 0 0 1-12.084-3.149l.034-.151v-.15l8.5-31.5.05-.15Zm190.6-7.15c.95-3.2 4.35-5.1 7.6-4.25 3.25.886 5.19 4.148 4.485 7.35l-.035.15v.2L232.1 154v.15a6.271 6.271 0 0 1-12.139-3.15l.039-.15.05-.15 8.5-31.5.05-.15ZM27.1 72.75l.217.007c.433.02.863.085 1.283.193a6.28 6.28 0 0 1 4.485 7.398l-.035.152-.05.15-8.5 31.5-.05.15c-.95 3.2-4.35 5.1-7.6 4.25a6.2 6.2 0 0 1-3.1-1.9 114.2 114.2 0 0 1 13.033-41.318l.317-.582Zm179.95 4.45c1-3.2 4.35-5.1 7.65-4.25 3.2.886 5.188 4.148 4.485 7.398l-.035.152-.05.15-8.5 31.5-.05.15a6.25 6.25 0 0 1-12.084-3.149l.034-.151.05-.15 8.5-31.5v-.15ZM56.5 47.25c.95-3.2 4.35-5.1 7.6-4.25 3.25.886 5.19 4.148 4.485 7.35l-.035.15-.05.2L60 82.2l-.05.15a6.25 6.25 0 0 1-12.084-3.149l.034-.151.05-.15 8.5-31.5.05-.15Zm109.2 5.95c.95-3.2 4.35-5.1 7.65-4.25 3.2.886 5.14 4.148 4.435 7.398l-.035.152v.15l-6.7 24.75-.55-.45a69.95 69.95 0 0 0-9.935-6.094l-.615-.306 5.7-21.2.05-.15Zm-47.95-39.75a6.2 6.2 0 0 1-.004 2.603l-.046.197-.05.15-8.5 31.5-.05.15a6.25 6.25 0 0 1-12.08-3.098l.03-.152.05-.15L105 15.3l.85-.15a114.95 114.95 0 0 1 11.9-1.7Zm78.2 21.75.75.55a115.6 115.6 0 0 1 9.222 7.666l.628.584-.2.65-.05.15a6.25 6.25 0 0 1-12.08-3.098l.03-.152.05-.15 1.65-6.2ZM146.5 14.5l.9.15a114.3 114.3 0 0 1 10.44 2.267l.86.233-3.15 11.75-.05.15a6.25 6.25 0 0 1-12.08-3.098l.03-.152.05-.15 3-11.15Z" fill="#FFF"/>
  <path d="M131 93.5a8 8 0 1 1 0 16 8 8 0 0 1 0-16Z"/>
</svg>
