<svg viewBox="0 0 512 139" xmlns="http://www.w3.org/2000/svg" preserveAspectRatio="xMidYMid" height="1em" width="1em">
  <defs>
    <linearGradient x1="20.683%" y1="63.558%" x2="146.237%" y2="19.88%" id="a">
      <stop stop-color="#F69923" offset="0%"/>
      <stop stop-color="#F79A23" offset="31.23%"/>
      <stop stop-color="#E97826" offset="83.83%"/>
    </linearGradient>
    <linearGradient x1="21.159%" y1="394.971%" x2="52.694%" y2="13.745%" id="b">
      <stop stop-color="#9E2064" offset="32.33%"/>
      <stop stop-color="#C92037" offset="63.02%"/>
      <stop stop-color="#CD2335" offset="75.14%"/>
      <stop stop-color="#E97826" offset="100%"/>
    </linearGradient>
    <linearGradient x1="34.915%" y1="192.312%" x2="66.098%" y2="-136.283%" id="c">
      <stop stop-color="#282662" offset="0%"/>
      <stop stop-color="#662E8D" offset="9.548%"/>
      <stop stop-color="#9F2064" offset="78.82%"/>
      <stop stop-color="#CD2032" offset="94.87%"/>
    </linearGradient>
    <linearGradient x1="30.238%" y1="170.497%" x2="64.688%" y2="-44.403%" id="d">
      <stop stop-color="#9E2064" offset="32.33%"/>
      <stop stop-color="#C92037" offset="63.02%"/>
      <stop stop-color="#CD2335" offset="75.14%"/>
      <stop stop-color="#E97826" offset="100%"/>
    </linearGradient>
    <linearGradient x1="31.529%" y1="77.305%" x2="81.077%" y2="-41.421%" id="e">
      <stop stop-color="#282662" offset="0%"/>
      <stop stop-color="#662E8D" offset="9.548%"/>
      <stop stop-color="#9F2064" offset="78.82%"/>
      <stop stop-color="#CD2032" offset="94.87%"/>
    </linearGradient>
    <linearGradient x1="39.84%" y1="187.68%" x2="57.301%" y2="-51.028%" id="f">
      <stop stop-color="#9E2064" offset="32.33%"/>
      <stop stop-color="#C92037" offset="63.02%"/>
      <stop stop-color="#CD2335" offset="75.14%"/>
      <stop stop-color="#E97826" offset="100%"/>
    </linearGradient>
    <linearGradient x1="22.303%" y1="465.803%" x2="52.553%" y2="17.075%" id="g">
      <stop stop-color="#9E2064" offset="32.33%"/>
      <stop stop-color="#C92037" offset="63.02%"/>
      <stop stop-color="#CD2335" offset="75.14%"/>
      <stop stop-color="#E97826" offset="100%"/>
    </linearGradient>
    <linearGradient x1="16.634%" y1="60.308%" x2="159.526%" y2="27.099%" id="h">
      <stop stop-color="#F69923" offset="0%"/>
      <stop stop-color="#F79A23" offset="31.23%"/>
      <stop stop-color="#E97826" offset="83.83%"/>
    </linearGradient>
    <linearGradient x1="-85.424%" y1="394.971%" x2="62.65%" y2="13.745%" id="i">
      <stop stop-color="#9E2064" offset="32.33%"/>
      <stop stop-color="#C92037" offset="63.02%"/>
      <stop stop-color="#CD2335" offset="75.14%"/>
      <stop stop-color="#E97826" offset="100%"/>
    </linearGradient>
    <linearGradient x1="-20.619%" y1="129.232%" x2="125.361%" y2="-53.713%" id="j">
      <stop stop-color="#282662" offset="0%"/>
      <stop stop-color="#662E8D" offset="9.548%"/>
      <stop stop-color="#9F2064" offset="78.82%"/>
      <stop stop-color="#CD2032" offset="94.87%"/>
    </linearGradient>
    <linearGradient x1="9.218%" y1="170.497%" x2="80.31%" y2="-44.403%" id="k">
      <stop stop-color="#9E2064" offset="32.33%"/>
      <stop stop-color="#C92037" offset="63.02%"/>
      <stop stop-color="#CD2335" offset="75.14%"/>
      <stop stop-color="#E97826" offset="100%"/>
    </linearGradient>
    <linearGradient x1="37.046%" y1="77.305%" x2="71.794%" y2="-41.421%" id="l">
      <stop stop-color="#282662" offset="0%"/>
      <stop stop-color="#662E8D" offset="9.548%"/>
      <stop stop-color="#9F2064" offset="78.82%"/>
      <stop stop-color="#CD2032" offset="94.87%"/>
    </linearGradient>
    <linearGradient x1="-34.745%" y1="181.583%" x2="110.893%" y2="-46.554%" id="m">
      <stop stop-color="#9E2064" offset="32.33%"/>
      <stop stop-color="#C92037" offset="63.02%"/>
      <stop stop-color="#CD2335" offset="75.14%"/>
      <stop stop-color="#E97826" offset="100%"/>
    </linearGradient>
    <linearGradient x1="-129.864%" y1="266.449%" x2="66.578%" y2="32.861%" id="n">
      <stop stop-color="#9E2064" offset="32.33%"/>
      <stop stop-color="#C92037" offset="63.02%"/>
      <stop stop-color="#CD2335" offset="75.14%"/>
      <stop stop-color="#E97826" offset="100%"/>
    </linearGradient>
  </defs>
  <g fill="none">
    <path d="M1.782 2.143c-.186.439-.362 1.006-.526 1.69l-.12.534c-.04.186-.078.378-.115.578l-.11.618-.106.66-.099.698-.093.737-.088.773-.081.81-.038.417-.072.861-.064.894-.058.926a99.87 99.87 0 0 0-.026.475l5.736 2.776c-.087-3.349.021-6.515.323-9.425l.059-.518-.04.475-.052.785-.019.375-.031.855-.012.481-.013 1.07.002.898.014.982.016.7.037 1.123.034.796.042.835.024.432c1.068-.871 2.348-2.015 3.678-3.265l.893-.848c.15-.143.3-.287.449-.432l.896-.874.885-.878.862-.872.83-.854c-.917-1.875-1.907-3.253-2.827-4.26l-.304-.321a12.575 12.575 0 0 0-.588-.565l-.282-.246-.272-.222c-.09-.07-.176-.137-.261-.2l-.25-.178-.235-.159-.326-.202-.29-.162-.324-.16-.242-.104-.442-.16-.323-.104L7.52.3 7.28.24 7.02.18a9.494 9.494 0 0 0-.137-.028l-.287-.05-.3-.044C4.709-.139 2.66.07 1.782 2.143Z" fill="url(#a)" transform="translate(250.163 25.432)"/>
    <path d="m267.076 96.869-.796-2.909-.702-2.59-.3-1.139-.581-2.248-.562-2.202-.56-2.262-.27-1.114-.52-2.185-.523-2.24a250.602 250.602 0 0 1-.726-3.249l-.455-2.131-.22-1.045-.306-1.487-.68-3.497-.145-.78-.295-1.532-.09-.507-.069-.367-.275.25-.57-.282.04.187c.125.763.255 1.532.395 2.306l.468 2.501.122.683c.266 1.4.54 2.794.834 4.195l.3 1.403c.394 1.886.815 3.777 1.24 5.64.413 1.849.858 3.674 1.303 5.498.297 1.217.595 2.421.9 3.618l.46 1.79c.479 1.873.962 3.718 1.466 5.524.105.406.221.828.342 1.223l.6 2.176c.2.718.401 1.428.606 2.136l.92.461.306-.273c-.007-.043-.014-.086-.037-.117-.609-1.85-1.124-3.672-1.62-5.435Z"/>
    <path d="M7.423 32.522a284.931 284.931 0 0 1-.725-5.632 126.997 126.997 0 0 1-.442-4.538l-.102-1.34a1.682 1.682 0 0 1-.002-.103 117.148 117.148 0 0 1-.257-5.323L.17 12.826l-.015.35-.039.729a129.094 129.094 0 0 0-.111 4.36 217.03 217.03 0 0 0 .034 5.414c.04 1.735.111 3.545.205 5.385.07 1.182.146 2.373.233 3.579l.105 1.394 7.658 3.88-.27-1.807-.547-3.588Z" fill="url(#b)" transform="translate(250.163 25.432)"/>
    <path d="m18.5 76.992.118.409.76 2.584c.11.367.22.736.333 1.107l.363 1.175.124.423c.022.069.046.137.072.206l1.234 3.954c1.093-.226 2.424.181 3.831.795l.567.256c-1.036-1.246-2.47-2.08-4.183-2.273 4.69-3.128 7.776-7.157 7.343-11.964a16.475 16.475 0 0 0-.19-1.312c-.07 1.772-.777 3.073-2.827 4.463l-.253.167c2.12-3.731 2.704-6.263 2.453-9.535a31.23 31.23 0 0 0-.301-2.486c-.678 4.872-3.295 8.026-7.123 9.892l-2.321 2.14Z" fill="url(#c)" transform="translate(250.163 25.432)"/>
    <path d="m15.753 71.273-.488-1.826-.98-3.696a360.71 360.71 0 0 1-1.358-5.409c-.445-1.825-.874-3.661-1.304-5.497-.436-1.88-.845-3.755-1.24-5.642l-.388-1.865-.746-3.732a80.41 80.41 0 0 1-.373-2.023 231.58 231.58 0 0 1-.61-3.467l-.042-.188L.61 34.041l.024.242c.003.042.005.084.003.125.154 1.725.303 3.476.507 5.236.2 1.787.427 3.579.693 5.39.225 1.526.467 3.041.72 4.572l.166.917a106.947 106.947 0 0 0 2.569 10.878c.331 1.11.656 2.178.988 3.191l.295.853.61 1.698A76.634 76.634 0 0 0 9.59 72.92l7.696 3.9c-.41-1.416-.789-2.854-1.206-4.313l-.213-.817-.113-.418Z" fill="url(#d)" transform="translate(250.163 25.432)"/>
    <path d="M9.703 73.175a60.86 60.86 0 0 0 3.056 5.752l.62 1.002c-.73-.294-1.652-.44-2.548-.505l-.445-.026a17.916 17.916 0 0 0-.219-.009l-.427-.009-.601.002-.538.016-.452.023-.632.052c-.006.001-.008.001-.007.002 3.891 1.35 7.304 3.002 9.457 5.508-.856.942-2.457 1.658-4.47 2.241 1.498.163 2.64.096 3.464-.038l.333-.061a7.6 7.6 0 0 0 .153-.033l.276-.068.239-.07.29-.101.148-.061c-1.236 1.03-2.01 2.787-2.653 4.756l-.222.703-.108.356c1.637-2.676 3.262-4.448 4.843-5.126 1.767 5.858 3.81 12.092 6.052 18.597l1.048 3.021a830.48 830.48 0 0 0 1.076 3.058c.521-.673.58-1.417.361-2.175l-.717-2.026-.817-2.366-1.265-3.754-1.036-3.147-1.146-3.552-1.094-3.465-1.004-3.247-.739-2.431-.6-2.008c-.081-.263-.155-.531-.234-.803l-.226-.745-.65-2.243-.66-2.307-.296-1.064-.012-.015-7.697-3.9c.018.068.037.123.06.18l.04.086Z" fill="url(#e)" transform="translate(250.163 25.432)"/>
    <path d="m9.135 38.082.136.746c.1.508.19 1.02.288 1.536l.833 4.272.306 1.488.445 2.102.23 1.073c.23 1.065.472 2.146.726 3.25l.523 2.24.52 2.185.27 1.114.56 2.261.558 2.198c.284 1.11.576 2.24.884 3.39.225.85.459 1.713.698 2.586l.8 2.914.605 2.142.625 2.188c.106.368.212.738.32 1.108a.27.27 0 0 0 .038.117l2.321-2.139-.056.024-.124.06c2.756-2.602 5.117-7.816 5.657-12.515.248-2.165.225-4.469-.072-6.982-.215-1.873-.596-3.841-1.12-5.971a76.634 76.634 0 0 0-1.708-5.853c-.426.869-1.031 1.724-1.773 2.558l-.402.44-.138.144-.291.293c2.032-3.16 2.274-6.552 1.67-10.074-.369 1.044-1.094 2.592-2.297 3.983a8.433 8.433 0 0 1-.516.548c-.032.023-.058.053-.09.084l-.056.047c.674-1.123 1.172-2.19 1.492-3.27.05-.15.09-.303.124-.455l.05-.23c.082-.35.136-.704.19-1.058l.078-.685c.03-.403.039-.817.02-1.238l-.054-.774a2.178 2.178 0 0 0-.022-.171l-.08-.496a6.45 6.45 0 0 0-.045-.234c-.157-.92-.33-1.741-.508-2.469l-.167-.653-.151-.551-.197-.653-.255-.764a6.734 6.734 0 0 0-.081-.222l-.155-.385a8.906 8.906 0 0 0-.141-.325l-.127-.26a2.318 2.318 0 0 1-.098.306l-.07.155c-.48 1.126-1.595 2.67-2.612 3.754-.016.012-.031.023-.035.05l-.21.21a2.485 2.485 0 0 0-.106.119l.04-.078-7.315 6.699c.062.05.07.094.065.121Z" fill="url(#f)" transform="translate(250.163 25.432)"/>
    <path d="M6.306 15.454c.03.534.064 1.09.105 1.67L6.5 18.31c.016.202.032.407.05.615l.108 1.273.06.657.017.212a.78.78 0 0 0 .018.1c.062.653.13 1.324.207 2.017l.162 1.413c.058.48.119.971.183 1.473l.304 2.298c.143 1.043.297 2.125.469 3.252l.133.854c.131.87.277 1.761.431 2.675l.482 2.819 7.316-6.699c1.525-2.763 1.858-4.482 1.838-6.618-.008-.43-.028-.878-.056-1.336l-.031-.462a57.566 57.566 0 0 0-.661-5.776c-.3-1.858-.668-3.643-1.089-5.171a27.429 27.429 0 0 0-.838-2.624 29.788 29.788 0 0 0-.807-1.825l-.83.847c-.14.143-.284.286-.427.43l-.874.872-.891.874-.897.865-.448.426-.886.831a69.969 69.969 0 0 1-3.237 2.85Z" fill="url(#g)" transform="translate(250.163 25.432)"/>
    <path d="M212.12 30.787c4.061.439 7.628 1.262 10.702 2.47 3.182 1.207 5.762 2.853 7.737 4.939 2.086 1.975 3.458 4.555 4.116 7.738.33 1.865.33 4.006 0 6.42a95.865 95.865 0 0 1-1.317 7.409l-7.408 36.714c-.33 2.085-.714 4.226-1.153 6.42-.439 2.086-.604 4.007-.494 5.763 0 .33-.055.713-.164 1.152v.988c0 1.208-.11 2.415-.33 3.622-.22 1.208-.933 2.03-2.14 2.47a6.202 6.202 0 0 1-2.47.494h-14.487c-.879-.11-1.537-.384-1.976-.824a3.149 3.149 0 0 1-1.317-1.81c-.22-.879-.604-1.592-1.153-2.14a2.066 2.066 0 0 0-.823-.495c-.22-.22-.604-.274-1.152-.164a9.1 9.1 0 0 0-1.811.823c-.55.33-1.098.604-1.647.823-.658.44-1.372.823-2.14 1.152-.658.33-1.372.659-2.14.988a34.989 34.989 0 0 1-4.775 1.647 80.223 80.223 0 0 0-4.939 1.152c-.878.22-1.701.33-2.47.33-.658.11-1.371.219-2.14.329h-.987c-.33.11-.659.164-.988.164h-1.811c-1.208.22-2.305.22-3.293 0h-1.482a8.355 8.355 0 0 0-2.305-.329 4.054 4.054 0 0 1-1.975-.165l-2.964-.658c-.987-.11-1.866-.384-2.634-.823-2.963-1.208-5.378-2.744-7.244-4.61-1.866-1.976-3.128-4.555-3.786-7.738a16.383 16.383 0 0 1-.494-2.47c0-.878-.055-1.81-.165-2.798a4.157 4.157 0 0 1 0-1.647c.22-.549.33-1.097.33-1.646 0-.33.054-.988.164-1.976.22-1.097.439-1.866.658-2.305.44-1.097.714-2.03.824-2.798l1.646-3.622c.659-1.318 1.372-2.47 2.14-3.458 2.415-3.183 4.994-5.597 7.738-7.244 2.744-1.646 6.147-3.073 10.208-4.28a23.617 23.617 0 0 1 4.61-1.153 87.393 87.393 0 0 0 4.774-.823c.878-.22 1.81-.33 2.799-.33 1.097-.11 2.14-.274 3.128-.493a5.48 5.48 0 0 1 2.305-.165c.768 0 1.646-.11 2.634-.33a8.355 8.355 0 0 1 2.305-.328c.768 0 1.591-.11 2.47-.33 2.414-.548 4.61-.987 6.585-1.317 2.085-.439 4.06-1.427 5.927-2.963 1.097-.988 1.975-2.086 2.634-3.293.11-.33.165-.604.165-.823 0-.22.054-.44.164-.659.22-.22.33-.548.33-.987.11-.44.219-.769.329-.988v-2.47c-.44-3.293-2.305-5.543-5.598-6.75-.878-.33-2.03-.549-3.457-.658a17.022 17.022 0 0 0-4.116-.165c-1.427 0-2.854.11-4.28.33-1.318.219-2.47.493-3.458.822a7.596 7.596 0 0 0-2.14.988c-.659.33-1.317.714-1.976 1.153-.659.439-1.372 1.042-2.14 1.81-.769.769-1.317 1.482-1.647 2.14a35.889 35.889 0 0 0-1.975 3.129c-.55.988-1.482 1.646-2.8 1.976-.877.22-1.81.329-2.798.329h-9.22c-.548 0-1.152.055-1.81.165-.55 0-.988-.055-1.318-.165h-1.481c-.22-.11-.494-.165-.824-.165a1.12 1.12 0 0 1-.823-.329c-.768-.22-1.207-.933-1.317-2.14 0-.55.11-1.098.33-1.647.219-.548.438-1.042.658-1.481a45.962 45.962 0 0 1 1.646-3.293 34.697 34.697 0 0 1 1.976-2.964l1.317-1.646 1.317-1.646c1.098-1.208 2.415-2.36 3.951-3.458.33-.11.714-.384 1.153-.823a37.13 37.13 0 0 0 1.646-1.152c.549-.33 1.153-.659 1.811-.988a29.998 29.998 0 0 1 6.421-2.799c2.305-.768 4.61-1.482 6.915-2.14a28.857 28.857 0 0 1 4.28-.659 33.596 33.596 0 0 0 4.446-.658c.439-.11 1.097-.11 1.975 0 .878.11 1.482.055 1.811-.165 4.5-.11 8.726.055 12.677.494Zm183.035 1.317c3.731 1.317 6.97 3.073 9.713 5.268a16.201 16.201 0 0 1 2.47 2.305c.878.769 1.591 1.592 2.14 2.47.22.549.604.988 1.152 1.317a23.235 23.235 0 0 1 1.647 3.787 114.3 114.3 0 0 0 1.81 3.786c.33.988.55 2.03.66 3.128.219.988.438 2.086.658 3.293.22 1.427.33 2.909.33 4.445l.328 4.61c0 .878-.164 1.866-.494 2.964-.22.987-.274 1.92-.164 2.798l-.33 1.811c0 .878-.219 1.866-.658 2.964-.439 1.097-.988 1.81-1.646 2.14-.55.44-1.372.768-2.47.988-1.097.11-2.305.22-3.622.33h-3.787a36.646 36.646 0 0 0-3.292-.165h-42.476a4.84 4.84 0 0 0-1.811.329c-.988.439-1.647.878-1.976 1.317-.22.22-.549.658-.988 1.317-.33.549-.494 1.098-.494 1.646.11.659.11 1.317 0 1.976 0 .549.055 1.152.165 1.811.33 2.634.933 4.83 1.81 6.585.989 1.647 2.416 3.129 4.281 4.446a7.244 7.244 0 0 0 2.47 1.152c.988.11 1.92.33 2.799.659.878.22 2.03.384 3.457.493 1.537.11 2.909.055 4.116-.164h1.482c1.097-.22 2.14-.44 3.128-.659l2.963-.987c1.208-.55 2.58-1.263 4.116-2.14 1.537-.879 2.744-1.757 3.622-2.635a19.703 19.703 0 0 1 2.14-2.14c.769-.769 1.592-1.317 2.47-1.647 1.207-.548 2.634-.768 4.28-.658h6.75c.769-.11 1.427-.055 1.976.165h1.647c.987.219 1.7.493 2.14.823.33.22.439.713.33 1.481 0 .769-.165 1.427-.495 1.976-.878 1.537-1.81 2.909-2.799 4.116a42.98 42.98 0 0 1-2.963 3.622c-3.073 3.622-6.366 6.53-9.878 8.726-3.512 2.195-7.738 4.06-12.677 5.597-1.317.44-2.58.714-3.787.823a29.61 29.61 0 0 0-3.951.659c-.44.11-.933.11-1.482 0a5.4 5.4 0 0 0-1.317.165h-1.81a4.054 4.054 0 0 1-1.977.164 9.25 9.25 0 0 1-1.81-.164c-.879-.11-1.647-.11-2.305 0-.659.11-1.372.055-2.14-.165a4.834 4.834 0 0 0-1.812-.33c-.658 0-1.207-.109-1.646-.329a42.987 42.987 0 0 1-3.622-.823 8.79 8.79 0 0 1-2.964-1.152 56.905 56.905 0 0 0-3.128-1.153 15 15 0 0 1-2.634-1.481c-3.073-2.195-5.707-4.72-7.902-7.574-2.086-2.963-3.622-6.366-4.61-10.207a20.956 20.956 0 0 1-.659-3.622 16.2 16.2 0 0 0-.494-3.951v-1.153a5.4 5.4 0 0 0 .165-1.317 27.824 27.824 0 0 1 0-4.28l.659-4.61a9.25 9.25 0 0 0 .164-1.811c.11-.659.275-1.262.494-1.811l.494-1.976 1.317-3.951a183.597 183.597 0 0 0 2.14-5.433 25.957 25.957 0 0 1 2.47-4.94c7.024-11.414 16.683-19.481 28.976-24.2a20.606 20.606 0 0 1 4.939-1.318 162.78 162.78 0 0 0 5.268-1.152c.878-.11 1.702-.165 2.47-.165.768 0 1.591-.055 2.47-.165 5.597-.11 10.262.55 13.994 1.976ZM54.193 0c1.866 0 3.183.384 3.951 1.152.659.55 1.043 1.372 1.153 2.47.11.988.274 1.976.493 2.963.22 1.757.44 3.568.659 5.433a79.94 79.94 0 0 1 .823 5.433 324.493 324.493 0 0 1 2.964 21.074 449.552 449.552 0 0 0 3.128 21.238c.439 2.195.768 4.445.988 6.75.219 2.305.548 4.555.987 6.75l.33 1.647c.11.548.384.987.823 1.317.22.11.384.22.494.329.22.11.494.055.823-.165.878-.22 1.591-.878 2.14-1.975a35.89 35.89 0 0 1 1.646-2.964 482.876 482.876 0 0 0 3.787-7.408 125 125 0 0 1 3.951-7.574L93.87 36.385c3.622-6.805 7.19-13.61 10.701-20.415a218.403 218.403 0 0 1 2.635-5.104c.987-1.756 1.92-3.512 2.798-5.268a31.84 31.84 0 0 1 1.482-2.635c.549-.878 1.317-1.591 2.305-2.14.768-.549 1.646-.823 2.634-.823h28.318c1.097 0 1.866.22 2.305.659 1.097.658 1.426 1.92.987 3.786a517.56 517.56 0 0 0-.987 5.433l-4.94 24.696-12.347 61.244-2.799 14.324a42.988 42.988 0 0 1-.823 3.622c-.33 1.097-.878 1.92-1.647 2.47a5.495 5.495 0 0 1-2.634.987h-15.64a19.525 19.525 0 0 0-2.14-.494c-.55-.11-.988-.494-1.318-1.152-.329-.55-.439-1.263-.329-2.14.22-.879.44-1.812.659-2.8l1.646-8.396 8.561-42.311c.22-1.537.44-2.964.659-4.28a59.41 59.41 0 0 0 .823-4.281l.658-2.635c.22-.987.33-1.92.33-2.798a9.292 9.292 0 0 1 0-2.47c.22-.878.055-1.427-.494-1.646-.33-.11-.604-.055-.823.164l-.494.494a7.195 7.195 0 0 0-1.482 1.647l-.988 1.646a210.634 210.634 0 0 0-2.963 5.104 63.682 63.682 0 0 1-2.964 5.268l-.988 1.976a8.31 8.31 0 0 1-.987 1.975 85.638 85.638 0 0 0-2.47 4.28 40.789 40.789 0 0 1-2.305 4.281c-.22.33-.384.714-.494 1.153-.11.33-.274.658-.494.988a29.063 29.063 0 0 0-1.81 3.128 16.368 16.368 0 0 1-1.812 3.292 29.063 29.063 0 0 0-1.81 3.129 23.036 23.036 0 0 1-1.647 3.292 121.163 121.163 0 0 0-5.433 9.714 403.703 403.703 0 0 1-5.104 9.549c-.329.329-.548.658-.658.987 0 .33-.165.659-.494.988a42.193 42.193 0 0 0-2.14 3.787 29.468 29.468 0 0 1-1.976 3.622 36.579 36.579 0 0 1-1.317 2.14 7.195 7.195 0 0 1-1.482 1.647c-.658.439-1.262.713-1.81.823-.55 0-1.263.11-2.141.329H64.4c-.768 0-1.701.055-2.799.165h-3.128c-.987 0-1.92-.055-2.798-.165-.879-.11-1.482-.33-1.811-.659-.769-.548-1.263-1.152-1.482-1.81-.11-.769-.33-1.647-.659-2.635a48.55 48.55 0 0 1-.494-3.951 24.779 24.779 0 0 0-.658-4.116l-.165-1.482a24.779 24.779 0 0 1-.658-4.115 24.997 24.997 0 0 0-.659-4.281v-.823c0-.33-.055-.659-.165-.988a14.415 14.415 0 0 1-.658-3.128 34.065 34.065 0 0 0-.494-3.293v-.823c0-.33-.055-.604-.165-.823A34.065 34.065 0 0 1 47.113 81c0-1.098-.164-2.195-.493-3.293-.44-2.195-.824-4.5-1.153-6.914a73.266 73.266 0 0 0-.988-7.08 193.624 193.624 0 0 1-1.152-8.396 40.38 40.38 0 0 0-1.482-8.232c-.22-1.537-.549-2.799-.988-3.787a2.58 2.58 0 0 0-.658-.494c-.11-.22-.33-.22-.659 0-.658.33-1.097.878-1.317 1.647a9.111 9.111 0 0 1-.658 2.305 6.573 6.573 0 0 0-.824 2.47c-.11.768-.22 1.59-.329 2.469a42.987 42.987 0 0 1-.823 3.622 42.987 42.987 0 0 1-.823 3.622l-8.726 43.793-1.646 8.067-.659 2.634c-.11.878-.439 1.592-.988 2.14-.549.769-1.481 1.263-2.799 1.482-.768.22-1.591.33-2.47.33a21.218 21.218 0 0 0-2.633-.165H2.99c-.988-.11-1.756-.439-2.305-.988-.549-.549-.768-1.372-.659-2.47l.659-3.621 2.799-14.488 12.348-61.245 4.61-23.05c.11-.658.219-1.426.329-2.304.22-.988.439-1.92.658-2.799.22-.878.44-1.701.659-2.47.329-.877.603-1.536.823-1.975.658-.768 1.646-1.317 2.963-1.646.33-.11.55-.11.659 0 .22 0 .494-.055.823-.165h26.836Zm447.682 33.092c4.06 2.085 6.915 5.158 8.561 9.22.549 1.207.878 2.524.988 3.95.22 1.318.384 2.69.494 4.117.11.878.11 1.7 0 2.47a8.108 8.108 0 0 0 0 2.304c-.22.659-.275 1.098-.165 1.317a38.265 38.265 0 0 1-.659 4.775 356.23 356.23 0 0 1-.987 4.774l-2.8 14.653-5.432 26.67a558.09 558.09 0 0 1-1.317 6.092c-.44 1.866-1.482 3.074-3.128 3.622-.659.22-1.427.33-2.305.33H483.6c-1.317 0-2.47-.055-3.457-.165-.988-.22-1.701-.713-2.14-1.482-.33-.658-.44-1.481-.33-2.47.22-1.097.44-2.25.659-3.457l2.305-11.524 4.939-24.53c.768-4.062 1.317-7.794 1.646-11.196.44-3.512.055-6.476-1.152-8.89-1.098-2.196-3.019-3.732-5.762-4.61a4.834 4.834 0 0 0-1.811-.33c-.55 0-1.098-.11-1.647-.329-.549-.11-1.262-.11-2.14 0-.768 0-1.372.055-1.811.165-.549.11-.988.164-1.317.164-.33 0-.659.055-.988.165-2.634.659-4.83 1.537-6.585 2.634-4.062 2.525-6.915 6.201-8.562 11.03-1.536 4.83-2.908 10.263-4.115 16.3l-4.116 20.58-1.976 10.042-.659 2.964c-.22.987-.548 1.81-.987 2.47-.769 1.206-1.811 1.92-3.128 2.14-1.208.219-2.69.329-4.446.329h-8.231c-1.208 0-2.415-.055-3.622-.165-1.208-.11-1.976-.494-2.305-1.152-.659-.988-.769-2.415-.33-4.281.44-1.866.824-3.622 1.153-5.268l4.445-22.39 7.244-36.22 1.811-8.397c.22-1.208.439-2.305.659-3.293a4.44 4.44 0 0 1 1.481-2.47c.22-.329.604-.548 1.153-.658a9.386 9.386 0 0 1 1.646-.494h.823a8.376 8.376 0 0 1 1.647-.165h8.725c.878 0 1.702.055 2.47.165.878 0 1.646.11 2.305.33.658.329 1.042.822 1.152 1.481.22.659.33 1.427.33 2.305 0 .439-.055.823-.165 1.152-.11.33-.11.659 0 .988.11.549.22.878.33.988.219.11.493.274.822.494 1.098.11 2.14-.275 3.128-1.153.988-.987 1.976-1.756 2.964-2.304a49.702 49.702 0 0 1 10.866-5.269c1.097-.33 2.14-.549 3.128-.658a56.205 56.205 0 0 0 3.622-.494c.33-.11.823-.11 1.482 0 .658 0 1.097-.055 1.317-.165 6.585-.22 11.854.714 15.805 2.799Zm-298.81 44.781c-.439.11-.823.22-1.152.33-.33 0-.769.054-1.317.164-.769.22-1.592.384-2.47.494a30.23 30.23 0 0 0-2.799.494c-.329.11-.823.164-1.481.164-1.537.33-3.019.55-4.446.659-1.427.11-2.853.384-4.28.823l-2.634.659a9.12 9.12 0 0 0-2.305.658c-2.525.988-4.775 2.47-6.75 4.445-1.976 1.976-3.128 4.72-3.458 8.232-.11 1.866.22 3.403.988 4.61.44 1.207 1.372 2.195 2.799 2.963 1.427.659 3.018 1.153 4.774 1.482 1.756.33 3.622.44 5.598.33a33.34 33.34 0 0 0 5.927-1.153c3.073-.878 5.598-2.25 7.573-4.116 2.086-1.976 3.842-4.39 5.269-7.244.329-.768.603-1.537.823-2.305.22-.878.548-1.756.988-2.634l.329-1.482a8.72 8.72 0 0 0 .494-1.81c.11-.77.164-1.428.164-1.976 0-.659.055-1.263.165-1.811.11-.55-.055-.988-.494-1.317-.439-.44-1.207-.659-2.305-.659Zm174.803-30.458c-.33.22-.714.275-1.153.165-.439-.11-.823-.11-1.152 0-.659.22-1.317.384-1.976.494-.658 0-1.262.11-1.81.33-5.16 1.536-9.33 4.554-12.513 9.054-.33.44-.714 1.043-1.153 1.811a7.596 7.596 0 0 0-.987 2.14 6.215 6.215 0 0 0-.33 1.976c0 .659.275 1.207.823 1.646.769.55 1.921.824 3.458.824h27.494c1.756-.11 2.964-.604 3.622-1.482.988-1.098 1.317-2.415.988-3.951-.22-1.647-.384-2.854-.494-3.622-.988-2.964-2.58-5.214-4.774-6.75-2.196-1.647-5.543-2.525-10.043-2.635Z" fill="#000"/>
    <path d="M66.756.315c-.234.096-.49.218-.764.363l-.427.236a20.89 20.89 0 0 0-.94.576l-.51.34-.535.372-.561.406-.585.438-.302.231-.62.485-.64.516-.663.546-.682.576-.702.604-.72.633-.737.66-.374.34 2.411 6.793c2.61-2.784 5.23-5.263 7.802-7.375l.905-.734.065-.05-.622.506-.61.528-.662.598-.627.588-.527.507-.379.371-.82.822-.67.689-.966 1.018-.514.553-.534.583-.84.93-.584.66c.6.057 1.258.107 1.958.149l1.08.057 1.134.047 1.175.037 1.205.026 1.224.016.615.005 1.23.002c.206 0 .41-.002.614-.003l1.212-.012c.2-.002.4-.005.597-.009l1.17-.024c.959-2.86 1.178-5.16 1.104-6.878l-.026-.435-.037-.408L74.054 7l-.051-.369-.059-.341-.031-.161-.066-.301-.069-.275-.07-.247-.069-.22-.129-.359-.105-.249-.249-.514-.145-.274-.122-.216-.14-.236-.16-.254-.18-.266-.196-.275c-1.1-1.482-2.98-3.15-5.457-2.128Z" fill="url(#h)" transform="translate(260.14 28.697)"/>
    <path d="m283.012 98.652 1.009-1.836 1.369-2.439 1.199-2.127.595-1.051 1.325-2.296 1.309-2.247.645-1.103a452.87 452.87 0 0 1 2.015-3.376l1.317-2.172a327.901 327.901 0 0 1 3.356-5.411l1.327-2.078.652-1.015.936-1.44 1.135-1.705 1.095-1.651.504-.744.979-1.467.168-.242.315-.467.084-.12-.42-.018-.235-.68-.116.183c-.506.713-1.013 1.436-1.515 2.169l-1.61 2.386-.445.646a257.067 257.067 0 0 0-2.66 4.04l-.874 1.368a352.922 352.922 0 0 0-3.484 5.526c-1.135 1.816-2.227 3.639-3.319 5.461a450.262 450.262 0 0 0-2.15 3.627l-1.053 1.807a306.152 306.152 0 0 0-3.207 5.61c-.238.411-.48.844-.697 1.258a332.461 332.461 0 0 0-2.454 4.43l.373 1.101.464.024c.028-.04.057-.081.063-.125.653-1.315 1.33-2.587 2.005-3.826Z"/>
    <path d="M47.161 29.252c1.303-1.747 2.6-3.45 3.89-5.11 1.345-1.718 2.7-3.369 4.072-4.972.082-.1.163-.199.241-.276a132.503 132.503 0 0 1 4.023-4.49l-2.415-6.77-.292.27-.61.556a145.718 145.718 0 0 0-3.553 3.422c-.692.689-1.392 1.4-2.103 2.13l-1.44 1.49-.732.765a221.58 221.58 0 0 0-4.113 4.498 298.918 298.918 0 0 0-2.655 3.066l-1.024 1.206 3.082 9.208 1.219-1.67 2.41-3.323Z" fill="url(#i)" transform="translate(260.14 28.697)"/>
    <path d="m20.745 73.852-.458.847-1.212 2.261c-.204.382-.408.767-.612 1.155l-.64 1.234c-.123.228-.242.433-.343.663l-.674 1.301-1.474 2.862c1.2.777 2.001 2.454 2.705 4.34.156-1.826-.336-3.636-1.561-5.153 6.26 1.209 11.947.417 15.416-3.797.301-.38.605-.78.89-1.206-1.469 1.374-3.077 1.858-5.845 1.341l-.313-.062c4.671-1.32 7.152-2.893 9.551-5.727a35.322 35.322 0 0 0 1.732-2.24c-4.417 3.383-9.03 3.843-13.593 2.304l-3.569-.123Z" fill="url(#j)" transform="translate(260.14 28.697)"/>
    <path d="m22.837 67.492 1.3-2.283 2.148-3.754a407.988 407.988 0 0 1 3.203-5.434 670.63 670.63 0 0 1 3.319-5.461 288.952 288.952 0 0 1 3.484-5.526c1.157-1.813 2.358-3.62 3.533-5.408.43-.65.856-1.278 1.307-1.924.74-1.095 1.502-2.186 2.264-3.277l.116-.184-3.042-9.179-.172.214c-.03.036-.063.071-.098.103-1.246 1.51-2.517 3.04-3.751 4.618-1.26 1.598-2.5 3.22-3.725 4.89a306.644 306.644 0 0 0-3.053 4.252l-.595.87A120.964 120.964 0 0 0 22.5 50.808a141.167 141.167 0 0 0-1.74 3.354c-.446.915-.873 1.855-1.297 2.773a86.678 86.678 0 0 0-2.656 6.56l3.098 9.255.602-1.099 1.233-2.21c.207-.37.413-.744.619-1.12l.478-.828Z" fill="url(#k)" transform="translate(260.14 28.697)"/>
    <path d="M16.697 63.79a68.838 68.838 0 0 0-2.11 7.06l-.297 1.298c-.28-.643-.728-1.308-1.233-1.935l-.309-.371a17.152 17.152 0 0 0-.158-.182l-.32-.352-.32-.336-.314-.318-.45-.434-.41-.376-.447-.393-.403-.332c2.06 4.178 3.494 8.22 3.237 11.948-1.437.079-3.296-.617-5.38-1.747.897 1.1 1.721 1.876 2.416 2.42l.311.235c.05.037.1.072.149.106l.281.19.26.161.238.136.214.111.189.09.162.07.072.029c-1.747-.147-3.682.588-5.682 1.6l-.669.348-.672.363c3.445-.854 6.16-.99 7.972-.279a448.592 448.592 0 0 0-2.686 5.17l-1.356 2.668a667.1 667.1 0 0 0-6.189 12.624l-1.394 2.929A944.65 944.65 0 0 0 0 109.26c.954-.127 1.592-.68 2.02-1.464l1.577-3.346 1.453-3.008 1.855-3.778 1.64-3.284 1.624-3.21 1.543-3.01 2.14-4.116 1.521-2.88.523-.983.45-.832.41-.78.624-1.153 1.281-2.352.656-1.198.606-1.092.003-.022-3.097-9.254a1.42 1.42 0 0 0-.095.192l-.037.1Z" fill="url(#l)" transform="translate(260.14 28.697)"/>
    <path d="m44.121 35.088-.482.71c-.324.486-.658.972-.99 1.465l-1.589 2.396-1.134 1.704-.288.442c-.43.66-.863 1.332-1.3 2.014l-1.327 2.078a304.261 304.261 0 0 0-2.673 4.292l-.683 1.119a456.85 456.85 0 0 0-3.332 5.548l-1.296 2.214c-.654 1.12-1.316 2.26-1.983 3.432-.395.69-.792 1.391-1.192 2.101l-1.971 3.516-.604 1.096-1.227 2.232c-.412.753-.826 1.513-1.242 2.281a.318.318 0 0 0-.063.124l3.569.123c-.062-.031-.128-.04-.212-.075 4.286.094 10.33-2.228 14.498-5.581 1.92-1.545 3.731-3.418 5.489-5.678 1.315-1.678 2.572-3.565 3.843-5.696a86.678 86.678 0 0 0 3.274-6.07c-1.033.362-2.2.57-3.46.652l-.673.035c-.15.007-.298.005-.453.006l-.239.003c4.147-.928 7.036-3.467 9.35-6.781-1.128.547-2.942 1.217-5.015 1.38a9.421 9.421 0 0 1-.851.031c-.044-.006-.089-.003-.14-.004l-.081-.006c1.435-.369 2.683-.831 3.799-1.448.16-.08.312-.172.461-.267l.223-.145c.344-.216.669-.458.994-.7l.606-.49c.46-.4.904-.848 1.312-1.345l.26-.302c.041-.05.08-.101.118-.155l.33-.463c.051-.075.102-.15.15-.224a40.137 40.137 0 0 0 1.579-2.437l.183-.312c.239-.41.449-.78.634-1.132l.217-.414.329-.666a9.97 9.97 0 0 0 .183-.395l.096-.224.163-.404c.048-.124.09-.239.125-.342l.047-.147c-.098.06-.205.118-.321.168l-.181.07c-1.28.525-3.405.881-5.085.947-.022-.004-.044-.007-.069.012l-.335.002a2.811 2.811 0 0 0-.179.012l.094-.031-11.211-.42c.009.09-.02.13-.045.15Z" fill="url(#m)" transform="translate(260.14 28.697)"/>
    <path d="M59.822 14.624c-.4.454-.814.93-1.241 1.429l-.872 1.026-.907 1.083-1.095 1.322a.883.883 0 0 0-.065.096c-.625.767-1.266 1.57-1.927 2.413l-1.008 1.298-.515.674-1.448 1.914-.946 1.268c-.48.646-.967 1.31-1.465 1.999l-.5.695c-.503.69-1.008 1.4-1.522 2.13l-1.039 1.484-1.07 1.534 11.212.42c3.423-1.013 5.058-2.132 6.738-3.868a33.98 33.98 0 0 0 1.017-1.12l.342-.396a65.111 65.111 0 0 0 4.056-5.175c1.235-1.735 2.358-3.463 3.233-5.028a31.024 31.024 0 0 0 1.41-2.778c.309-.735.567-1.432.8-2.11l-1.163.02-1.196.012-1.217.004-1.228-.004-.614-.006-1.222-.018-1.203-.027-.591-.017-1.155-.042a99.894 99.894 0 0 1-.56-.025l-1.08-.058a56.81 56.81 0 0 1-1.959-.149Z" fill="url(#n)" transform="translate(260.14 28.697)"/>
  </g>
</svg>
