<svg viewBox="0 0 256 285" xmlns="http://www.w3.org/2000/svg" preserveAspectRatio="xMidYMid" height="1em" width="1em">
  <path d="M206.052 203.265C237.813 190.014 256 183.436 256 183.436L189.698 0 0 40.15s4.022 11.406 10.833 56.141L152.495 64.46l53.557 138.805" fill="#E80022"/>
  <path d="M22.837 187.856c3.068 27.315 6.069 58.652 9.577 96.507a2593.556 2593.556 0 0 1 88.56-43.423l-25.941-69.291-72.196 16.207" fill="#B6B1B1"/>
  <path d="M13.422 114.016c2.152 15.307 4.524 33.606 7.085 55.417l85.945-20.253 30.88 84.2a2291.268 2291.268 0 0 1 50.227-22.289L141.076 86.93 13.422 114.016" fill="#748282"/>
</svg>
