<svg viewBox="0 0 512 190" xmlns="http://www.w3.org/2000/svg" xmlns:xlink="http://www.w3.org/1999/xlink" preserveAspectRatio="xMidYMid" height="1em" width="1em">
  <defs>
    <path d="M78.646 1.2 4.482 44.009A8.95 8.95 0 0 0 0 51.765v85.685a8.964 8.964 0 0 0 4.478 7.76l74.164 42.843a8.965 8.965 0 0 0 8.964 0l74.18-42.842a8.962 8.962 0 0 0 4.48-7.76V51.767a8.951 8.951 0 0 0-4.482-7.76L87.602 1.201A8.927 8.927 0 0 0 83.122 0a8.918 8.918 0 0 0-4.476 1.2Z" id="a"/>
  </defs>
  <path d="M78.645 1.2 4.481 44.008A8.953 8.953 0 0 0 0 51.764v85.686a8.964 8.964 0 0 0 4.477 7.76l74.163 42.843a8.969 8.969 0 0 0 8.965 0l74.18-42.842a8.962 8.962 0 0 0 4.48-7.76V51.767a8.953 8.953 0 0 0-4.482-7.76L87.602 1.2a8.936 8.936 0 0 0-4.48-1.2 8.93 8.93 0 0 0-4.477 1.2" fill="#2261A8"/>
  <g transform="translate(0 .411)">
    <mask id="b" fill="#fff">
      <use xlink:href="#a"/>
    </mask>
    <path fill="#FFF" mask="url(#b)" d="M50.114 182.649h17.442v-69.394h24.17V97.93H25.944v15.325h24.17zm78.107 1.121c16.57 0 28.904-8.596 28.904-24.294 0-14.577-8.347-21.055-23.173-27.41l-4.36-1.868c-7.476-3.24-10.715-5.357-10.715-10.59 0-4.236 3.24-7.475 8.348-7.475 4.983 0 8.223 2.118 11.212 7.475l13.58-8.721c-5.73-10.091-13.704-13.953-24.792-13.953-15.573 0-25.54 9.967-25.54 23.048 0 14.203 8.347 20.93 20.93 26.288l4.36 1.868c7.974 3.49 12.709 5.607 12.709 11.587 0 4.983-4.61 8.597-11.836 8.597-8.596 0-13.455-4.486-17.193-10.59l-14.203 8.222c5.108 10.091 15.573 17.816 31.77 17.816Z"/>
  </g>
  <path d="M258.708 125.059a3.726 3.726 0 0 0-1.864-3.241l-30.879-17.77a3.634 3.634 0 0 0-1.7-.491h-.319a3.682 3.682 0 0 0-1.705.491l-30.879 17.77a3.742 3.742 0 0 0-1.866 3.24l.068 47.85c0 .667.345 1.285.931 1.612a1.793 1.793 0 0 0 1.853 0l18.35-10.509c1.16-.69 1.867-1.905 1.867-3.235v-22.355c0-1.333.706-2.567 1.862-3.229l7.814-4.5a3.708 3.708 0 0 1 1.87-.501c.636 0 1.289.164 1.854.5l7.812 4.501a3.718 3.718 0 0 1 1.865 3.229v22.355c0 1.33.715 2.554 1.869 3.235l18.345 10.509a1.816 1.816 0 0 0 1.866 0c.568-.327.926-.945.926-1.611l.06-47.85ZM407.284 59.28a1.867 1.867 0 0 0-2.775 1.629v47.388a1.305 1.305 0 0 1-1.957 1.13l-7.734-4.455a3.726 3.726 0 0 0-3.726.001l-30.89 17.827a3.727 3.727 0 0 0-1.866 3.23v35.66c0 1.334.71 2.565 1.864 3.232l30.889 17.841a3.735 3.735 0 0 0 3.731 0l30.895-17.84a3.733 3.733 0 0 0 1.864-3.232V72.795a3.731 3.731 0 0 0-1.913-3.257L407.284 59.28Zm-2.866 90.694a.93.93 0 0 1-.466.806l-10.607 6.115a.937.937 0 0 1-.931 0l-10.606-6.115a.928.928 0 0 1-.466-.806v-12.246c0-.333.177-.642.465-.808l10.606-6.127a.934.934 0 0 1 .934 0l10.605 6.127a.935.935 0 0 1 .466.808v12.246Zm105.726-12.567a3.73 3.73 0 0 0 1.856-3.225v-8.642a3.73 3.73 0 0 0-1.858-3.226l-30.691-17.82a3.726 3.726 0 0 0-3.738-.004l-30.88 17.827a3.733 3.733 0 0 0-1.864 3.23v35.652c0 1.341.72 2.578 1.884 3.24l30.688 17.487a3.726 3.726 0 0 0 3.657.02l18.561-10.317a1.86 1.86 0 0 0 .959-1.617 1.863 1.863 0 0 0-.936-1.63l-31.075-17.837a1.864 1.864 0 0 1-.937-1.619v-11.172c0-.666.356-1.283.933-1.615l9.671-5.576a1.863 1.863 0 0 1 1.862 0l9.676 5.576c.579.332.934.949.934 1.615v8.79a1.866 1.866 0 0 0 2.802 1.613l18.496-10.75Z" fill="#333"/>
  <path d="M477.127 135.737a.712.712 0 0 1 .715 0l5.928 3.42a.714.714 0 0 1 .358.62v6.844a.715.715 0 0 1-.358.62l-5.928 3.42a.716.716 0 0 1-.715 0l-5.923-3.42a.717.717 0 0 1-.358-.62v-6.844c0-.257.137-.492.358-.62l5.923-3.42Zm-170.458-31.063-30.632 17.68a3.698 3.698 0 0 0-1.85 3.204v35.39c0 1.323.705 2.544 1.849 3.206l30.631 17.694a3.703 3.703 0 0 0 3.702 0l30.638-17.694a3.702 3.702 0 0 0 1.85-3.206V125.56a3.698 3.698 0 0 0-1.85-3.206l-30.64-17.68a3.693 3.693 0 0 0-3.698 0" fill="#2261A8"/>
</svg>
