<svg viewBox="0 0 256 256" xmlns="http://www.w3.org/2000/svg" preserveAspectRatio="xMidYMid" height="1em" width="1em">
  <defs>
    <linearGradient x1="43.896%" y1="1.951%" x2="66.16%" y2="95.244%" id="a">
      <stop stop-color="#07C3F2" offset="28%"/>
      <stop stop-color="#087CFA" offset="94%"/>
    </linearGradient>
    <linearGradient x1="33.063%" y1="15.078%" x2="70.362%" y2="84.685%" id="b">
      <stop stop-color="#FCF84A" offset="14%"/>
      <stop stop-color="#07C3F2" offset="37%"/>
    </linearGradient>
    <linearGradient x1="44.416%" y1="25.058%" x2="56.203%" y2="90.203%" id="c">
      <stop stop-color="#07C3F2" offset="28%"/>
      <stop stop-color="#087CFA" offset="94%"/>
    </linearGradient>
  </defs>
  <path fill="url(#a)" d="M34.507 231.36 0 26.827 63.813.347 104.56 24.56l37.333-20.133 77.787 29.866L176.053 256z"/>
  <path fill="url(#b)" d="m256 86.693-33.04-81.6L163.013 0 70.48 88.907l24.907 114.586 46.506 32.614L256 168.4l-28-52.507z"/>
  <path fill="url(#c)" d="m204.72 74.533 23.28 41.36 28-29.2-20.56-50.826z"/>
  <path d="M48 48h160v160H48z"/>
  <path d="M67.947 177.76h60v10h-60v-10Zm56.8-109.84-8.934 35.013L105.6 67.92H95.44L85.2 102.933 76.293 67.92h-14l17.147 60.027h11.253l9.814-34.747 9.706 34.747H121.6l17.12-60.027h-13.973Zm16.48 51.707 7.813-9.6a27.573 27.573 0 0 0 17.973 7.306c5.334 0 8.694-2.133 8.694-5.68v-.16c0-1.899-.665-3.27-3.058-4.57l-.382-.2-.41-.198a18.12 18.12 0 0 0-.216-.1l-.454-.198a23.226 23.226 0 0 0-.238-.1l-.5-.198-.531-.2a35.055 35.055 0 0 0-.278-.1l-.58-.2-.303-.102-.63-.204-.667-.206a66.86 66.86 0 0 0-.347-.104l-.72-.21-.758-.214-.795-.216-.835-.221-1.605-.416-1.144-.307-.748-.207-.734-.21-.72-.215-.707-.217-.694-.222-.68-.227a50.802 50.802 0 0 1-.334-.115l-.658-.235-.643-.241-.629-.248-.614-.255a32.62 32.62 0 0 1-.301-.13l-.591-.267-.576-.275c-5.582-2.748-8.889-6.796-8.998-14.338l-.002-.574c0-10.792 8.59-17.98 20.68-18.13l.386-.003a34.667 34.667 0 0 1 22.347 7.653l-6.88 9.974a28.107 28.107 0 0 0-15.653-5.92c-5.067 0-7.734 2.32-7.734 5.333v.187c0 2.402.988 3.856 4.09 5.227l.456.196c.158.065.32.13.487.194l.518.195.548.196.58.196.611.199.646.2.679.203 1.083.312.767.213.803.217 1.719.452c.284.074.565.15.843.225l.826.23c.137.038.272.077.407.116l.8.236.781.242.765.247.746.252.728.26.357.131.7.27c7.724 3.045 12.013 7.432 12.138 15.507l.002.524c0 11.946-9.12 18.667-22.106 18.667a38.244 38.244 0 0 1-25.52-9.627Z" fill="#FFF"/>
</svg>
