<svg xmlns="http://www.w3.org/2000/svg" width="120" height="60" fill="#c22821" version="1.1">
  <path d="M73.242 25.534H63.238l-2.302 4.358c-.307.675-.829 1.442-.829 1.442h-.092l-.828-1.442-2.302-4.389h-9.974l7.857 12.122-7.826 12.122h9.82l2.64-5.063c.276-.46.613-1.381.613-1.381h.092l.614 1.38 2.7 5.064h9.821l-7.825-12.122Zm-33.85 5.647c.4-.491 4.051-4.941 4.051-9.391 0-7.672-6.29-11.938-13.963-11.938-9.636 0-13.84 5.892-13.84 11.877 0 3.529 1.564 5.984 3.743 7.887-1.258 1.012-5.708 4.756-5.708 10.065 0 6.568 5.248 12.798 15.283 12.798 10.22 0 15.283-6.292 15.283-12.583 0-4.143-2.087-6.813-4.849-8.715zM29.234 18.72c2.701 0 4.328 1.504 4.328 3.806 0 2.547-1.105 4.45-1.443 5.063-3.621-1.565-6.629-2.946-6.629-5.647 0-1.78 1.167-3.222 3.744-3.222zm-.276 24.889c-2.762 0-4.971-2.149-4.971-4.788 0-2.24 1.197-3.99 2.179-5.033 4.05 1.842 7.764 3.223 7.764 5.586 0 2.73-1.903 4.235-4.972 4.235zm72.518-12.43c.399-.521 4.05-4.97 4.05-9.39 0-7.672-6.29-11.938-13.963-11.938-9.636 0-13.84 5.892-13.84 11.877 0 3.529 1.565 5.984 3.744 7.887-1.258.982-5.708 4.726-5.708 10.035 0 6.567 5.248 12.797 15.283 12.797 10.22 0 15.283-6.291 15.283-12.582 0-4.113-2.087-6.783-4.85-8.685zM91.318 18.722c2.7 0 4.327 1.504 4.327 3.806 0 2.547-1.105 4.45-1.442 5.063-3.622-1.565-6.63-2.946-6.63-5.647 0-1.78 1.167-3.222 3.745-3.222zm-.276 24.889c-2.762 0-4.972-2.149-4.972-4.788 0-2.24 1.197-3.99 2.18-5.033 4.05 1.842 7.733 3.223 7.733 5.586 0 2.73-1.903 4.235-4.941 4.235z" style="stroke-width:.30688736"/>
</svg>
