<svg xmlns="http://www.w3.org/2000/svg" xmlns:xlink="http://www.w3.org/1999/xlink" width="120" height="60">
  <g fill="#3c3c3b" transform="translate(1.494 1.068) scale(.96439)">
    <path d="m44.73 24.504-.47 1.832-1.047 3.14h3.036l-1.047-3.14c-.2-.628-.47-1.832-.47-1.832zm2.04 6.7H42.7l-.995 2.984h-2.198l4.135-11.672h2.198l4.083 11.672h-2.198zm7.854 1.413c1.1 0 2.094-.785 2.094-2.67 0-1.3-.68-2.565-2.094-2.565-1.152 0-2.094.942-2.094 2.617 0 1.57.9 2.617 2.094 2.617m-.366-7.014c1.832 0 2.408 1.1 2.408 1.1v-4.187h2.094v11.672h-2v-1.204s-.733 1.413-2.617 1.413c-2.25 0-3.716-1.78-3.716-4.397 0-2.67 1.57-4.397 3.82-4.397m9.38 7.172c1.1 0 1.884-1.204 1.884-2.198v-.2h-.366c-1.1 0-2.826.157-2.826 1.3.052.523.47 1.1 1.3 1.1m1.62-3.876h.314v-.105c0-1.1-.68-1.466-1.623-1.466-1.204 0-2.303.785-2.303.785l-.785-1.518s1.3-1.047 3.298-1.047c2.198 0 3.455 1.204 3.455 3.35v5.234H65.67V32.88s-.628 1.466-2.565 1.466c-1.518 0-2.826-.942-2.826-2.617 0-2.617 3.612-2.826 4.973-2.826m8.007 3.714c1.152 0 2.094-.942 2.094-2.617 0-1.57-.837-2.617-2.094-2.617-1.1 0-2.094.785-2.094 2.67.052 1.3.733 2.565 2.094 2.565zm-4.083-6.805h1.884v1.204s.733-1.413 2.67-1.413c2.25 0 3.716 1.78 3.716 4.397 0 2.67-1.623 4.397-3.82 4.397-1.675 0-2.408-1.152-2.408-1.152a4.94 4.94 0 0 0 .052.733v3.507h-2.094z"/>
    <use xlink:href="#a"/>
    <path d="M87.914 32.774c1.1 0 1.884-1.204 1.884-2.198v-.2h-.366c-1.1 0-2.826.157-2.826 1.3.052.523.42 1.1 1.3 1.1m1.623-3.873h.262v-.105c0-1.1-.68-1.466-1.623-1.466-1.204 0-2.303.785-2.303.785L85.1 26.6s1.3-1.047 3.298-1.047c2.198 0 3.455 1.204 3.455 3.35v5.234h-1.937V32.88s-.628 1.466-2.565 1.466c-1.518 0-2.826-.942-2.826-2.617 0-2.617 3.612-2.826 5.025-2.826m2.77-3.1h2.198l1.727 5.182c.157.47.262 1.256.314 1.256l.314-1.256 1.727-5.182h2.198l-2.984 8.375h-2.512zm9.58.01h2.094v8.375H101.9zm0-3.298h2.04v1.832h-2.04zm4.082 9.16s.942.942 2.303.942c.576 0 1.1-.262 1.1-.785 0-1.256-4.083-1.1-4.083-3.77 0-1.57 1.413-2.46 3.193-2.46 1.884 0 2.826.942 2.826.942l-.785 1.57s-.785-.733-2.04-.733c-.523 0-1.1.2-1.1.785 0 1.204 4.083 1.047 4.083 3.716 0 1.413-1.204 2.512-3.193 2.512-2.094 0-3.245-1.256-3.245-1.256z"/>
    <use xlink:href="#a" x="33.918"/>
  </g>
  <path d="M23.004 37.578c0-3.575 2.86-6.434 6.434-6.434s6.435 2.86 6.435 6.434-2.86 6.435-6.435 6.435c-3.575.071-6.434-2.86-6.434-6.435m.929-20.732c-1.931-1.144-4.361-1.287-6.435-.143a6.326 6.326 0 0 0-3.279 5.934 11.573 11.573 0 0 1-1.501 5.29 11.09 11.09 0 0 1-3.86 3.861 6.561 6.561 0 0 0-3.646 5.719 6.606 6.606 0 0 0 3.217 5.647 6.587 6.587 0 0 0 6.506.143 6.326 6.326 0 0 0 3.279-5.934 11.573 11.573 0 0 1 1.501-5.29 11.09 11.09 0 0 1 3.86-3.861 6.561 6.561 0 0 0 3.646-5.719c0-2.359-1.286-4.504-3.217-5.576z" fill="#ec6e25"/>
  <defs>
    <path id="a" d="M79.487 27.592h-1.1v-1.675h1.1V23.5h2.04v2.408h1.884v1.675h-1.884v3.245c0 1.413 1.1 1.57 1.675 1.57h.366v1.832s-.262.052-.628.052c-1.152 0-3.455-.314-3.455-3.14z"/>
  </defs>
</svg>
