<svg version="1.1" xmlns="http://www.w3.org/2000/svg" xmlns:xlink="http://www.w3.org/1999/xlink" x="0px" y="0px" viewBox="0 0 120 60" style="enable-background:new 0 0 120 60" xml:space="preserve">
  <g>
    <path class="st0" d="m39.5 32.9-3.4-11.1-3.4 11.1-1.8 5.9-2 6.5h-6.7l10.1-30.8h8.4l10.1 30.8h-7.4l-2-6.5L39.5 32.9zM78.2 14.6H85v24.9h14.6v5.9H78.2L78.2 14.6 78.2 14.6zM76.1 34.2c0 7.4-4.8 11.2-12.3 11.2H51.6V14.6h12.3c7.4 0 12.2 3.8 12.2 11.2L76.1 34.2zM69.3 25.8c0-3.5-2.2-5.2-5.4-5.2h-5.5v18.9h5.4c3.3 0 5.5-1.8 5.5-5.2L69.3 25.8z"/>
    <polygon points="50,35.3 20.4,40 20.4,33.9 50,29.2" style="fill:#00A0DF"/>
  </g>
</svg>
