<svg xmlns:svg="http://www.w3.org/2000/svg" xmlns="http://www.w3.org/2000/svg" data-name="Layer 1" viewBox="0 0 120 60" version="1.1">
  <g transform="matrix(0.34342548,0,0,0.34342548,2.2989224,31.484589)">
    <path style="fill:#ef3e42" d="m 203.262,-26.361 a 5.657,5.657 0 0 0 -7.533,0 5.122,5.122 0 0 0 -1.618,3.973 5.041,5.041 0 0 0 1.618,3.915 5.657,5.657 0 0 0 7.533,0 5.068,5.068 0 0 0 1.612,-3.915 5.151,5.151 0 0 0 -1.612,-3.973" class="cls-1"/>
    <path style="fill:#1c2674" d="M33.216 6.312a6.754 6.754 0 0 1 1.992-.606 15.763 15.763 0 0 1 2.289-.172 14.242 14.242 0 0 1 2.3.172c.153.028.507.083.791.137v7.039a40.665 40.665 0 0 1-4.1.165 7.371 7.371 0 0 1-3.913-.891C32.057 11.835 31.457 11.208 31.457 9.194a3.037 3.037 0 0 1 .458-1.77 3.312 3.312 0 0 1 1.3-1.112m13.773-17.16a10.686 10.686 0 0 0-4.341-2.795 19 19 0 0 0-6.472-.97 33.174 33.174 0 0 0-5.91.5 30.4 30.4 0 0 0-4.237 1.019l-.638.219.1.671.919 6 .148.981.93-.337a20.1 20.1 0 0 1 3.345-.824 27.547 27.547 0 0 1 4.568-.346 7.846 7.846 0 0 1 2.824.433 4.041 4.041 0 0 1 1.634 1.151 4.349 4.349 0 0 1 .748 1.739 4.1 4.1 0 0 1 .023 1.332c-.023.3-.046.6-.046.912v.113c-.4-.069-.88-.124-1.43-.189l-.241-.028a18.2 18.2 0 0 0-2.367-.161 24.728 24.728 0 0 0-5.233.542 13.363 13.363 0 0 0-4.529 1.825 9.727 9.727 0 0 0-3.183 3.387 10.2 10.2 0 0 0-1.171 5.057 11.925 11.925 0 0 0 1.033 5.2 9.319 9.319 0 0 0 2.907 3.5 12.181 12.181 0 0 0 4.391 1.915 25.1 25.1 0 0 0 5.5.559 54.671 54.671 0 0 0 8.029-.526c1.293-.192 2.316-.375 3.241-.534.726-.126 1.4-.241 2.114-.354l.688-.1V-1.1a20.275 20.275 0 0 0-.843-5.4 10.719 10.719 0 0 0-2.5-4.348M72.968-28.841a20.038 20.038 0 0 0-4.732-.485c-4.722 0-8.43 1.31-10.709 3.784a14.832 14.832 0 0 0-3.775 10.269V20.441H63.5v-26h11.372v-8.117H63.5v-1.476a11.513 11.513 0 0 1 .241-2.661 4.546 4.546 0 0 1 .837-1.918 4.182 4.182 0 0 1 1.645-1.2 6.893 6.893 0 0 1 2.692-.46 13.1 13.1 0 0 1 2.795.293 11.236 11.236 0 0 1 2.251.729l.908.438.232-.986 1.408-6.13.164-.692-.671-.245a24.324 24.324 0 0 0-3.037-.857M99.042 12.044l-.2-.945-.891.353a24.411 24.411 0 0 1-2.382.77 12.75 12.75 0 0 1-3.341.4c-1.673 0-2.773-.424-3.444-1.334C88.156 10.442 87.87 8.888 87.87 6.26V-5.554h11.369v-8.121H87.87v-9.96l-.935.143-8.123 1.225-.693.106V6.312a26.5 26.5 0 0 0 .775 5.855 11.519 11.519 0 0 0 2.257 4.549 9.181 9.181 0 0 0 3.99 2.923 16.243 16.243 0 0 0 6.042.981 19.076 19.076 0 0 0 5.123-.62 27.825 27.825 0 0 0 3.484-1.168l.6-.263-.131-.652zM122.23-4.847a6.551 6.551 0 0 1 1.1 2.184 6.281 6.281 0 0 1 .38 1.986h-12.067a5.814 5.814 0 0 1 .4-1.419l.137-.376a7.307 7.307 0 0 1 1.239-2.266 5.976 5.976 0 0 1 1.913-1.485 5.8 5.8 0 0 1 2.647-.553 5.664 5.664 0 0 1 2.5.518 5.37 5.37 0 0 1 1.755 1.411m-4.314-9.765a15.825 15.825 0 0 0-5.82 1.122 14.879 14.879 0 0 0-5.067 3.379 16.6 16.6 0 0 0-3.517 5.581 20.913 20.913 0 0 0-1.315 7.715 22.373 22.373 0 0 0 1.023 6.907 15.079 15.079 0 0 0 3.176 5.568 14.426 14.426 0 0 0 5.453 3.7 20.529 20.529 0 0 0 7.655 1.321 29.138 29.138 0 0 0 3.345-.2c1.057-.124 2.075-.277 3.044-.463a25.1 25.1 0 0 0 2.531-.644 12.638 12.638 0 0 0 1.806-.693l.538-.272-.1-.581-.98-6.088-.165-1.024-.951.408a20.628 20.628 0 0 1-3.384.972 22.084 22.084 0 0 1-4.761.439 9.574 9.574 0 0 1-6.488-2.006 6.447 6.447 0 0 1-2.377-4.715h20.273c.815 0 .842-.578.9-1.97.022-.545.033-.852.033-1.277 0-5.619-1.32-9.935-3.923-12.806-2.625-2.9-6.306-4.381-10.935-4.381M158.083-13.344c-.386-.129-.908-.266-1.558-.419-.616-.143-1.3-.274-1.992-.373-.66-.107-1.386-.194-2.046-.254-.66-.06-1.344-.094-1.894-.094a35.848 35.848 0 0 0-7.506.721c-2.394.523-4.3 1.024-5.833 1.523l-.562.184v32.5h9.752v-26.47c.232-.043.507-.1.737-.134l.551-.093a13.97 13.97 0 0 1 2.5-.236 18.411 18.411 0 0 1 3.61.321 24.246 24.246 0 0 1 2.455.622l.869.285.176-.9 1.276-6.25.144-.7z" class="cls-2"/>
    <path style="fill:#ef3e42" d="m 187.6,-10.111 a 10.887,10.887 0 0 0 -4.491,-3.244 17.984,17.984 0 0 0 -6.8,-1.129 48.2,48.2 0 0 0 -7.61,0.553 c -2.043,0.332 -3.375,0.675 -4.788,1.031 l -0.6,0.148 -0.617,0.156 v 33.037 h 8.122 V -6.048 a 7.892,7.892 0 0 0 1.053,-0.145 c 0.186,-0.03 0.383,-0.077 0.726,-0.115 a 27.963,27.963 0 0 1 3.07,-0.181 8.241,8.241 0 0 1 2.96,0.474 3.709,3.709 0 0 1 1.788,1.353 6.874,6.874 0 0 1 1.134,2.631 c 0.055,0.29 0.122,0.594 0.188,0.907 a 15.4,15.4 0 0 1 0.451,3.334 v 18.231 h 8.128 V 1.04 a 27.257,27.257 0 0 0 -0.506,-6.165 11.871,11.871 0 0 0 -2.207,-4.986" class="cls-1"/>
    <polygon transform="translate(0,-50)" style="fill:#ef3e42" points="203.472,70.442 203.472,69.628 203.472,37.139 203.472,36.325 202.657,36.325 196.163,36.325 195.349,36.325 195.349,37.139 195.349,69.628 195.349,70.442 196.163,70.442 202.657,70.442" class="cls-1"/>
    <path style="fill:#ef3e42" d="m 233.611,18.143 -1.04,-6.137 -0.17,-1 -0.942,0.386 a 17.251,17.251 0 0 1 -3.037,0.869 18.478,18.478 0 0 1 -3.583,0.353 c -3.114,0 -5.332,-0.833 -6.592,-2.477 A 11.4,11.4 0 0 1 216.272,3.06 c 0,-3.1 0.7,-5.515 2.079,-7.175 1.366,-1.642 3.325,-2.433 6,-2.433 a 14.894,14.894 0 0 1 3.285,0.345 15.494,15.494 0 0 1 2.773,0.877 l 0.87,0.361 0.237,-0.907 1.59,-6.071 0.181,-0.685 -0.66,-0.271 a 23.27,23.27 0 0 0 -8.887,-1.718 17.139,17.139 0 0 0 -6.949,1.356 15.453,15.453 0 0 0 -5.273,3.754 16.845,16.845 0 0 0 -3.329,5.633 20.824,20.824 0 0 0 -1.146,6.934 23.043,23.043 0 0 0 1.018,6.96 15.4,15.4 0 0 0 3.137,5.63 14.418,14.418 0 0 0 5.334,3.71 19.63,19.63 0 0 0 7.451,1.321 27.611,27.611 0 0 0 5.282,-0.507 16.177,16.177 0 0 0 3.913,-1.173 l 0.534,-0.268 z" class="cls-1"/>
    <path style="fill:#6cab36" d="m 260,17.915 2.225,-27.078 20.107,7.989 -7.067,6.1 c 9.422,12.459 18.649,16.223 26.216,16.385 A 33.2,33.2 0 0 0 266.4,-34.444 c 14.507,1.452 27.55,11.984 27.55,11.984 l 6.069,-4.94 -2.122,26.336 -19.557,-7.748 6.86,-5.932 c -9.011,-11.892 -17.828,-15.607 -25.112,-15.87 a 33.188,33.188 0 0 0 35.268,55.9 c -15.228,-1.211 -29.1,-12.431 -29.1,-12.431 z"/>
    <path style="fill:#ffffff" d="m285.2-14.744-6.861 5.932 19.553 7.748 2.123-26.336-6.069 4.939c0 0-13.046-10.531-27.546-11.983a33.814 33.814 0 0 0-6.308 3.83c7.284.264 16.1 3.979 25.112 15.87M275.268 4.925l7.066-6.1-20.107-7.989-2.227 27.08 6.252-5.061c0 0 13.872 11.22 29.1 12.431a33.392 33.392 0 0 0 6.128-3.975C293.914 21.149 284.686 17.384 275.265 4.926" class="cls-4"/>
  </g>
</svg>
