<svg version="1.1" xmlns="http://www.w3.org/2000/svg" x="0" y="0" viewBox="0 0 64 60" width="64" height="64" style="enable-background:new 0 0 64 60">
  <path d="M-359.8-414.5c0 1-.6 2-1.6 2.2-3 .8-5.8 2.2-8.3 4-2 1.5-4 2.9-6.1 4.3-1.5.9-3 1.7-4.9 1.4-2.5-.3-4.2-1.9-4.9-4.6-.2-1-.5-2-.6-3-.2-1.6-.3-3.3-.4-4.9.1-7.2 2-13.9 6.1-19.8 2.6-3.8 6.3-5.9 10.9-6.4 1.6-.2 3.2-.1 4.8 0 1.3.1 2.1 1.4 2 2.7v.6c0 .5 0 .7-.2 1.3-.1.5-.5 1.2-1.6 1.4h-4.1c-1.3 0-2.3 1.3-2.3 2.9 0 1.6 1 2.9 2.3 2.9h10.6c1.1.2 1.5.9 1.6 1.4.2.6.2.9.2 1.4v.2c0 1.6 1 2.9 2.3 2.9h1.5c1.3 0 2.3 1.3 2.3 2.9 0 1.6-1 2.9-2.3 2.9h-5c-1.3 0-2.3 1.3-2.3 2.9v.4z" style="fill:#2d70de" transform="translate(386.705 451.925)"/>
  <path d="M-409-481.3c-3.3-5.5-8.2-8-14.5-7.9-.7 0-1.5.1-2.2.1-.6.1-1 .8-.7 1.4.3.5.5 1.1.5 1.7 0 1.6-1 2.9-2.3 2.9h-7c-1.3 0-2.3 1.3-2.3 2.9 0 1.6 1 2.9 2.3 2.9h5.4c1.2 0 2.3 1.2 2.3 2.7 0 .8 0 1 .2 1.7.1.5.5 1.2 1.6 1.4h5.8c1.3 0 2.3 1.3 2.3 2.9 0 1.6-1 2.9-2.3 2.9h-9.2c-1.1.1-1.5.9-1.7 1.4-.2.6-.2.8-.2 1.3v.6c-.1 1 .6 1.9 1.6 2.1 3.3.8 6.3 2.3 9.1 4.4 2.1 1.5 4.2 3 6.4 4.3.8.5 1.9.9 2.9 1 3.2.3 5.4-1.4 6.2-4.5.6-2.2.8-4.5.9-6.8.1-6.9-1.5-13.4-5.1-19.4" style="fill:#17252e" transform="translate(467.964 499.828)"/>
</svg>
