<svg xmlns:svg="http://www.w3.org/2000/svg" xmlns="http://www.w3.org/2000/svg" version="1.1" x="0px" y="0px" viewBox="0 0 120 60" xml:space="preserve">
  <g transform="matrix(0.10370398,0,0,0.10370398,28.225101,9.8225422)">
    <g>
      <g>
        <path class="st0" d="M41.5 380c-4.6 0-8.9-.6-13-1.8-4.1-1.2-7.8-2.9-11-5.3-3.2-2.4-5.8-5.2-7.7-8.7-1.9-3.4-2.9-7.4-2.9-12v-.4c0-4.8 1.1-9.1 3.2-12.7 2.2-3.7 5.1-6.8 8.8-9.2 3.7-2.5 8-4.3 13-5.5 5-1.2 10.3-1.8 16.1-1.8 6.5 0 12.7.5 18.7 1.6 6 1.1 11.3 2.4 15.9 4.2v-7.8c0-11.2-3.1-19.5-9.3-24.9-6.2-5.4-14.8-8-25.6-8-5.8 0-11.1.7-16.1 2.1-4.9 1.4-9.8 3.3-14.6 5.6l-1.5-3.3c5.2-2.5 10.3-4.4 15.5-5.9 5.2-1.5 10.8-2.2 16.8-2.2 12.9 0 22.8 3.4 29.6 10.2 2.8 2.8 5.1 6.5 6.7 10.9 1.6 4.4 2.5 9.5 2.5 15.3v57.5h-4.1l.2-21.8c-1 2.7-2.6 5.5-4.8 8.3-2.2 2.8-5 5.4-8.5 7.8-3.4 2.3-7.5 4.2-12.2 5.7-4.5 1.4-9.8 2.1-15.7 2.1zm.1-3.7c6.1 0 11.7-.9 16.8-2.8 5.1-1.9 9.4-4.3 13-7.3 3.6-3 6.4-6.5 8.4-10.3 2-3.9 3-7.9 3-11.9v-11.8c-4.9-1.9-10.1-3.3-15.7-4.3-5.5-1-11.8-1.6-18.8-1.6-5.2 0-10 .5-14.6 1.6-4.5 1-8.5 2.7-11.9 4.8-3.4 2.2-6 4.8-7.9 8-1.9 3.2-2.9 6.9-2.9 11.1v.4c0 4.1.8 7.6 2.5 10.6 1.7 3 3.9 5.5 6.7 7.6 2.8 2 6.1 3.5 9.8 4.5 3.7.9 7.5 1.4 11.6 1.4zM137.7 285.4h4.1v23.7c.7-3 2-6 3.9-9.1 1.8-3.1 4.2-5.8 6.9-8.3 2.8-2.5 5.9-4.5 9.5-6.1 3.6-1.6 7.4-2.4 11.6-2.4 5 0 9.5.7 13.3 2.2 3.8 1.5 7.1 3.4 9.8 5.9 2.7 2.5 4.9 5.4 6.7 8.8 1.7 3.4 3 6.9 3.9 10.6.9-3.3 2.3-6.6 4.3-9.9 2-3.3 4.5-6.2 7.3-8.9 2.8-2.6 6.1-4.8 9.7-6.4 3.6-1.6 7.5-2.4 11.7-2.4 5.2 0 9.9.9 14.1 2.6 4.2 1.7 7.9 4.3 10.9 7.6 3 3.3 5.4 7.5 7.1 12.5 1.7 5 2.6 10.7 2.6 17.3v54.7H271v-54.3c0-11.9-2.9-21-8.7-27.3-5.8-6.2-13.2-9.3-22.3-9.3-3.9 0-7.8.9-11.6 2.8-3.8 1.9-7.2 4.4-10.1 7.8-2.9 3.3-5.3 7.2-7.2 11.7-1.8 4.5-2.8 9.4-2.8 14.7v54h-4.1v-54.3c0-11.9-2.9-21-8.7-27.3-5.8-6.2-13.2-9.3-22.3-9.3-3.9 0-7.8.9-11.6 2.8-3.8 1.9-7.2 4.4-10.1 7.8-2.9 3.3-5.3 7.2-7.2 11.7-1.9 4.5-2.8 9.4-2.8 14.7v54h-4.1v-92.6zM327.9 285.4h4.1v92.4h-4.1zM385.7 285.4h4.1v25.3c.7-2.8 2.1-5.8 4-9.1 1.9-3.2 4.4-6.2 7.5-9 3.1-2.8 6.7-5 11-6.8 4.2-1.8 9.1-2.7 14.7-2.7 6.3 0 11.8 1 16.6 3 4.8 2 8.8 4.9 12.1 8.6 3.3 3.7 5.7 8.1 7.5 13.3 1.7 5.2 2.6 11 2.6 17.4v52.3h-4.1v-51.9c0-5.8-.7-11.1-2.2-15.9-1.5-4.8-3.7-8.9-6.6-12.3-2.9-3.4-6.6-6-11-7.9-4.4-1.9-9.5-2.9-15.3-2.9-5.1 0-9.9 1-14.3 3-4.4 2-8.3 4.9-11.6 8.5-3.3 3.6-5.9 7.9-7.8 12.7-1.9 4.8-2.9 10-2.9 15.5v51.2h-4.1v-92.3zM557.9 380c-7.3 0-13.8-1.3-19.7-3.9-5.9-2.6-10.9-6.1-15.2-10.4-4.2-4.4-7.5-9.5-9.8-15.2-2.3-5.8-3.4-11.9-3.4-18.5v-.4c0-6.4 1.1-12.5 3.4-18.4 2.3-5.8 5.5-11 9.7-15.4 4.2-4.4 9.2-8 15.2-10.6 5.9-2.6 12.5-4 19.8-4 7.1 0 13.7 1.3 19.6 3.9 5.9 2.6 11 6.1 15.2 10.4 4.2 4.4 7.5 9.5 9.8 15.3 2.3 5.9 3.4 12 3.4 18.4v.4c0 6.5-1.1 12.7-3.4 18.6-2.3 5.9-5.5 11-9.7 15.4-4.2 4.4-9.2 7.9-15.2 10.5-5.8 2.6-12.4 3.9-19.7 3.9zm.2-3.7c6.5 0 12.5-1.2 17.8-3.5 5.4-2.3 10-5.5 13.9-9.6 3.9-4.1 6.9-8.8 9-14.2 2.1-5.4 3.1-11.1 3.1-17.2v-.4c0-6-1.1-11.8-3.2-17.2-2.2-5.4-5.2-10.2-9.1-14.2-3.9-4.1-8.6-7.3-14-9.6-5.4-2.3-11.3-3.5-17.7-3.5-6.5 0-12.5 1.2-17.8 3.5-5.4 2.3-10 5.5-13.9 9.6-3.9 4.1-6.9 8.8-9 14.2-2.1 5.4-3.1 11.1-3.1 17.2v.4c0 6 1.1 11.8 3.2 17.2 2.2 5.4 5.2 10.2 9.1 14.2 3.9 4.1 8.6 7.3 14 9.6 5.2 2.4 11.2 3.5 17.7 3.5z" style="fill:#243743;stroke:#243743;stroke-width:6.02159977;stroke-linecap:round;stroke-linejoin:round;stroke-miterlimit:10"/>
      </g>
      <path class="st1" d="M 122.2,130.8 C 156.9,67 223.3,7 302.7,7 381.2,7 447.2,65.8 482.2,128.9 l -7.2,2.2 C 441,70.5 377.7,14.4 302.7,14.4 c -76,0 -140,57.8 -173.7,119.3 z" style="fill:#19b68b;stroke:#19b68b;stroke-width:1.75030005;stroke-miterlimit:10"/>
      <path class="st1" d="M123.3 129.9c23.9-42.8 67.1-81.8 118.3-81.8 51 0 94.1 38.8 118.1 81.5l-6.7 3.2C330.1 92.2 289.5 55.6 241.6 55.6 193.7 55.6 153 92.3 130.2 132.9ZM250.7 157.3c23.9 43.5 67.3 71 113.6 71 45.4 0 88-26.4 112.2-68.5l8.1.7c-25.1 46.1-71.1 75.2-120.3 75.2-49.4 0-95.5-29.4-120.6-75.9z" style="fill:#19b68b;stroke:#19b68b;stroke-width:1.75030005;stroke-miterlimit:10"/>
      <g>
        <path class="st1" d="m 481.3,133.7 c 6.3,0 11.5,5.2 11.5,11.5 0,6.4 -5.2,11.5 -11.5,11.5 -6.3,0 -11.5,-5.2 -11.5,-11.5 0,-6.3 5.1,-11.5 11.5,-11.5 m 0,-7.3 c -10.4,0 -18.9,8.5 -18.9,18.9 0,10.4 8.5,18.9 18.9,18.9 10.4,0 18.9,-8.5 18.9,-18.9 0,-10.5 -8.5,-18.9 -18.9,-18.9 z" style="fill:#19b68b;stroke:#19b68b;stroke-width:1.75030005;stroke-miterlimit:10"/>
      </g>
      <g>
        <path class="st1" d="m 361.6,133.7 c 6.3,0 11.5,5.2 11.5,11.5 0,6.4 -5.2,11.5 -11.5,11.5 -6.3,0 -11.5,-5.2 -11.5,-11.5 0,-6.3 5.2,-11.5 11.5,-11.5 m 0,-7.3 c -10.4,0 -18.9,8.5 -18.9,18.9 0,10.4 8.5,18.9 18.9,18.9 10.4,0 18.9,-8.5 18.9,-18.9 0,-10.5 -8.5,-18.9 -18.9,-18.9 z" style="fill:#19b68b;stroke:#19b68b;stroke-width:1.75030005;stroke-miterlimit:10"/>
      </g>
      <g>
        <path class="st1" d="m 242,133.7 c 6.3,0 11.5,5.2 11.5,11.5 0,6.4 -5.2,11.5 -11.5,11.5 -6.3,0 -11.5,-5.2 -11.5,-11.5 0,-6.3 5.1,-11.5 11.5,-11.5 m 0,-7.3 c -10.4,0 -18.9,8.5 -18.9,18.9 0,10.4 8.5,18.9 18.9,18.9 10.4,0 18.9,-8.5 18.9,-18.9 0,-10.5 -8.5,-18.9 -18.9,-18.9 z" style="fill:#19b68b;stroke:#19b68b;stroke-width:1.75030005;stroke-miterlimit:10"/>
      </g>
      <g>
        <path class="st1" d="m 120.4,133.7 c 6.3,0 11.5,5.2 11.5,11.5 0,6.4 -5.2,11.5 -11.5,11.5 -6.3,0 -11.5,-5.2 -11.5,-11.5 0,-6.3 5.2,-11.5 11.5,-11.5 m 0,-7.3 c -10.4,0 -18.9,8.5 -18.9,18.9 0,10.4 8.5,18.9 18.9,18.9 10.4,0 18.9,-8.5 18.9,-18.9 0,-10.5 -8.5,-18.9 -18.9,-18.9 z" style="fill:#19b68b;stroke:#19b68b;stroke-width:1.75030005;stroke-miterlimit:10"/>
      </g>
    </g>
  </g>
</svg>
