<svg xmlns="http://www.w3.org/2000/svg" xmlns:xlink="http://www.w3.org/1999/xlink" width="120" height="60" viewBox="0 0 31.75 15.875">
  <defs>
    <linearGradient id="c" x2="17.015" x1="17.015" y1="29.203" y2="47.851" xlink:href="#a">
      <stop stop-color="#0097e0" offset="0"/>
      <stop stop-color="#0097e0" offset=".013"/>
      <stop stop-color="#00aaeb" offset=".252"/>
      <stop stop-color="#00aaeb" offset=".262"/>
      <stop stop-color="#00b9ef" offset="1"/>
    </linearGradient>
    <linearGradient id="d" x2="17.083" x1="17.083" y1="29.203" y2="47.851" xlink:href="#a">
      <stop stop-color="#0097e0" offset="0"/>
      <stop stop-color="#0097e0" offset=".013"/>
      <stop stop-color="#00aaeb" offset=".252"/>
      <stop stop-color="#00aaeb" offset=".262"/>
      <stop stop-color="#00b9ef" offset="1"/>
    </linearGradient>
    <linearGradient id="e" x2="16.798" x1="16.448" y1="28.227" y2="9.488" xlink:href="#a">
      <stop stop-color="#00a1e9" offset="0"/>
      <stop stop-color="#00a1e9" offset=".052"/>
      <stop stop-color="#00b9ef" offset="1"/>
    </linearGradient>
    <linearGradient id="f" x2="16.017" x1="16.017" y1="28.613" y2="21.636" xlink:href="#a">
      <stop stop-color="#00a1e9" offset="0"/>
      <stop stop-color="#00a1e9" offset=".165"/>
      <stop stop-color="#55c3f1" offset="1"/>
    </linearGradient>
    <linearGradient id="g" x2="21.973" x1="10.37" y1="23.947" y2="24.165" xlink:href="#a">
      <stop stop-color="#fff" offset="0"/>
      <stop stop-color="#fff" offset=".613"/>
      <stop stop-color="#fff" offset="1"/>
    </linearGradient>
    <linearGradient id="a" gradientUnits="userSpaceOnUse"/>
    <radialGradient id="b" cx="0" cy="0" r="1" gradientTransform="matrix(-.0371 -1.9834 -1.9834 .0371 202.2 476.21)" xlink:href="#a">
      <stop stop-color="#fff" offset="0"/>
      <stop stop-color="#fff" stop-opacity="0" offset="1"/>
    </radialGradient>
    <radialGradient id="h" cx="0" cy="0" r="1" gradientTransform="matrix(-.0371 -1.9834 -1.9834 .0371 202.2 476.21)" xlink:href="#a">
      <stop stop-color="#bbe3f9" offset="0"/>
      <stop stop-color="#1c95d4" offset="1"/>
    </radialGradient>
    <mask id="i" x="0" y="0" width="1" height="1" maskUnits="userSpaceOnUse">
      <path d="M-32768 32767h65535v-65535h-65535z" fill="url(#b)"/>
    </mask>
  </defs>
  <path d="m7.351 11.722 2.085 1.72s.08.063.134 0c0 0 .68-.652.822-.625 0 0 .042-.006-.018.116 0 0-.14.292-.652.856 0 0-.164.18-.349.018l-2.218-1.864s-.119-.107-.023-.226c0 0 .09-.096.22.003m-1.814 0-2.084 1.72s-.08.063-.134 0c0 0-.68-.653-.822-.626 0 0-.042-.006.017.117 0 0 .14.292.653.856 0 0 .164.179.349.018l2.217-1.864s.12-.107.024-.226c0 0-.09-.096-.22.002m1.536-2.064s.148-.151 1.32-.714c0 0 .06-.032.096.024 0 0 .364.416.792.393 0 0 .072-.005.104-.086.057-.142-.333-.31-.333-.31-.183-.08-.162-.256-.162-.256.012-.113-.066-.174-.066-.174-.139-.11-.602.184-.602.184l-1.267.704s-.157.074-.093.198c0 0 .05.113.208.036m-1.231.05s-.158-.138-1.365-.629c0 0-.061-.028-.094.03 0 0-.338.437-.764.443 0 0-.072 0-.11-.079-.065-.138.314-.33.314-.33.178-.093.143-.267.143-.267a.204.204 0 0 1 .055-.178c.13-.119.61.146.61.146l1.309.623s.162.064.105.192c0 0-.041.116-.203.047" fill="#3f3b3a"/>
  <path d="M11.957 41.2c0 3.85 2.265 6.972 5.06 6.972s5.06-3.122 5.06-6.972-2.266-6.97-5.06-6.97-5.06 3.122-5.06 6.97" fill="url(#c)" transform="translate(2.482 1.994) scale(.23141)"/>
  <path d="M14.067 31.734c0 1.914 1.35 3.467 3.012 3.467s3.012-1.553 3.012-3.467-1.347-3.465-3.012-3.465-3.012 1.55-3.012 3.465" fill="url(#d)" transform="translate(2.482 1.994) scale(.23141)"/>
  <g fill="#3f3b3a">
    <path d="M4.816 5.618s-.393-1.481.719-2.986l.09.143s-.768.962-.565 2.599z"/>
    <path d="M6.31 2.103c.134.158.069.435-.147.62s-.5.207-.635.046-.068-.435.147-.62.5-.206.635-.048m.84 3.094s.569-1.425 2.357-1.96l-.013.17s-1.19.313-2.005 1.746z"/>
    <path d="M10.474 3.26c.014.206-.205.389-.488.408s-.524-.134-.538-.34.205-.39.486-.41.525.134.538.34"/>
  </g>
  <path d="M5.607 19.35c-.312 7.222 4.9 9.905 11.2 9.56 7.167-.388 11.223-4.13 10.75-9.648-.86-10.044-9.763-6.387-12.13-10.387-2.885 4.42-9.495 2.73-9.832 10.475" fill="url(#e)" transform="translate(2.482 1.994) scale(.23141)"/>
  <path d="m5.834 22.3.045.203c1.132 4.866 5.646 6.7 10.948 6.42 4.384-.238 7.598-1.734 9.328-4.122.83-1.573-.843-3.904-2.82-2.58-.337.227-7.436 6.175-17.655-.9.04.335.1.657.155.967" fill="url(#f)" transform="translate(2.482 1.994) scale(.23141)"/>
  <path d="M6.273 7.097c-1.881.123-1.82-1.002-1.82-1.002.03-1.052 1.692-1.08 1.692-1.08s1.936-.131 1.951.993c0 0 .069.995-1.823 1.09" fill="#008cd6"/>
  <path d="M6.27 7.17c-1.92.091-1.816-1-1.816-1 .032-1.049 1.688-1.054 1.688-1.054s1.934-.154 1.949.967c0 0 .087 1-1.82 1.088" fill="#fff"/>
  <path d="M11.254 23.55c-.7-.2-1.124.557-.314 1.047s6.662 2.074 10.903-.9l-.06-.947c-5.296 2.473-10.53.8-10.53.8" fill="url(#g)" transform="translate(2.482 1.994) scale(.23141)"/>
  <path d="M6.278 5.776a.538.538 0 0 0-.492.579s.002.05.072.046.455-.1.948-.078c.053-.003.05-.053.05-.053a.537.537 0 0 0-.578-.492" fill="#3f3b3a"/>
  <path d="M201.97 476.04a1.625 1.625 0 0 1-1.486-1.75s.005-.15.22-.133 1.374.302 2.864.234c.16.013.15.162.15.162a1.62 1.62 0 0 1-1.748 1.487" fill="url(#h)" transform="matrix(.26242 0 0 -.26267 -46.72 130.848)" mask="url(#i)"/>
  <g fill="#3f3b3a">
    <path d="m13.18 10.937.005-.01.16-.352.162.362zm.06-.77-.644 1.425h.283l.194-.424h.535l.188.424h.282l-.632-1.425zm4.983.433c0-.064.02-.115.055-.148s.08-.045.14-.045h.543v-.228h-.543a.55.55 0 0 0-.333.1c-.083.062-.127.183-.125.3v1h.263v-.594h.752v-.228h-.752zm9.347.337.005-.01.153-.337.007-.015.162.362zm.06-.77-.644 1.425h.283l.194-.424H28l.2.424h.28l-.632-1.425zm1.378 1.093v-1.087h-.265v1.087c0 .35.326.35.433.35h.543v-.23h-.543c-.14 0-.168-.042-.168-.12M15.36 10.224l-.003.93-.76-.986h-.218v1.424h.267l-.002-.78-.001-.172.013.017.723.935h.245v-1.418h-.264zm.622.206h.475v1.16h.264v-1.16h.485v-.228H15.98zm6.158.507.005-.01.16-.35.163.362zm.062-.77-.644 1.425h.284l.194-.424h.534l.188.424h.28l-.632-1.425zm-2.86 1.425h.265v-1.4h-.265zm6.628-.222-.27.01c-.225 0-.353-.035-.393-.107a.818.818 0 0 1-.073-.365.94.94 0 0 1 .063-.352c.045-.096.174-.142.394-.142l.288.013.077.008-.001-.23-.053-.005-.312-.013c-.22 0-.53.03-.64.284a1.07 1.07 0 0 0-.083.437 1.09 1.09 0 0 0 .102.462c.087.163.287.24.63.24h.273l.084-.004-.001-.23zm-1.653-1.146-.001.545v.38l-.76-.993h-.217v1.424h.267v-.05l-.002-.903.736.952h.245v-1.42h-.265zm-3.322 0-.001.224-.002.713-.76-.993h-.218v1.424h.267v-.953l.736.952h.245v-1.418h-.264zm5.437 1.368h.265v-1.4h-.265zM20.346 6.58l-.14-1.013h-.357L20 6.58zM16.108 6l-.048 1.3h-.994c-.066 0-.106-.024-.1-.082l.1-1.013h-.342l-.102 1.044c-.012.13.032.223.102.287s.157.094.298.094h1.195c.066 0 .1.028.1.083v.54H14.56l.067.33h1.692v.636c0 .064-.03.096-.086.096H14.82l.07.33h1.376c.138 0 .233-.03.298-.098s.097-.15.097-.286V7.68c0-.133-.032-.224-.102-.287a.32.32 0 0 0-.157-.079l.047-1.354c0-.133-.032-.224-.1-.287s-.158-.093-.3-.093h-1.557v.33h1.515c.066 0 .1.027.1.082M28.92 9.024l.5.623h.452s-.353-.4-.738-.938c.223-.336.53-.825.606-1.068.054-.175-.04-.395-.3-.395h-1.448V6c0-.056.034-.084.1-.084h1.076c.067 0 .1.028.1.084v.5c0 .064-.028.096-.086.096h-.67v.33h.704c.138 0 .232-.03.298-.097s.097-.15.097-.287v-.585c0-.133-.032-.224-.1-.287s-.157-.094-.3-.094h-1.16c-.14 0-.225.027-.3.094-.067.062-.1.15-.1.28v3.688h.343V7.553h1.284c.046 0 .076.043.057.097-.06.177-.258.5-.42.752l-.395-.66h-.383a7.12 7.12 0 0 0 .565.981l-.025.036-.632.888h.427c.163-.194.288-.413.413-.585l.026-.038m-7.28.62h3.744v-.33h-.714l.1-.786h-.37l-.1.786h-.617V8.108h1.46v-.33h-1.46v-.73h1.023v-.33h-2.4v.33h1.023v.73h-1.46v.33h1.46v1.207h-.623l-.1-.786h-.37l.1.786h-.694z"/>
    <path d="M23.192 5.405a.234.234 0 0 0 .116-.024l-.022.2h-.188zm.376.007.022.177h-.163l.025-.246c.03.03.07.053.116.07m.268.025.067.152h-.172l-.02-.147a.62.62 0 0 0 .124-.004m-1.157.592c.058-.088.1-.1.277-.1h1.093c.166 0 .22.023.277.1L25 7.05h.47l-.762-1.17c-.136-.198-.302-.293-.537-.293h-.104l-.082-.184c.227-.078.37-.258.33-.416-.046-.17-.288-.253-.542-.184-.187.05-.328.17-.37.296-.034-.065-.1-.1-.178-.112a.306.306 0 0 0 .015-.096.32.32 0 0 0-.259-.307l-.006-.254a.069.069 0 0 0-.07-.067h-.003a.068.068 0 0 0-.067.07l.006.257a.3.3 0 0 0-.108.052l-.163-.185a.07.07 0 0 0-.053-.024.059.059 0 0 0-.044.017v.002a.07.07 0 0 0-.006.097l.177.2a.31.31 0 0 0-.038.155.32.32 0 0 0 .325.312c.03 0 .056-.006.082-.013a.23.23 0 0 0 .065.146l-.123.24h-.096c-.235 0-.4.095-.537.293l-.763 1.17h.472l.662-1.022m-9.368 1.92h-.236c-.067 0-.1-.03-.1-.084V6.403c0-.055.034-.083.1-.083h.236zm.343-1.63h.236c.067 0 .1.028.1.083v1.464c0 .055-.033.084-.1.084h-.236zm.993 3.326-.173-.908h-.347l.076.4-.55.03v-.9h.28c.14 0 .225-.026.3-.094s.1-.155.1-.287V6.37c0-.132-.032-.223-.1-.287S14.1 6 13.947 6h-.28v-.424h-.343V6h-.28c-.14 0-.225.026-.298.093s-.1.155-.1.287v1.527c0 .132.032.224.1.287s.158.094.298.094h.28v.9l-.76.043v.33l1.714-.097.035.182zM26.285 7.03h.8v.957h-.8zm0-1.05c0-.056.034-.083.1-.083h.6c.067 0 .1.028.1.083v.727h-.8zm.8 3.24c0 .064-.03.096-.086.096h-.426v.33h.46c.137 0 .232-.03.298-.098s.097-.15.097-.287V5.948c0-.133-.032-.224-.102-.287s-.157-.094-.298-.094h-.686c-.14 0-.225.027-.298.094s-.1.154-.1.287V8.76c0 .648-.116.86-.13.885h.33c.014 0 .143-.076.143-.885V8.3h.8zm-7.663.424.687-1.018.687 1.018h.397l-.873-1.337c.155-.244.304-.5.427-.798.345-.8.38-1.762.38-1.803h-.35c0 .01-.035.924-.348 1.65a5.13 5.13 0 0 1-.32.617 5.13 5.13 0 0 1-.32-.617c-.313-.727-.348-1.642-.348-1.65h-.35c0 .04.035 1.002.38 1.803.124.287.272.555.427.798l-.873 1.337zM17.686 7.95c-.067 0-.1-.03-.1-.084V6.403c0-.055.034-.083.1-.083h.237v1.63zm.58-1.63h.237c.067 0 .1.028.1.083v1.464c0 .055-.033.084-.1.084h-.237zm.224 2.418.08.414-.303.017v-.9h.28c.14 0 .225-.026.298-.094s.1-.155.1-.287V6.37c0-.132-.033-.223-.1-.287-.074-.067-.158-.093-.298-.093h-.28v-.424h-.343V6h-.28c-.14 0-.225.026-.3.093s-.1.155-.1.287v1.527c0 .132.033.224.1.287.074.067.157.094.3.094h.28v.9l-.76.043v.33l1.467-.082.032.167H19l-.173-.908z"/>
  </g>
</svg>
