<svg version="1.1" xmlns="http://www.w3.org/2000/svg" x="0" y="0" viewBox="0 0 64 64" width="64" height="64" style="enable-background:new 0 0 64 64">
  <path style="fill:#3f98d3" d="M15.8.9 0 28.2h31.5z"/>
  <path class="st1" d="M35.3.7h27.8v4.2H35.3zm0 7.8h27.8v4.2H35.3zm0 7.8h27.8v4.2H35.3zm0 7.8h27.8v4.2H35.3z"/>
  <path d="M27.9 34.5H3.5c-1.3 0-2.4 1.1-2.4 2.4v18.3c0 1.3 1.1 2.4 2.4 2.4h21l5.7 5.8V36.9c.1-1.4-.9-2.4-2.3-2.4z" style="fill:#6c5fa8"/>
  <path d="M63.4 51.9 60.3 50c.1-.7.2-1.3.2-2s-.1-1.3-.2-2l3.1-1.9c.6-.3.7-1 .4-1.6l-3-4.9c-.3-.6-1-.7-1.6-.4l-3.1 1.9c-.9-.7-1.9-1.3-2.9-1.7v-3.6c0-.6-.5-1.1-1.1-1.1h-5.7c-.6 0-1.1.5-1.1 1.1v3.6c-1.1.4-2.1 1-2.9 1.7l-3.1-1.9c-.6-.3-1.2-.2-1.6.4l-3 4.9c-.3.6-.2 1.2.4 1.6l3.1 1.9c-.1.7-.2 1.3-.2 2s.1 1.3.2 2l-3.1 1.9c-.6.3-.7 1-.4 1.6l3 4.9c.3.6 1 .7 1.6.4l3.1-1.9c.9.7 1.9 1.3 2.9 1.7v3.7c0 .6.5 1.1 1.1 1.1h5.7c.6 0 1.1-.5 1.1-1.1v-3.7c1.1-.4 2-1 2.9-1.7l3.1 1.9c.6.3 1.2.2 1.6-.4l3-4.9c.3-.6.1-1.3-.4-1.6zm-14 1.7c-3 0-5.5-2.5-5.5-5.5s2.5-5.5 5.5-5.5 5.5 2.5 5.5 5.5-2.5 5.5-5.5 5.5z" style="fill:#21a496"/>
</svg>
