<svg xmlns="http://www.w3.org/2000/svg" width="120" height="60" version="1.1">
  <g transform="matrix(.80045 0 0 .80045 -146.886 -502.088) matrix(.2577 0 0 .2577 155.24 508.163)">
    <path d="M420 564.1c-34.5 0-60.6 26.8-60.6 60 0 35 27.2 60 60.6 60 33.4 0 60.5-25 60.5-60 0-33.2-26-60-60.5-60zm0 31.7c14.9-.1 27.1 12.6 27.1 28.3 0 15.6-12.2 28.3-27.1 28.3-14.9 0-27.1-12.7-27.1-28.3 0-15.7 12.2-28.3 27.1-28.3z" style="stroke:none;stroke-width:.43820944"/>
    <path d="M507 397.4c0 11.6-9.4 21-21 21s-21-9.4-21-21 9.4-21 21-21 21 9.4 21 21z" style="stroke:none;stroke-width:.1" transform="translate(85.63 265.696)"/>
    <path style="stroke:none;stroke-width:1px" d="M531.5 680.1h-33v-149h33z"/>
    <path d="m208.5 680.1 60-149h31l59 149h-42l-7-21h-52l-7 21zm91-52h-31l15.5-50z" style="fill-rule:evenodd;stroke:none;stroke-width:.2"/>
  </g>
</svg>
