<svg xmlns="http://www.w3.org/2000/svg" xmlns:xlink="http://www.w3.org/1999/xlink" width="256" height="83" viewBox="0 0 72.249 23.241">
  <g transform="matrix(.0438 0 0 .0438 -67.175 -49.936)">
    <text y="1522.534" x="1905.221" font-family="sans-serif" letter-spacing="0" word-spacing="0"><tspan y="1522.534" x="1905.221" font-size="220.28"><tspan font-weight="bold">ACTIVE</tspan></tspan></text>
    <text y="1333.549" x="1937.189" font-family="sans-serif" letter-spacing="0" word-spacing="0"><tspan y="1333.549" x="1937.189" font-size="90.702">Apache</tspan></text>
    <text y="1522.534" x="2787.834" font-family="sans-serif" letter-spacing="0" word-spacing="0" fill="#c12766"><tspan y="1522.534" x="2787.834" font-weight="bold" font-size="220.28">MQ</tspan></text>
    <use xlink:href="#a" fill="#c12766"/>
    <use xlink:href="#a" x="-156.446" y="89.752" fill="#3e489f"/>
    <use xlink:href="#a" x="-.972" y="179.945" fill="#714099"/>
    <use xlink:href="#a" x="-155.624" y="-89.092" fill="#78932c"/>
    <use xlink:href="#a" x="-.076" y="-178.97" fill="#cf242a"/>
    <g fill="#fff">
      <circle cx="1789.146" cy="1226.056" r="15"/>
      <circle cx="1633.597" cy="1315.933" r="15"/>
      <circle cx="1632.773" cy="1494.778" r="15"/>
      <circle cx="1788.248" cy="1584.971" r="15"/>
    </g>
    <path d="m1779.67 1230.244-136.198 78.032m-10.442 19.376.46 156.967m10.328 16.696 134.954 80.166" fill="none" stroke="#fff" stroke-width="5"/>
    <circle cx="1789.22" cy="1405.024" r="15" fill="#fff"/>
    <path d="m1788.668 1236.6.46 156.967m.407 22.96.46 156.967m-10.095-162.852-136.198 78.032m.623-166.16 134.954 80.166" fill="none" stroke="#fff" stroke-width="5"/>
  </g>
  <defs>
    <path id="a" d="m1838.446 1490.9-98.982-.307-49.225-85.874 49.757-85.568 98.982.307 49.225 85.874z"/>
  </defs>
</svg>
