<svg xmlns="http://www.w3.org/2000/svg" xmlns:xlink="http://www.w3.org/1999/xlink" width="64" height="64" viewBox="0 0 32 32">
  <defs>
    <linearGradient id="b" y2="285.603" x2="192.603" y1="270.601" x1="192.025" xlink:href="#a">
      <stop offset="0" stop-color="#693594"/>
      <stop offset=".106" stop-color="#892e83"/>
      <stop offset=".265" stop-color="#b4246c"/>
      <stop offset=".409" stop-color="#d31d5c"/>
      <stop offset=".531" stop-color="#e61952"/>
      <stop offset=".616" stop-color="#ed174e"/>
      <stop offset="1" stop-color="#f9e57e"/>
    </linearGradient>
    <linearGradient id="c" y2="288.061" x2="197.672" y1="275.723" x1="197.196" xlink:href="#a">
      <stop offset="0" stop-color="#693594"/>
      <stop offset=".106" stop-color="#892e83"/>
      <stop offset=".265" stop-color="#b4246c"/>
      <stop offset=".409" stop-color="#d31d5c"/>
      <stop offset=".531" stop-color="#e61952"/>
      <stop offset=".616" stop-color="#ed174e"/>
      <stop offset="1" stop-color="#f9e57e"/>
    </linearGradient>
    <linearGradient id="d" y2="284.981" x2="202.537" y1="271.819" x1="202.031" xlink:href="#a">
      <stop offset="0" stop-color="#693594"/>
      <stop offset=".106" stop-color="#892e83"/>
      <stop offset=".265" stop-color="#b4246c"/>
      <stop offset=".409" stop-color="#d31d5c"/>
      <stop offset=".531" stop-color="#e61952"/>
      <stop offset=".616" stop-color="#ed174e"/>
      <stop offset="1" stop-color="#f9e57e"/>
    </linearGradient>
    <linearGradient id="e" y2="287.705" x2="206.926" y1="275.366" x1="206.451" xlink:href="#a">
      <stop offset="0" stop-color="#693594"/>
      <stop offset=".106" stop-color="#892e83"/>
      <stop offset=".265" stop-color="#b4246c"/>
      <stop offset=".409" stop-color="#d31d5c"/>
      <stop offset=".531" stop-color="#e61952"/>
      <stop offset=".616" stop-color="#ed174e"/>
      <stop offset="1" stop-color="#f9e57e"/>
    </linearGradient>
    <linearGradient id="f" y2="285.195" x2="212.374" y1="272.566" x1="211.888" xlink:href="#a">
      <stop offset="0" stop-color="#693594"/>
      <stop offset=".106" stop-color="#892e83"/>
      <stop offset=".265" stop-color="#b4246c"/>
      <stop offset=".409" stop-color="#d31d5c"/>
      <stop offset=".531" stop-color="#e61952"/>
      <stop offset=".616" stop-color="#ed174e"/>
      <stop offset="1" stop-color="#f9e57e"/>
    </linearGradient>
    <linearGradient id="g" y2="287.348" x2="216.188" y1="275.01" x1="215.713" xlink:href="#a">
      <stop offset="0" stop-color="#693594"/>
      <stop offset=".106" stop-color="#892e83"/>
      <stop offset=".265" stop-color="#b4246c"/>
      <stop offset=".409" stop-color="#d31d5c"/>
      <stop offset=".531" stop-color="#e61952"/>
      <stop offset=".616" stop-color="#ed174e"/>
      <stop offset="1" stop-color="#f9e57e"/>
    </linearGradient>
    <linearGradient id="h" y2="284.042" x2="220.93" y1="273.337" x1="220.518" xlink:href="#a">
      <stop offset="0" stop-color="#693594"/>
      <stop offset=".106" stop-color="#892e83"/>
      <stop offset=".265" stop-color="#b4246c"/>
      <stop offset=".409" stop-color="#d31d5c"/>
      <stop offset=".531" stop-color="#e61952"/>
      <stop offset=".616" stop-color="#ed174e"/>
      <stop offset="1" stop-color="#f9e57e"/>
    </linearGradient>
    <linearGradient id="i" y2="286.978" x2="225.805" y1="274.639" x1="225.33" xlink:href="#a">
      <stop offset="0" stop-color="#693594"/>
      <stop offset=".106" stop-color="#892e83"/>
      <stop offset=".265" stop-color="#b4246c"/>
      <stop offset=".409" stop-color="#d31d5c"/>
      <stop offset=".531" stop-color="#e61952"/>
      <stop offset=".616" stop-color="#ed174e"/>
      <stop offset="1" stop-color="#f9e57e"/>
    </linearGradient>
    <linearGradient id="j" y2="278.408" x2="229.77" y1="272.657" x1="229.643" xlink:href="#a">
      <stop offset="0" stop-color="#f9e57e"/>
      <stop offset=".106" stop-color="#f7db7d"/>
      <stop offset=".349" stop-color="#f3c87a"/>
      <stop offset=".52" stop-color="#f2c179"/>
      <stop offset=".71" stop-color="#f5d17b"/>
      <stop offset="1" stop-color="#f9e57e"/>
    </linearGradient>
    <linearGradient id="k" y2="281.797" x2="232.851" y1="269.314" x1="234.718" xlink:href="#a">
      <stop offset="0" stop-color="#f9e57e"/>
      <stop offset=".106" stop-color="#f7db7d"/>
      <stop offset=".349" stop-color="#f3c87a"/>
      <stop offset=".52" stop-color="#f2c179"/>
      <stop offset=".71" stop-color="#f5d17b"/>
      <stop offset="1" stop-color="#f9e57e"/>
    </linearGradient>
    <linearGradient id="l" y2="278.243" x2="237.281" y1="272.491" x1="237.154" xlink:href="#a">
      <stop offset="0" stop-color="#f9e57e"/>
      <stop offset=".106" stop-color="#f7db7d"/>
      <stop offset=".349" stop-color="#f3c87a"/>
      <stop offset=".52" stop-color="#f2c179"/>
      <stop offset=".71" stop-color="#f5d17b"/>
      <stop offset="1" stop-color="#f9e57e"/>
    </linearGradient>
    <linearGradient id="m" y2="282.93" x2="240.425" y1="270.446" x1="242.292" xlink:href="#a">
      <stop offset="0" stop-color="#f9e57e"/>
      <stop offset=".106" stop-color="#f7db7d"/>
      <stop offset=".349" stop-color="#f3c87a"/>
      <stop offset=".52" stop-color="#f2c179"/>
      <stop offset=".71" stop-color="#f5d17b"/>
      <stop offset="1" stop-color="#f9e57e"/>
    </linearGradient>
    <linearGradient id="n" y2="278.096" x2="243.909" y1="272.344" x1="243.782" xlink:href="#a">
      <stop offset="0" stop-color="#f9e57e"/>
      <stop offset=".106" stop-color="#f7db7d"/>
      <stop offset=".349" stop-color="#f3c87a"/>
      <stop offset=".52" stop-color="#f2c179"/>
      <stop offset=".71" stop-color="#f5d17b"/>
      <stop offset="1" stop-color="#f9e57e"/>
    </linearGradient>
    <linearGradient id="o" y2="278.057" x2="245.717" y1="272.305" x1="245.59" xlink:href="#a">
      <stop offset="0" stop-color="#f9e57e"/>
      <stop offset=".106" stop-color="#f7db7d"/>
      <stop offset=".349" stop-color="#f3c87a"/>
      <stop offset=".52" stop-color="#f2c179"/>
      <stop offset=".71" stop-color="#f5d17b"/>
      <stop offset="1" stop-color="#f9e57e"/>
    </linearGradient>
    <linearGradient id="p" y2="279.878" x2="247.68" y1="276.177" x1="247.599" xlink:href="#a">
      <stop offset="0" stop-color="#f9e57e"/>
      <stop offset=".106" stop-color="#f7db7d"/>
      <stop offset=".349" stop-color="#f3c87a"/>
      <stop offset=".52" stop-color="#f2c179"/>
      <stop offset=".71" stop-color="#f5d17b"/>
      <stop offset="1" stop-color="#f9e57e"/>
    </linearGradient>
    <linearGradient id="q" y2="278.011" x2="247.765" y1="272.259" x1="247.638" xlink:href="#a">
      <stop offset="0" stop-color="#f9e57e"/>
      <stop offset=".106" stop-color="#f7db7d"/>
      <stop offset=".349" stop-color="#f3c87a"/>
      <stop offset=".52" stop-color="#f2c179"/>
      <stop offset=".71" stop-color="#f5d17b"/>
      <stop offset="1" stop-color="#f9e57e"/>
    </linearGradient>
    <linearGradient id="r" y2="257.035" x2="198.421" y1="274.599" x1="193.106" xlink:href="#a">
      <stop offset="0" stop-color="#693594"/>
      <stop offset=".106" stop-color="#892e83"/>
      <stop offset=".265" stop-color="#b4246c"/>
      <stop offset=".409" stop-color="#d31d5c"/>
      <stop offset=".531" stop-color="#e61952"/>
      <stop offset=".616" stop-color="#ed174e"/>
      <stop offset="1" stop-color="#f9e57e"/>
    </linearGradient>
    <linearGradient id="s" y2="252.292" x2="210.45" y1="266.268" x1="200.916" xlink:href="#a">
      <stop offset="0" stop-color="#693594"/>
      <stop offset=".106" stop-color="#892e83"/>
      <stop offset=".265" stop-color="#b4246c"/>
      <stop offset=".409" stop-color="#d31d5c"/>
      <stop offset=".531" stop-color="#e61952"/>
      <stop offset=".616" stop-color="#ed174e"/>
      <stop offset="1" stop-color="#f9e57e"/>
    </linearGradient>
    <linearGradient id="t" y2="259.656" x2="207.085" y1="277.22" x1="201.77" xlink:href="#a">
      <stop offset="0" stop-color="#693594"/>
      <stop offset=".106" stop-color="#892e83"/>
      <stop offset=".265" stop-color="#b4246c"/>
      <stop offset=".409" stop-color="#d31d5c"/>
      <stop offset=".531" stop-color="#e61952"/>
      <stop offset=".616" stop-color="#ed174e"/>
      <stop offset="1" stop-color="#f9e57e"/>
    </linearGradient>
    <linearGradient id="u" y2="257.382" x2="217.911" y1="271.357" x1="208.376" xlink:href="#a">
      <stop offset="0" stop-color="#693594"/>
      <stop offset=".106" stop-color="#892e83"/>
      <stop offset=".265" stop-color="#b4246c"/>
      <stop offset=".409" stop-color="#d31d5c"/>
      <stop offset=".531" stop-color="#e61952"/>
      <stop offset=".616" stop-color="#ed174e"/>
      <stop offset="1" stop-color="#f9e57e"/>
    </linearGradient>
    <linearGradient id="v" y2="262.574" x2="216.727" y1="280.138" x1="211.411" xlink:href="#a">
      <stop offset="0" stop-color="#693594"/>
      <stop offset=".106" stop-color="#892e83"/>
      <stop offset=".265" stop-color="#b4246c"/>
      <stop offset=".409" stop-color="#d31d5c"/>
      <stop offset=".531" stop-color="#e61952"/>
      <stop offset=".616" stop-color="#ed174e"/>
      <stop offset="1" stop-color="#f9e57e"/>
    </linearGradient>
    <linearGradient id="w" y2="262.594" x2="225.551" y1="276.57" x1="216.016" xlink:href="#a">
      <stop offset="0" stop-color="#693594"/>
      <stop offset=".106" stop-color="#892e83"/>
      <stop offset=".265" stop-color="#b4246c"/>
      <stop offset=".409" stop-color="#d31d5c"/>
      <stop offset=".531" stop-color="#e61952"/>
      <stop offset=".616" stop-color="#ed174e"/>
      <stop offset="1" stop-color="#f9e57e"/>
    </linearGradient>
    <linearGradient id="x" y2="265.679" x2="226.985" y1="283.243" x1="221.67" xlink:href="#a">
      <stop offset="0" stop-color="#693594"/>
      <stop offset=".106" stop-color="#892e83"/>
      <stop offset=".265" stop-color="#b4246c"/>
      <stop offset=".409" stop-color="#d31d5c"/>
      <stop offset=".531" stop-color="#e61952"/>
      <stop offset=".616" stop-color="#ed174e"/>
      <stop offset="1" stop-color="#f9e57e"/>
    </linearGradient>
    <linearGradient id="y" y2="278.324" x2="233.588" y1="272.572" x1="233.461" xlink:href="#a">
      <stop offset="0" stop-color="#f9e57e"/>
      <stop offset=".106" stop-color="#f7db7d"/>
      <stop offset=".349" stop-color="#f3c87a"/>
      <stop offset=".52" stop-color="#f2c179"/>
      <stop offset=".71" stop-color="#f5d17b"/>
      <stop offset="1" stop-color="#f9e57e"/>
    </linearGradient>
    <linearGradient id="z" y2="281.185" x2="228.76" y1="268.702" x1="230.627" xlink:href="#a">
      <stop offset="0" stop-color="#f9e57e"/>
      <stop offset=".106" stop-color="#f7db7d"/>
      <stop offset=".349" stop-color="#f3c87a"/>
      <stop offset=".52" stop-color="#f2c179"/>
      <stop offset=".71" stop-color="#f5d17b"/>
      <stop offset="1" stop-color="#f9e57e"/>
    </linearGradient>
    <linearGradient id="A" y2="282.26" x2="235.947" y1="269.777" x1="237.814" xlink:href="#a">
      <stop offset="0" stop-color="#f9e57e"/>
      <stop offset=".106" stop-color="#f7db7d"/>
      <stop offset=".349" stop-color="#f3c87a"/>
      <stop offset=".52" stop-color="#f2c179"/>
      <stop offset=".71" stop-color="#f5d17b"/>
      <stop offset="1" stop-color="#f9e57e"/>
    </linearGradient>
    <linearGradient id="B" y2="283.309" x2="242.96" y1="270.826" x1="244.827" xlink:href="#a">
      <stop offset="0" stop-color="#f9e57e"/>
      <stop offset=".106" stop-color="#f7db7d"/>
      <stop offset=".349" stop-color="#f3c87a"/>
      <stop offset=".52" stop-color="#f2c179"/>
      <stop offset=".71" stop-color="#f5d17b"/>
      <stop offset="1" stop-color="#f9e57e"/>
    </linearGradient>
    <linearGradient id="C" y2="278.053" x2="245.889" y1="272.301" x1="245.762" xlink:href="#a">
      <stop offset="0" stop-color="#f9e57e"/>
      <stop offset=".106" stop-color="#f7db7d"/>
      <stop offset=".349" stop-color="#f3c87a"/>
      <stop offset=".52" stop-color="#f2c179"/>
      <stop offset=".71" stop-color="#f5d17b"/>
      <stop offset="1" stop-color="#f9e57e"/>
    </linearGradient>
    <linearGradient id="D" y2="278.156" x2="241.213" y1="272.404" x1="241.086" xlink:href="#a">
      <stop offset="0" stop-color="#f9e57e"/>
      <stop offset=".106" stop-color="#f7db7d"/>
      <stop offset=".349" stop-color="#f3c87a"/>
      <stop offset=".52" stop-color="#f2c179"/>
      <stop offset=".71" stop-color="#f5d17b"/>
      <stop offset="1" stop-color="#f9e57e"/>
    </linearGradient>
    <linearGradient id="E" y2="268.914" x2="107.78" y1="256.572" x1="111.961" xlink:href="#a">
      <stop offset="0" stop-color="#7e3895"/>
      <stop offset=".071" stop-color="#9b2f82"/>
      <stop offset=".16" stop-color="#b9266f"/>
      <stop offset=".254" stop-color="#d02061"/>
      <stop offset=".355" stop-color="#e01b56"/>
      <stop offset=".468" stop-color="#ea1850"/>
      <stop offset=".616" stop-color="#ed174e"/>
      <stop offset="1" stop-color="#f9e57e"/>
    </linearGradient>
    <linearGradient id="F" y2="269.998" x2="110.978" y1="257.656" x1="115.159" xlink:href="#a">
      <stop offset="0" stop-color="#7e3895"/>
      <stop offset=".071" stop-color="#9b2f82"/>
      <stop offset=".16" stop-color="#b9266f"/>
      <stop offset=".254" stop-color="#d02061"/>
      <stop offset=".355" stop-color="#e01b56"/>
      <stop offset=".468" stop-color="#ea1850"/>
      <stop offset=".616" stop-color="#ed174e"/>
      <stop offset="1" stop-color="#f9e57e"/>
    </linearGradient>
    <linearGradient id="G" y2="271.274" x2="114.746" y1="258.932" x1="118.927" xlink:href="#a">
      <stop offset="0" stop-color="#7e3895"/>
      <stop offset=".071" stop-color="#9b2f82"/>
      <stop offset=".16" stop-color="#b9266f"/>
      <stop offset=".254" stop-color="#d02061"/>
      <stop offset=".355" stop-color="#e01b56"/>
      <stop offset=".468" stop-color="#ea1850"/>
      <stop offset=".616" stop-color="#ed174e"/>
      <stop offset="1" stop-color="#f9e57e"/>
    </linearGradient>
    <linearGradient id="H" y2="272.671" x2="118.869" y1="260.329" x1="123.051" xlink:href="#a">
      <stop offset="0" stop-color="#7e3895"/>
      <stop offset=".071" stop-color="#9b2f82"/>
      <stop offset=".16" stop-color="#b9266f"/>
      <stop offset=".254" stop-color="#d02061"/>
      <stop offset=".355" stop-color="#e01b56"/>
      <stop offset=".468" stop-color="#ea1850"/>
      <stop offset=".616" stop-color="#ed174e"/>
      <stop offset="1" stop-color="#f9e57e"/>
    </linearGradient>
    <linearGradient id="I" y2="274.284" x2="123.17" y1="258.709" x1="125.904" xlink:href="#a">
      <stop offset="0" stop-color="#7e3895"/>
      <stop offset=".096" stop-color="#863893"/>
      <stop offset=".247" stop-color="#9d398f"/>
      <stop offset=".433" stop-color="#c13a88"/>
      <stop offset=".616" stop-color="#ec3c80"/>
      <stop offset="1" stop-color="#f9e57e"/>
    </linearGradient>
    <linearGradient id="J" y2="275.371" x2="127.281" y1="265.825" x1="128.671" xlink:href="#a">
      <stop offset="0" stop-color="#7e3895"/>
      <stop offset=".071" stop-color="#9b2f82"/>
      <stop offset=".16" stop-color="#b9266f"/>
      <stop offset=".254" stop-color="#d02061"/>
      <stop offset=".355" stop-color="#e01b56"/>
      <stop offset=".468" stop-color="#ea1850"/>
      <stop offset=".616" stop-color="#ed174e"/>
      <stop offset="1" stop-color="#f9e57e"/>
    </linearGradient>
    <linearGradient id="K" y2="275.977" x2="131.446" y1="266.431" x1="132.835" xlink:href="#a">
      <stop offset="0" stop-color="#7e3895"/>
      <stop offset=".071" stop-color="#9b2f82"/>
      <stop offset=".16" stop-color="#b9266f"/>
      <stop offset=".254" stop-color="#d02061"/>
      <stop offset=".355" stop-color="#e01b56"/>
      <stop offset=".468" stop-color="#ea1850"/>
      <stop offset=".616" stop-color="#ed174e"/>
      <stop offset="1" stop-color="#f9e57e"/>
    </linearGradient>
    <linearGradient id="L" y2="287.031" x2="134.454" y1="265.955" x1="136.639" xlink:href="#a">
      <stop offset="0" stop-color="#7e3895"/>
      <stop offset=".071" stop-color="#9b2f82"/>
      <stop offset=".16" stop-color="#b9266f"/>
      <stop offset=".254" stop-color="#d02061"/>
      <stop offset=".355" stop-color="#e01b56"/>
      <stop offset=".468" stop-color="#ea1850"/>
      <stop offset=".616" stop-color="#ed174e"/>
      <stop offset="1" stop-color="#f9e57e"/>
    </linearGradient>
    <linearGradient id="M" y2="277.33" x2="140.741" y1="267.784" x1="142.131" xlink:href="#a">
      <stop offset="0" stop-color="#7e3895"/>
      <stop offset=".071" stop-color="#9b2f82"/>
      <stop offset=".16" stop-color="#b9266f"/>
      <stop offset=".254" stop-color="#d02061"/>
      <stop offset=".355" stop-color="#e01b56"/>
      <stop offset=".468" stop-color="#ea1850"/>
      <stop offset=".616" stop-color="#ed174e"/>
      <stop offset="1" stop-color="#f9e57e"/>
    </linearGradient>
    <linearGradient id="N" y2="288.044" x2="144.225" y1="266.969" x1="146.41" xlink:href="#a">
      <stop offset="0" stop-color="#7e3895"/>
      <stop offset=".071" stop-color="#9b2f82"/>
      <stop offset=".16" stop-color="#b9266f"/>
      <stop offset=".254" stop-color="#d02061"/>
      <stop offset=".355" stop-color="#e01b56"/>
      <stop offset=".468" stop-color="#ea1850"/>
      <stop offset=".616" stop-color="#ed174e"/>
      <stop offset="1" stop-color="#f9e57e"/>
    </linearGradient>
    <linearGradient id="O" y2="278.07" x2="149.528" y1="267.13" x1="150.284" xlink:href="#a">
      <stop offset="0" stop-color="#7e3895"/>
      <stop offset=".071" stop-color="#9b2f82"/>
      <stop offset=".16" stop-color="#b9266f"/>
      <stop offset=".254" stop-color="#d02061"/>
      <stop offset=".355" stop-color="#e01b56"/>
      <stop offset=".468" stop-color="#ea1850"/>
      <stop offset=".616" stop-color="#ed174e"/>
      <stop offset="1" stop-color="#f9e57e"/>
    </linearGradient>
    <linearGradient id="P" y2="283.676" x2="153.503" y1="269.241" x1="154.423" xlink:href="#a">
      <stop offset="0" stop-color="#7e3895"/>
      <stop offset=".071" stop-color="#9b2f82"/>
      <stop offset=".16" stop-color="#b9266f"/>
      <stop offset=".254" stop-color="#d02061"/>
      <stop offset=".355" stop-color="#e01b56"/>
      <stop offset=".468" stop-color="#ea1850"/>
      <stop offset=".616" stop-color="#ed174e"/>
      <stop offset="1" stop-color="#f9e57e"/>
    </linearGradient>
    <linearGradient id="Q" y2="283.926" x2="157.421" y1="269.491" x1="158.341" xlink:href="#a">
      <stop offset="0" stop-color="#7e3895"/>
      <stop offset=".071" stop-color="#9b2f82"/>
      <stop offset=".16" stop-color="#b9266f"/>
      <stop offset=".254" stop-color="#d02061"/>
      <stop offset=".355" stop-color="#e01b56"/>
      <stop offset=".468" stop-color="#ea1850"/>
      <stop offset=".616" stop-color="#ed174e"/>
      <stop offset="1" stop-color="#f9e57e"/>
    </linearGradient>
    <linearGradient id="R" y2="289.697" x2="160.166" y1="268.621" x1="162.351" xlink:href="#a">
      <stop offset="0" stop-color="#7e3895"/>
      <stop offset=".071" stop-color="#9b2f82"/>
      <stop offset=".16" stop-color="#b9266f"/>
      <stop offset=".254" stop-color="#d02061"/>
      <stop offset=".355" stop-color="#e01b56"/>
      <stop offset=".468" stop-color="#ea1850"/>
      <stop offset=".616" stop-color="#ed174e"/>
      <stop offset="1" stop-color="#f9e57e"/>
    </linearGradient>
    <linearGradient id="S" y2="290.231" x2="165.321" y1="269.156" x1="167.506" xlink:href="#a">
      <stop offset="0" stop-color="#7e3895"/>
      <stop offset=".071" stop-color="#9b2f82"/>
      <stop offset=".16" stop-color="#b9266f"/>
      <stop offset=".254" stop-color="#d02061"/>
      <stop offset=".355" stop-color="#e01b56"/>
      <stop offset=".468" stop-color="#ea1850"/>
      <stop offset=".616" stop-color="#ed174e"/>
      <stop offset="1" stop-color="#f9e57e"/>
    </linearGradient>
    <linearGradient id="T" y2="281.538" x2="169.647" y1="271.992" x1="171.037" xlink:href="#a">
      <stop offset="0" stop-color="#7e3895"/>
      <stop offset=".071" stop-color="#9b2f82"/>
      <stop offset=".16" stop-color="#b9266f"/>
      <stop offset=".254" stop-color="#d02061"/>
      <stop offset=".355" stop-color="#e01b56"/>
      <stop offset=".468" stop-color="#ea1850"/>
      <stop offset=".616" stop-color="#ed174e"/>
      <stop offset="1" stop-color="#f9e57e"/>
    </linearGradient>
    <linearGradient id="U" y2="291.086" x2="173.566" y1="270.011" x1="175.751" xlink:href="#a">
      <stop offset="0" stop-color="#7e3895"/>
      <stop offset=".071" stop-color="#9b2f82"/>
      <stop offset=".16" stop-color="#b9266f"/>
      <stop offset=".254" stop-color="#d02061"/>
      <stop offset=".355" stop-color="#e01b56"/>
      <stop offset=".468" stop-color="#ea1850"/>
      <stop offset=".616" stop-color="#ed174e"/>
      <stop offset="1" stop-color="#f9e57e"/>
    </linearGradient>
    <linearGradient id="V" y2="282.762" x2="178.052" y1="273.215" x1="179.441" xlink:href="#a">
      <stop offset="0" stop-color="#7e3895"/>
      <stop offset=".071" stop-color="#9b2f82"/>
      <stop offset=".16" stop-color="#b9266f"/>
      <stop offset=".254" stop-color="#d02061"/>
      <stop offset=".355" stop-color="#e01b56"/>
      <stop offset=".468" stop-color="#ea1850"/>
      <stop offset=".616" stop-color="#ed174e"/>
      <stop offset="1" stop-color="#f9e57e"/>
    </linearGradient>
    <linearGradient id="W" y2="291.977" x2="182.153" y1="270.901" x1="184.338" xlink:href="#a">
      <stop offset="0" stop-color="#7e3895"/>
      <stop offset=".071" stop-color="#9b2f82"/>
      <stop offset=".16" stop-color="#b9266f"/>
      <stop offset=".254" stop-color="#d02061"/>
      <stop offset=".355" stop-color="#e01b56"/>
      <stop offset=".468" stop-color="#ea1850"/>
      <stop offset=".616" stop-color="#ed174e"/>
      <stop offset="1" stop-color="#f9e57e"/>
    </linearGradient>
    <linearGradient id="X" y2="284.082" x2="187.121" y1="274.536" x1="188.511" xlink:href="#a">
      <stop offset="0" stop-color="#7e3895"/>
      <stop offset=".071" stop-color="#9b2f82"/>
      <stop offset=".16" stop-color="#b9266f"/>
      <stop offset=".254" stop-color="#d02061"/>
      <stop offset=".355" stop-color="#e01b56"/>
      <stop offset=".468" stop-color="#ea1850"/>
      <stop offset=".616" stop-color="#ed174e"/>
      <stop offset="1" stop-color="#f9e57e"/>
    </linearGradient>
    <linearGradient id="Y" y2="232.664" x2="117.894" y1="250.228" x1="112.578" xlink:href="#a">
      <stop offset="0" stop-color="#693594"/>
      <stop offset=".106" stop-color="#892e83"/>
      <stop offset=".265" stop-color="#b4246c"/>
      <stop offset=".409" stop-color="#d31d5c"/>
      <stop offset=".531" stop-color="#e61952"/>
      <stop offset=".616" stop-color="#ed174e"/>
      <stop offset="1" stop-color="#f9e57e"/>
    </linearGradient>
    <linearGradient id="Z" y2="234.337" x2="121.53" y1="251.337" x1="115.257" xlink:href="#a">
      <stop offset="0" stop-color="#693594"/>
      <stop offset=".106" stop-color="#892e83"/>
      <stop offset=".265" stop-color="#b4246c"/>
      <stop offset=".409" stop-color="#d31d5c"/>
      <stop offset=".531" stop-color="#e61952"/>
      <stop offset=".616" stop-color="#ed174e"/>
      <stop offset="1" stop-color="#f9e57e"/>
    </linearGradient>
    <linearGradient id="aa" y2="234.567" x2="124.182" y1="252.131" x1="118.867" xlink:href="#a">
      <stop offset="0" stop-color="#693594"/>
      <stop offset=".106" stop-color="#892e83"/>
      <stop offset=".265" stop-color="#b4246c"/>
      <stop offset=".409" stop-color="#d31d5c"/>
      <stop offset=".531" stop-color="#e61952"/>
      <stop offset=".616" stop-color="#ed174e"/>
      <stop offset="1" stop-color="#f9e57e"/>
    </linearGradient>
    <linearGradient id="ab" y2="236.953" x2="128.617" y1="253.952" x1="122.344" xlink:href="#a">
      <stop offset="0" stop-color="#693594"/>
      <stop offset=".106" stop-color="#892e83"/>
      <stop offset=".265" stop-color="#b4246c"/>
      <stop offset=".409" stop-color="#d31d5c"/>
      <stop offset=".531" stop-color="#e61952"/>
      <stop offset=".616" stop-color="#ed174e"/>
      <stop offset="1" stop-color="#f9e57e"/>
    </linearGradient>
    <linearGradient id="ac" y2="237.069" x2="132.45" y1="254.634" x1="127.135" xlink:href="#a">
      <stop offset="0" stop-color="#693594"/>
      <stop offset=".106" stop-color="#892e83"/>
      <stop offset=".265" stop-color="#b4246c"/>
      <stop offset=".409" stop-color="#d31d5c"/>
      <stop offset=".531" stop-color="#e61952"/>
      <stop offset=".616" stop-color="#ed174e"/>
      <stop offset="1" stop-color="#f9e57e"/>
    </linearGradient>
    <linearGradient id="ad" y2="239.919" x2="136.656" y1="256.919" x1="130.383" xlink:href="#a">
      <stop offset="0" stop-color="#693594"/>
      <stop offset=".106" stop-color="#892e83"/>
      <stop offset=".265" stop-color="#b4246c"/>
      <stop offset=".409" stop-color="#d31d5c"/>
      <stop offset=".531" stop-color="#e61952"/>
      <stop offset=".616" stop-color="#ed174e"/>
      <stop offset="1" stop-color="#f9e57e"/>
    </linearGradient>
    <linearGradient id="ae" y2="239.581" x2="140.749" y1="257.145" x1="135.434" xlink:href="#a">
      <stop offset="0" stop-color="#693594"/>
      <stop offset=".106" stop-color="#892e83"/>
      <stop offset=".265" stop-color="#b4246c"/>
      <stop offset=".409" stop-color="#d31d5c"/>
      <stop offset=".531" stop-color="#e61952"/>
      <stop offset=".616" stop-color="#ed174e"/>
      <stop offset="1" stop-color="#f9e57e"/>
    </linearGradient>
    <linearGradient id="af" y2="241.175" x2="146.017" y1="258.739" x1="140.701" xlink:href="#a">
      <stop offset="0" stop-color="#693594"/>
      <stop offset=".106" stop-color="#892e83"/>
      <stop offset=".265" stop-color="#b4246c"/>
      <stop offset=".409" stop-color="#d31d5c"/>
      <stop offset=".531" stop-color="#e61952"/>
      <stop offset=".616" stop-color="#ed174e"/>
      <stop offset="1" stop-color="#f9e57e"/>
    </linearGradient>
    <linearGradient id="ag" y2="244.941" x2="150.266" y1="261.941" x1="143.993" xlink:href="#a">
      <stop offset="0" stop-color="#693594"/>
      <stop offset=".106" stop-color="#892e83"/>
      <stop offset=".265" stop-color="#b4246c"/>
      <stop offset=".409" stop-color="#d31d5c"/>
      <stop offset=".531" stop-color="#e61952"/>
      <stop offset=".616" stop-color="#ed174e"/>
      <stop offset="1" stop-color="#f9e57e"/>
    </linearGradient>
    <linearGradient id="ah" y2="243.608" x2="154.055" y1="261.172" x1="148.739" xlink:href="#a">
      <stop offset="0" stop-color="#693594"/>
      <stop offset=".106" stop-color="#892e83"/>
      <stop offset=".265" stop-color="#b4246c"/>
      <stop offset=".409" stop-color="#d31d5c"/>
      <stop offset=".531" stop-color="#e61952"/>
      <stop offset=".616" stop-color="#ed174e"/>
      <stop offset="1" stop-color="#f9e57e"/>
    </linearGradient>
    <linearGradient id="ai" y2="247.672" x2="157.668" y1="264.672" x1="151.395" xlink:href="#a">
      <stop offset="0" stop-color="#693594"/>
      <stop offset=".106" stop-color="#892e83"/>
      <stop offset=".265" stop-color="#b4246c"/>
      <stop offset=".409" stop-color="#d31d5c"/>
      <stop offset=".531" stop-color="#e61952"/>
      <stop offset=".616" stop-color="#ed174e"/>
      <stop offset="1" stop-color="#f9e57e"/>
    </linearGradient>
    <linearGradient id="aj" y2="245.878" x2="161.557" y1="263.442" x1="156.242" xlink:href="#a">
      <stop offset="0" stop-color="#693594"/>
      <stop offset=".106" stop-color="#892e83"/>
      <stop offset=".265" stop-color="#b4246c"/>
      <stop offset=".409" stop-color="#d31d5c"/>
      <stop offset=".531" stop-color="#e61952"/>
      <stop offset=".616" stop-color="#ed174e"/>
      <stop offset="1" stop-color="#f9e57e"/>
    </linearGradient>
    <linearGradient id="ak" y2="250.188" x2="164.486" y1="267.188" x1="158.213" xlink:href="#a">
      <stop offset="0" stop-color="#693594"/>
      <stop offset=".106" stop-color="#892e83"/>
      <stop offset=".265" stop-color="#b4246c"/>
      <stop offset=".409" stop-color="#d31d5c"/>
      <stop offset=".531" stop-color="#e61952"/>
      <stop offset=".616" stop-color="#ed174e"/>
      <stop offset="1" stop-color="#f9e57e"/>
    </linearGradient>
    <linearGradient id="al" y2="248.319" x2="169.624" y1="265.883" x1="164.308" xlink:href="#a">
      <stop offset="0" stop-color="#693594"/>
      <stop offset=".106" stop-color="#892e83"/>
      <stop offset=".265" stop-color="#b4246c"/>
      <stop offset=".409" stop-color="#d31d5c"/>
      <stop offset=".531" stop-color="#e61952"/>
      <stop offset=".616" stop-color="#ed174e"/>
      <stop offset="1" stop-color="#f9e57e"/>
    </linearGradient>
    <linearGradient id="am" y2="253.048" x2="172.236" y1="270.048" x1="165.963" xlink:href="#a">
      <stop offset="0" stop-color="#693594"/>
      <stop offset=".106" stop-color="#892e83"/>
      <stop offset=".265" stop-color="#b4246c"/>
      <stop offset=".409" stop-color="#d31d5c"/>
      <stop offset=".531" stop-color="#e61952"/>
      <stop offset=".616" stop-color="#ed174e"/>
      <stop offset="1" stop-color="#f9e57e"/>
    </linearGradient>
    <linearGradient id="an" y2="250.686" x2="177.443" y1="268.25" x1="172.128" xlink:href="#a">
      <stop offset="0" stop-color="#693594"/>
      <stop offset=".106" stop-color="#892e83"/>
      <stop offset=".265" stop-color="#b4246c"/>
      <stop offset=".409" stop-color="#d31d5c"/>
      <stop offset=".531" stop-color="#e61952"/>
      <stop offset=".616" stop-color="#ed174e"/>
      <stop offset="1" stop-color="#f9e57e"/>
    </linearGradient>
    <linearGradient id="ao" y2="251.713" x2="180.838" y1="269.277" x1="175.522" xlink:href="#a">
      <stop offset="0" stop-color="#693594"/>
      <stop offset=".106" stop-color="#892e83"/>
      <stop offset=".265" stop-color="#b4246c"/>
      <stop offset=".409" stop-color="#d31d5c"/>
      <stop offset=".531" stop-color="#e61952"/>
      <stop offset=".616" stop-color="#ed174e"/>
      <stop offset="1" stop-color="#f9e57e"/>
    </linearGradient>
    <linearGradient id="ap" y2="252.985" x2="185.042" y1="270.55" x1="179.727" xlink:href="#a">
      <stop offset="0" stop-color="#693594"/>
      <stop offset=".106" stop-color="#892e83"/>
      <stop offset=".265" stop-color="#b4246c"/>
      <stop offset=".409" stop-color="#d31d5c"/>
      <stop offset=".531" stop-color="#e61952"/>
      <stop offset=".616" stop-color="#ed174e"/>
      <stop offset="1" stop-color="#f9e57e"/>
    </linearGradient>
    <linearGradient id="aq" y2="253.098" x2="195.496" y1="267.98" x1="182.256" xlink:href="#a">
      <stop offset="0" stop-color="#693594"/>
      <stop offset=".106" stop-color="#892e83"/>
      <stop offset=".265" stop-color="#b4246c"/>
      <stop offset=".409" stop-color="#d31d5c"/>
      <stop offset=".531" stop-color="#e61952"/>
      <stop offset=".616" stop-color="#ed174e"/>
      <stop offset="1" stop-color="#f9e57e"/>
    </linearGradient>
    <linearGradient id="ar" y2="255.729" x2="198.453" y1="270.611" x1="185.213" xlink:href="#a">
      <stop offset="0" stop-color="#693594"/>
      <stop offset=".106" stop-color="#892e83"/>
      <stop offset=".265" stop-color="#b4246c"/>
      <stop offset=".409" stop-color="#d31d5c"/>
      <stop offset=".531" stop-color="#e61952"/>
      <stop offset=".616" stop-color="#ed174e"/>
      <stop offset="1" stop-color="#f9e57e"/>
    </linearGradient>
    <linearGradient id="as" y2="264.972" x2="100.948" y1="237.546" x1="109.52" xlink:href="#a">
      <stop offset="0" stop-color="#d4e5ee"/>
      <stop offset=".072" stop-color="#ccdee8"/>
      <stop offset=".186" stop-color="#b5cbd7"/>
      <stop offset=".327" stop-color="#90abbc"/>
      <stop offset=".488" stop-color="#5e8096"/>
      <stop offset=".554" stop-color="#476c85"/>
      <stop offset=".594" stop-color="#5c7e95"/>
      <stop offset=".685" stop-color="#87a3b5"/>
      <stop offset=".773" stop-color="#a9c0ce"/>
      <stop offset=".857" stop-color="#c1d4df"/>
      <stop offset=".935" stop-color="#cfe1ea"/>
      <stop offset="1" stop-color="#d4e5ee"/>
    </linearGradient>
    <linearGradient id="at" y2="264.404" x2="99.131" y1="236.978" x1="107.703" xlink:href="#a">
      <stop offset="0" stop-color="#d4e5ee"/>
      <stop offset=".072" stop-color="#ccdee8"/>
      <stop offset=".186" stop-color="#b5cbd7"/>
      <stop offset=".327" stop-color="#90abbc"/>
      <stop offset=".488" stop-color="#5e8096"/>
      <stop offset=".554" stop-color="#476c85"/>
      <stop offset=".594" stop-color="#5c7e95"/>
      <stop offset=".685" stop-color="#87a3b5"/>
      <stop offset=".773" stop-color="#a9c0ce"/>
      <stop offset=".857" stop-color="#c1d4df"/>
      <stop offset=".935" stop-color="#cfe1ea"/>
      <stop offset="1" stop-color="#d4e5ee"/>
    </linearGradient>
    <linearGradient id="au" y2="264.676" x2="100.002" y1="237.25" x1="108.574" xlink:href="#a">
      <stop offset="0" stop-color="#d4e5ee"/>
      <stop offset=".072" stop-color="#ccdee8"/>
      <stop offset=".186" stop-color="#b5cbd7"/>
      <stop offset=".327" stop-color="#90abbc"/>
      <stop offset=".488" stop-color="#5e8096"/>
      <stop offset=".554" stop-color="#476c85"/>
      <stop offset=".594" stop-color="#5c7e95"/>
      <stop offset=".685" stop-color="#87a3b5"/>
      <stop offset=".773" stop-color="#a9c0ce"/>
      <stop offset=".857" stop-color="#c1d4df"/>
      <stop offset=".935" stop-color="#cfe1ea"/>
      <stop offset="1" stop-color="#d4e5ee"/>
    </linearGradient>
    <linearGradient id="av" y2="265.428" x2="102.408" y1="238.002" x1="110.98" xlink:href="#a">
      <stop offset="0" stop-color="#d4e5ee"/>
      <stop offset=".072" stop-color="#ccdee8"/>
      <stop offset=".186" stop-color="#b5cbd7"/>
      <stop offset=".327" stop-color="#90abbc"/>
      <stop offset=".488" stop-color="#5e8096"/>
      <stop offset=".554" stop-color="#476c85"/>
      <stop offset=".594" stop-color="#5c7e95"/>
      <stop offset=".685" stop-color="#87a3b5"/>
      <stop offset=".773" stop-color="#a9c0ce"/>
      <stop offset=".857" stop-color="#c1d4df"/>
      <stop offset=".935" stop-color="#cfe1ea"/>
      <stop offset="1" stop-color="#d4e5ee"/>
    </linearGradient>
    <linearGradient id="aw" y2="264.446" x2="99.265" y1="237.019" x1="107.837" xlink:href="#a">
      <stop offset="0" stop-color="#d4e5ee"/>
      <stop offset=".072" stop-color="#ccdee8"/>
      <stop offset=".186" stop-color="#b5cbd7"/>
      <stop offset=".327" stop-color="#90abbc"/>
      <stop offset=".488" stop-color="#5e8096"/>
      <stop offset=".554" stop-color="#476c85"/>
      <stop offset=".594" stop-color="#5c7e95"/>
      <stop offset=".685" stop-color="#87a3b5"/>
      <stop offset=".773" stop-color="#a9c0ce"/>
      <stop offset=".857" stop-color="#c1d4df"/>
      <stop offset=".935" stop-color="#cfe1ea"/>
      <stop offset="1" stop-color="#d4e5ee"/>
    </linearGradient>
    <linearGradient id="ax" y2="265.362" x2="102.195" y1="237.935" x1="110.767" xlink:href="#a">
      <stop offset="0" stop-color="#d4e5ee"/>
      <stop offset=".072" stop-color="#ccdee8"/>
      <stop offset=".186" stop-color="#b5cbd7"/>
      <stop offset=".327" stop-color="#90abbc"/>
      <stop offset=".488" stop-color="#5e8096"/>
      <stop offset=".554" stop-color="#476c85"/>
      <stop offset=".594" stop-color="#5c7e95"/>
      <stop offset=".685" stop-color="#87a3b5"/>
      <stop offset=".773" stop-color="#a9c0ce"/>
      <stop offset=".857" stop-color="#c1d4df"/>
      <stop offset=".935" stop-color="#cfe1ea"/>
      <stop offset="1" stop-color="#d4e5ee"/>
    </linearGradient>
    <linearGradient id="ay" y2="264.284" x2="98.745" y1="236.857" x1="107.317" xlink:href="#a">
      <stop offset="0" stop-color="#d4e5ee"/>
      <stop offset=".072" stop-color="#ccdee8"/>
      <stop offset=".186" stop-color="#b5cbd7"/>
      <stop offset=".327" stop-color="#90abbc"/>
      <stop offset=".488" stop-color="#5e8096"/>
      <stop offset=".554" stop-color="#476c85"/>
      <stop offset=".594" stop-color="#5c7e95"/>
      <stop offset=".685" stop-color="#87a3b5"/>
      <stop offset=".773" stop-color="#a9c0ce"/>
      <stop offset=".857" stop-color="#c1d4df"/>
      <stop offset=".935" stop-color="#cfe1ea"/>
      <stop offset="1" stop-color="#d4e5ee"/>
    </linearGradient>
    <linearGradient id="az" y2="264.13" x2="98.253" y1="236.703" x1="106.825" xlink:href="#a">
      <stop offset="0" stop-color="#d4e5ee"/>
      <stop offset=".072" stop-color="#ccdee8"/>
      <stop offset=".186" stop-color="#b5cbd7"/>
      <stop offset=".327" stop-color="#90abbc"/>
      <stop offset=".488" stop-color="#5e8096"/>
      <stop offset=".554" stop-color="#476c85"/>
      <stop offset=".594" stop-color="#5c7e95"/>
      <stop offset=".685" stop-color="#87a3b5"/>
      <stop offset=".773" stop-color="#a9c0ce"/>
      <stop offset=".857" stop-color="#c1d4df"/>
      <stop offset=".935" stop-color="#cfe1ea"/>
      <stop offset="1" stop-color="#d4e5ee"/>
    </linearGradient>
    <linearGradient id="aA" y2="264.972" x2="100.949" y1="237.546" x1="109.521" xlink:href="#a">
      <stop offset="0" stop-color="#d4e5ee"/>
      <stop offset=".072" stop-color="#ccdee8"/>
      <stop offset=".186" stop-color="#b5cbd7"/>
      <stop offset=".327" stop-color="#90abbc"/>
      <stop offset=".488" stop-color="#5e8096"/>
      <stop offset=".554" stop-color="#476c85"/>
      <stop offset=".594" stop-color="#5c7e95"/>
      <stop offset=".685" stop-color="#87a3b5"/>
      <stop offset=".773" stop-color="#a9c0ce"/>
      <stop offset=".857" stop-color="#c1d4df"/>
      <stop offset=".935" stop-color="#cfe1ea"/>
      <stop offset="1" stop-color="#d4e5ee"/>
    </linearGradient>
    <linearGradient id="aB" y2="265.715" x2="103.326" y1="238.289" x1="111.898" xlink:href="#a">
      <stop offset="0" stop-color="#d4e5ee"/>
      <stop offset=".072" stop-color="#ccdee8"/>
      <stop offset=".186" stop-color="#b5cbd7"/>
      <stop offset=".327" stop-color="#90abbc"/>
      <stop offset=".488" stop-color="#5e8096"/>
      <stop offset=".554" stop-color="#476c85"/>
      <stop offset=".594" stop-color="#5c7e95"/>
      <stop offset=".685" stop-color="#87a3b5"/>
      <stop offset=".773" stop-color="#a9c0ce"/>
      <stop offset=".857" stop-color="#c1d4df"/>
      <stop offset=".935" stop-color="#cfe1ea"/>
      <stop offset="1" stop-color="#d4e5ee"/>
    </linearGradient>
    <linearGradient id="a" gradientUnits="userSpaceOnUse"/>
  </defs>
  <g fill="#dcddde" stroke="#d9d9d9">
    <path d="M31.857 19.664c-2.558-.352-11.998-.828-16.21-1.518-3.388-.554-6.696-1.563-9.854-2.622-.816-.274-2.263-.836-3.186-1.333-.586-.448-1.994-1.11-2.378-1.74 6.12 2.906 8.582 3.707 15.765 5.16 2.91.598 13.507 1.456 15.863 2.053z" stroke-width=".11241156"/>
    <g stroke-width=".254">
      <path d="m20.054 19.27-.195-.217-.181-.18-.166-.145-.145-.094-.132-.043.224.014.132.015.13.014.132.014.132.015.132.007.116.014.18.166.174.159.151.158.138.16.137.15.253.296.132.138.13.137.137.122.145.123.166.113.174.109.195.1.217.094.245.08-.274.093-.267.023-.268-.043-.267-.109-.26-.144-.26-.188-.247-.215-.245-.232-.231-.237-.217-.239z" stroke-width=".04790694"/>
      <path d="m21.123 19.622-.173-.195-.18-.195-.182-.195-.18-.18-.188-.166.072.007h.08l.072.008.079.007.08.007.079.015.08.006.078.008.08.007.086.007.08.015.173.014.087.007h.087l.086.007.066.101.079.123.101.144.109.152.132.166.137.166.145.173.152.166.159.159.158.152.167.137.159.113.159.094.159.065.151.038h.145l-.318.05-.296.008-.275-.028-.26-.065-.238-.101-.217-.123-.217-.144-.195-.166-.195-.174-.18-.187z" stroke-width=".04790694"/>
      <path d="m22.452 20.034-.173-.187-.181-.224-.188-.245-.195-.267-.203-.303h.123l.116.007.231.028.113.015.116.014h.267l.116.115.108.123.109.116.108.13.109.122.1.132.11.122.101.132.216.246.116.122.109.116.368.324.138.094-.18.022-.174.014-.166-.006-.166-.03-.167-.037-.159-.065-.158-.08-.167-.108-.166-.122-.166-.144zm.731-.385-.151-.18-.145-.18-.138-.16-.132-.137-.116-.115.773.072.087.113.094.115.087.116.086.114.087.115.095.116.086.113.094.116.101.108.102.113.1.11.117.107.115.108.123.109.132.1.137.1-.137.074-.151.029-.152-.022-.159-.065-.159-.094-.166-.132-.166-.144-.167-.173-.158-.18-.167-.188z" stroke-width=".04790694"/>
      <path d="m24.1 19.997-.167-.195-.16-.207-.158-.216-.152-.217-.152-.208.13.022.101.007.073.007.065.008.064.007h.065l.095.007.123.007.137.195.137.18.137.174.152.151.145.137.144.132.152.114.145.1.144.087.145.08.137.057.132.051.132.044.116.028.115.015.102.007-.227.144-.207.095-.208.043h-.202l-.195-.038-.188-.064-.18-.102-.18-.13-.174-.158-.174-.166zm.649-.132-.152-.152-.144-.158-.138-.174-.137-.18-.133-.188.145.007.16.014.15.015.152.007.132.015.109.006.079.008.036.007.015.015.037.037.058.058.072.073.08.086.1.102.11.107.122.116.138.115.144.123.145.116.159.115.166.108.166.101.173.087.174.071-.232.03-.223.014-.217-.015-.208-.028-.195-.043-.195-.065-.18-.08-.174-.1-.174-.108-.159-.123z" stroke-width=".04790694"/>
      <path d="m25.71 19.821-.16-.145-.151-.15-.145-.145-.132-.145-.122-.144h.086l.109.007.113.007h.123l.115.014.116.007.094.008.08.014v.015l.028.038.072.065.101.079.123.1.144.117.16.123.166.122.174.13.173.13.166.122.16.109.144.1.132.08.101.058.072.036-.195.037-.188.015-.195-.021-.195-.037-.195-.064-.187-.08-.188-.093-.188-.116-.174-.122-.173-.132z" stroke-width=".04790694"/>
      <path d="m26.409 19.654-.189-.159-.166-.13-.123-.108-.08-.071-.036-.03.094.008.21.014.108.007.116.014.23.015.124.007.13.079.13.08.253.166.132.085.123.094.13.087.123.087.255.18.13.087.122.087.26.159.124.079.132.072-.116.116-.152.05h-.188l-.207-.05-.232-.087-.237-.122-.253-.145-.246-.158-.246-.173-.23-.173z" stroke-width=".04790694"/>
      <path d="m27.927 20.034-.202-.137-.224-.152-.239-.166-.26-.173-.29-.18.124.007.137.008h.123l.122.007.109.007.087.007.057.008.022.006.015.022.043.044.065.057.087.08.108.093.123.11.132.107.152.116.152.113.159.115.159.101.166.101.159.086.158.073.152.05.138.03-.123.042-.123.022-.122.007-.123-.019-.123-.036-.132-.05-.137-.072-.145-.087-.159-.101-.166-.114z" stroke-width=".04790694"/>
      <path d="m27.956 19.718-.137-.132-.124-.108-.093-.094-.072-.064-.044-.044.116.007.109.008.107.007.109.014.1.008.11.007.113.014.115.007.087.08.094.079.087.08.094.086.094.094.094.087.1.086.103.087.201.16.11.07.1.065.116.057.108.05.116.036.115.03-.165.064-.181.029-.188-.014-.195-.05-.202-.073-.195-.094-.203-.114-.188-.132-.18-.13-.174-.137zm1.09.23-.274-.245-.132-.132-.132-.123-.132-.116.08.008.087.014.194.015.109.014.115.007.123.014.116.007.036.087.05.087.051.08.066.079.071.072.16.144.093.058.094.058.102.05.108.05.108.037.116.029.113.028.123.014.123.008-.144.1-.144.066-.145.03-.144.007-.145-.029-.145-.044-.144-.064-.144-.087-.138-.094-.145-.113z" stroke-width=".04790694"/>
      <path d="m29.639 19.962-.116-.093-.101-.102-.087-.108-.065-.122-.043-.123.087.007.086.007.094.014.094.008.094.007.207.014.123.008.05.072.059.072.057.065.058.058.058.057.065.044.065.05.066.044.071.038.08.036.08.038.086.029.087.029.093.028.101.022.102.03-.123.05-.132.036-.137.022h-.152l-.144-.008-.16-.022-.302-.086-.145-.064-.137-.073z" stroke-width=".04790694"/>
      <path d="m30.426 19.897-.101-.073-.102-.079-.086-.087-.065-.086-.058-.094.123.014.072.007.065.007.065.008.058.007h.101v.029l.065.057.109.08.144.094.173.093.174.094.173.072.152.044-.043.043-.066.029-.079.014h-.087l-.1-.007-.109-.021-.116-.036-.115-.038-.116-.051-.115-.058z" stroke-width=".04790694"/>
      <path d="m30.751 19.733-.087-.065-.079-.058-.058-.044-.037-.029-.008-.014.564.065.043.028.073.037.086.043.094.043.101.051.094.038.087.038.072.021-.015.101-.036.065-.057.03-.08.014-.094-.014-.108-.038-.108-.044-.116-.057-.116-.066-.108-.071z" stroke-width=".04790694"/>
      <path d="M31.77 19.867h-.101l-.132-.038-.132-.065-.138-.072-.123-.065-.1-.043.122.007.108.008.101.006.094.007.087.008.094.007.094.015.109.02-.022.138z" stroke-width=".04790694"/>
      <path d="m31.813 19.419-.101-.036-.138-.007-.144.029-.144.036-.123.043-.095.03.124.02.108.015.094.022.094.014.086.021.087.022.101.022.109.029.007-.16zm-11.016-2.131-.203.188-.202.18-.202.174-.202.166-.208.152.073.014.079.007.08.007.071.015.08.007.08.008.086.006.08.008.079.006.086.008.087.014.166.015.087.014.094.007.086.014.072-.1.094-.124.108-.144.13-.145.137-.159.152-.159.166-.159.166-.152.181-.144.18-.13.18-.116.189-.094.18-.072.18-.044.181-.007.166.029-.318-.123-.301-.08-.282-.02-.267.014-.26.056-.238.087-.231.123-.224.138-.217.159-.207.174z" stroke-width=".04790694"/>
      <path d="m22.176 17.115-.195.18-.208.208-.207.24-.224.267-.238.296.132.007.115.014.109.007.1.015.102.014.108.015.123.02.145.023.132-.108.122-.116.132-.123.116-.123.245-.246.115-.123.123-.122.123-.116.13-.108.123-.109.13-.108.136-.094.145-.08.144-.08.152-.065-.18-.064-.174-.043-.166-.029-.174-.014-.166.014-.173.036-.166.05-.174.08-.18.102-.181.132z" stroke-width=".04790694"/>
      <path d="m22.79 17.678-.173.18-.159.167-.296.284-.132.108.788.093.1-.115.102-.116.094-.116.1-.115.102-.116.1-.122.21-.227.23-.216.124-.102.13-.093.137-.094.144-.08.152-.072.159-.065-.137-.114-.153-.058-.166-.014-.166.038-.18.072-.18.102-.188.132-.188.152-.188.166-.187.173z" stroke-width=".04790694"/>
      <path d="m23.722 17.49-.354.382-.173.21-.173.208-.174.207.138.008.113.006.094.008.173.029.094.014.108.015.13.02.152-.194.144-.174.152-.159.144-.137.151-.116.145-.101.137-.087.145-.072.137-.057.13-.043.137-.036.132-.029.123-.015.123-.014h.238l-.217-.208-.207-.151-.203-.1-.202-.059-.202-.007-.195.03-.195.072-.188.094-.187.132-.18.152z" stroke-width=".04790694"/>
      <path d="m24.504 17.79-.166.132-.166.145-.159.158-.152.174-.151.188.151.022.174.019.347.043.159.022.122.014.095.007h.037l.015-.014.036-.029.05-.05.065-.065.08-.08.093-.08.109-.093.122-.102.138-.094.144-.101.159-.094.173-.094.174-.08.187-.072.195-.065.203-.044-.24-.087-.223-.064-.224-.038-.207-.015h-.208l-.202.03-.195.044-.188.065-.188.079-.173.101z" stroke-width=".04790694"/>
      <path d="m25.593 18.059-.188.122-.166.13-.166.138-.15.137-.138.138.094.007.115.014.267.03.138.013.123.015.108.007h.08v-.015l.036-.038.071-.05.109-.073.132-.079.152-.094.173-.102.18-.1.18-.102.188-.101.189-.094.172-.086.16-.073.144-.058.116-.036.093-.022-.195-.079-.195-.058-.207-.022h-.203l-.207.023-.208.043-.202.065-.207.08-.195.094-.195.101z" stroke-width=".04790694"/>
      <path d="m26.351 18.39-.216.138-.18.116-.138.086-.094.065-.043.022.101.022.113.015.124.013.132.008.137.014.137.014.26.044.138-.066.13-.065.137-.072.13-.072.132-.066.13-.072.137-.072.13-.072.132-.066.13-.072.137-.065.13-.057.132-.066.137-.057.137-.057.137-.05-.101-.159-.152-.094-.188-.035h-.216l-.239.05-.26.08-.274.108-.267.123-.275.138-.252.144zm1.619.252-.152.101-.137.095-.108.086-.08.058-.043.037.116.014.108.014.093.014.095.007.1.007.094.015.109.014.113.014.101-.064.102-.066.108-.079.108-.072.113-.08.116-.079.116-.08.23-.144.123-.058.123-.058.116-.044.122-.037.116-.022h.115l.116.007-.16-.114-.18-.065-.187-.028h-.202l-.21.038-.217.065-.207.08-.208.094-.195.108-.195.109z" stroke-width=".04790694"/>
      <path d="m27.993 18.273-.216.116-.239.123-.26.13-.283.145-.311.145.116.007.132.014.132.015.132.021.115.015.087.014.065.007.029-.007.014-.014.051-.038.065-.057.087-.064.108-.08.132-.087.138-.094.151-.094.332-.188.18-.08.18-.073.182-.057.18-.037.174-.019h.173l-.123-.08-.13-.057-.123-.03-.13-.013-.132.007-.137.028-.152.051-.158.058-.173.08-.182.087zm1.07.324-.16.102-.159.101-.303.217-.151.094.087.014.094.008.108.022.116.013.122.015.132.014.123.015.123.014.043-.094.05-.08.058-.079.073-.072.072-.065.08-.05.094-.052.093-.043.101-.038.108-.029.109-.021.116-.016.122-.007h.123l.253.029-.132-.145-.137-.108-.138-.072-.144-.043-.145-.007-.151.014-.16.037-.151.05-.159.08-.151.08zm1.413.382-.113.051-.109.058-.1.072-.08.08-.072.086.065.015.08.014.079.014.08.015.071.007.058.007h.058l.029-.015.072-.043.123-.058.144-.064.166-.057.188-.05.18-.03.181.007-.036-.058-.058-.052-.08-.042-.086-.03-.101-.021-.116-.007h-.115l-.132.007-.123.022-.132.029z" stroke-width=".04790694"/>
      <path d="m30.787 19.254-.101.043-.087.043-.072.03-.038.028-.015.007.579.1.05-.02.08-.023.086-.028.102-.03.1-.021.102-.014h.094l.08.014.006-.113-.029-.087-.05-.058-.08-.036-.093-.015-.109.008-.116.014-.132.03-.245.086zm-1.105-.528-.132.072-.123.086-.101.101-.08.116-.064.132.094.007.086.015.095.007.1.014.102.015.108.007.115.022.123.013.043-.064.051-.058.058-.05.064-.051.073-.044.079-.043.08-.036.086-.03.087-.028.094-.022.087-.014.094-.008.094-.007h.093l.095.007.086.015-.115-.094-.123-.073-.137-.064-.152-.043-.152-.03-.151-.018h-.16l-.158.013-.152.03-.151.05zm-24.61-1.829.036.159.08.145.123.13.173.1.226.072-.036-.109-.022-.113-.021-.113-.015-.132-.007-.132v-.137l.007-.132.007-.138.014-.137.014-.137.022-.132.029-.123.021-.122.03-.109.037-.108.03-.094-.037-.014-.03-.008-.037-.014-.03-.007-.028-.014-.034-.008-.037-.015-.037-.014-.015.022-.036.058-.05.093-.065.116-.073.137-.072.152-.065.174-.057.173-.043.18-.015.174z" stroke-width=".04790694"/>
      <path d="m6.039 17.922.093.05.102.038.087.014.079.007h.072l-.087-.23-.036-.133-.029-.132-.029-.144-.022-.144-.022-.145-.014-.151-.008-.152v-.16l.008-.152.014-.16.021-.15.03-.16.037-.144.044-.152-.087-.029-.087-.029-.08-.029-.078-.021-.066-.022-.071-.021-.058-.015-.051-.014-.1.396-.073.36-.038.311-.007.275.015.238.043.202.058.174.066.144.086.116.094.093zm.477.144.108.144.138.109.158.057.181.008.209-.058-.08-.13-.078-.138-.066-.144-.058-.137-.043-.151-.044-.145-.029-.152-.029-.152-.014-.151-.008-.159v-.152l.014-.158.015-.16.028-.151.03-.16.043-.15-.073-.03-.086-.028-.26-.087-.072-.029-.065-.022-.05-.014-.044.145-.043.18-.03.203-.013.224-.007.245v.246l.022.245.036.239.051.223.065.208zm.376-.94-.014-.245v-.245l.02-.246.044-.238.065-.224.08.028.08.03.086.021.087.029.086.029.094.029.087.029.094.028v.318l.007.189.015.39.007.202.022.207.022.195.03.195.028.18.044.174.05.152.058.13.073.108.079.08.087.05-.196.015-.188-.03-.166-.07-.152-.102-.144-.137-.123-.166-.101-.188-.094-.207-.073-.224-.056-.239z" stroke-width=".04790694"/>
      <path d="m8.293 16.64.008.173.007.18v.378l.016.383.014.188.022.187.036.174.038.159.058.151.065.137.08.117.1.093-.209-.05-.173-.072-.145-.101-.123-.116-.1-.137-.08-.159-.058-.173-.044-.181-.03-.203-.02-.207-.016-.448-.014-.47v-.24l-.015-.245.073.029.072.021.064.022.073.015.072.021.066.022.072.022.071.029.015.144z" stroke-width=".04790694"/>
      <path d="M8.308 17.472v-.717l-.015-.216-.015-.202.08.021.072.022.065.022.073.021.071.021.065.022.072.015.08.021-.007.022-.015.05-.015.08-.021.101-.014.13-.015.145-.007.166.007.188.022.195.036.216.066.226.08.231.115.239.144.252.174.246.217.252-.289-.014-.246-.058-.202-.093-.166-.123-.132-.159-.095-.18-.079-.202-.05-.224-.03-.231-.021-.238z" stroke-width=".04790694"/>
      <path d="m8.865 17.903-.057-.283-.036-.282-.008-.288.03-.275.057-.275.684.22-.007.116-.007.138.007.15.016.174.02.181.037.195.037.202.057.208.066.207.08.203.086.202.108.195.116.188.137.173.152.159.167.136-.196.037-.195-.014-.188-.066-.187-.1-.18-.138-.174-.166-.16-.201-.145-.224-.122-.239-.109-.26z" stroke-width=".04790694"/>
      <path d="m10.635 17.369.014.181.007.188.022.188.014.195.022.188.03.188.037.18.044.173.058.173.065.159.08.152.093.13.101.122.123.109-.144.021-.152-.007-.151-.038-.152-.065-.152-.094-.152-.113-.145-.144-.144-.18-.132-.196-.115-.231-.11-.253-.093-.289-.073-.31-.058-.332-.037-.369-.014-.39.108.038.138.036.152.05.158.044.152.05.152.044.132.037.1.022.015.166z" stroke-width=".04790694"/>
      <path d="m10.692 18.128-.022-.246-.007-.245-.015-.224-.014-.208-.022-.188.101.022.087.022.08.029.078.021.087.022.08.019.094.029.108.029.022.195.021.188.022.187.03.18.022.182.029.173.037.166.037.166.05.159.059.158.072.152.08.152.1.15.11.146.131.136.145.138-.325.015-.274-.03-.239-.078-.188-.123-.158-.152-.13-.18-.095-.203-.072-.23-.058-.231-.038-.254z" stroke-width=".04790694"/>
      <path d="m11.47 18.293-.036-.245-.038-.231-.022-.217-.021-.203-.016-.173.102.022.087.021.08.022.08.015.07.02.08.015.094.029.11.021.035.283.044.267.05.245.051.231.057.208.065.201.072.173.072.167.073.151.08.137.086.116.08.108.087.101.087.08.093.072.087.065-.289.015-.249-.037-.224-.079-.195-.122-.166-.152-.145-.18-.116-.21-.101-.223-.086-.232-.066-.245z" stroke-width=".04790694"/>
      <path d="m12.238 18.444-.058-.238-.05-.226-.037-.217-.029-.194-.03-.174.088.014.086.022.088.022.086.022.087.021.087.021.087.022.093.022.008.137.022.152.028.159.051.173.05.187.073.18.073.196.079.188.094.188.102.18.1.166.11.159.107.152.116.132.123.108.116.086-.275.015-.245-.038-.217-.08-.202-.115-.166-.15-.152-.174-.132-.203-.116-.216-.1-.226-.08-.238z" stroke-width=".04790694"/>
      <path d="m12.91 18.364-.073-.238-.043-.202-.036-.166-.022-.123v-.072l.108.02.101.021.101.029.101.022.101.028.095.022.094.021.094.015.036.123.081.31.051.188.059.195.064.202.072.202.08.21.087.202.094.187.101.181.108.16.124.136.122.108.138.08.144.043-.283.036-.26-.037-.239-.094-.217-.144-.202-.18-.174-.217-.158-.245-.145-.253-.116-.269-.101-.26z" stroke-width=".04790694"/>
      <path d="m13.806 18.71-.073-.231-.058-.216-.043-.196-.044-.173-.038-.137.08.015.08.007.071.014.066.014.072.015.065.014.058.014.065.008.022.166.038.173.044.173.042.167.057.173.065.166.072.159.174.318.101.151.116.144.113.132.138.132.137.114.152.108.166.1-.26.059h-.23l-.21-.05-.195-.102-.166-.137-.152-.166-.137-.202-.123-.216-.102-.231-.094-.238z" stroke-width=".04790694"/>
      <path d="m14.485 19.1-.108-.224-.087-.238-.073-.253-.065-.26-.043-.267.093.021.095.015.1.022.094.014.094.014.087.022.094.014.087.022.043.152.037.158.043.152.037.151.043.152.043.151.058.145.065.152.08.144.087.151.108.145.13.144.145.138.173.144.202.144.224.137h-.216l-.21-.022-.202-.05-.195-.072-.18-.1-.182-.124-.158-.144-.159-.158-.137-.181-.133-.195z" stroke-width=".04790694"/>
      <path d="m15.258 19.258-.109-.23-.093-.246-.08-.253-.058-.26-.044-.26.08.015.086.022.086.014.087.014.087.015.094.021.094.015.094.021.029.18.043.181.057.181.072.173.086.173.095.173.108.167.123.159.132.159.145.143.152.137.166.132.173.114.188.108.188.094.202.08-.282.021-.274-.014-.253-.043-.238-.073-.224-.093-.21-.123-.195-.145-.173-.172-.16-.18-.144-.203z" stroke-width=".04790694"/>
      <path d="m16.002 19.293-.123-.207-.1-.223-.088-.232-.065-.239-.043-.244.079.014.072.007.13.014.065.007.072.015.087.014.102.014.1.21.088.194.166.362.087.166.08.151.087.144.093.137.102.138.115.122.13.132.144.114.167.122.188.113.209.116.239.113-.239-.014-.23-.038-.232-.058-.224-.086-.21-.101-.207-.122-.195-.138-.181-.159-.166-.173-.16-.187z" stroke-width=".04790694"/>
      <path d="m16.739 19.351-.13-.226-.123-.223-.109-.224-.102-.231-.093-.224.065.007.086.014.217.029.116.022.101.014.086.015.066.006.086.203.095.202.109.188.108.18.123.166.13.166.137.152.152.152.151.137.167.13.173.13.181.115.188.108.202.1.203.094.216.087-.354.015-.332-.014-.296-.05-.275-.08-.252-.108-.224-.13-.21-.151-.188-.174-.173-.187-.16-.202z" stroke-width=".04790694"/>
      <path d="m17.67 19.524-.188-.217-.166-.224-.152-.237-.13-.253-.109-.26.109.015.108.014.113.007.116.014.1.007.088.015.072.014.036.022.132.1.132.11.275.259.137.144.145.152.144.159.145.159.144.166.302.317.16.159.158.159.16.144.158.144.166.13-.195-.007-.202-.029-.216-.05-.224-.08-.224-.093-.227-.115-.223-.137-.224-.152-.217-.173-.21-.18zm1.156.035-.224-.246-.224-.238-.231-.238-.232-.217-.23-.194h.08l.093.014.108.007.108.022.116.014.116.022.108.021.094.014.36.332.175.174.173.173.166.173.167.174.166.173.159.159.16.158.158.145.152.13.151.115.152.101.145.087.144.065.145.043-.189.123-.194.051h-.195l-.203-.05-.202-.101-.202-.138-.208-.173-.207-.195-.426-.455z" stroke-width=".04790694"/>
      <path d="m19.455 19.471-.362-.403-.188-.195-.195-.18-.202-.174.072.008.086.007.11.013.107.008.109.014.087.007.072.008h.043l.123.028.122.057.123.08.13.108.132.13.138.152.144.159.145.172.166.18.167.181.188.188.194.181.21.18.224.166.238.151.26.138h-.296l-.281-.029-.253-.072-.246-.093-.224-.116-.208-.144-.203-.159L20 20.05l-.188-.188-.18-.195zM6 13.17l.108-.137.123-.101.16-.058.194-.007.224.057-.073.073-.064.086-.065.109-.058.115-.057.132-.051.132-.05.145-.05.152-.044.144-.038.152-.036.152-.038.144-.03.145-.028.137-.021.122-.022.116-.038-.007-.023-.011-.038-.015-.03-.007-.028-.015-.027-.014-.036-.007-.043-.015v-.029l-.007-.079-.008-.122-.007-.152-.008-.181.014-.397.02-.208.043-.194.058-.188zm1.163-.39.08.014.078.029.073.038.065.043.058.043-.101.094-.1.108-.088.102-.093.113-.08.116-.08.123-.072.123-.065.13-.064.137-.116.29-.05.151-.043.159-.044.159-.042.166-.037.173-.086-.014-.065-.007-.046-.015-.027-.014-.029-.007-.029-.014-.029-.008-.043-.014.094-.471.1-.398.101-.34.1-.281.103-.226.1-.181.101-.132.094-.094.101-.065.087-.03z" stroke-width=".04790694"/>
      <path d="m7.517 12.943.16-.08.165-.03.166.03.16.094.165.166-.13.094-.122.108-.116.108-.108.11-.108.112-.094.132-.087.132-.079.13-.08.145-.064.145-.066.151-.05.159-.05.166-.036.173-.038.181-.03.188-.078-.022-.087-.028-.094-.03-.094-.035-.087-.038-.079-.03-.065-.028-.043-.014.021-.173.037-.195.058-.217.071-.231.095-.239.107-.231.114-.224.13-.207.137-.188.144-.16z" stroke-width=".04790694"/>
      <path d="m7.475 14.093-.108.23-.094.247-.072.26-.057.26-.03.267.174.044.087.028.087.03.094.037.094.021.086.03.094.014.065-.166.058-.181.072-.18.066-.181.071-.188.08-.189.08-.18.079-.173.086-.167.094-.152.1-.144.102-.123.113-.108.116-.087.123-.065.132-.038-.174-.115-.173-.065-.18-.022-.174.022-.181.057-.174.095-.166.132-.159.152-.143.173-.145.202z" stroke-width=".04790694"/>
      <path d="m8.248 14.49-.086.23-.086.24-.08.24-.086.223-.094.21.08.007.072.022.072.02.072.03.072.022.072.028.08.022.08.014.006-.029.008-.072.021-.094.022-.132.038-.151.05-.174.058-.188.08-.195.092-.195.109-.195.137-.195.151-.181.181-.173.202-.145.232-.13.26-.095-.275-.122-.246-.065-.217-.007-.195.037-.173.079-.152.123-.137.152-.122.18-.109.202-.093.224z" stroke-width=".04790694"/>
      <path d="m8.92 14.388-.152.253-.13.267-.1.29-.065.295-.038.318.745.195.043-.123.057-.145.058-.152.072-.166.087-.173.088-.18.1-.182.11-.18.122-.18.137-.174.144-.158.152-.153.165-.137.181-.116.188-.101.202-.08-.167-.122-.188-.079-.201-.029-.203.008-.216.043-.217.086-.207.116-.208.145-.202.18-.188.203z" stroke-width=".04790694"/>
      <path d="m10.365 15.947.08-.188.08-.195.078-.195.087-.188.094-.188.093-.188.101-.173.108-.16.116-.15.123-.138.122-.123.138-.101.151-.08.152-.058-.13-.086-.145-.065-.152-.044-.166-.014-.173.015-.181.043-.18.072-.188.109-.188.137-.188.173-.187.217-.18.246-.174.29-.173.324-.159.376-.151.412.108.021.137.03.138.043.152.043.144.05.138.036.122.038.101.029.072-.18z" stroke-width=".04790694"/>
      <path d="m10.712 15.196-.1.252-.102.246-.094.238-.086.217-.086.195.1.015.087.02.08.016.158.043.087.022.094.014.108.022.094-.195.087-.196.086-.187.087-.18.087-.182.093-.166.094-.165.094-.152.108-.153.113-.136.116-.13.13-.123.145-.116.15-.101.174-.094.18-.087-.295-.159-.267-.094-.246-.021-.224.037-.195.086-.188.132-.158.167-.152.202-.132.224-.122.238z" stroke-width=".04790694"/>
      <path d="m11.485 15.433-.123.239-.113.238-.101.217-.086.21-.08.18.108.021.094.022.087.022.08.014.086.022.087.021.1.015.116.021.132-.289.13-.267.122-.245.123-.227.116-.201.108-.182.221-.31.115-.123.116-.108.113-.094.123-.08.123-.058.13-.05.137-.03.145-.02-.268-.145-.253-.072-.238-.014-.231.037-.208.087-.202.132-.188.16-.173.188-.159.216-.152.222z" stroke-width=".04790694"/>
      <path d="m12.229 15.64-.116.224-.113.226-.094.217-.086.195-.08.181.087.021.08.022.08.014.072.022.079.015.079.014.087.021.093.015.044-.145.064-.159.08-.159.093-.173.101-.174.245-.347.138-.173.144-.159.152-.16.15-.142.151-.123.16-.116.15-.093.152-.073.152-.043-.26-.123-.246-.058h-.23l-.227.045-.202.086-.19.121-.181.16-.174.18-.15.202-.145.217z" stroke-width=".04790694"/>
      <path d="m12.764 16.06-.122.224-.102.196-.08.165-.043.123-.02.073.107.021.094.022.282.065.087.014.094.014.094.015.065-.123.072-.152.087-.166.1-.174.108-.195.116-.195.122-.188.132-.195.137-.18.145-.167.151-.151.152-.123.159-.102.159-.065.165-.028.167.006-.268-.143-.26-.065-.26.007-.245.073-.239.115-.23.166-.218.196-.201.216-.188.232-.166.239z" stroke-width=".04790694"/>
      <path d="m13.68 16.031-.129.231-.207.42-.08.173-.072.144.087.015.072.021.065.022.058.021.065.022.058.022.058.014.065.014.064-.18.08-.18.08-.174.086-.173.101-.174.1-.159.116-.159.123-.152.132-.144.144-.132.144-.116.159-.108.173-.095.174-.079.188-.058.202-.043-.243-.157-.23-.087-.217-.022-.217.038-.202.087-.195.13-.18.16-.173.194-.16.21-.151.224z" stroke-width=".04790694"/>
      <path d="m14.381 15.908-.158.21-.152.23-.132.253-.132.268-.107.283.094.014.093.015.094.021.094.03.094.021.094.03.094.02.094.015.064-.16.065-.165.066-.16.064-.166.08-.158.078-.152.095-.159.1-.144.123-.138.13-.137.152-.123.166-.116.188-.101.207-.094.238-.08.26-.065-.21-.08-.207-.05-.217-.014-.202.015-.208.044-.195.064-.195.102-.195.123-.18.144-.173.174z" stroke-width=".04790694"/>
      <path d="m15.11 16.059-.158.216-.144.239-.123.252-.113.26-.1.284.086.014.087.014.296.044.101.014.202.028.051-.202.072-.187.08-.188.1-.181.109-.166.122-.16.132-.15.145-.138.158-.132.173-.109.18-.102.189-.086.202-.065.21-.058.216-.038.224-.015-.275-.113-.275-.075-.253-.038-.252-.007-.239.038-.231.065-.216.094-.21.123-.187.152-.188.173z" stroke-width=".04790694"/>
      <path d="m15.79 16.297-.151.195-.132.217-.113.23-.095.253-.071.268.087.007.072.007.072.015.072.014.072.014.073.015.086.021.094.015.123-.208.115-.202.1-.18.095-.181.101-.16.094-.15.094-.146.108-.132.115-.122.13-.109.145-.1.159-.095.187-.08.202-.072.238-.065.267-.058-.245-.038-.238-.021-.238.007-.232.03-.23.057-.217.073-.208.094-.202.115-.188.138-.18.159z" stroke-width=".04790694"/>
      <path d="m16.513 16.47-.152.207-.137.217-.13.231-.115.231-.116.239.058.007.08.007.086.021.095.015.093.021.087.022.08.007.065.007.107-.216.116-.196.132-.187.137-.174.144-.166.152-.152.166-.137.174-.132.18-.116.188-.108.195-.094.202-.094.207-.08.217-.072.226-.065.23-.057-.36-.086-.34-.05-.31-.015-.29.03-.266.057-.246.087-.224.108-.202.145-.194.159-.173.181z" stroke-width=".04790694"/>
      <path d="m17.409 16.534-.217.195-.195.217-.18.231-.159.253-.137.275.101.007.1.014.102.022.101.022.087.02.073.023.058.007.037-.007.145-.087.144-.101.152-.116.159-.132.159-.137.165-.145.174-.145.173-.151.18-.152.18-.152.189-.151.188-.138.194-.138.188-.123.202-.116.195-.1-.202-.039-.21-.007-.231.008-.238.036-.24.05-.244.073-.246.094-.245.116-.246.137-.23.16z" stroke-width=".04790694"/>
      <path d="m18.463 16.8-.253.224-.26.227-.26.21-.259.195-.26.173.08.014.094.007.115.008.116.007.122.007h.325l.196-.145.377-.302.173-.159.173-.152.167-.152.166-.151.166-.145.173-.13.166-.122.174-.11.18-.093.188-.08.195-.065.202-.036.208-.022-.18-.18-.196-.108-.202-.044-.208.015-.216.058-.232.108-.23.146-.246.166-.498.411z" stroke-width=".04790694"/>
      <path d="m19.012 17.074-.21.188-.418.362-.224.159-.223.152.071.007.094.014.11.015.108.006.108.016.094.013.072.008.043.007h.13l.132-.038.137-.066.144-.093.145-.116.159-.137.52-.478.194-.173.207-.166.217-.16.238-.152.246-.137.26-.123.282-.094-.302-.072-.282-.029-.267.015-.253.051-.238.087-.231.108-.224.138-.216.151-.415.348z" stroke-width=".04790694"/>
      <path d="m19.612 17.457-.217.187-.195.16-.18.122-.159.072-.137.022.113.015.124.021.136.022.145.022.144.014.145.022.137.007.123.007.202-.152.18-.145.166-.144.159-.137.144-.138.137-.137.145-.13.137-.123.137-.116.152-.108.158-.102.174-.093.188-.087.201-.072.232-.066.252-.058-.267-.151-.282-.065h-.274l-.283.059-.282.108-.282.152-.274.18-.267.196-.253.217-.245.217zM4.867 12.433l.007-.086.006-.087.015-.086.022-.087.021-.08-.113.152-.087.166-.065.16-.038.165-.014.174v.173l.022.173.036.174.043.173.057.166.13.332.072.16.065.158.066.144.064.145-.014-.029-.007-.05-.008-.05v-.066l-.007-.08v-.259l-.007-.095V13.9l-.008-.101-.007-.094-.008-.087-.014-.087-.014-.079-.022-.072-.036-.072-.03-.08-.028-.08-.022-.079-.022-.086-.021-.094-.015-.087-.008-.094-.007-.087-.006-.094z" stroke-width=".04790694"/>
      <path d="m4.226 15.525.123-.072.115-.073.123-.064.13-.072.132-.072-.113.113-.116.116-.116.113-.115.109-.123.113-.123.101-.122.102-.13.094-.123.087-.132.072-.122.065-.13.05-.132.044-.13.022-.13.007-.132-.007.137-.079.138-.087.26-.159.122-.072.123-.08.116-.072.113-.08.123-.072.115-.072zm.627-1.256.065.086.073.08.065.086.065.087.065.087-.029-.094-.036-.094-.038-.101-.087-.202-.05-.095-.056-.093-.066-.094-.072-.087-.086-.071-.094-.073-.102-.065-.115-.05-.123-.044-.144-.029-.152-.014.1.058.095.065.094.065.173.13.08.072.08.079.079.072.145.16z" stroke-width=".04790694"/>
      <path d="m5.236 14.095.044.264.021.132.029.132.03.137.014-.159.02-.152.03-.317.007-.152.007-.152-.007-.152-.008-.144-.014-.145-.022-.13-.037-.131-.043-.123-.05-.108-.073-.101-.08-.087-.094-.08.03.145.02.145.03.144.022.132.014.137.022.132.015.132.022.132.014.13.022.132zm-.643-.08.123.132.116.132.1.108.088.102.072.079-.015-.216-.029-.188-.038-.16-.058-.143-.057-.123-.073-.108-.072-.101-.08-.094-.072-.094-.08-.094-.072-.101-.058-.116-.058-.13-.043-.144-.037-.173-.014-.195-.13.122-.079.138-.038.144-.007.152.029.152.058.159.08.159.094.158.108.152.113.151z" stroke-width=".04790694"/>
      <path d="m5.314 13.17.029-.132.036-.132.051-.132.043-.132.058-.132-.208.202-.173.195-.123.181-.086.174-.058.166-.028.152-.007.152.014.137L4.9 14l.035.122.051.116.051.1.043.102.043.087.03.087.014.072v-.152l.007-.144.007-.144.007-.145.007-.138.015-.137.014-.137.014-.13.022-.13.022-.137zm-1.01 2.088.223-.015.332-.043-.094.043-.094.038-.1.044-.102.038-.108.037-.222.057-.113.015-.116.007h-.123l-.122-.007-.124-.029-.122-.037-.123-.051-.123-.072-.123-.087.116.022.116.022.23.028.114.007.116.007h.222l.116-.007h.108z" stroke-width=".04790694"/>
      <path d="m2.81 16.14-.072.051-.064.058-.058.058-.058.057-.05.065.05-.173.08-.152.093-.13.116-.122.13-.101.144-.095.159-.079.166-.065.348-.117.18-.044.181-.043.18-.037.174-.038.159-.029.159-.036-.08.029-.108.057-.132.088-.158.093-.159.101-.166.095-.159.086-.145.058-.086.015-.08.014-.086.022-.086.022-.087.036-.086.029-.08.036-.086.043-.08.044-.079.05zm1.56-.535.167-.087.151-.08.145-.072.122-.065.094-.057-.1.21-.102.174-.108.137-.101.123-.109.094-.108.087-.324.195-.11.072-.107.073-.101.087-.102.106-.1.132-.094.152-.094.187-.065-.166-.023-.159.022-.158.058-.145.086-.137.116-.137.137-.132.152-.116.159-.116.166-.101z" stroke-width=".04790694"/>
      <path d="m4.486 16.609-.043.122-.038.132-.036.123-.029.132-.028.138-.073-.275-.038-.238-.007-.217.022-.188.043-.159.065-.144.079-.123.086-.101.102-.095.1-.079.109-.065.101-.058.094-.057.087-.05.12-.11-.079.123-.08.123-.078.123-.072.115-.065.116-.065.123-.066.116-.057.115-.057.123-.05.123z" stroke-width=".04790694"/>
    </g>
  </g>
  <g stroke="#231f20">
    <path d="M31.864 18.98c-2.558-.353-11.998-.83-16.21-1.52-3.387-.553-6.696-1.562-9.853-2.62-.817-.275-2.264-.837-3.187-1.334-.585-.448-1.994-1.113-2.378-1.74 6.12 2.906 8.585 3.707 15.765 5.16 2.911.597 13.508 1.456 15.863 2.055z" fill="#231f20" stroke-width=".11241156"/>
    <g stroke-width=".254">
      <path d="m187.203 275.945-1.035-1.148-.958-.957-.88-.763-.767-.5-.7-.227 1.188.074.7.077.688.074 1.38.155.7.038.612.076.957.88.92.84.805.842.73.844.727.8 1.34 1.568 1.38 1.455.73.65.767.65.88.6.92.577 1.035.535 1.15.496 1.302.42-1.454.498-1.418.118-1.417-.23-1.417-.574-1.38-.765-1.38-.995-1.305-1.145-1.3-1.226-1.227-1.26-1.15-1.267z" fill="url(#b)" transform="translate(-15.247 -33.462) scale(.18861)"/>
      <path d="m192.873 277.815-.92-1.032-.956-1.033-.96-1.033-.958-.955-.995-.88.38.037h.423l.384.04.842.074.42.078.42.036.42.04.42.037.46.037.422.078 1.378.1h.46l.46.04.346.535.42.652.537.764.576.805.7.88.73.88.766.918.805.88.844.844.84.804.885.726.842.612.844.496.842.346.804.2h.768l-1.688.27-1.57.038-1.455-.15-1.377-.345-1.265-.534-1.15-.653-1.15-.765-1.034-.88-1.035-.918-.957-.995z" fill="url(#c)" transform="translate(-15.247 -33.462) scale(.18861)"/>
      <path d="M199.92 279.993 199 279l-.958-1.188-.997-1.3-1.034-1.416-1.074-1.608.65-.002.613.04.614.077.613.076.6.078.613.072h1.415l.617.612.573.65.576.614.574.688.575.65.536.7.576.65.54.7.572.65.574.65.613.65.577.614 1.953 1.72.73.5-.958.116-.92.076-.88-.037-.88-.153-.882-.2-.843-.344-.84-.42-.883-.574-.88-.65-.882-.764z" fill="url(#d)" transform="translate(-15.247 -33.462) scale(.18861)"/>
      <path d="m203.787 277.96-.805-.957-.767-.957-.73-.84-.7-.728-.614-.614 4.098.382.462.612.498.6.458.616.46.608.46.615.5.612.46.612.497.613.537.573.537.6.537.578.613.57.612.574.653.576.7.536.727.532-.727.387-.802.153-.806-.116-.842-.342-.844-.5-.88-.7-.88-.764-.884-.917-.84-.958-.884-.993z" fill="url(#e)" transform="translate(-15.247 -33.462) scale(.18861)"/>
      <path d="m208.653 279.793-.883-1.03-.843-1.1-.844-1.146-.805-1.15-.804-1.1.688.115.536.037.384.038.688.078.345-.001.5.037.652.037.728 1.034.727.955.728.92.805.804.767.726.766.7.804.6.767.536.766.458.768.42.726.306.7.268.7.23.614.152.613.075.537.038-1.2.767-1.1.5-1.1.232h-1.075l-1.033-.192-.995-.343-.955-.538-.96-.686-.92-.84-.923-.88z" fill="url(#f)" transform="translate(-15.247 -33.462) scale(.18861)"/>
      <path d="m212.097 279.104-.803-.803-.766-.842-.73-.918-.73-.96-.7-.994.767.04.843.074.802.076.806.038.7.078.574.035.42.04.192.037.076.078.2.2.308.306.382.385.422.46.536.536.577.573.648.615.732.608.763.65.768.616.843.6.88.572.88.535.92.46.92.38-1.227.153-1.186.08-1.15-.078-1.1-.15-1.036-.227-1.033-.344-.958-.422-.92-.535-.92-.573-.844-.65z" fill="url(#g)" transform="translate(-15.247 -33.462) scale(.18861)"/>
      <path d="m217.192 278.87-.844-.766-.806-.803-.766-.765-.7-.767-.65-.766h.46l.574.04.6.036h.65l.614.073.613.04.496.04.423.076v.077l.154.2.38.347.537.42.653.535.763.613.845.653.882.647.92.687.918.7.88.65.845.575.766.535.7.42.537.304.382.192-1.033.192-.998.076-1.033-.113-1.034-.2-1.035-.342-.994-.423-.996-.497-.998-.6-.92-.65-.918-.7z" fill="url(#h)" transform="translate(-15.247 -33.462) scale(.18861)"/>
      <path d="m220.906 277.988-1-.843-.88-.688-.65-.574-.423-.38-.192-.154.498.038.538.036.574.037.572.04.615.072 1.224.08.653.038.688.42.688.422.693.456.65.425.7.456.653.498.688.46.653.46 1.35.956.688.46.652.458 1.38.843.652.42.7.384-.612.612-.806.267-.996.001-1.1-.266-1.227-.46-1.26-.646-1.34-.768-1.305-.84-1.302-.92-1.226-.916z" fill="url(#i)" transform="translate(-15.247 -33.462) scale(.18861)"/>
      <path d="m228.947 280-1.072-.728-1.187-.803-1.264-.88-1.38-.918-1.534-.957.653.04.727.04.65-.001.65.038.575.037.46.038.306.04.116.036.078.115.23.23.346.307.458.42.574.497.653.577.7.57 1.6 1.225.843.612.843.534.882.537.84.457.842.383.805.267.73.154-.652.23-.65.116-.65.037-.653-.1-.65-.194-.7-.265-.727-.382-.767-.46-.843-.535-.88-.613z" fill="url(#j)" transform="translate(-15.247 -33.462) scale(.18861)"/>
      <path d="m229.1 278.326-.728-.7-.653-.573-.495-.5-.383-.34-.233-.233.614.038.577.04.57.037.575.075.535.04.578.037.6.074.613.038.46.42.5.42.458.42.5.46.498.498.497.46.536.46.54.458 1.07.844.577.38.534.343.614.3.575.265.613.194.613.152-.88.344-.958.152-.998-.072-1.033-.268-1.072-.382-1.033-.498-1.075-.6-.996-.7-.958-.7-.92-.727z" fill="url(#k)" transform="translate(-15.247 -33.462) scale(.18861)"/>
      <path d="m234.883 279.545-1.455-1.3-.7-.7-.7-.65-.7-.615.422.04.46.076 1.032.076.576.075.612.04.652.074.613.037.192.46.267.46.27.422.346.422.38.382.844.763.497.306.5.307.537.268.573.268.576.2.612.154.6.15.653.076.65.04-.764.535-.763.345-.766.154-.767.04-.768-.15-.765-.233-.766-.342-.765-.458-.73-.498-.766-.612z" fill="url(#l)" transform="translate(-15.247 -33.462) scale(.18861)"/>
      <path d="m238.023 279.62-.614-.495-.536-.538-.46-.572-.345-.652-.23-.652.46.04.46.037.497.076.995.076.537.038.574.04.653.036.268.384.307.383.306.345.305.306.307.305.347.23.343.27.347.23.38.2.842.4.46.155.46.152.496.152.537.115.54.155-.653.265-.7.194-.726.115-.805.001-.767-.038-.842-.115-.804-.23-.803-.228-.768-.344-.728-.384z" fill="url(#m)" transform="translate(-15.247 -33.462) scale(.18861)"/>
      <path d="m242.197 279.273-.537-.384-.537-.42-.458-.46-.345-.46-.306-.498.65.078.383.038.346.037.65.076h.536v.154l.344.304.576.422.767.498 1.838.995.92.38.806.23-.23.23-.347.152-.42.08h-.46l-.536-.038-.573-.113-.614-.193-.612-.2-.613-.27-.614-.307z" fill="url(#n)" transform="translate(-15.247 -33.462) scale(.18861)"/>
      <path d="m243.92 278.393-.46-.347-.42-.307-.307-.23-.2-.153-.038-.076 2.986.34.23.152.386.193.458.23.5.23.535.268.497.2.46.192.383.114-.078.537-.192.343-.305.156-.42.076-.5-.075-.574-.193-.573-.228-.614-.306-.614-.346-.574-.38z" fill="url(#o)" transform="translate(-15.247 -33.462) scale(.18861)"/>
      <path d="m249.32 279.114-.537.001-.7-.2-.7-.347-.728-.382-.652-.344-.536-.23.652.04.574.04.536.036.498.037.46.04.497.037.498.077.577.114-.117.73z" fill="url(#p)" transform="translate(-15.247 -33.462) scale(.18861)"/>
      <path d="m249.55 276.74-.537-.192-.727-.034-.765.15-.766.193-.65.23-.5.154.653.112.573.077.497.114.5.075.458.114.46.116.537.116.574.153.04-.844z" fill="url(#q)" transform="translate(-15.247 -33.462) scale(.18861)"/>
      <path d="m191.142 265.45-1.075.996-1.07.957-1.07.92-1.073.882-1.1.807.384.073.42.038.42.04.383.076.422.04.42.038.46.037.42.04.422.035.46.04.458.076.883.077.457.074.498.037.46.078.382-.535.495-.653.576-.766.688-.767.727-.843.805-.843.88-.843.88-.806.96-.766.954-.687.957-.615.997-.497.957-.385.958-.23.956-.04.88.153-1.684-.652-1.6-.42-1.5-.113-1.417.076-1.38.3-1.262.46-1.227.652-1.186.73-1.15.844-1.1.92z" fill="url(#r)" transform="translate(-15.247 -33.462) scale(.18861)"/>
      <path d="m198.453 264.523-1.033.96-1.108 1.1-1.1 1.265-1.185 1.418-1.264 1.57.7.04.612.072.576.04 1.07.152.573.077.654.113.764.117.7-.574.65-.613.7-.654.612-.653 1.3-1.3.613-.653.65-.652.652-.612.687-.574.652-.576.688-.575.727-.498.766-.422.766-.42.805-.347-.96-.345-.92-.226-.878-.153-.923-.077-.878.077-.92.193-.88.267-.92.423-.956.537-.96.692z" fill="url(#s)" transform="translate(-15.247 -33.462) scale(.18861)"/>
      <path d="m201.712 267.5-.92.958-.84.88-.84.804-.73.692-.7.574 4.176.496.536-.613.536-.615.5-.614.533-.6.537-.613.534-.652.573-.614.535-.576.614-.574.612-.574.652-.538.688-.498.727-.497.766-.423.804-.382.842-.346-.726-.612-.808-.306-.88-.074-.88.2-.958.383-.956.538-.995.688-.996.805-.996.88-.993.92z" fill="url(#t)" transform="translate(-15.247 -33.462) scale(.18861)"/>
      <path d="m206.65 266.5-1.877 2.03-2.753 3.333.73.04.6.035.498.04.46.076.458.077.5.075.572.078.692.112.803-1.034.765-.92.803-.844.766-.727.8-.612.766-.54.728-.46.767-.382.728-.3.688-.23.728-.193.7-.152.65-.08.653-.074h.65l.613-.002-1.15-1.112-1.1-.8-1.073-.535-1.073-.306-1.072-.037-1.034.154-1.033.385-.996.498-.994.7-.956.804z" fill="url(#u)" transform="translate(-15.247 -33.462) scale(.18861)"/>
      <path d="m210.786 268.113-.878.7-.882.767-.84.842-.806.922-.803.996.803.115.92.112 1.842.23.84.113.65.08.5.037.2-.002.075-.076.193-.153.268-.267.343-.346.423-.42.495-.424.575-.496.65-.538.727-.5.765-.536.844-.5.918-.495.92-.424.993-.383 1.034-.348 1.073-.228-1.266-.46-1.187-.344-1.187-.2-1.1-.077h-1.1l-1.072.155-1.035.23-.996.347-.995.42-.92.537z" fill="url(#v)" transform="translate(-15.247 -33.462) scale(.18861)"/>
      <path d="m216.57 269.526-.994.652-.882.693-.88.727-.8.727-.726.73.495.037.613.076.7.075 1.456.153.652.076.574.037h.422v-.077l.192-.192.38-.267.574-.385.7-.42.805-.5.92-.537.956-.533.955-.54.996-.538 1.914-.954.846-.386.762-.307.616-.193.495-.116-1.034-.418-1.035-.306-1.1-.115-1.073.001-1.1.118-1.1.228-1.072.346-1.1.422-1.033.498-1.034.537z" fill="url(#w)" transform="translate(-15.247 -33.462) scale(.18861)"/>
      <path d="m220.593 271.287-1.15.727-.954.615-.73.46-.496.342-.23.117.537.116.6.077.653.073.7.04.727.078.73.074 1.377.23.73-.345.687-.348.73-.38.687-.385.7-.345.688-.383.728-.384.688-.382.7-.35.687-.382.73-.343.688-.307.7-.347.726-.305.727-.3.728-.266-.537-.842-.804-.498-.996-.187h-1.148l-1.264.267-1.38.422-1.455.576-1.415.652-1.455.73-1.34.766z" fill="url(#x)" transform="translate(-15.247 -33.462) scale(.18861)"/>
      <path d="m229.172 272.62-.804.536-.726.5-.575.46-.42.306-.23.193.612.074.574.078.496.076.5.037.536.037.496.076.576.076.6.075.537-.342.537-.348.574-.42.574-.383.6-.42.614-.42.612-.423 1.226-.767.648-.307.652-.305.614-.233.648-.2.615-.117h.612l.612.037-.844-.6-.956-.346-.996-.15h-1.07l-1.114.2-1.148.348-1.1.42-1.1.5-2.067 1.15z" fill="url(#y)" transform="translate(-15.247 -33.462) scale(.18861)"/>
      <path d="m229.285 270.666-1.147.614-1.265.65-1.378.692-1.5.765-1.65.767.614.04.7.074.7.078.7.112.613.078.457.078.346.035.153-.035.076-.08.27-.2.345-.3.46-.344.573-.422.7-.46.728-.5.803-.5.88-.498.882-.497.955-.424.957-.384.96-.304.957-.196.92-.112.92-.001-.654-.422-.687-.305-.653-.154-.688-.075-.7.038-.727.152-.807.27-.838.308-.92.423-.96.46z" fill="url(#z)" transform="translate(-15.247 -33.462) scale(.18861)"/>
      <path d="m234.955 272.384-.843.54-.842.536-.803.574-.805.578-.803.496.46.077.498.038.575.116.613.072.65.08.7.073.65.08.653.075.23-.497.27-.422.304-.422.384-.383.383-.344.42-.27.5-.27.497-.23.536-.2.572-.155.576-.114.613-.08.65-.037.652.001 1.34.15-.7-.766-.726-.574-.73-.382-.766-.23-.766-.037-.804.076-.844.192-.804.27-.84.422-.805.42z" fill="url(#A)" transform="translate(-15.247 -33.462) scale(.18861)"/>
      <path d="m242.46 274.408-.6.27-.577.307-.534.383-.422.422-.38.46.342.076.422.076.42.077.423.074.382.037.307.04h.306l.153-.078.38-.23.653-.306.765-.343.88-.3.995-.268.957-.155.96.037-.193-.306-.306-.268-.422-.227-.46-.155-.536-.114-.612-.036-.613.001-.7.037-.65.114-.7.156z" fill="url(#B)" transform="translate(-15.247 -33.462) scale(.18861)"/>
      <path d="m244.1 275.863-.535.23-.46.23-.383.155-.2.152-.078.036 3.065.533.27-.112.42-.117.46-.154.537-.154.536-.115.535-.074.498-.001.422.074.036-.6-.152-.46-.27-.307-.42-.2-.497-.08-.575.04-.613.077-.7.154-.65.23-.65.232z" fill="url(#C)" transform="translate(-15.247 -33.462) scale(.18861)"/>
      <path d="m238.248 273.072-.7.383-.65.46-.536.535-.42.613-.344.7.5.04.457.077.5.036.537.076.535.08.574.037.612.115.65.072.23-.34.268-.307.306-.268.343-.27.383-.23.42-.23.423-.193.46-.15.46-.154.497-.116.46-.076.5-.04.497-.037.496-.001.5.038.46.075-.612-.498-.652-.382-.728-.342-.805-.232-.806-.153-.802-.1-.844.001-.84.072-.804.156-.803.27z" fill="url(#D)" transform="translate(-15.247 -33.462) scale(.18861)"/>
      <path d="m107.77 263.37.193.842.422.768.65.686.92.535 1.2.384-.194-.578-.117-.6-.113-.612-.076-.7-.04-.7v-.725l.038-.7.037-.728.076-.73.074-.724.116-.7.153-.65.113-.652.154-.575.2-.574.155-.498-.2-.075-.155-.04-.2-.076-.156-.037-.154-.077-.15-.04-.192-.078-.2-.076-.077.117-.193.307-.266.497-.344.613-.386.727-.38.805-.346.92-.303.918-.227.96-.08.92z" fill="url(#E)" transform="translate(-15.247 -33.462) scale(.18861)"/>
      <path d="m112.907 268.804.495.266.54.192.46.076.42.037h.384l-.46-1.226-.192-.688-.155-.7-.152-.766-.118-.764-.116-.766-.075-.803-.042-.806v-.843l.04-.803.073-.843.114-.804.155-.843.2-.765.23-.805-.457-.154-.463-.152-.422-.153-.417-.115-.348-.113-.38-.116-.306-.076-.27-.077-.534 2.108-.382 1.915-.2 1.646-.037 1.455.077 1.264.23 1.072.306.92.347.764.46.613.497.496z" fill="url(#F)" transform="translate(-15.247 -33.462) scale(.18861)"/>
      <path d="m115.437 269.566.572.766.73.574.84.304.96.04 1.108-.307-.42-.7-.42-.727-.347-.765-.307-.727-.23-.803-.232-.767-.152-.805-.154-.804-.077-.804-.038-.84v-.805l.073-.842.076-.84.152-.806.153-.845.23-.802-.383-.153-.92-.305-.46-.154-.46-.15-.38-.153-.346-.118-.267-.074-.23.765-.227.96-.155 1.073-.072 1.186-.04 1.302.002 1.3.116 1.3.192 1.266.272 1.187.345 1.1z" fill="url(#G)" transform="translate(-15.247 -33.462) scale(.18861)"/>
      <path d="m117.422 264.587-.078-1.302-.001-1.3.114-1.302.23-1.265.342-1.188.422.152.425.154.456.114.463.153.458.154.497.153.46.153.497.152v.804l.001.88.04 1 .078 2.066.038 1.072.116 1.1.114 1.032.156 1.035.152.957.234.92.267.806.308.686.384.577.42.42.46.267-1.037.08-.997-.154-.88-.38-.804-.535-.766-.73-.652-.88-.536-.994-.5-1.1-.384-1.188-.3-1.265z" fill="url(#H)" transform="translate(-15.247 -33.462) scale(.18861)"/>
      <path d="m124.85 262.014.04.92.038.958.002 2 .08 2.03.076.997.115.994.194.92.2.844.305.802.345.726.422.617.536.496-1.108-.268-.92-.383-.767-.533-.65-.614-.537-.73-.423-.84-.306-.92-.232-.96-.156-1.072-.113-1.1-.08-2.375-.076-2.488-.001-1.264-.078-1.303.384.153.383.115.342.115.386.077.382.114.347.114.384.116.38.153.078.766z" fill="url(#I)" transform="translate(-15.247 -33.462) scale(.18861)"/>
      <path d="m124.93 266.418-.003-3.8-.076-1.15-.08-1.072.42.114.383.114.343.117.387.113.382.114.342.115.384.077.423.114-.04.113-.075.27-.078.423-.115.537-.074.687-.078.768-.04.88.04.996.114 1.035.195 1.145.347 1.2.42 1.225.614 1.264.766 1.34.92 1.3 1.15 1.34-1.53-.074-1.304-.305-1.07-.497-.882-.65-.7-.842-.502-.958-.42-1.072-.27-1.187-.154-1.226-.114-1.26z" fill="url(#J)" transform="translate(-15.247 -33.462) scale(.18861)"/>
      <path d="m127.88 268.712-.3-1.5-.192-1.496-.04-1.532.152-1.454.308-1.456 3.638 1.147-.038.613-.037.728.038.8.08.92.113.958.192 1.034.193 1.073.307 1.1.347 1.1.42 1.074.46 1.07.575 1.035.612.995.73.92.804.84.883.726-1.035.192-1.035-.073-.995-.346-.996-.537-.956-.725-.92-.88-.844-1.07-.77-1.187-.65-1.265-.576-1.378z" fill="url(#K)" transform="translate(-15.247 -33.462) scale(.18861)"/>
      <path d="m137.263 265.87.075.96.038.995.117.995.077 1.037.116.995.153.996.2.956.233.92.308.916.344.84.422.807.498.688.536.65.65.576-.766.114-.803-.038-.804-.2-.804-.343-.804-.5-.807-.612-.767-.763-.766-.958-.7-1.034-.612-1.227-.578-1.34-.495-1.528-.388-1.65-.306-1.758-.194-1.955-.078-2.067.574.2.728.2.807.268.84.228.805.27.804.227.7.2.538.115.076.88z" fill="url(#L)" transform="translate(-15.247 -33.462) scale(.18861)"/>
      <path d="m137.57 269.895-.117-1.302-.038-1.303-.078-1.187-.075-1.1-.117-.995.535.114.463.116.42.153.417.112.463.117.422.112.496.154.577.15.116 1.038.112.993.116.996.157.955.116.96.153.918.2.88.195.88.268.844.308.84.382.805.422.805.536.8.576.767.7.727.77.726-1.725.08-1.455-.154-1.264-.418-.998-.654-.84-.8-.692-.958-.497-1.073-.385-1.223-.308-1.225-.2-1.343z" fill="url(#M)" transform="translate(-15.247 -33.462) scale(.18861)"/>
      <path d="m141.707 270.77-.194-1.3-.2-1.226-.116-1.15-.116-1.074-.08-.918.54.117.46.112.42.115.423.077.38.114.425.074.495.152.577.115.192 1.497.23 1.417.27 1.3.27 1.226.3 1.1.345 1.072.383.92.383.882.383.803.425.727.46.613.422.573.46.536.46.42.498.383.46.345-1.532.078-1.34-.192-1.188-.418-1.036-.65-.88-.805-.765-.957-.616-1.107-.537-1.188-.458-1.226-.346-1.3z" fill="url(#N)" transform="translate(-15.247 -33.462) scale(.18861)"/>
      <path d="m145.767 271.572-.308-1.26-.27-1.2-.192-1.15-.152-1.032-.156-.92.46.076.46.116.462.114.922.23.458.112.46.114.497.117.038.725.117.805.153.842.268.918.27.996.382.957.385 1.033.42.998.5.996.538.957.534.88.577.84.574.805.614.7.65.572.617.46-1.457.078-1.302-.2-1.15-.424-1.07-.6-.88-.802-.805-.92-.7-1.072-.615-1.146-.535-1.2-.422-1.263z" fill="url(#O)" transform="translate(-15.247 -33.462) scale(.18861)"/>
      <path d="m149.327 271.147-.384-1.26-.23-1.074-.192-.88-.115-.65-.001-.38.574.112.537.115.535.152.536.116.536.152.5.113.497.115.5.08.192.65.43 1.643.272.997.308 1.035.342 1.07.384 1.07.424 1.115.46 1.07.497.995.537.96.574.842.654.724.65.575.728.42.764.23-1.5.193-1.38-.2-1.264-.496-1.15-.766-1.073-.955-.92-1.148-.84-1.3-.77-1.34-.614-1.415-.537-1.38z" fill="url(#P)" transform="translate(-15.247 -33.462) scale(.18861)"/>
      <path d="m154.077 272.983-.385-1.226-.306-1.148-.232-1.035-.23-.918-.2-.726.42.076.423.038.38.075.347.076.384.076.345.08.305.074.345.04.118.88.2.92.233.917.227.882.3.918.346.88.382.844.92 1.684.537.803.616.765.6.7.73.7.727.6.806.574.88.536-1.377.306-1.223.001-1.113-.266-1.035-.536-.88-.728-.805-.88-.727-1.068-.652-1.15-.54-1.225-.498-1.26z" fill="url(#Q)" transform="translate(-15.247 -33.462) scale(.18861)"/>
      <path d="m157.678 275.047-.574-1.186-.46-1.263-.385-1.34-.347-1.38-.23-1.414.498.113.5.076.536.116.496.074.497.078.46.112.5.077.46.116.23.804.192.842.23.805.195.802.23.804.228.804.306.766.346.803.42.767.463.803.576.765.687.766.768.728.918.765 1.073.766 1.188.725-1.148.002-1.112-.115-1.07-.268-1.037-.383-.957-.534-.958-.65-.842-.763-.84-.842-.73-.96-.7-1.032z" fill="url(#R)" transform="translate(-15.247 -33.462) scale(.18861)"/>
      <path d="m161.774 275.887-.573-1.222-.496-1.304-.425-1.34-.306-1.376-.234-1.38.423.076.46.117.917.15.46.08.5.114.497.076.5.115.152.955.23.957.3.96.383.917.457.918.502.918.574.882.65.843.7.844.767.76.808.727.878.7.92.612.995.575.998.497 1.072.42-1.495.118-1.454-.076-1.34-.23-1.266-.38-1.186-.498-1.113-.65-1.033-.768-.918-.917-.844-.955-.766-1.073z" fill="url(#S)" transform="translate(-15.247 -33.462) scale(.18861)"/>
      <path d="m165.72 276.074-.65-1.1-.536-1.184-.46-1.225-.347-1.267-.23-1.3.42.074.385.038.346.04.342.04.346.037.382.077.458.075.54.075.537 1.113.46 1.03.882 1.916.46.88.424.804.46.764.498.727.537.728.613.65.688.7.765.6.884.65.996.6 1.108.612 1.265.6-1.264-.075-1.225-.2-1.228-.306-1.185-.458-1.113-.536-1.1-.648-1.034-.73-.958-.84-.88-.917-.843-.994z" fill="url(#T)" transform="translate(-15.247 -33.462) scale(.18861)"/>
      <path d="m169.626 276.38-.688-1.2-.652-1.183-.577-1.187-.538-1.226-.496-1.187.343.036.46.078.573.077.575.076.613.115.537.076.456.076.347.036.46 1.074.5 1.074.577.994.573.955.653.88.688.88.73.804.803.806.804.727.885.687.917.7.96.613.995.572 1.072.536 1.073.496 1.15.46-1.877.077-1.763-.073-1.57-.267-1.455-.422-1.34-.572-1.186-.692-1.114-.8-.993-.92-.92-.993-.844-1.073z" fill="url(#U)" transform="translate(-15.247 -33.462) scale(.18861)"/>
      <path d="m174.567 277.297-1-1.15-.88-1.187-.803-1.262-.692-1.34-.576-1.38.575.08.576.074.6.037.612.077.536.037.46.077.382.077.192.115.7.535.7.575 1.457 1.376.727.766.767.8.766.844.768.845.765.88 1.6 1.683.844.84.842.843.845.763.842.767.882.688-1.035-.037-1.07-.153-1.15-.268-1.186-.42-1.188-.495-1.2-.613-1.187-.726-1.187-.803-1.15-.918-1.1-.957z" fill="url(#V)" transform="translate(-15.247 -33.462) scale(.18861)"/>
      <path d="m180.694 277.48-1.188-1.298-1.188-1.264-1.225-1.264-1.228-1.148-1.225-1.03h.424l.495.074.576.038.573.116.614.076.613.114.572.115.5.075 1.913 1.76.923.92.92.92.88.916 1.762 1.84 1.7 1.68.842.768.804.687.804.614.805.535.766.46.766.342.766.23-.997.654-1.032.268-1.034.001-1.073-.268-1.072-.536-1.073-.728-1.1-.916-1.1-1.034-2.26-2.412z" fill="url(#W)" transform="translate(-15.247 -33.462) scale(.18861)"/>
      <path d="m184.026 277.018-1.918-2.14-.994-1.034-1.035-.957-1.072-.918.382.04.458.037.577.074.572.04.577.073.46.038.382.04h.23l.65.15.65.306.65.422.692.574.7.686.728.805.766.844.768.915.88.958.883.955.997.996 1.032.96 1.112.955 1.188.88 1.264.802 1.38.728-1.573.001-1.492-.15-1.342-.385-1.303-.494-1.187-.615-1.1-.764-1.075-.84-.996-.92-.997-.994-.956-1.033z" fill="url(#X)" transform="translate(-15.247 -33.462) scale(.18861)"/>
      <path d="m112.695 243.604.573-.727.654-.537.843-.307 1.034-.04 1.185.306-.384.384-.343.46-.345.574-.306.613-.304.7-.27.7-.263.767-.27.803-.227.767-.2.806-.194.802-.2.766-.155.768-.152.726-.115.65-.113.614-.2-.037-.155-.037-.2-.08-.155-.037-.152-.08-.155-.075-.192-.037-.226-.078v-.154l-.04-.42-.038-.65-.04-.807-.04-.957.075-2.105.1-1.1.23-1.034.308-.996z" fill="url(#Y)" transform="translate(-15.247 -33.462) scale(.18861)"/>
      <path d="m118.863 241.53.42.078.42.153.382.2.348.23.305.23-.536.497-.533.573-.462.538-.494.612-.424.615-.422.648-.382.653-.343.7-.344.727-.612 1.533-.268.805-.227.84-.23.842-.227.882-.194.92-.457-.077-.345-.036-.232-.077-.153-.078-.152-.037-.156-.076-.153-.04-.23-.075.497-2.5.535-2.1.535-1.8.533-1.493.54-1.188.534-.958.533-.7.5-.497.536-.346.458-.154z" fill="url(#Z)" transform="translate(-15.247 -33.462) scale(.18861)"/>
      <path d="m120.737 242.413.842-.425.88-.152.882.152.842.5.88.878-.688.498-.65.576-.614.575-.574.576-.574.6-.496.7-.46.7-.42.688-.423.768-.343.767-.345.804-.266.842-.267.88-.193.92-.2.96-.155.994-.416-.114-.46-.152-.5-.154-.498-.2-.46-.2-.42-.154-.343-.15-.23-.077.113-.918.195-1.036.304-1.15.38-1.226.5-1.263.572-1.227.6-1.186.688-1.112.73-.996.765-.843z" fill="url(#aa)" transform="translate(-15.247 -33.462) scale(.18861)"/>
      <path d="m120.512 248.5-.573 1.226-.496 1.304-.383 1.376-.306 1.38-.15 1.416.46.115.46.117.46.15.46.154.497.192.5.113.457.154.498.075.345-.88.305-.96.383-.957.347-.957.38-.997.42-.998.423-.956.42-.918.456-.883.5-.805.533-.766.54-.65.6-.575.615-.46.648-.346.7-.2-.92-.613-.92-.343-.957-.116-.92.116-.958.306-.92.5-.882.7-.843.804-.76.92-.766 1.073z" fill="url(#ab)" transform="translate(-15.247 -33.462) scale(.18861)"/>
      <path d="m124.6 250.605-.457 1.225-.457 1.264-.42 1.263-.46 1.188-.497 1.1.42.037.384.116.383.113.385.152.38.118.384.152.42.114.422.074.038-.15.038-.383.114-.498.115-.7.2-.803.27-.92.305-.996.42-1.034.494-1.035.575-1.035.727-1.035.803-.958.96-.918 1.07-.766 1.228-.692 1.375-.5-1.455-.648-1.302-.344-1.15-.038-1.034.193-.92.42-.805.65-.724.806-.65.957-.576 1.072-.495 1.188z" fill="url(#ac)" transform="translate(-15.247 -33.462) scale(.18861)"/>
      <path d="m128.173 250.064-.805 1.342-.686 1.416-.537 1.533-.342 1.57-.2 1.686 3.946 1.03.227-.65.307-.77.305-.803.382-.88.46-.92.457-.956.537-.96.574-.956.652-.957.725-.92.765-.842.803-.807.878-.728.96-.613.996-.537 1.07-.42-.882-.65-.997-.42-1.07-.154-1.072.04-1.15.23-1.148.46-1.1.615-1.1.768-1.07.956-.997 1.075z" fill="url(#ad)" transform="translate(-15.247 -33.462) scale(.18861)"/>
      <path d="m135.837 258.33.422-.996.42-1.036.42-1.032.458-.997.498-.996.497-.997.533-.918.573-.844.614-.804.652-.727.65-.652.728-.537.803-.423.804-.306-.692-.46-.764-.343-.806-.23-.88-.075-.918.076-.96.232-.957.382-.993.577-1 .727-.993.92-.995 1.15-.954 1.304-.92 1.532-.917 1.723-.843 1.992-.8 2.184.572.115.726.152.73.23.807.23.764.267.73.2.65.2.536.152.382-.957z" fill="url(#ae)" transform="translate(-15.247 -33.462) scale(.18861)"/>
      <path d="m137.673 254.348-.534 1.34-.536 1.3-.5 1.265-.458 1.148-.456 1.036.535.076.46.112.42.08.422.114.42.115.46.115.498.076.573.112.5-1.033.458-1.036.46-.994.916-1.916.496-.88.5-.88.495-.806.575-.806.6-.727.613-.687.688-.653.77-.615.8-.536.92-.498.956-.46-1.57-.84-1.415-.498-1.304-.114-1.186.193-1.032.458-.997.692-.84.882-.805 1.074-.688 1.187-.65 1.265z" fill="url(#af)" transform="translate(-15.247 -33.462) scale(.18861)"/>
      <path d="m141.772 255.607-.652 1.264-.6 1.266-.537 1.148-.455 1.1-.423.958.574.113.5.115.46.113.42.076.458.116.46.115.536.076.613.115.7-1.533.688-1.417.647-1.302.65-1.188.614-1.07.573-.96.6-.84.574-.807.612-.65.614-.575.6-.498.65-.42.654-.308.684-.268.732-.156.764-.113-1.42-.765-1.338-.382-1.265-.076-1.225.192-1.1.46-1.07.7-.996.844-.92.998-.84 1.15-.802 1.187z" fill="url(#ag)" transform="translate(-15.247 -33.462) scale(.18861)"/>
      <path d="m145.717 256.713-.613 1.187-.6 1.2-.5 1.15-.456 1.033-.42.96.46.114.42.113.424.076.383.116.42.078.42.075.46.113.497.077.23-.765.342-.844.42-.842.497-.92.535-.92 1.3-1.84.727-.92.765-.84.805-.846.802-.766.804-.652.843-.613.805-.498.8-.383.806-.23-1.378-.65-1.307-.308-1.22.001-1.2.234-1.07.458-1.033.654-.956.844-.92.957-.802 1.072-.766 1.148z" fill="url(#ah)" transform="translate(-15.247 -33.462) scale(.18861)"/>
      <path d="m148.554 258.934-.65 1.186-.536 1.036-.422.88-.23.653-.113.382.574.116.498.113.998.23.496.116.46.074.5.077.497.076.344-.65.384-.804.458-.882.537-.92.57-1.033.614-1.034.647-.997.7-1.034.727-.96.766-.88.802-.804.803-.652.844-.537.843-.345.878-.152.882.035-1.417-.762-1.38-.345-1.38.04-1.3.385-1.264.612-1.226.88-1.15 1.038-1.07 1.148-.995 1.228-.88 1.264z" fill="url(#ai)" transform="translate(-15.247 -33.462) scale(.18861)"/>
      <path d="m153.414 258.777-.686 1.225-1.1 2.224-.42.918-.383.765.46.077.382.115.344.115.308.113.346.114.305.116.308.078.342.073.344-.955.42-.958.422-.92.46-.918.537-.92.53-.844.614-.843.65-.805.7-.767.764-.688.765-.614.843-.575.92-.5.92-.42.996-.307 1.072-.23-1.266-.84-1.224-.46-1.15-.114-1.15.2-1.072.46-1.033.692-.958.842-.915 1.035-.844 1.113-.804 1.184z" fill="url(#aj)" transform="translate(-15.247 -33.462) scale(.18861)"/>
      <path d="m157.13 258.123-.842 1.112-.802 1.226-.7 1.34-.7 1.418-.57 1.5.993.153.5.116.497.153.496.115.498.153.498.116.5.074.342-.842.343-.882.347-.843.342-.882.42-.842.42-.805.5-.842.535-.766.65-.73.688-.727.805-.653.88-.613.996-.537 1.1-.498 1.26-.424 1.38-.344-1.113-.422-1.1-.265-1.148-.077-1.074.078-1.1.23-1.032.345-1.034.536-1.034.652-.956.768-.918.92z" fill="url(#ak)" transform="translate(-15.247 -33.462) scale(.18861)"/>
      <path d="m160.996 258.924-.84 1.15-.763 1.264-.653 1.34-.6 1.38-.535 1.5.46.077.46.076.536.078 1.034.153.538.074 1.07.152.27-1.072.383-.994.42-.996.533-.96.575-.88.65-.843.7-.805.766-.73.84-.7.916-.574.96-.54.995-.46 1.072-.346 1.112-.306 1.147-.192 1.188-.078-1.455-.6-1.457-.385-1.34-.2-1.34-.037-1.264.2-1.226.346-1.147.498-1.112.652-.992.805-.994.92z" fill="url(#al)" transform="translate(-15.247 -33.462) scale(.18861)"/>
      <path d="m164.598 260.185-.803 1.034-.7 1.15-.6 1.226-.5 1.34-.38 1.418.46.036.383.038.382.077.384.077.383.074.382.078.46.115.496.076.652-1.112.613-1.073.532-.958.5-.956.535-.844.498-.803.497-.767.573-.7.612-.652.688-.575.768-.535.842-.498.995-.425 1.07-.383 1.264-.345L177 256l-1.302-.2-1.26-.114-1.263.04-1.228.155-1.223.306-1.15.385-1.1.498-1.073.613-.995.73-.955.844z" fill="url(#am)" transform="translate(-15.247 -33.462) scale(.18861)"/>
      <path d="m168.428 261.102-.802 1.112-.728 1.147-.688 1.227-.612 1.225-.612 1.265.307.037.42.037.46.116.5.076.496.115.462.114.42.036.346.04.57-1.148.613-1.035.7-.996.725-.918.766-.883.804-.806.88-.725.92-.7.956-.616.996-.573 1.035-.498 1.07-.498 1.1-.423 1.148-.383 1.2-.346 1.222-.308-1.914-.457-1.8-.268-1.647-.075-1.53.154-1.417.307-1.302.46-1.186.573-1.074.77-1.03.84-.917.96z" fill="url(#an)" transform="translate(-15.247 -33.462) scale(.18861)"/>
      <path d="m173.18 261.442-1.148 1.036-1.035 1.15-.956 1.225-.84 1.34-.727 1.455.537.04.533.076.538.115.536.113.46.113.385.118.306.036.2-.037.77-.46.762-.537.804-.614.843-.7.843-.73.877-.767.92-.768.916-.802.96-.805.956-.807.996-.803.996-.73 1.033-.73.995-.652 1.07-.613 1.032-.537-1.07-.2-1.113-.037-1.225.038-1.262.193-1.267.27-1.3.384-1.303.497-1.3.614-1.3.73-1.224.844z" fill="url(#ao)" transform="translate(-15.247 -33.462) scale(.18861)"/>
      <path d="m178.77 262.855-1.34 1.188-1.377 1.188-1.377 1.113-1.376 1.035-1.38.92.42.074.5.037.612.04.613.037.65.037h1.227l.498-.002 1.034-.765 2-1.612.918-.84.92-.805.883-.807.878-.804.88-.767.918-.688.88-.652.92-.575.956-.5.996-.422 1.035-.345 1.073-.192 1.1-.117-.958-.955-1.034-.572-1.074-.23-1.1.077-1.148.308-1.225.575-1.226.77-1.3.878-2.642 2.185z" fill="url(#ap)" transform="translate(-15.247 -33.462) scale(.18861)"/>
      <path d="m181.68 264.308-1.112.996-1.1.958-1.107.96-1.2.842-1.185.807.38.037.498.075.577.08.576.036.572.08.5.072.38.04.23.037.688-.002.7-.2.727-.348.765-.496.766-.614.843-.728.88-.806 1.878-1.725 1.03-.918 1.1-.882 1.15-.844 1.26-.807 1.302-.728 1.38-.65 1.494-.5-1.6-.38-1.493-.152-1.415.076-1.343.27-1.262.46-1.225.575-1.186.73-1.148.805-2.22 1.84z" fill="url(#aq)" transform="translate(-15.247 -33.462) scale(.18861)"/>
      <path d="m184.86 266.337-1.148.993-1.033.844-.956.65-.843.385-.726.116.6.077.653.114.727.113.764.117.767.074.766.116.728.038.652.037 1.07-.806.958-.766.878-.766.84-.728.767-.73.726-.727.767-.7.726-.65.728-.613.804-.576.84-.537.92-.496.996-.46 1.07-.383 1.226-.348 1.34-.306-1.417-.805-1.495-.342H196.1l-1.5.3-1.495.576-1.494.804-1.454.96-1.415 1.034-1.34 1.15-1.302 1.15z" fill="url(#ar)" transform="translate(-15.247 -33.462) scale(.18861)"/>
      <path d="m106.684 239.702.035-.46.036-.46.08-.457.112-.46.115-.42-.612.804-.46.882-.345.842-.2.88-.076.918v.92l.116.918.194.92.228.918.3.883.685 1.76.385.843.347.84.345.765.343.767-.074-.153-.037-.268-.042-.266v-.345l-.037-.423v-.88l-.001-.496-.04-.5v-.498l-.04-.535-.04-.498-.038-.46-.078-.46-.075-.42-.116-.383-.192-.383-.153-.42-.152-.423-.114-.42-.117-.46-.115-.496-.077-.46-.042-.5-.036-.46-.035-.498z" fill="url(#as)" transform="translate(-15.247 -33.462) scale(.18861)"/>
      <path d="m103.284 256.096.653-.382.6-.386.654-.342.686-.385.7-.382-.6.6-.613.616-.614.612-.612.576-.65.6-.652.536-.65.54-.688.497-.65.46-.7.383-.65.346-.687.268-.7.23-.688.115-.692.037-.7-.035.728-.422.73-.462.686-.42.7-.42.65-.383.652-.422.616-.385.6-.42.653-.384.608-.383z" fill="url(#at)" transform="translate(-15.247 -33.462) scale(.18861)"/>
      <path d="m106.612 249.432.345.457.383.422.346.46.343.46.346.46-.153-.497-.193-.5-.2-.537-.46-1.07-.265-.5-.3-.498-.346-.495-.382-.46-.46-.38-.498-.385-.537-.344-.612-.268-.653-.23-.764-.152-.805-.076.536.307.5.345.495.345.46.344.46.342.42.383.424.42.423.383.767.844z" fill="url(#au)" transform="translate(-15.247 -33.462) scale(.18861)"/>
      <path d="m108.638 248.5.118.7.23 1.4.15.7.157.726.076-.842.113-.804.078-.843.076-.84.037-.807.038-.804-.04-.805-.04-.764-.076-.766-.117-.7-.194-.7-.228-.652-.27-.573-.384-.537-.422-.46-.497-.42.154.767.114.766.154.766.116.7.076.726.115.7.08.7.115.7.075.7.117.7z" fill="url(#av)" transform="translate(-15.247 -33.462) scale(.18861)"/>
      <path d="m105.232 248.1.65.7.614.7.534.572.463.54.383.418-.077-1.147-.154-.996-.192-.843-.307-.764-.305-.65-.386-.575-.382-.535-.424-.5-.382-.496-.424-.495-.382-.538-.307-.613-.306-.7-.23-.765-.194-.92-.075-1.033-.693.65-.416.728-.2.766-.04.805.153.803.307.843.424.844.498.84.575.803.6.805z" fill="url(#aw)" transform="translate(-15.247 -33.462) scale(.18861)"/>
      <path d="m109.057 243.607.152-.7.193-.7.268-.7.228-.7.306-.7-1.1 1.073-.918 1.035-.65.96-.457.92-.308.88-.152.805-.037.806.077.726.196.7.186.65.27.613.27.534.23.537.228.46.153.46.078.383v-.805l.04-.765.034-.764.04-.768.036-.73.077-.726.076-.727.074-.7.117-.7.114-.727z" fill="url(#ax)" transform="translate(-15.247 -33.462) scale(.18861)"/>
      <path d="m103.706 254.68 1.187-.078 1.187-.156.574-.075-.498.23-.498.192-.535.23-.537.2-.574.193-.576.152-.6.156-.6.076-.612.04h-.652l-.65-.04-.654-.15-.652-.192-.65-.27-.65-.38-.654-.46.613.114.615.116.6.076.613.075.6.038.616.037h1.188l.613-.04h.574z" fill="url(#ay)" transform="translate(-15.247 -33.462) scale(.18861)"/>
      <path d="m95.783 259.357-.386.268-.342.307-.308.306-.304.307-.27.344.268-.917.422-.808.494-.687.616-.652.687-.536.768-.5.84-.42.88-.347.92-.305.92-.307 1.913-.462.957-.193.92-.2.843-.154.842-.192-.42.153-.574.306-.7.463-.84.497-.843.535-.88.5-.842.46-.768.307-.46.08-.42.075-.46.115-.457.115-.463.195-.456.15-.42.2-.46.23-.42.23-.42.267z" fill="url(#az)" transform="translate(-15.247 -33.462) scale(.18861)"/>
      <path d="m104.05 256.516.884-.46.8-.42.767-.387.65-.344.496-.308-.532 1.113-.538.92-.573.727-.536.653-.574.498-.575.46-1.148.7-.57.346-.578.382-.572.384-.536.46-.537.574-.535.7-.497.806-.498.995-.345-.88-.117-.844.116-.84.307-.766.457-.73.612-.726.727-.7.804-.614.843-.613.88-.536z" fill="url(#aA)" transform="translate(-15.247 -33.462) scale(.18861)"/>
      <path d="m104.667 261.84-.23.65-.2.7-.192.65-.153.7-.152.73-.384-1.455-.2-1.265-.04-1.15.115-.994.23-.844.345-.766.42-.652.458-.537.538-.5.535-.42.574-.346.537-.305.496-.306.46-.268.342-.306.3-.272-.422.653-.42.652-.42.65-.38.614-.346.613-.345.65-.346.615-.304.613-.304.652-.268.65z" fill="url(#aB)" transform="translate(-15.247 -33.462) scale(.18861)"/>
    </g>
  </g>
</svg>
