<svg xmlns="http://www.w3.org/2000/svg" viewBox="-2.463 -1.132 64 64" width="64" height="64">
  <defs>
    <linearGradient id="a" x1=".111" y1="13.778" x2="6.967" y2="13.778" gradientUnits="userSpaceOnUse">
      <stop offset="0" stop-color="#ffc400"/>
      <stop offset=".137" stop-color="#fecd00"/>
      <stop offset=".365" stop-color="#fed400"/>
      <stop offset="1" stop-color="#fed600"/>
    </linearGradient>
    <linearGradient id="b" x1=".111" y1="11.463" x2="14.369" y2="11.463" gradientUnits="userSpaceOnUse">
      <stop offset="0" stop-color="#ff0" stop-opacity=".7"/>
      <stop offset=".132" stop-color="#fff600" stop-opacity=".66"/>
      <stop offset=".314" stop-color="#feef00" stop-opacity=".626"/>
      <stop offset=".547" stop-color="#feea00" stop-opacity=".606"/>
      <stop offset="1" stop-color="#fee900" stop-opacity=".6"/>
    </linearGradient>
  </defs>
  <path d="m22.717 30.868 17.18-10.78v-8.421L6.804 1.292V20.88z" fill="#fee900"/>
  <path d="m6.807 40.853 33.092-20.768v-8.42L6.807 1.288V21.14z" fill="#ffc400"/>
  <path transform="matrix(2.321 0 0 2.321 6.55 -1.129)" d="m.1 18.08 6.856-4.303L.1 9.476v.113z" opacity=".75" fill="url(#a)"/>
  <path d="M6.807 40.853v19.39l33.092-10.176V41.65L6.807 20.876z" fill="#ffc400"/>
  <path d="m6.66 47.654 33.237 2.961v-9.523l-33.236 2.96zm-.11-29.865 33.196 2.96v-9.523L6.55 14.185z" fill="#ffe082"/>
  <path d="M6.807 1.294 39.899 11.67z" fill="#fee900"/>
  <path transform="matrix(2.321 0 0 2.321 6.55 -1.129)" d="m14.37 9.14-7.402 4.645z" fill="url(#b)"/>
  <path d="M36.119 45.85a3.78 3.78 0 0 0 3.78 3.781V42.07a3.78 3.78 0 0 0-3.78 3.781zm0-29.864a3.78 3.78 0 0 0 3.78 3.78v-7.56a3.78 3.78 0 0 0-3.78 3.78z" fill="#fff"/>
  <path d="M51.776 39.328a14.198 14.198 0 0 0-1.994-4.252 13.404 13.404 0 0 0-3.374-3.354 15.237 15.237 0 0 0-4.8-2.17 15.233 15.233 0 0 0 6.926-5.436 13.78 13.78 0 0 0 2.367-7.889 18.27 18.27 0 0 0-1.513-7.735 13.743 13.743 0 0 0-4.361-5.369 19.61 19.61 0 0 0-6.97-3.133 38.417 38.417 0 0 0-9.291-1.03H6.895v2.46l32.394 10.09a.889.889 0 0 1 .613.845v7.232a.889.889 0 0 1-.455.775l-16.595 10.5 16.595 10.5a.889.889 0 0 1 .455.776v7.232a.889.889 0 0 1-.613.845L6.897 60.308v2.46h23.405a33.425 33.425 0 0 0 9.27-1.184 19.355 19.355 0 0 0 6.97-3.528 15.24 15.24 0 0 0 4.382-5.83 20.165 20.165 0 0 0 1.513-8.086 17.619 17.619 0 0 0-.656-4.821z" fill="#ff6d00" stroke="#ff6d00" stroke-miterlimit="10" stroke-width=".17871623"/>
</svg>
