<svg xmlns="http://www.w3.org/2000/svg" height="60" width="120" fill-rule="evenodd">
  <path d="M58.092 17.794v24.412h5.993v-11.22l1.236.023v11.197h6.06V17.794h-6.06v9.057h-1.236v-9.057zm20.75 0h-5.838v24.412h5.838zm.956 0 4.6 24.412h6.96l4.6-24.412H89.78L88.257 28.24c-.127.4-.557.4-.634 0l-1.527-10.446zm29 0H97.22v24.412h11.587v-6.4l-6.443-.055v-2.744h3.07V26.65h-3.07v-2.455h6.443z" stroke="#fdee21" stroke-width=".649"/>
  <path d="M33.23 16.17c-.342-.938-12.13-5.52-12.28-5.017-2.165.564-3.046 3.059-4.535 4.64l-3.307-.19c-1.456 1.873-2.22 3.787-1.7 5.776 1.866 2.529 4.034 4.681 5.384 7.858.107 1.497 6.482.157 7.848-.14-1.866 1.337-3.492 3.407-2.793 9.372.637 2.8 1.073 5.928 6.729 9.095.744.417 2.285.899 3.237 1.25.911.417 1.976.589 4.981-.33 1.74-.75 3.617-1.201 5.319-1.949l-2.046.096c-2.816.061-4.991.271-5.661-.516l-2.593-4.474 1.512-2.936c2.091.215 2.785 1.91 4.629 2.557l2.173-1.61c6.311 3.726 8.821-2.36 9.541-7.101-.077-1.929-4.176.604-3.927-.297.096-2.073-1.594-4.786-2.686-6.9l1.264-4.888c.573-.511-2.655-5.95-5.29-6.628-2.313-.596-5.799 2.333-5.799 2.333z" fill="#fdee21"/>
  <g fill="#c8c037">
    <path d="M43.597 26.562c.023.526.02 1.164.071 1.563-.008.304-.236.315-.425.378l1.228.45c.244.41.44.82.638 1.231.23 1.01.058 1.038-.094 1.113-.446.004-.89.005-1.305-.083.185.098.226.17.246.295.036.232-.113.548-.359.853.364.201 1.026.399 1.518.586l.56-1.249c-.253-1.834-1.023-3.525-2.078-5.137zm2.293 6.153c.68.284 1.622.2 2.926-.471.194-.138.375-.056.028.171-1.711 1.536-2.53.767-2.954.3z"/>
    <path d="M48.947 32.042c.202.388.08.703.012 1.03-.211 1.665-.73 2.98-1.748 4.356-3.31 5.322-6.652 1.992-9.317-.176l-1.102 2.762c-.058.242-.302.43 1.42 1.188l1.753-1.238c6.688 5.088 11.427-7.122 8.982-7.922zm-10.246 4.756c-.451.032-1.794.489-1.854.753l.618-.92zm-.878-5.643c.083 0 .48.106.437.083-.06-.034-.006.556.118.864l-.484 1.053c.928-1.07 2.394-.998 3.755-1.136l-.65-.403c.114-.376-.02-.674-.082-.994zm2.28-3.172c-.996.305-1.948.803-2.588 1.865.488-1.75.588-1.684.745-1.77.682-.306 1.241-.116 1.842-.095z"/>
  </g>
  <path d="M34.789 48.506c-1.204 1.328-3.888-.1-6.118-.829-5.665-3.602-6.772-6.993-6.849-10.32-.291-4.766 1.172-7.535 3.023-8.19-1.225 2.361-1.796 6.6-1.228 9.752.458 1.754.468 4.712 3.402 6.295 1.437.809 1.048 1.438 2.02 2.196 1.064.83 4.033 1.62 5.75 1.096zm1.797-22.024c-2.037-2.889-4.903-3.973-8.133-4.091.648-.211 1.295-.321 1.943-.633.158-.167.106-.46.047-.758-3.11-.812-5.073-1.815-7.557-2.746l6.707 1.61c4.529.172 4.14 1.29 6.993 6.618zm2.181-1.393c-1.505-2.149-2.966-4.757-4.947-6.416-4.784-2.16-9.517-3.763-15.063-5.222l1.77-2.277c5.886 1.344 11.414 3.592 16.366 7.298.837 2.119 1.396 4.24 1.874 6.617zm3.035-3.798s-.844-1.893-1.255-2.616c-.953-1.056-1.436-3.025-3.387-3.952.617.166 1.04-.032 2.3 1.11l1.986 3.767zm1.05 3.28c.194-1.64.564-4.27.14-5.31l-3.558-4.74c-.197-.183-.338-.432-.493-.626 1.671.433 3.416 1.595 5.77 6.184z" fill="#fcf6a0"/>
  <path d="M35.824 24.765c-.666-.524-1.26-2.377-2.268-2.762-.934-.079-1.277-.372-2.505-.122.446-.223.866-.509 1.34-.662.32-.075.621.008.927.05.076-.035.125-.08.107-.147-1.236-.764-3.772-.774-5.484-1.21 1.987.066 4.185-.044 5.678.435 1.2 1.066 1.59 3.072 2.205 4.419zm3.64-8.938c.275.026 1.759 2.372 1.829 2.762.123.854.427 1.81.509 2.704a29 29 0 0 0-.843-2.57c-.098-.236-.344-.769-1.027-1.523-.319-.532-.387-.95-.468-1.372zm5.027 12.78h-.635l.701.184zm-4.33-.633c-.638-.079-1.294-.09-1.931.051-.26.35-.278.705-.392 1.033.776-.855 1.084-.907 2.323-1.084zm8.703 4.412c-.355.283-.39.55-1.44.87-.766.18-1.198-.126-1.559-.539.546.157.634.57 2.1.107zm-3.182.178a44.468 44.468 0 0 1-.809 2.07c-.661.777-.38.335-1.37 1.54.317-.49.73-.959.945-1.468.151-.335.34-.69.424-.989-.263-.13-.8-.141-.873-.094-.88.519-1.04 1.069-1.559 1.604.377-.602.698-1.258 1.134-1.8.05-.07.373-.083.571-.125-.308-.053-.88-.163-.925-.158-.575.138-.896.638-1.323.97.311-.449.597-.916.992-1.302.04-.045 1.106.048 1.659.269l.011.22.314.127.236-.592zM38.715 36.8c-.142-.05-1.393-.21-1.393-.172-.481.342-.554.67-.544.953.8-.787.77-.789 1.937-.781zm-.951-5.658s.903-.132.885-.048c-.065.314.111 1.077.13.97l-.507.415c1.063-.535 2.183-.427 3.318-.509 0 0-.956-.264-.898-.272.214-.03-.056-.997-.13-1.018.183-.061.36-.108.544-.154-1.367-.357-2.158-.147-3.342.616z"/>
  <path d="m45.582 31.817-.201.101c-.029-.588-.66-.545-1.193-.55l-.437-.107c.134.123.544.113.378.379-.14.074-.203.394-.283.663l-.236.011 1.263.498.271.04.65-.348z"/>
  <path d="M39.595 31.421c-.102-.201-.614-.173-.724-.042-.09.105-.005.784.11.67.166-.147.383-.208.643-.196.033-.125.021-.26-.03-.432zm4.904 1.01c.048-.035.15-.375.117-.476-.067-.24-.543-.19-.543-.19-.115.068-.217.443-.175.566.02.105.525.138.601.1z" fill="#fff"/>
  <path d="m24.162 44.167.3.03c1.781.874 4.714 2.17 8.96 1.474l.666 1.048c-1.87.909-3.881.7-5.765.764zm-2.557-6.913L22.497 41c2.388 1.493 6.469 3.203 9.87 3.065l-.751-1.725c-7.1-1.507-7.7-3.413-10.01-5.086zm2.22-7.671c.435 2.902 1.018 5.102 3.542 6.946 1.547 1.112 3.083 2.22 4.95 3.134 0 0-.163.852-.3.837-5.558-.617-9.628-5.226-10.12-7.33.476-1.616 1.161-2.624 1.928-3.587zm2.671-1.645c.74 3.217 2.507 6.475 4.263 9.43.643.817.811 1.178 1.803 1.675 1.34.424 2.289.316 3.262.252-.267-.493-.504-1.01-.81-1.473-2.179-1.723-1.172-3.292-.593-4.285-1.212-.306-2.817-.957-3.038-1.812-.356-2.768-.175-3.646.181-5.067-1.64.346-3.302.688-5.067 1.28z"/>
  <path d="M20.478 10.85c-.539.353-1.058.857-1.617 1.43-.927.958-1.543 1.893-2.486 2.587-.188.163-.718.424-1.383.463-.313.016-.518.068-1.093-.004-.508-.275-.991-.097-1.462.466-.516.742-1.17 2.153-1.442 3.04-.56 2.264.868 4.13 2.239 5.567 1.219 1.191 1.922 1.936 2.422 3.028.38.708.66 1.68.964 2.361.11.216.087.215.382.28.637.136 1.52.137 2.308.205.34.004.807-.008 1.25-.054.61-.116 1.328-.229 1.929-.436.587-.145 1.11-.345 1.582-.53-.061.207-.51.406-.679.668-1.599 2.289-2.036 4.325-1.758 7.538.157 1.424.484 2.605.977 3.955.226.619.706 1.598 1.167 2.248 1.368 1.934 4.43 4.417 8.692 5.373a6.203 6.203 0 0 0 2.38-.164c2.104-.638 6.391-2.146 6.391-2.146s-3.805.315-5.548.143c-.404-.064-.848-.085-1.13-.36-.046-.06-.218-.406-.107-.409.15-.004.584-.184 1.253-.244-1.428-.153-1.407-.151-1.512-.412-.162-.403-.41-.955-.665-1.438.627.053 2.017.13 2.488-.356 0 0-.822.095-1.549.01-.244-.029-.662-.178-.786-.224-.327-.127-.595-.166-.658-.249-.113-.288-.19-.385-.326-.771-.186-.511-.2-1.082-.236-1.604.475.586 1.08 1.079 1.883 1.33.01-.02 1.04.449 1.788.207l.155-.05c0 .013-.495.044-.677-.046-1.521-.647-1.75-1.213-1.996-1.494l-.656-.984c.2-.398.312-.413.577-.417.8.09 1.15.158 1.636.04.33.678.419 1.359 1.168 1.852 2.496.741 3.039-.22 3.643-1.07 1.797 1.319 4.72 1.725 6.752.024 2.582-2.988 3.399-7.697 3.17-7.966-.322-.547-.745-1.111-1.109-1.033-1.294.353-1.772 1.01-3.055.86.153-.009.41-.013.412-.027.099-1.087-.008-1.612-.056-1.702-.39-.859-.9-1.763-1.257-2.44-.091-.14-.361-1.207-.813-1.629a38.294 38.294 0 0 1-.669-.602l-.04.464s.185.028.256.316c.268 1.09 1.63 3.666 1.73 3.79.484.78.05 1.75.417 2.296.035.069.75-.006 1.303.028.91-.196.87-.597 1.657-.657.53-.04.583.954.576 1.03-.099 1.099-.433 2.375-.944 3.541-1.063 2.048-2.253 3.887-3.941 4.143-2.06.36-3.13-.54-4.245-1.113l-.427.364c-1.451 1.444-3.174 1.316-3.878-.571-.351-.732-.808-1.181-1.199-1.81l-2.075 1.495c-.173.355-.385.913-.643 1.537-.18.434-.33 1.18-.32 1.799-.266.453.921 2.29 1.671 3.408l.649.942c.149.386.475.727.494.768 1.393 1.817-1.757 1.399-2.407 1.29-1.284-.205-2.539-.741-3.72-1.458l-.204-.127c-1.402-.883-2.692-2.012-3.79-3.13-.654-.74-1.277-2.259-1.737-3.335-.69-2.588-1.679-7.074 1.002-10.473.17-.195.353-.518.51-.583a7.416 7.416 0 0 1 2.59-1.11l-.093-.602c-.465.105-2.029.677-2.47.917-1.006.291-1.84.596-3.122.917a4.779 4.779 0 0 1-1.226-.003c-.922-.125-2.493-.013-2.593-.106-.624-.87-.796-2.43-1.365-3.265l-.007-.008-.007-.008c-.332-.447-.719-.81-1.1-1.19-1.365-1.355-2.533-2.666-2.86-4.056-.082-.41-.294-.836-.181-2.049l.002-.006.002-.006c.328-1.134.862-2.058 1.769-2.985.943.016 1.877.036 2.605.175.333.056 1.028.147 1.744.414 1.815.676 4.212 1.787 4.212 1.787-1.8-.989-3.812-2.272-5.082-2.531-.19-.027-.306-.113-.362-.264 1.912-1.123 2.261-2.445 3.518-3.63.575-.25.799-.378 1.287-.431 4.514.713 7.356 2.511 9.605 3.714.912.496 1.742.871 2.534 1.323.694.229 2.79 1.81 3.403 2.664.623 1.315 1.078 2.736 1.493 4.107.297 1.394.558 1.96.558 1.96s-.252-1.167-.21-1.376c.262.098.882.291 1.138.261 0 0-1.147-.593-1.297-1.117-.483-1.683-.967-4.301-1.097-4.438-.368-.462-1.902-1.636-2.842-2.179-.356-.205-.548-.333-.563-.423.3-.304.67-.705 1.004-.96.319-.245.609-.52 1.054-.686 1.954-.88 3.071.339 3.336.092 0 0-.42-.482-.233-.403.191.104.814.226.883.29.712.556 2.574 2.593 3.696 4.74.27.527.379.874.254 1.507a11.02 11.02 0 0 1-.36 1.407c-.123.283-.821 2.222-.819 2.482-.14 1.064.457 2.396.457 2.396.005-.362-.023-.554.01-.813l.04-.462s-.025-.123-.02-.171c.03-.32.108-.588.131-.771.224-1.39.614-2.39 1.057-3.609.131-.307.303-.478.294-.713.008-.415-.364-.973-.633-1.518a16.543 16.543 0 0 0-1.02-1.812c-.97-1.394-1.797-2.485-3.31-3.169-.425-.186-2.091-.367-2.667-.26-.698.146-1.299.29-1.778.596-.753.483-1.345 1.23-2.04 1.67-1.536-.769-2.277-1.343-2.416-1.423a56.487 56.487 0 0 0-3.188-1.595c-.565-.528-4.076-1.789-7.29-2.04zm19.65 28.651c-.947-.74-1.744-1.502-2.27-2.286-.171.923-.793 1.58-1.275 2.226-.095.151-.164.358.307 1.017.127.175.587.205.898.19-.316-.24-.797-.492-.874-.71.555.377 1.07.486 1.535.425.107-.012.238-.124.34-.298.207-.445.37-.552.534-.672l.378.473z" stroke="#000" stroke-width=".0050673"/>
</svg>
