<svg xmlns="http://www.w3.org/2000/svg" viewBox="-4.26 -5.6 120 60" width="120" height="60" version="1.1">
  <g fill="#d77310">
    <path d="M14.583 43.052 13.087 41c-.597-1-.96-2.113-1.193-3.256-.1-.556.04-.728.627-.728h4.793c.586 0 .688.13.576.738-.313 1.78-1.02 3.367-2.235 4.722-.162.182-.293.384-.445.576h-.627zm9.82-15.774c-.03 3.63-.526 6.522-1.82 9.242-.354.748-.445.78-1.163.374-.06-.03-.13-.06-.182-.1-1-.8-2.154-.87-3.377-.84h-7.08c-.586-.01-1.092.1-1.557.455-.243.172-.506.293-.758.445-.83.495-.85.495-1.264-.394-.647-1.385-1.082-2.83-1.395-4.338-.546-2.62-.506-5.238-.152-7.857.222-1.68.667-3.317 1.203-4.924.93-2.8 2.235-5.4 3.782-7.908 1.173-1.9 2.447-3.7 3.863-5.4.354-.425.556-.313.84.04a49.341 49.341 0 0 1 4.854 7.12c1.547 2.78 2.8 5.693 3.5 8.807.435 1.952.8 3.913.718 5.3zm-9.475 6.3H20.5c.344 0 .556-.07.677-.465.506-1.598.728-3.246.8-4.914.142-3.387-.475-6.654-1.7-9.8-1.234-3.195-2.922-6.128-5.005-8.838-.283-.364-.506-.293-.738.01-.526.708-1.092 1.395-1.567 2.144-1.87 2.932-3.418 6.027-4.318 9.414-.536 2.012-.9 4.075-.9 6.148-.01 1.94.313 3.853.85 5.723.12.435.324.576.758.576l5.582.01zm-11.326 3.55H1.73c-.303 0-.516-.1-.465-.455l.354-2.154c.12-.84.8-1.264 1.304-1.82.303-.334.657-.607 1-.9.1-.1.212-.202.364-.142.162.06.172.202.182.344.1 1.648.586 3.195 1.385 4.64.212.374.05.506-.324.506l-1.93-.01zm22.538 0h-1.82c-.475-.01-.556-.162-.334-.576.637-1.193 1.112-2.447 1.234-3.812a2.19 2.19 0 0 1 .131-.506c.08-.202-.06-.526.192-.607.253-.07.404.212.576.364l1.284 1.213c.506.404.718.94.78 1.517.07.637.263 1.244.313 1.88.03.374-.08.516-.445.516l-1.9.01zm-10-6.554c-.01-.243.06-.506.1-.8.07-.475-.313-.88-.738-.738-1.072.364-2.012.01-2.943-.435-.495-.243-.495-.253-.576.324-.08.627-.374 1.143-1 1.355s-1.234.1-1.7-.445a1.44 1.44 0 0 1-.182-1.598c.273-.536.96-.95 1.476-.9.637.08.718-.08.566-.718-.202-.87-.233-1.75.192-2.6.293-.576.182-.92-.404-1.224-.142-.07-.283-.12-.425-.182-.556-.233-.9-.86-.78-1.385.13-.556.748-1.042 1.294-1.02.607.02 1.122.495 1.193 1.092.01.12 0 .243.02.364.08.526.506.738 1 .556.9-.334 1.8-.445 2.73-.06.506.212.77.01.738-.526-.06-1.092.657-1.992 1.7-2.134.92-.12 1.86.576 2.103 1.567.273 1.112-1.102 2.397-2.265 2.113-.182-.04-.354-.172-.516.04s-.04.394.06.576c.627 1.122.657 2.275.04 3.377-.384.677-.1 1.092.647 1.082 1.355-.03 2.376 1 2.397 2.295.02 1.355-1.052 2.467-2.366 2.457-1.294-.01-2.346-1.092-2.346-2.467zm1.153-5.066c0-1.416-1.203-2.67-2.58-2.65-1.577.02-2.67 1.153-2.7 2.63-.03 1.395 1.254 2.66 2.65 2.66a2.655 2.655 0 0 0 2.64-2.64zm-3.55.192c-.02.222-.243.415-.607.384a.5.5 0 0 1-.516-.586c.03-.374.283-.556.627-.546.364.02.526.243.495.748z"/>
    <path d="M14.583 26.105c-.313-.04-.566-.212-.586-.536-.02-.354.233-.566.576-.597s.576.172.586.516-.222.546-.576.617zm1.397 0a.61.61 0 0 1-.607-.566c-.03-.374.253-.556.597-.576.324-.01.536.182.546.506.02.364-.222.556-.536.637z"/>
  </g>
  <path d="M38.513 17.404c.494 0 .92.066 1.317.23.396.165.724.343.988.659.275.27.488.595.626.955.145.368.223.758.23 1.153 0 .626-.132 1.2-.395 1.646-.262.446-.69.824-1.317 1.054v.034c.263.06.51.178.724.343.197.146.343.343.463.592.132.23.197.463.264.754.066.27.099.546.1.824 0 .164.034.343.034.591 0 .249.034.463.065.724l.132.691c.047.203.137.394.264.56h-2.353c-.132-.33-.197-.755-.23-1.201l-.132-1.35c-.065-.56-.264-.988-.526-1.252-.263-.264-.692-.395-1.283-.395h-2.37v4.213h-2.436V17.415Zm-.858 4.906c.56 0 .956-.132 1.2-.343.246-.211.395-.626.395-1.2 0-.527-.132-.922-.394-1.153-.263-.232-.691-.343-1.2-.343h-2.58v3.061zm5.763.295c.197-.494.463-.955.823-1.317.36-.362.79-.626 1.283-.824.494-.197 1.053-.296 1.681-.296a4.512 4.512 0 0 1 1.681.296c.48.183.917.464 1.283.824.367.373.648.823.823 1.317.198.494.297 1.086.297 1.712a4.802 4.802 0 0 1-.297 1.711c-.184.48-.464.916-.823 1.283a3.83 3.83 0 0 1-1.283.824c-.494.197-1.053.296-1.68.296a4.512 4.512 0 0 1-1.682-.296 3.722 3.722 0 0 1-1.283-.824 3.83 3.83 0 0 1-.823-1.283c-.197-.494-.297-1.085-.297-1.711 0-.626.1-1.201.297-1.712zm1.973 2.633c.058.277.158.543.296.79.132.23.33.43.592.56.23.132.56.197.921.197.362 0 .659-.065.921-.198.263-.132.463-.329.592-.559.129-.23.264-.494.297-.789.067-.302.1-.61.1-.92a4.172 4.172 0 0 0-.1-.922 2.813 2.813 0 0 0-.297-.79 1.395 1.395 0 0 0-.592-.56 2.01 2.01 0 0 0-.92-.23c-.344 0-.66.066-.922.23a1.91 1.91 0 0 0-.592.56c-.132.23-.264.494-.296.789a4.391 4.391 0 0 0 0 1.843zm11.011-3.456c-.33 0-.626.065-.858.23a1.87 1.87 0 0 0-.559.591c-.132.264-.264.527-.296.823a3.86 3.86 0 0 0 0 1.746c.058.277.158.544.296.791.132.23.33.429.56.592.23.163.526.23.857.23.527 0 .921-.132 1.2-.43.292-.319.476-.722.527-1.152h2.058c-.132 1.053-.559 1.844-1.2 2.37-.659.56-1.515.824-2.568.824a4.27 4.27 0 0 1-1.612-.297c-.494-.197-.921-.463-1.252-.823-.331-.36-.626-.789-.79-1.252a4.27 4.27 0 0 1-.296-1.612c0-.57.089-1.137.264-1.68.158-.504.428-.965.79-1.35.344-.394.756-.658 1.253-.888a4.528 4.528 0 0 1 1.712-.33c.457 0 .912.066 1.35.198.428.132.823.297 1.152.56.33.262.626.558.823.92.218.407.341.857.36 1.318h-2.106c-.197-.921-.723-1.383-1.646-1.383zm7.307-4.378v5.794l2.7-2.83h2.534l-2.96 2.844 3.293 4.97h-2.6l-2.139-3.488-.823.789v2.7h-2.14v-10.83h2.14zm8.627 8.92c.33.329.789.462 1.382.462.43 0 .824-.099 1.119-.329.329-.23.494-.463.559-.691h1.907c-.297.955-.755 1.612-1.382 2.007-.628.394-1.383.591-2.271.591-.626 0-1.2-.1-1.681-.296a3.362 3.362 0 0 1-1.252-.858 3.974 3.974 0 0 1-.79-1.317c-.196-.494-.296-1.053-.296-1.681a4.563 4.563 0 0 1 .297-1.647c.197-.494.463-.955.823-1.317a4.03 4.03 0 0 1 1.25-.856 4.27 4.27 0 0 1 1.613-.329c.658 0 1.252.132 1.744.394.492.263.889.592 1.2 1.054.335.438.57.944.692 1.481.132.561.197 1.153.165 1.745h-5.66c.065.789.264 1.283.559 1.578zm2.435-4.117c-.264-.297-.658-.429-1.2-.429-.33 0-.626.065-.858.165-.205.116-.393.26-.559.429a1.646 1.646 0 0 0-.297.559c-.068.216-.1.343-.1.526h3.488a1.99 1.99 0 0 0-.494-1.252zm8.262-1.808v1.448h-1.577v3.85c0 .343.065.592.197.724s.343.197.724.197h.343c.1 0 .23-.034.329-.034v1.68a3.471 3.471 0 0 1-.592.066H81.8a8.682 8.682 0 0 1-.956-.065 2.041 2.041 0 0 1-.79-.264 1.449 1.449 0 0 1-.527-.56c-.132-.23-.197-.559-.197-.955v-4.608h-1.32V20.43h1.318v-2.338h2.139v2.338h1.547zm4.607-2.995 2.535 7.44h.035l2.401-7.44h3.357v10.83h-2.239v-7.67h-.034l-2.665 7.67h-1.84l-2.666-7.603h-.034v7.603h-2.24v-10.83Zm17.872 10.434c-.723.429-1.577.626-2.632.626-.824 0-1.578-.132-2.239-.429a5.162 5.162 0 0 1-1.679-1.185c-.463-.494-.789-1.086-1.053-1.777a7.038 7.038 0 0 1 0-4.444 5.214 5.214 0 0 1 1.053-1.811 4.545 4.545 0 0 1 1.681-1.2 5.722 5.722 0 0 1 2.238-.43c.824 0 1.578.132 2.239.43.66.296 1.2.69 1.68 1.2a5.814 5.814 0 0 1 1.054 1.811 7.1 7.1 0 0 1 .36 2.238 6.95 6.95 0 0 1-.36 2.206 4.776 4.776 0 0 1-1.053 1.777l1.35 1.2-1.119 1.153zm-.343-2.504c.198-.264.343-.626.494-1.02.151-.395.198-.89.198-1.483 0-.463-.066-.92-.165-1.382-.1-.429-.264-.858-.494-1.2a2.23 2.23 0 0 0-.921-.824c-.343-.197-.823-.297-1.35-.297-.526 0-.988.1-1.35.297-.365.201-.68.483-.92.823-.23.343-.395.755-.495 1.2a6.2 6.2 0 0 0-.164 1.383c0 .463.065.889.164 1.318.1.428.264.823.494 1.152.233.348.55.63.921.823.343.198.824.297 1.35.297.264 0 .463 0 .56-.034.095-.034.263-.065.394-.1l-1.02-.92 1.118-1.201z" style="stroke-width:1.71517193;fill:#d77310;fill-opacity:1"/>
</svg>
