<svg xmlns="http://www.w3.org/2000/svg" width="64" height="64" viewBox="0 0 13.107 13.101" preserveAspectRatio="xMidYMid" version="1.1">
  <path d="M5.362 8.434c0 .385 0 .986-.72.986-.44 0-.615-.238-.72-.636-.385.461-.86.7-1.433.7C1.076 9.483 0 8.28 0 6.581c0-1.65 1.111-2.915 2.489-2.915.552 0 1.097.217 1.433.692a.719.719 0 0 1 .72-.63c.72 0 .72.595.72.987v3.719zM2.698 8.1c.783 0 1.16-.797 1.16-1.517 0-.72-.363-1.538-1.16-1.538-.825 0-1.195.818-1.195 1.538 0 .72.377 1.517 1.195 1.517zm3.09-3.53c0-.503.315-.839.755-.839.42 0 .657.23.755.63.28-.462.867-.693 1.433-.693 1.622 0 2.426 1.517 2.426 2.978 0 1.419-.965 2.831-2.482 2.831a2.11 2.11 0 0 1-1.377-.524v1.838c0 .504-.315.84-.755.84s-.755-.336-.755-.84V4.57zM8.479 8.1c.783 0 1.175-.818 1.175-1.517 0-.713-.385-1.538-1.175-1.538-.803 0-1.181.755-1.181 1.482 0 .741.35 1.573 1.181 1.573zm4.628-5.802c0 .468-.377.867-.846.867-.447 0-.845-.406-.845-.867 0-.427.398-.825.845-.825.448 0 .846.384.846.825zm-1.6 2.272c0-.503.314-.839.754-.839s.755.335.755.839v4.01c0 .504-.314.84-.755.84-.44 0-.755-.336-.755-.84z" style="fill:#fc4c02;stroke-width:.05869561"/>
</svg>
