<svg version="1.1" xmlns="http://www.w3.org/2000/svg" xmlns:xlink="http://www.w3.org/1999/xlink" x="0px" y="0px" viewBox="0 0 64 64" style="enable-background:new 0 0 64 64" xml:space="preserve">
  <g>
    <path class="st0" d="M28.8 34.9 46.7 63c.4.7 1.2 1 2 1h6.6c1.2 0 2.3-1 2.3-2.2 0 0 0 0 0 0V2.3C57.6 1 56.6 0 55.3 0c-.7 0-1.3.3-1.8.9L28.8 32.2C28.3 33 28.3 34.1 28.8 34.9zM8.7 64h11.8c1.2 0 2.3-1 2.3-2.2 0 0 0 0 0 0V46.6c0-1.3-1.1-2.3-2.3-2.3-.7 0-1.3.3-1.8.9L6.8 60.3c-.8 1-.5 2.5.5 3.2C7.7 63.8 8.2 64 8.7 64z"/>
  </g>
</svg>
