<svg xmlns="http://www.w3.org/2000/svg" version="1.1" x="0" y="0" viewBox="0 0 64 64" width="64" height="64">
  <g transform="translate(-72.15 -118.026) scale(5.34409)">
    <path class="st0" d="m18.971 32.853-3.503-7.3a4.22 4.22 0 0 0-1.38 3.124 4.235 4.235 0 0 0 4.883 4.176" style="fill:#232736;stroke-width:.17256255"/>
    <path class="st0" d="M17.539 24.518a4.235 4.235 0 0 1 5.004 4.159c0 1.277-.57 2.433-1.484 3.21l1.035 2.174a6.571 6.571 0 0 0 2.796-5.384c.017-3.64-2.934-6.592-6.575-6.592a6.3 6.3 0 0 0-1.812.26z" style="fill:#232736;stroke-width:.17256255"/>
  </g>
</svg>
