<svg version="1.1" xmlns="http://www.w3.org/2000/svg" x="0" y="0" viewBox="0 0 120 60" width="120" height="60" style="enable-background:new 0 0 120 60">
  <path class="st0" d="M17.6 25.8c-1.3 0-2.4.5-3.2 1.4-.2.3-.5.4-.7.4-.2 0-.4-.1-.6-.2-.2-.2-.2-.3-.2-.6 0-.2.1-.3.1-.5.9-1.4 2.4-2.2 4.6-2.2 1.6 0 2.8.4 3.6 1.3.9.8 1.3 2 1.3 3.4v7.6c0 .2-.1.4-.2.6-.2.2-.4.2-.6.2s-.4-.1-.6-.2c-.2-.2-.2-.4-.2-.6v-1c-.3.6-.9 1.1-1.6 1.5-.7.3-1.5.5-2.4.5-1.5 0-2.6-.3-3.5-1-.9-.7-1.3-1.6-1.3-2.9 0-1.2.4-2.2 1.3-2.8s2-1 3.5-1h3.9V29c0-.9-.3-1.7-.9-2.2-.5-.7-1.2-1-2.3-1zm-.5 10c1 0 1.9-.3 2.7-.9.7-.6 1.1-1.5 1.1-2.6v-1.1H17c-.9 0-1.7.2-2.2.6-.5.4-.8 1-.8 1.7 0 1.5 1 2.3 3.1 2.3z"/>
  <path class="st0" d="M25 24.6c.2-.2.4-.3.6-.3.2 0 .4.1.6.3.2.2.3.4.3.6v.9c.3-.5.8-1 1.4-1.4.7-.4 1.4-.6 2.3-.6 1.8 0 3.2.5 4.2 1.6s1.5 2.7 1.5 4.9-.5 3.9-1.5 4.9c-1 1.1-2.4 1.7-4.2 1.7-.9 0-1.6-.2-2.3-.6-.7-.4-1.1-.8-1.5-1.4v6.2c0 .2-.1.4-.3.6-.2.2-.4.3-.6.3-.2 0-.4-.1-.6-.3-.2-.2-.3-.4-.3-.6V25.2c.2-.2.3-.4.4-.6zm2.5 2.4c-.7.8-1 2.1-1 3.8 0 1.7.3 2.9 1 3.8.7.8 1.6 1.3 2.7 1.3 2.6 0 4-1.7 4-5s-1.3-5-4-5c-1.1-.1-2 .3-2.7 1.1z"/>
  <path class="st0" d="M37.9 24.6c.2-.2.4-.3.6-.3.2 0 .4.1.6.3.2.2.3.4.3.6v.9c.3-.5.8-1 1.4-1.4.7-.4 1.4-.6 2.3-.6 1.8 0 3.2.5 4.2 1.6s1.5 2.7 1.5 4.9-.5 3.9-1.5 4.9c-1 1.1-2.4 1.7-4.2 1.7-.9 0-1.6-.2-2.3-.6-.7-.4-1.1-.8-1.5-1.4v6.2c0 .2-.1.4-.3.6-.2.2-.4.3-.6.3-.2 0-.4-.1-.6-.3s-.3-.4-.3-.6V25.2c.2-.2.3-.4.4-.6zm2.5 2.4c-.7.8-1 2.1-1 3.8 0 1.7.3 2.9 1 3.8.7.8 1.6 1.3 2.7 1.3 2.6 0 4-1.7 4-5s-1.3-5-4-5c-1.1-.1-2 .3-2.7 1.1z"/>
  <path class="st0" d="M55.8 24.2c.8 0 1.6.2 2.2.5.7.3 1.2.8 1.5 1.3v-7.6c0-.3.1-.5.2-.6.2-.2.4-.2.6-.2s.5.1.6.2c.2.2.2.4.2.6V32c0 1.8-.5 3.1-1.5 4s-2.3 1.4-3.9 1.4c-1.8 0-3.2-.5-4.2-1.6S50 33 50 30.8c.3-4.4 2.1-6.6 5.8-6.6zm3.7 7.8v-3.8c0-.1-.1-.2-.1-.3-.1-.1-.2-.3-.4-.6s-.4-.5-.7-.7c-.3-.2-.6-.4-1-.6-.4-.2-.9-.3-1.4-.3-2.6 0-3.9 1.7-3.9 5 0 3.4 1.3 5 3.9 5 1.1 0 2-.3 2.6-1 .7-.5 1-1.5 1-2.7z"/>
  <path class="st0" d="M64.4 25.8c1-1.1 2.4-1.6 4.2-1.6 1.8 0 3.3.5 4.2 1.6 1 1.1 1.5 2.7 1.5 4.9s-.5 3.9-1.5 4.9c-1 1.1-2.4 1.7-4.2 1.7s-3.2-.5-4.2-1.7c-1-1.1-1.5-2.7-1.5-4.9s.5-3.8 1.5-4.9zm4.3 10c2.7 0 4-1.7 4-5s-1.3-5-4-5-4 1.7-4 5 1.3 5 4 5z"/>
  <path class="st0" d="M89.8 24.2c3.5 0 5.2 1.6 5.2 4.9v7.3c0 .3-.1.5-.3.6-.2.2-.4.2-.6.2s-.4-.1-.6-.2c-.2-.2-.3-.4-.3-.6v-7c0-1.2-.3-2.1-.8-2.7s-1.4-.9-2.7-.9c-1.1 0-2 .3-2.6.9-.6.6-.9 1.4-.9 2.4v7.3c0 .3-.1.5-.3.6-.2.2-.4.2-.6.2s-.3 0-.4-.2c-.2-.2-.3-.4-.3-.6v-7c0-1.2-.2-2.1-.7-2.7-.5-.6-1.4-.9-2.6-.9-2.2 0-3.4 1.3-3.4 3.8v6.8c0 .3-.1.5-.3.6-.2.2-.4.2-.6.2s-.4-.1-.6-.2c-.2-.2-.3-.4-.3-.6V25.2c0-.3.1-.5.3-.6.2-.2.4-.2.6-.2s.4.1.6.2c.2.2.3.4.3.6v.9c.3-.5.7-1 1.4-1.4.6-.4 1.4-.5 2.2-.5 2.1 0 3.6.6 4.4 1.9.7-1.3 2-1.9 3.9-1.9z"/>
  <path class="st0" d="M96.9 30.8c0-2.1.5-3.7 1.5-4.9 1-1.1 2.4-1.7 4.2-1.7.8 0 1.6.1 2.2.4.6.3 1.1.6 1.5 1s.7.8.9 1.3c.2.5.4 1 .5 1.4.1.4.1.9.1 1.3v.6c0 .2-.1.3-.1.5-.1.2-.2.4-.3.4-.2.1-.4.2-.6.2h-8c0 1.4.4 2.5 1.1 3.3s1.7 1.2 3 1.2c1.1 0 2.2-.4 3.3-1.2.2-.1.3-.2.5-.2s.4.1.6.2c.2.2.2.3.2.6 0 .2-.1.4-.3.6-1 1-2.4 1.5-4.3 1.5s-3.3-.5-4.4-1.6c-1.1-1-1.6-2.7-1.6-4.9zm9.2-1c0-2.7-1.2-4-3.5-4-1.2 0-2.1.4-2.7 1.1-.7.7-1 1.7-1.1 2.9h7.3z"/>
</svg>
