<svg xmlns="http://www.w3.org/2000/svg" viewBox="0 0 32 32" width="64" height="64">
  <defs>
    <radialGradient id="b" cx="-1258.61" cy="397.67" r=".04" gradientTransform="matrix(1209.4699 0 0 -1209.4699 1522313.3 481056.29)" gradientUnits="userSpaceOnUse">
      <stop offset="0" stop-color="#69cce3"/>
      <stop offset="1" stop-color="#396fb6"/>
    </radialGradient>
    <linearGradient id="a" x1="67.763" y1="41.314" x2="67.763" y2="133.674" gradientUnits="userSpaceOnUse">
      <stop offset="0" stop-color="#f7f8f8"/>
      <stop offset="1" stop-color="#cdcccc"/>
    </linearGradient>
  </defs>
  <g transform="matrix(.33559 0 0 .33559 -4.79 -12.347)">
    <circle r="47.678" cy="84.472" cx="61.949" fill="url(#a)"/>
    <circle r="43.706" cy="84.472" cx="61.949" fill="url(#b)"/>
    <path d="M61.95 43.556V50.5m0 74.887v-6.954m4-74.685-.3 2.97m-7.724 78.477.3-2.97m44.64-37.753H95.9m-74.9 0h6.954m74.72 4.013-2.97-.3m-78.5-7.737 2.97.3M90.88 55.54l-4.92 4.907m-52.956 52.956 4.92-4.907M93.574 58.5l-2.3 1.897M30.3 110.434l2.3-1.897m58.28 4.866-4.92-4.907M33.004 55.54l4.92 4.907M87.898 116.1l-1.883-2.3M35.987 52.833l1.883 2.3m39.734-8.47-2.666 6.432M46.28 122.28l2.666-6.432M81.232 48.38l-1.402 2.625m-37.177 69.558 1.402-2.625m55.7-17.812-6.418-2.653M24.14 68.817l6.418 2.653m67.47 32.298-2.625-1.416M25.858 65.175l2.625 1.416m71.262 2.226-6.418 2.653M24.14 100.126l6.418-2.653m70.548-24.876-2.86.866M22.78 96.346l2.86-.866m51.964 26.8-2.666-6.432M46.28 46.662l2.666 6.432m24.878 70.534-.866-2.845M50.06 45.315l.866 2.845m18.994-3.82-1.347 6.817m-14.6 73.447 1.347-6.817m18.514-72.472-.866 2.845M50.06 123.628l.866-2.845m51.156-28.326-6.83-1.36m-73.45-14.6 6.83 1.36m72.474 18.5-2.86-.866M22.78 72.597l2.86.866M95.966 61.74 90.18 65.6m-62.26 41.604 5.786-3.862m64.32-38.167L95.4 66.6m-69.544 37.177 2.625-1.416m56.2 16.15-3.862-5.786M39.203 50.44l3.862 5.786m38.167 64.337-1.402-2.625M42.653 48.38l1.402 2.625m40.627-.565-3.862 5.786m-41.617 62.276 3.862-5.786m44.833-59.883-1.883 2.3M35.987 116.1l1.883-2.3m58.096-6.596-5.786-3.862M27.92 61.74l5.786 3.862m59.868 44.832-2.3-1.897M30.3 58.5l2.3 1.897m69.482 16.1-6.83 1.36m-73.45 14.6 6.83-1.36m74.04-10.638-2.97.3m-78.5 7.737 2.97-.3m45.748 36.42-1.347-6.817m-14.6-73.45 1.347 6.817m10.64 74.038-.3-2.97m-7.724-78.477.3 2.97" fill="none" stroke="#dededd" stroke-linecap="round" stroke-width=".99"/>
    <path d="m57.592 80.115 4.357 4.357-30 30z" fill="#dededd"/>
    <path d="m91.925 54.482-29.975 30-4.357-4.357z" fill="#ee4544"/>
    <path d="M66.292 88.828 61.95 84.47l29.976-30z" fill="#cb2026"/>
    <path d="M66.292 88.828 61.95 84.47l-30 30z" fill="#ababab"/>
  </g>
</svg>
