<svg version="1.1" xmlns="http://www.w3.org/2000/svg" xmlns:xlink="http://www.w3.org/1999/xlink" x="0px" y="0px" viewBox="0 0 120 60" style="enable-background:new 0 0 120 60" xml:space="preserve">
  <g>
    <path class="st0" d="M57.3 36.3v-7.4h-1.4v4.8c0 .6-.1 1.2-.2 1.6-.2.5-.4.8-.6 1.1s-.6.5-.9.7c-.3.1-.7.2-1.1.2-.5 0-.9-.1-1.2-.2s-.6-.4-.8-.7c-.2-.3-.3-.6-.4-1s-.1-.9-.1-1.4v-5.2h-1.4v5.8c0 1.2.3 2.1.9 2.8.6.7 1.5 1.1 2.7 1.1.7 0 1.3-.2 1.9-.5.6-.3 1-.8 1.3-1.3h0c0 .2 0 .5 0 .8 0 .3 0 .6.1.8h1.3c0-.3 0-.7-.1-1.1C57.3 36.9 57.3 36.6 57.3 36.3L57.3 36.3zM67.2 35.2c-.2.5-.4.9-.8 1.2-.3.3-.7.6-1.1.8-.4.2-.9.3-1.5.3-.6 0-1.1-.1-1.5-.3-.4-.2-.8-.5-1.1-.8-.3-.3-.5-.7-.7-1.2s-.2-1-.2-1.5c0-.5.1-1 .2-1.5.2-.5.4-.9.7-1.2.3-.3.7-.6 1.1-.8.4-.2.9-.3 1.5-.3.5 0 1 .1 1.5.3.4.2.8.5 1.1.8.3.3.6.7.8 1.2.2.5.3 1 .3 1.5C67.4 34.2 67.4 34.7 67.2 35.2L67.2 35.2zM67.3 30.6 67.3 30.6c-.4-.6-1-1.1-1.6-1.4-.6-.3-1.3-.5-2-.5-.7 0-1.4.1-2 .4-.6.3-1.1.6-1.5 1-.4.4-.8 1-1 1.6-.2.6-.4 1.3-.4 2 0 .7.1 1.4.4 2 .2.6.6 1.1 1 1.6.4.4.9.8 1.5 1 .6.3 1.3.4 2 .4.7 0 1.4-.2 2-.5.6-.3 1.2-.8 1.6-1.4h0v1.6h1.4V23.1h-1.4V30.6L67.3 30.6zM82.1 35.1c-.2.5-.4.9-.7 1.2-.3.3-.6.6-1.1.8-.4.2-.9.3-1.4.3-.5 0-1-.1-1.4-.3-.4-.2-.8-.5-1.1-.8-.3-.3-.5-.7-.7-1.2-.2-.5-.2-1-.2-1.5 0-.5.1-1 .2-1.5.2-.5.4-.9.7-1.2.3-.3.6-.6 1.1-.8.4-.2.9-.3 1.4-.3.5 0 1 .1 1.4.3.4.2.8.5 1.1.8.3.3.5.7.7 1.2.2.5.2 1 .2 1.5C82.3 34.2 82.2 34.7 82.1 35.1L82.1 35.1zM82.4 30.1c-.4-.4-.9-.8-1.5-1-.6-.2-1.2-.4-1.9-.4-.7 0-1.3.1-1.9.4-.6.2-1.1.6-1.5 1-.4.4-.7 1-1 1.6-.2.6-.4 1.3-.4 2 0 .7.1 1.4.4 2 .2.6.6 1.1 1 1.6.4.4.9.8 1.5 1 .6.2 1.2.4 1.9.4.7 0 1.3-.1 1.9-.4.6-.2 1.1-.6 1.5-1 .4-.4.7-1 1-1.6.2-.6.4-1.3.4-2 0-.7-.1-1.4-.4-2C83.1 31 82.8 30.5 82.4 30.1L82.4 30.1zM100 35.8 100 35.8l-2.8-6.8h-1.5l3.6 8.3-.8 2c-.2.5-.4 1-.7 1.2-.3.3-.6.4-1.1.4-.3 0-.7-.1-1-.2L95.5 42c.4.1.8.1 1.2.1.8 0 1.4-.2 1.9-.7.4-.4.8-1 1.1-1.7l4.2-10.8h-1.5L100 35.8 100 35.8zM71.7 25.8c-.2 0-.5.1-.7.3-.2.2-.3.4-.3.7 0 .3.1.5.3.7.2.2.4.3.7.3s.5-.1.7-.3.3-.4.3-.7-.1-.5-.3-.7C72.2 25.9 72 25.8 71.7 25.8L71.7 25.8zM86.7 34c0-.2-.1-.5-.1-.7 0-.5.1-.9.2-1.4.2-.4.4-.8.7-1.1.3-.3.7-.6 1.2-.7.5-.2 1-.2 1.4-.2.5.1.9.2 1.3.4.4.2.7.5 1 .9.1.2.3.4.4.6L86.7 34 86.7 34zM93.4 35.4c-.2.4-.4.8-.8 1.1-.3.3-.7.6-1.2.7-.5.2-1 .2-1.4.2-.5 0-.9-.2-1.3-.4-.4-.2-.7-.5-1-.9-.2-.3-.4-.6-.6-1l4.7-1.6 1.6-.6 1.3-.4c0-.1-.1-.2-.1-.3-.1-.3-.2-.5-.3-.7-.2-.4-.4-.7-.7-1-.4-.5-.9-.9-1.4-1.2-.5-.3-1.1-.4-1.8-.5-.6 0-1.3 0-1.9.3-.7.2-1.2.5-1.7 1-.5.4-.8.9-1.1 1.5-.3.6-.4 1.2-.4 1.8 0 .4 0 .8.1 1.2 0 .3.1.5.2.8 0 .1.1.2.1.3.2.5.5 1 .8 1.4.4.5.9.9 1.4 1.2.5.3 1.1.4 1.8.5.6 0 1.3 0 1.9-.3.7-.2 1.2-.6 1.7-1 .5-.4.8-.9 1.1-1.5.1-.3.2-.6.3-.9l-1.2-.4C93.5 35 93.5 35.1 93.4 35.4L93.4 35.4zM106 34c0-.2-.1-.5-.1-.7 0-.5.1-.9.2-1.4.2-.4.4-.8.7-1.1.3-.3.7-.6 1.2-.7.5-.2 1-.2 1.4-.2.5.1.9.2 1.3.4.4.2.7.5 1 .9.1.2.3.4.4.6L106 34 106 34zM112.8 34.7c-.1.4-.1.4-.2.7-.2.4-.4.8-.7 1.1-.3.3-.7.6-1.2.7-.5.2-1 .2-1.4.2-.5 0-.9-.2-1.3-.4-.4-.2-.7-.5-1-.9-.2-.3-.4-.6-.6-1l4.7-1.6 1.6-.6 1.3-.4c0-.1-.1-.2-.1-.3-.1-.3-.2-.5-.3-.7-.2-.4-.4-.7-.7-1-.4-.5-.9-.9-1.4-1.2-.5-.3-1.1-.4-1.8-.5-.6 0-1.3 0-1.9.3-.7.2-1.2.5-1.7 1-.5.4-.8.9-1.1 1.5-.3.6-.4 1.2-.4 1.8 0 .4 0 .8.1 1.2.1.3.1.5.2.8 0 .1.1.2.1.3.2.5.5 1 .8 1.4.4.5.9.9 1.4 1.2.5.3 1.1.4 1.8.5.6 0 1.3 0 1.9-.3.7-.2 1.2-.6 1.7-1 .5-.4.8-.9 1.1-1.5.1-.3.2-.6.3-.9L112.8 34.7 112.8 34.7zM45.9 35.2c-.2.5-.4.9-.8 1.2-.3.3-.7.6-1.2.8-.4.2-.9.3-1.5.3-.6 0-1.1-.1-1.5-.3s-.8-.5-1.1-.8c-.3-.3-.5-.7-.7-1.2-.2-.5-.2-1-.2-1.5 0-.5.1-1 .2-1.5.2-.5.4-.9.7-1.2.3-.3.7-.6 1.1-.8.4-.2.9-.3 1.5-.3.5 0 1 .1 1.5.3.4.2.8.5 1.2.8.3.3.6.7.8 1.2.2.5.3 1 .3 1.5C46.2 34.2 46.1 34.7 45.9 35.2L45.9 35.2zM47.4 36.3v-7.4h-1.4v1.6H46c-.4-.6-.9-1.1-1.6-1.4-.6-.3-1.3-.5-2-.5-.7 0-1.4.1-2 .4-.6.3-1.1.6-1.5 1-.4.4-.8 1-1 1.6s-.4 1.3-.4 2 .1 1.4.4 2c.2.6.6 1.1 1 1.6.4.4.9.8 1.5 1 .6.3 1.3.4 2 .4.7 0 1.4-.2 2-.5.6-.3 1.2-.8 1.6-1.4h0v.1c0 0 0 0 0-.1h.1c0 .2 0 .4 0 .7 0 .3 0 .6.1.8h1.3c0-.3 0-.7-.1-1.1C47.4 36.9 47.4 36.6 47.4 36.3L47.4 36.3z"/>
    <polygon class="st0" points="71,38.4 72.4,38.4 72.4,28.9 71,28.9"/>
    <path d="M12.4,23.9c-1.7-0.6-3.6-0.2-5,1.1c-1.9,1.9-2,4.9-0.1,6.9c1.4,1.4,3.4,1.8,5.1,1.2 C10.6,30.3,10.6,26.7,12.4,23.9" style="fill:#0075BC"/>
    <path d="M12.4,23.9L12.4,23.9c-0.9,1.3-1.3,2.9-1.3,4.4c0,1.7,0.4,3.3,1.4,4.8c0.6-0.2,1.2-0.6,1.8-1.1 c1-0.9,1.5-2.2,1.5-3.4c0-1.2-0.4-2.5-1.4-3.5C13.8,24.6,13.1,24.2,12.4,23.9" style="fill:#2F5A5B"/>
    <path d="M14,34.6c-0.6,1.7-0.3,3.6,1,5c1.8,2,4.9,2.1,6.9,0.2c1.4-1.3,1.9-3.3,1.3-5.1C20.3,36.5,16.7,36.4,14,34.6" style="fill:#FEBD18"/>
    <path d="M18.7,31.4c-1.2,0-2.5,0.4-3.5,1.3c-0.6,0.5-1,1.2-1.2,1.9c1.3,0.9,2.8,1.3,4.4,1.4c1.6,0.1,3.3-0.4,4.8-1.3 c-0.2-0.6-0.6-1.3-1-1.8C21.2,32,20,31.4,18.7,31.4" style="fill:#E09419"/>
    <path d="M29.8,25.2c-1.3-1.4-3.3-1.9-5.1-1.3c1.8,2.8,1.7,6.4-0.1,9.1c1.7,0.6,3.6,0.3,5-1 C31.6,30.2,31.7,27.2,29.8,25.2" style="fill:#F7941D"/>
    <path d="M24.8,23.9c-0.6,0.2-1.3,0.6-1.8,1c-1,0.9-1.5,2.1-1.5,3.4c0,1.2,0.4,2.5,1.3,3.5c0.5,0.6,1.2,1,1.9,1.2 c0.9-1.3,1.3-2.8,1.4-4.4C26.1,27,25.7,25.4,24.8,23.9L24.8,23.9" style="fill:#D5731A"/>
    <path d="M23.1,22.3c0.6-1.7,0.2-3.6-1.1-5c-1.9-1.9-4.9-2-6.9-0.1c-1.4,1.4-1.8,3.4-1.2,5.1 C16.8,20.6,20.3,20.6,23.1,22.3" style="fill:#00B9F2"/>
    <path d="M18.7,21L18.7,21c-1.7,0-3.3,0.4-4.7,1.4c0.2,0.6,0.6,1.2,1.1,1.8c0.9,1,2.2,1.5,3.4,1.5 c1.2,0,2.5-0.4,3.5-1.4c0.6-0.6,1-1.2,1.2-1.9c0,0,0,0,0,0c0,0,0,0,0,0l0,0h0c0,0,0,0,0,0C21.7,21.5,20.2,21,18.7,21" style="fill:#1F886E"/>
  </g>
</svg>
