<svg version="1.1" xmlns="http://www.w3.org/2000/svg" xmlns:xlink="http://www.w3.org/1999/xlink" x="0px" y="0px" viewBox="0 0 120 60" style="enable-background:new 0 0 120 60" xml:space="preserve">
  <g>
    <path class="st0" d="M22.5,34.8c-0.8,0-1.6,0.3-2.3,0.8c-0.3,0.2-0.5,0.5-0.7,0.8c-0.3,0.3-0.8,0.6-1.2,0.7 c-0.6,0.2-1.2,0.1-1.8-0.1c-0.8-0.4-1.2-1.1-1.9-1.6c-1.4-0.8-3.1-0.7-4.3,0.4c-1.5,1.3-1.7,3.7-0.3,5.2c0.7,0.8,1.7,1.2,2.7,1.2 c0.8,0,1.6-0.3,2.3-0.8c0.3-0.3,0.5-0.6,0.8-0.9c0.4-0.3,0.8-0.5,1.3-0.6c0.6-0.2,1.3-0.1,1.8,0.3c0.7,0.4,1.1,1.1,1.8,1.5 c1.4,0.8,3.1,0.6,4.3-0.5c1.1-1,1.5-2.6,0.9-4C25.3,35.7,24,34.8,22.5,34.8"/>
    <path d="M19.2,19.7c-0.5,0.8-0.6,1.8-0.4,2.7c0.1,0.4,0.3,0.8,0.3,1.2c0.1,0.5,0,0.9-0.2,1.4c-0.3,0.6-0.8,1.1-1.5,1.3 c-0.4,0.1-0.8,0.1-1.2,0.3c-0.4,0.1-0.8,0.3-1.1,0.6c-1.6,1.3-1.9,3.6-0.6,5.2c1.3,1.6,3.6,1.9,5.2,0.6c0.6-0.5,1.1-1.1,1.3-1.9 c0.1-0.4,0.1-0.9,0.1-1.3c-0.1-0.5-0.2-0.9-0.4-1.4c-0.1-0.7,0-1.5,0.4-2.1c0.2-0.3,0.5-0.5,0.9-0.7c0.4-0.2,0.7-0.3,1.1-0.4 c0.8-0.2,1.5-0.6,2-1.3c1-1.2,1.1-2.9,0.3-4.3C24.1,17.2,20.6,17.3,19.2,19.7" style="fill:#4CA4DB"/>
    <path d="M24.1,31.8c0.4,0.7,1.1,1.3,1.9,1.6c0.3,0.1,0.7,0.2,1,0.3c0.4,0.1,0.8,0.3,1.2,0.6c0.5,0.4,0.8,1,0.8,1.6 c0,0.5-0.1,1-0.3,1.4c-0.6,1.9,0.4,4,2.3,4.6c0.2,0.1,0.3,0.1,0.5,0.1c1.5,0.3,3.1-0.4,3.9-1.8c1-1.7,0.5-4-1.3-5 c-0.4-0.2-0.8-0.4-1.2-0.4c-0.8-0.1-1.6-0.5-2-1.2c-0.4-0.7-0.5-1.6-0.2-2.4c0.4-0.9,0.4-1.8,0-2.7c-0.7-1.9-2.8-2.9-4.7-2.1 s-2.9,2.8-2.1,4.7C24,31.5,24.1,31.6,24.1,31.8" style="fill:#3873A0"/>
    <path class="st0" d="M87.7 24.7h-2.1c-.1 0-.1.1-.1.1v0l-2.9 8.6c0 0-.1.1-.1.1h0c-.1 0-.1 0-.1-.1l-2.9-8.6v0c0-.1-.1-.1-.1-.1h-2.1c-.1 0-.1.1-.1.1l0 0v0l0 0 0 .1 4.4 12c0 .1.1.1.1.1h1.6c.1 0 .1 0 .2-.1l0 0 4.4-12 0-.1v0C87.8 24.7 87.7 24.7 87.7 24.7zM63.3 26.6 63.3 26.6c0 0 0-.1 0-.1v-1.6c0-.1-.1-.1-.1-.1h-8.5c-.1 0-.1.1-.1.1v1.7c0 .1.1.1.1.1h5.7c0 0 .1 0 .1.1v.1l-6.3 8.3 0 0v0l0 0c0 0 0 0 0 .1V37c0 .1.1.1.1.1h8.9c.1 0 .1-.1.1-.1v-1.9c0-.1-.1-.1-.1-.1h-6.1c0 0-.1 0-.1-.1v-.1L63.3 26.6zM46.5 24.5c-1.7 0-3 .4-3.9 1.5 0 0-.1.1-.1.1s0 0 0 0h0c0 .1 0 .1 0 .2l0 0 1.5 1.1 0 0 .1.1 0 0c.1 0 .1 0 .2 0 .4-.6 1.1-.8 2.4-.8.9 0 1.6.1 2 .4.5.3.7.8.7 1.4v1.3c0 .1 0 .1-.1.1h-3.5c-2.6 0-4 1.6-4 3.6 0 2.1 1.6 3.7 4.3 3.7 1.7 0 2.5-.4 3-1.2 0 0 .1-.1.1-.1h0c.1 0 .1 0 .1.1 0 0 0 0 0 0v.9c0 .1.1.1.1.1h2c.1 0 .1-.1.1-.1v-8.3C51.6 25.5 49.6 24.6 46.5 24.5zM49.3 32.7c0 1-.2 1.6-.7 1.9-.5.3-1.2.4-2.3.4-.7 0-1.4-.1-1.9-.5-.4-.3-.6-.7-.6-1.2 0-.5.2-.9.6-1.2.5-.3 1.1-.5 1.7-.4h3c.1 0 .1 0 .1.1 0 0 0 0 0 0L49.3 32.7zM70 24.5c-1.7 0-3 .4-3.9 1.5L66 26.1c0 0 0 0 0 0h0c0 .1 0 .1 0 .2l0 0 1.5 1.1 0 0 .1.1 0 0c.1 0 .1 0 .2 0 .4-.6 1.1-.8 2.4-.8.9 0 1.6.1 2 .4.5.3.7.8.7 1.4v1.3c0 .1 0 .1-.1.1h-3.5c-2.6 0-4 1.6-4 3.6 0 2.1 1.6 3.7 4.3 3.7 1.7 0 2.5-.4 3-1.2 0 0 .1-.1.1-.1h0c.1 0 .1 0 .1.1 0 0 0 0 0 0v.9c0 .1.1.1.1.1h2c.1 0 .1-.1.1-.1v-8.3C75.1 25.5 73.1 24.6 70 24.5zM72.8 32.7c0 1-.2 1.6-.7 1.9-.5.3-1.2.4-2.3.4-.7 0-1.4-.1-1.9-.5-.4-.3-.6-.7-.6-1.2 0-.5.2-.9.6-1.2.5-.3 1.1-.5 1.7-.4h3c.1 0 .1 0 .1.1 0 0 0 0 0 0L72.8 32.7 72.8 32.7zM94.1 24.5c-2.4 0-5.1 1.5-5.1 6.4 0 5.1 2.9 6.3 5.5 6.3 1.6 0 3.1-.6 4.2-1.7l.1-.1 0 0c0-.1 0-.1 0-.2L97.2 34l0 0c-.1 0-.1 0-.2 0l0 0c-.7.7-1.7 1.1-2.7 1.1-1.6.1-3-1.1-3.2-2.8 0-.2 0-.3 0-.5 0-.1 0-.1.1-.1H99c.1 0 .1-.1.1-.1v-1.8C99.2 26.5 96.8 24.5 94.1 24.5zM96.9 29.8c0 0-.1 0-.1 0h-5.3c-.1 0-.1 0-.1-.1 0 0 0 0 0 0 0-2 1.3-3.1 2.8-3.1s2.7 1.1 2.8 3.1C96.9 29.7 96.9 29.8 96.9 29.8 96.9 29.8 96.9 29.8 96.9 29.8L96.9 29.8zM105.8 24.5c-1.7 0-3 .4-3.9 1.5l-.1.1c0 0 0 0 0 0h0c0 .1 0 .1 0 .2l0 0 1.5 1.1 0 0 .1.1h0c.1 0 .1 0 .2 0 .4-.6 1.1-.8 2.4-.8.9 0 1.6.1 2 .4.5.3.7.8.7 1.4v1.3c0 .1 0 .1-.1.1h-3.5c-2.6 0-4 1.6-4 3.6 0 2.1 1.6 3.7 4.3 3.7 1.7 0 2.5-.4 3-1.2 0 0 .1-.1.1-.1h0c.1 0 .1 0 .1.1 0 0 0 0 0 0v.9c0 .1.1.1.1.1h2c.1 0 .1-.1.1-.1v-8.3C110.9 25.5 108.9 24.6 105.8 24.5zM108.7 32.7c0 1-.2 1.6-.7 1.9s-1.2.4-2.3.4c-.7 0-1.4-.1-1.9-.5-.4-.3-.6-.7-.6-1.2 0-.5.2-.9.6-1.2.5-.3 1.1-.5 1.7-.4h3c.1 0 .1 0 .1.1 0 0 0 0 0 0L108.7 32.7 108.7 32.7z"/>
  </g>
</svg>
