<svg xmlns="http://www.w3.org/2000/svg" width="120" height="60" viewBox="0 0 9.252 4.626" version="1.1">
  <g transform="matrix(.04568 0 0 .04568 .323 6.543)">
    <path d="M162.631-106.325c-2.777 0-5.197 1.612-6.271 3.941-6.898.09-27.77.627-43.984 3.225-7.795 1.254-14.424 2.777-18.813 4.031-4.121-4.569-12.363-12.094-22.127-16.84 2.508-.539 5.286-1.166 8.242-1.703 10.123-1.702 23.382-2.33 31.175-2.509a4.757 4.757 0 0 0 4.211 2.51c2.688 0 4.836-2.15 4.836-4.749a4.815 4.815 0 0 0-4.836-4.837c-2.061 0-3.943 1.433-4.57 3.314-6.896.18-21.857.716-33.683 2.598a148.063 148.063 0 0 0-12.004 2.418c-.269-.09-.537-.179-.896-.358-5.644-2.15-11.198-3.494-16.394-4.3a68.522 68.522 0 0 1 5.105-1.702c5.196-1.433 12.184-2.508 16.215-3.046a2.716 2.716 0 0 0 2.419 1.076c1.344-.179 2.329-1.434 2.239-2.778-.179-1.433-1.433-2.418-2.866-2.239-1.075.09-1.881.896-2.15 1.971-3.673.448-11.466 1.613-17.558 3.226-3.583.985-6.54 2.15-8.421 2.866a92.868 92.868 0 0 0-11.915-.448A53.008 53.008 0 0 1 34.616-122c4.838-1.433 11.557-2.508 14.691-2.957.269.27.627.448 1.075.448.717 0 1.434-.627 1.434-1.433 0-.717-.717-1.344-1.434-1.344s-1.344.538-1.434 1.165c-2.956.537-9.585 1.612-14.781 3.135-2.598.806-5.017 1.702-6.719 2.508-3.673.27-6.629.627-8.6.985.807-.358 1.971-.985 3.314-1.522 2.957-1.165 7.077-2.24 8.779-2.688.18.09.27.18.448.18a.613.613 0 0 0 .627-.628c0-.358-.269-.717-.627-.717-.269 0-.538.27-.626.537-1.434.36-5.734 1.523-9.048 2.777-2.15.896-4.031 1.971-4.837 2.508-.538.09-.807.18-.807.18l.179.447s1.434-.18 4.032-.18c-.358.18-.626.358-.985.538-.807.537-1.792 1.164-2.419 1.612-.09 0-.179-.09-.358-.09-.448 0-.896.448-.896.985 0 .448.448.896.896.896a.898.898 0 0 0 .896-.896v-.268c.627-.448 1.702-1.254 2.509-1.792.627-.358 1.344-.716 1.881-.896 1.971 0 4.3.18 6.898.448-.627.27-1.613.717-2.687 1.344-1.165.716-2.599 1.702-3.494 2.418-.269-.089-.448-.089-.717-.089a1.51 1.51 0 0 0-1.523 1.523c0 .896.716 1.522 1.523 1.522.896 0 1.612-.626 1.612-1.522 0-.09 0-.269-.089-.359.806-.537 2.866-2.06 4.389-2.956 1.165-.627 2.419-1.254 3.314-1.612 4.032.537 8.78 1.523 13.796 3.046-1.343.358-3.583 1.164-6.092 2.33-2.687 1.253-5.823 3.045-7.883 4.3-.358-.18-.716-.359-1.164-.359a2.79 2.79 0 0 0-2.777 2.777 2.79 2.79 0 0 0 2.777 2.777c1.523 0 2.688-1.254 2.777-2.687 1.792-1.075 5.912-3.494 8.958-4.927 2.777-1.254 6.002-2.329 7.704-2.867a81.142 81.142 0 0 1 22.217 12.272c-1.881.358-7.077 1.344-13.796 3.853-5.196 1.881-11.198 4.748-15.05 6.63a5.292 5.292 0 0 0-2.061-.448 4.912 4.912 0 0 0-4.927 4.926 4.913 4.913 0 0 0 4.927 4.928c2.688 0 4.927-2.24 4.927-4.928 0-.09-.09-.18-.09-.268 3.942-1.883 10.392-4.838 15.229-6.54 5.913-2.15 12.631-3.674 15.408-4.3 4.121 3.762 7.346 7.613 11.198 12.63 1.433 1.791 5.285-3.584 31.533-7.883 12.9-2.06 28.488-3.583 37.895-3.853 1.164 2.24 3.404 3.673 6.092 3.673a6.806 6.806 0 0 0 6.809-6.809 6.801 6.801 0 0 0-6.808-6.804z" style="clip-rule:evenodd;fill:#5a6979;fill-rule:evenodd"/>
    <path d="M11.593-64.4v-1.434c0-1.164.089-2.33.089-3.584.448 0 .896-.09 1.523-.09 1.522 0 3.225.36 3.225 2.42 0 2.061-1.881 2.688-3.762 2.688zM9.98-62.07c0 1.612-.089 3.315-.179 4.927.627-.09 1.344-.09 1.971-.09s1.254.09 1.881.09c2.33 0 5.017-.986 5.017-3.762 0-2.15-1.433-3.137-3.852-3.227 1.971-.447 3.314-1.52 3.314-3.314 0-2.148-1.882-2.775-4.121-2.775-.717 0-1.434.088-2.061.088-.716 0-1.433 0-2.149-.088.089 1.611.179 3.314.179 4.926zm1.613-1.613h.896c2.598 0 4.3.537 4.3 2.688 0 2.061-1.433 3.135-3.136 3.135-.716 0-1.433 0-1.971-.09 0-1.254-.089-2.508-.089-3.762zm24.097.627h-4.3l2.15-4.838zM33.81-70.4c-2.061 4.39-4.121 8.867-6.181 13.258.269-.09.448-.09.716-.09.27 0 .449 0 .717.09.358-1.164 1.075-3.135 1.881-5.016.807-.09 1.613-.09 2.419-.09.896 0 1.792 0 2.598.09.717 1.611 1.702 3.762 2.061 5.016.358-.09.716-.09.985-.09.358 0 .717 0 1.075.09-1.075-1.97-4.031-8.869-5.913-13.258zm26.068 12.45c-.538.36-2.15 1.076-4.121 1.076-4.121 0-7.167-2.51-7.167-6.809 0-4.3 3.045-6.719 7.346-6.719 1.702 0 3.225.357 4.3.807-.18.357-.358 1.074-.358 1.521h-.179c-.538-.537-1.881-1.7-3.762-1.7-3.046 0-5.465 1.88-5.465 6.091s2.418 6.092 5.465 6.092c1.881 0 3.314-.986 4.031-1.523h.089zm10.84-4.12v-3.226c0-1.61-.09-3.225-.18-4.926.358.088.717.088.985.088.358 0 .627 0 .985-.088-.089 1.701-.179 3.314-.179 4.926v1.076c0 .088.09.088.09.088.089 0 .179 0 .358-.178 1.792-1.523 4.031-3.854 5.913-5.912.269.088.538.088.806.088.269 0 .627 0 .896-.088-1.792 1.521-4.837 4.39-6.271 5.912 2.15 2.328 4.3 4.748 6.54 7.166-.358-.09-.807-.09-1.165-.09s-.717 0-1.075.09c-1.881-2.24-4.927-5.645-5.733-6.539-.09-.09-.18-.09-.269-.09 0 0-.09 0-.09.09v1.611c0 1.703.09 3.316.179 4.928-.358-.09-.627-.09-.985-.09-.269 0-.627 0-.985.09.09-1.61.18-3.224.18-4.927zm21.59-7.437H94.1c1.971 0 3.315.45 3.315 2.6 0 2.598-2.061 3.225-3.673 3.225-.448 0-.985-.09-1.433-.18v-5.645zm-1.613 7.436c0 1.703-.09 3.316-.179 4.928.358-.09.626-.09.985-.09.269 0 .627 0 .985.09-.089-1.61-.179-3.225-.179-4.928v-.984h1.613c1.881 0 5.285-.627 5.285-3.94 0-3.138-3.135-3.226-4.3-3.226-.538 0-1.881.088-2.508.088s-1.254 0-1.881-.088c.089 1.701.179 3.314.179 4.926zm18.813-3.225c0-1.61 0-3.225-.09-4.926.27.088.627.088.896.088.357 0 .627 0 .984-.088-.09 1.701-.18 3.314-.18 4.926 0 3.225.09 5.375.09 7.256 1.883 0 3.494 0 5.465-.268-.09.268-.09.447-.09.627s0 .357.09.537c-1.254-.09-2.418-.09-3.672-.09-1.166 0-2.42 0-3.584.09.09-1.61.09-3.225.09-4.928v-3.224zm24.277 2.24h-4.3l2.15-4.838zm-1.883-7.345c-2.061 4.39-4.119 8.867-6.18 13.258.268-.09.447-.09.717-.09.268 0 .447 0 .715.09a40.112 40.112 0 0 1 1.973-5.016c.807-.09 1.521-.09 2.328-.09.896 0 1.793 0 2.598.09.717 1.611 1.703 3.762 2.061 5.016.359-.09.717-.09 1.076-.09.357 0 .627 0 .984.09-.984-1.97-3.941-8.869-5.912-13.258zm27.594 13.527c-3.047-3.404-6.631-6.988-9.945-10.482-.09.717-.09 1.881-.09 3.852 0 1.613.09 5.645.18 6.361-.268-.09-.447-.09-.717-.09-.268 0-.447 0-.717.09.18-.896.449-5.732.449-8.242 0-2.328 0-4.209-.09-5.016h.268c3.227 3.314 7.615 7.883 10.033 10.213 0-3.404 0-7.078-.178-10.033.268.088.447.088.717.088.178 0 .357 0 .627-.088-.18 1.164-.359 4.926-.359 6.36 0 1.97.09 6.091.09 6.987zm12.094-8.422c0-1.61-.09-3.314-.18-4.926 1.254.088 2.418.088 3.582.088 1.166 0 2.33 0 3.494-.088 0 .178-.09.447-.09.627 0 .178.09.357.09.537-1.611-.09-2.598-.27-5.195-.27 0 .807-.09 1.523-.09 2.42 0 .984.09 2.061.09 2.508 2.328 0 3.584-.09 4.748-.18 0 .18-.09.36-.09.537 0 .27.09.45.09.627-1.344-.178-3.852-.178-4.748-.178-.09.447-.09.895-.09 2.775 0 1.434.09 2.33.09 2.777 1.701 0 4.031 0 5.285-.268v1.164c-1.164-.09-2.328-.09-3.494-.09-1.254 0-2.418 0-3.672.09.09-1.61.18-3.314.18-4.928z" style="clip-rule:evenodd;fill-rule:evenodd"/>
  </g>
</svg>
