<svg version="1.1" xmlns="http://www.w3.org/2000/svg" x="0" y="0" viewBox="0 0 64 64" width="64" height="64" style="enable-background:new 0 0 64 64">
  <path d="M32 6.4 12.3 10v28.3c0 2.2 1 4.5 2.9 7 2.1 2.5 4.5 4.7 7.2 6.6 3 2.2 6.3 4.1 9.6 5.8 3.4-1.7 6.6-3.6 9.6-5.8 2.7-1.9 5.1-4.1 7.2-6.6 1.9-2.5 2.9-4.8 2.9-7V10L32 6.4z" style="fill:#ececec"/>
  <path d="M32 6.4 12.3 10v28.3c0 2.2 1 4.5 2.9 7 2.1 2.5 4.5 4.7 7.2 6.6 3 2.2 6.3 4.1 9.6 5.8V6.4z" style="fill:#ddd"/>
  <path class="st2" d="M53.6 38.4v-4.6h4.6z"/>
  <path class="st2" d="M10.5 38.4v-4.6H5.9z"/>
  <path style="fill:#00c45c" d="m0 16.8 5.8 17h52.4l5.8-17z"/>
  <path class="st4" d="M15.2 22c.2.3.4.7.3 1.2 0 .4-.1.8-.3 1.1-.2.2-.3.3-.6.4.4.1.7.4.9.7.4.7.4 1.6-.1 2.3-.1.2-.3.4-.6.6-.3.2-.5.3-.9.4-.4.1-.7.1-1.1.1H9.6v-7.5h3.6c.8-.2 1.5.1 2 .7zm-4.1.5v1.7h1.8c.3 0 .6-.1.8-.2.2-.2.3-.4.3-.7 0-.3-.1-.6-.4-.7-.3-.1-.6-.1-.9-.1h-1.6zm0 2.9v2h1.8c.3 0 .5 0 .8-.1.3-.2.5-.6.5-.9 0-.3-.2-.7-.5-.8-.2-.1-.5-.1-.7-.1h-1.9z"/>
  <path class="st4" d="M19.2 25.3c.2 0 .4-.1.6-.1.2 0 .3-.2.3-.4s-.1-.4-.2-.5c-.2-.1-.5-.1-.7-.1-.3 0-.6.1-.7.3-.1.2-.2.3-.2.5h-1.4c0-.4.1-.9.4-1.2.5-.6 1.3-.8 2-.8.6 0 1.1.1 1.7.4.5.3.8.8.7 1.4V28c0 .1 0 .3.1.4 0 .1.1.1.2.2v.2h-1.6c-.1-.1-.1-.2-.1-.3v-.4c-.2.2-.4.4-.7.6-.3.2-.7.3-1.1.3-.5 0-.9-.1-1.3-.4-.3-.3-.5-.8-.5-1.2 0-.6.3-1.2.8-1.5.4-.2.8-.3 1.3-.3l.4-.3zm.9.7c-.1.1-.2.1-.3.1-.1 0-.3.1-.4.1h-.3c-.2 0-.5.1-.7.2-.2.1-.3.3-.3.5s.1.4.2.6c.1.1.3.2.5.2.3 0 .6-.1.9-.3.3-.3.5-.6.4-1V26z"/>
  <path class="st4" d="M26.2 25.1c0-.2-.1-.4-.2-.6-.2-.2-.5-.4-.8-.3-.5 0-.9.3-1 .7-.1.3-.2.7-.1 1 0 .3 0 .7.1 1 .1.4.5.7 1 .7.3 0 .5-.1.7-.3.2-.2.2-.5.3-.7h1.5c0 .5-.2.9-.5 1.3-.5.6-1.2 1-2 1-.8.1-1.5-.2-2-.8-.4-.6-.7-1.3-.6-2.1 0-.8.2-1.6.7-2.2.5-.5 1.2-.8 1.9-.8.6 0 1.2.1 1.7.5s.8 1 .8 1.7l-1.5-.1z"/>
  <path class="st4" d="M28.7 21.2h1.4v4.1l1.9-2.2h1.8l-2 2.1 2.1 3.5h-1.8l-1.4-2.4-.6.6v1.8h-1.4z"/>
  <path class="st4" d="M34.6 28.7v-7.5h1.6V24h3v-2.8h1.5v7.5h-1.6v-3.4h-2.9v3.4z"/>
  <path class="st4" d="M43.6 23.1v3.4c0 .2 0 .5.1.7.1.3.5.5.8.4.4 0 .8-.2 1-.6.1-.3.2-.6.1-.9V23h1.5v5.6h-1.4v-.8c0 .1-.1.1-.1.2s-.1.2-.2.2c-.2.2-.4.3-.7.4-.2.1-.5.1-.8.1-.7.1-1.3-.3-1.7-.9-.2-.5-.3-1-.2-1.4V23l1.6.1z"/>
  <path class="st4" d="M53.3 23.8c.4.6.7 1.3.6 2.1 0 .8-.2 1.5-.6 2.2-.4.6-1 .9-1.7.9-.4 0-.8-.1-1.1-.3-.2-.1-.4-.3-.6-.6v.7h-1.4v-7.6H50v2.7l.6-.6c.3-.2.7-.3 1-.3.7 0 1.3.3 1.7.8zm-1.2 3.4c.2-.4.3-.8.3-1.2 0-.3 0-.7-.2-1-.2-.5-.6-.8-1.1-.8-.5 0-.9.3-1.1.7-.1.3-.2.7-.2 1 0 .4.1.8.3 1.2.2.3.6.5 1 .5.4.1.8-.1 1-.4z"/>
</svg>
