<svg xmlns="http://www.w3.org/2000/svg" width="120" height="60" viewBox="0 0 120 60" version="1.1" preserveAspectRatio="xMidYMid">
  <g style="fill:#136ac9" transform="matrix(.19676 0 0 .19676 10 18.08)">
    <path d="M196.71 43.29c-4.318 0-7.838.667-10.451 1.977a13.424 13.424 0 0 0-3.825 2.884V23.198h-10.097v73.6h9.815V92.45a12.817 12.817 0 0 0 3.629 2.835c2.725 1.45 6.407 2.183 10.925 2.183 7.492 0 12.905-1.63 16.094-4.834 3.189-3.203 4.804-8.677 4.804-16.274V64.452c0-7.639-1.615-13.135-4.804-16.335-3.185-3.204-8.599-4.827-16.09-4.827m10.466 22.83v8.568c0 7.394-1.119 10.157-2.048 11.174-1.31 1.426-4.322 2.183-8.7 2.183-4.978 0-8.596-1.061-10.753-3.162-2.15-2.086-3.241-5.58-3.241-10.383v-8.2c0-4.83 1.092-8.339 3.241-10.432 2.157-2.1 5.775-3.162 10.752-3.162 4.382 0 7.39.757 8.7 2.183.93 1.02 2.049 3.795 2.049 11.23"/>
    <path d="M266.67 46.366c-1.522-1.126-3.728-1.912-6.74-2.39-2.812-.456-6.964-.69-12.318-.69-7.138 0-12.08.972-15.115 2.967-3.17 2.082-4.781 5.546-4.781 10.29v2.499h10.07l.034-1.325c.05-2.199.625-3.618 1.755-4.333.888-.569 3.087-1.243 8.512-1.243 7.94 0 10.383.964 11.136 1.532.854.64 1.852 2.353 1.852 6.871v5.406c-1.043-.75-2.267-1.333-3.652-1.77-2.556-.794-6.095-1.178-10.816-1.178-4.518 0-7.89.219-10.327.667-2.56.47-4.555 1.302-5.944 2.462-1.623 1.366-2.8 3.207-3.494 5.444-.666 2.145-.99 4.988-.99 8.681 0 6.49 1.51 11.042 4.488 13.538 2.948 2.47 8.391 3.682 16.644 3.682 4.555 0 8.207-.5 10.838-1.491 1.476-.55 2.752-1.299 3.821-2.229l.162 3.057h9.412V60.371c0-4.292-.324-7.281-.99-9.126-.674-1.935-1.867-3.561-3.558-4.879M261.082 77.4v5.285c0 .98-.3 2.413-2.925 3.6-2.281 1.035-5.707 1.57-10.157 1.57-6.084 0-8.572-.927-9.589-1.699-1.374-1.039-2.07-3.335-2.07-6.803 0-2.992.647-4.992 1.916-5.936.952-.712 3.279-1.563 8.926-1.563 5.09 0 8.806.52 11.042 1.54 1.95.892 2.857 2.168 2.857 4.006"/>
    <path d="M321.163 66.842c-1.17-.55-2.978-.948-5.53-1.238-2.413-.271-5.756-.493-9.961-.652a119.65 119.65 0 0 0-3.031-.094c-6.065-.15-8.41-.749-9.276-1.2-.452-.253-.738-.6-.923-1.089-.124-.365-.346-1.321-.346-3.685 0-1.883.294-4.318 1.683-5.252.726-.486 2.974-1.299 9.83-1.299 6.851 0 9.72.621 10.906 1.152 1.434.629 2.078 1.657 2.078 3.35v1.834h10.146v-1.355c0-5.143-1.536-8.828-4.555-10.963-2.907-2.06-8.136-3.057-15.963-3.057-10.003 0-16.373 1.043-19.46 3.196-3.2 2.23-4.815 6.397-4.815 12.394 0 3.625.43 6.362 1.333 8.361.93 2.082 2.5 3.731 4.63 4.91 1.02.587 3.385 1.302 12.643 1.562 3.068.09 5.504.192 7.31.282 5.971.309 7.786 1.182 8.34 1.675.632.565 1.381 1.984 1.381 5.538 0 2.91-.58 4.842-1.728 5.745-.7.55-3.06 1.472-11.068 1.472-6.814 0-9.63-.84-10.782-1.54-1.487-.9-2.21-2.601-2.21-5.202v-2.489h-10.233v2.688c0 5.835 1.65 9.962 4.883 12.27 3.136 2.236 9.175 3.327 18.443 3.327 4.383 0 7.872-.158 10.36-.467 2.689-.327 4.601-.884 5.844-1.69 2.59-1.585 4.435-3.478 5.462-5.606 1.024-2.112 1.518-5.04 1.518-8.97 0-3.86-.505-6.766-1.552-8.878-1.057-2.206-2.872-3.893-5.357-5.03"/>
    <path d="m374.381 79.379-.105 1.235c-.245 2.782-1.088 4.724-2.504 5.756-1.028.76-3.354 1.664-8.538 1.664h-3.479c-5.737 0-8.075-1.205-9.02-2.214-.964-1.028-2.116-3.508-2.116-9.48 0-1.099.015-1.95.03-2.567 0-.128.008-.245.008-.369l36.145-.056v-8.915c0-7.71-1.645-13.23-4.89-16.395-3.275-3.208-8.734-4.77-16.681-4.77h-3.471c-7.914 0-13.346 1.562-16.61 4.77-3.272 3.218-4.86 8.58-4.86 16.391v11.9c0 7.778 1.6 13.128 4.89 16.347 3.279 3.211 8.734 4.77 16.677 4.77h3.479c7.01 0 12.265-1.314 15.605-3.9 3.418-2.647 5.364-6.935 5.763-12.74l.106-1.454-10.428.027zm.03-15.24h-25.694v-.59c0-4.244.715-7.229 2.093-8.626.949-.96 3.264-2.115 8.949-2.115h3.479c5.718 0 8.079 1.16 9.05 2.127 1.382 1.393 2.123 4.367 2.123 8.61z"/>
    <path d="M438.227 42.153h-16.802L407.39 58.865V21.39h-13.722v77.22h13.722V77.768l16.817 20.84h17.566l-25.235-30.926Z"/>
    <path d="M442.703 21.391h13.726V36.1h-13.726z"/>
    <path d="M442.703 42.153h13.726v56.456h-13.726z"/>
    <path d="M494.366 74.616v4.642c0 4.582-.866 5.76-1.043 5.952-.154.17-1.133 1.024-4.939 1.024-2.97 0-4.544-.56-5.022-1.088-.256-.282-1.103-1.543-1.103-5.888V54.807h24.587V42.15H482.26V30.863h-13.771v11.283h-6.148v12.657h6.155v23.401c0 7.612 1.344 12.88 4.134 16.09 2.857 3.298 7.699 4.974 14.38 4.974 8.359 0 13.87-1.521 16.852-4.646 2.944-3.08 4.382-8.452 4.382-16.422v-3.584z"/>
    <path d="M63.703 54.449c2.371-.41 3.986-1.49 4.849-3.226.87-1.736 1.302-4.006 1.302-6.818 0-2.733-.455-4.781-1.359-6.14-.685-.863-1.671-1.45-2.97-1.766-1.292-.313-3.366-.475-6.212-.475H39.895v18.617h19.233c2.207-.008 3.735-.068 4.575-.192z"/>
    <path d="M138.296 0H11.893C5.323 0 0 5.32 0 11.881v97.416c0 6.554 5.323 11.878 11.889 11.878h126.407c6.566 0 11.89-5.324 11.89-11.878V11.88C150.188 5.32 144.865 0 138.295 0ZM80.508 92.97c-3.177 2.797-8.719 4.186-16.617 4.186H25.833V24.023h36.699c8.467 0 14.132 1.532 16.994 4.596 2.929 2.632 4.382 7.447 4.382 14.43 0 5.52-1.01 9.582-3.023 12.183-1.604 1.905-4.074 3.241-7.41 3.998v.384c3.668.41 6.405 1.547 8.197 3.392 1.795 1.845 2.906 3.885 3.35 6.114.433 2.236.655 4.785.655 7.654 0 7.894-1.728 13.285-5.169 16.195zm37.15 4.186L85.718 59.73l29.414-35.7h17.16L102.72 59.813l32.602 37.35-17.664-.008z"/>
    <path d="M61.65 65.374H39.896v19.784H60.89c2.56 0 4.567-.192 6.028-.565 3.068-1.114 4.6-4.107 4.6-8.979 0-4.028-.617-6.761-1.86-8.192-1.43-1.363-4.096-2.048-8.007-2.048z"/>
  </g>
</svg>
