<svg version="1.1" xmlns="http://www.w3.org/2000/svg" xmlns:xlink="http://www.w3.org/1999/xlink" x="0px" y="0px" viewBox="0 0 120 60" style="enable-background:new 0 0 120 60" xml:space="preserve">
  <g>
    <g>
      <rect x="76.5" y="26.7" class="st0" width="1.9" height="14.1"/>
      <path class="st0" d="M70.4 40.9c-2.1 0-3.9-.7-5.2-1.9-1.3-1.2-2-3.1-2-5.1 0-2 .7-3.8 2-5.1 1.3-1.3 3.1-1.9 5.2-1.9 1.6 0 2.7.2 3.9.9l-.7 1.6c-1-.5-1.9-.7-3.1-.7-1.6 0-2.9.5-3.9 1.4-.9.9-1.5 2.3-1.5 3.8 0 1.5.5 2.9 1.5 3.8 1 .9 2.3 1.4 3.9 1.4 1.2 0 2.1-.2 3.1-.7l.7 1.6C73.1 40.6 72 40.9 70.4 40.9zM41.3 40.9c-1.1 0-2-.3-2.6-.9-.6-.6-.9-1.5-.9-2.6v-9.8h1.9v2.9h3.1v1.6h-3.1v4.6c0 1 .1 1.7.4 2 .3.4.9.4 1.4.4.1 0 .3 0 .5 0 .2 0 .3-.1.5-.1l.1 0 .2 1.6-.1 0c-.2 0-.4.1-.7.1C41.7 40.9 41.4 40.9 41.3 40.9zM33.6 41c-1.1 0-2-.3-2.6-.9-.6-.6-.9-1.5-.9-2.6v-9.8H32v2.9h3.1v1.6H32v4.6c0 1 .1 1.7.4 2 .3.4.8.4 1.4.4.1 0 .3 0 .5 0 .2 0 .3-.1.5-.1l.1 0 .2 1.6-.1 0c-.2 0-.5.1-.7.1C34 41 33.8 41 33.6 41zM7.9 32.9h2.7c.9 0 1.7-.2 2.2-.5.5-.4.8-.9.8-1.5 0-.6-.2-1.1-.7-1.5-.5-.3-1.2-.5-2.2-.5H7.9C7.9 28.9 7.9 32.9 7.9 32.9zM7.9 39h2.9c2.3 0 3.4-.7 3.4-2.2s-1.1-2.2-3.4-2.2H7.9V39zM5.9 40.8V27.2h4.9c1.4 0 2.6.3 3.4 1 .9.7 1.3 1.6 1.3 2.6 0 .6-.2 1.2-.5 1.7-.2.3-.5.6-.8.9l-.2.2.3.1c.5.3 1 .6 1.3 1.1.4.6.7 1.3.7 2 0 1.2-.5 2.2-1.4 2.9-.9.7-2.2 1-3.7 1H5.9L5.9 40.8zM97.5 40.9c-1.3 0-2.5-.4-3.2-1.2-.8-.8-1.1-1.9-1.1-3.4v-5.7H95v5.7c0 1 .2 1.8.7 2.3.4.4 1.1.7 2 .7l0 0c.6 0 1.1-.1 1.6-.3.4-.2.8-.5 1.1-.8l0-.1v-7.5h1.9v10.1h-1.9V40l-.3.2c-.3.2-.6.3-.9.4C98.6 40.8 98.1 40.9 97.5 40.9zM109.6 32c-.9 0-1.8.4-2.3 1-1.1 1.3-1.1 4 0 5.3.5.6 1.4 1 2.3 1 .5 0 1-.1 1.5-.3.4-.2.8-.4 1.1-.8l0-.1v-5l0-.1c-.3-.3-.7-.6-1.1-.8C110.6 32.1 110.1 32 109.6 32zM109.4 40.9c-1.4 0-2.7-.5-3.5-1.5-1.8-2-1.8-5.6 0-7.6.9-.9 2.2-1.5 3.5-1.5.6 0 1.1.1 1.6.3.3.1.6.2.9.4l.3.2v-4.6h1.9v14.1h-1.9v-.6l-.3.2c-.3.2-.6.3-.9.4C110.5 40.8 110 40.9 109.4 40.9zM23.1 32c-.8 0-1.5.3-2 .8-.4.4-.7 1.1-.8 1.8l0 .2h5.6l0-.2c-.1-.7-.4-1.4-.8-1.8C24.5 32.3 23.8 32 23.1 32zM23.5 40.9c-1.6 0-2.9-.5-3.8-1.4-.9-.9-1.4-2.3-1.4-3.9 0-1.5.4-2.9 1.3-3.8.8-.9 2.1-1.5 3.5-1.5s2.6.5 3.5 1.5c.9.9 1.3 2.3 1.3 3.9v.3l0 .3 0 .1h-7.5l0 .2c.1.8.4 1.4 1 1.9.6.5 1.4.8 2.3.8 1.3 0 2.1-.2 2.8-.7l.7 1.4C26.2 40.6 25 40.9 23.5 40.9zM49.4 32c-.8 0-1.5.3-2 .8-.4.4-.7 1.1-.8 1.8l0 .2h5.6l0-.2c-.1-.7-.4-1.4-.8-1.8C50.9 32.3 50.2 32 49.4 32zM49.9 40.9c-1.6 0-2.9-.5-3.8-1.4-.9-.9-1.4-2.3-1.4-3.9 0-1.5.4-2.9 1.3-3.8.8-.9 2.1-1.5 3.5-1.5s2.6.5 3.5 1.5c.9.9 1.3 2.3 1.3 3.9v.3l0 .3 0 .1h-7.6l0 .2c.1.8.5 1.4 1 1.9.6.5 1.4.8 2.3.8 1.3 0 2.1-.2 2.8-.7l.7 1.4c-.6.4-1.1.6-1.8.8C51.2 40.9 50.6 40.9 49.9 40.9zM85.8 32.1c-.9 0-1.8.4-2.3 1-1.1 1.3-1.1 4 0 5.3.5.6 1.4 1 2.3 1 .9 0 1.8-.4 2.3-1 1.1-1.3 1.1-4 0-5.3C87.5 32.4 86.7 32.1 85.8 32.1zM85.8 41c-1.4 0-2.8-.5-3.7-1.5-1.9-2-1.9-5.7 0-7.6.9-.9 2.2-1.5 3.7-1.5 1.4 0 2.8.5 3.7 1.5 1.9 2 1.9 5.7 0 7.6C88.5 40.5 87.2 41 85.8 41zM58.6 31.3l-.3.2v-.9h-1.9v10.1h1.9v-6.9l0 0c.4-1 1.5-1.6 2.9-1.7.1-.6.2-1.2.3-1.7C60.4 30.4 59.3 30.8 58.6 31.3z"/>
      <path d="M40.1,24.6c-2.9-2.4-4.9-1.7-5.7-1.6c-1.7,0.3-3.3,2.6-3.3,2.7l0,0c2.5-3.6,6.2-2.1,7.8,0.2 c0.7-1,12.2-10,22.2,0.6c0,0,0.1,0.1,0.1,0.1c0.9,0,2.4,0,3.3,0c-1-1.2-2.4-2.8-4.2-3.9C55.9,19.7,47.9,18.1,40.1,24.6L40.1,24.6z" style="fill:#5BC9EE"/>
      <path d="M68.5,24.2c-2.6-3.4-8.5-5.7-11.8-4.6c3-0.6,8.8,3.4,9.3,4.6c0,0,0,0,0,0C66.7,24.2,67.9,24.2,68.5,24.2 C67.9,23.3,68.6,24.3,68.5,24.2z" style="fill:#00ABE4"/>
      <path d="M72.1,23.1c-1.8-3.2-6.9-4.6-9.1-3.9c2-0.3,6,1.9,7.3,3.9c0,0-0.2,0-0.2,0C70.4,23.1,71.7,23,72.1,23.1 C71.7,22.4,72.1,23.1,72.1,23.1z" style="fill:#448CBA"/>
    </g>
  </g>
</svg>
