<svg version="1.1" xmlns="http://www.w3.org/2000/svg" xmlns:xlink="http://www.w3.org/1999/xlink" x="0px" y="0px" viewBox="0 0 120 60" style="enable-background:new 0 0 120 60" xml:space="preserve">
  <polygon points="60.5,29.7 46.5,43.7 10,43.7 10,15.7 46.5,15.7" style="fill:#007976"/>
  <g>
    <path d="M80.4 20c0 1-.5 1.9-1.6 2.4 1.5.4 2 2 2 2.8 0 2.8-2.1 3.7-4.7 3.7-2 0-3.9 0-5.9 0V16.4c2 0 3.9 0 5.9 0C78.6 16.4 80.4 17.5 80.4 20zM72.5 21.4h3.6c1.5 0 2-.6 2-1.3 0-.6-.5-1.5-2-1.5h-3.6V21.4zM72.5 26.6h3.6c1 0 2.3-.3 2.3-1.5 0-1.1-1.4-1.7-2.3-1.7h-3.6V26.6zM84.7 17.6c0 1.7-2.6 1.7-2.6 0S84.7 15.9 84.7 17.6zM82.3 20v8.8h2.2V20H82.3zM89.5 17.6v2.5h2.4v1.9h-2.4v3.8c0 .8.5 1.2 1.1 1.2.3 0 .7-.1 1.1-.3l.6 1.9c-.6.2-1.1.4-1.8.4-1.9.1-3.2-1-3.2-3.2v-3.8h-1.6v-1.9h1.6v-2.3L89.5 17.6zM76.2 40.3h-3.5V44h-2.4V31.5c2 0 3.9 0 5.9 0C82.3 31.5 82.3 40.3 76.2 40.3zM72.6 38.2h3.5c3 0 3-4.4 0-4.4h-3.5V38.2zM83.7 40.4c.1 1.1 1.1 1.9 2.6 1.9.8 0 1.9-.3 2.4-.8l1.4 1.4c-.9 1-2.4 1.4-3.8 1.4-3 0-4.8-1.9-4.8-4.7 0-2.7 1.8-4.6 4.7-4.6 2.9 0 4.8 1.8 4.4 5.4H83.7zM88.4 38.6c-.1-1.1-1-1.7-2.3-1.7-1.2 0-2.1.6-2.5 1.7H88.4zM97.9 37.6c-.6-.6-1.3-.8-2.2-.8-1 0-1.6.3-1.6.9 0 .6.5.9 1.6 1 1.7.1 3.8.5 3.8 2.8 0 1.6-1.3 2.9-3.8 2.9-1.4 0-2.8-.2-4.1-1.6l1.1-1.6c.6.7 2.1 1.2 3 1.2.8 0 1.6-.4 1.6-1.1 0-.6-.5-.9-1.7-.9C94 40.3 92 39.7 92 37.7c0-2 2.1-2.7 3.7-2.7 1.4 0 2.4.3 3.4 1.2L97.9 37.6zM107.9 35.2h2.1V44h-2.1l-.1-1.3c-.5 1-1.9 1.5-2.9 1.6-2.6 0-4.5-1.6-4.5-4.7 0-3 2-4.6 4.6-4.6 1.2 0 2.3.6 2.8 1.4L107.9 35.2zM102.6 39.6c0 1.7 1.2 2.7 2.6 2.7 3.4 0 3.4-5.3 0-5.3C103.8 36.9 102.6 37.9 102.6 39.6z"/>
  </g>
</svg>
