<svg version="1.1" xmlns="http://www.w3.org/2000/svg" xmlns:xlink="http://www.w3.org/1999/xlink" x="0" y="0" viewBox="0 0 64 64" width="64" height="64" style="enable-background:new 0 0 64 64">
  <path class="st0" d="M42.9 51.3c-.6 0-1.1-.5-1.1-1.1 0-.4.2-.7.5-.9 1.4-.9 2.7-1.9 3.9-3 7.9-7.9 7.9-20.7 0-28.6-3.6-3.6-8.4-5.7-13.4-5.9-.6-.1-1-.6-.9-1.2.1-.5.5-.9 1-.9 12.3.6 21.8 11 21.3 23.3-.3 7.5-4.4 14.3-10.8 18.1-.1.1-.3.2-.5.2zm-16.8 2.2h-.3c-3.6-1.1-6.9-3-9.5-5.7-8.7-8.7-8.7-22.9 0-31.6 3-3 6.9-5.1 11-6 .6-.1 1.1.2 1.2.8.1.6-.2 1.1-.8 1.2-3.8.8-7.3 2.7-10 5.5-7.9 7.9-7.9 20.7 0 28.6 2.4 2.4 5.4 4.2 8.6 5.1.6.2.9.8.7 1.3-.1.5-.5.8-.9.8z"/>
  <path class="st0" d="M32 59.2c-11 0-20.9-6.7-25.1-16.8-.2-.5 0-1.2.6-1.4.5-.2 1.2 0 1.4.6 5.3 12.8 19.9 18.9 32.7 13.6.7-.3 1.4-.6 2-1 .5-.3 1.2 0 1.4.5.3.5.1 1.1-.4 1.4-3.9 2-8.2 3.1-12.6 3.1zm15.5-5.1c-.6 0-1.1-.5-1.1-1.1 0-.3.2-.7.4-.9 1-.8 2-1.6 2.9-2.5 1.9-1.9 3.5-4.2 4.8-6.6.2-.5.9-.8 1.4-.5.5.2.8.9.5 1.4v.1c-1.9 3.9-4.8 7.3-8.3 9.8-.2.2-.4.3-.6.3zm9.2-12.6c-.1 0-.2 0-.3-.1-.6-.2-.8-.8-.7-1.3 3.1-9 .8-19.1-6-25.8-9.8-9.8-25.6-9.8-35.4 0C9.7 18.9 7.1 25 7 31.5c0 .6-.5 1-1.1 1-.6 0-1-.5-1-1.1.1-7 3-13.7 7.9-18.6 10.6-10.6 27.8-10.6 38.4 0 7.4 7.4 9.9 18.1 6.5 28-.2.4-.6.7-1 .7z"/>
  <path class="st0" d="M16.6 6.2c-.6 0-1.1-.5-1.1-1.1 0-.4.2-.7.5-.9 7.7-4.4 17-5.4 25.5-2.8.6.2.9.8.7 1.3-.2.5-.8.8-1.3.7C32.9 1 24.3 2 17.1 6.1c-.2.1-.3.1-.5.1zM4.9 18.1c-.6 0-1.1-.5-1.1-1.1 0-.2 0-.4.1-.5 1.5-2.6 3.3-5.1 5.4-7.2 1.1-1.1 2.2-2.1 3.4-3 .5-.3 1.2-.3 1.6.2.4.4.4 1.1-.1 1.5 0 0-.1.1-.2.1-1.1.9-2.2 1.8-3.2 2.8-2 2-3.7 4.2-5.1 6.7-.1.3-.4.5-.8.5zM32 64C14.4 64 0 49.7 0 32.1c0-4 .8-8.1 2.2-11.8.2-.5.9-.8 1.4-.6.5.2.8.8.6 1.3C-1.9 36.4 5.7 53.7 21 59.8c4.9 1.9 10.3 2.5 15.5 1.8.6 0 1.1.4 1.1 1 0 .5-.3 1-.8 1.1-1.6.2-3.2.3-4.8.3zm10-1.7c-.6 0-1.1-.5-1.1-1.1 0-.5.3-.9.7-1 4.3-1.5 8.2-3.9 11.4-7.1.8-.8 1.5-1.6 2.2-2.5.4-.5 1-.5 1.5-.2.5.4.5 1 .2 1.5l-2.4 2.7c-3.4 3.5-7.6 6.1-12.2 7.6 0 .1-.1.1-.3.1zm20.1-22h-.2c-.6-.1-.9-.7-.8-1.3 2.4-10.2-.5-20.7-7.9-28.1-.4-.4-.4-1.1 0-1.5.4-.4 1-.4 1.5 0 7.9 7.9 11.1 19.2 8.5 30.1-.2.4-.6.8-1.1.8z"/>
  <circle class="st0" cx="32" cy="31.8" r="10"/>
  <defs>
    <circle id="a" cx="32" cy="31.8" r="10"/>
  </defs>
  <clipPath>
    <use xlink:href="#a" style="overflow:visible"/>
  </clipPath>
  <path class="st1" d="m22 37.6 7.3 4.2H22z"/>
  <path class="st1" d="m22 37.2 8.1 4.6h-.8L22 37.6z"/>
  <path class="st1" d="m22 36.7 8.8 5.1h-.7L22 37.2zm0-.4 9.6 5.5h-.8L22 36.7z"/>
  <path class="st1" d="m22 35.9 10.3 5.9h-.7L22 36.3zm0-.5 11.1 6.4h-.8L22 35.9z"/>
  <path class="st1" d="m22 35 11.9 6.8h-.8L22 35.4z"/>
  <path class="st1" d="m22 34.6 12.6 7.2h-.7L22 35z"/>
  <path class="st1" d="m22 34.1 13.4 7.7h-.8L22 34.6z"/>
  <path class="st1" d="m22 33.7 14.1 8.1h-.7L22 34.1z"/>
  <path class="st1" d="m22 33.2 14.9 8.6h-.8L22 33.7zm0-.4 15.6 9h-.7L22 33.2z"/>
  <path class="st1" d="m22 32.4 16.4 9.4h-.8l-15.6-9zm0-.5 17.2 9.9h-.8L22 32.4z"/>
  <path class="st1" d="m22 31.5 17.9 10.3h-.7L22 31.9z"/>
  <path class="st1" d="m22 31.1 18.5 10.6-.1.1h-.5L22 31.5z"/>
  <path class="st1" d="m22 30.6 18.7 10.8-.2.3L22 31.1zm0-.4 18.9 10.9-.2.3L22 30.6zm0-.5 19.1 11.1-.2.3L22 30.2z"/>
  <path class="st1" d="m22 29.3 19.2 11.1-.1.4L22 29.7zm0-.4 19.4 11.2-.2.3L22 29.3z"/>
  <path class="st1" d="m22 28.4 19.6 11.4-.2.3L22 28.9z"/>
  <path class="st1" d="m22 28 19.8 11.4-.2.4L22 28.4z"/>
  <path class="st1" d="m22 27.6 20 11.5-.2.3L22 28z"/>
  <path class="st1" d="m22 27.1 20 11.6v.4L22 27.6zm0-.4 20 11.6v.4L22 27.1z"/>
  <path class="st1" d="m22 26.2 20 11.6v.5L22 26.7z"/>
  <path class="st1" d="m22 25.8 20 11.6v.4L22 26.2z"/>
  <path class="st1" d="M22 25.4 42 37v.4L22 25.8z"/>
  <path class="st1" d="m22 24.9 20 11.6v.5L22 25.4z"/>
  <path class="st1" d="M22 24.6v-.1l20 11.6v.4L22 24.9z"/>
  <path class="st1" d="m22 24.5.2-.3L42 35.6v.5z"/>
  <path class="st1" d="m22.2 24.2.2-.3L42 35.2v.4zm.2-.3.2-.4L42 34.8v.4z"/>
  <path class="st1" d="m22.6 23.5.2-.3L42 34.3v.5z"/>
  <path class="st1" d="m22.8 23.2.2-.3 19 11v.4z"/>
  <path class="st1" d="m23 22.9.2-.3L42 33.5v.4z"/>
  <path class="st1" d="m23.2 22.6.1-.4L42 33v.5zm.1-.4.2-.3L42 32.6v.4z"/>
  <path class="st1" d="m23.5 21.9.1-.1h.5L42 32.1v.5z"/>
  <path class="st1" d="M24.9 21.8 42 31.7v.4L24.1 21.8zm.7 0L42 31.3v.4l-17.1-9.9z"/>
  <path class="st1" d="m26.4 21.8 15.6 9v.5l-16.4-9.5zm.7 0L42 30.4v.4l-15.6-9zm.8 0L42 30v.4l-14.9-8.6z"/>
  <path class="st1" d="M28.6 21.8 42 29.5v.5l-14.1-8.2z"/>
  <path class="st1" d="M29.4 21.8 42 29.1v.4l-13.4-7.7z"/>
  <path class="st1" d="M30.2 21.8 42 28.6v.5l-12.6-7.3zm.7 0L42 28.2v.4l-11.8-6.8zm.8 0 10.3 6v.4l-11.1-6.4z"/>
  <path class="st1" d="m32.4 21.8 9.6 5.5v.5l-10.3-6zm.8 0 8.8 5.1v.4l-9.6-5.5zm.7 0 8.1 4.7v.4l-8.8-5.1z"/>
  <path class="st1" d="M34.7 21.8 42 26v.5l-8.1-4.7z"/>
  <path class="st1" d="m42 26-7.3-4.2H42z"/>
  <path class="st0" d="M31.9 47.8c-8.8 0-16-7.2-16-16s7.2-16 16-16c6 0 11.5 3.3 14.2 8.7.3.6 0 1.2-.5 1.5-.5.3-1.2 0-1.5-.5-3.5-6.7-11.7-9.4-18.5-5.9s-9.4 11.7-5.9 18.5 11.7 9.4 18.5 5.9c4.6-2.3 7.4-7.1 7.4-12.2 0-.6.5-1.1 1.1-1.1.6 0 1.1.5 1.1 1.1 0 8.8-7.1 16-15.9 16z"/>
</svg>
