<svg xmlns:svg="http://www.w3.org/2000/svg" xmlns="http://www.w3.org/2000/svg" version="1.1" x="0px" y="0px" viewBox="0 0 120 60" enable-background="new 0 0 220 75" xml:space="preserve">
  <g transform="matrix(0.48315481,0,0,0.48315481,8.5829067,16.267049)">
    <path d="m 75.467,40.862 c -0.546,0.161 -1.176,0.319 -1.886,0.472 -0.713,0.154 -1.458,0.279 -2.238,0.387 -0.782,0.115 -1.576,0.201 -2.387,0.268 -0.802,0.072 -1.576,0.105 -2.318,0.105 -1.782,0 -3.366,-0.258 -4.764,-0.779 -1.393,-0.521 -2.571,-1.266 -3.53,-2.237 -0.961,-0.97 -1.693,-2.152 -2.197,-3.532 -0.509,-1.382 -0.76,-2.939 -0.76,-4.665 0,-1.749 0.222,-3.331 0.655,-4.742 0.438,-1.41 1.072,-2.603 1.89,-3.589 0.824,-0.99 1.829,-1.741 3.019,-2.261 1.191,-0.519 2.551,-0.781 4.086,-0.781 0.848,0 1.608,0.085 2.278,0.246 0.671,0.162 1.348,0.4 2.034,0.698 v -5.147 l 6.117,-0.984 V 40.862 Z M 61.628,30.596 c 0,1.888 0.423,3.409 1.274,4.553 0.85,1.158 2.109,1.732 3.78,1.732 0.546,0 1.055,-0.022 1.518,-0.065 0.463,-0.042 0.847,-0.087 1.149,-0.142 V 25.544 C 68.962,25.293 68.464,25.093 67.85,24.928 67.232,24.767 66.61,24.68 65.982,24.68 c -2.9,0 -4.354,1.972 -4.354,5.916" style="fill:#003f62"/>
    <g>
      <path style="fill:#003f62" d="M2.933 30.759c0-1.561.251-3.032.759-4.416.509-1.383 1.24-2.584 2.197-3.613.959-1.024 2.122-1.841 3.493-2.442 1.366-.6 2.926-.904 4.678-.904 1.151 0 2.206.103 3.163.308.959.206 1.886.503 2.795.884l-1.273 4.889c-.575-.224-1.208-.414-1.891-.582-.685-.159-1.452-.241-2.298-.241-1.808 0-3.157.56-4.046 1.683-.892 1.12-1.334 2.6-1.334 4.434 0 1.946.417 3.448 1.248 4.52.836 1.066 2.294 1.596 4.376 1.596.739 0 1.531-.067 2.384-.202.848-.139 1.624-.356 2.339-.66l.863 5.009c-.712.306-1.602.566-2.672.779-1.066.224-2.244.333-3.528.333-1.973 0-3.672-.295-5.094-.883C7.668 40.662 6.498 39.862 5.58 38.848 4.663 37.836 3.991 36.638 3.567 35.255 3.144 33.875 2.933 32.372 2.933 30.759M30.2 19.384c1.805 0 3.311.208 4.516.617 1.204.414 2.171.997 2.894 1.768.726.765 1.242 1.695 1.542 2.79.3 1.096.449 2.317.449 3.65v12.734c-.873.193-2.095.418-3.654.679-1.559.258-3.449.39-5.668.39-1.392 0-2.66-.124-3.796-.372-1.138-.246-2.113-.65-2.937-1.211-.821-.56-1.453-1.293-1.888-2.193-.44-.907-.659-2.016-.659-3.334 0-1.255.255-2.324.758-3.195.506-.882 1.185-1.579 2.032-2.096.849-.524 1.821-.897 2.919-1.131 1.094-.232 2.23-.351 3.408-.351.794 0 1.5.038 2.114.105.616.067 1.118.157 1.497.264v-.573c0-1.038-.313-1.878-.943-2.505-.631-.632-1.723-.945-3.285-.945-1.04 0-2.068.077-3.079.227-1.012.153-3.429.363-4.171.64l.761-4.927c.351-.115.803-.227 1.333-.353.537-.124 1.117-.233 1.749-.327.626-.095 1.292-.182 1.99-.25.7-.066 1.405-.101 2.118-.101m.491 17.905c.604 0 1.178-.014 1.725-.042.546-.025.986-.066 1.314-.119v-4.644c-.245-.055-.613-.112-1.107-.164-.491-.054-.945-.082-1.354-.082-.578 0-1.114.035-1.622.106-.507.069-.951.194-1.337.384-.383.196-.683.452-.902.785-.217.328-.327.735-.327 1.228 0 .962.319 1.621.962 1.994.643.37 1.525.554 2.648.554M54.053 25.378c-.549-.137-.161-.28-.9-.428-.741-.151-1.534-.226-2.386-.226-.381 0-.841.033-1.373.103-.535.073-.941.143-1.212.224v16.51H42.063V21.113c1.097-.386 2.39-.747 3.883-1.09 1.493-.341 3.157-.514 4.986-.514.334 0 .73.02 1.196.059.463.044.926.099 1.392.167.467.067.931.147 1.398.246.463.097.863.214 1.19.347zM88.267 41.799c-1.829 0-3.427-.276-4.802-.828-1.378-.544-2.534-1.308-3.48-2.299-.94-.98-1.639-2.151-2.102-3.504-.467-1.36-.697-2.857-.697-4.5 0-1.643.251-3.148.761-4.519.506-1.37 1.223-2.551 2.15-3.551.928-.997 2.064-1.779 3.408-2.339 1.35-.563 2.846-.846 4.5-.846 1.01 0 2.025.089 3.041.25 1.012.161 1.982.423 2.91.779l-.913 3.246c-.606-.277-1.312-.493-2.107-.66-.796-.161-1.643-.245-2.542-.245-2.257 0-3.989.673-5.194 2.013-1.202 1.338-1.801 3.298-1.801 5.872 0 1.151.135 2.205.412 3.162.275.96.707 1.779 1.303 2.466.595.686 1.357 1.21 2.284 1.579.925.366 2.053.555 3.39.555 1.067 0 2.038-.098 2.904-.289.872-.191 1.554-.395 2.043-.614l.569 3.203c-.231.134-.569.266-1 .388-.432.119-.927.231-1.478.329-.548.096-1.136.179-1.757.246-.624.069-1.223.106-1.802.106"/>
      <path style="fill:#003f62" d="M115.444 30.88c0 1.7-.265 3.232-.79 4.6-.525 1.372-1.266 2.548-2.218 3.534-.948.984-2.083 1.748-3.401 2.28-1.315.533-2.748.799-4.299.799-1.546 0-2.983-.266-4.299-.799-1.316-.532-2.448-1.297-3.399-2.28-.953-.985-1.691-2.161-2.218-3.534-.527-1.368-.791-2.901-.791-4.6 0-1.668.264-3.193.791-4.576.526-1.383 1.265-2.566 2.218-3.551.951-.983 2.084-1.744 3.399-2.279 1.316-.535 2.753-.801 4.299-.801 1.552 0 2.984.266 4.299.801 1.318.535 2.453 1.296 3.401 2.279.952.985 1.693 2.168 2.218 3.551.525 1.383.79 2.908.79 4.576m-4.255 0c0-2.405-.579-4.313-1.735-5.725-1.158-1.411-2.728-2.114-4.719-2.114-1.99 0-3.562.702-4.713 2.114-1.157 1.412-1.738 3.32-1.738 5.725 0 2.412.581 4.325 1.738 5.731 1.151 1.412 2.722 2.113 4.713 2.113 1.992 0 3.562-.701 4.719-2.113 1.157-1.407 1.735-3.319 1.735-5.731M116.971 20.821c.905-.216 2.101-.453 3.598-.696 1.499-.247 3.219-.372 5.166-.372 1.755 0 3.205.243 4.365.721 1.156.48 2.081 1.15 2.775 2.013.686.864 1.178 1.896 1.464 3.1.276 1.203.42 2.529.42 3.982v11.993h-3.934v-11.17c0-1.317-.094-2.437-.279-3.37-.186-.926-.487-1.679-.912-2.254-.423-.58-.989-.999-1.695-1.255-.709-.26-1.581-.39-2.622-.39-.427 0-.865.014-1.316.04-.45.027-.88.06-1.29.103-.41.043-.776.091-1.103.146-.323.054-.559.097-.701.125V41.563H116.97V20.821ZM137.173 20.821c.9-.216 2.101-.453 3.598-.696 1.496-.247 3.219-.372 5.168-.372 1.753 0 3.2.243 4.363.721 1.158.48 2.081 1.15 2.774 2.013.691.864 1.178 1.896 1.459 3.1.284 1.203.425 2.529.425 3.982v11.993h-3.937v-11.17c0-1.317-.09-2.437-.277-3.37-.184-.926-.487-1.679-.91-2.254-.425-.58-.989-.999-1.695-1.255-.708-.26-1.581-.39-2.626-.39-.42 0-.86.014-1.313.04-.448.027-.88.06-1.292.103-.405.043-.776.091-1.1.146-.325.054-.556.097-.698.125v18.026h-3.938V20.821ZM187.65 42.05c-1.731 0-3.25-.269-4.56-.82-1.306-.547-2.406-1.315-3.297-2.3-.897-.984-1.564-2.153-1.998-3.508-.442-1.354-.664-2.856-.664-4.498 0-1.64.239-3.144.723-4.515.482-1.373 1.164-2.554 2.041-3.553.881-.996 1.96-1.78 3.235-2.341 1.283-.561 2.698-.842 4.274-.842.959 0 1.924.08 2.882.248.964.162 1.885.422 2.764.78l.01 3.429c-.576-.271-1.604-.681-2.36-.842-.756-.166-2.078-.246-2.928-.246-2.147 0-3.793.67-4.927 2.01-1.143 1.34-1.715 3.298-1.715 5.872 0 1.149.132 2.207.395 3.162.258.957.671 1.78 1.236 2.462.564.686 1.285 1.213 2.165 1.584.878.371 1.952.554 3.217.554 1.016 0 1.937-.096 2.769-.288.82-.19 1.467-.396 1.929-.614l.54 3.204c-.222.135-.54.264-.955.388-.405.126-.873.233-1.397.328-.523.095-1.08.177-1.671.246-.588.073-1.159.1-1.708.1M199.74 20.718h9.228v3.207h-9.228v9.855c0 1.064.092 1.949.276 2.643.192.703.473 1.251.843 1.646.378.398.85.676 1.409.842.562.167 1.218.25 1.969.25 1.315 0 2.367-.13 3.165-.395.795-.261 1.348-.442 1.666-.554l.838 3.163c-.433.191-1.204.427-2.297.718-1.09.288-2.337.433-3.749.433-1.658 0-3.023-.185-4.099-.557-1.077-.366-1.944-.927-2.601-1.661-.657-.739-1.121-1.649-1.377-2.73-.266-1.082-.403-2.335-.403-3.759V16.818l4.36-.656zM171.637 38.001c-.96.237-2.105.53-3.505.53-2.473 0-4.325-.748-5.494-1.899-1.047-1.03-1.69-2.489-1.939-4.381v.002c-.027-.214-.049-.422-.065-.62-.003-.015-.003-.029-.013-.046-.169-2.1.126-3.345.126-3.345h.005c.096-.65.256-1.286.492-1.914.271-.713.652-1.344 1.134-1.891.485-.547 1.078-.99 1.772-1.334.694-.343 1.504-.519 2.415-.519 1.621 0 2.894.555 3.826 1.663.92 1.112 1.372 2.528 1.345 4.251l-9.342 1.836c-.017.574.171 1.888.405 2.762l13.04-2.55c.028-.218.042-.455.042-.715v-.639c0-3.664-.798-5.367-2.395-7.162-1.598-1.792-3.891-2.687-6.879-2.684-1.285 0-2.538.23-3.76.696-1.226.467-2.307 1.164-3.251 2.098-.935.933-1.688 2.096-2.259 3.514-.569 1.405-.852 3.06-.852 4.945 0 1.616.223 3.098.663 4.453.443 1.358 1.121 2.524 2.031 3.51.91.987 2.073 1.765 3.478 2.319 1.417.559 3.092.84 5.031.838 1.532 0 2.907-.136 4.119-.41 1.209-.273 3.131-.997 3.612-1.242l-.898-3.05c-.487.22-1.934.757-2.884.984"/>
    </g>
  </g>
</svg>
