<svg xmlns:svg="http://www.w3.org/2000/svg" xmlns="http://www.w3.org/2000/svg" version="1.1" x="0px" y="0px" viewBox="0 0 120 59.999998" enable-background="new 0 0 130.3 40.9" xml:space="preserve">
  <g transform="translate(10.933683)">
    <g transform="matrix(1.6116232,0,0,1.6116232,-45.717895,-22.542159)">
      <path d="m 81.785635,25.49939 c -0.07032,0.210969 -0.351615,0.351615 -0.562584,0.281292 l -3.375503,-1.195491 c -0.210969,-0.07032 -0.351615,-0.351615 -0.281292,-0.562584 l 1.195491,-3.375503 c 0.07032,-0.210969 0.351614,-0.351615 0.562583,-0.281292 l 3.375504,1.19549 c 0.210969,0.07032 0.351615,0.351615 0.281292,0.562584 l -1.195491,3.375504" style="fill:#b2d0e1;stroke-width:0.7032299"/>
      <path d="M88.044381 31.406521c-.07032.210969-.351615.351615-.562584.281292l-3.375503-1.195491c-.210969-.07032-.351615-.351615-.281292-.562584l1.19549-3.375503c.07032-.210969.351615-.351615.562584-.281292l3.375504 1.19549c.210969.07032.351615.351615.281292.562584l-1.195491 3.375504M81.293374 34.571055c-.07032.210969-.351615.351615-.562584.281292l-3.375503-1.195491c-.210969-.07032-.351615-.351615-.281292-.562583l1.195491-3.375504c.07032-.210969.351615-.351615.562584-.281292l3.375503 1.195491c.210969.07032.351615.351615.281292.562584l-1.195491 3.375503" style="fill:#72aac9;stroke-width:0.7032299"/>
      <path d="m 87.55212,39.63431 c -0.07032,0.210969 -0.351615,0.351615 -0.562584,0.281292 l -3.375503,-1.19549 c -0.210969,-0.07032 -0.351615,-0.351615 -0.281292,-0.562584 l 1.195491,-3.375504 c 0.07032,-0.210969 0.351615,-0.351615 0.562583,-0.281292 l 3.375504,1.195491 c 0.210969,0.07032 0.351615,0.351615 0.281292,0.562584 L 87.55212,39.63431" style="fill:#3383b1;stroke-width:0.7032299"/>
      <path d="m 85.864368,44.55692 c -0.07032,0.210969 -0.351615,0.351614 -0.562584,0.281292 l -3.375503,-1.195491 c -0.210969,-0.07032 -0.351615,-0.351615 -0.281292,-0.562584 l 1.195491,-3.375504 c 0.07032,-0.210969 0.351615,-0.351615 0.562584,-0.281292 l 3.375503,1.195491 c 0.210969,0.07032 0.351615,0.351615 0.281292,0.562584 l -1.195491,3.375504" style="fill:#00649e;stroke-width:0.7032299"/>
      <path d="m 80.871436,42.798845 c -0.07032,0.210969 -0.351615,0.351615 -0.562584,0.281292 l -3.375503,-1.195491 c -0.210969,-0.07032 -0.351615,-0.351615 -0.281292,-0.562584 l 1.195491,-3.375503 c 0.07032,-0.210969 0.351615,-0.351615 0.562584,-0.281292 l 3.375503,1.195491 c 0.210969,0.07032 0.351615,0.351614 0.281292,0.562583 l -1.195491,3.375504" style="fill:#3383b1;stroke-width:0.7032299"/>
    </g>
    <g transform="translate(0,0.518951)">
      <path d="m 55.555161,23.881961 c 1.336136,0 2.390981,-1.054845 2.390981,-2.390982 0,-1.336136 -1.054845,-2.390981 -2.390981,-2.390981 -1.336137,0 -2.390982,1.054845 -2.390982,2.390981 0,1.336137 1.054845,2.390982 2.390982,2.390982" style="fill:#ed6f41;stroke-width:0.7032299"/>
      <path d="M71.729448 27.468433c-1.265814-1.406459-3.023889-2.039366-5.274224-2.039366v0c-2.10969 0-3.867765.70323-5.203901 2.180012-1.336137 1.40646-1.969044 3.305181-1.969044 5.555517 0 2.390981.632907 4.289702 1.898721 5.696162 1.265813 1.406459 3.023888 2.109689 5.274224 2.180012v0c2.250335 0 3.938087-.70323 5.203901-2.109689 1.265814-1.40646 1.89872-3.305181 1.89872-5.696163.07032-2.461304-.562583-4.360025-1.828397-5.766485m-2.672274 9.352958c-.632907.843876-1.476783 1.265814-2.60195 1.265814v0c-2.390982 0-3.51615-1.617429-3.51615-4.922609 0-1.547106.281292-2.672274.984522-3.586473.632907-.843876 1.476783-1.265814 2.531628-1.265814v0c2.390981 0 3.516149 1.617429 3.516149 4.852287 0 1.617428-.281292 2.812919-.914199 3.656795M57.805496 25.358744h-5.41487v0c-.562584 0-.984522.70323-.984522 1.476783 0 .843875.421938 1.476782.984522 1.476782v0h1.898721v11.462647 0 0 0c0 .562584.773553 1.054845 1.758074 1.054845.984522 0 1.758075-.492261 1.758075-1.054845v0-14.416212M44.795743 25.49939H31.645345c-2.601951.07032-4.992933 1.40646-4.992933 4.219379 0 2.390982 1.336137 3.516149 3.094212 4.360025 1.195491.632907 2.320659.773553 2.812919 1.687752.421938.914199.140646 2.250336-1.476782 2.320659h-4.430349c-1.265813 0-1.89872-.351615-1.89872-1.758075v-3.375503c0-2.883243-.492261-4.852287-1.547106-5.907131-.984522-.984522-2.531628-1.547106-4.570994-1.617429v0h-2.601951c-.562584 0-.984522.632907-.984522 1.476783 0 .843875.421938 1.476782.984522 1.476782h1.898721c.210969 0 .421938 0 .632907 0v0c1.828398.140646 2.672273 1.054845 2.672273 2.601951-.562584-.140646-1.054844-.210969-1.476782-.210969-.421938 0-.843876 0-1.265814.07032-1.758075.140646-3.164535.632907-4.289702 1.40646-1.265814.984521-1.969044 2.320658-1.969044 4.078733 0 .281292 0 .562584.07032.843876-.843876.843876-1.687752.914199-4.1490564.914199-2.9535655 0-4.5006712-1.547106-4.5006712-4.711641 0-1.547105.4219379-2.742596 1.1251678-3.656795.7735529-.914199 1.8283977-1.336137 2.8832425-1.265814h4.1490563v0 0 0 0c.492261 0 .914199-.70323.914199-1.476782 0-.773553-.421938-1.476783-.914199-1.476783v0h-.07032-3.9380873c-2.1800127 0-4.2193793.773553-5.6258391 2.250335C.70322988 29.156185 0 31.054906 0 33.445887c0 2.390982.70322988 4.289703 2.0393667 5.625839 1.3361367 1.336137 3.1645344 1.969044 5.485193 2.039367 3.0942113.07032 4.2897023-.140646 6.0477773-1.265814l.07032.07032c.914199.843876 2.180012 1.195491 3.797441 1.195491.281292 0 .70323 0 1.054845-.07032.632907-.07032 1.336137-.210969 1.828398-.421938.773552-.351615 1.547105-.843876 1.89872-1.336137.421938.70323 1.265814 1.828398 3.164535 1.828398h5.836808c1.265813-.140646 2.320658-.492261 3.094211-.984522 1.125168-.70323 1.898721-2.109689 1.898721-3.516149 0-2.390982-1.40646-3.305181-3.164535-4.149056-1.19549-.632907-2.180012-.843876-2.812919-1.687752-.632907-.843876-.210969-2.180013 1.336137-2.180013h6.1181v18.143331 0c0 .632907.773552 1.125168 1.758074 1.125168.984522 0 1.758075-.492261 1.758075-1.125168v0 0-6.258746c.914199.421938 1.898721.632907 3.023888.632907h.351615c2.039367-.07032 3.727119-.70323 4.992933-1.969044 1.336136-1.336136 1.969043-3.234857 1.969043-5.625839.210969-5.41487-2.039366-8.01682-6.751007-8.01682m-23.487878 9.563926c0 1.969044-.914198 2.953566-2.742596 3.094212-.140646 0-.281292 0-.421938 0-1.547106 0-2.320659-.632907-2.320659-1.969044 0-1.476783.914199-2.390982 2.742597-2.601951.421938-.07032.914199-.07032 1.40646-.07032.281292 0 .703229.07032 1.336136.210969 0 0 0 1.336137 0 1.336137zm25.738214 1.828398c-.492261.562584-1.265814.914199-2.250336 1.054845-.351615.07032-.70323.07032-1.125167.07032-.843876 0-1.547106-.281292-2.180013-.773553v-8.790374h2.180013c.421937 0 .773552 0 1.125167.07032 1.054845.140646 1.758075.492261 2.320659 1.054845.70323.70323 1.054845 1.969044 1.054845 3.727118-.07032 1.617429-.421938 2.81292-1.125168 3.586473" style="fill:#174478;stroke-width:0.7032299"/>
    </g>
  </g>
</svg>
