<svg xmlns="http://www.w3.org/2000/svg" xmlns:sodipodi="http://sodipodi.sourceforge.net/DTD/sodipodi-0.dtd" xmlns:inkscape="http://www.inkscape.org/namespaces/inkscape" version="1.1" x="0px" y="0px" viewBox="0 0 64 64" enable-background="new 0 0 600 205.556" xml:space="preserve" sodipodi:docname="cdt-icon.svg" inkscape:version="0.92.4 (5da689c313, 2019-01-14)" height="1em" width="1em">
  <defs>
    <linearGradient y2="160.133" x2="295.3447" y1="203.043" x1="252.43469" gradientUnits="userSpaceOnUse" id="i">
      <stop style="stop-color:#3C3934" offset="0"/>
      <stop style="stop-color:#635D58" offset="0.3127"/>
      <stop style="stop-color:#908A86" offset="0.5337"/>
      <stop style="stop-color:#DBD8D7" offset="1"/>
    </linearGradient>
    <linearGradient y2="122.7215" x2="210.9243" y1="122.7215" x1="130.5865" gradientUnits="userSpaceOnUse" id="a">
      <stop style="stop-color:#3C3934" offset="0"/>
      <stop style="stop-color:#635D58" offset="0.3127"/>
      <stop style="stop-color:#908A86" offset="0.5337"/>
      <stop style="stop-color:#908A86" offset="0.7713"/>
      <stop style="stop-color:#DBD8D7" offset="1"/>
    </linearGradient>
    <linearGradient y2="24.1584" x2="200.92371" y1="201.0704" x1="200.92371" gradientUnits="userSpaceOnUse" id="b">
      <stop style="stop-color:#3C3934" offset="0"/>
      <stop style="stop-color:#635D58" offset="0.3163"/>
      <stop style="stop-color:#908A86" offset="0.5337"/>
      <stop style="stop-color:#B9B5B2" offset="1"/>
    </linearGradient>
    <linearGradient y2="162.97479" x2="292.47531" y1="191.59779" x1="262.2168" gradientUnits="userSpaceOnUse" id="c">
      <stop style="stop-color:#3E3D40" offset="0"/>
      <stop style="stop-color:#646567" offset="0.3127"/>
      <stop style="stop-color:#9C9E9F" offset="0.5337"/>
      <stop style="stop-color:#C6C7C8" offset="0.7713"/>
      <stop style="stop-color:#E3E4E4" offset="1"/>
    </linearGradient>
    <linearGradient y2="24.1591" x2="262.74619" y1="201.0704" x1="262.74619" gradientUnits="userSpaceOnUse" id="d">
      <stop style="stop-color:#3C3934" offset="0"/>
      <stop style="stop-color:#635D58" offset="0.3163"/>
      <stop style="stop-color:#908A86" offset="0.5337"/>
      <stop style="stop-color:#B9B5B2" offset="1"/>
    </linearGradient>
    <linearGradient y2="126.4084" x2="287.6127" y1="126.4084" x1="210.4359" gradientUnits="userSpaceOnUse" id="e">
      <stop style="stop-color:#002C3E" offset="0"/>
      <stop style="stop-color:#004258" offset="0.1248"/>
      <stop style="stop-color:#006A85" offset="0.3404"/>
      <stop style="stop-color:#378FAF" offset="0.543"/>
      <stop style="stop-color:#56AED0" offset="0.7267"/>
      <stop style="stop-color:#68C2E6" offset="0.885"/>
      <stop style="stop-color:#6FC9EE" offset="1"/>
    </linearGradient>
    <linearGradient y2="83.105904" x2="239.7164" y1="203.6174" x1="119.2049" gradientUnits="userSpaceOnUse" id="f">
      <stop style="stop-color:#3C3934" offset="0"/>
      <stop style="stop-color:#635D58" offset="0.3127"/>
      <stop style="stop-color:#908A86" offset="0.5337"/>
      <stop style="stop-color:#908A86" offset="0.7713"/>
      <stop style="stop-color:#DBD8D7" offset="1"/>
    </linearGradient>
    <linearGradient y2="68.578499" x2="155.974" y1="191.2155" x1="33.337002" gradientUnits="userSpaceOnUse" id="g">
      <stop style="stop-color:#3C3934" offset="0"/>
      <stop style="stop-color:#635D58" offset="0.3127"/>
      <stop style="stop-color:#908A86" offset="0.5337"/>
      <stop style="stop-color:#908A86" offset="0.7713"/>
      <stop style="stop-color:#DBD8D7" offset="1"/>
    </linearGradient>
    <linearGradient y2="89.570602" x2="88.4646" y1="208.8988" x1="-30.863701" gradientUnits="userSpaceOnUse" id="h">
      <stop style="stop-color:#3C3934" offset="0"/>
      <stop style="stop-color:#635D58" offset="0.3127"/>
      <stop style="stop-color:#908A86" offset="0.5337"/>
      <stop style="stop-color:#908A86" offset="0.7713"/>
      <stop style="stop-color:#DBD8D7" offset="1"/>
    </linearGradient>
  </defs>
  <sodipodi:namedview pagecolor="#ffffff" bordercolor="#666666" borderopacity="1" objecttolerance="10" gridtolerance="10" guidetolerance="10" inkscape:pageopacity="0" inkscape:pageshadow="2" inkscape:window-width="1920" inkscape:window-height="1001" showgrid="false" inkscape:zoom="2.26" inkscape:cx="87.610619" inkscape:cy="102.778" inkscape:window-x="-9" inkscape:window-y="-9" inkscape:window-maximized="1" inkscape:current-layer="svg159"/>
  <g transform="matrix(1.2241707,0,0,1.2241707,-6.9271146,-4.520247)">
    <g transform="matrix(0.18678604,0,0,0.18678604,4.2168161,6.7876582)">
      <path style="fill:none" inkscape:connector-curvature="0" d="m 148.723,93.272 c 0.896,-0.043 1.796,-0.069 2.703,-0.069 -0.91,0 -1.809,0.027 -2.703,0.069 z"/>
      <path style="fill:#4d4d4d" inkscape:connector-curvature="0" d="m 148.396,93.287 c 0.109,-0.006 0.218,-0.01 0.327,-0.015 -0.109,0.005 -0.218,0.009 -0.327,0.015 z"/>
      <path inkscape:connector-curvature="0" style="fill:url(#a)" d="m 187.076,155.468 c 11.488,-13.021 17.312,-22.661 23.848,-32.197 -3.944,-11.845 -12.282,-23.357 -23.848,-30.411 -0.005,-0.003 -0.011,-0.006 -0.016,-0.009 -30.111,-10.83 -48.563,10.271 -56.474,40.737 3.514,-12.127 14.588,-20.987 27.714,-20.987 15.137,0 27.545,11.779 28.776,26.768 0.066,0.808 0.109,1.623 0.109,2.448 0,0.825 -0.042,1.64 -0.109,2.448 z"/>
      <polygon style="fill:url(#b)" points="214.771,198.76 214.771,154.399 214.771,107.808 214.771,12.991 187.076,42.294 187.076,92.854 187.076,137.749 187.076,157.32 187.076,198.76"/>
      <path inkscape:connector-curvature="0" style="fill:url(#c)" d="m 284.546,196.117 c -16.493,-1.336 -18.005,-18.973 -18.02,-34.236 -0.632,3.262 -5.643,32.628 18.02,34.236 z"/>
      <path inkscape:connector-curvature="0" style="fill:url(#d)" d="m 284.546,196.117 c -16.493,-1.336 -18.005,-18.973 -18.02,-34.236 -0.003,-3.311 0.062,-6.512 0.062,-9.409 v -6.714 -7.88 V 125.036 113.262 85.25 80.523 56.616 h -27.695 v 28.634 37.601 8.595 10.372 c 0,1.244 0.042,2.479 0.12,3.703 v 28.148 c 0,4.552 0.759,8.422 2.278,11.606 1.518,3.187 3.628,5.776 6.327,7.766 2.699,1.992 5.848,3.443 9.449,4.352 3.599,0.91 7.536,1.366 11.813,1.366 8.555,0 17.718,-2.56 17.718,-2.56 -0.709,0 -1.392,-0.028 -2.052,-0.082 z"/>
      <path style="fill:none" inkscape:connector-curvature="0" d="m 112.049,109.326 c -1.679,2.281 -3.075,4.772 -4.31,7.411 1.302,-2.68 2.811,-5.237 4.497,-7.66 -0.062,0.085 -0.125,0.166 -0.187,0.249 z"/>
      <path style="fill:none" inkscape:connector-curvature="0" d="m 137.002,89.089 c 0.612,-0.253 1.224,-0.505 1.846,-0.736 -0.62,0.235 -1.236,0.48 -1.846,0.736 z"/>
      <path style="fill:none" inkscape:connector-curvature="0" d="m 138.989,88.3 c 5.121,-1.891 10.589,-3.049 16.281,-3.355 -5.776,0.3 -11.214,1.457 -16.281,3.355 z"/>
      <path style="fill:none" inkscape:connector-curvature="0" d="m 187.076,92.854 c -0.005,-0.001 -0.01,-0.001 -0.016,-0.002 0.005,0.003 0.011,0.006 0.016,0.009 z"/>
      <path style="fill:none" inkscape:connector-curvature="0" d="m 155.598,84.93 c 0.896,-0.043 1.796,-0.069 2.703,-0.069 -0.91,0 -1.809,0.027 -2.703,0.069 z"/>
      <path style="fill:none" inkscape:connector-curvature="0" d="m 130.148,135.295 c 0.14,-0.577 0.291,-1.139 0.438,-1.706 -0.162,0.561 -0.308,1.13 -0.438,1.706 z"/>
      <path style="fill:none" inkscape:connector-curvature="0" d="m 187.076,139.37 c -1.231,-14.989 -13.639,-26.768 -28.776,-26.768 -13.126,0 -24.2,8.859 -27.714,20.987 -0.147,0.567 -0.298,1.129 -0.438,1.706 -0.473,2.099 -0.732,4.28 -0.732,6.523 0,16.136 12.932,29.216 28.884,29.216 8.53,0 16.194,-3.742 21.481,-9.689 -0.383,0.378 -0.752,0.751 -1.146,1.132 0.395,-0.381 0.763,-0.754 1.146,-1.132 4.095,-4.606 6.757,-10.537 7.294,-17.079 v -4.896 z"/>
      <path style="fill:#4d4d4d" inkscape:connector-curvature="0" d="m 138.848,88.353 c 0.047,-0.018 0.094,-0.036 0.141,-0.053 -0.047,0.017 -0.094,0.036 -0.141,0.053 z"/>
      <path style="fill:#4d4d4d" inkscape:connector-curvature="0" d="m 105.16,122.975 c 0.8,-2.148 1.643,-4.235 2.579,-6.237 -0.978,2.014 -1.837,4.097 -2.579,6.237 z"/>
      <path style="fill:#4d4d4d" inkscape:connector-curvature="0" d="m 155.271,84.945 c 0.109,-0.006 0.218,-0.01 0.327,-0.015 -0.109,0.005 -0.218,0.009 -0.327,0.015 z"/>
      <path style="fill:#4d4d4d" inkscape:connector-curvature="0" d="m 187.185,141.818 c 0,-0.825 -0.042,-1.64 -0.109,-2.448 v 4.896 c 0.067,-0.808 0.109,-1.623 0.109,-2.448 z"/>
      <path inkscape:connector-curvature="0" style="fill:url(#e)" d="m 287.613,112.602 c 0,0 -43.483,-6.727 -77.177,54.965 l 12.74,-56.846 c 0,0 16.734,-25.471 64.437,-25.471 z"/>
      <path inkscape:connector-curvature="0" style="fill:url(#f)" d="m 158.301,198.775 c -19.262,0 -36.258,-9.789 -46.411,-24.711 9.084,-9.983 13.584,-19.439 18.25,-38.736 0.003,-0.011 0.006,-0.022 0.009,-0.034 -0.473,2.099 -0.732,4.28 -0.732,6.523 0,16.136 12.932,29.216 28.884,29.216 8.53,0 17.892,-4.253 23.179,-10.2 13.561,-13.875 27.717,-44.685 47.976,-59.7 21.433,-15.884 38.822,-15.884 58.157,-15.884 0,0 -8.336,1.037 -18.117,5.612 -11.551,5.403 -26.531,15.743 -36.926,35.139 -6.781,12.653 -13.047,26.793 -17.799,34.833 -3.199,5.414 -7.195,11.297 -14.564,19.018 -3.796,4.276 -8.222,7.965 -13.131,10.923 -8.422,5.077 -18.259,8.001 -28.775,8.001 z"/>
      <path inkscape:connector-curvature="0" style="fill:url(#g)" d="m 158.301,84.861 c -0.906,0 -1.807,0.026 -2.703,0.069 -0.109,0.005 -0.219,0.009 -0.327,0.015 -5.692,0.305 -11.161,1.464 -16.281,3.355 -0.047,0.018 -0.094,0.036 -0.141,0.053 -0.622,0.232 -1.234,0.483 -1.846,0.736 -9.814,4.131 -18.158,11.091 -24.766,19.989 -1.686,2.423 -3.195,4.979 -4.497,7.66 -0.936,2.002 -1.78,4.089 -2.579,6.237 -4.779,12.836 -8.039,27.831 -20.707,39.502 -5.227,5.287 -12.448,8.557 -20.424,8.557 -15.952,0 -28.884,-13.081 -28.884,-29.216 0,-11.314 6.128,-21.608 15.661,-25.972 -24.613,11.269 -35.348,45.58 -12.808,76.474 7.787,4.115 16.637,6.455 26.031,6.455 15.55,0 29.627,-6.375 39.817,-16.682 3.045,-2.831 5.695,-5.447 8.044,-8.029 14.099,-14.344 19.81,-39.913 19.973,-40.475 7.911,-30.467 25.211,-45.78 55.198,-40.737 -8.42,-5.071 -18.252,-7.991 -28.761,-7.991 z"/>
      <path inkscape:connector-curvature="0" style="fill:url(#h)" d="m 50.806,115.846 c 2.839,-1.482 5.949,-2.501 9.239,-2.961 0.069,-0.01 0.139,-0.017 0.208,-0.027 0.351,-0.047 0.703,-0.09 1.057,-0.124 0.195,-0.019 0.391,-0.03 0.587,-0.045 0.247,-0.018 0.494,-0.04 0.743,-0.052 0.461,-0.023 0.924,-0.035 1.389,-0.035 7.976,0 15.197,3.27 20.424,8.557 l 19.393,-19.616 C 93.656,91.236 79.578,84.861 64.029,84.861 c -31.099,0 -56.31,25.501 -56.31,56.957 0,21.954 12.288,40.994 30.279,50.502 -19.381,-31.131 -7.992,-65.878 12.808,-76.474 z"/>
      <path inkscape:connector-curvature="0" style="fill:url(#i)" d="m 276.306,174.104 c -3.719,-0.354 -9.718,-2.889 -9.718,-12.535 0,0 -0.025,0.119 -0.062,0.311 0.015,15.263 1.526,32.9 18.02,34.236 0.666,0.045 1.341,0.082 2.053,0.082 v -24.485 c 0,0.001 -3.421,3.046 -10.293,2.391 z"/>
    </g>
  </g>
</svg>
