<svg xmlns="http://www.w3.org/2000/svg" viewBox="121.3 334.88 64 64" width="64" height="64">
  <path d="M174.895 348.288a37.426 37.426 0 0 1 8.912 36.357l-35.944-10.433z" fill="#feb41c"/>
  <path d="M156.96 342.932a32.5 32.5 0 0 1 14.413 8.73l-23.508 22.55-7.753-31.617a32.46 32.46 0 0 1 16.848.337z" fill="#5e7c88"/>
  <path d="m141.276 347.316 6.588 26.896-26.564-7.73a27.68 27.68 0 0 1 19.976-19.168z" fill="#4b5f6d"/>
  <path d="m125.987 367.826 21.877 6.386-16.45 15.765a22.774 22.774 0 0 1-5.428-22.15z" fill="#363f45"/>
  <path d="m147.864 374.212 4.264 17.392a17.96 17.96 0 0 1-17.2-5z" fill="#24221f"/>
</svg>
