<svg xmlns="http://www.w3.org/2000/svg" width="64" height="64">
  <path d="M0 20.88h64v32.865H0z" fill="#884b2e"/>
  <g fill="#fff">
    <path d="M0 53.745 3.521 50.1h16.865l1.36 3.645 1.42-3.645h17.668l1.36 3.645 1.42-3.645H60.54V31.63H64v22.115z" opacity=".2"/>
    <path d="M42.193 53.745 40.834 50.1V32.803h1.36zm-20.448 0L20.386 50.1V32.803h1.36z" opacity=".3"/>
  </g>
  <path d="m43.614 50.1-1.42 3.645V32.803h1.42zm-20.448 0-1.42 3.645V32.803h1.42zm-19.645 0L0 53.745V31.012h3.521z" opacity=".2" fill="#12100b"/>
  <path d="M3.46 42.625 0 39.907V10.255h64v29.9l-3.46 2.47-5.868-1.111-5.807 3.83-2.348-2.719-8.895 1.607-4.757-3.027-3.336 2.285-7.907-2.903-4.634 1.297-7.35 2.162z" fill="#80b5e3"/>
  <path d="M26.131 22.363z" fill="#fdc300"/>
  <g fill="#242c5c">
    <path d="M50.41 28.788c.988.185 3.026-2.533 3.706-3.274.741-.804 1.235-.433.803.432-.37.865-1.174 2.286-.68 2.533 1.05.432 2.1-1.174 2.471-1.854 1.174-2.162 1.174.124.989 1.236-.494 2.471-.433 8.772-10.255 8.03-1.606-.123-4.263-1.79-2.903-3.397 1.359-1.668 6.3-2.162 7.907-.803.494.433.309 1.112-.433.741-.556-.308-1.482-.68-3.088-.432-.742.124-1.977.927-.989 1.668s4.819.37 5.993-.37c2.285-1.36 1.976-3.83 2.162-4.14-.433.495-1.05 1.174-2.533.989-1.05-.124-.865-1.112-.803-1.668-.927.926-1.668 1.297-2.595 1.297-.494 0-1.05-.123-1.482-.556-2.719 1.236-4.325 0-3.398-2.595a27.923 27.923 0 0 1 2.038-4.386c1.112-1.853 2.533-.926 1.916 0-.742 1.174-2.163 2.904-2.78 4.448-.927 2.348 1.112 2.286 1.853 1.977 0-.062-.062-.123-.062-.185-.741-2.039 1.545-5.004 3.768-3.336.618.927-.68 2.41-2.162 3.398-.061.061-.123.061-.185.123.247 0 .494.062.741.124zm-1.113-.742c.989-.68 1.792-1.606 1.36-1.915-.68-.556-1.792.927-1.36 1.915zm-38.98 4.14c1.606 1.05 4.077-3.954 2.78-4.634-1.977-1.112-4.634 3.15-4.757 5.19-.124 1.667 1.174 3.15 3.089 2.409 2.347-.927 3.52-2.41 4.447-4.078.618-.988 2.966-5.992 2.1-6.671-.74-.556-2.1.556-1.79 3.212.123 1.05.617 2.718.864 4.448.37-.927 1.174-2.286 2.039-2.595 2.718-.865-.062 4.14 1.112 3.707.803-.31 1.05-5.066 3.397-5.498 2.1-.371 1.977 3.768.062 5.004-1.791 1.173-2.47-.865-2.038-2.595.185-.741 1.359-1.36.926-.618-.494.865-.123 2.224.68 1.915 1.359-.556 1.668-3.583.247-2.78-1.544.803-1.36 3.769-2.595 5.066-.432.432-1.173.556-1.359.37-.68-.555.68-3.706-.309-3.397-.803.247-1.173 2.286-1.544 3.274-.062.185-.124 1.174-.124 1.174l-.988.432c-.062-2.1-.432-4.262-.988-7.166-.556-3.027 1.05-5.93 2.965-6.177 2.903-.433 1.853 2.47.803 4.324-1.853 3.212-3.892 8.401-6.487 10.934-3.583 3.398-7.783.31-6.918-4.077.555-2.718 3.397-7.907 7.042-6.919 3.027.865 1.544 4.263.124 5.869-.742.803-2.163 1.42-3.09.556-.37-.309-.185-.989.31-.68zm18.224-4.078c0-.618-.31-.741-.804-.556-.68.185-1.235 1.112-1.112 1.977.062.494.556.927 1.421.68 1.607-.433 2.163-3.275 3.46-4.201 2.533-1.792 3.706 2.409 1.668 4.324-1.298 1.236-3.15.556-3.089-1.544.062-1.483 1.05-3.15 2.656-3.274 1.607-.186 1.668 1.359 3.09 1.482 1.482.124 2.408-3.027 2.223-4.386-.185-1.483-1.112-1.297-1.977.741-.556 1.298-.803 5.375.803 5.622 1.36.185 2.657-4.633 5.313-4.448 1.73.124 1.853 3.645.433 4.633-.68.68-1.545.68-2.163.618-1.668-.123-1.791-2.595-.556-4.015.68-.742 1.36-.495.618.185-.865.803-.556 2.039.185 2.162 2.1.309 2.348-3.027.804-2.718-.556.124-1.298.68-2.224 2.162-.556.865-1.545 2.533-2.286 2.718s-1.36-.061-1.792-1.42c-.617-1.916-.309-4.201.186-5.993 1.359-4.88 5.312-3.212 4.448 0-.371 1.483-1.668 4.016-3.09 4.757-1.667.803-1.914-.741-3.273-1.174-1.977-.68-3.645 2.718-1.36 2.657 1.607-.248 2.101-3.275.248-2.533-1.792.68-2.039 3.274-3.336 4.633-1.792 1.853-3.769.37-3.274-2.286.123-.803 1.112-2.038 2.1-2.224 1.05-.185 1.668.494 1.42 1.545-.246.309-.74.37-.74-.124z"/>
    <path d="M44.479 25.575c-.865.865-.989 2.348-.186 2.966.31.308 1.174.247 1.792-.124l.247.556c-2.1 1.668-3.892 0-3.336-2.471.062-.247.433-.988.803-1.42.556-.619 1.236-.063.68.493zm.803-2.162c-.989-.494-1.112.247-.556.556 2.533 1.483 4.51.741 5.066.185.556-.494.123-.803-.371-.68-1.545.495-2.904.557-4.14-.06z"/>
  </g>
  <path d="M64 40.154v-29.9h-3.46v32.371z" opacity=".2" fill="#fff"/>
  <path d="m0 39.907 3.46 2.718v-32.37H0z" opacity=".2" fill="#12100b"/>
</svg>
