<svg xmlns="http://www.w3.org/2000/svg" width="64" height="64">
  <g transform="matrix(2.79123 0 0 2.79123 71.369 91.589)" fill="#161616">
    <circle r="2.73" cy="-21.349" cx="-14.275"/>
    <path d="M-14.275-32.813c-5.342 0-9.83 3.654-11.103 8.598a.56.56 0 0 0-.019.136c0 .3.244.546.546.546h4.623a.54.54 0 0 0 .495-.32s.007-.013.01-.02a6.005 6.005 0 1 1 .001 5.044l-.01-.02a.545.545 0 0 0-.495-.32h-4.623a.545.545 0 0 0-.546.546.54.54 0 0 0 .019.136c1.273 4.944 5.762 8.598 11.103 8.598C-7.942-9.89-2.8-15.022-2.8-21.353s-5.133-11.464-11.464-11.464z"/>
  </g>
</svg>
