<svg version="1.1" xmlns="http://www.w3.org/2000/svg" x="0" y="0" viewBox="0 0 64 64" width="64" height="64" style="enable-background:new 0 0 64 64">
  <defs>
    <filter id="a" filterUnits="userSpaceOnUse" x="1.8" y="2.1" width="62" height="40.2">
      <feColorMatrix values="1 0 0 0 0 0 1 0 0 0 0 0 1 0 0 0 0 0 1 0"/>
    </filter>
  </defs>
  <mask maskUnits="userSpaceOnUse" x="1.8" y="2.1" width="62" height="40.2" id="b">
    <path class="st1" d="M264.1 32v29.9H0V2.1h264V32h.1z" style="filter:url(#a)"/>
  </mask>
  <path d="M43.3 26.1c.9-4.5-12-6.4-19.4 2.7-8.3 10.2 8.4 20.9 27.4 6.6 12.1-9.2 16-21.8 8.9-28.2C46.4-5.4 13 6.3 1.8 31.3 13 12.4 41.1 3.5 52.3 15c4.7 4.8 2.1 14.5-6.5 18.6-13.9 6.5-12.6-7.7-2.5-7.5" style="mask:url(#b);fill-rule:evenodd;clip-rule:evenodd;fill:#1b324f"/>
  <defs>
    <filter id="c" filterUnits="userSpaceOnUse" x="0" y="15.1" width="64" height="46.8">
      <feColorMatrix values="1 0 0 0 0 0 1 0 0 0 0 0 1 0 0 0 0 0 1 0"/>
    </filter>
  </defs>
  <mask maskUnits="userSpaceOnUse" x="0" y="15.1" width="64" height="46.8" id="d">
    <path class="st1" d="M264.1 32v29.9H0V2.1h264V32h.1z" style="filter:url(#c)"/>
  </mask>
  <path d="M42.6 16.2c-23-6.9-54.2 21.3-38.2 39.9C15 68.5 52.1 62.5 64 25.1 49.9 50.9 23.3 54.7 13.2 47.3c-11.9-8.7 2.9-33.1 29.4-31.1" style="mask:url(#d);fill-rule:evenodd;clip-rule:evenodd;fill:#239646"/>
</svg>
