<svg version="1.1" xmlns:svg="http://www.w3.org/2000/svg" xmlns="http://www.w3.org/2000/svg" xmlns:xlink="http://www.w3.org/1999/xlink" x="0px" y="0px" viewBox="0 0 64 64" style="enable-background:new 0 0 64 64" xml:space="preserve">
  <g>
    <path d="M42.2,11.2c-0.4,0-0.9,0.1-1.4,0.1c0.1,0.9,0.2,1.8,0.2,2.7 c0,0.8,0.4,1.6,1.2,2.1c0.5,0.3,1.1,0.4,1.6,0.5c0.6,0,1.2,0,1.8,0c0.5,0,0.7-0.5,0.7-0.9c0.1-0.8,0.2-1.7,0.3-2.5 c0-0.5,0.1-0.9,0.2-1.4c0-0.1,0.2-0.3,0.4-0.3c0.9,0,1.9-0.1,2.8-0.1c0.2,0,0.5,0,0.7,0c1,0,1.4,0.4,1.5,1.3 c0.1,1.2,0.1,2.3,0.1,3.5c0,0.4-0.4,0.7-0.8,0.7c-0.6,0-1.3,0-1.9,0.1c-0.5,0-0.9,0.1-1.4,0.1c-0.6,0.1-1,0.5-1,1.1 c-0.1,1,0,1.9,0.4,2.8c0.2,0.4,0.4,0.6,0.8,0.9c0.7,0.2,1.4,0.4,2.2,0.5c0.2,0,0.4,0,0.7,0c0.7,0,1.1-0.2,1.2-1 c0.1-1,0.1-2,0.2-3.1l5.6,3.3c0,0.7-0.6,1-1.4,1.1c-0.9,0.1-1.8,0.1-2.8,0.1c-0.7,0-1.1,0.3-1.1,0.9c0,1.2,0,2.4,0,3.6 c0,0.5,0.4,0.9,0.9,0.9c0.9,0.1,1.7,0.2,2.6,0.3c0.4,0,0.8,0,1.3,0.1c0.3,0,0.6,0.3,0.6,0.6c0,0,0,0,0,0.1c0,0.9,0.1,1.8,0.1,2.8 c0,0.5,0,1.1-0.1,1.7c0,0.4-0.4,0.7-0.8,0.7c-1,0.1-2,0.1-3,0.3c-0.9,0-1.6,0.7-1.6,1.6c0,0,0,0,0,0c-0.1,0.8-0.1,1.6,0,2.5 c0.1,1.2,0.4,1.5,1.6,1.6c0.9,0,1.7,0,2.6,0.1c0.7,0,1,0.3,1,0.9c0.1,1.2,0.1,2.3,0,3.5c0,0.8-0.6,1.1-1.7,1.2 c-1.1,0.1-2.2,0.1-3.4,0.2c-0.3,0-0.7-0.5-0.7-0.9v-2.1c0-0.5,0-1-0.1-1.5c-0.1-0.4-0.4-0.7-0.8-0.8c-1.1-0.2-2.3,0.1-3.2,0.9 c-0.3,0.4-0.6,1-0.6,1.5c-0.1,0.5-0.1,1,0,1.5c0,0.4,0.2,0.5,0.5,0.7c0.8,0.3,1.6,0.5,2.4,0.5h1.1c0.4,0,0.8,0.3,0.9,0.7 c0,0.1,0,0.1,0,0.2c0,0.7,0,1.4,0,2.1c0,0.6,0,1.2-0.1,1.8c-0.2,0.6-0.7,1.1-1.3,1.2c-1.2,0-2.4,0.1-3.6,0.1c-0.7,0-0.9-0.3-1-0.9 c0-0.9-0.1-1.7-0.1-2.6c-0.1-1.5-1.4-1.8-2.4-1.6c-2.4,0.4-2.8,2.5-2.5,4.1c0.1,0.7,0.8,0.7,1.3,0.8c0.9,0-2,2.6-2.1,1.6 c-0.1-0.7-0.4-1-1-1.1c-1.1,0-2.2,0-3.3,0.1c-0.7,0.2-1.2,0.8-1.2,1.5c-0.1,1-0.2,2-0.3,3c0,0.5-0.3,0.8-0.8,0.8 c-0.9,0-1.9,0.1-2.8,0.1c-0.5,0-1-0.1-1.6-0.1c-0.3,0-0.5-0.3-0.5-0.5c-0.1-1.1-0.2-2.3-0.3-3.4c0-0.7-0.6-1.3-1.3-1.4 c-1-0.1-2.1-0.2-3.1-0.2c-0.9,0-1.1,0.3-1.2,1.2c-0.1,0.8-0.6,1.5-0.7,2.4c0,0.4-0.1,0.9-0.3,1.2c-0.1,0.3-0.5,0.3-0.8,0.3 c-0.9,0-1.8,0-2.7-0.1c-0.9-0.1-0.8-0.4-0.9-1.2c0-1.1,0.4-1.9,0.4-3c0-0.6,0-0.2,0.6-0.2c1.3,0,1.9-0.2,3.2-0.3 c0.2,0,0.7-0.9,0.7-1.2c0.2-1.1,0-2.2-0.4-3.3c-0.2-0.6-0.8-1-1.4-1.1c-0.8-0.3-1.7-0.3-2.6-0.2c-0.5,0-0.9,0.5-0.9,1 c-0.1,0.8-0.1,1.6-0.2,2.5v0.9c0,0.5-0.3,0.8-0.8,0.9c-0.1,0-0.1,0-0.2,0c-1.1,0-2.2,0-3.2-0.1c-1.1-0.1-1.4-0.5-1.4-1.6 c0-0.9,0-1.9-0.1-2.8c0-0.8,0.1-1,0.9-1.1c0.8-0.1,1.7-0.1,2.5-0.2c0.4,0,0.8-0.1,1.2-0.2c0.4-0.1,0.7-0.5,0.7-0.9 c0-0.9,0-1.8-0.2-2.7c-0.2-0.9-0.8-1.5-1.7-1.7c-0.5-0.1-2.6-0.2-3.4-0.2c0,0.9-0.1,1.8-0.1,2.6c0,0.8-0.1,1.6-0.2,2.4 c0,0.2-0.2,0.3-0.3,0.4c-1.2,0.2-2.4,0.2-3.6,0C6,46,5.6,45.6,5.6,44.5v-2.2c0-0.9,0.4-1.3,1.2-1.4c0.7-0.1,1.3-0.2,2-0.2 c0.5,0,1.1,0,1.6,0c0.7,0,0.7,0,0.7-0.8c0-1.3,0-2.7-0.1-4c0-0.5,0-7.2,0.1-8c0.1-1.4,0.1-2.8,0.1-4.2c0-0.4,0.1-0.7,0.6-0.7 c1.1,0,2.2-0.2,3.2-0.3c0.9-0.1,1.6-0.8,1.7-1.8c0.1-0.9,0.1-1.8,0.2-2.6c0-0.8-0.2-1.1-1-1.2c-0.6-0.1-1.2,0-1.7-0.1 c-0.7,0-1.4-0.2-2.1-0.3c-0.4,0-0.7-0.3-0.6-0.7c0,0,0,0,0,0c0-1,0-2.1,0-3.1c0.1-0.9,0.4-1.3,1.4-1.4c1-0.1,2.1,0,3,0 c0.4,0,0.8,0.3,0.8,0.7c0,0,0,0,0,0c0.1,0.6,0.2,1.3,0.2,1.9c0.1,0.7,0.1,1.5,0.2,2.2c0,0.2,0.2,0.4,0.4,0.4c0.7,0.1,1.3,0.2,2,0.2 c0.6,0,1.1-0.2,1.7-0.2c0.7-0.1,1.3-0.7,1.3-1.4c0.2-0.9,0.3-1.8,0.3-2.8c0-1.5,0.2-1.3,1.4-1.3l3.8-0.1c0.4,0,0.6-0.2,0.6-0.6 C28.8,9,28.9,7.7,29,6.5c0.1-0.7,0.4-1,1.2-1h3.1c0.8,0,1.2,0.4,1.3,1.2c0.1,1,0.2,2,0.3,3.1c0.1,0.9,0.3,1.2,1.2,1.3 c1.3,0.1,2.6,0,3.9,0c0.3,0,0.5-0.2,0.5-0.4c0,0,0,0,0,0c0-0.4,0.1-0.8,0.2-1.1" style="fill:#0064B5"/>
    <g class="st1">
      <path class="st2" d="M11,22c-0.2,0.4-0.7,0.7-1.1,0.7c-1.2,0-2.5-0.1-3.7-0.3 c-0.4-0.1-0.6-0.4-0.6-0.8c0-0.9-0.1-1.8-0.1-2.6c-0.1-0.8,0.5-1.6,1.4-1.7c0.1,0,0.2,0,0.3,0c0.9,0,1.8,0,2.6,0 c0.7,0,1,0.3,1.1,1C11,19.5,11.1,20.8,11,22z"/>
    </g>
    <g class="st1">
      <path class="st2" d="M20.1,5.4c0.5,0,1.1,0.1,1.6,0.1c0.4,0,0.7,0.3,0.8,0.6 c0.2,1.3,0.3,2.6,0.3,3.9c0,0.5-0.4,1-0.9,1.1c-0.9,0-1.8,0-2.8-0.1c-0.4,0-0.8-0.1-1.2-0.3c-0.4-0.2-0.6-0.6-0.6-1 c0-0.9,0-1.8,0.1-2.7c0-0.8,0.6-1.5,1.4-1.5c0.1,0,0.1,0,0.2,0C19.3,5.5,19.7,5.5,20.1,5.4z"/>
    </g>
    <g class="st1">
      <path class="st2" d="M58.5,35.5c0-0.2,0.1-0.3,0.3-0.4c0.6-0.1,1.3-0.2,1.9-0.2 c0.6,0,1.3,0.1,1.9,0.2c0.6,0,1.2,0.5,1.3,1.1c0.3,1.1,0.2,2.3-0.2,3.3c-0.1,0.3-0.4,0.5-0.7,0.6c-1.2,0.1-2.4,0.2-3.6,0.2 c-0.5,0-0.9-0.4-0.9-0.9c0,0,0,0,0-0.1C58.4,38.7,58.4,36.1,58.5,35.5z"/>
    </g>
    <g class="st1">
      <path class="st2" d="M61.1,23.2h1.1c1.1,0,1.4,0.3,1.6,1.3c0.3,1,0.2,2.1-0.2,3.1 c-0.1,0.2-0.4,0.5-0.6,0.6c-1.2,0.3-2.5,0.4-3.7,0.2c-0.7-0.1-0.8-0.3-0.8-1v-3c0-0.9,0.2-1.1,1.1-1.3c0.1,0,0.2,0,0.4,0 C60.3,23.2,60.7,23.2,61.1,23.2L61.1,23.2z"/>
    </g>
    <g class="st1">
      <path class="st2" d="M37.7,64c-0.5,0-1-0.1-1.6-0.2c-0.5,0-0.8-0.4-0.9-0.9 c-0.2-1.2-0.2-2.4-0.3-3.6c0-0.4,0.3-0.8,0.7-0.8c0.1,0,0.1,0,0.2,0c1.1,0,2.2,0,3.2,0c1,0.1,1.3,0.4,1.3,1.5c0,0.7,0,1.5-0.1,2.2 c-0.1,1.2-0.7,1.7-1.9,1.7C38.2,63.9,37.9,64,37.7,64z"/>
    </g>
    <g class="st1">
      <path class="st2" d="M28.6,60.8c0,0.6,0,1.2-0.1,1.8C28.4,63.4,27.8,64,27,64 c-0.7,0-1.3,0-2,0c-0.8,0.1-1.5-0.5-1.6-1.3c0-0.1,0-0.2,0-0.3c0-0.6-0.1-1.3-0.1-1.9c0-0.5,0.1-0.9,0.3-1.4 c0.2-0.5,0.7-0.4,1.1-0.5c0.9,0,1.9,0,2.9,0c0.6,0,1,0.4,1,1c0,0,0,0,0,0C28.6,60,28.6,60.4,28.6,60.8 C28.6,60.8,28.6,60.8,28.6,60.8z"/>
    </g>
    <g class="st1">
      <path class="st2" d="M58,55.5v0.9c0,0.9-0.4,1.5-1.3,1.6c-1.1,0.1-2.1,0-3.1-0.2 c-0.2,0-0.6-0.4-0.6-0.6c-0.1-1.1-0.2-2.2-0.2-3.2c0-0.9,0.4-1.1,1.3-1.2c0.8,0,1.6,0,2.4,0.1c0.8,0,1.5,0.7,1.4,1.6 C58,54.8,58,55.1,58,55.5z"/>
    </g>
    <g class="st1">
      <path class="st2" d="M61.3,16.6h-1c-0.9,0-1.3-0.3-1.4-1.2c-0.1-1-0.1-2.1,0.1-3.1 c0.1-0.6,0.6-1,1.2-0.9c0.9,0,1.7,0,2.6,0c0.5,0,1,0.4,1,0.9c0.3,1.1,0.3,2.3,0,3.4c-0.1,0.5-0.5,0.8-1,0.9 C62.3,16.6,61.8,16.6,61.3,16.6L61.3,16.6z"/>
    </g>
    <g class="st1">
      <path class="st2" d="M10.8,55.4c0,0.5,0,0.9-0.1,1.4c-0.2,0.9-0.5,1.2-1.4,1.2 c-0.7,0-1.4,0-2.1,0c-0.8,0-1.5-0.6-1.6-1.4c0-0.1,0-0.2,0-0.3c0-0.6,0-1.3,0-1.9c0-0.8,0.6-1.5,1.4-1.6c0,0,0.1,0,0.1,0 c0.7,0,1.5,0,2.2,0c0.8,0,1.5,0.7,1.5,1.5c0,0,0,0.1,0,0.1C10.8,54.8,10.8,55.1,10.8,55.4z"/>
    </g>
    <g class="st1">
      <path class="st2" d="M10.8,8.1c0,0.3,0,0.7,0,1c0,0.9-0.6,1.6-1.5,1.6 c0,0-0.1,0-0.1,0H7.2c-0.8,0.1-1.6-0.6-1.6-1.4c0,0,0-0.1,0-0.1c0-0.7,0-1.4,0-2.1c0-0.8,0.6-1.6,1.5-1.6c0,0,0,0,0.1,0 c0.7,0,1.3,0,2,0c0.9,0,1.6,0.6,1.6,1.5c0,0.1,0,0.2,0,0.2C10.8,7.5,10.8,7.8,10.8,8.1z"/>
    </g>
    <g class="st1">
      <path class="st2" d="M49.5,64h-1C47.7,64,47,63.5,47,62.7c0-0.1,0-0.1,0-0.2 c0-1,0-2.1,0.2-3.1c0.1-0.3,0.3-0.5,0.6-0.5c1-0.1,1.9-0.1,2.9-0.1c1,0,1.5,0.6,1.5,1.6v1.8c0.1,0.9-0.6,1.6-1.4,1.7 c-0.1,0-0.2,0-0.3,0L49.5,64z"/>
    </g>
    <g class="st1">
      <path class="st2" d="M0.1,37.7v-1.6c0-0.5,0.2-0.9,0.7-0.9c0.9-0.1,1.8-0.1,2.6,0 c1.4,0.1,1.5,0.2,1.5,1.6c0,0.9,0,1.9-0.1,2.8c0,0.4-0.3,0.6-0.8,0.7c-0.9,0-1.9,0.1-2.9,0c-0.9,0-1.1-0.3-1.1-1.2v-0.8 C0.1,38.2,0.1,37.9,0.1,37.7z"/>
    </g>
    <g class="st1">
      <path class="st2" d="M37.7,0h1.4c0.8,0,1.2,0.2,1.2,1c0,1,0,2-0.1,3 c0,0.5-0.4,0.7-1.1,0.8c-0.9,0-1.9,0-2.9,0c-0.5,0.1-0.9-0.2-1-0.7c0-0.1,0-0.1,0-0.2c-0.2-1.1-0.2-2.3,0.1-3.4 C35.4,0.1,35.6,0,36,0H37.7z"/>
    </g>
    <g class="st1">
      <path class="st2" d="M0.1,25.8v-1.7c0-0.4,0.2-0.8,0.6-0.8c1.2-0.3,2.5-0.2,3.6,0.2 c0.2,0.1,0.4,0.3,0.4,0.6c0,1.1,0.1,2.2,0.1,3.2c0,0.8-0.4,1-1.1,1.1c-0.9,0-1.7,0-2.6,0s-1.1-0.3-1.1-1.2 C0.1,26.8,0.1,26.3,0.1,25.8z"/>
    </g>
    <g class="st1">
      <path class="st2" d="M25.9,0h1.6c0.6,0,0.9,0.2,0.9,0.8c0,1.1,0,2.2,0,3.4 c0,0.5-0.6,0.7-1,0.7c-1.1,0-2.2,0-3.2-0.1c-0.3,0-0.5-0.2-0.6-0.5c-0.4-1.2-0.5-2.5-0.2-3.7c0-0.4,0.3-0.5,0.7-0.5L25.9,0z"/>
    </g>
    <g class="st1">
      <path class="st2" d="M0.1,49.5v-1.6c0-0.4,0.1-0.6,0.5-0.7c1.2-0.4,2.5-0.3,3.6,0.1 c0.3,0.1,0.5,0.4,0.5,0.7c0.1,1.1,0.1,2.1,0,3.2c-0.1,0.3-0.3,0.6-0.6,0.8c-1.1,0.4-2.3,0.4-3.5,0.1C0.3,52,0,51.7,0.1,51.3 C0.1,50.7,0.1,50.1,0.1,49.5z"/>
    </g>
    <g class="st1">
      <path class="st2" d="M49.5,0H51c0.8,0,1,0.1,1.1,0.9c0.1,1,0,2-0.1,3 c0,0.5-0.5,0.9-1,0.9c-0.9,0.1-1.9,0.1-2.8,0c-0.8,0-1.2-0.6-1.2-1.6c0-0.7,0-1.3,0-2c0-0.9,0.3-1.1,1.2-1.1C48.6,0,49.1,0,49.5,0 z"/>
    </g>
    <g class="st3">
      <g class="st3">
        <path class="st4" d="M34.5,9.3h1.3c0.7,0,0.9,0.1,1,0.8c0.1,0.9,0,1.9-0.1,2.8 c0,0.5-0.5,0.8-0.9,0.8c-0.9,0.1-1.7,0.1-2.6,0c-0.8,0-1.1-0.5-1.1-1.5v-1.9c0-0.8,0.3-1,1.1-1H34.5z"/>
      </g>
      <g class="st3">
        <path class="st4" d="M23.7,13.6H25c0.7,0,0.9,0.1,1,0.8c0.1,0.9,0,1.9-0.1,2.8 c0,0.5-0.5,0.8-0.9,0.8c-0.9,0.1-1.7,0.1-2.6,0c-0.8,0-1.1-0.5-1.1-1.5v-1.9c0-0.8,0.3-1,1.1-1H23.7z"/>
      </g>
      <g class="st3">
        <path class="st4" d="M14.3,25.3h1.3c0.7,0,0.9,0.1,1,0.8c0.1,0.9,0,1.9-0.1,2.8 c0,0.5-0.5,0.8-0.9,0.8c-0.9,0.1-1.7,0.1-2.6,0c-0.8,0-1.1-0.5-1.1-1.5v-1.9c0-0.8,0.3-1,1.1-1H14.3z"/>
      </g>
      <g class="st3">
        <path class="st4" d="M14.7,35h1.3c0.7,0,0.9,0.1,1,0.8c0.1,0.9,0,1.9-0.1,2.8 c0,0.5-0.5,0.8-0.9,0.8c-0.9,0.1-1.7,0.1-2.6,0c-0.8,0-1.1-0.5-1.1-1.5V36c0-0.8,0.3-1,1.1-1H14.7z"/>
      </g>
      <g class="st3">
        <path class="st4" d="M23.7,43.2H25c0.7,0,0.9,0.1,1,0.8c0.1,0.9,0,1.9-0.1,2.8 c0,0.5-0.5,0.8-0.9,0.8c-0.9,0.1-1.7,0.1-2.6,0c-0.8,0-1.1-0.5-1.1-1.5v-1.9c0-0.8,0.3-1,1.1-1H23.7z"/>
      </g>
      <g class="st3">
        <path class="st4" d="M29.6,47.9h1.4c0.7,0,0.9,0.1,1,0.8c0.1,0.9,0,1.9-0.1,2.8 c0,0.5-0.5,0.8-0.9,0.8c-0.9,0.1-1.7,0.1-2.6,0c-0.8,0-1.1-0.5-1.1-1.5v-1.9c0-0.8,0.3-1,1.1-1L29.6,47.9z"/>
      </g>
      <g class="st3">
        <path class="st4" d="M41.4,42.9h1.3c0.7,0,0.9,0.1,1,0.8c0.1,0.9,0,1.9-0.1,2.8 c0,0.5-0.5,0.8-0.9,0.8c-0.9,0.1-1.7,0.1-2.6,0c-0.8,0-1.1-0.5-1.1-1.5v-1.9c0-0.8,0.3-1,1.1-1L41.4,42.9z"/>
      </g>
      <g class="st3">
        <path class="st4" d="M49.3,28.5h1.3c0.7,0,0.9,0.1,1,0.8c0.1,0.9,0,1.9-0.1,2.8 c0,0.5-0.5,0.8-0.9,0.8c-0.9,0.1-1.7,0.1-2.6,0c-0.8,0-1.1-0.5-1.1-1.5v-1.9c0-0.8,0.3-1,1.1-1H49.3z"/>
      </g>
      <g class="st3">
        <path class="st4" d="M45.3,14.7h1.3c0.7,0,0.9,0.1,1,0.8c0.1,0.9,0,1.9-0.1,2.8 c0,0.5-0.5,0.8-0.9,0.8c-0.9,0.1-1.7,0.1-2.6,0c-0.8,0-1.1-0.5-1.1-1.5v-1.9c0-0.8,0.3-1,1.1-1L45.3,14.7z"/>
      </g>
      <g class="st3">
        <path class="st4" d="M50.8,36.5h1.3c0.7,0,0.9,0.1,1,0.8c0.1,0.9,0,1.9-0.1,2.8 c0,0.5-0.5,0.8-0.9,0.8c-0.9,0.1-1.7,0.1-2.6,0c-0.8,0-1.1-0.5-1.1-1.5v-1.9c0-0.8,0.3-1,1.1-1H50.8z"/>
      </g>
    </g>
    <path class="st5" d="M14.2 11.1H16c.9 0 1.3.1 1.3 1.1.1 1.3 0 2.5-.1 3.8 0 .6-.6 1.1-1.2 1.1-1.1.1-2.2.1-3.3 0-1-.1-1.4-.8-1.5-2 0-.9 0-1.7 0-2.6 0-1.1.4-1.3 1.4-1.3C13.1 11.1 13.7 11.1 14.2 11.1zM43.5 5.6h1.7c.9 0 1.3.1 1.3 1.1.1 1.3 0 2.5-.1 3.8 0 .6-.6 1.1-1.2 1.1-1.1.1-2.2.1-3.3 0-1-.1-1.4-.8-1.5-2 0-.9 0-1.7 0-2.6 0-1.1.4-1.3 1.4-1.3C42.4 5.6 43 5.6 43.5 5.6zM43.4 52.2h1.7c.9 0 1.3.1 1.3 1.1.1 1.3 0 2.5-.1 3.8 0 .6-.6 1.1-1.2 1.1-1.1.1-2.2.1-3.3 0-1-.1-1.4-.8-1.5-2 0-.9 0-1.7 0-2.6 0-1.1.4-1.3 1.4-1.3C42.3 52.2 42.9 52.2 43.4 52.2zM20.2 52.3h1.7c.9 0 1.3.1 1.3 1.1.1 1.3 0 2.5-.1 3.8 0 .6-.6 1.1-1.2 1.1-1.1.1-2.2.1-3.3 0-1-.1-1.4-.8-1.5-2 0-.9 0-1.7 0-2.6 0-1.1.4-1.3 1.4-1.3C19 52.3 19.6 52.3 20.2 52.3zM8.4 28.9h1.7c.9 0 1.3.1 1.3 1.1.1 1.3 0 2.5-.1 3.8 0 .6-.6 1.1-1.2 1.1-1.1.1-2.2.1-3.3 0-1-.1-1.4-.8-1.5-2 0-.9 0-1.7 0-2.6 0-1.1.4-1.3 1.4-1.3C7.3 28.9 7.9 28.9 8.4 28.9z"/>
    <path d="M44.4,38.2l-12,7l-11.9-7.1l0-14l12-6.9l11.9,7.1L44.4,38.2z" style="fill:#FFFFFF"/>
    <path class="st5" d="M55.1,17.2h1.7c0.9,0,1.3,0.1,1.3,1.1c0.1,1.3,0,2.5-0.1,3.8 c0,0.6-0.6,1.1-1.2,1.1c-1.1,0.1-2.2,0.1-3.3,0c-1-0.1-1.4-0.8-1.5-2c0-0.9,0-1.7,0-2.6c0-1.1,0.4-1.3,1.4-1.3 C54,17.2,54.5,17.2,55.1,17.2z"/>
  </g>
</svg>
