<svg version="1.1" xmlns="http://www.w3.org/2000/svg" x="0" y="0" viewBox="0 0 64 64" width="64" height="64" style="enable-background:new 0 0 64 64">
  <path d="M42.2 11.2c-.4 0-.9.1-1.4.1.1.9.2 1.8.2 2.7 0 .8.4 1.6 1.2 2.1.5.3 1.1.4 1.6.5h1.8c.5 0 .7-.5.7-.9.1-.8.2-1.7.3-2.5 0-.5.1-.9.2-1.4 0-.1.2-.3.4-.3.9 0 1.9-.1 2.8-.1h.7c1 0 1.4.4 1.5 1.3.1 1.2.1 2.3.1 3.5 0 .4-.4.7-.8.7-.6 0-1.3 0-1.9.1-.5 0-.9.1-1.4.1-.6.1-1 .5-1 1.1-.1 1 0 1.9.4 2.8.2.4.4.6.8.9.7.2 1.4.4 2.2.5h.7c.7 0 1.1-.2 1.2-1 .1-1 .1-2 .2-3.1l5.6 3.3c0 .7-.6 1-1.4 1.1-.9.1-1.8.1-2.8.1-.7 0-1.1.3-1.1.9v3.6c0 .5.4.9.9.9.9.1 1.7.2 2.6.3.4 0 .8 0 1.3.1.3 0 .6.3.6.6v.1c0 .9.1 1.8.1 2.8 0 .5 0 1.1-.1 1.7 0 .4-.4.7-.8.7-1 .1-2 .1-3 .3-.9 0-1.6.7-1.6 1.6-.1.8-.1 1.6 0 2.5.1 1.2.4 1.5 1.6 1.6.9 0 1.7 0 2.6.1.7 0 1 .3 1 .9.1 1.2.1 2.3 0 3.5 0 .8-.6 1.1-1.7 1.2-1.1.1-2.2.1-3.4.2-.3 0-.7-.5-.7-.9v-2.1c0-.5 0-1-.1-1.5-.1-.4-.4-.7-.8-.8-1.1-.2-2.3.1-3.2.9-.3.4-.6 1-.6 1.5-.1.5-.1 1 0 1.5 0 .4.2.5.5.7.8.3 1.6.5 2.4.5h1.1c.4 0 .8.3.9.7v2.3c0 .6 0 1.2-.1 1.8-.2.6-.7 1.1-1.3 1.2-1.2 0-2.4.1-3.6.1-.7 0-.9-.3-1-.9 0-.9-.1-1.7-.1-2.6-.1-1.5-1.4-1.8-2.4-1.6-2.4.4-2.8 2.5-2.5 4.1.1.7.8.7 1.3.8.9 0-2 2.6-2.1 1.6-.1-.7-.4-1-1-1.1-1.1 0-2.2 0-3.3.1-.7.2-1.2.8-1.2 1.5l-.3 3c0 .5-.3.8-.8.8-.9 0-1.9.1-2.8.1-.5 0-1-.1-1.6-.1-.3 0-.5-.3-.5-.5-.1-1.1-.2-2.3-.3-3.4 0-.7-.6-1.3-1.3-1.4-1-.1-2.1-.2-3.1-.2-.9 0-1.1.3-1.2 1.2-.1.8-.6 1.5-.7 2.4 0 .4-.1.9-.3 1.2-.1.3-.5.3-.8.3-.9 0-1.8 0-2.7-.1-.9-.1-.8-.4-.9-1.2 0-1.1.4-1.9.4-3 0-.6 0-.2.6-.2 1.3 0 1.9-.2 3.2-.3.2 0 .7-.9.7-1.2.2-1.1 0-2.2-.4-3.3-.2-.6-.8-1-1.4-1.1-.8-.3-1.7-.3-2.6-.2-.5 0-.9.5-.9 1-.1.8-.1 1.6-.2 2.5v.9c0 .5-.3.8-.8.9h-.2c-1.1 0-2.2 0-3.2-.1-1.1-.1-1.4-.5-1.4-1.6 0-.9 0-1.9-.1-2.8 0-.8.1-1 .9-1.1.8-.1 1.7-.1 2.5-.2.4 0 .8-.1 1.2-.2.4-.1.7-.5.7-.9 0-.9 0-1.8-.2-2.7-.2-.9-.8-1.5-1.7-1.7-.5-.1-2.6-.2-3.4-.2 0 .9-.1 1.8-.1 2.6s-.1 1.6-.2 2.4c0 .2-.2.3-.3.4-1.2.2-2.4.2-3.6 0-1.5-.2-1.9-.6-1.9-1.7v-2.2c0-.9.4-1.3 1.2-1.4.7-.1 1.3-.2 2-.2h1.6c.7 0 .7 0 .7-.8 0-1.3 0-2.7-.1-4 0-.5 0-7.2.1-8 .1-1.4.1-2.8.1-4.2 0-.4.1-.7.6-.7 1.1 0 2.2-.2 3.2-.3.9-.1 1.6-.8 1.7-1.8.1-.9.1-1.8.2-2.6 0-.8-.2-1.1-1-1.2-.6-.1-1.2 0-1.7-.1-.7 0-1.4-.2-2.1-.3-.4 0-.7-.3-.6-.7v-3.1c.1-.9.4-1.3 1.4-1.4 1-.1 2.1 0 3 0 .4 0 .8.3.8.7.1.6.2 1.3.2 1.9.1.7.1 1.5.2 2.2 0 .2.2.4.4.4.7.1 1.3.2 2 .2.6 0 1.1-.2 1.7-.2.7-.1 1.3-.7 1.3-1.4.2-.9.3-1.8.3-2.8 0-1.5.2-1.3 1.4-1.3l3.8-.1c.4 0 .6-.2.6-.6.2-1.5.3-2.8.4-4 .1-.7.4-1 1.2-1h3.1c.8 0 1.2.4 1.3 1.2.1 1 .2 2 .3 3.1.1.9.3 1.2 1.2 1.3 1.3.1 2.6 0 3.9 0 .3 0 .5-.2.5-.4 0-.4.1-.8.2-1.1" style="fill:#0064b5"/>
  <g class="st1">
    <path class="st2" d="M11 22c-.2.4-.7.7-1.1.7-1.2 0-2.5-.1-3.7-.3-.4-.1-.6-.4-.6-.8 0-.9-.1-1.8-.1-2.6-.1-.8.5-1.6 1.4-1.7h2.9c.7 0 1 .3 1.1 1 .1 1.2.2 2.5.1 3.7z"/>
  </g>
  <g class="st1">
    <path class="st2" d="M20.1 5.4c.5 0 1.1.1 1.6.1.4 0 .7.3.8.6.2 1.3.3 2.6.3 3.9 0 .5-.4 1-.9 1.1-.9 0-1.8 0-2.8-.1-.4 0-.8-.1-1.2-.3-.4-.2-.6-.6-.6-1 0-.9 0-1.8.1-2.7 0-.8.6-1.5 1.4-1.5h.2c.3 0 .7 0 1.1-.1z"/>
  </g>
  <g class="st1">
    <path class="st2" d="M58.5 35.5c0-.2.1-.3.3-.4.6-.1 1.3-.2 1.9-.2.6 0 1.3.1 1.9.2.6 0 1.2.5 1.3 1.1.3 1.1.2 2.3-.2 3.3-.1.3-.4.5-.7.6-1.2.1-2.4.2-3.6.2-.5 0-.9-.4-.9-.9v-.1c-.1-.6-.1-3.2 0-3.8z"/>
  </g>
  <g class="st1">
    <path class="st2" d="M61.1 23.2h1.1c1.1 0 1.4.3 1.6 1.3.3 1 .2 2.1-.2 3.1-.1.2-.4.5-.6.6-1.2.3-2.5.4-3.7.2-.7-.1-.8-.3-.8-1v-3c0-.9.2-1.1 1.1-1.3h.4c.3.1.7.1 1.1.1z"/>
  </g>
  <g class="st1">
    <path class="st2" d="M37.7 64c-.5 0-1-.1-1.6-.2-.5 0-.8-.4-.9-.9-.2-1.2-.2-2.4-.3-3.6 0-.4.3-.8.7-.8H39c1 .1 1.3.4 1.3 1.5 0 .7 0 1.5-.1 2.2-.1 1.2-.7 1.7-1.9 1.7-.1 0-.4.1-.6.1z"/>
  </g>
  <g class="st1">
    <path class="st2" d="M28.6 60.8c0 .6 0 1.2-.1 1.8-.1.8-.7 1.4-1.5 1.4h-2c-.8.1-1.5-.5-1.6-1.3v-.3c0-.6-.1-1.3-.1-1.9 0-.5.1-.9.3-1.4.2-.5.7-.4 1.1-.5h2.9c.6 0 1 .4 1 1v1.2z"/>
  </g>
  <g class="st1">
    <path class="st2" d="M58 55.5v.9c0 .9-.4 1.5-1.3 1.6-1.1.1-2.1 0-3.1-.2-.2 0-.6-.4-.6-.6-.1-1.1-.2-2.2-.2-3.2 0-.9.4-1.1 1.3-1.2.8 0 1.6 0 2.4.1.8 0 1.5.7 1.4 1.6.1.3.1.6.1 1z"/>
  </g>
  <g class="st1">
    <path class="st2" d="M61.3 16.6h-1c-.9 0-1.3-.3-1.4-1.2-.1-1-.1-2.1.1-3.1.1-.6.6-1 1.2-.9h2.6c.5 0 1 .4 1 .9.3 1.1.3 2.3 0 3.4-.1.5-.5.8-1 .9h-1.5z"/>
  </g>
  <g class="st1">
    <path class="st2" d="M10.8 55.4c0 .5 0 .9-.1 1.4-.2.9-.5 1.2-1.4 1.2H7.2c-.8 0-1.5-.6-1.6-1.4v-2.2c0-.8.6-1.5 1.4-1.6h2.3c.8 0 1.5.7 1.5 1.5v1.1z"/>
  </g>
  <g class="st1">
    <path class="st2" d="M10.8 8.1v1c0 .9-.6 1.6-1.5 1.6H7.2c-.8.1-1.6-.6-1.6-1.4V7.1c0-.8.6-1.6 1.5-1.6h2.1c.9 0 1.6.6 1.6 1.5v1.1z"/>
  </g>
  <g class="st1">
    <path class="st2" d="M49.5 64h-1c-.8 0-1.5-.5-1.5-1.3v-.2c0-1 0-2.1.2-3.1.1-.3.3-.5.6-.5 1-.1 1.9-.1 2.9-.1s1.5.6 1.5 1.6v1.8c.1.9-.6 1.6-1.4 1.7h-.3l-1 .1z"/>
  </g>
  <g class="st1">
    <path class="st2" d="M.1 37.7v-1.6c0-.5.2-.9.7-.9.9-.1 1.8-.1 2.6 0 1.4.1 1.5.2 1.5 1.6 0 .9 0 1.9-.1 2.8 0 .4-.3.6-.8.7-.9 0-1.9.1-2.9 0-.9 0-1.1-.3-1.1-1.2v-.8c.1-.1.1-.4.1-.6z"/>
  </g>
  <g class="st1">
    <path class="st2" d="M37.7 0h1.4c.8 0 1.2.2 1.2 1 0 1 0 2-.1 3 0 .5-.4.7-1.1.8h-2.9c-.5.1-.9-.2-1-.7v-.2c-.2-1.1-.2-2.3.1-3.4.1-.4.3-.5.7-.5h1.7z"/>
  </g>
  <g class="st1">
    <path class="st2" d="M.1 25.8v-1.7c0-.4.2-.8.6-.8 1.2-.3 2.5-.2 3.6.2.2.1.4.3.4.6 0 1.1.1 2.2.1 3.2 0 .8-.4 1-1.1 1.1H1.1c-.9 0-1.1-.3-1.1-1.2.1-.4.1-.9.1-1.4z"/>
  </g>
  <g class="st1">
    <path class="st2" d="M25.9 0h1.6c.6 0 .9.2.9.8v3.4c0 .5-.6.7-1 .7-1.1 0-2.2 0-3.2-.1-.3 0-.5-.2-.6-.5-.4-1.2-.5-2.5-.2-3.7 0-.4.3-.5.7-.5l1.8-.1z"/>
  </g>
  <g class="st1">
    <path class="st2" d="M.1 49.5v-1.6c0-.4.1-.6.5-.7 1.2-.4 2.5-.3 3.6.1.3.1.5.4.5.7.1 1.1.1 2.1 0 3.2-.1.3-.3.6-.6.8-1.1.4-2.3.4-3.5.1-.3-.1-.6-.4-.5-.8v-1.8z"/>
  </g>
  <g class="st1">
    <path class="st2" d="M49.5 0H51c.8 0 1 .1 1.1.9.1 1 0 2-.1 3 0 .5-.5.9-1 .9-.9.1-1.9.1-2.8 0-.8 0-1.2-.6-1.2-1.6v-2c0-.9.3-1.1 1.2-1.1.4-.1.9-.1 1.3-.1z"/>
  </g>
  <g class="st3">
    <g class="st3">
      <path class="st4" d="M34.5 9.3h1.3c.7 0 .9.1 1 .8.1.9 0 1.9-.1 2.8 0 .5-.5.8-.9.8-.9.1-1.7.1-2.6 0-.8 0-1.1-.5-1.1-1.5v-1.9c0-.8.3-1 1.1-1h1.3z"/>
    </g>
    <g class="st3">
      <path class="st4" d="M23.7 13.6H25c.7 0 .9.1 1 .8.1.9 0 1.9-.1 2.8 0 .5-.5.8-.9.8-.9.1-1.7.1-2.6 0-.8 0-1.1-.5-1.1-1.5v-1.9c0-.8.3-1 1.1-1h1.3z"/>
    </g>
    <g class="st3">
      <path class="st4" d="M14.3 25.3h1.3c.7 0 .9.1 1 .8.1.9 0 1.9-.1 2.8 0 .5-.5.8-.9.8-.9.1-1.7.1-2.6 0-.8 0-1.1-.5-1.1-1.5v-1.9c0-.8.3-1 1.1-1h1.3z"/>
    </g>
    <g class="st3">
      <path class="st4" d="M14.7 35H16c.7 0 .9.1 1 .8.1.9 0 1.9-.1 2.8 0 .5-.5.8-.9.8-.9.1-1.7.1-2.6 0-.8 0-1.1-.5-1.1-1.5V36c0-.8.3-1 1.1-1h1.3z"/>
    </g>
    <g class="st3">
      <path class="st4" d="M23.7 43.2H25c.7 0 .9.1 1 .8.1.9 0 1.9-.1 2.8 0 .5-.5.8-.9.8-.9.1-1.7.1-2.6 0-.8 0-1.1-.5-1.1-1.5v-1.9c0-.8.3-1 1.1-1h1.3z"/>
    </g>
    <g class="st3">
      <path class="st4" d="M29.6 47.9H31c.7 0 .9.1 1 .8.1.9 0 1.9-.1 2.8 0 .5-.5.8-.9.8-.9.1-1.7.1-2.6 0-.8 0-1.1-.5-1.1-1.5v-1.9c0-.8.3-1 1.1-1h1.2z"/>
    </g>
    <g class="st3">
      <path class="st4" d="M41.4 42.9h1.3c.7 0 .9.1 1 .8.1.9 0 1.9-.1 2.8 0 .5-.5.8-.9.8-.9.1-1.7.1-2.6 0-.8 0-1.1-.5-1.1-1.5v-1.9c0-.8.3-1 1.1-1h1.3z"/>
    </g>
    <g class="st3">
      <path class="st4" d="M49.3 28.5h1.3c.7 0 .9.1 1 .8.1.9 0 1.9-.1 2.8 0 .5-.5.8-.9.8-.9.1-1.7.1-2.6 0-.8 0-1.1-.5-1.1-1.5v-1.9c0-.8.3-1 1.1-1h1.3z"/>
    </g>
    <g class="st3">
      <path class="st4" d="M45.3 14.7h1.3c.7 0 .9.1 1 .8.1.9 0 1.9-.1 2.8 0 .5-.5.8-.9.8-.9.1-1.7.1-2.6 0-.8 0-1.1-.5-1.1-1.5v-1.9c0-.8.3-1 1.1-1h1.3z"/>
    </g>
    <g class="st3">
      <path class="st4" d="M50.8 36.5h1.3c.7 0 .9.1 1 .8.1.9 0 1.9-.1 2.8 0 .5-.5.8-.9.8-.9.1-1.7.1-2.6 0-.8 0-1.1-.5-1.1-1.5v-1.9c0-.8.3-1 1.1-1h1.3z"/>
    </g>
  </g>
  <path class="st5" d="M14.2 11.1H16c.9 0 1.3.1 1.3 1.1.1 1.3 0 2.5-.1 3.8 0 .6-.6 1.1-1.2 1.1-1.1.1-2.2.1-3.3 0-1-.1-1.4-.8-1.5-2v-2.6c0-1.1.4-1.3 1.4-1.3.5-.1 1.1-.1 1.6-.1z"/>
  <path class="st5" d="M43.5 5.6h1.7c.9 0 1.3.1 1.3 1.1.1 1.3 0 2.5-.1 3.8 0 .6-.6 1.1-1.2 1.1-1.1.1-2.2.1-3.3 0-1-.1-1.4-.8-1.5-2V7c0-1.1.4-1.3 1.4-1.3.6-.1 1.2-.1 1.7-.1z"/>
  <path class="st5" d="M43.4 52.2h1.7c.9 0 1.3.1 1.3 1.1.1 1.3 0 2.5-.1 3.8 0 .6-.6 1.1-1.2 1.1-1.1.1-2.2.1-3.3 0-1-.1-1.4-.8-1.5-2v-2.6c0-1.1.4-1.3 1.4-1.3.6-.1 1.2-.1 1.7-.1z"/>
  <path class="st5" d="M20.2 52.3h1.7c.9 0 1.3.1 1.3 1.1.1 1.3 0 2.5-.1 3.8 0 .6-.6 1.1-1.2 1.1-1.1.1-2.2.1-3.3 0-1-.1-1.4-.8-1.5-2v-2.6c0-1.1.4-1.3 1.4-1.3.5-.1 1.1-.1 1.7-.1z"/>
  <path class="st5" d="M8.4 28.9h1.7c.9 0 1.3.1 1.3 1.1.1 1.3 0 2.5-.1 3.8 0 .6-.6 1.1-1.2 1.1-1.1.1-2.2.1-3.3 0-1-.1-1.4-.8-1.5-2v-2.6c0-1.1.4-1.3 1.4-1.3.6-.1 1.2-.1 1.7-.1z"/>
  <path d="m44.4 38.2-12 7-11.9-7.1v-14l12-6.9 11.9 7.1v13.9z" style="fill:#fff"/>
  <path class="st5" d="M55.1 17.2h1.7c.9 0 1.3.1 1.3 1.1.1 1.3 0 2.5-.1 3.8 0 .6-.6 1.1-1.2 1.1-1.1.1-2.2.1-3.3 0-1-.1-1.4-.8-1.5-2v-2.6c0-1.1.4-1.3 1.4-1.3.6-.1 1.1-.1 1.7-.1z"/>
</svg>
