<svg version="1.1" xmlns="http://www.w3.org/2000/svg" x="0" y="0" viewBox="0 0 120 60" width="120" height="60" style="enable-background:new 0 0 120 60">
  <g transform="translate(-52.81 -135.68) matrix(.26458 0 0 .26458 47.531 120.334)">
    <path class="st0" d="M140.3 185.5c-2.3-1.3-4.3-3.2-5.6-5.5-1.4-2.4-2.1-5.1-2-7.9 0-2.8.7-5.5 2-7.9 1.3-2.3 3.3-4.2 5.6-5.5 2.5-1.3 5.3-2 8.1-2 2.1 0 4.2.4 6.2 1.2 1.9.7 3.5 1.8 4.8 3.3l-2 2c-2.4-2.4-5.6-3.7-9-3.6-2.3 0-4.5.6-6.5 1.7-1.9 1.1-3.5 2.6-4.6 4.5-1.1 1.9-1.7 4.1-1.7 6.4 0 2.2.5 4.4 1.7 6.4 1.1 1.9 2.7 3.5 4.6 4.5 2 1.1 4.2 1.7 6.5 1.7 3.4.1 6.6-1.2 9-3.6l2 2c-1.4 1.5-3 2.6-4.8 3.3-2 .8-4.1 1.2-6.2 1.2-2.8-.2-5.6-.9-8.1-2.2z"/>
    <path class="st0" d="M165.7 155.1h3.1v32.1h-3l-.1-32.1z"/>
    <path class="st0" d="M197.1 176.8h-19c.1 2.2 1.1 4.3 2.8 5.7 1.7 1.5 4 2.3 6.2 2.2 1.3 0 2.7-.2 3.9-.7 1.2-.5 2.2-1.3 3-2.3l1.7 2c-1 1.2-2.3 2.2-3.8 2.8a13.7 13.7 0 0 1-11.2-.6c-1.7-1-3.2-2.4-4.2-4.1-1-1.8-1.6-3.9-1.5-5.9 0-2.1.5-4.1 1.4-5.9.9-1.7 2.3-3.1 4-4.1 1.7-1 3.7-1.5 5.6-1.5 2 0 3.9.5 5.6 1.5 1.6 1 3 2.4 3.9 4.1 1 1.9 1.5 3.9 1.4 6l.2.8zm-16.5-7.8c-1.5 1.5-2.4 3.4-2.5 5.5h16.1c-.1-2.1-1-4.1-2.5-5.5-1.5-1.4-3.5-2.2-5.6-2.1-2.1 0-4.1.7-5.5 2.1z"/>
    <path class="st0" d="M217.5 166.5c1.7 1.8 2.6 4.2 2.4 6.6v14.1h-3v-3.6c-.7 1.2-1.8 2.1-3 2.8-1.5.7-3.1 1.1-4.8 1-2.2.1-4.3-.5-6.1-1.8-1.5-1.1-2.3-2.9-2.2-4.8-.1-1.8.7-3.5 2.1-4.6 2-1.3 4.3-1.9 6.7-1.7h7.2v-1.4c.1-1.7-.5-3.3-1.7-4.5-1.3-1.1-3-1.6-4.8-1.5-1.4 0-2.8.2-4.1.7-1.2.5-2.4 1.1-3.4 2l-1.4-2.3c1.2-1 2.6-1.8 4.1-2.2 1.6-.5 3.3-.8 5.1-.8 2.5-.4 5 .4 6.9 2zm-3.4 17.4c1.3-.8 2.2-2 2.8-3.4v-3.7h-7.1c-3.9 0-5.9 1.4-5.9 4.1 0 1.2.5 2.4 1.5 3.1 1.2.9 2.7 1.3 4.2 1.2 1.6-.1 3.1-.5 4.5-1.3z"/>
    <path class="st0" d="M234.3 165.4c1.6-.8 3.5-1.2 5.3-1.2v3l-.7-.1c-2.1-.1-4.2.7-5.6 2.2-1.4 1.7-2.2 3.9-2 6.2v11.6h-3v-22.8h3v4.4c.6-1.3 1.7-2.5 3-3.3z"/>
    <path class="st0" d="M245.2 155.1h3v32.1h-3v-32.1z"/>
    <path class="st0" d="M275.9 164.5 264.5 190c-.7 1.8-1.8 3.3-3.2 4.6-1.3.9-2.8 1.3-4.3 1.3-1 0-2.1-.2-3-.5-.9-.4-1.7-.9-2.5-1.5l1.4-2.3c1.1 1.1 2.6 1.8 4.1 1.7 1 0 1.9-.3 2.7-.9.9-.8 1.6-1.8 2-3l1-2.2-10.1-22.7h3.2l8.5 19.4 8.5-19.4h3.1z"/>
    <path class="st0" d="M280 156.9h13.3c3 0 5.9.6 8.6 1.9 5.1 2.5 8.2 7.7 8 13.3 0 2.8-.7 5.6-2.1 8-1.4 2.3-3.4 4.2-5.9 5.3-2.7 1.3-5.6 1.9-8.6 1.9H280v-30.4zm13 25.6c2 0 4-.4 5.9-1.3 1.6-.8 3-2.1 3.9-3.6.9-1.7 1.4-3.5 1.4-5.4.1-1.9-.4-3.8-1.4-5.4-.9-1.6-2.3-2.8-3.9-3.6-1.8-.9-3.8-1.4-5.9-1.3h-7.3v20.8l7.3-.2z"/>
    <path class="st0" d="M336.8 177.4h-18.1c.3 1.6 1.2 3.1 2.5 4.1 1.4 1.1 3.2 1.6 5 1.5 2.4.1 4.6-.9 6.3-2.5l2.9 3.3c-1 1.3-2.4 2.2-3.9 2.8-1.7.7-3.5 1-5.4.9-2.3 0-4.6-.5-6.7-1.5-1.9-.9-3.4-2.4-4.5-4.2-1.1-1.8-1.6-4-1.6-6.1 0-2.1.5-4.2 1.5-6.1 1-1.8 2.5-3.2 4.3-4.2 1.9-1 4-1.6 6.1-1.5 2.1 0 4.2.5 6 1.5 1.8 1 3.2 2.4 4.1 4.2 1 1.9 1.6 4.1 1.5 6.2.1.6 0 1.1 0 1.6zm-15.9-7.7c-1.2 1-2 2.5-2.2 4.1h13.1c-.2-1.6-.9-3-2.1-4.1-1.2-1-2.8-1.6-4.4-1.5-1.6-.1-3.2.5-4.4 1.5z"/>
    <path class="st0" d="M348 162.9v1.4h6.4v4.4h-6.1v18.6h-5.4v-18.6H339v-4.4h3.8v-1.5c-.1-2.2.7-4.3 2.2-5.9 1.6-1.5 3.8-2.3 6.1-2.2 1.7-.1 3.4.3 4.9 1.2l-1.5 4.1c-.9-.6-1.9-1-3-.9-2.3.1-3.5 1.3-3.5 3.8zm13.8-3.6c-1.3-1.2-1.4-3.2-.2-4.5l.2-.2c.7-.6 1.5-1 2.5-.9.9 0 1.8.3 2.5.9.7.6 1 1.4 1 2.2 0 .9-.3 1.8-.9 2.4-.7.6-1.5 1-2.5.9-1 .2-2-.1-2.6-.8zm-.3 4.8h5.4v23.1h-5.4v-23.1z"/>
    <path class="st0" d="M394 166.4c1.9 2 2.8 4.8 2.6 7.6v13.3h-5.4v-12.6c.1-1.7-.4-3.3-1.4-4.6-1.1-1.1-2.5-1.6-4.1-1.5-1.8-.1-3.5.6-4.7 1.8-1.2 1.4-1.9 3.3-1.7 5.2v11.7h-5.4V164h5.1v3c.9-1.1 2.1-1.9 3.4-2.4 1.5-.6 3-.8 4.6-.8 2.5-.1 5.1.8 7 2.6z"/>
    <path class="st0" d="M425.4 177.4h-18.1c.3 1.6 1.2 3.1 2.5 4.1 1.4 1.1 3.2 1.6 5 1.5 2.4.1 4.6-.9 6.3-2.5l2.9 3.3c-1 1.3-2.4 2.2-3.9 2.8-1.7.7-3.5 1-5.4.9-2.3 0-4.6-.5-6.7-1.5-1.9-.9-3.4-2.4-4.5-4.2-1.1-1.8-1.6-4-1.6-6.1 0-2.1.5-4.2 1.5-6.1 1-1.8 2.5-3.2 4.3-4.2 1.9-1 4-1.6 6.1-1.5 2.1 0 4.2.5 6 1.5 1.8 1 3.2 2.4 4.1 4.2 1 1.9 1.6 4.1 1.5 6.2v1.6zm-16-7.7c-1.2 1-2 2.5-2.2 4.1h13.1c-.2-1.6-.9-3-2.1-4.1-1.2-1-2.8-1.6-4.4-1.5-1.6-.1-3.2.5-4.4 1.5z"/>
    <path class="st0" d="M453.3 155.1v32.1H448v-3.1c-.9 1.1-2 1.9-3.3 2.5-1.4.6-2.9.8-4.3.8-2.1 0-4.2-.5-6-1.5-1.8-1-3.2-2.5-4.2-4.2-1-1.9-1.6-4.1-1.5-6.2 0-2.2.5-4.3 1.5-6.2 1-1.8 2.4-3.2 4.2-4.1 1.8-1 3.9-1.5 6-1.5 1.4 0 2.9.3 4.2.8 1.3.5 2.4 1.3 3.3 2.3V155l5.4.1zm-8.7 26.9c1-.6 1.9-1.5 2.5-2.5.6-1.2.9-2.5.9-3.8 0-1.3-.3-2.7-.9-3.8-.6-1.1-1.4-1.9-2.5-2.5-2.2-1.2-4.8-1.2-6.9 0-1 .6-1.9 1.5-2.5 2.5-.6 1.2-.9 2.5-.9 3.8 0 1.3.3 2.7.9 3.8.6 1.1 1.4 1.9 2.5 2.5 1.1.6 2.3.9 3.5.9 1.1 0 2.3-.3 3.4-.9z"/>
    <path class="st0" d="M95.7 143.9c-.6.1-1.2.1-1.9.2l.3 3.6c0 1.1.6 2.2 1.5 2.7.7.3 1.4.6 2.1.7.8 0 1.6 0 2.4-.1.7-.1.9-.7.9-1.2.2-1.1.2-2.2.4-3.3.1-.7.1-1.2.2-1.9 0-.2.3-.4.5-.4 1.2-.1 2.5-.1 3.7-.1.3 0 .7.1.9.1 1.3 0 1.9.5 2 1.8.1 1.5.2 3.1.2 4.6 0 .6-.5.9-1.1.9-.8.1-1.7.1-2.5.1-.7.1-1.2.1-1.9.2s-1.3.7-1.3 1.4c-.2 1.3 0 2.5.5 3.7.2.5.6.9 1 1.1.9.3 1.9.6 2.9.7h.9c.9.1 1.4-.3 1.5-1.3.1-1.4.2-2.7.2-4l7.4 4.3c0 .9-.8 1.3-1.9 1.5-1.2.2-2.4.1-3.7.2-.9.1-1.4.4-1.4 1.2-.1 1.6 0 3.1.1 4.7 0 .7.5 1.2 1.2 1.2 1.1.2 2.2.3 3.4.4.5.1 1.1.1 1.7.1.5 0 .8.4.8.8v.1c.1 1.2.1 2.4.1 3.7 0 .7-.1 1.5-.1 2.2-.1.5-.5.9-1 .9-1.3.1-2.7.2-4 .4-1.1 0-2.1.9-2.1 2.1-.1 1.1-.1 2.2-.1 3.3.1 1.6.5 2 2.1 2.1 1.1.1 2.2.1 3.4.2.9.1 1.3.4 1.4 1.2.1 1.5.1 3.1 0 4.6-.1 1.1-.8 1.5-2.2 1.6s-3 .2-4.4.2c-.4 0-.9-.7-.9-1.2v-2.8c0-.7-.1-1.3-.2-2-.1-.5-.5-.9-1-1-1.5-.3-3.1.1-4.3 1.1-.4.6-.7 1.3-.8 2-.1.6-.1 1.3 0 2 0 .5.2.7.7.9 1 .4 2.1.6 3.2.7h1.5c.6-.1 1.1.3 1.1.9v.3c-.1.9-.1 1.8-.1 2.7-.1.8-.1 1.6-.2 2.4-.2.8-.9 1.4-1.8 1.5-1.6 0-3.2.1-4.7.2-.9.1-1.2-.4-1.3-1.2-.1-1.1-.1-2.3-.2-3.4-.2-2-1.8-2.3-3.2-2.1-3.1.5-3.7 3.3-3.3 5.4.2.9 1 .9 1.7 1 1.2.1-2.6 3.4-2.7 2.1-.1-.9-.5-1.4-1.4-1.4-1.5 0-2.9 0-4.4.1-.9.2-1.6 1-1.6 2-.2 1.3-.3 2.7-.4 4-.1.7-.4 1-1.1 1-1.2.1-2.5.1-3.7.1-.7 0-1.4-.1-2.1-.2-.4 0-.7-.3-.7-.7-.1-1.5-.2-3-.4-4.5-.1-.9-.8-1.7-1.7-1.8-1.4-.1-2.8-.2-4.1-.2-1.1 0-1.5.4-1.6 1.5-.1 1.1-.8 2-.9 3.1 0 .6-.2 1.1-.4 1.6-.2.4-.7.4-1 .4-1.2.1-2.4 0-3.6-.1-1.1-.1-1.1-.5-1.2-1.6-.1-1.4.6-2.5.5-4 0-.8.1-.3.8-.3 1.7-.1 2.6-.2 4.2-.4.3-.1.9-1.2 1-1.6.2-1.5 0-2.9-.5-4.3-.3-.8-1.1-1.3-1.9-1.4-1.1-.3-2.2-.4-3.4-.2-.7.1-1.2.6-1.2 1.3-.1 1.1-.2 2.1-.3 3.3v1.2c0 .6-.4 1.1-1 1.1H61c-1.4-.1-2.8-.1-4.3-.2-1.4-.1-1.9-.7-1.9-2.1 0-1.2-.1-2.5-.1-3.7 0-1 .2-1.4 1.2-1.4 1.1-.1 2.2-.2 3.3-.2.5 0 1-.1 1.5-.2.6-.1 1-.6.9-1.2 0-1.2 0-2.4-.2-3.6-.2-1.1-1.1-2-2.2-2.2-.7-.1-3.5-.2-4.4-.2-.1 1.2-.1 2.3-.2 3.4s-.1 2.1-.2 3.1c0 .2-.2.4-.4.5-1.6.3-3.2.3-4.7 0-1.4-.2-2-.8-2-2.2V185c.1-1.1.5-1.7 1.5-1.8.9-.2 1.7-.3 2.6-.3.7-.1 1.4 0 2.1-.1.9-.1.9-.1.9-1 0-1.8-.1-3.6-.1-5.3 0-.7.1-9.5.1-10.5.1-1.8.1-3.7.2-5.6 0-.6.1-.9.8-.9 1.4-.1 2.8-.2 4.3-.4 1.2-.2 2.1-1.1 2.2-2.3.1-1.1.2-2.3.2-3.4s-.2-1.4-1.3-1.5c-.8-.1-1.5-.1-2.3-.1-.9-.1-1.8-.2-2.7-.4-.5 0-.9-.5-.8-.9v-.1c0-1.4-.1-2.7.1-4.1.1-1.2.6-1.7 1.8-1.8 1.4-.1 2.7-.1 4-.1.5 0 1 .3 1.1.9.1.8.2 1.7.3 2.5.1.9.1 2 .2 2.9.1.3.2.5.5.6.9.1 1.7.2 2.6.2.8 0 1.5-.2 2.2-.3 1-.1 1.7-.9 1.8-1.8.3-1.2.4-2.4.4-3.7.1-2 .3-1.7 1.9-1.8l5-.2c.5 0 .8-.2.8-.8.1-1.7.3-3.4.5-5 .1-.9.6-1.3 1.5-1.4H84c1.1 0 1.5.5 1.7 1.5.1 1.4.2 2.7.4 4 .1 1.2.4 1.6 1.6 1.7 1.7.1 3.5.1 5.2.1.3 0 .7-.2.7-.5v-.1c.1-.5.2-1 .2-1.5"/>
    <g class="st1">
      <path class="st2" d="M54.7 158.3c-.3.5-.9.9-1.5.9-1.6 0-3.2-.2-4.8-.4-.5-.1-.8-.6-.8-1.1-.1-1.1-.1-2.3-.1-3.4-.1-1.1.7-2.1 1.8-2.2h.3c1.2-.1 2.4-.1 3.5-.1.9 0 1.3.4 1.4 1.3.1 1.7.2 3.3.2 5z"/>
    </g>
    <g class="st1">
      <path class="st2" d="M66.6 136.4c.7.1 1.4.1 2.1.1.5 0 .9.3 1.1.8.3 1.7.4 3.4.4 5.1 0 .7-.5 1.3-1.2 1.4-1.2 0-2.4-.1-3.7-.1-.6 0-1.1-.2-1.6-.4s-.8-.7-.8-1.3c0-1.2.1-2.4.1-3.5s.8-2 1.8-2h.2c.6-.1 1-.1 1.6-.1z"/>
    </g>
    <g class="st1">
      <path class="st2" d="M117.2 176c0-.2.2-.4.4-.5.8-.1 1.6-.2 2.5-.2.8 0 1.7.1 2.5.2.9 0 1.6.6 1.7 1.5.3 1.5.3 3-.2 4.4-.2.4-.5.7-.9.8-1.6.2-3.1.2-4.7.2-.6 0-1.2-.6-1.1-1.2v-.1c-.3-.9-.3-4.3-.2-5.1z"/>
    </g>
    <g class="st1">
      <path class="st2" d="M120.6 159.8h1.4c1.4.1 1.9.4 2.1 1.8.4 1.4.3 2.8-.2 4.1-.2.3-.5.7-.8.8-1.6.4-3.3.5-4.9.2-.9-.2-1.1-.4-1.1-1.4v-3.9c0-1.2.2-1.5 1.4-1.7.2 0 .3-.1.5-.1.6.2 1.1.2 1.6.2z"/>
    </g>
    <g class="st1">
      <path class="st2" d="M89.8 213.6c-.7-.1-1.4-.1-2.1-.2-.6-.1-1.1-.6-1.2-1.2-.2-1.6-.3-3.2-.4-4.8 0-.5.4-1 .9-1h.3c1.4.1 2.8-.1 4.3 0 1.3.1 1.7.6 1.7 2 0 1 0 2-.1 3-.1 1.6-.9 2.3-2.5 2.3-.3-.2-.6-.2-.9-.1z"/>
    </g>
    <g class="st1">
      <path class="st2" d="M77.9 209.4c-.1.8-.1 1.5-.2 2.3-.1 1-1 1.8-2 1.8-.9.1-1.8.1-2.7 0-1 .1-2-.7-2.1-1.7v-.4c-.1-.8-.1-1.7-.1-2.5.1-.6.2-1.2.4-1.8.2-.7.9-.6 1.4-.7 1.2-.1 2.5-.1 3.8-.1.7 0 1.3.6 1.4 1.3.1.6.1 1.2.1 1.8-.1 0 0 0 0 0z"/>
    </g>
    <g class="st1">
      <path class="st2" d="M116.6 202.3v1.2c-.1 1.2-.5 2-1.7 2.1-1.4.1-2.8 0-4.1-.2-.3-.1-.8-.5-.8-.8-.2-1.4-.3-2.8-.2-4.3.1-1.2.6-1.5 1.8-1.5 1.1 0 2.1 0 3.2.1s1.9 1 1.9 2.1c-.1.4-.1.9-.1 1.3z"/>
    </g>
    <g class="st1">
      <path class="st2" d="M120.9 151.1h-1.3c-1.1-.1-1.8-.4-1.8-1.5-.1-1.4-.1-2.7.1-4.1.1-.7.8-1.3 1.5-1.2 1.1 0 2.3 0 3.4.1.7 0 1.3.5 1.4 1.2.4 1.5.4 3 0 4.4-.1.6-.7 1.1-1.3 1.1h-2z"/>
    </g>
    <g class="st1">
      <path class="st2" d="M54.4 202.2c-.1.7-.1 1.2-.2 1.9-.3 1.2-.7 1.5-1.9 1.6-.9.1-1.9.1-2.8 0-1.1.1-2-.8-2.1-1.8v-.4c-.1-.8 0-1.7 0-2.5-.1-1.1.8-2 1.9-2.1h.1c1-.1 1.9-.1 2.9 0 1.1 0 2 .9 2 2v.2c.1.3.1.7.1 1.1z"/>
    </g>
    <g class="st1">
      <path class="st2" d="M54.3 139.9v1.4c0 1.1-.9 2.1-2 2.1h-2.7c-1.1.1-2.1-.8-2.1-1.9v-.2c-.1-.9-.1-1.8 0-2.7 0-1.1.9-2 2-2.1h.1c.9-.1 1.7-.1 2.6 0 1.1-.1 2.1.8 2.2 1.9v.3c0 .4 0 .8-.1 1.2z"/>
    </g>
    <g class="st1">
      <path class="st2" d="M105.3 213.5H104c-1 .1-1.9-.6-2-1.6v-.2c0-1.4 0-2.7.2-4.1.1-.4.4-.6.8-.7 1.3-.1 2.5-.2 3.8-.1 1.4.1 2 .8 2 2.1v2.4c.1 1.1-.8 2.2-1.9 2.3h-.3l-1.3-.1z"/>
    </g>
    <g class="st1">
      <path class="st2" d="M40.3 178.9v-2.1c0-.7.2-1.1.9-1.1 1.2-.1 2.3-.1 3.5-.1 1.8.1 2 .3 2 2.1 0 1.2-.1 2.5-.2 3.7-.1.6-.4.8-1 .9-1.2.1-2.5.1-3.8.1-1.1-.1-1.4-.4-1.4-1.5v-2z"/>
    </g>
    <g class="st1">
      <path class="st2" d="M89.8 129.2h1.9c1.1 0 1.5.3 1.6 1.4 0 1.3 0 2.7-.2 4-.1.7-.6.9-1.5 1-1.2.1-2.5.1-3.8 0-.6.1-1.2-.3-1.3-.9v-.3c-.3-1.5-.2-3 .1-4.5.1-.5.4-.7.9-.7h2.3z"/>
    </g>
    <g class="st1">
      <path class="st2" d="M40.3 163.3V161c0-.6.2-1 .8-1.1 1.6-.4 3.3-.3 4.8.3.3.2.5.4.6.8.1 1.4.2 2.8.1 4.3-.1 1-.5 1.4-1.4 1.4-1.1.1-2.2.1-3.4.1-1.1 0-1.5-.4-1.5-1.5v-2z"/>
    </g>
    <g class="st1">
      <path class="st2" d="M74.2 129.2h2.1c.8 0 1.2.2 1.2 1 .1 1.5 0 3-.1 4.4-.1.7-.8.9-1.3.9-1.4 0-2.8 0-4.3-.1-.3-.1-.6-.3-.8-.6-.5-1.6-.6-3.3-.2-4.9.1-.5.4-.7.9-.7h2.5z"/>
    </g>
    <g class="st1">
      <path class="st2" d="M40.3 194.4v-2.1c0-.5.2-.8.7-.9 1.6-.5 3.3-.4 4.8.2.4.2.6.5.7.9.1 1.4.1 2.8 0 4.2-.1.5-.4.8-.8 1.1-1.5.5-3 .6-4.6.2-.5-.1-.8-.6-.8-1.1v-2.5z"/>
    </g>
    <g class="st1">
      <path class="st2" d="M105.4 129.2h1.9c1 0 1.4.1 1.4 1.1.1 1.3 0 2.7-.1 4-.1.7-.6 1.2-1.3 1.1-1.2.1-2.4.1-3.7 0-1.1-.1-1.6-.8-1.6-2.1-.1-.9 0-1.8 0-2.7.1-1.1.4-1.4 1.5-1.4h1.9z"/>
    </g>
    <g class="st3">
      <g class="st3">
        <path class="st4" d="M85.5 141.4h1.8c.9 0 1.2.1 1.3 1 .1 1.2 0 2.5-.1 3.7-.1.6-.6 1.1-1.2 1.1-1.1.1-2.2.1-3.4 0-1-.1-1.5-.7-1.5-2v-2.5c.1-1.1.4-1.3 1.4-1.3h1.7z"/>
      </g>
      <g class="st3">
        <path class="st4" d="M71.3 147.2h1.8c.9 0 1.2.1 1.3 1 .1 1.2 0 2.5-.1 3.7-.1.6-.6 1.1-1.2 1.1-1.1.1-2.2.1-3.4 0-1-.1-1.5-.7-1.5-2v-2.5c.1-1.1.4-1.3 1.4-1.3h1.7z"/>
      </g>
      <g class="st3">
        <path class="st4" d="M59 162.5h1.8c.9 0 1.2.1 1.3 1 .1 1.2 0 2.5-.1 3.7-.1.6-.6 1.1-1.2 1.1-1.1.1-2.2.1-3.4 0-1-.1-1.5-.7-1.5-2v-2.5c.1-1.1.4-1.3 1.4-1.3H59z"/>
      </g>
      <g class="st3">
        <path class="st4" d="M59.6 175.4h1.8c.9 0 1.2.1 1.3 1 .1 1.2 0 2.5-.1 3.7-.1.6-.6 1.1-1.2 1.1-1.1.1-2.2.1-3.4 0-1-.1-1.5-.7-1.5-2v-2.5c.1-1.1.4-1.3 1.4-1.3h1.7z"/>
      </g>
      <g class="st3">
        <path class="st4" d="M71.3 186.2h1.8c.9 0 1.2.1 1.3 1 .1 1.2 0 2.5-.1 3.7-.1.6-.6 1.1-1.2 1.1-1.1.1-2.2.1-3.4 0-1-.1-1.5-.7-1.5-2v-2.5c.1-1.1.4-1.3 1.4-1.3h1.7z"/>
      </g>
      <g class="st3">
        <path class="st4" d="M79.1 192.3h1.8c.9 0 1.2.1 1.3 1 .1 1.2 0 2.5-.1 3.7-.1.6-.6 1.1-1.2 1.1-1.1.1-2.2.1-3.4 0-1-.1-1.5-.7-1.5-2v-2.5c.1-1.1.4-1.3 1.4-1.3h1.7z"/>
      </g>
      <g class="st3">
        <path class="st4" d="M94.7 185.8h1.8c.9 0 1.2.1 1.3 1 .1 1.2 0 2.5-.1 3.7-.1.6-.6 1.1-1.2 1.1-1.1.1-2.2.1-3.4 0-1-.1-1.5-.7-1.5-2v-2.5c.1-1.1.4-1.3 1.4-1.3h1.7z"/>
      </g>
      <g class="st3">
        <path class="st4" d="M105.1 166.8h1.8c.9 0 1.2.1 1.3 1 .1 1.2 0 2.5-.1 3.7-.1.6-.6 1.1-1.2 1.1-1.1.1-2.2.1-3.4 0-1-.1-1.5-.7-1.5-2v-2.5c.1-1.1.4-1.3 1.4-1.3h1.7z"/>
      </g>
      <g class="st3">
        <path class="st4" d="M99.9 148.6h1.8c.9 0 1.2.1 1.3 1 .1 1.2 0 2.5-.1 3.7-.1.6-.6 1.1-1.2 1.1-1.1.1-2.2.1-3.4 0-1-.1-1.5-.7-1.5-2V150c.1-1.1.4-1.3 1.4-1.3l1.7-.1z"/>
      </g>
      <g class="st3">
        <path class="st4" d="M107.1 177.3h1.8c.9 0 1.2.1 1.3 1 .1 1.2 0 2.5-.1 3.7-.1.6-.6 1.1-1.2 1.1-1.1.1-2.2.1-3.4 0-1-.1-1.5-.7-1.5-2v-2.5c.1-1.1.4-1.3 1.4-1.3h1.7z"/>
      </g>
    </g>
    <path class="st5" d="M58.9 143.8h2.3c1.2 0 1.7.2 1.7 1.4.1 1.7 0 3.3-.2 5-.1.8-.8 1.5-1.6 1.4-1.5.1-2.9.1-4.4 0-1.3-.1-1.9-1-2-2.6 0-1.1 0-2.3.1-3.4.1-1.4.5-1.8 1.8-1.8h2.3z"/>
    <path class="st5" d="M97.5 136.6h2.3c1.2 0 1.7.2 1.7 1.4.1 1.7 0 3.3-.2 5 0 .8-.8 1.5-1.6 1.4-1.5.1-2.9.1-4.4 0-1.3-.1-1.9-1-2-2.6 0-1.1 0-2.3.1-3.4.1-1.4.5-1.8 1.8-1.8h2.3z"/>
    <path class="st5" d="M97.3 198h2.3c1.2 0 1.7.2 1.7 1.4.1 1.7 0 3.3-.2 5-.1.8-.8 1.5-1.6 1.4-1.5.1-2.9.1-4.4 0-1.3-.1-1.9-1-2-2.6 0-1.1 0-2.3.1-3.4.1-1.4.5-1.8 1.8-1.8h2.3z"/>
    <path class="st5" d="M66.7 198.2H69c1.2 0 1.7.2 1.7 1.4.1 1.7 0 3.3-.2 5 0 .8-.8 1.5-1.6 1.4-1.5.1-2.9.1-4.4 0-1.3-.1-1.9-1-2-2.6 0-1.1 0-2.3.1-3.4.1-1.4.5-1.8 1.8-1.8h2.3z"/>
    <path class="st5" d="M51.3 167.2h2.3c1.2 0 1.7.2 1.7 1.4.1 1.7 0 3.3-.2 5-.1.8-.8 1.5-1.6 1.4-1.5.1-2.9.1-4.4 0-1.3-.1-1.9-1-2-2.6 0-1.1 0-2.3.1-3.4.1-1.4.5-1.8 1.8-1.8h2.3z"/>
    <path d="m98.7 179.6-15.8 9.2-15.7-9.3.1-18.5 15.8-9.1 15.7 9.3-.1 18.4z" style="fill:#fff"/>
    <path class="st5" d="M112.7 151.8h2.3c1.2 0 1.7.2 1.7 1.4.1 1.7 0 3.3-.2 5-.1.8-.8 1.5-1.6 1.4-1.5.1-2.9.1-4.4 0-1.3-.1-1.9-1-2-2.6 0-1.1 0-2.3.1-3.4.1-1.4.5-1.8 1.8-1.8h2.3z"/>
  </g>
</svg>
