<svg xmlns="http://www.w3.org/2000/svg" width="120" height="60" viewBox="-14.157 1.581 122.947 59.861">
  <linearGradient id="a" gradientUnits="userSpaceOnUse" x1="5.785" y1="28.699" x2="36.127" y2="28.699">
    <stop offset="0" stop-color="#2478c7"/>
    <stop offset=".257" stop-color="#246bb8"/>
    <stop offset=".752" stop-color="#254b90"/>
    <stop offset="1" stop-color="#26387a"/>
  </linearGradient>
  <linearGradient id="b" gradientUnits="userSpaceOnUse" x1="5.716" y1="44.152" x2="36.197" y2="44.152">
    <stop offset="0" stop-color="#57bf42"/>
    <stop offset=".318" stop-color="#4bae3c"/>
    <stop offset=".948" stop-color="#2c812c"/>
    <stop offset="1" stop-color="#297d2b"/>
  </linearGradient>
  <path d="M7.965 48.14s27.152-8.137 12.675-33.02c0 0-5.79 3.364-12.675-.156l-.042-.009c-6.884 3.52-12.677.156-12.677.156C-19.23 39.995 7.923 48.13 7.923 48.13z" fill="#fff"/>
  <path d="M32.377 23.428s-5.207 3.026-11.402-.14l-.037-.008c-6.193 3.167-11.4.14-11.4.14-2.353 4.044-3.478 7.594-3.75 10.7H36.13c-.274-3.105-1.4-6.65-3.75-10.692z" fill="url(#a)" transform="translate(-15.402 -11.049) scale(1.11402)"/>
  <path d="M36.2 35.174H5.722C5.365 48.453 20.938 53.12 20.938 53.12l.037.008s15.58-4.67 15.216-17.955z" fill="url(#b)" transform="translate(-15.402 -11.049) scale(1.11402)"/>
  <path d="M-.864 24.618c-.223.105-.685.226-1.303.226-1.754 0-2.656-1.098-2.656-2.543 0-1.731 1.234-2.694 2.77-2.694.594 0 1.046.12 1.25.226l-.224.91a2.45 2.45 0 0 0-.963-.189c-.912 0-1.618.55-1.618 1.679 0 1.016.602 1.655 1.627 1.655a2.93 2.93 0 0 0 .955-.165zm1.315-4.93h1.151v4.108h2.006v.963H.45zm8.767 2.484c0 1.663-1.01 2.671-2.492 2.671-1.504 0-2.384-1.136-2.384-2.581 0-1.52.969-2.657 2.468-2.657 1.558 0 2.409 1.166 2.409 2.567zm-3.676.066c0 .994.468 1.694 1.234 1.694.774 0 1.219-.738 1.219-1.724 0-.91-.446-1.693-1.226-1.693s-1.225.738-1.225 1.723zm6.133-2.562v2.919c0 .873.331 1.317.918 1.317.602 0 .934-.421.934-1.317v-2.897h1.144v2.845c0 1.565-.78 2.31-2.117 2.31-1.279 0-2.032-.707-2.032-2.325v-2.83zm4.561.08a10.238 10.238 0 0 1 1.551-.104c.962 0 1.587.172 2.076.541.529.39.858 1.016.858 1.912 0 .969-.353 1.64-.842 2.054-.535.446-1.337.655-2.34.655a9.96 9.96 0 0 1-1.302-.075zm1.151 4.14a2.139 2.139 0 0 0 .4.022c1.038.008 1.716-.564 1.716-1.775.007-1.054-.61-1.611-1.596-1.611-.256 0-.42.022-.519.044zM6.21 32.543l-1.036.034c-2.37.192-3.423 1.403-3.72 2.738h.052c.561-.58 1.35-.914 2.423-.914 1.913 0 3.529 1.353 3.529 3.721 0 2.265-1.738 4.126-4.215 4.126-3.036 0-4.53-2.264-4.53-4.986 0-2.142.78-3.932 2.02-5.074 1.142-1.036 2.618-1.598 4.408-1.686a7.492 7.492 0 0 1 1.069-.018zm-2.986 7.743c.93 0 1.527-.86 1.527-2.019 0-1.054-.563-1.966-1.705-1.966a1.738 1.738 0 0 0-1.58 1.018c-.07.14-.104.35-.104.668.052 1.212.631 2.3 1.844 2.3zm12.717-7.743-1.036.034c-2.37.192-3.423 1.403-3.72 2.738h.052c.561-.58 1.35-.914 2.423-.914 1.913 0 3.529 1.353 3.529 3.721 0 2.265-1.738 4.126-4.214 4.126-3.037 0-4.53-2.264-4.53-4.986 0-2.142.78-3.932 2.02-5.074 1.141-1.036 2.616-1.598 4.408-1.686a7.492 7.492 0 0 1 1.07-.018zm-2.986 7.743c.93 0 1.527-.86 1.527-2.019 0-1.054-.563-1.966-1.705-1.966a1.738 1.738 0 0 0-1.58 1.018c-.07.14-.104.35-.104.668.052 1.212.631 2.3 1.844 2.3z" fill="#fff"/>
  <path d="M44.183 24.702v13.397h-2.989v-8.365h-.065l-3.314 8.226h-1.951l-3.306-8.226h-.074v8.365h-2.99V24.702h3.936l3.38 8.607h.074l3.38-8.607zm4.92 13.537c-.985 0-1.814-.293-2.484-.877s-.997-1.335-.997-2.251c0-.96.36-1.694 1.072-2.238s1.754-.842 3.116-.929l2.423-.15v-.593c0-.414-.138-.735-.414-.961s-.647-.339-1.119-.339c-.438 0-.802.104-1.095.31s-.453.476-.502.804h-2.961c.042-1.046.49-1.886 1.341-2.52s1.973-.952 3.366-.952c1.375 0 2.49.32 3.323.961s1.263 1.48 1.263 2.52v7.074H52.24v-1.494h-.065c-.273.498-.692.897-1.258 1.192a3.955 3.955 0 0 1-1.816.432zm1.16-2.285c.545 0 .996-.147 1.388-.441a1.345 1.345 0 0 0 .57-1.138v-.715l-1.892.13c-.464.03-.822.142-1.072.334s-.376.446-.376.761c0 .33.126.598.376.78s.59.3 1.016.3zm13.649-1.096h2.97a3.666 3.666 0 0 1-1.563 2.531c-.882.628-1.993.942-3.328.942-1.634 0-2.915-.473-3.844-1.42s-1.392-2.252-1.392-3.919.461-2.988 1.394-3.969 2.17-1.471 3.742-1.471c1.542 0 2.772.468 3.69 1.407s1.38 2.191 1.38 3.765v.937H59.97v.204c0 .632.192 1.144.576 1.536s.884.59 1.494.59c.458 0 .854-.1 1.188-.302a1.544 1.544 0 0 0 .688-.83zm-1.987-4.967c-.526 0-.968.176-1.328.528s-.56.805-.603 1.355h3.843c-.03-.57-.221-1.026-.57-1.37s-.798-.515-1.343-.515zm6.157 1.012a2.87 2.87 0 0 1 1.24-2.447c.827-.603 1.942-.896 3.347-.896 1.393 0 2.498.299 3.315.928s1.231 1.458 1.245 2.517H74.22a1.106 1.106 0 0 0-.45-.887c-.299-.219-.668-.329-1.138-.329-.414 0-.749.084-1.003.252s-.38.386-.38.66c0 .413.396.704 1.188.872l2.132.434c1.033.217 1.781.548 2.242.993s.69 1.058.69 1.839c0 1.058-.437 1.904-1.317 2.54s-2.04.951-3.482.951c-1.468 0-2.627-.31-3.482-.933a3.238 3.238 0 0 1-1.384-2.53h3.196a1.255 1.255 0 0 0 .534.909c.307.217.698.325 1.203.325.458 0 .819-.08 1.082-.237s.394-.376.394-.655a.618.618 0 0 0-.265-.52c-.175-.131-.468-.239-.877-.325l-1.94-.398c-1.01-.2-1.776-.576-2.298-1.096s-.784-1.173-.784-1.959zm11.483-5.41h3.288v2.285h1.866v2.433h-1.866v4.41c0 .725.398 1.096 1.197 1.096.23 0 .453-.015.668-.047v2.34c-.379.086-.86.13-1.449.13-1.325 0-2.273-.222-2.845-.664s-.859-1.172-.859-2.187v-5.07H78.17v-2.455h1.395zM86.14 38.11V27.764h3.194v1.943h.064c.379-1.387 1.192-2.08 2.441-2.08a2.64 2.64 0 0 1 .837.13v2.822c-.285-.124-.638-.186-1.058-.186-.705 0-1.247.193-1.624.58s-.566.942-.566 1.667v5.46H86.14zm16.126-1.197c-.934.946-2.222 1.42-3.862 1.42s-2.93-.475-3.863-1.424-1.402-2.274-1.402-3.97c0-1.663.474-2.988 1.421-3.94s2.229-1.445 3.844-1.445c1.622 0 2.904.478 3.848 1.434s1.415 2.274 1.415 3.95c0 1.694-.468 3.027-1.402 3.986zm-5.283-1.779c.34.518.814.776 1.42.776s1.08-.26 1.421-.776.511-1.248.511-2.195c0-.923-.173-1.647-.52-2.172s-.817-.79-1.411-.79c-.601 0-1.072.263-1.415.785s-.515 1.248-.515 2.177c0 .946.17 1.678.51 2.195z" fill="#3aa03d"/>
</svg>
