<svg xmlns="http://www.w3.org/2000/svg" width="64" height="64" viewBox="0 0 64 64" version="1.1">
  <g style="fill:#407afc" transform="matrix(.21732 0 0 .21732 -10.779 10.181)">
    <path d="M343.3 90.9c-3.6-21.4-19.4-38.5-39.9-44.5.3-2.1.6-4.2.6-6.3 0-22.1-17.9-40-40-40-11.2 0-21.2 4.6-28.5 12-2-5.3-7-9.1-13-9.1-7.7 0-14 6.3-14 14s5.3 11.1 16.4 16.4c1.5.7 3 1.5 4.4 2.3.9.5 1.7 1 2.6 1.5.6.4 1.3.8 1.9 1.2.4.2.7.5 1.1.7 3.4 2.3 6.5 4.8 9.5 7.5.2.1.3.3.5.4 1.2 1.1 2.4 2.3 3.5 3.6.3.3.6.7.9 1 1.3 1.4 2.5 2.9 3.6 4.4 9.4 12.4 15 27.9 15 44.6 0 16.7-5.7 32.2-15 44.6-1.1 1.5-2.4 2.9-3.6 4.4-.3.3-.6.7-.9 1-1.1 1.2-2.3 2.4-3.5 3.6-.2.1-.3.3-.5.4-3 2.7-6.1 5.3-9.5 7.5-.4.2-.7.5-1.1.7-.6.4-1.2.8-1.9 1.2-.8.5-1.7 1-2.6 1.5-1.5.8-2.9 1.6-4.4 2.3-11.2 5.2-16.4 8.6-16.4 16.4 0 7.7 6.3 14 14 14 6 0 11-3.8 13-9.1 7.3 7.4 17.4 12 28.5 12 22.1 0 40-17.9 40-40 0-2.2-.3-4.2-.6-6.3 20.5-6 36.2-23.2 39.9-44.5.5-3.1.8-6.2.8-9.4 0-3.8-.3-7-.8-10zm-174.5 76.5c-1.5-.7-3-1.5-4.4-2.3-.9-.5-1.7-1-2.6-1.5-.6-.4-1.3-.8-1.9-1.2-.4-.2-.7-.5-1.1-.7-3.4-2.2-6.5-4.8-9.5-7.5-.2-.1-.3-.3-.5-.4-1.2-1.2-2.4-2.3-3.5-3.6-.3-.3-.6-.7-.9-1-1.3-1.4-2.5-2.9-3.6-4.4-9.4-12.4-15-27.9-15-44.6 0-16.7 5.7-32.2 15-44.6 1.1-1.5 2.4-2.9 3.6-4.4.3-.3.6-.7.9-1 1.1-1.2 2.3-2.4 3.5-3.6.2-.1.3-.3.5-.4 3-2.7 6.1-5.3 9.5-7.5.4-.2.7-.5 1.1-.7.6-.4 1.2-.8 1.9-1.2.8-.5 1.7-1 2.6-1.5 1.5-.8 2.9-1.6 4.4-2.3 11.2-5.2 16.4-8.6 16.4-16.4 0-7.7-6.3-14-14-14-6 0-11 3.8-13 9.1-7.3-7.4-17.4-12-28.5-12-22.1 0-40 17.9-40 40 0 2.2.3 4.2.6 6.3-20.5 6-36.2 23.2-39.9 44.5-.5 3.1-.8 6.2-.8 9.4s.3 6.3.8 9.4c3.6 21.4 19.4 38.5 39.9 44.5-.3 2.1-.6 4.2-.6 6.3 0 22.1 17.9 40 40 40 11.2 0 21.2-4.6 28.5-12 2 5.3 7 9.1 13 9.1 7.7 0 14-6.3 14-14 0-7.2-5.2-10.6-16.4-15.8z"/>
    <path d="M240.5 100.3c0-24.1-19.5-43.6-43.6-43.6s-43.6 19.5-43.6 43.6 19.5 43.6 43.6 43.6 43.6-19.5 43.6-43.6z"/>
  </g>
</svg>
