<svg xmlns="http://www.w3.org/2000/svg" viewBox="-2.82 -4.07 64 64" version="1.1" width="64" height="64" style="enable-background:new 0 0 414 73">
  <g transform="matrix(2.58163 0 0 2.58163 -11.693 -39.012)">
    <path style="fill:#446ca9;stroke-width:.38674843" d="M6.976 30.049h-3.52v8.276h8.238v-3.558H6.976Zm17.713.039v4.68H19.97v-.04 3.597h8.238V30.05H24.65ZM3.456 21.81h3.558l-.038-.039v-4.68h4.718v-3.557H3.456Zm16.514-8.276v3.558h4.719v4.718h3.52v-8.276z"/>
    <path style="fill:#76c4d5;stroke-width:.38674843" d="m19.506 21.811-4.718-4.718h5.182v-3.558h-8.276v3.558l4.718 4.718zm-4.254 8.238h-3.094l3.906 3.906.774.812h-5.144v3.558h8.276V34.73l-2.359-2.321zm9.437-8.238v5.144l-.812-.812-3.907-3.906v3.132l2.32 2.32 2.36 2.36h3.558V21.81Zm-12.995 4.68-4.68-4.68H3.456v8.238h3.52v-5.144l4.718 4.718z"/>
  </g>
</svg>
