<svg xmlns:svg="http://www.w3.org/2000/svg" xmlns="http://www.w3.org/2000/svg" role="img" viewBox="-2.82 -4.07 64 64" version="1.1" style="enable-background:new 0 0 414 73">
  <g transform="matrix(2.5816264,0,0,2.5816264,-11.69286,-39.011573)">
    <path style="fill:#446ca9;stroke-width:0.38674843" d="m 6.9756745,30.048871 h -3.519411 v 8.276416 H 11.694006 V 34.767201 H 6.9756745 Z m 17.7130775,0.03867 v 4.679656 h -4.718331 v -0.03867 3.59676 h 8.237741 V 30.048871 H 24.650077 Z M 3.4562635,21.811129 h 3.558086 l -0.03867,-0.03867 V 17.0928 H 11.69401 V 13.534715 H 3.4562675 Z M 19.970421,13.534713 v 3.558085 h 4.718331 v 4.718331 h 3.51941 v -8.276416 z"/>
    <path style="fill:#76c4d5;stroke-width:0.38674843" d="m 19.506325,21.811129 -4.718332,-4.718331 h 5.182428 v -3.558085 h -8.276415 v 3.558085 l 4.71833,4.718331 z m -4.254233,8.237742 h -3.093989 l 3.90616,3.906158 0.773498,0.812172 h -5.143755 v 3.558086 h 8.276415 v -3.59676 l -2.359164,-2.32049 z m 9.43666,-8.237742 v 5.143755 l -0.812171,-0.812172 -3.90616,-3.906159 v 3.132663 l 2.320491,2.320489 2.359165,2.359166 h 3.558086 V 21.811129 Z M 11.694005,26.490785 7.0143495,21.811129 h -3.558086 v 8.237742 h 3.519411 v -5.143755 l 4.7183305,4.718332 z"/>
  </g>
</svg>
