<svg xmlns="http://www.w3.org/2000/svg" viewBox="0 0 120 60" version="1.1" width="120" height="60">
  <g transform="translate(-1.445)">
    <g transform="translate(0 .797)">
      <path style="fill:#000;stroke-width:.13740416" d="M49.74 32.413c-1.736 0-3.09-1.437-3.09-3.215 0-1.778 1.372-3.203 3.09-3.203a2.912 2.912 0 0 1 2.326 1.1l-.92.824c-.382-.412-.85-.705-1.415-.705-1.032 0-1.83.866-1.83 1.981 0 1.116.798 1.993 1.83 1.993.573 0 1.05-.304 1.44-.742l.952.788c-.578.715-1.342 1.18-2.384 1.18z" class="cls-1"/>
      <path style="fill:#000;stroke-width:.13740416" d="M59.28 29.198c0-1.759 1.398-3.206 3.125-3.206s3.115 1.447 3.115 3.206-1.405 3.215-3.115 3.215c-1.709 0-3.124-1.437-3.124-3.215zm4.956 0c0-1.179-.78-2.009-1.83-2.009s-1.84.84-1.84 2.009c0 1.17.78 2.018 1.84 2.018 1.059 0 1.83-.839 1.83-2.018z" class="cls-1"/>
      <path style="fill:#000;stroke-width:.13740416" d="M73.093 32.324v-6.25H75c1.924 0 3.133.9 3.133 3.044 0 2.045-1.197 3.206-2.886 3.206zm3.792-3.215c0-1.384-.651-1.857-1.884-1.857h-.658v3.903h.864c1.1 0 1.678-.778 1.678-2.046z" class="cls-1"/>
      <path style="fill:#000;stroke-width:.13740416" d="M88.681 30.841H86.86l-.424 1.483h-1.32l1.961-6.25h1.374l1.968 6.25h-1.32Zm-1.535-.999h1.252l-.183-.669c-.165-.617-.372-1.348-.442-1.75a16.548 16.548 0 0 1-.433 1.75z" class="cls-1"/>
      <path style="fill:#000;stroke-width:.13740416" d="M100.399 32.413c-1.735 0-3.089-1.437-3.089-3.215 0-1.778 1.371-3.203 3.089-3.203a2.916 2.916 0 0 1 2.326 1.1l-.92.824c-.382-.412-.851-.705-1.414-.705-1.034 0-1.832.866-1.832 1.981 0 1.116.798 1.993 1.832 1.993.573 0 1.05-.304 1.44-.742l.962.786c-.589.717-1.353 1.181-2.394 1.181z" class="cls-1"/>
      <path style="fill:#000;stroke-width:.13740416" d="M111.571 32.324V29.69l-1.717-3.617h1.374l.754 1.884a5.263 5.263 0 0 1 .2.55 4.486 4.486 0 0 1 .2-.55l.84-1.884h1.39l-1.808 3.632v2.619z" class="cls-1"/>
    </g>
    <g transform="translate(-13.778 -13.882) scale(1.50936)">
      <path style="fill:#000;stroke-width:.13740416" d="M17.746 27.317a6.792 6.792 0 0 1 3.16-4.11l-1.455-2.513a9.695 9.695 0 0 0-4.51 5.871z" class="cls-1"/>
      <path style="fill:#000;stroke-width:.13740416" d="M22.542 22.53a6.802 6.802 0 0 1 1.75-.228V19.4a9.7 9.7 0 0 0-2.502.324z" class="cls-1"/>
      <path style="fill:#000;stroke-width:.13740416" d="M26.056 22.533a6.786 6.786 0 0 1 4.105 3.16l2.516-1.453a9.697 9.697 0 0 0-5.869-4.51z" class="cls-1"/>
      <path style="fill:#000;stroke-width:.13740416" d="M14.612 29.073a9.69 9.69 0 0 0 .327 2.5l2.806-.75a6.742 6.742 0 0 1-.23-1.75z" class="cls-1"/>
      <path style="fill:#000;stroke-width:.13740416" d="M15.908 33.912a9.673 9.673 0 0 0 1.535 1.998l2.06-2.05a6.896 6.896 0 0 1-1.077-1.4z" class="cls-1"/>
      <path style="fill:#000;stroke-width:.13740416" d="M19.451 37.452a9.609 9.609 0 0 0 4.833 1.294v-2.902a6.741 6.741 0 0 1-3.38-.907z" class="cls-1"/>
      <path style="fill:#000;stroke-width:.13740416" d="M30.158 32.467a6.784 6.784 0 0 1-4.111 3.146l.751 2.806a9.71 9.71 0 0 0 5.874-4.501z" class="cls-1"/>
      <path style="fill:#000;stroke-width:.13740416" d="M33.644 31.673a9.702 9.702 0 0 0 .022-5.018l-2.814.751a6.78 6.78 0 0 1-.02 3.514z" class="cls-1"/>
    </g>
  </g>
</svg>
