<svg xmlns="http://www.w3.org/2000/svg" viewBox="-13.687 -3.28 124.727 62.369" height="60" width="120">
  <path d="M8.908 12.267c-8.624 0-15.626 7.015-15.626 15.626S.297 43.52 8.908 43.52s15.626-7.015 15.626-15.626S17.52 12.267 8.908 12.267zm0 33.04c-9.596 0-17.404-7.807-17.404-17.402S-.689 10.502 8.908 10.502s17.401 7.806 17.401 17.403-7.807 17.401-17.401 17.401" fill="#323e4e"/>
  <path d="M6.19 18.16v-2.82c0-.405 1.598-.859 2.68-.859s2.74.454 2.74.86v2.81c-.915-.172-1.892-.292-2.713-.292-.83 0-1.804.123-2.707.298" fill="#5e6372"/>
  <path d="M5.042 35.322c-2.39 0-4.34-.742-5.065-.816-1.079-.111-2.223-1.168-3.262-1.168-.172 0-.342.03-.508.098a13.868 13.868 0 0 1-.593-1.677c1.696-1.547 3.308-2.055 4.69-2.055 2.632 0 4.44 1.838 4.447 1.863.14.132 2.735 2.047 4.127 2.358l1.063.135c-1.678.964-3.38 1.263-4.9 1.263" fill="#666a79"/>
  <path d="M-3.767 33.498h.003l-.023-.053z" fill="#b42c9d"/>
  <g fill="#323e4e">
    <path d="M14.683 23.431v-2.938c0-.406-3.498-1.34-5.788-1.34s-5.667.934-5.667 1.34v2.901c2.68-1.916 5.62-2.77 5.62-2.77.009-.003 3.124.859 5.835 2.806m1.412 5.791c-.868.166-1.883 1.412-3.197 2.67.518-1.856 1.46-3.936 3.164-5.73a18.136 18.136 0 0 0-1.392-1.139v-.008c-1.713-1.265-3.696-2.35-5.762-2.946h-.002c-.85.222-1.687.62-2.476.995-1.7.808-3.295 1.831-4.69 3.096l-.003.002c1.52 1.54 2.424 3.477 2.966 5.285l.04.12.433.385c1.068.908 2.276 1.657 3.668 1.968l-.005-.043-.547-4.424-.138-2.977.748-3.418.685 3.418-.163 2.985-.493 4.475 1.002.12a8.002 8.002 0 0 1-6.785-.105c-1.06-.508-2.087-.99-3.275-1.113-1.258-.13-2.51.12-3.674.594l.005.01.023.051c2.249 5.115 7.507 8.452 13.087 8.282 5.48-.166 10.464-3.699 12.46-8.803.097-.278.208-.559.298-.842-1.885-1.387-4.85-3.133-5.995-2.913"/>
    <path d="M16.096 29.22c1.145-.22-.868.167 0 0m18.481 2.528c-2.178 0-3.929-1.751-3.929-3.929s1.751-3.929 3.93-3.929c1.099 0 2.065.27 2.783.99.224.224.224.561 0 .785s-.584.246-.81.022c-.517-.516-1.19-.684-1.975-.684a2.808 2.808 0 0 0-2.807 2.807 2.832 2.832 0 0 0 2.808 2.825c.785 0 1.482-.137 1.998-.652.225-.224.562-.224.787 0s.224.562 0 .786c-.72.718-1.685.989-2.784.989m9.588-1.123a2.808 2.808 0 1 0-.002-5.616 2.808 2.808 0 0 0 .002 5.616zm0-6.736c2.178 0 3.929 1.751 3.929 3.929s-1.751 3.929-3.93 3.929-3.928-1.751-3.928-3.93 1.75-3.928 3.929-3.928m8.645 1.172v5.469h1.908c1.549 0 2.806-1.19 2.806-2.74s-1.257-2.738-2.806-2.738zm1.908-1.078c2.178 0 3.929 1.638 3.929 3.816s-1.751 3.81-3.929 3.81h-2.47a.557.557 0 0 1-.562-.562v-6.512a.557.557 0 0 1 .561-.561h2.471m13.473 6.573c.315 0 .562.224.562.539s-.247.539-.562.539h-5.389a.557.557 0 0 1-.56-.562v-6.511a.557.557 0 0 1 .56-.562h5.39c.314 0 .561.225.561.54s-.247.539-.562.539h-4.827v2.11h3.714a.537.537 0 0 1 .562.538.537.537 0 0 1-.562.54h-3.704v2.29h4.827m19.908-2.403h-5.165v2.964a.562.562 0 1 1-1.123 0v-6.602a.562.562 0 1 1 1.123 0v2.559h5.165v-2.559a.562.562 0 1 1 1.123 0v6.602a.562.562 0 1 1-1.123 0v-2.964m6.738 2.965a.562.562 0 1 1-1.123 0v-6.602a.562.562 0 1 1 1.123 0v6.602m5.613-6.04v2.74h2.93c.786 0 1.325-.652 1.325-1.37s-.54-1.37-1.325-1.37zm2.93-1.078a2.451 2.451 0 0 1 2.447 2.448 2.451 2.451 0 0 1-2.447 2.447h-2.93v2.246a.537.537 0 0 1-.562.54.557.557 0 0 1-.561-.562v-6.556a.557.557 0 0 1 .561-.562h3.503m-28.416 7.941a3.438 3.438 0 0 1-.276-.01c-.752-.035-1.484-.324-2.011-.794a.459.459 0 0 1-.133-.362.41.41 0 0 1 .2-.299.674.674 0 0 1 .364-.101c.176 0 .34.062.436.168a2.08 2.08 0 0 0 1.226.465l.183.006c.97 0 1.64-.489 1.71-1.217.07-.816-.775-1.194-1.754-1.631-1.123-.503-2.397-1.072-2.273-2.461.104-1.155 1.078-1.844 2.602-1.844l.309.01c.717.035 1.38.297 1.87.738.1.098.151.22.143.342a.42.42 0 0 1-.19.312.752.752 0 0 1-.39.11.58.58 0 0 1-.431-.17 1.872 1.872 0 0 0-1.091-.42l-.15-.003c-.891 0-1.449.346-1.492.928-.084.865.782 1.25 1.764 1.694 1.115.501 2.38 1.07 2.25 2.468-.11 1.238-1.27 2.07-2.866 2.07"/>
  </g>
</svg>
