<svg version="1.1" xmlns="http://www.w3.org/2000/svg" xmlns:xlink="http://www.w3.org/1999/xlink" x="0px" y="0px" viewBox="0 0 64 64" style="enable-background:new 0 0 64 64" xml:space="preserve">
  <g>
    <circle cx="32" cy="32" r="32" style="fill:#1A237E"/>
    <path class="st1" d="M26.2 48.8c-.1 0-.2 0-.3 0-2.1-.4-4.2-1.3-6-2.5-.9-.6-1.7-1.3-2.5-2-.6-.6-.6-1.6 0-2.2.6-.6 1.6-.6 2.2 0 .6.6 1.3 1.2 2 1.7 1.5 1 3.1 1.7 4.8 2 .8.2 1.4 1 1.2 1.8C27.5 48.3 26.9 48.8 26.2 48.8L26.2 48.8zM14.4 37.1c-.7 0-1.4-.5-1.5-1.2-.9-4.4 0-8.9 2.5-12.7.5-.7 1.5-.9 2.2-.4.7.5.9 1.5.4 2.2-.5.7-.9 1.5-1.3 2.3-1.1 2.5-1.3 5.3-.8 8 .2.8-.4 1.7-1.2 1.8C14.6 37 14.5 37.1 14.4 37.1L14.4 37.1zM38.4 18.6c-.9 0-1.6-.7-1.6-1.6 0-.7.5-1.4 1.3-1.5.7-.1 1.4-.3 2.1-.6.8-.3 1.7.1 2 .9.3.8-.1 1.7-.8 2-.9.3-1.8.6-2.7.7C38.6 18.6 38.5 18.6 38.4 18.6zM38.6 26.5c-.9 0-1.6-.7-1.6-1.6 0-.9.7-1.6 1.5-1.6 1.4 0 4.8-.2 7.4-1.4.8-.4 1.7 0 2.1.7.4.8 0 1.7-.7 2.1l0 0C44.3 26.2 40.6 26.5 38.6 26.5L38.6 26.5zM38.9 41.3c-.1 0-.2 0-.3 0-.9 0-1.6-.7-1.5-1.6 0-.9.7-1.5 1.6-1.5l0 0c1.3 0 4.7-.1 7.8-1 .8-.2 1.7.2 1.9 1.1.2.8-.2 1.7-1.1 1.9 0 0 0 0 0 0C44.1 41.2 40.7 41.3 38.9 41.3z"/>
    <path d="M32.2,41.5h-3c-5,0-9.1-4.1-9.1-9.1c0-5,4.1-9.1,9.1-9.1h3c1,0,1.7,0.8,1.7,1.7c0,1-0.8,1.7-1.7,1.7h-3 c-3.1,0-5.6,2.5-5.6,5.6c0,3.1,2.5,5.6,5.6,5.6h3c1,0,1.7,0.8,1.7,1.7C33.9,40.8,33.1,41.5,32.2,41.5z" style="fill:#FAFBFF"/>
    <path class="st1" d="M37.9 34h-8c-.9 0-1.6-.7-1.6-1.6 0-.9.7-1.6 1.6-1.6l0 0h8c.9 0 1.6.7 1.6 1.6C39.5 33.3 38.8 34 37.9 34 37.9 34 37.9 34 37.9 34L37.9 34zM44.2 33.6c-.9 0-1.6-.7-1.6-1.6 0-.9.7-1.5 1.5-1.6l0 0c0 0 2.8 0 5.1-.9.8-.3 1.7.1 2 .9s-.1 1.7-.9 2C47.6 33.6 44.4 33.6 44.2 33.6L44.2 33.6zM34.8 49.2c-.8 0-1.3 0-1.3 0-.9 0-1.5-.8-1.5-1.6 0-.9.8-1.5 1.6-1.5 0 0 4 .1 6.9-.4.8-.2 1.7.4 1.8 1.3.2.8-.4 1.7-1.3 1.8C38.9 49.1 36.3 49.2 34.8 49.2zM23.3 20.1c-.9 0-1.6-.7-1.6-1.6 0-.6.3-1.1.8-1.4.1-.1 3.2-1.7 9.1-1.3.9.1 1.5.8 1.4 1.7-.1.9-.8 1.5-1.7 1.4-4.9-.4-7.4.9-7.4.9C23.8 20.1 23.6 20.1 23.3 20.1z"/>
  </g>
</svg>
