<svg xmlns:svg="http://www.w3.org/2000/svg" xmlns="http://www.w3.org/2000/svg" version="1.1" x="0px" y="0px" viewBox="0 0 64 63.999999" enable-background="new 0 0 804.081 230.49" xml:space="preserve">
  <path d="m 48.388423,38.351472 -25.83485,9.402972 V 16.246543 l 25.83485,9.402975 V 2.6782628 c 0,-0.23352 -0.145771,-0.442048 -0.365133,-0.521738 L 42.192246,0.03374676 c -0.170485,-0.06219 -0.360137,-0.03748 -0.508689,0.06636 -0.148277,0.104123 -0.23685,0.273782 -0.23685,0.455379 V 15.735634 L 16.35684,6.6039438 c -0.169934,-0.06137 -0.360137,-0.03666 -0.508412,0.06692 -0.148275,0.104122 -0.236851,0.273782 -0.236851,0.455376 V 56.875031 c 0,0.180767 0.0883,0.350973 0.236851,0.4551 0.148275,0.103842 0.338478,0.129116 0.508412,0.06664 L 41.446428,48.2648 v 15.179871 c 0,0.181048 0.08829,0.35125 0.236851,0.455377 0.09468,0.0658 0.206041,0.09995 0.318487,0.09995 0.06386,0 0.128274,-0.01102 0.189927,-0.03331 l 5.831042,-2.122222 c 0.219359,-0.07997 0.365414,-0.288498 0.365414,-0.522017 z" style="stroke-width:0.27766868"/>
  <g transform="translate(0,-166.49001)"/>
</svg>
