<svg version="1.1" xmlns="http://www.w3.org/2000/svg" x="0" y="0" viewBox="0 0 120 60" width="120" height="60" style="enable-background:new 0 0 120 60">
  <circle class="st0" cx="27.4" cy="30" r="17.4"/>
  <path class="st1" d="M24.2 39.2H24c-1.2-.2-2.3-.7-3.2-1.4-.5-.3-.9-.7-1.3-1.1-.3-.3-.3-.9 0-1.2s.9-.3 1.2 0c.3.3.7.6 1.1.9.8.5 1.7.9 2.6 1.1.5.1.8.5.7 1-.1.4-.4.7-.9.7zm-6.4-6.4c-.4 0-.7-.3-.8-.7-.5-2.4 0-4.9 1.4-6.9.3-.4.8-.5 1.2-.2.4.3.5.8.2 1.2-.3.4-.5.8-.7 1.3-.6 1.4-.7 2.9-.4 4.3.1.5-.2.9-.7 1 0-.1-.1 0-.2 0zm13.1-10.1c-.5 0-.8-.4-.8-.8s.3-.8.7-.8l1.2-.3c.4-.2.9 0 1.1.5.2.4 0 .9-.5 1.1-.5.2-1 .3-1.5.4-.1-.1-.1-.1-.2-.1zM31 27c-.5 0-.8-.4-.8-.8 0-.5.4-.8.8-.8.7 0 2.6-.1 4-.8.4-.2.9 0 1.1.4.2.4 0 .9-.4 1.1-1.5.8-3.6.9-4.7.9zm.2 8.1h-.1c-.5 0-.8-.4-.8-.9s.4-.8.8-.8c.7 0 2.6 0 4.3-.5.5-.1.9.1 1 .6.1.5-.1.9-.6 1-1.8.5-3.6.6-4.6.6z"/>
  <path d="M27.5 35.2h-1.6c-2.7 0-4.9-2.2-4.9-4.9s2.2-4.9 4.9-4.9h1.6c.5 0 .9.4.9.9s-.4.9-.9.9h-1.6c-1.7 0-3.1 1.4-3.1 3.1 0 1.7 1.4 3.1 3.1 3.1h1.6c.5 0 .9.4.9.9.1.5-.3.9-.9.9z" style="fill:#fafbff"/>
  <path class="st1" d="M30.6 31.1h-4.3c-.5 0-.8-.4-.8-.8 0-.5.4-.8.8-.8h4.3c.5 0 .8.4.8.8.1.4-.3.8-.8.8zm3.5-.2c-.5 0-.8-.4-.8-.8 0-.5.4-.8.8-.8 0 0 1.5 0 2.8-.5.4-.2.9 0 1.1.5.2.4 0 .9-.5 1.1-1.5.5-3.3.5-3.4.5zm-5.2 8.4h-.7c-.5 0-.8-.4-.8-.9s.4-.8.9-.8c0 0 2.2.1 3.8-.2.5-.1.9.2 1 .7.1.5-.2.9-.7 1-1.2.2-2.6.2-3.5.2zm-6.2-15.8c-.5 0-.8-.4-.8-.9 0-.3.2-.6.4-.7.1 0 1.8-.9 5-.7.5 0 .8.4.8.9s-.4.8-.9.8c-2.7-.2-4 .5-4.1.5-.1.1-.3.1-.4.1z"/>
  <path class="st0" d="M61.1 32.9c-1 1.5-2.8 2.5-4.9 2.5-3.3 0-5.8-2.7-5.8-5.9 0-3.3 2.5-6 5.8-6 2.1 0 3.8 1 4.8 2.5l-2 1.4c-.6-.9-1.7-1.5-2.8-1.5-1.9 0-3.3 1.6-3.3 3.6s1.4 3.6 3.3 3.6c1.2 0 2.3-.6 2.9-1.6l2 1.4zm1-1.6c0-2.5 1.9-4.1 4.1-4.1 2.2 0 4.1 1.6 4.1 4.1s-1.9 4.1-4.1 4.1c-2.3 0-4.1-1.6-4.1-4.1zm5.8 0c0-1-.8-1.8-1.8-1.8s-1.8.8-1.8 1.8c0 1.1.8 1.8 1.8 1.8s1.8-.7 1.8-1.8zm7.6 5.8c1.8 0 2.3-1.2 2.2-2.8-.4.7-1.4 1.1-2.4 1.1-2 0-3.9-1.6-3.9-4.1 0-2.5 1.9-4.1 3.9-4.1 1 0 2 .4 2.4 1.1v-1H80v6.8c0 3.4-1.6 5-4.4 5-1.7 0-3.2-1-3.9-2.4.6-.3 1.3-.6 1.9-.9.2.7 1.1 1.3 1.9 1.3zm.3-7.7c-1 0-1.9.7-1.9 1.9s.9 1.9 1.9 1.9c1.1 0 1.9-.9 1.9-1.9 0-1.2-1-1.9-1.9-1.9zm8.7 5.8h-2.3v-7.9h2.3v1.1c.4-.8 1.3-1.3 2.3-1.3 1.8 0 2.9 1.1 2.9 3.3v4.7h-2.3v-4.2c0-1-.6-1.6-1.4-1.6-.8 0-1.4.4-1.4 1.6v4.3zm8.4-12.1c.8 0 1.4.6 1.4 1.4 0 .8-.6 1.4-1.4 1.4-.8 0-1.5-.6-1.5-1.4s.7-1.4 1.5-1.4zM94 35.2h-2.3v-7.9H94v7.9zm6.9-7.8v1.9h-1.6v6H97v-6h-1.4v-1.9H97v-3h2.3v3h1.6zm.9 3.9c0-2.5 1.9-4.1 4.1-4.1 2.2 0 4.1 1.6 4.1 4.1s-1.9 4.1-4.1 4.1c-2.2 0-4.1-1.6-4.1-4.1zm5.9 0c0-1-.8-1.8-1.8-1.8s-1.8.8-1.8 1.8c0 1.1.8 1.8 1.8 1.8s1.8-.7 1.8-1.8z"/>
</svg>
