<svg version="1.1" xmlns="http://www.w3.org/2000/svg" xmlns:xlink="http://www.w3.org/1999/xlink" x="0px" y="0px" viewBox="0 0 120 60" style="enable-background:new 0 0 120 60" xml:space="preserve">
  <g>
    <path d="M85.9 20c2.1 0 3.9-1.6 3.9-3.7s-1.7-3.7-3.9-3.7c-2.1 0-3.9 1.6-3.9 3.7S83.7 20 85.9 20zM82.9 25V46c0 1.1 1.5 1.4 3.1 1.4 1.5 0 3.1-.3 3.1-1.4V25c0-1.5-1.5-1.7-3.1-1.7C84.5 23.3 82.9 23.5 82.9 25zM95.7 14.3V46c0 1.1 1.5 1.4 3.1 1.4 1.5 0 3.1-.3 3.1-1.4V14.3c0-1.5-1.5-1.7-3.1-1.7C97.3 12.6 95.7 12.8 95.7 14.3zM51.9 35c0-6.6 5.3-12.5 12.9-12.5 7.6 0 13 5.8 13 12.4 0 7.2-6 12.5-13 12.5C57.2 47.4 51.9 41.5 51.9 35zM64.8 42.3c4.1 0 7.1-3.3 7.1-7.4s-3.1-7.3-7.1-7.3c-4.1 0-7.1 3.3-7.1 7.4S60.8 42.3 64.8 42.3zM48.4 41c0 3.2-7.5 6.4-12.7 6.4-6.4 0-12.4-3.4-15.4-8.9-1.4-2.5-2.1-5.4-2.1-8.3 0-3.4 1-6.7 2.9-9.6 1.5-2.3 4.4-5.4 9.4-7 1.3-.4 3.5-1 6.1-1 7.2 0 11.7 5 11.7 9.4 0 3-2.5 7.3-8.5 7.3-2.8 0-3.7-1.1-3.7-2.5 0-1.8 1.7-3.8 2.9-3.8.5 0 .8.5 1.8.4 1-.1 1.5-.8 1.5-1.6 0-1.5-1.8-3.5-5.6-3.5-1.2 0-2.7.2-4.3.7-3.4 1-5.3 3.5-6.3 5-1.3 1.9-1.9 4.2-1.9 6.4 0 1.9.5 3.8 1.4 5.5 2 3.6 6 5.8 10.2 5.8 5.9 0 7.5-3.1 8.7-3.6C46.5 37 48.4 39.5 48.4 41z"/>
  </g>
</svg>
