<svg xmlns:svg="http://www.w3.org/2000/svg" xmlns="http://www.w3.org/2000/svg" version="1.1" x="0" y="0" viewBox="0 0 64 63.999998" enable-background="new 0 0 720.5 120.25" xml:space="preserve">
  <g transform="matrix(0.24325325,0,0,0.24325325,-0.43785559,31.963513)">
    <path style="fill:#5c3dcc" d="m 206.6,37.299997 c -20.7,0 -37.5,-16.8 -37.5,-37.50000005 0,-20.69999995 16.8,-37.49999995 37.5,-37.49999995 20.7,0 37.5,16.8 37.5,37.49999995 C 244.2,20.599997 227.4,37.299997 206.6,37.299997 m 0,-95.8 c -32.2,0 -58.3,26.1 -58.3,58.29999995 0,32.20000005 26.1,58.30000005 58.3,58.30000005 32.2,0 58.3,-26.1 58.3,-58.30000005 C 265,-32.400003 238.8,-58.500003 206.6,-58.500003"/>
    <polygon transform="translate(0,-60.300003)" style="fill:#5c3dcc" points="114.5,30.2 99.8,45 116.2,60.5 99.9,75.8 114.6,90.5 144.7,60.5"/>
    <path style="fill:#8b8b89" d="m 60.3,58.799997 c -14.5,0 -27.7,-5 -39.2,-15 -12.8,-11.3 -19.3,-26.1 -19.3,-44.00000005 0,-15.99999995 5.9,-29.79999995 17.5,-41.19999995 11.5,-11.3 25.6,-17.1 41.8,-17.1 16.1,0 30,5.8 41.5,17.3 l -15.3,15.2 c -7.4,-7.4 -16,-11 -26.2,-11 -10.5,0 -19.2,3.6 -26.7,10.9 -7.5,7.3 -11.1,15.8 -11.1,25.89999995 0,11.60000005 3.9,20.70000005 12,27.80000005 7.5,6.5 15.7,9.7 25.1,9.7 10.7,0 19.5,-3.6 27,-10.9 l 15,15.4 c -11.6,11.3 -25.7,17 -42.1,17"/>
  </g>
</svg>
