<svg xmlns="http://www.w3.org/2000/svg" version="1.1" x="0" y="0" width="120" height="60" viewBox="0 0 120 60">
  <g transform="translate(1.586 -.948)">
    <g transform="translate(1.553 30.927) scale(.13738)">
      <path d="M206.6 37.3c-20.7 0-37.5-16.8-37.5-37.5s16.8-37.5 37.5-37.5 37.5 16.8 37.5 37.5c.1 20.8-16.7 37.5-37.5 37.5m0-95.8c-32.2 0-58.3 26.1-58.3 58.3 0 32.2 26.1 58.3 58.3 58.3 32.2 0 58.3-26.1 58.3-58.3.1-32.2-26.1-58.3-58.3-58.3" style="fill:#5c3dcc"/>
      <path style="fill:#5c3dcc" transform="translate(0 -60.3)" d="m99.9 75.8 14.7 14.7 30.1-30-30.2-30.3L99.8 45l16.4 15.5z"/>
      <path d="M60.3 58.8c-14.5 0-27.7-5-39.2-15C8.3 32.5 1.8 17.7 1.8-.2c0-16 5.9-29.8 17.5-41.2 11.5-11.3 25.6-17.1 41.8-17.1 16.1 0 30 5.8 41.5 17.3L87.3-26c-7.4-7.4-16-11-26.2-11-10.5 0-19.2 3.6-26.7 10.9-7.5 7.3-11.1 15.8-11.1 25.9 0 11.6 3.9 20.7 12 27.8 7.5 6.5 15.7 9.7 25.1 9.7 10.7 0 19.5-3.6 27-10.9l15 15.4c-11.6 11.3-25.7 17-42.1 17" style="fill:#8b8b89"/>
    </g>
    <g transform="matrix(.185 0 0 .185 130.48 94.704)">
      <path style="fill:#5c3dcc" d="M-415.327-369c9.7 0 18.8 7.2 18.8 19.3 0 12.2-9.1 19.3-18.8 19.3-9.7 0-18.8-7.2-18.8-19.3-.1-12.2 9-19.3 18.8-19.3m0 32.6c6.3 0 12.4-4.4 12.4-13.4 0-8.9-6.2-13.4-12.4-13.4s-12.4 4.4-12.4 13.4 6.1 13.4 12.4 13.4"/>
      <path style="fill:#5c3dcc" d="M-281.427-340.5h-15.7l-3.4 9.3h-6.6l14.4-37h7.3l14.4 37h-6.8zm-13.4-5.8h11.3l-5.6-15.1zm52.8-22c7.1 0 11.3 4.2 11.3 10 0 3.9-2.3 6.8-5.5 8 3.9 1 6.6 4.4 6.6 8.8 0 6-4.6 10.2-11.5 10.2h-13.7v-37zm-.9 15.7c3.7 0 5.9-2.1 5.9-5.2s-2.2-5.2-6-5.2h-5.5v10.3h5.6zm.7 16c3.8 0 6.2-2 6.2-5.3 0-3.2-2.1-5.4-6-5.4h-6.6v10.8h6.4zm46.9-32.4c9.7 0 18.9 7.2 18.9 19.3 0 12.2-9.1 19.3-18.9 19.3-9.7 0-18.8-7.2-18.8-19.3.1-12.2 9.1-19.3 18.8-19.3m0 32.6c6.3 0 12.4-4.4 12.4-13.4 0-8.9-6.2-13.4-12.4-13.4s-12.4 4.4-12.4 13.4c.1 9 6.2 13.4 12.4 13.4m101.4-4.1h-15.7l-3.4 9.3h-6.6l14.4-37h7.3l14.4 37h-6.8zm-13.5-5.8h11.3l-5.6-15.1zm-346.1 2c-2 5.2-6.7 7.9-11.5 7.9-6.2 0-12.4-4.4-12.4-13.4 0-8.9 6.2-13.4 12.4-13.4 4.8 0 9.6 2.6 11.5 7.9h6.7c-2.3-8.8-10-13.8-18.2-13.8-9.7 0-18.8 7.1-18.8 19.3 0 12.2 9.1 19.3 18.8 19.3 8.1 0 15.9-5 18.2-13.8zm305.6-1.3h-5.4v14.6h-6.3v-37h14.7c7.1 0 11.6 5 11.6 11.2 0 5.3-2.9 9.3-8.1 10.5l8.9 15.2h-7.1zm2.2-5.5c3.9 0 6.1-2.2 6.1-5.6 0-3.5-2.5-5.7-6.4-5.7h-7.3v11.3z"/>
      <path style="fill:#5c3dcc;fill-opacity:1;stroke:none;stroke-width:1px;stroke-linecap:butt;stroke-linejoin:miter;stroke-opacity:1" d="M-343.327-368.3h6.3v31.1h16.9v6h-23.2z"/>
      <path style="fill:#5c3dcc;fill-opacity:1;stroke:none;stroke-width:1px;stroke-linecap:butt;stroke-linejoin:miter;stroke-opacity:1" d="M-381.127-368.3h6.3v31.1h17v6h-23.3v-37.1"/>
    </g>
  </g>
</svg>
