<svg xmlns:svg="http://www.w3.org/2000/svg" xmlns="http://www.w3.org/2000/svg" x="0px" y="0px" viewBox="0 0 120 59.999999" xml:space="preserve" version="1.1">
  <g style="fill:#000080" transform="matrix(0.1,0,0,0.1,16.59292,23.127372)"/>
  <g transform="translate(-2.2463123)">
    <g transform="matrix(0.1,0,0,0.1,18.59292,23.127372)" style="fill:#000080">
      <path style="fill:#000080" d="M187 100.1c-16.8 0-23.9-13.3-23.9-26.5 0-13.2 7.1-26.5 23.9-26.5 9.3 0 17.3 5.3 19.5 14.6h6.1c-1.7-12.5-13.4-19.5-25.4-19.5-20.1 0-30.1 14.8-30.1 31.4 0 16.6 9.9 31.4 29.9 31.4 14.8 0 24.7-9.4 26.3-24.3h-6.1c-1 10.7-8.4 19.4-20.2 19.4zM251.3 42.3c-20 0-29.9 14.8-29.9 31.4 0 16.6 9.9 31.4 29.9 31.4 19.9 0 29.8-14.8 29.8-31.4.2-16.6-9.8-31.4-29.8-31.4zm0 57.8c-16.8 0-23.9-13.3-23.9-26.5 0-13.2 7.1-26.5 23.9-26.5 16.6 0 23.7 13.3 23.7 26.5.2 13.2-6.9 26.5-23.7 26.5z" class="st0"/>
      <polygon style="fill:#000080" points="344.9,50.8 344.9,105.1 350.8,105.1 350.8,42.3 342.1,42.3 320.1,97.4 298.2,42.3 289.4,42.3 289.4,105.1 295.3,105.1 295.3,50.8 295.6,50.8 317.3,105.1 322.9,105.1 344.6,50.8" class="st0"/>
      <polygon style="fill:#000080" points="414.5,50.8 414.5,105.1 420.5,105.1 420.5,42.3 411.6,42.3 389.8,97.4 367.9,42.3 359,42.3 359,105.1 365,105.1 365,50.8 365.3,50.8 387,105.1 392.6,105.1 414.3,50.8" class="st0"/>
      <path style="fill:#000080" d="m 468.8,80.5 c 0,9.2 -3.2,13.3 -13.2,13.3 -11.2,0 -13,-6.6 -13,-13.3 V 42.3 h -13.9 v 38.2 c 0,16.8 9.8,24.7 27,24.7 16.9,0 27.1,-8.1 27.1,-24.7 V 42.3 h -13.9 z" class="st0"/>
      <polygon style="fill:#000080" points="544.4,42.3 531.4,42.3 531.4,84.3 531.3,84.3 504.8,42.3 490.9,42.3 490.9,105 503.9,105 503.9,62.9 504.2,62.9 530.5,105 544.4,105" class="st0"/>
      <rect style="fill:#000080" height="62.700001" width="13.9" class="st0" y="42.299999" x="552.5"/>
      <polygon style="fill:#000080" points="593.6,105 607.5,105 607.5,53.9 626.6,53.9 626.6,42.3 574.6,42.3 574.6,53.9 593.6,53.9" class="st0"/>
      <polygon style="fill:#000080" points="650.4,42.3 634.8,42.3 658.1,80.6 658.1,105.1 672.1,105.1 672.1,81 695.5,42.3 680.1,42.3 665.2,67" class="st0"/>
      <path style="fill:#000080" d="M739.8 71.8v-.1c6.6-1.4 11-7.5 11-14.1 0-11.7-9.7-15.4-20.4-15.4H703.6V105h26.8c20.6 0 22.7-11.9 22.7-17.8.1-8.3-5.2-14.3-13.3-15.4zM709.7 47.3h20.8c9.6 0 14.3 4 14.3 11.7 0 5.9-4.6 10.6-14.3 10.6h-20.8zm20.8 52.5h-20.8v-25h20.8c10.7 0 16.6 4 16.6 12.1.1 10.2-7.7 12.9-16.6 12.9zM794.9 74.8v-.1c8.1-1.7 12.4-8 12.4-16 0-11.4-8.9-16.4-19.2-16.4h-29V105h6.1V77.1H788c11.4-.4 12.3 9.3 12.6 18.1.3 2.6.3 7.4 1.7 9.8h6.7c-2.7-3.1-2.7-11.7-3-16.1-.5-7.5-2.8-12.9-11.1-14.1zm-7.3-2.7H765V47.4h22.6c9.2 0 13.7 4.8 13.7 12.5-.1 7.7-6.4 12.2-13.7 12.2z" class="st0"/>
      <rect style="fill:#000080" height="62.700001" width="6.0999999" class="st0" y="42.299999" x="817.09998"/>
      <path style="fill:#000080" d="M853.1 42.3H831.2V105h21.9c19.2-.4 29.2-10.6 29.2-31.4 0-20.8-9.9-30.9-29.2-31.3zm-2.9 57.5H837.3V47.3h12.9c18.2 0 26.1 7.5 26.1 26.3 0 18.8-7.9 26.2-26.1 26.2zM920.8 78h21.6c.3 12.8-7.9 22.1-21.9 22.1-16.8 0-23.9-13.3-23.9-26.5 0-13.2 7.1-26.5 23.9-26.5 12 0 19.7 8.1 20.4 15.1h6.1c-2.5-13.2-13.2-20-26.5-20-20 0-29.9 14.8-29.9 31.4 0 16.6 9.9 31.4 29.9 31.4 9.2 0 17.7-3.6 21.9-12.3h.1l.8 11h4.4V73.1H920.9V78Z" class="st0"/>
      <polygon style="fill:#000080" points="1000,105 1000,99.8 961.8,99.8 961.8,75 997.2,75 997.2,70 961.8,70 961.8,47.3 999.5,47.3 999.5,42.3 955.7,42.3 955.7,105" class="st0"/>
    </g>
    <path class="st0" d="m 18.436312,17.463392 c -6.92216,0 -12.5366074,5.614447 -12.5366074,12.536608 0,6.922161 5.6144474,12.536608 12.5366074,12.536608 6.922161,0 12.536608,-5.614447 12.536608,-12.536608 0,-6.92216 -5.614447,-12.536608 -12.536608,-12.536608 z M 9.073088,32.580553 c -0.6277022,0 -1.1333512,-0.505649 -1.1333512,-1.133351 0,-0.627703 0.505649,-1.133352 1.1333512,-1.133352 0.6277021,0 1.133351,0.505649 1.133351,1.133352 0,0.627702 -0.5056489,1.133351 -1.133351,1.133351 z m 3.121075,0 c -0.627702,0 -1.133351,-0.505649 -1.133351,-1.133351 0,-0.627703 0.505649,-1.133352 1.133351,-1.133352 0.627702,0 1.133351,0.505649 1.133351,1.133352 0,0.627702 -0.505649,1.133351 -1.133351,1.133351 z m 0,-2.981586 c -0.627702,0 -1.133351,-0.505649 -1.133351,-1.133351 0,-0.627702 0.505649,-1.133351 1.133351,-1.133351 0.627702,0 1.133351,0.505649 1.133351,1.133351 0,0.627702 -0.505649,1.133351 -1.133351,1.133351 z m 4.202117,1.150788 v 0.941553 0.05231 0.348723 1.935415 0.05231 0.348723 c 0,0.59283 -0.488213,1.081043 -1.081042,1.081043 -0.59283,0 -1.081043,-0.488213 -1.081043,-1.081043 v -0.348723 -0.05231 -1.935415 -0.348723 -0.05231 -0.941553 -2.319011 c 0,-0.59283 0.488213,-1.081043 1.081043,-1.081043 0.592829,0 1.081042,0.488213 1.081042,1.081043 z m -1.081042,-3.992884 c -0.627703,0 -1.133352,-0.505649 -1.133352,-1.133351 0,-0.627702 0.505649,-1.133351 1.133352,-1.133351 0.627702,0 1.133351,0.505649 1.133351,1.133351 0,0.627702 -0.505649,1.133351 -1.133351,1.133351 z m 3.121074,5.823682 c -0.627702,0 -1.133351,-0.505649 -1.133351,-1.133351 0,-0.627703 0.505649,-1.133352 1.133351,-1.133352 0.627703,0 1.133352,0.505649 1.133352,1.133352 0,0.627702 -0.505649,1.133351 -1.133352,1.133351 z m 4.202118,-1.830798 v 0.941553 0.05231 0.348723 1.935415 0.05231 0.348723 c 0,0.59283 -0.488213,1.081043 -1.081043,1.081043 -0.59283,0 -1.081043,-0.488213 -1.081043,-1.081043 v -0.348723 -0.05231 -1.935415 -0.348723 -0.05231 -0.941553 -2.319011 c 0,-0.59283 0.488213,-1.081043 1.081043,-1.081043 0.59283,0 1.081043,0.488213 1.081043,1.081043 z m -1.081043,-3.992884 c -0.627702,0 -1.133351,-0.505649 -1.133351,-1.133351 0,-0.627702 0.505649,-1.133351 1.133351,-1.133351 0.627702,0 1.133351,0.505649 1.133351,1.133351 0,0.627702 -0.505649,1.133351 -1.133351,1.133351 z m 3.103639,5.823682 c -0.627702,0 -1.133351,-0.505648 -1.133351,-1.133351 0,-0.627703 0.505649,-1.133352 1.133351,-1.133352 0.627702,0 1.133351,0.505649 1.133351,1.133352 0,0.627703 -0.505649,1.133351 -1.133351,1.133351 z m 0,-2.981586 c -0.627702,0 -1.133351,-0.505648 -1.133351,-1.133351 0,-0.627702 0.505649,-1.133351 1.133351,-1.133351 0.627702,0 1.133351,0.505649 1.133351,1.133351 0,0.627702 -0.505649,1.133351 -1.133351,1.133351 z m 3.121075,2.981586 c -0.627703,0 -1.133352,-0.505648 -1.133352,-1.133351 0,-0.627703 0.505649,-1.133352 1.133352,-1.133352 0.627702,0 1.133351,0.505649 1.133351,1.133352 0.01744,0.627703 -0.505649,1.133351 -1.133351,1.133351 z" style="fill:#000080;stroke-width:0.17436172"/>
  </g>
</svg>
