<svg xmlns="http://www.w3.org/2000/svg" x="0" y="0" viewBox="0 0 120 60" version="1.1" width="120" height="60">
  <g transform="translate(-2.246)">
    <g transform="matrix(.1 0 0 .1 18.593 23.127)" style="fill:navy">
      <path style="fill:navy" d="M187 100.1c-16.8 0-23.9-13.3-23.9-26.5s7.1-26.5 23.9-26.5c9.3 0 17.3 5.3 19.5 14.6h6.1c-1.7-12.5-13.4-19.5-25.4-19.5-20.1 0-30.1 14.8-30.1 31.4 0 16.6 9.9 31.4 29.9 31.4 14.8 0 24.7-9.4 26.3-24.3h-6.1c-1 10.7-8.4 19.4-20.2 19.4z" class="st0"/>
      <path style="fill:navy" d="M251.3 42.3c-20 0-29.9 14.8-29.9 31.4 0 16.6 9.9 31.4 29.9 31.4 19.9 0 29.8-14.8 29.8-31.4.2-16.6-9.8-31.4-29.8-31.4zm0 57.8c-16.8 0-23.9-13.3-23.9-26.5s7.1-26.5 23.9-26.5c16.6 0 23.7 13.3 23.7 26.5.2 13.2-6.9 26.5-23.7 26.5z" class="st0"/>
      <path style="fill:navy" class="st0" d="M344.9 50.8v54.3h5.9V42.3h-8.7l-22 55.1-21.9-55.1h-8.8v62.8h5.9V50.8h.3l21.7 54.3h5.6l21.7-54.3z"/>
      <path style="fill:navy" class="st0" d="M414.5 50.8v54.3h6V42.3h-8.9l-21.8 55.1-21.9-55.1H359v62.8h6V50.8h.3l21.7 54.3h5.6l21.7-54.3z"/>
      <path style="fill:navy" d="M468.8 80.5c0 9.2-3.2 13.3-13.2 13.3-11.2 0-13-6.6-13-13.3V42.3h-13.9v38.2c0 16.8 9.8 24.7 27 24.7 16.9 0 27.1-8.1 27.1-24.7V42.3h-13.9z" class="st0"/>
      <path style="fill:navy" class="st0" d="M544.4 42.3h-13v42h-.1l-26.5-42h-13.9V105h13V62.9h.3l26.3 42.1h13.9z"/>
      <path style="fill:navy" class="st0" d="M552.5 42.3h13.9V105h-13.9z"/>
      <path style="fill:navy" class="st0" d="M593.6 105h13.9V53.9h19.1V42.3h-52v11.6h19z"/>
      <path style="fill:navy" class="st0" d="M650.4 42.3h-15.6l23.3 38.3v24.5h14V81l23.4-38.7h-15.4L665.2 67z"/>
      <path style="fill:navy" d="M739.8 71.8v-.1c6.6-1.4 11-7.5 11-14.1 0-11.7-9.7-15.4-20.4-15.4h-26.8V105h26.8c20.6 0 22.7-11.9 22.7-17.8.1-8.3-5.2-14.3-13.3-15.4zm-30.1-24.5h20.8c9.6 0 14.3 4 14.3 11.7 0 5.9-4.6 10.6-14.3 10.6h-20.8zm20.8 52.5h-20.8v-25h20.8c10.7 0 16.6 4 16.6 12.1.1 10.2-7.7 12.9-16.6 12.9z" class="st0"/>
      <path style="fill:navy" d="M794.9 74.8v-.1c8.1-1.7 12.4-8 12.4-16 0-11.4-8.9-16.4-19.2-16.4h-29V105h6.1V77.1H788c11.4-.4 12.3 9.3 12.6 18.1.3 2.6.3 7.4 1.7 9.8h6.7c-2.7-3.1-2.7-11.7-3-16.1-.5-7.5-2.8-12.9-11.1-14.1zm-7.3-2.7H765V47.4h22.6c9.2 0 13.7 4.8 13.7 12.5-.1 7.7-6.4 12.2-13.7 12.2z" class="st0"/>
      <path style="fill:navy" class="st0" d="M817.1 42.3h6.1V105h-6.1z"/>
      <path style="fill:navy" d="M853.1 42.3h-21.9V105h21.9c19.2-.4 29.2-10.6 29.2-31.4 0-20.8-9.9-30.9-29.2-31.3zm-2.9 57.5h-12.9V47.3h12.9c18.2 0 26.1 7.5 26.1 26.3s-7.9 26.2-26.1 26.2z" class="st0"/>
      <path style="fill:navy" d="M920.8 78h21.6c.3 12.8-7.9 22.1-21.9 22.1-16.8 0-23.9-13.3-23.9-26.5s7.1-26.5 23.9-26.5c12 0 19.7 8.1 20.4 15.1h6.1c-2.5-13.2-13.2-20-26.5-20-20 0-29.9 14.8-29.9 31.4 0 16.6 9.9 31.4 29.9 31.4 9.2 0 17.7-3.6 21.9-12.3h.1l.8 11h4.4V73.1h-26.8V78Z" class="st0"/>
      <path style="fill:navy" class="st0" d="M1000 105v-5.2h-38.2V75h35.4v-5h-35.4V47.3h37.7v-5h-43.8V105z"/>
    </g>
    <path class="st0" d="M18.436 17.463C11.514 17.463 5.9 23.078 5.9 30c0 6.922 5.614 12.537 12.536 12.537S30.973 36.922 30.973 30c0-6.922-5.615-12.537-12.537-12.537zM9.073 32.581a1.131 1.131 0 0 1-1.133-1.134c0-.628.505-1.133 1.133-1.133s1.133.505 1.133 1.133-.505 1.134-1.133 1.134zm3.121 0a1.131 1.131 0 0 1-1.133-1.134c0-.628.505-1.133 1.133-1.133s1.134.505 1.134 1.133-.506 1.134-1.134 1.134zm0-2.982a1.131 1.131 0 0 1-1.133-1.133c0-.628.505-1.134 1.133-1.134s1.134.506 1.134 1.134c0 .627-.506 1.133-1.134 1.133zm4.202 1.15v3.681c0 .593-.488 1.08-1.08 1.08a1.086 1.086 0 0 1-1.082-1.08v-6c0-.592.488-1.08 1.081-1.08s1.081.488 1.081 1.08zm-1.08-3.992a1.131 1.131 0 0 1-1.134-1.133c0-.628.506-1.134 1.133-1.134.628 0 1.134.506 1.134 1.134 0 .627-.506 1.133-1.134 1.133zm3.12 5.824a1.131 1.131 0 0 1-1.133-1.134 1.13 1.13 0 0 1 1.133-1.133c.628 0 1.134.505 1.134 1.133s-.506 1.134-1.134 1.134zm4.202-1.831v3.679c0 .593-.488 1.08-1.08 1.08a1.086 1.086 0 0 1-1.082-1.08V28.43c0-.592.489-1.08 1.081-1.08.593 0 1.081.488 1.081 1.08zm-1.08-3.993a1.131 1.131 0 0 1-1.134-1.133c0-.628.506-1.134 1.133-1.134.628 0 1.134.506 1.134 1.134 0 .627-.506 1.133-1.134 1.133zm3.103 5.824a1.131 1.131 0 0 1-1.133-1.134c0-.628.505-1.133 1.133-1.133s1.133.505 1.133 1.133-.505 1.134-1.133 1.134zm0-2.982a1.131 1.131 0 0 1-1.133-1.133c0-.628.505-1.134 1.133-1.134s1.133.506 1.133 1.134a1.13 1.13 0 0 1-1.133 1.133zm3.121 2.982a1.131 1.131 0 0 1-1.133-1.134c0-.628.505-1.133 1.133-1.133s1.133.505 1.133 1.133c.018.628-.505 1.134-1.133 1.134z" style="fill:navy;stroke-width:.17436172"/>
  </g>
</svg>
