<svg xmlns="http://www.w3.org/2000/svg" xmlns:xlink="http://www.w3.org/1999/xlink" width="120" height="60" version="1.1" viewBox="0 0 90 45">
  <g transform="matrix(.75937 0 0 .75937 -.562 11.11)">
    <g transform="matrix(.95408 0 0 .95408 6.49 -11.428)">
      <path d="m11.558 29.673 2.347-.021.011 1.502c0 6.809-1.756 10.496-6.597 10.232C2.347 41.114-.065 37.149 0 27.616c.028-4.374.42-7.766 1.851-10.25 1.391-2.414 3.58-3.388 6.135-3.388 1.896 0 3.314.742 4.476 2.033 1.161 1.341 1.83 3.286 1.148 5.353-.442 1.342-.617 1.893-1.452 2.625-.43.376-1.208.536-1.642.499-.606-.051-2.304-.61-2.422-2.733-.05-.892.03-1.297.448-1.98.443-.725 1.18-.858 1.798-.858.14 0 .875.057 1.315.65 0 0 .184.174.387.586.05.1.116.303.24.33-.027-.005.09.105.105-.408.01-.323-.093-.726-.104-.77-.474-2.007-1.918-2.952-3.596-2.897-1.277.043-2.789.919-3.331 2.31-.504 1.441-.785 4.493-.785 8.072 0 4.074-.015 7.241.412 8.733.388 1.49 1.13 3.275 3.206 3.31 1.97.033 3.337-1.504 3.357-7.69z" style="stroke-width:.48883399"/>
      <path d="M17.668 16.826c-1.292.493-1.892 2.003-1.967 2.183-.072.18-.147.6-.147.745 0 .388.153.54.138.574.304-.664.805-1.352 1.726-1.505.705-.117 1.1-.017 1.53.311.21.159.424.345.57.587.26.434.363.738.363 1.418 0 .945-.159 1.573-.74 2.27-.62.696-1.175.966-1.987.946-.936-.024-1.427-.336-2.16-1.076-.73-.741-1.047-1.727-1.097-2.932-.088-2.052.66-3.587 2.103-4.845 1.47-1.283 3.217-1.479 5.38-1.49 2.521-.014 4.205.713 5.567 2.632.41.58.616 1.147.869 1.896.21.62.263 1.604.263 3.194l-.043 13.46c0 1.44-.302 3.524.966 3.532.426.002 1.245-.004 1.211-2.05l-.02-4.239 1.704.032.026 2.6c.087 3.856-.364 6.288-4.262 6.336-1.953.026-3.545-.86-4.127-3.395-1.355 2.535-2.936 3.411-4.949 3.411-1.55 0-3.378-.814-4.384-2.058-1.009-1.242-.966-3.012-.923-4.901.069-3.155 1.562-5.062 4.008-6.604l2.874-1.84c2.168-1.245 3.411-3.226 3.411-5.265 0-1.193-.32-2.19-.941-2.936-.619-.745-2.235-1.94-4.828-1.042m5.635 9.272c-1.701 1.846-3.642 3.679-4.347 4.493-.725.837-1.511 2.364-1.655 3.346-.563 3.856 1.068 4.838 2.231 4.84 3.156.005 3.9-4.222 3.848-8.036z" style="stroke-width:.48883399"/>
    </g>
    <path style="stroke-width:.80463326" d="M42.843 21.373c.436 0 .81-.08 1.092-.238v-.988c-.319.177-.62.238-.865.238-1.147 0-1.448-1.346-1.448-4.823 0-3.239.337-4.92 1.485-4.92.245 0 .49.042.828.22v-1.01a2.167 2.167 0 0 0-.997-.218c-1.789 0-2.353 2.45-2.353 6.007 0 3.893.564 5.731 2.258 5.731m3.427 0c1.375 0 1.808-2.096 1.808-4.642 0-3.162-.243-4.527-1.73-4.527-1.32 0-1.808 2.015-1.808 4.662 0 3.28.377 4.507 1.73 4.507m.04-.91c-.678 0-.828-.77-.828-3.655 0-2.47.187-3.635.847-3.635.77 0 .807.988.807 3.615 0 2.412-.13 3.674-.826 3.674m7.834.811h.939v-6.816c0-1.719-.47-2.234-1.28-2.234-.528 0-1.055.357-1.393.97-.187-.732-.564-.97-1.11-.97-.565 0-1.056.435-1.394 1.027l-.095-.87h-.942l.209 2.016v6.878h.942V14.08c.224-.512.583-.889.92-.889.586 0 .66.435.66 1.82v6.262h.942v-7.155c.227-.573.565-.927.942-.927.583 0 .66.435.66 1.82zm7.152 0h.942v-6.816c0-1.719-.47-2.234-1.28-2.234-.527 0-1.055.357-1.392.97-.19-.732-.565-.97-1.111-.97-.565 0-1.056.435-1.393 1.027l-.095-.87h-.942l.208 2.016v6.878h.94V14.08c.226-.512.585-.889.923-.889.583 0 .66.435.66 1.82v6.262h.942v-7.155c.224-.573.564-.927.942-.927.583 0 .656.435.656 1.82zm5.689-8.892h-.942v7.035c-.264.573-.623 1.027-1.092 1.027-.605 0-.678-.531-.678-1.835V12.38h-.942v6.777c0 1.761.49 2.273 1.3 2.273.639 0 1.167-.473 1.507-1.107l.11.95h.943l-.206-2.016zm1.203 8.892h.942v-7.035c.264-.573.604-1.046 1.092-1.046.601 0 .678.535.678 1.82v6.261h.942v-6.796c0-1.758-.49-2.254-1.298-2.254-.641 0-1.169.476-1.528 1.108l-.092-.95h-.942l.206 2.015zm4.37-7.981h.564v7.981h.942V12.38h-1.507Zm.413-4.031c0 .373.301.692.66.692.356 0 .66-.319.66-.692 0-.377-.304-.692-.66-.692-.359 0-.66.315-.66.692m3.937 12.112c.433 0 .697-.042.979-.2v-.85a1.72 1.72 0 0 1-.755.158c-.66 0-1.13-.847-1.13-3.673 0-2.293.341-3.635 1.225-3.635.187 0 .451 0 .678.138v-.988c-.3-.12-.564-.139-.847-.139-1.411 0-2.052 1.839-2.052 4.704 0 3.023.601 4.485 1.902 4.485m3.989-9.188c-1.599 0-2.314 1.48-2.314 5 0 3.239.602 4.17 1.562 4.17.565 0 .979-.416 1.243-.97l.132.889h.96l-.227-1.74v-7.111a4.25 4.25 0 0 0-1.356-.239m-.506 8.12c-.528 0-.866-.373-.866-3.2 0-2.746.283-4.07 1.222-4.07.171 0 .359.02.546.058v6.404c-.224.474-.565.808-.902.808m2.617-7.012h.66v6.343c0 1.284.506 1.738 1.22 1.738.323 0 .66-.041.961-.2v-.83c-.242.1-.45.139-.675.139-.396 0-.546-.413-.546-1.143v-6.047h1.148v-.911h-1.148V9.992h-.96v2.389h-.66zm3.087 0h.564v7.982h.942V12.38h-1.506zm.414-4.03c0 .373.3.691.66.691.359 0 .66-.318.66-.692 0-.377-.301-.692-.66-.692-.36 0-.66.315-.66.692m3.786 12.112c1.375 0 1.808-2.096 1.808-4.643 0-3.161-.246-4.526-1.734-4.526-1.32 0-1.807 2.015-1.807 4.662 0 3.28.377 4.507 1.733 4.507m.037-.911c-.678 0-.828-.77-.828-3.654 0-2.47.187-3.635.847-3.635.77 0 .81.988.81 3.615 0 2.412-.132 3.674-.829 3.674m2.768.811h.942v-7.035c.264-.573.601-1.046 1.092-1.046.601 0 .678.534.678 1.819v6.262h.94v-6.796c0-1.758-.489-2.254-1.299-2.254-.641 0-1.166.476-1.525 1.107l-.095-.95h-.942l.209 2.016zm6.308 0h.96l.433-3.557h1.488l.375 3.557h.96l-1.448-11.52h-1.092zm1.808-6.896.356-3.181h.058l.3 3.18.246 2.393h-1.261zm3.255 6.896h.979v-6.52c.209-.573.586-1.403 1.206-1.403.077 0 .15 0 .245.019v-1.046a.559.559 0 0 0-.227-.058c-.638 0-1.052.65-1.298 1.242l-.132-1.126h-.978l.205 2.015zm2.731-7.981h.66v6.342c0 1.285.509 1.739 1.224 1.739.32 0 .66-.042.96-.2v-.83c-.245.1-.45.138-.678.138-.396 0-.546-.412-.546-1.143v-6.046h1.148v-.911h-1.148V9.99h-.96v2.39h-.66zm4.425 8.081c1.055 0 1.884-.753 1.884-2.627 0-1.327-.51-1.958-1.225-2.431-.641-.454-.905-.811-.905-1.661 0-.97.36-1.54 1.019-1.54.282 0 .641.059.923.255v-.988c-.263-.139-.678-.177-1.018-.177-1.148 0-1.844.93-1.844 2.43 0 1.324.583 1.997 1.184 2.37.604.357.96.83.96 1.742 0 1.323-.374 1.677-.979 1.677-.282 0-.714-.038-1.147-.257v1.008c.414.157.792.2 1.147.2"/>
  </g>
  <use style="fill:#211e1e" x="471.218" y="354.163" width="100%" height="100%" xlink:href="#glyph0-6" transform="translate(-2.969 -180.377)"/>
  <use style="fill:#211e1e" x="484.363" y="354.163" width="100%" height="100%" xlink:href="#glyph0-6" transform="translate(-2.969 -180.377)"/>
</svg>
