<svg version="1.1" xmlns="http://www.w3.org/2000/svg" xmlns:xlink="http://www.w3.org/1999/xlink" x="0px" y="0px" viewBox="0 0 120 60" style="enable-background:new 0 0 120 60" xml:space="preserve">
  <g>
    <path class="st0" d="M83.3 24.8H78v.4c0 .8.3 1.8 1.6 1.8h1.6 2c2.1 0 3.2.7 2.8 3l-.2 1.8c-.3 2.4-2 2.7-3.5 2.7h-2l.6-4.6c.1-.7-.2-1.7-1.5-1.7h-1.7L77.1 32l-.4 3.3c-.1.9.5 1.4 1.9 1.4h4.1c4.1 0 5.3-1.5 5.8-2.4.3-.5.5-1.2.6-2 0-.1.3-2.5.3-2.5.2-1.4-.1-2.5-.8-3.3C87.6 25.4 85.9 24.8 83.3 24.8L83.3 24.8zM35.2 24.6h-.6c-4.2 0-6.3 1.8-6.8 5.1l-.3 2.1c-.2 1.5.1 2.6.8 3.4.9 1 2.4 1.7 4.8 1.7h.6c4.1 0 6.2-1.7 6.8-4.8l0-.2.3-2.1c.2-1.5-.1-2.7-.8-3.5C39.1 25.3 37.5 24.6 35.2 24.6zM37.4 29.8l-.3 2c-.1.9-.3 1.5-.7 2-.5.7-1.3 1.1-2.4 1.1h-.6c-1.1 0-1.9-.4-2.2-1-.2-.5-.3-1.1-.2-2l.3-2c.1-1 .5-1.8 1-2.4.5-.5 1.3-.8 2.2-.8h.6c.6 0 1.5.1 1.9.7C37.4 28 37.5 28.7 37.4 29.8L37.4 29.8zM104.6 26.2c-.9-1-2.4-1.7-4.8-1.7h-.6c-4.2 0-6.3 1.8-6.8 5.1l-.3 2.1c-.2 1.5.1 2.6.8 3.4.9 1 2.4 1.7 4.8 1.7h.6c4.1 0 6.2-1.7 6.8-4.8l0-.2.3-2.1C105.6 28.2 105.4 27.1 104.6 26.2L104.6 26.2zM102 29.8l-.3 2c-.1.9-.3 1.5-.7 2-.5.7-1.3 1.1-2.4 1.1H98c-1.1 0-1.9-.4-2.2-1-.2-.5-.3-1.1-.2-2l.3-2c.1-1 .5-1.8 1-2.4.5-.5 1.3-.8 2.2-.8h.6c.6 0 1.5.1 1.9.7C102.1 28 102.2 28.7 102 29.8L102 29.8zM68.7 24.6h-.6c-4.2 0-6.3 1.8-6.8 5.1l-.3 2.1c-.2 1.5.1 2.6.8 3.4.9 1 2.4 1.7 4.8 1.7h.6c4.1 0 6.2-1.7 6.8-4.8l0-.2.3-2.1c.2-1.5-.1-2.7-.8-3.5C72.6 25.3 71.1 24.6 68.7 24.6zM70.9 29.8l-.3 2c-.1.9-.3 1.5-.7 2-.5.7-1.3 1.1-2.4 1.1h-.6c-1.1 0-1.9-.4-2.2-1-.2-.5-.3-1.1-.2-2l.3-2c.1-1 .5-1.8 1-2.4.5-.5 1.3-.8 2.2-.8h.6c.6 0 1.5.1 1.9.7C70.9 28 71.1 28.7 70.9 29.8L70.9 29.8zM55.6 25.5 51 30.7l-3.2-5.1c-.3-.5-.9-.7-1.9-.7h-1.5L43 36.7h1.8c.6 0 1-.2 1.3-.5.4-.3.6-.8.7-1.3l.6-5.2 2.4 4.5c.1.2.4.5.8.5h0c.4 0 .7-.4.8-.5l3.6-4.5-.9 6.9h1.7c.6 0 1-.2 1.3-.5.4-.3.6-.8.7-1.3L59 24.8h-1.5C56.6 24.8 56 25 55.6 25.5zM21.3 24.8c-.6 0-1.1 0-1.6.1-3 .4-4.5 2.1-4.9 4.8l-.3 2.1c-.2 1.4.1 2.5.8 3.3.8.9 2.2 1.6 4.2 1.6h3.6c2.1 0 2.3-2.2 2.3-2.2h-4.7c-.6 0-1.3-.1-1.7-.2-.6-.2-.9-.6-1.1-1.3 0-.3 0-.9 0-1.3l.2-1.8c.1-.5.2-1 .3-1.2.2-.4.5-.9.9-1.2.3-.2.9-.6 2.5-.6h2.6c1.8 0 2.2-2.2 2.2-2.2L21.3 24.8 21.3 24.8z"/>
  </g>
</svg>
