<svg xmlns="http://www.w3.org/2000/svg" viewBox="0.83 5.58 64 64" version="1.1" width="64" height="64" style="enable-background:new 0 0 281 370">
  <linearGradient x1="-1963" x2="-1962.293" y1="248" y2="247.293" gradientUnits="userSpaceOnUse">
    <stop offset="0" stop-color="#1eab4b"/>
    <stop offset=".983" stop-color="#19361a"/>
  </linearGradient>
  <radialGradient id="a" cx="225.112" cy="57.82" r="243.383" gradientUnits="userSpaceOnUse" gradientTransform="matrix(.13438 0 0 .13438 6.78 10.572)">
    <stop offset="0" stop-color="#fff000"/>
    <stop offset="1" stop-color="#f5911e"/>
  </radialGradient>
  <radialGradient id="b" cx="226.946" cy="57.816" r="243.484" gradientUnits="userSpaceOnUse" gradientTransform="matrix(.13438 0 0 .13438 6.78 10.572)">
    <stop offset="0" stop-color="#fff000"/>
    <stop offset="1" stop-color="#f5911e"/>
  </radialGradient>
  <g transform="matrix(1.80975 0 0 1.80975 -13.343 -14.371)">
    <path style="fill:url(#a);stroke-width:.13437803" d="M40.454 37.098a5.212 5.212 0 0 1-2.365-.578 6.674 6.674 0 0 1-5.334 4.005 7.83 7.83 0 0 1-.793.04c-3.373 0-6.209-2.526-6.612-5.886a2.573 2.573 0 0 0-.053-.282 8.794 8.794 0 0 0-3.091-5.227 8.179 8.179 0 0 0 1.64.148c1.787 0 3.641-.51 5.522-1.519 0 0 .014 0 .014-.013l.027-.014c.026-.013.053-.04.08-.04 0 0 .591-.35 1.492-.578.04 0 .08-.013.134-.013.256-.027.51-.04.766-.04 1.707 0 3.292.671 4.502 1.773a5.097 5.097 0 0 1 4.085-2.029c.094 0 .175.014.269.014a10.945 10.945 0 0 0-2.218-2.097c-1.84-1.478-3.923-2.217-6.194-2.217-1.801 0-3.71.51-5.107 1.357-.833.444-2.07.968-3.346.968-1.196 0-2.163-.444-2.956-1.357a4.21 4.21 0 0 1-1.048-2.715c.067-1.061.497-2.042 1.223-2.755a4.186 4.186 0 0 1 2.983-1.222c1.142 0 2.204.443 3.01 1.25.295.308.55.644.752 1.02a2.293 2.293 0 0 0 2.03 1.237c.362 0 .739-.094 1.061-.255a2.29 2.29 0 0 0 .968-3.091 8.748 8.748 0 0 0-1.56-2.123 8.74 8.74 0 0 0-6.248-2.607 8.852 8.852 0 0 0-5.684 2.07.91.91 0 0 0-.12.08c-.068.054-.135.12-.202.188l-.081.08c-.014.014-.027.027-.04.027-.027.027-.068.054-.094.095a.28.28 0 0 0-.054.067 5.5 5.5 0 0 0-.457.51l-.027.027c-.027.027-.054.067-.08.094a7.985 7.985 0 0 0-1.868 4.824c-.108 2.231.658 4.408 2.163 6.128.31.35.618.672.968.954a8.729 8.729 0 0 0-2.903-.134c-4.824.578-8.291 4.972-7.713 9.796.497 4.434 4.26 7.78 8.72 7.78.35 0 .7-.026 1.049-.067a8.581 8.581 0 0 0 2.54-.699 2.278 2.278 0 0 0 1.155-3.023 2.305 2.305 0 0 0-2.096-1.357 2.22 2.22 0 0 0-.927.201c-.39.175-.793.283-1.223.336a4.25 4.25 0 0 1-4.717-3.709 4.158 4.158 0 0 1 .887-3.117 4.222 4.222 0 0 1 2.822-1.586 4.239 4.239 0 0 1 4.703 3.695l.04.256a11.242 11.242 0 0 0 3.83 6.732 11.237 11.237 0 0 0 8.587 2.58c4.824-.577 8.574-4.139 9.622-8.613a4.89 4.89 0 0 1-2.433.631z"/>
    <path style="opacity:.6;fill:#f6921e;stroke-width:.13437803" class="st3" d="M40.454 37.098a5.212 5.212 0 0 1-2.365-.578 6.674 6.674 0 0 1-5.334 4.005 7.83 7.83 0 0 1-.793.04c-3.373 0-6.209-2.526-6.612-5.886a2.573 2.573 0 0 0-.053-.282 8.794 8.794 0 0 0-3.091-5.227 8.179 8.179 0 0 0 1.64.148c1.787 0 3.641-.51 5.522-1.519 0 0 .014 0 .014-.013l.027-.014c.026-.013.053-.04.08-.04 0 0 .591-.35 1.492-.578.04 0 .08-.013.134-.013.256-.027.51-.04.766-.04 1.707 0 3.292.671 4.502 1.773a5.097 5.097 0 0 1 4.085-2.029c.094 0 .175.014.269.014a10.945 10.945 0 0 0-2.218-2.097c-1.84-1.478-3.923-2.217-6.194-2.217-1.801 0-3.71.51-5.107 1.357-.833.444-2.07.968-3.346.968-1.196 0-2.163-.444-2.956-1.357a4.21 4.21 0 0 1-1.048-2.715c.067-1.061.497-2.042 1.223-2.755a4.186 4.186 0 0 1 2.983-1.222c1.142 0 2.204.443 3.01 1.25.295.308.55.644.752 1.02a2.293 2.293 0 0 0 2.03 1.237c.362 0 .739-.094 1.061-.255a2.29 2.29 0 0 0 .968-3.091 8.748 8.748 0 0 0-1.56-2.123 8.74 8.74 0 0 0-6.248-2.607 8.852 8.852 0 0 0-5.684 2.07.91.91 0 0 0-.12.08c-.068.054-.135.12-.202.188l-.081.08c-.014.014-.027.027-.04.027-.027.027-.068.054-.094.095a.28.28 0 0 0-.054.067 5.5 5.5 0 0 0-.457.51l-.027.027c-.027.027-.054.067-.08.094a7.985 7.985 0 0 0-1.868 4.824c-.108 2.231.658 4.408 2.163 6.128.31.35.618.672.968.954a8.729 8.729 0 0 0-2.903-.134c-4.824.578-8.291 4.972-7.713 9.796.497 4.434 4.26 7.78 8.72 7.78.35 0 .7-.026 1.049-.067a8.581 8.581 0 0 0 2.54-.699 2.278 2.278 0 0 0 1.155-3.023 2.305 2.305 0 0 0-2.096-1.357 2.22 2.22 0 0 0-.927.201c-.39.175-.793.283-1.223.336a4.25 4.25 0 0 1-4.717-3.709 4.158 4.158 0 0 1 .887-3.117 4.222 4.222 0 0 1 2.822-1.586 4.239 4.239 0 0 1 4.703 3.695l.04.256a11.242 11.242 0 0 0 3.83 6.732 11.237 11.237 0 0 0 8.587 2.58c4.824-.577 8.574-4.139 9.622-8.613a4.89 4.89 0 0 1-2.433.631z"/>
    <circle style="fill:url(#b);stroke-width:.13437803" r="2.741" cy="31.978" cx="40.454"/>
    <circle style="opacity:.6;fill:#f6921e;stroke-width:.13437803" class="st3" r="2.741" cy="31.978" cx="40.454"/>
  </g>
</svg>
