<svg version="1.1" xmlns="http://www.w3.org/2000/svg" xmlns:xlink="http://www.w3.org/1999/xlink" x="0px" y="0px" viewBox="0 0 120 60" style="enable-background:new 0 0 120 60" xml:space="preserve">
  <g>
    <path class="st0" d="M110 30c0 5.9-5.1 9.7-10.2 9.7-5.4 0-10.2-4.3-10.2-9.7 0-5.8 5.2-9.7 10.3-9.7 2.4 0 4.9.9 6.7 2.5C108.7 24.5 110 27.2 110 30zM106.8 30c0-5.1-4.5-6.8-7-6.8-4.7 0-7 3.8-7 6.8 0 4.6 4 6.8 7 6.8C103.5 36.8 106.8 33.9 106.8 30zM87.1 20.4c.8 0 1.7.5 1.7 1.4 0 .1-.1.3-.1.4l-7.2 16.5c-.2.5-.9.8-1.4.8-.5 0-1.2-.2-1.4-.8l-7.1-16.4c-.1-.2-.1-.4-.1-.5 0-.8.8-1.3 1.6-1.3.6 0 1.3.3 1.6 1L80 34l5.6-12.6C85.9 20.7 86.5 20.4 87.1 20.4zM70.4 30.6V38c0 .9-.8 1.4-1.6 1.4-.8 0-1.6-.6-1.6-1.4v-7.7c0-3.8-2.2-7.1-5.5-7.1-3.7 0-5.5 3.6-5.5 7.3V38c0 .9-.8 1.4-1.6 1.4-.8 0-1.6-.6-1.6-1.4v-8c0-4.9 3.5-9.7 8.7-9.7 4.1 0 7.3 3.1 8.3 6.8C70.3 28.3 70.4 29.4 70.4 30.6zM50.1 30c0 5.9-5.1 9.7-10.2 9.7-5.4 0-10.2-4.3-10.2-9.7 0-5.8 5.2-9.7 10.3-9.7 2.4 0 4.9.9 6.7 2.5C48.9 24.5 50.1 27.2 50.1 30zM46.9 30c0-5.1-4.5-6.8-7-6.8-4.7 0-7 3.8-7 6.8 0 4.6 4 6.8 7 6.8C43.6 36.8 46.9 33.9 46.9 30zM10 29.9c0-5.9 5-9.7 10.2-9.7 1 0 2 .2 3 .4 1.4.4 4.6 1.9 4.6 3.3 0 .9-.9 1.4-1.6 1.4-.4 0-.8-.1-1.1-.4-1.4-1.3-3-1.9-4.8-1.9-3.6 0-7 2.9-7 6.8 0 3.6 3 6.9 7 6.9 1.5 0 2.8-.5 3.8-1.1.2-.1.4-.3.7-.5.5-.4.9-.8 1.5-.8.9 0 1.6.6 1.6 1.4 0 .4-.2.8-.5 1-1.9 1.9-4.6 2.9-7.2 2.9-3.3 0-6.5-1.6-8.4-4.4C10.5 33.8 10 32 10 29.9z"/>
  </g>
</svg>
