<svg version="1.1" xmlns="http://www.w3.org/2000/svg" x="0" y="0" viewBox="0 0 120 60" width="120" height="60" style="enable-background:new 0 0 120 60">
  <path d="M92 51.3c-.5 0-.9-.1-1.1-.4-.2-.3-.3-.7-.3-1.4v-4h2.5v-1.7h-2.5v-2.7l-2.1.8v1.9h-1.1v1.7h1.1v4.7c0 1 .2 1.7.7 2.2.5.5 1.2.8 2.1.8.9 0 1.6-.1 2.1-.3v-2c-.4.2-.9.4-1.4.4zm-5.6-6.5c-.8-.8-1.9-1.3-3.3-1.3-1.3 0-2.4.4-3.2 1.3-.8.9-1.2 2-1.2 3.4s.4 2.6 1.2 3.5c.8.9 1.9 1.3 3.2 1.3 1.4 0 2.4-.4 3.2-1.3.8-.9 1.2-2 1.2-3.5 0-1.4-.4-2.5-1.1-3.4zm-1.7 5.7c-.4.5-.9.8-1.6.8-1.5 0-2.2-1-2.2-3 0-.9.2-1.7.6-2.2.4-.5.9-.8 1.6-.8 1.5 0 2.2 1 2.2 3 0 1-.2 1.7-.6 2.2zm-7.6-5.7c-.8-.8-1.9-1.3-3.3-1.3-1.3 0-2.4.4-3.2 1.3-.8.9-1.2 2-1.2 3.4s.4 2.6 1.2 3.5c.8.9 1.9 1.3 3.2 1.3 1.4 0 2.4-.4 3.2-1.3.8-.9 1.2-2 1.2-3.5.1-1.4-.3-2.5-1.1-3.4zm-1.6 5.7c-.4.5-.9.8-1.6.8-1.5 0-2.2-1-2.2-3 0-.9.2-1.7.6-2.2.4-.5.9-.8 1.6-.8 1.5 0 2.2 1 2.2 3-.1 1-.3 1.7-.6 2.2zm-7.9-5.7c-.8-.9-1.9-1.3-3.2-1.3-.7 0-1.3.2-1.9.5v-4.3l-2.1.5V53h1.2l.5-.7c.6.5 1.3.7 2.2.7 1.4 0 2.5-.4 3.4-1.3.8-.9 1.2-2.1 1.2-3.6 0-1.3-.4-2.4-1.3-3.3zM66 50.5c-.4.5-1.2.7-2.2.7-.5 0-1-.2-1.3-.6v-4.8c.3-.4.8-.5 1.4-.5 1.8 0 2.7.9 2.7 2.8 0 1.1-.2 1.9-.6 2.4zm-6.5-2.7c0-1.2-.4-2.2-1.2-3-.8-.8-1.9-1.2-3.2-1.2-1.2 0-2.3.4-3.2 1.3-.9.9-1.3 2.1-1.3 3.5 0 1.5.4 2.6 1.2 3.4.8.8 1.9 1.2 3.3 1.2 1.5 0 2.6-.3 3.4-.9l-.8-1.6c-.5.5-1.2.8-2.2.8-.8 0-1.4-.2-1.9-.6-.5-.4-.7-1-.7-1.7h6.5c.1-.6.1-1 .1-1.2zm-6.6-.5c.3-1.3 1.1-2 2.3-2 1.3 0 2.1.7 2.2 2h-4.5zm-3.5-3.8c-1 0-1.8.3-2.4 1v-.8h-2.1v9.2H47v-5.2c0-.6.2-1.2.6-1.7.4-.5.8-.7 1.3-.7s.9.1 1.3.4l.9-1.8c-.4-.2-.9-.4-1.7-.4zm-7 1.3c-.8-.8-1.9-1.3-3.2-1.3-1.3 0-2.4.4-3.2 1.3-.8.9-1.2 2-1.2 3.4s.4 2.6 1.2 3.5c.8.9 1.9 1.3 3.3 1.3s2.4-.4 3.2-1.3c.8-.9 1.2-2 1.2-3.5-.2-1.4-.6-2.5-1.3-3.4zm-1.7 5.7c-.4.5-.9.8-1.6.8-1.5 0-2.2-1-2.2-3 0-.9.2-1.7.6-2.2.4-.5.9-.8 1.6-.8 1.4 0 2.2 1 2.2 3 0 1-.2 1.7-.6 2.2zm-7.1 0c-.6.5-1.3.8-2.1.8-1.8 0-2.8-1-2.8-2.9 0-1 .2-1.7.7-2.2.5-.5 1.1-.8 1.9-.8.8 0 1.5.2 2 .7l.9-1.6c-.8-.6-1.7-.9-2.8-.9-1.6 0-2.8.4-3.7 1.3-.9.9-1.3 2.1-1.3 3.5 0 1.5.4 2.6 1.2 3.4.8.8 1.9 1.2 3.4 1.2.6 0 1.2 0 1.7-.1s1-.4 1.6-.7l-.7-1.7zm41.8-33.1c-3.2-1.9-4.2-1.3-7.1-3.6-4.5-3.6-10.1-7.7-15.5-8.9 0 0 1.3 1.1 3.8 3 .2.1.2.2.2.3-.1.1-.3 0-.3 0-1.9-.7-4-1.1-5.5-1-.5 0-.6.1-.7.2 0 .1 0 .2.1.5.6.8 2.2 2.5 4.7 4 2.6 1.6 7.2 3.9 11.3 5.7 1.8.8 3.1 1.9 2.7 3.1-.5 1.4-2.3 1.6-3.7 1-1.2-.5-2.3-1.9-4-3.9-3.1-3.4-4.5-4.8-9.6-3.7-2.6.5-5 2.6-6.9 4.8-1.3 1.6-1.9 3-2.1 4.6 0 0-.4-.6 0-2.3.6-2.9-.7-4.1-.7-4.1-6.7 9.5 2.8 18.1 10.2 9.9-.1.3-2.4 5.4-2.2 7-1 .3-1.5 1.3.1 2.4 1.7 1.3 5.8 1.1 9.1-.3 6.1-2.6 9.9-7.5 11.8-10.6.4-.7.9-1.1 1.2-1.2.5-.2 3.8 0 5.4-.9.2.1.5.2.9.1 1.1-.1 1.8-1.5 1.8-1.5s-1.6-2.5-5-4.6zM62.8 31.1c-3.1 2.2-6.5 2.8-8.6 1.9 3.3-2.4 9.4-8.4 9.4-8.4s-1-2.6-2.8-1c-1.8 1.5-3.4 3.4-4 4-.4.4-1.1 1.1-1.5.8-.5-.4 1-3.6 2.1-6.3 1.5-3.7-.2-4.8-2.3-4.7-1.8.1-4.3 1.2-6.1 2.3-.5.3-.9.5-1 .4-.1-.1 0-.3.3-.6 4.8-4 11.5-3.9 12.1-1 .5 2.3-4.5 8.2-4.2 8.3 0 0 .1 0 .2-.1 1.6-2.2 4.8-5.5 5.9-5.3 2.1.2 2.8 3 2.8 3l-7 6.3c1.5.4 3.1.5 4.7.4z"/>
</svg>
