<svg xmlns="http://www.w3.org/2000/svg" height="60" viewBox="0 0 56780.4 4800" version="1.1" width="120">
  <g transform="translate(-1171)">
    <g transform="translate(8503.191 -21241.43)">
      <path d="M13754 26046.03c-529.47 105.9-1034.9 158.9-1516.3 158.9-192.6 0-374.33-8-545.18-25.4-170.859-16.9-360.999-53-570.409-108.3-209.42-55.3-387.55-129.9-534.38-223.8-146.84-93.8-270.79-226.2-371.87-397.2-101.07-170.9-151.61-371.9-151.61-603v-2058c0-943.4 724.48-1415.2 2173.499-1415.2 356.25 0 852.07 53 1487.5 158.9v844.9c-572.8-134.9-1063.8-202.3-1472.9-202.3-163.66 0-297.24 5-400.73 14.4-103.5 10-211.85 33.7-325.039 72.2-113.2 38.5-197.45 99.8-252.76 184.1-55.314 84.2-82.969 193.8-82.968 328.7v1993c-.001 423.5 387.47 635.3 1162.399 635.3 341.86 0 808.81-69.8 1400.9-209.4z" style="fill:#333;stroke-width:100"/>
      <path d="M16727 23439.33h-361.18c-288.83 0-506.66 44.5-653.49 133.5-146.84 89.1-220.26 241.9-220.26 458.6v2101.2h-1054.2v-3495h1003.8v614c4.85-173.4 104.75-331.1 299.7-473 194.95-142 398.34-213 610.19-213h375.5z" style="fill:#333;stroke-width:100"/>
      <path d="M20753 23901.43v1032.6c0 226.2-36.107 420-108.31 581.2-72.21 161.2-161.27 286.4-267.19 375.4-105.92 89-244.31 157.6-415.17 205.8-170.86 48.2-327.28 78.3-469.27 90.4-141.99 12-314.1 18-516.31 18-202.22 0-374.33-6-516.32-18-141.99-12.1-298.45-42.2-469.38-90.4s-309.36-116.8-415.28-205.8c-105.92-89-194.99-214.2-267.19-375.4-72.206-161.2-108.31-355-108.31-581.2v-1032.6c0-240.8 37.315-446.6 111.94-617.5 74.63-170.8 166.12-302 274.46-393.4 108.34-91.5 249.16-162.5 422.44-213.1 173.28-50.6 328.53-81.9 465.74-93.9 137.21-12 304.5-17.9 501.88-17.9 197.37 0 364.66 6 501.88 17.9 137.21 12 292.46 43.3 465.74 93.9 173.28 50.6 314.05 121.6 422.33 213.1 108.27 91.4 199.72 222.6 274.35 393.4 74.626 170.9 111.94 376.7 111.94 617.5zm-1054.2 1155.4v-1321.5c0-187.7-48.153-321.3-144.45-400.7-96.302-79.4-288.86-119.1-577.69-119.1-288.83 0-481.35 39.7-577.58 119.1-96.228 79.4-144.34 213-144.34 400.7v1321.5c0 182.9 46.899 310.5 140.7 382.7 93.8 72.2 287.54 108.3 581.21 108.3s487.44-36.1 581.32-108.3c93.872-72.2 140.81-199.8 140.81-382.7z" style="fill:#333;stroke-width:100"/>
      <path d="M24585 24767.93v440.5c0 173.2-32.471 322.4-97.401 447.6-64.938 125.1-146.77 222.7-245.49 292.5-98.726 69.9-227.53 124-386.41 162.5-158.89 38.5-311.71 63.8-458.47 75.8-146.76 12.1-318.87 18.1-516.32 18.1-380.35 0-840.1-36.1-1379.3-108.4v-700.3c669.17 101 1133.8 151.6 1393.8 151.6 206.99 0 367.05-20.5 480.18-61.4 113.12-40.9 169.68-121.5 169.68-241.9v-216.8c0-110.6-31.294-193.6-93.876-249-62.585-55.4-197.38-83.1-404.37-83.1h-455.05c-365.81 0-651-73.4-855.57-220.2-204.57-146.9-306.86-362.3-306.86-646.3v-425.9c0-317.8 151.65-536.8 454.94-657.2 303.29-120.3 731.72-180.4 1285.3-180.4 231.09 0 645.08 21.6 1242 65v671.4c-751.01-57.7-1174.6-86.6-1270.8-86.6-293.67 0-479.04 20.5-556.09 61.4-77.056 40.9-115.58 119.1-115.58 234.6v187.7c0 57.8 30.115 110.7 90.349 158.9 60.232 48.2 152.93 72.3 278.1 72.3h462.1c856.78 0 1285.2 279.2 1285.2 837.6z" style="fill:#333;stroke-width:100"/>
      <path d="M28379 24767.93v440.5c0 173.2-32.47 322.4-97.401 447.6-64.938 125.1-146.77 222.7-245.49 292.5-98.727 69.9-227.53 124-386.41 162.5-158.89 38.5-311.71 63.8-458.47 75.8-146.76 12.1-318.87 18.1-516.32 18.1-380.35 0-840.1-36.1-1379.3-108.4v-700.3c669.17 101 1133.8 151.6 1393.8 151.6 206.99 0 367.05-20.5 480.18-61.4 113.12-40.9 169.68-121.5 169.68-241.9v-216.8c0-110.6-31.294-193.6-93.875-249-62.586-55.4-197.38-83.1-404.37-83.1h-455.05c-365.81 0-651-73.4-855.57-220.2-204.57-146.9-306.86-362.3-306.86-646.3v-425.9c0-317.8 151.65-536.8 454.94-657.2 303.29-120.3 731.72-180.4 1285.3-180.4 231.09 0 645.08 21.6 1242 65v671.4c-751-57.7-1174.6-86.6-1270.8-86.6-293.68 0-479.04 20.5-556.09 61.4-77.055 40.9-115.58 119.1-115.58 234.6v187.7c0 57.8 30.115 110.7 90.35 158.9 60.231 48.2 152.93 72.3 278.1 72.3h462.1c856.78 0 1285.2 279.2 1285.2 837.6z" style="fill:#333;stroke-width:100"/>
      <path d="M32744 23742.53v1148.1c0 476.6-143.2 814.8-429.6 1014.6-286.4 199.8-747.37 299.7-1382.9 299.7-669.03 0-1131.1-104.7-1386.3-314.1-255.18-209.5-382.77-542.8-382.77-1000.1v-3812.8h1054.2v1906.4c62.582-158.8 179.34-268.3 350.27-328.5 170.93-60.1 432.1-90.2 783.51-90.2 298.37 0 541.43 24 729.19 72.2 187.75 48.1 329.77 126.3 426.08 234.6 96.296 108.4 160.09 227.5 191.39 357.5 31.288 129.9 46.934 300.8 46.938 512.7zm-1054.2 1285.2v-1292.4c0-226.2-42.13-369.4-126.38-429.6-84.256-60.2-292.46-90.2-624.62-90.2-298.52 0-493.51 38.5-584.96 115.4-91.453 77-137.18 211.8-137.18 404.4v1292.4c0 207.1 44.549 345.6 133.65 415.4 89.099 69.8 287.68 104.7 595.76 104.7 308.07 0 509.04-34.9 602.92-104.7 93.872-69.8 140.81-208.2 140.81-415.4z" style="fill:#333;stroke-width:100"/>
      <path d="M36711 26132.63h-1032.6v-317.8c-76.983 139.6-187.68 239.5-332.09 299.7-144.41 60.3-409.22 90.4-794.42 90.4-471.73 0-784.61-72.2-938.64-216.6-154.04-144.5-231.05-445.3-231.05-902.6 0-414 79.441-701.7 238.32-863 158.88-161.3 442.9-242 852.04-242h1184.2v-238.2c0-211.8-49.364-352.6-148.08-422.4-98.726-69.8-306.9-104.7-624.51-104.7-298.52 0-707.74 28.9-1227.7 86.6v-664.4c399.59-48 844.88-72 1335.9-72 645.08 0 1092.8 78.2 1343.1 234.7 250.33 156.4 375.5 465.7 375.5 927.7zm-1054.2-895.3v-678.8h-722.14c-231.09 0-375.5 26.5-433.24 79.4-57.737 52.9-86.605 194.9-86.604 425.9-.001 226.3 30.079 363.5 90.24 411.7 60.158 48.2 212.98 72.3 458.47 72.3 120.32 0 209.38-1 267.19-4 57.807-2 120.39-8 187.75-18 67.356-10 114.29-25.3 140.81-47 26.515-21.7 49.396-51.7 68.644-90.2 19.242-38.5 28.865-89 28.867-151.6z" style="fill:#333;stroke-width:100"/>
      <path d="M39927 23439.33h-361.18c-288.83 0-506.66 44.5-653.49 133.5-146.84 89.1-220.26 241.9-220.26 458.6v2101.2h-1054.2v-3495h1003.8v614c4.85-173.4 104.74-331.1 299.7-473 194.95-142 398.34-213 610.19-213h375.5z" style="fill:#333;stroke-width:100"/>
      <path d="M41382 26132.63h-837.61v-779.9H41382Z" style="fill:#333;stroke-width:100"/>
      <path d="M43100 22052.83h-649.86v-678.7H43100Zm0 4079.8h-649.86v-3495H43100Z" style="fill:#333;stroke-width:100"/>
      <path d="M47317 23814.63v1213.1c0 216.7-26.484 399.7-79.441 548.9-52.965 149.3-120.36 264.8-202.18 346.7-81.832 81.8-198.59 144.4-350.27 187.7-151.69 43.3-296.14 69.8-433.35 79.5-137.22 10-318.94 14.4-545.18 14.4-288.83 0-513.86-10-675.09-28.9-161.24-19.2-322.5-66.2-483.81-140.8-161.31-74.6-276.85-193.8-346.63-357.4-69.782-163.7-104.67-380.4-104.67-650.1v-1213.1c0-230.9 27.692-425.9 83.077-584.7 55.385-158.9 122.78-281.7 202.18-368.4 79.404-86.7 196.12-152.8 350.16-198.5 154.03-45.7 297.23-73.4 429.6-83 132.36-10 314.09-14.4 545.18-14.4 231.09 0 412.82 5 545.18 14.4 132.36 10 275.6 37.3 429.71 83 154.1 45.7 270.86 111.8 350.27 198.5 79.401 86.7 146.8 209.5 202.18 368.4 55.381 158.8 83.073 353.8 83.077 584.7zm-664.4 1307v-1415.2c0-322.6-65.01-522.4-195.02-599.4-130.02-77-380.35-115.5-751-115.5-370.66 0-620.95 38.5-750.89 115.5-129.94 77-194.91 276.8-194.91 599.4v1415.2c-.001 154.1 16.82 276.9 50.463 368.3 33.641 91.5 96.225 157.7 187.75 198.6 91.523 40.9 185.4 66.2 281.63 75.8 96.224 10 238.21 14.4 425.96 14.4 187.75 0 329.77-5 426.08-14.4 96.296-10 190.17-34.9 281.63-75.8 91.448-40.9 154.03-107.1 187.75-198.6 33.712-91.4 50.57-214.2 50.573-368.3z" style="fill:#333;stroke-width:100"/>
    </g>
    <g transform="matrix(1.65012 0 0 1.65012 3302.21 -37198.041) matrix(100 0 0 100 0 19997.03)">
      <path d="M0 0v16.938l22.344-.126 14.844 14.844-5.782 5.782-12.562-12.532L0 24.938v30.25h19.5l38.156-38.344H80V0Zm61.156 24.938-38.312 38.25H0V80h80V63.125H57.094L42.75 48.781 48.531 43l12.094 12.094H80V24.938Z" style="fill:#ff0"/>
      <path d="M0 24.938v-8l22.344-.126 14.844 14.844-5.782 5.782-12.562-12.532z" style="fill:#333;fill-opacity:1;stroke:none;stroke-width:1px;stroke-linecap:butt;stroke-linejoin:miter;stroke-opacity:1"/>
      <path d="M57.656 16.844H80v8.094H61.156l-38.312 38.25H0v-8h19.5l38.156-38.344" style="fill:#333;fill-opacity:1;stroke:none;stroke-width:1px;stroke-linecap:butt;stroke-linejoin:miter;stroke-opacity:1"/>
      <path d="m48.531 43-5.781 5.781 14.344 14.344H80v-8.031H60.625L48.531 43" style="fill:#333;fill-opacity:1;stroke:none;stroke-width:1px;stroke-linecap:butt;stroke-linejoin:miter;stroke-opacity:1"/>
    </g>
  </g>
</svg>
