<svg xmlns="http://www.w3.org/2000/svg" viewBox="0 0 32 32" width="64" height="64">
  <path d="M5.373 19.93a2.02 2.02 0 0 1-.905.837 3.01 3.01 0 0 1-1.264.255c-.488.01-.97-.096-1.41-.31a2.807 2.807 0 0 1-1-.842c-.27-.37-.47-.783-.594-1.222a5.17 5.17 0 0 1-.2-1.437 4.8 4.8 0 0 1 .2-1.388c.123-.427.324-.827.593-1.18.265-.343.603-.623.988-.822a2.912 2.912 0 0 1 1.38-.31c.417-.001.83.1 1.206.268.372.17.687.447.906.794h.028v-3.59h1.962v9.86H5.4v-.912zM5.3 16.4a2.114 2.114 0 0 0-.283-.718 1.6 1.6 0 0 0-.518-.504 1.52 1.52 0 0 0-.804-.193 1.588 1.588 0 0 0-.815.193 1.53 1.53 0 0 0-.536.511 2.25 2.25 0 0 0-.29.725c-.06.28-.09.564-.1.85a3.63 3.63 0 0 0 .097.829c.06.263.164.513.31.74a1.72 1.72 0 0 0 .536.524c.238.142.513.213.8.204.28.01.56-.057.804-.193.213-.126.39-.304.518-.518a2.35 2.35 0 0 0 .277-.739 4.39 4.39 0 0 0 .083-.857 4.25 4.25 0 0 0-.079-.853zm3.37-.504a2.28 2.28 0 0 1 .346-1.146 2.35 2.35 0 0 1 .774-.732 3.37 3.37 0 0 1 1.056-.394 6.01 6.01 0 0 1 1.181-.118 8.01 8.01 0 0 1 1.092.076 3.35 3.35 0 0 1 1.008.296c.295.14.55.352.746.615a1.75 1.75 0 0 1 .288 1.043v3.715a7.47 7.47 0 0 0 .055.925 1.67 1.67 0 0 0 .193.662h-1.993a2.68 2.68 0 0 1-.086-.342 2.706 2.706 0 0 1-.048-.347 2.55 2.55 0 0 1-1.105.67c-.42.128-.858.193-1.298.193a3.54 3.54 0 0 1-.95-.114 2.2 2.2 0 0 1-.774-.386 1.802 1.802 0 0 1-.518-.664 2.23 2.23 0 0 1-.19-.961 2.08 2.08 0 0 1 .214-1.002c.132-.25.32-.466.552-.63s.497-.28.774-.353a8.33 8.33 0 0 1 .879-.181q.443-.068.87-.11a5.24 5.24 0 0 0 .76-.125c.187-.043.362-.126.515-.242a.535.535 0 0 0 .18-.463 1.04 1.04 0 0 0-.103-.504.76.76 0 0 0-.277-.29 1.098 1.098 0 0 0-.402-.134 3.41 3.41 0 0 0-.491-.035 1.49 1.49 0 0 0-.912.248q-.33.248-.387.83zm4.53 1.45a.87.87 0 0 1-.311.173 3.16 3.16 0 0 1-.402.103q-.214.042-.45.07-.234.028-.47.068a3.66 3.66 0 0 0-.436.11 1.292 1.292 0 0 0-.37.188.967.967 0 0 0-.255.295.947.947 0 0 0-.097.456.922.922 0 0 0 .097.443.736.736 0 0 0 .268.283 1.12 1.12 0 0 0 .386.145 2.46 2.46 0 0 0 .456.042c.312.018.622-.05.898-.193.194-.11.355-.27.47-.463.097-.168.16-.353.186-.546a3.77 3.77 0 0 0 .035-.442zm7.403-3.645v1.313h-1.436v3.535q0 .498.166.662.166.165.664.166l.318-.014a2.69 2.69 0 0 0 .29-.042v1.52c-.183.03-.367.047-.552.055q-.304.014-.594.014a5.73 5.73 0 0 1-.863-.062 2.04 2.04 0 0 1-.718-.241 1.266 1.266 0 0 1-.49-.51 1.82 1.82 0 0 1-.18-.87V15.01H16.01V13.7h1.187v-2.145h1.962V13.7zm1.125 2.196a2.28 2.28 0 0 1 .346-1.146 2.35 2.35 0 0 1 .774-.732 3.36 3.36 0 0 1 1.056-.394 6.01 6.01 0 0 1 1.181-.118 8.01 8.01 0 0 1 1.092.076 3.35 3.35 0 0 1 1.008.296c.295.14.55.352.746.615a1.72 1.72 0 0 1 .297 1.043v3.714a7.39 7.39 0 0 0 .055.926 1.67 1.67 0 0 0 .193.662h-1.988a2.755 2.755 0 0 1-.138-.691c-.304.314-.684.545-1.105.67s-.858.193-1.298.193a3.523 3.523 0 0 1-.953-.125 2.175 2.175 0 0 1-.774-.386 1.802 1.802 0 0 1-.518-.664 2.24 2.24 0 0 1-.188-.949 2.07 2.07 0 0 1 .214-1c.132-.25.32-.466.552-.63a2.46 2.46 0 0 1 .774-.352c.29-.078.58-.14.877-.186q.443-.068.87-.11c.257-.023.5-.064.76-.125.2-.04.37-.123.524-.24a.535.535 0 0 0 .18-.463 1.04 1.04 0 0 0-.103-.504.76.76 0 0 0-.278-.286 1.098 1.098 0 0 0-.402-.134 3.41 3.41 0 0 0-.491-.035 1.49 1.49 0 0 0-.912.248q-.33.248-.387.83zm4.53 1.45a.87.87 0 0 1-.311.173 3.14 3.14 0 0 1-.402.103q-.214.042-.45.07-.234.028-.47.068a3.55 3.55 0 0 0-.436.11c-.134.04-.26.104-.373.186a.96.96 0 0 0-.252.295.947.947 0 0 0-.097.456.922.922 0 0 0 .097.443.74.74 0 0 0 .268.283 1.12 1.12 0 0 0 .386.145 2.46 2.46 0 0 0 .456.042c.312.018.622-.05.898-.193.194-.11.355-.27.47-.463.097-.168.16-.353.186-.546.02-.146.032-.294.035-.443z" fill="#181716"/>
  <path d="M29.832 15.952v-2.128H32v2.128zM32 18.714v2.128h-2.168v-2.128z" fill="#1b90cf"/>
</svg>
