<svg version="1.1" xmlns="http://www.w3.org/2000/svg" x="0" y="0" viewBox="0 0 120 60" width="120" height="60" style="enable-background:new 0 0 120 60">
  <path style="fill:#002b7f" d="M10 14.7h100v30.7H10z"/>
  <path d="m17.3 22.2.3.7v14.4l-.3.5h5.3c3.7 0 6.8-3.1 6.8-8.2 0-3.8-1.8-7.2-5.7-7.3h-6.4zm3 1.5H22c2.5 0 4.4 1.6 4.4 5.9 0 5.4-2.1 6.4-4.6 6.4h-1.5V23.7zm26.2-.1h3.2l.5.4.5-1.8H39.8l-.3 1.8.9-.4h3.1v13.6l-.2.5h3.6l-.3-.5-.1-13.6zm24.6 11.7c-.7.9-1.8 1.4-2.9 1.4-2.8 0-4.3-2.5-4.3-6.4 0-3.4 1.2-6.9 4.2-6.9 1.2 0 2.3.7 3 2h.3V23c-.9-.7-2.1-1-3.2-1-3.9 0-7.1 2.6-7.1 8.6 0 4.7 2.9 7.4 6.7 7.4 1.2 0 2.5 0 3.5-.7v-2.2l-.2.2zm14.5-5.4c0-3.5-1.5-7.9-6.6-7.9-4.4 0-7 3.4-7 8 0 5.2 2.7 8 6.6 8 4.3.1 7-3.6 7-8.1m-6.7-6.5c2.7 0 3.8 3.1 3.8 6.1 0 3.8-1.2 7.2-4 7.2-2.7 0-3.7-3-3.7-6-.1-5.1 1.4-7.3 3.9-7.3m15.7 9.9L90 22.2h-2.5l.2.5-1.1 14.4-.2.7h1.9l.7-9.7 4.3 9.7h1l4.2-9.6.8 9.6h3.6l-.2-.7-1.4-14.5.1-.4H99l-4.4 11.1zm-57.4-.2 1.5 4.6h3.5l-.4-.4-5.3-15.1h-3l.3.9L29 37.3l-.3.4h2.1l1.5-4.6h4.9zm-4.3-1.8 1.9-5.5 1.9 5.5h-3.8zm23.5 1.8 1.5 4.6h3.5l-.4-.4-5.3-15.1h-3l.3.9-4.9 14.2-.3.4h2.1l1.5-4.6h5zm-4.3-1.8 1.9-5.5 1.9 5.5h-3.8z" style="fill:#fff"/>
</svg>
