<svg xmlns="http://www.w3.org/2000/svg" xmlns:sodipodi="http://sodipodi.sourceforge.net/DTD/sodipodi-0.dtd" xmlns:inkscape="http://www.inkscape.org/namespaces/inkscape" version="1.1" x="0px" y="0px" viewBox="0 0 120 59.999999" xml:space="preserve" sodipodi:docname="datasift-ar21.svg" inkscape:version="0.92.4 (5da689c313, 2019-01-14)" height="1em" width="1em">
  <sodipodi:namedview pagecolor="#ffffff" bordercolor="#666666" borderopacity="1" objecttolerance="10" gridtolerance="10" guidetolerance="10" inkscape:pageopacity="0" inkscape:pageshadow="2" inkscape:window-width="1920" inkscape:window-height="1001" showgrid="false" inkscape:zoom="0.70026853" inkscape:cx="242.05" inkscape:cy="67.150002" inkscape:window-x="-9" inkscape:window-y="-9" inkscape:window-maximized="1" inkscape:current-layer="svg24"/>
  <g transform="matrix(0.20652623,0,0,0.20652623,9.9999997,16.14209)">
    <g>
      <path style="fill:#f07e3b" d="m 120.4,43.6 0.5,-3.5 h 1.1 l 0.5,3.5 5.7,42.3 H 114.7 Z M 109.5,-0.2 89.2,134.1 h 19.2 l 3.7,-27.4 h 19 l 3.6,27.4 h 19.2 L 133.5,-0.2 Z" inkscape:connector-curvature="0"/>
      <polygon style="fill:#f07e3b" points="208.6,-0.2 151.7,-0.2 151.7,20.2 170.3,20.2 170.3,134.1 190,134.1 190,20.2 208.6,20.2"/>
      <path style="fill:#f07e3b" d="m 237.7,43.6 0.5,-3.5 h 1.1 l 0.5,3.5 5.7,42.3 H 232 Z M 226.8,-0.2 206.5,134.2 h 19.2 l 3.6,-27.4 h 19 l 3.6,27.4 h 19.2 L 250.9,-0.2 Z" inkscape:connector-curvature="0"/>
      <path style="fill:#393943" d="m 306,0 c 23.3,-0.5 27,20.2 27,34.9 l -19,1.8 c 0,-8.8 -1.3,-19 -7.7,-19 -5,0.2 -6.6,5.5 -6.6,13.1 0,8.9 7.7,19 15.2,29.9 9,13.4 18.1,26.5 18.1,40.6 0,17.5 -5.7,33.1 -26.9,33.1 -24.9,0 -28.2,-18.8 -28.2,-38.3 l 19,-1.8 c 0,10.9 1.1,22.4 9.1,22.4 5.7,0 7.9,-6.3 7.9,-14.5 0,-8.8 -8.2,-19.3 -15.6,-30.4 C 289.2,58.4 280.5,45 280.5,30.8 280.7,16.5 287.7,0.4 306,0" inkscape:connector-curvature="0"/>
      <rect x="344" y="0" style="fill:#393943" width="19.700001" height="134.3"/>
      <polygon style="fill:#393943" points="394.6,20.2 420.7,20.2 420.7,-0.1 374.8,-0.1 374.8,134.3 394.6,134.3 394.6,75.7 412.8,75.7 412.8,55.4 394.6,55.4"/>
      <polygon style="fill:#393943" points="484.2,0 429.6,0 429.7,20.3 445.9,20.3 445.9,134.3 465.6,134.3 465.6,20.3 484.2,20.3"/>
      <path style="fill:#f07e3b" d="M 42.8,0 H 27.3 V 0 H 0 V 18.5 H 27.3 V 38.6 H 0 V 57.1 H 27.3 V 77.2 H 0 v 18.5 h 27.3 v 20.1 H 0 v 18.6 H 27.3 42.8 C 79.3,134.1 82,119.7 82,67.2 82,14.6 79.3,0.2 42.8,0 M 47,114.6 V 19.7 c 13.9,0 14.8,3.5 14.6,47.3 0.2,44.1 -0.7,47.6 -14.6,47.6" inkscape:connector-curvature="0"/>
    </g>
  </g>
</svg>
