<svg version="1.1" xmlns="http://www.w3.org/2000/svg" x="0" y="0" viewBox="0 0 120 60" width="120" height="60" style="enable-background:new 0 0 120 60">
  <path d="M75.3 13.8v6.5l6.5-6.5h-6.5zM54.9 32.9l-6.4 6.4c1.1 1.4 2.4 2.6 3.9 3.6l6.2-6.1c-1.7-.8-3-2.2-3.7-3.9zm-7.1 0V32l18-17.9c-1.4-.4-2.9-.6-4.5-.6-6.2 0-11.5 3.4-14.3 8.4L39.8 29v.7c0 4.9-2.2 7.4-6.5 7.4h-1.6l-8.3 8.2H33c7.2 0 12.2-2.7 14.6-7.9l.6-.6 6.1-6.1c0-.4-.1-.7-.1-1.1 0-1.5.4-3 1.1-4.2l-7.5 7.5zm36.4-.4v-2.8l-8.1 8c.3.7.6 1.5 1 2.3l7.1-7v-.5zm8.9-18.7v5.8l5.8-5.8h-5.8zm-8.9 19.7-6.8 6.8c.8 1.2 1.8 2.4 3.3 3.3l6.4-6.3c-1.4-.4-2.6-1.4-2.9-3.8zM102 33V13.8h-2.2l-6.7 6.6v11.8c0 4.2-2.3 5.1-4.5 5.1h-.7l-6.6 6.6c1.8 1 4.2 1.7 7.4 1.7C102.2 45.6 102 33 102 33zm-42.9 4.1-6.2 6.2c.6.3 1.1.6 1.7.9l6.7-6.7c-.8 0-1.5-.2-2.2-.4zm23.8-23.3-7.6 7.5c-2-3.3-5.1-5.8-8.8-7l-8.2 8.2c.9-.5 1.9-.8 3-.8 2.7 0 5.1 1.7 6.3 4.2h7.7v7.6h-7.8c-.4.8-.9 1.5-1.6 2.1h.1L56.6 45c1.5.5 3.1.7 4.8.7 6.3 0 11.8-3.6 14.5-8.9l8.3-8.2V13.8h-1.3zm-45.9.6c-1.3-.2-2.8-.3-4.5-.3h-12V42l9.2-9.2V22.2l7.8-7.8H37zm9.9 6.7c-.2-.4-.5-.8-.7-1.1-2-2.8-4.4-4.4-7.6-5.2h-.1l-7.6 7.6h2.7c4.5 0 5.9 3 6.3 5.6l.1.4 7.1-7.1-.2-.2zm-17.3 16v-.9l-9.2 9.1h2.3l8.2-8.2h-1.3z" style="fill-rule:evenodd;clip-rule:evenodd;fill:#068765"/>
</svg>
