<svg version="1.1" xmlns="http://www.w3.org/2000/svg" x="0" y="0" viewBox="0 0 64 64" width="64" height="64" style="enable-background:new 0 0 64 64">
  <path d="M43 19.2v5.1l5.1-5.1H43zm-16 15-5 5.1c.8 1.1 1.9 2.1 3 2.8l4.8-4.8c-1.2-.6-2.2-1.8-2.8-3.1zm-5.5 0v-.7l14.2-14.1c-1.1-.3-2.3-.5-3.5-.5-4.9 0-9.1 2.7-11.2 6.6l-5.6 5.6v.5c0 3.8-1.7 5.8-5.1 5.8H9L2.5 44h7.4c5.6 0 9.6-2.1 11.4-6.2l.5-.5 4.8-4.8c0-.3-.1-.6-.1-.9 0-1.2.3-2.3.8-3.3l-5.8 5.9zm28.5-.4v-2.2l-6.3 6.3c.2.6.5 1.2.8 1.8l5.6-5.5c-.1-.1-.1-.2-.1-.4zm7-14.6v4.6l4.6-4.6H57zm-6.9 15.5L44.7 40c.6 1 1.4 1.9 2.6 2.6l5-5c-1.1-.3-2-1-2.2-2.9zm13.9-.4V19.2h-1.7L57 24.4v9.3c0 3.3-1.8 4-3.6 4h-.6l-5.2 5.1c1.4.8 3.3 1.4 5.8 1.4 10.8 0 10.6-9.9 10.6-9.9zm-33.7 3.2-4.9 4.9c.4.3.9.5 1.4.7l5.3-5.3c-.7 0-1.2-.1-1.8-.3zM49 19.2l-6 5.9c-1.6-2.6-4-4.5-6.9-5.5L29.7 26c.7-.4 1.5-.6 2.4-.6 2.1 0 4 1.3 4.9 3.3h6v5.9h-6.1c-.3.6-.7 1.2-1.2 1.7h.1l-7.4 7.4c1.2.4 2.4.6 3.7.6 5 0 9.3-2.8 11.4-7l6.5-6.5V19.2h-1zm-36 .5c-1-.2-2.2-.2-3.6-.2H0v21.9l7.2-7.2v-8.4l6.1-6.1H13zm7.8 5.2-.6-.9c-1.6-2.2-3.5-3.5-6-4.1h-.1l-6 6h2.1c3.5 0 4.6 2.4 4.9 4.4v.3l5.6-5.6.1-.1zM7.2 37.5v-.7L0 44h1.8l6.5-6.5H7.2z" style="fill-rule:evenodd;clip-rule:evenodd;fill:#068765"/>
</svg>
