<svg version="1.1" xmlns:svg="http://www.w3.org/2000/svg" xmlns="http://www.w3.org/2000/svg" xmlns:xlink="http://www.w3.org/1999/xlink" x="0px" y="0px" viewBox="0 0 64 64" style="enable-background:new 0 0 64 64" xml:space="preserve">
  <g transform="matrix(1.25,0,0,-1.25,-304.72762,313.50894)">
    <g transform="translate(284.7451,212.1929)">
      <path d="M2.7,28.8l-16.3,9.3c-1.1,0.6-2.5,0.6-3.6,0l-16.3-9.3c-1.1-0.6-1.8-1.8-1.8-3.1v-19 c0-1.3,0.7-2.5,1.8-3.1l28.1-16.2l0,11.5l8.1,4.7c1.1,0.6,1.8,1.8,1.8,3.1v19C4.6,27,3.8,28.2,2.7,28.8z M-17.9,7.9 c0-1.9-1.5-3.4-3.4-3.4c-1.9,0-3.4,1.5-3.4,3.4c0,1.9,1.5,3.4,3.4,3.4c0.9,0,1.6-0.3,2.2-0.8l6,3.4c0.3-0.7,0.7-1.4,1.1-2l-6-3.4 C-17.9,8.3-17.9,8.1-17.9,7.9z M-7.5,12.4c-1.9,0-3.4,1.5-3.4,3.4c0,0.2,0,0.4,0.1,0.6l-8.2,4.7c-0.6-0.5-1.4-0.8-2.2-0.8 c-1.9,0-3.4,1.5-3.4,3.4c0,1.9,1.5,3.4,3.4,3.4c1.9,0,3.4-1.5,3.4-3.4c0-0.2,0-0.4-0.1-0.6l8.2-4.7c0.6,0.5,1.4,0.9,2.3,0.9 c1.9,0,3.4-1.5,3.4-3.4C-4.1,14-5.6,12.4-7.5,12.4z" style="fill:#042B48"/>
    </g>
  </g>
</svg>
