<svg xmlns="http://www.w3.org/2000/svg" width="120" height="60" fill="#0075c9">
  <path d="M85.393 30.712a19.134 19.134 0 0 1-.16 3.054 4.18 4.18 0 0 1-.464 1.334 3.865 3.865 0 0 1-1.512 1.46 4.68 4.68 0 0 1-2.243.512c-1.5 0-2.528-.37-3.136-1.164s-.978-2.354-.978-4.522v-10h-3.8v9.852c0 3.336.6 5.715 1.835 7.224s3.28 2.32 6.02 2.32a8.233 8.233 0 0 0 3.336-.618 6.02 6.02 0 0 0 1.113-.65v.786h3.8V21.4h-3.8zm-39.1 3.3a5.77 5.77 0 0 1-1.927 2.124 5.486 5.486 0 0 1-3.073.88 5.59 5.59 0 0 1-5.738-4.674H51.1v-.968c0-3.058-.9-5.593-2.676-7.524s-4.14-2.937-6.964-2.937-5.26.95-7.117 2.817-2.8 4.255-2.8 7.094a9.76 9.76 0 0 0 2.844 7.042 9.406 9.406 0 0 0 6.98 2.932 9.265 9.265 0 0 0 5.486-1.724 10.8 10.8 0 0 0 3.644-4.766l.126-.304zm-8.896-8.047a5.382 5.382 0 0 1 3.707-1.36c1.62 0 2.883.4 3.862 1.26a6.335 6.335 0 0 1 1.793 2.932H35.7a5.63 5.63 0 0 1 1.7-2.832m67.815 8.048a5.76 5.76 0 0 1-1.924 2.124 5.49 5.49 0 0 1-3.076.879 5.59 5.59 0 0 1-5.738-4.674H110v-.968c0-3.06-.9-5.593-2.676-7.524a9.13 9.13 0 0 0-6.961-2.965c-2.824 0-5.263.95-7.116 2.817s-2.8 4.274-2.8 7.113a9.75 9.75 0 0 0 2.846 7.042 9.39 9.39 0 0 0 6.975 2.932 9.267 9.267 0 0 0 5.482-1.713 10.79 10.79 0 0 0 3.644-4.766l.126-.304zm-8.895-8.047a5.32 5.32 0 0 1 3.7-1.345c1.616 0 2.88.4 3.858 1.26a6.35 6.35 0 0 1 1.793 2.932H94.614a5.65 5.65 0 0 1 1.69-2.831m-24.566 21.18V44.32l-.04-13.484c.055-4.907-1.683-6.78-3.303-8.058C66.63 21.384 63.755 21 62.33 21a9.53 9.53 0 0 0-7.042 2.854 10.234 10.234 0 0 0-.074 14.047 9.308 9.308 0 0 0 6.913 2.85 8.94 8.94 0 0 0 3.866-.767 4.28 4.28 0 0 0 1.661-1.36v9.003h4.077v-.474zm-5.54-11.9a5.256 5.256 0 0 1-4 1.855 5.48 5.48 0 0 1-4.103-1.757 5.93 5.93 0 0 1-1.72-4.344 6.3 6.3 0 0 1 1.735-4.551 5.46 5.46 0 0 1 4.15-1.812 5.25 5.25 0 0 1 3.936 1.812 5.95 5.95 0 0 1 1.742 4.27 6.36 6.36 0 0 1-1.742 4.533M16.2 30.985a3.551 3.551 0 0 1 3.545-3.54 3.55 3.55 0 0 1 3.542 3.543 3.543 3.543 0 0 1-7.087.003m13.713-.166v-18.46h-4.855v10.033a9.94 9.94 0 1 0-5.08 18.459 9.824 9.824 0 0 0 2.658-.37c.03-.005.06-.013.1-.022v-3.92a2.4 2.4 0 0 1-.512.315 5.79 5.79 0 0 1-2.495.5 5.98 5.98 0 0 1-4.448-1.853 6.615 6.615 0 0 1 .037-9.066 6.15 6.15 0 0 1 4.54-1.855c.92 0 2.772.245 3.9 1.142 1.045.827 2.168 2.03 2.13 5.2l.022 7.95a4.13 4.13 0 0 0 .474-.371 9.907 9.907 0 0 0 3.524-7.313v-.356"/>
</svg>
