<svg version="1.1" xmlns="http://www.w3.org/2000/svg" x="0" y="0" viewBox="0 0 120 60" width="120" height="60" style="enable-background:new 0 0 120 60">
  <path class="st0" d="M79.3 22.1h-3c-.1 0-.2.1-.2.2v14.5c0 .1.1.2.2.2h3.1c.1 0 .2-.1.2-.2V22.3c-.2-.1-.3-.2-.3-.2zm0-5.4h-3c-.1 0-.2.1-.2.2v2.8c0 .1.1.2.2.2h3.1c.1 0 .2-.1.2-.2v-2.8c-.2-.1-.3-.2-.3-.2zm-5.7 0h-3.1c-.1 0-.2.1-.2.2v6.4c-1.2-.8-2.6-1.3-4.2-1.3-4.2 0-7.6 3.4-7.6 7.6 0 4.2 3.4 7.6 7.6 7.6 1.6 0 3-.5 4.2-1.3v.9c0 .1.1.2.2.2h3.1c.1 0 .2-.1.2-.2V16.9c-.1-.1-.1-.2-.2-.2zm-3.2 12.8c0 2.3-1.9 4.2-4.2 4.2-2.3 0-4.2-1.9-4.2-4.2 0-2.3 1.9-4.2 4.2-4.2 2.3 0 4.2 1.9 4.2 4.2zm25.8-7.4h-3.1c-.1 0-.2.1-.2.2v.9c-1.2-.8-2.6-1.3-4.2-1.3-4.2 0-7.6 3.4-7.6 7.6 0 4.2 3.4 7.6 7.6 7.6 1.5 0 3-.5 4.2-1.3l.1-.1v.1c0 2.1-1.3 4.5-4.3 4.5-2.5 0-3.7-1.4-4.5-2.5-.1-.1-.2-.1-.3-.1l-2.3 1.1c-.1.1-.2.2-.1.3 1.4 2.8 4.5 4.2 7.2 4.2 4 0 7.6-2.7 7.6-7.8V22.3c0-.1 0-.2-.1-.2zm-7.4 11.6c-2.3 0-4.2-1.9-4.2-4.2 0-2.3 1.9-4.2 4.2-4.2 2.3 0 4.2 1.9 4.2 4.2 0 2.3-1.9 4.2-4.2 4.2zm24.5 2.2-1-2.3c0-.1-.1-.1-.2-.1-.3.1-1.1.4-1.9.4-1.4 0-2.3-1.1-2.3-2.7v-5.9h4c.1 0 .2-.1.2-.2v-2.8c0-.1-.1-.2-.2-.2h-4v-4.6c0-.1-.1-.2-.2-.1s-2.9 1.3-3 1.4c-.1.1-.2.1-.2.2v12.2c0 3.6 2.1 5.9 5.6 5.9h.1c1.6 0 2.7-.7 3.1-1v-.2zM102 16.7h-3.1c-.1 0-.2.1-.2.2v2.8c0 .1.1.2.2.2h3.1c.1 0 .2-.1.2-.2v-2.8l-.2-.2zm0 5.4h-3.1c-.1 0-.2.1-.2.2v14.5c0 .1.1.2.2.2h3.1c.1 0 .2-.1.2-.2V22.3l-.2-.2z"/>
  <path class="st1" d="M34.2 31.3H33s-.1 0-.1.1c-.8 2.8-3.7 4.5-6.5 3.8-.5-.1-1-.4-1.5-.7h-.1l-.9.9v.1c3 2.1 7.2 1.4 9.3-1.7.5-.7.9-1.5 1-2.5.1.1 0 .1 0 0zm-9.3-2.8v-1.1H26c.1 0 .2-.1.2-.2v-.9c0-.1-.1-.2-.2-.2h-1.1V25c0-.1-.1-.2-.2-.2h-.9c-.1 0-.2.1-.2.2v1h-1.1c-.1 0-.2.1-.2.2v.9c0 .1.1.2.2.2h1.1v1.1c0 .1.1.2.2.2h.9c.1.1.2 0 .2-.1zM35.4 26h-3.6c-.1 0-.2.1-.2.2v.9c0 .1.1.2.2.2h3.6c.1 0 .2-.1.2-.2v-.9c0-.1-.1-.2-.2-.2z"/>
  <path class="st1" d="M29 7.7C16.7 7.7 6.7 17.8 6.7 30s10 22.3 22.3 22.3 22.3-10 22.3-22.3S41.2 7.7 29 7.7zm7.6 33.4H21.4c-1.9 0-3.5-1.6-3.5-3.5V22.4c0-1.9 1.6-3.5 3.5-3.5h15.2c2 0 3.5 1.6 3.5 3.5v15.2c0 2-1.6 3.5-3.5 3.5z"/>
</svg>
