<svg version="1.1" xmlns="http://www.w3.org/2000/svg" x="0" y="0" viewBox="0 0 120 60" width="120" height="60" style="enable-background:new 0 0 120 60">
  <path class="st0" d="M32 27.6v4.8h1.4c1.5 0 2.4-1 2.4-2.4s-1-2.4-2.4-2.4H32zm-1.2-1.2h2.6c2.2 0 3.7 1.5 3.7 3.5s-1.5 3.5-3.7 3.5h-2.6v-7zm7.9 0h1.2v7h-1.2v-7zm2.8 3.6c0-2 1.5-3.6 3.6-3.6 1.2 0 2 .3 2.7 1l-.8.8c-.5-.5-1.1-.7-2-.7-1.3 0-2.3 1.1-2.3 2.5s1 2.5 2.4 2.5c.7 0 1.3-.2 1.7-.5v-1.3H45v-1.1h3v2.9c-.7.6-1.7 1.1-2.9 1.1-2.2 0-3.6-1.6-3.6-3.6zm8.2-3.6h1.2v7h-1.2v-7zm4.8 1.2h-2.2v-1.1H58v1.1h-2.2v5.9h-1.2l-.1-5.9zm8.1 3.1-1.2-2.8-1.2 2.8h2.4zm-1.8-4.3H62l3.1 7h-1.3l-.8-1.7h-3.3l-.7 1.7h-1.3l3.1-7zm5.4 0h1.2v5.9h3.7v1.1h-4.9v-7zm9.2 1.6h-2.1v-1.6h6V28h-2.1v5.4h-1.8zm8.1 1.8c.7 0 1.1-.4 1.1-.9 0-.6-.4-.9-1.1-.9h-1.4v1.8h1.4zm-3.1-3.4h3.3c1 0 1.7.3 2.2.7.4.4.6.9.6 1.6 0 1.1-.6 1.8-1.5 2.2l1.7 2.5h-2.1l-1.4-2.2h-1v2.2h-1.8v-7zm7.2 0h5.5V28h-3.7v1.2h3.3v1.4h-3.3v1.3h3.8v1.5h-5.6zm6.8 0H96l3.1 4v-4h1.7v7h-1.5l-3.2-4v4h-1.7zm9.7 1.6v3.8h.9c1.2 0 2-.7 2-1.9s-.8-1.9-2-1.9h-.9zm-1.8-1.6h2.7c2.4 0 3.9 1.5 3.9 3.5s-1.5 3.5-3.9 3.5h-2.7v-7zm7.1 6 1-1.2c.7.5 1.4.8 2.2.8.6 0 .9-.2.9-.5s-.2-.5-1.3-.8c-1.5-.4-2.5-.8-2.5-2.2 0-1.3 1-2.2 2.6-2.2 1.1 0 2 .3 2.8.9l-.9 1.3c-.6-.4-1.3-.7-1.9-.7-.5 0-.8.2-.8.5 0 .4.3.5 1.3.8 1.5.4 2.5.9 2.5 2.1 0 1.4-1.1 2.2-2.7 2.2-1.2.1-2.3-.2-3.2-1z"/>
  <path style="fill:#fff" d="M4.7 19.2h21.5v21.5H4.7z"/>
  <path d="M4.7 19.2v21.6h21.6V19.2H4.7zm4 12.7h2.7v2.2H8.7v-2.2zm4.9 4.9H8.7v-2.2h4.9v2.2zm8.6-5.4h-5.4v5.4h-2.7v-5.4H8.7v-2.7h5.4v-5.4h2.7v5.4h5.4v2.7z" style="fill:#0094e5"/>
</svg>
