<svg version="1.1" xmlns:svg="http://www.w3.org/2000/svg" xmlns="http://www.w3.org/2000/svg" xmlns:xlink="http://www.w3.org/1999/xlink" x="0px" y="0px" viewBox="0 0 64 64" style="enable-background:new 0 0 64 64" xml:space="preserve">
  <g transform="translate(-81.923818,-196.38939)">
    <path class="st0" d="M113.9,221.4c-1.1,0-1.9-0.9-1.9-1.9v-21.2c0-1.1,0.9-1.9,1.9-1.9s1.9,0.9,1.9,1.9v21.2 C115.8,220.5,115,221.4,113.9,221.4z"/>
    <path class="st1" d="M113.9 260.4c-1.1 0-1.9-.9-1.9-1.9v-21.2c0-1.1.9-1.9 1.9-1.9s1.9.9 1.9 1.9v21.2C115.8 259.5 115 260.4 113.9 260.4zM105 230.3H83.8c-1.1 0-1.9-.9-1.9-1.9 0-1.1.9-1.9 1.9-1.9H105c1.1 0 1.9.9 1.9 1.9C106.9 229.4 106.1 230.3 105 230.3z"/>
    <path class="st0" d="M144 230.3h-21.2c-1.1 0-1.9-.9-1.9-1.9 0-1.1.9-1.9 1.9-1.9H144c1.1 0 1.9.9 1.9 1.9C145.9 229.4 145.1 230.3 144 230.3zM107.6 224c-.5 0-1-.2-1.3-.6l-15-15c-.7-.7-.7-1.9 0-2.7.7-.7 1.9-.7 2.7 0l15 15c.7.7.7 1.9 0 2.7C108.6 223.8 108.1 224 107.6 224zM135.2 251.6c-.5 0-1-.2-1.3-.6l-15-15c-.7-.7-.7-1.9 0-2.7.7-.7 1.9-.7 2.7 0l15 15c.7.7.7 1.9 0 2.7C136.2 251.4 135.7 251.6 135.2 251.6z"/>
    <g>
      <path d="M107.6,234.7l-15,15" style="fill:none"/>
      <path d="M92.6,251.6c-0.5,0-1-0.2-1.3-0.6c-0.7-0.7-0.7-1.9,0-2.7l15-15c0.7-0.7,1.9-0.7,2.7,0c0.7,0.7,0.7,1.9,0,2.7 l-15,15C93.6,251.4,93.1,251.6,92.6,251.6z" style="fill:#73C936"/>
    </g>
    <path class="st0" d="M120.2,224c-0.5,0-1-0.2-1.3-0.6c-0.7-0.7-0.7-1.9,0-2.7l15-15c0.7-0.7,1.9-0.7,2.7,0c0.7,0.7,0.7,1.9,0,2.7 l-15,15C121.2,223.8,120.7,224,120.2,224z"/>
    <path d="M116.7,228.4c0,1.5-1.2,2.7-2.7,2.7s-2.7-1.2-2.7-2.7l0,0 c0-1.5,1.2-2.7,2.7-2.7h0C115.5,225.6,116.7,226.9,116.7,228.4z" style="fill-rule:evenodd;clip-rule:evenodd;fill:#73C936"/>
  </g>
</svg>
