<svg version="1.1" xmlns="http://www.w3.org/2000/svg" xmlns:xlink="http://www.w3.org/1999/xlink" x="0px" y="0px" viewBox="0 0 120 60" style="enable-background:new 0 0 120 60" xml:space="preserve">
  <g>
    <path class="st0" d="M32 27.6v4.8h1.4c1.5 0 2.4-1 2.4-2.4v0c0-1.4-1-2.4-2.4-2.4L32 27.6 32 27.6zM30.8 26.4h2.6c2.2 0 3.7 1.5 3.7 3.5v0c0 2-1.5 3.5-3.7 3.5h-2.6V26.4zM38.7 26.4h1.2v7h-1.2V26.4zM41.5 30 41.5 30c0-2 1.5-3.6 3.6-3.6 1.2 0 2 .3 2.7 1L47 28.2c-.5-.5-1.1-.7-2-.7-1.3 0-2.3 1.1-2.3 2.5v0c0 1.4 1 2.5 2.4 2.5.7 0 1.3-.2 1.7-.5v-1.3H45v-1.1h3v2.9c-.7.6-1.7 1.1-2.9 1.1C42.9 33.6 41.5 32 41.5 30zM49.7 26.4h1.2v7h-1.2V26.4zM54.5 27.6h-2.2v-1.1h5.7v1.1h-2.2v5.9h-1.2L54.5 27.6 54.5 27.6zM62.6 30.7l-1.2-2.8-1.2 2.8H62.6zM60.8 26.4H62l3.1 7h-1.3L63 31.7h-3.3L59 33.4h-1.3L60.8 26.4zM66.2 26.4h1.2v5.9h3.7v1.1h-4.9L66.2 26.4 66.2 26.4z"/>
    <polygon class="st0" points="75.4,28 73.3,28 73.3,26.4 79.3,26.4 79.3,28 77.2,28 77.2,33.4 75.4,33.4"/>
    <path class="st0" d="M83.5,29.8c0.7,0,1.1-0.4,1.1-0.9v0c0-0.6-0.4-0.9-1.1-0.9h-1.4v1.8C82.2,29.8,83.5,29.8,83.5,29.8z M80.4,26.4h3.3c1,0,1.7,0.3,2.2,0.7c0.4,0.4,0.6,0.9,0.6,1.6v0c0,1.1-0.6,1.8-1.5,2.2l1.7,2.5h-2.1l-1.4-2.2h-1v2.2h-1.8 L80.4,26.4L80.4,26.4z"/>
    <polygon class="st0" points="87.6,26.4 93.1,26.4 93.1,28 89.4,28 89.4,29.2 92.7,29.2 92.7,30.6 89.4,30.6 89.4,31.9 93.2,31.9 93.2,33.4 87.6,33.4"/>
    <polygon class="st0" points="94.4,26.4 96,26.4 99.1,30.4 99.1,26.4 100.8,26.4 100.8,33.4 99.3,33.4 96.1,29.4 96.1,33.4 94.4,33.4"/>
    <path class="st0" d="M104.1 28v3.8h.9c1.2 0 2-.7 2-1.9v0c0-1.2-.8-1.9-2-1.9C105 28 104.1 28 104.1 28zM102.3 26.4h2.7c2.4 0 3.9 1.5 3.9 3.5v0c0 2-1.5 3.5-3.9 3.5h-2.7L102.3 26.4 102.3 26.4zM109.4 32.4l1-1.2c.7.5 1.4.8 2.2.8.6 0 .9-.2.9-.5v0c0-.3-.2-.5-1.3-.8-1.5-.4-2.5-.8-2.5-2.2v0c0-1.3 1-2.2 2.6-2.2 1.1 0 2 .3 2.8.9l-.9 1.3c-.6-.4-1.3-.7-1.9-.7-.5 0-.8.2-.8.5v0c0 .4.3.5 1.3.8 1.5.4 2.5.9 2.5 2.1v0c0 1.4-1.1 2.2-2.7 2.2C111.4 33.5 110.3 33.2 109.4 32.4z"/>
    <rect x="4.7" y="19.2" width="21.5" height="21.5" style="fill:#FFFFFF"/>
    <path d="M4.7,19.2v21.6h21.6V19.2H4.7z M8.7,31.9h2.7v2.2H8.7V31.9z M13.6,36.8H8.7v-2.2h4.9V36.8z M22.2,31.4h-5.4 v5.4h-2.7v-5.4H8.7v-2.7h5.4l0,0l0,0v-5.4h2.7v5.4h5.4C22.2,28.6,22.2,31.4,22.2,31.4z" style="fill:#0094E5"/>
  </g>
</svg>
