<svg version="1.1" xmlns="http://www.w3.org/2000/svg" x="0" y="0" viewBox="0 0 64 64" width="64" height="64" style="enable-background:new 0 0 64 64">
  <circle cx="32" cy="32" r="32" style="fill-rule:evenodd;clip-rule:evenodd;fill:#1a5ec6"/>
  <path d="M41.5 11.8c-1.1 0-2.3.1-3.3.3v11.1c-1.5-.6-3.3-.9-5.7-.9-8.5 0-15.4 5.8-15.4 15.1 0 9.6 6.3 14.8 15.6 14.8 4.6 0 9.3-1.2 12.2-2.8V12.1c-1.1-.2-2.2-.3-3.4-.3zm-3.3 33.6c-1.8.7-3.6 1-5.6.9-5.1 0-8.7-3.5-8.7-9s3.8-9 8.8-9c2 0 3.9.2 5.5 1.2v15.9z" style="fill-rule:evenodd;clip-rule:evenodd;fill:#fff"/>
</svg>
