<svg xmlns="http://www.w3.org/2000/svg" version="1.1" x="0" y="0" viewBox="0 0 64 64" width="64" height="64">
  <path style="fill:#8bc540;stroke-width:.56189638" d="m63.635 22.925-3.765 4.72H46.61c-.675 0-1.124.113-1.462.337-.337.225-.45.506-.45 1.012v9.159c0 .618-.112 1.18-.28 1.573-.225.45-.393.787-.73 1.124-.282.28-.675.506-1.068.674-.393.113-.787.225-1.18.225-.393 0-.73-.056-1.124-.225-.337-.112-.674-.337-1.068-.674-.056-.056-.112-.113-.224-.113l-6.013-5.394v-.056l-9.215-7.81c-.224-.225-.45-.281-.786-.281H.309l3.933-4.945h21.015s.506.056.787.225c.393.112.899.393 1.405.843l6.293 5.17v.055l5.563 5.114v-5.676c0-.618.224-1.123.393-1.573.337-.73.787-1.292 1.46-1.854.675-.506 1.518-.9 2.473-1.18.337-.056.675-.112 1.012-.225.786-.112 1.685-.225 2.697-.225h16.35z" class="st0"/>
  <path class="st0" style="fill:#8bc540" transform="matrix(.5619 0 0 .5619 -1.686 5.113)" d="M54 63.9V51l-10.7-9.2v22.1z"/>
</svg>
