<svg version="1.1" xmlns="http://www.w3.org/2000/svg" x="0" y="0" viewBox="0 0 64 64" width="64" height="64" style="enable-background:new 0 0 64 64">
  <circle cx="32" cy="32" r="32" style="fill:#fcb425"/>
  <path d="M24.4 41.8h-5.9v-2.4c-.6.8-2 1.5-2.6 1.9-1.1.6-2.5 1-3.9 1-2.2 0-4.2-.7-5.9-2.2-2.1-1.8-3-4.6-3-7.6s1.1-5.5 3.2-7.3c1.7-1.4 3.7-2.6 5.9-2.6 1.3 0 2.8.1 3.9.7.6.3 1.8 1 2.5 1.7V12.2h5.9v29.6zm-6.1-9.4c0-1.1-.3-2.5-1.1-3.3-.8-.8-2.2-1.5-3.4-1.5-1.3 0-2.4.9-3.2 1.9-.7.8-1 2-1 2.9 0 1 .4 2.1 1 2.9.8.9 1.6 1.6 2.9 1.6 1.1 0 2.5-.5 3.3-1.3.9-.7 1.5-2 1.5-3.2z" style="fill:#231f20"/>
  <path d="M52.2 12.3c-1 0-1.8.3-2.5 1s-1 1.5-1 2.5.3 1.8 1 2.5 1.5 1 2.5 1 1.8-.3 2.5-1 1-1.5 1-2.5-.3-1.8-1-2.5c-.7-.6-1.5-1-2.5-1zm-15.6 10c-3.7 0-6.5 1.1-8.5 3.4-1.6 1.9-2.5 4.1-2.5 6.5 0 2.7.8 5 2.4 6.9 2 2.3 4.7 3.4 8.3 3.4 3.5 0 6.3-1.1 8.3-3.4 1.6-1.9 2.4-4.1 2.4-6.7 0-2.6-.8-4.8-2.5-6.7-1.8-2.3-4.5-3.4-7.9-3.4zm12.5.6v18.8h6.3V22.9h-6.3zM36.4 28c1.2 0 2.1.4 2.9 1.3.8.8 1.2 1.9 1.2 3.1 0 1.2-.4 2.3-1.2 3.1-.8.8-1.8 1.3-3 1.3-1.3 0-2.4-.5-3.2-1.5-.7-.8-1-1.8-1-2.8 0-1.1.3-2 1-2.8.9-1.2 2-1.7 3.3-1.7z" style="fill:#fff"/>
</svg>
