<svg xmlns:svg="http://www.w3.org/2000/svg" xmlns="http://www.w3.org/2000/svg" version="1.1" viewBox="0 0 64 64">
  <rect style="fill:#f02542;fill-opacity:1;stroke-width:0.8125971" width="64" height="64" x="0" y="0"/>
  <path d="m 43.487491,10.937504 v 13.230687 c -3.019227,-2.891598 -7.111077,-4.675978 -11.622751,-4.675978 -9.279124,0 -16.805082,7.517287 -16.805082,16.785142 0,9.267854 7.525958,16.785141 16.805082,16.785141 4.511674,0 8.603697,-1.784467 11.622751,-4.675978 v 3.635435 h 5.452851 v -41.0841 H 43.487491 Z M 31.86474,23.722096 c 5.245194,0 9.739527,3.209198 11.622751,7.770899 v 9.568286 c -1.883485,4.561528 -6.377557,7.770898 -11.622751,7.770898 -6.939834,0 -12.569996,-5.623659 -12.569996,-12.554824 0,-6.931599 5.630162,-12.554824 12.569996,-12.554824 z" style="fill:#ffffff;fill-opacity:1;stroke-width:0.43352291"/>
</svg>
