<svg xmlns:svg="http://www.w3.org/2000/svg" xmlns="http://www.w3.org/2000/svg" version="1.1" x="0px" y="0px" viewBox="0 0 64 64" style="enable-background:new 0 0 64 64" xml:space="preserve">
  <defs>
    <clipPath id="a">
      <path d="M 0 0 L 413 0 L 413 454.328125 L 0 454.328125 Z M 0 0"/>
    </clipPath>
  </defs>
  <g transform="matrix(0.10565051,0,0,0.10565051,183.0778,26.254712)">
    <g clip-path="url(#a)" clip-rule="nonzero" transform="matrix(1.3333334,0,0,1.3333334,-1704.4669,-248.5053)">
      <path style="fill:#4cbd3d;fill-opacity:1;fill-rule:nonzero;stroke:none" d="m 186.66797,-0.00390625 c -46.66797,0 -186.66797,0 -186.66797,0 V 188.16406 H 74.332031 V 64.828125 c 0,0 65.249999,0 86.999999,0 25.33594,0 179.5,1.335937 179.5,162.999995 0,161.66797 -154.16406,161.66797 -179.5,161.66797 -21.75,0 -86.999999,0 -86.999999,0 V 263.16406 H 0 v 191.16406 c 0,0 140,0 186.66797,0 12.66406,0 226,-2.33203 226,-228.33203 0,-225.99609 -213.33594,-225.99999625 -226,-225.99999625"/>
    </g>
    <path style="fill:#4cbd3d;fill-opacity:1;fill-rule:nonzero;stroke:none;stroke-width:1.33333" d="m -1480.6908,102.38013 h -124.6667 V 2.3801259 h 124.6667 V 102.38013"/>
    <path style="fill:#4cbd3d;fill-opacity:1;fill-rule:nonzero;stroke:none;stroke-width:1.33333" d="m -1424.6856,77.713463 c -13.9896,0 -25.3334,-11.338534 -25.3334,-25.333335 0,-13.989587 11.3438,-25.333334 25.3334,-25.333334 13.9895,0 25.3333,11.343747 25.3333,25.333334 0,13.994801 -11.3438,25.333335 -25.3333,25.333335 z m 0,-118.447926 c -51.4271,0 -93.1198,41.68750881 -93.1198,93.114591 0,51.427082 41.6927,93.119802 93.1198,93.119802 51.427,0 93.1145,-41.69272 93.1145,-93.119802 0,-51.42708219 -41.6875,-93.114591 -93.1145,-93.114591"/>
  </g>
</svg>
