<svg xmlns="http://www.w3.org/2000/svg" version="1.1" x="0" y="0" viewBox="0 0 64 64" width="64" height="64">
  <g transform="matrix(4.07215 0 0 4.07215 -18.469 -90.164)">
    <path d="M20.058 33.901a8.57 8.57 0 0 1-4.313 1.063c-4.647-.06-8.322-3.827-8.231-8.353a8.176 8.176 0 0 1 1.275-4.191 8.19 8.19 0 0 0-4.252 6.986c-.091 4.525 3.584 8.262 8.232 8.353 2.915.09 5.68-1.367 7.29-3.858" style="fill:#1f3244;stroke-width:.30374464"/>
    <path style="fill:#0073ec;stroke-width:.30374464" d="M15.654 33.992h.152c1.215 0 2.4-.304 3.463-.85 2.004-3.463.85-7.898-2.613-9.902a7.515 7.515 0 0 0-3.614-1.003c-1.215 0-2.43.304-3.493.881a7.039 7.039 0 0 0-1.063 3.554c-.03 4.01 3.159 7.29 7.168 7.32"/>
  </g>
</svg>
