<svg xmlns="http://www.w3.org/2000/svg" viewBox="-0.21 0.79 120 60" version="1.1" width="120" height="60" style="enable-background:new 0 0 282 302">
  <g transform="translate(2)">
    <g transform="translate(.864 3.954)">
      <path d="M28.188 7.568C11.122 7.568 5.5 22.448 5.5 27.888h13.83s1.952-7.091 8.858-7.091c6.907 0 8.859 7.09 8.859 7.09h13.746c0-5.455-5.555-20.32-22.605-20.32m17.534 23.857h-8.675s-1.518 7.09-8.859 7.09c-7.34 0-8.858-7.09-8.858-7.09h-8.525c0 1.818 6.69 14.68 17.467 14.68 10.777 0 17.45-10.576 17.45-14.68" class="st8" style="fill:#252728;stroke-width:.16682677"/>
      <circle cx="28.155" cy="29.806" r="5.822" class="st8" style="fill:#252728;stroke-width:.16682677"/>
    </g>
    <path style="fill:#252728" class="st8" d="M85.5 254.1c2.4 0 4.6.4 6.7 1.1 2.1.8 3.9 1.9 5.4 3.4 1.5 1.5 2.7 3.4 3.5 5.7.9 2.3 1.3 5 1.3 8.1 0 2.7-.3 5.2-1 7.5s-1.7 4.3-3.2 5.9c-1.4 1.7-3.2 3-5.3 3.9-2.1 1-4.6 1.4-7.4 1.4h-16v-37.3h16zm-.5 30.4c1.2 0 2.3-.2 3.4-.6 1.1-.4 2.1-1 3-1.9.9-.9 1.6-2 2.1-3.5.5-1.4.8-3.2.8-5.2 0-1.9-.2-3.6-.5-5.1-.4-1.5-1-2.8-1.8-3.9s-1.9-1.9-3.3-2.5c-1.4-.6-3.1-.9-5.1-.9h-5.8v23.5H85Zm29.4-20.1v5h.1c.3-.8.8-1.6 1.4-2.3.6-.7 1.3-1.3 2-1.8.8-.5 1.6-.9 2.5-1.2.9-.3 1.8-.4 2.7-.4.5 0 1 .1 1.6.3v6.9c-.3-.1-.8-.1-1.3-.2s-1-.1-1.4-.1c-1.4 0-2.5.2-3.4.7-.9.5-1.7 1.1-2.3 1.9-.6.8-1 1.7-1.2 2.7-.2 1-.4 2.2-.4 3.4v12.2h-7.4v-27h7.1zm12.5 7.7c.7-1.8 1.6-3.3 2.8-4.5 1.2-1.2 2.7-2.2 4.4-2.9 1.7-.7 3.6-1 5.7-1s4 .3 5.8 1c1.7.7 3.2 1.6 4.4 2.9 1.2 1.2 2.2 2.7 2.8 4.5.7 1.8 1 3.7 1 5.9s-.3 4.1-1 5.8c-.7 1.7-1.6 3.2-2.8 4.5-1.2 1.2-2.7 2.2-4.4 2.8-1.7.7-3.6 1-5.8 1-2.1 0-4-.3-5.7-1-1.7-.7-3.2-1.6-4.4-2.8-1.2-1.2-2.2-2.7-2.8-4.5-.7-1.7-1-3.7-1-5.8 0-2.2.3-4.2 1-5.9zm6.7 9c.2 1 .6 1.9 1.1 2.8.5.8 1.2 1.5 2 2s1.9.7 3.1.7c1.3 0 2.3-.2 3.2-.7.9-.5 1.5-1.1 2-2 .5-.8.9-1.7 1.1-2.8.2-1 .3-2.1.3-3.2s-.1-2.1-.3-3.2c-.2-1-.6-2-1.1-2.8-.5-.8-1.2-1.5-2-2-.9-.5-1.9-.8-3.2-.8-1.3 0-2.3.3-3.1.8-.8.5-1.5 1.2-2 2s-.9 1.7-1.1 2.8c-.2 1-.3 2.1-.3 3.2s.1 2.2.3 3.2zm32-16.7v3.8h.2c.9-1.6 2.2-2.7 3.7-3.4 1.5-.7 3-1.1 4.6-1.1 2 0 3.6.3 4.9.8 1.3.5 2.3 1.3 3 2.2.7 1 1.2 2.1 1.5 3.5.3 1.4.4 2.9.4 4.6v16.6h-7.4v-15.2c0-2.2-.3-3.9-1-5s-1.9-1.6-3.7-1.6c-2 0-3.5.6-4.4 1.8-.9 1.2-1.4 3.2-1.4 5.9v14.1h-7.4v-27zm31.9 20.5c1.1 1.1 2.7 1.6 4.8 1.6 1.5 0 2.8-.4 3.9-1.1 1.1-.7 1.7-1.5 2-2.4h6.5c-1 3.2-2.6 5.5-4.8 6.9-2.2 1.4-4.8 2.1-7.8 2.1-2.1 0-4-.3-5.7-1-1.7-.7-3.1-1.6-4.3-2.9-1.2-1.3-2.1-2.7-2.7-4.5-.6-1.7-1-3.7-1-5.7s.3-3.9 1-5.6c.7-1.7 1.6-3.2 2.8-4.5 1.2-1.3 2.7-2.3 4.4-3 1.7-.7 3.6-1.1 5.6-1.1 2.3 0 4.3.4 6 1.3 1.7.9 3.1 2.1 4.2 3.6s1.9 3.2 2.4 5.1c.5 1.9.7 3.9.5 6h-19.5c-.1 2.4.5 4.2 1.7 5.2zm8.3-14.2c-.9-1-2.2-1.5-4-1.5-1.2 0-2.2.2-2.9.6-.8.4-1.4.9-1.9 1.5s-.8 1.2-1 1.9c-.2.7-.3 1.3-.3 1.8h12.1c-.5-1.9-1.1-3.3-2-4.3z" transform="matrix(.3513 0 0 .3513 33.552 -65.1)"/>
  </g>
</svg>
