<svg version="1.1" xmlns="http://www.w3.org/2000/svg" x="0" y="0" viewBox="0 0 64 64" width="64" height="64" style="enable-background:new 0 0 64 64">
  <g transform="matrix(1.33333 0 0 -1.33333 -28.908 8981.231)">
    <path d="m50.9 6725.1-5.3 5.2-1.8 1.8c-2.5 2.5-5.7 3.8-9.2 3.8s-6.7-1.4-9.2-3.8c-2.5-2.5-3.8-5.7-3.8-9.2 0-3.5 1.4-6.8 3.8-9.2l1.8-1.8 5.3 5.3-1.8 1.8c-1.1 1.1-1.6 2.5-1.6 3.9 0 1.5.6 2.9 1.6 3.9 1.1 1.1 2.5 1.6 4 1.6s2.9-.6 4-1.6l1.8-1.8-7.9-7.9 5.3-5.3 7.9 7.9 5.1 5.4z" style="fill:#078ba0"/>
    <path d="M38.6 6697c-1.1-1.1-2.4-1.6-3.9-1.6s-2.9.6-4 1.6c-1.1 1.1-1.6 2.5-1.6 4s.6 2.9 1.6 4l1.8 1.8 7.9-7.9 5.3 5.3-7.9 7.9-5.3 5.2-5.3-5.3-1.8-1.8c-2.5-2.4-3.8-5.7-3.8-9.2 0-3.5 1.3-6.7 3.8-9.2 2.5-2.5 5.7-3.8 9.2-3.8s6.7 1.3 9.2 3.8l1.8 1.8-5.3 5.3-1.7-1.9z" style="fill:#54ccc3"/>
    <path d="m65.9 6710.2-1.8 1.8-5.3-5.3-5.3 5.2-7.9-7.9-5.3-5.3 7-7c2.5-2.4 5.7-3.8 9.2-3.8 3.5 0 6.7 1.4 9.2 3.8 2.5 2.5 3.8 5.7 3.8 9.2.2 3.5-1.2 6.8-3.6 9.3zm-5.3-13.2c-1.1-1.1-2.5-1.6-4-1.6s-2.9.6-4 1.6l-1.8 1.8 7.9 7.9 1.8-1.8c1.1-1.1 1.6-2.5 1.6-4 .2-1.5-.4-2.9-1.5-3.9z" style="fill:#50ffc9"/>
    <path d="M65.9 6732.1c-2.5 2.5-5.7 3.8-9.2 3.8-3.5 0-6.7-1.4-9.2-3.8l-1.8-1.8 5.3-5.2 1.8 1.8c1.1 1.1 2.5 1.6 4 1.6s2.9-.6 4-1.6c1.1-1.1 1.6-2.5 1.6-3.9 0-1.5-.6-2.9-1.6-3.9l-1.8-1.8-7.9 7.9-5.3-5.3 6.1-6.1 1.8-1.8 5.2-5.2 5.3 5.3 1.8 1.8c2.5 2.4 3.8 5.7 3.8 9.2-.1 3.3-1.5 6.6-3.9 9z" style="fill:#09cec4"/>
  </g>
</svg>
