<svg version="1.1" xmlns="http://www.w3.org/2000/svg" x="0" y="0" viewBox="0 0 64 64" width="64" height="64" style="enable-background:new 0 0 64 64">
  <path class="st0" d="M15.3 37.4c.9-.6 1.7-2.1 1.2-3.2-1.2.6-1.1 1.8-1.2 3.2zm14.2 3.4c1-.3 2-1.4 1.4-2.6-.7.5-1.2 1.3-1.4 2.6z"/>
  <path class="st1" d="M1.6 57.3c0 1.3.3 2.6 1.2 3.1 3.2 1.8 14.6.4 18.4-.5 2-.5 3.7-2 5.5-2.8 4.3-1.9 7.4-3.4 10.8-5.8 2.5-1.8 6.4-6.9 6.8-10l-3.3-.7c-.1 3.4-.9 4.2-3.9 5-2.1.6-6.1.7-8.2.3-2.8-.5-4-1.9-5.3-3.6-2.4-3.2.5-5.5-3.3-5.7-4 5-11.2 1.4-14.3.9C4.7 39.4 1.5 52 1.6 54.9c1.9-.7 3.2.1 4.9.7 6.1 2.4.8 4.5-1.7 3.9-1.7-.4-2.2-1.5-3.2-2.2zm8.1-28.6c2.5.5 4.7 1.5 6.8 2.6 3.5 1.7 4.1 1.5 4.4 3.9 0 .4 0 .7 1.2 1.1 2.1.7-1.2-.5 4.4-.5 3.4 0 11.1 1.4 13.6 3 1 .7.8 1.5 4.3 1.4 0-4.1-1.1-10.3-2.8-14.1-2-4.6-4.6-5.3-9.9-7-3.1-1-12.2-2.1-15.1-.3-2.7 1.7-3.2 3.6-5.6 7.1-.6.8-.9 1.6-1.3 2.8z"/>
  <path class="st1" d="M31.6 37.1c2 .8-.1 6.1-2.9 4.8-.9-2.5 1.2-4 1.8-5.1-1.2-.2-4.6-.7-5.6-.3-1.3.5-1.6 3.3-.9 4.6 3.2 6.3 17.3 4.9 15.8.1-.6-2-1.2-2.3-3.2-3-1.6-.5-3.2-1.1-5-1.1zm-25-.7c1.6 1.5 5.2 1.8 7.5 1.9.3-3.1.6-5.4 3-5.2 1.2 1.7.6 3.6-.7 4.9 2.2 0 3.4-1.7 3.1-4-1.8-1.3-7.4-4-10.2-4.3-.7.8-2.6 5.3-2.7 6.7z"/>
  <path d="M2.8 56.2c1.3-.1 4.7.9 5 2-2.1.2-4.8 0-5-2zm-1.2 1.1c1 .7 1.5 1.8 3.2 2.2 2.5.6 7.8-1.5 1.7-3.9-1.7-.7-3-1.4-4.9-.7C1.6 52 4.7 39.5 6 37.5c3.1.5 10.3 4.1 14.3-.9 3.9.2.9 2.5 3.3 5.7 1.3 1.7 2.5 3.1 5.3 3.6 2.1.4 6.1.2 8.2-.3 3.1-.8 3.8-1.6 3.9-5l3.4.8c-.4 3.1-4.3 8.2-6.8 10-3.4 2.5-6.5 4-10.8 5.8-1.9.8-3.5 2.3-5.5 2.8-3.9.9-15.2 2.3-18.4.5-1-.6-1.3-1.9-1.3-3.2zm27.9-16.5c.1-1.3.6-2.1 1.4-2.6.6 1.2-.4 2.3-1.4 2.6zm2.1-3.7c1.8 0 3.4.6 5 1.1 2 .7 2.6 1 3.2 3 1.5 4.9-12.6 6.2-15.8-.1-.7-1.3-.4-4.1.9-4.6 1-.4 4.4.2 5.6.3-.5 1.2-2.6 2.6-1.7 5.2 2.7 1.2 4.8-4 2.8-4.9zm-16.3.3c0-1.4 0-2.6 1.2-3.2.5 1.1-.2 2.6-1.2 3.2zm-8.7-1c.1-1.4 2-6 2.8-6.8 2.8.4 8.4 3 10.2 4.3.3 2.4-.9 4-3.1 4 1.3-1.3 1.9-3.2.7-4.9-2.5-.2-2.7 2.1-3 5.2-2.4 0-6-.2-7.6-1.8zm-2-1.6c-.7-2-.7-5.2 2.4-5.5l-1.6 4.4c-.5 1.1-.5.9-.8 1.1zm5.1-6.1c.5-1.2.7-1.9 1.4-3 2.5-3.5 3-5.4 5.6-7.1 2.8-1.8 12-.7 15.1.3 5.3 1.7 7.9 2.4 9.9 7 1.6 3.8 2.7 10 2.8 14.1-3.5.1-3.3-.7-4.3-1.4-2.5-1.6-10.2-2.9-13.6-3-5.7 0-2.3 1.2-4.4.5-1.3-.4-1.2-.6-1.2-1.1-.3-2.4-.9-2.2-4.4-3.9-2.2-.9-4.4-2-6.9-2.4zm35.3-1c-.4-1.3.3-1.2 1.5-2 .7-.5 1.3-1 2.1-1.5 3.2-1.8 9.2-2.1 11.8 0 1 .9 2.7 2.5 2.5 4.7-.5 4.4-3.5 6.8-6 8.8-2.5 2-6.6 4.1-10.9 2.7-.4-.9-.1-6.4-.5-8.5-.4-1.8-.2-2 .9-3.1 3.1-3.2 9.9-5.6 13.7-2.8 1.6 1.2 1.2 1.7 2 2.6 1-1.1-.9-4.9-8-4.6-5 .1-7.1 3.9-9.1 3.7zM15.9 16.3c.1-2.8 2.7-8.5 5.2-10.5 3.1-2.4 6.3-4.6 11.1-2 1.2.7 1.1 1 1.2 2.6.1 1.6 0 2.2-.4 3.4-3.2 10.2-5.8 4.3-15.9 6.7.4-3.3 3.3-6.3 4.8-7.8 2.7-2.7 4.7-4.4 8.8-3.8 1.1 1.9 1.3 3.1-.1 5.3-1.8 3-2.3 2.8-2 4.8 1.4-.4 1.9-1.8 2.5-3.2 4-8.4-1.8-9.4-5.4-7.9-2.4 1-6.7 5.7-8.1 8.6-.3.6-.6 1.3-.8 1.9l-.9 1.9zm15.8.4c.4-2.5 2.9-3.1 2.9-10.8 0-3.3-4.1-6.3-9.4-4.1-4.6 1.9-5.3 3.3-7.7 7-2.3 3.5-2.2 7.3-4.2 10.5-.6.9-1.1 1.2-1.7 2.2-.5.7-.8 1.5-1.3 2.3-.9 1.5-1.9 2.7-2.7 4.5-2.4.1-4.4.1-4.6 2.6-.3 3.4 1.3 4.2 1.3 5.5 0 1.4-5.6 15.3-4 23.5.4 2.3 1.9 2.3 4.3 2.6 5.8.7 13.2.5 18.4-1.6l9.4-4.5c2.4-1.3 6.4-3.9 8.1-5.7 1.3-1.3 1.9-2.4 3-3.9 1.5-2.2 1.5-2.1 1.8-5 2 .4 5.6 1.2 6.8 2.3-.1 1.4-.8.7-.8 2 .8 0 2.1-1 2.4-2-.8-1.2-1.7-1-2.9-2 .9-.7 2.6-1.1 3.9-1.6 2.8-1.2 7.6-4.7 8.7-7.9.9-2.6.2-6.9-1.3-8.5-1.6-1.8-5.3-2.7-8.3-2.7-3.6 0-7.3 2.6-10.3 3.7-1.1-1-1.2-2.1-2-3.2-.7-1.3-6.9-4.5-9.8-5.2z" style="fill:#020202"/>
  <path d="M45 27.7c2 .2 4.1-3.6 9-3.8 7.1-.2 9.1 3.5 8 4.6-.8-.9-.4-1.4-2-2.6-3.8-2.8-10.6-.4-13.7 2.8-1.1 1.1-1.3 1.3-.9 3.1.4 2.1.1 7.6.5 8.5 4.3 1.4 8.4-.7 10.9-2.7s5.4-4.4 6-8.8c.3-2.2-1.4-3.9-2.5-4.7-2.6-2.1-8.5-1.8-11.8 0-.9.5-1.4 1-2.1 1.5-1.1.9-1.8.8-1.4 2.1z" style="fill:#fdf2f2"/>
  <path d="m15.9 16.3 1-1.7c.3-.6.6-1.3.8-1.9 1.4-2.8 5.7-7.5 8.1-8.6 3.6-1.5 9.4-.5 5.4 7.9-.7 1.4-1.1 2.8-2.5 3.2-.3-2 .2-1.8 2-4.8 1.4-2.2 1.3-3.4.1-5.3-4.1-.6-6.1 1.2-8.8 3.8-1.6 1.5-4.5 4.5-4.8 7.8 10.1-2.4 12.7 3.4 15.9-6.7.4-1.3.5-1.9.4-3.4-.1-1.6-.1-2-1.2-2.6-4.7-2.7-8-.4-11.1 2-2.6 1.8-5.2 7.6-5.3 10.3z" style="fill:#fef3f3"/>
  <path d="M4.6 34.8c.4-.3.4-.1.8-1L7 29.4c-3.2.2-3.2 3.4-2.4 5.4z" style="fill:#efefef"/>
  <path d="M7.8 58.2c-.3-1.1-3.7-2.1-5-2 .2 2 2.9 2.2 5 2z" style="fill:#faf1f1"/>
</svg>
