<svg xmlns="http://www.w3.org/2000/svg" width="120" height="60" viewBox="0 0 120 60" version="1.1">
  <g transform="translate(3.441)">
    <g transform="translate(60.277 20.553)" style="fill:#494949;fill-rule:evenodd;stroke:none;stroke-width:1">
      <path d="M29.118.323 28.81 2.94c-1.45 0-2.356.211-2.718.633v.183c.548.703.822 1.49.822 2.362 0 1.34-.49 2.485-1.47 3.431-.98.947-2.442 1.42-4.384 1.42-.948 0-1.724-.074-2.328-.224-.492.225-.738.52-.738.886 0 .572.295.972.885 1.202.59.23 1.963.345 4.119.345 3.726 0 5.59 1.28 5.59 3.839 0 1.8-.777 3.23-2.329 4.289-1.552 1.06-3.438 1.589-5.659 1.589-4.349 0-6.523-1.378-6.523-4.135 0-.853.244-1.577.732-2.172.488-.596 1.052-.959 1.693-1.09v-.211c-.78-.497-1.17-1.256-1.17-2.278 0-1.031.534-1.894 1.602-2.588v-.197c-1.505-.759-2.258-1.945-2.258-3.557 0-1.379.518-2.532 1.555-3.46 1.036-.928 2.636-1.392 4.801-1.392 1.478 0 2.677.281 3.597.844h.195C25.095.886 25.995 0 27.529 0c.604 0 1.133.108 1.589.323zm-3.973 17.733c0-.694-.262-1.195-.787-1.504-.525-.31-1.429-.465-2.711-.465a35.61 35.61 0 0 1-3.15-.14c-.818.487-1.227 1.214-1.227 2.18 0 1.8 1.19 2.7 3.568 2.7 1.329 0 2.38-.254 3.15-.76.772-.506 1.157-1.176 1.157-2.01zM23.5 6.483c0-.844-.269-1.486-.808-1.927a2.846 2.846 0 0 0-1.854-.66 2.82 2.82 0 0 0-1.833.64c-.525.426-.787 1.051-.787 1.876 0 .835.27 1.468.808 1.899a2.924 2.924 0 0 0 1.882.647 2.82 2.82 0 0 0 1.805-.626c.525-.417.787-1.034.787-1.85z"/>
      <path d="M12.698 7.51c0 .478-.028 1.1-.084 1.87l-8.976.154c.13 1.06.58 1.941 1.352 2.644.771.703 1.784 1.055 3.039 1.055 1.394 0 2.876-.211 4.446-.633l-.279 2.728c-1.282.469-2.871.703-4.767.703-2.397 0-4.235-.68-5.512-2.039C.639 12.632 0 10.997 0 9.084c0-1.997.606-3.729 1.819-5.196 1.213-1.467 2.897-2.2 5.053-2.2 1.97 0 3.433.539 4.39 1.617.958 1.078 1.436 2.48 1.436 4.204zm-3.262-.127c0-2.156-.91-3.235-2.732-3.235-1.737 0-2.769 1.116-3.094 3.347z"/>
      <path d="m44.84.323-.306 2.616c-1.45 0-2.356.211-2.718.633v.183c.548.703.822 1.49.822 2.362 0 1.34-.49 2.485-1.47 3.431-.98.947-2.442 1.42-4.384 1.42-.948 0-1.724-.074-2.328-.224-.492.225-.739.52-.739.886 0 .572.296.972.886 1.202.59.23 1.963.345 4.118.345 3.727 0 5.59 1.28 5.59 3.839 0 1.8-.776 3.23-2.328 4.289-1.552 1.06-3.438 1.589-5.659 1.589-4.349 0-6.523-1.378-6.523-4.135 0-.853.244-1.577.732-2.172.487-.596 1.052-.959 1.693-1.09v-.211c-.78-.497-1.17-1.256-1.17-2.278 0-1.031.534-1.894 1.602-2.588v-.197C31.153 9.464 30.4 8.278 30.4 6.666c0-1.379.518-2.532 1.554-3.46 1.036-.928 2.637-1.392 4.802-1.392 1.478 0 2.676.281 3.596.844h.195C40.817.886 41.718 0 43.251 0c.604 0 1.134.108 1.59.323zm-5.617 6.16c0-.844-.27-1.486-.808-1.927a2.846 2.846 0 0 0-1.854-.66 2.82 2.82 0 0 0-1.833.64c-.525.426-.788 1.051-.788 1.876 0 .835.27 1.468.809 1.899a2.924 2.924 0 0 0 1.882.647 2.82 2.82 0 0 0 1.805-.626c.525-.417.787-1.034.787-1.85zm1.645 11.573c0-.694-.263-1.195-.788-1.504-.525-.31-1.428-.465-2.71-.465a35.61 35.61 0 0 1-3.15-.14c-.818.487-1.227 1.214-1.227 2.18 0 1.8 1.19 2.7 3.568 2.7 1.329 0 2.379-.254 3.15-.76.771-.506 1.157-1.176 1.157-2.01z"/>
    </g>
    <g transform="matrix(1.37114 0 0 1.37114 8 11.086)" style="fill:#494949;fill-rule:evenodd;stroke:none;stroke-width:1">
      <path d="m7.2 15.173.8-1.38 4 6.897H4l3.2-5.517L4 20.69l-4-6.897 4-6.896L8 0h8l-1.6 2.76L16 0l4 6.897H4l4 6.896Zm10.924 8.753L16 27.588l-4-6.898h8l-1.876 3.236L20 20.69l4 6.898h-8zM24 13.793l4-6.896 4 6.896ZM12 6.897l-4 6.896-4-6.896ZM16 0h8l4 6.897h-8Zm12 6.897-4 6.896-4-6.896ZM4 20.69h8l4 6.898H8Z"/>
      <path d="m20.232 13.793-2 3.449h-4l-2-3.449 2-3.448h4z"/>
    </g>
  </g>
</svg>
