<svg height="64" viewBox="0 0 64 64" width="64" xmlns="http://www.w3.org/2000/svg">
  <linearGradient id="a" gradientTransform="matrix(.1297 0 0 .19998 11.41 0)" gradientUnits="userSpaceOnUse" x1="167.517" x2="160.31" y1="24.393" y2="320.034">
    <stop offset="0" stop-color="#d9d8dc"/>
    <stop offset="1" stop-color="#fff" stop-opacity=".385"/>
  </linearGradient>
  <linearGradient id="b" gradientTransform="matrix(.1142 0 0 .22712 11.41 0)" gradientUnits="userSpaceOnUse" x1="199.036" x2="140.071" y1="21.413" y2="278.408">
    <stop offset="0" stop-color="#8d67af" stop-opacity=".672"/>
    <stop offset="1" stop-color="#9f8daf"/>
  </linearGradient>
  <linearGradient id="c" gradientTransform="matrix(.12267 0 0 .21146 11.41 0)" gradientUnits="userSpaceOnUse" x1="206.428" x2="206.428" y1="100.918" y2="294.312">
    <stop offset="0" stop-color="#26053d" stop-opacity=".762"/>
    <stop offset="1" stop-color="#b7b4b4" stop-opacity=".278"/>
  </linearGradient>
  <linearGradient id="d" gradientTransform="matrix(.18478 0 0 .14038 11.41 0)" gradientUnits="userSpaceOnUse" x1="23.483" x2="112.931" y1="171.718" y2="351.723">
    <stop offset="0" stop-color="#91739f" stop-opacity=".46"/>
    <stop offset="1" stop-color="#32054f" stop-opacity=".54"/>
  </linearGradient>
  <linearGradient id="e" gradientTransform="matrix(.14184 0 0 .18287 11.41 0)" gradientUnits="userSpaceOnUse" x1="226.781" x2="67.804" y1="317.252" y2="147.413">
    <stop offset="0" stop-color="#463d49" stop-opacity=".331"/>
    <stop offset="1" stop-color="#340a50" stop-opacity=".821"/>
  </linearGradient>
  <linearGradient id="f" gradientTransform="matrix(.10597 0 0 .24478 11.41 0)" gradientUnits="userSpaceOnUse" x1="248.016" x2="200.705" y1="88.755" y2="255.005">
    <stop offset="0" stop-color="#715383" stop-opacity=".145"/>
    <stop offset="1" stop-color="#f4f4f4" stop-opacity=".234"/>
  </linearGradient>
  <linearGradient id="g" gradientTransform="matrix(.09173 0 0 .28277 11.41 0)" gradientUnits="userSpaceOnUse" x1="307.564" x2="156.451" y1="109.963" y2="81.527">
    <stop offset="0" stop-color="#a5a1a8" stop-opacity=".356"/>
    <stop offset="1" stop-color="#370c50" stop-opacity=".582"/>
  </linearGradient>
  <g fill-rule="evenodd">
    <path d="M34.034.161c-4.65 1.648-9.139 6.459-13.466 14.431-6.49 11.96-14.874 28.954-3.33 42.41 5.34 6.224 14.158 9.898 25.73 4.08 9.297-4.675 11.883-18.09 8.545-24.393-6.885-13.003-13.87-16.21-15.74-24.274-1.247-5.376-1.827-9.46-1.74-12.254z" fill="url(#a)"/>
    <path d="M34.034 0c-4.674 1.665-9.162 6.476-13.466 14.431-6.455 11.934-14.874 28.954-3.33 42.41 5.34 6.224 14.045 8.235 18.875 4.544 3.149-2.407 5.29-4.701 6.524-9.535 1.374-5.382.32-12.629-.403-15.957-.914-4.213-1.213-8.836-.897-13.87a194.52 194.52 0 0 1-.25-.304c-2.514-3.078-4.454-5.758-5.314-9.465-1.247-5.376-1.827-9.46-1.74-12.254z" fill="url(#b)"/>
    <path d="M30.164 2.094c-4.353 3.44-7.59 9.21-9.71 17.31-3.18 12.151-3.524 23.356-2.402 29.874 2.174 12.634 13.446 17.43 25.007 11.55 7.115-3.62 10.079-11.388 9.922-19.82-.163-8.732-17.035-18.627-20.023-25.913-1.992-4.858-2.923-9.192-2.794-13.001z" fill="url(#c)"/>
    <path d="M41.2 24.874c5.22 6.695 6.358 11.356 3.413 13.982-4.416 3.939-15.217 6.509-21.936 1.744-4.48-3.177-6.175-9.991-5.085-20.444a93.87 93.87 0 0 0-4.69 11.736C11.624 35.854 11.25 40 11.782 44.33c1.602 3.24 5.495 5.403 11.68 6.491 9.28 1.632 18.06.825 23.953-2.145 3.929-1.98 5.787-3.952 5.575-5.914.141-2.898-.752-5.656-2.681-8.276-1.93-2.62-4.966-5.823-9.11-9.613z" fill="url(#d)"/>
    <path d="M20.8 18.189c-.044 4.835 1.199 9.431 3.729 13.79 3.795 6.536 8.225 12.994 14.854 18.348 4.42 3.57 7.951 4.722 10.594 3.46-2.17 3.885-4.48 5.789-6.925 5.711-3.669-.116-8.142-1.72-15.31-10.333-4.778-5.742-8.047-11.174-9.806-16.295.279-2.032.575-4.055.887-6.07.313-2.016.972-4.886 1.976-8.611z" fill="url(#e)"/>
    <path d="M32.011 24.824c.406 3.94 1.938 10.24 0 14.435s-10.89 11.773-8.42 18.45c2.472 6.675 8.494 5.177 12.272 2.1 3.778-3.077 5.8-8.08 6.248-11.598.448-3.518-1.072-10.287-1.567-16.176-.33-3.925-.106-7.29.671-10.097l-1.157-1.456-6.814-2.018c-1.092 1.615-1.503 3.735-1.233 6.36z" fill="url(#f)"/>
    <path d="M34.443 5.315c-2.205.932-4.294 2.778-6.268 5.539-2.96 4.141-4.468 6.624-3.352 14.833.744 5.473 1.277 10.508 1.598 15.105l9.543-27.727a94.747 94.747 0 0 1-.875-3.828 58.628 58.628 0 0 1-.646-3.922z" fill="url(#g)"/>
    <path d="M35.946 13.01c-2.423 1.414-4.3 4.31-5.632 8.69-1.331 4.38-2.55 10.503-3.655 18.37 1.474-5.004 2.452-8.627 2.933-10.872.722-3.366.969-8.127 2.887-11.359 1.278-2.155 2.434-3.764 3.467-4.83z" fill="#330a4c" fill-opacity=".316"/>
    <path d="M24.729 59.938c3.986.57 6.071 1.076 6.254 1.52.274.664-.505 1.272-2.718.863-1.475-.272-2.654-1.067-3.536-2.383z" fill="#fff"/>
    <path d="M26.732 5.315c-2.193 2.62-4.093 5.397-5.7 8.331s-2.757 5.125-3.446 6.569c-.214 1.077-.318 2.666-.313 4.767.005 2.102.187 4.439.545 7.01A56.379 56.379 0 0 1 20.7 17.328c1.608-4.74 3.618-8.745 6.032-12.013z" fill="#ededed" fill-opacity=".603"/>
  </g>
</svg>
