<svg xmlns="http://www.w3.org/2000/svg" class="gh-logo" width="120" height="60" aria-labelledby="gh-elsevier-logo-wordmark" version="1.1">
  <path d="M16.26 27.198c.47-.25.743-.553.788-.91.076-.319-.212-.288-.28-.228-.266.213-.607.54-.934.76a3.414 3.414 0 0 0-.455.06c-.038-.015-.083-.076-.06-.099.295-.19.622-.38.834-.63.137-.159.076-.303-.19-.333-.295-.046-.644.076-.917.318-.463.395-.683 1.267-.729 1.821-.098.091-.129.091-.227.137a2.306 2.306 0 0 1 .242-1.798c.046-.114.016-.296-.151-.35-.099-.037-.144-.014-.19.092-.228.652-.622.933-1.176 1.342-.053.046-.554.32-.683.395-.44-.137-.933-.956-1.35-1.57a.38.38 0 0 0-.364-.16c-.91.099-1.586.03-2.071-.682-.22-.296-.319-.35-.592-.091-.303.318-.607.56-.91.819-.16.098-.273.068-.342-.137a5.743 5.743 0 0 1-.303-1.911c0-.274.03-.683.038-.949a2.337 2.337 0 0 0-.577-.387c-.766-.364-1.653-1.213-1.661-1.464 0-.06.046-.212.258-.334 1.115-.493 1.98-.075 2.314-.129.28-.022.371-.227.326-.63a2.2 2.2 0 0 1 .713-1.972c.38-.402.349-.85.258-1.342-.046-.228-.099-.289-.326-.266-.607.137-.577.152-.69.683-.069.341-.19.69-.38.97-.243.388-.569.714-.857 1.055-.099.137-.213.137-.357.046a1.988 1.988 0 0 1-.781-2.511c.099-.266.243-.546.402-.69l.076.03c0 .045 0 .106-.015.152l-.182.56c-.228.66-.19 1.283.25 1.844.144.182.273.236.349.152.28-.28.569-.546.812-.85.303-.34.387-.758.303-1.19a7.556 7.556 0 0 0-.083-.494c-.046-.235-.144-.22-.258-.076-.273.274-.402.494-.531 1.002a.394.394 0 0 1-.13.182.531.531 0 0 1-.06-.266c.076-.455.182-.857.47-1.153.19-.205.145-.318-.038-.371-.652-.183-1.213-.365-1.706-.971A.546.546 0 0 1 4 14.34c0-.13.068-.228.212-.334.577-.395 1.154-.804 1.722-.926.228-.045.35-.06.463-.075-.258-.805-.53-1.768-.683-2.663 0-.182.13-.683.198-.827.129-.015.28-.015.508.068.266.091.508.258.751.41.235.136.303.136.455-.076.266-.387.57-.728.971-.933.137-.068.228-.114.319-.114.129 0 .227.076.356.273.22.357.41.766.607 1.138.228.387.47.41.82.16.387-.259.735-.509 1.092-.805.334-.258.425-.258.789-.007.326.227.683.644.857 1.009.038.068.797-.342.82-.524.03-.326.12-.561.242-.827.16-.326.387-.417.592-.417.19 0 .546.212.812.38l.576.333c.304.167.319.167.501-.114.205-.318.38-.379.804-.379.835 0 1.593.212 2.17.903.106.136.205.151.334.023.235-.243.455-.334.895-.334h.774c.174 0 .288.015.447-.213.213-.303.455-.599.797-.599.546 0 1.259.766 1.623 1.426l-.19.099a3.884 3.884 0 0 0-1.426-.895c-.334-.137-.478 0-.432.341.045.402.152.812.25 1.214.114.372.44.698.804.857l.023.137c-.06-.016-.136-.038-.227-.046a1.661 1.661 0 0 0-.714.023c-.455.114-.872.31-1.282.485-.204.099-.204.152-.03.319.228.212.44.455.698.645.736.554 1.464.44 2.276.129l.38-.13c.34-.06.705.077.985.335l.82.736c.258.25.318.47.151.78a31.243 31.243 0 0 1-.857 1.564.508.508 0 0 1-.19.197c-.098-.076-.19-.266-.09-.432.364-.456.591-1.093.667-1.525.076-.425-.152-.622-.554-.516l-.341.129c-.144.053-.197 0-.228-.152-.053-.129-.121-.212-.167-.349-.09-.228-.227-.303-.417-.152-.341.213-.584.425-.789.759a2.875 2.875 0 0 0-.318 1.768c.007.075.068.129.113.174a.326.326 0 0 0 .152-.152 3.73 3.73 0 0 0 .22-.819c.023-.16.046-.448.099-.592.038-.076.159-.045.227-.022.175.068.243.151.266.273-.342.432-.554 1.077-.782 1.653-.038.076-.182.175-.273.175-.106-.008-.25-.099-.28-.19-.137-.364-.38-.72-.478-1.085-.25-1.236-.327-1.304-.38-1.38a7.601 7.601 0 0 0-1.836-2.094c-.06-.06-.09-.129-.136-.182.068-.03.121-.091.19-.114.235-.099.478-.19.72-.273.304-.114.516-.303.653-.584.083-.16.197-.319.288-.478.129-.228.114-.35-.053-.546a1.176 1.176 0 0 0-1.199-.372c-.463.114-.75.448-.895.888-.06.151-.076.326-.076.493 0 .25.076.303.28.174.342-.28.722-.508 1.086-.75-.167.386-.41.69-.744.91-.227.144-.455.265-.682.394-.19.136-.258.076-.32-.152-.052-.243-.03-.493-.03-.736a1.608 1.608 0 0 0-1.077-1.616l-.599-.25a.577.577 0 0 0-.228.524c.046.66.145 1.138.258 1.699.107.227.357.319.615.364.152-.076.273-.288.068-.622l-.296-.584c-.03-.076-.068-.144-.09-.228-.008-.03-.024-.083 0-.121.037.015.075.015.15.09.38.41.684.873.88 1.45.077.227.009.318-.211.341-.501.046-1.01.076-1.495.182-.797.167-1.062.455-1.35.987-.122.227-.182.371-.19.508.28.023.6.007 1.055-.076a3.02 3.02 0 0 0 1.092-.357c.212-.25.38-.5.698-.728.09-.068.303-.09.387-.045a4.172 4.172 0 0 1 2.086 2.048c.03.09.121.182.167.258.09.106.053.144-.076.136-.182-.053-.38-.098-.546-.167-.068-.03-.122-.136-.152-.212l-.167-.47c-.09-.19-.136-.19-.326-.122-.099.038-.205.076-.364.152-.137.053-.205.076-.235-.076-.046-.227-.107-.455-.16-.66-.09-.25-.19-.303-.432-.182a2.285 2.285 0 0 0-1.017 1.04c-.212.44-.295.743-.098 1.911.045.228.227.508.44.577l1.972.607c.099 0 .16.113.038.19-.243.166-.508.31-.759.47-.128.075-.197.038-.257-.076a1.548 1.548 0 0 0-.812-.744c-.13-.06-.197-.038-.25.099-.092.212-.19.523-.274.743-.045.114-.098.16-.227.076-.562-.47-1.153-.493-1.844-.402-.341.046-.5.137-.417.478.19.948 1.017 1.388 1.722 1.692a.478.478 0 0 0 .243-.19c.106-.152.076-.303-.076-.44-.273-.235-.85-.508-1.138-.766-.045-.152.28-.288.455-.175.516.236.91.66 1.32 1.063.213.204.311.182.38-.114.075-.228.151-.577.22-.835.038-.136.121-.09.151-.007.053.197.114.455.114.682 0 .243-.083.456-.152.683-.045.228-.22.35-.41.304-.872-.084-1.532.326-2.07.341-.122 0-.38-.076-.509-.137-.19-.151.091-.166.152-.166.228 0 .57 0 .751-.099a1.092 1.092 0 0 0-.235-.22c-.485-.395-1.032.023-1.449.235-.235.13-.25.16-.152.41.152.38.425.523.797.523.212 0 .417.03.637.023a.759.759 0 0 0 .304-.076c.28-.106.53-.243.789-.356.318-.046.31.113.166.273l-.644.394c-.069.038-.145.06-.19.106-.091.069-.205.182-.19.228a.48.48 0 0 0 .243.212c.304.091.607.137.895.205.47.091.668-.038.797-.5.068-.258.152-.501.273-.736.076-.152.167-.167.258-.015.318.591.652 1.168.994 1.744.06.13 0 .19-.122.175a43.523 43.523 0 0 1-2.2-.273c-.25-.038-.493-.198-.743-.304-.38-.174-.759-.334-1.191-.318-.372.007-.584.227-.455.584.166.508.356 1.032.561 1.54.144.349.485.478.857.508.175.023.114-.099.068-.182l-.606-1.312c-.076-.22-.016-.25.106-.069.334.501.683.979.986 1.487.182.319-.046.41-.273.417-.766-.075-1.464-.34-2.2-.622-.076-.03-.182-.19-.16-.258.137-.129.304 0 .456 0 .174.03.25-.045.182-.182a.698.698 0 0 0-.372-.341 4.529 4.529 0 0 0-1.092-.394c-.228-.046-.38.053-.334.257.06.266.182.501.319.774a.379.379 0 0 1 .015.258c-.137-.007-.304.038-.873-.205-.569-.235-.576-.394-.576-1.092 0-.152 0-.448.03-.584.06-.19.076-.228.25-.197.592.12 1.191.28 1.776.56.174.077.341.229.523.297.152.053.228 0 .205-.152a.531.531 0 0 0-.334-.455c-.622-.266-1.244-.561-1.866-.812-.152-.06-.205-.129-.122-.288.25-.41.38-.888.274-1.404 0-.037.045-.09.09-.136a.38.38 0 0 1 .281.349c.046.44.342.743.63 1.04.584.606.584.606 1.403.409.107-.015.182-.091.274-.152-.076-.06-.152-.167-.258-.212-.152-.076-.319-.122-.486-.19-.546-.205-.705-.592-.523-1.168a19.724 19.724 0 0 0 .508-1.586c.06-.25.076-.516.09-.781 0-.152.115-.152.206-.167l1.19-.076c.304-.023.646-.38.767-.584l.394-.645a.827.827 0 0 0-.811-.121c.09-.296.212-.577.212-.858 0-.182-.045-.402-.121-.591-.076-.182-.205-.213-.357-.099-.288.243-.53.531-.622.926-.09.394-.258 1.115-.174 1.244.182-.137.425-.319.584-.364a.35.35 0 0 1 .273.045c-.266.25-.584.455-.88.607-.22.099-.304-.03-.266-.243.258-.986.099-1.062.016-1.547a5.69 5.69 0 0 0-.736-1.7c-.106-.136-.273-.09-.501.182-.364.44-.455.812-.645 1.57l-.045.153-.258.227-.114-.129c.099-.349.205-.554.205-.834 0-.342-.152-.584-.38-.774-.28.182-.538.41-.606.53a.751.751 0 0 0 .015.866c.288.508.243 1.016.151 1.616l-.075-.023a6.737 6.737 0 0 0-.213-1.153c-.06-.243-.22-.448-.349-.66-.129-.19-.243-.6-.136-.766.151-.266.63-.403.811-.645.19-.289.099-.41.342-.668.144-.174.455-.53.683-.41.682.342 1.41.418 2.177.32.326-.046.394-.039.485-.365.076-.273.114-.091.387-.182.463-.152.706-.57.706-1.062 0-.273.015-.554-.015-.835-.023-.242-.114-.478-.19-.698-.06-.144-.16-.113-.228-.007-.19.25-.508.743-.682 1.016-.1.16-.183.319-.266.486-.045.129-.106.16-.22.038a2.473 2.473 0 0 0-.402-.35c-.25-.159-.273-.66-.175-.978.107.06.183.182.25.342.092.212.137.455.304.53.22.114.44-.34.41-.652a.494.494 0 0 0-.076-.227c-.243-.433-.796-.782-1.138-.782-.394 0-.645.486-.485.948.045.122.09.213.151.327-.933.493-1.183.804-1.555 1.236-.045.053-.09.205-.045.28.174.335.106.449-.25.646-.16.09-.38.174-.547.227-.023.016-.068-.022-.114-.03a.228.228 0 0 1 .046-.091c.227-.508.478-.994.69-1.51.228-.553-.273-1.07-.72-1.244-.296-.114-.532-.045-.729.22-.493.592-.6 1.555.091 2.466.106.151.076.212-.098.227-.395.03-.79.076-1.199.099a1.593 1.593 0 0 0-1.214.645c-.09.136-.212.167-.341.076-.311-.19-.577-.145-.903.045-.531.28-1.153.5-1.494.5-.054 0-.122-.045-.167-.09a.339.339 0 0 1 .19-.152c.326-.076.591-.16.88-.243.052-.053.075-.182.106-.235-.054-.076-.167-.174-.25-.182a4.006 4.006 0 0 0-.828 0c-.72.068-1.251.402-1.707.827-.212.212-.227.432 0 .607.531.38 1.1.758 1.821.569.5-.16.812-.531 1.138-.895.273-.289.607-.63.926-.266.462.531.553 1.085 1.312.986.288-.03.41-.129.485-.402l.061-.326c.023-.212-.09-.319-.296-.235-.136.045-.258.121-.394.152-.076.022-.16-.008-.25-.03.007-.077.022-.183.075-.228.137-.091.304-.167.456-.235a27.662 27.662 0 0 1 1.668-.38.486.486 0 0 1 .175 0l-.053.16c-.205.47-.478.614-.85.705a.878.878 0 0 0-.205.364c-.235.759-.098 1.548.41 2.094.182.205.41.372.645.516.394.227.5.607.645 1.009.09.25.19.5.303.75-.318.228-.584.494-.766.82-.076.076-.137.046-.182-.045l-.22-.539c-.197-.478-.531-.781-1.062-.827-.19-.015-.38-.045-.562-.068-.22-.023-.364.076-.44.326-.295.91-.015 1.7.858 2.185-.698.174-1.275.455-1.631.94.038.137.25.32.523.433.683.28 1.38.25 2.026.03.379-.136.394-.045.462.228l.19.85c.046.204-.068.318-.258.25-1.04-.303-2.276-.804-3.171-1.403a4.703 4.703 0 0 0-1.176-.35c-.136.076-.25.175-.372.152a6.653 6.653 0 0 1-1.122-.394c-.182-.106-.19-.16.038-.19.349 0 .986.152 1.312.152.319-.099.319-.152.121-.288-.766-.607-1.63-.463-2.488-.319-.303.06-.326.205-.152.448 1.108 1.251 1.927 1.244 3.278 1.084.88.562 1.76 1.062 2.784 1.389l.023.151a14.95 14.95 0 0 0-2.094.304c-.334.068-.402.273-.22.576.273.44.705.645 1.198.767.357.106.713.075 1.062-.069.41-.19.676-.53 1.063-.743.227-.121.606.015.834.076.349.114.683.265 1.04.318 1.41.19 2.912.319 4.225.213-.16.303-.273.592-.38.887-.068.182-.007.228.183.213.273-.008.546-.167.66-.38.022-.212.022-.402.068-.614.023-.114.053-.273.129-.288.053-.008.38.045.341.136-.114.334-.212.584-.349.91.122.023.25.046.38.046.53 0 .614-.076.591-.607a2.2 2.2 0 0 0-.068-.447c-.068-.395.015-.668.357-.85.333-.167.682-.114 1.016-.076a6.22 6.22 0 0 1 2.875 1.297c.418.334.053.797.053 1.427 0 .394-.075.804-.068 1.009.015.326.152.5.273.591.364.281.766.562 1.153.812.395.258.592.417 1.062.577.107.03.243.03.334.022a1.214 1.214 0 0 0-.023-.485c-.227-.152-.546-.228-.91-.35-.068-.022-.136-.113-.174-.196a.683.683 0 0 1 .265-.152l.592-.13a.348.348 0 0 0 .152-.128c-.03-.053-.076-.121-.122-.129-.243-.076-.561-.129-.766-.182-.076-.023-.114-.091-.175-.16a.743.743 0 0 1 .289-.151l.607-.076a.319.319 0 0 0 .159-.099c-.023-.06-.053-.136-.099-.159-.129-.06-.75-.288-.819-.356-.053-.054-.068-.13-.091-.228.091-.038.205-.076.288-.06l.509.007a.326.326 0 0 0 .204-.099.455.455 0 0 0-.136-.16c-.243-.15-.334-.257-.607-.378-.129-.076-.19-.152-.212-.311a.844.844 0 0 1 .34-.016c.183.046.282.107.479.137a.523.523 0 0 0 .212-.023.212.212 0 0 0-.053-.152c-.076-.075-.174-.113-.265-.182-.137-.09-.372-.318-.509-.432-.045-.038-.022-.152-.03-.19l.152.008c.182.038.455.114.607.136.273.054.235.016.121-.182-.167-.151-.341-.25-.5-.424-.046-.061-.031-.16-.023-.243.257.015.523.136.758.136a.262.262 0 0 0 .038-.136 3.869 3.869 0 0 0-.19-.455c-.068-.175.023-.243.152-.19.182.076.47.228.668.273.076.023.174 0 .273-.038-.091-.182-.197-.326-.319-.508-.023-.046 0-.114.038-.167.311.091.63.303.91.38.13.052.213 0 .243-.061.023-.076-.205-.304-.19-.395.008-.06.023-.076.054-.114l.53.167c.388.099.608.137.668.046.076-.023-.007-.205-.121-.417.303-.023.341.12.88.227.205.053 3.05-.349 4.203-.705.455-.152.986-.38 1.41-.577l.137.03c.327.835 1.017 1.093 1.722 1.169.205.022.425.038.645.045.205 0 .25-.053.19-.258a3.641 3.641 0 0 0-1.055-1.79l-.455-.28c-.197-.206-.174-.44.038-.608.364-.242.85-.478 1.214-.705.531-.342.713-.865.683-1.419a.47.47 0 0 0-.198-.372.592.592 0 0 0-.273.19c-.144.303-.288.554-.417.82-.099.052-.205.075-.296.113-.023-.09-.076-.182-.053-.273.16-.47.577-.85.85-1.153.114-.19-.053-.266-.137-.25-.303.068-.637.182-.865.44a6.114 6.115 0 0 0-1.198 2.48c-.053.235-.152.319-.228.539-.098.334-.09.41.197.614.418.274.964.524 1.358.805.16.174.076.242-.09.235a1.57 1.57 0 0 1-1.139-.509c-.151-.166-.28-.273-.455-.295-.41.106-.978.273-1.403.333-.243.046-.433.145-.562.372-.083.19-.258.228-.455.152-.303-.084-.607-.19-.91-.258a3.414 3.414 0 0 0-1.517.106c-.205.03-.25-.015-.19-.212.053-.25.137-.493.182-.736.008-.106.023-.266-.076-.319-.098.046-.243.068-.288.137-.16.235-.28.485-.432.743-.1.205-.137.205-.35.114a3.869 3.869 0 0 1-.857-.523c-.205-.327-.425-.6-.53-.88-.039-.076.075-.137.174-.137.227.182.5.41.705.607.137.152.182.303.273.5.023.046.243.039.281-.045.03-.076.068-.19.099-.349.076-.303.022-.72-.25-.994-.334-.341-.562-.41-1.025-.728-.576-.394-.66-.372-.872.015a2.26 2.26 0 0 0-.28 1.062c.15.926.37 1.305 1.494 1.882a.311.311 0 0 1-.091.151c-.076.061-.114.099-.243.099-.395-.015-.948-.023-1.38-.06-.122-.008-.198-.046-.228-.114a5.69 5.69 0 0 1 .5-4.097.683.683 0 0 1 .273-.296c.235-.121.607-.28.835-.38.136-.06.205-.014.265.122.099.364.137.622.167.933.015.19.023.38.099.418.182.075.341-.076.432-.228a2.018 2.018 0 0 0 .182-1.844c-.022-.06.03-.182.099-.22.774-.31 1.494-.63 2.276-.933.44-.022 1.001.023 1.783.152.129.015.402.243.682.402-.356.182-.88.562-1.244.91-.098.107-.227.243-.136.532.303-.016.455-.1.682-.167.35-.099.57-.152.85-.152a1.517 1.517 0 0 1 .228.03.417.417 0 0 1-.107.235c-.098.091-.258.076-.371.137-.114.076-.228.19-.152.326.053.091.205.197.311.182a4.576 4.576 0 0 0 1.077-.182c.167-.136.804-.97.44-1.047-.205-.045-.645-.076-.834-.174a.38.38 0 0 1 .227-.258c.198.03.425.09.729.121a4.476 4.476 0 0 0 1.494-.068c.205-.076.273-.152.205-.28a2.352 2.352 0 0 0-1.388-1.215c-.273-.075-.607-.015-.888-.015l-2.443-.022c-.053 0-.113-.046-.167-.076.046-.038.091-.084.137-.107.228-.136.493-.25.72-.41.35-.234.57-.576.668-1.008a.417.417 0 0 0 0-.235c-.227-.835-.683-1.442-1.63-1.548l-.471-.076c-.175-.015-.243.06-.243.22 0 .296.015.455 0 .759 0 .152.076.205.25.227a5.841 5.841 0 0 1 1.29.372c.25.099.304.25 0 .508l-.683.486c-.121.076-.174.015-.19-.099-.014-.182-.014-.379-.045-.553a.38.38 0 0 0-.098-.175.5.5 0 0 0-.365.303c-.09.243-.151.47-.19.706a.743.743 0 0 1-.523.607c-.136.038-.258-.015-.235-.144a3.19 3.19 0 0 1 .099-.455c.22-.531.334-.987.288-1.487a10.697 10.697 0 0 1-.076-1.047.312.312 0 0 1 .228-.334c.41-.16.796-.319 1.229-.455.144-.053.265.007.379.152l.865 1.016c.227.243.288.235.485-.038.182-.258.38-.493.668-.652.152-.076.152-.22-.023-.289-.326-.12-.652-.19-.994-.303-.075-.023-.159-.023-.242-.053-.053-.023-.122-.091-.122-.137 0-.045.069-.113.122-.136.622-.22 1.138-.425 1.691-.637.152-.069.228-.19.205-.35-.015-.204-.076-.379-.106-.576-.03-.182-.152-.319-.341-.341-.759-.076-1.214.136-1.73.667a.47.47 0 0 0-.121.418.482.482 0 0 0 .235-.008c.364-.106.607-.213.811-.341.137-.152.243-.304.32-.304.045 0 .128.19.15.258-.075.091-.15.182-.75.44a17.32 17.32 0 0 1-3.323 1.146c-.152.015-.144-.084-.106-.152.212-.372.455-.759.69-1.153.228-.137.288-.076.205.136-.068.16-.152.304-.25.47-.023.152.045.19.136.175a1.274 1.274 0 0 0 .94-1.13c0-.19-.09-.258-.287-.25-.289.022-.607.045-.888.128-.531.137-.85.509-1.024.994a5.382 5.382 0 0 0-.167.69c-.046.25-.258.342-.478.463-.372.228-.561.182-.88.243a5.234 5.235 0 0 0-.796.182c0-.09-.023-.174 0-.227.182-.289.34-.57.53-.835.266-.387.198-.607-.227-.759a1.578 1.578 0 0 0-1.82.638c-.228.364-.395.796-.555 1.19-.098.236 0 .38.25.433.388.068.85-.076 1.2-.174-.023.113-.03.553-.069.644l-.227.494c-.145.242-.304.326-.57.197a11.986 11.986 0 0 1-1.19-.645c-.456-.266-.896-.455-1.404-.455a.683.683 0 0 1-.152-.015c-.166-.038-.174-.091-.075-.198.129-.129.136-.258.06-.417l-.523-.97a2.655 2.655 0 0 1-.25-.57c.128-.023.606.137.606.228.038.53.198.91.478 1.244.213.212.41.076.433-.137.038-.28-.342-.736.151-1.782.213-.47.865-1.275 1.29-1.275.228 0 .417.099.554.432.076.152.129.516.197.668.06.152.137.228.304.212.41-.053.978-.303 1.44-.364.297-.045.524.69.669.956.227.395.333.736.591.311.44-.607.645-1.29 1.115-1.502a3.285 3.285 0 0 1 1.912-.326c.205.023.266.099.22.303-.038.122-.045.25-.076.38-.045.144.084.197.243.076.22-.13.38-.304.531-.501.395-.425.789-.637 1.563-.637.364 0 .645.075.97.19.251.09.29.128.22.379l-.22.728c-.075.334-.022.38.274.546.258.152.463.258.622.455a.531.531 0 0 0 .326-.114 3.922 3.922 0 0 1 1.404-1.585c.242-.137.303-.121.402.114.205.516.318.963.356 1.449.273-.319.592-.66.82-.91.819-.774 1.63-.767 2.73-.494.274.076.061.35-.098.562l-.212.318c-.069.114-.122.122-.213.023-.136-.16-.273-.44-.41-.577-.25-.25-.69-.106-.993.076a4.074 4.074 0 0 0-1.472 1.51 7.966 7.966 0 0 1-1.29 1.525c-.197.076-.197.068-.151-.137a5.424 5.424 0 0 0 .895-2.814.675.675 0 0 0-.524.114c-.758.424-1.138 1.934-1.244 2.943-.023.212-.023.38-.212.486-.319.182-.44.257-.759.402-.076.015-.121 0-.19-.008.152-.668.046-1.138-.34-1.768-.07-.121-.153-.182-.297-.136-.076.045-.151.106-.326.243a2.86 2.86 0 0 0-.895 2.192c0 .152.152.152.258.076a1.14 1.14 0 0 0 .288-.35c.19-.318.35-.651.531-.97.03-.076.122-.13.19-.152.038.076.038.16.023.228l-.137.607a1.897 1.897 0 0 1-.607.834c-.053.076-.09.213.06.228.653.03 1.033-.046 1.594-.342.592-.303.986-.553 1.244-.523.175.023 1.062.28 1.138.341-.046.091-.114.122-.167.182-.09.076-.523.311-.713.47-.303.251-.41.365-.349.873.03.228.068.44.121.66.023.068.076.167.122.182.076 0 .152-.06.197-.114.25-.303.486-.637.736-.94a.577.577 0 0 1 .152-.091c0 .06.015.113 0 .151-.053.372-.243.653-.47.926l-.152.19c-.198.28-.213.326-.016.606.228.334.266.706.19 1.063-.053.265-.137.66-.19 1.046-.478.22-.963.532-1.365.805-.258.227-.304.41-.304.462.122.152.236.175.47.273.335.107.957-.022 1.07-.379.038-.083.076-.243.076-.387.122.023.228.023.258.122.122.379.228.637.47.887-.03.099-.075.175-.182.334-.144.235-.265.44-.47.395-.076-.008-.16-.03-.25-.03-.152 0-.304 0-.28.272.03.35.075.509 0 .865-.046.197-.107.41-.304.402-.478-.038-.79-.387-1.252-.38-.395.016-.668-.052-.872-.15-.243-.13-.418-.266-.532-.335-1.919.319-4.035.706-5.682 1.062-.174.038-.166.152-.197.334-.09.417-.25.827-.318 1.244-.016.069.075.152.12.213.046-.046.115-.076.16-.137.099-.144.167-.31.28-.455.198-.212.714.015.805.304.076.174-.167.257-.152.455.016.167.258.318.258.53 0 .19-.076.312-.106.41.713.456.888.835.91 1.427.023.182.023.273.122.379.098.099.258.243.326.334.334.387.637 1.001.865 1.062.114.038.402.06.622.038l.045.121c-.075.175-.273.387-.455.448-.523.167-.781-.615-1.062-1.062a3.793 3.793 0 0 0-.44-.585c-.227.25-.607 1.26-.576 1.738.151.645.53 1.282.781 1.745.174.288.516.386.85.515.28.1.485.152.773.069.152-.038.205-.046.274-.099l-.008-.584c.076-1.062.243-2.124.311-3.035 0-.242.182-.652.493-.864.326-.228.455-.531.44-.918a.72.72 0 0 1 .076-.38c.106-.212-.099-.212-.303-.242-.228-.038-.281-.122-.167-.327.212-.356.515-.66.758-1.001a2.83 2.83 0 0 0 .28-.561c-.06-.296-.037-.736.259-.751.963-.114 1.365-.03 1.98.432.038.06.045.152.045.228 0 .075.175.136.501.462.25.236.493.896.068 1.912.213.129.205.326.182.554-.015.197.046.227.228.296.228.076.349.212.539.683.166.455.66 1.646.948 4.566-.053.918-.213 1.594-.395 2.345.198 1.403.418 3.125.592 5.484.144 2.23.182 3.376.228 4.294.394.03.516.114.599-.22l.076-.31c.076-.22.296-.145.303-.023l.243.713c.053.204.114.333.19.53.265.365.379.046.379-.22.03-.227.03-.417.03-.621.046-.266.182-.281.281-.099l.349.827c.129.288.266.364.319.19.045-.236.053-.653.045-.987-.053-.19-.136-.394-.167-.561 0-.228.182-.182.228-.114a26.476 26.476 0 0 1 1.236 1.616c.228.137.365-.099.304-.19-.015-.09-.13-.204-.13-.387.031-.288.304-.159.365-.053.25.25.417.577.561.842a.531.531 0 0 0 .228.114.437.437 0 0 0 .068-.265c-.015-.091-.121-.304-.151-.402.106-.175.318.045.386.113.076.076.152.205.25.365.137.212.365.394.866.462.007.046.03.107.03.152-.068.046-.182.099-.486.152-.523.106-1.175.121-1.896.038a2.2 2.2 0 0 0-1.396.303c-.303.175-.607.152-.963.137-.683-.03-1.366-.03-2.064-.046-1.441-.038-2.162.25-3.793.334-.531 0-1.639-.273-1.639-.614 0-.236.137-.433.137-.554 0-.152-.03-.19-.167-.228-1.16-.205-2.306.06-3.36.258-.896.137-1.366-.008-1.836-.38a2.374 2.375 0 0 1-.653-.69 9.27 9.27 0 0 0-1.813-1.722c-.759-.607-1.722-1.707-2.321-2.465-.137-.16-.372-.933-.456-1.153a2.321 2.321 0 0 1-.106-1.002c.091-.076.205-.167.289-.174.508-.015 1.137-.258 1.16-.41.053-.114-.03-.212-.129-.182a2.92 2.92 0 0 1-.895 0c-.152-.023-.334-.091-.402-.167.091-.114.152-.197.25-.25a2.663 2.663 0 0 0 1.184-.455.288.288 0 0 0-.03-.152c-.334-.015-.592-.015-.964-.106a.857.857 0 0 1-.364-.213.59.59 0 0 1 .273-.227 2.647 2.647 0 0 0 1.024-.607l-.007-.167a5.794 5.794 0 0 1-1.154-.121c-.174-.092-.19-.107.008-.32.273-.067.774-.113 1.047-.204.205-.106.167-.28-.038-.341a6.22 6.22 0 0 1-.986-.107c-.205-.182-.228-.197.038-.318l.872-.182c.334-.114.28-.326 0-.41-.265-.03-.447-.09-.713-.136-.349-.175-.341-.19-.06-.304l.553-.152c.152-.038.304-.098.334-.212a.167.167 0 0 0-.015-.114c-.235-.068-.713-.023-.926-.09-.076-.016-.152-.1-.197-.198l.205-.114c.258-.06.546-.174.75-.288a.66.66 0 0 0 .084-.19.493.493 0 0 0-.151-.076 6.471 6.471 0 0 1-.706-.242c-.152-.19-.144-.228.06-.311l.395-.107a2.526 2.526 0 0 0-.197-.394.394.394 0 0 0-.137-.137c-.227-.136-.553-.273-.796-.432-.455-.28-.933-.554-1.29-.91a2.959 2.959 0 0 1-.956-1.563 3.273 3.273 0 0 1-.007-1.153c.045-.289.205-.592.356-.865.061-.099.107-.19.046-.273a5.978 5.978 0 0 0-.706-.759 1.199 1.199 0 0 0-.447-.228c-.903-.159-1.457-.34-1.866-.288a1.441 1.441 0 0 0-.35.524c.076.303.228.773.236 1.16.334.038.728.152 1.138.38.326.212.402.326.53.728.281.91.357 2.071.554 3.315.175 1.184-.447 2.162-1.646 2.208-.652.03-1.183-.099-1.358-.539-.212-.622-.371-1.145-.576-1.767-.85.212-1.745.5-2.655.94-.797.38-1.45.744-2.291 1.085-1.601.66-3.369 1.062-4.954 1.062-.835 0-1.768-.167-2.413-.425-.576-.227-.781-.462-.91-1.19a6.911 6.911 0 0 1-.03-1.867c.076-.607.174-1.032.591-2.17.182-.5.418-.736.805-.933a4.248 4.248 0 0 1 2.093-.417c.25.015.577.053.804.152.456.167.524.53.54.986 0 .265.014.531-.008.796-.023.213-.016.296-.016.38.577.083 1.783.053 2.352-.076.47-.099.66-.175 1.517-.577.592-.265 1.396-.864 2.33-1.35zm18.16 10.143c.054.114.183.683.183.88 0 .463-.038.888-.091 1.609-.076.94.022 1.896-.106 2.822-.054.455-.167 1.16-.13 1.782.008.25.046.32.19.35.455.106.759.151.986.151.698 0 1.154-.318 1.093-.705a9.483 9.483 0 0 1-.326-2.61l.182-.015c.258 1.062.478 1.585.553 2.14.092.5 0 1.357.1 1.797 1.167.129 2.563.015 2.988-.076.106-.956.076-1.934-.341-2.298a11.81 11.81 0 0 0-.926-.706 5.227 5.227 0 0 1-1.244-1.38c-.5-.79-.637-1.04-1.077-1.806-.41-.713-.683-1.328-.964-1.745a3.088 3.088 0 0 0-.402-.531c-.364-.114-.667-.152-1.062-.197-.493-.053-.82-.107-1.1-.418-.243-.242-.341-.44-.197-.766.076-.174-.023-.296-.152-.44-.144-.182-.106-.38.076-.516.433-.424.835-.637 1.404-.789l-.091-.394c-.228.03-.478.098-.934.098-.63 0-1.198-.257-1.426-1.084-.083-.296-.455-1.13-.561-1.502-.076-.228.007-.509.114-.835-.198-.243-.365-.516-.531-.743-.342-.145-.751-.289-1.025-.622-.113-.137-.166-.145-.265-.076-.091.068-.114.167-.243.28-.121.107-.372.114-.607.016-.227-.091-.341-.327-.334-.554.023-.304.175-.57.038-.69-.235-.25-.455-.532-.174-.729.076-.068.25-.053.356-.106a.759.759 0 0 0 .365-.85c-.061-.25-.198-.364-.448-.387-.357-.022-.516-.204-.516-.44 0-.303.266-.432.508-.379a.772.772 0 0 1 .32.152c.022.114.075.273.166.258.41-.046.728-.47.728-.873 0-.136-.09-.205-.356-.144-.486.076-1.093.258-1.692.463-.334.114-.38.38-.197.683.06.068.106.151.151.227.076.122.046.213-.075.28l-.152.115c-.182.136-.205.288-.091.493.03.076.076.129.136.182.137.121.137.228.008.38a.577.577 0 0 0-.121.614c.053.174.19 1.16.19 1.35-.008.508.09 1.017.06 1.495-.023.349.152.652.485 1.031.365.402.63.767 1.123 1.244.584.554.903 1.214.956 2.026.023.38.205.516.569.713.766.213 1.032.645 1.123 1.23.152 1.038-.357 2.047-1.29 1.956-.478-.045-.713-.333-.713-.584 0-.265.137-.53.357-.607.038-.015.174 0 .204 0a.455.455 0 0 1 .023.167c0 .068-.09.106-.121.243-.023.091-.023.273.068.387.099.129.273.174.455.114.213-.069.357-.25.455-.44.433-.782.213-1.707-.614-1.912-.266-.076-.645-.114-.888.03-.516.319-.956.5-1.388.895a.334.334 0 0 0-.106.25 42.43 42.43 0 0 0 .364 5.16c0 .371.273.834.38.895.303-.22.379-.44.644-.858.13-.075.19-.03.228.084-.008.387-.084.758-.038 1.092.023.099.136.19.212.258.182-.167.19-.417.266-.607.205-.212.25.023.258.084-.016.25 0 .478.022.607.008.098.099.121.182.144.22-.44.501-.835.858-1.077.212-.152.349-.023.227.19a5.379 5.379 0 0 0-.485 1.281.759.759 0 0 0 .212-.023c.046-.015.114-.03.137-.151.151-.38.235-.425.41-.152.075.258.19.44.34.516.228-.06.244-.334.335-.531.242.015.258.28.379.41.083.068.774.09.903.075l-.023-.402c-.015-.804 0-1.449.053-2.245.06-.835.152-1.692.197-2.428.03-.607.106-1.532.152-2.253zm11.365-15.506c-.182-.03-.94-.076-1.146-.076-.167 0-.622 0-.637.235 0 .069.091.19.197.258.554.38 2.102.448 2.731.342.016-.152 0-.327-.053-.463-.151-.463-.72-.873-1.244-1.04a4.286 4.286 0 0 0-1.684-.06l-.106-.28c.182-.82.16-1.579.045-2.178-.068-.334-.151-.493-.334-.759-.106-.152-.227-.144-.364-.03a2.345 2.345 0 0 0-.341.38c-.523.636-.5 1.061-.41 2.017.061.046.13.091.304.091.167 0 .243-.076.265-.303.015-.319.091-.653.137-.949.076.023.212.114.227.167.03.493-.129 1.01-.25 1.472.03.053.395.212.341.364-.045.114-.606.258-1 .288a2.003 2.003 0 0 0-.934-.766c-.228-.09-.478-.167-.288-.318l.303-.122c.531-.22.357-.523.334-1.04-.023-.196-.099-.25-.28-.242-.266.015-.44.038-.66.152-.395.243-.699.645-.987.971-.053.053-.167.03-.258.03.152-.478.35-1.001.5-1.426.054-.152.122-.303.29-.265.818.19 1.653.03 2.23-.547.242-.258.242-.379-.069-.599a1.927 1.927 0 0 0-1.745-.38c-.25.1-.417.243-.455.501-.023.152.736-.06 1.002-.038.075.008.128.076.182.114-.486.213-1.047.319-1.518.455-.151.038-.212 0-.235-.151a.66.66 0 0 1 .235-.668c.357-.303.638-.66.713-1.138.046-.258-.166-.645-.28-.865-.015-.06.015-.106.023-.151a3.3 3.3 0 0 1 .963.455 2.147 2.147 0 0 0 1.494 1.654c.266.09.54.19.827.273.258.076.456.007.44-.273l-.015-.38c.228-.098.486-.174.546-.167.433.061.873.274 1.32.418.304.151.152.258-.06.227-.334-.053-.66-.151-.979-.227-.205-.046-.372.045-.402.242.137.243.759.531.986.622.334.122 1.593.266 1.578-.075a4.446 4.446 0 0 0-.152-1.002c-.075-.28-.318-.44-.584-.508a6.828 6.828 0 0 0-1.684-.197c-.136 0-.38.076-.607.197l-.068-.372c-.121-.508-.364-.63-.743-.758.022-.152.022-.25.022-.41.334-.19.744-.508.903-.774-.137-.129-.38-.197-.508-.243-.516-.182-.57-.379-.918-.53a2.276 2.276 0 0 0-.82-.205c-.257-.008-.606.06-.682.159-.038.068 0 .174.151.28.228.175.706.304.941.47.152.084.076.122-.023.137a2.344 2.344 0 0 1-.925-.265c-.175-.091-.228-.167-.357-.213-.227-.075-.265-.015-.417.25-.114.19.023.29.182.38.546.304.948.478 1.639.554.076.076.09.205.114.357-.683-.092-.91-.1-1.336-.25-.675-.365-1.213-.653-1.866-.866-.121-.053-.167-.129-.03-.212.683-.41 1.335-.91 2.025-1.29.099-.053.258-.03.38-.007.333.06.447.167.781.265.197.076.387.13.425-.053.099-.5.258-.872.402-1.085.303-.463.736-.705 1.305-1.062.212-.72.91-1.456 1.16-1.456.683 0 1.366 1.236 1.503 1.699.09.334-.456.622-.091.622.318 0 .614.053.614.326 0 .478-.137.964-.38 1.313-.257.349-.53.728-.88.963l.023.121c.592.44 1.237.76 1.237 1.427 0 .356-.099.607-.303.781-.16.137-.289.273-.274.478.023.463.054.72.023 1.176-.023.303-.948.364-1.077.5a3.793 3.793 0 0 1-.258 2.307l.19.349c.94.66 1.062 1.26 1.198 1.775-.258.25-.682.463-.834.463-.607 0-1.95-.455-2.215-.493-.107.19-.046.364.09.743.122.341.35.577.35.895 0 .152-.023.395-.456.463a3.05 3.05 0 0 1-2.025-.554c-.121-.068-.228-.152-.349-.205-.205-.113-.463-.03-.531.205l-.137.455c-.075.25-.204.273-.546.205-.963-.205-1.41-1.244-1.41-2.162.045-.19.196-.114.227-.023.06.448.258.88.402 1.245.182.348.41.538.789.584.076 0 .182-.144.273-.304.205-.432.394-.72.334-1.229-.023-.174-.076-.425-.205-.584-.06-.076-.16-.129-.273-.228.053-.083.136-.174.205-.151.424.151.743.151 1.009.007.166-.09.242-.204.356-.349.364-.09.964-.227 1.464-.295.683 0 1.29.09 1.798.318zM19.817 38.479c.364 0 .804.182.797.577l-.076.197a.205.205 0 0 1-.091-.023c-.137-.296-.357-.463-.713-.394a1.53 1.53 0 0 0-.835.47c-.144.152.152.243.334.342l.38.227c0 .197-.516 1.639-.259 1.684.653.114 1.518-.781 1.609-2.048-.023-.455.235-.683.736-.85.591-.227.872-.493.773-1.138-.045-.318.137-.227.311-.493l.198-.212c.03.09.098.303.076.394-.137.524-.03.933.227 1.404l.486 1.26c.113.12.22.022.333.15.418.843.888 2.102 1.525 2.64.524.433 1.078 1.192 1.57 1.647.289.258.486.903.85 1.024.258.091.25.228.213.463-.046.288.076.341.182.341.174-.022.341-.068.523-.076.395.084.304.35.015.395-.197.023-.387-.015-.584-.015a1.09 1.09 0 0 0-.205.076.414.414 0 0 0 .107.197c.318.174.546.197.857.265.06 0 .106.046.174.069-.022.053-.09.174-.151.205a1.34 1.34 0 0 1-.35 0c-.28-.061-.538-.183-.803-.304-.092-.03-.152-.129-.236-.19-.068-.03-.151-.045-.227-.068 0 .091-.03.175-.023.25.06.122.19.334.137.38-.023.038-.205.152-.258.121-.228-.106-.41-.364-.622-.485-.274-.175-.524-.175-.782.007-.265.182-.5.342-.75.486-.312.205-.646.53-1.017.53-.205 0-.714-.31-.941-.378-.425-.137-.561-.152-1.017-.25-.379-.092-.713.052-1.1.181-.47.144-.986.205-1.494.296-.288.053-.622 0-.926-.015-.455-.015-.895-.053-1.342-.046-.304 0-.622.054-.91.152-.137.038-.281.06-.403.06-.205 0-.402-.052-.592-.181a.865.865 0 0 0-.644-.122c-.213.046-.63.122-.805-.038-.212-.212-.72-.637-1.008-.584-.903.152-1.336.668-2.216.433-.622-.16-1.031-.304-1.638-.106-.152.06-.546-.03-.706-.008-.227.03-.303-.015-.273-.243l.023-.121c.038-.235-.19-.41-.417-.326-.25.075-.395.333-.63.455-.432.212-.835.151-1.305-.03-.318-.137-.645-.076-.948.075-.197.106-.516.57-.728.57-.076 0-.19-.122-.228-.228v-.22a1.517 1.517 0 0 1 .5-.463 2.845 2.845 0 0 1 1.73-.228c.273.046.57.076.827-.03.205-.091.417-.106.607-.205.342-.182.637-.341 1.024-.205.281-.129.433-.22.577-.432.068-.342-.053-.698.03-1.032.076-.303.205-.683.304-.97.06-.153.167-.137.265-.122.273.402.607.781.44 1.153-.114.258.478.44.38.698-.1.197-.054.318.144.341l.151.015c.175 0 .182-.113.175-.333.007-1.245-.395-2.11-.82-3.088-.174-.38-.144-.759-.007-1.138l.258-.774c.136-.364.44-.683.781-.82.046-.007.175.046.205.107.554.781.759 1.73.486 2.67a9.963 9.963 0 0 0-.19.88c-.015.076.007.152.023.228.053-.046.121-.091.167-.152.273-.41.553-.811.773-1.251.213-.425.562-.6 1.002-.683.478-.099.614-.038.493.425a9.66 9.66 0 0 1-.25.789 1.57 1.57 0 0 1-.805.978c-.273.152-.523.357-.758.531-.091.122-.114.114-.015.235.09.114.227.046.34-.022.449-.327.911-.584 1.366-.835.167-.076.22-.015.205.182-.022.228-.053.539-.28.622-.25.084-.585.122-.805.228a1.517 1.517 0 0 0-.379.326c-.152.228-.152.38-.273.622-.023.053 0 .144.008.228.075-.03.151-.03.204-.06.296-.213.456-.456.751-.684.228-.174.281-.151.372.13.03.09.099.166.19.25.09-.061.19-.114.258-.205.265-.395.432-1.184.781-1.707.06 0 .137.045.182.068.076.175-.023.774-.007.903.007.364.121.44.455.273.258-.129.493-.265.743-.402.273-.137.493-.03.334.182-.083.129-.212.228-.288.364-.046.076-.038.205-.046.304.076 0 .182.015.258-.023.205-.053.395-.144.592-.228.265-.121.539-.083.834 0 .281.099.57.167.835.243.22.053.463-.045.66-.137a7.04 7.04 0 0 1 1.199-.462 3.869 3.869 0 0 0 1.494-.858c.099-.106.25-.159.364-.265.091-.076.167-.432.175-.546.075-.304-.046-1.017.015-1.335.038-.076.098-.243.151-.327l.13.038c.037.114.09.289.09.38-.022.546-.03 1.76-.09 2.29 0 .122-.213.32-.334.365-.956.349-1.92.713-2.883.986-.433.121-.91.053-1.366.06-.364 0-.72-.052-1.077-.03-.28.023-.683.281-.97.327-.79.12-1.473.068-2.254.212-.72.137-1.411.334-2.101.523a1.307 1.307 0 0 0-.433.213c-.053.045-.068.129-.09.182.075.038.15.09.227.076.174-.015.318.038.5.015.425-.068.85-.114 1.29-.152.091 0 .213.06.296.122.212.144.425.19.668.136.258-.06.485.008.713.175.394.318.493.333.948.076.349-.19.736-.19 1.123-.167.865.045 1.669.174 2.45.318a1.669 1.669 0 0 0 1.608-.622c.22-.28.433-.554.607-.827.144-.19.304-.318.531-.318.486-.008.986-.122 1.464-.091.274.022.402.273.402.432-.015.16-.075.258-.265.25a16.74 16.74 0 0 1-1.092-.09c-.38-.031-.683.075-.91.363-.122.137-.092.228.09.274.076.007.175.045.258.053.197.022.288.113.342.296.037.113.273.227.667.25.508.03.774.03 1.214-.114.182-.06.303-.273.432-.432.289-.418.486-.524 1.002-.418.364.069.607-.318.933-.295.6.075-.076-1.13-.455-1.525-.524-.387-.941-1.153-1.396-1.722-.334-.418-.736-.577-1.024-1.085-.554-.918-1.01-2.04-1.624-2.777-.243-.25-.766-.076-1.024.06a.72.72 0 0 0-.303.213c.743.63.773 1.502.515 2.147-.075.205-.151.198-.364.114a7.822 7.822 0 0 1-.584-.235c-.129-.068-.243-.038-.38.045-.56.342-1.25.805-1.365.69-.227-.227-.591-.91-.569-1.259a1.4 1.4 0 0 1 .22-.69 5.69 5.69 0 0 1-.728-.47l-.007-.25c.47-.456 1.107-.896 1.6-.896zm-14.201-6.6c.06.448.25.812.683.979.622.258 1.441.41 2.139.417.827.023 1.73-.045 2.7-.228a17.6 17.6 0 0 0 4.37-1.524 12.092 12.093 0 0 1 2.655-1.01 6.008 6.008 0 0 1 2.936-.075c.433.098.524.098.463-.213-.03-.204-.091-.41-.121-.622-.107-.728-.076-1.41-.35-2.033a.842.842 0 0 0-.401-.372 2.397 2.397 0 0 0-.698-.212 4.931 4.931 0 0 0-1.472 0 7.389 7.389 0 0 0-2.215.683 29.39 29.39 0 0 0-2.086 1.13 5.993 5.993 0 0 1-3.08.888c-.721 0-1.199-.023-1.92-.099a6.858 6.858 0 0 1-2.83-.781c-.197-.099-.303-.069-.379.136a6.35 6.35 0 0 0-.379 2.929zm33.75 7.966c-.25.038-.773.106-1.076.121a1.441 1.441 0 0 1-.296-.038c.045-.09.076-.121.129-.144.371-.19.766-.364 1.04-.576.15-.114.12-.228.075-.327-.508.228-.986.327-1.525.418-.038 0-.06-.038-.076-.061.417-.311.971-.562 1.275-.835.205-.167.053-.212-.015-.28-.44.151-.88.296-1.343.424a.531.531 0 0 1-.213-.022c0-.091.091-.13.167-.175a7.078 7.078 0 0 0 1.29-.85l-.023-.113-.152-.015c-.356.06-1.145.174-1.577.22-.213 0-.175-.122-.137-.152.341-.152.607-.334.857-.6.091-.098.076-.19.046-.235-.41.19-.88.198-1.153.228-.053-.068.015-.152.045-.182.334-.129.402-.235.577-.349.113-.076.356-.243.41-.334.022-.03.015-.121-.008-.152a5.31 5.31 0 0 1-1.01.243.508.508 0 0 1-.181-.03c.03-.076.045-.137.09-.16.471-.242.721-.34 1.055-.546a.819.819 0 0 0 .228-.296l-.03-.045c-.38.121-.767.25-1.161.357-.076-.016-.114-.061-.182-.114a.463.463 0 0 1 .136-.137 6.198 6.198 0 0 0 2.147-1.236c.182-.152.342-.327.41-.463l-.053-.091c-.759.53-1.495.994-2.367 1.335-.175-.015-.137-.121-.076-.167.076-.076.303-.334.485-.576a6.85 6.85 0 0 0 1.988-1.146c.046-.046.068-.174.038-.258-.387.175-.979.508-1.494.698l-.1-.03c.024-.091.07-.175.122-.266.35-.227.85-.584 1.244-1.016.016-.054.038-.122 0-.182-.326.174-.69.303-1.024.417-.114-.076.023-.273.038-.319.478-.394.706-.652.94-.986.046-.076.046-.144 0-.266-.265.19-.644.304-.94.418l-.083-.023c-.015-.099 0-.076.03-.152.35-.318.645-.569.857-.933.023-.038.016-.137-.022-.205-.289.099-.509.182-.82.258a.243.243 0 0 1-.106-.023c.015-.098 0-.121.038-.197a3.58 3.58 0 0 0 .622-.728c.053-.076.046-.152.008-.205a5.38 5.38 0 0 1-.562.091c-.06.015-.136-.053-.174-.121l.53-.38a.455.455 0 0 0 .092-.144c-.068-.03-.122-.068-.167-.053-.228.03-.44.053-.668.099-.5.106-.5.174-.546.318a11.099 11.099 0 0 1-.554 1.654c-.068.152-.151.296-.303.357-.212.106-.167.22-.228.425-.09.41-.151.379-.318.78a2.2 2.2 0 0 1-.47.76h-.114l-.038-.57c-.046-.379-.122-.295-.182-.682-.038-.342.045-.706.09-1.002.039-.34.076-.933.076-1.266-.03-.023-.06-.076-.106-.107a.319.319 0 0 0-.106.152c-.068.258-.19.668-.228.933-.083.622.046 1.222 0 1.851a7.055 7.055 0 0 0-.075 1.957c.204-.022.19-.045.478-.159.379-.152.652-.205 1.039-.546.273-.235.227-.698.326-1.077.129-.455.304-.622.486-.698.053-.015.106.007.159.023-.106.257-.167.394-.266.667-.09.235-.182.622.076.668l.19.03c.015.046.015.114-.023.152-.243.235-.44.516-1.555.834-.129.038-.41.38-.425.509-.023.174-.023.379.015.667.114 1.115.668 2.162 1.29 3.194.523.88.91 1.548 1.48 2.124.265.243.545.425.985.22.236-.114.532-.296.607-.364.038-.046.046-.121.038-.19zM24.195 23.792c.03.44-.053.554-.614.41-.592-.182-.865-.122-1.244-.554-.228-.265-.516-.265-.759-.015-.114.136-.197.273-.38.303-.03-.06-.067-.144-.045-.212a.844.844 0 0 1 .463-.577c.175-.09.387-.151.57-.204.523-.205.78-.516.78-1.13 0-.35.107-.699.107-1.063 0-.258-.091-.341-.342-.258a44.39 44.39 0 0 0-1.267.516.518.518 0 0 0-.303.288c-.121.228-.197.455-.303.683-.1.13-.183.068-.213.015a13.835 13.835 0 0 0-.667-.948c-.19-.228-.19-.303.022-.463l.706-.614c.349-.326.485-.759.523-1.244v-.66c-.015-.289.046-.372.334-.334.205.023.41.076.577.167.318.136.637.318.955.485.167.106.289.25.304.463.008.25-.152.41-.38.319a6.98 6.98 0 0 0-1.069-.372c-.182-.046-.364.053-.395.227-.075.418.281.44.25.554-.09.296-.568.38-.636.653-.054.25-.054.41.166.364.6-.122 1.184-.493 1.647-.683.394-.167.599-.106.652.334.213 1.29.41 2.397.554 3.55zm9.332-4.096c.113.03.257.098.348.182.22.508.69 1.077 1.283 1.38.19.099.379.137.53.152.054-.227.152-.607.152-1.024 0-.326-.098-.683-.402-.986a3.945 3.945 0 0 0-.91-.683.387.387 0 0 0-.448.038c-.007.076-.007.19.038.258.144.25.493.478.645.713.053.243.038.228-.16.152a3.831 3.831 0 0 1-1.084-.949c-.175-.197-.288-.197-.41.016a3.672 3.672 0 0 0-.546 1.63 1.669 1.669 0 0 0 .91 1.745c.281.122.486.091.622-.174a4.04 4.04 0 0 0 .334-.789c.046-.152.046-.212-.068-.349a5.014 5.015 0 0 0-.455-.508.66.66 0 0 0-.228-.182.303.303 0 0 0-.06.19c.007.235.045.477.053.712 0 .061-.008.152-.046.205a.463.463 0 0 1-.258-.303c-.152-.562-.129-1.055.16-1.426zM7.308 11.434l.44.524c.182.341.28.652.371.925.076.273.19.273.364.152a.618.618 0 0 0 .258-.531 1.768 1.768 0 0 0-.098-.478c-.152-.592-.046-1.093.47-1.464.175-.122.304-.319.235-.531-.076-.296-.144-.577-.258-.85-.045-.121-.212-.152-.326-.091-.576.303-1.26 1.176-.736 1.904.023.046-.007.182-.045.258-.478-.478-1.419-1.449-1.7-1.426-.075.136-.136.417-.075.986.068.554.212 1.123.63 1.897.105.174.204.28.356.402a.8.8 0 0 0 .455.19.839.839 0 0 0 .03-.456c-.144-.516-.28-.91-.455-1.388zm38.31 2.185c.402-.076.728-.19.88-.25.652-.25 1.085-.668 1.229-1.381.045-.19-.068-.296-.273-.349l-.425-.114c-.417-.121-.5.053-.66.455-.121.304-.25.653-.577.91-.098.084-.44-.166-.53-.227.637-.38 1.054-.986 1.365-1.714.076-.137 0-.273-.144-.319a1.548 1.548 0 0 0-.653-.068 3.27 3.27 0 0 0-2.351 1.752c-.03.076 0 .25.053.273.09.038.318.015.417-.022.06-.008.091-.092.129-.152.265-.47.713-.759 1.229-.986.152-.076.205-.023.121.151-.098.13-1.024.782-1.047.873-.121.265.061.303.213.303l.28-.076c.1.486.395.804.736.941zm-14.035-.076c-.015.228-.098.357-.303.28-.425-.181-.683-.644-1.16-.803-.175-.061-.281.098-.304.258-.076.485-.152.918-.152 1.1 0 .667.357 1.031.713 1.388.106.091.106.152-.007.205l-1.464.82c-.137.09-.304.113-.456 0-.144-.13-.19-.29-.144-.449.175-.735.296-1.494.486-2.215.303-1.138.796-1.525 1.623-1.63.296-.046.516-.046.744-.046.242 0 .349.045.379.265.03.152.038.319.038.827zm1.108 5.03c0-.554-.448-.713-.637-1.184-.182-.462-.35-.462-.72-.129-.426.402-.684.751-.835 1.328a3.186 3.186 0 0 0 .015 1.593c.038.16.129.342.303.288a.303.303 0 0 0 .22-.303c0-.47.046-.926.28-1.229a.696.696 0 0 1 .213-.205c.076.114.046.25.046.273-.068.35-.122.706-.197 1.055-.046.235-.046.364.075.576.137.213.25.235.342.091.432-.69.895-1.684.895-2.154zM9.007 20.105a4.248 4.248 0 0 0-.304-1.365c-.182-.433-.455-.683-.637-.683-.167 0-.554.455-.683.827-.333.933-.151 1.692.387 2.587.076.114.228.326.433.114.167-.19.296-.327.455-.531a1.48 1.48 0 0 0 .349-.949zm20.437 14.642c-.098-.782-.683-1.54-1.669-2.2-.205-.084-.227.053-.227.227a63.1 63.1 0 0 0 .364 3.141c.038.212.136.273.334.167.295-.137.576-.28.857-.44.258-.152.417-.296.341-.895zm8.93-8.876c-.153-.38-.41-.539-.79-.57-.38-.045-.698-.098-1.1-.158-.227.03-.38.212-.508.515.007.061.03.137.076.152.129.046.364.091.394.114.046.03.197.19.228.311-.03.106-.167.22-.342.25-.227.046-.227.228-.19.463.031.228.115.417.297.66.151-.09.227-.129.341-.25a.516.516 0 0 0 .152-.44c-.03-.493.242-.85.584-1.176l.076.045c-.053.281-.205.486-.235.767-.076.576-.266 1.062-.835 1.449.175.227.607.06.744-.076.235-.22.424-.478.515-.804l.091-.289a.228.228 0 0 1 .076.023c.114.212-.045.645.03.956a.713.713 0 0 0 .281-.228c.213-.5.319-1.244.114-1.707zm7.145-11.683c-.098 0-.493.008-.607.03-.09.023-.136.236-.09.273.113.076.181.137.272.167.357.038.516.038.926.107a.314.314 0 0 1 .205.113c-.038.03-.076.084-.152.099-.759.091-.986.076-1.517-.28-.144-.061-.197.045-.152.181.076.258.288.47.683.63.31.137.614.303.933.296a8.484 8.484 0 0 0 1.237-.114c.212-.03.424-.152.455-.258.038-.106 0-.341-.122-.493l-.288-.288c-.455-.478-.751-.782-1.426-.713-.091.007-.228.25-.357.25zm.47 5.052c0-.28-.037-.485-.113-.735a1.29 1.29 0 0 0-1.123-.926c-.28-.008-.417.046-.303.303.03.092.28.357.379.57.129.257.25.523.25.75a.759.759 0 0 1-.068.304c-.167-.091-.258-.296-.296-.395-.076-.242-.09-.386-.167-.523-.068-.121-.151-.152-.19-.152-.106 0-.151.038-.159.182a2.177 2.177 0 0 0 1.191 2.178c.213.075.266.022.334-.167a4.552 4.552 0 0 0 .266-1.381ZM8.553 16.312c-.106.402-.13.668-.114.895a.708.708 0 0 0 .417.653 5.083 5.083 0 0 0 2.526.394c.03 0 .114-.053.114-.076-.023-.174-.114-.204-.273-.25-.356-.121-1.312-.38-1.441-.531-.099-.137-.053-.28.106-.303a.81.81 0 0 1 .417.068c.235.114.44.265.683.402.076.045.167.129.258 0 .068-.114.136-.213-.015-.326l-.562-.44c-.485-.387-1.214-.57-2.124-.486Zm17.35 6.282c-.039.083-.114.166-.198.265-.09-.091-.182-.152-.227-.25a18.23 18.23 0 0 1-.91-3.035c-.016-.197.06-.265.227-.258.432.046.812.243 1.19.44.062.046.107.175.115.266.075.857-.03 1.82-.198 2.564zM7.216 24.338l-.061-.03c.038-.516.303-1.252.205-1.441a1.062 1.062 0 0 0-.524.053c-.182.076-.258.258-.296.561-.045.675.061 1.366.205 1.973.046.227.137.25.304.09.432-.394.842-.895 1.168-1.281.228-.296.265-.577.174-.858-.075-.235-.235-.326-.41-.326-.189 0-.257.144-.303.288-.106.372-.28.638-.462.964zm35.033-1.555c.341 0 .622.069.713.099.41.152.591.334.667.478.076.136.076.205.076.273a.736.736 0 0 1-.675-.137c-.364-.341-.895-.485-1.214-.341.023.235.25.531.44.683.637.493 1.199.576 1.882.417.113-.046.159-.205.151-.341-.022-.44.008-.91-.41-1.29-.454-.433-1.107-.417-1.554-.228-.076.038-.19.091-.243.152a.39.39 0 0 0 .167.228zM26.47 10.76c.137-.03.076.03.038.152-.076.387-.303.69-.576.963-.152.137-.182.35-.076.455.197.182.425.023.576-.121.304-.341.494-.759.668-1.168.212-.509.167-1.138-.076-1.563-.129-.182-.326-.205-.478-.068a2.632 2.632 0 0 0-.925 1.82c0 .099.007.281.076.319.349-.152.56-.531.758-.781zm9.256 18.359c.037-.03.098 0 .12.015 0 .41.1.903.153 1.047a.47.47 0 0 0 .151-.106l.114-.554c.258-.782.068-1.404-.258-2.117-.06-.136-.152-.151-.288-.09-.099.045-.182.113-.099.25.076.113.069.204 0 .318-.106.205-.182.425-.296.668-.045.152-.053.273-.068.455l-.114 2.807c.046.152.137.121.19.03.06-.152.106-.296.137-.455.075-.44.204-.455.227-.895.038-.455.038-.91.023-1.366zM10.023 11.783a.416.416 0 0 1 .016-.174l.47.076c.228.045.341.015.417-.16.13-.334.06-.637-.288-.705-.531-.099-1.062.076-1.517.182-.296.098-.364.41-.152.622.341.326.668.652 1.024.94.288.236.63.296.964.228.151-.038.28-.136.28-.273a.38.38 0 0 0-.114-.273 1.024 1.024 0 0 0-.265-.152zm-.477 20.43c-.03.152-.1.28-.35.265a3.126 3.126 0 0 1-.682-.098c-.243-.068-.311-.16-.326-.25-.076-.456-.03-1.078.075-1.503.03-.075.289-.227.395-.288.326.038.584.091.82.152.09.053.272.326.288.364.045.144.045.303.045.455-.091.38-.205.706-.265.903zm25.337 13.693c.607.228 1.078.296 1.26.258a.364.364 0 0 0 .28-.41c-.007-.166-.09-.303-.303-.364-.463-.098-.94-.167-1.38-.326-.259-.076-.456-.068-.683.106a2.5 2.5 0 0 1-1.116.486.531.531 0 0 0-.28.098c-.122.16-.091.274.098.38.751.068 1.457-.076 2.124-.228zm2.496 1.487c.38 0 .66-.076.918-.243a2.276 2.276 0 0 1 1.1-.485c.167-.03.334-.205.35-.342 0-.19-.153-.212-.281-.258-.365-.113-.797-.098-1.169-.19-.121-.022-.296-.022-.394.054-.782.789-.933.607-1.305.994-.099.129-.099.288.174.356.213.053.486.099.607.114zM24.392 17.731c0-.197.349-.5.538-.47a.252.252 0 0 1 .107.075l.075.41c.023.16.076.303.16.303.394.03.857-.242 1.077-.584.235-.364.402-.781.6-1.176.181-.432.462-.167.363.099-.25.751-.561 1.517-.804 2.253-.076.273-.114.288-.379.197l-1.252-.447a.645.645 0 0 1-.485-.66zm9.604 18.723c.205.098.19.06.463-.091a.622.622 0 0 0 .242-.44l-.075-1.647c0-.053-.076-.136-.107-.136-.227 0-.5-.046-.682.053-.35.19-.645.463-.964.713-.121.121-.007.243.175.228a4.72 4.72 0 0 0 .478-.22l.288-.152a.26.26 0 0 1-.03.137c-.274.303-.478.667-.85.864-.099.016-.076.258.068.266.114-.015.341-.137.417-.197.228-.182.327-.296.554-.486.076.114.13.205.015.304l-.607.546c-.09.09-.022.182.084.167a1.19 1.19 0 0 0 .432-.167c.152-.099.28-.235.417-.38.008.016.092.1.076.107a6.81 6.81 0 0 1-.394.53zm-19.413-19.08c-.091.918-.319 1.844-.729 2.26-.333-.636-.56-1.38-.788-2.032.182-.228.41-.57.508-.835.045-.129.121-.151.235-.06.273.25.508.455.774.667zm1.085 13.079a.759.759 0 0 1-.418.523c-.159.076-.417.19-.713.19-.136 0-.235-.03-.258-.152-.076-.425-.174-.819-.242-1.229-.008-.098.075-.227.159-.303.265-.25.607-.319.963-.341.076 0 .327.106.364.174.076.38.114.72.145 1.138zm-3.316-4.908c-.485.075-.91.508-.834.682.008.38.083.744.288 1.07.13.19.228.235.425.106a3.641 3.641 0 0 0 1.457-1.487c.09-.182-.099-.235-.281-.326-.243-.114-.5-.114-.637-.045-.137.068-.19.212-.213.326-.151.554-.182.569-.349.758a1.472 1.472 0 0 1 .144-1.084zm3.285 20.824c.03-.06.046-.106.099-.114.09-.015.303-.015.326 0 .432.122.835-.19 1.237-.25.09-.008.19-.023.295-.008.266.008.532.015.827-.06.122-.046.281.015.418.075.462.205.91.319 1.358.053.235-.159.47-.303.72-.432.417-.16.455.114.47.273a.394.394 0 0 1-.227.235c-1.441.516-2.686.524-4.301.327a3.641 3.641 0 0 1-1.222-.1zM6.61 31.196c-.03.198.03.494.19.653l.068.068-.038.121a3.414 3.414 0 0 1-.744-.098c-.106-.038.19-.197.213-.38.053-.371.151-.986.151-1.433 0-.076-.19-.152-.19-.228a.273.273 0 0 1 .092-.152c.53.13.607.122.713.372.106.228.205.607.364.88.03-.015.076-.03.099-.053.022-.25.015-.614.022-.781.016-.137.076-.205.22-.205.114 0 .395.007.509.03.015.023.015.046.015.076 0 .076-.091.099-.114.106-.25.091-.266.114-.38.812l-.12.804c-.016.06-.031.182-.069.266-.068.007-.19 0-.212-.061-.175-.425-.402-.88-.622-1.267l-.076-.008c-.061.167-.061.327-.099.486Zm16.69 3.74a1.576 1.576 0 0 0 0-.462c-.092-.258-.206-.509-.168-.736.114-.395.198-.804.16-1.214a5.113 5.113 0 0 1 .045-1.517c.137.045.243.136.273.227a2.1 2.1 0 0 1 .076.463c.053.433.015.85-.007 1.267-.069.82-.137 1.578-.114 2.382.015.121.038.28.076.395.106.25.053.508-.144.789l-.122-.054c-.09-.34-.318-.804-.417-1.168-.015-.068 0-.121.091-.136.152-.03.25-.122.258-.228zm7.889-6.03c-.334-.031-.675-.327-.652-.858-.167.228-.372.455-.554.539.015.182.463.44.774.569.174.235.303.349.53.607.137-.35.304-.645.357-.835a2.693 2.693 0 0 0-.265-1.236c-.25-.281-.645-.516-1.032-.767-.19.205.053.645.523.91-.106.289-.09.729.372.987zm-22.683-.812c.235-.016.486-.053.766-.091.182-.046.387-.091.395-.319.015-.205-.228-.319-.395-.364a3.611 3.611 0 0 0-2.39.235c-.196.114-.371.228-.485.349-.182.197-.144.319-.007.425.151.114.371.235.652.303.038-.167.076-.44.129-.607.258-.424.986-.5 1.495-.516.12.023.12.175.022.205-.144.114-.432.091-.508.213 0 .129.121.174.326.159zm1.624 4.4c-.008-.091.098-.205.106-.266.023-.121.023-.288.023-.417.015-.326-.053-.857-.053-1.176l.174-.114c.06-.023.106.015.174.076.152.152.494.531.653.675.015 0 .038-.038.045-.045v-.243c0-.167-.03-.288-.075-.47-.061-.205-.205-.35-.046-.365l.622-.045c-.06.121-.106.212-.129.394-.03.25-.076.478-.083.714.03.364.106.728.136 1.031 0 .023-.045.053-.09.076a.569.569 0 0 1-.175-.114c-.304-.303-.516-.584-.91-.955a.334.334 0 0 0-.054.166c.076.236.175.501.334.721.099.137.121.182-.129.273-.136.046-.364.106-.516.076zm11.09.068c.357-.22.501-.956.41-1.312a.47.47 0 0 0-.121-.25c-.114-.115-.243-.077-.303.12-.069.281-.1.585-.137.85a2.655 2.655 0 0 0-.804-.023c-.273.038-.804.198-.804.524 0 .53 1.221.41 1.76.09zm2.14-3.672a.607.607 0 0 0 .152.425c.546.569 1.297 1.16 1.775 1.274.425.114.781.365 1.04.706l.25.341c.182.228.417.38.735.425.054.015.122 0 .182 0-.045-.19-.045-.212-.182-.349-1.122-1.001-2.313-1.783-3.474-2.594-.114-.069-.319-.205-.478-.228ZM11.632 41.787v-.015c-.114-.478-.243-.941-.364-1.404-.091-.167-.258-.045-.243.023-.122.341-.243.683-.35 1.04a.5.5 0 0 0 0 .318c.183.5.35.994.547 1.494.03.069.121.114.175.152.045-.06.113-.129.129-.19zm1.987-11.895c.03.09.076.204.091.31.008.076.008.137-.015.183-.007.022-.053.015-.098-.008-.236-.106-.501-.258-.714-.114-.075.053-.045.19.054.235l.667.274c.304.113.38.25.319.606-.053.342-.304.478-.6.562-.12.03-.25.045-.417.03-.023.106.008.228-.068.273-.053.03-.068.023-.121.046a2.928 2.928 0 0 1-.228-.827c0-.068.023-.076.045-.099.1.03.19.167.342.311.182.061.493.114.538.061.092-.114.13-.182.13-.228 0-.075-.107-.151-.198-.19-.235-.128-.364-.174-.607-.272-.227-.091-.265-.296-.265-.486 0-.205.106-.425.432-.53.099-.039.28-.077.38-.107a1.52 1.52 0 0 0 .053-.341c.053-.008.151-.023.167.015zM8.886 15.599c-.456 0-.744-.121-1.2-.076-.325.023-.644.167-.963.288-.19.091-.151.175.016.243.167.076.28.122.44.114.94-.076 1.995-.182 2.935-.273.054-.076.1-.137.152-.258-.356-.235-.82-.19-1.252-.319Zm10.802 14.042c-.045.023-.106.076-.22.197a.592.592 0 0 1-.19.137l-.128-.076.204-.493c.076-.19.152-.212.334-.091l.167.137c.137.113.319.204.486.129.159-.076.076-.304-.091-.387-.243-.152-.425-.198-.721-.38-.182-.106-.258-.265-.258-.493 0-.19.129-.417.372-.44.09-.023.205-.023.334-.023.159 0 .265-.022.364-.159.076-.098.159-.16.182-.053.06.273.023.569-.046.743-.053-.015-.09-.015-.136-.037-.144-.228-.334-.334-.493-.311-.152.022-.228.136-.114.257.205.213.493.327.736.463.349.19.326.455.28.645a.493.493 0 0 1-.508.41.967.967 0 0 1-.554-.175zm-.69-.698c.03.584-.44.797-.774.79-.31 0-.493-.069-.6-.38-.052-.182-.113-.736-.15-.94-.062-.077-.168-.107-.327-.152-.076-.016-.084-.076-.099-.145a2.09 2.09 0 0 1 .463-.136c.334-.053.334-.03.387.273.045.349.099.713.167 1.062.114.341.478.266.478-.023 0-.273.015-.584 0-.872-.053-.068-.152-.213-.258-.311-.13-.152-.137-.197.045-.266.425-.167.456-.273.516.289.023.212.152.538.152.811zm.394 2.99 1.062-.251c.281-.076.44-.38.418-.645-.03-.205-.152-.319-.364-.364a2.883 2.883 0 0 0-1.366.19c-.038.364.091.758.25 1.062zm-9.755-3.771c-.137 0-.32.03-.456.068-.265.068-.402.091-.667.068-.152-.015-.395-.113-.539-.151-.16.015-.318.159-.38.387-.03.227.107.387.357.432.509.114.987.205 1.457.205.182 0 .205-.023.212-.175.023-.288.016-.53.016-.834zm12.137-10.848a3.072 3.072 0 0 1-.66-.205c-.075-.023-.128-.205-.128-.304.022-.265-.046-.53 0-.811.022-.152.106-.198.25-.167.205.045.394.09.592.151.258.107.644.82.53 1.07-.113.228-.318.258-.576.273zm-4.377 12.433a.759.759 0 0 1-.212.205c-.25.167-.706.266-1.017.47-.151.107-.076-.257-.09-.394l-.16-.85a1.108 1.108 0 0 0-.273-.455c-.091-.106.167-.151.296-.19l.493-.151c.182-.06.227.068.174.106-.25.182-.227.266-.197.5.038.228.038.479.046.668.037.091.09.213.159.296.152-.045.318-.16.318-.205l.038-.485c.182-.228.213-.114.243-.015.076.182.114.296.182.5zm.751-5.386a14.093 14.093 0 0 1-.288-1.009c-.023-.136.091-.212.22-.19.455.1.903.205 1.358.327.152.03.152.151.053.25-.296.304-.607.561-1.017.744-.204.113-.212.03-.326-.122zM37.804 12.33a3.338 3.338 0 0 0-.523-1.259c-.205-.258-.455-.28-.683-.045a1.759 1.759 0 0 0-.197.227c-.228.288-.205.38.136.546.516.152.812.455 1.184.835zM13.695 41.802a2.124 2.124 0 0 0-.683.607c-.151.28-.318.546-.47.82-.053.128-.144.44-.182.644l.091.091a3.793 3.793 0 0 0 .668-.493c.387-.38.478-.736.69-1.495l.038-.09zm33.433-31.195a8.488 8.488 0 0 0-.744-1.198c-.205-.258-.303-.281-.53-.046a1.848 1.848 0 0 0-.206.228c-.227.28-.364.63.008.682.318.054.75 0 .956.145.19.121.356.25.44.295zM8.666 30.992c-.061.553-.046.553-.046.94 0 .213.099.213.288.228.175.007.228-.152.266-.357l.114-.766c.03-.25.045-.394-.107-.417-.28-.038-.493.136-.515.372zm2.958-10.257a2.928 2.928 0 0 1-.713-.25c-.38-.198-.743-.607-.683-.987.03-.174.13-.227.281-.144.288.213.531.531.743.759a1.5 1.5 0 0 1 .38.622zm2.845 9.012c.008.152.137.6.182.858.023.136.053.242.25.22.258-.038.35-.152.311-.357-.03-.235-.09-.47-.136-.713-.046-.228-.144-.357-.35-.349-.212.023-.28.099-.257.341zm11.273-14.315c-.16.288-.303.577-.493.827-.144.205-.372.334-.577.508-.197.053-.204.038-.136-.159.296-.486.576-.865.895-1.282.228-.121.311-.023.303.106zm15.218 7.875c0 .182-.03.349-.091.523l-.046.023c-.235-.592-.804-1.548-.766-1.646-.015-.069.137-.107.205-.091l.258.106c.152.349.303.683.44 1.085zm1.654-12.57c.03.007.121.03.19.09.113.091.128.198-.023.258-.357.167-.956.486-1.343.63-.076.038-.16.045-.129-.091.076-.228.986-.888 1.305-.888zM29.634 27.22c-.25 0-.463.197-.463.395.008.22.288.455.539.455.227 0 .387-.152.387-.38.015-.273-.183-.47-.463-.47zM9.637 46.361c-.054 0-.152.167-.236.175-.303.023-.41.053-.41.182 0 .174.092.265.236.22.455-.137.561-.121 1.153-.076l.205-.243c-.068-.06-.122-.136-.205-.159a3.391 3.391 0 0 0-.743-.099zm26.718-21.833c-.098.06-.182.121-.152.235l.076.182c.175-.03.372-.045.554-.03.243.076.653.167.91.212.061.016.137-.053.183-.113.015-.008-.03-.054-.054-.099-.349-.349-.933-.357-1.517-.38zm-16.712-7.67-.622-.273c-.038-.023-.061-.136-.023-.182.136-.205.28-.394.425-.576.076-.076.136-.069.174.03l.311.774c.061.151-.007.212-.265.227zm-8.163 7.625c.152-.03.228.06.205.197-.015.076-.038.106-.16.167-.47.144-.895.136-1.38.045-.152-.023-.25-.053-.273-.09a.288.288 0 0 1 .174-.122Zm4.354-12.176c-.045.015-.098.053-.128.03-.403-.228-.98-.531-1.343-.766-.084-.122-.03-.167.083-.152.296.099.812.25 1.108.364.19.091.25.266.28.524zm6.183 8.86c.046.069.091.137-.038.342-.205.318-.258.645-.394 1.085-.03.09-.091.19-.137.258-.045.045-.114.06-.167.09-.015-.053-.045-.12-.038-.166l.41-1.336c.06-.159.182-.242.364-.273zm14.816-4.476a7.359 7.359 0 0 1-1.593-.56c-.174-.153-.144-.145.083-.153l1.495.402c.288.22.228.213.015.304zm-6.167 9.498a.508.508 0 0 0-.228-.28c-.076-.046-.22-.023-.304.045a1.571 1.571 0 0 0-.242.213c-.114.159-.046.318.136.447.152.107.319.099.418-.045.09-.114.174-.197.22-.38zm-10-7.328c-.052.114-.067.228-.143.311-.205.243-.433.478-.653.713-.22.099-.227-.038-.204-.144.204-.38.493-.698.758-1.009.03-.03.114-.053.152-.03.038.023.06.076.09.152zm-8.572-2.086c-.053.038-.857-1.214-.955-1.472 0-.045.129-.136.197-.19.053.03.114.076.136.122.258.546.706 1.472.668 1.51zm-.34 5-.342-.152c-.25.053-.455.166-.736.197-.296.023-.417-.038-.531-.114.045-.091.205-.182.44-.228a6.476 6.476 0 0 1 1.26-.03zm30.875-6.373.88.66c.091.06.076.182.114.258l-.197-.023c-.38-.19-.774-.341-1.025-.713-.212-.311.137-.273.228-.182zm-22.288 1.085-.099.151c-.038-.045-.091-.09-.114-.151-.076-.152-.076-.327-.09-.486-.046-.38-.024-.584.204-.812.091-.106.167-.045.167.053a6.81 6.81 0 0 1-.068 1.245zm-5.644-1.381c.083.03.227.933.326 1.396.023.106.015.243 0 .341-.038.106-.076.13-.167.038-.152-.478-.228-.963-.304-1.419-.03-.136-.03-.28.145-.356zm25.732 5.485c.364.205.789.569.963.781.046.046.023.167 0 .258-.06-.023-.129-.03-.174-.068-.304-.19-.584-.402-.865-.6-.038-.03-.045-.25-.076-.295a.319.319 0 0 1 .152-.076zm-16.591-7.814c.06.038.091.076.129.129a.319.319 0 0 1-.13.136c-.257.1-.856.1-1.107-.045a.774.774 0 0 1-.129-.152l.175-.098a2.365 2.365 0 0 1 1.062.038zm6.828 1.456c.242.38.348.744.455 1.154 0 .022-.015.03-.015.09-.061-.037-.092-.045-.114-.075a2.124 2.124 0 0 1-.607-1.002c-.03-.09-.015-.167.098-.235.069.008.122.03.183.068zm-4.72 25.968c.29-.167.373-.296.63-.455.107-.06.092-.076.038-.174-.06-.114-.113-.114-.265-.076-.28.098-.395.167-.683.28-.121.046-.167.1-.038.19zm-8.883-26.9c.35-.243.729-.372 1.116-.516.06-.016.151.007.22.068l-.137.121c-.303.213-.607.38-.895.554a1.805 1.805 0 0 1-.304-.053.228.228 0 0 1 0-.175zm-9.065 7.434c-.084-.41-.197-.91-.129-1.275a.522.522 0 0 1 .16-.227c.075.068.151.121.159.19.075.424-.046.91-.076 1.304zm19.747-9.157c.265-.212.705-.44 1.024-.599a3.831 3.831 0 0 1-1.047 1.115c-.023-.152-.076-.425.023-.516zM22.89 27.426c0 .167.076.349.212.478.076-.06.137-.175.137-.228.03-.318.053-.644.053-.978.038-.13-.152-.167-.198-.03-.075.25-.197.5-.204.758zM39.549 40.55l-1.403.47c.326.372 1.274.069 1.403-.47zM18.884 15.06c.023.372-.045.835-.25 1.176-.023.046-.076.076-.137.122-.023-.069-.09-.122-.076-.167.076-.38.175-.835.266-1.214.015-.023.076-.046.106-.053zm19.648 26.825c.304 0 .592-.007.82-.075.205-.13.197-.395.265-.577l-.076-.023-.333.304a4.8 4.8 0 0 1-.683.136.472.472 0 0 0-.106.137c.038.053.075.09.121.098zM35.726 26.85c.098-.22.19-.417.265-.622.015-.045-.053-.159-.137-.235a.592.592 0 0 0-.166.076 3.034 3.035 0 0 0-.44.668c.03.053.182.053.47.113zm-23.487-5.94.295-.758c.054-.015.1-.015.137.007.046.228.008.592-.015.736-.046.205-.122.326-.304.418a1.237 1.237 0 0 1-.113-.403zm17.122 5.569c-.205 0-.364.121-.38.303 0 .152.167.296.35.296.189-.015.333-.152.348-.319 0-.182-.113-.28-.318-.28zm-.182 1.866c0-.205-.122-.341-.342-.341-.174 0-.303.113-.303.273 0 .182.19.364.38.349.166 0 .265-.122.265-.281zm-.767-1.912c0 .167-.106.266-.265.266-.213 0-.372-.13-.372-.326 0-.152.152-.304.304-.304.159-.015.333.137.333.364zm.137.759c-.182 0-.303.114-.303.265 0 .16.166.304.34.304.137 0 .266-.144.266-.304.008-.144-.129-.265-.303-.265zm-1.995 13.564c-.235 0-.44.114-.433.243.016.129.198.303.342.303.151 0 .235-.159.235-.364-.008-.152 0-.182-.144-.182zM12.094 12.05c-.113-.456-.06-.865.054-1.328.19.395.204 1.032-.054 1.328zm17.07 13.29c-.122.077-.228.198-.213.251.015.091.114.175.175.266a.494.494 0 0 0 .204-.243c.023-.053-.09-.152-.174-.273z" style="fill:#53565a;stroke-width:.7586239"/>
  <path d="M108.284 29.097v3.566h.937c1.345 0 1.969-.72 1.969-1.789 0-.865-.42-1.777-2.197-1.777zm3.722 8.189a55.581 55.581 0 0 1-2.75-3.963h-.96v3.29l1.453.144v.577c-.672-.024-1.14-.048-1.717-.048H107c-.576 0-1.14.024-1.8.048v-.577l1.548-.144v-7.528l-1.56-.12v-.6c.84.035 1.44.06 1.92.06h2.162c1.897 0 3.542.66 3.542 2.377 0 1.2-.889 1.885-2.005 2.221a22.934 22.934 0 0 0 2.773 3.626l.949.096v.589zm-21.396-8.19-1.513-.131v-.589l1.765.048h1.032l1.826-.048v.577l-1.561.144v7.528l1.56.12v.589c-.672-.024-1.248-.048-1.825-.048h-1.032c-.564 0-1.14.024-1.801.048v-.589l1.549-.12zm-3.614 0-2.894 8.286h-1.165l-2.882-8.285-1.092-.132v-.589l1.957.048 2.221-.048v.577l-1.429.144L83.91 35.7l2.161-6.604-1.417-.132v-.589l1.825.048 1.537-.048v.577zm-40.549 7.517v-7.528l-1.56-.12v-.6c.84.035 1.44.06 1.812.06h4.431l.12-.505h.625v2.534h-.625l-.24-1.37h-3.026v3.41h2.234l.168-1.008h.588v2.654h-.588l-.168-.997h-2.234v2.69c0 .6.036.672.072.708.036.036.156.072 1.141.072h.889c.72 0 1.068-.048 1.224-.204.168-.168.36-.624.6-1.62h.601l-.24 2.497h-5.007c-.84 0-1.741.024-2.39.048v-.589l1.561-.12zm22.286-1.585c0 1.525-1.25 2.426-2.882 2.426a4.24 4.24 0 0 1-2.21-.624l-.156.696h-.6v-2.978h.6c.06.408.157.937.24 1.309.517.54 1.345.924 2.066.924.96 0 1.5-.552 1.5-1.416 0-2.018-4.214-2.042-4.214-4.803 0-1.465 1.201-2.306 2.738-2.306.6 0 1.2.12 1.657.313l.18-.673h.588v2.606h-.6a10.194 10.194 0 0 0-.24-1.153 2.558 2.558 0 0 0-1.405-.42c-.865 0-1.5.396-1.5 1.285 0 1.969 4.238 1.98 4.238 4.802zm-12.824 1.585v-7.528l-1.56-.12v-.6c.84.035 1.44.06 1.824.06h1.02l1.826-.049v.577l-1.561.132v6.82c0 .42 0 .576.084.648.036.048.504.06 1.057.06h.456c.816 0 1.08-.084 1.2-.204.169-.18.397-.648.66-1.957h.601l-.18 2.834h-4.683c-.9 0-1.633.024-2.305.048v-.576zm16.258 0v-7.528l-1.561-.12v-.6c.84.035 1.44.06 1.92.06h4.323l.12-.505h.625v2.534h-.612l-.24-1.37h-3.026v3.41h2.22l.181-1.008h.576v2.654h-.576l-.18-.985h-2.221v2.678c0 .6.024.672.06.708.048.036.156.072 1.14.072h1.069c.72 0 1.069-.048 1.213-.204.18-.168.372-.624.6-1.62h.612l-.252 2.497h-5.163c-.828 0-1.729.024-2.377.048v-.589l1.549-.12zm25.107 0v-7.528l-1.561-.12v-.6c.84.035 1.44.06 1.92.06h4.323l.133-.505h.612v2.534h-.6l-.24-1.37h-3.038v3.41h2.233l.168-1.008h.588v2.654h-.588l-.168-.985h-2.233v2.678c0 .6.036.672.072.708.036.036.156.072 1.14.072h.913c.72 0 1.044-.048 1.2-.204.169-.168.36-.624.6-1.62h.601l-.24 2.497h-4.995c-.84 0-1.74.024-2.401.048v-.589l1.56-.12z" style="fill:#ff6c00;stroke-width:1.20071626"/>
</svg>
