<svg xmlns="http://www.w3.org/2000/svg" xmlns:xlink="http://www.w3.org/1999/xlink" width="120" height="60" viewBox="0.1 31.4 120 59.878" preserveAspectRatio="xMidYMid">
  <defs>
    <clipPath id="V">
      <use xlink:href="#a"/>
    </clipPath>
    <clipPath id="U">
      <use xlink:href="#b"/>
    </clipPath>
    <clipPath id="T">
      <use xlink:href="#c"/>
    </clipPath>
    <clipPath id="S">
      <use xlink:href="#d"/>
    </clipPath>
    <clipPath id="R">
      <use xlink:href="#e"/>
    </clipPath>
    <clipPath id="Q">
      <use xlink:href="#f"/>
    </clipPath>
    <clipPath id="P">
      <use xlink:href="#g"/>
    </clipPath>
    <clipPath id="O">
      <use xlink:href="#h"/>
    </clipPath>
    <clipPath id="N">
      <use xlink:href="#i"/>
    </clipPath>
    <clipPath id="M">
      <use xlink:href="#j"/>
    </clipPath>
    <clipPath id="L">
      <use xlink:href="#k"/>
    </clipPath>
    <clipPath id="K">
      <use xlink:href="#l"/>
    </clipPath>
    <clipPath id="J">
      <use xlink:href="#m"/>
    </clipPath>
    <clipPath id="I">
      <use xlink:href="#n"/>
    </clipPath>
    <clipPath id="H">
      <use xlink:href="#o"/>
    </clipPath>
    <clipPath id="G">
      <use xlink:href="#p"/>
    </clipPath>
    <clipPath id="F">
      <use xlink:href="#q"/>
    </clipPath>
    <clipPath id="E">
      <use xlink:href="#r"/>
    </clipPath>
    <clipPath id="D">
      <use xlink:href="#s"/>
    </clipPath>
    <clipPath id="C">
      <use xlink:href="#t"/>
    </clipPath>
    <clipPath id="B">
      <use xlink:href="#u"/>
    </clipPath>
    <clipPath id="A">
      <use xlink:href="#v"/>
    </clipPath>
    <clipPath id="z">
      <use xlink:href="#w"/>
    </clipPath>
    <clipPath id="y">
      <use xlink:href="#x"/>
    </clipPath>
    <path d="M137.7 82.3h47.9v9.2h-47.9z" id="a"/>
    <path d="M52 79.1h64.8v9.5H52z" id="b"/>
    <path d="M166.3 99.9h2v2h-2z" id="c"/>
    <path d="M87.3 95.2h2v2h-2z" id="d"/>
    <path d="M150.2 110.4h36.3v11.7h-36.3z" id="e"/>
    <path d="M141.2 89.5h47.7V115h-47.7z" id="f"/>
    <path d="M66.8 103H102v13.9H66.8z" id="g"/>
    <path d="M65.8 84.8h47.8v27.5H65.8z" id="h"/>
    <path d="M165.1 87.8h27.8v30.5h-27.8z" id="i"/>
    <path d="M62.3 82.8h28.9v28.6H62.3z" id="j"/>
    <path d="M187.4 86h12.3v3.9h-12.3z" id="k"/>
    <path d="M116.6 82.1h21.7v5.3h-21.7z" id="l"/>
    <path d="M51.6 77.2h20.2v3H51.6z" id="m"/>
    <path d="M49.1 81.6h156.3v46H49.1z" id="n"/>
    <path d="M139.8 88.1h50.1v35h-50.1z" id="o"/>
    <path d="M64.4 83.4h50.5v34.2H64.4z" id="p"/>
    <path d="M49.1 76.1h157.3v53.1H49.1z" id="q"/>
    <path d="M59.9 88.7h133.7v42.5H59.9z" id="r"/>
    <path d="M39.1 51.5h39.4v35.7H39.1z" id="s"/>
    <path d="M124 143.8h5.5v14.7H124z" id="t"/>
    <path d="M109.9 137.5h29.7v10.3h-29.7z" id="u"/>
    <path d="M109.8 137.9h30.1v23.2h-30.1z" id="v"/>
    <path d="M103.1 149.4h50.2v20.7h-50.2z" id="w"/>
    <path d="M82 127.9h89.6v45.4H82z" id="x"/>
  </defs>
  <path d="m14.054 76.935.115-.285.019-.038.285-.704.343-.933c.076-.164.133-.343.19-.533l.609-1.503.4-.762.475-.705.134-.19.209-.134c.018-.019.057-.037.095-.057.095-.058.209-.095.285-.134a4.868 4.868 0 0 1 .495-.171l.933-.23 1.827-.342 3.635-.475 7.27-.572 3.102-.076h.571l1.903.134c.23.037.438.076.59.133a.43.43 0 0 1 .134.058l.19.076.153.133.164.164c.209.21.437.457.666.743.723.914 1.37 2.016 1.942 3.273.552 1.218.902 2.295 1.104 3.36l.286 1.504h-3.503l-.209-1.008c-.23-1.066-3.102-3.883-4.53-4.426-.152-.057-.762-.23-2.645-.23-3.882 0-9.364.686-10.144.857-.933.438-2.36 2.264-3.178 4.092l-.343.743" class="R"/>
  <path d="M37.844 71.378a4.475 4.475 0 0 0-.57-.628l-.134-.134s-.02 0-.038-.019a1.746 1.746 0 0 0-.36-.076c-.552-.076-1.142-.095-1.733-.114a55.756 55.756 0 0 0-3.606.076l-7.194.571-3.578.475-1.751.324-.838.21a2.164 2.164 0 0 0-.38.133c-.057.019-.115.037-.134.076 0 0-.018 0-.018.019l-.4.59c-.134.209-.23.437-.343.666l-.571 1.408-.533 1.466-.305.742a2.696 2.696 0 0 1-.152.343h1.618c.875-1.96 2.53-4.206 3.9-4.758.381-.152 6.51-.914 10.564-.914 1.503 0 2.53.115 3.102.324 1.655.656 4.967 3.711 5.31 5.367h.933c-.19-1.047-.57-2.074-1.008-3.066-.495-1.141-1.085-2.188-1.789-3.083" class="S"/>
  <path d="M37.121 70.58z" class="R"/>
  <path d="M37.121 70.58z" class="S"/>
  <g class="R">
    <path d="m39.595 78.706-.19-1.028c-.164-.857-.457-1.77-.914-2.787-.495-1.065-1.028-1.998-1.637-2.74a3.967 3.967 0 0 0-.342-.4c-.476-.077-1.028-.077-1.523-.095h-.533l-2.988.076-7.118.571-3.502.457-1.675.304-.742.19c-.038 0-.058.02-.076.02-.038.076-.095.133-.134.208-.095.153-.164.324-.305.552-.209.438-.38.902-.533 1.295-.076.164-.133.343-.19.514l-.36.97-.305.762-.02.038c-.037.115-.094.23-.133.324l-.342.762h-2.227l-.324-.152-.038-.02c-.762-.437-.762-1.084-.742-1.352v-.057l.038-.164.164-.628c.076-.285.163-.551.266-.82l.628-1.597.799-1.58c.133-.247.285-.495.475-.78l.552-.78a2.115 2.115 0 0 1 .437-.418h.02a1.05 1.05 0 0 1 .284-.172 2.81 2.81 0 0 1 .4-.19c.23-.096.438-.153.61-.21l1.007-.247 1.886-.343 3.692-.456 7.346-.533 2.854-.076h.876l2.036.152h.02c.163.038.437.077.742.164h.019c.076.038.19.077.323.134l.23.134.095.076.076.057.285.285c.248.248.476.514.723.838.762.99 1.428 2.13 2.037 3.483a16.31 16.31 0 0 1 .723 1.866c.209.666.36 1.294.475 1.903l.23 1.465h-3.464z"/>
    <path d="m15.263 78.706.838-1.808c.705-1.503 2.398-4.264 4.282-5.044l.038-.019c.628-.23 6.984-.97 10.867-.97 2.17 0 2.989.209 3.408.38 1.96.762 5.366 3.977 5.823 5.88l.38 1.561H15.264z"/>
    <path d="m38.32 78.706-.23-.97c-.209-.902-2.893-3.58-4.282-4.131-.134-.058-.685-.21-2.512-.21-3.73 0-9.135.667-10.01.838-.723.36-2.037 1.903-2.894 3.73l-.342.722h-3.16l.8-1.77c.932-2.093 2.786-4.682 4.586-5.405.705-.286 7.137-1.008 11.038-1.008 1.694 0 2.836.133 3.54.4 1.961.762 5.634 4.073 6.09 6.28l.305 1.523z"/>
    <path d="m39.785 78.706-.36-.343c-1.37-1.275-1.751-3.92-1.332-5.005.285-.723.901-.97 1.352-.97a1.106 1.106 0 0 1 .361.057c.248-.019.82-.495.99-.762.267-.495.78-.8 1.409-.8.932 0 2.455.743 2.95 1.447.285.4.36.875.21 1.295-.02.038-.039.115-.077.209-.514 1.54-1.18 3.426-1.721 4.301l-.36.59z"/>
    <path d="m39.67 78.706 1.18-1.922c.572-.933.971-1.694 1.23-2.284-.666.475-1.598.762-2.988.837l-.038-.038-.019.134c-.82 0-1.475-.666-1.523-1.475-.018-.4.134-.8.4-1.104s.656-.476 1.047-.495c1.37-.058 1.54-.38 1.79-.857.342-.655 1.084-1.027 2.055-1.027.247 0 .495.018.723.076 1.199.266 1.979 1.18 2.036 2.36.058 1.2-.609 2.95-1.942 5.196l-.36.61z"/>
    <path d="M44.676 74.956c-1.54 0-3.216-1.008-4.073-1.998-.78-.893-.856-1.694-.78-2.208.095-.628.609-1.257 1.54-1.257.173 0 .343.02.496.038.152-.685.514-2.113 1.979-2.113h.209c.705.077 1.238.514 1.447 1.18a1.78 1.78 0 0 1 .799-.208 1.672 1.672 0 0 1 1.218.532c.513.552.627 1.313.304 2.037.343.209.61.533.723.95a1.77 1.77 0 0 1-.285 1.561c-.666.933-2.208 1.37-3.426 1.408-.076.076-.115.076-.152.076m-1.521-31.343c-1.39.875-2.912 2.873-4.779 5.614-.285.438-.762.666-1.294.666-.686 0-1.561-.418-2.57-1.237-1.598-1.295-1.637-2.016-1.655-2.295-.038-.762.532-1.408 1.331-1.483 1.541-.134 2.817-1.066 4.054-1.96s2.38-1.722 3.75-1.722a4 4 0 0 1 .818.095"/>
    <path d="M10.134 44.372c.933-.857 2.188-1.295 3.73-1.295 1.331 0 2.911.323 4.68.97.476.164 1.105.209 1.58.209h.705c.438 0 1.37 0 1.77.856.134.324.305.99-.209 1.77-.628.971-2.284 1.999-3.882 1.999h-.076c-.857-.019-1.656-.475-2.589-.99-1.16-.656-2.475-1.39-4.034-1.39a7.376 7.376 0 0 0-.648.038M38.834 53.6c-.686 0-1.98-.285-2.798-2.227a7.614 7.614 0 0 1-.61-2.836c0-1.331.705-1.694 1.142-1.789.305-.305.876-1.085 1.295-1.674 1.732-2.36 2.988-3.901 4.454-3.901.247 0 .475.037.705.133 1.96.78 2.912 2.436 2.588 4.53-.23 1.541-1.2 3.36-2.627 5.044-.666.78-2.398 2.606-3.94 2.72h-.209"/>
    <path d="M16.338 54.325c-.163 0-.342 0-.495-.037-2.435-.4-5.481-2.855-6.622-5.387-.78-1.731-.438-2.912 0-3.606.705-1.123 1.75-1.72 3.045-1.72 1.56 0 3.12.856 4.491 1.597.533.285 1.295.705 1.618.78a1.106 1.106 0 0 1 .362-.057c.495 0 .95.267 1.217.723.628 1.104.248 4.073-.742 5.786-.685 1.257-1.721 1.903-2.874 1.903z"/>
    <path d="M24.826 75.565c-5.71 0-11.362-2.798-13.246-4.834-1.96-2.113-2.664-4.51-2.131-7.137.457-2.15 1.656-4.073 2.702-5.786.723-1.18 1.408-2.284 1.598-3.083 2.322-10.258 8.147-11.573 12.961-11.573.305 0 .628 0 .99.019 10.258.305 11.286 5.245 11.895 8.222.115.552.23 1.065.36 1.408 3.445 8.442 4.017 13.512 1.904 16.938-2.074 3.36-6.623 5.024-15.682 5.767-.438.038-.902.057-1.353.057z"/>
    <path d="M24.617 75.584c-5.824 0-11.21-2.893-13.017-4.852-1.96-2.113-2.664-4.51-2.131-7.137.456-2.15 1.655-4.073 2.702-5.786.723-1.18 1.408-2.285 1.598-3.084 2.322-10.258 8.147-11.572 12.961-11.572.305 0 .628 0 .99.019 10.258.305 11.286 5.245 11.895 8.222.114.551.23 1.065.36 1.408 3.388 8.317 3.94 13.341 1.866 16.767-2.38 3.94-7.975 5.215-15.626 5.938-.532.057-1.065.076-1.598.076"/>
    <path d="m39.443 68.428.229-.533c.78-1.865 1.37-3.502.438-4.548-1.104-1.218-5.767-3.426-9.916-5.367-7.936-3.75-12.846-6.167-13.55-8.565a2.246 2.246 0 0 1 .229-1.77c1.37-2.15 5.196-4.454 10.429-4.454h.152c4.93.038 8.508 1.466 10.658 4.206 1.828 2.322 2.227 5.044 2.531 7.024.095.667.23 1.523.36 1.75 3.73 6.415 2.017 11.154.667 13.38z"/>
    <path d="M35.541 61.044c-1.922 0-5.138-.476-6.242-1.541-.876-.838-1.2-2.227-1.541-3.579-.134-.57-.36-1.475-.572-1.903h-.018l-.248.686c-.514 1.446-1.23 3.444-2.74 4.53-.656.475-2.989.9-4.797.9s-3.178-.38-4.092-1.16c-1.313-1.104-2.295-3.14-2.97-6.051-.037-.02-.057-.038-.094-.058-.305-.209-.705-.456-.914-.901-.343-.686-.21-1.903.152-2.55.267-.476.723-.781 1.218-.82h.164c.266 0 .533.037.838.095s.666.114.97.114h.164a35.266 35.266 0 0 1 5.058-.388c3.75 0 5.738.762 6.471 1.065l.152.058a4.213 4.213 0 0 0 1.028.133c.153 0 .305 0 .438-.037a30.989 30.989 0 0 1 4.796-.38c3.959 0 6.052.9 6.967 1.294.076.038.152.076.209.076h.076c.247 0 .609-.076.914-.133l.666-.134h.164c.59 0 1.123.343 1.446.914.361.666.61 2.056.096 2.855-.343.532-.902.78-1.353.99a.877.877 0 0 0-.19.095l-.656 1.23c-.666 1.294-1.408 2.786-2.093 3.578-.609.685-1.75 1.008-3.483 1.008"/>
    <path d="M34.776 60.736c-1.523 0-3.674-.23-5.215-1.313-.876-.628-1.275-1.885-1.828-3.901l-.551-1.77-.305.78c-.572 1.54-1.353 3.635-2.787 4.51-.742.457-3.045.875-4.834.875-1.922 0-3.311-.437-4.11-1.275-2.038-2.13-2.437-4.167-2.684-5.366l-.115-.533c-1.199-.628-1.275-1.56-1.256-1.96.057-.743.627-1.296 1.331-1.296.476 0 .78.23 1.009.38.018.02.037.038.076.038.019 0 .076.02.095.038.305.095 1.199.343 1.389 1.503.038.21.343 1.428.838 2.702.78 2.037 1.331 2.38 1.389 2.398.656.23 1.408.343 2.264.343a10.638 10.638 0 0 0 3.065-.456c.285-.438.856-1.58 1.256-2.36 1.2-2.38 1.408-2.742 1.922-3.009.285-.152.628-.23 1.066-.23.57 0 1.389.134 1.77.306.875.38 1.332 1.522 2.36 4.472l.572 1.56c.762.361 2.493.61 4.3.61l1.142-.038.628-1.313c1.447-3.083 1.675-3.445 2.037-3.73.628-.475 1.732-.798 2.36-.798.838 0 1.295.551 1.408 1.085.21 1.104-.875 1.523-1.229 1.655l-.324.134c-.133.23-.38.723-.571 1.123-1.56 3.045-2.074 3.882-2.664 4.244-.723.4-2.475.59-3.806.59"/>
    <path d="M14.718 51.72c-.23 0-.666-.037-1.54-.323l-.572-.209c-.285-.115-1.028-.4-1.028-1.275v-1.274h1.257c.164 0 .285.038.38.057.266.038 1.123.096 1.408.115l.164.02c.23 0 .933-.096 1.23-.135l.655-.076h1.085l.164 1.066a1.282 1.282 0 0 1-.914 1.408c-.037.019-.164.057-.285.095-.666.247-1.332.475-1.903.495-.038.038-.076.038-.115.038m25.147 1.825c-.41 0-.838-.164-1.408-.571-.552-.38-.97-.763-.97-1.428v-1.275h1.229c.164 0 .342.037.514.114a9.974 9.974 0 0 0 .875.286c.076 0 .23-.038.533-.096.152-.037.247-.037.38-.037h1.085l.164 1.065c.076.514-.153 1.16-.857 1.408l-.229.115c-.343.164-.743.36-1.142.438-.037-.02-.114-.02-.19-.02m-4.122 27.949h-4.681V77.44h4.681z"/>
  </g>
  <path d="M37.844 71.378a4.475 4.475 0 0 0-.57-.628l-.134-.134s-.02 0-.038-.019a1.746 1.746 0 0 0-.36-.076c-.552-.076-1.142-.095-1.733-.114a55.756 55.756 0 0 0-3.606.076l-7.194.571-3.578.475-1.751.324-.838.21a2.164 2.164 0 0 0-.38.133c-.057.019-.115.037-.134.076 0 0-.018 0-.018.019l-.4.59c-.134.209-.23.437-.343.666l-.571 1.408-.533 1.466-.305.742a2.696 2.696 0 0 1-.152.343h1.618c.875-1.96 2.53-4.206 3.9-4.758.381-.152 6.51-.914 10.564-.914 1.503 0 2.53.115 3.102.324 1.655.656 4.967 3.711 5.31 5.367h.933c-.19-1.047-.57-2.074-1.008-3.066-.495-1.141-1.085-2.188-1.789-3.083m-.723-.799z" class="S"/>
  <path d="M37.121 70.58zm3.388 3.406c-.514-1.141-1.104-2.226-1.885-3.216a7.425 7.425 0 0 0-.628-.722l-.266-.267c-.038-.019-.077-.038-.095-.057a.688.688 0 0 0-.173-.076c-.209-.077-.36-.095-.532-.134-.656-.095-1.257-.115-1.866-.134a58.43 58.43 0 0 0-3.653.058l-7.27.532-3.635.457-1.808.324-.914.23a2.901 2.901 0 0 0-.476.17l-.266.134c-.038.038-.095.057-.153.095a.852.852 0 0 0-.19.19 8.966 8.966 0 0 0-.495.685l-.438.723-.742 1.466-.59 1.503a5.065 5.065 0 0 0-.23.762l-.164.571-.019.095c0 .02.038.038.115.096h1.123l.152-.343.305-.723.533-1.465.571-1.408.343-.667.4-.59s.019 0 .019-.019c.037-.019.095-.037.133-.076l.38-.133.838-.21 1.75-.323 3.58-.476 7.194-.57 3.606-.077 1.731.115c.134.019.267.057.361.076.019 0 .038 0 .038.019l.133.133.572.628c.704.902 1.295 1.943 1.789 3.008.437.99.82 2.016 1.008 3.065h.95c-.094-.59-.247-1.16-.41-1.72l-.704-1.733" class="Y"/>
  <path d="M34.266 72.444c-.495-.19-1.503-.305-2.95-.305-4.074 0-10.087.762-10.41.902-1.23.495-2.787 2.588-3.636 4.415h22.058c-.36-1.428-3.426-4.359-5.063-5.005" class="W"/>
  <path d="M34.4 72.083c-.551-.21-1.598-.324-3.102-.324-4.053 0-10.181.762-10.562.914-1.39.57-3.026 2.798-3.902 4.757h.41c.857-1.808 2.398-3.9 3.635-4.415.324-.133 6.338-.901 10.41-.901 1.447 0 2.456.095 2.95.305 1.638.627 4.702 3.578 5.063 5.005h.38c-.323-1.637-3.634-4.701-5.29-5.348" fill="#e5d0ae"/>
  <path d="M41.936 72.254c-.23.475-1.428 1.694-2.436 1.408-.533-.153-.438 2.664.78 3.786h2.208c.61-.97 1.56-3.94 1.675-4.243.133-.361-1.999-1.428-2.227-.951" class="S"/>
  <path d="M44.276 72.958c-.037-.61-.4-1.047-1.046-1.2-.514-.114-1.2-.018-1.37.306-.343.655-.763 1.427-2.836 1.54-.134 0-.248.134-.248.267s.134.247.267.247c2.169-.095 2.798-.932 3.253-1.789.095-.076.61-.164 1.028 0 .305.134.438.343.457.667.057 1.18-1.18 3.36-1.846 4.472h.59c.743-1.295 1.808-3.292 1.75-4.51" class="Y"/>
  <path d="M40.002 77.507c1.352-.324 2.55-1.675 2.645-3.607.019-.36-.723-1.046-.723-1.229s2.265.038 2.38.571c.095.533-1.409 3.75-1.922 4.283-.495.513-3.179.164-2.38-.02" class="U"/>
  <path d="M41.06 70.94c-.163 1.18 2.131 2.798 3.693 2.76 1.295-.038 2.76-.656 2.55-1.37-.209-.743-1.465.133-1.58-.381-.094-.495 1.466-1.428.838-2.113-.59-.628-1.275.99-1.96.762s.134-1.808-.723-1.903c-1.008-.095-.628 2.15-1.389 2.189-.533.057-1.37-.324-1.428.057" class="O"/>
  <path d="M41.06 70.94c-.163 1.18 2.131 2.798 3.693 2.76 1.295-.038 2.76-.656 2.55-1.37-.209-.743-1.465.133-1.58-.381-.094-.495 1.466-1.428.838-2.113-.59-.628-1.275.99-1.96.762s.134-1.808-.723-1.903c-1.008-.095-.628 2.15-1.389 2.189-.533.057-1.37-.324-1.428.057z" class="P Q V X"/>
  <path d="M41.714 70.93c.248.19 1.142.437 1.276.114.152-.324.266-.97.164-1.065-.077.305-.164.875-.495 1.008-.248.095-.78-.02-.951-.058m2.459-1.256c-.038.209-.21 1.199.305 1.332.437.115.762-.153 1.104-.705-.19.164-.667.59-1.028.438-.36-.164-.4-.552-.38-1.066m-2.199 2.678c2.589-1.276 3.121.799 2.989 1.218-1.028.164-2.836-.902-2.989-1.218m3.764-.82c-.438.495-.23.902.057.95.36.077.838-.304.762-.304-.095 0-.799.23-.932-.115-.095-.266.057-.41.115-.532" class="O"/>
  <path d="M16.165 74.836c8.317 4.778 24.817-.077 23.941-1.637-1.16-2.074-1.617-3.36-4.167-3.254-2.531.134-18.823 1.428-19.49 1.922-.656.514-1.37 2.34-.285 2.97" class="U"/>
  <path d="M34.305 46.142c3.729-.343 5.919-4.206 8.183-3.616-1.523.95-3.026 2.854-5.139 5.983-.514.742-4.073-2.265-3.044-2.36" class="W"/>
  <path d="M34.305 46.142c3.729-.343 5.919-4.206 8.183-3.616-1.523.95-3.026 2.854-5.139 5.983-.514.742-4.073-2.265-3.044-2.36z" stroke="#e5d0ae" stroke-width=".57125423" class="P Q a"/>
  <path d="M10.99 45.303c1.674-1.56 4.701-.95 7.137-.076 1.389.495 3.196.095 3.31.38.306.667-1.502 2.037-2.987 1.999-1.466-.02-3.921-2.787-7.461-2.295" class="S"/>
  <path d="M10.99 45.303c1.674-1.56 4.701-.95 7.137-.076 1.389.495 3.196.095 3.31.38.306.667-1.502 2.037-2.987 1.999-1.466-.02-3.921-2.787-7.461-2.295z" stroke="#895b2e" class="P Q V a" stroke-width=".81959"/>
  <path d="M36.854 47.988c.857.247 4.111-6.128 5.69-5.492 5.025 1.998-1.522 9.688-3.605 9.86-2.094.152-2.57-4.51-2.094-4.359" class="O"/>
  <path d="M36.854 47.988c.857.247 4.111-6.128 5.69-5.492 5.025 1.998-1.522 9.688-3.605 9.86-2.094.152-2.57-4.51-2.094-4.359z" class="P Q V X"/>
  <path d="M18.705 47.227c-1.389.609-6.31-4.549-8.392-1.23-1.37 2.189 2.786 6.605 5.748 7.08s3.36-6.166 2.645-5.843" class="O"/>
  <path d="M18.705 47.227c-1.389.609-6.31-4.549-8.392-1.23-1.37 2.189 2.786 6.605 5.748 7.08s3.36-6.166 2.645-5.843z" class="P Q V X"/>
  <g class="O">
    <path d="M40.73 43.725c-.265.875-2.511 3.14-2.207 5.081.115.723.875 2.855 1.199 2.787s1.142-.59 1.066-.475-1.142.901-1.541 1.104c-.4-.21-2.094-4.15-1.846-4.359.743-.666 3.008-4.092 3.33-4.13m-30.362 2.39c1.522-.933 4.3-.533 5.919 1.047.57.57.742 2.475-.552 3.768-.514.514 3.045-1.828 3.065-2.512 0-.685-.23-.875-.762-1.065-1.96-.723-4.016-2.399-5.804-2.36-1.16.018-1.694.819-1.866 1.122"/>
    <path d="M41.346 43.225c3.463 1.903-2.113 4.796-1.694 8.393-.723-.077-2.512-3.56-2.074-3.864.609-.41 3.178-4.682 3.768-4.53"/>
  </g>
  <path d="M14.625 54.916a3.475 3.475 0 0 0 .096-.762 5.09 5.09 0 0 1 .095-.78 1.262 1.262 0 0 1 .114-.38c.057-.115.095-.248.133-.361l.305-.723c.438-.97.933-1.885 1.54-2.74s1.276-1.656 2.038-2.341a8.548 8.548 0 0 1 2.607-1.656 10.63 10.63 0 0 1 3.008-.762c1.027-.134 2.055-.153 3.083-.134l3.083.21c1.028.133 2.056.36 3.045.722a9.737 9.737 0 0 1 1.428.666 6.966 6.966 0 0 1 1.294.97c.4.361.742.8 1.027 1.257s.495.951.686 1.466c.164.495.305 1.008.41 1.523l.304 1.475c.058.23.134.456.21.685l.798 2.17c.667 1.942 1.257 3.92 1.618 5.937.164 1.008.305 2.037.324 3.066s-.076 2.055-.36 3.044l-.248.723c-.095.23-.23.457-.305.705-.038.134-.076.248-.134.36s-.133.23-.209.343a5.076 5.076 0 0 1-.475.628c-.666.8-1.523 1.447-2.436 1.942s-1.903.876-2.893 1.161l-3.026.705-3.045.456-1.54.164-.763.076-.78.058c-2.093.115-4.18-.19-6.185-.743A22.317 22.317 0 0 1 16.54 73a19.802 19.802 0 0 1-2.76-1.466 10.268 10.268 0 0 1-1.275-.97l-.305-.285c-.095-.095-.164-.21-.266-.305l-.495-.628c-.59-.875-1.066-1.903-1.218-2.97-.164-1.085-.019-2.188.285-3.196.305-1.028.78-1.96 1.275-2.873l1.599-2.627.742-1.313c.21-.571.4-1.008.495-1.465zm.763.163c-.134.533-.36 1.028-.61 1.504l-.78 1.352-1.56 2.606c-.475.875-.914 1.79-1.18 2.721s-.38 1.903-.23 2.855c.153.932.552 1.827 1.123 2.606.134.19.305.38.457.571.076.095.164.19.247.267.076.095.164.164.248.247.342.324.742.61 1.16.902a18.976 18.976 0 0 0 2.646 1.408c.914.4 1.865.742 2.836 1.008a22.506 22.506 0 0 0 2.93.609 17.154 17.154 0 0 0 2.97.133l.742-.057 2.285-.23 3.007-.4 2.951-.627c.97-.267 1.922-.571 2.836-.97.901-.41 1.77-.933 2.475-1.637a6.819 6.819 0 0 0 .495-.552l.23-.305c.076-.095.163-.19.247-.305.164-.209.247-.437.36-.666a4.639 4.639 0 0 0 .23-.723c.248-.99.305-2.016.248-3.026a18.074 18.074 0 0 0-.496-3.008c-.475-1.979-1.18-3.882-1.921-5.766l-.572-1.408-.305-.705-.266-.762-.343-1.503a11.46 11.46 0 0 0-.38-1.428c-.324-.933-.799-1.77-1.503-2.436-.685-.666-1.54-1.18-2.455-1.56s-1.904-.628-2.894-.8-1.998-.266-3.007-.323c-1.009-.038-2.037-.058-3.045.057s-1.998.324-2.931.723a8.114 8.114 0 0 0-2.512 1.618c-.743.685-1.332 1.523-1.77 2.398-.457.901-.78 1.846-1.066 2.798a8.12 8.12 0 0 0-.19.723c-.038.115-.057.247-.095.36-.019.058-.019.134-.038.19s-.037.115-.076.165l-.324.685c-.037.209-.114.437-.164.685z" fill="#e5d0ae"/>
  <path d="M15.006 55.01c-.8 3.541-7.785 9.136-2.475 14.865 1.808 1.942 7.67 4.929 13.55 4.376 15.302-1.446 19.166-5.139 12.714-20.981-1.047-2.57.134-8.508-11.113-8.85-4.721-.134-10.393.514-12.675 10.573" class="W"/>
  <path d="M17.651 48.083c.495-.762 1.142-1.389 1.866-1.903s1.54-.901 2.36-1.199c1.675-.609 3.426-.837 5.177-.901 1.75-.038 3.52.095 5.234.532.856.23 1.694.533 2.493.97s1.54.971 2.17 1.638a8.925 8.925 0 0 1 1.54 2.226 12.54 12.54 0 0 1 .894 2.531c.21.876.343 1.732.457 2.589l.209 1.256a3.18 3.18 0 0 0 .152.552l.058.114.037.038.038.076.164.285c.837 1.541 1.465 3.236 1.694 5.006.115.875.134 1.77.038 2.663a9.302 9.302 0 0 1-.667 2.57 11.573 11.573 0 0 1-.59 1.199l-.164.285-.19.285c-.019.019-.019.038-.038.058-.057-.038.077.133-.304 0-.096-.164-.038-.134-.058-.164 0-.058.019-.077.019-.115l.057-.164.095-.305c.267-.82.495-1.637.59-2.493.038-.41.058-.838 0-1.275-.057-.41-.163-.82-.38-1.16a1.221 1.221 0 0 0-.19-.248l-.209-.23a4.991 4.991 0 0 0-.476-.419 6.451 6.451 0 0 0-1.085-.666 5.548 5.548 0 0 0-2.475-.438c-.857.038-1.694.21-2.512.438l-1.23.38c-.209.076-.41.134-.628.19a1.811 1.811 0 0 1-.342.077c-.115.018-.21.037-.324.037a20.1 20.1 0 0 1-2.627.134 13.728 13.728 0 0 1-2.626-.305 12.982 12.982 0 0 1-2.512-.838c-.8-.38-1.56-.837-2.246-1.408s-1.295-1.218-1.828-1.922a11.9 11.9 0 0 1-2.113-4.815 11.138 11.138 0 0 1-.209-2.645 7.893 7.893 0 0 1 .172-1.332c.115-.343.267-.78.514-1.18zm.38.248a3.752 3.752 0 0 0-.437 1.142c-.095.4-.134.82-.164 1.229-.038.838.057 1.694.23 2.512.36 1.656 1.065 3.236 2.093 4.568a11.245 11.245 0 0 0 1.75 1.808 10.646 10.646 0 0 0 2.131 1.352c.761.362 1.56.628 2.398.82a12.45 12.45 0 0 0 2.513.323 16.392 16.392 0 0 0 2.55-.095l.324-.038.305-.057.609-.164 1.256-.342c.838-.21 1.721-.361 2.606-.361.876 0 1.77.152 2.57.533a6.106 6.106 0 0 1 1.123.685c.164.133.342.285.495.438l.23.229a1.442 1.442 0 0 1 .208.266c.248.38.38.82.438 1.276a6.253 6.253 0 0 1 .019 1.332c-.077.875-.267 1.731-.514 2.569l-.095.305-.038.152c0 .02-.019.058 0 .058-.019-.02.038.037-.038-.134-.36-.134-.23.038-.266-.019a4.418 4.418 0 0 1 .152-.266c.058-.095.095-.19.153-.285l.514-1.161c.57-1.58.685-3.311.4-4.967-.134-.837-.38-1.636-.686-2.417a17.859 17.859 0 0 0-1.085-2.285l-.152-.266-.076-.152a.688.688 0 0 1-.077-.173c-.095-.229-.152-.475-.209-.685l-.23-1.295-.456-2.512c-.19-.82-.456-1.618-.82-2.36s-.798-1.428-1.37-2.037c-1.103-1.199-2.626-1.998-4.243-2.475s-3.331-.628-5.044-.628c-1.694 0-3.407.21-5.005.743-.8.266-1.56.628-2.265 1.104-.723.456-1.332 1.028-1.789 1.732z" fill="#e5bfa1"/>
  <path d="M17.423 47.988c.285-.457.628-.82.97-1.161a9.07 9.07 0 0 1 1.142-.902 11.835 11.835 0 0 1 2.55-1.275c1.79-.628 3.674-.875 5.538-.837 1.846.057 3.711.285 5.492.932.901.324 1.75.743 2.53 1.313a8.772 8.772 0 0 1 2.037 2.016c.552.78.97 1.637 1.295 2.531.305.902.514 1.808.666 2.702l.21 1.353.208 1.295a2.04 2.04 0 0 0 .172.551l.153.305.164.305.609 1.23a15.45 15.45 0 0 1 .875 2.645c.21.902.305 1.828.305 2.76a10.34 10.34 0 0 1-1.503 5.29c-.076.116-.23.165-.343.096s-.152-.209-.114-.305l.762-1.998c.23-.666.38-1.352.38-2.016s-.164-1.313-.571-1.828a.418.418 0 0 0-.076-.095l-.038-.038-.038-.057-.164-.164a3.106 3.106 0 0 0-.38-.324c-.266-.209-.571-.4-.857-.59-1.199-.742-2.475-1.389-3.768-2.036l-3.892-1.82-7.841-3.692-3.825-2.131-1.866-1.428a3.88 3.88 0 0 1-.799-.99 1.803 1.803 0 0 1-.23-.762c0-.153 0-.305.039-.457a1.074 1.074 0 0 1 .076-.228.877.877 0 0 1 .095-.19zm1.065.655c-.037.058-.019.038-.037.058 0 .018 0 .018-.02.037v.077c0 .057.038.152.077.266.115.23.324.475.551.685.476.457 1.028.875 1.618 1.256 1.162.78 2.418 1.466 3.693 2.151 2.53 1.332 5.138 2.57 7.727 3.825l3.882 1.922c1.295.666 2.57 1.332 3.806 2.15.305.21.61.41.902.667.152.115.285.247.437.38a2.32 2.32 0 0 1 .21.23l.037.057.057.057c.038.038.058.077.095.115a3.68 3.68 0 0 1 .514 1.066c.115.38.134.78.134 1.16-.019.762-.23 1.503-.475 2.208s-.552 1.352-.838 2.016l-.457-.23c.902-1.522 1.313-3.273 1.295-5.023-.037-1.75-.495-3.483-1.229-5.082-.19-.4-.38-.799-.609-1.18l-.342-.609c-.134-.247-.19-.495-.248-.723a19.26 19.26 0 0 1-.266-1.37l-.23-1.313a14.986 14.986 0 0 0-.685-2.53c-.305-.8-.705-1.58-1.2-2.247a7.513 7.513 0 0 0-1.807-1.75 9.106 9.106 0 0 0-2.284-1.123c-1.637-.552-3.388-.743-5.14-.762-.874 0-1.73.037-2.587.19a13.712 13.712 0 0 0-2.494.628c-.799.285-1.579.655-2.284 1.104a6.565 6.565 0 0 0-.99.762c-.305.287-.59.571-.799.875z" class="Y"/>
  <path d="M17.842 48.197c-2.094 3.235.4 15.654 13.55 13.988 1.39-.164 6.015-2.645 9.136.82 1.694 1.903-.59 6.718 0 5.71.666-1.105 3.216-5.368-.61-11.934-1.217-2.113.8-12.257-12.37-12.39-5.044-.019-8.317 1.656-9.706 3.806" class="S"/>
  <g class="U">
    <path d="M17.492 48.992c3.787-2.436 15.245-2.265 18.9 3.578 2.436 3.882-2.016 13.474-3.673 14.693-1.637 1.217-3.921 2.284-9.935.837-5.1-1.218 2.57-5.957-3.407-6.642-5.463-.628-6.014-9.802-1.885-12.457"/>
    <path d="M28.081 58.411c0 .285-.551.533-1.229.533s-1.23-.23-1.23-.533c0-.285.552-.533 1.23-.533.685.02 1.23.248 1.23.533"/>
  </g>
  <g fill="#f8a38f">
    <path d="M25.893 56.857c.285-.19 1.808-.133 1.998.076.19.19.61.99.134 1.332-.164.115-.164-.36-.552-.285-.456.095-.209.685-.57.685-.553-.019-.02-.656-.496-.723-.36-.076-.438.285-.609.248-.551-.115-.305-1.066.095-1.332"/>
    <path d="M26.714 56.743c-.36 0-.704.038-.82.115-.4.266-.655 1.218-.114 1.313h.019c.134 0 .209-.266.495-.266h.095c.475.076-.038.722.495.722.343 0 .095-.57.571-.666h.077c.266 0 .304.305.41.305.018 0 .037 0 .057-.019.495-.342.076-1.142-.134-1.332-.095-.095-.656-.164-1.16-.164m0 .134c.57 0 1.008.076 1.085.134.114.114.342.532.305.837-.02.115-.058.21-.134.267 0-.02-.019-.02-.038-.038-.076-.095-.19-.248-.4-.248-.037 0-.076 0-.095.02-.323.075-.38.323-.437.494-.038.164-.058.164-.115.164-.153 0-.153-.038-.153-.209s0-.438-.342-.495h-.115c-.209 0-.343.134-.438.21-.018.018-.057.056-.076.056-.076-.018-.152-.057-.19-.209-.057-.266.134-.722.343-.875.114-.076.38-.115.799-.115"/>
  </g>
  <path d="M38.586 61.852c.571 3.654-3.996 8.241-10.144 9.193-6.147.933-10.677-4.549-11.248-8.222-.571-3.654 3.196-2.265 9.345-3.197s11.476-1.427 12.048 2.227" fill="#f7e8d0"/>
  <g fill="#d8cab2">
    <path d="M22.545 67.416c-.164-.267-.266-.59-.36-.902l-.286-.914c-.19-.608-.4-1.217-.685-1.789s-.656-1.104-1.104-1.503a3.41 3.41 0 0 0-1.599-.78c-.209-.076-.305-.285-.23-.475s.267-.286.438-.248c1.37.324 2.798.475 4.206.495s2.855-.057 4.283-.23 2.836-.41 4.225-.742l4.13-1.16a.36.36 0 0 1 .477.228.352.352 0 0 1-.114.4c-.038.038-.115.095-.164.153l-.164.19-.343.437a9.99 9.99 0 0 0-.628.933l-1.16 1.943-1.047 1.998-.457 1.027-.209.533a1.401 1.401 0 0 0-.076.267v.037c0 .02 0 .02-.019.038a.041.041 0 0 1-.038.038c-.019.018-.037.037-.076.057-.038.038-.095.057-.134.076-.36.153-.742.23-1.104.305a10.95 10.95 0 0 1-1.122.172l-2.265.19a15.1 15.1 0 0 1-2.264-.037 7.234 7.234 0 0 1-1.123-.19 2.675 2.675 0 0 1-.533-.21 1.15 1.15 0 0 1-.438-.342m.02-.019c.094.153.266.266.437.343a4.393 4.393 0 0 0 .533.19 5.565 5.565 0 0 0 1.122.172c.763.057 1.504.057 2.265.019s1.503-.134 2.246-.23l1.104-.209c.36-.095.742-.164 1.065-.323.038-.02.076-.038.115-.077.038-.019.057-.037.057-.057.019-.095.038-.19.076-.285l.164-.552.41-1.065.933-2.074 1.028-2.037a13.523 13.523 0 0 1 .57-1.008 4.426 4.426 0 0 1 .325-.495l.163-.248c.077-.076.134-.164.23-.247l.36.655a40.578 40.578 0 0 1-4.206 1.18l-4.3.763c-1.447.164-2.913.266-4.377.23s-2.931-.21-4.377-.553l.21-.762c.627.38 1.198.743 1.636 1.257s.742 1.104.99 1.72c.23.61.41 1.23.571 1.847l.248.932c.114.36.209.667.38.933"/>
    <path d="M22.55 67.417c-.173-.266-.267-.57-.361-.875l-.268-.913-.667-1.808a5.098 5.098 0 0 0-1.065-1.523 3.4 3.4 0 0 0-1.598-.875v-.019c-.095-.038-.153-.152-.115-.247s.134-.153.23-.134c1.389.324 2.816.475 4.263.495s2.873-.057 4.301-.23 2.836-.437 4.244-.742l4.149-1.16c.095-.038.209.018.247.114a.214.214 0 0 1-.057.21 3.375 3.375 0 0 0-.36.38l-.343.437-.61.95-1.141 1.961-1.008 2.017-.457 1.027a4.342 4.342 0 0 0-.19.533 1.401 1.401 0 0 0-.076.266c-.019.077-.076.096-.115.134s-.095.057-.133.076c-.361.153-.743.23-1.104.305l-1.123.19-2.265.21c-.762.037-1.522.037-2.264-.038a7.234 7.234 0 0 1-1.123-.19 4.632 4.632 0 0 1-.533-.19c-.19-.096-.36-.21-.456-.361m0-.02c.095.153.266.267.437.361.172.077.343.134.533.19.36.096.743.153 1.123.173.762.076 1.503.057 2.264.019a22.817 22.817 0 0 0 2.265-.23l1.123-.208c.36-.076.742-.172 1.065-.324a.415.415 0 0 0 .115-.076c.038-.019.076-.057.076-.076.02-.095.038-.19.076-.286.058-.19.115-.36.19-.532l.438-1.047.97-2.055 1.066-2.017.59-.97c.095-.172.21-.324.324-.475s.23-.305.4-.457l.19.343c-1.37.475-2.787.856-4.188 1.18a45.774 45.774 0 0 1-4.282.761c-1.447.172-2.894.267-4.359.23-1.447-.038-2.912-.19-4.339-.514l.095-.36c.628.247 1.2.627 1.637 1.122s.762 1.066 1.008 1.656.438 1.199.609 1.827l.266.933c.038.266.134.571.305.838"/>
  </g>
  <g fill="#333">
    <path d="M22.562 67.4c.97 1.522 8.907.475 9.04-.134.342-1.541 3.196-6.985 4.11-7.745-1.636.571-10.143 3.292-17.052 1.636 3.102 1.047 3.141 5.063 3.902 6.243"/>
    <g clip-path="url(#y)" transform="matrix(.19032 0 0 .19032 3.035 35.199)">
      <path d="M171.55 127.95c-6.7 2.3-34.9 11.4-64.1 11.4-8.6 0-17.2-.8-25.5-2.7 16.4 5.3 16.6 26.5 20.6 32.7 1.9 3 9.2 4.1 17.5 4.1 13.4 0 29.5-2.8 30-4.8 1.8-8.2 16.7-36.8 21.5-40.7m-5.6 3.9c-6.5 9.8-15.9 28.7-17.8 35.8-2.5 1.4-15.4 3.8-28.1 3.8-10.2 0-14.8-1.7-15.8-3.2s-1.8-4.3-2.6-7.5c-1.7-6.1-4.1-14.5-9.8-20.3 5 .6 10.2.9 15.7.9 23.8-.1 47.1-6.1 58.4-9.5"/>
    </g>
  </g>
  <path d="M25.816 68.2c-1.637 0-2.702-.23-3.12-.686-.039-.038-.039-.266.152-.705.456-1.046 1.865-2.835 4.3-2.988l.476-.019c2.855 0 4.568 1.447 4.568 1.694-.038.077-.077.19-.134.343l-.59 1.54c-.248.248-3.102.82-5.653.82" class="O"/>
  <path d="m27.624 63.708-.495.019c-3.33.209-4.872 3.502-4.53 3.901.495.533 1.77.723 3.216.723 2.57 0 5.672-.59 5.767-.875.285-.857.609-1.56.742-1.903.115-.343-1.808-1.885-4.7-1.866m0 .248c2.55 0 4.263 1.218 4.425 1.58a1.944 1.944 0 0 0-.115.284l-.59 1.503c-.4.23-3.065.743-5.538.743-1.54 0-2.606-.23-3.008-.628-.018-.133.115-.666.59-1.332.41-.609 1.637-2.036 3.75-2.15h.475" fill="#f8a38f"/>
  <g clip-path="url(#z)" transform="matrix(.19032 0 0 .19032 3.035 35.199)" class="O">
    <path d="M103.084 169.317c-1.2 5.4 31.9-21.1 49.7-8.4 3.7-4.9-16-13.2-27.5-11.3-9.7 1.7-19.7 7.9-22.2 19.7"/>
  </g>
  <path d="M23.932 61.995c.324.571.914 3.35 1.16 3.407s1.808.495 2.017.4c.23-.095.209-.628.437-.475.19.133.285.38.476.285.342-.164 1.352-.8 1.522-1.066.153-.285.134-1.865 0-3.12-.655.304-4.472.704-5.614.57" fill="#fff7e3"/>
  <g clip-path="url(#A)" transform="matrix(.19032 0 0 .19032 3.035 35.199)">
    <path d="M139.35 137.85c-3 1.3-18.7 3.1-26.6 3.1-1.2 0-2.1 0-2.9-.1 1.7 3 4.8 17.6 6.1 17.9 1.2.3 8 2.2 10.1 2.2.2 0 .4 0 .5-.1 1-.4 1.1-2.6 1.9-2.6.1 0 .3 0 .4.2.9.5 1.3 1.6 2.1 1.6.1 0 .3 0 .4-.1 1.8-.9 7.1-4.2 8-5.6.9-1.5.7-9.8 0-16.5m-.5.9c.6 6.8.6 14 0 15.2-.7 1.2-5.5 4.3-7.7 5.4h-.1c-.2 0-.5-.3-.7-.6-.3-.3-.6-.6-1-.9-.3-.2-.5-.3-.8-.3-.9 0-1.2.9-1.5 1.6-.2.4-.4 1-.7 1.1h-.3c-1.7 0-6.8-1.4-8.9-1.9-.4-.1-.7-.2-.9-.2-.6-.7-1.9-5.4-2.9-8.8-.9-3.1-1.7-6-2.4-7.7h1.9c7.5 0 21.5-1.6 26-2.9" fill="#ffdc99"/>
  </g>
  <g clip-path="url(#B)" transform="matrix(.19032 0 0 .19032 3.035 35.199)">
    <path d="M112.15 147.85c-.5-5.4 24.4-7.2 27.5-6.7 0-1.3-.2-2.1-.2-3.6-4.1 2.1-26.5 4.3-29.5 3.4.3.6 1.4 3.6 2.2 6.9" fill="#eadcbe"/>
  </g>
  <g clip-path="url(#C)" transform="matrix(.19032 0 0 .19032 3.035 35.199)">
    <path d="m124.558 143.768 1.4 3.5 1.2 3.6 2.2 7.2-1.7.5-.8-3.7-.9-3.7-.9-3.6-1.1-3.5z" fill="#ffdc99"/>
  </g>
  <g clip-path="url(#D)" opacity=".4" class="O" transform="matrix(.19032 0 0 .19032 3.035 35.199)">
    <path d="M40.384 59.116c13.2 3.4 11.1 26.2 18.9 28 7.9 1.8 18.2-18.8 19.2-23.3-15.2-6.5-22.3-14.1-33.2-11.9-3.6.7-8.6 6.2-4.9 7.2"/>
  </g>
  <g clip-path="url(#E)" opacity=".5" class="U" transform="matrix(.19032 0 0 .19032 3.035 35.199)">
    <path d="M76.967 125.833c16.6 1.3 30.3 2 35.2-3.1s6.7-27.7 14.7-27.1c6.8.5 9.1 29.9 13.5 30.7 4.4.9 35.5 9.4 43.3 1.4 7.7-8 11.3-13 9.5-17.8s-47.3-20.3-56.6-21.2-72.1 7-73.7 10.9c-1.6 4-3.3 3.4-3 7.6.6 8.1.5 17.3 17.1 18.6"/>
  </g>
  <path d="M26.539 52.784c.23 0 1.123-.076 1.332.095 1.142.901 1.104 4.567 2.295 5.71 1.065 1.027 6.89 1.77 7.898.608s2.493-4.701 2.836-4.967c.342-.247 1.104-.437 1.332-.799.23-.342.037-1.903-.495-1.827s-1.541.4-2.17.23c-.628-.191-3.692-2.114-11.392-.952-.743.115-1.475 0-1.998-.133s-3.407-1.808-11.153-.705c-.762.115-1.828-.23-2.208-.19s-.495 1.23-.343 1.54.951.572 1.047.951.799 4.111 2.627 5.653c1.942 1.637 6.89.495 7.327.19 1.96-1.39 2.398-5.405 3.065-5.405" fill="#333"/>
  <g clip-path="url(#F)" transform="matrix(.19032 0 0 .19032 3.035 35.199)">
    <path d="M88.438 76.123c-7.1 0-15.6.5-25.6 2-.6.1-1.2.1-1.8.1-3.5 0-7.6-1.1-9.5-1.1h-.3c-2 .2-2.6 6.5-1.8 8.1.8 1.7 5 3 5.5 5s4.2 21.6 13.8 29.7c4 3.4 10.6 4.5 17.2 4.5 10 0 19.9-2.5 21.3-3.5 10.4-7.4 12.8-28.5 16.3-28.5.5 0 1.8-.1 3-.1 1.6 0 3.3.1 3.9.5 6 4.7 5.8 24 12.1 30 3.6 3.4 17.4 6.3 28.2 6.3 6.1 0 11.3-.9 13.2-3.1 5.3-6.1 13.1-24.7 14.9-26.1s5.8-2.3 7-4.2c1.1-1.8.2-9.6-2.5-9.6h-.2c-2.2.3-6 1.4-9.1 1.4-.8 0-1.6-.1-2.3-.3-2.6-.8-12.7-6.9-35.7-6.9-6.9 0-14.9.5-24.2 1.9-1.1.2-2.3.2-3.3.2-2.7 0-5.2-.4-7.1-.9-2-.2-11.2-5.4-33-5.4m0 2c18.1 0 27.4 3.6 30.8 5 .7.3 1.2.5 1.7.6 1.8.4 4.5 1 7.6 1 1.2 0 2.5-.1 3.6-.3 8.5-1.3 16.5-1.9 23.9-1.9 19 0 28.9 4.2 33.2 6.1.9.4 1.5.6 2 .8.9.3 1.8.4 2.9.4 2.2 0 4.6-.5 6.6-.9.9-.2 1.8-.4 2.5-.5.9 1 1.5 5.4 1 6.6-.4.6-2.1 1.4-3.3 1.9s-2.3 1-3.1 1.6c-1.1.8-2.2 2.9-5.4 9.3-3.1 6.1-6.9 13.7-9.8 17-1 1.2-4.6 2.4-11.8 2.4-10.5 0-23.9-2.8-26.9-5.7-2.8-2.6-4.2-8.7-5.6-14.6-1.6-6.6-3.1-12.8-6.6-15.6-.9-.7-2.3-1-5.1-1h-3.1c-2.8 0-4 3.3-6.1 9.3-2.3 6.6-5.6 15.5-11.3 19.6-1.3.8-10.7 3.2-20.2 3.2-7.3 0-12.8-1.4-15.9-4-3.8-3.2-9.1-10.7-12.9-27.8-.1-.4-.2-.7-.2-.9-.5-1.9-2.3-3-3.8-4-.6-.4-1.6-1.1-1.8-1.4-.4-.9 0-4.2.6-5.3.7 0 1.7.2 2.8.4 1.9.3 4.3.7 6.5.7.7 0 1.5 0 2.1-.2 8.9-1.1 17.4-1.8 25.1-1.8" fill="#1a1a1a"/>
  </g>
  <g clip-path="url(#G)" opacity=".5" class="Q" transform="matrix(.19032 0 0 .19032 3.035 35.199)">
    <path d="M66.2 90.45c-.9 1.2-1.5 18.9 6 23.7 4.9 3.2 25.7 2.5 29.9.2 6.5-3.7 12.9-20.5 11.1-22.9-3-4-24.6-9.3-40.8-5.1-2 .4-5.1 2.6-6.2 4.1z" stroke="#333" stroke-width="4" stroke-miterlimit="10"/>
  </g>
  <path d="M15.634 52.403c-.164.23-.286 3.607 1.141 4.51.933.61 4.892.476 5.69.038 1.23-.704 2.456-3.9 2.114-4.358-.572-.762-4.682-1.77-7.765-.97-.38.094-.97.494-1.18.78" class="R"/>
  <g clip-path="url(#H)" transform="matrix(.19032 0 0 .19032 3.035 35.199)" opacity=".5" class="Q">
    <path d="M188.394 98.163c.8 1.3-1 18.9-9 22.8-5.3 2.5-25.8-.9-29.6-3.7-6-4.5-10.2-22-8.1-24.2 3.5-3.6 25.6-6 41.1.2 1.9.7 4.7 3.3 5.6 4.9z" stroke="#333" stroke-width="4" stroke-miterlimit="10"/>
  </g>
  <path d="M38.892 53.888c.152.247-.19 3.606-1.721 4.339-1.008.475-4.918-.164-5.634-.705-1.142-.857-1.943-4.18-1.541-4.606.666-.685 4.872-1.142 7.822.037.36.134.875.61 1.066.933" class="R"/>
  <path d="M20.145 54.458c-.095.743-.476 1.295-.838 1.23s-.552-.686-.457-1.428.476-1.295.838-1.23.552.686.457 1.428m15.168.838c.076.742-.153 1.37-.495 1.408-.361.038-.705-.533-.78-1.275s.152-1.37.494-1.408c.343-.02.686.551.78 1.275"/>
  <g fill="#333">
    <g clip-path="url(#I)" class="T" transform="matrix(.19032 0 0 .19032 3.035 35.199)">
      <path d="M51.475 82.75c2.3 1.5 4.4.6 4.9 3.6s7.4 29 16 32c14.1 4.9 31.9.1 34.3-1.4s13.7-26.8 15.6-27.8 7.9.1 9.2.7c3.9 1.7 11.1 29.1 13 30.5 8.7 6.1 36.6 5.6 37.9 4 1.4-1.7 11.8-25.6 13.7-27 2.7-2.1 9-3.5 9.2-2.6s-5.1 1.8-6.7 3.7c-1.6 2-12.1 24.9-15.4 26.9s-27.7 5.3-40.1-3.4c-5.9-4.2-8.2-29.1-12.9-30.5-3-.9-5.3-.8-7.5-.2-2.9 1.9-7 23.1-15.7 28.4-3.5 2.1-30.6 7.4-38.7-1.1-15.1-15.8-10.5-29.9-15.4-31.9-3.3-1.4-4-3.2-4-4.4.3-1.3 1.4-.3 2.6.5"/>
    </g>
    <g clip-path="url(#J)" class="T" transform="matrix(.19032 0 0 .19032 3.035 35.199)">
      <path d="M51.75 77.45c-1.6-.6 6.8 2.9 9.9 2.7s8.3-2.4 10-2.9c1.5-.5-7.8 1.2-10.1 1.1s-8.9-.6-9.8-.9"/>
    </g>
    <g clip-path="url(#K)" class="T" transform="matrix(.19032 0 0 .19032 3.035 35.199)">
      <path d="M116.6 82.15c2.9 1.3 4.2 4.6 7 4.9s6.2.8 7.8-.1 5.6-3 6.7-3.2c1.2-.2-8.7 1.3-12.4 1-3.7-.4-8-2.5-9.1-2.6"/>
    </g>
    <g clip-path="url(#L)" class="T" transform="matrix(.19032 0 0 .19032 3.035 35.199)">
      <path d="M187.575 85.975c-1.2-.5 4.4 4 6.1 3.8s4.7-2.1 6-2.6c1-.4-4 1-5.5.7-1.5-.1-5.4-1.4-6.6-1.9"/>
    </g>
    <g clip-path="url(#M)" class="T" transform="matrix(.19032 0 0 .19032 3.035 35.199)">
      <path d="M63.05 87.825c7.4-7.3 25-4.8 28.2-4.2-21.1 1.5-21.5 3.1-25.2 6.8-.5 2.9-1.2 12.5 2.1 20.9-3.7-2-7.6-21-5.1-23.5"/>
    </g>
    <g clip-path="url(#N)" class="T" transform="matrix(.19032 0 0 .19032 3.035 35.199)">
      <path d="M192.46 95.698c-6.4-8.2-24.1-8.1-27.4-7.8 20.7 4.3 20.9 5.9 24.1 10.1.2 2.9-.4 12.5-4.7 20.4 3.8-1.6 10.1-20 8-22.7"/>
    </g>
  </g>
  <g class="Z">
    <g clip-path="url(#O)" transform="matrix(.19032 0 0 .19032 3.035 35.199)">
      <path d="M66.412 102.575c.7-8.6 1.5-15.6 18.6-16.1 13.7-.4 24.6 2.8 26.1 6.1 1 2.1.2 11.3-6.6 19.7 4.4-3.9 11.4-19.4 8.4-21.3-11.1-7.1-33.2-7.3-41.4-4.4-1.5.5-3.9 2.2-5.5 4-.3 2.2-.3 10.8.4 12"/>
    </g>
    <g clip-path="url(#P)" transform="matrix(.19032 0 0 .19032 3.035 35.199)">
      <path d="M66.884 103.2c2.6 16.8 33.3 11.7 35.1 11-.1.9-16.1 5.4-29.5.2-5.4-2-5.8-13.1-5.6-11.2"/>
    </g>
    <g clip-path="url(#Q)" transform="matrix(.19032 0 0 .19032 3.035 35.199)">
      <path d="M186.957 110.087c.4-8.7.4-15.6-16.4-18.2-13.5-2.1-24.7-.3-26.7 2.8-1.2 1.9-1.6 11.2 4.2 20.4-3.9-4.5-9-20.6-5.7-22.2 11.9-5.7 33.9-3.2 41.6.7 1.4.7 3.7 2.6 5 4.7-.1 2.1-1.1 10.7-2 11.8"/>
    </g>
    <g clip-path="url(#R)" transform="matrix(.19032 0 0 .19032 3.035 35.199)">
      <path d="M186.383 110.613c-4.6 16.3-34.5 7.5-36.2 6.6 0 .9 15.3 7.3 29.3 3.9 5.6-1.4 7.5-12.4 6.9-10.5"/>
    </g>
  </g>
  <g class="R">
    <g clip-path="url(#S)" opacity=".25" transform="matrix(.19032 0 0 .19032 3.035 35.199)">
      <path d="M89.375 96.2c0-.5-.4-1-1-1a.94.94 0 0 0-1 1 .94.94 0 0 0 1 1 .94.94 0 0 0 1-1"/>
    </g>
    <g clip-path="url(#T)" opacity=".25" transform="matrix(.19032 0 0 .19032 3.035 35.199)">
      <path d="M168.375 100.9c0-.5-.4-1-1-1-.5 0-1 .4-1 1a.94.94 0 0 0 1 1 1.08 1.08 0 0 0 1-1"/>
    </g>
  </g>
  <g class="Z">
    <g clip-path="url(#U)" opacity=".1" transform="matrix(.19032 0 0 .19032 3.035 35.199)">
      <path d="M52.025 81.675c2.4 2.7 3.9 3 7.1 2.6 31.1-4 48.3-3.9 56.8 4 1.8 1.7.8-5.1-2.6-6-26.2-6.9-45.2-.7-49.2-.2-4.1.6-7-.3-12.1-.4"/>
    </g>
    <g clip-path="url(#V)" opacity=".1" transform="matrix(.19032 0 0 .19032 3.035 35.199)">
      <path d="M138.025 85.675c-.7.7-.4 7.9 3 5.2 9.8-7.8 30.3-6 44.6-1.2-2.3-4.5-19-7.6-28.4-7.5-4.5.2-17.3 1.5-19.2 3.5"/>
    </g>
  </g>
  <path d="M40.565 52.594c0 .057-.304.095-.666.095s-.666-.038-.666-.095.305-.095.666-.095c.38 0 .666.057.666.095m-25.654-1.637c0 .057-.305.057-.667 0s-.655-.153-.627-.21.304-.056.666 0c.36.039.656.135.628.21" class="Z"/>
  <path d="M93.252 64.925s-.267-.97.75-2.8 1.793-.848 1.793-.848.872.945-.12 2.35-2.423 1.3-2.423 1.3m-7.78 1.333c-1.163 3.03-3.974 1.793-3.974 1.793s-.315-1.1.606-4.12 3.054-1.842 3.054-1.842 1.478 1.14.315 4.168m-2.108-12.723s1.745-4.58 2.18-2.35-3.684 8.846-3.684 8.846c.048-1.478 1.503-6.495 1.503-6.495m-25.083 11.4c.073-2.932 1.987-4.217 2.666-3.587s.436 2.036-.848 2.884c-1.236.872-1.818.703-1.818.703m53.146-.485c-.097-.994-.994-.63-.994-.63s-1.43 1.115-2.7.994-.848-2.932-.848-2.932.267-2.593-.46-2.8c-.75-.218-1.648.68-1.648.68s-1.14 1.26-1.672 2.86l-.145.048s.17-2.8-.024-3.466c-.145-.315-1.503-.3-1.72.267s-1.3 4.508-1.38 6.18c0 0-2.133 1.793-3.974 2.108-1.866.3-2.302-.872-2.302-.872s5.04-1.406 4.87-5.43-4.07-2.545-4.508-2.205c-.436.315-2.7 1.696-3.37 5.477-.024.12-.073.703-.073.703s-1.963 1.3-3.03 1.648c0 0 3.03-5.113-.68-7.44-1.672-1.018-3.03 1.115-3.03 1.115s5.017-5.574 3.902-10.3c-.533-2.254-1.648-2.496-2.7-2.133-1.575.63-2.157 1.527-2.157 1.527s-2.036 2.932-2.496 7.32-1.163 9.645-1.163 9.645-.97.945-1.842.994c-.897.048-.485-2.642-.485-2.642s.68-4.096.63-4.798-.097-1.066-.92-1.3c-.8-.242-1.696.8-1.696.8s-2.35 3.562-2.545 4.096l-.12.218-.12-.145s1.648-4.847.073-4.92-2.617 1.72-2.617 1.72-1.793 3.03-1.866 3.37l-.12-.145s.75-3.514.606-4.386-.97-.68-.97-.68-1.042-.12-1.3.557-1.26 5.1-1.38 6.495c0 0-2.593 1.866-4.3 1.866-1.696.024-1.527-1.1-1.527-1.1s6.252-2.133 4.556-6.374c-.776-1.1-1.648-1.43-2.908-1.406s-2.738.8-3.756 3.054c-.485 1.1-.68 2.108-.68 2.884 0 0-1.163.218-1.77-.267s-.945 0-.945 0-1.042 1.478-.024 1.866 2.57.776 2.57.776c.145.63.557 1.696 1.793 2.617 1.842 1.406 5.404-.218 5.404-.218l1.454-.872s.048 1.3 1.115 1.503 1.503-.024 3.37-4.508l1.163-2.18.12-.024s-.848 4.386-.5 5.574 1.72 1.066 1.72 1.066.776.267 1.38-1.915c.63-2.18 1.793-4.46 1.793-4.46h.145s-.5 4.386.267 5.816c.8 1.43 2.835.436 2.835.436s1.43-.75 1.648-.97c0 0 1.696 1.43 4.096 1.163 5.356-1.066 7.27-2.496 7.27-2.496s.92 2.327 3.78 2.545c3.272.242 5.04-1.818 5.04-1.818s-.024 1.333 1.115 1.793 1.915-2 1.915-2l1.915-5.113h.17s.097 3.272 1.987 3.805 4.338-1.357 4.338-1.357.533-.267.412-1.26" fill="#e24b31"/>
</svg>
