<svg xmlns="http://www.w3.org/2000/svg" width="120" height="60" viewBox="0 0 120 60" version="1.1">
  <g transform="matrix(.9567 0 0 .9567 2.557 1.299)">
    <path style="fill:#782854;fill-opacity:1;fill-rule:evenodd;stroke-width:.40071911" d="M45.933 33.372V31.13h4.362v-2.392h-4.362v-2.242h5.575v-2.513h-8.356v11.905h8.35v-2.515zm9.266-2.03c0-.938.479-1.699 1.605-1.699s1.605.76 1.605 1.7v4.544h2.55V31.03c0-1.986-1.11-3.572-3.226-3.572-1.16 0-2.013.45-2.542 1.329l-.183-1.2h-2.373v8.3h2.564v-4.545zm12.083 2.539c-.238.093-.373.16-.772.16-.728 0-1.092-.37-1.092-1.108v-3.316h2v-2.029h-2v-2.25h-2.561v2.25h-1.204v2.029h1.204v3.78c.01.926.275 1.598.793 2.018.519.419 1.018.601 2 .601.43 0 1.25-.053 1.914-.282l-.282-1.853zm6.552-2.945c0-.79-.7-1.486-1.627-1.486-.89 0-1.582.724-1.582 1.486zm2.626.845c0 .19-.012.367-.029.54H70.6c0 .938.763 1.54 1.609 1.54.509 0 .93-.145 1.298-.567h2.666c-.477 1.56-1.938 2.722-3.964 2.722-2.595 0-4.149-1.867-4.149-4.286 0-2.485 1.667-4.272 4.107-4.272 2.523 0 4.295 1.735 4.295 4.323zm3.574.62a2.674 2.674 0 0 1 2.673-2.674v-2.268c-1.162 0-2.15.574-2.653 1.538l-.217-1.41h-2.368v8.3h2.565zm11.356.595h-2.777c-.198.475-.793.867-1.259.867-1.026 0-1.559-.876-1.559-2.131 0-1.032.363-2.086 1.612-2.086.701 0 1.059.392 1.208.929h2.774c-.23-1.316-1.286-3.114-4.035-3.114-2.483 0-4.168 1.697-4.168 4.27 0 2.55 1.605 4.287 4.168 4.287 2.066 0 3.599-1.187 4.036-3.022zm5.183.865c1.08 0 1.77-.892 1.77-2.131 0-1.098-.584-2.087-1.77-2.087s-1.77.989-1.77 2.087c0 1.239.689 2.131 1.77 2.131zm-4.38-2.131c0-2.717 2.033-4.272 4.38-4.272 2.346 0 4.38 1.555 4.38 4.272 0 2.66-2.006 4.286-4.38 4.286s-4.38-1.625-4.38-4.286zm12.247 4.157h-2.564v-8.3h2.373l.183 1.2c.503-.835 1.245-1.329 2.34-1.329 1.31 0 2.233.608 2.747 1.541.54-.897 1.586-1.54 2.81-1.54 2.115 0 3.224 1.585 3.224 3.57v4.858h-2.55v-4.545c0-.738-.448-1.699-1.503-1.699-1.061 0-1.503.948-1.504 1.699v4.545h-2.549v-4.545c0-.738-.448-1.699-1.503-1.699-1.062 0-1.504.95-1.504 1.7z"/>
    <path style="fill:#782854;fill-opacity:1;fill-rule:evenodd;stroke-width:.85964912" d="M20.865 27.667c-3.028.082-3.028 4.584 0 4.666h16.167c.11-.762.166-1.54.166-2.333 0-9.02-7.313-16.333-16.333-16.333S4.53 20.98 4.53 30s7.313 16.333 16.334 16.333c7.399 0 13.648-4.92 15.656-11.666h-2.45C32.146 40.104 26.959 44 20.865 44c-7.732 0-14-6.268-14-14s6.268-14 14-14c7.731 0 14 6.268 14 14H32.53c0-6.443-5.222-11.666-11.666-11.666S9.198 23.556 9.198 30s5.222 11.666 11.666 11.666c4.784 0 8.895-2.879 10.696-6.999h-2.612A9.333 9.333 0 0 1 11.532 30a9.333 9.333 0 0 1 9.333-9.333A9.333 9.333 0 0 1 30.198 30h-2.333c0-7.775-10.767-9.75-13.537-2.497-2.77 7.252 6.57 12.959 11.754 7.164h-5.217c-4.159 0-6.24-5.027-3.3-7.967 2.94-2.94 7.967-.858 7.967 3.3h-2.334a2.334 2.334 0 0 0-2.333-2.333Z"/>
  </g>
</svg>
