<svg xmlns="http://www.w3.org/2000/svg" viewBox="0 0 120 60" version="1.1" width="120" height="60">
  <path style="stroke-width:.51253098" d="M52.848 29.223h1.472c.662 0 1.26-.385 1.253-1.112 0-.646-.533-1.107-1.214-1.097h-1.512zm-2.568-4.157h4.837c1.313 0 3.143.574 3.143 2.624 0 1.312-.595 2.05-1.726 2.389.053 0 .646.256.89 1 .01 0 1.384 3.848 1.4 3.859h-2.852l-1.015-2.968c-.156-.456-.494-.759-.975-.759h-1.075v3.727H50.28zm44.416-.24c2.788 0 4.92 1.634 4.92 5.196 0 3.404-2.142 5.156-4.92 5.156-2.768 0-4.895-1.711-4.895-5.156 0-3.562 2.112-5.197 4.895-5.197zm-2.148 5.196c0 1.502.646 3.209 2.148 3.204 1.507 0 2.137-1.702 2.152-3.204 0-1.363-.645-3.203-2.152-3.203-1.502 0-2.148 1.697-2.148 3.203zm14.249 4.916-3.424-6.49v6.49h-2.486v-9.872h3.403l3.245 6.366v-6.366H110v9.872zM88.53 25.23l-.18 2.055c-1.352-.743-3.92-.763-3.92.405 0 1.733 4.577.482 4.577 4.193 0 3.644-4.362 3.685-7.186 2.84l.201-2.174c1.772.825 4.279 1.005 4.279-.425 0-1.574-4.598-.687-4.598-4.213 0-2.896 3.583-3.67 6.827-2.68zm-8.1 0-.18 2.055c-1.354-.743-3.922-.763-3.922.405 0 1.733 4.579.482 4.579 4.193 0 3.644-4.358 3.685-7.185 2.84l.2-2.174c1.771.825 4.28 1.005 4.28-.425 0-1.574-4.598-.687-4.598-4.213 0-2.896 3.582-3.67 6.826-2.68zm-7.901.154-.18 2.112c-2.169-1.256-5.492-.856-5.551 2.434-.06 3.29 3.422 3.767 5.63 2.65l.14 2.158c-3.9 1.214-8.558 0-8.537-4.808.02-4.69 4.715-5.986 8.497-4.546zm-9.792 9.554h-2.683v-9.872h2.683zM48.13 31.027h-4.68v1.84h4.96v2.065h-7.622v-9.866h7.544v2.05h-4.88V28.9h4.679z"/>
  <path style="stroke-width:.37700725" d="M14.005 44.799a2.992 2.992 0 0 1-2.06-5.62l16.543-6.064a2.992 2.992 0 0 1 2.059 5.619zm0-8.954a2.992 2.992 0 0 1-2.06-5.619l16.543-6.065a2.991 2.991 0 1 1 2.059 5.618zm0-8.954a2.992 2.992 0 0 1-2.06-5.618l16.543-6.065a2.991 2.991 0 1 1 2.059 5.617z"/>
</svg>
