<svg version="1.1" xmlns="http://www.w3.org/2000/svg" x="0" y="0" viewBox="0 0 120 60" width="120" height="60" style="enable-background:new 0 0 120 60">
  <path d="m74.2 24-.5.8c-1.4 2.5-3.1 5-5.2 7.7V21.7l1-.2-1 .2v-3.5h5.7V24zm-5.6 6.6.1.1-.1-.1zm13.6-12.4h5.2v21.5l8.3-21.5h6.1L110 40h-6.1l-1.4-3.8h-7.8L93.2 40H81.7V19.4l.5-1.2zm-8 13.1v3.8H81v4.8H68.6v-2.5c2-2 3.9-4 5.6-6.1zm-45.9-4.8c-.1-.5-.1-1-.1-1.5 0-2.2.7-4 2.1-5.3 1.4-1.4 3.2-2.1 5.3-2.1 2.3 0 4.6.6 6.9 1.8l-.1.2-2.1 4.2c-1.3-1-2.5-1.5-3.7-1.5-.6 0-1.2.2-1.7.6-.5.3-.7.8-.7 1.3v.4c.1.5.6 1 1.4 1.3.2.1 1 .4 2.5.8s2.7 1 3.6 1.7l.6.5c.3.3.6.8.8 1.2.2.5.3 1 .4 1.5v1.1c0 2.5-.7 4.4-2.2 5.7-1.5 1.3-3.6 2-6.3 2-2.6 0-5.1-.8-7.4-2.3l-.4-.1.9-1.2 1.7-2.5c.8.7 1.6 1.1 2.4 1.4l1.2.1h1.1c.6 0 1.1-.2 1.5-.4l.5-.3c.5-.4.8-.9.8-1.6v-.2c0-.5-.3-.9-.7-1.3-.5-.3-1.3-.7-2.7-1.1-1.2-.3-2.1-.7-2.8-.9-.6-.3-1.1-.6-1.5-.9-.6-.6-1.1-1.5-1.3-2.6zm68 5.3 2.4-7 2.3 7h-4.7z" style="fill-rule:evenodd;clip-rule:evenodd;fill:#575573"/>
  <path d="M56.5 45.6c1.2-1 2.4-2 3.6-3.1 3-2.7 5.9-5.7 8.5-8.9 2.4-3 4.4-5.7 5.8-8.5 1.5-2.7 2.4-5.1 2.7-7.1.3-2.1-.1-3.7-1.1-4.8-1.2-1.3-3.1-1.8-5.8-1.4-1.2.2-2.6.5-4 1-1.6.5-3.3 1.3-5.2 2.2 1.6-1 3.1-1.9 4.5-2.7 2.8-1.5 5.4-2.5 7.8-3.1 2.9-.7 5.1-.6 6.6.2l.6.4.5.5c1 1.1 1.3 2.7 1 4.8-.3 2.1-1.2 4.4-2.6 7.2-1.5 2.7-3.4 5.5-5.8 8.4-2.5 3-5.3 6-8.5 8.8-2.7 2.4-5.4 4.6-8 6.5-2.5 1.7-5 3.3-7.7 4.7 2.5-1.5 4.8-3.2 7.1-5.1zm9-23.1c.4.6.8 1.3 1.1 2 .6 1.4.9 2.9.9 4.6v.4l-5.4-6.2 3.4-.8zM63.2 20l-1 2.9 3.2-.6c-.3-.5-.8-1-1.3-1.4l-.9-.9zm-.2-.2-1.1 3-4.7-5.3c1.1.1 2.2.4 3.3.8.8.5 1.7 1 2.5 1.5zm-7.1-3.5-.1-.1.1.1c2.9-2.4 5.8-4.6 8.7-6.4-4 2-8.1 4.7-12.2 8l-1.7.5c-1.4.6-2.7 1.4-3.8 2.5-1.1 1-1.9 2.2-2.5 3.7l-.4 1.1-2.5 2.8.6.5c.3.3.6.8.8 1.2l.7-.9c0 1.6.3 3 .9 4.4.6 1.4 1.4 2.6 2.5 3.7 1.1 1 2.4 1.9 3.8 2.5 1.5.6 3.1.9 4.8.9 1.7 0 3.3-.3 4.8-.9 1.4-.6 2.7-1.4 3.8-2.5 1.1-1 2-2.3 2.5-3.7.6-1.3.9-2.7.9-4.2l-5.7-5.9-1 2.4c.5.9.8 1.9.8 3.1 0 1.7-.6 3.2-1.8 4.4-1.2 1.2-2.6 1.8-4.4 1.8-1.7 0-3.1-.6-4.3-1.8-1.2-1.2-1.8-2.6-1.8-4.4 0-1.7.6-3.1 1.8-4.3 1.2-1.2 2.6-1.8 4.3-1.8 1.1 0 2.1.2 2.9.7l2.9-.7-4.3-5.4-1.4-.1h-1.1l1.4-1.2zm3 7.6 2.8-.5-.9 2.4c-.2-.3-.5-.7-.8-1-.4-.3-.8-.6-1.1-.9zm-37.7 3.6c.6.4 1 1.1 1.2 1.9h-6.5c.3-1.7 1.4-2.6 3.3-2.6.8 0 1.5.2 2 .7zm-8.9-1.9c-1.6 1.6-2.4 3.7-2.3 6.4 0 2.6.9 4.7 2.6 6.2 1.7 1.5 4 2.3 6.8 2.2 4.4 0 7-2.1 8.1-6H22c-.3.7-.7 1.2-1.1 1.5-.4.3-.9.4-1.6.4-2.3 0-3.5-1.2-3.6-3.6l12-.1v-.8c0-2.8-.8-4.9-2.5-6.4-1.6-1.6-3.8-2.3-6.6-2.3-2.6.1-4.7.9-6.3 2.5zm24.3 9.5c.5-.4.8-.9.8-1.6l-1.3 1.9.5-.3zm.7 5.5c-.2.6-.3 1.2-.4 1.8-.3 2.1 0 3.7 1 4.8 1.2 1.3 3.1 1.8 5.8 1.4 2.6-.3 5.7-1.4 9.2-3.2-4.6 2.9-8.8 4.9-12.4 5.7-3.7.9-6.3.5-7.7-1.1-1-1.1-1.3-2.8-1-4.8.2-1.4.7-2.9 1.4-4.6l1.7.1 2.4-.1z" style="fill-rule:evenodd;clip-rule:evenodd;fill:#e4a130"/>
  <path d="M56.5 45.6c1.2-1 2.4-2 3.6-3.1 3-2.7 5.9-5.7 8.5-8.9 2.4-3 4.4-5.7 5.8-8.5 1.5-2.7 2.4-5.1 2.7-7.1.3-2.1-.1-3.7-1.1-4.8-1.2-1.3-3.1-1.8-5.8-1.4-1.2.2-2.6.5-4 1-1.4.8-3 1.6-4.5 2.7 3.5-1.8 6.6-2.9 9.2-3.2 1.8-.2 3.3-.1 4.4.4l.2.2c1 1.1 1.3 2.7 1 4.9-.3 1.8-1 3.9-2.2 6.3l-.5.8c-1.4 2.5-3.1 5-5.2 7.7l-.6.8c-2.5 3-5.3 6-8.5 8.8-3.5 3.2-7 5.9-10.7 8.2 2.6-1.4 5.1-3 7.7-4.8zm8.7-6c-2.7 2.4-5.4 4.6-8 6.5-2.3 1.9-4.7 3.6-7 5.1 5.2-2.6 10.4-6.4 15.7-11.1l2.7-2.6c2-2 3.9-4.1 5.7-6.2l.1-.1c2.4-2.9 4.3-5.7 5.8-8.4.6-1.1 1.1-2.2 1.6-3.3l.5-1.3c.3-.9.5-1.7.6-2.5.3-2.1 0-3.7-1-4.9-.3-.3-.7-.6-1.1-.9l.5.5c1 1.1 1.3 2.7 1 4.8-.3 2.1-1.2 4.4-2.6 7.2-1.5 2.7-3.4 5.5-5.8 8.4-2.8 3-5.6 5.9-8.7 8.8zm8.1-30.3c2.9-.7 5.1-.6 6.6.2-1.4-1.3-3.9-1.5-7.2-.7-3.6.9-7.7 2.8-12.3 5.8 1.9-1 3.6-1.7 5.2-2.2 2.8-1.5 5.4-2.5 7.7-3.1zm-7.9 12.9 3.2-.6 1-.2-1 .2-3 .8-3.3.8 5.4 6.2 1 1.1-1-1-5.7-5.9-1 2.4-2 4.4 1.7-4.6.9-2.4-2.8.5-6 1.1 5.6-1.3 2.9-.7-4.3-5.4-1.1-1.3 1.2 1.3 4.7 5.3 1.1-3 1.9-5.2-1.6 5.3-1 2.9 3.2-.7zm-9.5-5.9-.1-.1.1.1zm12.7 14.3.1.1-.1-.1zm-26.3-11 .2.1-2.2 4.4c-1.2-1-2.5-1.4-3.7-1.4-.7 0-1.3.2-1.7.5-.5.3-.7.8-.7 1.3v-.4c0-.5.2-.9.7-1.3.5-.4 1.1-.6 1.7-.6 1.3 0 2.5.5 3.7 1.5l2-4.1zm-4.9 13.8c0-.5-.3-.9-.7-1.3-.5-.3-1.3-.7-2.7-1.1-1.2-.3-2.1-.7-2.8-.9-.6-.3-1.1-.6-1.5-.9-.8-.7-1.3-1.6-1.5-2.8.2 1.3.7 2.3 1.6 3.1.4.3.9.6 1.5.9.6.3 1.5.6 2.8.9 1.3.4 2.2.8 2.7 1.1.3.4.5.7.6 1zm-5.1 2.3 1.2.1c-1.2-.3-2.5-1-3.7-2.1l-1.6 3.1 1.7-2.5c.7.8 1.5 1.2 2.4 1.4zm2.5 4.8c-2.6 0-5.1-.8-7.4-2.3l-.1.2c1.8 1.3 3.8 2.1 5.9 2.3l1.7.1 2.4-.2c1.6-.3 2.8-.9 3.9-1.8 1.5-1.3 2.2-3.2 2.2-5.7 0-.5 0-.9-.1-1.4v1.1c0 2.5-.7 4.4-2.2 5.7-1.5 1.3-3.6 2-6.3 2z" style="fill-rule:evenodd;clip-rule:evenodd;fill:#fff"/>
</svg>
