<svg xmlns="http://www.w3.org/2000/svg" version="1.1" x="0" y="0" viewBox="0 0 64 64" width="64" height="64">
  <g transform="translate(-40.267 -101.845) scale(3.19401)">
    <path style="stroke-width:.05988492" d="M28.806 51.648c-.365-.09-.73-.09-1.096-.09-.73 0-2.012.366-3.57.366-5.952 0-10.341-3.57-10.341-10.157 0-5.58 4.12-9.88 10.432-9.88 1.46 0 3.108.275 4.485.82.276-.276.365-.455.64-.73h.552c-.09 1.005-.455 4.299-.455 4.299h-.551c-.366-1.922-1.372-3.204-4.575-3.204-3.845 0-7.318 3.018-7.318 8.6-.006 6.317 3.557 9.066 7.491 9.066 2.563 0 4.12-1.461 5.126-3.294l.641.276z"/>
    <path style="stroke-width:.05988492" d="M25.692 47.9c-3.48 0-5.857-2.474-5.857-6.037 0-3.383 2.473-6.036 5.857-6.036 3.294 0 5.76 2.563 5.76 6.036.007 3.384-2.556 6.037-5.76 6.037zm0-10.977c-2.378 0-3.204 2.287-3.204 4.94 0 2.473.73 4.94 3.204 4.94 2.377 0 3.108-2.473 3.108-5.03.006-2.473-.91-4.85-3.108-4.85z"/>
  </g>
</svg>
