<svg version="1.1" xmlns="http://www.w3.org/2000/svg" xmlns:xlink="http://www.w3.org/1999/xlink" x="0px" y="0px" viewBox="0 0 120 60" style="enable-background:new 0 0 120 60" xml:space="preserve">
  <g>
    <path class="st0" d="m31.4 22.2-3.6.7-2.8 3.7L8.1 13.2l2.7 12.4 10.7 5.2-9.7-2.6 4.7 7.9 5.4-1.3-5.2 3.2-5.5 8.9 20.2-11.2v-8.2l3.9-6.1L31.4 22.2zM106.2 24c0 0-5.7 11.8-5.7 12h1.6l4.1-8.8 4.1 8.8h1.6C111.9 35.8 106.2 24 106.2 24zM60.4 24c0 0-5.7 11.8-5.7 12h1.6l4.1-8.8 4.1 8.8h1.6C66.1 35.8 60.4 24 60.4 24zM78.3 24.1v6.7c0 2.5-1.2 3.8-3.4 3.8-2.2 0-3.4-1.2-3.4-3.8v-6.7H70v6.8c0 3.3 1.7 5.1 4.9 5.1 3.1 0 4.9-1.8 4.9-5.1v-6.8H78.3zM94.1 24.1v8.5l-8.4-8.8V36h1.5v-8.4l8.4 8.7V24.1H94.1zM44.5 24.1V36H46v-5.3h4.5c.2-.5.5-1 .7-1.5H46v-3.6h6.9c.4-.7.6-1.3.7-1.5v0L44.5 24.1z"/>
  </g>
</svg>
