<svg xmlns="http://www.w3.org/2000/svg" width="120" height="60" viewBox="0 0 9.252 4.626" version="1.1">
  <g transform="matrix(.0478 0 0 .0478 .212 7.285)">
    <path d="m156.719-81.753-6.408-7.186-6.348 7.186h-13.356l13.053-14.672-13.053-14.672h13.774l6.469 7.127 6.228-7.127h13.293l-12.994 14.611 13.176 14.733zm-51.776 0v-46.228h25.664v10.305h-14.795v6.58h14.795v9.911h-14.795v9.1h14.795v10.332z" style="clip-rule:evenodd;fill:#d5652c;fill-rule:evenodd"/>
    <path d="M94.122-127.98v18.918h-.123c-2.396-2.755-5.389-3.712-8.862-3.712-7.175 0-12.507 4.942-14.344 11.418-2.113-7.14-7.635-11.55-15.903-11.55-6.713 0-11.942 3.076-14.673 8.016v-6.208H26.443v-6.579h15.033v-10.304H14.161v46.228h12.282v-19.432h12.31c-.371 1.438-.63 2.941-.63 4.57 0 9.643 7.364 16.411 16.767 16.411 7.908 0 13.118-3.713 15.875-10.48H60.241c-1.423 2.037-2.505 2.637-5.352 2.637-3.299 0-6.144-2.877-6.144-6.292h21.488c.935 7.653 6.839 14.265 15.023 14.265 3.533 0 6.768-1.734 8.743-4.67h.123v2.992h10.822v-46.229zm-45.034 26.933c.681-2.937 2.958-4.854 5.801-4.854 3.132 0 5.293 1.861 5.861 4.854zM87.55-88.79c-3.99 0-6.469-3.72-6.469-7.599 0-4.15 2.155-8.14 6.469-8.14 4.474 0 6.253 3.99 6.253 8.14 0 3.934-1.888 7.6-6.253 7.6z" style="clip-rule:evenodd;fill:#43338e;fill-rule:evenodd"/>
  </g>
</svg>
