<svg version="1.1" xmlns="http://www.w3.org/2000/svg" x="0" y="0" viewBox="0 0 64 64" width="64" height="64" style="enable-background:new 0 0 64 64">
  <radialGradient id="a" cx="-362.061" cy="337.807" r=".456" gradientTransform="matrix(159.1024 0 0 -159.1024 57662.012 53758.078)" gradientUnits="userSpaceOnUse">
    <stop offset="0" style="stop-color:#fff44f"/>
    <stop offset=".29" style="stop-color:#ff980e"/>
    <stop offset=".43" style="stop-color:#ff5d36"/>
    <stop offset=".53" style="stop-color:#ff3750"/>
    <stop offset=".75" style="stop-color:#f5156c"/>
    <stop offset=".76" style="stop-color:#f1136e"/>
    <stop offset=".88" style="stop-color:#da057a"/>
    <stop offset=".95" style="stop-color:#d2007f"/>
  </radialGradient>
  <path d="M57.6 12.6C51.8 5 42.8.3 33.3.1 25.9 0 20.7 2.2 17.8 4 21.7 1.8 27.3.5 32.2.5c12.7.2 26.3 8.8 28.3 24.3 2.3 17.8-10.1 32.7-27.6 32.7C13.7 57.5 2 40.5 5 25.3c.2-.8.1-1.5.3-2.2.1-2.7 1.2-6.9 3.4-11.2-2.2 1.1-5 4.8-6.4 8.1C.3 24.8-.4 30.6.2 36.1c0 .4.1.8.1 1.2 2.2 13.1 12.3 23.4 25.4 26 13 2.6 26.3-3.1 33.4-14.4s6.4-25.7-1.5-36.3z" style="fill:url(#a)"/>
  <radialGradient id="b" cx="-362.386" cy="337.788" r=".27" gradientTransform="matrix(159.1024 0 0 -159.1024 57661.734 53758.078)" gradientUnits="userSpaceOnUse">
    <stop offset="0" style="stop-color:#b5007f"/>
    <stop offset="1" style="stop-color:#f5156c;stop-opacity:0"/>
  </radialGradient>
  <path d="M57.6 12.6C51.8 5 42.8.3 33.3.1 25.9 0 20.7 2.2 17.8 4 21.7 1.8 27.3.5 32.2.5c12.7.2 26.3 8.8 28.3 24.3 2.3 17.8-10.1 32.7-27.6 32.7C13.7 57.5 2 40.5 5 25.3c.2-.8.1-1.5.3-2.2.1-2.7 1.2-6.9 3.4-11.2-2.2 1.1-5 4.8-6.4 8.1C.3 24.8-.4 30.6.2 36.1c0 .4.1.8.1 1.2 2.2 13.1 12.3 23.4 25.4 26 13 2.6 26.3-3.1 33.4-14.4s6.4-25.7-1.5-36.3z" style="fill:url(#b)"/>
  <radialGradient id="c" cx="-362.022" cy="337.833" r=".536" gradientTransform="matrix(159.1024 0 0 -159.1024 57662.043 53758.078)" gradientUnits="userSpaceOnUse">
    <stop offset="0" style="stop-color:#fd0;stop-opacity:.6"/>
    <stop offset=".09" style="stop-color:#ffd702;stop-opacity:.58"/>
    <stop offset=".2" style="stop-color:#fec606;stop-opacity:.52"/>
    <stop offset=".32" style="stop-color:#fda90e;stop-opacity:.43"/>
    <stop offset=".45" style="stop-color:#fc8119;stop-opacity:.3"/>
    <stop offset=".57" style="stop-color:#fa4e27;stop-opacity:.14"/>
    <stop offset=".66" style="stop-color:#f92433;stop-opacity:0"/>
  </radialGradient>
  <path d="M57.6 12.6C51.8 5 42.8.3 33.3.1 25.9 0 20.7 2.2 17.8 4 21.7 1.8 27.3.5 32.2.5c12.7.2 26.3 8.8 28.3 24.3 2.3 17.8-10.1 32.7-27.6 32.7C13.7 57.5 2 40.5 5 25.3c.2-.8.1-1.5.3-2.2.1-2.7 1.2-6.9 3.4-11.2-2.2 1.1-5 4.8-6.4 8.1C.3 24.8-.4 30.6.2 36.1c0 .4.1.8.1 1.2 2.2 13.1 12.3 23.4 25.4 26 13 2.6 26.3-3.1 33.4-14.4s6.4-25.7-1.5-36.3z" style="fill:url(#c)"/>
  <radialGradient id="d" cx="-362.207" cy="337.66" r=".691" gradientTransform="matrix(159.1024 0 0 -159.1024 57661.887 53758.078)" gradientUnits="userSpaceOnUse">
    <stop offset=".15" style="stop-color:#960e18"/>
    <stop offset=".18" style="stop-color:#b11927;stop-opacity:.74"/>
    <stop offset=".22" style="stop-color:#db293d;stop-opacity:.34"/>
    <stop offset=".26" style="stop-color:#f5334b;stop-opacity:9.000000e-02"/>
    <stop offset=".27" style="stop-color:#ff3750;stop-opacity:0"/>
  </radialGradient>
  <path d="M57.6 12.6C51.8 5 42.8.3 33.3.1 25.9 0 20.7 2.2 17.8 4 21.7 1.8 27.3.5 32.2.5c12.7.2 26.3 8.8 28.3 24.3 2.3 17.8-10.1 32.7-27.6 32.7C13.7 57.5 2 40.5 5 25.3c.2-.8.1-1.5.3-2.2.1-2.7 1.2-6.9 3.4-11.2-2.2 1.1-5 4.8-6.4 8.1C.3 24.8-.4 30.6.2 36.1c0 .4.1.8.1 1.2 2.2 13.1 12.3 23.4 25.4 26 13 2.6 26.3-3.1 33.4-14.4s6.4-25.7-1.5-36.3z" style="fill:url(#d)"/>
  <radialGradient id="e" cx="-362.259" cy="337.669" r=".691" gradientTransform="matrix(159.1024 0 0 -159.1024 57661.844 53758.078)" gradientUnits="userSpaceOnUse">
    <stop offset=".11" style="stop-color:#960e18"/>
    <stop offset=".15" style="stop-color:#b11927;stop-opacity:.74"/>
    <stop offset=".21" style="stop-color:#db293d;stop-opacity:.34"/>
    <stop offset=".26" style="stop-color:#f5334b;stop-opacity:9.000000e-02"/>
    <stop offset=".28" style="stop-color:#ff3750;stop-opacity:0"/>
  </radialGradient>
  <path d="M57.6 12.6C51.8 5 42.8.3 33.3.1 25.9 0 20.7 2.2 17.8 4 21.7 1.8 27.3.5 32.2.5c12.7.2 26.3 8.8 28.3 24.3 2.3 17.8-10.1 32.7-27.6 32.7C13.7 57.5 2 40.5 5 25.3c.2-.8.1-1.5.3-2.2.1-2.7 1.2-6.9 3.4-11.2-2.2 1.1-5 4.8-6.4 8.1C.3 24.8-.4 30.6.2 36.1c0 .4.1.8.1 1.2 2.2 13.1 12.3 23.4 25.4 26 13 2.6 26.3-3.1 33.4-14.4s6.4-25.7-1.5-36.3z" style="fill:url(#e)"/>
  <linearGradient id="f" gradientUnits="userSpaceOnUse" x1="-362.233" y1="336.537" x2="-362.069" y2="336.349" gradientTransform="matrix(114.9722 0 0 -75.9117 41686.852 25556.45)">
    <stop offset="0" style="stop-color:#ffbc04"/>
    <stop offset=".17" style="stop-color:#ffab02;stop-opacity:.62"/>
    <stop offset=".34" style="stop-color:#ff9b01;stop-opacity:.29"/>
    <stop offset=".45" style="stop-color:#ff9200;stop-opacity:8.000000e-02"/>
    <stop offset=".51" style="stop-color:#ff8e00;stop-opacity:0"/>
  </linearGradient>
  <path d="M60.5 24.8c.3 1.9.3 3.9.2 5.8 1.1-.2 2.1-.3 3.2-.4-.3-6.3-2.6-12.4-6.4-17.5C51.8 5 42.8.3 33.3.1 25.9 0 20.7 2.2 17.8 4 21.7 1.8 27.3.5 32.2.5c12.7.1 26.3 8.7 28.3 24.3z" style="fill:url(#f)"/>
  <radialGradient id="g" cx="-362.038" cy="337.694" r=".478" gradientTransform="matrix(142.6366 0 0 -142.6366 51695.387 48177.227)" gradientUnits="userSpaceOnUse">
    <stop offset="0" style="stop-color:#ff980e"/>
    <stop offset=".3" style="stop-color:#ff7139"/>
    <stop offset=".48" style="stop-color:#ff5b51"/>
    <stop offset=".63" style="stop-color:#ff4f5e"/>
    <stop offset=".74" style="stop-color:#ff4055"/>
    <stop offset=".84" style="stop-color:#ff3750"/>
  </radialGradient>
  <path d="M61.3 23.9C59.5 7.7 45 .4 32.2.5 27.3.5 21.7 1.7 17.8 4c-1 .6-2 1.3-2.8 2.2.1-.1.4-.3.9-.7h.1c1.9-1.3 4-2.2 6.2-2.9 3.4-1 7-1.3 10.5-1.2 14.4.8 24.6 12.8 25 25.5.3 10.5-8.4 18.9-18.3 19.4-7.2.4-14.1-3.1-17.4-10.1-.8-1.6-1.3-3.3-1.6-5.1C18.8 20.4 26 11.3 32.5 9c-3.5-3.1-12.4-2.8-19 2-4.8 3.5-7.9 8.8-8.9 15.2-.8 4.8 0 9.8 1.9 14.3 4.2 9.8 13.5 16.4 24.1 17.1.8.1 1.6.1 2.4.1 21.1 0 30.3-16 28.3-33.8z" style="fill:url(#g)"/>
  <radialGradient id="h" cx="-362.038" cy="337.694" r=".478" gradientTransform="matrix(142.6366 0 0 -142.6366 51695.387 48177.227)" gradientUnits="userSpaceOnUse">
    <stop offset=".08" style="stop-color:#ffde08"/>
    <stop offset=".15" style="stop-color:#ffdb08;stop-opacity:.97"/>
    <stop offset=".25" style="stop-color:#ffd209;stop-opacity:.88"/>
    <stop offset=".37" style="stop-color:#ffc40b;stop-opacity:.73"/>
    <stop offset=".51" style="stop-color:#ffb00d;stop-opacity:.53"/>
    <stop offset=".67" style="stop-color:#ff970f;stop-opacity:.28"/>
    <stop offset=".82" style="stop-color:#ff7b12;stop-opacity:0"/>
  </radialGradient>
  <path d="M61.3 23.9C59.5 7.7 45 .4 32.2.5 27.3.5 21.7 1.7 17.8 4c-1 .6-2 1.3-2.8 2.2.1-.1.4-.3.9-.7h.1c1.9-1.3 4-2.2 6.2-2.9 3.4-1 7-1.3 10.5-1.2 14.4.8 24.6 12.8 25 25.5.3 10.5-8.4 18.9-18.3 19.4-7.2.4-14.1-3.1-17.4-10.1-.8-1.6-1.3-3.3-1.6-5.1C18.8 20.4 26 11.3 32.5 9c-3.5-3.1-12.4-2.8-19 2-4.8 3.5-7.9 8.8-8.9 15.2-.8 4.8 0 9.8 1.9 14.3 4.2 9.8 13.5 16.4 24.1 17.1.8.1 1.6.1 2.4.1 21.1 0 30.3-16 28.3-33.8z" style="fill:url(#h)"/>
  <radialGradient id="i" cx="-361.424" cy="338.456" r=".235" gradientTransform="scale(142.6366 -142.6366) rotate(-75.548 -399.085 -64.256)" gradientUnits="userSpaceOnUse">
    <stop offset=".36" style="stop-color:#ff3750"/>
    <stop offset=".44" style="stop-color:#ff4d47;stop-opacity:.63"/>
    <stop offset=".55" style="stop-color:#ff673d;stop-opacity:.18"/>
    <stop offset=".59" style="stop-color:#ff7139;stop-opacity:0"/>
  </radialGradient>
  <path d="M61.3 23.9C59.5 7.7 45 .4 32.2.5 27.3.5 21.7 1.7 17.8 4c-1 .6-2 1.3-2.8 2.2.1-.1.4-.3.9-.7h.1c1.9-1.3 4-2.2 6.2-2.9 3.4-1 7-1.3 10.5-1.2 14.4.8 24.6 12.8 25 25.5.3 10.5-8.4 18.9-18.3 19.4-7.2.4-14.1-3.1-17.4-10.1-.8-1.6-1.3-3.3-1.6-5.1C18.8 20.4 26 11.3 32.5 9c-3.5-3.1-12.4-2.8-19 2-4.8 3.5-7.9 8.8-8.9 15.2-.8 4.8 0 9.8 1.9 14.3 4.2 9.8 13.5 16.4 24.1 17.1.8.1 1.6.1 2.4.1 21.1 0 30.3-16 28.3-33.8z" style="opacity:.53;fill:url(#i);enable-background:new"/>
  <radialGradient id="j" cx="-362.187" cy="337.527" r=".234" gradientTransform="matrix(142.6366 0 0 -142.6366 51695.371 48177.227)" gradientUnits="userSpaceOnUse">
    <stop offset=".22" style="stop-color:#ff3750;stop-opacity:.8"/>
    <stop offset=".27" style="stop-color:#ff444b;stop-opacity:.63"/>
    <stop offset=".41" style="stop-color:#ff643e;stop-opacity:.18"/>
    <stop offset=".47" style="stop-color:#ff7139;stop-opacity:0"/>
  </radialGradient>
  <path d="M61.3 23.9C59.5 7.7 45 .4 32.2.5 27.3.5 21.7 1.7 17.8 4c-1 .6-2 1.3-2.8 2.2.1-.1.4-.3.9-.7h.1c1.9-1.3 4-2.2 6.2-2.9 3.4-1 7-1.3 10.5-1.2 14.4.8 24.6 12.8 25 25.5.3 10.5-8.4 18.9-18.3 19.4-7.2.4-14.1-3.1-17.4-10.1-.8-1.6-1.3-3.3-1.6-5.1C18.8 20.4 26 11.3 32.5 9c-3.5-3.1-12.4-2.8-19 2-4.8 3.5-7.9 8.8-8.9 15.2-.8 4.8 0 9.8 1.9 14.3 4.2 9.8 13.5 16.4 24.1 17.1.8.1 1.6.1 2.4.1 21.1 0 30.3-16 28.3-33.8z" style="opacity:.53;fill:url(#j);enable-background:new"/>
  <radialGradient id="k" cx="-361.875" cy="337.398" r="1.045" gradientTransform="matrix(110.368 0 0 -110.368 40008.457 37239.965)" gradientUnits="userSpaceOnUse">
    <stop offset=".05" style="stop-color:#fff44f"/>
    <stop offset=".46" style="stop-color:#ff980e"/>
    <stop offset=".52" style="stop-color:#ff8424"/>
    <stop offset=".59" style="stop-color:#ff7634"/>
    <stop offset=".64" style="stop-color:#ff7139"/>
  </radialGradient>
  <path d="M39.4 46.2c13.6-.8 19.5-12.1 19.9-20.1.6-12.5-6.9-26-26.6-24.8-3.5-.1-7.2.2-10.5 1.2-2.2.6-4.3 1.6-6.2 2.9h-.1c-.3.2-.6.4-.9.7.5-.4 7.3-4.4 16.8-3.1 11.3 1.5 21.7 10.3 21.7 21.8 0 8.9-6.9 15.7-15 15.2-12-.7-15-13-8.8-18.3-1.7-.4-4.9.3-7.1 3.6-2 3-1.9 7.5-.6 10.7 3.3 7.1 10.1 10.7 17.4 10.2z" style="fill:url(#k)"/>
  <linearGradient id="l" gradientUnits="userSpaceOnUse" x1="-362.126" y1="337.786" x2="-362.33" y2="337.471" gradientTransform="matrix(159.4285 0 0 -141.8605 57780.125 47930.32)">
    <stop offset="0" style="stop-color:#fff44f;stop-opacity:.8"/>
    <stop offset=".09" style="stop-color:#fff44f;stop-opacity:.7"/>
    <stop offset=".75" style="stop-color:#fff44f;stop-opacity:0"/>
  </linearGradient>
  <path d="M57.6 12.6c-.9-1.1-1.8-2.2-2.8-3.2-.8-.8-1.6-1.6-2.5-2.3.5.5 1 .9 1.5 1.4 1.7 1.9 3.1 4.1 3.9 6.5 1.7 5.1 1.6 11.4-1.6 16.3-3.8 5.9-10 8.8-16.7 8.7h-.9c-12-.7-15-13-8.8-18.3-1.7-.4-4.9.3-7.1 3.6-2 3-1.9 7.5-.6 10.7-.8-1.6-1.3-3.3-1.6-5.1C18.8 20.4 26 11.3 32.5 9c-3.5-3.1-12.4-2.9-19 2-3.9 2.8-6.6 6.9-8.1 11.7.2-2.7 1.2-6.7 3.3-10.9-2.2 1.1-5 4.8-6.4 8.1C.3 24.7-.4 30.5.2 36c0 .4.1.8.1 1.2 2.2 13.1 12.3 23.4 25.4 26s26.3-3 33.4-14.3 6.4-25.7-1.5-36.3z" style="fill:url(#l)"/>
  <linearGradient id="m" gradientUnits="userSpaceOnUse" x1="-362.155" y1="336.813" x2="-362.155" y2="337.212" gradientTransform="matrix(108.9196 0 0 -99.6268 39482.637 33595.855)">
    <stop offset="0" style="stop-color:#3a8ee6"/>
    <stop offset=".24" style="stop-color:#5c79f0"/>
    <stop offset=".63" style="stop-color:#9059ff"/>
    <stop offset="1" style="stop-color:#c139e6"/>
  </linearGradient>
  <path d="M57.6 15c-.8-2.4-2.1-4.6-3.9-6.5-2-2.2-4.6-3.9-7.3-5.2-2.3-1.1-4.7-2-7.2-2.5-4.4-1-8.9-1-13.3-.1-4.5 1-8.5 2.9-11.1 5.4C16.9 5 19.5 4 21.4 3.5c8.7-2.2 18.4.2 24.9 6.5 1.3 1.3 2.5 2.7 3.5 4.2 3.9 6.4 3.5 14.3.5 19-2.3 3.5-7.1 6.8-11.7 6.7 7 .4 13.4-2.6 17.4-8.7 3.2-4.8 3.3-11.1 1.6-16.2z" style="fill:url(#m)"/>
  <linearGradient id="n" gradientUnits="userSpaceOnUse" x1="-362.293" y1="337.179" x2="-361.997" y2="336.908" gradientTransform="matrix(108.9196 0 0 -99.6268 39482.637 33595.855)">
    <stop offset=".81" style="stop-color:#9059ff;stop-opacity:0"/>
    <stop offset="1" style="stop-color:#6e008b;stop-opacity:.5"/>
  </linearGradient>
  <path d="M57.6 15c-.8-2.4-2.1-4.6-3.9-6.5-2-2.2-4.6-3.9-7.3-5.2-2.3-1.1-4.7-2-7.2-2.5-4.4-1-8.9-1-13.3-.1-4.5 1-8.5 2.9-11.1 5.4C16.9 5 19.5 4 21.4 3.5c8.7-2.2 18.4.2 24.9 6.5 1.3 1.3 2.5 2.7 3.5 4.2 3.9 6.4 3.5 14.3.5 19-2.3 3.5-7.1 6.8-11.7 6.7 7 .4 13.4-2.6 17.4-8.7 3.2-4.8 3.3-11.1 1.6-16.2z" style="fill:url(#n)"/>
</svg>
