<svg xmlns="http://www.w3.org/2000/svg" xmlns:sodipodi="http://sodipodi.sourceforge.net/DTD/sodipodi-0.dtd" xmlns:inkscape="http://www.inkscape.org/namespaces/inkscape" viewBox="0 0 10.24 10.24" version="1.1" sodipodi:docname="fiverr-icon.svg" inkscape:version="0.92.4 (5da689c313, 2019-01-14)" height="1em" width="1em">
  <sodipodi:namedview pagecolor="#ffffff" bordercolor="#666666" borderopacity="1" objecttolerance="10" gridtolerance="10" guidetolerance="10" inkscape:pageopacity="0" inkscape:pageshadow="2" inkscape:window-width="1920" inkscape:window-height="1001" showgrid="false" inkscape:zoom="4.2720563" inkscape:cx="108.83451" inkscape:cy="46.015973" inkscape:window-x="-9" inkscape:window-y="-9" inkscape:window-maximized="1" inkscape:current-layer="svg14"/>
  <g transform="scale(0.0256)">
    <circle r="200" cy="200" cx="200" style="fill:#00b22d"/>
    <g style="fill:#ffffff">
      <circle r="9" cy="163" cx="104.6"/>
      <path d="M 114,177.9 H 72.8 v -2.7 c 0,-5.3 5.3,-5.4 8,-5.4 3.1,0 4.5,0.3 4.5,0.3 v -14.6 c 0,0 -2.8,-0.4 -6.6,-0.4 -8.6,0 -24.5,2.4 -24.5,20.6 v 2.3 h -7.5 v 13.5 h 7.5 V 220 h -7 v 13.5 H 81 V 220 H 72.8 V 191.5 H 95.3 V 220 h -7 v 13.5 H 121 V 220 h -7 z m 70,0 h -29.5 v 13.5 h 5 l -6.4,20 c -1.2,3.3 -1.5,7.3 -1.5,7.3 h -0.4 c 0,0 -0.3,-4 -1.5,-7.3 l -6.4,-20 h 5 v -13.5 h -29.5 v 13.5 h 6.2 l 15.4,42 h 22 l 15.4,-42 h 6.2 z m 54.6,25.5 c 0,-15.4 -9.3,-26.8 -25.8,-26.8 -17.9,0 -28.9,12.7 -28.9,29 0,14.8 10.7,29.1 30.5,29.1 15,0 23.9,-7.8 23.9,-7.8 L 231.5,214 c 0,0 -7.4,5.3 -15.6,5.3 -5.9,0 -11.5,-3.1 -12.9,-10.2 h 35.2 c -0.1,-0.1 0.4,-3.9 0.4,-5.7 z m -35.2,-4.6 c 1,-4.3 3.6,-8.2 8.9,-8.2 4.1,0 7,3.8 7,8.2 z m 114.1,-8.1 h -0.2 c 0,0 0.2,-1.1 0.2,-2.8 V 185 c 0,-5.1 -2.8,-7.1 -7.9,-7.1 h -17.5 v 13.5 h 5.2 c 1.5,0 2.4,0.9 2.4,2.4 V 220 h -7.5 v 13.5 h 33.7 V 220 h -7.5 v -8.1 c 0,-10.1 5,-16.7 15.3,-16.7 2.3,0 3.8,0.3 3.8,0.3 v -18.3 c 0,0 -1.1,-0.2 -2.2,-0.2 -8.4,-0.1 -15.4,6.1 -17.8,13.7 z m -49.3,0 H 268 c 0,0 0.2,-1.1 0.2,-2.8 V 185 c 0,-5.1 -2.8,-7.1 -7.9,-7.1 h -17.5 v 13.5 h 5.2 c 1.5,0 2.4,0.9 2.4,2.4 V 220 h -7.5 v 13.5 h 33.7 V 220 h -7.5 v -8.1 c 0,-10.1 5,-16.7 15.3,-16.7 2.3,0 3.8,0.3 3.8,0.3 v -18.3 c 0,0 -1.1,-0.2 -2.2,-0.2 -8.5,-0.1 -15.5,6.1 -17.8,13.7 z" inkscape:connector-curvature="0"/>
    </g>
  </g>
</svg>
