<svg version="1.1" xmlns="http://www.w3.org/2000/svg" x="0" y="0" viewBox="0 0 64 64" width="64" height="64" style="enable-background:new 0 0 64 64">
  <path class="st0" d="M40.8 32h6.4c.5 0 1-.4 1-1 0-.1 0-.3-.1-.4l-11-30c-.2-.3-.5-.6-.9-.6h-6.4c-.5 0-1 .4-1 1 0 .1 0 .2.1.3L40 31.5c.1.3.4.5.8.5zm-1.1 32h6.4c.5 0 1-.4 1-1 0-.1 0-.2-.1-.3L24.2.6c-.1-.3-.5-.6-.9-.6h-6.4c-.5 0-1 .4-1 1 0 .1 0 .2.1.3l22.8 62.1c.1.4.5.6.9.6zM27 64h6.4c.5 0 .9-.4 1-.9 0-.1 0-.3-.1-.4L23.2 32.6c-.1-.4-.5-.6-.9-.6h-6.5c-.5 0-.9.5-.9 1 0 .1 0 .2.1.3l11 30.1c.3.4.6.6 1 .6zM41.6 1.3l5.2 14.1c.1.4.5.6.9.6H54c.5 0 1-.4 1-1 0-.1 0-.2-.1-.3L49.7.6c-.1-.3-.4-.6-.8-.6h-6.4c-.5 0-1 .4-1 1 0 .1 0 .2.1.3zM15.2 64h6.4c.5 0 1-.4 1-1 0-.1 0-.2-.1-.3l-5.2-14.1c-.1-.4-.5-.6-.9-.6H10c-.5 0-1 .4-1 1 0 .1 0 .2.1.3l5.2 14.1c.1.4.5.6.9.6z"/>
</svg>
