<svg version="1.1" xmlns="http://www.w3.org/2000/svg" xmlns:xlink="http://www.w3.org/1999/xlink" x="0px" y="0px" viewBox="0 0 64 64" style="enable-background:new 0 0 64 64" xml:space="preserve">
  <g>
    <path class="st0" d="M40.8 32h6.4c.5 0 1-.4 1-1 0-.1 0-.3-.1-.4L37.1.6C36.9.3 36.6 0 36.2 0h-6.4c-.5 0-1 .4-1 1 0 .1 0 .2.1.3l11.1 30.2C40.1 31.8 40.4 32 40.8 32zM39.7 64h6.4c.5 0 1-.4 1-1 0-.1 0-.2-.1-.3L24.2.6C24.1.3 23.7 0 23.3 0h-6.4c-.5 0-1 .4-1 1 0 .1 0 .2.1.3l22.8 62.1C38.9 63.8 39.3 64 39.7 64zM27 64h6.4c.5 0 .9-.4 1-.9 0-.1 0-.3-.1-.4L23.2 32.6c-.1-.4-.5-.6-.9-.6h-6.5c-.5 0-.9.5-.9 1 0 .1 0 .2.1.3l11 30.1C26.3 63.8 26.6 64 27 64zM41.6 1.3l5.2 14.1c.1.4.5.6.9.6H54c.5 0 1-.4 1-1 0-.1 0-.2-.1-.3L49.7.6C49.6.3 49.3 0 48.9 0h-6.4c-.5 0-1 .4-1 1C41.5 1.1 41.5 1.2 41.6 1.3zM15.2 64h6.4c.5 0 1-.4 1-1 0-.1 0-.2-.1-.3l-5.2-14.1c-.1-.4-.5-.6-.9-.6H10c-.5 0-1 .4-1 1 0 .1 0 .2.1.3l5.2 14.1C14.4 63.8 14.8 64 15.2 64z"/>
  </g>
</svg>
