<svg xmlns="http://www.w3.org/2000/svg" xmlns:xlink="http://www.w3.org/1999/xlink" width="64" height="64" viewBox="0 0 64 64" version="1.1" preserveAspectRatio="xMidYMid">
  <defs>
    <linearGradient x1="39.255" y1="79.949" x2="39.255" y2="1.444" id="b" gradientTransform="matrix(.13724 0 0 .27796 15.103 19.574)" gradientUnits="userSpaceOnUse">
      <stop stop-color="#D22929" offset="0%"/>
      <stop stop-color="#B71717" offset="100%"/>
    </linearGradient>
    <linearGradient x1=".5" y1="0" x2=".5" y2="1" id="a">
      <stop stop-color="#E7762E" offset="0%"/>
      <stop stop-color="#E7562E" offset="100%"/>
    </linearGradient>
    <linearGradient xlink:href="#a" id="c" x1="45.282" y1="0" x2="45.282" y2="90.564" gradientTransform="matrix(.2082 0 0 .18322 15.103 19.574)" gradientUnits="userSpaceOnUse"/>
  </defs>
  <g transform="matrix(2.88 0 0 2.88 -38.649 -56.373)">
    <path d="m15.108 34.404-.004-13.822c0-.557.383-.768.854-.474l9.92 6.2v15.488l-9.294-5.64c-1.287-.701-1.474-1.136-1.476-1.752z" style="fill:url(#b);stroke-width:.1953125"/>
    <path d="M16.114 19.574a1.01 1.01 0 0 0-1.01 1.012V34.39c.027.474.003.969 1.51 1.779 0 0-1.476-1.435.846-1.442h16.498V19.574Z" style="fill:url(#c);stroke-width:.1953125"/>
  </g>
</svg>
