<svg xmlns="http://www.w3.org/2000/svg" xmlns:xlink="http://www.w3.org/1999/xlink" width="64" height="64" viewBox="0 0 16.933 16.933">
  <g class="H">
    <g class="G" transform="translate(-5.464 -588.448) scale(2.065)">
      <path d="m6.746 286.173-3.832 2.508v2.017l1.916 1.254 1.916-1.254 1.916 1.254 1.916-1.254v-2.017z" stroke-width=".537"/>
      <use xlink:href="#a" class="F I"/>
    </g>
    <path d="M12.423 4.93v4.165l-3.956 2.59V7.519z" stroke="#000" class="F J" stroke-width="2.065"/>
  </g>
  <g fill="#fff" class="F" transform="translate(-5.464 -588.448) scale(2.065)">
    <path d="M4.844 287.35v2.017l1.916 1.254v-2.017z" stroke="#000" class="J"/>
    <use xlink:href="#a" y="-2.016" class="G I"/>
  </g>
  <g class="F G I" transform="translate(-5.464 -588.448) scale(2.065)">
    <use xlink:href="#a" x="1.916" y="1.254" class="H"/>
    <use xlink:href="#a" x="1.916" y="-.763" fill="#fff"/>
  </g>
  <g class="F G J">
    <path d="M16.38 7.521v4.166l-3.957 2.59V10.11z" class="H"/>
    <path d="M8.496 7.619v4.165l3.956 2.59v-4.166z" fill="#fff"/>
  </g>
  <g class="F G I" transform="translate(-5.464 -588.448) scale(2.065)">
    <use xlink:href="#a" x="-1.916" y="1.254" class="H"/>
    <use xlink:href="#a" x="-1.916" y="-.763" fill="#fff"/>
  </g>
  <g class="F G J">
    <path d="M8.467 7.521v4.166l-3.957 2.59V10.11z" class="H"/>
    <path d="M.583 7.521v4.166l3.956 2.59V10.11z" fill="#fff"/>
  </g>
  <defs>
    <path id="a" d="m6.746 288.113 1.916 1.254-1.916 1.254-1.916-1.254z"/>
  </defs>
</svg>
