<svg version="1.1" xmlns="http://www.w3.org/2000/svg" x="0" y="0" viewBox="0 0 120 60" width="120" height="60" style="enable-background:new 0 0 120 60">
  <path d="m31.1 39.4 4.2-26.3h3.4l-4.2 26.3h-3.4m20.6-.5c-.8 5.1-3.7 7.8-8.4 7.8-2.9 0-5.1-1.1-6.6-2.9l1.9-2.3c1.3 1.6 2.9 2.2 4.7 2.2 2.8 0 4.6-1.6 5.1-4.9l.2-1.3h-.1c-1.5 1.4-3.3 2.2-5.2 2.2-3.6 0-5.4-1.8-5.4-5.3 0-.7.1-1.4.2-2.1l1.7-10.8h3.3l-1.7 10.8c-.1.6-.1 1.1-.1 1.5 0 2 .9 2.9 2.8 2.9 2.1 0 3.9-1.2 5.1-3.4L51 21.5h3.4l-2.7 17.4m38-14.1.7-3.3H87l-2.8 18h3.4l1.5-9.6c.7-3.6 3.2-5.3 6-5.3h.9l.5-3.2c-3.2-.5-5.6 1.1-6.8 3.4m-12.8-3.2L71.4 34l-2-12.4h-3.2L60.4 34l-1.9-12.4h-3.4L58 39.5h3.6l5.6-12.4 1.9 12.4h3.4l8-17.9h-3.6m1.2 17.9 2.8-17.9h3.4l-2.8 17.9h-3.4M85.2 18c0 1.1-.9 1.9-1.9 1.9s-2-.9-2-1.9.9-1.9 1.9-1.9c1.1-.1 2 .8 2 1.9zm-62.7 8.5.3-1.9h-12l.5-3.1h12l.2-1.5c.7-4.4 3.6-6.9 8-6.9H34l-.5 3.1h-2.2c-2.4 0-3.8 1.2-4.2 3.9l-.2 1.4h4.6l-.5 3.1h-4.6l-2.6 15.1c-.7 4.4-3.6 6.9-8.1 6.8h-.2l.5-3.3h.2c2.5 0 3.8-1.1 4.2-3.7l1.6-9.8H10l.5-3.1h12v-.1zm78.4 10.3c4.7-.1 4.8-3.4 4.8-3.4h3.1s-.7 6.2-8 6.2c-2.2 0-4.1-.7-5.2-2.1-1.2-1.5-1.6-3.3-1.2-5.6l.2-1.6c.7-4.2 1.6-9.4 8.9-9.4 2 0 3.7.6 4.8 1.7 1 .9 1.6 2.3 1.6 3.6 0 1.9-.8 3.4-2.4 4.4-1.6 1-3.6 1.2-5.1 1.2h-4.9c-.3 1.7-.1 3.1.6 3.8.7.9 1.6 1.3 2.8 1.2zm-2.8-8.2-.1.6h4.6c2.9 0 4.2-.9 4.2-2.7 0-1.6-1.3-2.5-3.4-2.5-2.9-.1-4.7 1.6-5.3 4.6z" style="fill:#0279d4"/>
</svg>
