<svg xmlns="http://www.w3.org/2000/svg" height="64" viewBox="0 0 64 64" width="64" version="1.1">
  <g style="fill:none;fill-rule:nonzero" transform="matrix(1.00629 0 0 1.00629 0 5.333)">
    <g style="fill:#21b573">
      <path d="M50.35 5.3h3.71c.878 0 1.59.712 1.59 1.59v39.22a1.59 1.59 0 0 1-1.59 1.59h-3.71z"/>
      <path d="M58.3 10.6h3.71c.878 0 1.59.712 1.59 1.59v28.62a1.59 1.59 0 0 1-1.59 1.59H58.3Z"/>
      <rect y="0" x="0" width="47.7" rx="1.59" height="53"/>
    </g>
    <g style="fill:#fff" transform="translate(10.6 8.48)">
      <path d="M.53 0h24.46a.53.53 0 0 1 .33.944L.861 20.51A.53.53 0 0 1 0 20.097V.53A.53.53 0 0 1 .53 0Z"/>
      <path d="M0 31.824v-8.21a.53.53 0 0 1 .203-.416l7.128-5.595a.53.53 0 0 1 .327-.113h12.954a.53.53 0 0 1 .3.967L.83 32.26a.53.53 0 0 1-.83-.436Z"/>
      <path d="m.227 34.901 7.42-5.17a.53.53 0 0 1 .833.434v5.387a.53.53 0 0 1-.53.53H.511A.511.511 0 0 1 0 35.57v-.234a.53.53 0 0 1 .227-.435z"/>
    </g>
  </g>
</svg>
