<svg xmlns="http://www.w3.org/2000/svg" viewBox="0 0 64 64" version="1.1" width="64" height="64">
  <g transform="matrix(2.65484 0 0 2.65484 .036 -90.17)">
    <path style="fill:#000;stroke-width:.31686223" d="M13.252 52.675c.478-.828 1.041-1.6 1.563-2.399a3.271 3.271 0 0 0 .581-1.537 1.408 1.408 0 0 0-.555-1.115c-.527-.393-1.092-.337-1.665-.156a10.538 10.538 0 0 1-1.971.401 6.634 6.634 0 0 0-2.498.732c-.26.145-.29.268-.057.446a2.785 2.785 0 0 1 1.005 1.86 10.663 10.663 0 0 1 .068 2.403c-.05.882-.15 1.76-.225 2.639a6.466 6.466 0 0 0 .02 1.86c.044.22.144.29.35.253a14.713 14.713 0 0 0 1.927-.472.295.295 0 0 0 .242-.372 5.558 5.558 0 0 1 .005-1.323 8.638 8.638 0 0 1 1.21-3.22z" class="cls-1"/>
    <path style="fill:#000;stroke-width:.31686223" d="M20.637 50.228a2.134 2.134 0 0 1-.505-.378 4.346 4.346 0 0 1-.997-1.934 14.369 14.369 0 0 1-.366-2.437c-.12-1.218-.755-2.209-1.395-3.197-.13-.2-.29-.178-.41.046a3.872 3.872 0 0 0-.422 1.25 4.49 4.49 0 0 1-1.77 3.077c-.233.175-.222.312.047.45a2.182 2.182 0 0 1 1.046 1.199 5.637 5.637 0 0 1 .22 2.997 18.192 18.192 0 0 0-.256 2.187A7.364 7.364 0 0 0 16.032 55c.098.315.18.35.439.159a17.404 17.404 0 0 0 4.264-4.515c.126-.193.085-.314-.098-.417z" class="cls-1"/>
    <path style="fill:#000;stroke-width:.31686223" d="M3.415 43.869a.297.297 0 0 0 .321.12c.573-.163.99.08 1.361.487.195.213.337.182.448-.083a7.114 7.114 0 0 1 .85-1.455 16.36 16.36 0 0 0 1.94-3.565c.579-1.421 1.582-2.322 3.175-2.459a1.7 1.7 0 0 0 1.006-.26c.081-.066.16-.133.126-.248a.222.222 0 0 0-.208-.147 6.315 6.315 0 0 0-1.325-.037c-1.018.07-2.025.355-2.96.163-.755.012-1.377.123-1.894.575a3.802 3.802 0 0 0-1.299 2.91 4.483 4.483 0 0 1-.638 2.2 97.77 97.77 0 0 0-.866 1.52c-.047.084-.117.177-.037.279z" class="cls-1"/>
    <path style="fill:#000;stroke-width:.31686223" d="M13.21 47.025c1.55-.587 2.603-1.61 2.884-3.298a4.36 4.36 0 0 1 1.09-2.404.218.218 0 0 0 .043-.299c-.08-.118-.187-.085-.297-.05a7.237 7.237 0 0 0-1.38.6 2.156 2.156 0 0 0-1.049 1.153 2.47 2.47 0 0 1-.585.835 4.542 4.542 0 0 1-2.38 1.216 3.742 3.742 0 0 0-2.285 1.407 16.157 16.157 0 0 0-.92 1.416c-.844 1.434-2.655 2.192-4.111 1.71a1.262 1.262 0 0 0-.734-.05c-.128.033-.306-.006-.349.177-.045.195.12.256.247.332a3.778 3.778 0 0 0 1.792.441 1.973 1.973 0 0 0 1.14-.428c.263-.203.523-.41.786-.613a7.685 7.685 0 0 1 3.932-1.693 8.67 8.67 0 0 0 2.176-.452z" class="cls-1"/>
    <path style="fill:#000;stroke-width:.31686223" d="M3.834 48.64a1.67 1.67 0 0 0 1.2.41 3.358 3.358 0 0 0 2.935-1.657c.24-.396.49-.785.745-1.17a4.052 4.052 0 0 1 2.459-1.775c.272-.067.546-.133.813-.219 1.203-.388 2.112-1.076 2.362-2.398a8.064 8.064 0 0 0-.03-2.312c-.011-.121 0-.256-.157-.289-.148-.03-.212.086-.28.187a5.633 5.633 0 0 1-1.386 1.456.428.428 0 0 0-.151.214 2.85 2.85 0 0 1-2.88 1.95c-.998-.103-1.236.332-1.397 1.072a13.514 13.514 0 0 1-.488 1.706 1.737 1.737 0 0 1-1.384 1.2 2.534 2.534 0 0 0-1.187.551 2.995 2.995 0 0 1-1.08.588c-.315.096-.346.26-.094.485z" class="cls-1"/>
    <path style="fill:#000;stroke-width:.31686223" d="M10.9 37.454c-1.089.287-1.733 1.059-2.145 2.045a15.79 15.79 0 0 1-2.01 3.66 4.498 4.498 0 0 0-.985 1.979c-.077.454.118.89.107 1.344-.004.15.179.135.297.11a1.217 1.217 0 0 0 .966-.768 16.444 16.444 0 0 0 .596-2.052 8.08 8.08 0 0 1 .83-2.347 1.583 1.583 0 0 1 1.749-.83c.379.05.731.228 1.138.207a1.313 1.313 0 0 0 .947-.355c1.081-.862 1.69-2.023 2.109-3.307a.2.2 0 0 0-.051-.244.217.217 0 0 0-.257-.004c-.63.395-1.336.395-2.041.397a4.928 4.928 0 0 0-1.25.165z" class="cls-1"/>
    <path style="fill:#000;stroke-width:.31686223" d="M16.379 38.446c.246.187.23.316-.047.464-.044.024-.092.041-.134.068-.266.165-.563.322-.555.69.007.367.28.558.57.716a1.145 1.145 0 0 0 .31.11 1.925 1.925 0 0 0 1.39-.365 1.76 1.76 0 0 0 .977-1.736 2.564 2.564 0 0 1 .576-1.7 3.314 3.314 0 0 0 .556-1.288.95.95 0 0 0-.612-1.109 2.185 2.185 0 0 0-.857-.154 3.418 3.418 0 0 0-2.545 1.245 2.066 2.066 0 0 0-.167 2.494 2.31 2.31 0 0 0 .538.565z" class="cls-1"/>
    <path style="fill:#000;stroke-width:.31686223" d="M15.758 50.345c.003-.133-.028-.25-.164-.288-.131-.037-.196.068-.255.166-.078.129-.154.259-.238.384-.587.875-1.198 1.735-1.701 2.665a6.837 6.837 0 0 0-.956 3.254 4.308 4.308 0 0 0 .004.482c.024.208.13.306.353.215a17.282 17.282 0 0 0 2.774-1.444.279.279 0 0 0 .133-.376 7.145 7.145 0 0 1-.156-3.45 11.163 11.163 0 0 0 .206-1.608z" class="cls-1"/>
    <path style="fill:#000;stroke-width:.31686223" d="M22.161 47.157a9.751 9.751 0 0 1-2.601-1.925.344.344 0 0 0-.203-.12c-.135-.004-.22.106-.204.27.013.12.035.238.048.357a10.667 10.667 0 0 0 .481 2.562 2.89 2.89 0 0 0 1.147 1.573c.179.11.317.103.426-.089a15.44 15.44 0 0 0 1.05-2.262.256.256 0 0 0-.144-.366z" class="cls-1"/>
    <path style="fill:#000;stroke-width:.31686223" d="M3.556 36.61a6.263 6.263 0 0 0 .325 1.504.2.2 0 0 0 .288.13.835.835 0 0 0 .36-.693 3.03 3.03 0 0 1-.093-1.161c.111-.45.126-.912.197-1.367a1.165 1.165 0 0 0-.15-.842.45.45 0 0 0-.465-.21c-.176.02-.25.146-.295.301a2.703 2.703 0 0 0-.11.62c-.017.314.05.62.06.931.009.285-.18.54-.117.787z"/>
    <path style="fill:#000;stroke-width:.31686223" d="M3.315 47.67a.33.33 0 0 0 .483.074c.148-.12-.039-.228-.102-.322a1.496 1.496 0 0 1-.324-1.07.584.584 0 0 1 .503-.528c.252-.048.394.095.482.314.035.086.08.173.194.154a.33.33 0 0 0 .285-.235c.045-.142.032-.303.14-.424.071-.08.176-.147.102-.283-.069-.126-.185-.137-.308-.15a2.05 2.05 0 0 0-1.225.347c-.448.247-.668.216-1.066-.109a.796.796 0 0 0-.177-.113.372.372 0 0 0-.482.178c-.058.222.125.236.263.287a.657.657 0 0 1 .46.875 1.34 1.34 0 0 0-.074.465.497.497 0 0 0 .11.432c.07.066.166.161.258.058.193-.217.326-.152.478.05z" class="cls-3"/>
    <path style="fill:#000;stroke-width:.31686223" d="M14.848 41.157c-.001.202.116.27.301.174q.28-.146.555-.305c.232-.135.251-.277.038-.44-.603-.459-.732-1.253-.056-1.755.178-.132.169-.265.021-.427a2.316 2.316 0 0 1-.479-.796c-.039-.11-.076-.21-.217-.206-.158.003-.189.117-.22.24a4.635 4.635 0 0 0-.069 1.08c-.017.814.133 1.62.126 2.435z" class="cls-3"/>
    <path style="fill:#000;stroke-width:.31686223" d="M5.114 36.761a.247.247 0 0 0 .42.074 4.252 4.252 0 0 1 .47-.321c.166-.096.21-.225.105-.372a7.23 7.23 0 0 1-.65-1.18.21.21 0 0 0-.206-.148c-.12.005-.174.074-.19.19a6.266 6.266 0 0 0-.12 1.22 1.138 1.138 0 0 0 .17.537z" class="cls-3"/>
    <path style="fill:#000;stroke-width:.31686223" d="M4.516 47.478a2.065 2.065 0 0 0 .88-.882.741.741 0 0 0 .077-.498c-.03-.105-.06-.244-.187-.248-.147-.004-.097.15-.121.236a.753.753 0 0 1-1.016.526.282.282 0 0 0-.394.17c-.072.197.394.73.642.73a.355.355 0 0 0 .12-.034z" class="cls-4"/>
    <path style="fill:#000;stroke-width:.31686223" d="M4.253 38.86a2.3 2.3 0 0 0-.545 1.219c-.04.228.32.657.549.631.294-.032.237-.308.258-.5.041-.4.057-.8.083-1.2a.171.171 0 0 0-.09-.248c-.115-.06-.184.022-.255.099z" class="cls-4"/>
    <path style="fill:#000;stroke-width:.31686223" d="M4 44.371a.884.884 0 0 1-.624 0c-.24-.001-.385.185-.565.305-.137.092-.24.22-.133.376.105.152.244.326.47.224a5.958 5.958 0 0 1 1.187-.5.163.163 0 0 0 .124-.183.182.182 0 0 0-.137-.176.538.538 0 0 0-.323-.046Z" class="cls-4"/>
    <path style="fill:#000;stroke-width:.31686223" d="M2.784 48.056a3.136 3.136 0 0 1-.744-.381.173.173 0 0 0-.222-.013.182.182 0 0 0-.062.216 1.36 1.36 0 0 0 .634.839c.32.166.562.012.565-.359a.264.264 0 0 0-.17-.302Z" class="cls-4"/>
    <path style="fill:#000;stroke-width:.31686223" d="M2.865 43.427a.218.218 0 0 0 .315-.082 3.764 3.764 0 0 0 .253-.445c.069-.15-.118-.581-.282-.594-.063-.001-.088.083-.118.155-.09.212-.166.431-.269.637a.225.225 0 0 0 .101.329z"/>
    <path style="fill:#000;stroke-width:.31686223" d="M2.375 44.575a.573.573 0 0 0 .26-.866c-.099-.124-.182-.109-.243.03a1.825 1.825 0 0 0-.163.514c-.01.311.022.362.146.322z"/>
    <path style="fill:#000;stroke-width:.31686223" d="M13.384 36.851a.698.698 0 0 0 .431-.19.674.674 0 0 0-.406-.244c-.08-.026-.177-.13-.263-.005a.287.287 0 0 0-.029.287.239.239 0 0 0 .267.152z"/>
    <path style="fill:#000;stroke-width:.31686223" d="M2.032 46.554c-.065-.02-.095.026-.093.08.009.22-.074.46.184.7a2.528 2.528 0 0 1 .048-.609.166.166 0 0 0-.139-.17z"/>
    <path style="fill:#000;stroke-width:.31686223" d="M3.266 48.497c-.032.145-.244.268-.05.416.084.064.24.066.272-.01.076-.187-.154-.258-.222-.406z"/>
    <path style="fill:#000;stroke-width:.31686223" d="M4.931 37.489a.139.139 0 0 0 .092-.21 1.06 1.06 0 0 0-.258-.327c.023.156.039.279.062.4.011.062.007.165.104.137z"/>
  </g>
</svg>
