<svg version="1.1" xmlns="http://www.w3.org/2000/svg" xmlns:xlink="http://www.w3.org/1999/xlink" x="0" y="0" viewBox="0 0 120 60" width="120" height="60" style="enable-background:new 0 0 120 60">
  <defs>
    <path id="a" d="M9.6 19.2h100v21.5H9.6z"/>
  </defs>
  <clipPath id="b">
    <use xlink:href="#a" style="overflow:visible"/>
  </clipPath>
  <path class="st1" d="M32.3 33.4c0 4.2-3.1 7.3-7.3 7.3-4.2 0-7.2-3.1-7.2-7.3 0-4.2 3.1-7.3 7.2-7.3 4.2 0 7.3 3.1 7.3 7.3zm-10.9 0c0 2.2 1.5 3.8 3.6 3.8s3.6-1.6 3.6-3.8c0-2.2-1.5-3.8-3.6-3.8-2 0-3.6 1.5-3.6 3.8zm19 7.2c-3.4 0-6.4-1.9-6.4-6.3v-7.9h3.6V34c0 2.2 1.2 3.1 2.7 3.1 1.6 0 2.7-.9 2.7-3.1v-7.6h3.6v7.9c.1 4.5-2.9 6.3-6.2 6.3zM62 31.9v8.8h-3.6v-7.6c0-2-1-3.1-2.6-3.1S53 31 53 33.1v7.6h-3.6V26.8h3.5v1.6c1-1.5 2.4-2 3.9-2 3 .1 5.2 2.3 5.2 5.5zm22.7 8.8v-1.9c-.9 1.1-2.2 1.9-4 1.9-3.7 0-6.5-3.1-6.5-7.3 0-4.2 2.8-7.3 6.5-7.3 1.8 0 3.1.8 4 1.9v-1.5h3.5v14.2h-3.5zm-6.8-7.3c0 2.1 1.3 3.8 3.5 3.8 2.1 0 3.5-1.6 3.5-3.8 0-2.2-1.4-3.8-3.5-3.8s-3.5 1.7-3.5 3.8zm12.3 7.2h3.7v-14h-3.7v14zm19.4-9v9H106v-7.8c0-2.1-1-3.2-2.6-3.2-1.5 0-2.8 1.1-2.8 3.2v7.8H97V26.5h3.5v1.7c1-1.5 2.4-2 3.9-2 3-.1 5.2 2.1 5.2 5.4zm-96.4-6.8c0-1.3.5-2 1.6-2 1.3 0 2.6.4 2.6.4v-3.3c-.8-.4-1.8-.6-3-.6-3.1 0-4.8 2.2-4.8 5.5v16h3.6V29.9h4.2v-3.4h-4.2v-1.7zm59.7 11.5c-.1.1-1.6.8-2.8.8-1.1 0-2-.7-2-2.4v-5.2h4.8v-3.4H68v-4.2h-3.6V35c0 3.7 1.7 5.6 5 5.6 1.4 0 2.5-.3 3.4-.9v-3.4zm17.3-12h3.7v-3.9h-3.7v3.9z" style="clip-path:url(#b)"/>
</svg>
