<svg xmlns="http://www.w3.org/2000/svg" width="100" height="60">
  <path d="M3.427 10h24.087l.74 10.94h-13.48v5.215h10.984V37.07H14.692V50H3.427zm69.047 39.963 5.782-10.112 5.85 10.093h12.467L84.523 29.2 95.47 10.056H83.414l-5 8.617-4.916-8.617H61L72.174 29.32 60.35 49.97zM27.95 30.05c0-10.704 8.536-19.427 19.1-19.427s19.065 8.723 19.065 19.445-8.567 19.44-19.065 19.44-19.1-8.7-19.1-19.458zm22.486 7.988v-15.98a3.526 3.526 0 0 0-3.396-3.452 3.41 3.41 0 0 0-3.227 3.452v15.938a3.27 3.27 0 0 0 3.227 3.302 3.346 3.346 0 0 0 3.396-3.26z"/>
</svg>
