<svg version="1.1" xmlns="http://www.w3.org/2000/svg" xmlns:xlink="http://www.w3.org/1999/xlink" x="0px" y="0px" viewBox="0 0 120 60" style="enable-background:new 0 0 120 60" xml:space="preserve">
  <path class="st0" d="M49.2 30.1c-.2-.2-.4-.4-.7-.5-.3-.1-.5-.2-.8-.2-.3 0-.6.1-.8.2-.2.1-.5.3-.7.5-.2.2-.4.5-.5.7-.1.3-.2.6-.2 1s.1.7.2 1c.1.3.3.5.5.7.2.2.4.3.7.5.3.1.5.2.8.2.3 0 .5 0 .8-.2.3-.1.5-.3.7-.5.2-.2.4-.5.5-.7.1-.3.2-.6.2-1s-.1-.7-.2-1C49.6 30.5 49.4 30.3 49.2 30.1zM47.7 33c-.6 0-1.1-.5-1.1-1.1 0-.6.5-1.1 1.1-1.1.6 0 1.1.5 1.1 1.1C48.8 32.5 48.3 33 47.7 33zM86.7 30.1c-.2-.2-.4-.4-.7-.5-.3-.1-.5-.2-.8-.2-.3 0-.6.1-.8.2-.3.1-.5.3-.7.5-.2.2-.4.5-.5.7-.1.3-.2.6-.2 1s0 .7.2 1c.1.3.3.5.5.7.2.2.4.3.7.5.3.1.5.2.8.2.3 0 .6 0 .8-.2.3-.1.5-.3.7-.5s.4-.5.5-.7c.1-.3.2-.6.2-1s-.1-.7-.2-1C87.1 30.5 86.9 30.3 86.7 30.1zM33.3 29.4c-.2-.1-.5-.2-.9-.2-.5 0-.9.1-1.2.4-.4.3-.6.6-.8 1.1h3.7V30v0C34 30 34 29.9 33.9 29.8 33.7 29.6 33.5 29.5 33.3 29.4zM30.6 33.2c.1.2.3.4.5.6.2.2.4.3.7.4.2.1.5.1.8.1.5 0 .9-.1 1.3-.3.1-.1.2-.2.3-.3v0-.4-.6-.3h-3.8C30.3 32.7 30.4 33 30.6 33.2zM107.3 30.1c-.2-.2-.4-.4-.7-.5-.3-.1-.5-.2-.8-.2-.3 0-.6.1-.8.2-.3.1-.5.3-.7.5-.2.2-.4.5-.5.7-.1.3-.2.6-.2 1 0 .4.1.7.2 1 .1.3.3.5.5.7.2.2.4.4.7.5.3.1.5.2.8.2.3 0 .6 0 .8-.2.3-.1.5-.3.7-.5.2-.2.4-.5.5-.7.1-.3.2-.6.2-1s-.1-.7-.2-1C107.6 30.5 107.5 30.3 107.3 30.1z"/>
  <path class="st1" d="M14 26.2c.2-.2.5-.3.8-.3.2 0 .3 0 .5 0 .1 0 .2.1.4.1l.6-2c-.2-.1-.5-.2-.7-.2-.3-.1-.6-.1-.9-.1-.5 0-.9.1-1.3.2-.4.1-.7.4-1 .6-.3.3-.5.6-.6 1-.2.4-.2.8-.2 1.3v.8H10v1.9h1.5V36h2.2v-6.4h2v-1.9h-2V27C13.7 26.7 13.8 26.4 14 26.2zM22.6 27.8c-.1-.1-.3-.2-.5-.2-.2-.1-.5-.1-.8-.1-.2 0-.5 0-.7.1-.2.1-.5.2-.7.3-.2.1-.4.3-.6.4s-.3.4-.4.6h-.1v-1.1h-2.1V36H19v-4.1c0-.3 0-.7.1-.9.1-.3.2-.5.4-.8.2-.2.4-.4.6-.5.2-.1.5-.2.8-.2.2 0 .4 0 .6.1.2 0 .3.1.5.2L22.6 27.8zM28.2 33.7c0-.1 0-.1-.1-.2-.1.2-.3.3-.5.4-.3.2-.8.3-1.2.3-.3 0-.5 0-.8-.1-.2-.1-.5-.2-.7-.4-.2-.2-.4-.4-.5-.6-.2-.2-.2-.5-.3-.9h3.7c0-.2 0-.3 0-.5 0-.4 0-.7.1-1h-3.7c.1-.5.4-.9.8-1.1.4-.3.8-.4 1.2-.4.3 0 .6 0 .9.2.2.1.4.2.6.4.1.1.3.3.3.5 0-.1 0-.1.1-.2.2-.6.5-1.1.9-1.5 0 0 0 0 0 0-.3-.3-.7-.5-1.1-.7-.5-.2-1.1-.3-1.8-.3-.6 0-1.2.1-1.7.3-.5.2-1 .6-1.3 1-.4.4-.7.9-.9 1.4-.2.5-.3 1.1-.3 1.7 0 .6.1 1.2.3 1.8.2.5.5 1 .9 1.4.4.4.9.7 1.4.9.5.2 1.1.3 1.7.3.9 0 1.7-.2 2.4-.6.2-.1.3-.2.5-.4 0 0 0 0-.1 0C28.8 34.8 28.4 34.3 28.2 33.7z"/>
  <path class="st1" d="M28.3,30.8C28.3,30.7,28.3,30.7,28.3,30.8C28.2,30.7,28.2,30.8,28.3,30.8L28.3,30.8	C28.2,30.8,28.2,30.8,28.3,30.8L28.3,30.8z"/>
  <path class="st1" d="M34.1,33.7c-0.1,0.1-0.2,0.2-0.3,0.3c-0.3,0.2-0.7,0.3-1.3,0.3c-0.3,0-0.5,0-0.8-0.1c-0.2-0.1-0.5-0.2-0.7-0.4	c-0.2-0.2-0.4-0.4-0.5-0.6c-0.1-0.2-0.2-0.5-0.3-0.9h3.8v0v-1.6v0h-3.7c0.1-0.5,0.4-0.9,0.8-1.1c0.4-0.3,0.8-0.4,1.2-0.4	c0.3,0,0.6,0.1,0.9,0.2c0.2,0.1,0.4,0.2,0.6,0.4C34,29.9,34,30,34.1,30v-2.3c-0.5-0.2-1.1-0.3-1.7-0.3c-0.6,0-1.2,0.1-1.7,0.4	c-0.5,0.2-0.9,0.5-1.3,0.9c0,0,0,0,0,0c-0.4,0.4-0.7,0.9-0.9,1.4c-0.1,0.2-0.1,0.4-0.2,0.6c0,0,0,0,0,0.1h0h0c0,0,0,0,0,0	c-0.1,0.3-0.1,0.7-0.1,1.1c0,0.2,0,0.3,0,0.5c0,0.3,0.1,0.6,0.2,0.9c0,0.1,0.1,0.2,0.1,0.3c0.2,0.5,0.5,1,0.9,1.4c0,0,0,0,0.1,0.1	c0.4,0.4,0.8,0.6,1.3,0.8c0.5,0.2,1.1,0.3,1.7,0.3c0.6,0,1.2-0.1,1.6-0.3h0V33.7z"/>
  <path class="st2" d="M41.2 28.4c-.2-.3-.6-.5-1-.7-.4-.2-.8-.2-1.4-.2-.6 0-1.1.1-1.5.4s-.8.6-1 1h-.1v-1.1h-1.5-.6v0 0V30v0 .7 0 1.6 0 .3.6.4 0V36h0 0 .6 1.5v-1.4-.5-.2-.3-1-.3-.4c0-.3 0-.6.1-1 0 0 0-.1 0-.1.1-.2.1-.3.2-.4 0-.1.1-.2.2-.2.2-.2.3-.4.6-.5.2-.1.5-.2.8-.2.5 0 .9.1 1.2.4.3.3.4.7.4 1.3V36H42v-5c0-.5-.1-1-.2-1.4S41.4 28.7 41.2 28.4zM50.8 28.7c-.4-.4-.9-.7-1.4-.9-.5-.2-1.1-.3-1.8-.3s-1.2.1-1.8.3c-.5.2-1 .5-1.4.9-.4.4-.7.9-.9 1.4-.2.5-.3 1.1-.3 1.8 0 .6.1 1.2.3 1.8.2.5.5 1 .9 1.4.4.4.9.7 1.4.9.5.2 1.1.3 1.8.3s1.2-.1 1.8-.3c.5-.2 1-.5 1.4-.9s.7-.8.9-1.4c.2-.5.3-1.1.3-1.8 0-.6-.1-1.2-.3-1.8C51.5 29.5 51.2 29.1 50.8 28.7zM49.7 32.8c-.1.3-.3.5-.5.7-.2.2-.4.3-.7.5-.3.1-.5.2-.8.2-.3 0-.6 0-.8-.2-.2-.1-.5-.3-.7-.5-.2-.2-.4-.5-.5-.7-.1-.3-.2-.6-.2-1s.1-.7.2-1c.1-.3.3-.5.5-.7.2-.2.4-.4.7-.5.3-.1.5-.2.8-.2.3 0 .5.1.8.2.3.1.5.3.7.5.2.2.4.5.5.7.1.3.2.6.2 1S49.8 32.5 49.7 32.8zM65.6 28.4c-.2-.3-.5-.5-.9-.7-.4-.2-.8-.2-1.3-.2-.7 0-1.2.2-1.7.5-.5.3-.8.6-1.1 1.1-.2-.4-.5-.8-.9-1.1s-1-.4-1.6-.4c-.5 0-1 .1-1.5.4-.5.2-.8.6-1.1 1h-.1v-1.1h-2.1V36h2.2v-4c0-.4 0-.7.1-1 .1-.3.2-.6.3-.8.1-.2.3-.4.5-.5.2-.1.5-.2.7-.2 1 0 1.5.6 1.5 1.7V36h2.2v-4c0-.4 0-.7.1-1 .1-.3.2-.6.3-.8.2-.2.3-.4.6-.5.2-.1.5-.2.8-.2.9 0 1.4.6 1.4 1.7V36h2.2v-5.2c0-.5-.1-.9-.2-1.3C66 29 65.8 28.7 65.6 28.4z"/>
  <polygon class="st1" points="76.7,32.9 76.6,32.9 74.9,27.7 72.7,27.7 71,32.9 70.9,32.9 69.5,27.7 67.1,27.7 69.7,36 72,36 73.7,30.8 73.8,30.8 75.5,36 77.8,36 80.5,27.7 78,27.7"/>
  <path class="st1" d="M88.4 28.7C88 28.3 87.5 28 87 27.8c-.5-.2-1.1-.3-1.8-.3-.6 0-1.2.1-1.8.3-.5.2-1 .5-1.4.9-.4.4-.7.9-.9 1.4-.2.5-.3 1.1-.3 1.8 0 .6.1 1.2.3 1.8.2.5.5 1 .9 1.4.4.4.8.7 1.4.9.5.2 1.1.3 1.8.3.6 0 1.2-.1 1.8-.3.5-.2 1-.5 1.4-.9.4-.4.7-.8.9-1.4.2-.5.3-1.1.3-1.8 0-.6-.1-1.2-.3-1.8C89.1 29.5 88.8 29.1 88.4 28.7zM87.2 32.8c-.1.3-.3.5-.5.7S86.3 33.9 86 34c-.3.1-.5.2-.8.2-.3 0-.6 0-.8-.2-.3-.1-.5-.3-.7-.5-.2-.2-.4-.5-.5-.7-.1-.3-.2-.6-.2-1s0-.7.2-1c.1-.3.3-.5.5-.7.2-.2.4-.4.7-.5.3-.1.5-.2.8-.2.3 0 .6.1.8.2.3.1.5.3.7.5.2.2.4.5.5.7.1.3.2.6.2 1S87.3 32.5 87.2 32.8zM95.4 27.4c-.2 0-.5 0-.7.1-.2.1-.5.2-.7.3-.2.1-.4.3-.6.4-.2.2-.3.4-.4.6h-.1v-1.1h-2.1V36H93v-4.1c0-.3 0-.7.2-.9.1-.3.2-.5.4-.8.2-.2.4-.4.6-.5.2-.1.5-.2.8-.2.2 0 .4 0 .6.1.2 0 .3.1.4.2l.6-2c-.2-.1-.3-.2-.5-.2C96 27.5 95.7 27.4 95.4 27.4z"/>
  <rect x="97.8" y="23.9" class="st1" width="2.2" height="12.1"/>
  <path class="st1" d="M107.8,23.9v3.6l0.1,1.2h-0.1c-0.2-0.3-0.5-0.6-1-0.9c-0.4-0.2-0.9-0.4-1.6-0.4c-0.5,0-1,0.1-1.5,0.3	c-0.5,0.2-0.9,0.5-1.3,0.9c-0.4,0.4-0.7,0.9-0.9,1.4c-0.2,0.5-0.3,1.1-0.3,1.8c0,0.6,0.1,1.2,0.3,1.8c0.2,0.5,0.5,1,0.9,1.4	c0.4,0.4,0.8,0.7,1.3,0.9c0.5,0.2,1,0.3,1.5,0.3c0.6,0,1.2-0.1,1.6-0.4c0.4-0.2,0.7-0.5,1-0.9h0.1v1h2.1V23.9H107.8z M107.7,32.8	c-0.1,0.3-0.3,0.5-0.5,0.7c-0.2,0.2-0.4,0.3-0.7,0.5c-0.3,0.1-0.5,0.2-0.8,0.2c-0.3,0-0.6-0.1-0.8-0.2c-0.3-0.1-0.5-0.3-0.7-0.5	c-0.2-0.2-0.4-0.5-0.5-0.7c-0.1-0.3-0.2-0.6-0.2-1c0-0.4,0.1-0.7,0.2-1c0.1-0.3,0.3-0.5,0.5-0.7c0.2-0.2,0.4-0.4,0.7-0.5	c0.3-0.1,0.5-0.2,0.8-0.2c0.3,0,0.6,0.1,0.8,0.2c0.3,0.1,0.5,0.3,0.7,0.5c0.2,0.2,0.4,0.5,0.5,0.7c0.1,0.3,0.2,0.6,0.2,1	S107.9,32.5,107.7,32.8z"/>
  <path class="st2" d="M47.7,30.7c-0.6,0-1.1,0.5-1.1,1.1c0,0.6,0.5,1.1,1.1,1.1c0.6,0,1.1-0.5,1.1-1.1C48.8,31.2,48.3,30.7,47.7,30.7	z"/>
</svg>
