<svg xmlns="http://www.w3.org/2000/svg" width="64" height="64">
  <path d="M55.342 5.176a.79.79 0 0 0-.566-.239H37.003a.722.722 0 0 0-.5.196L32.5 7.982a.74.74 0 0 1-1 0l-4.024-2.85a.727.727 0 0 0-.5-.196H9.202a.79.79 0 0 0-.566.239A31.96 31.96 0 0 0 0 26.93C-.065 44.398 14.075 58.8 31.543 59.06 49.425 59.3 64 44.9 64 27.06a31.864 31.864 0 0 0-8.658-21.884zm-7.505 8.332c3.24 3.72 5.156 8.57 5.156 13.88 0 12.03-10.116 21.863-22.298 21.2-10.855-.566-19.2-9.572-19.578-20.45-.196-5.6 1.632-10.768 5.025-14.64a.74.74 0 0 0-.044-1.022L9.833 6.33l21.275 15.228c.566.457 1.35.457 1.893 0L54.254 6.33l-6.396 6.156a.766.766 0 0 0-.022 1.022z" fill="#df696a"/>
</svg>
