<svg version="1.1" xmlns="http://www.w3.org/2000/svg" x="0" y="0" viewBox="0 0 64 64" width="64" height="64" style="enable-background:new 0 0 64 64">
  <path d="M32 0C14.3 0 0 14.3 0 32s14.3 32 32 32 32-14.3 32-32S49.7 0 32 0zm29.3 26.4c.2 3 0 6.1-.6 9.3-.7 3.3-1.8 6.7-3.6 9.9-4.6 8.3-12.3 13.8-20.5 15.6 8.1-2.3 15.4-8.4 19.9-16.8 1.8-3.3 2.9-6.7 3.6-9.9.6-2.9 1-5.6 1.2-8.1zm-2.4 7.7c-.7 3.2-1.9 6.4-3.5 9.6-4.2 7.9-11 13.6-18.4 16 7.2-2.9 13.8-9.2 17.9-17.2 1.7-3.2 2.8-6.5 3.6-9.6.7-2.9 1.3-5.7 1.7-8.2-.1 2.9-.6 6.1-1.3 9.4zm-1.7-1.5c-.8 3-1.9 6.2-3.5 9.3-3.8 7.5-9.8 13.3-16.3 16.2 6.9-3.8 12.3-10.4 15.7-17.5 1.6-3.2 2.7-6.3 3.5-9.3.4-1.5.9-2.9 1.3-4.3s.8-2.7 1.1-3.9c-.3 2.8-.9 6.1-1.8 9.5zm-.6-5.2c-.4 1.2-.7 2.5-1.1 3.7-.8 2.8-1.9 6-3.4 9.1-3.1 6.4-7.8 12.4-14 16.3C44 52 48.4 45.6 51.5 38.9c1.5-3.1 2.5-6.2 3.4-8.9 1-3 2.2-5.9 3.2-8-.5 1.7-1 3.6-1.5 5.4zm.6-6.4c-1.1 2.2-2.4 5.3-3.4 8.6-.8 2.7-1.9 5.7-3.3 8.8-2.8 6-6.7 11.8-11.8 16.1 4.9-4.9 8.5-11.1 11.2-17.4 1.4-3.1 2.4-6 3.3-8.6 1.1-3.1 2.6-5.8 4-7.5zm-8.5 4c-1 2.1-1.8 4.3-2.6 6.5l-.6 1.5c-1.7 4.5-3.6 9.3-5.8 13.6 1.3-3.4 2.6-7 3.7-10.5l1.5-4.5c1-2.9 2-5.5 3-7.5 1.2-2.3 3.3-4.2 5.6-4.9-2 1.2-3.7 3.3-4.8 5.8zm6.3-5.3c-1.8 1.5-3.5 4.1-4.7 6.8-.4 1.1-.9 2.2-1.3 3.2-.7 1.7-1.3 3.3-2 5-2 5.1-4.6 10.3-7.4 14.7 2.8-5.2 5-10.6 7-16.1l.6-1.5c.8-2.2 1.6-4.3 2.6-6.4 1.1-2.5 3.1-4.7 5.2-5.7zm-8.1 3.7c-1.1 2.1-2.1 4.8-3.1 7.7-.6 1.5-1.1 3.1-1.6 4.6-.9 2.6-1.8 5.1-2.7 7.7.3-1.1.6-2.1.9-3.2.9-3.3 1.8-6.7 2.8-10 1-3.1 2-5.8 3.1-7.7s3.2-3.5 5.6-4.1c-2.1 1.1-3.9 2.9-5 5zm1.4 11.8c.8-1.9 1.5-3.7 2.1-5.5.4-1 .8-1.9 1.1-2.8 1.2-2.8 3-5.4 4.8-6.6-1.5 1.8-3.1 4.7-4.2 7.7-.9 2.5-1.9 5.5-3.3 8.5-2.4 5.5-5.5 10.9-9.5 15.4 3.7-5.1 6.6-10.8 9-16.7zM32 1.2c10.1 0 19 4.8 24.6 12.3-5.9-7-15.2-11.3-25.4-11.2-3.8.1-7.4.8-10.8 1.9-2.5.9-4.9 2-7.1 3.3C18.5 3.5 25 1.2 32 1.2zM20.9 5.4c3.2-1.1 6.7-1.8 10.4-1.8 9.5-.2 18 3.7 23.7 10-6-5.8-15-9.2-24.5-8.9-3.7.1-7.2.8-10.4 1.8-2.7.9-5.3 1.9-7.5 3 2.4-1.7 5.2-3.1 8.3-4.1zm-.5 2.2c3.1-1 6.5-1.6 10.1-1.7 9-.3 17.3 2.8 23 7.9C47.4 9.1 38.7 6.5 29.7 7c-3.6.2-7 .8-10.1 1.7-2.8.8-5.6 1.7-7.9 2.6 2.5-1.4 5.5-2.7 8.7-3.7zm-.5 2.3c3-.9 6.3-1.5 9.8-1.7 8.4-.4 16.4 1.8 22.2 5.9-6.8-4.1-15.2-5.4-23-4.8-3.5.3-6.8.9-9.8 1.6-1.5.4-2.9.7-4.4 1.1-1.4.4-2.8.7-4 1 2.7-1.1 5.9-2.2 9.2-3.1zM15.7 13c1.3-.3 2.5-.6 3.7-.9 2.9-.8 6.1-1.3 9.6-1.6 7.1-.5 14.7.6 21.1 3.9-6.8-2.9-14.6-3.5-21.9-2.8-3.4.3-6.6.9-9.4 1.5-3.1.7-6.2 1.1-8.5 1.2 1.8-.4 3.6-.8 5.4-1.3zm-5.8 2.6c2.4-.2 5.8-.6 9.2-1.3 2.7-.6 5.9-1.2 9.3-1.5 6.6-.6 13.5-.1 19.8 2.2-6.7-1.8-13.9-1.8-20.7-1.1-3.3.4-6.4.9-9.1 1.4-3.3.7-6.3.8-8.5.3zm-.1 1.3c2.3.4 5.6.3 8.8-.3 2.6-.5 5.7-1.1 9-1.4 6-.7 12.2-.7 18.2.5-6.4-.7-12.8-.3-19.2.6-2 .3-4 .6-5.8.9-1.1.2-2 .3-2.9.5-3 .4-6.2 0-8.1-.8zm19.9 3.2c-1.6.3-3.1.6-4.6.9-3 .6-5.8 1-8.1 1.2-2.6.2-5.3-.8-7-2.4 2.1 1.2 4.9 1.6 7.6 1.4 2.3-.3 4.6-.6 6.9-1 .5-.1 1-.2 1.6-.3 4.8-.8 9.9-1.5 14.7-1.8-3.7.5-7.5 1.3-11.1 2zm8.4-.4c-1.1.3-2.1.6-3.2.9-3.3.9-6.7 1.8-10.1 2.6-3.2.7-6 1.2-8.2 1.2-2.2 0-4.7-1.1-6.3-2.8 2 1.3 4.5 1.9 6.8 1.8 2.3-.2 5.1-.6 8.2-1.2l4.8-.9c2.7-.6 5.3-1.1 8-1.6zm-12.2-1.1c-.5.1-1 .2-1.6.3-2.3.4-4.6.8-6.8 1-2.8.3-5.7-.4-7.6-1.7 2.2.8 5.3 1.1 8.2.7 1-.2 1.9-.3 3-.5 1.8-.3 3.7-.6 5.7-.9 5.5-.8 11.3-1.1 16.5-.8-5.9.2-11.7 1-17.4 1.9zM5.3 47.4C.3 38.7 0 28.5 3.7 20c-3.1 8.6-2.2 18.8 3 27.6 2 3.3 4.4 6.1 7 8.4 2 1.8 4.2 3.3 6.4 4.5-6-2.6-11.2-7-14.8-13.1zm9.2 7.6c-2.6-2.2-4.9-4.9-6.8-8.1C2.9 38.8 2 29.4 4.5 21.3 2.5 29.4 4 38.9 9.1 47c2 3.1 4.3 5.9 6.8 8.2 2.1 1.9 4.3 3.6 6.4 5-2.7-1.4-5.4-3.1-7.8-5.2zm2.2-.8c-2.4-2.2-4.7-4.8-6.6-7.9C5.4 38.7 3.9 30 5.5 22.4c-1.1 7.7 1.1 16.5 6 24.1 2 3 4.2 5.7 6.5 7.9 2.1 2.1 4.3 4 6.3 5.6-2.5-1.5-5.1-3.5-7.6-5.8zm2.1-.7c-2.2-2.1-4.4-4.7-6.3-7.7-4.6-7-6.6-15.1-5.9-22.2-.1 8 2.9 15.9 7.3 22.4 2 2.9 4.2 5.5 6.3 7.6.9 1 1.8 1.9 2.8 2.9 1.1 1.1 2.1 2.2 3.2 3.3-2.3-1.6-4.8-3.9-7.4-6.3zm4.9 2.1c-.9-.9-1.8-1.9-2.7-2.8-2.1-2.1-4.2-4.6-6.1-7.5-4-5.9-6.8-13-7.1-20.3.9 7.4 4.3 14.4 8.5 20.5 2 2.8 4.1 5.3 6 7.4 2.2 2.4 4.1 4.8 5.3 6.7-1.3-1.3-2.6-2.6-3.9-4zm5.2 3.7c-1.3-2-3.4-4.8-5.7-7.3-1.9-2.1-4-4.5-5.9-7.3-3.8-5.4-6.9-11.7-8.1-18.3 1.8 6.7 5.4 12.9 9.5 18.4 2 2.7 4 5.1 5.8 7.1 2 2.7 3.7 5.4 4.4 7.4zm1.1-.5c-.8-2.2-2.5-5-4.6-7.5-1.8-2-3.7-4.4-5.7-7.1-3.6-4.9-6.7-10.2-8.6-16 2.6 5.8 6.2 11.2 10.1 16.2 1.3 1.6 2.5 3.2 3.6 4.6.7.8 1.3 1.6 1.9 2.3 1.8 2.5 3.1 5.4 3.3 7.5zm1.1-.7c-.4-2.3-1.7-5.1-3.5-7.4-.6-.8-1.2-1.5-1.9-2.4-1.1-1.4-2.4-2.9-3.6-4.5-3.4-4.4-6.6-9.2-8.9-13.9 3.1 5 6.7 9.6 10.4 14.1.4.4.7.8 1 1.2 1.5 1.8 2.9 3.5 4.3 5.4 1.5 2.4 2.4 5.2 2.2 7.5zm1.3-.9c-.1-2.4-1.1-5.1-2.6-7.2-1.4-1.9-2.8-3.7-4.3-5.5-.4-.4-.7-.8-1-1.2-3-3.7-6.2-7.8-8.9-11.8 2.3 2.8 4.8 5.7 7.2 8.6 1.1 1.2 2.1 2.4 3.1 3.5 2 2.4 3.8 4.5 5 6.4 1.4 2.1 2 4.8 1.5 7.2zm1.4-1.2c.2-2.3-.6-4.8-1.8-6.8-1.3-1.9-3.1-4.2-5.1-6.5-1.1-1.2-2.1-2.5-3.2-3.7-1.8-2-3.5-4.1-5.3-6.2.8.8 1.6 1.6 2.4 2.3 2.5 2.4 4.9 4.9 7.3 7.4 2.2 2.4 4 4.6 5.1 6.5 1 2 1.3 4.7.6 7zm.3-7.5c-1.2-2-3.1-4.4-5.3-6.7-2.3-2.5-4.7-4.9-7.1-7.2-3.3-3.3-6.7-6.5-9.7-10.1 1.5.8 3.1 1.2 4.6 1.2 2.3 0 5.3-.5 8.5-1.2 3.3-.8 6.6-1.7 9.9-2.6 4.5-1.3 9-2.5 13.6-3.3-1.4.9-2.6 2.1-3.3 3.4-1.2 2-2.2 4.8-3.2 7.9-1 3.2-1.9 6.5-2.7 9.8-1.2 4.5-2.3 9-3.9 13.4-.2-1.7-.6-3.3-1.4-4.6zm1.6 14.1c9-1.7 17.4-7.5 22.4-16.4 1.9-3.3 3.1-6.8 3.7-10.3.5-2.6.8-5.3.7-7.8.8 6.4-.4 13.2-3.9 19.3-5 8.7-13.6 14-22.9 15.2z" style="fill:#1b3356"/>
</svg>
