<svg xmlns="http://www.w3.org/2000/svg" viewBox="0 0 64 64" version="1.1" width="64" height="64">
  <defs>
    <linearGradient id="b" x1="250.452" y1="-126.226" x2="259.318" y2="622.362" gradientUnits="userSpaceOnUse" gradientTransform="matrix(.04534 0 0 .04534 8.987 16.449)">
      <stop offset="0" stop-color="#fdf057"/>
      <stop offset="1" stop-color="#164991"/>
    </linearGradient>
    <clipPath id="a">
      <path class="cls-1" style="fill:none" d="M22.344 23.079h465.258v465.258H22.344z"/>
    </clipPath>
  </defs>
  <g transform="matrix(2.13328 0 0 2.13328 -11.835 -31.998) translate(-8.673 -9.88) scale(1.4221)">
    <g style="isolation:isolate;clip-path:url(#a)" clip-path="url(#a)" transform="matrix(.04534 0 0 .04534 8.987 16.449)">
      <path class="cls-1" style="fill:none" d="M-68.809-9.204h467.157v467.157H-68.809z"/>
      <path transform="rotate(90 461.672 101.801)" style="fill:#8bcfb6" d="M26.14 72.386h871.066v58.831H26.14z"/>
      <path class="cls-5" transform="rotate(90 402.841 101.801)" style="fill:#73c8f0" d="M-32.692 72.386h871.066v58.831H-32.692z"/>
      <path class="cls-6" transform="rotate(90 285.18 101.801)" style="fill:#8cd4e2" d="M-150.354 72.386h871.066v58.831h-871.066z"/>
      <path class="cls-7" transform="rotate(90 285.18 -19.542)" style="fill:#36bdaf" d="M-29.01-48.958h628.379V9.873H-29.01z"/>
      <path class="cls-8" transform="rotate(90 285.18 323.538)" style="opacity:.54000005;fill:#ee4197" d="M256.288 294.123h57.782v58.831h-57.782z"/>
      <path class="cls-9" transform="rotate(90 167.517 351.507)" style="fill:#0267a2" d="M-18.31 322.091h371.655v58.831H-18.31z"/>
      <path class="cls-10" transform="rotate(90 109.965 101.801)" style="fill:#029e6e" d="M-325.568 73.664h871.066v56.273h-871.066z"/>
      <path transform="rotate(90 52.413 101.801)" style="fill:#00b3ac" d="M-383.12 72.386h871.066v58.831H-383.12z"/>
      <path class="cls-12" transform="rotate(90 167.517 -54.99)" style="fill:#0785c1" d="M-111.224-84.406h557.482v58.831h-557.482z"/>
      <path class="cls-8" transform="rotate(90 167.517 194.715)" style="opacity:.54000005;fill:#ee4197" d="M138.481 165.299h58.071v58.831h-58.071z"/>
      <path class="cls-5" transform="rotate(-90 517.946 101.801)" style="fill:#73c8f0" d="M82.413 72.386h871.066v58.831H82.413z"/>
      <path class="cls-7" transform="rotate(-90 576.777 266.153)" style="fill:#36bdaf" d="M305.596 236.738h542.362v58.831H305.596z"/>
      <path class="cls-13" transform="rotate(-90 576.777 -64.899)" style="fill:#00ac72" d="M307.944-94.314H845.61v58.831H307.944z"/>
      <path class="cls-6" transform="rotate(-90 635.608 101.801)" style="fill:#8cd4e2" d="M200.075 72.386h871.066v58.831H200.075z"/>
      <path class="cls-14" transform="rotate(-90 696.997 101.801)" style="fill:#60c4b4" d="M261.464 69.828h871.066v63.947H261.464z"/>
      <path class="cls-9" transform="rotate(-90 759.664 -44.942)" style="fill:#0267a2" d="M470.875-80.752h577.58v71.62h-577.58z"/>
      <path class="cls-10" transform="rotate(-90 810.822 101.801)" style="fill:#029e6e" d="M375.289 73.664h871.066v56.273H375.289z"/>
      <path transform="rotate(-90 868.374 101.801)" style="fill:#3dbca0" d="M432.841 72.386h871.066v58.831H432.841z"/>
      <path class="cls-12" transform="rotate(-90 753.27 248.544)" style="fill:#0785c1" d="M464.48 219.128h577.58v58.831H464.48z"/>
      <path class="cls-13" transform="rotate(90 344.01 264.313)" style="fill:#00ac72" d="M70.989 234.897h546.042v58.831H70.989z"/>
      <path class="cls-14" transform="rotate(90 226.348 101.801)" style="fill:#60c4b4" d="M-209.185 72.386h871.066v58.831h-871.066z"/>
    </g>
    <path style="opacity:.73999999;isolation:isolate;mix-blend-mode:overlay;fill:url(#b);stroke-width:.04534274" d="M10 17.495h21.096v21.079H10z"/>
  </g>
</svg>
