<svg version="1.1" xmlns="http://www.w3.org/2000/svg" xmlns:xlink="http://www.w3.org/1999/xlink" x="0px" y="0px" viewBox="0 0 120 60" style="enable-background:new 0 0 120 60" xml:space="preserve">
  <g>
    <g>
      <g transform="translate(36.000000, 0.000000)">
        <path d="M-7.1,22.5l-10.5-6c-0.4-0.2-0.8-0.3-1.2-0.3c-0.4,0-0.8,0.1-1.2,0.3l-10.5,6c-0.7,0.4-1.2,1.2-1.2,2v11.9 c0,0.8,0.5,1.6,1.2,2l8.8,5c0.4,0.2,0.8,0.3,1.2,0.3c0,0,0.1,0,0.1,0c1.3-0.1,2.3-1.1,2.3-2.3l0-1.7l0-0.1c1.2-2.9,2.1-4.9,2.7-6 c0.2-0.4,0.5-0.8,1-1.4c0-0.1,0.2-0.3,0.3-0.4c1.1-1.4,1.6-2.4,1.6-4c0-3.4-2.8-6.2-6.3-6.2s-6.3,2.8-6.3,6.2 c0,1.6,0.4,2.6,1.4,3.9c0.1,0.1,0.4,0.5,0.5,0.6c0.4,0.5,0.6,0.9,0.9,1.4c0.5,1.1,1.4,3,2.7,5.6l0,2.1c0,0.5-0.4,0.9-0.9,0.9 c-0.2,0-0.3,0-0.4-0.1l-8.8-5c-0.3-0.2-0.4-0.4-0.4-0.8V24.5c0-0.3,0.2-0.6,0.4-0.8l10.5-6c0.3-0.2,0.6-0.2,0.9,0l10.5,6 c0.3,0.2,0.4,0.4,0.4,0.8v11.9c0,0.3-0.2,0.6-0.4,0.8l-7,4c-0.4,0.2-0.5,0.7-0.3,1c0.2,0.3,0.4,0.4,0.7,0.4c0.1,0,0.2,0,0.3-0.1 l7-4c0.7-0.4,1.2-1.2,1.2-2V24.5C-5.9,23.7-6.3,22.9-7.1,22.5z M-20.9,33.1c-0.3-0.6-0.6-1-1-1.6c-0.1-0.1-0.4-0.5-0.5-0.6 c-0.8-1.1-1.1-1.8-1.1-3c0-2.6,2.1-4.7,4.8-4.7s4.8,2.1,4.8,4.7c0,1.2-0.3,1.9-1.3,3.1c-0.1,0.1-0.3,0.3-0.3,0.4 c-0.5,0.7-0.8,1.1-1.1,1.6c-0.4,0.7-0.8,1.7-1.4,3l0-5.7c0.9-0.3,1.6-1.1,1.6-2.1c0-1.2-1-2.2-2.3-2.2s-2.3,1-2.3,2.2 c0,0.9,0.6,1.8,1.4,2.1l0,5.8C-20.1,34.7-20.5,33.8-20.9,33.1z"/>
      </g>
    </g>
    <g>
      <path d="M45.8 34.6c-.4.6-1 1-1.7 1.2-.7.3-1.6.4-2.5.4-1 0-1.8-.3-2.6-.7-.7-.5-1.3-1.1-1.7-2-.4-.8-.6-1.8-.6-2.9l0-1c0-1.8.5-3.2 1.4-4.1.9-1 2-1.4 3.6-1.4 1.2 0 2.2.4 3 1 .7.7 1.2 1.6 1.3 2.7l-1.6 0c-.3-1.6-1.2-2.4-2.7-2.4-1 0-1.9.3-2.4 1-.6.7-.9 1.8-.9 3.2l0 1c0 1.3.2 2.4.8 3.2.6.8 1.4 1.2 2.4 1.2.6 0 1.1 0 1.5-.2.4-.1.8-.3 1.1-.6l.1-2.7-2.7-.1 0-1.3 4.3.1L45.8 34.6zM51.8 36.5c-1.2 0-2.2-.4-2.9-1.3-.7-.8-1.1-1.9-1-3.2l0-.3c0-.9.2-1.7.6-2.3.4-.7.8-1.2 1.4-1.6.6-.4 1.3-.6 2-.5 1.1 0 2 .4 2.6 1.2.6.8.9 1.9.9 3.3l0 .6-6-.2c0 .9.2 1.6.7 2.1.5.5 1.1.8 1.8.9.5 0 1-.1 1.4-.3.4-.2.7-.5 1-.8l.9.7C54.4 36 53.2 36.5 51.8 36.5zM51.8 28.6c-.6 0-1.1.2-1.5.6-.4.4-.7 1-.8 1.8l4.4.1 0-.1c0-.8-.2-1.4-.6-1.8C52.9 28.8 52.4 28.6 51.8 28.6zM56.7 31.9c0-.9.2-1.6.6-2.3s.8-1.2 1.5-1.6c.6-.4 1.3-.5 2.1-.5 1.2 0 2.2.5 2.9 1.3.7.8 1.1 2 1 3.3l0 .1c0 .9-.2 1.6-.6 2.3-.3.7-.8 1.2-1.4 1.6-.6.4-1.3.5-2.1.5-1.2 0-2.2-.5-2.9-1.3-.7-.8-1.1-2-1-3.3L56.7 31.9zM58.2 32.2c0 1 .2 1.8.6 2.4.4.6 1 .9 1.8.9.8 0 1.4-.3 1.8-.9.5-.6.7-1.4.7-2.5 0-1-.2-1.8-.6-2.4-.4-.6-1-.9-1.8-.9-.7 0-1.4.3-1.8.8C58.4 30.2 58.2 31.1 58.2 32.2zM68.1 27.9l0 1c.7-.7 1.5-1.1 2.6-1.1 1.2 0 2.1.5 2.5 1.5.3-.4.7-.7 1.2-1 .5-.2 1-.4 1.7-.3C78 28 79 29 79 31.1L78.8 37l-1.5 0 .1-5.8c0-.6-.1-1.1-.4-1.4-.3-.3-.8-.5-1.4-.5-.6 0-1 .1-1.4.5-.4.3-.6.8-.7 1.3l-.1 5.9-1.5 0L72 31c0-1.3-.6-1.9-1.8-2-1 0-1.7.4-2.1 1.2L68 36.7l-1.5 0 .2-8.8L68.1 27.9zM86.5 37.2c-.1-.2-.1-.5-.2-.9-.7.7-1.6 1.1-2.5 1-.9 0-1.6-.3-2.1-.8-.5-.5-.8-1.1-.8-1.9 0-.9.4-1.6 1.1-2.1.7-.5 1.7-.7 3-.7l1.5 0 0-.7c0-.5-.1-1-.4-1.3-.3-.3-.8-.5-1.4-.5-.5 0-1 .1-1.4.4-.4.3-.6.6-.6 1l-1.5 0c0-.4.2-.9.5-1.3.3-.4.8-.7 1.3-.9.5-.2 1.1-.3 1.8-.3 1 0 1.8.3 2.4.8.6.5.8 1.2.8 2.1l-.1 4.1c0 .8.1 1.5.3 1.9l0 .1L86.5 37.2zM84.1 36c.5 0 .9-.1 1.4-.3.4-.2.7-.5.9-.9l0-1.8-1.2 0c-1.8 0-2.8.5-2.8 1.6 0 .5.1.8.4 1.1C83.2 35.8 83.6 36 84.1 36zM91.8 28.5l0 1.1c.7-.8 1.6-1.2 2.7-1.2 1.9 0 2.8 1.1 2.7 3.2l-.1 5.8-1.5 0 .1-5.8c0-.6-.1-1.1-.4-1.4-.3-.3-.7-.5-1.3-.5-.5 0-.9.1-1.3.4-.4.3-.7.6-.9 1l-.2 6.3-1.5 0 .2-8.8L91.8 28.5zM99.4 36.7c0-.3.1-.5.2-.6.2-.2.4-.3.7-.2.3 0 .5.1.7.3.2.2.2.4.2.7 0 .2-.1.5-.3.6-.2.2-.4.2-.7.2-.3 0-.5-.1-.7-.3C99.5 37.2 99.4 37 99.4 36.7zM105.4 37.7l-1.5 0 .2-8.8 1.5 0L105.4 37.7zM104.1 26.5c0-.2.1-.4.2-.6.2-.2.4-.2.7-.2.3 0 .5.1.7.3.1.2.2.4.2.6 0 .2-.1.4-.2.6-.2.2-.4.2-.7.2-.3 0-.5-.1-.7-.3C104.1 26.9 104 26.7 104.1 26.5zM107.5 33.2c0-.9.2-1.6.6-2.3.4-.7.8-1.2 1.5-1.6.6-.4 1.3-.5 2.1-.5 1.2 0 2.2.5 2.9 1.3.7.8 1.1 2 1 3.3l0 .1c0 .9-.2 1.6-.6 2.3-.3.7-.8 1.2-1.4 1.6-.6.4-1.3.5-2.1.5-1.2 0-2.2-.5-2.9-1.3-.7-.9-1.1-2-1-3.3L107.5 33.2zM109 33.4c0 1 .2 1.8.6 2.4.4.6 1 .9 1.8.9.8 0 1.4-.3 1.8-.9.5-.6.7-1.4.7-2.5 0-1-.2-1.8-.6-2.4-.4-.6-1-.9-1.8-.9-.7 0-1.4.3-1.8.8C109.3 31.5 109.1 32.3 109 33.4z"/>
    </g>
  </g>
</svg>
