<svg xmlns:svg="http://www.w3.org/2000/svg" xmlns="http://www.w3.org/2000/svg" viewBox="0 0 120 60" version="1.1" style="fill:none">
  <path d="M15.392313 43.870343c-.225925-.420925-.552867-.739625-.9809-.956099-.416087-.228496-.909524-.342745-1.480234-.342745-.986798 0-1.777462.330723-2.371914.992167-.5944526.649421-.89168 1.521367-.89168 2.615834 0 1.166601.3090982 2.080661.927369 2.742105.630141.649421 1.492105.974171 2.585891.974171.749077 0 1.379218-.19243 1.890423-.577289.523153-.38486.903626-.938105 1.141423-1.65966h-3.869992v-2.27309h6.63425v2.868374c-.225925.769719-.612296 1.485301-1.15919 2.14682-.535023.661444-1.218697 1.196619-2.050946 1.605522-.832248.408904-1.771487.613355-2.817791.613355-1.236464 0-2.342198-.270535-3.3171246-.811758C8.6688413 51.254805 7.9138663 50.491135 7.3669724 49.516964 6.8319506 48.542795 6.564439 47.430256 6.564439 46.1795c0-1.250756.2675116-2.363293.8025334-3.337464.5468939-.986193 1.3018689-1.749863 2.264925-2.291071.9630566-.553229 2.0628156-.829852 3.2992816-.829852 1.498077 0 2.75836.366819 3.780846 1.100456 1.034358.73363 1.71803 1.74993 2.050945 3.048774zM25.838938 42.336955v2.561696h4.08397v2.38129h-4.08397v2.778171h4.618993v2.471493H22.789324V39.86544h7.668607v2.471515zM43.567117 39.86544v2.471515h-3.31712v10.19265H37.200382V42.336955H33.883256V39.86544ZM54.800637 46.035159c.725095.156363 1.307303.523152 1.747363 1.100441.440059.565267.660076 1.214765.660076 1.948341 0 1.058401-.368972 1.900254-1.106177 2.525631-.725109.613356-1.741322.920033-3.049391.920033H47.220784V39.86544h5.635584c1.272083 0 2.264855.294655 2.978619.883966.725109.589311 1.087288 1.38907 1.087288 2.399307 0 .745675-.195837 1.365079-.58825 1.858138-.38033.493134-.891463.835878-1.533388 1.028308zm-4.530238-1.046303h1.997416c.499407 0 .879815-.108274 1.141569-.324749.272966-.228497.409812-.559218.409812-.992166 0-.433024-.136846-.763746-.409812-.992242-.261754-.228496-.642162-.342744-1.141569-.342744h-1.997416zm2.247086 5.051261c.511279 0 .903243-.114249 1.176961-.342821.285802-.240518.42795-.583262.42795-1.028232 0-.445046-.14819-.793763-.445349-1.046379-.285801-.252541-.683965-.37881-1.195178-.37881h-2.21147v2.796242zM64.149156 50.148315h3.995281v2.38129H61.099779V39.86544h3.049377zM77.642677 52.655951c-1.176499 0-2.258497-.276661-3.245979-.829905-.974621-.553169-1.753405-1.322888-2.335613-2.309082-.570864-.998289-.856678-2.116726-.856678-3.355535 0-1.238733.285814-2.351195.856678-3.337389.582208-.986192 1.360992-1.755927 2.335613-2.309157.987482-.553229 2.06948-.829844 3.245979-.829844 1.177265 0 2.253207.276615 3.227828.829844.987483.55323 1.760225 1.322965 2.318992 2.309157.570099.986194.855913 2.098656.855913 3.337389 0 1.238809-.285814 2.357246-.855913 3.355535-.570863.986194-1.343606 1.755913-2.318992 2.309082-.974621.553244-2.050563.829905-3.227828.829905zm0-2.814313c.998827 0 1.795762-.336771 2.390067-1.010238.6064-.673465.909601-1.563481.909601-2.669971 0-1.118437-.303201-2.008452-.909601-2.669896-.594305-.673541-1.39124-1.010237-2.390067-1.010237-1.010158 0-1.819189.330722-2.42559.992165-.594305.661521-.89145 1.55751-.89145 2.687968 0 1.118512.297145 2.014502.89145 2.688043.606401.661444 1.415432.992166 2.42559.992166zM87.348099 46.1795c0-1.250756.266898-2.363293.802224-3.337464.535327-.986193 1.277822-1.749863 2.229015-2.291071.963276-.553229 2.051316-.829852 3.264117-.829852 1.485755 0 2.758287.396889 3.816078 1.190652 1.058557.793771 1.765515 1.876209 2.122403 3.247261h-3.352591c-.249512-.529201-.6064-.932131-1.069888-1.208716-.452155-.276584-.969331-.414952-1.551539-.414952-.939849 0-1.700481.330798-2.28269.992242-.58296.661444-.874064 1.54541-.874064 2.6519 0 1.10649.291104 1.990456.874064 2.6519.582209.661446 1.342841.992242 2.28269.992242.582208 0 1.099384-.138367 1.551539-.414953.463488-.276584.820376-.679514 1.069888-1.208715h3.352591c-.356888 1.371052-1.063846 2.453498-2.122403 3.247261-1.057791.781741-2.330323 1.172573-3.816078 1.172573-1.212801 0-2.300841-.270535-3.264117-.811758C89.428145 51.254805 88.68565 50.491135 88.150323 49.516964 87.614997 48.542795 87.348099 47.430256 87.348099 46.1795ZM110.83133 52.529605l-4.20926-5.592409v5.592409h-3.04939V39.86544h3.04939v5.556364l4.17372-5.556364h3.58472l-4.85121 6.205785 5.02888 6.45838z" style="fill:#3478f6;stroke-width:0.75610888"/>
  <path d="m 57.785134,18.731451 v 16.1651 l -13.8541,-7.9176 v -16.16507 z" style="fill:#3478f6"/>
  <path d="m 57.785234,18.731451 13.8541,-7.91757 v 16.16507 l -13.8541,7.9176 z" style="opacity:0.25;fill:#3478f6"/>
  <path d="m 57.785134,2.8965514 13.854,7.9175896 -13.854,7.91761 -13.8541,-7.91761 z" style="opacity:0.5;fill:#3478f6"/>
</svg>
