<svg xmlns="http://www.w3.org/2000/svg" viewBox="0 0 120 60" version="1.1" width="120" height="60">
  <g transform="translate(.553)">
    <g transform="matrix(.13808 0 0 .13808 24.816 20.845)" style="fill:#03313f">
      <path d="M199.7 112.5c0 12.5-8.7 19.9-18 19.9s-17.8-7.2-17.8-19.9V19.9c0-12.5 8.7-19.9 18-19.9s17.8 7.2 17.8 19.9v34.8h-9.3V19.6c0-6.6-4.2-9.8-8.7-9.8-4.2 0-8.5 3.2-8.5 9.8v93.3c0 6.6 4.3 9.9 8.5 9.9 4.5 0 8.7-3.4 8.7-9.9V77.7h9.3z"/>
      <path d="M240.6 21.5c0-6.6-4.2-10.3-9-10.3h-8.2v50.5h8.2c4.7 0 9-4 9-10.7zm9.3 108.8h-9.3V81.9c0-7.1-4.3-10.7-9-10.7h-8.2v59.1h-9.3V2.1h18.8c9 0 17 6.3 17 18.9v30.6c0 7.2-3.7 12.5-8.7 14.7 5.1 2.2 8.7 8 8.7 15.5z"/>
      <path d="M290.8 19.6c0-6.6-4.2-9.8-8.7-9.8-4.2 0-8.5 3.2-8.5 9.8v93.3c0 6.6 4.3 9.9 8.5 9.9 4.5 0 8.7-3.4 8.7-9.9zm9.3 92.9c0 12.5-8.7 19.9-18 19.9s-17.8-7.2-17.8-19.9V19.9c0-12.5 8.7-19.9 18-19.9s17.8 7.2 17.8 19.9z"/>
      <path d="M349.4 41.2h-9.3V19.9c0-5.3-3.2-9.9-8.8-9.9-6.3 0-8.3 5.1-8.3 10.3 0 5.3 1.8 12.5 3.5 17.5l18.6 52.9c2.2 6.4 4.2 14.9 4.2 21.5 0 14.1-8.8 20.4-17.6 20.4-9 0-18-6.6-18-19.6V91.2h9.3v21.5c0 5.3 3.4 9.9 8.8 9.9 6.1 0 8.3-5.1 8.3-10.3 0-5.3-1.9-13.5-3.7-18.3l-18.8-52.9c-2.2-6.4-4-14.1-4-20.7 0-14.3 8.8-20.4 17.6-20.4 9 0 18.1 6.6 18.1 19.6z"/>
      <path d="M398 41.2h-9.3V19.9c0-5.3-3.2-9.9-8.8-9.9-6.3 0-8.3 5.1-8.3 10.3 0 5.3 1.8 12.5 3.5 17.5l18.6 52.9c2.2 6.4 4.2 14.9 4.2 21.5 0 14.1-8.8 20.4-17.6 20.4-9 0-18-6.6-18-19.6V91.2h9.3v21.5c0 5.3 3.4 9.9 8.8 9.9 6.1 0 8.3-5.1 8.3-10.3 0-5.3-1.9-13.5-3.7-18.3l-18.8-52.9c-2.2-6.4-4-14.1-4-20.7C362.2 6.1 371 0 379.8 0c9 0 18.1 6.6 18.1 19.6z"/>
      <path d="M438.1 81.7c0-7.1-4.2-10.9-8.8-10.9H421v50.3h8.2c4.8 0 9-3.5 9-10.3V81.7Zm0-60.2c0-6.7-4.2-10.3-8.8-10.3H421V62h8.2c4.7 0 9-3.8 9-10.6V21.5Zm9.3 91.3c0 11.2-7.9 17.5-16.2 17.5h-19.6V2.1H431c8.3 0 16.3 6.3 16.3 17.6v31.6c0 7.5-3.5 12.7-8.5 14.7 5 2.2 8.5 7.2 8.5 14.6v32.2z"/>
      <path d="M461.8 2.1v128.2h31.7v-9.1h-22.4v-51h16.2v-9.1h-16.2V11.2h22.4V2.1Z"/>
      <path d="m521.1 37.8 1.3-16.3 1.1 16.3 6.4 56.4h-15.1Zm-4.2-35.7-15.2 128.2h9.1l3.2-27.1h16.7l3 27.1h9.5L528 2.1Z"/>
      <path d="m604.1 2.1-16.5 90.1-2.2 14.9-2.3-14.9-16.5-90.1h-12.8v128.2h9.3V41.8l-.2-15.7 2.4 16.1 16.2 88.1h7.7l16.2-88.1 2.4-16.1-.2 15.7v88.5h9.3V2.1Z"/>
    </g>
    <g transform="matrix(1.43784 0 0 1.43784 -5.484 -13.112)">
      <path style="fill:#f53251;stroke-width:.16210084" d="M18.073 33.923H10v6.451h20.798v-6.451h-8.073l-2.334-3.94z"/>
      <path style="fill:#77d9e2;stroke-width:.16210084" d="M10 19.593v6.452h8.073l2.318 3.939 2.334-3.94h8.073v-6.45z"/>
    </g>
  </g>
</svg>
