<svg version="1.1" xmlns="http://www.w3.org/2000/svg" x="0" y="0" viewBox="0 0 64 64" width="64" height="64" style="enable-background:new 0 0 64 64">
  <path class="st0" d="M49.6 14.5C45.1 10 38.9 7.3 32.1 7.3 18.4 7.3 7.3 18.3 7.3 32S18.4 56.7 32 56.7c13.7 0 24.7-11.1 24.7-24.7.1-6.8-2.7-13-7.1-17.5zm-7-2h.2c3.9 2.1 7 5.4 9.1 9.3-1.5-.2-3.1.1-4.5.8-2.7 1.3-3.9 3.8-4.9 6l-.1.2c-.6 1.3-1.8 2.8-3.7 2.6 0-.6-.2-1.3-.4-1.9 2.2-1.8 2.9-4.7 1.7-7.9l-.1-.3c-.8-2.1-1.5-3.8-.9-5.6.5-1.9 2.2-2.8 3.6-3.2zm-17.3-1.6.1-.1c4.4-1.4 9.1-1.3 13.5.1-1.4.9-2.5 2.3-3 4-.9 2.8.1 5.4.9 7.7l.1.3c.5 1.3.7 3.1-.6 4.3-.5-.5-1.1-.9-1.8-1.2.2-2.8-1.4-5.2-4.5-6.7l-.2-.1c-2.1-.9-3.8-1.7-4.7-3.4-.9-2-.4-3.8.2-4.9zM35.5 32c0 1.9-1.6 3.5-3.5 3.5s-3.5-1.6-3.5-3.5 1.6-3.5 3.5-3.5c2 0 3.5 1.5 3.5 3.5zM21.6 12.4c-.2 1.6 0 3.3.8 4.7 1.4 2.7 3.9 3.8 6.2 4.8l.2.1c1.3.6 2.7 1.6 2.7 3.3-.7 0-1.4.2-2.1.5-1.9-2.2-4.8-2.8-8-1.6l-.3.1c-2.1.8-3.9 1.4-5.8.8-1.5-.5-2.7-1.7-3.2-3.2 2.2-4 5.4-7.4 9.5-9.5zM10.8 38.5c-1.3-4.2-1.3-8.7 0-13 1 1.2 2.3 2.1 3.7 2.5 2.9.9 5.5 0 7.8-.9l.2-.1c1.4-.5 3.2-.7 4.5.6-.4.5-.7 1.1-1 1.7-2.9-.3-5.5 1.3-6.9 4.4l-.1.4c-.9 2-1.7 3.7-3.4 4.6-1.6.7-3.3.6-4.8-.2zm10.8 13h-.2c-3.9-2.1-7.1-5.4-9.1-9.3.4 0 .7.1 1.1.1 1.2 0 2.4-.3 3.5-.8 2.7-1.3 3.9-3.8 4.9-6l.1-.2c.6-1.3 1.7-2.8 3.6-2.6 0 .6.2 1.3.5 1.9-2.3 1.8-2.9 4.7-1.7 8l.1.2c.8 2.1 1.5 3.8.9 5.6-.7 1.8-2.4 2.7-3.7 3.1zm17.2 1.6c0 .1 0 .1 0 0-4.5 1.5-9.2 1.4-13.6 0 1.4-1 2.5-2.3 3-4 .9-2.8 0-5.4-.9-7.7l-.1-.3c-.5-1.4-.8-3.1.6-4.3.5.5 1.1.8 1.8 1.1-.3 2.8 1.4 5.4 4.5 6.8l.3.1c2 .9 3.8 1.7 4.7 3.4.9 2 .4 3.8-.3 4.9zm3.8-1.5c.2-1.6 0-3.2-.8-4.7-1.4-2.6-3.9-3.8-6.2-4.8l-.2-.1c-1.3-.6-2.8-1.7-2.7-3.5.7-.1 1.3-.2 2-.5 1.8 2.2 4.8 2.9 8.1 1.7l.3-.1c2.1-.8 3.9-1.4 5.8-.8 1.5.5 2.7 1.7 3.2 3.1-2.2 4.1-5.5 7.5-9.5 9.7zm7.1-15.7c-2.9-.9-5.5 0-7.8.9l-.3.1c-1.4.5-3.2.7-4.5-.7.4-.5.7-1 1-1.6h.8c2.6 0 4.9-1.6 6.2-4.4l.1-.2c.9-2 1.7-3.7 3.5-4.6 1.5-.7 3.2-.7 4.6.1.7 2.1 1 4.3 1 6.6 0 2.2-.3 4.3-.9 6.4-1-1.3-2.3-2.2-3.7-2.6z"/>
  <path class="st0" d="M32.1.5C14.7.5.6 14.6.6 32s14.1 31.5 31.5 31.5S63.6 49.4 63.6 32 49.5.5 32.1.5zm19.4 51c-5 5-11.9 8.1-19.5 8.1C16.8 59.5 4.5 47.2 4.5 32S16.8 4.5 32.1 4.5c15.2 0 27.5 12.3 27.5 27.5 0 7.6-3.1 14.5-8.1 19.5z"/>
  <path class="st0" d="M58.3 6C55.3 3 51.5.8 48.1.1c-.2 0-.5.1-.5.3 0 .2.1.4.2.5C54.6 4.2 60 9.7 63.2 16.6c.1.2.4.3.6.2.2-.1.3-.3.2-.5-.7-3.6-2.8-7.3-5.7-10.3zM16.2 63C9.4 59.8 4 54.3.8 47.5c-.1-.2-.4-.3-.6-.2-.1 0-.2.2-.2.4C.7 51.3 2.8 55 5.8 58c3 3 6.8 5.2 10.2 5.8.2 0 .4-.2.4-.4s-.1-.3-.2-.4z"/>
</svg>
