<svg xmlns="http://www.w3.org/2000/svg" version="1.1" x="0" y="0" viewBox="0 0 120 60" width="120" height="60">
  <switch transform="matrix(.1209 0 0 .1209 8.354 14.658)">
    <g>
      <path d="M145.5 128.2s22.5-65.8 96.4-73.7C351.1 42.8 356.3 25.3 365.3 0c-9.3 63.8-49.2 89.7-139.4 98.1-73.5 6.9-80.4 30.1-80.4 30.1z" style="fill:#9fc666"/>
      <path class="st1" d="M134.2 177.5s-2.9-46.9 64.7-52.3c78.5-6.3 104.7-16.3 116.6-30.3-8.6 44.5-39.3 70.9-103.9 68.1-73.4-3.3-77.4 14.5-77.4 14.5z" style="fill:#77b0b4"/>
      <path class="st1" d="M250.2 182c-16.2 8.5-42.3 2.6-68.8 3.5-38.8 1.3-38.5 12.6-38.5 12.6s32.9 60 107.3-16.1z" style="fill:#77b0b4"/>
      <path class="st2" d="M.8 106.6V83.9h115.5l-70.8 114h70.3v22.8H0l70.8-114H.8z" style="fill:#579295"/>
      <path class="st2" d="M460 129.6c0 25-25.6 45.5-56.9 45.5h-34.3v45.5h-28.5V83.9h62.8c31.2 0 56.9 20.5 56.9 45.7zm-28.5 0c0-12.7-12.8-23-28.5-23h-34.3v45.7H403c15.7.1 28.5-10.2 28.5-22.7z" style="fill:#579295"/>
      <path class="st2" d="M562.9 134.1V83.9h28.7v136.8h-28.7v-63.8H506v63.8h-28.5V83.9H506v50.2z" style="fill:#579295"/>
      <path class="st2" d="M606.4 83.9h32.8l38.5 56.2 38.5-56.2H749l-57.2 82v54.8h-28.5v-54.8z" style="fill:#579295"/>
      <path class="st2" d="M888.8 220.7h-34.9l-41-45.5h-21v45.5h-28.5V83.9h54.1c31.3 0 56.9 20.5 56.9 45.7 0 17.4-12.3 33-31 40.4zM846 129.6c0-12.7-12.8-23-28.5-23h-25.6v45.7h25.6c15.6.1 28.5-10.2 28.5-22.7z" style="fill:#579295"/>
    </g>
  </switch>
</svg>
