<svg xmlns="http://www.w3.org/2000/svg" width="120" height="60">
  <defs>
    <linearGradient id="a" gradientUnits="userSpaceOnUse" x1="41.687" y1="24.076" x2="28.682" y2="37.352">
      <stop offset="0" stop-color="#fff"/>
      <stop offset="1" stop-color="#040706"/>
    </linearGradient>
  </defs>
  <g transform="matrix(.3901 0 0 .3901 19.726 8.447)">
    <g fill="#040706">
      <path d="M164.6 72.5h-9.5V35.3h9.5zm40.2-37v8.4h-24.9v28.6h-9.5V35.9c0-9.9 5.9-17.2 16.6-16v8.9c-4.5-.4-7 1.5-7.1 6.6h24.9z"/>
      <path d="M209.1 35.5v8.4h-6.7v28.6h-9.5V35.9c0-9.9 5.9-17.2 16.6-16v8.9c-4.5-.4-7 1.5-7.1 6.6h6.7zM245.5 74c0 10-6.6 16.7-16.5 16.7-8.2 0-14.9-5.3-16.2-13h9.9c.6 2.7 3 4.1 6.3 4.1 5.2 0 7-3.7 7-7.1v-4.3c-2.2 1.9-5.1 3-8.5 3-9.1 0-15.1-6.6-15.1-16.3V35.3h9.5V57c0 2.1.7 7.3 6.9 7.3 4.3 0 7.2-3.1 7.2-7.3V35.3h9.5zM140.1 19.7h9.6v53.1h-9.6z"/>
    </g>
    <circle cx="159.9" cy="26.5" r="5.8" fill="#4775b8"/>
  </g>
  <path d="M72.537 36.027c0 4.798-2.887 7.841-7.53 7.841-3.481 0-6.475-1.988-7.022-5.071h4.096c.458 1.17 1.952 1.6 2.965 1.6 2.614 0 3.784-1.717 3.784-4.291v-.733c-1.131 1.053-2.565 1.676-4.29 1.676-3.785 0-6.906-3.276-6.906-7.529 0-4.29 3.121-7.568 6.905-7.568 1.756 0 3.277.663 4.448 1.873v-1.56h3.55zm-7.451-10.65c-2.068 0-3.707 1.794-3.707 4.175 0 2.301 1.677 4.095 3.707 4.095 2.067 0 3.706-1.832 3.706-4.095.04-2.302-1.638-4.175-3.706-4.175zM28.758 53.6 4.505 29.335l1.33-.7L28.812 16.4l24.253 12.935zm0-5.85 20.637-18.415-20.637-11.86-20.637 11.86z" fill="#040706"/>
  <path d="m37.856 28.928 2.086 1.5-.085-6.6-7.536 1.15 1.533 1.064c-2.427 2.342-4.045 5.8-4.854 9.494-.64 2.853-.724 8.728-.34 9.92l1.362 1.916.596-.5c-.085-1.235.085-2.64.085-2.64l.043-.043c-.553-6.173 2.597-11.75 7.1-15.242z" opacity=".4" fill="url(#a)" transform="matrix(1.2493 0 0 1.2493 -9.067 -5.9)"/>
  <path d="m38.065 16.57 4.734 2.5-2.5-12.66-14.68 3.617 3.404 1.808c-4.042 4.947-6.064 11.914-6.383 19.2-.266 5.585 1.65 16.86 2.766 19.095l3.404 3.404 1-1.064c-.585-2.394-.745-5.053-.745-5.053s-1.915-19.946 9-30.85z" fill="#4775b8"/>
</svg>
