<svg xmlns="http://www.w3.org/2000/svg" height="60" viewBox="0 0 120 60.002" width="120">
  <path d="M76.906 28.918c-4.376 0-6.99 3.63-6.99 7.14s2.614 7.14 6.99 7.14c4.396 0 7.022-3.63 7.022-7.14s-2.626-7.14-7.022-7.14zm2.887 7.14c0 1.966-.37 5.265-2.887 5.265-2.36 0-2.855-2.864-2.855-5.265s.495-5.268 2.855-5.268c2.512 0 2.887 3.3 2.887 5.268m18.119-6.755h-5.857l1.87 1.87v5.368l-5.744-7.238h-4.754l1.869 1.87v9.774l-1.87 1.87h5.97l-1.868-1.87V33.79l8.647 10.492.01-13.102 1.87-1.87h-.143" fill="#063"/>
  <path d="m57.272 7.907 3.244-5.877c-.772.722-1.159.949-1.874 1.44-3.921 2.692-8.748 3.332-13.596 7.32-3.29 2.707-4.808 6.63-4.808 6.63s4.415-4.96 11.092-7.433c2.693-1.004 4.571-1.546 5.943-2.081" fill="#fc3"/>
  <g fill="#063">
    <path d="M55.543 11.042c-3.515 1.12-7.7 2.187-11.99 5.081-3.34 2.255-5.28 6.1-5.28 6.1s4.71-4.71 11.552-6.318l3.502-.819 2.21-4.045m11.738 24.547-3.541-1.904c-.92-.528-1.248-1.183-1.248-1.614-.012-.204.105-.469.317-.693a1.841 1.841 0 0 1 1.345-.557c.274 0 .597.086.987.263 0 .005 1.828 1.802 1.828 1.802l.051.052 1.992-3.114-3.63-.518c-.475-.09-1.038-.09-1.407-.09-3.292 0-4.79 1.959-4.79 3.778 0 1.067.64 2.554 2.44 3.533l3.542 1.905c.309.225.742.54.742 1.257 0 1.288-1.175 1.756-1.964 1.756a2.16 2.16 0 0 1-1.216-.348l-2.015-1.986-.052-.057-1.645 3.203-1.13-1.414c0-.008-4.543-11.5-4.543-11.5l-.015-.038h-2.251l-4.656 11.552c-.002 0-.657.832-1.09 1.384l-1.48-1.701V22.847c4.735-3.75 7.795-4.513 7.787-4.512-1.683.153-5.197.47-9.306 2.758-2.704 1.506-4.838 3.565-4.838 3.565l-.005.013-.003-.003c-.802 1.505-1.915 4.012-3.005 6.71l-5.425-9.902h-7.105l2.271 2.273v16.74l-2.271 2.272h7.766l-2.309-2.272V27.502l5.078 9.087c-.757 2.135-1.353 4.043-1.602 5.269l1.634-1.898s1.32-6.316 6.553-12.514V40.69l-2.273 2.121 13.744.001-1.8-1.8.713-1.771h4.084l.634 1.77-1.8 1.796h6.73l3.385.088a9.75 9.75 0 0 0 1.608.119c3.845 0 5.209-2.276 5.209-4.225s-1.416-2.891-2.025-3.206zm-17.086 1.807 1.34-3.348 1.283 3.348h-2.617"/>
    <path d="M56.568 26.979a9.375 9.375 0 0 1-2.46.29c-1.693 0-3.65-.856-3.65-3.26 0-2.395 1.69-3.315 4.015-3.315.42 0 1.303.046 1.922.282l-.137 1.385a3.227 3.227 0 0 0-1.547-.41c-1.376 0-2.505.574-2.505 2.059 0 1.246.884 2.003 2.123 2.003.227 0 .446-.037.6-.11v-1.256h-.992v-1.202h2.632v3.54m3.196-6.182h4.48v1.202h-2.787v1.311h2.631v1.203h-2.63v1.439h2.886v1.202h-4.581v-6.357m10.219-.11c2.095 0 3.187 1.248 3.187 3.289 0 2.021-1.11 3.287-3.187 3.287s-3.187-1.266-3.187-3.287c0-2.04 1.092-3.288 3.187-3.288zm0 5.32c1.03 0 1.439-.983 1.439-2.031 0-1.103-.41-2.031-1.439-2.031s-1.44.928-1.44 2.03c0 1.048.41 2.031 1.44 2.031m5.835-5.209h3.024c1.13 0 2.049.51 2.049 1.603 0 .847-.401 1.412-1.216 1.603v.018c.547.146.583.634.902 1.403l.618 1.73H79.43l-.37-1.148c-.346-1.092-.564-1.365-1.193-1.365h-.355v2.513h-1.693zm1.694 2.642h.446c.547 0 1.239-.019 1.239-.738 0-.591-.592-.701-1.24-.701h-.445v1.438m12.042 3.54a9.38 9.38 0 0 1-2.46.29c-1.694 0-3.652-.855-3.652-3.26 0-2.395 1.69-3.314 4.017-3.314.419 0 1.302.045 1.921.282l-.136 1.384a3.227 3.227 0 0 0-1.548-.41c-1.376 0-2.505.574-2.505 2.059 0 1.247.884 2.003 2.122 2.003.227 0 .447-.037.601-.11v-1.256h-.993V23.45h2.633v3.54m3.011-6.182h4.48v1.202h-2.787v1.312h2.633v1.202h-2.633v1.44h2.888v1.201h-4.58v-6.362M27.012 49.716c0 1.23-.8 1.785-1.972 1.785s-1.973-.554-1.973-1.785v-2.792h1.2v2.592c0 .593.16 1.096.773 1.096s.774-.503.774-1.096v-2.591h1.199v2.79m4.68-2.791h1.529l1.521 3.056h.013l-.02-3.056h1.097v4.5h-1.49l-1.573-3.08h-.013l.04 3.074h-1.103v-4.5m9.295.005h1.2v4.5h-1.2zm6.066 0h1.277l1.004 3.533h.013l1.006-3.533h1.23l-1.538 4.5h-1.483l-1.509-4.499m8.994 0h3.172v.845H57.25v.934h1.863v.856H57.25v1.014h2.044v.85H56.05v-4.5m7.986.001h2.14c.8 0 1.45.361 1.45 1.135 0 .6-.283 1.004-.864 1.134v.013c.388.103.412.445.639.994l.44 1.224H66.59l-.258-.813c-.245-.773-.4-.967-.845-.967h-.251v1.78h-1.2zm1.2 1.87h.315c.387 0 .877-.012.877-.528 0-.419-.419-.497-.877-.497h-.315v1.02m6.957 1.525c.31.168.742.297 1.238.297.38 0 .741-.078.741-.438 0-.838-2.126-.31-2.126-1.947 0-1.083 1.056-1.38 1.954-1.38.432 0 .858.065 1.161.168l-.077.928a2.424 2.424 0 0 0-1-.211c-.303 0-.805.025-.805.419 0 .728 2.127.237 2.127 1.863 0 1.162-.98 1.482-1.98 1.482-.418 0-.94-.064-1.34-.193l.103-.993m7.724-3.385h1.199v4.5h-1.2zm7.01.89h-1.11v-.89h3.418v.89h-1.11v3.61h-1.199v-3.61m7.397 1.914-1.665-2.805h1.38l.884 1.806.87-1.806h1.373l-1.637 2.805v1.696h-1.2v-1.691"/>
  </g>
</svg>
