<svg xmlns="http://www.w3.org/2000/svg" xmlns:xlink="http://www.w3.org/1999/xlink" width="120" height="60">
  <defs>
    <filter id="a" class="C">
      <feGaussianBlur stdDeviation="2.645"/>
    </filter>
    <filter id="g" class="C">
      <feGaussianBlur stdDeviation="2.23"/>
    </filter>
    <filter id="b" class="C">
      <feGaussianBlur stdDeviation="4.497"/>
    </filter>
    <path id="c" d="M331.812-111.945v-5.52c0-11.76-1.92-51.12-47.52-51.12-32.88 0-54.24 30.48-54.24 69.12.48 40.8 25.44 57.6 53.04 57.6s57.36-16.8 50.64-43.2c-12 18-29.04 22.08-40.32 22.08-14.88 0-32.16-12.48-32.88-37.44 0-2.64 0-6.24-.24-8.88l53.28.72c6 0 11.28-.48 16.08-2.4l2.16-.96m-48.96-42c14.16 0 19.92 17.28 20.16 31.92-14.88.24-28.32 1.2-42.48 1.44 3.36-17.76 8.88-33.36 22.32-33.36"/>
    <path id="d" d="M482.2-54.345c-19.44-.48-20.88-8.88-20.88-57.12 0-39.36 2.4-79.92 2.4-87.12v-3.12c0-21.84-7.2-25.68-20.16-25.68-12.24 0-24 7.2-24 7.2v4.32c12.96 4.32 12.24 19.68 12.48 49.44 0-.48-10.8-3.12-18-3.12-39.36 0-60 37.68-60 70.08 0 41.52 24.24 57.6 48.96 57.6 12 0 23.04-5.28 32.4-13.2 4.08 9.12 13.68 13.2 20.4 13.2 12 0 21.12-4.56 26.4-7.2v-5.28m-66.72-4.8c-17.52 0-30-17.52-30-48.48 0-18.24 5.76-46.32 26.64-46.32 6.48 0 13.44 1.68 19.2 3.12v59.76l-.24 27.6c-4.8 3.36-10.08 4.32-15.6 4.32"/>
    <path id="e" d="M606.098-186.105h-19.2c-11.76 19.92-24 20.4-24.96 20.4l-1.2 7.2c5.52 1.92 8.64 4.32 12 8.64 1.68 2.16 2.16 11.28 2.16 16.56 0 16.32-2.4 34.56-2.4 52.08 0 24.72 5.76 39.36 35.76 39.36 21.36 0 41.04-14.88 34.56-30.48-2.88 5.76-16.56 8.88-24.96 8.88-16.32 0-15.12-19.44-15.12-33.12v-54c4.08 0 12 .72 15.84.72 17.04 0 20.64-7.2 20.64-14.4 0-1.92-.24-4.08-.72-5.76-1.68 3.12-9.6 3.84-12.72 3.84h-22.32l2.64-19.92"/>
    <linearGradient x1="90.292" y1="-303.94" x2="90.292" y2="-215.592" id="f" gradientUnits="userSpaceOnUse">
      <stop offset="0" stop-color="#fff"/>
      <stop offset="1" stop-color="#fff" stop-opacity="0"/>
    </linearGradient>
  </defs>
  <path d="M23.188 339.805a19.96 19.96 0 0 0-20 20V648.72a19.96 19.96 0 0 0 20 20h160a19.96 19.96 0 0 0 20-20V464.7c-24.402 25.9-49.522 51.12-77.25 72.406-.856.708-.735.758-1.5 2.97-.01.037-.02.088-.03.125l-9.187 23.97c-.01.013-.02.05-.03.063-7.7 19.676-14.67 39.483-23.78 58.72-.015.034-.016.1-.03.125-3.765 8.505-8.033 17.192-14.125 25.25-4.172 5.52-9.93 11.104-17.906 12.5h-.03c-7.233 1.302-13.622-1.124-17.844-5.5-4.204-4.358-6.546-10.33-7.312-16.5-.005-.036.004-.057 0-.094-1.28-8.536.155-16.972 2.344-24.75.003-.01-.003-.02 0-.03 5.53-20.1 17.877-38.047 31.97-52.656 6.26-6.584 13.305-12.236 20.5-17.625-4.73 1.575-9.9 2.66-15.125 2.406-6.04-.293-12.196-2.276-16.875-6.97l-.094-.094c-7.66-7.5-8.9-18.574-8-27.906 1.185-12.434 6.282-23.905 12.563-34.375.008-.015.054-.017.063-.03 15.872-27.218 45.146-54.438 79.188-57.844 4.83-.483 9.756-.516 14.75.063.025.003.038-.002.063 0 1.533.146 3.696.353 5.938 1.28 2.236.926 4.82 3.13 5.406 6.375.01.052.054.104.063.156h-.062c.463 2.663-.237 4.882-.97 6.844-.723 1.94-1.596 3.64-2.094 4.75-.016.035-.047.122-.062.156l-25.656 66.594c7.47-6.924 43.775-43.63 65.125-66.22v-79.04a19.96 19.96 0 0 0-20-20zm120.594 95.758a11.44 11.44 0 0 0-.906.03c-8.917.725-17.9 3.873-25.937 8.375v.03c-9.633 5.605-18.482 13.22-26.125 21.625-8.812 9.7-16.7 20.926-21.656 33.03-2.782 7.636-4.832 16.937-2.78 24.063.014.024.018.07.03.094.7 2.6 2.7 5.128 5.063 6.094 3.294.953 7.82.23 11.906-1.094.024-.002.07-.03.094-.03 2.693-.8 5.586-2.416 8.594-4.5v.063c7.06-4.943 13.105-11.986 18.438-19.125.01-.013.02-.018.03-.03 6.407-8.305 11.65-17.038 16.938-26.28 7.06-13.934 13.33-27.835 19.03-42.25-.913.004-1.805-.093-2.72-.094zM100 556.438c-5.3 3.954-10.467 7.995-15.344 12.594-.01.026-.02.07-.03.094-6.447 5.844-12.556 12.95-17.875 20.063-.025.036-.037.1-.062.125-7.452 10.727-13.546 23.3-15.687 35.813-.005.026-.027.036-.03.063-.264 2.794-.48 5.4-.344 8.313.01.1 0 .233 0 .344-.083 1.886.13 4.3.75 6.313.6 1.94 1.526 3.295 2.563 4 .886.48 1.464.582 2.28.406.843-.18 1.93-.737 3.094-1.656 2.33-1.838 4.74-4.983 6.406-7.437.012-.013.02-.05.03-.062 5.883-8.53 10.26-18.807 14.313-28.875.022-.038.04-.056.063-.094 5.925-13.397 11.066-26.77 16.188-40.625.01-.026.02-.07.03-.094z" transform="matrix(.12281 0 0 .11747 21.652 -29.238)" filter="url(#a)"/>
  <path d="M24.008 9.789c-1.36 0-2.456 1.058-2.456 2.372v34.262c0 1.314 1.096 2.371 2.456 2.371h19.65c1.361 0 2.457-1.057 2.457-2.371V24.599c-2.997 3.07-6.082 6.062-9.488 8.586-.105.084-.09.09-.184.352l-.004.015-1.128 2.843-.004.007c-.945 2.333-1.801 4.682-2.92 6.963l-.004.015c-.462 1.009-.986 2.039-1.734 2.994-.513.655-1.22 1.317-2.2 1.483h-.003c-.889.154-1.673-.134-2.192-.651-.516-.517-.804-1.225-.898-1.957v-.012c-.157-1.012.02-2.013.288-2.935v-.004c.68-2.384 2.196-4.512 3.926-6.244.77-.781 1.635-1.452 2.518-2.09-.58.186-1.216.315-1.857.285-.742-.035-1.498-.27-2.073-.827l-.011-.012c-.941-.891-1.093-2.203-.983-3.31.146-1.474.771-2.836 1.543-4.076.001-.002.006-.002.007-.004 1.95-3.227 5.545-6.456 9.726-6.86a8.727 8.727 0 0 1 1.811.008h.008c.188.017.454.042.729.152.275.11.592.371.664.756.001.006.007.012.008.018h-.008c.057.316-.03.58-.12.812-.088.23-.195.432-.256.563l-.008.019-.672 1.678-2.479 6.219c.917-.821 5.376-4.923 7.998-7.601v-9.625c0-1.314-1.095-2.372-2.456-2.372h-19.65zm14.81 11.356a1.405 1.405 0 0 0-.11.003c-1.096.086-2.197.46-3.186.994v.003c-1.183.665-2.27 1.568-3.208 2.565-1.083 1.149-2.051 2.481-2.66 3.917-.342.905-.593 2.008-.341 2.853l.003.013c.086.31.332.608.622.722.405.113.96.028 1.462-.13l.012-.003c.33-.096.686-.287 1.055-.534v.008c.867-.587 1.61-1.422 2.265-2.268 0-.002.002-.002.003-.004.787-.985 1.431-2.02 2.08-3.117a58.102 58.102 0 0 0 2.338-5.01c-.112 0-.222-.012-.334-.012zM33.443 35.48c-.651.47-1.286.949-1.885 1.494l-.003.012c-.792.693-1.542 1.536-2.195 2.38-.004.004-.005.01-.008.014-.916 1.27-1.664 2.762-1.927 4.245 0 .003-.003.004-.004.007a6.547 6.547 0 0 0-.042.986v.04c-.01.224.016.512.092.75.074.23.188.39.315.473.109.058.18.07.28.049.104-.022.237-.088.38-.197.286-.218.582-.59.787-.882l.003-.007c.723-1.012 1.26-2.23 1.759-3.424l.007-.013c.728-1.588 1.36-3.174 1.988-4.817l.004-.013z" fill="#862112"/>
  <g fill="#666" filter="url(#b)" transform="matrix(.12281 0 0 .12281 20.29 44.642)">
    <use xlink:href="#c"/>
    <use xlink:href="#d"/>
    <use xlink:href="#e"/>
    <path d="M522.464-184.403v38.155c1.158.45 2 1.6 2 3.015 0 1.8-1.343 3.25-3 3.25s-3-1.46-3-3.25c0-1.417.827-2.575 2-3.015v-38.155c-.94 4.517-2.443 10.98-4.125 14.74-2.7 6.016-10.687 15.912-10.687 15.912s3.294 9.64 4.03 14.572.406 14.807.406 14.807-2.176.4-3.125.87-2.437 1.943-2.437 1.943l-3 79.694H541.4l-2.906-79.694s-1.55-1.46-2.5-1.943-3.125-.87-3.125-.87-.268-9.873.47-14.807 3.938-14.572 3.938-14.572-7.965-9.896-10.656-15.912c-1.7-3.798-3.2-10.222-4.156-14.74z"/>
  </g>
  <g fill="#333" transform="matrix(.12281 0 0 .12281 20.29 44.642)">
    <use xlink:href="#c" x="-2.009" y="-1.025"/>
    <use xlink:href="#d" x="-2.02" y="-1.025"/>
    <use xlink:href="#e" x="-2.008" y="-1.025"/>
    <path d="M520.455-185.427v38.155c1.158.45 2 1.6 2 3.015 0 1.8-1.343 3.25-3 3.25s-3-1.46-3-3.25c0-1.417.827-2.575 2-3.015v-38.155c-.94 4.517-2.443 10.98-4.125 14.74-2.7 6.016-10.687 15.912-10.687 15.912s3.294 9.64 4.03 14.572.406 14.807.406 14.807-2.176.4-3.125.87-2.437 1.943-2.437 1.943l-3 79.694h39.875l-2.906-79.694s-1.55-1.46-2.5-1.943-3.125-.87-3.125-.87-.268-9.873.47-14.807 3.938-14.572 3.938-14.572-7.965-9.896-10.656-15.912c-1.7-3.798-3.2-10.222-4.156-14.74z"/>
  </g>
  <path d="M30.283-279.786c-8.234 0-14.687 6.454-14.687 14.688v41.344c20.488 6.285 43.306 9.906 67.5 9.906 49.158 0 92.95-14.696 121.875-37.187v-14.062c0-8.234-6.454-14.687-14.687-14.687z" fill="url(#f)" transform="matrix(.12281 0 0 .12281 20.29 44.642)"/>
  <path d="M399.736-278.792c-65.48.615-132.477 34.907-185.47 96.687v22.906c68.293-85.907 172.03-132.3 255.187-97.687 19.08 7.944 36.252 19.3 51.375 33.406-8.117 1.434-14.5 8.5-14.5 17.188 0 9.25 8 16.75 17.5 16.75 9 0 16.75-7.5 16.75-16.75 0-4.606-1.757-8.737-4.53-11.844-.25-.28-.482-.58-.75-.844-18.892-21.078-41.393-37.65-67.156-48.375-20.834-8.674-42.462-11.14-64.28-11.437a171.88 171.88 0 0 0-4.125 0z" filter="url(#g)" transform="matrix(.12281 0 0 .12281 20.29 44.642)"/>
  <path d="M68.89 9.912c-8.041.075-16.27 4.287-22.777 11.874V24.6C54.5 14.05 67.24 8.351 77.453 12.602c2.343.976 4.452 2.37 6.31 4.103a2.153 2.153 0 0 0-1.781 2.11c0 1.137.982 2.058 2.149 2.058 1.105 0 2.057-.921 2.057-2.057a2.18 2.18 0 0 0-.556-1.455c-.031-.034-.06-.071-.092-.104-2.32-2.588-5.084-4.623-8.248-5.94-2.559-1.066-5.215-1.369-7.894-1.405a21.11 21.11 0 0 0-.507 0z" fill="#862112"/>
</svg>
