<svg xmlns="http://www.w3.org/2000/svg" width="120" height="60">
  <path d="M20.916 33.453c-.293.02-.675.151-.93.608-.21.373-.7.432-.928.357-.381-.125-.868-.212-1.34.122s-.981.082-.891-.527.31-1.152.897-1.488c1.283-.734.392-1.245 1.096-1.98.705-.737.55-.963.526-1.966-2.384-.356-3.738-1.04-5.244-2.914s-2.093-3.42-2.25-5.77-.02-3.875 1-5.827 2.097-2.89 3.96-3.868 3.688-1.208 5.375-1.179 2.812.151 3.766.693 1.825 1.222 2.38 1.226.935-.14 1.206-.346c.072 1.822-1.577 1.98-3.052 2.02s-2.381-.57-3.74-.343-3.583.84-4.667 2.717-1.12 2.54-1.03 4.113 1.45 2.747 2.22 2.76.94-.209 1.612-.645 4.107-4.665 5.279-5.615 2.327-1.244 3.576-1.26 1.568.028 2.575.438 1.626 1.167 2.438 1.63c.412-.244.673-.606 1.053-.883 1.362-.99 2.07-1.257 3.689-1.1.93.09 2.103.618 2.803 1.223 1.246 1.078 2.276 2.579 3.108 3.72.647.887 1.41 1.95 2.498 2.282 1.188.362 2.082-1.169 2.214-2.018.074-.481.171-.903.172-1.433s-.054-1.172-.207-1.725-.416-1.1-.7-1.556c-.464-.742-1.222-1.518-2.01-1.917-.443-.224-1.485-.63-2.142-.645-.804-.018-1.417.251-2.16.302-.9.06-2.509.262-3.215-.43-.449-.44-.505-.733-.582-1.308a1.38 1.38 0 0 0 .723.29c.563.048 1.091-.41 1.546-.676.375-.218.906-.609 1.398-.806 1.265-.508 2.818-.493 4.154-.357 1.07.109 2.457.583 3.396 1.11.944.531 1.852 1.427 2.518 2.27.837 1.062 1.295 1.972 1.598 3.296.388 1.691.496 4.23.027 5.898-.37 1.314-1.596 3.332-2.64 4.321-1.03.976-2.219 1.447-3.571 1.704.053.271.062.525.132.747.1.317.29.668.68.557.156-.044.239-.082.444.096s.099.87-.479 1.18c-.292.157-.604.19-1.07.2s-1.201.011-1.71-.077-.814-.491-1.377-.554c-.872-.097-1.539-.723-2.237-1.17-.292-.188-.39-.19-.558-.284.09.277.211.564.274.83s.035.512.067.724.091.378.126.55c.14.125.184.314.419.373s.602-.033.842-.065.401-.165.589-.127.367.17.522.296.294.144.421.458.246.956.263 1.386-.03.818-.159 1.159-.24.494-.587.83-.91.833-1.474 1.178c.104.153.15.293.312.459s.498.351.648.526.226.3.228.497-.007.45-.167.665c-.399.532-.87.627-1.444.878.096.6.175 1.027.036 1.625-.057.244-.184.796-.486.938s-.885.073-1.254.132-.575.113-.863.17c-.174.251-.435.529-.524.754s-.062.306.013.536.33.565.402.834.086.56.02.83-.184.466-.416.706-.686.429-.913.623-.452.218-.39.54c.082.441.734 1.158 1.203 1.329.282.102.66.07 1.001-.074-.023.378-.352.632-.566.883.58-.165 1.144-.482 1.534-.901-.12.364-.537.949-1.159 1.462s-.618.409-.927.613a4.15 4.15 0 0 0 1.526.004c-.24.132-.632.316-1.153.37s-.84.017-1.31-.097-.896-.537-1.464-.83c.055.21.094.462.333.678s.6.325.985.512c-.49-.055-1.003-.072-1.484-.178-.356-.078-.595-.16-.855-.289s-.462-.315-.692-.472c.11.21.143.456.331.63s.494.237.74.356c-.257-.006-.505.05-.772-.017s-.518-.172-.797-.375-.564-.455-.802-.711-.53-.59-.618-.826.053-.402.08-.602c-.164.107-.366.166-.491.321s-.237.297-.181.568.307.602.484.903c-.53-.432-.826-.597-.952-1.117-.118-.487.188-.93.42-1.297.115-.183.287-.354.395-.53-.239-.233-.513-.433-.718-.7s-.291-.624-.5-.879-.492-.415-.737-.622c.216.46.57 1.026.647 1.383s-.086.575-.213.767-.333.236-.528.354-.498.025-.614.201-.147.44-.036.614l.455.714c-.165-.084-.456-.329-.587-.502s-.33-.335-.357-.57-.041-.438.112-.647.571-.28.759-.44.293-.265.282-.473-.214-.357-.39-.488c-.536-.4-1.223-.768-1.678-1.249-.257-.275-.38-.495-.431-.68s.003-.334.13-.565.566-.539.619-.79-.168-.304-.368-.393-.578.045-.764-.108.055-.478-.154-.655-.685-.078-.932-.27-.348-.427-.433-.704-.094-.577-.037-.78.23-.236.335-.34.195-.19.056-.345-.594.01-.856-.19-.102-.675-.287-.876-.517-.122-.693-.186-.244.165-.351-.196-.11-1.424-.255-1.823-.43-.027-.561-.422-.007-1.029-.066-1.626l-.27-1.627c-.938.628-1.558.825-2.566 1.002-.084 2.455-.316 3.9.521 6.624s2.533 4.329 4.82 6.634c-3.018-2.249-4.458-4.077-5.36-6.419s-.728-4.302-.637-6.557zm16.034-.989c.232.01.514.069.677.174s.336.192.484.342c.37.373.646.825.769 1.344.078.33.09.754.118 1.142-.112-.359-.187-.733-.346-1.054-.251-.507-.678-1.001-1.207-1.229a.64.64 0 0 0-.385-.048c.043.071.115.132.118.237s-.02.311-.2.398c-.289.14-.61.041-.834-.155a.731.731 0 0 1-.184-.82c.14-.344.676-.344.992-.33zm-2.913-.485c.029-.59.243-1.087.774-1.376.275-.15.698-.343 1.086-.388.374-.044 1.283-.012 1.83.236.419.19.705.487 1.073.704s.63.362.981.606c.539.373.855.784 1.228 1.03.18.118.432.101.67.173-.185.055-.427.116-.627.052-.25-.08-.598-.306-.791-.469-.342-.287-.52-.427-.892-.644-.22-.129-.59-.28-.835-.44s-.67-.506-.905-.624c-.299-.15-.837-.233-1.17-.224-.46.014-1.124.089-1.479.41-.352.318-.486.598-.406 1.012.132-.153.22-.344.354-.456.276-.235.592-.246.935-.202.386.05.58.272.707.636-.086-.063-.243-.2-.367-.243-.292-.1-.513-.07-.786.076-.323.173-.235.428-.282.711-.021.131-.07.237-.106.355a.7.7 0 0 1-.326-.173c.004.132-.015.248.012.397s.1.326.15.489c-.225-.224-.454-.432-.6-.721s-.243-.61-.228-.927zm.389-4.291c.165-.248.214-.62.316-.925-.042.386.037.811-.152 1.09s-.523.232-.799.313c.215-.163.469-.234.634-.478zm-3.966 5.728c.212-.17.787-.034 1.216-.003l-.926.235c-.029.105-.015.224-.086.314s-.205.122-.307.183c.01-.275-.11-.557.103-.729zm3.025-11.898c.256.138.581.319.808.325s.286-.148.418-.236c.21.68.45 1.426.807 2.043.15.258.247.138.358.398s.164.787.272 1.12.248.575.373.863c-.316-.445-.723-1.012-.9-1.381s-.062-.402-.204-.754-.43-.902-.645-1.353c-.154.02-.344.048-.461.013s-.094-.16-.2-.24-.283-.049-.43-.177-.183-.39-.196-.62zm-1.38 3.353c.241-.021.54.043.767.03s.387-.07.58-.106c-.035-.338-.001-.96-.315-1.186-.203-.146-1.037-.036-1.26.011-.5.108-1.083.405-1.567.591.464-.322.865-.62 1.421-.788.335-.1 1.116-.23 1.461-.137.158.042.193.11.286.24.328.456.328.851.413 1.383.084.13.173.217.24.351s.107.345.126.518c-.086-.125-.034-.28-.272-.373s-.604-.006-.925.028c.234.168.35.33.36.685.01.418-.345.718-.716.746-.515.04-.78-.072-.988-.51-.092-.191-.025-.422-.033-.61-.619.044-.609.024-1.06.399.245.358.4.563.806.778.228.12.486.237.768.285s.744.094 1.044.048.467-.129.687-.331.24-.495.326-.721c-.02.22-.045.5-.127.66-.248.486-.683.63-1.2.632a4.409 4.409 0 0 1-1.57-.302c-.368-.152-.98-.583-1.125-.957-.098-.255-.02-.569-.03-.853.51-.339.636-.255 1.24-.354.253-.041.427-.138.668-.156zm-2.974-2.288c.014-.202.037-.198.055-.297-.465-.123-.651.177-.925.734-.101.21 0 .333-.11.47s-.286.118-.463.247-.354.385-.52.521c-.34.28-.801.452-1.196.64.27-.198.794-.498.963-.786.09-.153.077-.44.216-.578s.19-.232.37-.267.108-.244.166-.409.174-.283.298-.448.279-.414.523-.504.624.007.808-.045.079-.185.213-.265.395-.045.577-.13c.317-.153.47-.406.66-.678.028.585.021 1.005-.19 1.556-.237.618-.478.983-1.153 1.364-.233.13-.464.177-.66.245.113-.152.273-.219.337-.457s.017-.713.03-.916zm10.896 2.85c-.32.021-.397-.021-.654.159l.417.646c-.012-.425.03-.51.237-.805zm-.84-.309c.443-.188.83-.34 1.314-.371.194-.012.495.018.69.027.167-.245.38-.437.458-.716.051-.185.026-1.043-.066-1.265-.265-.649-.524-.676-.89-1.045-.266-.269-.276-.68-.356-1.139-.029-.168-.112-.382-.15-.556a7.163 7.163 0 0 0-1.544-.08c.267-.254.522-.487.602-.869s.014-.852-.205-1.195-.567-.641-.887-.92-.78-.51-1.083-.739c.395-.14.798-.347 1.184-.421 1.008-.195 1.876.102 2.848.687.565.34 1.032.662 1.622 1.278s1.324 1.743 1.895 2.412 1.034 1.198 1.532 1.597.95.513 1.425.77l.74.781.6-.737.964.108.2-1.076.884-.241-.144-1.452.636-.449-.478-.903.486-.99-.634-1.127.245-1.086-.733-.622-.096-1.154-1.023-.388-.41-1.004-1.15-.013-.565-.746-.774.054-.863-.093-.488-.359-.708.468-.858-.444-1.703.643 1.11-.96 1.151-.184.882-.223 1.19.389 1.048-.264 1.01.594 1.07-.059.525.938 1.064.122.576 1.043.67.363.178 1.336.596.563-.262 1.168.703.885-.66.949.705.592-.9.794.912.945-1.101.354.714 1.013-.9.155.59 1.114-1.014-.014.51.835-1.111-.133.266 1.2-.84-.735-.289 1.455-.577-1.044-.314 1.303-.716-.961.02 1.367-.792-1.229c.167.697.133 1.461.593 2.118 1.43-.192 2.359-.55 3.451-1.595.995-.953 2.185-2.94 2.507-4.2.368-1.436.38-4.08.017-5.545-.349-1.409-.801-2.082-1.61-3.232-.774-.817-1.534-1.68-2.516-2.263-1.437-.856-3.284-1.087-4.926-1.065a5.879 5.879 0 0 0-2.062.383c-.95.344-1.71 1.094-2.677 1.465-.315.12-.568.124-.816-.007.243.483.507.7 1.113.879.439.127 1.485.047 2.205-.02.773-.07 1.176-.299 2.229-.285 1.028.014 1.842.403 2.287.656.919.522 1.578 1.102 2.15 2.02.314.505.534 1.074.69 1.655s.223 1.23.233 1.799-.034 1.076-.173 1.587c-.328 1.198-1.048 2.416-2.53 2.228-.906-.115-2.273-1.808-2.73-2.429-.924-1.253-1.874-2.64-3.035-3.684a4.687 4.687 0 0 0-2.627-1.16c-1.785-.162-2.314.175-3.657 1.276.273.087.54.137.82.26a6.12 6.12 0 0 1 1.686 1.1c.522.485.753.791.771 1.485.012.46-.368.83-.714 1.161-.214.204-.497.39-.67.547-.229.21-.512.439-.225.77.108.125.296.22.455.337.252.185.136.876-.192 1.06-.425.233-.931.207-1.281-.106.442-.066.722-.124.71-.484-.006-.208-.272-.381-.533-.5-.63-.286-1.106-.244-1.733-.693-.634-.453-.648-.702-.82-1.414-.304.032-.586.039-.994.173s-.86.455-1.23.534c-.935.2-1.12.14-1.631.009-.9-.232-2.072.165-3.235.535-.194.062-.976.003-1.504.186-.813.284-1.955.972-2.614 1.525-1 .837-2.312 3.342-3.054 6.218-.078.874.172 1.463-.382 1.89s-.538 1.52-.725 1.827-.405.172-.81.605-.609.359-.598 1.174c.348-.228.855-.493 1.301-.509.395-.014.4.503 1.412-.493.542-.534 1.583-.55 2.305-.785s2.024-.72 3.328-2.17 1.927-2.976 2.18-5.183c.04.392.11.833-.058 1.912s-.531 2.291.233 3.743l.477.904c-.284-.384-.838-1.013-1.005-1.46l-.385-1.033c-.86 1.344-1.058 1.585-2.254 2.548-.047.598-.059 1.221.138 1.793s-.117 1.23.033 1.607.494.165.607.543-.059 1.136.116 1.507.604.146.812.266.276.285.388.44-.044.53.182.652.58.018.815.135.27.395.214.646-.308.366-.418.62-.099.432.034.666.426.363.72.481.704.052 1.005.215.574.489.734.725.203.403.195.652-.11.535-.243.775-.427.532.032.99.44.262.706.559c-.029-.515-.242-.934-.086-1.321s.625-.455.873-.629.39-.414.584-.62c-.002.266.026.552-.004.752-.062.407-.183.769.427.834.275.03.536-.148.825-.254-.15.27-.412.487-.454.81s.008.678.233.998.612.558.897.747.44.203.656.305c.01.317-.055.654-.016.953s.131.564.302.81.453.39.716.572c-.144-.333-.436-.65-.432-1.001s.11-.6.453-.91 1.149-.582 1.529-.884.502-.488.638-.782.098-.768.124-1.032c.125.37.143.485.183.873s-.227.93-.34 1.217a1.86 1.86 0 0 0 .918-.94c.1.06.05.223.087.537.167-.166.357-.294.526-.45s.353-.293.44-.512.049-.45-.014-.703-.346-.547-.5-.825.028-.549.017-.883c-.307-.052-.568-.207-.92-.157s-.756.444-1.117.449-.563-.332-.858-.424-.595-.082-.892-.124c.377-.358 1.837-.53 2.836-.691a17.971 17.971 0 0 1 2.643-.238c.397-.005.909.126 1.185.047s.217-.266.302-.47c.23-.57.116-1.079-.008-1.654-.797-.093-1.633-.207-2.439-.145-.787.06-1.72.433-2.532.458-.707.022-1.753-.138-2.36-.503-.74-.45-1.314-1.415-1.517-1.724-.332-.505-.75-1.495-1.005-1.948s-.31-.58-.522-.769-.501-.203-.752-.305c.29.03.605-.061.867.088.394.225.836 1.158 1.082 1.565.26-.868.199-1.208.952-1.698-.607.676-.622 1.189-.77 1.985.504.823 1.205 2.135 2.123 2.499.331.132.9.214 1.258.258 1.115.137 2.19-.214 3.286-.483.8-.197 1.612-.118 2.583-.06.33.019 1.11-.18 1.271-.512.087-.18.081-.395-.044-.586s-.46-.284-.638-.456-.282-.376-.423-.564c-.743.141-1.354.196-1.907.211.396-.165.776-.255 1.187-.412s.88-.423 1.212-.642.545-.345.786-.599.549-.516.726-.827.205-.659.215-1.043-.007-.925-.156-1.237-.436-.404-.667-.477-.389.112-.63.137-.464.176-.811.013-.76-.493-1.11-.984-.602-1.293-.96-1.91c-.617-1.064-1.386-2.059-2.121-3.044-.06-.243-.151-.58-.182-.91-.052-.574-.062-1.171.117-1.732.137-.429.337-.882.789-1.058.18-.07.412-.099.57-.039s.32.241.257.451c-.07.231-.23.237-.34.353a1.257 1.257 0 0 0-.329.589c.2-.003.47-.018.633.027.214.056.414.198.523.5-.256-.225-.384-.33-.703-.337-.146-.003-.324.048-.486.073-.06.196-.097.436-.182.588s-.252.115-.314.292-.066.464-.035.697zm2.235-.265c.098.038.136.046.26.14s.296.188.394.413.094.572.073.713c-.087-.025-.204-.008-.294-.084s-.143-.249-.257-.323-.21-.055-.337-.073c.065.184.096.369.066.536-.066.365-.28.55-.63.593-.153.02-.395-.03-.527-.055.061.137.165.257.227.393.295-.042.514-.036.672-.11s.33-.239.533-.309.386-.069.608-.104c-.176.151-.29.302-.466.452l.386 1.116c.273.17.529.259.872.468s.756.585 1.204.79.714.315 1.182.403.84.467 1.3.525 1.32.074 1.674.04c.402-.04.925-.246.973-.685-.338.082-.854.008-1.114-.624-.115-.28-.059-.797-.236-1.129s-.423-.438-.718-.847-.776-1.054-1.047-1.602-.334-1.168-.562-1.659-.574-.887-.841-1.265c-.584-.827-1.055-1.392-2.016-1.81-.463-.2-.99-.253-1.484-.38-.201.09-.477.188-.526.423s.045.577.216.756c.286.294.71.611.876 1.078.107.3.138 1.305.045 1.578-.096.283-.32.454-.505.643zm.094 2.378c-.09.077-.158.155-.301.219s-.34.08-.53.127c.266.414.547.832.803 1.267s.478.911.723 1.367c-.012-.261.004-.54-.034-.783s-.15-.457-.26-.824l-.4-1.373zm-7.188-9.097c-.038.407.031 1.043.116 1.442.102.477.2.724.588 1.011.712.526 1.167.438 1.716.743.26.145.59.388.687.646s-.064.536-.26.646c.345.051.733-.337.57-.735-.082-.196-.458-.283-.575-.481s-.116-.401-.061-.602c.099-.362.819-.69 1.073-.977.392-.44.542-.81.32-1.376-.311-.797-1.511-1.436-2.234-1.749-.33-.143-.515-.153-.772-.23.527.307 1.082.552 1.348 1.238.223.573.03.788.037 1.288.004.231.31.347.446.493.118.127.109.221.014.397a.455.455 0 0 0-.2-.362c-.202-.143-.419-.112-.526-.404-.163-.443.16-.863-.204-1.36-.272-.372-.633-.789-1.12-.797a1.96 1.96 0 0 0-.652.102l-.329-.394-.008-.005c-.668-.608-1.126-1.108-2.064-1.525s-1.4-.48-2.475-.456-2.143.113-3.389 1.181-4.456 5.162-5.234 5.68-.951.693-1.924.693-2.491-1.369-2.55-3.08-.084-2.319 1.111-4.38 3.365-2.695 4.971-2.908 2.572.349 3.761.351 2.364-.201 2.71-1.141c-.17.1-.397.213-1.035.18s-1.525-.769-2.521-1.262-2.106-.55-3.527-.577-3.196.081-4.955 1.025-2.957 1.946-3.976 3.794-1.172 3.357-1.008 5.594.858 3.9 2.193 5.538 2.67 2.439 5.077 2.737l.507-2.226-.905 1.29.022-1.436-.818 1.01-.359-1.37-.662 1.099-.33-1.53-.96.773.304-1.261-1.271.14.584-.877-1.159.014.674-1.17-1.028-.163.82-1.065-1.259-.37 1.043-.993-1.03-.835.806-.623-.753-.996.802-.93-.302-1.228.682-.59.202-1.404.765-.382.659-1.095 1.216-.129.6-.985 1.223.062 1.155-.625 1.197.275 1.36-.408 1.008.235 1.315.192 1.27 1.01-1.947-.676-.98.467-.81-.492-.557.376-.987.099-.885-.057-.644.783-1.315.014-.469 1.055-1.169.408-.109 1.213-.838.653.28 1.14-.725 1.186.555 1.037-.547.949.728.471-.165 1.526 1.011.253.228 1.131 1.102-.113.685.775.846-.822c1.542-.765 2.178-1.193 3.38-2.487 1.369-1.472 2.153-2.833 3.975-3.842 1.308-.723 2.374-.983 3.842-.731 1.38.237 1.84 1.06 2.856 1.924.108-.194.13-.245.307-.388-.055.252-.144.513-.166.755z" fill-rule="evenodd"/>
  <text y="111.557" x="212.398" font-size="36.475" font-family="Bitstream Vera Sans" transform="matrix(.27483 0 0 .27483 -.674 9.776)"><tspan y="111.557" x="212.398" font-size="84.744">GNU</tspan></text>
</svg>
