<svg version="1.1" xmlns="http://www.w3.org/2000/svg" x="0" y="0" viewBox="0 0 64 64" width="64" height="64" style="enable-background:new 0 0 64 64">
  <path d="M30.4.2C31 0 32.7 0 33.2 0c12.4-.2 29.6 10.5 30.7 30.7v25.1c0 4.5-3.7 8.2-8.2 8.2-3.3 0-7.7-4.2-7.7-8.2V30.7c-.5-6.6-5.8-14.1-14.8-14.6h-2.6" style="fill:#fbbc04"/>
  <path d="M63.7 56c0 4.4-3.7 8-8 8s-8-3.7-8-8 3.5-8 8-8c4.5.1 8 3.6 8 8z" style="fill:#4285f4"/>
  <path d="M30.8 63.8c4.5 0 8.4-3.7 8.4-8.2 0-4.5-3.8-7.7-8.4-7.7-7.8-.5-15.2-7.5-14.6-16.9v-.2c.5-7.5 6.8-14.1 14.8-14.6 4.5 0 8.4-3.3 8.4-7.8S35.7.2 31 .2h-.5C16.5.7.3 12.2.2 31.8v.2c0 19.9 17.4 31.7 30.5 31.7l.1.1z" style="fill:#ea4335"/>
</svg>
