<svg version="1.1" xmlns="http://www.w3.org/2000/svg" x="0px" y="0px" viewBox="0 0 64 64" style="enable-background:new 0 0 64 64" xml:space="preserve" height="1em" width="1em">
  <g>
    <path d="M30.4,0.2C31,0,32.7,0,33.2,0c12.4-0.2,29.6,10.5,30.7,30.7v25.1c0,4.5-3.7,8.2-8.2,8.2 c-3.3,0-7.7-4.2-7.7-8.2V30.7c-0.5-6.6-5.8-14.1-14.8-14.6c-0.5,0-1.7,0-2.6,0" style="fill:#FBBC04"/>
    <path d="M63.7,56c0,4.4-3.7,8-8,8s-8-3.7-8-8s3.5-8,8-8C60.2,48.1,63.7,51.6,63.7,56z" style="fill:#4285F4"/>
    <path d="M30.8,63.8c4.5,0,8.4-3.7,8.4-8.2c0-4.5-3.8-7.7-8.4-7.7l0,0c-7.8-0.5-15.2-7.5-14.6-16.9v-0.2 c0.5-7.5,6.8-14.1,14.8-14.6c4.5,0,8.4-3.3,8.4-7.8S35.7,0.2,31,0.2c-0.2,0-0.3,0-0.5,0c-14,0.5-30.2,12-30.3,31.6v0.2 c0,19.9,17.4,31.7,30.5,31.7L30.8,63.8L30.8,63.8z" style="fill:#EA4335"/>
  </g>
</svg>
