<svg version="1.1" xmlns="http://www.w3.org/2000/svg" x="0px" y="0px" viewBox="0 0 64 64" style="enable-background:new 0 0 64 64" xml:space="preserve" height="1em" width="1em">
  <g>
    <path d="M18.8,3.2c-2,0-3.9,1.2-4.9,2.9l0,0L0.8,29c-1,1.8-1,3.9,0,5.7l0,0l13.1,23c1,1.8,2.9,3,4.9,3l0,0h26.3 c2.1-0.1,3.9-1.2,4.9-3l0,0l13.1-22.9C63.7,34,64,33,64,32l0,0c0-1-0.3-2-0.8-2.9l0,0L50.1,6.2c-1-1.8-2.9-2.9-4.9-2.9l0,0H18.8z" style="fill:#4285F4"/>
    <path d="M59.1,42l-9,15.7c-1,1.8-2.9,3-4.9,3h-10L20.5,46l4.3-13.9l-4.3-14.1l4.4,3l6,6l-2.8-9l20.8,14L59.1,42z" style="fill-opacity:7.000000e-02"/>
    <path d="M20.5,18.1l4.4,3l3.5,11.2L25,43l-4.5,3l4.3-13.9L20.5,18.1z M31.8,23L34,30h8.2L31.8,23z M49,32.1L28.1,46 l4.3-13.9l-4.3-14L49,32.1z" style="fill:#FFFFFF"/>
  </g>
</svg>
