<svg xmlns="http://www.w3.org/2000/svg" width="120" height="60">
  <path d="m14.612 47.39-9.24-16a2.765 2.765 0 0 1 0-2.765l9.24-16.007a2.77 2.77 0 0 1 2.4-1.382h18.493a2.76 2.76 0 0 1 2.38 1.382l9.25 16.008c.494.855.494 1.91 0 2.765l-9.26 15.999a2.77 2.77 0 0 1-2.4 1.382h-18.49A2.766 2.766 0 0 1 14.6 47.39z" fill="#4386fa"/>
  <path d="M32.017 24.834s2.57 6.162-.933 9.656-9.88 1.257-9.88 1.257L34.177 48.77h1.317a2.794 2.794 0 0 0 2.4-1.382l6.118-10.594z" opacity=".1"/>
  <path d="m35.052 37.455-2.84-2.827a.44.44 0 0 0-.104-.08 7.72 7.72 0 0 0-11.587-10.159c-2.873 2.895-3 7.533-.288 10.57a7.73 7.73 0 0 0 10.533.941.49.49 0 0 0 .075.1l2.84 2.84a.44.44 0 0 0 .314.129.45.45 0 0 0 .314-.129l.753-.753a.44.44 0 0 0 .129-.314.45.45 0 0 0-.129-.314zm-9.047-1.836a5.81 5.81 0 0 1-5.366-3.586 5.805 5.805 0 0 1 1.26-6.33 5.81 5.81 0 0 1 9.916 4.107 5.81 5.81 0 0 1-5.808 5.808zM22.293 29.5v2.4c.37.653.905 1.196 1.552 1.577v-3.982zm2.9-1.99v6.487c.513.094 1.04.094 1.552 0V27.5zm4.492 4.387v-1.42h-1.552v2.994c.646-.38 1.18-.92 1.552-1.572z" fill="#fff"/>
  <path d="M69.59 19.556h-7.01v2.082h4.982c-.248 2.924-2.68 4.17-4.972 4.17-1.455.01-2.855-.56-3.89-1.583s-1.62-2.417-1.624-3.872v-.094a5.488 5.488 0 0 1 5.5-5.58 5.41 5.41 0 0 1 3.758 1.525l1.46-1.503a7.42 7.42 0 0 0-5.283-2.082 7.66 7.66 0 0 0-6.732 11.595 7.66 7.66 0 0 0 6.841 3.714c4.084-.008 7.1-2.815 7.1-6.968a6.24 6.24 0 0 0-.128-1.383zm5.767-1.503a4.86 4.86 0 0 0-4.96 4.78v.105a4.944 4.944 0 0 0 9.887.057c0-3.26-2.56-4.942-4.917-4.942zm.027 1.94c1.417 0 2.75 1.128 2.75 3.006s-1.338 2.984-2.765 2.984c-1.57 0-2.8-1.25-2.8-3.006S73.778 20 75.372 20zm10.712-1.94a4.86 4.86 0 0 0-4.945 4.78v.105a4.944 4.944 0 0 0 9.887.057c0-3.25-2.563-4.937-4.937-4.937zm.03 1.94c1.417 0 2.75 1.128 2.75 3.006s-1.338 2.984-2.765 2.984c-1.57 0-2.8-1.25-2.8-3.006S84.52 20 86.113 20zm10.52-1.94c-2.63 0-4.723 2.314-4.723 4.92a4.857 4.857 0 0 0 4.678 4.927 3.25 3.25 0 0 0 2.698-1.203v.973c0 1.7-1.03 2.72-2.585 2.72a2.738 2.738 0 0 1-2.518-1.75l-1.88.782c.667 1.417 2.007 2.912 4.41 2.912 2.63 0 4.64-1.657 4.64-5.13v-8.85H99.3v.827a3.48 3.48 0 0 0-2.653-1.128zm.192 1.92c1.296 0 2.63 1.108 2.63 3.006s-1.33 2.965-2.66 2.965c-1.417 0-2.72-1.128-2.72-2.96 0-1.88 1.364-3.006 2.755-3.006zm13.7-1.92c-2.495 0-4.584 1.984-4.584 4.915a4.76 4.76 0 0 0 4.828 4.93 4.99 4.99 0 0 0 4.133-2.16l-1.702-1.128a2.745 2.745 0 0 1-2.4 1.353 2.53 2.53 0 0 1-2.412-1.503l6.598-2.735-.333-.8a4.453 4.453 0 0 0-4.103-2.87zm.087 1.88c.76-.032 1.47.378 1.823 1.052l-4.417 1.85c-.192-1.428 1.16-2.894 2.585-2.894zm-7.824 7.674h2.167V13.104H102.8zm-47.698 16.7V34.8h3.442a2.73 2.73 0 0 1 1.939.752c.532.465.83 1.142.812 1.85a2.01 2.01 0 0 1-1.289 1.98v.053c.467.146.877.437 1.168.83a2.2 2.2 0 0 1 .439 1.35 2.533 2.533 0 0 1-.833 1.94 2.9 2.9 0 0 1-2.034.752h-3.634zm1.22-8.335v2.917h2.217a1.47 1.47 0 0 0 1.089-.439c.562-.54.584-1.43.05-1.995l-.038-.038a1.404 1.404 0 0 0-1.048-.44H56.34zm0 4.055v3.12h2.46a1.567 1.567 0 0 0 1.582-1.55 1.49 1.49 0 0 0-.467-1.089 1.59 1.59 0 0 0-1.168-.467h-2.41zm8.043-4.467a.86.86 0 0 1-1.656.323.86.86 0 0 1 1.405-.935c.165.16.256.382.252.613zm-.252 2.254v6.5h-1.225v-6.5zm4.4 9.582c-.346.003-.7-.044-1.022-.14a3.31 3.31 0 0 1-.872-.376 2.97 2.97 0 0 1-.677-.613 2.519 2.519 0 0 1-.424-.752l1.167-.48a1.82 1.82 0 0 0 .692.917c.33.23.725.35 1.128.346a2.022 2.022 0 0 0 1.556-.598 2.318 2.318 0 0 0 .56-1.646v-.642h-.053a2.4 2.4 0 0 1-.936.815 2.81 2.81 0 0 1-1.28.3 2.884 2.884 0 0 1-2.194-.996 3.61 3.61 0 0 1-.906-2.465 3.56 3.56 0 0 1 .902-2.459 2.862 2.862 0 0 1 2.194-1.01 2.8 2.8 0 0 1 1.281.301 2.4 2.4 0 0 1 .936.815h.053V37.8h1.168v6.23c.05.907-.27 1.795-.89 2.458a3.26 3.26 0 0 1-2.371.894zm.042-3.987a1.88 1.88 0 0 0 1.473-.65 2.7 2.7 0 0 0 0-3.382 1.875 1.875 0 0 0-1.473-.665 1.906 1.906 0 0 0-1.473.665 2.402 2.402 0 0 0-.598 1.694 2.4 2.4 0 0 0 .598 1.687c.37.426.908.668 1.473.66zm15.913.903-.962.623-.653-.97a5.15 5.15 0 0 1-2.284.545 4.7 4.7 0 0 1-3.48-1.44 5.134 5.134 0 0 1 0-7.068 4.91 4.91 0 0 1 6.963 0 4.8 4.8 0 0 1 1.409 3.52 5.09 5.09 0 0 1-.432 2.082 4.98 4.98 0 0 1-1.217 1.699zm-3.892-.97a3.6 3.6 0 0 0 1.601-.376L81.07 41.3l.962-.65 1.1 1.66a3.66 3.66 0 0 0 1.089-2.762 3.67 3.67 0 0 0-1.048-2.72 3.45 3.45 0 0 0-2.589-1.074 3.49 3.49 0 0 0-2.604 1.074 4.092 4.092 0 0 0 0 5.44 3.49 3.49 0 0 0 2.615 1.082zm11.835.963h-1.17v-.91h-.053a2.17 2.17 0 0 1-.857.8 2.46 2.46 0 0 1-1.203.319 2.41 2.41 0 0 1-1.841-.684 2.716 2.716 0 0 1-.638-1.946v-4.088h1.22v4q.042 1.6 1.6 1.6a1.54 1.54 0 0 0 1.217-.593 2.14 2.14 0 0 0 .493-1.417V37.8h1.22v6.5zm4.344.214a3.12 3.12 0 0 1-2.364-.984 3.483 3.483 0 0 1-.928-2.484 3.538 3.538 0 0 1 .908-2.475 3.25 3.25 0 0 1 4.618-.053c.616.732.924 1.676.857 2.63v.132H94.73a2.12 2.12 0 0 0 .638 1.54 2.06 2.06 0 0 0 3.295-.583l1.09.53c-.278.533-.698.98-1.214 1.29a3.38 3.38 0 0 1-1.766.458zm-1.954-4.25h3.73a1.63 1.63 0 0 0-.553-1.128c-.373-.3-.85-.468-1.334-.443a1.771 1.771 0 0 0-1.188.424c-.34.297-.57.7-.658 1.143zm7.376 4.036h-1.22v-6.5h1.168v1.063h.053c.143-.37.417-.682.752-.883a2.12 2.12 0 0 1 1.128-.375 2.29 2.29 0 0 1 .902.162l-.375 1.184a1.84 1.84 0 0 0-.717-.094 1.584 1.584 0 0 0-1.203.56 1.88 1.88 0 0 0-.511 1.3v3.59zm9.553-6.5-4.07 9.395h-1.263l1.503-3.28-2.667-6.113h1.33l1.94 4.678h.027l1.88-4.678h1.32z" fill="#767677"/>
</svg>
