<svg xmlns="http://www.w3.org/2000/svg" viewBox="0 0 64 64" version="1.1" width="64" height="64">
  <path d="M58.342 21.05a3.46 3.46 0 0 1 3.35 3.46c0 1.868-1.537 3.406-3.405 3.351a3.46 3.46 0 0 1-3.351-3.46c0-1.868 1.538-3.352 3.406-3.352zm-7.801-4.505c1.868 0 3.406 1.483 3.406 3.35a3.388 3.388 0 0 1-3.406 3.407c-1.923 0-3.406-1.484-3.406-3.351.055-1.868 1.538-3.406 3.406-3.406zm-8.57 2.746a3.423 3.423 0 0 1 3.406 3.406 3.423 3.423 0 0 1-3.406 3.406 3.423 3.423 0 0 1-3.406-3.406c0-1.922 1.538-3.46 3.406-3.406zm-16.096-3.186v-3.186c.769.22 1.483.44 2.142.659.55.165 1.099.385 1.648.494.22.055.55.055.66-.055.11-.164.164-.494.11-.714-.44-1.538-.935-3.021-1.429-4.56-.055-.11-.055-.22-.11-.384h6.153c-.55 1.648-1.044 3.241-1.538 4.834-.055.22-.11.66.055.77.11.164.549.164.769.054a56.096 56.096 0 0 0 3.68-1.153v6.317a159.722 159.722 0 0 0-4.45-2.307c-.054.44-.164.824-.054 1.099l2.197 6.757c.77 2.362-.494 4.615-2.857 5.219-2.911.769-5.658-1.923-4.834-4.835.66-2.417 1.538-4.724 2.307-7.141.11-.275 0-.66-.054-1.099a164.197 164.197 0 0 0-4.45 2.362c.055-1.098.055-2.087.055-3.13zm-3.846 3.186a3.423 3.423 0 0 1 3.406 3.406c0 1.868-1.593 3.406-3.406 3.406a3.423 3.423 0 0 1-3.406-3.406 3.388 3.388 0 0 1 3.406-3.406zm-8.625-2.746a3.388 3.388 0 0 1 3.406 3.406 3.388 3.388 0 0 1-3.406 3.406 3.423 3.423 0 0 1-3.406-3.406c0-1.868 1.538-3.352 3.406-3.406zm-2.087 29.17c-1.209-.604-2.143-1.428-3.571-1.428 1.099 2.197 2.252 4.175 4.56 5.164 2.527 1.044 5.054-.879 4.724-3.461-.165-.989-.77-1.868-1.593-2.033-.714-.164-1.428.22-2.033 1.209-.055.11-.165.22-.274.44-.55-1.264-.934-2.418-.22-3.571.824-1.319 2.142-1.209 3.735-.824-3.186-3.242-3.625-6.538-.824-10.054 1.484 1.209 2.747 2.473 3.187 4.34.44 1.868-.22 3.571-.824 5.439 1.263-.879 2.472-1.538 3.79-.44.88.715 1.099 2.198.495 3.736-.22-.275-.44-.55-.66-.769-.933-.824-2.032-.55-2.582.55-.604 1.263-.22 2.746.99 3.735 1.428 1.209 3.186 1.538 4.998 1.483.44 0 .824-.055 1.264-.165 2.747-.549 4.12-2.197 4.34-5.054.055-.494.055-.988.11-1.593-2.417.165-3.79 1.813-5.274 3.516-.22-2.637-.44-5.109-.66-7.636.935.604 1.759 1.264 2.747 1.703.934.385 2.033.55 3.077.66-.77-2.198-2.198-3.791-3.626-5.604h9.724c-.714.934-1.429 1.758-2.033 2.692-.604.879-1.154 1.813-1.813 2.856 2.472.055 4.34-.824 6.043-2.527-.22 2.747-.44 5.22-.66 7.856-1.482-1.703-2.856-3.351-5.218-3.516-.165 4.89 2.088 6.922 6.592 6.812 1.264-.055 2.472-.384 3.571-1.098 1.154-.77 1.868-1.813 1.703-3.242-.11-.824-.384-1.538-1.208-1.813-.824-.33-1.429.165-1.923.77-.055.11-.165.164-.275.274-.66-1.098-.44-2.856.44-3.626.934-.879 2.197-.714 3.955.605-1.758-4.01-1.373-7.362 2.252-9.889 2.198 2.747 3.022 5.988-.769 10.054 1.429-.385 2.747-.495 3.626.824.77 1.153.385 2.362-.165 3.625-.274-.33-.44-.659-.659-.879-.934-1.098-2.197-.988-2.912.275-.604 1.044-.494 2.527.22 3.516.824 1.099 2.307 1.593 3.68 1.209 1.264-.385 2.253-1.154 3.022-2.198.714-.934 1.319-1.978 1.923-3.021-1.373-.11-2.362.659-3.516 1.373.77-2.472 1.428-4.834 2.143-7.197.659 1.319 1.263 2.637 1.867 3.9l.275-.109c.66-1.538.22-3.131 0-4.78 1.538.55 3.022 1.1 4.56 1.594-.165.22-.22.384-.33.55-2.856 4.064-4.505 8.679-5.823 13.403-.165.55-.33 1.1-.44 1.648-.054.605-.384.66-.933.605-8.186-1.154-16.371-1.593-24.667-1.429-6.482.11-12.964.495-19.447 1.429-.604.11-.879 0-1.043-.66-1.044-4.34-2.418-8.57-4.67-12.47-.55-.989-1.209-1.978-1.868-3.076 1.483-.55 2.967-1.044 4.56-1.648-.22 1.648-.604 3.24.055 4.889 1.044-1.154 1.538-2.527 2.087-3.9.714 2.142 1.429 4.504 2.198 6.976zM5.713 21.05c1.868 0 3.351 1.538 3.351 3.406a3.423 3.423 0 0 1-3.406 3.406 3.423 3.423 0 0 1-3.406-3.406c.055-1.868 1.593-3.406 3.461-3.406zM0 33.025a3.423 3.423 0 0 1 3.406-3.406 3.388 3.388 0 0 1 3.406 3.406c0 1.868-1.483 3.351-3.406 3.351C1.538 36.431 0 34.893 0 33.026Zm60.594 3.406c-1.923 0-3.406-1.428-3.406-3.35 0-1.924 1.483-3.407 3.351-3.407A3.424 3.424 0 0 1 64 33.025a3.423 3.423 0 0 1-3.406 3.406z" style="stroke-width:.54935622"/>
</svg>
