<svg xmlns="http://www.w3.org/2000/svg" xmlns:xlink="http://www.w3.org/1999/xlink" viewBox="0 0 64 64">
  <g fill="none" style="stroke-miterlimit:10">
    <g stroke="#284a6a">
      <path d="M31.973 23.69l-6.65-7.518" stroke-width=".26"/>
      <path d="M11 17.908l5.205 7.6" stroke-width=".13"/>
      <g stroke-width=".26">
        <path d="m31.973 23.7 6.578-7.6m1.374 15.987 7.807-6.578m-7.807 6.568 7.807 6.867m-9.108 8.676-6.65-7.373m-6.65 7.373 6.65-7.373m-15.76-1.592 7.518-6.578m-7.517-6.58 7.518 6.578m8.24-8.386-15.76 1.807m15.76-1.806 15.76 1.807M39.925 32.077 38.55 16.1m1.375 15.977-1.3 15.542M47.732 38.944l-15.76 1.3m-15.758-1.59 15.76 1.6M25.323 47.62l-1.6-15.542m1.6-15.905-1.6 15.903"/>
      </g>
      <g stroke-width=".13">
        <path d="m8.985 27.522 7.23-2.024m1.517-14.746 7.6 5.422m1.726-8.82-1.735 8.82m1.735-8.82L38.55 16.1M36.816 7.354 38.55 16.1m7.592-5.348-7.6 5.35m14.395 1.806L38.55 16.1m9.182 9.398 5.205-7.6m-5.205 7.6 7.373 2.024M47.732 25.498l7.23 10.988M36.816 7.354l-11.494 8.82M47.732 25.498l-1.6-14.747m1.6 28.193 7.23-2.458M47.732 38.944l7.373-11.422m-7.373 11.422 5.205 7.012m-5.205-7.012-1.6 14.168m-7.508-5.492 7.518 5.494M38.624 47.62l14.313-1.663M38.624 47.62 36.9 56.5m1.724-8.88L27.058 56.5m-1.735-8.88 1.735 8.9M25.323 47.62 36.9 56.5m-11.567-8.88-7.6 5.494m7.6-5.494L11 46.028m5.214-7.373L11 46.028M16.214 38.655l1.518 14.458m-1.518-14.458-7.3-2.24m7.3-10.917-7.3 10.916M16.214 38.655l-7.23-11.132m8.748-16.77L16.214 25.5M11 17.908l14.313-1.735"/>
      </g>
    </g>
    <g stroke="#24405d" stroke-width=".101">
      <path d="M17.732 10.752 12.166 8.15m5.566 2.602L17.3 4.68m9.758 2.674L17.3 4.68M27.058 7.354l-4.193-5.132m4.193 5.132L28.792 1.2m-11.06 9.552 5.132-8.53m13.952 5.132L28.792 1.2M36.816 7.354 35 .993m-7.952 6.36L35 .993m1.816 6.36 4.193-5.132m5.133 8.53L41 2.222M46.142 10.752l.506-6.072m-9.832 2.674 9.83-2.675m-.504 6.073 5.7-2.892m-5.7 2.892 9.903 1.518M52.937 17.908l3.108-5.638m-3.108 5.638L51.852 7.86m1.085 10.048 6.506-.506m-6.506.506 8.9 5.06M55.105 27.522l4.337-10.12m-4.337 10.12 6.723-4.554m-6.723 4.554 7.518 1.518m-7.663 7.446 7.663-7.446M54.96 36.486l7.88-1.446m-7.735-7.518 7.735 7.518m-7.88 1.446 6.723 4.482m-8.746 4.988 8.747-4.988M52.937 45.956l6.434.65m-4.4-10.12 4.4 10.12m-6.424-.65 3.036 5.7m-3.036-5.7-1.157 9.976M51.78 55.932l-5.638-2.82m0 0 .434 6.3m-.434-6.3 9.83-1.446m-9.83 1.446L41 61.787M36.9 56.5l4.1 5.277M36.9 56.5l9.687 2.892M36.9 56.5 35 63.006m1.9-6.506-8.096 6.506M27.058 56.5l1.735 6.506M27.058 56.5 35 63.006M27.058 56.5l-4.12 5.277m-5.206-8.665 5.205 8.675M27.058 56.5l-9.83 3.036m.504-6.424-.506 6.434m.506-6.434-5.638 3.108M11 46.028l1.084 10.193M17.732 53.112 7.83 51.74M11 46.028l-3.18 5.7m3.18-5.7-6.506.65m6.506-.65L2.046 41.04m6.867-4.626L2.046 41.04m6.867-4.626L1.106 35.04M8.913 36.414l-4.4 10.265m4.472-19.157-7.88 7.518M8.913 36.414 1.106 29.04m7.88-1.518L2.263 23.04M8.985 27.522l-7.88 1.518m7.88-1.518-4.482-10.12M11 17.908l-6.506-.506m6.506.506L2.263 23.04M11 17.908 7.9 12.56m3.1 5.348 1.157-9.76M17.732 10.752 7.9 12.56"/>
    </g>
  </g>
  <path d="M19.862 35.835l.053-7.6 7.605.053-.053 7.6zm8.228-8.372l.053-7.6 7.605.053-.053 7.6zm-.002 16.67l.053-7.6 7.605.053-.053 7.6zm8.3-8.37l.053-7.6 7.605.053-.053 7.6z" fill="#256ea5"/>
  <path d="M35.95 18.744l.037-5.277 5.3.037-.037 5.277zm-13.25-.001l.037-5.277 5.3.037L28 18.78zm-9.172 9.4l.037-5.277 5.3.037-.037 5.277zM13.522 41.4l.055-5.277 5.298.055-.055 5.277zm31.598-.1l.037-5.277 5.3.037-.037 5.277zm.107-13.12l.055-5.277 5.298.055-.055 5.277z" fill="#3378bc"/>
  <path d="M9.233 19.63l.024-3.47 3.463.024-.024 3.47zm6.77-7.062l.024-3.47 3.463.024-.024 3.47zm9.32-3.493l.024-3.47 3.463.024-.024 3.47zM7.194 29.24l.024-3.47 3.44.024-.024 3.47zm43.993-13.032l3.47-.024.024 3.463-3.47.024zm-6.773-7.18l3.47-.024.024 3.463-3.47.024zm-9.35-3.406l3.47-.024.024 3.463-3.47.024zm18.14 20.186l3.47-.024.024 3.463-3.47.024z" fill="#169bd6"/>
  <path d="M22.627 50.4l.037-5.277 5.3.037-.037 5.277zm13.25 0l.037-5.277 5.3.037-.037 5.277z" fill="#3378bc"/>
  <path d="M51.164 47.73l.024-3.47 3.463.024-.024 3.47zm-6.698 7.134l.024-3.47 3.463.024-.024 3.47zm-9.32 3.42l.024-3.47 3.463.024-.024 3.47zM53.202 38.12l.024-3.47 3.463.024-.024 3.47zM9.24 44.26l3.47-.024.024 3.463-3.47.024zm6.772 7.108l3.47-.024.024 3.463-3.47.024zm9.276 3.405l3.47-.024.024 3.463-3.47.024zM7.22 34.66l3.47-.024.024 3.463-3.47.024z" fill="#169bd6"/>
  <g fill="#00a8da">
    <use xlink:href="#a" x="47.244" y="9.319"/>
    <use xlink:href="#a" x="49.718" y="14.997"/>
    <use xlink:href="#a" x="43.896" y="4.295"/>
    <use xlink:href="#a"/>
    <use xlink:href="#a" x="-10.993" y="20.964"/>
    <use xlink:href="#a" x="39.674" y="0.001"/>
    <use xlink:href="#a" x="-9.9" y="14.995"/>
    <use xlink:href="#a" x="10.772" y="-5.823"/>
    <use xlink:href="#a" x="-7.572" y="9.317"/>
    <use xlink:href="#a" x="-4.15" y="4.223"/>
    <path d="M16.33 3.73l1.88-.013.013 1.916-1.88.013zM27.942.034l1.88-.013.013 1.916-1.88.013z"/>
    <use xlink:href="#a" x="34.577" y="-3.348"/>
    <use xlink:href="#a" x="50.666" y="20.893"/>
    <path d="M34.057 1.88L34.07 0l1.916.013-.013 1.88z"/>
    <use xlink:href="#a" x="28.827" y="-5.896"/>
    <use xlink:href="#a" x="39.672" y="47.9"/>
    <use xlink:href="#a" x="50.666" y="26.935"/>
    <use xlink:href="#a" x="-0.002" y="47.899"/>
    <use xlink:href="#a" x="49.718" y="32.987"/>
    <use xlink:href="#a" x="28.825" y="53.797"/>
    <use xlink:href="#a" x="47.243" y="38.655"/>
    <use xlink:href="#a" x="43.895" y="43.751"/>
    <path d="M45.7 58.534l1.88-.013.013 1.916-1.88.013zm-11.542 3.55l1.88-.013.013 1.916-1.88.013z"/>
    <use xlink:href="#a" x="5.167" y="51.467"/>
    <use xlink:href="#a" x="-7.645" y="38.581"/>
    <use xlink:href="#a" x="-9.902" y="32.977"/>
    <use xlink:href="#a" x="-4.225" y="43.749"/>
    <use xlink:href="#a" x="-10.993" y="26.934"/>
    <use xlink:href="#a" x="16.814" y="54.961"/>
    <use xlink:href="#a" x="10.7" y="53.723"/>
  </g>
  <defs>
    <path id="a" d="M11.2 9.013l.013-1.88 1.916.013-.013 1.88z"/>
  </defs>
</svg>
