<svg xmlns="http://www.w3.org/2000/svg" viewBox="0 0 60 30" width="120" height="60" version="1.1">
  <g transform="matrix(.97647 0 0 .97647 .674 .353)">
    <path d="M20.057 13.473H17.34v-2.471h-.98v5.864h.98v-2.472h2.717v2.472h.987v-5.864h-.987zm5.196.804c0-.783-.459-1.47-1.67-1.47-.97 0-1.584.607-1.655 1.286l.856.193a.757.757 0 0 1 .808-.712c.516 0 .743.267.743.597a.275.275 0 0 1-.294.273l-1.01.154c-.67.097-1.186.484-1.186 1.187 0 .622.51 1.186 1.333 1.186a1.377 1.377 0 0 0 1.212-.622 2.19 2.19 0 0 0 .042.5h.872a3.567 3.567 0 0 1-.048-.628v-1.944zm-.918.952c0 .767-.459 1.017-.977 1.017a.521.521 0 0 1-.574-.51.542.542 0 0 1 .523-.53l1.026-.153v.176zm3.59-.72-.604-.122a.436.436 0 0 1-.4-.415.516.516 0 0 1 .572-.46.689.689 0 0 1 .735.595l.799-.23c-.065-.392-.425-1.108-1.534-1.108-.824 0-1.46.587-1.46 1.28 0 .547.368 1.004 1.07 1.148l.588.131c.319.064.459.23.459.44 0 .212-.204.46-.595.46a.744.744 0 0 1-.808-.689l-.824.23c.049.459.49 1.2 1.64 1.2 1.011 0 1.5-.668 1.5-1.274s-.392-1.021-1.143-1.186zm4.104-1.731a1.416 1.416 0 0 0-1.148.498v-2.274h-.946v5.864h.946v-2.332c.016-.505.303-.898.824-.898.594 0 .815.393.815.882v2.348h.945v-2.513c.012-.873-.463-1.575-1.436-1.575zm3.337.7v-.64h-.918v4.032h.945v-1.946c0-.741.335-1.166 1.07-1.166a2.066 2.066 0 0 1 .31.025v-.964a1.352 1.352 0 0 0-.253-.025 1.203 1.203 0 0 0-1.159.686zm3.902-.672a2 2 0 0 0-2.036 2.084 2.04 2.04 0 1 0 4.078 0 2.001 2.001 0 0 0-2.056-2.084zm0 3.334c-.574 0-1.1-.436-1.1-1.25 0-.815.526-1.235 1.1-1.235.573 0 1.099.42 1.099 1.235 0 .814-.535 1.253-1.113 1.253zm4.79-.016c-.59 0-1.1-.445-1.1-1.234 0-.79.51-1.22 1.083-1.22a.918.918 0 0 1 .953.735l.84-.307c-.16-.63-.744-1.292-1.802-1.292a2 2 0 0 0-2.01 2.084 2.02 2.02 0 0 0 2.036 2.09 1.836 1.836 0 0 0 1.808-1.285l-.824-.298a.992.992 0 0 1-.998.73zm5.102-3.286-1.584 1.664v-3.5h-.939v5.864h.939v-1.109l.489-.514 1.177 1.623h1.148l-1.664-2.295 1.691-1.733h-1.255zm3.266-.03c-.994 0-1.914.824-1.914 2.066 0 1.333.945 2.109 2.01 2.109a1.772 1.772 0 0 0 1.77-1.244l-.792-.25a.948.948 0 0 1-.985.688 1.053 1.053 0 0 1-1.074-1.026h2.876a1.377 1.377 0 0 0 .025-.298c.005-1.246-.704-2.047-1.916-2.047zm-.953 1.655a.943.943 0 0 1 .962-.872.881.881 0 0 1 .968.872zm5.463 1.606c-.351 0-.505-.147-.505-.498v-1.836h.824v-.842h-.824v-1.217h-.856v.595a.565.565 0 0 1-.613.62h-.211v.842h.734v1.999c0 .741.46 1.182 1.191 1.182a1.49 1.49 0 0 0 .579-.09v-.773a2.022 2.022 0 0 1-.32.025z" style="fill:#414042;stroke-width:.22951572"/>
    <g transform="matrix(1.6247 0 0 1.6247 -8.977 -8.626)">
      <path style="fill:#af1f23" transform="matrix(.22952 0 0 .22952 4.257 7.54)" d="m17.9 24.32-4.51 5.6 5.42 3.14-1.73 8.97 8.6-2.05 3.19 5.42 5.61-4.6 2.9 5.21 6.68-5.56V15H18.57l-5.51 6.64z"/>
      <path style="fill:#fff;stroke-width:.22951572" d="M10.027 12.168v.652h2.507v2.504h.651V12.17h-3.158zm.285 3.392.459.459 1.25-1.25-.458-.46zm.186-2.268-1.251 1.251.459.46 1.25-1.252z"/>
    </g>
  </g>
</svg>
