<svg xmlns:svg="http://www.w3.org/2000/svg" xmlns="http://www.w3.org/2000/svg" viewBox="0 0 32 32" version="1.1">
  <g transform="matrix(4.4960981,0,0,4.4960981,-32.612641,-49.382558)">
    <polygon transform="matrix(0.22951572,0,0,0.22951572,4.2572153,7.5406896)" points="44.06,15 18.57,15 13.06,21.64 17.9,24.32 13.39,29.92 18.81,33.06 17.08,42.03 25.68,39.98 28.87,45.4 34.48,40.8 37.38,46.01 44.06,40.45" style="fill:#af1f23"/>
    <path d="m 10.027241,12.167727 v 0.651824 h 2.506311 v 2.504017 h 0.651825 v -3.153546 h -3.158136 z m 0.284599,3.392242 0.459031,0.459031 1.250861,-1.25086 -0.459031,-0.459032 z m 0.185908,-2.267615 -1.2508609,1.25086 0.4590314,0.459032 1.2508605,-1.250861 z" style="fill:#ffffff;stroke-width:0.22951572"/>
  </g>
</svg>
