<svg xmlns="http://www.w3.org/2000/svg" viewBox="0 0 120 60" version="1.1" width="120" height="60">
  <defs>
    <mask width="244.96" height="53.19" x=".04" y="0" maskUnits="userSpaceOnUse">
      <path d="M0 .11h245V53.3H0Z" transform="translate(0 -.11)" style="fill:#fff"/>
    </mask>
  </defs>
  <g transform="matrix(.428 0 0 .428 10 15.702)">
    <path style="fill:currentColor" d="M57.53 15.81v11.73h11.3V15.81h6.84v30.4h-6.84V33.53h-11.3v12.68h-6.84v-30.4h6.84M90 23.7c-7.11 0-11.79 4.56-11.79 11.68S83.1 46.7 89.54 46.7c5.85 0 11.56-3.7 11.56-11.72.05-6.68-4.45-11.28-11.1-11.28zm-.28 18.13c-2.88 0-4.46-2.85-4.46-6.58 0-3.3 1.26-6.63 4.5-6.63S94 31.91 94 35.16c0 3.97-1.62 6.63-4.33 6.63zm25.52-18.13c-7.11 0-11.79 4.56-11.79 11.68s4.95 11.32 11.38 11.32c5.85 0 11.56-3.7 11.56-11.72.05-6.68-4.45-11.28-11.15-11.28zM115 41.79c-2.88 0-4.45-2.85-4.45-6.58 0-3.3 1.26-6.63 4.5-6.63s4.36 3.33 4.36 6.58c-.08 3.97-1.74 6.63-4.41 6.63zm13.94-12.58v9.06c0 3.11.63 5.23 1.9 6.53a7.26 7.26 0 0 0 5.16 1.9 14.24 14.24 0 0 0 4.41-.59v-5.18a8.14 8.14 0 0 1-2 .18c-2 0-2.7-1.22-2.7-3.88v-8h4.91v-5.07h-4.91v-6.68a6.66 6.66 0 0 0-6.71 6.67v5.05m70 .01v9.06c0 3.11.63 5.23 1.89 6.53a7.3 7.3 0 0 0 5.17 1.9 14.31 14.31 0 0 0 4.42-.59l-.05-5.18a8.18 8.18 0 0 1-2 .18c-2 0-2.69-1.22-2.69-3.88v-8h4.9v-5.07h-4.9v-6.68a6.66 6.66 0 0 0-6.74 6.67v5.05m-54.85 11.05a13.31 13.31 0 0 0 5.9 1.62c2.07 0 2.93-.67 2.93-1.8s-.68-1.71-3.2-2.57c-4.59-1.48-6.35-4-6.3-6.58 0-4.15 3.51-7.26 9-7.26a14.38 14.38 0 0 1 6.16 1.31l-1.21 4.73a11.63 11.63 0 0 0-4.77-1.22c-1.66 0-2.61.68-2.61 1.76s.86 1.62 3.56 2.57c4.18 1.4 5.89 3.56 5.94 6.76 0 4.15-3.2 7.17-9.5 7.17a15.52 15.52 0 0 1-7.11-1.58l1.21-4.87m38.72-1.16c0 2.88.09 5.22.18 7.08h-5.94l-.32-3.12h-.13a7.85 7.85 0 0 1-6.89 3.61c-4.5 0-7.74-2.79-7.74-9.6V24.16h6.84v11.86c0 3.2 1 5.13 3.47 5.13a3.8 3.8 0 0 0 3.66-3.87V24.16h6.84v15m4.71-15h6.84v22.05h-6.84zm3.37-2.89a3.59 3.59 0 0 1-3.78-3.65 3.86 3.86 0 1 1 3.86 3.65h-.05m42.47 16.1a17.64 17.64 0 0 0 .22-2.75c0-5.46-2.7-11-9.81-11-7.61 0-11.11 6.18-11.11 11.77 0 7 4.27 11.27 11.74 11.27a20.77 20.77 0 0 0 8-1.39l-.9-4.65a18.17 18.17 0 0 1-6.08 1c-3.2 0-6-1.35-6.21-4.24zm-14.22-4.74c.18-1.8 1.35-4.46 4.27-4.46 3.11 0 3.83 2.84 3.83 4.46z"/>
    <path style="fill:currentColor" d="M23.79 16.02a2.53 2.53 0 1 1-3.34 3.33 5 5 0 0 0-.23 1.5 5.06 5.06 0 1 0 10.11 0 4.72 4.72 0 0 0-.22-1.49 5 5 0 0 0-6.32-3.34zm-11.16 4.81a2.54 2.54 0 0 1-1-4.85 5 5 0 0 0-1.49-.22 5.06 5.06 0 0 0 0 10.12 5 5 0 0 0 5.07-5 5.34 5.34 0 0 0-.22-1.5 2.53 2.53 0 0 1-2.36 1.45z"/>
    <path style="fill:currentColor" d="M26.54 9.2a17.64 17.64 0 0 0-17.73 0A17.58 17.58 0 0 0 0 6.86v17.71A35.39 35.39 0 0 0 35.35 60V6.86a17.58 17.58 0 0 0-8.81 2.34zm-1.29 19.26a7.63 7.63 0 0 1-4.05-1.19l-3.54 3.52-3.53-3.55a7.43 7.43 0 0 1-4 1.17 7.6 7.6 0 1 1 7.57-8.25 7.58 7.58 0 1 1 7.53 8.3z"/>
  </g>
</svg>
