<svg xmlns="http://www.w3.org/2000/svg" width="64" height="64">
  <rect width="64" height="30.102" y="17.098" rx="2" fill="#e7746f"/>
  <path d="M5.516 42.198V21.737h4.613v7.877h7.062v-7.877h4.644v20.46h-4.644v-8.536H10.13v8.537H5.516zm26.434.053q-2.43 0-4.143-.784-1.694-.816-2.886-2.008l2.073-2.92q.91.817 1.944 1.413 1.069.567 2.353.567 1.539 0 2.43-.784.91-.784.91-2.323 0-1.506-.878-2.29-.847-.784-2.26-.784-.437 0-.783.065-.345.032-.69.157-.315.125-.69.314-.345.188-.784.486l-2.074-1.318.567-10.075h11.298v3.892h-7.312l-.345 3.735q.567-.25 1.07-.345.534-.124 1.16-.124 1.287 0 2.418.375 1.16.378 2.04 1.13.878.754 1.38 1.915.486 1.162.486 2.762 0 1.664-.596 2.948-.596 1.286-1.6 2.196-1.004.88-2.354 1.35-1.318.486-2.761.486zm17.983.486q-3.985 0-6.09-2.354-2.103-2.353-2.103-7.499V21.902h4.644v11.455q0 3.013.91 4.205.91 1.192 2.637 1.192 1.727 0 2.668-1.192.94-1.192.94-4.205V21.902h4.454v10.982q0 5.148-2.074 7.5-2.04 2.353-5.993 2.353z" fill="#fff"/>
</svg>
