<svg xmlns="http://www.w3.org/2000/svg" viewBox="0 0 64 64" version="1.1" width="64" height="64">
  <g transform="matrix(3.03131 0 0 3.03131 -30.313 -58.94)">
    <path style="fill:#2f3134;stroke-width:.25472015" d="M16.015 39.164a.1.1 0 0 1-.08-.042l-5.917-8.378a.1.1 0 0 1-.009-.099l4.285-9.321a.099.099 0 0 1 .08-.057l10.201-.944a.094.094 0 0 1 .09.042l5.916 8.377a.1.1 0 0 1 .01.1l-4.285 9.32a.1.1 0 0 1-.081.058l-10.2.943h-.01zm-5.802-8.488 5.85 8.285 10.087-.933 4.237-9.218-5.85-8.284-10.087.933zm16.003 7.445z" class="cls-1"/>
    <path style="fill:#2f3134;stroke-width:.25472015" d="m15.98 39.142-1.638-8.524-.008-9.319 7.977 2.348 8.272 5.146-6.143 5.46zm-1.546-17.71.007 9.177 1.61 8.378 8.33-4.813 6.037-5.367-8.153-5.072z" class="cls-1"/>
    <circle style="fill:#2f3134;stroke-width:.25472015" r=".297" cy="23.741" cx="22.442" class="cls-1"/>
    <path style="fill:#2f3134;stroke-width:.25472015" d="M22.442 24.354a.613.613 0 1 1 .613-.613.613.613 0 0 1-.613.613zm0-.631-.018.018a.018.018 0 0 0 .018.017z" class="cls-1"/>
    <circle style="fill:#2f3134;stroke-width:.25472015" r=".297" cy="34.199" cx="24.425" class="cls-1"/>
    <path style="fill:#2f3134;stroke-width:.25472015" d="M24.425 34.812a.613.613 0 1 1 .613-.613.613.613 0 0 1-.613.613zm0-.63-.018.017a.018.018 0 0 0 .018.017z" class="cls-1"/>
    <circle style="fill:#2f3134;stroke-width:.25472015" r=".297" cy="39.065" cx="16.088" class="cls-1"/>
    <path style="fill:#2f3134;stroke-width:.25472015" d="M16.088 39.678a.613.613 0 1 1 .612-.613.613.613 0 0 1-.612.613zm0-.631-.018.018a.018.018 0 0 0 .018.017z" class="cls-1"/>
    <circle style="fill:#2f3134;stroke-width:.25472015" r=".297" cy="30.708" cx="14.384" class="cls-1"/>
    <path style="fill:#2f3134;stroke-width:.25472015" d="M14.384 31.32a.613.613 0 1 1 .612-.612.613.613 0 0 1-.612.613zm0-.63-.018.018a.018.018 0 0 0 .018.018z" class="cls-1"/>
    <circle style="fill:#2f3134;stroke-width:.25472015" r=".297" cy="28.815" cx="30.5" class="cls-1"/>
    <path style="fill:#2f3134;stroke-width:.25472015" d="M30.5 29.427a.613.613 0 1 1 .613-.612.613.613 0 0 1-.613.612zm0-.63-.018.018a.018.018 0 0 0 .018.017z" class="cls-1"/>
    <circle style="fill:#2f3134;stroke-width:.25472015" r=".297" cy="21.365" cx="14.384" class="cls-1"/>
    <path style="fill:#2f3134;stroke-width:.25472015" d="M14.384 21.978a.613.613 0 1 1 .612-.613.613.613 0 0 1-.612.613zm0-.63-.018.017a.018.018 0 0 0 .018.018z" class="cls-1"/>
    <path style="fill:#2f3134;stroke-width:.25472015" d="M26.216 38.22a.098.098 0 0 1-.033-.005l-7.778-2.746-8.354-4.696a.099.099 0 0 1-.019-.16l6.286-5.76 8.219-4.518a.098.098 0 0 1 .088-.004.1.1 0 0 1 .056.069l1.842 8.095-.208 9.628a.1.1 0 0 1-.043.08.098.098 0 0 1-.056.017zm-15.95-7.553 8.22 4.622 7.634 2.693.207-9.467-1.81-7.943-8.084 4.442z" class="cls-1"/>
    <path style="fill:#2f3134;stroke-width:.25472015" d="m24.458 34.236-.04-.014-10.083-3.505.033-.028 8.09-6.995zm-10.025-3.538 9.96 3.463-1.967-10.374Z" class="cls-1"/>
    <path style="fill:#2f3134;stroke-width:.25472015" d="m18.374 35.561-2.12-10.786L26.62 28.48ZM16.516 25.08l1.987 10.11 7.729-6.636z" class="cls-1"/>
    <path style="fill:#2f3134;stroke-width:.25472015" transform="rotate(-29.328)" class="cls-1" d="M1.977 25.672h.198v4.085h-.198z"/>
    <path transform="translate(9.18 -1.284) scale(.25472)" style="fill:#2f3134" class="cls-1" d="m36.016 143.71.656.42-9.228 14.482-.656-.419z"/>
    <path style="fill:#2f3134;stroke-width:.25472015" transform="rotate(-85.822)" class="cls-1" d="M-26.615 28.433h.198v4.085h-.198z"/>
  </g>
</svg>
