<svg xmlns="http://www.w3.org/2000/svg" version="1.1" x="0" y="0" viewBox="0 0 64 64" width="64" height="64">
  <g transform="matrix(.29267 0 0 .29267 8.333 -12.32) matrix(1.58497 0 0 1.58497 -33.16 -17)">
    <path d="M88.822 51.582v25.966l29.179 74.943s8.908 18.303-16.57 22.763H43.308s-23.747-2.478-18.054-21.281l30.664-76.424V51.582Z" style="fill:#009688"/>
    <path d="M89.438 48.563H54.435c-2.835 0-5.141-2.522-5.141-5.638 0-3.118 2.305-5.64 5.141-5.64h35.003c2.848 0 5.15 2.522 5.15 5.64 0 3.116-2.303 5.638-5.15 5.638z" style="fill:#004d40"/>
    <path d="M80.204 93.979c3.756 0 6.819 3.67 6.819 8.215 0 4.525-3.065 8.204-6.819 8.204-3.765 0-6.819-3.679-6.819-8.204 0-4.547 3.054-8.215 6.819-8.215z" style="fill:#fff"/>
    <ellipse cx="59.271" cy="108.362" rx="5.748" ry="6.928" style="fill:#fff"/>
    <path d="M91.417 75.827v-12.35s15.661-3.453 23.488 14.763c0-.001-12.198 8.887-23.488-2.413z" style="fill:#004d40"/>
    <path d="M53.059 75.827v-12.35S37.396 60.024 29.573 78.24c0-.001 12.186 8.887 23.486-2.413z" style="fill:#004d40"/>
    <path d="M100.833 126.935c-25.467-7.9-46.878-3.659-57.343-.453l-10.553 25.401c-4.751 15.164 15.087 17.157 15.087 17.157h48.545c21.279-3.595 13.842-18.347 13.842-18.347z" style="fill:#fff"/>
    <path d="M64.131 136.373c0 2.739-3.681 4.967-8.215 4.967s-8.204-2.229-8.204-4.967c0-2.75 3.67-4.97 8.204-4.97 4.536.002 8.215 2.22 8.215 4.97z" style="fill:#004d40"/>
    <path d="M93.345 136.373c0 2.739-3.681 4.967-8.204 4.967-4.547 0-8.215-2.229-8.215-4.967 0-2.75 3.668-4.97 8.215-4.97 4.525.002 8.204 2.22 8.204 4.97z" style="fill:#004d40"/>
  </g>
</svg>
