<svg xmlns="http://www.w3.org/2000/svg" xmlns:xlink="http://www.w3.org/1999/xlink" version="1.1" height="60" width="296">
  <g transform="matrix(.39323 0 0 .39323 5.424 2.569)">
    <path style="fill:#6b4230" d="M24.74 69.23 11.05 58.4l18.38-3.06-10.66-14.07 18.88 2.84-3.69-18.6 14.48 10.47 4.35-19.35 9.27 9.08v96.44l-44.59-12.06 14.74-12.52-21.56-2.23 16.42-13.95-17.63-4.04z"/>
    <path style="fill:#4f3124" d="m53.92 20.46 6.19 6.07v93.09l-38.57-10.43L30 102l6.94-5.89-9.05-.94-12.51-1.29 10-8.49 5.91-5.02-7.56-1.73-8.77-2.01 8.06-4.28 5.26-2.79-4.67-3.69-7.92-6.26 10.89-1.82 6.34-1.06-3.88-5.12-5.84-7.7 11.42 1.72 5.47.82-1.08-5.42-2.19-11.04 8.09 5.85 4.78 3.45 1.29-5.75 2.94-13.08m-2.26-7.65-4.47 19.87-16.1-11.64 4.11 20.74-20.86-3.14 11.61 15.32L6.4 57.21l14.8 11.7-17.27 9.17 18.93 4.34L5.92 96.81l21.57 2.23L13.4 111 64 124.69v-99.8z"/>
    <path style="fill:#6b4230" d="M109.16 41.27 98.49 55.34l18.39 3.06-13.7 10.83 15.3 8.12-17.62 4.04 16.42 13.95-21.57 2.23 14.75 12.52-44.59 12.06V25.71l9.27-9.08 4.35 19.35 14.48-10.47-3.69 18.6z"/>
    <path style="fill:#4f3124" d="m74.01 20.46 2.94 13.07 1.29 5.75 4.78-3.45 8.09-5.85-2.19 11.04-1.08 5.42 5.47-.82 11.42-1.72-5.84 7.7L95 56.73l6.34 1.06 10.89 1.82-7.92 6.26-4.67 3.69 5.26 2.79 8.06 4.28-8.77 2.01-7.56 1.73 5.91 5.02 10 8.49-12.51 1.29-9.05.94 6.94 5.89 8.46 7.19-38.57 10.43V26.53l6.2-6.07m2.26-7.65L63.93 24.89v99.8l50.6-13.68-14.09-11.97 21.57-2.23-16.94-14.39L124 78.08l-17.28-9.17 14.8-11.7-19.54-3.26 11.61-15.32-20.86 3.14 4.11-20.74-16.1 11.64z"/>
    <path style="fill:#6b4230" d="m113.32 48.86-9.02 12.83 14.02 7.47-10.37 7.62 10.18 9.37-19.6 3.99 15.61 11.08-16.9 5.04 9.2 13.37-42.45 4.3-43.01-3.97 9.84-13.69-16.96-5.05 15.62-11.08-19.6-3.99 10.17-9.37-10.37-7.62 14.02-7.47-9.01-12.83 15.62.28-6.08-17.79 21.19 6.46-4.66-17.24 15.52 8.48L64 13.99l7.72 15.06 15.52-8.48-4.66 17.24 21.19-6.46-6.08 17.79z"/>
    <path style="fill:#4f3124" d="m64 18.15 5.15 10.03 1.78 3.47 3.42-1.87 9.91-5.41-2.61 9.64-1.79 6.62 6.56-2 14.36-4.38-4.01 11.72-1.75 5.12 5.41-.1 9.19-.16-5.64 8.02-2.47 3.51 3.79 2.02 9.46 5.04-6.08 4.47-3.71 2.73 3.39 3.12 5.75 5.3-11.68 2.38-8.58 1.75 7.14 5.07 8.87 6.29-10.67 3.18-5 1.49 2.96 4.3 5.91 8.59-39.08 3.95-39.53-3.65 6.35-8.83 3.12-4.33-5.11-1.52-10.67-3.18 8.87-6.29 7.14-5.07-8.58-1.75-11.68-2.38 5.75-5.3 3.39-3.12-3.71-2.73-6.08-4.47 9.46-5.04 3.79-2.02-2.47-3.51-5.64-8.02 9.19.16 5.41.1-1.75-5.12-4.01-11.72 14.36 4.38 6.56 2-1.79-6.62-2.61-9.64 9.91 5.41 3.42 1.87 1.78-3.47L64 18.15m0-8.32-8.52 16.62-17.71-9.68L42.7 35l-21.46-6.54 6.41 18.74-16.66-.3 9.93 14.13-14.79 7.88 10.94 8.04L5.86 87.27l18.95 3.86-15.22 10.8 18.14 5.4-10.23 14.21 46.5 4.29 45.82-4.63-9.54-13.87 18.14-5.4-15.22-10.8 18.95-3.86-11.21-10.33 10.94-8.04-14.79-7.88 9.93-14.13-16.66.3 6.41-18.74L85.31 35l4.93-18.23-17.71 9.68Z"/>
    <linearGradient y2="122.489" y1="41.459" x2="64" x1="64" gradientUnits="userSpaceOnUse" id="a">
      <stop style="stop-color:#ffdb99" offset="0"/>
      <stop style="stop-color:#fed894" offset=".058"/>
      <stop style="stop-color:#f5bb67" offset=".65"/>
      <stop style="stop-color:#f2b056" offset=".949"/>
    </linearGradient>
    <path style="fill:url(#a)" d="M63.86 122.48c-14.37-.49-23.3-3.67-28.1-10.02-6.46-8.55-6.37-23.73.3-50.74 3.7-14.96 13.36-20.26 20.52-20.26 2.69 0 5.01.77 6.36 2.12L64 44.63l1.06-1.05c1.36-1.35 3.68-2.12 6.36-2.12 7.15 0 16.82 5.31 20.52 20.26 6.68 27.01 6.77 42.19.3 50.74-4.8 6.35-13.73 9.53-28.1 10.02l-.16.01z"/>
    <path style="fill:#f7a11e" d="M71.42 42.96c6.61 0 15.57 5.01 19.06 19.12 6.56 26.53 6.73 41.32.56 49.47-4.5 5.96-13.07 8.95-26.96 9.43h-.18c-13.89-.47-22.45-3.47-26.96-9.43-6.16-8.15-5.99-22.95.56-49.47 3.49-14.12 12.45-19.12 19.06-19.12 2.26 0 4.24.63 5.31 1.68l2.13 2.1 2.11-2.09c1.07-1.06 3.05-1.69 5.31-1.69m0-3c-3.12 0-5.8.94-7.42 2.55-1.63-1.61-4.3-2.55-7.42-2.55-7.71 0-18.01 5.76-21.88 21.4-11.13 45.05-5.7 61.45 29.3 62.62v.02s-.07-.01 0-.01 0 .01 0 .01v-.02c35-1.18 40.43-17.57 29.3-62.62-3.87-15.64-14.17-21.4-21.88-21.4Z"/>
    <circle r="5.17" cy="59.83" cx="48.83"/>
    <path style="fill:#feedc9" d="M48.83 55.67c2.3 0 4.17 1.87 4.17 4.17S51.13 64 48.83 64s-4.17-1.87-4.17-4.17 1.87-4.16 4.17-4.16m0-2a6.18 6.18 0 0 0-6.17 6.17c0 3.4 2.77 6.16 6.17 6.16S55 63.23 55 59.83s-2.77-6.16-6.17-6.16z"/>
    <circle r="5.17" cy="59.83" cx="79.17"/>
    <path style="fill:#feedc9" d="M79.17 55.67c2.3 0 4.17 1.87 4.17 4.17S81.47 64 79.17 64 75 62.13 75 59.83s1.87-4.16 4.17-4.16m0-2A6.18 6.18 0 0 0 73 59.84c0 3.4 2.77 6.16 6.17 6.16s6.17-2.77 6.17-6.17-2.77-6.16-6.17-6.16z"/>
    <defs>
      <path d="M93.3 60.56C87.87 39.4 69.6 37.03 63.96 42.42c-5.64-5.38-23.84-3.01-29.27 18.14C23.55 103.92 29 119.7 64 120.83v.02s-.07-.01 0-.01 0 .01 0 .01v-.02c35-1.13 40.43-16.91 29.3-60.27z" id="b"/>
    </defs>
    <clipPath id="c">
      <use height="100%" width="100%" y="0" x="0" xlink:href="#b" style="overflow:visible"/>
    </clipPath>
    <ellipse clip-path="url(#c)" style="fill:#fee7b4" ry="22.38" rx="21.88" cy="113.71" cx="64"/>
    <defs>
      <path d="m71.77 78.07.01.48c.02 1.34-.3 2.61-.88 3.72a7.916 7.916 0 0 1-1.86 2.32 7.765 7.765 0 0 1-4.92 1.86c-.23 0-.47 0-.7-.02-.23-.02-.46-.04-.68-.08a7.747 7.747 0 0 1-3.6-1.59c-.39-.31-.75-.66-1.07-1.04a8.2 8.2 0 0 1-.86-1.23 7.678 7.678 0 0 1-1-3.69l-.01-.48c3.46-.06 7.74-1.97 7.68-5.85.09 3.89 4.43 5.66 7.89 5.6z" id="e"/>
    </defs>
    <defs>
      <path d="m71.77 78.07.01.48c.02 1.34-.3 2.61-.88 3.72a7.916 7.916 0 0 1-1.86 2.32 7.765 7.765 0 0 1-4.92 1.86c-.23 0-.47 0-.7-.02-.23-.02-.46-.04-.68-.08a7.747 7.747 0 0 1-3.6-1.59c-.39-.31-.75-.66-1.07-1.04a8.2 8.2 0 0 1-.86-1.23 7.678 7.678 0 0 1-1-3.69l-.01-.48c3.46-.06 7.74-1.97 7.68-5.85.09 3.89 4.43 5.66 7.89 5.6z" id="d"/>
    </defs>
    <use height="100%" width="100%" y="0" x="0" xlink:href="#d" style="overflow:visible;fill:#6b4230"/>
    <clipPath id="f">
      <use height="100%" width="100%" y="0" x="0" xlink:href="#e" style="overflow:visible"/>
    </clipPath>
    <clipPath clip-path="url(#f)" id="g">
      <use height="100%" width="100%" y="0" x="0" xlink:href="#d" style="overflow:visible"/>
    </clipPath>
    <path clip-path="url(#g)" style="fill:#ed7770" d="M57.68 87.68a6.445 6.445 0 0 1 6.34-6.55 6.445 6.445 0 0 1 6.55 6.34"/>
    <path style="fill:none;stroke:#6b4230;stroke-width:1.6965;stroke-linecap:round;stroke-linejoin:round;stroke-miterlimit:10" d="M63.93 71.18a6.725 6.725 0 0 1-11.07 5.25"/>
    <path style="fill:none;stroke:#6b4230;stroke-width:1.6965;stroke-linecap:round;stroke-linejoin:round;stroke-miterlimit:10" d="M63.9 71.18c.06 3.71 3.12 6.68 6.84 6.61 1.7-.03 3.24-.68 4.4-1.74"/>
    <path style="fill:#c49d6b" d="M51.23 90.66c1.84.62 3.8.99 5.46 1.99 1.66 1.01 3 2.91 2.59 4.81-.54 2.5-3.57 3.48-6.12 3.71-2.75.24-5.52.15-8.24-.29-2.61-.42-5.34-1.24-7.05-3.26-2.02-2.37-2.17-5.75-2.22-8.86-.06-3.98 1.6-9.42 5.85-5.27 3.07 3.02 5.47 5.73 9.73 7.17z"/>
    <path style="fill:#c49d6b" d="M76.77 90.66c-1.84.62-3.8.99-5.46 1.99-1.66 1.01-3 2.91-2.59 4.81.54 2.5 3.57 3.48 6.12 3.71 2.75.24 5.52.15 8.24-.29 2.61-.42 5.34-1.24 7.05-3.26 2.02-2.37 2.17-5.75 2.22-8.86.06-3.98-1.6-9.42-5.85-5.27-3.07 3.02-5.47 5.73-9.73 7.17z"/>
    <path style="fill:#f3b55e" d="M47.8 105.56c2.71.82 5.3 2.53 6.59 5.11.87 1.74 1.04 4.03-.17 5.52-1.09 1.35-2.96 1.7-4.67 1.73-2.76.04-5.83-.26-8.23-1.67-2.72-1.6-7.57-7.54-4.36-10.87 2.04-2.11 8.49-.53 10.84.18z"/>
    <path style="fill:#f3b55e" d="M80.2 105.56c-2.71.82-5.3 2.53-6.59 5.11-.87 1.74-1.04 4.03.17 5.52 1.09 1.35 2.96 1.7 4.67 1.73 2.76.04 5.83-.26 8.23-1.67 2.72-1.6 7.57-7.54 4.36-10.87-2.04-2.11-8.49-.53-10.84.18z"/>
    <radialGradient r="5.261" gradientUnits="userSpaceOnUse" cy="66.503" cx="63.865" id="h">
      <stop style="stop-color:#73450b" offset=".005"/>
      <stop style="stop-color:#673e0d" offset=".155"/>
      <stop style="stop-color:#3f2713" offset=".711"/>
      <stop style="stop-color:#301e16" offset="1"/>
    </radialGradient>
    <path style="fill:url(#h)" d="M63.93 72.76c2.19 0 3.48-1.95 4.23-3.57.75-1.62-.1-4.19-1.46-4.19h-5.55c-1.36 0-2.2 2.57-1.46 4.19.75 1.62 2.04 3.57 4.24 3.57z"/>
  </g>
  <g style="font-style:italic;font-variant:normal;font-weight:700;font-stretch:normal;font-size:39.9883px;line-height:1.25;font-family:'Noticia Text';-inkscape-font-specification:'Noticia Text Bold Italic';font-variant-ligatures:normal;font-variant-caps:normal;font-variant-numeric:normal;font-variant-east-asian:normal;fill:#000;fill-opacity:1;stroke:none;stroke-width:.999702" aria-label="IconSear.ch">
    <path style="stroke-width:.999702" d="m65.073 40.872 2.539-.39 3.046-21.537-2.558-.39.39-2.05h10.486l.097 2.05-2.558.39-3.046 21.537 2.578.39-.39 2.05H65.17Z"/>
    <path style="stroke-width:.999702" d="m97.037 27.341-2.46.195V23.73q-.664-.137-1.367-.195-.703-.078-1.347-.078-.664 0-1.465.156-.78.156-1.64.527-.879 1.62-1.504 3.593-.605 1.972-.937 4.217l-.312 2.324q-.488 3.319.195 5.135.703 1.796 3.593 1.796 1.269 0 2.772-.488 1.504-.488 2.832-1.269v2.07q-1.562.898-3.476 1.366-1.913.47-3.827.47-4.53 0-6.482-2.188-1.953-2.187-1.309-6.619l.254-1.816q.781-5.467 4.003-8.435 3.222-2.987 7.732-2.987 1.64 0 3.202.273t2.636.742z"/>
    <path style="stroke-width:.999702" d="M107.014 43.352q-4.55 0-6.56-2.148-1.992-2.167-1.367-6.658l.254-1.816q.8-5.447 4.042-8.435 3.26-2.987 7.888-2.987 4.667 0 6.6 2.226 1.933 2.226 1.308 6.755l-.254 1.855q-.742 5.038-4.1 8.123-3.359 3.085-7.81 3.085zm6.463-12.77q.488-3.456-.175-5.291-.645-1.835-2.656-1.835-.703 0-1.464.156-.762.136-1.445.41-.977 1.718-1.66 3.768-.664 2.05-.976 4.16l-.332 2.323q-.469 3.495.312 5.213.8 1.718 2.558 1.718.723 0 1.484-.156.781-.156 1.425-.43.957-1.483 1.64-3.514.684-2.05.977-4.198z"/>
    <path style="stroke-width:.999702" d="m144.23 42.923-6.443.43-1.582-1.524 1.816-13.18q.37-2.538.215-3.69-.157-1.152-1.016-1.152-1.074 0-2.772 1.406-1.68 1.386-3.808 4.198l-1.952 13.941-5.585-.43 2.578-18.744-2.558-.39.39-2.05 6.463-.43 1.582 1.523-.469 3.32q1.836-2.305 3.984-3.574 2.167-1.27 4.276-1.27 2.87 0 3.924 1.387 1.055 1.386.645 4.237l-1.855 13.55 2.558.391z"/>
    <path style="stroke-width:.999702" d="M161.588 27.302q4.51 2.812 5.682 4.686 1.172 1.875.82 4.276-.488 3.32-3.592 5.214-3.105 1.874-7.889 1.874-2.558 0-4.725-.351-2.167-.332-3.554-.879l.313-5.448h3.32l.878 3.886q.703.215 1.777.351 1.093.118 2.304.118 1.073 0 2.147-.157 1.074-.156 1.855-.39.371-.586.684-1.367.312-.8.449-1.68.215-1.522-.762-2.791-.956-1.27-4.256-3.437-4.081-2.577-5.409-4.276-1.328-1.699-.957-4.296.43-2.89 3.476-4.725 3.046-1.835 7.83-1.835 2.03 0 4.022.254 1.992.254 3.476.761l-.332 5.663h-3.085l-.88-3.925q-.956-.234-1.932-.332t-1.816-.098q-1.074 0-2.128.176-1.055.156-1.758.371-.253.45-.507 1.191-.254.723-.332 1.308-.254 1.719 1.015 2.988 1.289 1.269 3.866 2.87z"/>
    <path style="stroke-width:.999702" d="M190.33 26.833q-.45 3.144-2.988 4.92-2.518 1.758-6.54 1.758-.782 0-1.543-.058-.762-.078-1.308-.176l-.137.996q-.488 3.378.39 5.154.899 1.777 3.496 1.777 1.19 0 2.733-.449 1.543-.449 3.183-1.308v2.07q-1.582.878-3.573 1.366-1.992.47-4.042.47-4.686 0-6.6-2.227-1.894-2.245-1.289-6.58l.254-1.816q.781-5.408 3.788-8.415 3.027-3.007 7.479-3.007 3.612 0 5.33 1.367 1.738 1.366 1.367 4.158zm-9.939-2.811q-.664 1.464-1.23 3.32-.547 1.835-.918 3.943.723.078 1.484.137.762.059 1.367.059.566 0 1.074-.059.508-.078.879-.195.546-.8.937-1.797.41-.995.586-2.167.273-2.03-.176-2.91-.45-.897-1.718-.897-.566 0-1.152.136-.566.137-1.133.43z"/>
    <path style="stroke-width:.999702" d="m212.296 42.923-6.443.43-1.582-1.524.45-3.3q-1.602 2.265-3.535 3.554-1.933 1.27-3.866 1.27-3.124 0-4.413-1.875-1.289-1.894-.742-5.839l.508-3.67q.722-4.92 3.807-7.791 3.085-2.87 7.635-2.87 1.835 0 4.12.43 2.304.41 4.334 1.093l-2.46 17.65 2.578.391zm-14.215-9.002q-.468 3.261-.273 5.096.195 1.836 1.601 1.836.996 0 2.538-1.543 1.563-1.562 3.222-4.061l1.601-11.5q-.527-.157-1.347-.274-.82-.137-1.718-.137-.723 0-1.523.157-.781.156-1.543.43-.78 1.464-1.347 3.416-.566 1.953-.86 4.022z"/>
    <path style="stroke-width:.999702" d="m218.251 21.737 6.463-.43 1.582 1.524-.488 3.436q1.054-2.362 2.577-3.651 1.543-1.308 3.32-1.308.82 0 1.6.234.782.234 1.367.625l-1.132 5.37-2.85.234v-3.476q-.216-.058-.41-.078-.177-.02-.352-.02-.938 0-2.148 1.621-1.21 1.62-2.617 5.077l-1.327 9.587 2.577.39-.39 2.05h-10.31l-.098-2.05 2.539-.39 2.265-16.304-2.558-.39z"/>
    <path style="stroke-width:.999702" d="M230.634 40.99q0-.801.176-1.524.195-.741.508-1.288.332-.566.761-.879.43-.332.918-.332.84 0 1.562.195.742.176 1.27.508.546.332.858.781.313.43.313.918 0 .8-.196 1.523-.175.703-.507 1.269-.313.547-.762.86-.43.331-.917.331-.84 0-1.562-.195-.723-.176-1.27-.488-.527-.332-.84-.762-.312-.43-.312-.918z"/>
    <path style="stroke-width:.999702" d="m257.24 27.341-2.46.195V23.73q-.664-.137-1.367-.195-.703-.078-1.347-.078-.664 0-1.465.156-.78.156-1.64.527-.879 1.62-1.503 3.593-.606 1.972-.938 4.217l-.312 2.324q-.488 3.319.195 5.135.703 1.796 3.593 1.796 1.27 0 2.773-.488 1.503-.488 2.83-1.269v2.07q-1.561.898-3.475 1.366-1.913.47-3.827.47-4.53 0-6.482-2.188-1.953-2.187-1.308-6.619l.253-1.816q.781-5.467 4.003-8.435 3.222-2.987 7.732-2.987 1.64 0 3.202.273t2.636.742z"/>
    <path style="stroke-width:.999702" d="M274.266 23.807q-1.25 0-2.987 1.503-1.738 1.484-3.573 4.1l-1.933 13.942-5.624-.43 3.847-27.628-2.558-.39.39-2.05 6.444-.43 1.581 1.523-1.698 12.203q1.816-2.363 3.983-3.593 2.167-1.25 4.393-1.25 2.812 0 3.827 1.446 1.015 1.445.586 4.471l-1.816 13.258 2.577.39-.39 2.05-6.444.43-1.6-1.523 1.815-13.18q.39-2.909.215-3.866-.176-.976-1.035-.976Z"/>
  </g>
</svg>
