<svg xmlns="http://www.w3.org/2000/svg" width="64" height="64" viewBox="0 0 64 64" version="1.1">
  <g transform="translate(.34 -43.32) scale(1.88817)">
    <path d="M8.313 37.406c0-4.277 0-8.556.002-12.834 0-.2-.004-.401.014-.602.052-.69.408-1.026 1.09-1.026h11.156c1.615 0 3.232-.004 4.847 0 2.198.007 4.371 1.947 4.648 4.159.06.472.09.952.09 1.428.003 6.04 0 12.079-.01 18.118 0 2.378-1.476 4.372-3.697 4.98a5.01 5.01 0 0 1-1.305.177c-5.198.013-10.394.01-15.591.007-.856 0-1.208-.363-1.208-1.247-.002-4.386-.002-8.773-.002-13.16zm17.805 0h-.021c0-3.06.002-6.118 0-9.175 0-.89-.296-1.189-1.186-1.189-3.796-.002-7.591-.002-11.385 0-.852.002-1.18.342-1.181 1.213l-.014 18.258c-.002.876.343 1.223 1.22 1.223 3.794.002 7.59.002 11.386 0 .87 0 1.18-.318 1.18-1.2v-9.13z" style="fill:#000;fill-rule:evenodd"/>
    <path d="M7.41 40.374h.011c0-3.508-.002-7.013.002-10.52.001-.314-.036-.646-.375-.696-.205-.031-.495.099-.658.254-.805.776-1.575 1.591-2.37 2.38a2.14 2.14 0 0 0-.646 1.579c.003 6.162-.005 12.326.02 18.49a4.964 4.964 0 0 0 4.977 4.97c4.558 0 9.116-.006 13.672.007.624.001 1.127-.205 1.557-.64.26-.26.518-.524.778-.785.506-.514 1.015-1.025 1.519-1.54.202-.208.443-.406.285-.757-.15-.337-.45-.317-.741-.32h-.32l-15.455-.001c-1.495 0-2.255-.765-2.255-2.272-.002-3.385 0-6.767 0-10.15zm.016-15.052c0-.323.046-.656-.015-.967-.046-.24-.18-.532-.366-.65-.121-.075-.463.066-.612.21a58.592 58.592 0 0 0-2.481 2.517c-.245.268-.455.65-.5 1.004-.09.728-.087 1.474-.062 2.21.008.219.172.544.346.615.168.07.501-.064.66-.217.827-.796 1.62-1.624 2.428-2.441a2.03 2.03 0 0 0 .602-1.494c-.002-.262 0-.525 0-.787z" style="fill:#000;fill-rule:evenodd"/>
    <path d="M19.663 40.457h.011v5.792c0 .561.041.601.605.601 1.433.002 2.867-.01 4.298.007.41.005.578-.13.578-.556 0-3.875.007-7.753.021-11.629.002-.43-.152-.611-.592-.606a228.1 228.1 0 0 1-4.342.002c-.425-.006-.591.149-.586.597.018 1.93.007 3.862.007 5.792zm-.935-1.237h.012c0-2.36-.007-4.724.008-7.084.002-.428-.152-.577-.559-.574-1.46.012-2.924.012-4.386.002-.414-.003-.55.169-.55.586.015 4.707.02 9.415.011 14.123 0 .459.178.582.6.577 1.415-.017 2.832-.005 4.248-.007.594 0 .616-.023.616-.63V39.22z" style="fill:#000;fill-rule:evenodd"/>
  </g>
</svg>
