<svg xmlns="http://www.w3.org/2000/svg" height="64" viewBox="7.727 7.821 1.192 1.192" width="64" version="1.1">
  <g transform="matrix(.0256 0 0 .0256 7.53 7.62)">
    <path d="M48.939 54.319H13.158c-3.006 0-5.431-2.425-5.431-5.334V13.204a5.317 5.317 0 0 1 5.333-5.333h35.781c3.007-.097 5.432 2.327 5.432 5.236v35.781c0 3.007-2.424 5.431-5.334 5.431" style="fill:#272727"/>
    <path d="M32.648 44.816c8.242-1.066 13.673-9.115 11.637-17.26-1.455-5.527-6.207-9.697-11.831-10.279-8.437-.97-15.806 5.915-15.418 14.448.388 8.146 7.661 14.157 15.71 13.091z" style="fill:#85bf25"/>
  </g>
</svg>
