<svg xmlns="http://www.w3.org/2000/svg" width="64" height="64" fill="#fe1f59">
  <path d="M59.983 16.962a2.443 2.443 0 0 0-1.196-1.787q-3.56-2.07-7.127-4.122L45.893 7.73l-5.617-3.252q-3.1-1.765-6.178-3.566c-.622-.357-1.2-.808-1.964-.852a.241.241 0 0 0-.322 0c-.277.03-.547.102-.803.212l-2.273 1.28L22.95 4.87 16.856 8.4l-4.854 2.78-6.584 3.813a2.46 2.46 0 0 0-1.394 1.84 1.07 1.07 0 0 0 0 .357v29.658a1.07 1.07 0 0 0 0 .357 2.24 2.24 0 0 0 .812 1.421 11.14 11.14 0 0 0 1.522.931q3.292 1.924 6.588 3.835 3.054 1.765 6.112 3.53l3.5 1.995 4.157 2.396 3.146 1.827c.618.35 1.2.8 1.955.834a1.02 1.02 0 0 0 .44 0 2.54 2.54 0 0 0 .856-.282l1.324-.768 3.583-2.04 3.2-1.87 2.714-1.558 3.124-1.818 5.54-3.195 2.273-1.293 3.24-1.867c.9-.5 1.712-1.077 1.87-2.206a1.16 1.16 0 0 0 0-.357V17.322a1.16 1.16 0 0 0 .013-.362zm-5.437 29.522q-9.43 5.423-18.847 10.873l-2.6 1.496a2.084 2.084 0 0 1-2.246 0q-8.826-5.097-17.65-10.185L9.266 46.4a2.07 2.07 0 0 1-1.072-1.942V19.747a2.31 2.31 0 0 1 1.284-2.206q10.295-5.922 20.58-11.87l.816-.468a2.08 2.08 0 0 1 2.277 0q2.97 1.72 5.944 3.433 7.73 4.47 15.458 8.927a2.255 2.255 0 0 1 1.244 2.145v24.606a2.29 2.29 0 0 1-1.258 2.17zM32.66 21.65c-.975-.357-1.906.05-2.418 1.068l-7.4 14.792a3.41 3.41 0 0 0-.163.388 1.89 1.89 0 0 0 1.141 2.416 1.89 1.89 0 0 0 2.416-1.141q3.045-6.112 6.107-12.22l1.412-2.9c.186-.464.174-.985-.032-1.44s-.6-.807-1.062-.973zm15.152.02c-.988-.402-1.964 0-2.498 1.072l-7.352 14.7a3.9 3.9 0 0 0-.18.42 1.89 1.89 0 0 0 3.53 1.324q3.663-7.325 7.325-14.642a4.64 4.64 0 0 0 .238-.534 1.877 1.877 0 0 0-1.063-2.34zm-6.492 2.357a1.817 1.817 0 0 0-.44-1.924 1.9 1.9 0 0 0-3.089.591l-3.64 7.303a1.95 1.95 0 0 0-.252.966 1.885 1.885 0 0 0 3.605.755q1.84-3.663 3.667-7.33a2.65 2.65 0 0 0 .15-.362zM21.75 29.4c-.468-.325-1.058-.42-1.605-.26s-.992.56-1.2 1.086q-1.28 2.542-2.546 5.088l-1.236 2.542c-.503 1.2.44 2.555 1.924 2.53a1.86 1.86 0 0 0 1.58-1.156q1.8-3.636 3.632-7.268a3.4 3.4 0 0 0 .163-.388 1.86 1.86 0 0 0-.702-2.17z"/>
</svg>
