<svg xmlns="http://www.w3.org/2000/svg" width="120" height="60" viewBox="0 0 120 60" version="1.1" preserveAspectRatio="xMidYMid">
  <defs>
    <linearGradient x1="68.698" y1="7.979" x2="68.738" y2="20.915" id="a" gradientTransform="scale(4.22591 .23664)" gradientUnits="userSpaceOnUse">
      <stop stop-color="#20C6B7" offset="0%"/>
      <stop stop-color="#4D9ABF" offset="100%"/>
    </linearGradient>
  </defs>
  <g transform="matrix(.19558 0 0 .19558 9.95 21.643)">
    <path d="M32.809 1.94h16.273v56.701c0 7.994-2.31 14.334-6.929 19.022-4.62 4.687-10.437 7.031-17.453 7.031-7.59 0-13.6-2.091-18.027-6.275C2.245 74.236.108 68.073.26 59.93l.173-.335h15.928c0 4.295.777 7.433 2.33 9.412 1.552 1.98 3.555 2.97 6.008 2.97 2.224 0 4.131-1.177 5.722-3.53 1.591-2.353 2.387-5.621 2.387-9.805zm61.54 64.265H72.267l-4.485 17.313H51.278L74.855 1.94h17.021l23.52 81.578H98.892Zm-18.746-12.83h15.41L83.482 24.52h-.345ZM139.098 1.94l15.009 59.895h.345L169.633 1.94h21.334v81.578h-16.274v-23.7l1.38-31.712-.345-.056-15.986 55.468h-10.868l-15.814-55.02-.345.056 1.438 31.264v23.7h-16.274V1.94Zm115.94 62.024c0-5.117-1.927-9.207-5.78-12.27-3.852-3.063-10.532-5.865-20.04-8.405-9.545-2.502-16.532-5.35-20.96-8.544-4.428-3.194-6.642-7.853-6.642-13.979 0-6.088 2.607-10.944 7.82-14.567 5.215-3.624 11.866-5.435 19.955-5.435 8.165 0 14.836 2.222 20.011 6.667 5.176 4.445 7.687 10.16 7.533 17.145l-.115.336h-2.645c0-6.088-2.3-11.13-6.9-15.128-4.6-3.996-10.562-5.995-17.884-5.995-7.59 0-13.6 1.653-18.028 4.959-4.428 3.306-6.641 7.274-6.641 11.906 0 4.632 1.83 8.479 5.491 11.542 3.661 3.063 10.284 5.79 19.868 8.18 9.277 2.39 16.283 5.313 21.018 8.768 4.734 3.455 7.101 8.358 7.101 14.708 0 6.462-2.702 11.55-8.108 15.268-5.405 3.716-12.171 5.574-20.299 5.574-8.395 0-15.622-1.914-21.679-5.743-6.057-3.828-8.99-9.851-8.798-18.069l.115-.336h2.588c0 7.396 2.798 12.765 8.395 16.108 5.598 3.343 12.057 5.015 19.38 5.015 7.36 0 13.407-1.644 18.142-4.93 4.734-3.288 7.102-7.546 7.102-12.775zm63.216-50.648c0 .409-.157.783-.471 1.123-.315.34-.681.51-1.1.51h-24.296v67.038c0 .408-.175.765-.524 1.072-.349.306-.733.459-1.152.459-.419 0-.803-.136-1.152-.408-.349-.273-.523-.647-.523-1.123V14.95h-24.401c-.42 0-.786-.17-1.1-.51-.314-.34-.471-.714-.471-1.123 0-.408.14-.799.419-1.173.28-.374.663-.561 1.152-.561h52.048c.489 0 .873.187 1.152.56.28.375.419.766.419 1.174zm47.528 45.83h-40.943l-9.316 24.372h-3.393L343.413 1.94h3.795l31.34 81.578h-3.393zm-39.793-3.026h38.643l-17.54-45.943-1.61-4.595h-.344l-1.553 4.595zm113.823 2.41.115.335c.153 8.367-2.444 14.764-7.792 19.19-5.348 4.426-12.392 6.64-21.133 6.64-9.162 0-16.504-3.297-22.024-9.89-5.52-6.592-8.28-15.249-8.28-25.969V36.622c0-10.683 2.76-19.33 8.28-25.941 5.52-6.612 12.862-9.917 22.024-9.917 8.74 0 15.785 2.222 21.133 6.667 5.348 4.445 7.945 10.795 7.792 19.05l-.115.336h-2.646c0-7.358-2.348-13.036-7.044-17.033-4.696-3.996-11.07-5.995-19.12-5.995-8.166 0-14.74 3.007-19.724 9.02-4.984 6.015-7.476 13.915-7.476 23.7v12.327c0 9.899 2.492 17.845 7.476 23.84 4.984 5.995 11.558 8.993 19.724 8.993 8.05 0 14.424-1.924 19.12-5.771 4.696-3.847 7.044-9.637 7.044-17.369zM468.7 43.681h-12.824v39.836h-3.105V1.94h3.105v38.772h13.686L505.101 1.94h3.68l.115.28-36.745 40.397 39.39 40.565-.172.336h-3.623z" style="fill:#4a4a4a"/>
    <path d="M317.73 3.419c0 .408-.157.765-.471 1.071-.314.306-.68.46-1.1.46h-51.524c-.42 0-.786-.154-1.1-.46-.314-.306-.471-.663-.471-1.071 0-.408.157-.765.471-1.072.314-.306.68-.459 1.1-.459h51.524c.42 0 .786.153 1.1.46.314.306.471.663.471 1.07z" style="fill:url(#a)"/>
  </g>
</svg>
