<svg xmlns="http://www.w3.org/2000/svg" version="1.1" viewBox="0 0 120 60" width="120" height="60">
  <defs>
    <clipPath>
      <path d="M0 1500V0h5455.7v1500z"/>
    </clipPath>
  </defs>
  <g transform="matrix(.92872 0 0 .92872 2.436 2.138)">
    <path d="M113.942 30.914c-.382-1.402-1.62-2.294-3.059-2.294-1.311 0-2.568 1.02-2.84 2.294zm1.693 2.877c-.764 1.858-2.567 3.114-4.588 3.114-2.841 0-5.117-2.221-5.117-5.08 0-2.878 2.167-5.19 5.062-5.19 1.348 0 2.695.6 3.642 1.566.965 1.02 1.366 2.258 1.366 3.642l-.073.783h-7.866c.29 1.347 1.53 2.33 2.913 2.33.965 0 1.803-.364 2.35-1.165h2.311m-20.029-4.79H94.35v-2.075h3.478v1.384c.582-1.074 1.675-1.603 2.877-1.603 1.056 0 2.094.438 2.804 1.202.801.893.82 1.749.82 2.86v3.805h1.256v2.076h-4.734v-2.076h1.256v-3.15c0-.601 0-1.22-.383-1.748-.4-.528-1.056-.783-1.711-.783-.674 0-1.366.273-1.767.819-.418.546-.418 1.384-.418 2.04v2.822h1.256v2.076H94.35v-2.076h1.256v-5.572m-3.186-3.005h-2.222v-2.349h2.222zm0 8.577h1.256v2.076h-4.753v-2.076h1.275v-5.572h-1.256v-2.076h3.478v7.648m-20.068-5.572h-1.256v-2.076h3.278v1.457c.62-1.02 1.566-1.694 2.804-1.694 1.348 0 2.477.82 3.023 2.04.528-1.239 1.84-2.04 3.186-2.04 1.057 0 2.095.437 2.805 1.238.765.893.765 1.858.765 2.968v3.679h1.256v2.076h-4.735v-2.076h1.257v-3.132c0-.638 0-1.202-.291-1.767-.364-.528-.966-.8-1.584-.8-.601 0-1.257.254-1.64.727-.455.583-.455 1.13-.455 1.84v3.132h1.257v2.076h-4.735v-2.076h1.257v-2.986c0-.583 0-1.312-.291-1.821-.31-.583-.947-.893-1.603-.893-.62 0-1.147.219-1.548.71-.492.601-.528 1.239-.528 1.985v3.005h1.256v2.076h-4.734v-2.076h1.256v-5.572m-7.26 4.826c.073.874.656 1.456 1.566 1.456.674 0 1.33-.473 1.33-1.201 0-.965-.911-1.13-1.658-1.33-1.693-.436-3.55-.965-3.55-3.095 0-1.857 1.565-2.932 3.296-2.932.873 0 1.656.183 2.203.874v-.673h1.639v2.64h-2.15c-.036-.692-.564-1.147-1.256-1.147-.6 0-1.238.346-1.238 1.02 0 .91.893 1.11 1.603 1.274 1.748.4 3.623.947 3.623 3.132 0 1.967-1.657 3.06-3.478 3.06-.983 0-1.875-.31-2.513-1.057v.801h-1.693v-2.822h2.276m-6.374-2.094c0-1.603-1.33-2.896-2.932-2.896-1.657 0-2.932 1.366-2.932 3.005 0 1.584 1.33 2.895 2.896 2.895 1.675 0 2.968-1.347 2.968-3.004zm-.037 3.605c-.71 1.075-1.857 1.566-3.132 1.566-2.786 0-4.99-2.312-4.99-5.062 0-2.822 2.259-5.171 5.1-5.171 1.256 0 2.348.582 3.022 1.638v-1.383h3.478v2.075h-1.22v5.573h1.22v2.076h-3.478v-1.312m-15.005-2.348c.018.801.51 1.62 1.42 1.62.547 0 .947-.255 1.22-.71.255-.455.255-1.129.255-1.639v-6.537h-1.42V23.65h5.3v2.076h-1.403v6.847c0 1.165-.073 2.076-.892 3.023-.729.837-1.912 1.31-3.041 1.31-2.331 0-4.116-1.547-4.024-3.914h2.585" style="fill:#8a4182;stroke-width:.01985857"/>
    <g transform="matrix(1.25935 0 0 1.25935 -9.666 -7.78)">
      <path style="fill:#8a4182;stroke-width:.01985857" d="M24.731 28h1.802l.448-.616v-4.828h-2.697v4.828l.447.616"/>
      <path style="fill:#8a4182;stroke-width:.01985857" d="M25.235 37.415h.748v-3.67h-.748zm-6.664-4.876-.231-.71 3.49-1.134.231.71-3.49 1.134m4.503-5.586-2.156-2.97.605-.439 2.156 2.97-.605.439m5.154.027-.605-.44 2.157-2.969.605.44-2.157 2.97m4.451 5.603-3.49-1.134.23-.711 3.491 1.134-.23.711m-5.542-4.144.557 1.714.725.235 4.591-1.492-.833-2.565-4.592 1.492-.448.616m.328 2.425-1.458 1.059v.761l2.838 3.907 2.182-1.586L28.19 31.1l-.724-.235m-2.206 1.06-1.458-1.06-.724.235-2.838 3.906 2.182 1.586 2.838-3.907v-.76m-1.689-1.771.557-1.714-.448-.617-4.592-1.491-.833 2.565 4.592 1.492.724-.235m2.064-11.789C19.219 18.365 14 23.584 14 29.998c0 6.417 5.22 11.637 11.635 11.637 6.414 0 11.633-5.22 11.633-11.637 0-6.414-5.219-11.633-11.633-11.633zm0 2.356a9.278 9.278 0 0 1 9.277 9.277 9.28 9.28 0 1 1-18.557 0 9.278 9.278 0 0 1 9.28-9.277"/>
    </g>
  </g>
</svg>
