<svg xmlns="http://www.w3.org/2000/svg" version="1.1" viewBox="0 0 64 64" width="64" height="64">
  <defs>
    <clipPath>
      <path d="M0 1500V0h5455.7v1500z"/>
    </clipPath>
  </defs>
  <g transform="matrix(2.75038 0 0 2.75038 -38.503 -50.512)">
    <path d="M24.731 28h1.802l.448-.616v-4.828h-2.697v4.828l.447.616" style="fill:#8a4182;stroke-width:.01985857"/>
    <path d="M25.235 37.415h.748v-3.67h-.748zm-6.664-4.876-.231-.71 3.49-1.134.231.71-3.49 1.134m4.503-5.586-2.156-2.97.605-.439 2.156 2.97-.605.439m5.154.027-.605-.44 2.157-2.969.605.44-2.157 2.97m4.451 5.603-3.49-1.134.23-.711 3.491 1.134-.23.711m-5.542-4.144.557 1.714.725.235 4.591-1.492-.833-2.565-4.592 1.492-.448.616m.328 2.425-1.458 1.059v.761l2.838 3.907 2.182-1.586L28.19 31.1l-.724-.235m-2.206 1.06-1.458-1.06-.724.235-2.838 3.906 2.182 1.586 2.838-3.907v-.76m-1.689-1.771.557-1.714-.448-.617-4.592-1.491-.833 2.565 4.592 1.492.724-.235m2.064-11.789C19.219 18.365 14 23.584 14 29.998c0 6.417 5.22 11.637 11.635 11.637 6.414 0 11.633-5.22 11.633-11.637 0-6.414-5.219-11.633-11.633-11.633zm0 2.356a9.278 9.278 0 0 1 9.277 9.277 9.28 9.28 0 1 1-18.557 0 9.278 9.278 0 0 1 9.28-9.277" style="fill:#8a4182;stroke-width:.01985857"/>
  </g>
</svg>
