<svg version="1.1" xmlns="http://www.w3.org/2000/svg" x="0" y="0" viewBox="0 0 120 60" width="120" height="60" style="enable-background:new 0 0 120 60">
  <path class="st0" d="M43.3 36.4c-.7.3-1.5.4-2.2.4-2.4 0-4.2-1.5-4.2-4.3 0-2.7 1.8-4.5 4.4-4.5.7 0 1.4.1 2 .4l-.3.9c-.5-.2-1.1-.4-1.7-.4-2 0-3.3 1.3-3.3 3.5 0 2.1 1.2 3.4 3.3 3.4.6 0 1.2-.1 1.8-.4l.2 1zm6.8-2.8c0 2.3-1.6 3.2-3 3.2-1.7 0-2.9-1.2-2.9-3.1 0-2 1.3-3.2 3-3.2 1.7-.1 2.9 1.2 2.9 3.1zm-4.8 0c0 1.3.8 2.4 1.9 2.4s1.9-1 1.9-2.4c0-1-.5-2.4-1.8-2.4s-2 1.3-2 2.4zm6.3-1.4c0-.6 0-1.1-.1-1.7h1l.1 1c.4-.7 1.2-1.2 2-1.1.8 0 2.2.5 2.2 2.6v3.7h-1.1v-3.5c0-1-.4-1.8-1.4-1.8-.7 0-1.3.5-1.5 1.1-.1.2-.1.3-.1.5v3.7h-1.1v-4.5zm8.3-3.4v1.8h1.6v.8h-1.6v3.3c0 .8.2 1.2.8 1.2.2 0 .4 0 .6-.1l.1.8c-.3.1-.6.2-1 .2s-.9-.2-1.2-.5c-.3-.3-.4-.9-.4-1.6v-3.3h-.9v-.8h.9v-1.5l1.1-.3zm6.4 7.9-.1-.8c-.4.6-1.1.9-1.9.9-1 .1-1.8-.7-1.9-1.6v-.1c0-1.5 1.3-2.3 3.7-2.3v-.1c0-.5-.1-1.4-1.4-1.4-.6 0-1.1.2-1.6.5l-.3-.7c.6-.4 1.3-.6 2-.5 1.9 0 2.3 1.3 2.3 2.5v2.3c0 .5 0 1 .1 1.5l-.9-.2zm-.1-3.2c-1.2 0-2.6.2-2.6 1.4 0 .5.4 1 .9 1.1h.2c.7 0 1.3-.4 1.5-1 0-.1.1-.2.1-.4l-.1-1.1zm4.1-4.7c0 .4-.3.7-.7.7-.4 0-.7-.3-.7-.7 0-.4.3-.7.7-.7.4 0 .7.3.7.7zm-1.2 7.9v-6.1h1.1v6.1h-1.1zm3-4.5c0-.6 0-1.1-.1-1.7h1l.1 1c.4-.7 1.2-1.2 2-1.1.8 0 2.2.5 2.2 2.6v3.7h-1.1v-3.5c0-1-.4-1.8-1.4-1.8-.9 0-1.6.8-1.6 1.7v3.7H72l.1-4.6zm7.7 1.6c0 1.5 1 2.1 2.1 2.1.6 0 1.2-.1 1.7-.3l.2.8c-.6.3-1.3.4-2 .4-1.9 0-3-1.2-3-3.1 0-1.8 1.1-3.3 2.9-3.3 2 0 2.5 1.8 2.5 2.9v.5h-4.4zm3.3-.8c0-.7-.3-1.8-1.5-1.8-1.1 0-1.6 1-1.7 1.8h3.2zm2.5-.5c0-.7 0-1.3-.1-1.9h1v1.2h.1c.2-.8.9-1.3 1.7-1.3h.3v1.1h-.4c-.8 0-1.3.6-1.5 1.4 0 .2 0 .3-.1.5v3.3h-1.1l.1-4.3zm4.3-4.3c.7-.1 1.4-.2 2.1-.2 1.1 0 1.9.3 2.4.7.5.5.8 1.1.7 1.8 0 .7-.2 1.3-.7 1.8-.7.7-1.6 1-2.6.9-.3 0-.6 0-.9-.1v3.4h-1.1l.1-8.3zm1.1 4.1c.3.1.6.1.9.1 1.3 0 2.1-.6 2.1-1.8s-.8-1.7-2-1.7c-.3 0-.7 0-1 .1v3.3zm6.7-3.5c0 .4-.3.7-.7.7-.4 0-.7-.3-.7-.7 0-.4.3-.7.7-.7.4 0 .7.3.7.7zm-1.2 7.9v-6.1h1.1v6.1h-1.1zm2.9-9h1.1v9h-1.1v-9zm8.7 5.9c0 2.3-1.6 3.2-3 3.2-1.7 0-2.9-1.2-2.9-3.1 0-2 1.3-3.2 3-3.2 1.7-.1 2.9 1.2 2.9 3.1zm-4.9 0c0 1.3.8 2.4 1.9 2.4 1.1 0 1.9-1 1.9-2.4 0-1-.5-2.4-1.8-2.4-1.4.1-2 1.3-2 2.4zm7.7-4.8v1.8h1.6v.8h-1.6v3.3c0 .8.2 1.2.8 1.2.2 0 .4 0 .6-.1l.1.8c-.3.1-.6.2-1 .2s-.9-.1-1.2-.5c-.3-.3-.4-.9-.4-1.6v-3.3h-.9v-.8h.9v-1.5l1.1-.3z"/>
  <path d="m19.5 19.4 10.7 18.5c.2.3.1.7-.2.9-.1.1-.2.1-.3.1H8.3c-.4 0-.7-.3-.7-.7 0-.1 0-.2.1-.3l10.7-18.5c.2-.3.6-.4.9-.2.1 0 .2.1.2.2z" style="fill:#f28f24"/>
  <path class="st0" d="M19 24.1s.1 0 0 0l.8 2.4v2.4l5.1 3.7V34l-3.2-1.9h-1.9l-.5 3.2 1.8.8v.9l-2.1-.5-2.2.5v-.8l1.8-.8-.5-3.2h-1.9L13.1 34v-1.4l5.1-3.7v-2.4l.8-2.4c-.1 0 0 0 0 0m0-.3c-.2 0-.4.1-.4.3l-.7 2.3v2.4l-5 3.6-.1.3V34l.5.3 3.1-1.8h1.5l.4 2.7-1.6.7-.2.3v.8l.4.3 2.1-.5 2.1.5.4-.3v-.8l-.2-.3-1.6-.7.4-2.7h1.5l3.1 1.8.5-.3v-1.4l-.1-.3-5-3.6v-2.4l-.7-2.3c-.1-.1-.2-.2-.4-.2z"/>
</svg>
