<svg xmlns="http://www.w3.org/2000/svg" width="64" height="64">
  <path d="m31.6 0-5.92 21.12v21.44L31.6 64l6.24-21.44V21.12z" fill="#bc473a"/>
  <path d="M31.6 0 2.16 10.72l4.16 39.2L31.6 64" fill="#e84d3d"/>
  <path d="m31.6 64 25.6-14.08 4.64-39.36L31.6 0" fill="#bc473a"/>
  <path d="M26.32 47.52c-2.88-.96-5.44-2.56-7.52-4.64l-.8-.8c-1.6-1.92-2.88-4.16-3.52-6.56.48.48.96.8 1.6 1.28l2.4 1.44c.32.16.48.32.8.32.32.16.64.32 1.12.32h.16c.16 1.44 1.28 2.56 2.72 2.88.48 2.4 1.44 4.32 3.04 5.76zm1.12-25.44c0 .64.16 1.28.48 1.76-2.4 3.36-4 7.04-4.8 10.56 0 .48-.16.8-.16 1.12-.8.16-1.44.8-1.92 1.44h-.16c-.32-.16-.48-.16-.8-.32s-.8-.32-1.12-.48c-1.28-.64-2.4-1.44-3.36-2.56l-.8-.8c0-.16-.16-.16-.16-.32l-.16-.16v-.16s0-.16-.16-.16v-.16c-.16-.16-.16-.32-.32-.48v-1.12a17.968 17.968 0 0 1 2.88-9.76c.16-.32.48-.64.64-.96s.48-.64.64-.96c2.24-2.56 4.96-4.48 8.32-5.44 0 .32.16.64.16 1.12.32 1.92.96 3.68 1.76 5.6-.64.64-.96 1.28-.96 2.24zm-1.92 16.64c0 .48-.16.8-.48 1.12l-.16.16c-.32.32-.64.48-1.12.48-.32 0-.64-.16-.96-.32s-.48-.48-.64-.8c-.16-.16-.16-.48-.16-.8 0-.48.16-.96.48-1.28l.16-.16c.32-.16.64-.32.96-.32s.8.16 1.12.32l.48.48c.16.48.32.8.32 1.12zm6.88-16.64c0 .32 0 .48-.16.8a1.6 1.6 0 0 1-1.6.96h-.32c-.8-.16-1.28-.64-1.44-1.44v-.32c0-.16 0-.32.16-.64.16-.64.96-1.12 1.6-1.12.8 0 1.44.48 1.6 1.28.16 0 .16.16.16.48z" fill="#fdc72e"/>
  <path d="M49.68 30.4c0 1.76-.32 3.36-.64 4.96-1.6-.48-3.04-.96-4.64-1.76v-.64c0-.48-.16-.8-.32-1.28l.16-.16c1.76-1.92 3.36-4 4.64-6.24.48 1.76.8 3.36.8 5.12zm-1.76-7.68c-.16.32-.32.48-.32.8-1.28 2.4-2.72 4.64-4.8 6.56-.48-.32-1.12-.48-1.76-.48-.8 0-1.44.16-1.92.64l-2.88-2.56c-1.12-1.12-2.24-2.4-3.2-3.68.48-.64.8-1.28.8-2.08a2.704 2.704 0 0 0-.48-1.6c2.4-2.24 4.96-4 7.52-5.28 3.2 1.76 5.6 4.48 7.04 7.68zM42.8 32.96c0 .8-.48 1.28-1.12 1.6-.16.16-.48.16-.64.16h-.32c-.8-.16-1.28-.8-1.44-1.6 0-.8.48-1.44 1.12-1.6.16 0 .32-.16.64-.16h.48c.8.16 1.28.8 1.28 1.6 0-.16 0 0 0 0zm.48 2.4c-.64.48-1.28.8-2.24.8-.64 0-1.28-.16-1.76-.48l-.16.16c-2.4 1.44-4.8 2.56-7.36 3.2v9.28c7.52 0 13.92-4.48 16.64-11.04-1.76-.48-3.52-1.12-5.12-1.92z" fill="#e09b00"/>
  <path d="M31.6 39.04c-1.6.32-3.04.64-4.64.64h-.32c-.32.8-.8 1.44-1.6 1.76.48 1.76 1.28 3.2 2.56 4.48.96.96 2.24 1.76 3.68 2.24h.32z" fill="#fdc72e"/>
  <path d="M37.84 32.96c0-.32 0-.64.16-.96-1.12-.8-2.08-1.76-3.2-2.72-1.12-1.12-2.24-2.4-3.2-3.68v11.36c2.08-.64 4.32-1.6 6.4-2.88 0-.32-.16-.8-.16-1.12z" fill="#e09b00"/>
  <path d="m31.6 25.6-.32-.32c-.16 0-.48.16-.8.16-.48 0-.8-.16-1.28-.16-2.24 3.04-3.68 6.4-4.32 9.76 0 .32-.16.64-.16.96.96.32 1.6 1.12 1.92 2.08h.16c1.6 0 3.2-.32 4.64-.8V25.6z" fill="#fdc72e"/>
  <path d="M31.6 12.32v6.56c.16 0 .16 0 .32.16a29.584 29.584 0 0 1 6.88-5.12c-2.24-.96-4.64-1.6-7.2-1.6z" fill="#e09b00"/>
  <path d="M31.6 12.32c-1.12 0-2.24.16-3.36.32 0 .32.16.8.16 1.12.32 1.6.8 3.36 1.6 4.96h.64c.32 0 .64 0 .96.16z" fill="#fdc72e"/>
</svg>
