<svg xmlns="http://www.w3.org/2000/svg" version="1.1" x="0" y="0" viewBox="0 0 256 96.011" width="256" height="96.011">
  <path d="m136.072 45.614-13.026-16.187h-.086v16.187h-8.328V10.507h8.328v14.265h.171l12.557-14.265h10.549l-15.12 16.186 16.017 18.963h-11.062m37.584-.042L159.52 22.636h-.129l.214 22.978h-8.243V10.507h9.652l14.094 22.892h.171l-.213-22.892h8.243v35.107zm33.698.94c-10.976 0-19.091-7.56-19.091-18.665 0-11.275 8.115-18.365 19.091-18.365 11.02 0 19.134 7.09 19.134 18.365 0 11.105-8.115 18.664-19.134 18.664zm0-29.342c-5.937 0-10.037 4.57-10.037 10.72 0 6.364 4.1 10.89 10.037 10.89 5.894 0 10.08-4.569 10.08-10.89 0-6.193-4.143-10.72-10.08-10.72zm38.737.512v27.89h-8.499v-27.89h-9.908v-7.26H256v7.26zm-118.39 67.78h-13.112V50.397h12.685c9.951 0 20.073 4.186 20.073 17.468.043 12.343-9.994 17.64-19.646 17.64zm-.598-27.889h-4.228v20.543h4.015c6.064 0 11.66-2.477 11.66-10.335 0-7.859-5.596-10.208-11.447-10.208zm46.553 27.89L159.52 62.526h-.129l.214 22.977h-8.243V50.397h9.652l14.094 22.892h.171l-.213-22.892h8.243v35.107zm34.766-26.01c-1.452-1.837-4.058-3.033-6.236-3.033s-4.911.726-4.911 3.502c0 2.35 2.092 3.075 5.424 4.1 4.74 1.538 10.89 3.588 10.89 10.55 0 8.071-6.491 11.702-13.453 11.702-4.997 0-10.08-1.837-13.154-5.04l5.552-5.638c1.666 2.136 4.826 3.716 7.602 3.716 2.563 0 4.869-.982 4.869-3.801 0-2.69-2.69-3.502-7.303-4.997-4.485-1.452-8.97-3.716-8.97-10.08 0-7.773 7.048-11.018 13.582-11.018 3.972 0 8.414 1.494 11.49 4.313zM78.713 11.574c.556 2.946.897 5.979.897 9.096a47.282 47.282 0 0 1-7.645 25.797l-.512.769c-.171.256-.342.512-.513.726-1.836 2.648-3.972 5.082-6.32 7.303-.214.214-.428.384-.641.598-.214.213-.427.384-.641.598a47.575 47.575 0 0 1-16.059 9.31c-1.495-2.69-2.648-5.594-3.46-8.67a38.198 38.198 0 0 0 13.753-7.943c.214-.171.427-.385.598-.556.214-.17.427-.384.598-.598a38.314 38.314 0 0 0 5.809-7.303c.17-.256.299-.512.427-.726a6.91 6.91 0 0 0 .427-.769c3.032-5.51 4.783-11.788 4.783-18.493 0-2.733-.299-5.381-.854-7.944-.043-.299-.128-.555-.17-.811-.086-.257-.129-.556-.214-.812-.257.086-.556.128-.812.214-.256.085-.555.17-.811.256-8.798 2.862-16.187 8.84-20.928 16.614a50.69 50.69 0 0 0-9.567-1.965c5.638-10.89 15.29-19.347 27.035-23.319C58.725 1.025 53.088 0 47.28 0 23.533-.043 3.76 17.297 0 40.061c.214-.17.427-.384.64-.555 8.372-7.346 19.348-11.83 31.35-11.83.81 0 1.58 0 2.348.042.3 0 .598.043.897.043.3.043.598.043.897.086 3.289.299 6.45.896 9.482 1.836.256.085.555.17.811.256s.555.171.812.257a47.575 47.575 0 0 1 16.058 9.31 36.825 36.825 0 0 1-5.765 7.304 38.02 38.02 0 0 0-13.71-7.944 18.613 18.613 0 0 0-.812-.257c-.256-.085-.555-.17-.811-.256a38.817 38.817 0 0 0-9.225-1.367h-1.795A37.813 37.813 0 0 0 6.365 46.81c-.214.17-.427.384-.598.555-.214.17-.427.384-.598.598l.598.598c.213.213.427.384.64.555 6.62 5.936 15.29 9.61 24.815 9.823a49.273 49.273 0 0 0 3.117 9.268c-.768.043-1.58.043-2.349.043-12.001 0-22.977-4.485-31.348-11.83-.214-.172-.427-.385-.641-.556C3.758 78.628 23.533 96.01 47.365 96.01c5.85 0 11.446-1.025 16.614-2.947-11.745-4.015-21.398-12.471-27.035-23.362-.129-.256-.257-.555-.385-.812-.128-.256-.256-.555-.384-.811a47.269 47.269 0 0 1-3.203-9.14c-.086-.256-.128-.555-.171-.854-.086-.256-.128-.555-.171-.854a47.363 47.363 0 0 1-.897-9.268c0-3.16.299-6.279.897-9.268a36.4 36.4 0 0 1 9.225 1.324c-.555 2.562-.811 5.21-.811 7.944 0 2.733.299 5.381.811 7.944.043.256.128.555.171.811.085.256.128.555.214.812a40.617 40.617 0 0 0 3.416 8.712c.128.257.257.513.427.77.129.255.3.512.428.768 4.74 7.773 12.129 13.752 20.927 16.614.256.085.555.17.812.256.256.085.555.17.811.214.085-.257.128-.556.214-.812.085-.256.128-.555.17-.854.556-2.563.855-5.21.855-7.944a38.068 38.068 0 0 0-4.784-18.493c2.392-2.221 4.57-4.655 6.45-7.303a47.318 47.318 0 0 1 7.644 25.839c0 3.117-.299 6.15-.897 9.054C88.921 75.553 95.37 62.527 95.37 47.963c0-14.521-6.45-27.548-16.657-36.389z" style="fill:#003893;stroke-width:.42709377"/>
</svg>
