<svg xmlns:svg="http://www.w3.org/2000/svg" xmlns="http://www.w3.org/2000/svg" version="1.1" x="0px" y="0px" viewBox="0 0 120 59.999998" xml:space="preserve">
  <g transform="translate(-0.00494775)">
    <g transform="matrix(2.2142899,0,0,2.2142899,-67.779535,-40.692276)">
      <path style="fill:#7272e9;fill-opacity:1;stroke:none;stroke-width:1px;stroke-linecap:butt;stroke-linejoin:miter;stroke-opacity:1" d="m 34.716865,27.997614 2.097581,1.7 4.6,-1.5 4.4,0.7 0.2,0.8 -0.3,5.5 -4.1,1.8 -0.7,-0.3 -3.8,-1.6 -0.3,-5.4 -2.1,-0.9 -0.335824,8.493846 6.535824,2.406154 h 1 l 6.577802,-2.406154 0.04198,-8.535824 -1.219779,-0.758022 -5.9,-2.5 z"/>
      <path class="st0" d="m 49.214446,27.997614 v 0 c 0,0 0,-0.1 0,-0.1 0,0 0,0 0,0 0,0 0,-0.1 0,-0.1 0,0 0,0 0,0 0,0 0,0 -0.1,-0.1 0,0 0,0 0,0 0,0 0,0 0,0 0,0 0,0 0,0 0,0 0,0 0,0 l -7.5,-3.3 c -0.1,-0.1 -0.3,-0.1 -0.4,0 l -7.3,3.1 c 0,0 0,0 0,0 0,0 0,0 0,0 0,0 0,0 0,0 0,0 0,0 0,0 0,0 0,0 -0.1,0.1 0,0 0,0 0,0 0,0 0,0.1 0,0.1 0,0 0,0 0,0 0,0 0,0.1 0,0.1 v 0 0 9.3 c 0,0.2 0.1,0.4 0.3,0.5 l 7.2,3.1 c 0,0 0,0 0,0 0,0 0,0 0.1,0 0.1,0 0,0 0.1,0 0,0 0,0 0.1,0 0.1,0 0,0 0.1,0 0,0 0,0 0.1,0 0,0 0,0 0.1,0 0,0 0,0 0,0 l 7.2,-3.1 c 0.2,-0.1 0.3,-0.3 0.3,-0.5 z m -7.8,-2.5 5.9,2.5 -1.8,0.8 -3.9,-1.7 c -0.1,-0.1 -0.3,-0.1 -0.4,0 l -3.9,1.7 h -0.1 l -1.7,-0.8 z m -0.5,14.2 -6.2,-2.7 v -8.2 l 2.1,0.9 v 4.9 c 0,0.2 0.1,0.4 0.3,0.5 l 3.8,1.6 z m 0.5,-3.9 -3.6,-1.5 v -4.6 l 3.6,-1.5 3.6,1.6 v 4.6 z m 6.7,1.2 -6.2,2.7 v -2.9 l 3.8,-1.6 c 0.2,-0.1 0.3,-0.3 0.3,-0.5 v -5 l 2.1,-0.9 z" style="fill:#4949a3;fill-opacity:1"/>
      <path class="st0" d="m 45.814446,28.897614 -4.2,-1.8 c 0,0 0,0 0,0 0,0 0,0 -0.1,0 0,0 0,0 -0.1,0 -0.1,0 0,0 -0.1,0 0,0 0,0 -0.1,0 0,0 0,0 -0.1,0 0,0 0,0 -0.1,0 0,0 0,0 0,0 l -3.9,1.8 c -0.2,0.1 -0.4,0.3 -0.4,0.5 v 5.3 c 0,0.2 0.1,0.4 0.4,0.5 v 0 l 4.1,1.8 c 0.1,0.1 0.3,0.1 0.4,0 l 4.1,-1.8 v 0 c 0.2,-0.1 0.4,-0.3 0.4,-0.5 v -5.3 c 0,-0.2 -0.2,-0.4 -0.3,-0.5 z m -8,0.8 3.1,-1.3 v 4.2 l -3.1,1.3 z m 3.6,6.1 -2.8,-1.2 2.8,-1.1 v 0 l 2.8,1.2 z m 3.6,-1.9 -3.1,-1.3 v -4.2 l 3.1,1.3 z" style="fill:#4949a3;fill-opacity:1"/>
    </g>
    <g transform="matrix(1.076896,0,0,1.076896,-8.682671,-3.7558547)">
      <g style="fill:#7272e9;fill-opacity:1" transform="translate(33.414446,21.997614)">
        <path class="st0" d="m 79.5,4.2 c 0,4.2 0,8.3 0,12.5 0,0 0,0.1 0,0.1 -0.1,0.4 -0.2,0.7 -0.5,1 -0.3,0.3 -0.7,0.4 -1.1,0.4 -2.5,0 -5,0 -7.6,0 0,0 0,0 -0.1,0 -0.3,0 -0.7,-0.1 -0.9,-0.3 -0.4,-0.3 -0.6,-0.7 -0.6,-1.3 0,-3.1 0,-6.2 0,-9.3 0,-1 0,-2 0,-3 0,-0.3 0.1,-0.6 0.2,-0.8 0.3,-0.5 0.8,-0.7 1.4,-0.7 2.5,0 5,0 7.5,0 0.1,0 0.2,0 0.3,0 0.6,0.1 1.2,0.7 1.3,1.3 0.1,0 0.1,0 0.1,0.1 z m -9.6,6.2 c 0,2 0,4.1 0,6.1 0,0 0,0.1 0,0.1 0,0.2 0.2,0.4 0.5,0.4 0.4,0 0.7,0 1.1,0 2.2,0 4.3,0 6.5,0 0.1,0 0.2,0 0.3,-0.1 0.2,-0.1 0.2,-0.3 0.2,-0.5 0,-1.3 0,-2.6 0,-4 0,-2.8 0,-5.5 0,-8.3 0,-0.1 0,-0.1 0,-0.2 C 78.4,3.7 78.2,3.5 78,3.5 c -2.4,0 -4.7,0 -7.1,0 -0.2,0 -0.3,0 -0.5,0 -0.1,0 -0.1,0 -0.2,0 -0.2,0.1 -0.3,0.3 -0.3,0.5 0,2.3 0,4.4 0,6.4 z" style="fill:#7272e9;fill-opacity:1"/>
        <path class="st0" d="M77.7 9.9c-2.3 0-4.7 0-7 0 0 0 0 0 0 0 0-1 0-2.1 0-3.1 0-.4.1-.8.3-1.1.2-.5.6-.7 1-.8.3-.1.7 0 1 .1.5.2.8.5.9 1 0 0 0 .1 0 .1 0 0 0 0 0 0 0 0 0 0 0 0 0-.2.1-.3.1-.5.2-.5.6-.8 1.2-.9.4-.1.8-.1 1.1.1.5.2.8.5.9.9.1.3.2.5.2.8 0 .2 0 .4 0 .6.3.9.3 1.8.3 2.8 0-.1 0-.1 0 0zM76.6 8.2c0 0 0 0 0 0 0-.3 0-.5 0-.8 0-.1 0-.2 0-.3C76.5 6.8 76.4 6.6 76.1 6.5 75.9 6.4 75.7 6.4 75.5 6.5 75.2 6.5 75 6.7 74.9 7c-.1.2-.1.3-.1.5 0 .3 0 .5 0 .8 0 0 0 0 0 0 .6-.1 1.2-.1 1.8-.1zm-4.9 0c.6 0 1.1 0 1.7 0 0 0 0 0 0 0 0-.2 0-.4 0-.6 0-.1 0-.2 0-.3C73.4 7 73.2 6.8 73 6.7 72.8 6.6 72.7 6.6 72.5 6.6 72.2 6.6 72 6.8 71.9 7c-.1.2-.1.3-.1.5-.1.2-.1.4-.1.7 0 0 0 0 0 0zM77.7 16.1c-2.3 0-4.7 0-7 0 0 0 0 0 0 0 0-.9 0-1.8 0-2.8 0-.4.1-.8.3-1.2.2-.5.6-.8 1-1 .3-.2.7-.3 1-.3.5-.1 1-.1 1.5-.1.5 0 1 .1 1.4.2.3.1.6.2.9.5.4.3.7.7.8 1.2.1.3.1.5.1.8 0 .8 0 1.7 0 2.7 0-.1 0-.1 0 0zm-5.9-1.7c0 0 0 0 0 0 1.6 0 3.2 0 4.7 0 0 0 0 0 0 0 0 0 0 0 0 0 0-.3 0-.5 0-.8 0-.3-.1-.5-.4-.7-.2-.2-.4-.3-.7-.4-.3-.1-.7-.1-1-.2-.4 0-.9 0-1.3.1-.3 0-.5.1-.8.3-.4.2-.6.6-.6 1 .1.2.1.4.1.7 0 0 0 0 0 0z" style="fill:#7272e9;fill-opacity:1"/>
      </g>
      <path class="st0" d="M71.214446 36.897614c0 .2-.1.3-.2.4-.1.1-.3.2-.4.2h-1.8c-.2 0-.3-.1-.4-.2-.1-.1-.2-.3-.2-.4v-12.3h-1.7c-.9 1.2-1.8 2.5-2.6 3.7v8c0 .1 0 .1 0 .1.6.8 1.2 1.7 1.8 2.5.3.5.7.9 1 1.4.4.1.8.1 1.2.1h.7c1.3 0 2.3-.4 3-1.1v.8h3.9v-15.5h-4.3zM100.71445 33.997614v-5.1c0-2.8-1.300004-4.2-4.000004-4.2h-3.6c-2.6 0-4 1.4-4 4.2v7.4c0 2.8 1.3 4.2 4 4.2h3.6c2.6 0 4.000004-1.4 4.000004-4.2v-1.2h-4.300004v1.7c0 .2-.1.3-.2.4-.1.1-.3.2-.4.2h-1.8c-.2 0-.3-.1-.4-.2-.1 0-.2-.2-.2-.3v-2.9zm-7.300004-5.7c0-.2.1-.3.2-.4.1-.1.3-.2.4-.2h1.8c.2 0 .3.1.4.2.1.1.2.2.2.4v2.9h-3z" style="fill:#4949a3;fill-opacity:1"/>
      <polygon class="st0" points="29.3,7.6 29.4,7.6" style="fill:#000000" transform="translate(33.414446,21.997614)"/>
      <path class="st0" d="m 62.014446,29.597614 c 0.2,-0.2 0.4,-0.4 0.5,-0.6 0.9,-1.3 1.8,-2.5 2.7,-3.8 0.1,-0.2 0.2,-0.4 0.4,-0.6 -0.1,0 -0.2,0 -0.3,0 -1.4,0 -2.9,0 -4.3,0 -0.6,0 -1,0.1 -1.4,0.7 -1.3,2 -2.7,3.9 -4.1,5.9 -0.6,0.9 -0.6,1.6 0,2.5 0.1,0.2 0.3,0.4 0.4,0.6 0.9,1.2 1.8,2.5 2.6,3.7 0.5,0.7 0.9,1.3 1.3,2 0.1,0.2 0.2,0.3 0.5,0.3 1.6,0 3.3,0 4.9,0 0.1,0 0.2,0 0.3,0 -0.1,-0.1 -0.1,-0.2 -0.1,-0.2 -0.4,-0.5 -0.7,-1 -1.1,-1.5 -1.1,-1.6 -2.3,-3.3 -3.4,-4.9 -0.4,-0.5 -0.5,-1.1 -0.2,-1.7 0.2,-0.6 0.4,-1 0.7,-1.4 0.2,-0.3 0.4,-0.7 0.6,-1 z m -11,2.8 c 0,0 0,0 0,0 0,2.5 0,5 0,7.4 0,0.3 0.1,0.4 0.3,0.4 1.3,0 2.5,0 3.8,0 0.3,0 0.3,-0.1 0.3,-0.3 0,-1.4 0,-2.8 0,-4.1 0,-0.2 -0.1,-0.4 -0.2,-0.5 -0.2,-0.4 -0.5,-0.7 -0.8,-1.1 -0.7,-1 -0.8,-2.1 -0.1,-3.2 0.3,-0.4 0.6,-0.9 0.9,-1.3 0.1,-0.2 0.2,-0.4 0.2,-0.7 0,-1.3 0,-2.7 0,-4 0,-0.3 -0.1,-0.3 -0.3,-0.3 -1.3,0 -2.5,0 -3.8,0 -0.3,0 -0.3,0.1 -0.3,0.3 0,2.5 0,5 0,7.4 z" style="fill:#7272e9;fill-opacity:1"/>
      <path class="st0" d="m 84.214446,27.997614 h -0.7 c -1.1,0 -1.9,0.3 -2.6,0.8 v -4.1 h -4.3 v 15.5 h 3.6 v -1.2 c 0.7,1 1.8,1.5 3.3,1.5 h 0.7 c 2.6,0 4,-1.4 4,-4.2 v -4.1 c 0,-2.8 -1.4,-4.2 -4,-4.2 z m -0.7,8.9 c 0,0.2 -0.1,0.3 -0.2,0.4 -0.1,0.1 -0.3,0.2 -0.4,0.2 h -1.8 c -0.2,0 -0.3,-0.1 -0.4,-0.2 -0.1,-0.1 -0.2,-0.3 -0.2,-0.4 v -5.2 c 0,-0.2 0.1,-0.3 0.2,-0.4 0.1,-0.1 0.3,-0.2 0.4,-0.2 h 1.8 c 0.2,0 0.3,0.1 0.4,0.2 0.1,0.1 0.2,0.3 0.2,0.4 z" style="fill:#4949a3;fill-opacity:1"/>
    </g>
  </g>
</svg>
