<svg xmlns:svg="http://www.w3.org/2000/svg" xmlns="http://www.w3.org/2000/svg" version="1.1" x="0px" y="0px" viewBox="0 0 120 60" xml:space="preserve">
  <g transform="translate(-0.6907795)">
    <path class="st1" d="M43.462943 34.103222h-3.189614c-.01603-.609072-.01603-1.266228-.01603-1.923385v-4.552012c0-.641128.04809-1.282256.06411-1.923385l1.394454-.160282V24.90303h-4.664209v.641128l1.314313.144254c.01603.657157.03206 1.298285.03206 1.939413v4.535984c0 .641128-.01603 1.298285-.03206 1.939413l-1.314313.144254v.72127h7.725597l.160282-2.949191h-1.07389zM51.781584 28.236897C51.509105 27.964418 51.18854 27.756051 50.83592 27.627825 50.451243 27.483571 50.034509 27.40343 49.601748 27.40343c-.496875 0-.977721.09617-1.426511.288508-.432762.192339-.833467.464818-1.170059.801411-.336593.35262-.609072.785382-.785383 1.2502-.192338.512903-.288508 1.041834-.288508 1.586793 0 .544959.08014 1.089918.256452 1.602821.144254.44879.400705.865523.721269 1.202116.304536.336592.689213.593043 1.105947.753325.464818.176311.961692.27248 1.458567.256452.673185.01603 1.330341-.160282 1.907357-.496875.528931-.336592.929636-.833467 1.138003-1.410482l-.432762-.27248c-.224395.320564-.512903.593044-.849495.817439-.352621.208367-.753326.320564-1.170059.304536-.625101.01603-1.234173-.240423-1.666934-.705241-.432762-.464818-.657157-1.121975-.673185-2.099696h4.776407c.03206-.128225.06411-.240423.08014-.368649.01603-.144253.03206-.288507.03206-.432761.01603-.432762-.06411-.865524-.208367-1.266229-.128225-.368649-.35262-.689213-.6251-.977721m-.977721 2.163809c-.128225.160282-.368649.272479-.737297.272479h-2.292034c.03206-.400705.112197-.817438.240423-1.202115.09617-.288508.256451-.54496.44879-.785383.160282-.17631.35262-.336592.577015-.432761.192339-.08014.384677-.128226.593044-.128226.368649 0 .721269.160282.961693.44879.272479.320564.400705.737297.384677 1.154031.01603.240423-.04809.480846-.176311.673185M58.689743 27.996474C58.17684 27.595769 57.503655 27.40343 56.686216 27.40343c-.400705 0-.80141.04809-1.170059.176311-.336592.112197-.641128.272479-.913608.496874-.256451.208367-.464818.480847-.593044.785383-.320564.737297-.272479 1.586792.112198 2.292034.208366.35262.512902.641128.881551.849495-.288507.192338-.544959.44879-.769354.721269-.17631.240423-.272479.528931-.272479.833467 0 .240423.06411.480846.192338.689213.144254.240423.368649.432762.6251.544959-.400705.176311-.769354.44879-1.07389.769354-.208366.240423-.336592.544959-.336592.865524 0 .480846.256451.881551.753326 1.186087.496874.304536 1.298285.44879 2.388203.44879.609072.01603 1.218144-.06411 1.811188-.208367.464818-.128225.89758-.320564 1.282257-.593043.320564-.224395.577015-.512903.769354-.849496.160282-.304536.256451-.657156.256451-.993749.01603-.52893-.208367-1.025805-.641128-1.330341-.416734-.320564-1.105947-.464818-2.067639-.464818h-1.61885c-.272479.01603-.544959-.04809-.769354-.192339-.160282-.128225-.256451-.320564-.240423-.512902 0-.112198.01603-.240423.06411-.336593.04809-.112197.112197-.224395.17631-.320564.176311.04809.352621.09617.544959.112198.192339.03206.384677.03206.593044.03206.400705 0 .785382-.04809 1.170059-.17631.336593-.112198.641129-.27248.913608-.496875.256452-.208367.464819-.480846.609072-.785382.144254-.336593.224395-.689213.208367-1.057862.01603-.44879-.112197-.89758-.336592-1.298285h1.490623v-1.009777l-.240423-.160282zm-3.013304 7.052413c.144254.01603.304536.03206.44879.03206h1.682962c.224395 0 .44879.01603.657157.06411.144254.03206.288507.112197.416733.208367.09617.08014.17631.17631.224395.288507.04809.09617.06411.208367.06411.320565 0 .368648-.208367.689213-.641128.961692-.416734.27248-1.041834.400705-1.843245.400705-.44879.01603-.897579-.08014-1.298285-.288507-.336592-.192339-.496874-.528931-.496874-1.009778 0-.192338.03206-.368648.09617-.544959.08014-.17631.17631-.336592.288508-.496874.144254.03206.272479.04808.400705.06411m2.003526-3.814714c-.224395.336592-.609072.528931-1.009777.496874-.384677.01603-.769354-.17631-.977721-.496874-.224395-.336593-.336592-.785383-.336592-1.34637-.01603-.464818.09617-.945664.352621-1.34637.416733-.544959 1.202115-.657156 1.747074-.256451.09617.06411.176311.160282.256452.256451.256451.400706.368649.865524.35262 1.330342-.03206.577015-.144253 1.041833-.384677 1.362398M68.242556 33.894855c-.06411.08014-.144254.144254-.224395.208367-.08014.06411-.160282.08014-.256452.08014-.288507 0-.400705-.240423-.400705-.721269v-3.205642c0-1.057862-.240423-1.79516-.641128-2.227921-.400705-.432762-1.057862-.641129-1.923385-.641129-.865524 0-1.602821.192339-2.163809.560988-.512902.320564-.865523.849495-.977721 1.442538.01603.192339.112198.384678.256452.512903.144254.128226.35262.208367.544959.192339.512903 0 .817439-.320564.945664-.961693l.208367-.977721c.112198-.01603.208367-.03206.320564-.04808.112198-.01603.208367-.01603.304536-.01603.496875 0 .865524.128226 1.07389.400706.208367.272479.320565.737297.320565 1.42651v.416734c-.240424.08014-.560988.160282-.833467.240423-.27248.08014-.512903.144254-.72127.224395-.464818.160282-.913608.352621-1.346369.577016-.304536.160282-.577016.368648-.817439.609071-.17631.176311-.320564.400706-.400705.625101-.06411.208366-.112198.432761-.112198.657156 0 .609072.192339 1.07389.593044 1.394455.416733.320564.929636.496874 1.458567.480846.208367 0 .432762-.01603.641128-.06411.192339-.04809.368649-.112197.54496-.208367.17631-.09617.35262-.208366.496874-.336592.160282-.144254.336592-.304536.528931-.480846.08014.304536.27248.577015.528931.753325.304536.192339.657157.288508 1.025805.27248.288508 0 .577016-.06411.833467-.208367.27248-.192338.496875-.44879.641129-.769354l-.352621-.304536zm-2.612598-.432761c-.224395.192338-.496875.368649-.769355.480846-.192338.08014-.384677.128226-.593043.128226-.336593.01603-.657157-.112198-.881552-.336593-.09617-.09617-.17631-.208366-.224395-.320564-.06411-.160282-.09617-.320564-.08014-.480846 0-.288508.09617-.577016.256452-.817439.17631-.272479.52893-.512903 1.089918-.721269.144254-.04809.336592-.112198.544959-.176311.208367-.06411.432762-.144253.673185-.208366zM72.121383 32.933163c0-.400705.01603-.801411.01603-1.202116v-5.561789l.04808-2.163808-.17631-.128226-2.692739.689213v.577016l1.218144.160282v6.427312c0 .400705-.06411.785382-.06411 1.186088 0 .400705.01603.80141 0 1.202115l-1.041834.192339v.6251h3.798686v-.6251L72.169467 34.11925c0-.384677-.04808-.785382-.04808-1.186087M80.664419 30.432762c-.256452-.272479-.54496-.512903-.865524-.705241-.416733-.256451-.865523-.44879-1.330341-.609072l-.705241-.256451c-.464819-.144254-.881552-.384677-1.266229-.689213-.304536-.27248-.44879-.673185-.432762-1.073891 0-.240423.04809-.480846.160282-.705241.09617-.208367.240424-.384677.416734-.512903.17631-.144253.384677-.256451.609072-.320564.240423-.08014.496874-.112197.769354-.112197.416733 0 .817439.09617 1.202116.272479l.320564 1.79516h1.105946l.09617-2.035583c-.368649-.256451-.785383-.464818-1.218144-.593044-.480847-.144253-.977721-.224394-1.490624-.208366-.496874 0-.993749.06411-1.458567.208366-.400705.128226-.785382.320565-1.121975.593044-.641128.512903-.993749 1.282257-.977721 2.099696-.01603.705241.240424 1.394454.737298 1.907357.577016.560987 1.266229.977721 2.019555 1.2502l.673184.240423c.27248.09617.528931.208367.785383.336593.192338.09617.368649.224395.528931.368649.144254.128225.240423.272479.320564.448789.06411.176311.09617.368649.09617.560988.03206.496874-.192338.977721-.593044 1.282257-.384677.304536-.929636.448789-1.602821.448789-.288507 0-.560987-.03206-.833467-.09617-.256451-.06411-.496874-.17631-.721269-.288508L75.583477 32.211892H74.47753l-.112197 2.147781c.432762.256451.913608.448789 1.410482.577015.54496.144254 1.121975.224395 1.698991.224395.528931 0 1.057862-.06411 1.554736-.224395.432762-.128226.849495-.336592 1.202116-.6251.320564-.256451.593044-.593044.785382-.961693.192339-.384677.288508-.80141.288508-1.234172 0-.304536-.04809-.609072-.144254-.89758-.128226-.288507-.288508-.560987-.496874-.785382M89.415821 32.917135v-2.772881c0-.961692-.192338-1.666933-.560987-2.099695-.368649-.432762-.881552-.641129-1.586793-.641129-.464818 0-.929636.112198-1.330341.336593-.464818.256451-.865524.609072-1.186088 1.025805V24.00545l-.224395-.128226-2.708767.689213v.577016l1.218144.160282v7.581343c0 .432762.03206.849495.01603 1.234172l-1.009777.192339v.6251h3.67046v-.6251L84.751612 34.11925c-.01603-.368648-.01603-.785382-.01603-1.234172v-3.365924c.288508-.288508.593044-.528931.945664-.721269.288508-.160282.609072-.240423.929636-.240423.400706 0 .673185.128225.833467.400705.160282.272479.240424.721269.240424 1.362398v2.580541c0 .432762.03206.849496.01603 1.218144l-.993749.192339v.6251h3.686488v-.6251L89.431849 34.11925c-.01603-.368648-.01603-.769354-.01603-1.202115M94.064002 32.901106v-3.22167-2.115723l-.192338-.160283-2.628627.945665v.560987l1.057862.144254c.01603.304536.01603.593044.03206.881552.01603.272479.01603.6251.01603 1.041833v1.923385c0 .432762.03206.849496.01603 1.234173l-.993749.192338v.6251h3.67046v-.6251l-.9617-.192338c0-.384677-.01603-.785383-.01603-1.234173M101.42095 28.236897c-.27248-.272479-.59304-.480846-.94566-.609072-.38468-.144254-.801414-.224395-1.234176-.224395-.496875 0-.977721.09617-1.426511.288508-.432761.192339-.833467.464818-1.170059.801411-.336593.35262-.609072.785382-.785382 1.2502-.192339.512903-.288508 1.041834-.288508 1.586793 0 .544959.08014 1.089918.256451 1.602821.144254.44879.400705.865523.72127 1.202116.304536.336592.689213.593043 1.105946.753325.464818.176311.961693.27248 1.458567.256452.673185.01603 1.330342-.160282 1.907362-.496875.52893-.336592.92963-.833467 1.138-1.410482l-.44879-.27248c-.2244.320564-.5129.593044-.8495.817439-.35262.208367-.75332.320564-1.170056.304536-.6251.01603-1.234172-.240423-1.666934-.705241-.432762-.464818-.657157-1.121975-.673185-2.099696h4.776405c.0321-.128225.0641-.240423.0801-.368649.016-.144253.0321-.288507.0321-.432761 0-.432762-.0641-.865524-.2244-1.266229-.0962-.368649-.32056-.689213-.59304-.977721m-.97772 2.163809c-.12823.160282-.36865.272479-.737298.272479h-2.292034c.01603-.400705.112197-.817438.240423-1.202115.09617-.288508.256451-.54496.44879-.785383.160282-.17631.352621-.320564.577016-.432761.192338-.08014.384677-.128226.593043-.128226.368649 0 .72127.160282.96169.44879.27248.320564.40071.737297.38468 1.154031.016.256451-.0481.480846-.17631.673185M105.71651 32.933163c0-.400705 0-.801411 0-1.202116v-5.561789l.0481-2.163808-.17631-.128226-2.69274.689213v.577016l1.23417.160282v6.427312c0 .400705-.0481.785382-.0481 1.186088 0 .400705 0 .80141 0 1.202115l-1.04183.192339v.6251h3.79869v-.6251l-1.04184-.192339c-.032-.384677-.0641-.785382-.0801-1.186087M114.2916 34.135279v-7.966021l.0321-2.163808-.16028-.128226-2.67671.689213v.577016l1.23417.160282v3.013303c-.60907-.609072-1.26623-.913608-2.05161-.913608-.44879 0-.89758.09617-1.31432.27248-.4007.192339-.75332.464818-1.04183.80141-.30454.368649-.54496.785383-.68921 1.250201-.17631.528931-.25645 1.07389-.25645 1.618849 0 .544959.0641 1.089918.22439 1.602821.12823.432762.35262.849495.6251 1.202116.25645.320564.59305.577015.96169.753326.38468.17631.80141.256451 1.23418.256451.41673.01603.83346-.08014 1.21814-.27248.36865-.192338.68921-.448789.96169-.753325l.17631.945664 2.6126-.160282v-.593044zm-1.71502-.641129c-.41673.400705-.96169.6251-1.5387.641129-.52893 0-1.04184-.256452-1.34637-.689213-.35262-.464818-.52893-1.17006-.52893-2.147781 0-.432761.0481-.865523.14425-1.266228.0801-.320564.22439-.6251.41673-.89758.30454-.44879.81744-.705241 1.34637-.689213.56099.03206 1.08992.256451 1.49063.6251zM93.118338 25.752525c.512902 0 .929636-.416734.929636-.929636 0-.512903-.416734-.929637-.929636-.929637-.512903 0-.929636.416734-.929636.929637 0 .512902.416733.929636.929636.929636v0" style="fill:#70468c;stroke-width:0.16028211"/>
    <g transform="matrix(1.4141691,0,0,1.4141691,-13.433795,-12.425074)">
      <path style="fill:#472d59;stroke-width:0.16028211" d="m 15.381519,22.787306 v 7.372977 c 0,7.901907 8.527008,10.177913 8.527008,10.177913 0,0 8.527008,-2.276006 8.527008,-10.177913 v -7.372977 c 0,0 -4.648181,-0.44879 -8.527008,-3.125501 -3.878827,2.676711 -8.527008,3.125501 -8.527008,3.125501"/>
      <path style="fill:#70468c;stroke-width:0.16028211" d="m 23.87647,20.68761 c -2.965218,1.891329 -6.202917,2.59657 -7.661484,2.836994 v 6.61965 c 0,2.965219 1.298285,5.433564 3.862799,7.324892 1.154031,0.849495 2.436288,1.506652 3.798685,1.955442" class="st1"/>
      <path style="fill:#ffffff;stroke-width:0.16028211" d="m 27.146225,31.923386 -0.432761,2.131752 H 23.87647 v -0.06411 0 -8.222472 0 l 1.234173,-0.144254 v -0.769354 h -4.856548 v 0.769354 l 1.234172,0.144254 v 0 8.222472 0 l -1.234172,0.144254 v 0.753325 h 7.949992 l 0.160282,-2.965218 z m -4.728322,2.083667 h -0.384677 v -8.270556 h 0.384677 z m 0.913608,0 h -0.384677 v -8.270556 h 0.384677 z"/>
    </g>
  </g>
</svg>
