<svg xmlns="http://www.w3.org/2000/svg" width="120" height="60">
  <path d="M66.723 20.224h-3.836v-1.98a2.88 2.88 0 0 0-2.867-2.867 2.88 2.88 0 0 0-2.867 2.867v1.98h-3.836v-1.98c0-3.715 3.028-6.703 6.703-6.703 3.715 0 6.703 3.028 6.703 6.703z" fill="#ffa400"/>
  <path d="M68.298 20.224H51.743c-.727 0-1.292.565-1.292 1.292V33.75c0 .727.565 1.292 1.292 1.292h16.555c.727 0 1.292-.565 1.292-1.292V21.516c-.04-.727-.606-1.292-1.292-1.292zm-7.47 8.035v1.656a.853.853 0 0 1-.848.848.853.853 0 0 1-.848-.848V28.26c-.525-.283-.848-.848-.848-1.494 0-.93.767-1.696 1.696-1.696s1.696.767 1.696 1.696c.04.646-.323 1.21-.848 1.494z" fill="#003a70"/>
  <path d="M50.047 18.407H46.05a1.17 1.17 0 1 1 0-2.342h3.997a1.17 1.17 0 1 1 0 2.342zm2.826-6.3c-.242 0-.525-.08-.727-.283l-3.15-2.584a1.198 1.198 0 0 1-.162-1.656 1.198 1.198 0 0 1 1.656-.162l3.15 2.584c.485.404.565 1.13.162 1.656-.283.283-.606.444-.93.444zm7.147-2.745a1.17 1.17 0 0 1-1.171-1.171V4.154a1.17 1.17 0 1 1 2.342 0V8.2a1.17 1.17 0 0 1-1.171 1.171zm7.107 2.746a1.13 1.13 0 0 1-.888-.444c-.404-.485-.323-1.252.162-1.656l3.15-2.584c.485-.404 1.252-.323 1.656.162s.323 1.252-.162 1.656l-3.15 2.584a1.13 1.13 0 0 1-.767.283zm6.823 6.3h-4.038a1.17 1.17 0 1 1 0-2.342h4.038a1.17 1.17 0 1 1 0 2.342z" fill="#ffa400"/>
  <path d="M50.916 49.759v-9.884h6.64v2.02h-4.345v1.866h4.1v1.897h-4.1v2.05h4.59v2.05zm12.914 0v-3.795c0-.183-.03-.367-.062-.55a1.613 1.613 0 0 0-.153-.46.737.737 0 0 0-.306-.306c-.122-.091-.306-.122-.52-.122s-.398.03-.55.122-.276.184-.398.337c-.092.153-.184.306-.245.49s-.092.367-.092.55v3.764h-2.295v-6.946h2.203v.949h.03c.093-.153.184-.306.337-.429.123-.153.306-.275.46-.367.183-.092.367-.184.58-.245s.43-.092.674-.092c.46 0 .857.092 1.193.245s.582.398.796.643c.214.275.337.581.428.918s.123.673.123 1.04v4.284H63.83zm8.2-4.713c-.122-.153-.305-.306-.52-.398s-.459-.153-.673-.153a1.423 1.423 0 0 0-.642.153c-.184.092-.368.215-.49.398s-.245.337-.337.551-.122.428-.122.673.03.46.122.673c.062.215.184.398.337.551s.306.306.52.398.429.153.673.153.46-.03.704-.122c.214-.092.398-.215.551-.398l1.255 1.56c-.276.276-.674.49-1.102.643a4.578 4.578 0 0 1-1.438.245 4.86 4.86 0 0 1-1.53-.245 3.24 3.24 0 0 1-1.255-.734c-.336-.306-.612-.704-.826-1.163s-.306-.98-.306-1.56.092-1.072.306-1.53.49-.858.826-1.164.765-.581 1.255-.734c.49-.184.979-.245 1.53-.245.245 0 .49.03.734.061l.704.184.643.306c.183.122.367.245.49.398zm6.671-.336a1.087 1.087 0 0 0-.306-.062h-.275c-.306 0-.55.062-.765.153-.214.123-.367.245-.49.398s-.214.337-.275.52-.092.337-.092.49v3.55h-2.295v-6.947h2.203v1.01h.031c.184-.367.428-.642.765-.857s.704-.336 1.132-.336h.276c.091 0 .153.03.214.03zm5.386 6.09-.459.978c-.183.276-.367.52-.612.735s-.52.336-.826.459a4.052 4.052 0 0 1-1.132.153c-.215 0-.429 0-.674-.03-.214-.031-.428-.062-.58-.123l.244-1.928.367.092c.122.03.245.03.367.03.367 0 .612-.092.765-.245s.306-.397.398-.703l.214-.582-2.907-6.824h2.54l1.56 4.468h.031l1.377-4.468h2.418zm11.445-4.53c0 .49-.062.949-.215 1.408s-.367.826-.642 1.193c-.276.337-.643.612-1.04.826s-.888.306-1.408.306c-.429 0-.826-.091-1.224-.244-.367-.184-.673-.398-.888-.704h-.03v4.13H87.79v-10.28h2.172v.856h.031c.214-.275.52-.52.887-.734s.827-.306 1.347-.306c.49 0 .948.091 1.377.306.398.183.765.459 1.04.795s.49.735.643 1.163c.153.337.245.796.245 1.285zm-2.234 0c0-.214-.03-.428-.092-.642s-.184-.398-.306-.551-.306-.306-.52-.398a1.696 1.696 0 0 0-1.408 0c-.214.092-.367.245-.52.398s-.245.367-.337.581-.122.429-.122.643.03.428.122.642.184.398.337.582c.153.153.306.306.52.398a1.698 1.698 0 0 0 1.408 0c.214-.092.367-.245.52-.398.122-.153.245-.367.306-.582.061-.244.092-.459.092-.673zm5.875-1.744v2.662c0 .337.061.582.184.735s.336.244.673.244c.122 0 .245 0 .367-.03l.306-.092.03 1.683c-.152.061-.366.092-.611.153l-.735.061c-.459 0-.856-.06-1.162-.183s-.582-.276-.766-.49-.336-.49-.397-.796-.123-.642-.123-1.01v-2.937h-1.101v-1.714h1.101v-1.836h2.234v1.836h1.622v1.714zm-79.968 4.896v-9.884h2.387v7.803h3.825v2.081zm14.107-3.397v.551h-5.05c.031.184.093.367.184.52s.215.306.368.398c.153.123.336.214.52.276a1.922 1.922 0 0 0 .581.091c.367 0 .673-.06.918-.214a1.686 1.686 0 0 0 .612-.52l1.591 1.01c-.336.49-.765.826-1.285 1.101a4.414 4.414 0 0 1-1.866.398c-.52 0-1.01-.092-1.47-.245s-.856-.397-1.223-.703c-.337-.306-.612-.704-.826-1.163s-.306-.98-.306-1.56.091-1.072.306-1.53c.183-.46.459-.858.795-1.164s.735-.581 1.194-.734c.459-.184.948-.275 1.468-.275s.98.091 1.408.244c.428.184.796.429 1.102.735.306.336.55.734.703 1.193.184.49.276 1.01.276 1.591zM31.2 45.17c0-.368-.122-.674-.336-.949s-.582-.398-1.04-.398c-.215 0-.429.03-.613.092s-.336.153-.49.275-.244.276-.336.429-.122.336-.153.52H31.2zm5.784-.98v2.663c0 .336.061.581.184.734s.336.245.673.245c.122 0 .245 0 .367-.03l.306-.093.03 1.683c-.152.062-.367.092-.611.153l-.735.062c-.459 0-.857-.062-1.163-.184s-.581-.275-.765-.49-.336-.49-.398-.795-.122-.643-.122-1.01V44.19h-1.132v-1.713h1.101V40.64h2.265v1.836h1.622v1.713zm9.027.337c-.184-.184-.398-.337-.643-.459s-.52-.184-.795-.184c-.214 0-.398.031-.582.123s-.275.214-.275.428c0 .184.092.337.306.429s.52.183.98.275c.275.061.52.122.795.245s.49.245.704.398a1.686 1.686 0 0 1 .52.612c.122.244.183.52.183.856 0 .429-.091.796-.275 1.102s-.398.55-.704.734c-.275.184-.612.306-.948.398a4.264 4.264 0 0 1-1.071.123 4.928 4.928 0 0 1-1.653-.276c-.55-.183-1.01-.459-1.346-.795l1.285-1.347c.214.214.459.398.765.551s.612.214.949.214c.183 0 .367-.03.55-.122s.276-.245.276-.46-.123-.366-.337-.489a5.54 5.54 0 0 0-1.04-.306l-.735-.214c-.244-.092-.459-.214-.642-.367s-.337-.367-.46-.582a1.822 1.822 0 0 1-.183-.826c0-.428.092-.765.276-1.07s.397-.521.673-.705.581-.336.918-.397a3.801 3.801 0 0 1 1.01-.123c.52 0 1.04.092 1.53.245s.918.398 1.254.734zm-5.294-5.171c-.673 0-1.224.49-1.224 1.132 0 .673.46 1.101 1.132 1.101.062 0 .123 0 .153-.03-.122.49-.581.857-1.04.918h-.092v1.07h.123a2.61 2.61 0 0 0 1.468-.672c.52-.49.796-1.224.796-2.081 0-.826-.55-1.438-1.316-1.438z" fill="#003a70"/>
</svg>
