<svg xmlns="http://www.w3.org/2000/svg" viewBox="0 0 120 60" version="1.1" width="120" height="60">
  <g transform="translate(2)">
    <path d="m36.864 43.444-5.658-5.658a.956.956 0 0 0-1.338 0l-5.658 5.658a.918.918 0 0 0 .67 1.582h11.315a.923.923 0 0 0 .669-1.582z" style="fill:#c3c6cc;stroke-width:.62610209"/>
    <path d="m37.052 23.12-1.772-5.26a1.852 1.852 0 0 0-.375-.645L7.309 44.811a.846.846 0 0 0 .59.215h7.839a1.665 1.665 0 0 0 1.181-.484l19.757-19.757a1.586 1.586 0 0 0 .376-1.664z" style="fill:#e1e3e6;stroke-width:.62610209"/>
    <path d="M34.26 16.839 29 15.068a1.586 1.586 0 0 0-1.665.375L7.577 35.2a1.672 1.672 0 0 0-.483 1.182v7.838a.846.846 0 0 0 .215.59l27.596-27.595a1.862 1.862 0 0 0-.645-.376Z" style="fill:#c3c6cc;stroke-width:.62610209"/>
    <path style="fill:#262933;stroke-width:.62610209" d="M109.721 29.576a1.563 1.563 0 0 1-.208.874 1.289 1.289 0 0 1-.552.47 2.257 2.257 0 0 1-.78.187q-.438.032-.874.031h-1.02v-3.103h1.124a8.028 8.028 0 0 1 .811.04 2.28 2.28 0 0 1 .75.199 1.302 1.302 0 0 1 .54.468 1.484 1.484 0 0 1 .21.834zm.375 7.936h2.81l-1.54-2.27q-.396-.584-.801-1.125-.408-.542-.678-.896a1.906 1.906 0 0 0-.5-.541 3.044 3.044 0 0 0 1.989-.969 3.08 3.08 0 0 0 .78-2.177 3.121 3.121 0 0 0-1.165-2.5 3.196 3.196 0 0 0-1.322-.615 8.793 8.793 0 0 0-1.904-.176h-3.789v11.27h2.31v-4.688a1.135 1.135 0 0 1 .646.167 2.462 2.462 0 0 1 .458.396 9.385 9.385 0 0 1 .572.781q.344.51 1.01 1.53zm-19.574 0h7.244v-1.958h-4.891v-3h3.662v-1.853h-3.684v-2.604h4.413l.333-1.854h-7.077zm-9.087 0 4.391-11.27h-2.435l-2.227 5.854a8.243 8.243 0 0 0-.28.813q-.136.458-.24.864-.104.407-.167.677l-.062.271-.084-.271q-.062-.292-.166-.697-.104-.407-.24-.865-.135-.46-.26-.812l-2.06-5.833h-2.58l4.308 11.269zm-18.304 0h7.242v-1.958h-4.89v-3h3.663v-1.853h-3.684v-2.604h4.412l.333-1.854h-7.076zm-6.342 0 .437-1.916h-4.579v-9.353h-2.352v11.27z" transform="translate(-4)"/>
  </g>
</svg>
