<svg xmlns="http://www.w3.org/2000/svg" height="60" viewBox="0 0 112.5 56.25" width="120" version="1.1">
  <g style="fill:#1a171b" transform="matrix(.40785 0 0 .40785 -1.64 3.81)">
    <g transform="matrix(1.54517 0 0 1.54517 -536.717 -207.666)">
      <path d="m410.269 182.212-.664 2.814h-11.498l4.408-18.401h3.346l-3.733 15.587z"/>
      <path d="M415.393 185.026h-3.213l3.347-13.887h3.212zm2.391-15.984c-.479 0-.896-.141-1.249-.425-.354-.283-.531-.708-.531-1.274 0-.655.226-1.195.677-1.62.451-.425.97-.637 1.554-.637.479 0 .898.146 1.262.438.362.292.545.722.545 1.288 0 .656-.23 1.191-.69 1.606-.461.415-.985.624-1.568.624z"/>
      <path d="M428.489 170.821c.813 0 1.516.137 2.106.411.593.275 1.084.65 1.474 1.128.389.478.681 1.04.875 1.687.194.647.291 1.34.291 2.084 0 1.221-.211 2.39-.638 3.505a8.99 8.99 0 0 1-1.817 2.947c-.787.85-1.749 1.527-2.882 2.032-1.133.504-2.407.757-3.823.757-.212 0-.496-.01-.849-.027a10.6 10.6 0 0 1-1.17-.133c-.424-.07-.858-.168-1.301-.292a6.219 6.219 0 0 1-1.221-.478l4.647-19.49 3.362-.531-1.707 7.117a8.645 8.645 0 0 1 1.246-.505 4.607 4.607 0 0 1 1.407-.212zm-3.988 11.843c.813 0 1.562-.173 2.243-.518a5.486 5.486 0 0 0 1.752-1.394 6.53 6.53 0 0 0 1.129-2.005 6.993 6.993 0 0 0 .398-2.35 5.83 5.83 0 0 0-.105-1.128 2.426 2.426 0 0 0-.371-.902 1.854 1.854 0 0 0-.717-.61c-.3-.15-.679-.227-1.138-.227-.389 0-.813.071-1.272.213a3.987 3.987 0 0 0-1.271.664l-1.95 8.125c.159.035.339.066.544.093.203.025.456.039.758.039z"/>
      <path d="M435.147 180.007c0-1.185.19-2.331.571-3.438a9.252 9.252 0 0 1 1.646-2.948 8.18 8.18 0 0 1 2.588-2.058c1.01-.513 2.142-.77 3.399-.77 1.345 0 2.39.345 3.134 1.036.743.689 1.114 1.575 1.114 2.655 0 1.115-.274 2.018-.822 2.708-.549.69-1.261 1.23-2.138 1.62-.876.39-1.868.655-2.975.797-1.106.142-2.227.23-3.358.265a.236.236 0 0 0-.027.107v.265c0 1.61 1.02 2.417 3.055 2.417 1.204 0 2.406-.248 3.609-.744l.268 2.603c-.426.195-1.028.389-1.806.585-.78.194-1.665.292-2.655.292-.991 0-1.843-.143-2.549-.425-.709-.283-1.289-.672-1.74-1.167a4.687 4.687 0 0 1-.995-1.714 6.654 6.654 0 0 1-.319-2.086zm7.728-6.584c-.53 0-1.035.105-1.514.318a4.182 4.182 0 0 0-1.274.876 5.94 5.94 0 0 0-1.567 2.947c2.124-.071 3.668-.328 4.633-.77.965-.443 1.447-1.106 1.447-1.992 0-.354-.128-.672-.386-.956-.254-.282-.702-.423-1.339-.423z"/>
      <path d="M458.673 173.98a7.132 7.132 0 0 0-1.146-.292 8.582 8.582 0 0 0-2.398-.04 5.545 5.545 0 0 0-.853.172l-2.667 11.206h-3.212l3.187-13.25a22.59 22.59 0 0 1 2.416-.65 13.4 13.4 0 0 1 2.813-.279c.213 0 .452.014.719.041.264.025.524.057.783.092.255.036.494.08.716.132.222.054.412.116.57.186z"/>
      <path d="M470.941 179.637a7.085 7.085 0 0 0-.159.956 10.31 10.31 0 0 0-.079 1.248c0 .514.044 1.013.131 1.5.091.487.23.978.427 1.473l-2.869.425a6.87 6.87 0 0 1-.504-1.354c-.442.389-.986.74-1.633 1.049-.647.309-1.377.464-2.191.464-.832 0-1.545-.137-2.138-.412a3.768 3.768 0 0 1-1.446-1.142 4.857 4.857 0 0 1-.823-1.712 8.08 8.08 0 0 1-.265-2.125c0-1.291.23-2.496.69-3.611a8.667 8.667 0 0 1 1.924-2.894 9.051 9.051 0 0 1 2.935-1.925c1.132-.469 2.372-.703 3.718-.703.69 0 1.384.058 2.083.173a8.517 8.517 0 0 1 2.111.65zm-1.747-6.002a5.628 5.628 0 0 0-1.143-.106c-.797 0-1.532.173-2.207.518a5.631 5.631 0 0 0-1.74 1.38 6.325 6.325 0 0 0-1.128 1.979 6.855 6.855 0 0 0-.399 2.336c0 .408.034.789.107 1.142.07.354.188.664.356.929.168.265.395.478.678.637.282.159.646.24 1.088.24.567 0 1.066-.121 1.502-.359.433-.24.837-.562 1.208-.969.017-.461.057-.894.12-1.301.062-.407.146-.814.251-1.221z"/>
      <path d="M483.023 166.439c2.213 0 3.906.435 5.084 1.301 1.176.868 1.766 2.107 1.766 3.718 0 1.274-.244 2.359-.73 3.253a6.054 6.054 0 0 1-2.021 2.19c-.858.566-1.886.978-3.082 1.234-1.196.257-2.512.386-3.945.386h-1.437l-1.553 6.505h-3.349l4.327-18.135c.85-.177 1.7-.296 2.549-.359.85-.061 1.647-.093 2.391-.093zm-.319 2.815a15.93 15.93 0 0 0-1.858.105l-1.487 6.346h1.349c.741 0 1.454-.062 2.143-.185a5.905 5.905 0 0 0 1.826-.625 3.446 3.446 0 0 0 1.271-1.194c.317-.505.476-1.146.476-1.925 0-.902-.332-1.549-.995-1.938-.667-.389-1.575-.584-2.725-.584z"/>
      <path d="M501.822 179.637a7.212 7.212 0 0 0-.16.956c-.052.443-.079.858-.079 1.248 0 .514.045 1.013.132 1.5.09.487.23.978.427 1.473l-2.869.425a6.936 6.936 0 0 1-.505-1.354c-.44.389-.985.74-1.632 1.049-.647.309-1.377.464-2.191.464-.832 0-1.545-.137-2.137-.412a3.771 3.771 0 0 1-1.447-1.142 4.857 4.857 0 0 1-.823-1.712 8.037 8.037 0 0 1-.266-2.125c0-1.291.231-2.496.691-3.611a8.667 8.667 0 0 1 1.924-2.894 9.051 9.051 0 0 1 2.935-1.925c1.132-.469 2.372-.703 3.718-.703.69 0 1.384.058 2.083.173a8.517 8.517 0 0 1 2.111.65zm-1.747-6.002a5.628 5.628 0 0 0-1.143-.106c-.798 0-1.532.173-2.207.518a5.643 5.643 0 0 0-1.74 1.38 6.325 6.325 0 0 0-1.128 1.979 6.855 6.855 0 0 0-.399 2.336c0 .408.033.789.107 1.142.07.354.188.664.356.929.168.265.395.478.679.637.281.159.646.24 1.087.24.567 0 1.066-.121 1.502-.359.433-.24.837-.562 1.208-.969.017-.461.057-.894.12-1.301.062-.407.146-.814.25-1.221z"/>
      <path d="M518.073 171.139a94.056 94.056 0 0 1-1.171 3.146 50.175 50.175 0 0 1-1.425 3.28 60.694 60.694 0 0 1-1.691 3.279 42.28 42.28 0 0 1-1.941 3.173 38.874 38.874 0 0 1-1.596 2.244 12.22 12.22 0 0 1-1.794 1.898 8.48 8.48 0 0 1-2.139 1.328c-.781.336-1.668.505-2.658.505a5.435 5.435 0 0 1-1.478-.186 5.865 5.865 0 0 1-1.104-.425l1.036-2.576c.249.141.528.256.837.346.31.088.65.132 1.022.132.833 0 1.563-.217 2.192-.65.628-.434 1.198-1.023 1.712-1.766a58.433 58.433 0 0 1-1.435-6.399 61.738 61.738 0 0 1-.772-7.329h3.242c.018.743.057 1.566.12 2.47.063.902.143 1.828.243 2.774.098.948.218 1.881.362 2.802.143.919.303 1.77.481 2.549a29.119 29.119 0 0 0 1.491-2.683c.462-.938.888-1.872 1.279-2.801.39-.929.732-1.833 1.025-2.708.292-.877.545-1.677.759-2.403z"/>
    </g>
    <g transform="translate(-378.157 -140.795) scale(1.15576)">
      <path d="M354.338 189.396c-2.479 0-4.424-.322-5.837-.969-1.415-.646-2.427-1.526-3.037-2.644-.61-1.116-.906-2.399-.89-3.848.017-1.448.217-2.992.602-4.632l6.649-27.8 8.114-1.257-7.278 30.156a9.477 9.477 0 0 0-.233 1.728c-.019.523.078.986.287 1.387.209.402.566.725 1.072.969.505.245 1.214.402 2.122.471z"/>
      <path d="M383.654 172.067c0 2.548-.418 4.877-1.256 6.989-.838 2.112-1.997 3.936-3.481 5.471-1.483 1.537-3.263 2.731-5.341 3.586-2.075.855-4.337 1.283-6.779 1.283a20.4 20.4 0 0 1-3.56-.314l-2.355 9.476h-7.748l8.69-36.229c1.396-.418 2.992-.793 4.79-1.125 1.797-.332 3.743-.498 5.837-.498 1.955 0 3.64.297 5.053.89 1.413.594 2.574 1.405 3.481 2.435.906 1.029 1.578 2.234 2.015 3.612.438 1.379.654 2.854.654 4.424zm-19.002 10.732c.592.14 1.324.209 2.198.209 1.361 0 2.599-.253 3.717-.759a8.173 8.173 0 0 0 2.852-2.12c.787-.908 1.397-1.998 1.834-3.272.435-1.273.654-2.678.654-4.214 0-1.5-.332-2.775-.994-3.822-.664-1.047-1.817-1.571-3.456-1.571-1.117 0-2.164.104-3.142.314z"/>
    </g>
  </g>
</svg>
