<svg xmlns="http://www.w3.org/2000/svg" version="1.1" x="0" y="0" viewBox="0 0 64 64" width="64" height="64">
  <g transform="matrix(.39024 0 0 .39024 0 14.439)">
    <path class="st10" d="M25.286 90h47.232c14.088 0 24.383-7.972 31.969-18.78 4.515-6.466 9.211-12.224 17.971-12.224h28.538V44.291H111.44c-8.76 0-13.366 5.758-17.972 12.225-7.586 10.807-17.79 18.78-31.969 18.78H25.286Z" style="fill:#2d36fb"/>
    <path class="st10" d="M0 70.157h58.52c14.088 0 24.383-7.972 31.969-18.779 4.515-6.466 9.211-12.224 17.971-12.224H164V20.817h-55.54c-17.248 0-22.396 7.884-29.53 17.096-5.238 6.821-10.837 13.908-20.41 13.908H0Z" style="fill:#2d36fb"/>
    <path class="st10" d="M14.088 46.949h40.73c9.572 0 15.171-7.175 20.409-13.908 7.134-9.212 12.282-17.096 29.53-17.096h31.157V0H96.811C79.56 0 74.414 7.884 67.28 17.096c-5.238 6.821-10.837 13.908-20.41 13.908H14.088Z" style="fill:#2d36fb"/>
  </g>
</svg>
