<svg xmlns="http://www.w3.org/2000/svg" xmlns:sodipodi="http://sodipodi.sourceforge.net/DTD/sodipodi-0.dtd" xmlns:inkscape="http://www.inkscape.org/namespaces/inkscape" version="1.1" id="Layer_1" x="0px" y="0px" viewBox="0 0 120 60" xml:space="preserve" sodipodi:docname="lightstep-ar21.svg" inkscape:version="0.92.4 (5da689c313, 2019-01-14)" height="1em" width="1em">
  <sodipodi:namedview pagecolor="#ffffff" bordercolor="#666666" borderopacity="1" objecttolerance="10" gridtolerance="10" guidetolerance="10" inkscape:pageopacity="0" inkscape:pageshadow="2" inkscape:window-width="1920" inkscape:window-height="1001" id="namedview44" showgrid="false" inkscape:zoom="4.4313725" inkscape:cx="85.343437" inkscape:cy="21.975897" inkscape:window-x="-9" inkscape:window-y="-9" inkscape:window-maximized="1" inkscape:current-layer="Layer_1"/>
  <style type="text/css" id="style2">
    .st1{display:none}.st10{fill:#2D36FB}
  </style>
  <g id="g899" transform="translate(-1.0353982)">
    <g transform="matrix(0.16666667,0,0,0.16666667,15.999999,22.416667)" id="right-side_light_text_1_">
      <path inkscape:connector-curvature="0" id="path23" d="m 184,71.1017 h 36.0992 V 62.9271 H 193.0474 V 19.9881 H 184 Z m 46.0513,-51.1136 v 51.1136 h 9.0474 V 19.9881 Z m 68.6699,44.017 V 42.5356 h -21.8947 v 7.8153 h 13.2092 v 9.522 c -1.5381,1.1678 -3.438,2.0661 -5.5189,2.7848 -2.1714,0.7186 -4.4332,1.078 -6.876,1.078 -2.6237,0 -5.0666,-0.4492 -7.1475,-1.3475 -2.1714,-0.8983 -3.9809,-2.2458 -5.5189,-3.8627 -1.5381,-1.617 -2.7142,-3.5932 -3.5285,-5.839 -0.8142,-2.2458 -1.2666,-4.6712 -1.2666,-7.2763 0,-2.5153 0.4524,-4.8508 1.2666,-7.0068 0.8143,-2.1559 1.9904,-4.1322 3.5285,-5.7492 1.5381,-1.617 3.2571,-2.9644 5.338,-3.8627 1.9904,-0.9881 4.2523,-1.4373 6.6046,-1.4373 1.6285,0 3.0761,0.0898 4.4332,0.3593 1.3571,0.2695 2.6237,0.6288 3.7094,1.078 1.0857,0.4492 2.1714,1.078 3.2571,1.7068 0.9952,0.7186 1.9904,1.4373 2.9856,2.2458 l 5.6999,-6.8271 c -1.3571,-1.078 -2.7142,-2.0661 -4.0714,-2.9644 -1.3571,-0.8085 -2.8952,-1.5271 -4.4332,-2.1559 -1.5381,-0.6288 -3.257,-1.078 -5.0665,-1.3475 C 281.6215,19.0898 279.5406,19 277.2788,19 c -3.8904,0 -7.4189,0.7186 -10.6759,2.1559 -3.2571,1.4373 -6.0618,3.3237 -8.4141,5.7492 -2.3523,2.4254 -4.1618,5.2102 -5.5189,8.4441 -1.2666,3.2339 -1.9904,6.6474 -1.9904,10.2407 0,3.7729 0.6333,7.1864 1.9,10.4203 1.2666,3.2339 3.0761,6.0186 5.4285,8.3542 2.3523,2.3356 5.157,4.222 8.4141,5.5695 3.2571,1.3475 6.9665,1.9763 10.9474,1.9763 2.2619,0 4.4332,-0.1797 6.5142,-0.6288 2.0809,-0.4492 3.9808,-0.9881 5.7903,-1.7068 1.8095,-0.7186 3.438,-1.617 4.9761,-2.5153 1.4473,-0.8983 2.8045,-1.9762 4.0711,-3.0542 z m 45.418,-14.4627 v 21.5593 h 9.0474 V 19.9881 h -9.0474 V 41.278 H 319.6207 V 19.9881 h -9.0474 v 51.1135 h 9.0474 V 49.5424 Z m 44.0609,-21.2 h 16.2853 v -8.3542 h -41.7991 v 8.3542 h 16.2853 V 71.1017 H 388.2 Z"/>
      <path style="fill:#333333" inkscape:connector-curvature="0" id="path25" d="m 423.1231,32.8339 c 0,-1.1678 0.2714,-2.2458 0.8143,-3.3237 0.5428,-0.9881 1.2666,-1.8864 2.1714,-2.6051 0.9952,-0.7186 2.0809,-1.3475 3.438,-1.7966 1.3571,-0.4492 2.8952,-0.6288 4.5237,-0.6288 2.6238,0 5.157,0.4492 7.5999,1.3475 2.4428,0.8983 4.8856,2.2458 7.2379,4.222 l 3.3476,-4.4915 c -2.6238,-2.0661 -5.338,-3.6831 -8.2331,-4.6712 -2.8047,-1.078 -6.1523,-1.5271 -9.8617,-1.5271 -2.4428,0 -4.7047,0.3593 -6.7856,1.078 -2.0809,0.7186 -3.8904,1.7068 -5.338,2.9644 -1.5381,1.2576 -2.7142,2.6949 -3.5285,4.4017 -0.8142,1.7068 -1.2666,3.5932 -1.2666,5.6593 0,2.1559 0.3619,3.9525 0.9952,5.5695 0.7238,1.5271 1.719,2.9644 3.1666,4.1322 1.4476,1.1678 3.2571,2.1559 5.4284,2.9644 2.1714,0.8085 4.7047,1.5271 7.6903,2.1559 2.7142,0.6288 4.8856,1.1678 6.6951,1.7966 1.719,0.6288 3.0761,1.3475 4.0714,2.1559 0.9952,0.8085 1.6285,1.617 2.0809,2.6051 0.3619,0.9881 0.6333,2.0661 0.6333,3.2339 0,2.6051 -1.0857,4.761 -3.1666,6.378 -2.0809,1.617 -4.8856,2.4254 -8.3236,2.4254 -3.619,0 -6.7856,-0.6288 -9.4998,-1.7966 -2.7142,-1.1678 -5.4285,-2.9644 -8.1427,-5.4797 l -3.619,4.222 c 3.0761,2.7848 6.3332,4.8508 9.7712,6.1983 3.438,1.3475 7.1475,1.9763 11.3093,1.9763 2.5333,0 4.8856,-0.3593 7.057,-0.9881 2.1714,-0.7186 3.9809,-1.617 5.5189,-2.9644 1.5381,-1.2576 2.7142,-2.7848 3.619,-4.5814 0.9048,-1.7966 1.3571,-3.7729 1.3571,-6.0186 0,-3.9525 -1.3571,-7.0068 -4.0713,-9.2525 -2.7142,-2.2458 -6.9665,-3.9525 -12.6664,-5.3 -2.8047,-0.539 -5.157,-1.1678 -6.9665,-1.8864 -1.8095,-0.6288 -3.257,-1.3475 -4.2523,-2.1559 -0.9952,-0.8085 -1.719,-1.7068 -2.1714,-2.6949 -0.4525,-1.0781 -0.6334,-2.1561 -0.6334,-3.3239 z m 60.9796,-7.4559 h 17.2805 v -5.3 h -40.442 v 5.3 h 17.2805 v 45.8136 h 5.8808 z m 65.3223,-5.3899 h -37.1848 v 51.1136 h 37.5468 v -5.3 H 518.0306 V 47.9254 h 28.1375 v -5.3 H 518.0306 V 25.1983 h 31.3945 z M 600,36.3373 c 0,-2.5153 -0.4524,-4.8508 -1.3571,-6.8271 -0.9047,-1.9763 -2.1714,-3.6831 -3.8904,-5.1203 -1.719,-1.3475 -3.7094,-2.4254 -6.0618,-3.2339 -2.3523,-0.7186 -4.9761,-1.1678 -7.8713,-1.1678 h -19.2709 v 51.1135 h 5.7903 V 53.0458 h 12.4854 c 2.7142,0 5.338,-0.3593 7.7808,-1.078 2.4428,-0.7186 4.6141,-1.7966 6.4236,-3.1441 1.8094,-1.4373 3.257,-3.1441 4.3427,-5.3 C 599.5476,41.5475 600,39.0322 600,36.3373 Z m -5.8808,0.1796 c 0,1.7068 -0.3619,3.2339 -0.9952,4.6712 -0.6333,1.3475 -1.6285,2.6051 -2.8951,3.5932 -1.2666,0.9881 -2.7142,1.7966 -4.5237,2.3356 -1.719,0.539 -3.7094,0.8085 -5.7903,0.8085 H 567.339 V 25.4678 h 13.0283 c 4.1617,0 7.5093,0.8983 10.0426,2.7847 2.5332,1.7967 3.7093,4.5814 3.7093,8.2644 z"/>
    </g>
    <g transform="matrix(0.22721059,0,0,0.22721059,6.0707954,19.775523)" id="dark_logo">
      <path style="fill:#2d36fb" inkscape:connector-curvature="0" id="path28" d="m 25.2863,90 h 47.2313 c 14.0881,0 24.3833,-7.9724 31.9692,-18.7795 4.5154,-6.4665 9.2115,-12.2244 17.9714,-12.2244 h 28.5375 V 44.2913 h -39.5551 c -8.7599,0 -13.3656,5.7579 -17.9714,12.2244 C 85.8833,67.3228 75.6784,75.2953 61.5,75.2953 H 25.2863 Z" class="st10"/>
      <path style="fill:#2d36fb" inkscape:connector-curvature="0" id="path30" d="m 0,70.1575 h 58.5198 c 14.0881,0 24.3833,-7.9724 31.9692,-18.7795 4.5154,-6.4665 9.2114,-12.2244 17.9714,-12.2244 H 164 V 20.8169 h -55.5396 c -17.2489,0 -22.3965,7.8839 -29.5308,17.0965 -5.2379,6.8209 -10.837,13.9075 -20.4097,13.9075 H 0 Z" class="st10"/>
      <path style="fill:#2d36fb" inkscape:connector-curvature="0" id="path32" d="m 14.0881,46.9488 h 40.7291 c 9.5727,0 15.1718,-7.1752 20.4097,-13.9075 7.1344,-9.2126 12.2819,-17.0965 29.5308,-17.0965 h 31.1564 V 0 H 96.8106 C 79.5617,0 74.4141,7.8839 67.2797,17.0965 62.0418,23.9174 56.4427,31.004 46.87,31.004 H 14.0881 Z" class="st10"/>
    </g>
  </g>
</svg>
