<svg xmlns="http://www.w3.org/2000/svg" xmlns:xlink="http://www.w3.org/1999/xlink" width="120" height="60">
  <defs>
    <linearGradient y2="51.902" x2="25.086" y1="41.9" x1="25.086" id="d" xlink:href="#a">
      <stop offset="0" stop-color="#2beda7"/>
      <stop offset="1" stop-color="#018afd"/>
    </linearGradient>
    <linearGradient y2="54.195" x2="21.115" y1="44.192" x1="21.115" id="e" xlink:href="#a">
      <stop offset="0" stop-color="#2beda7"/>
      <stop offset="1" stop-color="#018afd"/>
    </linearGradient>
    <linearGradient y2="56.695" x2="17.145" y1="46.484" x1="17.145" id="f" xlink:href="#a">
      <stop offset="0" stop-color="#2beda7"/>
      <stop offset="1" stop-color="#018afd"/>
    </linearGradient>
    <linearGradient y2="56.695" x2="8.846" y1="46.484" x1="8.846" id="g" xlink:href="#a">
      <stop offset="0" stop-color="#2beda7"/>
      <stop offset="1" stop-color="#018afd"/>
    </linearGradient>
    <linearGradient y2="54.195" x2="4.875" y1="44.192" x1="4.875" id="h" xlink:href="#a">
      <stop offset="0" stop-color="#2beda7"/>
      <stop offset="1" stop-color="#018afd"/>
    </linearGradient>
    <linearGradient y2="51.902" x2=".905" y1="41.899" x1=".905" id="i" xlink:href="#a">
      <stop offset="0" stop-color="#2beda7"/>
      <stop offset="1" stop-color="#018afd"/>
    </linearGradient>
    <linearGradient y2="146.622" x2="239.749" y1="43.139" x1="239.749" id="b" xlink:href="#a">
      <stop offset="0" stop-color="#2beda7"/>
      <stop offset="1" stop-color="#018afd"/>
    </linearGradient>
    <linearGradient y2="146.628" x2="8.642" y1="43.142" x1="8.642" id="c" xlink:href="#a">
      <stop offset="0" stop-color="#2beda7"/>
      <stop offset="1" stop-color="#018afd"/>
    </linearGradient>
    <linearGradient id="a" gradientUnits="userSpaceOnUse"/>
  </defs>
  <path d="M37.575 34.93v-9.67a.87.87 0 0 1 .857-.857c.458 0 .839.388.839.857v9.082h4.466c.41 0 .768.32.768.728a.775.775 0 0 1-.768.768h-5.253c-.599-.01-.918-.329-.918-.907zm10.249.13v-9.81a.87.87 0 0 1 .857-.857c.457 0 .839.389.839.858v9.808c0 .458-.38.858-.839.858a.857.857 0 0 1-.867-.847zm13.477.409-6.022-8.344v7.936c0 .458-.38.858-.838.858a.857.857 0 0 1-.858-.848V25.53a1.124 1.124 0 0 1 1.126-1.126c.36 0 .698.17.898.457l5.901 8.125V25.25c0-.458.38-.858.839-.858a.857.857 0 0 1 .857.848v9.61a1.067 1.067 0 0 1-1.057 1.057.962.962 0 0 1-.848-.438zm14.434-.369c0 .439-.34.818-.778.818-.219 0-.428-.05-.598-.238l-4.316-4.745-1.086 1.156v2.971a.857.857 0 0 1-.848.848.871.871 0 0 1-.858-.857V25.25c0-.458.39-.858.858-.858a.848.848 0 0 1 .847.847v4.895l4.994-5.493a.762.762 0 0 1 .599-.26.79.79 0 0 1 .797.778.72.72 0 0 1-.219.548l-3.947 4.197 4.337 4.626c.13.17.219.368.219.558zm3.43-.17v-9.54c0-.578.32-.897.917-.897h6.022c.41 0 .768.34.768.768 0 .41-.36.728-.768.728H80.87v3.32h5.115c.41 0 .768.319.768.727 0 .43-.36.768-.768.768H80.87v3.539h5.236c.41 0 .768.32.768.728 0 .429-.36.768-.768.768h-6.022c-.588-.01-.917-.329-.917-.907zm19.718.191a.81.81 0 0 1-.797.778.89.89 0 0 1-.718-.36l-2.84-4.096h-2.383v3.609c0 .457-.379.857-.838.857a.857.857 0 0 1-.858-.848V25.39c0-.579.32-.898.918-.898h3.859c2.162 0 3.64 1.396 3.64 3.49 0 1.903-1.187 2.991-2.533 3.258l2.382 3.37c.11.11.179.25.179.518zm-6.75-5.164h2.852c1.226 0 2.103-.797 2.103-1.994 0-1.186-.886-1.994-2.103-1.994h-2.851zm10.34 4.955V25.39c0-.579.32-.898.918-.898h3.13c3.538 0 5.881 2.413 5.881 5.682 0 3.28-2.344 5.663-5.881 5.663h-3.13c-.598-.01-.918-.329-.918-.907zm4.048-.599c2.622 0 4.127-1.874 4.127-4.167 0-2.332-1.465-4.177-4.127-4.177h-2.344v8.344z"/>
  <path d="M231.1 43.1v93.6l17.3 9.9V53.1z" fill="url(#b)" transform="matrix(.09969 0 0 .09969 7.598 18.522)"/>
  <path d="m0 146.6 17.3-9.9V43.1L0 53.1z" fill="url(#c)" transform="matrix(.09969 0 0 .09969 7.598 18.522)"/>
  <path d="M16.02 31.64v1.406l7.916 4.566v-1.984l-7.407-4.287zm8.366 8.614L16.02 35.43v1.984l2.234 1.286-2.682 1.555c-.18.1-.18.368 0 .469l1.314.757 3.091-1.785 3.094 1.794 1.315-.758c.179-.1.179-.36 0-.469z" fill="#2beda7"/>
  <path d="M24.18 42.94v8.674a.29.29 0 0 0 .429.251l1.235-.712a.301.301 0 0 0 .146-.25v-9.01z" fill="url(#d)" transform="matrix(.95277 0 0 .95277 7.598 -12.531)"/>
  <path d="m20.644 54.157 1.16-.67a.414.414 0 0 0 .21-.366v-8.925l-1.8 1.046v8.674c0 .21.23.345.43.24z" fill="url(#e)" transform="matrix(.95277 0 0 .95277 7.598 -12.531)"/>
  <path d="m16.24 56.7 1.664-.963a.301.301 0 0 0 .146-.25v-9.01l-1.8 1.046V56.7z" fill="url(#f)" transform="matrix(.95277 0 0 .95277 7.598 -12.531)"/>
  <path d="m8.088 55.737 1.664.963v-9.166l-1.8-1.046v9.01a.249.249 0 0 0 .136.24z" fill="url(#g)" transform="matrix(.95277 0 0 .95277 7.598 -12.531)"/>
  <path d="m4.185 53.488 1.16.67a.29.29 0 0 0 .429-.251v-8.674l-1.8-1.046v8.925a.43.43 0 0 0 .209.377z" fill="url(#h)" transform="matrix(.95277 0 0 .95277 7.598 -12.531)"/>
  <path d="m.22 51.196 1.16.67a.29.29 0 0 0 .429-.251V42.94L0 41.895v8.925a.44.44 0 0 0 .22.377z" fill="url(#i)" transform="matrix(.95277 0 0 .95277 7.598 -12.531)"/>
  <path d="m32.37 23.817-1.715-.997-3.091 1.785-2.064-1.187 2.692-1.554a.273.273 0 0 0 0-.47l-1.105-.638a.429.429 0 0 0-.41 0l-2.89 1.665-2.064-1.186 2.691-1.555c.18-.1.18-.369 0-.469l-1.105-.638a.429.429 0 0 0-.41 0l-2.89 1.664-2.891-1.675a.429.429 0 0 0-.41 0l-1.116.648c-.18.1-.18.369 0 .469l15.053 8.702 1.715-.996-3.09-1.785zM12.9 20.755l-1.117.638a.272.272 0 0 0 0 .469l15.054 8.702 1.715-.996-15.263-8.813a.429.429 0 0 0-.41 0zm-5.303 3.062 3.1 1.784-3.1 1.793 1.715.987 3.09-1.784 2.055 1.186-3.091 1.794 1.715.987 3.12-1.783 2.053 1.186-3.091 1.794 1.715.987 3.09-1.785 3.091 1.785 1.715-.987-15.462-8.943z" fill="#2beda7"/>
</svg>
