<svg xmlns="http://www.w3.org/2000/svg" viewBox="0 0 32 32" height="1em" width="1em">
  <path d="M27.038 11.147c-1.495 0-3.057-.496-3.057-.496s-2.227-.69-3.856-.69c-2.45 0-4.125 2.02-4.125 2.02v-1.64s1.606-1.9 4.12-1.9c.912 0 2.08.05 4.014.635s2.944.513 2.944.513c2.195 0 4.335-.752 4.92-.975v-2.25c-.625.198-2.986.902-4.962.902-1.495 0-3.057-.496-3.057-.496s-2.227-.7-3.856-.7c-2.45 0-4.125 2.02-4.125 2.02v-1.64s1.606-1.9 4.12-1.9c.912 0 2.08.05 4.014.635s2.944.513 2.944.513c2.195 0 4.335-.753 4.92-.976V2.252s-2.673 1.1-5 1.1-3.744-1.112-6.348-1.112S16 4 16 4s-2.048-1.76-4.652-1.76S7.327 3.352 5 3.352s-5-1.1-5-1.1v25.784s2.42 1 4.837 1c1.953 0 4.482-1.42 6.246-1.308 1.57.103 2.498.822 3.202 1.724.158.283.476.298.476.298h2.48s.317-.016.477-.298c.704-.902 1.63-1.62 3.2-1.724 1.764-.114 4 1.282 6.247 1.308 2.488.028 4.836-1 4.836-1V25.76c-.625.198-2.986.902-4.962.902-1.495 0-3.057-.496-3.057-.496s-2.227-.7-3.856-.7c-2.45 0-4.125 2.02-4.125 2.02v-1.64s1.606-1.9 4.12-1.9c.912 0 2.08.05 4.014.635s2.944.513 2.944.513c2.195 0 4.335-.752 4.92-.976V21.88c-.625.198-2.986.902-4.962.902-1.495 0-3.057-.496-3.057-.496s-2.227-.7-3.856-.7c-2.45 0-4.125 2.02-4.125 2.02v-1.64s1.606-1.9 4.12-1.9c.912 0 2.08.05 4.014.635s2.944.513 2.944.513c2.195 0 4.335-.752 4.92-.976V18c-.625.2-2.986.902-4.962.902-1.495 0-3.057-.496-3.057-.496s-2.227-.7-3.856-.7c-2.45 0-4.125 2.02-4.125 2.02V18.1s1.606-1.9 4.12-1.9c.912 0 2.08.05 4.014.635s2.944.513 2.944.513c2.195 0 4.335-.752 4.92-.976v-2.248c-.625.198-2.986.902-4.962.902-1.495 0-3.057-.496-3.057-.496s-2.227-.7-3.856-.7c-2.45 0-4.125 2.02-4.125 2.02v-1.64s1.606-1.9 4.12-1.9c.912 0 2.08.05 4.014.635s2.944.513 2.944.513c2.195 0 4.335-.753 4.92-.976v-2.25c-.623.198-2.984.902-4.96.902z" fill="#0069aa"/>
</svg>
