<svg xmlns="http://www.w3.org/2000/svg" viewBox="0 0 120 60" version="1.1" width="120" height="60">
  <g transform="translate(.882)">
    <g transform="translate(-8.742 -7.445) scale(1.24815)">
      <path class="cls-1" d="M25.27 16.731A13.276 13.276 0 0 0 12 29.676a4.286 4.286 0 0 1 1.622-.42c1.02-.057 1.61.743 2.039 1.33a2.66 2.66 0 0 0 .416.486c.076-.028.5-.294.8-2.648.393-3.102.725-4.56 1.573-4.53.43.02.61.514.813 1.48.13.624.268 1.492.408 2.575.236 1.835.401 3.691.403 3.71.08 1.79.325 3.85.623 4.695.321-1.015.686-3.876.88-6.383.402-4.75 1.124-4.723 1.432-4.71.308.013.994.044 1.52 5.198.158 1.822.5 3.56.77 4.054.263-.454.598-1.951.774-3.526.447-3.498 1.14-3.465 1.404-3.452.595.027 1.11 1.003 1.532 2.897.19.85.556 1.71.77 1.854.19-.134.537-.887.723-1.609.46-1.787 1.16-1.977 1.446-1.977.21 0 .938.12 1.441 1.632.19.353.534.735.724.735.19 0 .652-.519.967-1.05.202-.407.718-1.317 1.342-1.317.57 0 1.27.418 2.125 1.073A13.276 13.276 0 0 0 25.27 16.731Z" style="fill:#1d52d6;fill-opacity:1;stroke-width:.18997683"/>
      <path class="cls-1" d="m35.77 30.375-.023.034c-.2.339-.912 1.446-1.647 1.446-.76 0-1.33-.98-1.429-1.178l-.024-.06c-.19-.608-.559-1.129-.713-1.129-.173.048-.51.735-.676 1.389-.515 2.023-1.21 2.243-1.564 2.192-.777-.106-1.234-1.59-1.44-2.47-.21-.95-.543-1.9-.77-2.207-.208.38-.482 1.535-.628 2.68-.093.836-.456 3.623-1.166 4.169a.62.62 0 0 1-.477.13c-.445-.068-.815-.539-1.174-2.613-.19-1.116-.29-2.195-.297-2.24-.167-1.663-.486-3.57-.76-4.28-.245.655-.507 2.325-.628 3.78 0 .013-.133 1.71-.35 3.42-.43 3.398-.777 3.8-1.123 3.923a.524.524 0 0 1-.176.03.54.54 0 0 1-.38-.169c-.76-.76-.977-4.43-1.026-5.536-.245-2.762-.642-5.813-.95-6.82-.222.52-.46 1.744-.7 3.644-.295 2.336-.759 3.334-1.584 3.334-.433 0-.723-.392-1.03-.806-.362-.48-.774-1.03-1.373-1.009a3.564 3.564 0 0 0-1.662.534 13.277 13.277 0 0 0 26.52.19c-.44-.355-1.58-1.273-2.11-1.273-.112.042-.437.477-.64.895z" style="fill:#1d52d6;fill-opacity:1;stroke-width:.18997683"/>
    </g>
    <g transform="translate(0 -.357)">
      <path class="cls-1" style="fill:#1d52d6;fill-opacity:1" transform="matrix(.18998 0 0 .18998 12 16.731)" d="M182.58 93.81V31.09h-5.19v67.63h39.64v-4.91z"/>
      <path class="cls-1" d="M73.917 25.196c-2.882 0-5.154 2.227-5.154 5.244s2.28 5.24 5.188 5.24c2.444 0 4.478-1.577 4.96-3.971h-1c-.416 1.84-1.995 3.11-3.971 3.11-2.344-.015-4.166-1.788-4.187-4.254h9.309a4.273 4.273 0 0 0-.013-.69 5.084 5.084 0 0 0-5.132-4.679zm-4.11 4.626a4.134 4.134 0 0 1 8.238 0z" style="fill:#1d52d6;fill-opacity:1;stroke-width:.18997683"/>
      <path class="cls-1" d="M86.192 25.195a4.607 4.607 0 0 0-4.258 2.697v-6.539h-.986v14.133h.986v-2.47a4.577 4.577 0 0 0 4.252 2.665c2.808 0 4.95-2.211 4.95-5.243 0-3.032-2.18-5.242-4.944-5.243zm-.156 9.555c-2.331 0-4.111-1.802-4.113-4.306-.002-2.504 1.795-4.319 4.115-4.319 2.31 0 4.118 1.794 4.115 4.315-.004 2.52-1.782 4.312-4.117 4.31z" style="fill:#1d52d6;fill-opacity:1;stroke-width:.18997683"/>
      <path class="cls-1" d="M111.014 21.353v6.54a4.609 4.609 0 0 0-4.257-2.698c-2.766 0-4.94 2.192-4.94 5.243 0 3.05 2.132 5.241 4.945 5.243a4.577 4.577 0 0 0 4.252-2.67v2.469H112V21.353Zm-4.102 13.397c-2.336 0-4.12-1.818-4.118-4.31.002-2.493 1.806-4.316 4.117-4.315 2.317 0 4.113 1.807 4.113 4.319 0 2.511-1.78 4.308-4.112 4.306z" style="fill:#1d52d6;fill-opacity:1;stroke-width:.18997683"/>
      <path class="cls-1" d="M93.591 22.007a.707.707 0 1 0 .735.706.705.705 0 0 0-.735-.706z" style="fill:#1d52d6;fill-opacity:1;stroke-width:.18997683"/>
      <path class="cls-1" style="fill:#1d52d6;fill-opacity:1;stroke-width:.18997683" d="M93.097 25.39h.986v10.093h-.986z"/>
      <path class="cls-1" d="M63.184 30.755v4.721h.95v-4.723c0-.667 0-2.435 1.109-3.552.686-.688 1.71-1.038 3.04-1.038v-.95c-1.592 0-2.84.443-3.71 1.317-1.397 1.396-1.391 3.452-1.39 4.225z" style="fill:#1d52d6;fill-opacity:1;stroke-width:.18997683"/>
      <path class="cls-1" d="M96.207 30.755v4.721h.95v-4.723c0-.667 0-2.435 1.11-3.552.685-.688 1.71-1.038 3.04-1.038v-.95c-1.59 0-2.839.443-3.711 1.317-1.394 1.396-1.39 3.452-1.389 4.225z" style="fill:#1d52d6;fill-opacity:1;stroke-width:.18997683"/>
      <path class="cls-1" d="m57.568 34.171-3.17-8.764h-1.063l3.733 10.082v.02c-.285.602-1.043 2.2-2.53 2.73a3.125 3.125 0 0 1-1.02.172v.95a4.096 4.096 0 0 0 1.33-.232c1.86-.66 2.731-2.386 3.071-3.218l4.045-10.52h-1.062z" style="fill:#1d52d6;fill-opacity:1;stroke-width:.18997683"/>
    </g>
  </g>
</svg>
