<svg xmlns:svg="http://www.w3.org/2000/svg" xmlns="http://www.w3.org/2000/svg" version="1.1" x="0px" y="0px" viewBox="0 0 64 64.000002" xml:space="preserve">
  <g style="fill:#000000" transform="matrix(1.0322489,0,0,1.0322489,-7.715773e-7,1.961557)">
    <g style="fill:#000000">
      <path style="fill:#000000" d="M 31,0 C 13.5,0 0,13 0,29.1 0,45.2 13.5,58.2 31,58.2 48.5,58.2 62,45.2 62,29.1 62.1,13 48.6,0 31,0 Z M 17,53.7 C 14.5,52.6 12.1,51 10,49 4.9,44.1 1.4,36.9 1.6,29 1.7,21 4.9,14.3 10,9.5 12.1,7.5 14.5,5.9 17,4.6 17.5,4.4 18,4.1 18.5,3.9 18,4.2 17.5,4.5 17,4.9 14.4,6.7 12,8.7 10,11.1 6.1,15.7 3.5,21.6 3.4,28.9 3.2,36.3 5.9,42.3 10,47 c 2.1,2.4 4.5,4.5 7,6.2 0.5,0.3 1,0.6 1.5,0.9 -0.5,0 -1,-0.3 -1.5,-0.4 z m 5,-13.5 c -2,-1.1 -3.8,-3 -5,-5.2 -0.9,-1.7 -1.5,-3.7 -1.4,-5.9 0,-2.1 0.5,-4 1.4,-5.7 1.1,-2.3 2.9,-4.1 5,-5.3 0.8,-0.5 1.6,-0.9 2.5,-1.2 -0.9,0.6 -1.7,1.2 -2.5,2 -2.6,2.4 -4.1,5.6 -4.1,10.2 -0.1,4.7 1.5,7.8 4.1,10.2 0.7,0.7 1.6,1.4 2.5,1.9 C 23.6,41 22.8,40.7 22,40.2 Z M 19.3,29.1 C 19.3,22.3 24.7,16.2 31,16 37.3,16.3 42.7,22.4 42.7,29.1 42.7,35.8 37.3,41.9 31,42.2 24.8,41.9 19.3,35.9 19.3,29.1 Z m 20.9,11.1 c -0.9,0.5 -1.7,0.9 -2.6,1 0.9,-0.6 1.8,-1.2 2.6,-2 2.6,-2.4 4.1,-5.5 4.1,-10.1 -0.1,-4.6 -1.6,-7.7 -4.1,-10.1 -0.8,-0.7 -1.6,-1.4 -2.6,-2 0.9,0.3 1.7,0.7 2.6,1.2 2,1.2 3.7,3 4.9,5.3 0.9,1.7 1.4,3.6 1.4,5.7 0,2.1 -0.5,4.1 -1.4,5.9 -1.2,2.1 -3,3.9 -4.9,5.1 z m 11.9,8.7 c -2.1,2 -4.5,3.6 -7,4.7 -0.5,0.2 -1,0.4 -1.5,0.5 0.5,-0.3 1,-0.6 1.5,-0.9 2.6,-1.7 4.9,-3.8 7,-6.2 4,-4.7 6.7,-10.8 6.6,-18.2 C 58.6,21.5 56,15.6 52.1,11 c -2,-2.4 -4.5,-4.5 -7,-6.2 -0.5,-0.3 -1,-0.6 -1.5,-1 0.5,0.2 1,0.5 1.5,0.7 2.6,1.3 4.9,2.9 7,4.9 5,4.8 8.3,11.5 8.4,19.4 0.2,8 -3.3,15.2 -8.4,20.1 z"/>
    </g>
  </g>
</svg>
