<svg xmlns="http://www.w3.org/2000/svg" width="64" height="64" viewBox="0 0 32 32">
  <g fill-rule="evenodd">
    <path d="M4.363.003h23.273A4.364 4.364 0 0 1 32 4.367v23.266a4.363 4.363 0 0 1-4.364 4.363H4.363A4.362 4.362 0 0 1 0 27.633V4.367A4.363 4.363 0 0 1 4.363.003" fill="#8cc63f"/>
    <path d="M24.642 12.689c-.004.54-.539.947-1.17.948-.632-.001-1.166-.408-1.17-.948v-.685c.004-.544.539-.949 1.17-.95.631.002 1.166.406 1.17.95zm3.97 3.145s-.406-.416-.797-.775c.39-.728.57-1.635.57-2.713-.016-3.03-1.338-4.688-4.913-4.703-3.575.015-4.898 1.674-4.914 4.703.016 3.027 1.34 4.706 4.914 4.721 1.069.005 1.94-.157 2.634-.46.372.414.851.88.851.88.362.362 1.027.287 1.484-.171.458-.456.532-1.121.17-1.482zm-8.835 8.002a.979.979 0 0 1-.369-.772l-.003-4.627c0-2.873-1.316-4.608-4.703-4.505-1.538.047-2.961 1.082-2.961 1.082-.174.105-.315 0-.315 0s-1.422-1.034-2.96-1.082c-3.388-.103-4.703 1.632-4.703 4.505l-.002 4.989c0 .487.14.9.722.9h3.434c.13 0 .236-.108.236-.24 0-.145-.124-.205-.183-.25a.988.988 0 0 1-.369-.778V18.51c.007-.486.526-.845 1.078-.848.549.003 1.069.362 1.077.848l-.007 4.916c0 .488.141.9.723.9h3.26c.13 0 .237-.107.237-.238 0-.146-.125-.206-.184-.251a.99.99 0 0 1-.369-.778l-.003-4.556c.008-.485.527-.839 1.077-.841.55.002 1.068.356 1.078.841v4.923c0 .488.14.9.721.9h3.434a.237.237 0 0 0 .237-.239c0-.145-.124-.205-.183-.25zm2.315-.303c.11 0 .206-.007.206-.138 0-.106-.094-.124-.184-.124h-.177v.262zm-.155.48h-.128v-.851h.324c.201 0 .3.072.3.24 0 .153-.095.22-.22.234l.243.377h-.147l-.222-.37h-.15zm.158.186a.595.595 0 0 0 .597-.615.596.596 0 0 0-.597-.613.597.597 0 0 0-.602.613c0 .356.264.615.602.615zm-.75-.615c0-.422.344-.734.75-.734.401 0 .744.312.744.734a.736.736 0 0 1-.744.741.739.739 0 0 1-.75-.741z" fill="#fff"/>
  </g>
</svg>
