<svg xmlns="http://www.w3.org/2000/svg" width="120" height="60">
  <path d="m44.57 31.704-.626 1.773h-.053a12.59 12.59 0 0 0-.608-1.738l-3.356-8.433h-3.286v13.44h2.174v-8.293l-.018-1.843c-.017-.366-.052-.644-.07-.852h.053c.104.521.226.904.313 1.147l4.033 9.806h1.53l4-9.893c.086-.226.173-.678.26-1.06h.052l-.104 2.416v8.52h2.312V23.27h-3.164zm8.797-4.642h2.26v9.632h-2.26zm1.148-4.069c-.383 0-.696.14-.957.383s-.4.556-.4.939a1.222 1.222 0 0 0 .4.921c.261.243.574.365.957.365s.712-.139.956-.365a1.222 1.222 0 0 0 .4-.921c0-.366-.14-.679-.4-.94-.226-.243-.556-.382-.956-.382m9.128 3.982a6.304 6.304 0 0 0-1.27-.14c-1.025 0-1.964.227-2.747.679s-1.408 1.078-1.808 1.86c-.417.8-.626 1.721-.626 2.782 0 .921.209 1.739.609 2.486.4.73.956 1.322 1.704 1.721.712.4 1.547.609 2.486.609 1.078 0 2-.226 2.73-.643l.017-.018v-2.086l-.087.07c-.33.243-.713.451-1.095.573-.4.14-.765.209-1.078.209-.904 0-1.617-.261-2.121-.835-.522-.556-.783-1.321-.783-2.277 0-.991.26-1.774.8-2.348s1.252-.869 2.121-.869c.73 0 1.478.244 2.156.73l.087.07V27.34l-.017-.018c-.296-.121-.626-.26-1.078-.347m7.458-.07c-.556 0-1.078.174-1.53.54-.382.312-.643.764-.869 1.303h-.017v-1.686h-2.26v9.632h2.26v-4.92c0-.835.174-1.53.556-2.035.383-.521.87-.782 1.46-.782.21 0 .418.052.679.087.243.07.417.139.539.226l.086.07v-2.261l-.052-.017c-.156-.105-.47-.157-.852-.157m6.155-.052c-1.582 0-2.851.47-3.738 1.39-.904.922-1.339 2.192-1.339 3.791 0 1.495.452 2.712 1.322 3.6.869.868 2.051 1.32 3.53 1.32 1.547 0 2.781-.469 3.668-1.408.904-.939 1.338-2.19 1.338-3.738 0-1.53-.417-2.747-1.269-3.634-.817-.886-2.017-1.321-3.512-1.321m1.808 7.407c-.417.539-1.078.8-1.895.8s-1.478-.261-1.947-.835c-.47-.54-.695-1.322-.695-2.313 0-1.025.243-1.808.695-2.364.47-.556 1.113-.835 1.93-.835.8 0 1.426.261 1.878.8s.695 1.321.695 2.347c-.035 1.043-.226 1.86-.66 2.4m8.015-3.2c-.713-.295-1.165-.521-1.374-.712-.174-.174-.26-.418-.26-.73 0-.261.104-.522.364-.696s.557-.26.991-.26c.383 0 .783.069 1.165.173s.73.26 1.009.47l.087.069v-2.121l-.053-.018a6.273 6.273 0 0 0-1.025-.295 6.97 6.97 0 0 0-1.113-.104c-1.078 0-1.965.26-2.66.834-.696.54-1.026 1.27-1.026 2.121 0 .452.07.852.226 1.183s.383.643.695.904c.313.243.765.521 1.391.782.522.226.922.4 1.165.54s.4.295.522.416c.087.14.139.313.139.54 0 .643-.487.956-1.478.956-.382 0-.782-.07-1.252-.226s-.904-.383-1.269-.644l-.087-.07v2.209l.052.017c.33.157.73.261 1.217.383.487.087.922.156 1.304.156 1.165 0 2.121-.26 2.8-.834.695-.557 1.06-1.27 1.06-2.191 0-.643-.174-1.217-.556-1.652a7.05 7.05 0 0 0-2.034-1.2m8.554-4.207c-1.582 0-2.852.47-3.738 1.39s-1.34 2.192-1.34 3.791c0 1.495.453 2.712 1.322 3.6.87.868 2.052 1.32 3.53 1.32 1.547 0 2.782-.469 3.668-1.408.904-.939 1.339-2.19 1.339-3.738 0-1.53-.417-2.747-1.27-3.634-.816-.886-2.016-1.321-3.511-1.321m1.79 7.407c-.417.539-1.077.8-1.895.8-.834 0-1.477-.261-1.947-.835-.47-.54-.695-1.322-.695-2.313 0-1.025.243-1.808.695-2.364.47-.556 1.113-.835 1.93-.835.782 0 1.426.261 1.878.8s.695 1.321.695 2.347c0 1.043-.226 1.86-.66 2.4m15.074-5.338v-1.86h-2.278V24.21l-.07.018-2.155.643-.053.017v2.174h-3.407v-1.217c0-.557.139-.991.382-1.27s.609-.417 1.06-.417c.314 0 .644.07 1.01.226l.086.052v-1.964l-.052-.018c-.313-.104-.73-.174-1.27-.174-.677 0-1.269.157-1.808.418a3.016 3.016 0 0 0-1.234 1.234 3.558 3.558 0 0 0-.452 1.79v1.34h-1.582v1.843h1.582v7.789h2.278v-7.772h3.407v4.955c0 2.034.957 3.06 2.87 3.06.312 0 .642-.052.955-.104.33-.07.574-.157.713-.226l.018-.018v-1.86l-.087.07a1.47 1.47 0 0 1-.47.208c-.174.052-.33.07-.452.07-.452 0-.765-.105-.99-.365-.21-.244-.314-.644-.314-1.235v-4.555z" fill="#737373"/>
  <path d="M7.502 18.786h10.657v10.658H7.502z" fill="#f25022"/>
  <path d="M19.272 18.786H29.93v10.658H19.272z" fill="#7fba00"/>
  <path d="M7.502 30.556h10.657v10.658H7.502z" fill="#00a4ef"/>
  <path d="M19.272 30.556H29.93v10.658H19.272z" fill="#ffb900"/>
</svg>
