<svg xmlns:svg="http://www.w3.org/2000/svg" xmlns="http://www.w3.org/2000/svg" viewBox="0 0 120 60.000001" version="1.1">
  <defs>
    <linearGradient id="a" x1="160.22" y1="34.52" x2="175.86" y2="7.4299998" gradientUnits="userSpaceOnUse" gradientTransform="matrix(0.5851145,0,0,0.5851145,9.9922301,16.747157)">
      <stop offset="0" stop-color="#00aaf2"/>
      <stop offset="1" stop-color="#1d81d6"/>
      <stop offset="1"/>
    </linearGradient>
  </defs>
  <g transform="translate(-2.7736496)">
    <g transform="matrix(1.209241,0,0,1.209241,-17.46921,-6.2772306)">
      <path d="m 86.168287,43.252844 c 0.497347,-0.520752 0.982992,-1.053206 1.486191,-1.562256 q 4.288889,-4.29474 8.583629,-8.577778 c 0.222344,-0.222344 0.386176,-0.585115 0.81331,-0.157981 q 5.108053,5.166561 10.245353,10.298015 z" style="fill:#00b441;stroke-width:0.58511448"/>
      <path d="m 103.18927,26.21431 c -1.17023,1.170229 -2.37557,2.340458 -3.580903,3.510687 -0.263302,0.251599 -0.175534,0.368622 0.02926,0.585114 0.895223,0.86597 1.755343,1.755344 2.662263,2.627164 L 110,40.578871 v -21.15189 z" style="fill:url(#a);stroke-width:0.58511448"/>
      <path d="m 86.209245,16.747157 h 20.947095 c 0.0468,0.239897 -0.15213,0.315962 -0.2633,0.421282 l -9.683643,9.689497 c -0.269152,0.269152 -0.450538,0.544156 -0.883522,0.111171 -3.3176,-3.346855 -6.664455,-6.676156 -9.999607,-10.011309 a 1.3574656,1.3574656 0 0 1 -0.117023,-0.210641 z" style="fill:#7dd432;stroke-width:0.58511448"/>
      <path d="M 83.488462,40.491103 V 19.596665 c 0.275004,0 0.368623,0.198939 0.497348,0.327664 l 9.601729,9.578324 c 0.269152,0.263302 0.555858,0.438836 0.111171,0.871821 -3.32345,3.276641 -6.623496,6.588389 -9.946946,9.888435 -0.03511,0.05851 -0.09947,0.09947 -0.263302,0.228194 z" style="fill:#0070c6;stroke-width:0.58511448"/>
    </g>
    <g transform="translate(0,0.04445926)">
      <path class="cls-5" d="m27.97865 26.208458-1.661725 3.346855q-2.416523 4.868153-4.827195 9.736306c-.117023.239897-.146279.585114-.544156.585114-.397878 0-.362771-.333515-.473943-.555859Q17.341268 33.042596 14.228459 26.77602c-.111172-.228195-.234046-.45639-.456389-.895226-.234046 1.696832-.438836 3.171321-.637775 4.645809-.386176 2.872913-.7665 5.745825-1.170229 8.618737-.03511.234046.105321.661179-.30426.696286a6.0032748 6.0032748 0 0 1-1.556404-.05266c-.2106414-.04096-.04096-.368622 0-.585114q1.263847-9.086829 2.568653-18.202913c.02925-.20479-.07606-.538305.263301-.585114.339366-.04681.30426.310111.403729.503198q2.580355 5.184115 5.149008 10.368229l2.451629 4.920813a1.7202366 1.7202366 0 0 0 .50905-.807458q3.510687-7.120843 7.021374-14.247538c.05851-.117023.111172-.234046.175534-.351069.06436-.117022.122874-.450538.403729-.392026.280855.05851.15213.304259.175535.46224q.421282 2.790996.81916 5.581993c.585115 4.265484 1.205336 8.53682 1.83726 12.796454.08192.538305-.07606.585114-.544157.585114-1.257996 0-1.287252 0-1.462786-1.211187-.585115-4.008034-1.105867-8.02192-1.650023-12.035805l-.09362-.327664zM56.216276 25.108443a7.4192519 7.4192519 0 0 0-7.477764 7.606489 7.4836145 7.4836145 0 1 0 14.961378-.09362 7.4075496 7.4075496 0 0 0-7.483614-7.512869zm0 13.352313a5.57029 5.57029 0 0 1-5.599546-5.716569 5.5936946 5.5936946 0 1 1 11.181538-.07606c.02926 3.329301-2.340458 5.792633-5.581992 5.792633zM41.763947 33.458027c0-1.936729 0-3.873458 0-5.810187 0-.485645-.134576-.678733-.620221-.585114a2.6154618 2.6154618 0 0 1-.392027 0 .93033205.93033205 0 0 1-.877671-1.404275c.157981-.321813.46224-.169683.696286-.175535 1.170229 0 1.170229 0 1.170229-1.170229 0-.707988 0-1.415977.07021-2.118114.134576-1.720237 1.170229-2.644718 2.896316-2.592057.544157 0 1.082462.157981 1.626619.228194.392026.05266.491496.263302.497347.637775 0 1.170229.04096 1.170229-1.082462.953737a4.1250572 4.1250572 0 0 0-1.170229 0 .91862976.91862976 0 0 0-.883523.848416 26.16632 26.16632 0 0 0-.09362 2.925572c0 .362771.210641.345218.456389.345218.678733 0 1.363317.02926 2.04205 0 .772351-.04681.479794.503198.50905.854267.02925.351069.146278.813309-.526604.754798-.672881-.05851-1.205335 0-1.802152 0-.596817 0-.702138.140427-.696286.690435 0 3.32345 0 6.646901 0 9.946946 0 .368623 0 .737245 0 1.100016 0 .362771.20479.883523-.140428 1.012248a3.2883435 3.2883435 0 0 1-1.474488.03511c-.380325-.04681-.216493-.421283-.222344-.649477.0117-2.006943.01755-3.920268.01755-5.827741zM70.007424 40.210248A5.2133702 5.2133702 0 0 1 66.25684 38.700653c-.368622-.35692-.473942-.643626-.02925-1.000546a1.573958 1.573958 0 0 0 .31011-.351068c.269153-.392027.491497-.50905.871821-.07021a3.5691984 3.5691984 0 0 0 2.018645 1.117569 2.8904656 2.8904656 0 0 0 2.837805-1.100016 2.1766259 2.1766259 0 0 0-.292557-2.790996 6.7580725 6.7580725 0 0 0-1.819706-1.205336 15.054996 15.054996 0 0 1-1.948431-1.170229 3.955374 3.955374 0 0 1-1.322359-5.067091 4.0489923 4.0489923 0 0 1 5.037836-1.690981 7.6357442 7.6357442 0 0 1 2.118114 1.322358c.339367.275004.315962.473943 0 .71384a1.0707595 1.0707595 0 0 0-.222343.222344c-.374474.526603-.707989.637775-1.252145.111171a3.1128091 3.1128091 0 0 0-2.428225-.901076 2.0771565 2.0771565 0 0 0-1.854813 1.240443 1.7963015 1.7963015 0 0 0 .479793 2.077156 7.547977 7.547977 0 0 0 1.825558 1.339913c.631923.362771 1.287252.702137 1.884068 1.111717 1.755344 1.205336 2.340458 2.890466 1.755344 4.768683a4.2596336 4.2596336 0 0 1-4.218676 2.831954zM37.059627 32.703229c0 2.141519 0 4.28889 0 6.43626 0 .585114-.128725.836714-.731393.731393a1.4452328 1.4452328 0 0 0-.468092 0c-.585114.09362-.678733-.181385-.678733-.702137 0-3.867607 0-7.741065 0-11.608672 0-.520752 0-1.047355 0-1.568107 0-.403729.111172-.532454.526603-.538305 1.334061 0 1.334061-.04681 1.334061 1.293103q.01755 2.972381.01755 5.956465zM37.644741 21.077004a1.5095954 1.5095954 0 1 1-1.533-1.521297 1.5037443 1.5037443 0 0 1 1.533 1.521297z" style="fill:#141915;stroke-width:0.58511448"/>
    </g>
  </g>
</svg>
