<svg xmlns="http://www.w3.org/2000/svg" width="64" height="64" preserveAspectRatio="xMidYMid">
  <defs>
    <linearGradient x1="217.494" y1="122.198" x2="130.074" y2="-44.488" id="a" gradientUnits="userSpaceOnUse">
      <stop stop-color="#80c3e6" offset="0%"/>
      <stop stop-color="#3380c2" offset="100%"/>
    </linearGradient>
    <linearGradient x1="232.833" y1="184.705" x2="167.487" y2="169.69" id="b" gradientUnits="userSpaceOnUse">
      <stop stop-color="#f38649" offset="0%"/>
      <stop stop-color="#f28147" offset="18.49%"/>
      <stop stop-color="#ef7242" offset="40.91%"/>
      <stop stop-color="#ea5a3a" offset="65.37%"/>
      <stop stop-color="#e4382e" offset="91.1%"/>
      <stop stop-color="#e12a29" offset="100%"/>
    </linearGradient>
    <linearGradient x1="17.514" y1="126.185" x2="142.532" y2="8.878" id="c" gradientUnits="userSpaceOnUse">
      <stop stop-color="#42ab4a" offset="0%"/>
      <stop stop-color="#add155" offset="100%"/>
    </linearGradient>
    <linearGradient x1="44.809" y1="401.774" x2="146.426" y2="-71.594" id="d" gradientUnits="userSpaceOnUse">
      <stop stop-color="#42ab4a" offset="0%"/>
      <stop stop-color="#add155" offset="100%"/>
    </linearGradient>
  </defs>
  <path d="m188.473 101.984 49.002-78.398H119.606L103.32 49.713z" fill="url(#a)" transform="matrix(.26217 0 0 .26217 .576 0)"/>
  <path d="m27.665 13.033 2.187-3.513 20.137 17.22z" opacity=".15"/>
  <path d="M214.393 244.12V126.262l-25.428-15.894-53.47 84.458z" fill="url(#b)" transform="matrix(.26217 0 0 .26217 .576 0)"/>
  <path d="m36.098 51.075 3.463 2.162 10.555-24.303z" opacity=".15"/>
  <path d="M24.554 0v117.86l27.27 15.892 136.63-31.783z" fill="url(#c)" transform="matrix(.26217 0 0 .26217 .576 0)"/>
  <path d="m51.254 142.74-49 77.07h117.86l68.862-109.442z" fill="url(#d)" transform="matrix(.26217 0 0 .26217 .576 0)"/>
</svg>
