<svg xmlns="http://www.w3.org/2000/svg" viewBox="-100 0 64 64" width="64" height="64">
  <path d="m-43.8 4.381-5.01 10.654c-8.254-3.81-19.12-4.304-28.292 1.058-5.997 3.74-10.936 10.301-11.43 17.357-.14 4.727 1.835 9.807 1.2 14.534-.141 2.54-.706 5.01-1.976 7.197-1.552 2.54-3.316 4.727-6.35 4.868.635-.847 5.362-3.175 3.599-13.758-.847-4.234-6.562-14.605-.988-27.587C-87.967 6.85-65.884-7.331-43.8 4.38zm-25.33 20.955c2.823-1.058 6.069-1.058 9.102-.353 5.786 1.059 10.02 4.445 12.136 9.596 2.187 5.362 3.74 9.666 7.55 14.322.07.141-5.857-.917-5.857-1.058 1.482-10.654-8.608-11.077-11.43-7.056 2.117 2.258 5.715 3.528 8.467 3.034C-49.727 54.405-46.834 64-46.975 64c-2.47-.353-13.405-6.773-16.65-9.595-4.728.846-8.467 2.61-13.9 3.316-.141.07.988-3.951.846-6.068 0-5.503-4.233-10.724-1.199-17.568 1.764-4.163 4.516-7.267 8.749-8.749zm3.952-3.246a7.43 7.43 0 0 1 .847.071c.07-.353.423-3.034 2.68-4.868 2.54-2.117 5.786-1.976 5.786-1.976-3.245-.988-6.632-1.058-9.03-.846zm-20.884 9.596c-.494 3.175-.565 6.068-.212 7.62 0 0 .494-2.681 2.046-4.233 1.411-1.27 3.034-1.623 3.669-1.553 0 0 .353-1.058.212-1.058zm6.35-.565a5.29 5.29 0 0 1 .635-1.27l-5.856-2.187c-.353.706-.635 1.835-.706 2.47zm1.41-2.257.988-1.13-5.362-3.95a10.933 10.933 0 0 0-1.41 2.258zm1.906-2.117c.07-.07 1.2-1.058 1.2-1.058l-4.658-5.221c-1.058.917-1.41 1.27-2.046 2.116zm2.47-1.764c0 .07 1.41-.705 1.41-.846l-3.386-6.28c-1.27.635-2.117 1.27-2.54 1.552zm2.61-1.41 1.622-.565-1.975-6.985-2.893 1.129zm2.822-.989c.07.07 1.481-.352 1.481-.352l.142-7.55c-.071.07-1.764.353-3.246.706z" fill="#18453b"/>
</svg>
