<svg xmlns="http://www.w3.org/2000/svg" width="64" height="64">
  <defs>
    <radialGradient id="a" cx="0" cy="0" r="1" gradientTransform="matrix(115.22 0 0 -115.22 715.91 728.19)" gradientUnits="userSpaceOnUse">
      <stop stop-color="#fff" offset="0"/>
      <stop stop-color="#fff" stop-opacity=".3" offset=".234"/>
      <stop stop-color="#fff" stop-opacity="0" offset=".911"/>
      <stop stop-color="#fff" stop-opacity="0" offset="1"/>
    </radialGradient>
    <radialGradient id="c" cx="0" cy="0" r="1" gradientTransform="matrix(115.22 0 0 -115.22 715.91 728.19)" gradientUnits="userSpaceOnUse">
      <stop stop-color="#fff" offset="0"/>
      <stop stop-color="#fff" offset=".911"/>
      <stop stop-color="#fff" offset="1"/>
    </radialGradient>
    <clipPath id="d">
      <path d="M706.28 739.74s-5.32-9.382.12-17.47c5.45-8.1 12.26-8.1 12.26-8.1l115.87 37.48s4.63 20.07-4.13 36.7c-8.75 16.64-27.9 25.1-27.9 25.1z"/>
    </clipPath>
    <clipPath id="e">
      <path d="M0 911h960V0H0z"/>
    </clipPath>
    <mask id="b" x="0" y="0" width="1" height="1" maskUnits="userSpaceOnUse">
      <path d="M-32768 32767h65535v-65535h-65535z" fill="url(#a)"/>
    </mask>
  </defs>
  <g transform="matrix(.15847 0 0 -.15846 -79.644 170.358)">
    <circle transform="matrix(.9378 0 0 -.9378 -579.6 1622.6)" cx="1369.3" cy="799.2" r="215.33" fill="#1e2b3b"/>
    <circle transform="matrix(.90879 0 0 -.90879 -539.88 1599.4)" cx="1369.3" cy="799.2" r="215.33" fill="#fff"/>
    <circle transform="matrix(.82176 0 0 -.82176 -420.71 1529.8)" cx="1369.3" cy="799.2" r="215.33" fill="#1e2b3b"/>
  </g>
  <path d="m54.856 26.3 1.595 3.22-2.128-2.976.134 4.284-.6-3.227c-1.774 3.597-6.115 8.573-10.092 11.223a4.58 4.58 0 0 0-1.03.91 7.743 7.743 0 0 1-1.535.394c-.27.052-.548.07-.823.093l-.819.02-.807-.046a9.802 9.802 0 0 1-.803-.11l-.787-.168-.772-.231-.754-.27-.736-.325-.72-.365-.71-.391c-.242-.121-.463-.283-.7-.412l-.695-.427-.694-.442-.713-.438-.221-.128-.116.077-1.605 1.062 1.62-.419.482.533.633.591.684.54.728.49a8.183 8.183 0 0 0 1.564.771l.823.304.85.247a10.522 10.522 0 0 0 .864.17l.875.102a10.2 10.2 0 0 0 1.757-.059 9.056 9.056 0 0 0 .862-.162 7.358 7.358 0 0 0 .83-.25c.477-.17.94-.39 1.356-.673.003.005 1.539.213.919 1.368s-1.557 1.047-1.117 2.4c.31.721.752 1.436 1.24 2.103 1.012 1.384 2.612 2.59 2.455 3.344-7.266 8.94-23.618 7.698-29.823-.278.095-1.157 1.904-1.705 3.175-4.52-.35.108-.88.268-.88.247s1.518-2.462 1.569-2.707l-.97.067s1.297-1.595 1.32-1.75l-1.302-.166s1.639-1.889 1.667-2.038l-1.667.265 1.827-2.2h-.86l1.03-1.492.522-.164.669-.206c2.495-.772 4.831-1.498 7.095-2.913 3.172-1.986 6.02-4.394 8.156-6.285l4.289-2.084c4.106-.308 7.975-.205 10.316.258l-1.507-2.586 2.307 2.779c.039.01.077.018.11.03a.785.785 0 0 0 .094-.17l-.155-3.416.728 3.087a1.852 1.852 0 0 1 2.601 1.688A1.852 1.852 0 0 1 54.87 26.3" fill="#d2943b"/>
  <path d="M37.382 20.352c-.2.506-.533.874-.962 1.054-.198.09-.422.134-.656.134-1.08 0-2.249-.972-2.85-2.367-.371-.844-.49-1.734-.348-2.508s.54-1.338 1.106-1.582a1.672 1.672 0 0 1 .659-.134c1.073 0 2.246.972 2.855 2.367.456 1.055.53 2.187.196 3.036m.304.04c.334-.907.25-2.096-.227-3.19-.661-1.523-1.92-2.572-3.128-2.572a1.955 1.955 0 0 0-.697.128 7.942 7.942 0 0 0-2.373-1.492c-4.898-1.947-12.066 1.534-13.908 6.35-.885 2.323-.617 4.888.144 7.203.63 1.914 2.887 4.672 2.05 6.754.343-.077 7.34-2.275 9.301-3.5 3.124-1.954 5.943-4.347 8.048-6.217l.061-.06 7.093-3.442.026.057.25-.124c-1.024 0-4.914.453-6.648.077" fill="#ffd524"/>
  <path d="M706.28 739.74s-5.32-9.382.12-17.47c5.45-8.1 12.26-8.1 12.26-8.1l65.535 21.3s-.164 2.093-8.924 18.723c-8.75 16.64-21.908 14.903-21.908 14.903z" mask="url(#b)" fill="url(#c)" clip-path="url(#d)" transform="matrix(.29818 0 0 -.29818 -178.16 235.431)"/>
  <g clip-path="url(#e)" transform="matrix(.29818 0 0 -.29818 -178.16 235.431)">
    <path d="M717.38 719.3c-2.787 0-6.034 2.83-7.722 6.728-1.08 2.468-1.448 5.043-1.035 7.248.36 1.92 1.26 3.283 2.543 3.836a3.59 3.59 0 0 0 1.414.29c2.78 0 6.032-2.832 7.734-6.732 1.326-3.05 1.563-6.28.635-8.633-.472-1.2-1.216-2.047-2.154-2.448a3.423 3.423 0 0 0-1.416-.3" fill="#fff"/>
    <path d="M774.36 707.52a6.201 6.201 0 0 0 6.2 6.203 6.201 6.201 0 0 0 0-12.403 6.2 6.2 0 0 0-6.2 6.2" fill="#efc286"/>
  </g>
</svg>
