<svg xmlns="http://www.w3.org/2000/svg" version="1.1" x="0" y="0" viewBox="0 0 64 64" width="64" height="64">
  <g transform="matrix(2.39968 0 0 2.39968 -33.28 -39.99)">
    <g transform="matrix(.17535 0 0 .17535 14 16.665)">
      <path style="fill:#00b156" d="M115.3 59.4c-9.2 0-16.7 7.5-16.7 16.7s7.5 16.7 16.7 16.7S132 85.2 132 76c0-9.1-7.5-16.6-16.7-16.6z" class="st0"/>
      <path style="fill:#00b156" d="M74.4 35c-7.5 0-13.6 6.1-13.6 13.6s6.1 13.6 13.6 13.6S87.9 56 87.9 48.6c0-7.4-6.1-13.6-13.5-13.6Z" class="st0"/>
      <path style="fill:#00b156" d="M74.4 90c-7.5 0-13.6 6.1-13.6 13.6s6.1 13.6 13.6 13.6S88 111.1 88 103.6C87.9 96.1 81.8 90 74.4 90Z" class="st0"/>
      <circle style="fill:#00b156" r="11.1" cy="26.3" cx="39.4" class="st0"/>
      <path style="fill:#00b156" d="M9.1 0C4.1 0 0 4.1 0 9.1s4.1 9.1 9.1 9.1 9.1-4.1 9.1-9.1S14.1 0 9.1 0Z" class="st0"/>
      <circle style="fill:#00b156" r="11.1" cy="125.8" cx="39.4" class="st0"/>
      <path style="fill:#00b156" d="M9.1 133.9c-5 0-9.1 4.1-9.1 9.1s4.1 9.1 9.1 9.1 9.1-4.1 9.1-9.1-4.1-9.1-9.1-9.1z" class="st0"/>
    </g>
    <g transform="matrix(.17535 0 0 .17535 14 16.665)">
      <path style="fill:#0099d8" d="M35.2 59.4c-9.2 0-16.7 7.5-16.7 16.7S26 92.8 35.2 92.8 51.9 85.2 51.9 76c0-9.1-7.5-16.6-16.7-16.6z" class="st1"/>
      <circle style="fill:#0099d8" r="11.1" cy="26.3" cx="111.2" class="st1"/>
      <path style="fill:#0099d8" d="M141.5 18.2c5 0 9.1-4.1 9.1-9.1S146.5 0 141.5 0s-9.1 4.1-9.1 9.1 4.1 9.1 9.1 9.1z" class="st1"/>
      <circle style="fill:#0099d8" r="11.1" cy="125.8" cx="111.2" class="st1"/>
      <path style="fill:#0099d8" d="M141.5 133.9c-5 0-9.1 4.1-9.1 9.1s4.1 9.1 9.1 9.1 9.1-4.1 9.1-9.1-4.1-9.1-9.1-9.1z" class="st1"/>
    </g>
  </g>
</svg>
