<svg xmlns:svg="http://www.w3.org/2000/svg" xmlns="http://www.w3.org/2000/svg" version="1.1" x="0px" y="0px" viewBox="0 0 64 63.999998" xml:space="preserve">
  <g transform="matrix(2.3996844,0,0,2.3996844,-33.28,-39.990532)">
    <g transform="matrix(0.17534631,0,0,0.17534631,14,16.664913)">
      <path style="fill:#00b156" d="M115.3 59.4c-9.2 0-16.7 7.5-16.7 16.7 0 9.2 7.5 16.7 16.7 16.7 9.2 0 16.7-7.6 16.7-16.8 0-9.1-7.5-16.6-16.7-16.6zM74.4 35c-7.5 0-13.6 6.1-13.6 13.6 0 7.5 6.1 13.6 13.6 13.6 7.5 0 13.5-6.2 13.5-13.6C87.9 41.2 81.8 35 74.4 35ZM74.4 90c-7.5 0-13.6 6.1-13.6 13.6 0 7.5 6.1 13.6 13.6 13.6 7.5 0 13.6-6.1 13.6-13.6C87.9 96.1 81.8 90 74.4 90Z" class="st0"/>
      <circle style="fill:#00b156" r="11.1" cy="26.299999" cx="39.400002" class="st0"/>
      <path style="fill:#00b156" d="M 9.1,0 C 4.1,0 0,4.1 0,9.1 c 0,5 4.1,9.1 9.1,9.1 5,0 9.1,-4.1 9.1,-9.1 C 18.2,4.1 14.1,0 9.1,0 Z" class="st0"/>
      <circle style="fill:#00b156" r="11.1" cy="125.8" cx="39.400002" class="st0"/>
      <path style="fill:#00b156" d="m 9.1,133.9 c -5,0 -9.1,4.1 -9.1,9.1 0,5 4.1,9.1 9.1,9.1 5,0 9.1,-4.1 9.1,-9.1 0,-5 -4.1,-9.1 -9.1,-9.1 z" class="st0"/>
    </g>
    <g transform="matrix(0.17534631,0,0,0.17534631,14,16.664913)">
      <path style="fill:#0099d8" d="m 35.2,59.4 c -9.2,0 -16.7,7.5 -16.7,16.7 0,9.2 7.5,16.7 16.7,16.7 9.2,0 16.7,-7.6 16.7,-16.8 0,-9.1 -7.5,-16.6 -16.7,-16.6 z" class="st1"/>
      <circle style="fill:#0099d8" r="11.1" cy="26.299999" cx="111.2" class="st1"/>
      <path style="fill:#0099d8" d="m 141.5,18.2 c 5,0 9.1,-4.1 9.1,-9.1 0,-5 -4.1,-9.1 -9.1,-9.1 -5,0 -9.1,4.1 -9.1,9.1 0,5 4.1,9.1 9.1,9.1 z" class="st1"/>
      <circle style="fill:#0099d8" r="11.1" cy="125.8" cx="111.2" class="st1"/>
      <path style="fill:#0099d8" d="m 141.5,133.9 c -5,0 -9.1,4.1 -9.1,9.1 0,5 4.1,9.1 9.1,9.1 5,0 9.1,-4.1 9.1,-9.1 0,-5 -4.1,-9.1 -9.1,-9.1 z" class="st1"/>
    </g>
  </g>
</svg>
