<svg xmlns:svg="http://www.w3.org/2000/svg" xmlns="http://www.w3.org/2000/svg" version="1.1" x="0px" y="0px" viewBox="0 0 120 59.999998" xml:space="preserve">
  <g transform="translate(-4.9999984)">
    <g transform="matrix(1.2937939,0,0,1.2937939,-4.1131153,-8.8138168)">
      <g transform="matrix(0.17534631,0,0,0.17534631,14,16.664913)">
        <path class="st0" d="M115.3 59.4c-9.2 0-16.7 7.5-16.7 16.7 0 9.2 7.5 16.7 16.7 16.7 9.2 0 16.7-7.6 16.7-16.8 0-9.1-7.5-16.6-16.7-16.6zM74.4 35c-7.5 0-13.6 6.1-13.6 13.6 0 7.5 6.1 13.6 13.6 13.6 7.5 0 13.5-6.2 13.5-13.6C87.9 41.2 81.8 35 74.4 35ZM74.4 90c-7.5 0-13.6 6.1-13.6 13.6 0 7.5 6.1 13.6 13.6 13.6 7.5 0 13.6-6.1 13.6-13.6C87.9 96.1 81.8 90 74.4 90Z" style="fill:#00b156"/>
        <circle class="st0" cx="39.400002" cy="26.299999" r="11.1" style="fill:#00b156"/>
        <path class="st0" d="M 9.1,0 C 4.1,0 0,4.1 0,9.1 c 0,5 4.1,9.1 9.1,9.1 5,0 9.1,-4.1 9.1,-9.1 C 18.2,4.1 14.1,0 9.1,0 Z" style="fill:#00b156"/>
        <circle class="st0" cx="39.400002" cy="125.8" r="11.1" style="fill:#00b156"/>
        <path class="st0" d="m 9.1,133.9 c -5,0 -9.1,4.1 -9.1,9.1 0,5 4.1,9.1 9.1,9.1 5,0 9.1,-4.1 9.1,-9.1 0,-5 -4.1,-9.1 -9.1,-9.1 z" style="fill:#00b156"/>
      </g>
      <g transform="matrix(0.17534631,0,0,0.17534631,14,16.664913)">
        <path class="st1" d="m 35.2,59.4 c -9.2,0 -16.7,7.5 -16.7,16.7 0,9.2 7.5,16.7 16.7,16.7 9.2,0 16.7,-7.6 16.7,-16.8 0,-9.1 -7.5,-16.6 -16.7,-16.6 z" style="fill:#0099d8"/>
        <circle class="st1" cx="111.2" cy="26.299999" r="11.1" style="fill:#0099d8"/>
        <path class="st1" d="m 141.5,18.2 c 5,0 9.1,-4.1 9.1,-9.1 0,-5 -4.1,-9.1 -9.1,-9.1 -5,0 -9.1,4.1 -9.1,9.1 0,5 4.1,9.1 9.1,9.1 z" style="fill:#0099d8"/>
        <circle class="st1" cx="111.2" cy="125.8" r="11.1" style="fill:#0099d8"/>
        <path class="st1" d="m 141.5,133.9 c -5,0 -9.1,4.1 -9.1,9.1 0,5 4.1,9.1 9.1,9.1 5,0 9.1,-4.1 9.1,-9.1 0,-5 -4.1,-9.1 -9.1,-9.1 z" style="fill:#0099d8"/>
      </g>
    </g>
    <g transform="matrix(0.16262628,0,0,0.16262628,23.25423,16.981218)" style="fill:#000000">
      <path style="fill:#000000" d="M467 51.3c-6.3.2-12.9 2.8-16.6 7.9V25.8h-15.1v96.8h15.1V81.4c0-7.7 4.3-15.8 13.9-16.6 4.5-.3 8.2.8 10.6 3.3 2.6 2.6 3.8 5.9 3.8 10.1 0 9.1 0 42.7 0 42.7v1.7h15.1V78.3C493.8 69.9 491.2 63 486.2 58.1 481.4 53.4 474.8 51 467 51.3ZM398.6 109.5c-11.9 0-21.6-9.7-21.6-21.6 0-11.9 9.7-21.6 21.6-21.6 7.2 0 13.6 3.5 17.5 9l10.5-11c-6.7-8-16.8-13-28-13-20.2 0-36.6 16.4-36.6 36.7 0 20.3 16.4 36.6 36.6 36.6 12 0 22.6-5.8 29.3-14.7l-10.8-11c-3.7 6.4-10.6 10.6-18.5 10.6zM339 53.3v5.4c-3.4-3.4-12.2-9-24.7-6.9-16.6 2.8-27.9 17.9-28.5 35.2-.8 21.6 13 36.2 30.3 37.5 8.5.7 17.4-1.9 22.8-9.7v7.8H354V53.3Zm-4.8 50.9c-4 4.6-8.6 6-13.9 6-10.6 0-19.2-10-19.2-22.3 0-12.3 8.6-22.3 19.2-22.3 5.3 0 9.9 1.4 13.9 6 4 4.6 5.3 10.1 5.3 16.2 0 6.4-1.3 11.9-5.3 16.4zM555.3 53.3v5.4c-3.4-3.4-12.2-9-24.7-6.9-16.6 2.8-27.9 17.9-28.5 35.2-.8 21.6 13 36.2 30.3 37.5 8.5.7 17.4-1.9 22.8-9.7v7.8h15.1V53.3Zm-4.9 50.9c-4 4.6-8.6 6-13.9 6-10.6 0-19.2-10-19.2-22.3 0-12.3 8.6-22.3 19.2-22.3 5.3 0 9.9 1.4 13.9 6 4 4.6 5.3 10.1 5.3 16.2 0 6.4-1.3 11.9-5.3 16.4zM260.2 86.7 203.1 25.3c-.8-.9-2.4-.3-2.4.9v96.4h15.8V63.8l57.1 60.2c.8.9 2.4.3 2.4-.9V25.8h-15.8z" class="st2"/>
    </g>
  </g>
</svg>
