<svg xmlns="http://www.w3.org/2000/svg" width="120" height="60">
  <defs>
    <linearGradient x1="22.625" y1="-.173" x2="22.625" y2="211.998" id="a" gradientUnits="userSpaceOnUse">
      <stop stop-color="#16b0ed" stop-opacity=".8" offset="0%"/>
      <stop stop-color="#0f59b2" stop-opacity=".837" offset="100%"/>
    </linearGradient>
    <linearGradient x1="152.09" y1="-.148" x2="152.09" y2="211.998" id="b" gradientUnits="userSpaceOnUse">
      <stop stop-color="#7db643" offset="0%"/>
      <stop stop-color="#367533" offset="100%"/>
    </linearGradient>
    <linearGradient x1="87.475" y1="-.137" x2="87.475" y2="212.054" id="c" gradientUnits="userSpaceOnUse">
      <stop stop-color="#88c649" stop-opacity=".8" offset="0%"/>
      <stop stop-color="#439240" stop-opacity=".84" offset="100%"/>
    </linearGradient>
  </defs>
  <g fill="none" fill-rule="evenodd">
    <path d="M.027 45.46 45.224-.173v212.17L.027 166.894z" fill="url(#a)" transform="matrix(.13532 0 0 .13532 9.996 15.664)"/>
    <path d="M129.337 45.89 175.152-.148l-.93 212.147-45.197-45.104z" transform="matrix(-.13532 0 0 .13532 51.135 15.664)" fill="url(#b)"/>
    <path d="m45.194-.137 117.506 179.3-32.882 32.88L12.25 33.14z" fill="url(#c)" transform="matrix(.13532 0 0 .13532 9.996 15.664)"/>
    <path d="m16.118 26.9-.009.956-4.91-7.249.455-.463z" fill="#000" fill-opacity=".13"/>
    <path d="M40.58 36.368v-12.12h.63c.209 0 .33.102.363.305l.109 1.827c.55-.698 1.189-1.26 1.92-1.687s1.544-.64 2.44-.64c.662 0 1.246.106 1.75.317s.923.515 1.254.914.582.877.752 1.437.254 1.194.254 1.9v7.747h-1.15v-7.746c0-1.137-.258-2.029-.776-2.674s-1.309-.968-2.374-.968a4.186 4.186 0 0 0-2.205.615c-.678.41-1.284.972-1.817 1.687v9.086zm16.728-12.314c.686 0 1.32.117 1.904.352s1.09.578 1.519 1.028.763 1.003 1.004 1.66.361 1.41.361 2.26c0 .177-.026.3-.08.364s-.135.097-.25.097h-8.791v.231c0 .908.106 1.705.318 2.396s.514 1.266.906 1.732.865.817 1.42 1.052 1.176.352 1.861.352c.613 0 1.143-.067 1.592-.2a5.92 5.92 0 0 0 1.861-.9c.18-.134.31-.2.392-.2.106 0 .188.04.243.12l.319.39c-.196.243-.455.47-.778.68s-.681.393-1.077.542a7.926 7.926 0 0 1-1.272.358 7.065 7.065 0 0 1-1.365.134c-.833 0-1.592-.144-2.278-.433s-1.274-.707-1.765-1.259-.87-1.226-1.138-2.024-.403-1.709-.403-2.738c0-.867.125-1.668.374-2.401s.608-1.366 1.077-1.897 1.045-.946 1.726-1.245 1.455-.451 2.32-.451zm.078.812c-.635 0-1.205.095-1.708.285s-.939.462-1.306.819-.664.785-.891 1.282-.378 1.056-.452 1.673h8.12c0-.633-.092-1.2-.273-1.703s-.437-.928-.767-1.276-.726-.615-1.188-.801-.974-.279-1.535-.279zm11.415-.812c.883 0 1.673.148 2.37.444s1.286.715 1.766 1.258.844 1.198 1.096 1.962.379 1.625.379 2.574-.127 1.804-.38 2.566-.616 1.414-1.095 1.957-1.068.96-1.765 1.252-1.489.437-2.372.437-1.674-.146-2.371-.438-1.288-.71-1.77-1.252-.851-1.196-1.103-1.958-.378-1.617-.378-2.564.126-1.805.38-2.571.618-1.42 1.101-1.962 1.073-.963 1.771-1.259 1.487-.446 2.37-.446zm-.068 11.638c.722 0 1.354-.125 1.894-.373a3.591 3.591 0 0 0 1.352-1.07c.361-.466.631-1.026.81-1.683s.268-1.392.268-2.206c0-.807-.09-1.543-.268-2.202s-.449-1.225-.81-1.694a3.621 3.621 0 0 0-1.352-1.083c-.54-.253-1.172-.378-1.894-.378s-1.355.126-1.895.379a3.621 3.621 0 0 0-1.352 1.082c-.361.47-.633 1.034-.816 1.694s-.274 1.393-.274 2.202c0 .815.092 1.551.274 2.208s.455 1.217.816 1.681.812.822 1.352 1.07 1.172.373 1.895.373zm12.926.406h-2.713l-4.942-12.45h2.483c.217 0 .402.054.551.158s.253.238.31.4l2.398 6.65.345 1.14.248 1.117.248-1.117c.093-.372.212-.752.358-1.14l2.458-6.65c.057-.162.158-.295.303-.4s.32-.158.521-.158h2.362zm5.607-12.315h3.112v12.45h-3.112zm5.142 12.45V23.708h1.844c.39 0 .647.183.769.55l.195.927a7.132 7.132 0 0 1 .69-.671 4.43 4.43 0 0 1 .769-.525 3.937 3.937 0 0 1 1.91-.476c.79 0 1.439.213 1.95.64s.888.995 1.14 1.703a3.851 3.851 0 0 1 1.698-1.794 4.437 4.437 0 0 1 1.117-.415c.394-.09.79-.134 1.19-.134.69 0 1.306.105 1.843.317s.989.52 1.355.928.645.903.837 1.489.285 1.258.285 2.014v7.972h-3.016V28.26c0-.797-.175-1.398-.524-1.8s-.863-.605-1.539-.605c-.31 0-.596.054-.86.16a2.056 2.056 0 0 0-.696.457c-.2.2-.356.45-.47.75s-.171.648-.171 1.038v7.972h-3.027V28.26c0-.838-.17-1.448-.507-1.83s-.836-.575-1.495-.575c-.433 0-.837.108-1.215.325s-.73.51-1.056.885v9.167zm-5.142-16.645h3.112v2.571h-3.112z" fill="#444"/>
  </g>
</svg>
