<svg version="1.1" xmlns="http://www.w3.org/2000/svg" xmlns:xlink="http://www.w3.org/1999/xlink" x="0px" y="0px" viewBox="0 0 120 60" style="enable-background:new 0 0 120 60" xml:space="preserve">
  <g>
    <path class="st0" d="M33.7 22.6c-2.1 0-3.8.8-5 2-1.5 1.5-2.2 3.8-2.2 6.3 0 2.6.9 4.8 2.4 6.3 1.2 1.2 2.8 1.9 4.9 1.9 2 0 4-.6 5.3-2.2.6-.7 1.2-1.9 1.3-2.8h-3.6c-.2.6-.4 1-.8 1.3-.5.5-1.2.8-2.3.8-1 0-1.8-.4-2.4-1-.7-.7-1.2-1.8-1.2-3 0 0 0-.1 0-.1v0h10.5c0-.4 0-1 0-1 0-.2 0-.3 0-.5 0-1.8-.3-3.4-1.4-5C38.1 23.5 36 22.6 33.7 22.6zM37.1 29.2h-6.9v0c0-1 .3-1.8.8-2.5.5-.7 1.5-1.2 2.7-1.2 1.1 0 1.9.4 2.4.9C36.7 27.1 37.1 28 37.1 29.2L37.1 29.2zM19.1 22.6c-1.8 0-3.7.8-4.6 2.4l-.1.1V23H11v15.7h3.7v-6.8c0-1.3 0-2.7.5-3.8.5-1.2 1.4-2 2.8-2 1 0 1.7.3 2.1.8.4.5.6 1.3.6 2.2v9.6h3.7V28.2C24.4 24.9 22.4 22.6 19.1 22.6zM52.7 31.3c0 1.3-.2 2.7-1.2 3.6-.4.5-1.1.8-2 .8-1 0-1.7-.3-2.1-.8-.4-.5-.6-1.3-.6-2.2V23h-3.7v10.5c0 3.3 2.1 5.6 5.4 5.6 2 0 3.8-.9 4.5-2.4v3.3l3.3-2.7V23h-3.7V31.3zM107.9 22.8c-1.8 0-3.8.7-4.5 2.5V23h-3.5v15.7h3.7v-7.9c0-1.3.4-2.4 1-3.2.7-.8 1.7-1.3 3.1-1.3.4 0 .9 0 1.3.1v-3.6C108.6 22.8 108.2 22.8 107.9 22.8zM78.3 35c-.3-.3-.4-.7-.4-1.3v-6.1h4v-3h-4v-4.5l-3.7 3v11c0 3 1.6 4.8 4.7 4.8 1.1 0 2.2-.1 3.2-.4v-3.1c-1 .1-1.6.1-2.4.1C79 35.5 78.6 35.3 78.3 35zM67.9 29.4c-.3 0-.6-.1-.9-.1-.1 0-.2 0-.2 0 0 0-.1 0-.2 0s-.1 0-.1 0c-.6-.1-1.1-.1-1.9-.2-.9-.1-1.8-.5-1.8-1.6 0-.7.5-1.1 1-1.3.5-.3 1.2-.4 1.9-.4 1.5 0 2.6.6 3.3 1.5l.1.1 2.6-2.1c0 0 0-.1-.1-.1 0 0 0 0 0-.1l0 0c-.1-.1-.2-.2-.3-.3-.1-.1-.2-.2-.2-.3-1.3-1.3-3.3-1.8-5.2-1.8-1.6 0-3.2.4-4.5 1.2-.9.6-1.7 1.5-1.9 2.6-.1.3-.1.6-.1.9 0 0 0 .2 0 .4 0 0 0 .1 0 .1 0 .2 0 .4 0 .5.3 1.7 1.6 3.1 3.5 3.5.1 0 .2 0 .3.1 0 0 .1 0 .2 0 0 0 0 0 .1 0 1.2.2 2.6.3 3.8.5.9.1 1.6.6 1.6 1.4 0 .7-.5 1.1-.8 1.3-.4.3-.9.4-1.3.5-.4.1-1 .1-1.3.1-.6 0-1.2-.1-1.6-.2-1.2-.4-2.4-1.3-2.9-2l-2.6 2.1c.2.3 1.1 1.3 2.2 1.9 1.6.9 3.1 1.3 4.7 1.3 1.7 0 3.4-.3 4.7-1.1 1.3-.8 2.2-2 2.3-3.7 0-.1 0-.2 0-.3C72.2 31.3 70.4 29.8 67.9 29.4zM90.9 22.6c-3.5 0-6.3 1.6-6.5 5h3.6c.1-1.4 1.1-2.2 2.9-2.2 2.1 0 2.7 1 2.7 2.5v1L89 29.2c-3 .2-5.3 1.9-5.3 4.9 0 .2 0 .5 0 .7.3 2.3 2.2 4.2 5.6 4.2.1 0 .2 0 .2 0 2-.1 3.5-1.2 4-2.3v2h3.7v-9.7c0-1.1-.1-2.2-.4-3.2C95.9 23.4 93.6 22.6 90.9 22.6zM93.6 32.4c0 2.3-1.7 3.6-4 3.6-1.2 0-2.2-.8-2.2-2 0-1.3 1.1-2 2.2-2.1l4-.3V32.4z"/>
  </g>
</svg>
