<svg xmlns="http://www.w3.org/2000/svg" version="1.1" x="0" y="0" viewBox="0 0 120 60" width="120" height="60">
  <g transform="translate(0 -1.252)">
    <path style="fill:#0082c9;stroke-width:.58436364" d="M60.03 8.208c-6.896 0-12.74 4.675-14.551 10.986-1.578-3.39-4.968-5.727-8.941-5.727-5.376 0-9.818 4.441-9.818 9.876 0 5.434 4.442 9.876 9.876 9.876 3.915 0 7.363-2.338 8.941-5.727 1.753 6.31 7.597 10.986 14.492 10.986 6.837 0 12.68-4.617 14.55-10.87 1.579 3.273 4.968 5.552 8.825 5.552 5.434 0 9.876-4.441 9.876-9.876 0-5.434-4.442-9.817-9.876-9.817-3.857 0-7.246 2.28-8.824 5.552-1.87-6.195-7.655-10.811-14.55-10.811Zm0 5.785c5.2 0 9.349 4.149 9.349 9.35 0 5.2-4.149 9.35-9.35 9.35-5.2 0-9.35-4.15-9.35-9.35 0-5.201 4.15-9.35 9.35-9.35zm-23.434 5.26a4.065 4.065 0 0 1 4.09 4.09 4.065 4.065 0 0 1-4.09 4.09 4.065 4.065 0 0 1-4.09-4.09 4.065 4.065 0 0 1 4.09-4.09zm46.808 0a4.065 4.065 0 0 1 4.09 4.09 4.065 4.065 0 0 1-4.09 4.09 4.065 4.065 0 0 1-4.09-4.09c.058-2.28 1.81-4.09 4.09-4.09z" class="st0"/>
    <g transform="matrix(.3536 0 0 .3536 25.753 36.085)">
      <path style="fill:#0082c9" d="M37.7 28.4c5.9 0 9.2 4.2 9.2 10.5 0 .6-.5 1.1-1.1 1.1H29.9c.1 5.6 4 8.8 8.5 8.8 2.8 0 4.8-1.2 5.8-2 .6-.4 1.1-.3 1.4.3l.3.5c.3.5.2 1-.3 1.4-1.2.9-3.8 2.4-7.3 2.4-6.5 0-11.5-4.7-11.5-11.5.1-7.2 4.9-11.5 10.9-11.5zm6.1 9.4c-.2-4.6-3-6.9-6.2-6.9-3.7 0-6.9 2.4-7.6 6.9z" class="st0"/>
      <path style="fill:#0082c9" d="M76.9 31.6v-7.7c0-.7.4-1.1 1.1-1.1h.8c.7 0 1 .4 1 1.1v5.2h4.5c.7 0 1.1.4 1.1 1.1v.3c0 .7-.4 1-1.1 1h-4.5v11c0 5.1 3.1 5.7 4.8 5.8.9.1 1.2.3 1.2 1.1v.6c0 .7-.3 1-1.2 1-4.8 0-7.7-2.9-7.7-8.1V31.6z" class="st0"/>
      <path style="fill:#0082c9" d="M99.8 28.4c3.8 0 6.2 1.6 7.3 2.5.5.4.6.9.1 1.5l-.3.5c-.4.6-.9.6-1.5.2-1-.7-2.9-2-5.5-2-4.8 0-8.6 3.6-8.6 8.9 0 5.2 3.8 8.8 8.6 8.8 3.1 0 5.2-1.4 6.2-2.3.6-.4 1-.3 1.4.3l.3.4c.3.6.2 1-.3 1.5-1.1.9-3.8 2.8-7.8 2.8-6.5 0-11.5-4.7-11.5-11.5.1-6.8 5.1-11.6 11.6-11.6z" class="st0"/>
      <path style="fill:#0082c9" d="M113.1 21.3c0-.7-.4-1.1.3-1.1h.8c.7 0 1.8.4 1.8 1.1v23.9c0 2.8 1.3 3.1 2.3 3.2.5 0 .9.3.9 1v.7c0 .7-.3 1.1-1.1 1.1-1.8 0-5-.6-5-5.4V21.3z" class="st0"/>
      <path style="fill:#0082c9" d="M133.6 28.4c6.4 0 11.6 4.9 11.6 11.4 0 6.6-5.2 11.6-11.6 11.6-6.4 0-11.6-5-11.6-11.6 0-6.5 5.2-11.4 11.6-11.4zm0 20.4c4.7 0 8.5-3.8 8.5-9 0-5-3.8-8.7-8.5-8.7s-8.6 3.8-8.6 8.7c.1 5.1 3.9 9 8.6 9z" class="st0"/>
      <path style="fill:#0082c9" d="M183.5 28.4c5.3 0 7.2 4.4 7.2 4.4h.1s-.1-.7-.1-1.7v-9.9c0-.7-.3-1.1.4-1.1h.8c.7 0 1.8.4 1.8 1.1v28.5c0 .7-.3 1.1-1 1.1h-.7c-.7 0-1.1-.3-1.1-1v-1.7c0-.8.2-1.4.2-1.4h-.1s-1.9 4.6-7.6 4.6c-5.9 0-9.6-4.7-9.6-11.5-.2-6.8 3.9-11.4 9.7-11.4zm.1 20.4c3.7 0 7.1-2.6 7.1-8.9 0-4.5-2.3-8.8-7-8.8-3.9 0-7.1 3.2-7.1 8.8.1 5.4 2.9 8.9 7 8.9z" class="st0"/>
      <path style="fill:#0082c9" d="M1 50.9h.8c.7 0 1.1-.4 1.1-1.1V28.4c0-3.4 3.7-5.8 7.9-5.8s7.9 2.4 7.9 5.8v21.5c0 .7.4 1.1 1.1 1.1h.8c.7 0 1-.4 1-1.1V28.2c0-5.7-5.7-8.5-10.9-8.5-5 0-10.7 2.8-10.7 8.5v21.6c0 .7.3 1.1 1 1.1z" class="st0"/>
      <path style="fill:#0082c9" d="M167.9 28.9h-.8c-.7 0-1.1.4-1.1 1.1v12.1c0 3.4-2.2 6.5-6.5 6.5-4.2 0-6.5-3.1-6.5-6.5V30c0-.7-.4-1.1-1.1-1.1h-.8c-.7 0-1 .4-1 1.1v12.9c0 5.7 4.2 8.5 9.4 8.5s9.4-2.8 9.4-8.5V30c.1-.7-.3-1.1-1-1.1z" class="st0"/>
      <path style="fill:#0082c9" d="M68.9 28.8c-.2 0-.5.2-.7.5l-4 4.8-3 3.6-4.6-5.5-2.5-3c-.2-.3-.5-.4-.7-.4-.2 0-.5.1-.8.3l-.6.5c-.5.4-.5.9-.1 1.5l4 4.8 3.4 4-4.9 5.9-2.5 3c-.4.5-.4 1.1.1 1.6l.6.5c.5.4 1 .3 1.5-.2l4-4.8 3-3.6 4.6 5.5 2.5 3c.4.5 1 .6 1.5.1l.6-.5c.5-.4.5-.9.1-1.5l-4-4.8-3.4-4 4.9-5.9 2.5-3c.4-.5.4-1.1-.1-1.6l-.6-.6c-.3-.2-.5-.3-.8-.2z" class="st0"/>
    </g>
  </g>
</svg>
