<svg xmlns="http://www.w3.org/2000/svg" viewBox="178 49.28 120 60" width="120" height="60">
  <path d="M241.797 86.165h-2.264l-7.216-8.347v8.347h-2.93V72.421h2.203l7.276 8.57v-8.57h2.93zm12.47-4.83c0 2.951-2.182 5.134-5.153 5.134-2.991 0-5.194-2.183-5.194-5.134 0-2.93 2.203-5.053 5.194-5.053 2.97 0 5.154 2.122 5.154 5.053zm-2.768 0c0-1.435-.929-2.547-2.385-2.547-1.476 0-2.426 1.113-2.426 2.547 0 1.455.95 2.627 2.426 2.627 1.455 0 2.385-1.172 2.385-2.627zm8.104 2.506h4.73v2.324h-8.872v-1.313l4.892-6.044h-4.773v-2.325h8.752v1.496zm16.978-2.526c0 2.85-2.142 5.052-4.81 5.052-1.092 0-2.001-.283-2.75-.768v.566h-2.808v-14.35h2.809v5.235c.748-.485 1.657-.768 2.749-.768 2.668 0 4.81 2.223 4.81 5.033zm-2.769 0c0-1.415-1.051-2.648-2.506-2.648-.829 0-1.657.283-2.284 1.112v3.093c.627.849 1.455 1.13 2.284 1.13 1.455 0 2.506-1.252 2.506-2.687zm14.128 1.03h-7.054c.283.97 1.03 1.717 2.425 1.717.788 0 1.334-.242 1.637-.727h2.93c-.525 1.86-2.344 3.053-4.627 3.053-3.113 0-5.196-2.163-5.196-5.053 0-2.91 2.062-5.053 5.154-5.053 2.729 0 4.79 1.96 4.79 4.85 0 .405 0 .81-.06 1.213zm-7.094-1.961h4.365c-.162-1.131-.91-1.799-2.082-1.799-1.293 0-2.02.768-2.283 1.799z"/>
  <path d="m221.098 69.17-16.995 19.194a.22.22 0 0 1-.319.01l-7.793-7.787a.219.219 0 0 1-.032-.27l2.113-3.46a.22.22 0 0 1 .342-.04l4.672 4.675c.068.067.178.06.236-.016l13.082-17.257a.22.22 0 0 1 .308-.041 19.059 19.059 0 0 1 4.406 4.728.219.219 0 0 1-.02.265z" fill="#28e171"/>
  <path d="M222.481 79.28c0 9.522-7.719 17.24-17.24 17.24-9.515 0-17.241-7.728-17.24-17.242 0-9.521 7.719-17.238 17.24-17.238 2.847 0 5.534.69 7.9 1.913a.22.22 0 0 1 .075.327l-1.806 2.383a.313.313 0 0 1-.381.094 13.738 13.738 0 0 0-5.766-1.27c-7.618-.012-13.816 6.175-13.815 13.793 0 7.596 6.14 13.757 13.727 13.792a13.769 13.769 0 0 0 13.857-13.748 13.824 13.824 0 0 0-.4-3.351.374.374 0 0 1 .085-.337l2.27-2.563a.219.219 0 0 1 .368.066 17.199 17.199 0 0 1 1.125 6.14z"/>
</svg>
