<svg xmlns="http://www.w3.org/2000/svg" viewBox="0 0 64 64" version="1.1" width="64" height="64">
  <g transform="translate(-12.87 -44.132) scale(2.53772)">
    <path style="fill:#00c492;stroke-width:.49989262" d="M12.738 38.729a.937.937 0 0 1-.05-.103 1.314 1.314 0 0 1-.09-.74h-5.96l8.86-15.593 2.909 5.113.843-1.492-2.535-4.467a1.55 1.55 0 0 0-1.238-.817 1.378 1.378 0 0 0-1.2.827L5.298 37.24a1.587 1.587 0 0 0-.078 1.49 1.381 1.381 0 0 0 1.313.633h7.518a1.378 1.378 0 0 1-1.314-.633z"/>
    <path style="fill:#008776;stroke-width:.49989262" d="m30.023 37.239-7.376-12.994a1.554 1.554 0 0 0-1.243-.827 1.374 1.374 0 0 0-1.2.825l-.955 1.67.85 1.493 1.313-2.325 7.297 12.804h-2.775a1.243 1.243 0 0 1-.058.631.8.8 0 0 1-.057.129l-.024.047a1.588 1.588 0 0 1-1.338.67h4.341a1.586 1.586 0 0 0 1.338-.67 1.378 1.378 0 0 0-.113-1.453z"/>
    <path style="fill:#2d4a5d;stroke-width:.49989262" d="m25.795 38.692.024-.047a.8.8 0 0 0 .057-.129 1.243 1.243 0 0 0 .058-.63 1.92 1.92 0 0 0-.242-.647l-5.588-9.833-.854-1.492-.849 1.492-5.586 9.833a1.99 1.99 0 0 0-.216.647 1.314 1.314 0 0 0 .082.74.928.928 0 0 0 .05.103 1.381 1.381 0 0 0 1.313.633H24.45a1.592 1.592 0 0 0 1.345-.67zM19.249 28.9l5.109 8.986H14.144Z"/>
  </g>
</svg>
