<svg xmlns="http://www.w3.org/2000/svg" xmlns:xlink="http://www.w3.org/1999/xlink" width="64" height="64">
  <defs>
    <radialGradient id="a" cx="35.31" cy="31.11" r="10.22" gradientTransform="matrix(1.07 0 0 1 .36 0)" gradientUnits="userSpaceOnUse">
      <stop offset="0" stop-color="#d60015"/>
      <stop offset=".01" stop-color="#d50015"/>
      <stop offset=".27" stop-color="#b60917"/>
      <stop offset=".53" stop-color="#a01019"/>
      <stop offset=".78" stop-color="#93141a"/>
      <stop offset="1" stop-color="#8e151a"/>
    </radialGradient>
    <radialGradient id="c" cx="38.17" r="10.25" xlink:href="#a"/>
    <radialGradient xlink:href="#a" id="b"/>
    <linearGradient id="d" x1="42.1" y1="20.3" x2="23.58" y2="27.04" gradientUnits="userSpaceOnUse">
      <stop offset="0" stop-color="#e78b62"/>
      <stop offset=".02" stop-color="#dc684e"/>
      <stop offset=".05" stop-color="#d24c3d"/>
      <stop offset=".08" stop-color="#cb3630"/>
      <stop offset=".11" stop-color="#c62627"/>
      <stop offset=".14" stop-color="#c31d22"/>
      <stop offset=".19" stop-color="#c21a20"/>
      <stop offset=".25" stop-color="#d04239"/>
      <stop offset=".33" stop-color="#e17157"/>
      <stop offset=".37" stop-color="#e78362"/>
      <stop offset=".39" stop-color="#e57a5c"/>
      <stop offset=".5" stop-color="#dd5a46"/>
      <stop offset=".61" stop-color="#d64235"/>
      <stop offset=".73" stop-color="#d23029"/>
      <stop offset=".85" stop-color="#cf2522"/>
      <stop offset="1" stop-color="#ce2220"/>
    </linearGradient>
    <linearGradient id="e" x1="17.56" y1="31.73" x2="45.86" y2="21.43" gradientUnits="userSpaceOnUse">
      <stop offset="0" stop-color="#878787"/>
      <stop offset=".09" stop-color="#959595"/>
      <stop offset=".27" stop-color="#bababa"/>
      <stop offset=".51" stop-color="#f6f6f6"/>
      <stop offset=".55" stop-color="#fff"/>
      <stop offset=".57" stop-color="#f5f5f5"/>
      <stop offset=".64" stop-color="#d9d9d9"/>
      <stop offset=".69" stop-color="#c8c8c8"/>
      <stop offset=".74" stop-color="#c2c2c2"/>
      <stop offset=".79" stop-color="#cfcfcf"/>
      <stop offset=".9" stop-color="#f2f2f2"/>
      <stop offset=".93" stop-color="#fff"/>
      <stop offset=".97" stop-color="#f3f3f3"/>
      <stop offset="1" stop-color="#e0e0e0"/>
    </linearGradient>
  </defs>
  <path d="M37.05 25.45v8.78c0 .73-.26 1.53-1.1 1.53-.4 0-.55-.1-.64-.24a6.65 6.65 0 0 0 1.12-3.71 6.75 6.75 0 0 0-.43-2.33c0-.12-.1-.24-.15-.36a5.73 5.73 0 0 0-5.19-3.6 6 6 0 0 0-5.75 6.29 6 6 0 0 0 5.75 6.29 5.33 5.33 0 0 0 2.72-.75 4 4 0 0 0 2.35.76 4.17 4.17 0 0 0 4-3.26v-9.4zm-5 10.16a3 3 0 0 1-1.41.36c-1.9 0-3.46-1.88-3.46-4.2s1.55-4.2 3.46-4.2a3.5 3.5 0 0 1 3.16 2.49 4.92 4.92 0 0 1 .3 1.7 4.3 4.3 0 0 1-2.02 3.83z" fill="url(#b)" transform="matrix(2.2079 0 0 2.2079 -51.253 -30.572)"/>
  <path d="M48.97 25.27H44.8l-4.26 5v3.8l1.65-1.54 3.77 5.6h3.73l-5.3-8z" fill="url(#c)" transform="matrix(2.2079 0 0 2.2079 -51.253 -30.572)"/>
  <path d="M57.155 25.509a28.15 28.15 0 0 1-5.718 0 1.987 1.987 0 0 1-.375 0c-9.119-2.65-11.481-7.176-17.664-11.04A31.838 31.838 0 0 0 .037 16.677a23.006 23.006 0 0 1 6.116 7.419c2.914 5.299 1.435 8.61 1.435 8.61s8.059-8.39 17.442-8.831c7.905-.287 17.09 2.782 24.287 3.577a26.738 26.738 0 0 0 3.82.176c7.64-.287 10.598-4.636 10.598-4.636a11.04 11.04 0 0 1-6.535 2.517z" fill="#313132" opacity=".5"/>
  <path d="M35.82 22c5.07 1.35 6.2 3.3 10.3 3.27a5.42 5.42 0 0 0-.79-.4c-1.9-.36-3.14-2.3-7-4.5a13.62 13.62 0 0 0-15.1 1 .07.07 0 0 0 0 .11 9 9 0 0 1 2.63 3c.17-.2.34-.38.5-.55 3.33-3.34 6.47-2.7 9.44-1.92z" fill="url(#d)" transform="matrix(2.2079 0 0 2.2079 -51.253 -30.572)"/>
  <path d="M49.53 25a8.35 8.35 0 0 1-2.6.14c-4.1-.3-7-2.25-10.8-3.48A8.78 8.78 0 0 0 26.41 24c-.17.17-.34.35-.5.55l.05.1a5.6 5.6 0 0 1 .87 3.57s3.62-3.6 7.84-3.75c3.56-.13 7.7 1.2 11 1.54a12.36 12.36 0 0 0 1.72.08c3.44-.12 4.82-1.92 4.82-1.92s-.46.4-2.67.83z" fill="url(#e)" transform="matrix(2.2079 0 0 2.2079 -51.253 -30.572)"/>
</svg>
