<svg xmlns="http://www.w3.org/2000/svg" xmlns:xlink="http://www.w3.org/1999/xlink" viewBox="0 0 90 45" height="60" width="120">
  <defs>
    <path d="M-69.65 120.638a139.301 139.301 120 1 1 139.301 0L27.71 47.993a55.418 55.418 120 1 0-55.418 0z" id="a"/>
  </defs>
  <g transform="translate(-20.44 -1.91) scale(.79893)">
    <use xlink:href="#a" x="298" y="140" transform="matrix(.0634 0 0 .0634 29.662 12.959)" fill="#ff0101"/>
    <use xlink:href="#a" x="457" y="415" transform="matrix(-.0634 0 0 -.0634 87.615 65.585)" fill="#0101ff"/>
    <use xlink:href="#a" x="142" y="415" transform="scale(-.0634) rotate(60 661.883 -753.279)" fill="#01ff01"/>
  </g>
  <path d="M39.302 16.12c1-.09 2.012-.089 3.007.054.614.108 1.265.268 1.725.715.483.538.602 1.287.707 1.977.174 1.431.154 2.882 0 4.315-.103.692-.203 1.454-.66 2.023-.5.507-1.23.652-1.922.759-1 .124-2.014.153-3.017.053-.68-.076-1.39-.189-1.968-.576-.374-.23-.575-.656-.712-1.063-.274-.847-.309-1.746-.345-2.629-.005-1.166.017-2.344.245-3.49.123-.535.273-1.124.725-1.48.638-.463 1.448-.575 2.21-.654zm.166 1.6c.848-.069 1.714-.09 2.552.076.325.065.708.23.768.593.254 1.041.195 2.126.205 3.19-.03.757-.013 1.539-.267 2.264-.221.476-.825.515-1.28.584-.912.051-1.86.098-2.744-.173-.407-.108-.538-.538-.6-.913-.168-1.089-.115-2.196-.092-3.293.047-.615.039-1.253.26-1.845.253-.384.777-.426 1.198-.49zm8.937 1.715c.615-.385 1.362-.448 2.063-.384.654.056 1.38.278 1.731.881.418.756.442 1.65.471 2.493-.018.867-.034 1.772-.384 2.578-.204.49-.675.81-1.177.938-.77.19-1.618.21-2.36-.097-.401-.157-.679-.499-.909-.848v3.963h-1.704v-9.841h1.646l-.046 1.013c.204-.248.384-.523.67-.693zm.554.886c.475-.036.977-.046 1.422.149.281.121.43.419.48.707.148.744.13 1.513.077 2.266-.052.455-.125 1.044-.626 1.22-.58.189-1.24.201-1.811-.02-.532-.23-.595-.869-.646-1.368-.03-.767-.077-1.556.154-2.302.115-.422.553-.614.957-.653zm5.741-.88c.834-.428 1.811-.444 2.727-.4.768.064 1.686.19 2.106.92.473.88.396 1.922.462 2.881h-4.642c.054.498-.01 1.035.241 1.491.216.361.67.434 1.056.456.476.003.988.042 1.427-.18.251-.196.254-.537.284-.834h1.63c-.02.567-.092 1.202-.548 1.6-.692.613-1.66.677-2.534.694-.771-.023-1.586-.062-2.277-.442-.559-.33-.738-1-.836-1.614a10.5 10.5 0 0 1-.05-2.69c.087-.704.277-1.538.954-1.897zm1 1.08c.463-.282 1.037-.225 1.557-.218.323.035.715.054.925.338.213.352.176.784.176 1.179-.999.001-1.996.004-2.994-.001.015-.44-.02-.976.335-1.307zm7.916-1.076c.588-.408 1.346-.465 2.037-.385.588.062 1.21.286 1.558.794.308.42.394.957.399 1.46l-.001 4.667h-1.62l-.002-4.414c-.015-.321-.003-.693-.246-.94-.258-.28-.663-.335-1.022-.331-.436-.003-.907.072-1.244.373-.328.28-.461.732-.455 1.15l-.002 4.163h-1.61v-6.864h1.584l-.054 1.204c.173-.325.353-.669.672-.875zm6.903-3.019c.89-.307 1.844-.341 2.767-.374.9.005 1.843.013 2.685.384.427.179.724.57.868 1 .235.644.242 1.34.246 2.019-.62 0-1.24.001-1.86-.001-.01-.477.026-1.012-.269-1.417-.307-.305-.766-.304-1.153-.35-.807-.016-1.645-.068-2.417.21-.278.089-.423.367-.48.635-.157.72-.159 1.462-.157 2.196.009.981-.007 1.976.203 2.941.056.354.38.57.706.648.753.188 1.54.154 2.31.115.4-.052.89-.079 1.142-.447.269-.44.23-.98.21-1.473h1.877c-.007.779-.021 1.584-.304 2.322-.154.386-.447.714-.845.861-.767.308-1.615.327-2.42.384-.942.016-1.896-.007-2.818-.226-.54-.14-1.13-.39-1.381-.926-.32-.71-.378-1.5-.461-2.264l-.089-3.032c.049-.819.123-1.682.565-2.395.235-.398.647-.646 1.076-.792zm6.975-.286 1.939.01 1.953 5.961.677 2.315.75-2.502 1.876-5.775 1.917-.012v.212l-3.105 9.62c-.96.019-1.922.023-2.882-.002l-3.124-9.826z" fill="#050505" fill-rule="evenodd"/>
</svg>
