<svg version="1.1" shape-rendering="geometricPrecision" image-rendering="optimizeQuality" text-rendering="geometricPrecision" xmlns="http://www.w3.org/2000/svg" x="0" y="0" width="120" height="60" viewBox="0 0 120 60" style="enable-background:new 0 0 120 60">
  <path class="st0" d="M20 20.2h80v19.6H20V20.2z"/>
  <path class="st0" d="M15.7 10.9c-2.1 0-3.8 1.7-3.8 3.8v30.5c0 2.1 1.7 3.8 3.8 3.8h88.7c2.1 0 3.8-1.7 3.8-3.8V14.8c0-2.1-1.7-3.8-3.8-3.8H15.7v-.1z"/>
  <path class="st1" d="M24 34.1c0 1.4.4 2.1 1.7 2.1 1.3 0 1.7-.7 1.7-2.1v-9.5c0-1.4-.4-2.1-1.7-2.1-1.3 0-1.7.7-1.7 2.1v9.5zm-3.2-9.6c0-2.7 1.6-4.8 4.9-4.8 3.4 0 4.9 2.2 4.9 4.8v9.7c0 2.7-1.6 4.8-4.9 4.8-3.4 0-4.9-2.2-4.9-4.8v-9.7zm14.9 11.3c.6.4 1.1.7 1.7.7.8 0 1.4-.4 1.4-2.3V29c0-1.8-.6-2.3-1.4-2.3-.6 0-1.1.3-1.7.7v8.4zm-.2-11.1v1.5h.1c1-1.2 1.7-1.7 3.1-1.7 1.8 0 3 1.4 3 3.9V35c0 2.5-1.1 3.9-3 3.9-1.3 0-1.9-.5-3-1.5V43h-2.9V24.7h2.7zm14.3 5.1v-.7c0-1.6-.6-2.3-1.6-2.3s-1.6.7-1.6 2.3v.7h3.2zm2.9 2.4h-6.1v2c0 1.6.6 2.3 1.6 2.3s1.6-.7 1.6-2.3v-.3h2.9c-.1 3-1.3 5-4.5 5-3.3 0-4.5-2.1-4.5-5.2v-4.1c0-3.1 1.2-5.2 4.5-5.2s4.5 2.1 4.5 5.2v2.6zm1.9 6.5v-14h2.8v1.4c1.2-1 1.8-1.7 3.5-1.7 1.5 0 2.4 1.1 2.4 2.9v11.3h-2.9V27.8c0-.7-.4-1-1-1s-1.2.4-1.9.9v11h-2.9zM68.7 36h1.1c1.7 0 2.3-.6 2.3-2.6v-8.2c0-2-.6-2.6-2.3-2.6h-1.1V36zm-3.2-16.1h4.8c3.3 0 5.1 1.8 5.1 5.7V33c0 3.8-1.8 5.7-5.1 5.7h-4.8V19.9zM80.4 27v11.7h-2.9V19.9h3l3.9 10.7h.1V19.9h2.9v18.8h-2.8L80.4 27zm15.5-2.7c-.1-1.6-1-2.1-1.7-2.1-1 0-1.6.7-1.6 1.8 0 3.2 6.6 4.7 6.6 9.8 0 3.1-2.1 4.8-5.1 4.8-3 0-4.7-2.4-4.8-5.2l3.1-.4c.1 1.9.9 2.8 1.9 2.8 1.1 0 1.9-.6 1.9-1.7 0-3.7-6.6-4.7-6.6-10.1 0-3 1.8-4.7 5-4.7 2.6 0 4.2 1.9 4.5 4.5l-3.2.5z"/>
</svg>
