<svg xmlns="http://www.w3.org/2000/svg" width="256" height="55">
  <g style="fill-rule:evenodd">
    <path d="M76.401 45.797c3.738-.047 6.742-1.42 9.016-4.115s3.44-6.421 3.506-11.165c-.062-4.699-1.234-8.364-3.506-10.997s-5.278-3.971-9.016-4.015c-3.735.042-6.733 1.373-8.992 3.998s-3.42 6.296-3.48 11.014c.06 4.749 1.22 8.47 3.48 11.165s5.257 4.066 8.992 4.114zm0-3.252c-2.64-.047-4.731-1.136-6.275-3.274s-2.333-5.057-2.367-8.754c.034-3.667.823-6.534 2.367-8.604s3.635-3.121 6.275-3.157c2.64.035 4.732 1.089 6.276 3.157s2.332 4.936 2.37 8.604c-.034 3.697-.823 6.615-2.37 8.754s-3.635 3.23-6.276 3.274zm19.037.758c1.002.79 2.005 1.397 3.006 1.828s2.006.656 3.007.663c2.554-.03 4.73-1.054 6.532-3.08s2.742-4.89 2.823-8.592c-.008-3.408-.738-6.085-2.188-8.05s-3.572-2.963-6.365-3.002a8.605 8.605 0 0 0-3.67.896A15.267 15.267 0 0 0 95.35 26.1h-.134l-.31-2.495h-3.03v30.782h3.653V47.08zm.088-2.851v-11.36c1.062-.96 2.067-1.69 3.013-2.188s1.877-.75 2.779-.752c2.025.036 3.493.767 4.388 2.2s1.332 3.356 1.314 5.778c-.035 2.697-.623 4.798-1.76 6.304s-2.615 2.27-4.432 2.294c-.723.006-1.539-.164-2.45-.518s-1.862-.938-2.851-1.753zm16.484-5.972c.07 3.57 1.076 6.341 3.012 8.313s4.396 2.972 7.362 3.001c1.467-.018 2.788-.238 3.965-.663s2.23-.945 3.163-1.564l-1.292-2.406a11.286 11.286 0 0 1-2.529 1.23 9.178 9.178 0 0 1-2.862.463c-2.096-.023-3.783-.71-5.061-2.054s-1.997-3.199-2.155-5.563h14.612a9.478 9.478 0 0 0 .1-.919c.022-.342.033-.704.033-1.086-.014-3.132-.764-5.599-2.25-7.4s-3.615-2.72-6.392-2.756c-2.568.03-4.805 1.047-6.71 3.046s-2.905 4.784-3.001 8.358zm3.563-1.649c.265-2.195.982-3.885 2.15-5.067s2.53-1.78 4.087-1.793c1.704.012 3.013.603 3.942 1.777s1.392 2.868 1.403 5.083zm17.171 12.432h3.653v-15.68c1.062-1.095 2.045-1.924 2.946-2.49s1.894-.85 2.98-.852c1.417-.012 2.457.447 3.118 1.375s.988 2.402.98 4.416v13.23h3.653v-13.72c.009-2.77-.522-4.872-1.593-6.304s-2.737-2.154-5-2.161c-1.48.023-2.807.377-3.98 1.058s-2.273 1.546-3.28 2.595h-.134l-.31-3.119h-3.03z" fill="#0e85cd"/>
    <g fill="#555">
      <path d="M165.278 45.797c3.737-.047 6.742-1.42 9.015-4.115s3.44-6.421 3.507-11.165c-.062-4.699-1.235-8.364-3.507-10.997s-5.278-3.971-9.015-4.015c-3.736.042-6.733 1.373-8.993 3.998s-3.42 6.296-3.48 11.014c.06 4.749 1.22 8.47 3.48 11.165s5.258 4.066 8.993 4.114zm0-3.252c-2.64-.047-4.732-1.136-6.276-3.274s-2.332-5.057-2.37-8.754c.034-3.667.823-6.534 2.37-8.604s3.635-3.121 6.276-3.157c2.64.035 4.731 1.089 6.275 3.157s2.333 4.936 2.371 8.604c-.034 3.697-.823 6.615-2.37 8.754s-3.636 3.23-6.276 3.274zm26.624-28.824a9.702 9.702 0 0 0-1.67-.508 9.552 9.552 0 0 0-1.938-.206c-2.154.024-3.754.667-4.783 1.933s-1.549 3.011-1.543 5.235v3.43l-2.94.222v2.766h2.94v18.67h3.653v-18.67h4.594V23.61h-4.594v-3.43c-.002-1.383.247-2.426.741-3.13s1.26-1.056 2.283-1.057c.403 0 .811.048 1.225.133a6.297 6.297 0 0 1 1.225.401z"/>
      <path d="M202.579 13.721a9.702 9.702 0 0 0-1.67-.507 9.552 9.552 0 0 0-1.938-.206c-2.154.024-3.754.667-4.783 1.932s-1.55 3.012-1.543 5.236v3.43h-2.47l-.475 2.989h2.94v18.67h3.653v-18.67h4.594V23.61h-4.594v-3.43c-.002-1.383.247-2.427.741-3.13s1.26-1.057 2.283-1.058c.402 0 .811.048 1.225.133a6.297 6.297 0 0 1 1.225.401zm3.77 5.439c.73-.012 1.33-.233 1.804-.663s.718-.996.735-1.699c-.017-.722-.262-1.293-.735-1.715s-1.075-.642-1.804-.646c-.73.012-1.331.225-1.805.646s-.718.988-.734 1.715c.016.703.261 1.27.734 1.7s1.075.65 1.805.662zm-1.871 26.104h3.653v-21.65h-3.653zm5.807-10.784c.064 3.609 1.039 6.39 2.924 8.347s4.296 2.944 7.233 2.963a9.928 9.928 0 0 0 3.754-.752 11.513 11.513 0 0 0 3.285-2.054l-1.648-2.406c-.649.593-1.4 1.107-2.255 1.532s-1.796.638-2.823.656c-2.014-.035-3.623-.798-4.828-2.288s-1.824-3.488-1.855-5.997c.038-2.532.676-4.551 1.916-6.058s2.858-2.28 4.855-2.322c.861.012 1.645.19 2.35.54s1.377.809 2.015 1.376l1.827-2.361c-.729-.711-1.61-1.315-2.645-1.81s-2.262-.752-3.68-.774c-2.871.023-5.305 1.015-7.3 2.98s-3.038 4.772-3.125 8.425zm16.823 0c.07 3.57 1.076 6.341 3.013 8.313s4.395 2.972 7.361 3.001c1.467-.018 2.788-.238 3.965-.663s2.23-.945 3.163-1.564l-1.292-2.406a11.286 11.286 0 0 1-2.528 1.23 9.178 9.178 0 0 1-2.863.463c-2.096-.023-3.783-.71-5.061-2.054s-1.997-3.199-2.155-5.563h14.612a9.473 9.473 0 0 0 .1-.919c.022-.342.033-.704.033-1.086-.014-3.132-.764-5.599-2.25-7.4s-3.615-2.72-6.392-2.756c-2.568.03-4.805 1.047-6.71 3.046s-2.905 4.784-3.001 8.358zm3.563-1.649c.266-2.195.982-3.885 2.15-5.067s2.53-1.78 4.087-1.793c1.704.012 3.013.603 3.942 1.777s1.392 2.868 1.403 5.083z"/>
    </g>
    <path d="m94.408 9.564.889-2.591.8-2.378.737-2.42h.084l.738 2.42.8 2.378.889 2.59zm6.825 5.582h1.01L97.357 1.264h-.969L91.5 15.147h.97l1.642-4.762h5.499zm3.406-.988c.529.393 1.047.698 1.556.914s1.002.326 1.482.329c1.227-.013 2.27-.493 3.125-1.44s1.303-2.286 1.34-4.016c0-1.588-.336-2.84-1.01-3.757s-1.686-1.385-3.034-1.404a4.169 4.169 0 0 0-1.812.466 9.152 9.152 0 0 0-1.622 1.05h-.063l-.084-1.264h-.8V19.72h.927v-3.687zm0-.889V7.266c.609-.54 1.187-.951 1.733-1.235s1.07-.427 1.574-.43c1.148.026 1.976.438 2.47 1.238s.743 1.833.732 3.102c-.019 1.391-.35 2.506-.988 3.343s-1.485 1.269-2.525 1.29c-.394.006-.84-.098-1.354-.297s-1.055-.54-1.638-1.008zm8.735-.648c.023.954.314 1.657.875 2.109s1.251.675 2.074.671c.665-.013 1.299-.17 1.902-.47s1.162-.664 1.679-1.088h.042l.105 1.306h.78V8.676c.016-1.111-.218-2.032-.701-2.762s-1.317-1.108-2.502-1.135c-.83.023-1.57.178-2.222.464s-1.16.567-1.527.842l.42.695c.345-.27.795-.53 1.352-.78s1.185-.382 1.877-.394c.968.037 1.617.379 1.948 1.024s.474 1.372.432 2.173c-2.235.24-3.884.66-4.948 1.259s-1.59 1.45-1.582 2.553zm.97-.042c-.028-.797.38-1.446 1.224-1.946s2.29-.87 4.337-1.109v3.434c-.615.543-1.197.947-1.749 1.225s-1.112.417-1.685.419c-.596.006-1.095-.148-1.498-.467s-.612-.836-.63-1.555zm8-2.464c.029 1.686.467 2.986 1.317 3.9s1.942 1.376 3.276 1.382a4.31 4.31 0 0 0 1.77-.381 5.547 5.547 0 0 0 1.453-.967l-.484-.632c-.349.325-.75.596-1.206.816s-.951.334-1.49.343c-1.12-.02-2.008-.433-2.668-1.238s-.988-1.881-1.002-3.228c.024-1.359.376-2.444 1.058-3.258s1.551-1.234 2.607-1.25c.493.006.935.108 1.327.308a4.425 4.425 0 0 1 1.074.766l.544-.653c-.332-.328-.738-.614-1.217-.858s-1.064-.372-1.753-.385c-1.27.01-2.348.475-3.23 1.393s-1.345 2.23-1.383 3.937zm9.36 5.03h.927V7.52c.607-.633 1.163-1.107 1.67-1.423a3.038 3.038 0 0 1 1.638-.474c.815-.002 1.407.255 1.774.774s.543 1.314.542 2.386v6.361h.928V8.661c.003-1.303-.246-2.271-.741-2.917s-1.27-.96-2.31-.958a3.68 3.68 0 0 0-1.874.521 8 8 0 0 0-1.622 1.312v-6.62h-.932zm9.329-5.035c.033 1.668.494 2.962 1.366 3.884s1.982 1.39 3.31 1.403c.727-.01 1.342-.115 1.843-.313s.947-.423 1.337-.676l-.379-.717a4.855 4.855 0 0 1-1.232.659c-.445.161-.94.244-1.485.247-1.152-.023-2.066-.435-2.744-1.235s-1.034-1.849-1.069-3.146h7.289a3.18 3.18 0 0 0 .037-.38l.005-.379c-.012-1.494-.357-2.645-1.038-3.457s-1.626-1.215-2.838-1.225c-1.17.015-2.185.49-3.046 1.424s-1.314 2.236-1.357 3.905zm.948-.61c.128-1.224.519-2.18 1.17-2.868s1.419-1.04 2.306-1.051c.916.001 1.637.33 2.164.988s.79 1.634.805 2.93zM250.27 24.75h.8v-3.393l-.105-2.064h.084l1.727 4.445h.716l1.728-4.445h.084l-.106 2.064v3.392h.8v-6.467h-1.095l-1.054 2.632-.652 1.812h-.084l-.653-1.812-1.096-2.632h-1.095v6.467m-4.17 0h.8v-5.73h2.275v-.737h-5.335v.738h2.255v5.73" fill="#888"/>
    <path d="M27.274.298C12.21.298 0 12.502 0 27.558c0 1.918.201 3.789.578 5.595a28.637 28.637 0 0 1 7.522-1c4.172 0 8.134.893 11.709 2.498a28.503 28.503 0 0 1 16.599-5.299c3.874 0 7.569.77 10.937 2.166l.051.02c.14.07.238.212.238.381a.425.425 0 0 1-.426.423l-.609-.044a28.64 28.64 0 0 0-2.035-.074c-9.563 0-18.156 3.507-23.367 10.635l-.249.343a.417.417 0 0 1-.326.158.402.402 0 0 1-.276-.107.183.183 0 0 1-.037-.032c-4.944-4.649-11.458-6.49-18.769-6.618 3.733 10.61 13.84 18.22 25.732 18.22 15.064 0 27.277-12.208 27.277-27.263C54.55 12.502 42.336.299 27.272.299zM48.63 16.613c-.096-.01-.259-.036-.364-.05a15.13 15.13 0 0 0-.92-.116c-5.563-.525-10.738 1.02-14.116 4.933-.141.144-.266.151-.405.007-2.685-3.045-6.51-4.396-10.898-4.812a16.668 16.668 0 0 0-4.59.2c-.016 0-.03.004-.047.004a.283.283 0 0 1-.283-.284.282.282 0 0 1 .11-.222c.028-.015.055-.032.08-.044a16.44 16.44 0 0 1 9.207-1.806 16.457 16.457 0 0 1 6.59 2.069 16.447 16.447 0 0 1 9.822-2.143 16.55 16.55 0 0 1 5.626 1.564l.32.163a.264.264 0 0 1 .153.251c0 .157-.101.304-.285.282z" fill="#0e85cd"/>
    <path d="m48.758 16.08-.32-.163a16.55 16.55 0 0 0-5.63-1.564 16.447 16.447 0 0 0-9.823 2.143 16.462 16.462 0 0 0-6.59-2.068 16.44 16.44 0 0 0-9.206 1.805.488.488 0 0 0-.08.05.282.282 0 0 0-.11.221c0 .157.125.285.282.285.017 0 .032-.004.047-.004.007-.003.013-.003.02-.003a16.477 16.477 0 0 1 4.57-.202c4.39.416 8.214 1.767 10.899 4.812.14.144.264.136.405-.008 3.377-3.913 8.553-5.458 14.116-4.933.309.03.617.069.92.117l.363.05c.185.022.285-.126.285-.282a.267.267 0 0 0-.148-.25zM20.347 43.252a.403.403 0 0 0 .276.108.415.415 0 0 0 .326-.158c.002 0 .166-.23.249-.343 5.21-7.124 13.804-10.636 23.367-10.636a28.37 28.37 0 0 1 2.035.075l.609.049a.425.425 0 0 0 .426-.423.425.425 0 0 0-.238-.38l-.051-.021a28.52 28.52 0 0 0-10.937-2.166 28.503 28.503 0 0 0-16.6 5.3 28.508 28.508 0 0 0-11.71-2.498 28.637 28.637 0 0 0-7.52 1 26.7 26.7 0 0 0 .965 3.449c7.311.128 13.83 1.969 18.769 6.617a.14.14 0 0 0 .036.033z" fill="#fff"/>
  </g>
</svg>
