<svg xmlns="http://www.w3.org/2000/svg" width="64" height="64">
  <path d="M16.912 36.796H.025l.01.247.028.476.013.204.046.55.011.122.066.609a.663.663 0 0 0 .006.058l.086.654a28.24 28.24 0 0 0 .874 3.998l.006.018.201.65.012.037.186.553.049.14.173.478.082.216.154.4.122.297.13.308.17.376.1.229.21.45.07.143.254.512.04.078.308.586.066.114 14.47-8.732c-.57-1.2-.924-2.475-1.055-3.771zM.822 44.545l.005.015.545-.171z" fill="#93d500"/>
  <path d="M21.063 44.553 9.122 56.49l.184.17.51.453.406.344.11.091.464.374.06.047.51.392a.131.131 0 0 1 .02.014l2.226 1.505.08.048.438.26.268.152.255.143.465.252.065.034 1.316.639 6.426-15.61a11.456 11.456 0 0 1-1.869-1.246z" fill="#4d5a31"/>
  <path d="m19.825 43.369-.372-.437-.308-.399-.33-.467-.31-.482-14.44 8.7.743 1.168.06.088.003.005.776 1.094.018.023.017.023.35.457.422.523.09.108.345.408.152.172.3.343.169.184.077.083.229.24.091.094.4.41L20.22 43.792l-.39-.417z" fill="#6ba43a"/>
  <path d="m35.615 44.547-.398.308.03.05 8.686 14.418 1.188-.818c.84-.62 1.654-1.291 2.438-2.015L35.662 44.594z" fill="#4d5a31"/>
  <g fill="#93d500">
    <path d="m42.835 60.01.02-.011h-.001l-.019.01zm-.009.006h.001zm.028-.023.114-.057-.002-.004-.112.067zm-.025.02.006-.003zm-.003.003h.001l-.021-.036zm.009-.006.02-.01-.02.01zm-.011.006-.006.003.006-.003zm0 0 .002-.001z"/>
    <path d="m42.83 60.013-.004.002.008-.006zm.024-.013.114-.064-.114.064zm.114-.064-.003-.004zm-.154.086h.002zm.005-.002-.003.002.003-.002z"/>
    <path d="m42.67 59.442-8.402-13.94-.5.277-.511.257a11.513 11.513 0 0 1-4.932 1.116 11.484 11.484 0 0 1-3.281-.479l-.54-.19-.54-.19-6.413 15.578.046.017.05.019.013.005 1.23.472a28.534 28.534 0 0 0 5.783 1.383 10.187 10.187 0 0 1 .231.031l.698.076.113.01.56.047.19.011.49.029.301.011.39.014.696.009a28.43 28.43 0 0 0 4.704-.392l.079-.012.493-.09.286-.054.289-.06.48-.106.088-.02a28.482 28.482 0 0 0 6.797-2.535l.418-.229.847-.477-.014-.04.021.036.028-.016.111-.067zM21.07 26.77l.398-.309-.03-.05L12.753 12l-1.191.82c-.84.618-1.653 1.29-2.436 2.013l11.897 11.89z"/>
  </g>
  <path d="m8.302 15.618-.79.825a27.9 27.9 0 0 0-2.407 2.983L5 19.574l-.242.358-.246.374-.089.137a28.27 28.27 0 0 0-4.4 14.071l-.015.572-.01.571h16.849l.027-.571.032-.572a11.433 11.433 0 0 1 2.54-6.136c.115-.146.256-.283.384-.425s.247-.288.383-.424zm34.763-4.183-.07-.041-.447-.266-.261-.149-.263-.146-.457-.247-.072-.037a29.482 29.482 0 0 0-3.038-1.372l-.08-.03-.686-.248a28.43 28.43 0 0 0-5.677-1.347l-.237-.032-.237-.026-.457-.05-.128-.012-.545-.045-.685-.042-.248-.01v16.89c.866.09 1.725.274 2.558.557L44.47 12.359a27.98 27.98 0 0 0-1.408-.922z" fill="#4d5a31"/>
  <path d="m14.016 11.873-.295-.49zm-.303-.491.001.003zm14.059-4.054-.572.011c-1.192.048-2.381.17-3.561.368l-.078.013-.494.09-.286.053-.29.06-.48.106-.087.02a28.505 28.505 0 0 0-6.798 2.535l-1.412.797.002.002 8.696 14.439.5-.279a11.262 11.262 0 0 1 .511-.257 11.456 11.456 0 0 1 3.772-1.057l.57-.046.572-.02V7.317c-.19 0-.38.007-.57.011z" fill="#6ba43a"/>
  <path d="m56.65 34.265-.027-.455-.015-.226-.044-.534-.011-.138-.063-.596-.006-.048-.003-.023-.085-.642a.064.064 0 0 0-.003-.02 28.317 28.317 0 0 0-.871-3.984l-.008-.025-.187-.607-.026-.08-.183-.545-.051-.148-.172-.47-.085-.223-.152-.387-.124-.305-.126-.3-.168-.384-.097-.216-.213-.455-.067-.138-.256-.518-.037-.071-.297-.572c-.004-.005-.007-.013-.011-.02a28.425 28.425 0 0 0-1.613-2.615L39.214 31.956a11.713 11.713 0 0 1 .556 2.558h16.89l-.01-.25z" fill="#4d5a31"/>
  <path d="m39.836 35.658-.027.571-.031.571a11.418 11.418 0 0 1-2.54 6.137c-.115.146-.256.283-.385.424s-.246.288-.382.424l11.912 11.913c.136-.135.263-.275.395-.413l.394-.413a28.444 28.444 0 0 0 2.413-2.992l.085-.122.262-.384.225-.346.115-.169a28.265 28.265 0 0 0 4.39-14.06l.016-.57.01-.572H39.836z" fill="#6ba43a"/>
  <path d="M61.688 2.312a7.893 7.893 0 0 0-11.162 0c-2.46 2.458-2.95 6.134-1.485 9.086L31.848 28.59c-2.952-1.464-6.628-.973-9.087 1.486a7.896 7.896 0 0 0 0 11.162 7.896 7.896 0 0 0 11.164 0c2.458-2.459 2.949-6.134 1.485-9.087L52.602 14.96c2.953 1.464 6.628.973 9.086-1.485a7.891 7.891 0 0 0 0-11.162z" fill="#424143"/>
</svg>
