<svg xmlns="http://www.w3.org/2000/svg" width="120" height="60">
  <path d="M72.495 3.85h-25a2.86 2.86 0 0 0-2.851 2.85v6.72h6.93v-1.098a1.54 1.54 0 0 1 1.542-1.542h13.747a1.54 1.54 0 0 1 1.542 1.542v1.098h6.93V6.7a2.86 2.86 0 0 0-2.852-2.853zm-4.08 21.565a1.54 1.54 0 0 1-1.542 1.542H53.128a1.54 1.54 0 0 1-1.542-1.542v-1.098h-6.932v6.72a2.86 2.86 0 0 0 2.852 2.852h25a2.86 2.86 0 0 0 2.852-2.852v-6.72h-6.93zm-23.76-10.012h6.93v6.93h-6.93zm23.76 0h6.93v6.93h-6.93z" fill="#da1a32"/>
  <path d="M25.426 47.612v-.179c0-3.262-2.14-5.62-5.048-5.62-2.93 0-5.09 2.408-5.09 5.65v.18c0 3.261 2.141 5.609 5.05 5.609 2.928 0 5.09-2.388 5.09-5.621zm-7.792-.042v-.125c0-2.058 1.06-3.573 2.701-3.573 1.6 0 2.743 1.537 2.743 3.594v.124c0 2.057-1.06 3.594-2.7 3.594-1.6.001-2.744-1.557-2.744-3.613zm18.97.084v-.291c0-3.72-2.08-5.568-4.28-5.568-1.58 0-2.535.915-3.213 1.974v-1.767h-2.346v14.15h2.346v-4.8c.665.975 1.62 1.87 3.212 1.87 2.224 0 4.28-1.87 4.28-5.568zm-7.543-.042v-.208c0-2.161 1.205-3.532 2.618-3.532s2.556 1.36 2.556 3.553v.179c0 2.204-1.122 3.533-2.556 3.533-1.412 0-2.618-1.372-2.618-3.533zm17.715 3.926-1.226-1.455c-.727.707-1.496 1.164-2.534 1.164-1.434 0-2.577-.998-2.784-2.855h6.898l.02-.81c0-3.304-1.58-5.797-4.571-5.797-2.7 0-4.696 2.368-4.696 5.672v.166c0 3.449 2.202 5.61 5.028 5.61 1.642 0 2.868-.643 3.865-1.696zm-4.197-7.763c1.371 0 2.161 1.267 2.286 3.012h-4.654c.166-1.869 1.07-3.012 2.368-3.012zm11.466-1.963c-1.497 0-2.39.852-3.014 1.83v-1.64h-2.346v11.012h2.346v-6.67c0-1.516.852-2.43 2.08-2.43 1.246 0 1.973.852 1.973 2.389v6.711h2.347v-7.376c0-2.348-1.267-3.844-3.386-3.844zm12.85 8.064v-.02c0-1.725-1.289-2.514-2.992-3.284-1.288-.581-2.161-.954-2.161-1.682v-.042c0-.603.52-1.071 1.392-1.071s1.787.416 2.618.976l.997-1.725c-1.038-.747-2.346-1.184-3.573-1.184-2.057 0-3.636 1.247-3.636 3.212v.042c0 1.808 1.371 2.556 3.013 3.262 1.309.563 2.161.915 2.161 1.696v.02c0 .687-.562 1.205-1.537 1.205s-2.036-.478-3.034-1.288l-1.101 1.683c1.267 1.06 2.784 1.537 4.093 1.537 2.119 0 3.76-1.185 3.76-3.346zm7.27 2.826V50.77a2.659 2.659 0 0 1-1.268.31c-.748 0-1.184-.352-1.184-1.204v-5.86h2.471V42h-2.471v-2.97h-2.347V42h-1.204l.385 2.017h.82v6.337c0 2.141 1.225 2.825 2.854 2.825a3.97 3.97 0 0 0 1.955-.476zM83.16 43c-.706-.727-1.807-1.122-3.241-1.122-1.475 0-2.577.354-3.636.873l.665 1.87c.727-.332 1.6-.665 2.659-.665 1.496 0 2.369.77 2.369 2.244v.458c-.748-.25-1.497-.446-2.534-.446-2.327 0-3.907 1.163-3.907 3.532v.103c0 2.141 1.538 3.366 3.366 3.366 1.434 0 2.409-.625 3.054-1.558v1.35h2.306V46.17c0-1.372-.374-2.454-1.1-3.18zm-1.163 6.317c0 1.247-1.039 2.161-2.39 2.141-1.017-.02-1.786-.644-1.786-1.745v-.042c0-1.163.79-1.848 2.14-1.848a5.3 5.3 0 0 1 2.036.394zm12.244 2.265-1.267-1.558c-.644.644-1.288 1.121-2.244 1.121-1.6 0-2.721-1.434-2.721-3.573v-.104c0-2.079 1.121-3.553 2.659-3.553.997 0 1.642.5 2.223 1.101l1.31-1.724c-.915-.915-1.964-1.497-3.534-1.497-2.888 0-5.028 2.37-5.028 5.652v.208c0 3.283 2.08 5.589 4.945 5.589 1.682-.001 2.784-.687 3.656-1.662zm5.529-2.512 2.21 3.944h2.721l-3.283-5.715zm-1.716 3.944v-3.177l6.546-7.834h-2.784l-3.761 4.842v-8.84h-2.347v14.99z" fill="#4e4540"/>
</svg>
