<svg xmlns="http://www.w3.org/2000/svg" height="60" width="120">
  <defs>
    <linearGradient id="a" spreadMethod="pad" gradientUnits="userSpaceOnUse" y2="360.638" x2="152.738" y1="6.462" x1="152.738">
      <stop offset="0" stop-color="#ff1b2d"/>
      <stop offset=".3" stop-color="#ff1b2d"/>
      <stop offset=".61" stop-color="#ff1b2d"/>
      <stop offset="1" stop-color="#a70014"/>
    </linearGradient>
    <linearGradient id="b" spreadMethod="pad" gradientUnits="userSpaceOnUse" y2="340.588" x2="244.498" y1="27.337" x1="244.498">
      <stop offset="0" stop-color="#9c0000"/>
      <stop offset=".7" stop-color="#ff4b4b"/>
      <stop offset="1" stop-color="#ff4b4b"/>
    </linearGradient>
  </defs>
  <path d="M183.194.5C82.283.5.5 82.32.5 183.23c0 98.002 77.165 177.967 174.04 182.512 2.91.145 5.782.218 8.69.218 46.8 0 89.456-17.6 121.784-46.5-21.42 14.218-46.474 22.364-73.238 22.364-43.528 0-82.474-21.6-108.693-55.637-20.22-23.82-33.3-59.092-34.182-98.656v-8.618c.873-39.528 13.964-74.8 34.146-98.656 26.22-34.037 65.2-55.6 108.73-55.6 26.764 0 51.82 8.182 73.238 22.4C272.832 18.246 230.43.682 183.885.5h-.69z" fill="url(#a)" transform="matrix(.11309 0 0 .11309 3.457 9.279)"/>
  <path d="M123.048 80.247c16.8-19.782 38.437-31.7 62.1-31.7 53.2 0 96.33 60.328 96.33 134.693 0 74.4-43.128 134.693-96.33 134.693-23.673 0-45.3-11.927-62.074-31.7 26.22 34.037 65.165 55.637 108.693 55.637 26.764 0 51.82-8.182 73.238-22.364 37.382-33.492 60.9-82.11 60.9-136.257 0-54.1-23.528-102.766-60.947-136.22-21.42-14.218-46.437-22.364-73.2-22.364-43.528 0-82.474 21.6-108.693 55.637" fill="url(#b)" transform="matrix(.11309 0 0 .11309 3.457 9.279)"/>
  <path d="M60.613 21.841c-4.87 0-8.83 4.154-8.83 9.257s3.961 9.257 8.83 9.257 8.829-4.154 8.829-9.257-3.96-9.257-8.83-9.257zm0 1.39c4.104 0 7.439 3.528 7.439 7.867s-3.335 7.867-7.44 7.867c-4.1 0-7.438-3.528-7.438-7.867s3.335-7.867 7.439-7.867zm16.227 3.5c-1.83 0-3.404.863-4.474 2.229v-1.925H70.91V43.78h1.456v-6.004c1.07 1.366 2.644 2.23 4.474 2.23 3.401 0 6.163-2.978 6.163-6.638s-2.767-6.637-6.163-6.637zm33.717 0c-3.4 0-6.163 2.977-6.163 6.637s2.767 6.637 6.163 6.637c1.83 0 3.404-.863 4.474-2.229v1.884h1.456V27.035h-1.456v1.925c-1.065-1.366-2.644-2.23-4.474-2.23zm-20.08.02c-3.401 0-6.164 2.978-6.164 6.638s2.768 6.633 6.163 6.633c2.43 0 4.54-1.522 5.544-3.73l-1.254-.732c-.749 1.78-2.39 3.018-4.285 3.018-2.463 0-4.49-2.08-4.705-4.73h10.857c.012-.151.016-.308.016-.464 0-3.907-2.537-6.637-6.163-6.637zm12.912.033a3.25 3.25 0 0 0-1.419.39c-.933.498-1.579 1.255-1.99 2.221-.008.025-.02.046-.029.066h-.016v-2.344h-1.456v12.547h1.456V33.08c0-.925.144-1.678.448-2.41.28-.678.675-1.283 1.234-1.764.662-.567 1.419-.81 2.287-.67.14.024.28.053.427.082.082-.415.28-.946.366-1.365a4.594 4.594 0 0 0-1.312-.165zm-26.553 1.39c2.607 0 4.725 2.332 4.725 5.194 0 2.866-2.122 5.194-4.725 5.194-2.607 0-4.725-2.332-4.725-5.194 0-2.867 2.122-5.194 4.725-5.194zm33.717 0c2.607 0 4.725 2.332 4.725 5.194 0 2.866-2.122 5.194-4.725 5.194-2.607 0-4.725-2.332-4.725-5.194 0-2.867 2.122-5.194 4.725-5.194zm-20.08.02c2.574 0 4.375 1.736 4.675 4.392h-9.34c.355-2.483 2.308-4.392 4.664-4.392z"/>
</svg>
