<svg xmlns="http://www.w3.org/2000/svg" width="64" height="64">
  <path d="M62.125 0H1.875C.84 0 0 .84 0 1.875v60.25C0 63.16.84 64 1.875 64h60.25C63.16 64 64 63.16 64 62.125V1.875C64 .84 63.16 0 62.125 0z" fill="#55b76f" fill-rule="evenodd"/>
  <path d="M48.123 11.37v11.88a11.204 11.204 0 0 0-6.992-2.436 11.235 11.235 0 0 0-9.094 4.627 11.2 11.2 0 0 0-2.157 6.625c0 .013-.005.005-.015-.015a6.993 6.993 0 0 1-13.984.016v-.053a6.992 6.992 0 0 1 13.092-3.389c.142-.48.473-1.512.937-2.42.403-.788.922-1.47 1.207-1.82a11.22 11.22 0 0 0-8.245-3.597c-6.14 0-11.132 4.92-11.25 11.033h-.01v20.912h4.267V40.855a11.202 11.202 0 0 0 6.99 2.436c3.753 0 7.076-1.838 9.12-4.662a11.098 11.098 0 0 0 2.116-6.546c0-.02.012.004.032.058l-.002-.077a6.992 6.992 0 0 1 13.984-.029v.058a6.992 6.992 0 0 1-13.095 3.383c-.134.458-.47 1.528-.95 2.467-.39.765-.89 1.43-1.18 1.787a11.22 11.22 0 0 0 8.234 3.586c6.14 0 11.132-4.92 11.25-11.033h.01V11.37z" fill="#fff"/>
</svg>
