<svg xmlns:svg="http://www.w3.org/2000/svg" xmlns="http://www.w3.org/2000/svg" data-name="Layer 1" viewBox="0 0 120 60" version="1.1">
  <path class="cls-1" d="M14.339279 38.691026c0-.08 0-.154296-.02857-.240016a6.1604175 6.1604175 0 0 0-.988638-2.594462 6.623306 6.623306 0 0 0-1.142935-1.142934c-.125723-.09715-.234302-.05143-.240016.102864l-.108579 1.605823c0 .154296-.18287.160011-.228587 0L10.893332 34.165005A.66290207.66290207 0 0 0 10.533308 33.799266 11.200759 11.200759 0 0 0 9.0817805 33.404954C8.4303078 33.29066 7.4873867 33.227799 7.4873867 33.227799c-.1600108 0-.2114429.09715-.1200081.222872l.9714944 1.765834c.091435.131438 0 .25716-.1371522.154296L6.0872918 33.656399A1.7144019 1.7144019 0 0 0 4.738629 33.427812C4.2700258 33.502102 3.5956944 33.64497 3.5956944 33.64497a.30859234.30859234 0 0 0-.1828695.120008.297163.297163 0 0 0-.062861.205728c0 0 .051432.685761.1085788 1.142935A1.7144019 1.7144019 0 0 0 4.03001 36.342296l2.2001491 1.571535c.1371521.09143.040003.228587-.1085788.17144l-1.9601329-.44003c-.1485815-.05715-.2343015 0-.1885842.17144 0 0 .3257364.891489.61147 1.480101a10.823591 10.823591 0 0 0 .822913 1.325804.66290207.66290207 0 0 0 .4457445.245731l2.3658746.05715c.1542961 0 .1942988.177155.051432.222873L6.755909 41.719807c-.1485815.04572-.1600109.160011-.034288.25716a6.6861674 6.6861674 0 0 0 1.4286683.777196 6.1204148 6.1204148 0 0 0 2.7716167.234301 11.120754 11.120754 0 0 0 2.034423-.485747 4.5317357 4.5317357 0 0 1-.04-.571467 4.4002982 4.4002982 0 0 1 1.445812-3.245934M31.220423 33.99928a.32573636.32573636 0 0 0-.06286-.205728v0a.30859234.30859234 0 0 0-.18287-.120009c0 0-.674331-.142866-1.142934-.211443a1.7144019 1.7144019 0 0 0-1.342948.222873l-2.114429 1.714402c-.125723.102864-.228587 0-.137153-.154297l.96578-1.765834c.09715-.125722.04572-.228586-.114293-.222872 0 0-.942921.06286-1.594394.177155a11.200759 11.200759 0 0 0-1.451527.394313.66290207.66290207 0 0 0-.360024.365739l-.70862 2.251581c-.04572.148581-.222872.142867-.228587 0L22.63127 34.839337c0-.154297-.108579-.200014-.234302-.102864a6.64045 6.64045 0 0 0-1.142934 1.142934 6.0861267 6.0861267 0 0 0-.988639 2.571603c0 .08572 0 .160011 0 .240016a4.3717248 4.3717248 0 0 1 1.440098 3.245935 4.5317357 4.5317357 0 0 1-.04.571467 11.320767 11.320767 0 0 0 2.040138.485747 6.1261294 6.1261294 0 0 0 2.771617-.234302 6.6861674 6.6861674 0 0 0 1.428668-.777195c.125723-.09715.114293-.211443-.03429-.25716L26.357238 41.15405c-.142867-.04572-.102864-.217157.05143-.222872l2.36016-.05715a.64004337.64004337 0 0 0 .451459-.245731 11.132183 11.132183 0 0 0 .760051-1.285801c.291449-.571467.617185-1.4801.617185-1.4801.04572-.148582-.04-.228587-.188584-.171441l-1.960133.44003c-.154296.05715-.245731-.08-.114294-.17144l2.217294-1.571535a1.7144019 1.7144019 0 0 0 .571467-1.228655c.05715-.474318.108579-1.142934.108579-1.142934M25.025718 26.530202c0-.245731-.160011-.337166-.377169-.200013l-2.285869 1.245798c-.211443.137152-.25716-.125723-.102864-.325736l2.183005-2.914483a.9314917.9314917 0 0 0 .131438-.79434 17.429753 17.429753 0 0 0-1.022927-2.285869 16.526834 16.526834 0 0 0-1.325804-1.851554c-.154296-.194299-.34288-.160011-.422886.07429l-1.068644 2.668752c-.08.234302-.280019.228587-.274304 0l.125723-4.188855a1.1829373 1.1829373 0 0 0-.320022-.800055c0 0-.634328-.640043-1.142934-1.108646-.508606-.468603-1.457242-1.211511-1.457242-1.211511a.5714673.5714673 0 0 0-.720049 0c0 0-.897203.702905-1.4801 1.211511-.582897.508606-1.142935 1.102932-1.142935 1.102932a1.188652 1.188652 0 0 0-.34288.777195l.131437 4.188856c0 .251445-.194298.25716-.280019 0L12.76203 19.478296c-.07429-.234302-.26859-.26859-.422886-.06858a16.201098 16.201098 0 0 0-1.388665 1.971562 16.223957 16.223957 0 0 0-.9714951 2.160146.94863572.94863572 0 0 0 .1257231.78291l2.194434 2.925913c.154296.200013.108579.462888-.108579.325736L9.9046939 26.330189C9.6932505 26.193036 9.5160956 26.284471 9.5218103 26.530202a8.6920176 8.6920176 0 0 0 .3885976 2.383019 9.4806425 9.4806425 0 0 0 2.5201711 3.645961 17.961217 17.961217 0 0 1 3.514523 5.206067 4.3545808 4.3545808 0 0 1 2.680182 0 18.155516 18.155516 0 0 1 3.491665-5.200352 9.629224 9.629224 0 0 0 2.388734-3.297367 9.0120393 9.0120393 0 0 0 .520035-2.731613M20.156816 41.936961a2.8573365 2.8573365 0 1 1-2.857336-2.857337 2.8573365 2.8573365 0 0 1 2.857336 2.857337" style="stroke-width:0.571467"/>
  <path class="cls-2" d="M96.739149 37.799537h5.246071v-.720049l-.72005-.228586c-.41145-.125723-.45717-.228587-.47431-.702905 0-.571468 0-1.628682 0-2.725899V21.895602h-.26859a12.046531 12.046531 0 0 0-3.96599.685761v.571467l.828627.188585a.66290207.66290207 0 0 1 .571467.742907c0 .474318 0 1.342948 0 2.331587v7.006189c0 1.097217 0 2.165861 0 2.725899 0 .474318-.04.571467-.451459.702905l-.748622.228586zM68.657246 30.159019A3.4288038 3.4288038 0 0 0 69.194425 28.48462 1.2172253 1.2172253 0 0 0 67.89148 27.141672c-.86863 0-1.754405.520035-2.371589 2.285869v-2.160146h-.211443a11.955096 11.955096 0 0 0-3.943125.680046v.600041l.805769.205728a.64004337.64004337 0 0 1 .571468.725763c0 .474318 0 1.565821 0 2.577318v1.468671c0 1.074358 0 2.062997 0 2.645893 0 .45146-.04.571468-.45146.680047l-.742907.24573v.702905h5.411795v-.720049l-.86863-.251445c-.434315-.102864-.457174-.205728-.474318-.657188 0-.571467 0-1.571535 0-2.645893v-3.554527a1.8401247 1.8401247 0 0 1 1.142935-.371453 4.4574449 4.4574449 0 0 1 1.902986.571467m9.412066.348595a14.801003 14.801003 0 0 0-.06286-3.137356c-1.114361-.04-1.977277-.205728-2.965916-.205728-2.771616 0-4.154567 1.611538-4.154567 3.388801 0 1.142935.537179 2.285869 2.377304 3.05735l.657188.245731c1.714401.662902 2.09157 1.142935 2.09157 1.754405 0 .61147-.537179 1.240084-1.714402 1.240084a2.1029997 2.1029997 0 0 1-2.097286-1.525818l-.165726-.851486h-1.257228a11.783656 11.783656 0 0 0 0 3.200217 31.287835 31.287835 0 0 0 3.383087.314307c3.160214 0 4.53745-2.00585 4.53745-3.514524 0-1.091503-.754337-2.205864-2.857336-3.05735l-.657188-.245731c-1.594393-.617185-1.982991-1.142935-1.982991-1.794407 0-.651473.571467-1.097218 1.634396-1.114362 1.062929-.01714 1.171508.828628 1.400095 1.628682l.165726.617185zM55.696368 35.799402a2.2858692 2.2858692 0 0 1-1.382951.51432 1.7144019 1.7144019 0 0 1-1.714402-1.56582c0-.822913.86863-1.868698 3.080209-2.137288zm4.234572 1.588679.245731-.571467C58.605136 36.485162 58.422267 36.09085 58.422267 34.416451v-3.617388c0-2.228723-.971495-3.657391-3.737396-3.657391a6.1604175 6.1604175 0 0 0-3.68025 1.034356 1.6058231 1.6058231 0 0 0-.720049 1.342948 2.1887198 2.1887198 0 0 0 .497177 1.302946c1.588679-1.634397 2.560173-2.028709 3.383086-2.028709 1.177223 0 1.520103.897203 1.531533 2.657323v0 0c-3.863119.520035-5.640382 1.965847-5.640382 3.697393a2.8573365 2.8573365 0 0 0 2.765901 2.857336 3.5373826 3.5373826 0 0 0 3.040206-1.65154 2.1715757 2.1715757 0 0 0 2.120144 1.634396 3.7945429 3.7945429 0 0 0 1.942989-.571467M114.90038 28.096023v-.765767h-4.57174v.765767l.80006.222872c.60004.165725.68576.434315.52003 1.011497a48.689014 48.689014 0 0 1-1.66297 5.537518l-2.7659-5.806108c-.20573-.4286-.18858-.657187.39431-.805769l.76005-.16001v-.765767h-5.42894v.805769l.37146.102864c.34859.102864.41145.245731.64004.702905l4.57174 9.143477-.26859.537179c-.57147 1.091503-1.54868 1.817266-4.33744 2.623035.33145 1.297231.92578 1.897272 1.65154 1.897272h.0457c1.07436 0 2.41159-1.445813 3.38309-3.177359 1.34866-2.388733 2.57731-5.177493 4.57174-10.680723.29144-.805769.35431-.948636.89148-1.074359z" style="stroke-width:0.571467"/>
  <path class="cls-1" d="m 93.378921,37.942404 a 1.8286954,1.8286954 0 1 0 -1.828695,-1.828695 1.8286954,1.8286954 0 0 0 1.828695,1.828695" style="stroke-width:0.571467"/>
  <path class="cls-2" d="M48.267293 27.598846a3.880263 3.880263 0 0 0-2.685896-3.720252c-1.011498-.348595-2.040139-.474318-4.29172-.474318H36.08361v.805769l.571467.125723c1.142935.245731 1.217226.285733 1.240084.742907.02286.457174 0 1.32009 0 2.285869v6.714741c0 .994353 0 1.840125 0 2.314443 0 .474318-.102864.497176-1.240084.742907l-.571467.125723v.805769h6.857608v-.805769l-.617185-.125723c-1.142935-.245731-1.217225-.285733-1.240084-.742907-.02286-.457174 0-1.32009 0-2.314443v-9.394922a6.7033114 6.7033114 0 0 1 .78291-.06286 3.0459207 3.0459207 0 0 1 3.017347 2.085856 3.9031217 3.9031217 0 0 1 .26859 1.508674c0 1.074358-.308592 2.085855-1.142935 2.623035a3.3487984 3.3487984 0 0 1-2.051567.502891v.840057c3.657391.674331 6.326143-1.388666 6.326143-4.571739M85.53839 27.124528a4.788896 4.788896 0 0 0-3.514524 1.342948 5.3946513 5.3946513 0 0 0-1.56582 3.965983c0 3.074494 1.754404 5.571806 5.143205 5.571806a5.4117953 5.4117953 0 0 0 4.10885-1.880127l.125723-.760051a6.4061484 6.4061484 0 0 1-2.828763.720048 3.7716842 3.7716842 0 0 1-2.245866-.645758 2.5887469 2.5887469 0 0 1-.685761-.662902v0L83.96114 34.616464a4.0459885 4.0459885 0 0 1-.571467-1.337233 5.8918278 5.8918278 0 0 1-.148581-.742908 6.4632951 6.4632951 0 0 1 .04-2.028708 2.6573229 2.6573229 0 0 1 .720049-1.537248 1.4972443 1.4972443 0 0 1 .874345-.417171h.05143a1.5772497 1.5772497 0 0 1 .822913.137153l.06858.02857a1.851554 1.851554 0 0 1 .200014.120008 1.765834 1.765834 0 0 1 .434315.44003l.05715.08572c.03429.05715.06858.102864.09715.160011a3.8345456 3.8345456 0 0 1 .325736 2.022994.50289122.50289122 0 0 0 0 .09144c0 0 0 0 0 0l-2.823048.182869a4.3374368 4.3374368 0 0 0 .142867 1.142935h5.508944c.617185-4.080277-1.714401-5.794678-4.171711-5.794678" style="stroke-width:0.571467"/>
</svg>
