<svg xmlns="http://www.w3.org/2000/svg" aria-hidden="true" viewBox="0 0 120 1071.429" height="60" version="1.1" width="120">
  <g aria-label="Pico.css" style="font-style:normal;font-weight:400;font-size:714.28570557px;line-height:1.25;font-family:sans-serif;letter-spacing:0;word-spacing:0;fill:#000;fill-opacity:1;stroke:none;stroke-width:17.8571434" transform="matrix(.727 0 0 .727 -397.375 850.627)">
    <path d="M-516.214-631.21v195.662h88.588q49.177 0 76.032-25.46 26.856-25.461 26.856-72.545 0-46.736-26.856-72.196-26.855-25.46-76.032-25.46zm-70.452-57.896h159.04q87.542 0 132.185 39.76 44.991 39.412 44.991 115.793 0 77.078-44.991 116.49-44.643 39.411-132.185 39.411h-88.588v209.263h-70.452z" style="font-style:normal;font-variant:normal;font-weight:400;font-stretch:normal;font-family:sans-serif;-inkscape-font-specification:sans-serif;letter-spacing:-26.7857151px;stroke:#000;stroke-width:35.7142868;stroke-miterlimit:4;stroke-dasharray:none;stroke-opacity:1"/>
    <path d="M-200.505-559.014h64.174v390.625h-64.174zm0-152.064h64.174v81.264h-64.174z" style="font-style:normal;font-variant:normal;font-weight:400;font-stretch:normal;font-family:sans-serif;-inkscape-font-specification:sans-serif;letter-spacing:-26.7857151px;stroke:#000;stroke-width:35.7142868;stroke-miterlimit:4;stroke-dasharray:none;stroke-opacity:1"/>
    <path d="M251.922-544.016v59.988q-27.204-14.997-54.757-22.321-27.204-7.673-55.106-7.673-62.43 0-96.959 39.76-34.528 39.411-34.528 110.91 0 71.498 34.528 111.258 34.528 39.411 96.959 39.411 27.902 0 55.106-7.324 27.553-7.673 54.757-22.67v59.291q-26.855 12.556-55.804 18.834-28.599 6.278-61.035 6.278-88.24 0-140.206-55.455-51.967-55.455-51.967-149.623 0-95.564 52.316-150.321Q47.89-568.43 139.269-568.43q29.645 0 57.896 6.277 28.25 5.93 54.757 18.137z" style="font-style:normal;font-variant:normal;font-weight:400;font-stretch:normal;font-family:sans-serif;-inkscape-font-specification:sans-serif;letter-spacing:-26.7857151px;stroke:#000;stroke-width:35.7142868;stroke-miterlimit:4;stroke-dasharray:none;stroke-opacity:1"/>
    <path d="M488.808-514.022q-51.618 0-81.613 40.458-29.994 40.108-29.994 110.212 0 70.103 29.646 110.56 29.994 40.11 81.961 40.11 51.27 0 81.264-40.458 29.995-40.458 29.995-110.212 0-69.406-29.995-109.864-29.994-40.806-81.264-40.806zm0-54.408q83.706 0 131.487 54.408 47.782 54.408 47.782 150.67 0 95.912-47.782 150.67-47.781 54.408-131.487 54.408-84.054 0-131.836-54.409-47.433-54.757-47.433-150.67 0-96.26 47.433-150.669 47.782-54.408 131.836-54.408z" style="font-style:normal;font-variant:normal;font-weight:400;font-stretch:normal;font-family:sans-serif;-inkscape-font-specification:sans-serif;letter-spacing:-26.7857151px;stroke:#000;stroke-width:35.7142868;stroke-miterlimit:4;stroke-dasharray:none;stroke-opacity:1"/>
    <path d="M756.386-256.977h73.591v88.588h-73.59z" style="letter-spacing:-26.7857151px;stroke-width:17.8571434"/>
    <path d="M1229.043-544.016v59.988q-27.205-14.997-54.758-22.321-27.204-7.673-55.106-7.673-62.43 0-96.959 39.76-34.528 39.411-34.528 110.91 0 71.498 34.528 111.258 34.529 39.411 96.96 39.411 27.901 0 55.105-7.324 27.553-7.673 54.757-22.67v59.291q-26.855 12.556-55.803 18.834-28.6 6.278-61.035 6.278-88.24 0-140.207-55.455T920.03-363.352q0-95.564 52.316-150.321 52.665-54.757 144.043-54.757 29.646 0 57.896 6.277 28.25 5.93 54.757 18.137z" style="letter-spacing:-26.7857151px;stroke-width:17.8571434"/>
    <path d="M1563.585-547.504v60.686q-27.204-13.95-56.501-20.926-29.297-6.976-60.686-6.976-47.782 0-71.848 14.649-23.716 14.648-23.716 43.945 0 22.322 17.09 35.226 17.09 12.556 68.708 24.065l21.973 4.883q68.359 14.649 96.958 41.504 28.948 26.507 28.948 74.289 0 54.408-43.247 86.146-42.9 31.739-118.234 31.739-31.39 0-65.57-6.278-33.83-5.93-71.498-18.136v-66.267q35.575 18.485 70.103 27.902 34.529 9.068 68.36 9.068 45.34 0 69.754-15.346 24.414-15.695 24.414-43.945 0-26.158-17.787-40.11-17.439-13.95-77.079-26.855l-22.321-5.231q-59.64-12.556-86.147-38.365-26.507-26.158-26.507-71.499 0-55.106 39.063-85.1 39.062-29.994 110.91-29.994 35.574 0 66.964 5.231 31.39 5.232 57.896 15.695z" style="letter-spacing:-26.7857151px;stroke-width:17.8571434"/>
    <path d="M1909.288-547.504v60.686q-27.204-13.95-56.501-20.926-29.297-6.976-60.686-6.976-47.782 0-71.848 14.649-23.716 14.648-23.716 43.945 0 22.322 17.09 35.226 17.09 12.556 68.708 24.065l21.973 4.883q68.359 14.649 96.958 41.504 28.948 26.507 28.948 74.289 0 54.408-43.247 86.146-42.9 31.739-118.234 31.739-31.39 0-65.57-6.278-33.83-5.93-71.498-18.136v-66.267q35.575 18.485 70.104 27.902 34.528 9.068 68.359 9.068 45.34 0 69.754-15.346 24.415-15.695 24.415-43.945 0-26.158-17.788-40.11-17.438-13.95-77.079-26.855l-22.321-5.231q-59.64-12.556-86.147-38.365-26.506-26.158-26.506-71.499 0-55.106 39.062-85.1 39.063-29.994 110.91-29.994 35.574 0 66.964 5.231 31.39 5.232 57.896 15.695z" style="letter-spacing:-26.7857151px;stroke-width:17.8571434"/>
  </g>
</svg>
