<svg xmlns="http://www.w3.org/2000/svg" width="64" height="64" fill="#4fc78c">
  <path d="m32.04 9.122 9.012-.002c2.182-.015 3.38.038 5.632 1.143L40.68 3.646C38.308 1.247 35.157.001 32.047 0h.005c-3.1.001-6.26 1.247-8.635 3.646l-6.003 6.617c2.252-1.104 3.45-1.158 5.632-1.143l9.012.002zM50.398 30.55a7.739 7.739 0 0 0-2.115-4.14L37.465 15.447a7.61 7.61 0 0 0-4.078-2.153 7.54 7.54 0 0 0-2.67.002 7.63 7.63 0 0 0-4.075 2.146L15.822 26.4a7.76 7.76 0 0 0-2.116 4.132 7.74 7.74 0 0 0-.003 2.703 7.747 7.747 0 0 0 2.123 4.126l10.816 10.98a7.573 7.573 0 0 0 4.078 2.147c.88.158 1.783.163 2.66.005a7.62 7.62 0 0 0 4.084-2.147l10.818-10.968a7.739 7.739 0 0 0 2.117-4.135c.152-.893.15-1.8-.001-2.7M32.1 54.877l-9.012.003c-2.182.015-3.38-.038-5.633-1.143l6.004 6.617c2.373 2.4 5.524 3.643 8.634 3.646h-.005c3.1-.002 6.26-1.247 8.634-3.646l6.004-6.617c-2.252 1.105-3.45 1.16-5.633 1.143l-9.012-.003zM9.292 31.7l.008-9.122c-.015-2.2.038-3.42 1.13-5.7l-6.537 6.078a12.503 12.503 0 0 0-3.602 8.74v-.004a12.51 12.51 0 0 0 3.602 8.741L10.43 46.5c-1.1-2.28-1.144-3.492-1.13-5.702l.002-9.123zm45.416-.018.002 9.123c.015 2.2-.037 3.42-1.13 5.702l6.537-6.078a12.51 12.51 0 0 0 3.602-8.74v.004a12.504 12.504 0 0 0-3.602-8.74l-6.537-6.077c1.1 2.28 1.144 3.5 1.13 5.7l-.002 9.123z"/>
</svg>
