<svg xmlns="http://www.w3.org/2000/svg" viewBox="-2.72 -1.34 64 64" width="64" height="64">
  <path d="m61.122 26.375-9.805-4.016-11.813-4.725-10.04-4.135c-.236-.118-.354 0-.354 0l-9.923 4.016-1.772.71-8.27 3.426-11.813 4.725s-.118.118 0 .118l11.104 4.49 20.673 8.505h.354L50.018 31.1l11.104-4.49c.354-.118 0-.236 0-.236zm-13.467-4.016-8.27 3.308-8.27-3.308 8.27-3.426zm-10.04 4.135-8.27 3.426-8.27-3.308 8.27-3.426zm-8.387-11.577 8.27 3.426-8.27 3.426-8.27-3.426zm-10.04 4.016 8.27 3.426-8.27 3.426-8.387-3.426zm-18.3 7.56 8.27-3.308 8.27 3.426-8.27 3.308zm10.16 4.135 8.27-3.426 8.27 3.426-8.27 3.308zM29.24 38.07l-8.27-3.426 8.27-3.426 8.27 3.308zm10.16-4.135-8.27-3.308 8.27-3.426 8.27 3.308zM49.56 29.8l-8.27-3.308 8.27-3.308 8.27 3.308z" fill="#00aae7"/>
  <path d="m37.615 26.493-8.27 3.426-8.27-3.426 8.27-3.426zm10.04 4.135-8.27 3.308-8.27-3.308 8.27-3.426zm-10.16 4.135-8.27 3.308-8.15-3.308 8.27-3.426z" fill="#008ccc"/>
  <path d="m59.94 35.234-30.83 12.64-30.95-12.64L8.32 31.1l20.673 8.505h.354L49.9 31.218z" fill="#007bb6"/>
  <path d="m17.415 26.493-8.27 3.426-8.27-3.426 8.15-3.426z" fill="#68cef2"/>
  <path d="m27.456 30.627-8.27 3.426-8.15-3.426 8.15-3.308z" fill="#008ccc"/>
  <path d="m27.574 22.358-8.387 3.426-8.27-3.426 8.27-3.426zm10.04-4.135-8.27 3.426-8.27-3.426 8.15-3.308zm10.04 4.135-8.27 3.426-8.27-3.426 8.27-3.308zm10.04 4.135-8.15 3.308-8.27-3.308 8.15-3.426z" fill="#68cef2"/>
</svg>
