<svg xmlns="http://www.w3.org/2000/svg" height="64" viewBox="0 0 25.6 25.6" width="64" version="1.1">
  <g transform="scale(.19394)">
    <rect ry="6" rx="6" height="132" width="132" x="0" y="0" style="fill:#119dff"/>
    <circle r="6" cy="54" cx="78" class="cls-2" style="fill:#25fefd"/>
    <circle r="6" cy="30" cx="102" class="cls-2" style="fill:#25fefd"/>
    <circle r="6" cy="30" cx="78" class="cls-2" style="fill:#25fefd"/>
    <circle r="6" cy="30" cx="54" class="cls-2" style="fill:#25fefd"/>
    <circle r="6" cy="30" cx="30" class="cls-2" style="fill:#25fefd"/>
    <circle r="6" cy="54" cx="30" class="cls-2" style="fill:#25fefd"/>
    <path d="M30 72a6 6 0 0 0-6 6v24a6 6 0 0 0 12 0V78a6 6 0 0 0-6-6z" class="cls-3" style="fill:#fff"/>
    <path d="M78 72a6 6 0 0 0-6 6v24a6 6 0 0 0 12 0V78a6 6 0 0 0-6-6z" class="cls-3" style="fill:#fff"/>
    <path d="M54 48a6 6 0 0 0-6 6v48a6 6 0 0 0 12 0V54a6 6 0 0 0-6-6z" class="cls-3" style="fill:#fff"/>
    <path d="M102 48a6 6 0 0 0-6 6v48a6 6 0 0 0 12 0V54a6 6 0 0 0-6-6z" class="cls-3" style="fill:#fff"/>
  </g>
</svg>
