<svg xmlns="http://www.w3.org/2000/svg" viewBox="0 0 256 256" version="1.1" width="256" height="256">
  <g transform="matrix(1.08475 0 0 1.08475 -10.847 -10.847)">
    <rect style="fill:#119dff" ry="6" rx="6" height="132" width="132" y="23.82" x="80.79" transform="matrix(.9552 0 0 .9552 -12.4 -7.623)"/>
    <g transform="matrix(.9552 0 0 .9552 -12.4 -7.623)">
      <rect style="fill:#506784" ry="5.74" rx="5.74" height="68.88" width="11.48" y="179.82" x="80.86" class="cls-2"/>
      <rect style="fill:#506784" ry="5.74" rx="5.74" height="68.88" width="11.48" y="179.82" x="201.79" class="cls-2"/>
      <path style="fill:#506784" d="M46.41 191.3a21.73 21.73 0 0 0-11.91 3.56A5.74 5.74 0 0 0 23.45 197v57.4a5.74 5.74 0 0 0 11.48 0v-9a21.69 21.69 0 0 0 11.48 3.3c12.68 0 23-11 23-24.6v-8.2c-.04-13.59-10.31-24.6-23-24.6zm11.48 33.4c0 6.92-5.14 12.52-11.48 12.52-6.34 0-11.48-5.61-11.48-12.52v-9.4c0-6.92 5.14-12.52 11.48-12.52 6.34 0 11.48 5.61 11.48 12.52z" class="cls-2"/>
      <path style="fill:#506784" d="M126.78 191.3c-12.68 0-23 11-23 24.6v8.2c0 13.59 10.28 24.6 23 24.6 12.68 0 23-11 23-24.6v-8.2c-.04-13.59-10.32-24.6-23-24.6zm11.48 33.4c0 6.92-5.14 12.52-11.48 12.52-6.34 0-11.48-5.61-11.48-12.52v-9.4c0-6.92 5.14-12.52 11.48-12.52 6.34 0 11.48 5.61 11.48 12.52z" class="cls-2"/>
      <path style="fill:#506784" d="M184.18 237.22a11.49 11.49 0 0 1-11.48-11.48v-23h11.48a5.74 5.74 0 0 0 0-11.48H172.7v-5.74a5.74 5.74 0 0 0-11.48 0v40.18a23 23 0 0 0 23 23 5.74 5.74 0 0 0 0-11.48z" class="cls-2"/>
      <path style="fill:#506784" d="M267.07 191.76a5.74 5.74 0 0 0-7.54 3l-11.9 27.76-11.9-27.76a5.74 5.74 0 1 0-10.55 4.52l16.21 37.81-1.93 4.5a11.5 11.5 0 0 1-10.34 7.08 5.74 5.74 0 0 0 .13 11.48h.14A23 23 0 0 0 250 246.07l20.05-46.77a5.74 5.74 0 0 0-2.98-7.54z" class="cls-2"/>
    </g>
    <g transform="matrix(.9552 0 0 .9552 -12.4 -7.623)">
      <circle style="fill:#25fefd" r="6" cy="77.82" cx="158.79" class="cls-3"/>
      <circle style="fill:#25fefd" r="6" cy="53.82" cx="182.79" class="cls-3"/>
      <circle style="fill:#25fefd" r="6" cy="53.82" cx="158.79" class="cls-3"/>
      <circle style="fill:#25fefd" r="6" cy="53.82" cx="134.79" class="cls-3"/>
      <circle style="fill:#25fefd" r="6" cy="53.82" cx="110.79" class="cls-3"/>
      <circle style="fill:#25fefd" r="6" cy="77.82" cx="110.79" class="cls-3"/>
      <path style="fill:#fff" d="M110.79 95.82a6 6 0 0 0-6 6v24a6 6 0 1 0 12 0v-24a6 6 0 0 0-6-6z" class="cls-4"/>
      <path style="fill:#fff" d="M158.79 95.82a6 6 0 0 0-6 6v24a6 6 0 1 0 12 0v-24a6 6 0 0 0-6-6z" class="cls-4"/>
      <path style="fill:#fff" d="M134.79 71.82a6 6 0 0 0-6 6v48a6 6 0 1 0 12 0v-48a6 6 0 0 0-6-6z" class="cls-4"/>
      <path style="fill:#fff" d="M182.79 71.82a6 6 0 0 0-6 6v48a6 6 0 0 0 12 0v-48a6 6 0 0 0-6-6z" class="cls-4"/>
    </g>
  </g>
</svg>
