<svg version="1.1" xmlns="http://www.w3.org/2000/svg" x="0" y="0" viewBox="0 0 64 64" width="64" height="64" style="enable-background:new 0 0 64 64">
  <path class="st0" d="M23.9 25.8c2.2 0 3.8.9 5.2 2.5.2.3.2.7-.2 1l-1.6 1.5c-.3.3-.6.1-.9-.1-.6-.7-1.4-1.1-2.4-1.1-1.9 0-3.4 1.6-3.4 3.6s1.5 3.6 3.4 3.6c1.5 0 2.2-.7 2.8-1.3.2-.2.6-.3.9-.1l1.5 1.3c.3.3.5.6.2 1-1.2 1.8-3 2.9-5.5 2.9-3.9 0-7.4-3.1-7.4-7.3 0-4.3 3.5-7.5 7.4-7.5zM37 31.3c1.4 0 2.5.4 2.5.4 0-1.8-.5-2.4-1.8-2.4s-3.1.3-3.9.5c-.5.1-.7-.2-.8-.6l-.3-1.8c-.1-.5.2-.8.5-.9.3-.1 2.5-.7 4.7-.7 4.4 0 5.4 2.3 5.4 6.1v7.6c0 .3-.3.7-.7.7h-1.3c-.2 0-.4-.1-.6-.5l-.4-.9c-.8.7-2.1 1.8-4.3 1.8-2.8 0-4.7-1.8-4.7-4.8.1-2.6 2.1-4.5 5.7-4.5zm0 6.2c1.1 0 2.2-.9 2.4-1.4v-1.9s-.9-.4-2-.4c-1.4 0-2.3.8-2.3 1.9.1 1 .8 1.8 1.9 1.8zm11-7.7h-1.2c-.3 0-.6-.3-.6-.7v-2.3c0-.4.3-.7.6-.7H48v-3.9c0-.3.3-.7.7-.7h2.9c.3 0 .6.3.6.7v3.9h3.1c.4 0 .7.3.7.7v2.3c0 .3-.3.7-.7.7h-3.1v5.6c0 1 .5 1.1 1.1 1.1.6 0 1.3-.2 1.7-.4.4-.1.7 0 .8.4l.7 2.2c.1.3 0 .7-.4.8-.2.1-2.4.9-4.1.9-2.7 0-3.9-1.7-3.9-4.5v-6.1z"/>
  <path d="M11.1 33.2c2 0 3.6 1.7 3.6 3.6 0 2-1.7 3.6-3.6 3.6-2 0-3.6-1.6-3.6-3.6 0-1.9 1.7-3.6 3.6-3.6z" style="fill:#4e4e4f"/>
</svg>
