<svg version="1.1" xmlns="http://www.w3.org/2000/svg" xmlns:xlink="http://www.w3.org/1999/xlink" x="0px" y="0px" viewBox="0 0 120 60" style="enable-background:new 0 0 120 60" xml:space="preserve">
  <g>
    <path d="M91.8,23.7H28.2c-0.2,0-0.3-0.1-0.3-0.3V10.5c0-0.2,0.1-0.3,0.3-0.3h63.5c0.2,0,0.3,0.1,0.3,0.3v12.9 C92,23.6,91.9,23.7,91.8,23.7z" style="fill:#4E4E4F"/>
    <path d="M91.7,49.8H28.3c-0.2,0-0.4-0.2-0.4-0.4V25.2c0-0.2,0.2-0.4,0.4-0.4h63.3c0.2,0,0.4,0.2,0.4,0.4v24.2 C92,49.6,91.9,49.8,91.7,49.8z" style="fill:#BD2D36"/>
    <g>
      <path class="st2" d="M50.6 29.7c2.6 0 4.5 1.1 6.1 2.9.2.4.2.8-.2 1.2l-1.9 1.8c-.4.4-.7.1-1.1-.1-.7-.8-1.6-1.3-2.8-1.3-2.2 0-4 1.9-4 4.2s1.8 4.2 4 4.2c1.8 0 2.6-.8 3.3-1.5.2-.2.7-.4 1.1-.1l1.8 1.5c.4.4.6.7.2 1.2-1.4 2.1-3.5 3.4-6.5 3.4-4.6 0-8.7-3.6-8.7-8.6C41.9 33.5 46 29.7 50.6 29.7zM66 36.2c1.6 0 2.9.5 2.9.5 0-2.1-.6-2.8-2.1-2.8s-3.6.4-4.6.6c-.6.1-.8-.2-.9-.7L61 31.6c-.1-.6.2-.9.6-1.1.4-.1 2.9-.8 5.5-.8 5.2 0 6.3 2.7 6.3 7.2v8.9c0 .4-.4.8-.8.8h-1.5c-.2 0-.5-.1-.7-.6L69.9 45c-.9.8-2.5 2.1-5 2.1-3.3 0-5.5-2.1-5.5-5.6C59.4 38.4 61.8 36.2 66 36.2zM66 43.4c1.3 0 2.6-1.1 2.8-1.6v-2.2c0 0-1.1-.5-2.3-.5-1.6 0-2.7.9-2.7 2.2C63.9 42.5 64.7 43.4 66 43.4zM78.9 34.4h-1.4c-.4 0-.7-.4-.7-.8v-2.7c0-.5.4-.8.7-.8h1.4v-4.6c0-.4.4-.8.8-.8h3.4c.4 0 .7.4.7.8v4.6h3.6c.5 0 .8.4.8.8v2.7c0 .4-.4.8-.8.8h-3.6V41c0 1.2.6 1.3 1.3 1.3s1.5-.2 2-.5c.5-.1.8 0 .9.5l.8 2.6c.1.4 0 .8-.5.9-.2.1-2.8 1.1-4.8 1.1-3.2 0-4.6-2-4.6-5.3v-7.2H78.9zM35.6 38.4c2.3 0 4.2 2 4.2 4.2 0 2.3-2 4.2-4.2 4.2-2.3 0-4.2-1.9-4.2-4.2C31.4 40.4 33.4 38.4 35.6 38.4z"/>
    </g>
    <g>
      <path class="st2" d="M30.7 13.3c0-.1.1-.2.2-.2h4.7c.1 0 .2.1.2.2v.9c0 .1-.1.2-.2.2h-3.4v2.2h2.9c.1 0 .2.1.2.2v.9c0 .1-.1.2-.2.2h-2.9V21c0 .1-.1.2-.2.2h-1.1c-.1 0-.2-.1-.2-.2V13.3zM37.1 13.3c0-.1.1-.2.2-.2h1.1c.1 0 .2.1.2.2V18c0 1 .7 1.8 1.7 1.8S42 19 42 18v-4.7c0-.1.1-.2.2-.2h1.1c.1 0 .2.1.2.2v4.8c0 1.8-1.4 3.2-3.2 3.2-1.8 0-3.2-1.4-3.2-3.2V13.3zM45.5 13.2c0-.1.1-.2.2-.2H46l4.8 5.1h0v-4.8c0-.1.1-.2.2-.2h1.1c.1 0 .2.1.2.2v7.8c0 .1-.1.2-.2.2h-.3L47 16h0v5c0 .1-.1.2-.2.2h-1.1c-.1 0-.2-.1-.2-.2V13.2zM54.5 13.3c0-.1.1-.2.2-.2h2.7c2.2 0 4.1 1.8 4.1 4 0 2.2-1.8 4.1-4.1 4.1h-2.7c-.1 0-.2-.1-.2-.2V13.3zM57.3 19.8c1.5 0 2.6-1.1 2.6-2.6 0-1.5-1.1-2.6-2.6-2.6h-1.3v5.3H57.3zM61.9 20.9l3.6-7.8c0-.1.1-.1.2-.1h.1c.1 0 .2.1.2.1l3.6 7.8c.1.1 0 .3-.2.3h-1c-.2 0-.3-.1-.3-.2l-.6-1.2H64l-.6 1.2c0 .1-.1.2-.3.2h-1C61.9 21.2 61.8 21 61.9 20.9zM66.8 18.4l-1.2-2.5h0l-1.1 2.5H66.8zM74.1 13c1.2 0 2 .4 2.8 1.1.1.1.1.2 0 .3l-.7.7c-.1.1-.2.1-.3 0-.5-.4-1.1-.7-1.8-.7-1.5 0-2.6 1.2-2.6 2.7 0 1.4 1.1 2.7 2.6 2.7.7 0 1.3-.3 1.8-.7.1-.1.2-.1.3 0l.7.7c.1.1.1.2 0 .3-.8.8-1.8 1.1-2.8 1.1-2.3 0-4.2-1.8-4.2-4.1S71.8 13 74.1 13zM78.4 13.3c0-.1.1-.2.2-.2h1.1c.1 0 .2.1.2.2V21c0 .1-.1.2-.2.2h-1.1c-.1 0-.2-.1-.2-.2V13.3zM85.6 13c2.3 0 4.2 1.9 4.2 4.2s-1.8 4.1-4.2 4.1c-2.3 0-4.1-1.8-4.1-4.1S83.3 13 85.6 13zM85.6 19.8c1.5 0 2.7-1.2 2.7-2.6 0-1.5-1.2-2.7-2.7-2.7-1.5 0-2.6 1.2-2.6 2.7C82.9 18.6 84.1 19.8 85.6 19.8zM84.5 12.2l-.2-.4c0-.1 0-.2.1-.2l1.9-1.1c.1-.1.2-.1.3 0l.3.6c.1.1 0 .3-.1.3l-2 .9C84.6 12.4 84.6 12.3 84.5 12.2z"/>
    </g>
  </g>
</svg>
