<svg xmlns="http://www.w3.org/2000/svg" height="64" viewBox="0 0 25.6 25.6" width="64" version="1.1">
  <defs>
    <linearGradient id="b" gradientUnits="userSpaceOnUse" x1="365.462" y1="-221.145" x2="363.592" y2="-98.227" gradientTransform="matrix(.20021 0 0 -.20021 -60.167 -18.626)">
      <stop offset="0" style="stop-color:#589632"/>
      <stop offset="1" style="stop-color:#93b023"/>
    </linearGradient>
    <linearGradient id="a" gradientUnits="userSpaceOnUse" x1="402.524" y1="-220.871" x2="400.648" y2="-97.502" gradientTransform="matrix(1 0 0 -1 -300.52 -92.555)">
      <stop offset="0" style="stop-color:#589632"/>
      <stop offset="1" style="stop-color:#93b023"/>
    </linearGradient>
  </defs>
  <path transform="translate(0 -.095) scale(.20021)" style="fill:#ee7913" d="m52.613 72.746 16 15.802V69.625h18.278l-15.194-15H52.613z"/>
  <path transform="translate(0 -.095) scale(.20021)" style="fill:url(#a)" d="M107.143 126.625h19.47v-17.568L94.488 77.625H76.613v18.408z"/>
  <path transform="translate(0 -.095) scale(.20021)" style="fill:#f0e64a" d="m68.613 88.548 8 7.485V77.625h17.875l-7.597-8H68.613z"/>
  <path style="fill:url(#b);stroke-width:.20021117" d="M13.8 20.237c-.234.048-.355.031-.939.031-4.177 0-7.73-3.435-7.73-7.89 0-4.454 3.514-7.813 7.73-7.813 4.217 0 7.575 3.36 7.575 7.813a8.49 8.49 0 0 1-.257 2.082l3.866 3.867c.997-1.748 1.555-3.778 1.555-5.978C25.6 5.484 20.122.344 12.783.344 5.478.344 0 5.45 0 12.349c0 6.932 5.478 12.14 12.783 12.14 1.885 0 3.217-.294 4.613-.753z"/>
  <path transform="translate(0 -.095) scale(.20021)" style="opacity:.15;fill:#fff" d="M126.613 109.057v17.568l-73.53-72h18.614z"/>
</svg>
