<svg xmlns="http://www.w3.org/2000/svg" width="64" height="64">
  <path d="M60.505 1.088a26.807 26.807 0 0 0-18.517-7.345c-.574 0-1.162 0-1.742.055C25.7-5.222 14.545 7.1 15.01 21.672s12.386 26.156 26.965 26.206H69.04V20.82a26.8 26.8 0 0 0-8.534-19.733zM30.9 7.278h22.15a2.46 2.46 0 0 1 2.131 3.69 2.46 2.46 0 0 1-2.131 1.229H30.9a2.46 2.46 0 0 1-2.131-3.69A2.46 2.46 0 0 1 30.9 7.278zM53.05 34.35H30.9a2.466 2.466 0 0 1 0-4.926h22.15c1.3.07 2.337 1.15 2.337 2.463S54.36 34.28 53.05 34.35zm9.84-13.53a2.46 2.46 0 0 1-2.46 2.46H23.534a2.46 2.46 0 0 1-2.131-3.69 2.46 2.46 0 0 1 2.131-1.229H60.43a2.46 2.46 0 0 1 2.46 2.46z" fill="#f27557"/>
  <path d="M63.88-2.5c-12.595-11.82-32.298-11.505-44.51.708s-12.526 31.916-.708 44.51a32.113 32.113 0 0 0 23.313 10.085H71.54a2.467 2.467 0 0 0 2.46-2.46V20.82A32.111 32.111 0 0 0 63.88-2.5zm5.16 50.377H41.975c-14.578-.05-26.5-11.635-26.965-26.206S25.7-5.222 40.247-6.203c.58 0 1.168-.055 1.742-.055 14.944.015 27.05 12.134 27.05 27.078z" fill="#c34027"/>
  <path d="M53.05 29.423H30.9a2.474 2.474 0 0 0-2.337 2.463A2.47 2.47 0 0 0 30.9 34.35h22.15a2.466 2.466 0 0 0 0-4.926zM30.9 12.198h22.15a2.46 2.46 0 0 0 2.131-3.69 2.46 2.46 0 0 0-2.131-1.229H30.9a2.46 2.46 0 0 0-2.131 3.69 2.46 2.46 0 0 0 2.131 1.229zm-7.38 6.156a2.46 2.46 0 1 0 0 4.92h36.897a2.46 2.46 0 1 0 0-4.92z" fill="#fff"/>
</svg>
