<svg xmlns="http://www.w3.org/2000/svg" width="256" height="58.903" viewBox="0 0 256 58.903" version="1.1" style="clip-rule:evenodd;fill-rule:evenodd;stroke-linejoin:round;stroke-miterlimit:1.41420996">
  <g transform="matrix(1.13274 0 0 1.13274 -340.956 -751.284) matrix(.87938 0 0 .61905 288.689 304.814)">
    <path style="fill:none" d="M14 579h257v84H14z"/>
    <clipPath id="a">
      <path d="M14 579h257v84H14z"/>
    </clipPath>
    <g clip-path="url(#a)">
      <g transform="matrix(1.13717 0 0 1.61538 -414.712 -364.725)">
        <path d="M0-26.524a21.222 21.222 0 0 0-9.105-8.499 23.22 23.22 0 0 1-2.718 7.348l-2.135 3.705a9.237 9.237 0 0 1 3.533 3.465c2.565 4.442 1.042 10.124-3.401 12.689a9.29 9.29 0 0 1-12.689-3.4l-4.308-7.45h-6.952l-3.476 6.02 4.311 7.449C-31.05 5.004-18.007 8.499-7.806 2.609 2.394-3.28 5.889-16.323 0-26.524" style="fill:#70caf2;fill-rule:nonzero" transform="matrix(.77552 0 0 .77552 428.888 631.261)"/>
        <path d="M0-30.703c-10.201-5.889-23.244-2.394-29.133 7.806a21.218 21.218 0 0 0-2.808 12.135 23.218 23.218 0 0 1 7.723-1.32l4.275-.004a9.239 9.239 0 0 1 1.234-4.791c2.566-4.443 8.247-5.966 12.69-3.4a9.289 9.289 0 0 1 3.4 12.689L-6.916-.132l3.475 6.021 6.952-.001L7.806-1.57c5.89-10.2 2.395-23.244-7.806-29.133" style="fill:#b4e3f9;fill-rule:nonzero" transform="matrix(.77552 0 0 .77552 412.322 610.24)"/>
        <path d="m0 23.335-2.142-3.701a9.23 9.23 0 0 1-4.766 1.327 9.29 9.29 0 1 1 0-18.579l8.605-.006 3.477-6.02-3.477-6.02-8.606.008c-11.779 0-21.327 9.549-21.327 21.327 0 11.779 9.548 21.328 21.327 21.328A21.23 21.23 0 0 0 5 29.366a23.234 23.234 0 0 1-5-6.031" style="fill:#3f79ad;fill-rule:nonzero" transform="matrix(.77552 0 0 .77552 398.898 609.91)"/>
        <path d="M0 1.359c6.116 0 10.664-3.084 10.664-8.364v-.104c0-4.914-3.869-7.998-10.507-7.998h-12.494V1.359Zm-15.055-18.976H.314c4.495 0 8.102 1.412 10.298 3.608 1.725 1.725 2.77 4.181 2.77 6.795v.105c0 6.116-4.547 9.618-10.716 10.455l12.075 15.63h-3.45L-.366 3.816h-11.971v15.16h-2.718z" style="fill:#fff;fill-rule:nonzero" transform="matrix(.77552 0 0 .77552 456.352 608.959)"/>
        <path d="M0 .209V.105c0-10.403 7.841-18.924 19.08-18.924 6.9 0 11.03 2.3 14.428 5.646l-5.123 5.907c-2.823-2.562-5.698-4.13-9.357-4.13C12.859-11.396 8.416-6.273 8.416 0v.105c0 6.273 4.339 11.5 10.612 11.5 4.182 0 6.743-1.673 9.618-4.287l5.124 5.175c-3.765 4.026-7.947 6.535-15.004 6.535C7.998 19.028 0 10.716 0 .209" style="fill:#fff;fill-rule:nonzero" transform="matrix(.77552 0 0 .77552 469.485 609.405)"/>
        <path d="M0-36.592h8.05v29.274h18.244V0H0Z" style="fill:#fff;fill-rule:nonzero" transform="matrix(.77552 0 0 .77552 498.225 623.675)"/>
        <path d="M0 .209V.105c0-6.273-4.599-11.501-11.082-11.501-6.481 0-10.978 5.123-10.978 11.396v.105c0 6.273 4.601 11.5 11.083 11.5S0 6.482 0 .209m-30.475 0V.105c0-10.403 8.207-18.924 19.498-18.924S8.416-10.403 8.416 0v.105c0 10.402-8.206 18.923-19.498 18.923-11.291 0-19.393-8.416-19.393-18.819" style="fill:#fff;fill-rule:nonzero" transform="matrix(.77552 0 0 .77552 541.639 609.405)"/>
        <path d="M0-36.592h7.424l17.146 22.53v-22.53h7.945V0h-6.848L7.947-23.262V0H0Z" style="fill:#fff;fill-rule:nonzero" transform="matrix(.77552 0 0 .77552 551.284 623.675)"/>
        <path d="M0-36.592h27.601v7.162H7.997v7.422h17.251v7.162H7.997v7.684h19.865V0H0Z" style="fill:#fff;fill-rule:nonzero" transform="matrix(.77552 0 0 .77552 580.876 623.675)"/>
      </g>
    </g>
  </g>
</svg>
