<svg xmlns="http://www.w3.org/2000/svg" width="64" height="64" viewBox="-4.771 0.104 0.685 0.685">
  <path d="M-4.327.61c-.026.026-.067.03-.1.03s-.076-.005-.1-.03m.28-.405-.13-.03-.05.154.05-.154m.234.04c0 .018-.01.035-.026.044s-.035.01-.05 0-.026-.026-.026-.044c.001-.028.023-.05.05-.05s.05.022.05.05zm.008.306c0 .106-.13.192-.293.192S-4.723.627-4.723.52s.131-.19.293-.19.293.086.293.192zM-4.72.49c-.024-.01-.04-.034-.04-.06s.017-.052.043-.06.054-.002.072.02m.43.001c.017-.022.046-.03.072-.02s.043.034.043.06-.016.05-.04.06" fill="#fff"/>
  <path d="M-4.43.725c-.17 0-.306-.092-.306-.204l.002-.023A.075.075 0 0 1-4.77.432c0-.043.035-.078.078-.078.02 0 .037.007.05.02a.39.39 0 0 1 .203-.057l.052-.158h.012l.12.028a.064.064 0 0 1 .06-.04c.035 0 .064.03.064.064s-.03.064-.064.064S-4.26.25-4.26.215L-4.37.19l-.042.128a.39.39 0 0 1 .196.058.078.078 0 0 1 .053-.02.078.078 0 0 1 .038.146l.002.022c0 .113-.137.204-.306.204zm-.278-.23c-.002.01-.002.018-.002.025 0 .1.126.18.28.18s.28-.08.28-.18a.164.164 0 0 0-.002-.023.16.16 0 0 0-.067-.094.37.37 0 0 0-.211-.061.37.37 0 0 0-.204.056.166.166 0 0 0-.072.093zm.513-.106c.03.024.05.052.063.083a.05.05 0 0 0 .02-.04.051.051 0 0 0-.052-.052.054.054 0 0 0-.03.01zm-.5-.01a.051.051 0 0 0-.052.052c0 .016.007.03.018.04a.197.197 0 0 1 .063-.082.06.06 0 0 0-.03-.01zm.497-.203a.039.039 0 0 0-.038.038.038.038 0 1 0 .038-.038zm-.233.476c-.05 0-.087-.01-.11-.034.005-.023.013-.023.018-.018.018.018.048.027.092.027s.074-.01.092-.027c.017-.002.02.001.02.006-.026.035-.063.047-.114.047z"/>
  <path d="M-4.325.436c-.026 0-.048.022-.048.048s.022.047.048.047.047-.02.047-.047-.02-.048-.047-.048zm-.207 0c-.026 0-.048.022-.048.048s.022.047.048.047.047-.02.047-.047-.02-.048-.047-.048z" fill="#ff4500"/>
</svg>
