<svg version="1.1" xmlns="http://www.w3.org/2000/svg" x="0" y="0" viewBox="0 0 512 512" width="512" height="512" style="enable-background:new 0 0 512 512">
  <path d="M422.5 512h-333C40.1 512 0 471.9 0 422.5v-333C0 40.1 40.1 0 89.5 0h333C471.9 0 512 40.1 512 89.5v333c0 49.4-40.1 89.5-89.5 89.5z" style="fill:#1abafd"/>
  <path d="M389.4 287.9c-18 1.6-33.8 1.2-47-1.1-15.2-2.6-26.4-7.8-33.4-15.3-6.9-7.6-11-19-12.2-33.9l-.2-35.7h73.7l-131-146.7-131 146.8h73.8v254.8h114.4v-63.4l4.1 1.2c20.2 5.8 43.1 8.8 67.9 8.8 7.4 0 15.1-.3 22.8-.8l12.3-.8V286.6l-14.2 1.3z" style="fill:#fff"/>
</svg>
