<svg xmlns="http://www.w3.org/2000/svg" width="64" height="64" version="1.1" viewBox="0 0 16.933 16.933">
  <path transform="matrix(.65334 0 0 .65334 -16.64 -31.474) translate(1.462)" d="M37.564 48.174c-3.093 0-5.84.585-8.14 1.867-2.321 1.294-3.954 3.465-3.954 5.936 0 1.404.471 2.842 1.461 3.861a2.112 2.112 0 0 0 .022.021c.817.818 1.866 1.431 3.027 1.61a2.112 2.112 0 0 0 .182.02c-.017.064-.008.057-.026.122a2.112 2.112 0 0 0-.002.008c-.873 3.374-1.367 5.525-1.482 6.996a2.112 2.112 0 0 0 1.363 2.143c.596.223.965.21 1.377.21 1.385 0 2.693-.163 3.912-.515a2.112 2.112 0 0 0 1.52-1.845c.05-.573.402-1.985.552-2.848.07.3.083.247.153.58a2.112 2.112 0 0 0 .006.027c.238 1.073.33 1.527.47 1.998v.004c.38 1.73.692 2.97 1.594 4.088.956 1.202 2.48 1.635 3.91 1.635a6.713 6.713 0 0 0 4.159-1.451 2.112 2.112 0 0 0 .72-2.217l-.254-.914a2.112 2.112 0 0 0-1.787-1.531c-.034-.033-.085-.061-.232-.293-.382-.618-.956-1.85-1.59-3.573a2.112 2.112 0 0 0-.027-.07 152.41 152.41 0 0 0-.362-.877 20.326 20.326 0 0 0-.343-.76l-.022-.048a34.799 34.799 0 0 0-.482-1.125c.63-.455 1.354-.806 1.883-1.366a2.112 2.112 0 0 0 .013-.015c1.16-1.25 1.86-2.882 1.86-4.56 0-2.21-1.112-4.331-2.955-5.513-1.784-1.143-3.994-1.605-6.526-1.605zm-2.572 10.598c-.004.01 0 .019-.004.03-.002.005-.01.007-.012.013z" style="fill:#f40c8f"/>
  <path transform="matrix(.65334 0 0 .65334 1.38 1.38) translate(-26.122 -50.287)" d="M37.564 50.287c-2.828 0-5.198.533-7.111 1.6-1.914 1.066-2.87 2.43-2.87 4.09 0 .998.288 1.795.864 2.388.576.576 1.193.914 1.853 1.016a4.353 4.353 0 0 0 .635-1.88c-.372-.1-.744-.297-1.117-.585-.373-.305-.559-.686-.559-1.143 0-.948.685-1.844 2.057-2.691 1.388-.847 3.166-1.272 5.334-1.272 1.507 0 2.617.281 3.328.84.728.559 1.092 1.439 1.092 2.64 0 .83-.212 1.636-.635 2.415-.423.779-.88 1.354-1.371 1.726a2.678 2.678 0 0 0-1.295-.33c-.44 0-.704.127-.789.381-.085.237-.127.584-.127 1.041 0 .457.06.745.178.864.152.118.391.177.713.177a5.6 5.6 0 0 0 .66-.025c.322.643.72 2.1 1.193 4.369.237 1.067.381 1.684.432 1.853.372 1.71.778 2.837 1.219 3.38.44.558 1.195.837 2.261.837a4.44 4.44 0 0 0 2.844-.99l-.254-.914a.77.77 0 0 1-.228.025c-.491 0-1.007-.43-1.549-1.295-.525-.846-1.119-2.168-1.78-3.962-.152-.373-.27-.66-.355-.864a18.947 18.947 0 0 0-.355-.787 33.469 33.469 0 0 0-.559-1.297c-.22-.525-.474-.93-.762-1.219 1.22-.592 2.262-1.345 3.125-2.26.864-.93 1.295-1.973 1.295-3.124 0-1.643-.661-2.888-1.982-3.735-1.32-.846-3.116-1.27-5.385-1.27zm-1.295 2.922c-1.338 0-2.454.262-3.351.787l-.026.178c.407.457.61.88.61 1.27 0 1.117-.442 3.352-1.323 6.704-.863 3.336-1.337 5.547-1.422 6.631.136.051.347.076.635.076 1.22 0 2.33-.143 3.328-.431.153-1.744.66-4.379 1.524-7.9.88-3.523 1.32-5.656 1.32-6.401 0-.339-.042-.6-.127-.787-.254-.085-.643-.127-1.168-.127z" style="fill:#fff"/>
</svg>
