<svg xmlns="http://www.w3.org/2000/svg" xmlns:xlink="http://www.w3.org/1999/xlink" width="120" height="60">
  <path d="M43.447 32.813h-2.253l-2.912-3.362h-1.817V32.8H34.57V22.767l4.767.013c2.366.012 3.61 1.593 3.61 3.322 0 1.37-.634 2.765-2.539 3.15l3.038 3.424zm-6.996-8.267v3.212h2.876c1.208 0 1.72-.809 1.72-1.605s-.536-1.606-1.72-1.606zm14.664 4.745c0 2.038-1.394 3.686-3.686 3.686s-3.672-1.644-3.672-3.686c0-2.016 1.407-3.686 3.659-3.686s3.697 1.657 3.697 3.686zm-5.602 0c0 1.07.647 2.079 1.917 2.079s1.918-1.009 1.918-2.079c0-1.058-.747-2.09-1.918-2.09-1.258 0-1.917 1.02-1.917 2.09zm12.362-4.258 1.293.97-.784 1.01c.548.609.747 1.328.747 2.09 0 .872-.336 2.105-1.494 2.64 1.17.586 1.457 1.433 1.457 2.34 0 1.954-1.494 3.15-3.544 3.15s-3.585-1.245-3.585-3.15h1.73c0 .921.847 1.519 1.855 1.519s1.792-.548 1.792-1.52-.921-1.419-1.792-1.419c-2.215-.012-3.585-1.355-3.585-3.56s1.605-3.585 3.585-3.585c.56 0 1.134.075 1.619.4zm-4.17 4.07c0 1.24.832 1.967 1.854 1.967 1.008 0 1.83-.747 1.83-1.967s-.833-1.992-1.83-1.992c-1.021 0-1.855.76-1.855 1.992zm8.328-3.36v3.697c0 1.07.585 1.893 1.706 1.893 1.07 0 1.805-.91 1.805-1.98v-3.61h1.73v7.092h-1.556l-.112-.958c-.735.722-1.407 1.058-2.39 1.058-1.684 0-2.926-1.27-2.926-3.474v-3.71zm8.29 4.158c.112.872.873 1.506 2.105 1.506.647 0 1.494-.237 1.893-.66l1.12 1.107c-.746.771-1.966 1.146-3.037 1.146-2.44 0-3.884-1.506-3.884-3.772 0-2.153 1.456-3.697 3.76-3.697 2.365 0 3.833 1.456 3.572 4.37zm3.835-1.444c-.112-.922-.833-1.37-1.83-1.37-.946 0-1.719.46-1.98 1.37zm13.993 4.356h-1.606l-1.245-3.15-1.058-3.163-1.046 3.19-1.22 3.113h-1.605l-3.686-10.035h2.126L81.177 30l2.44-7.233h1.24L87.36 30l2.29-7.233h2.127zm9.064-7.07h1.681v7.059h-1.644l-.086-1.033c-.4.832-1.507 1.24-2.29 1.244-2.092.013-3.636-1.27-3.636-3.76 0-2.44 1.618-3.709 3.686-3.697.946 0 1.854.449 2.253 1.146zm-4.253 3.544c0 1.344.934 2.153 2.091 2.153 2.751 0 2.751-4.282 0-4.282-1.158-.013-2.09.77-2.09 2.129zm14.278-3.558-3.013 7.109h-1.892l-3.025-7.109h1.905l.97 2.34 1.084 2.975 1.07-2.95.971-2.367h1.93zm2.348 4.172c.112.872.872 1.506 2.104 1.506.647 0 1.494-.237 1.893-.66l1.12 1.107c-.746.771-1.966 1.146-3.037 1.146-2.44 0-3.884-1.506-3.884-3.772 0-2.153 1.457-3.697 3.76-3.697 2.365 0 3.833 1.456 3.572 4.37zm3.847-1.444c-.112-.922-.833-1.37-1.83-1.37-.946 0-1.719.46-1.979 1.37z" fill="#002b49"/>
  <g fill="#236092" transform="matrix(1.63669 0 0 1.63669 -3.33 -16.56)">
    <use xlink:href="#a"/>
    <use xlink:href="#a" y="4.017"/>
    <path d="M10.29 32.712c-2.15 0-5.255.97-5.255.97-.197.913.464 1.363.464 1.363 2.375-.885 5.03-.885 5.03-.885h5.27c.45-.76 0-1.447 0-1.447H10.29z"/>
  </g>
  <g fill="#238dc1" transform="matrix(1.63669 0 0 1.63669 -3.33 -16.56)">
    <use xlink:href="#b"/>
    <use xlink:href="#b" y="-4.004"/>
    <path d="M15.645 24.17c2.15 0 5.255-.955 5.255-.955.197-.913-.464-1.363-.464-1.363-2.375.87-5.03.87-5.03.87h-5.27c-.45.76 0 1.447 0 1.447z"/>
  </g>
  <defs>
    <path id="a" d="M10.29 24.69c-2.15 0-5.255.955-5.255.955-.197.913.464 1.363.464 1.363 2.375-.885 5.03-.885 5.03-.885h5.27c.45-.76 0-1.447 0-1.447H10.29z"/>
    <path id="b" d="M15.645 32.192c2.15 0 5.255-.955 5.255-.955.197-.913-.464-1.363-.464-1.363-2.375.885-5.03.885-5.03.885h-5.27c-.45.76 0 1.447 0 1.447h5.508z"/>
  </defs>
</svg>
