<svg xmlns="http://www.w3.org/2000/svg" xmlns:xlink="http://www.w3.org/1999/xlink" version="1.1" width="120" height="60" viewBox="0 0 120 60" overflow="visible" style="overflow:visible">
  <defs>
    <linearGradient id="a" gradientUnits="userSpaceOnUse" x1="174.074" y1="215.549" x2="132.276" y2="141.753">
      <stop offset="0" style="stop-color:#fb7655"/>
      <stop offset="0" style="stop-color:#fb7655"/>
      <stop offset=".41" style="stop-color:#e42b1e"/>
      <stop offset=".99" style="stop-color:#900"/>
      <stop offset="1" style="stop-color:#900"/>
    </linearGradient>
    <linearGradient gradientUnits="userSpaceOnUse" x1="194.895" y1="153.558" x2="141.028" y2="117.409">
      <stop offset="0" style="stop-color:#871101"/>
      <stop offset="0" style="stop-color:#871101"/>
      <stop offset=".99" style="stop-color:#911209"/>
      <stop offset="1" style="stop-color:#911209"/>
    </linearGradient>
    <linearGradient gradientUnits="userSpaceOnUse" x1="151.795" y1="217.785" x2="97.93" y2="181.638">
      <stop offset="0" style="stop-color:#871101"/>
      <stop offset="0" style="stop-color:#871101"/>
      <stop offset=".99" style="stop-color:#911209"/>
      <stop offset="1" style="stop-color:#911209"/>
    </linearGradient>
    <linearGradient gradientUnits="userSpaceOnUse" x1="38.696" y1="127.391" x2="47.047" y2="181.661">
      <stop offset="0" style="stop-color:#fff"/>
      <stop offset="0" style="stop-color:#fff"/>
      <stop offset=".23" style="stop-color:#e57252"/>
      <stop offset=".46" style="stop-color:#de3b20"/>
      <stop offset=".99" style="stop-color:#a60003"/>
      <stop offset="1" style="stop-color:#a60003"/>
    </linearGradient>
    <linearGradient gradientUnits="userSpaceOnUse" x1="96.133" y1="76.715" x2="99.21" y2="132.102">
      <stop offset="0" style="stop-color:#fff"/>
      <stop offset="0" style="stop-color:#fff"/>
      <stop offset=".23" style="stop-color:#e4714e"/>
      <stop offset=".56" style="stop-color:#be1a0d"/>
      <stop offset=".99" style="stop-color:#a80d00"/>
      <stop offset="1" style="stop-color:#a80d00"/>
    </linearGradient>
    <linearGradient gradientUnits="userSpaceOnUse" x1="147.103" y1="25.521" x2="156.314" y2="65.216">
      <stop offset="0" style="stop-color:#fff"/>
      <stop offset="0" style="stop-color:#fff"/>
      <stop offset=".18" style="stop-color:#e46342"/>
      <stop offset=".4" style="stop-color:#c82410"/>
      <stop offset=".99" style="stop-color:#a80d00"/>
      <stop offset="1" style="stop-color:#a80d00"/>
    </linearGradient>
    <linearGradient gradientUnits="userSpaceOnUse" x1="118.976" y1="11.541" x2="158.669" y2="-8.305">
      <stop offset="0" style="stop-color:#fff"/>
      <stop offset="0" style="stop-color:#fff"/>
      <stop offset=".54" style="stop-color:#c81f11"/>
      <stop offset=".99" style="stop-color:#bf0905"/>
      <stop offset="1" style="stop-color:#bf0905"/>
    </linearGradient>
    <linearGradient gradientUnits="userSpaceOnUse" x1="3.903" y1="113.555" x2="7.17" y2="146.263">
      <stop offset="0" style="stop-color:#fff"/>
      <stop offset="0" style="stop-color:#fff"/>
      <stop offset=".31" style="stop-color:#de4024"/>
      <stop offset=".99" style="stop-color:#bf190b"/>
      <stop offset="1" style="stop-color:#bf190b"/>
    </linearGradient>
    <linearGradient gradientUnits="userSpaceOnUse" x1="-18.556" y1="155.105" x2="135.015" y2="-2.809">
      <stop offset="0" style="stop-color:#bd0012"/>
      <stop offset="0" style="stop-color:#bd0012"/>
      <stop offset=".07" style="stop-color:#fff"/>
      <stop offset=".17" style="stop-color:#fff"/>
      <stop offset=".27" style="stop-color:#c82f1c"/>
      <stop offset=".33" style="stop-color:#820c01"/>
      <stop offset=".46" style="stop-color:#a31601"/>
      <stop offset=".72" style="stop-color:#b31301"/>
      <stop offset=".99" style="stop-color:#e82609"/>
      <stop offset="1" style="stop-color:#e82609"/>
    </linearGradient>
    <linearGradient gradientUnits="userSpaceOnUse" x1="99.075" y1="171.033" x2="52.818" y2="159.617">
      <stop offset="0" style="stop-color:#8c0c01"/>
      <stop offset="0" style="stop-color:#8c0c01"/>
      <stop offset=".54" style="stop-color:#990c00"/>
      <stop offset=".99" style="stop-color:#a80d0e"/>
      <stop offset="1" style="stop-color:#a80d0e"/>
    </linearGradient>
    <linearGradient gradientUnits="userSpaceOnUse" x1="178.526" y1="115.515" x2="137.433" y2="78.684">
      <stop offset="0" style="stop-color:#7e110b"/>
      <stop offset="0" style="stop-color:#7e110b"/>
      <stop offset=".99" style="stop-color:#9e0c00"/>
      <stop offset="1" style="stop-color:#9e0c00"/>
    </linearGradient>
    <linearGradient gradientUnits="userSpaceOnUse" x1="193.624" y1="47.937" x2="173.154" y2="26.054">
      <stop offset="0" style="stop-color:#79130d"/>
      <stop offset="0" style="stop-color:#79130d"/>
      <stop offset=".99" style="stop-color:#9e120b"/>
      <stop offset="1" style="stop-color:#9e120b"/>
    </linearGradient>
    <linearGradient gradientUnits="userSpaceOnUse" x1="26.67" y1="197.336" x2="9.989" y2="140.742">
      <stop offset="0" style="stop-color:#8b2114"/>
      <stop offset="0" style="stop-color:#8b2114"/>
      <stop offset=".43" style="stop-color:#9e100a"/>
      <stop offset=".99" style="stop-color:#b3100c"/>
      <stop offset="1" style="stop-color:#b3100c"/>
    </linearGradient>
    <linearGradient gradientUnits="userSpaceOnUse" x1="154.641" y1="9.798" x2="192.039" y2="26.306">
      <stop offset="0" style="stop-color:#b31000"/>
      <stop offset="0" style="stop-color:#b31000"/>
      <stop offset=".44" style="stop-color:#910f08"/>
      <stop offset=".99" style="stop-color:#791c12"/>
      <stop offset="1" style="stop-color:#791c12"/>
    </linearGradient>
    <linearGradient y2="141.753" x2="132.276" y1="215.549" x1="174.074" gradientUnits="userSpaceOnUse" xlink:href="#a"/>
    <linearGradient y2="141.753" x2="132.276" y1="215.549" x1="174.074" gradientUnits="userSpaceOnUse" id="d" xlink:href="#b"/>
    <linearGradient id="b" gradientUnits="userSpaceOnUse" x1="174.074" y1="215.549" x2="132.276" y2="141.753">
      <stop offset="0" style="stop-color:#fb7655"/>
      <stop offset="0" style="stop-color:#fb7655"/>
      <stop offset=".41" style="stop-color:#e42b1e"/>
      <stop offset=".99" style="stop-color:#900"/>
      <stop offset="1" style="stop-color:#900"/>
    </linearGradient>
    <linearGradient id="e" gradientUnits="userSpaceOnUse" x1="194.895" y1="153.558" x2="141.028" y2="117.409">
      <stop offset="0" style="stop-color:#871101"/>
      <stop offset="0" style="stop-color:#871101"/>
      <stop offset=".99" style="stop-color:#911209"/>
      <stop offset="1" style="stop-color:#911209"/>
    </linearGradient>
    <linearGradient id="f" gradientUnits="userSpaceOnUse" x1="151.795" y1="217.785" x2="97.93" y2="181.638">
      <stop offset="0" style="stop-color:#871101"/>
      <stop offset="0" style="stop-color:#871101"/>
      <stop offset=".99" style="stop-color:#911209"/>
      <stop offset="1" style="stop-color:#911209"/>
    </linearGradient>
    <linearGradient id="g" gradientUnits="userSpaceOnUse" x1="38.696" y1="127.391" x2="47.047" y2="181.661">
      <stop offset="0" style="stop-color:#fff"/>
      <stop offset="0" style="stop-color:#fff"/>
      <stop offset=".23" style="stop-color:#e57252"/>
      <stop offset=".46" style="stop-color:#de3b20"/>
      <stop offset=".99" style="stop-color:#a60003"/>
      <stop offset="1" style="stop-color:#a60003"/>
    </linearGradient>
    <linearGradient id="h" gradientUnits="userSpaceOnUse" x1="96.133" y1="76.715" x2="99.21" y2="132.102">
      <stop offset="0" style="stop-color:#fff"/>
      <stop offset="0" style="stop-color:#fff"/>
      <stop offset=".23" style="stop-color:#e4714e"/>
      <stop offset=".56" style="stop-color:#be1a0d"/>
      <stop offset=".99" style="stop-color:#a80d00"/>
      <stop offset="1" style="stop-color:#a80d00"/>
    </linearGradient>
    <linearGradient id="i" gradientUnits="userSpaceOnUse" x1="147.103" y1="25.521" x2="156.314" y2="65.216">
      <stop offset="0" style="stop-color:#fff"/>
      <stop offset="0" style="stop-color:#fff"/>
      <stop offset=".18" style="stop-color:#e46342"/>
      <stop offset=".4" style="stop-color:#c82410"/>
      <stop offset=".99" style="stop-color:#a80d00"/>
      <stop offset="1" style="stop-color:#a80d00"/>
    </linearGradient>
    <linearGradient id="j" gradientUnits="userSpaceOnUse" x1="118.976" y1="11.541" x2="158.669" y2="-8.305">
      <stop offset="0" style="stop-color:#fff"/>
      <stop offset="0" style="stop-color:#fff"/>
      <stop offset=".54" style="stop-color:#c81f11"/>
      <stop offset=".99" style="stop-color:#bf0905"/>
      <stop offset="1" style="stop-color:#bf0905"/>
    </linearGradient>
    <linearGradient id="k" gradientUnits="userSpaceOnUse" x1="3.903" y1="113.555" x2="7.17" y2="146.263">
      <stop offset="0" style="stop-color:#fff"/>
      <stop offset="0" style="stop-color:#fff"/>
      <stop offset=".31" style="stop-color:#de4024"/>
      <stop offset=".99" style="stop-color:#bf190b"/>
      <stop offset="1" style="stop-color:#bf190b"/>
    </linearGradient>
    <linearGradient id="l" gradientUnits="userSpaceOnUse" x1="-18.556" y1="155.105" x2="135.015" y2="-2.809">
      <stop offset="0" style="stop-color:#bd0012"/>
      <stop offset="0" style="stop-color:#bd0012"/>
      <stop offset=".07" style="stop-color:#fff"/>
      <stop offset=".17" style="stop-color:#fff"/>
      <stop offset=".27" style="stop-color:#c82f1c"/>
      <stop offset=".33" style="stop-color:#820c01"/>
      <stop offset=".46" style="stop-color:#a31601"/>
      <stop offset=".72" style="stop-color:#b31301"/>
      <stop offset=".99" style="stop-color:#e82609"/>
      <stop offset="1" style="stop-color:#e82609"/>
    </linearGradient>
    <linearGradient id="m" gradientUnits="userSpaceOnUse" x1="99.075" y1="171.033" x2="52.818" y2="159.617">
      <stop offset="0" style="stop-color:#8c0c01"/>
      <stop offset="0" style="stop-color:#8c0c01"/>
      <stop offset=".54" style="stop-color:#990c00"/>
      <stop offset=".99" style="stop-color:#a80d0e"/>
      <stop offset="1" style="stop-color:#a80d0e"/>
    </linearGradient>
    <linearGradient id="n" gradientUnits="userSpaceOnUse" x1="178.526" y1="115.515" x2="137.433" y2="78.684">
      <stop offset="0" style="stop-color:#7e110b"/>
      <stop offset="0" style="stop-color:#7e110b"/>
      <stop offset=".99" style="stop-color:#9e0c00"/>
      <stop offset="1" style="stop-color:#9e0c00"/>
    </linearGradient>
    <linearGradient id="o" gradientUnits="userSpaceOnUse" x1="193.624" y1="47.937" x2="173.154" y2="26.054">
      <stop offset="0" style="stop-color:#79130d"/>
      <stop offset="0" style="stop-color:#79130d"/>
      <stop offset=".99" style="stop-color:#9e120b"/>
      <stop offset="1" style="stop-color:#9e120b"/>
    </linearGradient>
    <linearGradient id="r" gradientUnits="userSpaceOnUse" x1="26.67" y1="197.336" x2="9.989" y2="140.742">
      <stop offset="0" style="stop-color:#8b2114"/>
      <stop offset="0" style="stop-color:#8b2114"/>
      <stop offset=".43" style="stop-color:#9e100a"/>
      <stop offset=".99" style="stop-color:#b3100c"/>
      <stop offset="1" style="stop-color:#b3100c"/>
    </linearGradient>
    <linearGradient id="c" gradientUnits="userSpaceOnUse" x1="154.641" y1="9.798" x2="192.039" y2="26.306">
      <stop offset="0" style="stop-color:#b31000"/>
      <stop offset="0" style="stop-color:#b31000"/>
      <stop offset=".44" style="stop-color:#910f08"/>
      <stop offset=".99" style="stop-color:#791c12"/>
      <stop offset="1" style="stop-color:#791c12"/>
    </linearGradient>
    <linearGradient y2="26.306" x2="192.039" y1="9.798" x1="154.641" gradientUnits="userSpaceOnUse" id="s" xlink:href="#c"/>
    <radialGradient cx="143.832" cy="79.388" r="50.358" gradientUnits="userSpaceOnUse">
      <stop offset="0" style="stop-color:#a80d00"/>
      <stop offset="0" style="stop-color:#a80d00"/>
      <stop offset=".99" style="stop-color:#7e0e08"/>
      <stop offset="1" style="stop-color:#7e0e08"/>
    </radialGradient>
    <radialGradient cx="74.092" cy="145.751" r="66.944" gradientUnits="userSpaceOnUse">
      <stop offset="0" style="stop-color:#a30c00"/>
      <stop offset="0" style="stop-color:#a30c00"/>
      <stop offset=".99" style="stop-color:#800e08"/>
      <stop offset="1" style="stop-color:#800e08"/>
    </radialGradient>
    <radialGradient id="p" cx="143.832" cy="79.388" r="50.358" gradientUnits="userSpaceOnUse">
      <stop offset="0" style="stop-color:#a80d00"/>
      <stop offset="0" style="stop-color:#a80d00"/>
      <stop offset=".99" style="stop-color:#7e0e08"/>
      <stop offset="1" style="stop-color:#7e0e08"/>
    </radialGradient>
    <radialGradient id="q" cx="74.092" cy="145.751" r="66.944" gradientUnits="userSpaceOnUse">
      <stop offset="0" style="stop-color:#a30c00"/>
      <stop offset="0" style="stop-color:#a30c00"/>
      <stop offset=".99" style="stop-color:#800e08"/>
      <stop offset="1" style="stop-color:#800e08"/>
    </radialGradient>
  </defs>
  <linearGradient gradientUnits="userSpaceOnUse" x1="174.074" y1="215.549" x2="132.276" y2="141.753">
    <stop offset="0" style="stop-color:#fb7655"/>
    <stop offset="0" style="stop-color:#fb7655"/>
    <stop offset=".41" style="stop-color:#e42b1e"/>
    <stop offset=".99" style="stop-color:#900"/>
    <stop offset="1" style="stop-color:#900"/>
  </linearGradient>
  <linearGradient gradientUnits="userSpaceOnUse" x1="194.895" y1="153.558" x2="141.028" y2="117.409">
    <stop offset="0" style="stop-color:#871101"/>
    <stop offset="0" style="stop-color:#871101"/>
    <stop offset=".99" style="stop-color:#911209"/>
    <stop offset="1" style="stop-color:#911209"/>
  </linearGradient>
  <linearGradient gradientUnits="userSpaceOnUse" x1="151.795" y1="217.785" x2="97.93" y2="181.638">
    <stop offset="0" style="stop-color:#871101"/>
    <stop offset="0" style="stop-color:#871101"/>
    <stop offset=".99" style="stop-color:#911209"/>
    <stop offset="1" style="stop-color:#911209"/>
  </linearGradient>
  <linearGradient gradientUnits="userSpaceOnUse" x1="38.696" y1="127.391" x2="47.047" y2="181.661">
    <stop offset="0" style="stop-color:#fff"/>
    <stop offset="0" style="stop-color:#fff"/>
    <stop offset=".23" style="stop-color:#e57252"/>
    <stop offset=".46" style="stop-color:#de3b20"/>
    <stop offset=".99" style="stop-color:#a60003"/>
    <stop offset="1" style="stop-color:#a60003"/>
  </linearGradient>
  <linearGradient gradientUnits="userSpaceOnUse" x1="96.133" y1="76.715" x2="99.21" y2="132.102">
    <stop offset="0" style="stop-color:#fff"/>
    <stop offset="0" style="stop-color:#fff"/>
    <stop offset=".23" style="stop-color:#e4714e"/>
    <stop offset=".56" style="stop-color:#be1a0d"/>
    <stop offset=".99" style="stop-color:#a80d00"/>
    <stop offset="1" style="stop-color:#a80d00"/>
  </linearGradient>
  <linearGradient gradientUnits="userSpaceOnUse" x1="147.103" y1="25.521" x2="156.314" y2="65.216">
    <stop offset="0" style="stop-color:#fff"/>
    <stop offset="0" style="stop-color:#fff"/>
    <stop offset=".18" style="stop-color:#e46342"/>
    <stop offset=".4" style="stop-color:#c82410"/>
    <stop offset=".99" style="stop-color:#a80d00"/>
    <stop offset="1" style="stop-color:#a80d00"/>
  </linearGradient>
  <linearGradient gradientUnits="userSpaceOnUse" x1="118.976" y1="11.541" x2="158.669" y2="-8.305">
    <stop offset="0" style="stop-color:#fff"/>
    <stop offset="0" style="stop-color:#fff"/>
    <stop offset=".54" style="stop-color:#c81f11"/>
    <stop offset=".99" style="stop-color:#bf0905"/>
    <stop offset="1" style="stop-color:#bf0905"/>
  </linearGradient>
  <linearGradient gradientUnits="userSpaceOnUse" x1="3.903" y1="113.555" x2="7.17" y2="146.263">
    <stop offset="0" style="stop-color:#fff"/>
    <stop offset="0" style="stop-color:#fff"/>
    <stop offset=".31" style="stop-color:#de4024"/>
    <stop offset=".99" style="stop-color:#bf190b"/>
    <stop offset="1" style="stop-color:#bf190b"/>
  </linearGradient>
  <linearGradient gradientUnits="userSpaceOnUse" x1="-18.556" y1="155.105" x2="135.015" y2="-2.809">
    <stop offset="0" style="stop-color:#bd0012"/>
    <stop offset="0" style="stop-color:#bd0012"/>
    <stop offset=".07" style="stop-color:#fff"/>
    <stop offset=".17" style="stop-color:#fff"/>
    <stop offset=".27" style="stop-color:#c82f1c"/>
    <stop offset=".33" style="stop-color:#820c01"/>
    <stop offset=".46" style="stop-color:#a31601"/>
    <stop offset=".72" style="stop-color:#b31301"/>
    <stop offset=".99" style="stop-color:#e82609"/>
    <stop offset="1" style="stop-color:#e82609"/>
  </linearGradient>
  <linearGradient gradientUnits="userSpaceOnUse" x1="99.075" y1="171.033" x2="52.818" y2="159.617">
    <stop offset="0" style="stop-color:#8c0c01"/>
    <stop offset="0" style="stop-color:#8c0c01"/>
    <stop offset=".54" style="stop-color:#990c00"/>
    <stop offset=".99" style="stop-color:#a80d0e"/>
    <stop offset="1" style="stop-color:#a80d0e"/>
  </linearGradient>
  <linearGradient gradientUnits="userSpaceOnUse" x1="178.526" y1="115.515" x2="137.433" y2="78.684">
    <stop offset="0" style="stop-color:#7e110b"/>
    <stop offset="0" style="stop-color:#7e110b"/>
    <stop offset=".99" style="stop-color:#9e0c00"/>
    <stop offset="1" style="stop-color:#9e0c00"/>
  </linearGradient>
  <linearGradient gradientUnits="userSpaceOnUse" x1="193.624" y1="47.937" x2="173.154" y2="26.054">
    <stop offset="0" style="stop-color:#79130d"/>
    <stop offset="0" style="stop-color:#79130d"/>
    <stop offset=".99" style="stop-color:#9e120b"/>
    <stop offset="1" style="stop-color:#9e120b"/>
  </linearGradient>
  <radialGradient cx="143.832" cy="79.388" r="50.358" gradientUnits="userSpaceOnUse">
    <stop offset="0" style="stop-color:#a80d00"/>
    <stop offset="0" style="stop-color:#a80d00"/>
    <stop offset=".99" style="stop-color:#7e0e08"/>
    <stop offset="1" style="stop-color:#7e0e08"/>
  </radialGradient>
  <radialGradient cx="74.092" cy="145.751" r="66.944" gradientUnits="userSpaceOnUse">
    <stop offset="0" style="stop-color:#a30c00"/>
    <stop offset="0" style="stop-color:#a30c00"/>
    <stop offset=".99" style="stop-color:#800e08"/>
    <stop offset="1" style="stop-color:#800e08"/>
  </radialGradient>
  <linearGradient gradientUnits="userSpaceOnUse" x1="26.67" y1="197.336" x2="9.989" y2="140.742">
    <stop offset="0" style="stop-color:#8b2114"/>
    <stop offset="0" style="stop-color:#8b2114"/>
    <stop offset=".43" style="stop-color:#9e100a"/>
    <stop offset=".99" style="stop-color:#b3100c"/>
    <stop offset="1" style="stop-color:#b3100c"/>
  </linearGradient>
  <linearGradient gradientUnits="userSpaceOnUse" x1="154.641" y1="9.798" x2="192.039" y2="26.306">
    <stop offset="0" style="stop-color:#b31000"/>
    <stop offset="0" style="stop-color:#b31000"/>
    <stop offset=".44" style="stop-color:#910f08"/>
    <stop offset=".99" style="stop-color:#791c12"/>
    <stop offset="1" style="stop-color:#791c12"/>
  </linearGradient>
  <path style="font-size:32px;font-style:normal;font-variant:normal;font-weight:400;font-stretch:normal;line-height:125%;letter-spacing:0;word-spacing:0;fill:#000;fill-opacity:1;stroke:none;font-family:Georgia;-inkscape-font-specification:Georgia" d="M65.387 38.023h-5.969a132.342 132.342 0 0 0-3.594-5.375 119.215 119.215 0 0 0-3.468-4.671H50.09v7.03c0 .365.057.688.172.97.114.27.36.479.734.625.188.073.516.14.985.203.468.062.864.099 1.187.11v1.108h-9.375v-1.109c.25-.02.61-.057 1.078-.11.48-.051.813-.12 1-.202.313-.136.537-.334.672-.594.146-.26.219-.594.219-1V18.977a2.78 2.78 0 0 0-.156-.97c-.105-.28-.35-.494-.735-.64a6.283 6.283 0 0 0-1.015-.25 8.75 8.75 0 0 0-1.063-.156v-1.11h10.234c.938 0 1.818.1 2.641.297a6.98 6.98 0 0 1 2.234.922 4.674 4.674 0 0 1 1.547 1.641c.386.667.578 1.474.578 2.422 0 .854-.13 1.61-.39 2.265a4.669 4.669 0 0 1-1.156 1.704 7.028 7.028 0 0 1-1.688 1.171 13.27 13.27 0 0 1-2.172.829c1.094 1.448 2 2.666 2.719 3.656.729.99 1.62 2.193 2.672 3.61.458.624.87 1.088 1.234 1.39.375.292.745.531 1.11.719.27.135.609.24 1.015.312.406.073.745.115 1.016.125v1.11m-8.219-16.532c0-1.344-.385-2.406-1.156-3.187-.771-.792-1.86-1.188-3.266-1.188H50.09v9.516h2.047c1.437 0 2.635-.458 3.593-1.375.959-.927 1.438-2.182 1.438-3.766"/>
  <path style="font-size:32px;font-style:normal;font-variant:normal;font-weight:400;font-stretch:normal;line-height:125%;letter-spacing:0;word-spacing:0;fill:#000;fill-opacity:1;stroke:none;font-family:Georgia;-inkscape-font-specification:Georgia" d="m82.34 37.742-5.016.344-.234-.219v-1.953h-.094c-.25.26-.531.542-.844.844a6.154 6.154 0 0 1-1.078.797 6.903 6.903 0 0 1-1.36.64c-.437.146-1.056.22-1.858.22-1.365 0-2.407-.444-3.125-1.329-.709-.896-1.063-2.193-1.063-3.89V25.82c0-.375-.073-.687-.219-.937a1.864 1.864 0 0 0-.61-.672 1.87 1.87 0 0 0-.702-.266 5.921 5.921 0 0 0-.89-.125v-1.015l5.14-.375.234.218v10.704c0 1.114.25 1.953.75 2.515.5.563 1.1.844 1.797.844.573 0 1.083-.089 1.531-.266a4.41 4.41 0 0 0 1.125-.625c.282-.218.526-.448.735-.687.218-.25.385-.48.5-.688v-8.734a1.81 1.81 0 0 0-.22-.906 2.017 2.017 0 0 0-.608-.688c-.188-.125-.47-.198-.844-.219a31.207 31.207 0 0 0-1.235-.078v-1.015l5.594-.375.235.218v12.235c0 .354.072.656.218.906.146.25.35.464.61.64.187.115.411.193.672.235.26.031.546.052.859.063v1.015"/>
  <path style="font-size:32px;font-style:normal;font-variant:normal;font-weight:400;font-stretch:normal;line-height:125%;letter-spacing:0;word-spacing:0;fill:#000;fill-opacity:1;stroke:none;font-family:Georgia;-inkscape-font-specification:Georgia" d="M99.902 30.305c0 2.312-.729 4.255-2.187 5.828-1.458 1.573-3.151 2.36-5.078 2.36a8.24 8.24 0 0 1-2.5-.391c-.813-.26-1.578-.61-2.297-1.047l-1.156 1.797-.97-.22c.053-.77.09-1.697.11-2.78.021-1.084.031-2.13.031-3.141v-15.25c0-.354-.083-.708-.25-1.063-.156-.354-.359-.609-.609-.765-.198-.136-.531-.235-1-.297-.458-.073-.828-.12-1.11-.14v-1l5.657-.36.219.234v10.157l.11.03c.645-.687 1.348-1.202 2.108-1.546.771-.344 1.526-.516 2.266-.516 1.896 0 3.48.75 4.75 2.25s1.906 3.453 1.906 5.86m-3.265.11c0-.772-.084-1.558-.25-2.36-.167-.802-.427-1.5-.782-2.094a4.37 4.37 0 0 0-1.39-1.469c-.573-.375-1.26-.562-2.063-.562-.729 0-1.37.146-1.922.437a5.147 5.147 0 0 0-1.468 1.156v8.97c.062.25.182.54.36.874.187.334.437.651.75.953a4.15 4.15 0 0 0 1.062.72c.395.176.88.265 1.453.265 1.27 0 2.297-.615 3.078-1.844.781-1.23 1.172-2.911 1.172-5.047"/>
  <path style="font-size:32px;font-style:normal;font-variant:normal;font-weight:400;font-stretch:normal;line-height:125%;letter-spacing:0;word-spacing:0;fill:#000;fill-opacity:1;stroke:none;font-family:Georgia;-inkscape-font-specification:Georgia" d="M101.027 43.055c0-.521.141-.948.422-1.282a1.396 1.396 0 0 1 1.078-.484c.334 0 .62.063.86.188s.453.286.64.484c.157.156.323.37.5.64.177.271.318.495.422.672.521-.28 1.14-1.015 1.86-2.203.729-1.187 1.255-2.229 1.578-3.125a770.957 770.957 0 0 0-5.203-12.672 2.204 2.204 0 0 0-1-1.109 4.055 4.055 0 0 0-1.407-.516v-1.03h7.032v1.093c-.313.01-.688.078-1.125.203-.438.115-.657.276-.657.484l.078.235c.063.156.115.307.157.453.396 1.031 1 2.52 1.812 4.469.813 1.937 1.443 3.49 1.89 4.656l1.454-3.453c.51-1.198 1.078-2.61 1.703-4.235.073-.197.177-.468.313-.812.135-.354.203-.656.203-.906 0-.271-.24-.521-.719-.75-.469-.24-.917-.386-1.344-.438v-1h5.719v.969c-.313.052-.724.234-1.234.547-.51.302-.891.734-1.141 1.297a470.981 470.981 0 0 0-3.313 7.86c-.958 2.364-1.687 4.103-2.187 5.218-.656 1.458-1.245 2.594-1.766 3.406-.51.823-1.01 1.469-1.5 1.938-.479.437-.916.729-1.312.875a3.173 3.173 0 0 1-1.203.234c-.813 0-1.453-.193-1.922-.578-.458-.386-.688-.828-.688-1.328"/>
  <g style="overflow:visible" transform="translate(3.844 7.003) scale(.18113)" clip-rule="evenodd">
    <path style="fill:url(#d);fill-rule:evenodd" d="M153.5 130.41 40.38 197.58l146.469-9.939L198.13 39.95z"/>
    <path style="fill:url(#e);fill-rule:evenodd" d="M187.089 187.54 174.5 100.65l-34.291 45.28z"/>
    <path style="fill:url(#f);fill-rule:evenodd" d="M187.259 187.54 95.03 180.3l-54.16 17.091z"/>
    <path style="fill:url(#g);fill-rule:evenodd" d="m41 197.41 23.04-75.48-50.7 10.841z"/>
    <path style="fill:url(#h);fill-rule:evenodd" d="M140.2 146.18 119 63.14l-60.67 56.87z"/>
    <path style="fill:url(#i);fill-rule:evenodd" d="m193.32 64.31-57.35-46.84L120 69.1z"/>
    <path style="fill:url(#j);fill-rule:evenodd" d="m166.5.77-33.73 18.64L111.49.52z"/>
    <path style="fill:url(#k);fill-rule:evenodd" d="m0 158.09 14.13-25.77-11.43-30.7z"/>
    <path d="m1.94 100.65 11.5 32.62 49.97-11.211 57.05-53.02 16.1-51.139L111.209 0l-43.1 16.13C54.53 28.76 28.18 53.75 27.23 54.22c-.94.48-17.4 31.59-25.29 46.43z" style="fill:#fff;fill-rule:evenodd"/>
    <path d="M42.32 42.05c29.43-29.18 67.37-46.42 81.93-31.73 14.551 14.69-.88 50.39-30.31 79.56s-66.9 47.36-81.45 32.67c-14.56-14.68.4-51.33 29.83-80.5z" style="fill:url(#l);fill-rule:evenodd"/>
    <path d="m41 197.38 22.86-75.72 75.92 24.39c-27.45 25.74-57.98 47.5-98.78 51.33z" style="fill:url(#m);fill-rule:evenodd"/>
    <path d="m120.56 68.89 19.49 77.2c22.93-24.11 43.51-50.03 53.589-82.09l-73.079 4.89z" style="fill:url(#n);fill-rule:evenodd"/>
    <path d="M193.44 64.39c7.8-23.54 9.6-57.31-27.181-63.58l-30.18 16.67 57.361 46.91z" style="fill:url(#o);fill-rule:evenodd"/>
    <path d="M0 157.75c1.08 38.851 29.11 39.43 41.05 39.771L13.47 133.11 0 157.75z" style="fill:#9e1209;fill-rule:evenodd"/>
    <path d="M120.669 69.01c17.62 10.83 53.131 32.58 53.851 32.98 1.119.63 15.31-23.93 18.53-37.81l-72.381 4.83z" style="fill:url(#p);fill-rule:evenodd"/>
    <path d="m63.83 121.66 30.56 58.96c18.07-9.8 32.22-21.74 45.18-34.53l-75.74-24.43z" style="fill:url(#q);fill-rule:evenodd"/>
    <path d="m13.35 133.19-4.33 51.56c8.17 11.16 19.41 12.13 31.2 11.26-8.53-21.23-25.57-63.68-26.87-62.82z" style="fill:url(#r);fill-rule:evenodd"/>
    <path d="m135.9 17.61 60.71 8.52C193.37 12.4 183.42 3.54 166.46.77L135.9 17.61z" style="fill:url(#s);fill-rule:evenodd"/>
  </g>
</svg>
