<svg xmlns:svg="http://www.w3.org/2000/svg" xmlns="http://www.w3.org/2000/svg" xmlns:xlink="http://www.w3.org/1999/xlink" version="1.1" viewBox="0 0 163 60" overflow="visible" enable-background="new 0 0 198.13 197.58" xml:space="preserve" style="overflow:visible">
  <defs>
    <linearGradient id="a" gradientUnits="userSpaceOnUse" x1="174.0737" y1="215.5488" x2="132.27631" y2="141.7533">
      <stop offset="0" style="stop-color:#FB7655"/>
      <stop offset="0" style="stop-color:#FB7655"/>
      <stop offset="0.41" style="stop-color:#E42B1E"/>
      <stop offset="0.99" style="stop-color:#990000"/>
      <stop offset="1" style="stop-color:#990000"/>
    </linearGradient>
    <linearGradient id="c" gradientUnits="userSpaceOnUse" x1="194.895" y1="153.5576" x2="141.0276" y2="117.4093">
      <stop offset="0" style="stop-color:#871101"/>
      <stop offset="0" style="stop-color:#871101"/>
      <stop offset="0.99" style="stop-color:#911209"/>
      <stop offset="1" style="stop-color:#911209"/>
    </linearGradient>
    <linearGradient id="d" gradientUnits="userSpaceOnUse" x1="151.79539" y1="217.7852" x2="97.929703" y2="181.638">
      <stop offset="0" style="stop-color:#871101"/>
      <stop offset="0" style="stop-color:#871101"/>
      <stop offset="0.99" style="stop-color:#911209"/>
      <stop offset="1" style="stop-color:#911209"/>
    </linearGradient>
    <linearGradient id="e" gradientUnits="userSpaceOnUse" x1="38.696301" y1="127.3906" x2="47.046902" y2="181.66141">
      <stop offset="0" style="stop-color:#FFFFFF"/>
      <stop offset="0" style="stop-color:#FFFFFF"/>
      <stop offset="0.23" style="stop-color:#E57252"/>
      <stop offset="0.46" style="stop-color:#DE3B20"/>
      <stop offset="0.99" style="stop-color:#A60003"/>
      <stop offset="1" style="stop-color:#A60003"/>
    </linearGradient>
    <linearGradient id="f" gradientUnits="userSpaceOnUse" x1="96.132797" y1="76.715302" x2="99.209602" y2="132.1021">
      <stop offset="0" style="stop-color:#FFFFFF"/>
      <stop offset="0" style="stop-color:#FFFFFF"/>
      <stop offset="0.23" style="stop-color:#E4714E"/>
      <stop offset="0.56" style="stop-color:#BE1A0D"/>
      <stop offset="0.99" style="stop-color:#A80D00"/>
      <stop offset="1" style="stop-color:#A80D00"/>
    </linearGradient>
    <linearGradient id="g" gradientUnits="userSpaceOnUse" x1="147.103" y1="25.521" x2="156.3141" y2="65.216202">
      <stop offset="0" style="stop-color:#FFFFFF"/>
      <stop offset="0" style="stop-color:#FFFFFF"/>
      <stop offset="0.18" style="stop-color:#E46342"/>
      <stop offset="0.4" style="stop-color:#C82410"/>
      <stop offset="0.99" style="stop-color:#A80D00"/>
      <stop offset="1" style="stop-color:#A80D00"/>
    </linearGradient>
    <linearGradient id="h" gradientUnits="userSpaceOnUse" x1="118.9761" y1="11.5415" x2="158.66859" y2="-8.3048">
      <stop offset="0" style="stop-color:#FFFFFF"/>
      <stop offset="0" style="stop-color:#FFFFFF"/>
      <stop offset="0.54" style="stop-color:#C81F11"/>
      <stop offset="0.99" style="stop-color:#BF0905"/>
      <stop offset="1" style="stop-color:#BF0905"/>
    </linearGradient>
    <linearGradient id="i" gradientUnits="userSpaceOnUse" x1="3.9033" y1="113.5547" x2="7.1701999" y2="146.2628">
      <stop offset="0" style="stop-color:#FFFFFF"/>
      <stop offset="0" style="stop-color:#FFFFFF"/>
      <stop offset="0.31" style="stop-color:#DE4024"/>
      <stop offset="0.99" style="stop-color:#BF190B"/>
      <stop offset="1" style="stop-color:#BF190B"/>
    </linearGradient>
    <linearGradient id="j" gradientUnits="userSpaceOnUse" x1="-18.5557" y1="155.10451" x2="135.0152" y2="-2.8092999">
      <stop offset="0" style="stop-color:#BD0012"/>
      <stop offset="0" style="stop-color:#BD0012"/>
      <stop offset="0.07" style="stop-color:#FFFFFF"/>
      <stop offset="0.17" style="stop-color:#FFFFFF"/>
      <stop offset="0.27" style="stop-color:#C82F1C"/>
      <stop offset="0.33" style="stop-color:#820C01"/>
      <stop offset="0.46" style="stop-color:#A31601"/>
      <stop offset="0.72" style="stop-color:#B31301"/>
      <stop offset="0.99" style="stop-color:#E82609"/>
      <stop offset="1" style="stop-color:#E82609"/>
    </linearGradient>
    <linearGradient id="k" gradientUnits="userSpaceOnUse" x1="99.074699" y1="171.0332" x2="52.817699" y2="159.61659">
      <stop offset="0" style="stop-color:#8C0C01"/>
      <stop offset="0" style="stop-color:#8C0C01"/>
      <stop offset="0.54" style="stop-color:#990C00"/>
      <stop offset="0.99" style="stop-color:#A80D0E"/>
      <stop offset="1" style="stop-color:#A80D0E"/>
    </linearGradient>
    <linearGradient id="l" gradientUnits="userSpaceOnUse" x1="178.52589" y1="115.5146" x2="137.43269" y2="78.683998">
      <stop offset="0" style="stop-color:#7E110B"/>
      <stop offset="0" style="stop-color:#7E110B"/>
      <stop offset="0.99" style="stop-color:#9E0C00"/>
      <stop offset="1" style="stop-color:#9E0C00"/>
    </linearGradient>
    <linearGradient id="m" gradientUnits="userSpaceOnUse" x1="193.6235" y1="47.937" x2="173.15421" y2="26.053801">
      <stop offset="0" style="stop-color:#79130D"/>
      <stop offset="0" style="stop-color:#79130D"/>
      <stop offset="0.99" style="stop-color:#9E120B"/>
      <stop offset="1" style="stop-color:#9E120B"/>
    </linearGradient>
    <radialGradient id="n" cx="143.8315" cy="79.388199" r="50.357601" gradientUnits="userSpaceOnUse">
      <stop offset="0" style="stop-color:#A80D00"/>
      <stop offset="0" style="stop-color:#A80D00"/>
      <stop offset="0.99" style="stop-color:#7E0E08"/>
      <stop offset="1" style="stop-color:#7E0E08"/>
    </radialGradient>
    <radialGradient id="o" cx="74.0923" cy="145.75101" r="66.943703" gradientUnits="userSpaceOnUse">
      <stop offset="0" style="stop-color:#A30C00"/>
      <stop offset="0" style="stop-color:#A30C00"/>
      <stop offset="0.99" style="stop-color:#800E08"/>
      <stop offset="1" style="stop-color:#800E08"/>
    </radialGradient>
    <linearGradient id="p" gradientUnits="userSpaceOnUse" x1="26.669901" y1="197.33591" x2="9.9886999" y2="140.742">
      <stop offset="0" style="stop-color:#8B2114"/>
      <stop offset="0" style="stop-color:#8B2114"/>
      <stop offset="0.43" style="stop-color:#9E100A"/>
      <stop offset="0.99" style="stop-color:#B3100C"/>
      <stop offset="1" style="stop-color:#B3100C"/>
    </linearGradient>
    <linearGradient id="q" gradientUnits="userSpaceOnUse" x1="154.6411" y1="9.7979002" x2="192.039" y2="26.305901">
      <stop offset="0" style="stop-color:#B31000"/>
      <stop offset="0" style="stop-color:#B31000"/>
      <stop offset="0.44" style="stop-color:#910F08"/>
      <stop offset="0.99" style="stop-color:#791C12"/>
      <stop offset="1" style="stop-color:#791C12"/>
    </linearGradient>
    <linearGradient y2="141.7533" x2="132.27631" y1="215.5488" x1="174.0737" gradientUnits="userSpaceOnUse" id="b" xlink:href="#a"/>
  </defs>
  <g transform="matrix(0.17579784,0,0,0.17579822,10,11)">
    <polygon points="198.13,39.95 153.5,130.41 40.38,197.58 186.849,187.641" style="clip-rule:evenodd;fill:url(#b);fill-rule:evenodd"/>
    <polygon points="140.209,145.93 187.089,187.54 174.5,100.65" style="clip-rule:evenodd;fill:url(#c);fill-rule:evenodd"/>
    <polygon points="40.87,197.391 187.259,187.54 95.03,180.3" style="clip-rule:evenodd;fill:url(#d);fill-rule:evenodd"/>
    <polygon points="13.34,132.771 41,197.41 64.04,121.93" style="clip-rule:evenodd;fill:url(#e);fill-rule:evenodd"/>
    <polygon points="58.33,120.01 140.2,146.18 119,63.14" style="clip-rule:evenodd;fill:url(#f);fill-rule:evenodd"/>
    <polygon points="120,69.1 193.32,64.31 135.97,17.47" style="clip-rule:evenodd;fill:url(#g);fill-rule:evenodd"/>
    <polygon points="111.49,0.52 166.5,0.77 132.77,19.41" style="clip-rule:evenodd;fill:url(#h);fill-rule:evenodd"/>
    <polygon points="2.7,101.62 0,158.09 14.13,132.32" style="clip-rule:evenodd;fill:url(#i);fill-rule:evenodd"/>
    <path d="m 1.94,100.65 11.5,32.62 49.97,-11.211 57.05,-53.02 L 136.56,17.9 111.209,0 68.109,16.13 C 54.53,28.76 28.18,53.75 27.23,54.22 26.29,54.7 9.83,85.81 1.94,100.65 Z" style="clip-rule:evenodd;fill:#ffffff;fill-rule:evenodd"/>
    <path d="m 42.32,42.05 c 29.43,-29.18 67.37,-46.42 81.93,-31.73 14.551,14.69 -0.88,50.39 -30.31,79.56 -29.43,29.17 -66.9,47.36 -81.45,32.67 -14.56,-14.68 0.4,-51.33 29.83,-80.5 z" style="clip-rule:evenodd;fill:url(#j);fill-rule:evenodd"/>
    <path d="m 41,197.38 22.86,-75.72 75.92,24.39 C 112.33,171.79 81.8,193.55 41,197.38 Z" style="clip-rule:evenodd;fill:url(#k);fill-rule:evenodd"/>
    <path d="m 120.56,68.89 19.49,77.2 C 162.98,121.98 183.56,96.06 193.639,64 l -73.079,4.89 z" style="clip-rule:evenodd;fill:url(#l);fill-rule:evenodd"/>
    <path d="m 193.44,64.39 c 7.8,-23.54 9.6,-57.31 -27.181,-63.58 l -30.18,16.67 57.361,46.91 z" style="clip-rule:evenodd;fill:url(#m);fill-rule:evenodd"/>
    <path d="m 0,157.75 c 1.08,38.851 29.11,39.43 41.05,39.771 L 13.47,133.11 0,157.75 Z" style="clip-rule:evenodd;fill:#9e1209;fill-rule:evenodd"/>
    <path d="m 120.669,69.01 c 17.62,10.83 53.131,32.58 53.851,32.98 1.119,0.63 15.31,-23.93 18.53,-37.81 l -72.381,4.83 z" style="clip-rule:evenodd;fill:url(#n);fill-rule:evenodd"/>
    <path d="m 63.83,121.66 30.56,58.96 c 18.07,-9.8 32.22,-21.74 45.18,-34.53 L 63.83,121.66 Z" style="clip-rule:evenodd;fill:url(#o);fill-rule:evenodd"/>
    <path d="m 13.35,133.19 -4.33,51.56 c 8.17,11.16 19.41,12.13 31.2,11.26 -8.53,-21.23 -25.57,-63.68 -26.87,-62.82 z" style="clip-rule:evenodd;fill:url(#p);fill-rule:evenodd"/>
    <path d="m 135.9,17.61 60.71,8.52 C 193.37,12.4 183.42,3.54 166.46,0.77 L 135.9,17.61 Z" style="clip-rule:evenodd;fill:url(#q);fill-rule:evenodd"/>
  </g>
  <g transform="matrix(0.62468167,0,0,0.62468302,25.645862,12.918718)">
    <path d="m96.194609 46.695907-12.273093 0c-2.720242-4.26238-5.183435-7.946444-7.389559-11.05221-2.184759-3.105743-4.562269-6.307881-7.13253-9.606426l-4.658625 0 0 14.457832c-.00002.749671.117822 1.413659.353404 1.991968.235602.556898.738945.985277 1.51005 1.285141.385522.14994 1.06021.289159 2.024086.417671.963835.128514 1.777751.203484 2.441768.224899l0 2.281125-19.27711 0 0-2.281125c.514056-.04283 1.253002-.117801 2.216878-.224899.985261-.107089 1.670662-.246316 2.056225-.417671.64255-.278444 1.103062-.685406 1.381516-1.220884.299859-.53547.449799-1.220877.449799-2.056225l0-32.9638635c0-.7496174-.107129-1.4136136-.321285-1.991968C57.361936 4.9609994 56.858593 4.5219131 56.066103 4.2220126 55.5306 4.0293444 54.834486 3.8579374 53.977739 3.7079564 53.120972 3.5366728 52.392719 3.4295435 51.793 3.3866712l0-2.2811349 21.044188 0c1.92767.0000617 3.73758.2035663 5.429709.6104521 1.692068.3855833 3.223524 1.0174407 4.594388 1.8955722 1.327931.8568084 2.388182 1.9812961 3.180713 3.3735044.792469 1.3708441 1.188724 3.030814 1.188766 4.97991-.000042 1.756398-.267783 3.309274-.803224 4.658641-.535502 1.349426-1.328013 2.516762-2.37751 3.502008-.963896.921043-2.120523 1.724256-3.46988 2.409639-1.349418.664012-2.838042 1.231617-4.465853 1.702811 2.248955 2.977262 4.112409 5.483284 5.590362 7.518073 1.499276 2.03482 3.330611 4.508711 5.493966 7.421687.942388 1.285147 1.788443 2.238291 2.538163 2.859438.771023.599737 1.531415 1.092374 2.281114 1.477912.556846.27845 1.252961.49264 2.088364.64257.83528.14994 1.531394.235611 2.088343.257028l0 2.281125M79.29501 12.703937C79.294989 9.9409296 78.502479 7.7561905 76.9175 6.1497236 75.332459 4.5219131 73.094175 3.7079975 70.20265 3.7079564l-5.461848 0 0 19.5662626 4.208826 0c2.955803.000022 5.418975-.942412 7.389558-2.82731 1.970522-1.906264 2.955803-4.487252 2.955824-7.742972M131.05406 46.117594l-10.31326.706827-.48192-.449799 0-4.016065-.19267 0c-.5141.53548-1.09241 1.113791-1.73494 1.73494-.64261.599735-1.38156 1.145918-2.21688 1.638554-.96387.578314-1.89559 1.017404-2.79517 1.31727-.89962.299865-2.17405.449799-3.8233.449799-2.80591 0-4.94779-.910308-6.42571-2.730924-1.4565-1.84203-2.18473-4.508695-2.18473-8.000001l0-15.164659c0-.771058-.1499-1.413628-.4498-1.927711-.27846-.535447-.696118-.995955-1.253006-1.381526-.385562-.257-.86748-.439062-1.445793-.546185-.578313-.128494-1.188766-.21416-1.831315-.257028l0-2.088354 10.570274-.771084.48194.449799 0 22.008034c-.00003 2.291841.51403 4.01607 1.54216 5.172691 1.0281 1.15663 2.25969 1.734942 3.69477 1.734939 1.17804.000003 2.22755-.182058 3.1486-.546184.921-.364121 1.69209-.7925 2.31325-1.285141.57829-.449795 1.08164-.921012 1.51005-1.413655.44976-.51405.79247-.985267 1.02811-1.413654l0-17.959841c-.00004-.7068-.14989-1.327951-.4498-1.863454-.2999-.556867-.71758-1.028084-1.25302-1.413655-.38556-.256999-.96387-.406933-1.73494-.449799-.74968-.06424-1.59573-.11778-2.53814-.160653l0-2.088353 11.50201-.771085.48192.4498 0 25.156628c-.00004.728251.14989 1.349404.4498 1.863454.29983.51406.71749.953148 1.25302 1.317269.3855.235612.84601.396255 1.38151.481928.53544.06426 1.12447.107108 1.76708.128514l0 2.088353M167.16651 30.82442c-.00004 4.755031-1.49938 8.749673-4.49799 11.983936-2.9987 3.234272-6.47929 4.851406-10.44178 4.851406-1.73496 0-3.44847-.267739-5.14056-.803213-1.6707-.535473-3.24499-1.25301-4.72288-2.15261l-2.37751 3.694779-1.99197-.449799c.10713-1.585006.18197-3.491297.22489-5.718876.0428-2.22757.0642-4.380179.0642-6.457832l0-31.3574273c0-.7282121-.17128-1.4564447-.51405-2.1847391-.32129-.7282121-.73897-1.25296068-1.25301-1.57430753-.40696-.2783923-1.09239-.48187633-2.05622-.61043152-.94245-.14989881-1.70282-.24627407-2.28114-.28916693l0-2.05622502 11.63053-.7389456.4498.4819175 0 20.8835415.22491.06426c1.32795-1.413626 2.77374-2.473865 4.33734-3.180723 1.58498-.706794 3.13786-1.060208 4.65864-1.060241 3.89823.000033 7.15392 1.5422 9.76707 4.626506 2.61307 3.084363 3.91964 7.100423 3.91968 12.048194m-6.71487.224899c-.00002-1.584989-.17128-3.202122-.51406-4.851405-.34273-1.649243-.87821-3.084313-1.60642-4.305222-.72828-1.242276-1.68142-2.248969-2.85943-3.02008-1.17807-.771056-2.59173-1.156598-4.24097-1.156627-1.49935.000029-2.81661.299895-3.95181.899599-1.1138.57834-2.12051 1.370844-3.02008 2.37751l0 18.441768c.12851.514063.37483 1.113796.73896 1.799197.38552.685414.89958 1.338693 1.54217 1.95984.64255.599735 1.37078 1.092371 2.18474 1.477911.8139.364125 1.80987.546187 2.98794.546185 2.61309.000002 4.72286-1.263719 6.32933-3.791165 1.60638-2.527436 2.40961-5.986602 2.40963-10.377511M169.47976 57.041289c0-1.07096.28915-1.949139.86746-2.634538.59974-.663996 1.33869-.99599 2.21688-.995984.6854-.000006 1.27441.128514 1.76706.385542.49263.25702.93172.589016 1.31728.995984.32126.321277.66398.760365 1.02811 1.317269.3641.556885.65327 1.017393.86746 1.381526 1.07095-.578323 2.34537-2.088362 3.82331-4.530121 1.49931-2.441771 2.58097-4.583668 3.24497-6.425703-2.03482-5.076299-3.87685-9.617127-5.52611-13.622491-1.64928-4.005337-3.3735-8.149911-5.17268-12.433735-.40697-.985247-1.09239-1.745622-2.05622-2.281125-.96388-.556865-1.92774-.910278-2.89157-1.060241l0-2.120482 14.45783 0 0 2.248996c-.64259.02145-1.41367.160673-2.31325.417671-.89962.235637-1.34942.567633-1.3494.995984-.00002.000029.0535.160673.16059.481928.12852.321311.2356.631888.32129.931726.81391 2.120507 2.0562 5.183423 3.7269 9.188756 1.67067 3.98395 2.96652 7.175378 3.88756 9.574298.96384-2.291823 1.95981-4.658623 2.98795-7.100402 1.04951-2.463169 2.21683-5.365442 3.50202-8.706828.14989-.406937.36409-.963831.64257-1.670683.27841-.72822.41764-1.349371.41766-1.863454-.00002-.556867-.49268-1.070923-1.47792-1.542169-.96387-.492607-1.8849-.792473-2.76305-.899598l0-2.056225 11.75904 0 0 1.991968c-.64261.107129-1.48865.481956-2.53814 1.124498-1.04958.621179-1.83136 1.510067-2.3454 2.666667-2.54889 5.911667-4.81929 11.298543-6.81124 16.160643-1.97056 4.862121-3.4699 8.439091-4.49799 10.730925-1.34942 2.998657-2.55959 5.333327-3.63052 7.004016-1.04955 1.692093-2.07767 3.020071-3.08433 3.983936-.9853.899586-1.8849 1.499317-2.6988 1.799197-.79253.321271-1.61716.481914-2.4739.481928-1.67069-.000014-2.98797-.396265-3.9518-1.188755-.94245-.792517-1.41366-1.702822-1.41366-2.730924" style="font-style:normal;font-variant:normal;font-weight:normal;font-stretch:normal;font-size:32px;line-height:125%;font-family:Georgia;-inkscape-font-specification:Georgia;letter-spacing:0px;word-spacing:0px;fill:#000000;fill-opacity:1;stroke:none"/>
  </g>
  <flowRoot xml:space="preserve" style="font-style:normal;font-weight:normal;font-size:40px;line-height:125%;font-family:Sans;letter-spacing:0px;word-spacing:0px;fill:#000000;fill-opacity:1;stroke:none" transform="matrix(0.62468167,0,0,0.62468302,10.102854,-72.451277)">
    <flowRegion>
      <rect width="299.72513" height="283.32227" x="-87.233429" y="-32.805729"/>
    </flowRegion>
    <flowPara/>
  </flowRoot>
</svg>
