<svg xmlns="http://www.w3.org/2000/svg" width="64" height="64">
  <linearGradient id="a" gradientUnits="userSpaceOnUse" x1="13.528" y1="-36.176" x2="88.264" y2="-36.176">
    <stop offset="0" stop-color="#656565"/>
    <stop offset="1" stop-color="#010101"/>
  </linearGradient>
  <linearGradient id="b" gradientUnits="userSpaceOnUse" x1="13.528" y1="3.91" x2="88.264" y2="3.91">
    <stop offset="0" stop-color="#656565"/>
    <stop offset="1" stop-color="#010101"/>
  </linearGradient>
  <linearGradient id="c" gradientUnits="userSpaceOnUse" x1="13.528" y1="-55.974" x2="88.264" y2="-55.974">
    <stop offset="0" stop-color="#9f1c20"/>
    <stop offset="1" stop-color="#ed2224"/>
  </linearGradient>
  <linearGradient id="d" gradientUnits="userSpaceOnUse" x1="13.528" y1="-15.87" x2="88.264" y2="-15.87">
    <stop offset="0" stop-color="#9f1c20"/>
    <stop offset="1" stop-color="#ed2224"/>
  </linearGradient>
  <linearGradient id="e" gradientUnits="userSpaceOnUse" x1="13.528" y1="24.22" x2="88.264" y2="24.22">
    <stop offset="0" stop-color="#9f1c20"/>
    <stop offset="1" stop-color="#ed2224"/>
  </linearGradient>
  <path d="M13.4-31s75 7.5 75 20v-30s0-12.5-75-20z" fill="url(#a)" transform="matrix(.4923 0 0 .4923 6.942 39.877)"/>
  <path d="M13.4 9s75 7.5 75 20V-1s0-12.5-75-20z" fill="url(#b)" transform="matrix(.4923 0 0 .4923 6.942 39.877)"/>
  <path d="M88.4-81v30s0 12.5-75 20v-30s75-7.5 75-20" fill="url(#c)" transform="matrix(.4923 0 0 .4923 6.942 39.877)"/>
  <path d="M13.4-21s75-7.5 75-20v30s0 12.5-75 20z" fill="url(#d)" transform="matrix(.4923 0 0 .4923 6.942 39.877)"/>
  <path d="M13.4 49V19s75-7.5 75-20v30s0 12.5-75 20" fill="url(#e)" transform="matrix(.4923 0 0 .4923 6.942 39.877)"/>
</svg>
