<svg xmlns="http://www.w3.org/2000/svg" width="255" height="256" viewBox="0 0 254.161 256">
  <defs>
    <clipPath id="a">
      <path d="M0 0h138v139H0z"/>
    </clipPath>
    <clipPath id="b">
      <path d="M-306 254h750v-1334h-750z" class="B"/>
    </clipPath>
    <clipPath id="c">
      <path d="m25.674 9.016 2.475-7.768A1.78 1.78 0 0 1 29.115.16c.232-.108.483-.158.737-.158a1.78 1.78 0 0 1 .706.149L38.003 3.4l-1.424 3.29-5.63-2.457-1.872 5.88z" class="B"/>
    </clipPath>
    <clipPath id="d">
      <path d="M0 0h138v139H0z"/>
    </clipPath>
    <clipPath id="e">
      <path d="M25 0h13v11H25z"/>
    </clipPath>
    <clipPath id="f">
      <path d="M38.003 10.1V.002h-12.33V10.1z" class="B"/>
    </clipPath>
    <clipPath id="h">
      <path d="M38.003 10.1V.002h-12.33V10.1z" class="B"/>
    </clipPath>
    <clipPath id="j">
      <path d="M-306 254h750v-1334h-750z" class="B"/>
    </clipPath>
    <clipPath id="k">
      <path d="m59.3 138.364.464-3.558c5.137.68 10.466.788 15.635.316l.326 3.574a74.287 74.287 0 0 1-16.424-.332zm22.303-4.093a68.23 68.23 0 0 0 14.957-4.558l1.418 3.292a71.603 71.603 0 0 1-15.73 4.795zm-44.31-2.514 1.56-3.226a67.6 67.6 0 0 0 14.75 5.174l-.787 3.504a71.4 71.4 0 0 1-15.522-5.453zm64.885-4.814a65.39 65.39 0 0 0 12.677-9.137l2.415 2.647a69.395 69.395 0 0 1-13.373 9.63zM18.54 118.38l2.53-2.533a64.885 64.885 0 0 0 12.276 9.68l-1.854 3.068a68.73 68.73 0 0 1-12.953-10.216zm100.7-5.038a61.416 61.416 0 0 0 8.826-12.892l3.174 1.64a64.65 64.65 0 0 1-9.34 13.641zM5.4 99.386l3.252-1.483a60.872 60.872 0 0 0 8.214 13.28l-2.763 2.274A64.239 64.239 0 0 1 5.4 99.387zm125.197-4.656a58.354 58.354 0 0 0 3.566-15.204l3.55.345a61.56 61.56 0 0 1-3.786 16.149zM.013 76.883l3.563-.168a58.25 58.25 0 0 0 2.82 15.355l-3.4 1.123a61.765 61.765 0 0 1-2.983-16.31zm132.135-19.056 3.428-1.003A61.67 61.67 0 0 1 138 73.23l-3.57.044a57.977 57.977 0 0 0-2.283-15.447zM0 70.282c.188-6.088.856-11.443 2.032-16.36l3.472.838c-1.12 4.68-1.753 9.798-1.935 15.637zM122.318 38.37l2.835-2.173a63.91 63.91 0 0 1 8.233 14.356l-3.3 1.363a60.42 60.42 0 0 0-7.769-13.546zM3.942 47.538c1.992-5.443 4.695-10.18 8.274-14.46l2.735 2.303c-3.31 3.966-5.815 8.343-7.656 13.394zM106.317 23.52l1.944-3.008a68.09 68.09 0 0 1 12.63 10.617l-2.606 2.45a64.76 64.76 0 0 0-11.968-10.06zM16.84 28.255a52.46 52.46 0 0 1 3.695-3.081l3.136-9.862 3.4 1.097-3.312 10.402a1.8 1.8 0 0 1-.634.895 51.327 51.327 0 0 0-3.886 3.204zm69.486-13.52.884-3.476a71.36 71.36 0 0 1 15.359 5.905l-1.653 3.185a67.26 67.26 0 0 0-14.6-5.614zm-32.52-.525-11.33-4.943L43.9 5.97l10.748 4.697a68.28 68.28 0 0 1 3.07-.784l.8 3.5c-.953.218-2.07.503-3.52.908a1.75 1.75 0 0 1-.477.066 1.78 1.78 0 0 1-.709-.149zm15.17-1.657-4.44.054-.132-3.6c1.276-.044 2.697-.054 4.573-.054 3.955 0 7.922.32 11.8.943l-.57 3.55c-3.68-.6-7.455-.9-11.22-.9z" class="B"/>
    </clipPath>
    <clipPath id="l">
      <path d="M0 0h138v139H0z"/>
    </clipPath>
    <clipPath id="m">
      <path d="M0 5h138v134H0z"/>
    </clipPath>
    <clipPath id="n">
      <path d="M138 139V5.97H0V139z" class="B"/>
    </clipPath>
    <clipPath id="p">
      <path d="M138 139V5.97H0V139z" class="B"/>
    </clipPath>
    <clipPath id="r">
      <path d="M-306 254h750v-1334h-750z" class="B"/>
    </clipPath>
    <clipPath id="s">
      <path d="M36.903 15.92a1.76 1.76 0 0 0-.831.209 1.79 1.79 0 0 0-.947 1.449L33.75 35.323c-5.824 4.437-10.353 10.162-13.468 17.032C17.2 59.123 15.65 66.68 15.65 74.798c0 27.722 24.382 50.28 54.35 50.28s54.35-22.557 54.35-50.28S99.966 24.516 70 24.516c-4.984 0-9.917.623-14.68 1.86L37.8 16.163a1.805 1.805 0 0 0-.897-.244" class="B"/>
    </clipPath>
    <clipPath id="t">
      <path d="M0 0h138v139H0z"/>
    </clipPath>
    <linearGradient x1="537.778" y1="13064.72" x2="537.778" y2="-1014.09" gradientUnits="userSpaceOnUse" spreadMethod="pad" id="g">
      <stop offset="0" stop-color="#9adaf4"/>
      <stop offset="1" stop-color="#c1dff4"/>
    </linearGradient>
    <linearGradient x1="31.84" y1="138.977" x2="31.84" y2="0" gradientUnits="userSpaceOnUse" spreadMethod="pad" id="i">
      <stop offset="0" stop-color="#9adaf4"/>
      <stop offset="1" stop-color="#c1dff4"/>
    </linearGradient>
    <linearGradient x1="511.988" y1="139" x2="511.988" y2="-930.969" gradientUnits="userSpaceOnUse" spreadMethod="pad" id="o">
      <stop offset="0" stop-color="#9adaf4"/>
      <stop offset="1" stop-color="#c1dff4"/>
    </linearGradient>
    <linearGradient x1="68.998" y1="139" x2="68.998" y2="-.002" gradientUnits="userSpaceOnUse" spreadMethod="pad" id="q">
      <stop offset="0" stop-color="#9adaf4"/>
      <stop offset="1" stop-color="#c1dff4"/>
    </linearGradient>
  </defs>
  <g clip-path="url(#a)" transform="matrix(1.84175 0 0 -1.84175 0 256.003)">
    <g clip-path="url(#b)">
      <g clip-path="url(#c)">
        <g clip-path="url(#d)">
          <g clip-path="url(#e)">
            <g clip-path="url(#f)">
              <path d="M25.674.002h12.33V10.1h-12.33z" fill="url(#g)"/>
            </g>
            <g clip-path="url(#h)">
              <path d="M25 0h14v11H25z" fill="url(#i)"/>
            </g>
          </g>
        </g>
      </g>
    </g>
    <g clip-path="url(#j)">
      <g clip-path="url(#k)">
        <g clip-path="url(#l)">
          <g clip-path="url(#m)">
            <g clip-path="url(#n)">
              <path d="M0 5.97h138V139H0z" fill="url(#o)"/>
            </g>
            <g clip-path="url(#p)">
              <path d="M0 5h138v134H0z" fill="url(#q)"/>
            </g>
          </g>
        </g>
      </g>
    </g>
    <g clip-path="url(#r)">
      <g clip-path="url(#s)">
        <g clip-path="url(#t)">
          <path d="M10.65 130.077h118.7V10.92H10.65z" fill="#f2f2f2"/>
        </g>
      </g>
    </g>
  </g>
</svg>
