<svg xmlns="http://www.w3.org/2000/svg" viewBox="-270 148.3 120 60" width="120" height="60">
  <path d="M-246.385 175.294c0-.386.193-.694.617-.964s.963-.385 1.696-.385c.925 0 1.619.192 2.081.616s.848.964 1.118 1.658l3.006-.925c-.848-2.891-2.929-4.317-6.205-4.317-1.735 0-3.084.462-4.086 1.349s-1.503 1.927-1.503 3.16c0 1.08.385 1.966 1.195 2.621s2.043 1.234 3.777 1.696c.193.039.463.116.81.231 1.31.386 2.158.656 2.582.887s.617.54.617.964c0 .5-.27.925-.81 1.194s-1.233.424-2.12.424c-1.965 0-3.045-1.04-3.314-3.083l-3.277.848c.232 1.464.887 2.698 2.005 3.739s2.698 1.541 4.74 1.541c1.966 0 3.43-.462 4.472-1.387s1.541-2.005 1.541-3.16c0-1.119-.308-2.005-.925-2.737-.616-.694-1.811-1.31-3.546-1.773-1.965-.54-3.199-.964-3.7-1.195-.54-.309-.77-.617-.77-1.002m11.408-3.893h3.662v14.8h-3.662zm4.124-4.163a2.295 2.295 0 0 0-2.312-2.312 2.32 2.32 0 0 0-2.313 2.312c0 1.233 1.04 2.274 2.313 2.274 1.31 0 2.312-1.04 2.312-2.274m10.407 7.67.578-3.507a3.247 3.247 0 0 0-1.35-.27c-.654 0-1.271.154-1.81.501s-.964.77-1.234 1.349h-.039v-1.58h-3.468v14.8h3.661v-8.132c0-2.236.848-3.392 2.544-3.392.347 0 .732.077 1.118.231m29.64 3.816c0 2.313-1.812 4.163-4.048 4.163s-4.047-1.889-4.047-4.163c0-2.313 1.812-4.163 4.047-4.163s4.048 1.85 4.048 4.163m3.854 0c0-4.278-3.546-7.786-7.902-7.786s-7.9 3.47-7.9 7.786c0 4.278 3.545 7.786 7.9 7.786 4.356-.039 7.902-3.508 7.902-7.786m17.152-.039c0-4.47-3.084-7.747-7.208-7.747-1.58 0-3.469.424-4.818 1.966v-1.542h-3.662v20.312h3.662v-6.937c1.696 1.541 3.353 1.696 4.78 1.696 4.355.038 7.246-3.16 7.246-7.748m-3.7.039c0 2.313-1.812 4.163-4.048 4.163s-4.047-1.889-4.047-4.163c0-2.313 1.812-4.163 4.047-4.163s4.047 1.85 4.047 4.163m-32.068 4.587c1.003-1.35 1.542-2.853 1.542-4.587 0-4.278-3.546-7.747-7.901-7.747s-7.902 3.469-7.902 7.747c0 1.696.579 3.276 1.542 4.587 1.388 1.888 6.36 6.475 6.36 6.475s4.933-4.587 6.36-6.475m-2.159-4.626c0 .925-.193 1.658-.694 2.467-.655 1.08-3.507 3.855-3.507 3.855s-2.775-2.853-3.469-3.893c-.501-.733-.732-1.542-.732-2.429 0-2.274 1.888-4.124 4.2-4.124s4.202 1.85 4.202 4.124m-1.889.116a2.295 2.295 0 0 0-2.312-2.313 2.32 2.32 0 0 0-2.313 2.313c0 1.233 1.04 2.274 2.313 2.274 1.31 0 2.312-1.04 2.312-2.274" fill="#62bcdd"/>
</svg>
