<svg xmlns="http://www.w3.org/2000/svg" xmlns:xlink="http://www.w3.org/1999/xlink" viewBox="0 0 5.12 5.12">
  <g transform="matrix(2.242199 0 0 2.242199 -.682992 -2.821278)">
    <use transform="matrix(.04503 0 0 .04503 .304608 1.37622)" xlink:href="#a" fill="#fdb300"/>
    <g fill="#ea6c00">
      <use transform="matrix(.04503 0 0 .04503 .304608 2.114307)" xlink:href="#b"/>
      <use transform="matrix(-.04503 0 0 .04503 2.58808 2.114307)" xlink:href="#c"/>
    </g>
    <use transform="matrix(.04503 0 0 .04503 .756709 2.114307)" xlink:href="#d" fill="#fdad00"/>
    <g fill="#fdd231">
      <use transform="matrix(.04503 0 0 .04503 .756709 1.37622)" xlink:href="#e"/>
      <use transform="matrix(-.04503 0 0 .04503 2.112113 1.37622)" xlink:href="#f"/>
    </g>
    <g fill="#fdad00">
      <use transform="matrix(-.04503 0 0 .04503 2.58808 1.447638)" xlink:href="#g"/>
      <use xlink:href="#h" x="-1052" y="-178.414" transform="matrix(.04503 0 0 .04503 47.676189 9.481624)"/>
    </g>
    <use xlink:href="#i" fill="#feeeb7" x="-1041.96" y="-180" transform="matrix(.04503 0 0 .04503 47.676189 9.481624)"/>
  </g>
  <defs>
    <path id="a" d="M11.063 1.497L25.353 0l14.29 1.497 11.064 14.717L25.354 45.47 0 16.214z" class="B"/>
    <path id="b" d="M10.27 0l15.084 29.08L0 0z" class="B"/>
    <path id="c" d="M10.27 0l15.085 29.08L0 0z" class="B"/>
    <path id="d" d="M0 0h30.108L15.054 29.08z" class="B"/>
    <path id="e" d="M14.8 0L.778 1.513 0 16.39z" class="B"/>
    <path id="f" d="M14.8 0L.778 1.513 0 16.39z" class="B"/>
    <path id="g" d="M0 14.805L11.093 0l-.796 14.805z" class="B"/>
    <path id="h" d="M0 14.805L11.092 0l-.796 14.805z" class="B"/>
    <path id="i" d="M15.054 0L0 16.39h30.108z" class="B"/>
  </defs>
</svg>
