<svg xmlns="http://www.w3.org/2000/svg" width="120" height="60" viewBox="0 0 120 60" version="1.1" style="fill:none">
  <path d="M27.15 29.687c0-6.372-5.166-11.538-11.538-11.538v-6.462c9.94 0 18 8.06 18 18 0 9.941-8.06 18-18 18v-6.461c6.372 0 11.538-5.166 11.538-11.539z" style="clip-rule:evenodd;fill:#1b1b1b;fill-rule:evenodd;stroke-width:.72895747"/>
  <circle cx="15.612" cy="29.706" r="9" style="fill:#82bf54;stroke-width:.72895747"/>
  <path class="header-logo-letter" d="M46.64 13.023c.943 0 1.792.132 2.55.398.756.252 1.407.57 1.951.956l-1.055 1.872a6.172 6.172 0 0 0-1.673-.836 5.331 5.331 0 0 0-1.753-.319c-.757 0-1.348.16-1.773.478-.425.319-.637.75-.637 1.295 0 .372.126.69.378.956.252.265.558.484.916.657.372.173.903.392 1.594.657.93.346 1.673.664 2.23.956a4.218 4.218 0 0 1 1.455 1.215c.411.518.617 1.175.617 1.972 0 .85-.22 1.594-.657 2.231-.425.637-1.036 1.129-1.833 1.474-.796.345-1.72.518-2.768.518-.863 0-1.74-.113-2.63-.339-.876-.239-1.646-.564-2.31-.976l.817-2.051c.637.345 1.314.624 2.031.836.717.2 1.415.299 2.092.299.876 0 1.527-.166 1.952-.498.438-.345.657-.797.657-1.354 0-.532-.226-.943-.677-1.235-.452-.306-1.149-.624-2.092-.956-.956-.332-1.726-.638-2.31-.916a4.37 4.37 0 0 1-1.474-1.235c-.412-.545-.617-1.249-.617-2.112 0-.783.205-1.474.617-2.071.412-.598.996-1.056 1.753-1.374.757-.333 1.64-.499 2.649-.499z" style="fill:#1b1b1b"/>
  <path class="header-logo-letter" d="M59.486 27.264h-2.51V15.472h-4.362v-2.15h11.234v2.15h-4.362z" style="fill:#1b1b1b"/>
  <path class="header-logo-letter" d="M65.888 13.321h9.202v2.132h-6.692v3.664h5.816v2.151h-5.816v3.805h6.692v2.19h-9.202z" style="fill:#1b1b1b"/>
  <path class="header-logo-letter" d="M89.705 27.264h-2.728l-1.036-2.948h-5.756l-1.016 2.948h-2.63l5.22-13.943h2.608zM83.053 16.07l-2.151 6.214h4.322z" style="fill:#1b1b1b"/>
  <path class="header-logo-letter" d="m99.147 23.838 4.601-10.517h2.57v13.943h-2.41v-9.501l-4.084 9.202H98.23l-4.142-9.102v9.4h-2.31V13.322h2.45z" style="fill:#1b1b1b"/>
  <path class="header-logo-letter" d="M52.274 33.666c1.5 0 2.835.279 4.004.837 1.168.557 2.078 1.36 2.728 2.41.664 1.035.996 2.257.996 3.665 0 1.42-.332 2.662-.996 3.724-.65 1.063-1.56 1.88-2.728 2.45-1.17.571-2.503.857-4.004.857h-4.84V33.666zm-.777 3.625v6.752h.996c2.15 0 3.227-1.155 3.227-3.465 0-1.182-.28-2.025-.837-2.53-.544-.505-1.341-.757-2.39-.757z" style="fill:#1b1b1b"/>
  <path class="header-logo-letter" d="M61.886 33.666h9.919v3.386H65.87v1.872h4.979v3.387h-4.98v1.912h5.936v3.386h-9.92z" style="fill:#1b1b1b"/>
  <path class="header-logo-letter" d="M80.99 33.308c.93 0 1.827.126 2.69.378.876.239 1.573.564 2.09.976l-1.811 3.167a4.054 4.054 0 0 0-1.295-.617 5.016 5.016 0 0 0-1.434-.22c-.956 0-1.74.326-2.351.976-.61.638-.916 1.554-.916 2.749 0 1.115.279 1.992.837 2.63.57.623 1.368.935 2.39.935s1.992-.365 2.908-1.095l1.912 2.868c-.531.544-1.261 1.003-2.191 1.374-.916.359-1.94.538-3.067.538-1.394 0-2.63-.299-3.705-.896a6.34 6.34 0 0 1-2.47-2.55c-.584-1.102-.876-2.376-.876-3.824 0-1.474.299-2.768.896-3.884a6.428 6.428 0 0 1 2.57-2.59c1.102-.61 2.376-.915 3.824-.915z" style="fill:#1b1b1b"/>
  <path class="header-logo-letter" d="m95.47 39.462 5.677 8.147h-5.14l-3.345-5.08-1.036 1.136v3.944h-4.123V33.666h4.123v5.06l4.103-5.06h5.06z" style="fill:#1b1b1b"/>
  <defs>
    <linearGradient x1="-9.5" y1="16.932" x2="19.5" y2="30.932" gradientUnits="userSpaceOnUse">
      <stop offset=".107" stop-color="#C957E6"/>
      <stop offset="1" stop-color="#1A9FFF"/>
    </linearGradient>
  </defs>
</svg>
