<svg version="1.1" xmlns="http://www.w3.org/2000/svg" xmlns:xlink="http://www.w3.org/1999/xlink" x="0px" y="0px" viewBox="0 0 120 60" style="enable-background:new 0 0 120 60" xml:space="preserve">
  <g>
    <g>
      <polygon points="9,30.1 32,45.3 32,30 9,14.7" style="fill:#3297D4"/>
      <polygon class="st1" points="9,45.3 20.6,37.7 32,45.3"/>
      <polygon class="st1" points="20.4,22.4 9,14.7 32,14.8"/>
    </g>
    <g>
      <path d="M43.9 34.5c-.6-.2-1.1-.5-1.4-1-.3-.4-.5-.9-.5-1.6l0-.3h2l0 .2c0 .4.2.7.5.9.3.2.8.3 1.5.3.7 0 1.1-.1 1.4-.3.3-.2.4-.4.4-.7 0-.3-.1-.5-.3-.6-.2-.2-.4-.3-.7-.4-.3-.1-.7-.2-1.2-.4-.7-.2-1.3-.4-1.8-.6-.4-.2-.8-.5-1.2-.8-.3-.4-.5-.9-.5-1.5 0-.8.3-1.5 1-1.9.7-.4 1.6-.7 2.7-.7 1.1 0 1.9.2 2.6.7.7.5 1 1.1 1 2v.2h-1.9V28c0-.3-.2-.6-.5-.8-.3-.2-.7-.3-1.3-.3-.6 0-1 .1-1.3.2s-.4.4-.4.6c0 .2.1.4.3.5.2.1.4.3.7.4.3.1.6.2 1.1.3.7.2 1.3.4 1.8.6.5.2.9.5 1.2.9.3.4.5.9.5 1.5 0 1-.4 1.7-1.1 2.2-.7.5-1.7.7-2.9.7C45.1 34.8 44.5 34.7 43.9 34.5zM51.7 34.2c-.3-.4-.4-.8-.4-1.4v-3.8h-.8v-1.5h.9l.3-2h1.5v2h1.2v1.5h-1.2v3.6c0 .4.2.6.6.6h.6v1.3c-.2.1-.3.1-.6.1-.2 0-.4.1-.6.1C52.5 34.8 52 34.6 51.7 34.2zM55.6 36.9v-1.3h.9c.3 0 .6-.1.8-.2.2-.2.4-.4.5-.8l-2.8-7h1.9l1.3 3.3c.1.3.3 1 .5 1.8h.1c.2-.8.4-1.4.5-1.8l1-3.3h1.9l-2.4 6.7c-.2.6-.4 1.1-.7 1.5-.2.4-.5.7-.9 1-.4.2-.8.4-1.4.4C56.3 37.1 55.9 37 55.6 36.9zM63.2 24.9H65v9.7h-1.8V24.9zM67.3 33.9c-.6-.6-.8-1.5-.8-2.8 0-1.3.3-2.2.8-2.8.6-.6 1.4-.9 2.5-.9 1 0 1.8.3 2.3.9s.8 1.5.8 2.8v.4h-4.6c0 .6.1 1.1.4 1.4.2.3.6.4 1.2.4.4 0 .7-.1.9-.3.2-.2.4-.5.4-.9h1.8c0 .9-.3 1.5-.9 2-.6.4-1.3.7-2.3.7C68.7 34.8 67.8 34.5 67.3 33.9zM71 30.3c0-1-.4-1.5-1.2-1.5-.5 0-.8.1-1.1.4s-.4.6-.4 1.1H71zM75.9 34.5c-.6-.2-1.1-.5-1.4-1-.3-.4-.5-.9-.5-1.6l0-.3h2l0 .2c0 .4.2.7.5.9.3.2.8.3 1.5.3.7 0 1.1-.1 1.4-.3.3-.2.4-.4.4-.7 0-.3-.1-.5-.3-.6s-.4-.3-.7-.4-.7-.2-1.2-.4c-.7-.2-1.3-.4-1.8-.6-.4-.2-.8-.5-1.2-.8-.3-.4-.5-.9-.5-1.5 0-.8.3-1.5 1-1.9.7-.4 1.6-.7 2.7-.7 1.1 0 1.9.2 2.6.7.7.5 1 1.1 1 2v.2h-1.9V28c0-.3-.2-.6-.5-.8-.3-.2-.7-.3-1.3-.3-.6 0-1 .1-1.3.2s-.4.4-.4.6c0 .2.1.4.3.5.2.1.4.3.7.4.3.1.6.2 1.1.3.7.2 1.3.4 1.8.6s.9.5 1.2.9c.3.4.5.9.5 1.5 0 1-.4 1.7-1.1 2.2-.7.5-1.7.7-2.9.7C77.1 34.8 76.5 34.7 75.9 34.5zM83.3 24.9h1.8v3.5h.1c.5-.7 1.2-1 2.1-1 .7 0 1.3.2 1.7.6.4.4.6 1 .6 1.9v4.7h-1.8v-4.3c0-.4-.1-.8-.3-1C87.3 29.1 87 29 86.6 29c-.4 0-.8.1-1 .4-.3.3-.4.6-.4 1.1v4.1h-1.8V24.9zM91.9 33.9c-.6-.6-.9-1.5-.9-2.8 0-1.3.3-2.2.9-2.8.6-.6 1.5-.9 2.7-.9 1.2 0 2.1.3 2.7.9.6.6.9 1.5.9 2.8 0 1.3-.3 2.2-.9 2.8-.6.6-1.5.9-2.7.9C93.4 34.8 92.5 34.5 91.9 33.9zM95.9 32.8c.3-.3.4-.9.4-1.6V31c0-.7-.1-1.2-.4-1.6-.3-.3-.7-.5-1.3-.5-.6 0-1 .2-1.3.5-.3.3-.4.9-.4 1.6v.2c0 .7.1 1.2.4 1.6.3.3.7.5 1.3.5C95.2 33.3 95.7 33.1 95.9 32.8zM100.3 34.2c-.4-.4-.6-1-.6-1.9v-4.7h1.8v4.3c0 .4.1.8.3 1s.5.3.9.3c.4 0 .8-.1 1-.4.3-.3.4-.7.4-1.1v-4.1h1.8v7h-1.6l-.1-.9h-.1c-.6.7-1.3 1.1-2.2 1.1C101.2 34.8 100.7 34.6 100.3 34.2zM108.3 34.2c-.3-.4-.4-.8-.4-1.4v-3.8h-.8v-1.5h.9l.3-2h1.5v2h1.2v1.5h-1.2v3.6c0 .4.2.6.6.6h.6v1.3c-.2.1-.3.1-.6.1s-.4.1-.6.1C109.1 34.8 108.6 34.6 108.3 34.2z"/>
    </g>
  </g>
</svg>
