<svg xmlns="http://www.w3.org/2000/svg" height="64" width="64">
  <path d="M64 32c0 17.673-14.327 32-32 32S0 49.673 0 32 14.327 0 32 0s32 14.327 32 32z" fill="#73ba25"/>
  <path d="m53.173 30.164.189-.035c.05.04.044.123.027.197a5.153 5.153 0 0 1-.175.63l-.048.121c-.066.18-.132.352-.26.455-.35.32-.91.573-1.786.956-1.356.594-3.553.967-5.594.955-.732-.017-1.438-.098-2.06-.168-1.9-.217-3.275-.372-3.56 1.356-.361 2.166 1.675 4.796 1.696 4.82l-.002.072-.066.017L38.207 38l-.103-.074-.083-.08c-.245-.235-.737-.763-1.735-1.92-1.936-2.238-4.201-2.533-5.948-2.108-.425.1-.967.413-1.318.763-.912.9-.81 2.71-.757 3.369.06.746.1.8.116.862l-.011.075-.065.008-.037-.026-2.663-1.302-.1-.435a7.68 7.68 0 0 0-.299-1.006c-.952-2.51-3.092-4.4-5.45-4.805-1.593-.275-4.498-.306-6.038 2.597-.642 1.212-.604 2.79.1 4.12a4.48 4.48 0 0 0 3.522 2.402c1.507.164 2.64-.184 3.275-1.007.641-.831.761-1.962.306-2.883-.488-.989-1.225-1.514-2.25-1.6-.778-.07-1.357.254-1.565.585-.06.104-.171.295-.173.568v.009c0 .743.68.945.818.954.042 0 .247-.005.517-.075l.131-.042.09-.031.067-.013c.493-.09.968.2 1.107.682a1.009 1.009 0 0 1 .037.265.96.96 0 0 1-.431.795l.01-.003-.029.016-.044.028c-.142.09-.273.14-.41.182-.388.127-.73.186-1.076.186-1.175-.002-2.813-1.013-2.835-2.912-.01-1.072.527-2.048 1.475-2.675 1.09-.72 2.975-.965 4.723.107 2.151 1.317 2.713 3.896 2.151 5.655-.816 2.547-3.112 3.909-6.14 3.638-2.147-.192-4.14-1.325-5.326-3.03a7.499 7.499 0 0 1-1.127-2.437c-.485-1.921.005-3.962.37-4.867 1.16-2.875 3.382-5.349 6.596-7.355l.203-.127c6.837-4.202 11.675-4.032 15.218-3.909 4.178.146 8.634 1.586 9.25 1.79l.026-1.383.019-.042.047-.013c.28.038 6.283.93 8.813 2.404.313.184.467.376.662.575.698.722 1.623 3.73 1.72 4.35l-.036.063c-.037.013-.124.077-.24.155-.59.412-1.969 1.377-3.737 1.219-1.59-.14-3.666-1.052-6.17-2.7l.721 1.702.033.04c.363.188 3.841 1.96 5.567 1.925 1.392-.027 2.878-.707 3.473-1.065zm-1.617-3.469a2.575 2.575 0 0 0-2.48-2.658 2.546 2.546 0 0 0-1.84.687 2.545 2.545 0 0 0-.813 1.788A2.578 2.578 0 0 0 48.9 29.17a2.547 2.547 0 0 0 1.842-.688 2.557 2.557 0 0 0 .814-1.787zm-2.435-1.943a1.83 1.83 0 0 1 1.186 3.16 1.831 1.831 0 0 1-1.311.49 1.835 1.835 0 0 1-1.763-1.89c.015-.489.223-.94.58-1.272a1.799 1.799 0 0 1 1.307-.488zm1.109 1.457c0-.3-.363-.542-.81-.542s-.81.242-.81.542c0 .296.362.54.81.54s.81-.243.81-.54z" fill="#fff"/>
</svg>
