<svg xmlns="http://www.w3.org/2000/svg" xmlns:xlink="http://www.w3.org/1999/xlink" viewBox="0 0 120 60">
  <defs>
    <path id="g" d="M256 44.334c116.894 0 211.676 94.77 211.676 211.664S372.894 467.673 256 467.673 44.335 372.89 44.335 255.998 139.107 44.334 256 44.334z"/>
    <path id="m" d="M452.182 255.998c0 108.338-87.844 196.2-196.182 196.2s-196.18-87.853-196.18-196.2S147.66 59.832 256 59.832s196.182 87.83 196.182 196.166z"/>
    <path id="t" d="M256 80.5c-96.922 0-175.5 78.578-175.5 175.5s78.58 175.5 175.5 175.5 175.5-78.58 175.5-175.5S352.922 80.5 256 80.5z"/>
  </defs>
  <linearGradient id="a" gradientUnits="userSpaceOnUse" x1="480.818" y1="380.617" x2="31.183" y2="131.38">
    <stop offset="0" stop-color="#bdc6c9"/>
    <stop offset=".092" stop-color="#abb4b7"/>
    <stop offset=".277" stop-color="#7d8588"/>
    <stop offset=".483" stop-color="#444a4d"/>
    <stop offset=".584" stop-color="#5e6669"/>
    <stop offset=".772" stop-color="#899396"/>
    <stop offset=".916" stop-color="#a3afb2"/>
    <stop offset="1" stop-color="#adbabd"/>
  </linearGradient>
  <radialGradient id="b" cx="256" cy="255.998" r="257" gradientTransform="translate(0,0.001)" gradientUnits="userSpaceOnUse">
    <stop offset=".73" stop-color="#004ed4" stop-opacity=".4"/>
    <stop offset=".784" stop-color="#437cde" stop-opacity=".32"/>
    <stop offset=".842" stop-color="#83a8e7" stop-opacity=".234"/>
    <stop offset=".894" stop-color="#b5caee" stop-opacity=".157"/>
    <stop offset=".94" stop-color="#dae3f4" stop-opacity=".09"/>
    <stop offset=".977" stop-color="#f0f2f7" stop-opacity=".035"/>
    <stop offset="1" stop-color="#f8f8f8" stop-opacity="0"/>
  </radialGradient>
  <linearGradient id="c" gradientUnits="userSpaceOnUse" x1="352.299" y1="494.346" x2="159.701" y2="17.65">
    <stop offset="0" stop-color="#fff" stop-opacity="0"/>
    <stop offset=".5" stop-color="#4d5057" stop-opacity=".75"/>
    <stop offset="1" stop-color="#fff" stop-opacity="0"/>
  </linearGradient>
  <radialGradient id="d" cx="256" cy="255.998" r="257" gradientTransform="translate(0,0.001)" gradientUnits="userSpaceOnUse">
    <stop offset=".8" stop-color="#6b6b6b" stop-opacity="0"/>
    <stop offset=".826" stop-color="#848484" stop-opacity=".02"/>
    <stop offset=".883" stop-color="#b5b5b5" stop-opacity=".066"/>
    <stop offset=".933" stop-color="#dadada" stop-opacity=".107"/>
    <stop offset=".974" stop-color="#f0f0f0" stop-opacity=".14"/>
    <stop offset="1" stop-color="#f8f8f8" stop-opacity=".16"/>
  </radialGradient>
  <linearGradient id="e" gradientUnits="userSpaceOnUse" x1="74.274" y1="437.724" x2="437.726" y2="74.272">
    <stop offset="0" stop-color="#fff" stop-opacity="0"/>
    <stop offset=".5" stop-color="#828282" stop-opacity=".6"/>
    <stop offset="1" stop-color="#fff" stop-opacity="0"/>
  </linearGradient>
  <linearGradient id="f" gradientUnits="userSpaceOnUse" x1="45.46" y1="403.419" x2="466.539" y2="108.576">
    <stop offset=".2" stop-color="#fff" stop-opacity="0"/>
    <stop offset=".5" stop-color="#fff" stop-opacity=".36"/>
    <stop offset=".8" stop-color="#fff" stop-opacity="0"/>
  </linearGradient>
  <linearGradient id="h" gradientUnits="userSpaceOnUse" x1="358.64" y1="70.842" x2="153.366" y2="441.165">
    <stop offset="0" stop-color="#bdc6c9"/>
    <stop offset=".092" stop-color="#abb4b7"/>
    <stop offset=".277" stop-color="#7d8588"/>
    <stop offset=".483" stop-color="#444a4d"/>
    <stop offset=".584" stop-color="#5e6669"/>
    <stop offset=".772" stop-color="#899396"/>
    <stop offset=".916" stop-color="#a3afb2"/>
    <stop offset="1" stop-color="#adbabd"/>
  </linearGradient>
  <radialGradient id="i" cx="255.997" cy="256.006" r="217.969" gradientTransform="matrix(0,-0.971,0.971,0,7.396,504.601)" gradientUnits="userSpaceOnUse">
    <stop offset=".86" stop-color="#0058d4" stop-opacity=".6"/>
    <stop offset="1" stop-color="#f8f8f8" stop-opacity="0"/>
  </radialGradient>
  <linearGradient id="j" gradientUnits="userSpaceOnUse" x1="452.313" y1="176.687" x2="59.7" y2="335.314">
    <stop offset="0" stop-color="#fff" stop-opacity="0"/>
    <stop offset=".5" stop-color="#4d5057" stop-opacity=".75"/>
    <stop offset="1" stop-color="#fff" stop-opacity="0"/>
  </linearGradient>
  <linearGradient id="k" gradientUnits="userSpaceOnUse" x1="405.673" y1="405.671" x2="106.333" y2="106.331">
    <stop offset="0" stop-color="#fff" stop-opacity="0"/>
    <stop offset=".5" stop-color="#828282" stop-opacity=".6"/>
    <stop offset="1" stop-color="#fff" stop-opacity="0"/>
  </linearGradient>
  <linearGradient id="l" gradientUnits="userSpaceOnUse" x1="377.421" y1="429.401" x2="134.588" y2="82.599">
    <stop offset=".2" stop-color="#fff" stop-opacity="0"/>
    <stop offset=".5" stop-color="#fff" stop-opacity=".36"/>
    <stop offset=".8" stop-color="#fff" stop-opacity="0"/>
  </linearGradient>
  <linearGradient id="n" gradientUnits="userSpaceOnUse" x1="427.61" y1="351.133" x2="84.388" y2="160.881">
    <stop offset="0" stop-color="#bdc6c9"/>
    <stop offset=".092" stop-color="#abb4b7"/>
    <stop offset=".277" stop-color="#7d8588"/>
    <stop offset=".483" stop-color="#444a4d"/>
    <stop offset=".584" stop-color="#5e6669"/>
    <stop offset=".772" stop-color="#899396"/>
    <stop offset=".916" stop-color="#a3afb2"/>
    <stop offset="1" stop-color="#adbabd"/>
  </linearGradient>
  <radialGradient id="o" cx="260.891" cy="260.9" r="191.461" gradientTransform="matrix(0.971,0,0,0.971,7.397,7.398)" gradientUnits="userSpaceOnUse">
    <stop offset=".88" stop-color="#0037d4"/>
    <stop offset="1" stop-color="#f8f8f8" stop-opacity="0"/>
  </radialGradient>
  <radialGradient id="p" cx="256" cy="256" r="197.367" gradientTransform="matrix(0.973,0,0,0.973,6.961,6.96)" gradientUnits="userSpaceOnUse">
    <stop offset=".88" stop-color="#0066d4"/>
    <stop offset="1" stop-color="#f8f8f8" stop-opacity="0"/>
  </radialGradient>
  <linearGradient id="q" gradientUnits="userSpaceOnUse" x1="329.512" y1="437.945" x2="182.495" y2="74.067">
    <stop offset="0" stop-color="#fff" stop-opacity="0"/>
    <stop offset=".5" stop-color="#4d5057" stop-opacity=".75"/>
    <stop offset="1" stop-color="#fff" stop-opacity="0"/>
  </linearGradient>
  <linearGradient id="r" gradientUnits="userSpaceOnUse" x1="117.285" y1="394.722" x2="394.718" y2="117.289">
    <stop offset="0" stop-color="#fff" stop-opacity="0"/>
    <stop offset=".5" stop-color="#828282" stop-opacity=".6"/>
    <stop offset="1" stop-color="#fff" stop-opacity="0"/>
  </linearGradient>
  <linearGradient id="s" gradientUnits="userSpaceOnUse" x1="95.291" y1="368.536" x2="416.713" y2="143.474">
    <stop offset=".2" stop-color="#fff" stop-opacity="0"/>
    <stop offset=".5" stop-color="#fff" stop-opacity=".36"/>
    <stop offset=".8" stop-color="#fff" stop-opacity="0"/>
  </linearGradient>
  <linearGradient id="u" gradientUnits="userSpaceOnUse" x1="131.906" y1="131.904" x2="380.096" y2="380.094">
    <stop offset="0" stop-color="#14b9ff"/>
    <stop offset="1" stop-color="#48007f"/>
  </linearGradient>
  <radialGradient id="v" cx="256" cy="255.998" r="175.5" gradientTransform="translate(0 0) translate(0,0.001)" gradientUnits="userSpaceOnUse">
    <stop offset=".33" stop-color="#006cc2" stop-opacity="0"/>
    <stop offset=".628" stop-color="#016ec3" stop-opacity=".232"/>
    <stop offset=".736" stop-color="#0575c7" stop-opacity=".315"/>
    <stop offset=".813" stop-color="#0d80ce" stop-opacity=".374"/>
    <stop offset=".874" stop-color="#1791d8" stop-opacity=".422"/>
    <stop offset=".927" stop-color="#25a7e4" stop-opacity=".464"/>
    <stop offset=".974" stop-color="#36c2f4" stop-opacity=".5"/>
    <stop offset="1" stop-color="#42d5ff" stop-opacity=".52"/>
  </radialGradient>
  <radialGradient id="w" cx="202" cy="192.998" r="127" gradientTransform="translate(0,0.001)" gradientUnits="userSpaceOnUse">
    <stop offset="0" stop-color="#e1ffff" stop-opacity=".5"/>
    <stop offset=".093" stop-color="#d9f9fd" stop-opacity=".453"/>
    <stop offset=".239" stop-color="#c3e7f6" stop-opacity=".38"/>
    <stop offset=".42" stop-color="#9ecaec" stop-opacity=".3"/>
    <stop offset=".628" stop-color="#6ca2de" stop-opacity=".186"/>
    <stop offset=".855" stop-color="#2c6fcc" stop-opacity=".072"/>
    <stop offset="1" stop-color="#004cbf" stop-opacity="0"/>
  </radialGradient>
  <radialGradient id="x" cx="219.436" cy="230.335" r="51.497" gradientUnits="userSpaceOnUse">
    <stop offset="0" stop-color="#fff"/>
    <stop offset="1" stop-color="#b8c4d1"/>
  </radialGradient>
  <radialGradient id="y" cx="228.484" cy="237.666" r="34.647" gradientTransform="matrix(1.063,0,0,1.063,-12.968,-11.834)" gradientUnits="userSpaceOnUse">
    <stop offset="0" stop-color="#fff" stop-opacity="0"/>
    <stop offset=".265" stop-color="#fcfdfe" stop-opacity=".212"/>
    <stop offset=".449" stop-color="#f3f6fd" stop-opacity=".36"/>
    <stop offset=".609" stop-color="#e4ebf9" stop-opacity=".487"/>
    <stop offset=".755" stop-color="#cedbf5" stop-opacity=".604"/>
    <stop offset=".89" stop-color="#b2c7ef" stop-opacity=".712"/>
    <stop offset="1" stop-color="#95b2e9" stop-opacity=".8"/>
  </radialGradient>
  <radialGradient id="z" cx="172.285" cy="304.218" r="36.048" gradientUnits="userSpaceOnUse">
    <stop offset="0" stop-color="#fff"/>
    <stop offset="1" stop-color="#b8c4d1"/>
  </radialGradient>
  <radialGradient id="A" cx="181.17" cy="304.201" r="24.252" gradientTransform="matrix(1.063,0,0,1.063,-12.968,-11.834)" gradientUnits="userSpaceOnUse">
    <stop offset="0" stop-color="#fff" stop-opacity="0"/>
    <stop offset=".265" stop-color="#fcfdfe" stop-opacity=".212"/>
    <stop offset=".449" stop-color="#f3f6fd" stop-opacity=".36"/>
    <stop offset=".609" stop-color="#e4eaf9" stop-opacity=".487"/>
    <stop offset=".755" stop-color="#ced9f5" stop-opacity=".604"/>
    <stop offset=".89" stop-color="#b2c4ef" stop-opacity=".712"/>
    <stop offset="1" stop-color="#95aee9" stop-opacity=".8"/>
  </radialGradient>
  <radialGradient id="B" cx="280.519" cy="298.218" r="36.048" gradientUnits="userSpaceOnUse">
    <stop offset="0" stop-color="#fff"/>
    <stop offset="1" stop-color="#b8c4d1"/>
  </radialGradient>
  <radialGradient id="C" cx="282.978" cy="298.557" r="24.253" gradientTransform="matrix(1.063,0,0,1.063,-12.968,-11.834)" gradientUnits="userSpaceOnUse">
    <stop offset="0" stop-color="#fff" stop-opacity="0"/>
    <stop offset=".265" stop-color="#fcfdfe" stop-opacity=".212"/>
    <stop offset=".449" stop-color="#f3f5fd" stop-opacity=".36"/>
    <stop offset=".609" stop-color="#e4e7f9" stop-opacity=".487"/>
    <stop offset=".755" stop-color="#ced4f5" stop-opacity=".604"/>
    <stop offset=".89" stop-color="#b2bbef" stop-opacity=".712"/>
    <stop offset="1" stop-color="#95a2e9" stop-opacity=".8"/>
  </radialGradient>
  <radialGradient id="D" cx="140.119" cy="212.251" r="25.749" gradientUnits="userSpaceOnUse">
    <stop offset="0" stop-color="#fff"/>
    <stop offset="1" stop-color="#b8c4d1"/>
  </radialGradient>
  <radialGradient id="E" cx="148.938" cy="215.719" r="17.323" gradientTransform="matrix(1.063,0,0,1.063,-12.968,-11.834)" gradientUnits="userSpaceOnUse">
    <stop offset="0" stop-color="#fff" stop-opacity="0"/>
    <stop offset=".265" stop-color="#fcfefe" stop-opacity=".212"/>
    <stop offset=".449" stop-color="#f3f9fd" stop-opacity=".36"/>
    <stop offset=".609" stop-color="#e4f1f9" stop-opacity=".487"/>
    <stop offset=".755" stop-color="#cee5f5" stop-opacity=".604"/>
    <stop offset=".89" stop-color="#b2d6ef" stop-opacity=".712"/>
    <stop offset="1" stop-color="#95c7e9" stop-opacity=".8"/>
  </radialGradient>
  <radialGradient id="F" cx="290.687" cy="181.751" r="25.749" gradientUnits="userSpaceOnUse">
    <stop offset="0" stop-color="#fff"/>
    <stop offset="1" stop-color="#b8c4d1"/>
  </radialGradient>
  <radialGradient id="G" cx="290.568" cy="187.029" r="17.323" gradientTransform="matrix(1.063,0,0,1.063,-12.968,-11.834)" gradientUnits="userSpaceOnUse">
    <stop offset="0" stop-color="#fff" stop-opacity="0"/>
    <stop offset=".265" stop-color="#fcfdfe" stop-opacity=".212"/>
    <stop offset=".449" stop-color="#f3f7fd" stop-opacity=".36"/>
    <stop offset=".609" stop-color="#e4ecf9" stop-opacity=".487"/>
    <stop offset=".755" stop-color="#cedef5" stop-opacity=".604"/>
    <stop offset=".89" stop-color="#b2cbef" stop-opacity=".712"/>
    <stop offset="1" stop-color="#95b7e9" stop-opacity=".8"/>
  </radialGradient>
  <radialGradient id="H" cx="247.388" cy="363.618" r="25.749" gradientUnits="userSpaceOnUse">
    <stop offset="0" stop-color="#fff"/>
    <stop offset="1" stop-color="#b8c4d1"/>
  </radialGradient>
  <radialGradient id="I" cx="249.839" cy="358.1" r="17.323" gradientTransform="matrix(1.063,0,0,1.063,-12.968,-11.834)" gradientUnits="userSpaceOnUse">
    <stop offset="0" stop-color="#fff" stop-opacity="0"/>
    <stop offset=".265" stop-color="#fcfcfe" stop-opacity=".212"/>
    <stop offset=".449" stop-color="#f3f3fd" stop-opacity=".36"/>
    <stop offset=".609" stop-color="#e4e4f9" stop-opacity=".487"/>
    <stop offset=".755" stop-color="#cecff5" stop-opacity=".604"/>
    <stop offset=".89" stop-color="#b2b4ef" stop-opacity=".712"/>
    <stop offset="1" stop-color="#9598e9" stop-opacity=".8"/>
  </radialGradient>
  <radialGradient id="J" cx="354.952" cy="324.618" r="25.749" gradientUnits="userSpaceOnUse">
    <stop offset="0" stop-color="#fff"/>
    <stop offset="1" stop-color="#b8c4d1"/>
  </radialGradient>
  <radialGradient id="K" cx="351.019" cy="321.415" r="17.322" gradientTransform="matrix(1.063,0,0,1.063,-12.968,-11.834)" gradientUnits="userSpaceOnUse">
    <stop offset="0" stop-color="#fff" stop-opacity="0"/>
    <stop offset=".265" stop-color="#fdfcfe" stop-opacity=".212"/>
    <stop offset=".449" stop-color="#f5f3fd" stop-opacity=".36"/>
    <stop offset=".609" stop-color="#e9e4f9" stop-opacity=".487"/>
    <stop offset=".755" stop-color="#d7cef5" stop-opacity=".604"/>
    <stop offset=".89" stop-color="#c0b2ef" stop-opacity=".712"/>
    <stop offset="1" stop-color="#a995e9" stop-opacity=".8"/>
  </radialGradient>
  <radialGradient id="L" cx="241.135" cy="131.768" r="20.599" gradientUnits="userSpaceOnUse">
    <stop offset="0" stop-color="#fff"/>
    <stop offset="1" stop-color="#b8c4d1"/>
  </radialGradient>
  <radialGradient id="M" cx="242.97" cy="139.026" r="13.859" gradientTransform="matrix(1.063,0,0,1.063,-12.968,-11.834)" gradientUnits="userSpaceOnUse">
    <stop offset="0" stop-color="#fff" stop-opacity="0"/>
    <stop offset=".265" stop-color="#fcfefe" stop-opacity=".212"/>
    <stop offset=".449" stop-color="#f3f9fd" stop-opacity=".36"/>
    <stop offset=".609" stop-color="#e4f1f9" stop-opacity=".487"/>
    <stop offset=".755" stop-color="#cee5f5" stop-opacity=".604"/>
    <stop offset=".89" stop-color="#b2d6ef" stop-opacity=".712"/>
    <stop offset="1" stop-color="#95c7e9" stop-opacity=".8"/>
  </radialGradient>
  <radialGradient id="N" cx="311.369" cy="133.706" r="20.599" gradientUnits="userSpaceOnUse">
    <stop offset="0" stop-color="#fff"/>
    <stop offset="1" stop-color="#b8c4d1"/>
  </radialGradient>
  <radialGradient id="O" cx="309.035" cy="140.85" r="13.859" gradientTransform="matrix(1.063,0,0,1.063,-12.968,-11.834)" gradientUnits="userSpaceOnUse">
    <stop offset="0" stop-color="#fff" stop-opacity="0"/>
    <stop offset=".265" stop-color="#fcfdfe" stop-opacity=".212"/>
    <stop offset=".449" stop-color="#f3f7fd" stop-opacity=".36"/>
    <stop offset=".609" stop-color="#e4ecf9" stop-opacity=".487"/>
    <stop offset=".755" stop-color="#ceddf5" stop-opacity=".604"/>
    <stop offset=".89" stop-color="#b2c9ef" stop-opacity=".712"/>
    <stop offset="1" stop-color="#95b5e9" stop-opacity=".8"/>
  </radialGradient>
  <g transform="matrix(.5 0 0 .499999 6 16.000057)">
    <g transform="matrix(.125 0 0 .125 0 -4.000122)">
      <circle r="257" cy="255.998" cx="256" fill="url(#a)" class="B"/>
      <circle r="257" cy="255.998" cx="256" fill="url(#b)" class="B"/>
      <circle r="257" cy="255.998" cx="256" fill="url(#c)" class="B"/>
      <circle r="257" cy="255.998" cx="256" fill="url(#d)" class="B"/>
      <circle r="257" cy="255.998" cx="256" fill="url(#e)" class="B"/>
      <circle r="257" cy="255.998" cx="256" fill="url(#f)" class="B"/>
      <use xlink:href="#g" fill="url(#h)" class="D"/>
      <use xlink:href="#g" fill="url(#i)" class="D"/>
      <use xlink:href="#g" fill="url(#j)" class="D"/>
      <use xlink:href="#g" fill="url(#k)" class="D"/>
      <use xlink:href="#g" fill="url(#l)" class="D"/>
      <use xlink:href="#m" fill="url(#n)" class="C"/>
      <path d="M446.68 260.746c0 102.678-83.253 185.94-185.93 185.94S74.82 363.423 74.82 260.746 158.07 74.83 260.748 74.83s185.93 83.24 185.93 185.915z" fill="url(#o)" class="C"/>
      <path d="M448 255.987C448 362.02 362.032 448 256 448S64 362.02 64 255.987 149.967 64 256 64s192 85.957 192 191.987z" fill="url(#p)" class="C"/>
      <use xlink:href="#m" fill="url(#q)" class="C"/>
      <use xlink:href="#m" fill="url(#r)" class="C"/>
      <use xlink:href="#m" fill="url(#s)" class="C"/>
      <use xlink:href="#t" fill="url(#u)" class="E"/>
      <use xlink:href="#t" fill="url(#v)" class="E"/>
      <path d="M202 66c-70.134 0-127 56.867-127 127s56.867 127 127 127c70.13 0 127-56.87 127-127S272.13 66 202 66z" fill="url(#w)" class="E"/>
      <path d="M256 67C151.62 67 67 151.62 67 256s84.62 189 189 189 189-84.62 189-189S360.382 67 256 67zm0 361.48c-95.26 0-172.485-77.224-172.485-172.48S160.742 83.516 256 83.516 428.48 160.742 428.48 256 351.26 428.48 256 428.48z" opacity=".3" fill="#191919" class="E"/>
    </g>
    <path d="M28.908 26.27l8.167-6.812m0 0l-6.342-6.396m6.342 6.396l2.438-6.154M28.908 26.27l-10.654-3m10.654 3l-6.337 8.792m6.337-8.792l7.075 7.925m0 .001l9.042 3.038m-9.042-3.038l-4.32 7.996" stroke-miterlimit="10" fill="none" stroke="#e4eaf4" stroke-width=".375"/>
    <g transform="matrix(.125 0 0 .125 0 -4.000122)">
      <circle r="51.498" cy="230.335" cx="219.436" fill="url(#x)" class="F"/>
      <circle r="36.833" cy="240.833" cx="229.934" fill="url(#y)" class="F"/>
      <circle r="36.048" cy="304.219" cx="172.285" fill="url(#z)" class="G"/>
      <circle r="25.783" cy="311.566" cx="179.634" fill="url(#A)" class="G"/>
      <circle r="36.048" cy="298.219" cx="280.519" fill="url(#B)" class="N"/>
      <circle r="25.783" cy="305.566" cx="287.867" fill="url(#C)" class="N"/>
      <circle r="25.749" cy="212.252" cx="140.119" fill="url(#D)" class="I"/>
      <circle r="18.416" cy="217.5" cx="145.368" fill="url(#E)" class="I"/>
      <circle r="25.749" cy="181.751" cx="290.687" fill="url(#F)" class="J"/>
      <circle r="18.416" cy="187" cx="295.936" fill="url(#G)" class="J"/>
      <circle r="25.749" cy="363.619" cx="247.388" fill="url(#H)" class="K"/>
      <circle r="18.416" cy="368.867" cx="252.637" fill="url(#I)" class="K"/>
      <circle r="25.749" cy="324.619" cx="354.952" fill="url(#J)" class="L"/>
      <circle r="18.416" cy="329.867" cx="360.201" fill="url(#K)" class="L"/>
      <circle r="20.599" cy="131.768" cx="241.135" fill="url(#L)" class="M"/>
      <circle r="14.733" cy="135.967" cx="245.334" fill="url(#M)" class="M"/>
      <circle r="20.599" cy="133.707" cx="311.369" fill="url(#N)" class="H"/>
      <circle r="14.733" cy="137.905" cx="315.568" fill="url(#O)" class="H"/>
    </g>
  </g>
  <path d="M54.13 19.03v4.203q-1.463-.73-2.873-1.104-1.396-.372-2.647-.372-1.65 0-2.447.505-.785.505-.785 1.57 0 .798.532 1.25.532.44 1.942.758l1.955.44q2.992.665 4.243 2.022 1.25 1.357 1.25 3.857 0 3.285-1.756 4.894-1.742 1.596-5.346 1.596-1.702 0-3.418-.36-1.702-.36-3.418-1.064V32.9q1.716 1 3.312 1.53 1.596.505 3.085.505 1.503 0 2.3-.56.8-.56.8-1.596 0-.93-.545-1.436-.545-.505-2.18-.904L46.362 30q-2.673-.638-3.923-2.035-1.237-1.396-1.237-3.764 0-2.966 1.73-4.562 1.73-1.596 4.947-1.596 1.476 0 3.032.253 1.556.24 3.218.73zm3.1-.625h4.628l4.748 14.656 4.72-14.656h4.642L69.345 38.26h-5.493L57.23 18.405zm37.184 18.38q-1.73.93-3.6 1.396-1.85.465-3.817.465-4.47 0-7.075-2.766-2.607-2.78-2.607-7.527 0-4.8 2.647-7.554 2.66-2.753 7.288-2.753 1.782 0 3.418.372 1.636.372 3.085 1.104v4.1q-1.503-.944-2.98-1.4-1.476-.465-2.966-.465-2.753 0-4.243 1.716-1.5 1.702-1.5 4.88 0 3.152 1.436 4.868 1.436 1.716 4.083 1.716.718 0 1.33-.093.625-.106 1.104-.32v-3.857H87.22v-3.43h7.182v9.55zm12.2-15.028q-2.1 0-3.272 1.73-1.157 1.73-1.157 4.868 0 3.125 1.157 4.854 1.17 1.73 3.272 1.73 2.115 0 3.272-1.73 1.17-1.73 1.17-4.854 0-3.14-1.17-4.868-1.157-1.73-3.272-1.73zm0-3.7q4.3 0 6.743 2.74 2.447 2.74 2.447 7.567 0 4.814-2.447 7.554-2.434 2.74-6.743 2.74-4.296 0-6.743-2.74-2.447-2.74-2.447-7.554 0-4.828 2.447-7.567 2.447-2.74 6.743-2.74z"/>
</svg>
