<svg xmlns="http://www.w3.org/2000/svg" width="120" height="60">
  <path d="M57.158 33.484c.326-.42.956-.466 1.352-.14.816.676 2.237 1.445 3.566 1.445.932 0 1.77-.28 2.33-.7s.792-.886.792-1.352a1.08 1.08 0 0 0-.163-.606 1.814 1.814 0 0 0-.56-.56c-.536-.35-1.445-.676-2.564-.886h-.047c-.886-.163-1.7-.396-2.4-.722s-1.328-.792-1.725-1.445c-.28-.443-.42-.98-.42-1.538 0-1.12.63-2.098 1.492-2.727.886-.63 2.004-.98 3.216-.98 1.795 0 3.123.886 4.055 1.492.42.303.56.886.256 1.328a.95.95 0 0 1-1.328.28c-.956-.63-1.864-1.2-3.006-1.2-.84 0-1.585.256-2.098.63s-.7.792-.7 1.165a.84.84 0 0 0 .14.513c.093.14.256.326.513.5.5.326 1.328.63 2.33.816h.047c.956.186 1.818.42 2.564.792.77.373 1.445.862 1.864 1.538.28.443.443 1.002.443 1.585 0 1.2-.676 2.214-1.608 2.9-.9.676-2.12 1.072-3.45 1.072-2.004-.023-3.706-1.025-4.778-1.864-.373-.303-.443-.932-.117-1.328zM87.48 25.2 82.9 36.07c-.023.047-.047.14-.093.163l-.023.023c-.023.047-.047.07-.093.117 0 .047-.023.047-.023.047a.494.494 0 0 0-.14.093h-.023c-.047.047-.093.093-.163.117 0 0-.023 0-.023.023a.323.323 0 0 0-.14.047h-.047a.46.46 0 0 1-.186.023c-.047 0-.117 0-.163-.023h-.047c-.047-.023-.093-.047-.14-.047-.023-.023-.023-.023-.047-.023-.07-.023-.14-.07-.163-.117h-.023a.473.473 0 0 0-.14-.093l-.047-.047c-.023-.047-.047-.07-.07-.117-.047 0-.047-.023-.047-.023-.047-.047-.047-.117-.07-.163l-2.447-5.78-2.447 5.78c-.023.047-.047.14-.07.163-.023 0-.023.023-.023.023l-.117.117c0 .047-.023.047-.023.047-.047.023-.07.047-.117.093H75.7c-.047.047-.117.093-.14.117h-.023s-.023 0-.023.023c-.07 0-.117.023-.14.047h-.047c-.047.023-.117.023-.163.023s-.14 0-.186-.023h-.047c-.047-.023-.093-.047-.14-.047-.023-.023-.023-.023-.047-.023-.047-.023-.14-.07-.163-.117h-.023c-.047-.047-.07-.07-.14-.093l-.047-.047c-.047-.047-.047-.07-.093-.117v-.023c-.047-.047-.047-.117-.093-.163l-4.6-10.86c-.2-.513.023-1.12.56-1.328a1 1 0 0 1 1.328.536l3.66 8.623 2.4-5.733c.163-.42.56-.63.98-.63.396 0 .792.233.98.63l2.4 5.733 3.636-8.623c.233-.513.816-.77 1.352-.536a1.01 1.01 0 0 1 .583 1.328zm9.252 8.447H92.2l-.9 2.424c-.163.42-.56.653-.98.653-.14 0-.233-.023-.35-.047-.536-.2-.792-.792-.606-1.352l4.125-10.977a1.02 1.02 0 0 1 .979-.653 1 1 0 0 1 .98.653l4.125 10.977c.186.536-.07 1.142-.606 1.352-.093.047-.233.047-.35.047a1 1 0 0 1-.956-.653zm-.77-2.05-1.515-4-1.515 4zm15.336-6.177-3.822 5.244v5.034c0 .583-.443 1.025-1.025 1.025a1.034 1.034 0 0 1-1.025-1.025v-5.034l-3.776-5.244c-.35-.443-.256-1.072.2-1.422.466-.326 1.095-.233 1.422.233l3.193 4.358 3.193-4.358a1.04 1.04 0 0 1 1.445-.233c.42.35.513.98.186 1.422z" fill="#0c3251"/>
  <path d="M29.69 49.745 8.505 41.66v-3.237l21.183 1.89 21.165-1.89v3.237z" fill="#ff4040"/>
  <path d="M29.69 46.488 8.505 38.423l1.665-.636c1.254-.468 2.583-.861 3.8-1.385 2.525-1.123 5.295-1.834 8.065-1.871 1.59-.02 3.069.467 4.622.224 1.796-.3 3.518-.973 5.314-1.329 3.257-.617 6.42.225 9.432 1.423l9.207 3.48c.094.038.168.057.262.094z" fill="#afa137"/>
  <g fill="#c6adac">
    <path d="M15.449 38.835c-.262-5.876 5.688-9.039 10.086-11.453 3.836-2.096 8.627-4.828 7.635-9.937-.206-1.066-1.834-.617-1.628.45.45 2.339-.88 4.116-2.657 5.464-2.096 1.59-4.51 2.713-6.793 4.004-4.21 2.396-8.571 6.176-8.346 11.472.056 1.085 1.74 1.085 1.703 0z"/>
    <path d="M22.822 29.197c5.838 1.217 11.995-.524 16.318-4.64.786-.75-.412-1.947-1.198-1.198-3.855 3.705-9.432 5.314-14.671 4.21-1.048-.206-1.516 1.404-.45 1.628z"/>
  </g>
  <g fill="#68751c">
    <path d="M22.822 16.94c1.534.374 4.135-1.404 5.295-1.965 1.498-.73 3.05-1.291 4.567-1.965.58-.262 2.47-.86 2.488-1.703.038-1.048-1.964-1.104-2.62-1.029-1.328.131-2.62.543-3.892.917a20.328 20.328 0 0 0-3.799 1.572c-.917.486-2.17 1.347-2.713 2.246-.337.542-.318 1.347.206 1.721.13.094.28.169.468.206zm9.394-2.844.786-.412c2.17-1.03 4.678-1.871 7.148-2.059 2.152-.168 4.529-.561 6.662.02 1.104.299 2.32 1.365 1.74 2.394-.43.768-2.189 1.797-2.956 2.358-2.826 2.003-6.774 2.882-10.386 3.07-2.62.149-6.924-1.348-4.529-4.174.393-.486.955-.86 1.535-1.197z"/>
    <path d="M46.625 16.453c.599.02 1.291.169 1.572.712.225.449.056.991-.262 1.366-.337.374-.786.58-1.254.767a22.952 22.952 0 0 1-7.317 1.722c-.692.037-1.422.056-2.096-.169s-1.272-.73-1.46-1.403c-.411-1.554 2.995-2.059 3.912-2.227s1.834-.281 2.75-.318c1.385-.094 2.733-.506 4.155-.45zm-.318 10.18c-.917-2.264-6.438.225-7.691 1.03-.468.3-.955.748-.861 1.291.093.58.786.842 1.385.917 1.44.187 8.234-.561 7.167-3.237zM28.96 19.299c-.225 1.497-2.246 3.144-3.593 3.612-1.31.467-3.5-.506-2.695-2.096.711-1.385 4.23-3.855 5.764-2.845.449.28.598.842.524 1.329zm3.892 7.448c2.152.262 4.36-.019 6.381-.786.45-.169.917-.393 1.104-.842.131-.337.038-.749-.224-.992s-.674-.318-.992-.168c-.599-.655-1.647-.6-2.526-.43-1.385.28-2.751.785-4.005 1.44-.45.243-.954.655-.823 1.142.13.43.636.58 1.085.636z"/>
    <path d="M35.34 25.005c2.845.637 5.97-.187 8.403-1.759.318-.205.674-.524.618-.917-.075-.467-.674-.617-1.16-.598-2.77.037-5.577.73-7.991 2.133-.28.15-.58.412-.505.711.093.262.393.374.636.43zm-14.24-3.78c.262-.318.486-.71.374-1.085-.524-2.077-3.35.618-4.023 1.235-.861.786-.824 1.478.58 1.478 1.141-.018 2.358-.786 3.069-1.628z"/>
  </g>
</svg>
