<svg xmlns="http://www.w3.org/2000/svg" width="120" height="60">
  <path d="M16.358 34.592c-.5-.251-.479-.877-.503-1.357l.005-4.979 2.416-.002v-2.55l-2.43-.001.025-3.479c-1.295.008-2.592.008-3.888 0l.003 3.475-1.986.007.001 2.546 1.99.008-.002 6.113c.045 1.08.302 2.375 1.376 2.905 1.543.704 3.294.422 4.932.352v-2.912c-.641.001-1.336.163-1.938-.129zm34.715-9.22c-1.448-.007-2.951.68-3.692 1.963l.014-5.11c-1.296.007-2.592.007-3.887 0l-.03 10.367a.503.503 0 0 1-.172.388c-1.2-.157-2.42-.03-3.629-.07-.136.605-.352 1.255-.886 1.63-.817.547-2.043.535-2.76-.183-.689-.663-.875-1.671-.883-2.59.024-.862.1-1.788.61-2.512.744-1.045 2.474-1.192 3.351-.242.282.285.373.683.463 1.059l3.81-.003c-.103-.96-.418-1.912-1.035-2.67-.9-1.149-2.315-1.763-3.742-1.965-1.224-.133-2.501-.1-3.659.372a5.556 5.556 0 0 0-2.684 2.203c-.953 1.486-1.192 3.344-.929 5.066a5.727 5.727 0 0 0 3.074 4.185c2.523 1.207 5.846.835 7.825-1.225.1-.176.175-.353.309-.496.558-.583.563-1.453.944-2.135l.02 4.195h3.89v-6.15c.005-.738.096-1.533.572-2.13.624-.806 1.889-.907 2.734-.403.67.444.707 1.333.735 2.058l.005 6.637 3.885.002v-8.104c-.027-1.107-.304-2.323-1.147-3.116-.805-.79-2.01-1.026-3.108-1.006z" fill="#2e6e92"/>
  <path d="M27.703 26.384c-2.565-1.774-6.422-1.406-8.57.87-1.098 1.12-1.689 2.696-1.655 4.258-.035 1.472.368 2.986 1.309 4.144.96 1.208 2.446 1.913 3.955 2.107 1.712.213 3.545.045 5.033-.868 1.102-.664 1.897-1.777 2.207-3.02-1.218-.006-2.435-.01-3.65 0-.758 1.533-3.07 1.726-4.22.546-.493-.503-.667-1.236-.734-1.922l8.817-.008c.082-2.25-.58-4.734-2.491-6.104zM21.378 30.3c.17-.891.664-1.791 1.538-2.157.958-.42 2.2-.162 2.813.714.318.417.453.932.53 1.442h-4.881z" fill="#2d6f92"/>
  <path d="M84.139 27.01c-1.57-2.194-5.16-2.16-6.921-.225-1.145 1.25-1.619 3-1.582 4.667-.014 1.788.45 3.68 1.693 5.024.986 1.07 2.48 1.556 3.913 1.452 1.224-.015 2.367-.705 3.063-1.685V37.6h3.719V22.05c-1.294 0-2.587-.006-3.881.004l-.004 4.956zm-.532 7.146c-.696.926-2.216 1.04-3.058.252-.61-.535-.852-1.357-.956-2.134-.12-.984-.037-2.049.506-2.906a2.006 2.006 0 0 1 1.192-.888c.791-.24 1.738-.008 2.255.657.584.745.72 1.736.704 2.657-.03.817-.15 1.688-.654 2.363zm-19.945-8.642c-.865-.141-1.777-.114-2.6.22-.905.343-1.552 1.105-1.95 1.958l.016-1.988-3.803-.001V37.6h3.883l.008-5.838c-.006-.958.447-1.93 1.284-2.43.948-.604 2.132-.48 3.165-.197l-.005-3.621zm11.444 3.335c-.05-.837-.38-1.68-1.002-2.257-.999-.918-2.418-1.137-3.724-1.205-1.677-.06-3.489.034-4.926 1.006-1.002.65-1.534 1.832-1.57 3.003l3.678-.005c.161-.592.536-1.178 1.158-1.35.792-.213 1.754-.15 2.378.434.509.485.302 1.502-.402 1.65-1.847.48-3.87.338-5.594 1.245-.806.406-1.427 1.193-1.574 2.096-.159 1.02-.095 2.159.538 3.017.596.843 1.61 1.296 2.61 1.422 1.67.201 3.496-.171 4.738-1.361.089.34.014.805.275 1.05l3.905.014a5.435 5.435 0 0 1-.427-1.94l-.05-6.808zm-4.324 5.931c-.6.727-1.71.853-2.556.59-.62-.166-.98-.86-.838-1.47.073-.471.463-.82.886-.994.988-.415 2.102-.4 3.087-.828-.03.906-.002 1.93-.578 2.701zm29.092-5.935c-.043-.765-.325-1.527-.845-2.093-.948-1.012-2.403-1.273-3.724-1.357-1.724-.075-3.593-.005-5.075.982-1.006.65-1.54 1.834-1.578 3.007l3.68-.001c.158-.604.534-1.181 1.158-1.352.791-.202 1.754-.15 2.378.433.508.49.302 1.51-.42 1.652-1.841.475-3.854.338-5.577 1.238-.818.406-1.432 1.194-1.582 2.097-.16 1.021-.097 2.16.537 3.02.596.843 1.608 1.296 2.61 1.422 1.67.2 3.5-.168 4.743-1.366l.16 1.04 4.014.03a5.495 5.495 0 0 1-.43-1.957l-.05-6.797zm-4.32 5.93c-.626.755-1.786.876-2.665.554-.893-.31-1.02-1.664-.257-2.184 1.04-.692 2.375-.564 3.496-1.064-.028.913-.003 1.924-.573 2.695zm13.588-5.643-.006-3.624c-.865-.13-1.771-.108-2.59.224-.898.34-1.56 1.104-1.952 1.96l.013-1.99h-3.805v11.897h3.886l.02-6.011c.015-1.144.803-2.235 1.912-2.544.825-.267 1.705-.12 2.523.086z" fill="#333"/>
  <path d="m109.997 33.31-4.288.002.003 4.328H110l-.003-4.328z" fill="#e8238c"/>
</svg>
