<svg version="1.1" xmlns="http://www.w3.org/2000/svg" x="0" y="0" viewBox="0 0 120 60" width="120" height="60" style="enable-background:new 0 0 120 60">
  <circle cx="31.4" cy="30" r="20.5" style="fill:#00bcd4;stroke:#00bcd4;stroke-width:.2113;stroke-miterlimit:10"/>
  <path d="M31.4 51.1c-11.6 0-21.1-9.5-21.1-21.1S19.8 8.9 31.4 8.9 52.5 18.4 52.5 30s-9.4 21.1-21.1 21.1zm0-41C20.5 10.1 11.5 19 11.5 30s8.9 19.9 19.9 19.9 19.9-9 19.9-19.9-8.9-19.9-19.9-19.9z" style="fill:#fff"/>
  <path class="st2" d="M22.3 31.7c0 .4.3.8.8.8.4 0 .8-.3.8-.8s-.4-.7-.8-.7-.8.3-.8.7zm2.7-8.4c.1 1.6.4 3.1.9 3.7 1.2 1.2 4.3 1.4 5.4 1.4 1.1 0 4.3-.2 5.4-1.4.5-.6.9-2.1.9-3.7h-1.9c-.2.6-1.3 1.1-1.9 1.2-.6 0-1 0-1.4-.2-.3-.1-.4-.3-.5-.4.1-.2.1-.4.1-.6h-1.1c0 .2-.1.4-.1.6-.1.1-.2.3-.5.4-.4.2-.8.2-1.4.2-.6 0-1.7-.6-1.9-1.2h-2z"/>
  <path class="st2" d="M38.3 24.4H40v6c.6.1 1 .7 1 1.3 0 .7-.6 1.3-1.3 1.3s-1.3-.6-1.3-1.3c0-.6.4-1.2 1-1.3v-5.5h-1.3c-.2 1-.5 1.9-.9 2.4l-.4.4.8 1.4v5.8c.6.1 1 .7 1 1.3 0 .7-.6 1.3-1.3 1.3s-1.3-.6-1.3-1.3c0-.6.4-1.2 1-1.3v-5.6l-.6-1.3c-.3.2-.7.3-1.1.4v11.2c.6.1 1 .7 1 1.3 0 .7-.6 1.3-1.3 1.3s-1.3-.6-1.3-1.3c0-.6.4-1.2 1-1.3v-11l-1.8.3v17.5c2.9-2.1 8.7-6.7 8.7-11.2V23.3h-3.3v1.1zM24.8 36.2c0 .4.3.8.8.8.4 0 .8-.3.8-.8 0-.4-.3-.8-.8-.8-.5.1-.8.4-.8.8z"/>
  <path class="st2" d="M29.9 46.4V28.9c-.5 0-1.2-.1-1.8-.3v11.1c.6.1 1 .7 1 1.3 0 .7-.6 1.3-1.3 1.3s-1.3-.6-1.3-1.3c0-.6.4-1.2 1-1.3V28.5c-.4-.1-.8-.3-1.1-.4l-.7 1.3.1 5.6c.6.1 1 .7 1 1.3 0 .7-.6 1.3-1.3 1.3-.7 0-1.3-.6-1.3-1.3 0-.6.4-1.2 1-1.3l-.1-5.8.8-1.4c-.1-.1-.3-.2-.4-.4-.4-.5-.8-1.4-.9-2.4h-1.3v5.5c.6.1 1 .7 1 1.3 0 .7-.6 1.3-1.3 1.3s-1.3-.6-1.3-1.3c0-.6.4-1.2 1-1.3v-6h1.8c0-.4-.1-.7-.1-1.1h-3.3v11.9c.1 4.3 5.9 9 8.8 11.1zm7.8-25.3H25.1c-.1.5-.1 1.1-.1 1.6h1.8v-.4c1.1-.1 2.7-.1 4 .1v.3h1v-.3c1.3-.2 3-.2 4-.1v.4h1.8c.2-.5.1-1 .1-1.6z"/>
  <path class="st2" d="M27.1 40.9c0 .4.3.8.8.8.4 0 .8-.3.8-.8s-.3-.8-.8-.8c-.4.1-.8.4-.8.8zm9.5-4.7c0 .4.3.8.8.8.4 0 .8-.3.8-.8 0-.4-.3-.8-.8-.8-.5.1-.8.4-.8.8zm-2.2-21.9-1.7.7-2.4-2.2-5.1 7.1h-4v.7h20.4V20h-4zM39 31.7c0 .4.3.8.8.8.4 0 .8-.3.8-.8s-.4-.7-.8-.7c-.5 0-.8.3-.8.7zm-6.7 15.1V28.9h-1.8v17.9c.4.3.7.5.9.6.2-.1.5-.3.9-.6zm1.9-5.9c0 .4.3.8.8.8.4 0 .8-.3.8-.8s-.3-.8-.8-.8c-.5.1-.8.4-.8.8zm33.7-15.2h-3.7v10.2h-2V25.7h-3.7V24h9.4v1.7zm8.5 4.9h-4.9v3.7h5.7v1.6h-7.8V24.1h7.7v1.7h-5.6V29h4.9v1.6zm12 5.3h-2.1L81 27.5v8.4h-2.1V24.1H81l5.3 8.5v-8.5h2v11.8zm11-10.2h-3.7v10.2h-2V25.7H90V24h9.4v1.7zm7.2 7.5H102l-1 2.8h-2.1l4.5-11.9h1.9l4.5 11.9h-2.2l-1-2.8zm-4-1.7h3.4l-1.7-4.9-1.7 4.9z"/>
</svg>
