<svg version="1.1" xmlns="http://www.w3.org/2000/svg" xmlns:xlink="http://www.w3.org/1999/xlink" x="0px" y="0px" viewBox="0 0 64 64" style="enable-background:new 0 0 64 64" xml:space="preserve">
  <g>
    <circle cx="32" cy="32" r="31" style="fill:#00BCD4;stroke:#00BCD4;stroke-width:0.32;stroke-miterlimit:10"/>
    <path d="M32,64C14.4,64,0,49.6,0,32S14.4,0,32,0s32,14.4,32,32S49.7,64,32,64z M32,1.9C15.4,1.9,1.9,15.4,1.9,32 S15.4,62.1,32,62.1S62.1,48.6,62.1,32S48.6,1.9,32,1.9z" style="fill:#FFFFFF"/>
    <g>
      <path class="st2" d="M18.2 34.6c0 .6.5 1.2 1.2 1.2.6 0 1.2-.5 1.2-1.2s-.5-1.2-1.2-1.2C18.8 33.5 18.2 34 18.2 34.6zM22.4 21.8c.1 2.5.6 4.7 1.4 5.6 1.8 1.9 6.5 2.2 8.2 2.1l0 0 0 0c1.7 0 6.5-.3 8.2-2.1.8-.9 1.3-3.1 1.4-5.6h-.9l0 0h-1.9c-.4.9-2 1.7-2.9 1.8s-1.5 0-2.1-.3c-.4-.2-.6-.4-.8-.6-.1-.3-.2-.6-.2-.9h-1.7c0 .3-.1.6-.2.9-.1.2-.3.4-.8.6-.6.3-1.2.3-2.1.3-.9-.1-2.5-.9-2.9-1.8h-1.9l0 0H22.4z"/>
      <path class="st2" d="M42.4 23.5h2.7v9.2c.9.2 1.6 1 1.6 2 0 1.1-.9 2-2 2s-2-.9-2-2c0-1 .7-1.8 1.6-2v-8.3h-2c-.3 1.6-.7 2.9-1.4 3.6-.2.2-.4.4-.7.6l1.2 2.1v8.8c.9.2 1.6 1 1.6 2 0 1.1-.9 2-2 2s-2-.9-2-2c0-1 .7-1.8 1.6-2v-8.5L39.5 29c-.5.3-1.1.5-1.7.7v17c.9.2 1.6 1 1.6 2 0 1.1-.9 2-2 2s-2-.9-2-2c0-1 .7-1.8 1.6-2V29.9c-.9.2-1.9.3-2.7.4v26.5c4.4-3.1 13.2-10.2 13.2-17v-18h-5C42.5 22.4 42.4 23 42.4 23.5zM22 41.4c0 .6.5 1.2 1.2 1.2.6 0 1.2-.5 1.2-1.2 0-.6-.5-1.2-1.2-1.2C22.5 40.3 22 40.8 22 41.4z"/>
      <path class="st2" d="M29.8 56.8V30.3c-.8-.1-1.8-.2-2.7-.4v16.7c.9.2 1.6 1 1.6 2 0 1.1-.9 2-2 2-1.1 0-2-.9-2-2 0-1 .7-1.8 1.6-2V29.7c-.6-.2-1.2-.4-1.7-.7l-1.1 2 .1 8.5c.9.2 1.6 1 1.6 2 0 1.1-.9 2-2 2s-2-.9-2-2c0-1 .7-1.8 1.6-2l-.1-8.7 1.2-2.2c-.2-.2-.4-.4-.6-.6-.7-.7-1.2-2-1.4-3.6h-2v8.3c.9.2 1.6 1 1.6 2 0 1.1-.9 2-2 2-1.1 0-2-.9-2-2 0-1 .7-1.8 1.6-2v-9.2h2.7c-.1-.5-.1-1.1-.1-1.7h-5v18C16.5 46.6 25.3 53.7 29.8 56.8zM41.5 18.6h-19c-.1.8-.1 1.6-.1 2.4H25c0-.2 0-.4 0-.6v0c1.6-.1 4.1-.1 6.1.2 0 .1.1.3.1.4H32h.8c0-.1 0-.3.1-.4 2-.3 4.5-.3 6.1-.2v0c0 .2 0 .4 0 .6h2.7C41.6 20.2 41.6 19.4 41.5 18.6z"/>
      <path class="st2" d="M25.5 48.6c0 .6.5 1.2 1.2 1.2.6 0 1.2-.5 1.2-1.2s-.5-1.2-1.2-1.2C26 47.4 25.5 47.9 25.5 48.6zM39.9 41.4c0 .6.5 1.2 1.2 1.2.6 0 1.2-.5 1.2-1.2 0-.6-.5-1.2-1.2-1.2C40.4 40.3 39.9 40.8 39.9 41.4z"/>
      <polygon class="st2" points="36.5,8.3 34,9.2 30.3,6 22.6,16.8 16.5,16.8 16.5,17.7 47.5,17.7 47.5,16.9 41.4,16.9"/>
      <path class="st2" d="M43.5 34.6c0 .6.5 1.2 1.2 1.2.6 0 1.2-.5 1.2-1.2s-.5-1.2-1.2-1.2S43.5 34 43.5 34.6zM33.4 57.4v-27c-.5 0-.9 0-1.1 0-.2 0-.3 0-.3 0-.1 0-.6 0-1.4 0v27c.6.4 1.1.7 1.4.9C32.3 58.1 32.7 57.8 33.4 57.4zM36.2 48.6c0 .6.5 1.2 1.2 1.2s1.2-.5 1.2-1.2-.5-1.2-1.2-1.2S36.2 47.9 36.2 48.6z"/>
    </g>
  </g>
</svg>
