<svg version="1.1" xmlns="http://www.w3.org/2000/svg" x="0" y="0" viewBox="0 0 64 64" width="64" height="64" style="enable-background:new 0 0 64 64">
  <circle cx="32" cy="32" r="31" style="fill:#00bcd4;stroke:#00bcd4;stroke-width:.32;stroke-miterlimit:10"/>
  <path d="M32 64C14.4 64 0 49.6 0 32S14.4 0 32 0s32 14.4 32 32-14.3 32-32 32zm0-62.1C15.4 1.9 1.9 15.4 1.9 32S15.4 62.1 32 62.1 62.1 48.6 62.1 32 48.6 1.9 32 1.9z" style="fill:#fff"/>
  <path class="st2" d="M18.2 34.6c0 .6.5 1.2 1.2 1.2.6 0 1.2-.5 1.2-1.2s-.5-1.2-1.2-1.2c-.6.1-1.2.6-1.2 1.2zm4.2-12.8c.1 2.5.6 4.7 1.4 5.6 1.8 1.9 6.5 2.2 8.2 2.1 1.7 0 6.5-.3 8.2-2.1.8-.9 1.3-3.1 1.4-5.6h-2.8c-.4.9-2 1.7-2.9 1.8s-1.5 0-2.1-.3c-.4-.2-.6-.4-.8-.6-.1-.3-.2-.6-.2-.9h-1.7c0 .3-.1.6-.2.9-.1.2-.3.4-.8.6-.6.3-1.2.3-2.1.3-.9-.1-2.5-.9-2.9-1.8h-2.7z"/>
  <path class="st2" d="M42.4 23.5h2.7v9.2c.9.2 1.6 1 1.6 2 0 1.1-.9 2-2 2s-2-.9-2-2c0-1 .7-1.8 1.6-2v-8.3h-2c-.3 1.6-.7 2.9-1.4 3.6-.2.2-.4.4-.7.6l1.2 2.1v8.8c.9.2 1.6 1 1.6 2 0 1.1-.9 2-2 2s-2-.9-2-2c0-1 .7-1.8 1.6-2V31l-1.1-2c-.5.3-1.1.5-1.7.7v17c.9.2 1.6 1 1.6 2 0 1.1-.9 2-2 2s-2-.9-2-2c0-1 .7-1.8 1.6-2V29.9c-.9.2-1.9.3-2.7.4v26.5c4.4-3.1 13.2-10.2 13.2-17v-18h-5c0 .6-.1 1.2-.1 1.7zM22 41.4c0 .6.5 1.2 1.2 1.2.6 0 1.2-.5 1.2-1.2 0-.6-.5-1.2-1.2-1.2-.7.1-1.2.6-1.2 1.2z"/>
  <path class="st2" d="M29.8 56.8V30.3c-.8-.1-1.8-.2-2.7-.4v16.7c.9.2 1.6 1 1.6 2 0 1.1-.9 2-2 2s-2-.9-2-2c0-1 .7-1.8 1.6-2V29.7c-.6-.2-1.2-.4-1.7-.7l-1.1 2 .1 8.5c.9.2 1.6 1 1.6 2 0 1.1-.9 2-2 2s-2-.9-2-2c0-1 .7-1.8 1.6-2l-.1-8.7 1.2-2.2-.6-.6c-.7-.7-1.2-2-1.4-3.6h-2v8.3c.9.2 1.6 1 1.6 2 0 1.1-.9 2-2 2s-2-.9-2-2c0-1 .7-1.8 1.6-2v-9.2h2.7c-.1-.5-.1-1.1-.1-1.7h-5v18c-.2 6.8 8.6 13.9 13.1 17zm11.7-38.2h-19c-.1.8-.1 1.6-.1 2.4H25v-.6c1.6-.1 4.1-.1 6.1.2 0 .1.1.3.1.4h1.6c0-.1 0-.3.1-.4 2-.3 4.5-.3 6.1-.2v.6h2.7c-.1-.8-.1-1.6-.2-2.4z"/>
  <path class="st2" d="M25.5 48.6c0 .6.5 1.2 1.2 1.2.6 0 1.2-.5 1.2-1.2s-.5-1.2-1.2-1.2-1.2.5-1.2 1.2zm14.4-7.2c0 .6.5 1.2 1.2 1.2.6 0 1.2-.5 1.2-1.2 0-.6-.5-1.2-1.2-1.2-.7.1-1.2.6-1.2 1.2zM36.5 8.3l-2.5.9L30.3 6l-7.7 10.8h-6.1v.9h31v-.8h-6.1zm7 26.3c0 .6.5 1.2 1.2 1.2.6 0 1.2-.5 1.2-1.2s-.5-1.2-1.2-1.2-1.2.6-1.2 1.2zM33.4 57.4v-27h-2.8v27c.6.4 1.1.7 1.4.9.3-.2.7-.5 1.4-.9zm2.8-8.8c0 .6.5 1.2 1.2 1.2s1.2-.5 1.2-1.2-.5-1.2-1.2-1.2-1.2.5-1.2 1.2z"/>
</svg>
