<svg xmlns="http://www.w3.org/2000/svg" width="120" height="60" version="1.1">
  <path d="M78.405 20.184h3.824v21.729h-3.824z" style="fill:#34bdef;stroke-width:.43458158"/>
  <path d="m51.417 31.918-2.607-.826c-1.739-.565-2.608-1.26-2.608-2.13 0-.825.608-1.825 3.433-1.825 1.825 0 3.607.478 5.085 1.304l.565.348v-3.564l-.218-.087c-.738-.304-2.737-1.043-5.432-1.043-4.215 0-6.78 1.912-6.78 4.998 0 2.26 1.652 3.955 4.738 4.954l2.564.87c1.608.52 2.26 1.13 2.26 2.042 0 1.564-1.913 1.869-3.52 1.869-1.87 0-3.738-.565-4.955-1.478l-.608-.435v3.607l.174.13c1.086.61 3.042 1.261 5.345 1.261 4.302 0 6.91-1.912 6.91-5.128.043-3.086-2.477-4.259-4.346-4.867zM22.3 38.219c-.26.044-.478.13-.695.174-.522.13-.826.217-1.347.26h-.087c-2.304 0-3.39-1.13-3.39-3.476v-7.822h4.476l.565-2.912h-5.041v-4.259H13V35.09c0 4.65 3.39 6.78 6.562 6.78.044 0 .13 0 .217-.044.957 0 1.304-.087 1.956-.26.217-.044.435-.13.739-.174l.304-.087v-3.26Zm16.123-11.647c-1.347-1.651-3.346-2.52-5.78-2.564h-.217c-4.954.304-8.04 3.607-8.04 8.562 0 6.17 3.216 9.256 9.517 9.256 1.956 0 4.563-.608 5.085-.739l.304-.087v-3.215l-.478.13a3.619 3.619 0 0 0-.652.174c-1.13.26-2.346.565-4.389.565-3.042 0-4.824-1.304-5.389-3.955-.043-.26-.26-1.869-.174-2.781v-.044c.218-2.868 2.043-4.65 4.694-4.606 2.26.174 3.737 1.955 3.911 4.606h-5.78l.044 2.825h8.952l.043-.348c.044-.738.087-1.52.087-2.65-.043-1.913-.652-3.781-1.738-5.129zM68.061 38.22c-.26.044-.478.13-.695.174-.521.13-.826.217-1.347.26h-.087c-2.303 0-3.39-1.13-3.39-3.476v-7.822h4.476l.565-2.912h-5.04v-4.259H58.76V35.09c0 4.65 3.39 6.78 6.563 6.78.043 0 .13 0 .217-.044.956 0 1.304-.087 1.956-.26.217-.044.434-.13.738-.174l.305-.087v-3.26z" style="fill:#282727;stroke-width:.43458158"/>
  <path d="M106.696 28.963c-.13-.696-.348-1.348-.609-2a11.463 11.463 0 0 0-1-1.912 10.305 10.305 0 0 0-1.39-1.695c-.521-.521-1.086-1-1.695-1.39-.608-.391-1.217-.739-1.912-1-.652-.26-1.304-.478-1.999-.608a10.992 10.992 0 0 0-4.128 0c-.696.13-1.348.347-2 .608a11.55 11.55 0 0 0-1.912 1c-.13.087-.26.174-.39.304l2.737 2.738 1-.522a7.329 7.329 0 0 1 1.303-.39 7.075 7.075 0 0 1 2.695 0c.434.086.869.216 1.303.39.435.174.826.391 1.217.652.391.261.783.565 1.13.913.348.347.652.695.913 1.13.26.39.478.782.652 1.217.174.434.304.869.39 1.303a7.075 7.075 0 0 1 0 2.695 7.43 7.43 0 0 1-.39 1.303 6.557 6.557 0 0 1-.652 1.217c-.26.391-.565.783-.913 1.13a5.743 5.743 0 0 1-1.13.913c-.39.26-.782.478-1.217.652a7.43 7.43 0 0 1-1.303.39 7.027 7.027 0 0 1-2.695 0 7.433 7.433 0 0 1-1.303-.39 6.557 6.557 0 0 1-1.217-.652 7.425 7.425 0 0 1-1.13-.913 5.743 5.743 0 0 1-.913-1.13 6.557 6.557 0 0 1-.652-1.217 7.431 7.431 0 0 1-.39-1.303 7.075 7.075 0 0 1 0-2.695c.086-.434.217-.869.39-1.303.087-.218.174-.435.305-.652l-2.738-2.738c0 .043-.044.043-.044.087-.39.608-.738 1.217-1 1.912-.26.652-.477 1.347-.608 1.999-.13.695-.217 1.39-.217 2.086 0 .695.087 1.39.217 2.086.13.695.348 1.347.609 2 .26.65.608 1.303 1 1.911.39.609.868 1.174 1.39 1.695.521.522 1.086 1 1.695 1.39.608.392 1.217.74 1.912 1 .652.261 1.304.478 1.999.609.695.13 1.39.217 2.086.217.695 0 1.39-.087 2.086-.217.695-.13 1.347-.348 2-.609.651-.26 1.303-.608 1.911-1 .609-.39 1.174-.868 1.695-1.39.522-.521 1-1.086 1.39-1.695.392-.608.74-1.217 1-1.912.261-.652.478-1.347.609-1.999.13-.695.217-1.39.217-2.086Z" style="fill:#34bdef;stroke-width:.43458158"/>
</svg>
