<svg xmlns="http://www.w3.org/2000/svg" viewBox="-6.14 -0.44 120 60" width="120" height="60">
  <path d="m70.736 39.728-6.324-9.078-2.381 2.406v6.647h-5.035v-21.03h5.035v8.754l8.258-8.754h6.002l-8.457 8.556 9.187 12.5zm21.428-21.055h5.604L90.65 39.728h-5.456l-6.967-21.055h5.53l4.156 14.905h.323z" fill="#353558"/>
  <path d="M9.95 19.02v21.105l20.312 10.54 20.237-10.54V19.02L30.262 8.455z" fill="#ec1a3b"/>
  <path d="m17.54 22.963 12.697-6.597 5.057 2.629-6.42 3.346v19.716l-4.96-2.577V24.922l-6.375 3.324zm16.442 17.854v-15.87l5.037-2.606v15.847z" fill="#fff"/>
</svg>
