<svg xmlns="http://www.w3.org/2000/svg" stroke-miterlimit="1.414" width="64" height="64" fill-rule="evenodd" stroke-linejoin="round">
  <path d="m32.002-.001 27.71 16v32L32.003 64 4.287 47.999v-32zm.03 18.557 11.085 6.401v12.802l-11.085 6.4-11.085-6.4V24.957z" fill="#66b639"/>
  <path d="m30.06 31.555-4.105 9.113-9.201.14 4.209-9.188-4.32-9.356 9.064-.026 4.352 9.032.093.084-.047.102.048.1zm-4.592 9.887-6.71 14.938-14.451-8.408V15.88l14.71-8.389 6.367 14.114-9.977-.057 4.72 9.977-4.582 10.053z" fill="#9ad959"/>
  <path d="m69.12 53.8 4.787-10.608.252-.612-1.04.017 1.393-.605 4.61 2.753-4.95 11.894z" fill="url(#a)" transform="matrix(1.32525 0 0 1.32525 -72.812 -14.977)"/>
  <path d="m69.3 16.96 4.5-2.606 4.46 11.496-3.984 2.24-1.34-.462 1.164-.015z" fill="url(#b)" transform="matrix(1.32525 0 0 1.32525 -72.812 -14.977)"/>
  <defs>
    <linearGradient id="a" x2="77.474" gradientUnits="userSpaceOnUse" x1="71.447" y1="45.733" y2="49.149">
      <stop offset="0" stop-color="#67b13d" stop-opacity=".13"/>
      <stop offset=".17" stop-color="#1a2d10" stop-opacity=".153"/>
      <stop offset="1" stop-color="#67b13d" stop-opacity="0"/>
    </linearGradient>
    <linearGradient id="b" x2="74.831" gradientUnits="userSpaceOnUse" x1="70.119" y1="23.211" y2="19.868">
      <stop offset="0" stop-color="#67b13d" stop-opacity=".145"/>
      <stop offset=".22" stop-color="#0e2600" stop-opacity=".145"/>
      <stop offset="1" stop-color="#67b13d" stop-opacity="0"/>
    </linearGradient>
  </defs>
</svg>
