<svg xmlns="http://www.w3.org/2000/svg" width="64" height="64">
  <path d="m13.528 10.649-9.236 5.324V26.62l9.236 5.325 9.236-5.325V15.973z" fill="#d2b53c"/>
  <path d="M13.528 21.297v10.649l9.236-5.325V15.973z" fill="#f1de44"/>
  <path d="M32 21.297v10.649l9.236 5.324 18.472-10.649V15.973l-9.236-5.324z" fill="#4fa7b8"/>
  <path d="M41.236 26.621V37.27l18.472-10.649V15.973z" fill="#65cceb"/>
  <path d="M31.999 31.944v10.65L50.47 53.328l9.236-5.322V37.27L41.234 26.62z" fill="#d58040"/>
  <path d="M50.471 42.594v10.734l9.236-5.322V37.27z" fill="#f99f47"/>
  <path d="M41.236 5.324 32 0l-9.236 5.324v26.622L32 37.27l9.236-5.324V5.324" fill="#b48"/>
  <path d="M41.236 5.324 32 10.65v26.62l9.236-5.324z" fill="#e05292"/>
  <path d="M22.763 48.028v10.65L31.999 64l9.236-5.323V26.622l-9.236-5.323-27.73 15.972v10.735l9.235 5.322" fill="#61a04b"/>
  <path d="M13.527 42.594v10.734l18.472-10.734V64l9.236-5.323V26.622z" fill="#77c262"/>
</svg>
