<svg xmlns="http://www.w3.org/2000/svg" width="120" height="60">
  <path d="M37.353 35.543v-1.145a10.852 10.852 0 0 1-.145 1.882c-.421 2.53-1.691 4.41-3.587 5.331a5.943 5.943 0 0 1-3.04.56c-2.85-.21-5.74-2.198-7.736-5.213q-.276-.416-.526-.856a13.355 13.355 0 0 1-.481-.915 13.782 13.782 0 0 1-1.317-7.898c.506-3.455 2.193-4.74 2.193-4.74a6.723 6.723 0 0 0-1.633 1.245c-3.04 2.566-3.884 7.708-1.975 12.632q.217.573.494 1.145c2.087 4.31 5.891 7.24 9.695 7.543.624.05 1.253.021 1.87-.085s1.213-.29 1.778-.553c3.022-1.468 4.608-4.963 4.41-8.913" fill="#3fae49"/>
  <path d="m27.999 16.83-.967.612c.537-.33 1.1-.615 1.685-.85 2.376-.941 4.653-.829 6.417.317a5.922 5.922 0 0 1 2.047 2.317c1.316 2.548 1.086 6.048-.467 9.32-.145.303-.297.6-.467.895s-.344.592-.543.882a13.762 13.762 0 0 1-6.088 5.22c-3.226 1.355-5.193.565-5.193.565a6.71 6.71 0 0 0 1.909.75c3.771 1.277 8.609-.658 11.847-4.852a14.701 14.701 0 0 0 .724-1.014c2.633-4.008 3.179-8.794 1.449-12.197a7.46 7.46 0 0 0-1.067-1.572 6.94 6.94 0 0 0-1.402-1.204c-2.778-1.856-6.609-1.403-9.894.81" fill="#f36c21"/>
  <path d="m16.686 34.503 1.033.493a10.96 10.96 0 0 1-1.613-.98c-2.053-1.521-3.14-3.51-3.106-5.608.027-1.048.33-2.07.882-2.962 1.474-2.442 4.561-4.127 8.155-4.536a12.316 12.316 0 0 1 1-.079c.343-.013.658 0 1.034 0 2.729.018 5.391.85 7.649 2.383 2.855 2.02 3.232 4.1 3.232 4.1a6.759 6.759 0 0 0-.375-2.02c-.908-3.858-5.108-6.95-10.373-7.47a12.876 12.876 0 0 0-1.245-.08c-4.785-.092-9.149 1.975-11.117 5.227a7.608 7.608 0 0 0-.796 1.757 6.976 6.976 0 0 0-.282 1.81c-.06 3.357 2.343 6.345 5.923 7.965" fill="#15c0dd"/>
  <path d="M52.642 25.612H45.93a.271.271 0 0 0-.266.27v.46a.271.271 0 0 0 .266.27h2.818v7.525a.271.271 0 0 0 .266.27h.543a.271.271 0 0 0 .266-.27v-7.539h2.817a.271.271 0 0 0 .267-.27v-.46a.271.271 0 0 0-.267-.27m48.207.014h-6.714a.271.271 0 0 0-.266.27v.46a.271.271 0 0 0 .266.27h2.825v7.525a.271.271 0 0 0 .267.27h.542a.271.271 0 0 0 .266-.27v-7.539h2.818a.271.271 0 0 0 .266-.27v-.46a.271.271 0 0 0-.266-.27m-41.58 5.288c1.435-.3 2.363-1.265 2.363-2.62a2.451 2.451 0 0 0-.675-1.776 3.456 3.456 0 0 0-2.473-.87h-3.51a.271.271 0 0 0-.266.27v8.268a.271.271 0 0 0 .266.27h.53a.271.271 0 0 0 .266-.27v-3.146h2.298l2.255 3.298a.271.271 0 0 0 .216.109h.644a.267.267 0 0 0 .24-.149.271.271 0 0 0-.028-.283zm-3.485-.844v-3.446h2.622c1.377 0 2.167.611 2.167 1.687 0 1.148-1.117 1.775-2.342 1.775zm9.402-4.43h-.53a.271.271 0 0 0-.266.27v8.268a.271.271 0 0 0 .266.27h.53a.271.271 0 0 0 .266-.27v-8.28a.271.271 0 0 0-.266-.27m9.739.012h-6.074a.271.271 0 0 0-.267.27v8.268a.271.271 0 0 0 .267.27h.53a.271.271 0 0 0 .266-.27v-3.542h3.729a.271.271 0 0 0 .27-.27v-.446a.271.271 0 0 0-.27-.27h-3.736v-3.036h5.28a.271.271 0 0 0 .27-.27v-.445a.271.271 0 0 0-.27-.27m17.018 6.861a.283.283 0 0 0-.367 0 3.58 3.58 0 0 1-2.605 1.1c-1.853 0-3.3-1.563-3.3-3.553s1.416-3.553 3.3-3.553c.945.005 1.85.376 2.527 1.036a.262.262 0 0 0 .375-.018l.361-.4a.273.273 0 0 0-.018-.386 4.536 4.536 0 0 0-7.653 3.31c0 2.595 1.883 4.552 4.387 4.552a4.434 4.434 0 0 0 3.327-1.38.325.325 0 0 0 .09-.192c.01-.072-.029-.144-.09-.196zm-12.111-6.769a.271.271 0 0 0-.243-.159h-.633a.27.27 0 0 0-.244.16l-3.74 8.33a.275.275 0 0 0 .017.257.271.271 0 0 0 .226.125h.51a.271.271 0 0 0 .243-.16l.924-2.14h4.694l.922 2.14a.27.27 0 0 0 .244.164h.56a.266.266 0 0 0 .226-.125.271.271 0 0 0 .02-.257zm-2.476 5.433 1.897-4.292 1.898 4.292zm28.132-5.433a.268.268 0 0 0-.244-.159h-.632a.27.27 0 0 0-.244.16l-3.741 8.33a.275.275 0 0 0 .018.257.271.271 0 0 0 .226.125h.51a.271.271 0 0 0 .243-.16l.924-2.14h4.694l.922 2.14a.27.27 0 0 0 .244.164h.56a.266.266 0 0 0 .226-.125.271.271 0 0 0 .02-.257zm-2.476 5.433 1.898-4.292 1.897 4.292z" fill="#010101"/>
</svg>
