<svg xmlns="http://www.w3.org/2000/svg" width="64" height="64">
  <path d="M32 64c-1.7-.76-15.306-6.617-19.698-10.27a20.06 20.06 0 0 1-7.237-16.102V5.973C12.536 2.003 21.577 0 32 0s19.417 2.014 26.935 5.973v31.62a20.073 20.073 0 0 1-7.226 16.114c-4.32 3.513-18.082 9.58-19.663 10.27z" fill="#ffb500"/>
  <path d="M42.364 26.654a6.21 6.21 0 0 1 6.277-6.101 8 8 0 0 1 5.129 1.522v4.064a6.275 6.275 0 0 0-4.204-1.91c-1.323 0-2.705.574-2.752 2.237s1.335 2.342 3.08 3.396c3.91 2.342 4.684 4.356 4.58 7.085-.015 1.747-.752 3.4-2.036 4.595s-3.002 1.785-4.744 1.66a10.244 10.244 0 0 1-5.153-1.44v-4.286a7.46 7.46 0 0 0 4.474 1.909 2.482 2.482 0 0 0 2.798-2.612c0-1.464-.867-2.272-2.916-3.513-3.853-2.26-4.556-4.122-4.556-6.617zm-11.336-1.99a4.05 4.05 0 0 1 1.651-.34c2.717 0 3.84 2.167 3.84 7.413s-1.288 7.59-3.982 7.59a4.492 4.492 0 0 1-1.522-.28v-14.38zm0 28.048h-4.684V22.25a11.305 11.305 0 0 1 6.3-1.663c5.586 0 8.654 4.24 8.654 11.055S38.312 43.155 33.1 43.155a7.324 7.324 0 0 1-2.108-.27V52.7zm-21.08-16.97V21.08h4.684v14.873c0 1.323.316 3.29 2.47 3.29a3.91 3.91 0 0 0 2.178-.597V21.08h4.684v20.248a12.438 12.438 0 0 1-7.027 1.874c-4.684 0-7.027-2.506-7.027-7.472zm-2.342 1.885a17.621 17.621 0 0 0 6.324 14.205c3.654 2.986 14.92 8.08 18.093 9.474 3.127-1.382 14.37-6.418 18.082-9.474a17.565 17.565 0 0 0 6.324-14.194v-31c-15.659-1.45-34.173-.56-48.835 12.884v18.105z" fill="#351c15"/>
</svg>
