<svg xmlns="http://www.w3.org/2000/svg" width="120" height="60">
  <path d="M33.246 30a14.77 14.77 0 1 1-29.54 0 14.77 14.77 0 1 1 29.54 0z" fill="#fbb040"/>
  <path d="m12.383 28.782-.96 1.7 4.357 2.215.074.739-3.324-1.07 1.662 2.103.148.665 2.031.923.222.627-.923-.405 2.473 2.879v3.398h.627v-3.398l2.437-2.88-.886.405.185-.627 2.067-.923.111-.665 1.662-2.104-3.287 1.071.074-.739 4.357-2.216-.96-1.7 2.03-2.916-5.686 2.732-.11-.812 1.661-2.733-.221-.444.739-3.175-2.964 3.138-.185-1.735.887-2.622-1.182.405-1.07-3.175-1.035 3.175-1.182-.405.886 2.622-.184 1.735-2.992-3.138.776 3.175-.222.444 1.662 2.733-.11.812-5.723-2.732z" fill="#2d2d2d"/>
  <path d="M103.813 32.581c-1.307 0-1.926-1.175-1.926-2.384 0-1.732.948-2.45 1.926-2.45 1.144 0 1.927.98 1.927 2.45 0 1.536-.915 2.384-1.927 2.384zm-12.155-.326c-2.06 0-3.725-1.798-3.725-4.149 0-2.254 1.667-3.986 3.725-3.986s3.724 1.7 3.724 3.986c-.032 2.351-1.666 4.15-3.724 4.15zm-19.18.294c-1.209 0-2.254-.915-2.254-2.419s1.045-2.45 2.254-2.45 2.255.949 2.255 2.45-1.046 2.419-2.255 2.419zm40.224-5c1.374 0 1.961.981 1.961.981l1.307-2.614s-.948-.98-3.268-.98c-2.124 0-4.018.98-4.248 2.614-.686-1.634-1.307-2.614-3.922-2.614s-2.94 1.307-2.94 1.307v-.98H98.65l-.032 1.045c-.751-3.072-3.334-5.293-6.83-5.293-3.3 0-6.046 1.96-6.96 4.772l.099-.85h-.49c-1.47 0-2.776 1.307-3.104 2.614v-2.287h-3.234v4.868c0-3.136-2.45-5.163-5.588-5.163-3.104 0-5.621 2.06-5.621 5.197 0 .784.229 2.32.065 2.32-.62 0-1.634-.196-1.634-1.307v-3.3h1.96v-2.614h-1.96V22.65h-3.268v2.614h-1.307v.654c-.62-.425-1.927-.98-3.594-.98-2.648-.033-4.248 1.502-4.9 3.3v-2.964h-3.268v10.129h3.268v-3.28c.195 1.373 2.254 3.268 4.9 3.268 2.776 0 4.378-1.7 4.378-1.7l-1.21-2.35s-1.47 1.111-2.842 1.111c-1.667 0-2.352-1.21-2.352-2.385s.785-2.385 2.352-2.385c1.373 0 2.32.98 2.32.98l.948-1.437v.654h1.307v3.594c0 3.366 2.647 3.922 4.248 3.922h.98V32.45c.882 1.798 2.964 2.941 5.228 2.941 3.104 0 5.588-2.124 5.588-5.228l-.033 5.228h3.268l.099-4.05a5.443 5.443 0 0 1 .163-1.373c.49-1.501 1.764-1.731 2.549-1.731h.326c.065 3.986 3.2 7.155 7.32 7.155 3.497 0 6.11-2.385 6.862-5.555v9.148h2.941v-4.574c.033 0 1.34.98 2.941.98 2.648 0 4.574-2.059 4.574-5.228v-.654c1.21 1.7 4.084 1.961 4.084 2.648 0 .326-.49.457-.98.457-1.437 0-2.45-1.144-2.45-1.144l-1.634 2.614s1.765 1.307 4.248 1.307c2.55 0 3.922-1.502 3.922-3.2 0-3.202-4.574-3.202-4.574-3.954 0-.36.49-.687.98-.687zm-63.72-3.595h3.269V21.34h-6.545l-2.32 7.81c-.262.882-.524 2.222-.524 2.222-.032 0-.294-1.373-.555-2.223l-2.483-7.81H36.23l4.9 14.051h3.268l4.574-12.418z" fill="#221f20"/>
</svg>
