<svg xmlns="http://www.w3.org/2000/svg" width="120" height="60">
  <defs>
    <linearGradient id="a" x1="14.329" y1="25.412" x2="25.402" y2="44.586" gradientUnits="userSpaceOnUse">
      <stop offset="0" stop-opacity=".2"/>
      <stop offset=".79" stop-opacity=".05"/>
    </linearGradient>
  </defs>
  <path d="M42.785 24.695h2.66L47.793 30l2.355-5.304h2.66l-5 10.725zm13.328 0h2.4v10.6h-2.4zm5.73 0h2.66L66.813 30l2.348-5.304h2.725L66.813 35.42zm15.405-.115 5.225 10.725h-2.507l-.76-1.68h-3.913l-.76 1.645h-2.514zm1 7.138-1-2.2-1.014 2.2zm7.602-7.023h2.4v8.203h4.123v2.377h-6.52zm11.173 0h3.717a5.306 5.306 0 0 1 4.757 2.592 5.3 5.3 0 0 1 0 5.417 5.303 5.303 0 0 1-4.757 2.592h-3.727zm3.717 8.42a2.99 2.99 0 0 0 2.156-.922c.563-.588.863-1.38.83-2.194a3 3 0 0 0-2.987-3.123h-1.32v6.24zm10.06-8.42h2.4v10.6h-2.4z"/>
  <path d="M21.69 44.88c6.5 0 10.146 0 12.508-2.362S36.569 36.5 36.569 30s0-10.137-2.37-12.5-5.998-2.38-12.508-2.38-10.146 0-12.508 2.38-2.37 5.99-2.37 12.5 0 10.137 2.37 12.5 5.998 2.38 12.508 2.38z" fill="#ef3939"/>
  <path d="M26.235 28.636a8.7 8.7 0 0 0-15.066-.003 8.7 8.7 0 0 0 0 8.698l.05.087 4.087 7.08h3.326a55.23 55.23 0 0 0 5.551-.159c1.848-.203 3.174-.66 4.203-1.68 1.493-1.493 1.775-3.623 1.833-7.087z" fill="url(#a)" transform="translate(-2.298 -12.247) scale(1.28335)"/>
  <path d="M29.529 22.132a11.16 11.16 0 0 0-19.065 7.877 11.16 11.16 0 0 0 19.065 7.877 11.16 11.16 0 0 0 0-15.754zm-.67 5.124-5.515 9.588a1.86 1.86 0 0 1-1.516 1.004 1.76 1.76 0 0 1-1.748-.93l-3.46-5.99-2.11-3.72a1.86 1.86 0 0 1 1.507-2.79c.7-.054 1.37.3 1.702.93l1.544 2.678 1.116 1.925a2.91 2.91 0 0 0 2.437 1.507 2.966 2.966 0 0 0 3.125-2.64v-.307a3.113 3.113 0 0 0-.316-1.386 1.86 1.86 0 0 1 2.157-2.614 1.86 1.86 0 0 1 1.349 1.498c.054.434-.042.873-.27 1.246z" fill="#fff"/>
</svg>
