<svg xmlns="http://www.w3.org/2000/svg" width="120" height="60" viewBox="0 0 120 60" version="1.1">
  <g transform="translate(-193.633 -732.112)">
    <g transform="translate(-10.821 3.115)">
      <path style="stroke-width:.31431133" d="M257.17 747.198h17.287v7.229H264.4v7.229h10.058v7.229H257.17z"/>
      <path style="stroke-width:.31431133" d="M277.915 747.198h17.287v6.286h-10.058v1.257h10.058v14.458h-17.287v-6.6h10.058v-1.257h-10.058z"/>
      <path style="stroke-width:.31431133" d="M298.66 747.198h17.286v6.286h-10.058v1.257h10.058v14.458H298.66v-6.6h10.058v-1.257H298.66z"/>
    </g>
    <g transform="matrix(.604 0 0 .604 83.236 307.268)">
      <path transform="translate(180.514 698.362) scale(.17578)" style="fill:#264de4" d="M404.321 470.819 255.778 512l-148.134-41.123L74.633 100.62h362.734z"/>
      <path transform="translate(180.514 698.362) scale(.17578)" style="fill:#2965f1" d="m256 480.523 120.03-33.277 28.24-316.352H256z"/>
      <path transform="translate(180.514 698.362) scale(.17578)" style="fill:#ebebeb" d="M256 268.217H150.31l4.07 45.41H256z"/>
      <path transform="translate(180.514 698.362) scale(.17578)" style="fill:#ebebeb" d="M255.843 176.305H142.132l4.128 45.411H256v-45.411z"/>
      <path transform="translate(180.514 698.362) scale(.17578)" style="fill:#ebebeb" d="m255.801 386.206-50.574-13.656-3.233-36.217h-45.585l6.362 71.301 93.02 25.823.209-.058v-47.246z"/>
      <path transform="translate(180.514 698.362) scale(.17578)" style="fill:#fff" d="m319.831 221.716-4.132 46.501h-59.856v45.41h55.918l-5.271 58.894-50.647 13.67v47.244l93.094-25.801.683-7.672 10.671-119.551 1.108-12.194 8.198-91.912H255.843v45.411z"/>
    </g>
  </g>
</svg>
