<svg xmlns="http://www.w3.org/2000/svg" viewBox="-231.5 619.2 120 60" width="120" height="60">
  <path d="M-128.958 644.208c.746 0 1.392-.397 1.443-.886l.746-8.405c0-.847-.985-1.493-2.19-1.493-1.242 0-2.188.697-2.188 1.493l.746 8.405c.049.497.697.886 1.443.886m-4.577 2.638c.397-.647.348-1.393-.05-1.691l-6.914-4.825c-.697-.398-1.791.099-2.388 1.144s-.497 2.238.2 2.636l7.66 3.582c.497.15 1.143-.198 1.492-.846m9.104-.001c.398.647 1.044.984 1.493.787l7.66-3.582c.697-.398.847-1.592.199-2.636-.597-1.044-1.691-1.543-2.388-1.144l-6.914 4.825c-.398.348-.448 1.095-.05 1.742m-4.527 7.858c.746 0 1.392.397 1.443.885l.746 8.406c0 .847-.985 1.492-2.19 1.492-1.242 0-2.188-.697-2.188-1.492l.746-8.406c.049-.497.697-.885 1.443-.885m4.527-2.628c.398-.647 1.044-.985 1.493-.788l7.66 3.532c.697.397.847 1.591.199 2.636-.597 1.043-1.691 1.542-2.388 1.143l-6.914-4.825c-.398-.298-.448-1.043-.05-1.69m-9.104.001c.397.647.348 1.393-.05 1.691l-6.914 4.825c-.697.398-1.791-.098-2.388-1.143s-.497-2.239.2-2.636l7.66-3.532c.497-.199 1.143.15 1.492.788" fill="#fdbb30"/>
  <path d="M-165.475 652.976c0 .209 0 .459-.083.625-.25.791-1.083 1.5-2.125 1.5-.885 0-1.582-.5-1.582-1.541 0-1.624 1.791-2.042 3.79-2.042zm3.166-2.791c0-2.658-1.125-5-4.957-5-1.969 0-3.54.54-4.374 1.04l.625 2.125c.791-.5 1.998-.915 3.208-.915 1.969 0 2.25 1.082 2.25 1.791v.167c-4.25 0-6.915 1.457-6.915 4.457 0 1.833 1.375 3.54 3.74 3.54 1.457 0 2.658-.582 3.416-1.5h.083s.5 2.042 3.166 1.25c-.125-.832-.168-1.75-.168-2.832l-.083-4.134m-66.025-8.613 3.208 13.164c.5 2.166 1.457 2.958 4.134 2.417l1.708-7.04 1-4.75h.041c.21 1.792.5 3.052.833 4.791l1.083 4.874c.374 1.667 1.375 2.75 3.999 2.166l4.134-15.58h-3.333l-1.417 6.749-1 5.29h-.042l-.915-5.165-1.457-6.873h-3.47l-1.582 6.707-1.125 5.415h-.041a168.96 168.96 0 0 0-1-5.665l-1.25-6.457-3.5-.042m26.454 11.414c0 .209 0 .459-.084.625-.25.791-1.082 1.5-2.124 1.5-.886 0-1.583-.5-1.583-1.541 0-1.624 1.792-2.042 3.79-2.042zm3.165-2.791c0-2.658-1.125-5-4.957-5-1.968 0-3.54.54-4.374 1.04l.625 2.125c.792-.5 1.998-.915 3.21-.915 1.968 0 2.248 1.082 2.248 1.791v.167c-4.249 0-6.914 1.457-6.914 4.457 0 1.833 1.375 3.54 3.74 3.54 1.457 0 2.657-.582 3.415-1.5h.084s.5 2.042 3.165 1.25c-.125-.832-.167-1.75-.167-2.832v-4.134m5.164 3.677v-12.289h-3.166v15.58h3.166v-3.29m41.457-12.29v11.497c0 1.582.292 2.707.916 3.374.54.583 1.456.958 2.582.958.916 0 1.874-.168 2.292-.335l-.042-2.458c-.334.084-.708.125-1.207.125-1.083 0-1.457-.709-1.457-2.124v-4.415h2.749v-3h-2.75v-3.665h-3.082m-8.207 3.918v11.705h3.248v-5.999c0-.334 0-.625.084-.885.25-1.25 1.208-2.042 2.583-2.042.374 0 .666.041.957.084v-3.083c-.25-.041-.416-.084-.708-.084-1.208 0-2.624.792-3.209 2.458h-.084v-2.208h-2.874m-30.989.054v11.705h3.166v-6.874c0-.334.041-.666.167-.957.25-.709.916-1.5 1.917-1.5 1.291 0 1.874 1.082 1.874 2.657v6.664h3.165v-6.957c0-.292.041-.667.125-.958.25-.791.958-1.417 1.916-1.417 1.292 0 1.917 1.082 1.917 2.915v6.416h3.165v-6.915c0-3.624-1.832-5.082-3.915-5.082a4.36 4.36 0 0 0-2.292.625c-.54.335-1.04.833-1.5 1.457h-.04c-.5-1.25-1.667-2.083-3.21-2.083-1.998 0-2.874 1-3.415 1.874h-.041v-1.582h-3" fill="#1a75cf"/>
</svg>
