<svg xmlns="http://www.w3.org/2000/svg" width="120" height="60">
  <path d="M39.003 32.737c-.291.532-.92.678-1.986.678h-2.228v-6.103c0-.727.145-.824 1.017-.824h.678v-1.017H31.01v1.017h.484c.775 0 1.21.097 1.21.872v5.328c0 .775-.338.872-1.113.872h-.533v1.017h9.397v-3.68H39.39c0 .823-.097 1.404-.387 1.84zm-11.964.678h-2.906v-3.149h.678c1.162 0 1.307.194 1.356 1.793h1.065v-4.602h-1.065c-.097 1.356-.242 1.744-1.405 1.744h-.678v-2.713h2.567c1.84 0 2.325.34 2.422 2.47h1.017v-3.535H16.625v1.017h.63c.532 0 .774.097.774.387 0 .146 0 .388-.096.679l-1.793 4.65h-.096a133.748 133.748 0 0 0-1.89-4.941c-.048-.145-.096-.29-.096-.388 0-.29.193-.387.63-.387h.774v-1.017H10.62v1.017h.63c.774 0 1.017.387 1.113 1.114l-1.792 4.553h-.145a71.261 71.261 0 0 0-1.89-4.94c-.048-.146-.048-.243-.048-.291 0-.29.194-.436.727-.436h.436v-1.017H5v1.017h.194c.678 0 1.114.436 1.453 1.21l2.712 6.879h1.696l1.986-5.086 2.082 5.037h1.647l2.616-6.926c.29-.823.581-1.114 1.308-1.114h.145c.775 0 1.21.097 1.21.823v5.377c0 .775-.435.823-1.21.823h-.533v1.017h9.978V30.8h-1.066c-.145 1.84-.532 2.615-2.18 2.615zm21.748-.678c-.29.532-.92.678-1.986.678h-2.228v-6.103c0-.727.145-.824 1.017-.824h.678v-1.017h-5.473v1.017h.581c.775 0 1.163.097 1.163.872v5.328c0 .775-.34.872-1.163.872h-.145v1.017h9.009v-3.68h-1.066c0 .823-.097 1.404-.387 1.84zm7.314-3.778-1.89-.34c-.871-.145-1.55-.242-1.55-.92 0-.726.727-1.356 1.793-1.404 1.502-.049 3.245.484 3.439 2.276h1.017v-3.197h-.823l-.436.775c-.969-.775-2.277-.92-3.245-.92-2.035 0-3.536 1.114-3.488 2.76.049 1.502.824 2.18 3.148 2.616l1.55.291c1.066.194 2.325.097 2.18 1.26-.097 1.017-1.114 1.356-2.567 1.307-1.647-.097-2.858-.823-3.148-2.567h-1.066v3.633h.92l.29-.969c.292.29 1.696 1.114 3.198 1.114 2.422 0 4.068-.726 4.068-2.81.049-2.179-1.453-2.566-3.39-2.905zm12.206.242h-.727v-2.713h2.277c1.065 0 1.695.097 2.034.63.242.484.388 1.114.388 1.84h1.065v-3.535h-9.348v1.017h.533c.775 0 1.065.097 1.065.823v5.377c0 .775-.29.823-1.065.823h-.533v1.017h5.619v-1.017h-1.066c-.775 0-.92-.097-.92-.823v-2.374h.726c1.114 0 1.308.291 1.308 1.841h.872v-4.553h-.823c-.097 1.453-.243 1.647-1.405 1.647zm24.073 2.712c.048 1.066 0 1.502-.533 1.502-.29 0-.484-.242-.533-.775v-.581c-.096-1.211-.29-1.793-1.937-2.18 1.744-.242 2.76-1.017 2.76-2.325 0-1.453-1.065-2.18-3.39-2.18H82.5v1.017h.726c.775 0 .92.097.92.824v5.376c0 .678-.435.872-.968.872h-.63c-.532 0-.823-.194-1.065-.872l-2.907-7.168h-2.228l-3.051 7.168c-.29.63-.484.872-1.211.872h-.436v1.017h4.747v-1.017h-.969c-.484 0-.726 0-.726-.29 0-.097.048-.243.096-.436l.436-1.114h3.536l.388 1.065a.92.92 0 0 1 .145.436c0 .29-.242.388-.775.388h-.969v1.017h10.317v-1.017h-.823c-.775 0-.92-.097-.92-.824v-2.422h.92c1.55 0 2.083.291 2.131 1.841l.049 1.066c.048 1.259.871 1.598 2.13 1.598 1.115 0 1.841-.678 1.841-2.325v-.484h-.823zm-16.614-1.356 1.356-3.487 1.405 3.487zm12.4-1.356H86.18V26.44h1.938c1.307 0 1.889.29 1.889 1.356.048 1.017-.582 1.405-1.841 1.405zm11.189 1.55h.436c.872 0 1.017 0 1.017.63v.484c0 1.065-1.114 1.647-2.325 1.647-1.695 0-2.616-1.308-2.616-3.633s1.163-3.536 2.616-3.536c1.502 0 2.422.63 2.858 1.986h.92v-3.052h-.726l-.485.92c-.678-.726-1.84-.968-2.906-.968-1.26 0-2.422.436-3.197 1.21-.92.921-1.356 2.035-1.356 3.44s.484 2.615 1.405 3.536c.823.872 1.889 1.308 3.148 1.308 1.066 0 2.276-.291 3.1-.97l.484.776h.727v-3.052c0-.775.097-.726.775-.726h.339v-1.066h-4.214zm10.317-5.522c-3.003 0-5.328 1.84-5.328 4.698s2.325 4.747 5.376 4.747c3.003 0 5.28-1.889 5.28-4.747-.048-2.857-2.325-4.698-5.328-4.698zm3.051 4.747c0 2.373-1.307 3.633-3.051 3.633-1.792 0-3.1-1.26-3.1-3.633s1.356-3.633 3.1-3.633 3.051 1.26 3.051 3.633z" fill="#fcb827"/>
</svg>
