<svg xmlns="http://www.w3.org/2000/svg" width="64" height="64" preserveAspectRatio="xMidYMid">
  <defs>
    <linearGradient x1="55.995" y1="21.402" x2="55.995" y2="135.011" id="a" gradientUnits="userSpaceOnUse">
      <stop stop-color="#ffe513" offset=".562%"/>
      <stop stop-color="#fdb924" offset="100%"/>
    </linearGradient>
    <linearGradient x1="5.814" y1="43.409" x2="117.212" y2="132.87" id="b" gradientUnits="userSpaceOnUse">
      <stop stop-color="#008cd2" offset=".562%"/>
      <stop stop-color="#00649d" offset="100%"/>
    </linearGradient>
    <linearGradient x1="75.602" y1="73.54" x2="75.602" y2="173.074" id="c" gradientUnits="userSpaceOnUse">
      <stop stop-color="#26a146" offset="0%"/>
      <stop stop-color="#008a52" offset="100%"/>
    </linearGradient>
    <linearGradient x1="54.23" y1="48.781" x2="71.354" y2="152.129" id="d" gradientUnits="userSpaceOnUse">
      <stop stop-color="#d92231" offset="0%"/>
      <stop stop-color="#ba2234" offset="100%"/>
    </linearGradient>
  </defs>
  <path d="M64 25.675V40.85l-2.1 2.05V28.05z" fill="#e79225"/>
  <path d="m50.237 25.688-2.175 2.362.113.15 13.637-.05.126-.1L64 25.675z" fill="#fff16d"/>
  <path d="M.5 19.7h111v118.9H.5z" fill="url(#a)" transform="matrix(.125 0 0 .125 48 25.587)"/>
  <path d="M59.825 33.4a5.496 5.496 0 0 0-1.225-1.85 5.07 5.07 0 0 0-1.738-1.188c-.637-.262-1.324-.4-2.074-.4s-1.45.138-2.088.4a5.07 5.07 0 0 0-1.738 1.188c-.537.537-.937 1.162-1.212 1.85s-.4 1.438-.4 2.263c0 .8.138 1.55.413 2.25a5.561 5.561 0 0 0 1.212 1.875c.5.512 1.075.9 1.713 1.162s1.35.4 2.112.4a5.292 5.292 0 0 0 3.8-1.563c.537-.55.95-1.175 1.225-1.862s.412-1.45.412-2.25c0-.837-.137-1.587-.412-2.275zm-2.862 4.9c-.538.637-1.25.963-2.175.963s-1.65-.326-2.188-.963-.8-1.525-.8-2.65c0-1.15.275-2.038.8-2.688.538-.65 1.25-.962 2.188-.962.925 0 1.637.325 2.175.963.525.65.8 1.537.8 2.687 0 1.125-.263 2.013-.8 2.65z" fill="#fff"/>
  <path d="M46.7 24.438v.075l1.775 13.637-1.038 2.875-.137-.1-1.825-13.075.037-.175 1.138-3.163z" fill="#009ada"/>
  <path d="m33.038 26.337 13.662-1.9-1.15 3.275-.162.175-12.775 1.875.062-2.337z" fill="#91c9ed"/>
  <path d="m107.4 27 15.1 106.5-107.7 15.1L.3 45.7l6.3-4.9z" fill="url(#b)" transform="matrix(.125 0 0 .125 32.125 24.337)"/>
  <path d="M43.263 30.262c-.063-.412-.2-.725-.425-.937a1.001 1.001 0 0 0-.675-.25c-.063 0-.138 0-.213.013-.35.05-.612.212-.775.474-.125.188-.175.425-.175.7 0 .1.013.213.025.325l.488 3.463-3.875.575-.488-3.462c-.062-.4-.2-.713-.425-.925a.946.946 0 0 0-.662-.263c-.063 0-.125 0-.188.013-.362.05-.637.212-.812.475-.125.187-.175.425-.175.7 0 .1.012.212.025.337l1.325 9.012c.062.413.2.726.45.938.187.163.412.237.687.237.075 0 .15 0 .225-.012.338-.05.588-.212.75-.475.113-.188.163-.413.163-.675 0-.1-.013-.212-.025-.325l-.538-3.563 3.875-.575.538 3.563c.062.412.2.725.437.925.188.162.413.25.675.25.063 0 .138 0 .213-.013.35-.05.612-.212.775-.475.112-.187.175-.412.175-.687 0-.1-.013-.213-.025-.325z" fill="#fff"/>
  <path d="m20.25 20.962-4.862 11.55.662 5.076.037-.013 5.463-12.287-.025-.263-1.175-3.9z" fill="#66bf6b"/>
  <path d="m20.25 20.962 1.288 4.325 12.025 5.388.037-.025-1.025-4.05z" fill="#98d0a0"/>
  <path d="m49.1 33.9 96.7 43.6-43.7 99.1L5.4 133z" fill="url(#c)" transform="matrix(.125 0 0 .125 15.375 20.962)"/>
  <path d="M29.938 31.65c-.263-.7-.625-1.3-1.1-1.8s-1.05-.9-1.726-1.188-1.35-.425-2.037-.425h-.038c-.7 0-1.387.163-2.062.463a5.514 5.514 0 0 0-1.85 1.3c-.525.55-.95 1.225-1.275 2a6.692 6.692 0 0 0-.538 2.3v.263c0 .674.113 1.337.35 1.987.25.688.613 1.275 1.088 1.775s1.062.9 1.762 1.187a5.034 5.034 0 0 0 2.025.425h.013c.687 0 1.375-.15 2.05-.437a5.599 5.599 0 0 0 1.862-1.313c.525-.55.963-1.212 1.288-1.987s.5-1.538.537-2.3v-.225a5.403 5.403 0 0 0-.35-2.025zm-2.413 3.6c-.45 1.075-1.063 1.813-1.8 2.212a2.6 2.6 0 0 1-1.225.325c-.363 0-.75-.087-1.138-.25-.85-.362-1.375-.937-1.6-1.762a3.264 3.264 0 0 1-.112-.863c0-.6.15-1.262.45-1.974.462-1.1 1.075-1.85 1.812-2.263.4-.225.813-.325 1.225-.325.375 0 .75.087 1.15.25.838.362 1.363.938 1.588 1.762.075.263.112.55.112.85 0 .626-.15 1.3-.462 2.038z" fill="#fff"/>
  <path d="M14.425 22.925 16.4 36.15l-.9 4.65-.125-.163-1.925-12.775v-.25l.85-4.462z" fill="#760d16"/>
  <path d="m0 29.762.938-4.675 13.487-2.162-.912 4.762V28L.163 29.887z" fill="#ef463e"/>
  <path d="M108.1 38.8 124 143.7 17.2 160.4 0 55.4z" fill="url(#d)" transform="matrix(.125 0 0 .125 0 22.837)"/>
  <path d="M12.075 38.712c-.1-.125-.25-.212-.425-.275s-.388-.087-.65-.087c-.238 0-.513.025-.813.075l-3.525.6c.038-.275.175-.625.413-1.062.262-.488.662-1.075 1.175-1.75a16.636 16.636 0 0 1 .412-.538c.063-.087.163-.2.288-.362.812-1.063 1.3-1.925 1.5-2.6a5.43 5.43 0 0 0 .2-1.163c.012-.112.012-.212.012-.312 0-.275-.025-.55-.075-.825-.037-.25-.1-.45-.187-.613s-.188-.287-.313-.362c-.137-.088-.35-.125-.612-.125a5.14 5.14 0 0 0-.788.075l-4.074.7c-.488.087-.863.224-1.088.45a.86.86 0 0 0-.275.65c0 .062 0 .137.013.212.062.35.237.6.525.725.175.075.375.112.625.112.162 0 .35-.012.55-.05l3.4-.6c0 .063.012.125.012.175a1.782 1.782 0 0 1-.113.625c-.1.288-.35.688-.762 1.2l-.525.65C6.05 35.35 5.4 36.3 5 37.088a6.154 6.154 0 0 0-.588 1.613c-.062.313-.1.6-.1.887 0 .2.013.4.05.588.05.275.113.5.2.675s.213.313.35.388.325.1.6.1c.338 0 .8-.05 1.388-.15l3.7-.638c.65-.112 1.112-.275 1.375-.487a.865.865 0 0 0 .325-.688c0-.075-.013-.15-.025-.225a.828.828 0 0 0-.2-.437z" fill="#fff"/>
</svg>
