<svg xmlns="http://www.w3.org/2000/svg" class="icon icon-tabler icon-tabler-color-swatch-off" width="24" height="24" stroke-width="2" stroke="currentColor" fill="none" stroke-linecap="round" stroke-linejoin="round"><path d="M0 0h24v24H0z" stroke="none"/><path d="M13 13v4a4 4 0 0 0 6.832 2.825M21 17V5a2 2 0 0 0-2-2h-4a2 2 0 0 0-2 2v4"/><path d="m13 7.35-2-2a2 2 0 0 0-2.11-.461M6.76 6.763 5.344 8.178a2 2 0 0 0 0 2.828l9 9"/><path d="M7.3 13H5a2 2 0 0 0-2 2v4a2 2 0 0 0 2 2h12M17 17v.01M3 3l18 18"/></svg>