<svg xmlns="http://www.w3.org/2000/svg" viewBox="0 0 22 22" height="1em" width="1em">
  <path d="M12.49 13.372 7.777 8.658c-.85-.851-2.33-.85-3.178 0L2 11.257V6c0-1.654 1.346-3 3-3h10c1.654 0 3 1.346 3 3v3a1 1 0 1 0 2 0V6c0-2.757-2.243-5-5-5H5C2.243 1 0 3.243 0 6v8c0 2.757 2.243 5 5 5h4a1 1 0 1 0 0-2H5a3.002 3.002 0 0 1-2.999-2.986c.071-.041.145-.076.206-.136l3.806-3.806c.12-.117.228-.12.35 0l4.713 4.714a.997.997 0 0 0 1.414 0 1 1 0 0 0 0-1.414Z" fill="var(--iconFill, #464646)"/>
  <circle cx="14.5" cy="6.5" r="1.5" fill="var(--iconFill, #464646)"/>
  <path d="M21 16h-3v-3a1 1 0 1 0-2 0v3h-3a1 1 0 1 0 0 2h3v3a1 1 0 1 0 2 0v-3h3a1 1 0 1 0 0-2Z" fill="var(--iconFill, #464646)"/>
</svg>
