<svg xmlns="http://www.w3.org/2000/svg" viewBox="0 0 22 22" height="1em" width="1em">
  <path d="M8.5 12a1 1 0 0 0-1-1c-3.138 0-6.042 1.79-7.398 4.56a1 1 0 0 0 1.797.88C2.92 14.35 5.12 13 7.5 13a1 1 0 0 0 1-1ZM7 10a1 1 0 1 0 0-2C5.346 8 4 6.654 4 5s1.346-3 3-3c1.078 0 2.08.583 2.611 1.522a1 1 0 1 0 1.74-.986A5.013 5.013 0 0 0 7 0C4.243 0 2 2.243 2 5s2.243 5 5 5ZM15 15c-2.938 0-5.651 1.8-6.911 4.588a1 1 0 0 0 1.822.824C10.85 18.34 12.846 17 15 17s4.152 1.339 5.089 3.411a.999.999 0 1 0 1.822-.824C20.651 16.8 17.938 15 15 15ZM10 9c0 2.757 2.243 5 5 5s5-2.243 5-5-2.243-5-5-5-5 2.243-5 5Zm5-3c1.654 0 3 1.346 3 3s-1.346 3-3 3-3-1.346-3-3 1.346-3 3-3Z" fill="var(--iconFill, #464646)"/>
</svg>
