<svg xmlns="http://www.w3.org/2000/svg" width="512" height="512"><path d="M370 378c28.89 23.52 46 46.07 46 86M142 378c-28.89 23.52-46 46.06-46 86M384 208c28.89-23.52 32-56.07 32-96M128 206c-28.89-23.52-32-54.06-32-94M464 288.13h-80M128 288.13H48M256 192v256" style="fill:none;stroke:#000;stroke-linecap:round;stroke-linejoin:round;stroke-width:32px"/><path d="M256 448h0c-70.4 0-128-57.6-128-128v-96.07c0-65.07 57.6-96 128-96h0c70.4 0 128 25.6 128 96V320c0 70.4-57.6 128-128 128Z" style="fill:none;stroke:#000;stroke-linecap:round;stroke-linejoin:round;stroke-width:32px"/><path d="M179.43 143.52a49.08 49.08 0 0 1-3.43-15.73A80 80 0 0 1 255.79 48h.42A80 80 0 0 1 336 127.79a41.91 41.91 0 0 1-3.12 14.3" style="fill:none;stroke:#000;stroke-linecap:round;stroke-linejoin:round;stroke-width:32px"/></svg>