<svg xmlns="http://www.w3.org/2000/svg" viewBox="0 0 32 32" height="1em" width="1em">
  <path d="m5.594 7-.313.281S2 10.601 2 16c0 5.398 3.281 8.719 3.281 8.719l.313.281h20.812l.313-.281S30 21.399 30 16c0-5.398-3.281-8.719-3.281-8.719L26.406 7Zm.937 2H25.47c.336.355 2.531 2.73 2.531 7s-2.195 6.645-2.531 7H6.53C6.195 22.645 4 20.27 4 16s2.195-6.645 2.531-7Zm3.844 3-4 8h2.25l.5-1H11v1h2c2.2 0 4-1.8 4-4s-1.8-4-4-4Zm5.594 0A4.976 4.976 0 0 1 18 16c0 1.64-.805 3.09-2.031 4h2.781A6.953 6.953 0 0 0 20 16a6.953 6.953 0 0 0-1.25-4Zm3.937 0A7.96 7.96 0 0 1 21 16a7.96 7.96 0 0 1-1.094 4h2.25A9.982 9.982 0 0 0 23 16a9.916 9.916 0 0 0-.844-4Zm3.344 0a10.9 10.9 0 0 1 .75 4 10.9 10.9 0 0 1-.75 4h2.125A12.91 12.91 0 0 0 26 16a12.91 12.91 0 0 0-.625-4ZM13 14c1.117 0 2 .883 2 2s-.883 2-2 2Zm-2 1.25V17h-.875Z"/>
</svg>
