<svg xmlns="http://www.w3.org/2000/svg" viewBox="0 0 32 32" height="1em" width="1em">
  <path d="m16 1.25-.813 1.188s-.539.753-1.062 1.656c-.262.453-.508.926-.719 1.406-.21.48-.406.922-.406 1.5 0 1.645 1.355 3 3 3s3-1.355 3-3c0-.578-.195-1.02-.406-1.5-.211-.48-.457-.953-.719-1.406-.523-.903-1.063-1.657-1.063-1.657ZM16 10h-3v4H7c-2.21 0-4 1.79-4 4a4 4 0 0 0 1 2.656V28h24v-7.344A4 4 0 0 0 29 18c0-2.21-1.79-4-4-4h-6v-4Zm0-5.125c.066.11.059.102.125.219.238.41.492.847.656 1.218.164.372.219.715.219.688 0 .555-.445 1-1 1-.555 0-1-.445-1-1 0 .027.055-.316.219-.688.164-.37.418-.808.656-1.218.066-.117.059-.11.125-.219ZM15 12h2v2h-2Zm-8 4h18c1.191 0 2 .809 2 2 0 1.191-.809 2-2 2-1.191 0-2-.809-2-2h-2c0 1.191-.809 2-2 2-1.191 0-2-.809-2-2h-2c0 1.191-.809 2-2 2-1.191 0-2-.809-2-2H9c0 1.191-.809 2-2 2-1.191 0-2-.809-2-2 0-1.191.809-2 2-2Zm3 4.656A3.99 3.99 0 0 0 13 22a3.99 3.99 0 0 0 3-1.344A3.99 3.99 0 0 0 19 22a3.99 3.99 0 0 0 3-1.344A3.99 3.99 0 0 0 25 22c.348 0 .68-.074 1-.156V26H6v-4.156c.32.082.652.156 1 .156a3.99 3.99 0 0 0 3-1.344Z"/>
</svg>
