<svg xmlns="http://www.w3.org/2000/svg" viewBox="0 0 32 32" height="1em" width="1em">
  <path d="m10.406 5.938-1.656.03c-3.742.137-6.75 3.227-6.75 7a6.987 6.987 0 0 0 2.688 5.5A5.028 5.028 0 0 0 4 21c0 2.758 2.242 5 5 5h1.16c.18-.63.5-1.32.87-2H9c-1.652 0-3-1.348-3-3s1.348-3 3-3h1v-1c0-1.102.895-1.996 1.906-2l1 .063.188-.844C13.469 12.359 15.102 11 17 11c1.605 0 3.055.96 3.688 2.438l.28.689.905-.096c.044-.009.08-.031.127-.031 1.652 0 2.996 1.351 3 2.938l-.031.968.781.19A2.993 2.993 0 0 1 28 21c0 1.652-1.348 3-3 3h-1c0 .73-.22 1.41-.56 2H25c2.758 0 5-2.242 5-5 0-2.02-1.211-3.82-3.031-4.594-.281-2.418-2.314-4.309-4.782-4.406A5.968 5.968 0 0 0 17 9a6.013 6.013 0 0 0-5.375 3.344c-1.328-.547-2.281-1.836-2.281-3.375 0-.56.117-1.082.344-1.563l.718-1.468zM7.5 8.313c-.027.23-.156.417-.156.656 0 1.953.988 3.663 2.5 4.687-.848.554-1.512 1.422-1.75 2.438A4.95 4.95 0 0 0 6.031 17 5.026 5.026 0 0 1 4 12.969c0-2.238 1.484-4.012 3.5-4.656zM20 20s-2 2.895-2 4a2 2 0 0 0 2 2c.137 0 .277-.004.406-.031A2.01 2.01 0 0 0 22 24c0-1.105-2-4-2-4zm-6 3s-.285.453-.625 1c-.125.199-.242.363-.375.594-.18.313-.344.616-.5.937-.078.16-.156.318-.219.471-.164.386-.281.744-.281.998a2 2 0 1 0 4 0c0-.254-.117-.613-.281-1-.016-.031-.016-.059-.031-.094-.056-.12-.124-.25-.186-.375A17.705 17.705 0 0 0 14.627 24c-.341-.547-.627-1-.627-1z"/>
</svg>
