<svg xmlns="http://www.w3.org/2000/svg" viewBox="0 0 32 32" height="1em" width="1em">
  <path d="M16 2.969C8.812 2.969 2.969 8.813 2.969 16c0 .988.101 1.95.312 2.875C5.977 11.859 11.421 5.973 18.72 3.25A12.996 12.996 0 0 0 16 2.969Zm7.375 2.312C19.879 6.293 9.457 10.336 5.281 23.406a13.19 13.19 0 0 0 2.594 2.782c4.488-13.56 14.754-17.356 18.313-18.282a13.198 13.198 0 0 0-2.813-2.625Zm4.594 5.594c-11.586 3.727-15.813 13.45-17.032 17.094a13.08 13.08 0 0 0 3.313.906c1.227-3.09 5.137-10.82 14.625-14.688a12.87 12.87 0 0 0-.906-3.312Zm.906 6.969c-1.2.597-3.168 1.808-5.844 4.312-3.039 2.848-4.457 5.305-5.062 6.688a12.996 12.996 0 0 0 4.812-1.75L29 29s-1.234-4.598-1.844-6.344a12.932 12.932 0 0 0 1.719-4.812Z"/>
</svg>
