<svg xmlns="http://www.w3.org/2000/svg" viewBox="0 0 32 32" height="1em" width="1em">
  <path d="M21.12 5.002a.521.521 0 0 0-.516.293.53.53 0 0 0 .212.691 10.114 10.114 0 0 1 5.141 8.84c0 4.27-2.615 7.92-6.31 9.399v-4.22a1.62 1.62 0 0 0 1.124-1.532c0-.6-.307-1.117-.78-1.397.374-3.638 2.007-2.68 2.007-3.838v-.674c0-1.739-3.967-7.403-5.822-7.535a2.191 2.191 0 0 0-.344 0c-1.86.137-5.826 5.797-5.826 7.535v.678c0 1.158 1.64.196 2.01 3.838a1.594 1.594 0 0 0-.782 1.397c0 .723.479 1.327 1.12 1.533v4.219c-3.697-1.473-6.311-5.125-6.311-9.399 0-3.802 2.076-7.115 5.14-8.84a.527.527 0 0 0 .213-.691.517.517 0 0 0-.718-.229A11.17 11.17 0 0 0 5 14.83c0 5.248 3.575 9.647 8.39 10.836v-4.76c.344.114.684.211 1.04.285v5.66c-5.86-.776-10.393-5.862-10.393-12.02 0-1.502.272-2.941.764-4.268a.525.525 0 0 0-.283-.668.516.516 0 0 0-.692.3A13.329 13.329 0 0 0 3 14.83C3 21.927 8.535 27.716 15.473 28v-6.676c.307.018.675.023 1.054 0v6.67C23.465 27.715 29 21.927 29 14.83a13.37 13.37 0 0 0-.826-4.639.52.52 0 1 0-.975.366 12.27 12.27 0 0 1 .764 4.27c0 6.158-4.529 11.243-10.393 12.02v-5.66a7.278 7.278 0 0 0 1.04-.285v4.76C23.424 24.477 27 20.075 27 14.826a11.17 11.17 0 0 0-5.678-9.76.508.508 0 0 0-.203-.064zm-8.274 12.389c.59 0 1.068.485 1.068 1.084 0 .594-.472 1.084-1.068 1.084-.596 0-1.07-.49-1.07-1.084 0-.594.474-1.084 1.07-1.084zm6.308.002c.587 0 1.07.48 1.07 1.084 0 .599-.478 1.084-1.07 1.084-.587 0-1.068-.48-1.068-1.084 0-.6.477-1.084 1.068-1.084z"/>
</svg>
