<svg xmlns="http://www.w3.org/2000/svg" viewBox="0 0 32 32" height="1em" width="1em">
  <path d="M7.75 3c-.074-.008-.14.027-.219.031-.066.004-.12-.011-.187 0h-.125c-.11.024-.215.067-.313.125a.958.958 0 0 0-.281.219C6.235 3.703 6 4.211 6 4.688v22.78c0 .493.219 1.087.75 1.376.04.02.086.015.125.031a1.626 1.626 0 0 0 1.438-.125h.03L17.75 23l4.781-2.875s4.055-2.453 4.594-2.781c.457-.278.883-.805.875-1.438-.008-.633-.445-1.101-.875-1.344-.137-.078-1.34-.8-2.438-1.468-1.05-.64-1.972-1.196-2.062-1.25a1.302 1.302 0 0 0-.094-.063L17.75 8.875s-8.7-5.277-9.219-5.594A2.018 2.018 0 0 0 7.75 3ZM8 6.094l9.438 9.843L8 25.782Zm4.813 2.125a2263.5 2263.5 0 0 1 3.906 2.375l3.687 2.25-1.593 1.656Zm9.343 5.687c.383.235.735.442 1.5.906.836.508 1.418.833 1.907 1.126-.918.554-2.66 1.628-3.375 2.062l-1.97-2.063Zm-3.343 3.5 1.593 1.657-3.687 2.25s-2.192 1.316-3.938 2.375Z"/>
</svg>
