<svg xmlns="http://www.w3.org/2000/svg" viewBox="0 0 32 32" height="1em" width="1em">
  <path d="M6.023 8.688a2.677 2.677 0 0 1 5.316-.434 4.425 4.425 0 0 1 4.15 1.18l.152.156-1.973 1.973-.152-.157a1.638 1.638 0 0 0-2.32.004 1.637 1.637 0 0 0-.005 2.32l4.45 4.45-1.973 1.972-2.09-2.09-1.976-1.972-.383-.387a4.418 4.418 0 0 1-1.11-4.406 2.673 2.673 0 0 1-2.086-2.61Zm5.79 5.195 1.972 1.976 2.09-2.086 2.36-2.359a1.637 1.637 0 0 1 2.32-.004c.64.64.64 1.68 0 2.32l-.153.153 1.973 1.976.152-.156a4.415 4.415 0 0 0 1.125-4.36 2.678 2.678 0 0 0-.351-5.331 2.675 2.675 0 0 0-2.649 2.308 4.44 4.44 0 0 0-4.386 1.117l-.387.387-1.977 1.973Zm11.886 6.781a4.415 4.415 0 0 0-1.172-4.184l-.386-.39-1.973-1.973-2.082-2.086-1.977 1.973 2.086 2.09 2.36 2.36a1.637 1.637 0 1 1-2.316 2.316l-.153-.149-1.973 1.977.149.148a4.426 4.426 0 0 0 4.441 1.102 2.677 2.677 0 0 0 2.621 2.144 2.677 2.677 0 0 0 .375-5.328Zm-3.765-2.363-1.973-1.977-2.086 2.086-1.973 1.977-.386.386a1.643 1.643 0 0 1-2.325-.003 1.64 1.64 0 0 1 0-2.32l.153-.15-1.973-1.976-.152.153a4.418 4.418 0 0 0-1.16 4.23 2.678 2.678 0 0 0 .617 5.281 2.684 2.684 0 0 0 2.61-2.078 4.418 4.418 0 0 0 4.202-1.164l.39-.387 1.974-1.976Z"/>
</svg>
