<svg xmlns="http://www.w3.org/2000/svg" viewBox="0 0 32 32" height="1em" width="1em">
  <path d="M9.625 5C7.09 5 5 7.09 5 9.625v12.75C5 24.91 7.09 27 9.625 27h12.75C24.91 27 27 24.91 27 22.375V9.625C27 7.09 24.91 5 22.375 5Zm0 2h12.75A2.62 2.62 0 0 1 25 9.625v12.75A2.62 2.62 0 0 1 22.375 25H9.625A2.62 2.62 0 0 1 7 22.375V9.625A2.62 2.62 0 0 1 9.625 7ZM16 9.219c-4.016 0-7.281 2.648-7.281 5.906 0 2.922 2.594 5.352 6.094 5.813.238.05.542.171.624.375.075.183.055.468.032.656 0 0-.074.515-.094.625-.031.183-.152.734.625.406.777-.328 4.191-2.492 5.719-4.25 1.054-1.156 1.562-2.32 1.562-3.625 0-3.258-3.265-5.906-7.281-5.906Zm-4.281 4.187a.37.37 0 0 1 .375.375v2.5h1.062c.211 0 .375.196.375.407a.37.37 0 0 1-.375.375H11.72c-.211 0-.406-.165-.406-.375V13.78c0-.21.195-.375.406-.375Zm2.562 0a.37.37 0 0 1 .375.375v2.906a.37.37 0 0 1-.375.375c-.21 0-.406-.164-.406-.375v-2.906c0-.21.195-.375.406-.375Zm1.188 0c.039-.011.086 0 .125 0a.34.34 0 0 1 .281.156l1.5 2v-1.78a.37.37 0 0 1 .375-.376.37.37 0 0 1 .375.375v2.906a.348.348 0 0 1-.25.344c-.04.012-.086.032-.125.032a.396.396 0 0 1-.313-.157l-1.468-2.031v1.813a.37.37 0 0 1-.375.375c-.211 0-.406-.165-.406-.375V13.78c0-.164.124-.324.28-.375Zm3.562 0h1.438a.37.37 0 0 1 .375.375.37.37 0 0 1-.375.375h-1.063v.688h1.063a.37.37 0 0 1 .375.375c0 .21-.164.406-.375.406h-1.063v.656h1.063c.21 0 .375.196.375.407a.37.37 0 0 1-.375.375H19.03a.37.37 0 0 1-.375-.375V13.78a.37.37 0 0 1 .375-.375Z"/>
</svg>
