<svg xmlns="http://www.w3.org/2000/svg" viewBox="0 0 32 32" height="1em" width="1em">
  <path d="M2 8v11a3 3 0 0 0 3 3h2.063A3.486 3.486 0 0 1 6 19.5V8H2zm20.5 0a5.5 5.5 0 0 0-5.5 5.5V22a4 4 0 0 0 4-4h2v-4h-2v-.5a1.5 1.5 0 0 1 3 0V17a5 5 0 0 0 5 5h1v-4a2 2 0 0 1-2-2h2v-4h-2.213A5.499 5.499 0 0 0 22.5 8zM7 12v7c0 1.65 1.35 3 3 3h.5c.709 0 1.367-.214 1.918-.576-.131.197-.28.382-.447.547A3.467 3.467 0 0 1 9.5 23c-.54 0-1.05-.12-1.5-.35v2.93c.61.27 1.29.42 2 .42h1c2.75 0 5-2.25 5-5v-9h-4v5.5c0 .275-.225.5-.5.5a.501.501 0 0 1-.5-.5V12H7z"/>
</svg>
