<svg xmlns="http://www.w3.org/2000/svg" viewBox="0 0 32 32" height="1em" width="1em">
  <path d="M8 3C6.355 3 5 4.355 5 6v20c0 1.645 1.355 3 3 3h19V3Zm0 2h17v18H8a2.95 2.95 0 0 0-1 .188V6c0-.566.434-1 1-1Zm0 1v16h16V6Zm2 2h12v12H10Zm6 1c-.55 0-1 .45-1 1s.45 1 1 1 1-.45 1-1-.45-1-1-1Zm0 2h-3v6h6v-6Zm3 3c0 .55.45 1 1 1s1-.45 1-1-.45-1-1-1-1 .45-1 1Zm-3 3c-.55 0-1 .45-1 1s.45 1 1 1 1-.45 1-1-.45-1-1-1Zm-3-3c0-.55-.45-1-1-1s-1 .45-1 1 .45 1 1 1 1-.45 1-1Zm2-1h2v2h-2ZM8 25h17v2H8c-.566 0-1-.434-1-1 0-.566.434-1 1-1Z"/>
</svg>
