<svg xmlns="http://www.w3.org/2000/svg" viewBox="0 0 32 32" height="1em" width="1em">
  <path d="M16 4C9.383 4 4 9.383 4 16s5.383 12 12 12 12-5.383 12-12S22.617 4 16 4Zm0 2c5.535 0 10 4.465 10 10s-4.465 10-10 10S6 21.535 6 16 10.465 6 16 6Zm5.531 3.063-1.906 1.874 1.438 1.438 1.875-1.906ZM16 11c-2.75 0-5 2.25-5 5s2.25 5 5 5 5-2.25 5-5-2.25-5-5-5Zm0 2c1.668 0 3 1.332 3 3s-1.332 3-3 3-3-1.332-3-3 1.332-3 3-3Zm0 2c-.55 0-1 .45-1 1s.45 1 1 1 1-.45 1-1-.45-1-1-1Zm-5.063 4.625-1.874 1.906 1.406 1.407 1.906-1.875Z"/>
</svg>
