<svg xmlns="http://www.w3.org/2000/svg" viewBox="0 0 32 32" height="1em" width="1em">
  <path d="M5 7c-.55 0-1 .45-1 1s.45 1 1 1h2.219l2.625 10.5c.222.89 1.02 1.5 1.937 1.5H23.25c.902 0 1.668-.598 1.906-1.469L27.75 10H11l.5 2h13.656l-1.906 7H11.781L9.156 8.5A1.983 1.983 0 0 0 7.22 7Zm17 14c-1.645 0-3 1.355-3 3s1.355 3 3 3 3-1.355 3-3-1.355-3-3-3Zm-9 0c-1.645 0-3 1.355-3 3s1.355 3 3 3 3-1.355 3-3-1.355-3-3-3Zm0 2c.563 0 1 .438 1 1 0 .563-.438 1-1 1-.563 0-1-.438-1-1 0-.563.438-1 1-1Zm9 0c.563 0 1 .438 1 1 0 .563-.438 1-1 1-.563 0-1-.438-1-1 0-.563.438-1 1-1Z"/>
</svg>
