<svg xmlns="http://www.w3.org/2000/svg" viewBox="0 0 32 32" height="1em" width="1em">
  <path d="M12 2v6h2v1.063C9.898 9.5 8.125 12.53 8.125 12.53L8 12.75V30h14V12.75l-.125-.219S20.102 9.5 16 9.062V8h2V2Zm12 0c-.55 0-1 .45-1 1s.45 1 1 1 1-.45 1-1-.45-1-1-1ZM14 4h2v2h-2Zm7 0c-.55 0-1 .45-1 1s.45 1 1 1 1-.45 1-1-.45-1-1-1Zm3 2c-.55 0-1 .45-1 1s.45 1 1 1 1-.45 1-1-.45-1-1-1Zm-9 5c1.738 0 2.91.48 3.688 1h-7.375c.777-.52 1.949-1 3.687-1Zm-5 3h10v14H10Zm5 4c-1.645 0-3 1.355-3 3s1.355 3 3 3 3-1.355 3-3-1.355-3-3-3Zm0 2c.563 0 1 .438 1 1 0 .563-.438 1-1 1-.563 0-1-.438-1-1 0-.563.438-1 1-1Z"/>
</svg>
