<svg xmlns="http://www.w3.org/2000/svg" viewBox="0 0 32 32" height="1em" width="1em">
  <path d="M21.75 4a6.286 6.286 0 0 0-4.438 1.844l-1.468 1.468a6.218 6.218 0 0 0-1.781 3.625l2 .25A4.188 4.188 0 0 1 17.25 8.72l1.469-1.469a4.253 4.253 0 0 1 6.031 0 4.253 4.253 0 0 1 0 6.031l-1.469 1.469h-.031a4.073 4.073 0 0 1-2.438 1.188l.25 2a6.218 6.218 0 0 0 3.625-1.782l1.47-1.468c2.433-2.434 2.433-6.41 0-8.844A6.215 6.215 0 0 0 21.75 4ZM7.719 6.281 6.28 7.72l4 4 1.438-1.438Zm3.218 7.782a6.218 6.218 0 0 0-3.624 1.78l-1.47 1.47c-2.433 2.433-2.433 6.41 0 8.843 2.434 2.434 6.41 2.434 8.845 0l1.468-1.468a6.218 6.218 0 0 0 1.782-3.625l-2-.25a4.188 4.188 0 0 1-1.188 2.468l-1.469 1.469a4.253 4.253 0 0 1-6.031 0 4.253 4.253 0 0 1 0-6.031l1.469-1.469h.031a4.073 4.073 0 0 1 2.438-1.188ZM21.72 20.28l-1.44 1.44 4 4 1.438-1.438Z"/>
</svg>
