<svg xmlns="http://www.w3.org/2000/svg" viewBox="0 0 32 32" height="1em" width="1em">
  <path d="M16.5 4A3.514 3.514 0 0 0 13 7.5c0 1.922 1.578 3.5 3.5 3.5S20 9.422 20 7.5 18.422 4 16.5 4Zm0 2c.84 0 1.5.66 1.5 1.5S17.34 9 16.5 9 15 8.34 15 7.5 15.66 6 16.5 6Zm-3.688 5.25c-.515.043-.996.29-1.343.688L9.656 14.03a2.01 2.01 0 0 0-.469.969L8.5 18.875l1.969.344.687-3.875 1.813-2.094H13l.781.156-1.187 5.375a1.984 1.984 0 0 0 .344 1.594L18.468 28h2.47l-6.375-8.813 1.187-5.406.469.094.75 2.625a2.01 2.01 0 0 0 1.218 1.313l3.532 1.343.687-1.875-3.5-1.343-.781-2.626a1.976 1.976 0 0 0-1.531-1.406l-3.25-.625a2.026 2.026 0 0 0-.531-.031Zm-.343 10.781-.5 1.938L9.063 28h2.468l2.313-3.156.125-.594Z"/>
</svg>
