<svg width="24" height="24" stroke-width="1.5" fill="none" xmlns="http://www.w3.org/2000/svg"><path d="M5 3a1 1 0 1 0 0-2 1 1 0 0 0 0 2Z" fill="currentColor" stroke="currentColor" stroke-linecap="round" stroke-linejoin="round"/><path d="M5 22h8M5 22V2" stroke="currentColor" stroke-linecap="round" stroke-linejoin="round"/><path d="M5 23a1 1 0 1 0 0-2 1 1 0 0 0 0 2Z" fill="currentColor" stroke="currentColor" stroke-linecap="round" stroke-linejoin="round"/><path d="M8 4.193C9.37 2.821 11.108 2 13 2c4.418 0 8 4.477 8 10 0 3.271-1.256 6.175-3.2 8" stroke="currentColor" stroke-linecap="round" stroke-linejoin="round" stroke-dasharray="3 3"/><path d="M8.2 20A9.098 9.098 0 0 1 7 18.615" stroke="currentColor" stroke-linecap="round" stroke-linejoin="round"/><path d="M13 23a1 1 0 1 0 0-2 1 1 0 0 0 0 2Z" fill="currentColor" stroke="currentColor" stroke-linecap="round" stroke-linejoin="round"/></svg>