<svg width="24" height="24" stroke-width="1.5" fill="none" xmlns="http://www.w3.org/2000/svg"><path d="M3 19V5a2 2 0 0 1 2-2h14a2 2 0 0 1 2 2v14a2 2 0 0 1-2 2H5a2 2 0 0 1-2-2Z" stroke="currentColor"/><path d="M9.72 11.786a3 3 0 1 0 3.576 4.646M12 14h2.5l1 1.5h1M12 9.5V11m0 3v-3m0 0h2.5" stroke="currentColor" stroke-linecap="round" stroke-linejoin="round"/><path d="M12 7.5a.5.5 0 1 1 0-1 .5.5 0 0 1 0 1Z" fill="currentColor" stroke="currentColor" stroke-linecap="round" stroke-linejoin="round"/></svg>