<svg width="24" height="24" stroke-width="1.5" fill="none" xmlns="http://www.w3.org/2000/svg"><path d="M12 15a3 3 0 1 0 0-6 3 3 0 0 0 0 6Z" stroke="currentColor" stroke-miterlimit="1.5" stroke-linecap="round" stroke-linejoin="round"/><path clip-rule="evenodd" d="M12 9s-1.988-1.975-2-4c.001-1.993-.05-4.001 2-4 1.948.001 1.997 1.976 2 4 .003 1.985-2 4-2 4ZM15 12s1.975-1.988 4-2c1.993.001 4.001-.05 4 2-.001 1.948-1.976 1.997-4 2-1.985.003-4-2-4-2ZM9 12s-1.975 1.988-4 2c-1.993-.001-4.001.05-4-2 .001-1.948 1.976-1.997 4-2 1.985-.003 4 2 4 2ZM12 15s1.988 1.975 2 4c-.001 1.993.05 4.001-2 4-1.948-.001-1.997-1.976-2-4-.003-1.985 2-4 2-4Z" stroke="currentColor" stroke-miterlimit="1.5" stroke-linecap="round" stroke-linejoin="round"/></svg>