<svg width="24" height="24" stroke-width="1.5" fill="none" xmlns="http://www.w3.org/2000/svg"><path d="M5 19a4 4 0 1 0 0-8 4 4 0 0 0 0 8ZM8.5 7.5h6M19 15l-4-7.5h-.5m0 0 2-3m0 0H14m2.5 0h2" stroke="currentColor" stroke-linecap="round" stroke-linejoin="round"/><path d="m5 15 3.5-7.5L12 14h3M8.5 7.5c-.333-1-1.5-3-3.5-3" stroke="currentColor" stroke-linecap="round" stroke-linejoin="round"/><path d="M19 19a4 4 0 1 0 0-8 4 4 0 0 0 0 8Z" stroke="currentColor" stroke-linecap="round" stroke-linejoin="round"/></svg>