<svg width="24" stroke-width="1.5" height="24" fill="none" xmlns="http://www.w3.org/2000/svg"><path d="M10 17h-.667a2 2 0 0 1-2-2v-1.889C7.333 12.556 6 12 6 12s1.333-.556 1.333-1.111V9a2 2 0 0 1 2-2H10M14 17h.667a2 2 0 0 0 2-2v-1.889C16.667 12.556 18 12 18 12s-1.333-.556-1.333-1.111V9a2 2 0 0 0-2-2H14" stroke="currentColor" stroke-linecap="round" stroke-linejoin="round"/><path d="M21 3.6v16.8a.6.6 0 0 1-.6.6H3.6a.6.6 0 0 1-.6-.6V3.6a.6.6 0 0 1 .6-.6h16.8a.6.6 0 0 1 .6.6Z" stroke="currentColor" stroke-linecap="round" stroke-linejoin="round"/></svg>