<svg width="24" height="24" stroke-width="1.5" fill="none" xmlns="http://www.w3.org/2000/svg"><path d="M8 15.4V8.6a.6.6 0 0 1 .6-.6h6.8a.6.6 0 0 1 .6.6v6.8a.6.6 0 0 1-.6.6H8.6a.6.6 0 0 1-.6-.6Z" stroke="currentColor" stroke-linecap="round" stroke-linejoin="round"/><path d="M20 4.6v14.8a.6.6 0 0 1-.6.6H4.6a.6.6 0 0 1-.6-.6V4.6a.6.6 0 0 1 .6-.6h14.8a.6.6 0 0 1 .6.6ZM17 4V2M12 4V2M7 4V2M7 20v2M12 20v2M17 20v2M20 17h2M20 12h2M20 7h2M4 17H2M4 12H2M4 7H2" stroke="currentColor" stroke-linecap="round" stroke-linejoin="round"/></svg>