<svg width="24" height="24" stroke-width="1.5" fill="none" xmlns="http://www.w3.org/2000/svg"><path d="M4 6v6s0 3 7 3 7-3 7-3V6" stroke="currentColor" stroke-linecap="round" stroke-linejoin="round"/><path d="M11 3c7 0 7 3 7 3s0 3-7 3-7-3-7-3 0-3 7-3ZM11 21c-7 0-7-3-7-3v-6M19 21a2 2 0 1 0 0-4 2 2 0 0 0 0 4Z" stroke="currentColor" stroke-linecap="round" stroke-linejoin="round"/><path d="M19 22a3 3 0 1 0 0-6 3 3 0 0 0 0 6Z" stroke="currentColor" stroke-linecap="round" stroke-linejoin="round" stroke-dasharray="0.3 2"/></svg>