<svg width="24" height="24" stroke-width="1.5" fill="none" xmlns="http://www.w3.org/2000/svg"><path d="M2.8 8.1a.9.9 0 1 1-1.8 0 .9.9 0 0 1 1.8 0Z" fill="currentColor"/><path d="M2.8 8.1a.9.9 0 1 1-1.8 0 .9.9 0 0 1 1.8 0Zm0 0V3.6a.6.6 0 0 1 .6-.6H5" stroke="currentColor" stroke-linecap="round"/><path d="M8 17a2 2 0 1 0 0-4 2 2 0 0 0 0 4Z" stroke="currentColor" stroke-linecap="round" stroke-linejoin="round"/><path d="M2.05 13c.501 5.053 4.765 9 9.95 9 5.523 0 10-4.477 10-10S17.523 2 12 2a9.966 9.966 0 0 0-4 .832" stroke="currentColor" stroke-linecap="round" stroke-linejoin="round"/><path d="M15.5 9a.5.5 0 1 0 0-1 .5.5 0 0 0 0 1ZM8.5 9a.5.5 0 1 0 0-1 .5.5 0 0 0 0 1Z" fill="currentColor" stroke="currentColor" stroke-linecap="round" stroke-linejoin="round"/></svg>