<svg width="24" height="24" stroke-width="1.5" fill="none" xmlns="http://www.w3.org/2000/svg"><path d="M12 18a6 6 0 1 0 0-12 6 6 0 0 0 0 12ZM18 12h-6M9 6.803 12 12m0 0-3 5.197" stroke="currentColor" stroke-linecap="round" stroke-linejoin="round"/><path d="M12 19a7 7 0 1 0 0-14 7 7 0 0 0 0 14Z" stroke="currentColor" stroke-linecap="round" stroke-linejoin="round" stroke-dasharray="1 3"/><path d="M12 22c5.523 0 10-4.477 10-10S17.523 2 12 2 2 6.477 2 12s4.477 10 10 10Z" stroke="currentColor" stroke-linecap="round" stroke-linejoin="round"/><path d="M12 15a3 3 0 1 0 0-6 3 3 0 0 0 0 6Z" stroke="currentColor" stroke-linecap="round" stroke-linejoin="round"/></svg>