<svg width="24" height="24" stroke-width="1.5" fill="none" xmlns="http://www.w3.org/2000/svg"><path d="M7 2h9.5L21 6.5V19" stroke="currentColor" stroke-linecap="round" stroke-linejoin="round"/><path d="M3 20.5v-14A1.5 1.5 0 0 1 4.5 5h9.752a.6.6 0 0 1 .424.176l3.148 3.148A.6.6 0 0 1 18 8.75V20.5a1.5 1.5 0 0 1-1.5 1.5h-12A1.5 1.5 0 0 1 3 20.5Z" stroke="currentColor" stroke-linecap="round" stroke-linejoin="round"/><path d="M14 8.4V5.354a.354.354 0 0 1 .604-.25l3.292 3.292a.353.353 0 0 1-.25.604H14.6a.6.6 0 0 1-.6-.6Z" fill="currentColor" stroke="currentColor" stroke-linecap="round" stroke-linejoin="round"/></svg>