<svg width="24" height="24" stroke-width="1.5" fill="none" xmlns="http://www.w3.org/2000/svg"><path d="M16 2H8a6 6 0 0 0-6 6v8a6 6 0 0 0 6 6h8a6 6 0 0 0 6-6V8a6 6 0 0 0-6-6Z" stroke="currentColor" stroke-width="1.499" stroke-miterlimit="1.5" stroke-linecap="round" stroke-linejoin="round" stroke-dasharray="2 2"/><path d="M16 5H8a3 3 0 0 0-3 3v8a3 3 0 0 0 3 3h8a3 3 0 0 0 3-3V8a3 3 0 0 0-3-3Z" stroke="currentColor" stroke-width="1.499" stroke-miterlimit="1.5" stroke-linecap="round" stroke-linejoin="round"/></svg>