<svg width="24" height="24" stroke-width="1.5" fill="none" xmlns="http://www.w3.org/2000/svg"><path d="m13 19 3 3 5-5M9 22H7a2 2 0 0 1-2-2v-8.818a.6.6 0 0 0-.1-.333L3.1 8.15a.6.6 0 0 1-.1-.333V2.6a.6.6 0 0 1 .6-.6h1.8a.6.6 0 0 1 .6.6v1.8a.6.6 0 0 0 .6.6h2.8a.6.6 0 0 0 .6-.6V2.6a.6.6 0 0 1 .6-.6h2.8a.6.6 0 0 1 .6.6v1.8a.6.6 0 0 0 .6.6h2.8a.6.6 0 0 0 .6-.6V2.6a.6.6 0 0 1 .6-.6h1.8a.6.6 0 0 1 .6.6v5.218a.6.6 0 0 1-.1.333l-1.8 2.698a.6.6 0 0 0-.1.333V13.5" stroke="currentColor" stroke-linecap="round" stroke-linejoin="round"/></svg>