<svg viewBox="0 0 20 20" fill="none" xmlns="http://www.w3.org/2000/svg" height="1em" width="1em">
  <path d="M9.534 2.043a.75.75 0 0 0-.498.707v5.882L7.22 7.167a.75.75 0 0 0-.942 1.167L8.342 10 6.28 11.667a.75.75 0 1 0 .942 1.167l1.815-1.466v5.882a.75.75 0 0 0 1.331.474l3.464-4.25a.75.75 0 0 0-.11-1.057L10.73 10l2.992-2.417a.75.75 0 0 0 .11-1.057l-3.464-4.25a.75.75 0 0 0-.833-.233Zm1.002 9.729 1.657 1.338-1.657 2.033v-3.371Zm0-3.544v-3.37l1.657 2.032-1.657 1.338Zm6.719-1.905a.75.75 0 0 1 .999.355A7.723 7.723 0 0 1 19 10a7.723 7.723 0 0 1-.746 3.322.75.75 0 0 1-1.355-.644c.385-.81.601-1.718.601-2.678s-.216-1.867-.601-2.678a.75.75 0 0 1 .356-1ZM16.208 8.27a.75.75 0 1 0-1.416.494c.135.386.208.802.208 1.236 0 .434-.073.85-.208 1.236a.75.75 0 1 0 1.416.494 5.253 5.253 0 0 0 0-3.46Z" fill="#212121"/>
</svg>
