<svg viewBox="0 0 20 20" fill="none" xmlns="http://www.w3.org/2000/svg" height="1em" width="1em">
  <path d="M8.493 4.901c-.358.07-.75.302-1.058.846a.5.5 0 1 1-.87-.494c.441-.776 1.068-1.203 1.736-1.333a2.431 2.431 0 0 1 1.792.361c.484.32.875.843.887 1.47.013.655-.385 1.246-1.119 1.68-.498.294-.692.494-.775.627C9.016 8.17 9 8.272 9 8.5a.5.5 0 0 1-1 0c0-.272.014-.61.237-.97.21-.337.569-.637 1.115-.96.535-.317.632-.618.629-.798-.005-.207-.142-.46-.44-.657a1.431 1.431 0 0 0-1.048-.214ZM8.75 11.5a.75.75 0 1 0 0-1.5.75.75 0 0 0 0 1.5ZM8.5 1a6.5 6.5 0 0 0-5.675 9.672l-.795 2.082a1 1 0 0 0 1.204 1.32l2.487-.697A6.5 6.5 0 1 0 8.5 1ZM3 7.5a5.5 5.5 0 1 1 2.998 4.9l-.174-.09-2.86.801.969-2.536-.128-.21A5.472 5.472 0 0 1 3 7.5Zm8.463 9.5a6.485 6.485 0 0 1-4.927-2.26 7.456 7.456 0 0 0 1.76.257A5.475 5.475 0 0 0 11.463 16c.902 0 1.752-.217 2.502-.6l.174-.09 2.86.801-.969-2.536.128-.21c.51-.834.805-1.814.805-2.865a5.474 5.474 0 0 0-.964-3.11 7.506 7.506 0 0 0-.235-1.763 6.484 6.484 0 0 1 2.199 4.873c0 1.151-.3 2.233-.826 3.172l.796 2.082a1 1 0 0 1-1.203 1.32l-2.488-.697c-.843.4-1.786.623-2.78.623Z" fill="#212121"/>
</svg>
