<svg viewBox="0 0 20 20" fill="none" xmlns="http://www.w3.org/2000/svg" height="1em" width="1em">
  <path d="M10.5 8.5A1.5 1.5 0 0 0 9 10v2.5a.5.5 0 1 1-1 0V10a2.5 2.5 0 0 1 2.5-2.5h.793l-.646-.647a.5.5 0 0 1 .707-.707l1.5 1.5a.5.5 0 0 1 0 .707l-1.5 1.5a.5.5 0 1 1-.707-.707l.646-.646H10.5ZM8.232 3.06a2.5 2.5 0 0 1 3.536 0l5.171 5.172a2.5 2.5 0 0 1 0 3.536l-5.171 5.171a2.5 2.5 0 0 1-3.536 0l-5.171-5.171a2.5 2.5 0 0 1 0-3.536L8.232 3.06Zm2.829.707a1.5 1.5 0 0 0-2.121 0L3.768 8.94a1.5 1.5 0 0 0 0 2.121l5.172 5.172a1.5 1.5 0 0 0 2.12 0l5.172-5.172a1.5 1.5 0 0 0 0-2.121l-5.171-5.172Z" fill="#212121"/>
</svg>
