<svg viewBox="0 0 20 20" fill="none" xmlns="http://www.w3.org/2000/svg" height="1em" width="1em">
  <path d="M12 2v4.5A1.5 1.5 0 0 0 13.5 8H18v8.5a1.5 1.5 0 0 1-1.5 1.5H9.451l2.427-2.427a3.85 3.85 0 0 0-4.875-5.916A3.824 3.824 0 0 0 6 9.175V3.5A1.5 1.5 0 0 1 7.5 2H12Zm1 .25V6.5a.5.5 0 0 0 .5.5h4.25L13 2.25Zm-5.863 8.585A2.85 2.85 0 0 1 11.999 13h-1.877l-.56-.56a1.5 1.5 0 0 0-2.262.16l-.161.215-.352-.587a1.5 1.5 0 0 0-2.535-.06L3.698 13H2.002a2.85 2.85 0 0 1 4.862-2.165l.137.136.136-.136ZM3.967 16l2.68 2.68a.5.5 0 0 0 .707 0l2.68-2.68H8.5l-.3.4a1.5 1.5 0 0 1-2.486-.128L5.551 16H3.967Zm1.962-3.257a.5.5 0 0 0-.845-.02L4.233 14H3a.5.5 0 0 0 0 1h1.5a.5.5 0 0 0 .417-.223l.561-.842 1.094 1.822a.5.5 0 0 0 .828.043l1.155-1.539.592.593A.5.5 0 0 0 9.5 15H11a.5.5 0 0 0 0-1H9.709l-.854-.854a.5.5 0 0 0-.754.054l-1.053 1.405-1.118-1.862Z" fill="#212121"/>
</svg>
