<svg viewBox="0 0 20 20" fill="none" xmlns="http://www.w3.org/2000/svg" height="1em" width="1em">
  <path d="M10.429 2.212a.645.645 0 0 0-.858 0 5.733 5.733 0 0 0-1.74 5.738 7.11 7.11 0 0 0-4.208-.962.663.663 0 0 0-.606.72c.124 1.365.764 2.72 1.651 3.77a7.135 7.135 0 0 0-1.045.01.663.663 0 0 0-.606.72A6.368 6.368 0 0 0 9.358 18h1.284a6.368 6.368 0 0 0 6.341-5.791.663.663 0 0 0-.606-.721 7.133 7.133 0 0 0-1.045-.01c.887-1.05 1.527-2.405 1.651-3.77a.664.664 0 0 0-.606-.72 7.11 7.11 0 0 0-4.208.962 5.733 5.733 0 0 0-1.74-5.738ZM10 14.428a7.148 7.148 0 0 0-3.434-2.566.517.517 0 0 0-.035-.026c-1.2-.817-2.216-2.336-2.473-3.87a6.123 6.123 0 0 1 4.119 1.452c.76.643.968 1.23 1.156 1.758.068.19.133.373.22.547a.5.5 0 0 0 .894 0c.088-.174.153-.357.22-.548.188-.526.397-1.114 1.156-1.757a6.123 6.123 0 0 1 4.12-1.453c-.258 1.535-1.273 3.054-2.474 3.871a.476.476 0 0 0-.035.026A7.147 7.147 0 0 0 10 14.428ZM9.358 17a5.368 5.368 0 0 1-5.302-4.535 6.131 6.131 0 0 1 5.507 3.137.5.5 0 0 0 .874 0 6.131 6.131 0 0 1 5.507-3.137A5.368 5.368 0 0 1 10.642 17H9.358ZM10 9.816a4.738 4.738 0 0 1 0-6.633 4.738 4.738 0 0 1 0 6.633Z" fill="#212121"/>
</svg>
