<svg viewBox="0 0 20 21" fill="none" xmlns="http://www.w3.org/2000/svg" height="1em" width="1em">
  <path d="M7.5 9.006a.747.747 0 1 0 0-1.495.747.747 0 0 0 0 1.495Zm3.723 1.253a.747.747 0 1 1-1.495 0 .747.747 0 0 1 1.495 0Zm-3.719 3.253a.751.751 0 1 0 0-1.502.751.751 0 0 0 0 1.502ZM4 3.96c0-1.095.895-2.022 2.03-1.952 4.447.273 8.347 1.77 11.402 4.687.867.827.696 2.178-.203 2.868a302.914 302.914 0 0 1-4.225 3.203v1.74c0 .717-.555 1.5-1.5 1.5a1.57 1.57 0 0 1-.498-.08v.083c0 .713-.556 1.491-1.503 1.491-.754 0-1.251-.497-1.426-1.05-.548.41-1.147.856-1.682 1.254-.99.737-2.395.03-2.395-1.201V3.96Zm7.005 10.546c0 .259.195.5.499.5.305 0 .5-.242.5-.5v-1.994a.5.5 0 0 1 .206-.404c.78-.566 2.108-1.575 3.284-2.474C12.801 7.07 9.026 5.549 5 5.518v10.985a.5.5 0 0 0 .798.4c.786-.586 1.713-1.276 2.409-1.798a.5.5 0 0 1 .8.4v.504c0 .246.19.492.496.492a.49.49 0 0 0 .502-.492v-1.503a.5.5 0 0 1 1 0Zm5.614-5.735c.465-.357.5-.993.122-1.354-2.857-2.727-6.52-4.15-10.772-4.412C5.45 2.973 5 3.399 5 3.96v.558c4.327.033 8.402 1.687 11.297 4.5l.322-.247Z" fill="#212121"/>
</svg>
