<svg viewBox="0 0 20 20" fill="none" xmlns="http://www.w3.org/2000/svg" height="1em" width="1em">
  <path d="M16 3.991a2 2 0 0 1-2.647 1.893l-1.284 1.943c.571.544.928 1.311.931 2.162l1.17.202a2 2 0 1 1-.162.987l-1.17-.203a3.01 3.01 0 0 1-1.426 1.673l.444 1.357a2 2 0 1 1-.948.319l-.445-1.36a2.996 2.996 0 0 1-2.874-1.18l-1.635.788a2 2 0 1 1-.452-.892l1.633-.787a2.999 2.999 0 0 1 .637-2.902l-.935-1.174a2 2 0 1 1 .775-.632l.944 1.185A2.98 2.98 0 0 1 10 7c.442 0 .862.095 1.24.267l1.278-1.933A2 2 0 1 1 16 3.99Zm-1 0a1 1 0 1 0-2 0 1 1 0 0 0 2 0ZM6 6a1 1 0 1 0 0-2 1 1 0 0 0 0 2Zm4 6a2 2 0 1 0 0-4 2 2 0 0 0 0 4Zm-5 1a1 1 0 1 0-2 0 1 1 0 0 0 2 0Zm8 3a1 1 0 1 0-2 0 1 1 0 0 0 2 0Zm3-4a1 1 0 1 0 0-2 1 1 0 0 0 0 2Z" fill="#212121"/>
</svg>
