<svg viewBox="0 0 20 20" fill="none" xmlns="http://www.w3.org/2000/svg" height="1em" width="1em">
  <path d="M10 5.75a3.25 3.25 0 1 1-6.5 0 3.25 3.25 0 0 1 6.5 0Zm1 8.699C10.262 15.279 8.98 16 6.75 16 1.5 16 1.5 12 1.5 12a2 2 0 0 1 2-2H10a2 2 0 0 1 2 2s0 .105-.022.28A1.999 1.999 0 0 0 11 14v.449ZM14.5 9a2.5 2.5 0 1 0 0-5 2.5 2.5 0 0 0 0 5Zm-1 3v1H13a1 1 0 0 0-1 1v4a1 1 0 0 0 1 1h5a1 1 0 0 0 1-1v-4a1 1 0 0 0-1-1h-.5v-1a2 2 0 1 0-4 0Zm1 1v-1a1 1 0 1 1 2 0v1h-2Zm1 2.25a.75.75 0 1 1 0 1.5.75.75 0 0 1 0-1.5Z" fill="#212121"/>
</svg>
