<svg viewBox="0 0 20 20" fill="none" xmlns="http://www.w3.org/2000/svg" height="1em" width="1em">
  <path d="M17.964 2.308a.5.5 0 0 0-.82-.158l-2.7 2.7a4.036 4.036 0 0 0-5.332.332l-.611.61a1.05 1.05 0 0 0 0 1.486l2.774 2.766c.276-.2.572-.375.884-.522l-2.64-2.64a.491.491 0 0 1 0-.693l.3-.3a3.032 3.032 0 0 1 4.287-.006l.006.01.006.007a3.036 3.036 0 0 1 .72 3.11c.345.021.682.074 1.007.156a4.03 4.03 0 0 0-.69-3.612l2.7-2.7a.5.5 0 0 0 .109-.546ZM7.279 8.5l2.77 2.77a5.496 5.496 0 0 0-.525.884L6.888 9.518a.49.49 0 0 0-.692 0l-.3.3a3.036 3.036 0 0 0-.006 4.287l.006.006.005.006a3.03 3.03 0 0 0 3.11.727c.02.34.073.674.153.995a4.033 4.033 0 0 1-3.606-.689l-2.7 2.7a.5.5 0 1 1-.711-.704l2.7-2.7a4.03 4.03 0 0 1 .332-5.332l.3-.3.315-.314a1.05 1.05 0 0 1 1.485 0ZM17 18.242a4.5 4.5 0 1 1-5-7.484 4.5 4.5 0 0 1 5 7.484Zm-2.146-6.096A.5.5 0 0 0 14 12.5V14h-1.5a.5.5 0 0 0 0 1H14v1.5a.5.5 0 0 0 1 0V15h1.5a.5.5 0 0 0 0-1H15v-1.5a.5.5 0 0 0-.146-.354Z" fill="#212121"/>
</svg>
