<svg viewBox="0 0 20 20" fill="none" xmlns="http://www.w3.org/2000/svg" height="1em" width="1em">
  <path d="M9.104 2.899a.988.988 0 0 1 .898-.557.99.99 0 0 1 .896.557l1.93 3.911 4.317.628a1 1 0 0 1 .554 1.705l-3.124 3.045.738 4.3a1 1 0 0 1-1.451 1.053l-3.86-2.03-3.862 2.03a1 1 0 0 1-1.45-1.054l.737-4.299-3.124-3.045a1 1 0 0 1 .554-1.705l4.317-.628 1.93-3.91Zm.898 11.613a1 1 0 0 1 .464.114l3.861 2.03-.737-4.299a1 1 0 0 1 .287-.885l3.124-3.045-4.317-.627a1 1 0 0 1-.752-.547l-1.93-3.91v11.169Z" fill="#212121"/>
</svg>
