<svg viewBox="0 0 20 20" fill="none" xmlns="http://www.w3.org/2000/svg" height="1em" width="1em">
  <path d="M3 6.5a1 1 0 1 0 0-2 1 1 0 0 0 0 2Zm3-1a.5.5 0 0 1 .5-.5h11a.5.5 0 0 1 0 1h-11a.5.5 0 0 1-.5-.5Zm.5 4.5a.5.5 0 0 0 0 1h4.757c.313-.38.677-.716 1.08-1H6.5Zm3.707 6a5.489 5.489 0 0 1-.185-1H6.5a.5.5 0 0 0 0 1h3.707ZM3 16.5a1 1 0 1 0 0-2 1 1 0 0 0 0 2Zm0-5a1 1 0 1 0 0-2 1 1 0 0 0 0 2Zm17 3a4.5 4.5 0 1 1-9 0 4.5 4.5 0 0 1 9 0Zm-2.646-1.146a.5.5 0 0 0-.708-.708L15.5 13.793l-1.146-1.147a.5.5 0 0 0-.708.708l1.147 1.146-1.147 1.146a.5.5 0 0 0 .708.708l1.146-1.147 1.146 1.147a.5.5 0 0 0 .708-.708L16.207 14.5l1.147-1.146Z" fill="#212121"/>
</svg>
