<svg viewBox="0 0 20 20" fill="none" xmlns="http://www.w3.org/2000/svg" height="1em" width="1em">
  <path d="M3.25 7a1.25 1.25 0 1 0 0-2.5 1.25 1.25 0 0 0 0 2.5ZM7 5.75A.75.75 0 0 1 7.75 5h9.5a.75.75 0 0 1 0 1.5h-9.5A.75.75 0 0 1 7 5.75ZM7.75 10a.75.75 0 0 0 0 1.5h3.14a5.53 5.53 0 0 1 1.447-1.5H7.75Zm0 5h2.272a5.47 5.47 0 0 0 .353 1.5H7.75a.75.75 0 0 1 0-1.5ZM4.5 10.75a1.25 1.25 0 1 1-2.5 0 1.25 1.25 0 0 1 2.5 0ZM3.25 17a1.25 1.25 0 1 0 0-2.5 1.25 1.25 0 0 0 0 2.5ZM20 14.5a4.5 4.5 0 1 1-9 0 4.5 4.5 0 0 1 9 0Zm-4-2a.5.5 0 0 0-1 0V14h-1.5a.5.5 0 0 0 0 1H15v1.5a.5.5 0 0 0 1 0V15h1.5a.5.5 0 0 0 0-1H16v-1.5Z" fill="#212121"/>
</svg>
