<svg viewBox="0 0 20 20" fill="none" xmlns="http://www.w3.org/2000/svg" height="1em" width="1em">
  <path d="M5 3a2 2 0 0 0-2 2v10a2 2 0 0 0 2 2h4.22l.212-.845a3.19 3.19 0 0 1 .84-1.485l.67-.67H9.5a.5.5 0 0 1 0-1h2.443l3.159-3.16A2.86 2.86 0 0 1 17 9.004V5a2 2 0 0 0-2-2H5Zm2.5 4.25a.75.75 0 1 1-1.5 0 .75.75 0 0 1 1.5 0ZM6.75 11a.75.75 0 1 1 0-1.5.75.75 0 0 1 0 1.5Zm.75 2.25a.75.75 0 1 1-1.5 0 .75.75 0 0 1 1.5 0ZM9.5 7h4a.5.5 0 0 1 0 1h-4a.5.5 0 0 1 0-1ZM9 10.5a.5.5 0 0 1 .5-.5h4a.5.5 0 0 1 0 1h-4a.5.5 0 0 1-.5-.5Zm1.98 4.877 4.83-4.83a1.87 1.87 0 1 1 2.644 2.646l-4.83 4.829a2.197 2.197 0 0 1-1.02.578l-1.498.374a.89.89 0 0 1-1.079-1.078l.375-1.498a2.18 2.18 0 0 1 .578-1.02Z" fill="#212121"/>
</svg>
