<svg viewBox="0 0 20 20" fill="none" xmlns="http://www.w3.org/2000/svg" height="1em" width="1em">
  <path d="M10.62 2.212a1 1 0 0 0-1.238 0l-3.308 2.61c-.805.635-.707 1.743-.058 2.314L4.552 8.342c-.963.795-.573 2.272.51 2.595l-1.586 1.486C2.49 13.346 3.144 15 4.495 15H8v1.75c0 .69.56 1.25 1.25 1.25h1.5c.69 0 1.25-.56 1.25-1.25V15h3.504c1.351 0 2.005-1.655 1.018-2.578l-1.587-1.484c1.086-.321 1.478-1.8.513-2.595l-1.462-1.206c.649-.571.747-1.68-.057-2.315l-3.309-2.61ZM11 15v1.75a.25.25 0 0 1-.25.25h-1.5a.25.25 0 0 1-.25-.25V15h2Zm-.999-12.003 3.308 2.61a.5.5 0 0 1-.291.893.5.5 0 0 0-.303.885l2.097 1.73a.5.5 0 0 1-.318.885h-.758a.5.5 0 0 0-.342.865l2.444 2.287a.49.49 0 0 1-.334.848H4.495a.49.49 0 0 1-.335-.848l2.44-2.287A.5.5 0 0 0 6.26 10h-.754a.5.5 0 0 1-.318-.886l2.098-1.729a.5.5 0 0 0-.302-.885.5.5 0 0 1-.291-.893l3.308-2.61Z" fill="#212121"/>
</svg>
