<svg xmlns="http://www.w3.org/2000/svg" viewBox="0 0 17 17" height="1em" width="1em">
  <path d="M13 11c-.545 0-1.049.157-1.49.412L9.188 8.958l6.26-6.614-.727-.688L8.5 8.23 2.277 1.656l-.726.688 6.26 6.614-2.322 2.453A2.969 2.969 0 0 0 4 11c-1.654 0-3 1.346-3 3s1.346 3 3 3 3-1.346 3-3c0-.747-.285-1.424-.738-1.949L8.5 9.686l2.238 2.365A2.973 2.973 0 0 0 10 14c0 1.654 1.346 3 3 3s3-1.346 3-3-1.346-3-3-3zm-9 5c-1.103 0-2-.897-2-2s.897-2 2-2 2 .897 2 2-.897 2-2 2zm9 0c-1.103 0-2-.897-2-2s.897-2 2-2 2 .897 2 2-.897 2-2 2z"/>
</svg>
