<svg xmlns="http://www.w3.org/2000/svg" viewBox="0 0 17 17" height="1em" width="1em">
  <path d="M8.563 16.5c-3.718 0-7.062-2.926-7.062-6.906 0-3.974 3.098-5.813 3.672-6.114.684-.364 1.176-.556 1.95-1.175.383-.301.702-.739.803-1.805.555.665 1.221 1.439 1.694 1.759.775.51 1.55.711 2.36 1.221.492.301 3.518 2.15 3.518 6.241 0 4.082-3.226 6.779-6.935 6.779zm5.467-6.597c-.729 0-2.205 1.513-2.979 1.522-.901.018-2.149-1.787-3.954-1.77-1.422.01-2.542 1.14-2.561 2.343-.009.675.21 1.176.675 1.494.31.209.592.337 1.512.337 1.531 0 3.472-1.896 4.365-1.867.71.026 1.812 1.768 2.369 1.804.437.036.665-.164 1.038-.701.364-.547.52-1.404.52-1.887 0-.473-.21-1.275-.985-1.275zm-2.113 4.838c-.31.228-1.003.511-1.987.511s-1.448-.21-1.758-.447c-.045-.036-.027-.036-.119-.036-.1 0-.154.046-.236.109a.23.23 0 0 0 0 .328c.674.619 1.804.565 2.633.491.839-.082 1.55-.573 1.622-.646.109-.108.082-.2.063-.264-.018-.064-.073-.154-.218-.046zm-.493-1.557c-.182-.118-.445-.137-.691-.137-.247 0-.383-.018-.646.091-.266.109-.539.355-.711.511-.174.154-.201.273-.11.401.092.117.192.044.447-.174.264-.21.438-.401.975-.401s.629.201.737.401c.11.2.119.228.228.174.128-.064.192-.156.128-.312-.065-.154-.174-.427-.357-.554z"/>
</svg>
