<svg xmlns="http://www.w3.org/2000/svg" viewBox="0 0 17 17" height="1em" width="1em">
  <path d="M13.5 12.5c-.827 0-1.5.673-1.5 1.5s.673 1.5 1.5 1.5S15 14.827 15 14s-.673-1.5-1.5-1.5zm0 2c-.275 0-.5-.225-.5-.5s.225-.5.5-.5.5.225.5.5-.225.5-.5.5zM17 3.15 14.077 0H2.926L0 3.087V9.52h.936L0 10.692V17h17v-6.26l-1.046-1.22H17V3.15zM3.355 1h10.286l1.854 2H1.46l1.895-2zM1 16v-4h15v4H1zm14.906-5H1.033l1.181-1.48h12.424L15.906 11zM1 8.52V4h15v4.52H1zM13.5 5c-.827 0-1.5.673-1.5 1.5 0 .826.673 1.499 1.5 1.499S15 7.326 15 6.5c0-.827-.673-1.5-1.5-1.5zm0 1.999a.5.5 0 0 1 0-.999.5.5 0 0 1 0 .999z"/>
</svg>
