<svg xmlns="http://www.w3.org/2000/svg" viewBox="0 0 17 17" height="1em" width="1em">
  <path d="M17 0v17h-5V0h5zM9 17h1v-1H9v1zm-1.777 0h.889v-1h-.889v1zm-5.334 0h.889v-1h-.889v1zm1.778 0h.889v-1h-.889v1zm1.778 0h.889v-1h-.889v1zM0 17h1v-1H0v1zm0-8h1V8H0v1zm0-6h1V2H0v1zm0 8h1v-1H0v1zm0-4h1V6H0v1zm0 6h1v-1H0v1zm0 2h1v-1H0v1zM0 5h1V4H0v1zm0-4h1V0H0v1zm8.111-1h-.889v1h.889V0zM6.333 0h-.889v1h.889V0zM2.777 0h-.888v1h.889V0zm1.778 0h-.888v1h.889V0zM9 1h1V0H9v1zm0 14h1v-1H9v1zm0-2h1v-1H9v1zm0-4h1V8H9v1zm0 2h1v-1H9v1zm0-6h1V4H9v1zm0 2h1V6H9v1zm0-4h1V2H9v1z"/>
</svg>
