<svg xmlns="http://www.w3.org/2000/svg" viewBox="0 0 17 17" height="1em" width="1em">
  <path d="m15.664 5.684-.544-.544c.078-.179.127-.368.139-.562a1.448 1.448 0 0 0-.416-1.13l-1.745-1.745c-.206-.206-.437-.31-.687-.31-.449 0-.769.323-1.108.666l-9.036 9.036-.335 2.955.105.104-.972.972 1.193.222.487-.486.104.104 2.954-.333L14.5 5.935l.456.456a.25.25 0 0 1 .076.245c-.026.141-.129.31-.283.464l-3.016 3.017.707.707 3.016-3.017c.303-.302.497-.645.56-.99a1.243 1.243 0 0 0-.352-1.133zM5.343 13.677l-2.128.241-.235-.235.242-2.126 5.622-5.622 2.121 2.121-5.622 5.621zm6.329-6.328L9.551 5.228l2.464-2.464c.136-.139.342-.347.376-.354l1.745 1.745c.12.12.129.278.125.361a.723.723 0 0 1-.218.462l-2.371 2.371z"/>
</svg>
