<svg xmlns="http://www.w3.org/2000/svg" viewBox="0 0 17 17" height="1em" width="1em">
  <path d="M16.701 9.818 7.833.894l-.134.133A3.527 3.527 0 0 0 5.206 0h-.001c-.948 0-1.841.37-2.512 1.041a3.528 3.528 0 0 0-1.042 2.514c0 .941.366 1.825 1.027 2.493L.47 8.257C.167 8.561 0 8.963 0 9.39c0 .429.166.83.467 1.13l4.811 4.859a1.59 1.59 0 0 0 1.131.469 1.59 1.59 0 0 0 1.133-.471L13.1 9.819l3.601-.001zM2.651 3.554c0-.682.266-1.323.749-1.806A2.538 2.538 0 0 1 5.205 1h.001c.674 0 1.306.262 1.786.734L3.386 5.341a2.532 2.532 0 0 1-.735-1.787zm4.182 11.117a.6.6 0 0 1-.847.003L2.35 11h8.154l-3.671 3.671zM11.504 10H1.359l-.183-.186a.602.602 0 0 1 .001-.85L7.831 2.31l6.468 6.509-1.614.001L11.504 10zm4.184 1.959-.407-.604-.418.598c-.319.457-1.363 2.011-1.363 2.798 0 .965.785 1.75 1.75 1.75S17 15.715 17 14.75c0-.782-1.004-2.334-1.312-2.791zM15.25 15.5a.752.752 0 0 1-.75-.75c0-.24.349-.92.766-1.591.4.67.734 1.349.734 1.591 0 .413-.337.75-.75.75z"/>
</svg>
