<svg xmlns="http://www.w3.org/2000/svg" viewBox="0 0 17 17" height="1em" width="1em">
  <path d="M8.5.5a8 8 0 0 0-3.211 15.327c-.022-.559-.005-1.229.139-1.837l1.029-4.359s-.256-.511-.256-1.266c0-1.186.688-2.07 1.544-2.07.728 0 1.079.546 1.079 1.2 0 .731-.467 1.826-.707 2.839-.2.849.426 1.541 1.263 1.541 1.516 0 2.537-1.946 2.537-4.253 0-1.753-1.182-3.066-3.329-3.066-2.427 0-3.938 1.811-3.938 3.831 0 .698.205 1.189.527 1.569.147.175.168.246.115.446l-.163.642c-.054.203-.218.275-.4.201C3.61 10.788 3.09 9.564 3.09 8.188c0-2.272 1.916-4.998 5.718-4.998 3.054 0 5.064 2.211 5.064 4.583 0 3.139-1.745 5.483-4.316 5.483-.864 0-1.677-.468-1.955-.998 0 0-.464 1.844-.562 2.199-.17.617-.502 1.233-.806 1.714A8 8 0 0 0 16.5 8.5a8 8 0 0 0-8-8z"/>
</svg>
