<svg xmlns="http://www.w3.org/2000/svg" viewBox="0 0 17 17" height="1em" width="1em">
  <path d="M12.66 16.179c0 .312-.009.312-.009.312v.009H2.545c-.313 0-.313-.009-.313-.009h-.009V9.919h1.081v5.519h8.286V9.919h1.07v6.26zm-2.151-1.823-6.312.009v-1.348l6.312-.009v1.348zm.152-3.07-.116 1.339-6.295-.58.125-1.339 6.286.58zm.42-1.768-.349 1.305-6.098-1.635.348-1.304 6.099 1.634zm.794-1.536-.688 1.16L5.75 5.929l.687-1.161 5.438 3.214zm1.33-.946-1.106.759-3.564-5.214 1.116-.769 3.554 5.224zm1.572-.312-1.331.232-1.08-6.224L13.696.5l1.081 6.224z"/>
</svg>
