<svg xmlns="http://www.w3.org/2000/svg" viewBox="0 0 17 17" height="1em" width="1em">
  <path d="M11.5 10.116c3.033 0 5.5-2.269 5.5-5.058S14.533 0 11.5 0C9.588 0 7.807.938 6.816 2.431A4.682 4.682 0 0 0 4.5 1.823C2.019 1.823 0 3.683 0 5.97c0 2.286 2.019 4.146 4.5 4.146.186 0 .375-.013.573-.037A3.632 3.632 0 0 0 7.5 11c1.002 0 1.929-.387 2.592-1.07.488.125.951.186 1.408.186zM9.745 8.785l-.212.268C9.062 9.646 8.302 10 7.5 10c-.724 0-1.414-.29-1.895-.797l-.184-.193-.264.046c-.214.037-.431.06-.657.06-1.93 0-3.5-1.411-3.5-3.145 0-1.735 1.57-3.147 3.5-3.147a3.69 3.69 0 0 1 2.189.713l.472.343.267-.52C8.166 1.927 9.764 1 11.5 1 13.981 1 16 2.82 16 5.059c0 2.237-2.019 4.058-4.5 4.058-.453 0-.921-.075-1.429-.231l-.326-.101zM11.5 10.5c-1.103 0-2 .897-2 2s.897 2 2 2 2-.897 2-2-.897-2-2-2zm0 3a1.001 1.001 0 0 1 0-2 1.001 1.001 0 0 1 0 2zm3.75.5c-.689 0-1.25.561-1.25 1.25s.561 1.25 1.25 1.25 1.25-.561 1.25-1.25S15.939 14 15.25 14zM15 15.25a.25.25 0 0 1 .5 0c0 .275-.5.275-.5 0z"/>
</svg>
