<svg xmlns="http://www.w3.org/2000/svg" viewBox="0 0 17 17" height="1em" width="1em">
  <path d="M1.564 2C.71 2 .014 2.69.014 3.538H0v10.939c0 .848.695 1.538 1.55 1.538h13.492V14.36H17V2H1.564zM1.55 15.014a.545.545 0 0 1-.55-.538V4.893c.024.007.054.005.078.012.143.042.293.068.453.071.007 0 .012.003.019.003h12.493v3.035h-2.859c-.862 0-1.563.673-1.563 1.5v1c0 .827.701 1.5 1.563 1.5h2.859v3H1.55zm9.633-4c-.311 0-.563-.224-.563-.5v-1c0-.276.253-.5.563-.5H16v2h-4.817zM16 13.359h-.958v-1.345H16v1.345zm-.958-5.345V3.979H1.564c-.273 0-.55-.137-.55-.441A.546.546 0 0 1 1.564 3H16v5.014h-.958z"/>
</svg>
