<svg xmlns="http://www.w3.org/2000/svg" viewBox="0 0 2048 2048" height="1em" width="1em">
  <path d="M1928.4 128H114.8C23.2 128 0 151.6 0 243.6v1560.8c0 93.2 23.2 115.6 114.8 115.6h1813.6c97.6 0 119.6-20.8 119.6-118.8V248.8c0-98.4-21.6-120.8-119.6-120.8zM713.6 881.2c-110-80.8-288.4-34.8-336.8 93.6-17.2 44.4-37.2 38-70 33.2-38.8-6-68.8-12.8-90-22-115.2-45.6 34.4-221.2 99.6-257.2C480.8 643.2 650 640 817.6 709.6c163.6 67.2 138 236.8 138 514 10.8 103.2-17.2 233.2 37.2 355.2 7.6 17.6 1.6 31.6-10.8 42.8-33.6 26.8-157.2 8.8-186.4-29.6-7.6-8.8-7.2-14.4-15.6-24.8-14.4-15.6-29.2-8.8-47.6 4-229.6 145.6-561.2 85.6-588-173.2-12.4-117.2 49.6-228.4 158.4-284 152.8-78 448.8-47.2 456-123.6 4.4-40.8-7.6-80.4-45.2-109.2zm1146.8 888c0 60.4-44.4 39.6-71.2 39.6H209.6c-29.6 0-72.8 19.2-71.2-42.8 1.6-55.6 42-36.4 68.4-36.4 529.2-1.6 1058-1.6 1587.2 0 27.2 0 66.4-17.6 66.4 39.6zm15.2-1362v1164c0 22.8-2.8 55.6-32.4 55.6-49.6-1.6-110 28.4-144.4-22.4-23.2-34.8-31.2-16-49.6-4.8-213.6 118.8-512.4 28.4-577.6-340.8-24.4-133.6-2.8-268.4 62.8-400 47.2-95.6 227.6-304.4 544.4-122v-284c0-104.8-.4-104.8 104-104.8 12.4 0 26.4 1.6 38.8 0 40.4-3.2 54.4 17.6 54.4 57.2-.4.8-.4 1.2-.4 2zm-206 929.2c-78 190.4-291.6 173.2-360 20.8-60.4-133.2-62-272.8 1.6-406 65.2-136.4 238.8-142.8 326-19.2 82.4 115.2 59.6 338.4 32.4 404.4zM490.4 1477.6c-30-5.2-132-13.2-134.8-111.2-1.6-55.6 31.2-92 79.2-103.2 97.6-23.6 197.2-39.6 294.8-58.8 35.6-8 29.6 17.6 31.2 38 5.6 132-104.4 236.8-270.4 235.2z"/>
</svg>
