<svg xmlns="http://www.w3.org/2000/svg" viewBox="0 0 1792 2048" height="1em" width="1em">
  <path d="M1388.4 861.6C1435.2 731.2 1570 354 1570 233.2c0-106.4-62.8-195.6-174.8-195.6-178.4 0-338.4 526.8-388.4 652.4C968 576 786.4 0 626.4 0 502 0 443.6 91.6 443.6 206.8c0 141.2 136.8 507.2 186.4 648-25.2-9.2-52.4-17.2-80-17.2-93.6 0-193.2 116.4-193.2 210.4 0 35.6 19.6 85.6 32 118.8-147.6 40-204.4 138.4-204.4 286.8-.4 288.8 273.2 594.4 658 594.4 472 0 765.6-354.4 765.6-811.6 0-172.4-27.6-328-219.6-374.8zM1246.8 432c16-49.2 84.4-257.2 148.4-257.2 34.4 0 43.6 35.6 43.6 64 0 76.4-154.4 498.4-188.4 592l-136-24L1246.8 432zM569.2 193.2c0-47.6 58-182.8 185.2 188.4l138.4 401.2c-62.4-5.2-110.8-12-141.6 5.6-43.6-115.2-182-478.8-182-595.2zM560 976c117.2 0 268.4 378.4 268.4 429.6 0 20.4-19.6 45.6-42.4 45.6-83.6 0-307.6-307.6-307.6-390.8.4-30.8 50.8-84.4 81.6-84.4zm737.2 745.2c-116.4 128-265.2 194.4-438.8 194.4-237.6 0-425.2-130.4-515.6-353.2-68.4-173.6 15.2-273.2 82.4-273.2 45.6 0 217.2 241.2 217.2 292.4 0 19.6-30.8 33.2-46.8 33.2-64.4 0-89.6-62-204.4-205.6-118.8 118.8 82 347.6 233.2 347.6 104.4 0 172.4-96.8 152-168 14.8 0 33.2 1.2 46.8-2.4 4.4 108.4 36.4 237.6 166.8 246.8 0-3.6 8-28.4 8-29.6 0-69.6-42.4-130.4-42.4-201.2 0-113.2 86.8-222.8 174.8-286.8 32-24 70.8-38.8 108.4-52.4 38.8-14.8 80-32 109.6-61.6-4.4-44.8-22.8-84.4-67.6-84.4-110.8 0-482.4 16-482.4-158.8 0-26.8.4-52.4 69.6-52.4 129.2 0 457.2 32 553.2 116.4 72.4 64.4 97.2 452.8-124 698.8zm-394.4-504c38.8 12.4 78.8 16 118.8 24-29.6 21.6-56 48-81.2 76.4-11.2-34-24.8-67.2-37.6-100.4z"/>
</svg>
