<svg xmlns="http://www.w3.org/2000/svg" viewBox="0 0 2304 2048" height="1em" width="1em">
  <path d="M2070 1236.8c155.2-160 232.4-320 234-464.4 3.2-262-237.6-472.8-677.6-540C1111.6 153.6 472.4 294.4 0 562c208-106 442.4-192.8 682.8-232.8 298-82 612-101.6 885.2-59.2 610 95.2 787.2 510 395.2 926.8-40.8 43.2-88 84.4-140 122.4l-603.6-905.6-760.8 1142c-262.4-117.6-306-360.8-76.4-604.8 83.2-88.8 193.2-167.6 318-232.4 80-48.8 158.8-90.4 248-122.8C688 676.8 457.6 807.2 302 967.2c-110.8 114.4-165.6 228.4-166.8 331.6-2 140.4 93.6 260.4 273.6 332l-138 206.8h406.4l88-137.6c88.8 4 181.2 0 274.4-10.8l-91.2 148.4h542L1360 1625.2c74.4-21.2 147.6-46 218-74.8l183.6 287.2H2168L1874.4 1396c74-48.4 140-102 195.6-159.2zm-750.4 322-100-162.4-130.8 213.2c-93.6 14-186.8 20.4-276.8 17.6L1219.6 990l314.8 492c-68.8 29.6-141.2 55.6-214.8 76.8z"/>
</svg>
