<svg xmlns="http://www.w3.org/2000/svg" viewBox="0 0 1792 2048" height="1em" width="1em">
  <path d="M746 1172c0 77.2-56 101.6-124.8 101.6H440.8V1062h184c74.4.4 121.2 31.2 121.2 110zm-30.8-329.2c0-70.8-54.8-87.6-115.6-87.6H441.2v179.2H612c60.4 0 103.2-26.4 103.2-91.6zm529.2 92.8c-73.2 0-122 45.6-126.8 118.8h248.8c-6.8-74-45.2-118.8-122-118.8zM1792 320v1408c0 106-86 192-192 192H192c-106 0-192-86-192-192V320c0-106 86-192 192-192h1408c106 0 192 86 192 192zm-705.2 420H1398v-75.6h-311.2V740zm-172 441.2c0-96.4-45.6-179.6-140-206.4 68.8-32.8 104.8-70.8 104.8-148 0-152.8-114-190-245.6-190H272v768h372.4c139.6-.8 270.4-67.6 270.4-223.6zM1520 1122c0-164.4-96.4-301.6-270.4-301.6-169.6 0-284.4 127.2-284.4 294.4 0 173.2 109.2 292 284.4 292 132.8 0 218.8-59.6 260.4-187.2h-134.8c-14.8 47.6-74.4 72.4-120.8 72.4-89.6 0-136.4-52.4-136.4-141.2h400.8c.4-9.2 1.2-19.2 1.2-28.8z"/>
</svg>
