<svg xmlns="http://www.w3.org/2000/svg" viewBox="0 0 2048 2048" height="1em" width="1em">
  <path d="M664 467.6c0 93.6-65.6 196.4-290 196.4H93.6l84-355.2h271.2C617.2 308.8 664 402 664 467.6zm504.8-158.8H897.6L822.8 664h280.4c215.2 0 280.4-102.8 280.4-196.4.4-65.6-46.4-158.8-214.8-158.8zM355.2 832.4H84L0 1187.6h280.4c224.4 0 290-93.6 290-196.4 0-65.2-46.8-158.8-215.2-158.8zm720.4 0H804.4l-74.8 355.2H1010c215.2 0 280.4-93.6 280.4-196.4 0-65.2-46.8-158.8-214.8-158.8zm757.2-215.2h-271.2l-74.8 355.2h280.4c215.2 0 280.4-93.6 280.4-196.4.4-65.2-46.4-158.8-214.8-158.8zm-112 551.6h-271.2l-74.8 355.2h280.4c224.4 0 280.4-93.6 280.4-196.4 0-65.2-46.4-158.8-214.8-158.8zM963.2 1384H692l-74.8 355.2h280.4c224.4 0 280.4-102.8 280.4-196.4.4-65.2-46.4-158.8-214.8-158.8z"/>
</svg>
