<svg xmlns="http://www.w3.org/2000/svg" viewBox="0 0 1792 2048" height="1em" width="1em">
  <path d="m1272.4 616-37.6 30.4c-90-77.2-206-134.4-333.2-134.4C615.2 512 384 755.2 384 1041.2c0 26.4 1.6 52.4 5.6 77.6-8-224 167.2-389.6 370.4-389.6 96.8 0 184.8 37.6 250.4 98.8l-100.8 81.6c-33.2-3.6-67.2 7.2-92.4 32.4-44.4 44-44.4 115.6 0 160 44.4 44 115.6 44 160 0 25.2-25.2 36-59.6 32.4-92.4l300.8-355.2c25.2-26-13.2-63.6-38-38.4zm-335.2 446c-22.4 22-58.4 22-80.8 0-22.4-22.4-22.4-58.4 0-80.8s58.4-22.4 80.8 0 22.4 58.8 0 80.8zM896 128C402 128 0 530 0 1024s402 896 896 896 896-402 896-896-402-896-896-896zm0 1536c-352.8 0-640-287.2-640-640s287.2-640 640-640 640 287.2 640 640-287.2 640-640 640z"/>
</svg>
