<svg xmlns="http://www.w3.org/2000/svg" viewBox="0 0 2560 2048" height="1em" width="1em">
  <path d="M211.6 854.8h160l-24.8 94.4c-7.6 26-29.6 43.6-57.2 43.6h-74.4c-99.6 0-98.8 149.6 0 149.6h45.2c16.8 0 30.4 15.6 25.6 33.2L257.6 1280H208c-134 0-236-125.6-201.2-260.8C36 911.2 120 854.8 211.6 854.8m80.8 425.2L432 759.6c7.2-25.6 28.8-43.6 57.2-43.6h148c96.4 0 181.6 65.6 204 164.8 26.4 116.4-58 261.2-206.8 261.2h-128l25.6-95.2c7.2-24.8 29.2-43.2 57.2-43.2h41.2c49.6 0 83.2-46.8 73.2-90.4-8.4-36.8-39.6-59.2-73.2-59.2h-79.2L448 1236.8c-7.6 24.8-29.6 42.8-56.8 42.8l-98.8.4m882.4-277.6c1.2-4 7.6-21.2-8.4-21.2h-230c-38.8 0-66.4-35.6-56.8-74l14-53.6h311.6c75.2 0 133.2 70.4 114 147.2l-56 207.2c-11.2 42.4-48.8 71.2-93.6 71.2l-230-.8c-171.6 0-154-255.2 2.8-255.2H1136l-14 52.8c-7.6 24.8-29.6 43.2-56.8 43.2h-86.4c-21.2 0-21.2 31.6 0 31.6h139.6c18.4 0 20.4-15.6 22-21.2l34.4-127.2m412.4-147.6c137.6 0 237.2 129.2 201.2 261.6l-35.2 132.4c-4.8 19.6-22.8 31.2-41.2 31.2h-76.4c-18 0-30.4-16-25.6-33.2l42.4-160c13.2-46.4-22.4-93.6-72.4-93.6h-79.2l-68.8 256c-4.8 19.2-22.4 31.2-41.6 31.2h-75.6c-16.8 0-30.4-15.6-25.6-33.2l104.8-392h193.2m404.8 151.2-32 120c-3.6 13.2 6 26.8 20.4 26.8h293.2l-22.8 84c-7.6 24.8-29.6 42.8-56.8 42.8h-266.8c-80 0-133.2-76-113.2-146.8l43.2-160c19.2-70.4 82.8-118.4 154.4-118.4h189.2c76 0 132.8 70.8 113.2 147.2l-12.8 48c-11.6 44-50.8 70.4-92.8 70.4h-213.6l14-52c6.4-24.8 28.8-43.2 56.8-43.2h86.4c8 0 13.2-4 15.6-12l2.8-10.4c2.8-10.8-5.2-20.4-15.6-20.4h-131.6c-16.4 0-27.6 8.4-31.2 24zm280.8 273.6 142.4-532.4c4.8-18.8 22-31.6 41.6-31.6h75.6c18 0 30.8 16 26 33.2l-106 392.8c-20.4 82.8-96.8 138-179.6 138"/>
</svg>
