<svg xmlns="http://www.w3.org/2000/svg" viewBox="0 0 2560 2048" height="1em" width="1em">
  <path d="M1143.84 861.64c0-22.76 6.32-61.6 38.44-82.04-.52 0-14.72-3.12-35.88 4.48 8.12-12.2 39.88-31.4 41.64-31.4-32.68-104.2-151.96-91.64-128.8-91.64-123.68 0-130.56 1.36-159.56-16.04.52 3.04 2.08 32.64 38.44 59.6 6.4 5.12 11.52 9.6 11.52 26.28v155.08c0 16.68-3.2 21.16-10.88 25.64-.48.28-30.08 17.84-31.4 18.6h140.32c40.08 0 69.64-6.12 103.8-34.6-2.56-19.88.64-37.8 3.2-48.08.04-.64-7 5.76-10.84 14.12zm-119.84 3.2v-138.4c18.32 0 92.28-13.36 92.28 69.2 0 82.88-73.48 69.2-92.28 69.2zm419.08 34.6c2.92-5.84 7.2-20.16-.64-35.88 2.88.48 22.44 1.92 22.44 17.96 0 11.52-11.56 16.64-21.8 17.92zm58.32 30.76h-1.28c14.36-17.24 13.64-47.76-8.96-65.36 4.68 0 78.8 12.8 78.8-69.2 0-82.92-73.44-69.2-92.28-69.2v17.32c-21.56-3.08-29.8 1.08-30.12 1.28 8.32-7.04 17.96-10.24 24.36-11.52-28.2-6.4-54.48 9.6-58.32 14.08 3.2-7.04 9.6-13.44 14.08-17.96-8.96 3.2-17.32 7.68-24.36 12.16 0-20.72 1.04-29.8-11.52-37.8-36.4-26.28-37.96-56.68-38.44-59.6 28.28 16.96 30.76 16.04 159.56 16.04 130.68 6.24 135.2 119.32 135.2 133.92.04 26.52-13.28 135.84-146.72 135.84zm-45.52-77.56c-9.6 0-19.88 1.92-19.88 1.92-1.92-1.92-14.72-11.52-20.52-12.8 16.12 17.12 1.84 39.32-12.16 28.84v-62.8c2.56-3.2 5.12-7.04 8.32-10.24 7.04-8.32 18.6-13.44 30.12-13.44 7.04 0 14.08 1.92 18.6 5.76l3.84 2.56 3.2-3.2c1.92-1.92 6.4-3.84 10.88-5.76v73.68c-7-3.24-14.04-4.52-22.4-4.52zm-12.8-87.12c-23.72-3.2-60.24 12.8-78.8 35.88 3.84-15.36 20.52-40.36 41-51.92 0 0-10.24 12.8-5.76 14.72 6.4 3.2 23.08-23.08 44.84-23.72 0 0-16.04 7.68-12.8 13.44 2.56 3.84 13.44-5.12 32.04-5.12 23.08 0 43.56 14.08 53.2 25-16.04-4.48-46.12 3.2-55.12 10.88-1.04-.8-47.04-35.68-87.8 62.16-19.12-15.32-17.76-14.8-25.64-17.96 17.32-24.28 53.2-61.44 94.84-63.36zm-249.92-71.8c-.8-9.2.2-79.16 80.12-75.6 44.84 2.56 66.64 33.32 66.64 66 0 17.32-8.96 40.36-21.8 55.12-8.84-8.84-22.24-18.64-30.76-31.4 15.36-22.44 8.96-57.68-18.6-57.68-17.32 0-31.4 17.96-25.64 39.72-2.56 9.6-3.84 22.44-1.92 32.04-19.88-10.24-26.28-23.72-30.12-35.88-5.12 10.24-8.32 24.36-4.48 37.8.04 1.28-11.52-8.96-13.44-30.12zm11.56 54.48c-1.92 7.04-28.2 14.72-41 27.56 19.24-3.84 28.2-.64 31.4 7.04 1.92 5.76-.64 13.44-1.92 22.44 6.4-7.04 28.2-21.8 44.2-25-3.84-1.28-13.44-3.2-17.32-3.2 11.52-13.44 37.16-17.96 51.28-14.72-8.96-.64-26.92 4.48-33.96 10.24 6.4 1.28 12.16 2.56 17.32 4.48-8.32 3.2-19.24 13.44-23.08 24.36 28.12-19.84 52.28 20.64 28.2 32.68 3.2.64 10.88 0 14.08-1.92-1.28 4.48-7.68 12.16-12.16 13.44 11.52 0 28.2-7.68 32.68-18.6 0 0-7.04 2.56-10.24-.64s1.28-17.32 1.28-17.32c-9.12 11.72-13.68-5.24-5.12-16.68-3.84-1.28-14.08-2.56-18.6-1.92 12.8-4.48 41.64-7.04 44.84-1.28 2.56 4.48-3.84 13.44-3.84 13.44 16.04-2 33.04 4.52 26.92 20.52 11.52-5.76 21.8-23.72 19.24-41.64-1.28 3.84-6.4 9.6-11.52 10.88.64-5.76-3.84-8.96-7.68-10.24 6.8-38.48-58.48-56.92-56.4-95.48-3.84 5.12-7.04 19.88-3.2 28.2 10.88 12.8 34.6 26.92 40.36 48.72-10.24-25.64-60.24-45.48-58.32-80.76-6.4 6.4-10.24 31.4-5.12 44.2 9.6 5.76 17.96 15.36 19.24 24.36-8.96-20.52-45.48-24.36-55.76-48.72-2.56 8.96-1.28 19.88 3.84 26.92 0 0-8.96-3.2-28.2-2.56 6.36 2.6 19.84 14.16 18.56 21.2zm103.8 29.48c-10.88 0-14.08-8.32-16.68-17.32 12.84 5.16 16.68 17.32 16.68 17.32zm139.68 167.24c7.68 7.04 26.28 12.16 35.88 7.68-15.56 27.68-92.28 30.12-92.28-25.64-11.52 11.52-8.32 29.48 0 37.16-8.96-2.56-23.08-12.16-25.64-29.48-5.24-40.2 17.6-25.84-41.64-72.4-19.24-14.72-12.16-26.28-16.04-33.96-4.4-8.84-27.92-16.52-17.96-33.96-.64 6.4 3.84 11.52 10.24 14.08 7.04 2.56 12.8.64 19.24 3.84 7.04 4.48 3.84 15.36 8.96 19.88 4.48 3.2 16.68-1.28 26.28 7.04 10.24 8.32 32.68 26.92 42.28 34.6 17.32 14.08 35.24-1.92 29.48-18.6 17.96 10.24 19.88 39.72 5.12 50 42.36 9.64 51.88-40.16 19.88-45.48 28.84-2.56 53.84 17.32 53.84 42.92-1.24 25.68-27.52 46.16-57.64 42.32zm-93.56-50.6c-15.36 31.4-44.2 71.76-99.32 71.76-39.84 0-64.32-28.2-62.16-28.2-17-22.64-12 1.2-9.6 7.68-43.56-41-21.16-101.24-20.52-103.8 2.56-7.68 0-8.96-2.56-7.68-3.84 1.28-8.32 7.68-8.32 7.68 3.2-36.52 37.16-58.96 37.16-58.96l.64.64c3.84 5.76-1.92 12.8-2.56 35.88 6.4-8.96 31.4-26.28 45.48-31.4-4.48 5.76-8.32 14.08-8.32 26.28 14.84-16.72 30.04-10.6 32.04-9.6-48.72 47.4-28.2 106.36 12.8 106.36 23.08 0 46.12-25.64 55.76-42.92 9.68 9.64 25.28 22.04 29.48 26.28zm63.44 138.4c-295.76 0-309.88 397.28-1.28 397.28 311.56 0 296.28-397.28 1.28-397.28zm-1.28 310.16c-149.48 0-147.56-221.08.64-221.08 147.48 0 155.32 221.08-.64 221.08zm522.92-298h157l-29.48 33.32v340.92H1982c-16.04-50.64-179.44-180.08-194.16-222.36h-1.28v189.68l29.48 32.68h-155.72l28.84-33.32v-307.6l-29.48-33.96h126.24c11.52 37.8 158.92 146.12 180.72 203.76h1.28v-169.8l-28.2-33.32zm378.68-8.32c-82.68 0-160.2 5.12-201.2 8.32l29.48 32.68v308.88l-29.48 32.68c41.64 3.2 123.68 8.32 206.32 8.32 168.52 0 236.44-82.68 236.44-195.44.04-117.28-92.88-195.44-241.56-195.44zM2258.2 1339v-213.4c120.28-13.36 187.12 15.2 187.12 105.08-.04 102.44-85.84 121-187.12 108.32zm-1206 46.8 28.84 32.68H910.6l30.76-32.68-.64-77.52-176.24-263.36h179.44l-25.64 28.84 83.96 148.68h1.28l82.04-148.68-24.36-28.84h166.6l-176.24 264.64.64 76.24zm-252.48-51.92-56.4 84.6h.64-325.52l29.48-32.68v-308.24l-29.48-32.68 294.12-.64v.64l56.4 83.96H559.4v59.6h148.68l-56.4 84.6v.64l-92.28-.64v61.52l240.32-.68zm-479.96-110.2c68.6-18.28 64.72-72.16 64.72-79.44 0-82.28-96.56-99.96-148.04-99.96H12.16l33.32 34.6v117.92H0l45.48 58.32v128.8l-33.32 34.6c246.96 0 295.24 6.16 345.4-23.72 26.92-16.04 39.72-39.08 39.72-70.48 0-20.52 10.48-75.16-77.52-100.64zm-165.32-110.24c79.92 0 118.56-3.4 118.56 36.52v12.16c0 48.32-75.84 35.24-118.56 35.24v-83.92zM285.8 1313.4c0 44.8-49.72 37.16-131.36 37.16v-90.36c48.8 0 130.72-9.12 130.72 35.24v17.96h.64z"/>
</svg>
