<svg xmlns="http://www.w3.org/2000/svg" viewBox="0 0 2560 2048" height="1em" width="1em">
  <path d="M86.8 985.6c-.4 347.2 116 638 314.8 848.4H0V214h348.8c-166 200.8-262.4 464.8-262 771.6zM2560 214.4h-334.4c125.6 170.8 194.8 390 184.8 650.8 2 24 2 46.8 0 96.4H920.8c-.8 438.8 155.6 779.6 554.4 781.2 274-1.2 472-204 607.6-424.4l385.6 192.8c-69.6 123.6-146 231.2-231.6 323.2H2560v-1620zm-323.2 1620s0-.4 0 0h-.8.8zm-12.4-1620h1.2l-.4-.4-.8.4zm-922.8 38.4c-183.6.4-340.4 134-356.8 332.8h679.6c-4.4-198.8-138-332.4-322.8-332.8z"/>
</svg>
