<svg xmlns="http://www.w3.org/2000/svg" viewBox="0 0 2048 2048" height="1em" width="1em">
  <path d="M1204.4 848c17.6 17.6 17.6 47.6 0 65.2l-38.8 38.8c-17.6 18.8-47.6 18.8-66.4 0l-42-42c-17.6-18.8-17.6-47.6 0-66.4l38.8-38.8c17.6-17.6 47.6-17.6 66.4 0l42 43.2zm-120.8-78.8c12-12 12-31.2 0-42-11.2-12-30-12-42 0-11.2 11.2-11.2 30 0 42 12.4 11.2 31.2 11.2 42 0zm-104 21.2c-12 11.2-12 30 0 40.8 11.2 12 30 12 42 0 11.2-11.2 11.2-30 0-40.8-12-12-30.8-12-42 0zm290-53.2c-79.6-57.6-135.2-172.8-47.6-272.4 86.4-99.6 162.8-68.8 239.2 3.2 47.6 45.2 117.2 99.6 68.8 192.8-50 94-180.4 132.8-260.4 76.4zm190.8-178c-35.6-40-93.2 27.6-62 64.4 29.6 36 128.4 9.6 62-64.4zM2016 1024c0 548-444 992-992 992S32 1572 32 1024 476 32 1024 32s992 444 992 992zm-264.8 170.4c10-64.4-80.8-66.4-100.8-102.8-54.4-96.4-110.8-147.2-218-121.6 46.4-32 94-24.4 94-24.4 1.2-25.6 0-52-37.6-99.6 15.6-50 1.2-89.6 1.2-89.6 62-34.4 107.2-97.6 116.4-172.8 14.4-124-75.2-236.8-199.2-251.2-88.4-10-174.8 30.8-217.2 102.8-92.8 160.4 5.6 283.6 89.6 325.6-57.6-5.6-137.2-47.6-160.4-137.2-26.4-102.8 11.2-199.2 35.6-245.6 0 0-17.6-23.2-32-35.6 0 0-55.2 0-98.4 21.2 47.6-60.8 100.8-57.6 100.8-57.6 0-25.6-2.4-59.6-14.4-86.4-21.6-44-95.2-51.6-126.8 11.2.4-.8 1.2-1.6 1.6-2-20 47.6-4.4 223.6 67.6 348.8-10 5.6-36.4 24.4-52 40-86.4 38.8-224.8 241.2-224.8 241.2C663.6 902 467.6 1062.4 494 1177.6c1.2 12 5.6 22 12 30-11.2 8.8-22 20-33.2 33.2-47.6 55.2-21.2 140.8 70.8 97.6 63.2-28.8 118.4-80.8 145.2-121.6 0 0-22-20-65.2-17.6 110.8-26.4 137.2-37.6 184.8-36.4 32 15.6 32-137.2 32-137.2 0-58.8-8.8-124-44.4-166 50 48.8 116.4 130.8 112 242.4-3.2 73.2-60.8 92-60.8 92-36.4 66.4-172.8 263.6-121.6 424 0 0-38.8-59.6-40.8-88.4-69.6 77.6-186 209.2-98.4 258 106.4 58.8 435.2-354.4 504.8-569.2 138.4-83.2 221.6-189.2 255.6-260 88 174 381.2 378 404.4 236z"/>
</svg>
