<svg xmlns="http://www.w3.org/2000/svg" viewBox="0 0 1792 2048" height="1em" width="1em">
  <path d="M0 128v1792h1792V128H0zm975.2 1397.6c0 174.4-102.4 254-251.6 254-134.8 0-212.8-69.6-252.8-154l137.2-82.8c26.4 46.8 50.4 86.4 108.4 86.4 55.2 0 90.4-21.6 90.4-106V950.8h168.4v574.8zm398.4 254c-156.4 0-257.6-74.4-306.8-172l137.2-79.2c36 58.8 83.2 102.4 166 102.4 69.6 0 114.4-34.8 114.4-83.2 0-57.6-45.6-78-122.8-112l-42-18c-121.6-51.6-202-116.8-202-254 0-126.4 96.4-222.4 246.4-222.4 107.2 0 184 37.2 239.2 134.8l-131.2 84c-28.8-51.6-60-72-108.4-72-49.2 0-80.4 31.2-80.4 72 0 50.4 31.2 70.8 103.6 102.4l42 18c143.2 61.2 223.6 124 223.6 264.8 0 151.2-119.2 234.4-278.8 234.4z"/>
</svg>
