<svg xmlns="http://www.w3.org/2000/svg" viewBox="0 0 2048 2048" height="1em" width="1em">
  <path d="m903.2 1468.4-75.2-204s-122 136-304.8 136c-162 0-276.8-140.8-276.8-366 0-288.4 145.6-391.6 288.4-391.6 266 0 299.2 213.2 403.6 539.6 75.2 227.6 216 410.4 621.6 410.4 290.8 0 488-89.2 488-323.6 0-291.6-250.8-322.4-460-368.4-103.2-23.6-133.6-65.6-133.6-136 0-79.6 63.2-126.8 166.4-126.8 112.8 0 173.6 42.4 182.8 143.2l234.4-28c-18.8-211.2-164.4-298-403.6-298-211.2 0-417.6 79.6-417.6 335.6 0 159.6 77.6 260.4 272 307.2 179.6 42.4 319.2 55.2 319.2 182.8 0 86.8-84.4 122-244 122-236.8 0-335.6-124.4-391.6-295.6-128-387.2-174.4-652-645.2-652C182.8 455.2 0 673.2 0 1044c0 356.4 182.8 548.8 511.6 548.8 264.8 0 391.6-124.4 391.6-124.4z"/>
</svg>
