<svg xmlns="http://www.w3.org/2000/svg" viewBox="0 0 1563.52 2048" height="1em" width="1em">
  <path d="M813.12 2047.56c-3.92-13.04-6.76-63.32-5.56-98.32 2.2-63.56 3.92-98.88 5.6-115.04 2.56-24.8 11.48-82.88 13.12-85.52 2.4-3.84 1.6-111.48-.96-132.52-1.24-10.32-2.52-47.6-2.76-82.92-.52-65.88-2.12-80.48-10.92-99.04-4.4-9.28-4.92-15.36-3.96-45.72.64-19.24 0-42.12-1.36-50.84-8.2-51.88-13.84-110.8-13-135.6.84-24.48 1.72-28.6 8.24-38.68 12.2-18.84 26.04-56.16 34.48-93.08 9.04-39.44 15.52-68.72 18.36-82.96 3.56-17.68 9.72-38.88 17.44-60.2 9.08-25 9.96-61.56 1.48-61.56-1.2 0-5.52 4.88-9.64 10.84-4.12 5.96-19.04 19.2-33.16 29.44-33.48 24.32-46.8 37.56-50.64 50.32-3.72 12.44-4.08 28.92-.64 31.04 1.36.84 5.16 9.6 8.44 19.52 6.48 19.52 7.48 40.48 2.88 61.44-1.56 7.08-4.2 21.88-5.84 32.92-1.64 11.04-3.92 25.84-5 32.88-1.12 7.04-3.88 14.72-6.2 17.04-3.84 3.84-4.56 3.64-8.2-2.12-2.2-3.48-4.8-12.04-5.76-19-1-6.96-6.52-28.44-12.32-47.72-13.12-43.6-14.08-64.6-3.84-83.84 3.68-6.92 6.68-15.24 6.68-18.44 0-9.56-8.8-21.28-29.64-39.56-28.2-24.72-34.52-31.68-40.92-45.2-6.84-14.4-12.24-16.24-18.16-6.16-7.12 12.04-10.4 36.44-11.88 88.08l-1.4 48.52 7.8 9c12.84 14.8 48.28 65.8 55.12 79.32 13.64 26.96 17.36 46.76 17.64 94.24.28 47.36 3.8 91 8 98.84 1.44 2.64 2.04 5.4 1.36 6.08-.68.68 1.64 8.36 5.16 17.08 3.52 8.72 7.24 24.88 8.24 35.92 1 11.04 4.08 29.72 6.84 41.48 8.92 38.24 11.08 56.32 9.56 80.56-.8 13.08-2.12 44.28-2.92 69.28-5.24 167.04-7.4 231.92-8.16 244.84-.48 8.08-1.56 46.04-2.4 84.28-1.44 65.2-5.2 109.48-9.68 114.6-2.56 2.92-32.28-19.64-50.08-37.96-15-15.48-16.08-19.16-11.32-39.8 2.8-12.04 9.04-73.16 13.32-130.48 1.44-19.12 3.24-42 4.04-50.84 3.32-37.48 6.64-81.4 10.44-139.12 2.24-33.84 5.32-65.76 6.88-70.92 1.52-5.16 3.56-39.56 4.52-76.44l1.72-67.08-9.04-17.2c-6.88-13.12-19.48-27.76-52.88-61.36-24.12-24.28-47.36-49.2-51.64-55.4l-7.8-11.24 3-43.6c4.36-62.84 4.4-194.28.08-236.24l-3.56-34.8-13.12-18.08c-23.44-32.32-23.2-31-24.88-133.08-.4-24.28-1.52-46-2.52-48.24-3.32-7.48-12.2-10.64-34.16-12.2-35.44-2.48-43.84-7.6-95.4-58.2-24.6-24.16-49.36-47.88-55-52.76-11.24-9.68-11.16-7.96-2.24-38.52l5.4-18.6-6.76-12.16c-3.72-6.68-8.36-14.04-10.36-16.28-5.32-6.04-22-43.56-23.96-53.96-1.24-6.64-.36-10.68 3.48-15.6 8.92-11.44 13.6-22.72 17.8-42.92 9.32-44.76 30.96-104.36 42.4-116.88 12.72-13.88 30.8-4.2 37.64 20.12 5.36 19.16 5.48 39.16.4 74.2-2.12 14.72-3.92 34.72-3.96 44.44-.08 16.04.76 18.76 9 29.56 13.32 17.48 30.92 29.64 60.8 42.08 6.8 2.84 15.28 7.96 18.88 11.4 44.68 42.88 74.48 64.72 91.8 67.4 20.72 3.2 31.92 18.16 40.16 53.56 5.24 22.6 16 44.56 21.84 44.56 2.36 0 8.36-2.52 13.32-5.56 7.92-4.88 9-6.92 9-16.72-.04-14.84-4.68-56.32-8-71.36-1.48-6.64-3.12-16.24-3.72-21.4-.56-5.16-2.44-15.4-4.12-22.76-10.2-44.64-14.6-61.84-16.4-64.2-6.2-8.08-16.32-40.8-19.72-63.68-6.56-44.44-15.84-56.92-51.64-69.56-18.56-6.56-35.56-16.48-53.28-31.12-4.6-3.8-16.04-12.88-25.4-20.24-9.4-7.32-17.64-14.12-18.4-15.04-.72-.92-5.56-4.56-10.76-8.08-24.96-16.88-35.36-27.92-45.04-47.84l-9.76-20.08-.88-51.92-.88-51.92 27.64-26.2c15.8-15 33.92-29.4 42.36-33.72 13.24-6.76 17.8-7.56 45.48-8.2 34.12-.76 40.48.08 46.64 6.24 6.12 6.12 5.44 25.6-1.16 34-2.96 3.76-5.36 7.92-5.36 9.28 0 2.32-10.44 19.64-21.68 35.96-2.72 3.96-8.52 21.4-9.48 27.28 81.76 53.56 86.2 15.08 56.28 115.92l45.6 10.16c12.44-34.64 25.88-69.04 34.44-104.88 1.16-30.52-47.92-16.76-61.6-34.72-9.32-23.72 12.52-56.72 24.24-76.8 6.4-9.36 26.48-18.8 35.28-16.6 3.52.88 16.64-1.4 29.48-5.12 12.72-3.68 26.32-6.72 30.2-6.72 3.88 0 14.64-2.32 23.92-5.16 14.6-4.44 18-4.68 25.4-1.6 4.68 1.92 15.16 4.36 23.28 5.44 8.08 1.04 18.88 4.48 24 7.64 5.12 3.16 14.12 7.08 20.08 8.68 10.04 2.72 12 2.28 28.2-6.68l17.4-9.6 42.8-1.64c41.76-1.6 43.24-1.88 61.04-10.72l18.32-9.2 9.84 5.72c7.04 4.08 12.56 10.92 19.4 23.92 9.44 18.04 9.52 18.32 5.48 29.48-3.52 9.76-3.56 13.2-.4 25.56 2 7.84 5.8 18.48 8.4 23.64 2.6 5.16 4.96 12.36 5.24 16.04 1.24 17.32-.12 21.2-9.64 27.68-8.68 5.88-27.92 31.64-27.92 37.36 0 1.28-1.92 6.76-4.28 12.12-20.16 46.04-27.04 54.24-57.04 67.92-36.8 16.8-49.2 20.76-64.84 20.76-12.4 0-16 1-18.16 5.04-1.48 2.76-8.84 9.48-16.36 14.84-8.16 5.88-15.2 13.52-17.52 19.12-2.16 5.12-6.64 10.36-9.96 11.64-3.32 1.28-7.76 4.32-9.8 6.84-2.08 2.48-14.64 12.16-28 21.52-13.32 9.36-27.48 20.08-31.48 23.84-4 3.76-8.28 6.84-9.56 6.84s-5.12 2.96-8.52 6.6c-5.24 5.56-5.96 8.44-4.56 18.4.88 6.52 3.44 17.08 5.68 23.52 5.28 15.2 5.24 31.44-.2 42.28-5.72 11.44-3.56 26.6 5.4 38.36 8.04 10.52 8.64 18.24 2.84 35.36-2.44 7.2-4.2 21.8-4.24 35.64-.08 19.52.88 25.12 5.84 33.52 4.8 8.16 7.28 9.92 12.96 9.28 7.92-.92 9.2-4.2 18.84-48.48 8.72-40.12 14.84-47.68 55.04-68.32 11.76-6.04 29.84-15.84 40.12-21.76 10.32-5.92 27.16-14.76 37.48-19.64 26.68-12.64 44.2-26.08 60.88-46.68 28.44-35.16 39.92-64.88 51.4-133.2 2.2-13.12 5.72-22.6 11.44-30.92 5.16-7.48 9.48-18.48 11.56-29.24 4.08-21.2 11.4-36.32 22.32-46.04 18.8-16.72 24-4.36 18.36 43.48-1.84 15.44-4.4 41.32-5.76 57.52l-2.44 29.44 17.8 16.36 17.8 16.36.44 33.68c.24 18.52 1.88 38.12 3.68 43.56l3.28 9.88-25.72 25.12c-34.16 33.32-51.52 55.72-67.04 86.44-7.08 13.96-14.96 28.44-17.52 32.12-8.72 12.44-25.84 52.04-35.04 81.04l-9.16 28.88-27.88 25.96c-15.32 14.28-31.84 29-36.68 32.68-12.2 9.28-17.04 20.6-17.04 39.96 0 11.92 1.72 19.84 6.36 29.04 3.48 6.96 7.24 15.64 8.36 19.32 1.12 3.68 3.92 8.88 6.28 11.56 5.6 6.36 7.68 64.48 3.32 92.88-2.72 17.92-14.52 48.08-18.8 48.08-7.16 0-16.24 37.08-20.28 82.96-.72 8.08-2.48 23.76-3.92 34.8-1.44 11.04-3.84 39.92-5.4 64.2-3.08 48.88-.76 75.08 8.2 92.6 13.64 26.76 2.08 50.76-44.12 91.36l-15.88 13.96.28 20.76c.16 11.44 2.2 27.4 4.56 35.48 18.44 63.92 18.92 67.68 17.52 148.52-1.84 105.6-1.04 161.08 2.52 176.6 1.68 7.36 3.64 20 4.32 28.08.68 8.08 2.64 21.32 4.32 29.44 1.88 9.04 3.12 44.08 3.16 90.96l.08 76.24-7.24 10.52c-10.84 15.64-60.44 54.16-61.96 49.16zm118.12-180.44c-.72-1.2-1.32-27.48-1.32-58.36 0-56.24-3.56-110.16-9.04-137.8-1.6-8.08-3.24-38.8-3.6-68.24-.6-47.72-5.6-97.48-10.56-105.52-2.64-4.28-12.08-70.64-12.12-85.2-.04-16.92 4.08-24 21.12-36.52 16.56-12.16 19.44-12.56 21.92-2.88 1.12 4.4 5.8 22.48 10.4 40.12 15.72 60.48 16.56 65.08 16.2 86.96-.4 23.12-.52 24.52-6.96 70.92-3.92 28.28-4.68 49.56-4.16 113.72.68 77.6-2.56 142.92-8.16 165.08-2.84 11.12-11.2 21.92-13.72 17.72zM647.28 1716.8c-.96-1.52-4.04-20.96-6.92-43.16-2.88-22.24-5.96-41.64-6.92-43.16-.92-1.52-2.72-13.2-3.96-25.96-1.24-12.76-3.64-29.84-5.32-37.92-3.96-19.16-13.4-77.4-13.68-84.28-.12-2.96-1.36-16.2-2.8-29.44-2.68-24.84-3.36-110.68-.88-113.16 3.84-3.84 26.52 11.04 45.32 29.72l21.12 21-1.8 25.88c-1 14.24-2.4 40.92-3.12 59.32-.72 18.4-1.96 39.48-2.68 46.84-.72 7.36-2.44 37.44-3.76 66.88-3.16 69.64-7.76 125.16-10.6 128-1.28 1.2-3.04.96-4-.56zM298.52 650.44c84.28 51.16 71.36 56.6 113.96 70.64 52.04 17.16 75.48 28.52 92.6 67.48-174.64 144.56-276.04 231.6-306.84 283.28-124.08 208.04-23.96 406.36 251 348.84-56.72 116.92-311.88 114.52-394.72-19.6-98.72-159.8-88.36-473.2 244-750.64zm843.16 716.08c226.64 27.52 329.28-150.96 186.16-356.92 0 0-107.48-117.36-257.12-271.84 11.92-61.8 37.96-128.48 122.28-215.28 356.8 254.04 368 566.44 369.84 597.44 17.08 282.32-314.64 364.48-421.16 246.6z"/>
</svg>
