<svg viewBox="0 0 1792 1792" xmlns="http://www.w3.org/2000/svg" height="1em" width="1em">
  <path d="M854.875 552.125V666.75h-49V272.125q-2.625-10.5-28-23.625Q761.25 238 728 223.125q-16.625-4.375-16.625-9.625l.875-2.625q5.25-7 34.125-7 11.375 1.75 23.625 3.938t24.5 5.687q11.375 2.625 21.875 5.25t22.75 7q14 5.25 17.5 12.25.875.875.875 4.375v4.813l-1.75 5.687V528.5h41.125q5.25-1.75 10.063-2.625t8.312-2.625l11.375-5.25q10.5-7.875 18.375-7.875 7.875-3.5 23.625-3.5l16.625.875q16.625 0 26.25 7.875 9.625 7 9.625 15.75v2.625q0 7.875-7 13.125-7.875 5.25-20.125 5.25H854.875zM553 356.125q-20.125 1.75-34.125 2.625T497 360.5q-33.25 1.75-51.625 5.25-7.875.875-13.563 3.063t-13.562 3.937q-7.875 4.375-15.75 4.375-3.5 0-6.125-.875-16.625-3.5-58.625-23.625-20.125-13.125-20.125-18.375v-.875q1.75-3.5 9.625-3.5t14.438 1.75 14.437 3.5 17.938 3.5 25.812 1.75q7 0 13.563-.438t8.312-.437l168-5.25q3.5-1.75 6.563-2.188t7.437-1.312q1.75 0 7.875-3.5 3.5-.875 6.125-1.75t6.125-.875q1.75 0 4.375-.438t6.125-.437 7 .438 7 .437q29.75 4.375 32.375 10.5v1.75q0 5.25-8.75 14.875l-7 11.375q-28 66.5-61.688 122.5T529.375 588q-39.375 47.25-92.75 93.188t-122.5 92.312q-17.5 12.25-24.5 12.25-2.625 0-2.625-.875-.875 0-.875-.875 0-5.25 21-21.875 92.75-73.5 178.5-183.75 47.25-62.125 76.563-117.688t44.187-106.312zm746.375 732.375v494.375h-94.5V666.75h94.5v346.5H1491v75.25h-191.625zM1091.125 784q-13.125 468.125-495.25 742l-56-65.625q87.5-35 160.125-92.313t142.625-138.687q67.375-80.5 106.313-168.438t51.187-192.062H645.75V784h445.375z"/>
</svg>
