<svg xmlns="http://www.w3.org/2000/svg" viewBox="0 0 2048 2048" height="1em" width="1em">
  <path d="M396 1657.2c4.4 22.8-9.2 44.4-32 49.2-21.6 4.4-43.6-9.2-48-32-4.4-21.6 9.2-44.4 30.8-49.2 21.6-4.8 44.4 9.2 49.2 32zm572.4 285.6c-25.2 18.4-32 53.6-14.8 80 18.4 26.4 53.6 33.2 80 14.8 25.2-18.4 32-53.6 13.6-80-16.8-26-52.4-33.2-78.8-14.8zM624.4 93.6c25.2-5.6 41.2-30.8 35.6-56-4.4-26.4-29.6-42.4-54.8-36.4C580 6.8 564 32 568.8 57.2c5.6 26.4 30.4 42.4 55.6 36.4zM137.6 905.2c-40-27.6-94.8-17.2-122.4 24-27.6 40-17.2 96 22.8 123.6 40 28.4 94.8 18.4 122.4-22.8 27.6-41.6 17.2-96.4-22.8-124.8zm1088-683.6c42.4-25.2 54.8-80 30.8-121.2-25.2-42.4-78.8-56-120-30.8s-54.8 80-29.6 122.4c24 41.2 77.6 54.8 118.8 29.6zm-764.4 232c30.8-21.6 37.6-64 17.2-94.8s-62.8-37.6-92.4-17.2c-30.8 21.6-37.6 64-17.2 94.8 20.4 31.2 62.4 38 92.4 17.2zm1489.2 624c-29.6 6.8-49.2 36.4-42.4 67.6 5.6 29.6 35.6 49.2 65.2 42.4 29.6-5.6 49.2-35.6 42.4-66.4-6-29.6-35.6-49.2-65.2-43.6zm158.8-227.2c-4.4-22.8-26.4-36.4-48-32-22.8 4.4-36.4 27.6-32 50.4 4.4 21.6 26.4 36.4 49.2 32 21.6-6 36.4-27.6 30.8-50.4zM1788 555.6c-34.4 24-42.4 70.8-19.6 105.2 22.8 34.4 69.6 42.4 104 19.6 33.2-24 41.2-70.8 18.4-105.2-22.8-34.8-69.6-43.6-102.8-19.6zm-25.2 557.6c105.2 172.4 60.4 400-105.2 516.4-69.6 49.2-148.4 70.8-227.6 68.4-48 188.4-277.6 258.4-420.4 130.4-4.4 3.6-10.4 6.8-14.8 11.6-156.4 108.4-369.2 69.6-477.6-89.2-38.8-57.2-58.4-122.4-60.4-187.6-261.6-43.6-360-376-164.4-558.8-113.2-187.6 2.4-429.6 213.6-459.6C606.4 280 936.4 154.4 1160.4 328c269.6-89.2 545.2 117.6 523.6 404.4 164.4 50.4 211.2 267.6 78.8 380.8zm-280 297.2c-12.4-82.4-163.6-18.4-172.4-108.4-12.4-128 174.8-404.4 160-512-13.6-96-77.6-116.4-133.6-117.6-53.6-1.2-67.6 8-85.6 18.4-11.6 6.8-26.4 19.6-46.8-1.2-25.2-24-44.4-46.8-77.6-51.6-49.2-8-70.8 8-106.4 38.8-13.6 11.6-48 51.6-80 36.4-13.6-6.8-61.6-30.8-96-45.6-65.2-28.4-160 18.4-194.4 80-51.6 91.6-152 452.4-166.8 500.4-34.4 106.4 43.6 194.4 147.6 188.4 44.4-2.4 73.2-18.4 101.6-69.6 16-29.6 166.8-430.8 178.4-450.4 8-13.6 35.6-32 58.4-20.4 22.8 12.4 27.6 37.6 24 60.4-4.4 38.8-112 283.6-115.6 310.8-13.6 91.6 107.6 106.4 154.4 16 14.8-28.4 182.8-370.4 197.6-393.2 17.2-25.2 29.6-33.2 46.8-32 12.4 0 33.2 3.6 28.4 43.6-5.6 37.6-140.4 289.2-155.6 350.8-18.4 82.4 26.4 165.6 99.6 202.4 45.6 22.8 250 62.8 234-44.4zm22.8 369.2c-41.2 29.6-51.6 88-22.8 130.4 28.4 42.4 85.6 52.4 128 24 42.4-29.6 52.4-88 24-130.4-29.6-42.4-86.8-54-129.2-24z"/>
</svg>
