<svg xmlns="http://www.w3.org/2000/svg" viewBox="0 0 1600 2048" height="1em" width="1em">
  <path d="M352 32.4S885.6-.4 836 450c0 0 76.4-299.6 412-162.4 0 0-70.8 296-352 224 0 0 58.4-218.4 264.4-226.4 0 0-159.6-41.2-328.4 195.2 0 0-79.2-378-374.4-398.8 0 0 300.8 77.6 310.4 430 0 .4-425.6 28-416-479.2zm1248 1262.4c0 194-38.8 381.2-128 529.2-168.8 123.6-420 192-672 192-251.6 0-503.2-68.4-672-192C38.8 1676 0 1488.8 0 1294.8 0 1101.2 70.8 916 160 768c168.8-123.6 388.4-194.4 640-194.4 252 0 471.2 70.4 640 194.4 89.2 148 160 333.2 160 526.8zM480 1712c0-62-50-112-112-112s-112 50-112 112 50 112 112 112 112-50 112-112zm0-264.8c0-62-50-112-112-112s-112 50-112 112 50 112 112 112 112-50 112-112zm0-264.8c0-62-50-112-112-112s-112 50-112 112 50 112 112 112 112-50 112-112zM768 1712c0-62-50-112-112-112s-112 50-112 112 50 112 112 112 112-50 112-112zm0-264.8c0-62-50-112-112-112s-112 50-112 112 50 112 112 112 112-50 112-112zm0-264.8c0-62-50-112-112-112s-112 50-112 112 50 112 112 112 112-50 112-112zm288 529.6c0-62-50-112-112-112s-112 50-112 112 50 112 112 112 112-50 112-112zm0-264.8c0-62-50-112-112-112s-112 50-112 112 50 112 112 112 112-50 112-112zm0-264.8c0-62-50-112-112-112s-112 50-112 112 50 112 112 112 112-50 112-112zm288 529.6c0-62-50-112-112-112s-112 50-112 112 50 112 112 112 112-50 112-112zm0-264.8c0-62-50-112-112-112s-112 50-112 112 50 112 112 112 112-50 112-112zm0-264.8c0-62-50-112-112-112s-112 50-112 112 50 112 112 112 112-50 112-112zm96-158.4c-19.2-89.2-29.6-147.6-64-224-155.2-79.6-362-128-576-128s-420.8 48.4-576 128c-35.2 78-44.8 135.6-64 224 168.8-31.6 394.8-59.2 640-59.2s471.2 27.6 640 59.2z"/>
</svg>
