<svg xmlns="http://www.w3.org/2000/svg" viewBox="0 0 2560 2048" height="1em" width="1em">
  <path d="M2560 99.6c-323.2 214.4-357.6 370-385.6 417.6-26.8 48.8-46.8 241.2-93.2 334.4-46.8 94.4-216.8 168.8-264.4 200-46.8 31.2-113.2 152.4-167.6 256.8-432.4-17.6-669.6 155.2-1036.8 374.4C730 1644 785.6 1616 785.6 1616c376.8-144 557.2-273.2 1124.4-196.8 4.4 0 7.6 2.4 11.2 3.2 15.6 8.8 21.2 27.6 12.4 43.2L1718 1848.8c-10 18.8-31.2 28.8-52.4 24.4-507.2-95.2-907.6 69.2-1275.6 74.4-293.6 4.4-390-134-390-140.4 0-4.4 2.4-6.8 6.8-6.8 0 0 153.2 0 412.4-61.2C713.6 1178 976 981.6 1261.6 981.6c0 0 286.8 0 362.4 247.6 91.2-158.8 113.2-196.8 113.2-196.8 21.2-37.6 140-308.8 345.6-565.6 206-256 361.6-319.6 477.2-367.2z"/>
</svg>
