<svg xmlns="http://www.w3.org/2000/svg" viewBox="0 0 1536 2048" height="1em" width="1em">
  <path d="M816 26C405.6 26 0 299.6 0 742.4 0 1024 158.4 1184 254.4 1184c39.6 0 62.4-110.4 62.4-141.6 0-37.2-94.8-116.4-94.8-271.2 0-321.6 244.8-549.6 561.6-549.6 272.4 0 474 154.8 474 439.2 0 212.4-85.2 610.8-361.2 610.8-99.6 0-184.8-72-184.8-175.2 0-151.2 105.6-297.6 105.6-453.6C817.2 378 441.6 426 441.6 746c0 67.2 8.4 141.6 38.4 202.8-55.2 237.6-168 591.6-168 836.4 0 75.6 10.8 150 18 225.6 13.6 15.2 6.8 13.6 27.6 6 201.6-276 194.4-330 285.6-691.2 49.2 93.6 176.4 144 277.2 144 424.8 0 615.6-414 615.6-787.2C1536 285.2 1192.8 26 816 26z"/>
</svg>
