<svg xmlns="http://www.w3.org/2000/svg" viewBox="0 0 2304 2048" height="1em" width="1em">
  <path d="M2283.6 1489.2c-45.2 56.8-155.2 97.2-155.2 97.2L1308 1880.8v-217.2l603.6-215.2c68.4-24.4 79.2-59.2 23.2-77.6-55.6-18.4-156.4-13.2-224.8 11.6l-402 142v-225.6c92.8-31.2 188.4-54.4 302.8-67.2 163.6-18 363.6 2.4 520.8 62 176.8 56 196.8 138.8 152 195.6zm-897.6-370v-556c0-65.2-12-125.2-73.2-142.4-46.8-15.2-76 28.4-76 93.6V1906l-375.2-119.2V128c159.6 29.6 392 99.6 516.8 141.6 318 109.2 425.6 245.2 425.6 551.2 0 298-184 411.2-418 298.4zM172.8 1640.8c-181.6-51.2-212-158-129.2-219.2 76.4-56.8 206.8-99.6 206.8-99.6l538-191.2v218l-387.2 138.4c-68.4 24.4-78.8 59.2-23.2 77.6 55.6 18.4 156.4 13.2 224.8-11.6l185.6-67.6v195.2c-206.4 37.2-405.6 29.2-615.6-40z"/>
</svg>
