<svg xmlns="http://www.w3.org/2000/svg" viewBox="0 0 1792 2048" height="1em" width="1em">
  <path d="M1735.016 1681.78c-46.104 5.572-179.44-210.964-179.44-210.964 0 125.38-64.544 288.988-204.204 407.144 67.368 20.768 219.372 76.668 183.212 137.684-29.264 49.372-502.04 31.524-638.528 16.148-136.488 15.376-609.264 33.224-638.528-16.148-36.18-61 115.672-116.856 183.132-137.66-139.68-118.156-204.236-281.78-204.236-407.168 0 0-133.336 216.536-179.436 210.964-21.48-2.6-49.696-118.576 37.388-398.816 41.044-132.096 87.98-241.912 160.576-423.116C242.732 392.252 435.928.024 896 0c454.948.024 652.624 384.532 641.056 859.852 72.472 180.892 119.648 291.4 160.576 423.112 87.072 280.24 58.864 396.212 37.384 398.816z"/>
</svg>
