<svg xmlns="http://www.w3.org/2000/svg" viewBox="0 0 1792 2048" height="1em" width="1em">
  <path d="M1762 1546.8h-117.2c-6 54-42 123.2-132 123.2-82 0-141.2-56.8-198-143.2 176.8-136.8 298.8-350 298.8-612C1614 444.8 1227.2 128 820 128 421.2 128 29.2 446.8 29.2 914.8c0 536.4 525.2 886.4 996 756C1104 1805.2 1208 1920 1406 1920c327.2 0 363.2-301.2 356-373.2zm-574-230C1110 1200 1013.2 1108 822 1108c-122 0-217.2 40-276 91.2l48.8 97.2c24.8-12 52-16 79.2-16 142 0 214.8 123.2 276.8 245.2-40 12-82.8 16.8-130.8 16.8-300 0-430-212-430-626.8C390 498 520 284 820 284c304.8 0 434.8 214 434.8 630.8.4 167.2-21.6 302.4-66.8 402z"/>
</svg>
