<svg xmlns="http://www.w3.org/2000/svg" viewBox="0 0 2048 2048" height="1em" width="1em">
  <path d="M1629.6 246c-303.2-157.6-598.4-122-898 18-45.2 20.8-62 42.4-79.6 76-41.2 76.8-64.8 149.6-79.6 210.8-84.8 102.4-145.6 224.4-173.2 359.6-42.4 72-83.6 165.6-92.4 285.6 0 0-2.8 30.4-2 31.6-141.2-18.4-304.8-108-304.8-108 36.4 58 245.2 129.2 305.2 151.6 0 0 6.8 392 258 524.8-45.2-68.8-53.2-80.8-53.2-80.8S379.2 1476 401.6 1298.8c2.8 0 6 .8 8.8.8 95.6 349.6 412.8 605.6 787.6 605.6 24.8 0 48.4-.8 72-2.8 56 6 110.4 2 160.4-15.6 27.6-8.8 55.2-25.6 80.8-43.2 280.8-156.4 403.6-328 492.4-590.8 21.6-64 32.4-142 39.2-208.8 34.8-329.2-122.4-646.4-413.2-798zM555.2 652.8s-4.8 49.2-2.8 78.8c-13.6 10-40.4 32.4-72.8 66.8 20.8-51.2 45.2-100.4 75.6-145.6zm-124.8 487.6C448 1071.6 483.6 984 549.6 920c0 0 6.8 192 63.2 360.4l-165.6-27.6c-8.8-36.8-14-74-16.8-112.4zm31.6 171.2c59.2 12.8 136 30.4 172.4 36.4 109.2 307.2 433.2 497.2 433.2 497.2 4 2 6.8 2.8 10.8 4-292.4-46.4-530.8-258.8-616.4-537.6zm1082 464.8c-58 18.8-144.8 33.6-258.8 14.8 0 0-364.4-92.4-510-431.2 152.8 2.8 209.6-.8 312-15.6 157.6-22.8 316-64.8 460-132 47.2-21.6 44.4-77.6 38.4-119.2-8-51.2-44.4-48.4-85.6-18.8 0 0-328 234.4-759.2 214.8C666 1161.2 633.6 846 633.6 846c165.6-140.8 332.8-238.4 673.6-209.6.8-25.6 12-108.4-81.6-112.4 0 0-374-44.4-584 134 10-66 23.6-117.2 44.4-157.6 136.8-123.2 316-198 513.2-198 425.6 0 772 348.4 772 778-.8 304-175.2 568-427.2 696z"/>
</svg>
