<svg xmlns="http://www.w3.org/2000/svg" viewBox="0 0 1792 2048" height="1em" width="1em">
  <path d="m1402 630.8-216.8-184.4 293.6-156L1792 467.2l-390 163.6zM768 488.4l182.8-112.8L1089.6 514 868 630 768 488.4zm-260.4 26.4 127.6-88.4L704 540l-146.8 90-49.6-115.2zm-93.2 352.8-35.2-139.2 118.4-73.2L550 796.4l-135.6 71.2zm-84.8-334.8 95.6-72.4 35.6 96L354 629.6l-24.4-96.8zM236 826l-14.4-113.6 89.2-62 24.4 114.8L236 826zm-122.4 66.4 83.2-51.2L210 974.8l-91.6 48-4.8-130.4zM5.6 1072l76.8-40.8L84 1184l-84 35.2L5.6 1072zM242 1309.2l-113.2 33.2-6.4-187.2 100.4-42.8 19.2 196.8zm154-256.4-124.4 52-20.8-163.2L360.4 884l35.6 168.8zm96.8 455.2-166.4 23.6-32.4-254 140.8-43.2 58 273.6zm114-559.6 84.8 228.4-184.8 54.4-54.8-216.4 154.8-66.4zm342.8 922L666 1857.2 568.8 1474l220.8-34.4 160 430.8zM610 751.6 778.8 662l112 183.6-203.2 85.2L610 751.6zm164 379.6 245.2-74.8 211.2 346.4-319.2 45.2L774 1131.2zm205.6-342.4 269.2-115.2 262 261.6-354.4 104.8-176.8-251.2z"/>
</svg>
