<svg xmlns="http://www.w3.org/2000/svg" viewBox="0 0 1792 2048" height="1em" width="1em">
  <path d="M1580.832 886.332H1624V1020.5h-43.168V886.332zm0-38.5H1624V713.664h-43.168v134.168zm0 345.332H1624V1059h-43.168v134.164zM1435 541h-134.168v42H1435v-42zm145.832 824.832H1624v-134.168h-43.168v134.168zM1246 541h-134.168v42H1246v-42zm-189 0H924v42h133v-42zm-189 0H735v42h133v-42zm712.832 134.168H1624V541h-134.168v42h91v92.168zm-1023.168 1036 122.5 53.668 17.5-39.668-122.5-53.668-17.5 39.668zM716.332 1780l121.336 54.832 17.496-39.664-121.332-53.668-17.5 38.5zm864.5-241.5H1624v-134.168h-43.168V1538.5zM241.5 1571.168l122.5 53.664 17.5-38.496L259 1531.5l-17.5 39.668zm158.664 69.996 122.5 53.668 17.5-39.668-122.5-53.664-17.5 39.664zm529.668 154.004 17.5 39.664L1069.836 1780l-17.5-38.5-122.504 53.668zm473.668-208.832 17.5 38.496 122.496-53.664L1526 1531.5l-122.5 54.836zm-157.5 68.828 17.5 39.668 122.5-53.668-17.496-39.664L1246 1655.164zm-158.668 70.004 17.5 39.668 122.5-53.668-17.5-39.668-122.5 53.668zM1246 186.332h-134.168v42H1246v-42zm376.836 0h-133.004v42h133.004v-42zm-754.836 0H735v42h133v-42zm567 0h-134.168v42H1435v-42zm-378 0H924v42h133v-42zm735-171.5v1624l-905.336 394.336L0 1638.832v-1624h1792zm-116.664 467.832H116.664V1563l771.168 343 787.5-343V482.664zm0-351.164H116.664V366h1558.668V131.5zM302.168 186.332H169.164v42h133.004v-42zm378 0H546v42h134.168v-42zm-189.004 0H357v42h134.168v-42zM521.5 1132.5c0-200.668 164.5-365.168 365.168-365.168 201.832 0 365.168 164.5 365.168 365.168 0 201.832-163.332 365.168-365.168 365.168C686 1497.664 521.5 1334.332 521.5 1132.5zm483 72.336c0 52.5-95.668 57.164-130.664 57.164-49 0-119-10.5-143.5-59.5h-3.5l-36.172 73.5c59.504 37.332 116.668 49 189 49 78.168 0 204.168-23.332 204.168-124.836 0-192.5-313.832-65.332-313.832-151.664 0-52.5 82.832-59.5 119-59.5 43.164 0 116.664 12.832 142.332 52.496h3.5l35.004-67.664c-60.668-24.5-109.668-47.836-177.336-47.836-80.5 0-198.332 25.668-198.332 127.168 0 177.336 310.332 47.836 310.332 151.672zM491.164 541H357v42h134.168v-42zm-279.996 42h91v-42H168v134.168h43.168V583zm0 130.664H168v134.168h43.168V713.664zm469-172.664H546v42h134.168v-42zm-469 345.332H168V1020.5h43.168V886.332zm0 345.336H168v134.168h43.168v-134.168zm0-172.668H168v134.168h43.168V1059zm0 345.332H168V1538.5h43.168v-134.168z"/>
</svg>
