<svg xmlns="http://www.w3.org/2000/svg" viewBox="0 0 2048 2048" height="1em" width="1em">
  <path d="M1924.8 256h-424c-58 0-106.4 47.2-106.4 105.2v158.4H653.2V361.2c0-58-48-105.2-106.4-105.2h-424c-58.4 0-105.6 47.2-105.6 105.2v1325.6c0 58 47.2 105.2 106.4 105.2h1801.6c59.2 0 106.4-47.2 106.4-105.2V361.2c-.8-58-48-105.2-106.8-105.2zM599.2 1423.2c-146.4 0-265.6-118.8-265.6-265.6 0-147.6 118.8-266.4 265.6-266.4 147.6 0 266.4 118.8 266.4 266.4 0 146.8-118.8 265.6-266.4 265.6zm849.6 0c-147.6 0-266.4-118.8-266.4-266.4 0-146.4 118.8-265.6 266.4-265.6 146.4 0 265.6 118.8 265.6 265.6 0 147.6-119.2 266.4-265.6 266.4z"/>
</svg>
