<svg xmlns="http://www.w3.org/2000/svg" viewBox="0 0 1792 2048" height="1em" width="1em">
  <path d="m976.8 870 77.2 230.8-239.2 80L737.6 950l239.2-80zm165.6 974.8c-616 184.8-882.4 41.6-1067.2-574.4S33.6 388 649.6 203.2c616-184.8 882.4-41.6 1067.2 574.4 184.8 616 41.6 882.4-574.4 1067.2zm322.4-784.8c-15.6-48.8-68.8-74.4-117.6-58.8l-116 38.8-77.2-230.8 116-38.8c48.8-15.6 74.4-68.8 58.8-117.6-15.6-48.8-68.8-74.4-117.6-58.8l-116 38.8-40-120.4c-15.6-48.8-68.8-74.4-117.6-58.8-48.8 15.6-74.4 68.8-58.8 117.6l40 120.4L679.6 772l-40-120.4c-15.6-48.8-68.8-74.4-117.6-58.8-48.8 15.6-74.4 68.8-58.8 117.6l40 120.4-116 38.8c-48.8 15.6-74.4 68.8-58.8 117.6 12.8 37.2 48.8 61.6 86 63.2 17.2 2.4 30.8-4 147.6-42.8l77.2 230.8-116 38.8c-48.8 15.6-74.4 68.8-58.8 117.6 12.8 37.2 48.8 61.6 86 63.2 17.2 2.4 30.8-4 147.6-42.8l40 120.4c14.8 43.2 63.2 74.4 117.6 58.8 48.8-15.6 74.4-68.8 58.8-117.6l-40-120.4 239.2-80.4 40 120.4c14.8 43.2 63.2 74.4 117.6 58.8 48.8-15.6 74.4-68.8 58.8-117.6l-40-120.4 116-38.8c48.8-16.8 74.4-70 58.8-118.4z"/>
</svg>
