<svg xmlns="http://www.w3.org/2000/svg" viewBox="0 0 1723.48 2048" height="1em" width="1em">
  <path d="M220.04 1567.12C-97.6 1214.36-67.8 669.68 286.6 350.56s899.2-291.84 1216.84 60.96 287.84 897.44-66.56 1216.56c-74.96 67.48 256.12 172.36 168.08 209.04-328.24 136.84-1015.64 140.16-1384.92-270zm853.24-846.4 154-163.44c-38.44-35.56-128.08-107.32-304.68-110.4-209.32-3.64-383.44 113.2-387.08 319.84-.8 45.32 1.16 146.88 117.68 219.32 137.84 85.68 346.08 86.04 343.92 209.04-1.48 85.12-105.68 103.24-154.36 102.4-11.92-.2-120.92-1.84-190.44-98.48l-159.8 170.44c112.64 108.04 235.96 130.48 333.96 132.2 40.92.72 385.68 1.32 391.36-324 1.12-63.24-8.28-158.88-115.44-226.36-137.44-86.56-339.84-77.8-337.72-199 1.64-93 123.84-101.48 150.12-101.04 1.72 0 106.48 1.04 158.48 69.48z"/>
</svg>
