<svg xmlns="http://www.w3.org/2000/svg" viewBox="0 0 2527.2 2048" height="1em" width="1em">
  <path d="M1868.4 411.2s-1.2 73.2-1.2 81.2c-36.4-12-297.6-96.4-542.8-105.2-207.6-7.2-491.2-17.2-892 229.2C354.8 666 136.8 800.8 34 1055.2c-22 53.2-50.4 173.2-22 285.6 12.4 49.2 35.2 98.4 66 142.8 69.6 100 186.4 166.4 312.4 177.6 177.6 15.6 312.4-64 360-213.2 32.8-103.2 0-254.4-126-331.6-102.4-62.8-213.2-48.4-276.8-6.4-55.6 36.8-87.2 94-86.4 156.8 1.2 111.2 97.2 170.4 166 170.4 20 0 40.4-3.2 63.2-10.8 26-7.2 53.2-26 53.2-59.6 0-48.4-46.4-59.2-67.2-55.6-11.6 2-18 8-47.2 9.6-8-.8-48-12.4-48-56v-.4c.8-49.2 52.8-72 102-67.6 129.2 11.2 190.8 162.8 114 262.8-73.2 94.8-306.4 92.8-398.8-81.6-104-196.8 50.8-444.8 348-393.6 132.8 22.8 334.4 142 409.6 417.2h183.6c-22.8-70.4-35.6-273.2 170.8-273.2 226.8 0 255.6 159.6 319.2 273.2H1824c-51.2-73.2-86.8-154.8-75.6-223.2 22.4-135.2 158.8-73.6 329.6-69.6 266 1.6 408.4-108 412.4-112 14.8-12.4 26-63.2 28-70.8 5.2-20.4-12.8-9.6-12.8-9.6-34.8 20.8-122 60.8-203.6 62.4-101.2 2-304.8-101.6-326.4-112.8-1.2-1.6.4 4.8-44-102 353.6 233.2 473.2 162 580.8 86.8 3.2-2.4 17.2-11.6 14.4-22.8-55.2-192.4-89.6-250.8-138-278.4-148-86.4-500-138.8-516.8-141.2.4-.4-3.6-1.2-3.6 2.8zM2110 702.4c2.4-80.8 70-148 155.6-145.2 133.6 4.8 195.2 169.2 97.6 260.8-96.8 90.8-257.6 18.4-253.2-115.6zm154.4-101.2c-59.2-2-106.8 44.8-108.4 101.2-2 58 43.2 106.8 101.2 108.8 59.2 2 106.8-44.4 108.8-101.2 2-58-43.6-106.4-101.6-108.8zm17.2 115.2c-61.6 0-61.6-62.4 0-62.4s61.6 62.4 0 62.4z"/>
</svg>
