<svg xmlns="http://www.w3.org/2000/svg" viewBox="0 0 2048 2048" height="1em" width="1em">
  <path d="M832 353.144c0-40 25.144-86.856 70.86-86.856 44.568 0 70.856 46.856 70.856 86.856 0 41.14-26.288 86.856-70.856 86.856-45.716 0-70.86-45.716-70.86-86.856zm1216 640c0 144.004-45.716 409.144-145.144 518.856-91.432 99.432-349.712 244.572-483.428 282.288l-4.572 1.144v130.284c0 65.144-50.288 122.284-116.572 122.284-40 0-77.716-22.856-98.288-57.144-21.708 34.288-59.424 57.144-99.424 57.144-40 0-77.716-22.856-99.432-57.144-20.568 34.288-58.284 57.144-98.28 57.144-41.144 0-77.716-22.856-99.432-57.144-20.572 34.288-58.284 57.144-98.284 57.144-75.428 0-117.716-62.856-117.716-131.428-65.144 49.14-142.86 77.712-226.284 77.712-88 0-173.716-33.14-241.144-91.428 41.14-1.144 82.284-9.144 121.14-22.856-83.428-22.856-157.712-75.428-208-145.144 85.48 18.58 184.836 6.692 268.572-44.572-88-88-226.284-235.428-274.288-349.712C4.572 1286.856 0 1214.856 0 1157.716c0-198.856 81.144-640 345.144-640 42.284 0 75.428 19.432 92.572 59.428a635.168 635.168 0 0 1 48-61.712c8-10.288 22.856-21.716 28.572-33.144 31.996-50.284 46.856-84.568 86.856-136C730.284 181.712 928 68.572 1140.572 68.572c24 0 48 1.14 70.856 4.572 43.428-46.86 104-73.144 166.86-73.144 58.284 0 118.856 24 160 65.144 3.428 3.432 5.712 9.144 5.712 13.712 0 14.856-41.14 53.716-51.428 65.144 17.144 5.716 62.856 27.432 62.856 48 0 11.428-11.428 20.572-18.284 28.572 125.716 110.856 197.716 268.572 225.144 432 17.144-20.572 41.14-34.288 68.572-34.288 42.284 0 83.428 28.576 114.284 56.004C2028.572 748.572 2048 886.856 2048 993.144zM752 357.712c0 73.144 50.284 148.572 129.144 148.572 78.856 0 129.14-75.428 129.14-148.572 0-72-50.284-147.428-129.14-147.428-78.86 0-129.144 75.432-129.144 147.428zM950.856 776c0-78.856 14.856-156.572 34.284-233.144-208.156 318.136-54.124 738.284 275.432 738.284 85.712 0 170.284-30.856 240-80 8-29.716 14.856-59.428 14.856-90.288 0-57.144-25.144-85.712-82.288-85.712-18.284 0-36.572 3.428-53.716 6.856-253.372 50.672-428.568 14.676-428.568-255.996zM786.288 1795.432c0-44.572-35.432-83.428-81.144-83.428-45.716 0-80 38.86-80 83.428v130.284c0 44.572 34.284 84.568 80 84.568 45.712 0 81.144-38.86 81.144-84.568v-130.284zm196.572 0c0-44.572-34.288-83.428-80-83.428-45.716 0-81.144 38.86-81.144 83.428v130.284c0 44.572 35.428 84.568 81.144 84.568 45.712 0 80-40 80-84.568v-130.284zm198.852 0c0-44.572-35.428-83.428-81.14-83.428-45.716 0-81.144 38.86-81.144 83.428v130.284c0 44.572 35.428 84.568 81.144 84.568 45.712 0 81.14-38.86 81.14-84.568v-130.284zm198.86 0c0-44.572-35.428-83.428-81.144-83.428-45.712 0-81.144 38.86-81.144 83.428v130.284c0 44.572 35.432 84.568 81.144 84.568 45.716 0 81.144-40 81.144-84.568v-130.284zM1686.856 1144c-123.428 236.568-361.14 410.288-634.284 410.288-386.284 0-642.284-338.288-642.284-706.288 0-67.428 8-133.716 24-198.856-80 134.86-118.856 290.288-118.856 445.716 0 241.144 99.428 486.86 285.716 643.428 20.572-38.856 59.428-65.144 104-65.144 40 0 77.712 22.856 98.284 57.144 21.716-34.284 58.284-57.144 99.432-57.144 40 0 77.712 22.856 98.284 57.144 21.716-34.284 59.428-57.144 99.432-57.144 40 0 77.712 22.856 99.428 57.144 20.572-34.284 58.284-57.144 98.288-57.144 43.428 0 83.428 26.288 102.856 64 173.708-145.144 274.276-368 285.704-593.144zm42.288-398.856c0-214.856-138.284-422.856-370.288-422.856-121.14 0-234.284 60.572-315.428 147.428C963.448 735.248 933.64 1016 1209.144 1016c115.22 0 389.428-114.152 337.144 147.428 115.428-104 182.856-262.856 182.856-418.284z"/>
</svg>
