<svg xmlns="http://www.w3.org/2000/svg" viewBox="0 0 1536 2048" height="1em" width="1em">
  <path d="M1124.4 880.4H1536v-59.2h-411.6v59.2zm0-148.4H1536v-49.6h-411.6V732zm0 296.8H1536v-69.2h-411.6v69.2zm-630.8 346.8H34c10.4 34 23.2 67.2 38.4 99.2h553.2c-51.6-22.8-96.4-56.8-132-99.2m582.8-49.6h438.8c7.2-29.2 12.4-58.8 15.6-89.2h-417.6c-8.4 31.6-20.8 61.6-36.8 89.2m-166 148.4H1468c14.8-32 23.2-64.8 34-99.2h-460c-35.2 42.8-80.4 76.8-131.6 99.2M1536 128h-411.6v10H1536v-10zM768 1920c158 0 304.8-47.2 427.2-128.8h-854C463.2 1872.8 610 1920 768 1920m356.4-1336.8H1536V544h-411.6v39.2zm0-148.4H1536v-29.6h-411.6v29.6zm0-148.4H1536v-19.6h-411.6v19.6zm-712.8 396H0V732h411.6v-49.6zm-256.4 940.4h1221.2c26.8-34 50.4-70.4 71.2-108.8H92c20.8 38.4 36.8 74.8 63.2 108.8m256.4-475.2V1098H0v49.6c0 10 0 20 .4 29.6h412.4c-.8-9.6-1.2-19.6-1.2-29.6m712.8 0c0 10-.4 20-1.6 29.6h412.4c.4-10 .8-19.6.8-29.6V1098h-411.6v49.6zm-812 624h910.8c47.2-34.8 90.8-74.4 128.8-118.8H179.6c38.4 44 85.6 84 132.8 118.8m99.2-1504.8H0v19.6h411.6v-19.6zm0-138.8H0v10h411.6v-10zm0 693.2H0v59.2h411.6v-59.2zm0 138.4H0v69.2h411.6v-69.2zm0-415.6H0v39.6h411.6V544zm0-138.8H0v29.6h411.6v-29.6zm11.2 831.6H5.2c3.6 30.4 8.8 60 15.6 89.2h438.8c-16-27.6-28.8-57.6-36.8-89.2"/>
</svg>
