<svg xmlns="http://www.w3.org/2000/svg" viewBox="0 0 2048 2048" height="1em" width="1em">
  <path d="M627.2 1140.4 650 1198h-32.8c-5.2-12.8-12.4-30.8-15.2-38-10-25.2-4.4-33.6 0-40 7.6-10.8 12.8-17.6 14.4-20.8 0 8.8 3.2 22.8 10.8 41.2zm1189.2 75.2c-8.4 55.2-22.8 108.4-42 158.8l172 93.6-179.2-75.2c-21.2 52.8-48 102.4-79.6 148.8l136.8 120.8-147.2-105.6c-33.6 47.2-72 90.4-114.8 129.2l99.6 138.8-112.4-127.2c-44 38.4-92.4 72-144.4 100.4l62.8 148.8-77.2-141.2c-52.4 27.2-108 48.4-166.4 63.6l26.8 153.6-42-149.6c-57.2 13.6-116.8 21.2-178 21.6L1024 2048l-7.6-153.6c-61.2-.4-120.8-8-178-21.2L796 2022.4l26.8-152.8c-58.4-14.8-114.4-36.4-166.8-63.2l-76.8 140.4 62.4-148c-52-28-100.8-61.6-144.8-100.4l-111.6 126.4 98.8-137.6c-42.8-38.8-81.6-82-115.2-129.2l-146 104.8 135.6-119.6c-31.6-46.4-58.4-96.4-80-149.2l-177.6 74.8 170.4-92.8c-19.2-50.8-33.6-104.4-42-159.6l-204 36 201.2-56.8c-4.4-34-6.8-68.4-6.8-103.6 0-18.8.8-37.6 2-56.4L0 1024l224-11.2c5.2-52.4 15.2-103.2 30-152.4L25.6 796l235.6 41.6c16-48 36.4-94 60.8-137.6L101.6 580l233.2 98.4c25.2-42.4 54-81.6 86.4-118.4l-198-174.4 215.6 154.8c32.4-34.4 68-66 106.4-94.4l-160-222.4L567.6 430c38-26.4 78.8-49.2 121.2-68.8L579.6 101.6 714.8 350c42-17.6 85.6-31.6 130.8-41.6L796 25.6l78 276.8c44-8.4 89.2-12.8 135.2-13.6L1024 0l14.4 288.8c46 .8 91.2 5.6 135.2 14L1252 25.6l-49.6 282.8c45.2 10.4 88.8 24.4 130.4 42l135.6-248.8L1358.8 362c42.4 19.6 82.8 42.8 120.8 68.8l183.2-207.2-160.4 223.6c38 28.4 73.6 60 106 94.4L1825.2 386l-198.8 175.6c32 36.4 60.8 75.6 86 117.6l234.8-98.8-222 120.8c24.4 43.6 44.4 89.2 60.4 137.2l237.2-41.6-230 64.8c14.8 48.8 24.8 99.6 30 151.6L2048 1024l-224 11.2c1.2 18.4 2 37.2 2 56.4 0 34.8-2.4 69.2-6.4 103.2l202.8 57.2-206-36.4zm-87.2-124c0-390-316-706-706-706s-706 316-706 706 316 706 706 706 706-316 706-706zm-96 0c0 337.2-273.2 610.4-610.4 610.4s-610.4-273.2-610.4-610.4 273.2-610.4 610.4-610.4 610.4 273.2 610.4 610.4zM780 964c0 8.4 5.2 15.2 14.4 20.4 13.2 7.6 24.8 18.4 32.8 32.8 11.2-22.8 17.2-38 17.2-44.8 0-8.8-4.4-17.6-12.8-28-8.4-10-12.8-20.8-13.2-30.8-26 27.2-38.4 43.6-38.4 50.4zm-162.8-76c0 8.4 5.2 15.2 14.4 20.4 14 7.6 24.8 18.4 32.8 32.8 11.2-22.8 17.2-38 17.2-44.8 0-8.8-4.4-17.6-12.8-28-8.4-10-12.8-20.8-13.2-30.8-26 27.2-38.4 43.6-38.4 50.4zm-76 0c0 8.4 5.2 15.2 14.4 20.4 13.2 7.6 24.8 18.4 32.8 32.8 11.2-22.8 17.2-38 17.2-44.8 0-8.8-4.4-17.6-12.8-28-8.4-10-12.8-20.8-13.2-30.8-25.6 27.2-38.4 43.6-38.4 50.4zm819.6 351.6c-33.6-12-34.8-27.2-34.8-62.4V728c-32.8 50-56.8 74.4-72 74.4 25.2 57.6 38 95.6 38 113.2v257.2c0 8.8-8.8 26-18.8 26h-72c-11.2-30-40.8-107.6-61.2-161.2-8 10-28.8 36.8-42.8 54.8 9.6 6.4 16.4 14.4 20.8 25.2 10.4 26.8 25.6 66 31.6 80.8h-36.8c-15.6-41.6-38.4-101.6-47.2-124.4-8 10-28.8 36.8-42.8 54.8 9.6 6.4 16.4 14.4 20.8 25.2 3.2 8 11.2 29.2 17.2 43.6H1024c-6-16.4-22.4-58.4-33.6-88-8 10-28.8 36.8-42.8 54.8 10 6.4 17.2 14.4 20.8 25.2.8 2.4 2 5.6 2.4 6.8H900c-18.4-55.6-45.6-110.8-45.6-136.4 0-8.8 1.2-20.4 4.4-32.8-35.2 43.2-56 63.6-56 100 0 30 41.6 113.2 41.6 133.2 0 6.8-2 13.2-5.6 19.6-38.4-50.8-62-82.8-75.2-82.8h-48l-44.8-112c-15.2-38.4-22.8-64-22.8-75.2 0-15.2 2-30.8 6.8-48.8-4 5.2-14.8 18.8-22 28.4-3.2-8.4-12.4-30.8-18.4-46-8.4 10-30 36.4-44.8 54.4 3.6 9.2 13.2 32.4 19.6 48.8-10 13.2-36.4 47.2-54.4 70.8-16 21.2-23.2 53.2-10.8 87.2 10 26.8 8 31.6-6.8 56.4H764c22 0 57.2 56 62 88 52.8-64 61.6-78.4 67.2-86.4h428c15.6 0 28.8-7.6 39.6-23.2zm80.4-106.4V726.8c-36 50-63.6 74.4-82.8 74.4 28.4 57.6 42.8 95.6 42.8 113.2v265.2c0 70 34.4 81.6 96 81.6 32.4 0 50-3.2 54.8-10.8-17.2-6.4-30.4-10-39.6-13.2-32.4-12.8-71.2-29.6-71.2-104z"/>
</svg>
