<svg xmlns="http://www.w3.org/2000/svg" viewBox="0 0 1792 2048" height="1em" width="1em">
  <path d="M1612.8 128H179.2C80.4 128 0 208.4 0 307.2v1433.6c0 98.8 80.4 179.2 179.2 179.2h1433.6c98.8 0 179.2-80.4 179.2-179.2V307.2c0-98.8-80.4-179.2-179.2-179.2zM1508 723.2c-5.6 126-93.6 298.8-264 517.6-176 228.8-325.2 343.2-446.8 343.2-75.6 0-139.2-69.6-191.6-209.2-102-373.2-145.6-592-229.6-592-9.6 0-43.6 20.4-101.6 60.8l-60.8-78.4C362.8 634 505.2 488.4 594.4 480.4c100.8-9.6 162.8 59.2 186 206.8 82.8 524.8 119.6 604 270.4 366.4 54-85.6 83.2-150.8 87.2-195.6 14-132.8-103.6-123.6-183.2-89.6 63.6-208.4 185.2-309.6 364.8-304 133.2 3.6 196 90 188.4 258.8z"/>
</svg>
