<svg xmlns="http://www.w3.org/2000/svg" viewBox="0 0 2560 2048" height="1em" width="1em">
  <path d="M419.6 1408c-136.4 0-185.6-121.6-185.6-121.6l-223.6-446S-31.2 768 52 768h131.2c41.6 0 52.8 34.8 75.2 72.4l146.8 298s20.8 52.4 84.4 52.4 84.4-52.4 84.4-52.4l146.8-298c22.4-38 33.6-72.4 75.2-72.4h131.2c83.2 0 41.6 72.4 41.6 72.4l-223.2 446S696.8 1408 560 1408H419.6zm1580 0c-136.4 0-185.6-121.6-185.6-121.6l-223.6-446S1548.8 768 1632 768h131.2c41.6 0 52.8 34.8 75.2 72.4l146.8 298s20.8 52.4 84.4 52.4 84.4-52.4 84.4-52.4l147.2-298c22.4-38 33.6-72.4 75.2-72.4H2508c83.2 0 41.6 72.4 41.6 72.4l-223.6 446s-48.8 121.6-185.6 121.6h-140.8zm-649.2-640c136.4 0 185.6 121.6 185.6 121.6l223.6 446s41.6 72.4-41.6 72.4h-131.2c-41.6 0-52.8-34.8-75.2-72.4l-146.8-298s-20.8-52.4-84.4-52.4c-63.6 0-84.4 52.4-84.4 52.4l-146.8 298c-22.4 37.6-33.6 72.4-75.2 72.4H842.4c-83.2 0-41.6-72.4-41.6-72.4l223.6-446S1073.2 768 1210 768h140.4z"/>
</svg>
