<svg xmlns="http://www.w3.org/2000/svg" viewBox="0 0 1792 2048" height="1em" width="1em">
  <path d="M1792 300.8v1446.8c0 97.2-76 172.8-172.8 172.8H172.8C77.2 1920 0 1845.6 0 1747.2V300.8C0 204.4 75.2 128 172.8 128h1446.8c96 0 172.4 75.2 172.4 172.8zm-149.2 1446.4V300.8c0-12-10.4-23.2-23.2-23.2h-37.2L1141.2 576 896 376.4 651.2 576 210 277.2h-37.2c-12.8 0-23.2 11.2-23.2 23.2v1446.8c0 12 10.4 23.2 23.2 23.2h1446.8c12.8.4 23.2-10.8 23.2-23.2zM600.8 744v148h-294V744h294zm0 297.6v149.2h-294v-149.2h294zm44.4-589.2 216-174.8h-474l258 174.8zm840 291.6v148h-784V744h784zm0 297.6v149.2h-784v-149.2h784zm-338.4-589.2 258-174.8H931.2l215.6 174.8zm338.4 887.6v149.2h-397.6V1340h397.6z"/>
</svg>
