<svg xmlns="http://www.w3.org/2000/svg" xmlns:xlink="http://www.w3.org/1999/xlink" viewBox="0 0 192 192" height="1em" width="1em">
  <defs>
    <linearGradient id="a">
      <stop style="stop-color:#1a237e;stop-opacity:1" offset="0"/>
      <stop style="stop-color:#1a237e;stop-opacity:0" offset="1"/>
    </linearGradient>
    <linearGradient id="c">
      <stop offset="0" style="stop-color:#fff;stop-opacity:1"/>
      <stop offset="1" style="stop-color:#fff;stop-opacity:0"/>
    </linearGradient>
    <linearGradient id="b">
      <stop offset="0" style="stop-color:#f5f5f5;stop-opacity:1"/>
      <stop offset="1" style="stop-color:#f5f5f5;stop-opacity:0"/>
    </linearGradient>
    <linearGradient xlink:href="#a" id="j" x1="96" y1="96" x2="184" y2="184" gradientUnits="userSpaceOnUse"/>
    <radialGradient r="88" fy="8" fx="8" cy="8" cx="8" gradientTransform="matrix(0 2 -2 0 24 -8)" gradientUnits="userSpaceOnUse" id="d" xlink:href="#b"/>
    <radialGradient gradientTransform="matrix(0 2 -2 0 24 -8)" gradientUnits="userSpaceOnUse" r="88" fy="8" fx="8" cy="8" cx="8" id="m" xlink:href="#c"/>
    <radialGradient r="88" fy="8" fx="8" cy="8" cx="8" gradientTransform="matrix(0 2 -2 0 24 -8)" gradientUnits="userSpaceOnUse" id="e" xlink:href="#c"/>
    <clipPath id="i" clipPathUnits="userSpaceOnUse">
      <path style="display:inline;opacity:.1;fill:url(#d);fill-opacity:1;fill-rule:evenodd;stroke:none;stroke-width:1px;stroke-linecap:butt;stroke-linejoin:miter;stroke-opacity:1" d="M96 8A88 88 0 0 0 8 96a88 88 0 0 0 88 88 88 88 0 0 0 62.563-26.217L181.4 149h2.6V96A88 88 0 0 0 96 8Z"/>
    </clipPath>
    <clipPath id="l" clipPathUnits="userSpaceOnUse">
      <path d="M96 8A88 88 0 0 0 8 96a88 88 0 0 0 88 88 88 88 0 0 0 70.113-35H184V96A88 88 0 0 0 96 8Z" style="display:inline;opacity:1;fill:#2196f3;fill-opacity:1;fill-rule:nonzero;stroke:none;stroke-width:2.94899988;stroke-linecap:butt;stroke-linejoin:miter;stroke-miterlimit:4;stroke-dasharray:none;stroke-dashoffset:0;stroke-opacity:1"/>
    </clipPath>
    <clipPath id="g" clipPathUnits="userSpaceOnUse">
      <path style="display:inline;opacity:.1;fill:url(#e);fill-opacity:1;fill-rule:evenodd;stroke:none;stroke-width:1px;stroke-linecap:butt;stroke-linejoin:miter;stroke-opacity:1" d="M96 8c-2.082 0-4.147.076-6.193.219a88 88 0 0 0-.045.004C71.52 9.5 54.812 16.337 41.32 27.05a88 88 0 0 0-.049.039 88.442 88.442 0 0 0-1.886 1.547 88 88 0 0 0-.15.125 88.488 88.488 0 0 0-4.462 4.037 88 88 0 0 0-.171.168 88.585 88.585 0 0 0-1.635 1.635 88 88 0 0 0-.168.171 88.488 88.488 0 0 0-4.037 4.461 88 88 0 0 0-.125.15c-.524.623-1.04 1.25-1.547 1.887a88 88 0 0 0-.04.05C16.338 54.811 9.5 71.52 8.224 89.76a88 88 0 0 0-.004.046A89.26 89.26 0 0 0 8 96c0 2.082.076 4.147.219 6.193a88 88 0 0 0 .004.045c1.277 18.242 8.114 34.95 18.828 48.442a88 88 0 0 0 .039.048 88.479 88.479 0 0 0 5.709 6.499 88 88 0 0 0 .168.171 88.519 88.519 0 0 0 6.267 5.84 88 88 0 0 0 .15.125c15.128 12.727 34.6 20.452 55.876 20.627a88 88 0 0 0 .74.01c2.093 0 4.168-.077 6.225-.22a88 88 0 0 0 .013-.003c18.243-1.277 34.95-8.114 48.442-18.828a88 88 0 0 0 .049-.039 88.48 88.48 0 0 0 6.498-5.709 88 88 0 0 0 .171-.168c.443-.431.881-.868 1.315-1.308L178.8 150l2.6-1h2.6V96c0-2.093-.077-4.168-.22-6.225a88 88 0 0 0-.003-.013c-1.277-18.242-8.114-34.95-18.828-48.442a88 88 0 0 0-.039-.049 88.439 88.439 0 0 0-1.547-1.886 88 88 0 0 0-.125-.15 88.486 88.486 0 0 0-4.037-4.462 88 88 0 0 0-.168-.171 88.591 88.591 0 0 0-1.635-1.635 88 88 0 0 0-.172-.168 88.484 88.484 0 0 0-4.46-4.037 88 88 0 0 0-.15-.125 88.444 88.444 0 0 0-1.888-1.547 88 88 0 0 0-.048-.04c-13.492-10.713-30.2-17.55-48.442-18.827l-.013-.002a88 88 0 0 0-.032-.002A89.255 89.255 0 0 0 96 8Z"/>
    </clipPath>
    <filter id="f" style="color-interpolation-filters:sRGB">
      <feFlood result="flood" flood-color="#000" flood-opacity=".2"/>
      <feComposite result="composite1" operator="in" in2="SourceGraphic" in="flood"/>
      <feGaussianBlur result="blur" stdDeviation="2" in="composite1"/>
      <feOffset result="offset" dy="4"/>
      <feComposite result="fbSourceGraphic" in2="offset" in="SourceGraphic"/>
      <feColorMatrix result="fbSourceGraphicAlpha" in="fbSourceGraphic" values="0 0 0 -1 0 0 0 0 -1 0 0 0 0 -1 0 0 0 0 1 0"/>
      <feFlood flood-opacity=".2" flood-color="#000" result="flood"/>
      <feComposite in2="fbSourceGraphic" in="flood" operator="in" result="composite1"/>
      <feGaussianBlur in="composite1" stdDeviation="2" result="blur"/>
      <feOffset result="offset"/>
      <feComposite in2="offset" in="fbSourceGraphic" result="composite2"/>
    </filter>
    <filter x="-.2" width="1.3" height="1.3" id="k" style="color-interpolation-filters:sRGB">
      <feFlood result="flood" flood-color="#1A237E" flood-opacity=".2"/>
      <feComposite result="composite1" operator="in" in2="SourceGraphic" in="flood"/>
      <feGaussianBlur result="blur" stdDeviation="4" in="composite1"/>
      <feOffset result="offset" dy="4"/>
      <feComposite result="composite2" in2="offset" in="SourceGraphic"/>
    </filter>
    <filter height="1.36" y="-.18" width="1.159" x="-.08" id="h" style="color-interpolation-filters:sRGB">
      <feGaussianBlur stdDeviation="3.979"/>
    </filter>
  </defs>
  <g style="filter:url(#f)">
    <path style="fill:#f5f5f5;fill-opacity:1;fill-rule:evenodd;stroke:none;stroke-width:1px;stroke-linecap:butt;stroke-linejoin:miter;stroke-opacity:1" d="m158 158 26-10v-24h-26z"/>
    <path clip-path="url(#g)" d="M64 100v53h120v-53z" style="opacity:.2;fill:#000;fill-opacity:1;fill-rule:evenodd;stroke:none;stroke-width:1px;stroke-linecap:butt;stroke-linejoin:miter;stroke-opacity:1;filter:url(#h)"/>
    <path style="opacity:.2;fill:#000;fill-opacity:1;fill-rule:evenodd;stroke:none;stroke-width:1px;stroke-linecap:butt;stroke-linejoin:miter;stroke-opacity:1" d="m184 147-5.2 2h2.6l2.6-1v-1zm-7.8 3-18.2 7v1l20.8-8h-2.6z"/>
    <circle style="display:inline;opacity:1;fill:#2196f3;fill-opacity:1;fill-rule:nonzero;stroke:none;stroke-width:2.94899988;stroke-linecap:butt;stroke-linejoin:miter;stroke-miterlimit:4;stroke-dasharray:none;stroke-dashoffset:0;stroke-opacity:1;filter:url(#f)" cx="96" cy="96" r="88" clip-path="url(#i)"/>
    <path style="fill:#1a237e;opacity:.2" d="M147.92 143.432c-2.288-7.04-8.888-12.232-16.72-12.232h-8.8v-26.4a8.8 8.8 0 0 0-8.8-8.8H60.8V78.4h17.6a8.8 8.8 0 0 0 8.8-8.8V52h17.6a17.6 17.6 0 0 0 17.6-17.6v-3.608c25.784 10.384 44 35.64 44 65.208 0 18.304-7.04 34.936-18.48 47.432M87.2 165.784C52.44 161.472 25.6 131.904 25.6 96c0-5.456.704-10.736 1.848-15.752L69.6 122.4v8.8a17.6 17.6 0 0 0 17.6 17.6M96 8A88 88 0 0 0 8 96a88 88 0 0 0 88 88 88 88 0 0 0 88-88A88 88 0 0 0 96 8Z"/>
    <path d="M64.568 96.568v53h.569v.569h.564v.564h.565v.565h.562v.562h.56v.56h.561v.561h.557v.557h.557v.556h.554v.555h.553v.553h.55v.55h.55v.55h.548v.548h.547v.547h.543v.543h.543v.543h.543v.543h.54v.54h.538v.538h.535v.535h.536v.536h.533v.533h.531v.531h.531v.531h.528v.528h.527v.527h.525v.525h.524v.524h.521v.521h.522v.522h.517v.517h.518v.518h.516v.516h.513v.513h.512v.512h.51v.51h.51v.51h.507v.507h.506v.506h.504v.504h.502v.502h.5v.5h.5v.5h.498v.498h.496v.496h.494v.494h.492v.492h.49v.49h.49v.49h.49v.49h.486v.486h.484v.484h.482v.482h.48v.48h.481v.481h.479v.479h.476v.476h.475v.475h.473v.473h.472v.472h.469v.469h.469v.469h.467v.467h.464v.464h.463v.463h.463v.463h.461v.412a91.365 91.365 0 0 0 3.23-.166 88 88 0 0 0 .014-.002c18.243-1.277 34.95-8.114 48.442-18.828a88 88 0 0 0 .049-.039 88.48 88.48 0 0 0 6.498-5.709 88 88 0 0 0 .171-.168c.443-.431.881-.868 1.315-1.308L178.8 150l2.6-1h2.6V96.568H64.568z" style="opacity:.2;fill:url(#j);fill-opacity:1;fill-rule:evenodd;stroke:none;stroke-width:1;stroke-linecap:butt;stroke-linejoin:miter;stroke-opacity:1"/>
    <path style="opacity:1;fill:#f5f5f5;fill-opacity:1;fill-rule:evenodd;stroke:none;stroke-width:1px;stroke-linecap:butt;stroke-linejoin:miter;stroke-opacity:1;filter:url(#k)" d="M64 96v53h120V96z" clip-path="url(#l)"/>
    <path style="fill:#757575;fill-opacity:1" d="M86 112v14c0 3.3 2.7 6 6 6 1.5 0 2.9-.5 4-1.5 1.1.9 2.5 1.5 4 1.5 3.3 0 6-2.7 6-6v-14h-4v14c0 1.1-.9 2-2 2s-2-.9-2-2v-14h-4v14c0 1.1-.9 2-2 2s-2-.9-2-2v-14zm28 0v14c0 3.3 2.7 6 6 6 1.5 0 2.9-.5 4-1.5 1.1.9 2.5 1.5 4 1.5 3.3 0 6-2.7 6-6v-14h-4v14c0 1.1-.9 2-2 2s-2-.9-2-2v-14h-4v14c0 1.1-.9 2-2 2s-2-.9-2-2v-14zm28 0v14c0 3.3 2.7 6 6 6 1.5 0 2.9-.5 4-1.5 1.1.9 2.5 1.5 4 1.5 3.3 0 6-2.7 6-6v-14h-4v14c0 1.1-.9 2-2 2s-2-.9-2-2v-14h-4v14c0 1.1-.9 2-2 2s-2-.9-2-2v-14z"/>
    <path d="M64 149v1h101.352a88 88 0 0 0 .761-1H64Z" style="opacity:.2;fill:#1a237e;fill-opacity:1;fill-rule:evenodd;stroke:none;stroke-width:1px;stroke-linecap:butt;stroke-linejoin:miter;stroke-opacity:1"/>
    <path d="M166.113 149a88 88 0 0 1-.761 1H178.8l2.6-1h-15.288z" style="opacity:.2;fill:#000;fill-opacity:1;fill-rule:evenodd;stroke:none;stroke-width:1px;stroke-linecap:butt;stroke-linejoin:miter;stroke-opacity:1"/>
    <path d="M64 96v1h120v-1H64z" style="opacity:.2;fill:#fff;fill-opacity:1;fill-rule:evenodd;stroke:none;stroke-width:1px;stroke-linecap:butt;stroke-linejoin:miter;stroke-opacity:1"/>
  </g>
  <g style="display:inline">
    <path d="M183.979 95.414a88 88 0 0 1-.032.586H184a88 88 0 0 0-.021-.586zM8.02 95.586A88 88 0 0 0 8 96a88 88 0 0 0 .164 3.273 88 88 0 0 1-.143-3.687zm.143 3.687a88 88 0 0 0 .111 2.243 88 88 0 0 1-.11-2.243zm.111 2.243A88 88 0 0 0 96 184a88 88 0 0 0 70.15-35h-.037a88 88 0 0 1-.761 1h-.793A88 88 0 0 1 96 183a88 88 0 0 1-87.725-81.484Z" style="opacity:.2;fill:#000;fill-opacity:1;fill-rule:nonzero;stroke:none;stroke-width:2.94899988;stroke-linecap:butt;stroke-linejoin:miter;stroke-miterlimit:4;stroke-dasharray:none;stroke-dashoffset:0;stroke-opacity:1"/>
    <path d="M96 8A88 88 0 0 0 8 96a88 88 0 0 0 .021.586A88 88 0 0 1 96 9a88 88 0 0 1 87.979 87.414A88 88 0 0 0 184 96 88 88 0 0 0 96 8Z" style="opacity:.2;fill:#fff;fill-opacity:1;fill-rule:nonzero;stroke:none;stroke-width:2.94899988;stroke-linecap:butt;stroke-linejoin:miter;stroke-miterlimit:4;stroke-dasharray:none;stroke-dashoffset:0;stroke-opacity:1"/>
    <path d="M96 8c-2.082 0-4.147.076-6.193.219a88 88 0 0 0-.045.004C71.52 9.5 54.812 16.337 41.32 27.05a88 88 0 0 0-.049.039 88.442 88.442 0 0 0-1.886 1.547 88 88 0 0 0-.15.125 88.488 88.488 0 0 0-4.462 4.037 88 88 0 0 0-.171.168 88.585 88.585 0 0 0-1.635 1.635 88 88 0 0 0-.168.171 88.488 88.488 0 0 0-4.037 4.461 88 88 0 0 0-.125.15c-.524.623-1.04 1.25-1.547 1.887a88 88 0 0 0-.04.05C16.338 54.811 9.5 71.52 8.224 89.76a88 88 0 0 0-.004.046A89.26 89.26 0 0 0 8 96c0 2.082.076 4.147.219 6.193a88 88 0 0 0 .004.045c1.277 18.242 8.114 34.95 18.828 48.442a88 88 0 0 0 .039.048 88.479 88.479 0 0 0 5.709 6.499 88 88 0 0 0 .168.171 88.519 88.519 0 0 0 6.267 5.84 88 88 0 0 0 .15.125c15.128 12.727 34.6 20.452 55.876 20.627a88 88 0 0 0 .74.01c2.093 0 4.168-.077 6.225-.22a88 88 0 0 0 .013-.003c18.243-1.277 34.95-8.114 48.442-18.828a88 88 0 0 0 .049-.039 88.48 88.48 0 0 0 6.498-5.709 88 88 0 0 0 .171-.168c.443-.431.881-.868 1.315-1.308L178.8 150l2.6-1h2.6V96c0-2.093-.077-4.168-.22-6.225a88 88 0 0 0-.003-.013c-1.277-18.242-8.114-34.95-18.828-48.442a88 88 0 0 0-.039-.049 88.439 88.439 0 0 0-1.547-1.886 88 88 0 0 0-.125-.15 88.486 88.486 0 0 0-4.037-4.462 88 88 0 0 0-.168-.171 88.591 88.591 0 0 0-1.635-1.635 88 88 0 0 0-.172-.168 88.484 88.484 0 0 0-4.46-4.037 88 88 0 0 0-.15-.125 88.444 88.444 0 0 0-1.888-1.547 88 88 0 0 0-.048-.04c-13.492-10.713-30.2-17.55-48.442-18.827l-.013-.002a88 88 0 0 0-.032-.002A89.255 89.255 0 0 0 96 8Z" style="display:inline;opacity:.1;fill:url(#m);fill-opacity:1;fill-rule:evenodd;stroke:none;stroke-width:1px;stroke-linecap:butt;stroke-linejoin:miter;stroke-opacity:1"/>
  </g>
</svg>
