<svg xmlns="http://www.w3.org/2000/svg" xmlns:xlink="http://www.w3.org/1999/xlink" xmlns:sodipodi="http://sodipodi.sourceforge.net/DTD/sodipodi-0.dtd" xmlns:inkscape="http://www.inkscape.org/namespaces/inkscape" viewBox="0 0 192 192" version="1.1" inkscape:version="0.91 r13725" sodipodi:docname="caldav_sync.svg" inkscape:export-filename="C:\createme\Material Design Icons\PNG\caldav_sync.png" inkscape:export-xdpi="90" inkscape:export-ydpi="90" height="1em" width="1em">
  <sodipodi:namedview pagecolor="#ffffff" bordercolor="#666666" borderopacity="1.0" inkscape:pageopacity="0.0" inkscape:pageshadow="2" inkscape:zoom="1.4142136" inkscape:cx="-163.53572" inkscape:cy="116.94604" inkscape:document-units="px" inkscape:current-layer="layer2" showgrid="false" units="px" showguides="false" inkscape:window-width="1920" inkscape:window-height="1017" inkscape:window-x="-8" inkscape:window-y="-8" inkscape:window-maximized="1">
    <sodipodi:guide inkscape:color="rgb(0,0,255)" orientation="0,1" position="0,184"/>
    <sodipodi:guide inkscape:color="rgb(0,0,255)" orientation="1,0" position="8,0"/>
    <sodipodi:guide inkscape:color="rgb(0,0,255)" orientation="0,1" position="0,8"/>
    <sodipodi:guide inkscape:color="rgb(0,0,255)" orientation="1,0" position="184,0"/>
    <sodipodi:guide inkscape:color="rgb(0,0,255)" orientation="0,1" position="0,20"/>
    <sodipodi:guide inkscape:color="rgb(0,0,255)" orientation="1,0" position="172,0"/>
    <sodipodi:guide inkscape:color="rgb(0,0,255)" orientation="0,1" position="96,172"/>
    <sodipodi:guide inkscape:color="rgb(0,0,255)" orientation="1,0" position="20,0"/>
    <sodipodi:guide inkscape:color="rgb(0,0,255)" orientation="0,1" position="0,32"/>
    <sodipodi:guide inkscape:color="rgb(0,0,255)" orientation="1,0" position="160,0"/>
    <sodipodi:guide inkscape:color="rgb(0,0,255)" orientation="0,1" position="0,160"/>
    <sodipodi:guide inkscape:color="rgb(0,0,255)" orientation="1,0" position="32,0"/>
    <inkscape:grid type="xygrid"/>
    <sodipodi:guide inkscape:color="rgb(255,0,0)" orientation="-0.70710678,0.70710678" position="0,0"/>
    <sodipodi:guide inkscape:color="rgb(255,0,0)" orientation="1,0" position="124,0"/>
    <sodipodi:guide inkscape:color="rgb(255,0,0)" orientation="0.70710678,0.70710678" position="0,192"/>
    <sodipodi:guide inkscape:color="rgb(255,0,0)" orientation="1,0" position="96,0"/>
    <sodipodi:guide inkscape:color="rgb(255,0,0)" orientation="0,1" position="0,96"/>
    <sodipodi:guide inkscape:color="rgb(255,0,0)" orientation="0,1" position="0,124"/>
    <sodipodi:guide inkscape:color="rgb(255,0,0)" orientation="0,1" position="0,68"/>
    <sodipodi:guide inkscape:color="rgb(255,0,0)" orientation="1,0" position="68,0"/>
    <sodipodi:guide orientation="-192,0" position="192,0"/>
    <sodipodi:guide orientation="0,-192" position="192,192"/>
  </sodipodi:namedview>
  <defs>
    <linearGradient inkscape:collect="always" id="b">
      <stop style="stop-color:#1a237e;stop-opacity:1" offset="0"/>
      <stop style="stop-color:#1a237e;stop-opacity:0" offset="1"/>
    </linearGradient>
    <linearGradient id="a" inkscape:collect="always">
      <stop offset="0" style="stop-color:#ffffff;stop-opacity:1"/>
      <stop offset="1" style="stop-color:#ffffff;stop-opacity:0"/>
    </linearGradient>
    <radialGradient gradientUnits="userSpaceOnUse" gradientTransform="matrix(2.6607556e-7,1.9999998,-2.0000002,2.6629458e-7,1780.725,840.36195)" r="76" fy="880.36243" fx="20" cy="880.36243" cx="20" id="f" xlink:href="#a" inkscape:collect="always"/>
    <filter id="c" inkscape:label="Drop Shadow" style="color-interpolation-filters:sRGB">
      <feFlood result="flood" flood-color="rgb(0,0,0)" flood-opacity="0.2"/>
      <feComposite result="composite1" operator="in" in2="SourceGraphic" in="flood"/>
      <feGaussianBlur result="blur" stdDeviation="2" in="composite1"/>
      <feOffset result="offset" dy="4" dx="4.57967e-015"/>
      <feComposite result="fbSourceGraphic" operator="over" in2="offset" in="SourceGraphic"/>
      <feColorMatrix result="fbSourceGraphicAlpha" in="fbSourceGraphic" values="0 0 0 -1 0 0 0 0 -1 0 0 0 0 -1 0 0 0 0 1 0"/>
      <feFlood flood-opacity="0.2" flood-color="rgb(0,0,0)" result="flood" in="fbSourceGraphic"/>
      <feComposite in2="fbSourceGraphic" in="flood" operator="in" result="composite1"/>
      <feGaussianBlur in="composite1" stdDeviation="2" result="blur"/>
      <feOffset dx="0" dy="0" result="offset"/>
      <feComposite in2="offset" in="fbSourceGraphic" operator="over" result="composite2"/>
    </filter>
    <linearGradient inkscape:collect="always" xlink:href="#b" id="d" x1="50" y1="50" x2="172" y2="172" gradientUnits="userSpaceOnUse"/>
    <filter style="color-interpolation-filters:sRGB" inkscape:label="Drop Shadow" id="e" height="1.3">
      <feFlood flood-opacity="0.20000000000000001" flood-color="rgb(26,35,126)" result="flood"/>
      <feComposite in="flood" in2="SourceGraphic" operator="in" result="composite1"/>
      <feGaussianBlur in="composite1" stdDeviation="4" result="blur"/>
      <feOffset dx="4.57967e-015" dy="4" result="offset"/>
      <feComposite in="SourceGraphic" in2="offset" operator="over" result="composite2"/>
    </filter>
  </defs>
  <g inkscape:label="background" inkscape:groupmode="layer">
    <path transform="translate(0,-860.36216)" sodipodi:nodetypes="ccccccccc" inkscape:connector-curvature="0" d="m 32,880.36216 128,0 c 6,0 12,6 12,12 l 0,128.00004 c 0,6 -6,12 -12,12 l -128,0 c -6,0 -12,-6 -12,-12 l 0,-128.00004 c 0,-6 6,-12 12,-12 z" style="fill:#3f51b5;fill-opacity:1;fill-rule:evenodd;stroke:none;stroke-width:1px;stroke-linecap:butt;stroke-linejoin:miter;stroke-opacity:1;filter:url(#c)"/>
  </g>
  <g transform="translate(0,-860.36216)" inkscape:groupmode="layer" inkscape:label="objects">
    <path style="fill:url(#d);fill-opacity:1;opacity:0.2" d="M 71.236328 50.125 L 71.236328 58.570312 L 67.013672 58.570312 C 62.32703 58.570312 58.611328 62.369252 58.611328 67.013672 L 58.568359 126.125 C 58.568359 128.59655 59.639795 130.82126 61.341797 132.36914 C 61.52172 132.56692 61.710366 132.75557 61.908203 132.93555 C 62.087519 133.13259 62.275555 133.32063 62.472656 133.5 C 62.651649 133.69669 62.838441 133.88537 63.035156 134.06445 C 63.213562 134.26043 63.401651 134.44651 63.597656 134.625 C 63.775474 134.82027 63.960954 135.00764 64.15625 135.18555 C 64.333763 135.38048 64.519911 135.56651 64.714844 135.74414 C 64.890514 135.93699 65.074851 136.12096 65.267578 136.29688 C 65.446874 136.49393 65.634949 136.68195 65.832031 136.86133 C 66.006698 137.05264 66.189381 137.23556 66.380859 137.41016 C 66.556344 137.60262 66.741111 137.78537 66.933594 137.96094 C 67.10844 138.15269 67.290698 138.33673 67.482422 138.51172 C 67.656975 138.70309 67.839884 138.88588 68.03125 139.06055 C 68.203368 139.24919 68.383798 139.42915 68.572266 139.60156 C 68.74918 139.79581 68.934691 139.98114 69.128906 140.1582 C 69.3006 140.34595 69.48006 140.52564 69.667969 140.69727 C 69.840488 140.88616 70.022018 141.06568 70.210938 141.23828 C 70.381611 141.42516 70.559363 141.60445 70.746094 141.77539 C 70.920685 141.96678 71.103514 142.14954 71.294922 142.32422 C 71.464253 142.50914 71.641091 142.68621 71.826172 142.85547 C 71.997188 143.04259 72.176161 143.22145 72.363281 143.39258 C 72.533116 143.57829 72.710778 143.75584 72.896484 143.92578 C 73.066319 144.11149 73.243981 144.28904 73.429688 144.45898 C 73.598341 144.64328 73.774691 144.81952 73.958984 144.98828 C 74.127624 145.17263 74.303996 145.34877 74.488281 145.51758 C 74.655074 145.69984 74.829622 145.87394 75.011719 146.04102 C 75.182151 146.22747 75.36045 146.4056 75.546875 146.57617 C 75.712647 146.75692 75.885564 146.92994 76.066406 147.0957 C 76.233302 147.27791 76.407648 147.45214 76.589844 147.61914 C 76.755806 147.80026 76.928288 147.97453 77.109375 148.14062 C 77.275042 148.32136 77.448175 148.49439 77.628906 148.66016 C 77.794277 148.84057 77.968055 149.01223 78.148438 149.17773 C 78.312963 149.35712 78.484689 149.52873 78.664062 149.69336 C 78.828264 149.87239 78.998743 150.04465 79.177734 150.20898 C 79.339771 150.38559 79.509108 150.55448 79.685547 150.7168 C 79.850085 150.89639 80.02176 151.06759 80.201172 151.23242 C 80.363847 151.40966 80.533756 151.57936 80.710938 151.74219 C 80.873358 151.9191 81.043825 152.08744 81.220703 152.25 C 81.382531 152.42621 81.550389 152.59585 81.726562 152.75781 C 81.887798 152.93332 82.056952 153.10035 82.232422 153.26172 C 82.393062 153.43653 82.559609 153.60486 82.734375 153.76562 C 82.894421 153.93973 83.062265 154.10545 83.236328 154.26562 C 83.396062 154.43938 83.562631 154.60574 83.736328 154.76562 C 83.895779 154.93902 84.061016 155.10604 84.234375 155.26562 C 84.392905 155.43796 84.558194 155.60303 84.730469 155.76172 C 84.888999 155.93406 85.054288 156.09912 85.226562 156.25781 C 85.383904 156.42875 85.547881 156.5925 85.71875 156.75 C 85.87609 156.92093 86.040069 157.08469 86.210938 157.24219 C 86.367669 157.4124 86.531022 157.57554 86.701172 157.73242 C 86.857321 157.90195 87.019989 158.0644 87.189453 158.2207 C 87.345602 158.39023 87.50827 158.55268 87.677734 158.70898 C 87.832692 158.87711 87.994048 159.03825 88.162109 159.19336 C 88.317067 159.36149 88.478423 159.52262 88.646484 159.67773 C 88.800507 159.84478 88.95999 160.00596 89.126953 160.16016 C 89.280676 160.32682 89.440814 160.48676 89.607422 160.64062 C 89.760848 160.80697 89.921628 160.96554 90.087891 161.11914 C 90.240461 161.28446 90.399197 161.44298 90.564453 161.5957 C 90.716697 161.76067 90.874187 161.91984 91.039062 162.07227 C 91.191007 162.23685 91.34915 162.39478 91.513672 162.54688 C 91.665007 162.71073 91.822523 162.86805 91.986328 163.01953 C 92.137078 163.18272 92.29391 163.33934 92.457031 163.49023 C 92.607171 163.6527 92.763376 163.8087 92.925781 163.95898 C 93.074051 164.11942 93.228436 164.27331 93.388672 164.42188 C 93.540609 164.58648 93.698766 164.74437 93.863281 164.89648 C 94.010779 165.05578 94.16491 165.20791 94.324219 165.35547 C 94.472266 165.51551 94.625194 165.67015 94.785156 165.81836 C 94.932888 165.97807 95.086497 166.13137 95.246094 166.2793 C 95.393542 166.43864 95.547769 166.59067 95.707031 166.73828 C 95.85388 166.89693 96.005499 167.05025 96.164062 167.19727 C 96.309986 167.35486 96.461653 167.50623 96.619141 167.65234 C 96.765064 167.80994 96.916731 167.96131 97.074219 168.10742 C 97.219553 168.26434 97.370541 168.41502 97.527344 168.56055 C 97.672068 168.71674 97.822424 168.86681 97.978516 169.01172 C 98.12265 169.16724 98.272328 169.31661 98.427734 169.46094 C 98.571869 169.61646 98.721547 169.76583 98.876953 169.91016 C 99.019887 170.06428 99.168255 170.21234 99.322266 170.35547 C 99.4652 170.50959 99.613567 170.65766 99.767578 170.80078 C 99.909902 170.95418 100.05764 171.10164 100.21094 171.24414 C 100.35267 171.39687 100.49973 171.54362 100.65234 171.68555 C 100.75333 171.79432 100.86032 171.89686 100.9668 172 L 160 172 C 166 172 172 166 172 160 L 172 100.43555 L 171.8125 100.43555 L 171.8125 100.03516 L 171.41211 100.03516 L 171.41211 99.634766 L 171.00781 99.634766 L 171.00781 99.230469 L 170.60352 99.230469 L 170.60352 98.826172 L 170.19531 98.826172 L 170.19531 98.419922 L 169.78711 98.419922 L 169.78711 98.011719 L 169.37891 98.011719 L 169.37891 97.601562 L 168.9668 97.601562 L 168.9668 97.189453 L 168.55273 97.189453 L 168.55273 96.777344 L 168.13867 96.777344 L 168.13867 96.361328 L 167.72266 96.361328 L 167.72266 95.945312 L 167.30469 95.945312 L 167.30469 95.527344 L 166.88477 95.527344 L 166.88477 95.107422 L 166.46289 95.107422 L 166.46289 94.685547 L 166.04102 94.685547 L 166.04102 94.263672 L 165.61523 94.263672 L 165.61523 93.839844 L 165.18945 93.839844 L 165.18945 93.412109 L 164.76172 93.412109 L 164.76172 92.984375 L 164.33203 92.984375 L 164.33203 92.556641 L 163.90234 92.556641 L 163.90234 92.125 L 163.46875 92.125 L 163.46875 91.691406 L 163.03516 91.691406 L 163.03516 91.257812 L 162.59961 91.257812 L 162.59961 90.822266 L 162.16211 90.822266 L 162.16211 90.384766 L 161.72266 90.384766 L 161.72266 89.945312 L 161.28125 89.945312 L 161.28125 89.503906 L 160.83984 89.503906 L 160.83984 89.0625 L 160.39453 89.0625 L 160.39453 88.619141 L 159.94922 88.619141 L 159.94922 88.171875 L 159.50195 88.171875 L 159.50195 87.724609 L 159.05273 87.724609 L 159.05273 87.277344 L 158.60352 87.277344 L 158.60352 86.826172 L 158.15039 86.826172 L 158.15039 86.373047 L 157.69727 86.373047 L 157.69727 85.919922 L 157.24219 85.919922 L 157.24219 85.464844 L 156.78516 85.464844 L 156.78516 85.007812 L 156.32617 85.007812 L 156.32617 84.548828 L 155.86523 84.548828 L 155.86523 84.089844 L 155.4043 84.089844 L 155.4043 83.626953 L 154.94141 83.626953 L 154.94141 83.164062 L 154.47656 83.164062 L 154.47656 82.699219 L 154.00977 82.699219 L 154.00977 82.232422 L 153.54102 82.232422 L 153.54102 81.763672 L 153.07031 81.763672 L 153.07031 81.292969 L 152.59961 81.292969 L 152.59961 80.822266 L 152.125 80.822266 L 152.125 80.349609 L 151.65039 80.349609 L 151.65039 79.873047 L 151.17383 79.873047 L 151.17383 79.398438 L 150.69727 79.398438 L 150.69727 78.919922 L 150.2168 78.919922 L 150.2168 78.439453 L 149.73633 78.439453 L 149.73633 77.958984 L 149.25195 77.958984 L 149.25195 77.474609 L 148.76758 77.474609 L 148.76758 76.990234 L 148.28125 76.990234 L 148.28125 76.503906 L 147.79297 76.503906 L 147.79297 76.017578 L 147.30469 76.017578 L 147.30469 75.527344 L 146.8125 75.527344 L 146.8125 75.037109 L 146.32031 75.037109 L 146.32031 74.542969 L 145.82617 74.542969 L 145.82617 74.048828 L 145.33008 74.048828 L 145.33008 73.552734 L 144.83203 73.552734 L 144.83203 73.056641 L 144.33398 73.056641 L 144.33398 72.556641 L 143.83203 72.556641 L 143.83203 72.056641 L 143.33008 72.056641 L 143.33008 71.552734 L 142.82617 71.552734 L 142.82617 71.048828 L 142.32031 71.048828 L 142.32031 70.542969 L 141.8125 70.542969 L 141.8125 70.037109 L 141.30469 70.037109 L 141.30469 69.527344 L 140.79297 69.527344 L 140.79297 69.017578 L 140.28125 69.017578 L 140.28125 68.503906 L 139.76758 68.503906 L 139.76758 67.990234 L 139.25195 67.990234 L 139.25195 67.474609 L 138.73633 67.474609 L 138.73633 66.958984 L 138.2168 66.958984 L 138.2168 66.439453 L 137.69727 66.439453 L 137.69727 65.919922 L 137.17383 65.919922 L 137.17383 65.398438 L 136.65039 65.398438 L 136.65039 64.875 L 136.125 64.875 L 136.125 64.349609 L 135.59961 64.349609 L 135.59961 63.822266 L 135.07031 63.822266 L 135.07031 63.292969 L 134.54102 63.292969 L 134.54102 62.763672 L 134.00977 62.763672 L 134.00977 62.232422 L 133.47656 62.232422 L 133.47656 61.699219 L 132.94141 61.699219 L 132.94141 61.164062 L 132.4043 61.164062 L 132.4043 60.626953 L 131.86523 60.626953 L 131.86523 60.089844 L 131.32617 60.089844 L 131.32617 59.548828 L 130.78516 59.548828 L 130.78516 59.007812 L 130.24219 59.007812 L 130.24219 58.464844 L 129.69727 58.464844 L 129.69727 57.919922 L 129.15039 57.919922 L 129.15039 57.375 L 128.60352 57.375 L 128.60352 56.826172 L 128.05469 56.826172 L 128.05469 56.277344 L 127.50195 56.277344 L 127.50195 55.726562 L 126.94922 55.726562 L 126.94922 55.171875 L 126.39453 55.171875 L 126.39453 54.619141 L 125.83984 54.619141 L 125.83984 54.0625 L 125.28125 54.0625 L 125.28125 53.503906 L 124.72266 53.503906 L 124.72266 52.945312 L 124.16211 52.945312 L 124.16211 52.384766 L 123.59961 52.384766 L 123.59961 51.822266 L 123.03516 51.822266 L 123.03516 51.257812 L 122.46875 51.257812 L 122.46875 50.691406 L 121.90234 50.691406 L 121.90234 50.125 L 113.45703 50.125 L 113.45703 58.570312 L 88.019531 58.570312 L 88.019531 58.464844 L 87.474609 58.464844 L 87.474609 57.919922 L 86.929688 57.919922 L 86.929688 57.375 L 86.380859 57.375 L 86.380859 56.826172 L 85.832031 56.826172 L 85.832031 56.277344 L 85.28125 56.277344 L 85.28125 55.726562 L 84.728516 55.726562 L 84.728516 55.171875 L 84.173828 55.171875 L 84.173828 54.619141 L 83.617188 54.619141 L 83.617188 54.0625 L 83.060547 54.0625 L 83.060547 53.503906 L 82.5 53.503906 L 82.5 52.945312 L 81.939453 52.945312 L 81.939453 52.384766 L 81.376953 52.384766 L 81.376953 51.822266 L 80.8125 51.822266 L 80.8125 51.257812 L 80.248047 51.257812 L 80.248047 50.691406 L 79.679688 50.691406 L 79.679688 50.125 L 71.236328 50.125 z" transform="translate(0,860.36216)"/>
    <path d="m 117.1108,956.36236 -21.111002,0 0,21.111 21.111002,0 0,-21.111 z m -4.2222,-46.4442 0,8.4444 -33.777602,0 0,-8.4444 -8.4444,0 0,8.4444 -4.2222,0 c -4.686642,0 -8.402178,3.79998 -8.402178,8.4444 L 58,985.91776 c 0,4.64442 3.757758,8.4444 8.4444,8.4444 l 59.1108,0 c 4.64442,0 8.4444,-3.79998 8.4444,-8.4444 l 0,-59.1108 c 0,-4.64442 -3.79998,-8.4444 -8.4444,-8.4444 l -4.2222,0 0,-8.4444 -8.4444,0 z m 12.6666,75.9996 -59.110802,0 0,-46.4442 59.110802,0 0,46.4442 z" inkscape:connector-curvature="0" style="fill:#f5f5f5;fill-opacity:1;filter:url(#e)"/>
    <g>
      <path style="fill:#ffffff;fill-opacity:1;opacity:0.2" d="M 70.666016 49.556641 L 70.666016 50.556641 L 79.111328 50.556641 L 79.111328 49.556641 L 70.666016 49.556641 z M 112.88867 49.556641 L 112.88867 50.556641 L 121.33203 50.556641 L 121.33203 49.556641 L 112.88867 49.556641 z M 66.445312 58 C 61.758671 58 58.042969 61.800893 58.042969 66.445312 L 58.042969 67.445312 C 58.042969 62.800893 61.758671 59 66.445312 59 L 70.666016 59 L 70.666016 58 L 66.445312 58 z M 79.111328 58 L 79.111328 59 L 112.88867 59 L 112.88867 58 L 79.111328 58 z M 121.33203 58 L 121.33203 59 L 125.55469 59 C 130.19911 59 134 62.800893 134 67.445312 L 134 66.445312 C 134 61.800893 130.19911 58 125.55469 58 L 121.33203 58 z M 96 96 L 96 97 L 117.11133 97 L 117.11133 96 L 96 96 z M 66.445312 125.55469 L 66.445312 126.55469 L 125.55469 126.55469 L 125.55469 125.55469 L 66.445312 125.55469 z" transform="translate(0,860.36216)"/>
      <path style="fill:#1a237e;fill-opacity:1;opacity:0.2" d="M 66.445312 79.111328 L 66.445312 80.111328 L 125.55469 80.111328 L 125.55469 79.111328 L 66.445312 79.111328 z M 96 117.11133 L 96 118.11133 L 117.11133 118.11133 L 117.11133 117.11133 L 96 117.11133 z M 134 125.55469 C 134 130.19911 130.19911 134 125.55469 134 L 66.445312 134 C 61.763308 134 58.007427 130.20651 58 125.56836 L 58 126.55469 C 58 131.19911 61.758671 135 66.445312 135 L 125.55469 135 C 130.19911 135 134 131.19911 134 126.55469 L 134 125.55469 z" transform="translate(0,860.36216)"/>
    </g>
  </g>
  <g sodipodi:insensitive="true" inkscape:label="finish" inkscape:groupmode="layer">
    <path inkscape:connector-curvature="0" d="m 32,20 c -6,0 -12,6 -12,12 l 0,1 c 0,-6 6,-12 12,-12 l 128,0 c 6,0 12,6 12,12 l 0,-1 c 0,-6 -6,-12 -12,-12 L 32,20 Z" style="opacity:0.1;fill:#ffffff;fill-opacity:1;fill-rule:evenodd;stroke:none;stroke-width:1px;stroke-linecap:butt;stroke-linejoin:miter;stroke-opacity:1"/>
    <path inkscape:connector-curvature="0" d="m 20,159 0,1 c 0,6 6,12 12,12 l 128,0 c 6,0 12,-6 12,-12 l 0,-1 c 0,6 -6,12 -12,12 l -128,0 c -6,0 -12,-6 -12,-12 z" style="opacity:0.2;fill:#1a237e;fill-opacity:1;fill-rule:evenodd;stroke:none;stroke-width:1px;stroke-linecap:butt;stroke-linejoin:miter;stroke-opacity:1"/>
    <path style="opacity:0.1;fill:url(#f);fill-opacity:1;fill-rule:evenodd;stroke:none;stroke-width:0.1;stroke-linecap:butt;stroke-linejoin:miter;stroke-miterlimit:4;stroke-dasharray:none;stroke-opacity:1" d="m 32,880.36216 128,0 c 6,0 12,6 12,12 l 0,128.00004 c 0,6 -6,12 -12,12 l -128,0 c -6,0 -12,-6 -12,-12 l 0,-128.00004 c 0,-6 6,-12 12,-12 z" inkscape:connector-curvature="0" sodipodi:nodetypes="ccccccccc" transform="translate(0,-860.36216)"/>
  </g>
</svg>
