<svg xmlns="http://www.w3.org/2000/svg" xmlns:xlink="http://www.w3.org/1999/xlink" viewBox="0 0 48 48" version="1.1" height="1em" width="1em">
  <g>
    <path style="stroke:none;fill-rule:nonzero;fill:rgb(60.392157%,46.666667%,23.529412%);fill-opacity:1" d="M 10 2 C 9.054688 2 8 3.054688 8 4 L 8 44 C 8 44.890625 9.109375 46 10 46 L 38 46 C 38.890625 46 39.984375 44.890625 40 44 L 40 14 L 28 2 Z M 10 2"/>
    <path style="stroke:none;fill-rule:nonzero;fill:rgb(0%,0%,0%);fill-opacity:0.196078" d="M 30 14 L 40 24 L 40 14 Z M 30 14"/>
    <path style="stroke:none;fill-rule:nonzero;fill:rgb(100%,100%,100%);fill-opacity:0.392157" d="M 28 2 L 40 14 L 30 14 C 29.109375 14 28 12.890625 28 12 Z M 28 2"/>
    <path style="stroke:none;fill-rule:evenodd;fill:rgb(97.647059%,97.647059%,97.647059%);fill-opacity:1" d="M 14 2 L 18 2 L 18 6 L 14 6 Z M 14 2"/>
    <path style="stroke:none;fill-rule:nonzero;fill:rgb(97.647059%,97.647059%,97.647059%);fill-opacity:1" d="M 33.210938 20.351562 C 33.125 20.398438 33.039062 20.546875 32.964844 20.796875 C 32.75 21.460938 31.261719 26.054688 22.824219 26.277344 C 18.800781 26.378906 17.082031 22.6875 17.082031 22.6875 L 16.984375 27.441406 C 16.984375 27.441406 17.414062 28.507812 16.554688 29.613281 C 16.511719 29.539062 16.480469 29.453125 16.425781 29.378906 C 16.109375 28.933594 15.75 28.550781 15.363281 28.269531 C 14.921875 27.945312 14.449219 27.722656 14.003906 27.664062 C 13.472656 27.574219 12.957031 27.695312 12.558594 28.003906 C 12.15625 28.3125 11.914062 28.773438 11.828125 29.332031 C 11.742188 29.804688 11.769531 30.324219 11.925781 30.855469 C 12.054688 31.34375 12.269531 31.816406 12.585938 32.273438 C 12.914062 32.746094 13.316406 33.160156 13.746094 33.453125 C 14.234375 33.792969 14.734375 33.984375 15.234375 34.015625 C 15.394531 34.015625 15.550781 33.984375 15.695312 33.957031 C 18.929688 36.644531 25.359375 39.15625 29.628906 36.289062 C 29.714844 36.320312 29.816406 36.363281 29.902344 36.394531 C 29.902344 36.4375 29.886719 36.484375 29.902344 36.527344 L 30.101562 36.453125 C 30.144531 36.46875 30.171875 36.496094 30.203125 36.496094 C 30.214844 36.496094 30.214844 36.496094 30.230469 36.496094 L 30.300781 36.585938 L 32.222656 37.292969 C 32.148438 37.988281 32.480469 38.785156 33.308594 39.125 C 34.8125 39.730469 36.21875 40.5 36.21875 40.5 C 35.5 37.945312 35.242188 35.890625 33.367188 36.082031 C 33.007812 36.113281 32.75 36.261719 32.550781 36.484375 L 30.859375 35.332031 L 30.789062 35.332031 L 30.761719 35.316406 C 33.039062 32.953125 34.371094 28.535156 33.566406 20.855469 C 33.523438 20.472656 33.367188 20.265625 33.210938 20.351562 Z M 33.210938 20.351562"/>
    <path style="stroke:none;fill-rule:evenodd;fill:rgb(97.647059%,97.647059%,97.647059%);fill-opacity:1" d="M 18 6 L 22 6 L 22 10 L 18 10 Z M 18 6"/>
    <path style="stroke:none;fill-rule:evenodd;fill:rgb(97.647059%,97.647059%,97.647059%);fill-opacity:1" d="M 14 12 L 22 12 L 22 20 L 14 20 Z M 14 12"/>
  </g>
</svg>
