<svg xmlns="http://www.w3.org/2000/svg" viewBox="0 0 48 48" version="1.1" height="1em" width="1em">
  <g>
    <path style="stroke:none;fill-rule:nonzero;fill:rgb(86.27451%,86.27451%,86.27451%);fill-opacity:1" d="M 10 2 C 9.054688 2 8 3.054688 8 4 L 8 44 C 8 44.890625 9.109375 46 10 46 L 38 46 C 38.890625 46 39.984375 44.890625 40 44 L 40 14 L 28 2 Z M 10 2"/>
    <path style="stroke:none;fill-rule:nonzero;fill:rgb(0%,0%,0%);fill-opacity:0.196078" d="M 30 14 L 40 24 L 40 14 Z M 30 14"/>
    <path style="stroke:none;fill-rule:nonzero;fill:rgb(100%,100%,100%);fill-opacity:0.392157" d="M 28 2 L 40 14 L 30 14 C 29.109375 14 28 12.890625 28 12 Z M 28 2"/>
    <path style="stroke:none;fill-rule:nonzero;fill:rgb(53.333333%,53.333333%,53.333333%);fill-opacity:1" d="M 24 16 C 17.375 16 12 21.371094 12 28.007812 C 12 34.628906 17.375 40 24 40 C 30.625 40 36 34.628906 36 28.007812 C 36 21.371094 30.625 16 24 16 Z M 24 18.402344 C 29.304688 18.402344 33.609375 22.707031 33.609375 28.007812 C 33.609375 33.308594 29.304688 37.597656 24 37.597656 C 18.695312 37.597656 14.390625 33.308594 14.390625 28.007812 C 14.390625 22.707031 18.695312 18.402344 24 18.402344 Z M 24 18.402344"/>
    <path style="stroke:none;fill-rule:nonzero;fill:rgb(53.333333%,53.333333%,53.333333%);fill-opacity:1" d="M 24.183594 23.269531 C 22.929688 23.269531 21.960938 23.691406 21.269531 24.535156 C 20.582031 25.378906 20.230469 26.542969 20.230469 28.050781 C 20.230469 31.171875 21.550781 32.730469 24.183594 32.730469 C 25.292969 32.730469 26.628906 32.476562 28.207031 31.984375 L 28.207031 34.488281 C 26.910156 34.964844 25.476562 35.207031 23.875 35.207031 C 21.582031 35.207031 19.835938 34.585938 18.613281 33.351562 C 17.402344 32.113281 16.796875 30.339844 16.796875 28.019531 C 16.796875 26.574219 17.09375 25.292969 17.699219 24.210938 C 18.289062 23.101562 19.148438 22.269531 20.257812 21.679688 C 21.382812 21.105469 22.691406 20.808594 24.183594 20.808594 C 25.714844 20.808594 27.265625 21.132812 28.796875 21.792969 L 27.726562 24.210938 C 27.136719 23.957031 26.546875 23.734375 25.941406 23.550781 C 25.351562 23.367188 24.757812 23.269531 24.183594 23.269531"/>
  </g>
</svg>
