<svg xmlns="http://www.w3.org/2000/svg" viewBox="0 0 48 48" height="1em" width="1em">
  <path style="stroke:none;fill-rule:nonzero;fill:#0b71b9;fill-opacity:1" d="M10 2c-.945 0-2 1.055-2 2v40c0 .89 1.11 2 2 2h28c.89 0 1.984-1.11 2-2V14L28 2Zm0 0"/>
  <path style="stroke:none;fill-rule:nonzero;fill:#000;fill-opacity:.196078" d="m30 14 10 10V14Zm0 0"/>
  <path style="stroke:none;fill-rule:nonzero;fill:#fff;fill-opacity:.392157" d="m28 2 12 12H30c-.89 0-2-1.11-2-2Zm0 0"/>
  <path style="stroke:none;fill-rule:nonzero;fill:#fff;fill-opacity:1" d="M16 18v4l11.805.04-.278 2.991h-6.386v3.989h6.007l-.289 3.988L24 34.012l-2.86-1.004V31.02h-3.804V36L24 38l6.664-2 .961-17.96Zm0 0"/>
</svg>
