<svg xmlns="http://www.w3.org/2000/svg" xmlns:xlink="http://www.w3.org/1999/xlink" viewBox="0 0 192 192" height="1em" width="1em">
  <defs>
    <linearGradient id="b">
      <stop style="stop-color:#fff;stop-opacity:.1" offset="0"/>
      <stop style="stop-color:#fff;stop-opacity:0" offset="1"/>
    </linearGradient>
    <linearGradient id="a">
      <stop style="stop-color:#3e2723;stop-opacity:.2" offset="0"/>
      <stop style="stop-color:#3e2723;stop-opacity:0" offset="1"/>
    </linearGradient>
    <linearGradient xlink:href="#a" id="d" x1="20" y1="20" x2="184" y2="184" gradientUnits="userSpaceOnUse"/>
    <filter style="color-interpolation-filters:sRGB" id="e">
      <feFlood flood-opacity=".2" flood-color="#3E2723" result="flood"/>
      <feComposite in="flood" in2="SourceGraphic" operator="in" result="composite1"/>
      <feGaussianBlur in="composite1" stdDeviation="4" result="blur"/>
      <feOffset dx="4" dy="4" result="offset"/>
      <feComposite in="SourceGraphic" in2="offset" result="composite2"/>
    </filter>
    <filter style="color-interpolation-filters:sRGB" id="c">
      <feFlood flood-opacity=".12" flood-color="#000" result="flood"/>
      <feComposite in="flood" in2="SourceGraphic" operator="in" result="composite1"/>
      <feGaussianBlur in="composite1" stdDeviation="2" result="blur"/>
      <feOffset result="offset"/>
      <feComposite in="SourceGraphic" in2="offset" result="fbSourceGraphic"/>
      <feColorMatrix result="fbSourceGraphicAlpha" in="fbSourceGraphic" values="0 0 0 -1 0 0 0 0 -1 0 0 0 0 -1 0 0 0 0 1 0"/>
      <feFlood flood-opacity=".24" flood-color="#000" result="flood"/>
      <feComposite in2="fbSourceGraphic" in="flood" operator="in" result="composite1"/>
      <feGaussianBlur in="composite1" stdDeviation="2" result="blur"/>
      <feOffset dy="4" result="offset"/>
      <feComposite in2="offset" in="fbSourceGraphic" result="composite2"/>
    </filter>
    <radialGradient xlink:href="#b" id="f" cx="8" cy="868.362" fx="8" fy="868.362" r="88" gradientUnits="userSpaceOnUse" gradientTransform="matrix(2 2 -2 2 1728.725 -884.362)"/>
  </defs>
  <g transform="translate(0 -860.362)">
    <circle r="88" cy="956.362" cx="96" style="color:#000;clip-rule:nonzero;display:inline;overflow:visible;visibility:visible;opacity:1;isolation:auto;mix-blend-mode:normal;color-interpolation:sRGB;color-interpolation-filters:linearRGB;solid-color:#000;solid-opacity:1;fill:#f44336;fill-opacity:1;fill-rule:evenodd;stroke:none;stroke-width:1;stroke-linecap:butt;stroke-linejoin:round;stroke-miterlimit:4;stroke-dasharray:none;stroke-dashoffset:0;stroke-opacity:1;color-rendering:auto;image-rendering:auto;shape-rendering:auto;text-rendering:auto;enable-background:accumulate;filter:url(#c)"/>
    <path style="color:#000;font-style:normal;font-variant:normal;font-weight:400;font-stretch:normal;font-size:medium;line-height:normal;font-family:Sans;-inkscape-font-specification:Sans;text-indent:0;text-align:start;text-decoration:none;text-decoration-line:none;letter-spacing:normal;word-spacing:normal;text-transform:none;direction:ltr;block-progression:tb;writing-mode:lr-tb;baseline-shift:baseline;text-anchor:start;display:inline;overflow:visible;visibility:visible;opacity:1;fill:url(#d);fill-opacity:1;stroke:none;stroke-width:1.55467153;marker:none;enable-background:new" d="M96 20c-41.853 0-76 34.194-76 76v.002c0 21.294 8.872 40.598 23.096 54.43l30.578 30.578A88 88 0 0 0 96 184a88 88 0 0 0 88-88 88 88 0 0 0-2.71-21.33c-20.375-20.389-35.803-35.93-35.632-36.102C132.293 27.016 114.938 20 96 20z" transform="translate(0 860.362)"/>
    <path style="color:#000;font-style:normal;font-variant:normal;font-weight:400;font-stretch:normal;font-size:medium;line-height:normal;font-family:Sans;-inkscape-font-specification:Sans;text-indent:0;text-align:start;text-decoration:none;text-decoration-line:none;letter-spacing:normal;word-spacing:normal;text-transform:none;direction:ltr;block-progression:tb;writing-mode:lr-tb;baseline-shift:baseline;text-anchor:start;display:inline;overflow:visible;visibility:visible;fill:#fafafa;fill-opacity:1;stroke:none;stroke-width:0;marker:none;enable-background:new;filter:url(#e);stroke-miterlimit:4;stroke-dasharray:none" d="M96 880.362c-41.853 0-76 34.194-76 76s34.147 76 76 76 76-34.194 76-76c0-7.555-1.372-14.686-3.455-21.59l-57.863 57.863L96 1007.317l-14.682-14.682-41.454-41.455 29.363-29.363L96 948.589l49.66-49.659c-13.367-11.552-30.722-18.568-49.66-18.568Z"/>
    <path d="M96 880.362c-41.853 0-76 34.194-76 76 0 .168.013.333.014.5.272-41.577 34.3-75.5 75.986-75.5 18.684 0 35.82 6.838 49.111 18.115l.547-.547c-13.366-11.552-30.72-18.568-49.658-18.568Zm72.545 54.408-57.863 57.866L96 1007.317l-14.682-14.681-40.955-40.956-.5.5 41.455 41.456L96 1008.317l14.682-14.681 57.863-57.866c2.033 6.741 3.38 13.7 3.443 21.057.001-.156.012-.31.012-.465 0-7.556-1.373-14.687-3.455-21.592z" style="color:#000;font-style:normal;font-variant:normal;font-weight:400;font-stretch:normal;font-size:medium;line-height:normal;font-family:Sans;-inkscape-font-specification:Sans;text-indent:0;text-align:start;text-decoration:none;text-decoration-line:none;letter-spacing:normal;word-spacing:normal;text-transform:none;direction:ltr;block-progression:tb;writing-mode:lr-tb;baseline-shift:baseline;text-anchor:start;display:inline;overflow:visible;visibility:visible;fill:#fff;fill-opacity:1;stroke:none;stroke-width:1.55467153;marker:none;enable-background:new"/>
    <path transform="translate(0 860.362)" d="M145.111 39.115 96 88.227 69.227 61.455 39.863 90.818l.5.5 28.864-28.863L96 89.227l49.658-49.659c-.179-.154-.366-.3-.547-.453zm26.877 57.35C171.735 138.058 137.698 172 96 172c-41.685 0-75.714-33.923-75.986-75.5-.001.167-.014.332-.014.5 0 41.806 34.147 76 76 76s76-34.194 76-76c0-.18-.01-.356-.012-.535z" style="color:#000;font-style:normal;font-variant:normal;font-weight:400;font-stretch:normal;font-size:medium;line-height:normal;font-family:Sans;-inkscape-font-specification:Sans;text-indent:0;text-align:start;text-decoration:none;text-decoration-line:none;letter-spacing:normal;word-spacing:normal;text-transform:none;direction:ltr;block-progression:tb;writing-mode:lr-tb;baseline-shift:baseline;text-anchor:start;display:inline;overflow:visible;visibility:visible;fill:#3e2723;fill-opacity:1;stroke:none;stroke-width:1.55467153;marker:none;enable-background:new;opacity:.2"/>
    <path d="M183.979 955.776A88 88 0 0 1 96 1043.362a88 88 0 0 1-87.979-87.414 88 88 0 0 0-.021.414 88 88 0 0 0 88 88 88 88 0 0 0 88-88 88 88 0 0 0-.021-.586z" style="color:#000;clip-rule:nonzero;display:inline;overflow:visible;visibility:visible;opacity:.2;isolation:auto;mix-blend-mode:normal;color-interpolation:sRGB;color-interpolation-filters:linearRGB;solid-color:#000;solid-opacity:1;fill:#3e2723;fill-opacity:1;fill-rule:evenodd;stroke:none;stroke-width:1;stroke-linecap:butt;stroke-linejoin:round;stroke-miterlimit:4;stroke-dasharray:none;stroke-dashoffset:0;stroke-opacity:1;color-rendering:auto;image-rendering:auto;shape-rendering:auto;text-rendering:auto;enable-background:accumulate"/>
    <path d="M96 868.362a88 88 0 0 0-88 88 88 88 0 0 0 .021.586A88 88 0 0 1 96 869.362a88 88 0 0 1 87.979 87.414 88 88 0 0 0 .021-.414 88 88 0 0 0-88-88z" style="color:#000;clip-rule:nonzero;display:inline;overflow:visible;visibility:visible;opacity:.2;isolation:auto;mix-blend-mode:normal;color-interpolation:sRGB;color-interpolation-filters:linearRGB;solid-color:#000;solid-opacity:1;fill:#fff;fill-opacity:1;fill-rule:evenodd;stroke:none;stroke-width:1;stroke-linecap:butt;stroke-linejoin:round;stroke-miterlimit:4;stroke-dasharray:none;stroke-dashoffset:0;stroke-opacity:1;color-rendering:auto;image-rendering:auto;shape-rendering:auto;text-rendering:auto;enable-background:accumulate"/>
  </g>
  <circle transform="translate(0 -860.362)" r="88" cy="956.362" cx="96" style="color:#000;clip-rule:nonzero;display:inline;overflow:visible;visibility:visible;opacity:1;isolation:auto;mix-blend-mode:normal;color-interpolation:sRGB;color-interpolation-filters:linearRGB;solid-color:#000;solid-opacity:1;fill:url(#f);fill-opacity:1;fill-rule:evenodd;stroke:none;stroke-width:1;stroke-linecap:butt;stroke-linejoin:round;stroke-miterlimit:4;stroke-dasharray:none;stroke-dashoffset:0;stroke-opacity:1;color-rendering:auto;image-rendering:auto;shape-rendering:auto;text-rendering:auto;enable-background:accumulate"/>
</svg>
