<svg xmlns="http://www.w3.org/2000/svg" xmlns:xlink="http://www.w3.org/1999/xlink" viewBox="0 0 192 192" height="1em" width="1em">
  <defs>
    <linearGradient id="a">
      <stop style="stop-color:#212121;stop-opacity:.2" offset="0"/>
      <stop style="stop-color:#212121;stop-opacity:0" offset="1"/>
    </linearGradient>
    <linearGradient id="b">
      <stop offset="0" style="stop-color:#fff;stop-opacity:.1"/>
      <stop offset="1" style="stop-color:#fff;stop-opacity:0"/>
    </linearGradient>
    <linearGradient xlink:href="#a" id="d" x1="44" y1="46" x2="172" y2="174" gradientUnits="userSpaceOnUse"/>
    <filter style="color-interpolation-filters:sRGB" id="e">
      <feFlood flood-opacity=".2" flood-color="#212121" result="flood"/>
      <feComposite in="flood" in2="SourceGraphic" operator="in" result="composite1"/>
      <feGaussianBlur in="composite1" stdDeviation="4" result="blur"/>
      <feOffset dx="4" dy="4" result="offset"/>
      <feComposite in="SourceGraphic" in2="offset" result="composite2"/>
    </filter>
    <filter style="color-interpolation-filters:sRGB" id="c">
      <feFlood flood-opacity=".12" flood-color="#000" result="flood"/>
      <feComposite in="flood" in2="SourceGraphic" operator="in" result="composite1"/>
      <feGaussianBlur in="composite1" stdDeviation="2" result="blur"/>
      <feOffset result="offset"/>
      <feComposite in="SourceGraphic" in2="offset" result="fbSourceGraphic"/>
      <feColorMatrix result="fbSourceGraphicAlpha" in="fbSourceGraphic" values="0 0 0 -1 0 0 0 0 -1 0 0 0 0 -1 0 0 0 0 1 0"/>
      <feFlood flood-opacity=".24" flood-color="#000" result="flood"/>
      <feComposite in2="fbSourceGraphic" in="flood" operator="in" result="composite1"/>
      <feGaussianBlur in="composite1" stdDeviation="2" result="blur"/>
      <feOffset dy="4" result="offset"/>
      <feComposite in2="offset" in="fbSourceGraphic" result="composite2"/>
    </filter>
    <radialGradient gradientTransform="matrix(2 2 -2 2 1740.725 -920.362)" gradientUnits="userSpaceOnUse" r="76" fy="880.362" fx="20" cy="880.362" cx="20" id="f" xlink:href="#b"/>
  </defs>
  <g transform="translate(0 -860.362)">
    <rect style="color:#000;clip-rule:nonzero;display:inline;overflow:visible;visibility:visible;opacity:1;isolation:auto;mix-blend-mode:normal;color-interpolation:sRGB;color-interpolation-filters:linearRGB;solid-color:#000;solid-opacity:1;fill:#757575;fill-opacity:1;fill-rule:evenodd;stroke:none;stroke-width:1;stroke-linecap:butt;stroke-linejoin:round;stroke-miterlimit:4;stroke-dasharray:none;stroke-dashoffset:0;stroke-opacity:1;color-rendering:auto;image-rendering:auto;shape-rendering:auto;text-rendering:auto;enable-background:accumulate;filter:url(#c)" width="152" height="152" x="20" y="880.362" rx="12" ry="12"/>
    <path style="opacity:1;fill:url(#d);fill-opacity:1" d="M53.453 48.727c-5.2 0-9.453 4.255-9.453 9.455v56.728c0 2.951 1.372 5.595 3.508 7.332L97.266 172H160c6.648 0 12-5.352 12-12V78.357l-26.12-26.119c-1.736-2.137-4.382-3.511-7.335-3.511H53.453z" transform="translate(0 860.362)"/>
    <path style="color:#000;clip-rule:nonzero;display:inline;overflow:visible;visibility:visible;opacity:.2;isolation:auto;mix-blend-mode:normal;color-interpolation:sRGB;color-interpolation-filters:linearRGB;solid-color:#000;solid-opacity:1;fill:#fff;fill-opacity:1;fill-rule:evenodd;stroke:none;stroke-width:1;stroke-linecap:butt;stroke-linejoin:round;stroke-miterlimit:4;stroke-dasharray:none;stroke-dashoffset:0;stroke-opacity:1;color-rendering:auto;image-rendering:auto;shape-rendering:auto;text-rendering:auto;enable-background:accumulate" d="M32 880.362c-6.648 0-12 5.352-12 12v1c0-6.648 5.352-12 12-12h128c6.648 0 12 5.352 12 12v-1c0-6.648-5.352-12-12-12H32z"/>
    <path style="color:#000;clip-rule:nonzero;display:inline;overflow:visible;visibility:visible;opacity:.2;isolation:auto;mix-blend-mode:normal;color-interpolation:sRGB;color-interpolation-filters:linearRGB;solid-color:#000;solid-opacity:1;fill:#212121;fill-opacity:1;fill-rule:evenodd;stroke:none;stroke-width:1;stroke-linecap:butt;stroke-linejoin:round;stroke-miterlimit:4;stroke-dasharray:none;stroke-dashoffset:0;stroke-opacity:1;color-rendering:auto;image-rendering:auto;shape-rendering:auto;text-rendering:auto;enable-background:accumulate" d="M20 1019.362v1c0 6.648 5.352 12 12 12h128c6.648 0 12-5.352 12-12v-1c0 6.648-5.352 12-12 12H32c-6.648 0-12-5.352-12-12z"/>
    <path d="M138.545 909.09h-85.09c-5.2 0-9.455 4.254-9.455 9.454v56.727c0 5.2 4.255 9.455 9.455 9.455h33.09v9.454h-9.454v9.455h37.818v-9.455h-9.454v-9.454h33.09c5.2 0 9.455-4.255 9.455-9.455v-56.727c0-5.2-4.255-9.455-9.455-9.455zm0 66.181h-85.09v-56.727h85.09v56.727z" style="fill:#fafafa;filter:url(#e)"/>
    <path d="M53.455 909.09c-5.2 0-9.455 4.253-9.455 9.453v1c0-5.2 4.255-9.455 9.455-9.455h85.09c5.2 0 9.455 4.255 9.455 9.455v-1c0-5.2-4.255-9.453-9.455-9.453h-85.09zm0 66.182v.998h85.09v-.998h-85.09zm23.637 18.908v1h9.453v-1h-9.453zm28.363 0v1h9.453v-1h-9.453z" style="fill:#fff"/>
    <path transform="translate(0 860.362)" d="M53.455 58.182v1h85.09v-1h-85.09zM44 114.908v1.002c0 5.2 4.255 9.453 9.455 9.453h33.09v-1h-33.09c-5.2 0-9.455-4.255-9.455-9.455zm104 0c0 5.2-4.255 9.455-9.455 9.455h-33.09v1h33.09c5.2 0 9.455-4.253 9.455-9.453v-1.002zm-70.908 28.365v1h37.816v-1H77.092z" style="fill:#212121;opacity:.2"/>
  </g>
  <rect style="color:#000;clip-rule:nonzero;display:inline;overflow:visible;visibility:visible;opacity:1;isolation:auto;mix-blend-mode:normal;color-interpolation:sRGB;color-interpolation-filters:linearRGB;solid-color:#000;solid-opacity:1;fill:url(#f);fill-opacity:1;fill-rule:evenodd;stroke:none;stroke-width:1;stroke-linecap:butt;stroke-linejoin:round;stroke-miterlimit:4;stroke-dasharray:none;stroke-dashoffset:0;stroke-opacity:1;color-rendering:auto;image-rendering:auto;shape-rendering:auto;text-rendering:auto;enable-background:accumulate" width="152" height="152" x="20" y="880.362" rx="12" ry="12" transform="translate(0 -860.362)"/>
</svg>
