<svg xmlns="http://www.w3.org/2000/svg" xmlns:xlink="http://www.w3.org/1999/xlink" viewBox="0 0 192 192" height="1em" width="1em">
  <defs>
    <linearGradient id="b">
      <stop style="stop-color:#fff;stop-opacity:.10196079" offset="0"/>
      <stop style="stop-color:#fff;stop-opacity:0" offset="1"/>
    </linearGradient>
    <linearGradient id="a">
      <stop style="stop-color:#1a237e;stop-opacity:.2" offset="0"/>
      <stop style="stop-color:#1a237e;stop-opacity:0" offset="1"/>
    </linearGradient>
    <linearGradient xlink:href="#a" id="d" x1="68" y1="58" x2="144" y2="134" gradientUnits="userSpaceOnUse"/>
    <filter style="color-interpolation-filters:sRGB" id="e" x="-.5" y="-.5" width="2" height="2">
      <feFlood flood-opacity=".2" flood-color="#1A237E" result="flood"/>
      <feComposite in="flood" in2="SourceGraphic" operator="in" result="composite1"/>
      <feGaussianBlur in="composite1" stdDeviation="4" result="blur"/>
      <feOffset dx="4" dy="4" result="offset"/>
      <feComposite in="SourceGraphic" in2="offset" result="composite2"/>
    </filter>
    <filter style="color-interpolation-filters:sRGB" id="c">
      <feFlood flood-opacity=".12" flood-color="#000" result="flood"/>
      <feComposite in="flood" in2="SourceGraphic" operator="in" result="composite1"/>
      <feGaussianBlur in="composite1" stdDeviation="2" result="blur"/>
      <feOffset result="offset"/>
      <feComposite in="SourceGraphic" in2="offset" result="fbSourceGraphic"/>
      <feColorMatrix result="fbSourceGraphicAlpha" in="fbSourceGraphic" values="0 0 0 -1 0 0 0 0 -1 0 0 0 0 -1 0 0 0 0 1 0"/>
      <feFlood flood-opacity=".24" flood-color="#000" result="flood"/>
      <feComposite in2="fbSourceGraphic" in="flood" operator="in" result="composite1"/>
      <feGaussianBlur in="composite1" stdDeviation="2" result="blur"/>
      <feOffset dy="4" result="offset"/>
      <feComposite in2="offset" in="fbSourceGraphic" result="composite2"/>
    </filter>
    <radialGradient xlink:href="#b" id="f" cx="20" cy="880.362" fx="20" fy="880.362" r="76" gradientTransform="rotate(45 1241.022 1371.36) scale(2.15854)" gradientUnits="userSpaceOnUse"/>
  </defs>
  <path style="color:#000;clip-rule:nonzero;display:inline;overflow:visible;visibility:visible;opacity:1;isolation:auto;mix-blend-mode:normal;color-interpolation:sRGB;color-interpolation-filters:linearRGB;solid-color:#000;solid-opacity:1;fill:#5c8ccf;fill-opacity:1;fill-rule:evenodd;stroke:none;stroke-width:.5;stroke-linecap:butt;stroke-linejoin:round;stroke-miterlimit:4;stroke-dasharray:none;stroke-dashoffset:0;stroke-opacity:1;color-rendering:auto;image-rendering:auto;shape-rendering:auto;text-rendering:auto;enable-background:accumulate;filter:url(#c)" d="M32 898.362c-6.648 0-12 5.352-12 12v104l24.705-20H160c6.648 0 12-5.352 12-12v-72c0-6.648-5.352-12-12-12H32z" transform="translate(0 -860.362)"/>
  <path style="display:inline;opacity:1;fill:url(#d);fill-opacity:1;stroke:none;enable-background:new" d="M96 58c-15.464 0-28 12.536-28 28 0 7.984 3.346 15.183 8.707 20.283L104.424 134H160a11.964 11.964 0 0 0 11.98-11.596l-55.697-55.697C111.183 61.347 103.983 58 96 58z"/>
  <path style="display:inline;fill:#f5f5f5;fill-opacity:1;stroke:none;filter:url(#e);enable-background:new" d="M96 918.362c-15.464 0-28 12.536-28 28s12.536 28 28 28 28-12.536 28-28-12.536-28-28-28z" transform="translate(0 -860.362)"/>
  <path style="color:#000;clip-rule:nonzero;display:inline;overflow:visible;visibility:visible;opacity:1;isolation:auto;mix-blend-mode:normal;color-interpolation:sRGB;color-interpolation-filters:linearRGB;solid-color:#000;solid-opacity:1;fill:#5c8ccf;fill-opacity:1;fill-rule:evenodd;stroke:none;stroke-width:.5;stroke-linecap:butt;stroke-linejoin:round;stroke-miterlimit:4;stroke-dasharray:none;stroke-dashoffset:0;stroke-opacity:1;color-rendering:auto;image-rendering:auto;shape-rendering:auto;text-rendering:auto;enable-background:accumulate" d="M84 73.875v8.375h4v-8.375zm19.875 0v8.375H108v-8.375zM114.25 87.25C110.129 91.319 103.649 94 96.375 94c-6.947 0-12.99-2.49-17.125-6.25 2.116 6.016 9.042 10.5 17.375 10.5 8.584 0 15.753-4.706 17.625-11z"/>
  <path d="M32 898.362c-6.648 0-12 5.352-12 12v1c0-6.648 5.352-12 12-12h128c6.648 0 12 5.352 12 12v-1c0-6.648-5.352-12-12-12H32z" style="color:#000;clip-rule:nonzero;display:inline;overflow:visible;visibility:visible;opacity:.2;isolation:auto;mix-blend-mode:normal;color-interpolation:sRGB;color-interpolation-filters:linearRGB;solid-color:#000;solid-opacity:1;fill:#fff;fill-opacity:1;fill-rule:evenodd;stroke:none;stroke-width:.5;stroke-linecap:butt;stroke-linejoin:round;stroke-miterlimit:4;stroke-dasharray:none;stroke-dashoffset:0;stroke-opacity:1;color-rendering:auto;image-rendering:auto;shape-rendering:auto;text-rendering:auto;enable-background:accumulate" transform="translate(0 -860.362)"/>
  <path d="M172 981.362c0 6.648-5.352 12-12 12H44.705l-24.705 20v1l24.705-20H160c6.648 0 12-5.352 12-12v-1z" style="color:#000;clip-rule:nonzero;display:inline;overflow:visible;visibility:visible;opacity:.2;isolation:auto;mix-blend-mode:normal;color-interpolation:sRGB;color-interpolation-filters:linearRGB;solid-color:#000;solid-opacity:1;fill:#1a237e;fill-opacity:1;fill-rule:evenodd;stroke:none;stroke-width:.5;stroke-linecap:butt;stroke-linejoin:round;stroke-miterlimit:4;stroke-dasharray:none;stroke-dashoffset:0;stroke-opacity:1;color-rendering:auto;image-rendering:auto;shape-rendering:auto;text-rendering:auto;enable-background:accumulate" transform="translate(0 -860.362)"/>
  <path style="display:inline;fill:#fff;fill-opacity:1;stroke:none;enable-background:new;opacity:.4" d="M96 918.362c-15.464 0-28 12.536-28 28 0 .168.01.333.014.5.267-15.232 12.69-27.5 27.986-27.5 15.296 0 27.719 12.268 27.986 27.5.003-.167.014-.332.014-.5 0-15.464-12.536-28-28-28z" transform="translate(0 -860.362)"/>
  <path style="display:inline;fill:#1a237e;fill-opacity:1;stroke:none;enable-background:new;opacity:.2" d="M68.014 86.5c-.003.167-.014.332-.014.5 0 15.464 12.536 28 28 28s28-12.536 28-28c0-.168-.01-.333-.014-.5C123.72 101.732 111.296 114 96 114c-15.296 0-27.719-12.268-27.986-27.5z"/>
  <path transform="translate(0 -860.362)" style="color:#000;clip-rule:nonzero;display:inline;overflow:visible;visibility:visible;opacity:1;isolation:auto;mix-blend-mode:normal;color-interpolation:sRGB;color-interpolation-filters:linearRGB;solid-color:#000;solid-opacity:1;fill:url(#f);fill-opacity:1;fill-rule:evenodd;stroke:none;stroke-width:.5;stroke-linecap:butt;stroke-linejoin:round;stroke-miterlimit:4;stroke-dasharray:none;stroke-dashoffset:0;stroke-opacity:1;color-rendering:auto;image-rendering:auto;shape-rendering:auto;text-rendering:auto;enable-background:accumulate" d="M32 898.362c-6.648 0-12 5.352-12 12v104l24.705-20H160c6.648 0 12-5.352 12-12v-72c0-6.648-5.352-12-12-12H32z"/>
</svg>
