<svg xmlns="http://www.w3.org/2000/svg" viewBox="0 0 48 48" version="1.1" height="1em" width="1em">
  <g>
    <path style="stroke:none;fill-rule:nonzero;fill:rgb(48.627451%,61.176471%,20.784314%);fill-opacity:1" d="M 10 2 C 9.054688 2 8 3.054688 8 4 L 8 44 C 8 44.890625 9.109375 46 10 46 L 38 46 C 38.890625 46 39.984375 44.890625 40 44 L 40 14 L 28 2 Z M 10 2"/>
    <path style="stroke:none;fill-rule:nonzero;fill:rgb(0%,0%,0%);fill-opacity:0.196078" d="M 30 14 L 40 24 L 40 14 Z M 30 14"/>
    <path style="stroke:none;fill-rule:nonzero;fill:rgb(100%,100%,100%);fill-opacity:0.392157" d="M 28 2 L 40 14 L 30 14 C 29.109375 14 28 12.890625 28 12 Z M 28 2"/>
    <path style="stroke:none;fill-rule:nonzero;fill:rgb(100%,100%,100%);fill-opacity:1" d="M 24 32.34375 L 17.492188 25.835938 L 24 19.320312 L 26.171875 21.492188 L 21.828125 25.835938 L 24 28 L 30.507812 21.492188 L 24.839844 15.820312 C 24.378906 15.351562 23.621094 15.351562 23.160156 15.820312 L 13.984375 24.996094 C 13.527344 25.457031 13.527344 26.207031 13.984375 26.675781 L 23.160156 35.851562 C 23.621094 36.308594 24.378906 36.308594 24.839844 35.851562 L 34.015625 26.675781 C 34.472656 26.207031 34.472656 25.457031 34.015625 24.996094 L 32.679688 23.664062 Z M 24 32.34375"/>
  </g>
</svg>
