<svg xmlns="http://www.w3.org/2000/svg" xmlns:xlink="http://www.w3.org/1999/xlink" xmlns:sodipodi="http://sodipodi.sourceforge.net/DTD/sodipodi-0.dtd" xmlns:inkscape="http://www.inkscape.org/namespaces/inkscape" viewBox="0 0 192 192" version="1.1" inkscape:version="0.91 r13725" sodipodi:docname="distributor-logo-fedora.svg" inkscape:export-filename="/home/alex/Pictures/exports/Oko icon pack/distributor-logo-fedora.png" inkscape:export-xdpi="480" inkscape:export-ydpi="480" height="1em" width="1em">
  <sodipodi:namedview pagecolor="#ffffff" bordercolor="#666666" borderopacity="1.0" inkscape:pageopacity="0.0" inkscape:pageshadow="2" inkscape:zoom="3.959798" inkscape:cx="71.613562" inkscape:cy="91.345013" inkscape:document-units="px" inkscape:current-layer="layer1" showgrid="true" units="px" inkscape:showpageshadow="false" borderlayer="true" inkscape:window-width="1920" inkscape:window-height="1023" inkscape:window-x="0" inkscape:window-y="27" inkscape:window-maximized="1" inkscape:snap-grids="true" inkscape:snap-center="true" inkscape:object-nodes="true" inkscape:snap-bbox="true" inkscape:bbox-paths="true" showguides="false" inkscape:bbox-nodes="false">
    <inkscape:grid type="xygrid" empspacing="4"/>
  </sodipodi:namedview>
  <defs>
    <linearGradient inkscape:collect="always" id="b">
      <stop style="stop-color:#1a237e;stop-opacity:0.2" offset="0"/>
      <stop style="stop-color:#1a237e;stop-opacity:0" offset="1"/>
    </linearGradient>
    <linearGradient id="a" inkscape:collect="always">
      <stop offset="0" style="stop-color:#ffffff;stop-opacity:0.1"/>
      <stop offset="1" style="stop-color:#ffffff;stop-opacity:0"/>
    </linearGradient>
    <radialGradient gradientTransform="matrix(2.0000003,2.0000003,-2.0000003,2.0000003,1740.7246,-920.36248)" gradientUnits="userSpaceOnUse" r="76" fy="880.36218" fx="20" cy="880.36218" cx="20" id="f" xlink:href="#a" inkscape:collect="always"/>
    <linearGradient inkscape:collect="always" xlink:href="#b" id="d" x1="60.919838" y1="52.919846" x2="172" y2="164" gradientUnits="userSpaceOnUse"/>
    <filter style="color-interpolation-filters:sRGB" inkscape:label="Drop Shadow" id="e">
      <feFlood flood-opacity="0.2" flood-color="rgb(26,35,126)" result="flood"/>
      <feComposite in="flood" in2="SourceGraphic" operator="in" result="composite1"/>
      <feGaussianBlur in="composite1" stdDeviation="4" result="blur"/>
      <feOffset dx="4" dy="4" result="offset"/>
      <feComposite in="SourceGraphic" in2="offset" operator="over" result="composite2"/>
    </filter>
    <filter style="color-interpolation-filters:sRGB" inkscape:label="Drop Shadow" id="c">
      <feFlood flood-opacity="0.12" flood-color="rgb(0,0,0)" result="flood"/>
      <feComposite in="flood" in2="SourceGraphic" operator="in" result="composite1"/>
      <feGaussianBlur in="composite1" stdDeviation="2" result="blur"/>
      <feOffset dx="0" dy="0" result="offset"/>
      <feComposite in="SourceGraphic" in2="offset" operator="over" result="fbSourceGraphic"/>
      <feColorMatrix result="fbSourceGraphicAlpha" in="fbSourceGraphic" values="0 0 0 -1 0 0 0 0 -1 0 0 0 0 -1 0 0 0 0 1 0"/>
      <feFlood flood-opacity="0.23999999999999999" flood-color="rgb(0,0,0)" result="flood" in="fbSourceGraphic"/>
      <feComposite in2="fbSourceGraphic" in="flood" operator="in" result="composite1"/>
      <feGaussianBlur in="composite1" stdDeviation="2" result="blur"/>
      <feOffset dx="0" dy="4" result="offset"/>
      <feComposite in2="offset" in="fbSourceGraphic" operator="over" result="composite2"/>
    </filter>
  </defs>
  <g inkscape:label="Main" inkscape:groupmode="layer" transform="translate(0,-860.36216)">
    <rect style="color:#000000;clip-rule:nonzero;display:inline;overflow:visible;visibility:visible;opacity:1;isolation:auto;mix-blend-mode:normal;color-interpolation:sRGB;color-interpolation-filters:linearRGB;solid-color:#000000;solid-opacity:1;fill:#294172;fill-opacity:1;fill-rule:evenodd;stroke:none;stroke-width:24;stroke-linecap:round;stroke-linejoin:round;stroke-miterlimit:4;stroke-dasharray:none;stroke-dashoffset:0;stroke-opacity:1;color-rendering:auto;image-rendering:auto;shape-rendering:auto;text-rendering:auto;enable-background:accumulate;filter:url(#c)" width="152" height="152" x="20" y="880.36218" rx="12" ry="12"/>
    <path inkscape:connector-curvature="0" d="m 118.51207,904.36407 c -16.184,0 -29.455689,13.27169 -29.455689,29.45568 l 0,15.63386 -15.568449,0 c -16.18365,0 -29.455682,13.27079 -29.455682,29.45473 0,16.18403 13.271691,29.45576 29.455682,29.45576 16.183999,0 29.454758,-13.27203 29.454758,-29.45576 l 0,-15.6338 15.56938,0 c 16.18365,0 29.45477,-13.27114 29.45477,-29.45479 0,-16.18365 -13.27078,-29.45568 -29.45477,-29.45568 z m 0,13.77761 c 8.72935,0 15.67715,6.94839 15.67715,15.67807 0,8.7297 -6.94746,15.67716 -15.67715,15.67716 l -15.67808,0 0,-15.67716 c 0,-8.72933 6.94874,-15.67807 15.67808,-15.67807 z m -45.024138,45.08955 15.677154,0 0,15.67711 c 0,8.72966 -6.947809,15.67813 -15.677154,15.67813 -8.729345,0 -15.678064,-6.94879 -15.678064,-15.67813 0,-8.72934 6.948378,-15.67711 15.678064,-15.67711 z" style="color:#000000;font-style:normal;font-variant:normal;font-weight:normal;font-stretch:normal;font-size:medium;line-height:normal;font-family:sans-serif;text-indent:0;text-align:start;text-decoration:none;text-decoration-line:none;text-decoration-style:solid;text-decoration-color:#000000;letter-spacing:normal;word-spacing:normal;text-transform:none;direction:ltr;block-progression:tb;writing-mode:lr-tb;baseline-shift:baseline;text-anchor:start;white-space:normal;clip-rule:nonzero;display:inline;overflow:visible;visibility:visible;opacity:1;isolation:auto;mix-blend-mode:normal;color-interpolation:sRGB;color-interpolation-filters:linearRGB;solid-color:#000000;solid-opacity:1;fill:#3c6eb4;fill-opacity:1;fill-rule:nonzero;stroke:none;stroke-width:29.20999908;stroke-linecap:butt;stroke-linejoin:miter;stroke-miterlimit:4;stroke-dasharray:none;stroke-dashoffset:0;stroke-opacity:1;color-rendering:auto;image-rendering:auto;shape-rendering:auto;text-rendering:auto;enable-background:accumulate"/>
    <path style="opacity:1;fill:url(#d);fill-opacity:1" d="M 118.50977 44.017578 L 118.50977 44.019531 C 102.23594 44.020631 89.041016 57.214795 89.041016 73.488281 L 89.041016 73.490234 L 89.041016 89.109375 L 76.699219 89.109375 C 72.851471 89.110115 69.74211 92.133659 69.744141 95.974609 L 69.744141 95.976562 C 69.744548 98.047498 70.653269 99.883704 72.089844 101.13477 L 89.042969 118.11328 L 89.042969 118.53711 L 89.042969 118.53906 C 89.027089 127.11858 82.068 134.06836 73.488281 134.06836 L 73.486328 134.06836 C 70.580733 134.06827 69.860682 133.6875 67.876953 133.6875 C 63.709308 133.68818 60.919922 136.48104 60.919922 140.32227 C 60.920783 142.14582 61.83634 143.80934 63.230469 145.07227 L 90.15625 172 L 160 172 C 166.648 172 172 166.648 172 160 L 172 90.162109 L 129.43359 47.589844 C 128.32614 46.320009 126.76277 45.348266 125.02148 44.892578 L 125.01953 44.892578 C 122.73475 44.295428 120.97827 44.017578 118.50977 44.017578 z" transform="translate(0,860.36216)"/>
    <path inkscape:connector-curvature="0" d="m 118.51115,904.38157 c -16.27473,0 -29.469507,13.19536 -29.469507,29.4695 l 0,15.62004 -12.341452,0 c -3.848398,0 -6.959005,3.02432 -6.956974,6.86574 0,3.81777 3.076905,6.85473 6.884199,6.85473 l 10.218064,0 c 1.213127,0 2.197081,0.98053 2.197081,2.19164 l 0,13.51683 c -0.01503,8.58024 -6.974386,15.52982 -15.554629,15.52982 -2.906483,0 -3.626195,-0.3804 -5.610166,-0.3804 -4.16849,0 -6.956974,2.7937 -6.956974,6.63543 8.13e-4,3.1783 2.724231,5.9116 6.056952,6.7837 2.285595,0.5976 4.041082,0.8762 6.510188,0.8762 16.274723,0 29.469498,-13.19543 29.469498,-29.46961 l 0,-15.61999 12.34237,0 c 3.84841,0 6.95795,-3.02437 6.95607,-6.86578 0,-3.81773 -3.076,-6.85473 -6.88328,-6.85473 l -10.21899,-0.002 c -1.21312,0 -2.19708,-0.98045 -2.19708,-2.19155 l 0,-13.51692 c 0.015,-8.58024 6.97438,-15.52975 15.55463,-15.52975 2.90648,0 3.62711,0.38045 5.61109,0.38045 4.16849,0 6.95697,-2.79374 6.95697,-6.63548 -8.1e-4,-3.17831 -2.72515,-5.91162 -6.05788,-6.78378 -2.28559,-0.59745 -4.04108,-0.87607 -6.51018,-0.87607 z" style="fill:#fafafa;fill-opacity:1;filter:url(#e)"/>
    <path style="color:#000000;clip-rule:nonzero;display:inline;overflow:visible;visibility:visible;opacity:0.2;isolation:auto;mix-blend-mode:normal;color-interpolation:sRGB;color-interpolation-filters:linearRGB;solid-color:#000000;solid-opacity:1;fill:#ffffff;fill-opacity:1;fill-rule:evenodd;stroke:none;stroke-width:24;stroke-linecap:round;stroke-linejoin:round;stroke-miterlimit:4;stroke-dasharray:none;stroke-dashoffset:0;stroke-opacity:1;color-rendering:auto;image-rendering:auto;shape-rendering:auto;text-rendering:auto;enable-background:accumulate" d="m 32,880.36216 c -6.648,0 -12,5.352 -12,12 l 0,1 c 0,-6.648 5.352,-12 12,-12 l 128,0 c 6.648,0 12,5.352 12,12 l 0,-1 c 0,-6.648 -5.352,-12 -12,-12 l -128,0 z" inkscape:connector-curvature="0"/>
    <path style="color:#000000;clip-rule:nonzero;display:inline;overflow:visible;visibility:visible;opacity:0.2;isolation:auto;mix-blend-mode:normal;color-interpolation:sRGB;color-interpolation-filters:linearRGB;solid-color:#000000;solid-opacity:1;fill:#1a237e;fill-opacity:1;fill-rule:evenodd;stroke:none;stroke-width:24;stroke-linecap:round;stroke-linejoin:round;stroke-miterlimit:4;stroke-dasharray:none;stroke-dashoffset:0;stroke-opacity:1;color-rendering:auto;image-rendering:auto;shape-rendering:auto;text-rendering:auto;enable-background:accumulate" d="m 20,1019.3622 0,1 c 0,6.648 5.352,12 12,12 l 128,0 c 6.648,0 12,-5.352 12,-12 l 0,-1 c 0,6.648 -5.352,12 -12,12 l -128,0 c -6.648,0 -12,-5.352 -12,-12 z" inkscape:connector-curvature="0"/>
    <path inkscape:connector-curvature="0" d="m 118.51172,904.3794 0,0.002 c -16.27473,0 -29.470704,13.19656 -29.470704,29.4707 l 0,0.99805 c 0,-16.27414 13.195974,-29.46875 29.470704,-29.46875 l 0,-0.002 c 2.4691,0 4.22417,0.27755 6.50976,0.875 3.17256,0.83024 5.78788,3.34835 6.03321,6.33008 0.0128,-0.18 0.0254,-0.35987 0.0254,-0.54493 -8.1e-4,-3.17831 -2.72587,-5.91104 -6.0586,-6.7832 -2.28559,-0.59745 -4.04066,-0.87695 -6.50976,-0.87695 z m -15.55469,42.96094 0,1 c 0,1.2111 0.98415,2.1914 2.19727,2.1914 l 10.21875,0.002 c 3.63965,0 6.60282,2.77768 6.85742,6.35742 0.0118,-0.16615 0.0255,-0.33243 0.0254,-0.50196 0,-3.81773 -3.07553,-6.85351 -6.88281,-6.85351 l -10.21875,-0.004 c -1.21312,0 -2.19727,-0.9803 -2.19727,-2.1914 z m -26.257811,2.13086 c -3.848398,0 -6.957109,3.02381 -6.955078,6.86523 0,0.16809 0.01366,0.33317 0.02539,0.49805 0.256237,-3.59886 3.25112,-6.36328 6.929688,-6.36328 l 12.341797,0 0,-1 -12.341797,0 z m 12.34375,29.42968 c -0.01503,8.58024 -6.974445,15.5293 -15.554688,15.5293 -2.906483,0 -3.627357,-0.38086 -5.611328,-0.38086 -4.16849,0 -6.957031,2.79304 -6.957031,6.63478 3.9e-5,0.1527 0.01301,0.3045 0.02539,0.4551 0.252587,-3.55676 2.963943,-6.08988 6.931641,-6.08988 1.983971,0 2.704845,0.38086 5.611328,0.38086 8.580243,0 15.539658,-6.95101 15.554688,-15.53125 l 0,-0.99805 z" style="fill:#ffffff;fill-opacity:1"/>
    <path transform="translate(0,860.36216)" d="M 131.05469 52.222656 C 130.8021 55.779389 128.09074 58.3125 124.12305 58.3125 C 122.13907 58.3125 121.4182 57.931641 118.51172 57.931641 C 109.93147 57.931641 102.97203 64.882651 102.95703 73.462891 L 102.95703 74.462891 C 102.97203 65.882651 109.93147 58.933594 118.51172 58.933594 C 121.4182 58.933594 122.13907 59.3125 124.12305 59.3125 C 128.29154 59.3125 131.08008 56.519474 131.08008 52.677734 C 131.08004 52.52448 131.06715 52.373683 131.05469 52.222656 z M 69.769531 96.474609 C 69.757728 96.640574 69.744051 96.805281 69.744141 96.974609 C 69.744141 100.79238 72.819659 103.83008 76.626953 103.83008 L 86.845703 103.83008 C 88.05883 103.83008 89.042969 104.81037 89.042969 106.02148 L 89.042969 105.02148 C 89.042969 103.81037 88.05883 102.83008 86.845703 102.83008 L 76.626953 102.83008 C 72.987946 102.83008 70.025132 100.05344 69.769531 96.474609 z M 122.23047 96.529297 C 121.97419 100.12815 118.97741 102.89258 115.29883 102.89258 L 102.95703 102.89258 L 102.95703 103.89258 L 115.29883 103.89258 C 119.14724 103.89258 122.25774 100.86875 122.25586 97.027344 C 122.25586 96.858788 122.24226 96.694614 122.23047 96.529297 z M 102.95703 118.51367 C 102.95703 134.78785 89.763004 147.98242 73.488281 147.98242 C 71.019175 147.98242 69.264111 147.70307 66.978516 147.10547 C 63.805966 146.27528 61.19056 143.75906 60.945312 140.77734 C 60.93253 140.95734 60.919922 141.13721 60.919922 141.32227 C 60.920735 144.50057 63.645795 147.23532 66.978516 148.10742 C 69.264111 148.70502 71.019175 148.98242 73.488281 148.98242 C 89.763004 148.98242 102.95703 135.78785 102.95703 119.51367 L 102.95703 118.51367 z" style="fill:#1a237e;fill-opacity:1;opacity:0.2"/>
  </g>
  <g sodipodi:insensitive="true" inkscape:label="Finish" inkscape:groupmode="layer">
    <rect style="color:#000000;clip-rule:nonzero;display:inline;overflow:visible;visibility:visible;opacity:1;isolation:auto;mix-blend-mode:normal;color-interpolation:sRGB;color-interpolation-filters:linearRGB;solid-color:#000000;solid-opacity:1;fill:url(#f);fill-opacity:1;fill-rule:evenodd;stroke:none;stroke-width:24;stroke-linecap:round;stroke-linejoin:round;stroke-miterlimit:4;stroke-dasharray:none;stroke-dashoffset:0;stroke-opacity:1;color-rendering:auto;image-rendering:auto;shape-rendering:auto;text-rendering:auto;enable-background:accumulate" width="152" height="152" x="20" y="880.36218" rx="12" ry="12" transform="translate(0,-860.36216)"/>
  </g>
</svg>
