<svg xmlns="http://www.w3.org/2000/svg" viewBox="0 0 48 48" version="1.1" height="1em" width="1em">
  <g>
    <path style="stroke:none;fill-rule:nonzero;fill:rgb(80%,16.078431%,16.078431%);fill-opacity:1" d="M 10 2 C 9.054688 2 8 3.054688 8 4 L 8 44 C 8 44.890625 9.109375 46 10 46 L 38 46 C 38.890625 46 39.984375 44.890625 40 44 L 40 14 L 28 2 Z M 10 2"/>
    <path style="stroke:none;fill-rule:evenodd;fill:rgb(100%,100%,100%);fill-opacity:1" d="M 14.164062 32 L 14.664062 35.785156 C 14.664062 35.785156 21.539062 37.332031 24.8125 28 L 30 28 L 30 24 L 26.671875 24 C 26.671875 24 28.269531 19.976562 31.941406 19.609375 C 31.941406 19.523438 31.542969 16.003906 31.542969 16.003906 C 31.542969 16.003906 25.484375 15.179688 21.8125 24.144531 C 18.632812 32.917969 14.164062 32 14.164062 32 Z M 14.164062 32"/>
    <path style="stroke:none;fill-rule:nonzero;fill:rgb(0%,0%,0%);fill-opacity:0.196078" d="M 30 14 L 40 24 L 40 14 Z M 30 14"/>
    <path style="stroke:none;fill-rule:nonzero;fill:rgb(100%,100%,100%);fill-opacity:0.392157" d="M 28 2 L 40 14 L 30 14 C 29.109375 14 28 12.890625 28 12 Z M 28 2"/>
  </g>
</svg>
