<svg xmlns="http://www.w3.org/2000/svg" xmlns:xlink="http://www.w3.org/1999/xlink" xmlns:sodipodi="http://sodipodi.sourceforge.net/DTD/sodipodi-0.dtd" xmlns:inkscape="http://www.inkscape.org/namespaces/inkscape" viewBox="0 0 192 192" version="1.1" inkscape:version="0.91 r13725" sodipodi:docname="goa-account-flickr.svg" inkscape:export-filename="/home/alex/Pictures/exports/Oko icon pack/goa-account-flickr.png" inkscape:export-xdpi="480" inkscape:export-ydpi="480" height="1em" width="1em">
  <sodipodi:namedview pagecolor="#ffffff" bordercolor="#666666" borderopacity="1.0" inkscape:pageopacity="0.0" inkscape:pageshadow="2" inkscape:zoom="3.959798" inkscape:cx="34.960202" inkscape:cy="105.59045" inkscape:document-units="px" inkscape:current-layer="layer1" showgrid="true" units="px" inkscape:showpageshadow="false" borderlayer="true" inkscape:window-width="1920" inkscape:window-height="1023" inkscape:window-x="0" inkscape:window-y="27" inkscape:window-maximized="1" showguides="true" inkscape:guide-bbox="true" inkscape:snap-bbox="true" inkscape:bbox-nodes="true" inkscape:snap-center="true" inkscape:snap-grids="true" inkscape:object-nodes="true" inkscape:bbox-paths="true" inkscape:snap-smooth-nodes="false">
    <inkscape:grid type="xygrid" empspacing="4"/>
    <sodipodi:guide position="96,96" orientation="1,0"/>
    <sodipodi:guide position="96,96" orientation="0,1"/>
  </sodipodi:namedview>
  <defs>
    <linearGradient id="b" inkscape:collect="always">
      <stop offset="0" style="stop-color:#3e2723;stop-opacity:0.2"/>
      <stop offset="1" style="stop-color:#3e2723;stop-opacity:0"/>
    </linearGradient>
    <linearGradient inkscape:collect="always" id="c">
      <stop style="stop-color:#1a237e;stop-opacity:0.2" offset="0"/>
      <stop style="stop-color:#1a237e;stop-opacity:0" offset="1"/>
    </linearGradient>
    <linearGradient inkscape:collect="always" id="a">
      <stop style="stop-color:#ffffff;stop-opacity:0.10196079" offset="0"/>
      <stop style="stop-color:#ffffff;stop-opacity:0" offset="1"/>
    </linearGradient>
    <radialGradient inkscape:collect="always" xlink:href="#a" id="l" cx="20" cy="880.36218" fx="20" fy="880.36218" r="76" gradientUnits="userSpaceOnUse" gradientTransform="matrix(1.9999993,2.0000005,-2.0000008,1.9999996,1740.7252,-920.36187)"/>
    <clipPath clipPathUnits="userSpaceOnUse" id="g">
      <rect style="color:#000000;clip-rule:nonzero;display:inline;overflow:visible;visibility:visible;opacity:1;isolation:auto;mix-blend-mode:normal;color-interpolation:sRGB;color-interpolation-filters:linearRGB;solid-color:#000000;solid-opacity:1;fill:#f5f5f5;fill-opacity:1;fill-rule:evenodd;stroke:none;stroke-width:0.5;stroke-linecap:butt;stroke-linejoin:round;stroke-miterlimit:4;stroke-dasharray:none;stroke-dashoffset:0;stroke-opacity:1;color-rendering:auto;image-rendering:auto;shape-rendering:auto;text-rendering:auto;enable-background:accumulate" width="152" height="152" x="20" y="880.36218" rx="12" ry="12"/>
    </clipPath>
    <clipPath clipPathUnits="userSpaceOnUse" id="e">
      <rect style="color:#000000;clip-rule:nonzero;display:inline;overflow:visible;visibility:visible;opacity:1;isolation:auto;mix-blend-mode:normal;color-interpolation:sRGB;color-interpolation-filters:linearRGB;solid-color:#000000;solid-opacity:1;fill:#f5f5f5;fill-opacity:1;fill-rule:evenodd;stroke:none;stroke-width:0.5;stroke-linecap:butt;stroke-linejoin:round;stroke-miterlimit:4;stroke-dasharray:none;stroke-dashoffset:0;stroke-opacity:1;color-rendering:auto;image-rendering:auto;shape-rendering:auto;text-rendering:auto;enable-background:accumulate" width="152" height="152" x="20" y="880.36218" rx="12" ry="12"/>
    </clipPath>
    <filter style="color-interpolation-filters:sRGB" inkscape:label="Drop Shadow" id="d">
      <feFlood flood-opacity="0.12" flood-color="rgb(0,0,0)" result="flood"/>
      <feComposite in="flood" in2="SourceGraphic" operator="in" result="composite1"/>
      <feGaussianBlur in="composite1" stdDeviation="2" result="blur"/>
      <feOffset dx="0" dy="0" result="offset"/>
      <feComposite in="SourceGraphic" in2="offset" operator="over" result="fbSourceGraphic"/>
      <feColorMatrix result="fbSourceGraphicAlpha" in="fbSourceGraphic" values="0 0 0 -1 0 0 0 0 -1 0 0 0 0 -1 0 0 0 0 1 0"/>
      <feFlood flood-opacity="0.23999999999999999" flood-color="rgb(0,0,0)" result="flood" in="fbSourceGraphic"/>
      <feComposite in2="fbSourceGraphic" in="flood" operator="in" result="composite1"/>
      <feGaussianBlur in="composite1" stdDeviation="2" result="blur"/>
      <feOffset dx="0" dy="4" result="offset"/>
      <feComposite in2="offset" in="fbSourceGraphic" operator="over" result="composite2"/>
    </filter>
    <linearGradient inkscape:collect="always" xlink:href="#b" id="h" x1="56.999901" y1="71.999809" x2="157" y2="172" gradientUnits="userSpaceOnUse"/>
    <linearGradient inkscape:collect="always" xlink:href="#c" id="f" x1="56.999866" y1="71.999573" x2="157" y2="172" gradientUnits="userSpaceOnUse"/>
    <filter style="color-interpolation-filters:sRGB" inkscape:label="Drop Shadow" id="i" x="-0.5" y="-0.5" width="2" height="2">
      <feFlood flood-opacity="0.2" flood-color="rgb(62,39,35)" result="flood"/>
      <feComposite in="flood" in2="SourceGraphic" operator="in" result="composite1"/>
      <feGaussianBlur in="composite1" stdDeviation="4" result="blur"/>
      <feOffset dx="4" dy="4" result="offset"/>
      <feComposite in="SourceGraphic" in2="offset" operator="over" result="composite2"/>
    </filter>
    <filter style="color-interpolation-filters:sRGB" inkscape:label="Drop Shadow" id="j" x="-0.5" y="-0.5" width="2" height="2">
      <feFlood flood-opacity="0.2" flood-color="rgb(26,35,126)" result="flood"/>
      <feComposite in="flood" in2="SourceGraphic" operator="in" result="composite1"/>
      <feGaussianBlur in="composite1" stdDeviation="4" result="blur"/>
      <feOffset dx="4" dy="4" result="offset"/>
      <feComposite in="SourceGraphic" in2="offset" operator="over" result="composite2"/>
    </filter>
    <clipPath clipPathUnits="userSpaceOnUse" id="k">
      <rect style="color:#000000;clip-rule:nonzero;display:inline;overflow:visible;visibility:visible;opacity:1;isolation:auto;mix-blend-mode:normal;color-interpolation:sRGB;color-interpolation-filters:linearRGB;solid-color:#000000;solid-opacity:1;fill:#f5f5f5;fill-opacity:1;fill-rule:evenodd;stroke:none;stroke-width:0.5;stroke-linecap:butt;stroke-linejoin:round;stroke-miterlimit:4;stroke-dasharray:none;stroke-dashoffset:0;stroke-opacity:1;color-rendering:auto;image-rendering:auto;shape-rendering:auto;text-rendering:auto;enable-background:accumulate" width="152" height="152" x="20" y="880.36218" rx="12" ry="12"/>
    </clipPath>
  </defs>
  <g inkscape:label="Main" inkscape:groupmode="layer" transform="translate(0,-860.36216)">
    <rect style="color:#000000;clip-rule:nonzero;display:inline;overflow:visible;visibility:visible;opacity:1;isolation:auto;mix-blend-mode:normal;color-interpolation:sRGB;color-interpolation-filters:linearRGB;solid-color:#000000;solid-opacity:1;fill:#ffffff;fill-opacity:1;fill-rule:evenodd;stroke:none;stroke-width:0.5;stroke-linecap:butt;stroke-linejoin:round;stroke-miterlimit:4;stroke-dasharray:none;stroke-dashoffset:0;stroke-opacity:1;color-rendering:auto;image-rendering:auto;shape-rendering:auto;text-rendering:auto;enable-background:accumulate;filter:url(#d)" width="152" height="152" x="20" y="880.36218" rx="12" ry="12"/>
    <rect style="color:#000000;clip-rule:nonzero;display:inline;overflow:visible;visibility:visible;opacity:1;isolation:auto;mix-blend-mode:normal;color-interpolation:sRGB;color-interpolation-filters:linearRGB;solid-color:#000000;solid-opacity:1;fill:#0d64d2;fill-opacity:1;fill-rule:evenodd;stroke:none;stroke-width:0.5;stroke-linecap:butt;stroke-linejoin:round;stroke-miterlimit:4;stroke-dasharray:none;stroke-dashoffset:0;stroke-opacity:1;color-rendering:auto;image-rendering:auto;shape-rendering:auto;text-rendering:auto;enable-background:accumulate" width="76" height="152" x="20" y="880.36218" clip-path="url(#e)" transform="matrix(1.0526316,0,0,1,-1.0526316,0)"/>
    <path style="color:#000000;clip-rule:nonzero;display:inline;overflow:visible;visibility:visible;opacity:1;isolation:auto;mix-blend-mode:normal;color-interpolation:sRGB;color-interpolation-filters:linearRGB;solid-color:#000000;solid-opacity:1;fill:url(#f);fill-opacity:1;fill-rule:evenodd;stroke:none;stroke-width:0.5;stroke-linecap:butt;stroke-linejoin:round;stroke-miterlimit:4;stroke-dasharray:none;stroke-dashoffset:0;stroke-opacity:1;color-rendering:auto;image-rendering:auto;shape-rendering:auto;text-rendering:auto;enable-background:accumulate" d="M 66 72 C 59.634804 72 53.53017 74.528417 49.029297 79.029297 C 44.528424 83.530167 42 89.6348 42 96 C 42 102.3652 44.528424 108.46983 49.029297 112.9707 L 96 159.94141 L 96 92.058594 L 82.970703 79.029297 C 78.46983 74.528417 72.365196 72 66 72 z" transform="translate(0,860.36216)"/>
    <rect style="color:#000000;clip-rule:nonzero;display:inline;overflow:visible;visibility:visible;opacity:1;isolation:auto;mix-blend-mode:normal;color-interpolation:sRGB;color-interpolation-filters:linearRGB;solid-color:#000000;solid-opacity:1;fill:#ff0080;fill-opacity:1;fill-rule:evenodd;stroke:none;stroke-width:0.5;stroke-linecap:butt;stroke-linejoin:round;stroke-miterlimit:4;stroke-dasharray:none;stroke-dashoffset:0;stroke-opacity:1;color-rendering:auto;image-rendering:auto;shape-rendering:auto;text-rendering:auto;enable-background:accumulate" width="76" height="152" x="96" y="880.36218" clip-path="url(#g)"/>
    <path style="color:#000000;clip-rule:nonzero;display:inline;overflow:visible;visibility:visible;opacity:1;isolation:auto;mix-blend-mode:normal;color-interpolation:sRGB;color-interpolation-filters:linearRGB;solid-color:#000000;solid-opacity:1;fill:url(#h);fill-opacity:1;fill-rule:evenodd;stroke:none;stroke-width:0.5;stroke-linecap:butt;stroke-linejoin:round;stroke-miterlimit:4;stroke-dasharray:none;stroke-dashoffset:0;stroke-opacity:1;color-rendering:auto;image-rendering:auto;shape-rendering:auto;text-rendering:auto;enable-background:accumulate" d="M 126 72 C 119.6348 72 113.53017 74.528417 109.0293 79.029297 C 104.52842 83.530167 102 89.6348 102 96 C 102 96.7241 102.0369 97.444776 102.10156 98.160156 L 96 92.058594 L 96 159.94141 L 108.05859 172 L 160 172 C 166.648 172 172 166.648 172 160 L 172 108.05859 L 142.9707 79.029297 C 138.46983 74.528417 132.3652 72 126 72 z" transform="translate(0,860.36216)"/>
    <path d="m 150,956.36218 a 24,24 0 0 1 -24,24 24,24 0 0 1 -24,-24 24,24 0 0 1 24,-24 24,24 0 0 1 24,24 z" style="color:#000000;clip-rule:nonzero;display:inline;overflow:visible;visibility:visible;opacity:1;isolation:auto;mix-blend-mode:normal;color-interpolation:sRGB;color-interpolation-filters:linearRGB;solid-color:#000000;solid-opacity:1;fill:#f5f5f5;fill-opacity:1;fill-rule:evenodd;stroke:none;stroke-width:0.5;stroke-linecap:butt;stroke-linejoin:round;stroke-miterlimit:4;stroke-dasharray:none;stroke-dashoffset:0;stroke-opacity:1;color-rendering:auto;image-rendering:auto;shape-rendering:auto;text-rendering:auto;enable-background:accumulate;filter:url(#i)"/>
    <path style="color:#000000;clip-rule:nonzero;display:inline;overflow:visible;visibility:visible;opacity:1;isolation:auto;mix-blend-mode:normal;color-interpolation:sRGB;color-interpolation-filters:linearRGB;solid-color:#000000;solid-opacity:1;fill:#f5f5f5;fill-opacity:1;fill-rule:evenodd;stroke:none;stroke-width:0.5;stroke-linecap:butt;stroke-linejoin:round;stroke-miterlimit:4;stroke-dasharray:none;stroke-dashoffset:0;stroke-opacity:1;color-rendering:auto;image-rendering:auto;shape-rendering:auto;text-rendering:auto;enable-background:accumulate;filter:url(#j)" d="m 90,956.36218 a 24,24 0 0 1 -24,24 24,24 0 0 1 -24,-24 24,24 0 0 1 24,-24 24,24 0 0 1 24,24 z"/>
    <path style="color:#000000;clip-rule:nonzero;display:inline;overflow:visible;visibility:visible;opacity:0.2;isolation:auto;mix-blend-mode:normal;color-interpolation:sRGB;color-interpolation-filters:linearRGB;solid-color:#000000;solid-opacity:1;fill:#3e2723;fill-opacity:1;fill-rule:evenodd;stroke:none;stroke-width:0.5;stroke-linecap:butt;stroke-linejoin:round;stroke-miterlimit:4;stroke-dasharray:none;stroke-dashoffset:0;stroke-opacity:1;color-rendering:auto;image-rendering:auto;shape-rendering:auto;text-rendering:auto;enable-background:accumulate" d="M 172 159 C 172 165.648 166.648 171 160 171 L 96 171 L 96 172 L 160 172 C 166.648 172 172 166.648 172 160 L 172 159 z" transform="translate(0,860.36216)"/>
    <path style="color:#000000;clip-rule:nonzero;display:inline;overflow:visible;visibility:visible;opacity:0.2;isolation:auto;mix-blend-mode:normal;color-interpolation:sRGB;color-interpolation-filters:linearRGB;solid-color:#000000;solid-opacity:1;fill:#1a237e;fill-opacity:1;fill-rule:evenodd;stroke:none;stroke-width:0.5;stroke-linecap:butt;stroke-linejoin:round;stroke-miterlimit:4;stroke-dasharray:none;stroke-dashoffset:0;stroke-opacity:1;color-rendering:auto;image-rendering:auto;shape-rendering:auto;text-rendering:auto;enable-background:accumulate" d="M 20 159 L 20 160 C 20 166.648 25.352 172 32 172 L 96 172 L 96 171 L 32 171 C 25.352 171 20 165.648 20 159 z" transform="translate(0,860.36216)"/>
    <path style="color:#000000;clip-rule:nonzero;display:inline;overflow:visible;visibility:visible;opacity:0.4;isolation:auto;mix-blend-mode:normal;color-interpolation:sRGB;color-interpolation-filters:linearRGB;solid-color:#000000;solid-opacity:1;fill:#ffffff;fill-opacity:1;fill-rule:evenodd;stroke:none;stroke-width:0.5;stroke-linecap:butt;stroke-linejoin:round;stroke-miterlimit:4;stroke-dasharray:none;stroke-dashoffset:0;stroke-opacity:1;color-rendering:auto;image-rendering:auto;shape-rendering:auto;text-rendering:auto;enable-background:accumulate" d="m 66,932.36213 a 24,24 0 0 0 -24,24 24,24 0 0 0 0.02148,0.58203 A 24,24 0 0 1 66,933.36213 24,24 0 0 1 89.978516,956.7801 24,24 0 0 0 90,956.36213 a 24,24 0 0 0 -24,-24 z" inkscape:connector-curvature="0"/>
    <path style="color:#000000;clip-rule:nonzero;display:inline;overflow:visible;visibility:visible;opacity:0.2;isolation:auto;mix-blend-mode:normal;color-interpolation:sRGB;color-interpolation-filters:linearRGB;solid-color:#000000;solid-opacity:1;fill:#1a237e;fill-opacity:1;fill-rule:evenodd;stroke:none;stroke-width:0.5;stroke-linecap:butt;stroke-linejoin:round;stroke-miterlimit:4;stroke-dasharray:none;stroke-dashoffset:0;stroke-opacity:1;color-rendering:auto;image-rendering:auto;shape-rendering:auto;text-rendering:auto;enable-background:accumulate" d="M 89.978516 96.417969 A 24 24 0 0 1 66 120 A 24 24 0 0 1 42.021484 96.582031 A 24 24 0 0 0 42 97 A 24 24 0 0 0 66 121 A 24 24 0 0 0 90 97 A 24 24 0 0 0 89.978516 96.417969 z" transform="translate(0,860.36216)"/>
    <path style="color:#000000;clip-rule:nonzero;display:inline;overflow:visible;visibility:visible;opacity:0.4;isolation:auto;mix-blend-mode:normal;color-interpolation:sRGB;color-interpolation-filters:linearRGB;solid-color:#000000;solid-opacity:1;fill:#ffffff;fill-opacity:1;fill-rule:evenodd;stroke:none;stroke-width:0.5;stroke-linecap:butt;stroke-linejoin:round;stroke-miterlimit:4;stroke-dasharray:none;stroke-dashoffset:0;stroke-opacity:1;color-rendering:auto;image-rendering:auto;shape-rendering:auto;text-rendering:auto;enable-background:accumulate" d="m 126,932.36213 a 24,24 0 0 0 -24,24 24,24 0 0 0 0.0215,0.58203 A 24,24 0 0 1 126,933.36213 24,24 0 0 1 149.97852,956.7801 24,24 0 0 0 150,956.36213 a 24,24 0 0 0 -24,-24 z" inkscape:connector-curvature="0"/>
    <path style="color:#000000;clip-rule:nonzero;display:inline;overflow:visible;visibility:visible;opacity:0.2;isolation:auto;mix-blend-mode:normal;color-interpolation:sRGB;color-interpolation-filters:linearRGB;solid-color:#000000;solid-opacity:1;fill:#3e2723;fill-opacity:1;fill-rule:evenodd;stroke:none;stroke-width:0.5;stroke-linecap:butt;stroke-linejoin:round;stroke-miterlimit:4;stroke-dasharray:none;stroke-dashoffset:0;stroke-opacity:1;color-rendering:auto;image-rendering:auto;shape-rendering:auto;text-rendering:auto;enable-background:accumulate" d="M 149.97852 96.417969 A 24 24 0 0 1 126 120 A 24 24 0 0 1 102.02148 96.582031 A 24 24 0 0 0 102 97 A 24 24 0 0 0 126 121 A 24 24 0 0 0 150 97 A 24 24 0 0 0 149.97852 96.417969 z" transform="translate(0,860.36216)"/>
    <path style="color:#000000;clip-rule:nonzero;display:inline;overflow:visible;visibility:visible;opacity:1;isolation:auto;mix-blend-mode:normal;color-interpolation:sRGB;color-interpolation-filters:linearRGB;solid-color:#000000;solid-opacity:1;fill:#ff0080;fill-opacity:1;fill-rule:evenodd;stroke:none;stroke-width:0.5;stroke-linecap:butt;stroke-linejoin:round;stroke-miterlimit:4;stroke-dasharray:none;stroke-dashoffset:0;stroke-opacity:1;color-rendering:auto;image-rendering:auto;shape-rendering:auto;text-rendering:auto;enable-background:accumulate" clip-path="url(#k)" d="M 96 20 L 96 21 L 160 21 C 166.648 21 172 26.352 172 33 L 172 32 C 172 25.352 166.648 20 160 20 L 96 20 z" transform="translate(0,860.36216)"/>
    <path style="color:#000000;clip-rule:nonzero;display:inline;overflow:visible;visibility:visible;opacity:0.2;isolation:auto;mix-blend-mode:normal;color-interpolation:sRGB;color-interpolation-filters:linearRGB;solid-color:#000000;solid-opacity:1;fill:#ffffff;fill-opacity:1;fill-rule:evenodd;stroke:none;stroke-width:0.5;stroke-linecap:butt;stroke-linejoin:round;stroke-miterlimit:4;stroke-dasharray:none;stroke-dashoffset:0;stroke-opacity:1;color-rendering:auto;image-rendering:auto;shape-rendering:auto;text-rendering:auto;enable-background:accumulate" d="m 32,880.36216 c -6.648,0 -12,5.352 -12,12 l 0,1 c 0,-6.648 5.352,-12 12,-12 l 64,0 0,-1 z" inkscape:connector-curvature="0" sodipodi:nodetypes="sscsccs"/>
    <path style="color:#000000;clip-rule:nonzero;display:inline;overflow:visible;visibility:visible;opacity:0.3;isolation:auto;mix-blend-mode:normal;color-interpolation:sRGB;color-interpolation-filters:linearRGB;solid-color:#000000;solid-opacity:1;fill:#ffffff;fill-opacity:1;fill-rule:evenodd;stroke:none;stroke-width:0.5;stroke-linecap:butt;stroke-linejoin:round;stroke-miterlimit:4;stroke-dasharray:none;stroke-dashoffset:0;stroke-opacity:1;color-rendering:auto;image-rendering:auto;shape-rendering:auto;text-rendering:auto;enable-background:accumulate" d="m 160,880.36216 c 6.648,0 12,5.352 12,12 l 0,1 c 0,-6.648 -5.352,-12 -12,-12 l -64,0 0,-1 z" inkscape:connector-curvature="0" sodipodi:nodetypes="sscsccs"/>
  </g>
  <g inkscape:groupmode="layer" inkscape:label="Finish" sodipodi:insensitive="true">
    <rect transform="translate(0,-860.36216)" style="color:#000000;clip-rule:nonzero;display:inline;overflow:visible;visibility:visible;opacity:1;isolation:auto;mix-blend-mode:normal;color-interpolation:sRGB;color-interpolation-filters:linearRGB;solid-color:#000000;solid-opacity:1;fill:url(#l);fill-opacity:1;fill-rule:evenodd;stroke:none;stroke-width:0.5;stroke-linecap:butt;stroke-linejoin:round;stroke-miterlimit:4;stroke-dasharray:none;stroke-dashoffset:0;stroke-opacity:1;color-rendering:auto;image-rendering:auto;shape-rendering:auto;text-rendering:auto;enable-background:accumulate" width="152" height="152" x="20" y="880.36218" rx="12" ry="12"/>
  </g>
</svg>
