<svg xmlns="http://www.w3.org/2000/svg" xmlns:xlink="http://www.w3.org/1999/xlink" viewBox="0 0 192 192" height="1em" width="1em">
  <defs>
    <radialGradient xlink:href="#a" id="c" cx="20" cy="880.362" fx="20" fy="880.362" r="76" gradientTransform="matrix(0 2 -2 0 1780.725 840.362)" gradientUnits="userSpaceOnUse"/>
    <linearGradient id="a">
      <stop style="stop-color:#fff;stop-opacity:1" offset="0"/>
      <stop style="stop-color:#fff;stop-opacity:0" offset="1"/>
    </linearGradient>
    <filter style="color-interpolation-filters:sRGB" id="b">
      <feFlood flood-opacity=".2" flood-color="#000" result="flood"/>
      <feComposite in="flood" in2="SourceGraphic" operator="in" result="composite1"/>
      <feGaussianBlur in="composite1" stdDeviation="2" result="blur"/>
      <feOffset dy="4" result="offset"/>
      <feComposite in="SourceGraphic" in2="offset" result="fbSourceGraphic"/>
      <feColorMatrix result="fbSourceGraphicAlpha" in="fbSourceGraphic" values="0 0 0 -1 0 0 0 0 -1 0 0 0 0 -1 0 0 0 0 1 0"/>
      <feFlood flood-opacity=".2" flood-color="#000" result="flood"/>
      <feComposite in2="fbSourceGraphic" in="flood" operator="in" result="composite1"/>
      <feGaussianBlur in="composite1" stdDeviation="2" result="blur"/>
      <feOffset result="offset"/>
      <feComposite in2="offset" in="fbSourceGraphic" result="composite2"/>
    </filter>
  </defs>
  <path style="fill:#212121;fill-opacity:1;fill-rule:evenodd;stroke:none;stroke-width:1px;stroke-linecap:butt;stroke-linejoin:miter;stroke-opacity:1;filter:url(#b)" d="M32 880.362h128c6 0 12 6 12 12v128c0 6-6 12-12 12H32c-6 0-12-6-12-12v-128c0-6 6-12 12-12z" transform="translate(0 -860.362)"/>
  <path style="display:inline;fill:#fff;fill-opacity:1;fill-rule:nonzero;stroke:none;stroke-opacity:1" d="M83.823 970.824h-1.48v-14.772H76.25v17.213c0 .697.33 1.282.993 1.74.666.472 1.333.704 2.035.704h7.612c.698 0 1.367-.232 2.034-.703.658-.459.993-1.044.993-1.741v-17.213h-6.094v14.772" transform="translate(5.71 -794.714) scale(.93203)"/>
  <path style="display:inline;fill:none;stroke:none;stroke-width:.15336122;stroke-linecap:butt;stroke-linejoin:miter;stroke-miterlimit:4;stroke-dasharray:none;stroke-opacity:1" d="M83.823 970.824h-1.48v-14.772H76.25v17.213c0 .697.33 1.282.993 1.74.666.472 1.333.704 2.035.704h7.612c.698 0 1.367-.232 2.034-.703.658-.459.993-1.044.993-1.741v-17.213h-6.094v14.772z" transform="translate(5.71 -794.714) scale(.93203)"/>
  <path style="display:inline;fill:#fff;fill-opacity:1;fill-rule:nonzero;stroke:none;stroke-opacity:1" d="M99.033 956.052h-6.095v1.241h-1.515v4.884h1.515v11.088c0 .697.372 1.282 1.072 1.785.626.427 1.257.66 1.955.66h7.613c.7 0 1.366-.233 2.033-.704.664-.459.997-1.044.997-1.741v-9.85h-6.055v7.409h-1.52v-8.647h7.575v-4.884h-7.575v-1.24" transform="translate(5.71 -794.714) scale(.93203)"/>
  <path style="display:inline;fill:none;stroke:none;stroke-width:.15336122;stroke-linecap:butt;stroke-linejoin:miter;stroke-miterlimit:4;stroke-dasharray:none;stroke-opacity:1" d="M99.033 956.052h-6.095v1.241h-1.515v4.884h1.515v11.088c0 .697.372 1.282 1.072 1.785.626.427 1.257.66 1.955.66h7.613c.7 0 1.366-.233 2.033-.704.664-.459.997-1.044.997-1.741v-9.85h-6.055v7.409h-1.52v-8.647h7.575v-4.884h-7.575v-1.24z" transform="translate(5.71 -794.714) scale(.93203)"/>
  <path style="display:inline;fill:#fff;fill-opacity:1;fill-rule:nonzero;stroke:none;stroke-opacity:1" d="M71.13 932.478h-6.094v1.237H63.52v4.888h1.516v11.088c0 .696.367 1.75 1.07 2.253.63.428 1.255.66 1.96.66h7.61c.701 0 1.367-.232 2.033-.697.663-.466.998-1.52.998-2.216v-9.847h-6.06v7.405H71.13v-8.646h7.577v-4.888H71.13v-1.237m30.916 4.922h1.476v2.444h-1.476V937.4zm-6.096-2.441v14.732c0 .696.335 1.75 1 2.216.662.465 1.329.697 2.03.697h7.612c.7 0 1.366-.232 2.031-.697.666-.466.997-1.52.997-2.216v-3.682h-6.098v1.24h-1.476v-2.481h7.574v-9.81c0-.697-.33-1.316-1.034-1.822a3.254 3.254 0 0 0-1.994-.658H98.98c-.701 0-1.368.194-1.994.658-.701.506-1.036 1.125-1.036 1.823m21.319 8.565h7.571v-4.921h-7.571V937.4h7.571v-4.923H114.2c-.701 0-1.368.194-1.993.658-.705.506-1.035 1.125-1.035 1.823v17.645h6.097v-9.08m23.788-4.92v-4.888h-7.567v-1.237h-6.102v1.237h-1.515v4.888h1.515v11.088c0 .696.372 1.75 1.072 2.253.63.428 1.256.66 1.96.66h7.608c.7 0 1.369-.232 2.031-.697.666-.466.998-1.047.998-1.746v-10.317h-6.059v7.405h-1.508v-8.646h7.567m-81.046-17.754H58.54v-9.845h1.472v9.845zm6.103 8.569v-23.341H55.469c-.699 0-1.366.196-1.995.661-.7.502-1.035 1.123-1.035 1.822v14.734c0 .698.334 1.279.998 1.744.666.463 1.333.7 2.032.7h4.542v1.24H52.44v4.884h10.643c.702 0 1.331-.235 1.958-.658.701-.506 1.074-1.088 1.074-1.786M89.92 918.37h1.48v2.479h-1.48v-2.48zm-5.096 6.668c.666.463 1.328.7 2.032.7h10.642V908.56c0-.698-.333-1.32-1.033-1.822a3.276 3.276 0 0 0-1.997-.661h-7.612c-.704 0-1.366.196-1.995.661-.7.502-1.033 1.123-1.033 1.822v3.644h6.093v-1.2h1.478v2.441h-4.543c-.704 0-1.331.232-1.958.7-.702.506-1.07 1.087-1.07 1.742v7.407c0 .698.333 1.279.996 1.744m20.794-14.034h1.48v14.733h6.088V908.56c0-.698-.33-1.32-1.032-1.822a3.244 3.244 0 0 0-1.993-.661c-2.036 0-3.547.429-4.543 1.243v-1.243H99.52v19.66h6.098v-14.733m15.688 0h1.482v9.845h-1.482v-9.845zm-5.097 14.034c.67.463 1.333.7 2.034.7h10.64v-24.585h-6.095v4.924h-4.545c-.7 0-1.365.196-1.996.661-.702.502-1.035 1.123-1.035 1.822v14.734c0 .698.333 1.279.997 1.744" transform="translate(5.71 -794.714) scale(.93203)"/>
  <path style="display:inline;fill:#fff;fill-opacity:1;fill-rule:nonzero;stroke:none;stroke-opacity:1" d="M75.707 913.445H74.23v-2.441h1.478v2.441zm17.658 19.69a3.226 3.226 0 0 0-1.995-.657h.68-5.224l-.015-5.5h-5.008v-9.85c0-.35-.148-.658-.48-.89a2.573 2.573 0 0 0-1.035-.351c.372 0 .701-.114 1.036-.35a.94.94 0 0 0 .48-.85v-6.127c0-.699-.334-1.32-1.035-1.822a3.246 3.246 0 0 0-1.995-.661h-10.64v19.66h6.095v-7.368h1.478v11.049c0 .698.372 1.28 1.069 1.786.63.423 1.296.658 1.998.658h1.958v20.742h6.094v-15.203h1.475v15.203h6.096v-17.645c0-.698-.33-1.317-1.032-1.823M68.13 970.824h-1.48v-2.483h1.48v2.483zm5.058-14.115a3.247 3.247 0 0 0-1.993-.657h-7.61c-.703 0-1.367.192-1.996.657-.702.507-1.033 1.127-1.033 1.822v3.646h6.095v-1.202h1.48v2.44h-4.546c-.703 0-1.333.237-1.957.699-.704.51-1.072 1.083-1.072 1.747v7.404c0 .697.331 1.282.998 1.74.664.472 1.328.704 2.031.704h10.64v-17.178c0-.695-.334-1.315-1.037-1.822m43.019 14.115h-1.477v-9.85h1.477v9.85zm5.059-14.115a3.242 3.242 0 0 0-1.992-.657h-7.613c-.703 0-1.366.192-1.995.657-.702.507-1.034 1.127-1.034 1.822v14.734c0 .697.332 1.282.999 1.74.664.472 1.327.704 2.03.704h7.613c.7 0 1.367-.232 2.032-.703.664-.459.993-1.044.993-1.741V958.53c0-.695-.33-1.315-1.033-1.822m-37.443 14.089h-1.48v-14.77H76.25v17.212c0 .696.33 1.278.993 1.744.666.467 1.333.7 2.035.7h7.612c.698 0 1.367-.233 2.034-.7.658-.466.993-1.048.993-1.744v-17.213h-6.094v14.77m15.21-14.77h-6.095v1.24h-1.515v4.886h1.515v11.087c0 .696.372 1.278 1.072 1.783.626.428 1.257.66 1.955.66h7.613c.7 0 1.366-.232 2.033-.699.664-.466.997-1.048.997-1.744v-9.849h-6.055v7.407h-1.52v-8.645h7.575v-4.887h-7.575v-1.239" transform="translate(5.71 -794.714) scale(.93203)"/>
  <path style="display:inline;fill:#fff;fill-opacity:1;fill-rule:evenodd;stroke:none;stroke-opacity:1" d="m124.163 986.22.929 1.065s1.898-1.507 2-1.562c.94 4.385-.176 9.135-.176 9.135l-1.443-1.848s-.997.946-1.298-.526c-.892-3.805-.012-6.263-.012-6.263zm26.973 15.406c-.456-.21-1.196-.601-1.196-.601l.92-1.49s.506.39.276 2.09zm-1.271-8.635s.43.475.866.564c-.08.1-.375.561-.64.948-.376.034-.226-1.512-.226-1.512zm-5.378-3.017.51-.24.03 6.528 1.966 2.419-1.11 1.71s-.69-.902-1.396-1.126c.03-.495 0-9.291 0-9.291zm-7.864-.18c-2.102 2.326-2.087 5.088-2.266 5.418-1.817 1.921-1.906.016-1.906.016l-.06-2.597 4.037-3.556s.164.63.194.72zm2.568 3.947c.03.042.616.702.616.702s-.076 2.246-.361 2.787c-.21-.083-.57-1.52-.255-3.49zm.411-5.08c.015.023.48.488.48.488s.008 1.209-.015 1.2c-.33-.067-.27-.817-.465-1.688zm-7.748-1.002.313.388-.318.255.007-.643zm-13.521-3.408.27-.119s.07-.01.09.11c.47 1.23-.17 8.392-.29 8.633.02.03-.15.01-.15.01l.08-8.634zm-5.581-.745.607.637s.008 5.898-.02 6.457c-.234-.057-.603-.283-.603-.283l.016-6.811zm-5.25-.152s.335-.033.42-.043c.031 1.127.01 5.727-.136 6.896.02.02-.084.989-.221.063-.106-.588-.063-6.915-.063-6.915zm-5.727.063.568-.621-.01 8.635s-.028.344-.244.327c-.113.033-.384.017-.325-.387l.011-7.954zm-6.19-1.802 1.137 1.352s.021 5.84-.021 7.24c-.252-.115-1.126-1-1.126-1l.01-7.592zm-8.977 7.113 3.04-.201s.03 1.955-.02 2.062c-.022.027-.06.759-1.17.496-.36-.053-1.572-.585-1.572-.585s-.6-.292-.92-.292c.008-.042.643-1.48.643-1.48zm3.163-6.7-.034 1.658-.874.09.908-1.748zm-5.61-1.149c.057.05.533.755 1.198.211-.48.93-.489.953-.953 1.794-.18-.55-.342-1.744-.244-2.005zm-4.794 2.358s.975 3.345 2.055 4.065c.03 0-1.095 1.652-2.1 4.159 0-.255.044-8.224.044-8.224zm-5.418 2.4.51-.54s.03 7.04.015 7.474c.022.29-.208 1.262-.39.106 0 .104-.15-2.327-.15-2.327l.015-4.713zm-5.867.88c0-.94.28-.999.28-.999s.32-.3.34.74c.006.256-.007 8.144-.02 8.28-.016.134-.361.6-.556.043-.03-.06-.045-6.981-.044-8.064zm-6.345 5.52s.255.149.707.445c-.043.865-.156 2.842-.156 2.842s-.093 1.025-.241.62c-.501-.808-.31-3.906-.31-3.906zm.123-5.065.621.14-.02 2.123s-.361.189-.4-.322c.07-1.07-.201-1.94-.201-1.94zm-19.332 16.696c-.68.08-.652-.696-.652-.696s.012-.59.376-.796c.476-.27 1.56.825 1.56.825-.303.486-1.284.667-1.284.667zm6.147-6.038c.885.449.09 1.245.09 1.245l-1.245-.721s.18-.915 1.155-.524zm-.19-13.569-1.962-1.22s-.38.98-.1 1.54c.66.94 1.642.82 1.642.82l.42-1.14zm-3.282-10.658 6.344 4.56.44-.767 2.962 1.922s-2.432 6.366-2.641 6.963c4.232 1.399 5.435 4.546 5.435 4.546s3.188-2.403-1.073-5.102l.66-3.061s2.11.49 2.908-2.063c.1-.26.218-.42.274-.639.11 0 .933.528 1.96 1.064 1.369.714 3.062 1.49 4.003-.946.207.154 1 .655 1.985 1.186.639-.08 1.57-1.463 1.783-2.13 1.89.347 2.74 1.624 2.74 1.624l2.477-2.524 2.041 1.246.901-.9.96.54s1.018-11.027 11.05-8.633c.76.168 1.498.556 2.368.88.452-.214 1.783-1.438 2.155-1.704.187-.108.4-.16.639-.266 1.017.379 1.466.984 1.49 1.516.038.885-1.011 1.676-1.011 1.676l-.401 1.276-.02 6.095s1.777-.451 2.66-3.002c2.018.128 3.057 1.645 3.057 1.645l2.607-2.51 1.8 1.399 1.003-.92s1.844 2.118 1.981 2.261c-.659 1.065-.776 1.434-.579 1.558.096.063.253.131.477-.059.506-.451 1.039-.944 1.039-.944l-1.925-2.669-.083-6.661.205-.033 8.829 8.894.75-.52 1.651 1.771 2.121-1.61 1.835 1.905 2.557-1.645 2.521 3.632 4.353-2.733 3.122 4.548s.485-.662 2.48-.53c.479-.052 1.73-.371 2.322-1.045.233.22 3.062 3.208 3.062 3.208s3.05-1.47 2.581 2.044c.39-.215 3.723-1.86 3.723-1.86l2.547 2.949s.56.477.427.01c.107-.461-.905-4.24 2.633-3.308 4.125 3.405-1.186 10.278-1.186 10.278s2.81.472 1.462 11.262c-3.256.011-4.563 2.041-4.563 2.041s-1.94-2.88-2.816-3.572c-.427-.426-.692.373-1.172.453-1.17.424-3.756-1.987-3.756-1.987s-.62.572-.6.48c-2.055-.861-2.582-2.82-2.582-2.82s-2.149 1.99-2.462 2.16c-2.36-.814-3.12-4.743-3.12-4.743l-3.062 2.826-5.857-5.108-3.25 2.285s-3.983-3.439-4.32-3.761c-1.935.368-4.986 2.84-5.124 2.922-3.144-3.43-5.283-4.007-5.283-4.007s-2.332 2.147-2.762 2.566c-1.964-.314-2.64-2.522-2.64-2.522l-3.103 2.527s-2.716-2.393-2.82-2.406c-3.405 4.297-5.524.4-5.524.4s-1.979 1.9-2.52 2.441c-3.397-2.882-4.426-2.668-4.483-2.641-.074.812-.194 1.183-.434 1.553-1.932 2.95-3.889.168-3.889.168s-1.428 1.383-1.921 1.879c-2.17.15-2.92-1.879-2.92-1.879l-2.923 2.8-2.481-1.56s-2.848 3.695-3.043 3.88c-1.206.022-2.432-1.284-2.432-1.284l-2.81 2.828s-2.563-.51-3.482-3.302c-2.274 5.426-7.323 9.364-7.323 9.364l-3.723-2.881s-8.238 6.155-9.599-2.63c-.28-2.62.065-5.186 3.718-6.894-3.573-2.283-2.934-7.285-2.934-7.285s.373-4.15 2.262-5.223c-.613-6.219 5.293-10.742 5.293-10.742" transform="translate(5.71 -794.714) scale(.93203)"/>
  <path style="display:inline;fill:none;stroke:none;stroke-width:1.22684753;stroke-linecap:butt;stroke-linejoin:miter;stroke-miterlimit:4;stroke-dasharray:none;stroke-opacity:1" d="m124.163 986.22.929 1.065s1.898-1.507 2-1.562c.94 4.385-.176 9.135-.176 9.135l-1.443-1.848s-.997.946-1.298-.526c-.892-3.805-.012-6.263-.012-6.263zm26.973 15.406c-.456-.21-1.196-.601-1.196-.601l.92-1.49s.506.39.276 2.09zm-1.271-8.635s.43.475.866.564c-.08.1-.375.561-.64.948-.376.034-.226-1.512-.226-1.512zm-5.378-3.017.51-.24.03 6.528 1.966 2.419-1.11 1.71s-.69-.902-1.396-1.126c.03-.495 0-9.291 0-9.291zm-7.864-.18c-2.102 2.326-2.087 5.088-2.266 5.418-1.817 1.921-1.906.016-1.906.016l-.06-2.597 4.037-3.556s.164.63.194.72zm2.568 3.947c.03.042.616.702.616.702s-.076 2.246-.361 2.787c-.21-.083-.57-1.52-.255-3.49zm.411-5.08c.015.023.48.488.48.488s.008 1.209-.015 1.2c-.33-.067-.27-.817-.465-1.688zm-7.748-1.002.313.388-.318.255.007-.643zm-13.521-3.408.27-.119s.07-.01.09.11c.47 1.23-.17 8.392-.29 8.633.02.03-.15.01-.15.01l.08-8.634zm-5.581-.745.607.637s.008 5.898-.02 6.457c-.234-.057-.603-.283-.603-.283l.016-6.811zm-5.25-.152s.335-.033.42-.043c.031 1.127.01 5.727-.136 6.896.02.02-.084.989-.221.063-.106-.588-.063-6.915-.063-6.915zm-5.727.063.568-.621-.01 8.635s-.028.344-.244.327c-.113.033-.384.017-.325-.387l.011-7.954zm-6.19-1.802 1.137 1.352s.021 5.84-.021 7.24c-.252-.115-1.126-1-1.126-1l.01-7.592zm-8.977 7.113 3.04-.201s.03 1.955-.02 2.062c-.022.027-.06.759-1.17.496-.36-.053-1.572-.585-1.572-.585s-.6-.292-.92-.292c.008-.042.643-1.48.643-1.48zm3.163-6.7-.034 1.658-.874.09.908-1.748zm-5.61-1.149c.057.05.533.755 1.198.211-.48.93-.489.953-.953 1.794-.18-.55-.342-1.744-.244-2.005zm-4.794 2.358s.975 3.345 2.055 4.065c.03 0-1.095 1.652-2.1 4.159 0-.255.044-8.224.044-8.224zm-5.418 2.4.51-.54s.03 7.04.015 7.474c.022.29-.208 1.262-.39.106 0 .104-.15-2.327-.15-2.327l.015-4.713zm-5.867.88c0-.94.28-.999.28-.999s.32-.3.34.74c.006.256-.007 8.144-.02 8.28-.016.134-.361.6-.556.043-.03-.06-.045-6.981-.044-8.064zm-6.345 5.52s.255.149.707.445c-.043.865-.156 2.842-.156 2.842s-.093 1.025-.241.62c-.501-.808-.31-3.906-.31-3.906zm.123-5.065.621.14-.02 2.123s-.361.189-.4-.322c.07-1.07-.201-1.94-.201-1.94zm-19.332 16.696c-.68.08-.652-.696-.652-.696s.012-.59.376-.796c.476-.27 1.56.825 1.56.825-.303.486-1.284.667-1.284.667zm6.147-6.038c.885.449.09 1.245.09 1.245l-1.245-.721s.18-.915 1.155-.524zm-.19-13.569-1.962-1.22s-.38.98-.1 1.54c.66.94 1.642.82 1.642.82l.42-1.14zm-3.282-10.658 6.344 4.56.44-.767 2.962 1.922s-2.432 6.366-2.641 6.963c4.232 1.399 5.435 4.546 5.435 4.546s3.188-2.403-1.073-5.102l.66-3.061s2.11.49 2.908-2.063c.1-.26.218-.42.274-.639.11 0 .933.528 1.96 1.064 1.369.714 3.062 1.49 4.003-.946.207.154 1 .655 1.985 1.186.639-.08 1.57-1.463 1.783-2.13 1.89.347 2.74 1.624 2.74 1.624l2.477-2.524 2.041 1.246.901-.9.96.54s1.018-11.027 11.05-8.633c.76.168 1.498.556 2.368.88.452-.214 1.783-1.438 2.155-1.704.187-.108.4-.16.639-.266 1.017.379 1.466.984 1.49 1.516.038.885-1.011 1.676-1.011 1.676l-.401 1.276-.02 6.095s1.777-.451 2.66-3.002c2.018.128 3.057 1.645 3.057 1.645l2.607-2.51 1.8 1.399 1.003-.92s1.844 2.118 1.981 2.261c-.659 1.065-.776 1.434-.579 1.558.096.063.253.131.477-.059.506-.451 1.039-.944 1.039-.944l-1.925-2.669-.083-6.661.205-.033 8.829 8.894.75-.52 1.651 1.771 2.121-1.61 1.835 1.905 2.557-1.645 2.521 3.632 4.353-2.733 3.122 4.548s.485-.662 2.48-.53c.479-.052 1.73-.371 2.322-1.045.233.22 3.062 3.208 3.062 3.208s3.05-1.47 2.581 2.044c.39-.215 3.723-1.86 3.723-1.86l2.547 2.949s.56.477.427.01c.107-.461-.905-4.24 2.633-3.308 4.125 3.405-1.186 10.278-1.186 10.278s2.81.472 1.462 11.262c-3.256.011-4.563 2.041-4.563 2.041s-1.94-2.88-2.816-3.572c-.427-.426-.692.373-1.172.453-1.17.424-3.756-1.987-3.756-1.987s-.62.572-.6.48c-2.055-.861-2.582-2.82-2.582-2.82s-2.149 1.99-2.462 2.16c-2.36-.814-3.12-4.743-3.12-4.743l-3.062 2.826-5.857-5.108-3.25 2.285s-3.983-3.439-4.32-3.761c-1.935.368-4.986 2.84-5.124 2.922-3.144-3.43-5.283-4.007-5.283-4.007s-2.332 2.147-2.762 2.566c-1.964-.314-2.64-2.522-2.64-2.522l-3.103 2.527s-2.716-2.393-2.82-2.406c-3.405 4.297-5.524.4-5.524.4s-1.979 1.9-2.52 2.441c-3.397-2.882-4.426-2.668-4.483-2.641-.074.812-.194 1.183-.434 1.553-1.932 2.95-3.889.168-3.889.168s-1.428 1.383-1.921 1.879c-2.17.15-2.92-1.879-2.92-1.879l-2.923 2.8-2.481-1.56s-2.848 3.695-3.043 3.88c-1.206.022-2.432-1.284-2.432-1.284l-2.81 2.828s-2.563-.51-3.482-3.302c-2.274 5.426-7.323 9.364-7.323 9.364l-3.723-2.881s-8.238 6.155-9.599-2.63c-.28-2.62.065-5.186 3.718-6.894-3.573-2.283-2.934-7.285-2.934-7.285s.373-4.15 2.262-5.223c-.613-6.219 5.293-10.742 5.293-10.742z" transform="translate(5.71 -794.714) scale(.93203)"/>
  <path style="display:inline;fill:#fff;fill-opacity:1;fill-rule:evenodd;stroke:none;stroke-opacity:1" d="m124.163 986.22.929 1.065s1.898-1.507 2-1.562c.94 4.385-.176 9.135-.176 9.135l-1.443-1.848s-.997.946-1.298-.526c-.892-3.805-.012-6.263-.012-6.263zm26.973 15.406c-.456-.21-1.196-.601-1.196-.601l.92-1.49s.506.39.276 2.09zm-1.271-8.635s.43.475.866.564c-.08.1-.375.561-.64.948-.376.034-.226-1.512-.226-1.512zm-5.378-3.017.51-.24.03 6.528 1.966 2.419-1.11 1.71s-.69-.902-1.396-1.126c.03-.495 0-9.291 0-9.291zm-7.864-.18c-2.102 2.326-2.087 5.088-2.266 5.418-1.817 1.921-1.906.016-1.906.016l-.06-2.597 4.037-3.556s.164.63.194.72zm2.568 3.947c.03.042.616.702.616.702s-.076 2.246-.361 2.787c-.21-.083-.57-1.52-.255-3.49zm.411-5.08c.015.023.48.488.48.488s.008 1.209-.015 1.2c-.33-.067-.27-.817-.465-1.688zm-7.748-1.002.313.388-.318.255.007-.643zm-13.521-3.408.27-.119s.07-.01.09.11c.47 1.23-.17 8.392-.29 8.633.02.03-.15.01-.15.01l.08-8.634zm-5.581-.745.607.637s.008 5.898-.02 6.457c-.234-.057-.603-.283-.603-.283l.016-6.811zm-5.25-.152s.335-.033.42-.043c.031 1.127.01 5.727-.136 6.896.02.02-.084.989-.221.063-.106-.588-.063-6.915-.063-6.915zm-5.727.063.568-.621-.01 8.635s-.028.344-.244.327c-.113.033-.384.017-.325-.387l.011-7.954zm-6.19-1.802 1.137 1.352s.021 5.84-.021 7.24c-.252-.115-1.126-1-1.126-1l.01-7.592zm-8.977 7.113 3.04-.201s.03 1.955-.02 2.062c-.022.027-.06.759-1.17.496-.36-.053-1.572-.585-1.572-.585s-.6-.292-.92-.292c.008-.042.643-1.48.643-1.48zm3.163-6.7-.034 1.658-.874.09.908-1.748zm-5.61-1.149c.057.05.533.755 1.198.211-.48.93-.489.953-.953 1.794-.18-.55-.342-1.744-.244-2.005zm-4.794 2.358s.975 3.345 2.055 4.065c.03 0-1.095 1.652-2.1 4.159 0-.255.044-8.224.044-8.224zm-5.418 2.4.51-.54s.03 7.04.015 7.474c.022.29-.208 1.262-.39.106 0 .104-.15-2.327-.15-2.327l.015-4.713zm-5.867.88c0-.94.28-.999.28-.999s.32-.3.34.74c.006.256-.007 8.144-.02 8.28-.016.134-.361.6-.556.043-.03-.06-.045-6.981-.044-8.064zm-6.345 5.52s.255.149.707.445c-.043.865-.156 2.842-.156 2.842s-.093 1.025-.241.62c-.501-.808-.31-3.906-.31-3.906zm.123-5.065.621.14-.02 2.123s-.361.189-.4-.322c.07-1.07-.201-1.94-.201-1.94zm-19.332 16.696c-.68.08-.652-.696-.652-.696s.012-.59.376-.796c.476-.27 1.56.825 1.56.825-.303.486-1.284.667-1.284.667zm6.147-6.038c.885.449.09 1.245.09 1.245l-1.245-.721s.18-.915 1.155-.524zm-.19-13.569-1.962-1.22s-.38.98-.1 1.54c.66.94 1.642.82 1.642.82l.42-1.14zm-3.282-10.658 6.344 4.56.44-.767 2.962 1.922s-2.432 6.366-2.641 6.963c4.232 1.399 5.435 4.546 5.435 4.546s3.188-2.403-1.073-5.102l.66-3.061s2.11.49 2.908-2.063c.1-.26.218-.42.274-.639.11 0 .933.528 1.96 1.064 1.369.714 3.062 1.49 4.003-.946.207.154 1 .655 1.985 1.186.639-.08 1.57-1.463 1.783-2.13 1.89.347 2.74 1.624 2.74 1.624l2.477-2.524 2.041 1.246.901-.9.96.54s1.018-11.027 11.05-8.633c.76.168 1.498.556 2.368.88.452-.214 1.783-1.438 2.155-1.704.187-.108.4-.16.639-.266 1.017.379 1.466.984 1.49 1.516.038.885-1.011 1.676-1.011 1.676l-.401 1.276-.02 6.095s1.777-.451 2.66-3.002c2.018.128 3.057 1.645 3.057 1.645l2.607-2.51 1.8 1.399 1.003-.92s1.844 2.118 1.981 2.261c-.659 1.065-.776 1.434-.579 1.558.096.063.253.131.477-.059.506-.451 1.039-.944 1.039-.944l-1.925-2.669-.083-6.661.205-.033 8.829 8.894.75-.52 1.651 1.771 2.121-1.61 1.835 1.905 2.557-1.645 2.521 3.632 4.353-2.733 3.122 4.548s.485-.662 2.48-.53c.479-.052 1.73-.371 2.322-1.045.233.22 3.062 3.208 3.062 3.208s3.05-1.47 2.581 2.044c.39-.215 3.723-1.86 3.723-1.86l2.547 2.949s.56.477.427.01c.107-.461-.905-4.24 2.633-3.308 4.125 3.405-1.186 10.278-1.186 10.278s2.81.472 1.462 11.262c-3.256.011-4.563 2.041-4.563 2.041s-1.94-2.88-2.816-3.572c-.427-.426-.692.373-1.172.453-1.17.424-3.756-1.987-3.756-1.987s-.62.572-.6.48c-2.055-.861-2.582-2.82-2.582-2.82s-2.149 1.99-2.462 2.16c-2.36-.814-3.12-4.743-3.12-4.743l-3.062 2.826-5.857-5.108-3.25 2.285s-3.983-3.439-4.32-3.761c-1.935.368-4.986 2.84-5.124 2.922-3.144-3.43-5.283-4.007-5.283-4.007s-2.332 2.147-2.762 2.566c-1.964-.314-2.64-2.522-2.64-2.522l-3.103 2.527s-2.716-2.393-2.82-2.406c-3.405 4.297-5.524.4-5.524.4s-1.979 1.9-2.52 2.441c-3.397-2.882-4.426-2.668-4.483-2.641-.074.812-.194 1.183-.434 1.553-1.932 2.95-3.889.168-3.889.168s-1.428 1.383-1.921 1.879c-2.17.15-2.92-1.879-2.92-1.879l-2.923 2.8-2.481-1.56s-2.848 3.695-3.043 3.88c-1.206.022-2.432-1.284-2.432-1.284s-2.854 2.858-2.81 2.828c.044-.03-2.563-.51-3.482-3.302-2.274 5.426-7.323 9.364-7.323 9.364l-3.723-2.881s-8.238 6.155-9.599-2.63c-.28-2.62.065-5.186 3.718-6.894-3.573-2.283-2.934-7.285-2.934-7.285s.373-4.15 2.262-5.223c-.613-6.219 5.293-10.742 5.293-10.742" transform="translate(5.71 -794.714) scale(.93203)"/>
  <path style="display:inline;fill:#212121;fill-opacity:1;fill-rule:nonzero;stroke:none;stroke-opacity:1" d="M107.071 991.76c-.396.229-.69.38-.79.016-.061-.697 0-8.325 0-11.365-.05-.483.77-1.58 1-1.999-.13-.125-.243-.26-.525-.566-.392.408-.716.687-.985.918a32.003 32.003 0 0 0-1.617-1.416c-.883.953-1.833 1.686-3.373 3.317-.142-1.092-.64-2.314-1.762-2.348-.23.819-1.763 2.041-2.538 2.464.137.29.25.35.374.574.16-.081 1.2-.742 1.175-.276.047 1.375.146 11.641-.398 12.318.104.225 1.357 1.324 1.71 1.632.374-.248 1.57-1.307 1.895-1.698-.64-1.052-.379-9.399-.361-10.953.54-.585 1.313-1.28 1.716-1.674.46-.35.997.294.979 1.043l.04 9.73c.015.633-.11 2.852 1.109 3.625.22-.19 2.352-2.277 2.801-2.724-.098-.161-.36-.498-.45-.618" transform="translate(5.71 -794.714) scale(.93203)"/>
  <path style="display:inline;fill:#212121;fill-opacity:1;fill-rule:evenodd;stroke:none;stroke-opacity:1" d="M63.39 991.707c-.078 2.014.27 5.197-1.278 6.047-.147-.01-2.054-.25-1.292-7.092.865.346 1.706.699 2.57 1.045zm-2.262-2.037c0-.48.353-2.333-1.021-4.157 1.262.24 3.275.664 3.294.684 0 1.441-.013 2.85-.013 4.29-.564-.11-1.825-.629-2.26-.817zm-2.532-5.75c2.381-.327 2.514-1.958 2.672-2.138 1.039.618 2.98 1.607 4.222 1.2.64-.21 1.092-.727 1.409-1.266.038 0 .72.33.573.706.041.052-.608.907-.715 1.275 0 .894.006 1.553 0 2.837 0 2.209-.007 4.396-.007 6.604 0 1.09 0 2.162.01 3.212.05.291.186.233.35.24.29-.086.431-.2.67-.39.132.16.3.41.44.58-.651.79-1.63 2.21-2.36 2.97-.96-.145-2.132-1.739-2.132-1.72-.316.38-.568.612-.81.932-.71.71-1.395 1.443-2.106 2.152-.14-.071-.795-.292-1.493-1.162-1.493-2.154-1.59-5.306-.714-7.685.216-.573.525-1.2.865-1.68.234-.337.447-.49.677-.771.08-.44.068-1.518.02-1.8-.18-1.062-.33-1.452-.8-2.142-.247-.361-.53-.59-.96-.911.089-.32.17-.73.189-1.043m62.596-3.86c.148.146 1.233 1.311 1.811 1.946.019-.02 1.473-1.014 2.272-1.599 0 .021 2.005 3.26 2.058 3.384-.337.285-1.774 1.49-2.106 1.745-.22-.283-1.2-1.532-1.431-1.858-.58.528-.712 1.07-.929 1.717-.69 2.05-.597 6.759.41 8.313.229.354.31.507.785.666.326.089.78-.268.877-.343.175.232.443.618.589.83-.436.487-2.612 2.03-3.048 2.32-.42-.321-2.633-2.28-3.143-2.873.368-.697.378-1.56.553-2.332.28-2.05.4-4.408.4-6.718 0-.936-.016-3.022-.493-3.164-.257.013-.516.16-.657.189-.115-.153-.27-.384-.385-.538a85.5 85.5 0 0 0 2.437-1.686m-6.905 2.904c0 3.495-.01 6.88-.01 10.375-.33-.28-.46-.405-.748-.616-.6-.442-1.255-.892-1.964-1.215 0-3.11.007-9.273.007-9.273s.617-.923.865-1.268a42.767 42.767 0 0 1 1.853 1.997zm-5.59-10.825c.596.559 7.02 7.532 7.32 7.863.192.229.235.07.319.11.472-.158.66-.534.893-.668.16.238.29.357.43.538-.29.36-.517.675-.63 1.133v12.909c-.8.348-2.492 1.135-3.813 2.186-.82-.97-2.551-2.781-4.563-3.192.43-.52.491-2.39.491-3.391-.038-2.689-.072-5.376-.11-8.064.91-.731 1.74-1.391 2.632-2.101-.02-.02-2.541-3.052-2.988-3.466 0-1.267.019-2.59.019-3.857m24.606 16.242c-.347.3-2.184 1.712-2.222 1.712.019-1.672.031-3.281.05-4.952.355.419 2.151 3.222 2.172 3.24zm-1.197-7.058c.295.377 3.371 5.612 3.663 6.363-1.141 1.41-4.462 3.905-4.513 4.003 0 1.324.01 2.596.01 3.923.03.36.09 1.69.663 1.955.879.164 1.79-.826 2.439-1.227 0 .02.31.37.411.582-.766.727-2.722 2.57-3.272 2.982-.24-.252-3.203-2.803-3.703-3.223 1.071-1.485 1.055-5.613 1.013-6.377 0-.65-.192-5.032-.288-6.568.756-.521 3.072-2.055 3.577-2.413m8.625 12.516c.04 1.652-.07 3.062-.72 4.343-.201.395-.4.579-.711.68-.51-.38-.746-.78-.96-1.51-.54-1.843-.16-4.304.353-5.486.728.523 1.488 1.433 2.038 1.973zm.09-5.19c0 1.268-.02 2.421-.02 3.669-.63-.538-1.111-1.21-1.701-1.8-.07-1.522-.51-3.403-.72-3.903.88.5 1.78 1.442 2.442 2.034zm-.53-4.515c.71.71 2.616 2.667 2.846 2.907.365-.171.896-.454 1.316-.674a.78.78 0 0 1 .207.67c-.087.47-1.252 1.039-1.252 1.79 0 3.937-.01 7.51-.01 11.449.016.337.237.255.387.205.127-.06.195-.106.34-.184.09.148.404.502.384.523-.664.645-1.362 1.327-2.022 1.965-.961-.625-1.107-.988-1.384-1.737-.132-.352-.22-1.424-.23-1.673-.3.3-2.752 2.318-3.173 2.768-2.223-2.142-2.34-7.34-1.223-9.92.23-.53.69-1.18 1.143-1.506.11-.08.379-.27.519-.358 0-.214-.03-.33-.03-.542.02-.74-.655-2.83-.88-3.222-.35-.83-.42-.8-.62-1.19-.021-.06 0-.093-.018-.154.488-.687 2.899-.037 3.7-1.117m11.637 19.859c-.262-.219-1.521-2.16-3.665-2.215.594-.926 2.293-3.536 2.494-3.936 1.99.429 1.43 4.323 1.17 6.151zm.349-11.105c-.423.759-2.195 3.578-2.195 3.598a33.307 33.307 0 0 1-1.306-1.647v-4.023c.9 1.102 2.3 2.142 3.5 2.072zm2.155 12.737c-1.383-.037-2.504.33-3.165 1.091-.02 0-1.261-2.26-2.491-2.862-1.02-.495-1.876.105-2.356.706-.021-.02-.66-.54-1.067-.886.3-.45 2.918-4.467 3.333-5.148-.466-.584-2.134-2.683-2.372-3.047 0-2.092-.01-4.13-.01-6.223 1.091-.64 2.111-1.16 3.162-1.78.08.104 1.76 2.443 2.662 2.89.59.351 1.231.362 1.741-.19.65-.808-.64-3.236.342-3.617.117-.077.673-.16 1.038.289.494.682.506 2.199.231 3.169-.401 1.695-1.646 3.948-2.016 4.381-.245.361-.71 1.111-1.039 1.554.647.183 1.013.718 1.333 1.238 1.246 2.327.88 5.613.675 8.435m-109.943-3.441c.309.214.52.455.85.725-.3.316-.573.63-.894.863-.827.604-2.899 1.757-3.659.413-.393-.696-.368-2.066.02-2.721.9-1.538 2.77.088 3.682.72zm9.424-7.985c.149.359.15.588.25 1.02.114.491-.018 1.104-.05 1.272-.075.397-.226.99-.36 1.391-.35 1.034-.769 1.807-1.324 2.686-.23.363-.517.773-.81 1.215a4.783 4.783 0 0 1-.848-.6c.375-.54.713-1.023.99-1.462 1.056-1.676 2.066-4.356.041-5.783-.183-.126-.8-.52-1.371-.689a10.77 10.77 0 0 0-2.342-.38c.25-.64.411-.97.612-1.572 2.505.17 4.425 1.008 5.212 2.902zm-3.812 3.281c.235.597.116 1.212-.365 1.955-.143.22-.383.562-.503.706-.69-.369-2.116-1.216-3.062-1.674.341-.787.52-1.199.816-1.917 1.681-.068 2.55.145 3.114.93zm-3.446-4.7c-2.327-.101-3.567-1.296-4.265-2.997-.263-.905-.363-2.828-.343-2.828.924 2.289 1.977 4.285 5.222 4.263-.2.62-.403 1.026-.614 1.562zm3.474-9.174c-.37 1.098-.742 2.033-1.13 3.038-2.765.01-4.703-1.3-3.982-4.242.156-.64.474-1.3.74-1.862.56.362 3.962 2.802 4.372 3.066zm-4.745-8.071c.45.404 3.508 2.637 4.715 3.485.24.168 1.412 1.068 1.46 1.023.158-.292.343-.68.473-.952.1.038.858.55 1.186.75-.646 1.696-1.291 3.378-1.946 5.159-.137.32-.546 1.4-.65 1.759.344.137.497.2.764.314.533.231 1.162.498 1.671.808 1.432.873 2.94 2.03 3.631 3.63.747 1.493.768 3.752.23 5.419-.696 2.157-1.698 4.02-2.881 5.705-.393.558-.85 1.138-1.294 1.649-.47.541-1.932 2.192-2.542 2.672-.39-.3-1.852-1.53-2.273-1.9-.397-.298-.779-.642-1.21-.98-.02.018-.628.578-.909.79-.95.712-1.783 1.453-3.092 1.75-3.457.78-4.796-2.996-3.952-5.767.51-1.677 1.654-3.01 3.257-3.387.93-.22 2.134.543 2.716.195.465-.391.65-.814.77-1.361-.25 0-1.408-.083-1.73-.173-.658-.184-1.36-.414-1.901-.75-2.02-1.25-3.23-4.525-2.19-7.722.178-.553.393-1.249.691-1.729.31-.5.533-.74.837-.947.007-.24.024-.446.028-.84l.23-1.556c.24-.877.46-1.74.808-2.536.518-1.187 1.28-2.29 2.016-3.284.304-.41.672-.786 1.087-1.224" transform="translate(5.71 -794.714) scale(.93203)"/>
  <path style="display:inline;fill:#212121;fill-opacity:1;fill-rule:nonzero;stroke:none;stroke-opacity:1" d="M79.16 993.58c-.396.23-.894.766-.97.266-.06-.697.04-8.377.04-11.419-.049-.482.778-1.848 1.007-2.267-.13-.124-.314-.235-.645-.462a18.3 18.3 0 0 0-.912 1.117c-.424-.335-1.122-.796-1.734-1.294-.925.919-1.692 1.7-3.232 3.331-.142-1.092-.92-2.17-1.8-2.302-.313.799-1.712 2.094-2.488 2.515.137.29.16.318.284.54.16-.078 1.311-.713 1.287-.248.044 1.376.29 11.542-.254 12.22.103.225 1.544 1.254 1.896 1.564.375-.25 1.52-1.233 1.844-1.624-.858-1.189-.658-9.366-.639-10.918a54.183 54.183 0 0 1 1.713-1.753c.46-.348.996.296.978 1.045l-.008 9.781c.015.631.147 2.556 1.607 3.067.22-.19 2.014-2.165 2.464-2.61-.097-.164-.347-.427-.437-.548" transform="translate(5.71 -794.714) scale(.93203)"/>
  <path style="display:inline;fill:#212121;fill-opacity:1;fill-rule:evenodd;stroke:none;stroke-opacity:1" d="M90.784 991.29c-.525.706-1.486 1.502-2.536 1.172-.903-.284-1.71-.84-2.54-1.205-.433-.19-1.458-.567-1.498-.567.48-.96 1.022-2.025 1.441-2.881 1.729-.134 3.458-.336 5.186-.47.008.48-.053 3.395-.053 3.952zm-3.222-5.987c-.039 0-.862.08-.9.08.4-.72.883-1.63 1.22-2.181.661-1.13 3.003-5.654 3.022-5.654 0 2.514-.039 5.02-.035 7.454-.985.052-2.696.252-3.306.3zm2.01-9.927c-.21.384-.424.727-.636 1.112-.491-.09-.923-.253-1.626-.173-1.199.254-1.737.912-2.133 1.844-.417 1.002-.336 1.977-.336 2.112.33-.47.854-1.538 2.211-1.531.28.03.652.18.69.18-.29.54-.471.906-.72 1.315-.615 1.01-1.132 2.033-1.751 3.039-.354.574-.7 1.218-1.15 1.94-.52-.662-.828-1.884-1.018-2.617-.534-2.727.367-5.627 1.767-6.824.317-.27.736-.585 1.15-.71.216-.065 1.564-.598 3.552.313zm5.853-4.94c.058 0 .354.183.392.43-.366.43-1.38 1.545-1.465 1.98 0 1.498-.006 14.002-.006 18.843.008.612.466.172.466.172s.634-.72.953-.571c.23.06.52.29.4.632-.437 1.152-1.117 2.163-1.715 2.595-1.788 1.295-2.936-.796-3.501-2.021l-2.782 2.832c-.288-.265-2.276-1.916-4.117-2.366-1.851-.54-1.503 1.453-1.466 1.63.27 2.309-1.785 1.65-2.116.992-.522-.777-.327-2.166-.046-3.027.408-1.25.587-2.032 2.71-5.303.04-.03-.88-1.074-1.038-1.324-1.04-1.739-1.192-4.073-1.21-4.438-.176-5.705 2.496-8.977 5.013-9.912 2.76-1.185 5.572.44 6.84 1.156.426-.371 2.108-1.798 2.687-2.3" transform="translate(5.71 -794.714) scale(.93203)"/>
  <path style="opacity:.1;fill:#fff;fill-opacity:1;fill-rule:evenodd;stroke:none;stroke-width:1px;stroke-linecap:butt;stroke-linejoin:miter;stroke-opacity:1" d="M32 20c-6 0-12 6-12 12v1c0-6 6-12 12-12h128c6 0 12 6 12 12v-1c0-6-6-12-12-12H32Z"/>
  <path style="opacity:.2;fill:#030303;fill-opacity:1;fill-rule:evenodd;stroke:none;stroke-width:1px;stroke-linecap:butt;stroke-linejoin:miter;stroke-opacity:1" d="M20 159v1c0 6 6 12 12 12h128c6 0 12-6 12-12v-1c0 6-6 12-12 12H32c-6 0-12-6-12-12z"/>
  <path transform="translate(0 -860.362)" d="M32 880.362h128c6 0 12 6 12 12v128c0 6-6 12-12 12H32c-6 0-12-6-12-12v-128c0-6 6-12 12-12z" style="opacity:.1;fill:url(#c);fill-opacity:1;fill-rule:evenodd;stroke:none;stroke-width:.1;stroke-linecap:butt;stroke-linejoin:miter;stroke-miterlimit:4;stroke-dasharray:none;stroke-opacity:1"/>
</svg>
