<svg xmlns="http://www.w3.org/2000/svg" xmlns:xlink="http://www.w3.org/1999/xlink" viewBox="0 0 48 48" height="1em" width="1em">
  <defs>
    <linearGradient id="b">
      <stop style="stop-color:#000;stop-opacity:1" offset="0"/>
      <stop style="stop-color:#000;stop-opacity:0" offset="1"/>
    </linearGradient>
    <linearGradient gradientTransform="matrix(1 0 0 -1 0 47)" xlink:href="#a" id="c" x1="25" y1="22" x2="25" y2="3" gradientUnits="userSpaceOnUse"/>
    <linearGradient id="a">
      <stop style="stop-color:#fff;stop-opacity:1" offset="0"/>
      <stop style="stop-color:#fff;stop-opacity:0" offset="1"/>
    </linearGradient>
    <linearGradient gradientTransform="matrix(1 0 0 -1 0 52)" xlink:href="#b" id="d" x1="24" y1="22" x2="24" y2="41" gradientUnits="userSpaceOnUse"/>
  </defs>
  <path style="display:inline;fill:#000;fill-opacity:1;stroke:none;opacity:.04" d="M44.975 36.506C44.709 41.792 40.352 46 35 46a9.965 9.965 0 0 1-7.135-3H8c-1.108 0-2-.892-2-2v1c0 1.108.892 2 2 2h19.865A9.965 9.965 0 0 0 35 47c5.523 0 10-4.477 10-10 0-.167-.017-.33-.025-.494z"/>
  <path style="display:inline;fill:#000;fill-opacity:1;stroke:none;opacity:.16" d="M44.988 35.254C44.852 40.658 40.438 45 35 45a9.965 9.965 0 0 1-7.135-3H8c-1.108 0-2-.892-2-2v.5c0 1.108.892 2 2 2h19.865a9.965 9.965 0 0 0 7.135 3c5.523 0 10-4.477 10-10 0-.083-.01-.164-.012-.246z"/>
  <path d="M44.988 35.754C44.852 41.158 40.438 45.5 35 45.5a9.965 9.965 0 0 1-7.135-3H8c-1.108 0-2-.892-2-2v.5c0 1.108.892 2 2 2h19.865A9.965 9.965 0 0 0 35 46c5.523 0 10-4.477 10-10 0-.083-.01-.164-.012-.246z" style="display:inline;fill:#000;fill-opacity:1;stroke:none;opacity:.08"/>
  <g transform="translate(0 -1004.362)">
    <rect style="opacity:1;fill:#eceff1;fill-opacity:1;stroke:none;stroke-width:.5;stroke-miterlimit:4;stroke-dasharray:none;stroke-opacity:1" width="36" height="34" x="6" y="1012.362" rx="2" ry="2"/>
    <path d="m29.17 1028.507-1.386.8c2.339 3.944 3.53 7.068 4.107 9.2.569 2.124.545 3.2.545 3.2h1.577s-.025-1.326-.643-3.6c-.613-2.276-1.794-5.538-4.205-9.6m.006 0" style="fill:#45a345;fill-opacity:1;fill-rule:nonzero;stroke:none"/>
    <path style="fill:#2196f3;fill-opacity:1;fill-rule:nonzero;stroke:none" d="M8 1012.362c-1.108 0-2 .892-2 2v15c2.022 1.469 2.84 2.201 5.566 2.201 5.474 0 9.113-3.506 10.59-8.338 1.324 1.013 8.975 1.668 10.797 1.668 3.42 0 5.298-2.15 6.337-5.11.408.087.852.105 1.29.105.558 0 .9-.388 1.42-.526v-5c0-1.108-.892-2-2-2H13z"/>
    <path d="M22.507 1042.362s0-4.243 2.102-6.368c2.103-2.13 6.308-2.13 6.308-2.13s0 4.249-2.102 6.373c-2.11 2.125-6.308 2.125-6.308 2.125m0 0" style="fill:#4caf50;fill-opacity:1;fill-rule:nonzero;stroke:none"/>
    <path d="M31.61 1034.681s.978-3.675 3.278-5.019c2.307-1.344 5.938-.363 5.938-.363s-.977 3.675-3.278 5.019c-2.306 1.344-5.937.363-5.937.363m0 0" style="fill:#45a345;fill-opacity:1;fill-rule:nonzero;stroke:none"/>
    <path d="M27.02 1019.435c-2.178 0-3.934 1.788-3.934 3.994v.125c-.036-.013-.049-.032-.1-.032-2.108-.568-4.292.7-4.85 2.831-.568 2.131.688 4.338 2.797 4.906.036.01.055-.01.087 0-.019.032-.032.043-.032.088-1.094 1.912-.414 4.387 1.48 5.494 1.891 1.105 4.304.413 5.392-1.5.013-.038.025-.057.036-.083.032.026.05.043.088.082a3.883 3.883 0 0 0 5.56 0c1.54-1.568 1.54-4.105 0-5.656-.031-.026-.055-.056-.087-.082.032-.037.087-.032.124-.043 1.885-1.105 2.53-3.537 1.44-5.449-.885-1.537-2.609-2.225-4.25-1.869-.506-1.6-1.985-2.787-3.74-2.787m-1.107 7.813a3.982 3.982 0 0 0 1.93.081c.08.243.191.506.327.744.198.35.433.656.705.912a3.73 3.73 0 0 0-.902.662c-.292.295-.526.62-.705.963-.26-.281-.52-.55-.866-.75a3.737 3.737 0 0 0-1.107-.413c.198-.325.39-.656.5-1.037.105-.393.13-.774.124-1.163m-.006 0" style="fill:#ffeb3b;fill-opacity:1;fill-rule:nonzero;stroke:none"/>
    <path d="M28.083 1025.951c1.603.434 2.552 2.098 2.123 3.711-.429 1.614-2.075 2.574-3.672 2.14-1.603-.428-2.548-2.091-2.123-3.711.429-1.614 2.075-2.574 3.672-2.14m0 0" style="fill:#8d6e63;fill-opacity:1;fill-rule:nonzero;stroke:none"/>
  </g>
  <g style="display:inline;opacity:.1">
    <path style="display:inline;opacity:1;fill:url(#c);fill-opacity:1;stroke:none" d="M8 42h32c1.108 0 2-.892 2-2V25H6v15c0 1.108.892 2 2 2z"/>
    <path d="M42 8v17H6V8Z" style="display:inline;opacity:1;fill:url(#d);fill-opacity:1;stroke:none"/>
  </g>
  <g style="display:inline">
    <path style="display:inline;fill:#e91e63;fill-opacity:1;stroke:none" d="M35 25c-5.523 0-10 4.477-10 10s4.477 10 10 10 10-4.477 10-10-4.477-10-10-10z"/>
    <circle r="2" cy="36" cx="35" style="fill:#fff;fill-opacity:1;stroke:none"/>
    <path d="M32 32c-1.108 0-2 .892-2 2v4c0 1.108.892 2 2 2h6c1.108 0 2-.892 2-2v-4c0-1.108-.892-2-2-2zm3 1a3 3 0 1 1 0 6 3 3 0 0 1 0-6z" style="fill:#fff;fill-opacity:1;stroke:none"/>
    <path d="M34 31c-1 0-1.667 1.333-2 2h6c-.333-.667-1-2-2-2z" style="fill:#fff;fill-opacity:1;stroke:none"/>
  </g>
</svg>
