<svg xmlns="http://www.w3.org/2000/svg" xmlns:xlink="http://www.w3.org/1999/xlink" viewBox="0 0 192 192" height="1em" width="1em">
  <defs>
    <linearGradient id="a">
      <stop style="stop-color:#3e2723;stop-opacity:1" offset="0"/>
      <stop style="stop-color:#3e2723;stop-opacity:0" offset="1"/>
    </linearGradient>
    <linearGradient id="b">
      <stop offset="0" style="stop-color:#fff;stop-opacity:1"/>
      <stop offset="1" style="stop-color:#fff;stop-opacity:0"/>
    </linearGradient>
    <linearGradient xlink:href="#a" id="d" x1="56.676" y1="56.676" x2="172" y2="172" gradientUnits="userSpaceOnUse"/>
    <filter id="c" style="color-interpolation-filters:sRGB">
      <feFlood result="flood" flood-color="#000" flood-opacity=".2"/>
      <feComposite result="composite1" operator="in" in2="SourceGraphic" in="flood"/>
      <feGaussianBlur result="blur" stdDeviation="2" in="composite1"/>
      <feOffset result="offset" dy="4"/>
      <feComposite result="fbSourceGraphic" in2="offset" in="SourceGraphic"/>
      <feColorMatrix result="fbSourceGraphicAlpha" in="fbSourceGraphic" values="0 0 0 -1 0 0 0 0 -1 0 0 0 0 -1 0 0 0 0 1 0"/>
      <feFlood flood-opacity=".2" flood-color="#000" result="flood"/>
      <feComposite in2="fbSourceGraphic" in="flood" operator="in" result="composite1"/>
      <feGaussianBlur in="composite1" stdDeviation="2" result="blur"/>
      <feOffset result="offset"/>
      <feComposite in2="offset" in="fbSourceGraphic" result="composite2"/>
    </filter>
    <filter style="color-interpolation-filters:sRGB" id="e" height="1.3">
      <feFlood flood-opacity=".2" flood-color="#3E2723" result="flood"/>
      <feComposite in="flood" in2="SourceGraphic" operator="in" result="composite1"/>
      <feGaussianBlur in="composite1" stdDeviation="4" result="blur"/>
      <feOffset dy="4" result="offset"/>
      <feComposite in="SourceGraphic" in2="offset" result="composite2"/>
    </filter>
    <radialGradient gradientUnits="userSpaceOnUse" gradientTransform="matrix(0 2 -2 0 1780.725 840.362)" r="76" fy="880.362" fx="20" cy="880.362" cx="20" id="f" xlink:href="#b"/>
  </defs>
  <path transform="translate(0 -860.362)" d="M32 880.362h128c6 0 12 6 12 12v128c0 6-6 12-12 12H32c-6 0-12-6-12-12v-128c0-6 6-12 12-12z" style="fill:#d7ccc8;fill-opacity:1;fill-rule:evenodd;stroke:none;stroke-width:1px;stroke-linecap:butt;stroke-linejoin:miter;stroke-opacity:1;filter:url(#c)"/>
  <path d="M32 20c-6 0-12 6-12 12v36h152V32c0-6-6-12-12-12H32z" style="fill:#795548;fill-rule:evenodd;stroke:none;stroke-width:1px;stroke-linecap:butt;stroke-linejoin:miter;stroke-opacity:1;fill-opacity:1"/>
  <path d="M32 20v36h9V20z" style="fill:#ef5350;fill-opacity:1;fill-rule:evenodd;stroke:none;stroke-width:1px;stroke-linecap:butt;stroke-linejoin:miter;stroke-opacity:1"/>
  <path style="fill:#ffee58;fill-opacity:1;fill-rule:evenodd;stroke:none;stroke-width:1px;stroke-linecap:butt;stroke-linejoin:miter;stroke-opacity:1" d="M41 20v36h9V20z"/>
  <path d="M50 20v36h9V20z" style="fill:#66bb6a;fill-opacity:1;fill-rule:evenodd;stroke:none;stroke-width:1px;stroke-linecap:butt;stroke-linejoin:miter;stroke-opacity:1"/>
  <path style="fill:#42a5f5;fill-opacity:1;fill-rule:evenodd;stroke:none;stroke-width:1px;stroke-linecap:butt;stroke-linejoin:miter;stroke-opacity:1" d="M59 20v36h9V20z"/>
  <circle r="10" cy="46" cx="146" style="opacity:.2;fill:#000;fill-opacity:1;fill-rule:nonzero;stroke:none;stroke-width:2.94899988;stroke-linecap:butt;stroke-linejoin:miter;stroke-miterlimit:4;stroke-dasharray:none;stroke-dashoffset:0;stroke-opacity:1"/>
  <path style="opacity:.2;fill:url(#d);fill-opacity:1;fill-rule:nonzero;stroke:none;stroke-width:2.94899988;stroke-linecap:butt;stroke-linejoin:miter;stroke-miterlimit:4;stroke-dasharray:none;stroke-dashoffset:0;stroke-opacity:1" d="M96.568 56.568a39.999 39.999 0 0 0-28.283 11.717 39.999 39.999 0 0 0 0 56.569c.095.094.196.181.291.275.094.095.18.196.276.29.096.097.197.187.294.282.093.094.179.192.272.285.093.093.191.18.285.272.095.096.184.197.28.293.092.092.19.178.283.27.094.096.183.197.279.292.094.094.192.181.287.274.093.094.18.193.273.287.094.093.193.179.288.271.092.095.178.194.271.287.093.094.191.182.285.274.093.094.18.192.274.285.086.087.178.166.265.252.098.1.19.205.29.305.099.099.204.19.304.289.085.086.164.178.25.263.094.094.193.181.287.274.09.092.175.188.266.28.087.086.178.167.265.253.097.099.188.201.286.299.098.098.203.19.302.287.085.086.163.176.248.262.09.09.186.174.278.263.091.094.177.191.27.284.092.092.189.18.282.271.09.09.174.185.264.275.091.092.188.176.28.266.09.092.174.188.265.28.09.09.186.175.277.265.09.092.175.187.266.277.09.09.186.175.277.264.09.091.174.187.264.277.084.084.172.162.256.244.096.098.186.2.283.297.096.097.198.186.295.282.083.084.16.172.244.255.089.089.182.17.272.258.09.092.174.189.265.28.088.088.18.17.27.257.09.092.175.187.265.278.09.089.184.171.274.26.088.09.17.184.26.273.088.089.181.172.271.26.088.09.171.182.26.271.088.089.182.17.271.258.088.09.17.183.258.271.089.089.182.17.272.258.087.09.169.183.257.272.082.081.168.157.25.238.094.095.181.195.276.29.094.093.194.181.289.275.08.081.155.167.236.248.088.087.18.169.268.255.086.089.168.18.256.268.087.087.18.17.267.256.087.088.169.18.256.267.088.089.18.171.27.258.084.086.164.176.25.262.085.085.175.165.261.25.088.089.17.181.258.27.088.087.18.169.268.255.084.086.163.175.248.26.087.088.18.17.267.256.084.086.164.175.248.26.088.087.18.167.268.254.084.085.161.175.246.26.08.08.165.154.246.234.09.092.175.188.266.28.092.09.188.176.281.267.078.08.151.163.23.242.084.083.172.161.256.244.086.087.166.177.252.264.086.086.177.166.264.252.083.084.16.172.244.255.086.086.177.166.264.25.082.084.159.173.242.256.084.085.173.163.258.246.083.085.162.174.246.258.084.084.173.161.258.244.083.085.16.174.244.258.084.084.173.161.258.244.083.085.16.174.244.258.082.082.169.159.252.24.083.085.162.174.246.258.084.084.173.163.258.246.081.083.158.17.24.252.084.084.173.163.258.246.08.083.156.169.238.25.083.083.17.159.254.24.082.084.158.172.24.254.082.083.17.16.252.24.082.084.158.17.24.253.083.082.17.158.252.24.082.083.158.17.24.252.08.08.166.155.247.234.082.084.159.171.242.254.083.083.17.16.254.242.08.081.154.166.234.246.082.083.17.16.252.24.08.082.154.166.234.247.081.08.167.156.248.236.08.082.156.167.237.248.075.075.154.146.23.22.086.088.166.178.252.264.087.088.18.168.268.254.073.075.14.153.215.227.079.079.162.152.242.23.08.083.157.169.238.25.081.081.166.157.248.237.078.079.15.162.229.24.08.08.166.156.248.236.077.08.15.162.228.24.08.08.164.154.244.233.079.08.152.163.23.242.08.08.163.154.243.233.079.08.153.163.232.242.08.078.163.15.243.228.078.08.15.164.228.242.078.078.16.15.238.227.08.08.153.165.233.244.072.072.148.138.22.21.084.084.162.174.247.259.078.078.16.151.238.228.077.079.15.16.228.239.084.083.172.16.256.242.072.073.139.15.211.223.079.078.161.15.24.228.076.077.147.158.223.234.076.076.156.146.233.221.077.08.15.162.228.24.078.079.161.151.24.229.075.076.145.157.221.232.076.076.156.146.232.221.077.078.15.16.227.238.075.075.155.145.23.22.077.077.15.16.227.237.076.076.156.148.232.223.076.077.147.156.223.232.076.076.156.146.233.221.075.076.144.157.22.233.076.075.156.145.233.22.075.077.145.157.22.233.074.074.152.143.227.216.075.077.146.157.223.233.076.076.157.147.234.223.073.074.141.152.215.226.075.076.156.146.232.22.073.075.141.154.215.227.075.076.155.146.23.221.073.074.142.151.215.225.075.074.154.143.229.216.074.075.142.155.217.229.073.074.152.142.226.215.073.074.141.153.215.226.073.073.15.141.223.213.074.076.144.154.218.229.073.072.15.139.223.21.074.076.143.155.217.23.073.072.15.14.225.212.072.074.14.152.212.225.073.073.15.14.223.213.072.073.14.15.213.222.072.073.15.14.223.211.072.073.138.15.21.223.072.071.147.138.22.209.072.074.14.151.214.225.073.072.15.14.223.212.07.072.136.146.207.217.073.073.15.141.222.213.07.071.137.146.208.217.072.072.15.139.222.21.07.072.135.147.205.218.071.07.147.136.219.207.07.071.136.147.207.218.071.072.147.137.219.207.07.072.136.148.207.22.07.07.146.134.217.204.07.071.134.147.205.217.071.072.147.138.218.21.07.069.134.142.204.212.069.07.143.132.212.201.071.072.136.148.207.219.07.069.142.133.211.201.07.071.137.146.207.217.07.07.143.134.213.203.07.07.134.143.203.213.07.07.144.132.213.201.069.07.132.144.202.213.07.07.144.135.214.205.068.069.131.14.2.209.028.028.056.055.086.082H160c6 0 12-6 12-12v-44.564a2.99 2.99 0 0 0-.082-.086c-.068-.069-.14-.132-.209-.2-.07-.07-.135-.144-.205-.214-.07-.07-.143-.133-.213-.202-.069-.07-.132-.143-.201-.213-.07-.07-.143-.134-.213-.203-.069-.07-.134-.143-.203-.213-.071-.07-.146-.136-.217-.207-.068-.069-.132-.142-.201-.21-.071-.072-.147-.137-.219-.208-.069-.07-.132-.143-.201-.212-.07-.07-.143-.135-.213-.204-.07-.071-.137-.147-.209-.218-.07-.07-.146-.135-.217-.205-.07-.071-.134-.147-.205-.217-.07-.071-.147-.137-.219-.207-.07-.072-.135-.148-.207-.219-.07-.071-.147-.136-.218-.207-.07-.072-.136-.148-.207-.219-.07-.07-.146-.135-.217-.205-.072-.073-.139-.15-.211-.222-.07-.071-.146-.137-.217-.207-.072-.074-.14-.15-.213-.223-.07-.071-.145-.137-.217-.207-.072-.074-.14-.15-.212-.223-.074-.073-.151-.142-.225-.215-.071-.072-.138-.147-.21-.218-.072-.073-.149-.14-.222-.211-.072-.073-.138-.15-.21-.223-.073-.073-.15-.14-.223-.213-.073-.073-.14-.15-.213-.223-.073-.073-.151-.14-.225-.212-.072-.074-.14-.152-.213-.225-.074-.074-.153-.143-.228-.217-.072-.073-.139-.15-.211-.223-.075-.074-.153-.144-.229-.218-.072-.074-.14-.15-.213-.223-.073-.074-.152-.142-.226-.215-.073-.074-.141-.153-.215-.226-.074-.075-.154-.143-.228-.217-.074-.075-.143-.154-.217-.229-.074-.073-.15-.142-.225-.215-.075-.075-.145-.155-.22-.23-.074-.074-.153-.142-.227-.215-.075-.076-.145-.157-.22-.232-.075-.074-.153-.142-.227-.215-.076-.077-.147-.158-.223-.234-.076-.077-.156-.148-.233-.223-.073-.075-.142-.153-.216-.227-.076-.075-.156-.145-.233-.22-.075-.077-.145-.157-.22-.233-.076-.076-.157-.145-.233-.22-.075-.077-.145-.157-.22-.233-.077-.076-.156-.147-.233-.223-.075-.076-.147-.156-.223-.232-.077-.078-.16-.15-.238-.227-.074-.075-.144-.155-.219-.23-.077-.078-.16-.15-.238-.227-.075-.076-.145-.156-.22-.232-.076-.076-.157-.146-.233-.22-.078-.08-.15-.163-.229-.24-.078-.08-.16-.152-.24-.23-.075-.076-.145-.156-.22-.232-.077-.076-.158-.147-.235-.223-.078-.079-.15-.161-.228-.24-.073-.072-.15-.139-.223-.21-.083-.085-.159-.173-.242-.257-.078-.078-.16-.15-.239-.228-.077-.079-.15-.16-.228-.238-.085-.085-.175-.163-.26-.246-.071-.073-.137-.15-.209-.221-.08-.08-.164-.154-.244-.233-.077-.078-.149-.16-.227-.238-.078-.079-.162-.15-.242-.228-.078-.08-.15-.164-.228-.243-.08-.079-.163-.153-.242-.232-.079-.08-.154-.163-.233-.242-.079-.08-.162-.152-.242-.23-.079-.08-.153-.165-.232-.245-.079-.078-.162-.15-.24-.228-.08-.082-.156-.167-.237-.248-.078-.079-.161-.151-.24-.229-.08-.082-.156-.167-.237-.248-.081-.081-.167-.157-.25-.238-.078-.08-.151-.163-.23-.242-.074-.074-.152-.142-.227-.215-.086-.088-.166-.18-.254-.268-.086-.086-.176-.166-.263-.252-.075-.076-.146-.155-.22-.23-.082-.081-.167-.156-.249-.237-.08-.081-.155-.167-.236-.248-.08-.08-.165-.154-.246-.234-.082-.083-.158-.17-.24-.252-.08-.08-.166-.155-.247-.234-.082-.084-.159-.171-.242-.254-.083-.083-.17-.16-.254-.242-.08-.081-.154-.166-.234-.246-.082-.083-.17-.16-.252-.24-.082-.084-.158-.17-.24-.253-.083-.082-.17-.158-.252-.24-.082-.083-.158-.17-.24-.252-.083-.082-.171-.158-.254-.24-.082-.083-.158-.171-.24-.254-.082-.082-.168-.157-.25-.238-.084-.085-.163-.174-.247-.258-.082-.082-.169-.159-.252-.24-.083-.085-.162-.174-.246-.258-.084-.084-.173-.163-.258-.246-.081-.083-.158-.17-.24-.252-.084-.084-.173-.161-.258-.244-.083-.085-.16-.174-.244-.258-.084-.084-.173-.161-.258-.244-.083-.085-.16-.174-.244-.258-.084-.084-.173-.163-.258-.246-.083-.085-.161-.174-.246-.258-.083-.083-.172-.16-.256-.242-.084-.087-.164-.178-.25-.264-.083-.083-.171-.161-.255-.244-.086-.087-.166-.178-.252-.264-.087-.086-.177-.166-.264-.252-.083-.084-.16-.172-.244-.255-.08-.08-.163-.153-.242-.231-.091-.093-.176-.19-.268-.281-.091-.091-.187-.176-.28-.266-.079-.08-.153-.166-.234-.246-.084-.085-.174-.162-.26-.246-.086-.088-.166-.18-.253-.268-.085-.084-.174-.164-.26-.248-.087-.088-.168-.18-.256-.267-.085-.085-.174-.164-.26-.248-.086-.089-.168-.18-.256-.268-.088-.088-.18-.17-.269-.258-.085-.086-.165-.176-.25-.261-.086-.086-.176-.166-.262-.25-.087-.09-.17-.182-.258-.27-.087-.087-.179-.17-.267-.256-.087-.088-.169-.18-.256-.267-.088-.088-.18-.17-.268-.256-.086-.088-.168-.18-.255-.268-.081-.08-.167-.156-.248-.236-.094-.095-.182-.195-.276-.29-.094-.094-.194-.181-.289-.275-.08-.082-.157-.168-.238-.25-.089-.088-.183-.17-.272-.257-.087-.09-.17-.183-.258-.272-.088-.088-.182-.17-.271-.258-.088-.089-.17-.183-.258-.271-.089-.089-.182-.172-.271-.26-.088-.09-.171-.183-.26-.271-.09-.09-.184-.172-.274-.26-.088-.09-.17-.184-.26-.274-.09-.09-.185-.176-.277-.265-.087-.09-.17-.182-.257-.27-.091-.09-.188-.175-.28-.265-.087-.09-.169-.183-.258-.272-.083-.083-.171-.161-.255-.244-.096-.097-.185-.199-.282-.295-.097-.097-.199-.187-.297-.283-.082-.084-.16-.172-.244-.256-.09-.09-.186-.174-.277-.264-.09-.09-.173-.187-.264-.277-.09-.09-.185-.176-.277-.266-.09-.091-.175-.186-.266-.277-.09-.091-.187-.176-.279-.266-.09-.091-.174-.188-.266-.279-.09-.09-.184-.174-.275-.264-.092-.093-.179-.19-.271-.283-.093-.092-.19-.178-.284-.27-.09-.09-.173-.186-.263-.277-.086-.085-.176-.163-.262-.248-.097-.1-.189-.204-.287-.302-.098-.098-.2-.19-.299-.286-.086-.087-.167-.178-.254-.265-.091-.091-.187-.176-.28-.266-.092-.094-.179-.193-.273-.287-.085-.086-.177-.165-.263-.25-.098-.1-.19-.205-.29-.305-.099-.099-.204-.19-.304-.289-.086-.087-.165-.179-.252-.265-.093-.094-.191-.181-.285-.274-.092-.094-.18-.192-.274-.285-.093-.093-.192-.18-.287-.271-.092-.095-.178-.194-.271-.288-.094-.093-.193-.18-.287-.273-.093-.094-.18-.193-.274-.287-.095-.096-.196-.185-.293-.28-.091-.093-.177-.19-.27-.283-.095-.095-.196-.184-.292-.279-.092-.094-.179-.192-.272-.285-.093-.093-.191-.18-.285-.272-.095-.097-.185-.198-.281-.294-.095-.095-.196-.182-.291-.276-.094-.095-.18-.196-.275-.29a40.003 40.003 0 0 0-28.286-11.718z"/>
  <circle r="32" cy="96" cx="96" style="opacity:1;fill:#37474f;fill-opacity:1;fill-rule:nonzero;stroke:none;stroke-width:2.94899988;stroke-linecap:butt;stroke-linejoin:miter;stroke-miterlimit:4;stroke-dasharray:none;stroke-dashoffset:0;stroke-opacity:1"/>
  <circle style="opacity:1;fill:#607d8b;fill-opacity:1;fill-rule:nonzero;stroke:none;stroke-width:2.94899988;stroke-linecap:butt;stroke-linejoin:miter;stroke-miterlimit:4;stroke-dasharray:none;stroke-dashoffset:0;stroke-opacity:1" cx="96" cy="96" r="10"/>
  <path d="M96 56a40 40 0 0 0-40 40 40 40 0 0 0 40 40 40 40 0 0 0 40-40 40 40 0 0 0-40-40zm0 8a32 32 0 0 1 32 32 32 32 0 0 1-32 32 32 32 0 0 1-32-32 32 32 0 0 1 32-32z" style="opacity:1;fill:#efebe9;fill-opacity:1;fill-rule:nonzero;stroke:none;stroke-width:2.94899988;stroke-linecap:butt;stroke-linejoin:miter;stroke-miterlimit:4;stroke-dasharray:none;stroke-dashoffset:0;stroke-opacity:1;filter:url(#e)"/>
  <path style="opacity:.2;fill:#3e2723;fill-opacity:1;fill-rule:nonzero;stroke:none;stroke-width:2.94899988;stroke-linecap:butt;stroke-linejoin:miter;stroke-miterlimit:4;stroke-dasharray:none;stroke-dashoffset:0;stroke-opacity:1" d="M96 64a32 32 0 0 0-32 32 32 32 0 0 0 .021.586A32 32 0 0 1 96 65a32 32 0 0 1 31.979 31.414A32 32 0 0 0 128 96a32 32 0 0 0-32-32zM56.021 96.414A40 40 0 0 0 56 97a40 40 0 0 0 40 40 40 40 0 0 0 40-40 40 40 0 0 0-.021-.414A40 40 0 0 1 96 136a40 40 0 0 1-39.979-39.586z"/>
  <path style="opacity:.2;fill:#fff;fill-opacity:1;fill-rule:nonzero;stroke:none;stroke-width:2.94899988;stroke-linecap:butt;stroke-linejoin:miter;stroke-miterlimit:4;stroke-dasharray:none;stroke-dashoffset:0;stroke-opacity:1" d="M96 56a40 40 0 0 0-40 40 40 40 0 0 0 .021.414A40 40 0 0 1 96 57a40 40 0 0 1 39.979 39.586A40 40 0 0 0 136 96a40 40 0 0 0-40-40zm31.979 40.414A32 32 0 0 1 96 128a32 32 0 0 1-31.979-31.414A32 32 0 0 0 64 97a32 32 0 0 0 32 32 32 32 0 0 0 32-32 32 32 0 0 0-.021-.586z"/>
  <path d="M32 20c-6 0-12 6-12 12v1c0-6 6-12 12-12h128c6 0 12 6 12 12v-1c0-6-6-12-12-12H32Z" style="opacity:.1;fill:#fff;fill-opacity:1;fill-rule:evenodd;stroke:none;stroke-width:1px;stroke-linecap:butt;stroke-linejoin:miter;stroke-opacity:1"/>
  <path d="M20 159v1c0 6 6 12 12 12h128c6 0 12-6 12-12v-1c0 6-6 12-12 12H32c-6 0-12-6-12-12z" style="opacity:.2;fill:#030303;fill-opacity:1;fill-rule:evenodd;stroke:none;stroke-width:1px;stroke-linecap:butt;stroke-linejoin:miter;stroke-opacity:1"/>
  <path style="opacity:.1;fill:url(#f);fill-opacity:1;fill-rule:evenodd;stroke:none;stroke-width:.1;stroke-linecap:butt;stroke-linejoin:miter;stroke-miterlimit:4;stroke-dasharray:none;stroke-opacity:1" d="M32 880.362h128c6 0 12 6 12 12v128c0 6-6 12-12 12H32c-6 0-12-6-12-12v-128c0-6 6-12 12-12z" transform="translate(0 -860.362)"/>
</svg>
