<svg xmlns="http://www.w3.org/2000/svg" xmlns:xlink="http://www.w3.org/1999/xlink" viewBox="0 0 192 192" height="1em" width="1em">
  <defs>
    <linearGradient id="a">
      <stop style="stop-color:#1a237e;stop-opacity:.2" offset="0"/>
      <stop style="stop-color:#1a237e;stop-opacity:0" offset="1"/>
    </linearGradient>
    <linearGradient id="b">
      <stop style="stop-color:#fff;stop-opacity:.1" offset="0"/>
      <stop style="stop-color:#fff;stop-opacity:0" offset="1"/>
    </linearGradient>
    <linearGradient xlink:href="#a" id="d" x1="44" y1="44" x2="172" y2="172" gradientUnits="userSpaceOnUse"/>
    <filter style="color-interpolation-filters:sRGB" id="e">
      <feFlood flood-opacity=".2" flood-color="#1A237E" result="flood"/>
      <feComposite in="flood" in2="SourceGraphic" operator="in" result="composite1"/>
      <feGaussianBlur in="composite1" stdDeviation="4" result="blur"/>
      <feOffset dx="4" dy="4" result="offset"/>
      <feComposite in="SourceGraphic" in2="offset" result="composite2"/>
    </filter>
    <filter style="color-interpolation-filters:sRGB" id="c">
      <feFlood flood-opacity=".12" flood-color="#000" result="flood"/>
      <feComposite in="flood" in2="SourceGraphic" operator="in" result="composite1"/>
      <feGaussianBlur in="composite1" stdDeviation="2" result="blur"/>
      <feOffset result="offset"/>
      <feComposite in="SourceGraphic" in2="offset" result="fbSourceGraphic"/>
      <feColorMatrix result="fbSourceGraphicAlpha" in="fbSourceGraphic" values="0 0 0 -1 0 0 0 0 -1 0 0 0 0 -1 0 0 0 0 1 0"/>
      <feFlood flood-opacity=".24" flood-color="#000" result="flood"/>
      <feComposite in2="fbSourceGraphic" in="flood" operator="in" result="composite1"/>
      <feGaussianBlur in="composite1" stdDeviation="2" result="blur"/>
      <feOffset dy="4" result="offset"/>
      <feComposite in2="offset" in="fbSourceGraphic" result="composite2"/>
    </filter>
    <radialGradient xlink:href="#b" id="f" cx="20" cy="880.362" fx="20" fy="880.362" r="76" gradientUnits="userSpaceOnUse" gradientTransform="matrix(2 2 -2 2 1740.725 -920.362)"/>
  </defs>
  <g transform="translate(0 -860.362)">
    <rect ry="12" rx="12" y="880.362" x="20" height="152" width="152" style="color:#000;clip-rule:nonzero;display:inline;overflow:visible;visibility:visible;opacity:1;isolation:auto;mix-blend-mode:normal;color-interpolation:sRGB;color-interpolation-filters:linearRGB;solid-color:#000;solid-opacity:1;fill:#2196f3;fill-opacity:1;fill-rule:evenodd;stroke:none;stroke-width:1;stroke-linecap:butt;stroke-linejoin:round;stroke-miterlimit:4;stroke-dasharray:none;stroke-dashoffset:0;stroke-opacity:1;color-rendering:auto;image-rendering:auto;shape-rendering:auto;text-rendering:auto;enable-background:accumulate;filter:url(#c)"/>
    <path style="opacity:1;fill:url(#d);fill-opacity:1" d="M95.947 44C67.243 44 44 67.296 44 96c0 14.661 6.074 27.902 15.832 37.357L98.475 172H160c6.648 0 12-5.352 12-12V98.506l-38.662-38.662C123.877 50.08 110.628 44 95.948 44z" transform="translate(0 860.362)"/>
    <path d="M32 880.362c-6.648 0-12 5.352-12 12v1c0-6.648 5.352-12 12-12h128c6.648 0 12 5.352 12 12v-1c0-6.648-5.352-12-12-12H32z" style="color:#000;clip-rule:nonzero;display:inline;overflow:visible;visibility:visible;opacity:.2;isolation:auto;mix-blend-mode:normal;color-interpolation:sRGB;color-interpolation-filters:linearRGB;solid-color:#000;solid-opacity:1;fill:#fff;fill-opacity:1;fill-rule:evenodd;stroke:none;stroke-width:1;stroke-linecap:butt;stroke-linejoin:round;stroke-miterlimit:4;stroke-dasharray:none;stroke-dashoffset:0;stroke-opacity:1;color-rendering:auto;image-rendering:auto;shape-rendering:auto;text-rendering:auto;enable-background:accumulate"/>
    <path d="M20 1019.362v1c0 6.648 5.352 12 12 12h128c6.648 0 12-5.352 12-12v-1c0 6.648-5.352 12-12 12H32c-6.648 0-12-5.352-12-12z" style="color:#000;clip-rule:nonzero;display:inline;overflow:visible;visibility:visible;opacity:.2;isolation:auto;mix-blend-mode:normal;color-interpolation:sRGB;color-interpolation-filters:linearRGB;solid-color:#000;solid-opacity:1;fill:#1a237e;fill-opacity:1;fill-rule:evenodd;stroke:none;stroke-width:1;stroke-linecap:butt;stroke-linejoin:round;stroke-miterlimit:4;stroke-dasharray:none;stroke-dashoffset:0;stroke-opacity:1;color-rendering:auto;image-rendering:auto;shape-rendering:auto;text-rendering:auto;enable-background:accumulate"/>
    <path d="M95.948 904.362c-28.704 0-51.948 23.296-51.948 52s23.244 52 51.948 52c28.756 0 52.052-23.296 52.052-52s-23.296-52-52.052-52zm36.036 31.2h-15.34c-1.664-6.5-4.056-12.74-7.176-18.512 9.568 3.276 17.524 9.932 22.516 18.512zM96 914.97a73.251 73.251 0 0 1 9.932 20.592H86.068A73.251 73.251 0 0 1 96 914.97zm-40.248 51.792c-.832-3.328-1.352-6.812-1.352-10.4s.52-7.072 1.352-10.4h17.576c-.416 3.432-.728 6.864-.728 10.4 0 3.536.312 6.968.728 10.4H55.752zm4.264 10.4h15.34c1.664 6.5 4.056 12.74 7.176 18.512a41.531 41.531 0 0 1-22.516-18.512zm15.34-41.6h-15.34a41.531 41.531 0 0 1 22.516-18.512c-3.12 5.772-5.512 12.012-7.176 18.512zM96 997.754a73.251 73.251 0 0 1-9.932-20.592h19.864A73.251 73.251 0 0 1 96 997.754zm12.168-30.992H83.832c-.468-3.432-.832-6.864-.832-10.4 0-3.536.364-7.02.832-10.4h24.336c.468 3.38.832 6.864.832 10.4 0 3.536-.364 6.968-.832 10.4zm1.3 28.912c3.12-5.772 5.512-12.012 7.176-18.512h15.34c-4.992 8.58-12.948 15.236-22.516 18.512zm9.204-28.912c.416-3.432.728-6.864.728-10.4 0-3.536-.312-6.968-.728-10.4h17.576c.832 3.328 1.352 6.812 1.352 10.4s-.52 7.072-1.352 10.4h-17.576z" style="fill:#fafafa;filter:url(#e)"/>
    <path d="M95.947 904.363c-28.704 0-51.947 23.296-51.947 52 0 .167.012.332.014.5.27-28.473 23.397-51.5 51.933-51.5 28.588 0 51.77 23.027 52.04 51.5.001-.168.013-.333.013-.5 0-28.704-23.297-52-52.053-52zM82.531 918.05c-.216.074-.427.159-.642.236-2.804 5.425-4.987 11.236-6.534 17.276h-14.73c-.205.332-.414.661-.61 1h15.34c1.664-6.5 4.056-12.74 7.176-18.512zm26.938 0c3.12 5.772 5.512 12.012 7.176 18.512h15.34c-.197-.338-.406-.668-.612-1h-14.728c-1.547-6.04-3.73-11.851-6.534-17.276-.215-.077-.426-.162-.642-.236zM86.39 935.562c-.106.334-.222.663-.323 1h19.864c-.101-.337-.217-.666-.323-1H86.391zm-13.174 11.4c-.356 3.1-.617 6.208-.617 9.4 0 .168.008.333.01.5.027-3.358.322-6.63.718-9.9h-.111zm45.455 0c.396 3.27.69 6.542.719 9.9 0-.167.01-.332.01-.5 0-3.192-.262-6.3-.618-9.4h-.11zm-64.254 9.9c-.002.168-.018.333-.018.5 0 3.589.52 7.073 1.352 10.401h17.576c-.04-.333-.073-.667-.111-1H55.752c-.793-3.172-1.288-6.49-1.334-9.9zm28.594 0c-.002.168-.012.333-.012.5 0 3.537.364 6.969.832 10.401h24.336c.468-3.432.832-6.864.832-10.4 0-.168-.01-.333-.012-.5-.032 3.359-.374 6.63-.82 9.9H83.832c-.446-3.27-.788-6.541-.82-9.9zm54.57 0c-.046 3.411-.54 6.729-1.334 9.901h-17.465c-.038.333-.07.667-.111 1h17.576c.832-3.328 1.352-6.812 1.352-10.4 0-.168-.016-.333-.018-.5zm-77.566 21.301a41.53 41.53 0 0 0 22.515 18.512c-.22-.408-.427-.824-.64-1.236a41.513 41.513 0 0 1-21.266-17.276h-.61zm26.052 0A73.249 73.249 0 0 0 96 998.755a73.249 73.249 0 0 0 9.932-20.592h-.323A73.297 73.297 0 0 1 96 997.755a73.297 73.297 0 0 1-9.61-19.592h-.322zm45.305 0c-4.9 7.904-12.357 14.06-21.264 17.276-.213.412-.42.828-.64 1.236 9.568-3.276 17.523-9.932 22.515-18.512h-.611z" style="fill:#fff"/>
    <path transform="translate(0 860.362)" d="M96 54.607A73.249 73.249 0 0 0 86.068 75.2h.323A73.297 73.297 0 0 1 96 55.607a73.297 73.297 0 0 1 9.61 19.592h.322A73.249 73.249 0 0 0 96 54.607zm-13.469 2.08A41.53 41.53 0 0 0 60.016 75.2h.609a41.513 41.513 0 0 1 21.266-17.275c.213-.412.42-.829.64-1.236zm26.938 0c.22.408.427.825.64 1.237 8.907 3.215 16.364 9.371 21.264 17.275h.611c-4.992-8.58-12.947-15.235-22.515-18.511zM55.752 85.6C54.92 88.928 54.4 92.412 54.4 96c0 .168.016.332.018.5.046-3.41.54-6.728 1.334-9.9h17.465c.038-.334.07-.667.111-1H55.752zm28.08 0C83.364 88.98 83 92.464 83 96c0 .168.01.333.012.5.032-3.364.374-6.68.82-9.9h24.336c.446 3.22.788 6.536.82 9.9.002-.167.012-.332.012-.5 0-3.536-.364-7.02-.832-10.4H83.832zm34.84 0c.04.333.073.666.111 1h17.465c.793 3.172 1.288 6.49 1.334 9.9.002-.168.018-.332.018-.5 0-3.588-.52-7.072-1.352-10.4h-17.576zM44.014 96.5c-.002.167-.014.332-.014.5 0 28.704 23.243 52 51.947 52C124.703 149 148 125.704 148 97c0-.168-.012-.333-.014-.5-.27 28.473-23.45 51.5-52.039 51.5-28.536 0-51.664-23.027-51.933-51.5zm28.595 0c-.001.167-.01.332-.01.5 0 3.193.262 6.3.618 9.4h.111c-.396-3.269-.69-6.54-.719-9.9zm46.782 0c-.028 3.36-.323 6.631-.72 9.9h.112c.356-3.1.617-6.207.617-9.4 0-.168-.008-.333-.01-.5zm-59.375 20.3c.195.34.404.669.609 1h14.73c1.547 6.042 3.732 11.851 6.536 17.276.214.078.424.163.64.237-3.12-5.772-5.512-12.012-7.176-18.512h-15.34zm26.052 0c.101.337.217.667.323 1h19.218c.106-.333.222-.663.323-1H86.068zm30.577 0c-1.664 6.5-4.056 12.74-7.176 18.513.216-.074.426-.16.64-.237 2.804-5.425 4.99-11.234 6.536-17.275h14.728c.206-.332.415-.662.611-1h-15.34z" style="fill:#1a237e;opacity:.2"/>
  </g>
  <rect transform="translate(0 -860.362)" ry="12" rx="12" y="880.362" x="20" height="152" width="152" style="color:#000;clip-rule:nonzero;display:inline;overflow:visible;visibility:visible;opacity:1;isolation:auto;mix-blend-mode:normal;color-interpolation:sRGB;color-interpolation-filters:linearRGB;solid-color:#000;solid-opacity:1;fill:url(#f);fill-opacity:1;fill-rule:evenodd;stroke:none;stroke-width:1;stroke-linecap:butt;stroke-linejoin:round;stroke-miterlimit:4;stroke-dasharray:none;stroke-dashoffset:0;stroke-opacity:1;color-rendering:auto;image-rendering:auto;shape-rendering:auto;text-rendering:auto;enable-background:accumulate"/>
</svg>
