<svg xmlns="http://www.w3.org/2000/svg" xmlns:xlink="http://www.w3.org/1999/xlink" viewBox="0 0 48 48" version="1.1" height="1em" width="1em">
  <g>
    <path style="stroke:none;fill-rule:nonzero;fill:rgb(86.27451%,86.27451%,86.27451%);fill-opacity:1" d="M 10 2 C 9.054688 2 8 3.054688 8 4 L 8 44 C 8 44.890625 9.109375 46 10 46 L 38 46 C 38.890625 46 39.984375 44.890625 40 44 L 40 14 L 28 2 Z M 10 2"/>
    <path style="stroke:none;fill-rule:nonzero;fill:rgb(0%,0%,0%);fill-opacity:0.196078" d="M 30 14 L 40 24 L 40 14 Z M 30 14"/>
    <path style="stroke:none;fill-rule:nonzero;fill:rgb(100%,100%,100%);fill-opacity:0.392157" d="M 28 2 L 40 14 L 30 14 C 29.109375 14 28 12.890625 28 12 Z M 28 2"/>
    <path style="stroke:none;fill-rule:nonzero;fill:rgb(53.333333%,53.333333%,53.333333%);fill-opacity:1" d="M 30.242188 21.859375 C 31.339844 22.210938 30.367188 23.84375 31.957031 24.632812 C 33.765625 25.554688 34.660156 23.25 35.75 24.894531 C 36.835938 26.535156 34.25 26.273438 34.328125 28.210938 C 34.398438 30.148438 36.960938 29.734375 36 31.433594 C 35.039062 33.148438 33.972656 30.902344 32.234375 31.929688 C 30.492188 32.945312 32.152344 34.835938 30.101562 34.90625 C 28.066406 34.964844 29.578125 32.980469 27.765625 32.070312 C 25.957031 31.164062 25.066406 33.453125 23.976562 31.8125 C 22.890625 30.171875 25.476562 30.429688 25.398438 28.496094 C 25.328125 26.558594 22.761719 26.972656 23.726562 25.269531 C 24.6875 23.558594 25.75 25.800781 27.492188 24.773438 C 29.234375 23.757812 27.574219 21.871094 29.621094 21.8125 C 29.875 21.800781 30.082031 21.8125 30.242188 21.859375 Z M 30.21875 26.78125 C 29.300781 26.59375 28.398438 27.148438 28.214844 28.023438 C 28.019531 28.882812 28.589844 29.734375 29.507812 29.921875 C 30.421875 30.113281 31.328125 29.558594 31.511719 28.683594 C 31.707031 27.820312 31.132812 26.972656 30.21875 26.78125 Z M 30.21875 26.78125"/>
    <path style="stroke:none;fill-rule:nonzero;fill:rgb(53.333333%,53.333333%,53.333333%);fill-opacity:1" d="M 21.445312 13.804688 C 22.546875 14.148438 21.574219 15.777344 23.164062 16.582031 C 24.972656 17.488281 25.867188 15.1875 26.953125 16.828125 C 28.042969 18.46875 25.453125 18.222656 25.535156 20.144531 C 25.601562 22.082031 28.167969 21.667969 27.207031 23.382812 C 26.246094 25.082031 25.179688 22.851562 23.4375 23.867188 C 21.699219 24.882812 23.359375 26.78125 21.308594 26.839844 C 19.269531 26.898438 20.78125 24.917969 18.972656 24.007812 C 17.164062 23.097656 16.269531 25.402344 15.183594 23.757812 C 14.09375 22.117188 16.683594 22.367188 16.601562 20.429688 C 16.535156 18.503906 13.96875 18.917969 14.929688 17.207031 C 15.894531 15.503906 16.957031 17.738281 18.699219 16.722656 C 20.4375 15.695312 18.777344 13.804688 20.828125 13.746094 C 21.082031 13.734375 21.285156 13.746094 21.445312 13.804688 Z M 21.421875 18.71875 C 20.507812 18.539062 19.601562 19.09375 19.417969 19.957031 C 19.226562 20.832031 19.796875 21.679688 20.714844 21.859375 C 21.628906 22.046875 22.535156 21.492188 22.71875 20.628906 C 22.914062 19.757812 22.339844 18.90625 21.421875 18.71875 Z M 21.421875 18.71875"/>
    <path style="stroke:none;fill-rule:nonzero;fill:rgb(53.333333%,53.333333%,53.333333%);fill-opacity:1" d="M 18.515625 24.882812 C 19.613281 25.234375 18.640625 26.863281 20.234375 27.65625 C 22.042969 28.578125 22.933594 26.273438 24.023438 27.914062 C 25.109375 29.558594 22.523438 29.296875 22.601562 31.234375 C 22.671875 33.171875 25.238281 32.757812 24.273438 34.457031 C 23.3125 36.167969 22.25 33.925781 20.507812 34.953125 C 18.765625 35.96875 20.425781 37.859375 18.378906 37.929688 C 16.339844 37.988281 17.851562 36.003906 16.042969 35.09375 C 14.234375 34.1875 13.339844 36.476562 12.25 34.835938 C 11.164062 33.195312 13.75 33.453125 13.671875 31.515625 C 13.601562 29.582031 11.039062 29.992188 12 28.292969 C 12.960938 26.582031 14.027344 28.824219 15.765625 27.796875 C 17.507812 26.78125 15.847656 24.894531 17.898438 24.832031 C 18.148438 24.820312 18.355469 24.832031 18.515625 24.882812 Z M 18.492188 29.804688 C 17.578125 29.617188 16.671875 30.171875 16.488281 31.042969 C 16.292969 31.90625 16.867188 32.757812 17.78125 32.945312 C 18.699219 33.136719 19.601562 32.578125 19.785156 31.707031 C 19.980469 30.84375 19.410156 29.992188 18.492188 29.804688 Z M 18.492188 29.804688"/>
  </g>
</svg>
