<svg xmlns="http://www.w3.org/2000/svg" viewBox="0 0 48 48" height="1em" width="1em">
  <path style="stroke:none;fill-rule:nonzero;fill:#dcdcdc;fill-opacity:1" d="M10 2c-.945 0-2 1.055-2 2v40c0 .89 1.11 2 2 2h28c.89 0 1.984-1.11 2-2V14L28 2Zm0 0"/>
  <path style="stroke:none;fill-rule:nonzero;fill:#000;fill-opacity:.196078" d="m30 14 10 10V14Zm0 0"/>
  <path style="stroke:none;fill-rule:nonzero;fill:#fff;fill-opacity:.392157" d="m28 2 12 12H30c-.89 0-2-1.11-2-2Zm0 0"/>
  <path style="stroke:none;fill-rule:nonzero;fill:#888;fill-opacity:1" d="M30.242 21.86c1.098.35.125 1.984 1.715 2.773 1.809.922 2.703-1.383 3.793.262 1.086 1.64-1.5 1.378-1.422 3.316.07 1.937 2.633 1.523 1.672 3.223-.96 1.714-2.027-.532-3.766.496-1.742 1.015-.082 2.906-2.132 2.976-2.036.059-.524-1.926-2.336-2.836-1.809-.906-2.7 1.383-3.79-.258-1.085-1.64 1.5-1.382 1.422-3.316-.07-1.937-2.636-1.523-1.671-3.226.96-1.711 2.023.53 3.765-.497 1.742-1.015.082-2.902 2.13-2.96.253-.012.46 0 .62.046Zm-.023 4.921c-.918-.187-1.82.367-2.004 1.242-.195.86.375 1.711 1.293 1.899.914.191 1.82-.363 2.004-1.238.195-.864-.38-1.711-1.293-1.903Zm0 0"/>
  <path style="stroke:none;fill-rule:nonzero;fill:#888;fill-opacity:1" d="M21.445 13.805c1.102.343.13 1.972 1.72 2.777 1.808.906 2.702-1.395 3.788.246 1.09 1.64-1.5 1.395-1.418 3.317.067 1.937 2.633 1.523 1.672 3.238-.96 1.699-2.027-.531-3.77.484-1.738 1.016-.078 2.914-2.128 2.973-2.04.058-.528-1.922-2.336-2.832-1.809-.91-2.703 1.394-3.79-.25-1.09-1.64 1.5-1.39 1.419-3.328-.067-1.926-2.633-1.512-1.672-3.223.965-1.703 2.027.531 3.77-.484 1.738-1.028.077-2.918 2.128-2.977.254-.012.457 0 .617.059Zm-.023 4.914c-.914-.18-1.82.375-2.004 1.238-.191.875.379 1.723 1.297 1.902.914.188 1.82-.367 2.004-1.23.195-.871-.38-1.723-1.297-1.91Zm0 0"/>
  <path style="stroke:none;fill-rule:nonzero;fill:#888;fill-opacity:1" d="M18.516 24.883c1.097.351.125 1.98 1.718 2.773 1.809.922 2.7-1.383 3.79.258 1.085 1.645-1.5 1.383-1.422 3.32.07 1.938 2.636 1.524 1.671 3.223-.96 1.711-2.023-.531-3.765.496-1.742 1.016-.082 2.906-2.13 2.977-2.038.058-.526-1.926-2.335-2.836-1.809-.907-2.703 1.383-3.793-.258-1.086-1.64 1.5-1.383 1.422-3.32-.07-1.934-2.633-1.524-1.672-3.223.96-1.711 2.027.531 3.766-.496 1.742-1.016.082-2.902 2.132-2.965.25-.012.457 0 .618.05Zm-.024 4.922c-.914-.188-1.82.367-2.004 1.238-.195.863.38 1.715 1.293 1.902.918.192 1.82-.367 2.004-1.238.195-.863-.375-1.715-1.293-1.902Zm0 0"/>
</svg>
