<svg xmlns="http://www.w3.org/2000/svg" xmlns:xlink="http://www.w3.org/1999/xlink" viewBox="0 0 192 192" height="1em" width="1em">
  <defs>
    <radialGradient xlink:href="#a" id="c" cx="16.806" cy="877.161" fx="16.806" fy="877.161" r="79.204" gradientTransform="rotate(45 1978.495 1637.465) scale(2.82821 2.82818)" gradientUnits="userSpaceOnUse"/>
    <linearGradient id="a">
      <stop style="stop-color:#fff;stop-opacity:.1" offset="0"/>
      <stop style="stop-color:#fff;stop-opacity:0" offset="1"/>
    </linearGradient>
    <filter style="color-interpolation-filters:sRGB" id="b">
      <feFlood flood-opacity=".12" flood-color="#000" result="flood"/>
      <feComposite in="flood" in2="SourceGraphic" operator="in" result="composite1"/>
      <feGaussianBlur in="composite1" stdDeviation="2" result="blur"/>
      <feOffset result="offset"/>
      <feComposite in="SourceGraphic" in2="offset" result="fbSourceGraphic"/>
      <feColorMatrix result="fbSourceGraphicAlpha" in="fbSourceGraphic" values="0 0 0 -1 0 0 0 0 -1 0 0 0 0 -1 0 0 0 0 1 0"/>
      <feFlood flood-opacity=".24" flood-color="#000" result="flood"/>
      <feComposite in2="fbSourceGraphic" in="flood" operator="in" result="composite1"/>
      <feGaussianBlur in="composite1" stdDeviation="2" result="blur"/>
      <feOffset dy="4" result="offset"/>
      <feComposite in2="offset" in="fbSourceGraphic" result="composite2"/>
    </filter>
  </defs>
  <path style="color:#000;font-style:normal;font-variant:normal;font-weight:400;font-stretch:normal;font-size:medium;line-height:normal;font-family:sans-serif;text-indent:0;text-align:start;text-decoration:none;text-decoration-line:none;text-decoration-style:solid;text-decoration-color:#000;letter-spacing:normal;word-spacing:normal;text-transform:none;direction:ltr;block-progression:tb;writing-mode:lr-tb;baseline-shift:baseline;text-anchor:start;white-space:normal;clip-rule:nonzero;display:inline;overflow:visible;visibility:visible;opacity:1;isolation:auto;mix-blend-mode:normal;color-interpolation:sRGB;color-interpolation-filters:linearRGB;solid-color:#000;solid-opacity:1;fill:#f5f5f5;fill-opacity:1;fill-rule:evenodd;stroke:none;stroke-width:12;stroke-linecap:butt;stroke-linejoin:round;stroke-miterlimit:4;stroke-dasharray:none;stroke-dashoffset:0;stroke-opacity:1;color-rendering:auto;image-rendering:auto;shape-rendering:auto;text-rendering:auto;enable-background:accumulate;filter:url(#b)" d="M147.986 868.362a5.963 5.963 0 0 0-1.17.108l-.007.002-.05.01c-18.674 3.591-45.368 10.039-70.027 23.404-24.681 13.378-47.53 34.014-56.965 65.495a9.6 9.6 0 0 0-.063.227c-3.41 13.226-4.257 28.569-.162 41.27 2.044 6.34 5.398 12.059 10.508 16.115 4.89 3.882 11.45 6.023 19.085 5.87 6.49 15.206 18.64 22.267 29.693 23.323 9.472.904 18.114-1.674 23.146-7.577 6.646 3.892 12.985 5.838 18.915 5.665 6.91-.202 13.053-3.13 18.06-7.41 10.01-8.553 16.391-22.273 21.195-35.1l.077-.17-.05.099c.03-.08.069-.162.099-.242l-.11.263-.101.21c3.377-6.433 5.84-16.255 8.059-27.992 2.214-11.718 3.99-25.096 5.214-37.611 1.224-12.516 1.898-24.132 1.87-32.442-.012-3.973-.177-7.026-.585-9.448-.8-4.736-6.564-6.659-10.047-3.351-25.293 24.037-44.307 36.755-56.32 41.616-6.16 2.494-10.233 2.795-12.199 2.273-.853-.226-1.26-.577-1.46-.851-.23-.317-.477-.905-.486-1.96-.043-4.668 5.434-15.284 17.96-26.407 9.217-8.185 22.017-16.683 38.316-23.906l-.006-.004a6 6 0 0 0 3.57-5.267 6 6 0 0 0-5.959-6.211z" transform="translate(0 -860.362)"/>
  <path style="color:#000;clip-rule:nonzero;display:inline;overflow:visible;visibility:visible;opacity:1;isolation:auto;mix-blend-mode:normal;color-interpolation:sRGB;color-interpolation-filters:linearRGB;solid-color:#000;solid-opacity:1;fill:#7caf40;fill-opacity:1;fill-rule:evenodd;stroke:none;stroke-width:12;stroke-linecap:butt;stroke-linejoin:round;stroke-miterlimit:4;stroke-dasharray:none;stroke-dashoffset:0;stroke-opacity:1;color-rendering:auto;image-rendering:auto;shape-rendering:auto;text-rendering:auto;enable-background:accumulate" d="M147.932 874.363c-36.808 7.073-104.692 25.483-122.457 84.757-3.172 12.307-3.817 26.908-.26 37.938 1.78 5.522 4.574 10.12 8.528 13.26 3.938 3.126 9.059 4.886 15.892 4.605-3.042-15.455-2.743-26.073-1.099-33.436 1.765-7.902 5.137-12.154 6.903-14.374 1.586-1.993 4.577.386 2.99 2.38-1.78 2.238-4.554 5.621-6.163 12.828-1.595 7.14-1.927 18.027 1.69 34.743.236.445.41.893.6 1.345 5.73 13.558 15.636 18.957 24.813 19.834 8.83.843 16.756-2.886 19.316-7.344.004-.046.022-.052.027-.095-9.767-20.972-8.167-38.696-.975-51.871 1.198-2.312 4.65-.427 3.353 1.83-6.675 12.229-8.326 28.565 1.26 48.852.036.072.066.148.09.224.008.012.025.02.032.032.043.071.023.102.056.168 6.938 4.598 12.948 6.418 18.164 6.266 5.397-.158 10.087-2.34 14.34-5.974 8.507-7.269 14.93-20.434 19.6-32.954l.099-.22c2.663-5.071 5.307-14.847 7.476-26.322 2.169-11.475 3.93-24.718 5.14-37.087 1.21-12.37 1.869-23.88 1.842-31.843-.012-3.781-.203-6.704-.501-8.471-25.608 24.337-44.923 37.458-58.21 42.835-6.771 2.74-12.014 3.566-15.992 2.51-1.99-.528-3.666-1.599-4.773-3.118-1.106-1.52-1.617-3.41-1.636-5.439-.074-8.113 6.813-19.26 19.98-30.951 9.737-8.646 23.046-17.451 39.875-24.909z" transform="translate(0 -860.362)"/>
  <path style="color:#000;font-style:normal;font-variant:normal;font-weight:400;font-stretch:normal;font-size:medium;line-height:normal;font-family:sans-serif;text-indent:0;text-align:start;text-decoration:none;text-decoration-line:none;text-decoration-style:solid;text-decoration-color:#000;letter-spacing:normal;word-spacing:normal;text-transform:none;direction:ltr;block-progression:tb;writing-mode:lr-tb;baseline-shift:baseline;text-anchor:start;white-space:normal;clip-rule:nonzero;display:inline;overflow:visible;visibility:visible;opacity:.4;isolation:auto;mix-blend-mode:normal;color-interpolation:sRGB;color-interpolation-filters:linearRGB;solid-color:#000;solid-opacity:1;fill:#fff;fill-opacity:1;fill-rule:evenodd;stroke:none;stroke-width:12;stroke-linecap:butt;stroke-linejoin:round;stroke-miterlimit:4;stroke-dasharray:none;stroke-dashoffset:0;stroke-opacity:1;color-rendering:auto;image-rendering:auto;shape-rendering:auto;text-rendering:auto;enable-background:accumulate" d="M147.986 868.362a5.963 5.963 0 0 0-1.17.107l-.008.002-.048.01c-18.675 3.592-45.37 10.04-70.028 23.405-24.681 13.377-47.53 34.014-56.965 65.496a6 6 0 0 0-.062.226c-1.785 6.925-2.858 14.43-2.897 21.832.127-7.076 1.192-14.219 2.897-20.832.02-.075.04-.151.062-.226 9.435-31.482 32.284-52.119 56.965-65.496 24.659-13.366 51.353-19.813 70.028-23.405l.048-.01a5.997 5.997 0 0 1 7.11 5.344c.006-.08.022-.159.025-.24a6 6 0 0 0-5.957-6.213zm20.295 19.076a5.907 5.907 0 0 0-3.71 1.643c-25.293 24.037-44.308 36.754-56.321 41.615-6.161 2.493-10.234 2.795-12.2 2.273-.852-.226-1.26-.577-1.46-.851-.192-.263-.385-.734-.453-1.486-.012.176-.033.363-.032.525.01 1.056.254 1.644.485 1.96.2.275.608.626 1.46.852 1.966.522 6.039.22 12.2-2.273 12.013-4.861 31.028-17.578 56.32-41.615 3.483-3.308 9.247-1.387 10.047 3.35.397 2.35.56 5.313.582 9.117 0-.218.005-.457.004-.67-.013-3.973-.177-7.026-.586-9.448-.55-3.256-3.447-5.18-6.336-4.992z" transform="translate(0 -860.362)"/>
  <path style="color:#000;font-style:normal;font-variant:normal;font-weight:400;font-stretch:normal;font-size:medium;line-height:normal;font-family:sans-serif;text-indent:0;text-align:start;text-decoration:none;text-decoration-line:none;text-decoration-style:solid;text-decoration-color:#000;letter-spacing:normal;word-spacing:normal;text-transform:none;direction:ltr;block-progression:tb;writing-mode:lr-tb;baseline-shift:baseline;text-anchor:start;white-space:normal;clip-rule:nonzero;display:inline;overflow:visible;visibility:visible;opacity:.1;isolation:auto;mix-blend-mode:normal;color-interpolation:sRGB;color-interpolation-filters:linearRGB;solid-color:#000;solid-opacity:1;fill:#212121;fill-opacity:1;fill-rule:evenodd;stroke:none;stroke-width:12;stroke-linecap:butt;stroke-linejoin:round;stroke-miterlimit:4;stroke-dasharray:none;stroke-dashoffset:0;stroke-opacity:1;color-rendering:auto;image-rendering:auto;shape-rendering:auto;text-rendering:auto;enable-background:accumulate" d="M153.918 873.816a5.99 5.99 0 0 1-3.543 5.025l.006.004c-16.298 7.223-29.099 15.721-38.316 23.906-12.526 11.122-18.002 21.74-17.96 26.407.002.177.018.322.032.474.331-4.898 5.838-15.144 17.928-25.879 9.217-8.185 22.018-16.683 38.316-23.906l-.006-.006a5.997 5.997 0 0 0 3.568-5.266 6.095 6.095 0 0 0-.025-.76zm21.281 27.734c-.008 8.261-.674 19.577-1.867 31.771-1.224 12.516-3 25.894-5.215 37.612-2.188 11.578-4.616 21.285-7.924 27.72l-.048.11c-4.805 12.827-11.185 26.548-21.196 35.101-5.007 4.279-11.151 7.209-18.06 7.41-5.93.174-12.268-1.773-18.914-5.665-5.033 5.903-13.675 8.482-23.147 7.578-11.053-1.055-23.204-8.117-29.693-23.323-7.636.153-14.194-1.989-19.084-5.87-5.11-4.057-8.464-9.776-10.508-16.116-1.79-5.55-2.636-11.605-2.736-17.767.021 6.506.85 12.917 2.736 18.767 2.044 6.34 5.398 12.059 10.508 16.115 4.89 3.882 11.448 6.024 19.084 5.871 6.489 15.206 18.64 22.267 29.693 23.323 9.472.904 18.114-1.675 23.147-7.578 6.646 3.892 12.984 5.84 18.914 5.666 6.909-.202 13.053-3.132 18.06-7.41 10.011-8.554 16.391-22.275 21.196-35.102l.043-.094c-.044.084-.086.173-.13.256l.102-.209.11-.264c-.03.08-.068.163-.098.243l.049-.102-.034.076c3.312-6.435 5.74-16.15 7.93-27.736 2.215-11.718 3.99-25.096 5.215-37.611 1.224-12.517 1.899-24.131 1.871-32.442 0-.116-.003-.215-.004-.33zm-15.006 97.104.028-.061-.05.1c.03-.08.069-.163.099-.243l-.11.264-.101.209c.045-.087.089-.181.134-.27z" transform="translate(0 -860.362)"/>
  <path transform="translate(0 -860.362)" style="color:#000;font-style:normal;font-variant:normal;font-weight:400;font-stretch:normal;font-size:medium;line-height:normal;font-family:sans-serif;text-indent:0;text-align:start;text-decoration:none;text-decoration-line:none;text-decoration-style:solid;text-decoration-color:#000;letter-spacing:normal;word-spacing:normal;text-transform:none;direction:ltr;block-progression:tb;writing-mode:lr-tb;baseline-shift:baseline;text-anchor:start;white-space:normal;clip-rule:nonzero;display:inline;overflow:visible;visibility:visible;opacity:1;isolation:auto;mix-blend-mode:normal;color-interpolation:sRGB;color-interpolation-filters:linearRGB;solid-color:#000;solid-opacity:1;fill:url(#c);fill-opacity:1;fill-rule:evenodd;stroke:none;stroke-width:12;stroke-linecap:butt;stroke-linejoin:round;stroke-miterlimit:4;stroke-dasharray:none;stroke-dashoffset:0;stroke-opacity:1;color-rendering:auto;image-rendering:auto;shape-rendering:auto;text-rendering:auto;enable-background:accumulate" d="M147.986 868.362a5.963 5.963 0 0 0-1.17.108l-.007.002-.05.01c-18.674 3.591-45.368 10.039-70.027 23.404-24.681 13.378-47.53 34.014-56.965 65.495a9.6 9.6 0 0 0-.063.227c-3.41 13.226-4.257 28.569-.162 41.27 2.044 6.34 5.398 12.059 10.508 16.115 4.89 3.882 11.45 6.023 19.085 5.87 6.49 15.206 18.64 22.267 29.693 23.323 9.472.904 18.114-1.674 23.146-7.577 6.646 3.892 12.985 5.838 18.915 5.665 6.91-.202 13.053-3.13 18.06-7.41 10.01-8.553 16.391-22.273 21.195-35.1l.077-.17-.05.099c.03-.08.069-.162.099-.242l-.11.263-.101.21c3.377-6.433 5.84-16.255 8.059-27.992 2.214-11.718 3.99-25.096 5.214-37.611 1.224-12.516 1.898-24.132 1.87-32.442-.012-3.973-.177-7.026-.585-9.448-.8-4.736-6.564-6.659-10.047-3.351-25.293 24.037-44.307 36.755-56.32 41.616-6.16 2.494-10.233 2.795-12.199 2.273-.853-.226-1.26-.577-1.46-.851-.23-.317-.477-.905-.486-1.96-.043-4.668 5.434-15.284 17.96-26.407 9.217-8.185 22.017-16.683 38.316-23.906l-.006-.004a6 6 0 0 0 3.57-5.267 6 6 0 0 0-5.959-6.211z"/>
</svg>
