<svg xmlns="http://www.w3.org/2000/svg" xmlns:xlink="http://www.w3.org/1999/xlink" viewBox="0 0 48 48" version="1.1" height="1em" width="1em">
  <g>
    <path style="stroke:none;fill-rule:nonzero;fill:rgb(40.392157%,54.509804%,72.156863%);fill-opacity:1" d="M 10 2 C 9.054688 2 8 3.054688 8 4 L 8 44 C 8 44.890625 9.109375 46 10 46 L 38 46 C 38.890625 46 39.984375 44.890625 40 44 L 40 14 L 28 2 Z M 10 2"/>
    <path style="stroke:none;fill-rule:nonzero;fill:rgb(100%,100%,100%);fill-opacity:0.392157" d="M 28 2 L 40 14 L 30 14 C 29.109375 14 28 12.890625 28 12 Z M 28 2"/>
    <path style="stroke:none;fill-rule:nonzero;fill:rgb(100%,100%,100%);fill-opacity:1" d="M 19.25 15.011719 C 15.738281 15.011719 11.320312 18.4375 11.359375 23.742188 C 11.394531 28.875 13.054688 31.65625 14.320312 34.800781 L 18.074219 33.191406 C 17.214844 31.386719 16.085938 29.59375 15.6875 28.699219 C 14.570312 26.191406 14.191406 25.058594 14.289062 23.152344 C 14.375 21.304688 14.972656 20.175781 16.070312 19.082031 C 17.164062 17.996094 18.683594 17.445312 20.492188 17.703125 C 23.101562 18.074219 24.476562 19.578125 25.140625 20.953125 C 25.511719 20.898438 25.894531 20.851562 26.316406 20.855469 C 26.644531 20.855469 26.976562 20.882812 27.300781 20.953125 C 26.601562 18.097656 23.144531 15.011719 19.25 15.011719 Z M 20.84375 20 C 19.246094 19.890625 16.914062 20.695312 16.929688 23.21875 C 16.9375 25.601562 18.386719 27.390625 20.109375 28.105469 C 20.074219 27.507812 20.113281 26.839844 20.207031 26.171875 C 19.273438 25.648438 18.703125 24.714844 18.617188 23.414062 C 18.507812 21.96875 19.898438 20.507812 22.117188 21.25 C 22.472656 21.367188 22.484375 20.730469 22.082031 20.394531 C 21.824219 20.183594 21.375 20.039062 20.84375 20 Z M 26.316406 21.90625 C 26.035156 21.902344 25.769531 21.914062 25.519531 21.9375 C 25.585938 22.195312 25.632812 22.453125 25.648438 22.660156 C 25.808594 22.648438 25.984375 22.652344 26.15625 22.660156 C 26.628906 22.683594 27.0625 22.761719 27.460938 22.890625 C 27.476562 22.617188 27.46875 22.359375 27.460938 22.101562 C 27.082031 21.980469 26.699219 21.90625 26.316406 21.90625 Z M 25.550781 23.675781 C 25.304688 24.789062 24.546875 26.148438 23.007812 26.53125 C 22.96875 26.761719 22.933594 26.976562 22.941406 27.121094 C 22.960938 27.425781 23.023438 27.847656 23.199219 28.304688 C 25.835938 27.804688 26.972656 25.894531 27.335938 23.9375 C 26.980469 23.792969 26.578125 23.699219 26.09375 23.675781 C 25.90625 23.667969 25.71875 23.660156 25.550781 23.675781 Z M 21.191406 26.566406 C 21.136719 27.070312 21.097656 27.574219 21.128906 28.042969 C 21.136719 28.152344 21.144531 28.257812 21.160156 28.371094 C 21.355469 28.398438 21.539062 28.464844 21.734375 28.46875 C 21.898438 28.46875 22.054688 28.441406 22.210938 28.433594 C 22.054688 27.984375 21.949219 27.550781 21.925781 27.1875 C 21.914062 27.03125 21.910156 26.847656 21.925781 26.664062 C 21.667969 26.648438 21.417969 26.609375 21.191406 26.566406 Z M 21.191406 26.566406"/>
    <path style="stroke:none;fill-rule:nonzero;fill:rgb(66.27451%,75.686275%,89.019608%);fill-opacity:1" d="M 33.738281 15.03125 C 35.007812 18.171875 36.691406 20.941406 36.726562 26.074219 C 36.765625 31.378906 32.324219 34.808594 28.808594 34.808594 C 24.558594 34.808594 20.820312 31.132812 20.625 28.089844 C 20.445312 25.34375 21.398438 21.347656 26.328125 21.375 C 28.683594 21.390625 31.128906 23.488281 31.140625 26.605469 C 31.15625 29.96875 27.035156 30.300781 25.996094 29.445312 C 25.597656 29.109375 25.609375 28.453125 25.960938 28.570312 C 28.179688 29.308594 29.550781 27.851562 29.449219 26.402344 C 29.3125 24.433594 28.171875 23.265625 26.128906 23.167969 C 23.183594 23.023438 22.359375 25.957031 22.433594 27.148438 C 22.527344 28.597656 23.757812 31.574219 27.59375 32.117188 C 29.402344 32.375 30.90625 31.820312 32 30.730469 C 33.09375 29.640625 33.714844 28.515625 33.800781 26.671875 C 33.894531 24.761719 33.488281 23.644531 32.375 21.136719 C 31.976562 20.238281 30.863281 18.4375 30 16.628906 L 33.742188 15.03125 M 33.738281 15.03125"/>
    <path style="stroke:none;fill-rule:nonzero;fill:rgb(0%,0%,0%);fill-opacity:0.196078" d="M 30 14 L 40 24 L 40 14 Z M 30 14"/>
  </g>
</svg>
