<svg xmlns:dc="http://purl.org/dc/elements/1.1/" xmlns:cc="http://creativecommons.org/ns#" xmlns:rdf="http://www.w3.org/1999/02/22-rdf-syntax-ns#" xmlns:svg="http://www.w3.org/2000/svg" xmlns="http://www.w3.org/2000/svg" xmlns:xlink="http://www.w3.org/1999/xlink" xmlns:sodipodi="http://sodipodi.sourceforge.net/DTD/sodipodi-0.dtd" xmlns:inkscape="http://www.inkscape.org/namespaces/inkscape" viewBox="0 0 192 192" version="1.1" inkscape:version="0.91 r13725" sodipodi:docname="folder-music.svg" height="1em" width="1em">
  <defs>
    <clipPath clipPathUnits="userSpaceOnUse" id="d">
      <path style="color:#000000;clip-rule:nonzero;display:inline;overflow:visible;visibility:visible;opacity:1;isolation:auto;mix-blend-mode:normal;color-interpolation:sRGB;color-interpolation-filters:linearRGB;solid-color:#000000;solid-opacity:1;fill:#00acc1;fill-opacity:1;fill-rule:evenodd;stroke:none;stroke-width:24;stroke-linecap:round;stroke-linejoin:round;stroke-miterlimit:4;stroke-dasharray:none;stroke-dashoffset:0;stroke-opacity:1;color-rendering:auto;image-rendering:auto;shape-rendering:auto;text-rendering:auto;enable-background:accumulate" d="m 20,892.36216 c -6.648,0 -12,5.352 -12,12 l 0,104.00004 c 0,6.648 5.352,12 12,12 l 152,0 c 6.648,0 12,-5.352 12,-12 l 0,-92.00004 c 0,-6.648 -5.352,-12 -12,-12 l -84,0 c 0,-2e-5 -12,-12 -12,-12 z" inkscape:connector-curvature="0" sodipodi:nodetypes="sccccsssccs"/>
    </clipPath>
    <filter style="color-interpolation-filters:sRGB" inkscape:label="Drop Shadow" id="c">
      <feFlood flood-opacity="0.2" flood-color="rgb(38,50,56)" result="flood"/>
      <feComposite in="flood" in2="SourceGraphic" operator="in" result="composite1"/>
      <feGaussianBlur in="composite1" stdDeviation="4" result="blur"/>
      <feOffset dx="0" dy="4" result="offset"/>
      <feComposite in="SourceGraphic" in2="offset" operator="over" result="composite2"/>
    </filter>
    <radialGradient inkscape:collect="always" xlink:href="#a" id="e" cx="8.0000029" cy="868.36218" fx="8.0000029" fy="868.36218" r="88" gradientTransform="matrix(1.4545449,1.4545456,-1.4545458,1.454545,1259.4362,-1242.7083)" gradientUnits="userSpaceOnUse"/>
    <linearGradient inkscape:collect="always" id="a">
      <stop style="stop-color:#ffffff;stop-opacity:0.1" offset="0"/>
      <stop style="stop-color:#ffffff;stop-opacity:0" offset="1"/>
    </linearGradient>
    <filter style="color-interpolation-filters:sRGB" inkscape:label="Drop Shadow" id="b">
      <feFlood flood-opacity="0.2" flood-color="rgb(0,0,0)" result="flood"/>
      <feComposite in="flood" in2="SourceGraphic" operator="in" result="composite1"/>
      <feGaussianBlur in="composite1" stdDeviation="2" result="blur"/>
      <feOffset dx="0" dy="0" result="offset"/>
      <feComposite in="SourceGraphic" in2="offset" operator="over" result="fbSourceGraphic"/>
      <feColorMatrix result="fbSourceGraphicAlpha" in="fbSourceGraphic" values="0 0 0 -1 0 0 0 0 -1 0 0 0 0 -1 0 0 0 0 1 0"/>
      <feFlood flood-opacity="0.23999999999999999" flood-color="rgb(0,0,0)" result="flood" in="fbSourceGraphic"/>
      <feComposite in2="fbSourceGraphic" in="flood" operator="in" result="composite1"/>
      <feGaussianBlur in="composite1" stdDeviation="2" result="blur"/>
      <feOffset dx="0" dy="4" result="offset"/>
      <feComposite in2="offset" in="fbSourceGraphic" operator="over" result="composite2"/>
    </filter>
  </defs>
  <sodipodi:namedview pagecolor="#ffffff" bordercolor="#666666" borderopacity="1.0" inkscape:pageopacity="0.0" inkscape:pageshadow="2" inkscape:zoom="3.959798" inkscape:cx="134.57174" inkscape:cy="102.69622" inkscape:document-units="px" inkscape:current-layer="layer1" showgrid="true" units="px" inkscape:showpageshadow="false" borderlayer="true" inkscape:snap-bbox="true" inkscape:bbox-nodes="true" inkscape:window-width="1920" inkscape:window-height="1023" inkscape:window-x="0" inkscape:window-y="27" inkscape:window-maximized="1" inkscape:snap-grids="false" inkscape:snap-center="true">
    <inkscape:grid type="xygrid" empspacing="4"/>
  </sodipodi:namedview>
  <g inkscape:label="Main" inkscape:groupmode="layer" transform="translate(0,-860.36216)">
    <path style="color:#000000;clip-rule:nonzero;display:inline;overflow:visible;visibility:visible;opacity:1;isolation:auto;mix-blend-mode:normal;color-interpolation:sRGB;color-interpolation-filters:linearRGB;solid-color:#000000;solid-opacity:1;fill:#00acc1;fill-opacity:1;fill-rule:evenodd;stroke:none;stroke-width:24;stroke-linecap:round;stroke-linejoin:round;stroke-miterlimit:4;stroke-dasharray:none;stroke-dashoffset:0;stroke-opacity:1;color-rendering:auto;image-rendering:auto;shape-rendering:auto;text-rendering:auto;enable-background:accumulate;filter:url(#b)" d="M 20,32 C 13.352,32 8,37.352 8,44 l 0,104 c 0,6.648 5.352,12 12,12 l 152,0 c 6.648,0 12,-5.352 12,-12 l 0,-92 c 0,-6.648 -5.352,-12 -12,-12 l -84,0 c 0,-2e-5 -12,-12 -12,-12 z" transform="translate(0,860.36216)" inkscape:connector-curvature="0" sodipodi:nodetypes="sccccsssccs"/>
    <rect style="color:#000000;clip-rule:nonzero;display:inline;overflow:visible;visibility:visible;opacity:1;isolation:auto;mix-blend-mode:normal;color-interpolation:sRGB;color-interpolation-filters:linearRGB;solid-color:#000000;solid-opacity:1;fill:#4dd0e1;fill-opacity:1;fill-rule:evenodd;stroke:none;stroke-width:24;stroke-linecap:round;stroke-linejoin:round;stroke-miterlimit:4;stroke-dasharray:none;stroke-dashoffset:0;stroke-opacity:1;color-rendering:auto;image-rendering:auto;shape-rendering:auto;text-rendering:auto;enable-background:accumulate;filter:url(#c)" width="176" height="104" x="8" y="916.36218" rx="12" ry="12" clip-path="url(#d)"/>
    <path style="color:#000000;clip-rule:nonzero;display:inline;overflow:visible;visibility:visible;opacity:0.2;isolation:auto;mix-blend-mode:normal;color-interpolation:sRGB;color-interpolation-filters:linearRGB;solid-color:#000000;solid-opacity:1;fill:#ffffff;fill-opacity:1;fill-rule:evenodd;stroke:none;stroke-width:24;stroke-linecap:round;stroke-linejoin:round;stroke-miterlimit:4;stroke-dasharray:none;stroke-dashoffset:0;stroke-opacity:1;color-rendering:auto;image-rendering:auto;shape-rendering:auto;text-rendering:auto;enable-background:accumulate" clip-path="none" d="m 20,916.36216 c -6.648,0 -12,5.352 -12,12 l 0,1 c 0,-6.648 5.352,-12 12,-12 l 152,0 c 6.648,0 12,5.352 12,12 l 0,-1 c 0,-6.648 -5.352,-12 -12,-12 l -152,0 z" inkscape:connector-curvature="0"/>
    <path style="color:#000000;clip-rule:nonzero;display:inline;overflow:visible;visibility:visible;opacity:0.2;isolation:auto;mix-blend-mode:normal;color-interpolation:sRGB;color-interpolation-filters:linearRGB;solid-color:#000000;solid-opacity:1;fill:#263238;fill-opacity:1;fill-rule:evenodd;stroke:none;stroke-width:24;stroke-linecap:round;stroke-linejoin:round;stroke-miterlimit:4;stroke-dasharray:none;stroke-dashoffset:0;stroke-opacity:1;color-rendering:auto;image-rendering:auto;shape-rendering:auto;text-rendering:auto;enable-background:accumulate" clip-path="none" d="m 8,1007.3622 0,1 c 0,6.648 5.352,12 12,12 l 152,0 c 6.648,0 12,-5.352 12,-12 l 0,-1 c 0,6.648 -5.352,12 -12,12 l -152,0 c -6.648,0 -12,-5.352 -12,-12 z" inkscape:connector-curvature="0"/>
    <path style="color:#000000;clip-rule:nonzero;display:inline;overflow:visible;visibility:visible;opacity:0.2;isolation:auto;mix-blend-mode:normal;color-interpolation:sRGB;color-interpolation-filters:linearRGB;solid-color:#000000;solid-opacity:1;fill:#ffffff;fill-opacity:1;fill-rule:evenodd;stroke:none;stroke-width:24;stroke-linecap:round;stroke-linejoin:round;stroke-miterlimit:4;stroke-dasharray:none;stroke-dashoffset:0;stroke-opacity:1;color-rendering:auto;image-rendering:auto;shape-rendering:auto;text-rendering:auto;enable-background:accumulate" d="m 20,892.36216 c -6.648,0 -12,5.352 -12,12 l 0,1 c 0,-6.648 5.352,-12 12,-12 l 56,0 c 0,0 12,11.99998 12,12 l 84,0 c 6.648,0 12,5.352 12,12 l 0,-1 c 0,-6.648 -5.352,-12 -12,-12 l -84,0 c 0,-2e-5 -12,-12 -12,-12 l -56,0 z" inkscape:connector-curvature="0"/>
    <g style="fill:#ffffff" transform="matrix(3,0,0,3,60,932.36218)">
      <path d="M 0,0 24,0 24,24 0,24 Z" inkscape:connector-curvature="0" style="fill:none"/>
      <path d="M 20,2 8,2 C 6.9,2 6,2.9 6,4 l 0,12 c 0,1.1 0.9,2 2,2 l 12,0 c 1.1,0 2,-0.9 2,-2 L 22,4 C 22,2.9 21.1,2 20,2 Z m -2,5 -3,0 0,5.5 C 15,13.88 13.88,15 12.5,15 11.12,15 10,13.88 10,12.5 10,11.12 11.12,10 12.5,10 c 0.57,0 1.08,0.19 1.5,0.51 L 14,5 18,5 18,7 Z M 4,6 2,6 2,20 c 0,1.1 0.9,2 2,2 L 18,22 18,20 4,20 4,6 Z" inkscape:connector-curvature="0" style="fill:#fafafa;fill-opacity:1"/>
    </g>
  </g>
  <g inkscape:groupmode="layer" inkscape:label="Finish" sodipodi:insensitive="true">
    <path style="color:#000000;clip-rule:nonzero;display:inline;overflow:visible;visibility:visible;opacity:1;isolation:auto;mix-blend-mode:normal;color-interpolation:sRGB;color-interpolation-filters:linearRGB;solid-color:#000000;solid-opacity:1;fill:url(#e);fill-opacity:1;fill-rule:evenodd;stroke:none;stroke-width:24;stroke-linecap:round;stroke-linejoin:round;stroke-miterlimit:4;stroke-dasharray:none;stroke-dashoffset:0;stroke-opacity:1;color-rendering:auto;image-rendering:auto;shape-rendering:auto;text-rendering:auto;enable-background:accumulate" d="m 20,31.99996 c -6.648,0 -12,5.352 -12,12 L 8,148 c 0,6.648 5.352,12 12,12 l 152,0 c 6.648,0 12,-5.352 12,-12 l 0,-92.00004 c 0,-6.648 -5.352,-12 -12,-12 l -84,0 c 0,-2e-5 -12,-12 -12,-12 z" inkscape:connector-curvature="0" sodipodi:nodetypes="sccccsssccs"/>
  </g>
</svg>
