<svg xmlns:dc="http://purl.org/dc/elements/1.1/" xmlns:cc="http://creativecommons.org/ns#" xmlns:rdf="http://www.w3.org/1999/02/22-rdf-syntax-ns#" xmlns:svg="http://www.w3.org/2000/svg" xmlns="http://www.w3.org/2000/svg" xmlns:xlink="http://www.w3.org/1999/xlink" xmlns:sodipodi="http://sodipodi.sourceforge.net/DTD/sodipodi-0.dtd" xmlns:inkscape="http://www.inkscape.org/namespaces/inkscape" viewBox="0 0 192 192" version="1.1" inkscape:version="0.91 r13725" sodipodi:docname="netflix.svg" inkscape:export-filename="C:\createme\Material Design Icons\PNG\netflix.png" inkscape:export-xdpi="90" inkscape:export-ydpi="90" height="1em" width="1em">
  <defs>
    <linearGradient inkscape:collect="always" id="a">
      <stop style="stop-color:#ffffff;stop-opacity:1" offset="0"/>
      <stop style="stop-color:#ffffff;stop-opacity:0" offset="1"/>
    </linearGradient>
    <radialGradient inkscape:collect="always" xlink:href="#a" id="c" cx="20" cy="880.36243" fx="20" fy="880.36243" r="76" gradientTransform="matrix(2.6607556e-7,1.9999998,-2.0000002,2.6629458e-7,1780.725,840.36195)" gradientUnits="userSpaceOnUse"/>
    <filter style="color-interpolation-filters:sRGB" inkscape:label="Drop Shadow" id="b">
      <feFlood flood-opacity="0.2" flood-color="rgb(0,0,0)" result="flood"/>
      <feComposite in="flood" in2="SourceGraphic" operator="in" result="composite1"/>
      <feGaussianBlur in="composite1" stdDeviation="2" result="blur"/>
      <feOffset dx="4.57967e-015" dy="4" result="offset"/>
      <feComposite in="SourceGraphic" in2="offset" operator="over" result="fbSourceGraphic"/>
      <feColorMatrix result="fbSourceGraphicAlpha" in="fbSourceGraphic" values="0 0 0 -1 0 0 0 0 -1 0 0 0 0 -1 0 0 0 0 1 0"/>
      <feFlood flood-opacity="0.2" flood-color="rgb(0,0,0)" result="flood" in="fbSourceGraphic"/>
      <feComposite in2="fbSourceGraphic" in="flood" operator="in" result="composite1"/>
      <feGaussianBlur in="composite1" stdDeviation="2" result="blur"/>
      <feOffset dx="0" dy="0" result="offset"/>
      <feComposite in2="offset" in="fbSourceGraphic" operator="over" result="composite2"/>
    </filter>
  </defs>
  <sodipodi:namedview pagecolor="#ffffff" bordercolor="#666666" borderopacity="1.0" inkscape:pageopacity="0.0" inkscape:pageshadow="2" inkscape:zoom="2.8284272" inkscape:cx="142.41379" inkscape:cy="129.38132" inkscape:document-units="px" inkscape:current-layer="layer2" showgrid="false" units="px" showguides="false" inkscape:window-width="1920" inkscape:window-height="1017" inkscape:window-x="-8" inkscape:window-y="-8" inkscape:window-maximized="1">
    <sodipodi:guide position="0,184" orientation="0,1" inkscape:color="rgb(0,0,255)"/>
    <sodipodi:guide position="8,0" orientation="1,0" inkscape:color="rgb(0,0,255)"/>
    <sodipodi:guide position="0,8" orientation="0,1" inkscape:color="rgb(0,0,255)"/>
    <sodipodi:guide position="184,0" orientation="1,0" inkscape:color="rgb(0,0,255)"/>
    <sodipodi:guide position="0,20" orientation="0,1" inkscape:color="rgb(0,0,255)"/>
    <sodipodi:guide position="172,0" orientation="1,0" inkscape:color="rgb(0,0,255)"/>
    <sodipodi:guide position="96,172" orientation="0,1" inkscape:color="rgb(0,0,255)"/>
    <sodipodi:guide position="20,0" orientation="1,0" inkscape:color="rgb(0,0,255)"/>
    <sodipodi:guide position="0,32" orientation="0,1" inkscape:color="rgb(0,0,255)"/>
    <sodipodi:guide position="160,0" orientation="1,0" inkscape:color="rgb(0,0,255)"/>
    <sodipodi:guide position="0,160" orientation="0,1" inkscape:color="rgb(0,0,255)"/>
    <sodipodi:guide position="32,0" orientation="1,0" inkscape:color="rgb(0,0,255)"/>
    <inkscape:grid type="xygrid"/>
    <sodipodi:guide position="0,0" orientation="-0.70710678,0.70710678" inkscape:color="rgb(255,0,0)"/>
    <sodipodi:guide position="124,0" orientation="1,0" inkscape:color="rgb(255,0,0)"/>
    <sodipodi:guide position="0,192" orientation="0.70710678,0.70710678" inkscape:color="rgb(255,0,0)"/>
    <sodipodi:guide position="96,0" orientation="1,0" inkscape:color="rgb(255,0,0)"/>
    <sodipodi:guide position="0,96" orientation="0,1" inkscape:color="rgb(255,0,0)"/>
    <sodipodi:guide position="0,124" orientation="0,1" inkscape:color="rgb(255,0,0)"/>
    <sodipodi:guide position="0,68" orientation="0,1" inkscape:color="rgb(255,0,0)"/>
    <sodipodi:guide position="68,0" orientation="1,0" inkscape:color="rgb(255,0,0)"/>
    <sodipodi:guide position="192,0" orientation="-192,0"/>
    <sodipodi:guide position="192,192" orientation="0,-192"/>
  </sodipodi:namedview>
  <g inkscape:groupmode="layer" inkscape:label="background">
    <path style="fill:#f5f5f5;fill-opacity:1;fill-rule:evenodd;stroke:none;stroke-width:1px;stroke-linecap:butt;stroke-linejoin:miter;stroke-opacity:1;filter:url(#b)" d="m 32,880.36216 128,0 c 6,0 12,6 12,12 l 0,128.00004 c 0,6 -6,12 -12,12 l -128,0 c -6,0 -12,-6 -12,-12 l 0,-128.00004 c 0,-6 6,-12 12,-12 z" inkscape:connector-curvature="0" sodipodi:nodetypes="ccccccccc" transform="translate(0,-860.36216)"/>
    <g transform="matrix(0.37333333,0,0,0.37333333,-103.46621,-79.303771)" style="fill:#f44336">
      <g transform="matrix(2.5445375,0,0,2.5445375,1157.1714,-1457.8678)" style="fill:#f44336">
        <path style="fill:#f44336;fill-opacity:1;fill-rule:nonzero;stroke:none" d="m -203.09972,771.41415 c 1.6425,0.15875 3.2825,0.33 4.92,0.5075 l 3.615,-8.92625 3.43625,9.74875 c 1.76375,0.22125 3.525,0.4525 5.2825,0.695 l -6.02375,-17.09625 6.02625,-14.88 -5.10375,0 -0.0525,0.0725 -3.255,8.03875 -2.8575,-8.11125 -5.03875,0 5.2025,14.7625 -6.15125,15.18875 z" inkscape:connector-curvature="0"/>
        <path style="fill:#f44336;fill-opacity:1;fill-rule:nonzero;stroke:none" d="m -206.91147,771.06478 0,-29.60125 -5.0375,0 0,29.18625 c 1.68125,0.12875 3.36125,0.26875 5.0375,0.415" inkscape:connector-curvature="0"/>
        <path style="fill:#f44336;fill-opacity:1;fill-rule:nonzero;stroke:none" d="m -244.7486,769.4089 c 1.36,0 2.7175,0.01 4.07375,0.0213 l 0,-10.875 6.05125,0 0,-4.63125 -6.05125,0 0,-7.825 6.96875,0 0,-4.63625 -12.02625,0 0,27.95 c 0.3275,0 0.655,-0.004 0.98375,-0.004" inkscape:connector-curvature="0"/>
        <path style="fill:#f44336;fill-opacity:1;fill-rule:nonzero;stroke:none" d="m -260.3881,769.69191 c 1.6775,-0.06 3.3575,-0.11 5.04,-0.15125 l 0,-23.44125 4.7075,0 0,-4.63625 -14.45625,0 0,4.63625 4.70875,0 0,23.5925 z" inkscape:connector-curvature="0"/>
        <path style="fill:#f44336;fill-opacity:1;fill-rule:nonzero;stroke:none" d="m -298.91059,772.81378 0,-17.63625 5.96375,16.92375 c 1.83375,-0.20625 3.67125,-0.4 5.5125,-0.5825 l 0,-30.055 -4.8325,0 0,18.2675 -6.43625,-18.2675 -0.2075,0 -4.8325,0 0,31.98375 0.03,0 c 1.5975,-0.22125 3.19875,-0.43125 4.8025,-0.63375" inkscape:connector-curvature="0"/>
        <path style="fill:#f44336;fill-opacity:1;fill-rule:nonzero;stroke:none" d="m -269.95297,746.09903 0,-4.63625 -12.0275,0 0,24.9125 0,4.6375 0,0.004 c 3.99125,-0.345 7.99625,-0.63375 12.0175,-0.86875 l 0,-0.004 0,-1.33625 0,-3.3 c -2.325,0.135 -4.645,0.29125 -6.96,0.46375 l 0,-7.415 6.05125,0 0,-4.63375 -6.05125,0 0,-7.82375 6.97,0 z" inkscape:connector-curvature="0"/>
        <path style="fill:#f44336;fill-opacity:1;fill-rule:nonzero;stroke:none" d="m -223.72272,765.2864 0,-23.82375 -5.05875,0 0,23.605 0,4.63625 0,0.005 c 4.02375,0.1475 8.0325,0.35375 12.0275,0.6125 l 0,-0.006 0,-1.4975 0,-3.13875 c -2.31875,-0.15 -4.64125,-0.28 -6.96875,-0.3925" inkscape:connector-curvature="0"/>
      </g>
    </g>
  </g>
  <g inkscape:label="objects" inkscape:groupmode="layer" transform="translate(0,-860.36216)"/>
  <g inkscape:groupmode="layer" inkscape:label="finish" sodipodi:insensitive="true">
    <path style="opacity:0.1;fill:#ffffff;fill-opacity:1;fill-rule:evenodd;stroke:none;stroke-width:1px;stroke-linecap:butt;stroke-linejoin:miter;stroke-opacity:1" d="m 32,20 c -6,0 -12,6 -12,12 l 0,1 c 0,-6 6,-12 12,-12 l 128,0 c 6,0 12,6 12,12 l 0,-1 c 0,-6 -6,-12 -12,-12 L 32,20 Z" inkscape:connector-curvature="0"/>
    <path style="opacity:0.2;fill:#000000;fill-opacity:1;fill-rule:evenodd;stroke:none;stroke-width:1px;stroke-linecap:butt;stroke-linejoin:miter;stroke-opacity:1" d="m 20,159 0,1 c 0,6 6,12 12,12 l 128,0 c 6,0 12,-6 12,-12 l 0,-1 c 0,6 -6,12 -12,12 l -128,0 c -6,0 -12,-6 -12,-12 z" inkscape:connector-curvature="0"/>
    <path transform="translate(0,-860.36216)" sodipodi:nodetypes="ccccccccc" inkscape:connector-curvature="0" d="m 32,880.36216 128,0 c 6,0 12,6 12,12 l 0,128.00004 c 0,6 -6,12 -12,12 l -128,0 c -6,0 -12,-6 -12,-12 l 0,-128.00004 c 0,-6 6,-12 12,-12 z" style="opacity:0.1;fill:url(#c);fill-opacity:1;fill-rule:evenodd;stroke:none;stroke-width:0.1;stroke-linecap:butt;stroke-linejoin:miter;stroke-miterlimit:4;stroke-dasharray:none;stroke-opacity:1"/>
  </g>
</svg>
