<svg xmlns:dc="http://purl.org/dc/elements/1.1/" xmlns:cc="http://creativecommons.org/ns#" xmlns:rdf="http://www.w3.org/1999/02/22-rdf-syntax-ns#" xmlns:svg="http://www.w3.org/2000/svg" xmlns="http://www.w3.org/2000/svg" xmlns:xlink="http://www.w3.org/1999/xlink" xmlns:sodipodi="http://sodipodi.sourceforge.net/DTD/sodipodi-0.dtd" xmlns:inkscape="http://www.inkscape.org/namespaces/inkscape" sodipodi:docname="preferences-desktop-online-accounts.svg" inkscape:version="0.91 r13725" version="1.1" viewBox="0 0 192 192" height="1em" width="1em">
  <sodipodi:namedview inkscape:bbox-paths="true" inkscape:bbox-nodes="true" inkscape:snap-bbox="true" inkscape:object-nodes="true" inkscape:snap-grids="true" inkscape:snap-center="true" inkscape:guide-bbox="true" showguides="true" inkscape:window-maximized="1" inkscape:window-y="27" inkscape:window-x="0" inkscape:window-height="1023" inkscape:window-width="1920" borderlayer="true" inkscape:showpageshadow="false" units="px" showgrid="true" inkscape:current-layer="layer1" inkscape:document-units="px" inkscape:cy="86.044617" inkscape:cx="52.052921" inkscape:zoom="3.959798" inkscape:pageshadow="2" inkscape:pageopacity="0.0" borderopacity="1.0" bordercolor="#666666" pagecolor="#ffffff">
    <inkscape:grid empspacing="4" type="xygrid"/>
    <sodipodi:guide orientation="1,0" position="96,96"/>
    <sodipodi:guide orientation="0,1" position="96,96"/>
    <sodipodi:guide orientation="1,0" position="68,96"/>
    <sodipodi:guide orientation="1,0" position="124,96"/>
    <sodipodi:guide orientation="0,1" position="96,124"/>
    <sodipodi:guide orientation="0,1" position="96,68"/>
  </sodipodi:namedview>
  <defs>
    <linearGradient inkscape:collect="always" id="b">
      <stop style="stop-color:#263238;stop-opacity:0.2" offset="0"/>
      <stop style="stop-color:#263238;stop-opacity:0" offset="1"/>
    </linearGradient>
    <linearGradient inkscape:collect="always" id="a">
      <stop style="stop-color:#ffffff;stop-opacity:0.1" offset="0"/>
      <stop style="stop-color:#ffffff;stop-opacity:0" offset="1"/>
    </linearGradient>
    <radialGradient inkscape:collect="always" xlink:href="#a" id="f" cx="20" cy="880.36218" fx="20" fy="880.36218" r="76" gradientUnits="userSpaceOnUse" gradientTransform="matrix(2.0000002,2.0000002,-2.0000002,2.0000002,1740.7245,-920.36237)"/>
    <linearGradient inkscape:collect="always" xlink:href="#b" id="d" x1="43.99995" y1="53.999962" x2="172" y2="182" gradientUnits="userSpaceOnUse"/>
    <filter style="color-interpolation-filters:sRGB" inkscape:label="Drop Shadow" id="e" x="-0.5" y="-0.5" width="2" height="2">
      <feFlood flood-opacity="0.2" flood-color="rgb(38,50,56)" result="flood"/>
      <feComposite in="flood" in2="SourceGraphic" operator="in" result="composite1"/>
      <feGaussianBlur in="composite1" stdDeviation="4" result="blur"/>
      <feOffset dx="4" dy="4" result="offset"/>
      <feComposite in="SourceGraphic" in2="offset" operator="over" result="composite2"/>
    </filter>
    <filter style="color-interpolation-filters:sRGB" inkscape:label="Drop Shadow" id="c">
      <feFlood flood-opacity="0.12" flood-color="rgb(0,0,0)" result="flood"/>
      <feComposite in="flood" in2="SourceGraphic" operator="in" result="composite1"/>
      <feGaussianBlur in="composite1" stdDeviation="2" result="blur"/>
      <feOffset dx="0" dy="0" result="offset"/>
      <feComposite in="SourceGraphic" in2="offset" operator="over" result="fbSourceGraphic"/>
      <feColorMatrix result="fbSourceGraphicAlpha" in="fbSourceGraphic" values="0 0 0 -1 0 0 0 0 -1 0 0 0 0 -1 0 0 0 0 1 0"/>
      <feFlood flood-opacity="0.23999999999999999" flood-color="rgb(0,0,0)" result="flood" in="fbSourceGraphic"/>
      <feComposite in2="fbSourceGraphic" in="flood" operator="in" result="composite1"/>
      <feGaussianBlur in="composite1" stdDeviation="2" result="blur"/>
      <feOffset dx="0" dy="4" result="offset"/>
      <feComposite in2="offset" in="fbSourceGraphic" operator="over" result="composite2"/>
    </filter>
  </defs>
  <g transform="translate(0,-860.36216)" inkscape:groupmode="layer" inkscape:label="Main">
    <rect ry="12" rx="12" y="880.36218" x="20" height="152" width="152" style="color:#000000;clip-rule:nonzero;display:inline;overflow:visible;visibility:visible;opacity:1;isolation:auto;mix-blend-mode:normal;color-interpolation:sRGB;color-interpolation-filters:linearRGB;solid-color:#000000;solid-opacity:1;fill:#03a9f4;fill-opacity:1;fill-rule:evenodd;stroke:none;stroke-width:1;stroke-linecap:butt;stroke-linejoin:round;stroke-miterlimit:4;stroke-dasharray:none;stroke-dashoffset:0;stroke-opacity:1;color-rendering:auto;image-rendering:auto;shape-rendering:auto;text-rendering:auto;enable-background:accumulate;filter:url(#c)"/>
    <path style="opacity:1;fill:url(#d);fill-opacity:1" d="M 96 61.333984 C 83.47667 61.333984 72.600264 68.439844 67.183594 78.839844 C 54.140552 80.226794 44 91.276212 44 104.66602 C 44 112.08361 47.122871 118.77762 52.117188 123.51758 L 100.59961 172 L 160 172 C 166.648 172 172 166.648 172 160 L 172 124.00195 L 119.43359 71.337891 C 113.52623 65.169753 105.2165 61.333984 96 61.333984 z" transform="translate(0,860.36216)"/>
    <path inkscape:connector-curvature="0" d="m 32,880.36216 c -6.648,0 -12,5.352 -12,12 l 0,1 c 0,-6.648 5.352,-12 12,-12 l 128,0 c 6.648,0 12,5.352 12,12 l 0,-1 c 0,-6.648 -5.352,-12 -12,-12 l -128,0 z" style="color:#000000;clip-rule:nonzero;display:inline;overflow:visible;visibility:visible;opacity:0.2;isolation:auto;mix-blend-mode:normal;color-interpolation:sRGB;color-interpolation-filters:linearRGB;solid-color:#000000;solid-opacity:1;fill:#ffffff;fill-opacity:1;fill-rule:evenodd;stroke:none;stroke-width:1;stroke-linecap:butt;stroke-linejoin:round;stroke-miterlimit:4;stroke-dasharray:none;stroke-dashoffset:0;stroke-opacity:1;color-rendering:auto;image-rendering:auto;shape-rendering:auto;text-rendering:auto;enable-background:accumulate"/>
    <path d="m 20,1019.3622 0,1 c 0,6.648 5.352,12 12,12 l 128,0 c 6.648,0 12,-5.352 12,-12 l 0,-1 c 0,6.648 -5.352,12 -12,12 l -128,0 c -6.648,0 -12,-5.352 -12,-12 z" style="color:#000000;clip-rule:nonzero;display:inline;overflow:visible;visibility:visible;opacity:0.1;isolation:auto;mix-blend-mode:normal;color-interpolation:sRGB;color-interpolation-filters:linearRGB;solid-color:#000000;solid-opacity:1;fill:#263238;fill-opacity:1;fill-rule:evenodd;stroke:none;stroke-width:1;stroke-linecap:butt;stroke-linejoin:round;stroke-miterlimit:4;stroke-dasharray:none;stroke-dashoffset:0;stroke-opacity:1;color-rendering:auto;image-rendering:auto;shape-rendering:auto;text-rendering:auto;enable-background:accumulate" inkscape:connector-curvature="0"/>
    <path d="m 127.85,947.86883 c -2.94667,-14.95 -16.07667,-26.17333 -31.85,-26.17333 -12.52333,0 -23.4,7.10666 -28.81667,17.50666 C 54.14,940.58883 44,951.63883 44,965.02883 c 0,14.34333 11.65667,26 26,26 l 56.33333,0 c 11.96,0 21.66667,-9.70667 21.66667,-21.66667 0,-11.44 -8.88333,-20.71333 -20.15,-21.49333 z" inkscape:connector-curvature="0" style="fill:#fafafa;filter:url(#e)"/>
    <path inkscape:connector-curvature="0" d="m 96,921.69595 c -12.52333,0 -23.399736,7.10586 -28.816406,17.50586 C 54.140264,940.58848 44,951.63994 44,965.02994 c 0,0.16251 0.0087,0.32256 0.01172,0.48437 0.256298,-13.15716 10.296304,-23.94366 23.171875,-25.3125 5.41667,-10.4 16.293076,-17.50586 28.816406,-17.50586 15.77333,0 28.90294,11.22188 31.84961,26.17188 11.09901,0.76839 19.87964,9.78147 20.13867,20.98633 0.004,-0.16407 0.0117,-0.32725 0.0117,-0.49219 0,-11.44 -8.88372,-20.71219 -20.15039,-21.49219 C 124.90294,932.91978 111.77333,921.69595 96,921.69595 Z" style="fill:#ffffff"/>
    <path transform="translate(0,860.36216)" d="M 44.011719 105.15234 C 44.008364 105.32415 44 105.49537 44 105.66797 C 44 120.0113 55.65667 131.66797 70 131.66797 L 126.33398 131.66797 C 138.29398 131.66797 148 121.96 148 110 C 148 109.82976 147.99219 109.66144 147.98828 109.49219 C 147.72564 121.22455 138.12904 130.66602 126.33398 130.66602 L 70 130.66602 C 55.8196 130.66602 44.272389 119.27126 44.011719 105.15234 z" style="fill:#263238;opacity:0.2"/>
  </g>
  <g sodipodi:insensitive="true" inkscape:label="Finish" inkscape:groupmode="layer">
    <rect transform="translate(0,-860.36216)" ry="12" rx="12" y="880.36218" x="20" height="152" width="152" style="color:#000000;clip-rule:nonzero;display:inline;overflow:visible;visibility:visible;opacity:1;isolation:auto;mix-blend-mode:normal;color-interpolation:sRGB;color-interpolation-filters:linearRGB;solid-color:#000000;solid-opacity:1;fill:url(#f);fill-opacity:1;fill-rule:evenodd;stroke:none;stroke-width:1;stroke-linecap:butt;stroke-linejoin:round;stroke-miterlimit:4;stroke-dasharray:none;stroke-dashoffset:0;stroke-opacity:1;color-rendering:auto;image-rendering:auto;shape-rendering:auto;text-rendering:auto;enable-background:accumulate"/>
  </g>
</svg>
