<svg xmlns:dc="http://purl.org/dc/elements/1.1/" xmlns:cc="http://creativecommons.org/ns#" xmlns:rdf="http://www.w3.org/1999/02/22-rdf-syntax-ns#" xmlns:svg="http://www.w3.org/2000/svg" xmlns="http://www.w3.org/2000/svg" xmlns:xlink="http://www.w3.org/1999/xlink" xmlns:sodipodi="http://sodipodi.sourceforge.net/DTD/sodipodi-0.dtd" xmlns:inkscape="http://www.inkscape.org/namespaces/inkscape" viewBox="0 0 192 192" version="1.1" inkscape:version="0.91 r13725" sodipodi:docname="distributor-logo-opensuse.svg" inkscape:export-filename="/home/alex/Pictures/exports/Oko icon pack/distributor-logo-opensuse.png" inkscape:export-xdpi="480" inkscape:export-ydpi="480" height="1em" width="1em">
  <sodipodi:namedview pagecolor="#ffffff" bordercolor="#666666" borderopacity="1.0" inkscape:pageopacity="0.0" inkscape:pageshadow="2" inkscape:zoom="2.8" inkscape:cx="136.99795" inkscape:cy="70.428812" inkscape:document-units="px" inkscape:current-layer="layer1" showgrid="true" units="px" inkscape:showpageshadow="false" borderlayer="true" inkscape:window-width="1920" inkscape:window-height="1023" inkscape:window-x="0" inkscape:window-y="27" inkscape:window-maximized="1" inkscape:snap-center="true" inkscape:snap-grids="true" inkscape:object-nodes="true" inkscape:snap-bbox="true" inkscape:bbox-nodes="true">
    <inkscape:grid empspacing="4" type="xygrid"/>
  </sodipodi:namedview>
  <defs>
    <linearGradient inkscape:collect="always" id="b">
      <stop style="stop-color:#ffffff;stop-opacity:0.1" offset="0"/>
      <stop style="stop-color:#ffffff;stop-opacity:0" offset="1"/>
    </linearGradient>
    <linearGradient inkscape:collect="always" id="a">
      <stop style="stop-color:#263238;stop-opacity:0.2" offset="0"/>
      <stop style="stop-color:#263238;stop-opacity:0" offset="1"/>
    </linearGradient>
    <linearGradient inkscape:collect="always" xlink:href="#a" id="d" x1="44.000156" y1="57.000027" x2="172" y2="185" gradientUnits="userSpaceOnUse"/>
    <filter style="color-interpolation-filters:sRGB" inkscape:label="Drop Shadow" id="e" y="-0.5" height="2">
      <feFlood flood-opacity="0.2" flood-color="rgb(38,50,56)" result="flood"/>
      <feComposite in="flood" in2="SourceGraphic" operator="in" result="composite1"/>
      <feGaussianBlur in="composite1" stdDeviation="4" result="blur"/>
      <feOffset dx="4" dy="4" result="offset"/>
      <feComposite in="SourceGraphic" in2="offset" operator="over" result="composite2"/>
    </filter>
    <radialGradient inkscape:collect="always" xlink:href="#b" id="f" cx="20" cy="880.36218" fx="20" fy="880.36218" r="76" gradientUnits="userSpaceOnUse" gradientTransform="matrix(2.0000001,2.0000001,-1.9999998,1.9999998,1740.7242,-920.36203)"/>
    <filter style="color-interpolation-filters:sRGB" inkscape:label="Drop Shadow" id="c">
      <feFlood flood-opacity="0.12" flood-color="rgb(0,0,0)" result="flood"/>
      <feComposite in="flood" in2="SourceGraphic" operator="in" result="composite1"/>
      <feGaussianBlur in="composite1" stdDeviation="2" result="blur"/>
      <feOffset dx="0" dy="0" result="offset"/>
      <feComposite in="SourceGraphic" in2="offset" operator="over" result="fbSourceGraphic"/>
      <feColorMatrix result="fbSourceGraphicAlpha" in="fbSourceGraphic" values="0 0 0 -1 0 0 0 0 -1 0 0 0 0 -1 0 0 0 0 1 0"/>
      <feFlood flood-opacity="0.23999999999999999" flood-color="rgb(0,0,0)" result="flood" in="fbSourceGraphic"/>
      <feComposite in2="fbSourceGraphic" in="flood" operator="in" result="composite1"/>
      <feGaussianBlur in="composite1" stdDeviation="2" result="blur"/>
      <feOffset dx="0" dy="4" result="offset"/>
      <feComposite in2="offset" in="fbSourceGraphic" operator="over" result="composite2"/>
    </filter>
  </defs>
  <g transform="translate(0,-860.36216)" inkscape:groupmode="layer" inkscape:label="Main">
    <rect ry="12" rx="12" y="880.36218" x="20" height="152" width="152" style="color:#000000;clip-rule:nonzero;display:inline;overflow:visible;visibility:visible;opacity:1;isolation:auto;mix-blend-mode:normal;color-interpolation:sRGB;color-interpolation-filters:linearRGB;solid-color:#000000;solid-opacity:1;fill:#8bc34a;fill-opacity:1;fill-rule:evenodd;stroke:none;stroke-width:24;stroke-linecap:round;stroke-linejoin:round;stroke-miterlimit:4;stroke-dasharray:none;stroke-dashoffset:0;stroke-opacity:1;color-rendering:auto;image-rendering:auto;shape-rendering:auto;text-rendering:auto;enable-background:accumulate;filter:url(#c)"/>
    <path style="opacity:1;fill:url(#d);fill-opacity:1;fill-rule:evenodd" d="M 95.123047 69.722656 C 86.941721 69.581777 76.203839 70.380298 61.775391 79.248047 L 61.289062 79.552734 C 53.534008 84.391484 48.181047 90.353754 45.380859 97.289062 C 44.503059 99.469013 43.320536 104.39153 44.488281 109.02344 C 44.99609 111.05127 45.935298 113.08332 47.205078 114.9043 C 47.857 115.84123 48.614151 116.70132 49.449219 117.48438 L 103.96484 172 L 160 172 C 166.648 172 172 166.648 172 160 L 172 106.16992 L 142.25391 76.464844 C 136.1564 72.910244 121.67995 70.763786 121.00195 70.666016 L 120.88672 70.697266 L 120.8418 70.798828 C 120.8418 70.798828 120.78865 73.802799 120.78125 74.136719 C 119.30122 73.643279 108.55366 70.172012 98.476562 69.820312 C 97.40884 69.782683 96.291808 69.742786 95.123047 69.722656 z" transform="translate(0,860.36216)"/>
    <path style="fill:#fafafa;fill-opacity:1;fill-rule:evenodd;filter:url(#e)" d="m 87.083421,972.98783 0.15611,-0.0147 0.02532,-0.18485 c -0.03998,-0.14514 -0.134122,-0.27557 -0.279557,-2.07486 -0.123448,-1.59245 -0.373687,-5.95946 1.824341,-8.12504 0.852693,-0.84515 2.154625,-1.59609 3.18149,-1.839 4.211184,-1.02658 9.677485,-0.31563 14.345705,5.08195 2.40878,2.78922 3.59124,4.0624 4.18244,4.63191 l 0.20292,0.18854 0.24683,0.17781 c 0.19218,0.10879 8.0233,3.71434 8.0233,3.71434 l 0.15952,-0.04 0.004,-0.17019 c -0.0507,-0.058 -4.9619,-6.40245 -4.09166,-11.6292 0.68925,-4.1641 4.00435,-3.79047 8.58582,-3.26829 1.49802,0.17048 3.2029,0.36636 4.96583,0.40635 4.92185,0.029 10.2253,-0.8741 13.49359,-2.3034 2.11463,-0.92484 3.46388,-1.53439 4.30924,-2.30341 0.30432,-0.25024 0.46384,-0.66362 0.62727,-1.09901 l 0.11272,-0.29364 c 0.13752,-0.35198 0.33704,-1.10634 0.42441,-1.51632 0.04,-0.18122 0.0581,-0.37732 -0.0693,-0.47509 l -0.45316,0.0834 c -1.43264,0.85973 -5.02048,2.49927 -8.37897,2.56461 -4.16047,0.0868 -12.54672,-4.18609 -13.42088,-4.63953 l -0.0834,-0.0978 c -0.21076,-0.50076 -1.46929,-3.47876 -1.73418,-4.10603 6.0361,3.97531 11.04134,6.17363 14.8755,6.51458 4.26584,0.38073 7.59219,-1.94778 9.0141,-2.94198 0.27898,-0.18854 0.48974,-0.34096 0.57654,-0.3734 l 0.0907,-0.14878 c -0.23615,-1.49803 -2.46684,-8.7526 -4.14971,-10.49383 -0.46777,-0.47878 -0.84145,-0.9429 -1.59609,-1.38561 -6.09751,-3.5546 -20.574,-5.70218 -21.252,-5.79995 l -0.11611,0.0326 -0.0434,0.10146 c 0,0 -0.0546,3.00339 -0.062,3.33731 -1.48003,-0.49344 -12.22716,-3.96487 -22.304262,-4.31657 -8.541778,-0.30102 -20.210976,-0.70737 -36.700631,9.4272 l -0.486109,0.30461 c -7.755056,4.83875 -13.108943,10.80214 -15.909131,17.73745 -0.8778,2.17995 -2.060204,7.10239 -0.892459,11.7343 0.507809,2.02783 1.447303,4.059 2.717083,5.87998 2.86194,4.11314 7.667969,6.84488 12.844045,7.30531 7.305302,0.65266 12.840639,-2.62971 14.81012,-8.77459 1.352883,-4.24022 0,-10.46088 -5.187045,-13.63476 -4.21852,-2.58631 -8.759934,-1.9951 -11.3897,-0.25756 -2.285108,1.51609 -3.579932,3.86653 -3.554599,6.45289 0.05073,4.58118 4.000947,7.01871 6.837548,7.0224 0.826781,0 1.653852,-0.14145 2.589711,-0.44606 0.330287,-0.10174 0.645626,-0.22484 0.990226,-0.43901 l 0.105381,-0.0687 0.06873,-0.04 -0.02532,0.011 c 0.64926,-0.43538 1.040951,-1.15338 1.040951,-1.92245 0,-0.21047 -0.03265,-0.42441 -0.09072,-0.63852 -0.333636,-1.15707 -1.480026,-1.8607 -2.669758,-1.64318 l -0.159518,0.0326 -0.217576,0.0724 -0.315624,0.10538 c -0.652898,0.16315 -1.146337,0.17418 -1.247791,0.17752 -0.333636,-0.0217 -1.969773,-0.51115 -1.969773,-2.30311 l 0,-0.0217 c 0.004,-0.65659 0.268536,-1.11731 0.413679,-1.36755 0.504118,-0.79804 1.897056,-1.58143 3.779448,-1.41464 2.466841,0.21025 4.24414,1.47634 5.422911,3.86313 1.095607,2.21972 0.809066,4.94754 -0.736344,6.94969 -1.534396,1.98442 -4.265558,2.82586 -7.900205,2.43019 -3.663618,-0.40243 -6.761138,-2.50996 -8.495036,-5.79261 -1.697542,-3.2066 -1.791959,-7.01167 -0.24291,-9.93501 3.710712,-7.0007 10.714756,-6.92827 14.556242,-6.26435 5.687522,0.98289 10.84917,5.53504 13.145246,11.58921 0.366353,0.96488 0.554843,1.7302 0.717994,2.42656 l 0.246832,1.04828 6.423584,3.13751 0.08737,0.0617 1.74e-4,-5e-5 z m 45.660139,-34.16898 c -1.21115,1.12434 -1.90438,2.65874 -1.96244,4.31288 -0.11213,3.40946 2.5649,6.28236 5.97412,6.4095 1.66148,0.0544 3.23556,-0.5298 4.44336,-1.66147 1.2078,-1.12805 1.90099,-2.65874 1.96244,-4.30925 0.11612,-3.41314 -2.56096,-6.28968 -5.97746,-6.41285 -1.65414,-0.0543 -3.23222,0.52952 -4.44002,1.66119 m 4.24481,8.86875 c -2.4257,-0.0891 -4.32978,-2.13389 -4.24877,-4.56306 0.0374,-1.17607 0.54009,-2.26314 1.39442,-3.06574 0.85778,-0.80238 1.97814,-1.22003 3.15423,-1.17579 2.42916,0.085 4.33377,2.12642 4.25217,4.55929 -0.0368,1.17237 -0.53262,2.25938 -1.39041,3.06545 -0.86178,0.7989 -1.98215,1.21662 -3.1617,1.17985 l 6e-5,0 z m 1.02094,-3.9902 c 1.07958,0 1.95573,-0.58403 1.95573,-1.30133 0,-0.72106 -0.8762,-1.3054 -1.95573,-1.3054 -1.08013,0 -1.95286,0.58434 -1.95286,1.3054 0,0.7173 0.87273,1.30133 1.95286,1.30133" inkscape:connector-curvature="0"/>
    <path inkscape:connector-curvature="0" d="m 32,880.36216 c -6.648,0 -12,5.352 -12,12 l 0,1 c 0,-6.648 5.352,-12 12,-12 l 128,0 c 6.648,0 12,5.352 12,12 l 0,-1 c 0,-6.648 -5.352,-12 -12,-12 l -128,0 z" style="color:#000000;clip-rule:nonzero;display:inline;overflow:visible;visibility:visible;opacity:0.2;isolation:auto;mix-blend-mode:normal;color-interpolation:sRGB;color-interpolation-filters:linearRGB;solid-color:#000000;solid-opacity:1;fill:#ffffff;fill-opacity:1;fill-rule:evenodd;stroke:none;stroke-width:24;stroke-linecap:round;stroke-linejoin:round;stroke-miterlimit:4;stroke-dasharray:none;stroke-dashoffset:0;stroke-opacity:1;color-rendering:auto;image-rendering:auto;shape-rendering:auto;text-rendering:auto;enable-background:accumulate"/>
    <path d="m 20,1019.3622 0,1 c 0,6.648 5.352,12 12,12 l 128,0 c 6.648,0 12,-5.352 12,-12 l 0,-1 c 0,6.648 -5.352,12 -12,12 l -128,0 c -6.648,0 -12,-5.352 -12,-12 z" style="color:#000000;clip-rule:nonzero;display:inline;overflow:visible;visibility:visible;opacity:0.2;isolation:auto;mix-blend-mode:normal;color-interpolation:sRGB;color-interpolation-filters:linearRGB;solid-color:#000000;solid-opacity:1;fill:#263238;fill-opacity:1;fill-rule:evenodd;stroke:none;stroke-width:24;stroke-linecap:round;stroke-linejoin:round;stroke-miterlimit:4;stroke-dasharray:none;stroke-dashoffset:0;stroke-opacity:1;color-rendering:auto;image-rendering:auto;shape-rendering:auto;text-rendering:auto;enable-background:accumulate" inkscape:connector-curvature="0"/>
    <path inkscape:connector-curvature="0" d="m 95.123047,930.08496 c -8.181326,-0.14088 -18.919208,0.65764 -33.347656,9.52539 l -0.486329,0.30469 c -7.755055,4.83876 -13.108015,10.80102 -15.908203,17.73633 -0.664029,1.64907 -1.497892,4.86888 -1.361328,8.34375 0.03826,-3.08022 0.761954,-5.85525 1.361328,-7.34375 2.800188,-6.93531 8.153148,-12.89757 15.908203,-17.73633 l 0.486329,-0.30469 c 16.489655,-10.13457 28.159394,-9.72875 36.701171,-9.42773 10.077098,0.3517 20.824658,3.82296 22.304688,4.3164 0.007,-0.33392 0.0606,-3.33789 0.0606,-3.33789 l 0.0449,-0.10156 0.11523,-0.0312 c 0.678,0.0978 15.15445,2.24423 21.25196,5.79883 0.75464,0.44271 1.12793,0.90794 1.5957,1.38672 1.47612,1.52731 3.37321,7.2918 3.97656,9.69726 0.0177,-0.01 0.0713,-0.05 0.084,-0.0547 L 148,948.70801 c -0.23615,-1.49803 -2.46752,-8.75291 -4.15039,-10.49414 -0.46777,-0.47878 -0.84106,-0.94401 -1.5957,-1.38672 -6.09751,-3.5546 -20.57396,-5.70106 -21.25196,-5.79883 l -0.11523,0.0312 -0.0449,0.10156 c 0,0 -0.0532,3.00397 -0.0606,3.33789 -1.48003,-0.49344 -12.22759,-3.9647 -22.304688,-4.3164 -1.067722,-0.0376 -2.184754,-0.0775 -3.353515,-0.0977 z m 42.166013,8.79883 c -1.17609,-0.0442 -2.29651,0.3734 -3.15429,1.17578 -0.85433,0.80261 -1.35714,1.88838 -1.39454,3.06445 -0.008,0.22705 0.0171,0.44697 0.043,0.66602 0.11425,-1.04487 0.58002,-2.00563 1.35157,-2.73047 0.85778,-0.80238 1.9782,-1.22002 3.15429,-1.17578 2.20409,0.0771 3.9585,1.76899 4.20703,3.89844 0.0125,-0.11381 0.0413,-0.22419 0.0449,-0.33985 0.0816,-2.43287 -1.8228,-4.47359 -4.25196,-4.55859 z m -1.08398,4.01172 c -0.0957,0.15415 -0.14844,0.32264 -0.14844,0.5 0,0.7173 0.873,1.30273 1.95313,1.30273 1.07958,0 1.95507,-0.58543 1.95507,-1.30273 0,-0.17737 -0.0544,-0.34584 -0.15039,-0.5 -0.2943,0.47088 -0.99063,0.80273 -1.80468,0.80273 -0.81448,0 -1.51133,-0.33184 -1.80469,-0.80273 z m 6.93359,0.93945 c -0.12207,1.54886 -0.79655,2.97749 -1.93945,4.04492 -1.2078,1.13167 -2.78188,1.71651 -4.44336,1.66211 -3.16375,-0.11798 -5.69239,-2.60195 -5.95117,-5.68359 -0.007,0.0914 -0.0202,0.18123 -0.0234,0.27344 -0.11213,3.40946 2.56539,6.28301 5.97461,6.41015 1.66148,0.0544 3.23556,-0.53044 4.44336,-1.66211 1.2078,-1.12805 1.89949,-2.65808 1.96094,-4.30859 0.008,-0.24897 -0.001,-0.49393 -0.0215,-0.73633 z m -19.69531,2.82227 c 0.26489,0.62727 1.52361,3.60471 1.73437,4.10547 l 0.084,0.0977 c 0.87416,0.45344 9.25945,4.72547 13.41992,4.63867 3.35849,-0.0653 6.94627,-1.70472 8.37891,-2.56445 l 0.39062,-0.0703 c 0.0496,-0.19248 0.10271,-0.39585 0.13281,-0.53711 0.04,-0.18122 0.0571,-0.37684 -0.0703,-0.47461 l -0.45312,0.084 c -1.43264,0.85973 -5.02042,2.49912 -8.37891,2.56446 -4.16047,0.0868 -12.54576,-4.18719 -13.41992,-4.64063 l -0.084,-0.0977 c -0.14056,-0.33398 -0.68917,-1.63278 -1.15625,-2.73829 -0.19476,-0.12593 -0.38116,-0.23746 -0.57812,-0.36718 z m -60.062501,11.7539 c -1.991389,0.0417 -3.782773,0.62537 -5.097656,1.49414 -2.285108,1.5161 -3.58002,3.86677 -3.554687,6.45313 0.0017,0.15662 0.01865,0.30349 0.0293,0.45508 0.148898,-2.36904 1.402347,-4.49963 3.525391,-5.90821 2.629766,-1.73754 7.170152,-2.33045 11.388672,0.25586 3.782459,2.31444 5.519744,6.24819 5.662109,9.85352 0.167487,-3.85642 -1.526085,-8.32078 -5.662109,-10.85156 -2.10926,-1.29316 -4.299626,-1.79366 -6.291016,-1.75196 z m 51.603521,6.10743 c -0.21621,3.77216 2.16513,7.87692 3.41992,9.75391 0.0779,0.0359 0.58789,0.27148 0.58789,0.27148 l 0.16015,-0.0391 0.004,-0.16992 c -0.0449,-0.0514 -3.90072,-5.04298 -4.17187,-9.81641 z m -64.148442,1.62891 c -0.079,1.93847 0.347099,3.95373 1.3125,5.77734 1.733898,3.28265 4.832475,5.38859 8.496093,5.79102 3.634647,0.39567 6.365995,-0.44527 7.900391,-2.42969 1.023347,-1.3258 1.47973,-2.96832 1.363281,-4.57227 -0.09994,1.27181 -0.552444,2.52179 -1.363281,3.57227 -1.534396,1.98442 -4.265744,2.82731 -7.900391,2.43164 -3.663618,-0.40243 -6.762195,-2.51032 -8.496093,-5.79297 -0.799967,-1.51111 -1.228789,-3.15533 -1.3125,-4.77734 z m 8.884765,0.61523 c -0.03245,0.1503 -0.05554,0.31213 -0.05664,0.49219 l 0,0.0234 c 0,1.79196 1.637068,2.28103 1.970704,2.30273 0.101454,-0.003 0.595148,-0.0146 1.248046,-0.17773 l 0.314454,-0.10547 0.21875,-0.0723 0.158203,-0.0332 c 1.189732,-0.21752 2.336286,0.48551 2.669922,1.64258 0.01526,0.0563 0.01182,0.11177 0.02344,0.16796 0.04132,-0.17168 0.06836,-0.34706 0.06836,-0.52734 0,-0.21047 -0.03373,-0.42456 -0.0918,-0.63867 -0.333636,-1.15707 -1.48019,-1.86205 -2.669922,-1.64453 l -0.158203,0.0332 -0.21875,0.0723 -0.314454,0.10547 c -0.652898,0.16315 -1.146592,0.17439 -1.248046,0.17773 -0.300597,-0.0195 -1.648072,-0.4289 -1.914063,-1.81836 z m 27.201172,2.61719 c -0.02531,0.95835 0.02151,1.80524 0.0625,2.33398 0.05567,0.68873 0.09624,0.97542 0.136719,1.26953 l 0.11914,-0.01 0.02539,-0.18555 c -0.03998,-0.14514 -0.135815,-0.27493 -0.28125,-2.07422 -0.02515,-0.32448 -0.0486,-0.8212 -0.0625,-1.33398 z" style="fill:#ffffff;fill-opacity:1;fill-rule:evenodd"/>
    <path transform="translate(0,860.36216)" d="M 137.18359 76.794922 C 135.52945 76.740622 133.95194 77.325361 132.74414 78.457031 C 131.53299 79.581371 130.83931 81.115391 130.78125 82.769531 C 130.77318 83.01502 130.78461 83.256993 130.80469 83.496094 C 130.92604 81.947622 131.60051 80.518694 132.74414 79.457031 C 133.95194 78.325361 135.52945 77.740622 137.18359 77.794922 C 140.35076 77.909103 142.87853 80.392147 143.13867 83.472656 C 143.14564 83.384423 143.15684 83.297958 143.16016 83.208984 C 143.27628 79.795844 140.60009 76.918092 137.18359 76.794922 z M 138.00977 80.728516 C 136.92964 80.728516 136.05664 81.312143 136.05664 82.033203 C 136.05664 82.21021 136.10879 82.379201 136.20508 82.533203 C 136.49846 82.060639 137.19532 81.728516 138.00977 81.728516 C 138.82375 81.728516 139.52012 82.06065 139.81445 82.533203 C 139.91105 82.379197 139.96484 82.210215 139.96484 82.033203 C 139.96484 81.312143 139.0893 80.728516 138.00977 80.728516 z M 141.49609 83.419922 C 141.382 84.459449 140.92337 85.420109 140.15039 86.146484 C 139.28861 86.945384 138.16783 87.362942 136.98828 87.326172 C 134.78931 87.2454 133.03458 85.552272 132.7832 83.427734 C 132.77094 83.53985 132.74386 83.647754 132.74023 83.761719 C 132.65922 86.190889 134.56258 88.237072 136.98828 88.326172 C 138.16783 88.362942 139.28861 87.945384 140.15039 87.146484 C 141.00818 86.340414 141.50422 85.252448 141.54102 84.080078 C 141.54858 83.854663 141.52147 83.637371 141.49609 83.419922 z M 123.44336 85.294922 C 123.53158 85.503843 123.78823 86.110028 124.02148 86.662109 C 129.79539 90.395432 134.60931 92.478769 138.31836 92.808594 C 142.5842 93.189324 145.91012 90.861387 147.33203 89.867188 C 147.61101 89.678648 147.82336 89.526581 147.91016 89.494141 L 148 89.345703 C 147.97099 89.161652 147.91069 88.88577 147.82617 88.548828 C 147.72217 88.604884 147.57037 88.70611 147.33203 88.867188 C 145.91012 89.861387 142.5842 92.189324 138.31836 91.808594 C 134.4842 91.467644 129.47946 89.270232 123.44336 85.294922 z M 147.51367 92.490234 L 147.45117 92.501953 C 147.3568 92.868117 147.24834 93.249761 147.1582 93.480469 L 147.04688 93.775391 C 146.88344 94.210781 146.72229 94.622807 146.41797 94.873047 C 145.57261 95.642067 144.22401 96.252894 142.10938 97.177734 C 138.84109 98.607034 133.53708 99.509469 128.61523 99.480469 C 126.8523 99.440479 125.14841 99.244699 123.65039 99.074219 C 119.06892 98.552039 115.7537 98.177697 115.06445 102.3418 C 114.9656 102.93552 114.94963 103.54454 114.98438 104.15625 C 115.00002 103.88321 115.01981 103.60995 115.06445 103.3418 C 115.7537 99.177697 119.06892 99.552039 123.65039 100.07422 C 125.14841 100.2447 126.8523 100.44048 128.61523 100.48047 C 133.53708 100.50947 138.84109 99.607034 142.10938 98.177734 C 144.22401 97.252894 145.57261 96.642067 146.41797 95.873047 C 146.72229 95.622807 146.88344 95.210781 147.04688 94.775391 L 147.1582 94.480469 C 147.29572 94.128489 147.49661 93.374824 147.58398 92.964844 C 147.62398 92.783624 147.64107 92.588004 147.51367 92.490234 z M 63.089844 94.076172 C 59.32539 94.103868 54.689284 95.376428 51.90625 100.62695 C 51.087191 102.17267 50.742012 103.96523 50.835938 105.78516 C 50.895851 104.31506 51.238152 102.88778 51.90625 101.62695 C 55.616962 94.626253 62.621405 94.699361 66.462891 95.363281 C 72.150413 96.346171 77.311346 100.897 79.607422 106.95117 C 79.973775 107.91605 80.163021 108.68255 80.326172 109.37891 L 80.572266 110.42578 L 86.996094 113.56445 L 87.083984 113.625 L 87.240234 113.61133 L 87.265625 113.42578 C 87.240948 113.3362 87.186363 113.09535 87.121094 112.62109 L 87.083984 112.625 L 86.996094 112.56445 L 80.572266 109.42578 L 80.326172 108.37891 C 80.163021 107.68255 79.973775 106.91605 79.607422 105.95117 C 77.311346 99.897002 72.150413 95.346171 66.462891 94.363281 C 65.502519 94.197301 64.344662 94.06694 63.089844 94.076172 z M 95.353516 99.988281 C 94.175911 99.981655 93.04303 100.13007 91.990234 100.38672 C 90.963369 100.62963 89.66324 101.38141 88.810547 102.22656 C 87.060393 103.95088 86.867568 107.0138 86.921875 109.01758 C 86.972801 107.08958 87.342331 104.6731 88.810547 103.22656 C 89.66324 102.38141 90.963369 101.62963 91.990234 101.38672 C 96.201418 100.36014 101.66772 101.07117 106.33594 106.46875 C 108.74472 109.25797 109.92833 110.53205 110.51953 111.10156 L 110.72266 111.28906 L 110.96875 111.4668 C 111.16093 111.57559 118.99219 115.18164 118.99219 115.18164 L 119.15234 115.14258 L 119.15625 114.97266 C 119.14409 114.95874 118.82903 114.54551 118.4043 113.91016 C 117.41814 113.45601 111.14686 110.56762 110.96875 110.4668 L 110.72266 110.28906 L 110.51953 110.10156 C 109.92833 109.53205 108.74472 108.25797 106.33594 105.46875 C 102.83477 101.42056 98.886329 100.00816 95.353516 99.988281 z M 63.175781 103.0918 C 61.641216 103.14092 60.519228 103.82711 60.078125 104.52539 C 59.932982 104.77563 59.668062 105.23599 59.664062 105.89258 L 59.664062 105.91602 C 59.664062 106.09347 59.691468 106.24767 59.720703 106.40039 C 59.806579 106.00263 59.972786 105.70701 60.078125 105.52539 C 60.582243 104.72735 61.97503 103.94454 63.857422 104.11133 C 66.324263 104.32158 68.102479 105.58782 69.28125 107.97461 C 69.651362 108.72446 69.848797 109.5333 69.908203 110.35156 C 69.998743 109.19938 69.80202 108.0297 69.28125 106.97461 C 68.102479 104.58782 66.324263 103.32158 63.857422 103.11133 C 63.622123 103.09048 63.395005 103.08478 63.175781 103.0918 z M 44.019531 105.63281 C 44.001757 107.06366 44.117889 108.55426 44.488281 110.02344 C 44.99609 112.05127 45.935298 114.08332 47.205078 115.9043 C 50.067018 120.01744 54.872752 122.74855 60.048828 123.20898 C 67.35413 123.86164 72.889894 120.58043 74.859375 114.43555 C 75.225719 113.28735 75.386851 111.99116 75.333984 110.65234 C 75.291424 111.63231 75.133502 112.57442 74.859375 113.43359 C 72.889894 119.57847 67.35413 122.86164 60.048828 122.20898 C 54.872752 121.74855 50.067018 119.01744 47.205078 114.9043 C 45.935298 113.08332 44.99609 111.05127 44.488281 109.02344 C 44.203901 107.89543 44.063495 106.75147 44.019531 105.63281 z M 54.757812 106.45117 C 54.746409 106.63229 54.726716 106.81238 54.728516 106.99609 C 54.779246 111.57727 58.729805 114.01389 61.566406 114.01758 C 62.393187 114.01758 63.218438 113.87688 64.154297 113.57227 C 64.484584 113.47053 64.799931 113.34698 65.144531 113.13281 L 65.25 113.06445 L 65.320312 113.02344 L 65.294922 113.03516 C 65.944182 112.59978 66.335938 111.88235 66.335938 111.11328 C 66.335938 110.9575 66.30042 110.79887 66.267578 110.64062 C 66.132613 111.2013 65.791955 111.70186 65.294922 112.03516 L 65.320312 112.02344 L 65.25 112.06445 L 65.144531 112.13281 C 64.799931 112.34698 64.484584 112.46857 64.154297 112.57031 C 63.218438 112.87492 62.393187 113.01758 61.566406 113.01758 C 58.826966 113.01401 55.059109 110.73329 54.757812 106.45117 z" style="fill:#263238;fill-opacity:1;fill-rule:evenodd;opacity:0.2"/>
  </g>
  <g inkscape:groupmode="layer" inkscape:label="Finish" sodipodi:insensitive="true">
    <rect transform="translate(0,-860.36216)" ry="12" rx="12" y="880.36218" x="20" height="152" width="152" style="color:#000000;clip-rule:nonzero;display:inline;overflow:visible;visibility:visible;opacity:1;isolation:auto;mix-blend-mode:normal;color-interpolation:sRGB;color-interpolation-filters:linearRGB;solid-color:#000000;solid-opacity:1;fill:url(#f);fill-opacity:1;fill-rule:evenodd;stroke:none;stroke-width:24;stroke-linecap:round;stroke-linejoin:round;stroke-miterlimit:4;stroke-dasharray:none;stroke-dashoffset:0;stroke-opacity:1;color-rendering:auto;image-rendering:auto;shape-rendering:auto;text-rendering:auto;enable-background:accumulate"/>
  </g>
</svg>
