<svg xmlns="http://www.w3.org/2000/svg" xmlns:xlink="http://www.w3.org/1999/xlink" viewBox="0 0 192 192" height="1em" width="1em">
  <defs>
    <linearGradient id="a">
      <stop style="stop-color:#1a237e;stop-opacity:1" offset="0"/>
      <stop style="stop-color:#1a237e;stop-opacity:0" offset="1"/>
    </linearGradient>
    <linearGradient id="b">
      <stop offset="0" style="stop-color:#f5f5f5;stop-opacity:1"/>
      <stop offset="1" style="stop-color:#f5f5f5;stop-opacity:0"/>
    </linearGradient>
    <linearGradient xlink:href="#a" id="d" x1="32" y1="32" x2="172" y2="172" gradientUnits="userSpaceOnUse"/>
    <filter style="color-interpolation-filters:sRGB" id="c">
      <feFlood flood-opacity=".2" flood-color="#000" result="flood"/>
      <feComposite in="flood" in2="SourceGraphic" operator="in" result="composite1"/>
      <feGaussianBlur in="composite1" stdDeviation="2" result="blur"/>
      <feOffset dy="4" result="offset"/>
      <feComposite in="SourceGraphic" in2="offset" result="fbSourceGraphic"/>
      <feColorMatrix result="fbSourceGraphicAlpha" in="fbSourceGraphic" values="0 0 0 -1 0 0 0 0 -1 0 0 0 0 -1 0 0 0 0 1 0"/>
      <feFlood flood-opacity=".2" flood-color="#000" result="flood"/>
      <feComposite in2="fbSourceGraphic" in="flood" operator="in" result="composite1"/>
      <feGaussianBlur in="composite1" stdDeviation="2" result="blur"/>
      <feOffset result="offset"/>
      <feComposite in2="offset" in="fbSourceGraphic" result="composite2"/>
    </filter>
    <filter style="color-interpolation-filters:sRGB" id="g">
      <feFlood flood-opacity=".2" flood-color="#000" result="flood"/>
      <feComposite in="flood" in2="SourceGraphic" operator="in" result="composite1"/>
      <feGaussianBlur in="composite1" stdDeviation="4" result="blur"/>
      <feOffset dy="4" result="offset"/>
      <feComposite in="SourceGraphic" in2="offset" result="composite2"/>
    </filter>
    <filter style="color-interpolation-filters:sRGB" id="e">
      <feFlood flood-opacity=".2" flood-color="#1A237E" result="flood"/>
      <feComposite in="flood" in2="SourceGraphic" operator="in" result="composite1"/>
      <feGaussianBlur in="composite1" stdDeviation="4" result="blur"/>
      <feOffset dy="4" result="offset"/>
      <feComposite in="SourceGraphic" in2="offset" result="composite2"/>
    </filter>
    <clipPath clipPathUnits="userSpaceOnUse" id="f">
      <path style="fill:#f5f5f5;fill-rule:evenodd;stroke:none;stroke-width:1px;stroke-linecap:butt;stroke-linejoin:miter;stroke-opacity:1" d="M116.996 32.031 32 67.238l35.207 84.998L135.375 124H160V68h-28.105l-14.899-35.969Z"/>
    </clipPath>
    <clipPath clipPathUnits="userSpaceOnUse" id="h">
      <path d="M32 20h128c6 0 12 6 12 12v128c0 6-6 12-12 12H32c-6 0-12-6-12-12V32c0-6 6-12 12-12z" style="fill:#1e88e5;fill-opacity:1;fill-rule:evenodd;stroke:none;stroke-width:1px;stroke-linecap:butt;stroke-linejoin:miter;stroke-opacity:1"/>
    </clipPath>
    <radialGradient gradientUnits="userSpaceOnUse" gradientTransform="matrix(0 2 -2 0 1780.725 840.361)" r="76" fy="880.362" fx="20" cy="880.362" cx="20" id="i" xlink:href="#b"/>
  </defs>
  <g style="filter:url(#c)">
    <path d="M32 20h128c6 0 12 6 12 12v128c0 6-6 12-12 12H32c-6 0-12-6-12-12V32c0-6 6-12 12-12z" style="fill:#1e88e5;fill-opacity:1;fill-rule:evenodd;stroke:none;stroke-width:1px;stroke-linecap:butt;stroke-linejoin:miter;stroke-opacity:1"/>
    <path style="fill:#fff;fill-rule:evenodd;stroke:none;stroke-width:1px;stroke-linecap:butt;stroke-linejoin:miter;stroke-opacity:1" d="M68 68v1h92v-1H68z"/>
    <path d="M117.564 32.6 32.568 67.807l35.207 84.998.286-.118.283.686.283-.117.281.681.283-.117.282.682.28-.117.282.68.281-.116.28.676.281-.115.28.676.279-.116.277.672.28-.115.277.672.277-.115.277.67.278-.116.275.668.275-.113.276.664.275-.113.274.662.275-.113.273.662.274-.114.273.66.272-.113.271.657.272-.114.271.656.272-.113.271.656.27-.11.27.65.269-.112.27.65.267-.11.267.646.268-.112.268.647.267-.111.266.644.265-.11.266.641.266-.109.265.64.264-.109.264.637.263-.11.264.637.264-.11.261.636.262-.11.262.633.262-.107.26.629.261-.108.26.63.26-.108.257.625.26-.108.258.625.258-.107.258.623.257-.106.256.62.256-.106.256.617.256-.105.168.408H160c6 0 12-6 12-12V80.143h-.393v-.536h-.535v-.535h-.539v-.539h-.539v-.539h-.543v-.543h-.543v-.543h-.543v-.543h-.547v-.547h-.548v-.548h-.55v-.55h-.55v-.55h-.553v-.553h-.554v-.555h-.557v-.556h-.557v-.557h-.56v-.56h-.56v-.56h-.563v-.563h-.565V69.7h-.564v-.564h-.569v-.569h-7.136l-.073-.173-.228.093-.227-.549-.228.096-.229-.553-.228.094-.229-.55-.23.095-.23-.557-.233.096-.23-.558-.233.095-.23-.558-.233.095-.232-.56-.233.096-.234-.563-.234.098-.235-.567-.234.098-.235-.566-.236.097-.236-.57-.237.098-.236-.57-.236.097-.239-.572-.238.1-.238-.577-.24.1-.239-.578-.24.1-.24-.58-.24.099-.24-.58-.243.1-.24-.583-.242.1-.242-.584-.244.101-.243-.588-.244.102-.244-.59-.244.102-.246-.592-.244.102-.246-.592-.247.101-.246-.593-.248.101-.246-.596-.248.104-.248-.6-.248.104-.25-.602-.25.104-.25-.604-.25.104-.25-.604-.252.104-.25-.606-.252.104-.252-.608-.254.106-.252-.611-.254.105-.253-.613-.256.105-.254-.615-.256.105-.254-.615-.256.106-.256-.618-.256.106-.257-.62-.258.108-.258-.623-.26.108-.258-.625-.26.107-.26-.625-.259.107-.26-.628-.26.107-.261-.629-.262.11-.262-.633-.263.109-.262-.635-.264.11-.263-.637-.264.11-.264-.637-.265.109-.266-.64-.266.109-.265-.641-.268.111-.265-.644-.268.111-.267-.646-.268.111-.268-.646-.27.11-.269-.65-.27.112-.269-.65-.271.113-.272-.657-.271.114-.272-.657-.271.114-.272-.657-.273.114-.274-.66-.273.113-.275-.662-.276.113-.273-.662-.276.113-.275-.664-.277.115-.276-.668-.277.116-.277-.67-.28.115-.277-.672-.28.115-.277-.672-.28.116-.28-.676-.28.115-.28-.676-.282.118-.281-.68-.282.117-.283-.682-.283.118-.281-.682-.285.117-.284-.685z" style="fill:url(#d);fill-rule:evenodd;stroke:none;stroke-width:1;stroke-linecap:butt;stroke-linejoin:miter;stroke-opacity:1;opacity:.2;fill-opacity:1"/>
    <path d="m32 67.24 35.207 84.996 84.997-35.207-35.207-84.997Z" style="fill:#f5f5f5;fill-opacity:1;fill-rule:evenodd;stroke:none;stroke-width:1px;stroke-linecap:butt;stroke-linejoin:miter;stroke-opacity:1;filter:url(#e)"/>
    <path style="fill:#f5f5f5;fill-rule:evenodd;stroke:none;stroke-width:1px;stroke-linecap:butt;stroke-linejoin:miter;stroke-opacity:1" d="M68 124V68h92v56z"/>
    <path d="M68 124V68h92v56z" style="fill:#000;fill-rule:evenodd;stroke:none;stroke-width:1px;stroke-linecap:butt;stroke-linejoin:miter;stroke-opacity:1;opacity:.2"/>
    <path d="M74 118V74h80v44z" style="fill:#aed581;fill-rule:evenodd;stroke:none;stroke-width:1px;stroke-linecap:butt;stroke-linejoin:miter;stroke-opacity:1"/>
    <path style="fill:#263238;fill-rule:evenodd;stroke:none;stroke-width:1px;stroke-linecap:butt;stroke-linejoin:miter;stroke-opacity:1;opacity:.2" d="M74 118V74h80v44z"/>
    <path clip-path="url(#f)" d="m32 67.24 35.207 84.996 84.997-35.207-35.207-84.997Z" style="fill:#f5f5f5;fill-opacity:1;fill-rule:evenodd;stroke:none;stroke-width:1px;stroke-linecap:butt;stroke-linejoin:miter;stroke-opacity:1;filter:url(#g)"/>
    <path style="fill:#f5f5f5;fill-opacity:1;fill-rule:evenodd;stroke:none;stroke-width:1px;stroke-linecap:butt;stroke-linejoin:miter;stroke-opacity:1" d="m32 67.24 35.207 84.996 84.997-35.207-35.207-84.997Z"/>
    <path d="m39.84 70.487 30.614 73.91 14.688-6.084-30.614-73.91-14.689 6.084Z" style="fill:#aed581;fill-rule:evenodd;stroke:none;stroke-width:1px;stroke-linecap:butt;stroke-linejoin:miter;stroke-opacity:1"/>
    <path d="m54.528 64.403 27.501 66.395 34.692-83.753-2.971-7.173-59.222 24.53Z" style="fill:#ba68c8;fill-rule:evenodd;stroke:none;stroke-width:1px;stroke-linecap:butt;stroke-linejoin:miter;stroke-opacity:1"/>
    <path d="m116.72 47.045-34.69 83.753 3.112 7.515 59.222-24.53-27.643-66.738Z" style="fill:#fadd60;fill-rule:evenodd;stroke:none;stroke-width:1px;stroke-linecap:butt;stroke-linejoin:miter;stroke-opacity:1"/>
    <path d="M116.996 32.031 32 67.238l.354.854 84.642-35.06 34.854 84.144.353-.147-35.207-84.998z" style="fill:#fff;fill-opacity:1;fill-rule:evenodd;stroke:none;stroke-width:1px;stroke-linecap:butt;stroke-linejoin:miter;stroke-opacity:1;opacity:.2"/>
    <path d="m32.354 68.092-.354.146 35.207 84.998 84.996-35.207-.353-.853-84.643 35.06-34.853-84.144z" style="fill:#1a237e;fill-opacity:1;fill-rule:evenodd;stroke:none;stroke-width:1px;stroke-linecap:butt;stroke-linejoin:miter;stroke-opacity:1;opacity:.2"/>
    <path clip-path="url(#h)" d="M20 96v64c0 6 6 12 12 12h128c6 0 12-6 12-12V96H20z" style="fill:#212121;fill-rule:evenodd;stroke:none;stroke-width:1px;stroke-linecap:butt;stroke-linejoin:miter;stroke-opacity:1;fill-opacity:1;filter:url(#g)"/>
    <path d="m68.067 125.794 5.09 5.09c12.651-12.65 33.168-12.65 45.819 0l5.09-5.09c-15.45-15.45-40.523-15.45-56 0zm20.363 20.364 7.637 7.636 7.636-7.636c-4.2-4.226-11.047-4.226-15.273 0zm-10.182-10.182 5.091 5.09c7.026-7.025 18.43-7.025 25.455 0l5.09-5.09c-9.825-9.826-25.785-9.826-35.636 0z" style="fill:#f5f5f5"/>
  </g>
  <path style="opacity:.1;fill:#fff;fill-opacity:1;fill-rule:evenodd;stroke:none;stroke-width:1px;stroke-linecap:butt;stroke-linejoin:miter;stroke-opacity:1" d="M32 20c-6 0-12 6-12 12v1c0-6 6-12 12-12h128c6 0 12 6 12 12v-1c0-6-6-12-12-12H32Z"/>
  <path style="opacity:.2;fill:#030303;fill-opacity:1;fill-rule:evenodd;stroke:none;stroke-width:1px;stroke-linecap:butt;stroke-linejoin:miter;stroke-opacity:1" d="M20 159v1c0 6 6 12 12 12h128c6 0 12-6 12-12v-1c0 6-6 12-12 12H32c-6 0-12-6-12-12z"/>
  <path transform="translate(0 -860.362)" d="M32 880.362h128c6 0 12 6 12 12v128c0 6-6 12-12 12H32c-6 0-12-6-12-12v-128c0-6 6-12 12-12z" style="opacity:.1;fill:url(#i);fill-opacity:1;fill-rule:evenodd;stroke:none;stroke-width:1px;stroke-linecap:butt;stroke-linejoin:miter;stroke-opacity:1"/>
</svg>
