<svg xmlns="http://www.w3.org/2000/svg" xmlns:xlink="http://www.w3.org/1999/xlink" viewBox="0 0 192 192" height="1em" width="1em">
  <defs>
    <linearGradient id="b">
      <stop offset="0" style="stop-color:#fff;stop-opacity:.1"/>
      <stop offset="1" style="stop-color:#fff;stop-opacity:0"/>
    </linearGradient>
    <linearGradient id="a">
      <stop offset="0" style="stop-color:#212121;stop-opacity:.2"/>
      <stop offset="1" style="stop-color:#212121;stop-opacity:0"/>
    </linearGradient>
    <linearGradient gradientUnits="userSpaceOnUse" y2="76" x2="160" y1="28" x1="112" id="d" xlink:href="#a"/>
    <filter style="color-interpolation-filters:sRGB" id="e" x="-.5" y="-.5" width="2" height="2">
      <feFlood flood-opacity=".1" flood-color="#212121" result="flood"/>
      <feComposite in="flood" in2="SourceGraphic" operator="in" result="composite1"/>
      <feGaussianBlur in="composite1" stdDeviation="4" result="blur"/>
      <feOffset dx="4" dy="4" result="offset"/>
      <feComposite in="SourceGraphic" in2="offset" result="composite2"/>
    </filter>
    <filter style="color-interpolation-filters:sRGB" id="c">
      <feFlood flood-opacity=".12" flood-color="#000" result="flood"/>
      <feComposite in="flood" in2="SourceGraphic" operator="in" result="composite1"/>
      <feGaussianBlur in="composite1" stdDeviation="2" result="blur"/>
      <feOffset result="offset"/>
      <feComposite in="SourceGraphic" in2="offset" result="fbSourceGraphic"/>
      <feColorMatrix result="fbSourceGraphicAlpha" in="fbSourceGraphic" values="0 0 0 -1 0 0 0 0 -1 0 0 0 0 -1 0 0 0 0 1 0"/>
      <feFlood flood-opacity=".24" flood-color="#000" result="flood"/>
      <feComposite in2="fbSourceGraphic" in="flood" operator="in" result="composite1"/>
      <feGaussianBlur in="composite1" stdDeviation="2" result="blur"/>
      <feOffset dy="4" result="offset"/>
      <feComposite in2="offset" in="fbSourceGraphic" result="composite2"/>
    </filter>
    <radialGradient gradientUnits="userSpaceOnUse" gradientTransform="matrix(2 2 -2 2 1752.725 -980.362)" r="64" fy="892.362" fx="32" cy="892.362" cx="32" id="g" xlink:href="#b"/>
    <clipPath clipPathUnits="userSpaceOnUse" id="f">
      <path style="color:#000;clip-rule:nonzero;display:inline;overflow:visible;visibility:visible;opacity:1;isolation:auto;mix-blend-mode:normal;color-interpolation:sRGB;color-interpolation-filters:linearRGB;solid-color:#000;solid-opacity:1;fill:#ff9800;fill-opacity:1;fill-rule:evenodd;stroke:none;stroke-width:4;stroke-linecap:round;stroke-linejoin:miter;stroke-miterlimit:4;stroke-dasharray:none;stroke-dashoffset:0;stroke-opacity:1;color-rendering:auto;image-rendering:auto;shape-rendering:auto;text-rendering:auto;enable-background:accumulate" d="M44 868.362c-6.648 0-12 5.352-12 12v152c0 6.648 5.352 12 12 12h104c6.648 0 12-5.352 12-12v-116l-48-48H44z"/>
    </clipPath>
  </defs>
  <path style="color:#000;clip-rule:nonzero;display:inline;overflow:visible;visibility:visible;opacity:1;isolation:auto;mix-blend-mode:normal;color-interpolation:sRGB;color-interpolation-filters:linearRGB;solid-color:#000;solid-opacity:1;fill:#e0e0e0;fill-opacity:1;fill-rule:evenodd;stroke:none;stroke-width:4;stroke-linecap:round;stroke-linejoin:miter;stroke-miterlimit:4;stroke-dasharray:none;stroke-dashoffset:0;stroke-opacity:1;color-rendering:auto;image-rendering:auto;shape-rendering:auto;text-rendering:auto;enable-background:accumulate;filter:url(#c)" d="M44 8c-6.648 0-12 5.352-12 12v152c0 6.648 5.352 12 12 12h104c6.648 0 12-5.352 12-12V56L112 8H44z"/>
  <path d="M112 8v36a11.95 11.95 0 0 0 4.033 8.97L160 96.939V56L112 8z" style="color:#000;clip-rule:nonzero;display:inline;overflow:visible;visibility:visible;opacity:1;isolation:auto;mix-blend-mode:normal;color-interpolation:sRGB;color-interpolation-filters:linearRGB;solid-color:#000;solid-opacity:1;fill:url(#d);fill-opacity:1;fill-rule:evenodd;stroke:none;stroke-width:4;stroke-linecap:round;stroke-linejoin:miter;stroke-miterlimit:4;stroke-dasharray:none;stroke-dashoffset:0;stroke-opacity:1;color-rendering:auto;image-rendering:auto;shape-rendering:auto;text-rendering:auto;enable-background:accumulate"/>
  <path style="color:#000;clip-rule:nonzero;display:inline;overflow:visible;visibility:visible;opacity:1;isolation:auto;mix-blend-mode:normal;color-interpolation:sRGB;color-interpolation-filters:linearRGB;solid-color:#000;solid-opacity:1;fill:#f5f5f5;fill-opacity:1;fill-rule:evenodd;stroke:none;stroke-width:4;stroke-linecap:round;stroke-linejoin:miter;stroke-miterlimit:4;stroke-dasharray:none;stroke-dashoffset:0;stroke-opacity:1;color-rendering:auto;image-rendering:auto;shape-rendering:auto;text-rendering:auto;enable-background:accumulate;filter:url(#e)" d="M160 916.362h-36c-6.648 0-12-5.352-12-12v-36z" clip-path="url(#f)" transform="translate(0 -860.362)"/>
  <path style="color:#000;clip-rule:nonzero;display:inline;overflow:visible;visibility:visible;opacity:.1;isolation:auto;mix-blend-mode:normal;color-interpolation:sRGB;color-interpolation-filters:linearRGB;solid-color:#000;solid-opacity:1;fill:#212121;fill-opacity:1;fill-rule:evenodd;stroke:none;stroke-width:4;stroke-linecap:round;stroke-linejoin:miter;stroke-miterlimit:4;stroke-dasharray:none;stroke-dashoffset:0;stroke-opacity:1;color-rendering:auto;image-rendering:auto;shape-rendering:auto;text-rendering:auto;enable-background:accumulate" d="M32 1031.362v1c0 6.648 5.352 12 12 12h104c6.648 0 12-5.352 12-12v-1c0 6.648-5.352 12-12 12H44c-6.648 0-12-5.352-12-12z" transform="translate(0 -860.362)"/>
  <path style="color:#000;clip-rule:nonzero;display:inline;overflow:visible;visibility:visible;opacity:.4;isolation:auto;mix-blend-mode:normal;color-interpolation:sRGB;color-interpolation-filters:linearRGB;solid-color:#000;solid-opacity:1;fill:#fff;fill-opacity:1;fill-rule:evenodd;stroke:none;stroke-width:4;stroke-linecap:round;stroke-linejoin:miter;stroke-miterlimit:4;stroke-dasharray:none;stroke-dashoffset:0;stroke-opacity:1;color-rendering:auto;image-rendering:auto;shape-rendering:auto;text-rendering:auto;enable-background:accumulate" d="M44 868.362c-6.648 0-12 5.352-12 12v1c0-6.648 5.352-12 12-12h68l47 47h1l-48-48z" transform="translate(0 -860.362)"/>
  <path style="color:#000;clip-rule:nonzero;display:inline;overflow:visible;visibility:visible;opacity:.1;isolation:auto;mix-blend-mode:normal;color-interpolation:sRGB;color-interpolation-filters:linearRGB;solid-color:#000;solid-opacity:1;fill:#212121;fill-opacity:1;fill-rule:evenodd;stroke:none;stroke-width:4;stroke-linecap:round;stroke-linejoin:miter;stroke-miterlimit:4;stroke-dasharray:none;stroke-dashoffset:0;stroke-opacity:1;color-rendering:auto;image-rendering:auto;shape-rendering:auto;text-rendering:auto;enable-background:accumulate" d="M112 44v1c0 6.648 5.352 12 12 12h36v-1h-36c-6.648 0-12-5.352-12-12z"/>
  <path style="fill:#757575" d="M116 960.362v8h8v32h8v-32h8v-8zm-56 8v32h8v-32h8v-8H52v8zm48 2v-10h-8v10c0 1.2-.6 2.4-1.6 3.2l-2.4 1.8-2.4-1.8c-1-.8-1.6-2-1.6-3.2v-10h-8v10c0 3.8 1.8 7.4 4.8 9.6l.6.4-.6.4c-3 2.2-4.8 5.8-4.8 9.6v10h8v-10c0-1.2.6-2.4 1.6-3.2l2.4-1.8 2.4 1.8c1 .8 1.6 2 1.6 3.2v10h8v-10c0-3.8-1.8-7.4-4.8-9.6l-.6-.4.6-.4c3-2.2 4.8-5.8 4.8-9.6z" transform="translate(0 -860.362)"/>
  <path style="color:#000;clip-rule:nonzero;display:inline;overflow:visible;visibility:visible;opacity:1;isolation:auto;mix-blend-mode:normal;color-interpolation:sRGB;color-interpolation-filters:linearRGB;solid-color:#000;solid-opacity:1;fill:url(#g);fill-opacity:1;fill-rule:evenodd;stroke:none;stroke-width:4;stroke-linecap:round;stroke-linejoin:miter;stroke-miterlimit:4;stroke-dasharray:none;stroke-dashoffset:0;stroke-opacity:1;color-rendering:auto;image-rendering:auto;shape-rendering:auto;text-rendering:auto;enable-background:accumulate" d="M44 868.362c-6.648 0-12 5.352-12 12v152c0 6.648 5.352 12 12 12h104c6.648 0 12-5.352 12-12v-116l-48-48H44z" transform="translate(0 -860.362)"/>
</svg>
