<svg xmlns="http://www.w3.org/2000/svg" xmlns:xlink="http://www.w3.org/1999/xlink" viewBox="0 0 192 192" height="1em" width="1em">
  <defs>
    <linearGradient id="a">
      <stop style="stop-color:#212121;stop-opacity:.2" offset="0"/>
      <stop style="stop-color:#212121;stop-opacity:0" offset="1"/>
    </linearGradient>
    <linearGradient id="b">
      <stop offset="0" style="stop-color:#fff;stop-opacity:.1"/>
      <stop offset="1" style="stop-color:#fff;stop-opacity:0"/>
    </linearGradient>
    <linearGradient xlink:href="#a" id="d" x1="46.525" y1="49.199" x2="169.327" y2="172" gradientUnits="userSpaceOnUse"/>
    <filter style="color-interpolation-filters:sRGB" id="e">
      <feFlood flood-opacity=".2" flood-color="#212121" result="flood"/>
      <feComposite in="flood" in2="SourceGraphic" operator="in" result="composite1"/>
      <feGaussianBlur in="composite1" stdDeviation="4" result="blur"/>
      <feOffset dx="4" dy="4" result="offset"/>
      <feComposite in="SourceGraphic" in2="offset" result="composite2"/>
    </filter>
    <filter style="color-interpolation-filters:sRGB" id="c">
      <feFlood flood-opacity=".12" flood-color="#000" result="flood"/>
      <feComposite in="flood" in2="SourceGraphic" operator="in" result="composite1"/>
      <feGaussianBlur in="composite1" stdDeviation="2" result="blur"/>
      <feOffset result="offset"/>
      <feComposite in="SourceGraphic" in2="offset" result="fbSourceGraphic"/>
      <feColorMatrix result="fbSourceGraphicAlpha" in="fbSourceGraphic" values="0 0 0 -1 0 0 0 0 -1 0 0 0 0 -1 0 0 0 0 1 0"/>
      <feFlood flood-opacity=".24" flood-color="#000" result="flood"/>
      <feComposite in2="fbSourceGraphic" in="flood" operator="in" result="composite1"/>
      <feGaussianBlur in="composite1" stdDeviation="2" result="blur"/>
      <feOffset dy="4" result="offset"/>
      <feComposite in2="offset" in="fbSourceGraphic" result="composite2"/>
    </filter>
    <radialGradient gradientTransform="matrix(2 2 -2 2 1740.725 -920.362)" gradientUnits="userSpaceOnUse" r="76" fy="880.362" fx="20" cy="880.362" cx="20" id="f" xlink:href="#b"/>
  </defs>
  <g transform="translate(0 -860.362)">
    <rect style="color:#000;clip-rule:nonzero;display:inline;overflow:visible;visibility:visible;opacity:1;isolation:auto;mix-blend-mode:normal;color-interpolation:sRGB;color-interpolation-filters:linearRGB;solid-color:#000;solid-opacity:1;fill:#757575;fill-opacity:1;fill-rule:evenodd;stroke:none;stroke-width:1;stroke-linecap:butt;stroke-linejoin:round;stroke-miterlimit:4;stroke-dasharray:none;stroke-dashoffset:0;stroke-opacity:1;color-rendering:auto;image-rendering:auto;shape-rendering:auto;text-rendering:auto;enable-background:accumulate;filter:url(#c)" width="152" height="152" x="20" y="880.362" rx="12" ry="12"/>
    <path style="opacity:1;fill:url(#d);fill-opacity:1" d="M64.8 49.2V70l5.2 5.2H59.6A15.58 15.58 0 0 0 44 90.8V122l50 50h66c6.648 0 12-5.352 12-12V93.998l-44.799-44.799h-62.4z" transform="translate(0 860.362)"/>
    <path style="color:#000;clip-rule:nonzero;display:inline;overflow:visible;visibility:visible;opacity:.2;isolation:auto;mix-blend-mode:normal;color-interpolation:sRGB;color-interpolation-filters:linearRGB;solid-color:#000;solid-opacity:1;fill:#fff;fill-opacity:1;fill-rule:evenodd;stroke:none;stroke-width:1;stroke-linecap:butt;stroke-linejoin:round;stroke-miterlimit:4;stroke-dasharray:none;stroke-dashoffset:0;stroke-opacity:1;color-rendering:auto;image-rendering:auto;shape-rendering:auto;text-rendering:auto;enable-background:accumulate" d="M32 880.362c-6.648 0-12 5.352-12 12v1c0-6.648 5.352-12 12-12h128c6.648 0 12 5.352 12 12v-1c0-6.648-5.352-12-12-12H32z"/>
    <path style="color:#000;clip-rule:nonzero;display:inline;overflow:visible;visibility:visible;opacity:.2;isolation:auto;mix-blend-mode:normal;color-interpolation:sRGB;color-interpolation-filters:linearRGB;solid-color:#000;solid-opacity:1;fill:#212121;fill-opacity:1;fill-rule:evenodd;stroke:none;stroke-width:1;stroke-linecap:butt;stroke-linejoin:round;stroke-miterlimit:4;stroke-dasharray:none;stroke-dashoffset:0;stroke-opacity:1;color-rendering:auto;image-rendering:auto;shape-rendering:auto;text-rendering:auto;enable-background:accumulate" d="M20 1019.362v1c0 6.648 5.352 12 12 12h128c6.648 0 12-5.352 12-12v-1c0 6.648-5.352 12-12 12H32c-6.648 0-12-5.352-12-12z"/>
    <path d="M132.4 935.562H59.6a15.58 15.58 0 0 0-15.6 15.6v31.2h20.8v20.8h62.4v-20.8H148v-31.2a15.58 15.58 0 0 0-15.6-15.6zm-15.6 57.2H75.2v-26h41.6v26zm15.6-36.4c-2.86 0-5.2-2.34-5.2-5.2 0-2.86 2.34-5.2 5.2-5.2 2.86 0 5.2 2.34 5.2 5.2 0 2.86-2.34 5.2-5.2 5.2zm-5.2-46.8H64.8v20.8h62.4v-20.8z" style="fill:#fafafa;filter:url(#e)"/>
    <path d="M64.8 909.561v1h62.4v-1H64.8zm-5.2 26c-8.632 0-15.6 6.97-15.6 15.602v1c0-8.632 6.968-15.602 15.6-15.602h72.8c8.632 0 15.6 6.97 15.6 15.602v-1c0-8.632-6.968-15.602-15.6-15.602H59.6zm67.625 16.102a5.23 5.23 0 0 0-.026.5c0 2.86 2.341 5.199 5.201 5.199 2.86 0 5.2-2.34 5.2-5.2 0-.168-.01-.335-.026-.5-.254 2.628-2.482 4.7-5.174 4.7-2.69 0-4.921-2.072-5.175-4.7zm-52.026 41.1v1h41.602v-1H75.199z" style="fill:#fff"/>
    <path transform="translate(0 860.362)" d="M64.8 70v1h62.4v-1H64.8zm67.6 15.6c-2.86 0-5.2 2.34-5.2 5.2 0 .17.009.336.025.5.253-2.627 2.484-4.7 5.175-4.7 2.692 0 4.921 2.073 5.174 4.7.016-.164.026-.33.026-.5 0-2.86-2.34-5.2-5.2-5.2zm-57.2 20.8v1h41.6v-1H75.2zM44 122v1h20.8v-1H44zm83.2 0v1H148v-1h-20.8zm-62.4 20.8v1h62.4v-1H64.8z" style="fill:#212121;opacity:.2"/>
  </g>
  <rect style="color:#000;clip-rule:nonzero;display:inline;overflow:visible;visibility:visible;opacity:1;isolation:auto;mix-blend-mode:normal;color-interpolation:sRGB;color-interpolation-filters:linearRGB;solid-color:#000;solid-opacity:1;fill:url(#f);fill-opacity:1;fill-rule:evenodd;stroke:none;stroke-width:1;stroke-linecap:butt;stroke-linejoin:round;stroke-miterlimit:4;stroke-dasharray:none;stroke-dashoffset:0;stroke-opacity:1;color-rendering:auto;image-rendering:auto;shape-rendering:auto;text-rendering:auto;enable-background:accumulate" width="152" height="152" x="20" y="880.362" rx="12" ry="12" transform="translate(0 -860.362)"/>
</svg>
