<svg version="1.1" id="svg2" xmlns="http://www.w3.org/2000/svg" x="0" y="0" viewBox="0 0 192 192" style="enable-background:new 0 0 192 192" xml:space="preserve" height="1em" width="1em">
  <style>
    .st3,.st4{opacity:.2;fill:#1a237e;enable-background:new}.st4{fill:#fff}
  </style>
  <g id="layer2">
    <path id="path4184" d="M96 8C47.4 8 8 47.4 8 96s39.4 88 88 88h88l-25.8-25.8C174.7 141.7 184 119.3 184 96c0-48.6-39.4-88-88-88z" style="fill:#2196f3"/>
  </g>
  <g id="layer1" transform="translate(0 -860.362)">
    <linearGradient id="path15245_1_" gradientUnits="userSpaceOnUse" x1="47.725" y1="984.649" x2="149.006" y2="883.368" gradientTransform="matrix(1 0 0 -1 0 1914.724)">
      <stop offset="0" style="stop-color:#1a237e"/>
      <stop offset="1" style="stop-color:#1a237e;stop-opacity:0"/>
    </linearGradient>
    <path id="path15245" d="M73.6 918.9c-5.7 0-10.4 4.7-10.4 10.4 0 2.8 1.1 5.4 3 7.4l.3.3.3.3.3.3.3.3.3.3.3.3.3.3.3.3.3.3.3.3.3.3.3.3.3.3.3.3.3.3.3.3.3.3.3.3.3.3.3.3.3.3.3.3.3.3.3.3.3.3.3.3.3.3.3.3.3.3.3.3.3.3.3.3.3.3.3.3.3.3.3.3.3.3.3.3.3.3.3.3.3.3.3.3.3.3.3.3.3.3.3.3.3.3.3.3.3.3.3.3.3.3.3.3.3.3c.1.1.2.2.2.3l.3.3.3.3c.1.1.2.2.3.2l.3.3c.1.1.2.2.3.2.1.1.2.2.2.3.1.1.2.2.3.2.1.1.2.2.2.3l.3.3c.1.1.2.2.2.3.1.1.2.2.3.2l.3.3c.1.1.2.2.3.2.1.1.2.2.2.3.1.1.2.2.3.2.1.1.2.2.2.3.1.1.2.2.3.2.1.1.2.2.2.3.1.1.2.2.3.2.1.1.2.2.2.3.1.1.2.2.3.2.1.1.2.2.2.3.1.1.2.2.3.2.1.1.2.2.2.3.1.1.2.2.3.2.1.1.2.2.2.3.1.1.2.2.3.2.1.1.2.2.2.3s.2.2.3.2c.1.1.2.2.2.3s.2.2.3.2c.1.1.1.2.2.3.1.1.2.2.3.2l-5.5 8.3-.2-.4-.1.2-.4-.7-.1.2-.4-.7-.1.2-.4-.7-.1.2-.4-.7-.1.2-.4-.7-.1.2-.4-.7-.1.2L80 964l-.1.2-.4-.7-.1.2-.4-.7-.1.2-.4-.7-.1.2-.4-.7-.1.2-.4-.7-.1.2-.4-.7-.1.2-.4-.7-.1.2-.4-.7-.1.2-.4-.7-.1.2-.4-.7-.1.2-.4-.7-.1.2-.4-.7-.1.2-.9-1.2-.1.2-.4-.7-.1.2-.4-.7-.1.2-.4-.7-.1.2-.4-.7-.1.2-.4-.7-.1.2-.4-.8-.1.2-.5-.8-.1.2-.5-.8-.1.2-.5-.8-22.3 37h.9l-.3.6h.5l-.3.6h.9l-.3.6h.9l-.3.6h.9l-.3.6h.9l-.3.6h.9l-.3.6h.9l-.3.6h.7l-.3.6h.9l-.3.6h.9l-.3.6h.9l-.3.5h.9l-.3.5h.9l-.3.5h.9l-.3.5h.9l-.3.5h.9l-.3.5h.9l-.3.5h.9l-.3.5h.9l-.3.5h.9l-.3.5h.1l-.3.5h.9l-.3.5h.9l-.3.5h.8l-.3.5h.8l-.3.5h.8l-.3.5h.8l-.3.5h.8l-.3.5h.8l-.3.5h.8l-.3.5h.8l-.3.5h.8l-.3.5h.8l-.3.5h.8l-.3.5h.8l-.3.5h.8l-.3.5h.8l-.3.5h.8l-.3.5h.8l-.3.5h.8l-.3.5h.8l-.3.5h.8l-.3.5h.8l-.3.5h.8l-.3.5h.8l-.3.5h.8l-.3.5h.8l-.3.5h.8l-.3.5h.8l-.3.5h.8l-.3.5h.8l-.3.5h.8l-.3.5h.8l-.3.5h.8l-.3.5h.8l-.3.5h.8l-.3.5h.8l-.3.5h.8l-.3.5h.6l-.3.5h.8l-.3.5h.8l-.3.5h.7l-.3.5h.7l-.3.5h.7l-.3.5h.7l-.3.5h.7l-.3.5h.7l-.3.5h.7l-.3.5h.7l-.3.5h.7l-.3.5h.7l-.3.5H83l-.3.5h.7l-.3.4h.7l-.3.4h.7l-.3.4h.7l-.3.4h.7l-.3.4h.7l-.3.4h.7l-.3.4h.7l-.3.4H87l-.3.4h.7l-.3.4h.7l-.3.4h.7l-.3.4h.7l-.3.4h.7l-.3.4h.7l-.3.4h.9l-.3.4h.7l-.3.4h.7l-.3.4h.7l-.3.4h.7l-.3.4h.7l-.3.4h.7l-.3.4h.7l-.2.4h.7l-.2.4h.7l-.2.4h.7l-.2.4h.7l-.2.4h.7l-.2.4h.6l-.2.4h.6l-.2.4h.6l-.2.4h.6l-.2.4h.6l-.2.4h.6l-.2.4h.6l-.2.4h.6l-.2.4h.6l-.2.4h.6l-.2.4h.6l-.2.4h.6l-.2.4h.6l-.2.4h.6l-.2.4h.6l-.2.4h.6l-.2.4h.6v.1H184l-25.8-25.8c6.6-6.6 12.1-14.3 16.3-22.6l-.1-.2-.1.1-.3-.4-.1.1-.3-.4-.1.1-.3-.4-.1.1-.3-.4-.1.1-.3-.4-.1.1-.3-.4-.1.1-.3-.4-.1.1-.3-.4-.1.1-.3-.4-.1.1-.3-.4-.1.1-.3-.4-.1.1-.3-.4-.1.1-.3-.4-.1.1-.3-.4-.1.1-.3-.4-.1.1-.3-.4-.1.1-.3-.5-.1.1-.3-.5-.1.1-.3-.5-.1.1-.3-.5-.1.1-.3-.5-.1.1-.3-.5-.1.1-.3-.5-.1.1-.3-.5-.1.1-.3-.5-.1.1-.3-.5-.1.1-.3-.5-.1.1-.3-.5-.1.1-.3-.5-.1.1-.3-.5-.1.1-.3-.5-.1.1-.3-.5-.1.1-.3-.5-.1.1-.3-.5-.1.1-.3-.5-.1.1-.3-.5-.1.1-.3-.5-.1.1-.3-.5-.1.1-.3-.5-.1.1-.3-.5-.1.1-.3-.5-.1.1-.3-.5-.1.1-.3-.5-.1.1-.3-.5-.1.1-.3-.5-.1.1-.3-.5-.1.1-.3-.5-.1.1-.3-.5-.1.1-.3-.5-.1.1-.3-.5-.1.1-.3-.5-.1.1-.3-.5-.1.1-.3-.5-.1.1-.3-.5-.1.1-.3-.5-.1.1-.4-.5-.1.1-.4-.5-.1.1-.4-.5-.1.1-.4-.5-.1.1-.4-.5-.1.1-.4-.5-.1.1-.4-.5-.1.1-.4-.5-.1.1-.4-.5-.1.1-.4-.6-.1.1-.4-.6-.1.1-.4-.6-.1.1-.4-.6-.1.1-.4-.6-.1.1-.4-.6-.1.1-.4-.6-.1.1-.4-.6-.1.1-.4-.6-.1.1-.4-.6-.1.1-.4-.6-.1.1-.4-.6-.1.1-.4-.6-.1.1-.4-.6-.1.1-.4-.6-.1.1-.4-.6-.1.1-.4-.6-.1.1-.4-.6-.1.1-.4-.6-.1.1-.4-.6-.1.1-.4-.6-.1.1-.4-.6-.1.1-.4-.6-.1.1-.4-.6-.1.1-.4-.6-.1.1-.4-.6-.1.1-.4-.6-.1.1-.4-.6-.1.1-.4-.6-.1.1-.4-.6-.1.1-.4-.6-.1.1-.4-.6-.1.1-.4-.6-.1.1-.4-.6-.1.1-.4-.6-.1.1-.4-.6-.1.1-.4-.6-.1.1-.4-.6-.1.1-.4-.6-.1.1-.4-.6-.1.1-.4-.6-.1.1-.4-.6-.1.1-.4-.6-.1.1-.4-.6-.1.1-.4-.6-.1.1-.4-.6-.1.1-.4-.6-.1.1-.4-.6-.1.1-.4-.6-.1.1-.4-.7-.1.1-.4-.7-.1.1-.4-.7-.1.1-.4-.7-.1.1-.4-.7-.1.1-.4-.7-.1.1-.4-.7-.1.1-.4-.7-.1.1-.4-.7-.1.1-.4-.7-.1.1-.4-.7-.1.1-.4-.7-.1.1-.4-.7-.1.1-.4-.7-.1.1-.4-.7-.1.1-.4-.7-.1.1-.4-.7-.1.1-.4-.7-.1.1-.5-.7-.1.1-.5-.7-.1.1-.5-.7-.1.1-.5-.7-.1.1-.5-.7-.1.1-.5-.7-.1.1-.5-.7-.1.1-.5-.7-.1.1-.5-.7-.1.1-.5-.7-.1.1-.5-.7-.1.1-.5-.7-.1.1-.5-.7-.1.1-.5-.7-7.9 11.8-.1-.1-.5-.5-.5-.5-.5-.5-.5-.5c-.2-.2-.3-.4-.5-.5l-.5-.5c-.2-.2-.3-.4-.5-.5l-.5-.5c-.2-.2-.3-.4-.5-.5-.2-.2-.3-.4-.5-.5-.2-.2-.3-.4-.5-.5-.2-.2-.3-.4-.5-.5-.2-.2-.3-.4-.5-.5-.2-.2-.3-.4-.5-.5-.2-.2-.3-.4-.5-.5-.2-.2-.3-.4-.5-.5-.2-.2-.3-.4-.5-.5l-.5-.5c-.2-.2-.3-.4-.5-.5l-.5-.5-.6-.6c-.2-.2-.3-.4-.5-.5l-.5-.5-.5-.5-.6-.6-.5-.5c-.2-.2-.4-.4-.6-.5l-.6-.6-.6-.6-.5-.5-.6-.6-.6-.6-.5-.5-.6-.6-.6-.6-.6-.6-.6-.6c.9-.1-1.8-1.4-4.8-1.4z" style="opacity:.2;fill:url(#path15245_1_);enable-background:new"/>
    <path id="path9278" d="M73.1 918.4c-5.7 0-10.4 4.7-10.4 10.4s4.7 10.4 10.4 10.4 10.4-4.7 10.4-10.4c0-5.8-4.7-10.4-10.4-10.4zm35.4 11.4-25.3 38 12.2 20.5H147l-38.5-58.5zm-41.2 21.6-22.3 37h44.5l-22.2-37z" style="fill:#f5f5f5"/>
    <g id="g15184">
      <path id="path15176" class="st3" d="M62.7 929.2v.6c0 5.7 4.7 10.4 10.4 10.4s10.4-4.7 10.4-10.4v-.4c-.3 5.5-4.9 9.8-10.4 9.8-5.6 0-10.2-4.5-10.4-10zm20.8 39.2-.3.5 12.2 20.5H147l-.7-1H95.4l-11.9-20zm-37.9 20-.6 1h44.5l-.6-1H45.6z"/>
      <path id="path15179" class="st4" d="M73.1 918.4c-5.7 0-10.4 4.7-10.4 10.4v.4c.3-5.5 4.9-9.8 10.4-9.8 5.6 0 10.2 4.4 10.4 10v-.6c0-5.8-4.7-10.4-10.4-10.4zm35.4 11.4-25.3 38 .3.5 25-37.5 37.9 57.5h.7l-38.6-58.5zm-41.2 21.6-22.3 37h.6l21.7-36 21.5 36h.6l-22.1-37z"/>
    </g>
  </g>
  <g id="layer3">
    <path id="circle4191" class="st4" d="M96 8C47.4 8 8 47.4 8 96v.6C8.2 48.2 47.6 9 96 9s87.7 39.1 88 87.4V96c0-48.6-39.4-88-88-88z"/>
    <path id="path15156" class="st3" d="M8 95.4v.6c0 48.6 39.4 88 88 88h88l-1-1H96c-48.4 0-87.8-39.2-88-87.6zm176 .1c-.2 23.1-9.4 45.3-25.8 61.7l.5.5C174.9 141.2 184 119.1 184 96v-.5z"/>
    <radialGradient id="path15162_1_" cx="-51.5" cy="589.5" r="88" gradientTransform="matrix(0 2 2 0 -1171 111)" gradientUnits="userSpaceOnUse">
      <stop offset="0" style="stop-color:#fff"/>
      <stop offset="1" style="stop-color:#fff;stop-opacity:0"/>
    </radialGradient>
    <path id="path15162" d="M96 8C47.4 8 8 47.4 8 96s39.4 88 88 88h88l-25.8-25.8C174.7 141.7 184 119.3 184 96c0-48.6-39.4-88-88-88z" style="opacity:.1;fill:url(#path15162_1_);enable-background:new"/>
  </g>
</svg>
