<svg xmlns="http://www.w3.org/2000/svg" xmlns:xlink="http://www.w3.org/1999/xlink" viewBox="0 0 192 192" height="1em" width="1em">
  <defs>
    <linearGradient id="d">
      <stop style="stop-color:#fff;stop-opacity:1" offset="0"/>
      <stop style="stop-color:#fff;stop-opacity:0" offset="1"/>
    </linearGradient>
    <linearGradient id="c">
      <stop style="stop-color:#263238;stop-opacity:1" offset="0"/>
      <stop style="stop-color:#263238;stop-opacity:0" offset="1"/>
    </linearGradient>
    <linearGradient id="b">
      <stop style="stop-color:#1a237e;stop-opacity:1" offset="0"/>
      <stop style="stop-color:#1a237e;stop-opacity:0" offset="1"/>
    </linearGradient>
    <linearGradient id="a">
      <stop style="stop-color:#3e2723;stop-opacity:1" offset="0"/>
      <stop style="stop-color:#3e2723;stop-opacity:0" offset="1"/>
    </linearGradient>
    <linearGradient xlink:href="#a" id="g" x1="20" y1="20" x2="172" y2="172" gradientUnits="userSpaceOnUse" gradientTransform="translate(2)"/>
    <linearGradient xlink:href="#b" id="h" x1="20" y1="20" x2="172" y2="172" gradientUnits="userSpaceOnUse" gradientTransform="translate(2)"/>
    <linearGradient xlink:href="#c" id="f" x1="20" y1="20" x2="172" y2="172" gradientUnits="userSpaceOnUse" gradientTransform="translate(2)"/>
    <filter id="j" style="color-interpolation-filters:sRGB" x="-.3" width="1.6">
      <feFlood result="flood" flood-color="#000" flood-opacity=".2"/>
      <feComposite result="composite1" operator="in" in2="SourceGraphic" in="flood"/>
      <feGaussianBlur result="blur" stdDeviation="4" in="composite1"/>
      <feOffset result="offset" dy="4"/>
      <feComposite result="composite2" in2="offset" in="SourceGraphic"/>
    </filter>
    <filter style="color-interpolation-filters:sRGB" id="e">
      <feFlood flood-opacity=".2" flood-color="#000" result="flood"/>
      <feComposite in="flood" in2="SourceGraphic" operator="in" result="composite1"/>
      <feGaussianBlur in="composite1" stdDeviation="2" result="blur"/>
      <feOffset dy="4" result="offset"/>
      <feComposite in="SourceGraphic" in2="offset" result="fbSourceGraphic"/>
      <feColorMatrix result="fbSourceGraphicAlpha" in="fbSourceGraphic" values="0 0 0 -1 0 0 0 0 -1 0 0 0 0 -1 0 0 0 0 1 0"/>
      <feFlood flood-opacity=".2" flood-color="#000" result="flood"/>
      <feComposite in2="fbSourceGraphic" in="flood" operator="in" result="composite1"/>
      <feGaussianBlur in="composite1" stdDeviation="2" result="blur"/>
      <feOffset result="offset"/>
      <feComposite in2="offset" in="fbSourceGraphic" result="composite2"/>
    </filter>
    <radialGradient xlink:href="#d" id="k" cx="20" cy="25.561" fx="20" fy="25.561" r="76" gradientTransform="matrix(0 2 -2 0 71.122 -20)" gradientUnits="userSpaceOnUse"/>
    <clipPath clipPathUnits="userSpaceOnUse" id="i">
      <path d="M86 14c-3 0-6 3-6 6H32c-6 0-12 6-12 12v26.668c0 6 6 12 12 12-6 0-12 6-12 12v26.664c0 6 6 12 12 12-6 0-12 6-12 12V160c0 6 6 12 12 12h48c0 3 3 6 6 6h20c3 0 6-3 6-6h48c6 0 12-6 12-12v-26.668c0-6-6-12-12-12 6 0 12-6 12-12V82.668c0-6-6-12-12-12 6 0 12-6 12-12V32c0-6-6-12-12-12h-48c0-3-3-6-6-6H86z" style="fill:#e91e63;fill-opacity:1;fill-rule:evenodd;stroke:none;stroke-width:1px;stroke-linecap:butt;stroke-linejoin:miter;stroke-opacity:1"/>
    </clipPath>
  </defs>
  <g style="filter:url(#e)">
    <path style="fill:#e91e63;fill-opacity:1;fill-rule:evenodd;stroke:none;stroke-width:1px;stroke-linecap:butt;stroke-linejoin:miter;stroke-opacity:1" d="M32 20h128c6 0 12 6 12 12v26.667c0 6-6 12-12 12H32c-6 0-12-6-12-12V32c0-6 6-12 12-12z"/>
    <path d="M32 32h12v26.667H32z" style="fill:#ffeb3b;fill-opacity:1;fill-rule:evenodd;stroke:none;stroke-width:1px;stroke-linecap:butt;stroke-linejoin:miter;stroke-opacity:1"/>
    <path style="fill:#3f51b5;fill-opacity:1;fill-rule:evenodd;stroke:none;stroke-width:1px;stroke-linecap:butt;stroke-linejoin:miter;stroke-opacity:1" d="M20 82.667v26.666c0 6 6 12 12 12h128c6 0 12-6 12-12V82.667c0-6-6-12-12-12H32c-6 0-12 6-12 12z"/>
    <path style="fill:#4caf50;fill-opacity:1;fill-rule:evenodd;stroke:none;stroke-width:1px;stroke-linecap:butt;stroke-linejoin:miter;stroke-opacity:1" d="M20 160v-26.667c0-6 6-12 12-12h128c6 0 12 6 12 12V160c0 6-6 12-12 12H32c-6 0-12-6-12-12z"/>
    <path d="M84.568 121.332V172H160c6 0 12-6 12-12v-26.668c0-6-6-12-12-12H84.568z" style="opacity:.2;fill:url(#f);fill-opacity:1;fill-rule:evenodd;stroke:none;stroke-width:1;stroke-linecap:butt;stroke-linejoin:miter;stroke-opacity:1"/>
    <path d="M84.568 20.568v50.1H160c.696 0 1.391-.088 2.078-.24v-.35h-.402v-.402h-.406v-.406h-.407v-.407h-.408v-.408h-.41v-.41h-.412v-.412h-.412v-.412h-.416v-.416h-.416v-.416h-.418v-.418h-.42v-.42h-.42v-.42h-.424v-.424h-.424v-.424h-.426v-.426h-.427v-.427H155V63h-.432v-.432h-.431v-.431h-.436V61.7h-.435v-.435h-.438v-.438h-.44v-.44h-.439v-.439h-.443v-.443h-.444v-.444h-.445v-.445h-.447v-.447h-.45v-.45h-.45v-.45h-.452v-.452h-.455v-.455h-.455v-.455h-.457v-.457h-.457v-.457h-.46v-.46h-.464v-.464h-.463v-.463h-.464v-.464h-.467v-.467h-.469v-.469h-.469v-.469h-.472v-.472h-.473v-.473h-.475v-.475h-.476v-.476h-.479v-.479h-.48v-.48h-.48v-.48h-.483v-.483h-.484v-.484h-.487v-.487h-.488v-.488h-.49v-.49h-.49v-.49h-.493v-.493h-.494v-.494h-.496v-.496h-.498V43.5h-.5V43h-.5v-.5h-.502v-.502h-.504v-.504h-.506v-.506h-.508v-.508h-.51v-.51h-.51v-.51h-.51v-.51h-.514v-.514h-.516v-.516h-.518v-.518h-.517v-.517h-.522v-.522h-.521v-.521h-.524v-.524h-.525v-.525h-.527v-.527h-.528v-.528h-.531v-.531h-.531v-.531h-.533v-.533h-.536v-.536h-.535v-.535h-.539v-.539h-.539v-.539h-.543v-.543h-.543v-.543h-.543v-.543h-.547v-.547h-.548v-.548h-.55v-.55h-.55v-.55h-.553v-.553h-.555v-.555h-.556v-.556h-.557v-.557h-.56v-.56h-.56v-.56h-.563v-.563h-.565V21.7h-.564v-.564h-.569v-.569h-28z" style="opacity:.2;fill:url(#g);fill-opacity:1;fill-rule:evenodd;stroke:none;stroke-width:1;stroke-linecap:butt;stroke-linejoin:miter;stroke-opacity:1"/>
    <path d="M84.568 70.668v50.664H160c6 0 12-6 12-12V82.668c0-1.021-.186-2.04-.504-3.031h-.223v-.364h-.365v-.365h-.365v-.365h-.367v-.367h-.371v-.371h-.37v-.37h-.373v-.373h-.375v-.374h-.375v-.376h-.376v-.376h-.381v-.381h-.38v-.38h-.382v-.382h-.385v-.385h-.385v-.385h-.386v-.386h-.389v-.389h-.39v-.39h-.393v-.393h-.395v-.395h-.394v-.394h-.397v-.397h-.398v-.152c-.944-.288-1.911-.459-2.881-.459H84.568z" style="opacity:.2;fill:url(#h);fill-opacity:1;fill-rule:evenodd;stroke:none;stroke-width:1;stroke-linecap:butt;stroke-linejoin:miter;stroke-opacity:1"/>
    <path clip-path="url(#i)" style="fill:#8d6e63;fill-opacity:1;fill-rule:evenodd;stroke:none;stroke-width:1px;stroke-linecap:butt;stroke-linejoin:miter;stroke-opacity:1;filter:url(#j)" d="M86 14h20c3 0 6 3 6 6v152c0 3-3 6-6 6H86c-3 0-6-3-6-6V20c0-3 3-6 6-6z"/>
    <path style="opacity:.2;fill:#fff;fill-opacity:1;fill-rule:evenodd;stroke:none;stroke-width:1px;stroke-linecap:butt;stroke-linejoin:miter;stroke-opacity:1" d="M32 20c-6 0-12 6-12 12v1c0-6 6-12 12-12h48v-1H32zm80 0v1h48c6 0 12 6 12 12v-1c0-6-6-12-12-12h-48zM32 70.668c-6 0-12 6-12 12v1c0-6 6-12 12-12h48v-1H32zm80 0v1h48c6 0 12 6 12 12v-1c0-6-6-12-12-12h-48zm-80 50.664c-6 0-12 6-12 12v1c0-6 6-12 12-12h48v-1H32zm80 0v1h48c6 0 12 6 12 12v-1c0-6-6-12-12-12h-48z"/>
    <path style="opacity:.2;fill:#3e2723;fill-opacity:1;fill-rule:evenodd;stroke:none;stroke-width:1px;stroke-linecap:butt;stroke-linejoin:miter;stroke-opacity:1" d="M20 57.668v1c0 6 6 12 12 12h48v-1H32c-6 0-12-6-12-12zm152 0c0 6-6 12-12 12h-48v1h48c6 0 12-6 12-12v-1z"/>
    <path style="opacity:.2;fill:#1a237e;fill-opacity:1;fill-rule:evenodd;stroke:none;stroke-width:1px;stroke-linecap:butt;stroke-linejoin:miter;stroke-opacity:1" d="M20 108.332v1c0 6 6 12 12 12h48v-1H32c-6 0-12-6-12-12zm152 0c0 6-6 12-12 12h-48v1h48c6 0 12-6 12-12v-1z"/>
    <path style="opacity:.2;fill:#263238;fill-opacity:1;fill-rule:evenodd;stroke:none;stroke-width:1px;stroke-linecap:butt;stroke-linejoin:miter;stroke-opacity:1" d="M20 159v1c0 6 6 12 12 12h48v-1H32c-6 0-12-6-12-12zm152 0c0 6-6 12-12 12h-48v1h48c6 0 12-6 12-12v-1z"/>
    <path d="M86 14c-3 0-6 3-6 6v1c0-3 3-6 6-6h20c3 0 6 3 6 6v-1c0-3-3-6-6-6z" style="opacity:.2;fill:#fff;fill-opacity:1;fill-rule:evenodd;stroke:none;stroke-width:1px;stroke-linecap:butt;stroke-linejoin:miter;stroke-opacity:1"/>
    <path d="M80 171v1c0 3 3 6 6 6h20c3 0 6-3 6-6v-1c0 3-3 6-6 6H86c-3 0-6-3-6-6z" style="opacity:.2;fill:#3e2723;fill-opacity:1;fill-rule:evenodd;stroke:none;stroke-width:1px;stroke-linecap:butt;stroke-linejoin:miter;stroke-opacity:1"/>
    <path style="fill:#ffeb3b;fill-opacity:1;fill-rule:evenodd;stroke:none;stroke-width:1px;stroke-linecap:butt;stroke-linejoin:miter;stroke-opacity:1" d="M32 82.666h12v26.667H32zm0 50.667h12V160H32z"/>
  </g>
  <path d="M86 14c-3 0-6 3-6 6H32c-6 0-12 6-12 12v26.668c0 6 6 12 12 12-6 0-12 6-12 12v26.664c0 6 6 12 12 12-6 0-12 6-12 12V160c0 6 6 12 12 12h48c0 3 3 6 6 6h20c3 0 6-3 6-6h48c6 0 12-6 12-12v-26.668c0-6-6-12-12-12 6 0 12-6 12-12V82.668c0-6-6-12-12-12 6 0 12-6 12-12V32c0-6-6-12-12-12h-48c0-3-3-6-6-6H86z" style="opacity:.1;fill:url(#k);fill-opacity:1;fill-rule:evenodd;stroke:none;stroke-width:1px;stroke-linecap:butt;stroke-linejoin:miter;stroke-opacity:1"/>
</svg>
