<svg xmlns="http://www.w3.org/2000/svg" viewBox="0 0 48 48" height="1em" width="1em">
  <path style="stroke:none;fill-rule:nonzero;fill:#ff6401;fill-opacity:1" d="M10 2c-.945 0-2 1.055-2 2v40c0 .89 1.11 2 2 2h28c.89 0 1.984-1.11 2-2V14L28 2Zm0 0"/>
  <path style="stroke:none;fill-rule:nonzero;fill:#000;fill-opacity:.196078" d="m30 14 10 10V14Zm0 0"/>
  <path style="stroke:none;fill-rule:nonzero;fill:#fff;fill-opacity:.392157" d="m28 2 12 12H30c-.89 0-2-1.11-2-2Zm0 0"/>
  <path style="stroke:none;fill-rule:nonzero;fill:#fff;fill-opacity:1" d="M14 33.531c0-.691.246-1.281.71-1.758a2.28 2.28 0 0 1 1.716-.722c.656 0 1.21.242 1.664.722.476.477.707 1.067.707 1.758 0 .68-.23 1.266-.707 1.746a2.229 2.229 0 0 1-1.664.707c-.684 0-1.254-.238-1.715-.707A2.412 2.412 0 0 1 14 33.531m0-11.234v4.133c5.105 0 9.246 4.293 9.246 9.57h4.012c0-7.57-5.945-13.703-13.258-13.703Zm0-9.04v4.56c9.7 0 17.563 8.144 17.563 18.183H36c0-12.559-9.863-22.742-22-22.742Zm0 0"/>
</svg>
