<svg xmlns="http://www.w3.org/2000/svg" xmlns:xlink="http://www.w3.org/1999/xlink" viewBox="0 0 48 48" version="1.1" height="1em" width="1em">
  <g>
    <path style="stroke:none;fill-rule:nonzero;fill:rgb(86.27451%,86.27451%,86.27451%);fill-opacity:1" d="M 10 2 C 9.054688 2 8 3.054688 8 4 L 8 44 C 8 44.890625 9.109375 46 10 46 L 38 46 C 38.890625 46 39.984375 44.890625 40 44 L 40 14 L 28 2 Z M 10 2"/>
    <path style="stroke:none;fill-rule:nonzero;fill:rgb(0%,0%,0%);fill-opacity:0.196078" d="M 30 14 L 40 24 L 40 14 Z M 30 14"/>
    <path style="stroke:none;fill-rule:nonzero;fill:rgb(100%,100%,100%);fill-opacity:0.392157" d="M 28 2 L 40 14 L 30 14 C 29.109375 14 28 12.890625 28 12 Z M 28 2"/>
    <path style="stroke:none;fill-rule:nonzero;fill:rgb(53.333333%,53.333333%,53.333333%);fill-opacity:1" d="M 16 18 L 16 24 L 12 24 L 12 26 L 16 26 L 16 30 L 12 30 L 12 32 L 16 32 L 16 38 L 18 38 L 18 32 L 22 32 L 22 38 L 24 38 L 24 32 L 28 32 L 28 30 L 24 30 L 24 26 L 28 26 L 28 24 L 24 24 L 24 18 L 22 18 L 22 24 L 18 24 L 18 18 Z M 18 26 L 22 26 L 22 30 L 18 30 Z M 18 26"/>
    <path style="stroke:none;fill-rule:nonzero;fill:rgb(53.333333%,53.333333%,53.333333%);fill-opacity:1" d="M 32 34 L 32 38 L 34 38 L 34 34 Z M 32 34"/>
    <path style="stroke:none;fill-rule:nonzero;fill:rgb(53.333333%,53.333333%,53.333333%);fill-opacity:1" d="M 32 32 L 34 32 L 34 18 L 32 18 Z M 32 32"/>
  </g>
</svg>
