<svg xmlns="http://www.w3.org/2000/svg" xmlns:xlink="http://www.w3.org/1999/xlink" viewBox="0 0 48 48" version="1.1" height="1em" width="1em">
  <g>
    <path style="stroke:none;fill-rule:nonzero;fill:rgb(86.27451%,86.27451%,86.27451%);fill-opacity:1" d="M 10 2 C 9.054688 2 8 3.054688 8 4 L 8 44 C 8 44.890625 9.109375 46 10 46 L 38 46 C 38.890625 46 39.984375 44.890625 40 44 L 40 14 L 28 2 Z M 10 2"/>
    <path style="stroke:none;fill-rule:nonzero;fill:rgb(32.941176%,32.941176%,32.941176%);fill-opacity:1" d="M 18 34 C 18 34.851562 18.21875 35.472656 18.640625 35.867188 C 19.0625 36.242188 19.6875 36.441406 20.5 36.457031 L 20.5 38.210938 C 19.125 38.191406 18.0625 37.832031 17.3125 37.128906 C 16.5625 36.425781 16.171875 35.425781 16.171875 34.132812 L 16.171875 30.332031 C 16.171875 29.464844 15.953125 28.855469 15.5 28.480469 C 15.03125 28.105469 14.375 27.921875 13.503906 27.921875 L 13.503906 26.15625 C 14.453125 26.136719 15.125 25.941406 15.546875 25.546875 C 15.96875 25.171875 16.171875 24.582031 16.171875 23.78125 L 16.171875 19.945312 C 16.171875 18.652344 16.578125 17.652344 17.359375 16.933594 C 18.140625 16.210938 19.1875 15.851562 20.5 15.851562 L 20.5 17.589844 C 18.84375 17.636719 18 18.472656 18 20.078125 L 18 23.78125 C 18 25.566406 17.203125 26.628906 15.578125 26.957031 L 15.578125 27.105469 C 17.203125 27.433594 18 28.496094 18 30.28125 L 18 34"/>
    <path style="stroke:none;fill-rule:nonzero;fill:rgb(32.941176%,32.941176%,32.941176%);fill-opacity:1" d="M 32.421875 26.957031 C 30.8125 26.628906 30 25.566406 30 23.78125 L 30 20.078125 C 30 18.472656 29.171875 17.636719 27.53125 17.589844 L 27.53125 15.851562 C 28.875 15.851562 29.921875 16.210938 30.671875 16.949219 C 31.4375 17.671875 31.828125 18.667969 31.828125 19.945312 L 31.828125 23.78125 C 31.828125 24.582031 32.046875 25.1875 32.46875 25.566406 C 32.890625 25.941406 33.578125 26.136719 34.527344 26.15625 L 34.527344 27.921875 C 33.640625 27.921875 32.96875 28.105469 32.515625 28.480469 C 32.0625 28.855469 31.828125 29.464844 31.828125 30.332031 L 31.828125 34.132812 C 31.828125 35.410156 31.453125 36.40625 30.703125 37.113281 C 29.96875 37.832031 28.90625 38.191406 27.53125 38.210938 L 27.53125 36.457031 C 28.34375 36.441406 28.953125 36.242188 29.375 35.867188 C 29.796875 35.472656 30 34.851562 30 34 L 30 30.28125 C 30 29.332031 30.203125 28.609375 30.59375 28.105469 C 31 27.613281 31.609375 27.269531 32.421875 27.105469 L 32.421875 26.957031"/>
    <path style="stroke:none;fill-rule:nonzero;fill:rgb(0%,0%,0%);fill-opacity:0.196078" d="M 30 14 L 40 24 L 40 14 Z M 30 14"/>
    <path style="stroke:none;fill-rule:nonzero;fill:rgb(100%,100%,100%);fill-opacity:0.392157" d="M 28 2 L 40 14 L 30 14 C 29.109375 14 28 12.890625 28 12 Z M 28 2"/>
  </g>
</svg>
