<svg xmlns="http://www.w3.org/2000/svg" xmlns:xlink="http://www.w3.org/1999/xlink" viewBox="0 0 192 192" height="1em" width="1em">
  <defs>
    <linearGradient id="a">
      <stop style="stop-color:#3e2723;stop-opacity:.2" offset="0"/>
      <stop style="stop-color:#3e2723;stop-opacity:0" offset="1"/>
    </linearGradient>
    <linearGradient id="b">
      <stop style="stop-color:#fff;stop-opacity:.1" offset="0"/>
      <stop style="stop-color:#fff;stop-opacity:0" offset="1"/>
    </linearGradient>
    <linearGradient xlink:href="#a" id="d" x1="45.774" y1="44" x2="172" y2="170.226" gradientUnits="userSpaceOnUse"/>
    <filter style="color-interpolation-filters:sRGB" id="e">
      <feFlood flood-opacity=".2" flood-color="#3E2723" result="flood"/>
      <feComposite in="flood" in2="SourceGraphic" operator="in" result="composite1"/>
      <feGaussianBlur in="composite1" stdDeviation="4" result="blur"/>
      <feOffset dx="4" dy="4" result="offset"/>
      <feComposite in="SourceGraphic" in2="offset" result="composite2"/>
    </filter>
    <filter style="color-interpolation-filters:sRGB" id="c">
      <feFlood flood-opacity=".12" flood-color="#000" result="flood"/>
      <feComposite in="flood" in2="SourceGraphic" operator="in" result="composite1"/>
      <feGaussianBlur in="composite1" stdDeviation="2" result="blur"/>
      <feOffset result="offset"/>
      <feComposite in="SourceGraphic" in2="offset" result="fbSourceGraphic"/>
      <feColorMatrix result="fbSourceGraphicAlpha" in="fbSourceGraphic" values="0 0 0 -1 0 0 0 0 -1 0 0 0 0 -1 0 0 0 0 1 0"/>
      <feFlood flood-opacity=".24" flood-color="#000" result="flood"/>
      <feComposite in2="fbSourceGraphic" in="flood" operator="in" result="composite1"/>
      <feGaussianBlur in="composite1" stdDeviation="2" result="blur"/>
      <feOffset dy="4" result="offset"/>
      <feComposite in2="offset" in="fbSourceGraphic" result="composite2"/>
    </filter>
    <radialGradient xlink:href="#b" id="f" cx="20" cy="880.362" fx="20" fy="880.362" r="76" gradientUnits="userSpaceOnUse" gradientTransform="matrix(2 2 -2 2 1740.725 -920.362)"/>
  </defs>
  <g transform="translate(0 -860.362)">
    <rect ry="12" rx="12" y="880.362" x="20" height="152" width="152" style="color:#000;clip-rule:nonzero;display:inline;overflow:visible;visibility:visible;opacity:1;isolation:auto;mix-blend-mode:normal;color-interpolation:sRGB;color-interpolation-filters:linearRGB;solid-color:#000;solid-opacity:1;fill:#ff5722;fill-opacity:1;fill-rule:evenodd;stroke:none;stroke-width:1;stroke-linecap:butt;stroke-linejoin:round;stroke-miterlimit:4;stroke-dasharray:none;stroke-dashoffset:0;stroke-opacity:1;color-rendering:auto;image-rendering:auto;shape-rendering:auto;text-rendering:auto;enable-background:accumulate;filter:url(#c)"/>
    <path style="opacity:1;fill:url(#d);fill-opacity:1" d="M124.088 44c-8.667 0-15.664 6.995-15.664 15.662v.002c0 1.253.21 2.452.47 3.652v.002L72.089 84.775h-.002c-2.82-2.61-6.524-4.228-10.648-4.228-8.667 0-15.665 6.995-15.665 15.662 0 4.697 2.066 8.894 5.329 11.762L115.13 172H160c6.648 0 12-5.352 12-12V85.48l-36.152-36.152C132.98 46.066 128.785 44 124.088 44z" transform="translate(0 860.362)"/>
    <path d="M32 880.362c-6.648 0-12 5.352-12 12v1c0-6.648 5.352-12 12-12h128c6.648 0 12 5.352 12 12v-1c0-6.648-5.352-12-12-12H32z" style="color:#000;clip-rule:nonzero;display:inline;overflow:visible;visibility:visible;opacity:.2;isolation:auto;mix-blend-mode:normal;color-interpolation:sRGB;color-interpolation-filters:linearRGB;solid-color:#000;solid-opacity:1;fill:#fff;fill-opacity:1;fill-rule:evenodd;stroke:none;stroke-width:1;stroke-linecap:butt;stroke-linejoin:round;stroke-miterlimit:4;stroke-dasharray:none;stroke-dashoffset:0;stroke-opacity:1;color-rendering:auto;image-rendering:auto;shape-rendering:auto;text-rendering:auto;enable-background:accumulate"/>
    <path d="M20 1019.362v1c0 6.648 5.352 12 12 12h128c6.648 0 12-5.352 12-12v-1c0 6.648-5.352 12-12 12H32c-6.648 0-12-5.352-12-12z" style="color:#000;clip-rule:nonzero;display:inline;overflow:visible;visibility:visible;opacity:.2;isolation:auto;mix-blend-mode:normal;color-interpolation:sRGB;color-interpolation-filters:linearRGB;solid-color:#000;solid-opacity:1;fill:#3e2723;fill-opacity:1;fill-rule:evenodd;stroke:none;stroke-width:1;stroke-linecap:butt;stroke-linejoin:round;stroke-miterlimit:4;stroke-dasharray:none;stroke-dashoffset:0;stroke-opacity:1;color-rendering:auto;image-rendering:auto;shape-rendering:auto;text-rendering:auto;enable-background:accumulate"/>
    <path d="M124.087 977.872c-3.968 0-7.518 1.566-10.233 4.02L76.63 960.226c.26-1.201.47-2.402.47-3.655 0-1.253-.21-2.454-.47-3.655l36.807-21.457c2.819 2.61 6.526 4.228 10.65 4.228a15.642 15.642 0 0 0 15.663-15.662 15.642 15.642 0 0 0-15.663-15.663 15.642 15.642 0 0 0-15.662 15.663c0 1.253.209 2.454.47 3.654l-36.808 21.458c-2.819-2.61-6.526-4.229-10.65-4.229a15.642 15.642 0 0 0-15.663 15.663 15.642 15.642 0 0 0 15.663 15.663c4.124 0 7.831-1.619 10.65-4.23l37.173 21.72a14.73 14.73 0 0 0-.418 3.393c0 8.406 6.84 15.245 15.245 15.245 8.406 0 15.245-6.84 15.245-15.245s-6.839-15.245-15.245-15.245z" style="fill:#fafafa;filter:url(#e)"/>
    <path transform="translate(0 860.362)" d="M139.725 60.162c-.265 8.432-7.14 15.164-15.637 15.164-4.125 0-7.831-1.62-10.65-4.23l-36.81 21.459c.066.3.11.601.167.902l36.642-21.361c2.82 2.61 6.526 4.23 10.65 4.23a15.642 15.642 0 0 0 15.663-15.664c0-.169-.02-.332-.025-.5zm-31.28.063c-.004.146-.021.29-.021.437 0 .94.136 1.849.305 2.752l.166-.098c-.222-1.02-.4-2.04-.45-3.091zM45.8 96.709c-.005.168-.026.331-.026.5 0 8.667 6.998 15.662 15.664 15.662 4.125 0 7.832-1.618 10.65-4.228l37.007 21.623c.054-.302.095-.61.166-.905l-37.172-21.718c-2.82 2.61-6.526 4.228-10.65 4.228-8.498 0-15.374-6.73-15.64-15.162zm31.281 0c-.046 1.073-.225 2.115-.451 3.154l.166.098c.169-.903.305-1.812.305-2.752 0-.168-.013-.334-.02-.5zm31.781 36.445c-.009.2-.02.401-.02.602 0 8.406 6.841 15.244 15.247 15.244 8.406 0 15.244-6.838 15.244-15.244 0-.169-.02-.333-.025-.5-.268 8.173-6.982 14.744-15.22 14.744-8.27 0-15.011-6.625-15.226-14.846z" style="fill:#3e2723;opacity:.2"/>
    <path d="M124.088 904.362c-8.667 0-15.664 6.996-15.664 15.662 0 .19.012.376.021.563.233-8.461 7.124-15.225 15.643-15.225 8.498 0 15.371 6.73 15.637 15.162.005-.167.025-.33.025-.5a15.64 15.64 0 0 0-15.662-15.662zm-15.36 19.414-36.64 21.362c-2.82-2.61-6.526-4.229-10.65-4.229-8.667 0-15.665 6.996-15.665 15.662 0 .17.02.333.026.5.265-8.432 7.14-15.162 15.639-15.162 4.124 0 7.83 1.618 10.65 4.229l36.807-21.46c-.066-.3-.11-.6-.166-.902zM76.796 953.82l-.166.098c.226 1.04.405 2.08.451 3.154.007-.166.02-.331.02-.5 0-.94-.136-1.848-.305-2.752zm0 6.504c-.056.3-.1.603-.166.903l37.225 21.666c2.714-2.454 6.266-4.02 10.234-4.02 8.237 0 14.952 6.573 15.219 14.746.005-.167.025-.33.025-.5 0-8.405-6.838-15.246-15.244-15.246-3.968 0-7.52 1.566-10.234 4.02l-37.06-21.569Zm32.299 30.305c-.147.819-.252 1.651-.252 2.49 0 .135.016.265.02.399a15.12 15.12 0 0 1 .398-2.793l-.166-.096z" style="fill:#fff"/>
  </g>
  <rect transform="translate(0 -860.362)" ry="12" rx="12" y="880.362" x="20" height="152" width="152" style="color:#000;clip-rule:nonzero;display:inline;overflow:visible;visibility:visible;opacity:1;isolation:auto;mix-blend-mode:normal;color-interpolation:sRGB;color-interpolation-filters:linearRGB;solid-color:#000;solid-opacity:1;fill:url(#f);fill-opacity:1;fill-rule:evenodd;stroke:none;stroke-width:1;stroke-linecap:butt;stroke-linejoin:round;stroke-miterlimit:4;stroke-dasharray:none;stroke-dashoffset:0;stroke-opacity:1;color-rendering:auto;image-rendering:auto;shape-rendering:auto;text-rendering:auto;enable-background:accumulate"/>
</svg>
