<svg xmlns="http://www.w3.org/2000/svg" viewBox="0 0 48 48" height="1em" width="1em">
  <path d="M46 1022.362v27.376c0 .9-.724 1.624-1.624 1.624H3.624A1.62 1.62 0 0 1 2 1049.738v-27.376z" style="fill:#000;fill-opacity:1;stroke:none;opacity:.15" transform="translate(0 -1004.362)"/>
  <path style="fill:#f6d753;fill-opacity:1;stroke:none" d="m2 1021.362 3.208-13.166c.459-.987.459-1.834 2.292-1.834h33c1.833 0 1.833.95 2.292 1.834L46 1021.362l-22 5.167z" transform="translate(0 -1004.362)"/>
  <path style="fill:#f4bd40;fill-opacity:1;stroke:none" d="M46 1021.362v27.376c0 .9-.724 1.624-1.624 1.624H3.624A1.62 1.62 0 0 1 2 1048.738v-27.376z" transform="translate(0 -1004.362)"/>
  <path style="opacity:.8;fill:#fff4d6;fill-opacity:1;stroke:none" d="M20 1006.362h8l2 24-6-5.666-6 5.666z" transform="translate(0 -1004.362)"/>
  <path style="opacity:.05;fill:#000;fill-opacity:1;stroke:none" d="M18.75 17 18 26l6-5.656L30 26l-.75-9h-10.5z"/>
</svg>
