<svg xmlns:dc="http://purl.org/dc/elements/1.1/" xmlns:cc="http://creativecommons.org/ns#" xmlns:rdf="http://www.w3.org/1999/02/22-rdf-syntax-ns#" xmlns:svg="http://www.w3.org/2000/svg" xmlns="http://www.w3.org/2000/svg" xmlns:xlink="http://www.w3.org/1999/xlink" xmlns:sodipodi="http://sodipodi.sourceforge.net/DTD/sodipodi-0.dtd" xmlns:inkscape="http://www.inkscape.org/namespaces/inkscape" viewBox="0 0 192 192" version="1.1" inkscape:version="0.91 r13725" sodipodi:docname="steam.svg" inkscape:export-filename="C:\createme\Material Design Icons\PNG\steam.png" inkscape:export-xdpi="90" inkscape:export-ydpi="90" height="1em" width="1em">
  <sodipodi:namedview pagecolor="#ffffff" bordercolor="#666666" borderopacity="1.0" inkscape:pageopacity="0.0" inkscape:pageshadow="2" inkscape:zoom="1" inkscape:cx="51.88526" inkscape:cy="205.55134" inkscape:document-units="px" inkscape:current-layer="layer2" showgrid="false" units="px" showguides="false" inkscape:window-width="1920" inkscape:window-height="1017" inkscape:window-x="-8" inkscape:window-y="-8" inkscape:window-maximized="1">
    <sodipodi:guide inkscape:color="rgb(0,0,255)" orientation="0,1" position="0,184"/>
    <sodipodi:guide inkscape:color="rgb(0,0,255)" orientation="1,0" position="8,0"/>
    <sodipodi:guide inkscape:color="rgb(0,0,255)" orientation="0,1" position="0,8"/>
    <sodipodi:guide inkscape:color="rgb(0,0,255)" orientation="1,0" position="184,0"/>
    <sodipodi:guide inkscape:color="rgb(0,0,255)" orientation="0,1" position="0,20"/>
    <sodipodi:guide inkscape:color="rgb(0,0,255)" orientation="1,0" position="172,0"/>
    <sodipodi:guide inkscape:color="rgb(0,0,255)" orientation="0,1" position="96,172"/>
    <sodipodi:guide inkscape:color="rgb(0,0,255)" orientation="1,0" position="20,0"/>
    <sodipodi:guide inkscape:color="rgb(0,0,255)" orientation="0,1" position="0,32"/>
    <sodipodi:guide inkscape:color="rgb(0,0,255)" orientation="1,0" position="160,0"/>
    <sodipodi:guide inkscape:color="rgb(0,0,255)" orientation="0,1" position="0,160"/>
    <sodipodi:guide inkscape:color="rgb(0,0,255)" orientation="1,0" position="32,0"/>
    <inkscape:grid type="xygrid"/>
    <sodipodi:guide inkscape:color="rgb(255,0,0)" orientation="-0.70710678,0.70710678" position="0,0"/>
    <sodipodi:guide inkscape:color="rgb(255,0,0)" orientation="1,0" position="124,0"/>
    <sodipodi:guide inkscape:color="rgb(255,0,0)" orientation="0.70710678,0.70710678" position="0,192"/>
    <sodipodi:guide inkscape:color="rgb(255,0,0)" orientation="1,0" position="96,0"/>
    <sodipodi:guide inkscape:color="rgb(255,0,0)" orientation="0,1" position="0,96"/>
    <sodipodi:guide inkscape:color="rgb(255,0,0)" orientation="0,1" position="0,124"/>
    <sodipodi:guide inkscape:color="rgb(255,0,0)" orientation="0,1" position="0,68"/>
    <sodipodi:guide inkscape:color="rgb(255,0,0)" orientation="1,0" position="68,0"/>
    <sodipodi:guide orientation="-192,0" position="192,0"/>
    <sodipodi:guide orientation="0,-192" position="192,192"/>
  </sodipodi:namedview>
  <defs>
    <linearGradient inkscape:collect="always" id="b">
      <stop style="stop-color:#ffffff;stop-opacity:1" offset="0"/>
      <stop style="stop-color:#ffffff;stop-opacity:0" offset="1"/>
    </linearGradient>
    <linearGradient inkscape:collect="always" id="a">
      <stop style="stop-color:#263238;stop-opacity:1" offset="0"/>
      <stop style="stop-color:#263238;stop-opacity:0" offset="1"/>
    </linearGradient>
    <filter id="c" inkscape:label="Drop Shadow" style="color-interpolation-filters:sRGB">
      <feFlood result="flood" flood-color="rgb(0,0,0)" flood-opacity="0.2"/>
      <feComposite result="composite1" operator="in" in2="SourceGraphic" in="flood"/>
      <feGaussianBlur result="blur" stdDeviation="2" in="composite1"/>
      <feOffset result="offset" dy="4" dx="4.57967e-015"/>
      <feComposite result="fbSourceGraphic" operator="over" in2="offset" in="SourceGraphic"/>
      <feColorMatrix result="fbSourceGraphicAlpha" in="fbSourceGraphic" values="0 0 0 -1 0 0 0 0 -1 0 0 0 0 -1 0 0 0 0 1 0"/>
      <feFlood flood-opacity="0.2" flood-color="rgb(0,0,0)" result="flood" in="fbSourceGraphic"/>
      <feComposite in2="fbSourceGraphic" in="flood" operator="in" result="composite1"/>
      <feGaussianBlur in="composite1" stdDeviation="2" result="blur"/>
      <feOffset dx="0" dy="0" result="offset"/>
      <feComposite in2="offset" in="fbSourceGraphic" operator="over" result="composite2"/>
    </filter>
    <linearGradient inkscape:collect="always" xlink:href="#a" id="d" x1="62.400249" y1="62.400249" x2="172" y2="172" gradientUnits="userSpaceOnUse"/>
    <filter style="color-interpolation-filters:sRGB" inkscape:label="Drop Shadow" id="e" height="1.3">
      <feFlood flood-opacity="0.20000000000000001" flood-color="rgb(38,50,56)" result="flood"/>
      <feComposite in="flood" in2="SourceGraphic" operator="in" result="composite1"/>
      <feGaussianBlur in="composite1" stdDeviation="4" result="blur"/>
      <feOffset dx="0" dy="4" result="offset"/>
      <feComposite in="SourceGraphic" in2="offset" operator="over" result="composite2"/>
    </filter>
    <clipPath clipPathUnits="userSpaceOnUse" id="f">
      <path d="m 32,880.36216 c -6,0 -12,6 -12,12 l 0,30.9707 c -2.530211,0.84538 -4.814244,2.27433 -6.835938,4.32227 C 9.7209864,931.14299 8,935.34772 8,940.26646 c 0,4.91864 1.7209864,9.1216 5.164062,12.60937 2.021694,2.04799 4.305727,3.47691 6.835938,4.32227 l 0,63.1641 c 0,6 6,12 12,12 l 128,0 c 6,0 12,-6 12,-12 l 0,-59.57035 c 1.78461,-1.03754 3.46101,-2.33015 5.02344,-3.89258 4.6504,-4.65038 6.97656,-10.28448 6.97656,-16.90234 0,-6.61786 -2.32616,-12.25197 -6.97656,-16.90235 -1.56243,-1.56246 -3.23883,-2.85504 -5.02344,-3.89258 l 0,-26.83984 c 0,-6 -6,-12 -12,-12 l -128,0 z" style="fill:#607d8b;fill-opacity:1;fill-rule:evenodd;stroke:none;stroke-width:1px;stroke-linecap:butt;stroke-linejoin:miter;stroke-opacity:1" inkscape:connector-curvature="0"/>
    </clipPath>
    <radialGradient inkscape:collect="always" xlink:href="#b" id="g" cx="20" cy="8" fx="20" fy="8" r="88" gradientTransform="matrix(-1.196281e-8,1.7272727,-1.7272727,-1.196281e-8,33.818182,-14.545455)" gradientUnits="userSpaceOnUse"/>
  </defs>
  <g inkscape:label="background" inkscape:groupmode="layer">
    <g style="filter:url(#c)">
      <path style="fill:#607d8b;fill-opacity:1;fill-rule:evenodd;stroke:none;stroke-width:1px;stroke-linecap:butt;stroke-linejoin:miter;stroke-opacity:1" d="m 32,20 128,0 c 6,0 12,6 12,12 l 0,128.00004 c 0,6 -6,12 -12,12 l -128,0 c -6,0 -12,-6 -12,-12 L 20,32 c 0,-6 6,-12 12,-12 z" inkscape:connector-curvature="0" sodipodi:nodetypes="ccccccccc"/>
      <path inkscape:connector-curvature="0" d="m 160.68945,56.324219 c -6.52844,0 -12.11718,2.304526 -16.76757,6.910156 -4.65039,4.60573 -7.01994,10.170769 -7.10938,16.699219 l -14.75586,21.330076 c -0.26829,0 -0.60342,-0.0223 -1.00586,-0.0664 -0.40243,-0.0451 -0.69417,-0.0664 -0.87305,-0.0664 -3.21949,0 -6.2593,0.84774 -9.12109,2.54687 L 50.257812,79.222656 c -0.04443,-0.04234 -0.09175,-0.08298 -0.136718,-0.125 -0.176397,-0.178762 -0.347692,-0.359778 -0.533203,-0.533203 -0.177665,-0.180133 -0.350193,-0.364347 -0.53711,-0.539062 -0.177556,-0.180018 -0.350313,-0.362503 -0.537109,-0.53711 -0.17858,-0.181141 -0.353083,-0.36535 -0.541016,-0.541015 -0.178837,-0.181425 -0.352797,-0.365084 -0.541015,-0.541016 -0.179451,-0.182102 -0.354069,-0.3664 -0.542969,-0.542969 -0.177912,-0.180572 -0.351861,-0.36393 -0.539063,-0.539062 -0.186169,-0.189163 -0.368097,-0.381255 -0.564453,-0.564453 -0.177331,-0.179736 -0.350565,-0.360815 -0.537109,-0.535157 -0.181566,-0.184386 -0.357581,-0.372064 -0.548828,-0.550781 -0.182273,-0.185163 -0.360701,-0.373287 -0.552735,-0.552734 -0.18038,-0.183242 -0.356934,-0.369232 -0.546875,-0.546875 -0.188338,-0.191539 -0.37349,-0.384885 -0.572265,-0.570313 -0.180117,-0.18275 -0.355288,-0.367744 -0.544922,-0.544922 -0.186032,-0.189125 -0.368243,-0.381288 -0.564453,-0.564453 -0.182436,-0.185314 -0.36052,-0.373145 -0.552735,-0.552734 -0.185311,-0.188473 -0.36513,-0.379944 -0.560546,-0.5625 -0.187211,-0.190432 -0.370835,-0.382015 -0.56836,-0.566406 -0.184565,-0.187646 -0.364009,-0.378768 -0.558594,-0.560547 -0.186903,-0.19021 -0.371168,-0.382222 -0.568359,-0.566406 -0.510255,-0.519273 -1.043924,-1.023684 -1.630859,-1.498047 -3.264218,-2.63816 -6.99989,-3.957032 -11.203125,-3.957032 -4.918683,0 -9.097939,1.742699 -12.541016,5.230469 -3.443076,3.48786 -5.1660156,7.692588 -5.1660156,12.611328 0,4.846194 1.6809996,8.994015 5.0234376,12.451172 C 15.5069,94.749687 17.645545,96.0493 20,96.835938 l 0,2.505859 c 0.07314,0.06637 0.14699,0.131702 0.21875,0.201172 0.07539,0.07883 0.139681,0.162117 0.216797,0.240234 0.102079,0.103407 0.211078,0.190674 0.314453,0.291017 0.08073,0.0846 0.149708,0.17402 0.232422,0.25781 0.104709,0.10607 0.216193,0.19598 0.322266,0.29883 0.07784,0.0815 0.144927,0.16733 0.224609,0.24805 0.106444,0.10783 0.220271,0.19824 0.328125,0.30273 0.07539,0.0788 0.139681,0.16211 0.216797,0.24024 0.100764,0.10206 0.20852,0.18802 0.310547,0.2871 0.08067,0.0846 0.149767,0.17409 0.232422,0.25782 0.102812,0.10415 0.212279,0.19193 0.316406,0.29297 0.07784,0.0815 0.144927,0.16733 0.224609,0.24804 0.104052,0.10541 0.214914,0.19466 0.320313,0.29688 0.07601,0.0795 0.140982,0.1634 0.21875,0.24219 0.103394,0.10473 0.213635,0.19332 0.318359,0.29492 0.07659,0.0801 0.142335,0.16475 0.220703,0.24414 0.105445,0.10681 0.217392,0.19724 0.324219,0.30078 0.07374,0.0771 0.137495,0.158 0.212891,0.23437 0.103476,0.10483 0.213551,0.19325 0.318359,0.29493 0.07533,0.0788 0.139742,0.16218 0.216797,0.24023 0.102818,0.10416 0.212273,0.19192 0.316406,0.29297 0.07533,0.0788 0.139743,0.16218 0.216797,0.24023 0.10216,0.10349 0.210995,0.1906 0.314453,0.29102 0.07539,0.0788 0.139681,0.16212 0.216797,0.24023 0.09779,0.0991 0.2018,0.18305 0.300781,0.2793 0.07909,0.0828 0.14752,0.16991 0.228516,0.25195 0.104709,0.10607 0.216193,0.19599 0.322265,0.29883 0.07186,0.075 0.133607,0.15414 0.207032,0.22852 0.09887,0.10015 0.204602,0.18397 0.304687,0.28125 0.07697,0.0805 0.141933,0.1663 0.220703,0.24609 0.101422,0.10274 0.2098,0.18935 0.3125,0.28906 0.07413,0.0775 0.137095,0.15955 0.212891,0.23633 0.100764,0.10208 0.20852,0.18802 0.310547,0.28711 0.07413,0.0775 0.137095,0.15955 0.21289,0.23633 0.103736,0.10508 0.215239,0.193 0.320313,0.29492 0.07093,0.074 0.130669,0.15317 0.203125,0.22656 0.09689,0.0982 0.200765,0.18 0.298828,0.27539 0.07691,0.0805 0.14199,0.16636 0.220703,0.2461 0.102154,0.10348 0.211002,0.1906 0.314453,0.29101 0.07123,0.0744 0.13231,0.15285 0.205078,0.22657 0.0959,0.0971 0.197883,0.179 0.294922,0.27343 0.07658,0.0801 0.142335,0.16476 0.220703,0.24414 0.09879,0.10008 0.204683,0.18405 0.304688,0.28125 0.07345,0.0767 0.135854,0.15832 0.210937,0.23438 0.09845,0.0997 0.20308,0.18437 0.302735,0.28125 0.07312,0.0764 0.136199,0.15671 0.210937,0.23242 0.09879,0.10008 0.204683,0.18405 0.304688,0.28125 0.07224,0.0754 0.133207,0.15569 0.207031,0.23047 0.100764,0.10207 0.20852,0.18802 0.310547,0.28711 0.07003,0.0731 0.12966,0.15021 0.201172,0.22266 0.0945,0.0957 0.195401,0.17642 0.291015,0.26953 0.07538,0.0788 0.139687,0.16212 0.216797,0.24023 0.09714,0.0984 0.200521,0.18172 0.298828,0.27734 0.07249,0.0757 0.134903,0.15543 0.208985,0.23047 0.09682,0.0981 0.200844,0.18007 0.298828,0.27539 0.07219,0.0754 0.133261,0.15574 0.207031,0.23047 0.09557,0.0968 0.198213,0.17736 0.294922,0.27149 0.07282,0.0761 0.134557,0.15703 0.208984,0.23242 0.09682,0.0981 0.200843,0.18007 0.298829,0.27539 0.07098,0.0741 0.130617,0.15311 0.203124,0.22656 0.09879,0.10008 0.204683,0.18405 0.304688,0.28125 0.06877,0.0717 0.127069,0.14764 0.197266,0.21875 0.09253,0.0937 0.19156,0.17246 0.285156,0.26367 0.07413,0.0775 0.137096,0.15955 0.21289,0.23633 0.09516,0.0964 0.196681,0.17775 0.292969,0.27149 0.07123,0.0743 0.13231,0.15285 0.205078,0.22656 0.09516,0.0964 0.196681,0.17775 0.292969,0.27148 0.0706,0.0737 0.131014,0.15157 0.203125,0.22461 0.09392,0.0951 0.19405,0.17504 0.289063,0.26758 0.07123,0.0743 0.13231,0.15285 0.205078,0.22656 0.09485,0.0961 0.197004,0.1761 0.292968,0.26953 0.06972,0.0727 0.128025,0.15054 0.199219,0.22266 0.09714,0.0984 0.200521,0.18172 0.298828,0.27734 0.06717,0.07 0.124823,0.14346 0.19336,0.2129 0.09056,0.0917 0.187718,0.16848 0.279297,0.25781 0.07287,0.0761 0.134503,0.15697 0.208984,0.23242 0.09319,0.0944 0.19284,0.17378 0.287109,0.26562 0.06997,0.073 0.129718,0.15028 0.201172,0.22266 0.09319,0.0944 0.192841,0.17378 0.28711,0.26563 0.06934,0.0723 0.128421,0.14898 0.199218,0.2207 0.09253,0.0937 0.191561,0.17246 0.285157,0.26367 0.06934,0.0723 0.128421,0.14899 0.199218,0.2207 0.09319,0.0944 0.192841,0.17378 0.28711,0.26563 0.06813,0.071 0.125778,0.14636 0.195312,0.2168 0.09253,0.0937 0.191561,0.17245 0.285156,0.26367 0.06871,0.0716 0.127126,0.1477 0.197266,0.21875 0.09457,0.0958 0.19533,0.17636 0.291016,0.26953 0.06586,0.0686 0.122285,0.14094 0.189453,0.20898 0.08931,0.0905 0.185084,0.16578 0.275391,0.25391 0.07035,0.0734 0.12932,0.15182 0.201171,0.22461 0.09122,0.0924 0.188999,0.16981 0.28125,0.25976 0.06808,0.071 0.125829,0.14642 0.195313,0.2168 0.09122,0.0924 0.188999,0.16981 0.28125,0.25977 0.0675,0.0703 0.124483,0.14507 0.193359,0.21484 0.0945,0.0957 0.195401,0.17643 0.291016,0.26953 0.06396,0.0666 0.118396,0.13708 0.183594,0.20313 0.08766,0.0888 0.180919,0.16346 0.269531,0.25 0.06997,0.073 0.129718,0.15027 0.201172,0.22265 0.09385,0.0951 0.19412,0.17511 0.289062,0.26758 0.06333,0.0659 0.117101,0.13579 0.181641,0.20117 0.09063,0.0918 0.187645,0.16842 0.279297,0.25782 0.06619,0.0689 0.12194,0.14254 0.189453,0.21093 0.087,0.0881 0.179639,0.16215 0.267578,0.24805 0.06876,0.0717 0.127074,0.14765 0.197266,0.21875 0.09253,0.0937 0.19156,0.17246 0.285156,0.26367 0.06333,0.0659 0.1171,0.1358 0.181641,0.20117 0.08568,0.0868 0.177076,0.15951 0.263671,0.24414 0.06934,0.0723 0.128422,0.14899 0.199219,0.22071 0.08799,0.0891 0.182529,0.16314 0.271484,0.25 0.06624,0.069 0.121892,0.14249 0.189454,0.21094 0.08824,0.0894 0.182271,0.16485 0.271484,0.25195 0.06586,0.0686 0.122285,0.14094 0.189453,0.20898 0.08997,0.0911 0.18637,0.16711 0.277344,0.25586 0.06338,0.0659 0.117048,0.13574 0.181641,0.20117 0.08693,0.0881 0.179709,0.16221 0.267578,0.24805 0.06591,0.0686 0.122231,0.14088 0.189453,0.20899 0.08364,0.0847 0.173301,0.15561 0.257812,0.23828 0.06871,0.0716 0.127125,0.1477 0.197266,0.21875 0.08602,0.0871 0.178686,0.15918 0.265625,0.24414 0.06556,0.0683 0.120644,0.14126 0.1875,0.20898 0.09022,0.0914 0.186114,0.16882 0.277344,0.25781 0.0611,0.0635 0.113556,0.13033 0.175781,0.19336 0.08371,0.0848 0.173233,0.15555 0.257812,0.23828 0.06687,0.0697 0.123187,0.14379 0.191407,0.2129 0.08595,0.0871 0.17875,0.15924 0.265625,0.24414 0.0643,0.0669 0.118051,0.13868 0.183593,0.20507 0.08561,0.0867 0.177147,0.15957 0.263672,0.24414 0.06396,0.0666 0.118397,0.13709 0.183594,0.20313 0.08561,0.0867 0.177146,0.15957 0.263672,0.24414 0.06338,0.0659 0.117053,0.13575 0.18164,0.20117 0.08859,0.0897 0.183876,0.16453 0.273438,0.25195 0.06017,0.0625 0.110619,0.12936 0.171875,0.19141 0.08173,0.0828 0.169389,0.15159 0.251953,0.23242 0.06619,0.0689 0.12194,0.14255 0.189453,0.21094 0.0843,0.0854 0.174583,0.15693 0.259766,0.24023 0.06333,0.0659 0.1171,0.1358 0.181641,0.20118 0.08699,0.0881 0.179644,0.16215 0.267578,0.24804 0.05983,0.0622 0.110964,0.12776 0.171875,0.18946 0.08436,0.0855 0.174514,0.15686 0.259765,0.24023 0.06207,0.0645 0.114508,0.13322 0.177735,0.19727 0.08371,0.0848 0.173233,0.15554 0.257812,0.23828 0.06211,0.0646 0.114457,0.13316 0.177735,0.19726 0.0797,0.0807 0.165608,0.1477 0.246093,0.22657 0.06556,0.0683 0.120644,0.14126 0.1875,0.20898 0.08627,0.0874 0.178428,0.16089 0.265625,0.24609 0.05857,0.0608 0.108372,0.12518 0.167969,0.18555 0.08008,0.0811 0.165221,0.14929 0.246094,0.22852 0.06401,0.0666 0.11835,0.13703 0.183593,0.20312 0.08233,0.0834 0.170738,0.15298 0.253907,0.23438 0.06143,0.0639 0.113211,0.13193 0.175781,0.19531 0.08167,0.0827 0.169455,0.15165 0.251953,0.23242 0.06143,0.0639 0.113212,0.13193 0.175781,0.19531 0.08198,0.083 0.169133,0.15331 0.251954,0.23438 0.06051,0.0629 0.112216,0.12899 0.173828,0.19141 0.0843,0.0854 0.174583,0.15693 0.259765,0.24023 0.05798,0.0602 0.107028,0.12384 0.166016,0.18359 0.0781,0.0791 0.161375,0.14534 0.240234,0.22266 0.06333,0.0659 0.117101,0.13579 0.181641,0.20117 0.08067,0.0817 0.166568,0.15067 0.248047,0.23047 0.06047,0.0628 0.11226,0.12904 0.173828,0.19141 0.08304,0.0841 0.171957,0.15423 0.255859,0.23632 0.05734,0.0595 0.105733,0.12256 0.164063,0.18165 0.08008,0.0811 0.165222,0.14928 0.246093,0.22851 0.05988,0.0622 0.110916,0.1277 0.171876,0.18945 0.07607,0.0771 0.157589,0.14145 0.234374,0.2168 0.06333,0.0659 0.117101,0.13579 0.181641,0.20117 0.0791,0.0801 0.164266,0.14633 0.244141,0.22461 0.05958,0.0619 0.109278,0.12802 0.169922,0.18946 0.07935,0.0804 0.164003,0.14803 0.24414,0.22656 0.0592,0.0615 0.109668,0.12646 0.169922,0.1875 0.08173,0.0828 0.169394,0.15159 0.251953,0.23242 0.05603,0.0581 0.103187,0.12002 0.160157,0.17773 0.07613,0.0771 0.157528,0.14139 0.234374,0.2168 0.06084,0.0632 0.111871,0.1306 0.173829,0.19336 0.0787,0.0797 0.16272,0.14671 0.242187,0.22461 0.05797,0.0602 0.107033,0.12384 0.166016,0.18359 0.08101,0.0821 0.168173,0.15034 0.25,0.23047 0.05544,0.0575 0.101845,0.11869 0.158203,0.17578 0.07481,0.0758 0.154962,0.13876 0.230469,0.21289 0.0608,0.0632 0.111915,0.13065 0.173828,0.19336 0.08101,0.0821 0.168173,0.15034 0.25,0.23047 0.05412,0.0561 0.0993,0.11616 0.154297,0.17188 0.07447,0.0754 0.153357,0.13908 0.228515,0.21289 0.05988,0.0622 0.11092,0.1277 0.171875,0.18945 0.07672,0.0777 0.158873,0.14276 0.236328,0.21875 0.0573,0.0595 0.105779,0.1226 0.164063,0.18164 0.07607,0.0771 0.157589,0.14144 0.234375,0.2168 0.0573,0.0594 0.105779,0.1226 0.164062,0.18164 0.07672,0.0777 0.158873,0.14276 0.236329,0.21875 0.05607,0.0581 0.103145,0.11998 0.160156,0.17773 0.07607,0.0771 0.157589,0.14145 0.234375,0.2168 0.05666,0.0588 0.104483,0.12131 0.162109,0.17969 0.07481,0.0758 0.154967,0.13876 0.230469,0.21289 0.0567,0.0588 0.104441,0.12127 0.162109,0.17969 0.07541,0.0764 0.156306,0.14012 0.232422,0.21484 0.05603,0.0581 0.103187,0.12002 0.160156,0.17773 0.07475,0.0757 0.155023,0.13882 0.230469,0.21289 0.05603,0.0581 0.103187,0.12003 0.160156,0.17774 0.07441,0.0754 0.153418,0.13914 0.228516,0.21289 0.05569,0.0577 0.103532,0.11842 0.160156,0.17578 0.07475,0.0757 0.155023,0.13881 0.230469,0.21289 0.0548,0.0568 0.100554,0.11741 0.15625,0.17383 0.07707,0.0781 0.160477,0.14243 0.238281,0.21875 0.05225,0.0541 0.09537,0.11225 0.148438,0.16602 0.07052,0.0714 0.145658,0.13119 0.216797,0.20117 0.05793,0.0601 0.107075,0.12388 0.166015,0.18359 0.07344,0.0744 0.152456,0.13618 0.226563,0.20898 0.05476,0.0568 0.100594,0.11745 0.15625,0.17383 0.07278,0.0737 0.151172,0.13487 0.224609,0.20703 0.05476,0.0568 0.100594,0.11746 0.15625,0.17383 0.07217,0.0731 0.149835,0.1335 0.222656,0.20508 0.05476,0.0568 0.100594,0.11745 0.15625,0.17383 0.07212,0.0731 0.149889,0.13355 0.222657,0.20508 0.05412,0.0561 0.0993,0.11616 0.154296,0.17187 0.07541,0.0764 0.156307,0.14013 0.232422,0.21485 0.05064,0.0524 0.09312,0.10807 0.144532,0.16015 0.06855,0.0694 0.141807,0.12726 0.210937,0.19531 0.05666,0.0588 0.104483,0.12132 0.162109,0.17969 0.07146,0.0724 0.148605,0.13224 0.220704,0.20313 0.05348,0.0554 0.098,0.11487 0.152343,0.16992 0.07112,0.072 0.147,0.13257 0.21875,0.20312 0.05315,0.055 0.09835,0.11327 0.152344,0.16797 0.0702,0.0711 0.145985,0.12956 0.216797,0.19922 0.05348,0.0554 0.098,0.11488 0.152344,0.16992 0.06986,0.0708 0.144379,0.12989 0.214844,0.19922 0.05315,0.0551 0.09835,0.11327 0.152343,0.16797 0.07344,0.0744 0.152456,0.13618 0.226563,0.20898 0.04937,0.051 0.09053,0.10551 0.140625,0.15626 0.06723,0.0681 0.13924,0.12463 0.207031,0.1914 0.0548,0.0568 0.100554,0.11741 0.15625,0.17383 0.06949,0.0704 0.144753,0.12829 0.214844,0.19727 0.05221,0.0541 0.09541,0.11229 0.148437,0.16601 0.06915,0.0701 0.143147,0.12863 0.212891,0.19727 0.05188,0.0537 0.09575,0.11069 0.148437,0.16406 0.06883,0.0697 0.143469,0.12698 0.212891,0.19531 0.05157,0.0534 0.09411,0.11101 0.146484,0.16406 0.06915,0.07 0.143148,0.12863 0.212891,0.19727 0.05064,0.0524 0.09313,0.10808 0.144531,0.16016 0.07146,0.0724 0.148605,0.13223 0.220703,0.20312 0.04809,0.0497 0.08794,0.10293 0.136719,0.15234 0.06455,0.0654 0.134155,0.11944 0.199219,0.1836 0.05416,0.0561 0.09926,0.11612 0.154297,0.17187 0.06783,0.0687 0.140578,0.126 0.208984,0.19336 0.0506,0.0524 0.09316,0.10812 0.144531,0.16016 0.06718,0.068 0.139294,0.12468 0.207032,0.19141 0.0506,0.0524 0.09316,0.10811 0.144531,0.16015 0.06718,0.068 0.139294,0.12469 0.207031,0.19141 0.04997,0.0517 0.09187,0.10683 0.142578,0.1582 0.07046,0.0714 0.145716,0.13125 0.216797,0.20117 0.04644,0.048 0.08573,0.0988 0.132813,0.14649 0.06328,0.0641 0.131534,0.11676 0.195312,0.17968 0.05285,0.0547 0.09671,0.11359 0.150391,0.16797 0.0692,0.0701 0.143095,0.12858 0.21289,0.19727 0.04644,0.048 0.08573,0.0988 0.132813,0.14648 0.06294,0.0638 0.129928,0.1171 0.193359,0.17969 0.05191,0.0537 0.09572,0.11066 0.148438,0.16406 0.06586,0.0667 0.136724,0.12206 0.203125,0.1875 0.04873,0.0504 0.08924,0.10422 0.138672,0.1543 0.06552,0.0664 0.135119,0.12239 0.201171,0.1875 0.04839,0.05 0.08958,0.10262 0.138672,0.15234 0.06818,0.0691 0.142185,0.12567 0.210938,0.19336 0.04553,0.047 0.08276,0.0978 0.128906,0.14453 0.06092,0.0617 0.126122,0.11322 0.1875,0.17383 0.05188,0.0537 0.09575,0.11069 0.148438,0.16407 0.0642,0.065 0.132549,0.11976 0.197265,0.18359 0.04836,0.05 0.08962,0.10265 0.138672,0.15234 0.06657,0.0674 0.13796,0.12333 0.205078,0.18946 0.0452,0.0466 0.0831,0.0962 0.128907,0.14257 0.06426,0.0651 0.132496,0.11972 0.197265,0.1836 0.04708,0.0486 0.08703,0.10007 0.134766,0.14844 0.06031,0.0611 0.124788,0.11185 0.185547,0.17187 0.0506,0.0524 0.09316,0.10812 0.144531,0.16016 0.06228,0.0631 0.128647,0.11579 0.191406,0.17773 0.04772,0.0493 0.08832,0.10137 0.136719,0.15039 0.06652,0.0674 0.138009,0.12337 0.205078,0.18945 0.04324,0.0446 0.07925,0.0924 0.123047,0.13672 0.05899,0.0598 0.122218,0.10924 0.181641,0.16797 0.04997,0.0517 0.09186,0.10684 0.142578,0.15821 0.06223,0.063 0.128693,0.11583 0.191406,0.17773 0.04644,0.048 0.08573,0.0988 0.132812,0.14648 0.06157,0.0624 0.127408,0.11453 0.189454,0.17579 0.04644,0.048 0.08573,0.0988 0.132812,0.14648 0.06126,0.062 0.127729,0.11288 0.189453,0.17383 0.04614,0.0476 0.08409,0.0991 0.130859,0.14648 0.06157,0.0624 0.127408,0.11453 0.189454,0.17578 0.04519,0.0466 0.0831,0.0962 0.128906,0.14258 0.06092,0.0617 0.126122,0.11321 0.1875,0.17383 0.0458,0.0473 0.08443,0.0975 0.130859,0.14453 0.06355,0.0644 0.131264,0.11846 0.195313,0.18164 0.0423,0.0436 0.07826,0.0894 0.121094,0.13281 0.05733,0.0581 0.11804,0.10696 0.175781,0.16407 0.04775,0.0493 0.08829,0.10133 0.136719,0.15039 0.06026,0.061 0.124836,0.1119 0.185546,0.17187 0.04455,0.046 0.08181,0.0949 0.126954,0.14063 0.06289,0.0637 0.129978,0.11714 0.193359,0.17968 0.04166,0.0429 0.07697,0.0881 0.119141,0.13086 0.05602,0.0567 0.115469,0.10434 0.171874,0.16016 0.04772,0.0493 0.08832,0.10137 0.136719,0.15039 0.05894,0.0597 0.122265,0.10928 0.181641,0.16797 0.04391,0.0453 0.08051,0.0936 0.125,0.13867 0.05894,0.0597 0.122265,0.10928 0.18164,0.16797 0.04388,0.0453 0.08055,0.0936 0.125,0.13867 0.05829,0.0591 0.12098,0.10797 0.179688,0.16602 0.04388,0.0453 0.08054,0.0936 0.125,0.13867 0.05794,0.0587 0.119373,0.10831 0.177734,0.16602 0.04355,0.0449 0.08089,0.092 0.125,0.13671 0.05763,0.0584 0.119694,0.10667 0.177735,0.16407 0.04324,0.0446 0.07925,0.0923 0.123047,0.13672 0.06092,0.0617 0.126122,0.11321 0.1875,0.17382 0.0397,0.0409 0.07311,0.0843 0.113281,0.125 0.05404,0.0548 0.111612,0.10041 0.166015,0.1543 0.0458,0.0473 0.08443,0.0975 0.13086,0.14453 0.06026,0.061 0.124837,0.1119 0.185547,0.17188 0.03909,0.0402 0.07178,0.083 0.111328,0.12304 0.05631,0.0571 0.117121,0.10405 0.173828,0.16016 0.04264,0.044 0.07792,0.091 0.121094,0.13477 0.05636,0.0571 0.117075,0.104 0.173828,0.16015 0.04199,0.0433 0.07662,0.0897 0.119141,0.13281 0.05272,0.0534 0.109038,0.0978 0.162109,0.15039 0.04516,0.0466 0.08314,0.0962 0.128906,0.14258 0.05504,0.0558 0.114507,0.10139 0.169922,0.15625 0.04196,0.0433 0.07666,0.0898 0.119141,0.13282 0.05829,0.059 0.120979,0.10797 0.179687,0.16601 0.03845,0.0396 0.07049,0.0817 0.109375,0.12109 0.05207,0.0528 0.107752,0.0965 0.160156,0.14844 0.04391,0.0453 0.08051,0.0936 0.125,0.13867 0.055,0.0557 0.114548,0.10143 0.169922,0.15625 0.04071,0.0419 0.07403,0.0872 0.115235,0.12891 0.05466,0.0554 0.112941,0.10176 0.167968,0.15625 0.04037,0.0416 0.07438,0.0856 0.115235,0.12695 0.05763,0.0584 0.119693,0.10667 0.177734,0.16407 0.03713,0.0382 0.06793,0.0791 0.105469,0.11718 0.05041,0.0511 0.103571,0.0942 0.154297,0.14453 0.04354,0.0449 0.08089,0.092 0.125,0.13672 0.05306,0.0538 0.110648,0.0975 0.164062,0.15039 0.04007,0.0413 0.07274,0.0859 0.113282,0.12696 0.05303,0.0537 0.110687,0.0975 0.164062,0.15039 0.04004,0.0412 0.07277,0.0859 0.113281,0.12695 0.05268,0.0534 0.109081,0.0978 0.16211,0.15039 0.0397,0.0409 0.07311,0.0843 0.113281,0.125 0.05237,0.053 0.109401,0.0962 0.162109,0.14844 0.0394,0.0406 0.07147,0.0846 0.111328,0.125 0.05237,0.0531 0.109401,0.0962 0.16211,0.14844 0.03878,0.0399 0.07014,0.0833 0.109375,0.12304 0.055,0.0557 0.114548,0.10143 0.169922,0.15625 0.03588,0.0369 0.0653,0.0766 0.101562,0.11328 0.04878,0.0494 0.101318,0.09 0.150391,0.13868 0.04135,0.0426 0.07533,0.0885 0.117187,0.13086 0.05137,0.052 0.106507,0.0952 0.158203,0.14648 0.03842,0.0395 0.07052,0.0817 0.109375,0.12109 0.05071,0.0514 0.10522,0.0939 0.15625,0.14453 0.03842,0.0395 0.07052,0.0817 0.109375,0.1211 0.05009,0.0507 0.103895,0.0926 0.154297,0.14258 0.03842,0.0395 0.07052,0.0817 0.109375,0.12109 0.04943,0.0501 0.102608,0.0913 0.152344,0.14063 0.03842,0.0395 0.07052,0.0817 0.109375,0.12109 0.05368,0.0544 0.111974,0.0988 0.166016,0.15234 0.03392,0.0349 0.06145,0.0727 0.0957,0.10743 0.04646,0.0471 0.09585,0.0864 0.142578,0.13281 0.04034,0.0416 0.07441,0.0856 0.115234,0.12695 0.002,0.002 0.0039,0.004 0.0059,0.006 L 160,172 c 6,0 12,-6 12,-12 l 0,-59.57031 c 1.78461,-1.037544 3.46101,-2.330149 5.02344,-3.892581 C 181.67384,91.886729 184,86.252626 184,79.634766 c 0,-6.491531 -2.24416,-12.034365 -6.71875,-16.632813 -4.59013,-4.446895 -10.12038,-6.675781 -16.5918,-6.675781 l 0,-0.002 z" style="display:inline;opacity:0.2;fill:url(#d);fill-opacity:1"/>
      <path style="display:inline;fill:#e0e0e0;fill-opacity:1;filter:url(#e)" d="m 160.121,916.11813 c -6.52844,0 -12.11765,2.30372 -16.76804,6.90935 -4.65039,4.60573 -7.01948,10.17121 -7.10892,16.69966 l -14.75564,21.33062 c -0.26829,0 -0.60474,-0.024 -1.00718,-0.0681 -0.40243,-0.0451 -0.69336,-0.0661 -0.87224,-0.0661 -3.21949,0 -6.25952,0.84911 -9.12131,2.54824 L 43.145615,936.37585 c -0.89431,-4.02437 -2.97247,-7.35733 -6.236683,-9.99548 -3.264218,-2.63816 -6.998927,-3.95638 -11.202162,-3.95638 -4.918683,0 -9.09873,1.74368 -12.541807,5.23145 C 9.7218869,931.1433 8,935.347 8,940.26574 c 0,4.91864 1.7218869,9.12244 5.164963,12.61021 3.443077,3.48786 7.623124,5.23144 12.541807,5.23144 3.219499,0 6.26149,-0.85101 9.123269,-2.55013 l 67.340101,26.965 c 0.8943,4.0244 2.95264,7.3771 6.17214,10.06 3.21952,2.6829 6.97404,4.0249 11.2667,4.0249 4.56097,0 8.5411,-1.5438 11.93946,-4.6292 3.39837,-3.0853 5.3221,-6.9071 5.76927,-11.4681 L 160.121,963.87474 c 6.61787,0 12.2526,-2.32554 16.90298,-6.97593 4.6504,-4.65038 6.97593,-10.28316 6.97593,-16.90102 0,-6.61786 -2.32553,-12.25254 -6.97593,-16.90292 -4.65038,-4.65049 -10.28511,-6.97593 -16.90298,-6.97593 z" clip-path="url(#f)" inkscape:connector-curvature="0" transform="translate(0,-860.36216)"/>
      <g style="display:inline" transform="translate(0,-860.36216)">
        <path inkscape:connector-curvature="0" transform="translate(0,860.36216)" d="m 160.12109,55.755859 c -6.52844,0 -12.11718,2.304527 -16.76757,6.910157 -4.65039,4.60573 -7.01994,10.170768 -7.10938,16.699218 l -14.75586,21.330076 c -0.26829,0 -0.60537,-0.0243 -1.00781,-0.0684 -0.40243,-0.0451 -0.69222,-0.0664 -0.87109,-0.0664 -3.21949,0 -6.25931,0.8497 -9.1211,2.54883 L 43.146484,76.013672 c -0.89431,-4.02437 -2.974068,-7.357944 -6.238281,-9.996094 -3.264218,-2.63816 -6.997937,-3.955078 -11.201172,-3.955078 -4.918683,0 -9.099892,1.742699 -12.542969,5.230469 C 9.7209864,70.780829 8,74.985557 8,79.904297 c 0,0.169782 0.017381,0.331922 0.021484,0.5 0.1146492,-4.701526 1.8182224,-8.743733 5.142578,-12.111328 3.443077,-3.48777 7.624286,-5.230469 12.542969,-5.230469 4.203235,0 7.936954,1.316918 11.201172,3.955078 3.264213,2.63815 5.343971,5.971724 6.238281,9.996094 l 67.341796,27.095708 c 2.86179,-1.69913 5.90161,-2.54883 9.1211,-2.54883 0.17887,0 0.46866,0.0213 0.87109,0.0664 0.40244,0.0441 0.73952,0.0684 1.00781,0.0684 l 14.75586,-21.330076 c 0.0894,-6.52845 2.45899,-12.093488 7.10938,-16.699218 4.65039,-4.60563 10.23913,-6.910157 16.76757,-6.910157 6.61787,0 12.25197,2.326073 16.90235,6.976563 4.5321,4.532084 6.84954,10.001576 6.96484,16.402344 0.003,-0.166807 0.0117,-0.331923 0.0117,-0.5 0,-6.61786 -2.32616,-12.251964 -6.97656,-16.902344 -4.65038,-4.65049 -10.28448,-6.976563 -16.90235,-6.976563 z" clip-path="none" style="display:inline;opacity:0.2;fill:#ffffff;fill-opacity:1"/>
        <path inkscape:connector-curvature="0" transform="translate(0,860.36216)" d="m 183.98828,80.134766 c -0.11512,6.401018 -2.43255,11.870071 -6.96484,16.402343 -4.65038,4.650391 -10.28448,6.974611 -16.90235,6.974611 l -22.80273,16.63672 c -0.44717,4.561 -2.37116,8.38149 -5.76953,11.46679 -3.39836,3.0854 -7.37849,4.62891 -11.93945,4.62891 -4.29266,0 -8.04806,-1.34054 -11.26758,-4.02344 -3.2195,-2.6829 -5.27758,-6.03614 -6.17188,-10.06054 L 34.830078,95.195312 c -2.861779,1.69912 -5.903548,2.550782 -9.123047,2.550782 -4.918683,0 -9.099892,-1.744562 -12.542969,-5.232422 C 9.8398346,89.146293 8.1362526,85.105507 8.0214844,80.404297 8.01739,80.572199 8,80.734694 8,80.904297 c 0,4.91864 1.7209864,9.121605 5.164062,12.609375 3.443077,3.48786 7.624286,5.232422 12.542969,5.232422 3.219499,0 6.261268,-0.851662 9.123047,-2.550782 l 67.339842,26.964848 c 0.8943,4.0244 2.95238,7.37764 6.17188,10.06054 3.21952,2.6829 6.97492,4.02344 11.26758,4.02344 4.56096,0 8.54109,-1.54351 11.93945,-4.62891 3.39837,-3.0853 5.32236,-6.90579 5.76953,-11.46679 l 22.80273,-16.63672 c 6.61787,0 12.25197,-2.32422 16.90235,-6.974611 C 181.67384,92.886729 184,87.252626 184,80.634766 c 0,-0.168345 -0.009,-0.332929 -0.0117,-0.5 z" clip-path="none" style="display:inline;opacity:0.2;fill:#263238;fill-opacity:1"/>
      </g>
      <path style="opacity:0.2;fill:#263238;fill-opacity:1;fill-rule:evenodd;stroke:none;stroke-width:1px;stroke-linecap:butt;stroke-linejoin:miter;stroke-opacity:1" d="m 20,159 0,1 c 0,6 6,12 12,12 l 128,0 c 6,0 12,-6 12,-12 l 0,-1 c 0,6 -6,12 -12,12 l -128,0 c -6,0 -12,-6 -12,-12 z" inkscape:connector-curvature="0"/>
    </g>
  </g>
  <g inkscape:label="finish" inkscape:groupmode="layer" sodipodi:insensitive="true">
    <path inkscape:connector-curvature="0" d="m 32,20 c -6,0 -12,6 -12,12 l 0,1 c 0,-6 6,-12 12,-12 l 128,0 c 6,0 12,6 12,12 l 0,-1 c 0,-6 -6,-12 -12,-12 L 32,20 Z" style="opacity:0.1;fill:#ffffff;fill-opacity:1;fill-rule:evenodd;stroke:none;stroke-width:1px;stroke-linecap:butt;stroke-linejoin:miter;stroke-opacity:1"/>
    <path style="opacity:0.1;fill:url(#g);fill-opacity:1;fill-rule:evenodd;stroke:none;stroke-width:1px;stroke-linecap:butt;stroke-linejoin:miter;stroke-opacity:1" d="m 32,20 c -6,0 -12,6 -12,12 l 0,30.970703 c -2.530211,0.845378 -4.814244,2.274329 -6.835938,4.322266 C 9.7209864,70.780829 8,74.985557 8,79.904297 c 0,4.91864 1.7209864,9.121605 5.164062,12.609375 2.021694,2.047989 4.305727,3.476907 6.835938,4.322266 L 20,160 c 0,6 6,12 12,12 l 128,0 c 6,0 12,-6 12,-12 l 0,-59.57031 c 1.78461,-1.037542 3.46101,-2.330149 5.02344,-3.892581 C 181.67384,91.886729 184,86.252626 184,79.634766 184,73.016906 181.67384,67.382802 177.02344,62.732422 175.46101,61.169957 173.78461,59.877383 172,58.839844 L 172,32 c 0,-6 -6,-12 -12,-12 L 32,20 Z" inkscape:connector-curvature="0"/>
  </g>
</svg>
