<svg xmlns="http://www.w3.org/2000/svg" xmlns:sodipodi="http://sodipodi.sourceforge.net/DTD/sodipodi-0.dtd" xmlns:inkscape="http://www.inkscape.org/namespaces/inkscape" version="1.1" inkscape:version="0.91 r13725" sodipodi:docname="utilities-terminal.svg" inkscape:export-filename="/mnt/Data/Visuals/Icons/Test/48x48/applications/utilities-terminal.png" inkscape:export-xdpi="180" inkscape:export-ydpi="180" viewBox="0 0 48 48" height="1em" width="1em">
  <sodipodi:namedview pagecolor="#ffffff" bordercolor="#666666" borderopacity="1.0" inkscape:pageopacity="0.0" inkscape:pageshadow="2" inkscape:zoom="10.691313" inkscape:cx="27.18683" inkscape:cy="27.187096" inkscape:document-units="px" inkscape:current-layer="layer1" showgrid="true" inkscape:window-width="1920" inkscape:window-height="1020" inkscape:window-x="0" inkscape:window-y="32" inkscape:window-maximized="1" inkscape:snap-bbox="true" inkscape:bbox-nodes="true" inkscape:snap-bbox-edge-midpoints="true" inkscape:snap-bbox-midpoints="true" inkscape:bbox-paths="true" inkscape:object-paths="true" inkscape:snap-intersection-paths="true" inkscape:snap-smooth-nodes="true" inkscape:snap-midpoints="true" inkscape:object-nodes="true" showguides="false">
    <inkscape:grid type="xygrid" empspacing="5" visible="true" enabled="true" snapvisiblegridlinesonly="true"/>
  </sodipodi:namedview>
  <g inkscape:groupmode="layer" inkscape:label="Shadow">
    <path style="opacity:0.04;fill:#37474f;fill-opacity:1;stroke:none" d="M 3 44 L 3 45 C 3 46.108 3.892 47 5 47 L 43 47 C 44.108 47 45 46.108 45 45 L 45 44 C 45 45.108 44.108 46 43 46 L 5 46 C 3.892 46 3 45.108 3 44 z"/>
    <path style="opacity:0.08;fill:#000000;fill-opacity:1;stroke:none" d="M 3 43.5 L 3 44 C 3 45.108 3.892 46 5 46 L 43 46 C 44.108 46 45 45.108 45 44 L 45 43.5 C 45 44.608 44.108 45.5 43 45.5 L 5 45.5 C 3.892 45.5 3 44.608 3 43.5 z"/>
    <path style="opacity:0.16;fill:#000000;fill-opacity:1;stroke:none" d="m 3,43 0,0.5 c 0,1.108 0.892,2 2,2 l 38,0 c 1.108,0 2,-0.892 2,-2 L 45,43 c 0,1.108 -0.892,2 -2,2 L 5,45 C 3.892,45 3,44.108 3,43 Z" inkscape:connector-curvature="0"/>
  </g>
  <g inkscape:label="Body" inkscape:groupmode="layer" transform="translate(0,-1004.3622)">
    <rect ry="2" rx="2" y="1007.3622" x="3" height="42" width="42" style="opacity:0.8;fill:#003642;fill-opacity:1;stroke:none"/>
    <path d="m 18,1021.3622 0,2 6,0 0,-2 z" inkscape:connector-curvature="0" style="color:#000000;font-style:normal;font-variant:normal;font-weight:bold;font-stretch:normal;font-size:14.31169891px;line-height:125%;font-family:'Open Sans';-inkscape-font-specification:'Open Sans Bold';letter-spacing:0px;word-spacing:0px;display:inline;overflow:visible;visibility:visible;fill:#3bdb60;fill-opacity:1;fill-rule:nonzero;stroke:none;marker:none;enable-background:accumulate" sodipodi:nodetypes="ccccc"/>
    <path style="fill:#3bdb60;fill-opacity:1;fill-rule:evenodd;stroke:none;stroke-width:1px;stroke-linecap:butt;stroke-linejoin:miter;stroke-opacity:1" d="m 10,1014.3622 0,2 4,2 -4,2 0,2 7,-4 z" inkscape:connector-curvature="0" sodipodi:nodetypes="ccccccc"/>
  </g>
</svg>
