<svg xmlns="http://www.w3.org/2000/svg" xmlns:xlink="http://www.w3.org/1999/xlink" viewBox="0 0 48 48" height="1em" width="1em">
  <defs>
    <linearGradient id="a">
      <stop style="stop-color:#bfc7cb;stop-opacity:1" offset="0"/>
      <stop style="stop-color:#c6ced2;stop-opacity:1" offset="1"/>
    </linearGradient>
    <linearGradient xlink:href="#a" id="d" x1="25" y1="1050.362" x2="25" y2="1018.362" gradientUnits="userSpaceOnUse" gradientTransform="translate(0 -3)"/>
    <linearGradient xlink:href="#b" id="f" gradientUnits="userSpaceOnUse" gradientTransform="translate(0 -1005.362)" x1="24" y1="1014.362" x2="24" y2="1018.362"/>
    <linearGradient id="b">
      <stop style="stop-color:#000;stop-opacity:1" offset="0"/>
      <stop style="stop-color:#000;stop-opacity:0" offset="1"/>
    </linearGradient>
    <linearGradient id="c">
      <stop style="stop-color:#000;stop-opacity:1" offset="0"/>
      <stop style="stop-color:#000;stop-opacity:0" offset="1"/>
    </linearGradient>
    <linearGradient y2="22" x2="24" y1="18" x1="24" gradientTransform="translate(0 -3)" gradientUnits="userSpaceOnUse" id="e" xlink:href="#c"/>
  </defs>
  <rect ry="2" rx="2" y="12" x="8" height="32" width="32" style="opacity:.15;fill:#000;fill-opacity:1;stroke:none"/>
  <g transform="translate(0 -1004.362)">
    <rect style="fill:#bfc7cb;fill-opacity:1;stroke:none" width="8" height="8" x="20" y="1009.362" rx="2" ry="2"/>
    <rect style="fill:url(#d);fill-opacity:1;stroke:none" width="32" height="32" x="8" y="1015.362" rx="2" ry="2"/>
    <rect style="fill:#bfc7cb;fill-opacity:1;stroke:none" width="40" height="6" x="4" y="1013.362" rx="2" ry="2"/>
    <rect style="fill:#a2a5ac;fill-opacity:1;stroke:none" width="4" height="18" x="17" y="1025.362" rx="2" ry="2"/>
    <path style="opacity:.1;fill:#000;fill-opacity:1;stroke:none" d="M19 1025.362c-1.108 0-2 .892-2 2v2c0-1.108.892-2 2-2s2 .892 2 2v-2c0-1.108-.892-2-2-2z"/>
    <rect style="fill:#a2a5ac;fill-opacity:1;stroke:none" width="4" height="18" x="27" y="1025.362" rx="2" ry="2"/>
    <path style="opacity:.1;fill:#000;fill-opacity:1;stroke:none" d="M29 1025.362c-1.108 0-2 .892-2 2v2c0-1.108.892-2 2-2s2 .892 2 2v-2c0-1.108-.892-2-2-2z"/>
  </g>
  <path style="opacity:.1;fill:url(#e);fill-opacity:1;stroke:none" d="M8 15h32v4H8z"/>
  <path style="opacity:.075;fill:url(#f);fill-opacity:1;stroke:none" d="M6 9c-1.108 0-2 .892-2 2v1h40v-1c0-1.108-.892-2-2-2z"/>
</svg>
