<svg xmlns="http://www.w3.org/2000/svg" xmlns:xlink="http://www.w3.org/1999/xlink" viewBox="0 0 192 192" height="1em" width="1em">
  <defs>
    <linearGradient id="a">
      <stop style="stop-color:#3e2723;stop-opacity:.2" offset="0"/>
      <stop style="stop-color:#3e2723;stop-opacity:0" offset="1"/>
    </linearGradient>
    <linearGradient xlink:href="#a" id="c" x1="34.174" y1="37.563" x2="172.01" y2="175.398" gradientUnits="userSpaceOnUse"/>
    <filter style="color-interpolation-filters:sRGB" id="d">
      <feFlood flood-opacity=".2" flood-color="#3E2723" result="flood"/>
      <feComposite in="flood" in2="SourceGraphic" operator="in" result="composite1"/>
      <feGaussianBlur in="composite1" stdDeviation="4" result="blur"/>
      <feOffset dx="4" dy="4" result="offset"/>
      <feComposite in="SourceGraphic" in2="offset" result="composite2"/>
    </filter>
    <filter style="color-interpolation-filters:sRGB" id="b">
      <feFlood flood-opacity=".12" flood-color="#000" result="flood"/>
      <feComposite in="flood" in2="SourceGraphic" operator="in" result="composite1"/>
      <feGaussianBlur in="composite1" stdDeviation="2" result="blur"/>
      <feOffset result="offset"/>
      <feComposite in="SourceGraphic" in2="offset" result="fbSourceGraphic"/>
      <feColorMatrix result="fbSourceGraphicAlpha" in="fbSourceGraphic" values="0 0 0 -1 0 0 0 0 -1 0 0 0 0 -1 0 0 0 0 1 0"/>
      <feFlood flood-opacity=".24" flood-color="#000" result="flood"/>
      <feComposite in2="fbSourceGraphic" in="flood" operator="in" result="composite1"/>
      <feGaussianBlur in="composite1" stdDeviation="2" result="blur"/>
      <feOffset dy="4" result="offset"/>
      <feComposite in2="offset" in="fbSourceGraphic" result="composite2"/>
    </filter>
  </defs>
  <g transform="translate(0 -860.362)">
    <rect ry="12" rx="12" y="880.362" x="20" height="152" width="152" style="color:#000;clip-rule:nonzero;display:inline;overflow:visible;visibility:visible;opacity:1;isolation:auto;mix-blend-mode:normal;color-interpolation:sRGB;color-interpolation-filters:linearRGB;solid-color:#000;solid-opacity:1;fill:#ff5722;fill-opacity:1;fill-rule:evenodd;stroke:none;stroke-width:24;stroke-linecap:round;stroke-linejoin:round;stroke-miterlimit:4;stroke-dasharray:none;stroke-dashoffset:0;stroke-opacity:1;color-rendering:auto;image-rendering:auto;shape-rendering:auto;text-rendering:auto;enable-background:accumulate;filter:url(#b)"/>
    <path style="opacity:1;fill:url(#c);fill-opacity:1;fill-rule:nonzero;stroke:none" d="M122.111 41.102a10.142 10.142 0 0 0-9.056 5.072c-2.526 4.375-1.414 9.84 2.386 12.928l6.303 6.37 4.428 6.448-18.397-18.397A44.086 44.086 0 0 0 96 51.92a43.884 43.884 0 0 0-19.535 4.564l7.05 12.633 40.614 40.613-.088 2.09-52.496-52.494C62.666 65.26 56.06 74.328 53.316 84.951h.002c.98.55 1.664 1.234 2.034 2.045A14.173 14.173 0 0 1 58.57 96v.002c0 .05-.007.097-.008.146-.075-.065-.146-.135-.224-.199l-6.057-6.224a10.117 10.117 0 0 0-7.96-3.87c-5.606 0-10.147 4.54-10.147 10.145a10.12 10.12 0 0 0 3.838 7.94L106.088 172H160c6.648 0 12-5.352 12-12V87.148L129.72 44.87a10.1 10.1 0 0 0-2.808-2.41h-.002a10.098 10.098 0 0 0-4.799-1.357z" transform="translate(0 860.362)"/>
    <path style="fill:#fafafa;fill-opacity:1;fill-rule:nonzero;stroke:none;filter:url(#d)" d="M116.766 920.39c4.853 2.803 11.057 1.14 13.857-3.71 2.802-4.854 1.142-11.057-3.712-13.859-4.852-2.8-11.055-1.14-13.857 3.714-2.801 4.852-1.14 11.055 3.712 13.856zM96 986.003c-4.462 0-8.69-.992-12.486-2.758l-7.05 12.635A43.902 43.902 0 0 0 96 1000.442c4.08 0 8.026-.565 11.776-1.603a14.22 14.22 0 0 1 6.941-10.06 14.216 14.216 0 0 1 12.166-.985c7.503-7.378 12.385-17.415 13.096-28.592l-14.461-.211c-1.331 15.141-14.033 27.011-29.518 27.011zm0-59.28c15.485 0 28.187 11.873 29.518 27.012l14.46-.211c-.711-11.177-5.593-21.214-13.097-28.591a14.217 14.217 0 0 1-12.165-.988 14.216 14.216 0 0 1-6.94-10.058A44.087 44.087 0 0 0 96 912.283a43.883 43.883 0 0 0-19.535 4.564l7.05 12.633A29.517 29.517 0 0 1 96 926.722zm-29.64 29.64c0-10.028 4.984-18.885 12.604-24.248l-7.418-12.427c-8.88 5.933-15.485 15.002-18.229 25.625a14.219 14.219 0 0 1 5.253 11.051c0 4.46-2.048 8.438-5.253 11.05 2.743 10.623 9.348 19.692 18.228 25.625l7.419-12.427c-7.62-5.363-12.603-14.22-12.603-24.249Zm50.408 35.97c-4.853 2.803-6.515 9.005-3.714 13.857 2.802 4.853 9.005 6.516 13.858 3.714 4.852-2.802 6.514-9.005 3.712-13.858-2.8-4.85-9.004-6.513-13.856-3.712zM44.32 946.218c-5.605 0-10.147 4.541-10.147 10.146 0 5.603 4.542 10.145 10.147 10.145 5.603 0 10.145-4.542 10.145-10.145 0-5.605-4.542-10.146-10.145-10.146"/>
    <path d="M32 880.362c-6.648 0-12 5.352-12 12v1c0-6.648 5.352-12 12-12h128c6.648 0 12 5.352 12 12v-1c0-6.648-5.352-12-12-12H32z" style="color:#000;clip-rule:nonzero;display:inline;overflow:visible;visibility:visible;opacity:.2;isolation:auto;mix-blend-mode:normal;color-interpolation:sRGB;color-interpolation-filters:linearRGB;solid-color:#000;solid-opacity:1;fill:#fff;fill-opacity:1;fill-rule:evenodd;stroke:none;stroke-width:24;stroke-linecap:round;stroke-linejoin:round;stroke-miterlimit:4;stroke-dasharray:none;stroke-dashoffset:0;stroke-opacity:1;color-rendering:auto;image-rendering:auto;shape-rendering:auto;text-rendering:auto;enable-background:accumulate"/>
    <path d="M20 1019.362v1c0 6.648 5.352 12 12 12h128c6.648 0 12-5.352 12-12v-1c0 6.648-5.352 12-12 12H32c-6.648 0-12-5.352-12-12z" style="color:#000;clip-rule:nonzero;display:inline;overflow:visible;visibility:visible;opacity:.2;isolation:auto;mix-blend-mode:normal;color-interpolation:sRGB;color-interpolation-filters:linearRGB;solid-color:#000;solid-opacity:1;fill:#3e2723;fill-opacity:1;fill-rule:evenodd;stroke:none;stroke-width:24;stroke-linecap:round;stroke-linejoin:round;stroke-miterlimit:4;stroke-dasharray:none;stroke-dashoffset:0;stroke-opacity:1;color-rendering:auto;image-rendering:auto;shape-rendering:auto;text-rendering:auto;enable-background:accumulate"/>
    <path transform="translate(0 860.362)" d="M111.715 51.742c-.18 3.676 1.644 7.32 5.05 9.287 4.853 2.803 11.057 1.14 13.858-3.71a10.093 10.093 0 0 0 1.342-5.561 10.099 10.099 0 0 1-1.342 4.56c-2.8 4.852-9.005 6.514-13.857 3.711-3.098-1.788-4.885-4.963-5.051-8.287zM76.908 57.28c-.146.07-.298.133-.443.205l7.05 12.633A29.514 29.514 0 0 1 96 67.36c15.485 0 28.187 11.873 29.518 27.012l14.46-.21c-.02-.336-.059-.666-.087-.999l-14.373.21C124.187 78.231 111.485 66.358 96 66.358c-4.462 0-8.69.993-12.484 2.758L76.908 57.28zm1.643 14.782C71.168 77.45 66.36 86.157 66.36 96c0 .168.013.333.016.5.163-9.82 5.094-18.475 12.586-23.748l-.412-.691zM53.543 85.156c-.074.266-.158.528-.227.795A14.209 14.209 0 0 1 58.541 96.5c.006-.168.03-.33.03-.5 0-4.35-1.958-8.23-5.028-10.844zM34.199 96.5c-.008.167-.025.331-.025.5 0 5.604 4.541 10.146 10.146 10.146 5.603 0 10.147-4.542 10.147-10.146 0-.169-.017-.333-.026-.5-.262 5.37-4.686 9.646-10.12 9.646-5.437 0-9.86-4.276-10.122-9.646zm105.692 3.338c-.93 10.775-5.73 20.437-13.008 27.594a14.216 14.216 0 0 0-12.166.986 14.22 14.22 0 0 0-6.942 10.059A44.05 44.05 0 0 1 96 140.08a43.88 43.88 0 0 1-19.09-4.36l-.445.798A43.897 43.897 0 0 0 96 141.08c4.08 0 8.026-.565 11.775-1.603a14.22 14.22 0 0 1 6.942-10.059 14.216 14.216 0 0 1 12.166-.986c7.503-7.378 12.385-17.414 13.096-28.592l-.088-.002zm-86.35 8.008c-.077.065-.146.14-.225.205 2.743 10.623 9.35 19.692 18.229 25.625l7.418-12.428c-.14-.099-.273-.207-.412-.309l-7.006 11.737c-8.656-5.784-15.141-14.552-18.004-24.83zm58.174 33.412a10.084 10.084 0 0 0 1.34 5.568c2.802 4.853 9.004 6.517 13.857 3.715 3.406-1.966 5.231-5.608 5.053-9.283-.168 3.322-1.958 6.496-5.053 8.283-4.853 2.802-11.055 1.138-13.857-3.715a10.084 10.084 0 0 1-1.34-4.568z" style="fill:#3e2723;fill-opacity:1;fill-rule:nonzero;stroke:none;opacity:.2"/>
    <path d="M122.111 901.464a10.141 10.141 0 0 0-9.056 5.072 10.085 10.085 0 0 0-1.34 5.569c.076-1.56.505-3.124 1.34-4.569 2.802-4.853 9.005-6.516 13.857-3.715 3.101 1.79 4.89 4.97 5.053 8.3.184-3.68-1.642-7.33-5.053-9.3a10.105 10.105 0 0 0-4.8-1.357zM96 912.282a43.884 43.884 0 0 0-19.535 4.565l.443.795A43.868 43.868 0 0 1 96 913.282c4.08 0 8.026.566 11.775 1.604a14.216 14.216 0 0 0 6.94 10.058 14.219 14.219 0 0 0 12.166.989c7.279 7.156 12.078 16.817 13.01 27.591l.088-.002c-.712-11.176-5.594-21.212-13.098-28.59a14.219 14.219 0 0 1-12.166-.988 14.216 14.216 0 0 1-6.94-10.058A44.086 44.086 0 0 0 96 912.282zm-24.455 7.407c-8.88 5.933-15.485 15.001-18.229 25.625.08.064.15.139.227.205 2.863-10.279 9.346-19.049 18.002-24.832l7.006 11.736c.138-.101.271-.21.412-.309l-7.418-12.425zM44.32 946.218c-5.605 0-10.146 4.54-10.146 10.144 0 .169.017.334.025.5.263-5.37 4.685-9.644 10.121-9.644 5.435 0 9.859 4.273 10.121 9.644.009-.166.026-.331.026-.5 0-5.605-4.544-10.144-10.147-10.144zm14.221 10.644a14.212 14.212 0 0 1-5.225 10.551c.07.268.151.53.225.795 3.07-2.613 5.03-6.496 5.03-10.846 0-.169-.024-.332-.03-.5zm7.836 0c-.003.168-.016.332-.016.5 0 9.845 4.807 18.55 12.19 23.94l.412-.692c-7.492-5.272-12.423-13.926-12.586-23.748Zm59.14 2.13c-1.33 15.14-14.032 27.011-29.517 27.011-4.462 0-8.69-.992-12.486-2.758l-7.05 12.635c.147.072.298.134.444.205l6.606-11.84A29.524 29.524 0 0 0 96 987.003c15.485 0 28.187-11.87 29.518-27.012l14.373.21c.028-.334.066-.664.088-.999l-14.461-.21zm-3.949 31.984a10.103 10.103 0 0 0-4.8 1.357c-3.408 1.968-5.233 5.612-5.053 9.287.166-3.324 1.954-6.498 5.053-8.287 4.851-2.801 11.056-1.138 13.857 3.713a10.085 10.085 0 0 1 1.34 4.574 10.086 10.086 0 0 0-1.34-5.574 10.142 10.142 0 0 0-9.057-5.07z" style="fill:#fff;fill-opacity:1;fill-rule:nonzero;stroke:none"/>
  </g>
</svg>
