<svg xmlns="http://www.w3.org/2000/svg" viewBox="0 0 48 48" height="1em" width="1em">
  <path style="stroke:none;fill-rule:nonzero;fill:#04aa9c;fill-opacity:1" d="M10 2c-.945 0-2 1.055-2 2v40c0 .89 1.11 2 2 2h28c.89 0 1.984-1.11 2-2V14L28 2Zm0 0"/>
  <path style="stroke:none;fill-rule:nonzero;fill:#fff;fill-opacity:.392157" d="m28 2 12 12H30c-.89 0-2-1.11-2-2Zm0 0"/>
  <path style="stroke:none;fill-rule:nonzero;fill:#fff;fill-opacity:1" d="M30.863 15.063c-.722 0-1.375.359-1.699.937H22s-1.379.004-2.84.734A5.864 5.864 0 0 0 16 22c0 2.754 1.71 4.293 3.16 5.023.692.352.84.336.84.336v1.664l-1.637 1.684c-.074-.016-.148-.059-.238-.059a.984.984 0 0 0-.988.973.984.984 0 0 0 1.965 0 .617.617 0 0 0-.063-.242l2.703-2.68L20 30h6v-2s1.426 0 1.984.242C28.973 28.73 30 29.882 30 32c0 2.117-.988 3.047-1.977 3.535C27.02 36.02 26 36 26 36h-7.145c-.324-.578-.957-.922-1.683-.922a1.944 1.944 0 0 0-1.945 1.95c0 1.077.87 1.945 1.945 1.945.726 0 1.36-.395 1.683-.973H26s1.418.031 2.879-.7C30.324 36.57 32 34.755 32 32s-1.71-4.793-3.16-5.523C27.8 26 26 26 26 26v-1.543l1.676-1.664c.09.016.148.062.234.062a.984.984 0 0 0 .988-.976.98.98 0 0 0-1.96 0c0 .094.042.168.058.246L25.06 24H20l.016 1.258C19.027 24.773 18 24.118 18 22c0-2.117 1.027-3.012 2.016-3.5C21.02 18.016 22 18 22 18h7.164c.324.578.977.957 1.7.957a1.944 1.944 0 0 0 1.948-1.95 1.944 1.944 0 0 0-1.949-1.945Zm0 0"/>
  <path style="stroke:none;fill-rule:nonzero;fill:#000;fill-opacity:.196078" d="m30 14 10 10V14Zm0 0"/>
</svg>
