<svg xmlns="http://www.w3.org/2000/svg" viewBox="0 0 48 48" height="1em" width="1em">
  <path style="stroke:none;fill-rule:nonzero;fill:#04aa9c;fill-opacity:1" d="M10 2c-.945 0-2 1.055-2 2v40c0 .89 1.11 2 2 2h28c.89 0 2-1.11 2-2V4c0-.945-1.055-2-2-2Zm0 0"/>
  <path style="stroke:none;fill-rule:nonzero;fill:#fff;fill-opacity:1" d="M30.863 13.262c-.722 0-1.37.36-1.695.937H22s-1.379.004-2.84.735A5.871 5.871 0 0 0 16 20.199c0 2.754 1.715 4.293 3.16 5.024.692.351.84.336.84.336v1.664l-1.637 1.683c-.074-.011-.148-.058-.238-.058a.986.986 0 0 0-.988.972c0 .535.445.977.988.977a.985.985 0 0 0 .977-.977c0-.09-.032-.168-.059-.242l2.7-2.68L20 28.2h6v-2s1.43 0 1.984.242C28.977 26.93 30 28.086 30 30.2c0 2.117-.988 3.047-1.977 3.535C27.02 34.223 26 34.2 26 34.2h-7.145c-.324-.578-.957-.922-1.68-.922a1.945 1.945 0 0 0-1.948 1.95c0 1.078.87 1.949 1.949 1.949.722 0 1.355-.399 1.68-.977H26s1.418.031 2.879-.699C30.324 34.77 32 32.953 32 30.2c0-2.755-1.71-4.794-3.156-5.524-1.04-.477-2.844-.477-2.844-.477v-1.543l1.676-1.664c.09.016.148.063.238.063a.987.987 0 0 0 .988-.977.986.986 0 0 0-.988-.973.984.984 0 0 0-.977.973c0 .094.047.168.06.246L25.062 22.2H20l.016 1.258C19.027 22.974 18 22.318 18 20.2c0-2.113 1.027-3.012 2.016-3.5 1.004-.484 1.984-.5 1.984-.5h7.168c.324.578.973.957 1.695.957 1.078 0 1.95-.867 1.95-1.949a1.944 1.944 0 0 0-1.95-1.945Zm0 0"/>
</svg>
