<svg xmlns="http://www.w3.org/2000/svg" xmlns:xlink="http://www.w3.org/1999/xlink" viewBox="0 0 192 192" height="1em" width="1em">
  <defs>
    <filter style="color-interpolation-filters:sRGB" id="c">
      <feFlood flood-opacity=".2" flood-color="#263238" result="flood"/>
      <feComposite in="flood" in2="SourceGraphic" operator="in" result="composite1"/>
      <feGaussianBlur in="composite1" stdDeviation="4" result="blur"/>
      <feOffset dy="4" result="offset"/>
      <feComposite in="SourceGraphic" in2="offset" result="composite2"/>
    </filter>
    <filter style="color-interpolation-filters:sRGB" id="b">
      <feFlood flood-opacity=".12" flood-color="#000" result="flood"/>
      <feComposite in="flood" in2="SourceGraphic" operator="in" result="composite1"/>
      <feGaussianBlur in="composite1" stdDeviation="2" result="blur"/>
      <feOffset result="offset"/>
      <feComposite in="SourceGraphic" in2="offset" result="fbSourceGraphic"/>
      <feColorMatrix result="fbSourceGraphicAlpha" in="fbSourceGraphic" values="0 0 0 -1 0 0 0 0 -1 0 0 0 0 -1 0 0 0 0 1 0"/>
      <feFlood flood-opacity=".24" flood-color="#000" result="flood"/>
      <feComposite in2="fbSourceGraphic" in="flood" operator="in" result="composite1"/>
      <feGaussianBlur in="composite1" stdDeviation="2" result="blur"/>
      <feOffset dy="4" result="offset"/>
      <feComposite in2="offset" in="fbSourceGraphic" result="composite2"/>
    </filter>
    <radialGradient xlink:href="#a" id="e" cx="8" cy="868.362" fx="8" fy="868.362" r="88" gradientTransform="rotate(45 1091.25 1329.095) scale(2.05704)" gradientUnits="userSpaceOnUse"/>
    <linearGradient id="a">
      <stop style="stop-color:#fff;stop-opacity:.1" offset="0"/>
      <stop style="stop-color:#fff;stop-opacity:0" offset="1"/>
    </linearGradient>
    <clipPath clipPathUnits="userSpaceOnUse" id="d">
      <path style="color:#000;clip-rule:nonzero;display:inline;overflow:visible;visibility:visible;opacity:1;isolation:auto;mix-blend-mode:normal;color-interpolation:sRGB;color-interpolation-filters:linearRGB;solid-color:#000;solid-opacity:1;fill:#00acc1;fill-opacity:1;fill-rule:evenodd;stroke:none;stroke-width:24;stroke-linecap:round;stroke-linejoin:round;stroke-miterlimit:4;stroke-dasharray:none;stroke-dashoffset:0;stroke-opacity:1;color-rendering:auto;image-rendering:auto;shape-rendering:auto;text-rendering:auto;enable-background:accumulate" d="M20 892.362c-6.648 0-12 5.352-12 12v104c0 6.648 5.352 12 12 12h152c6.648 0 12-5.352 12-12v-92c0-6.648-5.352-12-12-12H88l-12-12z"/>
    </clipPath>
  </defs>
  <g transform="translate(0 -860.362)">
    <path style="color:#000;clip-rule:nonzero;display:inline;overflow:visible;visibility:visible;opacity:1;isolation:auto;mix-blend-mode:normal;color-interpolation:sRGB;color-interpolation-filters:linearRGB;solid-color:#000;solid-opacity:1;fill:#00acc1;fill-opacity:1;fill-rule:evenodd;stroke:none;stroke-width:24;stroke-linecap:round;stroke-linejoin:round;stroke-miterlimit:4;stroke-dasharray:none;stroke-dashoffset:0;stroke-opacity:1;color-rendering:auto;image-rendering:auto;shape-rendering:auto;text-rendering:auto;enable-background:accumulate;filter:url(#b)" d="M20 32c-6.648 0-12 5.352-12 12v104c0 6.648 5.352 12 12 12h152c6.648 0 12-5.352 12-12V56c0-6.648-5.352-12-12-12H88L76 32z" transform="translate(0 860.362)"/>
    <rect style="color:#000;clip-rule:nonzero;display:inline;overflow:visible;visibility:visible;opacity:1;isolation:auto;mix-blend-mode:normal;color-interpolation:sRGB;color-interpolation-filters:linearRGB;solid-color:#000;solid-opacity:1;fill:#4dd0e1;fill-opacity:1;fill-rule:evenodd;stroke:none;stroke-width:24;stroke-linecap:round;stroke-linejoin:round;stroke-miterlimit:4;stroke-dasharray:none;stroke-dashoffset:0;stroke-opacity:1;color-rendering:auto;image-rendering:auto;shape-rendering:auto;text-rendering:auto;enable-background:accumulate;filter:url(#c)" width="176" height="104" x="8" y="916.362" rx="12" ry="12" clip-path="url(#d)"/>
    <path style="color:#000;clip-rule:nonzero;display:inline;overflow:visible;visibility:visible;opacity:.2;isolation:auto;mix-blend-mode:normal;color-interpolation:sRGB;color-interpolation-filters:linearRGB;solid-color:#000;solid-opacity:1;fill:#fff;fill-opacity:1;fill-rule:evenodd;stroke:none;stroke-width:24;stroke-linecap:round;stroke-linejoin:round;stroke-miterlimit:4;stroke-dasharray:none;stroke-dashoffset:0;stroke-opacity:1;color-rendering:auto;image-rendering:auto;shape-rendering:auto;text-rendering:auto;enable-background:accumulate" d="M20 916.362c-6.648 0-12 5.352-12 12v1c0-6.648 5.352-12 12-12h152c6.648 0 12 5.352 12 12v-1c0-6.648-5.352-12-12-12H20z"/>
    <path style="color:#000;clip-rule:nonzero;display:inline;overflow:visible;visibility:visible;opacity:.2;isolation:auto;mix-blend-mode:normal;color-interpolation:sRGB;color-interpolation-filters:linearRGB;solid-color:#000;solid-opacity:1;fill:#263238;fill-opacity:1;fill-rule:evenodd;stroke:none;stroke-width:24;stroke-linecap:round;stroke-linejoin:round;stroke-miterlimit:4;stroke-dasharray:none;stroke-dashoffset:0;stroke-opacity:1;color-rendering:auto;image-rendering:auto;shape-rendering:auto;text-rendering:auto;enable-background:accumulate" d="M8 1007.362v1c0 6.648 5.352 12 12 12h152c6.648 0 12-5.352 12-12v-1c0 6.648-5.352 12-12 12H20c-6.648 0-12-5.352-12-12z"/>
    <path style="color:#000;clip-rule:nonzero;display:inline;overflow:visible;visibility:visible;opacity:.2;isolation:auto;mix-blend-mode:normal;color-interpolation:sRGB;color-interpolation-filters:linearRGB;solid-color:#000;solid-opacity:1;fill:#fff;fill-opacity:1;fill-rule:evenodd;stroke:none;stroke-width:24;stroke-linecap:round;stroke-linejoin:round;stroke-miterlimit:4;stroke-dasharray:none;stroke-dashoffset:0;stroke-opacity:1;color-rendering:auto;image-rendering:auto;shape-rendering:auto;text-rendering:auto;enable-background:accumulate" d="M20 892.362c-6.648 0-12 5.352-12 12v1c0-6.648 5.352-12 12-12h56l12 12h84c6.648 0 12 5.352 12 12v-1c0-6.648-5.352-12-12-12H88l-12-12H20z"/>
    <g style="fill:#fff">
      <path d="M0 0h24v24H0Z" style="fill:none" transform="matrix(3 0 0 3 60 932.362)"/>
      <path d="M4 6H2v14c0 1.1.9 2 2 2h14v-2H4V6Zm16-4H8c-1.1 0-2 .9-2 2v12c0 1.1.9 2 2 2h12c1.1 0 2-.9 2-2V4c0-1.1-.9-2-2-2Zm-8 12.5v-9l6 4.5-6 4.5z" style="fill:#fafafa;fill-opacity:1" transform="matrix(3 0 0 3 60 932.362)"/>
    </g>
  </g>
  <path transform="translate(0 -860.362)" style="color:#000;clip-rule:nonzero;display:inline;overflow:visible;visibility:visible;opacity:1;isolation:auto;mix-blend-mode:normal;color-interpolation:sRGB;color-interpolation-filters:linearRGB;solid-color:#000;solid-opacity:1;fill:url(#e);fill-opacity:1;fill-rule:evenodd;stroke:none;stroke-width:24;stroke-linecap:round;stroke-linejoin:round;stroke-miterlimit:4;stroke-dasharray:none;stroke-dashoffset:0;stroke-opacity:1;color-rendering:auto;image-rendering:auto;shape-rendering:auto;text-rendering:auto;enable-background:accumulate" d="M20 892.362c-6.648 0-12 5.352-12 12v104c0 6.648 5.352 12 12 12h152c6.648 0 12-5.352 12-12v-92c0-6.648-5.352-12-12-12H88l-12-12z"/>
</svg>
