<svg xmlns="http://www.w3.org/2000/svg" xmlns:xlink="http://www.w3.org/1999/xlink" xmlns:sodipodi="http://sodipodi.sourceforge.net/DTD/sodipodi-0.dtd" xmlns:inkscape="http://www.inkscape.org/namespaces/inkscape" sodipodi:docname="weather_timeline.svg" inkscape:version="0.91 r13725" version="1.1" viewBox="0 0 192 192" inkscape:export-filename="C:\createme\Material Design Icons\PNG\weather_timeline.png" inkscape:export-xdpi="90" inkscape:export-ydpi="90" height="1em" width="1em">
  <defs>
    <linearGradient inkscape:collect="always" id="a">
      <stop style="stop-color:#ffffff;stop-opacity:1" offset="0"/>
      <stop style="stop-color:#ffffff;stop-opacity:0" offset="1"/>
    </linearGradient>
    <filter style="color-interpolation-filters:sRGB" inkscape:label="Drop Shadow" id="d">
      <feFlood flood-opacity="0.2" flood-color="rgb(0,0,0)" result="flood"/>
      <feComposite in="flood" in2="SourceGraphic" operator="in" result="composite1"/>
      <feGaussianBlur in="composite1" stdDeviation="2" result="blur"/>
      <feOffset dx="4.57967e-015" dy="4" result="offset"/>
      <feComposite in="SourceGraphic" in2="offset" operator="over" result="fbSourceGraphic"/>
      <feColorMatrix result="fbSourceGraphicAlpha" in="fbSourceGraphic" values="0 0 0 -1 0 0 0 0 -1 0 0 0 0 -1 0 0 0 0 1 0"/>
      <feFlood flood-opacity="0.2" flood-color="rgb(0,0,0)" result="flood" in="fbSourceGraphic"/>
      <feComposite in2="fbSourceGraphic" in="flood" operator="in" result="composite1"/>
      <feGaussianBlur in="composite1" stdDeviation="2" result="blur"/>
      <feOffset dx="0" dy="0" result="offset"/>
      <feComposite in2="offset" in="fbSourceGraphic" operator="over" result="composite2"/>
    </filter>
    <radialGradient inkscape:collect="always" xlink:href="#a" id="i" cx="8.075736" cy="8" fx="8.075736" fy="8" r="88" gradientTransform="matrix(0,2,-2,0,24,3.8485271)" gradientUnits="userSpaceOnUse"/>
    <filter style="color-interpolation-filters:sRGB" inkscape:label="Drop Shadow" id="h">
      <feFlood flood-opacity="0.2" flood-color="rgb(38,50,56)" result="flood"/>
      <feComposite in="flood" in2="SourceGraphic" operator="in" result="composite1"/>
      <feGaussianBlur in="composite1" stdDeviation="4" result="blur"/>
      <feOffset dx="0" dy="4" result="offset"/>
      <feComposite in="SourceGraphic" in2="offset" operator="over" result="composite2"/>
    </filter>
    <filter style="color-interpolation-filters:sRGB" inkscape:label="Drop Shadow" id="f">
      <feFlood flood-opacity="0.2" flood-color="rgb(0,0,0)" result="flood"/>
      <feComposite in="flood" in2="SourceGraphic" operator="in" result="composite1"/>
      <feGaussianBlur in="composite1" stdDeviation="4" result="blur"/>
      <feOffset dx="0" dy="4" result="offset"/>
      <feComposite in="SourceGraphic" in2="offset" operator="over" result="composite2"/>
    </filter>
    <clipPath clipPathUnits="userSpaceOnUse" id="g">
      <path style="opacity:0.1;fill:url(#b);fill-opacity:1;fill-rule:evenodd;stroke:none;stroke-width:1px;stroke-linecap:butt;stroke-linejoin:miter;stroke-opacity:1" d="M 44,20 C 38,20 32,26 32,32 26,32 20,38 20,44 14,44 8,50 8,56 l 0,104 c 0,6 6,12 12,12 l 152,0 c 6,0 12,-6 12,-12 l 0,-104 c 0,-6 -6,-12 -12,-12 0,-6 -6,-12 -12,-12 0,-6 -6,-12 -12,-12 L 44,20 Z" inkscape:connector-curvature="0"/>
    </clipPath>
    <radialGradient inkscape:collect="always" xlink:href="#a" id="b" gradientUnits="userSpaceOnUse" gradientTransform="matrix(0,2,-2,0,24,3.8485271)" cx="8.075736" cy="8" fx="8.075736" fy="8" r="88"/>
    <clipPath clipPathUnits="userSpaceOnUse" id="e">
      <path inkscape:connector-curvature="0" d="M 44,20 C 38,20 32,26 32,32 26,32 20,38 20,44 14,44 8,50 8,56 l 0,104 c 0,6 6,12 12,12 l 152,0 c 6,0 12,-6 12,-12 l 0,-104 c 0,-6 -6,-12 -12,-12 0,-6 -6,-12 -12,-12 0,-6 -6,-12 -12,-12 L 44,20 Z" style="opacity:0.1;fill:url(#c);fill-opacity:1;fill-rule:evenodd;stroke:none;stroke-width:1px;stroke-linecap:butt;stroke-linejoin:miter;stroke-opacity:1"/>
    </clipPath>
    <radialGradient inkscape:collect="always" xlink:href="#a" id="c" gradientUnits="userSpaceOnUse" gradientTransform="matrix(0,2,-2,0,24,3.8485271)" cx="8.075736" cy="8" fx="8.075736" fy="8" r="88"/>
  </defs>
  <sodipodi:namedview inkscape:window-maximized="1" inkscape:window-y="-8" inkscape:window-x="-8" inkscape:window-height="1017" inkscape:window-width="1920" showguides="false" units="px" showgrid="false" inkscape:current-layer="layer2" inkscape:document-units="px" inkscape:cy="22.411001" inkscape:cx="-2.2414211" inkscape:zoom="1" inkscape:pageshadow="2" inkscape:pageopacity="0.0" borderopacity="1.0" bordercolor="#666666" pagecolor="#ffffff">
    <sodipodi:guide position="0,184" orientation="0,1" inkscape:color="rgb(0,0,255)"/>
    <sodipodi:guide position="8,0" orientation="1,0" inkscape:color="rgb(0,0,255)"/>
    <sodipodi:guide position="0,8" orientation="0,1" inkscape:color="rgb(0,0,255)"/>
    <sodipodi:guide position="184,0" orientation="1,0" inkscape:color="rgb(0,0,255)"/>
    <sodipodi:guide position="0,20" orientation="0,1" inkscape:color="rgb(0,0,255)"/>
    <sodipodi:guide position="172,0" orientation="1,0" inkscape:color="rgb(0,0,255)"/>
    <sodipodi:guide position="96,172" orientation="0,1" inkscape:color="rgb(0,0,255)"/>
    <sodipodi:guide position="20,0" orientation="1,0" inkscape:color="rgb(0,0,255)"/>
    <sodipodi:guide position="0,32" orientation="0,1" inkscape:color="rgb(0,0,255)"/>
    <sodipodi:guide position="160,0" orientation="1,0" inkscape:color="rgb(0,0,255)"/>
    <sodipodi:guide position="0,160" orientation="0,1" inkscape:color="rgb(0,0,255)"/>
    <sodipodi:guide position="32,0" orientation="1,0" inkscape:color="rgb(0,0,255)"/>
    <inkscape:grid type="xygrid"/>
    <sodipodi:guide position="0,0" orientation="-0.70710678,0.70710678" inkscape:color="rgb(255,0,0)"/>
    <sodipodi:guide position="124,0" orientation="1,0" inkscape:color="rgb(255,0,0)"/>
    <sodipodi:guide position="0,192" orientation="0.70710678,0.70710678" inkscape:color="rgb(255,0,0)"/>
    <sodipodi:guide position="96,0" orientation="1,0" inkscape:color="rgb(255,0,0)"/>
    <sodipodi:guide position="0,96" orientation="0,1" inkscape:color="rgb(255,0,0)"/>
    <sodipodi:guide position="0,124" orientation="0,1" inkscape:color="rgb(255,0,0)"/>
    <sodipodi:guide position="0,68" orientation="0,1" inkscape:color="rgb(255,0,0)"/>
    <sodipodi:guide position="68,0" orientation="1,0" inkscape:color="rgb(255,0,0)"/>
    <sodipodi:guide position="192,0" orientation="-192,0"/>
    <sodipodi:guide position="192,192" orientation="0,-192"/>
  </sodipodi:namedview>
  <g inkscape:groupmode="layer" inkscape:label="background">
    <g style="filter:url(#d)">
      <path sodipodi:nodetypes="ccccccccc" inkscape:connector-curvature="0" d="m 44,19.99996 104,0 c 6,0 12,6 12,12 L 160,136 c 0,6 -6,12 -12,12 l -104,0 c -6,0 -12,-6 -12,-12 L 32,31.99996 c 0,-6 6,-12 12,-12 z" style="fill:#424242;fill-opacity:1;fill-rule:evenodd;stroke:none;stroke-width:1px;stroke-linecap:butt;stroke-linejoin:miter;stroke-opacity:1"/>
      <path clip-path="url(#e)" style="fill:#607d8b;fill-opacity:1;fill-rule:evenodd;stroke:none;stroke-width:1px;stroke-linecap:butt;stroke-linejoin:miter;stroke-opacity:1;filter:url(#f)" d="m 32,31.99996 128,0 c 6,0 12,6 12,12 L 172,148 c 0,6 -6,12 -12,12 l -128,0 c -6,0 -12,-6 -12,-12 L 20,43.99996 c 0,-6 6,-12 12,-12 z" inkscape:connector-curvature="0" sodipodi:nodetypes="ccccccccc"/>
      <path clip-path="url(#g)" sodipodi:nodetypes="ccccccccc" inkscape:connector-curvature="0" d="m 20,43.99996 152,0 c 6,0 12,6 12,12 L 184,160 c 0,6 -6,12 -12,12 L 20,172 C 14,172 8,166 8,160 L 8,55.99996 c 0,-6 6,-12 12,-12 z" style="fill:#fed162;fill-opacity:1;fill-rule:evenodd;stroke:none;stroke-width:1px;stroke-linecap:butt;stroke-linejoin:miter;stroke-opacity:1;filter:url(#h)"/>
      <path inkscape:connector-curvature="0" d="m 77.771744,72.000003 0,8.95995 6.076149,0 0,-8.95995 -6.076149,0 z m -18.347121,7.595187 -4.28416,4.284171 5.435306,5.435294 4.313829,-4.284164 -5.464975,-5.435301 z m 42.770397,0 -5.435317,5.435301 4.284167,4.284164 5.4353,-5.435294 -4.28415,-4.284171 z m -21.385203,7.440914 c -10.056025,0 -18.228446,8.172414 -18.228446,18.228436 0,4.84415 1.906364,9.24134 4.996208,12.50834 3.060332,-7.10905 9.427768,-12.25037 17.006104,-13.11357 2.282662,-4.695778 5.765356,-8.603231 9.992411,-11.309717 -3.344118,-3.858332 -8.267998,-6.313489 -13.766277,-6.313489 z m 27.342673,8.354711 c -8.780039,0 -16.406797,4.979565 -20.204388,12.270945 -9.144601,0.97219 -16.252507,8.72214 -16.252507,18.10978 0,10.05603 8.172421,18.22846 18.22844,18.22846 l 39.494975,0 c 8.38508,0 15.19037,-6.80529 15.19037,-15.19038 0,-8.02052 -6.22923,-14.52486 -14.12823,-15.07171 -2.06589,-10.48135 -11.27007,-18.347095 -22.32866,-18.347095 z m -60.76149,6.835665 0,6.07614 9.114222,0 0,-6.07614 -9.114222,0 z m 13.184769,18.95827 -5.435306,5.46499 4.28416,4.28416 5.435304,-5.46497 -4.284158,-4.28418 z" style="opacity:1;fill:#f5f5f5"/>
    </g>
  </g>
  <g inkscape:groupmode="layer" inkscape:label="finish" sodipodi:insensitive="true">
    <path style="opacity:0.2;fill:#ffffff;fill-opacity:1;fill-rule:evenodd;stroke:none;stroke-width:1px;stroke-linecap:butt;stroke-linejoin:miter;stroke-opacity:1" d="M 20,44 C 14,44 8,50 8,56 l 0,1 C 8,51 14,45 20,45 l 152,0 c 6,0 12,6 12,12 l 0,-1 c 0,-6 -6,-12 -12,-12 L 20,44 Z" inkscape:connector-curvature="0"/>
    <path style="opacity:0.2;fill:#bf360c;fill-opacity:1;fill-rule:evenodd;stroke:none;stroke-width:1px;stroke-linecap:butt;stroke-linejoin:miter;stroke-opacity:1" d="m 8,159 0,1 c 0,6 6,12 12,12 l 152,0 c 6,0 12,-6 12,-12 l 0,-1 c 0,6 -6,12 -12,12 L 20,171 C 14,171 8,165 8,159 Z" inkscape:connector-curvature="0"/>
    <path inkscape:connector-curvature="0" d="m 32,32 c -6,0 -12,6 -12,12 l 0,1 c 0,-6 6,-12 12,-12 l 128,0 c 6,0 12,6 12,12 l 0,-1 c 0,-6 -6,-12 -12,-12 z" style="opacity:0.2;fill:#ffffff;fill-opacity:1;fill-rule:evenodd;stroke:none;stroke-width:1px;stroke-linecap:butt;stroke-linejoin:miter;stroke-opacity:1" sodipodi:nodetypes="sscsscsss"/>
    <path sodipodi:nodetypes="sscsscsss" style="opacity:0.2;fill:#ffffff;fill-opacity:1;fill-rule:evenodd;stroke:none;stroke-width:1px;stroke-linecap:butt;stroke-linejoin:miter;stroke-opacity:1" d="m 44,20 c -6,0 -12,6 -12,12 l 0,1 c 0,-6 6,-12 12,-12 l 104,0 c 6,0 12,6 12,12 l 0,-1 c 0,-6 -6,-12 -12,-12 z" inkscape:connector-curvature="0"/>
    <path style="opacity:0.1;fill:url(#i);fill-opacity:1;fill-rule:evenodd;stroke:none;stroke-width:1px;stroke-linecap:butt;stroke-linejoin:miter;stroke-opacity:1" d="M 44,20 C 38,20 32,26 32,32 26,32 20,38 20,44 14,44 8,50 8,56 l 0,104 c 0,6 6,12 12,12 l 152,0 c 6,0 12,-6 12,-12 l 0,-104 c 0,-6 -6,-12 -12,-12 0,-6 -6,-12 -12,-12 0,-6 -6,-12 -12,-12 L 44,20 Z" inkscape:connector-curvature="0"/>
  </g>
</svg>
