<svg xmlns="http://www.w3.org/2000/svg" xmlns:xlink="http://www.w3.org/1999/xlink" xmlns:sodipodi="http://sodipodi.sourceforge.net/DTD/sodipodi-0.dtd" xmlns:inkscape="http://www.inkscape.org/namespaces/inkscape" viewBox="0 0 192 192" version="1.1" inkscape:version="0.91 r13725" sodipodi:docname="xposed.svg" inkscape:export-filename="C:\createme\Material Design Icons\PNG\xposed.png" inkscape:export-xdpi="90" inkscape:export-ydpi="90" height="1em" width="1em">
  <sodipodi:namedview pagecolor="#ffffff" bordercolor="#666666" borderopacity="1.0" inkscape:pageopacity="0.0" inkscape:pageshadow="2" inkscape:zoom="2.0000001" inkscape:cx="89.156203" inkscape:cy="162.91357" inkscape:document-units="px" inkscape:current-layer="layer2" showgrid="true" units="px" showguides="true" inkscape:window-width="1920" inkscape:window-height="1017" inkscape:window-x="-8" inkscape:window-y="-8" inkscape:window-maximized="1">
    <sodipodi:guide position="0,184" orientation="0,1" inkscape:color="rgb(0,0,255)"/>
    <sodipodi:guide position="8,0" orientation="1,0" inkscape:color="rgb(0,0,255)"/>
    <sodipodi:guide position="0,8" orientation="0,1" inkscape:color="rgb(0,0,255)"/>
    <sodipodi:guide position="184,0" orientation="1,0" inkscape:color="rgb(0,0,255)"/>
    <sodipodi:guide position="0,20" orientation="0,1" inkscape:color="rgb(0,0,255)"/>
    <sodipodi:guide position="172,0" orientation="1,0" inkscape:color="rgb(0,0,255)"/>
    <sodipodi:guide position="96,172" orientation="0,1" inkscape:color="rgb(0,0,255)"/>
    <sodipodi:guide position="20,0" orientation="1,0" inkscape:color="rgb(0,0,255)"/>
    <sodipodi:guide position="0,32" orientation="0,1" inkscape:color="rgb(0,0,255)"/>
    <sodipodi:guide position="160,0" orientation="1,0" inkscape:color="rgb(0,0,255)"/>
    <sodipodi:guide position="0,160" orientation="0,1" inkscape:color="rgb(0,0,255)"/>
    <sodipodi:guide position="32,0" orientation="1,0" inkscape:color="rgb(0,0,255)"/>
    <inkscape:grid type="xygrid"/>
    <sodipodi:guide position="0,0" orientation="-0.70710678,0.70710678" inkscape:color="rgb(255,0,0)"/>
    <sodipodi:guide position="124,0" orientation="1,0" inkscape:color="rgb(255,0,0)"/>
    <sodipodi:guide position="0,192" orientation="0.70710678,0.70710678" inkscape:color="rgb(255,0,0)"/>
    <sodipodi:guide position="96,0" orientation="1,0" inkscape:color="rgb(255,0,0)"/>
    <sodipodi:guide position="0,96" orientation="0,1" inkscape:color="rgb(255,0,0)"/>
    <sodipodi:guide position="0,124" orientation="0,1" inkscape:color="rgb(255,0,0)"/>
    <sodipodi:guide position="0,68" orientation="0,1" inkscape:color="rgb(255,0,0)"/>
    <sodipodi:guide position="68,0" orientation="1,0" inkscape:color="rgb(255,0,0)"/>
    <sodipodi:guide position="192,0" orientation="-192,0"/>
    <sodipodi:guide position="192,192" orientation="0,-192"/>
  </sodipodi:namedview>
  <defs>
    <linearGradient inkscape:collect="always" id="b">
      <stop style="stop-color:#ffffff;stop-opacity:1" offset="0"/>
      <stop style="stop-color:#ffffff;stop-opacity:0" offset="1"/>
    </linearGradient>
    <linearGradient inkscape:collect="always" id="a">
      <stop style="stop-color:#263238;stop-opacity:1" offset="0"/>
      <stop style="stop-color:#263238;stop-opacity:0" offset="1"/>
    </linearGradient>
    <filter style="color-interpolation-filters:sRGB" inkscape:label="Drop Shadow" id="c">
      <feFlood flood-opacity="0.2" flood-color="rgb(0,0,0)" result="flood"/>
      <feComposite in="flood" in2="SourceGraphic" operator="in" result="composite1"/>
      <feGaussianBlur in="composite1" stdDeviation="2" result="blur"/>
      <feOffset dx="4.57967e-015" dy="4" result="offset"/>
      <feComposite in="SourceGraphic" in2="offset" operator="over" result="fbSourceGraphic"/>
      <feColorMatrix result="fbSourceGraphicAlpha" in="fbSourceGraphic" values="0 0 0 -1 0 0 0 0 -1 0 0 0 0 -1 0 0 0 0 1 0"/>
      <feFlood flood-opacity="0.2" flood-color="rgb(0,0,0)" result="flood" in="fbSourceGraphic"/>
      <feComposite in2="fbSourceGraphic" in="flood" operator="in" result="composite1"/>
      <feGaussianBlur in="composite1" stdDeviation="2" result="blur"/>
      <feOffset dx="0" dy="0" result="offset"/>
      <feComposite in2="offset" in="fbSourceGraphic" operator="over" result="composite2"/>
    </filter>
    <linearGradient inkscape:collect="always" xlink:href="#a" id="d" x1="58.03418" y1="58.03418" x2="160" y2="160" gradientUnits="userSpaceOnUse"/>
    <filter style="color-interpolation-filters:sRGB" inkscape:label="Drop Shadow" id="f" height="1.3">
      <feFlood flood-opacity="0.2" flood-color="rgb(38,50,56)" result="flood"/>
      <feComposite in="flood" in2="SourceGraphic" operator="in" result="composite1"/>
      <feGaussianBlur in="composite1" stdDeviation="4" result="blur"/>
      <feOffset dx="0" dy="4" result="offset"/>
      <feComposite in="SourceGraphic" in2="offset" operator="over" result="composite2"/>
    </filter>
    <radialGradient inkscape:collect="always" xlink:href="#b" id="g" cx="20" cy="25.999998" fx="20" fy="25.999998" r="70" gradientTransform="matrix(-4.8627665e-8,2.5142857,-2.3428571,-4.5312142e-8,80.914282,-42.285714)" gradientUnits="userSpaceOnUse"/>
    <clipPath clipPathUnits="userSpaceOnUse" id="e">
      <path inkscape:connector-curvature="0" d="M 44,8 C 38,8 32,14 32,20 l 0,38 -3.058594,0 C 24.023757,58 20,62.023758 20,66.941406 l 0,58.117184 C 20,129.97624 24.023757,134 28.941406,134 L 32,134 l 0,38 c 0,6 6,12 12,12 l 104,0 c 6,0 12,-6 12,-12 L 160,20 C 160,14 154,8 148,8 L 44,8 Z" style="fill:#00bcd4;fill-opacity:1;fill-rule:evenodd;stroke:none;stroke-width:1px;stroke-linecap:butt;stroke-linejoin:miter;stroke-opacity:1"/>
    </clipPath>
  </defs>
  <g inkscape:groupmode="layer" inkscape:label="background">
    <g style="filter:url(#c)">
      <path inkscape:export-ydpi="90" inkscape:export-xdpi="90" inkscape:export-filename="C:\createme\Material Design Icons\PNG\path4184.png" sodipodi:nodetypes="ccccccccc" inkscape:connector-curvature="0" d="M 32,20 C 32,14 38,8 44,8 l 104,0 c 6,0 12,6 12,12 l 0,152 c 0,6 -6,12 -12,12 l -104,0 c -6,0 -12,-6 -12,-12 z" style="fill:#00bcd4;fill-opacity:1;fill-rule:evenodd;stroke:none;stroke-width:1px;stroke-linecap:butt;stroke-linejoin:miter;stroke-opacity:1"/>
      <path d="M 44 8 C 38 8 32 14 32 20 L 32 172 C 32 178 38 184 44 184 L 148 184 C 154 184 160 178 160 172 L 160 20 C 160 14 154 8 148 8 L 44 8 z M 44 32 L 148 32 L 148 160 L 44 160 L 44 32 z" style="fill:#263238;fill-rule:evenodd;stroke:none;stroke-width:1px;stroke-linecap:butt;stroke-linejoin:miter;stroke-opacity:1"/>
      <path d="M 32 58.568359 L 32 132.73828 C 32.00066 132.73893 32.001293 132.73959 32.001953 132.74023 C 32.06257 132.80271 32.123155 132.86508 32.185547 132.92578 C 32.243686 132.98554 32.303515 133.04343 32.363281 133.10156 C 32.422052 133.16199 32.480582 133.22249 32.541016 133.28125 C 32.602981 133.34498 32.666656 133.40687 32.730469 133.46875 C 32.784567 133.52425 32.839027 133.57871 32.894531 133.63281 C 32.960562 133.70095 33.027565 133.76795 33.095703 133.83398 C 33.153975 133.89381 33.213534 133.95158 33.273438 134.00977 C 33.334834 134.07297 33.39577 134.13588 33.458984 134.19727 C 33.521013 134.26114 33.584553 134.32275 33.648438 134.38477 C 33.70789 134.44601 33.766965 134.50687 33.828125 134.56641 C 33.896671 134.63723 33.96629 134.70684 34.037109 134.77539 C 34.095009 134.8349 34.153378 134.89327 34.212891 134.95117 C 34.279802 135.02035 34.346935 135.08924 34.416016 135.15625 C 34.480463 135.22269 34.546829 135.28713 34.613281 135.35156 C 34.678358 135.41867 34.743425 135.48571 34.810547 135.55078 C 34.878812 135.6212 34.949016 135.68964 35.019531 135.75781 C 35.080297 135.82035 35.142533 135.88065 35.205078 135.94141 C 35.277098 136.01593 35.349295 136.0901 35.423828 136.16211 C 35.488423 136.22863 35.554488 136.29292 35.621094 136.35742 C 35.688799 136.42733 35.75625 136.49676 35.826172 136.56445 C 35.891611 136.63204 35.957879 136.69815 36.025391 136.76367 C 36.096739 136.83757 36.170322 136.90904 36.244141 136.98047 C 36.316206 137.05495 36.388313 137.12921 36.462891 137.20117 C 36.530009 137.27037 36.598677 137.33727 36.667969 137.4043 C 36.738222 137.47693 36.81017 137.54695 36.882812 137.61719 C 36.953694 137.69049 37.024341 137.76311 37.097656 137.83398 C 37.169167 137.90796 37.242418 137.97928 37.316406 138.05078 C 37.385346 138.12212 37.454146 138.19268 37.525391 138.26172 C 37.603371 138.34266 37.682735 138.42202 37.763672 138.5 C 37.831072 138.5696 37.899153 138.63768 37.96875 138.70508 C 38.045096 138.78437 38.121988 138.863 38.201172 138.93945 C 38.275074 139.01599 38.351183 139.09017 38.427734 139.16406 C 38.50515 139.24427 38.583742 139.3231 38.664062 139.40039 C 38.736259 139.47499 38.810049 139.54707 38.884766 139.61914 C 38.960367 139.69752 39.036858 139.77401 39.115234 139.84961 C 39.188584 139.92565 39.261928 140.00079 39.337891 140.07422 C 39.417071 140.15655 39.497842 140.23713 39.580078 140.31641 C 39.657111 140.39631 39.734538 140.47571 39.814453 140.55273 C 39.892112 140.63331 39.972145 140.71142 40.052734 140.78906 C 40.133599 140.87299 40.216739 140.95441 40.300781 141.03516 C 40.374177 141.11115 40.447429 141.18638 40.523438 141.25977 C 40.605114 141.3448 40.688505 141.42799 40.773438 141.50977 C 40.853001 141.5924 40.934934 141.6724 41.017578 141.75195 C 41.097767 141.83526 41.178401 141.91787 41.261719 141.99805 C 41.342533 142.08203 41.425773 142.16334 41.509766 142.24414 C 41.593752 142.33145 41.678206 142.41809 41.765625 142.50195 C 41.842159 142.58132 41.920622 142.65785 42 142.73438 C 42.084824 142.82282 42.171426 142.90921 42.259766 142.99414 C 42.342452 143.08015 42.425702 143.16537 42.511719 143.24805 C 42.595029 143.33473 42.680885 143.41866 42.767578 143.50195 C 42.851512 143.58931 42.936067 143.67584 43.023438 143.75977 C 43.110542 143.85045 43.200213 143.93841 43.291016 144.02539 C 43.370681 144.10813 43.45045 144.18988 43.533203 144.26953 C 43.621108 144.36133 43.711047 144.45105 43.802734 144.53906 C 43.888538 144.62845 43.97701 144.71499 44.066406 144.80078 C 44.152832 144.89084 44.240006 144.97999 44.330078 145.06641 C 44.419672 145.15979 44.511957 145.25038 44.605469 145.33984 C 44.690523 145.42829 44.776658 145.51469 44.865234 145.59961 C 44.953205 145.69136 45.043014 145.78118 45.134766 145.86914 C 45.22096 145.95905 45.308609 146.04654 45.398438 146.13281 C 45.489781 146.22834 45.582301 146.32262 45.677734 146.41406 C 45.767272 146.50751 45.859668 146.59798 45.953125 146.6875 C 46.045524 146.78396 46.139756 146.87842 46.236328 146.9707 C 46.321939 147.05989 46.408858 147.14681 46.498047 147.23242 C 46.594441 147.33336 46.693969 147.43097 46.794922 147.52734 C 46.88404 147.62021 46.973413 147.71179 47.066406 147.80078 C 47.158581 147.8971 47.253276 147.98987 47.349609 148.08203 C 47.442405 148.17903 47.535801 148.27441 47.632812 148.36719 C 47.723352 148.46186 47.815599 148.55388 47.910156 148.64453 C 48.006489 148.74553 48.106138 148.84301 48.207031 148.93945 C 48.301263 149.03804 48.397509 149.13428 48.496094 149.22852 C 48.593501 149.33042 48.692867 149.43009 48.794922 149.52734 C 48.887806 149.62432 48.982976 149.7178 49.080078 149.81055 C 49.173465 149.90831 49.267568 150.00417 49.365234 150.09766 C 49.463755 150.20104 49.564673 150.30178 49.667969 150.40039 C 49.767218 150.50435 49.868575 150.60596 49.972656 150.70508 C 50.065148 150.80176 50.159177 150.89579 50.255859 150.98828 C 50.356218 151.09372 50.459133 151.19638 50.564453 151.29688 C 50.662704 151.39984 50.762243 151.50137 50.865234 151.59961 C 50.964104 151.70327 51.06625 151.80349 51.169922 151.90234 C 51.271645 152.00902 51.375616 152.11325 51.482422 152.21484 C 51.577399 152.31424 51.674036 152.41088 51.773438 152.50586 C 51.878798 152.61669 51.986823 152.72472 52.097656 152.83008 C 52.196419 152.9335 52.296844 153.03418 52.400391 153.13281 C 52.5019 153.23937 52.606313 153.34187 52.712891 153.44336 C 52.815018 153.5506 52.918131 153.6557 53.025391 153.75781 C 53.125266 153.86272 53.227244 153.96445 53.332031 154.06445 C 53.439856 154.17802 53.550501 154.28866 53.664062 154.39648 C 53.762763 154.49997 53.863311 154.60052 53.966797 154.69922 C 54.073322 154.81148 54.182789 154.92068 54.294922 155.02734 C 54.39935 155.13713 54.505433 155.2452 54.615234 155.34961 C 54.722814 155.46274 54.833986 155.57226 54.947266 155.67969 C 55.049355 155.78679 55.154508 155.89021 55.261719 155.99219 C 55.36655 156.10261 55.473724 156.20945 55.583984 156.31445 C 55.692686 156.42912 55.803423 156.54157 55.917969 156.65039 C 56.027426 156.7656 56.140496 156.87703 56.255859 156.98633 C 56.36146 157.09729 56.468989 157.20508 56.580078 157.31055 C 56.685846 157.42195 56.793004 157.53083 56.904297 157.63672 C 57.017371 157.7561 57.134505 157.87132 57.253906 157.98438 C 57.357483 158.09327 57.463402 158.19912 57.572266 158.30273 C 57.687474 158.42456 57.805946 158.54296 57.927734 158.6582 C 58.035805 158.7719 58.14594 158.8823 58.259766 158.99023 C 58.370563 159.10708 58.484697 159.2193 58.601562 159.33008 C 58.712975 159.44761 58.825809 159.56243 58.943359 159.67383 C 59.052523 159.78902 59.164235 159.90046 59.279297 160.00977 C 59.396362 160.13363 59.516762 160.25403 59.640625 160.37109 C 59.751162 160.48752 59.863903 160.60054 59.980469 160.71094 C 60.090473 160.82709 60.204316 160.93866 60.320312 161.04883 C 60.437283 161.17278 60.555915 161.29495 60.679688 161.41211 C 60.796515 161.53553 60.917431 161.65482 61.041016 161.77148 C 61.150883 161.88728 61.263076 161.99954 61.378906 162.10938 C 61.498751 162.23633 61.623023 162.35869 61.75 162.47852 C 61.861412 162.59605 61.974247 162.71087 62.091797 162.82227 C 62.210311 162.94789 62.331533 163.0708 62.457031 163.18945 C 62.573785 163.31295 62.694846 163.43209 62.818359 163.54883 C 62.93795 163.67536 63.060819 163.79853 63.1875 163.91797 C 63.303291 164.04023 63.422498 164.15781 63.544922 164.27344 C 63.663405 164.39889 63.784705 164.52019 63.910156 164.63867 C 64.026743 164.76212 64.146195 164.88135 64.269531 164.99805 C 64.391131 165.12714 64.515568 165.25326 64.644531 165.375 C 64.764376 165.50196 64.888648 165.62432 65.015625 165.74414 C 65.138303 165.87414 65.26438 166.00053 65.394531 166.12305 C 65.512357 166.24765 65.633107 166.36861 65.757812 166.48633 C 65.880234 166.61626 66.004886 166.74275 66.134766 166.86523 C 66.253358 166.99099 66.376364 167.1117 66.501953 167.23047 C 66.627502 167.36408 66.757204 167.49339 66.890625 167.61914 C 67.013524 167.74954 67.139118 167.87712 67.269531 168 C 67.395233 168.13341 67.524643 168.26313 67.658203 168.38867 C 67.78013 168.51781 67.905852 168.64192 68.035156 168.76367 C 68.15976 168.89601 68.287586 169.02383 68.419922 169.14844 C 68.542633 169.27876 68.668616 169.40451 68.798828 169.52734 C 68.926524 169.66332 69.057517 169.79599 69.193359 169.92383 C 69.31931 170.05766 69.45013 170.18657 69.583984 170.3125 C 69.712763 170.44938 69.845381 170.58232 69.982422 170.71094 C 70.105212 170.84119 70.231041 170.96709 70.361328 171.08984 C 70.493086 171.23024 70.629099 171.36633 70.769531 171.49805 C 70.893544 171.62967 71.020678 171.75689 71.152344 171.88086 C 71.282802 172.01995 71.417669 172.15457 71.556641 172.28516 C 71.687854 172.4248 71.823089 172.56036 71.962891 172.69141 C 72.09035 172.82677 72.221877 172.95671 72.357422 173.08398 C 72.485325 173.2202 72.615875 173.35242 72.751953 173.48047 C 72.887055 173.62469 73.027636 173.76336 73.171875 173.89844 C 73.300863 174.03556 73.433037 174.16805 73.570312 174.29688 C 73.701955 174.43716 73.83626 174.57346 73.976562 174.70508 C 74.108817 174.84605 74.245723 174.98105 74.386719 175.11328 C 74.517059 175.25226 74.650223 175.38709 74.789062 175.51758 C 74.926588 175.66456 75.06979 175.80586 75.216797 175.94336 C 75.346003 176.08088 75.477697 176.21456 75.615234 176.34375 C 75.75146 176.48943 75.893524 176.62926 76.039062 176.76562 C 76.173558 176.90915 76.311531 177.04912 76.455078 177.18359 C 76.59018 177.32781 76.730761 177.46648 76.875 177.60156 C 77.010707 177.74647 77.149992 177.88775 77.294922 178.02344 C 77.43312 178.17105 77.576846 178.31313 77.724609 178.45117 C 77.859388 178.59488 77.99872 178.73256 78.142578 178.86719 C 78.277832 179.01172 78.416121 179.15175 78.560547 179.28711 C 78.700126 179.43661 78.844768 179.58099 78.994141 179.7207 C 79.134484 179.87075 79.27947 180.01609 79.429688 180.15625 C 79.566311 180.30202 79.707557 180.44172 79.853516 180.57812 C 79.990568 180.72476 80.13086 180.8667 80.277344 181.00391 C 80.419011 181.15583 80.565027 181.30348 80.716797 181.44531 C 80.859254 181.59775 81.007518 181.74447 81.160156 181.88672 C 81.298879 182.03491 81.441483 182.17786 81.589844 182.31641 C 81.729015 182.46544 81.872579 182.60874 82.021484 182.74805 C 82.164986 182.90203 82.312924 183.05169 82.466797 183.19531 C 82.611043 183.34986 82.761316 183.4985 82.916016 183.64258 C 83.031656 183.76626 83.153036 183.88338 83.275391 184 L 148 184 C 154 184 160 178 160 172 L 160 127.29102 C 159.92214 127.21135 159.8447 127.13134 159.76367 127.05469 C 159.65556 126.94114 159.54556 126.83041 159.43164 126.72266 C 159.32416 126.60978 159.21478 126.49974 159.10156 126.39258 C 158.99292 126.2784 158.88209 126.16693 158.76758 126.05859 C 158.65985 125.94531 158.551 125.8341 158.4375 125.72656 C 158.32298 125.60592 158.20504 125.48913 158.08398 125.375 C 157.97587 125.2616 157.86586 125.15059 157.75195 125.04297 C 157.64102 124.92631 157.52721 124.8137 157.41016 124.70312 C 157.29764 124.58478 157.18326 124.4695 157.06445 124.35742 C 156.9536 124.24089 156.84157 124.12606 156.72461 124.01562 C 156.61223 123.89738 156.49756 123.7819 156.37891 123.66992 C 156.26594 123.55099 156.15057 123.43486 156.03125 123.32227 C 155.91785 123.20287 155.80144 123.08762 155.68164 122.97461 C 155.56865 122.85561 155.45333 122.73962 155.33398 122.62695 C 155.21854 122.50522 155.1006 122.3866 154.97852 122.27148 C 154.86401 122.15082 154.74799 122.03212 154.62695 121.91797 C 154.51245 121.79726 154.39447 121.6806 154.27344 121.56641 C 154.15641 121.44285 154.03793 121.32182 153.91406 121.20508 C 153.79833 121.083 153.67905 120.96503 153.55664 120.84961 C 153.44001 120.72646 153.32069 120.60661 153.19727 120.49023 C 153.0794 120.36572 152.95879 120.24455 152.83398 120.12695 C 152.71413 120.00034 152.59187 119.87728 152.46484 119.75781 C 152.3481 119.63464 152.22902 119.51484 152.10547 119.39844 C 151.98566 119.27178 151.86332 119.1488 151.73633 119.0293 C 151.61783 118.90411 151.4966 118.78226 151.37109 118.66406 C 151.25078 118.5368 151.12756 118.41302 151 118.29297 C 150.87969 118.16571 150.75646 118.04192 150.62891 117.92188 C 150.50568 117.79143 150.37887 117.66582 150.24805 117.54297 C 150.12853 117.41668 150.00751 117.293 149.88086 117.17383 C 149.758 117.04372 149.63237 116.9175 149.50195 116.79492 C 149.38042 116.66629 149.25589 116.54119 149.12695 116.41992 C 149.0036 116.2892 148.87707 116.16218 148.74609 116.03906 C 148.62274 115.90834 148.49622 115.78132 148.36523 115.6582 C 148.23867 115.524 148.10921 115.39378 147.97461 115.26758 C 147.85203 115.13785 147.7258 115.01286 147.5957 114.89062 C 147.46946 114.75674 147.34127 114.62594 147.20703 114.5 C 147.08272 114.36826 146.95433 114.24121 146.82227 114.11719 C 146.69616 113.98335 146.56768 113.85245 146.43359 113.72656 C 146.30688 113.59203 146.1758 113.46244 146.04102 113.33594 C 145.91296 113.19994 145.78278 113.06724 145.64648 112.93945 C 145.51847 112.80363 145.38624 112.67255 145.25 112.54492 C 145.12201 112.4091 144.99168 112.27607 144.85547 112.14844 C 144.72782 112.01292 144.59677 111.88127 144.46094 111.75391 C 144.33178 111.61662 144.19809 111.4844 144.06055 111.35547 C 143.92846 111.21502 143.7932 111.07897 143.65234 110.94727 C 143.5234 110.81042 143.3912 110.67735 143.25391 110.54883 C 143.12315 110.40987 142.98897 110.27492 142.84961 110.14453 C 142.71817 110.00479 142.58349 109.86937 142.44336 109.73828 C 142.31076 109.5973 142.17465 109.46031 142.0332 109.32812 C 141.90056 109.18718 141.76453 109.05009 141.62305 108.91797 C 141.49166 108.77836 141.35686 108.64267 141.2168 108.51172 C 141.08486 108.37134 140.94929 108.23516 140.80859 108.10352 C 140.67353 107.95955 140.53489 107.82035 140.39062 107.68555 C 140.25969 107.54615 140.1259 107.4101 139.98633 107.2793 C 139.84968 107.1333 139.70859 106.99206 139.5625 106.85547 C 139.42539 106.70924 139.28332 106.56841 139.13672 106.43164 C 139.00294 106.28921 138.86545 106.15102 138.72266 106.01758 C 138.58528 105.87096 138.44377 105.72892 138.29688 105.5918 C 138.16125 105.44715 138.02187 105.30725 137.87695 105.17188 C 137.73855 105.02406 137.59535 104.8823 137.44727 104.74414 C 137.31079 104.59853 137.17127 104.45655 137.02539 104.32031 C 136.88684 104.17226 136.74397 104.02902 136.5957 103.89062 C 136.45453 103.73977 136.30945 103.59393 136.1582 103.45312 C 136.02015 103.3059 135.87813 103.16303 135.73047 103.02539 C 135.59217 102.8777 135.44875 102.73572 135.30078 102.59766 C 135.15913 102.44615 135.01314 102.29959 134.86133 102.1582 C 134.71901 102.0061 134.57248 101.85869 134.41992 101.7168 C 134.28036 101.56781 134.13769 101.42238 133.98828 101.2832 C 133.84756 101.13274 133.70152 100.98813 133.55078 100.84766 C 133.40734 100.69405 133.25934 100.54556 133.10547 100.40234 C 132.96262 100.24948 132.8153 100.10155 132.66211 99.958984 C 132.51884 99.805653 132.37242 99.656644 132.21875 99.513672 C 132.07624 99.361109 131.9282 99.214579 131.77539 99.072266 C 131.63079 98.917222 131.48139 98.767522 131.32617 98.623047 C 131.17895 98.465192 131.02737 98.31291 130.86914 98.166016 C 130.72619 98.013041 130.57909 97.865319 130.42578 97.722656 C 130.27997 97.566223 130.12927 97.415213 129.97266 97.269531 C 129.82685 97.113098 129.67614 96.962088 129.51953 96.816406 C 129.37252 96.658582 129.2205 96.506261 129.0625 96.359375 C 128.91549 96.201551 128.76347 96.04923 128.60547 95.902344 C 128.45725 95.743128 128.30393 95.589497 128.14453 95.441406 C 127.99557 95.281393 127.84189 95.12729 127.68164 94.978516 C 127.53242 94.818322 127.37734 94.664545 127.2168 94.515625 C 127.06603 94.353736 126.91037 94.19725 126.74805 94.046875 C 126.59813 93.886104 126.44452 93.729477 126.2832 93.580078 C 126.13615 93.422329 125.98421 93.269858 125.82617 93.123047 C 125.67311 92.958291 125.51462 92.799347 125.34961 92.646484 C 125.19856 92.484226 125.04156 92.328432 124.87891 92.177734 C 124.72846 92.015994 124.57408 91.859251 124.41211 91.708984 C 124.25863 91.543712 124.09909 91.385733 123.93359 91.232422 C 123.78067 91.067897 123.62382 90.908518 123.45898 90.755859 C 123.3042 90.589287 123.14355 90.4298 122.97656 90.275391 C 122.82401 90.111389 122.66635 89.952981 122.50195 89.800781 C 122.34762 89.634637 122.18796 89.474362 122.02148 89.320312 C 121.86658 89.153475 121.70621 88.992538 121.53906 88.837891 C 121.38511 88.672051 121.2266 88.511222 121.06055 88.357422 C 120.90484 88.189438 120.74232 88.028699 120.57422 87.873047 C 120.41634 87.702664 120.25266 87.538555 120.08203 87.380859 C 119.92563 87.212306 119.76459 87.048696 119.5957 86.892578 C 119.43994 86.724643 119.27753 86.563803 119.10938 86.408203 C 118.95022 86.236237 118.7854 86.071169 118.61328 85.912109 C 118.45602 85.7424 118.29295 85.578999 118.12305 85.421875 C 117.96464 85.250717 117.80016 85.086109 117.62891 84.927734 C 117.46931 84.755178 117.30352 84.589258 117.13086 84.429688 C 116.96989 84.255645 116.80316 84.088562 116.62891 83.927734 C 116.46983 83.755953 116.30484 83.590533 116.13281 83.431641 C 115.97064 83.256197 115.80261 83.087804 115.62695 82.925781 C 115.4673 82.753275 115.30161 82.587251 115.12891 82.427734 C 114.96692 82.252377 114.79851 82.083837 114.62305 81.921875 C 114.45948 81.744814 114.28862 81.575509 114.11133 81.412109 C 113.94894 81.236507 113.78137 81.066447 113.60547 80.904297 C 113.44185 80.727287 113.27109 80.557876 113.09375 80.394531 C 112.93017 80.217528 112.76129 80.046155 112.58398 79.882812 C 112.42104 79.706426 112.25078 79.537831 112.07422 79.375 C 111.90954 79.19646 111.73916 79.02405 111.56055 78.859375 C 111.39265 78.677287 111.21754 78.5036 111.03516 78.335938 C 110.87062 78.157904 110.6999 77.986477 110.52148 77.822266 C 110.35518 77.642073 110.18246 77.468788 110.00195 77.302734 C 109.83509 77.121845 109.66164 76.947897 109.48047 76.78125 C 109.31317 76.599865 109.14066 76.424881 108.95898 76.257812 C 108.78984 76.074371 108.61354 75.899265 108.42969 75.730469 C 108.26464 75.551659 108.0931 75.379731 107.91406 75.214844 C 107.74307 75.028967 107.56497 74.850567 107.37891 74.679688 C 107.21147 74.498036 107.03733 74.323551 106.85547 74.15625 C 106.68446 73.970385 106.50639 73.791962 106.32031 73.621094 C 106.14863 73.434638 105.97006 73.255331 105.7832 73.083984 C 105.61265 72.898986 105.4355 72.720885 105.25 72.550781 C 105.08126 72.36763 104.90605 72.192006 104.72266 72.023438 C 104.54989 71.835435 104.36981 71.6551 104.18164 71.482422 C 104.00945 71.295184 103.83006 71.115383 103.64258 70.943359 C 103.47162 70.75744 103.29345 70.579129 103.10742 70.408203 C 102.93415 70.219414 102.75325 70.038594 102.56445 69.865234 C 102.39118 69.676445 102.21028 69.495625 102.02148 69.322266 C 101.84703 69.132067 101.66481 68.949937 101.47461 68.775391 C 101.29877 68.583688 101.11565 68.400407 100.92383 68.224609 C 100.74864 68.033846 100.56604 67.850772 100.375 67.675781 C 100.19925 67.48432 100.01593 67.300581 99.824219 67.125 C 99.648324 66.933352 99.465318 66.749957 99.273438 66.574219 C 99.095112 66.379804 98.909605 66.193673 98.714844 66.015625 C 98.539033 65.824217 98.355826 65.640367 98.164062 65.464844 C 97.988039 65.272936 97.803377 65.090031 97.611328 64.914062 C 97.431941 64.718063 97.244899 64.530971 97.048828 64.351562 C 96.873187 64.159893 96.689665 63.976571 96.498047 63.800781 C 96.3159 63.601366 96.125171 63.410792 95.925781 63.228516 C 95.747984 63.034493 95.563302 62.847665 95.369141 62.669922 C 95.189063 62.472989 94.999644 62.28567 94.802734 62.105469 C 94.620983 61.906641 94.431323 61.71693 94.232422 61.535156 C 92.593791 59.744783 90.239713 58.613281 87.626953 58.613281 L 70.638672 58.613281 L 70.638672 65.275391 C 70.638672 70.040907 67.864528 74.153464 63.849609 76.115234 L 63.849609 75.919922 L 63.332031 75.919922 L 63.332031 75.402344 L 62.8125 75.402344 L 62.8125 74.884766 L 62.292969 74.884766 L 62.292969 74.363281 L 61.771484 74.363281 L 61.771484 73.841797 L 61.248047 73.841797 L 61.248047 73.318359 L 60.722656 73.318359 L 60.722656 72.792969 L 60.195312 72.792969 L 60.195312 72.265625 L 59.667969 72.265625 L 59.667969 71.738281 L 59.136719 71.738281 L 59.136719 71.207031 L 58.605469 71.207031 L 58.605469 70.675781 L 58.072266 70.675781 L 58.072266 70.142578 L 57.537109 70.142578 L 57.537109 69.607422 L 57 69.607422 L 57 69.072266 L 56.462891 69.072266 L 56.462891 68.533203 L 55.921875 68.533203 L 55.921875 67.994141 L 55.380859 67.994141 L 55.380859 67.451172 L 54.837891 67.451172 L 54.837891 66.908203 L 54.292969 66.908203 L 54.292969 66.365234 L 53.748047 66.365234 L 53.748047 65.818359 L 53.199219 65.818359 L 53.199219 65.269531 L 52.650391 65.269531 L 52.650391 64.720703 L 52.099609 64.720703 L 52.099609 64.169922 L 51.546875 64.169922 L 51.546875 63.617188 L 50.992188 63.617188 L 50.992188 63.0625 L 50.435547 63.0625 L 50.435547 62.505859 L 49.878906 62.505859 L 49.878906 61.949219 L 49.318359 61.949219 L 49.318359 61.388672 L 48.757812 61.388672 L 48.757812 60.828125 L 48.195312 60.828125 L 48.195312 60.265625 L 47.630859 60.265625 L 47.630859 59.701172 L 47.066406 59.701172 L 47.066406 59.136719 L 46.498047 59.136719 L 46.498047 58.568359 L 32 58.568359 z" style="fill:url(#d);opacity:0.2;fill-opacity:1"/>
      <path clip-path="url(#e)" d="m 87.058831,134 c 4.917649,0 8.941179,-4.02352 8.941179,-8.94117 l 0,-17.88236 6.70587,0 c 6.16942,0 11.17648,-5.00706 11.17648,-11.176467 0,-6.169412 -5.00706,-11.176473 -11.17648,-11.176473 l -6.70587,0 0,-17.882349 c 0,-4.917648 -4.02353,-8.896473 -8.941179,-8.896473 l -16.988235,0 0,6.661178 c 0,6.661173 -5.409413,12.070585 -12.070591,12.070585 -6.661178,0 -12.07059,-5.409412 -12.07059,-12.070585 l 0,-6.705883 -16.988236,0 C 24.02353,58.000003 20,62.023533 20,66.941181 l 0,58.117649 C 20,129.97648 24.02353,134 28.941179,134 Z" inkscape:connector-curvature="0" sodipodi:nodetypes="cscssscsscssscscccc" style="fill:#f5f5f5;filter:url(#f)"/>
      <g>
        <path style="fill:#ffffff;opacity:0.2" d="M 28.941406 58 C 24.023757 58 20 62.023758 20 66.941406 L 20 67.941406 C 20 63.023758 24.023757 59 28.941406 59 L 45.929688 59 L 45.929688 58 L 28.941406 58 z M 70.070312 58.044922 L 70.070312 59.044922 L 87.058594 59.044922 C 91.976243 59.044922 96 63.023758 96 67.941406 L 96 66.941406 C 96 62.023758 91.976243 58.044922 87.058594 58.044922 L 70.070312 58.044922 z M 45.929688 64.705078 L 45.929688 65.705078 C 45.929688 72.366251 51.338822 77.777344 58 77.777344 C 64.661178 77.777344 70.070312 72.366251 70.070312 65.705078 L 70.070312 64.705078 C 70.070312 71.366251 64.661178 76.777344 58 76.777344 C 51.338822 76.777344 45.929688 71.366251 45.929688 64.705078 z M 96 84.824219 L 96 85.824219 L 102.70508 85.824219 C 108.70577 85.824219 113.59383 90.563958 113.85742 96.5 C 113.86483 96.333086 113.88281 96.168732 113.88281 96 C 113.88281 89.830588 108.8745 84.824219 102.70508 84.824219 L 96 84.824219 z"/>
        <path style="fill:#000000;opacity:0.2" d="M 113.85742 95.5 C 113.59383 101.43604 108.70577 106.17578 102.70508 106.17578 L 96 106.17578 L 96 107.17578 L 102.70508 107.17578 C 108.8745 107.17578 113.88281 102.16941 113.88281 96 C 113.88281 95.831268 113.86483 95.666914 113.85742 95.5 z M 20 124.05859 L 20 125.05859 C 20 129.97624 24.023757 134 28.941406 134 L 87.058594 134 C 91.976243 134 96 129.97624 96 125.05859 L 96 124.05859 C 96 128.97624 91.976243 133 87.058594 133 L 28.941406 133 C 24.023757 133 20 128.97624 20 124.05859 z"/>
      </g>
    </g>
  </g>
  <g inkscape:groupmode="layer" inkscape:label="finish" sodipodi:insensitive="true">
    <path style="opacity:0.2;fill:#000000;fill-opacity:1;fill-rule:evenodd;stroke:none;stroke-width:1px;stroke-linecap:butt;stroke-linejoin:miter;stroke-opacity:1" d="m 32,171 0,1 c 0,6 6,12 12,12 l 104,0 c 6,0 12,-6 12,-12 l 0,-1 c 0,6 -6,12 -12,12 l -104,0 c -6,0 -12,-6 -12,-12 z" inkscape:connector-curvature="0"/>
    <path style="opacity:0.2;fill:#ffffff;fill-opacity:1;fill-rule:evenodd;stroke:none;stroke-width:1px;stroke-linecap:butt;stroke-linejoin:miter;stroke-opacity:1" d="M 44,8 C 38,8 32,14 32,20 l 0,1 C 32,15 38,9 44,9 l 104,0 c 6,0 12,6 12,12 l 0,-1 C 160,14 154,8 148,8 L 44,8 Z" inkscape:connector-curvature="0"/>
    <path style="opacity:0.1;fill:url(#g);fill-opacity:1;fill-rule:evenodd;stroke:none;stroke-width:1px;stroke-linecap:butt;stroke-linejoin:miter;stroke-opacity:1" d="M 44,8 C 38,8 32,14 32,20 l 0,38 -3.058594,0 C 24.023757,58 20,62.023758 20,66.941406 l 0,58.117184 C 20,129.97624 24.023757,134 28.941406,134 L 32,134 l 0,38 c 0,6 6,12 12,12 l 104,0 c 6,0 12,-6 12,-12 L 160,20 C 160,14 154,8 148,8 L 44,8 Z" inkscape:connector-curvature="0"/>
  </g>
</svg>
