<svg xmlns="http://www.w3.org/2000/svg" xmlns:xlink="http://www.w3.org/1999/xlink" viewBox="0 0 192 192" height="1em" width="1em">
  <defs>
    <linearGradient id="b">
      <stop style="stop-color:#fff;stop-opacity:1" offset="0"/>
      <stop style="stop-color:#fff;stop-opacity:0" offset="1"/>
    </linearGradient>
    <linearGradient id="a">
      <stop style="stop-color:#263238;stop-opacity:1" offset="0"/>
      <stop style="stop-color:#263238;stop-opacity:0" offset="1"/>
    </linearGradient>
    <linearGradient xlink:href="#a" id="d" x1="58.034" y1="58.034" x2="160" y2="160" gradientUnits="userSpaceOnUse"/>
    <filter style="color-interpolation-filters:sRGB" id="c">
      <feFlood flood-opacity=".2" flood-color="#000" result="flood"/>
      <feComposite in="flood" in2="SourceGraphic" operator="in" result="composite1"/>
      <feGaussianBlur in="composite1" stdDeviation="2" result="blur"/>
      <feOffset dy="4" result="offset"/>
      <feComposite in="SourceGraphic" in2="offset" result="fbSourceGraphic"/>
      <feColorMatrix result="fbSourceGraphicAlpha" in="fbSourceGraphic" values="0 0 0 -1 0 0 0 0 -1 0 0 0 0 -1 0 0 0 0 1 0"/>
      <feFlood flood-opacity=".2" flood-color="#000" result="flood"/>
      <feComposite in2="fbSourceGraphic" in="flood" operator="in" result="composite1"/>
      <feGaussianBlur in="composite1" stdDeviation="2" result="blur"/>
      <feOffset result="offset"/>
      <feComposite in2="offset" in="fbSourceGraphic" result="composite2"/>
    </filter>
    <filter style="color-interpolation-filters:sRGB" id="f" height="1.3">
      <feFlood flood-opacity=".2" flood-color="#263238" result="flood"/>
      <feComposite in="flood" in2="SourceGraphic" operator="in" result="composite1"/>
      <feGaussianBlur in="composite1" stdDeviation="4" result="blur"/>
      <feOffset dy="4" result="offset"/>
      <feComposite in="SourceGraphic" in2="offset" result="composite2"/>
    </filter>
    <radialGradient xlink:href="#b" id="g" cx="20" cy="26" fx="20" fy="26" r="70" gradientTransform="matrix(0 2.51429 -2.34286 0 80.914 -42.286)" gradientUnits="userSpaceOnUse"/>
    <clipPath clipPathUnits="userSpaceOnUse" id="e">
      <path d="M44 8c-6 0-12 6-12 12v38h-3.059C24.024 58 20 62.024 20 66.941v58.118c0 4.917 4.024 8.941 8.941 8.941H32v38c0 6 6 12 12 12h104c6 0 12-6 12-12V20c0-6-6-12-12-12H44Z" style="fill:#00bcd4;fill-opacity:1;fill-rule:evenodd;stroke:none;stroke-width:1px;stroke-linecap:butt;stroke-linejoin:miter;stroke-opacity:1"/>
    </clipPath>
  </defs>
  <g style="filter:url(#c)">
    <path d="M32 20c0-6 6-12 12-12h104c6 0 12 6 12 12v152c0 6-6 12-12 12H44c-6 0-12-6-12-12z" style="fill:#00bcd4;fill-opacity:1;fill-rule:evenodd;stroke:none;stroke-width:1px;stroke-linecap:butt;stroke-linejoin:miter;stroke-opacity:1"/>
    <path d="M44 8c-6 0-12 6-12 12v152c0 6 6 12 12 12h104c6 0 12-6 12-12V20c0-6-6-12-12-12H44zm0 24h104v128H44V32z" style="fill:#263238;fill-rule:evenodd;stroke:none;stroke-width:1px;stroke-linecap:butt;stroke-linejoin:miter;stroke-opacity:1"/>
    <path d="M32 58.568v74.17l.002.002c.06.063.121.125.184.186.058.06.118.117.177.176l.178.18c.062.063.126.125.19.187.054.055.108.11.164.164.066.068.133.135.2.201.059.06.119.118.178.176.062.063.123.126.186.187.062.064.126.126.19.188.059.061.118.122.18.181.068.071.137.14.208.21.058.059.116.117.176.175.067.07.134.138.203.205.064.067.13.131.197.196.065.067.13.134.198.199.068.07.138.139.209.207.06.062.123.123.185.183.072.075.144.15.219.221.064.067.13.13.197.195.068.07.135.14.205.207.066.068.132.134.2.2.07.074.144.145.218.216.072.075.144.15.219.221.067.07.136.136.205.203.07.073.142.143.215.213.07.073.141.146.215.217.071.074.144.145.218.217.07.071.138.142.21.21.077.082.157.161.238.239.067.07.135.138.205.205.076.08.153.158.232.234.074.077.15.151.227.225.077.08.156.16.236.236.072.075.146.147.22.22.076.078.153.154.231.23.074.076.147.15.223.224.08.083.16.163.242.242.077.08.155.16.234.237.078.08.158.158.239.236.08.084.164.165.248.246.073.076.146.151.222.225.082.085.166.168.25.25.08.082.162.162.245.242.08.083.16.166.244.246.08.084.164.165.248.246.084.087.168.174.256.258.076.08.155.156.234.232.085.089.171.175.26.26.082.086.166.171.252.254.083.087.169.17.256.254.084.087.168.174.255.258.088.09.177.178.268.265.08.083.16.165.242.245.088.091.178.181.27.27.086.088.174.175.263.26.087.09.174.18.264.266.09.094.182.184.275.274.086.088.172.175.26.26.088.091.178.181.27.27.086.089.174.177.263.263.092.095.184.19.28.281.09.094.182.184.275.274.093.096.187.19.283.283.086.089.173.176.262.261.096.101.196.199.297.295.089.093.178.185.271.274.093.096.187.189.284.281.092.097.186.192.283.285.09.095.183.187.277.278.096.1.196.198.297.294.094.099.19.195.29.29.097.101.196.201.298.298.093.097.188.19.285.284.093.097.188.193.285.287.099.103.2.204.303.302.1.104.2.206.305.305.092.097.186.19.283.283.1.106.203.208.308.309.099.103.198.204.301.303.1.103.201.203.305.302.102.107.206.211.312.313.095.1.192.196.291.29a8.3 8.3 0 0 0 .325.325c.098.103.199.204.302.303.102.106.206.209.313.31.102.108.205.213.312.315.1.105.202.206.307.306.108.114.219.225.332.332.099.104.2.205.303.303.106.112.216.222.328.328.104.11.21.218.32.323.108.113.219.222.332.33.102.107.208.21.315.312.105.11.212.217.322.322.109.115.22.228.334.336.11.116.222.227.338.336.105.111.213.22.324.325.106.111.213.22.324.326.113.12.23.234.35.347.103.11.21.215.318.319.115.122.234.24.356.355.108.114.218.224.332.332.11.117.225.23.342.34.111.118.224.232.341.344.11.115.221.226.336.336.117.124.238.244.362.361.11.117.223.23.34.34.11.116.223.228.34.338.116.124.235.246.359.363.117.124.237.243.361.36.11.115.222.228.338.337.12.127.244.25.371.37.111.117.224.232.342.343.118.126.24.249.365.367.117.124.238.243.361.36.12.126.243.25.37.369.115.122.234.24.357.355.118.126.24.247.365.366.117.123.236.242.36.359.121.13.246.255.375.377.12.127.244.25.37.37.123.13.25.256.38.378.117.125.238.246.363.363.122.13.247.257.377.38.118.125.241.246.367.364.126.134.255.263.389.39.123.13.248.257.379.38.125.133.255.263.388.389.122.129.248.253.377.375.125.132.253.26.385.384a9.7 9.7 0 0 0 .379.38c.128.135.259.268.394.396.126.134.257.263.391.388.129.137.261.27.398.399.123.13.249.256.38.379.131.14.267.276.408.408.124.132.25.259.382.383.13.139.266.274.405.404.13.14.266.275.406.406.127.136.259.266.394.393.128.136.259.268.395.396.135.145.276.283.42.418.129.138.261.27.398.399.132.14.266.276.407.408.132.141.269.276.41.408.13.14.263.274.402.405.138.147.28.288.428.425.129.138.26.272.398.4.136.146.279.286.424.423.135.143.273.283.416.418.135.144.276.282.42.418.136.144.275.286.42.421.138.148.282.29.43.428a8.2 8.2 0 0 0 .418.416c.135.145.273.285.418.42.14.15.284.294.433.434.14.15.285.295.436.435.136.146.278.286.424.422.137.147.277.289.423.426.142.152.288.3.44.441.142.153.29.3.443.442.139.148.281.29.43.43.139.148.283.292.431.431.144.154.292.304.446.447.144.155.294.304.449.448.116.123.237.24.36.357H148c6 0 12-6 12-12v-44.709c-.078-.08-.155-.16-.236-.236a8.954 8.954 0 0 0-.332-.332 8.965 8.965 0 0 0-.33-.33 8.982 8.982 0 0 0-.334-.334 8.979 8.979 0 0 0-.33-.332 8.98 8.98 0 0 0-.354-.352 8.977 8.977 0 0 0-.332-.332 8.978 8.978 0 0 0-.342-.34 8.98 8.98 0 0 0-.346-.346 8.978 8.978 0 0 0-.34-.341 8.994 8.994 0 0 0-.345-.346 8.981 8.981 0 0 0-.348-.348 8.962 8.962 0 0 0-.35-.347 8.982 8.982 0 0 0-.347-.348 8.993 8.993 0 0 0-.355-.356 9.764 9.764 0 0 0-.352-.353 8.98 8.98 0 0 0-.354-.352 8.964 8.964 0 0 0-.359-.36 8.981 8.981 0 0 0-.357-.356 8.981 8.981 0 0 0-.36-.36 8.986 8.986 0 0 0-.363-.363 8.973 8.973 0 0 0-.37-.37 8.968 8.968 0 0 0-.359-.359 8.96 8.96 0 0 0-.369-.369 8.985 8.985 0 0 0-.365-.365 8.98 8.98 0 0 0-.371-.371 8.98 8.98 0 0 0-.371-.371 8.96 8.96 0 0 0-.38-.379 8.97 8.97 0 0 0-.368-.37 8.972 8.972 0 0 0-.38-.378 8.978 8.978 0 0 0-.374-.375 8.982 8.982 0 0 0-.38-.38 8.976 8.976 0 0 0-.382-.382 8.97 8.97 0 0 0-.39-.39 8.974 8.974 0 0 0-.38-.377 8.982 8.982 0 0 0-.388-.391 8.979 8.979 0 0 0-.385-.383 8.988 8.988 0 0 0-.388-.39 8.982 8.982 0 0 0-.393-.391 8.968 8.968 0 0 0-.395-.397 8.984 8.984 0 0 0-.396-.394 8.99 8.99 0 0 0-.395-.397 8.983 8.983 0 0 0-.394-.394 8.987 8.987 0 0 0-.4-.399 8.97 8.97 0 0 0-.409-.408 8.975 8.975 0 0 0-.398-.398 8.978 8.978 0 0 0-.404-.404 8.976 8.976 0 0 0-.407-.407 8.994 8.994 0 0 0-.41-.41 8.983 8.983 0 0 0-.41-.41 8.981 8.981 0 0 0-.406-.406 8.98 8.98 0 0 0-.408-.408 8.964 8.964 0 0 0-.418-.418 8.984 8.984 0 0 0-.405-.407 8.987 8.987 0 0 0-.423-.424 8.98 8.98 0 0 0-.426-.423 8.982 8.982 0 0 0-.414-.414 8.994 8.994 0 0 0-.426-.426 8.955 8.955 0 0 0-.42-.42 8.962 8.962 0 0 0-.43-.428 8.984 8.984 0 0 0-.422-.424 8.99 8.99 0 0 0-.43-.43 8.972 8.972 0 0 0-.437-.437 8.991 8.991 0 0 0-.428-.428 8.981 8.981 0 0 0-.43-.427 8.98 8.98 0 0 0-.439-.44 8.985 8.985 0 0 0-.441-.441 8.978 8.978 0 0 0-.432-.434 8.98 8.98 0 0 0-.437-.435 8.983 8.983 0 0 0-.446-.446c-.142-.153-.29-.3-.443-.443a8.97 8.97 0 0 0-.443-.445c-.143-.153-.29-.3-.444-.442a8.982 8.982 0 0 0-.449-.449 8.966 8.966 0 0 0-.457-.457c-.143-.153-.29-.3-.443-.443a8.985 8.985 0 0 0-.453-.453 8.985 8.985 0 0 0-.453-.454 8.984 8.984 0 0 0-.458-.457 8.984 8.984 0 0 0-.457-.457 8.984 8.984 0 0 0-.46-.46 8.97 8.97 0 0 0-.463-.463 8.982 8.982 0 0 0-.465-.463 8.985 8.985 0 0 0-.469-.47 8.987 8.987 0 0 0-.465-.466 8.984 8.984 0 0 0-.457-.457 8.984 8.984 0 0 0-.476-.477 8.985 8.985 0 0 0-.471-.468 8.975 8.975 0 0 0-.467-.469 8.969 8.969 0 0 0-.478-.477 8.968 8.968 0 0 0-.475-.476 8.97 8.97 0 0 0-.482-.48 8.982 8.982 0 0 0-.475-.475 8.98 8.98 0 0 0-.48-.48 8.981 8.981 0 0 0-.483-.483 8.983 8.983 0 0 0-.478-.48 8.987 8.987 0 0 0-.487-.485 8.982 8.982 0 0 0-.492-.492 8.986 8.986 0 0 0-.486-.488 8.986 8.986 0 0 0-.487-.485 8.974 8.974 0 0 0-.496-.496 8.986 8.986 0 0 0-.49-.49 8.988 8.988 0 0 0-.494-.494 8.982 8.982 0 0 0-.498-.498 8.97 8.97 0 0 0-.502-.502 8.984 8.984 0 0 0-.496-.496 8.969 8.969 0 0 0-.506-.506 8.985 8.985 0 0 0-.498-.498 8.984 8.984 0 0 0-.506-.506 8.986 8.986 0 0 0-.512-.51 8.986 8.986 0 0 0-.506-.508 8.985 8.985 0 0 0-.511-.51 8.983 8.983 0 0 0-.51-.511 8.985 8.985 0 0 0-.51-.508 8.988 8.988 0 0 0-.513-.516 8.974 8.974 0 0 0-.526-.523 8.984 8.984 0 0 0-.514-.514 8.98 8.98 0 0 0-.52-.52 8.984 8.984 0 0 0-.52-.52 8.972 8.972 0 0 0-.522-.524 8.969 8.969 0 0 0-.53-.528 8.984 8.984 0 0 0-.515-.515 8.984 8.984 0 0 0-.535-.535 8.982 8.982 0 0 0-.524-.524 8.984 8.984 0 0 0-.535-.535 8.984 8.984 0 0 0-.537-.537 8.985 8.985 0 0 0-.533-.533 8.973 8.973 0 0 0-.527-.528 8.986 8.986 0 0 0-.541-.54 8.985 8.985 0 0 0-.54-.54 8.986 8.986 0 0 0-.535-.535 8.982 8.982 0 0 0-.543-.543 8.982 8.982 0 0 0-.543-.543 8.983 8.983 0 0 0-.546-.547 8.974 8.974 0 0 0-.551-.55 8.985 8.985 0 0 0-.549-.55 8.987 8.987 0 0 0-.55-.55 8.971 8.971 0 0 0-.552-.55 8.973 8.973 0 0 0-.558-.56 8.988 8.988 0 0 0-.55-.55 8.984 8.984 0 0 0-.554-.55 8.97 8.97 0 0 0-.562-.563 8.982 8.982 0 0 0-.551-.551c-.182-.2-.373-.39-.572-.572a8.985 8.985 0 0 0-.557-.56 8.985 8.985 0 0 0-.566-.564 8.97 8.97 0 0 0-.57-.57 8.94 8.94 0 0 0-6.606-2.922H70.639v6.662c0 4.766-2.774 8.878-6.79 10.84v-.195h-.517v-.518h-.52v-.517h-.519v-.522h-.522v-.521h-.523v-.524h-.525v-.525h-.528v-.527h-.527v-.528h-.531v-.531h-.532v-.531h-.533v-.533h-.535v-.536H57v-.535h-.537v-.539h-.541v-.539h-.541v-.543h-.543v-.543h-.545v-.543h-.545v-.547h-.549v-.548h-.549v-.55h-.55v-.55h-.553v-.553h-.555v-.554h-.556v-.557h-.557v-.557h-.56v-.56h-.561v-.56h-.563v-.563h-.564V59.7h-.565v-.564h-.568v-.569H32z" style="fill:url(#d);opacity:.2;fill-opacity:1"/>
    <path clip-path="url(#e)" d="M87.059 134c4.917 0 8.941-4.024 8.941-8.941v-17.883h6.706c6.17 0 11.176-5.007 11.176-11.176 0-6.17-5.007-11.176-11.176-11.176H96V66.94c0-4.917-4.024-8.896-8.941-8.896H70.07v6.66c0 6.662-5.41 12.071-12.071 12.071s-12.07-5.409-12.07-12.07V58H28.94C24.024 58 20 62.024 20 66.941v58.118c0 4.917 4.024 8.941 8.941 8.941Z" style="fill:#f5f5f5;filter:url(#f)"/>
    <path style="fill:#fff;opacity:.2" d="M28.941 58C24.024 58 20 62.024 20 66.941v1C20 63.024 24.024 59 28.941 59H45.93v-1H28.94zm41.13.045v1h16.988c4.917 0 8.941 3.979 8.941 8.896v-1c0-4.917-4.024-8.896-8.941-8.896H70.07zm-24.141 6.66v1c0 6.661 5.409 12.072 12.07 12.072 6.661 0 12.07-5.41 12.07-12.072v-1c0 6.661-5.409 12.072-12.07 12.072-6.661 0-12.07-5.41-12.07-12.072zM96 84.825v1h6.705c6 0 10.889 4.739 11.152 10.675.008-.167.026-.331.026-.5 0-6.17-5.008-11.176-11.178-11.176H96z"/>
    <path style="fill:#000;opacity:.2" d="M113.857 95.5c-.263 5.936-5.151 10.676-11.152 10.676H96v1h6.705c6.17 0 11.178-5.007 11.178-11.176 0-.169-.018-.333-.026-.5zM20 124.059v1c0 4.917 4.024 8.941 8.941 8.941H87.06c4.917 0 8.941-4.024 8.941-8.941v-1c0 4.917-4.024 8.941-8.941 8.941H28.94c-4.917 0-8.941-4.024-8.941-8.941z"/>
  </g>
  <path style="opacity:.2;fill:#000;fill-opacity:1;fill-rule:evenodd;stroke:none;stroke-width:1px;stroke-linecap:butt;stroke-linejoin:miter;stroke-opacity:1" d="M32 171v1c0 6 6 12 12 12h104c6 0 12-6 12-12v-1c0 6-6 12-12 12H44c-6 0-12-6-12-12z"/>
  <path style="opacity:.2;fill:#fff;fill-opacity:1;fill-rule:evenodd;stroke:none;stroke-width:1px;stroke-linecap:butt;stroke-linejoin:miter;stroke-opacity:1" d="M44 8c-6 0-12 6-12 12v1c0-6 6-12 12-12h104c6 0 12 6 12 12v-1c0-6-6-12-12-12H44Z"/>
  <path style="opacity:.1;fill:url(#g);fill-opacity:1;fill-rule:evenodd;stroke:none;stroke-width:1px;stroke-linecap:butt;stroke-linejoin:miter;stroke-opacity:1" d="M44 8c-6 0-12 6-12 12v38h-3.059C24.024 58 20 62.024 20 66.941v58.118c0 4.917 4.024 8.941 8.941 8.941H32v38c0 6 6 12 12 12h104c6 0 12-6 12-12V20c0-6-6-12-12-12H44Z"/>
</svg>
