<svg width="256" height="256" xmlns="http://www.w3.org/2000/svg" preserveAspectRatio="xMidYMid"><path d="M127.963 0c70.949.559 127.791 55.473 128.036 129.303.223 67.678-55.06 128.154-131.254 126.67C55.245 254.618-1.523 198.006.03 124.088 1.403 58.802 54.668.675 127.963 0Zm-26.96 147.357c4.551 0 9.104.01 13.655-.005 2.176-.007 3.539.485 3.032 3.213-1.116 6-2.03 12.035-3.01 18.056-1.847 11.35-3.688 22.702-5.523 34.055-.176 1.082-.741 2.238.653 2.985 2.372 1.269 8.86-.347 10.201-2.587 17.007-28.38 34.006-56.765 50.995-85.156 3.53-5.905 1.678-9.098-5.246-9.15-7.965-.056-15.931-.056-23.897 0-2.474.015-4.155-.312-3.559-3.549 1.777-9.629 3.4-19.286 5.028-28.942 1.273-7.56 2.492-15.128 3.659-22.706.174-1.13.862-2.53-.98-3.2a9.641 9.641 0 0 0-10.535 3.656 80657.166 80657.166 0 0 0-39.218 65.382c-3.942 6.577-8.003 13.085-11.759 19.768-2.815 5.005-.967 8.105 4.558 8.165 3.981.043 7.965.009 11.948.017l-.001-.002Z" fill="#1D5FE6"/></svg>