<svg width="512" height="99" xmlns="http://www.w3.org/2000/svg" preserveAspectRatio="xMidYMid"><path d="M163.015 78.728c-6.05 0-11.532-1.292-16.447-3.876a30.147 30.147 0 0 1-11.532-10.854c-2.772-4.66-4.157-9.912-4.155-15.755.002-5.843 1.387-11.066 4.155-15.669a29.347 29.347 0 0 1 11.532-10.867c4.915-2.637 10.423-3.956 16.522-3.959 5.143 0 9.779.899 13.907 2.696a27.843 27.843 0 0 1 10.523 7.755l-8.819 8.086c-4.014-4.606-8.988-6.909-14.922-6.909a19.642 19.642 0 0 0-9.835 2.444 17.112 17.112 0 0 0-6.784 6.637 21.295 21.295 0 0 0 0 19.545 17.7 17.7 0 0 0 6.784 6.74c2.883 1.57 6.16 2.354 9.835 2.354 5.934 0 10.908-2.33 14.922-6.99l8.819 8.085a27.485 27.485 0 0 1-10.512 7.855c-4.182 1.788-8.846 2.682-13.993 2.682Zm60.198 0c-6.162 0-11.73-1.321-16.705-3.962a29.975 29.975 0 0 1-11.618-10.868c-2.767-4.66-4.152-9.883-4.155-15.669-.002-5.785 1.383-10.98 4.155-15.583a29.808 29.808 0 0 1 11.618-10.953c4.973-2.637 10.541-3.956 16.705-3.959 6.164-.002 11.701 1.318 16.612 3.959a29.802 29.802 0 0 1 11.615 10.953c2.827 4.606 4.24 9.8 4.24 15.583 0 5.783-1.413 11.006-4.24 15.67a29.968 29.968 0 0 1-11.615 10.867c-4.913 2.641-10.45 3.962-16.612 3.962Zm0-11.628a19.182 19.182 0 0 0 9.494-2.358 17.296 17.296 0 0 0 6.616-6.74 20.655 20.655 0 0 0 0-19.545 16.717 16.717 0 0 0-6.616-6.654 19.67 19.67 0 0 0-18.991 0 17.28 17.28 0 0 0-6.699 6.654 21.296 21.296 0 0 0 0 19.545 17.902 17.902 0 0 0 6.699 6.74 19.193 19.193 0 0 0 8.594 2.346l.903.012Zm96.144-48.353v58.969h-11.275l-29.604-35.8v35.8h-13.556v-58.97h11.36l29.507 35.8v-35.8h13.568Zm101.558-1.013c6.164-.002 11.705 1.318 16.62 3.959a29.809 29.809 0 0 1 11.614 10.953c2.828 4.606 4.241 9.8 4.241 15.583 0 5.783-1.413 11.006-4.24 15.67a29.973 29.973 0 0 1-11.615 10.867c-4.918 2.641-10.459 3.962-16.62 3.962-6.16 0-11.73-1.321-16.705-3.962a29.957 29.957 0 0 1-11.617-10.868c-2.768-4.66-4.153-9.883-4.153-15.669 0-5.785 1.385-10.98 4.153-15.583a29.813 29.813 0 0 1 11.617-10.953c4.972-2.637 10.541-3.956 16.705-3.959Zm-81.894 1.013 18.062 42.115 18.313-42.115h13.65l-25.691 58.969h-13.568l-25.606-58.97h14.84Zm129.652 0 13.65 19.121 13.398-19.121h14.84L489.87 47.22 512 77.716h-15.85l-14.335-20.471-14.075 20.47h-15.77l21.96-29.988-20.858-28.98h15.601Zm-47.758 10.612c-3.322 0-6.588.84-9.497 2.444a17.27 17.27 0 0 0-6.708 6.654 21.282 21.282 0 0 0 0 19.545 17.882 17.882 0 0 0 6.7 6.74 19.181 19.181 0 0 0 8.601 2.347l.904.01a19.207 19.207 0 0 0 9.498-2.357 17.335 17.335 0 0 0 6.613-6.74 20.664 20.664 0 0 0 0-19.545 16.736 16.736 0 0 0-6.613-6.654 19.678 19.678 0 0 0-9.498-2.444Z" fill="#313131"/><path d="M.933 60.305 50.329 86.28l49.785-25.769v11.82L50.298 98.164.933 72.17V60.305Zm99.181-21.287v11.817L50.298 76.67.933 50.677V39.214L50.326 64.79l49.788-25.772ZM50.226 0l50.997 28.57L75.63 41.8 50.236 55.147 0 28.543 50.226 0Zm.034 12.058L21.824 28.223l28.426 15.05 20.602-10.837 8.22-4.237-28.812-16.14Z" fill="#4F8CE8"/></svg>