<svg width="256" height="256" xmlns="http://www.w3.org/2000/svg" preserveAspectRatio="xMidYMid"><path d="M256 74.981v106.038l-3.417.333-123.367-51.822L128 128l128-53.019" fill="#F36A22"/><path d="M256 181.019 181.019 256l-1.145-.881-52.309-123.609L128 128l128 53.019" fill="#F3852F"/><path d="m128 128-2.828 1.943-50.636 123.898.445 2.159h106.038L128 128" fill="#F2C32E"/><path d="m0 181.019 3.174-2.468 121.998-51.002L128 128 74.981 256 0 181.019" fill="#CBDC38"/><path d="m0 74.981 3.174-.215 123.071 50.473L128 128 0 181.019V74.981" fill="#B5D66D"/><path d="M74.981 0 0 74.981 128 128l.225-3.256L80.496 3.026 74.981 0" fill="#69C5E5"/><path d="M74.981 0h106.038L128 128 74.981 0" fill="#6D9FD5"/></svg>