<svg width="256" height="256" xmlns="http://www.w3.org/2000/svg" preserveAspectRatio="xMidYMid"><path d="M256 128c0 70.692-57.308 128-128 128C57.308 256 0 198.692 0 128 0 57.308 57.307 0 128 0c70.692 0 128 57.307 128 128" fill="#7D29E4"/><path d="M169.888 125.664h-50.092V63.239c0-2.88-1.413-5.215-5.216-5.215-3.612 0-5.215 2.335-5.215 5.215v130.608c0 2.88 1.413 5.216 5.216 5.216 3.612 0 5.215-2.335 5.215-5.216v-57.752h50.092c2.88 0 5.215-1.412 5.215-5.215 0-3.614-2.335-5.216-5.215-5.216" fill="#FFF"/></svg>