<svg width="256" height="342" xmlns="http://www.w3.org/2000/svg" xmlns:xlink="http://www.w3.org/1999/xlink" preserveAspectRatio="xMidYMid"><defs><linearGradient x1="42.593%" y1="0%" x2="57.245%" y2="93.174%" id="b"><stop stop-color="#E6AD10" offset="0%"/><stop stop-color="#C87E0E" offset="100%"/></linearGradient><linearGradient x1="40.122%" y1="0%" x2="62.028%" y2="95.592%" id="d"><stop stop-color="#F6D751" offset="0%"/><stop stop-color="#E6AD10" offset="100%"/></linearGradient><linearGradient x1="27.774%" y1="0%" x2="55.012%" y2="96.828%" id="e"><stop stop-color="#F9E589" offset="0%"/><stop stop-color="#F6D751" offset="100%"/></linearGradient><path d="M142.222 14.222C142.222 6.368 148.59 0 156.444 0h85.334C249.632 0 256 6.368 256 14.222v312.89c0 7.854-6.368 14.221-14.222 14.221H14.222C6.368 341.333 0 334.966 0 327.111V184.89c0-7.855 6.368-14.222 14.222-14.222h56.89V99.556c0-7.855 6.367-14.223 14.222-14.223h56.888v-71.11Z" id="a"/></defs><mask id="c" fill="#fff"><use xlink:href="#a"/></mask><path fill="url(#b)" mask="url(#c)" d="M256 0v341.333H142.222V0z"/><path d="M184.889 100.978v241.778H71.11v-256h99.556c7.854 0 14.222 6.367 14.222 14.222Z" fill-opacity=".2" mask="url(#c)"/><path d="M184.889 106.667v241.777H71.11v-256h99.556c7.854 0 14.222 6.368 14.222 14.223Z" fill-opacity=".18" mask="url(#c)"/><path d="M184.889 99.556v241.777H71.11v-256h99.556c7.854 0 14.222 6.368 14.222 14.223Z" fill="url(#d)" mask="url(#c)"/><path d="M0 170.667v170.666h113.778V184.89c0-7.855-6.368-14.222-14.222-14.222H0Z" fill="url(#e)" mask="url(#c)"/></svg>