<svg width="256" height="286" xmlns="http://www.w3.org/2000/svg" preserveAspectRatio="xMidYMid"><defs><linearGradient x1="32.902%" y1="78.13%" x2="85.889%" y2="33.994%" id="a"><stop stop-color="#A4681D" offset="0%"/><stop stop-color="#E18F2F" offset="31%"/><stop stop-color="#F0AD3E" offset="100%"/></linearGradient><linearGradient x1="-5.516%" y1="75.392%" x2="87.603%" y2="17.059%" id="b"><stop stop-color="#F0AD3E" offset="0%"/><stop stop-color="#E18F2F" offset="69%"/><stop stop-color="#A4681D" offset="100%"/></linearGradient><linearGradient x1="-.003%" y1="50.024%" x2="100.006%" y2="50.024%" id="c"><stop stop-color="#006991" offset="0%"/><stop stop-color="#008BBF" offset="25%"/><stop stop-color="#008BBF" offset="62%"/><stop stop-color="#00AEEF" offset="100%"/></linearGradient></defs><path d="M92.754 0 49.112 25.096a45.054 45.054 0 0 0-14.068 12.925 21.348 21.348 0 0 0 0 24.902 45.01 45.01 0 0 0 14.068 12.754l28.953 16.716a26.921 26.921 0 0 1-3.835-3.404c-9.938-10.733-9.29-27.484 1.442-37.419C91.699 40.908 99.282 18.031 92.754 0Z" fill="url(#a)" transform="translate(35.299)"/><path d="m176.338 192.947-21.113-12.192a19.023 19.023 0 0 1-.754 33.562L109.3 240.513a31.725 31.725 0 0 0-16.545 27.12v17.556l84.488-48.769a25.375 25.375 0 0 0-.904-43.385v-.088Z" fill="url(#b)" transform="translate(35.299)"/><path d="M84.411 75.567a45.01 45.01 0 0 1-14.068-12.753 21.348 21.348 0 0 1 0-24.902A45.041 45.041 0 0 1 84.41 25.096l-33.26 19.388a32.573 32.573 0 0 0-15.852 27.7 32.578 32.578 0 0 0 15.42 27.942l160.918 92.91a25.375 25.375 0 0 1 .904 43.384l27.615-15.942A31.703 31.703 0 0 0 256 193.024a31.703 31.703 0 0 0-15.844-27.455L84.41 75.567Z" fill="#F0AD3E"/><path d="M92.754 0 49.112 25.096a45.054 45.054 0 0 0-14.068 12.925 21.348 21.348 0 0 0 0 24.902 45.01 45.01 0 0 0 14.068 12.754l28.953 16.716a26.921 26.921 0 0 1-3.835-3.404c-9.938-10.733-9.29-27.484 1.442-37.419C91.699 40.908 99.282 18.031 92.754 0Z" fill="url(#a)" transform="translate(35.299)"/><path d="m176.338 192.947-21.113-12.192a19.023 19.023 0 0 1-.754 33.562L109.3 240.513a31.725 31.725 0 0 0-16.545 27.12v17.556l84.488-48.769a25.375 25.375 0 0 0-.904-43.385v-.088Z" fill="url(#b)" transform="translate(35.299)"/><path d="M84.411 75.567a45.01 45.01 0 0 1-14.068-12.753 21.348 21.348 0 0 1 0-24.902A45.041 45.041 0 0 1 84.41 25.096l-33.26 19.388a32.573 32.573 0 0 0-15.852 27.7 32.578 32.578 0 0 0 15.42 27.942l160.918 92.91a25.375 25.375 0 0 1 .904 43.384l27.615-15.942A31.703 31.703 0 0 0 256 193.024a31.703 31.703 0 0 0-15.844-27.455L84.41 75.567Z" fill="#F0AD3E"/><path d="M46.821 203.074a32.568 32.568 0 0 1-15.419-27.942 32.557 32.557 0 0 1 15.85-27.7l-31.387 18.052a31.686 31.686 0 0 0 0 54.909l27.617 15.939 84.571 48.771v-17.555a31.752 31.752 0 0 0-16.542-27.035l-45.237-26.086a19.273 19.273 0 0 1-1.853-1.079l-17.6-10.274Z" fill="#00AEEF"/><path d="m166.095 84.787 40.566-23.415a31.71 31.71 0 0 0 15.842-27.455A31.703 31.703 0 0 0 206.66 6.462L195.631 0a24.984 24.984 0 0 1-7.994 28.326l-59.584 34.467-80.8 46.68a32.567 32.567 0 0 0-15.852 27.7 32.564 32.564 0 0 0 15.42 27.941l17.665 10.192a19.02 19.02 0 0 1-8.631-16.356 19.014 19.014 0 0 1 9.34-15.957l100.9-58.206Z" fill="url(#c)" transform="translate(0 37.936)"/><path d="M46.821 203.074a32.568 32.568 0 0 1-15.419-27.942 32.557 32.557 0 0 1 15.85-27.7l-31.387 18.052a31.686 31.686 0 0 0 0 54.909l27.617 15.939 84.571 48.771v-17.555a31.752 31.752 0 0 0-16.542-27.035l-45.237-26.086a19.273 19.273 0 0 1-1.853-1.079l-17.6-10.274Z" fill="#00AEEF"/><path d="m166.095 84.787 40.566-23.415a31.71 31.71 0 0 0 15.842-27.455A31.703 31.703 0 0 0 206.66 6.462L195.631 0a24.984 24.984 0 0 1-7.994 28.326l-59.584 34.467-80.8 46.68a32.567 32.567 0 0 0-15.852 27.7 32.564 32.564 0 0 0 15.42 27.941l17.665 10.192a19.02 19.02 0 0 1-8.631-16.356 19.014 19.014 0 0 1 9.34-15.957l100.9-58.206Z" fill="url(#c)" transform="translate(0 37.936)"/></svg>