<svg viewBox="0 0 24 24" fill="none" xmlns="http://www.w3.org/2000/svg" height="1em" width="1em">
  <path d="M21 15.546c-.523 0-1.046.151-1.5.454a2.704 2.704 0 0 1-3 0 2.704 2.704 0 0 0-3 0 2.704 2.704 0 0 1-3 0 2.704 2.704 0 0 0-3 0 2.704 2.704 0 0 1-3 0 2.701 2.701 0 0 0-1.5-.454M9 6v2m3-2v2m3-2v2M9 3h.01M12 3h.01M15 3h.01M21 21v-7a2 2 0 0 0-2-2H5a2 2 0 0 0-2 2v7h18Zm-3-9v-2a2 2 0 0 0-2-2H8a2 2 0 0 0-2 2v2h12Z" stroke="#374151" stroke-width="2" stroke-linecap="round" stroke-linejoin="round"/>
</svg>
