<svg viewBox="0 0 24 24" fill="none" xmlns="http://www.w3.org/2000/svg" height="1em" width="1em">
  <path d="M13.875 18.825A10.05 10.05 0 0 1 12 19c-4.478 0-8.268-2.943-9.543-7A9.97 9.97 0 0 1 4.02 8.971m5.858.908a3 3 0 1 1 4.243 4.243M9.878 9.878l4.242 4.242M9.88 9.88 6.59 6.59m7.532 7.532 3.29 3.29M3 3l3.59 3.59m0 0A9.953 9.953 0 0 1 12 5c4.478 0 8.268 2.943 9.543 7a10.025 10.025 0 0 1-4.132 5.411m0 0L21 21" stroke="#4B5563" stroke-width="2" stroke-linecap="round" stroke-linejoin="round"/>
</svg>
