<svg viewBox="0 0 24 24" fill="none" xmlns="http://www.w3.org/2000/svg" height="1em" width="1em">
  <path d="M8 16H5.43C3.14 16 2 14.86 2 12.57V5.43C2 3.14 3.14 2 5.43 2H10c2.29 0 3.43 1.14 3.43 3.43" stroke="#292D32" stroke-width="1.5" stroke-linecap="round" stroke-linejoin="round"/>
  <path d="M18.57 22H14c-2.29 0-3.43-1.14-3.43-3.43v-7.14C10.57 9.14 11.71 8 14 8h4.57C20.86 8 22 9.14 22 11.43v7.14c0 2.29-1.14 3.43-3.43 3.43Zm-3.7-7h3.26m-1.63 1.63v-3.26" stroke="#292D32" stroke-width="1.5" stroke-linecap="round" stroke-linejoin="round"/>
</svg>
