<svg viewBox="0 0 24 24" fill="none" xmlns="http://www.w3.org/2000/svg" height="1em" width="1em">
  <path opacity=".4" d="M21.25 5.15v2.7c0 1.84-.56 2.4-2.4 2.4h-2.7c-1.84 0-2.4-.56-2.4-2.4v-2.7c0-1.84.56-2.4 2.4-2.4h2.7c1.84 0 2.4.56 2.4 2.4Zm-11 11v2.7c0 1.84-.56 2.4-2.4 2.4h-2.7c-1.84 0-2.4-.56-2.4-2.4v-2.7c0-1.84.56-2.4 2.4-2.4h2.7c1.84 0 2.4.56 2.4 2.4Z" fill="#292D32"/>
  <path d="M16.63 11.75v1.87c0 2.28-.73 3.01-3.01 3.01h-1.87v-.48c0-2.66-1.24-3.9-3.9-3.9h-.48v-1.87c0-2.28.73-3.01 3.01-3.01h1.87v.48c0 2.66 1.24 3.9 3.9 3.9h.48Z" fill="#292D32"/>
</svg>
