<svg viewBox="0 0 24 24" fill="none" xmlns="http://www.w3.org/2000/svg" height="1em" width="1em">
  <path opacity=".4" d="M13.89 2.88 9.2 2.14c-3.91-.61-5.72.71-6.34 4.62l-.74 4.69c-.4 2.56.02 4.22 1.47 5.23.76.54 1.8.9 3.15 1.11l4.69.74c3.91.61 5.72-.71 6.34-4.62l.73-4.69c.12-.77.17-1.46.13-2.07-.13-2.5-1.6-3.78-4.74-4.27ZM8.24 9.35c-1.17 0-2.12-.95-2.12-2.11 0-1.17.95-2.12 2.12-2.12 1.16 0 2.11.95 2.11 2.12 0 1.16-.95 2.11-2.11 2.11Z" fill="#292D32"/>
  <path d="M20.5 13.47 19 17.98c-1.25 3.76-3.25 4.76-7.01 3.51l-4.51-1.5c-2.27-.75-3.53-1.79-3.89-3.31.76.54 1.8.9 3.15 1.11l4.69.74c3.91.61 5.72-.71 6.34-4.62l.73-4.69c.12-.77.17-1.46.13-2.07 2.39 1.27 2.91 3.19 1.87 6.32ZM10.35 7.24c0 1.16-.95 2.11-2.11 2.11-1.17 0-2.12-.95-2.12-2.11 0-1.17.95-2.12 2.12-2.12 1.16 0 2.11.95 2.11 2.12Z" fill="#292D32"/>
</svg>
