<svg viewBox="0 0 24 24" fill="none" xmlns="http://www.w3.org/2000/svg" height="1em" width="1em">
  <path d="M19.32 10H4.69c-1.48 0-2.68-1.21-2.68-2.68V4.69c0-1.48 1.21-2.68 2.68-2.68h14.63C20.8 2.01 22 3.22 22 4.69v2.63C22 8.79 20.79 10 19.32 10Zm0 12H4.69c-1.48 0-2.68-1.21-2.68-2.68v-2.63c0-1.48 1.21-2.68 2.68-2.68h14.63c1.48 0 2.68 1.21 2.68 2.68v2.63c0 1.47-1.21 2.68-2.68 2.68ZM6 5v2m4-2v2M6 17v2m4-2v2m4-13h4m-4 12h4" stroke="#292D32" stroke-width="1.5" stroke-linecap="round" stroke-linejoin="round"/>
</svg>
