<svg viewBox="0 0 24 24" fill="none" xmlns="http://www.w3.org/2000/svg" height="1em" width="1em">
  <path d="M12 22c5.523 0 10-4.477 10-10S17.523 2 12 2 2 6.477 2 12s4.477 10 10 10Z" stroke="#292D32" stroke-width="1.5" stroke-linecap="round" stroke-linejoin="round"/>
  <g opacity=".4" stroke="#292D32" stroke-width="1.5" stroke-linecap="round" stroke-linejoin="round">
    <path d="M8 3h1a28.424 28.424 0 0 0 0 18H8m7-18a28.424 28.424 0 0 1 0 18"/>
    <path d="M3 16v-1a28.424 28.424 0 0 0 18 0v1M3 9a28.424 28.424 0 0 1 18 0"/>
  </g>
</svg>
