<svg viewBox="0 0 24 24" fill="none" xmlns="http://www.w3.org/2000/svg" height="1em" width="1em">
  <path d="M5.25 8.5a3.25 3.25 0 1 0 0-6.5 3.25 3.25 0 0 0 0 6.5ZM5 22a3 3 0 1 0 0-6 3 3 0 0 0 0 6Zm14 0a3 3 0 1 0 0-6 3 3 0 0 0 0 6Z" fill="#292D32"/>
  <path opacity=".4" d="M19.17 15.98a6.929 6.929 0 0 0-6.54-4.65h-.03l-3.53.01c-1.52.02-2.88-1.01-3.29-2.49V7c0-.42-.34-.76-.77-.76s-.76.34-.76.76v11.22c0 .42.34.76.76.76s.77-.34.77-.76V11.6c.88.78 2.03 1.26 3.28 1.26h.02l3.53-.01h.02c2.29 0 4.34 1.45 5.09 3.62.11.32.41.51.72.51.08 0 .17-.01.25-.04.41-.12.62-.56.48-.96Z" fill="#292D32"/>
</svg>
