<svg viewBox="0 0 24 24" fill="none" xmlns="http://www.w3.org/2000/svg" height="1em" width="1em">
  <path opacity=".4" d="m20.03 6.82-5.75-4.03c-1.57-1.1-3.97-1.04-5.48.13L3.79 6.83C2.78 7.61 2 9.21 2 10.47v6.9C2 19.92 4.07 22 6.61 22h10.77a4.62 4.62 0 0 0 4.61-4.62V10.6c.01-1.35-.86-3.01-1.96-3.78Z" fill="#292D32"/>
  <path d="M13.4 8.51h-2.8c-1.92 0-3.49 1.56-3.49 3.49v2.79a3.5 3.5 0 0 0 3.49 3.49h2.79c1.92 0 3.49-1.56 3.49-3.49V12c0-1.92-1.56-3.49-3.48-3.49ZM15.49 12v.7H12.7V9.91h.7c1.15 0 2.09.94 2.09 2.09ZM10.6 9.91h.7v2.79H8.51V12c0-1.15.94-2.09 2.09-2.09Zm-2.09 4.88v-.7h2.79v2.79h-.7c-1.15 0-2.09-.94-2.09-2.09Zm4.89 2.09h-.7v-2.79h2.79v.7c0 1.15-.94 2.09-2.09 2.09Z" fill="#292D32"/>
</svg>
