<svg viewBox="0 0 24 24" fill="none" xmlns="http://www.w3.org/2000/svg" height="1em" width="1em">
  <path d="M15.65 21.41c-.43 0-.86-.09-1.21-.26l-5.25-2.63c-.3-.15-.89-.14-1.18.03L5.65 19.9c-1.02.58-2.07.66-2.86.19-.8-.46-1.25-1.4-1.25-2.58V7.79c0-.91.6-1.94 1.39-2.39l4.33-2.48c.73-.42 1.84-.45 2.59-.07l5.25 2.63c.3.15.88.13 1.18-.03l2.35-1.34c1.02-.58 2.07-.66 2.86-.19.8.46 1.25 1.4 1.25 2.58v9.73c0 .91-.6 1.94-1.39 2.39l-4.33 2.48c-.38.2-.88.31-1.37.31Zm-7.01-4.49c.43 0 .86.09 1.21.26l5.25 2.63c.3.15.88.13 1.18-.03l4.33-2.48c.32-.18.63-.72.63-1.08V6.49c0-.63-.18-1.1-.51-1.28-.32-.18-.82-.11-1.36.2l-2.35 1.34c-.73.42-1.84.45-2.59.07L9.18 4.19c-.3-.15-.88-.13-1.18.03L3.67 6.7c-.32.18-.63.72-.63 1.09v9.73c0 .63.18 1.1.5 1.28.32.19.82.11 1.37-.2l2.35-1.34c.39-.23.89-.34 1.38-.34Z" fill="#292D32"/>
  <path d="M8.56 17.75c-.41 0-.75-.34-.75-.75V4c0-.41.34-.75.75-.75s.75.34.75.75v13c0 .41-.34.75-.75.75Zm7.17 3c-.41 0-.75-.34-.75-.75V6.62c0-.41.34-.75.75-.75s.75.34.75.75V20c0 .41-.34.75-.75.75Z" fill="#292D32"/>
</svg>
