<svg viewBox="0 0 24 24" fill="none" xmlns="http://www.w3.org/2000/svg" height="1em" width="1em">
  <path d="m11.15 5.19-.78-.78c-.47-.47-.47-1.23 0-1.7l.78-.78c.47-.47 1.23-.47 1.7 0l.78.78c.47.47.47 1.23 0 1.7l-.78.78c-.47.47-1.23.47-1.7 0Zm8.3 4.62h1.1c.66 0 1.2.54 1.2 1.2v1.1c0 .66-.54 1.2-1.2 1.2h-1.1c-.66 0-1.2-.54-1.2-1.2v-1.1c0-.66.54-1.2 1.2-1.2Zm-14.9 0h-1.1c-.66 0-1.2.54-1.2 1.2v1.1c0 .66.54 1.2 1.2 1.2h1.1c.66 0 1.2-.54 1.2-1.2v-1.1c0-.66-.54-1.2-1.2-1.2Zm13.99.29-5.3-5.3m-7.78 5.3 2.65-2.65m2.641 15.05h2.52c.96 0 1.58-.68 1.4-1.51l-.41-1.81h-4.5l-.41 1.81c-.18.78.5 1.51 1.4 1.51Zm3.469-9.83-1.05-1.33c-.64-.81-1.69-.81-2.33 0l-3.05 3.87c-.77.97-.77 1.6.24 2.43l1.73 1.54m4.502-.01 1.73-1.54c.97-.86 1.01-1.46.24-2.43m-4.22-4.08v2.53" stroke="#292D32" stroke-width="1.5" stroke-linecap="round" stroke-linejoin="round"/>
</svg>
