<svg viewBox="0 0 24 24" fill="none" xmlns="http://www.w3.org/2000/svg" height="1em" width="1em">
  <path d="M23 19c0 .75-.21 1.46-.58 2.06-.21.36-.48.68-.79.94-.7.63-1.62 1-2.63 1a3.97 3.97 0 0 1-3.42-1.94A3.92 3.92 0 0 1 15 19c0-1.26.58-2.39 1.5-3.12A3.999 3.999 0 0 1 23 19Zm-2.51-.02h-2.98M19 17.52v2.99" stroke="#292D32" stroke-width="1.5" stroke-miterlimit="10" stroke-linecap="round" stroke-linejoin="round"/>
  <path d="M7.97 2.85C9.2 2.3 10.57 2 12 2c5.52 0 10 4.48 10 10 0 1.31-.25 2.57-.72 3.72M4 6c-1.25 1.67-2 3.75-2 6 0 5.52 4.48 10 10 10 1.32 0 2.58-.26 3.73-.73" stroke="#292D32" stroke-width="1.5" stroke-linecap="round" stroke-linejoin="round"/>
</svg>
