<svg viewBox="0 0 24 24" fill="none" xmlns="http://www.w3.org/2000/svg" height="1em" width="1em">
  <path opacity=".4" d="M18.51 1.8c-.5 0-.9.4-.9.9v4.65c0 .5.4.9.9.9s.9-.4.9-.9V2.7c0-.5-.4-.9-.9-.9Z" fill="#292D32"/>
  <path d="M12 15.75c-.5 0-.9.4-.9.9v4.65c0 .5.4.9.9.9s.9-.4.9-.9v-4.65c0-.49-.4-.9-.9-.9Z" fill="#292D32"/>
  <path opacity=".4" d="M5.49 1.8c-.5 0-.9.4-.9.9v4.65c0 .5.4.9.9.9s.9-.4.9-.9V2.7c0-.5-.41-.9-.9-.9Zm1.86 8.37H3.63c-.5 0-.9.4-.9.9s.4.9.9.9h.96v9.33c0 .5.4.9.9.9s.9-.4.9-.9v-9.33h.96c.5 0 .9-.4.9-.9s-.41-.9-.9-.9Zm13.02 0h-3.72c-.5 0-.9.4-.9.9s.4.9.9.9h.96v9.33c0 .5.4.9.9.9s.9-.4.9-.9v-9.33h.96c.5 0 .9-.4.9-.9s-.4-.9-.9-.9Z" fill="#292D32"/>
  <path d="M13.86 12.03h-.96V2.7c0-.5-.4-.9-.9-.9s-.9.4-.9.9v9.33h-.96c-.5 0-.9.4-.9.9s.4.9.9.9h3.72c.5 0 .9-.4.9-.9s-.4-.9-.9-.9Z" fill="#292D32"/>
</svg>
