<svg viewBox="0 0 24 24" fill="none" xmlns="http://www.w3.org/2000/svg" height="1em" width="1em">
  <path opacity=".4" d="m10.96 2.06-5.5 2.06c-1.05.4-1.91 1.64-1.91 2.77v8.1c0 .81.53 1.88 1.18 2.36l5.5 4.11c.97.73 2.56.73 3.53 0l5.5-4.11c.65-.49 1.18-1.55 1.18-2.36v-8.1c0-1.12-.86-2.37-1.91-2.76l-5.5-2.06c-.56-.22-1.5-.22-2.07-.01Z" fill="#292D32"/>
  <path d="M10.66 14.23c-.19 0-.38-.07-.53-.22L8.52 12.4a.754.754 0 0 1 0-1.06c.29-.29.77-.29 1.06 0l1.08 1.08 3.77-3.77c.29-.29.77-.29 1.06 0 .29.29.29.77 0 1.06l-4.3 4.3c-.15.15-.34.22-.53.22Z" fill="#292D32"/>
</svg>
