<svg viewBox="0 0 24 24" fill="none" xmlns="http://www.w3.org/2000/svg" height="1em" width="1em">
  <path d="M2 6.2C2 3.2 3.2 2 6.2 2h3.6c3 0 4.2 1.2 4.2 4.2V10c-2.79.05-3.95 1.21-4 4H6.2C3.2 14 2 12.8 2 9.8" stroke="#292D32" stroke-width="1.5" stroke-linecap="round" stroke-linejoin="round"/>
  <path d="M6.96 5.87c-.53-.36-1.23-.36-1.76.02m5.76-.02c-.53-.36-1.23-.36-1.76.02m-1.04 5.53H5.84c-.3 0-.54-.24-.54-.54 0-1.49 1.21-2.7 2.7-2.7.64 0 1.23.22 1.69.59" stroke="#292D32" stroke-width="1.5" stroke-miterlimit="10" stroke-linecap="round" stroke-linejoin="round"/>
  <path d="M22 17.8c0 3-1.2 4.2-4.2 4.2h-3.6c-3 0-4.2-1.2-4.2-4.2V14c.05-2.79 1.21-3.95 4-4h3.8c3 0 4.2 1.2 4.2 4.2" stroke="#292D32" stroke-width="1.5" stroke-linecap="round" stroke-linejoin="round"/>
  <path d="M14.96 13.62c-.53.36-1.23.36-1.76-.02m5.76.02c-.53.36-1.23.36-1.76-.02m-3.36 2.58h4.32c.3 0 .54.24.54.54 0 1.49-1.21 2.7-2.7 2.7-1.49 0-2.7-1.21-2.7-2.7 0-.3.24-.54.54-.54Z" stroke="#292D32" stroke-width="1.5" stroke-miterlimit="10" stroke-linecap="round" stroke-linejoin="round"/>
</svg>
