<svg viewBox="0 0 24 24" fill="none" xmlns="http://www.w3.org/2000/svg" height="1em" width="1em">
  <path d="M12.07 21.98c-1.41 0-2.83-.54-3.9-1.61l-4.53-4.53a5.548 5.548 0 0 1-1.61-4.17l.24-5.01c.11-2.39 2-4.28 4.4-4.4l5-.24c1.56-.07 3.07.51 4.17 1.61l4.53 4.53a5.535 5.535 0 0 1 0 7.81l-4.39 4.39a5.504 5.504 0 0 1-3.91 1.62ZM4.7 14.77l4.53 4.53a4.026 4.026 0 0 0 5.69 0l4.39-4.39a4.026 4.026 0 0 0 0-5.69L14.77 4.7a4.02 4.02 0 0 0-3.04-1.17l-5 .24a3.092 3.092 0 0 0-2.97 2.96l-.24 5.01c-.05 1.12.38 2.23 1.18 3.03Z" fill="#292D32"/>
  <path d="M9.5 12.75c-1.79 0-3.25-1.46-3.25-3.25S7.71 6.25 9.5 6.25s3.25 1.46 3.25 3.25-1.46 3.25-3.25 3.25Zm0-5c-.96 0-1.75.79-1.75 1.75s.79 1.75 1.75 1.75 1.75-.79 1.75-1.75-.79-1.75-1.75-1.75Zm3.5 10c-.19 0-.38-.07-.53-.22a.754.754 0 0 1 0-1.06l4-4c.29-.29.77-.29 1.06 0 .29.29.29.77 0 1.06l-4 4c-.15.15-.34.22-.53.22Z" fill="#292D32"/>
</svg>
