<svg viewBox="0 0 20 21" fill="none" xmlns="http://www.w3.org/2000/svg" height="1em" width="1em">
  <path opacity=".4" d="M14.19.97H5.81C2.17.97 0 3.14 0 6.78v8.38c0 3.64 2.17 5.81 5.81 5.81h8.38c3.64 0 5.81-2.17 5.81-5.81V6.78C20 3.14 17.83.97 14.19.97Z" fill="#292D32"/>
  <path d="M16.31 7.84c0 .41-.33.75-.75.75h-5.25c-.41 0-.75-.34-.75-.75s.34-.75.75-.75h5.25c.42 0 .75.34.75.75Zm-8.34-.97L5.72 9.12c-.15.15-.34.22-.53.22s-.39-.07-.53-.22l-.75-.75c-.3-.29-.3-.77 0-1.06.29-.29.76-.29 1.06 0l.22.22 1.72-1.72c.29-.29.76-.29 1.06 0 .29.29.29.77 0 1.06Zm8.34 7.97c0 .41-.33.75-.75.75h-5.25c-.41 0-.75-.34-.75-.75s.34-.75.75-.75h5.25c.42 0 .75.34.75.75Zm-8.34-.97-2.25 2.25c-.15.15-.34.22-.53.22s-.39-.07-.53-.22l-.75-.75c-.3-.29-.3-.77 0-1.06.29-.29.76-.29 1.06 0l.22.22 1.72-1.72c.29-.29.76-.29 1.06 0 .29.29.29.77 0 1.06Z" fill="#292D32"/>
</svg>
