<svg xmlns="http://www.w3.org/2000/svg" xml:space="preserve" style="fill-rule:evenodd;clip-rule:evenodd;stroke-linejoin:round;stroke-miterlimit:2" viewBox="123.15 136.19 755.7 803.81" height="1em" width="1em">
  <path d="M4420 8329c-820-37-1610-145-2310-316-333-81-825-234-858-266-10-11-14-106-19-463-9-688 24-1452 87-2044 45-412 138-947 209-1200 54-191 67-233 97-325 88-263 261-656 391-884 258-453 524-807 878-1170 352-360 736-661 1200-940 264-158 834-421 914-421 52 0 409 151 640 271 1137 591 2036 1526 2542 2641 222 490 340 898 440 1533 88 562 131 1115 155 2014 8 319-4 965-20 986-11 16-281 110-466 164-832 239-1739 379-2740 421-267 11-879 11-1140-1Zm1335-1154 10-1680 1750-10 3-722c1-398 1-724 0-725-2-2-397-5-878-8l-875-5-3-834c-2-653-5-837-15-843-16-10-1468-10-1485 0-10 7-13 182-15 843l-2 834-875 5c-481 3-876 6-878 8-1 1-1 327 0 725l3 722 864 3c624 1 868 5 878 13 11 10 13 152 13 836 0 453 2 828 5 833 4 7 281 9 753 8l747-3Z" style="fill:#e3000b;fill-rule:nonzero" transform="matrix(.1 0 0 -.1 0 970)"/>
</svg>
