<svg clip-rule="evenodd" fill-rule="evenodd" stroke-linejoin="round" stroke-miterlimit="2" viewBox="-0.001 122.64 500 254.72" xml:space="preserve" xmlns="http://www.w3.org/2000/svg" height="1em" width="1em">
  <path d="M146.366 303.172c-20.457 0-37.097 16.636-37.097 37.093 0 20.453 16.64 37.094 37.097 37.094 20.453 0 37.093-16.64 37.093-37.094 0-20.457-16.64-37.093-37.093-37.093" fill="#fcb716"/>
  <path d="M42.705 303.172c-20.457 0-37.097 16.636-37.097 37.093 0 20.453 16.64 37.094 37.097 37.094 20.45 0 37.093-16.64 37.093-37.094 0-20.457-16.643-37.093-37.093-37.093" fill="#ee363f"/>
  <path d="M250.026 303.172c-20.457 0-37.097 16.636-37.097 37.093 0 20.453 16.64 37.094 37.097 37.094 20.454 0 37.094-16.64 37.094-37.094 0-20.457-16.64-37.093-37.094-37.093" fill="#07af56"/>
  <path d="M457.34 303.172c-20.453 0-37.093 16.636-37.093 37.093 0 20.453 16.64 37.094 37.094 37.094s37.093-16.64 37.093-37.094c0-20.457-16.64-37.093-37.093-37.093" fill="#04a9df"/>
  <path d="M353.683 303.172c-20.453 0-37.097 16.64-37.097 37.093s16.64 37.09 37.097 37.09c20.454 0 37.094-16.637 37.094-37.09s-16.637-37.093-37.094-37.093" fill="#a1479a"/>
  <path d="M-.001 198.063c0-24.051 19.307-42.211 43.193-42.211 24.048 0 43.19 17.998 43.19 42.046v36.975c0 3.764-2.613 6.38-6.54 6.38-4.094 0-6.545-2.616-6.545-6.38v-10.798h-.656c-5.071 8.67-15.217 16.196-30.27 16.196C19.141 240.27 0 222.276 0 198.063m73.624 0c0-17.342-13.088-30.43-30.43-30.43S12.76 180.72 12.76 198.062c0 17.34 13.089 30.431 30.431 30.431s30.431-13.092 30.431-30.43m46.469 69.534c-3.433-1.638-5.075-4.584-3.763-8.017 1.312-3.602 4.584-5.071 8.017-3.437 5.892 2.781 13.25 4.745 21.102 4.745 19.475 0 31.252-11.615 31.252-31.413v-5.4h-.656c-5.071 8.672-15.21 16.195-30.266 16.195-23.235 0-42.376-17.995-42.376-42.208 0-24.051 19.306-42.211 43.196-42.211 24.048 0 43.194 17.998 43.194 42.046v30.76c0 26.504-17.02 44.337-44.831 44.337-8.509 0-17.017-1.637-24.869-5.397m56.934-69.535c0-17.342-13.089-30.434-30.428-30.434-17.342 0-30.43 13.092-30.43 30.434s13.088 30.431 30.43 30.431c17.34 0 30.428-13.088 30.428-30.43m29.782 0c0-24.052 19.145-42.212 43.193-42.212s43.193 18.16 43.193 42.211c0 24.048-19.145 42.208-43.193 42.208s-43.193-18.16-43.193-42.208m73.624 0c0-17.342-13.088-30.43-30.43-30.43s-30.432 13.088-30.432 30.43c0 17.34 13.089 30.431 30.431 30.431s30.431-13.092 30.431-30.43m29.779 0c0-24.052 18.976-42.212 42.376-42.212 15.052 0 25.195 7.526 30.266 16.196h.656v-43.029c0-3.76 2.616-6.379 6.544-6.379 4.093 0 6.544 2.62 6.544 6.38v69.204c0 24.052-19.145 42.047-43.193 42.047-23.883 0-43.193-18.16-43.193-42.208m73.624 0c0-17.342-13.089-30.43-30.431-30.43s-30.431 13.088-30.431 30.43c0 17.34 13.088 30.431 30.43 30.431s30.432-13.092 30.432-30.43m29.782 0c0-24.052 19.306-42.212 43.193-42.212 24.048 0 43.193 17.998 43.193 42.046v36.975c0 3.764-2.62 6.38-6.544 6.38-4.093 0-6.548-2.616-6.548-6.38v-10.798h-.656c-5.07 8.67-15.213 16.196-30.266 16.196-23.23 0-42.372-17.995-42.372-42.208m73.62 0c0-17.342-13.084-30.43-30.427-30.43s-30.43 13.088-30.43 30.43c0 17.34 13.088 30.431 30.43 30.431s30.427-13.092 30.427-30.43" fill="#5a5b5b"/>
</svg>
