<svg version="1.1" id="Layer_1" xmlns="http://www.w3.org/2000/svg" viewBox="-0.017 0 37.219 31.9" style="enable-background:new 0 0 37.9 37.9" xml:space="preserve" height="1em" width="1em">
  <style>
    .st0{fill:#1783fa}
  </style>
  <path id="Path_1" class="st0" d="M32.1 10.3c.2-4.5-2.6-8.6-6.9-9.9-.9-.2-1.9-.4-2.8-.4h-.6c-3 .2-5.6 1.8-7.3 4.2-2.3-.7-4.7-.5-6.6.8C5.8 6.3 4.4 8.4 4 10.9c-2.6 1.6-4.2 4.5-4 7.5.2 4.3 3.7 7.6 8 7.7h4.1c.1 0 .1-.1.2-.2l.2-2.1c0-.1 0-.1-.1-.2 0-.1-.1-.1-.2-.1H7.7c-1.5 0-2.9-.6-3.9-1.7s-1.5-2.6-1.5-4.1c.2-2.1 1.5-4 3.4-4.9l.4-.2c.1 0 .1-.1.1-.2l.1-.9C6.4 9.8 7.5 8.2 9 7.3c.9-.6 1.9-.9 2.9-.9.7 0 1.5.2 2.2.5l1 .5h.2v-.1l.7-1.2c1.2-2.1 3.4-3.4 5.8-3.6.9 0 1.8.1 2.6.3 3.3 1.1 5.4 4.3 5.1 7.8l-.2 1.3c0 .1.1.2.2.2l1.2.3c2.4.7 4 2.9 3.9 5.4.1 3-2.3 5.6-5.3 5.6h-3.6c-.1 0-.1 0-.2.1 0 .1-.1.1-.1.2l.2 2.1c0 .1.1.2.2.2h3.6c4.4-.1 7.9-3.8 7.8-8.2-.1-3.3.7-6.2-5.1-7.5z"/>
  <path id="Path_2" class="st0" d="M17.4 19.5c-1.2.5-2.5.7-3.9.6L12.9 31c0 .5.3.9.8.9h10.5c.4 0 .8-.3.9-.7V31l-.7-10.7c-2.3.6-4.8.3-7-.8zm1.8 8.7v.8c0 .2-.1.3-.3.3-.2 0-.3-.1-.3-.3v-.8c-.5 0-1-.2-1.4-.5-.1-.1-.2-.2-.2-.4 0-.3.2-.5.5-.5.2 0 .2 0 .3.1.3.2.7.3 1.1.3.5 0 .8-.2.8-.6 0-.3-.2-.5-.8-.5h-.3c-1.1-.2-1.6-.6-1.6-1.5s.7-1.5 1.5-1.5v-.7c0-.2.2-.3.3-.3.2 0 .3.1.3.3v.6c.4 0 .8.2 1.2.3.2.1.3.3.2.5 0 .2-.2.5-.4.5-.1 0-.2 0-.3-.1-.2-.1-.5-.2-.8-.2h-.2c-.3 0-.6.2-.6.5v.1c0 .3.2.5.8.5h.3c1.1.2 1.6.6 1.6 1.5s-.7 1.6-1.6 1.6h-.1z"/>
</svg>
