<svg viewBox="0 0 926.66 958.56" xmlns="http://www.w3.org/2000/svg" height="1em" width="1em">
  <path d="m873.9 951.9 4.119-358.26h-199.91c-15.742 43.404-59.94 72.719-113.25 72.719-28.093 0-58.13-6.626-82.47-21.25-31.717-19.058-55.417-41.692-74.937-81.906-15.357-37.214-27.11-82.78-28.47-123.09 4.68-79.729 28.903-108.15 73.25-141.03 9.832-7.29 37.3-13.119 45.22-13.156 17.422-.082 31.943 10.486 39.812 26.062 11.447 22.657-5.308 50.101-21.875 69.625l161.62 111.34 249.62-261.19C839.543 92.964 680.409.044 498.539.044c-275.35 0-498.56 212.99-498.56 475.72s216.07 461.42 498.56 482.84l376.59-1.687c.223-314.92-12.757-290.91-1.244-5.024z" fill="#0c4da2"/>
  <path d="M498.2 89.38C271.22 90.809 85.83 256.15 85.83 472.43S290.48 874.5 538.2 868.91l240.71.678v-189.51h-45.463c-14.284 35.731-80.997 70.681-129.37 70.681-25.49 0-89.661-3.465-113.4-11.779-41.911-14.679-101.71-35.75-153.71-123.14-13.934-30.635-53.169-105.29-44.402-214.19 4.246-65.635 45.937-147.57 120.75-184.67 32.621-16.179 65.461-18.833 123.12-13.6 41.396 3.756 82.528 32.862 96.889 67.796 11.107 27.018 7.915 59.942-5.16 78.695-.933 1.338-.953 2.523-.76 3.8.148.973 1.409 2.593 1.409 2.593l22.784 17.799s6.486 4.507 14.064 4.305c4.4-.117 12.267-4.891 12.267-4.891l130.12-136.55c-80.445-108.55-223.41-147.54-309.86-147.54z" fill="#ffcb08"/>
</svg>
