<svg xmlns="http://www.w3.org/2000/svg" viewBox="63.367 2.56 125.561 98.626" height="1em" width="1em">
  <g fill="#EB462A" fill-rule="evenodd">
    <path d="M182.731 81.786c-2.703-.27-7.501-.938-13.505 2.093-6 3.031-8.362 3.162-11.307 2.848.865 1.586 2.62 3.763 8.137 4.151 5.516.39 8.153.56 5.251 7.445.066-2.08-.418-6.1-5.895-5.395-5.473.707-6.753 5.643-.88 8.107-1.91.384-5.958.613-8.85-6.963-2.003.871-5.091 2.62-10.69-1.712 1.95.708 4.363.752 4.363.752-4.972-2.376-9.718-6.796-12.76-10.972 2.41 1.799 5.072 3.59 7.763 3.927-3.18-3.886-10.534-11.656-19.533-19.64 5.786 3.783 12.767 9.766 24.192 8.421 11.426-1.345 19.106-3.967 33.714 6.938m-48.901-2.698c-7.167-3.11-8.7-3.733-17.911-6.079-9.213-2.344-18.275-7.221-24.332-14.835 4.273 3.134 12.994 9.439 21.95 8.756-1.361-1.996-3.872-3.552-6.874-5.12 3.394.814 13.64 3.438 27.167 17.278M118.232 52.53c-1.848-5.307-5.18-12.103-20.986-22.2-7.698-5.088-18.999-11.477-33.879-27.77 1.064 4.391 5.766 15.812 29.456 30.639 7.783 5.318 17.827 8.6 25.409 19.331m.976 7.694c-1.945-4.493-5.852-10.256-21.164-18.484-7.059-3.962-19.122-10.055-29.97-21.642.985 4.183 6.02 13.372 27.688 24.848 6 3.311 16.145 6.416 23.446 15.278"/>
    <path d="M134.059 37.003C104.213 28.45 92.344 17.656 83.162 6.354c4.192 13.008 14.193 17.662 24.875 26.394 10.683 8.734 11.29 13.427 14.437 18.586 7.01 11.494 8.125 13.393 15.083 18.412 8.199 5.448 18.116 1.761 28.995 3.47 10.878 1.707 19.87 10.011 21.825 13.207 2.28-4.075-3.167-9.946-4.639-11.42.785-5.337-11.816-7.682-16.588-9.509-.936-.358-3.256-.896-1.244-5.686 2.712-6.61 5.537-12.363-31.847-22.805m43.074 35.07c5.66.857 5.374 2.06 5.435 4.131-2.408-2.634-5.435-4.13-5.435-4.13"/>
  </g>
</svg>
