<svg xmlns="http://www.w3.org/2000/svg" viewBox="30.99 98.5 450.01 315" height="1em" width="1em">
  <path d="M277 242.1h-46.5v-41.8H277v41.8zm0-143.6h-46.5v42.7H277V98.5zm55 101.8h-46.5V242H332v-41.7zm-109.9-50.7h-46.5v42.3h46.5v-42.3zm54.9 0h-46.5v42.3H277v-42.3zm194.6 70.3c-10.1-6.8-33.5-9.3-51.4-5.9-2.3-16.9-11.7-31.6-28.9-44.8l-9.8-6.5-6.5 9.8c-12.9 19.5-16.5 51.7-2.6 73-6.1 3.3-18.1 7.8-34 7.5H32.7c-6.1 35.7 4.1 82.1 30.9 114 26.1 30.9 65.2 46.5 116.3 46.5 110.7 0 192.6-51 230.9-143.6 15 .3 47.5.1 64.2-31.8 1.1-1.8 4.6-9.3 6-12l-9.4-6.2zm-359.3-19.6H65.9V242h46.5l-.1-41.7zm54.9 0h-46.5V242h46.5v-41.7zm54.9 0h-46.5V242h46.5v-41.7zm-54.9-50.7h-46.5v42.3h46.5v-42.3z" fill="#2496ed"/>
</svg>
