<svg viewBox="0 0 1200 246" xmlns="http://www.w3.org/2000/svg" xml:space="preserve" style="fill-rule:evenodd;clip-rule:evenodd;stroke-linejoin:round;stroke-miterlimit:2" height="1em" width="1em">
  <path d="M18.45 145.979h144.633c-.912-43.858-21.496-63.846-65.675-63.846h-13.3c-44.179 0-64.746 19.988-65.658 63.846Zm79.587 99.846H83.496C27.825 245.825 0 218 0 162.008v-13.916c0-55.975 27.825-83.817 83.496-83.817h14.541c55.655 0 83.517 27.842 83.517 83.817v15.745H18.45c.912 44.176 21.479 64.134 65.658 64.134h13.3c32.688 0 52.371-10.271 59.938-29.942h19.35c-8.158 31.159-34.784 47.796-78.659 47.796Zm268.071-114.671c-5.15-33.583-25.729-49.021-64.762-49.021h-13.304c-45.075 0-65.642 20.888-65.642 66.875v12.104c0 45.992 20.567 66.859 65.642 66.859h13.304c39.033 0 59.612-15.421 64.762-49.017h18.446c-5.45 44.788-32.971 66.875-82.6 66.875H287.45c-55.687 0-83.517-27.842-83.517-83.821v-13.912c0-55.975 27.83-83.8 83.517-83.8h14.504c49.629 0 77.15 22.087 82.6 66.858h-18.446Zm122.234 96.821h13.321c45.074 0 65.637-20.867 65.637-66.858v-12.1c0-45.988-20.563-66.879-65.637-66.879h-13.321c-45.079 0-65.659 20.891-65.659 66.879v12.1c0 45.991 20.58 66.858 65.659 66.858ZM404.229 148.1c0-55.975 27.829-83.8 83.504-83.8h14.521c55.688 0 83.517 27.825 83.517 83.8v13.912c0 55.98-27.829 83.821-83.517 83.821h-14.521c-55.675 0-83.504-27.841-83.504-83.821V148.1Zm290.475 79.875h13.3c45.092 0 65.659-20.867 65.659-66.858v-12.1c0-45.988-20.567-66.879-65.659-66.879h-13.3c-45.096 0-65.658 20.891-65.658 66.879v12.1c0 45.991 20.562 66.858 65.658 66.858ZM708.613 64.3c55.675 0 83.516 27.825 83.516 83.8v13.912c0 55.98-27.841 83.821-83.516 83.821h-14.521c-55.688 0-83.5-27.841-83.5-83.821V3.788h18.454v88.337c12.4-18.467 33.866-27.825 65.046-27.825h14.521Zm124.354 81.679h144.621c-.896-43.858-21.48-63.846-65.659-63.846h-13.304c-44.179 0-64.758 19.988-65.658 63.846Zm79.575 99.846h-14.53c-55.666 0-83.495-27.825-83.495-83.817v-13.916c0-55.975 27.829-83.817 83.495-83.817h14.53c55.671 0 83.512 27.842 83.512 83.817v15.745H832.967c.9 44.176 21.479 64.134 65.658 64.134h13.304c32.688 0 52.354-10.271 59.921-29.942h19.346c-8.138 31.159-34.767 47.796-78.654 47.796Zm124.358-99.846h144.63c-.91-43.858-21.5-63.846-65.67-63.846h-13.31c-44.17 0-64.74 19.988-65.65 63.846Zm79.58 99.846h-14.53c-55.68 0-83.5-27.825-83.5-83.817v-13.916c0-55.975 27.82-83.817 83.5-83.817h14.53c55.66 0 83.52 27.842 83.52 83.817v15.745h-163.1c.91 44.176 21.48 64.134 65.65 64.134h13.31c32.68 0 52.35-10.271 59.92-29.942h19.36c-8.16 31.159-34.79 47.796-78.66 47.796Z" style="fill:#fff;fill-rule:nonzero"/>
</svg>
