<svg viewBox="0 0 512 512" xmlns="http://www.w3.org/2000/svg" height="1em" width="1em">
  <g fill="#2579FF" fill-rule="evenodd">
    <path d="M371.683 56.997c-54.367-31.389-146.831 34.32-209.763 143.32-62.931 109-73.604 221.93-19.237 253.32 54.367 31.389 146.831-34.32 209.763-143.32 62.931-109 73.604-221.93 19.237-253.32Zm-9.5 16.455c41.77 24.115 32.103 126.395-26.192 227.365-58.295 100.97-142.038 160.481-183.808 136.365-41.77-24.115-32.103-126.395 26.192-227.365C236.67 108.847 320.413 49.336 362.183 73.452Z" fill-rule="nonzero"/>
    <path d="M371.683 453.637c54.367-31.39 43.694-144.32-19.237-253.32-62.932-109-155.396-174.709-209.763-143.32-54.367 31.39-43.694 144.32 19.237 253.32 62.932 109 155.396 174.709 209.763 143.32Zm-9.5-16.455c-41.77 24.116-125.513-35.395-183.808-136.365-58.295-100.97-67.962-203.25-26.192-227.365 41.77-24.116 125.513 35.395 183.808 136.365 58.295 100.97 67.962 203.25 26.192 227.365Z" fill-rule="nonzero"/>
    <path d="M28.183 255.317c0 62.778 103.137 110 229 110s229-47.222 229-110-103.137-110-229-110-229 47.222-229 110Zm19 0c0-48.231 93.41-91 210-91s210 42.769 210 91-93.41 91-210 91-210-42.769-210-91Z" fill-rule="nonzero"/>
    <path d="M249.5 196v19.5h9.5V196h11.5v19.5c22 0 29.5 10.5 29.5 21.5 0 6-.5 12-10.5 17.5C299 256 307 262 307 275c0 18.5-13.5 28.5-36.5 28.5V323H259v-19.5h-9.5V323h-12v-19.5H213l2.5-14h8.5a5 5 0 0 0 5-5V233a5 5 0 0 0-5-5h-10v-12.5h23.5V196h12Zm-.5 67v26c23 1.333 34.5-3 34.5-13S272 261.667 249 263Zm0-34v24c18 .667 27-3.333 27-12s-9-12.667-27-12Z"/>
  </g>
</svg>
