<svg viewBox="0 0 24 24" xmlns="http://www.w3.org/2000/svg" xml:space="preserve" style="fill-rule:evenodd;clip-rule:evenodd;stroke-linejoin:round;stroke-miterlimit:2" height="1em" width="1em">
  <path d="M16.864 168.45C-13.474 85.1 4.199 47.2 87.549 16.864c83.35-30.336 121.25-12.664 151.586 70.685 30.336 83.349 12.664 121.251-70.686 151.586C85.099 269.47 47.199 251.8 16.864 168.45" style="fill:#333740;fill-rule:nonzero" transform="matrix(.096 0 0 .096 -.288 -.288)"/>
  <path d="M89.2 79.858h-5.25c-4.5.01-9.234.89-13.09 3.567a14.53 14.53 0 0 0-4.723 5.442 17.95 17.95 0 0 0-1.759 8.123v75.325c0 1.426 1.174 2.6 2.6 2.6h10.259c1.426 0 2.6-1.174 2.6-2.6v-53.07h9.359c1.426 0 2.6-1.174 2.6-2.6v-8.79c0-1.426-1.174-2.6-2.6-2.6h-9.355v-6.679a9.225 9.225 0 0 1 .452-3.286c.104-.306.279-.584.51-.81a2.31 2.31 0 0 1 1.244-.5 17.651 17.651 0 0 1 2.7-.127h4.456c1.426 0 2.6-1.174 2.6-2.6v-8.791c0-1.426-1.174-2.6-2.6-2.6m61.992 48.258a22.436 22.436 0 0 0-7.53-17.367c-4.836-4.217-11.626-6.482-19.611-6.479-8.123 0-15.14 2.325-20.263 6.4a22.292 22.292 0 0 0-8.585 16.715c0 1.426 1.174 2.6 2.6 2.6h10.866a2.61 2.61 0 0 0 2.594-2.378 8.558 8.558 0 0 1 3.515-6.129 15.17 15.17 0 0 1 9.273-2.725c4.052 0 6.965 1.1 8.823 2.715a8.432 8.432 0 0 1 2.854 6.646v.367c.008.303-.026.606-.1.9l-.1.225a1.532 1.532 0 0 1-.675.408 20.492 20.492 0 0 1-4.49.921c-2.2.292-5.059.594-8.621 1.071h.006c-6.536.879-13.211 1.948-18.62 5a17.956 17.956 0 0 0-6.722 6.434 19.87 19.87 0 0 0-2.55 10.313 22.847 22.847 0 0 0 1.942 9.544 19.769 19.769 0 0 0 9.2 9.438 30.57 30.57 0 0 0 13.928 3.029c6.25.006 10.99-1.448 14.48-3.671a19.07 19.07 0 0 0 2.325-1.733v1.947c0 1.426 1.174 2.6 2.6 2.6h4.994l7.865-29.264.002-17.527Zm-15.463 19.776a13.005 13.005 0 0 1-3.463 9.328c-2.338 2.358-6.032 4.044-11.878 4.061-3.765.006-6.55-.821-8.215-2.015a5.778 5.778 0 0 1-1.833-2.059 6.284 6.284 0 0 1-.654-2.869v-.067a5.922 5.922 0 0 1 .838-3.206 8.74 8.74 0 0 1 4.238-3.2 29.722 29.722 0 0 1 7.209-1.788c3.706-.521 7.519-1.073 10.68-1.7a49.218 49.218 0 0 0 3.081-.706l-.003 4.221Z" style="fill:#fff;fill-rule:nonzero" transform="matrix(.096 0 0 .096 -.288 -.288)"/>
  <path d="M194.737 72.455a2.61 2.61 0 0 0-2.067-1.02h-13.064a2.607 2.607 0 0 0-2.515 1.93l-25.897 96.37-1.277 4.761-1.759 6.539c-.06.221-.09.45-.09.679 0 1.426 1.173 2.6 2.6 2.6h13.069a2.607 2.607 0 0 0 2.515-1.927l28.933-107.672a2.615 2.615 0 0 0-.448-2.261" style="fill:#a299ff;fill-rule:nonzero" transform="matrix(.096 0 0 .096 -.288 -.288)"/>
</svg>
