<svg xmlns="http://www.w3.org/2000/svg" viewBox="0 0 24 24" height="1em" width="1em">
  <path fill="#0ACF83" d="M8.526 23.25c2.208 0 4-1.624 4-3.625V16h-4c-2.208 0-4 1.624-4 3.625s1.792 3.625 4 3.625z"/>
  <path fill="#A259FF" d="M4.75 12c0-2.208 1.692-4 3.776-4h3.776v8H8.526c-2.084 0-3.776-1.792-3.776-4z"/>
  <path fill="#F24E1E" d="M4.75 4.398c0-2.208 1.792-4 4-4h4v8h-4c-2.208 0-4-1.792-4-4z"/>
  <path fill="#FF7262" d="M11.625.75h4c2.208 0 4 1.792 4 4s-1.792 4-4 4h-4v-8z"/>
  <path fill="#1ABCFE" d="M19.625 12c0 2.208-1.792 4-4 4s-4-1.792-4-4 1.792-4 4-4 4 1.792 4 4z"/>
  <path d="M15.625 16.497c-2.411 0-4.373-2.018-4.373-4.498s1.962-4.498 4.373-4.498 4.373 2.018 4.373 4.498-1.962 4.498-4.373 4.498zm0-7.496c-1.584 0-2.873 1.345-2.873 2.998s1.289 2.998 2.873 2.998 2.873-1.345 2.873-2.998-1.289-2.998-2.873-2.998z"/>
  <path d="M8.374 24C5.962 24 4 21.982 4 19.501c0-1.564.779-2.945 1.958-3.752A4.534 4.534 0 0 1 4 12c0-1.562.78-2.943 1.961-3.751A4.532 4.532 0 0 1 4 4.499C4 2.018 5.962 0 8.374 0h7.253C18.038 0 20 2.02 20 4.503c0 2.48-1.962 4.499-4.374 4.499L12.747 9v10.501c0 2.481-1.962 4.499-4.373 4.499zm0-7.501c-1.584 0-2.874 1.347-2.874 3.003 0 1.653 1.289 2.999 2.874 2.999s2.874-1.345 2.874-2.999V8.25a.75.75 0 0 1 .75-.75h3.629c.763 0 1.48-.309 2.022-.869a3.038 3.038 0 0 0 .851-2.128c0-1.656-1.289-3.003-2.874-3.003H8.374C6.789 1.5 5.5 2.845 5.5 4.499s1.289 2.999 2.874 2.999a.75.75 0 1 1 .001 1.5C6.79 9 5.5 10.348 5.5 12c0 1.653 1.289 2.999 2.874 2.999a.75.75 0 0 1 0 1.5z"/>
</svg>
