<svg clip-rule="evenodd" fill-rule="evenodd" stroke-linejoin="round" stroke-miterlimit="2" viewBox="0 0 380 380" xml:space="preserve" xmlns="http://www.w3.org/2000/svg" height="1em" width="1em">
  <path d="M0 12.724V29.5c7.015 0 12.723 5.707 12.723 12.72 0 7.016-5.708 12.724-12.723 12.724v16.775c7.015 0 12.723 5.708 12.723 12.72 0 7.017-5.708 12.725-12.723 12.725v16.775c7.015 0 12.723 5.708 12.723 12.729S7.015 139.397 0 139.397v16.775c7.015 0 12.723 5.703 12.723 12.72S7.015 181.616 0 181.616v16.776c7.015 0 12.723 5.703 12.723 12.72 0 7.016-5.708 12.724-12.723 12.724v16.775c7.015 0 12.723 5.704 12.723 12.72 0 7.017-5.708 12.725-12.723 12.725v16.775c7.015 0 12.723 5.704 12.723 12.72 0 7.017-5.708 12.725-12.723 12.725v16.775c7.015 0 12.723 5.703 12.723 12.72S7.015 350.495 0 350.495v16.784a12.81 12.81 0 0 1 8.998 3.725 12.81 12.81 0 0 1 3.725 8.995h16.775c0-7.016 5.708-12.72 12.723-12.72s12.723 5.704 12.723 12.72H71.72c0-7.016 5.707-12.72 12.722-12.72s12.723 5.704 12.723 12.72h16.776c0-7.016 5.708-12.72 12.722-12.72 7.015 0 12.723 5.704 12.723 12.72h16.776c0-7.016 5.708-12.72 12.722-12.72 7.015 0 12.723 5.704 12.723 12.72h16.776c0-7.016 5.708-12.72 12.722-12.72 7.015 0 12.723 5.704 12.723 12.72h16.776c0-7.016 5.708-12.72 12.723-12.72 7.014 0 12.722 5.704 12.722 12.72h16.776c0-7.016 5.708-12.72 12.723-12.72 7.014 0 12.722 5.704 12.722 12.72h16.776c0-7.016 5.708-12.72 12.723-12.72s12.722 5.704 12.722 12.72h16.785c0-3.35 1.359-6.629 3.729-8.995a12.794 12.794 0 0 1 8.996-3.725v-16.775c-7.017 0-12.725-5.708-12.725-12.724 0-7.017 5.708-12.72 12.725-12.72v-16.776c-7.017 0-12.725-5.707-12.725-12.724s5.708-12.72 12.725-12.72v-16.775c-7.017 0-12.725-5.708-12.725-12.725s5.708-12.72 12.725-12.72v-16.775c-7.017 0-12.725-5.708-12.725-12.725 0-7.016 5.708-12.72 12.725-12.72v-16.775c-7.017 0-12.725-5.708-12.725-12.724 0-7.017 5.708-12.72 12.725-12.72v-16.776c-7.017 0-12.725-5.707-12.725-12.728s5.708-12.729 12.725-12.729V97.173c-7.017 0-12.725-5.708-12.725-12.725 0-7.012 5.708-12.72 12.725-12.72V54.953c-7.017 0-12.725-5.708-12.725-12.725 0-7.012 5.708-12.72 12.725-12.72V12.724c-3.351 0-6.63-1.359-8.996-3.724a12.814 12.814 0 0 1-3.729-9H350.5c0 7.017-5.708 12.724-12.723 12.724-7.014 0-12.722-5.707-12.722-12.724h-16.776c0 7.017-5.708 12.724-12.723 12.724-7.014 0-12.722-5.707-12.722-12.724h-16.776c0 7.017-5.708 12.724-12.723 12.724-7.014 0-12.722-5.707-12.722-12.724h-16.776c0 7.017-5.708 12.724-12.723 12.724S198.392 7.017 198.392 0h-16.776c0 7.017-5.708 12.724-12.723 12.724S156.17 7.017 156.17 0h-16.775c0 7.017-5.708 12.724-12.723 12.724S113.949 7.017 113.949 0H97.174c0 7.017-5.708 12.724-12.723 12.724S71.728 7.017 71.728 0H54.952c0 7.017-5.707 12.724-12.722 12.724S29.507 7.017 29.507 0H12.723c0 3.351-1.359 6.63-3.725 9A12.83 12.83 0 0 1 0 12.724z" fill="url(#a)" fill-rule="nonzero"/>
  <path d="M323.71 152.05H134.09l9.896-46.299h115.57l10.602-49.832h-166.11L51.74 302.609h50.188l22.968-107.8h120.38l-104.6 103.55 18.379 32.513c8.48-5.653 22.264-6.362 31.807-6.362 16.967 0 33.578 5.658 50.891 5.658 15.875 0 32.127-1.061 58.638-13.786l9.263-43.47c-18.028 7.419-44.702 14.49-67.901 14.49-9.537 0-18.374-2.12-27.563-3.533l101.4-98.603 8.13-33.225z" fill="#fff" fill-rule="nonzero"/>
  <defs>
    <linearGradient id="a" x2="1" gradientTransform="rotate(90 71.923 118.067) scale(293.55)" gradientUnits="userSpaceOnUse">
      <stop stop-color="#bf0000" offset="0"/>
      <stop stop-color="#8f0000" offset="1"/>
    </linearGradient>
  </defs>
</svg>
