<svg clip-rule="evenodd" fill-rule="evenodd" stroke-linejoin="round" stroke-miterlimit="2" viewBox="0.1 51.817 499.9 394.63" xml:space="preserve" xmlns="http://www.w3.org/2000/svg" height="1em" width="1em">
  <path d="m213.052 56.9-81.34 72.302-53.661 49.143-24.007 21.465-7.06 4.801 1.976 84.164 85.012 80.21 60.157 53.662 19.77 17.228 8.756-.565 89.248-76.82 61.57-57.899 14.403-12.71 4.237-31.914 10.167-53.097-54.509-42.929-110.712-97.72-11.58-8.474-6.496-2.541-5.93 1.694" fill="#ffe500" fill-rule="nonzero"/>
  <g transform="translate(-.182 53.511) scale(2.8243)">
    <clipPath id="a">
      <path d="M77.6 2.2h.1-.1m67.8 62.4c-4-4.5-12.5-13.6-32-31.6C83.9 5.5 78.5 2.6 77.7 2.2c-.8.3-6.2 3.2-35.3 30.7-14.8 14-25.3 24.3-31.4 30.7-2.6 2.8-4.4 4.9-4.6 5.2.5 1 4.7 6.9 36.4 36.3 13.6 12.6 23.6 21.5 29.7 26.5.9.7 5 3.9 5 3.9h.2c.4-.1 5.1-1.8 35.9-30.8 19-17.9 27.5-26.9 31.6-31.5l.2-8.6M6.2 69.3c.1-.2.1-.4.1-.5l-.1.5"/>
    </clipPath>
    <g clip-path="url(#a)">
      <path d="m65.5 122.7-3.6-4.4-3.7-4.2-2.5-2.6C42.3 98.2 15.1 70.9 14.8 70.6l-.1-.2c0-.1.1-.2.1-.2 1.2-1.1 27.7-26.7 42.2-39l22.3-18-.7-13.8-33.9 30.3C32.3 40.6 8.6 66.6 8.4 66.8c-.6.5-.9 1.3-.9 2.1s.3 1.6 1 2.2l.1.1c4.1 3.9 25 23.8 35.6 34 3.6 3.5 4.9 4.5 6.2 5.6l5.8 4.7 9.3 7.2z" fill="#ffe500" fill-rule="nonzero"/>
    </g>
  </g>
  <g transform="translate(-.182 53.511) scale(2.8243)">
    <clipPath id="b">
      <path d="M77.6 2.2h.1-.1m67.8 62.4c-4-4.5-12.5-13.6-32-31.6C83.9 5.5 78.5 2.6 77.7 2.2c-.8.3-6.2 3.2-35.3 30.7-14.8 14-25.3 24.3-31.4 30.7-2.6 2.8-4.4 4.9-4.6 5.2.5 1 4.7 6.9 36.4 36.3 13.6 12.6 23.6 21.5 29.7 26.5.9.7 5 3.9 5 3.9h.2c.4-.1 5.1-1.8 35.9-30.8 19-17.9 27.5-26.9 31.6-31.5l.2-8.6M6.2 69.3c.1-.2.1-.4.1-.5l-.1.5"/>
    </clipPath>
    <g clip-path="url(#b)">
      <path d="M61.8 118.4s-.5-.5-3.7-4.2l-2.5-2.6-40.9-40.9-.1-.3.1-.3c2.8-2.7 28.2-27.1 42.2-39 0 0 21.8-17.6 22.2-18 0-.1-.6-13-.6-13.5-.3.4-33.7 30.2-33.7 30.2C32.3 40.7 8.7 66.7 8.4 66.9c-.6.5-.9 1.3-.9 2.1s.3 1.5.9 2.1l.1.1c4.1 3.9 25 23.8 35.6 34 3.5 3.4 4.9 4.5 6.1 5.5l5.9 4.8s6.4 4.9 8.6 6.5c-.7-.9-2.9-3.6-2.9-3.6zm-.1.1s-.3-.4-3.7-4.2l-2.5-2.6-40.9-40.9-.2-.3.1-.4c2.9-2.8 28.1-27 42.2-39 0 0 21.8-17.6 22.2-18 0-.1-.6-12.7-.6-13.2-.4.3-33.6 29.9-33.6 29.9-12.3 11-36 36.9-36.2 37.2-.6.5-.9 1.2-.9 2s.3 1.5.9 2l.1.1c7.5 7.1 25.8 24.6 35.6 34 3.5 3.4 4.9 4.5 6.1 5.5l5.9 4.8s6.8 5.2 7.9 6c-.7-.9-2.4-2.9-2.4-2.9z" fill="#ffe600" fill-rule="nonzero"/>
    </g>
  </g>
  <g transform="translate(-.182 53.511) scale(2.8243)">
    <clipPath id="c">
      <path d="M77.6 2.2h.1-.1m67.8 62.4c-4-4.5-12.5-13.6-32-31.6C83.9 5.5 78.5 2.6 77.7 2.2c-.8.3-6.2 3.2-35.3 30.7-14.8 14-25.3 24.3-31.4 30.7-2.6 2.8-4.4 4.9-4.6 5.2.5 1 4.7 6.9 36.4 36.3 13.6 12.6 23.6 21.5 29.7 26.5.9.7 5 3.9 5 3.9h.2c.4-.1 5.1-1.8 35.9-30.8 19-17.9 27.5-26.9 31.6-31.5l.2-8.6M6.2 69.3c.1-.2.1-.4.1-.5l-.1.5"/>
    </clipPath>
    <g clip-path="url(#c)">
      <path d="M61.6 118.5s-.3-.3-3.7-4.2l-2.5-2.6-35.1-35.2-5.7-5.7-.2-.3.1-.5c.3-.3 27.3-26.3 42.3-39.1 0 0 21.8-17.6 22.2-17.9 0-.1-.6-12.4-.6-12.9-.4.4-33.5 29.8-33.5 29.8C32.8 40.6 9.5 66.1 8.6 67c-.5.5-.9 1.2-.9 1.9s.3 1.4.9 2l.1.1c7.4 7.1 25.8 24.6 35.6 34 3.5 3.4 4.8 4.5 6.1 5.5l5.9 4.8s6 4.5 7.1 5.4c-.6-.8-1.8-2.2-1.8-2.2zm-.1.1.1.1c-.1-.1-.3-.3-3.6-4l-.2-.2-2.5-2.6-35.1-35.3-5.7-5.7-.2-.4.1-.5c.2-.3 27.4-26.5 42.3-39.1 0 0 21.7-17.5 22.1-17.9 0-.1-.6-12.2-.6-12.6C77.9.7 45 30 45 30 32.7 40.8 9.6 66.1 8.7 67.1c-.5.5-.8 1.2-.8 1.9s.3 1.4.8 1.9l.1.1c7.4 7.1 25.8 24.6 35.6 34 3.5 3.4 4.8 4.5 6.1 5.5l5.9 4.8s4.6 3.5 6.4 4.8c-.6-.6-1.3-1.5-1.3-1.5z" fill="#ffe700" fill-rule="nonzero"/>
    </g>
  </g>
  <g transform="translate(-.182 53.511) scale(2.8243)">
    <clipPath id="d">
      <path d="M77.6 2.2h.1-.1m67.8 62.4c-4-4.5-12.5-13.6-32-31.6C83.9 5.5 78.5 2.6 77.7 2.2c-.8.3-6.2 3.2-35.3 30.7-14.8 14-25.3 24.3-31.4 30.7-2.6 2.8-4.4 4.9-4.6 5.2.5 1 4.7 6.9 36.4 36.3 13.6 12.6 23.6 21.5 29.7 26.5.9.7 5 3.9 5 3.9h.2c.4-.1 5.1-1.8 35.9-30.8 19-17.9 27.5-26.9 31.6-31.5l.2-8.6M6.2 69.3c.1-.2.1-.4.1-.5l-.1.5"/>
    </clipPath>
    <g clip-path="url(#d)">
      <path d="M61.5 118.7c-.3-.3-.9-1.1-3.5-4l-.2-.2-2.5-2.6L14.4 71l-.2-.4c0-.1.1-.6.1-.6.2-.2 27.3-26.4 42.3-39.1 0 0 21.7-17.5 22.1-17.9 0-.1-.6-11.9-.6-12.3-.4.3-33 29.5-33 29.5-12.3 10.6-35.4 36-36.4 37-.5.4-.7 1.1-.7 1.7 0 .7.3 1.3.8 1.8l.1.1c7.4 7 25.7 24.5 35.6 34 3.5 3.4 4.8 4.5 6.1 5.5l5.9 4.8s4.7 3.6 5.6 4.3c-.3-.3-.6-.7-.6-.7z" fill="#ffe70a" fill-rule="nonzero"/>
    </g>
  </g>
  <g transform="translate(-.182 53.511) scale(2.8243)">
    <clipPath id="e">
      <path d="M77.6 2.2h.1-.1m67.8 62.4c-4-4.5-12.5-13.6-32-31.6C83.9 5.5 78.5 2.6 77.7 2.2c-.8.3-6.2 3.2-35.3 30.7-14.8 14-25.3 24.3-31.4 30.7-2.6 2.8-4.4 4.9-4.6 5.2.5 1 4.7 6.9 36.4 36.3 13.6 12.6 23.6 21.5 29.7 26.5.9.7 5 3.9 5 3.9h.2c.4-.1 5.1-1.8 35.9-30.8 19-17.9 27.5-26.9 31.6-31.5l.2-8.6M6.2 69.3c.1-.2.1-.4.1-.5l-.1.5"/>
    </clipPath>
    <g clip-path="url(#e)">
      <path d="m61.4 118.7-3.7-4.2-2.5-2.6L20 76.8 14.3 71l-.2-.4c0-.1.1-.7.1-.7.1-.2 27-26.2 42.4-39.2 0 0 21.7-17.5 22.1-17.8 0-.1-.6-11.6-.6-12-.4.3-32.9 29.3-32.9 29.3-12 10.4-34 34.7-36.4 37-.5.4-.8 1.1-.8 1.7s.3 1.3.8 1.7l.2.2c7.4 7 25.6 24.4 35.6 34 3.5 3.4 4.8 4.5 6.1 5.5l5.9 4.8c-.1 0 3.9 3 4.8 3.6z" fill="#ffe81d" fill-rule="nonzero"/>
    </g>
  </g>
  <g transform="translate(-.182 53.511) scale(2.8243)">
    <clipPath id="f">
      <path d="M77.6 2.2h.1-.1m67.8 62.4c-4-4.5-12.5-13.6-32-31.6C83.9 5.5 78.5 2.6 77.7 2.2c-.8.3-6.2 3.2-35.3 30.7-14.8 14-25.3 24.3-31.4 30.7-2.6 2.8-4.4 4.9-4.6 5.2.5 1 4.7 6.9 36.4 36.3 13.6 12.6 23.6 21.5 29.7 26.5.9.7 5 3.9 5 3.9h.2c.4-.1 5.1-1.8 35.9-30.8 19-17.9 27.5-26.9 31.6-31.5l.2-8.6M6.2 69.3c.1-.2.1-.4.1-.5l-.1.5"/>
    </clipPath>
    <g clip-path="url(#f)">
      <path d="m57.6 114.6-2.5-2.6L20 76.8l-5.7-5.7-.3-.4c0-.1.1-.8.1-.8.1-.1 27.1-26.3 42.4-39.3 0 0 21.6-17.5 22-17.8 0-.1-.6-11.3-.6-11.7-.4.3-32.7 29.2-32.7 29.2-11.9 10.4-33.9 34.6-36.3 37-.5.4-.7 1-.7 1.6s.3 1.2.7 1.6l.1.2c7.4 7 25.6 24.3 35.6 34 3.5 3.4 4.8 4.5 6.1 5.5l5.9 4.8s2.7 2.1 4.1 3.1c-.8-.9-3.1-3.5-3.1-3.5z" fill="#ffe829" fill-rule="nonzero"/>
    </g>
  </g>
  <g transform="translate(-.182 53.511) scale(2.8243)">
    <clipPath id="g">
      <path d="M77.6 2.2h.1-.1m67.8 62.4c-4-4.5-12.5-13.6-32-31.6C83.9 5.5 78.5 2.6 77.7 2.2c-.8.3-6.2 3.2-35.3 30.7-14.8 14-25.3 24.3-31.4 30.7-2.6 2.8-4.4 4.9-4.6 5.2.5 1 4.7 6.9 36.4 36.3 13.6 12.6 23.6 21.5 29.7 26.5.9.7 5 3.9 5 3.9h.2c.4-.1 5.1-1.8 35.9-30.8 19-17.9 27.5-26.9 31.6-31.5l.2-8.6M6.2 69.3c.1-.2.1-.4.1-.5l-.1.5"/>
    </clipPath>
    <g clip-path="url(#g)">
      <path d="m57.5 114.7-2.5-2.6-35.1-35.2-5.7-5.7-.3-.5c0-.2.1-.8.1-.8.1-.1 26.8-26 42.4-39.3 0 0 21.6-17.4 22-17.8 0-.1-.6-11-.6-11.5-.4.3-32.5 29-32.5 29C33.4 40.7 11.4 65 9 67.4c-.4.4-.7 1-.7 1.6s.3 1.1.7 1.6l.1.1c7.3 7 25.5 24.2 35.6 34 3.5 3.4 4.8 4.5 6.1 5.5h-.1c.1 0 .7.5 5.4 4.3l.6.5s2.6 2 3.2 2.4c-.9-1-2.4-2.7-2.4-2.7z" fill="#ffe932" fill-rule="nonzero"/>
    </g>
  </g>
  <g transform="translate(-.182 53.511) scale(2.8243)">
    <clipPath id="h">
      <path d="M77.6 2.2h.1-.1m67.8 62.4c-4-4.5-12.5-13.6-32-31.6C83.9 5.5 78.5 2.6 77.7 2.2c-.8.3-6.2 3.2-35.3 30.7-14.8 14-25.3 24.3-31.4 30.7-2.6 2.8-4.4 4.9-4.6 5.2.5 1 4.7 6.9 36.4 36.3 13.6 12.6 23.6 21.5 29.7 26.5.9.7 5 3.9 5 3.9h.2c.4-.1 5.1-1.8 35.9-30.8 19-17.9 27.5-26.9 31.6-31.5l.2-8.6M6.2 69.3c.1-.2.1-.4.1-.5l-.1.5"/>
    </clipPath>
    <g clip-path="url(#h)">
      <path d="m57.4 114.7-2.5-2.6-40.8-40.8-.3-.5c0-.2.1-.9.1-.9 0-.1 26.8-26.1 42.5-39.4 0 0 21.5-17.4 22-17.7 0-.1-.6-10.7-.6-11.2-.4.3-32.3 28.8-32.3 28.8-12 10.4-34.1 34.7-36.4 37.1-.4.4-.7.9-.7 1.5s.2 1.1.7 1.5l.1.1c7.3 7 25.5 24.3 35.6 34 3.5 3.4 4.8 4.5 6.1 5.5.3.2 1.3 1 5.3 4.3l.6.5s1.4 1.1 2.4 1.8c-.4-.4-1.8-2-1.8-2z" fill="#ffe93b" fill-rule="nonzero"/>
    </g>
  </g>
  <g transform="translate(-.182 53.511) scale(2.8243)">
    <clipPath id="i">
      <path d="M77.6 2.2h.1-.1m67.8 62.4c-4-4.5-12.5-13.6-32-31.6C83.9 5.5 78.5 2.6 77.7 2.2c-.8.3-6.2 3.2-35.3 30.7-14.8 14-25.3 24.3-31.4 30.7-2.6 2.8-4.4 4.9-4.6 5.2.5 1 4.7 6.9 36.4 36.3 13.6 12.6 23.6 21.5 29.7 26.5.9.7 5 3.9 5 3.9h.2c.4-.1 5.1-1.8 35.9-30.8 19-17.9 27.5-26.9 31.6-31.5l.2-8.6M6.2 69.3c.1-.2.1-.4.1-.5l-.1.5"/>
    </clipPath>
    <g clip-path="url(#i)">
      <path d="m57.3 114.8-2.5-2.6-35.1-35.1-5.7-5.8-.3-.5v-.1l.1-.9c0-.1 26.4-25.8 42.5-39.5 0 0 21.5-17.4 21.9-17.7 0-.1-.6-10.5-.6-10.9-.4.3-32.2 28.7-32.2 28.7C33.6 40.9 11.5 65.2 9.1 67.5c-.4.4-.6.9-.6 1.4s.2 1 .6 1.4l.1.1c7.3 7 25.5 24.3 35.6 34 3.5 3.4 4.8 4.4 6.1 5.5.3.3 5.9 4.8 5.9 4.8s.8.6 1.5 1.1c-.5-.4-1-1-1-1z" fill="#ffe943" fill-rule="nonzero"/>
    </g>
  </g>
  <g transform="translate(-.182 53.511) scale(2.8243)">
    <clipPath id="j">
      <path d="M77.6 2.2h.1-.1m67.8 62.4c-4-4.5-12.5-13.6-32-31.6C83.9 5.5 78.5 2.6 77.7 2.2c-.8.3-6.2 3.2-35.3 30.7-14.8 14-25.3 24.3-31.4 30.7-2.6 2.8-4.4 4.9-4.6 5.2.5 1 4.7 6.9 36.4 36.3 13.6 12.6 23.6 21.5 29.7 26.5.9.7 5 3.9 5 3.9h.2c.4-.1 5.1-1.8 35.9-30.8 19-17.9 27.5-26.9 31.6-31.5l.2-8.6M6.2 69.3c.1-.2.1-.4.1-.5l-.1.5"/>
    </clipPath>
    <g clip-path="url(#j)">
      <path d="m57.2 114.9-2.5-2.6-35-35.2-5.7-5.7-.3-.5v-.1l.1-.9c.1-.3 27.3-26.6 42.5-39.5 0 0 21.5-17.3 21.9-17.7 0-.1-.6-10.2-.6-10.6-.4.3-32 28.5-32 28.5-11.9 10.3-34 34.6-36.4 37-.4.4-.6.8-.6 1.3s.2 1 .6 1.3l.1.1c7.3 7 25.5 24.3 35.6 34 3.5 3.4 4.8 4.4 6.1 5.5l5.9 4.8s.1.1.6.5c-.1 0-.3-.2-.3-.2z" fill="#ffea4a" fill-rule="nonzero"/>
    </g>
  </g>
  <g transform="translate(-.182 53.511) scale(2.8243)">
    <clipPath id="k">
      <path d="M77.6 2.2h.1-.1m67.8 62.4c-4-4.5-12.5-13.6-32-31.6C83.9 5.5 78.5 2.6 77.7 2.2c-.8.3-6.2 3.2-35.3 30.7-14.8 14-25.3 24.3-31.4 30.7-2.6 2.8-4.4 4.9-4.6 5.2.5 1 4.7 6.9 36.4 36.3 13.6 12.6 23.6 21.5 29.7 26.5.9.7 5 3.9 5 3.9h.2c.4-.1 5.1-1.8 35.9-30.8 19-17.9 27.5-26.9 31.6-31.5l.2-8.6M6.2 69.3c.1-.2.1-.4.1-.5l-.1.5"/>
    </clipPath>
    <g clip-path="url(#k)">
      <path d="M54.7 112.4 19.6 77.2l-5.7-5.7-.4-.5v-.2l.1-.9c.1-.3 27.3-26.6 42.6-39.6 0 0 21.4-17.3 21.8-17.6 0-.1-.6-9.9-.6-10.3-.4.2-31.8 28.2-31.8 28.2C33.7 41 11.7 65.3 9.3 67.7c-.4.3-.6.8-.6 1.3s.2.9.6 1.3l.1.1c7.3 7 25.5 24.2 35.6 34 3.5 3.4 4.8 4.4 6 5.5 0 0 4.6 3.7 5.4 4.4-.7-.9-1.7-1.9-1.7-1.9z" fill="#ffeb51" fill-rule="nonzero"/>
    </g>
  </g>
  <g transform="translate(-.182 53.511) scale(2.8243)">
    <clipPath id="l">
      <path d="M77.6 2.2h.1-.1m67.8 62.4c-4-4.5-12.5-13.6-32-31.6C83.9 5.5 78.5 2.6 77.7 2.2c-.8.3-6.2 3.2-35.3 30.7-14.8 14-25.3 24.3-31.4 30.7-2.6 2.8-4.4 4.9-4.6 5.2.5 1 4.7 6.9 36.4 36.3 13.6 12.6 23.6 21.5 29.7 26.5.9.7 5 3.9 5 3.9h.2c.4-.1 5.1-1.8 35.9-30.8 19-17.9 27.5-26.9 31.6-31.5l.2-8.6M6.2 69.3c.1-.2.1-.4.1-.5l-.1.5"/>
    </clipPath>
    <g clip-path="url(#l)">
      <path d="M54.6 112.5 19.5 77.3l-5.7-5.7-.4-.8.1-1c.1-.3 27.2-26.6 42.6-39.7 0 0 21.4-17.3 21.8-17.6 0-.1-.6-9.6-.6-10-.4.3-31.6 28.2-31.6 28.2C33.9 41 11.7 65.4 9.4 67.8c-.3.3-.5.8-.5 1.2s.2.9.5 1.2l.1.1c7.3 6.9 25.4 24.2 35.6 34 3.5 3.4 4.8 4.4 6 5.4 0 0 3.8 3.1 4 3.3l-.5-.5z" fill="#ffeb58" fill-rule="nonzero"/>
    </g>
  </g>
  <g transform="translate(-.182 53.511) scale(2.8243)">
    <clipPath id="m">
      <path d="M77.6 2.2h.1-.1m67.8 62.4c-4-4.5-12.5-13.6-32-31.6C83.9 5.5 78.5 2.6 77.7 2.2c-.8.3-6.2 3.2-35.3 30.7-14.8 14-25.3 24.3-31.4 30.7-2.6 2.8-4.4 4.9-4.6 5.2.5 1 4.7 6.9 36.4 36.3 13.6 12.6 23.6 21.5 29.7 26.5.9.7 5 3.9 5 3.9h.2c.4-.1 5.1-1.8 35.9-30.8 19-17.9 27.5-26.9 31.6-31.5l.2-8.6M6.2 69.3c.1-.2.1-.4.1-.5l-.1.5"/>
    </clipPath>
    <g clip-path="url(#m)">
      <path d="m19.4 77.4-5.7-5.7-.4-.6-.1-.2v-.1l.1-1c.1-.3 27.2-26.7 42.7-39.7 0 0 21.4-17.2 21.8-17.6 0-.1-.6-9.3-.6-9.8-.4.3-31.5 28.1-31.5 28.1-11.8 10.3-33.9 34.7-36.3 37-.3.3-.5.7-.5 1.1s.2.8.5 1.1l.1.1c7.3 6.9 25.4 24.1 35.6 34 3.5 3.4 4.8 4.4 6 5.4 0 0 1.4 1.1 2.5 2-2.9-2.8-14.4-14.3-34.2-34.1z" fill="#ffec5e" fill-rule="nonzero"/>
    </g>
  </g>
  <g transform="translate(-.182 53.511) scale(2.8243)">
    <clipPath id="n">
      <path d="M77.6 2.2h.1-.1m67.8 62.4c-4-4.5-12.5-13.6-32-31.6C83.9 5.5 78.5 2.6 77.7 2.2c-.8.3-6.2 3.2-35.3 30.7-14.8 14-25.3 24.3-31.4 30.7-2.6 2.8-4.4 4.9-4.6 5.2.5 1 4.7 6.9 36.4 36.3 13.6 12.6 23.6 21.5 29.7 26.5.9.7 5 3.9 5 3.9h.2c.4-.1 5.1-1.8 35.9-30.8 19-17.9 27.5-26.9 31.6-31.5l.2-8.6M6.2 69.3c.1-.2.1-.4.1-.5l-.1.5"/>
    </clipPath>
    <g clip-path="url(#n)">
      <path d="m13.7 71.7-.4-.6-.1-.2v-.1l.1-1c.1-.3 27.2-26.7 42.7-39.8 0 0 21.3-17.2 21.7-17.5 0-.1-.6-9-.6-9.5-.4.3-31.3 27.9-31.3 27.9C34 41.2 11.9 65.5 9.5 67.9c-.3.3-.5.7-.5 1 0 .4.2.7.5 1l.1.1c7.3 7 25.4 24.2 35.6 34 3.5 3.4 4.8 4.4 6 5.4 0 0 .4.3.9.7-2.5-2.4-38.4-38.4-38.4-38.4zm-.1.1-.4-.6-.1-.2v-.1l.1-1c.1-.3 27.2-26.8 42.7-39.9 0 0 21.3-17.2 21.7-17.5 0-.1-.6-8.8-.6-9.2-.4.3-31.1 27.7-31.1 27.7C34.2 41.2 12 65.6 9.6 68c-.3.3-.5.6-.5 1s.2.7.4 1h.2c7.3 7 25.4 24.2 35.6 34 2.8 2.7 4.2 3.9 5.3 4.8-2.8-2.7-37-37-37-37z" fill="#ffec64" fill-rule="nonzero"/>
    </g>
  </g>
  <g transform="translate(-.182 53.511) scale(2.8243)">
    <clipPath id="o">
      <path d="M77.6 2.2h.1-.1m67.8 62.4c-4-4.5-12.5-13.6-32-31.6C83.9 5.5 78.5 2.6 77.7 2.2c-.8.3-6.2 3.2-35.3 30.7-14.8 14-25.3 24.3-31.4 30.7-2.6 2.8-4.4 4.9-4.6 5.2.5 1 4.7 6.9 36.4 36.3 13.6 12.6 23.6 21.5 29.7 26.5.9.7 5 3.9 5 3.9h.2c.4-.1 5.1-1.8 35.9-30.8 19-17.9 27.5-26.9 31.6-31.5l.2-8.6M6.2 69.3c.1-.2.1-.4.1-.5l-.1.5"/>
    </clipPath>
    <g clip-path="url(#o)">
      <path d="m13.5 71.9-.4-.6-.1-.3v-.2l.1-1c.1-.3 27.2-26.8 42.8-40 0 0 21.3-17.1 21.7-17.5 0-.1-.6-8.5-.6-8.9-.5.4-31.1 27.6-31.1 27.6C34.2 41.3 12 65.6 9.6 68c-.3.2-.4.6-.4.9s.1.6.4.9l.1.1c5.7 5.4 25 23.8 35.6 34 1.2 1.1 2.1 2 2.8 2.7-3.9-3.9-34.6-34.7-34.6-34.7zm-.1 0-.4-.6-.1-.3v-.2l.1-1c.1-.3 27.2-26.8 42.8-40 0 0 21.2-17.1 21.6-17.5 0-.1-.6-8.2-.6-8.6C76.4 4 46 31.1 46 31.1c-11.7 10.3-33.9 34.6-36.3 37-.2.2-.4.5-.4.8s.1.6.4.8l.1.1c5.1 4.8 21.1 20 32 30.5L13.4 71.9z" fill="#ffed6a" fill-rule="nonzero"/>
    </g>
  </g>
  <g transform="translate(-.182 53.511) scale(2.8243)">
    <clipPath id="p">
      <path d="M77.6 2.2h.1-.1m67.8 62.4c-4-4.5-12.5-13.6-32-31.6C83.9 5.5 78.5 2.6 77.7 2.2c-.8.3-6.2 3.2-35.3 30.7-14.8 14-25.3 24.3-31.4 30.7-2.6 2.8-4.4 4.9-4.6 5.2.5 1 4.7 6.9 36.4 36.3 13.6 12.6 23.6 21.5 29.7 26.5.9.7 5 3.9 5 3.9h.2c.4-.1 5.1-1.8 35.9-30.8 19-17.9 27.5-26.9 31.6-31.5l.2-8.6M6.2 69.3c.1-.2.1-.4.1-.5l-.1.5"/>
    </clipPath>
    <g clip-path="url(#p)">
      <path d="m13.4 72-.4-.7-.1-.3v-.2l.1-1.1c.1-.3 27.3-26.9 42.8-40.1 0 0 21.2-17.1 21.6-17.4 0-.1-.6-7.9-.6-8.3-.4.3-30.5 27.3-30.5 27.3-11.7 10.3-33.9 34.6-36.3 37-.2.2-.4.5-.4.7 0 .3.1.5.3.7 0 0 16.5 15.7 25.8 24.6C28 86.7 13.4 72 13.4 72z" fill="#ffee76" fill-rule="nonzero"/>
    </g>
  </g>
  <g transform="translate(-.182 53.511) scale(2.8243)">
    <clipPath id="q">
      <path d="M77.6 2.2h.1-.1m67.8 62.4c-4-4.5-12.5-13.6-32-31.6C83.9 5.5 78.5 2.6 77.7 2.2c-.8.3-6.2 3.2-35.3 30.7-14.8 14-25.3 24.3-31.4 30.7-2.6 2.8-4.4 4.9-4.6 5.2.5 1 4.7 6.9 36.4 36.3 13.6 12.6 23.6 21.5 29.7 26.5.9.7 5 3.9 5 3.9h.2c.4-.1 5.1-1.8 35.9-30.8 19-17.9 27.5-26.9 31.6-31.5l.2-8.6M6.2 69.3c.1-.2.1-.4.1-.5l-.1.5"/>
    </clipPath>
    <g clip-path="url(#q)">
      <path d="m13.3 72.1-.5-.7-.2-.6.1-1.1c.1-.3 27.3-26.9 42.9-40.2 0 0 21.1-17 21.5-17.4 0-.1-.6-7.6-.6-8.1-.4.3-30.4 27.1-30.4 27.1-11.7 10.3-33.9 34.6-36.3 37-.2.2-.3.4-.3.7 0 .2.1.5.3.6L29.3 88c-6.4-6.3-16-15.9-16-15.9z" fill="#ffee7b" fill-rule="nonzero"/>
    </g>
  </g>
  <g transform="translate(-.182 53.511) scale(2.8243)">
    <clipPath id="r">
      <path d="M77.6 2.2h.1-.1m67.8 62.4c-4-4.5-12.5-13.6-32-31.6C83.9 5.5 78.5 2.6 77.7 2.2c-.8.3-6.2 3.2-35.3 30.7-14.8 14-25.3 24.3-31.4 30.7-2.6 2.8-4.4 4.9-4.6 5.2.5 1 4.7 6.9 36.4 36.3 13.6 12.6 23.6 21.5 29.7 26.5.9.7 5 3.9 5 3.9h.2c.4-.1 5.1-1.8 35.9-30.8 19-17.9 27.5-26.9 31.6-31.5l.2-8.6M6.2 69.3c.1-.2.1-.4.1-.5l-.1.5"/>
    </clipPath>
    <g clip-path="url(#r)">
      <path d="m13.2 72.2-.1-.1-.4-.6-.2-.6.1-1.1c.1-.3 27.3-27 42.9-40.3 0 0 21.1-17 21.5-17.4 0-.1-.6-7.3-.6-7.8-.4.3-30.2 27-30.2 27C34.6 41.6 12.4 66 10 68.3c-.2.2-.3.4-.3.6s.1.4.3.6c0 0 8.5 8.1 13.2 12.6-4.8-4.7-10-9.9-10-9.9z" fill="#ffef81" fill-rule="nonzero"/>
    </g>
  </g>
  <g transform="translate(-.182 53.511) scale(2.8243)">
    <clipPath id="s">
      <path d="M77.6 2.2h.1-.1m67.8 62.4c-4-4.5-12.5-13.6-32-31.6C83.9 5.5 78.5 2.6 77.7 2.2c-.8.3-6.2 3.2-35.3 30.7-14.8 14-25.3 24.3-31.4 30.7-2.6 2.8-4.4 4.9-4.6 5.2.5 1 4.7 6.9 36.4 36.3 13.6 12.6 23.6 21.5 29.7 26.5.9.7 5 3.9 5 3.9h.2c.4-.1 5.1-1.8 35.9-30.8 19-17.9 27.5-26.9 31.6-31.5l.2-8.6M6.2 69.3c.1-.2.1-.4.1-.5l-.1.5"/>
    </clipPath>
    <g clip-path="url(#s)">
      <path d="m13.1 72.2-.1-.1.1.1c-.1-.2-.2-.3-.5-.7l-.2-.6.1-1.1c.1-.3 27.3-27 42.9-40.3 0 0 21.1-17 21.5-17.3 0-.1-.6-7.1-.6-7.5-.4.3-30 26.8-30 26.8C34.7 41.6 12.4 66 10 68.4c-.2.2-.3.3-.3.5s.1.4.2.5c0 0 4.9 4.7 6.8 6.5-1.6-1.7-3.6-3.7-3.6-3.7z" fill="#ffef86" fill-rule="nonzero"/>
    </g>
  </g>
  <g transform="translate(-.182 53.511) scale(2.8243)">
    <clipPath id="t">
      <path d="M77.6 2.2h.1-.1m67.8 62.4c-4-4.5-12.5-13.6-32-31.6C83.9 5.5 78.5 2.6 77.7 2.2c-.8.3-6.2 3.2-35.3 30.7-14.8 14-25.3 24.3-31.4 30.7-2.6 2.8-4.4 4.9-4.6 5.2.5 1 4.7 6.9 36.4 36.3 13.6 12.6 23.6 21.5 29.7 26.5.9.7 5 3.9 5 3.9h.2c.4-.1 5.1-1.8 35.9-30.8 19-17.9 27.5-26.9 31.6-31.5l.2-8.6M6.2 69.3c.1-.2.1-.4.1-.5l-.1.5"/>
    </clipPath>
    <g clip-path="url(#t)">
      <path d="m12.6 71.6-.2-.4-.1-.3.1-1.1c.1-.3 27.3-27.1 43-40.4 0 0 21-17 21.4-17.3 0-.1-.6-6.8-.6-7.2-.4.3-29.8 26.6-29.8 26.6-11.6 10.2-33.8 34.6-36.2 37-.1.1-.2.3-.2.4s.1.3.2.4c0 0 1.8 1.7 2.7 2.6-.2-.1-.3-.3-.3-.3z" fill="#fff08b" fill-rule="nonzero"/>
    </g>
  </g>
  <g transform="translate(-.182 53.511) scale(2.8243)">
    <clipPath id="u">
      <path d="M77.6 2.2h.1-.1m67.8 62.4c-4-4.5-12.5-13.6-32-31.6C83.9 5.5 78.5 2.6 77.7 2.2c-.8.3-6.2 3.2-35.3 30.7-14.8 14-25.3 24.3-31.4 30.7-2.6 2.8-4.4 4.9-4.6 5.2.5 1 4.7 6.9 36.4 36.3 13.6 12.6 23.6 21.5 29.7 26.5.9.7 5 3.9 5 3.9h.2c.4-.1 5.1-1.8 35.9-30.8 19-17.9 27.5-26.9 31.6-31.5l.2-8.6M6.2 69.3c.1-.2.1-.4.1-.5l-.1.5"/>
    </clipPath>
    <g clip-path="url(#u)">
      <path d="m12.3 71.3-.1-.3.1-1.2c.1-.3 27.3-27.1 43-40.5 0 0 21-16.9 21.4-17.3 0-.1-.6-6.5-.6-6.9-.4.3-29.7 26.5-29.7 26.5-11.6 10.2-33.8 34.6-36.2 37-.1.1-.2.3-.2.4s.1.2.2.3c0 0 1.6 1.5 2.2 2.1l-.1-.1z" fill="#fff190" fill-rule="nonzero"/>
    </g>
  </g>
  <g transform="translate(-.182 53.511) scale(2.8243)">
    <clipPath id="v">
      <path d="M77.6 2.2h.1-.1m67.8 62.4c-4-4.5-12.5-13.6-32-31.6C83.9 5.5 78.5 2.6 77.7 2.2c-.8.3-6.2 3.2-35.3 30.7-14.8 14-25.3 24.3-31.4 30.7-2.6 2.8-4.4 4.9-4.6 5.2.5 1 4.7 6.9 36.4 36.3 13.6 12.6 23.6 21.5 29.7 26.5.9.7 5 3.9 5 3.9h.2c.4-.1 5.1-1.8 35.9-30.8 19-17.9 27.5-26.9 31.6-31.5l.2-8.6M6.2 69.3c.1-.2.1-.4.1-.5l-.1.5"/>
    </clipPath>
    <g clip-path="url(#v)">
      <path d="m12.1 70.9.1-1.2c.1-.3 27.3-27.2 43.1-40.6 0 0 21-16.9 21.4-17.2 0-.1-.6-6.2-.6-6.6-.4.3-29.5 26.3-29.5 26.3-11.5 10.1-33.8 34.6-36.2 37l-.2.3.1.3s1.6 1.6 1.9 1.8l-.1-.1z" fill="#fff195" fill-rule="nonzero"/>
    </g>
  </g>
  <g transform="translate(-.182 53.511) scale(2.8243)">
    <clipPath id="w">
      <path d="M77.6 2.2h.1-.1m67.8 62.4c-4-4.5-12.5-13.6-32-31.6C83.9 5.5 78.5 2.6 77.7 2.2c-.8.3-6.2 3.2-35.3 30.7-14.8 14-25.3 24.3-31.4 30.7-2.6 2.8-4.4 4.9-4.6 5.2.5 1 4.7 6.9 36.4 36.3 13.6 12.6 23.6 21.5 29.7 26.5.9.7 5 3.9 5 3.9h.2c.4-.1 5.1-1.8 35.9-30.8 19-17.9 27.5-26.9 31.6-31.5l.2-8.6M6.2 69.3c.1-.2.1-.4.1-.5l-.1.5"/>
    </clipPath>
    <g clip-path="url(#w)">
      <path d="M12.1 69.7c.1-.3 27.3-27.2 43.1-40.6.2-.2 20.6-16.6 21.3-17.2v-1.5s-.6-4.4-.6-4.8c-.3.3-29.3 26.2-29.3 26.2-9 7.9-24.6 24.5-32 32.5l-4.2 4.4-.1.2.1.2s1.2 1.2 1.7 1.6c-.1-.2 0-1 0-1z" fill="#fff29a" fill-rule="nonzero"/>
    </g>
  </g>
  <g transform="translate(-.182 53.511) scale(2.8243)">
    <clipPath id="x">
      <path d="M77.6 2.2h.1-.1m67.8 62.4c-4-4.5-12.5-13.6-32-31.6C83.9 5.5 78.5 2.6 77.7 2.2c-.8.3-6.2 3.2-35.3 30.7-14.8 14-25.3 24.3-31.4 30.7-2.6 2.8-4.4 4.9-4.6 5.2.5 1 4.7 6.9 36.4 36.3 13.6 12.6 23.6 21.5 29.7 26.5.9.7 5 3.9 5 3.9h.2c.4-.1 5.1-1.8 35.9-30.8 19-17.9 27.5-26.9 31.6-31.5l.2-8.6M6.2 69.3c.1-.2.1-.4.1-.5l-.1.5"/>
    </clipPath>
    <g clip-path="url(#x)">
      <path d="M12 69.7c.1-.3 27.3-27.3 43.1-40.7 0 0 20.9-16.8 21.3-17.2v-1.4s-.5-3.7-.6-4.7c-.3.3-29.1 26-29.1 26-9 7.9-24.5 24.5-32 32.5l-4.2 4.4v-.1l-.1.3.1.2c.1.1.5.5 1.6 1.4-.1-.1-.1-.7-.1-.7z" fill="#fff29f" fill-rule="nonzero"/>
    </g>
  </g>
  <g transform="translate(-.182 53.511) scale(2.8243)">
    <clipPath id="y">
      <path d="M77.6 2.2h.1-.1m67.8 62.4c-4-4.5-12.5-13.6-32-31.6C83.9 5.5 78.5 2.6 77.7 2.2c-.8.3-6.2 3.2-35.3 30.7-14.8 14-25.3 24.3-31.4 30.7-2.6 2.8-4.4 4.9-4.6 5.2.5 1 4.7 6.9 36.4 36.3 13.6 12.6 23.6 21.5 29.7 26.5.9.7 5 3.9 5 3.9h.2c.4-.1 5.1-1.8 35.9-30.8 19-17.9 27.5-26.9 31.6-31.5l.2-8.6M6.2 69.3c.1-.2.1-.4.1-.5l-.1.5"/>
    </clipPath>
    <g clip-path="url(#y)">
      <path d="M11.9 69.7c.1-.3 27.3-27.3 43.1-40.8 0 0 20.8-16.8 21.2-17.1v-1.4s-.5-3.5-.5-4.4c-.3.3-29 25.9-29 25.9-9 7.9-24.5 24.5-32 32.5l-4.2 4.5.1.1h-.1c.1.1.5.4 1.4 1.3v-.6z" fill="#fff3a3" fill-rule="nonzero"/>
    </g>
  </g>
  <g transform="translate(-.182 53.511) scale(2.8243)">
    <clipPath id="z">
      <path d="M77.6 2.2h.1-.1m67.8 62.4c-4-4.5-12.5-13.6-32-31.6C83.9 5.5 78.5 2.6 77.7 2.2c-.8.3-6.2 3.2-35.3 30.7-14.8 14-25.3 24.3-31.4 30.7-2.6 2.8-4.4 4.9-4.6 5.2.5 1 4.7 6.9 36.4 36.3 13.6 12.6 23.6 21.5 29.7 26.5.9.7 5 3.9 5 3.9h.2c.4-.1 5.1-1.8 35.9-30.8 19-17.9 27.5-26.9 31.6-31.5l.2-8.6M6.2 69.3c.1-.2.1-.4.1-.5l-.1.5"/>
    </clipPath>
    <g clip-path="url(#z)">
      <path d="M11.8 69.7c.1-.4 27.4-27.4 43.2-40.9l11.6-9.5 9.6-7.6c0-.1-.6-4.6-.6-5.5-.4.3-28.8 25.8-28.8 25.8-9 7.9-24.5 24.5-32 32.5-.1.1-.2.3-.6.7L10.6 69v.1c.2.1.5.4 1.1 1.1.1-.3.1-.5.1-.5z" fill="#fff3a8" fill-rule="nonzero"/>
    </g>
  </g>
  <g transform="translate(-.182 53.511) scale(2.8243)">
    <clipPath id="A">
      <path d="M77.6 2.2h.1-.1m67.8 62.4c-4-4.5-12.5-13.6-32-31.6C83.9 5.5 78.5 2.6 77.7 2.2c-.8.3-6.2 3.2-35.3 30.7-14.8 14-25.3 24.3-31.4 30.7-2.6 2.8-4.4 4.9-4.6 5.2.5 1 4.7 6.9 36.4 36.3 13.6 12.6 23.6 21.5 29.7 26.5.9.7 5 3.9 5 3.9h.2c.4-.1 5.1-1.8 35.9-30.8 19-17.9 27.5-26.9 31.6-31.5l.2-8.6M6.2 69.3c.1-.2.1-.4.1-.5l-.1.5"/>
    </clipPath>
    <g clip-path="url(#A)">
      <path d="M11.7 69.7c.1-.4 27.4-27.5 43.2-40.9 0-.1.1-.1.3-.3L76 11.7c0-.1-.6-4.8-.6-5.2-.3.3-28.6 25.5-28.6 25.5-9 7.9-24.5 24.5-32 32.5l-.6.6s-3.2 3.4-3.6 3.8c.1.1.7.6.9.9l.2-.1z" fill="#fff4ad" fill-rule="nonzero"/>
    </g>
  </g>
  <g transform="translate(-.182 53.511) scale(2.8243)">
    <clipPath id="B">
      <path d="M77.6 2.2h.1-.1m67.8 62.4c-4-4.5-12.5-13.6-32-31.6C83.9 5.5 78.5 2.6 77.7 2.2c-.8.3-6.2 3.2-35.3 30.7-14.8 14-25.3 24.3-31.4 30.7-2.6 2.8-4.4 4.9-4.6 5.2.5 1 4.7 6.9 36.4 36.3 13.6 12.6 23.6 21.5 29.7 26.5.9.7 5 3.9 5 3.9h.2c.4-.1 5.1-1.8 35.9-30.8 19-17.9 27.5-26.9 31.6-31.5l.2-8.6M6.2 69.3c.1-.2.1-.4.1-.5l-.1.5"/>
    </clipPath>
    <g clip-path="url(#B)">
      <path d="M46.9 32.1c-9 7.9-24.5 24.5-32 32.5l-.6.6s-3.1 3.3-3.5 3.7l.7.7c.1-.3 27.4-27.5 43.3-40.9l.3-.3S75.4 12 75.9 11.6c0-.1-.1-1.2-.1-1.2-.2-1.3-.4-3.2-.4-3.8-.3.4-28.5 25.5-28.5 25.5z" fill="#fff4b1" fill-rule="nonzero"/>
    </g>
  </g>
  <g transform="translate(-.182 53.511) scale(2.8243)">
    <clipPath id="C">
      <path d="M77.6 2.2h.1-.1m67.8 62.4c-4-4.5-12.5-13.6-32-31.6C83.9 5.5 78.5 2.6 77.7 2.2c-.8.3-6.2 3.2-35.3 30.7-14.8 14-25.3 24.3-31.4 30.7-2.6 2.8-4.4 4.9-4.6 5.2.5 1 4.7 6.9 36.4 36.3 13.6 12.6 23.6 21.5 29.7 26.5.9.7 5 3.9 5 3.9h.2c.4-.1 5.1-1.8 35.9-30.8 19-17.9 27.5-26.9 31.6-31.5l.2-8.6M6.2 69.3c.1-.2.1-.4.1-.5l-.1.5"/>
    </clipPath>
    <g clip-path="url(#C)">
      <path d="M47 32.2c-9 7.9-24.5 24.5-32 32.5 0 0-3.6 3.9-4 4.2l.6.5c1.8-2 27.9-27.8 43.2-40.8l.3-.3s20.1-16.2 20.7-16.7c0-.1-.1-1.2-.1-1.2s-.3-2.8-.4-3.6C75 7.2 47 32.2 47 32.2z" fill="#fff5b5" fill-rule="nonzero"/>
    </g>
  </g>
  <g transform="translate(-.182 53.511) scale(2.8243)">
    <clipPath id="D">
      <path d="M77.6 2.2h.1-.1m67.8 62.4c-4-4.5-12.5-13.6-32-31.6C83.9 5.5 78.5 2.6 77.7 2.2c-.8.3-6.2 3.2-35.3 30.7-14.8 14-25.3 24.3-31.4 30.7-2.6 2.8-4.4 4.9-4.6 5.2.5 1 4.7 6.9 36.4 36.3 13.6 12.6 23.6 21.5 29.7 26.5.9.7 5 3.9 5 3.9h.2c.4-.1 5.1-1.8 35.9-30.8 19-17.9 27.5-26.9 31.6-31.5l.2-8.6M6.2 69.3c.1-.2.1-.4.1-.5l-.1.5"/>
    </clipPath>
    <g clip-path="url(#D)">
      <path d="M47.1 32.3c-9 7.9-24.5 24.5-31.9 32.5 0 0-3.8 4.1-4 4.2l.4.4c2.2-2.4 28-28 43.1-40.8l.3-.3 20.7-16.7c0-.1-.1-1.1-.1-1.1s-.3-2.6-.4-3.4c-.3.3-28.1 25.2-28.1 25.2z" fill="#fff5ba" fill-rule="nonzero"/>
    </g>
  </g>
  <g transform="translate(-.182 53.511) scale(2.8243)">
    <clipPath id="E">
      <path d="M77.6 2.2h.1-.1m67.8 62.4c-4-4.5-12.5-13.6-32-31.6C83.9 5.5 78.5 2.6 77.7 2.2c-.8.3-6.2 3.2-35.3 30.7-14.8 14-25.3 24.3-31.4 30.7-2.6 2.8-4.4 4.9-4.6 5.2.5 1 4.7 6.9 36.4 36.3 13.6 12.6 23.6 21.5 29.7 26.5.9.7 5 3.9 5 3.9h.2c.4-.1 5.1-1.8 35.9-30.8 19-17.9 27.5-26.9 31.6-31.5l.2-8.6M6.2 69.3c.1-.2.1-.4.1-.5l-.1.5"/>
    </clipPath>
    <g clip-path="url(#E)">
      <path d="M47.1 32.4c-9 7.9-24.5 24.5-31.9 32.4 0 0-3.8 4-3.9 4.1l.3.2c2.6-2.7 28-27.9 43.1-40.7l.3-.3 11.5-9.3 9.1-7.3c0-.1-.1-1.1-.1-1.1s-.3-2.8-.4-3.1c-.3.3-28 25.1-28 25.1z" fill="#fff6be" fill-rule="nonzero"/>
    </g>
  </g>
  <g transform="translate(-.182 53.511) scale(2.8243)">
    <clipPath id="F">
      <path d="M77.6 2.2h.1-.1m67.8 62.4c-4-4.5-12.5-13.6-32-31.6C83.9 5.5 78.5 2.6 77.7 2.2c-.8.3-6.2 3.2-35.3 30.7-14.8 14-25.3 24.3-31.4 30.7-2.6 2.8-4.4 4.9-4.6 5.2.5 1 4.7 6.9 36.4 36.3 13.6 12.6 23.6 21.5 29.7 26.5.9.7 5 3.9 5 3.9h.2c.4-.1 5.1-1.8 35.9-30.8 19-17.9 27.5-26.9 31.6-31.5l.2-8.6M6.2 69.3c.1-.2.1-.4.1-.5l-.1.5"/>
    </clipPath>
    <g clip-path="url(#F)">
      <path d="M47.2 32.4c-9 7.9-24.5 24.5-31.9 32.4l-2 2.1s-1.7 1.8-1.8 1.9l.1.1c2.8-3 28-27.9 43-40.6l.3-.3v.1c.1-.1.4-.4 2-1.7l18.6-15c0-.1-.1-1-.1-1s-.3-2.6-.3-2.9c-.3.3-27.9 24.9-27.9 24.9z" fill="#fff7c2" fill-rule="nonzero"/>
    </g>
  </g>
  <g transform="translate(-.182 53.511) scale(2.8243)">
    <clipPath id="G">
      <path d="M77.6 2.2h.1-.1m67.8 62.4c-4-4.5-12.5-13.6-32-31.6C83.9 5.5 78.5 2.6 77.7 2.2c-.8.3-6.2 3.2-35.3 30.7-14.8 14-25.3 24.3-31.4 30.7-2.6 2.8-4.4 4.9-4.6 5.2.5 1 4.7 6.9 36.4 36.3 13.6 12.6 23.6 21.5 29.7 26.5.9.7 5 3.9 5 3.9h.2c.4-.1 5.1-1.8 35.9-30.8 19-17.9 27.5-26.9 31.6-31.5l.2-8.6M6.2 69.3c.1-.2.1-.4.1-.5l-.1.5"/>
    </clipPath>
    <g clip-path="url(#G)">
      <path d="M47.3 32.5c-9 7.9-24.5 24.5-31.9 32.4 0 .1-.1.2-.4.5 0 0-.7.7-1.1 1.2 7.2-7.2 27.7-27.3 40.7-38.3l.3-.3v.1c.1-.1.3-.3 2-1.7l18.6-15c0-.1-.1-.9-.1-.9s-.3-2.5-.3-2.7c-.4.2-27.8 24.7-27.8 24.7z" fill="#fff7c6" fill-rule="nonzero"/>
    </g>
  </g>
  <g transform="translate(-.182 53.511) scale(2.8243)">
    <clipPath id="H">
      <path d="M77.6 2.2h.1-.1m67.8 62.4c-4-4.5-12.5-13.6-32-31.6C83.9 5.5 78.5 2.6 77.7 2.2c-.8.3-6.2 3.2-35.3 30.7-14.8 14-25.3 24.3-31.4 30.7-2.6 2.8-4.4 4.9-4.6 5.2.5 1 4.7 6.9 36.4 36.3 13.6 12.6 23.6 21.5 29.7 26.5.9.7 5 3.9 5 3.9h.2c.4-.1 5.1-1.8 35.9-30.8 19-17.9 27.5-26.9 31.6-31.5l.2-8.6M6.2 69.3c.1-.2.1-.4.1-.5l-.1.5"/>
    </clipPath>
    <g clip-path="url(#H)">
      <path d="m89.8 15.7 3.6 4.4 3.7 4.2 2.5 2.6c13.3 13.3 40.5 40.6 40.8 40.9l.1.2c0 .1-.1.2-.1.2-1.2 1.1-27.7 26.7-42.2 39l-22.3 18 .6 13.7 33.9-30.3c12.4-10.9 36.1-36.9 36.4-37.1.6-.5.9-1.3.9-2.1s-.3-1.6-1-2.2l-.1-.1c-4.1-3.9-25-23.8-35.6-34-3.6-3.5-4.9-4.5-6.2-5.6L99 22.8l-9.2-7.1" fill="#ffe500" fill-rule="nonzero"/>
    </g>
  </g>
  <g transform="translate(-.182 53.511) scale(2.8243)">
    <clipPath id="I">
      <path d="M145.1 72.9c-1.9 2-5.3 5.8-9.5 10.2l2.3-2.3c3.3-3.4 5.6-5.9 7.2-7.7v-.2M91.1 17c.8.9 2.4 2.9 2.4 2.9h-.1c.1.1.4.4 3.8 4.3l2.5 2.6L134.8 62l5.7 5.7.2.3-.1.4c-2.9 2.8-28.1 27-42.2 39 0 0-21.8 17.6-22.2 18 0 .1.3 5.5.5 9.4.1.1.2.1.2.2-.2-3.7-.5-9.4-.5-9.5.4-.3 22.1-17.9 22.1-17.9 14.9-12.6 42-38.9 42.3-39.1l.1-.5-.2-.4-5.7-5.7-35-35.3-2.5-2.6-.2-.2c-3.3-3.7-3.5-4-3.6-4l.1.1s-.7-.9-1.3-1.5c1.8 1.4 6.4 4.8 6.4 4.8l5.9 4.8c1.3 1 2.6 2.1 6.1 5.5 9.4 9 26.5 25.4 34.5 33v-.3c-8.1-7.7-25.1-23.9-34.4-32.9-3.5-3.4-4.9-4.5-6.1-5.5L99 22.9s-6.8-5.1-7.9-5.9"/>
    </clipPath>
    <g clip-path="url(#I)">
      <path fill="#ffe500" fill-rule="nonzero" d="M76.2 17h69.2v117.9H76.2z"/>
    </g>
  </g>
  <g transform="translate(-.182 53.511) scale(2.8243)">
    <clipPath id="J">
      <path d="M77.6 2.2h.1-.1m67.8 62.4c-4-4.5-12.5-13.6-32-31.6C83.9 5.5 78.5 2.6 77.7 2.2c-.8.3-6.2 3.2-35.3 30.7-14.8 14-25.3 24.3-31.4 30.7-2.6 2.8-4.4 4.9-4.6 5.2.5 1 4.7 6.9 36.4 36.3 13.6 12.6 23.6 21.5 29.7 26.5.9.7 5 3.9 5 3.9h.2c.4-.1 5.1-1.8 35.9-30.8 19-17.9 27.5-26.9 31.6-31.5l.2-8.6M6.2 69.3c.1-.2.1-.4.1-.5l-.1.5"/>
    </clipPath>
    <g clip-path="url(#J)">
      <path d="M145.1 72.5c-2.8 3-9.3 10-16.3 17.3 2.6-2.5 4.8-4.8 6.8-6.8 4.2-4.4 7.6-8.2 9.5-10.2v-.3M92.5 18.3c.5.7 1.3 1.5 1.3 1.5l-.1-.1c.1.1.3.3 3.6 4l.2.2 2.5 2.6 35.1 35.2 5.7 5.7.2.4-.1.5c-.2.2-27.4 26.5-42.3 39.1 0 0-21.7 17.5-22.1 17.9 0 .1.3 5.8.5 9.5.1.1.2.1.2.2-.2-3.5-.5-9.5-.5-9.6.4-.3 22.1-17.8 22.1-17.8 15.3-13 42.2-39 42.4-39.2 0 0 .1-.6.1-.7l-.2-.4-5.7-5.7-35.1-35.2-2.5-2.6-3.7-4.2-.1-.1c1 .8 4.9 3.7 4.9 3.7l5.9 4.8c1.3 1 2.6 2.1 6.1 5.5 9.6 9.3 26.7 25.6 34.6 33.1v-.3c-8-7.6-25.1-23.9-34.5-33-3.5-3.4-4.8-4.5-6.1-5.5L99 23c-.1.1-4.7-3.3-6.5-4.7" fill="#fee500" fill-rule="nonzero"/>
    </g>
  </g>
  <g transform="translate(-.182 53.511) scale(2.8243)">
    <clipPath id="K">
      <path d="M77.6 2.2h.1-.1m67.8 62.4c-4-4.5-12.5-13.6-32-31.6C83.9 5.5 78.5 2.6 77.7 2.2c-.8.3-6.2 3.2-35.3 30.7-14.8 14-25.3 24.3-31.4 30.7-2.6 2.8-4.4 4.9-4.6 5.2.5 1 4.7 6.9 36.4 36.3 13.6 12.6 23.6 21.5 29.7 26.5.9.7 5 3.9 5 3.9h.2c.4-.1 5.1-1.8 35.9-30.8 19-17.9 27.5-26.9 31.6-31.5l.2-8.6M6.2 69.3c.1-.2.1-.4.1-.5l-.1.5"/>
    </clipPath>
    <g clip-path="url(#K)">
      <path d="M103.2 114.2c-3.9 3.5-8.9 7.9-13.4 12 3.4-3 7.8-6.9 13.4-12m41.9-42c-3.4 3.6-12.7 13.7-21.7 22.9 1.9-1.9 3.7-3.6 5.4-5.2 7-7.3 13.5-14.3 16.3-17.3v-.4M93.8 19.6l.1.1 3.7 4.2 2.5 2.6 35.1 35.2 5.7 5.7.2.4c0 .1-.1.7-.1.7-.1.2-27 26.2-42.4 39.2 0 0-21.7 17.5-22.1 17.8 0 .1.3 6.1.5 9.6.1.1.2.1.2.2-.2-3.2-.5-9.6-.5-9.7.4-.3 22-17.8 22-17.8 15.7-13.3 42.4-39.2 42.4-39.3 0 0 .1-.7.1-.8l-.3-.5-5.7-5.7-35.1-35.2-2.5-2.6-2.4-2.7c.6.4 3.2 2.4 3.2 2.4l.6.5c4.7 3.8 5.3 4.3 5.4 4.3h-.1c1.3 1 2.6 2.1 6.1 5.5 9.8 9.4 27 25.8 34.8 33.3v-.3c-7.9-7.5-25.1-23.9-34.6-33.1-3.5-3.4-4.8-4.5-6.1-5.5l-5.9-4.8c.1 0-3.8-3-4.8-3.7m17.3 87.2c-.4.4-.9.8-1.3 1.1 0 0-15.6 14-25.1 22.4 1.4-1.1 3-2.5 5-4.2 4.5-4.1 9.5-8.5 13.4-12 2.5-2.2 5.1-4.6 8-7.3m34-34.9C141 76.3 127 91.4 116.2 102c2.6-2.5 5-4.8 7.2-6.9 9-9.2 18.3-19.2 21.7-22.9v-.3M95.4 21c.9 1 2.4 2.7 2.4 2.7l2.5 2.6 35.1 35.2 5.7 5.7.3.5c0 .2-.1.8-.1.8-.1.1-26.8 26-42.4 39.3 0 0-21.6 17.4-22 17.8 0 .1.4 6.4.5 9.7.1 0 .1.1.1.1h.2c-.2-2.9-.6-9.5-.6-9.6.4-.4 21.9-17.8 21.9-17.8 16.1-13.6 42.5-39.4 42.5-39.5l.1-.9v-.1l-.3-.5-5.7-5.7-35.1-35.2-2.5-2.5s-.5-.6-1-1.1c.7.5 1.5 1.1 1.5 1.1s5.6 4.5 5.9 4.8c1.3 1 2.6 2.1 6.1 5.5 9.8 9.5 27.2 26 34.9 33.4V67c-7.8-7.4-25-23.8-34.8-33.3-3.5-3.4-4.8-4.5-6.1-5.5h.1c-.1 0-.7-.5-5.4-4.3l-.6-.5s-2.7-2-3.2-2.4" fill="#fde500" fill-rule="nonzero"/>
    </g>
  </g>
  <g transform="translate(-.182 53.511) scale(2.8243)">
    <clipPath id="L">
      <path d="M77.6 2.2h.1-.1m67.8 62.4c-4-4.5-12.5-13.6-32-31.6C83.9 5.5 78.5 2.6 77.7 2.2c-.8.3-6.2 3.2-35.3 30.7-14.8 14-25.3 24.3-31.4 30.7-2.6 2.8-4.4 4.9-4.6 5.2.5 1 4.7 6.9 36.4 36.3 13.6 12.6 23.6 21.5 29.7 26.5.9.7 5 3.9 5 3.9h.2c.4-.1 5.1-1.8 35.9-30.8 19-17.9 27.5-26.9 31.6-31.5l.2-8.6M6.2 69.3c.1-.2.1-.4.1-.5l-.1.5"/>
    </clipPath>
    <g clip-path="url(#L)">
      <path d="M145.2 71.6c-4.7 5-24.5 26.6-35.4 36.2 0 0-19 17-27.7 24.7.8-.6 1.7-1.3 2.7-2.1 9.5-8.4 25.1-22.4 25.1-22.4.4-.4.8-.7 1.3-1.1l2.4-2.2c.9-.9 1.9-1.7 2.7-2.6 10.8-10.5 24.8-25.7 28.9-30.1v-.4M97 22.5c.5.5 1 1.1 1 1.1l2.5 2.6 35.1 35.2 5.7 5.7.3.5v.1l-.1.9c0 .1-26.4 25.8-42.5 39.5 0 0-21.5 17.4-21.9 17.7 0 .1.4 6.7.6 9.6 0 0 .1 0 .2-.1-.1-2.5-.6-9.4-.6-9.4.4-.3 21.8-17.6 21.8-17.6 15.3-13 42.4-39.3 42.6-39.6l.1-.9v-.2l-.3-.5-5.7-5.7L100.6 26s-1-1.1-1.8-1.8c.8.7 5.4 4.4 5.4 4.4 1.3 1 2.6 2.1 6 5.5 9.9 9.6 27.4 26.2 35.1 33.5v-.3c-7.7-7.4-25.1-23.9-34.9-33.4-3.5-3.4-4.8-4.4-6.1-5.5-.3-.3-5.9-4.8-5.9-4.8s-.7-.6-1.4-1.1" fill="#fce500" fill-rule="nonzero"/>
    </g>
  </g>
  <g transform="translate(-.182 53.511) scale(2.8243)">
    <clipPath id="M">
      <path d="M77.6 2.2h.1-.1m67.8 62.4c-4-4.5-12.5-13.6-32-31.6C83.9 5.5 78.5 2.6 77.7 2.2c-.8.3-6.2 3.2-35.3 30.7-14.8 14-25.3 24.3-31.4 30.7-2.6 2.8-4.4 4.9-4.6 5.2.5 1 4.7 6.9 36.4 36.3 13.6 12.6 23.6 21.5 29.7 26.5.9.7 5 3.9 5 3.9h.2c.4-.1 5.1-1.8 35.9-30.8 19-17.9 27.5-26.9 31.6-31.5l.2-8.6M6.2 69.3c.1-.2.1-.4.1-.5l-.1.5"/>
    </clipPath>
    <g clip-path="url(#M)">
      <path d="M145.2 71.3c-4.4 4.7-24.6 26.7-35.6 36.3 0 0-22.3 19.9-29.3 26.2.5-.4 1.1-.8 1.8-1.3 8.6-7.7 27.7-24.7 27.7-24.7 11-9.6 30.7-31.2 35.4-36.2v-.3M98.8 24.2c.7.8 1.8 1.8 1.8 1.8l35.1 35.2 5.7 5.7.3.5v.2l-.1.9c-.1.3-27.3 26.6-42.6 39.6 0 0-21.4 17.3-21.8 17.6 0 .1.4 6.9.6 9.4l.2-.1c-.1-2-.6-9.1-.6-9.2.4-.3 21.8-17.6 21.8-17.6 15.4-13.1 42.5-39.4 42.6-39.7l.1-1v-.1l-.1-.2-.4-.6-5.7-5.7c-19.8-19.8-31.2-31.3-34.3-34.3 1.1.9 2.5 2 2.5 2 1.2 1 2.5 2.1 6 5.4 10.1 9.7 27.7 26.5 35.2 33.6v-.3c-7.6-7.3-25.2-24-35.1-33.5-3.5-3.4-4.8-4.4-6-5.5.2.3-4.4-3.5-5.2-4.1m46.4 46.7c-4.1 4.3-24.6 26.7-35.8 36.5 0 0-26 23.2-30.5 27.2.3-.2.8-.5 1.3-.9 7.1-6.3 29.3-26.2 29.3-26.2 11-9.7 31.2-31.7 35.6-36.3l.1-.3m-43.6-44.2 40 40 .4.6.1.2v.1l-.1 1c-.1.3-27.2 26.7-42.6 39.7 0 0-21.4 17.2-21.8 17.6 0 .1.5 7.2.6 9.2l.2-.1c-.1-1.3-.6-8.9-.6-9 .4-.3 21.7-17.5 21.7-17.5 15.5-13.1 42.6-39.6 42.7-39.9l.1-1v-.1l-.1-.2-.4-.6s-34.2-34.3-37-37.1c1.1.9 2.5 2.1 5.3 4.8 10 9.7 27.8 26.7 35.3 33.8v-.3c-7.5-7.2-25.1-23.9-35.2-33.6-3.5-3.4-4.8-4.4-6-5.4-.1-.2-1.5-1.3-2.6-2.2" fill="#fbe500" fill-rule="nonzero"/>
    </g>
  </g>
  <g transform="translate(-.182 53.511) scale(2.8243)">
    <clipPath id="N">
      <path d="M77.6 2.2h.1-.1m67.8 62.4c-4-4.5-12.5-13.6-32-31.6C83.9 5.5 78.5 2.6 77.7 2.2c-.8.3-6.2 3.2-35.3 30.7-14.8 14-25.3 24.3-31.4 30.7-2.6 2.8-4.4 4.9-4.6 5.2.5 1 4.7 6.9 36.4 36.3 13.6 12.6 23.6 21.5 29.7 26.5.9.7 5 3.9 5 3.9h.2c.4-.1 5.1-1.8 35.9-30.8 19-17.9 27.5-26.9 31.6-31.5l.2-8.6M6.2 69.3c.1-.2.1-.4.1-.5l-.1.5"/>
    </clipPath>
    <g clip-path="url(#N)">
      <path d="M104.7 29.5c2.8 2.8 37 37.1 37 37.1l.4.6.1.2v.1l-.1 1c-.1.3-27.2 26.8-42.7 39.9 0 0-21.3 17.2-21.7 17.5 0 .1.6 7.7.6 9 .2-.1.4-.2.6-.4 4.4-3.9 30.5-27.2 30.5-27.2 11.1-9.8 31.7-32.3 35.8-36.5v-.3c-3.7 3.8-24.6 26.8-35.9 36.7 0 0-30.4 27.1-30.7 27.4 0-.4-.6-8.5-.6-8.6.4-.3 21.6-17.5 21.6-17.5 15.5-13.2 42.7-39.7 42.8-40l.1-1v-.2l-.1-.3-.4-.6s-19.9-20-28.4-28.5c10.8 10.4 26.6 25.4 31.8 30.4V68c-7.6-7-25.4-24-35.4-33.7-2.9-2.7-4.2-3.9-5.3-4.8" fill="#fae500" fill-rule="nonzero"/>
    </g>
  </g>
  <g transform="translate(-.182 53.511) scale(2.8243)">
    <clipPath id="O">
      <path d="M77.6 2.2h.1-.1m67.8 62.4c-4-4.5-12.5-13.6-32-31.6C83.9 5.5 78.5 2.6 77.7 2.2c-.8.3-6.2 3.2-35.3 30.7-14.8 14-25.3 24.3-31.4 30.7-2.6 2.8-4.4 4.9-4.6 5.2.5 1 4.7 6.9 36.4 36.3 13.6 12.6 23.6 21.5 29.7 26.5.9.7 5 3.9 5 3.9h.2c.4-.1 5.1-1.8 35.9-30.8 19-17.9 27.5-26.9 31.6-31.5l.2-8.6M6.2 69.3c.1-.2.1-.4.1-.5l-.1.5"/>
    </clipPath>
    <g clip-path="url(#O)">
      <path d="M113.4 38c8.5 8.5 28.4 28.5 28.4 28.5l.4.6.1.3v.2l-.1 1c-.1.3-27.2 26.8-42.8 40 0 0-21.2 17.1-21.6 17.5 0 .1.6 8.2.6 8.6.4-.3 30.7-27.4 30.7-27.4 11.3-9.9 32.3-32.9 35.9-36.7v-.3c-3.1 3.2-24.6 26.8-36.1 36.8 0 0-30 26.8-30.4 27.1 0-.4-.6-8-.6-8.1.4-.3 21.5-17.4 21.5-17.4 15.6-13.3 42.8-39.9 42.9-40.2l.1-1.1-.2-.6-.4-.6-.1-.1s-9.6-9.6-16-16.1c6.1 5.8 17.9 17.1 19.3 18.5v-.3c-4.9-4.8-20.7-19.8-31.6-30.2" fill="#fae400" fill-rule="nonzero"/>
    </g>
  </g>
  <g transform="translate(-.182 53.511) scale(2.8243)">
    <clipPath id="P">
      <path d="M77.6 2.2h.1-.1m67.8 62.4c-4-4.5-12.5-13.6-32-31.6C83.9 5.5 78.5 2.6 77.7 2.2c-.8.3-6.2 3.2-35.3 30.7-14.8 14-25.3 24.3-31.4 30.7-2.6 2.8-4.4 4.9-4.6 5.2.5 1 4.7 6.9 36.4 36.3 13.6 12.6 23.6 21.5 29.7 26.5.9.7 5 3.9 5 3.9h.2c.4-.1 5.1-1.8 35.9-30.8 19-17.9 27.5-26.9 31.6-31.5l.2-8.6M6.2 69.3c.1-.2.1-.4.1-.5l-.1.5"/>
    </clipPath>
    <g clip-path="url(#P)">
      <path d="M125.9 50.2c6.4 6.5 16 16.1 16 16.1l.1.1.4.6.2.6-.1 1.1c-.1.3-27.3 26.9-42.9 40.2 0 0-21.1 17-21.5 17.4 0 .1.6 7.6.6 8.1.4-.3 30.4-27.1 30.4-27.1 11.4-10.1 32.9-33.6 36.1-36.8v-.3c-2.4 2.4-24.6 26.8-36.2 37 0 0-29.7 26.5-30 26.8 0-.4-.6-7.4-.6-7.5.4-.3 21.5-17.3 21.5-17.3 15.7-13.3 42.8-40 42.9-40.3l.1-1.1-.2-.6c-.3-.4-.4-.6-.4-.6l-3.8-3.8c1.9 1.8 6.6 6.3 6.8 6.5V69c-1.5-1.7-13.3-12.9-19.4-18.8" fill="#fae200" fill-rule="nonzero"/>
    </g>
  </g>
  <g transform="translate(-.182 53.511) scale(2.8243)">
    <clipPath id="Q">
      <path d="M77.6 2.2h.1-.1m67.8 62.4c-4-4.5-12.5-13.6-32-31.6C83.9 5.5 78.5 2.6 77.7 2.2c-.8.3-6.2 3.2-35.3 30.7-14.8 14-25.3 24.3-31.4 30.7-2.6 2.8-4.4 4.9-4.6 5.2.5 1 4.7 6.9 36.4 36.3 13.6 12.6 23.6 21.5 29.7 26.5.9.7 5 3.9 5 3.9h.2c.4-.1 5.1-1.8 35.9-30.8 19-17.9 27.5-26.9 31.6-31.5l.2-8.6M6.2 69.3c.1-.2.1-.4.1-.5l-.1.5"/>
    </clipPath>
    <g clip-path="url(#Q)">
      <path d="m138.4 62.4 3.8 3.8c.1.1.2.2.4.6l.2.6-.1 1.1c-.1.3-27.3 27-42.9 40.3 0 0-21.1 17-21.5 17.3 0 .1.6 7.1.6 7.5.4-.3 30-26.8 30-26.8 11.6-10.2 33.8-34.6 36.2-37v-.4c0 .1-.1.1-.2.2-2.4 2.4-24.7 26.8-36.2 37 0 0-29.3 26.2-29.7 26.5 0-.4-.6-6.8-.6-6.9.6-.2 21.6-17.1 21.6-17.1 15.7-13.3 42.9-40.1 43-40.5l.1-1.2-.1-.3-.1-.1c.7.6 2.2 2.1 2.2 2.1.1.1.1.1.1.2V69c-.2-.3-4.9-4.7-6.8-6.6" fill="#f9e000" fill-rule="nonzero"/>
    </g>
  </g>
  <g transform="translate(-.182 53.511) scale(2.8243)">
    <clipPath id="R">
      <path d="M77.6 2.2h.1-.1m67.8 62.4c-4-4.5-12.5-13.6-32-31.6C83.9 5.5 78.5 2.6 77.7 2.2c-.8.3-6.2 3.2-35.3 30.7-14.8 14-25.3 24.3-31.4 30.7-2.6 2.8-4.4 4.9-4.6 5.2.5 1 4.7 6.9 36.4 36.3 13.6 12.6 23.6 21.5 29.7 26.5.9.7 5 3.9 5 3.9h.2c.4-.1 5.1-1.8 35.9-30.8 19-17.9 27.5-26.9 31.6-31.5l.2-8.6M6.2 69.3c.1-.2.1-.4.1-.5l-.1.5"/>
    </clipPath>
    <g clip-path="url(#R)">
      <path d="M79.4 132.8c0-.4-.5-4.9-.5-4.9l-.1-1.5c.7-.6 21.1-17 21.3-17.2 15.8-13.4 43-40.3 43.1-40.6 0 0 0-.8.1-1 .5.5 1.7 1.6 1.7 1.6l.1.2-.1.2-4.2 4.4c-7.5 8-23 24.6-32 32.5-.1.2-29.1 26-29.4 26.3M142.9 67l.1.1.1.3-.1 1.2c-.1.3-27.3 27.1-43 40.5 0 0-21 16.9-21.4 17.3 0 .1.6 6.5.6 6.9.4-.3 29.7-26.5 29.7-26.5 11.6-10.2 33.8-34.6 36.2-37l.2-.2v-.3l-.1-.2c-.1 0-1.6-1.5-2.3-2.1" fill="#f9de00" fill-rule="nonzero"/>
    </g>
  </g>
  <g transform="translate(-.182 53.511) scale(2.8243)">
    <clipPath id="S">
      <path d="M77.6 2.2h.1-.1m67.8 62.4c-4-4.5-12.5-13.6-32-31.6C83.9 5.5 78.5 2.6 77.7 2.2c-.8.3-6.2 3.2-35.3 30.7-14.8 14-25.3 24.3-31.4 30.7-2.6 2.8-4.4 4.9-4.6 5.2.5 1 4.7 6.9 36.4 36.3 13.6 12.6 23.6 21.5 29.7 26.5.9.7 5 3.9 5 3.9h.2c.4-.1 5.1-1.8 35.9-30.8 19-17.9 27.5-26.9 31.6-31.5l.2-8.6M6.2 69.3c.1-.2.1-.4.1-.5l-.1.5"/>
    </clipPath>
    <g clip-path="url(#S)">
      <path d="M79.6 132.4c0-.9-.5-4.3-.5-4.3s-.1-1.4-.1-1.5c.4-.4 21.2-17.1 21.2-17.1C116 96 143.3 69 143.4 68.7v-.6c.9.9 1.3 1.2 1.4 1.3h-.1l.1.1c-4 4.3-4.2 4.5-4.2 4.5-7.5 8-23 24.6-32 32.5 0 0-28.7 25.6-29 25.9m63.6-64.8c0 .2-.1 1-.1 1-.1.3-27.3 27.2-43.1 40.6-.2.2-20.6 16.6-21.3 17.2l.1 1.5s.5 4.5.5 4.9c.3-.3 29.3-26.2 29.3-26.2 9-7.9 24.5-24.5 32-32.5l4.2-4.4.1-.2-.1-.2c.1-.1-1.1-1.2-1.6-1.7" fill="#f8dd00" fill-rule="nonzero"/>
    </g>
  </g>
  <g transform="translate(-.182 53.511) scale(2.8243)">
    <clipPath id="T">
      <path d="M77.6 2.2h.1-.1m67.8 62.4c-4-4.5-12.5-13.6-32-31.6C83.9 5.5 78.5 2.6 77.7 2.2c-.8.3-6.2 3.2-35.3 30.7-14.8 14-25.3 24.3-31.4 30.7-2.6 2.8-4.4 4.9-4.6 5.2.5 1 4.7 6.9 36.4 36.3 13.6 12.6 23.6 21.5 29.7 26.5.9.7 5 3.9 5 3.9h.2c.4-.1 5.1-1.8 35.9-30.8 19-17.9 27.5-26.9 31.6-31.5l.2-8.6M6.2 69.3c.1-.2.1-.4.1-.5l-.1.5"/>
    </clipPath>
    <g clip-path="url(#T)">
      <path d="M100.4 109.6c15.8-13.4 43.1-40.5 43.2-40.8v-.2l.9.9c-.3.4-3.5 3.7-3.6 3.8l-.6.6c-7.5 8-23 24.6-32 32.5 0 0-28.3 25.3-28.6 25.6 0-.4-.6-5.1-.6-5.2L99.9 110l.5-.4m43-41.5v.6c-.1.3-27.4 27.3-43.2 40.7 0 0-20.8 16.8-21.2 17.1 0 .1.1 1.5.1 1.5s.4 3.4.5 4.3c.3-.3 29-25.9 29-25.9 9-7.9 24.5-24.5 32-32.5 0 0 .2-.2 4.2-4.5l-.1-.1h.1c-.1 0-.5-.3-1.4-1.2" fill="#f8db00" fill-rule="nonzero"/>
    </g>
  </g>
  <g transform="translate(-.182 53.511) scale(2.8243)">
    <clipPath id="U">
      <path d="M77.6 2.2h.1-.1m67.8 62.4c-4-4.5-12.5-13.6-32-31.6C83.9 5.5 78.5 2.6 77.7 2.2c-.8.3-6.2 3.2-35.3 30.7-14.8 14-25.3 24.3-31.4 30.7-2.6 2.8-4.4 4.9-4.6 5.2.5 1 4.7 6.9 36.4 36.3 13.6 12.6 23.6 21.5 29.7 26.5.9.7 5 3.9 5 3.9h.2c.4-.1 5.1-1.8 35.9-30.8 19-17.9 27.5-26.9 31.6-31.5l.2-8.6M6.2 69.3c.1-.2.1-.4.1-.5l-.1.5"/>
    </clipPath>
    <g clip-path="url(#U)">
      <path d="M143.6 68.6v.2c-.1.3-27.4 27.4-43.2 40.8 0 .1-.1.1-.3.3l-20.8 16.8c0 .1.6 4.8.6 5.2.3-.3 28.6-25.6 28.6-25.6 9-7.9 24.5-24.5 32-32.5l.6-.6s3.2-3.4 3.6-3.8c-.3-.1-.8-.6-1.1-.8" fill="#f8d900" fill-rule="nonzero"/>
    </g>
  </g>
  <path d="m382.228 296.683-.565.565-1.412-1.412c-.283.282-22.595 22.312-49.99 48.013s-101.393 90.378-106.476 93.484c-4.52 2.825-7.626 1.413-9.603 0s-6.214-4.8-15.534-12.427l-3.671-3.106c-8.473-6.779-21.465-18.923-33.045-29.655a407.398 407.398 0 0 0-14.121-12.71c-12.71-11.297-40.105-36.998-54.227-50.272-13.839-12.992-43.211-41.518-43.776-41.8l-1.977 2.26c.282.282 29.937 28.807 43.776 41.8 3.954 3.67 38.693 36.15 54.227 50.272 3.954 3.671 8.755 7.908 14.121 12.709 11.58 10.732 24.854 22.877 33.327 29.655l3.672 3.107c9.602 7.908 13.556 11.297 15.816 12.71 1.977 1.411 4.236 1.976 6.213 1.976l2.542-.282c1.13.565 3.954 2.542 5.366 3.389 1.695 1.13 4.237 2.824 9.885-.282 5.649-3.39 16.381-11.298 34.457-27.396s42.93-38.693 54.791-49.99 37.846-35.586 49.425-46.884c11.298-11.014 22.877-22.594 22.877-22.594l-16.098-1.13zm-257.576-158.16c6.778-6.496 30.22-28.808 53.096-49.426 18.64-16.663 32.197-27.678 35.304-29.937 3.39-2.26 5.931-3.107 9.32-1.13 0 0 7.061 4.519 18.076 13.839a113.846 113.846 0 0 0 9.038 7.343c8.473 7.06 17.228 14.404 24.854 21.747 5.648 5.366 14.968 13.84 24.006 22.03 7.626 7.06 14.969 13.556 19.77 18.075 10.168 9.603 28.808 26.549 29.09 26.831l2.26-2.542s-1.412-1.13-3.39-3.106h3.955l-1.13-1.413s-38.128-35.586-57.05-52.532-35.87-31.914-44.625-38.692-10.732-8.191-12.992-8.756l-2.824-.565c-4.519-3.389-7.06-5.083-7.343-5.083-5.931-3.672-11.015-.283-13.274 1.13-3.107 2.259-16.946 13.274-35.869 29.937-22.594 20.617-46.036 43.212-52.814 49.708-12.992 12.426-40.953 38.41-41.235 38.692l2.26 2.542c.564-.565 28.242-26.266 41.517-38.693zm48.86 131.612c15.251-12.71 19.205-22.312 18.358-33.61-.847-9.602-4.801-16.098-10.45-20.617-7.06-17.51-27.396-21.182-41.8-22.877-13.556-1.412-35.303-.564-49.99 0h-2.26v-18.358h-8.19v-10.45l-.847-2.541s-38.693 0-75.409 1.412H.1v140.085h14.121v7.06h36.434v-48.86h33.61v-28.807h-8.191v-13.84H50.09V204.33h36.434v118.055h14.121v7.061h35.021V280.02l28.243 46.883 2.542-2.26 3.107-2.541 5.366 8.755c10.168-8.19 28.808-25.983 28.808-25.983-3.39-3.954-6.778-7.908-10.167-11.58l-20.053-23.16zm-37.846-21.182V228.9h5.367c.847 1.412 1.13 3.107 1.13 5.084.282 5.366-2.543 10.45-6.497 14.969zm355.015 3.106 9.32-61.005-8.19-.564 1.13-7.908-35.87-2.825-3.953 68.63 11.862.566-19.488 15.816h-3.671V254.6l-3.954.283c-11.015.847-20.053.847-27.961.847l42.93-79.928c-4.237-.282-8.474-.565-12.71-.565l6.496-12.144-5.366-.283c-47.449-2.541-82.47-1.977-94.332-1.977h-1.412v30.22H244.12V180.04h-8.191v-13.275h-31.915l4.802 18.923-14.687 3.672.283 103.934h14.404v6.778h35.304v-71.737c1.977 0 4.518 0 7.343-.282v6.496h19.77v88.118h14.404v6.778h36.15V234.55h34.175v-29.373c10.732-.565 19.205-.847 25.983-.847l-45.47 87.835h20.052l-3.672 7.061h97.438V270.7l14.404 17.793 6.779-5.366 5.083 6.213 18.64-14.969-18.075-22.312h13.557z" fill="#020d00" fill-rule="nonzero"/>
  <path d="M232.822 169.872v120.315H197.52V191.62l15.25-3.671-4.8-18.076h24.853zM89.63 195.856c14.687-.565 36.151-1.695 49.708 0 17.228 1.977 39.54 6.496 41.517 30.785.847 11.297-3.107 21.182-19.205 34.174L193 297.53c-8.473 8.755-18.076 16.945-27.96 25.136l-37.282-62.135c8.19-6.496 17.793-15.533 17.793-26.266 0-10.45-9.885-15.251-13.274-15.251h-7.625v101.11H89.63v-124.27zM274.34 319.56v-95.179l-34.175.847v-31.35h104.5v31.35l-34.174-.847v95.18H274.34zm73.714-124.834v-31.067c11.862 0 46.318-.565 93.484 1.977l-49.99 92.92c10.732.282 25.984.564 46.883-.848v31.067h-97.438l49.143-95.179c-11.015.565-24.29.283-42.082 1.13z" fill="#e30613"/>
  <path d="M76.074 164.788v29.938H39.075v28.243l33.892-.282v28.807h-33.61v48.86H2.925V166.202l73.15-1.413z" fill="#e30613" fill-rule="nonzero"/>
  <path d="m456.224 245.563 23.725.848 9.602-61.005-29.373-2.542-3.954 62.7z" fill="#e30613"/>
  <path d="m449.418 265.43 18.434-14.935 14.935 18.434-18.434 14.935-14.935-18.434z" fill="#e30613" fill-rule="nonzero"/>
</svg>
