<svg viewBox="0 0 130 130" fill="none" xmlns="http://www.w3.org/2000/svg" height="1em" width="1em">
  <path fill="#fff" d="M0 0h130v130H0z"/>
  <path d="M65 130c35.899 0 65-29.101 65-65 0-35.898-29.101-65-65-65C29.102 0 0 29.102 0 65c0 35.899 29.102 65 65 65Z" fill="url(#a)"/>
  <path fill-rule="evenodd" clip-rule="evenodd" d="M47.206 85.752c-11.97 0-20.206-8.4-20.206-19.766v-.11C27 54.948 35.51 46 47.15 46c6.919 0 11.092 1.866 15.1 5.27l-5.326 6.424c-2.965-2.47-5.6-3.898-10.048-3.898-6.15 0-11.036 5.435-11.036 11.97v.11c0 7.028 4.83 12.19 11.64 12.19 3.075 0 5.82-.77 7.962-2.308V70.27H46.93v-7.304h16.692v16.693c-3.954 3.348-9.39 6.094-16.417 6.094l.001-.001Zm39.646 0c-11.09 0-19.272-8.73-19.272-19.823C67.58 54.95 75.706 46 87.017 46c6.973 0 11.147 2.47 14.99 6.094l-2.966 3.184c-3.239-3.075-6.863-5.27-12.079-5.27-8.51 0-14.88 6.863-14.88 15.812 0 8.951 6.424 15.924 14.88 15.924 5.272 0 8.731-2.032 12.41-5.545l2.854 2.8c-4.008 4.062-8.4 6.753-15.374 6.753" fill="#fff"/>
  <defs>
    <linearGradient id="a" x1="19.144" y1="0" x2="120.413" y2="127.028" gradientUnits="userSpaceOnUse">
      <stop stop-color="#0854B3"/>
      <stop offset="1" stop-color="#0047A6"/>
    </linearGradient>
  </defs>
</svg>
