<svg clip-rule="evenodd" fill-rule="evenodd" stroke-linejoin="round" stroke-miterlimit="2" viewBox="0 0 500 500" xml:space="preserve" xmlns="http://www.w3.org/2000/svg" height="1em" width="1em">
  <g transform="scale(.5)">
    <circle cx="500" cy="500" r="500" fill="url(#a)"/>
    <circle cx="500" cy="500" r="500" fill="url(#b)"/>
    <path d="M839.05 449.21h-.52l-61.12-61.11a11.767 11.767 0 0 1-3.47-8.33v-141c-.038-29.653-24.427-54.042-54.08-54.08h-38.17c-29.662.027-54.066 24.418-54.11 54.08v.81l-90.23-87.39c-21.155-20.28-55.094-19.998-75.91.63L155.87 458.41a54.017 54.017 0 0 0-15.893 38.26 54.02 54.02 0 0 0 15.813 38.18l.08.09L185 563.88c20.899 20.82 55.152 20.96 76.22.31L496 332.76c4.587-4.539 12.083-4.539 16.67 0l230.11 230.12c4.529 4.592 4.529 12.078 0 16.67l-28.28 28.28c-4.592 4.529-12.078 4.529-16.67 0L536.27 451.27c-21.161-20.414-55.257-20.119-76.06.66l-155 155.84c-20.869 21.003-20.869 55.417 0 76.42l28.7 28.69c20.929 20.844 55.242 20.934 76.28.2l83.58-82.59c4.592-4.529 12.078-4.529 16.67 0l83.11 81.7a11.675 11.675 0 0 1 3.53 8.33 11.852 11.852 0 0 1-3.47 8.34l-82.31 82.55c-.36 0-.67-.22-1.06-.22-16.926.005-30.85 13.934-30.85 30.86 0 16.929 13.931 30.86 30.86 30.86s30.86-13.931 30.86-30.86v-.52l82.69-82.67c10.146-10.144 15.852-23.918 15.852-38.265s-5.706-28.121-15.852-38.265l-.31-.31-83.11-81.67c-20.969-20.573-55.031-20.573-76 0l-83.86 82.7c-4.578 4.56-12.092 4.56-16.67 0l-28.64-28.72c-4.529-4.592-4.529-12.078 0-16.67l155.14-155.84c4.534-4.605 12.048-4.677 16.67-.16L668.55 638.6c21.14 20.37 55.157 20.124 76-.55l28.3-28.31c20.948-20.999 20.948-55.501 0-76.5L542.6 303c-20.904-20.83-55.166-20.978-76.25-.33L231.51 534.05c-4.6 4.502-12.06 4.502-16.66 0l-29-29.06c-4.56-4.578-4.56-12.092 0-16.67l305.59-305.56c4.543-4.582 12.04-4.645 16.66-.14l161.95 156.73V238.79c.033-6.463 5.347-11.768 11.81-11.79H720c6.478.016 11.807 5.332 11.84 11.81V380a54.641 54.641 0 0 0 15.83 38.25l60.81 60.81c0 .38-.22.69-.22 1.05.016 16.918 13.942 30.83 30.86 30.83 16.929 0 30.86-13.931 30.86-30.86s-13.931-30.86-30.86-30.86h-.03l-.04-.01z" fill="#fff" fill-rule="nonzero"/>
  </g>
  <defs>
    <radialGradient id="b" cx="0" cy="0" r="1" gradientTransform="matrix(500 0 0 500 500 500)" gradientUnits="userSpaceOnUse">
      <stop stop-opacity="0" offset="0"/>
      <stop stop-opacity=".1" offset="1"/>
    </radialGradient>
    <linearGradient id="a" x2="1" gradientTransform="matrix(0 1000 -1000 0 500 0)" gradientUnits="userSpaceOnUse">
      <stop stop-color="#57277c" offset="0"/>
      <stop stop-color="#491f59" offset="1"/>
    </linearGradient>
  </defs>
</svg>
