<svg version="1.1" id="hs-nav-v4--logo" xmlns="http://www.w3.org/2000/svg" xmlns:xlink="http://www.w3.org/1999/xlink" x="0" y="0" viewBox="0 0 163.4 163.4" style="enable-background:new 0 0 163.4 163.4" xml:space="preserve" height="1em" width="1em">
  <style>
    .st0{clip-path:url(#SVGID_00000117658615332664791460000008916444335611448491_)}.st1{clip-path:url(#SVGID_00000170963176407304097240000003223957760118805944_)}
  </style>
  <defs>
    <path id="SVGID_1_" d="M3.5 0h156.4v163.4H3.5z"/>
  </defs>
  <clipPath id="SVGID_00000129900282647991161990000002643156222905475241_">
    <use xlink:href="#SVGID_1_" style="overflow:visible"/>
  </clipPath>
  <g style="clip-path:url(#SVGID_00000129900282647991161990000002643156222905475241_)">
    <defs>
      <path id="SVGID_00000183958678691263006000000017414506049573160068_" d="M3.5 0h156.4v163.4H3.5z"/>
    </defs>
    <clipPath id="SVGID_00000166647472711176094320000008184988734664453544_">
      <use xlink:href="#SVGID_00000183958678691263006000000017414506049573160068_" style="overflow:visible"/>
    </clipPath>
    <g style="clip-path:url(#SVGID_00000166647472711176094320000008184988734664453544_)">
      <path d="M123.4 54.3V35.1c5.2-2.4 8.5-7.6 8.6-13.4v-.4c0-8.2-6.6-14.8-14.8-14.8h-.4c-8.2 0-14.8 6.6-14.8 14.8v.4c0 5.7 3.4 11 8.6 13.4v19.3c-7.3 1.1-14.2 4.2-20 8.8L37.5 22c2.4-9-2.9-18.3-12-20.7S7.2 4.2 4.8 13.2s2.9 18.3 12 20.7c4.3 1.2 8.9.6 12.8-1.7l52.1 40.5c-9.6 14.5-9.3 33.4.7 47.6l-15.8 15.8c-1.3-.4-2.6-.6-3.9-.6-7.6 0-13.8 6.2-13.8 13.8 0 7.6 6.2 13.8 13.8 13.8s13.7-6.2 13.7-13.8c0-1.3-.2-2.7-.6-3.9l15.7-15.7c18.5 14.2 45.1 10.6 59.2-7.9s10.6-45.1-7.9-59.2c-5.9-4.4-12.5-7.2-19.4-8.3m-6.5 63.5c-12 0-21.7-9.8-21.6-21.7 0-12 9.8-21.7 21.7-21.6 12 0 21.6 9.7 21.6 21.7 0 11.9-9.7 21.6-21.7 21.6" style="fill:#ff7a59"/>
    </g>
  </g>
</svg>
