<svg viewBox="0 0 512 512" xmlns="http://www.w3.org/2000/svg" height="1em" width="1em">
  <path d="M123.9 8.66c46.948 27.107 287.13 165.23 329.87 189.9 42.74 24.677 39.91 90.575 6.683 109.76-33.227 19.185-24.446 16.829-83.45 50.895-91.44 52.792-121.12-20.573-121.12-41.987 0-57.933 47.583-51.798 9.056-74.042-38.528-22.244-121.28-68.382-174.6-101.27-53.321-32.883-63.97-38.778-63.97-78.761s50.58-81.605 97.529-54.5z" fill="#13a7e1"/>
  <path d="M26.374 63.278v383.4c.788 36.288 30.183 65.3 66.48 65.32 36.289-.03 66.013-29.04 66.8-65.32v-330.71z" fill="#ff7d11"/>
  <path d="M159.65 170.14v38.788c-32.226-18.606-26.992-14.481-69.31-40.441-53.321-32.883-63.97-39.52-63.97-79.503V63.278c18.55 0 109.81 93.309 133.28 106.86z" fill="#6e7ba0"/>
  <path d="M123.9 8.66c43.844 25.314 35.751 47.913 35.751 174.44-32.226-18.605-26.992-14.48-69.31-40.44-53.321-32.883-63.97-39.52-63.97-79.503s50.581-81.605 97.529-54.5z" fill="#202945"/>
</svg>
