<svg viewBox="0 0.75 24 22.5" xmlns="http://www.w3.org/2000/svg" xml:space="preserve" style="fill-rule:evenodd;clip-rule:evenodd;stroke-linejoin:round;stroke-miterlimit:2" height="1em" width="1em">
  <path d="M96.05 33c.434.067.85.133 1.25.2l1.3.1c.2.034.4.05.6.05h1.25c.2 0 .4-.017.6-.05.367-.033.75-.083 1.15-.15.367-.066.75-.133 1.15-.2.367-.1.733-.217 1.1-.35h.1c.367-.133.7-.267 1-.4l1.1-.6a9.19 9.19 0 0 0 1-.7h.05c-.434.6-.883 1.167-1.35 1.7h-.05c-.5.5-1.017.967-1.55 1.4a46.01 46.01 0 0 1-1.7 1.05c-.633.3-1.267.55-1.9.75-.233.067-.467.15-.7.25l-.3.1a59.83 59.83 0 0 1-1.05.2c-.333.1-.684.183-1.05.25-.333.033-.683.083-1.05.15-.233 0-.483.033-.75.1-.233 0-.467.017-.7.05-.267 0-.517.017-.75.05-.267.033-.533.05-.8.05h-.75c-.267 0-.517.017-.75.05l-12.15-.25h-.8c-.267.034-.533.05-.8.05h-.85c-.267.033-.517.066-.75.1-.3 0-.583.017-.85.05-.233.033-.483.067-.75.1-.4.033-.783.083-1.15.15-.4.033-.8.083-1.2.15-.367.1-.75.2-1.15.3l-1.1.3c-.333.1-.684.217-1.05.35-.366.133-.733.283-1.1.45-.333.133-.683.284-1.05.45l-1 .6c-.3.167-.633.367-1 .6l-.9.7a12.05 12.05 0 0 0-1.75 1.7c-.3.3-.583.617-.85.95-.3.367-.567.733-.8 1.1-.267.367-.517.767-.75 1.2-.233.4-.467.816-.7 1.25-.233.467-.45.933-.65 1.4-.2.5-.383 1-.55 1.5l-.05.05c-.667-.566-1.3-1.117-1.9-1.65-.6-.533-1.15-1.05-1.65-1.55-.534-.533-1-1.067-1.4-1.6-.433-.5-.816-1-1.15-1.5a16.192 16.192 0 0 1-.95-1.55c-.267-.5-.483-.983-.65-1.45-.233-.5-.4-.983-.5-1.45a6.923 6.923 0 0 1-.25-1.4 8.95 8.95 0 0 1-.1-1.35c0-.433.033-.867.1-1.3.067-.433.167-.833.3-1.2.133-.4.283-.8.45-1.2.2-.4.4-.783.6-1.15.233-.333.483-.684.75-1.05.567-.667 1.2-1.283 1.9-1.85.333-.267.7-.533 1.1-.8.367-.267.767-.517 1.2-.75.4-.233.833-.45 1.3-.65.434-.2.883-.383 1.35-.55l1.5-.4c.467-.133.95-.267 1.45-.4.5-.1 1.017-.183 1.55-.25.533-.033 1.05-.067 1.55-.1h2.25c.233 0 .434.017.6.05.467.033.95.083 1.45.15.467.033.95.1 1.45.2.434.067.9.15 1.4.25.5.1.983.2 1.45.3.333.066.65.15.95.25.333.1.65.2.95.3.333.067.65.15.95.25.333.1.65.184.95.25.333.133.667.25 1 .35.333.1.633.2.9.3l8.45 3c.333.1.65.2.95.3l.9.3c.3.1.6.184.9.25.3.133.6.233.9.3.3.1.6.183.9.25.3.066.583.15.85.25l1.3.3c.433.1.867.183 1.3.25Z" style="fill:#007d44" transform="translate(-1.334 -4.944) scale(.2329)"/>
  <path d="m85.45 102.35-1-.1a7.965 7.965 0 0 1-.95-.15c-.6-.133-1.15-.3-1.65-.5a4.388 4.388 0 0 1-.35-.1h-.05c-.367-.2-.717-.4-1.05-.6h-.05a14.79 14.79 0 0 1-1.15-.851 12.135 12.135 0 0 1-.9-1c-.3-.366-.55-.733-.75-1.1a38.57 38.57 0 0 1-.55-1.25c-.1-.2-.167-.4-.2-.601a16.953 16.953 0 0 1-.2-.649c-.067-.2-.117-.4-.15-.601a35.554 35.554 0 0 0-.1-.649 4.662 4.662 0 0 1-.05-.65c-.033-.2-.05-.399-.05-.6a4.662 4.662 0 0 1-.05-.65v-.649c0-.167.017-.351.05-.551.033-.199.05-.399.05-.6.034-.3.067-.616.1-.95.067-.333.133-.649.2-.95a25.2 25.2 0 0 1 .2-1c.1-.333.184-.666.25-1l.2-.699c.1-.2.183-.4.25-.601.067-.233.15-.467.25-.7.1-.233.183-.449.25-.649.067-.233.167-.467.3-.7.1-.2.184-.417.25-.65l.3-.699c.1-.233.217-.45.35-.65.1-.233.2-.45.3-.65l5.3-10.3c.1-.233.217-.466.35-.7.1-.2.2-.417.3-.65.1-.233.2-.483.3-.75.1-.2.2-.417.3-.65l.3-.7c.1-.234.2-.45.3-.65l.2-.7c.1-.233.183-.467.25-.7.1-.2.183-.417.25-.65l.2-.7c.067-.233.117-.45.15-.65.066-.267.133-.517.2-.75l.2-1c.066-.333.117-.667.15-1l.1-1v-2.25c0-.433-.033-.833-.1-1.2 0-.4-.033-.8-.1-1.2l-.2-1.1c-.067-.4-.15-.783-.25-1.15a5.473 5.473 0 0 0-.3-1.05 3.852 3.852 0 0 0-.35-1.05c-.1-.333-.216-.667-.35-1a15.26 15.26 0 0 0-.9-1.8c-.367-.567-.75-1.1-1.15-1.6a7.99 7.99 0 0 0-1.3-1.3 6.23 6.23 0 0 0-1.5-1.1 5.724 5.724 0 0 0-1.65-.75c-.567-.2-1.167-.35-1.8-.45a9.987 9.987 0 0 0-1.4-.1l-.6.049c-.367 0-.717.033-1.05.1-.367.033-.75.1-1.15.2-.534.1-1.05.25-1.55.45a7.157 7.157 0 0 0-1.35.65c-.433.2-.833.434-1.2.7-.367.3-.7.6-1 .9a3.862 3.862 0 0 0-.85.95c-.233.3-.45.617-.65.95-.167.367-.317.717-.45 1.05A4.343 4.343 0 0 0 66.9 49c-.066.367-.1.717-.1 1.05.034.333.1.667.2 1 .067.333.183.65.35.95.133.3.316.583.55.85.567.667 1.017 1.283 1.35 1.85.367.633.617 1.216.75 1.75.133.533.183 1.033.15 1.5-.033.466-.15.9-.35 1.3a2.576 2.576 0 0 1-.75.95c-.333.3-.7.55-1.1.75a.631.631 0 0 0-.3.15c-.133 0-.25.017-.35.05-.1.033-.216.05-.35.05-.1.033-.217.05-.35.05h-.4a.56.56 0 0 1-.25-.05h-.35a5.428 5.428 0 0 1-.35-.1 2.632 2.632 0 0 1-.35-.15 4.388 4.388 0 0 0-.35-.1l-.3-.2a3.136 3.136 0 0 1-.35-.2.762.762 0 0 1-.3-.25 1.175 1.175 0 0 1-.3-.2c-.133-.1-.25-.2-.35-.3-.067-.1-.15-.217-.25-.35-.1-.1-.184-.2-.25-.3a7.22 7.22 0 0 1-.25-.35 2.576 2.576 0 0 1-.25-.4l-.2-.4a3.426 3.426 0 0 1-.15-.45l-.2-.5a2.795 2.795 0 0 0-.15-.5v-.1a1.45 1.45 0 0 0-.1-.45l-.1-1.2a7.272 7.272 0 0 1 0-1.2c0-.433.034-.833.1-1.2 0-.4.05-.783.15-1.15.067-.333.167-.683.3-1.05.066-.367.167-.717.3-1.05.133-.367.283-.7.45-1 .2-.333.383-.65.55-.95.367-.633.783-1.233 1.25-1.8.5-.566 1.033-1.1 1.6-1.6.567-.5 1.167-.95 1.8-1.35.3-.233.617-.434.95-.6.333-.2.667-.383 1-.55l1.1-.5 1.1-.4c.367-.167.75-.3 1.15-.4.367-.1.75-.2 1.15-.3.4-.1.817-.184 1.25-.25.4-.067.8-.117 1.2-.15.4-.067.816-.1 1.25-.1.4-.033.816-.05 1.25-.05.633 0 1.267.017 1.9.05.6.066 1.217.15 1.85.25l1.8.4c.567.167 1.133.35 1.7.55.566.2 1.117.45 1.65.75.533.233 1.05.5 1.55.8.5.3 1 .633 1.5 1 .434.333.883.7 1.35 1.1.433.4.833.816 1.2 1.25.4.433.783.883 1.15 1.35.333.467.65.967.95 1.5.3.5.567 1.034.8 1.6.267.567.483 1.15.65 1.75.2.6.367 1.217.5 1.85s.233 1.283.3 1.95c.067.667.1 1.35.1 2.05 0 .5-.017 1.017-.05 1.55 0 .5-.033.983-.1 1.45-.1.467-.183.933-.25 1.4l-.3 1.4-.4 1.3c-.133.433-.283.85-.45 1.25a14.3 14.3 0 0 1-.55 1.25c-.167.4-.35.783-.55 1.15l-.6 1.2c-.233.333-.467.683-.7 1.05-.233.367-.467.717-.7 1.05-.267.367-.517.733-.75 1.101a75.4 75.4 0 0 1-.55.649c-.133.233-.3.45-.5.65-.167.233-.35.467-.55.7a75.4 75.4 0 0 1-.55.649l-.5.601c-.2.233-.383.449-.55.649l-4.9 5.4c-.2.2-.383.399-.55.6-.133.2-.283.4-.45.601a8.555 8.555 0 0 1-.5.55 25.8 25.8 0 0 0-1.25 1.85c-.433.601-.8 1.217-1.1 1.851-.2.3-.367.616-.5.949-.133.334-.25.667-.35 1a4.572 4.572 0 0 0-.3.95c-.1.367-.183.717-.25 1.05-.033.134-.066.284-.1.45 0 .167-.017.316-.05.45 0 .134-.017.283-.05.45v1.5c0 .166.017.333.05.5.033.2.05.383.05.55.067.167.117.333.15.5.033.167.066.35.1.55.067.134.133.3.2.5.033.167.1.334.2.5l.2.5c.1.167.184.334.25.5.2.334.434.667.7 1 .233.334.517.65.85.95.3.267.65.55 1.05.85.4.267.817.534 1.25.801.467.233.95.465 1.45.699Zm-27.9-48.5c-1-.167-1.966-.283-2.9-.35a25.878 25.878 0 0 0-1.6-.05c-.367-.034-.75-.05-1.15-.05h-.1c-.867 0-1.683.033-2.45.1-.8.067-1.583.15-2.35.25-.733.133-1.45.283-2.15.45-.7.167-1.383.367-2.05.6-.633.2-1.25.434-1.85.7-.6.267-1.167.567-1.7.9-.533.3-1.05.617-1.55.95-.5.367-.967.75-1.4 1.15-.4.4-.8.833-1.2 1.3-.4.434-.783.883-1.15 1.35-.333.434-.65.917-.95 1.45-.267.5-.55 1.017-.85 1.55-.233.533-.45 1.083-.65 1.65-.233.567-.433 1.15-.6 1.75-.167.6-.316 1.2-.45 1.8-.134.6-.25 1.217-.35 1.85a18.956 18.956 0 0 0-.3 1.899c-.033.667-.066 1.317-.1 1.95-.034.7-.034 1.367 0 2v2.05l.2 2.101c.067.666.15 1.35.25 2.05.067.7.167 1.4.3 2.1.133.7.267 1.384.4 2.051.167.733.333 1.433.5 2.1.167.7.333 1.384.5 2.05.2.7.417 1.384.65 2.05.2.7.417 1.367.65 2 .233.667.483 1.334.75 2l.8 1.9c.233.634.5 1.267.8 1.9.267.6.567 1.199.9 1.8l.9 1.7c.3.566.617 1.116.95 1.649.3.533.617 1.05.95 1.55.333.534.667 1.034 1 1.5.333.467.667.917 1 1.351.367.434.716.866 1.05 1.3.333.366.683.733 1.05 1.1.333.367.667.717 1 1.051.367.3.733.583 1.1.85.333.267.684.517 1.05.75.333.2.683.4 1.05.6.333.167.667.301 1 .4.333.099.683.184 1.05.25.333.066.65.1.95.1h1.3l.6-.1c.2 0 .4-.017.6-.05.167-.033.367-.05.6-.05l.5-.101c.167-.033.35-.066.55-.1a2.88 2.88 0 0 1 .5-.15c.167-.033.317-.083.45-.149.267-.067.517-.134.75-.2.233-.101.45-.184.65-.25.2-.101.417-.2.65-.3.2-.101.383-.184.55-.25.2-.134.383-.25.55-.351.2-.1.383-.2.55-.3.167-.134.317-.25.45-.35.167-.101.333-.217.5-.351.167-.1.317-.217.45-.35.133-.134.267-.25.4-.351.133-.133.267-.25.4-.35.133-.1.267-.217.4-.35l1.6-1.601.55-.55c.133-.066.233-.134.3-.2l.3-.2c.1-.066.184-.133.25-.199l.3-.15.2-.1c.1 0 .217-.017.35-.051h.5a.437.437 0 0 0 .2.051l.2.1.2.1a.752.752 0 0 0 .2.15l.2.2a.752.752 0 0 1 .15.2l.2.199a.609.609 0 0 0 .15.25c.1.101.167.2.2.301l1.5 2.55c.1.1.183.217.25.35.066.101.15.2.25.3.066.134.15.25.25.351.1.133.183.25.25.35l.3.3c.067.101.15.217.25.351.133.1.25.184.35.25.1.133.2.233.3.3.1.1.233.2.4.3v.05c.1.034.2.101.3.2.133.066.283.134.45.2l.4.2c.133.066.283.133.45.2.133.033.283.083.45.149.1.033.233.066.4.101l.4.1c.133 0 .283.017.45.05.133.033.283.05.45.05l.5.101h1.1c.167-.033.333-.066.5-.101.2 0 .383-.017.55-.05.2-.033.4-.083.6-.149.367-.101.767-.25 1.2-.45.367-.167.75-.384 1.15-.65a.786.786 0 0 0 .2-.149c.236-.185.461-.367.675-.551l.175-.149a.752.752 0 0 0-.15.2.357.357 0 0 1-.05.074l-.025.025a.307.307 0 0 1-.075.05 4.5 4.5 0 0 1-.35.5 1.69 1.69 0 0 1-.4.45c-.105.132-.213.265-.325.4a2.888 2.888 0 0 1-.075.1l-.45.45a5.348 5.348 0 0 0-.4.45 11.71 11.71 0 0 1-1.05.75c-.333.267-.7.5-1.1.699-.433.2-.867.367-1.3.5-.467.167-.95.284-1.45.351-.533.1-1.1.149-1.7.149a2.35 2.35 0 0 1-.45-.05 1.66 1.66 0 0 1-.4-.05 1.66 1.66 0 0 1-.4-.05c-.133-.033-.267-.066-.4-.101a1.969 1.969 0 0 1-.4-.149 1.122 1.122 0 0 1-.35-.15 1.969 1.969 0 0 1-.4-.149 1.146 1.146 0 0 1-.35-.15 3.302 3.302 0 0 1-.35-.2 7.025 7.025 0 0 1-.35-.25 3.486 3.486 0 0 0-.35-.2l-.3-.199a6.588 6.588 0 0 0-.35-.25 1.288 1.288 0 0 1-.3-.301l-1.9-1.449c-.1-.101-.2-.184-.3-.25l-.3-.2-.3-.2a3.093 3.093 0 0 1-.3-.25 40.799 40.799 0 0 1-.3-.15l-.3-.149a2.772 2.772 0 0 0-.35-.15 1.27 1.27 0 0 1-.3-.149 4.673 4.673 0 0 0-.35-.101.953.953 0 0 0-.3-.05 1.382 1.382 0 0 0-.3-.05 1.484 1.484 0 0 0-.35-.05c-.133 0-.25.017-.35.05-.1 0-.217.017-.35.05-.1 0-.216.017-.35.05-.1.033-.2.066-.3.101-.1.033-.217.066-.35.1-.1.066-.2.116-.3.15a2.75 2.75 0 0 0-.35.149c-.1.066-.2.117-.3.15-.133.066-.25.133-.35.2l-.3.199-2.9 1.801a2.502 2.502 0 0 0-.4.25 5.858 5.858 0 0 1-.45.199 2.502 2.502 0 0 1-.4.25 5.481 5.481 0 0 1-.45.2 5.843 5.843 0 0 1-.45.2c-.167.033-.333.1-.5.2-.133.066-.3.116-.5.149a1.844 1.844 0 0 0-.45.15c-.2.066-.383.116-.55.15-.2.033-.383.066-.55.1a3.4 3.4 0 0 1-.55.05c-.2.066-.4.101-.6.101-.2 0-.417.017-.65.05h-.6c-1.1 0-2.2-.05-3.3-.15a48.279 48.279 0 0 1-3.15-.399 80.411 80.411 0 0 1-3.05-.75 28.745 28.745 0 0 1-3-.95 40.517 40.517 0 0 1-2.75-1.2 26.35 26.35 0 0 1-2.7-1.45c-.9-.533-1.75-1.083-2.55-1.649a31.546 31.546 0 0 1-2.45-1.851c-.8-.633-1.567-1.3-2.3-2-.733-.7-1.45-1.434-2.15-2.2a33.417 33.417 0 0 1-2.05-2.35c-.667-.8-1.3-1.616-1.9-2.45a113.83 113.83 0 0 1-1.75-2.6c-.567-.9-1.1-1.8-1.6-2.7a37.462 37.462 0 0 1-1.5-2.8 73.96 73.96 0 0 1-1.35-2.851c-.4-.933-.783-1.899-1.15-2.899-.367-1-.7-2-1-3a43.594 43.594 0 0 1-.9-2.95 187.694 187.694 0 0 1-.75-3 95.537 95.537 0 0 1-1-6c-.1-1-.167-1.983-.2-2.95a42.54 42.54 0 0 1-.1-2.9c0-.933.017-1.867.05-2.8.033-.937.117-1.854.25-2.754.066-.9.183-1.783.35-2.65.167-.867.367-1.717.6-2.55.2-.833.434-1.633.7-2.4.267-.8.567-1.567.9-2.3.333-.733.7-1.45 1.1-2.15.4-.667.817-1.3 1.25-1.9.433-.633.917-1.233 1.45-1.8.5-.533 1.033-1.05 1.6-1.55a25.577 25.577 0 0 1 1.8-1.35c.6-.4 1.267-.75 2-1.05a11.693 11.693 0 0 1 2.1-.9c.767-.233 1.55-.433 2.35-.6.667-.133 1.35-.217 2.05-.25.667-.066 1.35-.1 2.05-.1h1.2c.933.067 1.9.167 2.9.3 1.033.167 2.083.367 3.15.6 1.067.267 2.167.583 3.3.95 1.133.4 2.3.85 3.5 1.35 1.2.467 2.433 1.017 3.7 1.65 1.3.6 2.617 1.3 3.95 2.1a75.66 75.66 0 0 1 3 1.75c.066.033.15.083.25.15.267.167.55.35.85.55.7.4 1.383.833 2.05 1.3l.3.2c.1.066.217.133.35.2l.75.525c.302.206.602.431.9.675Zm20.9 49.3c.4.066.783.183 1.15.35.367.134.717.316 1.05.55.333.233.65.483.95.75.267.3.517.617.75.95.233.333.417.684.55 1.05.167.367.283.75.35 1.15.1.399.15.816.15 1.25 0 .566-.066 1.116-.2 1.649a7.52 7.52 0 0 1-.65 1.5 8.169 8.169 0 0 1-.95 1.25c-.4.367-.817.684-1.25.95a7.571 7.571 0 0 1-1.5.65 6.79 6.79 0 0 1-1.65.2 6.79 6.79 0 0 1-1.65-.2 7.63 7.63 0 0 1-1.5-.65 8.267 8.267 0 0 1-1.25-.95 8.169 8.169 0 0 1-.95-1.25 7.52 7.52 0 0 1-.65-1.5 6.788 6.788 0 0 1-.2-1.649c0-.566.067-1.117.2-1.65a7.571 7.571 0 0 1 .65-1.5c.267-.434.583-.85.95-1.25.4-.366.817-.684 1.25-.95a7.51 7.51 0 0 1 1.5-.649 6.747 6.747 0 0 1 1.65-.2c.433-.001.85.049 1.25.149Z" style="fill:#c01d20" transform="translate(-1.334 -4.944) scale(.2329)"/>
  <path d="m43.1 24.6.1.15.1.3.15.3c.066.066.133.183.2.35l.2.3c.1.133.183.283.25.45.066.133.167.267.3.4.1.133.2.283.3.45.1.133.216.267.35.4.1.133.217.267.35.4.233.267.5.517.8.75.3.233.6.417.9.55-.167.3-.333.667-.5 1.1-.133.4-.25.833-.35 1.3-.067.5-.1 1.017-.1 1.55-.033.566-.017 1.167.05 1.8.033.6.133 1.233.3 1.9.067.333.15.667.25 1 .067.367.167.717.3 1.05.1.333.233.683.4 1.05.133.333.283.684.45 1.05.167.367.35.716.55 1.05.2.367.417.733.65 1.1.233.367.467.717.7 1.05l.8 1.1.95 1.05c.3.333.617.667.95 1 .367.333.733.684 1.1 1.05l1.2 1c.434.333.883.65 1.35.95.434.333.9.65 1.4.95a40.4 40.4 0 0 1-2.9-1.6 21.194 21.194 0 0 1-2.55-1.7 34.836 34.836 0 0 1-2.35-1.95c-.7-.633-1.35-1.3-1.95-2a29.85 29.85 0 0 1-1.7-2.15c-.5-.767-.95-1.533-1.35-2.3a15.64 15.64 0 0 1-1.1-2.4c-.333-.8-.583-1.617-.75-2.45-.2-.833-.35-1.684-.45-2.55-.1-.867-.15-1.733-.15-2.6 0-.9.067-1.8.2-2.7a29.84 29.84 0 0 1 .55-2.7l.05.2Z" style="fill:#141754" transform="translate(-1.334 -4.944) scale(.2329)"/>
  <path d="M58.2 78.7c.066 0 .133.017.2.05h.3c.133.033.25.066.35.1a2.902 2.902 0 0 1 .7.25c.1 0 .183.034.25.101.1.033.183.066.25.1.067.066.15.134.25.2a.768.768 0 0 1 .2.15.765.765 0 0 0 .15.199l.2.2.15.15a.785.785 0 0 0 .15.2c0 .066.033.133.1.199a.635.635 0 0 1 .1.15l.1.15.05.101.05.15.05.1v.05l-.25.15-.7.149a.437.437 0 0 1-.2.051c-.1 0-.183.017-.25.05h-.8a.837.837 0 0 0-.25-.05c-.1 0-.2-.017-.3-.051a1.822 1.822 0 0 1-.25-.1 1.1 1.1 0 0 1-.35-.15 1.27 1.27 0 0 0-.3-.149 1.175 1.175 0 0 1-.3-.2l-.3-.2a.625.625 0 0 0-.25-.149 18.856 18.856 0 0 0-.2-.2.768.768 0 0 1-.15-.2.791.791 0 0 0-.15-.2.451.451 0 0 0-.05-.2.444.444 0 0 1-.05-.199.614.614 0 0 1 0-.351.754.754 0 0 1 .25-.3c.033-.066.083-.1.15-.1l.2-.101c.1-.033.184-.05.25-.05a.562.562 0 0 1 .25-.05h.4Zm1.2 4.55c.033 0 .1-.017.2-.05a.445.445 0 0 1 .2-.05c.067 0 .15-.017.25-.051.067 0 .15-.017.25-.05h.45c.067 0 .133.017.2.05.033 0 .083.017.15.051h.15l.2.1c.033 0 .083.017.15.05l.15.101c.033.033.083.05.15.05l.2.2a.803.803 0 0 1 .2.149c.034 0 .067.017.1.05l.05.051-.15.15a1.44 1.44 0 0 1-.2.15l-.1.099-.1.05a.587.587 0 0 0-.15.101.57.57 0 0 1-.15.1c-.033.033-.067.066-.1.101a.448.448 0 0 0-.2.05c-.033.033-.083.05-.15.05a.451.451 0 0 0-.2.05.448.448 0 0 1-.2.05h-.65a.56.56 0 0 1-.25-.05.448.448 0 0 0-.2-.05.451.451 0 0 1-.2-.05.448.448 0 0 0-.2-.05.57.57 0 0 1-.15-.101.57.57 0 0 0-.15-.1.644.644 0 0 0-.15-.101c0-.033-.017-.066-.05-.1s-.05-.083-.05-.15v-.2c0-.067.017-.101.05-.101a.385.385 0 0 0 .05-.149l.1-.101a.547.547 0 0 0 .15-.1c.067-.033.133-.066.2-.101a.597.597 0 0 1 .15-.098Zm1.25 4.9a.57.57 0 0 1 .1-.15v-.15c.067-.066.1-.116.1-.149.066-.066.1-.134.1-.2a.325.325 0 0 0 .15-.15l.15-.149a.325.325 0 0 1 .15-.15.547.547 0 0 0 .15-.1 3.18 3.18 0 0 0 .1-.101.596.596 0 0 1 .15-.1c.067 0 .117-.017.15-.05.033-.033.083-.05.15-.05a.382.382 0 0 0 .15-.051l.25-.05h.15l.1-.05h.35v.5l-.15.4c0 .033-.017.066-.05.1a.383.383 0 0 0-.05.15.58.58 0 0 1-.1.149c0 .033-.033.084-.1.15 0 .033-.033.066-.1.1 0 .066-.033.101-.1.101a.765.765 0 0 0-.15.199c-.033.034-.1.084-.2.15-.033 0-.083.033-.15.1-.034 0-.083.034-.15.101a.451.451 0 0 0-.2.05c-.033.033-.067.05-.1.05-.1 0-.167.017-.2.05a.382.382 0 0 0-.15.051h-.05c-.033 0-.067-.017-.1-.051h-.05l-.1-.05c-.067 0-.1-.017-.1-.05-.067-.066-.1-.134-.1-.2v-.4ZM67.4 77.3l.3.2c.066.1.117.2.15.3v.45c-.033.066-.067.15-.1.25 0 .066-.033.15-.1.25-.033.066-.066.15-.1.25-.066.066-.133.15-.2.25a.616.616 0 0 1-.15.25.888.888 0 0 1-.25.25c-.067.1-.15.2-.25.3-.067.066-.15.134-.25.2s-.184.134-.25.2c-.067.033-.15.083-.25.149l-.2.101c-.1.033-.183.066-.25.1-.1.033-.2.066-.3.101a.448.448 0 0 0-.2.05c-.1 0-.183.017-.25.05h-.25l-.2.05h-.8v-.3l.1-.5.1-.2c0-.1.017-.184.05-.25a.556.556 0 0 0 .05-.25.752.752 0 0 0 .15-.2c.033-.1.066-.183.1-.25a.765.765 0 0 0 .15-.199.609.609 0 0 1 .15-.25l.2-.2.2-.2.3-.2.25-.25c.133-.033.25-.083.35-.149l.3-.15c.066-.033.15-.066.25-.1l.3-.101h.25a.562.562 0 0 1 .25-.05h.2a.473.473 0 0 0 .2.048Zm-3.05 5.6.15-.15a.596.596 0 0 1 .15-.1.57.57 0 0 1 .15-.101.615.615 0 0 1 .15-.1.623.623 0 0 1 .15-.101.445.445 0 0 1 .2-.05c.133-.033.25-.066.35-.1.133 0 .25-.017.35-.05h.5c.033 0 .083.017.15.05.167 0 .317.033.45.1a.449.449 0 0 1 .25.3v.25c0 .067-.017.117-.05.15-.033.033-.05.083-.05.15-.033 0-.067.033-.1.1a.563.563 0 0 0-.15.1l-.15.15a.596.596 0 0 1-.15.1.768.768 0 0 1-.2.15l-.2.1c-.1.034-.183.067-.25.101a.548.548 0 0 1-.25.051c-.033.033-.083.05-.15.05a.56.56 0 0 1-.25.05h-.5a.445.445 0 0 0-.2-.05l-.3-.05-.15-.1h-.1c-.066-.067-.133-.101-.2-.101l-.15-.05-.05-.05.1-.2a.596.596 0 0 0 .1-.15l.1-.1.1-.15.1-.1.1-.099Zm-.45 3.45h.15l.2-.1h.25l.15-.05h.45c.033 0 .066.017.1.05h.2c.033 0 .083.017.15.05.067.033.117.05.15.05.1.067.2.117.3.15.1.033.183.083.25.15.1.066.183.133.25.199a.785.785 0 0 1 .15.2c.1.101.167.217.2.351a.628.628 0 0 1 0 .35.33.33 0 0 1-.15.15c0 .033-.034.05-.1.05-.033.033-.067.05-.1.05a.393.393 0 0 1-.15.05h-.5a18.634 18.634 0 0 1-.2-.1h-.2a9.373 9.373 0 0 1-.2-.101c-.067 0-.133-.033-.2-.1a.393.393 0 0 1-.15-.05l-.1-.101a.563.563 0 0 1-.15-.1.563.563 0 0 1-.15-.1l-.1-.101a.385.385 0 0 1-.05-.149l-.2-.2-.05-.148-.05-.05-.1-.2-.05-.1v-.1Z" style="fill:#7f8080" transform="translate(-1.334 -4.944) scale(.2329)"/>
  <path d="M82.45 115.95c-.057.049-.115.1-.175.149a17.57 17.57 0 0 1-.675.551.786.786 0 0 1-.2.149 8.21 8.21 0 0 1-1.15.65c-.433.2-.833.35-1.2.45-.2.066-.4.116-.6.149-.167.033-.35.05-.55.05l-.5.101h-1.1a44.243 44.243 0 0 1-.5-.101c-.167 0-.316-.017-.45-.05a2.35 2.35 0 0 0-.45-.05l-.4-.1a3.414 3.414 0 0 1-.4-.101 3.616 3.616 0 0 0-.45-.149 6.46 6.46 0 0 1-.45-.2l-.4-.2a6.021 6.021 0 0 1-.45-.2c-.1-.1-.2-.166-.3-.2v-.05c-.167-.1-.3-.2-.4-.3-.1-.066-.2-.167-.3-.3a7.22 7.22 0 0 1-.35-.25c-.1-.134-.183-.25-.25-.351l-.3-.3c-.067-.1-.15-.217-.25-.35a1.33 1.33 0 0 1-.25-.351c-.1-.1-.184-.199-.25-.3a1.348 1.348 0 0 0-.25-.35l-1.5-2.55a.798.798 0 0 0-.2-.301.609.609 0 0 1-.15-.25l-.2-.199a.752.752 0 0 0-.15-.2l-.2-.2a.785.785 0 0 1-.2-.15 18.634 18.634 0 0 1-.2-.1l-.2-.1a.437.437 0 0 1-.2-.051h-.5a1.44 1.44 0 0 1-.35.051l-.2.1-.3.15c-.066.066-.15.133-.25.199l-.3.2a1.175 1.175 0 0 1-.3.2l-.55.55-1.6 1.601c-.133.133-.267.25-.4.35-.133.1-.267.217-.4.35a3.807 3.807 0 0 0-.4.351c-.133.133-.284.25-.45.35-.167.134-.333.25-.5.351-.133.1-.283.216-.45.35-.167.1-.35.2-.55.3-.167.101-.35.217-.55.351-.167.066-.35.149-.55.25-.233.1-.45.199-.65.3-.2.066-.417.149-.65.25-.233.066-.483.133-.75.2a1.788 1.788 0 0 1-.45.149 2.88 2.88 0 0 0-.5.15c-.2.033-.383.066-.55.1-.167.033-.333.066-.5.101a3.13 3.13 0 0 0-.6.05c-.2.033-.4.05-.6.05l-.6.1h-1.3c-.3 0-.617-.033-.95-.1a9.542 9.542 0 0 1-1.05-.25 6.189 6.189 0 0 1-1-.4 26.198 26.198 0 0 1-1.05-.6 11.71 11.71 0 0 1-1.05-.75c-.367-.267-.733-.55-1.1-.85a30.84 30.84 0 0 1-1-1.051 31.385 31.385 0 0 1-1.05-1.1 35.194 35.194 0 0 0-1.05-1.3 47.964 47.964 0 0 1-1-1.351 28.712 28.712 0 0 1-1-1.5c-.333-.5-.65-1.017-.95-1.55a26.795 26.795 0 0 1-.95-1.649l-.9-1.7c-.333-.601-.633-1.2-.9-1.8-.3-.634-.567-1.267-.8-1.9l-.8-1.9a47.256 47.256 0 0 1-.75-2c-.233-.633-.45-1.3-.65-2-.233-.666-.45-1.35-.65-2.05-.167-.666-.333-1.35-.5-2.05-.167-.667-.333-1.366-.5-2.1a230.39 230.39 0 0 1-.4-2.051 22.871 22.871 0 0 1-.3-2.1c-.1-.7-.183-1.384-.25-2.05l-.2-2.101v-2.05c-.034-.633-.034-1.3 0-2l.1-1.95c.067-.633.167-1.267.3-1.899.1-.633.217-1.25.35-1.85.133-.6.283-1.2.45-1.8.167-.6.367-1.183.6-1.75.2-.566.417-1.117.65-1.65.3-.533.583-1.05.85-1.55.3-.533.617-1.017.95-1.45.367-.467.75-.917 1.15-1.35.4-.466.8-.9 1.2-1.3.434-.4.9-.783 1.4-1.15.5-.333 1.017-.65 1.55-.95.533-.333 1.1-.633 1.7-.9.6-.267 1.216-.5 1.85-.7.667-.233 1.35-.433 2.05-.6.7-.167 1.417-.317 2.15-.45.767-.1 1.55-.183 2.35-.25.767-.067 1.583-.1 2.45-.1h.1c.4 0 .783.017 1.15.05.534 0 1.067.017 1.6.05.934.067 1.9.183 2.9.35l3.7 2.5v.1c.067.167.117.333.15.5l.2.5c.033.133.083.283.15.45l.2.4c.066.133.15.267.25.4.066.1.15.216.25.35.066.1.15.2.25.3.1.133.183.25.25.35.1.1.216.2.35.3.067.067.167.133.3.2.066.1.167.183.3.25.1.066.217.133.35.2l.3.2c.133.033.25.066.35.1.133.066.25.117.35.15.1.033.217.066.35.1h.35a.56.56 0 0 0 .25.05h.4c.133 0 .25-.017.35-.05.133 0 .25-.017.35-.05.1-.033.217-.05.35-.05a.631.631 0 0 1 .3-.15c.4-.2.767-.45 1.1-.75.333-.267.583-.583.75-.95.2-.4.317-.833.35-1.3a4.798 4.798 0 0 0-.15-1.5c-.133-.534-.383-1.117-.75-1.75-.333-.567-.783-1.184-1.35-1.85a3.371 3.371 0 0 1-.55-.85 3.266 3.266 0 0 1-.35-.95 5.288 5.288 0 0 1-.2-1c0-.333.034-.683.1-1.05.033-.333.117-.683.25-1.05.133-.333.283-.684.45-1.05.2-.333.417-.65.65-.95.233-.367.517-.684.85-.95.3-.3.633-.6 1-.9.367-.267.767-.5 1.2-.7a7.186 7.186 0 0 1 1.35-.65c.5-.2 1.017-.35 1.55-.45.4-.1.783-.167 1.15-.2.333-.067.683-.1 1.05-.1l.6-.05c.467 0 .933.033 1.4.1.633.1 1.233.25 1.8.45.6.167 1.15.417 1.65.75.566.3 1.066.667 1.5 1.1.467.367.9.8 1.3 1.3s.783 1.033 1.15 1.6c.333.567.633 1.167.9 1.8.133.333.25.667.35 1 .167.333.284.684.35 1.05.133.333.233.683.3 1.05.1.367.183.75.25 1.15l.2 1.1c.067.4.1.8.1 1.2.067.367.1.767.1 1.2v2.25l-.1 1c-.033.333-.083.667-.15 1l-.2 1c-.066.233-.133.483-.2.75a5.99 5.99 0 0 1-.15.65l-.2.7c-.067.233-.15.45-.25.65-.067.233-.15.467-.25.7l-.2.7c-.1.2-.2.417-.3.65l-.3.7c-.1.233-.2.45-.3.65-.1.267-.2.517-.3.75-.1.233-.2.45-.3.65-.133.233-.25.467-.35.7l-5.3 10.3c-.1.2-.2.417-.3.65-.133.2-.25.417-.35.65l-.3.699c-.066.233-.15.45-.25.65a3.196 3.196 0 0 0-.3.7c-.067.2-.15.416-.25.649-.1.233-.183.467-.25.7-.067.2-.15.4-.25.601l-.2.699c-.066.334-.15.667-.25 1-.066.301-.133.634-.2 1a47.63 47.63 0 0 0-.2.95c-.033.334-.066.65-.1.95 0 .2-.017.4-.05.6-.033.2-.05.384-.05.551v.649c0 .2.017.417.05.65 0 .2.017.399.05.6 0 .2.017.417.05.65.033.2.066.416.1.649.033.2.083.4.15.601a14 14 0 0 0 .2.649c.034.2.1.4.2.601.167.399.35.816.55 1.25.2.366.45.733.75 1.1.267.334.567.667.9 1 .367.3.75.584 1.15.851h.05a33.3 33.3 0 0 0 1.05.6h.05c.1.033.217.066.35.1.5.2 1.05.367 1.65.5.3.067.617.117.95.15l1 .1c1.155 4.188.155 8.721-3 13.604ZM63.9 86.35v.101l.05.1.1.2.05.05.05.15.2.2c0 .033.017.083.05.149.033.033.067.066.1.101a.596.596 0 0 0 .15.1.596.596 0 0 0 .15.1l.1.101c.067.033.117.05.15.05.067.066.133.1.2.1l.2.101h.2l.2.1h.5a.393.393 0 0 0 .15-.05c.033 0 .067-.017.1-.05.066 0 .1-.017.1-.05a.335.335 0 0 0 .15-.15.628.628 0 0 0 0-.35.744.744 0 0 0-.2-.351.785.785 0 0 0-.15-.2 1.654 1.654 0 0 0-.25-.199.622.622 0 0 0-.25-.15c-.1-.033-.2-.083-.3-.15a.388.388 0 0 1-.15-.05.388.388 0 0 0-.15-.05h-.2c-.034-.033-.067-.05-.1-.05h-.45l-.15.05h-.25l-.2.1h-.15v-.003Zm.45-3.45-.1.1-.1.1-.1.15-.1.1a.596.596 0 0 1-.1.15l-.1.2.05.05.15.05c.066 0 .133.033.2.101h.1l.15.099.3.05c.066 0 .133.017.2.05h.5a.56.56 0 0 0 .25-.05c.067 0 .117-.017.15-.05a.56.56 0 0 0 .25-.05 2.29 2.29 0 0 1 .25-.101l.2-.1a.791.791 0 0 0 .2-.15.563.563 0 0 0 .15-.1l.15-.15a.596.596 0 0 1 .15-.1c.033-.066.067-.1.1-.1 0-.067.017-.117.05-.15.034-.033.05-.083.05-.15v-.25a.449.449 0 0 0-.25-.3.986.986 0 0 0-.45-.1.388.388 0 0 0-.15-.05H66c-.1.033-.217.05-.35.05-.1.033-.217.066-.35.1a.57.57 0 0 0-.35.151.547.547 0 0 0-.15.1.54.54 0 0 0-.15.101.563.563 0 0 0-.15.1l-.15.149Zm3.05-5.6a.451.451 0 0 1-.2-.05H67c-.1 0-.183.017-.25.05h-.25c-.1.033-.2.066-.3.101-.1.033-.184.066-.25.1l-.3.15c-.1.066-.217.116-.35.149l-.25.25-.3.2-.2.2-.2.2a.609.609 0 0 0-.15.25.788.788 0 0 1-.15.199 2.12 2.12 0 0 0-.1.25.774.774 0 0 1-.15.2.556.556 0 0 1-.05.25.56.56 0 0 0-.05.25l-.1.2-.1.5v.3h.8l.2-.049h.25a.562.562 0 0 1 .25-.05.448.448 0 0 1 .2-.05l.3-.101a2.12 2.12 0 0 1 .25-.1c.067-.033.133-.066.2-.101.1-.066.183-.116.25-.149.066-.066.15-.134.25-.2s.183-.134.25-.2c.1-.1.183-.2.25-.3.1-.066.183-.15.25-.25a.627.627 0 0 0 .15-.25c.066-.1.133-.184.2-.25.034-.1.067-.184.1-.25.067-.1.1-.184.1-.25.033-.1.067-.184.1-.25v-.45c-.033-.1-.083-.2-.15-.3-.1-.065-.2-.133-.3-.199Zm-6.75 10.85v.399c0 .066.033.134.1.2 0 .033.033.05.1.05l.1.05H61c.033.034.067.051.1.051h.05a.382.382 0 0 1 .15-.051c.034-.033.1-.05.2-.05.033 0 .067-.017.1-.05a.445.445 0 0 1 .2-.05c.067-.066.117-.101.15-.101.066-.066.117-.1.15-.1.1-.066.167-.116.2-.15a.788.788 0 0 1 .15-.199c.066 0 .1-.034.1-.101.067-.033.1-.066.1-.1.067-.066.1-.117.1-.15a.58.58 0 0 0 .1-.149c0-.034.017-.084.05-.15.033-.033.05-.066.05-.1L63.1 87v-.5h-.35l-.1.05h-.15l-.25.05a.382.382 0 0 1-.15.051c-.067 0-.117.017-.15.05-.034.033-.083.05-.15.05a.563.563 0 0 0-.15.1 9.476 9.476 0 0 1-.1.101.596.596 0 0 1-.15.1.33.33 0 0 0-.15.15 26.39 26.39 0 0 0-.15.149.321.321 0 0 1-.15.15c0 .066-.034.134-.1.2 0 .033-.033.083-.1.149V88a.57.57 0 0 0-.1.15Zm-1.25-4.9a.563.563 0 0 0-.15.1l-.2.101a.596.596 0 0 1-.15.1 9.666 9.666 0 0 0-.1.101.385.385 0 0 1-.05.149c-.033 0-.05.033-.05.101v.2c0 .067.017.117.05.15.033.033.05.066.05.1a.57.57 0 0 1 .15.101.563.563 0 0 1 .15.1.595.595 0 0 0 .15.101c.067 0 .133.017.2.05.066.033.133.05.2.05s.133.017.2.05a.56.56 0 0 0 .25.05h.65a.448.448 0 0 0 .2-.05.445.445 0 0 1 .2-.05c.067 0 .117-.017.15-.05a.448.448 0 0 1 .2-.05l.1-.101a.563.563 0 0 0 .15-.1.595.595 0 0 1 .15-.101l.1-.052.1-.1a1.44 1.44 0 0 0 .3-.25l.05-.05-.05-.05c-.033-.033-.066-.05-.1-.05a.769.769 0 0 0-.2-.149l-.2-.2c-.066 0-.117-.017-.15-.05l-.15-.101a.393.393 0 0 0-.15-.05 18.634 18.634 0 0 1-.2-.1h-.15a.382.382 0 0 0-.15-.051.448.448 0 0 0-.2-.05h-.45a.831.831 0 0 1-.25.05.807.807 0 0 1-.25.051.451.451 0 0 0-.2.05.839.839 0 0 1-.2.05Zm-1.2-4.55h-.4c-.1 0-.183.017-.25.05a.837.837 0 0 0-.25.05c-.066.033-.133.066-.2.101-.067 0-.117.033-.15.1a.747.747 0 0 0-.25.3.614.614 0 0 0 0 .351c0 .066.017.133.05.199.033.067.05.134.05.2a.768.768 0 0 1 .15.2.768.768 0 0 0 .15.2l.2.2c.1.033.184.083.25.149l.3.2c.066.066.167.134.3.2.1.033.2.083.3.149.1.067.216.117.35.15.067.033.15.066.25.1s.2.051.3.051c.066 0 .15.017.25.05h.8a.562.562 0 0 1 .25-.05.437.437 0 0 0 .2-.051l.7-.149.25-.15v-.05l-.05-.1-.05-.15-.05-.1-.1-.15a.58.58 0 0 0-.1-.15c-.067-.066-.1-.133-.1-.199a.785.785 0 0 1-.15-.2l-.15-.15-.2-.2a.765.765 0 0 1-.15-.199.768.768 0 0 0-.2-.15 1.655 1.655 0 0 1-.25-.2 2.12 2.12 0 0 0-.25-.1.343.343 0 0 0-.25-.101 2.75 2.75 0 0 0-.35-.149 6.094 6.094 0 0 0-.35-.101 5.248 5.248 0 0 0-.35-.1h-.3a.437.437 0 0 0-.2-.051Zm20.25 24.45c-.4-.101-.817-.15-1.25-.15a6.74 6.74 0 0 0-1.65.2 7.568 7.568 0 0 0-1.5.649c-.433.267-.85.584-1.25.95-.367.4-.683.816-.95 1.25a7.571 7.571 0 0 0-.65 1.5 6.796 6.796 0 0 0-.2 1.65c0 .566.067 1.116.2 1.649a7.52 7.52 0 0 0 .65 1.5c.267.434.583.851.95 1.25.4.367.817.684 1.25.95.467.267.967.483 1.5.65.534.133 1.083.2 1.65.2.566 0 1.117-.067 1.65-.2a7.63 7.63 0 0 0 1.5-.65c.433-.267.85-.583 1.25-.95.367-.399.683-.816.95-1.25a7.52 7.52 0 0 0 .65-1.5c.133-.533.2-1.083.2-1.649 0-.434-.05-.851-.15-1.25a4.595 4.595 0 0 0-.35-1.15 4.489 4.489 0 0 0-.55-1.05c-.234-.333-.483-.65-.75-.95a10.37 10.37 0 0 0-.95-.75 4.545 4.545 0 0 0-1.05-.55 4.635 4.635 0 0 0-1.15-.349Z" style="fill:#fff" transform="translate(-1.334 -4.944) scale(.2329)"/>
</svg>
