<svg xmlns="http://www.w3.org/2000/svg" style="enable-background:new 0 0 1000 1000" xml:space="preserve" viewBox="67.3 41 851.43 851.32" height="1em" width="1em">
  <path d="M493 305.7c-88.9 0-161 72.1-161 161s72.1 161 161 161 161-72.1 161-161-72-161-161-161zm-251 161c0-138.7 112.4-251 251-251 138.7 0 251.1 112.4 251.1 251 0 9.2-.5 18.2-1.4 27.1-1.9 24.5 16.1 43.2 40.4 43.2 41.3 0 45.7-53.2 45.7-70.3 0-185.4-150.3-335.6-335.6-335.6S157.4 281.4 157.4 466.7c0 185.4 150.3 335.6 335.6 335.6 98.4 0 187-42.4 248.4-109.9l69 57.9c-77.9 87.1-191.3 142-317.4 142-235.1 0-425.7-190.6-425.7-425.7S257.9 41 493 41s425.7 190.6 425.7 425.7c0 94.5-45 171.2-135.4 171.2-39.8 0-64-18.2-77.2-38.6C661.9 670.5 583 717.8 493 717.8c-138.6 0-251-112.4-251-251.1zm251-73.6c40.7 0 73.7 33 73.7 73.7s-33 73.7-73.7 73.7-73.7-33-73.7-73.7 33-73.7 73.7-73.7z" style="fill:#c12126"/>
</svg>
