<svg xmlns="http://www.w3.org/2000/svg" viewBox="33.6 -0.03 932.84 1000" height="1em" width="1em">
  <path d="M946.586 599.455c-13.713 70.541-122.816 147.742-248.121 162.703-65.341 7.796-129.674 14.962-198.275 11.815-112.191-5.139-200.716-26.776-200.716-26.776 0 10.92.673 21.319 2.02 31.044 14.586 110.711 109.787 117.344 199.967 120.436 91.021 3.114 172.068-22.44 172.068-22.44l3.74 82.281s-63.666 34.185-177.079 40.473c-62.539 3.437-140.192-1.573-230.636-25.511C73.396 921.564 39.661 712.484 34.499 500.337c-1.573-62.987-.603-122.381-.603-172.056 0-216.931 142.142-280.516 142.142-280.516C247.71 14.851 370.693 1.01 498.546-.035h3.142c127.853 1.045 250.917 14.886 322.583 47.8 0 0 142.138 63.585 142.138 280.516 0 0 1.783 160.053-19.823 271.174" style="fill:#3088d4;fill-rule:nonzero"/>
  <path d="M798.748 345.11v262.667h-104.07V352.831c0-53.743-22.614-81.021-67.847-81.021-50.012 0-75.077 32.359-75.077 96.343V507.7H448.297V368.153c0-63.984-25.07-96.343-75.082-96.343-45.233 0-67.847 27.278-67.847 81.021v254.946h-104.07V345.11c0-53.683 13.669-96.343 41.127-127.904 28.314-31.561 65.395-47.741 111.425-47.741 53.256 0 93.585 20.468 120.251 61.41l25.922 43.451 25.927-43.451c26.66-40.942 66.99-61.41 120.251-61.41 46.025 0 83.106 16.18 111.425 47.741 27.453 31.561 41.122 74.221 41.122 127.904" style="fill:#fff;fill-rule:nonzero"/>
</svg>
