<svg version="1.1" id="Layer_1" xmlns="http://www.w3.org/2000/svg" x="0" y="0" style="enable-background:new 0 0 60 60" xml:space="preserve" viewBox="4.9 5.1 50 50" height="1em" width="1em">
  <style>
    .st0{fill:#991b1e}.st1{fill:#fff}
  </style>
  <path class="st0" d="m21.2 21.2 12.3 5.3 12.3-14.3-24.6 9zm-4.4 14.4L6.7 39.3c.4 1 .8 1.9 1.3 2.9l8.8-3.2v-3.4z"/>
  <path class="st0" d="M16.8 20.5c0-.6.5-1.3 1.1-1.5L44 9.5c-4-2.8-8.9-4.4-14.1-4.4-13.7 0-24.9 11.1-25 24.8l8.5-3.1c.6-.2 1.1.1 1.1.7v1.1c0 .6-.5 1.3-1.1 1.5l-8.3 3c.1 1.1.3 2.1.6 3.1l11.1-4V20.5zm33.5-4.8v19.4c0 .6-.5 1.3-1.1 1.5L17.9 48.1c-.6.2-1.1-.1-1.1-.7v-5l-7 2.5c4.5 6.2 11.9 10.2 20.1 10.2 13.8 0 25-11.2 25-25 0-5.3-1.7-10.3-4.6-14.4z"/>
  <path class="st0" d="m31.3 37.1-11.2 4.1v1.7c0 .6.5.9 1.1.7l24.6-9c.6-.2 1.1-.9 1.1-1.5V15L34.4 29.3c-.5.5-1.3.8-1.7.6l-12.5-5.1V31l2.2-.8c.6-.2 1.1.1 1.1.7V32c0 .6-.5 1.3-1.1 1.5l-2.2.8v3.4l11.2-4.1c.6-.2 1.1.1 1.1.7v1.1c0 .7-.5 1.4-1.2 1.7z"/>
  <path class="st1" d="M14.6 28.6v-1.1c0-.6-.5-.9-1.1-.7L5 29.9v.2c0 1 .1 2.1.2 3.1l8.3-3c.6-.3 1.1-1 1.1-1.6z"/>
  <path class="st1" d="M44.1 9.5 17.9 19c-.6.2-1.1.9-1.1 1.5v11.7l-11.1 4c.3 1 .6 2 1 3l10.1-3.7V39L8 42.2c.5.9 1.1 1.8 1.8 2.7l7-2.5v5c0 .6.5.9 1.1.7l31.3-11.4c.6-.2 1.1-.9 1.1-1.5V15.7c-1.7-2.4-3.8-4.5-6.2-6.2zM21.3 21.1l24.6-8.9-12.4 14.3-12.2-5.4c-.1.1-.1.1 0 0zM47 33c0 .6-.5 1.3-1.1 1.5l-24.6 9c-.6.2-1.1-.1-1.1-.7v-1.7L31.4 37c.6-.2 1.1-.9 1.1-1.5v-1.1c0-.6-.5-.9-1.1-.7l-11.2 4.1v-3.4l2.2-.8c.6-.2 1.1-.9 1.1-1.5V31c0-.6-.5-.9-1.1-.7l-2.2.8v-6.2L32.7 30c.5.2 1.3-.1 1.7-.6L47 15v18z"/>
</svg>
