<svg xmlns="http://www.w3.org/2000/svg" viewBox="0 2 32 32" height="1em" width="1em">
  <g fill="none" fill-rule="evenodd">
    <path fill="#F7578C" d="M19.998 3.055c11.598 3.113 13.66 8.713 10.922 18.95-2.738 10.236-7.32 14.053-18.918 10.94C.404 29.832-1.658 24.232 1.08 13.995 3.818 3.76 8.4-.058 19.998 3.055Z"/>
    <path fill="#FFF" d="M8.014 18.175c-1.472-3.082-1.539-6.104.259-7.902s4.82-1.731 7.902-.26c3.081-1.471 6.103-1.538 7.901.26s1.731 4.82.26 7.902c1.471 3.081 1.538 6.103-.26 7.901s-4.82 1.731-7.901.26c-3.082 1.471-6.104 1.538-7.902-.26s-1.731-4.82-.26-7.901Zm1.444-2.423a18.83 18.83 0 0 1 1.976-2.318 18.83 18.83 0 0 1 2.318-1.976c-1.673-.507-3.107-.396-3.899.395-.791.792-.902 2.226-.395 3.9Zm13.433 4.845a18.83 18.83 0 0 1-1.975 2.319 18.83 18.83 0 0 1-2.319 1.975c1.674.507 3.107.397 3.899-.395.792-.792.902-2.225.395-3.899Zm-13.433 0c-.507 1.674-.396 3.107.395 3.899.792.792 2.226.902 3.9.395a18.83 18.83 0 0 1-2.32-1.975 18.83 18.83 0 0 1-1.975-2.319Zm1.087-2.422a15.93 15.93 0 0 0 2.469 3.16 15.93 15.93 0 0 0 3.16 2.47 15.93 15.93 0 0 0 3.161-2.47 15.93 15.93 0 0 0 2.47-3.16 15.93 15.93 0 0 0-2.47-3.161 15.93 15.93 0 0 0-3.16-2.47 15.93 15.93 0 0 0-3.161 2.47 15.93 15.93 0 0 0-2.47 3.16Zm8.052-6.717a18.83 18.83 0 0 1 2.319 1.976 18.83 18.83 0 0 1 1.975 2.318c.507-1.673.397-3.107-.395-3.899-.792-.791-2.225-.902-3.899-.395Z"/>
  </g>
</svg>
