<svg viewBox="0 0 29 34" xmlns="http://www.w3.org/2000/svg" xml:space="preserve" style="fill-rule:evenodd;clip-rule:evenodd;stroke-linejoin:round;stroke-miterlimit:2" height="1em" width="1em">
  <path d="M5.551 2.938C4.035 3.062-.74 7.918.098 9.59c2.946 5.876 6.639 13.901 7.97 21.183.355 3.558 2.939 3.935 8.269 1.169-.298-1.947-1.574-7.241-1.707-7.94 3.619 3.096 7.526 6.56 8.299 6.022 2.43-.401 3.795-1.481 5.184-2.547-2.759-8.021-5.061-18.544-5.693-23.76-.154-1.273-11.393-6.904-9.348-1.228l1.468 9.498c-2.353-1.819-4.324-4.545-6.561-6.997-.719-.788-1.393-2.137-2.428-2.052Z" style="fill:url(#a)"/>
  <defs>
    <linearGradient id="a" x1="0" y1="0" x2="1" y2="0" gradientUnits="userSpaceOnUse" gradientTransform="rotate(98.595 6.432 6.35) scale(39.80025)">
      <stop offset="0" style="stop-color:#f6d900;stop-opacity:1"/>
      <stop offset=".49" style="stop-color:#e5641a;stop-opacity:1"/>
      <stop offset="1" style="stop-color:#f3c52b;stop-opacity:1"/>
    </linearGradient>
  </defs>
</svg>
