<svg xmlns="http://www.w3.org/2000/svg" xmlns:xlink="http://www.w3.org/1999/xlink" viewBox="2 2 399.653 200.777" height="1em" width="1em">
  <defs>
    <radialGradient id="b" spreadMethod="pad" gradientTransform="matrix(496.796 4.27244 4.27244 -496.796 467.759 524.077)" gradientUnits="userSpaceOnUse" r="1" cy="0" cx="0" fy="0" fx="0">
      <stop offset="0" style="stop-opacity:1;stop-color:#fff"/>
      <stop offset=".271" style="stop-opacity:1;stop-color:#fff"/>
      <stop offset=".649" style="stop-opacity:1;stop-color:#fff"/>
      <stop offset="1" style="stop-opacity:1;stop-color:#d6d7dd"/>
    </radialGradient>
    <radialGradient id="a" spreadMethod="pad" gradientTransform="matrix(496.749 4.27204 4.27204 -496.749 847.266 527.407)" gradientUnits="userSpaceOnUse" r="1" cy="0" cx="0" fy="0" fx="0">
      <stop offset="0" style="stop-opacity:1;stop-color:#f7ed1a"/>
      <stop offset=".19" style="stop-opacity:1;stop-color:#f7ed1a"/>
      <stop offset="1" style="stop-opacity:1;stop-color:#ef7c29"/>
    </radialGradient>
    <radialGradient id="c" spreadMethod="pad" gradientTransform="matrix(496.746 4.27201 4.27201 -496.746 1238.77 530.712)" gradientUnits="userSpaceOnUse" r="1" cy="0" cx="0" fy="0" fx="0">
      <stop offset="0" style="stop-opacity:1;stop-color:#fff"/>
      <stop offset=".271" style="stop-opacity:1;stop-color:#fff"/>
      <stop offset=".649" style="stop-opacity:1;stop-color:#fff"/>
      <stop offset="1" style="stop-opacity:1;stop-color:#d6d7dd"/>
    </radialGradient>
    <radialGradient r="1" fy="0" fx="0" cy="0" cx="0" spreadMethod="pad" gradientTransform="rotate(-.493 92187.656 -143813.509) scale(708.9613)" gradientUnits="userSpaceOnUse" id="e" xlink:href="#a"/>
    <radialGradient r="1" fy="0" fx="0" cy="0" cx="0" spreadMethod="pad" gradientTransform="rotate(-.493 92471.614 -81301.892) scale(709.02838)" gradientUnits="userSpaceOnUse" id="f" xlink:href="#b"/>
    <radialGradient r="1" fy="0" fx="0" cy="0" cx="0" spreadMethod="pad" gradientTransform="rotate(-.493 91920.533 -209256.466) scale(708.95703)" gradientUnits="userSpaceOnUse" id="d" xlink:href="#c"/>
  </defs>
  <g style="display:inline;opacity:1">
    <path d="M2259.382 91.855c-73.327-46.368-160.497-63.151-253.005-56.972-273.513 18.082-594.703 235.995-750.023 481.9-207.878 329.175-141.153 744.526 149.06 927.742 85.063 53.73 179.883 81.314 276.686 85.495 233.325 9.951 478.024-117.244 624.978-349.863 207.807-329.098 242.5-905.208-47.696-1088.302" style="fill:url(#d);fill-opacity:1;fill-rule:nonzero;stroke:none" transform="translate(-2.668 -2.485) scale(.13327)"/>
    <path d="M1478.008 38.42c-11.389.039-22.88.45-34.455 1.217C1169.98 57.733 848.817 275.684 693.574 521.55 485.646 850.687 552.393 1266.009 842.6 1449.348c85.06 53.657 179.887 81.286 276.638 85.355 97.023 4.183 194.812-12.741 287.914-53.701-462.192-241.363-352.948-759.836-211.226-965.244 109.596-173.59 307.899-336.686 504.26-416.903-1.172-.759-2.334-1.529-3.516-2.275-64.199-40.535-138.94-58.43-218.662-58.16z" style="display:inline;opacity:1;fill:url(#e);fill-opacity:1;fill-rule:nonzero;stroke:none" transform="translate(-2.668 -2.485) scale(.13327)"/>
    <path d="M943.166 43.033c-281.015-.555-624.849 226.007-787.172 483.145-207.884 329.175-141.197 744.458 149.055 927.77 166.989 105.433 371.621 110.983 554.88 33.92a553.065 553.065 0 0 1-71.24-38.018c-290.208-183.327-356.827-598.595-149.054-927.77 111.95-177.301 310.174-340.048 514.601-423.83-62.37-37.98-134.376-55.065-211.07-55.217Z" style="display:inline;opacity:1;fill:url(#f);fill-opacity:1;fill-rule:nonzero;stroke:none" transform="translate(-2.668 -2.485) scale(.13327)"/>
  </g>
  <g style="display:inline">
    <g style="display:inline;opacity:1">
      <path style="fill:#002d6a;fill-opacity:1;fill-rule:nonzero;stroke:none" d="m1290.974 628.532-11.312 34.637c11.919-13.815 24.736-24.28 38.355-31.264 13.625-6.924 28.292-10.492 44.018-10.592 19.462-.14 34.207 4.282 44.208 13.424 10.085 9.198 14.974 20.822 14.851 34.882-.138 14.036-4.487 37.479-13.01 70.343l-68.147 263.687-114.378.96 67.439-260.718c6.779-25.866 9.978-41.66 9.894-47.319-.234-5.668-4.047-8.484-11.735-8.4-7.76.121-13.563 3.373-17.393 9.912-3.763 6.505-9.32 23.993-16.68 52.358l-65.838 254.435-114.323.991 97.359-376.36 116.692-.976m295.906 131.153 7.163-27.685c5.095-19.633 7.265-32.26 6.594-37.92-.642-5.714-4.053-8.528-10.261-8.428-7.978.038-13.487 2.475-16.54 7.341-3.126 4.907-7.465 18.008-12.974 39.202l-7.164 27.707zm98.544 59.896-147.467 1.232-21.08 81.414c-4.41 17.065-6.022 28.041-4.923 32.92 1.127 4.877 5.138 7.275 12.045 7.246 8.449-.056 14.928-3.456 19.609-9.906 4.481-6.595 9.19-19.25 14.057-37.98l12.86-49.728 108.59-.92-7.163 27.796c-5.994 23.27-12.117 41.08-18.254 53.624-6.15 12.487-16.398 25.884-30.812 40.167-14.371 14.176-30.684 24.975-49.022 32.222-18.24 7.209-39.86 10.9-64.793 11.082-23.99.28-44.256-3.054-60.982-9.856-16.726-6.84-28.606-16.307-35.675-28.459-7.08-12.07-10.742-25.393-10.97-40-.213-14.632 3.378-35.928 10.592-63.87l28.432-109.673c8.477-32.903 19.58-58.808 33.367-77.902 13.8-19.071 32.096-33.745 54.802-44.002 22.863-10.247 47.267-15.497 73.313-15.749 32.01-.28 56.843 5.66 74.526 17.571 17.71 12.031 28.086 28.058 31.24 48.073 3.154 20.08.128 48.304-9.334 84.83l-12.958 49.868m456.431-198.306-143.3 376.689-122.878 1.097c5.167-45.974 13.059-106.756 23.505-182.502a2631.872 2631.872 0 0 1-40.33 100.803l-32.94 82.05-122.82 1.127 49.008-375.96 97.632-.88c-1.399 9.756-11.56 81.782-30.713 216.19 5.48-14.344 32.825-86.576 82.061-216.596l93.15-.821-32.282 216.192c20.266-63.637 47.667-135.804 82.09-216.599l97.817-.79m141.899 131.675 7.164-27.678c4.995-19.613 7.25-32.279 6.58-37.936-.643-5.703-4.068-8.53-10.276-8.475-8.006.085-13.472 2.48-16.598 7.387-3.082 4.905-7.35 17.951-12.787 39.258l-7.279 27.667zm98.488 59.885-147.425 1.272-21.079 81.347c-4.353 17.115-6.051 28.07-4.91 32.936 1.114 4.905 5.081 7.358 12.046 7.258 8.391-.055 15-3.328 19.595-9.895 4.538-6.607 9.233-19.288 14.071-37.993l12.887-49.71 108.592-.892-7.25 27.762c-5.965 23.22-11.974 41.098-18.196 53.614-6.222 12.503-16.498 25.867-30.826 40.154-14.415 14.245-30.727 25.031-49.009 32.263-18.281 7.19-39.86 10.897-64.864 11.148-24.019.202-44.17-3.12-60.953-9.99-16.698-6.829-28.572-16.25-35.622-28.376-7.078-12.152-10.76-25.437-10.96-40.054-.2-14.617 3.325-35.863 10.56-63.876l28.358-109.64c8.492-32.863 19.738-58.841 33.467-77.908 13.686-19.094 32.054-33.688 54.774-44.013 22.72-10.286 47.224-15.553 73.312-15.749 31.969-.278 56.758 5.575 74.483 17.588 17.726 12.07 28.101 27.987 31.298 48.055 3.182 20.126.086 48.345-9.334 84.793l-13.015 49.906m207.935-96.611c4.439-17.193 6.223-28.192 5.352-32.903-.842-4.71-4.595-7.007-11.203-7.007-6.722.094-12.074 2.826-16.141 8.233-4.21 5.465-8.278 16.14-12.402 31.973l-32.725 126.67c-4.438 16.814-6.222 27.707-5.466 32.685.757 5.062 4.439 7.51 11.118 7.414 7.45-.038 13.101-3.054 17.069-9.13 3.867-6.127 8.577-19.914 14.128-41.254zm140.146-100.804-75.025 290.074c-10.261 39.213-17.74 64.606-22.535 75.952-4.81 11.483-14.328 23.553-28.643 36.542-14.142 12.811-31.868 22.717-53.075 29.546-21.293 6.919-46.64 10.537-76.067 10.805-36.55.261-64.165-5.731-82.96-17.885-18.81-12.286-23.934-36.61-15.242-72.996l110.932-.982c-4.424 16.993-.585 25.44 11.803 25.338 8.548-.056 15.07-2.687 19.309-7.944 4.153-5.234 8.477-16.084 12.716-32.529l7.435-28.794c-12.145 9.004-24.104 15.833-36.178 20.504-12.074 4.611-24.033 6.942-36.007 7.109-20.551.15-36.464-3.904-47.61-12.058-11.132-8.196-17.425-18.956-18.938-32.474-1.584-13.38.842-32.613 7.364-57.588l35.35-136.483c9.306-35.678 22.321-61.35 39.304-77.2 16.855-15.72 38.462-23.73 64.55-23.982 14.243-.1 26.502 2.732 36.764 8.473 10.375 5.799 18.567 14.534 24.975 26.174l15.356-28.654 106.422-.948m160.427 98.257c4.423-17.243 6.207-28.154 5.38-32.937-.757-4.766-4.553-7.035-11.132-6.98-6.693.057-12.06 2.77-16.327 8.251-3.939 5.436-8.092 16.073-12.245 31.916l-32.81 126.67c-4.31 16.787-6.094 27.651-5.352 32.752.643 4.99 4.41 7.431 11.104 7.376 7.378-.072 13.015-3.027 16.883-9.187 3.967-6.104 8.677-19.819 14.214-41.209zm140.145-100.793-75.125 290.068c-10.09 39.247-17.61 64.506-22.435 75.973-4.795 11.385-14.214 23.565-28.543 36.416-14.243 12.905-31.968 22.773-53.16 29.701-21.208 6.87-46.569 10.464-76.068 10.631-36.478.38-64.079-5.601-82.86-17.81-18.939-12.293-24.034-36.544-15.342-73.002l110.918-.892c-4.324 16.974-.557 25.409 11.788 25.309 8.663-.094 15.17-2.732 19.324-7.955 4.224-5.258 8.377-16.101 12.73-32.518l7.45-28.85c-11.988 9.032-24.148 15.832-36.193 20.487-11.974 4.644-23.933 7.042-35.921 7.136-20.651.084-36.464-3.819-47.61-11.985-11.203-8.195-17.425-19.094-18.924-32.514-1.541-13.462.942-32.6 7.321-57.575l35.265-136.511c9.234-35.65 22.435-61.322 39.304-77.155 17.054-15.804 38.462-23.86 64.664-24.027 14.243-.111 26.488 2.714 36.763 8.501 10.262 5.753 18.568 14.467 24.876 26.119l15.47-28.655 106.308-.892" transform="translate(-2.722 -2.722) scale(.13327)"/>
    </g>
  </g>
</svg>
