<svg xmlns="http://www.w3.org/2000/svg" viewBox="79.78 79.33 58.88 62.75" height="1em" width="1em">
  <path fill="#fff" d="M92.92 102.91c3.38-3.889 8.396-6.392 13.564-6.557 3.8-.183 7.563 1.035 10.763 3.042 0 .145 0 .435.003.58h-1.243c.002.683.002 1.368.002 2.054-.546 0-1.092 0-1.636-.003-2.668 4.17-4.873 8.625-6.891 13.139-1.957-2.654-4.076-5.23-6.643-7.32-1.235-.962-2.584-1.857-4.112-2.256-.87-.284-1.912.407-1.87 1.35-.006 1.07.833 1.853 1.51 2.578 3.89 4.07 6.705 9.085 8.447 14.426.493 2.007 3.075 3.114 4.881 2.166.917-.457 1.132-1.541 1.497-2.4 1.723-4.307 3.702-8.555 6.384-12.358.694-.808.368-1.932.432-2.902.538.003 1.079.003 1.617.009v-2.027h1.634c0-.666-.003-1.33-.003-1.996l1.17.008c.923 1.511 1.79 3.072 2.337 4.762 1.597 4.672 1.184 9.99-1.138 14.35-3.46 6.708-11.304 10.884-18.803 9.891-5.006-.563-9.72-3.331-12.639-7.437-2.163-2.944-3.49-6.507-3.696-10.161-.251-4.667 1.366-9.406 4.432-12.938Z"/>
  <g fill="#ffc10e">
    <path d="M136.663 79.346h1.974c0 .663.003 1.33.005 1.993-.663.006-1.324.011-1.984.022.002-.671.005-1.343.005-2.015zm.006 4.044c.655.012 1.313.018 1.97.018 0 .669.003 1.34.009 2.01-.663 0-1.327 0-1.99.002.005-.677.005-1.352.01-2.03zm-5.893 2.429h1.998c-.005.68-.008 1.36-.005 2.04l-.365-.008c-.541-.014-1.08-.02-1.62-.022-.006-.67-.008-1.341-.008-2.01zM91.14 92.994c4.525-3.239 10.053-5.087 15.623-5.112a26.925 26.925 0 0 1 15.973 4.937c.181.142.362.287.544.435a96.83 96.83 0 0 1-2.016.041c-.017.522.117 1.08-.1 1.578-.502.496-1.269.237-1.899.27a558.1 558.1 0 0 1 0 3.056l-2.023-.008c0 .401.002.802.005 1.204-3.2-2.007-6.964-3.225-10.763-3.042-5.168.165-10.184 2.668-13.565 6.557-3.066 3.532-4.683 8.271-4.432 12.938.206 3.654 1.533 7.217 3.696 10.16 2.919 4.107 7.633 6.875 12.64 7.438 7.498.993 15.343-3.183 18.802-9.89 2.322-4.36 2.735-9.68 1.138-14.351-.547-1.69-1.414-3.25-2.336-4.762l.841-.002c-.002-.686-.01-1.372-.025-2.058.653-.242 1.358-.187 2.044-.192-.003-.675-.003-1.347-.003-2.021l1.622.008c-.002-.88-.002-1.762-.002-2.643.354-.002.705-.002 1.059-.005 4.413 5.313 6.807 12.288 6.353 19.196-.558 6.59-3.565 12.937-8.327 17.529-4.8 4.775-11.435 7.585-18.195 7.814h-.962c-2.693-.106-5.394-.433-7.958-1.288-6.93-2.141-12.874-7.215-16.136-13.685-2.534-4.979-3.467-10.76-2.662-16.288 1.048-7.123 5.208-13.66 11.065-17.814z"/>
    <path d="M121.328 95.303c.58-.396 1.322-.145 1.974-.19 0 .683-.003 1.369-.008 2.054h-2.035c.02-.618-.092-1.257.07-1.864zm-.075 4.87c.677 0 1.352 0 2.03.002.016.58.038 1.16.083 1.737-.552.572-1.413.215-2.105.276-.005-.672-.008-1.344-.008-2.015Z"/>
  </g>
  <path d="M134.628 81.367c.655.008 1.313.006 1.968 0 .025.663.03 1.33.028 1.996-.663 0-1.327 0-1.99-.003-.006-.663-.006-1.327-.006-1.993zm-3.869 2.038h3.878c-.008.672-.008 1.343-.008 2.015-1.283.006-2.565.006-3.847.003-.003-.675-.008-1.346-.023-2.018zm-2.205 2.408c.6-.002 1.196-.005 1.795-.01 0 1.357-.008 2.712.011 4.066l-1.834-.014c-.003.608-.003 1.213-.003 1.82-.658-.002-1.316-.002-1.976-.005-.003-.672-.003-1.34-.003-2.01-.605.003-1.21.006-1.815.006-.003-.597-.003-1.193-.003-1.79.666-.003 1.335-.003 2.004-.005-.006.596-.011 1.193-.025 1.79.616-.004 1.232-.006 1.851-.004-.003-1.282 0-2.564-.003-3.844zm3.85 2.038.365.008c.622.017 1.243.02 1.868.026-.008.66-.012 1.32-.012 1.982-.621-.006-1.24-.006-1.862-.009.003.608.006 1.213.014 1.818-.674-.003-1.346-.003-2.018-.006.014-.672.02-1.343.022-2.015.538 0 1.08 0 1.62.002 0-.602 0-1.204.003-1.806zm-9.286 3.844c1.14.017 2.28.014 3.418 0 .006.683.006 1.363.014 2.046h2.007a628.29 628.29 0 0 0-.011-2.043c.602.006 1.207.008 1.812.011a193.221 193.221 0 0 0 0 4.014c-.536-.005-1.074-.008-1.612-.01.006.604.011 1.21.02 1.814l-.803.003-1.06.006c0 .88 0 1.761.004 2.642l-1.623-.008c0 .675 0 1.347.003 2.021-.686.006-1.39-.05-2.043.193.014.685.022 1.371.025 2.057l-.842.003-1.17-.008.002 1.996h-1.633v2.027c-.538-.006-1.08-.006-1.617-.008-.064.97.262 2.093-.432 2.902-2.682 3.802-4.661 8.05-6.384 12.357-.365.859-.58 1.943-1.497 2.4-1.807.948-4.388-.158-4.882-2.166-1.742-5.34-4.557-10.356-8.446-14.426-.678-.725-1.517-1.508-1.511-2.578-.042-.943 1-1.634 1.87-1.35 1.528.4 2.877 1.294 4.112 2.256 2.568 2.09 4.686 4.666 6.643 7.32 2.019-4.513 4.224-8.968 6.891-13.138.544.003 1.09.003 1.637.003 0-.686 0-1.372-.003-2.055h1.243c-.003-.145-.003-.435-.003-.58-.003-.401-.006-.802-.006-1.204l2.024.009c.003-1.018.003-2.038 0-3.056.63-.033 1.397.226 1.898-.27.218-.5.084-1.057.1-1.578a97.55 97.55 0 0 0 2.016-.042 37.1 37.1 0 0 0-.543-.435l.381.274v-1.397m-1.79 3.607c-.16.608-.05 1.246-.069 1.865h2.035c.006-.686.008-1.371.008-2.054-.652.044-1.394-.207-1.974.19m-.075 4.87c0 .671.003 1.343.008 2.015.691-.062 1.553.295 2.105-.276a35.993 35.993 0 0 1-.084-1.737c-.677-.003-1.352-.003-2.03-.003z" style="stroke-width:.278767" fill="#231f20"/>
</svg>
