<svg clip-rule="evenodd" fill-rule="evenodd" stroke-linejoin="round" stroke-miterlimit="2" viewBox="-0.001 67.499 500 365" xml:space="preserve" xmlns="http://www.w3.org/2000/svg" height="1em" width="1em">
  <path d="M128.282 314.72 250 244.052l202.865 117.78-121.72 70.668-202.863-117.78zm-94.67-54.962c-44.817-26.02-44.817-68.205 0-94.223l40.573-23.557 121.717 70.667-121.717 70.668-40.573-23.555zm270.475-47.113 121.718-70.667 40.572 23.557c44.818 26.018 44.818 68.203 0 94.223l-40.572 23.555-121.718-70.668zM128.272 110.57l40.573-23.555c44.815-26.02 117.475-26.02 162.29 0l40.572 23.555-121.717 70.668-121.718-70.668z" fill="#009991" fill-rule="nonzero"/>
</svg>
