<svg version="1" viewBox="0 0 55.999 55.999" xmlns="http://www.w3.org/2000/svg" height="1em" width="1em">
  <path d="M27.999 0A27.938 27.938 0 0 0 0 27.999c0 15.512 12.488 27.999 27.999 27.999S55.998 43.51 55.998 27.999A27.938 27.938 0 0 0 27.999 0z" fill="#fea238"/>
  <path d="M22.084 17.012c-.796.041-1.578.193-2.04.441-1.549.836-2.692 1.934-3.015 3.72-.085.468-.206.906-.27.972-.062.066-.372.045-.687-.045-.73-.21-1.777.034-2.67.623-.707.467-1.364 2.061-1.533 3.049-.095.557-.129.185-.683.185-.45 0-.653.093-.893.41-.408.54-.391.822.059 1.29.364.378.395.383 3.109.38 1.009 0 1.77-.027 2.295-.062a6.58 6.58 0 0 1 1.213-1.787c2.224-2.314 5.655-2.66 8.35-1.174.672-1.178 1.507-2.192 2.501-2.959-.004-.123-.134-.642-.296-1.18-.527-1.738-1.671-2.986-3.33-3.636-.507-.199-1.314-.268-2.11-.227zm11.861 4.998c-1.589-.029-3.229.441-4.678 1.441-1.385.957-2.366 2.04-2.892 3.776-.141.465-.32.846-.397.846-.077 0-.369-.511-.65-.768-1.996-1.823-5.02-1.705-6.918.27-1.413 1.469-1.672 4.036-.953 5.986.075.205-.601.368-1.3.734-1.044.549-1.722 1.33-1.98 2.285-.462 1.718.868 3.545 2.684 4.22.76.282 2.227.26 3.102-.044.648-.226 1.284-.819 5.173-4.83 5.125-5.284 5.317-5.926 7.413-5.934 1.06-.003 1.82.058 2.703.51 1.201.616 2.082 2.09 2.511 3.283.4 1.11.403 2.459.01 3.13-.344.587-1.593 1.136-2.264 1.136-.666 0-1.786-.584-2.058-1.18-.44-1.019-.504-1.98.549-2.873-2.087.054-2.336.831-3 3.217 0 1.65.836 3.235 2.212 3.658.337.104 2.213.145 5.106.114 4.358-.048 4.6-.067 5.172-.39.838-.471 1.8-1.55 2.178-2.439.374-.883.44-2.573.148-3.503-.554-1.625-3.107-3.378-4.723-2.278-.282.321-.553.04-.603-.011-.05-.052.222-.297.36-.79.183-.657.233-1.312.19-2.472-.054-1.476-.097-1.666-.683-2.92-1.256-2.69-3.764-4.126-6.412-4.174z" opacity=".2"/>
  <path d="M22.084 16.012c-.796.041-1.578.193-2.04.441-1.549.836-2.692 1.934-3.015 3.72-.085.468-.206.906-.27.972-.062.066-.372.045-.687-.045-.73-.21-1.777.034-2.67.623-.707.467-1.364 2.061-1.533 3.049-.095.557-.129.185-.683.185-.45 0-.653.093-.893.41-.408.54-.391.822.059 1.29.364.378.395.383 3.109.38 1.009 0 1.77-.027 2.295-.062a6.58 6.58 0 0 1 1.213-1.787c2.224-2.314 5.655-2.66 8.35-1.174.672-1.178 1.507-2.192 2.501-2.959-.004-.123-.134-.642-.296-1.18-.527-1.738-1.671-2.986-3.33-3.636-.507-.199-1.314-.268-2.11-.227zm11.861 4.998c-1.589-.029-3.229.441-4.678 1.441-1.385.957-2.366 2.04-2.892 3.776-.141.465-.32.846-.397.846-.077 0-.369-.511-.65-.768-1.996-1.823-5.02-1.705-6.918.27-1.413 1.469-1.672 4.036-.953 5.986.075.205-.601.368-1.3.734-1.044.549-1.722 1.33-1.98 2.285-.462 1.718.868 3.545 2.684 4.22.76.282 2.227.26 3.102-.044.648-.226 1.284-.819 5.173-4.83 5.125-5.284 5.317-5.926 7.413-5.934 1.06-.003 1.82.058 2.703.51 1.201.616 2.082 2.09 2.511 3.283.4 1.11.403 2.459.01 3.13-.344.587-1.593 1.136-2.264 1.136-.666 0-1.786-.584-2.058-1.18-.44-1.019-.504-1.98.549-2.873-2.087.054-2.336.831-3 3.217 0 1.65.836 3.235 2.212 3.658.337.104 2.213.145 5.106.114 4.358-.048 4.6-.067 5.172-.39.838-.471 1.8-1.55 2.178-2.439.374-.883.44-2.573.148-3.503-.554-1.625-3.107-3.378-4.723-2.278-.282.321-.553.04-.603-.011-.05-.052.222-.297.36-.79.183-.657.233-1.312.19-2.472-.054-1.476-.097-1.666-.683-2.92-1.256-2.69-3.764-4.126-6.412-4.174z" fill="#fff"/>
</svg>
