<svg xmlns="http://www.w3.org/2000/svg" viewBox="0 0 200 100" height="1em" width="1em">
  <path fill="#B5111B" d="M104.128 53.896c-1.338-.378-2.987-.696-4.067-.696-3.943 0-6.55 2.415-6.55 6.101 0 1.906.891 3.625 2.481 4.897 1.398 1.077 2.289 1.523 8.261 4.51 4.259 2.1 6.103 3.497 7.31 5.403.952 1.463 1.464 3.495 1.464 5.532 0 2.73-.893 5.273-2.736 7.753-2.73 3.561-6.989 5.401-12.711 5.401-1.334 0-2.671-.128-4.259-.378-3.11-.446-4.324-.827-7.311-2.29 1.148-2.478 1.399-3.369 1.908-6.358 2.036 1.719 2.922 2.355 4.384 3.055a14.506 14.506 0 0 0 6.614 1.585c5.082 0 8.579-2.921 8.579-7.245 0-2.097-1.077-3.878-3.307-5.401-1.457-1.014-2.415-1.46-5.718-2.985-3.242-1.464-4.447-2.1-5.977-3.183-2.984-2.097-4.382-4.827-4.382-8.58 0-3.242 1.272-6.293 3.431-8.455 2.414-2.412 5.466-3.494 9.981-3.494 2.094 0 4.068.252 6.103.698 1.457.318 2.225.571 4.128 1.272-.636 1.143-.762 1.464-1.142 2.54-.446 1.339-.571 1.781-.893 3.18-2.414-1.653-3.496-2.163-5.591-2.862m36.802 1.403a67.782 67.782 0 0 0-6.738-.383h-6.8l-.065 2.542v10.106h7.501c2.927 0 4.134-.065 7.566-.571-.256 1.651-.321 2.415-.321 3.242 0 .698.065 1.713.19 3.049-4.003-.506-5.657-.637-8.322-.637h-6.679v5.404c0 7.631 0 8.58.445 14.114-1.778-.193-3.111-.259-4.003-.259-.762 0-1.844.065-3.307.19.255-2.603.38-4.64.511-5.912.065-1.46.125-4.446.125-9.023V59.745c-.125-3.176-.19-5.213-.445-10.236l4.323.128 7.501.065h6.483c1.464 0 2.35 0 4.83-.318-.255 1.591-.315 2.29-.315 3.177 0 .701.061 1.719.19 3.054-1.206-.193-2.099-.257-2.67-.316m19.451-.194c0 .384-.065 1.398-.065 2.986-.06 1.591-.125 2.796-.125 3.498v12.967c.065 6.608.125 7.37 1.397 9.279 1.589 2.35 5.782 4.003 10.297 4.003 3.177 0 5.531-.508 7.691-1.844 1.147-.699 2.034-1.458 2.545-2.159 1.333-1.972 1.523-3.495 1.523-10.489V63.43c0-3.369-.065-6.418-.256-8.958-.06-1.912-.19-2.799-.44-5.026 1.397.131 2.475.256 3.177.256.695 0 1.778-.125 3.241-.256-.065.89-.125 1.528-.19 1.972-.065 1.018-.131 2.927-.131 5.595-.06 3.497-.125 5.653-.125 6.483l.065 9.98c0 10.294-.957 13.09-5.406 16.206-3.046 2.16-6.483 2.986-12.01 2.986-5.912 0-9.154-.762-12.141-2.86-1.588-1.077-2.861-2.413-3.753-3.876-1.463-2.415-1.653-3.685-1.653-9.726l-.06-15.126v-6.42c-.065-1.972-.131-2.858-.381-5.276 1.647.193 2.855.318 3.682.318s2.035-.065 3.623-.256c-.315 2.478-.38 3.433-.505 5.659"/>
</svg>
