<svg clip-rule="evenodd" fill-rule="evenodd" stroke-linejoin="round" stroke-miterlimit="2" viewBox="0 0 500 500" xml:space="preserve" xmlns="http://www.w3.org/2000/svg" height="1em" width="1em">
  <path d="M387.512 0h-275C50.38 0 .013 50.368.013 112.501v275c0 62.133 50.368 112.501 112.5 112.501h275c62.133 0 112.502-50.368 112.502-112.501v-275C500.014 50.368 449.645 0 387.512 0z" fill="#fff" fill-rule="nonzero"/>
  <path d="M387.512 0h-275C50.38 0 .013 50.368.013 112.501v275c0 62.133 50.368 112.501 112.5 112.501h275c62.133 0 112.502-50.368 112.502-112.501v-275C500.014 50.368 449.645 0 387.512 0z" fill="#d8a158" fill-rule="nonzero"/>
  <path d="M156.558 210.493c-21.954 0-39.82 17.673-39.82 39.4 0 21.72 17.866 39.395 39.82 39.395 21.953 0 39.814-17.674 39.814-39.395 0-21.727-17.861-39.4-39.814-39.4zm.001 64.643c-13.923 0-25.244-11.321-25.244-25.238 0-13.919 11.32-25.24 25.244-25.24 13.922 0 25.25 11.321 25.25 25.24 0 13.917-11.328 25.238-25.25 25.238zm110.338-19.476L218.9 211.384v75.069h14.222v-41.917l48 44.21v-75.26h-14.224v42.175zm-190.53-12.597c7.41 2.327 12.38 4.633 16.157 7.483 5.628 4.245 8.482 9.686 8.482 16.151 0 6.027-2.819 11.904-7.736 16.128-4.939 4.232-11.716 6.57-19.089 6.57-15.342 0-24.16-10.173-24.523-10.6l-1.254-1.468 11.47-7.664.996.734c1.846 1.37 6.848 4.554 13.311 4.554 7.654 0 12.232-4.194 12.232-8.254 0-1.729 0-5.325-14.417-9.859-7.413-2.329-12.38-4.633-16.157-7.484-5.63-4.245-8.489-9.681-8.489-16.15 0-6.029 2.82-11.906 7.74-16.129 4.935-4.237 11.712-6.57 19.087-6.57 15.34 0 24.157 10.165 24.529 10.6l1.247 1.47-11.464 7.663-.995-.736c-1.854-1.372-6.868-4.557-13.317-4.557-7.654 0-12.229 4.2-12.229 8.258 0 1.73 0 5.324 14.42 9.86zm267.089-32.277c-21.95 0-39.81 17.674-39.81 39.398s17.86 39.397 39.81 39.397c21.96 0 39.82-17.673 39.82-39.397s-17.86-39.398-39.82-39.398zm-.002 64.638c-13.921 0-25.242-11.325-25.242-25.24 0-13.914 11.321-25.235 25.242-25.235s25.248 11.321 25.248 25.235c0 13.915-11.327 25.24-25.248 25.24zm80.197-18.407c-7.415-2.333-12.382-4.637-16.16-7.488-5.629-4.248-8.475-9.682-8.475-16.153 0-6.021 2.815-11.9 7.732-16.127 4.938-4.237 11.714-6.57 19.089-6.57 15.339 0 24.158 10.17 24.522 10.6l1.25 1.47-11.465 7.668-.996-.739c-1.852-1.367-6.847-4.553-13.311-4.553-7.658 0-12.235 4.194-12.235 8.251 0 1.73 0 5.326 14.42 9.86 7.415 2.326 12.383 4.633 16.159 7.484 5.629 4.246 8.48 9.685 8.48 16.151 0 6.03-2.818 11.906-7.737 16.127-4.934 4.24-11.71 6.573-19.087 6.573-15.34 0-24.155-10.168-24.522-10.6l-1.254-1.473 11.468-7.659.995.732c1.852 1.371 6.865 4.557 13.313 4.557 7.656 0 12.233-4.198 12.233-8.257 0-1.729 0-5.326-14.42-9.854z"/>
</svg>
