<svg clip-rule="evenodd" fill-rule="evenodd" stroke-linejoin="round" stroke-miterlimit="2" viewBox="0 0 500 499.99" xml:space="preserve" xmlns="http://www.w3.org/2000/svg" height="1em" width="1em">
  <path fill="#00a0e3" d="M0 0h500v499.992H0z"/>
  <path d="M216.747 147.373v91.515H140.53v-91.515H83.332v-64.05h190.514v64.05h-57.1zm96.64-.075h98.548l-91.698 91.582 96.431 91.615H318.22l-91.55-91.615 86.716-91.582zm-189.122 216.73-1.034 7.616h-15.3v45.008h-9.24v-45.008H82.356l.967-7.616h40.94zm66.232 51.965c-1.633.492-3.225.85-4.767 1.067-1.55.225-3.2.333-4.916.333-3.359 0-6.133-.425-8.358-1.291-2.217-.859-3.992-2.092-5.317-3.692-1.333-1.6-2.283-3.517-2.85-5.725-.567-2.225-.85-4.683-.85-7.4v-3.766c0-2.709.358-5.175 1.075-7.4.708-2.209 1.808-4.1 3.283-5.683 1.484-1.575 3.367-2.784 5.659-3.625 2.291-.834 5.041-1.25 8.241-1.25 1.925 0 3.733.141 5.433.441a37.69 37.69 0 0 1 4.692 1.109l-1.475 6.5c-.983-.3-2.075-.542-3.25-.742-1.183-.192-2.492-.283-3.917-.283-3.9 0-6.641.833-8.208 2.508-1.575 1.675-2.366 4.533-2.366 8.566v3.109c0 4.241.85 7.233 2.55 8.983 1.691 1.75 4.541 2.625 8.533 2.625 1.383 0 2.75-.084 4.108-.259s2.625-.383 3.808-.625l-1.108 6.5zm10.641.667v-54.257l9.025-1.259v20.483c1.217-1.375 2.775-2.425 4.65-3.15 1.867-.708 3.933-1.066 6.208-1.066 2.067 0 3.95.266 5.65.808 1.709.55 3.167 1.375 4.4 2.483 1.242 1.1 2.192 2.5 2.884 4.175.691 1.667 1.041 3.642 1.041 5.908v25.875h-9.025v-23.425c0-3.108-.566-5.308-1.7-6.625-1.125-1.3-3.033-1.958-5.683-1.958-2.916 0-5.041.759-6.4 2.292-1.358 1.525-2.025 3.966-2.025 7.316v22.4h-9.025zm45.308 0v-37.85l7.758-1.1.667 4.717c1.233-1.625 2.817-2.858 4.767-3.725 1.95-.858 4.174-1.291 6.691-1.291 2.075 0 3.958.266 5.65.808 1.7.55 3.175 1.375 4.408 2.483 1.225 1.1 2.192 2.5 2.875 4.175.692 1.667 1.042 3.642 1.042 5.908v25.875h-9.025v-23.425c0-3.108-.567-5.308-1.692-6.625-1.133-1.3-3.041-1.958-5.7-1.958-2.9 0-5.033.759-6.391 2.292-1.358 1.525-2.025 3.966-2.025 7.316v22.4h-9.025zm50.183-53.74c1.925 0 3.316.433 4.175 1.3.866.857 1.3 2.074 1.3 3.65 0 1.582-.434 2.8-1.3 3.666-.859.866-2.25 1.291-4.175 1.291-1.917 0-3.309-.425-4.175-1.291s-1.284-2.084-1.284-3.667c0-1.575.417-2.792 1.284-3.65.866-.866 2.258-1.3 4.175-1.3m-4.509 16.042 9.017-1.25v38.949h-9.017v-37.7zm29.892 20.066v17.633h-8.65v-54.257l8.65-1.25v31.224l14.79-14.075h10.192l-17.95 17.108 18.617 21.25h-10.566l-15.083-17.633zm93.99-12.892c-.592-.15-1.3-.3-2.134-.45a15.69 15.69 0 0 0-2.591-.225c-3.259 0-5.608.859-7.058 2.55-1.45 1.7-2.184 4.309-2.184 7.8v20.85h-9.025v-37.841l7.767-1.117.658 5.175c1.234-1.675 2.767-2.941 4.592-3.8 1.816-.866 4.008-1.3 6.575-1.3.983 0 1.858.059 2.633.184.758.125 1.55.333 2.392.633l-1.625 7.541zm-277.304-97.481c1.925 0 3.308.433 4.175 1.291.866.867 1.3 2.084 1.3 3.659 0 1.583-.434 2.791-1.3 3.658s-2.25 1.3-4.175 1.3-3.317-.433-4.175-1.3c-.867-.867-1.292-2.075-1.292-3.658 0-1.575.425-2.792 1.292-3.659.858-.858 2.25-1.291 4.175-1.291m-4.508 16.033 9.024-1.25v38.95h-9.024v-37.7zm-49.583-14.925 16.541.008c4.434 0 8.109.575 11.017 1.759 2.9 1.183 5.225 2.816 6.941 4.916 1.734 2.1 2.934 4.584 3.625 7.475.692 2.875 1.042 6.017 1.042 9.425v5.383c0 3.5-.375 6.692-1.117 9.575s-1.966 5.375-3.691 7.467c-1.725 2.1-4.05 3.725-6.983 4.875-2.934 1.166-6.567 1.741-10.909 1.741H83.34V291.08c0-.734.709-1.317 1.267-1.317m7.967 44.933h7.758c2.316 0 4.35-.267 6.1-.809s3.2-1.441 4.366-2.7c1.15-1.25 2.034-2.95 2.625-5.058.592-2.117.884-4.766.884-7.908v-4.367c0-3.158-.284-5.791-.842-7.908-.567-2.117-1.433-3.808-2.6-5.066-1.15-1.25-2.592-2.134-4.317-2.659-1.733-.516-3.775-.775-6.133-.775h-7.841v37.25zm90.106-27.643c-2.766-2.616-6.683-3.916-11.758-3.916-3.058 0-5.675.441-7.866 1.333-2.192.883-4.009 2.142-5.434 3.767-1.433 1.625-2.483 3.566-3.141 5.841-.667 2.267-1 4.775-1 7.534v3.108c0 3.05.3 5.725.917 8.025.616 2.291 1.658 4.216 3.108 5.8 1.45 1.575 3.358 2.758 5.691 3.55 2.342.783 5.234 1.183 8.692 1.183 1.083 0 2.192-.042 3.325-.117a42.356 42.356 0 0 0 3.325-.333 44.201 44.201 0 0 0 2.991-.517c.917-.2 1.717-.425 2.409-.666l1.183-6.434c-2.083.4-3.9.667-5.475.817s-3.183.225-4.808.225c-3.65 0-6.375-.425-8.208-1.258-1.817-.842-3.05-2.342-3.692-4.509l23.208-10.274c.442-.192.667-.542.667-1.042v-1.025c0-4.783-1.375-8.475-4.134-11.092m-18.441 5.359c1.3-1.75 3.45-2.625 6.467-2.625 2.508 0 4.366.583 5.533 1.741 1.125 1.092 1.825 2.667 2.1 4.717l-16.058 7.15v-2.367c0-3.991.65-6.866 1.958-8.616m-13.099 68.915c-2.776-2.616-6.692-3.925-11.767-3.925-3.05 0-5.675.442-7.867 1.342-2.191.883-4 2.142-5.433 3.767-1.425 1.625-2.475 3.566-3.133 5.841-.675 2.267-1 4.775-1 7.533v3.109c0 3.05.3 5.725.916 8.016.617 2.3 1.65 4.233 3.109 5.808 1.45 1.575 3.35 2.759 5.683 3.55 2.35.784 5.241 1.184 8.691 1.184 1.084 0 2.192-.042 3.325-.117s2.242-.183 3.325-.325a46.539 46.539 0 0 0 2.992-.525 19.05 19.05 0 0 0 2.408-.675l1.184-6.417c-2.075.392-3.9.659-5.475.817a53.568 53.568 0 0 1-4.8.208c-3.642 0-6.384-.416-8.2-1.25-1.833-.841-3.058-2.35-3.708-4.508l23.216-10.275c.442-.2.667-.55.667-1.041v-1.025c0-4.784-1.384-8.483-4.134-11.092m-18.45 5.358c1.309-1.75 3.459-2.624 6.475-2.624 2.509 0 4.359.575 5.542 1.741 1.108 1.092 1.808 2.667 2.092 4.708l-16.067 7.15v-2.366c0-3.992.65-6.859 1.959-8.609m247.104-5.358c-2.767-2.616-6.692-3.925-11.758-3.925-3.059 0-5.683.442-7.875 1.342-2.192.883-4 2.142-5.425 3.767-1.433 1.625-2.483 3.566-3.142 5.841-.666 2.267-1.008 4.775-1.008 7.533v3.109c0 3.05.308 5.725.925 8.016.617 2.3 1.658 4.233 3.108 5.808s3.35 2.759 5.692 3.55c2.342.784 5.233 1.184 8.691 1.184 1.084 0 2.192-.042 3.325-.117a51.983 51.983 0 0 0 3.317-.325 50.156 50.156 0 0 0 3-.525 19.05 19.05 0 0 0 2.408-.675l1.184-6.417c-2.084.392-3.9.659-5.475.817a53.755 53.755 0 0 1-4.809.208c-3.65 0-6.375-.416-8.2-1.25-1.833-.841-3.066-2.35-3.7-4.508l23.209-10.275c.441-.2.666-.55.666-1.041v-1.025c0-4.784-1.375-8.483-4.133-11.092m-18.45 5.358c1.309-1.75 3.458-2.624 6.475-2.624 2.508 0 4.358.575 5.533 1.741 1.125 1.092 1.825 2.667 2.1 4.708l-16.058 7.15v-2.366c0-3.992.65-6.859 1.95-8.609" fill="#fff" fill-rule="nonzero"/>
</svg>
