<svg xmlns="http://www.w3.org/2000/svg" viewBox="20.669 21.06 3620.691 4624.55" height="1em" width="1em">
  <path d="M1340.43 280.53c163.54-86.47 327-173.1 490.59-259.47 595.6 314.97 1191.1 630.13 1786.67 945.17 7.79 4.33 15.94 8.06 23.57 12.71.02 113.69 0 227.39.01 341.08-.07 32.5.12 65-.1 97.5-67.43-35.32-134.61-71.17-201.95-106.68-273.17-144.54-546.36-289.05-819.53-433.58-262.92-139.04-525.76-278.23-788.71-417.2-544.14 287.79-1088.23 575.69-1632.33 863.55-59.3 31.24-118.42 62.85-177.81 93.9-.21-146.2-.05-292.41-.08-438.62 27.94-15.25 56.25-29.82 84.33-44.82 411.78-217.84 823.56-435.69 1235.34-653.54Z" style="fill:#010d1c;fill-opacity:.2"/>
  <path d="M224.05 1440.07c61.67-32.66 123.13-65.72 184.88-98.23.11 614.4 0 1228.79.04 1843.19-.04 42.64.06 85.27-.04 127.92-127.35-67.91-254.59-136.06-381.88-204.09-2.32-1.66-6.95-2.15-6.32-5.88.04-312.32 0-624.64.02-936.97.09-106.99-.22-213.99 0-320.99-.01-98.02.02-196.05-.02-294.07-.03-1.43.03-3.08 1.66-3.5 67.2-35.84 134.47-71.54 201.66-107.38Zm3029.04-98.23c66.74 35.2 133.23 70.89 199.89 106.24 61.78 32.91 123.58 65.79 185.38 98.67 1.23.76 3.18 1.32 2.88 3.24.11 115-.1 230.02.12 345.02-.2 403.03-.03 806.05-.11 1209.07.06 2.26-2.8 2.66-4.27 3.74-128 68.31-255.87 136.87-383.9 205.12-.11-435.65-.01-871.3-.04-1306.94-.01-221.38-.05-442.78.05-664.16Z" style="fill:#010d1c;fill-opacity:.2"/>
  <path d="M20.83 3249.09c135.25 71.33 270.34 142.99 405.53 214.45 468.22 247.67 936.38 495.47 1404.65 743.06 547.58-289.57 1095.05-579.33 1642.61-868.95 55.84-29.52 111.62-59.18 167.54-88.56.25 113.32.03 226.64.11 339.96-.08 32.94.15 65.9-.12 98.85-121.13 64.38-242.51 128.31-363.71 192.56-482.18 255-964.25 510.21-1446.45 765.15-546.71-289.11-1093.32-578.41-1640.01-867.57-56.69-30.12-113.57-59.9-170.18-90.18-.13-112.27-.01-224.54-.05-336.8.06-33.99-.12-67.99.08-101.97Z" style="fill:#010d1c;fill-opacity:.2"/>
  <path d="M548.49 1282.51c428.28-232.89 856.56-465.8 1284.83-698.72 428.31 232.86 856.55 465.87 1284.89 698.7-428.3 232.91-856.58 465.86-1284.89 698.74-428.28-232.91-856.55-465.83-1284.83-698.72Z" style="fill:#0072b8"/>
  <path d="M539.87 1403.24c428.12 233.87 856.3 467.64 1284.43 701.48 3.01 1.66 6.08 3.24 9.04 5.03-.16 138.04.01 276.08-.08 414.12-321.49-175.56-642.96-351.13-964.44-526.69-109.65-59.93-219.39-119.71-328.99-179.74.1-138.07.01-276.13.04-414.2Zm.01 517.64c431.15 235.4 862.26 470.87 1293.38 706.31.02 138.1.03 276.19 0 414.29-431.1-235.54-862.3-470.86-1293.39-706.41.01-138.06-.01-276.13.01-414.19Zm-.01 517.49c431.08 235.56 862.3 470.89 1293.4 706.42.01 138.08.02 276.16-.01 414.24-420.27-229.52-840.54-459.05-1260.82-688.55-10.86-6.07-21.94-11.75-32.67-18.02.23-138.03.03-276.06.1-414.09Zm.01 517.63c431.13 235.46 862.28 470.88 1293.4 706.36v414.3c-431.09-235.58-862.33-470.88-1293.42-706.44.02-138.08 0-276.15.02-414.22Z" style="fill:#7c99c0"/>
  <path d="M2676.29 1649.19c150.08-82.02 300.22-163.91 450.28-245.95-.02 138.11 0 276.22-.01 414.33-431.12 235.4-862.23 470.82-1293.3 706.3.09-138.04-.08-276.08.08-414.12l.01-.31c281.04-153.3 561.94-306.87 842.94-460.25Zm-843.03 978c431.09-235.47 862.2-470.9 1293.32-706.3-.05 138.09.01 276.18-.03 414.26-431.09 235.46-862.23 470.82-1293.29 706.33.03-138.1.02-276.19 0-414.29Zm.01 517.6c431.07-235.51 862.24-470.84 1293.31-706.35-.03 138.1-.01 276.2-.01 414.31-431.11 235.42-862.2 470.86-1293.31 706.28.03-138.08.02-276.16.01-414.24Zm.01 517.57c431.11-235.42 862.2-470.87 1293.32-706.29-.09 138.1 0 276.19-.05 414.29-431.09 235.44-862.21 470.81-1293.27 706.3v-414.3Z" style="fill:#094490"/>
</svg>
