<svg clip-rule="evenodd" fill-rule="evenodd" stroke-linejoin="round" stroke-miterlimit="2" viewBox="-0.005 0 500 500" xml:space="preserve" xmlns="http://www.w3.org/2000/svg" height="1em" width="1em">
  <path d="M499.58 242.605S511.149 0 244.51 0C8.704 0 1.337 232.721 1.337 232.721S-33.348 500.01 249.942 500.01c271.706 0 249.639-257.405 249.639-257.405zM169.909 157.83c50.029-30.607 113.945-11.9 137.894 34.128 4.538 8.723 5.115 22.152 2.242 31.304-9.926 31.594-33.358 49.312-65.522 56.84 9.482-8.12 17.03-17.324 19.432-30.043a44.028 44.028 0 0 0-7.571-34.927c-11.676-16.04-32.716-22.452-51.353-15.649-19.802 7.518-30.65 25.59-28.694 47.806 1.817 20.635 17.474 34.009 46.77 39.09-4.38 2.316-7.75 4.022-11.051 5.86a106.54 106.54 0 0 0-34.24 29.781c-2.974 4.014-5.017 4.337-9.546 1.569-58.898-36.018-62.683-126.41 1.639-165.759zm-44.083 222.555c-9.462 2.402-18.63 5.957-28.302 9.13 4.73-31.92 42.109-61.316 73.718-57.963a81.484 81.484 0 0 0-15.404 43.158c-10.503 1.933-20.402 3.235-30.012 5.673v.002zm201.32-311.64c9.35.344 18.718.202 28.075.424 2.335.153 4.656.476 6.945.966a67.655 67.655 0 0 1-7.059 9.057c-3.345 3.117-7.125 6.164-11.943 1.427-1.16-1.14-3.899-.878-5.915-.905-9.304-.122-18.62-.42-27.911-.068a173.378 173.378 0 0 0-24.042 2.455c-1.49.266-3.717 5.218-3.032 7.045 1.615 4.308 3.972 9.06 7.464 11.815 12.9 10.184 26.62 19.327 39.58 29.44 12.594 9.83 24.316 20.598 31.46 35.423 9.306 19.317 9.578 39.572 5.563 59.918-6.7 33.964-23.889 62.103-51.721 82.541-11.214 8.236-25.1 12.91-37.946 18.826-11.297 5.205-22.925 9.687-34.249 14.835-20.415 9.284-31.889 31.442-28.514 54.481 3.098 21.142 21.645 38.786 42.893 42.428 25.487 4.37 51.786-12.194 58.02-38.101 7.013-29.13-8.814-55.14-38.442-63.023-1.303-.347-2.613-.675-5.335-1.378 7.925-3.54 14.77-6.064 21.089-9.54a580.757 580.757 0 0 0 32.469-19.27c3.123-2 4.812-2 7.475.302 20.375 17.618 32.53 39.531 35.94 66.4 5.64 44.474-15.413 85.332-55.122 106.272-61.435 32.4-136.611-4.476-150.18-72.588-11.622-58.34 29.551-111.259 79.105-121.476 21.312-4.393 40.801-13.265 55.951-29.679 9.777-10.59 14.516-19.677 16.13-23.777a65.957 65.957 0 0 0 4.536-24.115 56.437 56.437 0 0 0-4.944-20.664c-5.173-11.792-24.992-30.55-29.899-34.507l-46.667-36.536c-1.645-1.353-3.499-1.255-7.514-.983-4.768.323-16.958.998-22.218-.38 4.255-3.222 15.857-7.91 20.837-11.679-15.122-10.217-32.384-6.527-48.236-9.578 3.666-6.826 21.802-17.317 32.117-18.486a152.39 152.39 0 0 0-2.812-17.135c-.63-2.319-3.218-4.567-5.478-5.892-5.477-3.212-11.282-5.862-17.582-9.055a36.554 36.554 0 0 1 18.887-5.842 70.579 70.579 0 0 1 18.914 1.842c11.238 2.568 20.207.891 29.147-6.747-7.037-2.833-14.072-5.422-20.897-8.484a205.059 205.059 0 0 1-19.632-10.265c17.703 2.46 34.827 9.099 52.93 6.674.154-.824.307-1.647.462-2.469l-42.049-9.788c25.067-2.294 48.405-2.674 70.503 8.092 6.219 3.028 12.726 5.535 18.686 8.995 2.906 1.687 4.863 5.013 7.248 7.598 1.895 2.055 3.417 4.807 5.744 6.045 8.833 4.697 18.557 4.882 28.464 4.646.075-1.127.143-2.185.218-3.322 9.97 3.115 21.192 14.613 21.174 23.01-16.152 0-32.291-.061-48.428.09-1.725.017-3.437 1.277-5.155 1.959 1.632.951 3.237 2.666 4.903 2.728l-.006-.002z" fill="#88171a" fill-rule="nonzero"/>
  <path d="M306.31 44.844a2.467 2.467 0 0 0-.315 3.949 3.725 3.725 0 0 0 5.12 1.37c1.555-.785 3.08-1.62 4.959-2.612-1.514-1.292-2.727-2.358-3.977-3.387-2.197-1.81-4.018-.673-5.787.68z" fill="#88171a" fill-rule="nonzero"/>
</svg>
