<svg viewBox="0 0 676 400" xmlns="http://www.w3.org/2000/svg" style="fill-rule:evenodd;clip-rule:evenodd;stroke-linejoin:round;stroke-miterlimit:2" height="1em" width="1em">
  <path d="M663.501 39.126c24.006 38.849 12.448 90.273-26.228 114.526-25.757 16.181-56.759 15.96-81.788 3.089l-.015.02-.404-.178-.415-.179c-2.288-.965-4.677-1.698-8.85-2.334-4.543-.693-9.672-.204-15.389 1.467l-.284.084a39.921 39.921 0 0 0-8.176 4.047c-16.504 10.449-21.679 32.342-11.645 48.903l38.318 62.03c24.006 38.849 12.447 90.273-26.228 114.526-38.454 24.253-89.355 12.575-113.36-26.498l-37.565-60.856c-10.447-16.842-32.452-22.007-48.9-11.453-10.563 6.67-16.55 18.181-16.669 29.959l-.002.357c0 27.846-13.559 55.017-38.676 70.737-38.453 24.252-89.354 12.575-113.36-26.499L12.499 127.272C-11.507 88.423.051 36.998 38.727 12.746 77.181-11.507 128.082.17 152.087 39.244l37.787 66.08c10.342 16.674 32.013 21.903 48.405 11.765l.495-.312c10.447-6.512 16.226-20.74 16.671-32.193-.445-28.295 13.336-55.916 38.676-71.859 38.453-24.253 89.354-12.576 113.36 26.498l38.009 64.529c10.447 16.842 32.452 22.007 48.9 11.453 3.877-2.459 7.476-6.701 10.798-12.724-1.293 2.453-1.176 2.207.352-.739 2.292-4.419 3.767-7.915 4.426-10.488a59.947 59.947 0 0 0 1.402-7.218c3.008-31.811 13.749-55.475 38.773-71.409 38.454-24.252 89.355-12.575 113.36 26.499Z" style="fill:#67eadd"/>
</svg>
