<svg clip-rule="evenodd" fill-rule="evenodd" stroke-linejoin="round" stroke-miterlimit="2" viewBox="0 0 500 500" xml:space="preserve" xmlns="http://www.w3.org/2000/svg" height="1em" width="1em">
  <g transform="scale(1.7639)">
    <circle cx="141.73" cy="141.73" r="141.73"/>
    <path d="M247.33 194.17c-47.42-16.51-85.29 14.76-125 11.42-27-2.26-39.23-12.82-44.54-20-3-4.12-1-5.19.2-4.68.63.27 1.75.9 2.46 1.3 12.33 7.06 42.91 19.09 88.78 5.09 45-13.74 76.45-2.59 79.74 5.18a1.276 1.276 0 0 1-1.162 1.784c-.164 0-.326-.032-.478-.094z" fill="#fff" fill-rule="nonzero"/>
    <path d="M40.38 190.84c-3.77 0-6.25-2.6-6.25-5.9s2.36-5.78 6.25-5.9c4.13-.12 6.37-1.3 8.49-7.08l1.65-4.6-18.75-45.86a7.253 7.253 0 0 1-.71-3.07c.023-3.44 2.86-6.257 6.3-6.257.1 0 .2.002.3.007 3.07 0 5 1.65 6.13 4.72L56.66 151h.24L69 116.9c1.06-3.07 3.07-4.72 6.13-4.72l.201-.003c3.384 0 6.17 2.785 6.17 6.17l-.001.083a9.397 9.397 0 0 1-.5 3.07l-20.92 53.19c-5 12.62-9.67 16.16-18.87 16.16l-.83-.01zm47.9-35.73a44.043 44.043 0 0 1-2-13.91 45.247 45.247 0 0 1 1.89-14c3.18-9.91 11.91-15.69 23.23-15.69 11.67 0 20.17 6 23.35 15.69a45.604 45.604 0 0 1 1.89 13.68c.009.114.014.229.014.344 0 2.342-1.928 4.27-4.27 4.27-.115 0-.23-.005-.344-.014h-31.73a.634.634 0 0 0-.71.71c.015 1.491.296 2.968.83 4.36 1.89 5.54 6.37 8.61 12.85 8.61 4.84 0 8-1.41 11.67-3.89a8.559 8.559 0 0 1 4.84-1.89c.096-.005.192-.008.288-.008 2.885 0 5.26 2.375 5.26 5.26 0 .096-.003.192-.008.288a6.226 6.226 0 0 1-2.71 5.19c-5.07 4.13-11.32 6.84-20.52 6.84-12.1-.04-20.63-5.95-23.82-15.84zM122.6 130c-1.53-4.6-5.78-7.31-11.09-7.31s-9.67 2.71-11.2 7.31a14.402 14.402 0 0 0-.71 4.84.634.634 0 0 0 .71.71h22.29a.634.634 0 0 0 .71-.71c.04-1.642-.2-3.279-.71-4.84zm39.22 40.32c-11.56 0-15.57-5.78-15.57-16.63v-57.9c0-4.36 2.71-7 6.6-7s6.6 2.59 6.6 7v56.84c0 4 1.3 5.42 4.6 5.9 3.89.47 5.54 2.83 5.54 5.78 0 3.42-2.12 6-6.84 6l-.93.01zm30.57 0c-11.56 0-15.57-5.78-15.57-16.63v-57.9c0-4.36 2.71-7 6.6-7s6.6 2.59 6.6 7v56.84c0 4 1.3 5.42 4.6 5.9 3.89.47 5.54 2.83 5.54 5.78 0 3.42-2.12 6-6.84 6l-.93.01zm13.76-15.09c-1.3-4-1.89-7.78-1.89-14s.59-10 1.89-14c3.18-9.91 11.91-15.69 23.47-15.69s20.16 5.78 23.35 15.69c1.3 4 1.89 7.78 1.89 14s-.59 10-1.89 14c-3.18 9.9-11.91 15.68-23.35 15.68s-20.29-5.78-23.47-15.68zm34.08-3.54c.94-2.95 1.18-5.66 1.18-10.49s-.24-7.43-1.18-10.5c-1.65-4.72-5.31-7.43-10.61-7.43s-9.08 2.71-10.73 7.43c-.94 3.07-1.18 5.66-1.18 10.5s.24 7.55 1.18 10.49c1.65 4.72 5.42 7.43 10.73 7.43s8.96-2.71 10.61-7.43z" fill="#fff100" fill-rule="nonzero"/>
  </g>
</svg>
