<svg xmlns="http://www.w3.org/2000/svg" viewBox="0 0 20 20" height="1em" width="1em">
  <path fill="#555" d="M17.394.22a.7.7 0 0 1 .986-.033.69.69 0 0 1 .034.98l-7.473 7.948 3.269 3.476a3.956 3.956 0 0 1 1.837-.448c2.183 0 3.953 1.759 3.953 3.928C20 18.241 18.23 20 16.047 20c-2.184 0-3.954-1.759-3.954-3.929a3.9 3.9 0 0 1 1.011-2.624l-3.117-3.316-3.104 3.303a3.9 3.9 0 0 1 1.024 2.637c0 2.17-1.77 3.929-3.954 3.929C1.77 20 0 18.241 0 16.071s1.77-3.928 3.953-3.928c.657 0 1.276.158 1.82.44l3.259-3.468-7.47-7.948a.69.69 0 0 1 .033-.98.7.7 0 0 1 .986.033L9.987 8.1ZM3.954 13.53a2.55 2.55 0 0 0-2.559 2.541 2.55 2.55 0 0 0 2.558 2.542 2.55 2.55 0 0 0 2.559-2.542 2.55 2.55 0 0 0-2.559-2.542Zm12.093 0a2.55 2.55 0 0 0-2.559 2.541 2.55 2.55 0 0 0 2.559 2.542 2.55 2.55 0 0 0 2.558-2.542 2.55 2.55 0 0 0-2.558-2.542Z"/>
</svg>
