<svg viewBox="0 0 1024 1024" xmlns="http://www.w3.org/2000/svg" height="1em" width="1em">
  <path d="M225.121 0h573.758q223.129 0 223.129 223.128v573.76q0 223.128-223.129 223.128H225.121q-223.129 0-223.129-223.129V223.128Q1.992 0 225.121 0Z" fill="#FFF"/>
  <path d="M429.84 177.04v193.21c.097 16.718 1.686 24.843 22.035 24.843 12.017 0 24.034-.67 35.72 0 19.644 1.275 17.333 17.08 17.05 33.05l-.024 2.567v77.608c-7.013-14.782-29.907-9.742-46.562-7.39-11.105 1.57-25.963 1.234-44.574-1.009-9.025-1.295-13.07-5.725-14.24-14.196l-.116-.92v-221.75c-94.14 43.677-156.23 141.447-156.23 245.939 0 131.717 98.48 247.632 227.75 267.212l3.925.566V634.984c0-6.718 2.67-13.44-4.674-13.44l-6.47.18c-13.918.41-24.736.944-32.454 1.601l-1.135.1c-13.069 1.18-29.7-1.295-30.361-15.444l-.016-.884-.004-102.293.035.578c.415 5.227 3.148 9.144 8.208 10.774l.773.227c16.345 3.873 37.8 2.191 53.782.542l10.03-1.088c14.347-1.482 29.476-1.849 31.994 11.97l.339 93.737h15.356v-93.738c0-11.881 18.205-15.165 43.701-11.618l3.714.53c24.787 3.402 55.905 3.785 57.682-12.193l.056-.733v103.305c0 27.572-62.663 12.447-72.138 15.025l-.303.095c-3.849 1.291-4.144 7.555-4.08 11.6l.076 2.848v140.774c131.195-17.806 231.679-135.064 231.679-267.774 0-103.117-60.205-199.97-152.752-244.604l-2.813-1.335V485.14c0 7.387-3.339 13.77-11.017 15.452-16.156 3.25-36.987 2.08-53.112.836l-8.555-.689c-15.14-1.335-26.201-3.188-32.054 7.762l-.419.824V430.71c0-11.09-3.108-31.932 8.316-35.617 11.423-3.686 65.675 10.917 66.125-10.081.67-31.019.335-68.202.335-100.79 0-35.278.335-70.557.335-106.174 141.543 36.287 246.365 164.299 255.378 310.113 10.017 175.048-119.174 333.964-292.099 357.484-191.62 26.205-370.552-120.282-383.9-314.48C162.776 368.218 272.607 216.69 429.84 177.04zm118.51-5.71.335 209.315h-74.11l1-209.314h72.775z" fill="#009882"/>
</svg>
