<svg viewBox="0 0 1024 1024" xmlns="http://www.w3.org/2000/svg" height="1em" width="1em">
  <path d="M224 0h576q224 0 224 224v576q0 224-224 224H224Q0 1024 0 800V224Q0 0 224 0Z" fill="#FFF"/>
  <path d="M817.46 132c-4.948 84.976-33.268 184.888-85.284 284.24-110.22 210.904-304.548 354.7-420.296 299.684-69.744-33.188-92.012-117.4-78.732-234.608-71.584 188.112-47.8 347.436 56.004 396.736 127.012 60.4 329.68-81 452.664-315.656C826.268 401.248 851.22 238.024 817.456 132" fill="#004898"/>
  <path d="M679.432 289.9c-112.236 90.72-246.136 131.936-299.7 84.18-33.736-30.08-30.792-84.268-3.992-139.252-83.448 87.72-104.928 189.216-56.704 236.612 59.62 58.66 206.48 31.62 335.84-80.756C747.192 310.524 796.78 208.452 802.092 132c-15.376 46.04-57.78 105.496-122.66 157.9" fill="#F4A100"/>
</svg>
