<svg viewBox="0 0 1024 1024" xmlns="http://www.w3.org/2000/svg" height="1em" width="1em">
  <path d="M224 0h576q224 0 224 224v576q0 224-224 224H224Q0 1024 0 800V224Q0 0 224 0Z" fill="#FFF"/>
  <path d="M486.736 196c123.988 0 231.228 71.98 282.532 176.588H550.8l-64.064-64.32L283.82 512l202.92 203.728 96.456-96.848 199.82.008C739.376 740.808 623.196 828 486.736 828 312.912 828 172 686.52 172 512s140.912-316 314.736-316zM852 386.092l-18.528 37.336h-35.04c-16.308 63-29.344 103.448-39.116 121.34-17.364 31.804-31.256 55.128-70.18 55.128H538.16l13.992-32.672 110.732.004c38.228 0 47.36-14.752 64.456-50.056l.724-1.504c8.048-16.668 17.18-47.416 27.396-92.24h-41.464c-8 32.528-16.28 56.64-24.856 72.336-17.364 31.808-36.616 49-70.056 49h-99.728l-29.092 58.58H443.02l38.04-76.596 7.276-14.652 62.58-126H852zm-180.548 37.336H579.62l-44.044 88.668h57.248c45.68 0 54.224-15 71.352-50.432l.648-1.336c4.38-9.072 6.588-21.372 6.628-36.9z" fill="#E5332B"/>
</svg>
