<svg viewBox="0 0 1024 1024" version="1.1" xmlns="http://www.w3.org/2000/svg" height="1em" width="1em">
  <path d="M97.707 602.68c23.769 16.109 52.04 22.407 79.113 19.148 26.678-3.212 52.192-15.705 71.09-37.23 5.333-6.078 10.15-12.562 14.257-20.058 4.1-7.492 7.504-16.014 10.021-26.182a123.182 123.182 0 0 0 3.568-25.489c0.83-24.554-5.87-48.244-19.256-67.375-13.37-19.11-33.425-33.685-59.305-40.036-7.513-1.845-15.53-2.995-24.03-3.366-22.704-0.983-45.726 5.961-64.303 20.034-17.058 12.922-30.38 31.855-36.279 56.187l-0.314 1.287-1.304-0.38c-2.995-0.868-6.15-1.444-9.33-1.753a58.423 58.423 0 0 0-9.935-0.09c-5.545 0.423-10.023 0.977-14.237 1.944-2.757 0.63-5.42 1.44-8.222 2.507a58.948 58.948 0 0 1 10.85 2.456c5.114 1.682 10.113 4.12 15.28 7.46 4.34 2.804 7.948 6.257 11.036 10.001 3.056 3.702 5.618 7.722 7.884 11.695 2.528 4.43 5.28 9.184 8.274 14.004 2.963 4.772 6.126 9.542 9.464 13.994 12.199 16.257 27.73 25.643 43.488 28.654 16.662 3.18 33.59-0.765 47.082-11.256 6.987-5.437 11.367-12.23 14.001-19.527 2.653-7.353 3.546-15.24 3.557-22.806v-0.01 0.01c0.003 0 0-0.005 0-0.005a1878.328 1878.328 0 0 0-0.272-23.044c-0.1-6.07-0.205-12.141-0.268-21.794h-54.264l0.612 51.073c2.975-0.003 6.68-0.012 10.698-0.022 10.8-0.026 23.893-0.062 31.363 0.023l2.287 0.025-1.166 1.899c-4.001 6.496-9.355 11.183-16.141 14.214-6.727 3.007-14.834 4.37-24.398 4.246-6.395-0.083-12.496-1.857-17.977-4.827-5.852-3.177-10.996-7.722-15.039-13.036-3.751-4.938-6.56-10.56-8.38-16.112-1.968-5.991-2.785-11.907-2.398-16.815 1.323-16.81 9.184-31.15 20.946-41.371 12.092-10.5 28.295-16.637 45.76-16.62 12.703 0.018 24.9 3.31 35.638 9.633 10.436 6.147 19.482 15.158 26.258 26.807 3.092 5.322 5.3 11.147 6.648 17.661 1.337 6.492 1.82 13.657 1.472 21.679-0.523 12.07-3.743 24.864-9.511 36.638-5.35 10.927-12.908 20.99-22.559 28.79-13.603 11.007-29.626 18.368-47.256 19.887-15.73 1.355-32.73-1.945-50.432-11.468-4.458-2.4-8.672-5.337-12.583-8.55-4.569-3.744-8.754-7.892-12.453-11.985-3.015-3.34-5.809-6.706-8.425-10.207a130.19 130.19 0 0 1-7.454-11.117c-2.684-4.482-5.953-10.197-9.168-15.825-2.328-4.077-4.631-8.109-6.87-11.927-7.622-10.819-15.718-17.287-25.212-20.283-8.476-2.676-18.135-2.621-29.613-0.448 0.06 0.018 0.121 0.033 0.183 0.054 3.082 0.957 7.242 2.248 10.878 3.602 17.804 6.623 26.637 24.006 34.39 39.258 1.908 3.753 3.75 7.377 5.644 10.665 2.886 5.017 5.908 10.114 9.128 15.12 3.191 4.959 6.57 9.814 10.189 14.378 3.852 4.858 7.905 9.478 12.368 13.807 4.467 4.333 9.373 8.409 14.927 12.174" fill="#D70E19"/>
  <path d="M885.469 446.95c-3.278-0.258-6.593-13.273-6.57-28.835 0.439-0.44 0.874-0.897 1.323-1.336 15.293-0.259 28.117 2.698 36.814 9.378 3.82 2.95 6.19 7.57 9.341 11.188 1.97-0.046 3.395-0.181 4.163-1.357 0.35-1.57 0.736-3.126 1.093-4.676 1.268-3.072 4.752-8.074 7.618-9.617 8.767-4.691 31.072-3.785 41.426-1.795 6.647 1.293 15.842-1.812 21.096 0.913 1.35 0.655 7.721 8.792 8.051 10.267 0.117 2.457 0.178 4.908 0.235 7.356-0.45 0.534-0.854 1.056-1.293 1.593-5.656 1.39-17.667 0.196-23.524-0.912-11.202-2.097-25.78 0.057-34.441 2.248-2.774-0.172-12.08 1.527-14.6 1.1-2.325-0.38-4.281-2.366-6.299-1.1a134.264 134.264 0 0 0-3.075 2.23c-1.566 0.963-19.719-0.86-31.256 0.383-2.282-0.134-3.808 3.106-10.102 2.972z m137.865 10.437c1.231 2.017 0.382 8.045 0 10.176-1.678 8.388-6.492 12.6-16.404 10.929-4.31-0.642-9.425-2.015-13.469-3.252-2.664-0.86-8.716-3.955-11.257-0.39-1.944 2.745-1.735 7.112-1.852 11.21-0.183 5.841 0.528 18.604 2.056 23.694 1.356 4.56 4.021 9.632 4.152 15.03a3.507 3.507 0 0 1-4.152 3.103c-8.753-3.742-9.613-18.74-11.317-29.412-1.342-8.47 0.162-15.993-3.468-21.638-1.688-2.637-8.213-4.481-12.617-2.865-0.896 0.576-1.734 1.163-2.604 1.75-6.012 3.332-18.74 0.66-19.165 0.445-2.793-1.42-4.192-7.299-7.824-9.252-1.06-0.562-2.62 0.34-3.06 1.296-0.814 2.233-0.87 4.72-1.296 7.083-0.287 1.347-1.722 5.88-1.722 7.289-1.863 9.369-3.758 20.97-8.734 27.4-3.124 4.042-8.985 4.135-13.924 6.403-4.229 1.967-12.455 6.958-15.89 3.333-1.264-2.249-0.502-7.957 0.656-11.72 1.156-3.412 20.471-14.323 24.607-17.702 2.84-2.329 6.06-10.361 3.472-14.13-0.781-1.097-3.565-1.543-5.656-0.873a4257.075 4257.075 0 0 0-15.886 7.522c-1.643 0.541-8.193 1.231-9.581 0-3.44-2.188-4.254-14.592-1.734-17.243 3.064-2.392 6.984-4.806 11.107-6.175 5.735-1.963 19.638-0.6 25.667 0 1.827 0.069 3.643 0.135 5.448 0.212 1.227-0.371 2.652-2.154 4.78-2.67 3.457-0.82 3.81 2.198 6.75 1.774 1.816-0.234 2.404-1.298 3.484-1.775 2.425-0.974 4.779 0 7.161 0 4.133-0.65 24.895-2.576 31.133-2.878 23.14-1.262 36.355 4.44 39.594 4.653 7.87 0.934 10.36-2.826 11.545-1.327z m-215.622-16.575c2.064-0.935 3.894-2.777 3.931-5.894 0.11-1.806-7.18-1.967-15.153-1.904-6.171 0.045-12.75 0.228-16.63-0.113-0.448-0.047-1.27 0.116-2.22 0.433-2.454 0.821-5.785 2.692-5.902 4.755-0.034 0.817 0.217 1.939 0.66 2.034 1.344 0.53 2.758 1.061 4.15 1.592 0.364 0.07 0.73 0.113 1.093 0.134 2.739 0.137 5.55-1.037 8.782-1.037 3.188 0 6.68 0.504 10.067 0.834 4.147 0.4 8.136 0.535 11.222-0.834z m-0.211 19.252c0.558-0.43 1.082-3.134 0.638-4.063-1.426-2.929-6.427-3.829-11.649-4.072-3.245-0.15-6.57-0.05-9.187-0.019-3.948 0.069-7.135 0.565-9.662 1.98-1.45 0.813-2.681 1.928-3.715 3.446-0.833 1.55 0.118 2.957 0.858 3.403 0.23 0.081 1.273 0.145 2.857 0.185 4.198 0.102 12.181 0.057 18.849-0.122 5.686-0.15 10.415-0.403 11.01-0.738z m-5.031 30.583c0.361-3.727-1.353-13.583-2.595-14.848-0.857-0.734-2.2-0.494-3.385 0.082l-0.243 0.125c-0.73 0.514-1.664 6.753-2.568 8.97-1.012 1.69-2.102 2.793-2.945 4.694-0.637 1.5-0.045 3.451 0.53 3.69 1.05 0.331 3.275 0.56 5.226 0.62 1.46 0.044 2.773-0.004 3.318-0.167 1.09-0.216 2.467-1.504 2.662-3.166z m-24.83 7.29c5.376-1.202 7.695-17.396 3.519-23.132-0.731-0.877-2.144-0.612-3.3 0l-0.218 0.116c-1.772 0.913-3.69 1.16-4.618 3.035-1.76 3.587-1.03 16.627 0.903 18.554 1.352 1.272 2.598 1.675 3.715 1.427z m-20.62-2.085c6.66-17.427 3.952-56.727 1.31-60.491-0.407-0.587-1.232-1.066-1.518 0-0.477 0.998-0.72 2.745-1.545 3.394-2.812 2.059-6.932 2.376-11.208 2.465-6.874 0.148-14.154-0.274-17.105 5.034 0.29 0.504 0.569 1.026 0.845 1.576 1.694 0.701 3.63 2.024 6.376 1.594 3.273-0.523 6.665-1.98 9.884-1.669 1.51 0.148 2.981 0.685 4.381 1.89 1.485 3.174 2.946 6.356 4.392 9.51-0.684 4.559-4.374 5.393-8.773 5.387-3.925-0.002-8.413-0.67-11.847 0.056-0.481 1.36-1.748 3.447-0.864 4.753 1.537 3.025 7.32 1.68 12.71 1.706 3.667 0.015 7.155 0.662 8.997 3.748 4.841 8.06-1.455 10.408-8.996 11.687-5.399 0.913-11.433 1.272-14.474 2.787-1.647 1.473-0.488 3.452 0.43 4.988 1.45 0.507 2.905 1.989 5.272 1.341 2.372-0.625 5.264-2.022 8.772-2.272 1.24-0.09 2.563-0.037 3.967 0.248 3.069 0.62 7.254 6.136 8.993 2.268z m59.71-7.872c4.853 7.422 15.356 17.848 24.815 19.254 0.116 0.457 0.199 0.912 0.25 1.355v1.99c-0.911 8.078-12.937 13.413-22.41 10.928-9.345-2.428-9.737-19.997-16.899-20.586-2.539 1.082-2.852 3.83-5.053 4.967-0.31 0.158-0.624 0.304-0.943 0.442-3.388 1.433-7.291 1.67-10.917 3.171a260.793 260.793 0 0 0-7.932 3.477c-2.86 1.31-5.668 2.66-8.301 4.01-2.181 1.13-8.541 6.323-12.507 4.747-2.238-0.855-6.768-4.616-5.934-8.611 0.314-1.473 3.162-2.798 0.857-4.788-0.822-0.73-1.936-2.098-3.72-1.547-1.324 0.48-2.656 0.972-3.977 1.478-6.419 2.454-12.676 5.315-17.74 9.171-2.716 2.04-8.08 11.945-12.311 9.288-1.68-1.818-1.68-4.08-2.142-7.262-1.926-11.931 3.882-17.189 8.32-23.325 1.263-1.154 0.14-5.873-4.022-4.991-5.841 1.364-5.551 4.587-12.908 1.593-1.094-0.622-1.698-3.827-2.416-5.874-4.575-14.596 14.852-9.067 19.98-15.853 2.542-10.837-5.27-1.99-9.21-2.515-3.28-0.42-1.204-10.885-7.024-6.78-2.711 1.708-6.352 4.555-7.925 2.496-1.758-2.344-2.805-4.614-3.285-6.809v-5.75c2.625-12.315 21.252-22.065 27.666-29.127-0.349-1.99-1.216-3.094-0.856-5.206 1.229-0.778 2.468-1.517 3.697-2.285 7.472 0.105 9.802 9.05 16.052 11.122 1.329 0.427 2.724 0.536 4.124 0.554 3.204 0.035 6.393-0.407 8.61 1.473a480.288 480.288 0 0 1 3.712-2.935c1.099-2.317 0.717-3.901 3.06-4.777 5.41-1.99 11.66-2.234 18.2-1.959 6.184 0.261 12.625 0.983 18.849 1.136 3.016 0.073 5.983 0.014 8.845-0.302 7.546-0.823 19.1-6.637 21.965 0.9 1.24 3.365-0.87 8.47-1.764 10.667-3.094 7.496-5.124 15.091-7.034 24.218-1.216 5.913 1.149 13.607 0.21 17.916-0.316 1.194-5.956 3.506-6.353 4.974-1.005 3.613 3.14 8.049 4.37 9.955z m-209.64-32.049c0.273-1.544-1.054-2.25-2.3-2.56-0.757-0.07-17.325 3.275-25.713 5.152l-0.814 0.182c-2.786 0.425-6.674 2.169-9.452 1.068-1.702-0.843-1.67-2.361-2.956-3.418-3.16-2.564-10.603-0.455-13.058 1.704-2.636 2.352-2.298 11.845 0.645 13.235 2.499 1.386 5.322-0.43 8.2 0.22 3.689 0.803 10.27 8.596 6.734 13.861-2.827 4.24-13.64 4.715-17.256 9.152 0.643 1.228 1.687 2.418 2.947 2.989 4.195 1.194 16.136-5.866 25.01-11.826 3.958-2.663 7.312-5.104 9.088-6.489 2.589-2.856 17.374-16 18.926-23.27z m42.094-18.759c2.877-0.221 5.76-0.454 8.633-0.665 1.009 1.974 1.043 5.311 1.043 8.336 0 11.24-8.658 18.751-19.772 14.93-3.738-1.306-10.777-7.628-15.792-5.76-0.345 0.205-0.698 0.416-1.047 0.627-0.765 6.74 5.019 9.631 8.845 13.021 5.318 4.73 12.468 11.884 14.51 19.622 1.024 3.87-0.565 7.776-2.523 9.387-3.65 2.987-8.62 4.362-12.215 7.261-8.26 6.666-14.305 16.083-22.927 22.382-1-0.01-1.624-0.096-2.108-0.612-3.201-3.347-0.417-10.813 1.053-13.457 6.058-10.862 15.445-16.096 21.883-25.803-1.361-4.336-9.643-12.708-13.255-14.084-3.96 3.069-6.982 8.854-10.105 12.81-7.474 9.454-16.405 19.258-26.33 26.596a85.422 85.422 0 0 1-3.756 2.627c-3.144 2.054-16.069 8.89-20.622 5.958-4.679-3.01-7.806-9.506-9.271-15.796-0.667-2.888-0.555-5.426-1.88-7.452-0.213-0.07-0.42-0.148-0.636-0.204-6.308 0.86-11.625 5.982-16.207 9.166-1.675 1.174-4.579 4.357-7.566 3.205-2.41-1.243-2.614-4.56-3.591-7.257l-3.145-7.68c0.063-1.564 0.13-3.135 0.205-4.695 2.494-4.983 17.854-11.1 22.73-15.786 2.692-2.584 4.345-10.04 0-12.17-6.145-2.41-11.311 4.858-17.26 2.36-0.932-0.392-6.189-20.007-5.899-22.398 3.86-4.432 20.094-6.14 26.53-8.961-0.013-7.064-2.33-10.877 0.208-17.5 2.033-0.372 5.695-1.774 7.99-0.844 0.496 0.277 0.979 0.561 1.485 0.845 0.417 5.476 0.836 10.952 1.25 16.433 1.444 2.858 7.89 0.074 11.184 1.632 2.873 1.333 0.287 7.666 2.711 9.458 5.473 3.385 8.944-4.223 11.997-5.338 1.062-0.384 2.266-0.587 3.543-0.707 4.93-0.462 10.854 0.37 13.175-2.712 0.765-1.465 3.622-7.859 4.535-10.445 0.284-2.333 0.554-4.68 0.845-7.04 1.41-3.723 6.608-5.833 10.307-7.46 5.99-0.13 11.047 5.292 8.635 13.002-1.514 4.798-8.303 6.979-9.067 11.926 0.293 0.448 0.579 0.878 0.855 1.307 5.922 1.592 14.244 0.222 21.032 0.222 7.19 0 14.332 0.727 19.79 1.713z m-217.765 5.772c7.773 0.06 10.16-3.142 14.186-7.956 1.393-2.322-0.906-6.751-5.448-6.558-2.29-0.015-5.152 3.46-8.738 5.006a9.52 9.52 0 0 1-1.534 0.518c-3.85 0.897-7.397 0.565-10.068 2.455-0.303 0.964-0.74 3.078-0.21 4.288 1.502 2.958 4.86 1.674 8.462 2.05 1.22 0.126 2.33 0.19 3.35 0.197z m6.527 19.636c1.506-0.74 3.093-2.688 2.404-4.325-1.711-3.649-3.92-3.67-8.93-3.511-0.78 0.023-1.626 0.05-2.548 0.07-3.044 0-4.677 2.729-4.629 4.3 0.064 0.457 0.13 0.95 0.195 1.428 0.808 1.864 3.821 2.898 6.981 3.084 2.383 0.137 4.851-0.209 6.527-1.046z m1.813 16.576c0.59-0.031 0.417-1.616 0.206-2.052-0.397-0.535-0.815-1.08-1.216-1.616-1.368-1.259-4.64-1.607-7.253-0.43l-0.077 0.045c-2.294 1.29-4.439 1.278-5.712 3.636-0.576 1.061 0.08 3.087 0.55 3.28 1.753 0.327 3.476 0.162 5.162-0.22 2.896-0.663 5.683-1.993 8.34-2.643z m-0.772 21.202c0.872-0.249 0.074-6.139-0.872-7.053-0.358-0.366-1.747-0.477-2.256-0.179-1.22 0.578-2.812 0.97-4.44 1.355-4.508 1.058-9.328 2.059-7.586 6.77 1.884 3.878 4.63 3.823 7.586 2.672 2.502-0.977 5.158-2.741 7.568-3.565z m-24.87-31.288c0.693-0.618 0.522-11.871 0.032-12.684-0.206-0.507-1.223-1.547-1.904-1.505-1.683 0.328-2.85 0.908-3.85 1.45l-0.38 0.188c-2.628 1.298-6.896 3.421-6.562 6.594 0.507 1.89 3.44 4.542 6.561 5.864 2.203 0.935 4.5 1.21 6.103 0.093z m0.048 21.07c0.587-0.464 0.413-7.968-0.059-8.729-0.65-1.243-3.43-0.639-6.092-0.338-0.656 0.074-1.303 0.127-1.908 0.133-2.214 0.126-9.87 0.785-15.934 2.048-2.446 0.497-4.343 1.719-6.805 2.54-1.03 0.34-2.162 0.61-3.467 0.734-3.404 0.306-5.242-1.394-8.064 0.406-1.465 1.15-1.723 4.138-2.212 7.373 0.463 0.398 0.938 0.807 1.416 1.213 4.162-0.335 8.218-1.066 12.327-1.885 4.11-0.818 8.28-1.722 12.662-2.39 6.254-0.984 9.058 0.922 11.985 1.179 1.751 0.153 3.545-0.285 6.151-2.284zM365.08 465.23c0.853 0.477 1.706 0.66 2.523 0.437 4.341-1.37 6.759-7.247 3.437-12.718-1.98-2.482-3.776-1.589-5.96-1.125a8.578 8.578 0 0 1-1.536 0.206c-2.304-0.409-3.971-3.284-5.945-1.769-0.174 4.547 3.617 12.803 7.48 14.969z m16.23-8.98c-5.098-0.306-1.823 12.79 2.057 13.301 0.185 0.028 0.37 0.019 0.559-0.015 5.627-2.311 5.65-11.554-0.559-13.075a7.827 7.827 0 0 0-2.056-0.211z m94.433 46.313c0.764 0.312 1.758 0.866 1.81 1.632 0.106 6.375 0.648 13.035-2.618 15.977-2.45 2.194-8.536 1.077-12.094 0.4-4.697-1.081-9.404-2.183-14.107-3.277-3.512-1.084-7.343-3.248-12.907-2.256a56.85 56.85 0 0 0-4.408 0.97c-3.326 0.881-6.688 2.195-8.288 4.163-1.202 1.478-2.307 5.015-4.023 5.941-0.747 0.066-1.476 0.127-2.208 0.2-4.268-1.462-0.62-16.53-3.026-21.484-0.14-0.064-2.093-0.964-2.224-1.032a37.533 37.533 0 0 0-3.636 0.129c-8.873 0.73-16.57 4.386-24.647 6.896-3.182 0.99-6.422 1.799-9.814 2.189-3.815 0.435-5.792-5.246-8.473-7.166-0.616-0.443-1.278-0.686-2-0.606-7.654 0.807-7.214 16.803-19.548 14.51-2.405-2.326-3.768-5.702-3.024-10.64 0.058-1.41 0.127-2.857 0.193-4.28 2.703-6.672 10.009-10.078 12.704-15.766v-4.083c-3.532-4.761-8.452-8.432-11.692-13.522-1.49-2.314-2.428-7.995-3.024-9.798-0.886-2.374-1.653-4.767-1.689-7.143v-0.353a9.665 9.665 0 0 1 1.689-5.403c1.268-1.905 4.097-4.213 6.65-4.699 1.95-0.386 4.676 1.019 5.85-0.624 1.984-4.969-6.031-12.35-4.635-19.237 0.568-2.79 2.267-4.03 3.416-6.143 5.906-0.451 10.958 1.285 15.11 3.9 2.295 1.44 4.315 3.153 6.056 4.908 1.479 1.48 6.619 7.68 9.483 6.967 0.94-0.246 1.854-0.634 2.748-1.135 7.94-4.473 14.083-17.917 24.452-17.896l0.195 0.253c0.404 0.522 0.808 1.056 1.218 1.575 1.155 2.413 0.439 4.91-1.218 7.4-4.63 6.974-16.607 13.92-15.51 18.997 0.639 1.574 3.852 5.28 6.859 4.31 1.48-0.503 7.005-5.646 8.651-7.914 0.2-0.278 0.344-0.51 0.415-0.69 0.856-2.127 0.222-3.896-0.415-5.454-0.34-0.83-0.676-1.597-0.792-2.328l0.792-0.664 0.415-0.354c2.205-0.487 2.88 0.933 4.431 1.442 2.811 0.908 7.6-1.053 9.673-1.843 3.716-1.404 6.357-4.359 8.886-7.43 2.432-2.96 4.762-6.028 7.837-7.925 6.19 0 19.13 9.19 21.971 13.096 0.061 6.516-5.586 9.121-7.854 13.895-0.483 1.342 0.971 2.038 2.372 2.4 2.955-0.07 11.906-0.383 13.123-0.67 2.064-0.379 2.012-1.595 3.612-1.107 3.562 1.563 2.653 6.582 2.062 8.591-0.773 2.617-3.626 3.924-5.856 3.702-6.552-0.696-19.11-1.335-22.21 2.11-0.472 0.75-0.01 3.755 1.051 4.427 5.8 3.28 24.254 0.144 21.968 9.617-1 0.752-2.013 1.51-3.02 2.257-7.699 2.337-19.604-3.836-20.349 5.323-0.52 6.589 17.904 2.43 24.18 7.162 0.478 4.057-0.13 5.583-2.02 7.97-7.807-0.156-22.519-3.305-22.567 5.117 0.175 1.085 1.57 2.933 2.812 3.062 3.226 0.207 6.452 0.401 9.675 0.608 3.745 0.3 6.833 2.367 9.276 2.25 2.588-0.244 5.834-2.13 8.261-1.424z" fill="#231916"/>
  <path d="M343.034 553.808h670.599v-6.896h-670.6z" fill="#D70E19"/>
  <path d="M349.4 578.191h10.44v-4.336h-16.806V613.5h16.807v-4.55H349.4v-13.864h10.44v-4.546H349.4v-12.349z m57.215-4.336v6.149l-7.252 17.246h7.252v4.77h-9.295l-4.836 11.48h-6.364l17.566-39.645h2.929z m-46.774 4.336h0.77c6.443 0 9.67 1.951 9.67 5.842 0.174 4.48-3.054 6.645-9.67 6.507h-0.77v4.546h1.782c7.473 0 11.21 2.237 11.21 6.713-0.175 4.62-3.487 7.004-9.94 7.151h-3.052v4.55h3.313c5.607 0 9.843-1.441 12.733-4.334 2.203-2.026 3.3-4.476 3.3-7.367 0-4.763-2.878-8.017-8.647-9.744 4.077-1.59 6.105-4.337 6.105-8.236-0.336-6.351-4.67-9.677-12.981-9.964h-3.823v4.336z m133.827 21.231l7.387-5.85 16.3 19.928h8.398l-20.112-23.617 19.61-16.028h-8.919l-22.664 19.28v-19.28h-6.366V613.5h6.366v-14.078zM467.9 605.92l-23.433-32.065h-7.638V613.5h6.117v-32.065h0.25l23.684 32.065h7.125v-39.645H467.9v32.065z m-61.286-3.9v-4.77h7.252L407 579.705h-0.26l-0.124 0.299v-6.15h4.196l16.807 39.646h-6.875l-4.583-11.48h-9.545zM589.94 572.77v4.553c-10.352 0.434-15.785 5.92-16.294 16.458 0.51 10.26 5.942 15.604 16.294 16.04v4.323c-7.636 0-13.49-2.014-17.566-6.063-3.402-4.04-5.184-8.807-5.356-14.3 0.172-6.931 2.714-12.486 7.65-16.682 3.898-2.885 8.994-4.329 15.272-4.329z m252.73 22.749h22.914v-4.77H842.67V578.4h25.966v-4.545h-32.33V613.5h6.364v-17.98z m-27.81 17.98h6.367v-39.645h-6.366V613.5z m-12.77-4.768h-28.01V595.52h25.455v-4.77h-25.454V578.4h27.494v-4.545h-33.862V613.5h34.377v-4.768z m-74.397-28.165h0.247l10.692 32.933h6.627l12.222-39.645h-6.875l-8.662 32.276h-0.248l-10.44-32.276h-6.878l-10.44 32.276h-0.259l-8.91-32.276h-6.615l12.22 39.645h6.616l10.703-32.933z m-96.957 14.953h22.91v-4.77h-22.91V578.4h25.966v-4.545h-32.335V613.5h6.369v-17.98z m-40.796 18.625v-4.324c10.178-0.581 15.614-5.927 16.3-16.04-0.686-10.394-6.122-15.885-16.3-16.457v-4.553c6.955 0 12.473 1.88 16.547 5.63 3.912 4.335 5.942 9.469 6.117 15.38-0.175 5.927-2.128 10.837-5.857 14.735-4.071 3.755-9.681 5.629-16.807 5.629z m302.004-40.29v6.149l-7.252 17.246h7.252v4.77h-9.294l-4.833 11.48h-6.366l17.565-39.645h2.928z m101.32 22.962h14.253c0.173 4.769-1.445 8.308-4.838 10.618-2.713 1.731-5.94 2.6-9.678 2.6-10.35 0-15.524-5.49-15.524-16.462 0.511-10.26 5.597-15.677 15.279-16.25 7.636 0.145 12.304 2.956 14.003 8.449h6.105c-1.698-8.092-8.311-12.425-19.863-13.001-13.578 0.576-20.955 7.433-22.15 20.58-0.162 7.077 2.292 12.633 7.384 16.683 3.394 2.744 8.239 4.11 14.52 4.11 6.614-0.139 11.711-2.013 15.275-5.628l1.53 4.984h4.073v-21.232h-20.37v4.549z m-40.032 9.103l-23.434-32.065h-7.639V613.5h6.116v-32.065h0.253L952.21 613.5h7.129v-39.645h-6.106v32.065z m-61.288-3.9v-4.77h7.253l-6.869-17.545h-0.259l-0.125 0.299v-6.15h4.2L912.95 613.5h-6.877l-4.582-11.48h-9.546z" fill="#231916"/>
</svg>
