<svg viewBox="0 0 1024 1024" version="1.1" xmlns="http://www.w3.org/2000/svg" height="1em" width="1em">
  <path d="M224 0h576c123.6 0 224 100.4 224 224v576c0 123.6-100.4 224-224 224H224c-123.6 0-224-100.4-224-224V224C0 100.4 100.4 0 224 0z" fill="#FFFFFF"/>
  <path d="M168 510.4c0.4-4 0.8-7.6 0.8-11.6 2.8-75.2 28.8-142 76.4-200.4 24.8-30.4 54.4-56 88-76.4 1.2-0.8 2.4-1.2 2.8-2-6.4 12.4-13.2 24.4-18.8 37.2-6.8 16.4-11.2 33.6-12.4 51.2-0.8 11.2-1.2 22-1.2 33.2v346.8c-6.4-1.2-12.4-2-18-3.2-49.6-11.6-84.4-40.4-103.6-87.2-4.8-12-7.2-25.2-9.2-38-2-14.4-2.8-28.8-4-43.2 0-0.8-0.4-1.6-0.8-2.4v-4zM216 684c10 5.2 20 11.6 30.4 16.4 19.6 8.8 40.4 14 61.6 14.8 10.4 0.4 20.8 0.8 30.8 0.8H688c-1.2 7.2-2.4 14-4 20.8-6.8 28-20 52.4-40.8 72.4-20 18.8-44.4 31.2-71.2 36.4-27.6 5.6-55.6 7.6-83.6 5.6-51.6-3.2-102-18.4-146.8-44-50.8-28.8-93.6-70.4-124-120.4l-1.6-2.8z m468 120c5.2-9.6 10.8-18.8 15.6-28.8 8.4-17.6 13.2-36 14.8-55.2 1.2-12.4 1.6-25.2 1.6-37.6V336c8.4 1.6 16.8 3.2 24.8 5.2 47.6 12.8 80 42.8 98.4 88 4.8 12.4 6.8 26 9.2 39.2 3.2 17.2 4 34.8 3.6 52-0.8 42.8-10 84.8-26.8 124-28.4 66-76.8 121.6-138.8 158.8l-2.4 0.8zM332 306.4c5.6-40.8 22-75.2 54.8-100.4 18.4-14.4 40-23.6 62.8-28 24.8-4.8 50.4-6.8 75.6-5.6 66 2.8 130 25.2 183.6 64 37.2 26.8 68.8 60.8 92.8 99.6l2 4c-4.8-3.2-8.8-5.6-12.8-8-22.8-13.6-48.4-21.6-74.8-24-10.8-0.8-21.6-1.6-32.4-1.6H332z" fill="#E70012"/>
</svg>
