<svg viewBox="0 0 1024 1024" version="1.1" xmlns="http://www.w3.org/2000/svg" height="1em" width="1em">
  <path d="M224 0h576c123.6 0 224 100.4 224 224v576c0 123.6-100.4 224-224 224H224c-123.6 0-224-100.4-224-224V224C0 100.4 100.4 0 224 0z" fill="#FFFFFF"/>
  <path d="M844 395.6v-56c0-4.8-2.8-7.6-7.6-7.6H628c-21.6 0-22.4 7.6-22.4 19.6v133.2c0 13.6-2 11.2-6 6.8-24.4-29.6-119.2-143.6-124-149.2-9.2-10.8-15.2-10.4-33.2-10.4H212.8C184 332 184 346 184 361.6v310.8c0 12.4 7.2 19.6 23.6 19.6h162c10.8 0 17.2-4.8 17.2-14V540c0-3.6 1.2-4 3.6-1.6 2 2 83.6 100 115.2 138.4 13.2 13.6 15.6 15.2 38.4 15.2h242.4c20.8 0 22-9.6 22-19.6v-263.2s17.6-1.6 25.2-2.4c8-0.8 10.4-3.2 10.4-11.2" fill="#EC1D24"/>
</svg>
