<svg viewBox="0 0 1024 1024" xmlns="http://www.w3.org/2000/svg" height="1em" width="1em">
  <path d="M65.4 414.9C24.4 441.4.2 482 0 518.3v.8c.1 13.6 3.5 26.7 10.8 38.1 26.7 41.9 94.3 46.1 151.2 9.6 5.3-3.4 10.3-7.1 15-10.9 2.3-3.7.8-7.9-.2-8.8-2.1-2-5.1-2.3-16.8.7-11.7 3-36.8 12-47.5 14.4-10.8 2.4-13.9 3.6-18.9-7.1-5-10.6-26.8-62.3-26.8-62.3-5-10.6-7.9-16.2 8.4-20.6 16.3-4.5 51.1-14.5 60.3-17.3 9.2-2.8 14.3-3.2 17.8 7 3.4 10.2 26.1 63.4 28.6 68.6 1.8 3.7 4.2 7.1 8 8.5 2.5 1 6.1-1.1 6.9-2.1 30.9-35.7 40.3-80.3 20-112.3-14.5-22.8-41.2-34.4-71.6-34.4-25.6-.2-53.8 8-79.8 24.7" fill="#FFF"/>
  <path d="m307 520.9 1.6-1.6c.6-.6 2-2.3 4.1-5.1 2.1-2.8 3.7-5.6 4.7-8.4.9-2.8 1.7-5.4 2.2-7.8.5-2.4 1-4.8 1.3-7.2.4-2.4.6-7.6.8-15.6l.1-9.4v-6.2l-.9-16.9c5.6.5 9.6.7 12.1.7h24.3c-.7-2.3-1.5-4.4-2.2-6.3-.7-2-1.8-4.4-3.3-7.3 4.7-1.3 8.1-2.5 10.2-3.7l5.9 14.3c-3.5.5-6.9 1.5-10.3 3.1H387c3.6 0 8.6-.2 15-.7-.2 1.4-.4 2.4-.5 3-.1.7-.1 1.4-.2 2.3 0 .9.2 2.6.6 5.2-6.2-.5-11.2-.7-14.9-.7h-55c0 7.2 0 12.9-.1 17.2 0 4.3-.1 9.2-.3 14.8-.2 5.6-.7 10.7-1.6 15.2-.9 4.4-2.4 9.1-4.7 13.8-2.2 4.7-4 8.1-5.5 10.3l-1.1 1.6c-3.6-2.3-7.5-3.7-11.7-4.6zm145-60.4h11.9v-15.9H452v15.9zm-23.4 46H487v-39h-15.1v16.6c0 1.1.1 1.9.3 2.4.2.6.9.9 2 .8 2.4 0 6-.9 10.6-2.5-.8 3.7-1.2 6.2-1.2 7.3v2.8c-1.4.2-3.2.3-5.5.5s-4.1.2-5.3.2c-3 0-5.1-.4-6.5-1-1.4-.7-2.1-1.9-2.2-3.5-.1-1.7-.1-3.3-.1-4.7v-18.9h-12.5c-.3 2.3-.5 4.4-.7 6.1-.2 1.8-.7 4.7-1.5 8.6-.8 3.9-4 8.6-9.6 14L437 499c-.7-1.1-1.3-2-2-2.7-.7-.7-2.6-1.9-5.6-3.6l3.8-2.6c1.1-.7 2.3-1.9 3.7-3.4 1.4-1.5 2.4-2.9 3.2-4.2.8-1.3 1.4-2.9 1.9-4.8.6-1.9.9-3.6 1-5.1l.5-5.1h-14.9v39zm-16.3-61.2c.2-1.4.2-2.4.3-3v-1.8c0-.6-.1-2.3-.3-5 14 .6 22.9.8 26.7.8h39.5c3.9 0 12.9-.2 27-.8-.2 1.4-.3 2.4-.5 3.2-.1.8-.1 1.4 0 1.9 0 .5.2 2.1.5 4.7-11.4-.5-20.4-.7-27-.7h-6.6v15.9H487c3 0 6.2-.2 9.5-.5-.3 2.5-.4 4.4-.4 5.7 0 1.3-.1 3.1-.1 5.3v38.5c0 3.6 0 6 .1 7l.4 7.2c-2.5-.2-4.1-.3-4.7-.3-.6 0-2.3.1-5 .3 0-1.2 0-2.5.1-3.6.1-1.2.2-1.9.2-1.9v-3.3h-58.4v3.7c0 1 .1 2.5.3 4.7-3.8-.2-6.8-.2-8.8 0 .2-3.4.3-6.1.4-7.9.1-1.9.1-4.4.1-7.7v-36.9c0-2.8 0-4.7-.1-5.5l-.4-5.4c3.6.4 7.1.5 10.4.5H444v-15.8h-5c-6.6 0-15.4.2-26.7.7zm158.9-14.4c.3.1 2-.1 5.3-.4-.3 4-.5 7.3-.6 9.7-.1 2.5-.1 5.2-.1 8.4v19.3l2.7-1.5c7-3.8 13.1-8.1 18.3-12.7l1.6-1.4c1.9 3.1 4.1 6.3 6.9 9.5l-7.3 3.5-9.8 5.2-12.5 6.4V505c0 3.4.4 5.5 1.2 6.2.8.7 2.3 1 4.7 1h5.2c3.3.1 5.6-.1 6.6-.7s1.9-1.5 2.4-2.7c.5-1.1 1-2.7 1.4-4.6l.6-3.6.3-1.7c1.9 1.7 3.6 2.9 5.1 3.8 1.4.9 3.4 1.6 5.9 2.3l-.7 1.8c-.2.4-.8 1.9-1.7 4.3-.9 2.4-1.8 4.2-2.5 5.5-.7 1.3-1.8 2.4-3.3 3.3-1.4 1-3.9 1.5-7.4 1.6l-12.4.1c-3 .1-5.7-.1-8.1-.6-2.4-.5-4.1-1.6-5-3.4-1-1.8-1.5-4.8-1.5-9.2v-60.2c0-3.2-.1-5.8-.2-7.9l-.6-9.8c3.4.2 5.2.4 5.5.4zM541.7 499l2.4-.8v-29.8h-13.7c-1.5 0-5.2.3-11.1.7.2-1.2.3-2.2.3-2.9.1-.7.1-1.4.1-2.1 0-.7-.2-2.2-.5-4.6 3.4.4 7.2.6 11.1.6H544v-10l-.3-8.6-.4-10.8c3.3.3 5.1.5 5.5.5.4 0 2.3-.2 5.6-.5-.3 4.7-.5 8.4-.6 11.2-.1 2.7-.2 5.5-.2 8.4v54c0 4.6.1 8.2.3 10.8l.5 7.3c-3.2-.2-5.1-.3-5.7-.3-.6 0-2.4 0-5.2.3.1-1.9.2-3.8.3-5.4.2-1.7.2-2.9.2-3.7v-6.4l-7.6 2.5c-7.3 2.5-13.4 4.8-18.2 7-1.2-3.5-2-5.8-2.4-6.7l-1.9-3.7c12.2-2.7 21.5-4.9 27.8-7zm133 25.9c.3-3.5.5-5.9.6-7.5.1-1.6.2-4.2.2-8.1v-61.7c0-2.8-.1-5.4-.3-7.9l-.5-6.4c4.2.4 7.2.7 9 .7h16c2.6 0 5.9-.3 9.9-.7l-2.3 8.8c-.3 1.1-1 3.8-2.1 8.1s-2.7 10.6-5 19c4.4 6.1 7.2 10.4 8.4 12.9 1.3 2.5 2.1 4.6 2.5 6.3.4 1.7.7 3.7.6 5.9-.1 2.3-.4 4.4-1.1 6.5-.7 2.1-2 4.1-4 6.2-2 2-7.2 3.9-15.7 5.6-.1-1.3-.3-2.8-.6-4.3-.3-1.6-.9-2.8-1.8-3.7l-4-3.9 2.9.2c6.9.5 11.2.2 12.7-1 1.6-1.2 2.4-3.5 2.4-6.9-.1-3.2-.6-6.1-1.8-8.5-1.1-2.4-2.1-4.4-3.1-5.8-1-1.4-3.2-4.2-6.6-8.2l1-2.5c.3-.9.9-2.7 1.7-5.3.8-2.6 1.3-4.4 1.6-5.5.2-1 .6-3.1 1.1-6.3.5-3.2.9-5.2 1-6.2l.2-2.4h-14.2v66.8c0 3.6.1 6.1.2 7.7l.6 7.9c-2.7-.2-4.2-.3-4.9-.4-.4.2-2 .3-4.6.6zM636 506.1h19v-17.9h-19v17.9zm.2-24.9h18.5c1.7 0 4.7-.2 8.8-.7-.2 2.1-.3 3.7-.4 4.9-.1 1.3-.2 2.3-.2 2.9v20c0 1.2.1 3.3.3 6.4l.3 4.6c-1.4-.1-2.4-.1-3.2-.2-.7 0-2.7 0-5.6.2.1-1.4.2-2.4.2-3v-3.1h-19v3.8l.1 1.4v1.5c-1.4-.1-2.5-.1-3.2-.2-.8-.1-2.7 0-5.6.2.2-2.5.3-4.5.5-6.1.1-1.6.2-3.4.2-5.5v-20c0-1.5-.1-2.8-.2-3.8l-.5-4.1c4 .5 7 .8 9 .8zm-16.8-7.3c.2-2.1.3-3.5.4-4.1 0-.5-.1-1.9-.4-4.2 3.4.4 6.3.6 8.5.6h5.1l-.3-1.5c-.8-3.5-2.3-6.7-4.7-9.6l-1.3-1.6c2.7-.4 5.5-1.5 8.5-3.1l6.3 13c-1.9.4-4.6 1.3-8.1 2.9h14.3c2.9-6.3 4.7-11 5.3-14.1l.6-3h-22c-1.1 0-4 .2-8.7.7.2-1.2.3-2 .3-2.5v-2c-.1-.8-.1-2.1-.3-3.9 3.2.4 6.1.6 8.7.6h11.1l-.7-2.9c-.5-2-1.8-4.6-4.2-8.1l-1.2-1.8c2.4-.4 5.5-1.5 9.5-3l5.9 13.5c-2.8.6-5.3 1.4-7.8 2.3h15.7c2.1 0 4.9-.2 8.7-.6-.2 1.2-.3 2.1-.4 2.7-.1.6-.1 1.1-.1 1.5 0 .5.2 1.7.5 3.9-2-.1-3.8-.3-5.3-.4-1.5-.2-2.6-.2-3.4-.2l-5.9.1c2.6 1.6 5.4 3.1 8.5 4.3l-2.1 3.2c-.9 1.5-2.8 4.7-5.5 9.8h7.3c2.4 0 5.4-.2 9.1-.6-.2 1.4-.3 2.3-.3 3v1.2c-.1 1.1-.1 1.6 0 1.6l.3 2.2c-3.6-.4-6.6-.6-9.1-.6h-34.6c-.2.1-3.1.3-8.2.7zm181.9-23.5 17.1 12.5c-2.4 2.3-4.6 4.7-6.6 7.3l-2.2-2.4c-2.4-2.7-6.2-5.5-11.5-8.7l-2.5-1.5c2.2-2.3 4.1-4.7 5.7-7.2zm-49.8 52.7c.9-3.3 1.5-6.5 1.8-9.9l.4-4.3c0-.8.1-1.4 0-1.7 0-.4-.2-2.4-.4-5.9 4 .3 6.9.5 8.6.5h34.3l.2-6.3h-34.3c-2.3 0-5.4.2-9.3.6.1-1.1.2-1.9.2-2.6 0-.6 0-1.1.1-1.5.1-.5 0-1.8-.3-4.2 3.7.4 6.8.6 9.3.6h34.2c2.8 0 5.9-.2 9.5-.5-.3 1.6-.4 2.8-.4 3.5-.1.7-.1 2.1-.2 3.9l-.3 8s-.1.5 0 1.1c0 .6.1 1 .1 1.4l.4 3.5c-4.8-.3-7.9-.5-9.1-.5H762l-.6 6.8h39.5c.9 0 3.9-.2 9.1-.5-.3 1-.8 3.4-1.7 7.3L806 513c-.4 1.6-1 3.2-1.7 4.8-.7 1.6-2.6 2.9-5.5 3.9-3 1-8.4 2-16.5 2.8-.5-2.6-1-4.5-1.4-5.9-.5-1.4-1.5-3.3-3-5.7 3.8.7 7.1 1 9.8.9 3.6 0 6.1-.6 7.4-1.8 1.3-1.2 2.3-3.4 2.9-6.7l.5-2.7h-37.1c-2.6.1-5.9.2-9.9.5zm-2-55.6c.2-2 .3-3.7.4-4.9v-1.7l-.4-3.2c4.4.5 8.1.8 11.5.8h17.3c-1.7-3.1-3.5-5.9-5.5-8.7 3.7-.5 7.3-1.5 10.7-2.9l4 11.6h15.4c3.6 0 7.8-.3 12.5-.8-.2 1.7-.2 2.9-.3 3.6-.1.8-.1 1.4-.2 1.9 0 .5.1 1.9.5 4.4-5.1-.5-9.2-.7-12.5-.7h-10.7v13c0 1.3 0 2.2.1 2.8l.4 3.8c-2.3-.2-3.7-.3-4.3-.3-.6-.1-2.2.1-4.7.3.2-1.6.3-2.8.4-3.7.1-.9.1-1.8.1-2.9v-13h-7.4v12.4c0 .7.1 1.9.2 3.7l.3 3.9c-2.3-.4-5.3-.4-9 0 .2-1.6.3-2.9.4-3.8.1-.9.1-2.2.1-3.8v-12.5h-8c-2.4 0-6.3.2-11.3.7zm-6.8 16.4 2.8-1.9c.9-.6 2.6-2.1 5.1-4.4 2.5-2.3 4.4-4.2 5.6-5.7l2.2-2.6c2.1 2.2 4.4 4 7 5.5l-4.3 3.7c-3.9 3.4-6.7 5.9-8.3 7.6l-2.8 2.8c-2.4-2-4.7-3.7-7.3-5zm-16.1-26.2c2.3-2.1 4.4-4.4 6.4-6.9 4.6 3.9 9.5 7.7 14.6 11.3-2.5 2.6-4.7 5.3-6.6 8l-1.9-2.3c-1.3-1.5-4.5-4.2-9.5-7.9l-3-2.2zm-1.7 76.7 1.8-3.2c.8-1.2 1.8-3.8 3.3-7.5 1.4-3.8 2.7-8.2 4.1-13.4 1.3-5.1 2.1-8.4 2.4-9.8l.4-2.5c1.3 1.6 2.5 2.9 3.5 3.8 1 .9 2.6 1.8 4.8 2.6-.9 2.8-1.6 4.8-2 6.1-.4 1.2-1 3.6-2 7-1 3.5-2.1 7.4-3.4 11.6-1.3 4.3-2.3 8.3-3.2 12-3-2.5-6.3-4.7-9.7-6.7zm-4.6-51.4c1.9-2.1 3.1-3.5 3.4-4.1l2.3-3.7 16.9 10.3c-2.2 2.6-4.2 5.3-6 8.2l-1.9-1.6c-3.7-3-7.8-5.7-12.4-8l-2.3-1.1zm158.5 4.5h25.1v-8.8h-25.1v8.8zm0-15.8h25.1v-9.8h-25.1v9.8zm-.1-18.1h25.1c3.3 0 6.4-.2 9.5-.5-.3 2.4-.4 4.2-.4 5.5 0 1.2-.1 2.9-.1 4.9v22.7c0 2.8 0 4.5.1 5.2l.4 5c-3.3-.3-6.5-.5-9.5-.5h-10.3c.2 1 .3 1.9.5 2.6.1.7.6 2.3 1.3 4.7.7 2.5 1.4 4.5 2.2 6.1 3.3-3.1 5.5-5.2 6.7-6.5 1.2-1.2 2.6-3.1 4.4-5.7 1.6 2.3 4.2 4.5 7.9 6.5l-5.5 3.7c-3.3 2.2-6.9 5-10.6 8.4 5.1 7 11.5 12.1 19.5 15.2l1.7.7c-2.8 1.8-4.7 3.3-5.8 4.4-1.1 1.1-2.1 2.7-3.1 4.9l-1.4-1.1c-2.5-2-5.3-4.4-8.3-7.5-3-3-5.7-6.2-8.2-9.5-2.5-3.3-4.5-7.8-6.2-13.2-1.6-5.5-2.7-10.1-3.3-13.7h-6.6v33.5l4.8-3.2 3.4-2.6 4.7-3.5c.4 3.4.9 5.7 1.4 6.9l.8 2.3-4.5 2.4c-5.7 3.1-10.8 6.7-15.3 10.9l-2 1.8c-1.6-3.1-2.9-5-3.8-5.6l-2.2-1.5c1.4-1.4 2.3-2.6 2.7-3.5.4-.8.6-2.3.8-4.2.1-1.9.2-4.2.2-6.8v-58.6c0-2.6 0-4.3-.1-5.2l-.4-6c3.5.4 6.6.6 9.5.6zm-54.5 24.7 2.6-2.4c1.2-1.1 3-3 5.3-5.6 2.2-2.6 4.3-6.3 5.9-10.9 1.7-4.7 2.8-7.8 3.2-9.3l.9-3.5c1 1.1 2.1 2 3.3 2.9 1.2.9 3.4 1.5 6.4 1.9l-2.5 4.4-1.6 2.6-2.6 5.1h11.1c.9 0 3.6-.1 8.1-.5-.2 1.3-.3 2.3-.4 3.1-.1.7-.1 1.4 0 1.9 0 .5.2 1.9.5 4.5-4.3-.3-7-.5-8.1-.5h-15.4l-5.8 8.4 6.4.5H855c1 0 3.4-.2 7.2-.5-.1 1.3-.3 2.3-.3 3-.1.7-.1 1.2 0 1.4l.1 1.5.2 2.7c-2-.3-4.4-.4-7.2-.5l-5.1-.1v10.7h8.3c2.3 0 4.6-.2 6.9-.5-.1 1.3-.2 2.3-.3 3 0 .7-.1 1.3-.1 1.6 0 .4.1 1.9.4 4.7-2.5-.4-4.9-.5-7.1-.5h-8.3V506l5.1-3.7c1.3-1 3.8-3.1 7.4-6.4.2 1.7.4 3.2.7 4.4.3 1.3.9 2.7 1.9 4.2l-6.2 4.4-6.3 4.6c-1.5 1.2-3.3 2.7-5.3 4.6l-4.3 4c-.4-1.2-1-2.4-1.6-3.6-.6-1.2-2-2.8-4.2-4.9 2.3-1.2 3.7-2.5 4.1-3.8.5-1.4.7-3.5.7-6.5v-16.2H835c-1.8 0-3.8.2-6 .5.1-1.3.2-2.3.3-3.1 0-.7.1-1.3.1-1.8s-.1-2-.4-4.4c2.1.3 4 .5 5.9.5h6.8v-11l-1.2.1-3.1.2-3.6.3c.3-2.1.4-3.7.4-4.9v-2.9l-5.2 7.5c-.5-1.7-1-3.2-1.4-4.5-.5-1.4-1.6-3.2-3.4-5.3zm193.7-23.5c-.4 2.1-.6 3.7-.6 4.9-.1.9-.1 1.5.1 1.8l.5 3.1c-4.9-.5-8.9-.8-12.1-.8h-20c-3.4 0-7.5.3-12.3.8.2-1.3.3-2.5.4-3.5.1-1 .1-2.1 0-3.1l-.4-3.2c5.1.4 9.2.7 12.3.7h20c2.8 0 6.8-.3 12.1-.7zm-37.8 27.8h30.4c3.6 0 8.2-.2 13.9-.7-.2 1.3-.3 2.4-.4 3.2 0 .7-.1 1.3 0 1.7 0 .4.2 2.1.4 4.9-8.1-.5-12.6-.8-13.8-.8h-5.7v40.4c0 3.5-.3 6-.9 7.4-.6 1.4-1.8 2.3-3.7 2.8-1.8.5-6.5 1.1-14 2-.1-1.3-.3-2.7-.6-4-.3-1.3-1.4-3.8-3.3-7.5 4.6.8 7.7 1.2 9.6 1.1 1.8 0 3-.4 3.4-1.3.4-.9.6-2.7.6-5.3V471h-15.9c-.3 0-4.6.3-12.9.8.1-1.2.2-2.2.3-2.8 0-.7 0-1.3.1-2.2v-1.3l-.4-3.5c5.8.4 10.1.6 12.9.6zm-52.2-8.5 2.3-1.4c3.4-2.1 7.3-5.4 11.6-9.7 4.3-4.5 7.7-8.6 10.2-12.6l1.8-3c2.5 2.4 5.2 4.7 8.1 6.9l-3 2.9c-1.1 1.2-4 4.2-8.7 9.3-4.7 5-9.5 9.7-14.4 14.2l-1.2 1.1c-.9-1.5-1.6-2.6-2.3-3.4-.7-.9-2.2-2.3-4.4-4.3zm-.2 30.3 1.7-1.3c4.9-3.7 9.7-8.5 14.6-14.2 4.9-5.8 8.9-11.3 12.1-16.6l1.5-2.6c2.1 2 4.9 4.2 8.2 6.8l-4.8 5.7-4.1 4.7-3.1 3.7V509c0 2.8 0 5 .2 6.6l.6 8.1c-4.1-.4-7.6-.4-10.5 0 .2-3.7.4-6.6.5-8.8.1-2.2.2-4.2.2-5.9v-28.5c-1.9 2.2-3.4 3.7-4.3 4.8l-5.1 5.2-1.3 1.4c-1.7-3.1-3.8-5.6-6.4-7.5zm-604.3 99.4v-6.7h14.2V593c-1.4 1.7-3.5 3.1-6.1 4.3-2.6 1.3-5.3 1.8-7.9 1.8-3.2 0-6.1-.8-8.6-2.3-2.5-1.6-4.4-4-5.9-7.1-1.4-3.1-2.2-6.8-2.2-11.1 0-4.4.7-8.1 2.2-11.2 1.4-3.1 3.4-5.5 5.7-7 2.4-1.5 5.1-2.3 8.4-2.3 3.9 0 7 1 9.4 3 2.3 2 3.8 4.9 4.5 8.7l-6.4 1.5c-.5-2.1-1.4-3.6-2.7-4.7s-2.9-1.6-4.7-1.6c-2.8 0-5.1 1.1-6.8 3.3-1.8 2.2-2.7 5.5-2.7 9.9 0 4.8.9 8.4 2.9 10.9 1.6 2.1 3.8 3.2 6.5 3.2 1.3 0 2.7-.2 4.1-.9 1.4-.5 2.7-1.4 3.7-2.4v-5h-7.6zm22.3-25.2h6.6v21.6c0 3.3.1 5.5.2 6.5.3 1.8 1 3.1 2.1 4.1 1.1 1 2.5 1.4 4.3 1.4 1.6 0 2.8-.4 3.8-1s1.6-1.6 2-2.8c.4-1.2.5-3.8.5-7.7v-22h6.6v20.9c0 5.4-.3 9.2-.8 11.6-.6 2.4-1.9 4.3-3.9 5.8-1.9 1.5-4.6 2.2-7.9 2.2-3.4 0-6.1-.6-8-1.8-1.9-1.2-3.3-2.9-4.2-5.1-.8-2.3-1.3-6.4-1.3-12.2v-21.5zm52.5 24.1-4.5-14.8-4.4 14.8h8.9zm12.1 15.7h-7.2l-2.8-9h-13.1l-2.7 9h-7.1l12.7-39.8h7.1l13.1 39.8zm5.7.1v-39.8h6.5l13.4 26.6v-26.6h6.2v39.8h-6.7l-13.2-26v26H416zm50.2-14.7v-6.7h14.2V593c-1.5 1.7-3.5 3.1-6.1 4.3-2.6 1.3-5.3 1.8-7.9 1.8-3.3 0-6.1-.8-8.6-2.3-2.4-1.6-4.4-4-5.8-7.1-1.5-3.1-2.2-6.8-2.2-11.1 0-4.4.7-8.1 2.2-11.2 1.5-3.1 3.4-5.5 5.7-7 2.3-1.5 5.1-2.3 8.3-2.3 3.9 0 7.1 1 9.4 3 2.3 2 3.9 4.9 4.5 8.7l-6.4 1.5c-.5-2.1-1.4-3.6-2.7-4.7-1.3-1.1-2.9-1.6-4.7-1.6-2.8 0-5.1 1.1-6.8 3.3-1.8 2.2-2.7 5.5-2.7 9.9 0 4.8 1 8.4 2.9 10.9 1.7 2.1 3.8 3.2 6.6 3.2 1.3 0 2.6-.2 4.1-.9 1.4-.5 2.7-1.4 3.7-2.4v-5h-7.7zm19 14.7 11.4-20.8-10.2-19h7.7l6.4 11.8 6.5-11.8h7.6l-10.2 19 11.3 20.8h-7.9l-7.3-13.6-7.3 13.6h-8zm35.7 0v-39.8h6.6v39.8h-6.6zm42.2-17.3v10.6h6.1c2.7 0 4.4-.2 5.2-.4.8-.3 1.4-.8 2-1.7.5-.8.8-1.9.8-3.1 0-1.3-.3-2.4-.9-3.2-.6-.9-1.3-1.5-2.2-1.8-.9-.3-2.8-.4-5.7-.4h-5.3zm0-15.9v9.2h4.4c2.7 0 4.2 0 4.9-.1 1.1-.2 2-.7 2.6-1.4.6-.8 1-1.8 1-3.1 0-1.2-.3-2.1-.8-2.9-.5-.7-1.2-1.2-1.9-1.4-.7-.2-2.8-.2-6.4-.2h-3.8zm-6.6-6.7h13.1c3.6 0 6 .3 7.5 1 1.5.6 2.7 1.8 3.7 3.4 1 1.6 1.5 3.5 1.5 5.6 0 2-.4 3.6-1.3 5.3-.8 1.5-1.9 2.7-3.3 3.4 1.9.7 3.4 1.9 4.5 3.5 1 1.7 1.6 3.7 1.6 6.1 0 2.9-.7 5.3-2.1 7.4-1.4 2-3.1 3.2-4.9 3.7-1.4.3-4.4.5-9.2.5h-11.2v-39.9zm35.1 39.9v-39.8h24.3v6.7h-17.7v8.8h16.4v6.7h-16.4v10.9h18.3v6.7h-24.9zm32.3 0v-39.8h6.5v39.8h-6.5zm21.5-17.3v10.6h6.1c2.7 0 4.4-.2 5.2-.4.7-.3 1.4-.8 2-1.7.5-.8.7-1.9.7-3.1 0-1.3-.3-2.4-.8-3.2-.5-.9-1.3-1.5-2.2-1.8-.9-.3-2.8-.4-5.6-.4h-5.4zm0-15.9v9.2h4.4c2.7 0 4.2 0 4.9-.1 1.1-.2 2-.7 2.6-1.4.7-.8 1-1.8 1-3.1 0-1.2-.3-2.1-.8-2.9-.5-.7-1.2-1.2-1.9-1.4-.7-.2-2.8-.2-6.4-.2h-3.8zm-6.6-6.7h13.1c3.6 0 6.1.3 7.5 1 1.5.6 2.7 1.8 3.7 3.4 1 1.6 1.5 3.5 1.5 5.6 0 2-.4 3.6-1.3 5.3-.8 1.5-2 2.7-3.3 3.4 1.9.7 3.5 1.9 4.5 3.5 1.1 1.7 1.6 3.7 1.6 6.1 0 2.9-.7 5.3-2.1 7.4-1.4 2-3 3.2-4.9 3.7-1.3.3-4.4.5-9.2.5h-11.2v-39.9zm35.1 0h6.6v21.6c0 3.3.1 5.5.3 6.5.3 1.8 1 3.1 2.1 4.1 1.1 1 2.6 1.4 4.4 1.4 1.5 0 2.8-.4 3.8-1 .9-.6 1.6-1.6 2-2.8.4-1.2.5-3.8.5-7.7v-22h6.6v20.9c0 5.4-.3 9.2-.9 11.6-.6 2.4-1.9 4.3-3.8 5.8-2.1 1.5-4.7 2.2-8 2.2-3.4 0-6.1-.6-8-1.8-1.9-1.2-3.3-2.9-4.2-5.1-.9-2.3-1.3-6.4-1.3-12.2v-21.5zm71 25.2v-6.7h14.2V593c-1.4 1.7-3.5 3.1-6.1 4.3-2.6 1.3-5.3 1.8-7.9 1.8-3.2 0-6.1-.8-8.5-2.3-2.5-1.6-4.5-4-5.9-7.1-1.4-3.1-2.2-6.8-2.2-11.1 0-4.4.7-8.1 2.2-11.2 1.5-3.1 3.4-5.5 5.7-7 2.4-1.5 5.1-2.3 8.3-2.3 4 0 7.1 1 9.4 3 2.4 2 3.9 4.9 4.5 8.7l-6.4 1.5c-.5-2.1-1.4-3.6-2.7-4.7-1.3-1.1-2.9-1.6-4.7-1.6-2.9 0-5.1 1.1-6.9 3.3-1.7 2.2-2.6 5.5-2.6 9.9 0 4.8.9 8.4 2.8 10.9 1.7 2.1 3.8 3.2 6.6 3.2 1.3 0 2.6-.2 4.1-.9 1.4-.5 2.6-1.4 3.7-2.4v-5h-7.6zm22.3-25.2h6.6v21.6c0 3.3.1 5.5.3 6.5.3 1.8 1 3.1 2.1 4.1 1.1 1 2.5 1.4 4.3 1.4 1.5 0 2.8-.4 3.8-1 .9-.6 1.6-1.6 2-2.8.3-1.2.5-3.8.5-7.7v-22h6.6v20.9c0 5.4-.3 9.2-.8 11.6-.6 2.4-1.9 4.3-3.9 5.8s-4.7 2.2-7.9 2.2c-3.4 0-6.1-.6-8-1.8-1.9-1.2-3.3-2.9-4.1-5.1-.9-2.3-1.4-6.4-1.4-12.2v-21.5zm35.2 39.9V559h6.6v32.8h16.4v6.7h-23zm30 0v-39.8h22.4v6.7H839v9.4h13.7v6.7H839v16.9h-6.6zm57.1-17.3v10.6h6.1c2.7 0 4.4-.2 5.2-.4.8-.3 1.4-.8 1.9-1.7.5-.8.8-1.9.8-3.1 0-1.3-.3-2.4-.8-3.2-.6-.9-1.3-1.5-2.2-1.8-.9-.3-2.8-.4-5.6-.4h-5.4zm0-15.9v9.2h4.3c2.6 0 4.3 0 4.9-.1 1.2-.2 2-.7 2.7-1.4.6-.8.9-1.8.9-3.1 0-1.2-.3-2.1-.8-2.9-.5-.7-1.2-1.2-1.9-1.4-.7-.2-2.8-.2-6.3-.2h-3.8zm-6.6-6.7H896c3.5 0 6.1.3 7.5 1 1.5.6 2.7 1.8 3.7 3.4 1 1.6 1.5 3.5 1.5 5.6 0 2-.5 3.6-1.3 5.3-.8 1.5-2 2.7-3.3 3.4 1.9.7 3.4 1.9 4.5 3.5 1.1 1.7 1.6 3.7 1.6 6.1 0 2.9-.7 5.3-2 7.4-1.4 2-3 3.2-4.9 3.7-1.4.3-4.4.5-9.2.5H883v-39.9zm52.4 24.1-4.5-14.8-4.4 14.8h8.9zm12.2 15.7h-7.2l-2.8-9h-13.1l-2.7 9h-7l12.6-39.8h7.2l13 39.8zm5.6.1v-39.8h6.5l13.3 26.6v-26.6h6.2v39.8h-6.7l-13.1-26v26h-6.2zm35.1 0v-39.8h6.6v17.7l13.4-17.7h8.9l-12.3 15.5 12.9 24.4h-8.6l-9-18.7-5.3 6.7v12h-6.6z" fill="#231916"/>
  <path d="M164.2 592.9c-59.6 26.7-123.4 13.7-156.8-25.4 36.3 61 104.5 82.9 169.5 55 59.2-25.4 90.9-86.1 77.7-146.6-3.6 46.1-38 93.6-90.4 117" fill="#0068B6"/>
  <path d="M65.4 414.9C24.4 441.4.2 482 0 518.3v.8c.1 13.6 3.5 26.7 10.8 38.1 26.7 41.9 94.3 46.1 151.2 9.6 5.3-3.4 10.3-7.1 15-10.9 2.3-3.7.8-7.9-.2-8.8-2.1-2-5.1-2.3-16.8.7-11.7 3-36.8 12-47.5 14.4-10.8 2.4-13.9 3.6-18.9-7.1-5-10.6-26.8-62.3-26.8-62.3-5-10.6-7.9-16.2 8.4-20.6 16.3-4.5 51.1-14.5 60.3-17.3 9.2-2.8 14.3-3.2 17.8 7 3.4 10.2 26.1 63.4 28.6 68.6 1.8 3.7 4.2 7.1 8 8.5 2.5 1 6.1-1.1 6.9-2.1 30.9-35.7 40.3-80.3 20-112.3-14.6-22.9-41.3-34.6-71.7-34.6-25.5 0-53.7 8.2-79.7 24.9" fill="#FAC702"/>
</svg>
