<svg viewBox="0 0 1024 1024" version="1.1" xmlns="http://www.w3.org/2000/svg" height="1em" width="1em">
  <path d="M120.072 381.294L7.294 494.071A24.82 24.82 0 0 0 0 511.631v0.097a24.824 24.824 0 0 0 7.294 17.56l112.778 112.777c9.727 9.728 25.493 9.728 35.22 0l112.775-112.777c9.725-9.723 9.726-25.492 0-35.217l-57.1-57.102c-43.426 73.303-7.51 120.931-7.51 120.931l-74.665-40.887-71.996 49.773c69.776-95.106 27.108-135.547 27.108-135.547l68.443 35.554 53.414-35.03-50.47-50.469a24.83 24.83 0 0 0-17.61-7.294 24.82 24.82 0 0 0-17.609 7.294" fill="#900471"/>
  <path d="M356.642 505.044h82.11c0.595 0 1.076-0.481 1.076-1.075v-6.067c0-0.594-0.481-1.075-1.075-1.075h-82.111c-0.594 0-1.076 0.481-1.076 1.075v6.067c0 0.594 0.482 1.075 1.076 1.075z m0-18.49h82.11c0.595 0 1.076-0.48 1.076-1.075v-6.066c0-0.594-0.481-1.076-1.075-1.076h-82.111c-0.594 0-1.076 0.482-1.076 1.076v6.066c0 0.594 0.482 1.076 1.076 1.076z m-19.954-19.974h121.731c0.573 0 1.045 0.449 1.075 1.02l0.457 8.79 0.001 0.063-0.447 59.08a8.605 8.605 0 0 1-8.608 8.54l-23.236-0.008-17.732 0.011a1.075 1.075 0 0 1-1.076-1.074v-10.176c0-0.594 0.482-1.075 1.076-1.075h27.767c1.18 0 2.14-0.952 2.151-2.132l0.105-11.776a1.076 1.076 0 0 0-1.075-1.085h-82.37c-0.593 0-1.075 0.482-1.075 1.076v23.857c0 0.594-0.481 1.076-1.075 1.076h-17.67a1.076 1.076 0 0 1-1.075-1.076v-74.035c0-0.594 0.482-1.076 1.076-1.076z m-11.612-23.39h62.92c0.594 0 1.076-0.482 1.076-1.076v-6.17c0-0.594-0.482-1.076-1.076-1.076h-52.922c-0.465 0-0.877-0.297-1.022-0.738l-3.372-10.226a1.076 1.076 0 0 1 1.022-1.412h56.294c0.594 0 1.076-0.482 1.076-1.076v-6.418c0-0.594-0.482-1.075-1.076-1.075H330.87c-0.403 0-0.772-0.225-0.956-0.583l-5.105-9.903a1.076 1.076 0 0 1 0.956-1.568h62.231c0.594 0 1.076-0.482 1.076-1.076v-9.717c0-0.594 0.481-1.076 1.075-1.076h16.045c0.594 0 1.076 0.482 1.076 1.076v9.717c0 0.594 0.481 1.076 1.075 1.076h61.592c0.594 0 1.076 0.481 1.076 1.075v9.903c0 0.594-0.482 1.076-1.076 1.076h-61.592c-0.594 0-1.075 0.481-1.075 1.075v6.418c0 0.594 0.481 1.076 1.075 1.076h54.449c0.594 0 1.076 0.481 1.076 1.075v10.226c0 0.594-0.482 1.075-1.076 1.075h-54.449c-0.594 0-1.075 0.482-1.075 1.076v6.17c0 0.594 0.481 1.076 1.075 1.076h61.883c0.467 0 0.882 0.302 1.024 0.748l3.422 10.7a1.076 1.076 0 0 1-1.024 1.403H325.076a1.076 1.076 0 0 1-1.076-1.076v-10.7c0-0.594 0.482-1.075 1.076-1.075z m301.066 58.872l2.285-16.479a1.076 1.076 0 0 0-1.07-1.223l-26.28 0.126a1.076 1.076 0 0 0-0.673 1.91l11.78 9.595a1.076 1.076 0 0 1 0.137 1.536l-3.17 3.686a1.076 1.076 0 0 0 0.815 1.777h15.11c0.538 0 0.992-0.396 1.066-0.928z m-21.03-36.05h23.961c0.572 0 1.044-0.448 1.074-1.02l0.753-14.283a1.076 1.076 0 0 0-1.074-1.133h-26.001a1.076 1.076 0 0 0-0.578 1.983l8.467 5.39a1.076 1.076 0 0 1 0.058 1.775l-7.295 5.344a1.076 1.076 0 0 0 0.636 1.943z m-28.402 0h20.182a1.076 1.076 0 0 0 0.644-1.938l-9.605-7.169a1.076 1.076 0 0 1 0.002-1.725l4.933-3.664a1.076 1.076 0 0 0-0.642-1.94h-13.48c-0.535 0-0.99 0.394-1.065 0.924l-2.034 14.284a1.076 1.076 0 0 0 1.065 1.227z m-6.11 36.978h25.123a1.076 1.076 0 0 0 0.813-1.78l-1.927-2.225a1.076 1.076 0 0 0-0.092-0.094l-9.25-8.36a1.076 1.076 0 0 1 0.15-1.71l3.522-2.204a1.076 1.076 0 0 0-0.535-1.987l-3.905-0.129h-10.835c-0.518 0-0.962 0.368-1.058 0.877l-3.063 16.338a1.076 1.076 0 0 0 1.057 1.274z m-6.115-110.844l18.77 2.089c0.544 0.06 0.956 0.52 0.956 1.069v8.649c0 0.594 0.482 1.076 1.076 1.076h69.169c0.594 0 1.075 0.481 1.075 1.075v11.581c0 0.594-0.481 1.076-1.075 1.076h-81.193c-0.313 0-0.61 0.136-0.814 0.372l-9.739 11.26a1.076 1.076 0 0 0 0.816 1.78l85.788-0.152a1.076 1.076 0 0 1 1.074 1.17l-2.845 32.291a1.076 1.076 0 0 0 1.076 1.17l14.143-0.067a1.076 1.076 0 0 1 1.08 1.076v15.617c0 0.594-0.481 1.076-1.075 1.076h-15.769c-0.541 0-0.998 0.402-1.067 0.94l-2.175 17.047a1.076 1.076 0 0 0 1.067 1.212h14.239c0.594 0 1.076 0.481 1.076 1.075v13.744c0 0.594-0.482 1.076-1.076 1.076h-16.595c-0.527 0-0.977 0.382-1.062 0.903l-2.395 14.7a10.756 10.756 0 0 1-10.616 9.026h-36.458a1.076 1.076 0 0 1-1.072-1.167l0.978-11.478a1.076 1.076 0 0 1 1.072-0.984h23.814a5.378 5.378 0 0 0 5.303-4.485l0.887-5.26a1.076 1.076 0 0 0-1.061-1.255h-72.82a1.076 1.076 0 0 1-1.06-1.26l6.029-34.48a1.076 1.076 0 0 0-1.06-1.262h-10.179c-0.456 0-0.863-0.288-1.015-0.718l-4.826-13.715a1.076 1.076 0 0 1 1.014-1.433h17.202c0.548 0 1.009-0.412 1.07-0.957l2.153-19.498a1.076 1.076 0 0 0-1.069-1.194H546.66c-0.305 0-0.596-0.13-0.8-0.356l-8.808-9.801a1.076 1.076 0 0 1-0.019-1.417c6.983-8.199 12.214-14.718 15.694-19.557 3.484-4.845 7.03-11.838 10.64-20.98a1.076 1.076 0 0 1 1.119-0.674z m-43.698 0.533l23.03 17.852c0.46 0.356 0.553 1.013 0.21 1.483l-4.788 6.575-0.003 0.004-5.496 7.476a1.076 1.076 0 0 1-1.545 0.198l-23.685-19.238a1.076 1.076 0 0 1-0.136-1.538l10.94-12.665a1.076 1.076 0 0 1 1.473-0.147z m1.371 90.08l13.37 3.6c0.514 0.139 0.85 0.633 0.788 1.162-2.123 18.425-4.796 31.529-8.02 39.312-2.978 7.192-5.26 12.149-6.847 14.871-0.257 0.44-0.787 0.64-1.27 0.479l-15.11-5.046a1.076 1.076 0 0 1-0.592-1.555c4.49-7.83 7.883-15.472 10.176-22.926 2.327-7.56 4.38-17.233 6.162-29.018a1.076 1.076 0 0 1 1.343-0.878z m-6.739-46.974l20.188 16.086c0.454 0.362 0.54 1.018 0.192 1.484l-10.245 13.752a1.076 1.076 0 0 1-1.593 0.148l-20.473-18.902a1.076 1.076 0 0 1-0.045-1.537l10.531-10.936a1.076 1.076 0 0 1 1.445-0.095z m256.368 28.172h43.063c0.594 0 1.076-0.482 1.076-1.076v-12.229c0-0.594-0.482-1.076-1.076-1.076h-43.063c-0.594 0-1.075 0.482-1.075 1.076v12.23c0 0.593 0.481 1.075 1.075 1.075z m0-30.815h43.063c0.594 0 1.076-0.482 1.076-1.076v-12.23c0-0.593-0.482-1.075-1.076-1.075h-43.063c-0.594 0-1.075 0.482-1.075 1.076v12.229c0 0.594 0.481 1.076 1.075 1.076z m-18.882-32.837l12.616 0.363h53.409l13.907-0.366a1.076 1.076 0 0 1 1.104 1.108l-0.387 12.5v52.836l0.377 9.615a1.076 1.076 0 0 1-1.118 1.117l-8.885-0.35-0.042-0.001h-23.763c0.113 0.977 0.883 3.509 1.88 7.295 0.418 1.585 1.709 4.432 3.871 8.539 0.215 0.407 0.665 0.633 1.12 0.561 6.313-1.001 10.595-2.118 12.846-3.349 6.154-3.367 8.978-6.969 10.515-8.48 1.842 2.862 5.514 6.845 11.016 11.948-6.147 4.869-13.06 10.718-25.445 14.926 1.805 2.646 24.088 15.601 28.772 17.348-1.524 1.958-11.07 13.725-12.705 16.108-1.902-1.289-24.881-14.922-35.592-30.258-5.691-8.15-11.59-19.476-17.698-33.98a1.076 1.076 0 0 0-0.99-0.658h-6.702c-0.594 0-1.076 0.481-1.076 1.076v42.923a1.076 1.076 0 0 0 1.338 1.044l21.818-5.49a1.076 1.076 0 0 1 1.338 1.043v7.5c0 0.421-0.246 0.804-0.63 0.979-18.482 8.43-30.53 15.02-36.145 19.764-1.654-4.27-5.139-9.54-10.454-15.81 1.693-1.27 3.727-3.26 4.291-4.241 0.563-0.979 0.846-2.421 0.846-4.326V412.84l-0.001-0.05-0.536-11.36a1.076 1.076 0 0 1 1.105-1.126z m-29.058 1.188l-2.693 10.752a1.076 1.076 0 0 0 1.006 1.337l10.186 0.349h10.573c0.594 0 1.075 0.482 1.075 1.076v9.917c0 0.594-0.481 1.076-1.075 1.076h-27.87c-0.445 0-0.844 0.274-1.004 0.69l-4.232 11.013a1.076 1.076 0 0 0 1.004 1.462h26.467c0.594 0 1.076 0.481 1.076 1.075v12.51c0 0.594-0.482 1.076-1.076 1.076h-7.86c-0.595 0-1.076 0.481-1.076 1.075v16.91c0 0.594 0.481 1.075 1.075 1.075h12.47c0.593 0 1.075 0.482 1.075 1.076v13.265c0 0.594-0.482 1.076-1.076 1.076h-12.404c-0.594 0-1.076 0.481-1.076 1.075v23.87a1.076 1.076 0 0 0 1.699 0.876l6.961-4.949a1.076 1.076 0 0 1 1.668 0.618l3.018 12.185c0.105 0.423-0.057 0.868-0.408 1.126l-26.205 19.21a1.076 1.076 0 0 1-1.478-0.199l-10.073-12.683a1.076 1.076 0 0 1 0.204-1.535l6.64-4.897c0.274-0.203 0.436-0.524 0.436-0.865v-32.757c0-0.594-0.481-1.075-1.075-1.075h-14.556a1.076 1.076 0 0 1-1.076-1.076v-13.265c0-0.594 0.482-1.076 1.076-1.076h14.556c0.594 0 1.075-0.481 1.075-1.075V454.9c0-0.594-0.481-1.075-1.075-1.075h-7.842c-0.26 0-0.513 0.094-0.709 0.266l-5.708 4.995a1.076 1.076 0 0 1-1.76-0.58l-0.804-3.707a1.076 1.076 0 0 0-0.021-0.08l-4.852-16.155c-0.103-0.341-0.03-0.71 0.194-0.987 5.986-7.378 10.394-14.171 13.225-20.379 2.756-6.044 5.229-13.208 7.42-21.49a1.076 1.076 0 0 1 1.446-0.72l12.823 5.247c0.495 0.203 0.766 0.738 0.636 1.257z m216.761 2.73h74.469c0.594 0 1.075 0.481 1.075 1.075v13.911c0 0.594-0.481 1.076-1.075 1.076h-74.469a1.076 1.076 0 0 1-1.076-1.076V405.3c0-0.595 0.482-1.076 1.076-1.076z m-8.614 43.86h91.166c0.594 0 1.075 0.48 1.075 1.075v15.53c0 0.594-0.481 1.076-1.075 1.076h-21.772c-0.595 0-1.076 0.481-1.076 1.075v65.7c0 5.347-4.334 9.682-9.68 9.682h-50.024a1.076 1.076 0 0 1-1.076-1.076V529.23c0-0.594 0.482-1.075 1.076-1.075h34.563a4.303 4.303 0 0 0 4.303-4.303v-57.013c0-0.594-0.482-1.075-1.076-1.075h-46.404a1.076 1.076 0 0 1-1.075-1.076v-15.53c0-0.594 0.481-1.076 1.075-1.076z m-9.476-42.457l-37.402 32.819a1.076 1.076 0 0 1-1.433-0.013l-12.827-11.674a1.076 1.076 0 0 1 0.011-1.601l35.72-31.649a1.076 1.076 0 0 1 1.344-0.066l14.509 10.505a1.076 1.076 0 0 1 0.078 1.68z m-11.14 29.896l11.347 10.076a1.076 1.076 0 0 1 0.087 1.522l-13.386 14.965a1.076 1.076 0 0 0-0.274 0.717v75.862c0 0.594-0.482 1.076-1.076 1.076h-13.759a1.076 1.076 0 0 1-1.076-1.076v-56.27a1.076 1.076 0 0 0-1.848-0.75l-11.617 11.986a1.076 1.076 0 0 1-1.734-0.266l-7.731-15.404a1.076 1.076 0 0 1 0.184-1.226l39.392-41.151a1.076 1.076 0 0 1 1.491-0.061z" fill="#231916"/>
  <path d="M324 631.483v-59.434h17.453c6.727 0 11.886 1.125 15.477 3.374 3.59 2.249 5.386 5.488 5.386 9.718 0 7.202-4.606 12.328-13.818 15.38 11 2.972 16.5 8.34 16.5 16.104 0 4.819-1.819 8.5-5.455 11.043-3.636 2.543-8.878 3.815-15.726 3.815H324z m6.15-27.51v21.362h2.427c8.695 0 14.322-0.404 16.881-1.211 4.893-1.53 7.34-4.37 7.34-8.517 0-3.673-2.22-6.728-6.662-9.163-2.961-1.624-9.623-2.448-19.986-2.472z m0-5.28h3.924c6.56 0 11.645-0.999 15.256-2.994 3.612-1.995 5.418-4.808 5.418-8.439 0-6.041-6.599-9.062-19.796-9.062h-4.802v20.494z m168.088 32.79v-59.434h7.277v29.235l22.123-29.235h7.793l-21.422 28.352 25.227 31.082h-9.825l-23.896-30.118v30.118h-7.277z m91.871 0c-8.515 0-15.365-2.816-20.549-8.447-5.184-5.631-7.776-13.076-7.776-22.334 0-9.31 2.606-16.756 7.818-22.334 5.211-5.579 12.171-8.368 20.88-8.368 8.682 0 15.635 2.783 20.86 8.348 5.226 5.565 7.838 12.99 7.838 22.275 0 9.469-2.612 16.98-7.838 22.532-5.225 5.552-12.303 8.328-21.233 8.328z m-0.232-6.045c6.945 0 12.314-2.162 16.108-6.485 3.794-4.324 5.69-10.426 5.69-18.306 0-7.643-1.904-13.62-5.713-17.93-3.81-4.31-9.079-6.465-15.81-6.465-6.761 0-12.04 2.162-15.833 6.485-3.794 4.324-5.69 10.333-5.69 18.029 0 7.669 1.881 13.698 5.644 18.088 3.763 4.39 8.965 6.584 15.604 6.584z m39.553 6.045v-59.434h31.67v4.625h-25.365v23.438h22.393v4.566h-22.393v26.805h-6.305z m109.935 0.904c-10.537 0-18.261-0.302-23.173-0.904-7.917-0.97-16.182-4.55-21.167-9.922-4.984-5.372-7.63-12.24-7.63-20.82 0-8.803 2.593-15.523 7.63-20.783 5.038-5.26 11.124-7.909 19.542-7.909 8.446 0 15.18 2.637 20.205 7.909 5.024 5.272 6.511 12.223 6.511 21.076 0 12.684-4.98 20.564-15.11 25.438h13.192v5.915z m-25.115-9.102c6.284 0 11.142-1.975 14.574-5.927 3.433-3.95 5.149-9.538 5.149-16.762 0-7.006-1.716-12.49-5.149-16.453-3.432-3.964-8.207-5.945-14.325-5.945-6.118 0-10.892 1.981-14.325 5.945-3.432 3.963-5.149 9.472-5.149 16.526 0 7.03 1.703 12.556 5.108 16.58 3.404 4.024 8.11 6.036 14.117 6.036z m62.77 8.198v-59.434h6.186L817.93 620.8v-48.75h6.227v59.433h-6.978l-33.973-48.75v48.75h-6.186z m110.693-3.046c-7.665 2.03-14.347 3.046-20.046 3.046-10.059 0-17.773-2.65-23.144-7.952-5.372-5.302-8.057-12.898-8.057-22.79 0-9.706 3.127-15.42 8.57-20.815 5.442-5.394 12.672-9.926 22.503-9.926 6.44 0 13.135 0.884 20.088 2.65v7.676c-8.72-2.743-15.401-4.114-20.046-4.114-6.838 0-14.326 4.193-18.102 8.493-3.775 4.3-6.069 8.517-6.069 16.324 0 7.729 2.023 13.736 6.07 18.022 4.045 4.286 12.303 6.22 19.597 6.22 2.992 0 8.672-0.488 12.149-1.463v-19.07h6.487v23.699z m-16.4-25.646h16.4v6.148h-16.4v-6.148z m26.649 28.692v-59.434h5.993v25.059h31.061v-25.059h5.993v59.434h-5.993v-28.07h-31.061v28.07h-5.993z m87.996-22.544l-10.101-28.703-10.905 28.703h21.006z m8.763 22.544l-6.691-16.465h-24.925l-6.327 16.465h-7.57l22.786-59.434h8.074l22.437 59.434h-7.784z m-560.028 0v-59.434h6.185l34.724 48.751v-48.75h6.228v59.433h-6.978l-33.974-48.75v48.75h-6.185z m-24.746-22.544l-10.102-28.703-10.905 28.703h21.007z m8.762 22.544l-6.691-16.465h-24.925l-6.327 16.465h-7.57l22.787-59.434h8.074l22.436 59.434h-7.784z m598.145 0v-59.434h6.306v59.434h-6.306z m-260.333 0v-59.434h6.306v59.434h-6.306z" fill="#000000"/>
</svg>
