<svg viewBox="0 0 1024 1024" xmlns="http://www.w3.org/2000/svg" height="1em" width="1em">
  <path d="M224 0h576c123.6 0 224 100.4 224 224v576c0 123.6-100.4 224-224 224H224C100.4 1024 0 923.6 0 800V224C0 100.4 100.4 0 224 0z" fill="#FFF"/>
  <path d="M419.6 405.6c24.4 9.6 48.8 20 72.4 31.6-76 30.8-150 68-219.6 110.8-23.6-12.4-48-24.8-72.4-35.6 70.4-41.2 143.6-77.2 219.6-106.8zM327.2 372c21.2 6.4 41.2 13.6 61.6 21.2C312 420.8 238.4 456 168.4 498.4c-22.4-10-45.2-18.8-68.4-27.6 72.4-40 148.4-73.2 227.2-98.8z" fill="#0060AA"/>
  <path d="M584.4 404.4c-21.6 7.6-42.8 14.8-64 23.2-64-30.8-130.8-56.4-198.8-77.2 22.4-7.2 45.6-14.8 69.6-21.6 66 20.4 130.4 45.6 193.2 75.6zm100-31.2c-22 5.6-44.4 12.4-66 19.2-62.8-30-128-54.4-194.8-74 20.8-5.6 42-10.4 63.6-14.4 67.6 18.4 133.6 41.2 197.2 69.2zM502.4 724c-32-24-64.4-45.6-98.4-66.8C539.2 560.8 688.4 483.6 848 430c25.6 13.6 50.8 28 76 43.6-152 64-294 148.8-421.6 250.4zm235.2-347.6c29.2 11.6 57.2 25.2 84.8 39.2-162.8 49.2-315.6 124.4-453.2 220-30.4-17.6-61.6-34.4-93.2-50C416.4 491.2 572 420 737.6 376.4z" fill="#E41215"/>
</svg>
