<svg viewBox="0 0 1024 1024" version="1.1" xmlns="http://www.w3.org/2000/svg" height="1em" width="1em">
  <path d="M254.51843 574.214H210.02343c5.606-4.949 7.083-24.246 9.558-58.194l0.488-7.921c1.331-19.283 2.307-34.114 2.143-44.505-0.165-8.892-1.154-14.666-3.629-16.646h49.773c11.866 0 35.599 0.661 35.599 25.388 0 16.48-15.33 26.705-29.338 30.335 19.781 1.964 34.608 11.531 34.608 31.972 0 22.088-20.763 39.571-54.707 39.571z m-1.606-61.349h-9.085l-1.323 18.735c-0.653 8.22-0.983 15.127-1.154 23.334 0 1.15 3.634 3.617 12.217 3.617 17.823 0 29.552-8.865 29.552-23.5 0-16.263-13.37-22.186-30.207-22.186z m3.999-50.906c-2.49 0-5.817 0-8.971 0.32-1.33 8.981-2.162 17.63-2.82 27.096 0 0-0.507 8.15-0.507 7.817h3.327c16.29 0 31.263-5.655 31.263-20.611 0-8.647-7.16-14.622-22.292-14.622z m156.844 113.56c-10.888 0-11.714-0.332-20.466-30.36l-3.137-11.065c-5.287 2.477-14.687 3.646-29.702 3.646h-15.193l-2.641 5.602c-2.644 5.931-9.084 18.151-8.913 25.255 0 1.65 0.172 3.288 0.834 5.779H304.00343c8.747-8.754 19.797-29.051 35.144-61.905l8.918-18.979c8.092-17.16 16.673-36.634 16.673-39.44 0-2.479-0.653-4.791-1.658-7.104H390.81343s7.266 27.552 13.707 50.507l5.443 20.139c9.406 33.84 15.346 50.342 23.265 56.782-7.087 0.811-16.005 1.143-19.472 1.143z m-40.295-99.202l-20.508 44.38h33.285l-12.777-44.38z m160.532 103.118c-9.397 0-11.699-1.484-14.825-5.763L483.56343 524.31c-2.788-3.786-4.938-6.916-9.385-6.916h-0.825l-0.659 9.551c-0.823 12.997-1.318 23.37-1.318 31.097 0.166 8.563 1.154 13.818 3.463 15.973h-34.434c4.946-4.459 6.747-19.267 9.556-58.103l0.488-8.06c1.333-19.1 2.309-33.909 2.15-44.283-0.172-9.044-1.161-14.643-3.634-16.62h46.965c15.328 0 36.42 2.635 36.42 27.474 0 20.42-13.678 31.606-30.648 36.874 1.643 1.47 4.603 5.275 6.417 7.58l25.872 34.224c16.153 21.23 17.478 22.218 23.238 25.182-7.244 0.824-16.97 1.153-23.238 1.153zM487.92943 461.96c-3.154 0-6.95 0-9.94 0.345-0.989 5.44-1.823 14.857-2.976 30.047l-0.67 8.923c1.664 0.33 3.805 0.496 5.806 0.496 15.893 0 26.827-9.583 26.827-24.112 0-9.914-6.965-15.699-19.047-15.699z m113.691 114.213c-32.693 0-51.57-26.947-51.57-57.198 0-42.082 22.82-74.636 66.348-74.636 13.636 0 20.045 2.466 31.051 2.466l-3.287 32.376c-6.24-11.335-16.429-19.051-30.065-19.051-27.091 0-38.112 29.248-38.112 54.4 0 27.294 15.293 42.246 35.654 42.246 10.992 0 20.688-2.958 36.961-14.294-6.574 21.038-21.86 33.691-46.98 33.691z m224.632-0.653c-10.895 0-11.705-0.332-20.45-30.36l-3.136-11.065c-5.265 2.477-14.668 3.646-29.669 3.646h-15.176l-2.627 5.602c-3.795 8.424-8.916 18.303-8.916 25.255 0 1.65 0.18 3.454 0.838 5.779H657.08343c5.114-5.78 6.765-24.441 9.225-58.268l0.511-8.083c1.32-19.322 2.301-34.17 2.13-44.562-0.158-8.587-0.976-14.036-3.286-16.515h34.784c-4.95 3.799-6.757 24.264-9.069 58.104l-0.667 8.08c-0.818 12.553-2.474 25.421-2.474 37.96 0 5.778 2.323 7.099 8.25 7.099 21.102 0 26.397-0.48 35.945-6.934 5.941-10.887 12.691-24.58 19.297-38.786l8.9-18.979c8.415-17.82 16.65-35.974 16.65-39.44 0-2.479-0.652-4.791-1.643-7.104h27.689s11.22 41.591 13.695 50.507l5.43 20.139c9.398 33.84 15.335 50.342 23.248 56.782-6.599 0.811-16.003 1.143-19.447 1.143z m-40.393-99.202l-20.436 44.38h33.285l-12.849-44.38z m119.914 29.228c-2.96 4.967-6.735 11.729-9.038 16.696-1.973 9.398-2.95 21.935-2.95 35.79 0 5.78 0.977 13.526 3.602 16.183H863.05343c6.058-5.779 8.538-41.255 8.215-52.484-4.603-16.02-10.859-31.364-20.388-50.01-6.064-11.71-13.144-22.773-17.581-24.92 7.72-0.661 17.58-1.157 22.356-1.157 8.537 0 10.84 1.156 16.101 12.717 8.208 18.645 14.291 32.666 17.91 43.071 8.729-13.707 14.8-23.106 22.677-35.985 1.966-3.138 3.619-7.086 3.619-10.884 0-2.973-0.507-6.275-1.823-7.763h34.025c-6.563 1.488-36.155 48.191-42.391 58.746z m115.453-28.653c-5.29-9.54-16.673-16.763-29.053-16.763-10.886 0-20.472 4.426-20.472 15.94 0 9.704 12.057 16.27 24.601 24.33 13.695 8.538 27.899 19.069 27.899 37.312 0 23.836-23.276 38.461-50.188 38.461-11.057 0-22.598-2.138-35.639-7.058l2.14-31.733c6.283 12.665 18.01 22.686 35.316 22.686 13.377 0 23.266-6.401 23.266-17.586 0-9.54-8.087-15.446-17.98-21.37-20.79-12.503-34.004-22.522-34.004-40.616 0-27.125 22.778-36.157 46.37-36.157 13.706 0 22.295 2.466 31.042 2.466l-3.298 30.088zM66.62943 430.438c0.512-1.635 1.974-2.438 4.226-2.438 0.327 0 0.659 0.015 1.011 0.042 3.05 0.29 5.113 0.566 7.6 1.3 3.035 0.903 5.038 2.955 6.075 6.169 1.048 3.2 1.292 6.515 1.631 9.824 0.492 5.961 0.353 12.945 4.466 19.97 3.147 5.35 10.005 8.207 15.077 8.207 10.927 0 16.205-5.656 17.445-11.38-0.021 0.015-0.041 0.015-0.063 0.028 0.022-0.013 0.042-0.027 0.063-0.042-4.088 0.596-8.334-4.296-5.21-8.882 3.096-4.532 10.711-4.352 16.13-2.84 6.637 1.856 12.11 8.701 14.458 13.511 2.952 6.041 5.07 14.453 5.48 21.091 0.472 7.346 0.423 15.454-0.104 21.522-0.66 7.598-2.419 15.359-4.954 22.094-2.548 6.79-5.66 12.818-8.88 19.013l-0.313 0.623c-0.111-0.125-0.623-0.608-1.088-1.15-1.344-1.496-4.308-5.072-5.46-6.694-1.149-1.62-4.959-8.397-6.083-10.766v0.026-0.026c-5.056 3.366-5.957 5.625-6.151 8.967-0.227 3.573 2.757 11.405 7.435 19.787 0.29 0.513 0.684 1.22 1.017 1.844h0.014-0.014c-0.264-0.265-0.667-0.706-1.537-1.622-1.026-1.11-5.037-5.612-8.98-11.225-3.948-5.627-9.437-14.69-12.366-22.742v0.043-0.043c-4.026 1.678-5.717 3.909-6.763 6.126-1.462 3.048-0.325 9.743 3.881 19.528 2.91 6.775 6.907 13.108 11.541 19.76 0.561 0.79 1.393 1.872 1.89 2.579-0.455 0.36-0.94 0.76-1.427 1.135-5.228 4.047-11.637 8.48-17.623 11.959-6.5 3.783-14.861 7.817-21.375 9.341-6.511-1.524-14.874-5.558-21.372-9.341-5.988-3.479-12.388-7.912-17.618-11.959-0.48-0.374-0.977-0.776-1.435-1.135 0.5-0.707 1.33-1.79 1.884-2.58 4.636-6.65 8.646-12.984 11.557-19.76 4.2-9.784 5.334-16.479 3.88-19.527-1.054-2.217-2.743-4.448-6.776-6.126 0 0 0 0.03 0.014 0.043-0.014-0.012-0.014-0.043-0.014-0.043-2.917 8.052-8.416 17.115-12.353 22.742-3.941 5.613-7.953 10.115-8.986 11.225-0.872 0.916-1.275 1.357-1.539 1.622 0.335-0.625 0.743-1.331 1.026-1.844 4.671-8.382 7.664-16.214 7.436-19.787-0.21-3.34-1.103-5.6-6.153-8.961v0.007c0-0.006-0.002-0.007-0.002-0.01l-0.006-0.003c-1.11 2.369-4.932 9.145-6.082 10.766-1.15 1.622-4.117 5.198-5.444 6.695-0.485 0.54-1 1.024-1.095 1.15-0.133-0.235-0.224-0.43-0.32-0.624-3.229-6.195-6.33-12.224-8.88-19.013-2.538-6.735-4.296-14.496-4.962-22.094-0.527-6.068-0.569-14.176-0.098-21.522 0.403-6.624 2.522-15.05 5.488-21.09 2.34-4.81 7.822-11.656 14.452-13.513 5.418-1.51 13.04-1.69 16.129 2.841 3.138 4.586-1.124 9.478-5.21 8.882 0.007 0.007 0.01 0.01 0.012 0.015 2.592 11.46 16.109 11.933 20.992 11.1 13.394-2.288 16.227-14.246 16.837-18.653 0.554-4.047 0.778-11.018-2.896-15.064-3.077-3.368-11.41-6.735-16.96-3.922 0.722-0.984 1.483-1.733 1.953-2.08 2.646-1.898 4.935-2.506 6.535-2.799 1.6-0.29 4.364-0.76 8.957-0.277z" fill="#009DDF"/>
</svg>
