<svg viewBox="0 0 1024 1024" xmlns="http://www.w3.org/2000/svg" height="1em" width="1em">
  <path d="M411.179 480.543c.02 8.617-2.059 11.995-4.363 16.917-4.039 8.651-7.181 16.644-11.248 21.52-13.158 15.746-26.49 13.058-31.887 13.634 0 0-13.738 1.796-15.628-6.849-.434-4.083-1.42-7.522-.672-7.83 1.407-.583 7.055.877 9.435.47 1.784-.512 4.31-1.284 7.495-2.288 2.73-.547 4.984-1.087 6.803-1.607 5.431-1.543 11.653-5.943 18.575-13.296 3.059-4.75 6.362-9.073 6.292-13.037-.066-3.086-.406-5.585-.655-7.268l-4.045.093c-3.112.625-7.812 1.375-10.043 2.257-3.28 1.09-4.959 6.23-5.064 10.896-1.028 3.868-4.105 6.716-9.204 8.577-1.91.646-11.75 1.944-10.805-1.278 1.014-3.514 2.643-14.827 1.154-22.702-.875-2.715 1.37-4.396 10.595-5.02 32.753-2.75 72.444-1.265 74.297-1.23 15.303-.222 16.967 1.125 13.59 7.834-1.253 3.972.265 11.055-.714 14.132-1.021 3.472-2.707 5.986-5.043 7.458-2.105 1.299-4.889 1.271-6.238 1.077a4.026 4.026 0 0 1-1.364-.07c-.49.097-.951.125-1.371.056-1.609.208-2.812-.292-3.609-1.674.063-2.354 2.084-7.847 2.546-13.632-.462-3.632-3.609-6.09-6.791-6.521l-3.476-.07c-4.21-.354-8.834-.597-10.757-.729l-7.805.18zm146.011-56.65c.526 7.913-.89 11.67-1.758 16.889-1.352 8.18-.687 24.163-2.6 43.831 0 .929-1.863 11.065-2.529 13.527-8.148 29.088-19.546 31.697-36.606 32.373-12.386.161-13.423-2.272-13.92-4.53-.057-2.709 2.22-3.778 6.123-5.494 6.67-2.955 12.07-5.438 18.467-12.458 6.88-5.98 11.3-11.635 13.452-19.774.322-1.245-.21-2.807-1.366-3.229-1.283-.147-3.812 2.125-5.703 4.045-4.996 4.558-11.371 8.709-19.127 12.444-3.74 1.92-12.919 6.042-15.735.957-2.46-7.492-2.886-8.948 5.927-15.624 6.284-4.432 8.38-7.182 11.44-17.023 3.02-13.668-6.333-30.002-4.868-38.197 1.268-4.952 2.816-8.153 4.63-9.496 1.99-1.879 10.25-3.56 12.36 3.13 1.66 7.386 4.336 34.159 2.206 43.627-2.354 8.85-1.107 8.21-.511 8.308 3.944-.732 7.489-.992 9.64-11.185 2.606-8.103 2.669-16.418.21-24.909-1.464-4.01-2.025-8.497-1.646-13.456 2.255-11.656 12.148-10.615 12.169-10.643 5.752.246 8.73 1.976 9.745 6.886zm93.054-4.822c1.1 11.223-.677 30.056-.952 37.777-.67 19.434-2.327 41.11.345 71.62-.437 1.307-4.568 3.928-10.857-.097-3.412-2.663-4.702-6.143-5.703-14.773-.014-1.3-2.883-15.996-3.983-29.454-.212-1.14-.268-2.705-1.615-2.383-.641.202-1.515.58-2.728 1.146-7.43 2.655-12.471 4.626-15.263 5.926-1.22.559-9.25 2.955-8.263-5.088 8.023-31.523 3.166-52.71 7.84-58.685 1.438-1.23 11.132-3.159 14.488 3.138 2.946 5.457 2.636 12.173-.515 19.957-7.452 15.556-2.32 17.282-1.622 17.59 4.11.432 11.421-3.704 9.37-24.738-.578-6.031-.36-12.67.536-19.993 1.325-4.298 4.335-7.12 8.967-8.462.578.07 8.467-1.328 9.955 6.52zm-49.05 16.857c-2.176 6.304-2.05 55.075-8.007 85.382-.495 2.003-1.479 4.21-3.362 4.686-.335 0-3.69.574-6.243-3.467-3.348-5.737-5.776-17.623-1.242-36.597.377-2.018-.314-2.67-1.353-2.998-.6 0-1.862 1.317-3.655 2.41-5.008 3.214-8.168 5.519-9.528 6.856-2.197 2.249-9.375 3.615-10.17-.497-.593-3.082-.363-6.45.502-10.058 1.737-4.49 3.23-11.9 4.387-22.225.768-9.385.391-15.654-1.032-18.778-1.45-3.993-.572-9.232 3.16-15.487 2.588-4.384 9.263-3.032 10.107-2.857 1.395.868 2.35 2.647 2.853 5.316.565 6.71.098 17.658-1.458 32.92-.844 4.735-.879 8.461.74 9.12 3.773-.169 5.552-1.597 5.573-11.922 0-4.461 1.032-18.568 1.032-19.472.286-8.076-.781-12.208 5.106-19.563 3.865-3.488 10.303-4.426 12.96 1.114 1.047 6.71.921 12.083-.37 16.117zm-203-2.856c3.134-4.151 3.596-6.331 1.329-7.348-.833.118-1.68.195-2.68.292-2.784-.007-11.425.154-12.349.53-4.17.717-11.397.404-14.161 2.375-1.91 1.595-1.595 4.687-1.176 6.707.21.467.546.752.868 1.024 2.778-1.351 9.27-2.006 14.413-1.887 3.19.027 12.314-.53 13.756-1.693zm21.487-7.696c-1.428.759-2.267 2.333-2.344 5.572.307 1.957 2.365 3.016 6.052 3.183h.154c.23 0 .454.035.671.035.273 0 .532 0 .805-.035.196 0 .399.035.567.035.224 0 .42 0 .671-.035 4.29.104 15.799.3 18.913.57 3.386-2.228 5.198-3.941 5.268-5.843-1.357-1.268-2.939-1.88-4.8-1.93-3.582-.877-17.484-1.385-25.957-1.552zm70.94 24.621c1.007.69-.337 2.508-.813 3.727-4.352 7.612-1.112 13.853-9.326 17.559a16.635 16.635 0 0 1-3.359.243c-5.415.286-9.585-2.194-11.936-2.584-18.051-3.176-36.635-3.58-47.99-3.977-1.89 0-4.562.147-8.165.418-11.972.174-19.801.62-23.537 1.345-18.03 2.87-32.017 1.037-40.294 4.798-4.01 1.811-7.123 2.94-9.593 2.752a5.147 5.147 0 0 1-1.392-.014 6.316 6.316 0 0 1-1.357 0c-1.68.146-3.1-.216-4.268-1.254-1.323-2.884-.315-8.755 1.938-13.819 2.323-5.189 57.708-4.84 63.124-8.441 3.134-1.387 4.653-4.87 2.239-5.162-.973-.041-1.896-.07-2.827-.09-7.144.132-23.27 1.17-29.673 3.204-11.034 1.483-11.915-.641-10.733-3.155 2.869-5.21 3.009-10.95.357-15.853-1.315-2.069-2.904-4.653-4.68-5.872.545-3.65 3.337-6.895 9.326-6.784h.014c.399 0 10.985-.209 16.547-.912 5.534-1.1 18.66-1.1 19.598-1.073 3.701-.738 7.262-1.281 9.795-4.34 2.715-3.294 7.99-4.206 13.58.795 1.288 2.863 3.317 3.35 6.088 3.44 34.787 1.039 43.687 3.539 45.066 4.36 2.651 4.117 1.623 11.04-3.058 14.607-3.813 2.243-6.654 4.332-7.116 7.139-.545 3.622-3.358 6.29-8.417 6.603-.356 0-18.625-2.243-31.996-1.706-1.854.376-2.574 1.156-2.14 2.382.405 1.622 1.749 1.386 4.058 2.235 5.03.488 5.205 1.191 8.941 1.38 20.71.96 53.805-.55 56.128-.725 2.274-.174 3.001-1.302 4.639-1.226.035.028.853-.188 1.231 0zm245.934 42.693c0 .455-5.554 10.472-10.959 14.07-10.712 6.7-12.532 9.275-16.434 13.727-3.416 4.011-9.357 11.011-16.04 9.92-1.997-.302-4.156-3.858-4.798-4.936-.974-1.778-1.934-3.108 2.01-4.536 4.475-1.575 4.03-20.069 6.013-31.248 0-1.106-.19-1.862-.508-2.359-.473.063-.988.196-1.616.336-4.248.973-7.77 1.38-10.535 1.24-6.295.28-9.654-1.709-10.013-5.923.465-5.383 2.935-8.49 7.289-9.38 5.49-1.414 14.875-4.452 16.103-4.69 3.726-1.365 1.496-5.796.875-6.013h-.064c-3.443 1.057-16.018 2.226-16.166-4.039v-9.373c-6.661 6.601-13.414-2.68-15.376-8.057 3.443-2.646 6.619-5.775 9.52-9.352l.754-.686c2.9-2.674 5.363-4.668 7.304-6.005 5.334-5.37 9.258-9.807 11.678-13.398 4.424-5.747 11.311-2.037 11.093 4.025-.515 3.1.218 5.11 2.159 6.013 4.121-.077 7.042-.26 8.694-.651 2.843-.525 5.574-.7 8.263-.616 2.71-.084 5.348.09 7.917.616h2.188c6.717 0 4.6 5.04 2.92 10.016-.966 2.702-5.108 4.263-12.418 4.725-3.93 0-9.992.427-18.284 1.337-2.914.448-5.109.658-6.57.658-1.975.882-5.616 3.801-10.972 8.694.332.462.833.742 1.545.896.981-.154 2.124-.434 3.465-.896 7.346-2.24 14.734-3.29 22.228-3.318 6.69-.252 13.45.427 20.28 1.981 1.969 1.337 1.214 4.48-2.194 9.36-3.91 3.59-11.467 5.62-22.659 6.04-1.298 1.33-1.926 4.942.141 6.531 6.266-1.169 17.874-2.142 22.518-1.169 2.025.427 2.152 2.023 1.467 4.697-4.89 6.265-13.216 10.738-23.378 12.054-1.778 4.977-2.505 18.256 1.616 16.212 9.23-7.259 13.62-8.099 15.757-9.863 2.766-2.443 7.268 0 5.187 3.36zm54.394-23.835c1.43 0 2.824 0 4.303.056 1.941-3.116 2.417-5.988 1.443-8.644-3.93-.461-7.883-.664-11.842-.67-7.533.097-15.2.999-22.914 2.662-2.712 4.57-2.65 7.728.063 9.58 7.953-2.103 17.595-3.067 28.947-2.984zm-8.17 35.367c1.373-.343 3.097-.538 5.213-.538 2.894-.44 4.821-.671 5.781-.671a281.926 281.926 0 0 0-4.33-9.343c-.498-.42-.918-.776-1.339-.957-.259.181-.525.538-.756.957-.967 1.803-2.915 4.675-5.824 8.686-.35.971.078 1.6 1.255 1.866zm17.553-68.72c-3.216-.72-7.414-1.14-12.522-1.167-6.853.048-15.234.663-25.156 1.851-3.392 1.342-4.1 3.536-2.18 6.667.645 1.51 1.612 2.355 2.88 2.67 7.239-1.81 14.68-2.67 22.354-2.614 3.812-.098 7.659.077 11.527.447 3.89-1 4.912-3.606 3.097-7.854zm-25.402 50.146c.792-1.503.225-2.37-1.688-2.6-1.234.14-2.586.566-4.072 1.244-2.887.454-4.842.678-5.795.678-2.9 1.342-4.61 3.766-5.066 7.358-.217 3.145-.4 6.227-1.465 10.685-.427 3.424.73 2.837 1.591 3.04.967-.14 2.081-.482 3.399-1.028 3.889-1.341 8.233-7.77 13.096-19.377zm55.73 28.79c2.48 1.629 7.442.524 8.5.769.911.601 2.208 3.452.736 5.024-4.316 3.6-3.938 7.296-6.804 9.525-3.062 2.02-12.277 3.76-16.054 2.683-6.79-1.788-8.5-2.068-12.361-7.358-2.425-3.997-4.611-8.91-6.531-14.71a4.705 4.705 0 0 0-.855-1.076c-.133.112-.322.273-.511.44-2.895 4.906-8.234 7.324-15.97 7.324-13.56 0-22.936 3.585-30.202 7.589-3.868 1.803-5.039 2.676-9.846 2.676-3.882 0-3.377.07-4.015-.042-3.21.357-5.606-2.103-5.164-4.29.98-6.24-.309-10.958 4.036-11.398 8.29-4.15 10.735-11.069 10.37-25.282-.14-5.794.737-38.498-.385-66.61 2.656-2.775 10.014-1.272 17.267-.063 4.89-1.608 31.036-2.921 46.669-.552 3.308-1.698 10.518-3.648 13.636-.133 1.682 1.957 1.822 4.095.708 6.024l-.988 1.83a25.856 25.856 0 0 0-2.18 5.346c-.469 2.23.779 4.165-.742 9.336-1.191 4.13-5.36 15.178-8.731 34.8-.477 2.691-6.244 4.655-8.647 6.003-1.934.462-1.717 2.453.714 6.017 6.272 8.945 18.731 21.523 27.35 26.128zm101.265-73.856c-10.27.24-14.824-2.43-13.614-7.935 1.662-6.475 6.687-11.462 14.705-11.125 2.02-.112 4.258.057 6.743.471 4.371.899 10.77 1.496 14.768 1.538a113.03 113.03 0 0 0 4.09-.19c6.524-.47 12.543-.709 18.096-.674 5.667-.035 10.868.204 15.528.674 2.147.415 7.68.83 8.06.675 2.407.884 3.878 2.928 4.37 6.046-.492 3.568-5.088 7.74-13.33 8.617-1.979 0-4.886.253-8.785.681-1.204.274-2.886.373-4.857.295-1.697.078-3.703-.02-6.173-.295h-4.273c-12.62 0-21.152.24-25.523.689-3.766.414-7.025.604-9.805.533zm-74.018 2.66c-5.361 0-7.482-2.264-10.59-7.667-2.268-3.482-2.88-7.207-1.6-9.943.793-2.02 2.767-2.96 9.276-1.156 9.047.85 16.14 1.692 27.058-3.384 6.453-3.53 12.26-1.073 15.257-.265 1.94.397 4.742.836 5.048 1.476.508 6.782-5.966 8.433-12.475 13.084-1.106.856-2.97 1.887-5.626 3.07-4.283 2.5-7.016 2.305-8.087 3.155-8.95 3.35-13.727 2.367-18.261 1.63zm160.706 8.26c4.642-2.105 5.167.673 5.167.673 0 3.549-1.232 7.806-3.627 12.71-2.423 6.29-4.853 9.412-7.275 9.412a61.82 61.82 0 0 1-5.063 1.354c-1.779.701-11.4.498-14.594-.68-1.848-.618-7.254-1.467-8.655-1.628-2.402.295-3.914 1.494-4.481 3.802-.946 7.596-1.863 25.496-1.359 34.895.967 11.194 2.5 17.717-3.473 21.316-1.422.785-5.553.477-6.043.477-2.41 0-5.833-1.326-6.499-6.004 0-.463 1.009-35.85.05-51.54 0-3.107-2.423-4.889-7.262-5.352-.707-.049-1.499-.049-2.311-.049-8.067.12-18.122 1.466-30.244 4.082-4.02.779-7.072 1.109-9.215.947-2.738.162-4.545-.168-5.4-.947-1.932-1.332-1.932-4.902 0-10.745 2.396-5.352 4.84-8.27 7.241-8.719 2.017-.533 4.293-.687 6.807-.61 2.388-.077 4.923.077 7.836.61 1.26.393 3.15.61 5.63.667 2.787-.057 6.19-.274 10.223-.667 8.263-.933 17.626-1.36 28.01-1.332 9.706-.028 20.399.392 32.002 1.22 6.001-1.319 10.189-2.602 12.535-3.893zm-125.237-4.738c1.028-2.992 7.267-4.113 10.323-.673 6.479 10.209-4.281 21.686-5.774 23.907-1.443 1.801-3.662 1.801-3.408 2.992.965 5.816 1.225 11.17.725 16.102-.472 4.008-.472 9.368 0 16.08.5 2.677.74 4.92.74 6.685.95 7.168-.993 11.884-5.81 14.112-2.112.883-16.836 4.709-24.913 0-2-2.228-2-4.246 0-6.054 1.035-1.079 8.746-2.683 10.936-8.71 1.816-7.21 2.19-28.153 2.19-29.512.485-3.097-.212-8.513-.592-8.92-.817.407-4.683 1.254-6.704 1.843-7.844 4.12-11.527 5.241-20.78 9.256-1.084.568-8.175 2.48-5.943-12.059 2.45-7.133 4.296-11.617 7.218-11.162 4.816.379 11.098.603 15.83-1.26 3.837-1.753 11.604-1.914 19.4-5.922 3.893-2.235 6.104-4.45 6.562-6.705zM463.85 517.14c1.375.014 1.965-.505 2.407.332 0 .388-.702 1.66-1.881 2.712-1.797 1.515-1.958 3.002-3.867 5.403-1.888 1.93-4.71 3.286-8.429 4.047-.477.38-1.396.768-2.793 1.134-.954.38-1.86.56-2.793.56-1.2.222-2.358.291-3.46.284-.526.007-.997.007-1.488 0-.653.042-1.25.042-1.839.007-4.386.16-9.98-2.137-13.285-5.5-.926-1.217-2.92-4.06-6.029-8.55-3.55-5.72-5.79-9.159-6.66-10.397-.863-2.816.098-4.414 2.892-4.753.182.076 9.18-.124 10.008.305.147.131.645.463 1.522 1.051.878.43 3.152 1.474 6.83 3.134 1.824.85 2.975 1.3 3.445 1.3 5.039 1.273 10.289 3.598 15.777 6.918 2.491 1.162 4.814 1.82 6.913 2.013.147 0 .245.014.386.014.372 0 .736.014 1.108-.014.127 0 .204.014.302.014.309-.014.632 0 .934-.014zm-108.424 93.812c2.043 0 7.849-2.614 7.849-9.192 0-5.574-4.96-8.675-7.947-8.838-1.441-.063-4.953 0-4.953 0v15.24c0 2.592 1.847 2.79 5.05 2.79zm-5.08-37.14s-.034 15.889.029 15.868c5.366 0 7.129-.756 8.647-2.268 1.532-1.519 2.539-3.568 2.539-6.189 0-4.147-4.505-7.22-6.625-7.22-1.196 0-4.59-.19-4.59-.19zm11.369 17.189c1.56.162 13.495 1.547 13.495 11.134 0 9.6-8.983 11.572-19.637 11.572H333.62v-2.374c5.338 0 6.142-4.578 6.142-5.828v-26.239c0-.565-.363-5.927-6.142-5.927v-2.346h22.918c9.06 0 16.377 1.625 16.377 9.503 0 7.877-9.64 9.572-11.2 9.925v.58zm32.397 5.62h11.797l-5.937-14.079-5.86 14.078zm27.32 10.747c.273.6 1.947 3.998 6.608 3.998v2.34h-22.96v-2.34s3.327-.097 4.234-.097c1.458 0 2.219-1.282 1.388-2.954l-3.6-8.72h-14.211l-3.02 7.348c-.887 2.034.69 4.347 2.971 4.347.844 0 1.863.076 3.042.076v2.34h-17.302v-2.34c4.695 0 7.242-4.283 7.653-5.224 2.26-5.544 11.742-28.427 14.554-35.149h5.504s15.14 36.39 15.14 36.375zm105.556-.924c2.388 2.869 7.235 4.924 8.96 4.89v2.373h-16.725l-16.074-19.718h-.805l.056 11.021c0 .77.665 6.28 6.31 6.28v2.34h-23.344v-2.34c5.652 0 6.337-5.51 6.337-6.28v-25.376c0-.742-.685-6.295-6.337-6.295v-2.346h23.344v2.346c-5.645 0-6.31 5.553-6.31 6.295l-.056 11.91h.805s12.443-12.27 13.34-13.168c1.604-1.625 1.003-5.037-2.275-5.037v-2.346h18.582v2.346c-4.444.035-7.61 1.858-10.648 4.387-2.02 1.674-4.295 4.147-4.84 4.712-1.384 1.413-5.355 5.405-5.355 5.405s12.35 15.337 15.035 18.601zm51.153 5.94c7.394 0 11.173-6.743 11.173-19.967 0-5.974-1.086-19.98-11.173-19.98-10.094 0-11.172 14.006-11.172 19.98 0 13.224 3.799 19.967 11.172 19.967zm0-42.515c13.315 0 23 9.508 23 22.548 0 6.432-2.29 12.131-6.527 16.236-4.173 4.048-10.051 6.178-16.473 6.178-6.492 0-12.399-2.13-16.544-6.178-4.166-4.105-6.541-9.804-6.541-16.236 0-13.04 9.706-22.548 23.085-22.548zm-116.227 1.124h17.831v2.333c-5.37 0-7.172 4.84-7.172 6.59v33.79h-5.28l-26.173-32.8v20.219c0 1.215.083 2.388.083 3.421 0 1.735 1.712 6.555 7.09 6.555v2.346h-17.838v-2.346c5.384 0 7.068-4.82 7.068-6.555 0-1.033.083-2.206.083-3.421v-20.781c0-2.01-1.739-6.934-7.318-6.934v-2.388h15.82l22.986 28.712v-19.819c0-1.749-1.802-6.59-7.18-6.59v-2.332zm146 2.349v-2.349h38.19v11.416h-2.33c0-4.385-4.346-8.693-8.581-8.693H624.81v16.77h4.235c5.332 0 7.738-4.986 7.738-7.42h2.265v17.98h-2.265c0-3.253-2.863-7.759-7.738-7.759h-4.235v11.515c0 .743.514 6.543 6.296 6.543v2.362h-23.22v-2.362c5.768 0 6.289-5.8 6.289-6.543l-.022-24.89c0-1.202-.752-6.57-6.239-6.57zm86.921 21.181h22.083v2.325c-2.23 0-5.458 2.928-5.458 6.178 0 1.155 0 5.87.014 6.99-4.789 4.79-10.991 5.939-18.622 5.939-12.778 0-23.144-10.33-23.144-23.036 0-12.76 10.366-23.05 23.144-23.05 2.307 0 4.487.309 6.597.953a57.18 57.18 0 0 1 5.57 2.542v-.02l1.87-1.619h2.581l.078 5.267.196 10.184H707.1c.078-14.365-15.71-17.559-22.602-8.09-2.335 3.201-2.884 7.313-2.884 13.21 0 6.226 1.07 11.101 3.08 14.631 2.504 4.384 10.127 8.068 16.576 2.647v-6.345s-.295-6.38-6.435-6.38c-.077-.008 0-2.326 0-2.326zm56.757-23.53h18.156v2.343c-5.454 0-7.298 4.86-7.298 6.617v17.192c0 9.559-8.202 17.686-18.643 17.686-7.481 0-17.767-6.046-17.767-18.145V579.27c0-1.56-1.3-5.969-5.75-5.969v-2.278h22.373v2.278c-4.529 0-5.878 4.275-5.878 5.884v20.522c0 6.159 5.44 10.476 10.908 10.631 5.552.19 11.154-4.24 11.154-11.097v-19.287c0-1.757-1.808-6.617-7.255-6.617v-2.343zm22.652 0h23.605v2.341c-5.705 0-6.392 5.562-6.392 6.321v25.397c0 .752.687 6.285 6.392 6.285v2.37h-23.605v-2.37c5.683 0 6.391-5.533 6.391-6.285v-25.397c0-.759-.708-6.32-6.391-6.32v-2.342zm155.746 41.39c7.363 0 11.167-6.742 11.167-19.966 0-5.974-1.078-19.98-11.167-19.98-10.103 0-11.16 14.006-11.16 19.98 0 13.224 3.776 19.967 11.16 19.967zm0-42.514c13.295 0 22.976 9.508 22.976 22.548 0 6.432-2.29 12.131-6.503 16.236-4.15 4.048-10.068 6.178-16.473 6.178-6.482 0-12.414-2.13-16.543-6.178-4.157-4.105-6.567-9.804-6.567-16.236 0-13.04 9.73-22.548 23.11-22.548zm-87.18 1.124v1.812l-27.442 38.146h13.395c4.827 0 9.332-5.088 9.332-10.26h2.449l-1.348 13.016h-36.851v-1.811l27.456-38.19s-12.539.036-13.402.036c-4.848 0-9.353 5.088-9.353 10.26h-2.428l1.333-13.009h36.86zm45.738 0h11.588v2.341c-5.533 0-6.222 5.562-6.222 6.321v25.397c0 .752.689 6.285 6.222 6.285v2.37h-22.968v-2.37c5.561 0 6.215-5.533 6.215-6.285v-12.031h-18.186v12.031c0 .752.668 6.285 6.236 6.285v2.37H848.43v-2.37c5.554 0 6.216-5.533 6.216-6.285v-25.397c0-.759-.662-6.32-6.216-6.32v-2.342h23.003v2.341c-5.568 0-6.236 5.562-6.236 6.321v10.3h18.186v-10.3c0-.759-.654-6.32-6.215-6.32v-2.342h11.38zm101.357 0h18.139v2.343c-5.46 0-7.233 4.86-7.233 6.617v17.192c0 9.559-8.243 17.686-18.697 17.686-7.48 0-17.764-6.046-17.764-18.145V579.27c0-1.56-1.307-5.969-5.764-5.969v-2.278h22.391v2.278c-4.528 0-5.863 4.275-5.863 5.884v20.522c0 6.159 5.418 10.476 10.906 10.631 5.538.19 11.153-4.24 11.153-11.097v-19.287c0-1.757-1.808-6.617-7.268-6.617v-2.343zm-792.993-80.236 89.423-.015c.785 15.798 0 33.756-2.303 46.785-12.197 68.517-71.438 118.227-140.887 118.227C64.215 655.754 0 591.311 0 512.151c0-38.766 14.792-75.012 41.645-102.107C68.56 382.942 104.595 368 143.175 368h91.838c-.045 1.613-.21 3.323-.389 4.853v.068a72.612 72.612 0 0 1-.882 5.288c-3.246 13.712-15.435 36.914-47.74 36.936h-42.857c-53.281 0-96.676 43.515-96.676 97.006 0 53.461 43.395 96.968 96.676 96.968 49.654 0 90.978-37.303 96.13-86.797l.554-4.275h-58.905c0-6.804.038-14.388.038-14.973.246-6.308 2.31-12.19 15.95-12.317zm-54.186-63.183H286.63l-.741 4.534c-4.529 27.485-21.834 41.27-52.906 42.173h-115.64c-6.878 0-12.492 5.657-12.492 12.586v51.136c0 6.915 5.614 12.541 12.493 12.541h50.81c6.901 0 12.5-5.626 12.5-12.54v-7.247h44.597l-1.37 4.972c-10.3 36.26-43.654 61.575-81.117 61.575-46.469 0-84.314-38.083-84.314-84.857 0-46.798 37.845-84.873 84.276-84.873z" fill="#DE0112"/>
</svg>
