<svg viewBox="0 0 1024 1024" version="1.1" xmlns="http://www.w3.org/2000/svg" height="1em" width="1em">
  <path d="M411.179 480.543c0.02 8.617-2.059 11.995-4.363 16.917-4.039 8.651-7.181 16.644-11.248 21.52-13.158 15.746-26.49 13.058-31.887 13.634 0 0-13.738 1.796-15.628-6.849-0.434-4.083-1.42-7.522-0.672-7.83 1.407-0.583 7.055 0.877 9.435 0.47 1.784-0.512 4.31-1.284 7.495-2.288 2.73-0.547 4.984-1.087 6.803-1.607 5.431-1.543 11.653-5.943 18.575-13.296 3.059-4.75 6.362-9.073 6.292-13.037-0.066-3.086-0.406-5.585-0.655-7.268l-4.045 0.093c-3.112 0.625-7.812 1.375-10.043 2.257-3.28 1.09-4.959 6.23-5.064 10.896-1.028 3.868-4.105 6.716-9.204 8.577-1.91 0.646-11.75 1.944-10.805-1.278 1.014-3.514 2.643-14.827 1.154-22.702-0.875-2.715 1.37-4.396 10.595-5.02 32.753-2.75 72.444-1.265 74.297-1.23 15.303-0.222 16.967 1.125 13.59 7.834-1.253 3.972 0.265 11.055-0.714 14.132-1.021 3.472-2.707 5.986-5.043 7.458-2.105 1.299-4.889 1.271-6.238 1.077a4.026 4.026 0 0 1-1.364-0.07c-0.49 0.097-0.951 0.125-1.371 0.056-1.609 0.208-2.812-0.292-3.609-1.674 0.063-2.354 2.084-7.847 2.546-13.632-0.462-3.632-3.609-6.09-6.791-6.521l-3.476-0.07c-4.21-0.354-8.834-0.597-10.757-0.729l-7.805 0.18z m146.011-56.65c0.526 7.913-0.89 11.67-1.758 16.889-1.352 8.18-0.687 24.163-2.6 43.831 0 0.929-1.863 11.065-2.529 13.527-8.148 29.088-19.546 31.697-36.606 32.373-12.386 0.161-13.423-2.272-13.92-4.53-0.057-2.709 2.22-3.778 6.123-5.494 6.67-2.955 12.07-5.438 18.467-12.458 6.88-5.98 11.3-11.635 13.452-19.774 0.322-1.245-0.21-2.807-1.366-3.229-1.283-0.147-3.812 2.125-5.703 4.045-4.996 4.558-11.371 8.709-19.127 12.444-3.74 1.92-12.919 6.042-15.735 0.957-2.46-7.492-2.886-8.948 5.927-15.624 6.284-4.432 8.38-7.182 11.44-17.023 3.02-13.668-6.333-30.002-4.868-38.197 1.268-4.952 2.816-8.153 4.63-9.496 1.99-1.879 10.25-3.56 12.36 3.13 1.66 7.386 4.336 34.159 2.206 43.627-2.354 8.85-1.107 8.21-0.511 8.308 3.944-0.732 7.489-0.992 9.64-11.185 2.606-8.103 2.669-16.418 0.21-24.909-1.464-4.01-2.025-8.497-1.646-13.456 2.255-11.656 12.148-10.615 12.169-10.643 5.752 0.246 8.73 1.976 9.745 6.886z m93.054-4.822c1.1 11.223-0.677 30.056-0.952 37.777-0.67 19.434-2.327 41.11 0.345 71.62-0.437 1.307-4.568 3.928-10.857-0.097-3.412-2.663-4.702-6.143-5.703-14.773-0.014-1.3-2.883-15.996-3.983-29.454-0.212-1.14-0.268-2.705-1.615-2.383-0.641 0.202-1.515 0.58-2.728 1.146-7.43 2.655-12.471 4.626-15.263 5.926-1.22 0.559-9.25 2.955-8.263-5.088 8.023-31.523 3.166-52.71 7.84-58.685 1.438-1.23 11.132-3.159 14.488 3.138 2.946 5.457 2.636 12.173-0.515 19.957-7.452 15.556-2.32 17.282-1.622 17.59 4.11 0.432 11.421-3.704 9.37-24.738-0.578-6.031-0.36-12.67 0.536-19.993 1.325-4.298 4.335-7.12 8.967-8.462 0.578 0.07 8.467-1.328 9.955 6.52z m-49.05 16.857c-2.176 6.304-2.05 55.075-8.007 85.382-0.495 2.003-1.479 4.21-3.362 4.686-0.335 0-3.69 0.574-6.243-3.467-3.348-5.737-5.776-17.623-1.242-36.597 0.377-2.018-0.314-2.67-1.353-2.998-0.6 0-1.862 1.317-3.655 2.41-5.008 3.214-8.168 5.519-9.528 6.856-2.197 2.249-9.375 3.615-10.17-0.497-0.593-3.082-0.363-6.45 0.502-10.058 1.737-4.49 3.23-11.9 4.387-22.225 0.768-9.385 0.391-15.654-1.032-18.778-1.45-3.993-0.572-9.232 3.16-15.487 2.588-4.384 9.263-3.032 10.107-2.857 1.395 0.868 2.35 2.647 2.853 5.316 0.565 6.71 0.098 17.658-1.458 32.92-0.844 4.735-0.879 8.461 0.74 9.12 3.773-0.169 5.552-1.597 5.573-11.922 0-4.461 1.032-18.568 1.032-19.472 0.286-8.076-0.781-12.208 5.106-19.563 3.865-3.488 10.303-4.426 12.96 1.114 1.047 6.71 0.921 12.083-0.37 16.117z m-203-2.856c3.134-4.151 3.596-6.331 1.329-7.348-0.833 0.118-1.68 0.195-2.68 0.292-2.784-0.007-11.425 0.154-12.349 0.53-4.17 0.717-11.397 0.404-14.161 2.375-1.91 1.595-1.595 4.687-1.176 6.707 0.21 0.467 0.546 0.752 0.868 1.024 2.778-1.351 9.27-2.006 14.413-1.887 3.19 0.027 12.314-0.53 13.756-1.693z m21.487-7.696c-1.428 0.759-2.267 2.333-2.344 5.572 0.307 1.957 2.365 3.016 6.052 3.183h0.154c0.23 0 0.454 0.035 0.671 0.035 0.273 0 0.532 0 0.805-0.035 0.196 0 0.399 0.035 0.567 0.035 0.224 0 0.42 0 0.671-0.035 4.29 0.104 15.799 0.3 18.913 0.57 3.386-2.228 5.198-3.941 5.268-5.843-1.357-1.268-2.939-1.88-4.8-1.93-3.582-0.877-17.484-1.385-25.957-1.552z m70.94 24.621c1.007 0.69-0.337 2.508-0.813 3.727-4.352 7.612-1.112 13.853-9.326 17.559a16.635 16.635 0 0 1-3.359 0.243c-5.415 0.286-9.585-2.194-11.936-2.584-18.051-3.176-36.635-3.58-47.99-3.977-1.89 0-4.562 0.147-8.165 0.418-11.972 0.174-19.801 0.62-23.537 1.345-18.03 2.87-32.017 1.037-40.294 4.798-4.01 1.811-7.123 2.94-9.593 2.752a5.147 5.147 0 0 1-1.392-0.014 6.316 6.316 0 0 1-1.357 0c-1.68 0.146-3.1-0.216-4.268-1.254-1.323-2.884-0.315-8.755 1.938-13.819 2.323-5.189 57.708-4.84 63.124-8.441 3.134-1.387 4.653-4.87 2.239-5.162-0.973-0.041-1.896-0.07-2.827-0.09-7.144 0.132-23.27 1.17-29.673 3.204-11.034 1.483-11.915-0.641-10.733-3.155 2.869-5.21 3.009-10.95 0.357-15.853-1.315-2.069-2.904-4.653-4.68-5.872 0.545-3.65 3.337-6.895 9.326-6.784h0.014c0.399 0 10.985-0.209 16.547-0.912 5.534-1.1 18.66-1.1 19.598-1.073 3.701-0.738 7.262-1.281 9.795-4.34 2.715-3.294 7.99-4.206 13.58 0.795 1.288 2.863 3.317 3.35 6.088 3.44 34.787 1.039 43.687 3.539 45.066 4.36 2.651 4.117 1.623 11.04-3.058 14.607-3.813 2.243-6.654 4.332-7.116 7.139-0.545 3.622-3.358 6.29-8.417 6.603-0.356 0-18.625-2.243-31.996-1.706-1.854 0.376-2.574 1.156-2.14 2.382 0.405 1.622 1.749 1.386 4.058 2.235 5.03 0.488 5.205 1.191 8.941 1.38 20.71 0.96 53.805-0.55 56.128-0.725 2.274-0.174 3.001-1.302 4.639-1.226 0.035 0.028 0.853-0.188 1.231 0z m245.934 42.693c0 0.455-5.554 10.472-10.959 14.07-10.712 6.7-12.532 9.275-16.434 13.727-3.416 4.011-9.357 11.011-16.04 9.92-1.997-0.302-4.156-3.858-4.798-4.936-0.974-1.778-1.934-3.108 2.01-4.536 4.475-1.575 4.03-20.069 6.013-31.248 0-1.106-0.19-1.862-0.508-2.359-0.473 0.063-0.988 0.196-1.616 0.336-4.248 0.973-7.77 1.38-10.535 1.24-6.295 0.28-9.654-1.709-10.013-5.923 0.465-5.383 2.935-8.49 7.289-9.38 5.49-1.414 14.875-4.452 16.103-4.69 3.726-1.365 1.496-5.796 0.875-6.013h-0.064c-3.443 1.057-16.018 2.226-16.166-4.039v-9.373c-6.661 6.601-13.414-2.68-15.376-8.057 3.443-2.646 6.619-5.775 9.52-9.352l0.754-0.686c2.9-2.674 5.363-4.668 7.304-6.005 5.334-5.37 9.258-9.807 11.678-13.398 4.424-5.747 11.311-2.037 11.093 4.025-0.515 3.1 0.218 5.11 2.159 6.013 4.121-0.077 7.042-0.26 8.694-0.651 2.843-0.525 5.574-0.7 8.263-0.616 2.71-0.084 5.348 0.09 7.917 0.616h2.188c6.717 0 4.6 5.04 2.92 10.016-0.966 2.702-5.108 4.263-12.418 4.725-3.93 0-9.992 0.427-18.284 1.337-2.914 0.448-5.109 0.658-6.57 0.658-1.975 0.882-5.616 3.801-10.972 8.694 0.332 0.462 0.833 0.742 1.545 0.896 0.981-0.154 2.124-0.434 3.465-0.896 7.346-2.24 14.734-3.29 22.228-3.318 6.69-0.252 13.45 0.427 20.28 1.981 1.969 1.337 1.214 4.48-2.194 9.36-3.91 3.59-11.467 5.62-22.659 6.04-1.298 1.33-1.926 4.942 0.141 6.531 6.266-1.169 17.874-2.142 22.518-1.169 2.025 0.427 2.152 2.023 1.467 4.697-4.89 6.265-13.216 10.738-23.378 12.054-1.778 4.977-2.505 18.256 1.616 16.212 9.23-7.259 13.62-8.099 15.757-9.863 2.766-2.443 7.268 0 5.187 3.36z m54.394-23.835c1.43 0 2.824 0 4.303 0.056 1.941-3.116 2.417-5.988 1.443-8.644-3.93-0.461-7.883-0.664-11.842-0.67-7.533 0.097-15.2 0.999-22.914 2.662-2.712 4.57-2.65 7.728 0.063 9.58 7.953-2.103 17.595-3.067 28.947-2.984z m-8.17 35.367c1.373-0.343 3.097-0.538 5.213-0.538 2.894-0.44 4.821-0.671 5.781-0.671a281.926 281.926 0 0 0-4.33-9.343c-0.498-0.42-0.918-0.776-1.339-0.957-0.259 0.181-0.525 0.538-0.756 0.957-0.967 1.803-2.915 4.675-5.824 8.686-0.35 0.971 0.078 1.6 1.255 1.866z m17.553-68.72c-3.216-0.72-7.414-1.14-12.522-1.167-6.853 0.048-15.234 0.663-25.156 1.851-3.392 1.342-4.1 3.536-2.18 6.667 0.645 1.51 1.612 2.355 2.88 2.67 7.239-1.81 14.68-2.67 22.354-2.614 3.812-0.098 7.659 0.077 11.527 0.447 3.89-1 4.912-3.606 3.097-7.854z m-25.402 50.146c0.792-1.503 0.225-2.37-1.688-2.6-1.234 0.14-2.586 0.566-4.072 1.244-2.887 0.454-4.842 0.678-5.795 0.678-2.9 1.342-4.61 3.766-5.066 7.358-0.217 3.145-0.4 6.227-1.465 10.685-0.427 3.424 0.73 2.837 1.591 3.04 0.967-0.14 2.081-0.482 3.399-1.028 3.889-1.341 8.233-7.77 13.096-19.377z m55.73 28.79c2.48 1.629 7.442 0.524 8.5 0.769 0.911 0.601 2.208 3.452 0.736 5.024-4.316 3.6-3.938 7.296-6.804 9.525-3.062 2.02-12.277 3.76-16.054 2.683-6.79-1.788-8.5-2.068-12.361-7.358-2.425-3.997-4.611-8.91-6.531-14.71a4.705 4.705 0 0 0-0.855-1.076c-0.133 0.112-0.322 0.273-0.511 0.44-2.895 4.906-8.234 7.324-15.97 7.324-13.56 0-22.936 3.585-30.202 7.589-3.868 1.803-5.039 2.676-9.846 2.676-3.882 0-3.377 0.07-4.015-0.042-3.21 0.357-5.606-2.103-5.164-4.29 0.98-6.24-0.309-10.958 4.036-11.398 8.29-4.15 10.735-11.069 10.37-25.282-0.14-5.794 0.737-38.498-0.385-66.61 2.656-2.775 10.014-1.272 17.267-0.063 4.89-1.608 31.036-2.921 46.669-0.552 3.308-1.698 10.518-3.648 13.636-0.133 1.682 1.957 1.822 4.095 0.708 6.024l-0.988 1.83a25.856 25.856 0 0 0-2.18 5.346c-0.469 2.23 0.779 4.165-0.742 9.336-1.191 4.13-5.36 15.178-8.731 34.8-0.477 2.691-6.244 4.655-8.647 6.003-1.934 0.462-1.717 2.453 0.714 6.017 6.272 8.945 18.731 21.523 27.35 26.128z m101.265-73.856c-10.27 0.24-14.824-2.43-13.614-7.935 1.662-6.475 6.687-11.462 14.705-11.125 2.02-0.112 4.258 0.057 6.743 0.471 4.371 0.899 10.77 1.496 14.768 1.538a113.03 113.03 0 0 0 4.09-0.19c6.524-0.47 12.543-0.709 18.096-0.674 5.667-0.035 10.868 0.204 15.528 0.674 2.147 0.415 7.68 0.83 8.06 0.675 2.407 0.884 3.878 2.928 4.37 6.046-0.492 3.568-5.088 7.74-13.33 8.617-1.979 0-4.886 0.253-8.785 0.681-1.204 0.274-2.886 0.373-4.857 0.295-1.697 0.078-3.703-0.02-6.173-0.295h-4.273c-12.62 0-21.152 0.24-25.523 0.689-3.766 0.414-7.025 0.604-9.805 0.533z m-74.018 2.66c-5.361 0-7.482-2.264-10.59-7.667-2.268-3.482-2.88-7.207-1.6-9.943 0.793-2.02 2.767-2.96 9.276-1.156 9.047 0.85 16.14 1.692 27.058-3.384 6.453-3.53 12.26-1.073 15.257-0.265 1.94 0.397 4.742 0.836 5.048 1.476 0.508 6.782-5.966 8.433-12.475 13.084-1.106 0.856-2.97 1.887-5.626 3.07-4.283 2.5-7.016 2.305-8.087 3.155-8.95 3.35-13.727 2.367-18.261 1.63z m160.706 8.26c4.642-2.105 5.167 0.673 5.167 0.673 0 3.549-1.232 7.806-3.627 12.71-2.423 6.29-4.853 9.412-7.275 9.412a61.82 61.82 0 0 1-5.063 1.354c-1.779 0.701-11.4 0.498-14.594-0.68-1.848-0.618-7.254-1.467-8.655-1.628-2.402 0.295-3.914 1.494-4.481 3.802-0.946 7.596-1.863 25.496-1.359 34.895 0.967 11.194 2.5 17.717-3.473 21.316-1.422 0.785-5.553 0.477-6.043 0.477-2.41 0-5.833-1.326-6.499-6.004 0-0.463 1.009-35.85 0.05-51.54 0-3.107-2.423-4.889-7.262-5.352-0.707-0.049-1.499-0.049-2.311-0.049-8.067 0.12-18.122 1.466-30.244 4.082-4.02 0.779-7.072 1.109-9.215 0.947-2.738 0.162-4.545-0.168-5.4-0.947-1.932-1.332-1.932-4.902 0-10.745 2.396-5.352 4.84-8.27 7.241-8.719 2.017-0.533 4.293-0.687 6.807-0.61 2.388-0.077 4.923 0.077 7.836 0.61 1.26 0.393 3.15 0.61 5.63 0.667 2.787-0.057 6.19-0.274 10.223-0.667 8.263-0.933 17.626-1.36 28.01-1.332 9.706-0.028 20.399 0.392 32.002 1.22 6.001-1.319 10.189-2.602 12.535-3.893z m-125.237-4.738c1.028-2.992 7.267-4.113 10.323-0.673 6.479 10.209-4.281 21.686-5.774 23.907-1.443 1.801-3.662 1.801-3.408 2.992 0.965 5.816 1.225 11.17 0.725 16.102-0.472 4.008-0.472 9.368 0 16.08 0.5 2.677 0.74 4.92 0.74 6.685 0.95 7.168-0.993 11.884-5.81 14.112-2.112 0.883-16.836 4.709-24.913 0-2-2.228-2-4.246 0-6.054 1.035-1.079 8.746-2.683 10.936-8.71 1.816-7.21 2.19-28.153 2.19-29.512 0.485-3.097-0.212-8.513-0.592-8.92-0.817 0.407-4.683 1.254-6.704 1.843-7.844 4.12-11.527 5.241-20.78 9.256-1.084 0.568-8.175 2.48-5.943-12.059 2.45-7.133 4.296-11.617 7.218-11.162 4.816 0.379 11.098 0.603 15.83-1.26 3.837-1.753 11.604-1.914 19.4-5.922 3.893-2.235 6.104-4.45 6.562-6.705zM463.85 517.14c1.375 0.014 1.965-0.505 2.407 0.332 0 0.388-0.702 1.66-1.881 2.712-1.797 1.515-1.958 3.002-3.867 5.403-1.888 1.93-4.71 3.286-8.429 4.047-0.477 0.38-1.396 0.768-2.793 1.134-0.954 0.38-1.86 0.56-2.793 0.56-1.2 0.222-2.358 0.291-3.46 0.284-0.526 0.007-0.997 0.007-1.488 0-0.653 0.042-1.25 0.042-1.839 0.007-4.386 0.16-9.98-2.137-13.285-5.5-0.926-1.217-2.92-4.06-6.029-8.55-3.55-5.72-5.79-9.159-6.66-10.397-0.863-2.816 0.098-4.414 2.892-4.753 0.182 0.076 9.18-0.124 10.008 0.305 0.147 0.131 0.645 0.463 1.522 1.051 0.878 0.43 3.152 1.474 6.83 3.134 1.824 0.85 2.975 1.3 3.445 1.3 5.039 1.273 10.289 3.598 15.777 6.918 2.491 1.162 4.814 1.82 6.913 2.013 0.147 0 0.245 0.014 0.386 0.014 0.372 0 0.736 0.014 1.108-0.014 0.127 0 0.204 0.014 0.302 0.014 0.309-0.014 0.632 0 0.934-0.014z m-108.424 93.812c2.043 0 7.849-2.614 7.849-9.192 0-5.574-4.96-8.675-7.947-8.838-1.441-0.063-4.953 0-4.953 0v15.24c0 2.592 1.847 2.79 5.05 2.79z m-5.08-37.14s-0.034 15.889 0.029 15.868c5.366 0 7.129-0.756 8.647-2.268 1.532-1.519 2.539-3.568 2.539-6.189 0-4.147-4.505-7.22-6.625-7.22-1.196 0-4.59-0.19-4.59-0.19z m11.369 17.189c1.56 0.162 13.495 1.547 13.495 11.134 0 9.6-8.983 11.572-19.637 11.572H333.62v-2.374c5.338 0 6.142-4.578 6.142-5.828v-26.239c0-0.565-0.363-5.927-6.142-5.927v-2.346h22.918c9.06 0 16.377 1.625 16.377 9.503 0 7.877-9.64 9.572-11.2 9.925v0.58z m32.397 5.62h11.797l-5.937-14.079-5.86 14.078z m27.32 10.747c0.273 0.6 1.947 3.998 6.608 3.998v2.34h-22.96v-2.34s3.327-0.097 4.234-0.097c1.458 0 2.219-1.282 1.388-2.954l-3.6-8.72h-14.211l-3.02 7.348c-0.887 2.034 0.69 4.347 2.971 4.347 0.844 0 1.863 0.076 3.042 0.076v2.34h-17.302v-2.34c4.695 0 7.242-4.283 7.653-5.224 2.26-5.544 11.742-28.427 14.554-35.149h5.504s15.14 36.39 15.14 36.375z m105.556-0.924c2.388 2.869 7.235 4.924 8.96 4.89v2.373h-16.725l-16.074-19.718h-0.805l0.056 11.021c0 0.77 0.665 6.28 6.31 6.28v2.34h-23.344v-2.34c5.652 0 6.337-5.51 6.337-6.28v-25.376c0-0.742-0.685-6.295-6.337-6.295v-2.346h23.344v2.346c-5.645 0-6.31 5.553-6.31 6.295l-0.056 11.91h0.805s12.443-12.27 13.34-13.168c1.604-1.625 1.003-5.037-2.275-5.037v-2.346h18.582v2.346c-4.444 0.035-7.61 1.858-10.648 4.387-2.02 1.674-4.295 4.147-4.84 4.712-1.384 1.413-5.355 5.405-5.355 5.405s12.35 15.337 15.035 18.601z m51.153 5.94c7.394 0 11.173-6.743 11.173-19.967 0-5.974-1.086-19.98-11.173-19.98-10.094 0-11.172 14.006-11.172 19.98 0 13.224 3.799 19.967 11.172 19.967z m0-42.515c13.315 0 23 9.508 23 22.548 0 6.432-2.29 12.131-6.527 16.236-4.173 4.048-10.051 6.178-16.473 6.178-6.492 0-12.399-2.13-16.544-6.178-4.166-4.105-6.541-9.804-6.541-16.236 0-13.04 9.706-22.548 23.085-22.548z m-116.227 1.124h17.831v2.333c-5.37 0-7.172 4.84-7.172 6.59v33.79h-5.28l-26.173-32.8v20.219c0 1.215 0.083 2.388 0.083 3.421 0 1.735 1.712 6.555 7.09 6.555v2.346h-17.838v-2.346c5.384 0 7.068-4.82 7.068-6.555 0-1.033 0.083-2.206 0.083-3.421V580.344c0-2.01-1.739-6.934-7.318-6.934v-2.388h15.82l22.986 28.712v-19.819c0-1.749-1.802-6.59-7.18-6.59v-2.332z m146 2.349v-2.349h38.19v11.416h-2.33c0-4.385-4.346-8.693-8.581-8.693H624.81v16.77h4.235c5.332 0 7.738-4.986 7.738-7.42h2.265v17.98h-2.265c0-3.253-2.863-7.759-7.738-7.759h-4.235v11.515c0 0.743 0.514 6.543 6.296 6.543v2.362h-23.22v-2.362c5.768 0 6.289-5.8 6.289-6.543l-0.022-24.89c0-1.202-0.752-6.57-6.239-6.57z m86.921 21.181h22.083v2.325c-2.23 0-5.458 2.928-5.458 6.178 0 1.155 0 5.87 0.014 6.99-4.789 4.79-10.991 5.939-18.622 5.939-12.778 0-23.144-10.33-23.144-23.036 0-12.76 10.366-23.05 23.144-23.05 2.307 0 4.487 0.309 6.597 0.953a57.18 57.18 0 0 1 5.57 2.542v-0.02l1.87-1.619h2.581l0.078 5.267 0.196 10.184H707.1c0.078-14.365-15.71-17.559-22.602-8.09-2.335 3.201-2.884 7.313-2.884 13.21 0 6.226 1.07 11.101 3.08 14.631 2.504 4.384 10.127 8.068 16.576 2.647v-6.345s-0.295-6.38-6.435-6.38c-0.077-0.008 0-2.326 0-2.326z m56.757-23.53h18.156v2.343c-5.454 0-7.298 4.86-7.298 6.617v17.192c0 9.559-8.202 17.686-18.643 17.686-7.481 0-17.767-6.046-17.767-18.145V579.27c0-1.56-1.3-5.969-5.75-5.969v-2.278h22.373v2.278c-4.529 0-5.878 4.275-5.878 5.884v20.522c0 6.159 5.44 10.476 10.908 10.631 5.552 0.19 11.154-4.24 11.154-11.097v-19.287c0-1.757-1.808-6.617-7.255-6.617v-2.343z m22.652 0h23.605v2.341c-5.705 0-6.392 5.562-6.392 6.321v25.397c0 0.752 0.687 6.285 6.392 6.285v2.37h-23.605v-2.37c5.683 0 6.391-5.533 6.391-6.285v-25.397c0-0.759-0.708-6.32-6.391-6.32v-2.342z m155.746 41.39c7.363 0 11.167-6.742 11.167-19.966 0-5.974-1.078-19.98-11.167-19.98-10.103 0-11.16 14.006-11.16 19.98 0 13.224 3.776 19.967 11.16 19.967z m0-42.514c13.295 0 22.976 9.508 22.976 22.548 0 6.432-2.29 12.131-6.503 16.236-4.15 4.048-10.068 6.178-16.473 6.178-6.482 0-12.414-2.13-16.543-6.178-4.157-4.105-6.567-9.804-6.567-16.236 0-13.04 9.73-22.548 23.11-22.548z m-87.18 1.124v1.812l-27.442 38.146h13.395c4.827 0 9.332-5.088 9.332-10.26h2.449l-1.348 13.016h-36.851v-1.811l27.456-38.19s-12.539 0.036-13.402 0.036c-4.848 0-9.353 5.088-9.353 10.26h-2.428l1.333-13.009h36.86z m45.738 0h11.588v2.341c-5.533 0-6.222 5.562-6.222 6.321v25.397c0 0.752 0.689 6.285 6.222 6.285v2.37h-22.968v-2.37c5.561 0 6.215-5.533 6.215-6.285v-12.031h-18.186v12.031c0 0.752 0.668 6.285 6.236 6.285v2.37H848.43v-2.37c5.554 0 6.216-5.533 6.216-6.285v-25.397c0-0.759-0.662-6.32-6.216-6.32v-2.342h23.003v2.341c-5.568 0-6.236 5.562-6.236 6.321v10.3h18.186v-10.3c0-0.759-0.654-6.32-6.215-6.32v-2.342h11.38z m101.357 0h18.139v2.343c-5.46 0-7.233 4.86-7.233 6.617v17.192c0 9.559-8.243 17.686-18.697 17.686-7.48 0-17.764-6.046-17.764-18.145V579.27c0-1.56-1.307-5.969-5.764-5.969v-2.278h22.391v2.278c-4.528 0-5.863 4.275-5.863 5.884v20.522c0 6.159 5.418 10.476 10.906 10.631 5.538 0.19 11.153-4.24 11.153-11.097v-19.287c0-1.757-1.808-6.617-7.268-6.617v-2.343z m-792.993-80.236l89.423-0.015c0.785 15.798 0 33.756-2.303 46.785-12.197 68.517-71.438 118.227-140.887 118.227C64.215 655.754 0 591.311 0 512.151c0-38.766 14.792-75.012 41.645-102.107C68.56 382.942 104.595 368 143.175 368h91.838c-0.045 1.613-0.21 3.323-0.389 4.853v0.068c-0.381 2.948-0.882 5.288-0.882 5.288-3.246 13.712-15.435 36.914-47.74 36.936h-42.857c-53.281 0-96.676 43.515-96.676 97.006 0 53.461 43.395 96.968 96.676 96.968 49.654 0 90.978-37.303 96.13-86.797l0.554-4.275h-58.905c0-6.804 0.038-14.388 0.038-14.973 0.246-6.308 2.31-12.19 15.95-12.317z m-54.186-63.183H286.63l-0.741 4.534c-4.529 27.485-21.834 41.27-52.906 42.173h-115.64c-6.878 0-12.492 5.657-12.492 12.586v51.136c0 6.915 5.614 12.541 12.493 12.541h50.81c6.901 0 12.5-5.626 12.5-12.54v-7.247h44.597l-1.37 4.972c-10.3 36.26-43.654 61.575-81.117 61.575-46.469 0-84.314-38.083-84.314-84.857 0-46.798 37.845-84.873 84.276-84.873z" fill="#DE0112"/>
</svg>
