<svg viewBox="0 0 1024 1024" version="1.1" xmlns="http://www.w3.org/2000/svg" height="1em" width="1em">
  <path d="M820.073 307C931.62 307 1024 399.38 1024 510.93c0 111.557-92.38 205.67-203.927 205.67-113.294 0-205.673-94.113-205.673-205.67C614.4 399.38 706.78 307 820.073 307zM721.6 599.8h193.6v-62.4H721.6v62.4z m90.696-152.689s-33.134-41.676-34.88-43.408c-3.494-5.204-8.721-5.204-13.955 0-3.486 1.732-41.861 50.351-41.861 50.351V537.4l40.115-52.09c6.98-5.21 12.207-5.21 15.7 0 1.747 1.739 34.881 43.415 34.881 43.415 3.487 5.204 8.72 5.204 12.208 0 0 0 33.14-41.676 34.88-43.415 3.487-5.21 8.721-5.21 15.701 0L915.2 537.4v-83.346l-41.861-50.351c-5.234-5.204-10.468-5.204-13.954 0-1.74 1.732-34.881 43.408-34.881 43.408-1.747 3.478-3.487 3.478-5.234 3.478-3.487 0-5.234 0-6.974-3.478z" fill="#E30016"/>
  <path d="M100.209 492.674c0-19.32-8.79-28.093-29.886-28.093H54.497v54.435h15.826c21.096 0 29.886-8.774 29.886-26.342z m42.191 66.734c0 31.605-26.371 40.392-56.25 40.392-26.371 0-59.779-1.759-86.15 0v-7.029c3.515 0 19.342 0 19.342-7.021V471.602c0-7.021-14.066-7.021-19.342-7.021V455.8c26.371 3.51 61.533 0 89.658 0 22.863 0 43.952 7.022 43.952 31.605 0 22.837-17.581 31.611-42.191 35.129v1.759c28.132 0 50.981 8.773 50.981 35.115z m-36.915-1.759c0-22.824-8.79-29.852-35.162-29.852H54.496v64.974h15.827c28.132 0 35.162-12.291 35.162-35.122z m218.937 41.994h-37.02v-7.014c5.29 0 22.917 0 22.917-7.02V480.355L250.389 601.4H245.1l-58.17-121.044v105.252c0 7.021 17.627 7.021 22.916 7.021v7.014c-15.868 0-37.012-1.757-54.646 0v-7.014c8.814 0 21.151 0 21.151-7.02V471.584c0-5.264-14.096-7.014-21.151-7.014V455.8c19.392 3.507 38.778 3.507 56.412 0l49.35 103.495 49.357-99.988c15.868 0 35.254 0 52.881-3.507v8.771c-5.29 0-21.151 0-21.151 7.014v114.023c0 7.021 15.862 7.021 21.151 7.021v7.014h-38.778z m172.936-70.869c0-28.346-1.76-67.317-42.155-67.317-38.649 0-43.913 38.971-43.913 67.317 0 26.572 5.264 65.543 43.913 65.543 40.395 0 42.155-38.97 42.155-65.543z m38.642 0c0 46.061-28.1 72.626-80.797 72.626-52.703 0-80.803-26.565-80.803-72.626 0-47.828 29.86-76.174 80.803-76.174C507.9 452.6 536 480.946 536 528.774z" fill="#0073BB"/>
</svg>
