<svg viewBox="0 0 1024 1024" xmlns="http://www.w3.org/2000/svg" height="1em" width="1em">
  <path d="m111.968 386 25.614 26.744-125.74 125.578c-27.942-29.069 2.33-53.487 2.33-53.487L111.967 386zm-58.9 192.552 98.834-97.798s24.418-30.27 53.488-2.328L78.648 604.166l-25.58-25.614z" fill="#F29600"/>
  <path d="m171.263 445.08-99.01 97.998s-24.46 30.334-53.58 2.334l125.8-126 26.79 25.667zm-58.24 192.498 97.843-99.166s30.286-24.5 2.33-53.666L86.23 610.745l26.79 26.833z" fill="#E50012"/>
  <path d="M439.21 501.975c5.827 6.986 10.49 13.972 16.317 18.63L439.21 540.4s-6.994-6.987-16.318-19.795c-4.663 5.822-11.656 11.644-19.815 16.302l-16.319-15.138s12.822-6.986 24.478-19.794c-9.325-17.467-18.65-39.59-24.478-67.536h-46.624v19.795h36.134s8.16-1.165 8.16 8.15v31.44s2.33 18.63-17.485 44.247l-18.65-12.808s12.822-13.973 12.822-32.604v-22.123s2.331-5.822-4.662-5.822h-13.987v25.616s0 27.946-19.815 45.412l-18.65-12.808s15.152-16.302 15.152-34.932v-67.536h23.312v4.658h44.292c-1.165-5.822-2.33-11.644-2.33-17.466h23.311s0 6.986 2.331 17.466h12.822c1.165-3.494 3.496-11.644 3.496-11.644H449.7c-2.33 3.493-3.496 22.123-3.496 22.123h-34.968c2.33 12.809 6.993 27.946 13.987 43.083 2.331-6.986 4.662-12.808 4.662-20.959h20.981s2.331 20.96-11.656 44.248zm108.4-94.317v8.15h27.974v10.48H547.61v13.973h27.975v11.644h-41.962c0 3.493-2.33 8.15-4.662 12.809h36.133s10.49-1.165 10.49 8.15v64.043H507.98V498.48c-4.662 5.822-6.993 9.316-6.993 9.316l-15.153-15.138c10.49-8.15 22.146-34.932 24.477-41.918H495.16v-10.48h27.974v-13.973h-26.809v-10.48h27.974v-8.15h23.312zm-19.816 66.37h1.166v18.631h24.477v-15.137s1.166-3.493-4.662-3.493h-20.98zm0 30.275v22.124h24.478v-22.124h-24.478zm104.904-88.495c18.65 0 13.987 13.973 13.987 13.973l-11.656 30.275s3.497 19.795 4.662 24.452c1.166 4.658 2.332 19.795 2.332 19.795 0 19.795-30.306 23.288-37.3 24.453v9.315h-23.31v-97.81h23.311v72.193c6.993-1.164 11.656-4.657 12.821-8.15 2.331-5.823-1.165-18.631-2.33-25.618-1.167-6.986-3.498-13.972-3.498-16.301-1.165-3.494 0-5.822 0-5.822s5.828-16.302 8.16-23.288c2.33-6.987-5.829-6.987-5.829-6.987h-32.636v-10.48h51.286zm85.088 32.604h1.166v25.617h17.484v10.48h-17.484v34.932c3.497 0 10.49-2.33 10.49-2.33l5.828 11.645s-15.153 6.986-27.974 9.315c-12.822 1.164-12.822-10.48-12.822-10.48v-44.247h-16.318v-10.48h16.318v-24.452h-8.159c-2.33 3.493-4.662 5.822-4.662 5.822L666.5 442.59c9.325-8.151 30.306-39.59 30.306-39.59l13.987 10.48c0 1.164-1.166 2.328-1.166 3.493h25.643v10.48h-32.636c-3.497 3.493-5.828 8.15-9.325 11.644h41.961v9.315h-17.484zm47.79 71.029s10.49-1.165 18.65-5.822l4.662 12.808s-26.81 8.15-32.637 9.315c-5.828 1.165-13.987 1.165-13.987-8.15V413.48h75.763s9.325 0 9.325 9.315v50.07h-61.776v46.576zm0-94.317v13.973h38.464v-8.151s0-5.822-6.993-5.822h-31.47zm0 23.288v15.137h38.464v-15.137h-38.464zm65.273 38.425s-5.828 10.48-16.318 17.466c0 0 13.987 10.48 23.312 12.809l-11.656 19.795s-36.134-9.316-51.287-58.22h20.981s4.663 9.315 6.994 11.643c0 0 10.49-5.822 15.152-11.644l12.822 8.151zm75.764-73.357s-20.98 25.617-33.803 32.603l-12.82-12.808S883.3 415.808 892.625 403l13.987 10.48zm-45.459 55.891s30.306-23.288 40.796-34.932l13.987 10.48s-3.496 3.493-8.159 9.315v83.837h-23.312v-61.713l-10.49 6.986-12.822-13.973zm58.28-23.288v1.164h104.904v10.48h-20.98v64.042c0 9.316-10.49 12.809-10.49 12.809l-20.982 6.986-10.49-12.808s6.993-3.493 11.656-6.987c5.828-3.493 4.662-9.315 4.662-9.315v-55.891h-58.28v-10.48zm102.573-32.603v10.48H921.765v-10.48h100.242zM311.862 573.25h18.634c6.988 0 17.47 2.34 17.47 11.7 0 5.85-4.659 9.359-10.482 10.529 6.988 1.17 12.811 4.68 12.811 10.529 0 11.7-11.646 14.039-18.634 14.039h-18.635v-46.796h-1.164zm10.482 18.72h4.658c4.66 0 10.482-1.17 10.482-5.85 0-5.85-5.823-5.85-10.482-5.85h-4.658v11.7zm0 21.058h4.658c4.66 0 11.647-1.17 11.647-7.02s-5.823-7.02-11.647-7.02h-4.658v14.04zm51.244-39.777h11.647l20.964 46.796h-11.647l-4.659-10.53h-22.128l-4.659 10.53H351.46l22.128-46.796zm5.824 9.359-8.153 19.888h15.14l-6.987-19.888zm33.774-9.36h12.812l20.963 35.098V573.25h10.482v46.796h-12.81l-20.965-35.097v35.097h-10.482V573.25zm55.904 0h10.482v19.889l19.8-19.888h12.81l-22.129 22.228 23.294 24.568H499.37l-19.8-22.228v22.228h-10.48v-46.796zm96.666-1.17c16.305 0 26.787 10.53 26.787 24.569s-9.317 24.568-26.787 24.568-26.787-10.53-26.787-24.568c0-14.04 9.317-24.568 26.787-24.568zm0 42.117c10.482 0 15.14-8.189 15.14-17.548 0-8.19-4.658-16.379-15.14-16.379s-15.14 8.19-15.14 16.379c0 9.359 3.493 17.548 15.14 17.548zm36.104-40.946h30.281v7.019h-18.634v11.7h18.634v7.019h-18.634v21.058h-10.482v-46.796h-1.165zm98.995 46.796c-3.494 1.17-8.152 1.17-11.646 1.17-17.47 0-29.116-8.19-29.116-23.398 0-16.38 11.646-25.738 29.116-25.738 3.494 0 8.152 1.17 11.646 2.34l-1.164 8.189c-3.494-2.34-8.153-2.34-11.647-2.34-11.646 0-17.47 7.02-17.47 17.549 0 9.359 6.988 16.378 18.635 16.378 4.66 0 9.317-1.17 11.646-2.34v8.19zm6.988-46.796h10.482v18.718h20.964v-18.718h10.482v46.796H739.29v-21.058h-20.964v21.058h-10.482v-46.796zm55.904 0h31.445v7.019h-20.964v11.7h18.635v7.019h-18.635v12.869h20.964v7.02h-31.445V573.25zm41.927 0h12.811l20.964 35.097V573.25h10.482v46.796h-12.81l-20.965-35.097v35.097h-10.482V573.25zm97.83 9.359c-4.658-1.17-9.316-2.34-13.975-2.34-12.81 0-19.8 7.02-19.8 17.549 0 9.359 6.99 16.378 18.635 16.378 3.494 0 4.66 0 6.988-1.17v-12.869h-11.646v-7.019h22.128v25.738c-5.823 1.17-11.646 2.34-17.47 2.34-17.47 0-29.116-8.19-29.116-23.398 0-16.38 11.647-25.738 29.116-25.738 5.824 0 11.647 1.17 16.305 2.34l-1.164 8.189zm13.977-9.36h15.14c16.305 0 31.446 4.68 31.446 23.399 0 18.718-13.976 23.398-31.446 23.398h-15.14v-46.796zm10.481 39.778h5.824c9.317 0 17.47-5.85 17.47-16.38 0-10.528-8.153-16.378-17.47-16.378h-5.824v32.758zm44.257-39.777h10.482v26.907c0 8.19 3.494 12.87 11.647 12.87 8.152 0 11.646-5.85 11.646-12.87v-26.907h10.482v30.417c0 12.87-8.153 17.549-22.128 17.549-13.976 0-22.129-4.68-22.129-17.549v-30.417z" fill="#231815"/>
</svg>
