<svg viewBox="0 0 1024 1024" version="1.1" xmlns="http://www.w3.org/2000/svg" height="1em" width="1em">
  <path d="M0 0m224 0l576 0q224 0 224 224l0 576q0 224-224 224l-576 0q-224 0-224-224l0-576q0-224 224-224Z" fill="#FFFFFF"/>
  <path d="M236.44 402.964s92.324-127.704 243.044-48.324c0 0 77.028-53.06 174.08-50.552 10.984 0.416 88.012-0.42 114.292 37.32 12.652 19.08 11.4 42.896-10.568 61 0 0-104.56-83.56-362.06-3.76 0 0-37.264-20.332-85.096-16.992-44.908 3.48-73.692 21.308-73.692 21.308z" fill="#6FB92C"/>
  <path d="M729.34 714.64l102.476-216.28s-52.144-150.128-329.112-111.552C255.492 421.624 112 595.984 112 595.984s163.512-111.968 371.796-52.224c172.828 49.58 245.544 170.88 245.544 170.88z" fill="#00428D"/>
</svg>
