<svg viewBox="0 0 1024 1024" xmlns="http://www.w3.org/2000/svg" height="1em" width="1em">
  <path d="M224 0h576q224 0 224 224v576q0 224-224 224H224Q0 1024 0 800V224Q0 0 224 0Z" fill="#FFF"/>
  <path d="M513.056 172c172.52 0 315.096 127.708 337.86 293.46-20.852-99.496-109.32-174.24-215.32-174.24-121.492 0-219.984 98.188-219.984 219.308 0 121.12 98.492 219.304 219.984 219.304 108.048 0 197.84-77.676 216.404-180.06C833.148 719.772 688.6 852 513.056 852 324.696 852 172 699.772 172 512c0-187.78 152.696-340 341.056-340zm188.668 255A22.252 22.252 0 0 1 724 449.228V569.46a22.248 22.248 0 0 1-22.276 22.228H556V427zm-42.568 63.232h-39.788v39.7h39.788v-39.7z" fill="#D70110"/>
</svg>
