<svg viewBox="0 0 1024 1024" xmlns="http://www.w3.org/2000/svg" height="1em" width="1em">
  <path d="M832.374 607.626V416H1024v191.626H832.374zm26.782-26.782h138.063V442.409H859.156v138.435zm17.382-19.628 68.976-101.798 37.316-.751-71.236 102.55h-35.056zM706.62 529.03h15.08v41.173l17.342-20.21h18.093l-18.472 21.332 20.354 34.805h-17.72l-12.81-23.953-6.787 7.114v16.839h-15.08v-77.1zm-62.877 21.34h15.194v6.405c1.896-2.26 4.18-4.145 7.215-5.653 3.422-1.13 6.458-1.881 9.117-1.881 5.325 0 9.5 1.502 13.298 3.767 3.798 3.01 6.076 6.778 6.076 11.302v42.568H679.45v-37.293c0-2.265-.757-4.146-2.278-5.275-1.902-1.508-3.804-1.887-6.076-1.887-3.047 0-5.325.379-7.221 1.508-1.896 1.508-3.417 3.016-4.937 5.654v37.293h-15.194V550.37zm-28.445 36.861v-8.797c-4.951.768-8.77 1.915-11.817 2.678-5.723 1.531-8.393 4.21-8.393 7.656 0 2.673.383 4.204 1.91 5.35 1.52 1.153 3.43 1.532 6.1 1.532 2.67 0 5.34-.768 7.626-2.294 2.287-1.147 3.82-3.441 4.574-6.125zm-17.843-20.028h-15.078c0-5.988 2.643-10.477 7.541-13.849 4.52-2.62 9.797-4.113 16.203-4.113 8.672 0 15.072 1.493 19.22 4.113 3.394 2.62 5.27 5.617 5.27 9.736v34.436c0 3.367 1.135 6.363 3.4 8.978h-15.456c-.757-1.122-1.503-1.863-1.887-2.99-.373-.747-.746-1.875-1.13-3.373-1.875 2.626-4.52 4.5-7.536 5.617-2.633 1.128-6.028 1.869-10.169 1.869-5.276 0-9.423-1.869-12.44-4.86-3.395-3.372-5.276-7.485-5.276-11.98s1.514-8.608 4.147-11.599c2.638-2.996 6.406-4.87 11.304-5.622 8.672-1.493 12.818-2.245 13.191-2.245 4.52-1.122 6.78-2.62 6.78-4.118 0-2.25-.746-4.113-2.639-4.865-1.503-1.123-3.768-1.498-6.78-1.498-2.637 0-4.524.751-6.405 1.498-1.509 1.122-2.26 2.615-2.26 4.865zm-74.227 5.991v19.462h20.211c2.99 0 5.24-.761 7.484-3.05 1.868-1.904 2.995-4.198 2.995-6.87 0-2.671-1.127-4.96-2.995-6.865-2.244-1.91-4.494-2.677-7.484-2.677h-20.21zm0-29.942v16.468h19.092c2.615 0 4.859-.746 6.732-2.244 1.874-1.498 2.62-3.372 2.62-5.616 0-2.615-.746-4.49-2.62-6.363-1.873-1.493-3.747-2.245-6.362-2.245h-19.462zM506.76 606.13v-77.1h39.77c5.677 0 10.605 1.874 14.386 5.993 4.167 4.107 6.444 8.977 6.444 14.97 0 3.366-.766 6.362-2.277 9.353-1.89 2.996-4.542 5.235-7.573 6.739 3.792 1.498 6.813 4.118 9.47 7.109 2.27 3.372 3.406 6.738 3.406 10.48 0 6.364-2.271 11.604-6.438 15.722-4.167 4.49-8.71 6.734-14.772 6.734H506.76zm-76.35-33.685h23.953c0-2.62-1.522-5.242-3.803-7.111-2.28-2.245-4.942-3.368-7.986-3.368-3.038 0-6.082 1.123-8.368 3.368-2.28 1.869-3.797 4.49-3.797 7.111zm24.114 16.092h14.801c-1.143 6.363-4.556 10.858-9.87 14.6-4.55 2.997-10.244 4.49-16.695 4.49-7.964 0-14.42-2.986-19.733-8.608-5.313-5.611-7.588-12.727-7.588-21.71 0-7.856 2.275-14.595 7.588-19.836 4.932-5.241 11.77-8.232 19.733-8.232 11.007 0 18.59 4.113 22.771 11.974 1.894 2.62 3.032 5.988 3.794 9.36.757 3.743.757 7.486.757 11.604H430.62c0 2.991 1.138 5.617 3.413 8.232 2.276 2.997 5.313 4.49 8.726 4.49 2.657 0 4.932-.747 7.213-1.493 1.894-1.123 3.413-2.621 4.55-4.871zM354.058 529.03h15.19v26.944c1.902-2.615 4.56-4.489 7.595-5.611 3.04-.746 6.456-1.493 9.872-1.493 4.942 0 9.496 1.493 13.294 4.49 3.797 2.614 5.699 6.738 5.699 11.221v41.549h-14.814v-35.18c0-2.991-1.139-5.241-2.659-6.734-1.52-1.498-3.797-2.25-6.456-2.25-3.035 0-6.075.752-8.733 2.615-2.278 1.88-3.798 4.124-3.798 7.12v34.429h-15.19v-77.1zm-35.55 78.597c-7.972 0-14.426-2.986-19.735-8.608-4.94-5.611-7.592-12.727-7.592-21.71 0-7.486 2.652-14.22 7.968-19.836 5.315-5.241 11.768-8.232 19.36-8.232 6.834 0 12.906 2.244 17.84 6.363 5.315 3.743 7.978 8.984 7.978 14.971H329.14c0-2.62-1.138-4.495-3.039-5.987-2.276-1.874-4.553-2.62-7.591-2.62-3.796 0-6.454 1.492-8.73 4.488-1.9 2.62-3.039 6.364-3.039 10.853 0 5.24 1.138 9.365 3.039 12.732 2.276 2.99 4.934 4.86 8.73 4.86 2.663 0 5.315-1.118 7.21-2.992 2.282-1.868 3.42-3.742 3.42-6.363h15.188c0 6.363-2.663 11.98-7.978 16.093-5.31 3.743-11.006 5.988-17.84 5.988zm-85.713-20.212h15.082c0 2.626.758 4.87 3.013 6.368 1.894 1.499 4.528 2.24 7.547 2.24 2.64 0 4.895-.37 6.404-1.123 1.894-.746 3.025-2.615 3.025-4.86 0-2.996-2.64-5.24-8.677-6.738-9.803-2.621-15.461-4.114-16.213-4.866-6.032-2.615-9.05-6.363-9.05-11.604 0-5.24 2.261-9.36 6.41-12.732 4.15-3.366 9.808-4.86 16.591-4.86 6.79 0 12.064 1.494 16.591 4.49 4.902 3.372 7.541 7.861 7.541 14.225h-13.95c-.374-2.25-1.51-4.12-3.393-5.241a13.113 13.113 0 0 0-6.789-1.874c-2.26 0-4.143.751-5.658 1.498-1.504 1.122-2.261 2.25-2.261 4.118 0 2.245 3.018 4.119 8.677 5.241 8.671 1.493 14.324 2.62 16.212 3.743 6.032 2.62 9.05 7.11 9.05 13.478 0 6.364-2.64 11.223-7.92 14.22-4.527 2.996-9.801 4.489-16.59 4.489-7.547 0-13.578-1.869-18.48-5.612-4.9-3.367-7.162-8.232-7.162-14.6zm-15.349-53.145v16.093h8.612v10.477h-8.612v28.825c0 1.122.752 2.244 1.498 2.99.752.753 1.874 1.128 3.367 1.128h2.25c.746-.375 1.122-.375 1.497-.375v13.096c-1.873.382-3.747.752-4.87.752-1.492.37-3.366.37-5.986.37-3.742 0-6.362-1.122-8.983-3.737-2.244-2.25-3.366-4.87-3.366-8.237V560.84h-7.485v-10.477h7.485v-7.485l14.593-8.608zm-79.715 15.72h15.082v37.293c0 1.886 1.13 3.767 2.64 5.275a10.224 10.224 0 0 0 6.41 2.26c3.019 0 5.658-.752 7.914-2.633 2.267-2.26 3.397-4.518 3.397-7.161v-35.035h14.709v56.508h-14.709v-7.156c-4.522 5.648-10.18 8.286-16.964 8.286-4.906 0-9.056-1.503-12.447-3.762-3.77-2.643-6.032-6.405-6.032-10.929v-42.947zm-48.655 22.455h23.205c0-2.62-1.123-5.242-3.367-7.111-2.621-2.245-5.242-3.368-8.233-3.368-2.997 0-5.617 1.123-7.862 3.368-2.62 1.869-3.743 4.49-3.743 7.111zm23.094 16.092h15.079c-1.13 6.363-4.526 10.858-9.802 14.6-4.52 2.997-10.175 4.49-16.955 4.49-7.915 0-14.322-2.986-19.22-8.608-5.282-5.611-7.915-12.727-7.915-21.71 0-7.856 2.633-14.595 7.536-19.836 5.277-5.241 11.684-8.232 19.599-8.232 11.305 0 18.841 4.113 22.988 11.974 1.509 2.62 2.639 5.988 3.39 9.36.752 3.743 1.13 7.486 1.13 11.604H88.808c0 2.991 1.13 5.617 3.012 8.232 2.638 2.997 5.277 4.49 8.672 4.49 2.638 0 5.271-.747 7.158-1.493 2.26-1.123 3.768-2.621 4.52-4.871zm-95.702-45.285v49.404h15.145c6.058 0 10.23-2.615 13.256-7.485 2.65-4.489 3.786-10.105 3.786-17.214 0-5.987-1.135-11.609-3.786-16.097-3.026-5.987-7.573-8.608-13.256-8.608H16.468zM0 606.13v-77.1h33.126c10.541 0 18.442 4.119 24.463 12.355 4.898 7.11 7.534 15.717 7.534 26.198 0 10.105-2.636 19.088-8.284 26.573-6.022 7.855-13.928 11.974-23.713 11.974H0z" fill="#26298A"/>
</svg>
