<svg viewBox="0 0 1024 1024" version="1.1" xmlns="http://www.w3.org/2000/svg" height="1em" width="1em">
  <path d="M771.172 422.749c0.2-0.13 0.685-0.066 1.428 0.175l15.656 6.75h28.365c1.234-1.543 2.345-2.911 3.276-4.085 0.95-1.16 1.79-1.848 2.558-1.984 0.51-0.11 3.528 0.966 8.975 3.222 5.447 2.238 8.206 4.124 8.296 5.622 0.052 1.395-1.337 2.73-4.232 3.969v32.143l0.679 15.977c-0.298 0.752-0.66 1.349-1.002 1.77-0.388 0.409-1.583 1.025-3.65 1.88-2.075 0.811-4.73 1.168-7.903 1.07-3.353-0.038-4.981-1.056-4.981-3.008v-1.654H803.86c0.51 2.257 1.085 4.267 1.57 6.018 0.523 1.744 1.447 4.26 2.668 7.567 1.254 3.287 2.152 5.401 2.669 6.303l2.72 4.792c4.962-5.207 9.02-10.051 12.102-14.545l2.475-3.605c0.62-0.94 1.085-1.465 1.415-1.55 0.297-0.116 0.846-0.026 1.68 0.208 2.048 0.739 6.222 2.626 12.534 5.66 6.326 3.003 6.92 4.974 1.797 5.882l-4.956 0.895a461.065 461.065 0 0 0-5.996 2.464l-12.083 5.265-7.049 2.769c3.321 5 6.662 9.564 10.067 13.636 3.489 4.105 7.656 7.438 12.612 10 4.982 2.586 7.85 3.993 8.529 4.253l2.261 0.888c0.756 0.35 1.144 0.759 1.144 1.226-0.052 0.48-0.44 0.823-1.144 1.018l-4.277 1.277c-0.982 0.298-2.442 1.09-4.329 2.347-1.88 1.284-3.47 2.737-4.755 4.364-1.222 1.622-2.197 3.016-2.83 4.235-0.679 1.193-1.254 1.79-1.739 1.79-0.355 0.051-2.397-1.434-6.099-4.449-3.709-3.035-6.907-7.308-9.776-12.904-2.804-5.557-4.549-9.402-5.253-11.51l-2.17-6.043c-7.173 7.885-11.47 12.67-12.885 14.389l-6.293 7.56c-1.311 1.492-2.946 3.424-4.936 5.752l-4.458 5.181c-0.821 0.902-1.357 1.368-1.558 1.394-0.22 0.033-0.484-0.136-0.814-0.486-0.323-0.357-0.756-1.18-1.253-2.464l-6.61-15.523c-0.265-0.545-0.42-0.895-0.434-1.005-0.018-0.13 0.434-0.526 1.338-1.18 0.614-0.487 1.08-1.116 1.428-1.9 0.33-0.772 0.524-1.842 0.524-3.19v-90.833c0-5.992-0.168-10.433-0.472-13.3-0.271-2.879-0.271-4.376-0.052-4.493z m241.125 38.402c5.48 4.896 8.82 8.008 10.028 9.376 1.26 1.33 1.77 2.374 1.66 3.126-0.135 0.752-0.762 1.14-1.828 1.14h-20.424a11.83 11.83 0 0 1-2.585 3.438v62.139c0 3.287-0.355 5.648-1.027 7.042-0.717 1.413-2.106 2.697-4.232 3.936-2.145 1.219-4.975 2.166-8.606 2.846-3.606 0.668-6.216 0.908-7.78 0.694-1.408-0.084-2.261-0.37-2.61-0.85-0.355-0.46-0.55-1.471-0.575-2.95-0.032-1.491-0.22-2.807-0.601-3.884-0.381-1.063-1.28-2.256-2.804-3.579-1.473-1.323-3.412-2.406-5.738-3.255l-5.13-1.81c-1.518-0.499-2.061-1.095-1.66-1.789 0.394-0.713 1.175-1.011 2.293-0.914l3.819 0.447 9.789 0.688c1.776 0.142 3.166 0.038 4.2-0.338 0.988-0.389 1.66-1.005 2.093-1.887 0.381-0.849 0.588-2.509 0.588-4.889l-0.149-55.084h-33.243l-8.574 0.434-4.032-4.266 10.422 0.895h50.424c3.16-4.987 5.537-8.45 7.114-10.375 1.524-1.926 2.817-3.01 3.812-3.262 0.975-0.253 2.759 0.72 5.356 2.93z m-90.425-12.846c1.28 0.163 4.878 2.205 10.79 6.102 5.9 3.878 8.684 6.433 8.387 7.632-0.388 1.31-2.326 2.036-5.731 2.263-2.74 2.737-5.957 5.882-9.576 9.422 3.347 1.757 5.105 2.924 5.286 3.534 0.38 1.4-0.608 2.665-2.889 3.82v52.548l0.679 15.738c-0.304 0.979-0.756 1.828-1.357 2.516-0.601 0.66-2.1 1.31-4.471 1.938a31.03 31.03 0 0 1-7.631 0.928c-1.564 0.058-2.688-0.137-3.315-0.552-0.62-0.428-1.156-1.154-1.608-2.126l0.768-17.17V486.92c-8.994 6.653-15.933 11.574-20.863 14.764l-3.786 2.47c-1.086 0.65-1.745 0.597-1.977-0.18-0.304-0.766-0.168-1.466 0.232-2.043l3.328-3.839a429.56 429.56 0 0 0 6.732-8.008c1.926-2.354 5.273-7.023 10.035-14.065 4.8-7.022 8.554-13.17 11.365-18.473l2.688-5.168c1.344-2.646 2.074-3.982 2.216-4.008 0.188-0.039 0.375-0.065 0.698-0.065z m-195.76-33.02c0.71 0.046 1.447 0.201 2.184 0.454 0.814 0.24 3.262 0.921 7.456 2.017 4.225 1.096 7.269 2.081 9.175 2.93 1.893 0.837 2.81 1.602 2.81 2.277-0.038 0.674-0.549 1.27-1.53 1.764l-4.485 2.405a594.037 594.037 0 0 1-9.782 17.009h15.9c5.474-6.336 8.478-9.552 8.93-9.558 0.459-0.013 1.17 0.337 2.126 1.09l4.93 4.045c4.025 3.593 5.964 5.732 5.828 6.4-0.162 0.688-0.465 1.012-0.905 1.012h-38.23c-5.493 8.105-10.668 14.817-15.598 20.166l8.2 0.837h19.415c1.519-1.816 3.373-3.768 5.525-5.908 2.151-2.114 3.379-3.183 3.702-3.216 0.323-0.026 0.904 0.285 1.77 0.876 7.437 5.887 10.946 9.227 10.506 9.998-0.433 0.785-0.898 1.155-1.324 1.155H748.28c-0.303 1.212-0.523 1.828-0.652 1.874l-2.262 1.815v17.002h2.824c4.768-5.544 7.385-8.579 7.798-9.072 0.382-0.486 0.756-0.758 1.118-0.83 0.343-0.032 0.95 0.286 1.79 0.993l4.458 3.748c4.523 4.046 6.63 6.38 6.28 7.029-0.394 0.66-0.794 0.972-1.246 0.972h-23.022v30.963c7.133-3.3 12.574-5.972 16.347-8.028l7.256-3.884c0.847-0.454 1.39-0.454 1.745-0.026 0.265 0.409 0.135 0.94-0.407 1.602l-4.62 5.395c-12.419 14.388-19.423 22.572-21.057 24.562l-6.862 8.333-0.892 1.121c-0.245 0.059-0.446 0.026-0.517-0.077-0.142-0.11-0.387-0.59-0.82-1.492l-8.284-16.638c-0.517-0.947-0.762-1.505-0.736-1.686 0-0.169 0.413-0.545 1.124-1.09 0.73-0.55 1.215-1.154 1.467-1.802 0.245-0.649 0.439-1.46 0.62-2.42 0.187-0.978 0.297-1.75 0.297-2.282v-32.55h-10.965l-6.48 0.537-4.471-4.273 10.08 0.895h11.836v-20.691H724.4l-6.88 0.531-3.49-3.436-2.778 2.762-2.837 2.406c-0.743 0.642-1.253 0.797-1.525 0.486-0.277-0.337-0.187-1.025 0.252-2.069l2.146-4.636c0.788-1.673 1.815-4.143 3.237-7.457a191.736 191.736 0 0 0 4.057-10.543c1.338-3.696 2.61-8.015 3.87-12.917 1.28-4.935 2.178-8.436 2.67-10.537l1.627-7.418c0.278-1.355 0.433-2.12 0.433-2.283-0.02-0.188-0.02-0.324 0.039-0.44 0.052-0.15 0.323-0.202 0.892-0.202z m-320.55 86.43c4.033 1.847 8.581 4.227 13.686 7.145 5.052 2.93 7.56 5.051 7.482 6.342-0.11 0.81-0.582 1.42-1.357 1.86l-2.242 0.474-2.694 0.434c-7.625 6.952-15.081 13.02-22.415 18.189-7.294 5.168-16.902 10.09-28.752 14.797l-5.796 2.309c-1.008 0.415-1.719 0.317-2.1-0.286-0.413-0.59-0.07-1.277 0.95-2.023l5.395-3.676c1.28-0.85 3.237-2.452 5.86-4.799 2.604-2.354 5.964-5.596 10.048-9.765 4.09-4.176 7.676-8.806 10.842-13.883 3.101-5.064 5.169-8.657 6.17-10.758l2.184-4.571c0.491-1.044 0.898-1.673 1.189-1.906 0.278-0.227 0.801-0.195 1.55 0.116z m33.315 4.564l4.025 0.688c4.44 0.881 8.736 1.841 12.936 2.827 4.16 1.005 9.472 2.924 15.92 5.751 6.449 2.821 11.417 6.342 14.88 10.563 3.45 4.215 5.325 8.248 5.577 12.061 0.264 3.813-0.492 7.081-2.288 9.791-1.822 2.71-4.716 3.995-8.716 3.897-3.295-0.058-5.776-1.056-7.456-2.963-1.7-1.932-3.593-5.155-5.718-9.733-2.1-4.578-4.653-8.695-7.657-12.333-2.966-3.657-5.66-6.55-8.025-8.67-2.352-2.133-5.117-4.104-8.283-5.92-3.153-1.815-5.072-2.879-5.712-3.19-0.659-0.292-1.066-0.59-1.266-0.914-0.214-0.337-0.246-0.772-0.123-1.271 0.123-0.532 0.756-0.726 1.906-0.584z m142.9-88.63c7.78 1.161 13.149 2.173 16.056 3.01 2.914 0.849 4.174 1.886 3.709 3.112-0.44 1.212-2.236 2.827-5.389 4.844v118.922h14.777l-0.077-105.669-1.092-20.827c0.542-0.999 1.874-1.388 4.038-1.128 7.922 1.154 12.929 2.036 15.055 2.71 2.177 0.623 3.482 1.316 4 1.971 0.49 0.675 0.574 1.33 0.355 1.978-0.246 0.668-1.958 2.088-5.15 4.286v83.13a648.852 648.852 0 0 0 3.405-7.497c0.756-1.809 2.106-5.284 4-10.394a346.276 346.276 0 0 0 4.852-13.598c1.28-3.949 2.5-8.202 3.702-12.754 1.202-4.54 1.99-7.788 2.39-9.733l1.067-5.635 0.66-4.267c0.645-0.836 1.931-0.836 3.837 0l8.716 3.599c2.475 1.115 5.008 2.354 7.476 3.78 2.533 1.433 3.793 2.47 3.844 3.158 0 0.674-0.135 1.22-0.4 1.602-0.64 0.856-2.378 1.524-5.26 2.036-7.385 13.422-13.484 24.193-18.401 32.311-4.879 8.086-8.613 13.864-11.172 17.391l-8.716 12.36v21.19h16.56a391.725 391.725 0 0 0 7.599-9.759c1.634-2.295 2.907-3.52 3.747-3.644 0.872-0.156 2.371 0.72 4.588 2.633l4.904 4.26c0.95 0.888 2.461 2.366 4.51 4.441 2.067 2.03 3.024 3.379 2.856 4.034-0.156 0.635-1.034 0.979-2.579 0.979H547.92l-9.259 0.447-4.549-4.28 10.435 0.889h34.31V439.618l-1.144-20.834c0.543-1.05 1.906-1.44 4.064-1.134z m218.994 66.947h-13.42v44.541a569.187 569.187 0 0 0 19.636-8.481c-1.525-4.948-2.43-8.125-2.727-9.59-0.303-1.447-0.794-4.32-1.382-8.65-0.608-4.326-0.989-7.004-1.15-8.022-0.13-1.018-0.433-4.286-0.957-9.798z m-255.79-30.22l2.7 2.484c6.242 6.452 11.03 12.379 14.402 17.845 3.347 5.44 6.074 10.907 8.116 16.405 2.08 5.519 3.05 10.486 2.92 14.992-0.11 4.494-1.286 8.034-3.515 10.602-2.261 2.574-5.15 3.774-8.774 3.599-3.567-0.175-6.016-1.316-7.398-3.41-1.331-2.102-1.88-4.91-1.693-8.456l0.762-8.268c0.272-4.228 0.188-9.04-0.297-14.382-0.465-3.995-1.047-7.541-1.803-10.647-0.704-3.1-1.544-5.901-2.507-8.469a86.535 86.535 0 0 0-2.72-6.361c-0.82-1.699-1.415-2.873-1.848-3.534-0.407-0.642-0.736-1.239-0.93-1.79-0.22-0.557-0.084-1.037 0.303-1.452 0.382-0.441 1.144-0.15 2.281 0.843z m-75.775-35.032c0.078 0.104 1.9 0.759 5.395 1.978 3.515 1.232 7.295 2.93 11.385 5.148 4.025 2.205 6.21 3.716 6.493 4.572 0.304 0.85 0.252 1.582-0.135 2.237-0.35 0.55-2.294 1.31-5.848 2.321a784.548 784.548 0 0 1-7.43 13.345c-2.559 4.442-10.68 17.592-24.346 39.425h17.019c3.302-4.488 5.828-7.879 7.618-10.161 1.776-2.27 3.16-3.457 4.115-3.6 0.924-0.122 2.372 0.578 4.33 2.07 4.522 3.643 7.76 6.743 9.73 9.246 1.97 2.535 2.791 4.085 2.488 4.604-0.285 0.557-0.892 0.836-1.758 0.836H371.234l-9.336 0.448-3.296-4.325 10.913 0.882h79.887a833.963 833.963 0 0 0 5.615-16.153c1.641-4.915 3.134-10.09 4.471-15.446a303.069 303.069 0 0 0 3.748-17.196c1.182-6.089 1.912-10.083 2.145-11.983l0.879-7.133v-1.115c0.33-0.661 1.285-0.661 2.946 0z m349.43 39.017h-31.285v23.337h31.286V458.36zM377.05 426.613l4.103 2.321c1.958 1.453 4.626 3.456 8.077 6.037 3.43 2.574 7.41 6.523 11.94 11.834 4.536 5.33 6.771 11.263 6.771 17.838-0.025 6.569-1.337 11.037-3.928 13.384-2.572 2.36-5.518 3.346-8.761 3.035-3.263-0.318-5.75-1.557-7.411-3.703-1.661-2.16-2.475-4.17-2.417-6.07 0.058-1.906 0.297-4.642 0.73-8.221 0.465-3.56 0.465-7.45 0-11.64-0.433-3.67-1.195-6.815-2.223-9.44-1.06-2.653-2.571-5.363-4.477-8.1-1.958-2.756-3.153-4.396-3.612-4.954-0.42-0.544-0.685-0.992-0.769-1.342-0.084-0.35 0-0.72 0.297-1.09 0.272-0.382 0.847-0.35 1.68 0.11z m36.5-6.154l3.812 2.788c8.955 7.885 15.1 14.298 18.46 19.194 3.32 4.896 5.388 10.148 6.209 15.763 0.788 5.616 0.491 9.889-0.898 12.781-1.053 2.205-2.7 4.007-4.898 5.434-2.216 1.426-4.994 1.958-8.29 1.582-3.314-0.389-5.55-1.978-6.629-4.772-1.15-2.782-1.583-5.318-1.344-7.568 0-0.356 0.22-1.802 0.66-4.409 0.413-2.568 0.652-5.155 0.684-7.814 0.02-2.639-0.174-5.343-0.49-8.092-0.821-5.739-1.913-9.992-3.335-12.735-1.434-2.75-2.604-4.993-3.56-6.705-0.93-1.744-1.583-2.847-1.938-3.378-0.35-0.538-0.543-0.947-0.543-1.31-0.026-0.35 0.103-0.694 0.446-1.044 0.33-0.337 0.866-0.26 1.654 0.285z m507.625-4.128c0.73 0.085 1.848 0.843 3.399 2.244l6.694 4.883c0.898 0.693 2.584 2.1 5.072 4.234 2.5 2.1 3.696 3.618 3.618 4.526-0.22 1.491-1.027 2.179-2.475 2.023l-3.844 0.214c-3.263 2.01-5.718 3.502-7.269 4.507l-13.007 8.254c-7.656 4.643-14.912 8.39-21.69 11.231l-5.305 2.244c-1.085 0.492-1.848 0.492-2.32-0.026-0.426-0.539-0.077-1.343 1.009-2.445l3.353-3.145 5.098-4.714c3.127-3.015 6.778-6.945 10.952-11.795 4.187-4.89 7.883-9.856 11.126-14.9l2.669-4.222 1.576-2.899c0.33-0.194 0.801-0.279 1.344-0.214zM818.637 432.6H787.35v22.85h31.286V432.6z m183.348-11.327c1.421 1.135 3.405 2.802 5.822 4.987 2.423 2.16 4.277 3.91 5.472 5.24 1.228 1.315 1.693 2.275 1.39 2.826-0.266 0.532-1.086 0.804-2.372 0.804h-55.321l-8.606 0.376-4.026-4.26 10.422 0.973h32.52l0.665-0.856c3.265-4.195 5.57-7.163 6.843-8.884 1.337-1.867 2.448-2.853 3.347-2.97 0.878-0.11 2.158 0.461 3.844 1.764zM913.292 602.277c1.056 0 3.691 0.61 3.691 4.48 0 3.313-3.73 6.389-5.102 6.852l-0.402-0.888c2.998-1.961 3.73-4.056 3.73-4.944a0.636 0.636 0 0 0-0.641-0.656c-0.09 0-0.22 0.053-0.401 0.1-0.143 0.046-0.37 0.092-0.693 0.092-1.185 0-2.81-0.463-2.81-2.332 0-2.002 1.495-2.704 2.628-2.704z m-37.91-25.904c7.498 0 14.97 5.308 14.97 15.834 0 9.751-6.691 15.736-14.97 15.736-8.292 0-14.976-5.985-14.976-15.736 0-10.526 7.472-15.834 14.976-15.834z m-371.456 0l0.987 9.751h-1.128c-0.756-3.753-3.645-7.87-8.374-7.87-2.249 0-4.555 1.417-4.555 4.247 0 6.87 15.05 7.78 15.05 17.16 0 3.898-3.063 8.282-9.508 8.282-3.428 0-5.632-1.555-6.978-1.555-0.948 0-1.396 0.774-1.396 1.51h-1l-1.352-9.693h1.038c0.859 2.153 3.152 8.092 9.24 8.092 3.607 0 5.407-2.608 5.407-5.08 0-2.609-0.724-4.164-7.336-8.086-4.159-2.427-7.035-4.45-7.035-8.978 0-5.21 4.1-7.78 8.15-7.78 2.71 0 5.138 1.555 6.272 1.555 1.256 0 1.487-1.047 1.57-1.555h0.948z m349.818 0l0.401 10.304h-1.041c-1.145-4.813-4.417-8.476-10.011-8.476-2.27 0-4.91 0.924-6.823 2.797-1.772 1.73-3.777 4.665-3.777 11.254 0 9.706 5.413 13.681 11.143 13.681 5.6 0 8.873-3.253 10.283-4.619l0.821 0.82c-0.045 0.097-3.951 5.81-12.327 5.81-7.32 0-15.191-4.385-15.191-15.783 0-10.245 7.644-15.788 15.463-15.788 4.055 0 7.004 1.516 8.007 1.516 0.226 0 1.733 0 2.089-1.516h0.963z m166.895 25.807c1.36 0 2.552 1.172 2.552 2.59 0 1.69-1.6 2.46-2.552 2.46-0.958 0-2.512-0.731-2.512-2.46 0-1.457 1.146-2.59 2.512-2.59z m-120.594 0c1.36 0 2.55 1.172 2.55 2.59 0 1.69-1.605 2.46-2.55 2.46-0.952 0-2.512-0.731-2.512-2.46 0-1.457 1.146-2.59 2.512-2.59z m-344.389-24.997c4.034 0 11.526 0.945 11.526 7.918 0 6.06-5.899 7.147-8.215 7.591l9.35 11.45c0.994 1.223 2.092 2.033 3.957 2.123v0.869h-7.319l-10.79-13.947-2.549 0.097v8.91c0 3.035 0.452 3.897 4.085 4.071v0.869h-12.564v-0.869c3.585-0.214 3.843-1.13 3.852-4.349v-19.812c0-3.339-0.684-3.757-3.852-4.066v-0.855h12.52z m-93.475-0.81v0.86c-3.62 0.273-4.158 0.862-4.158 4.091v14.96c0.014 3.052 0.34 8.856 7.953 8.856 3.56 0 6.166-1.469 7.491-3.605 0.591-0.996 1.046-2.498 1.046-6.193v-12.284c0-4.866-1.098-5.636-4.301-5.824v-0.86h10.604v0.86c-3.509 0.362-4.288 1.048-4.288 5.824v12.12c-0.006 3.768-0.258 11.956-11.839 11.956-10.96 0-11.326-8.292-11.338-11.311v-14.499c0-3.359-0.624-3.864-4.1-4.09v-0.86h12.93z m287.022 0l17.394 21.98h0.09v-15.266c0-5.265-1.278-5.622-4.365-5.85v-0.864h10.673v0.865c-2.86 0.311-4.313 0.5-4.313 5.849v24.047h-0.775l-19.976-25.061h-0.09v17.84c0 4.699 0.955 5.706 4.268 5.843v0.877h-10.68v-0.877c3.455-0.221 4.417-0.91 4.417-5.843v-20.167c-1.86-2.281-2.59-2.508-4.416-2.508v-0.865h7.773z m-27.3 0l11.38 25.914c1.455 3.335 2.098 3.834 4.1 3.97v0.877h-11.646v-0.876c1.696 0 3.204-0.046 3.204-1.733 0-0.74-0.591-2.238-0.87-2.88l-1.866-4.38H714.22l-2.1 5.346c-0.24 0.59-0.376 1.227-0.376 1.726 0 1.92 2.158 1.92 3.12 1.92v0.877h-9.047v-0.876c0.721-0.046 1.501-0.137 2.32-1 1.053-1.141 2.47-4.476 3.334-6.481l9.514-22.404h0.917z m-131.824 0.81v0.855c-3.38 0.135-4.54 0.457-4.54 4.066v20.09c0 3.53 1.114 3.975 4.54 4.071v0.869H576.32v-0.869c3.941-0.096 4.501-0.862 4.501-4.072v-20.09c0-3.338-0.659-3.878-4.5-4.065v-0.855h13.758z m-51.251 0l0.262 7.693h-1.075c-0.916-4.888-2.153-5.765-6.883-5.795h-2.696v23.112c0 3.082 0.537 3.937 4.323 4.072v0.869h-13.135v-0.869c4.007-0.17 4.22-1.179 4.226-4.361V579.08h-2.423c-4.95 0-6.165 0.85-7.156 5.796h-1.08l0.268-7.693h25.369z m396.754 0v0.855c-3.106 0.187-4.24 0.495-4.24 4.066v21.402c0 1.77 0.784 1.855 4.331 1.858h0.272c6.832 0 9.756-0.186 12.35-6.11h1.14l-2.184 7.88h-24.525v-0.869c2.918-0.174 3.961-0.592 3.961-4.072v-20.09c0-3.57-1.089-3.84-3.96-4.065v-0.855h12.855z m57.022 0c11.034 0 18.343 4.92 18.343 15.065 0 6.008-3.635 14.886-17.702 14.886H980.19v-0.869c3.49-0.174 4.046-0.9 4.046-4.072v-20.308c-0.024-3.14-0.588-3.576-4.046-3.847v-0.855z m-305.594 0c3.974 0.02 11.608 0.727 11.608 7.64 0 5.023-3.951 6.013-5.978 6.509v0.096c3.92 0.817 7.512 2.99 7.512 7.737 0 1.71-0.895 7.969-10.887 7.969h-15.012v-0.869c3.772-0.096 4.309-0.868 4.309-4.077v-20.079c0-3.344-0.627-3.885-4.31-4.065v-0.861z m-76.806-0.81l11.375 25.92c1.468 3.329 2.105 3.828 4.112 3.965v0.876h-11.647v-0.876c1.695 0 3.196-0.046 3.196-1.733 0-0.734-0.591-2.233-0.864-2.875l-1.878-4.387h-11.96l-2.11 5.347c-0.228 0.59-0.364 1.227-0.364 1.727 0 1.92 2.157 1.92 3.105 1.92v0.877h-9.043v-0.876c0.734-0.046 1.507-0.137 2.332-1 1.046-1.142 2.462-4.478 3.34-6.483l9.503-22.402h0.903z m180.657 0.81v0.855c-3.583 0.225-4.215 0.727-4.215 4.072v9.276c10.346-9.18 11.681-10.414 11.681-11.945 0-1.216-0.866-1.313-3.12-1.403v-0.855h12.007v0.855c-2.75 0.225-3.714 0.36-6.971 3.525l-8.698 8.51 10.672 11.31c2.977 3.255 4.58 4.985 7.199 4.882v0.869h-13.981v-0.869c2.43-0.09 3.205-0.135 3.205-1.132 0-1.402-4.39-6.06-5.954-7.59l-4.854-4.754-1.186 0.945v8.46c0 3.17 0.547 3.897 4.118 4.071v0.869H777.85v-0.869c3.564-0.174 4.117-0.862 4.117-4.567V582.11c0-3.525-1.016-3.847-4.117-4.072v-0.855h13.01z m-364.815 0c11.04 0 18.349 4.92 18.349 15.065 0 6.008-3.628 14.886-17.702 14.886H413.64v-0.869c3.497-0.174 4.046-0.9 4.046-4.072v-20.09c0-3.338-0.503-3.788-4.046-4.065v-0.855z m216.541 0v0.855c-3.097 0.187-4.231 0.495-4.231 4.066v21.402c0 1.77 0.783 1.855 4.323 1.858h0.271c6.836 0 9.758-0.186 12.35-6.11h1.147l-2.197 7.88h-24.512v-0.869c2.916-0.174 3.966-0.592 3.966-4.072v-20.09c0-3.57-1.095-3.84-3.966-4.065v-0.855h12.85z m332.473 0l0.275 7.693h-1.087c-0.91-4.888-2.147-5.765-6.875-5.795h-2.696v23.112c0 3.082 0.543 3.937 4.315 4.072v0.869h-13.131v-0.869c4.091-0.174 4.226-1.222 4.226-4.567V579.08h-2.417c-4.955 0-6.163 0.85-7.154 5.796h-1.08l0.268-7.693h25.356z m-589.27-0.81l17.396 21.98h0.09v-15.266c0-5.265-1.271-5.622-4.352-5.85v-0.864h10.668v0.865c-2.86 0.311-4.313 0.5-4.313 5.849v24.047h-0.775l-19.98-25.061h-0.097v17.84c0 4.699 0.956 5.706 4.275 5.843v0.877h-10.675v-0.877c3.455-0.221 4.404-0.91 4.404-5.843v-20.167c-1.866-2.281-2.583-2.508-4.404-2.508v-0.865h7.762z m-11.81 0.81v0.855c-3.378 0.135-4.544 0.457-4.544 4.066v20.09c0 3.53 1.113 3.975 4.544 4.071v0.869h-13.759v-0.869c3.853-0.094 4.467-0.829 4.491-3.866l0.001-20.295c0-3.339-0.652-3.88-4.492-4.066v-0.855h13.76z m501.402 0.842c-4.667 0-9.75 3.708-9.75 14.136 0 10.077 4.667 14.143 9.75 14.143 5.077 0 9.75-4.066 9.75-14.143 0-10.428-5.083-14.136-9.75-14.136z m115.706 0.824c-2.164 0-2.164 0.862-2.164 1.769v22.984c0 1.531 0.556 1.846 2.759 1.846 2.948 0 14.25 0 14.25-13.155 0-3.808-1.098-7.468-4.275-10.273-2.21-1.943-4.779-3.171-10.57-3.171z m-307.93 13.525v11.222c0 1.679 0.806 1.853 3.415 1.853 2.966 0 8.407-0.406 8.407-6.47 0-3.705-2.206-5.203-4.54-5.917-1.534-0.457-2.972-0.688-7.281-0.688z m-258.622-13.525c-2.164 0-2.164 0.862-2.164 1.769v22.984c0 1.531 0.556 1.846 2.759 1.846 2.948 0 14.25 0 14.25-13.155 0-3.808-1.098-7.468-4.275-10.273-2.21-1.943-4.778-3.171-10.57-3.171z m295.716 4l-5.258 12.547h10.561l-5.303-12.548z m-111.685-0.006l-5.255 12.551h10.556l-5.3-12.55z m-54.13-3.994c-2.42 0-2.82 0.315-2.82 1.627v11.129c3.813-0.039 10.615-0.129 10.615-6.607 0-6.008-5.937-6.15-7.796-6.15z m131.733 0c-0.952 0-1.573 0.044-2.033 0.044-0.889 0-0.978 0.643-0.978 1.312v10.406l4.27-0.045c1.254 0 6.605-0.09 6.605-5.466 0-5.39-4.667-6.252-7.864-6.252zM326.189 510.546c0-41.807-56.67-75.683-126.57-75.683-55.948 0-103.423 21.733-120.11 51.834v-0.034c-1.552 2.81-2.416 5.85-2.416 9.027 0 7.51 4.737 14.183 12.141 18.55l64.156 37.019c3.328 1.81 7.282 2.884 11.556 2.884 4.28 0 8.241-1.075 11.555-2.864l60.855-35.155c4.118-2.36 6.717-6.088 6.717-10.23 0-4.02-2.463-7.606-6.342-10l-22.615-13.074-50.17 28.944-37.948-21.924c14.659-13.19 41.956-22.08 73.261-22.08 46.775 0 84.682 19.849 84.682 44.344-0.994 37.93-56.643 67.276-124.228 65.52C93.073 575.85 39.07 543.62 40.07 505.71h-0.02c0.47-50.018 66.074-89.948 146.488-89.166 7.174 0.081 14.197 0.47 21.057 1.156-16.497-6.081-37.11-9.7-59.535-9.7-17.898 0-34.68 2.326-49.109 6.333C40.765 430.305 0 467.371 0 510.546c0 57.814 73.023 104.682 163.108 104.682 90.085 0 163.115-46.868 163.115-104.682h-0.034z" fill="#004785"/>
</svg>
