<svg viewBox="0 0 1024 1024" version="1.1" xmlns="http://www.w3.org/2000/svg" height="1em" width="1em">
  <path d="M1005.526 360.025c3.099 0 3.745 1.988 3.745 2.983 0 0.994-0.43 1.597-0.897 2.095-0.83 0.887-1.912 0.887-2.848 0.887h-4.21v-5.965h4.21z m-0.507-11.463a18.81 18.81 0 0 1 18.888 18.888 18.81 18.81 0 0 1-18.888 18.887 18.81 18.81 0 0 1-18.887-18.887 18.81 18.81 0 0 1 18.887-18.888z m4.197 26.758h2.1l-4.198-7.346c1.574 0 4.197-1.806 4.197-4.721 0-5.247-4.722-5.247-5.246-5.247h-6.821v17.314h2.099v-7.346h3.46l4.41 7.346zM121.165 479.072l18.404 21.092-0.51 0.514c-15.338 18.005-33.743 26.75-56.238 26.75-23.006 0-43.455-7.202-58.281-21.091C8.69 491.418 0 470.842 0 446.149c0-24.692 8.18-45.269 24.54-60.187 14.826-13.375 35.787-21.091 58.281-21.091 22.495 0 40.9 8.745 56.237 26.75l0.511 0.514-18.404 22.12-0.512-0.514c-11.247-11.317-24.54-17.49-38.343-17.49-28.63 0-49.08 21.09-49.08 50.413 0 29.322 20.45 50.413 49.08 50.413 13.804 0 27.096-6.173 38.343-17.49l0.512-0.515z m36.81-110.6h32.208V525.37h-32.209V368.472zM316.97 491.418l1.534-1.028-7.669 30.35h-0.511c-5.113 3.087-13.804 7.717-28.63 7.202-21.472-0.514-35.787-16.976-35.787-41.153v-88.995h-27.607v-29.322h27.607v-31.894l31.697-16.976v48.87h33.231v29.836h-33.23v83.336c0 11.832 5.112 17.49 15.336 17.49 7.158 0 15.338-2.571 24.029-7.716z m27.096-122.946h32.208V525.37h-32.208V368.472z m549.075-59.673v149.696l10.225-15.432s45.5-64.817 51.124-73.562h20.45c-4.09 5.658-39.877 54.528-39.877 54.528s46.523 96.197 49.08 101.341h-19.94c-1.022-2.057-40.899-85.908-40.899-85.908l-29.652 41.154v44.754H875.25V319.602c1.022-1.03 13.292-8.231 17.893-10.803z m-151.84 79.22c9.714-13.889 24.54-22.12 41.923-22.12 34.764 0 53.17 22.12 53.17 63.789v95.168h-18.406v-91.567c0-35.495-12.27-51.957-39.365-51.957-25.563 0-40.9 19.548-40.9 51.957v91.567H719.32v-155.87h18.405v24.178l3.579-5.144z m-114.006-21.605c35.787 0 53.169 16.462 53.169 49.899v109.572H662.06V503.25l-3.579 4.115c-13.803 14.919-29.14 22.12-48.056 22.12-14.315 0-48.569-4.63-48.569-49.384 0-36.01 30.164-48.87 58.282-48.87 14.315 0 28.119 3.087 38.343 8.745l3.068 1.544V419.4c0-24.693-12.27-37.553-36.298-37.553-14.826 0-28.119 3.6-41.922 11.317-1.023-2.572-5.624-12.346-6.647-14.918 14.827-7.717 32.72-11.832 50.614-11.832z m-46.524 111.63c0 23.148 12.27 36.009 34.254 36.009 18.916 0 35.787-8.745 47.034-24.692l0.511-0.515v-33.952l-1.022-0.514c-11.759-6.687-24.029-9.26-41.922-9.26-24.54-0.514-38.855 11.832-38.855 32.923zM437.624 308.798v83.336l3.579-4.115c13.804-14.918 28.63-22.12 46.012-22.12 34.764 0 54.703 28.807 54.703 78.706 0 50.928-22.495 83.85-57.77 83.85-16.872 0-30.675-6.687-42.945-20.576l-3.579-4.115v21.09H419.22V319.088c1.533-0.514 14.314-7.716 18.404-10.288z m0.512 97.225l-0.512 0.515v81.278l0.512 0.515c10.224 15.433 26.584 25.207 44.478 25.207 27.096 0 40.9-22.635 40.9-67.904 0-40.125-15.338-63.274-41.923-63.274-15.848-0.514-30.674 7.716-43.455 23.663zM204.174 699.907c9.793-3.587 18.555-7.174 25.256-11.273V660.45c0-3.587 0-6.661-0.516-9.736l-0.515-9.736c4.638 0.513 7.216 1.025 8.246 0.513 1.031 0 4.124-0.513 8.762-0.513-0.515 4.612-0.515 7.687-1.03 10.249v29.72c11.339-8.71 20.1-16.91 26.286-25.108l6.185-8.712c1.546 2.05 3.092 3.587 4.638 5.125 1.031 1.024 4.639 3.074 9.278 6.149l-6.185 6.149c-0.516 0.512-3.093 3.074-8.247 7.686l-9.793 9.224c-4.123 3.587-11.339 9.223-22.162 16.397v26.646c0 1.537 1.03 2.562 1.546 3.075 1.03 0.512 5.67 1.025 14.431 1.025h14.432c3.092 0 5.154-0.513 6.7-1.538 1.546-1.025 2.577-3.074 3.093-5.636 0.515-2.562 1.03-4.612 1.03-6.662l0.516-7.174c4.123 3.587 6.7 5.637 8.247 6.662 1.546 1.025 4.638 2.05 8.762 3.587-3.093 8.71-5.155 14.86-6.185 17.422-1.547 3.075-4.124 5.124-8.247 6.15-4.123 1.024-18.04 1.536-41.233 1.024-6.185 0-10.824-1.025-13.4-2.05-2.578-1.537-4.124-3.074-4.64-5.636-0.515-2.05-1.03-4.1-1.03-5.637v-24.596l-20.101 11.785c-3.608-4.611-5.67-7.686-6.7-8.71l-5.67-4.613 8.246-3.074z m-12.81-62.625c0.518-2.614 0.518-4.705 0.518-5.75v-9.41h-12.945c-7.767 0-18.122 0.522-31.067 1.045 0.518-2.091 0.518-3.66 0.518-5.228v-3.137c0-0.522-0.518-3.66-0.518-8.364 12.945 0.523 23.818 1.046 31.585 1.046h12.427V593.89l-0.518-7.318c5.696 0.522 8.285 0.522 8.285 0.522h3.106l5.696-0.522c-0.518 3.136-0.518 5.75-0.518 7.841v13.592h33.139V592.845l-0.518-7.318c4.66 0.523 7.767 0.523 8.802 0.523 1.036 0 3.625 0 8.285-0.523-0.518 3.137-0.518 5.75-0.518 7.319v15.16h17.605c7.766 0 18.64-0.522 32.102-1.045-0.517 2.614-0.517 4.182-0.517 5.75v3.137c0 1.045 0 3.66 0.517 7.841-12.944-0.522-23.3-1.045-31.067-1.045h-18.64v7.842l0.518 6.273c-4.143-0.523-9.838-0.523-17.087 0 0.518-2.614 0.518-4.705 0.518-6.273v-8.365h-33.139v8.365l0.518 6.273c-4.66-0.523-7.249-0.523-8.285-0.523-1.035 0.523-4.142 0.523-8.802 1.046z m19.35 8.851l-4.698 5.207-7.309 7.289-4.698 5.207v71.852l1.044 12.496c-5.22-0.52-7.83-0.52-8.875-0.52-1.044 0-3.654 0-8.353 0.52 0.522-5.727 0.522-10.413 0.522-14.058 0-3.645 0.522-7.81 0.522-11.455v-43.736c-4.176 4.165-7.309 7.29-9.397 8.851l-9.92 8.852-5.22 4.686c-3.132-4.686-5.22-7.81-6.264-8.33l-5.743-5.208 7.83-4.686c10.442-6.248 19.317-13.016 26.104-20.826 6.787-7.81 12.007-14.058 15.14-18.744l4.176-6.248c4.177 1.562 8.875 5.206 15.14 8.851z m251.38 76.89c3.57-2.028 7.138-4.562 10.708-8.11l33.653 20.78c-2.55 1.52-4.08 2.534-5.1 3.547l-4.078 3.548-4.59 3.548-3.569-3.041c-3.059-3.041-7.138-6.082-12.747-10.136l-8.668-5.575-5.61-4.562z m-22.18-45.077h29.573v-11.09h-29.064l-0.51 11.09z m0.51-22.18h29.063v-11.09h-29.574l0.51 11.09z m-0.51 44.36h29.573v-12.938h-29.574v12.938z m-30.367 34.881c4.57-2.027 9.14-4.561 14.218-8.109 5.078-3.04 8.125-5.575 9.649-7.095l4.062-3.041c4.57 3.547 8.632 6.081 11.68 7.095l-5.587 3.548c-4.062 2.534-8.632 6.082-13.71 9.63-5.078 3.547-8.633 5.574-10.156 7.095l-5.586 4.054a19.305 19.305 0 0 0-2.539-3.04l-4.062-3.548-4.57-3.548 6.601-3.041z m-69.446 0.891l4.128-6.222c2.064-3.111 4.127-6.222 5.675-8.815 1.548-2.593 3.096-7.26 5.16-14.518 2.064-6.741 3.096-11.926 3.612-14 0.516-2.593 1.031-6.741 1.547-12.445 0.516-5.704 1.032-9.852 1.032-12.963 0-3.111 0.516-6.74 0.516-11.926l0.516-12.963 0.516-10.89h-2.58c-5.675 0-11.35 0.52-17.026 1.038 0-2.074 0.516-3.111 0.516-4.148v-2.593c0-1.037 0-3.11-1.032-6.74 5.675 0.518 11.35 1.036 17.542 1.036h16.511l-1.548-3.63-3.612-7.777c-1.031-1.556-2.58-4.148-4.643-7.778l-4.128-6.222c6.192-2.074 10.835-4.667 13.931-6.74l14.963 26.444c-4.128 1.555-8.771 3.11-12.9 5.185h8.772c4.644 0 9.803-0.519 15.479-1.037-0.516 3.63-1.032 6.222-0.516 6.74v4.149c2.064-2.593 3.612-4.667 4.128-5.704s2.58-4.148 5.16-8.815c2.579-4.666 4.643-8.296 5.675-9.852 1.032-2.074 3.095-6.74 5.675-14.518l1.548-4.667a77.29 77.29 0 0 0 15.479 5.185l-3.096 5.185-2.58 4.149-2.58 5.185h48.5c7.74 0 15.995-0.519 25.282-1.037-0.515 2.074-0.515 3.111-0.515 4.148v5.185l0.515 4.667c-9.287-0.519-18.058-1.037-25.797-1.037H425.75l-10.32 17.111c3.097 0.519 6.708 1.037 9.804 1.037h1.548v-8.296l-0.516-4.148c4.128 0.518 6.191 1.037 7.223 0.518 1.032 0 3.612-0.518 7.74-0.518-0.516 5.703-1.032 9.333-1.032 10.37v2.593h29.41v-4.667c0-0.519 0-1.556-0.517-4.148l-0.515-5.185c5.675 1.037 10.835 1.037 14.962 0-0.516 2.592-0.516 4.666-1.032 6.222v7.778h6.708c3.612 0 8.255-0.519 12.899-1.037-0.516 1.555-0.516 3.11-0.516 3.63v2.073c0 0.519 0.516 2.593 1.032 6.223-5.16-0.519-9.288-1.037-13.415-1.037h-6.192v54.444h6.708c5.675 0 11.867 0 18.058-1.037-0.516 1.556-0.516 3.111-0.516 4.148v2.074c0 0.519 0.516 2.593 1.032 6.741-6.707-0.518-12.899-1.037-18.058-1.037H428.33c-5.676 0-11.867 0.519-18.059 1.037 0-2.074 0.516-3.63 0.516-4.666v-2.593c0-0.519 0-3.111-0.516-6.222 5.676 0.518 11.351 1.037 16.511 1.037h0.516v-54.445h-1.032c-3.612 0-7.223 0-10.835 1.037 0-1.556 0.516-3.111 0.516-4.148v-2.074c0-0.519-0.516-2.593-0.516-6.222-1.548 1.555-2.064 3.11-2.58 4.148l-4.128 6.74-2.063 3.112c-5.676-3.63-10.32-5.704-14.447-7.26l3.096-3.11 4.127-3.63 1.548-2.075c-4.644-0.518-9.287-1.037-13.415-1.037h-9.803l-0.516 21.778h15.479c4.127 0 9.287 0 15.478-0.518 0 3.63-0.515 6.74-0.515 8.296l-0.516 8.296-1.548 40.445c-0.516 3.63-0.516 6.74-1.032 10.37-0.516 3.63-1.032 6.223-2.58 8.815-1.548 2.074-3.612 4.149-6.707 5.704-3.096 1.037-9.288 2.074-17.543 3.111-0.516-1.555-1.032-3.11-1.032-4.666 0-1.556-0.516-2.593-0.516-3.112 0-0.518-1.548-3.63-4.128-9.333 5.16 1.037 8.772 1.556 11.867 1.556 4.128 0 6.708-1.556 7.224-4.667 0.516-3.111 0.516-6.74 1.032-10.889l2.064-41.482H377.25c-0.516 4.148-1.032 8.297-1.032 11.926-0.516 3.63-0.516 6.741-1.032 8.297 0 1.555-0.516 5.185-1.548 9.852l-3.095 14c-1.032 4.666-2.58 9.851-5.16 16.074-2.064 5.703-4.644 10.889-6.191 14l-2.064 4.148c-1.548-1.037-2.58-1.556-3.612-2.074l-4.128-2.593c-2.064 0.519-4.643-0.518-9.287-2.074z m293.892-81.981h42.512V639.13h-42.512v14.787z m0-25.877h42.512v-16.636h-42.512v16.636z m0.32-29.881h42.337c5.68 0 10.842-0.514 16.005-1.028-0.516 4.11-0.516 7.193-1.032 9.248v54.462l0.516 8.22c-5.68-0.514-10.842-1.027-16.005-1.027h-17.555c0.517 1.54 0.517 3.082 0.517 4.11 0.516 1.027 1.032 3.596 2.065 7.707 1.032 4.11 2.581 7.193 3.614 10.275a305.55 305.55 0 0 0 11.359-10.79c2.065-2.054 4.646-5.137 7.228-9.247 2.581 3.596 7.228 7.193 13.424 10.79l-9.294 6.165c-5.679 3.596-11.358 8.22-17.554 13.872 8.26 11.303 19.62 20.037 33.044 25.175l3.097 1.028c-4.646 3.083-7.744 5.652-9.81 7.193-1.548 1.541-3.614 4.624-5.162 8.22l-2.582-2.055c-4.13-3.082-8.777-7.193-13.94-12.33-5.163-5.138-9.81-10.276-13.94-15.928-4.131-5.652-7.745-12.845-10.327-22.093-2.581-9.248-4.646-16.44-5.679-22.606h-9.81v55.489l8.261-5.138 5.68-4.11 7.744-5.652c0.516 5.651 1.549 9.248 2.582 11.303l1.548 3.597-7.744 4.11c-9.81 5.138-18.07 11.303-25.815 17.982l-3.098 3.083c-2.582-5.138-5.163-8.22-6.712-9.248l-3.614-2.569c2.581-2.569 4.13-4.11 4.646-5.652 0.517-1.541 1.033-3.596 1.55-7.193V606.38l-0.517-9.762c5.163 1.542 10.326 1.542 14.973 1.542z m-92.739 39.739l4.683-4.108c2.08-2.054 5.202-5.134 8.844-9.242 3.642-4.107 7.284-10.268 10.406-17.97 3.122-7.702 4.683-12.836 5.203-15.403l1.56-5.648c1.562 1.54 3.643 3.594 5.724 4.621 2.081 1.54 5.723 2.567 10.926 3.08l-4.162 7.189-2.602 4.62-4.682 8.216h18.73c1.56 0 6.243-0.514 14.047-1.027-0.52 2.054-0.52 3.594-0.52 5.134v3.08c0 1.028 0.52 3.081 1.04 7.189-7.283-0.513-11.966-1.027-14.047-1.027H570.71l-9.886 13.863 10.926 1.027h22.893c1.56 0 5.723 0 11.966-1.027 0 2.054-0.52 3.594-0.52 5.134v5.135l0.52 4.62c-3.642-0.513-7.284-0.513-11.966-1.026h-8.845v17.457h14.048c3.642 0 7.804 0 11.966-1.027 0 2.053-0.52 4.107-0.52 5.134v2.567c0 0.514 0 3.08 0.52 7.702-4.162-0.514-8.324-1.027-11.966-1.027h-14.048v30.806l8.845-6.161c2.081-1.54 6.243-5.134 12.487-10.782 0.52 2.567 0.52 5.134 1.04 7.188 0.52 2.054 1.561 4.62 3.122 7.188l-10.926 7.188-10.926 7.702c-2.601 2.053-5.723 4.62-8.845 7.701l-7.284 6.675c-0.52-2.054-1.56-4.108-2.601-5.648-1.04-2.054-3.642-4.62-7.284-8.215 3.642-2.054 6.243-4.107 7.284-6.161 1.04-2.054 1.04-5.648 1.04-10.782v-26.699h-11.446c-3.121 0-6.243 0.513-10.405 1.027 0-2.054 0.52-4.108 0.52-5.135v-3.08c0-1.027 0-3.08-0.52-7.702 3.642 0.514 6.763 1.027 9.885 1.027h11.446v-17.97h-7.284l-6.243 0.513c0.52-3.594 0.52-6.161 0.52-8.215v-4.62l-8.845 12.322c-0.52-2.567-1.56-5.135-2.601-7.188 0-2.054-2.081-4.621-5.203-8.215z m349.343-39.432c-0.523 3.639-1.045 6.238-1.045 8.317v3.12l1.045 5.198c-8.362-1.04-15.157-1.56-20.383-1.56h-34.495c-5.749 0-13.066 0.52-20.905 1.56 0-2.08 0.522-4.159 0.522-5.718v-5.199l-0.522-5.198c8.885 1.04 15.679 1.04 20.905 1.04h34.495c4.704 0 11.498-0.52 20.383-1.56z m-65.286 47.236h51.398c6.168 0 13.878-0.513 23.13-1.027-0.514 2.567-0.514 4.108-0.514 5.134v3.081c0 0.514 0.514 3.594 0.514 8.215-13.364-1.027-21.588-1.54-23.13-1.54h-9.251v66.747c0 6.16-0.514 9.755-1.542 12.322-1.028 2.054-3.084 3.594-6.168 4.621-3.084 1.027-10.794 2.054-23.644 3.08 0-2.053-0.514-4.62-1.027-6.674-0.514-2.054-2.57-6.161-5.654-12.322 7.71 1.54 12.85 2.053 15.933 2.053 3.084 0 5.14-0.513 5.654-2.053 0.514-1.54 1.028-4.621 1.028-8.729v-58.532h-26.727c-0.514 0-7.71 0.514-21.588 1.54 0-2.053 0.514-3.594 0.514-4.62v-6.162l-0.514-5.647c9.766 0 16.962 0.513 21.588 0.513z m-88.13-14.448l4.13-2.582c5.679-3.613 12.39-8.775 19.617-16.002 7.227-7.227 12.905-14.454 17.035-20.649l3.097-4.646c4.13 4.13 8.776 7.744 13.421 11.357l-5.162 4.646c-2.065 2.065-6.71 7.227-14.97 15.486-7.743 8.26-16.002 16.003-24.262 23.746l-2.065 2.065c-1.548-2.581-2.58-4.13-3.613-5.678-1.033-2.065-3.614-4.646-7.227-7.743z m0 50.225l3.081-2.06c8.215-6.176 16.43-13.897 24.645-23.677s14.89-18.53 20.538-27.281l2.567-4.118c3.594 3.088 8.215 7.206 13.863 11.324l-8.215 9.265-7.188 7.722-5.135 6.176v63.313c0 4.633 0 8.236 0.514 10.81l1.027 13.383c-7.188-0.515-12.836-0.515-17.457 0 0.513-6.177 0.513-10.81 1.027-14.413 0-3.603 0.513-7.206 0.513-9.78v-46.841c-3.08 3.603-5.648 6.177-7.188 7.721l-8.215 8.75-2.054 2.574c-4.107-5.662-7.701-9.78-12.322-12.868z" fill="#022E72"/>
  <path d="M396.102 340.565C366.482 299.396 317.456 275 267.409 275c-50.048 0-99.073 24.396-128.693 65.565l-1.532 2.033h37.28l0.51-0.509c25.535-25.412 58.219-39.135 92.435-39.135s67.41 13.723 92.434 39.135l0.51 0.509h37.28l-1.531-2.033z" fill="#E50012"/>
</svg>
