<svg viewBox="0 0 1024 1024" version="1.1" xmlns="http://www.w3.org/2000/svg" height="1em" width="1em">
  <path d="M0 0m224 0l576 0q224 0 224 224l0 576q0 224-224 224l-576 0q-224 0-224-224l0-576q0-224 224-224Z" fill="#FFFFFF"/>
  <path d="M631.332 485.848c-55.584 0-99.716 42.496-99.716 42.496 36.612-82.552 112.788-76.824 112.788-76.824h202.236a338.456 338.456 0 0 0-9.508-39.228h-205.8c-55.584 0-99.716 42.496-99.716 42.496 37.224-82.86 112.788-76.828 112.788-76.828h180.136C772.528 256.84 652.18 172 512 172c-187.776 0-340 152.22-340 340s152.224 340 340 340 340-152.22 340-340c0-8.8-0.332-17.52-0.988-26.152h-219.68zM512.196 232c89.136 0 168.548 41.604 219.872 106.432h-101.9c-43.608 0-84.188 33.1-99.772 47.484H384.388v253.8h253.98v-112.98H792C784.332 674.524 661.992 792 512.196 792 357.448 792 232 666.64 232 512s125.448-280 280.196-280zM604 528v76h-72c17.496-49.56 48.108-68.78 72-76z m-108-108v184h-76v-184h76z" fill="#E50113"/>
</svg>
