<svg viewBox="0 0 1024 1024" version="1.1" xmlns="http://www.w3.org/2000/svg" height="1em" width="1em">
  <path d="M286.33 547.766c3.697 0.016 7.382 0.45 10.983 1.294v8.121c-3.891-1.015-6.673-1.56-10.915-1.623-7.98 0-14.927 3.401-14.927 12.2 0 8.818 7.286 12.941 16.24 12.941 3.49 0 6.755-0.463 9.602-1v7.792c-3.346 0.644-7.192 1.068-10.744 1.068-15.788 0-25.21-7.836-25.21-20.202 0-13.313 10.21-20.695 24.97-20.59z m78.05 0.69v39.412l-0.002-0.003H354.7v-39.409h9.68z m82.68 0l17.577 39.412h-10.611l-3.257-7.795h-17.676l-2.972 7.795h-10.426l15.94-39.412h11.425z m177.599-0.691c3.72 0 9.638 0.71 13.816 2.21v7.61c-5.406-2.27-9.596-2.66-12.94-2.66-3.548 0-5.825 1.27-5.825 3.215 0 5.895 20.55 4.24 20.55 17.866 0 7.5-6.743 11.862-15.601 11.862-5.445 0-11.387-1.135-15.514-2.63v-8.552a30.476 30.476 0 0 0 14.764 4.016c3.786 0 6.162-1.327 6.162-3.614 0-6.413-20.55-4.344-20.55-18.094 0-6.758 5.936-11.229 15.138-11.229z m-94.336 0.691v39.412h-9.778V563.25l-10.564 12.363h-1.503l-10.56-12.363v24.617h-9.772v-39.409h8.503l12.576 14.622 12.586-14.622v-0.003h8.512z m465.365 0v17.854h0.118l12.302-17.854h10.685l-12.692 18.49 17.208 20.922h-12.164l-15.457-18.495v18.495h-9.716v-39.412h9.716z m-81.905 0l17.566 39.412h-10.61l-3.256-7.795h-17.695l-2.946 7.795h-10.436l15.941-39.412h11.436z m-109.419-0.691c5.892 0 11.61 1.313 15.552 3.21v8.533c-5.033-2.4-9.89-3.61-14.735-3.61-10.695 0-14.44 6.534-14.44 12.323 0 6.928 5.477 11.522 13.626 11.522 2.418 0 3.635-0.236 6.515-1.39v-4.58h-5.701v-7.154h15.54v15.98c-2.952 3.034-10.227 5.269-16.578 5.269-13.763 0-23.524-8.308-23.524-19.993 0-11.92 9.71-20.11 23.745-20.11z m62.645 0.691c9.234 0 12.963 5.477 12.963 9.874 0 3.305-2.066 6.258-5.339 7.87 5.567 1.449 8.316 5.485 8.316 10.106 0 4.519-2.403 11.562-13.803 11.562h-19.385v-39.409h17.248v-0.003z m-552.236 0V564.3h19.704v-15.844h9.853v39.409h-9.85v-15.942h-19.707v15.942h-9.855v-39.409h9.855z m429.123 0l20.772 24.1v-24.1h9.728v39.409h-8.187l-21.512-25.256v25.256h-9.713v-39.409h8.912z m-18.293 0v7.24h-18.839v8.255h17.966v7.217h-17.966v9.485h19.232v7.212h-29.04v-39.409h28.647z m-67.198 0V564.3h19.705v-15.844h9.858v39.409h-9.858v-15.942h-19.705v15.942h-9.849v-39.409h9.849z m-88.064 0l20.792 24.1v-24.1h9.715v39.409h-8.17l-21.53-25.256v25.256h-9.711v-39.409h8.904z m-185.998 0l20.808 24.1v-24.1h9.704v39.409h-8.169l-21.533-25.256v25.256h-9.71v-39.409h8.9z m166.722 0v39.409h-9.68v-39.409h9.68z m394.037 0l20.792 24.098v-24.098h9.706v39.406h-8.164L945.9 562.608v25.254h-9.712v-39.406h8.913z m-78.488 22.817h-7.173v8.989h5.84c5.403 0 7.297-1.4 7.297-4.696 0-2.789-2.517-4.293-5.964-4.293z m41.293-13.133l-5.598 15.208h11.754l-6.156-15.208z m-466.713-0.695l-5.596 15.211h11.754l-6.158-15.211z m423.652-1.383h-5.405v8.297h5.408c3.53 0 4.963-2.172 4.963-4.211 0-1.982-1.436-4.086-4.966-4.086zM617.829 437.828v25.321c0 2.597-1.5 10.165-10.314 10.165h-27.349c1.242 2.19 3.422 6.029 5.96 10.424h40.428v7.23c0 2.335-1.4 5.255-5.32 5.255H593.45a308.56 308.56 0 0 0 4.528 7.388c7.759 12.615 34.676 12.449 34.676 12.449s-5.266 7.161-6.902 9.26c-1.51 1.702-4.727 5.533-12.92 3.942-7.646-1.838-18.944-6.255-24.856-16.893-2.869-5.16-5.97-10.78-8.936-16.146h-45.184v19.629l28.293-7.988v5.713c0.05 7.711-4.927 9.734-4.927 9.734l-26.577 7.31v-0.096c-0.862 0.42-1.808 0.64-2.767 0.646a6.539 6.539 0 0 1-6.535-6.433h-0.009v-86.91h96.495z m271.203-0.784v40.267c0 2.6-1.511 10.213-10.346 10.213h-22.944c1.12 1.826 4.354 6.786 9.394 12.251l25.04-9.322v7.852c0 5.014-3.665 6.643-3.665 6.643l-10.918 4.3c6.603 4.864 14.655 8.868 23.95 9.863l-0.015 0.02c-0.26 0.324-3.704 4.607-7.143 8.448-5.13 4.465-9.373 2.872-12.669 1.172-20.05-10.285-33.054-36.47-35.295-41.227h-9.405v26.642l15.291-4.966v5.749c0 7.9-4.911 9.598-4.911 9.598l-13.604 4.09v-0.086a6.597 6.597 0 0 1-2.779 0.636 6.549 6.549 0 0 1-6.56-6.55c0-0.182 0.047-0.35 0.065-0.532h-0.066V445.71h0.012c0.024-3.615 0.55-8.665 7.93-8.665h58.638z m134.968 27.6s-0.836 4.318-1.34 7.565c-0.496 2.812-1.615 6.212-7.781 6.212h-9.68l-0.036 41.175c0 2.585-1.46 10.192-10.3 10.192h-17.138c-6.158 0-7.295-3.4-7.782-6.203-0.498-3.256-1.358-7.574-1.358-7.574 1.433 0.814 5.352 1.268 9.149 1.268l14.935 0.026v-38.884h-37.697c-3.937 0-5.334-2.944-5.334-5.287v-7.24l65.232 0.008c3.79 0 7.724-0.456 9.13-1.258z m-76.762-3.79a60.278 60.278 0 0 1-8.724 13.827v49.748c0 3.946-2.486 5.046-4.441 5.046h-8.22V485.75a52.895 52.895 0 0 1-3.322 1.933c-5.477 2.686-9.384 0.086-10.775-1.1-1.409-1.182-7.372-6.224-7.372-6.224 20.054-5.684 30.047-19.505 30.047-19.505h12.807zM797.88 435.063a60.297 60.297 0 0 1-2.596 8.728h21.27v10.984h-27.03a45.06 45.06 0 0 1-5.576 6.684 9.78 9.78 0 0 1-1.437 1.16h34.043v10.99h-17.057v9.732h17.054v11h-17.054v19.974l16.074-5.534v5.298c0.015 7.754-4.963 9.79-4.963 9.79l-14.314 4.968v-0.009a6.453 6.453 0 0 1-2.794 0.646 6.559 6.559 0 0 1-6.546-6.538h-0.006V494.34h-8.623c-3.914 0-4.41-2.88-4.43-4.105v-6.894h13.056v-9.732h-4.29c-3.27 0-3.434-2.832-3.442-3.115v-6.408c-2.803 0.627-5.588-0.108-7.312-1.488l-7.191-6.541c14.222-6.995 21.225-20.994 21.225-20.994h11.94z m-482.445-0.692c1.962 0 4.425 1.094 4.425 5.036v7.324h47.978l-0.042 49.847c0 2.586-1.457 10.154-10.262 10.154H319.86v17.323c0 3.942-2.463 5.042-4.425 5.042h-9.18v-22.365h-36.673c-8.808 0-10.262-7.568-10.262-10.154l-0.036-49.847h46.97v-12.36h9.18z m181.7 3.457l-0.036 81.059c0 2.598-1.465 10.21-10.326 10.21h-98.192v-91.269h108.553z m206.862-3.457c1.967 0 4.451 1.094 4.451 5.057v9.523H750.5v7.265c0 2.346-1.397 5.287-5.344 5.287h-36.708v19.299h40.717v7.269c0 2.349-1.403 5.29-5.329 5.29h-35.388v21.782h36.343v0.03h6.637c3.798 0 7.724-0.466 9.14-1.276 0 0-0.837 4.333-1.33 7.591-0.498 2.827-1.635 6.226-7.792 6.226H648.993c-3.935 0-5.332-2.941-5.332-5.281v-7.287h52.122v-21.782h-34.522c-3.938 0-5.347-2.941-5.347-5.29v-7.27h39.87V461.51h-31.952a44.553 44.553 0 0 1-4.55 5.087c-4.03 3.862-11.187 1.946-14.776-1.213l-4.938-4.334c14.223-6.994 21.84-21.615 21.84-21.615h12.39a62.964 62.964 0 0 1-2.9 9.523h24.885V434.37h8.214z m-219.412 15.994h-83.44v66.186h83.44v-66.186z m-8.837 7.594v6.335c0 0.925-0.137 3.356-3.912 3.356h-21.344v10.397h22.6v6.35c0 0.92-0.153 3.347-3.916 3.347h-18.684v12.438h10.218l-2.167-7.045h8.147s2.827 0.161 3.658 2.813l1.32 4.235h1.122c2.875 0 5.842-0.352 6.918-0.963 0 0-0.637 3.257-1.004 5.72-0.389 2.136-1.246 4.695-5.906 4.695h-61.98v-0.006c-3.257 0-4.142-1.909-4.142-3.898v-5.557h31.27v-12.438h-21.401c-3.675 0-3.906-2.316-3.915-3.28v-6.41h25.316V467.65h-24.07c-3.67 0-3.892-2.317-3.9-3.289v-6.402h65.772z m-121.414 1.262h-34.472v35.033h34.475l-0.003-35.033z m-48.08 0h-33.472v35.033h33.473V459.22z m260.133 14.093h-32.531v10.424h38.28c-2.529-4.592-4.57-8.303-5.749-10.424z m310.094-4.854h-41.465v8.071h41.465v-8.07z m70.76-33.397c-6.697 14.722-16.992 22.585-23.77 26.42-6.349 3.152-9.706 0.504-10.79-0.268-0.898-0.8-7.596-6.635-7.596-6.635 19.726-5.68 29.567-19.517 29.567-19.517h12.59z m-341.924 15.262h-71.461v10.505h71.46v-10.505z m271.164-2.297h-41.465v9.436h41.465v-9.436z m140.785-7.69v7.243c0 2.344-1.396 5.278-5.333 5.278h-49.684c-3.94 0-5.343-2.934-5.343-5.278v-7.243h60.36zM112.086 455.113l54.525 24.536-29.013 13.33c49.628 6.266 86.571 26.678 86.571 52.257 0 30.589-50.276 55.456-112.086 55.456C50.265 600.692 0 575.825 0 545.239v-0.953h37.913v0.953c0 22.662 33.273 41.093 74.173 41.093 40.91 0 74.167-18.43 74.167-41.093 0-22.659-33.258-41.086-74.167-41.086l-0.393-0.096-54.146-24.408 54.54-24.536z m0.003 14.536l-22.192 10 22.19 9.993 22.19-9.993-22.188-10z" fill="#006CA9"/>
  <path d="M112.09 535.04l22.197 9.994-22.2 9.991-22.193-9.991 22.192-9.995h0.003z m0-111.04C50.281 424 0 448.867 0 479.456c0 25.56 36.947 45.991 86.578 52.267l-29.034 13.31 54.542 24.52 54.525-24.52-54.132-24.416-0.393-0.096c-40.9 0-74.164-18.427-74.164-41.068 0-22.653 33.264-41.108 74.164-41.108 40.91 0 74.167 18.455 74.167 41.108v0.935h37.925v-0.935c0-30.586-50.282-55.453-112.092-55.453h0.003z" fill="#00965A"/>
</svg>
