<svg viewBox="0 0 1024 1024" xmlns="http://www.w3.org/2000/svg" height="1em" width="1em">
  <path d="M224 0h576c123.6 0 224 100.4 224 224v576c0 123.6-100.4 224-224 224H224C100.4 1024 0 923.6 0 800V224C0 100.4 100.4 0 224 0z" fill="#FFF"/>
  <path d="m394 360-8.4.4-8.4.4-8 1.2-8 1.6-8 1.6-7.6 2-7.6 2.4-7.2 2.8-6.8 2.8-6.8 3.6-6.8 4-6.8 4-6.4 4.4-6.4 4.8-6 4.8-5.6 5.2-5.2 5.2-5.2 6-5.2 5.6-4.8 6.4-4.4 6.4-4 6.4-4 6.8-3.6 7.2-3.2 7.2-2.8 7.2-2.4 7.6-2.4 7.6-2 7.6-1.6 8-1.2 8-.8 8.4-5.6 5.2-5.2 5.6-5.2 6-4.8 6.4-4.4 6.4-4 6.8-3.6 6.8-4 7.2-3.2 7.2-2.4 7.6-2.4 7.6-2 8-1.2 8-1.2 8-.8 8-.4 9.2.4 6.8.4 6.4.8 6.8.8 6.4 1.2 6.4 1.6 6.4 2 6.4 2 6 2 6 2.4 5.6 2.8 6 2.8 5.6 3.2 5.6 3.6 5.2 3.6 5.2 3.6 4.8 4 4.8 4 4.8 4.4 4.4 4.8 4.4 4.4 4 5.2 4 5.2 3.6 5.2 3.6 5.6 3.2 5.6 3.2 5.6 2.8 5.6 2.4 6 2.4 6 2 6 2 6.4 1.6 4 4 4 4 4.4 4 4 3.6 4.4 3.6 4.4 3.6 4.8 3.6 4.8 3.6 4.8 3.2 4.8 3.2 4.8 3.2 5.2 3.2 5.2 2.8 5.2 2.4 5.2 2.4 5.2 2.4 5.6 2.4 5.2 2 5.6 2 5.6 2 5.6 1.6 5.6 1.6 5.6 1.2 5.6 1.6 5.6 1.2 6 .8 6 .8 6 .8 6 .8 6 .4 6.4.4 6 .4 9.2-.4 9.2-.8 9.2-.8 8.8-1.2 9.2-1.6 8.8-2 8.4-2.4 8.8-2.4 8.4-3.2 8.4-3.2 8-3.6 8-4 8-4 7.6-4.4 7.2-4.8 7.2-4.8-4.4.4-4.4.4-4.4.4h-10l-5.6-.4-5.6-.4-5.6-.4-5.6-.4-5.6-.8-5.2-.8-5.6-.8-5.2-.8-5.2-1.2-5.2-1.6-5.2-1.6-5.2-1.6-5.2-1.6-5.2-2-5.2-2-4.8-2-5.2-2-4.8-2-4.8-2.4-4.4-2.4-4.8-2.4-4.4-2.4-4.8-2.4-4.4-2.8-4.4-3.2-4.4-2.8-4.4-2.8-8.4-6.4-8-6.8-1.2-1.2-1.6-1.2-.8-.4-.4-.8-1.6-1.2-1.6-1.6-.4-.4-.8-.4-1.6-1.6-1.6-1.6-.4-.4-.4-.4-2-2-1.6-1.6-.4-.4-.4-.4-1.6-2-2-2-.4-.4v-.4l-2-2-1.6-2-.4-.4-2-2.4-2-2-2-2.4-2-2.4h-.4v-.4l-2-2.4-2-2.4-2-2.4-1.6-2.4-1.6-2-1.6-2.4v-.4l-1.6-2-1.6-2.4-.4-.4-.4-.4v-.4l-.4-.4-1.2-2-1.2-2-.4-.4-1.6-2.4-1.6-2.4v-.4l-.4-.4-1.2-2.4-1.2-2.4-.4-.4-.4-.4-1.2-2-1.2-2-.4-.8-.4-.8-.8-2-.8-2-.4-.8 3.6 1.2-.8-2-.8-1.6-.4-1.2-.4-.8-.8-1.6-.8-1.6-.4-1.2-.4-1.2-.8-1.6-.8-1.6-.4-1.2-.4-1.2-.8-1.2-.4-1.6-.8-1.6-.4-1.6-.4-1.2-.4-1.2-.4-1.6-.8-1.6-.4-1.2-.4-1.2-.8-2-.4-2-.4-.8-.4-.8-.8-2-.4-2-.4-.8-.4-.8-.8-2-.4-2-.4-.8-.4-.8-.4-2.4-.4-2v-.4h-.4v-1.2l-.4-.4-.4-2.4-.4-2.4-.4-.4v-.8l-.4-2.4-.4-2.4-.4-.4v-.8l-.4-2.4-.4-2.4V600l-.4-2.8-.4-2.4v-1.2l-.4-2.8v-3.6l-.4-2.8-.4-2.8v-.8l-.4-3.2-.4-2.8v-.4 1.6l-.4-3.2v-13.2.4-6l.4-.4v-4l.4-1.6v-2.4l.4-.8v-1.2.4-.8l.4-.8v-1.6l.4-.8v-3.2l.4-.8v-1.6l.4-.4v-2.4h.4v-1.2l.4-.8v-.8l.4-.8v-1.2l.4-.8v-.8l.4-.8.4-.8v-.8l.4-.8.4-.8V520l.4-1.2.4-1.2.4-.4v-.4l.4-1.6.4-1.6v-.8l2-8.4 2.4-8 2.4-8 2.8-8 3.2-8.4 3.6-8.4 4-8.4 4-8 4.4-8 4.8-8 5.2-7.6 3.6-7.6 5.6-7.2 6-6.8 6-6.8 6.4-6.4 6.8-6.4 6.8-6 7.2-6 7.2-5.6-5.6-.8-5.2-.8-5.2-1.2-5.2-.8-5.2-.8-5.2-.4H394zm-58 182-.8 28 .8-28z" fill="#009F40"/>
  <path d="m582 460 118 118-118 118-118-118z" fill="#1F2A8C"/>
  <path d="m698.8 256 5.2.4 4.8.4 5.2.4 4.8.8 4.8 1.2 4.8 1.2 4.8 1.6 4.4 1.6 4.4 2.4 4.4 2 4.4 2.4 4 2.4 4 2.8 3.6 2.8 3.6 3.2 4 3.6 3.2 3.2 3.2 3.6 3.2 3.6 2.8 4 2.8 4 2.4 4 2 4.4 2.4 4.4 1.6 4.4 2 4.8 1.6 4.4 1.2 4.8.8 4.8.8 5.2.8 4.8v5.2l5.6 4.8 5.6 5.2 5.2 5.2 4.8 6 4.4 6 4.4 6 4 6.8 3.2 6.4 3.2 7.2 2.8 6.8 2.4 7.2 2 7.6 1.6 7.6 1.2 7.6.4 8 .4 8-.4 8-.4 8-1.2 7.6-1.6 7.6-2 7.6-2.4 7.2-2.8 7.2-3.2 6.8-3.6 6.8-4 6.4-4 6.4-4.8 6-4.8 5.6-5.2 5.6-5.6 5.2-5.6 4.8-1.2-10.8-1.2-10.8-2-10.4-2.4-10.4-2.8-10.4-3.2-9.6-4-10-4-9.6-4.8-8.8-5.2-9.2-5.2-8.8-6-8.8-6.4-8-6.4-7.6-7.2-8-7.2-7.2-7.6-6.8-8-6.4-8.4-6.4-8.4-5.6-8.8-5.6-9.2-4.8-9.2-4.8-9.6-4-9.6-4-10-3.2-10.4-2.8-10-2-10.8-2-10.4-1.2-11.2-.8-10.8-.4h-9.6l-9.2.8-9.2.8-9.2 1.6-9.2 1.6-8.8 2-8.8 2.8-8.4 2.4-8.4 3.2-8.4 3.2-8 4-8 4-7.6 4.4-7.6 4.8-7.2 4.8-7.2 5.2 1.2-6.8 1.2-6.8 2-6.8 2-6.4 2.4-6.4 2.8-6.4 2.8-6 2.8-6 3.6-6 3.6-5.6 4-5.6 4-5.2 4.4-5.2 4.8-4.8 4.4-4.8 5.2-4.8 4.8-4 5.6-4.4 5.6-3.6 5.6-3.6 6-3.6 6-3.2 6-2.8 6.4-2.4 6.4-2.4 6.8-2 6.8-1.6 6.8-1.6 6.8-1.2 6.8-.8 7.2-.4H606l5.2.4 4.8.8 4.8.8 4.8.8 4.8 1.2 4.8 1.2 3.2-2.8 3.6-2.4 3.6-2.4 3.6-2 3.6-2 4-1.6 3.6-1.6 4-1.6 4-1.2 4.4-1.2 4-1.2 4.4-.8 4-.8 4.4-.4h4.8z" fill="#E4201F"/>
  <path d="m392 172-4.4.4h-5.2l-4.8.8-5.2.8-4.8 1.2-4.8 1.6-4.8 1.6-4.4 1.6-4.4 2-4.4 2.4-4.4 2.4-4 2.4-4 2.8-4 3.2-3.6 3.2-3.2 3.6-3.6 3.2-3.2 3.6-3.2 4-2.8 4-2.4 4-2.4 4.4-2 4.4-2.4 4.4-1.6 4.4-1.6 4.8-1.6 4.8-1.2 4.8-.8 5.2-.4 5.2-.4 4.8-.4 5.2v2l-4 2-4 2-4 2-4 2.4-3.6 2.8-4 2.4-3.2 2.8-3.6 2.8-3.6 2.8-3.2 3.2-3.2 3.2-2.8 3.6-3.2 3.2-2.8 3.6-2.8 3.6-2.4 3.6-2.4 4-2.4 3.6-2 4-2 4.4-2 4-2 4.4-1.6 4-1.2 4.4-1.2 4.8-1.2 4-.8 4.8-1.2 4.8-.4 4.4-.4 4.8-.4 4.8v5.2l.4 6 .4 6.4.4 6.4 1.2 6 1.6 6 1.6 6 1.6 5.6 2.4 6 6.4-10.4 6.4-9.6 6.8-10 7.2-9.2 7.6-9.2 7.6-9.2 8-8.8 8-8.4 8.4-8.4 8.8-8 9.2-7.6 9.2-7.2 9.6-7.2 9.6-6.8 10-6.4 10-6.4 10.4-6 10.8-5.2 10.4-5.6 11.2-4.8 11.2-4.4 11.2-4 11.6-4 11.6-3.2 11.6-3.2 12-2.4 12-2.4 12.4-2 12-1.6 12.8-.8 12.4-.8h20.8l8 .4 8 .4 8 .4 7.6.8 8 1.2 7.6.8 8 1.2-1.2-3.6-1.2-4-1.6-4-1.6-3.6-2-3.6-2-3.6-2-3.6-2.4-3.2-2-3.2-2.8-3.2-2.4-3.2-2.8-2.8-2.8-3.2-2.8-2.8-3.2-2.4-3.2-2.4-3.2-2.4-3.2-2.4-3.6-2-3.2-2-4-2-3.6-1.6-3.6-1.6-4-1.6-4-1.2-3.6-.8-4-1.2-4.4-.8-4-.8-4-.4h-15.2l-6.4.4-6 1.2-6.4 1.6-5.6 1.6-6 2-5.6 2.4-5.2 2.8-3.6-3.2-3.6-3.2-3.6-2.8-4-2.8-4.4-2.8-4-2.4-4.4-2-4.4-2-4.4-1.6-4.4-1.6-4.8-1.6-5.2-.8-4.8-.8-4.8-.8H398l-4.8-.4z" fill="#F7C700"/>
</svg>
