<svg viewBox="0 0 1024 1024" version="1.1" xmlns="http://www.w3.org/2000/svg" height="1em" width="1em">
  <path d="M224 0h576c123.6 0 224 100.4 224 224v576c0 123.6-100.4 224-224 224H224c-123.6 0-224-100.4-224-224V224C0 100.4 100.4 0 224 0z" fill="#FFFFFF"/>
  <path d="M520 832H380l70-120 70 120z m280 0h-140l70-120 70 120zM192 192h640v359.6l-76.8-133.2c-4.8-8.8-14-13.6-23.2-13.6s-18 4.8-23.2 13.6l-100 173.2c-7.2 12.8-2.8 29.2 9.6 36.4 12.8 7.2 29.2 3.2 36.4-10l76.8-133.2 76.8 133.2c4.8 8.4 14 13.6 23.2 13.6v146.8l-76.8-133.2c-4.8-8.8-14-13.2-23.2-13.2s-18 4.8-23.2 13.2l-100 173.2c-2.4 4.4-3.6 8.8-3.6 13.2h-26.8c0-4.4-1.2-9.2-3.6-13.2l-100-173.2c-4.8-8.8-14-13.2-23.2-13.2s-18 4.8-23.2 13.2l-100 173.2c-2.4 4.4-3.6 8.8-3.6 13.2H192V192z m258 292.8l76.4 134c7.2 12.8 23.6 17.2 36.4 10 12.8-7.6 17.2-24 9.6-36.8l-99.6-174.4c-4.8-8.8-14-13.6-23.2-13.6s-18 4.8-22.8 13.6L327.2 592c-7.2 12.8-3.2 29.2 9.6 36.8 12.8 7.6 28.8 3.2 36.4-10l76.8-134z" fill="#F4A21C"/>
</svg>
