<svg class="icon" viewBox="0 0 1024 1024" xmlns="http://www.w3.org/2000/svg" height="1em" width="1em">
  <path d="M224 0h576c123.6 0 224 100.4 224 224v576c0 123.6-100.4 224-224 224H224C100.4 1024 0 923.6 0 800V224C0 100.4 100.4 0 224 0z" fill="#FFF"/>
  <path d="M384.4 500.4c0-55.6 36-105.2 89.6-122.4s112 .8 145.6 45.6L570.4 460c-17.6-23.6-48.4-33.6-76.8-24.4-28 9.2-47.2 35.2-47.2 64.4 0 30 19.6 56.8 48.8 65.2 29.2 8.8 60.4-2.4 77.2-27.6l49.6 36.8c-32.8 46-92 65.6-146 48.4s-91.2-66-91.6-122.4zm-27.6-110c-4 4.4-10.8 5.2-15.6 1.6-4.8-3.2-6.4-9.6-3.2-14.8 43.6-48.8 108-77.2 176-77.2s132.4 28.4 176.4 77.2c3.2 4.8 1.6 11.2-3.2 14.8-4.8 3.2-11.6 2.8-15.6-1.6C632 347.2 574.4 322 514.4 322c-60.8.4-118.4 25.2-157.6 68.4zm314.4 243.2c4-4.4 10.8-5.2 15.6-1.6 4.8 3.2 6.4 9.6 3.2 14.8C646 696 581.6 724 513.6 724s-132.4-28.4-176.4-77.2c-3.2-4.8-1.6-11.6 3.2-14.8 4.8-3.2 11.6-2.8 15.6 1.6 39.6 43.2 97.2 68.4 157.2 68.4 61.2-.4 118.8-25.2 158-68.4z" fill="#D80C18"/>
  <path d="M336.8 558v-.8c0-34.4-18-51.6-47.2-62.8 20.4-10.4 33.2-32 32.8-55.2v-.8c0-40.4-31.6-66.4-82.4-66.4H124v256h119.2c56.4 0 93.6-23.2 93.6-70zM268 448.4c0 19.2-15.2 27.2-39.6 27.2h-50.8v-54.4H232c23.6 0 36 9.6 36 26.4v.8zm14 102c0 19.2-14.8 28-38.8 28h-65.6v-56h64c28 0 40.8 10.4 40.4 28zm622 .8v-.8c0-43.6-30.8-61.6-85.2-74.8-46.4-11.2-58-16.4-58-32.8v-.8c0-11.6 12-21.6 34.8-21.6 25.6 1.2 50 10 70.8 24.8l30.8-41.2c-28.8-21.2-64-32.4-100-31.6-55.6 0-95.2 30-95.2 75.2v.4c0 49.6 35.2 63.2 89.2 76.4 45.2 10.8 54.4 18 54.4 31.6v.8c0 14.8-14.8 23.6-38.8 23.6-29.6-.8-57.6-11.6-80-30.8l-35.2 38.8c31.2 25.6 72 40 114 40 58 0 98.4-27.6 98.4-77.2z" fill="#9FA0A0"/>
</svg>
