<svg viewBox="0 0 1024 1024" version="1.1" xmlns="http://www.w3.org/2000/svg" height="1em" width="1em">
  <path d="M210.88206 512c0 21.079415 0.099902 42.058927 0 63.138341-0.099902 20.380098-13.986341 37.26361-33.767024 41.159805-2.997073 0.499512-5.994146 0.79922-8.991219 0.79922-41.659317 0-83.218732 0.099902-124.878049 0-24.675902 0-42.858146-18.182244-42.858147-42.858146V449.461073C0.387621 424.885073 18.76967 406.602927 43.245768 406.602927h124.878049c20.48 0 37.26361 13.08722 41.659317 32.568195 0.699317 3.496585 1.098927 7.093073 1.098926 10.589658v62.23922z" fill="#5A422E"/>
  <path d="M193.598939 482.428878c-1.798244 10.090146-6.293854 18.481951-13.986342 25.075512-7.692488 6.593561-16.583805 10.090146-26.673951 10.289951 1.598439 11.388878 11.88839 26.074537 31.569171 27.772879-15.285073 0-27.672976-6.493659-38.262635-17.383025-0.599415 4.295805 2.297756 9.191024 9.39083 16.78361-1.498537-0.999024-2.897171-1.898146-4.395708-2.897171-5.494634-3.996098-10.689561-8.291902-14.585756-13.986341-2.797268-3.996098-4.595512-8.691512-5.095024-13.586732-0.199805-1.198829-0.899122-2.297756-1.898146-2.997073-13.886439-8.99122-20.87961-21.978537-20.48-38.462439 0.39961-14.186146 7.192976-25.275317 18.481951-33.667122 0.299707-0.199805 0.699317-0.39961 1.698341-0.899122-4.695415 9.490732-5.994146 18.881561-3.396683 28.672s8.391805 17.283122 16.683708 22.977561c1.698341-1.798244 3.196878-3.396683 4.695414-4.995122 6.493659-6.693463 15.98439-6.393756 21.878634 3.69639-5.994146 0-9.890341 2.497561-10.789463 6.993171 14.086244 1.598439 25.674927-2.897171 35.165659-13.386927z m-97.105171 88.113951c5.694439-5.794341 7.79239-12.68761 7.692488-21.079414-9.890341 6.893268-20.280195 8.59161-31.369366 7.292878 5.894244-1.198829 11.388878-2.797268 15.684683-7.592586-11.48878 2.297756-22.378146 1.298732-32.268488-5.594536 15.484878 7.39278 27.473171 1.098927 38.662244-9.990244-8.99122-6.393756-18.082341-6.893268-27.972683-1.398634 3.796293-7.39278 9.590634-11.288976 16.583805-13.48683 7.292878-2.297756 14.086244-0.39961 20.579902 2.797269 5.794341-7.39278 12.088195-6.094049 17.283122-1.498537-2.597463 0.499512-4.595512 1.698341-5.694439 4.096-1.398634 3.196878-1.798244 6.493659-0.599415 9.790439 1.898146 5.294829 2.397659 10.989268 1.398635 16.583805-1.498537 8.891317-11.588683 19.281171-19.980488 20.08039z m-56.544781-2.297756c-9.390829 0.599415-15.384976-4.49561-19.980487-11.588683l8.192 4.595512 0.199804-0.499512c-1.998049-2.497561-4.195902-4.89522-5.694439-7.592585-1.498537-2.797268-2.297756-5.994146-3.396683-8.99122l0.699318-0.199805c0.79922 1.998049 1.298732 4.195902 2.397658 5.994147 3.196878 5.394732 11.588683 8.99122 17.782634 7.992195 2.997073-0.499512 3.596488-1.398634 2.797268-4.395707-1.598439-5.394732-4.595512-9.690537-9.990243-11.988293-0.79922-0.39961-1.598439-0.79922-2.497561-1.198829 7.992195-2.797268 18.282146 1.598439 22.877658 10.789463 4.995122-2.797268 8.391805-0.499512 11.189073 3.796293-6.293854 1.298732-8.891317 5.994146-10.989268 11.388878-4.096 10.989268-16.983415 15.98439-27.473171 10.689561-0.299707-0.199805-0.499512-0.39961-0.799219-0.599415 2.797268-0.899122 5.694439-1.398634 8.192-2.597463 2.397659-1.198829 4.395707-3.29678 6.593561-4.995122l-0.099903-0.599415z" fill="#E8E33D"/>
  <path d="M906.12711 492.544c14.985366-10.289951 19.68078-26.474146 20.579903-29.970732h15.684683c-0.899122 3.196878-3.69639 12.088195-9.490732 21.27922l-1.098927 1.598439h1.398634v58.542829h-15.784585v-43.957073s-7.692488 3.996098-11.288976 5.294829v-12.787512z m15.584781-63.737756h16.483902c-0.599415 5.694439-6.993171 31.669073-32.867902 42.758244v-13.586732c12.188098-9.091122 16.084293-25.075512 16.384-29.171512z m29.671024 17.283122v-12.288h69.032585v12.288h-69.032585z m44.456585 87.214829v-56.54478h-47.853268v-11.688586h75.626147v11.688586h-10.689561v56.644683c0 10.589659-7.79239 10.489756-12.987318 10.489756h-33.966829v-10.689561h29.870829z m-189.115317-0.999024c7.093073-0.899122 16.184195-6.193951 16.184196-6.193951l4.195902 8.991219s-24.376195 14.985366-33.267512 9.290927c-4.395707-2.797268-4.49561-9.790439-4.49561-9.790439v-34.666147h-14.086244v-10.589658h14.086244v-13.686634h-6.793366v-7.992195l-1.798244 1.498536c-3.396683 2.697366-6.393756 4.096-7.892292 4.395708v-14.985366c14.985366-12.288 19.381073-25.974634 20.380097-29.770927h14.385951c-0.999024 5.694439-5.794341 14.186146-5.794341 14.186146h22.777756v10.289951h-29.171512c-1.698341 2.997073-4.995122 6.693463-8.791415 10.389854l-1.798244 1.798244h39.661269v10.090146h-17.782635v13.686635h17.782635v10.68956h-17.782635v32.368391z m97.704586 9.890341h-19.081366l-11.488781-16.483902c-8.291902 9.990244-18.681756 17.982439-30.570146 17.982439 0 0-4.195902 0.699317-7.892293-0.999025-5.294829-2.397659-4.995122-10.489756-4.995122-10.489756v-100.901463h55.246049c6.993171 0 10.389854 3.096976 10.389854 7.892293v30.470243c0 6.193951-0.499512 12.887415-10.090146 12.887415h-39.361561v49.251903s3.69639 0.499512 10.689561-5.095025c3.496585-2.797268 6.893268-6.393756 9.990243-10.389854l-20.180292-28.871804h14.685658c5.394732 0 8.891317 5.894244 8.891317 5.894244l6.094049 8.791414c2.497561-3.496585 6.593561-14.685659 6.593561-14.685658h11.688586s-3.996098 13.287024-11.288976 24.675902l20.679805 30.070634z m-57.74361-101.201171v10.989269h32.967805v-10.989269h-32.967805z m0 20.779708v11.089171h32.967805v-11.089171h-32.967805z m-199.605073 80.721171s-19.880585-1.898146-39.960976-20.779708c-9.690537 8.891317-21.079415 16.983415-32.967805 21.179317-9.690537 3.396683-17.083317 3.496585-23.077463 0.699317-5.194927-2.297756-4.995122-9.590634-4.995122-9.590634v-33.667122s-16.084293 7.292878-26.374244 8.491708v-12.487805c6.193951-2.097951 34.266537-8.391805 52.548683-45.45561l0.599415-1.398634h-28.072586v18.382049h-18.382048v-28.871805h49.951219s1.898146-7.692488 1.898146-10.090147h18.781659c-0.199805 1.998049-1.598439 10.090146-1.598439 10.090147h37.26361c9.490732-0.099902 9.790439 4.995122 9.790439 10.090146v18.781659h-18.382049v-18.282147h-32.068683l-0.299707 0.699317c-2.997073 8.59161-6.893268 17.083317-10.689561 22.677854h15.484878s4.096 14.086244 13.087219 29.271415c6.593561-7.093073 11.988293-13.886439 15.98439-18.781659 0-0.099902 14.086244-0.099902 13.886439 0-1.198829 1.698341-9.790439 14.885463-22.777756 28.672 13.886439 15.98439 30.270439 18.481951 30.270439 18.481951v11.888391z m-81.020878-15.484879c0 2.897171 2.497561 9.290927 22.977561-5.294829 3.896195-2.797268 7.492683-5.694439 10.989268-8.891317-12.088195-14.885463-17.782634-30.670049-19.68078-37.063805-7.292878 9.690537-14.186146 14.286049-14.186147 14.286049v36.963902z m201.902829-78.323512h-21.778732l-5.694439 14.186147h13.187122c9.790439 0 8.791415 8.491707 8.791415 11.788487v59.641757c0 6.593561-3.596488 9.590634-9.790439 9.590634h-26.973659v-9.890342h21.67883v-60.64078h-18.881561s8.192 14.585756 16.683707 19.381073v11.388878c-1.798244-0.79922-4.89522-1.998049-7.692488-3.69639l-1.498536-0.999025v24.276293c0 6.593561-6.193951 6.993171-7.192976 6.993171h-50.750439v-29.770927c-2.497561 1.498537-5.994146 2.597463-7.992195 3.196878v-11.688585c4.195902-2.797268 12.987317-9.390829 16.384-18.981464h-18.881561v70.531122h-15.085268v-81.12078h21.179317l-4.096-14.186147h-22.478049v-10.489756h52.149073l-4.195902-9.390829h13.986341c2.897171 0 3.996098 1.998049 4.295805 2.997073 0.899122 3.196878 2.397659 6.293854 2.397658 6.293854h52.248976v10.589658z m-75.126634 71.630049h30.570146v-15.185171h-30.570146v15.185171z m37.463415-25.674927l-1.898147-1.798244c-5.095024-4.795317-14.186146-19.381073-14.186146-19.381073h-11.488781s-9.191024 16.384-16.184195 21.179317h43.757269z m-4.096-31.768975l5.694439-14.186147h-46.654439l4.096 14.186147h36.864z m-420.689171 21.479024h45.855219v-10.789463h-45.855219v10.789463z m67.134439-10.589659v-17.982439h-88.513561v17.982439h-16.184195v-28.472195h22.977561l-8.291903-12.687609h13.786537c2.897171 0 4.096 2.397659 5.494634 4.395707 1.798244 2.797268 5.394732 8.192 5.394732 8.192h13.187122v-16.384h16.284097v16.384h13.686634l8.391805-12.587707h16.284098l-8.391805 12.587707h14.385951c6.493659 0 7.692488 4.195902 7.692488 7.892293v20.679804h-16.184195z m-83.218732-10.789463h68.932683c10.689561 0 9.290927 8.491707 9.290927 8.491707v15.285074c0 5.494634-3.596488 8.192-8.791415 8.192h-21.978536v7.492682h32.867902c6.793366 0 7.79239 3.996098 7.79239 5.894244v25.475122c0 4.49561-2.097951 7.39278-5.894244 7.392781h-23.37717v-10.589659h13.187122v-17.682731h-24.675903v31.069658h-16.284097v-31.069658h-25.175415v28.372292h-16.184195v-38.862049h41.259707v-7.492682h-30.969756v-31.968781z m116.086634 80.221659h-11.788488l6.393757-16.483903h16.583804s-4.195902 9.790439-4.995121 11.388878c-0.699317 1.998049-2.197854 5.095024-6.193952 5.095025z m28.472195-112.090537l1.998049 5.594537h21.978537v8.691512h-63.338147v-8.791415h22.777757l-3.196879-7.79239h16.683708c2.397659 0 3.096976 2.297756 3.096975 2.297756z m-33.667122 17.482927h48.952196c5.294829 0 6.094049 4.595512 6.094048 5.994146v12.787512c0 2.397659-0.599415 6.693463-6.094048 6.693464h-48.952196v-25.475122z m13.586732 16.883512h27.373268v-8.192h-27.373268v8.192z m31.369366 29.47122h12.68761v8.291902h-13.586732v11.388878c0 2.997073-1.998049 4.695415-5.594537 4.695415h-37.763121v-8.291903h26.274341v-7.692488h-31.069659v-8.291902h30.969757l7.093073-8.491707h-38.06283v-8.291903h56.045269c1.398634 0 2.297756 0.79922 2.797268 1.898147 0.899122 2.097951-0.499512 3.796293-2.097951 5.694439-1.998049 2.597463-7.692488 9.091122-7.692488 9.091122z m65.536 12.687609h3.796293v9.490732h-11.488781c-5.594537 0-6.693463-2.397659-6.693463-6.793366v-61.539902h-7.992195s-1.798244 22.078439-4.195903 30.370341c3.196878 9.490732 6.793366 20.380098 6.793366 20.380098h-14.785561c-8.59161 14.885463-18.781659 18.781659-20.779707 19.780683v-10.389854c1.198829-0.999024 10.689561-9.490732 14.785561-25.774829l-7.992195-23.377171h11.988292c0.599415-3.096976 0.599415-10.989268 0.599415-10.989268h-11.88839v-9.490732h11.88839v-10.489756h14.186146v10.389854h14.985366c6.693463 0 6.893268 5.095024 6.893268 8.691512v59.741658z m-89.512585 20.080391s19.480976 11.788488 48.152975-1.098927c17.582829-7.79239 26.773854-4.395707 32.268488-1.598439 2.997073 1.498537 11.288976 7.093073 11.288976 7.093073l-8.291903 11.88839c-9.290927-7.292878-14.186146-12.487805-36.264585-4.795317-25.37522 8.891317-50.051122-1.298732-50.051122-1.298732l2.897171-10.190048z" fill="#231915"/>
  <path d="M287.131598 595.74322c-0.999024 0-1.898146 0-2.697366-0.099903-0.79922-0.099902-1.698341-0.299707-2.697366-0.599415-1.298732-0.499512-2.297756-1.098927-3.096975-1.998048-0.79922-0.79922-1.498537-1.798244-1.998049-2.897171-0.499512-1.098927-0.79922-2.197854-0.999024-3.496585s-0.299707-2.397659-0.299708-3.696391c0-0.899122 0.099902-1.798244 0.199805-2.697366 0.099902-0.899122 0.299707-1.798244 0.599415-2.697365 0.299707-0.899122 0.599415-1.698341 0.999024-2.497561s0.999024-1.498537 1.598439-2.197854c0.599415-0.599415 1.198829-0.999024 1.898147-1.398634s1.398634-0.599415 2.197853-0.79922 1.498537-0.299707 2.297756-0.399609c0.79922-0.099902 1.498537-0.099902 2.297756-0.099903h8.59161v4.595512h-7.992195c-1.298732 0-2.397659 0.199805-3.29678 0.499513-0.899122 0.299707-1.498537 0.899122-1.998049 1.498536-0.499512 0.699317-0.79922 1.498537-0.999025 2.397659s-0.299707 1.998049-0.299707 3.29678c0 0.499512 0 0.999024 0.099902 1.498537 0 0.599415 0.099902 1.098927 0.199805 1.698341 0.099902 0.599415 0.199805 1.098927 0.39961 1.598439s0.299707 0.999024 0.599415 1.398634c0.299707 0.499512 0.699317 0.999024 1.098927 1.298732 0.39961 0.299707 0.899122 0.599415 1.398634 0.699317 0.499512 0.199805 0.999024 0.299707 1.598439 0.299707 0.499512 0.099902 1.098927 0.099902 1.598439 0.099903h7.79239v4.595512h-9.091122z m27.273366 0v-10.589659h-9.790439v10.589659h-5.394732v-25.475122h5.394732v10.389853h9.790439v-10.389853h5.394732v25.475122h-5.394732z m28.672 0l-2.397659-5.894244h-9.590634l-2.397658 5.894244h-6.293854l10.489756-25.475122h6.193951l10.489756 25.475122h-6.493658z m-7.292878-19.680781l-3.69639 9.091122h7.39278l-3.69639-9.091122z m31.569171 19.680781l-10.289952-18.681757v18.681757h-5.194926v-25.475122h6.99317l10.090147 18.981463v-18.981463h5.194926v25.475122h-6.793365z m20.579902 0c-1.898146 0-3.596488-0.299707-4.895219-0.999025-1.398634-0.699317-2.497561-1.498537-3.296781-2.697366-0.79922-1.098927-1.498537-2.497561-1.798244-3.996097-0.39961-1.498537-0.599415-3.196878-0.599415-4.995122 0-0.899122 0.099902-1.898146 0.199805-2.897171s0.299707-1.998049 0.599415-2.897171c0.299707-0.899122 0.699317-1.798244 1.198829-2.697366 0.499512-0.79922 1.098927-1.498537 1.898147-2.197853 1.098927-0.899122 2.397659-1.498537 3.796292-1.798244 1.398634-0.299707 2.797268-0.39961 4.195903-0.39961h10.989268v4.595512h-10.389854c-1.298732 0-2.397659 0.199805-3.29678 0.499513-0.899122 0.39961-1.498537 0.899122-1.998049 1.498536-0.499512 0.699317-0.79922 1.498537-0.999024 2.397659s-0.299707 2.097951-0.299708 3.29678c0 0.39961 0 0.899122 0.099903 1.498537 0 0.599415 0.099902 1.098927 0.199805 1.698341s0.199805 1.098927 0.399609 1.598439c0.099902 0.499512 0.299707 0.999024 0.499513 1.398634 0.299707 0.499512 0.699317 0.999024 1.098926 1.298732s0.899122 0.499512 1.398635 0.699317c0.499512 0.199805 0.999024 0.299707 1.598439 0.299707 0.499512 0.099902 1.098927 0.099902 1.598439 0.099903h4.895219v-5.994146h-7.093073v-4.395708h12.387902v15.085269h-12.387902z m39.561366-7.492683c0 0.899122-0.099902 1.798244-0.39961 2.697365-0.299707 0.899122-0.699317 1.698341-1.298732 2.397659-0.499512 0.599415-0.999024 0.999024-1.498536 1.398634-0.499512 0.299707-1.098927 0.599415-1.698342 0.699317-0.599415 0.199805-1.198829 0.299707-1.898146 0.299708-0.599415 0-1.298732 0.099902-1.998049 0.099902h-13.886439v-4.595512h11.588683c0.499512 0 1.098927 0 1.698342-0.099903 0.599415 0 1.098927-0.099902 1.598439-0.299707 0.499512-0.199805 0.899122-0.499512 1.198829-0.899122 0.299707-0.39961 0.499512-0.999024 0.499512-1.698341 0-0.899122-0.299707-1.598439-0.899122-2.197854-0.499512-0.499512-0.999024-0.699317-1.598439-0.79922-0.599415-0.099902-1.298732-0.199805-1.898146-0.199804h-4.695415c-0.79922 0-1.598439 0-2.397658-0.099903-0.899122-0.099902-1.598439-0.299707-2.297756-0.599415-0.699317-0.299707-1.198829-0.599415-1.698342-1.098926-0.499512-0.499512-0.899122-0.999024-1.198829-1.598439-0.299707-0.599415-0.599415-1.198829-0.79922-1.898147-0.199805-0.699317-0.299707-1.298732-0.299707-1.998049 0-0.999024 0.199805-2.097951 0.599415-3.196878 0.39961-1.098927 0.999024-1.998049 1.798243-2.697365 0.899122-0.79922 1.898146-1.198829 2.997074-1.398635 1.098927-0.199805 2.197854-0.299707 3.29678-0.299707h13.586732v4.595512h-12.387903c-0.499512 0-0.999024 0-1.498536 0.099903s-0.899122 0.199805-1.198829 0.39961c-0.39961 0.199805-0.599415 0.499512-0.899122 0.899121-0.199805 0.39961-0.299707 0.899122-0.299708 1.498537 0 0.699317 0.099902 1.198829 0.39961 1.598439 0.299707 0.39961 0.699317 0.699317 1.098927 0.899122s0.899122 0.299707 1.498536 0.299707c0.499512 0 1.098927 0.099902 1.598439 0.099903h4.096c0.999024 0 1.898146 0.099902 2.897171 0.199805s1.898146 0.39961 2.797269 0.799219c0.599415 0.299707 1.198829 0.699317 1.598439 1.198829s0.79922 0.999024 1.098926 1.598439c0.299707 0.599415 0.499512 1.198829 0.599415 1.898147s0.199805 1.298732 0.199805 1.998049z m19.281171 7.492683v-10.589659h-9.790439v10.589659h-5.394732v-25.475122h5.394732v10.389853h9.790439v-10.389853h5.394731v25.475122h-5.394731z m31.669073-10.589659c0 0.499512 0 0.999024-0.099903 1.498537 0 0.499512-0.099902 1.098927-0.199805 1.698341-0.099902 0.599415-0.199805 1.098927-0.399609 1.598439s-0.299707 0.999024-0.599415 1.398634c-0.499512 0.899122-1.098927 1.598439-1.798244 2.097951-0.79922 0.599415-1.598439 0.999024-2.497561 1.298732s-1.798244 0.599415-2.797268 0.699317c-0.999024 0.099902-1.898146 0.199805-2.797268 0.199805-0.899122 0-1.798244-0.099902-2.697366-0.199805-0.899122-0.099902-1.798244-0.299707-2.597464-0.599414s-1.598439-0.599415-2.297756-1.098927c-0.699317-0.499512-1.398634-1.098927-1.898146-1.898147-0.39961-0.499512-0.599415-0.999024-0.79922-1.498536-0.199805-0.499512-0.39961-1.098927-0.499512-1.598439-0.099902-0.499512-0.199805-1.098927-0.199805-1.698342v-16.983414h5.394732v15.18517c0 0.599415 0 1.198829 0.099902 1.798244 0.099902 0.599415 0.199805 1.198829 0.499513 1.698342 0.199805 0.499512 0.499512 0.79922 0.899122 1.198829s0.79922 0.599415 1.298731 0.79922 0.999024 0.39961 1.498537 0.499512 0.999024 0.099902 1.498536 0.099902c0.599415 0 1.398634-0.099902 2.197854-0.299707 0.79922-0.199805 1.498537-0.499512 1.998049-0.899122 0.39961-0.299707 0.699317-0.599415 0.899122-0.999024 0.199805-0.39961 0.299707-0.79922 0.39961-1.19883 0.099902-0.39961 0.099902-0.899122 0.199805-1.298731v-16.483903h5.394731v14.985366z m40.96 10.589659c-0.199805-0.599415-0.299707-1.198829-0.39961-1.798244-0.099902-0.599415-0.099902-1.198829-0.199805-1.798244-0.199805-1.198829-0.39961-2.097951-0.599414-2.897171-0.299707-0.79922-0.699317-1.398634-1.19883-1.898146s-1.198829-0.79922-1.998049-0.999025c-0.79922-0.199805-1.798244-0.299707-2.89717-0.299707h-4.295805v9.690537h-5.394732v-25.475122h12.288c0.899122 0 1.898146 0 2.797268 0.099902s1.898146 0.199805 2.797269 0.499512c1.498537 0.39961 2.597463 1.198829 3.496585 2.397659 0.79922 1.198829 1.198829 2.597463 1.198829 4.096 0 1.698341-0.39961 3.29678-1.098926 4.595512-0.699317 1.298732-1.998049 2.297756-3.696391 2.797268 0.499512 0.199805 0.999024 0.39961 1.398634 0.599415 0.39961 0.199805 0.699317 0.39961 0.999025 0.699317 0.299707 0.299707 0.599415 0.599415 0.799219 0.999024 0.199805 0.39961 0.499512 0.79922 0.699317 1.398634 0.199805 0.599415 0.39961 1.198829 0.499513 1.798244 0.099902 0.599415 0.199805 1.198829 0.199804 1.898147s0.099902 1.198829 0.199805 1.898146c0.099902 0.599415 0.199805 1.198829 0.39961 1.798244h-5.994146z m0.199805-17.383025c0-1.298732-0.39961-2.097951-1.098927-2.497561-0.699317-0.39961-1.698341-0.599415-2.797268-0.599414h-7.592586v6.59356h7.592586c1.198829 0 2.197854-0.199805 2.89717-0.699317 0.699317-0.599415 0.999024-1.498537 0.999025-2.797268z m31.269463 6.793366c0 0.499512 0 0.999024-0.099902 1.498537 0 0.499512-0.099902 1.098927-0.199805 1.698341-0.099902 0.599415-0.199805 1.098927-0.39961 1.598439s-0.299707 0.999024-0.599415 1.398634c-0.499512 0.899122-1.098927 1.598439-1.798244 2.097951-0.79922 0.599415-1.598439 0.999024-2.497561 1.298732s-1.798244 0.599415-2.797268 0.699317c-0.999024 0.099902-1.898146 0.199805-2.797268 0.199805-0.899122 0-1.798244-0.099902-2.697366-0.199805s-1.798244-0.299707-2.597463-0.599414-1.598439-0.599415-2.297756-1.098927c-0.699317-0.499512-1.398634-1.098927-1.898147-1.898147-0.39961-0.499512-0.599415-0.999024-0.799219-1.498536-0.199805-0.499512-0.39961-1.098927-0.499513-1.598439s-0.199805-1.098927-0.199804-1.698342v-16.983414h5.394731v15.18517c0 0.599415 0 1.198829 0.099903 1.798244 0.099902 0.599415 0.199805 1.198829 0.499512 1.698342 0.199805 0.499512 0.499512 0.79922 0.899122 1.198829 0.39961 0.299707 0.79922 0.599415 1.298732 0.79922s0.999024 0.39961 1.498536 0.499512c0.499512 0.099902 0.999024 0.099902 1.498537 0.099902 0.599415 0 1.398634-0.099902 2.197853-0.299707s1.498537-0.499512 1.998049-0.899122c0.39961-0.299707 0.699317-0.599415 0.899122-0.999024 0.199805-0.39961 0.299707-0.79922 0.39961-1.19883s0.099902-0.899122 0.199805-1.298731v-16.483903h5.394732v14.985366z m21.978537 10.589659c-0.199805-0.599415-0.299707-1.198829-0.39961-1.798244s-0.099902-1.198829-0.199805-1.798244c-0.199805-1.198829-0.39961-2.097951-0.599415-2.897171-0.299707-0.79922-0.699317-1.398634-1.198829-1.898146s-1.198829-0.79922-1.998049-0.999025c-0.79922-0.199805-1.798244-0.299707-2.89717-0.299707h-4.295805v9.690537h-5.394732v-25.475122h12.288c0.899122 0 1.898146 0 2.797268 0.099902 0.999024 0.099902 1.898146 0.199805 2.797269 0.499512 1.498537 0.39961 2.597463 1.198829 3.496585 2.397659 0.79922 1.198829 1.198829 2.597463 1.198829 4.096 0 1.698341-0.39961 3.29678-1.098927 4.595512-0.699317 1.298732-1.998049 2.297756-3.69639 2.797268 0.499512 0.199805 0.999024 0.39961 1.398634 0.599415 0.39961 0.199805 0.699317 0.39961 0.999025 0.699317 0.299707 0.299707 0.599415 0.599415 0.799219 0.999024 0.199805 0.39961 0.499512 0.79922 0.699317 1.398634 0.199805 0.599415 0.39961 1.198829 0.499512 1.798244s0.199805 1.198829 0.199805 1.898147 0.099902 1.198829 0.199805 1.898146c0.099902 0.599415 0.199805 1.198829 0.39961 1.798244h-5.994146z m0.199805-17.383025c0-1.298732-0.39961-2.097951-1.098927-2.497561s-1.698341-0.599415-2.797269-0.599414h-7.592585v6.59356h7.592585c1.198829 0 2.197854-0.199805 2.897171-0.699317 0.699317-0.599415 0.999024-1.498537 0.999025-2.797268z m28.172487 17.383025l-2.397658-5.894244h-9.590634l-2.397659 5.894244h-6.293854l10.489757-25.475122h6.193951l10.489756 25.475122h-6.493659z m-7.192975-19.680781l-3.696391 9.091122h7.392781l-3.69639-9.091122z m25.774829 19.680781c-1.498537 0-2.897171-0.199805-4.295805-0.599415-1.398634-0.39961-2.597463-1.198829-3.596488-2.397659-0.79922-0.999024-1.298732-2.197854-1.498536-3.496585-0.199805-1.298732-0.299707-2.597463-0.299708-3.796293v-15.285073h5.29483v15.285073c0 0.299707 0 0.499512 0.099902 0.79922 0 0.699317 0.099902 1.498537 0.199805 2.097951 0.099902 0.699317 0.39961 1.298732 0.999024 1.898146 0.299707 0.299707 0.699317 0.499512 1.19883 0.699317 0.499512 0.199805 0.999024 0.299707 1.498536 0.299708 0.499512 0.099902 0.999024 0.099902 1.498537 0.099902h6.493658v4.595512h-7.592585z m30.769951 0c-0.999024 0-1.898146 0-2.697366-0.099903-0.79922-0.099902-1.698341-0.299707-2.697365-0.599415-1.298732-0.499512-2.297756-1.098927-3.096976-1.998048-0.79922-0.79922-1.498537-1.798244-1.998049-2.897171-0.499512-1.098927-0.79922-2.197854-0.999024-3.496585s-0.299707-2.397659-0.299708-3.696391c0-0.899122 0.099902-1.798244 0.199805-2.697366 0.099902-0.899122 0.299707-1.798244 0.599415-2.697365 0.299707-0.899122 0.599415-1.698341 0.999024-2.497561s0.999024-1.498537 1.598439-2.197854c0.599415-0.599415 1.198829-0.999024 1.898147-1.398634 0.699317-0.299707 1.398634-0.599415 2.197853-0.79922s1.498537-0.299707 2.297756-0.399609c0.79922-0.099902 1.498537-0.099902 2.297757-0.099903h8.591609v4.595512h-7.992195c-1.298732 0-2.397659 0.199805-3.29678 0.499513-0.899122 0.299707-1.498537 0.899122-1.998049 1.498536s-0.79922 1.498537-0.999024 2.397659c-0.199805 0.999024-0.299707 1.998049-0.299708 3.29678 0 0.499512 0 0.999024 0.099903 1.498537 0 0.599415 0.099902 1.098927 0.199805 1.698341 0.099902 0.599415 0.199805 1.098927 0.399609 1.598439s0.299707 0.999024 0.599415 1.398634c0.299707 0.499512 0.699317 0.999024 1.098927 1.298732 0.39961 0.299707 0.899122 0.599415 1.398634 0.699317s0.999024 0.299707 1.598439 0.299707 1.098927 0.099902 1.598439 0.099903h7.79239v4.595512h-9.091122z m35.165659-12.387903c0 3.996098-0.999024 7.093073-2.897171 9.191024-1.998049 2.097951-4.995122 3.196878-8.991219 3.196879-0.699317 0-1.498537 0-2.297757-0.099903s-1.498537-0.199805-2.297756-0.39961c-0.79922-0.199805-1.498537-0.499512-2.197853-0.799219-0.699317-0.299707-1.398634-0.699317-1.898147-1.098927-0.79922-0.599415-1.398634-1.298732-1.898146-2.097951s-0.899122-1.598439-1.198829-2.497561-0.499512-1.798244-0.699317-2.797269c-0.099902-0.899122-0.199805-1.898146-0.199805-2.797268 0-4.195902 0.999024-7.39278 2.997073-9.590634 1.998049-2.197854 5.095024-3.29678 9.390829-3.29678 4.295805 0 7.492683 1.098927 9.390829 3.396682 1.798244 2.197854 2.797268 5.494634 2.797269 9.690537z m-5.794342-0.39961c0-1.098927-0.099902-2.197854-0.299707-3.29678-0.199805-0.999024-0.499512-1.898146-0.999024-2.697366-0.499512-0.79922-1.198829-1.398634-1.998049-1.898146s-1.898146-0.699317-3.296781-0.699317-2.497561 0.199805-3.29678 0.699317c-0.899122 0.39961-1.498537 1.098927-1.998049 1.798244s-0.79922 1.698341-0.999024 2.697365-0.299707 2.197854-0.299708 3.296781 0.099902 2.297756 0.299708 3.29678 0.499512 1.998049 0.999024 2.797269 1.198829 1.398634 1.998049 1.898146c0.899122 0.499512 1.998049 0.699317 3.29678 0.699317 1.298732 0 2.397659-0.199805 3.296781-0.699317 0.899122-0.499512 1.498537-1.098927 1.998049-1.898146s0.79922-1.698341 0.999024-2.797269c0.199805-0.999024 0.299707-2.097951 0.299707-3.196878z m32.668098 12.787513v-19.081366l-6.593561 19.181268h-5.594537l-6.293853-19.181268v19.181268h-5.095025v-25.475122h7.892293l6.293854 19.880585 6.593561-19.880585h7.892292v25.475122h-5.095024z m33.667122 0v-19.081366l-6.593561 19.181268h-5.594537l-6.293853-19.181268v19.181268h-5.095025v-25.475122h7.892293l6.293854 19.880585 6.593561-19.880585h7.892292v25.475122h-5.095024z m21.978536 0c-1.198829 0-2.397659-0.099902-3.596487-0.199805-1.298732-0.099902-2.397659-0.299707-3.496586-0.699317-1.198829-0.39961-2.197854-1.098927-2.997073-1.998049-0.79922-0.899122-1.498537-1.898146-1.998049-2.997073s-0.899122-2.297756-1.098927-3.496586c-0.199805-1.198829-0.299707-2.397659-0.299707-3.596488 0-1.098927 0.099902-2.197854 0.299707-3.29678 0.199805-1.098927 0.499512-2.097951 0.999025-3.196878 0.39961-0.999024 0.999024-1.898146 1.698341-2.797268 0.699317-0.79922 1.498537-1.598439 2.497561-2.097952 0.899122-0.499512 1.798244-0.899122 2.797269-0.999024s1.998049-0.199805 2.997073-0.199805h9.191024v4.595512H766.4635c-0.599415 0-1.098927 0.099902-1.698341 0.199805-0.499512 0.099902-0.999024 0.299707-1.498537 0.599415s-0.899122 0.599415-1.298731 1.098927c-0.499512 0.599415-0.79922 1.198829-0.899122 1.998048-0.099902 0.699317-0.199805 1.398634-0.299708 2.197854h14.385952v4.49561h-14.385952c0.099902 1.198829 0.299707 2.197854 0.699318 2.997073 0.39961 0.79922 0.899122 1.398634 1.498536 1.798244 0.599415 0.39961 1.398634 0.699317 2.297756 0.899122 0.899122 0.199805 1.898146 0.199805 2.997073 0.199805h6.893269v4.595512h-6.893269z m28.272391 0c-0.199805-0.599415-0.299707-1.198829-0.39961-1.798244-0.099902-0.599415-0.099902-1.198829-0.199805-1.798244-0.199805-1.198829-0.39961-2.097951-0.599415-2.897171-0.299707-0.79922-0.699317-1.398634-1.198829-1.898146s-1.198829-0.79922-1.998049-0.999025c-0.79922-0.199805-1.798244-0.299707-2.89717-0.299707h-4.295805v9.690537h-5.394732v-25.475122h12.288c0.899122 0 1.898146 0 2.797268 0.099902s1.898146 0.199805 2.797269 0.499512c1.498537 0.39961 2.597463 1.198829 3.496585 2.397659 0.79922 1.198829 1.198829 2.597463 1.198829 4.096 0 1.698341-0.39961 3.29678-1.098927 4.595512-0.699317 1.298732-1.998049 2.297756-3.69639 2.797268 0.499512 0.199805 0.999024 0.39961 1.398634 0.599415 0.39961 0.199805 0.699317 0.39961 0.999025 0.699317 0.299707 0.299707 0.599415 0.599415 0.799219 0.999024s0.499512 0.79922 0.699317 1.398634c0.199805 0.599415 0.39961 1.198829 0.499512 1.798244 0.099902 0.599415 0.199805 1.198829 0.199805 1.898147 0.099902 0.599415 0.099902 1.198829 0.199805 1.898146 0.099902 0.599415 0.199805 1.198829 0.39961 1.798244h-5.994146z m0.199805-17.383025c0-1.298732-0.39961-2.097951-1.098927-2.497561-0.699317-0.39961-1.698341-0.599415-2.797269-0.599414h-7.592585v6.59356h7.592585c1.198829 0 2.197854-0.199805 2.897171-0.699317s0.999024-1.498537 0.999025-2.797268z m19.980487 17.383025c-0.999024 0-1.898146 0-2.697366-0.099903-0.79922-0.099902-1.698341-0.299707-2.697365-0.599415-1.298732-0.499512-2.297756-1.098927-3.096976-1.998048-0.79922-0.79922-1.498537-1.798244-1.998049-2.897171-0.499512-1.098927-0.79922-2.197854-0.999024-3.496585-0.199805-1.198829-0.299707-2.397659-0.299707-3.696391 0-0.899122 0.099902-1.798244 0.199804-2.697366 0.099902-0.899122 0.299707-1.798244 0.599415-2.697365 0.299707-0.899122 0.599415-1.698341 0.999024-2.497561s0.999024-1.498537 1.598439-2.197854c0.599415-0.599415 1.198829-0.999024 1.898147-1.398634 0.699317-0.299707 1.398634-0.599415 2.197853-0.79922s1.498537-0.299707 2.297757-0.399609c0.79922-0.099902 1.498537-0.099902 2.297756-0.099903h8.591609v4.595512h-7.992195c-1.298732 0-2.397659 0.199805-3.29678 0.499513-0.899122 0.299707-1.498537 0.899122-1.998049 1.498536s-0.79922 1.498537-0.999024 2.397659c-0.199805 0.999024-0.299707 1.998049-0.299708 3.29678 0 0.499512 0 0.999024 0.099903 1.498537s0.099902 1.098927 0.199805 1.698341 0.199805 1.098927 0.399609 1.598439 0.299707 0.999024 0.599415 1.398634c0.299707 0.499512 0.699317 0.999024 1.098927 1.298732 0.39961 0.299707 0.899122 0.599415 1.398634 0.699317s0.999024 0.299707 1.598439 0.299707 1.098927 0.099902 1.598439 0.099903h7.79239v4.595512h-9.091122z m12.088195 0v-25.475122h5.794342v25.475122h-5.794342z m29.07161 0l-2.397658-5.894244h-9.590634l-2.397659 5.894244h-6.293854l10.489756-25.475122h6.193952l10.489756 25.475122h-6.493659z m-7.292878-19.680781l-3.69639 9.091122h7.39278l-3.69639-9.091122z m25.774829 19.680781c-1.498537 0-2.897171-0.199805-4.295804-0.599415-1.398634-0.39961-2.597463-1.198829-3.596488-2.397659-0.79922-0.999024-1.298732-2.197854-1.498537-3.496585-0.199805-1.298732-0.299707-2.597463-0.299707-3.796293v-15.285073h5.294829v15.285073c0 0.299707 0 0.499512 0.099903 0.79922 0 0.699317 0.099902 1.498537 0.199804 2.097951 0.099902 0.699317 0.39961 1.298732 0.999025 1.898146 0.299707 0.299707 0.699317 0.499512 1.198829 0.699317 0.499512 0.199805 0.999024 0.299707 1.498537 0.299708s0.999024 0.099902 1.498536 0.099902h6.493659v4.595512h-7.592586z m51.949269-18.781659c0 0.599415-0.099902 1.198829-0.199805 1.898146-0.199805 0.599415-0.39961 1.198829-0.699317 1.798244-0.299707 0.499512-0.699317 0.999024-1.098927 1.498537-0.39961 0.39961-0.999024 0.79922-1.498537 0.999024 1.198829 0.599415 2.197854 1.398634 2.697366 2.397659 0.599415 0.999024 0.899122 2.197854 0.899122 3.596488 0 0.899122-0.099902 1.798244-0.39961 2.697365s-0.79922 1.698341-1.398634 2.297756c-0.79922 0.79922-1.798244 1.198829-2.89717 1.398635-1.098927 0.199805-2.197854 0.299707-3.196879 0.299707h-14.186146v-25.475122h15.584781c0.499512 0 0.999024 0.099902 1.498536 0.199805 0.79922 0.199805 1.498537 0.39961 2.097951 0.799219 0.599415 0.39961 1.198829 0.899122 1.598439 1.398635s0.79922 1.198829 0.999025 1.998048c0.099902 0.699317 0.199805 1.398634 0.199805 2.197854z m-5.794342 0.999024c0-0.599415-0.099902-0.999024-0.299707-1.398634s-0.499512-0.599415-0.899122-0.799219c-0.39961-0.199805-0.79922-0.299707-1.198829-0.39961-0.499512-0.099902-0.999024-0.099902-1.398634-0.099902h-7.692488v5.794341h7.992195c0.999024 0 1.798244-0.299707 2.497561-0.79922s0.999024-1.298732 0.999024-2.297756z m0 9.890342c0-0.599415-0.099902-0.999024-0.299707-1.398634-0.199805-0.39961-0.499512-0.599415-0.899122-0.79922-0.39961-0.199805-0.79922-0.299707-1.198829-0.39961-0.499512-0.099902-0.999024-0.099902-1.398634-0.099902h-7.692488v5.794341h7.992195c0.999024 0 1.798244-0.299707 2.497561-0.799219 0.699317-0.599415 0.999024-1.298732 0.999024-2.297756z m27.373269 7.892293l-2.397659-5.894244h-9.590634l-2.397659 5.894244h-6.293853l10.489756-25.475122h6.193951l10.489756 25.475122h-6.493658z m-7.192976-19.680781l-3.69639 9.091122h7.39278l-3.69639-9.091122z m31.569171 19.680781l-10.289952-18.681757v18.681757h-5.194926v-25.475122h6.99317l10.090147 18.981463v-18.981463h5.194927v25.475122h-6.793366z m23.477073-12.887415l9.890341 12.887415h-6.893268l-8.99122-12.887415 9.490732-12.587707h6.993171l-10.489756 12.587707z m-11.88839 12.887415v-25.475122h5.794341v25.475122h-5.794341z" fill="#1B1918"/>
</svg>
