<svg viewBox="0 0 1024 1024" xmlns="http://www.w3.org/2000/svg" height="1em" width="1em">
  <path d="M224 0h576q224 0 224 224v576q0 224-224 224H224Q0 1024 0 800V224Q0 0 224 0Z" fill="#FFF"/>
  <path d="M675.336 525.216s102.204-7.372 124.604-15.752c0 0 27.62-4.188 13.336-41.824 0 0-13.336-27.08-23.468-42.76 0 0-12.228-19.192-25.692-29.512s-24.332-18.168-29.976-25.472c-5.648-7.304-26.004-22.188-35.224-111 0 0-1.068-25.068-4.116-66.852 0 0-4.112-44.972-44-61.576 0 0-29.56-14.552-97.024 0-67.464 14.548-160.488 65.84-226.848 139.952-66.4 74.108-177.824 216.076-117.712 408.252 60.112 192.136 284.028 270.436 441.436 189.964C808.016 788.128 827.52 669.244 827.52 669.244l3.392-18.468s13.332-60.76-53.332-60.76l-97.024-1.128s-21.448 178.52-196.376 154.54c0 0-83.848-7.332-126.74-103.36 0 0-55.16-110.736 57.18-209.872 0 0 113.44-77.212 214.584 18.82 0 0 37.676 32.24 45.828 76.124l.304.08z" fill="#025198"/>
  <path d="M437.58 489.616h148.84v164.152H437.58z" fill="#EB8919"/>
</svg>
