<svg viewBox="0 0 1024 1024" version="1.1" xmlns="http://www.w3.org/2000/svg" height="1em" width="1em">
  <path d="M106.158 536.054h44.372c0.583 0 1.056 0.473 1.056 1.056v8.234c0 0.583-0.473 1.056-1.056 1.056H88.945a1.056 1.056 0 0 1-1.055-1.056v-2.265c0-0.242 0.083-0.476 0.235-0.664l44.34-54.816H91.137a1.056 1.056 0 0 1-1.056-1.055v-8.235c0-0.583 0.473-1.055 1.056-1.055h58.539c0.583 0 1.055 0.472 1.055 1.055v2.266c0 0.242-0.083 0.476-0.235 0.664l-44.34 54.815z m55.664 8.762V478.31c0-0.583 0.473-1.055 1.056-1.055h34.184c15.418 0 23.494 6.861 23.494 17.535v1.525c0 7.625-4.405 13.724-12.48 15.249 9.543 1.525 13.948 8.387 13.948 14.486v1.525c-0.734 10.674-9.544 18.298-24.962 18.298h-34.184a1.056 1.056 0 0 1-1.056-1.056z m35.943-57.534h-23.27c-0.582 0-1.055 0.473-1.055 1.056v17.419c0 0.583 0.473 1.055 1.056 1.055h21.795c8.108 0 12.531-3.755 12.531-9.013v-1.503c0-4.507-2.948-9.014-11.057-9.014z m-0.737 28.504h-22.532c-0.583 0-1.056 0.472-1.056 1.055v17.419c0 0.583 0.473 1.055 1.056 1.055h23.27c8.108 0 11.056-3.755 11.056-9.013v-1.503c0-5.258-3.686-9.013-11.794-9.013z m89.398 29.452l-6.756-15.505a1.056 1.056 0 0 0-0.968-0.634H247.2c-0.42 0-0.8 0.249-0.968 0.634l-6.755 15.505a1.056 1.056 0 0 1-0.968 0.634h-10.103a1.056 1.056 0 0 1-0.964-1.487l29.749-66.507c0.17-0.38 0.547-0.624 0.964-0.624h8.869c0.413 0 0.788 0.24 0.96 0.616l30.457 66.507a1.056 1.056 0 0 1-0.96 1.495h-10.088c-0.42 0-0.8-0.249-0.967-0.634z m-24.003-54.26l-11.752 26.49a1.056 1.056 0 0 0 0.965 1.485h21.574a1.056 1.056 0 0 0 0.965-1.484l-11.752-26.492z m98.245 54.52l-36.407-43.084-4.407-6.1v48.502c0 0.584-0.472 1.056-1.055 1.056h-9.64a1.056 1.056 0 0 1-1.056-1.056V478.31c0-0.583 0.472-1.055 1.056-1.055h9.464c0.315 0 0.613 0.14 0.813 0.382l35.673 43.076 5.141 6.1v-48.503c0-0.583 0.473-1.055 1.056-1.055h9.64c0.583 0 1.056 0.472 1.056 1.055v66.507c0 0.584-0.473 1.056-1.056 1.056h-9.471c-0.311 0-0.606-0.137-0.807-0.374z m74.052 0.123l-27.16-29.718-9.549 9.149v20.292c0 0.583-0.472 1.056-1.055 1.056h-9.64a1.056 1.056 0 0 1-1.056-1.056v-66.507c0-0.583 0.473-1.056 1.056-1.056h9.64c0.583 0 1.055 0.473 1.055 1.056v33.254l35.684-34.018c0.196-0.187 0.457-0.292 0.728-0.292h12.306a1.056 1.056 0 0 1 0.717 1.831l-31.807 29.429c6.61 6.862 34.52 37.359 34.52 37.359h-14.293c-0.312 0-0.608-0.138-0.809-0.378l-0.307-0.367a1.056 1.056 0 0 0-0.03-0.034z" fill="#000000"/>
  <path d="M49.63 549.04c-11.451 0-20.853-3.631-28.174-10.89-7.32-7.257-10.984-16.437-10.984-27.505 0-6.86 1.7-13.198 5.096-19.005 3.398-5.808 8.101-10.365 14.102-13.664 5.997-3.296 12.474-4.945 19.423-4.945 6.939 0 13.163 1.334 18.668 4.005 5.51 2.674 10.114 6.587 13.806 11.733l0.297 0.413-7.246 5.602-0.325-0.394c-6.665-8.08-14.874-12.105-24.663-12.105-7.992 0-14.867 2.808-20.654 8.438-5.783 5.626-8.669 12.5-8.669 20.654 0 8.153 2.821 14.945 8.472 20.408 5.654 5.464 12.984 8.196 22.021 8.196 9.01 0 16.833-3.866 23.5-11.625l0.324-0.378 7.355 5.602-0.326 0.42c-7.776 10.022-18.466 15.04-32.023 15.04z" fill="#000000"/>
  <path d="M584.61 501.311l-44.476-44.085c-3.14-3.112-3.14-7.78 0-10.892 3.14-3.112 7.849-3.112 10.988 0l44.476 44.086c3.14 3.112 3.14 7.78 0 10.891-2.616 3.112-7.849 3.112-10.988 0z m-48.505-17.957l-25.012-25.011c-3.126-3.127-3.126-7.816 0-10.943 3.127-3.126 7.816-3.126 10.943 0l25.01 25.012c3.127 3.126 3.127 7.816 0 10.942-3.125 3.127-7.815 3.127-10.941 0z m-15.308 15.177l-25.011-24.926c-3.126-3.116-3.126-7.79 0-10.905 3.126-3.116 7.816-3.116 10.942 0l25.012 24.926c3.126 3.116 3.126 7.79 0 10.905-3.127 2.596-7.816 2.596-10.943 0z m-14.78 14.382l-25.01-25.011c-3.127-3.127-3.127-7.816 0-10.943 3.126-3.126 7.816-3.126 10.942 0l25.011 25.011c3.127 3.127 3.127 7.817 0 10.943-2.605 3.126-7.816 3.126-10.942 0z m-40.318-9.704c-3.126-3.127-3.126-7.816 0-10.943 3.127-3.126 7.816-3.126 10.943 0l25.011 25.012c3.127 3.126 3.127 7.816 0 10.942-2.605 3.127-7.816 3.127-10.942 0l-25.012-25.011z m118.966 27.65l-25.01-25.01c-3.127-3.127-3.127-7.817 0-10.943 3.125-3.127 7.815-3.127 10.942 0l25.01 25.01c3.127 3.127 3.127 7.817 0 10.943-3.126 3.127-8.336 3.127-10.942 0z m-15.307 15.308l-25.011-25.012c-3.127-3.126-3.127-7.816 0-10.942 3.126-3.127 7.816-3.127 10.942 0l25.012 25.011c3.126 3.127 3.126 7.816 0 10.943-3.127 3.126-7.816 3.126-10.943 0z m-14.78 15.307l-25.01-25.012c-3.127-3.126-3.127-7.816 0-10.942 3.126-3.126 7.816-3.126 10.942 0l25.011 25.011c3.127 3.127 3.127 7.816 0 10.943-3.126 3.126-7.816 3.126-10.942 0z m-15.306 14.78l-25.012-25.012c-3.126-3.127-3.126-7.816 0-10.943 3.127-3.126 7.816-3.126 10.943 0l25.011 25.012c3.126 3.126 3.126 7.816 0 10.942-3.126 3.127-7.816 3.127-10.942 0z m-29.615 0.538l-44.476-44.086c-3.14-3.112-3.14-7.78 0-10.892 3.14-3.112 7.85-3.112 10.989 0l44.475 44.086c3.14 3.112 3.14 7.78 0 10.892-3.14 3.112-7.848 3.112-10.988 0z" fill="#E60012"/>
  <path d="M697.186 473.921c0.544 0 0.992 0.412 1.049 0.941l0.006 0.115v7.24c0 0.543-0.411 0.991-0.94 1.049l-0.115 0.006h-23.8a3.167 3.167 0 0 0-3.163 2.987l-0.005 0.18v7.479c0 0.544 0.412 0.992 0.94 1.05l0.116 0.006h25.912c0.544 0 0.992 0.411 1.049 0.94l0.006 0.115v6.6c0 0.545-0.411 0.993-0.94 1.05l-0.115 0.006h-3.05c-0.545 0-0.993 0.412-1.05 0.941l-0.006 0.115v46.41c0 0.544-0.412 0.992-0.94 1.049l-0.116 0.006h-7.123c-0.544 0-0.992-0.412-1.05-0.94l-0.005-0.115v-46.41c0-0.544-0.412-0.992-0.941-1.05l-0.115-0.006h-11.516c-0.544 0-0.992 0.412-1.05 0.941l-0.006 0.115v46.41c0 0.544-0.411 0.992-0.94 1.049l-0.115 0.006h-7.61c-0.543 0-0.991-0.412-1.049-0.94l-0.006-0.115V479.2a5.278 5.278 0 0 1 5.061-5.274l0.218-0.005h31.409z m67.687-4.585c0.443 0 0.834 0.276 0.987 0.682l0.036 0.114 1.8 7.098c0.11 0.43 0.473 0.74 0.905 0.79l0.119 0.006h32.45c0.543 0 0.991 0.412 1.049 0.941l0.006 0.115v6.551c0 0.545-0.412 0.993-0.94 1.05l-0.116 0.006h-13.485c-0.31 0-0.601 0.136-0.8 0.367l-0.08 0.105-5.75 8.676a1.056 1.056 0 0 0 0.764 1.632l0.115 0.007h13.663a4.223 4.223 0 0 1 4.217 4.012l0.005 0.21v45.23a5.278 5.278 0 0 1-5.06 5.274l-0.218 0.004h-8.187c-0.544 0-0.992-0.412-1.05-0.94l-0.005-0.115v-6.025c0-0.544 0.411-0.992 0.94-1.05l0.115-0.005h2.276a3.167 3.167 0 0 0 3.162-2.988l0.005-0.18v-32.807a2.111 2.111 0 0 0-1.96-2.106l-0.152-0.005h-9.393a1.056 1.056 0 0 0-0.912 1.586l0.068 0.103 7.089 9.449c0.303 0.405 0.274 0.962-0.053 1.332l-0.089 0.089-4.385 3.918a1.056 1.056 0 0 0-0.345 0.66l-0.008 0.127v19.239c0 0.544-0.411 0.992-0.94 1.05l-0.115 0.006h-36.466c-0.544 0-0.992-0.412-1.05-0.941l-0.006-0.115v-19.165c0-0.3-0.127-0.583-0.347-0.782l-0.1-0.08-4.634-3.274c-0.425-0.3-0.563-0.86-0.343-1.318l0.062-0.112 6.475-10.149a1.056 1.056 0 0 0-0.775-1.617l-0.115-0.006h-8.754a2.111 2.111 0 0 0-2.106 1.96l-0.005 0.15v43.056c0 0.544-0.412 0.992-0.94 1.049l-0.116 0.006h-6.358c-0.545 0-0.993-0.412-1.05-0.94l-0.006-0.115v-49.453a4.223 4.223 0 0 1 4.012-4.217l0.21-0.005h14.541a1.056 1.056 0 0 0 0.949-1.52l-0.06-0.107-5.574-8.675a1.056 1.056 0 0 0-0.755-0.476l-0.133-0.009h-15.163c-0.544 0-0.992-0.412-1.05-0.94l-0.006-0.116v-6.55c0-0.545 0.412-0.993 0.94-1.05l0.116-0.007h34.572c0.545 0 0.993-0.411 1.05-0.94l0.006-0.115v-6.58c0-0.543 0.412-0.991 0.94-1.049l0.116-0.006h6.195z m73.527 1.584c0.526 0 0.972 0.387 1.045 0.908l0.873 6.217c0.073 0.521 0.52 0.909 1.046 0.909h12.984c0.583 0 1.055 0.473 1.055 1.056v5.446c0 0.583-0.472 1.056-1.055 1.056h-14.372c-0.403 0-0.77 0.23-0.948 0.592l-2.495 5.1a1.056 1.056 0 0 0 0.948 1.52h16.867c0.583 0 1.055 0.472 1.055 1.055v6.397c0 0.583-0.472 1.055-1.055 1.055h-9.86c-0.584 0-1.056 0.473-1.056 1.056v6.424c0 0.583 0.472 1.055 1.055 1.055h9.86c0.584 0 1.056 0.473 1.056 1.056v5.77c0 0.583-0.472 1.055-1.055 1.055h-9.86c-0.584 0-1.056 0.473-1.056 1.056v20.008a3.167 3.167 0 0 0 3.167 3.167h7.749c0.583 0 1.055 0.472 1.055 1.055v7.218c0 0.583-0.472 1.055-1.055 1.055H840.54a5.278 5.278 0 0 1-5.279-5.278v-27.225c0-0.583-0.472-1.056-1.055-1.056h-6.428a1.056 1.056 0 0 1-1.056-1.055v-5.77c0-0.583 0.473-1.056 1.056-1.056h6.428c0.583 0 1.055-0.472 1.055-1.055v-6.424c0-0.583-0.472-1.056-1.055-1.056h-6.428a1.056 1.056 0 0 1-1.056-1.055v-0.836a0.793 0.793 0 0 0-0.793-0.793h-0.167c-0.386 0-0.74-0.21-0.926-0.549l-1.182-2.16a1.056 1.056 0 0 1 0.06-1.111c3.044-4.368 5.061-8.095 6.05-11.181 0.969-3.022 1.526-7.222 1.673-12.6a1.056 1.056 0 0 1 1.055-1.026h5.908z m62.284 4.015a3.167 3.167 0 0 1 3.167 3.167v33.847a5.278 5.278 0 0 1-5.278 5.279h-13.672a1.056 1.056 0 0 0-0.993 1.415c0.888 2.453 1.649 4.3 2.284 5.543 0.662 1.296 1.732 2.99 3.21 5.083a1.056 1.056 0 0 0 1.484 0.245l8.83-6.43a1.056 1.056 0 0 1 1.499 0.268l3.524 5.283a1.056 1.056 0 0 1-0.266 1.445l-8.126 5.794a1.056 1.056 0 0 0-0.016 1.708 407.265 407.265 0 0 1 4.273 3.207c1.468 1.118 3.7 2.48 6.695 4.086a1.056 1.056 0 0 1 0.383 1.51l-3.298 5.012c-0.302 0.46-0.906 0.61-1.389 0.346-8.032-4.392-14.164-9.062-18.393-14.009-4.25-4.97-7.596-11.554-10.04-19.752a1.056 1.056 0 0 0-1.012-0.754h-3.876c-0.583 0-1.056 0.472-1.056 1.055v21.948a3.167 3.167 0 0 0 3.167 3.167h9.617c0.583 0 1.056 0.473 1.056 1.056v6.697c0 0.583-0.473 1.055-1.056 1.055h-15.24a5.278 5.278 0 0 1-5.278-5.278V475.99c0-0.583 0.473-1.056 1.056-1.056h38.744z m49.901 24.613l5.406 3.302c0.496 0.304 0.654 0.951 0.352 1.449-1.08 1.782-1.973 3.192-2.678 4.228-0.82 1.205-2.135 2.886-3.944 5.044v37.58c0 0.583-0.473 1.055-1.056 1.055h-6.386a1.056 1.056 0 0 1-1.056-1.055v-0.002l0.034-27.756c-1.566 1.595-2.901 2.886-4.007 3.873-0.96 0.856-2.335 2.007-4.125 3.455a1.056 1.056 0 0 1-1.485-0.158l-0.018-0.023-3.971-5.203a1.056 1.056 0 0 1 0.144-1.435c4.734-4.14 8.403-7.584 11.008-10.331 2.626-2.77 6.078-7.34 10.355-13.71 0.316-0.47 0.945-0.608 1.427-0.313z m62.122-1.056c0.544 0 0.992 0.412 1.049 0.94l0.006 0.115v7.593c0 0.544-0.412 0.992-0.94 1.05l-0.115 0.006h-11.603v35.565a8.445 8.445 0 0 1-8.192 8.441l-0.253 0.004H974.32c-0.544 0-0.992-0.412-1.05-0.94l-0.006-0.115v-6.861c0-0.545 0.412-0.993 0.941-1.05l0.115-0.006h13.527a4.223 4.223 0 0 0 4.217-4.012l0.005-0.21v-30.816h-29.382c-0.545 0-0.993-0.412-1.05-0.941l-0.006-0.115v-7.593c0-0.544 0.412-0.992 0.94-1.049l0.116-0.006h50.02zM623.83 525.544l0.055 0.02 5.776 2.263c0.512 0.2 0.784 0.76 0.626 1.286l-6.635 22.105c-0.165 0.55-0.739 0.867-1.292 0.714l-6.57-1.808a1.056 1.056 0 0 1-0.723-1.348l7.43-22.56c0.183-0.553 0.78-0.854 1.333-0.672z m25.522-53.569c0.544 0 0.992 0.412 1.05 0.94l0.006 0.116v12.071c0 0.544 0.411 0.992 0.94 1.05l0.115 0.006h4.118c0.544 0 0.992 0.412 1.05 0.94l0.006 0.116v6.25c0 0.545-0.412 0.993-0.94 1.05l-0.116 0.006h-4.118c-0.544 0-0.992 0.412-1.05 0.94l-0.005 0.116v11.577a1.056 1.056 0 0 0 1.567 0.923l0.104-0.066 2.886-2.075a1.056 1.056 0 0 1 1.666 0.743l0.006 0.115v6.937c0 0.294-0.122 0.572-0.334 0.77l-0.096 0.08-5.37 3.948a1.056 1.056 0 0 0-0.422 0.726l-0.007 0.125v27.022a5.278 5.278 0 0 1-5.061 5.274l-0.218 0.004h-10.094c-0.544 0-0.992-0.411-1.05-0.94l-0.005-0.115v-6.11c0-0.544 0.411-0.992 0.94-1.049l0.115-0.006h3.919a3.167 3.167 0 0 0 3.162-2.987l0.005-0.18v-14.819a1.056 1.056 0 0 0-1.645-0.876l-0.098 0.075-3.144 2.696a1.056 1.056 0 0 1-1.522-0.155l-0.07-0.102-3.16-5.253a1.056 1.056 0 0 1 0.146-1.278l0.096-0.088 9.004-7.27c0.213-0.172 0.35-0.419 0.384-0.687l0.009-0.135v-16.824c0-0.544-0.412-0.992-0.941-1.05l-0.115-0.006h-6.03c-0.544 0-0.992-0.412-1.05-0.94l-0.005-0.115v-6.251c0-0.544 0.411-0.992 0.94-1.05l0.115-0.006h6.03c0.544 0 0.992-0.412 1.05-0.94l0.006-0.116v-12.071c0-0.544 0.411-0.992 0.94-1.05l0.115-0.006h6.176z m123.39 52.742h-21.116c-0.583 0-1.056 0.473-1.056 1.056v9.851c0 0.583 0.473 1.056 1.056 1.056h21.115c0.583 0 1.056-0.473 1.056-1.056v-9.851c0-0.583-0.473-1.056-1.056-1.056z m-4.821-18.465h-13.196c-0.326 0-0.632 0.15-0.83 0.404l-0.07 0.1-5.437 8.869a1.056 1.056 0 0 0 0.785 1.6l0.115 0.007h25.076a1.056 1.056 0 0 0 0.92-1.572l-0.066-0.104-6.443-8.87a1.056 1.056 0 0 0-0.854-0.434z m-146.469-8.075l0.078 0.096 8.424 11.68a1.056 1.056 0 0 1-0.137 1.39l-0.095 0.079-5.484 4.023a1.056 1.056 0 0 1-1.393-0.127l-0.079-0.094-8.377-11.268a1.056 1.056 0 0 1 0.085-1.36l0.095-0.088 5.437-4.436a1.056 1.056 0 0 1 1.446 0.105z m272.68 1.269H869.55c-0.583 0-1.056 0.472-1.056 1.055v8.086c0 0.583 0.473 1.055 1.056 1.055h24.582a2.111 2.111 0 0 0 2.112-2.111v-5.974a2.111 2.111 0 0 0-2.112-2.111z m53.997-26.554c0.016 0.008 0.033 0.017 0.049 0.027l6.315 3.609c0.5 0.286 0.679 0.919 0.402 1.424-3.789 6.914-6.863 11.97-9.224 15.165-2.36 3.195-6.038 7.282-11.035 12.263a1.056 1.056 0 0 1-1.398 0.083l-5.257-4.133a1.056 1.056 0 0 1-0.1-1.571c4.601-4.666 8.057-8.58 10.367-11.74 2.331-3.19 5.152-8.076 8.463-14.658 0.262-0.521 0.897-0.731 1.418-0.469zM774.944 486.52h-25.131a1.056 1.056 0 0 0-0.957 1.502l0.059 0.109 5.41 8.75c0.17 0.276 0.458 0.457 0.776 0.493l0.121 0.007h14.372c0.327 0 0.633-0.15 0.832-0.405l0.07-0.1 5.348-8.75a1.056 1.056 0 0 0-0.9-1.606z m119.188-3.6H869.55c-0.583 0-1.056 0.473-1.056 1.056v8.085c0 0.583 0.473 1.056 1.056 1.056h24.582a2.111 2.111 0 0 0 2.112-2.111v-5.974a2.111 2.111 0 0 0-2.112-2.112z m-272.679-8.186l0.078 0.096 8.424 11.68a1.056 1.056 0 0 1-0.137 1.391l-0.095 0.078-5.484 4.023a1.056 1.056 0 0 1-1.393-0.127l-0.079-0.094-8.377-11.267a1.056 1.056 0 0 1 0.085-1.361l0.095-0.087 5.437-4.436a1.056 1.056 0 0 1 1.446 0.104z m388.739 2.52c0.583 0 1.055 0.472 1.055 1.055v7.39c0 0.583-0.472 1.056-1.055 1.056h-47.505a1.056 1.056 0 0 1-1.056-1.056v-7.39c0-0.583 0.473-1.055 1.056-1.055h47.505z" fill="#000000"/>
</svg>
