<svg viewBox="0 0 1024 1024" version="1.1" xmlns="http://www.w3.org/2000/svg" height="1em" width="1em">
  <path d="M349.572 621.732h-21.1a0.99 0.99 0 0 1-0.99-0.99v-47.044a0.99 0.99 0 0 1 0.99-0.99h19.913c10.293 0.32 15.756 4.225 16.39 11.718-0.159 6.218-3.484 10.044-9.977 11.479v0.24c7.443 1.275 11.48 5.18 12.114 11.717 0 9.247-5.78 13.87-17.34 13.87z m-1.662-22.24h-12.075a0.99 0.99 0 0 0-0.99 0.99v14.76c0 0.547 0.444 0.99 0.99 0.99h12.55c6.967 0 10.451-2.95 10.451-8.848-0.317-5.102-3.959-7.732-10.926-7.892z m-0.95-21.044h-11.125a0.99 0.99 0 0 0-0.99 0.99v13.086c0 0.547 0.444 0.99 0.99 0.99h11.125c6.492-0.16 9.818-2.79 9.976-7.892-0.158-4.783-3.484-7.174-9.976-7.174z m54.563-5.115l18.691 47.044a0.99 0.99 0 0 1-0.92 1.355h-5.935a0.99 0.99 0 0 1-0.925-0.639l-4.504-11.875a0.99 0.99 0 0 0-0.925-0.639h-20.25a0.99 0.99 0 0 0-0.924 0.639l-4.504 11.875a0.99 0.99 0 0 1-0.925 0.639h-5.936a0.99 0.99 0 0 1-0.919-1.355l18.691-47.044a0.99 0.99 0 0 1 0.92-0.624h7.445a0.99 0.99 0 0 1 0.92 0.624z m-4.524 5.832a0.329 0.329 0 0 0-0.312 0.226l-1.341 4.051a0.99 0.99 0 0 1-0.02 0.055l-0.613 1.538c-1.017 2.612-3.264 8.467-6.74 17.566h16.374a0.99 0.99 0 0 0 0.923-1.345l-6.846-17.786c0-0.16-0.079-0.478-0.237-0.957l-0.52-1.285c-0.445-1.136-0.668-1.823-0.668-2.063z m30.443-6.456h7.247a0.99 0.99 0 0 1 0.842 0.47l24.414 39.705h0.237v-39.186a0.99 0.99 0 0 1 0.99-0.99h5.147a0.99 0.99 0 0 1 0.99 0.99v47.044a0.99 0.99 0 0 1-0.99 0.99h-7.013a0.99 0.99 0 0 1-0.84-0.466l-24.887-39.948v39.424a0.99 0.99 0 0 1-0.99 0.99h-5.147a0.99 0.99 0 0 1-0.989-0.99v-47.044a0.99 0.99 0 0 1 0.99-0.99z m92.006 49.023h-7.21a0.99 0.99 0 0 1-0.807-0.417l-16.332-23.019-9.738 9.805v12.641a0.99 0.99 0 0 1-0.99 0.99h-5.385a0.99 0.99 0 0 1-0.989-0.99v-47.044a0.99 0.99 0 0 1 0.99-0.99h5.384a0.99 0.99 0 0 1 0.99 0.99v25.077l24.648-25.76a0.99 0.99 0 0 1 0.715-0.306h6.958a0.99 0.99 0 0 1 0.706 1.682l-18.776 19.123 20.618 26.623a0.99 0.99 0 0 1-0.782 1.595z m51.028-49.74c15.439 0 23.753 9.326 23.753 25.587s-8.792 24.87-23.991 24.87-23.753-8.519-23.753-24.87 8.551-25.588 23.99-25.588zM570 616.47c10.04 0 15.914-6.348 15.914-18.892s-5.6-19.131-15.677-19.131-15.914 7.174-15.914 19.131 5.636 18.892 15.677 18.892z m68.052-37.545h-25.376v15.305h22.05a0.99 0.99 0 0 1 0.99 0.99v4a0.99 0.99 0 0 1-0.99 0.989h-22.05v20.532a0.99 0.99 0 0 1-0.99 0.99h-5.622a0.99 0.99 0 0 1-0.99-0.99v-47.044a0.99 0.99 0 0 1 0.99-0.99h31.988a0.99 0.99 0 0 1 0.99 0.99v4.239a0.99 0.99 0 0 1-0.99 0.99z m45.329 42.806h-15.4a0.99 0.99 0 0 1-0.99-0.99v-47.044a0.99 0.99 0 0 1 0.99-0.99h15.162c16.31 0.32 24.624 8.45 24.94 24.393 0.317 16.74-7.917 24.95-24.702 24.63z m-0.475-42.806h-7.562a0.99 0.99 0 0 0-0.99 0.99v35.087c0 0.547 0.443 0.99 0.99 0.99h7.562c11.56 0 17.34-6.298 17.34-18.892-0.317-11.798-6.097-17.856-17.34-18.175z m59.788-5.593l18.692 47.044a0.99 0.99 0 0 1-0.92 1.355h-5.935a0.99 0.99 0 0 1-0.925-0.639l-4.504-11.875a0.99 0.99 0 0 0-0.925-0.639h-20.25a0.99 0.99 0 0 0-0.925 0.639l-4.503 11.875a0.99 0.99 0 0 1-0.926 0.639h-5.935a0.99 0.99 0 0 1-0.92-1.355l18.692-47.044a0.99 0.99 0 0 1 0.92-0.624h7.445a0.99 0.99 0 0 1 0.92 0.624z m-4.523 5.832a0.329 0.329 0 0 0-0.312 0.226l-1.34 4.048a0.989 0.989 0 0 1-0.023 0.061l-0.27 0.663c-0.781 1.98-3.142 8.126-7.081 18.438h16.374a0.99 0.99 0 0 0 0.923-1.345l-6.83-17.752a0.873 0.873 0 0 0-0.016-0.034c0-0.16-0.08-0.478-0.237-0.957l-0.363-0.89c-0.55-1.373-0.825-2.192-0.825-2.458z m32.977-6.456h7.246a0.99 0.99 0 0 1 0.843 0.47l24.413 39.705h0.238v-39.186a0.99 0.99 0 0 1 0.989-0.99h5.147a0.99 0.99 0 0 1 0.99 0.99v47.044a0.99 0.99 0 0 1-0.99 0.99h-7.012a0.99 0.99 0 0 1-0.84-0.466l-24.888-39.948v39.424a0.99 0.99 0 0 1-0.99 0.99h-5.146a0.99 0.99 0 0 1-0.99-0.99v-47.044a0.99 0.99 0 0 1 0.99-0.99z m66.944 49.023h-15.4a0.99 0.99 0 0 1-0.99-0.99v-47.044a0.99 0.99 0 0 1 0.99-0.99h15.162c16.311 0.32 24.624 8.45 24.941 24.393 0.317 16.74-7.917 24.95-24.703 24.63z m-0.475-42.806h-7.562a0.99 0.99 0 0 0-0.99 0.99v35.087c0 0.547 0.444 0.99 0.99 0.99h7.562c11.56 0 17.34-6.298 17.34-18.892-0.317-11.798-6.097-17.856-17.34-18.175z m58.353-6.935c15.44 0 23.753 9.237 23.753 25.588s-8.313 24.87-23.99 24.87c-15.677 0-23.753-8.519-23.753-24.87s8.55-25.588 23.99-25.588z m-0.475 44.48c10.135 0 15.915-6.935 15.915-18.892s-5.78-19.131-15.677-19.131c-9.897 0-15.915 7.174-15.915 19.131s5.542 18.892 15.677 18.892z m34.006-43.762h7.246a0.99 0.99 0 0 1 0.843 0.47l24.414 39.705h0.237v-39.186a0.99 0.99 0 0 1 0.99-0.99h5.147a0.99 0.99 0 0 1 0.989 0.99v47.044a0.99 0.99 0 0 1-0.99 0.99h-7.012a0.99 0.99 0 0 1-0.84-0.466l-24.887-39.948v39.424a0.99 0.99 0 0 1-0.99 0.99h-5.147a0.99 0.99 0 0 1-0.99-0.99v-47.044a0.99 0.99 0 0 1 0.99-0.99z m94.498 22v18.175c-3.325 6.217-10.451 9.406-21.378 9.565-15.36-0.797-24.228-9.023-24.228-25.11 0-16.085 8.551-24.55 23.278-25.348 11.243 0.16 19.915 5.297 22.328 15.783-2.295 0.014-4.75 0.014-7.363 0-2.376-6.217-7.364-9.326-14.965-9.326-9.501 0.957-15.44 7.019-15.44 18.892s6.097 18.334 16.39 19.13c6.81-0.159 11.64-2.151 14.49-5.978v-9.565h-14.926a0.99 0.99 0 0 1-0.989-0.99V595.7a0.99 0.99 0 0 1 0.99-0.99H1024z" fill="#1B1918"/>
  <path d="M126.64 385c69.928 0 126.64 56.71 126.64 126.639 0 69.93-56.712 126.64-126.64 126.64C56.71 638.28 0 581.57 0 511.64S56.711 385 126.64 385z m52.17 196.937H74.47c-1.416 4.595-3.191 9.88-4.994 14.563 16.322 11.019 35.994 17.452 57.164 17.452 21.236 0 40.963-6.474 57.315-17.555-1.83-4.715-3.711-9.808-5.145-14.46z m30.12-131.093c-4.619 11.254-16.958 51.741-1.013 122.93 13.19-17.23 21.035-38.766 21.035-62.135 0-22.766-7.443-43.797-20.023-60.795z m-164.578 0.002c-12.582 16.998-20.025 38.027-20.025 60.793 0 23.329 7.818 44.833 20.968 62.045 15.888-71.087 3.667-111.592-0.943-122.838zM172.99 471.51H80.288c3.786 21.402 5.89 48.88 1.365 78.876h89.974c-4.525-29.995-2.426-57.476 1.362-78.876z m-26.462 18.364c3.23 0 4.847 1.615 4.847 4.84v31.874c0 3.226-1.616 4.84-4.847 4.84h-38.783c-3.233 0-4.85-1.614-4.85-4.84v-31.873c0-3.226 1.617-4.84 4.85-4.84z m-19.887-80.548c-21.711 0-41.842 6.772-58.403 18.312 0.744 1.827 2.397 6.078 4.37 12.318h108.065c1.973-6.238 3.626-10.49 4.37-12.318-16.563-11.54-36.692-18.312-58.402-18.312z" fill="#B91B24"/>
  <path d="M703.016 396.086c8.144 1.231 15.897 3.065 23.232 5.527 1.646 0.418 2.454 1.44 2.454 3.064-0.39 1.23-1.435 2.252-3.052 3.063-2.036 1.231-3.264 2.88-3.682 4.925-1.225 4.896-2.638 9.61-4.28 14.114h9.189c4.49-6.967 8.143-11.052 11.014-12.283 2.428 0.42 6.735 3.485 12.844 9.219-0.418-6.965-0.81-12.701-1.227-17.206-0.418-4.085 1.435-5.71 5.507-4.896 8.146 2.854 15.297 5.316 21.406 7.358h19.577c4.1-6.127 6.945-9.192 8.564-9.192 5.325 0.812 11.433 3.876 18.378 9.192 2.844 2.463 3.052 5.132 0.598 7.987-1.644 0.812-2.452 2.252-2.452 4.294v19.642c-0.393 3.693 0 12.074 1.227 25.166 0 3.694-1.227 6.13-3.682 7.36 4.098 2.88 8.378 6.337 12.869 10.448 0.808 1.205 1.018 2.436 0.602 3.667-0.81 1.231-1.828 1.65-3.055 1.231-0.818 0-2.854 0.61-6.107 1.832-6.945 3.693-13.68 6.756-20.206 9.218 6.526 9.01 16.94 16.368 31.194 22.104 2.064 1.622 3.08 2.645 3.08 3.063 0 1.23-1.016 2.253-3.08 3.064-6.108 2.462-9.972 7.359-11.615 14.743-1.227 2.436-3.055 2.854-5.51 1.205-9.787-7.75-17.332-15.948-22.63-24.537-6.108 5.733-27.907 22.704-29.969 23.935-2.062 1.231-3.261 2.462-3.682 3.693-2.844 3.274-5.298 3.667-7.332 1.231-4.1-5.342-7.361-10.658-9.79-15.976-2.035-2.04-1.019-3.874 3.055-5.525 2.845-0.811 4.28-3.063 4.28-6.756v-33.127h-24.487v28.23a195.665 195.665 0 0 0 16.526-6.755c2.452-1.231 4.28-1.231 5.507 0 1.227 1.229 0.627 3.062-1.826 5.525-11.018 11.47-19.188 19.64-24.487 24.564-2.428 2.042-4.28 4.478-5.507 7.358-2.428 4.505-5.09 5.527-7.936 3.065-1.227-1.231-2.664-2.671-4.28-4.296-3.683-3.691-6.344-6.336-7.963-7.987-3.68-3.667-3.471-6.336 0.6-7.961 5.326-3.274 7.754-8.616 7.363-15.974v-25.77h-5.509c-2.873 0.394-5.925 0.812-9.189 1.232-1.225 0.391-2.244 0.391-3.054 0-2.036-3.003-3.053-4.645-3.053-4.925-0.419-1.23 0-1.831 1.225-1.831 6.108 0.811 11.827 1.23 17.126 1.23h2.454v-25.796h-3.083c-4.462 5.736-9.37 11.052-14.67 15.974-2.035 2.045-3.262 2.856-3.679 2.436-0.392 0 0-1.414 1.225-4.294 8.564-26.188 13.263-49.497 14.071-69.95-0.392-4.109 1.228-5.733 4.907-4.922zM995.2 443.373c3.655 1.212 8.5 5.237 14.566 12.101 1.217 1.6 1.632 3.02 1.217 4.233-2.378 0.081-17.603 0-23.065 0 0.388 1.212-0.21 2.425-1.842 3.637-2.022 0.801-3.033 2.22-3.033 4.233v48.974c0.415 6.864 0.805 11.484 1.22 13.908 0.415 7.253-1.608 11.69-6.065 13.318h-1.22c-6.48 2.424-11.74 3.818-15.81 4.23-5.262 0.8-8.087-0.412-8.502-3.637-0.388-6.039-4.042-10.27-10.937-12.696-4.043-1.599-5.468-3.02-4.252-4.232 4.724 0 21.877-0.626 21.877-9.676v-58.059h-27.345c-4.043 0.413-9.518 1.071-11.533 1.212-2.014 0.142-1.817 0.387-3.032 0-1.216-0.386-4.253-3.485-4.253-6.064 0-2.58 0.306-1.228 4.761-0.429 4.354 0.781 7.633 1.036 15.35 1.048h50.96c5.676-8.076 9.306-12.1 10.938-12.1z m-89.796-16.553c2.824 1.606 7.697 4.25 14.562 7.876a15.084 15.084 0 0 0 3.653 1.841c1.607 1.217 2.434 2.617 2.434 4.25 0 1.216-1.01 2.021-3.056 2.435-2.826 0.803-5.053 2.228-6.658 4.25-1.219 1.605-5.674 7.487-8.525 10.312l0.622 0.621c0.414 0.39 0.804 0.39 1.219 0 3.236 1.608 3.832 3.628 1.812 6.064-2.436 0.802-3.446 2.617-3.031 5.468v40.68c0 4.547 0.595 19.849 0.595 23.087 0.414 5.674-1.4 9.3-5.465 10.935-3.63 0.802-7.67 1.607-12.126 2.41-3.653 0.414-4.622 1.233-6.685-0.596-2.063-1.829 0.208-26.51 0.598-34.619v-32.802c-6.48 4.87-12.955 9.12-19.434 12.773-1.605 0.803-2.615 1.01-3.03 0.597-0.414-0.804 0-1.814 1.217-3.033 15.777-16.608 27.931-36.43 36.428-59.517 0.413-2.824 2.02-3.834 4.87-3.032z m-337.945-30.842a130.847 130.847 0 0 1 21.141 6.63c3.217 1.62 2.806 4.036-1.21 7.25-3.219 1.18-5.228 3.596-6.051 7.222-2.007 4.009-3.22 6.426-3.606 7.222h39.834c6.023-10.436 10.66-15.859 13.877-16.27 6.026 1.62 13.26 7.042 21.732 16.27 0.797 1.62 1.006 3.007 0.593 4.215-0.413 0.796-1.21 1.002-2.422 0.616h-20.52c-11.036-0.402-18.603-0.608-22.681-0.616h-32.832c-5.227 10.05-12.874 23.697-22.942 40.97h20.522v-1.8c-0.389-5.243-0.593-10.254-0.593-15.06-0.41-4.422-0.8-7.635-1.21-9.639-1.21-3.625 0.41-5.425 4.842-5.425 5.226 0.386 13.054 1.8 23.532 4.216 3.605 2.39 4.016 5.012 1.186 7.816-2.807 1.618-4.019 3.211-3.606 4.831v15.06h12.075c5.614-9.251 10.043-14.468 13.262-15.678 6.85 2.828 13.878 8.25 21.14 16.27 0.798 1.62 1.183 3.008 1.183 4.216-0.385 0.822-1.184 1.004-2.396 0.618H621.17c-11.453-0.405-18.836-0.61-22.146-0.618h-1.979v39.762c0 7.147 0.591 12.261 0.591 13.855 0.413 10.846-7.235 17.272-22.915 19.276-4.84 0.412-7.442-1.002-7.853-4.215-2.42-8.43-7.235-13.237-14.496-14.445-3.606-0.822-5.408-1.618-5.408-2.416-0.411-1.62 1.598-2.415 6.025-2.415 14.47 1.62 21.115-2.802 19.905-13.237v-36.165h-23.535l-2.395 3.623c-2.42 4.421-5.843 5.22-10.272 2.418-4.016-2.006-8.033-4.627-12.075-7.84-2.011-2.416-1.212-5.014 2.42-7.84 1.208-0.385 2.806-2.005 4.84-4.806 6.435-10.846 12.048-21.282 16.89-31.332-9.921 0.154-16.358 0.359-19.31 0.616-4.43 0.386-8.652 0.798-12.67 1.184-0.823 0.41-4.658-4.215-6.05-6.015-1.391-1.8-1.391-2.595 0.618-1.8 2.009 0.796 6.231 1.208 12.67 1.208 7.234 0.386 14.287 0.592 21.112 0.592h6.05c0-0.412 0.181-1.21 0.592-2.418 0.41-0.795 0.8-1.591 1.21-2.389 3.632-8.044 6.232-15.06 7.854-21.102 0.797-2.005 3.013-2.801 6.616-2.415z m-198.9 0.118c7.023 2.062 14.443 4.943 22.284 8.671 0.821 0.82 1.638 1.429 2.483 1.85h32.16c4.965-6.608 8.662-10.125 11.143-10.52 8.265 4.123 15.685 9.49 22.286 16.099 1.637 2.484 0.82 4.547-2.481 6.187-2.878 1.242-4.12 3.119-3.699 5.578v43.382h0.608c6.601-10.336 11.143-15.704 13.626-16.1 3.697 1.638 9.902 7.219 18.563 16.71 0.816 1.665 1.24 2.907 1.24 3.727-0.424 0.818-1.24 1.242-2.48 1.242h-9.903c-6.206 0-12.992-0.213-20.438-0.635h-1.216v22.948c0.821 12.794 1.216 22.1 1.216 27.865 0.422 8.273-1.637 13.64-6.18 16.126-5.358 2.881-12.172 5.154-20.408 6.82-5.785 0.82-8.689-0.635-8.689-4.363-2.059-9.068-8.026-14.434-17.928-16.1-3.723-1.242-4.331-2.097-4.331-3.727s1.424-2.247 5.571-1.85c3.699 0.819 4.806 0.634 13.597 0.634 8.792 0 12.81-3.305 12.386-12.398v-35.955h-39c0.423 35.53-17.718 59.694-54.446 72.517-2.878 0.82-4.542 1.03-4.964 0.607-0.397-0.82 0.422-2.273 2.483-4.337 21.465-19.403 34.165-42.351 34.165-68.787h-6.31c-11.564 0-19.195 0.422-22.892 1.243-1.242 0.423-6.812-6.4-6.812-6.795 0.422-0.422 1.028-0.633 1.849-0.633 2.48 0.422 7.233 0.817 14.231 1.241h20.54c0.067-5.272 0.1-14.564 0.1-27.878 0-19.97-3.09-36.307-3.293-37.79-0.845-2.486-0.845-4.152 0-4.972 0.819-0.818 2.457-1.03 4.94-0.607z m183.3 86.656c3.614 1.203 9.858 4.61 18.736 10.191 2.299 1.843 1.706 6.606-1.21 6.606-2.402 0-4.622 0.998-6.662 2.997-14.09 16.005-31.432 27.22-52 33.621-1.625 0.41-2.631 0.206-3.019-0.587-0.413-0.82 0-1.614 1.213-2.407 14.917-11.218 26.815-27.22 35.664-48.015 1.215-3.201 3.64-3.994 7.278-2.406z m49.79 2.175c21.12 4.049 36.573 12.382 46.327 24.949 5.28 9.735 3.667 16.848-4.865 21.287-8.14 2.856-13.837 0.83-17.09-6.075-5.279-13.395-14.2-25.545-26.816-36.502-1.613-1.22-2.03-2.023-1.224-2.44 0.417-0.803 1.639-1.22 3.669-1.22z m180.28-17.636h-8.561v50.935c1.225 0 3.473-0.417 6.734-1.23 4.882-1.23 8.562-2.252 11.016-3.063-6.526-11.864-9.579-27.42-9.188-46.642z m16.524 0h-10.387c1.617 8.17 4.88 16.76 9.787 25.769 3.655-4.896 6.918-10.421 9.789-16.577l-2.454 0.629c-4.905 1.623-7.151 0.393-6.735-3.691v-6.13z m-47.717-10.45h-24.487v25.167c3.682-6.938 6.736-10.84 9.189-11.652 3.681 0.811 8.772 4.085 15.298 9.82v-23.334z m-322.767-45.254H391.45c-1.637 1.218-2.27 3.915-1.848 8.038v47.718h38.366v-55.756z m370.484 28.704h-25.085v22.078h25.085V440.29z m-403.314-19.673c16.167 3.836 25.531 10.686 28.09 20.55 1.252 10.686-2.775 17.316-12.14 19.893-7.648 0.849-11.677-2.768-12.113-10.906-0.436-9.864-2.776-18.195-7.023-25.045-1.278-1.725-1.498-3.013-0.626-3.862 0.408-0.437 1.688-0.63 3.812-0.63z m355.597 10.455H715.86c-3.265 7.778-6.944 14.719-11.016 20.873h20.806c4.882-7.359 8.143-10.843 9.787-10.45 3.265 0.42 8.354 3.694 15.298 9.82v-20.243z m152.78-35.075c6.822 4.878 12.23 8.928 16.23 12.17 1.206 1.635 1.616 3.245 1.206 4.88-0.41 1.218-1.411 1.817-3 1.817-2.795 0-5 0.803-6.615 2.437-14.41 12.172-29.434 22.292-45.075 30.414-1.588 0.805-2.385 0.805-2.385 0-0.41-0.83 0-1.842 1.18-3.061 14.845-14.585 25.846-30.208 33.05-46.815 0.82-1.634 3.108-3.128 5.409-1.842z m-105.063 17.896h-21.406c-2.87 0-4.096 1.022-3.68 3.064v18.41h25.086v-21.474z m186.341-9.106c3.63 1.206 8.652 5 15.088 11.41 1.21 1.615 1.62 2.82 1.21 3.615-0.386 0.795-1.598 1.205-3.604 1.205h-10.273c-4.428 0-10.249-0.205-17.483-0.59H942.57c-4.428 0.385-8.238 0.795-11.456 1.179-3.306 0.277-5.048-3.59-5.433-4.793-0.41-0.795-0.618-1.205-0.618-1.205 0.412-0.412 1.003-0.591 1.803-0.591 4.84 0.796 10.684 1.18 17.505 1.18h30.176c4.84-7.59 8.24-11.41 10.246-11.41z" fill="#1B1918"/>
</svg>
