<svg viewBox="0 0 1024 1024" xmlns="http://www.w3.org/2000/svg" height="1em" width="1em">
  <path d="M224 0h576c123.6 0 224 100.4 224 224v576c0 123.6-100.4 224-224 224H224C100.4 1024 0 923.6 0 800V224C0 100.4 100.4 0 224 0z" fill="#FFF"/>
  <path d="M525.6 172c109.2 4.4 212 62 272.4 156.4 30.8 48 50 104.4 53.2 164.8v25.2c-1.2 65.2-21.2 126-54 177.6-37.6 58.8-93.6 106.4-164 133.2-35.6 13.6-72 20.8-108.4 22.4v-.4c-4.4 0-9.2.4-13.6.4s-9.2 0-13.6-.4v.4c-114-4.8-221.2-67.2-280.4-169.2-25.2-44-41.2-95.2-44.4-149.6l-.4-4.8v-16 .4c0-78 26-149.6 70-206.8l2.4-3.2c32.4-41.2 74.8-75.6 125.2-98.8 10-4.8 20.4-8.8 31.2-12.4 32.4-11.2 64.8-17.2 97.6-18.4v.4c4.4 0 9.2-.4 13.6-.4 4-.8 8.8-.8 13.2-.8zM512 258c-42 0-81.6 10-116.4 28-60 37.2-87.2 112.8-60.8 181.2 21.2 55.2 71.6 90.8 126.8 95.6V648c-87.2-4.8-167.6-58.4-203.2-143.6v7.6c0 140.4 113.6 254 254 254 42 0 81.6-10 116.4-28.4 60-37.2 87.2-112.8 61.2-180.8-21.2-55.2-71.6-90.8-126.8-95.6V376c87.2 4.8 167.6 58.4 203.2 143.2v-7.6C766 371.6 652.4 258 512 258zm-50.8 203.2h101.2v101.6H461.2V461.2z" fill="#DE0112"/>
</svg>
