<svg viewBox="0 0 1024 1024" version="1.1" xmlns="http://www.w3.org/2000/svg" height="1em" width="1em">
  <path d="M269.148 432.808h15.745l1.467-2.793h14.096l-1.344 2.793h52.018v10.95h-56.185L284.66 462.52h20.73v-11.97H318.3v11.97h32.48v10.742H318.3v30.854c0 2.025-0.165 3.565-0.526 4.62-0.351 1.001-1.23 2.089-2.593 3.178-1.35 1.09-4.264 1.63-8.762 1.63h-10.904v-10.287h6.908c1.187 0 1.968-0.212 2.353-0.664 0.425-0.462 0.617-1.436 0.617-2.952v-26.379h-35.977v-9.824l10.337-19.68h-10.604v-10.95z m19.326 46.611h13.283l-13.283 28.348c-1.262 2.684-2.477 4.315-3.67 4.894-1.185 0.604-3.556 0.883-7.031 0.883h-8.118v-9.953h5.108c1.761 0 3.036-0.848 3.79-2.495l9.92-21.677z m35.076-0.36h13.198l5.73 18.949 0.714 2.004c0.247 0.761 0.553 1.4 0.924 1.867 0.378 0.5 1.163 0.762 2.412 0.762h4.422v10.097h-7.43c-4.169 0-6.725-0.29-7.679-0.876-0.96-0.574-1.692-1.384-2.214-2.386-0.521-0.974-0.884-1.795-1.062-2.402l-9.015-28.015z m42.275 24.698h6.962c1.423 0 2.687-0.412 3.733-1.214 1.059-0.804 2.111-2.134 3.156-3.91l3.131-5.527h13.812l-9.212 14.3c-1.17 1.774-2.488 3.132-3.993 4.02-1.496 0.895-4.365 1.344-8.568 1.344h-9.021v-9.013z m79.751-53.433v12.85h-11.618v-3.849h-56.03v3.85H366.42v-12.851h31.648l1.824-4.53h10.72l1.731 4.53h33.233z m-79.156 16.883h79.156v8.987H366.42v-8.987z m0 22.994v-9.178h79.156v9.178h-16.402v9.775c0 1.806 0.178 2.888 0.554 3.231 0.39 0.367 1.217 0.55 2.496 0.55h13.352v9.013h-16.402c-4.927 0-7.934-0.59-9.02-1.776-1.088-1.228-1.79-2.593-2.043-4.206-0.294-1.57-0.43-3.1-0.43-4.554V490.2H366.42z m22.271-47.402v4.506h-11.426V442.8h-10.656v-9.278h10.656v-3.327h11.426v3.327h35.598v-3.506h11.591v3.506h10.38v9.278h-10.38v4.506h-11.59V442.8H388.69z m73.037 24.721h11.04c1.047 0 1.878-0.137 2.416-0.485 0.545-0.318 1.02-0.935 1.423-1.836l9.656-20.856H473.93v8.506h-11.372v-18.852h27.347l2.16-3.982h12.19l-1.471 3.982h38.381v18.852h-11.402v-8.506h-31.186l-12.19 27.212c-0.456 1.047-1.082 2.13-1.87 3.31-0.777 1.153-1.37 1.81-1.778 1.94l-1.776 0.828v21.16c0 0.953 0.11 1.662 0.292 2.13 0.205 0.457 0.504 0.83 0.94 1.134 0.413 0.286 1.312 0.464 2.648 0.464h10.596v10.25h-16.572c-1.239 0-2.54-0.206-3.887-0.638-1.334-0.445-2.396-1.065-3.151-1.892-0.716-0.84-1.308-1.983-1.71-3.416-0.393-1.47-0.59-3-0.59-4.633v-24.377h-7.8V467.52z m36.273-11.104h11.86l4.95 17.965h7.431c1.458 0 2.43-0.225 2.968-0.642 0.51-0.417 0.906-1.024 1.198-1.832l3.633-10.942h12.122l-5.798 16.488c-0.836 2.368-1.94 4.164-3.336 5.372-1.38 1.216-3.565 1.83-6.458 1.83h-9.134l3.69 13.38c0.311 1.1 0.619 1.953 0.93 2.58a3.286 3.286 0 0 0 1.512 1.394c0.702 0.334 1.62 0.512 2.84 0.512h14.756v10.25h-18.168c-3.062 0-5.56-0.535-7.473-1.591-1.939-1.088-3.272-3.058-4.043-5.922l-13.48-48.842z m86.504-8.262v63.843h-10.268v-63.843h-15.832v-9.883h15.832v-8.079h10.268v8.079h14.513v9.883h-14.513z m-26.1 61.034v-8.25h1.606c0.627 0 1.086-0.185 1.38-0.603 0.293-0.399 0.457-1.454 0.457-3.149v-44.252h8.58v47.506c0 1.248-0.129 2.385-0.375 3.428-0.254 1.014-0.915 2.152-1.969 3.416-1.06 1.264-2.816 1.904-5.236 1.904h-4.443z m30.064-56.254h8.71v44.126c0 1.731 0.67 2.583 1.977 2.583h1.381v8.742h-4.451c-1.107 0-2.242-0.243-3.377-0.695-1.122-0.485-2.128-1.248-2.981-2.313-0.833-1.064-1.259-2.921-1.259-5.594v-46.849z m13.023-15.045h23.155v-7.874h10.604v7.874h3.589v10.36h-3.59v54.522c0 2.016-0.58 4.06-1.768 6.124-1.177 2.066-3.762 3.102-7.767 3.102h-20.167v-9.724h16.693c0.664 0 1.265-0.287 1.717-0.892 0.472-0.594 0.689-1.52 0.689-2.852v-50.28h-23.155v-10.36z m18.028 47.983v9.232h-6.623c-3.261 0-5.286-0.919-6.098-2.746-0.807-1.838-1.203-4.53-1.203-8.128v-30.15h10.242v26.654c0 2.005 0.19 3.325 0.525 3.925 0.368 0.633 0.874 0.974 1.503 1.021l1.654 0.192z m102.392-43.242v8.461h11.336v53.579c0 1.929-0.304 3.42-0.925 4.544-0.598 1.093-1.657 1.955-3.172 2.605-1.511 0.632-2.853 0.951-4.024 0.951h-8.651l0.38-10.113h2.796c0.731 0 1.35-0.31 1.813-0.934 0.503-0.633 0.754-1.451 0.754-2.42v-38.92l-13.607-0.027 0.844 3.638c0.334 1.433 0.728 2.34 1.21 2.773 0.469 0.399 1.427 0.598 2.881 0.598h4.397v8.695h-7.952c-4.438 0-7.218-0.688-8.339-2.09a11.046 11.046 0 0 1-2.2-4.821l-1.822-8.793h-5.58l-1.883 7.952c-0.605 2.472-1.542 4.486-2.806 6.034-1.264 1.512-3.717 2.288-7.326 2.288h-7.667v-8.605h5.214c1.209 0 2.026-0.948 2.453-2.88l1.025-4.79-13.448 0.028v52.387h-10.887v-61.679h12.164v-8.461h-13.808v-9.356h32.096l2.304-3.259h10.874l2.434 3.26h31.953v9.355h-12.831z m-6.088 37.635v20.582c0 1.924-0.502 3.848-1.44 5.752-0.96 1.899-3.195 2.869-6.662 2.869h-33.517v-29.203h41.62z m-3.105-37.635h-34.648l3.468 8.461h27.244l3.936-8.461z m-28.199 46.983v10.57h18.173c0.741 0 1.347-0.2 1.802-0.626 0.469-0.405 0.707-0.907 0.707-1.497v-8.447H684.52z m66.465 11.566h23.556v-72.71h10.998v72.71h9.708v-72.71h11.06v72.71h25.113v10.818h-80.435v-10.818z m0-68.401h10.833l2.327 42.106c0.108 2.278 0.367 3.643 0.826 4.144 0.401 0.501 1.173 0.754 2.292 0.754h2.497v10.455h-7.463c-1.072 0-2.17-0.183-3.282-0.514-1.113-0.36-2.026-0.83-2.73-1.475-0.697-0.632-1.27-1.568-1.746-2.823a12.775 12.775 0 0 1-0.792-3.949l-2.762-48.698z m79.256-0.497l-2.824 48.682c-0.07 1.447-0.518 3.258-1.319 5.454-0.803 2.187-3.205 3.278-7.19 3.278h-7.456v-10.413h2.449c1.11 0 1.877-0.254 2.297-0.755 0.438-0.466 0.718-1.859 0.888-4.14l2.265-42.106h10.89z m16.535 22.052h33.048v10.04H865.71V474.6h14.334v9.767H865.71v14.313c0 1.628 0.166 2.624 0.52 2.99 0.348 0.343 1.168 0.549 2.414 0.549h8.493v9.778h-14.406c-1.234 0-2.539-0.187-3.93-0.633-1.406-0.406-2.518-1.195-3.315-2.332-0.798-1.142-1.2-2.939-1.2-5.432v-19.05h-8.171v-9.95h8.17v-10.227h-7.509v-10.04z m16.985-18.669h16.063v9.675h-18.519l-1.18 2.148a8.739 8.739 0 0 1-2.264 2.717c-0.93 0.742-2.818 1.107-5.629 1.107h-5.92v-9.45h1.767c1.555 0 2.544-0.208 2.96-0.637 0.436-0.455 0.832-1.565 1.193-3.36l1.652-8.622h11.036l-1.16 6.422z m20.074-5.559h43.392v27.644c0 4.802-0.225 7.887-0.642 9.283-0.41 1.435-1.302 2.692-2.627 3.81-1.335 1.122-2.639 1.77-3.889 1.914-1.246 0.157-3.142 0.219-5.707 0.219h-19.325v23.97c0 2.215 0.225 3.597 0.64 4.126 0.396 0.55 1.01 0.817 1.815 0.817h5.526v9.806h-6.72c-2.824 0-4.967-0.09-6.385-0.234-1.405-0.151-2.66-0.694-3.792-1.659-1.098-0.958-1.76-2.086-1.958-3.298-0.227-1.268-0.328-3.237-0.328-5.961v-70.437z m11.016 17.618h21.264v-7.997h-21.264v7.997z m21.264 9.345h-21.264v6.703h18.691c0.873 0 1.521-0.273 1.917-0.835a2.97 2.97 0 0 0 0.656-1.876v-3.992z m12.755 19.047v5.902c0 2.075-0.149 3.907-0.422 5.498-0.254 1.614-2.45 2.418-6.548 2.418h-5.785l1.628 7.895c0.465 2.23 0.835 3.532 1.182 3.847 0.34 0.358 0.661 0.55 0.969 0.626l2.006-0.082h5.987v9.778h-7.018c-4.952 0-8.158-0.558-9.576-1.683-1.461-1.122-2.348-2.694-2.763-4.736l-6.36-29.621h11.209l1.254 6.06h4.018c0.935 0 1.578-0.155 1.835-0.46 0.26-0.33 0.383-0.839 0.383-1.553v-3.89h8.001z m30.768-26.307h8.776l-5.261 12.136v51.6h-12.984v-42.118h-7.377v-11.1h4.407c1.095 0 1.898-0.178 2.41-0.555 0.484-0.373 1.174-1.478 2.051-3.312l2.623-5.663-0.53 0.058h-10.961v-11.167h7.532c0.9 0 1.71-0.234 2.372-0.728 0.674-0.535 1.377-1.553 2.084-3.077l3.135-6.64h13.657l-5.326 12.08c-1.873 4.337-4.101 7.177-6.608 8.486z m45.905 12.946h-33.47V451.73H1024v11.023h-5.397v37.448c0 3.306-0.347 5.876-1.028 7.702-0.668 1.807-1.724 3.09-3.188 3.873-1.446 0.78-3.72 1.175-6.806 1.175l-25.447 0.09 0.047-11.01h20.216c1.171 0 1.995-0.303 2.465-0.852 0.457-0.57 0.681-2.047 0.681-4.437v-33.99z m-32.457-21.062V430.66h50.293v11.03h-50.293z" fill="#1B1918"/>
  <path d="M268.375 542.973h20.818c7.682 0 13.905 1.663 18.761 4.944 3.822 2.558 6.573 5.956 8.31 10.218 1.6 3.88 2.383 8.052 2.383 12.52 0 6.98-1.635 12.906-4.936 17.82-2.385 3.558-5.355 6.285-8.922 8.146-3.584 1.88-7.547 2.811-11.912 2.811h-24.502c0.305-0.795 0.47-1.699 0.47-2.737v-50.95c-0.042-1.183-0.178-2.097-0.47-2.772z m14.771 49.9h5.08c4.461 0 7.927-1.52 10.37-4.55 3.4-4.104 5.062-9.923 5.062-17.45 0-7.745-2.105-13.593-6.306-17.551-2.664-2.498-6.029-3.762-10.08-3.762h-4.126v43.312z m58.728-18.859v22.647c0 1.075 0.135 2.006 0.462 2.771h-15.182c0.284-0.627 0.426-1.549 0.451-2.77V545.75a8.38 8.38 0 0 0-0.45-2.777h22.726c4.554 0 8.347 1.087 11.367 3.24 4.12 2.93 6.165 7.052 6.165 12.423 0 3.675-1.016 6.732-3.082 9.22-1.659 1.978-4.695 3.732-9.065 5.243l14.723 23.817c0.736 1.188 1.435 2.015 2.023 2.516H354.88a8.402 8.402 0 0 0-0.831-2.597l-12.175-22.82z m0-4.427h2.852c2.188 0 3.929-0.626 5.229-1.854 2.04-1.945 3.07-4.731 3.07-8.301 0-3.225-0.745-5.795-2.237-7.692-1.497-1.891-3.52-2.852-6.09-2.852h-2.824v20.699z m75.77-24.71v9.704c-2.752-2.14-5.158-3.643-7.213-4.479-2.048-0.885-4.257-1.303-6.616-1.303-5.11 0-9.077 1.998-11.863 5.976-2.851 4.032-4.277 9.481-4.277 16.308 0 7.263 1.58 12.891 4.771 16.86 2.967 3.74 6.854 5.604 11.693 5.604 2.311 0 4.481-0.435 6.501-1.371 2.008-0.897 4.367-2.445 7.004-4.66v9.487c-2.974 1.196-5.673 2.052-8.023 2.516-2.366 0.459-5.096 0.686-8.171 0.686-9.417 0-16.492-2.42-21.258-7.314-4.947-5.064-7.407-12.443-7.407-22.083 0-6.378 1.095-11.506 3.237-15.39 4.948-8.826 13.904-13.219 26.88-13.219 5.28 0 10.178 0.897 14.742 2.677z" fill="#E30016"/>
  <path d="M447.033 543.746h24.179c4.718 0 8.497 1.124 11.313 3.363 2.99 2.38 4.5 5.917 4.5 10.622 0 4.94-1.79 8.427-5.364 10.478-1.175 0.726-2.904 1.402-5.237 2.092 2.732 0.582 4.927 1.477 6.62 2.743 3.314 2.511 4.98 6.116 4.98 10.834 0 5.758-2.097 10.044-6.316 12.822-2.762 1.82-6.02 2.732-9.78 2.732h-24.895c0.324-0.722 0.48-1.672 0.48-2.78v-50.167c-0.034-1.158-0.176-2.072-0.48-2.739z m14.647 24.463h2.883c2.733 0 4.705-0.493 5.912-1.54 0.812-0.683 1.464-1.788 1.98-3.32 0.511-1.501 0.781-3.147 0.781-4.903 0-5.791-2.585-8.667-7.756-8.667h-3.8v18.43z m0 25.217h4.497c5.062 0 7.578-3.041 7.578-9.076 0-6.856-2.942-10.292-8.855-10.292h-3.22v19.368z m55.755 1.509c-1.526 1.639-2.958 2.785-4.261 3.478-2.301 1.203-5 1.792-8.129 1.792-3.582 0-6.452-1.04-8.532-3.118-2.573-2.56-3.848-5.961-3.848-10.174 0-4.615 1.609-8.174 4.85-10.653a18.948 18.948 0 0 1 4.548-2.665c1.539-0.61 4.516-1.594 8.933-2.867 2.069-0.58 3.596-1.353 4.484-2.259 0.918-0.892 1.366-2.074 1.366-3.579 0-1.64-0.667-2.986-2.004-4.028-1.343-1.023-3.092-1.517-5.27-1.517-2.01 0-3.8 0.28-5.326 0.887-1.589 0.606-3.52 1.712-5.822 3.336l-1.641-7.342c5.781-2.14 11.466-3.199 17.049-3.199 5.312 0 9.368 0.946 12.15 2.87 2.796 1.93 4.206 4.735 4.206 8.377v24.755c0 2.04 0.748 3.085 2.307 3.085 0.7 0 1.595-0.409 2.707-1.225v6.548c-1.772 1.108-3.263 1.842-4.423 2.222-1.18 0.358-2.612 0.546-4.308 0.546-2.36 0-4.185-0.392-5.468-1.152-1.303-0.767-2.462-2.126-3.568-4.118z m-0.589-20.688c-0.816 0.436-2.845 1.404-6.052 2.912-1.69 0.771-3.047 1.94-4.078 3.526-1.012 1.603-1.528 3.313-1.528 5.125 0 1.893 0.482 3.383 1.446 4.493 0.97 1.127 2.245 1.68 3.868 1.68 1.837 0 3.356-0.631 4.544-1.854 1.2-1.236 1.8-2.807 1.8-4.718v-11.164z m23.77-20.053h13.23v5.036c1.485-1.888 2.896-3.218 4.264-4.005 2.552-1.477 5.505-2.198 8.929-2.198 4.78 0 8.43 1.448 10.888 4.368 1.625 1.904 2.451 4.679 2.451 8.324v30.963c0 0.983 0.134 1.907 0.456 2.75h-14.11c0.295-0.643 0.435-1.57 0.455-2.75V568.26c0-4.145-1.952-6.222-5.813-6.222-2.228 0-3.961 0.653-5.223 2.007-1.248 1.34-1.886 3.209-1.886 5.568v27.07c0.053 1.097 0.175 2.033 0.444 2.75h-14.085c0.267-0.71 0.422-1.624 0.464-2.75V556.93c0-1.091-0.164-1.99-0.464-2.736z m63.177 23.732v18.762c0.033 1.046 0.183 1.953 0.472 2.744h-14.15c0.295-0.708 0.464-1.62 0.464-2.744V541.86c0-1.1-0.17-2.017-0.464-2.755h14.15c-0.29 0.718-0.439 1.63-0.472 2.755v31.094l12.279-16.21c0.553-0.725 0.998-1.548 1.359-2.459h10.484c-0.572 0.446-1.351 1.29-2.395 2.582l-11.157 13.219 16.3 26.852c0.657 1.1 1.311 1.938 1.99 2.493H616.65c-0.557-1.394-0.94-2.267-1.163-2.65l-11.695-18.856z" fill="#1B1918"/>
  <path d="M177.64 548.35H61.471v62.103h66.11c15.815 0 25.26-11.548 25.26-11.548s29-29.04 34.27-34.046c10.718-10.202 10.349-24.514 10.349-24.514s-2.648 8.005-19.822 8.005" fill="#9B0F11"/>
  <path d="M0 595.289c0 9.443 8.146 15.164 15.162 15.164h47.522V474.765l-44.11-0.014C4.32 474.75 0 484.94 0 484.94v110.348z" fill="#C20714"/>
  <path d="M46.178 422.262c-4.17 3.865-23.14 23.434-34.758 34.567C-0.47 468.22 0.055 480.05 0 484.885c0.34-0.62 5.788-10.293 18.794-10.157 7.762 0.067 98.12 0.046 116.17 0.035 0-22.163 0.014-41.07 0.05-44.434 0.22-15.579-6.32-17.2-7.593-17.314-4.209 0-32.973-0.01-49.004-0.01h-7.799c-10.753 0.005-18.624 3.845-24.44 9.257z" fill="#9B0F11"/>
  <path d="M134.993 430.615c0 8.526-0.02 90.028 0 118.312l42.761-0.003c17.105 0 19.707-7.994 19.707-7.994v-60.778c0-15.767-11.607-25.51-11.607-25.51s-26.477-26.821-31.673-31.865c-10.099-9.786-21.843-9.78-26.117-9.774-0.309 0-0.579 0-0.807-0.003 0.883 0.021 7.73 1.153 7.736 17.615" fill="#C20714"/>
</svg>
