<svg viewBox="0 0 1024 1024" xmlns="http://www.w3.org/2000/svg" height="1em" width="1em">
  <path d="M224 0h576c123.6 0 224 100.4 224 224v576c0 123.6-100.4 224-224 224H224C100.4 1024 0 923.6 0 800V224C0 100.4 100.4 0 224 0z" fill="#FFF"/>
  <path d="M322 502.4c88.8-42 149.2-105.2 189.2-198.4 25.2 37.6 29.2 71.6 83.2 125.6 14.4 14.4 37.6 32.8 58.4 46.4 12.8 8.4 60.8 30.8 67.2 36.4-10.4 6.8-24 10.8-34.8 16.4-36.8 19.2-61.2 39.2-89.6 67.6C529.2 662.8 549.2 662 512 720c-31.6-51.2-26-68-84-125.6-58.8-58.4-87.2-56.8-124-82l18-10zm180-328.8c-43.2 13.6-53.6 60.8-93.2 79.2-43.2 20.4-120-16-143.6 26.8-22 40 14.8 93.6-20.8 143.2-16.8 23.2-83.2 58-70.4 102.4 10.4 34.8 64 54.4 80 91.2 18 40.8-13.2 118.8 22.4 141.2 39.6 24.8 103.2-9.6 144 20 31.2 22.8 56.4 82 101.2 73.6 30.4-5.6 61.6-63.2 92-79.6 40.4-21.6 112.8 13.2 141.6-22 28-34-10.4-104 23.6-147.2 26.8-34 80.8-59.6 72.4-99.2-6.8-32.4-62.4-61.2-79.2-92-23.6-42.8 14.4-120.4-25.6-145.2-39.6-24.8-103.2 14.4-146.8-23.6-31.2-27.6-59.2-80.8-97.6-68.8z" fill="#735222"/>
</svg>
