<svg viewBox="0 0 1024 1024" version="1.1" xmlns="http://www.w3.org/2000/svg" height="1em" width="1em">
  <path d="M288.475 442v-7.1h79.9v7.1h-79.9z m664.5-0.1v-7h68.4v7H952.975z m-647.7 61.2h15.4v-13.8h-15.4v13.8z m622-49.5h-20.7c9.6-7.5 16-14.4 20.7-21H945.975c-4.5 7.1-10.2 14-18.7 21z m-177 2.6h12.9c-0.8 9.7-3.1 18.8-7 27.3h8v6.8h-18.8c4.9 12.1 16.3 32.1 24.3 40.7h-17.9c-5.8-6.1-13.8-21.8-18.7-34-5 12.2-13 28-18.8 34h-18.1c8.1-8.6 19.5-28.6 24.4-40.7h-18.9v-6.8h8c-3.9-8.5-6.2-17.7-7-27.3h12.9c1.2 9.5 3.7 18.2 8.3 27.3h1.8v-37.3h-24v-6.8h24v-6.8h14.6v6.8h24v6.8h-24v37.2h1.8c4.4-9.1 7-17.7 8.2-27.2zM890.975 490.8c-3 7.9-7 15.6-12.1 22.9 5.3 5.7 11.5 11.3 18.5 17.3h-20c-11.6-9-25.6-28.6-31.1-40.2h15.5c2.5 4.4 5.3 8.8 8.7 13.1 2.8-4.4 5.2-8.8 7.1-13.1H890.975z m-86.4-58.2c-0.3 2.3-0.8 4.5-1.3 6.8h17.6v6.8h-19.8c-1.5 3.6-3.4 7-5.6 10.2h-16.4c5.6-8.1 8.8-15.5 10.2-23.8h15.3z m-534.6 0c4.5 4.8 7.6 10 9.3 15.6h-15.5c-1.9-5.3-5.3-10.2-10.5-15.6H269.975z m263.9 0c4.1 6.3 7.6 13.4 8.8 20.9H527.975c-1.4-7.1-5-13.8-9.8-20.9h15.7z m8.8 47.7c2.2 11.9-2.7 34.3-9.9 51h-16c7.2-16.8 15-38.1 11.2-51-2.5-8.6-5-13.8-9.8-20.9H533.975c4 6.3 7.5 14.9 8.7 20.9z m-237.4 43.6h15.4v-13.7h-15.4v13.7z m46.5-13.7h-16.4V524h11.9c3.4 0 4.5-1.4 4.5-4v-9.8z m-16.4-7.1h16.4v-13.8h-16.4v13.8z m33 18.1c0 6.3-2.5 9.8-10.3 9.8h-69.6V482.2h79.9v39z m-22.2-64.5h-35.5v11h31c3.2 0 4.5-1.2 4.5-3.6v-7.4z m16.8 8.6c0 6.1-2.7 9.4-10.6 9.4H293.975v-25h69v15.6z m117.3-2.7h-15.9v10.6h12c2.7 0 3.9-1.3 3.9-3.4v-7.2z m-15.8-7h15.9v-10.8h-15.9v10.8zM696.975 516.1c0 5.3-2.2 8-8.8 8h-36v-81.3h11v74.4h4.9v-84.6h13v84.5h1.3c2.5 0 3.6-1 3.6-3v-71.3h11v73.3z m115.4 8h8.5v7h-19.3c-7.7 0-10.2-3.5-10.2-9.8v-31H780.975v-6.8h10.3V468H780.975v-7h39.9v7h-13v15.5h13v6.8h-13v29.6c0 2.7 1.1 4.2 4.5 4.2z m193.9-2.4c0 5.9-2.7 9.3-10.5 9.3h-39.9v-7h27.9c3.4 0 4.5-1.4 4.5-4.1v-51.1h-39v-7h75.6v7h-18.7v52.9z m-133.8-58.6h-30v14.2l25.4-0.1c3.5 0 4.5-1.4 4.5-4.1v-10z m-29.9-6.9h30v-14.3h-30v14.3z m46.7 18.4c0 6.2-2.6 9.5-10.3 9.5h-36.4v36.2c0 2.5 1.2 3.7 4.4 3.7h12.9v7h-24c-7.6 0-9.9-3.6-9.9-9.8V434.9h63.4v39.7z m-338.2-17h-6.5c4.8-8.6 7.7-16.5 9.2-25h14.7c-0.3 2.3-0.8 4.5-1.2 6.8h65.5v6.8h-67.4c-1.2 3.5-2.6 6.7-4.3 9.9h59.4c7.2 0 9.6 3.6 9.6 9.8v20.2h4.9v7h-4.9V531h-16.7v-7h-53.1c-6.8 0-9.3-3.5-9.3-9.3v-57.1z m16.6 28.6h20c-1.8-5.5-5.3-10.7-11.4-16.4h15.9c5.2 4.9 8.6 10.4 10.1 16.4h11.1v-19c0-2.7-1.2-4.1-4.6-4.1h-41.1v23.1z m45.7 30.9v-24h-45.7v20.2c0 2.6 1.3 3.7 4.5 3.7H587.975c-1.8-5.9-5.3-11.2-11.6-17.1h15.9c5.4 5.2 8.9 11 10.2 17.1h10.9z m-332.7-64.4c2.5 0 3.4 1.7 2.8 3.5-1.4 6-3.2 12-5.4 17.6 4.1 4.5 7 9.4 8.5 14.7h-10.2V531h-15.2v-33.7h-10.8c7.4-12.2 12.4-23.3 16.3-35.2 0.4-1.5 0.3-2.5-1.5-2.5h-11.6v-7h27.1z m136.1 13.5c2.8 0 3.2 1.4 2.8 3.5-2.2 11-4.9 21.5-7.9 31.3 4 7 8.3 13.8 12.8 20.6 1 1.5 2.5 2.4 4.8 2.4h18.5v-11h-25v-7h25v-9.3h-25v-7h25v-9.8h-25v-7h25v-10.3h-24.9v-7h24.9v-10.8h-25v-7h25v-5.3h16.7v5.3H496.975v17.8h5.8v7H496.975v7.7c0 6.3-2.5 9.8-10.2 9.8h-22.3v9.8H496.975v7h-32.5v9.3H496.975v7h-32.5v11h35.6v7h-78.4c-3.9 0-6.6-1.7-8.4-4.2-2.3-3.5-4.5-7-6.8-10.6-1.9 5.3-3.9 10.2-6.1 14.8h-15.8c4.9-10.8 8.9-21 12.3-31.3-2.7-4.9-5.4-9.9-8-15.1h12.5c1-3.6 1.9-7.2 2.8-10.8 0.3-1.7 0-2.3-1.7-2.3h-13.4c3.7-6.6 8-17.4 11.2-25.8 0.4-1.4 0-2.4-2.1-2.4h-8.9v-6.8h25.8c2.5 0 3.5 1.5 2.8 3.5-1.7 5.5-6.6 17.8-10.5 26.3h9.4zM919.375 531v-53.3h-12.8c9.6-7.6 16-14.4 20.7-21H945.975c-2.7 4.3-5.9 8.5-9.9 12.8V531h-16.7z m-289.2 61.3v-36.9h11.6v16.9c5-6.3 9.8-12.7 13.3-16.9h12.1l-14.5 18.4 14.5 18.5H654.975c-3.4-4.3-8.3-10.7-13.3-16.9v16.9h-11.5z m366.2-1.8s-0.1-0.3-0.1-0.4l-11.1-21.8v25.5H972.975v-36.9h10.3c2.8 0.1 3.4 0.4 4.5 2.2 2 4.1 6.6 13.2 11 21.7v-23.9h13.5v36.9H998.875v-0.4c-0.9-0.3-1.5-1-2.1-2.4l-0.4-0.5z m-544.1-29.9l-5.4 17h10.7l-5.3-17z m-11.5-0.8c1.2-3.7 1.6-4.3 5-4.4h13.1c3.6 0.1 4 0.8 5.1 4.4l10.3 32.5h-11.8l-3-9.4h-14.1l-2.9 9.4h-11.8l10.1-32.5z m-121.9 17.8h10.7l-5.3-17-5.4 17z m16.9-17.8l10.3 32.5h-11.8l-3-9.4h-14.1l-2.9 9.4h-11.8l10.3-32.5c1-3.7 1.6-4.3 5-4.4h13.1c3.2 0.1 3.8 0.8 4.9 4.4z m-49.7 11.3v-15.7h13.3v36.9h-13.3v-15.9h-12.8v15.9h-13.1v-36.9h13.1v15.7h12.8z m662-9c-1.3 4.3-3.3 10.7-5.3 17h10.7l-5.4-17z m-11.5-0.8c1.2-3.7 1.6-4.3 5.1-4.4H954.775c3.4 0.1 3.8 0.8 5 4.4l10.3 32.5h-11.8l-2.9-9.4h-14.1l-3 9.4h-11.8l10.1-32.5z m-540.2-5.9h12.2l-11.8 17.9c4.6 6.8 9.5 14.3 12.6 19h-13.8l-5.8-8.6-5.8 8.6h-13.8l12.8-19-12-17.9h12.2c1.1 0 1.7 0.1 2.5 1.3l4.1 6.2 4.2-6.2c0.7-1.2 1.3-1.3 2.4-1.3z m16 36.9v-36.9h12.8v36.9h-12.8z m-61 0v-36.9h12.8v36.9h-12.8zM827.575 575v5.3h-20.8v13.4h-13.1v-32.2c0-3.7 0.9-4.7 5.5-4.7h28.4v5.5h-19.1c-1.4 0-1.7 0.1-1.7 1.5V575h20.8z m-57.3 0v5.3h-20.8v13.4h-13.1v-32.2c0-3.7 0.9-4.7 5.5-4.7h28.4v5.5h-19.1c-1.4 0-1.7 0.1-1.7 1.5V575h20.8z m87.6-18.1h12.6v23.2c0 9.4-3.8 13.7-15.2 13.7h-6.6c-11.4 0-15.2-4.3-15.2-13.7v-23.2h12.6v24.4c0 5.7 2 7.1 5.8 7.1s5.8-1.4 5.8-7.1v-24.4z m51.8 36.9v-36.9h12.8v36.9h-12.8z m-9.8-7.3c0 4.7-2.1 7.4-8.6 7.4h-14v-5.3h5.8c2.7 0 3.7-1.1 3.7-3v-28.5h13.1v29.4zM606.475 589c-0.1-0.1-0.1-0.3-0.3-0.4L594.975 566.8v25.5h-12.3v-36.9h10.4c2.8 0 3.5 0.4 4.6 2.2 2.3 4.3 7.4 14.3 12 23.2v-25.4h12.2v36.9h-10.2c-3.2-0.1-3.7-0.5-4.9-2.8l-0.3-0.5z m-48.7-28.4l-5.3 16.9h10.7l-5.4-16.9z m-11.6-0.9c1.2-3.7 1.6-4.3 5.1-4.3h13.1c3.4 0 3.8 0.6 5 4.3l10.3 32.6h-11.9l-2.9-9.5h-14.1l-3 9.5H535.975l10.2-32.6z m-39.8 17v10.2h6.2c10.8 0 10.8-10.2 0-10.2h-6.2z m0.7-15.8c-0.5 0.1-0.7 0.5-0.7 1.5v8.5h4.6c10.8 0 10.8-10 0-10h-3.9z m9-5.5c10.4 0 15.2 4.3 15.2 10.5 0 2.9-1.2 5.6-3.6 7.4 3.6 1.9 5.1 4.8 5.1 8.5 0 6.2-4.9 10.5-15.2 10.5h-23.9V560c0-3.7 0.9-4.6 5.7-4.6h16.7z m199.3 26.9v-16.9c0-2.6-2.1-4.7-4.6-4.7h-5.3c-2.5 0-4.6 2.1-4.6 4.7v16.9c0 2.6 2.1 4.7 4.6 4.7h5.3c2.5 0 4.6-2.1 4.6-4.7z m-5.3-26.9c8.5 0 16.6 0.5 16.6 15.3v5.5c0 14.2-8.1 16.1-16.6 16.1h-3.4c-8.5 0-16.9-1.5-16.9-16.1v-5.5c0-14.2 8.5-15.3 16.9-15.3h3.4z" fill="#005BAB"/>
  <path d="M68.375 527.3C54.575 554.1 14.175 581.1 8.975 571.2c-1-2.6-1.9-5.2-2.6-8.2-8.5-34.6-8.5-67.7 0-102.1 5.7-21.8 16.6-32.7 38.1-38.5 34.4-8.6 67.3-8.6 101.7 0 3.2 0.9 6.3 1.9 9.1 3 3.8 2.4-1.2 14.8-4.6 20.7-7 12.3-37.3 47.9-59.3 36.7-23.3-11.9-31.9-14.7-44.1-4.9 20.2 6 30.1 32.1 21.1 49.4z m117.2-66.2c8.5 34.5 8.5 67.6 0 102.1-5.7 21.7-16.6 32.6-38.1 38.4-34.3 8.5-67.1 8.5-101.5 0-3.4-0.9-6.5-2-9.5-3.2-3.2-2.4-2.3-7.2 0.2-12.4 10.1-20 40.5-49.4 51.7-50.6 19.1-2 31.6 24.4 62.9 12.1-14.8-3.1-32.9-25.3-30.9-44.3 1.2-11.2 30.5-41.9 50.3-52 4.9-2.5 9.5-3.3 11.6-0.1 1.3 3 2.4 6.3 3.3 10z" fill="#047AC6"/>
  <path d="M2.175 482c6 13.2 16.6 22.4 31.7 27.6 9.8 3.4 23.2 5.2 37.6 7-0.4 3.8-1.4 7.4-3.1 10.7-13.8 26.8-54.2 53.8-59.4 43.9-1-2.6-1.9-5.2-2.6-8.2-6.8-27.5-8.2-54-4.2-81z m180.7 89.7c-6.2 16.2-16.9 24.9-35.4 29.9-34.3 8.5-67.1 8.5-101.5 0-3.4-0.9-6.5-2-9.5-3.2-3.2-2.4-2.3-7.2 0.2-12.4 10.1-20 40.5-49.4 51.7-50.6 19.1-2 31.6 24.4 62.9 12.1-9-1.9-19.4-10.9-25.5-22 3.8 1 7.4 2.2 10.9 3.6 18 6.9 33.4 21.1 46.2 42.6z" fill="#036AB8"/>
</svg>
