<svg viewBox="0 0 1024 1024" xmlns="http://www.w3.org/2000/svg" height="1em" width="1em">
  <path d="M224 0h576c123.6 0 224 100.4 224 224v576c0 123.6-100.4 224-224 224H224C100.4 1024 0 923.6 0 800V224C0 100.4 100.4 0 224 0z" fill="#FFF"/>
  <path d="M398.4 160c0 1.2.4 2 .4 3.2V262c0 2.8-.8 3.6-3.6 3.6-13.6.8-27.2.4-40.8 2.4-22.4 3.2-42.4 11.2-57.6 28.8-12.4 14.8-19.6 33.2-19.6 52.8-.4 22 0 44.4 0 66.8v338.8c0 3.2.8 4.4 4.4 4.4H394c3.2 0 3.6-.8 3.6-3.6V571.6c0-3.2.8-4 4-4H604c3.2 0 4 .8 4 4v99.2c0 3.2-.4 4.4-4 4.4h-97.6c-2.8 0-3.6.8-3.6 3.6v186.4h-328c-2.8 0-3.2-.8-3.2-3.2V366.8c1.2-4.8 1.2-9.6 0-14.4v-6.8c.8-.4.8-1.2.8-2 .4-8.4 1.2-16.4 2-24.8 4.4-43.6 23.6-79.2 56-108.4C262 180.8 300 167.6 341.2 162c5.6-.8 10.8-.4 16-2h41.2z" fill="#0095CC"/>
  <path d="M608.4 864c0-1.2.4-2.8.4-4v-92c0-6-.8-5.2 5.2-5.6 43.6-2 80-19.2 107.2-53.6 18.8-24 26.4-51.6 25.6-81.6-.8-16.8-2.8-33.2-8.4-49.2-7.6-21.6-21.6-39.2-38.8-54-4.4-4-8.8-7.6-13.2-11.2-3.2-2.8-2.8-3.2.4-5.2 20.8-14 35.2-32.4 40.4-57.6.8-4.4 1.2-9.2 1.2-13.6V273.2c0-3.2-.8-4-4-4h-110c-2.8 0-3.6.8-3.6 3.6v182.8c0 3.2-.8 4-4 4H404c-3.2 0-4-.8-4-4v-98.8c0-3.2.8-3.6 4-3.6h96.4c3.2 0 4-.8 4-4V160.8h326.4v237.6c0 17.6 0 35.2-.8 52.4-.8 19.6-5.2 37.2-18 52.4-4.4 5.2-4 5.2-.4 10.8 20.8 30 34 64.8 38.4 100.8.8 4.8.4 10 2 14.8v29.6c-.8.4-.8 1.2-.8 2-.4 4.8-.8 9.2-1.6 14-6 41.2-24.4 79.6-53.2 110.4-38.4 41.6-86.4 65.6-142 75.6-5.6 1.2-11.2 1.2-16.8 2.8h-29.2z" fill="#00A29D"/>
</svg>
