<svg viewBox="0 0 1024 1024" xmlns="http://www.w3.org/2000/svg" height="1em" width="1em">
  <path d="M224 0h576c123.6 0 224 100.4 224 224v576c0 123.6-100.4 224-224 224H224C100.4 1024 0 923.6 0 800V224C0 100.4 100.4 0 224 0z" fill="#FFF"/>
  <path d="m212 213.2 1.2 597.2c111.6 3.6 176.4-24 228.4-60.8 41.6-29.6 68-67.2 86.4-103.2 17.6-34.4 21.2-60.8 46.8-87.2 14.4-14.8 32.8-30.8 70.4-45.6v-2c-32.4-12.4-56.8-28-71.6-47.2-6.4-8-5.2-8.8-2.4-18.4 18.4-69.6 89.2-123.2 157.2-135.6l-.8 402c-30.8-1.6-62.8-19.2-85.6-36-28-20.4-48.4-47.2-63.6-78.4l-2.8-.4c-10.4 37.2-26.4 68.8-45.6 97.2 56.4 80.8 149.2 120.8 282 116.8v-598c-53.6-3.6-102 1.2-143.2 15.2-82.8 28-139.6 85.2-164 135.6C475.2 426 458 487.6 379.6 509.2c-3.2 4.4-2 3.2 2.4 4.8 31.2 12.4 57.6 29.2 74 54-.4 19.6-29.2 66-50.8 88-28.8 29.2-65.2 46.4-106 56.8l-1.2-402c75.2 13.6 120 60 151.2 120.8 9.2-40 25.2-74.8 47.2-105.2C428 245.6 334.8 204.8 212 213.2" fill="#B41D22"/>
</svg>
