<svg viewBox="0 0 1024 1024" xmlns="http://www.w3.org/2000/svg" height="1em" width="1em">
  <path d="M224 0h576q224 0 224 224v576q0 224-224 224H224Q0 1024 0 800V224Q0 0 224 0Z" fill="#FFF"/>
  <path d="M220.688 180H800.76c15.78 0 28.692 12.9 28.692 28.664v481.684c-85.572-30.704-196.94-49.268-318.72-49.268-50.536 0-99.28 3.2-145.132 9.128v-21.8s5.096-19.044 34.344-19.044h253.1s97.928 1.432 97.928-69.68c0-59.128-108.1-48.26-128.452-48.26H366.872s-31.792-27.94 7.632-35.56h277.264s105.56-7.62 105.56-69.84c0-62.228-104.288-63.5-104.288-63.5H411.388s73.764-59.684 75.04-86.36h-81.4s-76.308 82.552-123.368 82.552c0 0 29.248 26.672 29.248 44.448l324.324 3.812s34.34-3.812 34.34 21.588c0 25.396-26.704 20.32-34.34 20.32H350.34s-90.3-5.084-90.3 54.596c0 59.692 52.148 68.58 95.392 68.58h275.992s33.068 0 33.068 21.588c0 21.584-24.168 19.048-30.528 19.048H351.608s-58.456 6.224-59.748 89.892c-36.064 7.544-69.576 16.888-99.86 27.76V208.66c0-15.76 12.912-28.66 28.688-28.66" fill="#337CC6"/>
  <path d="M829.444 728.692v89.18c0 15.884-12.908 28.88-28.688 28.88H220.688c-15.776 0-28.68-12.996-28.68-28.88v-89.18c32.012-7.904 67.64-14.64 106.088-19.968 17.24 54.196 64.392 72.948 67.508 72.948v-80.584c45.852-4.076 94.588-6.28 145.12-6.28 121.784 0 233.152 12.764 318.72 33.88" fill="#FDB41C"/>
</svg>
