<svg viewBox="0 0 1024 1024" version="1.1" xmlns="http://www.w3.org/2000/svg" height="1em" width="1em">
  <path d="M224 0h576c123.6 0 224 100.4 224 224v576c0 123.6-100.4 224-224 224H224c-123.6 0-224-100.4-224-224V224C0 100.4 100.4 0 224 0z" fill="#FFFFFF"/>
  <path d="M499.2 172.4c-47.6 3.2-88.4 14-114 38.4-4-14.4-18.8-10.8-30.4-7.6-54 17.6-121.6 86.8-144.8 140.4-5.2 12.4-15.2 34.8 1.6 42-21.6 25.6-35.2 61.6-38.8 106-0.4 6.8-0.8 13.6-0.8 20.4 0 6.8 0.4 13.6 0.8 20.4 3.2 44.4 16.8 80.8 38.8 106.4-16.4 7.2-6.8 29.6-1.6 42 23.2 53.6 90.4 122.8 144.8 140.4 11.6 3.2 26 6.8 30.4-7.6 25.6 24 66.4 35.2 114 38.4 4.4 0.4 8.8 0.4 13.2 0.4 4 0 8.4-0.4 12.8-0.4 47.6-2.8 88.4-14 114-38.4 4 14.4 18.8 10.8 30.4 7.6 54-17.6 121.6-86.8 144.8-140.4 5.6-12.4 15.2-34.8-1.2-42 21.6-25.6 35.2-61.6 38.4-106.4 0.4-6.8 0.8-13.6 0.8-20.4 0-6.8-0.4-13.6-0.8-20.4-3.2-44.4-16.8-80.8-38.4-106 16.4-7.2 6.8-29.6 1.2-42-23.2-53.6-90.4-122.8-144.8-140.4-11.6-3.2-26-6.8-30.4 7.6-25.6-24-66.4-35.2-114-38.4-4.4-0.4-8.8-0.4-12.8-0.4-4.8 0-8.8 0-13.2 0.4z m14.8 22.4h3.2c18.8 0 37.6-0.8 53.6-2.8-6.4 6-10.8 14.4-9.6 26.8 1.6 21.2 14.4 35.6 22.8 49.2-18.8-9.2-42.4-15.6-70-16.4h-0.4c-27.6 0.8-51.2 7.2-70 16.4 8.8-13.6 21.2-28 22.8-49.2 0.8-12.4-3.2-20.8-9.6-26.8 16 2 34.8 2.8 53.6 2.8h3.6zM712 251.6c3.2-0.8 6.4-2 6.4-5.6 0-2-1.2-4.4-2.4-5.6 19.2 15.6 44 41.6 64 66.8-10.4-6.4-10.4 8.4-10 16.8 0.4 4.4 0.8 8.8 1.6 12.4-17.2-36.4-48.8-66.4-83.6-84.8 3.2 0.4 8.8 1.2 14 1.2 3.6-0.4 7.2-0.4 10-1.2zM307.6 240c-1.2 1.6-2.8 3.6-2.4 5.6 0 3.6 3.6 5.2 6.4 5.6 7.2 1.6 18.8 0.8 24-0.4-34.4 18.8-66 48.8-83.2 85.2 0.8-3.6 1.2-8 1.6-12.4 0.4-8.4 0.4-23.2-10-16.8 19.6-25.2 44.4-51.2 63.6-66.8zM576 342.8c38-13.6 71.6-30.8 83.2-70.8 16.4 24 50.4 61.2 79.6 84 2 1.6 6.8 5.6 13.2 10.4-20 5.2-33.6 18.4-44 33.2-10.8 14.8-19.2 32.8-24.8 52.4-20-52-55.6-88.4-107.2-109.2zM316 399.6c-10.8-14.8-24-28-44-33.2 6.4-4.4 11.2-8.4 13.2-10.4 29.6-22.8 63.2-60 79.6-84C376 312 410 329.2 448 342.8 396.4 363.6 361.2 400 340.8 452c-5.6-19.6-14-37.6-24.8-52.4z m186 208c-20.8-44.8-56.4-76.8-106-93.6 49.2-16.8 85.2-48.8 106-93.6 3.2-6.4 5.2-13.6 8.4-20.4 2.8 6.8 5.2 14 8 20.4 20.8 44.8 56.4 76.8 105.6 93.6-49.2 16.8-84.8 48.8-105.6 93.6-3.2 6.4-5.2 13.6-8 20.4-3.2-6.8-5.6-14-8.4-20.4z m269.2-93.6c0-27.2-6.4-51.2-15.2-70 14 11.6 33.2 21.6 49.2 22 10 0.4 18.4-4.4 22.8-10-2 16.4-2.8 36.8-2.8 58 0 21.2 1.2 41.6 2.8 58-4.8-5.6-12.8-10.4-22.8-10-16 0.4-34.8 10.4-49.2 22 8.8-18.8 15.2-42.8 15.2-70z m-552.4-48c16-0.4 35.2-10.4 49.2-22-8.8 18.8-15.2 42.8-15.2 70 0 27.2 6.4 51.2 15.2 70-14-11.6-33.2-21.6-49.2-22-10 0-18 4.4-22.8 10 2-16.4 2.8-36.8 2.8-58 0-20.8-1.2-41.6-2.8-58 4.4 5.6 12.4 10 22 10h0.8z m357.2 215.2c51.6-20.4 87.2-57.2 107.2-109.2 5.6 20 14 37.6 24.8 52.4 10.8 14.8 24 28 44 33.2-6.4 4.4-10.8 8.4-13.2 10.4-29.6 22.4-63.2 60-79.6 84-11.6-40-45.2-57.2-83.2-70.8zM285.2 668c-2-1.6-6.8-5.6-13.2-10.4 20-5.2 33.6-18.4 44-33.2 10.8-14.8 19.2-32.8 24.4-52.4 20.4 52 55.6 88.4 107.2 109.2-38 13.6-72 30.8-83.2 70.8-16-24-49.6-61.6-79.2-84z m486.4 20c-0.8 3.6-1.2 8.4-1.6 12.4-0.4 8.4-0.4 23.2 10 16.8-19.6 25.2-44.4 51.2-64 66.8 1.6-1.6 2.8-3.6 2.4-5.6 0-3.6-3.6-5.2-6.4-6-7.2-1.6-18.8-0.8-24 0.4 34.8-18.8 66.4-48.4 83.6-84.8z m-517.6 12.4c-0.4-4.4-1.2-8.8-1.6-12.4 17.2 36.4 48.8 66 83.6 84.8-5.6-0.8-17.2-2-24-0.4-3.2 0.8-6.4 2-6.4 6 0 2 1.2 4.4 2.4 5.6-19.2-15.6-44-41.6-63.6-66.8 1.6 1.2 3.2 1.6 4.4 1.6 5.6 0 5.6-11.2 5.2-18.4z m260 72c28-0.8 51.2-7.2 70-16.4-8.8 13.6-21.6 28.4-22.8 49.2-0.8 12.4 3.2 20.8 9.6 26.8-16.8-2-36.8-3.2-56.8-2.8-20 0-40 0.8-56.8 2.8 6.4-6 10.8-14.4 9.6-26.8-1.6-21.2-14-35.6-22.8-49.2 18.8 9.2 42 15.6 70 16.4z" fill="#CE253D"/>
</svg>
