<svg viewBox="0 0 1024 1024" version="1.1" xmlns="http://www.w3.org/2000/svg" height="1em" width="1em">
  <path d="M224 0h576c123.6 0 224 100.4 224 224v576c0 123.6-100.4 224-224 224H224c-123.6 0-224-100.4-224-224V224C0 100.4 100.4 0 224 0z" fill="#FFFFFF"/>
  <path d="M644 754c-57.6 0-107.2 33.6-129.2 82h-9.6c-22-48.4-71.6-82-129.2-82v-23.6c57.6 0 107.2-33.6 129.2-82h9.6c22 48.4 71.6 82 129.2 82v23.6z m-130-152c-57.2 0-106.4 33.6-128.4 82H376c-22-48.4-71.2-82.4-128.4-82.4v-23.6c57.2 0 106.4-33.6 128.4-82h9.6c22 48.4 71.2 82 128 82 57.2 0 106.4-33.6 128.4-82h9.6c22 48.4 71.2 82 128.4 82v23.6c-57.2 0-106.4 33.6-128.4 82.4h-9.6c-21.6-48.4-70.8-82-128-82z m-135.2-156c-57.2 0-106.4 33.6-128.4 82h-9.6c-22-48.4-71.2-82.4-128.4-82.4v-23.6c57.2 0 106.4-33.6 128.4-82h9.6c22 48.4 71.2 82.4 128.4 82.4s106.4-33.6 128.4-82.4h9.6c22 48.4 71.2 82 128.4 82S752 388.4 774 340h9.6c22 48.4 71.2 82.4 128.4 82.4v23.6c-57.2 0-106.4 33.6-128.4 82h-9.6c-22-48.4-71.2-82.4-128.4-82.4s-106.4 33.6-128.4 82.4h-9.6c-22.4-48.4-71.6-82-128.8-82z m135.2-152c-57.2 0-106.4 33.6-128.4 82H376c-22-48.4-71.2-82.4-128-82.4v-23.6c57.2 0 106.4-33.6 128.4-82h9.6c22 48.4 71.2 82.4 128.4 82.4s106.4-33.6 128-82.4h9.6c22 48.4 71.2 82 128.4 82v23.6c-57.2 0-106.4 33.6-128.4 82.4h-9.6c-22-48.4-71.2-82-128.4-82z" fill="#B21E27"/>
</svg>
