<svg viewBox="0 0 1024 1024" version="1.1" xmlns="http://www.w3.org/2000/svg" height="1em" width="1em">
  <path d="M218.302 482.581c28.187 0 51.116 22.922 51.116 51.098 0 28.175-22.93 51.097-51.116 51.097-4.178 0-8.236-0.515-12.127-1.463 0.91 3.79 1.41 7.738 1.419 11.802 0.061 28.177-22.82 51.148-51.004 51.21-4.61 0.01-9.073-0.604-13.327-1.744a58.151 58.151 0 0 0 15.18-13.405c18.983-1.027 34.092-16.809 34.05-36.03-0.043-19.85-16.234-35.966-36.092-35.924-19.858 0.044-35.98 16.228-35.938 36.08 0.002 0.04 0.005 0.077 0.005 0.115l-7.436 5.391-7.654-6.078c0.265-27.896 23.007-50.542 50.991-50.602 4.215-0.01 8.31 0.504 12.234 1.461a50.973 50.973 0 0 1-1.418-11.91c0-4.713 0.656-9.271 1.854-13.605a58.143 58.143 0 0 0 13.284 15.06c0.768 19.18 16.609 34.548 35.979 34.548 19.86 0 36.017-16.152 36.017-36.003 0-19.853-16.157-36.003-36.017-36.003-9.273 0-17.738 3.524-24.13 9.298a29.243 29.243 0 0 1-5.242-15.077c8.319-5.86 18.446-9.316 29.372-9.316zM51.117 540.837C22.93 540.837 0 517.916 0 489.74c0-28.175 22.93-51.096 51.117-51.096 4.178 0 8.235 0.514 12.127 1.464a50.98 50.98 0 0 1-1.42-11.804c-0.059-28.176 22.82-51.148 51.004-51.208 4.61-0.01 9.074 0.603 13.327 1.742a58.152 58.152 0 0 0-15.18 13.405c-18.982 1.027-34.091 16.809-34.05 36.03 0.043 19.85 16.233 35.966 36.09 35.925 19.86-0.043 35.982-16.228 35.939-36.081 0-0.04-0.004-0.077-0.004-0.115l7.436-5.39 7.655 6.077c-0.266 27.896-23.008 50.543-50.992 50.602-4.215 0.01-8.31-0.504-12.233-1.461a50.973 50.973 0 0 1 1.417 11.91c0 4.713-0.656 9.271-1.854 13.606a58.143 58.143 0 0 0-13.283-15.06c-0.768-19.18-16.61-34.549-35.98-34.549-19.86 0-36.017 16.152-36.017 36.003 0 19.853 16.158 36.003 36.018 36.003 9.272 0 17.737-3.523 24.129-9.298a29.243 29.243 0 0 1 5.242 15.077c-8.317 5.861-18.446 9.316-29.371 9.316z m112.91 54.372c0.062 28.176-22.82 51.148-51.005 51.21-28.185 0.059-51.164-22.813-51.226-50.99a51.03 51.03 0 0 1 1.532-12.525 51.105 51.105 0 0 1-12.212 1.484C22.93 584.388 0 561.465 0 533.292c0-4.608 0.622-9.069 1.772-13.317a58.13 58.13 0 0 0 13.377 15.203c0.985 18.977 16.741 34.115 35.967 34.115 19.86 0 36.016-16.15 36.016-36.001 0-19.853-16.156-36.003-36.016-36.003-0.038 0-0.076 0.005-0.114 0.005l-5.378-7.447 6.096-7.638c27.908 0.325 50.513 23.11 50.513 51.083 0 4.281-0.538 8.44-1.535 12.416a51.077 51.077 0 0 1 12.104-1.486 51.06 51.06 0 0 1 13.613 1.823 58.127 58.127 0 0 0-15.036 13.312c-19.186 0.81-34.525 16.676-34.482 36.04 0.041 19.852 16.234 35.969 36.092 35.926 19.86-0.043 35.981-16.23 35.938-36.081-0.018-9.27-3.563-17.724-9.353-24.101a29.237 29.237 0 0 1 15.071-5.272c5.881 8.301 9.36 18.418 9.383 29.34z m-58.636-167c-0.062-28.176 22.82-51.147 51.005-51.209 28.185-0.06 51.165 22.812 51.226 50.989a51.04 51.04 0 0 1-1.532 12.526 51.105 51.105 0 0 1 12.212-1.485c28.187 0 51.116 22.923 51.116 51.096 0 4.609-0.622 9.07-1.772 13.317a58.13 58.13 0 0 0-13.376-15.203c-0.986-18.976-16.742-34.115-35.968-34.115-19.86 0-36.016 16.15-36.016 36.001 0 19.853 16.156 36.003 36.016 36.003 0.038 0 0.076-0.005 0.114-0.005l5.379 7.447-6.097 7.639c-27.908-0.325-50.513-23.11-50.513-51.084 0-4.28 0.538-8.438 1.535-12.416a51.012 51.012 0 0 1-12.103 1.487 51.06 51.06 0 0 1-13.614-1.824 58.096 58.096 0 0 0 15.036-13.312c19.186-0.809 34.525-16.676 34.482-36.039-0.041-19.853-16.234-35.97-36.092-35.927-19.86 0.044-35.98 16.23-35.938 36.081 0.019 9.271 3.563 17.725 9.353 24.101a29.252 29.252 0 0 1-15.07 5.272c-5.882-8.3-9.36-18.418-9.383-29.34zM332.563 646.418H1024V638H332.563z" fill="#CA7038"/>
  <path d="M332.563 400.184h23.584v-22.132h15.524v22.132h57.916v-22.132h15.524v22.132h23.584v14.804H445.11v100.787h-15.524v-7.925H371.67v8.074h-15.524V414.988h-23.584v-14.804z m39.108 92.861h57.916v-32.449H371.67v32.45z m0-46.954h57.916v-31.103H371.67v31.103z m229.178-2.243h-43.437v71.927h-15.225v-71.927H500.69v-13.907h41.497v-7.626h-58.96V407.96h58.96v-7.776H500.54v-13.907h41.646v-8.225h15.225v8.225h43.437v21.683h16.12v14.355h-16.12v21.533z m-43.437-43.664v7.776h28.211v-7.776h-28.211z m0 22.131v7.626h28.211v-7.626h-28.211z m33.287 27.216h14.628v66.693h-14.628V449.53z m-67.768 6.28l12.987 1.645c-1.493 17.197-5.374 32.45-11.643 45.758l-13.285-4.187c6.418-12.561 10.449-26.917 11.941-43.216z m52.692-0.748c3.88 13.459 7.314 28.113 10.299 43.964l-13.583 3.14c-2.538-16.748-5.672-31.552-9.404-44.412l12.688-2.692z m-78.067-5.682h14.33v11.066c-0.299 25.72-6.867 44.561-19.554 56.524l-11.643-10.318c11.045-9.57 16.718-24.972 16.867-46.206V449.38z m151.41-71.329l14.926 3.14a414.565 414.565 0 0 1-2.351 8.98l-0.784 2.834h26.271v14.804h-31.346c-2.09 5.084-4.18 9.87-6.418 14.355h34.331v14.057h-13.882v15.103h18.808v14.355h-18.808v28.86c4.777-1.644 9.553-3.738 14.33-6.28l2.538 13.309c-9.255 4.486-19.853 8.225-31.944 11.215l-5.97-12.86c4.18-1.196 6.418-3.14 6.418-5.832V465.68h-20.3v-14.355h20.3v-15.103h-7.911v-9.87c-1.493 2.692-3.135 5.384-4.627 8.075l-12.837-8.075c9.105-15.103 15.524-31.252 19.255-48.3z m59.408 45.16v12.86h36.271v-12.86h-36.271z m36.271-13.458v-13.309h-36.271v13.309h36.271z m13.434 44.412l9.852 9.72c-5.97 7.477-12.837 13.458-20.3 17.645 5.672 7.776 12.837 14.356 21.494 20.038l-8.21 13.458c-22.39-16-35.824-37.683-40.302-65.048h-12.24v45.31c7.165-2.094 14.33-4.786 21.346-7.926l3.582 13.608c-10.03 4.047-22.402 7.964-37.114 11.751l-3.188 0.81-3.284-13.01c2.687-0.897 4.03-2.243 4.03-4.336V382.389h65.08v67.59h-24.479c1.343 7.178 3.433 13.907 6.27 19.888 5.97-3.738 11.791-8.972 17.463-15.7z m78.717-68.637h73.44v15.402h-73.44V385.53z m-3.583 37.085h83.44v15.402h-22.986v62.656c0 9.87-5.523 14.804-16.57 14.804h-21.643l-3.433-15.253c6.866 0.598 13.434 1.047 19.703 1.047 4.03 0 6.12-1.495 6.12-4.486v-58.768h-44.63v-15.402z m-22.39-44.113l14.18 6.73c-7.91 16.299-21.494 31.103-40.75 44.411l-4.776-15.701c14.031-10.019 24.48-21.832 31.346-35.44z m7.016 34.393l14.03 6.58c-3.88 7.776-8.806 15.253-14.777 22.43v74.17h-15.374v-58.768c-5.075 4.187-10.598 8.374-16.27 12.412l-4.777-15.402c16.718-11.664 29.107-25.57 37.168-41.422z m-465.28 180.2V553.43h15.935c3.154 0 5.506 0.13 7.056 0.392 1.55 0.262 2.937 0.807 4.16 1.637 1.224 0.83 2.244 1.934 3.06 3.314 0.815 1.38 1.223 2.927 1.223 4.64a9.206 9.206 0 0 1-1.51 5.114c-1.005 1.551-2.37 2.715-4.092 3.49 2.43 0.704 4.297 1.903 5.602 3.599 1.305 1.695 1.958 3.688 1.958 5.98 0 1.803-0.422 3.557-1.265 5.262-0.843 1.704-1.994 3.066-3.453 4.085-1.46 1.02-3.259 1.646-5.398 1.88l-0.358 0.034c-1.513 0.125-4.63 0.204-9.35 0.237H352.56z m8.049-33.063v9.172l6.744-0.003c2.284-0.013 3.743-0.057 4.377-0.132 1.378-0.162 2.461-0.636 3.25-1.42 0.788-0.785 1.183-1.818 1.183-3.098 0-1.227-0.34-2.223-1.02-2.99-0.68-0.766-1.69-1.23-3.032-1.393l-0.433-0.036c-1.05-0.066-3.199-0.1-6.446-0.1h-4.623z m0 15.774v10.606h7.45c2.901 0 4.74-0.081 5.52-0.243 1.197-0.217 2.171-0.744 2.924-1.583 0.752-0.839 1.128-1.962 1.128-3.369 0-1.19-0.29-2.2-0.87-3.03-0.58-0.83-1.419-1.434-2.515-1.813-1.097-0.378-3.476-0.568-7.138-0.568h-6.5z m68.198 17.29h-8.756l-3.48-9.01h-15.935l-3.29 9.01h-8.538l15.526-39.665h8.512l15.961 39.664z m-14.82-15.693l-5.492-14.72-5.384 14.72h10.877z m19.28 15.692V553.43h7.832l16.315 26.488V553.43h7.478v39.664h-8.076l-16.07-25.866v25.866h-7.478z m40.354 0V553.43h8.05v17.613l16.26-17.613h10.822l-15.01 15.449 15.826 24.215h-10.414l-10.959-18.615-6.526 6.63v11.985h-8.049z m54.169-19.589c0-4.04 0.607-7.431 1.821-10.173a18.663 18.663 0 0 1 3.712-5.438c1.568-1.605 3.286-2.796 5.153-3.571 2.484-1.047 5.348-1.57 8.593-1.57 5.873 0 10.573 1.813 14.099 5.439 3.526 3.625 5.289 8.667 5.289 15.124 0 6.403-1.75 11.413-5.249 15.03-3.498 3.616-8.175 5.424-14.03 5.424-5.928 0-10.642-1.799-14.14-5.397-3.5-3.599-5.248-8.554-5.248-14.868z m8.293-0.27c0 4.491 1.042 7.896 3.127 10.214 2.085 2.317 4.732 3.476 7.94 3.476 3.209 0 5.842-1.15 7.9-3.45 2.057-2.3 3.086-5.749 3.086-10.348 0-4.546-1.002-7.937-3.005-10.173-2.003-2.237-4.663-3.355-7.98-3.355-3.318 0-5.992 1.131-8.022 3.395-2.03 2.264-3.046 5.677-3.046 10.24z m36.819 19.86V553.43h27.328v6.71h-19.28v9.388h16.642v6.71H580.95v16.856H572.9z m68.2-14.584v-6.683h17.348v15.8c-1.686 1.624-4.129 3.054-7.329 4.29-3.2 1.235-6.44 1.852-9.72 1.852-4.17 0-7.805-0.87-10.905-2.61-3.1-1.741-5.429-4.23-6.988-7.468-1.559-3.238-2.338-6.76-2.338-10.565 0-4.131 0.87-7.802 2.61-11.012 1.74-3.21 4.287-5.673 7.64-7.387 2.557-1.316 5.738-1.975 9.545-1.975 4.95 0 8.815 1.033 11.598 3.098 2.782 2.066 4.572 4.92 5.37 8.564l-7.994 1.488c-0.562-1.948-1.618-3.486-3.168-4.613-1.55-1.128-3.485-1.691-5.806-1.691-3.517 0-6.313 1.109-8.388 3.327-2.076 2.22-3.114 5.51-3.114 9.876 0 4.708 1.051 8.239 3.154 10.592 2.103 2.354 4.859 3.531 8.267 3.531 1.686 0 3.376-0.329 5.071-0.987 1.695-0.659 3.15-1.457 4.364-2.395v-5.032H641.1z m60.828 14.583h-8.755l-3.48-9.01h-15.935l-3.29 9.01h-8.539l15.527-39.664h8.51l15.962 39.664z m-14.82-15.692l-5.492-14.72-5.384 14.72h10.877z m19.28 15.692V553.43h7.832l16.315 26.488V553.43h7.478v39.664h-8.076l-16.07-25.866v25.866h-7.478z m38.207-12.906l7.83-0.757c0.472 2.615 1.428 4.536 2.87 5.763 1.44 1.226 3.385 1.84 5.832 1.84 2.593 0 4.546-0.546 5.86-1.637 1.314-1.092 1.971-2.368 1.971-3.829 0-0.938-0.276-1.736-0.829-2.394-0.553-0.659-1.518-1.231-2.896-1.718l-0.359-0.118c-0.807-0.254-2.15-0.62-4.028-1.098l-2.057-0.516c-4.315-1.064-7.342-2.372-9.082-3.923-2.448-2.183-3.671-4.843-3.671-7.982 0-2.02 0.575-3.91 1.726-5.668 1.152-1.759 2.81-3.098 4.977-4.018 2.166-0.92 4.78-1.38 7.844-1.38 5.004 0 8.77 1.092 11.299 3.274 2.528 2.183 3.856 5.096 3.983 8.74l-8.049 0.351c-0.344-2.038-1.083-3.504-2.216-4.397-1.133-0.892-2.832-1.339-5.098-1.339-2.339 0-4.17 0.478-5.493 1.434-0.852 0.613-1.278 1.434-1.278 2.462 0 0.938 0.399 1.74 1.196 2.408 0.967 0.808 3.25 1.648 6.847 2.52l0.55 0.132c3.915 0.92 6.811 1.871 8.687 2.854 1.877 0.983 3.345 2.327 4.406 4.031 1.06 1.705 1.59 3.81 1.59 6.318 0 2.273-0.634 4.401-1.903 6.385-1.27 1.984-3.064 3.459-5.384 4.424-2.32 0.965-5.212 1.448-8.674 1.448-5.04 0-8.91-1.16-11.611-3.477-2.701-2.318-4.315-5.695-4.84-10.133z m39.238-26.758h8.05v21.482c0 3.41 0.099 5.619 0.298 6.63 0.345 1.622 1.165 2.926 2.461 3.909 1.296 0.983 3.068 1.474 5.316 1.474 2.284 0 4.007-0.464 5.167-1.393 1.16-0.93 1.858-2.07 2.093-3.423 0.236-1.353 0.354-3.598 0.354-6.737V553.43h8.049v20.833c0 4.762-0.218 8.126-0.653 10.092-0.435 1.966-1.237 3.625-2.406 4.978-1.17 1.353-2.733 2.43-4.69 3.233-1.959 0.803-4.515 1.204-7.669 1.204-3.807 0-6.694-0.437-8.66-1.312-1.968-0.875-3.522-2.01-4.664-3.409-1.142-1.398-1.894-2.863-2.257-4.396-0.526-2.273-0.789-5.628-0.789-10.065V553.43z" fill="#231916"/>
</svg>
