<svg viewBox="0 0 1024 1024" version="1.1" xmlns="http://www.w3.org/2000/svg" height="1em" width="1em">
  <path d="M224 0h576c123.6 0 224 100.4 224 224v576c0 123.6-100.4 224-224 224H224c-123.6 0-224-100.4-224-224V224C0 100.4 100.4 0 224 0z" fill="#FFFFFF"/>
  <path d="M176 512c0-185.6 150.4-336 336-336s336 150.4 336 336-150.4 336-336 336-336-150.4-336-336z m582.8-27.2h-173.2l-70.8-70.8-91.6 91.6 91.6 91.6 70.8-70.8h112c-8 94-87.2 167.6-183.6 167.6-102 0-184-82-184-184s82-184 184-184c73.6 0 137.2 43.2 166.8 106.4l66.4-0.4c-32.8-97.6-125.2-168-233.2-168C378.4 264 268 374.4 268 510S378.4 756 514 756s246-110.4 246-246c0-9.2-0.4-17.6-1.2-25.2z" fill="#D82321"/>
</svg>
