<svg viewBox="0 0 1024 1024" xmlns="http://www.w3.org/2000/svg" height="1em" width="1em">
  <path d="m820.81 413.382 1.948.65 2.341 1.037 2.725 2.205 2.077 3.245 1.17 3.636.13 3.118-.647 1.943-1.039 2.208-4.55 4.153-5.455 4.542-.132.91.264 2.467.647 10.511.26 7.27.779 12.591-.13 2.078-.518.52-1.17.78-2.596 1.296-.52.13-.518.129-.785.129-.78-.259-.645-.779-.264-1.167-.52-.13-.648.518-12.471 5.84-2.078 1.039-4.162 1.819v10.514h.65l.65-.39 4.94-2.076 2.727-1.17 13.904-5.97 2.466-1.038 5.843-2.466h2.991l2.207-.132 1.948.391 2.73 1.299 1.564 1.687.252 1.429-.391 2.336-2.596 4.93-3.245 5.32-1.948 3.505-.653 1.042.394.389.907.129 9.096 4.285 5.066 2.208 2.47 1.682 1.164 1.948.523 1.951-.259 1.163-.518.783-6.628 6.097-1.43.652-1.818.386-1.168.259h-1.295l-1.696-.386-1.552-.39-12.085-7.66h-.394l-.645.517-1.3 1.563-3.898 4.8-2.994 3.507-4.548 5.188-3.894 4.413-1.297 1.301-8.706 9.088-3.641 3.114-2.336 1.816-.645.259-1.692-.124-3.639-.396-2.989-.901-1.818-1.692-.78-1.434-.39-1.68.39-1.95 1.04-2.337.779-3.763 1.17-9.864.782-7.399.91-9.735.518-4.542.782-11.293.251-4.026.396-7.916v-8.959l-.518-7.396-.261-3.113-.394-1.822-.645-.905-2.727-2.47-1.435-.52-.777.262-.91.908-.647 1.558-.39 1.817-.648.781-1.174 1.165h-2.463l-2.6-1.682-2.992-2.733-7.534-5.056-.518-.13-4.678-2.21-1.691-.52h-1.56l-1.038.52-.648.78-.13 1.689-1.038 2.205-2.077 4.156-3.253 6.487-4.284 8.827-.648 1.038-3.253 5.452-2.207 3.765-1.168 1.946-3.637 4.674-2.077 2.205-1.044.39h-4.936l-2.992-.129-2.07-.52-1.434-1.038-.648-1.037v-1.3l1.039-1.557 2.077-1.946 1.945-1.556 2.476-3.118 4.808-6.49 2.597-3.892 4.023-6.363 1.041-1.817 3.512-6.229 1.948-4.282.907-1.949 2.595-6.49 1.303-4.806.518-2.204.52-2.855v-5.32l1.166-1.302 1.564-1.816 2.596-1.82 2.343-.515 1.425-.258h2.214l2.205.773 1.689.911.78.262 1.556 2.204 1.298 2.598v2.464l-.646 1.82 1.037.778 5.327 4.932 5.455 4.803 4.94 4.542 1.945 1.82h.652l1.564-1.95 2.207-1.296h1.687l2.727 1.038 3.637 2.598 2.333 2.463.526.518.391-.127 1.557-1.038 7.278-4.155 1.43-.782 4.543-2.593 2.211-1.167.389-1.297.127-3.897-.645-2.725-.91-1.687-.776-.65-1.178-.129-1.164.388-4.027 1.817-3.896 1.431-3.512.906-2.725.517-1.952.132h-1.552l-2.21-1.037-1.046-1.167-.386-1.69.26-2.205.908-2.466 1.562-2.337 2.598-1.82 4.416-3.374 7.144-5.452.39-.261 4.153-3.24 4.421-3.245 2.6-1.038 4.282-1.04h5.592zm-304.012 14.276 1.564.132 2.855.777 2.727 1.558 5.2 4.934 1.296 1.558-.518 1.429-3.248 3.245-4.807 2.205-5.712 1.299-1.43.258-5.848.78-.914 3.503-.904 11.29.125 25.705.525 13.759 1.168 20.896.518 8.568 1.819 4.798v2.857l-1.166 3.248-2.598 3.63-4.942 2.992-4.677 1.037-3.116.389-3.51-.389-5.457-2.075-7.66-5.843-6.498-7.66-3.38-5.188-.254-.655-.132-.386h.132l5.453-.258 5.325 2.336 3.248.65h2.598l3.25-.911 2.078-1.949 2.338-4.282 1.039-5.32.262-4.416.259-8.826-1.164-8.178-.396-1.819.65-3.245.65-3.11.394-3.119-.393-2.334-.905-1.299-1.823-.647-1.691.127v2.337l-1.041 3.503-1.943 4.283-3.898 5.975-2.862 3.502H477.7l-4.291 2.207-4.676 2.34-.777.387-4.553 2.076-1.948 1.948-2.336 1.558-2.212.259-2.986-.781-4.546-2.723-2.47-2.337-1.43-1.17-1.169.52-2.206.65h-1.819l-2.341-1.296-1.56-2.73-.65-2.854-.258-.777-.26-3.768.519-3.374v-.386l1.95-4.026 3.507-5.062 3.248-3.763 4.155-2.988 5.33-2.984 3.507-1.558 4.677-1.558 4.808-1.296 1.043-.132 4.673-1.035 7.537-.914 4.805-.13 1.557.262 1.302 1.167 1.17.782 1.56.127 1.425-.127 1.562-1.558 1.297-2.73 1.039-4.41.127-3.635-.518-2.467-1.298-1.555-2.468-1.69-2.598-.258h-3.248l-3.248.52-3.38.908-2.07.647-4.812 1.558-3.507 1.296-.907.391-5.076 2.078-5.188 2.337-4.556 1.816-2.981.65-3.116-.132-2.471-.906-2.468-1.558-2.21-2.468-1.95-3.89-.912-5.067v-1.816l1.692-.13 2.6-.517 4.934-1.038 21.702-3.897 2.725-.518 39.098-6.751 2.732-1.946 2.469-1.297 1.175-.132h.643zM942.28 491.91l.135-1.946.518-1.558.39-1.167 2.985-4.544 5.068-4.283 5.455-4.412 4.55-4.156 7.66-7.007 4.294-5.712.648-1.296v-1.302l-.394-1.037-.645-2.076-1.3-2.725-2.992-2.989-3.375-1.946-1.947-1.167-.391-.65-.389-2.986-.13-2.334.646-2.337 1.043-1.816 1.427-1.817 2.728-1.948 4.414-1.167 4.68-.26 4.03-.522 6.752-.908 3.9-.388h2.987l4.033.258 4.413 1.82 3.121 2.593 1.69 4.024.517 2.983v2.469l-.655 1.817-2.331 3.635-2.342 2.467-2.73 1.296-4.024 1.56-1.3.127-2.858 1.426-6.498 3.51-7.662 4.929-3.38 2.469-2.211 1.946-1.948 1.948-1.56 2.205-.774 1.817.124 1.299 1.04.647h1.434l2.595-.647 13.38-4.024 8.058-3.114 7.796-3.379 2.075-1.297 3.515-1.296 4.022-.65h2.598l2.992.78 2.209 1.555 2.204 3.765.91 3.765.52 3.377-.394 2.854-.777 1.82-1.038 1.814-1.565 1.167-1.815.781-1.819.388-1.945-.129h-1.691l-.91.91-1.3 2.335-.782 2.466-.254 5.45v12.724l.65 7.66 1.169 5.706.777 2.34v1.816l-.389 2.722-1.816 9.735-1.818 4.413-2.862 4.156-1.297 1.304-2.86 2.334-3.502 1.299-2.476.122-4.418-.515-9.224-1.56-4.154-1.422-7.28-3.247-4.023-2.984-3.121-2.86-2.6-2.983-1.298-1.824-.255-.513.514-.13 1.178.78 7.527 3.113 5.85.776h3.117l3.245-.517 4.292-1.297 1.945-1.426 4.55-4.935 2.596-6.099 1.432-4.28.389-4.024.65-5.843-.254-4.415-.917-5.582-1.038-3.763-1.557-3.245-1.948-2.595-2.473-1.69-1.689-.388h-1.298l-1.43.259-1.686.52-11.173 4.285-13.254 5.191-4.677 1.558-1.946.647h-1.297l-1.819-.388-2.473-.908-2.077-1.558-.26-.523-.652-1.426zm-522.79-71.52 4.678 1.43 3.383 1.817 3.248 2.722 2.727 3.895 1.166 2.857.912 2.466.127.13.39 1.948-.39 1.296v.132l-1.166 2.208-2.339 2.852-2.08 1.301-2.077.65-2.468-.132-2.21-.65-2.732-1.428-1.689-1.297-.909-1.17-.648.133-3.634 4.544-2.468 3.242-1.046 2.078v.908l1.437 1.556 5.193 6.231 2.075 3.375 2.212 3.894.91 3.118-.13 2.076-1.428 1.428-1.564.65-1.557 1.423-2.336 1.56-2.214 1.168h-3.502l-.777-.518-.91.776-2.732 2.596-2.466 2.986-1.693 3.377-.91 2.596.389 2.334 1.948 3.247.388 3.372.658 4.027.777 4.283 1.168 3.897 2.474 3.504 1.818 1.164 1.427-.385 2.598-3.114 1.168-1.042 7.146-8.954 2.73-4.415.645-2.078.262-1.687.518.259.132 2.857.78 9.215v9.737l-.521 5.323-.91 5.841-2.077 6.615-2.084 4.287-.773 2.335-2.206 3.11-2.471 1.3-1.819-.125-2.859-1.038-3.9-2.854-3.376-3.382-.647-.383-2.085-.916-1.943-1.555-1.561-2.596-1.04-3.113-.65-6.493.13-5.972v-1.941l-.909-4.42-.647-5.057-.78-6.492.389-8.437 1.038-5.061 1.557-2.986 2.21-1.947 2.988-2.336 1.554-2.21.396-2.332-.396-2.207-1.554-3.245-2.204-3.634-1.044-2.856-.386-2.857.91-2.986 3.636-3.246 3.375-2.593 2.598-2.986 1.823-3.506.518-4.412-1.168-2.987-1.427-1.816-1.565-.647-1.818-1.17-3.116-2.986-1.302-2.857-.255-1.297.128-.908 9.875-3.636 2.469-.388 2.984-.39h3.507zm510.194 3.115 1.816.39 2.986 1.559 2.34 2.204 3.115 3.504 2.992 4.933.13.263.517 2.593-.127 1.947-.52 1.167-.13.393-1.435 1.296-2.077 2.208-1.557 2.207-3.634 4.024-3.12 3.372-2.342 2.08-1.818 1.556-1.686.52v.517l2.338.52 4.678 1.558 3.502 1.558 2.86 1.69 2.993 2.984.91 2.336v1.426l-.653 1.558-1.166 1.817-2.214 2.466-.91 1.172-2.595 3.502-1.955 2.724-2.202 2.987-1.432 1.946-.259 1.04.135 2.337.772 14.665v11.815l.525 8.957v1.555l-1.297 2.86-1.824 2.336-1.432 2.2-1.684 2.34-2.084 1.557-1.296.647-1.033.261h-1.044l-1.3-.132-2.077-1.291-1.298-1.56-.91-1.563-.388-6.488-.264-6.488-.127-4.285-.52-5.188-.518-1.173-2.215-2.075-2.204-.908h-1.432l-1.432.388-2.078.908-5.196 3.897-5.584 3.634-2.468 1.296-1.43.779-3.243 1.43-3.382.516h-1.3l-1.56-.515-2.207-2.076-.652-1.69v-1.95l.134-2.203 2.073-1.816 4.944-3.9 6.623-5.577 7.146-6.102 5.328-4.412 8.964-7.657 9.091-7.662 1.689-1.814.653-2.34.513-2.336-.384-1.165-1.173-1.43-1.298-.39h-1.689l-2.856.91-2.075.52-3.903.126-2.728.264h-2.598l-2.34-.264-1.69-.386-1.297-.649-.91-1.3.262-1.296 1.945-2.983 5.463-5.585 2.595-2.595 3.642-4.547 3.375-4.668 2.727-3.897 2.336-4.022 2.083-3.894.513-2.205.652-2.596 1.173-2.989 1.687-2.331 2.077-1.563 1.955-.259zm-342.467 6.88 2.725 1.297 6.496 3.766 3.51 2.598 3.38 3.11 2.074 2.728 1.174 2.989.132 1.425-.262 2.594-1.17 7.791-.91 6.75-.52 3.894-1.166 8.048-.917 6.099-.518 3.765 4.292-2.86 2.21-.905 1.815-.132 1.427.65 1.43 1.948.785 2.337.124 3.763-.256 2.595-1.044 1.56-4.807 6.752-2.593 3.763-5.198 6.746-5.07 6.234-6.495 7.66-5.066 5.188-6.753 5.709-4.155 2.989-1.69.517h-.65l-1.56-.388-1.818-1.297-1.819-3.12-1.175-5.836-.386-5.455-.264-5.838 1.561-2.6 4.541-5.445 5.079-4.806 3.631-2.854 1.953-1.167.386-1.043.132-2.463-.65-1.69-.782-1.817-2.595-2.598-2.733-1.685-2.595-.91-2.339-.26-2.341-.39-1.034-.647-2.732-3.504-.65-1.816-.257-1.82.386-2.075 1.955-2.984 3.246-2.857 4.804-2.595 2.215-.65 2.46-.647 2.604-1.301 2.34-1.949 1.941-2.463.912-2.725.264-1.949-.264-2.075-.127-1.167-.26-1.82-.781-2.078-1.684-1.946-3.512-5.323-.78-2.336-.518-2.855-.134-2.463.388-1.56 1.427-2.076 2.603-2.078 3.25-1.3 2.47-.385.908-.261zm164.738 38.55 1.036.13.52.262.78.258 2.728 1.426 1.556.391 1.694.65 1.689.647 1.684 1.557v1.17l-.387 1.555-1.43 1.69-1.3 1.3-.65 1.296-.393 2.857v2.077l1.044 2.464.652.908 1.168.391h1.171l1.82-1.687 2.726-2.076 2.08-1.301 1.297-.388h1.039l.909.388.91 1.43.52 1.82.127.908.132 2.982-.26 1.557-.652 1.82-1.295 1.687-1.689 1.296-1.689.65-1.815.517h-1.697l-.78.26-.906.913-1.948 1.943-1.693 2.078-1.555 2.207-.78 1.556-.393 1.56.518 1.426 1.432 1.175 2.603.258 2.86-.134 2.46.134 1.956 1.163 1.168 1.692.127 1.682-.256 1.822-.65 1.943-2.86 2.596-3.898 2.727-5.066 3.245-2.862 1.687-1.945 1.168-2.855 1.816-5.592 2.464-2.727.916-1.953.129-1.554-.261-1.953-1.426-1.427-2.213-.13-1.167.648-2.463 1.82-2.855 1.687-1.95 1.176-2.337 1.168-3.76.772-1.947.396-2.078-.13-1.95-.266-1.685-1.816-1.69-1.3-.259-1.298-.388-2.727-1.17-2.336-1.426-.648-.779-.262-.258-.259-1.038.26-1.3.26-.26.649-.78 2.6-1.689 2.595-1.038 1.432-.517 1.43-.65 1.42-.908 1.176-1.817 1.038-2.598.26-2.981.129-5.582-.907-.393-2.598-1.038-2.341-1.165-1.17-1.037-.519-.782v-1.035l.518-.781 2.474-1.817 1.038-.518 4.807-4.155 1.946-2.078 2.341-.909 1.17-.13zm-129.92-37.12 1.034.39 4.683 1.817 3.246 1.948 4.55 3.76 1.948 2.208 1.039 1.816.13 1.3-.13 2.856-.78 2.466-1.818 2.593-1.17 2.596-.519 2.08-.132 1.426.65 1.297 1.17.517 1.299-.258 5.322-2.855 2.598-1.296 2.733-1.17 2.473-1.035 1.94-.264h1.694l2.077.782 1.692 1.948 1.424 2.334 1.039 2.205 1.17 3.116.265 2.727.13 1.297-.653 1.819-1.166 1.167-1.432.39-1.43.26-1.166.52-8.446 3.76-5.462 2.469-3.893 1.819-2.99 1.296-1.683.52-.52.518v2.34l-.267 5.447.266 5.325.521 4.15 1.16 3.378 1.435 3.116 2.337 2.466 3.116 1.558h3.248l2.473-.391 4.282-1.687 3.77-2.725 5.074-4.933 3.373-4.412 1.818-3.509.648-2.205.39-1.814h.392l.652 2.332 1.169 4.156 1.163 3.895 2.473 8.694 1.163 4.283.782 3.245.912 5.843v2.21l-.518 2.335-.787 1.948-1.422 1.944-1.946 1.296-3.118 1.429-4.548.517-3.121.13-4.287-.389-8.967-.65-5.327-.776-8.31-2.075-4.55-2.471-4.028-3.763-1.689-2.722-1.295-3.768-.525-3.892-.125-3.892.391-2.598 1.686-3.372 1.298-1.56 1.298-1.297.393-3.636-.393-4.932-.645-4.153-1.432-7.14-1.171-2.466-1.17-2.337-2.2-1.948-1.564-1.426-.785-1.556-.386-1.43.261-1.688 1.69-1.687 2.082-1.558 1.16-2.075 1.432-3.248.91-4.283.134-3.374-1.437-2.464-1.816-4.026-1.681-4.154-.658-2.075-.259-2.207v-2.467l.777-1.172 1.046-.647 1.293-.127h1.044zm177.86 81.9h-.132l-1.43.39-1.945 1.693-2.73 3.372-.912 1.816-1.948 2.335-.52 1.172.52 1.037 2.725 1.944 1.174.525h.782l1.295-.132 1.56-.779 1.429-.91.518-.262 1.305-1.423 1.816-2.987.513-1.428v-2.205l-.125-1.816-2.077-1.558-1.818-.784zm-76.913-6.229 1.818.39 2.207 1.04 1.039.516 1.691 1.167 1.295 1.434.914 1.948.52 1.817.26.776.259 2.461-.518 1.951-1.435 2.205-2.077 1.558-1.3.39-.648-.126-1.557-.264-1.95-1.428-1.557-2.205-.78-2.86-.129-3.633v-2.85l.389-3.25.13-.905 1.43-.132zm96.264-10.123h-1.684l-1.168.129-.65.132-3.124 1.296-.645.389v1.43l1.298 1.944 1.173.65h1.684l.264-.13.647-.13 2.987-1.169.911-.647v-1.299l-.13-1.426-1.563-1.17zm-353.372-22.328-3.377.262-3.896 1.428-3.512 2.598-2.466 3.372-1.689 4.415-1.168 4.8.254 2.857 2.078 1.299 1.823-.39 11.56-11.035 1.564-.779.911-.779.254-.13 1.692-2.333.259-2.598-.907-2.596-1.298-.13-2.082-.26zm338.955-16.093-1.691.388-2.857 1.429-.518.258-2.857 1.82-4.292 2.854-.647 2.078-1.039 2.984.91 1.946 2.076 1.69h1.298l1.694-.262 2.336-1.167.52-.261 2.858-1.946.909-.909h1.425l.914-.13 1.561-1.686.773-1.69.525-1.297-.132-2.725-.393-1.557-2.07-1.688-1.303-.13zM520.18 588.08l19.793 44.373h-10.222l-5.3-12.421h-16.692l-4.918 12.42h-9.704l18.63-44.373h8.412zm78.918 0v18.494l20.184-18.495h12.936l-20.953 18.495 20.824 25.879h-11.897l-15.528-20.182-5.566 5.045v15.137h-9.185v-44.374h9.185zm-45.666 0 21.345 29.107v-29.108h8.796v44.374h-8.535L553.69 603.21v29.242h-8.803v-44.374h8.545zm172.59 0v8.015h-1.424v9.579h1.424v8.016h-1.424v18.763h-9.18v-44.374h10.604zm65.336 0v16.942h20.315v-16.943h9.186v44.374h-9.186v-19.406h-20.315v19.406h-9.049v-44.374h9.05zm71.292 0v8.015h-26.653v9.445h24.971v8.023h-24.971v10.864h27.682v8.026h-36.867v-44.374h35.838zm102.724 0v44.373h-9.054v-44.374h9.054zm-16.557 0v8.013h-7.762v.002h-19.018v9.445h25.103v8.026h-6.085v-.003h-19.018v10.864h27.817v8.026h-36.875v-44.374h35.838zm-475.412.202c6.745 0 12.213 5.469 12.213 12.214 0 3.352-1.35 6.388-3.536 8.595a12.69 12.69 0 0 1 5.49 10.459c0 7.015-5.686 12.702-12.702 12.702h-24.427v-43.97h22.962zm419.175 0c6.746 0 12.214 5.469 12.214 12.214 0 3.352-1.35 6.388-3.536 8.595a12.69 12.69 0 0 1 5.49 10.459c0 7.015-5.687 12.702-12.702 12.702h-24.428v-43.97h22.962zm-205.68-1.954c12.412 0 22.474 10.28 22.474 22.962s-10.062 22.962-22.473 22.962c-12.412 0-22.474-10.28-22.474-22.962 0-12.681 10.062-22.962 22.474-22.962zm0 7.654c-8.094 0-14.656 6.854-14.656 15.308s6.562 15.308 14.657 15.308c8.094 0 14.656-6.854 14.656-15.308s-6.562-15.308-14.656-15.308zm-214.473 19.705h-13.19v10.748h13.19a5.374 5.374 0 0 0 0-10.748zm419.176 0h-13.19v10.748h13.19a5.374 5.374 0 0 0 0-10.748zm-145.782-8.013v8.013H731.46v.003h-5.434v-8.014h5.434v-.002h14.362zm-229.91-6.471v.131l-.393 1.035-.39 1.034-.384 1.034-3.882 9.96h10.485l-3.884-9.31-.523-1.3-.514-1.16-.384-1.166v-.127l-.132-.131zm-43.972-3.104h-12.702v9.771h12.702a4.885 4.885 0 1 0 0-9.77zm419.176 0h-12.703v9.771h12.703a4.885 4.885 0 1 0 0-9.77zm-142.064-8.02v8.014h-17.592v.002h-5.434v-8.013h5.434v-.003h17.592z" fill="#5E5D57"/>
  <path d="m123.139 499.664 102.463 1.212v74.586l-102.463 25.545zm108.063 1.212 82.086.882v50.735l-82.086 21.38z" fill="#154580"/>
  <path d="m231.202 495.033 82.086 2.64V466.3l-82.085-29.42zm-107.517-2.154 101.917 2.154v-60.15l-84.292-32.527c-7.237-2.72-17.625 2.586-17.625 10.343v80.18z" fill="#4CBA5D"/>
  <path d="M117.538 499.664v103.56L0 637.114V520.078c0-10.752 9.018-21.504 25.41-21.369l92.128.955z" fill="#154580"/>
  <path d="m231.202 429.128 82.086 31.566v-27.097l-69.377-44.988c-7.515-4.485-12.709 1.088-12.709 8.305v32.214z" fill="#E64729"/>
</svg>
