<svg viewBox="0 0 1024 1024" xmlns="http://www.w3.org/2000/svg" height="1em" width="1em">
  <path d="M199.336 454c.2-.2.5-.6.7-1 .9-.9 1.3-1.5 1-1.7 0-.5-4.3-1.3-12.8-2.4-.9-.2-1.5-.3-1.7-.3-4.8 14.4-16.3 26.2-34.5 35.4 2.5 1.8 5 4.4 7.3 7.6l.7.7c3.5-1.8 7.3-4.6 11.4-8.3v4.5h43.5v-3.4c4.1 2.5 8.5 4.7 13.1 6.6 1.6-4.1 3.8-8.2 6.6-12.1-14.5-3-26.3-11.6-35.3-25.6zm-21.6 25.3c5.5-5 10.6-10.4 15.2-16.3 5.5 7.7 10.3 13.2 14.2 16.3h-29.4zm-10.3 16.8v33.7h11v-3.1h29.6v3.4h12.1v-34h-52.7zm40.6 21.9h-29.9v-12.6h29.9V518zm102.4-10.3c-.2 4.6-.6 7.3-1 8.2-.5 1.1-1.8 1.6-4.1 1.4h-14.8c-2.1 0-3.1-1-3.1-3.1v-19.5h29.2v-41.6h-39.5v65.6c-.5 6 3.8 8.8 12.7 8.6h13c8.5.2 13.4-.7 14.8-2.7 2.3-1.6 3.5-6.4 3.8-14.4-2.3-.3-6-1.1-11-2.5zm-9.6-45.2h4.7v22.9h-4.7v-22.9zm-13.5 0h4.2v22.9h-4.2v-22.9zm-40.9-9.8v48.2c-.5 8.7-2.5 16.2-6.2 22.4 3.4 1.4 6.4 3.2 9 5.5 5.1-8 7.6-16.5 7.6-25.5v-4.1h6.2v14.1c.2 3-1.8 4.1-6.2 3.4 0 .5.3 1.4 1 2.8 1.4 2.7 2.2 5.4 2.4 7.9 5.3-.2 8.9-1 10.7-2.4 1.6-1.4 2.4-3.9 2.4-7.6v-64.7h-26.9zm16.6 37.8h-6v-9.8h6.1v9.8zm0-18.7h-6V462h6.1v9.8zm126-3.4c-.2-1.4-3.6-6-10-13.8l-8.6 6.2c2.5 3 5.5 6.8 9 11.4.9 1.4 1.5 2.2 1.7 2.4l7.9-6.2z" fill="#4C638B"/>
  <path d="M389.936 449.9V498l-23.1 3.4 3.8-3.1c-1.6-2.5-4.9-6.7-10-12.4l-4.8 3.4v-7.9h11.7v-8.9h-11.7v-10.6c3.9-.5 7.7-.8 11.4-1 .5-.2.5-.9 0-2.1-.5-.9-1.1-2.3-2.1-4.1-1.1-1.8-2-3.2-2.4-4.1-10.6 2.5-21.3 4.1-32.1 4.8 2.1 2.7 3.3 5.6 3.8 8.6 3.9-.5 7.6-.8 11-1v9.6h-14.5v8.9h12.8c-2.1 7.1-7 15.7-14.8 25.8 0 0 .3.5 1 1.4 2.8 3 4.7 5.4 5.9 7.2 1.8-2.5 4.3-6.5 7.3-12 1.1-2.1 1.9-3.6 2.4-4.5v29.2h10.3v-32.7c1.8 2.1 3.7 4.5 5.5 7.2.7.9 1 1.4 1 1.4l1.4-1 1 7.6 25.2-3.8v22h11v-23.8l10-1.7-.7-8.9-9.3 1.4v-38.5c0-1.8.2-3.7.7-5.5v-1c0-.9-1.5-1.4-4.5-1.4h-7.2z" fill="#4C638B"/>
  <path d="M386.236 491.6c-2.5-5.5-5.3-10.8-8.5-16.1l-9.2 5.5c3.6 5.2 6.5 10.3 8.5 15.1l9.2-4.5zm92.4 19c6-8.5 10.4-18.1 13.2-28.9l-.4-.7h-15.6v-9.7h20.4v-9.6h-20.4v-5.2c0-1.2.2-2.3.7-3.5.2-.7.4-1.3.4-1.7 0-.5-.7-.7-2.1-.7-.9-.2-3.5-.3-7.6-.3h-2.8v11.4h-16.3v5.5h-6.9v-10.3c0-1.4.2-2.6.7-3.8.2-.7.3-1.3.3-1.7-.5-.7-3-.9-7.6-.7h-4.1v16.5h-12.8v9.3h12.8v12c-5.3 1.6-9.7 2.8-13.1 3.5-.2 0-.4.2-.4.7 1.4 4.6 2.5 8.3 3.5 11 .2.2.5.2.7 0 1.2-.5 2.8-1.3 4.9-2.4 1.8-.9 3.3-1.6 4.5-2.1v15.5c0 1.6-.5 2.5-1.4 2.7-.7.2-3.5.3-8.3.3 1.6 3 2.9 6.6 3.8 10.7 6.7-.2 11.1-1 13.1-2.4 2.3-1.1 3.5-3.6 3.5-7.2v-23.7c5.3-2.1 7.7-3.1 7.3-3.1-.5-3.5-.7-6.7-.7-9.7-.9.5-3.1 1.3-6.6 2.4v-8.3h8.6v-5.2h14.5v9.8h-13.5v9.3h1.7c2.8 8 6.2 15.2 10.4 21.4-5.3 4.1-12 7.1-20.1 8.9 3.9 3.2 6.6 6.5 8 10 6.5-2.8 13.2-6.7 20.1-11.7 5.1 3.9 12.1 7.5 21.1 10.7 1.6-3.9 3.8-7.7 6.6-11.4-8.1-1.4-14.8-3.9-20.1-7.6zm-8-7.6c-2.8-3.4-5.1-7.6-6.9-12.6h13.5c-2.1 5.3-4.3 9.5-6.6 12.6zm41.3-22.2h10.7v-10.4h14.1c-4.1 13.6-15.3 25.2-33.5 34.8 2.8 2.5 5.2 5.3 7.3 8.3 6.9-3.9 12.6-8.2 17.2-12.8v11.4c0 3.4-1.5 6.1-4.5 7.9 2.3 4.6 3.9 7.9 4.8 10 .2 0 1.4-.5 3.4-1.4 7.4-3.2 14.3-6 20.7-8.3v-1.4c-.2-3.7-.2-6.8 0-9.3-3.9 1.8-8.4 3.7-13.5 5.5v-24.3c.2-.5.7-1.1 1.4-2.1 1.6-2.1 2.8-3.7 3.5-4.8 4.8 17.9 15.9 31.3 33.1 40 2.3-3.2 5.2-6.5 8.6-10-10.1-4.1-17.8-9.2-23.1-15.2 5.3-4.4 10-7.6 14.1-9.7.5-.5-2.9-3.2-10-8.3-.2 0-.9.6-2.1 1.7-2.5 2.8-5.1 5.2-7.6 7.3-3-4.8-4.8-11.3-5.5-19.3h15.9v9.3h11.4v-18.6h-27.6c.7-3 1.3-6.2 1.7-9.7 0-.5-.2-.7-.7-.7-.2-.2-.5-.3-.7-.3-3.7-.5-7.5-.8-11.4-1 0 1.8-.2 4.5-.7 7.9-.2 1.6-.4 2.9-.4 3.8h-26.9v19.7zm93.6-5.2c-3.4 9.9-8.3 18.6-14.5 26.2 3 3.2 5.3 6.3 6.9 9.3 3-3.4 6-8 9-13.8v31.4h10v-37.2c2.1 2.8 4.3 6.4 6.6 11l8.5-5.5c-3.9-6.9-7.1-11.9-9.7-15.2l-5.5 3.4v-9.7h9.7v-9.3h-9.7v-10.6c0-1.4.2-2.8.7-4.1.2-.5.3-.8.3-1 .2-.7-.9-1-3.4-1h-7.6v16.9h-13.1v9.3h11.8zm23.7.1h21.8V514c0 2.3-.6 3.7-1.7 4.1-.7.5-3.7.6-9 .3 2.1 3.9 3.1 7.5 3.1 10.7 7.4.2 12.4-.4 15.2-1.7 2.8-1.1 4-3.5 3.8-6.9v-44.8h9.3v-9.3h-9.7v-10c0-1.4.2-2.9.7-4.5v-1.7c.2-.7-.5-.9-2.1-.7h-9.6v16.9h-21.7v9.3z" fill="#4C638B"/>
  <path d="M630.636 485.6c2.3 6 4.2 11.9 5.6 17.9l11.2-2.7c-1.2-6-3-12.1-5.6-18.2l-11.2 3zm128.8-29.5h-30.8c-.2-3-.6-5.2-1-6.5-.5-.2-2.7-.2-6.6 0-4.4.2-6.9.5-7.6.7 0 0 .1.4.3 1 .5 1.6.8 3.2 1 4.8h-32.7v8.6h48.4c-.7 2.7-2.1 5.7-4.1 8.9h-9.7c-1.8-5-3-7.7-3.5-7.9-5.5 1.1-9.2 2.1-11.1 2.7-.2 0 .2 1 1.4 3.1.7.9 1.2 1.6 1.4 2.1h-16.6v54.7l11.1.3v-35.7c1.4 1.4 2.6 3.2 3.8 5.5l2.1-1.4v22h9.3v-3h10.4v2h10.7v-21.6c1.6 1.4 2.6 2.3 3.1 2.7 1.4-2.1 2.5-3.6 3.5-4.5v22.7c.9 2.3-1.8 3.3-8.3 3.1 2.1 3.2 3.1 6.4 3.1 9.6 11.3.2 16.8-2.3 16.6-7.6V474h-15.6c1.4-2.5 2.8-4.5 4.1-5.8.5-.5.7-.8.7-1 0-.2-1.5-1-4.5-2.4h21.1v-8.7zm-60.2 35.3v-9.3h11.7c-3.2 4.1-7.1 7.2-11.7 9.3zm25.2 16.8h-10.3v-7h10.3v7zm-13-14.9c2.3-1.6 4.3-3.1 6.2-4.4.9-.7 1.4-1 1.4-1l-5.8-5.8h15.1c-2.3 2.7-4 4.6-5.1 5.8 0 0 .5.2 1.4.7 2.3 1.4 4.8 2.9 7.5 4.8h-20.7zm30.7-11.2v7.9c-4.9-3.4-9.1-6.1-12.6-7.9h12.6zm51.1 18.7c-3.5-13.5-6.7-24.4-9.7-32.6-2.1.7-6.2 1.9-12.4 3.8 3.9 7.1 7.6 18.3 11 33.7.2 1.1.3 1.9.3 2.4.9 0 4.5-1.1 10.7-3.4v11.7h-24.5v9.6h78.4v-9.6h-24.2v-11.8c6 2.3 8.8 3.3 8.3 3.1 3.7-7.1 7.8-16.3 12.4-27.5 1.4-4.1 2.4-6.8 3.1-7.9-.5-.2-1.3-.6-2.4-1-5.1-2.1-9-3.3-11.7-3.8-.2.5-.5 1.7-.7 3.8-2.1 11.2-5.2 21-9.3 29.2v-39.8c.2-2.3.6-4.5 1-6.5-.5 2.1-.3 1.7.4-1 .5-.9-1.4-1.4-5.5-1.4h-7.3v64.9h-6.9v-56.4c0-2.5.3-4.9 1-7.2.5-.9-1.4-1.4-5.5-1.4h-6.6v49.1zm82.8-41.7c.5-1.8 1.1-3.6 2-5.2.5-1.1.6-1.8.4-2.1-5.3-1.6-9-2.4-11.3-2.4-.2.2-.6 1.5-1 3.8-2.8 12.2-6.4 22.1-11 29.7.7.5.9.6.7.3 3.9 2.5 6.4 4.4 7.5 5.5.2-.5.6-1.3 1-2.4.5-.9.8-1.6 1-2.1h3.4v7.2h-12v9h12v11.7c0 .9-.9 2.4-2.7 4.5-.9 1.1-1.4 1.8-1.4 2.1 2.5 5.5 4.3 8.9 5.5 10 .5 0 1.5-.8 3.1-2.4 4.8-4.6 10.3-9.2 16.5-13.8-.5-3-1-5.7-1.7-8.3-.2 0-1.6.9-4.1 2.8-2.3 1.6-3.9 2.8-4.8 3.5v-10h11v-9h-11v-7.2h10.3v-9h-19.9c.5-1.1 1.4-3.6 2.8-7.2h17.5v-9h-13.8z" fill="#4C638B"/>
  <path d="M924.036 508.1c2.3-2.1 4.8-4 7.6-5.9.2-.2.7-.5 1.4-.7 2.1-.5 2.1-1.6 0-3.4-1.4-2.1-3.3-4.1-5.9-6.2h3.5v-39.2h-38v58.9c0 1.6-.8 3.1-2.4 4.5-.7.7-1 1.3-1 1.7 2.5 6.9 4.3 10.7 5.2 11.4.5 0 1.4-.6 2.8-1.7 4.6-3.2 10-6.3 16.3-9.3-.2-.9-.4-2.2-.4-3.8 0-1.4-.1-2.5-.3-3.4 2.3 4.6 7.3 9.6 14.9 15.2l1 1c3-4.4 5.9-7.7 8.6-10-5.2-2.2-9.6-5.1-13.3-9.1zm-20.9-46.1h16.3v6.1h-16.3V462zm0 50.8v-20.5h3.2c.5 4.8 2.2 10.3 5.2 16.4-1.4.9-4.2 2.3-8.4 4.1zm0-29.8v-6.1h16.3v6.1h-16.3zm15.7 17.2c-1.2-1.6-2.1-4.1-2.8-7.4-.2-.5-.3-.8-.3-1h9.8c-1.6 3.1-3.9 5.9-6.7 8.4zm24.9-29.6c3.7 2.7 6.4 5 8 6.8 6.3-5 13-11.4 20.1-19.1 1.2-1.1 2.3-2.1 3.5-2.7.7-.7 1-1.1 1-1.4.2-.2-2.1-1.6-6.9-4.1-2.3-.9-3.8-1.6-4.5-2-5.8 8.8-12.9 16.3-21.2 22.5zm37.8-16.5h37.3v8.9h-37.3zm-14.3 31.9c3.4-4.6 6.4-8 8.9-10.3.5-.5.7-.8.7-1 0-.7-3.4-2.7-10.3-6.2-6.7 10.8-14.6 19.8-23.7 27.1l7.6 6.9c2.3-2.3 4.2-4.3 5.8-6.2v31.9h11V486z" fill="#4C638B"/>
  <path d="M976.336 476v9.7h23.5v30c.5 2.1-2.5 2.9-9 2.4 2.1 3 3.3 6.7 3.8 11.1 11.8 0 17.3-2.5 16.6-7.6v-35.9h13.1V476h-48zm-808.4 93.8h-7.5V547h7.5v7.7h7.2V547h7.7v22.9h-7.7V561h-7.2v8.8zm23.8-9.8h6.1c-.2-1.6-1.2-2.6-3-2.8-2.1.1-3.1 1-3.1 2.8zm12.5 3.3h-12.5c.1 2.1 1.2 3.1 3.3 3.2 1.1 0 1.9-.5 2.5-1.4h6.2c-1.1 3.3-4.1 5-9.1 5.2-6.1-.2-9.2-3-9.4-8.4.3-5.5 3.5-8.5 9.4-8.9 6.2.4 9.4 3.8 9.6 10.3zm9-10h2.8v3.8h-2.8v12.7h-6.6v-12.7h-2.3v-3.8h2.3c-.3-4.8 2-7.1 6.6-6.8h2.8v4.1c-2.3-.3-3.2.6-2.8 2.7zm9.7 6.7h6.1c-.2-1.6-1.2-2.6-3-2.8-2.1.1-3.1 1-3.1 2.8zm12.6 3.3h-12.6c.1 2.1 1.2 3.1 3.3 3.2 1.1 0 1.9-.5 2.5-1.4h6.2c-1.1 3.3-4.1 5-9.1 5.2-6.1-.2-9.2-3-9.4-8.4.3-5.5 3.5-8.5 9.4-8.9 6.2.4 9.5 3.8 9.7 10.3zm1.9 7h6.5v-16.8h-6.5v16.8zm0-19.1h6.5v-4.7h-6.5v4.7zm37.1 2.5h-7.1c-.2-.7-.5-1.2-1.1-1.5-.5-.2-1.1-.4-1.9-.5-1.7.1-2.6.5-2.5 1.4 0 .9 1.5 1.7 4.4 2.5 5.9 1.4 8.9 3.8 8.9 7.1-.2 5-3.7 7.5-10.8 7.7-6.2-.2-9.6-2.7-10.2-7.4h7.2c.2.9.6 1.5 1.2 1.9.5.3 1.2.5 2.1.5 2.1 0 3.2-.5 3.2-1.6 0-.8-1.5-1.6-4.5-2.4-5.8-1.4-8.7-3.9-8.7-7.4.2-4.6 3.5-7.1 9.9-7.3 5.9-.1 9.2 2.3 9.9 7zm20.6 6.1h-6.7c-.1-.7-.3-1.2-.6-1.7-.5-.3-1.1-.5-1.7-.6-2 .1-3 1.6-3 4.4 0 2.8 1 4.2 3 4.2 1.5 0 2.3-.8 2.5-2.5h6.7c-.6 4.3-3.6 6.5-9.1 6.7-6.2-.2-9.3-3-9.5-8.4.2-5.6 3.3-8.5 9.5-8.9 5.3.2 8.3 2.5 8.9 6.8zm2.5 10.5h6.5v-16.8h-6.5v16.8zm0-19.1h6.5v-4.7h-6.5v4.7zm14.9 8.8h6.1c-.2-1.6-1.2-2.6-3-2.8-2.1.1-3.1 1-3.1 2.8zm12.6 3.3h-12.6c.1 2.1 1.2 3.1 3.3 3.2 1.1 0 1.9-.5 2.5-1.4h6.2c-1.1 3.3-4.1 5-9.1 5.2-6.1-.2-9.2-3-9.4-8.4.3-5.5 3.5-8.5 9.4-8.9 6.2.4 9.4 3.8 9.7 10.3zm1.4 7v-16.8h6.1v2.6c1.5-2.1 3.4-3.1 5.6-3.1 4.2.1 6.4 2.5 6.5 7.3v10h-6.6v-8.9c-.1-2-.9-3-2.4-3.1-1.7 0-2.6 1.2-2.5 3.5v8.5h-6.7zm38.1-10.5h-6.7c-.1-.7-.3-1.2-.6-1.7-.5-.3-1.1-.5-1.7-.6-2 .1-3 1.6-3 4.4 0 2.8 1 4.2 3 4.2 1.5 0 2.3-.8 2.5-2.5h6.7c-.6 4.3-3.6 6.5-9.1 6.7-6.2-.2-9.3-3-9.5-8.4.2-5.6 3.3-8.5 9.5-8.9 5.3.2 8.3 2.5 8.9 6.8zm8.5.2h6.1c-.2-1.6-1.2-2.6-3-2.8-2 .1-3.1 1-3.1 2.8zm12.6 3.3h-12.6c.1 2.1 1.2 3.1 3.3 3.2 1.1 0 1.9-.5 2.5-1.4h6.2c-1.1 3.3-4.1 5-9.1 5.2-6.1-.2-9.2-3-9.4-8.4.3-5.5 3.5-8.5 9.4-8.9 6.2.4 9.5 3.8 9.7 10.3zm20.4-12.1c-1.4.1-2.1.6-2.1 1.7-.1.9.6 1.7 1.9 2.5 1.9-.8 2.6-1.9 2.1-3.2-.3-.6-.9-.9-1.9-1zm6.7 18.7-1.9-2c-2 1.4-4.4 2.2-7.4 2.4-5.2-.3-7.9-2.3-8-6.1 0-3.1 1.6-5.5 4.7-7.2-1.4-1.4-2.1-2.8-2-4.2.1-3.6 2.7-5.5 7.8-5.7 4.7.3 7.2 2.3 7.5 6 0 2.6-1.2 4.5-3.6 5.9l1.9 2c.6-.3 1.1-1 1.5-1.9h6.1c-1 2-2.3 3.9-3.8 5.6l5.2 5.4h-8zm-5.8-5.9-2.9-3c-1.7.8-2.6 1.7-2.5 2.6 0 1.4.7 2 2.2 2 .7 0 1.5-.3 2.5-.8h.1c.8-.3 1-.6.6-.8zm23.5-11.1v-6h21v6h-6.7v16.9h-7.6v-16.9h-6.7zm28.5 7.1h6.1c-.2-1.6-1.2-2.6-3-2.8-2.1.1-3.1 1-3.1 2.8zm12.6 3.3h-12.6c.1 2.1 1.2 3.1 3.3 3.2 1.1 0 1.9-.5 2.5-1.4h6.2c-1.1 3.3-4.1 5-9.1 5.2-6.1-.2-9.2-3-9.4-8.4.3-5.5 3.5-8.5 9.4-8.9 6.2.4 9.4 3.8 9.7 10.3zm19.4-3.5h-6.7c-.1-.7-.3-1.2-.6-1.7-.5-.3-1.1-.5-1.7-.6-2 .1-3 1.6-3 4.4 0 2.8 1 4.2 3 4.2 1.5 0 2.3-.8 2.5-2.5h6.7c-.6 4.3-3.6 6.5-9.1 6.7-6.2-.2-9.3-3-9.5-8.4.2-5.6 3.3-8.5 9.5-8.9 5.3.2 8.4 2.5 8.9 6.8zm2 10V547h6.7v8.3c1.2-1.7 2.8-2.6 5-2.6 4.2.1 6.4 2.5 6.5 7.2v9.9h-6.6V561c-.1-2-.9-3-2.4-3.1-1.7 0-2.6 1.2-2.5 3.5v8.4h-6.7zm20.5.5v-16.8h6.1v2.6c1.5-2.1 3.4-3.1 5.6-3.1 4.2.1 6.4 2.5 6.5 7.3v10h-6.6v-8.9c-.1-2-.9-3-2.4-3.1-1.7 0-2.6 1.2-2.5 3.5v8.5h-6.7zm29.1-13.1c-1.9.2-2.8 1.6-2.9 4.3 0 3 .9 4.5 2.8 4.6 1.9.1 2.8-1.4 2.8-4.6-.2-2.7-1.1-4.2-2.7-4.3zm-9.5 4.7c.2-5.7 3.3-8.6 9.5-8.9 6.1.3 9.3 3.2 9.6 8.6-.2 5.6-3.4 8.5-9.6 8.6-6.1-.1-9.3-2.9-9.5-8.3zm21 7.9h6.5V547h-6.5v22.8zm18.4-12.6c-1.9.2-2.8 1.6-2.9 4.3 0 3 .9 4.5 2.8 4.6 1.9.1 2.8-1.4 2.8-4.6-.2-2.7-1.1-4.2-2.7-4.3zm-10 4.7c.2-5.7 3.3-8.6 9.5-8.9 6.1.3 9.3 3.2 9.6 8.6-.2 5.6-3.4 8.5-9.6 8.6-6.1-.1-9.3-2.9-9.5-8.3zm29.6-4.2c-1.7 0-2.6 1.3-2.5 3.8.1 2 .9 3 2.5 3.2 1.6.1 2.5-1.1 2.6-3.4-.1-2.3-.9-3.5-2.6-3.6zm-8.2 12.9h6.5c0 .2.1.5.4.7.3.2.8.4 1.5.4 1.7 0 2.6-1 2.6-3v-1.4c-1.2 1.2-2.7 1.8-4.7 1.8-4.5-.2-6.9-2.9-7.2-7.9.2-5.4 2.6-8.2 7.4-8.4 2.1.1 3.7 1 4.9 2.7v-2.2h5.8v13.3c.5 5.9-2.4 8.8-8.6 8.6-5.2.1-8.1-1.5-8.6-4.6zm24.8-17.1 3 10.2 2.8-10.2h6.3l-5.3 15.4c-1 2.9-1.9 4.6-2.8 5.2-1 .9-2.8 1.4-5.4 1.4-.5 0-1.2 0-2-.1h-1v-4.7c.2-.1.4-.1.7 0 .2.1.5.1.6.1 2 .1 2.6-.7 2-2.2l-5.4-15h6.5zm29.4-.9v4.7h3c2.4.1 3.6-.6 3.6-2.2-.1-1.6-1.1-2.4-3.1-2.5h-3.5zm2.3 9.3h-2.3v7.9h-7.5V547h10.9c7-.2 10.4 2 10.2 6.5-.1 3.1-1.4 4.9-3.9 5.6 2.8.6 4.2 2.6 4 6.1 0 .2 0 .6-.1 1-.1 2.2.2 3.2.9 3v.7h-7.6c-.3-.5-.4-1.8-.4-4 .3-2.9-1.1-4.3-4.2-4zm31.8-8.4V570h-6.1v-2.5c-1.4 1.9-3.5 2.8-6.1 2.7-4-.1-6-2.3-6-6.7v-10.1h6.7v8.9c-.1 2.2.7 3.2 2.4 3.1 1.7.1 2.5-1.3 2.5-4.1v-7.9h6.6zm1.8 16.8v-16.8h6.1v3.4c.9-2.6 2.6-3.9 5.1-3.9.1 0 .3 0 .5.1h.4v6.6h-.6c-.3-.2-.6-.3-.8-.3-2.7 0-4.1 1.7-4 5v5.8h-6.7zm31.8-.3h-6.9l-.3-1.7c-1.6 1.3-3.7 2-6.4 2-3.9-.2-5.9-1.8-6-4.8 0-3 2.6-4.8 7.9-5.4 2.8-.3 4.1-.9 4.1-1.7-.1-.8-.8-1.3-2.3-1.4-1.4.1-2.2.6-2.3 1.6h-6.4c-.1-3.7 3-5.5 9.2-5.5 6.1-.2 8.9 2.1 8.4 6.9v7.6c-.2 1.1.1 1.8.9 2.1v.3zm-10.5-3c2.1 0 3.1-1.4 3-4.2-.6.3-1.4.5-2.4.8-2 .3-2.9.9-2.7 1.9.1 1 .8 1.5 2.1 1.5zm12.3 2.8h6.5V547h-6.5v22.8zm39.5-14h-7c-.3-2.4-1.7-3.6-4.1-3.7-2.8.2-4.2 2.4-4.2 6.7-.1 4.2 1.4 6.3 4.4 6.2 2.1 0 3.4-1.3 3.8-3.8h7.2c-.9 5.9-4.5 8.9-10.9 9.2-7.7-.2-11.7-4.2-12-11.8.3-7.5 4.1-11.5 11.4-12 6.8.1 10.6 3.2 11.4 9.2zm11 1.4c-1.9.2-2.8 1.6-2.9 4.3 0 3 .9 4.5 2.8 4.6 1.9.1 2.8-1.4 2.8-4.6-.2-2.7-1.1-4.2-2.7-4.3zm-9.4 4.7c.2-5.7 3.3-8.6 9.5-8.9 6.1.3 9.3 3.2 9.6 8.6-.2 5.6-3.4 8.5-9.6 8.6-6.2-.1-9.4-2.9-9.5-8.3zm20.5 8.4v-16.8h6v2.5c1.5-1.9 3.3-2.9 5.4-3 2.7 0 4.5 1 5.5 3.1 1.3-2.1 3.2-3.1 5.7-3.1 4.3-.1 6.4 2.4 6.4 7.4v9.9h-6.6v-8.5c.1-2.4-.7-3.6-2.2-3.5-1.6 0-2.3 1.2-2.2 3.8v8.3h-6.7v-8.5c.1-2.5-.7-3.7-2.2-3.5-1.6 0-2.3 1.2-2.2 3.8v8.3h-6.9zm30.8 0v-16.8h6v2.5c1.5-1.9 3.3-2.9 5.4-3 2.7 0 4.5 1 5.5 3.1 1.3-2.1 3.2-3.1 5.7-3.1 4.3-.1 6.4 2.4 6.4 7.4v9.9h-6.6v-8.5c.1-2.4-.7-3.6-2.2-3.5-1.6 0-2.3 1.2-2.2 3.8v8.3h-6.7v-8.5c.1-2.5-.7-3.7-2.2-3.5-1.6 0-2.3 1.2-2.2 3.8v8.3h-6.9zm36.8-10.3h6.1c-.2-1.6-1.2-2.6-3-2.8-2 .1-3.1 1-3.1 2.8zm12.6 3.3h-12.6c.1 2.1 1.2 3.1 3.3 3.2 1.1 0 1.9-.5 2.5-1.4h6.2c-1.1 3.3-4.1 5-9.1 5.2-6.1-.2-9.2-3-9.4-8.4.3-5.5 3.5-8.5 9.4-8.9 6.2.4 9.5 3.8 9.7 10.3zm1.4 7v-16.8h6.1v3.4c.9-2.6 2.6-3.9 5.1-3.9.1 0 .3 0 .5.1h.4v6.6h-.6c-.3-.2-.6-.3-.8-.3-2.7 0-4.1 1.7-4 5v5.8h-6.7zm31.2-10.5h-6.7c-.1-.7-.3-1.2-.6-1.7-.5-.3-1.1-.5-1.7-.6-2 .1-3 1.6-3 4.4 0 2.8 1 4.2 3 4.2 1.5 0 2.3-.8 2.5-2.5h6.7c-.6 4.3-3.6 6.5-9.1 6.7-6.2-.2-9.3-3-9.5-8.4.2-5.6 3.3-8.5 9.5-8.9 5.3.2 8.3 2.5 8.9 6.8zm2.4 10.5h6.5v-16.8h-6.5v16.8zm0-19.1h6.5v-4.7h-6.5v4.7zm28 18.8h-6.9l-.3-1.7c-1.6 1.3-3.7 2-6.4 2-3.9-.2-5.9-1.8-6-4.8 0-3 2.6-4.8 7.9-5.4 2.8-.3 4.1-.9 4.1-1.7-.1-.8-.8-1.3-2.3-1.4-1.4.1-2.2.6-2.3 1.6h-6.2c-.1-3.7 3-5.5 9.2-5.5 6.1-.2 8.9 2.1 8.4 6.9v7.6c-.2 1.1.1 1.8.9 2.1v.3zm-10.4-3c2.1 0 3.1-1.4 3-4.2-.6.3-1.4.5-2.4.8-2 .3-2.9.9-2.7 1.9 0 1 .7 1.5 2.1 1.5zm12.3 2.8h6.5V547h-6.5v22.8zm28-9.3h-2.4v4.2h3.3c2.2.1 3.3-.6 3.3-2.1.1-1.5-1.3-2.2-4.2-2.1zm.2-7.9h-2.6v3.7h3c1.6 0 2.5-.7 2.6-2 .1-1.2-.9-1.8-3-1.7zm1.1 17.2h-11.1V547h10.9c6.2 0 9.3 1.9 9.3 5.7-.1 2.2-1.1 3.8-3 5 2.4.7 3.7 2.5 3.8 5.2 0 4.6-3.3 6.9-9.9 6.9zm30.9.2h-6.9l-.3-1.7c-1.6 1.3-3.7 2-6.4 2-3.9-.2-5.9-1.8-6-4.8 0-3 2.6-4.8 7.9-5.4 2.8-.3 4.1-.9 4.1-1.7-.1-.8-.8-1.3-2.3-1.4-1.4.1-2.2.6-2.3 1.6h-6.3c-.1-3.7 3-5.5 9.2-5.5 6.1-.2 8.9 2.1 8.4 6.9v7.6c-.2 1.1.1 1.8.9 2.1v.3zm-11-3c2.1 0 3.1-1.4 3-4.2-.6.3-1.4.5-2.4.8-2 .3-2.9.9-2.7 1.9.1 1 .8 1.5 2.1 1.5zm11.9 3.3v-16.8h6.1v2.6c1.5-2.1 3.4-3.1 5.6-3.1 4.2.1 6.4 2.5 6.5 7.3v10h-6.6v-8.9c-.1-2-.9-3-2.4-3.1-1.7 0-2.6 1.2-2.5 3.5v8.5h-6.7zm29.8-6.6-1.5 1.3v4.8h-7.8v-23.3h7.8V558l5-5.2h9.1l-7.4 6.6 8.3 10.4h-9.4l-4.1-6.1z" fill="#4C638B"/>
  <path d="M37.136 476.3s-5.4-5.6-9.3-6.6c-3.8-1-7-.5-7.3-.7-.3-.2 9.7-11.8 24.3-15.3 14.5-3.5 33.9-1.8 46.7 7 12.8 8.8 24.1 24.6 26.9 39.3 2.8 14.8 0 31.4-9.3 41.5s-20-.2-22.9-5.5c-3-5.3-11.8-22.2-17.9-28.9s-17.4-7.1-19.5-7.1c-2.2 0-3.5-.3-3.5-.3s1.3-4.3 9.5-7.8c8.1-3.5 19.1-2.2 23.3.7 4.2 2.8 11.1 9.3 14.8 16.6 3.7 7.3 5.6 12.6 5.6 12.6s6.1-10 0-24.9-17.8-21.8-17.8-21.8-11.7-6.8-23.6-5.3c-12 1.5-20 6.5-20 6.5" fill="#E30016"/>
  <path d="M82.336 547.2s5.4 5.6 9.3 6.6c3.8 1 7 .5 7.3.7.3.2-9.7 11.8-24.3 15.3-14.5 3.5-33.9 1.8-46.7-7-12.7-8.8-24-24.6-26.9-39.4-2.8-14.8 0-31.4 9.3-41.5 9.3-10.1 19.9.2 22.9 5.5s11.8 22.2 17.9 28.9c6.1 6.6 17.3 7.1 19.4 7.1s3.5.3 3.5.3-1.3 4.3-9.5 7.8c-8.1 3.5-19.1 2.2-23.3-.7-4.2-2.8-11.1-9.3-14.8-16.6-3.4-7.2-5.4-12.5-5.4-12.5s-6.1 10 0 24.9c6.1 14.9 17.7 21.8 17.7 21.8s11.7 6.8 23.6 5.3c12-1.6 20-6.5 20-6.5" fill="#4C638B"/>
</svg>
