<svg viewBox="0 0 1024 1024" xmlns="http://www.w3.org/2000/svg" height="1em" width="1em">
  <path d="M224 0h576c123.6 0 224 100.4 224 224v576c0 123.6-100.4 224-224 224H224C100.4 1024 0 923.6 0 800V224C0 100.4 100.4 0 224 0z" fill="#FFF"/>
  <path d="M382.8 309.6S352 278 329.6 272c-21.6-6-39.6-2.8-41.6-3.6s55.6-66.8 138.4-86.8c82.8-19.6 193.2-10.4 266.4 39.6 72.8 50 137.2 139.2 153.6 223.2 16 83.6 0 178-53.2 235.2-53.2 57.6-113.6-.8-130.8-31.2-17.2-30-67.2-126-102.4-164s-98.4-40-110.8-40-20-2-20-2 7.6-24.4 54-44.4c46.4-19.6 108.8-12.4 132.8 3.6 23.6 16 63.6 52.8 84.4 94 20.8 41.6 32.4 71.6 32.4 71.6s35.2-56.4 0-141.2-101.2-123.6-101.2-123.6-66.4-38.4-134.8-30-114 37.2-114 37.2" fill="#E30016"/>
  <path d="M641.2 714.4S672 746 694.4 752c21.6 6 39.6 2.8 41.6 3.6 2 .8-55.6 66.8-138.4 86.8-82.8 19.6-193.2 10.4-266.4-39.6-72.8-50-137.2-139.2-153.6-223.2-16-83.6 0-178 53.2-235.2 53.2-57.6 113.6.8 130.8 31.2 17.2 30 67.2 126 102.4 164 35.2 37.6 98.4 40.4 110.8 40.4 12.4 0 20 2 20 2s-7.6 24.4-54 44.4C494.4 646 432 638.8 408 622.8c-23.6-16-63.6-52.8-84.4-94-20.8-41.6-32.4-71.6-32.4-71.6s-35.2 56.4 0 141.2C326.4 683.2 392.4 722 392.4 722s66.4 38.4 134.8 30c68.4-9.6 114-37.6 114-37.6" fill="#4C638B"/>
</svg>
