<svg viewBox="0 0 1024 1024" xmlns="http://www.w3.org/2000/svg" height="1em" width="1em">
  <path d="M47.446 530.036a115.297 115.297 0 0 0 15.616 1.074c5.387 0 10.592-.39 15.59-1.074-2.528 9.127-6.4 17.414-11.323 24.467a47.23 47.23 0 0 1-4.285.208c-1.445 0-2.869-.08-4.285-.208-4.93-7.053-8.81-15.34-11.313-24.467m-32.364-18.29a62.906 62.906 0 0 1-.293-5.664c0-1.556.116-3.947.293-5.654 5.641-3.038 12.426-5.572 20.027-7.404a100.42 100.42 0 0 0 0 26.126c-7.601-1.81-14.386-4.37-20.027-7.404m43.215-54.796a49.808 49.808 0 0 1 4.392-.212c1.48 0 2.945.084 4.387.212 5.036 7.06 9.013 15.335 11.577 24.462a116.665 116.665 0 0 0-15.946-1.073c-5.516 0-10.862.369-15.986 1.073 2.571-9.127 6.54-17.401 11.576-24.462m-14.48 49.123c0-5.05.414-9.939 1.2-14.704 5.72-.8 11.77-1.248 18.051-1.248 6.27 0 12.305.449 18.01 1.248a90.353 90.353 0 0 1 1.203 14.704c0 5.061-.42 9.964-1.202 14.732a129.96 129.96 0 0 1-18.01 1.248c-6.282 0-12.332-.448-18.052-1.248a90.401 90.401 0 0 1-1.2-14.732m67.212-5.638c.177 1.704.281 4.091.281 5.645 0 1.583-.104 3.948-.281 5.655-5.641 3.045-12.43 5.586-20.039 7.415.553-4.264.856-8.6.856-13.07 0-4.44-.303-8.8-.849-13.056 7.602 1.847 14.391 4.378 20.032 7.411m-42.694 68.926v-5.289c23.978-2.051 43.321-18.056 50.416-39.623a68.057 68.057 0 0 1-12.992 5.998 49.163 49.163 0 0 1-25.732 21.6c3.967-7.044 7.084-14.984 9.113-23.59 12.692-2.875 23.465-7.57 31.164-12.574.722-3.493.902-8.434.902-10.094 0-1.628-.18-6.569-.902-10.087-7.699-5.003-18.483-9.7-31.175-12.574-2.032-8.58-5.157-16.542-9.102-23.575 11.015 4.015 20.088 11.787 25.732 21.615a67.612 67.612 0 0 1 12.992 5.994c-7.095-21.567-26.438-37.576-50.416-39.642v-5.212c20.055-.929 39.025-7.03 47.405-15.32l-5.402-7.344c-9.55 7.296-24.677 12.281-42.003 13.13V419H57.771v13.774c-17.325-.849-32.46-5.834-42.01-13.13l-5.395 7.344c8.37 8.29 27.344 14.413 47.405 15.32v5.212c-23.988 2.066-43.324 18.075-50.423 39.642a67.51 67.51 0 0 1 12.992-5.994c5.641-9.828 14.714-17.6 25.732-21.615-3.952 7.055-7.073 14.995-9.099 23.597-12.684 2.875-23.453 7.549-31.142 12.552-.707 3.518-.904 8.46-.904 10.087 0 1.66.197 6.601.904 10.094 7.689 5.003 18.447 9.7 31.131 12.574 2.019 8.606 5.154 16.546 9.11 23.59a49.15 49.15 0 0 1-25.732-21.6 67.952 67.952 0 0 1-12.992-5.998c7.099 21.567 26.435 37.572 50.423 39.623v5.289C31.827 571.08 10.007 585.164 1 604h11.652c9.021-13.895 26.036-23.492 45.12-24.998v25.784h10.563v-25.784c19.08 1.506 36.087 11.103 45.12 24.998h11.644c-8.996-18.836-30.823-32.92-56.764-34.64m890.192-95.571v-7.983h60.236v7.983h-60.236zm63.864 21.772v8.243h-12.904v46.063c0 6.875-5.576 12.46-12.44 12.46h-27.466l3.303-7.924H992.6c0-.019.015-.019.018-.04 2.979 0 5.38-2.424 5.38-5.407v-45.152h-42.374v-8.243h66.767zm-83.603-2.903h10.305s-2.71 5.06-7.293 11.94v57.73h-10.526V524.44l.177-5.816c-2.97 3.617-6.354 7.391-9.811 10.67h-12.462c16.799-15.917 29.61-36.637 29.61-36.637zm-24.53 1.451c13.924-15.455 24.36-32.658 24.36-32.658h10.475s-9.55 17.226-23.032 32.658h-11.803zm-324.797 17.137v12.21h24.41c0-.02.01-.02.01-.02 2.995-.021 5.415-2.445 5.415-5.407v-6.783h-29.835zm-41.61 12.21h30.06v-12.21h-30.06v12.21zm-.003-20.152h30.06V492.42h-30.06v10.885zm41.613 0h29.835V492.42h-29.835v10.885zm17.64 28.093c9.473 11.505 23.348 22.743 34.284 30.926h-14.349c-10.065-7.003-23.363-18.446-32.848-30.926h-4.727v32.382h-11.553v-32.382h-4.728c-9.481 12.48-22.78 23.923-32.84 30.926h-14.346c10.929-8.183 24.818-19.42 34.274-30.926h-23.973v-46.89h41.613V474.16H531.53v-7.945h46.378V460h11.553v6.215h46.557v7.945H589.46v10.347h41.377v34.41c0 6.903-5.605 12.48-12.5 12.48H607.1zm69.27-6.967h25.609v29.941h22.5v-29.94s13.782 0 20.202-.019h.015a5.434 5.434 0 0 0 5.384-5.43v-20.61h-25.6V471.57H701.98v26.802h-25.61v26.058zm59.614 29.941h32.402l-3.73 7.956h-106.58v-7.956h32.402v-21.999h-25.623v-41.938h25.623V471.57h-29.093v-7.941H765.07v7.941h-29.086v18.864h25.597v29.457c0 6.89-5.57 12.481-12.467 12.481h-13.13v22zm72.718-81.15-8.25 10.728h-12.471l12.807-16.647c3.878-5.057 7.877-7.302 12.961-7.302 5.067 0 9.07 2.245 12.958 7.302l12.8 16.647h-12.461c-3.69-4.786-8.26-10.749-8.26-10.749-2.649-3.418-4.029-3.48-5.037-3.48-1.004 0-2.395.062-5.047 3.502zm-6.811 47.014c.4 7.182 2.752 21.214 4.233 27.578h-8.482c-2.077-9.195-3.678-18.149-4.581-27.578h8.83zm28.673 27.578h-8.474c1.476-6.364 3.832-20.396 4.23-27.578h8.833c-.922 9.426-2.521 18.38-4.59 27.578zm50.335-6.616c7.014 8.11 14.773 15.835 21.02 21.13h-13.16c-10.072-7.6-26.653-27.175-34.736-42.092h11.587c2.124 3.925 5.115 8.287 8.53 12.737 3.157-4.45 5.642-9.308 7.276-12.737h11.562c-2.346 6.464-6.775 13.814-12.078 20.962zm-61.342-27.695v40.84h20.676v.041l-3.76 7.944h-48.492v-7.984h21.12v-40.841h-16.784v-7.97H809.1v-9.258h-16.783v-7.97h43.89v7.97h-16.65v9.258h16.65v7.97h-16.65zm33.884-29.25h27.992v-12.676h-27.992v12.676zm23.776 20.598a4.22 4.22 0 0 0 4.212-4.23c0-.33.004-3.9.004-8.42h-27.992v12.676l23.776-.026zm-18.719 47.092c2.136-1.534 3.356-2.741 5.674-4.832 2.306 3.276 3.483 4.85 6.267 8.068 0 0-7.255 8.072-15.15 8.57-7.212.43-12.153-3.734-12.153-10.434v-89.685h48.623l-.021 39.54c0 5.332-4.293 9.668-9.598 9.668h-28.7v37.112c0 3.508 2.683 3.695 5.058 1.993zm-474.021.38v.077l-4.674 9.928h-83.14V463.63h84.188v9.998h-69.675v31.899h60.896v9.995h-60.896v36.8h73.3zm40.335-29.418H469.7l-22.444-47.68-22.444 47.68zm63.454 39.423-13.852-29.424H420.09l-13.84 29.424h-14.516l46.464-98.698h18.108l46.464 98.698h-14.504zm-243.614-10.599c11.426-1.948 16.512-10.515 16.512-18.172 0-6.409-3.231-11.802-8.858-14.77-2.55-1.431-8.643-2.862-13.971-2.862h-34.934v-9.997h34.934c14.153-.46 19.605-9.084 19.605-17.306h.037-.037c-.007-8.27-6.478-14.973-16.001-14.973h-45.495v78.682h36.885c6.375 0 9.019-.121 11.323-.602zm10.633-41.593c.344.084 20.748 4.964 21.055 24.731.15 8.816-4.743 21.947-20.15 25.66-5.334 1.306-10.249 1.801-14.437 1.801H182V463.63l62.825.018c15.325 0 27.518 10.273 27.54 22.967.025 0 .054.018.073.018h-.07c-.025 10.25-6.952 19.085-17.082 23.503z" fill="#EC1B2E"/>
</svg>
