<svg viewBox="0 0 1024 1024" version="1.1" xmlns="http://www.w3.org/2000/svg" height="1em" width="1em">
  <path d="M273.3 540.3c-0.6-1.2-1.2-2.4-1.7-3.6-0.2-0.3-0.3-0.6-0.5-1-0.5-1-1-1.9-1.5-2.8l-0.3-0.6c-0.6-1.1-1.3-2.1-1.9-3.2-0.2-0.3-0.4-0.5-0.5-0.8-0.5-0.8-1.1-1.7-1.6-2.4-0.2-0.3-0.3-0.5-0.5-0.8-0.7-1-1.4-1.9-2.1-2.9-0.2-0.2-0.3-0.4-0.5-0.6-0.6-0.8-1.2-1.5-1.8-2.3-0.2-0.2-0.4-0.5-0.6-0.7-0.8-0.9-1.5-1.8-2.3-2.6l-0.2-0.2c-0.7-0.8-1.5-1.5-2.2-2.3l-0.6-0.6c-0.9-0.9-1.8-1.8-2.8-2.6l-0.3-0.3c-0.9-0.8-1.8-1.6-2.7-2.3-0.2-0.1-0.3-0.3-0.5-0.4-1-0.8-1.9-1.5-2.9-2.3-0.2-0.1-0.4-0.3-0.6-0.4-1-0.7-2-1.4-3.1-2.1l-0.1-0.1c-1-0.7-2-1.3-3.1-1.9l-0.6-0.3c-1-0.6-2.1-1.2-3.2-1.8l-0.6-0.3c-1.1-0.6-2.2-1.1-3.3-1.6-1.1-0.5-2.2-1-3.4-1.5l-0.6-0.3c-1.1-0.5-2.2-0.9-3.4-1.3-0.2-0.1-0.4-0.1-0.5-0.2-1.1-0.4-2.2-0.8-3.3-1.1-0.1 0-0.2-0.1-0.3-0.1-1.2-0.4-2.3-0.7-3.5-1.1-0.2-0.1-0.4-0.1-0.7-0.2-1.2-0.3-2.3-0.6-3.5-0.9-0.1 0-0.3-0.1-0.4-0.1-1.1-0.3-2.3-0.5-3.4-0.8-0.2 0-0.3-0.1-0.4-0.1-1.2-0.2-2.4-0.5-3.6-0.7-0.2 0-0.4-0.1-0.7-0.1-1.2-0.2-2.4-0.4-3.7-0.6h-0.2c-1.2-0.2-2.4-0.3-3.6-0.5-0.2 0-0.4 0-0.5-0.1-1.2-0.2-2.4-0.3-3.6-0.4-0.2 0-0.4-0.1-0.6-0.1-2.3-0.2-4.5-0.3-6.8-0.4-0.5 11.1-1.8 23-3.9 35.8-2.6 15.9-15.6 28.4-33 31.9-12.5 2.5-24.4 4.1-35.8 4.7v0.8c0.1 1.1 0.1 2.2 0.2 3.3 0 0.2 0 0.4 0.1 0.7 0.1 1.2 0.2 2.3 0.3 3.5 0 0.3 0 0.5 0.1 0.8 0.1 1.2 0.3 2.4 0.4 3.6v0.4c0.2 1.1 0.3 2.3 0.5 3.4 0 0.2 0.1 0.5 0.1 0.7 0.2 1.2 0.4 2.4 0.6 3.5 0.1 0.3 0.1 0.5 0.2 0.8 0.2 1.2 0.5 2.4 0.8 3.6 0 0.1 0 0.1 0.1 0.2 0.3 1.2 0.5 2.3 0.9 3.5 0.1 0.2 0.1 0.5 0.2 0.7 0.3 1.1 0.7 2.3 1 3.5 0.1 0.2 0.1 0.5 0.2 0.7 0.4 1.2 0.8 2.4 1.2 3.5v0.1c0.4 1.2 0.9 2.4 1.3 3.5 0.1 0.2 0.2 0.5 0.3 0.7 0.5 1.1 1 2.3 1.5 3.4l0.3 0.6c0.5 1.1 1 2.2 1.6 3.3 0 0.1 0.1 0.1 0.1 0.2l1.8 3.3c0.1 0.2 0.3 0.4 0.4 0.7 0.6 1.1 1.3 2.2 2 3.2 0.1 0.2 0.2 0.4 0.3 0.5 0.7 1 1.4 2 2.1 3.1 0.1 0.1 0.1 0.2 0.2 0.3 0.8 1.1 1.6 2.1 2.4 3.1 0.2 0.2 0.3 0.4 0.5 0.6 0.8 1 1.7 2 2.5 3l0.4 0.4c0.8 0.9 1.7 1.8 2.6 2.8 0.1 0.1 0.2 0.2 0.3 0.4 0.8 0.8 1.7 1.6 2.5 2.4l0.6 0.6c0.7 0.6 1.4 1.2 2.1 1.9 0.2 0.2 0.5 0.4 0.7 0.6 0.9 0.8 1.9 1.5 2.9 2.3 0.1 0 0.1 0.1 0.1 0.1 0.9 0.7 1.9 1.4 2.9 2 0.3 0.2 0.6 0.4 0.8 0.6 0.8 0.6 1.7 1.1 2.6 1.7 0.2 0.2 0.4 0.3 0.7 0.4 1.1 0.7 2.2 1.3 3.3 2 0.3 0.1 0.5 0.3 0.8 0.4 0.9 0.5 1.8 1 2.8 1.5 0.3 0.2 0.7 0.4 1 0.5 1.2 0.6 2.4 1.2 3.7 1.8l107.2 0.1-0.2-107.3zM164.6 458.7c-0.1-1.2-0.2-2.5-0.4-3.7v-0.4c-0.2-1.3-0.3-2.5-0.5-3.8-0.2-1.3-0.4-2.5-0.6-3.8 0-0.2-0.1-0.3-0.1-0.5-0.2-1.2-0.5-2.5-0.7-3.7 0-0.1 0-0.2-0.1-0.3-0.3-1.2-0.5-2.4-0.8-3.6 0-0.1-0.1-0.2-0.1-0.3-0.3-1.2-0.6-2.4-1-3.6 0-0.2-0.1-0.4-0.2-0.5-0.4-1.2-0.7-2.4-1.1-3.6v-0.1c-0.4-1.2-0.8-2.3-1.2-3.5-0.1-0.1-0.1-0.3-0.2-0.4-0.4-1.1-0.9-2.3-1.4-3.4-0.1-0.2-0.2-0.3-0.2-0.5-1-2.3-2.1-4.6-3.2-6.8-0.1-0.2-0.2-0.3-0.3-0.5-0.6-1.1-1.2-2.2-1.8-3.2-0.1-0.2-0.2-0.3-0.3-0.5-0.6-1.1-1.3-2.1-2-3.2v-0.1c-0.7-1-1.4-2.1-2.2-3.1-0.1-0.2-0.3-0.4-0.4-0.6-0.7-1-1.5-2-2.3-2.9-0.1-0.1-0.2-0.3-0.4-0.4-0.8-0.9-1.5-1.8-2.4-2.7l-0.3-0.3c-0.8-0.9-1.7-1.8-2.6-2.7l-0.6-0.6c-0.7-0.7-1.5-1.4-2.3-2.2l-0.2-0.2c-0.8-0.8-1.7-1.5-2.6-2.3-0.3-0.2-0.5-0.4-0.8-0.6-0.7-0.6-1.5-1.2-2.2-1.7-0.2-0.2-0.4-0.3-0.6-0.5-0.9-0.7-1.9-1.4-2.9-2.1-0.3-0.2-0.5-0.3-0.8-0.5-0.8-0.5-1.6-1.1-2.4-1.6-0.3-0.2-0.6-0.4-0.9-0.5-1-0.6-2.1-1.3-3.2-1.9l-0.6-0.3c-0.9-0.5-1.9-1-2.8-1.5-0.3-0.2-0.6-0.3-1-0.5-1.2-0.6-2.4-1.2-3.6-1.7l-0.1 0.1L3 377l0.1 106.7c0.6 1.3 1.2 2.5 1.8 3.7 0.2 0.3 0.4 0.7 0.5 1 0.5 1 1 1.9 1.5 2.8 0.1 0.3 0.3 0.5 0.4 0.8 0.6 1.1 1.3 2.2 2 3.3 0.1 0.2 0.3 0.4 0.4 0.6 0.5 0.9 1.1 1.7 1.7 2.6 0.2 0.3 0.4 0.6 0.6 0.8 0.7 1 1.4 1.9 2.1 2.9 0 0 0.1 0.1 0.1 0.2 0.7 1 1.5 1.9 2.3 2.8 0.2 0.3 0.4 0.5 0.6 0.7 0.6 0.7 1.2 1.4 1.9 2.1 0.2 0.2 0.4 0.4 0.5 0.6 0.8 0.9 1.6 1.7 2.4 2.5 0.1 0.1 0.2 0.2 0.4 0.3 0.9 0.9 1.8 1.8 2.8 2.6 0.2 0.1 0.3 0.3 0.4 0.4 1 0.9 2 1.7 3 2.5 0.2 0.2 0.4 0.3 0.6 0.5 1 0.8 2.1 1.6 3.1 2.4 0.1 0.1 0.2 0.1 0.3 0.2 1 0.7 2 1.4 3.1 2.1 0.2 0.1 0.4 0.2 0.5 0.3 1.1 0.7 2.2 1.3 3.2 2 0.2 0.1 0.4 0.3 0.6 0.4 1.1 0.6 2.2 1.2 3.4 1.8 0.1 0 0.1 0.1 0.2 0.1 1.1 0.6 2.2 1.1 3.3 1.6l0.6 0.3c1.1 0.5 2.3 1 3.4 1.5 0.2 0.1 0.5 0.2 0.7 0.3 1.2 0.5 2.4 0.9 3.6 1.4h0.1l3.6 1.2c0.2 0.1 0.5 0.2 0.7 0.2 1.2 0.3 2.3 0.7 3.5 1 0.2 0.1 0.5 0.1 0.7 0.2 1.2 0.3 2.3 0.6 3.5 0.9h0.2c1.2 0.3 2.4 0.5 3.6 0.8 0.3 0 0.5 0.1 0.8 0.2 1.2 0.2 2.4 0.4 3.5 0.6 0.2 0 0.5 0.1 0.7 0.1 1.1 0.2 2.3 0.3 3.4 0.5 0.1 0 0.2 0 0.4 0.1 1.2 0.2 2.4 0.3 3.6 0.4 0.3 0 0.5 0 0.8 0.1 1.2 0.1 2.4 0.2 3.5 0.3h0.7c1.1 0.1 2.2 0.1 3.3 0.2h0.8c0.7-11.4 2.3-23.3 4.7-35.7 3.5-17.4 16.1-30.3 32-32.9 12.9-2.1 24.8-3.4 36-3.9-0.1-2.3-0.2-4.6-0.5-6.8 0-0.3 0-0.5-0.1-0.6z" fill="#EA5C03"/>
  <path d="M162.2 485.8h-0.3c-1.2 0.1-2.4 0.2-3.5 0.2-0.2 0-0.5 0-0.7 0.1-1.2 0.1-2.3 0.2-3.5 0.3-0.1 0-0.3 0-0.4 0.1-1.1 0.1-2.2 0.2-3.2 0.3-0.2 0-0.3 0-0.5 0.1-1.1 0.1-2.2 0.3-3.4 0.4-0.2 0-0.5 0.1-0.7 0.1-1.1 0.1-2.2 0.3-3.3 0.4h-0.3c-1.1 0.1-2.1 0.3-3.1 0.4-0.2 0-0.4 0.1-0.6 0.1-1.1 0.2-2.1 0.3-3.2 0.5-0.2 0-0.4 0.1-0.7 0.1-1.1 0.2-2.1 0.3-3.2 0.5-8.7 1.4-14.4 9-16.1 17.6-0.2 0.9-0.3 1.8-0.5 2.7 0 0.2-0.1 0.3-0.1 0.5-0.2 0.9-0.3 1.8-0.5 2.7 0 0.2-0.1 0.4-0.1 0.5-0.2 0.9-0.3 1.9-0.5 2.8v0.2c-0.2 1-0.3 2-0.5 3 0 0.2-0.1 0.4-0.1 0.6-0.2 1-0.3 2-0.4 3 0 0.2-0.1 0.4-0.1 0.6-0.1 1-0.3 2-0.4 3v0.3c-0.1 1-0.2 2.1-0.3 3.2 0 0.2-0.1 0.5-0.1 0.7-0.1 1.1-0.2 2.1-0.3 3.2 0 0.2 0 0.4-0.1 0.6-0.1 1-0.2 2-0.2 3.1v0.7h0.7c1-0.1 2.1-0.2 3.1-0.2h0.6c1.1-0.1 2.2-0.2 3.2-0.3 0.2 0 0.5-0.1 0.7-0.1 1.1-0.1 2.1-0.2 3.2-0.3 0.1 0 0.2 0 0.4-0.1 1-0.1 2-0.2 3-0.4 0.2 0 0.4-0.1 0.6-0.1 1-0.1 2-0.3 3-0.4 0.2 0 0.4-0.1 0.6-0.1 1-0.1 2-0.3 3-0.5h0.2c0.9-0.2 1.9-0.3 2.8-0.5 0.2 0 0.3-0.1 0.5-0.1 0.9-0.2 1.8-0.3 2.8-0.5 0.2 0 0.4-0.1 0.5-0.1 0.9-0.2 1.8-0.3 2.7-0.5 8.7-1.7 16.3-7.4 17.7-16 0.2-1 0.3-2.1 0.5-3.2 0-0.2 0.1-0.4 0.1-0.6 0.2-1 0.3-2.1 0.5-3.2 0-0.2 0.1-0.4 0.1-0.6 0.1-1 0.3-2.1 0.4-3.1v-0.3c0.1-1.1 0.3-2.2 0.4-3.3 0-0.2 0.1-0.5 0.1-0.7 0.1-1.1 0.3-2.2 0.4-3.4 0-0.2 0-0.3 0.1-0.5l0.3-3.3v-0.4c0.1-1.2 0.2-2.3 0.3-3.5 0-0.2 0-0.4 0.1-0.7 0.1-1.2 0.2-2.4 0.2-3.6v-0.3c0-0.7 0.1-1.3 0.1-2-0.7 0.3-1.4 0.3-2 0.3M92.7 567.8c-0.3-3.3-0.6-6.8-0.7-10.3-3.5-0.1-7-0.4-10.3-0.7-30.4-3-55.1-13.8-73.7-32.3l-0.8-0.8L3 528v119.3h118.7l4.3-5.3c-0.3-0.2-0.6-0.5-0.8-0.8-18.6-18.5-29.5-43.2-32.5-73.4zM154.7 377l-4.4 4.4c0.2 0.1 0.5 0.4 0.5 0.4 17.9 17.8 28.7 41.6 32.2 70.7 0.5 4.3 0.9 8.8 1.1 13.4 4.6 0.2 9.1 0.5 13.5 1.1 29.2 3.5 53.1 14.3 71 32 0.2 0.1 0.3 0.3 0.5 0.5l4.4-4.3V377H154.7z" fill="#D10F22"/>
  <path d="M880.8 555.4v47.4l25-27.4h8.6L895 596.3l20.1 27.7h-8.3l-16.6-22.7-9.4 10V624h-6.9v-68.6h6.9z m-375.7 16.9c7.5 0 12.9 2.1 16.3 5.6 3.6 3.7 5.2 9.3 5.2 16v29.2h-13.2v-5.4c-3.3 3.8-7.9 6.4-14.6 6.4-9.1 0-16.6-5.4-16.6-15.4v-0.2c0-11 8-16 19.4-16 4.8 0 8.4 0.9 11.8 2.1v-0.8c0-5.9-3.5-9.2-10.3-9.2-5.2 0-8.9 1-13.3 2.7l-3.4-10.9c5.3-2.5 10.5-4.1 18.7-4.1z m340.2 2.1c11.4 0 18 7.9 18 19.4V624h-7v-28.4c0-9-4.7-14.6-13-14.6-8.1 0-14.1 6.1-14.1 15.2V624h-7v-48.6h7v8.5c3.1-5.3 8-9.5 16.1-9.5z m-279.6-2.1v15h-0.7c-8.9 0-14.4 5.8-14.4 17.9V624h-13.4v-50.8h13.4v10.2c2.7-6.9 7.1-11.5 15.1-11.1z m226 2.1c12.8 0 20 6.7 20 19.3V623H805v-7.2c-3.3 4.4-8.7 8.3-17 8.3-8.7 0-17.5-5-17.5-15 0-10.2 8.2-15.6 20-15.6 6 0 10.2 0.9 14.4 2.1v-1.7c0-8.6-5.2-13.1-14-13.1-5.5 0-9.9 1.5-14.2 3.5l-2.1-5.8c5.2-2.5 10.3-4.1 17.1-4.1z m-202.6-21.1v25.9c3.4-4.8 8.1-8.3 15.3-8.3 11.5 0 22.4 9.4 22.4 26.5v0.2c0 17.1-10.7 26.5-22.4 26.5-7.4 0-12-3.5-15.3-7.6v6.7h-14v-69.8h14z m96.6 19c10.9 0 17.2 7.2 17.2 18.8V624h-14.4v-28.3c0-6.8-3.2-10.3-8.7-10.3-5.5 0-9 3.5-9 10.3V624h-14.4v-50.8h14.4v7.2c3.4-4.2 7.6-8.1 14.9-8.1z m-38.9 1.1V624h-15.5v-50.7h15.5zM434 556.5v26.3h25.8v-26.3h14V623h-14v-26.7H434V623h-14v-66.5h14z m305.7 0c12.6 0 20.9 6.5 20.9 16.6 0 8.8-5.1 13.2-10.2 15.5 7.6 2.4 13.7 7 13.7 16.2 0 11.5-9.2 18.2-23.2 18.2h-28.5v-66.5h27.3z m51.8 42.2c-8.8 0-13.7 4-13.7 10.2 0 6.3 5.4 9.8 11.8 9.8 8.6 0 15.7-5.5 15.7-13.2v-4.7c-3.4-1.1-8-2.1-13.8-2.1z m-52.7-5.3h-20.1v23.2H740c9.6 0 15.6-4.4 15.6-11.8 0.1-7.3-5.7-11.4-16.8-11.4z m-234.5 7.8c-5.8 0-9.3 2.4-9.3 6.7v0.2c0 3.7 3 5.9 7.4 5.9 6.3 0 10.6-3.6 10.6-8.6v-2.5c-2.4-0.9-5.4-1.7-8.7-1.7z m95.7-17.3c-6.6 0-12.1 5.6-12.1 14.2v0.2c0 8.5 5.5 14.2 12.1 14.2s12.2-5.5 12.2-14.2v-0.2c-0.1-8.6-5.7-14.2-12.2-14.2z m139.8-21.1h-21.1V586h20.5c8.5 0 14.3-4.1 14.3-12.1 0.1-6.8-4.8-11.1-13.7-11.1z m-92.8-7.7v12.3h-15.8v-12.3H647zM431.6 480.5c4.4 1.5 7.9 0.9 9.3 0.9s2.1 1.1 3.4 1.9 0 4.6 0 6.6c0 2.1-9.9 13.5-12.7 15s-2.7 3.6-1 5.8 1.2 4.1-1.6 5.2c-2.8 1.1-2.8 0-5.1 0s-14 1-18.3 1c-4.3 0-6.7 1.1-8.8-1-2.1-2.1-4-1.1-5.8-1.1s-0.4 6.2-1.2 8.8c-0.7 2.6-2.5 0-4.3 0-1.8 0-4.4-0.9-5.9-6.7s-3.8-21.2-3.8-24.1-2.9-6.1-3.5-8.7c-0.6-2.6 0.6-2.7 2.8-1.7 2.2 1 7.5 4 9.1 5.2s5.6 0.5 12.6-1.2 15.7-7.5 20.3-8.9 10.1 1.4 14.5 3zM539 464.7c1.6 2.1 6.8 5.3 6.8 7.9s-1 4.7 0 6.7c1 1.9 1.7 3.9 2.7 7 0.9 3.1 1.1 11.2 1 18.2-0.1 6.9-2.5 13.8-3.7 16.3-1.2 2.5-6.3 3-8.2-0.9-1.9-3.9-8.9-16.9-8.9-20.1 0-3.2 3.7-1.3 3.7-10.5s-3.1-26.5-1.1-28.2c1.9-1.7 6.1 1.5 7.7 3.6z m148.6 31c1.7 1 5.7 1.3 9.3 3 3.6 1.7 6.9 3.3 8.4 9s-1.5 8.6-1.5 10-4.7 2.9-6.4 2.9c-1.7 0-2.7-4.3-4.1-5.7s-3.7-2.9-5.7-6.5-3.7-6.9-3.7-8.2-3.3-4.7-1.5-5.4c1.8-0.7 3.5 0 5.2 0.9z m321.5-60.8c3.6 0 5.1 3 8.7 5.6 3.6 2.6 3.1 5.2 3.1 6.1 0 0.9-2.3 1.8-4.8 1.8s-4 1.1-8 1.8c-4 0.6-6.1-1.8-9.2-1.8s-9.1-1.3-12.5 0c-3.4 1.3-2.6 5.1-2.6 8.8 0 3.7 0 4.6-0.7 13.1s1.3 7.7 1.3 13.2 0.5 6.5 0.5 10.2c0 3.6 0.3 4.7 0.8 7.9s-2 3.6-1.3 6.7 0.4 3.4-0.7 5.7-0.6 4.8-1.6 4.8-1.1 0.8-2.7 0.8-2.5-1-3.1-2.8c-0.6-1.8-1.6-3.7-3.1-5.1s-1.9-3.8-2.7-5.3c-0.8-1.5-1-1.6-1-4.7s2.7-4.8 3-7.9c0.3-3 0-18.5-0.7-20.7s0.7-3.5 1.5-5.7-0.8-9.3-0.8-11.4-1.1-4.9-3-5.7c-1.9-0.8-5.1 0.8-10.7 1.7s-5.5-1.7-8.2-1.7-4.4-3.7-5.3-4.8-3.7-1.6-2.5-3.1c1.2-1.5 16.3-0.6 21.8-3.4s16.4-1.8 21.2-1.8 9.5-0.1 14.4-2.2c4.9-2.2 5.3-0.1 8.9-0.1z m-184.9-29.4c2 0 7.3 0.4 10.4 1.9s8.2 2.4 12.3 2.4 1.6 1.3 3.7 1.3c2 0 1.7 1.6 1.7 2.4 0 0.8-1.4-0.2-2.3 2.1s-3 5.1-3.6 6.4c-0.6 1.3-0.1 3.9-1.1 4.6-1 0.6-1.7-2.5-1.7-0.6s-3.2 10.1-2.4 11.8c0.9 1.7 0 3-0.9 5.5s-2.9 5.3-2.4 6.4 2.4 0 4.9 0 2.8 1.8 5.7 1.8c2.9 0 5.5 3.2 4.3 4.1-1.1 0.9-2.9 2.8-4.9 4.8-2 2-5.2 3.6-6.8 4.8-1.5 1.2-3.7 2-3.7 3.3s7.8 5.4 9.4 6.2c1.6 0.8 3 0.5 3 0 0-0.3-1.8-1.6-5.3-3.9l1.2 0.5c5.3 2.2 10.3 4.6 14.9 7l1.1 0.6c7.9 4.3 13.8 7.7 15.2 10.8 1.4 3.1 1.6 8.6 0 9-1.6 0.4-3.5 2-4.8 2-1.3 0-1.3 0-3.6-2s-9.7-6-14.7-9c-4.9-3-11.9-7-13.6-7h-0.3c-1.3 0-0.3 0.1-1 1.4-0.7 1.4 0.7 0.5 0 1.1s-2.2 3.4-1.6 3.4c0.6 0 3.7-3.9 3.7-2.9s-1.8 3-2.7 4.1c-0.9 1.1 0.9 1.8-1 3.6s-0.8 2.1-4.9 7.4-7.2 5.2-10.3 8.3c-3.1 3.1-3.4 6.1-4.6 6.1s-3.2 3.8-6.3 4.3c-3.1 0.5-4-0.5-6-2.1s-1.8-2.9-3.4-5.5-1.2-4.7 0-5.9 1.6-2.7 1.6-6.3c0-3.6 0.6-67.4 0-68.1-0.6-0.6-1.6 0-4.8 0-3.2 0-1.4-0.9-5.2-0.9s-4.8-1.7-6.2-2.3c-1.4-0.6-1.5 1.6-3.3 3.2s-3.7 3.2-5 5.3 1.3 1.7 3.2 1.7c1.9 0 4.6-2.8 6.4-1.7s4.8 0.1 6.8 0.9 3.5 2.7 1.8 3.7-0.6 2-2.7 2.7c-2.1 0.7-2.1 1.5-4.6 2.2-2.5 0.7-5.2 1.1-7.7 2.1s-4 1.1-5.6 1.1-1.3 1.9 0 3.2 2.3 1.8 3.7 2.7c1.3 0.9 3.3 0.5 5.5-0.9s4.2-1.8 6.6-1.8 4.2 0.9 5.5 1.8 4.1 1.8 2.8 2.7c-1.3 0.9-2.8 1.8-5.3 1.8s-3.8 2.7-6.8 4.1c-3 1.4-2.9-0.2-6.4 3.1-3.5 3.4-3.2 8.4-3.2 10.9v5.4c0 1.9 1.7 2 3 2h0.3c1.3 0 4.1-3.5 6.4-5.8 2.3-2.4 7.1-6.9 8.6-8.1 1.5-1.1 2.3-1.2 2.4 1v1.2c1.5-0.1 2.3 0.5 2.3 1.8 0 1.9-1.2 5.6-2.3 9.4-1.1 3.8-9.6 11.6-13 14.6-3.4 3-4.3 2-4.3 3.3s-1.9 3-3.9 5.4c-2 2.4-3.3 5.1-5.8 5.1s-4.4-5.8-6.5-6.5c-1.4-0.5-2.2-1.4-2.5-2.7-0.9-2.3-0.9-4.3 0-5.8 1.3-2.3 1.3-7.7 1.9-9.7s1.5-4.3 0.6-7.4c-1-3.2 0-4.4-1.2-5.6-1.2-1.2-3.5 1.2-5.1 1.2s-5.7 2.1-7.4 1.4c-1.7-0.7-4.3 0-5.6-1.4-1.3-1.4-4.6-1.8-3.5-4 1.1-2.2 6.8-2.6 10.3-3.4 3.5-0.9 5.8-3.3 9.9-4 4.1-0.7 2.5-3.3 2.5-7.1s-1.2-2.7-1.2-4.6c0-1.8-1.4-2.1-3.5-1.4s-5.2 4.7-7 4.7c-1.8 0-11.7 5-15.1 6.3-3.4 1.3-2.1-2.1-3.7-2.1s-5.2-1.1-3.9-1.1 8-6.4 11.7-10.7 18.3-27.2 21.5-31.2c3.3-4 5.1-8.2 5.9-9.9 0.7-1.7 3.6-2.6 5.3-1.3s8 2.2 12.6 3 5.9 0.8 8.6 2.7c2.7 1.9 1.4 3 0.7 3.9-0.7 0.9-2.5 1.1 0 2.2s5.5 4.2 6.6 3.5c1.1-0.7 1.5-1.8 1.5-3.5s0.3-2.8 1.8-1.1c1.5 1.6 2.2 1.1 4.1 3.4 2 2.4 0.7 2.8 1.7 5.2 1 2.4 0.6 4.1 1.6 4.8 0.9 0.6 5-0.9 7-0.9s2 0.9 3.6 0.9 0-1.7 0-3.4c0-1.6-0.7-2.7-0.7-3.5V417c0-0.9-1.4-0.2-2.2 0-0.8 0.2-5.2-0.2-7.6-1.1-2.4-0.9-1-2.1-3.9-2.1s-1.2-1.2 0.7-2.4 5.7-1.3 7.1-2.1c1.3-1 3-3.8 5-3.8z m-148.5-0.4c2.2 1.4 5.7 3.5 7.3 5.8 1.6 2.3 4.1 1.4 5.6 5s3.3 4.5 3.3 5.2c0 0.6-4.1 3.4-3.3 4.5s2.7-0.7 4.8-0.7 3.9-1.1 5.6-2.1 4.9 0 6.9 0 5.9 3.9 9.1 3.9 5.5-0.6 7 0.7c1.5 1.3 1.4 3.6 2.2 4.6s-0.8 4-2.2 4c-1.4 0-3.8 0.4-5.4 1.3s-5.3 0-8.8 1.7c-3.5 1.7-4.2 2.7-8.8 2.7s-6.5-1-6.5-2.7 1.8-3.7 0-4.8c-1.8-1.2-6.2 2.3-8.7 3.1-2.4 0.8-6.3 0.7-6.9 1.7-0.6 1 2 2.7 4.8 2.7 2.7 0 6.1-0.2 9.4 1.6s3.3 4.8 0 7-8 3.5-9.4 4.4c-1.4 0.9-3.5 0.7-4.8 1.4-1.2 0.7-3.4 1.2-5 2.3-1.6 1.1-6.3-0.6-7.2 1.1-0.9 1.8 0.2 0.9 2.2 3 2.1 2.1 5.3 3.3 7 2.1 1.7-1.2 5.6-3.3 7.7-5.2s3.3-4.3 5.1-3.4c1.8 0.9 3.5 1.3 5.1 1.3s4.2-1.3 6-1.3 4.1 1.3 5.4 1.3c1.3 0-0.4 3.4-1.4 3.4-1 0-1.4 1.8 0 1.8s2.9 0.5 0 1.3-4.5 2-6.5 2-3.3 0.8-5.1 1.6-1.8 2.5 0.8 3.9c2.5 1.4 4.3 3.3 4.3 5.3s-1.6 3.9 0 3.9 7.9-0.8 12.4-0.8 6.8-0.5 8.8-1.3 8.2 0 10.8 1.3c2.5 1.3 10 2.9 8 6.2-2.1 3.4-4.8 3.4-8 3.4s-8.4-1.5-12.4-1.5-12.2-1.5-18.8 0.9c-6.5 2.4-8.4 2.5-10.4 2.5-1.9 0-3.6-0.8-6.2-0.8s-3.9 1.4-6.3 1.4h-0.4c-2.4 0-6 0.1-6 1.6 0 1.6 5.1 3.1 8 5.5 2.9 2.4 1.7 4.7 0 6.1-1.7 1.4-4.7 5-8 6.1-3.4 1.1-6.7 3.2-9.5 4.3-2.8 1.1-3.2 1.1-5.6 1.1-2.4 0-2-2.2-4-1.1s5.6-6.4 5.6-8.4 5.6-7.5 6.8-9.7 3-4.1-0.7-2.8c-3.7 1.4-9.4 4.3-14.3 4.3s-7.1-2.5-8.7-1.6c-1.6 0.9-6 9-7.3 11.3-1.2 2.4 0.6 6.7-0.6 6.7s-8.4 0.7-11.1-1.2c-2.6-2-3.9-5.2-6.5-7.2-2.5-2-2.9-4.2-1.4-6.1 1.4-2 3.3-3.6 2.4-6.3-0.9-2.7-2.4-7.7-2.4-11.9s-0.3-11.4-0.9-16.8-1.4-13.2 0.9-15.6c2.4-2.4 4.3-3 6.9-0.6 2.6 2.4 7.2 3.7 10.8 6.4 3.6 2.7 4.9 6.5 4.9 8.6 0 2.1-2.4 5.5-3 7.7-0.6 2.2-2.8 4.7-3.9 6-1.1 1.3-3.4 5.7-4.8 7.5-1.5 1.9-2.4 4.4 0 4.4s4.9-0.2 6.9-1.6c1.9-1.4 7.3-9 9.2-12.1 1.9-3.1 3.2-3.7 4.4-6.5 1.2-2.7 0.9-3.1 2.9-4.3 2-1.2 3.1-4.3 5-4.8 0.3 0.6 0.8 0.5 1 2.4 1.1 0.4 1.5-0.4 2-0.7 0 1.2-1.2 2.8-1.2 4.7s0 5.5-1.9 8.2c-1.9 2.7-6.6 8.6-6.6 11.1s2.1 2.1 4.9 1.1c2.8-1.1 5.8 0 7.7-1.9 1.8-1.9 2.5-4.4 1.4-7.5-1.2-3.1-1.4-7.7-1.4-12.6 0-4.8 0.2-7.3-1.3-9.8-1.6-2.5-0.9-4.5-2.8-4.5s-1.4 2.5-4.1 3.1-7.5-6.2-9.2-6.2-1.4-3.5-1.4-5.1-0.8-1.3-3-0.7-8.5-4.8-12.4-6.7c-3.9-1.8-5-4.3-3.9-7.3s13.1-12.1 17.5-13.8 5.6-1.1 8.2-1.8c2.5-0.7 4.4 4.8 4.4 8.7s0.9 4.8-1.3 7.5-4.8 4-3.4 5c1.5 1 1.7-0.5 2.5-1.2s4.7-4.1 6-5.6c1.2-1.5 2.3-2.3 4.1-0.7 1.8 1.7 5.5 6.4 5.5 7.4s2.5-0.1 4.5-1.2 3.7-0.1 5.7-1 2.5-1.8 3.6-1.8 0.8-1.5-0.7-1.5-2.7 1.5-4.3 1.5-2.8-1.5-3.5-1.5 0.7-4.5 0-6.9 1.5-4.2 1.5-5.8V408c0-2.3 1.3-3 3.4-3s3.2-1.3 5.4 0.1zM402.3 494c-4.1 1.5-10-0.5-12.1 1.5-2.1 2 0.9 4.7 0.9 6.9 0 2.1 1 7.2 2.3 8.5 1.3 1.3 2.8 4.1 5.4 4.1s3.1-1.4 4.3-2.7c1.2-1.3 7.4-1.5 7.4-2.9s-1.3-5.4-0.7-8.3c0.7-2.9 3-7.5 1.8-9s-5.2 0.4-9.3 1.9z m105-26.1c2.5 0 6.4 6.8 6.4 9.9s1.4 6 1.4 9.9-1.1 14.6-3.9 19.2-4.9 5-8.8 1.4-8.4-4.8-8.4-15.4 10.7-25 13.3-25zM932.8 406c3.1 1.7 6.6 2.4 10.8 4.9 4.2 2.5 9.5 6 10.2 8.5 0.7 2.5 0.8 5-2.3 6.9s-7.8 1.5-9.5 2.7c-1.7 1.2-5.1 0.8-7.2 1-2.1 0.2-8.2 3.4-8.2 5.2s0.6 1.3 3 2.6 10.7 4.6 12.9 9.1-0.4 4.5-1.7 6.5-10.6 8-13.2 11.1c-2.6 3.1-4.1 3.2-3.4 5.8 0.8 2.6 3.6 5.2 4.1 8.5 0.5 3.3 2.3 8.8 2.3 11.3s1.7 8.3-1.5 10.5c-3.2 2.2-6.5 2.4-9.6 1.2s-6.4-2.1-7-5.5 0-3.2 0-6.7 1.9-9.6 0-9.6-6.6 2.6-7.9 5.2c-1.3 2.7-1.3-0.5-4 0.5-2.6 1-2.2 3-5.6 3-3.4 0-8 1.7-9.8 0.9-1.8-0.9 0.8-3.3-1.4-3.9-2.2-0.5-3.6-2.5-2.1-2.5s5.4-3.6 8.8-8.3c3.4-4.7 10.8-14.5 14-18.1 3.2-3.5 2.9-6.1 5.4-9.3s7.7-7.3 6.4-9.9c-1.3-2.6-4.5-4.2-7.8-4.2s-6.1-1.5-3.4-5.5c2.6-4 5.1-7 6.3-10.2 1.2-3.2 3.6-8.7 6.5-8.7s1.5-2.9 2.9-3.7c1.4-0.8 2.4 0.2 4.1-0.6 1.9-0.6 4.8-0.4 7.9 1.3z m-118.3 63.9c-2.3 1.2-0.9 5.8-0.9 8.3v0.6c0 3.1-0.1 11-1 14.6-1 3.8-0.5 6.6 1 6.9 1.6 0.2 1.8-0.2 3.1-1.6 1.3-1.4 4.2-1.4 7.7-5.3 3.6-3.8 5.9-6.7 6.9-8.1 1-1.4 3.7-0.5 4.9-2 1.2-1.5-1.9-5.1-4.9-5.1-3.1 0-3.2-2.5-5.8-2.5-2.6 0 2.6-2.2 1-2.2s-9.7-4.8-12-3.6zM405 401.3c2.9 0 3.3 2.7 4.1 3.8 0.9 1.1 4.1 7.7 4.1 11.3s-1.5 7.1-0.8 8.3 20.4 15.2 24.8 18.5c4.4 3.3 8.4 9.4 15.6 14.9s14.2 9.5 18.7 13.3c4.5 3.8 9.5 11 0 11s-21-1.5-30-11-29.9-26.9-32.5-29.5c-2.6-2.6-5-6.1-6.9-4.3s-9.6 14-11.9 17.3-4.3 5.6-4.3 7.2 5.3 1.3 8.3 1.3 11.5-2.2 12.3-4.4c0.9-2.1 1.9-3.6 6.6-2.9s8.4 3.2 11.5 5.9c3.1 2.8 3 5.6-1.4 6.7-4.4 1.1-12 3.9-23.5 3.9-11.4 0-17.6-4.5-20.3-2.9-2.8 1.7-8.1 13.7-19.4 20.8-11.2 7.1-17.6 9.2-21.7 9.2s-8.2-5.2-6.2-6.5c2-1.3 7.5-3.8 11.2-8s9.3-8.7 11.6-11.3c2.3-2.6 6.2-7.2 6.2-8.2 0-1-4.7 1.3-7.8 4-3.1 2.7-6.1 4-6.1 5.8 0 1.8-2.7 5-8.9 5.9-6.2 1-10.6-0.2-12.7-5.9-2.1-5.8-4.4-16.4-5.5-20.7s-2-7.7-3.4-9.4c-1.4-1.6 0.5-7.9 4.2-7.9h0.4c3.9 0 10.7-0.1 10.7-1.6 0-1.6-1.9-1.8-1.9-3.5s0.3-4.5 2.7-4.5c2.4 0 8.7-2.7 13-6.2 4.3-3.5 14.1 0 17.8 0 3.7 0 6.4 1.2 10.3 1.2s7.7 0.4 6.7 5c-1.4 8-9.9 20.4-8.5 21.6s1.5 1.5 3.2-1.4c1.8-2.9 17.1-30.6 19.8-34.4 3.1-3.9 7-12.4 9.9-12.4z m177 68c9.3 0 14.7 7.7 17.5 9.9 2.8 2.2 5 7.1 3.9 10.1s-3.5 2.3-5.2 5c-1.7 2.7-7.6 1.8-12.1 0.8s-10.5-0.8-13.5-0.8c-2.9 0-2.3-1.3-5-1.3-2.5 0-2.7-3.2-2.7-4.7v-0.3c0-1.4-3.7-4.5-5.2-6.6-1.5-2.2-5.7-3.3-5.7-4.5s-1.7-3.1 0-4.6c1.7-1.5 2.6-1 4.7-1 2.1-0.1 13.9-2 23.3-2z m92.8 1.7c-2.4 0.2-3-0.2-4.2 0.6-0.6 0.4 0.3 2.4 0.5 4.5 0.3 2.4 0.1 5 0.7 5.3 1.2 0.6 0.9 1.2 2.5 1.2s1.7-0.3 2.4-1.2c0.7-0.9 2-0.7 2.6-1.3 0.6-0.6 0-8.5-0.6-8.8s-1.5-0.5-3.9-0.3z m159-20.6c-2.3 0-4.8 1.8-7.3 4.7-2.5 2.9-2 2.9-5.1 2.9-3.1 0-6.9-3-6.9 0s-2 6.5 0 6.5 3.2-1 5.5 0 4.7 1 6.5 1c1.8 0 6-5.7 7.3-9.1s2.3-6 0-6z m-315-47c1.8 0.1 1.9 1.1 9.2 1.1h16.6c3.7 0 7.2 2.2 5.5 6.8s-3.4 7.7-6.2 10.2-6.8 4.1-8.6 8c-1.8 3.9-8 6.2-10.5 8-2.4 1.9-5.1 4.8-5.1 6 0 1.2 5 0.6 7-0.8s5.3 0.2 8.6-1c3.2-1.2 14.3-5.7 17.3-6.7s4.9-6.6 7.5-6.6h0.6c2.8 0 8.5 0.1 11.6 1 3.4 1 15.8 0.9 19.5 0.9 3.7 0 7.3 3.7 6.2 6-1 2.3-4.8 5.6-7.6 6.4-2.8 0.8-10.1 6.6-11.5 6.6s-3.3 2.2-5.5 2.2h-8.9c-2.8 0-4.3-1.7-4.3-3.6 0-1.9-0.6-2.7-4.7-1.4-4.1 1.4-16.3 6.9-22.5 6.9s-11-2.2-13.1-3.2c-2.1-1-1.6-2.9-3.4-3.8-1.8-0.9-5.7 5.7-7.9 6.9s-4 4.7-7.9 6.3-20.1 1-22.9 1c-2.8 0 3.8-5.9 5.8-9.2 2-3.3 8.2-15.6 11.9-19.3s9.2-10.2 10.4-13.7c1.3-3.6 5.3-10.6 6.3-12.9 0.9-2 4.8-2.2 6.6-2.1z m-175.1 41.1c-2.4 0.6 1.7 2.1 2.9 5.6 0.7 2.3 0 6.1 2.2 6.1 1.5 0 2.1-2.9 2.1-8s-2.5-4.9-7.2-3.7z m316.5-2.7c-1.5 0-0.7 1.9-0.7 3.3s-1.4 2.1-3.3 3.7-2.1 3.2-0.7 3.2c1.4 0 3.3 3.2 4.7 3.2 1.4 0 1.2-0.5 2-1.6s2.8-1.7 3.8-3.1c0.9-1.4 2.3-3.4 3.4-4.7 1.1-1.3 3.5-3.4 2.4-4-1.1-0.6-2.4 1.5-5.8 0s-4.3 0-5.8 0z m164.1-7.8c-0.9 0-3 1.1-4.5 1.1s-3.2-1.2-4.6 0c-1.4 1.2 0 4.5 0 7.3s-1.5 3.5 0 4.9c1.5 1.4 3.1 1.3 4.6 0 1.5-1.3 3.3-0.5 4.5-2.3 1.3-1.8 1.2-5.3 1.2-8.6s-0.3-2.4-1.2-2.4z m152.1-27.3c2.3 0.8 4.5 4 7.3 4s7 3.9 6.2 5.6c-0.8 1.7-6.6 3.9-11.2 3.9s-7.5-1-11.4-1.7c-3.9-0.7-5.9-0.5-8.4-1.4-2.5-0.9-6-5.1-1.5-6.5 4.5-1.3 7.8 0 10.7-1.3 2.9-1.1 6-3.3 8.3-2.6z" fill="#102848"/>
</svg>
