<svg viewBox="0 0 1024 1024" version="1.1" xmlns="http://www.w3.org/2000/svg" height="1em" width="1em">
  <path d="M130.1 563H43.9c-1.9 0-4.3-1.3-4.3-4.5v-8.4c0-2.1 1.8-4.1 4.3-4.1h73c3.1 0 5.5-2.6 5.5-5.7v-27.2c0-3.6-2.8-5.8-5.8-5.8-2.3 0-34.9 0.1-42.4 0.1-3.3 0-4.5-2.5-4.5-4.3v-10.2c0-2.9 2.5-4.3 4.2-4.3h56.6c5 0 9.8 4.3 9.8 9.8v54.3c0 7.2-5.7 10.3-10.2 10.3zM49.9 461.7h86.2c1.8 0 4.2 1.3 4.2 4.5v8.4c0 2.1-1.8 4.1-4.2 4.1h-73c-3.1 0-5.5 2.6-5.5 5.7v27.2c0 3.6 2.7 5.8 5.8 5.8 2.3 0 34.9-0.1 42.4-0.1 3.3 0 4.5 2.4 4.5 4.3v10.2c0 2.8-2.5 4.3-4.2 4.3H49.5c-5 0-9.8-4.3-9.8-9.8V472c0-7.2 5.7-10.3 10.2-10.3zM90.7 422c50.1 0 90.7 40.5 90.7 90.3 0 49.9-40.6 90.4-90.7 90.4S0 562.2 0 512.3C0 462.5 40.6 422 90.7 422z m0 163.7c40.6 0 73.6-32.8 73.6-73.3s-32.9-73.3-73.6-73.3c-40.6 0-73.6 32.8-73.6 73.3 0 40.4 33 73.3 73.6 73.3z" fill="#C00415"/>
  <path d="M264.2 586.4v1.2H246v-1.2c2-0.2 3.2-0.5 3.8-0.9 0.7-0.5 1-1.4 1-2.7v-11.5h-12.9v11.5c0 1.3 0.3 2.1 1 2.7 0.6 0.5 1.8 0.8 3.8 0.9v1.2h-18.1v-1.2c1.9-0.2 3.1-0.5 3.6-1 0.7-0.5 1-1.4 1-2.6v-24.3c0-1.3-0.4-2.2-1-2.7-0.5-0.5-1.7-0.8-3.5-0.9v-1.3h18.1v1.3c-1.9 0-3.1 0.3-3.7 0.9-0.7 0.5-1.1 1.4-1.1 2.7v10.4h12.9v-10.4c0-1.3-0.4-2.2-1.1-2.7-0.6-0.5-1.9-0.8-3.7-0.9v-1.3h18.3v1.3c-3.3-0.1-4.8 1.1-4.7 3.6v24.3c0 1.3 0.3 2.1 1 2.6 0.3 0.5 1.5 0.8 3.5 1z m36.9-32.8v1.3c-1.7 0.2-2.8 0.6-3.3 1.1-0.6 0.6-0.9 1.6-0.8 3.1v16c-0.1 4.4-1.1 7.7-2.9 9.6-2.3 2.2-5.8 3.5-10.4 3.6-4.6 0-8.2-1-10.7-3.1-1.4-1.1-2.4-2.3-2.8-3.5-0.6-1.3-0.8-3.2-0.8-5.5v-16.7c0-1.8-0.3-3-0.9-3.6-0.4-0.5-1.6-0.9-3.5-1v-1.3h17.8v1.3c-2.2 0-3.6 0.3-4.1 0.9-0.7 0.6-1.1 1.8-1 3.7v16.7c-0.2 6.5 2.4 9.8 7.6 9.8 6.4 0 9.5-3.6 9.4-10.9v-15.3c0-1.8-0.3-3.1-1-3.7-0.7-0.7-2.1-1.1-4.1-1.2v-1.3h11.5z m8.1 22.2h10.4l-5.4-12.2-5 12.2z m26.6 10.6v1.2h-17.3v-1.2c2-0.1 3.2-0.3 3.5-0.5 0.5-0.2 0.8-0.7 0.8-1.5 0-0.9-0.8-2.9-2.2-6.3-0.1-0.2-0.2-0.3-0.2-0.4h-12c-1.6 3.9-2.4 6.1-2.3 6.5-0.1 1.4 1.4 2.1 4.3 2.2v1.2h-10.8v-1.2c2.1 0.1 3.8-1.9 5.2-5.9l11.8-27.6h1.5l11.8 26.5c1.4 3.2 2.5 5.1 3.1 5.7 0.7 0.9 1.7 1.3 2.8 1.3z m14.8-29v12.8c3.9 0 6.5-0.5 7.7-1.5 1.4-1.1 2.1-3.1 2.1-6.1 0.1-4.9-2.1-7.3-6.5-7.3-1.3 0-2.2 0.1-2.6 0.4-0.4 0.2-0.6 0.8-0.7 1.7z m23.5 29v1.2h-11L352 571.9h-1.4v9.9c0 1.8 0.3 3 0.9 3.5 0.4 0.5 1.7 0.9 3.8 1.1v1.2h-18.1v-1.2c2.1-0.2 3.4-0.5 3.8-1 0.6-0.5 0.9-1.7 0.9-3.6v-22.3c0-1.8-0.3-3.1-1-3.6-0.5-0.6-1.7-0.9-3.7-1v-1.3h17.2c10 0.1 15 3 15.1 8.8 0.1 4.3-2.7 7.2-8.4 8.7l10.7 14.3c0.6 0.7 1.3 1 2.3 1z m19.1-31.9c-6.2 0.2-9.4 5.5-9.6 16.1 0 10.7 3.2 16.1 9.6 16.2 6.4-0.1 9.5-5.5 9.5-16.2-0.1-10.5-3.3-15.9-9.5-16.1z m0-1.6c12 0.8 18.3 6.8 19.1 17.7-0.8 11.1-7.1 17-19.1 17.7-12-0.7-18.4-6.6-19.2-17.7 0.8-11 7.2-16.9 19.2-17.7z m21.3 34.6v-1.2c1.9-0.2 3.2-0.5 3.7-1 0.7-0.5 1-1.5 1-3v-23.8c-2.2-2.6-3.7-3.8-4.5-3.6v-1.3h11.2l18.3 21.4h0.1v-15.2c0-1.8-0.3-3-1-3.7-0.7-0.7-2-1.2-3.9-1.3v-1.3h11.3v1.3c-1.7 0.2-2.8 0.5-3.4 1.1-0.6 0.5-0.8 1.5-0.8 2.9v29.4H445l-23.5-27.1h-0.1v20.1c0 1.8 0.3 3 1 3.7 0.6 0.7 2 1.1 4 1.3v1.2h-11.9z m76.5-14.4v1.2c-2.1 0.1-3.3 0.5-3.7 1-0.6 0.5-0.9 1.7-0.9 3.6v6.3c-3.4 1.8-8.3 2.8-14.7 3-12.3-0.5-18.8-6.3-19.7-17.4 0.9-11.3 7.3-17.3 19.2-18 3.3 0.2 5.9 0.8 8 1.7 1.3 0.5 2.1 0.7 2.5 0.7 1 0.1 1.9-0.7 2.5-2.3h1.4v11.7h-1.3c-3.3-6.6-7.5-10-12.7-10.2-6.7 0-10 5.4-10 16.2 0.1 10.6 3.7 15.9 10.6 16 4 0.1 5.9-1.2 5.7-3.7v-5.2c0-1.4-0.4-2.3-1.1-2.8-0.5-0.4-2-0.7-4.4-0.8v-1.2H491z m60.4-19.5v1.3c-2.8-1.3-7.5 3-14.2 12.9l9.6 14.3c1.2 1.7 2.1 2.9 2.8 3.5 0.6 0.6 1.4 0.8 2.3 0.8v1.2h-18v-1.2c1.8-0.1 2.9-0.2 3.4-0.4 0.6-0.2 0.9-0.6 0.9-1.2-0.1-0.7-0.4-1.6-1.1-2.6l-5.4-8.2-2 2.6c-3.7 4.6-5.3 7.2-5 7.7-0.1 1.3 1.4 2 4.3 2.1v1.2h-13.2v-1.2c2.4-0.2 4.2-1.1 5.5-2.8l9.3-11.2-10.5-14.6c-1.3-2-2.7-3-4.2-2.9v-1.3h18.3v1.3c-2 0.1-3.1 0.2-3.4 0.4-0.5 0.2-0.8 0.6-0.8 1.3-0.1 0.5 0.2 1.1 0.8 1.9l5.1 7.5c5.1-6.4 7.1-9.5 6-9.3 0-0.6-0.3-1.1-0.8-1.3-0.4-0.2-1.4-0.3-3-0.4v-1.3h13.3z m21.1 32.8v1.2h-19.1v-1.2c2-0.1 3.4-0.4 4-0.9 0.7-0.5 1.1-1.4 1.1-2.7v-24.3c0-1.3-0.4-2.2-1.2-2.7-0.6-0.5-1.9-0.8-3.9-0.9v-1.3h19.1v1.3c-2 0-3.3 0.3-4 0.8-0.8 0.5-1.2 1.5-1.2 2.8v24.3c0 1.3 0.4 2.2 1.1 2.7 0.6 0.5 2 0.8 4.1 0.9z m11.7-10.6h10.4l-5.4-12.2-5 12.2z m26.6 10.6v1.2h-17.2v-1.2c2-0.1 3.1-0.3 3.5-0.5 0.5-0.2 0.8-0.7 0.8-1.5 0-0.9-0.8-2.9-2.3-6.3-0.1-0.2-0.1-0.3-0.2-0.4h-12c-1.7 3.9-2.4 6.1-2.3 6.5 0 1.4 1.4 2.1 4.4 2.2v1.2h-10.8v-1.2c2.1 0.1 3.8-1.9 5.2-5.9l11.8-27.6h1.5l11.8 26.5c1.4 3.2 2.4 5.1 3 5.7 0.7 0.9 1.6 1.3 2.8 1.3z m0.7 1.1v-1.2c1.9-0.2 3.2-0.5 3.7-1 0.7-0.5 1-1.5 1-3v-23.8c-2.2-2.6-3.7-3.8-4.5-3.6v-1.3h11.1L641 575h0.1v-15.2c0-1.8-0.3-3-1-3.7-0.7-0.7-2-1.2-3.9-1.3v-1.3h11.3v1.3c-1.7 0.2-2.8 0.5-3.4 1.1-0.6 0.5-0.8 1.5-0.8 2.9v29.4H642l-23.5-27.1h-0.1v20.1c0 1.8 0.3 3 1 3.7 0.6 0.7 2 1.1 4 1.3v1.2h-11.9z m75.8-14.4v1.2c-2.1 0.1-3.3 0.5-3.8 1-0.6 0.5-0.9 1.7-0.9 3.6v6.3c-3.4 1.8-8.3 2.8-14.7 3-12.3-0.5-18.8-6.3-19.6-17.4 0.9-11.3 7.3-17.3 19.2-18 3.2 0.2 5.9 0.8 8 1.7 1.3 0.5 2.1 0.7 2.4 0.7 1 0.1 1.9-0.7 2.5-2.3h1.4v11.7h-1.3c-3.3-6.6-7.5-10-12.7-10.2-6.6 0-10 5.4-10 16.2 0.1 10.6 3.6 15.9 10.5 16 4 0.1 5.9-1.2 5.7-3.7v-5.2c0-1.4-0.4-2.3-1.1-2.8-0.5-0.4-2-0.7-4.4-0.8v-1.2h18.8z m25.5-19.5v1.3c-2.1 0-3.3 0.4-3.8 1-0.7 0.6-1 1.8-1 3.7v22.1c0 7.3-3.9 10.9-11.7 11-5.3-0.1-8.3-2.2-9.1-6.3 0.1-2.4 1.4-3.7 3.7-3.9 2.5 0.3 3.8 1.6 3.9 3.8 0 0.7-0.3 1.3-0.8 1.8-0.4 0.5-0.7 0.9-0.7 1.3 0.1 1 0.9 1.5 2.4 1.6 2.4 0 3.6-1.4 3.5-4.3v-28.1c0-1.4-0.4-2.3-1.2-2.9-0.6-0.5-2-0.7-4.2-0.7v-1.3h19z m22 32.8v1.2h-19.1v-1.2c2.1-0.1 3.4-0.4 4-0.9 0.7-0.5 1.1-1.4 1.1-2.7v-24.3c0-1.3-0.4-2.2-1.2-2.7-0.6-0.5-1.9-0.8-3.9-0.9v-1.3h19.1v1.3c-2 0-3.3 0.3-4 0.8-0.8 0.5-1.2 1.5-1.2 2.8v24.3c0 1.3 0.4 2.2 1.1 2.7 0.6 0.5 2 0.8 4.1 0.9z m10.2-10.6h10.4l-5.4-12.2-5 12.2z m26.6 10.6v1.2h-17.2v-1.2c2-0.1 3.2-0.3 3.5-0.5 0.5-0.2 0.8-0.7 0.7-1.5 0-0.9-0.7-2.9-2.3-6.3-0.1-0.2-0.1-0.3-0.2-0.4h-11.9c-1.7 3.9-2.4 6.1-2.4 6.5 0 1.4 1.4 2.1 4.4 2.2v1.2h-10.8v-1.2c2.1 0.1 3.8-1.9 5.2-5.9l11.8-27.6h1.5l11.9 26.5c1.4 3.2 2.4 5.1 3.1 5.7 0.6 0.9 1.6 1.3 2.7 1.3z m1.4 1.1v-1.2c1.9-0.2 3.2-0.5 3.7-1 0.6-0.5 1-1.5 1-3v-23.8c-2.2-2.6-3.7-3.8-4.5-3.6v-1.3h11.1l18.3 21.4h0.1v-15.2c0-1.8-0.3-3-1-3.7-0.7-0.7-2-1.2-3.9-1.3v-1.3h11.4v1.3c-1.7 0.2-2.8 0.5-3.4 1.1-0.6 0.5-0.8 1.5-0.8 2.9v29.4h-1.4l-23.5-27.1h-0.1v20.1c0 1.8 0.3 3 1 3.7 0.6 0.7 2 1.1 4 1.3v1.2h-12z m78-14.4v1.2c-2.1 0.1-3.4 0.5-3.8 1-0.6 0.5-0.9 1.7-0.9 3.6v6.3c-3.4 1.8-8.3 2.8-14.7 3-12.3-0.5-18.8-6.3-19.6-17.4 0.9-11.3 7.3-17.3 19.2-18 3.2 0.2 6 0.8 8.1 1.7 1.3 0.5 2.1 0.7 2.4 0.7 1 0.1 1.8-0.7 2.5-2.3h1.4v11.7h-1.3c-3.2-6.6-7.5-10-12.6-10.2-6.7 0-10 5.4-10 16.2 0.1 10.6 3.6 15.9 10.5 16 4 0.1 5.9-1.2 5.7-3.7v-5.2c0-1.4-0.4-2.3-1.1-2.8-0.5-0.4-2-0.7-4.4-0.8v-1.2H851z m33-2.8v12.6c-0.1 2.1 1 3.2 3.2 3.1 4.4 0 6.5-2.5 6.5-7.6 0-5.3-2.6-8.1-8-8.1H884z m0-12.7v11.3c3.3 0 5.5-0.5 6.6-1.6 1.1-0.9 1.7-2.8 1.6-5.7 0-4.3-1.8-6.5-5.5-6.5-1.9 0-2.9 0.8-2.7 2.5z m-13.2 30v-1.2c1.9-0.2 3.2-0.5 3.7-0.9 0.7-0.5 1-1.4 1-2.7v-24.3c0-1.3-0.4-2.2-1.1-2.8-0.6-0.5-1.8-0.8-3.6-0.8v-1.3h16.3c9.1 0.1 13.7 2.8 13.8 8.1 0 3.6-2.5 6.1-7.7 7.4-0.3 0.1-0.4 0.2-0.6 0.2v0.1c6.5 1.2 9.8 4.2 10 8.9-0.5 5.9-5.4 9-14.8 9.3h-17z m41.5-11.8h10.4l-5.4-12.2-5 12.2z m26.6 10.6v1.2h-17.3v-1.2c2-0.1 3.2-0.3 3.5-0.5 0.5-0.2 0.7-0.7 0.7-1.5 0-0.9-0.7-2.9-2.3-6.3-0.1-0.2-0.1-0.3-0.2-0.4h-11.9c-1.7 3.9-2.5 6.1-2.3 6.5-0.1 1.4 1.4 2.1 4.4 2.2v1.2h-10.8v-1.2c2.1 0.1 3.8-1.9 5.2-5.9l11.8-27.6h1.5l11.8 26.5c1.4 3.2 2.4 5.1 3.1 5.7 0.7 0.9 1.6 1.3 2.8 1.3z m2.1 1.1v-1.2c1.9-0.2 3.2-0.5 3.7-1 0.6-0.5 1-1.5 1-3v-23.8c-2.2-2.6-3.7-3.8-4.5-3.6v-1.3h11.2l18.3 21.4h0.1v-15.2c0-1.8-0.3-3-1-3.7-0.7-0.7-2-1.2-3.9-1.3v-1.3h11.3v1.3c-1.7 0.2-2.8 0.5-3.3 1.1-0.5 0.5-0.8 1.5-0.8 2.9v29.4h-1.5l-23.5-27.1h-0.1v20.1c0 1.8 0.3 3 1 3.7 0.6 0.7 1.9 1.1 4 1.3v1.2h-12z m77.9-1.1v1.2h-18v-1.2c1.8-0.1 2.9-0.1 3.4-0.3 0.6-0.1 0.9-0.4 0.8-0.8 0.1-0.5-0.4-1.2-1.3-2.2l-9.8-11.4-1.5 1.2v9.9c0 1.3 0.3 2.1 1 2.6 0.5 0.5 1.7 0.8 3.7 1v1.2h-18.1v-1.2c2-0.2 3.2-0.5 3.7-0.9 0.7-0.5 1-1.4 1-2.7v-24.3c0-1.3-0.3-2.2-1.1-2.8-0.5-0.5-1.7-0.8-3.6-0.8v-1.3h18.1v1.3c-2 0-3.3 0.4-3.7 1-0.7 0.6-1 1.8-1 3.6v10.8l11.6-11c0.9-0.8 1.4-1.4 1.6-1.6 0.2-0.3 0.4-0.7 0.4-1.1 0-0.6-0.2-1-0.8-1.2-0.5-0.2-1.8-0.4-3.7-0.5v-1.3h15.5v1.3c-3.5-0.8-9.2 3-17.3 11.4l16.4 19c0.7 0.7 1.6 1.1 2.7 1.1z m-613.3-65.5c-1.7 3.1-4.1 6.1-6.1 6.7l-0.4 0.1-0.3-0.1c-1.9-0.6-3.5-2-4.3-3.8-0.5-1.2-1-3.2-0.1-5.7 0-0.3 0.1-0.6 0.4-1.1 0.3-0.5 0.5-0.6 1.1-0.8 0.4-0.2 1.4-0.6 1.6-0.8 0.1-0.2 0.2-0.3 0.3-0.5-0.5 0.3-1.1 0.5-1.7 0.7-1 0.3-7.6 0.7-7.6 0.7-0.3 0-1 0.2-1.5 0.4 0.1 0.7 0.1 0.8 0.1 1v2.3c-0.5 7-2.4 10.4-6.5 12.2l-0.2 0.1h-0.2c-3.3 0-3.9-5.3-4-9.9V521c0-0.2-0.1-0.7-0.1-2-0.1-1.2-0.1-2-0.2-2.6-1.1 0.2-6 0.5-7.8 1-0.7 0.1-1.1 0.1-1.6 0.1-2.1 0-3.7-0.7-4.8-1.9v1.4c0.2 2.9-0.3 5-1.5 6.4-1.3 1.3-3.1 2-5.7 2-1.6-0.1-3.4-0.9-4.3-3.9-0.6-2.1-0.2-4.8 0.1-7.6 0.2-2.1 0.4-4.2 0.4-6.4 0-2.6 0.2-3.8 0.4-4.8 0.3-1.6 0.6-2.9-0.3-8.8-1.2-2.7-1-5.7 0.4-8.5v-0.1l0.1-0.2c0.4-0.6 1-0.9 1.5-1.2 0.1 0 0.3-0.1 0.3-0.2l0.3-0.5 0.6 0.1h2.5c0.3 0 0.6 0.1 0.8 0.1 0.3 0 0.5-0.1 0.9-0.1 1 0 2.4 0.2 3.6 0.4l0.7 0.2c0.7 0.1 1.5 0.2 1.7 0.2 4.9-0.7 10.3-1.2 14.4-1.3 0.8 0 1.2-0.1 1.6-0.1 0.8-0.1 1.8-0.3 5.1-0.3 0.6 0 1.6-0.1 2.8-0.1 2.5-0.1 5.9-0.3 8.9-0.3 3.1 0 4.5 0.2 5.2 0.4 1-0.3 1.7-0.5 2.5-0.5 1.1 0 2 0.4 2.5 1.1 1.3 1.5 1.1 3.9 0.8 6.5-0.1 1.5-0.3 3-0.2 4.3 0.4 3.6 1.3 10.4 1.2 13.1 0 2.1-0.5 3.7-1 5.6 0 0.1-0.1 0.3-0.1 0.4 1.1-2.1 2.2-3.8 3.2-4.6l0.3-0.2h0.3c6.1-0.6 10.6-1.9 12-13-0.1-0.2-0.1-0.5-0.2-0.9-0.1-0.5-0.2-1.8-0.5-2.5h-3.2c-2 0-3.7 0.3-5.8 1.9-0.8 0.6-1.6 0.9-2.4 0.9-1.4 0-2.5-0.9-3.1-2.5-0.3-1.2 0-2.6 0.4-4.2 0.3-1.4 0.7-2.9 0.8-4.5 0.1-2.2 0.4-4.2 0.7-6.2 0.6-4.7 1.3-8.4-1.1-10.5-2.4-1.6-2.7-3.2-2.3-5.2-0.2 0.5-0.4 0.9-0.9 1.2-2.3 2.2-1.5 5-0.8 7.9 0.6 2.3 1.2 4.5 0.2 6.3-0.8 1.9-2.1 3.3-3.9 3.9-0.2 0.1-0.8 0.2-1.6 0.2-2.3 0-6.6-0.6-10-1-1.5-0.2-2.9-0.4-3.6-0.4-1.5-0.1-3-0.1-4.5-0.1-6.7 0-13.7 1-20.7 3.1-0.8 0.3-1.6 0.4-2.4 0.4-1.8 0-3.5-0.6-5.1-1.9-1.4-1.3-2.6-3.3-0.9-6.4 2.7-5.1 2.6-8.9-0.5-11.5-1.5-1.5-1.8-3.3-1.1-5.3 0.6-1.4 1.7-1.7 2.4-1.9 0.5-0.1 0.8-0.2 1.1-0.5 2.2-1.7 4-1.8 5.7-1.8h1.5c0.9 0 1.9 0 3-0.4 1.7-0.6 4.2-0.7 7.5-0.7 1.9-0.1 3.8-0.1 6.1-0.2 2-0.1 3.9-0.1 5.6-0.1 1 0 2 0 2.9 0.1 3.5 0.1 4.6 0.4 5.1 0.7 1.8 0.6 3.6 0.6 4.9 0.6h4.8c1.2 0 2.1 0.4 3.3 1.7 1.3 1.6 2.1 3.6 1.8 5.4 0.2-0.6 0.4-1.1 0.6-1.7 2.3-6.7 8-7 13.6-7.3 1.7-0.1 3.5-0.2 5.1-0.4h0.2c2.7 0 4.1-1.5 5.3-5.4 0.1-0.6 0.2-0.9 0.4-1.3 0.2-0.3 0.3-0.7 0.6-2.5l0.3-2.9 0.3-2.1c0.5-2.4 1.9-3.3 3.1-3.6h0.7c1.8 0 3.1 0.7 3.9 2.2 0.7 1.7 1.3 4.2 2 7.8 0.3 1.3 0.4 1.8 0.5 2 0.1 0.5 0.1 0.7 0 1.2 0 0.8 0.1 1.6 0.5 2.5 1.9 0.1 3.9 0.6 5.9 1.2h0.1l0.1 0.1c1.1 0.5 10.1 1.1 12.1 1.1 2.1 0.2 2.3 2.5 2.6 5.2 0.1 0.7 0.1 1.6 0.2 2.4 0.2 2.8-0.5 5.1-2.2 6.8-3.3 3.5-4.4 8.4-2.4 11.4l0.6 0.9c1.8 2.6 3.8 5.7 3.1 8.5-0.4 1.5-1.6 2.7-3.5 3.7-0.2 0.1-0.5 0.2-1.5 0.2-1.6 0-4.5-0.3-6.9-1.3 0.1 0.8 0.3 1.9 0.4 2.5l0.1 0.5c0.5 2.4 0.6 4.5 0.8 6.2 0.3 4.3 0.4 5.9 5.9 7.2 1.5-0.7 2.7-1.1 3.7-1.1 1.1 0 2 0.4 2.6 1.2 1.7 2.1 1 6.4 0.3 10.6-0.4 2.3-0.8 4.6-0.6 5.8 0.1 1.4-0.3 2.6-1.1 3.5-0.9 1-2.4 1.5-4.5 1.5-2.2 0-4.6-0.6-6.2-1.1-2.7-1-5.3-1.4-8.2-1.5-0.2 0.1-0.8 0.1-1.5 0.1-1.5 0-3.4-0.1-5.4-0.2h-0.6c-2.4-0.2-4.6-0.3-6.7-0.3-2.3 0-4 0.2-5 0.5-1 0.7-2.4 1.2-4.1 1.2-0.5 0-1 0-1.6-0.1h-0.1c-2.1 0.1-4.4 0.1-6.9 1.5-1.7 0.9-3 1.3-4.2 1.3-1.9 0-3.4-1-4.4-3 0.5-1.7 0.5-3.2 0.7-4.8z m119.1-68.2c0 1.2 0.1 2.4 0.5 2.4s0.8-0.3 1.3-0.8c0.3-0.3 0.5-0.5 0.7-0.6 0.5-0.3 1.2-0.8 2.1-1.5 1.3-1.2 2.6-1.8 3.8-1.7 0.4 0 0.9 0.1 1.5 0.3 0.7 0.2 1.2 0.3 1.6 0.3 3.1 0.3 3.6-2.2 3.9-7.4 0-0.5 0.1-1 0.1-1.3 0.5-1.7 0.8-3.2 0.8-4.6 0.8-1.5 2.8-2.3 3.8-2.5 0.5 0 2.4 0 2.4 0.2 2.7 2.9 2.7 6.8 3.1 11.9v1.4c-0.2 0.1-0.3 0.3-0.3 0.5 0 0.6 0.5 1.1 1.6 1.6h3c1.1 0.3 3.5 1.2 7.3 2.6 0.2 0.1 0.4 0.1 0.5 0.2 0.7 0.3 1.1 1.1 1.1 2.1 0 1.2-0.2 3-0.5 5.4-0.3 2-0.5 3.4-0.5 4.4-0.5 2-3.1 3.1-7.8 3.4-3.6 0.2-5.5 1-5.7 2.2 0 0.1 0 0.6-0.1 1.3 0 0.4-0.1 0.7-0.1 0.7 0 5.7 3.3 9.7 9.8 12 0.5 0.2 1.3 0.3 2.3 0.3 1.4-0.1 2.4 0.2 3 0.8h0.4c0.2-1.5 0.2-3.6-0.2-6.4-0.4-3.8-0.2-6.7 0.7-8.7 0.2-1.2 0.3-2.9 0.3-5.2v-1.4c0-0.9-0.1-2.3-0.4-4.1-0.3-1.9-0.4-3.3-0.4-4.3 0.2-0.5 0.5-1.4 0.8-2.5 1.2-3.4 0.5-6 1.3-7.8 0.1-0.3 0.2-0.8 0.4-1.5 0.4-2.3 3.1-3.4 4.8-3.2 0.7 0 1.6 0.4 2.6 1.3l0.1 0.1 2.1 0.3c0.5-0.1 1.2-0.1 2-0.3 2.4-0.8 5-0.8 6.5-0.7 0.8 0 1.5-0.1 2.3-0.1 1.1-0.2 2.5-0.3 4.1-0.4 2.8-0.3 5.4-0.5 8.1 0.1 2 0.2 3.4 0 4.3 0.4 1.5 0.6 2.9 0.3 4-0.3 1.7-0.8 2.8-0.1 3.5 2.2 0.4 3.5-0.3 8.3-2.2 13.5-0.6 1.8-1.1 4-1.6 6.5 0.1 3.1 0.1 7.1-0.1 11.9-0.1 4.3-0.2 7.5-0.1 9.6 0.1 2.6 0.2 4.7 0.2 6.1v4.5c0 1.1-0.1 2.2-0.2 3.3 0.2 5.7 0.2 9.7 0.1 11.9-0.2 3.3 0 5.5 0.6 6.7 0.6 1.9-1 4.2-4.7 6.7-2.4 1-5.2 1.6-8.4 1.7-1.8-0.2-3.4-0.3-5-0.4-0.5 0.1-0.9 0.2-1.3 0.3-1.2-0.1-3.1-0.1-5.5 0-1.3 0.1-2.5 0.1-3.6 0.1-1.5 0.2-2.8 0.5-4.1 0.9-2.1 0.7-4.4 1.1-6.7 1.3-2.5 0.2-4.4 0.1-5.8-0.2-0.5-0.1-1.6-0.2-3.1-0.3-1.3 0-2.4 0-3.1-0.2-0.9-0.2-1.6-1-2-2.4-0.4-1.6-0.3-3 0.2-3.9 0.2-0.3 1.3-1.5 3.3-3.6 2.1-2.1 3.2-3.4 3.4-3.7 0.8-1 1.5-2.4 2.1-4.2-0.3-3.1-0.5-7-0.4-11.4-0.3 0-1.1 0.4-2.3 1.4-1.7 1.3-2.9 1.9-3.6 1.9-0.9 0-2.2-0.5-3.7-1.6s-2.7-1.6-3.8-1.6c-1.1-0.4-1.8 0.7-2 3.4-0.1 0.8-0.2 1.4-0.2 1.7 2 4.6 1.3 11.7 0.3 21.3-0.3 2.3-0.6 4.2-0.8 4.9-1.4 2.2-1.7 2.8-2.7 2.8-0.6 0-3.9-1.2-4.2-2.3-0.1-0.4-0.2-0.6-0.2-0.8-1.1-3.5-2.1-10.1-2.1-17.5V510c0-1 0-2.5 0.1-4.4 0.1-1.9 0.2-3.4 0.2-4.3 0.1-1.6-0.2-2.3-1-2h-0.3c-1.5-0.1-1.3 0.2-1.5 1.1-3.8 1.7-4.4 4-7.8 4h-2.7c-2.5-2.7-9.8-2.6-9.3-12.8 0-1.3 3.9 0.2 5.8-0.5 0.7-0.2 1.1-0.5 1.3-0.6 1.2-1 3.7-1.6 6.4-2.6 3.3-1.3 4.1-4.7 5.5-6.4 2.8-2.5 3.3-5.8 3.6-10 0.1-2.3-0.5-3.6-2-3.7-5.4 0.1-8.4-0.7-11.2-2.6-1.8-1.7-2.6-4.1-2.5-7.1l-1.9-2.7c-1.1 0.4-2.5 0.6-4.3 0.7-3.4 0.1-7.3 3.1-13.2 4.4-4.7 0.9-8.3 0.9-10.5 0.1-1.8-0.7-3.3-2.6-4.6-5.7-1.3-3.3-1.7-6.1-1.2-8.5 0.4-1.8 1.7-3 3.7-4.3 2.4-1.4 4.3-1.7 5.7-1.1 1.3 1 3.3 1.2 6.1 0.4 2.1-0.6 7.2-0.4 9.9-0.2 2.6 0.2 4.8 0.5 6.5 1.4 2.2 1.1 4.6 2.2 7.3 3.4 1.4 0.6 2.3 1.5 2.4 2.7 0.1 1.3-0.5 2.3-1.7 2.8-0.6-0.2-1.2 0.5-2 1.2z m104.5 34.4c0-4.5 2.3-8.2 6.9-11.2 0.1-0.1 0.6-0.2 1.6-0.4 5.6-6.3 8.5-10.4 8.9-12.2 0-0.8-1.2-1.2-3.4-1.2-4.3-0.1-7.4-1.2-9.2-3.1-1.5-3.4-2.3-5.2-2.4-5.3v-4c-0.1-2.7 0-4.5 0.6-5.2 1.1-1.4 2.7-2.2 4.7-2.3 2.4-0.4 6-0.7 10.7-0.8h2c0.1 0 0.2 0.1 0.4 0.2l0.4 0.2c0.7 0.1 1.6 0.3 2.8 0.5 6.7 0.3 9.9 3.4 9.7 9.3v2c-0.5 2.5-2 4.6-4.6 6.3-0.4 0.3-0.7 0.6-1 0.7-0.2 0.1-0.4 0.5-0.8 1-0.4 0.7-0.8 1.2-0.9 1.3-0.5 0.6-1.2 1.6-1.9 3.1-0.9 1.7-1.6 2.8-2.2 3.4-0.3 0.3-0.7 0.7-1.3 1.2-1.4 1.2-2.4 2.5-3 3.8 0 0.3 0.3 0.5 0.8 0.7 0.2 0 0.3 0 0.3 0.1 0.6 0.3 1.2 0.7 1.8 1.1 0.3 0.1 1.5 0.6 3.6 1.3 2 0.8 3.2 1.3 3.6 1.4 0.2 0.2 0.6 0.5 1.2 0.9 1.6 1 5.5 2.5 5.5 4.1 0 3.3-4.7 6.1-7.8 9.1-1 0-2.4 0.3-4.4 0.9-1.9 0.7-3.4 1.1-4.4 1.1-0.6 0-1.5-0.1-2.7-0.4-0.8-0.2-1.4-0.3-1.8-0.4h-5.1c-5.4-0.8-8.2-3.4-8.6-7.2z m103 34.4c-0.2-0.5-6.8-0.4-6.8-0.4-1.9-0.1-3.9 0.2-6 0.9-2 0.7-3.9 1.1-5.5 1.1h-6.6c-0.1 0-1.2-0.2-3.3-0.6-2.1-0.4-3.2-0.6-3.3-0.6-2.6-0.3-5.6-0.5-9-0.4h5.5c-0.4 0.1-1.8 0.3-4.1 0.7-4.6 0.9-7.3 1.3-8.1 1.3h-1.7l-8.3-1c-3.3-1.1-5.3-4.4-5.9-9.8 0-1.5 0.5-3.1 1.5-4.8 0.4-0.7 0.7-1.2 0.9-1.6 0.9-1.7 1.7-2.5 2.3-2.9 0.7-0.6 1.6-0.9 2.6-0.9 0.5 0 1 0.1 1.7 0.3 0.8 0.2 1.3 0.3 1.7 0.3 0.7 0 1.6-0.2 2.8-0.7 1.3-0.5 5.4 0.1 8-0.2 2.6-0.3 0.2-0.3 1-0.2 0.8 0.1 1.4 0.2 1.9 0.2 2.9 0.3 5.6-1.2 6.7-2.4 1.2-1.1 2.2-3.8 2.4-7.4 0-0.1 0.6-0.9 0.7-2.2 0.1-1.9-0.5-2.9-0.5-3.1 0-1.7 0.6-4.1 0.6-7 0-2.7-0.6-4.8-0.6-6.1-0.2-2.4 0-4.6-1-10.3-0.2-0.8-0.7-1.5-1-1.8-0.4 0-1.3-0.9-1.7-0.9-0.4 0-1.2-0.7-1.8-0.6-0.6 0.1-1.1 0.2-1.4 0.2-1.7 0-4.2 0.2-7.7 0.5-3 0.3-5.1 0.4-6.4 0.4h-1.3c-2.7 0.2-4.7-0.1-5.8-0.9-0.7-0.3-1.3-0.7-1.7-1.2-0.3-0.3-0.8-0.6-1.4-1-3-1.6-4.4-3.8-4.3-6.6 0-1.4 0.4-3.1 1.1-5.1 2.2-2.5 13.9-6.6 16-5.9 2.2 0.7 3.9 1 5.1 1 0 0 0.4-0.2 0.9-0.4 2.9 0 7.6 0.6 10.5 0.6 1.1 0 11.2 0.7 14.4 1.6 2.6 0.7 4.9-1.3 5.8-1.3 5.2-0.3 11.8-0.4 19.8-0.1 2.5 0.1 4.6 0.1 6.1 0.1 0.9 0.3 1.9 1.2 3 2.7 0.4 0.4 0.6 0.7 0.8 1 0.1 1.2 0.1 2.1 0.3 2.5 0.2 0.5 0.3 1.1 0.6 1.6 0 0.1-0.1 0.5-0.3 1.2-0.1 1-0.5 1.9-1.2 2.6-0.2 0.3-0.4 0.5-0.6 0.7-0.7 1.1-1.1 1.6-1.3 1.6-0.8 0.9-2.3 1.4-4.4 1.5-0.8 0.1-1.4 0.1-1.9 0.2-2.4 0.8-6 1.2-10.9 1.1-2.4 0-4.2 0-5.4 0.1-2.9 0-7 2.3-8 7.2-0.9 9.9-0.8 19.5 0.3 28.8 0.3 2.6 3.1 6.1 3.7 6.1 0.3 0 0.9-0.1 1.5-0.3 0.6-0.1 1.2-0.2 1.5-0.2 0.2 0 0.6 0.1 1.1 0.2 0.5 0.2 0.8 0.3 1.1 0.3 0.5 0 1.4-0.1 2.5-0.2 1.2-0.2 2-0.3 2.7-0.3 0.4 0 1.2 0.1 2.2 0.2 1 0.2 1.7 0.3 2.2 0.3 1.1 0 2.8 0.1 5 0.2 1.9 0.1 3.3 0.2 4.1 0.2 1.3 0.1 10.5-1.5 11.4-1.4 0.1 0 1 0.6 1.2 0.7 2.9 2.3-0.7 1-0.4 6.6 0.3 4.9-1.9 7.5-5.4 11.8-0.7 0.4-1.1 0.7-1.3 1-0.3 0.4-0.6 0.8-0.9 1.1-2 1.7-3.5 2.7-4.4 3-1 0.5-2.5 0.7-4.5 0.7-1.2 0-2.6-0.6-4.4-1.7-1.6-1.1-3.3-1.7-4.7-1.9z m-69.4-18.1c1.4 0 3.2 0.9 3.2 2.1v0.4l-0.4 1.9c-0.3 0.8-2.1 4.9-2.1 6.2-0.1 1.8-2.2 2.8-4.3 4.6-2.8 2.3-14.1 6.2-19.9 5.9-5.8-0.4-9.1 0.4-12.4-9.4-0.8-2.3-1.2-4.1-1.2-5.5l0.2-1.2c0.3-1.2 1.2-1.6 2.1-2.1l1-0.5c0.2-0.1 3.9-0.7 5.4-1.2 1.5-0.5 5.5-0.7 7-0.3 1.5 0.4 2.6 0.7 3.7 0.2 0.7-0.3 1.3-0.5 1.8-0.7 0.2-0.1 0.4-0.1 0.6-0.2h0.1c0.3-0.2 9.9-1.8 11.7-0.3 2.1-0.4 1.9 0.1 3.5 0.1z m-165.3-31.9c1.7 0.8 6 1.3 8.3 0 1.3-0.8 3.3-1.3 5.7-1.4 2.8-0.1 5.3 0.1 7.4 0.6 2.7 0.8 1.3 2 2.3 4.2 1.8 4.1-6.5 5.9-7.6 7.8-5.4 4.6-11 7-16.7 7.2-3.6-0.5-6-2.5-7.2-6.2-0.4-2.9 0.1-6.1 1.4-9.5 1.9-3 4-3.9 6.4-2.7z m78.3 17.1c0 0.3 0.1 0.5 0.2 0.8 0.3 0.1 0.6 0.1 0.8 0.2 2.6-0.1 6.3 0 10.8 0.2h0.6c2.4-0.4 4.8-0.8 7.3-1.1 0.9-0.6 1.5-2.4 1.7-5.4 0.1-2.2-0.3-3.4-1.3-3.7-8.4-0.8-14.7-0.2-18.8 0.8-1.1 1.3-1.7 5.9-1.3 8.2z m20.7 21.7c0.3-0.6 0.5-1.4 0.7-2.6v-0.2c-0.3-2.9-1.2-6.3-2.5-6.2-0.8 0.1-2.1 3-2.9 2-1.1-1.3-2.3-0.2-2.8-0.4-3.7-0.2-8.6-4.2-14-0.2 0.6 6.5-3.9 13.3 11.3 10.4 0.7-0.1 1.2 0 1.5 0h4.7c2.2-0.6 3.4-1.6 4-2.8z m-20.3-49c-0.2 0.7-0.4 1.6-0.4 2.6v0.3c0 0.4 0.1 0.7 0.1 1.1l0.1 0.1c8.7-0.2 15.5-0.4 20.2-0.4 0.1 0 0.1 0 0.2-0.1 1.3-0.8 1.7-2.6 1.4-5.3-0.5-2.1-1.5-3-3.1-2.7-2.2 0.6-4.7 0.7-7.4 0.3-3.9-0.1-7.2-1.4-10 0-0.3 0.3-0.7 2.8-0.9 3.3-0.1 0.4-0.2 0.6-0.2 0.8zM524.4 504c1.5-0.1 3.3 0.4 3.5 1.3v0.3l-2.1 7c-0.3 0.7-0.7 1.5-0.6 2.6 0.2 1.4 0.3 2.6-1.7 4.3-2.6 2.2-15.3 8.2-21.3 8.5-5.9 0.3-7.9-1-12.3-8.4-1-1.8-1.6-3.1-1.7-4.2v-1c0.2-1 0.5-2.7 1.4-3.1 0.1 0 0.9-0.5 0.9-0.5 0.2-0.1 0.5-0.3 1-0.5 0.4-0.1 0.8-0.3 1.2-0.5h0.3c0.9 0.1 1.4 0 2.8-0.6 1.4-0.5 5.5-1.1 7.1-1 1.6 0.2 3.2 1.5 4.4 1 0.6-0.3 1.3-0.6 1.7-0.8 0.2-0.1 0.5-0.2 0.6-0.2h0.1c0.4-0.2 0.7-0.4 1-0.6 0.5-0.3 2.4-1.6 5-0.7 0.2 0.2 1.6-1.6 3.6-0.6 1.2 0.6 3.4-2.1 5.1-2.3z m344.8-45.6c0.4-0.4 0.7-1 0.5-1.7-0.3-1.5-2.2-3.2-4.3-3.7-0.8 0-4-0.1-4-0.1-1.8 0-3.8 0-5.9-0.3-0.4-0.1-0.8-0.1-1.3-0.1-1.7 0-4.4 0.3-6.4 1.1-2.5 0.9-4 2.3-4.2 3.9-0.1 0.5 0 1 0.3 1.3 0.6 0.6 1.6 0.7 2.4 0.7 1 0 2.2-0.2 2.6-0.3 0.4-0.1 0.9-0.1 1.4-0.1 0.6 0 1.2 0 1.8 0.1h0.4l3.9 0.1c0.4 0 1-0.1 1.7-0.1 2.4 0 5.4 0.4 6.6 0.5 0.3 0 0.6 0.1 0.9 0.1 1.4-0.1 2.7-0.6 3.6-1.4z m-3.1 16.6l0.1-0.3-0.2-0.5c-0.1-0.1-0.4-0.2-1.3-0.2h-2.1v-0.1c-0.5 0.1-1.2 0.1-2.4 0.1l-2.2 0.1c-0.4 0.1-0.6 0.1-0.9 0.1-0.3 0.1-0.6 0.1-0.9 0.1-0.7 0-1.3-0.1-1.8-0.3-0.3-0.1-0.6-0.1-1-0.1-0.8 0-1.6 0.2-2.4 0.4l-0.2 0.1-2.3 0.5c-1.5 0.3-3.1 1.1-3.8 2.1-0.2 0.4-0.3 1-0.3 1.3 0 0.1 0 0.4 0.1 0.5 0.2 0.5 0.4 1.5 3.1 1.5 1 0 2-0.1 3-0.3h0.4c0.5-0.1 1.2-0.1 2-0.1 1.6 0 3.6 0.2 4.8 0.3h0.7c1.4 0 2.4-0.6 3.2-1.8 0.4-0.5 1.2-1.1 2.3-1.7l0.3-0.2c0.7-0.4 1.4-0.9 1.8-1.5z m-1.1 32.5s0.1-0.1 0.1-0.6c0-0.3-0.1-0.7-0.9-1.6l-0.6-0.6-0.1-0.1v-0.1c-0.3-0.6-0.5-1.1-0.8-2-0.4-1.1-0.4-1.1-1-1.5l-0.1-0.1c-0.6-0.5-1.2-0.7-1.7-0.7-0.3 0-0.5 0.1-0.8 0.3l-0.3 0.1c-0.9 0.6-1 0.6-0.9 2.2 0.1 1.6 0 2.4-0.1 3.2-0.2 0.5-0.2 1-0.2 1.6 0 0.8 0.3 1.2 1.2 1.7 0.4 0.2 1 0.3 1.8 0.3 1.6 0 3.4-0.7 4.1-1.6l0.1-0.2c0.2-0.2 0.2-0.2 0.2-0.3z m-17.8-7.7c0.6-2.6 0.3-4.1 0-5.5-0.3-1.7-1.5-2-2.8-2-0.4 0-2.5 0.1-3 2.4-0.2 1.2-0.1 2.2 0.1 3v1c0 1.4 0 2.3-0.3 3.6 0 0.4-0.1 0.7-0.2 1.1-0.2 0.7-0.4 1.3-0.4 2.3 0.1 1.2 0.6 1.8 0.9 2.1 0.4 0.3 0.9 0.6 1.5 0.6 0.5 0 1.1-0.2 1.6-0.3 0.7-0.2 1.3-0.7 1.7-1.3 0.6-1.1 0.6-1.8 0.5-2.7v-0.7c0-0.7 0.1-1.9 0.1-1.9v-0.1l0.1-0.1c0.1-0.3 0.2-1.5 0.2-1.5z m-16.6-3.8c0.2-1 0.5-3.6 0.5-6.6 0-2.7-0.2-5-0.5-5.9-0.5-1.7-0.6-9.1-0.6-15 0-2.7-0.8-7.9-3.5-8.5-0.4-0.1-2.7-0.9-2.7-0.9l-0.2-0.1c-1-0.4-1.9-0.7-2.7-0.7-0.2 0-0.4 0-0.7 0.1-0.5 0.2-1.5 0.6-2.8 0.6-0.8 0-1.7-0.1-2.5-0.3-1.3-0.3-2.4-0.5-3.6-0.5-1.6 0-3.1 0.3-4.6 0.9-2.1 0.7-3.4 2.2-3.1 3.5 0.1 0.6 0.5 1.2 1.7 1.2h0.4l0.7-0.1c1.3-0.1 3.1-0.3 4.8-0.3 1.1 0 2.1 0.1 2.9 0.2 1.4 0.2 2.2 0.7 3.2 1.3l0.2 0.1 3 1.4c0.3 0.2 0.5 0.3 0.8 0.4 0.5 0.2 1 0.3 1.4 0.7 0.1 0.1 0.2 0.1 0.3 0.2 0.5 0.3 1.4 0.8 1.7 2 0.3 1.4 0.3 3.6-0.3 5 0 0.2-0.1 0.5-0.2 0.8-0.2 1-0.6 2.5-2 2.7h-0.2c-1.2 0-2.4-0.5-2.5-0.6l-2-0.7c-0.2-0.1-2-0.3-3.9-0.3-2.8 0-4.6 0.5-5.2 1.4l-0.2 0.6c-0.2 0.3-0.9 2.6-0.9 2.6-0.1 0.2-0.1 0.4-0.1 0.6 0 0.6 0.1 1.1 0.6 1.5 0.3 0.5 1 1 3.3 1 2.4 0 5 0.2 9.2 0.7 3.2 0.3 4.6 1.9 4.6 5.3 0 2.3-1.2 3.9-3.6 4.4-0.3 0.1-0.3 0.1-0.5 0.5s-0.4 0.9-1.2 1.4c-0.1 0.1-0.2 0.2-0.3 0.2-0.5 0.4-1.2 0.9-2.3 0.9-1.2 0-3.5-0.1-4.6-0.2l-1.4-0.2h-0.6c-1 0-1.8 0.3-2.4 1-0.7 0.6-1 1.7-1 3.1 0 2.6 1.3 2.6 2.4 2.7 0.2 0 0.4 0 0.8 0.1H811c2 0 3.3-0.9 3.5-1.1 0.7-0.7 1.9-1.2 2.4-1.2l0.1-0.1h0.2c2.3 0 2.6 1.7 2.7 2.3 0 0.2 0.1 0.6 0.2 1s0.1 0.9 0.3 1.1c0.2 0.4 0.2 0.5 2.2 1 0.5 0.2 1 0.3 1.3 0.3 1.1 0 1.8-0.5 2.7-1.3l1.4-1c1.7-1.3 2.1-4.6 2.3-7.1l0.3-2.1z m66.2 20c1.1 2.8-1 6.4-2 7.6l-1.2 1.5-1 1.2c-0.3 0.3-0.6 0.6-0.9 1.1-1.2 1.5-3 3.8-5.1 4.9-0.8 0.5-1.9 1-3.1 1-1.3 0-2.6-0.5-4.4-1.5-3.4-1.9-4.8-3-6.6-6.1-1.7-3.1-3.9-4.7-6.4-4.7h-0.6c-1.2 0.1-2 0.7-2.7 1.4-0.8 0.6-1.6 1.3-3 1.6-0.9 0.1-2.3 0.1-3.4 0.1h-6.5c-2.9 0-4.7 0-5.5 0.5-0.6 0.3-1.3 1-2.2 1.9l-0.6 0.6c-1.2 1.3-2.6 2.8-3.9 3.5-1.3 0.6-2.1 1.4-2.8 2l-0.3 0.3-1.6 1.1-0.1 0.1-0.2 0.1c-1.2 0.4-2.6 0.5-3.4 0.5-1.3 0-3.5-0.1-4.5-1l-0.8-0.7c-1.7-1.5-3.6-3.5-4.2-8-0.1-1.3-0.1-2.7 0.1-4.6 0-0.7 0.1-1.6 0.1-2.5 0.1-1.9-0.6-2.4-1.7-2.7h-0.6c-2.1 0-5.2 1.8-7.3 3.3-0.7 0.5-1.5 0.9-1.5 0.9-2.7 1.7-8.2 6.4-10.8 9.1l-0.8 0.7c-1.9 2-3.3 3.4-4.7 3.4-0.4 0-0.7-0.1-1.1-0.2-1.8-0.5-4.9-2.6-4.9-5.5 0-0.1 0-0.3 0.1-0.6 0-0.8 0.1-2.1 0.3-2.8 0.1-0.3 0-1.1 0-1.6v-0.7l-0.1-0.4v-0.7c0-0.2 0-0.5-0.1-0.8 0-0.3 0-1.2-0.1-1.3-0.4-0.7-0.4-1.6-0.3-2.3 0.1-1.1 0.7-1.7 1-2.1 0.5-0.5 1.2-0.9 1.4-1.1 1.2-0.8 2.4-1.7 3-2.7 0.3-0.8 0.8-2.8 0.8-4.8 0-1.5-0.3-2.7-0.7-3.1-0.3-0.5-0.6-0.7-1.7-0.7-0.4 0-1 0.1-1.6 0.1-1 0-1.9 0.2-2.8 0.2-1.7 0-2.8-0.2-3.6-0.7-2.7-1.7-4-4.8-4-9.2v-0.9c0.1-3.6 0.7-4.7 2.7-5l2.7 0.1c1.2 0.1 2.3 0.1 3.1 0.1 1.4 0 2.4-0.2 2.9-0.4 0.9-0.6 2-1.5 1.9-2.8-0.1-0.7-0.3-1.4-1.5-2-0.6-0.3-1.2-0.4-2.2-0.4-0.3 0-0.7 0.1-1 0.1h-0.3c-0.9 0-1.8-0.1-2.5-0.5-0.2-0.1-0.5-0.3-0.8-0.6-0.6-0.4-0.8-0.9-1-1.3-0.4-0.7-0.4-1.5-0.3-2.2 0-0.8 0.1-1.1-0.7-1.7-0.4-0.3-0.8-0.5-1.2-0.5-0.2 0-0.3 0-0.5 0.1l-1.7 0.7c-1.2 0.4-2.1 0.8-3.2 0.8-0.4 0-0.9-0.1-1.4-0.3-1.8-0.5-4.5-2.7-4.5-10.5 0-6.6 6.2-11.6 9.4-13.3 0 0 0.1-0.2 0.5-0.3 0.4-0.2 1.1-0.5 2-1 2.7-1.3 6.6-3.6 7.9-4.9 0.8-0.7 1.1-0.9 1.4-1.2 0.3-0.2 0.5-0.5 1.3-1.1 2.5-2 4.9-3.9 5.9-6.4 1-2.6 1.4-3.2 2.2-3.8 0.6-0.7 1.3-1 2.1-1 0.4 0 0.7 0.1 1.1 0.2 0.6 0.2 1.2 0.8 1.8 1.4l0.4 0.5c0.2 0.3 0.5 0.7 0.8 1.1 0.5 0.8 1.1 1.8 2 2.5l1.8 1.3c1.3 0.8 2.1 1.4 2.6 2.1 0.4 0.6 0.9 0.8 1.7 0.8H815.5c0.8 0 1.5 0.1 2.3 0.5l0.5 0.2c1 0.5 2.6 1.3 3.7 1.3s2.9-1.2 3.2-1.5l0.2-0.2c0.3-0.3 0.6-0.6 1.2-1 0.9-0.9 1-1.2 1.4-1.9 0.1-0.1 0.3-0.5 0.7-1 0.6-0.6 1.6-1.2 3.3-1.4H832.3c0.7 0 1.6 0.2 3 0.6l0.4 0.1c0.8 0.3 2.4 0.7 3.2 0.7 0.1 0 0.2 0 0.2-0.1 0.7-0.1 1.7-0.3 3.1-0.3 1.8 0 4.3 0.2 7.4 0.6l9.7 0.3s2.8 0.1 4.1 0.1c1.3 0 4.1-0.3 4.1-0.3 1.3-0.3 1.9-0.3 2.6-0.3 0.9 0.1 1.7 0.2 2.4 0.5l0.2 0.1 0.2 0.2h0.1c0.1 0 0.7 0.1 1.3 0.2 1.7 0.3 2.7 0.8 3.6 1.6 1 1 1.8 1.2 4.1 1.2h0.3c2.2 0 3.7 1.9 4.4 3.2 0.7 1 1 2 1 2.9 0 0.8-0.4 1.6-0.7 2.4-0.8 1.7-2.2 3-4 4.6-0.2 0.2-0.3 0.4-0.5 0.5-1.7 1.6-2.4 3.2-2.4 6l0.2 4.6-0.2 1.7s0 1.5-0.2 2.8c0 0.4-0.1 0.7-0.2 1.2-0.2 0.8-0.3 1.7-0.3 2.6 0 0.2 0.1 3.6 0.1 3.6v0.5l0.3 2.7c0 0.2 0.2 1.9 0.1 2.8 0 1-0.2 1.5-0.4 2.2l-0.2 0.5c-0.5 1.7-1.5 2.3-2.2 2.7l-0.2 0.1h-0.1c-1 0.3-2.4 0.4-2.5 0.5l-2.2 0.5c-1.4 0.4-2.3 1.7-2.5 3.4v0.5c0 1.4 0.4 2.4 1.2 2.9 1.3 0.8 2.7 2.7 4.1 4.4l0.9 1.2 0.1 0.2c2.1 2.5 5.2 6.5 7.7 7.6 1.1 0.5 1.9 1.2 2.5 1.9l0.3 0.3h0.1l0.1 0.2c0.9 0.9 1.7 1.8 3 2.1 1 0.3 2.2 0.5 3.1 0.5h0.8c0.2-0.1 0.4-0.1 0.5-0.1 0.3 0 0.5-0.1 0.8-0.1 1.2-0.7 1.7-0.2 2 0.9z m126.3-46.3c0.1 0.2 0.1 0.6 0.1 0.8v0.5l-0.1 0.2c-0.5 1.1-0.7 3.3-0.9 4.7l-0.1 0.8-0.2 0.8c-0.1 1.6-1.3 4.2-2.8 5.6l-0.9 0.9-0.5 0.4c-1.3 1.2-2.8 2.4-4.7 2.4-3.9 0-8.1-0.1-9.7-1.2l-0.8-0.8c-1.1-0.8-3.3-2.4-4.4-2.4-1.4 0-2.7 0.9-3.1 2.1l-0.2 0.6c-0.1 0.1-0.2 0.3-0.2 0.6-0.2 0.4-0.3 0.7-0.3 1 0 0.7 0.3 4 0.6 4.9 0.5 1.6 0.5 2.2 0.4 3.6v1.1c0 0.7 0 1.4-0.2 2-0.1 1.3-0.1 3.2-0.1 5.2v1.6c0 2.5 0.1 3.6 0.3 3.9V509.3l0.2 2.3c-0.1 0.4-0.1 0.6-0.1 0.8 0 0.4-0.1 0.8-0.1 1.2 0 0.9 0.2 1.5 0.6 2.5 0.7 2.2 0.7 3.5 0.7 4.9 0 0.4-0.1 1.5-0.1 1.7v2.1c0 0.3-0.6 3.7-0.6 3.7-0.1 1.1-0.6 2.2-0.9 3.1l-0.2 0.5-0.4 0.8c-0.1 0.2-0.1 0.5-0.3 0.9-0.3 0.8-1.3 2.2-2.7 2.2h-0.5l-0.2-0.1c-1.3-0.3-2.6-2.2-3.1-2.7-0.1-0.2-0.2-0.2-0.8-2.8-0.8-1.5-1.1-3.4-1.1-4.5 0-1.6-0.6-2.8-1.3-4.1-1-1.7-1.5-4.5-1-6.6 0.5-1.9 0.3-4.7-0.3-6.5-0.2-0.8-1-4.6-0.9-6.9V498l-0.1-2.1c-0.1-2.5-0.5-6.4-1.3-7.7-0.2-0.2-0.4-0.4-0.6-0.7-0.9-1.4-2-3.4-5.4-3.4-4.7 0-6.5 0.5-8.2 1.1-1.5 0.5-3.7 0.8-5.5 0.8-1.2 0-2.1-0.1-2.7-0.4-1.1-0.4-1.6-0.5-2.3-0.5-0.6 0-1.4 0.1-2.5 0.4l-0.9 0.1c-2.1 0.3-3 0.6-3.4 2-0.2 0.8-0.2 1.2-0.2 2.3l-0.1 1.3c0 0.4 0.1 0.8 0.1 1.2v1.4c0 4.5-0.4 5.8-0.7 6.5l-1.1 3.1c-0.2 1.1-0.5 2.3-1.3 3.9-0.8 1.3-1.2 2.5-1.2 3.6-0.1 1.4-0.7 2.5-1.2 3.1 0 0 0 0.1-0.2 0.3-0.2 0.5-0.4 1.1-0.9 1.4-1.2 1.7-2.2 3.1-8 6.2-3.2 1.6-4 2.4-4.7 3-0.2 0.1-0.3 0.2-0.5 0.4-1.1 0.8-2.6 1.6-3.9 1.6l-1.3 0.1-0.8 0.1c-1.1 0.1-2.2 0.2-3.3 0.2-2.1 0-3.4-0.4-4.2-1.1-1.8-1.6-4-3.9-4-7l-0.3-2.5c-0.1-1.4 0.2-2.4 0.3-3.3 0-0.2 0.1-0.6 0.2-0.9 0.7-4.8 2.2-5.7 4.2-6.5 0.3-0.1 0.7-0.2 1-0.4 1.5-0.9 4.3-1.7 6.3-2.1l0.9-0.2 1.4-0.3c1.8-0.3 3.5-0.6 5.1-1.9 2.5-2.2 4.2-4 5.1-5.7 1-1.8 2.2-3.8 2.6-6.3v-0.4c0.2-1.4 0.5-3.2-0.2-4.2-0.4-0.6-1.1-0.9-2-1h-0.5c-3.1 0-5.4 1.1-6.7 2.2-1.1 0.9-2.5 1.4-4.2 1.4-0.3 0-0.6-0.1-0.9-0.1l-1.2-0.3c-0.2 0-0.5-0.1-0.8-0.1-0.2 0-0.6 0.1-1.2 0.5-1 0.6-2.6 1.3-4.3 1.3-0.4 0-0.9-0.1-1.3-0.2-1.8-0.3-3.9-2.2-3.9-4.5 0-2.4-0.5-4.9-1.4-6.8-1.3-2.3-1.6-4.3-0.9-6.1 0.6-1.7 2.1-3 4.3-3.8 4.8-1.8 5.5-1.9 6.7-2.2 0.1 0 1.9-0.4 1.9-0.4 0.9-0.1 1.6-0.2 2.4-0.2 1.6 0 3 0.4 4.3 0.7 0.2 0.1 0.8 0.2 2.2 0.4 0.9 0.2 2 0.2 3.3 0.2 1.6 0 3.2-0.1 4.7-0.2h2.3c0.6-0.1 1-0.1 1.6-0.1 1.3 0 2.9 0.2 4.7 2 2.7 2.7 4.4 3.3 5.4 3.3 0.2 0 0.4 0 0.6-0.1 1.7-0.5 2.5-1 3.3-1.9 0.3-0.3 0.9-0.9 3.9-1.3l2.3-0.3 1.9-0.5c0.5-0.1 4.7-0.8 4.7-0.8h1.1c1.6-0.1 2.9-0.2 4.1-0.2 1.2 0 2.1 0 2.9 0.2 0.5 0.1 1.3 0.2 2.9 0.2 2.4 0 5.3-0.2 6.3-0.4 0.2 0 0.4-0.1 0.6-0.1 1.8 0 5.5 0.5 7.7 1.4 1.8 0.7 3.4 1 5.1 1 0.9 0 1.6-0.1 2.3-0.2h0.5l3.4 0.1h0.7c0.7 0 1.5 0.1 2.3 0.1 0.9 0 1.6-0.1 2.1-0.1 1.5-0.3 3.1-0.4 4.5-0.4 1.5 0 2.8 0.2 4.1 0.5 0.3 0.1 2.3 0.6 2.9 2z m-113.6-23l-0.3-0.6c-1.3-1.8-1.5-7.7-1.5-7.8 0-1.4 0.2-2.3 2.3-4.7 2.2-2.3 5.8-2.7 8.6-2.7 1.7 0 3.4 0.2 5.1 0.5l5.2 1.5 0.7 0.2c1.8 0.6 3.3 1 4.6 1.1l1.7 0.1h0.3c1.7 0.1 2.4 0.2 3.3 0.9 0.6 0.6 1.9 1.1 3.1 1.7h-0.1c0.4 0.1 1.2 0.5 3.4 1.6 1.6 1.1 1.9 1.6 2.4 3l0.3 0.9c0.4 1 0.8 1.5 1.1 2 0.3 0.3 0.6 0.7 1.1 1.4 0.6 1 1.6 1.5 2.1 1.5h0.2s0.2-0.2 0.1-1c-0.2-1.1 0.5-2.3 2.1-4.2 1.5-1.8 4.8-3.8 7-4.2l2.4-0.9c2.3-0.9 5.3-2.2 9.5-2.2 4.4 0 5.8 0.5 7.1 1.1 0.3 0.2 1.1 0.3 1.1 0.3 0.7 0.2 1.4 0.3 2.1 0.3 0.7 0 1.4-0.1 2.3-0.2l5.2-0.3 3.9-0.3c0.4-0.1 0.9-0.1 1.3-0.1 0.9 0 1.8 0.2 4.6 0.8 3.9 0.9 4.8 1.6 6.1 2.7l0.1 0.1 2.6 1.9c2 1.3 2.3 1.9 2.9 3.5l0.6 1.9c0.9 2.1 0.9 2.4 0.2 4.4l-0.4 1.2c-0.6 1.5-1.3 3-3 3-0.3 0-0.6-0.1-1.1-0.1 0 0-0.1 0-1.8-0.5l-0.3-0.1c-0.5-0.1-1-0.2-1.5-0.2h-0.5c-1 0.2-3.7 0.2-5.3 0.2-1.5 0-3.1 0-4.2-0.1l-5.1 0.1c-0.4 0-4.7 0.3-4.7 0.3l-3.3-0.1-3.5-0.1h-2.3l-0.1 0.1h-1c-0.8 0-1.7-0.1-2.8-0.6-0.3 0-0.5-0.1-0.7-0.1-0.9 0-1.8 0.4-2.5 0.7l-2.1 0.6-0.2 0.1h-0.2c-1.6 0-2.7 0.5-3.6 1-0.9 0.6-2 1.2-3.7 1.4-0.4 0-0.7 0.1-0.9 0.1-2 0-2.8-1-3.5-1.8h-0.1l-0.1-0.2c-0.2-0.2-0.8-0.9-0.8-0.9-0.4-0.3-0.9-0.4-1.7-0.4-0.2 0.1-0.4 0.1-0.6 0.1-0.6 0-1.1-0.2-1.3-0.4l-0.2-0.1-0.1-0.1-0.3-0.4c-0.5-0.6-0.5-0.6-1.4-0.7H948.8c-0.3-0.1-0.6-0.1-0.8-0.1-0.4 0-0.5 0.1-0.8 0.3-0.6 0.4-1.1 0.5-1.6 0.5-0.7 0-1.3-0.3-1.8-0.8-0.2-0.1-0.5-0.2-0.9-0.2h-0.5c-0.3 0-1.6 0.3-1.6 0.3h-0.8c-1.4 0-3 0.9-4.7 1.9h-0.1l-0.2 0.1-0.6 0.2c-1.5 0.8-4.3 1.2-6.2 1.2-0.8 0-1.9 0-2.8-0.3-0.2 0-0.6-0.2-1.7-0.4-1.2-0.3-2.9-0.7-6.4-2.3-5-2.2-6.7-4.8-7.8-6.6z m-580.2 49.9c0.6 0 1.1 0.2 1.4 0.6 0.8 0.9 0.9 2.4 0.8 5 0 0.6-0.1 2.5-0.4 3.6-0.1 0.4-0.4 1-0.6 1.6-0.3 0.6-0.5 1.1-0.6 1.4v2.6c-0.7 6.2-4.3 6.7-8 6.7H318c-1.3 0-2.3 0-3.3 0.1H313.8c-1.6 0.1-2.6 0.1-3 0.1-0.4 0-0.7 0.1-1 0.1-0.5 0.1-1 0.2-1.7 0.2-0.6 0-1.3-0.1-2.1-0.2-2.8-0.5-4.9-0.7-6.3-0.7-1.4 0-3.4 0.1-6 0.4-1.5 0.1-2.9 0.2-4.3 0.2-1.6 0-2.9-0.1-4-0.2-0.2 0.3-0.3 0.5-0.3 1.1v0.2h-0.2c-0.1 0.4-0.2 1.1-0.2 1.5l-0.3 1.5v0.3c-0.1 0.1 0 0.4-0.1 0.7 0 0.7 0 1.7-0.1 2.3l-0.3 1.1c-0.4 2-0.8 3.4-1.2 4.1-2.2 2.9-3.9 4.2-5.8 4.2-1.8 0-3.4-1.4-5-4.2l-0.1-0.2-0.1-0.2c-0.1-0.4-0.2-1-0.3-1.7-0.4-1.9-0.9-4.4-1-6.6-0.2-2.4-0.5-2.7-0.7-3-0.1-0.2-0.3-0.4-0.5-0.8-1.4-0.2-6-0.5-11.9-0.5-4.5 0-8.8 0.2-12.5 0.5-2 0.2-4.3 0.6-6 1-0.8 0.1-1.5 0.3-1.9 0.4-0.5 0.1-0.9 0.1-1.3 0.1-1.9 0-3.7-0.8-5.1-2.3-2.3-2.5-3.5-7.2-3.1-12.5 0.2-3.2 2.8-3.8 5-4.4l0.5-0.1c0.5-0.1 0.7-0.1 0.8-0.1H234c0.2 0 0.3 0 0.4 0.1 0.2 0 0.8 0.2 2.9 0.4 3.7 0.5 7 0.7 9.8 0.7 2.2 0 4.1-0.1 5.8-0.4 0.9-0.2 2-0.3 3.3-0.3 1 0 2.2 0.1 3.6 0.2 1.6 0.2 3.2 0.2 4.6 0.2 1.6 0 3 0 4.4-0.3 1.2-0.4 2.4-2.7 2.8-4.3 0.8-3.6 2.4-5.9 4.7-6.6-3.1-1.7-6.2-5.3-6.1-11 0.1-2.3-0.4-2.8-0.4-2.8-0.5 0.3-1.1 0.6-1.9 1.2-1.1 0.7-2.6 1.7-5.1 2.8l-0.5 0.2c-0.4 0.2-0.6 0.2-0.8 0.3h-0.1l-0.1 0.1c-0.5 0-1 0.1-1.4 0.1-1 0-1.8-0.2-2.6-0.5-1.7-0.4-2.6-1.8-2.2-3.4 0.1-0.8-0.2-1.8-0.4-2.8-0.5-1.8-1.3-4.6 2-6.1 0.4-0.2 0.6-0.3 0.9-0.4 1.6-0.7 3.6-1.1 5.5-1.6 2.1-0.5 4.5-1.1 5.2-1.7 1-0.8 1.6-2.2 1.9-4 0-4.2 0.6-8.9 1.9-13.8 0.3-1.5 0.7-3.3 1.3-5.2 0.3-0.8 0.5-1.5 0.7-2.2 0.8-2.4 1.5-4.6 3-5l0.3-0.1 0.3 0.1 6 1.8 0.3 0.1 0.2 0.2c0.5 0.7 0.9 1.2 1.2 1.6 0.5 0.7 1.1 2.4 0.7 8.4v1.5c-0.2 2.9 0.4 4.1 0.9 4.6 0.2 0.2 0.5 0.4 1.1 0.5 10.1-3 12.3-4.9 17.3-9.1 0 0 0.4-0.5 1.1-1.9 1.2-2.7 3.1-5.3 8.3-5.3 1 0 2.1 0.1 3.4 0.3 4.8 0.7 7.4 2.1 8.4 4.3 1.1 2.8-1.1 5.8-3 8.5-0.3 0.5-0.7 1-1.1 1.4-2.4 3.6-5.9 5.2-10.9 7.4-2.5 1.2-5.5 2.5-9 4.4-2.3 1.2-4.7 1.8-7.7 2.4-1.8 0.4-3.9 0.8-6.3 1.5-2.6 0.7-3.7 2.3-3.7 5.2 0.1 0.5 0.1 0.7 0.2 0.7l0.1 0.1c0.7 1 2.2 1.4 5.6 1.4 1.1 0 2.4 0 3.7-0.1h4.4c3.6 0 6.2-0.2 7.8-0.5 2.3-0.4 5.3-1.8 6.6-3.8 0.3-0.5 0.8-0.6 1-0.6 0.6-0.1 0.7-0.2 0.7-0.2 0.2-0.2 0.6-0.8 1.4-2.4 0.1-0.4 0.2-1 0.6-1.3 1.2-3.4 2.8-4.3 3.6-4.6v0.3c0.7-1.1 1.6-1.3 2.1-1.3 1.2 0 2.3 1 2.4 1.9 0.1 0.9 0.1 1.8 0.2 2.6 0.3 3.1 0.5 5.7 1.7 9.4v0.6c0.1 0.5 0.2 1 0.2 1.4 0.8 5.7-1.1 9.5-6.1 11.9-1.1 0.7-2.3 1.4-3.1 1.9-0.5 0.3-1.5 0.7-4.5 0.9-0.6 0.1-1.2 0.1-1.7 0.1l-0.9-0.1h-0.6c-0.3 0-0.5 0.1-0.5 0.1l-0.3 0.2h-0.8c-0.5 0-1.2 0-1.8-0.1-0.8 0-1.5-0.1-2.2-0.1h-0.5c-1.9 0.2-4 0.2-6.1 0.2h-3.4c-0.2 0-0.3-0.1-0.5-0.1-0.5 0-1.2 0.1-2.1 0.2-1.2 0.2-2.6 0.3-4.1 0.3h-0.7c-2.3 0-4.3-0.1-5.9-0.3 0.8 0.8 1.4 1.9 1.7 3.5 0.2 2.2 0.5 3.9 0.8 4.4 1.5 0.5 3.5 0.8 6.1 0.8h0.4c1.5-0.2 2.8-0.4 3.7-0.6 1.4-0.1 2.8-0.1 4.2-0.1 2.4 0 5.3 0.1 8.4 0.3 0.5 0.1 0.9 0.1 1.4 0.1 2.3 0 5.1-0.7 8.1-1.3 2.3-0.5 4.8-1.1 7.2-1.4 0.5 0 1.7-0.2 2.8-0.3 1.9 0.4 2.8 0.3 3.1 0.3z m-101.4-31.1l-0.4-0.3c-0.3-0.2-0.5-0.4-0.7-0.6l-0.1-0.1v-0.1c-0.2-0.4-0.4-0.4-0.4-0.4l-0.7-0.1-0.3-0.6c-0.2-0.4-0.7-1.2-1.8-2.6-1.8-2.2-2.7-5.5-2.6-7.5V452.3l0.1-0.2c1.2-2.5 2.3-3.9 3.5-4.5 1.3-0.9 2.9-1.4 4.6-1.4h0.4c0.5-0.3 1.5-0.5 3.2-0.5 0.9 0 1.8 0 2.2 0.1 0.2 0 1.3-0.3 1.9-0.7 0.2-0.1 3.1-2.2 5-2.2 0.8 0 1.2 0.3 1.6 0.6 0.6-0.1 1.8-0.6 2.2-0.9l0.7-0.3c0.8-0.4 1.2-0.6 1.6-0.7 0.3-0.1 0.7-0.5 1.2-0.9s1-0.9 1.7-1.4c2.5-2 3.9-2.8 5.1-2.8 0.4 0 0.7 0.1 1 0.2l5.8 2.7 0.3 0.1 0.2 0.3s3 5.9 1.2 11c0.3 0.6 0.6 1.5 0 2.5-0.1 0.1-0.3 0.6-0.3 0.8l-0.2 0.4c-0.1 0.2-0.3 0.4-0.5 0.5-0.2 0.2-0.6 0.5-0.7 0.9l-0.3 1c-0.2 0.5-0.3 0.9-0.3 1-0.3 0.4-0.3 0.4-1.4 1.1-0.5 0.3-1 0.6-1.3 0.8l-0.2 0.2-0.1 0.1-0.3 0.2-5.9 2.9c-1.4 0.4-1.4 0.4-1.4 3.1 0 0.9 0 2-0.1 3.4 0 1.9 0.4 4.1 1.1 6.6 0.5 2.1 0.9 9.5 0.8 13.6V490.6c-0.1 0.3-0.3 1.7-0.4 2.7-0.1 0.8-0.3 1.5-0.3 1.9-0.5 2.6-2.2 3-3.3 3-0.7 0-1.6-0.2-2.2-0.3-0.6-0.2-1.2-0.3-1.5-0.3H245.3c-0.3 0-0.8-0.1-2.3-0.8-1.5-0.7-2.3-2.5-2.9-4-0.2-0.4-0.5-1.1-0.6-1.4-1.1-0.1-1.9-0.6-2.4-1.6-0.5-0.3-0.9-0.7-1.1-1.4-0.5-2.7-0.5-4.2-0.5-5.8v-0.8s0-0.3 0.1-1.1c0.3-3.8 0.4-6.4 0.4-8v-1.2c-0.1-0.9-0.1-1.8-0.1-2.7 0-1 0-2-0.2-2.9-0.3 0-0.8 0.1-1.2 0.2l-0.4 0.1c-0.9 0.2-1.8 0.4-2.8 0.4-1.1 0-2.1-0.2-2.9-0.8l-0.5-0.3z m223.2 3.5c0.5-1.4 0.8-2.5 0.4-2.8 0 0-0.5-0.2-1.6-0.2-0.9 0-1.9 0.1-2.8 0.2-0.5 0-0.9 0.1-1.3 0.1-2.3 0.2-3.1 0.6-3.4 0.9-0.3 2.2-0.4 4.7-0.4 7.3 0.2 0.2 1.1 0.8 3.8 1h0.2c1.7 0 2.9-0.3 3.1-0.8l0.3-0.8 0.5-1.3c0.4-1 0.6-1.9 0.9-2.4 0.1-0.6 0.2-0.9 0.3-1.2zM440 505.5c1.3 0 2.7-0.1 3.8-0.6 0-0.1 0-0.2-0.1-0.4 0-4.9-1.6-9.5-4.2-13.1-0.4-0.5-1.5-0.9-2.5-0.9-0.5 0-1.2 0.1-1.6 0.6 0.4 6.9-0.8 9.5-1.9 11.8-0.5 1.1-1 2.1-1.3 3.5 0.4 0 0.9-0.2 1.3-0.3 0.9-0.2 1.9-0.5 3-0.6 0.5 0 1-0.1 1.6-0.1h0.8l1.1 0.1z m-10.2-31.1c0.6-2.7 1-5.1 1.3-6.8 0-0.2-0.1-0.3-0.1-0.4-0.1 0-0.4-0.2-0.9-0.2-0.1 0-0.2 0-0.4 0.1h-2.5c-0.7-0.1-1.3-0.1-2-0.1-1.4 0-2.3 0.1-2.7 0.4-0.2 0.5 0 2 0.1 3 0.3 1.7 0.5 3.7 0.1 5.6-0.1 0.6 0.1 1.1 0.3 1.4 0.1 0.1 0.2 0.2 0.7 0.3 3.4-0.5 5.4-1.6 6.1-3.3z m-33.9-9.3v-0.1c-0.2-0.2-1.9-0.5-2.6-0.7-0.5-0.1-1.1-0.3-1.3-0.3-2.2-0.3-4.5-0.5-6.9-0.5-2.7 0-5.4 0.2-8.8 0.7-2 0.2-3.9 0.2-5.6 0.2h-0.1c-2 0-3.9 0-4.7 0.6-1.2 0.9-1 4.1-0.6 4.9h0.2c0.6 0 1.6-0.6 2.7-1 1.6-0.7 3.3-0.8 5.7-0.9 1.2-0.1 2.6-0.1 4-0.3 1.8-0.1 3.3-0.2 4.6-0.2 2.2 0 3.8 0.2 5.2 0.6 2.2 0.7 3.9 1 5.2 1 2.3 0 2.3-0.9 2.4-2.3 0.2-0.6 0.2-1.2 0.6-1.7z m-44.2-15.2c0-0.6-0.3-2-0.5-3.2-0.5-2.5-0.6-3.5-0.5-4.1 0.4-1.4 4.4-3.7 4.7-3.8l0.2-0.1h1.7c3.5 0 6 0 6.6-0.1l14-0.6h0.4c0.7-0.1 2.4-0.1 4.3-0.2 1.5-0.1 3.6-0.1 3.9-0.2h0.4c1.3 0 8.3 1 9 1.1 1.4 0 4.1-0.1 4.8-0.2 1.1-0.3 2.2-0.5 3.2-0.5 0.7 0 1.5 0.1 2.2 0.3 0.3 0 1.7 0.4 2.3 1.5 0.1 0.2 0.2 0.4 0.2 0.6v0.5l-0.1 0.2c-0.2 0.7-0.1 2.2-0.1 3.2v1.1c0.1 1-0.4 3-1.4 4.1l-0.5 0.7-0.3 0.3c-0.8 0.8-1.7 1.9-3.1 1.9-0.5 0-1.4-0.2-3.5-0.5-2.8-0.4-6.8-1.1-8.8-1.1-0.7 0-0.9 0.1-0.9 0.1l-0.1 0.1h-15.1c-3.2 0-12.2 0.4-13.3 0.8-1.5 0.7-6 1.2-6.8 1.2-0.3 0-0.5-0.1-0.8-0.1-1.1-0.4-2.1-1.7-2.1-3z m48.3 54.8v-0.3c0.1-4.7-0.4-7-0.9-8.2h-0.3c-0.5 0-1-0.2-1.5-0.4-0.3-0.1-1.7-0.2-2.7-0.4 0.1 0.9 0.1 1.9-0.1 3-0.1 0.4-0.1 0.6-0.2 0.8v0.2c0 0.5-0.1 1.1-0.3 1.6-0.2 0.6-0.3 0.9-0.3 1.4 0 0.6 0 0.9 1.5 1 0 0 0.2-0.1 0.4-0.1 0.5-0.3 1.2-0.6 1.8-0.6h0.4c0.9 0.4 1.5 1.2 2.2 2z m-15.4-3.9c0.4-1.6 0.6-2.3 0.6-3.2 0-1.2-0.1-1.7-0.2-1.9H380.2c-1.4 0-2.2 0.1-2.7 0.2-0.2 0.4-0.5 1.3-0.5 2.7 0.2 3.1 0.8 3.7 1.5 4.2 1 0.3 1.7 0.5 2.2 0.6h1.1c2 0 2.3-0.7 2.5-1.5 0-0.3 0.1-0.4 0.1-0.5 0-0.1 0.1-0.1 0.1-0.3l0.1-0.3z m-18.3 3.4h2.4c-0.1-0.3-0.1-0.6-0.2-0.9-0.4-1.9-0.9-4.8-1-6.6l-0.1-0.1h-0.5c-0.6-0.1-2-0.5-3-0.5-0.9 0-1.2 0.2-1.2 0.2s-0.1 0.2 0.1 0.7l0.2 0.4-0.2 0.4c-1.3 3.1-1.3 6.1-1.3 9.5v1.4c1.1-2.6 2.7-4.1 4.8-4.5z"/>
</svg>
