<svg viewBox="0 0 1024 1024" version="1.1" xmlns="http://www.w3.org/2000/svg" height="1em" width="1em">
  <path d="M0 0m224 0l576 0q224 0 224 224l0 576q0 224-224 224l-576 0q-224 0-224-224l0-576q0-224 224-224Z" fill="#FFFFFF"/>
  <path d="M585.364 188.256c1.348 1.352 9.444 27.016 18.888 32.42 9.44 4.052 47.216-6.756 64.752 17.56 8.096 16.208-4.048 22.96 6.744 32.42 68.8 40.52 80.944-9.456 107.92 36.468 12.144 39.176-47.212 31.072-62.052 74.296-4.048-8.104-20.236-16.212-25.632-20.264-48.564-29.716-105.224-41.872-164.58-25.664-113.32 31.068-180.768 144.536-151.092 258 31.028 113.468 145.696 179.656 259.012 148.588 33.728-9.456 74.2-31.068 98.48-52.68 20.236-14.86 37.772-40.52 55.308-48.628l-1.6 2.04c-3.384 4.44-11.148 15.248-13.24 23.624l0.332 0.048c1.32 0.12 6.608-0.048 15.86-8.152 10.792-10.808 17.536-29.72 17.536-29.72-1.348 6.76 4.048 24.32-16.188 48.632l-2.272 2.988c-11.336 14.692-21.928 25.376-20.66 25.376 4.044-1.348 10.792-6.752 20.232-12.156 8.096-5.4 18.888-27.016 18.888-27.016 0 9.456-13.492 47.28-29.68 67.54l-2.06 2.784c-25.2 33.544-54.6 55.3-54.6 55.3l-3.644 2.712c-15.052 11.06-31.056 20.96-59.76 29.708-174.02 47.28-350.744-55.384-396.608-226.932-10.792-40.524-10.792-86.452-8.096-129.68l-1.604 0.928c-6.816 3.796-34.472 17.984-67.196 17.984-39.12 0-64.752-31.068-64.752-67.54 0-33.768 39.12-78.344 39.12-76.992l-0.04 1.8c-0.056 7.596 1.6 36.18 33.768 37.372 72.848-6.756 107.92-63.488 164.58-110.764l8.092-6.756c33.008-27.76 72.48-50.352 122.2-63.96l3.26-0.88c29.68-8.104 60.708-12.156 90.384-10.804zM679.804 460c17.44 0 32.196 14.908 32.196 32.528v98.944c0 17.62-14.756 32.528-32.196 32.528H524.2c-17.44 0-32.196-14.908-32.196-32.528v-98.944c0-17.62 14.756-32.528 32.196-32.528h155.608z" fill="#D80C18"/>
</svg>
