<svg viewBox="0 0 1024 1024" version="1.1" xmlns="http://www.w3.org/2000/svg" height="1em" width="1em">
  <path d="M67.43795 385.9s2.1-2.1 5.8-3.7c0 0-1.1 3.7-4.8 4.7 0 0 3.7 0 4.8 3.7 0 0-2.1 2.1-5.8-1 0 0 2.1 3.7-2.1 5.8 0 0-2.1-1 0-5.8 0 0-3.7 3.7-5.8 3.7 0 0 0-2.1 5.8-4.7 0 0-4.8 0-4.8-2.1 0 0 2.1-2.1 5.8 1 0 0-2.1-4.7 1.1-6.8 0-2.1 2.1 0.5 0 5.2z m68.7 66c5.8 2.1 4.8 4.7 2.1 5.8-2.1-1-3.7-1-4.8-2.1 0 1 2.1 3.7 1.1 4.7-1.1 1-2.1 0-3.7-1 0 0-1.1-2.1-1.1-3.7 0 0-4.8 3.7-6.9 1 0-2.1 3.7-3.7 4.8-3.7-1.1 0-5.8-1-5.8-2.1-1.1-1 0-1 1.1-1 2.1-1 4.8 0 6.9 1 0-1-2.1-3.7-1.1-4.7h1.1c1.1 0 2.1 1 2.1 1 1.1 1 1.1 2.1 1.1 3.7 0-1 3.7-2.1 3.7-2.1 2.1-1 4.8 1 2.1 2.1l-2.7 1.1z m-84 27.7c-2.1 1 1.1 4.7 1.1 5.8h-4.8s2.1-4.7 0-5.8c-4.8-2.1-10.6 3.7-12.7 1 3.7-1 4.8-5.8 8.5-4.7 1.1 0 4.8 2.1 5.8 2.1v-3.7c1.1 0 1.1 2.1 2.1 2.1 0 0 3.7-1 6.9-1 2.1 1 5.8 4.7 5.8 6.8-6.9-2.6-12.7-2.6-12.7-2.6z m170.7-24.1c8.5 6.8 11.6 3.7 17.4 8.4 0-3.7-3.7-6.8-4.8-8.4 9.5 4.7 10.6 4.7 8.5 10.5-1.1 3.7 4.8-1 8.5 2.1-2.1 0-3.7 1-6.9 2.1-5.8 3.7-9.5 0-12.7 3.7l-1.1-2.1s5.8-1 5.8-3.7c0.7-2.1-12 0-14.7-12.6z m74 22c0-1 0-3.7 1.1-5.8 0 0-4.8 0-4.8 2.1 0 1.1 2.7 1.1 3.7 3.7z m-109.9-41.8c-2.1 0-4.8 0-8.5-1 2.1 1 4.8 4.7 3.7 5.8 2.1-1.2 4.8-3.8 4.8-4.8z m-7.4 6.8c-2.1 1-4.8 0-5.8-1 2.1-1 2.1-2.1 2.1-3.7 0.5 2.6 1.6 3.6 3.7 4.7z m-9-5.8l1.1-1-1.1 1zM55.83795 463.4c-3.7-4.7-1.1-5.8 1.1-4.7 1.1 1 1.1 2.1 2.1 3.7 0-1 0-3.7 2.1-4.7 1.1 0 2.1 1 2.1 2.1v3.7s4.8 0 5.8 2.1c-1.1 1-1.1 0-5.8 1 2.1 0 4.8 3.7 2.1 4.7-2.1 1-3.7-1-4.8-3.7 0 1 1.1 3.7-1.1 4.7-1.1 0-2.1-1-2.1-2.1s0-2.1 1.1-3.7c-2.6 1.6-6.3-3.1-2.6-3.1z m122.6 1c-5.8-1-11.6 5.8-11.6 5.8 1.1-5.8 1.1-5.8 2.1-6.8 1.1-2.1 8.5-1 8.5-2.1v-3.7l2.1 1c2.1 0 2.1-4.7 5.8-5.8 3.7-1 5.8 0 9.5 1-6.9 1-11.6 4.7-10.6 8.4 0 1 2.1 2.1 2.1 2.1l-5.8 3.7c0.6 1.2 0.6-2-2.1-3.6z m-12.7-7.8h1.1v-1s-1.1 0-1.1-1l-1.1-2.1 1.1-1 2.1 1s0 1 1.1 1h1.1s0-1-1.1-1h-1.1l-3.7-1v-2.1l2.1-1h1.1s1.1 0 1.1-1c0 0-1.1-1-1.1 0 0 0 0 1-1.1 1l-2.1 1c0-1-1.1-1-1.1-1l1.1-2.1s1.1 0 1.1-1v-1h-1.1v1l-1.1 2.1s-1.1-1-2.1-1V444l1.1-1s0-1-1.1-1c0 0-1.1 0-1.1 1l1.1 1v2.1c-1.1 0-1.1 0-2.1 1l-1.1-2.1v-1h-1.1v1s1.1 0 1.1 1l1.1 2.1-1.1 1-2.1-1s0-1-1.1-1h-1.1s0 1 1.1 1h1.1l2.1 1v2.1l-2.1 1h-1.1s-1.1 0-1.1 1c0 0 1.1 1 1.1 0 0 0 0-1 1.1-1l2.1-1c0 1 1.1 1 1.1 1l-1.1 2.1h-1.1v1h1.1v-1l1.1-2.1s1.1 1 2.1 1v2.1l-1.1 1s0 1 1.1 1c0 0 1.1 0 1.1-1l-1.1-1v-2.1h2.1l1.1 2.1c1.6 0.2 0.6 0.2 1.6 1.3z m-59.7 7.8v-1l-2.1-2.1h-2.1v2.1l1.1 1s0 1-1.1 1-1.1 0-1.1-1 1.1-1 1.1-1v-2.1c-1.1 0-1.1 0-2.1-1l-2.1 2.1v1s-1.1 1-1.1 0v-1h1.1l2.1-2.1-1.1-1-3.7 1s0 1-1.1 1h-1.1s0-1 1.1-1h1.1l3.7-1v-2.1l-3.7-1h-1.1s-1.1 0-1.1-1c0 0 1.1-1 1.1 0 1.1 0 1.1 1 1.1 1l3.7 1c0-1 1.1-1 1.1-1l-2.2-2.2s-1.1 0-1.1-1v-1h1.1v1l2.1 2.1c1.1 0 1.1-1 2.1-1V452l-1.1-1s0-1 1.1-1 1.1 0 1.1 1-1.1 1-1.1 1v2c1.1 0 1.1 0 2.1 1l2.1-2.1v-1s1.1-1 1.1 0v1h-1l-2.1 2.1c1.1 0 1.1 1 1.1 1l3.7-1s0-1 1.1-1h1.1s0 1-1.1 1h-1.1l-3.7 1v2.1l3.7 1h1.1s1.1 0 1.1 1c0 0-1.1 1-1.1 0-1.1 0-1.1-1-1.1-1l-3.7-1c0 1-1.1 1-1.1 1l2.1 2.1s1.1 0 1.1 1v1c-1.1 2.8-1.1 2.8-1.1 1.2z m-20.1 7.4c4.8 2.1 3.7 3.7 2.1 4.7-2.1 0-2.1-1-3.7-2.1 0 1 1.1 2.1 0 3.7-1.1 1-2.1 0-2.1-1 0 0-1.1-1-1.1-2.1 0 0-3.7 2.1-4.8 1 0-1 2.1-2.1 3.7-3.7-1.1 0-4.8-1-4.8-1-1.1-1 0-1 0-1 2.1-1 3.7 0 5.8 1 0-1-2.1-2.1 0-3.7h1.1c1.1 0 1.1 0 2.1 1s1.1 2.1 1.1 2.1c0-1 2.1-1 2.1-1 2.1-1 3.7 1 2.1 2.1h-3.6z m184-58.1c1.1-2.1 2.1-3.7 3.7-3.7 1 1.6 0 3.7-3.7 3.7 3.7 0 5.8 0 5.8 1s-2.1 2.1-4.8 0c2.1 2.1 2.1 4.7 1.1 4.7-1.1 0-2.1-1-2.1-4.7-1.1 3.7-2.1 3.7-3.7 3.7-1.1-1-1.1-2.1 2.1-4.7-3.7 1-4.8 0-4.8-1s2.1-1 4.8 0c-1.1-1-2.1-3.7 0-4.7 0.5 1 1.6 3.6 1.6 5.7z m50.2 50.7c2.1-2.1 5.8-3.7 6.9-1 2.1 2.1-2.1 3.7-5.8 3.7 3.7 0 6.9 2.1 5.8 4.7-1.1 2.6-4.8 1-6.9-3.7 2.1 3.7 1.1 6.8-1.1 5.8-2.1 0-3.7-3.7-1.1-6.8-2.1 3.7-5.8 3.7-6.9 2.1-1.1-2.1 0-3.7 5.8-3.7-4.8-1-6.9-3.7-5.8-4.7 1.1-1 4.8 0 6.9 2.1-1.1-2.1-1.1-5.8 2.1-5.8 2.7 1.6 3.8 4.2 0.1 7.3z m-15.3-23c1.1-3.7 3.7-4.7 4.8-4.7 2.1 1 0 3.7-3.7 4.7 3.7-1 5.8-1 5.8 1s-3.7 2.1-5.8 0c2.1 2.1 3.7 5.8 1.1 5.8-2.1 1-3.7-1-2.1-5.8-1.1 3.7-3.7 5.8-4.8 4.7-2.1-1-1.1-3.7 3.7-5.8-3.7 1-5.8 0-5.8-1 0-2.1 3.7-2.1 6.9-1-1.1-1-3.7-4.7 0-5.8-0.1 2.2 1.5 3.2-0.1 7.9zM236.03795 413.7c3.7-3.7 8.5-4.7 10.6-2.1 2.1 3.7-3.7 4.7-8.5 4.7 4.8 1 9.5 3.7 6.9 5.8-2.6 2.1-5.8 1-9.5-3.7 2.1 4.7 0 9.4-2.1 9.4-3.7 0-3.7-4.7 0-9.4-3.7 4.7-8.5 4.7-9.5 3.7-2.1-2.1 0-5.8 8.5-5.8-5.8-1-9.5-3.7-8.5-5.8 2.1-2.1 5.8 0 9.5 3.7-1.1-2.1-1.1-9.4 3.7-8.4 1.1-0.5 2.1 3.2-1.1 7.9z m-63.4-44c1.1-2.1 3.7-4.7 4.8-3.7 2.1 1 0 3.7-3.7 4.7 3.7-1 5.8 0 5.8 1s-2.1 2.1-5.8 0c2.1 2.1 3.7 4.7 1.1 4.7s-3.7-1-3.7-4.7c0 3.7-3.7 4.7-4.8 3.7-2.1-1-2.1-2.1 2.1-4.7-3.7 1-5.8 0-5.8-1s3.7-1 6.9 0c-2.1-1-3.7-3.7-1.1-4.7 3.2 0 4.2 2.1 4.2 4.7z m-52.9 24.1c0-2.1-6.9-6.8-11.6-6.8 5.8-2.1 8.5-1 8.5-1 3.7 1 4.8 6.8 6.9 5.8 1.1 0 2.1-2.1 2.1-2.1v3.7c0 2.1 6.9 0 9.5 2.1 0 0 2.1 2.1 3.7 8.4-3.7-5.8-10.6-8.4-14.3-6.8-1.1 1 0 3.7 0 3.7-1.1-2.1-3.7-3.7-5.8-3.7-1.1-0.7 1-1.7 1-3.3z m28.6 25.6c1.1-4.7 5.8-8.4 8.5-6.8 3.7 2.1-1.1 5.8-5.8 8.4 4.8-1 10.6-1 10.6 2.1s-4.8 3.7-10.6 1c4.8 3.7 4.8 8.4 2.1 9.4-3.7 1-5.8-2.1-4.8-8.4-1.1 5.8-5.8 8.4-8.5 6.8-3.7-1-2.1-4.7 5.8-8.4-6.9 2.1-10.6 1-10.6-1 0-2.1 5.8-3.7 10.6-1-3.7-1-4.8-6.8-1.1-8.4 2.2-3.1 5.9 0.6 3.8 6.3z m-50.8-3.6c-1.1-2.1-1.1-4.7 0-4.7 2.1 0 2.1 2.1 1.1 4.7 1.1-2.1 3.7-3.7 4.8-2.1 1.1 1 0 3.7-4.8 3.7 3.7 0 5.8 1 4.8 3.7-1.1 1-3.7 1-5.8-2.1 2.1 2.1 1.1 4.7 0 4.7-2.1 0-3.7-1-1.1-4.7-2.1 2.1-4.8 3.7-4.8 2.1 0-2.7 1.1-3.8 5.8-5.3-3.7 1-5.8 0-4.8-2.1 0.1-1.1 2.7-1.1 4.8 2.1z m-52.3 10.4c0-2.1 2.1-4.7 3.7-3.7 1.6 1.1-0.5 2.7-3.7 3.7 3.7 0 5.8 0 5.8 2.1 0 1-2.1 2.1-4.8 0 2.1 2.1 2.1 4.7 1.1 4.7-1.1 0-2.1-1-2.1-4.7 0 3.7-2.1 4.7-3.7 3.7-1.1-1-1.1-2.1 2.1-4.7-2.1 1-4.8 0-4.8-1s2.1-1 4.8 0c-1.1-1-2.1-4.7-1.1-4.7 1.1-0.1 2.7 1.5 2.7 4.6zM15.63795 432c0-3.7 2.1-4.7 3.7-4.7 2.1 1 0 3.7-2.1 4.7 2.1-1 5.8-1 5.8 1s-2.1 2.1-5.8 1c3.7 2.1 3.7 4.7 2.1 4.7-1.1 1-3.7-1-3.7-4.7 0 3.7-2.1 4.7-3.7 4.7-2.1-1-2.1-2.1 2.1-5.8-3.7 1-5.8 1-5.8 0s2.1-2.1 5.8-1c-2.1 0-4.8-3.7-2.1-3.7 1.6-0.4 3.7 0.7 3.7 3.8z m30.7 12c2.1-4.7 5.8-6.8 8.5-4.7 3.7 2.1-1.1 5.8-5.8 6.8 4.8-1 9.5 0 9.5 3.7-1.1 2.1-4.8 3.7-9.5-1 3.7 3.7 3.7 8.4 1.1 8.4-3.7 0-4.8-2.1-3.7-8.4-1.1 4.7-5.8 6.8-6.9 5.8-2.1-2.1-2.1-4.7 5.8-6.8-5.8 1-9.5-1-9.5-3.7 1.1-2.1 5.8-2.1 9.5 1-2.1-2.1-3.7-6.8 0-8.4-0.1-1 2 1.1 1 7.3z m-35.5 28.8c-2.1 0-8.5 5.8-9.5 10.5-2.1-4.7-1.1-6.8-1.1-6.8 1.1-3.7 8.5-4.7 8.5-5.8 0-1-1.1-3.7-1.1-3.7l3.7 1c2.1 0 0-6.8 3.7-8.4 0 0 2.1-2.1 9.5-2.1-5.8 2.1-9.5 9.4-8.5 12.6 1.1 1 3.7 1 3.7 1-2.1 1-3.7 3.7-4.8 5.8-1.4 0.6-2.5-4.1-4.1-4.1z m185.1-68.5c-1.1-1-10.6 3.7-10.6 3.7 1.1-2.1 2.1-5.8 2.1-5.8 2.1-1 5.8 0 6.9-1V399l2.1 1c1.1 0 3.7-3.7 5.8-3.7 0 0 3.7 2.1 6.9 2.1-4.8 0-10.6 2.1-10.6 4.7 0 1 2.1 2.1 2.1 2.1l-5.8 2.1c1.1 0.6 2.7-2 1.1-3z m88.3 5.7c6.9 8.4 10.6 4.7 15.3 9.4 0-3.7-3.7-8.4-3.7-9.4 8.5 4.7 9.5 5.8 6.9 10.5-1.1 3.7 4.8-1 8.5 3.7-2.1 0-3.7 1-5.8 2.1-5.8 2.1-8.5-1-11.6 1l-3.7-1s5.8-1 5.8-2.1c0.9-1.1-11.7-1.1-11.7-14.2z m-175 5.8c-2.1-4.7-4.8-4.7-5.8-3.7-2.1 2.1 2.1 4.7 4.8 5.8-4.8 0-6.9 2.1-5.8 4.7 1.1 2.6 4.8 1 6.9-2.1-3.7 5.8-1.1 8.4 1.1 8.4 1.1 0 3.7-3.7 1.1-6.8 2.1 4.7 5.8 5.8 6.9 3.7 1.1-2.1-1.1-4.7-5.8-5.8 4.8 0 6.9-2.1 5.8-4.7-1.1-2.6-4.8-1-6.9 2.1 2.1-3.7 2.1-6.8 0-6.8-3.4-1.6-4.4 1-2.3 5.2z m92.5 20.9c-2.1-3.7-5.8-6.8-10.6-5.8-1.1 0-2.1 1-3.7 2.1 0-1-3.7-3.7-9.5-1 2.1-2.1 4.8-8.4 1.1-9.4-2.1-1-4.8 3.7-5.8 8.4-1.1-4.7-4.8-8.4-6.9-6.8-2.1 1.6-1.1 5.8 2.1 8.4-4.8 0-6.9 0-9.5 2.1 0 1-1.1 2.1 1.1 3.7-2.1 0-3.7 0-4.8 1-1.1 0-3.7 0-3.7 3.7s-2.1 2.1-2.1 1c1.1-3.7 1.1-8.4 1.1-8.4-3.7 1-5.8 6.8-5.8 11.5 0 1-1.1 1-1.1 0 1.1-5.8-1.1-9.4-3.7-11.5 0 1 0 1-1.1 2.1 0-1-1.1-2.1-2.1-2.1 1.1 5.8-1.1 6.8 1.1 12.6-4.8-1-2.1-6.8-6.9-9.4 0 2.1-3.7 3.7-4.8 2.1 1.1 0 3.7-1 3.7-2.1-1.1-1-2.1-1-4.8-1 1.1 0 2.1-1 3.7-2.1-2.1 0-2.1-2.1-1.1-3.7h-2.1V430s-1.1 0-1.1 1v-2.1c-1.1 0-1.1 1-2.1 2.1v-2.1c-2.1 1-2.1 3.7-3.7 4.7 0-1-1.1-2.1-1.1-2.1s-1.1 1-1.1 3.7c0 0 0-2.1-1.1-2.1-1.1 2.1-1.1 4.7 1.1 8.4 1.1 1 2.1 1 2.1 2.1 1.1 4.7-6.9 5.8-6.9 5.8 2.1-2.1 4.8-5.8 3.7-8.4-2.1 0-3.7 2.1-4.8 3.7 0-1 1.1-4.7 1.1-6.8-2.1 1-3.7 3.7-3.7 4.7 0-2.1 0-2.1-1.1-3.7-2.1-2.1-8.5-3.7-10.6 3.7 0-1-3.7-2.1-3.7-2.1 0 2.1 1.1 4.7 2.1 5.8-2.1-3.7-4.8-4.7-5.8-4.7 0 2.1 2.1 4.7 3.7 6.8-4.8-4.7-8.5-1-8.5 1 0-4.7-3.7-6.8-3.7-6.8-4.8 5.8-2.1 10.5-1.1 11.5-1.1 4.7-6.9 2.1-4.8-1 1.1-1-1.1-4.7-5.8-1 5.8-4.7-3.7-8.4-3.7-1-1.1-6.8-10.6-1-3.7 2.1-6.9-2.1-8.5 5.8 0 3.7-1.1 1-2.1 3.7 0 4.7s3.7-2.1 3.7-3.7c1.1 2.1 3.7 3.7 5.8 2.1 1.1-1 2.1 0 2.1 1s-1.1 2.1-4.8 1c1.1 5.8-3.7 6.8-5.8 3.7-1.1-2.1-8.5-3.7-8.5-3.7 1.1 3.7-4.8 10.5-8.5 6.8-1.1-1 1.1-3.7 1.1-3.7 3.7-3.7-8.5-5.8-8.5-1-1.1 0-3.7-1-4.8 0 2.1-1 3.7-5.8 2.1-5.8-2.1-1-4.8 2.1-4.8 4.7 0-3.7-2.1-6.8-4.8-5.8-2.1 1-1.1 4.7 1.1 6.8-3.7-1-6.9-2.1-6.9 0-1.1 2.1 4.8 3.7 6.9 2.1-2.1 2.1-3.7 6.8-1.1 6.8 2.1 1 4.8-1 4.8-4.7 0 1 0 2.1 1.1 3.7-1.1 1-2.1 3.7-4.8 4.7-4.8 2.1-6.9 1-6.9 4.7 0 2.1 4.8 2.1 8.5-1 4.8-4.7 8.5 3.7 3.7 5.8-1.1 1-3.7 0-4.8-1-5.8-1-5.8 3.7 0 6.8l132.2 90.5 123.2-86.9c1.1-1 2.1-2.1 4.8-3.7l8.5 1s-2.1-2.1-1.1-4.7c1.1-2.6 5.8-4.7 16.4-2.1-3.7-4.7-4.8-5.8-4.8-5.8-3.7-1-5.8 1-9.5 1 0-1-1.1-1-2.1-1l-2.1-2.1s0 1-2.1 3.7c-4.8 1-10.6 2.1-9.5-1 0-3.7 1.1-3.7 4.8-3.7 1.1 0 3.7 0 5.8-1 0 0 1.1 0 1.1-1 0 1 1.1 2.1 3.7 1s2.1-3.7 1.1-6.8c1.1 2.1 5.8 5.8 6.9 4.7s-1.1-4.7-4.8-6.8c0 0 6.9 0 6.9-3.7s-6.9-1-8.5 0c1.1-2.1 1.1-6.8-1.1-6.8-2.1 0-3.7 4.7-2.1 6.8-1.1-4.7-5.8-6.8-6.9-4.7-1.1 2.1 2.1 5.8 4.8 6.8-5.8 1-6.9 5.8-12.7 4.7 3.7-2.1 4.8-5.8 2.1-6.8-1.1-2.1-5.8-1-6.9 3.7 0-3.7-2.1-4.7-3.7-3.7-1.1 1 0 3.7-1.1 4.7h1.1c3.7 0 1.1 4.7-2.1 8.4 3.7-3.7 9.5-4.7 9.5-2.1 1.1 2.1-3.7 5.8-9.5 4.7 4.8 1 6.9 4.7 4.8 6.8-2.1 2.1-5.8 0-6.9-4.7 1.1 4.7-2.1 8.4-4.8 8.4-3.7 0-4.8-2.1 2.1-9.4-4.8 4.7-9.5 4.7-9.5 2.1 0-2.1 3.7-4.7 9.5-4.7-3.7 0-6.9-3.7-3.7-6.8 2.1-1 5.8-1 5.8 4.7 0-2.1 0-4.7 1.1-5.8 2.1-3.7 2.1-8.4 1.1-9.4-1.1 2.1-5.8 2.1-5.8 2.1-4.8 2.1-4.8 5.8-5.8 1-1.1-3.7 3.7-3.7 5.8-3.7l1.1 2.1c5.8-3.7 8.5 2.1 17.4-1 4.8-1 5.8-3.7 9.5-2.1-3.7-5.8-12.7-1-10.6-5.8 3.7-5.8 2.1-8.4-8.5-16.2 1.1 1 4.8 8.4 3.7 12.6-4.8-8.4-10.6-3.7-20.1-16.2 0 18.3 16.4 18.3 15.3 20.9 0 1-3.7 2.1-5.8 2.1v-1c0-1-2.1-5.8-6.9-6.8-3.7-1-6.9 1-9.5 3.7-3.7 4.7-15.3 3.7-12.7-1 1.1-1 3.7 0 4.8-1-1.1 0 0-1-2.1-2.1 1.1 0 2.1-1 2.1-1-1.1 0-2.1 0-2.1-1 0 0 2.1 0 2.1-1 0-2.1-4.8-1-3.7-2.1 2.1-1 0-3.7-1.1-3.7-2.1 1-4.8 2.1-6.9 2.1 0 0 4.8-2.1 6.9-6.8-3.7 0-2.1-3.7-1.1-3.7-4.8 0-8.5 8.4-10.6 8.4 2.1-4.7 2.1-8.4 2.1-10.5-2.1 1-4.8 5.8-5.8 8.4 0 2.1-2.1 2.1-2.1 0-1.1-4.7-3.7-6.8-4.8-6.8-1.1 1-1.1 3.7-1.1 6.8-1.1-3.7-2.1-4.7-3.7-5.8-4.8 4.7-4.8 10.5-4.8 10.5 1.1-2.1 3.7-2.1 4.8-2.1 2.1 1 0 4.7-4.8 5.8 3.7-1 8.5-1 8.5 1s-3.7 3.7-8.5 0c3.7 2.1 3.7 5.8 1.1 6.8s-4.8-1-3.7-5.8c-1.1 4.7-4.8 5.8-5.8 5.8-2.1-1-2.1-3.7 4.8-6.8-4.8 1-8.5 0-8.5-1 0-2.1 4.8-2.1 8.5-1 0.1-3.1-0.9-6.7 1.2-7.8z m-29.1-29.8c1.1 2.1-3.7 4.7-3.7 4.7l8.5 3.7s0-3.7 1.1-4.7c2.1-3.7 10.6 1 17.4 5.8-2.1-5.8-4.8-10.5-4.8-10.5-3.7-3.7-10.6 0-11.6-1v-3.7s-2.1 2.1-3.7 2.1c-2.1-1-5.8-6.8-10.6-6.8 0 0-4.8 2.1-9.5 3.7 0.5-1.7 14.8 2 16.9 6.7z m60.8-15.2c2.1-1 5.8-1 5.8 0 0 2.1-2.1 2.1-5.8 1 2.1 1 4.8 3.7 2.1 4.7-1.1 1-3.7 0-4.8-3.7 0 3.7-1.1 4.7-3.7 4.7-1.1-1-1.1-3.7 1.1-4.7-3.7 1-5.8 1-5.8 0 0-2.1 1.1-3.7 5.8-1-3.7-1-4.8-3.7-3.7-4.7 1.1-1 3.7 1 4.8 3.7 0-2.1 1.1-4.7 3.7-3.7 4.2 0 4.2 2.6 0.5 3.7zM55.83795 420.5c5.8 14.1 17.4 9.4 17.4 10.5 0 2.1-5.8 4.7-5.8 4.7l2.1 2.1c2.1-4.7 6.9-1 12.7-5.8 2.1-2.1 3.7-4.7 5.8-4.7-4.8-3.7-10.6 2.1-9.5-1 1.1-5.8 0-6.8-10.6-9.4 1.1 1 5.8 4.7 6.9 8.4-6.3-3.8-9 2.5-19-4.8z" fill="#0AA1E5"/>
  <path d="M167.53795 636.3c0 8.8-4.2 17.7-13.7 17.7-11.1 0-14.8-9.4-14.8-17.7 0-8.8 3.7-17.7 14.8-17.7 9.5 0.1 13.7 9.4 13.7 17.7z m-33.8 21.4h4.8v-7.8c2.6 5.7 8.4 9.4 15.3 9.4 13.2 0 19-10.4 19-22.3s-6.3-22.3-19-22.3c-6.3 0-12.7 3.1-14.8 9.4V600h-5.3v57.7z m74.5-16.7c0 6.8-5.8 13-14.8 13-4.8 0-9.5-3.1-9.5-7.8 0-9.9 7.9-10.4 16.4-12 3.2-0.5 6.9-2.1 7.4-2.6l0.5 9.4z m-27-19.2s6.9-2.6 15.3-2.6c6.3 0 10.6 1.6 10.6 5.7 0 3.1-3.2 4.2-13.2 5.7-9.5 1.6-15.8 5.2-15.8 14.6 0 8.3 6.9 13.5 14.8 13.5s12.7-3.6 15.3-8.3v7.3h4.8V628c0-11.4-7.9-13.5-15.8-13.5-10 0-16.4 3.1-16.4 3.1l0.4 4.2z m-141 35.9h9.5v-24.9c0-6.2 4.2-10.9 10.6-10.9 5.3 0 7.9 2.6 8.4 9.4v26.5h9.5v-28.6c0-9.4-5.8-14-15.3-14-5.8 0-10 2.1-12.7 5.2v-19.7h-9.5v57.2h-0.5z m47-34.9h23.2l-23.8 28.1v6.8h37.5v-7.3H99.43795l23.8-28.1v-6.8h-36v7.3z m134.2 34.9h5.3v-24.4c0-8.3 5.3-14.6 13.2-14.6 8.4 0 10.6 5.2 10.6 12.5v26h5.3v-27c0-9.9-3.7-16.1-15.3-16.1-5.8 0-11.6 3.6-13.7 8.3V615h-5.3v42.7z m42.7 0h5.3v-16.1l7.9-6.8 16.9 22.9h6.9l-19.5-26.5 18-15.6h-6.9l-23.2 20.3v-36.4h-5.3v58.2zM727.43795 639.7l-3.7 11.6h-8.4l14.2-42.1h9.5l14.2 42.1h-8.4l-4.7-11.6h-12.7z m11.5-6.3l-4.7-16.3-4.7 16.3h9.4z m247-24.3h8.4v24.8c0 8.4 3.7 11.6 8.4 11.6 5.8 0 9.5-3.7 9.5-11.6v-24.8h8.4v24.8c0 12.6-6.8 18.4-16.3 18.4s-16.3-5.8-16.3-18.4v-24.8h-2.1z m-30.5 36.4c6.8 0 11.6-6.8 11.6-16.3 0-8.4-3.7-15.3-11.6-15.3s-11.6 6.8-11.6 16.3c0 7.9 3.2 15.3 11.6 15.3z m-20-15.3c0-12.6 8.4-22.1 20-22.1 12.6 0 20 9.5 20 21.1 0 13.7-8.4 22.1-20 22.1s-20-9.5-20-21.1zM892.33795 608h8.4v17.5H918.03795v-17.4h8.4v42.1H918.03795v-18.4h-17.3v18.4h-8.4V608z m-41.5 38.5l22.1-31.6h-20v-6.8h30.5v4.7l-21 31.6h22.1v6.8h-33.6v-4.7z m-9.4-20v22.1c-2.1 1.1-8.4 2.1-14.2 2.1-6.8 0-12.6-2.1-16.3-5.8-3.7-3.7-5.8-9.5-5.8-15.3 0-14.2 9.5-22.1 23.1-22.1 4.7 0 9.5 1.1 11.6 2.1l-1.1 6.3c-2.1-1.1-4.7-2.1-9.5-2.1-9.5 0-15.2 5.8-15.2 15.3s5.8 15.3 15.2 15.3c2.1 0 4.7 0 5.8-1.1v-10.5h-8.4v-6.3H841.43795z m-160.3-17.4v16.3h17.3V608h8.4v42.1h-8.4v-18.4h-17.3v18.4h-8.4V609h8.4z m-59.9 0h24.7v5.8h-16.3v11.6h15.2v5.8h-15.2v17.4h-8.4v1.6-42.2z m-29.9 36.4c6.8 0 11.6-6.8 11.6-16.3 0-8.4-3.7-15.3-11.6-15.3s-11.6 6.8-11.6 16.3c-0.5 7.9 4.2 15.3 11.6 15.3z m-20-15.3c0-12.6 8.4-22.1 20-22.1 12.6 0 20 9.5 20 21.1-0.5 13.7-8.4 22.1-20 22.1s-20-9.5-20-21.1z m-53.6 21.1v-42.1h6.8v20l14.2-20h9.5L534.03795 627.6l15.2 23.2h-9.5l-10.5-17.4-4.7 6.8v10.5h-6.8v0.6z m-79.9-11.6l-3.7 11.6h-8.4l14.2-42.1h9.5l14.2 42.1h-8.4l-4.7-11.6h-12.7z m10-6.3l-4.7-16.3-4.7 16.3h9.4z m-50.9 12.1h4.7c4.7 0 9.5-2.1 9.5-6.8 0-4.7-4.7-6.8-9.5-6.8h-4.7v-0.5 14.1z m0-31.6v11.6h3.7c5.8 0 8.4-2.1 8.4-5.8 0-3.7-3.7-5.8-8.4-5.8h-3.7z m17.3 33.7c-2.1 2.1-8.4 3.7-16.3 3.7h-9.5v-43.2H400.03795c5.8 0 9.5 1.1 11.6 2.1s4.7 4.7 4.7 8.4-2.1 6.8-6.8 9.5c4.7 1.1 8.4 4.7 8.4 10.5-0.5 4.2-1.6 6.9-3.7 9z m83.5-38.5h6.8v42.1h-8.4l-18.4-31.6v30.6h-6.8v-42.1h9.5l17.3 29v-28z m296.9 0v42.1h-8.4l-17.3-31.6v30.6H762.03795v-42.1h9.5l17.3 29v-27.9h-1.1 6.9z m-221.2-65.3h-17.3l6.8-55.8h17.9l-7.4 55.8z" fill="#717071"/>
  <path d="M582.43795 459.1h17.3v28.6h15.2l8.4 39v-68h17.3v28.6h15.2l10.5 39v-68h18.4v124.1h-18.4v-40.5h-15.2l-10.5-39v79.5h-17.3v-40.5h-15.2l-8.4-39v26.5c0 16.1-3.7 39-16.3 51.9H565.03795l1-1c10.5-14 16.3-30.1 16.3-47.3v-73.9h0.1zM434.03795 541.2l-6.3-17.7v58.7h-18.4v-60.8L396.83795 563h-15.2l23.1-73.7h-18.4v-11.4h23.1v-18.8h18.4v18.7h13.1v11.4h-10.5l18.4 51.9H434.03795z m20.5-33.8c0-9.3 2.1-14 9.4-14h39.3c8.4 0 10.5 4.7 10.5 11.4v64.4h8.4v11.4h-16.3c-6.8 0-10.5-2.1-10.5-11.4v-64.9h-23.1v41.5c0 10.4-2.1 26.5-9.4 35.8h-18.4l1-1c5.8-9.3 9.4-20.8 9.4-32.2v-41h-0.3z m16.2-48.3h19.9l2.1 11.9h29.4v11.4h-76.6V471h27.8l-2.6-11.9zM802.23795 497v16.1h33.6V497h-33.6z m0-24.9v14h33.6v-14h-33.6z m32.5-11.4h11.5c5.8 0 8.4 3.6 8.4 9.3v55h-27.8l9.4 18.2 4.7-11.4h17.3L845.73795 562l9.4 19.7h-18.4L806.43795 524h-5.2v46.2h16.3v11.4h-24.6c-8.4 0-9.4-3.6-9.4-10.4V470c0-6.8 3.7-9.3 9.4-9.3h41.8z m-56.1 61.8v11.4h-21v39h17.3v9.3h-24.6c-5.8 0-10.5-3.6-10.5-10.4v-37.9h-14.2v-11.4h14.2v-16.1h-12.1v-4.7h-6.8l14.1-43.6h16.3l-3.7 11.4h32.5v11.4h-36.2l-4.7 12.5h40.9v11.4h-21v16.1H779.03795v1.6h-0.4z m127.9 59.7v-43.6h-18.4l33.6-45.7h21l-17.3 23.9v65.4h-18.9z m43-119.4h69.8v14h-69.8v-14zM1024.03795 510h-15.2v59.7c0 5.7-2.1 12.5-11.5 12.5h-32.5v-12.5h23.1V510h-45.1v-12.5h81.3V510h-0.1z m-116.4-8.3h-21l30.4-41h19.9l-29.3 41z" fill="#717071"/>
</svg>
