<svg viewBox="0 0 1024 1024" xmlns="http://www.w3.org/2000/svg" height="1em" width="1em">
  <path d="M524.688 568.61h16.786v-50.791h17.272v50.79h17.025v-66.524h17.253v25.26h30.022v17.065h-30.022v24.2h41.38v17.067H524.687v-17.068zm68.644-107.575-3.904 5.055c11.772 16.296 28.014 28.762 48.706 37.443-3.7 6.823-6.917 12.808-9.588 17.929-20.956-12.035-37.218-26.021-48.848-41.955-10.903 16.026-27.407 30.758-49.535 44.222-2.206-4.17-5.523-9.974-9.953-17.408 23.22-11.763 40.494-26.86 51.802-45.286h21.32zm89.457 2.24h17.307v104.229h15.182v-104.23h17.082v71.666c6.44-14.301 12.732-30.82 18.846-49.511l15.301 7.286c-6.01 16.79-13.197 35.007-21.576 54.626l-12.57-6.562v26.725h34.146v18.173H649.33v-18.173h33.46v-26.25l-13.299 6.36c-6.478-20.593-12.955-39.512-19.454-56.755l14.231-7.287c6.843 17.153 13.016 33.673 18.52 49.581v-69.879zm137.456 28.298h-21.923a171.136 171.136 0 0 1-3.81 9.682h21.964v14.974h-9.509v13.39h12.8v14.978h-12.8v19.34c3.452-2.284 6.92-4.681 10.45-7.148.16 5.564.603 11.4 1.306 17.485-13.14 9.322-20.5 15.11-22.106 17.373l-8.464-13.12c2.347-3.37 3.53-7.42 3.53-12.193v-21.737h-13.156V529.62h13.156v-13.39h-4.414a133.805 133.805 0 0 1-4.992 8.483c-1.567-8.122-3.092-15.202-4.574-21.22 6.74-13.956 11.514-28.343 14.34-43.204 9.79 2.307 14.725 3.46 14.804 3.46a330.135 330.135 0 0 1-3.59 12.984h16.99v14.84zm64.432 43.76 9.203 14.542-19.947 11.382c5.897 5.397 13.38 9.1 22.44 11.11a454.242 454.242 0 0 0-9.366 17.069c-11.656-4.221-20.76-10.5-27.329-18.853-.08 3.455-.122 6.254-.122 8.398-15.123 5.398-25.808 10.116-32.073 14.16l-7.238-14.023c2.292-3.612 3.428-8.152 3.428-13.616V466.26h64.754v69.073h-3.75zM839.65 493.13h33.586v-10.45H839.65v10.45zm0 25.376h33.586v-10.45H839.65v10.45zm4.113 16.42h-4.113v34.332a392.646 392.646 0 0 0 14.927-6.494c-4.655-7.718-8.265-17.02-10.814-27.839zm40.67.746h-24.63c1.566 5.326 3.492 10.053 5.821 14.18a474.126 474.126 0 0 0 18.808-14.18zm50.824-75.382a437.318 437.318 0 0 1 14.108 11.47c-8.227 10.859-19.165 22.467-32.813 34.804-2.909-4.961-6.38-10.22-10.476-15.728 13.185-11.382 22.9-21.556 29.18-30.546zm21.571 26.869V469.99h61.201v17.167h-61.2zm-19.032 7.463 13.808 9.944a207.703 207.703 0 0 1-11.333 16.781v68.809H923.89v-48.9a272.025 272.025 0 0 1-11.33 11.62c-1.572-4.961-3.726-11.099-6.483-18.436 12.116-11.778 22.683-25.05 31.72-39.818zm15.3 13.435H1024v17.183h-18.526v42.549c0 7.035-1.482 12.424-4.42 16.144-2.96 3.721-7.133 5.773-12.545 6.178-5.392.384-13.4.656-24.02.791-1.095-5.818-2.576-11.974-4.38-18.49 8.23.608 14.716.924 19.48.924 5.775 0 8.655-3.404 8.655-10.193V525.24h-35.148v-17.183zm-714.262 78.367V458.05h21.644v128.373h-21.644zm50.752-128.373h39.627c30.296.082 45.231 11.64 45.273 33.586-.042 13.94-6.147 23.197-18.972 28.603l-1.223.507 1.266.38c13.752 4.14 22.1 15.313 22.1 30.02-.026 23.49-15.74 35.214-48.992 35.277h-39.079V458.05zm35.382 71.587h-13.88v38.447h15.654c9.824 0 16.877-1.307 21.528-4.25 4.67-2.93 6.844-7.984 6.844-14.274-.046-17.43-14.79-19.88-30.146-19.923zm7.076-53.273h-20.956v34.982h12.107c8.322 0 15.71-.296 21.06-2.705 5.43-2.387 8.748-7.035 8.73-15.248-.045-14.895-14.77-17.03-20.94-17.03zm166.508-18.314c-6.772 7.099-57.683 60.857-57.683 60.857s55.233 59.999 62.175 67.516h-29.918c-2.803-3.188-50.13-57.86-50.13-57.86v57.86H401.54V458.05h21.456v51.923s45.174-49.05 47.873-51.923h27.683z" fill="#004898"/>
  <path d="M47.71 419.365c-5.292 2.649-9.256 7.201-11.11 12.85L1.145 538.891c-1.872 5.59-1.435 11.641 1.211 16.943 2.666 5.278 7.208 9.244 12.793 11.124l116.305 39.096c5.647 1.86 11.652 1.42 16.944-1.228 5.3-2.67 9.256-7.224 11.11-12.851l35.48-106.64c3.875-11.62-2.44-24.223-14.05-28.103L64.653 418.155c-5.628-1.877-11.634-1.461-16.944 1.21" fill="#FEFEFE"/>
  <path d="M104.547 521.826c-6.316 7.075-14.193 12.768-23.325 16.296l-5.23 2.043v-49.447l5.172 2.007c9.151 3.502 17.048 9.177 23.383 16.208 4.521-7.282 7.316-15.73 7.896-24.89 1.44-23.7-13.378-45.442-33.763-53.018l-16.776-5.59c-7.59-2.525-15.656 1.648-18.159 9.223L8.191 541.42c-2.543 7.593 1.712 15.813 9.316 18.32l80.705 26.973a53.325 53.325 0 0 0 14.337-33.318c.73-11.539-2.29-22.431-8.002-31.569zm-46.645-34.05v55.414h-8.004v-55.414h8.004z" fill="#00A4E2"/>
  <path d="m178.374 464.364-74.077-24.78c9.943 10.89 16.025 25.366 16.07 41.224 0 12.56-3.899 24.536-10.694 34.594 6.82 9.992 10.753 21.969 10.8 34.53 0 14.98-5.397 28.753-14.34 39.435l27.822 9.301c7.605 2.547 15.635-1.644 18.154-9.24l35.582-106.744c2.52-7.571-1.729-15.813-9.317-18.32zm-19.637 78.638-10.004.023-20.593-27.689 20.93-27.727 10.063-.02-20.926 27.79 20.53 27.623z" fill="#004898"/>
  <path d="M99.9 515.402c-4.502-5.302-9.963-9.743-16.238-12.977v26.04c6.275-3.278 11.753-7.765 16.24-13.063" fill="#E7390E"/>
</svg>
