<svg viewBox="0 0 1024 1024" version="1.1" xmlns="http://www.w3.org/2000/svg" height="1em" width="1em">
  <path d="M0 0m224 0l576 0q224 0 224 224l0 576q0 224-224 224l-576 0q-224 0-224-224l0-576q0-224 224-224Z" fill="#FFFFFF"/>
  <path d="M636 636.092l-4.828-61.364-108.648-31.908 50.7-100.64-50.7-46.636-96.58 54L389.728 344H326.96l-26.56 112.908-103.82-51.544-43.46 49.092 55.532 98.18L100 591.908l4.828 63.82 108.648 34.36-48.288 98.184 45.876 46.64L310.056 776l33.8 108h21.728l43.46-2.456 31.388-108 96.576 49.092 48.288-51.544-57.944-95.728L636 636.092z m-94.972 138.928c2.42 2.448 0 4.9-2.42 2.448l-150.04-127.344c-2.42-2.452-12.1-2.452-12.1 4.896l2.42 195.92c0 7.344-4.84 7.344-4.84 0l-9.68-102.86-7.256-88.16c-2.42-7.348-4.84-9.8-9.68-7.348l-133.1 132.244c-2.42 2.448-7.26 0-2.42-2.448l111.32-144.492c4.84-7.344 2.42-12.24-4.84-12.24l-186.34-2.452c-2.42 0-2.42-2.448 0-2.448l188.76-19.592c7.26 0 9.68-7.348 4.84-12.248l-130.68-142.04c-2.42-4.896 0-4.896 2.42-2.448l145.2 127.348c7.26 4.896 14.52 2.448 14.52-4.9l7.26-193.468c0-2.448 2.42-2.448 2.42 0l2.416 31.84 12.1 161.628c0 7.348 7.26 9.8 12.1 4.9l130.68-132.244c2.42-2.452 4.84 0 2.42 2.448l-116.16 146.936c-2.42 2.452-2.42 12.248 4.84 12.248l188.76 4.896c2.42 0 2.42 2.448 0 2.448l-193.6 17.144c-4.84 0-7.26 7.348-4.84 12.244l135.52 137.144z" fill="#F08300"/>
  <path d="M928 339.88l-7.4-46.52-86.348-14.692 32.072-78.352-41.94-29.384-71.544 48.972L718.3 144l-49.34 4.896-9.872 85.696-83.88-34.28-29.6 39.18 49.34 68.56L516 344.768l7.4 46.524 86.348 19.588-29.604 75.904 39.472 31.832L691.16 467.2l32.072 68.56V548l49.344-7.344 14.8-83.248 78.948 29.38 32.072-41.624-49.344-68.56L928 339.88z m-61.356 113.64c2.472 2.452 0 4.904-2.472 2.452l-123.628-85.832c-2.472-2.452-9.892 0-7.416 4.904l14.832 147.14c0 4.904-2.472 4.904-4.944 0l-24.724-127.52-2.472-12.264c-2.472-7.356-4.948-7.356-7.42-4.904l-91.48 107.904c-2.476 2.452-4.948 0-2.476-2.452l76.648-117.712c2.472-4.904 0-9.808-4.944-9.808l-143.408 12.26c-2.472 0-2.472-2.452 0-2.452l143.408-29.428c7.416-2.452 7.416-7.36 2.472-9.808l-113.736-93.188c-2.472-2.456 0-4.908 2.472-2.456l118.68 83.38c7.42 4.904 12.364 2.452 9.892-4.904l-9.888-147.14s2.472-2.452 2.472 0l19.78 115.26 4.944 29.428c0 4.904 7.416 7.36 9.892 2.452l91.48-107.904c0-2.452 2.476 0 2.476 2.456l-76.648 117.708c-2.476 2.456 0 9.812 4.944 7.36l145.88-9.812c2.472 0 2.472 2.452 0 2.452l-145.88 26.976c-4.944 0-4.944 7.36-2.472 9.812l113.736 95.64z" fill="#FDD000"/>
</svg>
