<svg viewBox="0 0 1024 1024" version="1.1" xmlns="http://www.w3.org/2000/svg" height="1em" width="1em">
  <path d="M552.892 479.667c6.978 4.638 13.956 8.116 20.934 12.753l8.141-13.912c-19.771-9.275-34.89-20.869-48.847-34.781l2.326-2.32v-2.318H513.35c-18.608 17.39-37.216 31.303-56.988 42.897l9.305 13.913 20.934-13.913v9.275h24.423v12.753h-41.868v13.913h41.868v28.984h-8.141l-12.793-24.347-15.12 5.797 9.305 17.39H459.85v13.913h122.117v-13.912h-24.423l9.304-17.391-15.12-5.797-13.956 24.347h-9.304v-28.984h41.869v-13.913h-41.869v-12.753h24.424v-11.594z m-32.565-2.318h-29.075c10.467-6.957 19.771-15.072 29.075-24.347v1.16c9.304 8.115 18.608 16.23 30.239 23.187h-30.239z m429.153-31.304h67.455v15.072H949.48v-15.072z m-329.133 63.766h17.445v-51.012c2.326-3.479 4.652-5.797 6.978-9.275 1.163-1.16 2.326-3.479 3.489-4.638l-3.49-2.319-10.466-5.797s-18.609 25.507-33.728 38.26l8.141 12.753c3.49-3.478 8.141-6.956 11.63-11.594v33.622z m320.992-62.606l-15.12-9.275s-2.326 3.478-8.14 9.275c-5.816 5.797-13.957 13.912-23.26 19.71l10.466 12.752c4.652-4.637 9.304-6.956 12.793-9.275 8.141-5.797 15.12-12.753 23.26-23.187z m3.489 34.781v15.072h39.542v42.897c0 5.797-1.163 8.115-9.304 8.115h-20.934l5.815 13.913h17.445c15.12 0 23.26-6.956 23.26-23.188v-41.737h22.098v-15.072h-77.922z m-52.336 26.666l5.815 15.071c4.652-2.318 9.304-5.796 12.793-9.274v47.534h17.445v-63.766c4.653-5.797 9.305-11.593 15.12-18.55l-15.12-8.115c-1.163 0-4.652 4.637-10.467 12.753-6.978 8.115-16.282 18.55-25.586 24.347z m-218.647-2.32H656.4v13.913h-54.662v12.753H656.4v30.144h17.445v-30.144h53.499v-12.753h-53.499v-13.912z m198.876 15.073l-8.141-11.594-20.935 13.912c-3.489-4.637-5.815-9.274-8.14-15.071h33.727v-64.925H799.45v100.865l-3.49 6.956 5.816 12.754 23.26-9.275 13.956-5.797-4.652-10.435c6.978 9.275 17.445 17.391 32.565 23.188l8.14-11.594c-9.303-4.637-16.281-9.275-22.096-15.072l19.77-13.912z m-56.988-64.925h38.38v11.594h-38.38V456.48z m0 86.953v-35.94h2.326c0 1.159 2.326 6.956 5.815 15.071 2.326 4.638 4.652 9.275 9.304 13.913l-8.14 3.478-9.305 3.478z m0-49.853v-12.753h38.38v12.753h-38.38z m-53.499-54.49l15.12 3.477c-1.163 3.478-2.326 5.797-3.49 9.275h18.609v12.753h-23.26c-1.164 3.479-2.327 6.957-4.653 10.435h25.587v13.912h-11.63v15.072h13.956v13.913h-13.956v18.55l9.304-3.479 8.14 11.594-30.238 18.55-8.14-11.594 2.325-4.637v-28.984h-12.793v-13.913h12.793v-15.072h-4.652c-2.326 2.319-3.489 4.638-4.652 6.957l-10.467-9.275c10.467-16.232 22.097-47.535 22.097-47.535z m-77.895-2.32v19.867l32.735-17.53 7.015 11.687-39.75 21.034v9.703c0.007 3.458 0.195 7.826 5.846 7.826h15.363a7.502 7.502 0 0 0 7.502-7.501v-10.35l15.806 0.322v17.718c0 8.286-6.717 15.003-15.004 15.003h-35.358c-8.184 0-11.692-7.011-11.692-12.854v-9.35l-17.536 9.35-2.339-4.675-3.507-8.18 3.507-2.337 19.875-10.518V436.77h17.537zM672.648 658.737h11.691v-15.17h-12.86V635.4h12.86v-3.5c0-4.668-2.338-7.001-7.015-7.001h-5.845v-8.168h7.015c12.86 0 15.198 8.168 15.198 17.503v32.672h-21.044v-8.168z m81.838 8.168h-9.353v-30.339c0-12.79-9.353-14.043-25.72-9.376v39.715H708.89v-47.883c5.845-3.5 15.198-5.793 22.213-5.793 8.184 0 15.198 1.167 21.044 8.168 2.338 3.5 2.338 7.001 2.338 10.502v35.006z m49.103-1.167l-18.706-22.17-5.845 5.834v17.503h-11.692v-67.678h11.692v37.34l21.044-21.004h12.86l-21.044 21.003 24.551 29.172h-12.86z m-130.941-40.84h-17.537l1.17-8.168h16.367v8.168z m0 18.67h-1.17c-10.521 0-14.029 8.167-9.352 12.835 1.17 2.334 5.846 2.334 10.522 2.334v8.168h-1.17c-11.69 1.166-19.874-3.5-21.043-15.17 0-11.668 11.69-16.336 17.537-16.336h4.676v8.168z m-58.473 16.33c4.677 0 7.6-0.374 10.522-2.337 2.923-1.962 4.677-4.673 4.677-9.347 0-4.674-1.17-7.01-4.677-9.347-3.507-2.337-5.845-2.337-10.522-2.337v-8.179h1.17c3.507 0 6.43-0.733 9.352-2.337 2.923-1.603 3.508-4.673 3.508-8.179 0-3.505-1.17-5.716-3.508-8.052-2.338-2.337-4.676-2.337-9.353-2.337h-1.169v-7.066h1.17c8.183 0 14.029 0.416 17.536 3.435 3.507 3.018 5.846 7.01 5.846 11.684 0 8.178-4.677 12.852-11.692 15.189 3.508 1.168 5.725 1.82 9.353 4.674 3.629 2.853 4.677 5.842 4.677 10.515 0 8.179-2.338 12.853-7.015 16.358-5.845 3.505-11.691 5.842-19.875 5.842v-8.179zM493.773 598.06v52.509c0 11.668-8.184 16.336-19.875 16.336h-17.537l2.339-14.003h10.522c2.338 0 4.676-1.167 4.676-4.667V598.06h19.875z m120.42 1.167v8.168h-12.861v21.003h12.86v8.168h-12.86v23.337h12.86v8.168H590.81v-67.677h23.382v-1.167z m-83.008 0v25.67h22.213v-25.67h18.706v67.678h-18.706v-26.838h-22.213v26.838h-18.706v-67.678h18.706z" fill="#003D73"/>
  <path d="M231.306 565.063l-2.083-26.427-46.887-13.742 21.88-43.34-21.88-20.084-41.677 23.255-15.628-45.454H97.94l-11.462 48.626-44.802-22.199-18.755 21.141 23.964 42.284L0 546.036l2.084 27.484 46.886 14.799-20.838 42.283 19.796 20.084 42.72-25.37 14.586 46.512h9.377l18.755-1.057 13.545-46.512 41.677 21.142 20.838-22.199-25.006-41.226 46.886-16.913z m-40.983 59.832c1.044 1.054 0 2.109-1.045 1.054l-64.748-54.843c-1.044-1.055-5.222-1.055-5.222 2.11l1.045 84.374c0 3.164-2.089 3.164-2.089 0l-4.177-44.297-3.133-37.968c-1.045-3.164-2.089-4.219-4.178-3.164l-57.438 56.952c-1.044 1.055-3.133 0-1.044-1.054l48.04-62.226c2.088-3.164 1.044-5.274-2.09-5.274l-80.413-1.055c-1.044 0-1.044-1.054 0-1.054l81.458-8.438c3.133 0 4.177-3.164 2.089-5.273l-56.394-61.171c-1.045-2.11 0-2.11 1.044-1.055l62.66 54.843c3.133 2.11 6.266 1.055 6.266-2.11l3.133-83.319c0-1.054 1.044-1.054 1.044 0l1.044 13.711 5.222 69.609c0 3.164 3.133 4.219 5.222 2.11l56.393-56.953c1.045-1.055 2.089 0 1.045 1.054l-50.128 63.281c-1.044 1.055-1.044 5.273 2.089 5.273l81.457 2.11c1.044 0 1.044 1.054 0 1.054l-83.546 7.383c-2.089 0-3.133 3.164-2.089 5.274l58.483 59.062z" fill="#F08300"/>
  <path d="M357.587 437.263l-3.19-20.012-37.209-6.32 13.821-33.705-18.073-12.64-30.831 21.066L267.22 353l-21.263 2.107-4.252 36.865-36.147-14.746-12.757 16.852 21.262 29.492-34.02 15.8 3.19 20.012 37.209 8.426-12.758 32.652 17.01 13.693 30.831-22.12 13.821 29.493v5.266l21.263-3.16 6.379-35.811 34.02 12.64 13.82-17.907-21.262-29.492 34.02-15.799z m-26.44 48.886c1.066 1.055 0 2.11-1.065 1.055l-53.275-36.923c-1.066-1.055-4.262 0-3.197 2.11l6.393 63.296c0 2.11-1.065 2.11-2.13 0l-10.656-54.857-1.065-5.274c-1.066-3.165-2.131-3.165-3.197-2.11l-39.423 46.417c-1.065 1.055-2.13 0-1.065-1.055l33.03-50.637c1.065-2.11 0-4.22-2.131-4.22l-61.799 5.275c-1.065 0-1.065-1.055 0-1.055l61.799-12.66c3.196-1.054 3.196-3.164 1.065-4.219l-49.012-40.088c-1.066-1.055 0-2.11 1.065-1.055l51.144 35.868c3.196 2.11 5.327 1.055 4.262-2.11l-4.262-63.296s1.065-1.055 1.065 0l8.524 49.582 2.131 12.66c0 2.11 3.197 3.164 4.262 1.054l39.424-46.417c0-1.055 1.065 0 1.065 1.055l-33.03 50.637c-1.066 1.055 0 4.22 2.13 3.165l62.865-4.22c1.066 0 1.066 1.055 0 1.055L283.2 440.786c-2.131 0-2.131 3.165-1.066 4.22l49.013 41.143z" fill="#FDD000"/>
</svg>
