<svg viewBox="0 0 1024 1024" xmlns="http://www.w3.org/2000/svg" height="1em" width="1em">
  <path d="M470.41 551.3h-14.694c5.649-9.771 9.414-20.424 11.263-31.967h11.863c-1.05 12.112-3.87 22.757-8.432 31.968zm-4.932-58.834c-1.123-4.56-3.927-10.57-8.402-18.025H470.1c3.638 5.533 6.44 11.537 8.401 18.025h-13.023zm.753 22.786c-1.36-5.134-4.068-11.37-8.135-18.705h12.202c4.068 6.849 6.917 13.081 8.544 18.705h-12.61zM487 486.412v-12.65h54.482v12.65h-20.87v53.286h24.207v11.943h-61.895v-11.943H507.5v-53.286H487zm69.042 65.229v-60.535h14.964v60.535h-14.964zm18.025-65.297h-12.969c-1.452-4.26-3.358-8.451-5.736-12.583h13.563c2.406 4.263 3.844 8.452 5.142 12.583zm35.018 64.947V539.05h8.832c3.577 0 5.24-1.576 4.986-4.73v-48.207h-44.075v-12.692h57.124v65.136c.252 8.73-4.222 12.976-13.433 12.734h-13.434zm105.702-23.659s8.094 9.444 21.16 16.413v7.596c-25.885-8.86-42.057-24.455-48.526-50.28-2.288 4.028-5.298 8.042-8.641 11.717v23.046c-.245 3.156 1.353 4.733 4.78 4.733h8.47v10.46h-12.885c-8.831.24-13.122-4.008-12.882-12.742v-14.139c-5.336 4.51-9.991 7.347-17.377 11.442v-8.694c14.352-11.036 24.446-23.07 30.306-36.098h-15.064v9.648h-12.422V478.95h32.217c.26-.503.518-1.264.78-2.279.355-.524.78-1.635 1.265-3.249h13.145c-.013.073-.03.131-.045.212-.775 2.53-1.3 4.309-1.555 5.316h36.105v21.785h-12.035v-9.648h-28.629c-1.262 2.982-2.712 5.659-4.368 7.996h8.959c2.388 12.691 11.427 22.382 11.427 22.382s10.086-7.026 12.639-17.755h12.034c-3.625 12.665-18.858 23.923-18.858 23.923zm142.117-38.859s-1.15 4.522-1.455 5.053h-11.694c1.726-4.35 3.629-11.769 6.663-20.065l10.64.04c-.33 1.425-.957 3.993-1.227 5.156h13.512v9.816h-16.44zm6.88 17.49v10.135h9.899v10.05h-9.899v3.065h.033v6.998c-.233 3.14 1.29 4.71 4.562 4.71h5.304v10.41h-9.518c-8.423.239-12.517-3.987-12.287-12.681v-9.437h.03v-3.065h-8.153v-10.05h8.153v-10.136h-8.153v-9.035h29.553v9.035h-9.524zm51.248 28.397c3.39 3.45 8.045 6.759 13.745 9.49v7.491c-15.825-5.129-27.917-15.96-33.669-32.988h10.347c1.429 4.585 4.112 7.795 6.016 11.171 4.042-2.895 5.34-4.878 6.198-11.171h10.55c-2.855 8.451-6.05 12.871-13.187 16.007zm-25.49-35.942v7.785h21.298c3.939 0 5.912-1.446 5.912-4.328v-3.457h-27.21zm0-7.591h27.21v-7.85h-27.21v7.85zm.023 45.337c-.222 3.15 1.238 4.724 4.377 4.724h6.825v10.443H889.9c-8.082.242-12.009-4-11.787-12.723v-1.004h-.01v-64.143h49.302v30.667c.259 8.24-4.082 12.246-13.018 12.002H889.54v13.013h.023v7.02zm-86.395-47.545h-24.802c.745 3.604 1.194 4.882 3.057 7.526h18.688c1.251-1.037 2.282-3.842 3.057-7.526zm9.014 7.526h18.297v42.611c.252 8.632-3.896 12.825-12.46 12.574h-7.127v-10.38h2.456c3.633.248 5.317-1.143 5.06-4.194v-30.6h-8.573c.566 2.08 5.205 3.217 5.205 3.217v4.171c-11.107 0-14.896-7.388-14.896-7.388H781.59s-3.79 7.388-14.896 7.388v-3.658s4.816-1.482 5.21-3.73h-9.166v45.186h-12.064v-55.196h18.686c-1.273-2.48-1.617-3.679-2.357-7.526H750.57v-9.91h33.193v-5.248h14.405v5.249h32.299v9.91h-16.11c-.513 3.861-1.011 5.288-2.175 7.525zm-34.208 26.323v10.55h21.664c1.45 0 2.176-.629 2.176-1.876v-8.674h-23.84zm-8.7 18.67v-26.866h41.49v20.894c0 3.984-2.175 5.972-6.526 5.972h-34.964zm201.331-44.891H1024v12.35h-10.559v30.44c0 7.974-4.016 11.964-12.033 11.964h-16.007v-12.194h10.367c3.508 0 5.265-1.45 5.265-4.351v-25.86h-30.427v-12.349zm3.741-9.863v-12.583h45.912v12.583h-45.912zm-33.668 2.247c7.968-5.513 13.896-14.997 13.896-14.997s4.12-.173 13.99-.173c-11.086 18.093-27.886 25.167-27.886 25.167v-9.997zm13.896 7.79s4.12-.174 13.99-.174c-2.472 4.056-5.234 7.534-8.025 10.536h.02c-.106.108-.196.243-.301.349v44.209h-11.333v-34.548c-4.793 3.28-8.247 4.757-8.247 4.757V511.8c7.968-5.546 13.896-15.08 13.896-15.08z"/>
  <path d="M29.822 470.34h19.83v61.13c0 10.081-12.411 23.175-28.762 22.507C4.54 553.31 0 550.264 0 550.264v-20.513s5.146 3.357 15.29 3.357c14.017.139 14.532-8.708 14.532-8.708v-54.06zm179.993 35.299c4.66 0 8.438-3.808 8.438-8.504 0-4.7-3.778-8.51-8.438-8.51h-22.81v17.014h22.81zm9.32 16.547L242.482 554H217.8l-30.692-43.004V554h-22.166v-83.66h45.81l.2.07c14.141.607 25.427 12.32 25.427 26.724a26.753 26.753 0 0 1-17.244 25.05zm100.206 2.768v20.357c-7.711 5.014-17.176 8.01-27.447 8.01-25.79 0-46.692-18.652-46.692-41.662 0-23.007 20.902-41.659 46.692-41.659 10.271 0 19.736 2.996 27.447 8.01v20.357c-5.32-7.021-14.697-11.699-25.41-11.699-16.598 0-30.049 11.188-30.049 24.991 0 13.806 13.45 24.991 30.049 24.991 10.713 0 20.09-4.675 25.41-11.696zm54.042 11.184c4.669 0 8.453-3.808 8.453-8.5 0-4.698-3.784-8.502-8.453-8.502h-21.16v17.002h21.16zm-21.16-48.71v17.001h18.603c4.671 0 8.453-3.808 8.453-8.5 0-4.696-3.782-8.502-8.453-8.502h-18.604zm42.705 22.97c4.954 4.595 8.074 11.159 8.074 18.468 0 13.884-11.19 25.135-24.995 25.135-1.072 0-2.122-.088-3.159-.221v.22h-44.964v-83.66h44.964c13.806 0 24.996 11.253 24.996 25.137 0 5.596-1.84 10.747-4.916 14.92z" fill="#04346E"/>
  <path d="M105.451 483.413 83.357 471 62 482.089v59.339l21.358 11.083.267-.148v-39.378h.104v-18.243l21.723 11.12 21.725-11.12v18.243h.105v39.38l.262.146 21.362-11.082v-59.34l-21.362-11.088z" fill="#DD1916"/>
  <path d="m127.177 528.775-21.725-11.128-21.725 11.128-.105 23.589 21.83-12.262 21.83 12.264z" fill="#8F151B"/>
</svg>
