<svg viewBox="0 0 1024 1024" xmlns="http://www.w3.org/2000/svg" height="1em" width="1em">
  <path d="M224 0h576c123.6 0 224 100.4 224 224v576c0 123.6-100.4 224-224 224H224C100.4 1024 0 923.6 0 800V224C0 100.4 100.4 0 224 0z" fill="#FFF"/>
  <path d="M480 176c130 0 235.6 124.4 235.6 278 0 39.6-7.2 77.2-19.6 111.2 4.8-16.8 7.6-34.4 7.6-52.8 0-104-84.4-188-188.4-188-56 0-106.4 24.4-141.2 63.6l-16 15.6v.4L172 586.4V394.8l162.8-156.4C360 211.2 414 176 480 176zm34.8 250 77.2 77.6-77.6 77.6-77.2-77.6 77.6-77.6z" fill="#F8A700"/>
  <path d="M544.8 850C415.2 850 310 725.6 310 572c0-39.6 6.8-77.2 19.6-111.2-4.8 16.8-7.6 34.4-7.6 52.8 0 104 84 188 187.6 188 56 0 106-24.4 140.4-63.6l16-15.6v-.4l185.6-182v191.6l-162 156c-25.2 27.6-78.8 62.4-144.8 62.4" fill="#00509E"/>
</svg>
