<svg viewBox="0 0 1024 1024" version="1.1" xmlns="http://www.w3.org/2000/svg" height="1em" width="1em">
  <path d="M0 0m224 0l576 0q224 0 224 224l0 576q0 224-224 224l-576 0q-224 0-224-224l0-576q0-224 224-224Z" fill="#FFFFFF"/>
  <path d="M172 421.96h51.068v51.068H172z" fill="#E74225"/>
  <path d="M172 486.468h51.068v51.064H172z" fill="#E096A5"/>
  <path d="M172 548.284h51.068v51.068H172z" fill="#E74225"/>
  <path d="M236.504 421.96h51.068v51.068H236.504z" fill="#E73E23"/>
  <path d="M236.504 486.468h51.068v51.064H236.504z" fill="#E73C22"/>
  <path d="M236.504 548.284h51.068v51.068H236.504z" fill="#E73E23"/>
  <path d="M298.324 421.96h51.068v51.068H298.32z" fill="#F9C053"/>
  <path d="M298.324 486.468h51.068v51.064H298.32z" fill="#E73E23"/>
  <path d="M298.324 548.284h51.068v51.068H298.32z" fill="#B50080"/>
  <path d="M360.144 421.96h51.064v51.068H360.144z" fill="#E73E23"/>
  <path d="M360.144 486.468h51.064v51.064H360.144z" fill="#E096A5"/>
  <path d="M360.144 548.284h51.064v51.068H360.144z" fill="#E84426"/>
  <path d="M615.48 421.96h51.064v51.068H615.48z" fill="#E73C22"/>
  <path d="M615.48 486.468h51.064v52.008H615.48v-52.008z m0 63.56h51.064v52.012H615.48v-52.008z" fill="#E74225"/>
  <path d="M677.296 421.96h51.068v51.068h-51.068z" fill="#E84A2A"/>
  <path d="M677.296 486.468h51.068v51.064h-51.068z" fill="#E74225"/>
  <path d="M677.296 548.284h51.068v51.068h-51.068z" fill="#B50080"/>
  <path d="M739.116 421.96h51.064v51.068H739.12z" fill="#F9C053"/>
  <path d="M739.116 486.468h51.064v51.064H739.12z" fill="#E73820"/>
  <path d="M739.116 548.284h51.064v51.068H739.12z" fill="#B50080"/>
  <path d="M800.932 421.96H852v51.068h-51.068z" fill="#900000"/>
  <path d="M800.932 486.468H852v51.064h-51.068z" fill="#E096A5"/>
  <path d="M800.932 548.284H852v51.068h-51.068z" fill="#E7351F"/>
  <path d="M424.648 800.932h52.008V852h-52.008v-51.068z m63.564 0h52.008V852h-52.008v-51.068z" fill="#E73E23"/>
  <path d="M550.972 800.932h51.068V852h-51.068z" fill="#009F46"/>
  <path d="M424.648 736.428h51.068v51.068h-51.068z" fill="#E73E23"/>
  <path d="M486.468 736.428h51.064v51.068h-51.064z" fill="#E096A5"/>
  <path d="M549.76 738.08h52.28v52.1h-52.28V738.08z m-127.8-60.784h52.28v52.1h-52.28v-52.1z" fill="#E73E23"/>
  <path d="M486.468 677.296h51.064v51.068h-51.064z" fill="#E7351F"/>
  <path d="M550.972 677.296h51.068v51.068h-51.068z" fill="#B50080"/>
  <path d="M424.648 612.792h51.068v51.064h-51.068z" fill="#E84D2C"/>
  <path d="M486.468 612.792h51.064v51.064h-51.064z" fill="#900000"/>
  <path d="M550.972 612.792h51.068v51.064h-51.068z" fill="#E84A2A"/>
  <path d="M615.48 736.428h52.008v51.068H615.48v-51.068z m63.56 0h52.012v51.068H679.04v-51.068z" fill="#E84426"/>
  <path d="M615.48 677.296h51.064v51.068H615.48z" fill="#E096A5"/>
  <path d="M677.296 677.296h51.068v51.068h-51.068z" fill="#E84A2A"/>
  <path d="M739.116 677.296h51.064v51.068H739.12z" fill="#F29600"/>
  <path d="M615.48 612.792h51.064v51.064H615.48z" fill="#E74225"/>
  <path d="M677.296 612.792h51.068v51.064h-51.068z" fill="#E73C22"/>
  <path d="M739.116 612.792h51.064v51.064H739.12z" fill="#E73E23"/>
  <path d="M424.648 357.456h51.068v51.064h-51.068z" fill="#900000"/>
  <path d="M486.468 357.456h51.064v51.064h-51.064z" fill="#E096A5"/>
  <path d="M550.972 357.456h51.068v51.064h-51.068z" fill="#E73E23"/>
  <path d="M424.648 295.64h51.068v51.064h-51.068z" fill="#E84A2A"/>
  <path d="M486.468 295.64h51.064v51.064h-51.064z" fill="#900000"/>
  <path d="M550.972 295.64h51.068v51.064h-51.068z" fill="#E84426"/>
  <path d="M424.648 233.82h51.068V284.88h-51.068z" fill="#E096A5"/>
  <path d="M486.468 233.82h51.064V284.88h-51.064z" fill="#E73E23"/>
  <path d="M550.972 233.82h51.068V284.88h-51.068z" fill="#B50080"/>
  <path d="M236.504 357.456h51.068v51.064H236.504z" fill="#E84426"/>
  <path d="M298.324 357.456h51.068v51.064H298.32z" fill="#E74225"/>
  <path d="M360.144 357.456h51.064v51.064H360.144z" fill="#E73820"/>
  <path d="M236.504 295.64h51.068v51.064H236.504z" fill="#E74225"/>
  <path d="M298.324 295.64h51.068v51.064H298.32z" fill="#E73E23"/>
  <path d="M360.144 295.64h51.064v51.064H360.144z" fill="#B50080"/>
  <path d="M298.324 233.82h51.068V284.88H298.32z" fill="#E84426"/>
  <path d="M360.144 233.82h51.948V286.16H360.144V233.82z m378.088 125.044h51.948v52.344h-51.948V358.864z" fill="#E73C22"/>
  <path d="M739.116 295.64h51.064v51.064H739.12z" fill="#E84A2A"/>
  <path d="M677.296 357.456h51.068v51.064h-51.068z" fill="#E73E23"/>
  <path d="M677.296 295.64h51.068v51.064h-51.068z" fill="#B50080"/>
  <path d="M677.296 233.82h51.068V284.88h-51.068z" fill="#E73C22"/>
  <path d="M615.48 357.456h51.064v51.064H615.48z" fill="#E096A5"/>
  <path d="M615.48 295.64h51.064v51.064H615.48z" fill="#E73E23"/>
  <path d="M615.48 233.82h51.064V284.88H615.48z" fill="#E84426"/>
  <path d="M360.144 736.428h51.064v51.068H360.144z" fill="#E84A2A"/>
  <path d="M360.144 677.296h51.064v51.068H360.144z" fill="#F29600"/>
  <path d="M360.144 612.792h51.064v51.064H360.144z" fill="#E74225"/>
  <path d="M298.324 736.428h51.068v51.068H298.32z" fill="#E84A2A"/>
  <path d="M298.324 677.296h51.068v51.068H298.32z" fill="#900000"/>
  <path d="M298.324 612.792h51.068v51.064H298.32z" fill="#E7351F"/>
  <path d="M236.504 677.296h51.068v51.068H236.504z" fill="#E84729"/>
  <path d="M236.504 612.792h51.068v51.064H236.504z" fill="#E73C22"/>
  <path d="M424.648 172h51.068v51.068h-51.068z" fill="#E84426"/>
  <path d="M486.468 172h51.064v51.068h-51.064z" fill="#E84A2A"/>
  <path d="M550.972 172h51.068v51.068h-51.068z" fill="#E73820"/>
</svg>
