<svg style="width:1.0029296875em;height:1em;vertical-align:middle;fill:currentColor;overflow:hidden" viewBox="0 0 1027 1024" xmlns="http://www.w3.org/2000/svg" height="1em" width="1em">
  <path d="m.9 538.6-.9-.7c4.9-4.9 10.4-9.9 13.9-13 38.1-33.6 87.6-42.1 110.5-18.9 22.9 23.2 10.5 69.2-27.7 102.8-4.9 4.3-9.9 8.2-15.1 11.6H48.4c6.5-4.4 13-9.3 19.2-14.9 39.1-34.5 55.9-77.4 37.6-96-18.3-18.6-64.9-5.7-104 28.7l-.3.4zm3.4 45.1c12.1-9.7 28.1-26.1 33.5-48.1.4-1.7 2.3-2.8 5.5-1.1 3.1 1.6 17.1 7 39.7-1.6 2.1-.8 4.8.3 1.1 3.8-3.6 3.5-18.9 19.6-29.6 51.7-.9 2.8-4.1 2.4-5.9 1.7-8.5-3.3-20.1-8.4-42.6-2.2-3.1 1-5.1-1.9-1.7-4.2z" fill="#0061AE"/>
  <path d="M129 584.3c8.8-12.7 15.7-28.7 17.1-48.2.3-4.6 3.2-3.6 5.8-3.1 4.5.8 17.3 2.7 37.8-7.7 1.8-.9 5.4-.2 2.5 4.2-3 4.4-11.2 16.2-13.5 47.5-.2 2.5-2.9 2.1-3.7 1.8-.7-.2-21.4-4.2-43.2 8-2 1-4.2-.3-2.8-2.5zm-57.1-95.5c-1.2.3-1.7-.7-.6-1.6 18.1-15.8 23.2-37 23.6-40.7.5-4 2.1-3.7 4.4-2.8 15.2 6.5 28.6 4.3 34 3.1 5.9-1.4 8.3-.2 4.6 4.3-11.8 14.1-14.8 32.7-15.5 39-.2 2.1-2.1 1.8-3.1 1.4-13-7.2-34.9-7-47.4-2.7zM154 520c-3.4 3.2-6.9 6.2-10.4 9-.5-8.6-3.1-16.4-7.7-23 29-33 39.3-69.3 22.5-85.2-19-18-64.6-3.6-102.2 32.1-.5.5-2.1 2.1-3.9 4l-.9-.6c5.9-6.7 12.8-13.9 16.9-17.8 36.7-34.9 85.7-45 109.4-22.5 23.6 22.5 13 69.1-23.7 104zm27.6-24.5c23.5-5 45-1 57.2 12.9 21.5 24.3 6.6 69.8-33.2 101.6-4.8 3.8-9.8 7.3-14.8 10.4H155c7.4-4.3 14.7-9.4 21.9-15.1 40.8-32.6 59.9-74.8 42.7-94.3-8.5-9.7-24.3-11.9-43-7.9 1.7-2.5 3.4-5 5-7.6z" fill="#009794"/>
  <path d="M766.1 601.4h11c4.3 0 7.1-.7 8.4-2 1.3-1.3 3.6-4.3 3.6-9.1 0-4.4-.8-7.3-2.3-8.8-1.5-1.4-6.3-2.2-10.9-2.2h-9.8v22.1zm0-23.8h8.7c4.5 0 9.1-.6 10.5-1.8 1.4-1.2 2.1-4.1 2.1-8.2 0-4.5-2.2-7.2-3.5-8.2-1.2-1-4.5-1.5-9.7-1.5h-8.1v19.7zm-19.2 23.8h4.7v-43.6h-4.7v-2.2h34.4c6.4 0 11.5 1 15.2 3.1 3.7 2.1 5.6 4.9 5.6 8.4 0 2.9-1.5 5.3-4.4 7.1-3 1.8-5.8 3-11.6 3.7v.6c6.7.4 10.1 1.7 13.5 3.7 3.4 2 5.1 4.8 5.1 8.3 0 4.1-2.1 7.3-6.4 9.7-4.3 2.4-10.1 3.6-17.5 3.6h-33.7v-2.4zm83.2-13.6H849l-9.5-19.5-9.4 19.5zm-16.4 16v-2.4h3.8c1 0 1.9-.3 2.5-.8.7-.5 1.4-1.5 2.1-2.9l21.2-43.1h3.7l23.2 46.7h5.5v2.4h-29.9v-2.4h9.6L850 590h-20.9l-4.1 8.2c-.1.1-.2.4-.2.7 0 .3-.1.7-.1 1.1 0 .4.3.7.7 1 .5.2 1.2.3 2 .3h5.5v2.4h-19.2zm70.6 0v-2.4h4.8c1.2 0 2.1-.2 2.6-.6.5-.4.7-1.2.7-2.5v-37.9c0-1-.3-1.7-.8-2-.5-.3-1.6-.5-3.3-.5h-3.8v-2.2h22l28.9 31v-25.1c0-1.5-.3-2.4-.9-2.9-.6-.5-1.8-.7-3.7-.7h-4v-2.2h19.7v2.2H943c-1.5 0-2.6.2-3.2.7-.6.5-.9 1.4-.9 2.8V605h-2.5l-40.3-43.3v37.2c0 .8.3 1.5.9 2 .6.5 1.5.7 2.6.7h5.5v2.4h-20.8zm98.6-26.3 22-17.3c.4-.3.7-.6.8-.8.2-.2.2-.4.2-.6 0-.2-.1-.4-.4-.6-.3-.2-.6-.3-1-.3h-6.3v-2.1h22.7v2.1h-3.8c-1.8 0-3.4.2-4.7.7-1.3.5-3 1.5-4.9 3L993.1 573l24.5 28.4h9.8v2.4h-32.9v-2.4h7.5l-19.1-22.2v-1.7zm-24.2 23.9h8.7v-43.6h-8.7v-2.1h30.8v2.1h-8.8v43.6h8.8v2.4h-30.8v-2.4zm-648.2 4v-47.7h-7.8v-2.2h30.2v2.2h-7.8v36.2c0 5.7-2 10.3-6.1 13.8-4 3.5-8.8 5.2-15.5 5.2-3.5 0-6.3-.8-8.5-2.2-2.2-1.5-3.3-3.4-3.3-5.7 0-1.6.6-3 1.9-4 1.3-1.1 2.8-1.6 4.6-1.6 2 0 3.5.5 4.7 1.5 1.2 1 1.8 2.3 1.8 3.9 0 .8-.3 1.7-.9 2.6-.6.9-.9 1.5-.9 1.8 0 .3.2.6.6.9.4.2.9.4 1.6.4 1.3 0 3.3-.4 4.1-1.3.9-1.2 1.3-2.3 1.3-3.8zm355.1-1.2v-2.4h8.8v-44h-8.8v-2.2h31.1v2.2h-8.5v44h8.5v2.4h-31.1zm-212 0v-2.4h4.8c1.2 0 2.1-.2 2.6-.6.5-.4.7-1.3.7-2.5v-38.3c0-1-.3-1.7-.8-2.1-.5-.3-1.6-.5-3.3-.5h-3.8v-2.2h22l28.9 31.3v-25.4c0-1.5-.3-2.5-.9-2.9-.6-.5-1.8-.7-3.7-.7h-4v-2.2h19.7v2.2h-3.6c-1.5 0-2.6.3-3.2.8-.6.5-.9 1.5-.9 2.9v43.9h-2.5l-40.3-43.8v37.6c0 .8.3 1.5.9 2 .6.5 1.5.7 2.6.7h5.5v2.4h-20.7zM399.3 588h18.8l-9.5-19.7-9.3 19.7zm-16.4 16.2v-2.4h3.8c1 0 1.9-.3 2.5-.8.7-.5 1.4-1.5 2.1-2.9l21.2-43.5h3.7l23.1 47.3h5.5v2.4H415v-2.4h9.6l-5.4-11.4h-20.9l-4.1 8.3c-.1.1-.2.4-.2.7 0 .3-.1.7-.1 1.1 0 .4.3.7.7 1 .5.2 1.2.3 2 .3h5.5v2.4h-19.2zm-39.4 0v-2.4h8.8v-44h-8.8v-2.2h31.1v2.2h-8.5v44h8.5v2.4h-31.1zm243.8-16.4h-6.8v.6c0 5.3-1 9.4-5.4 12.4s-10.4 4.5-18.2 4.5c-3.1 0-6-.3-8.7-.9-2.7-.6-5.1-1.5-7.4-2.8-4.6-2.5-8.1-5.6-10.5-9.3-2.4-3.7-3.7-7.8-3.7-12.4 0-3.5.9-6.8 2.6-10 1.7-3.1 4.3-6 7.7-8.6 2.9-2.2 6.1-3.9 9.5-5.1 3.4-1.2 7-1.7 10.8-1.7 3.1 0 5.9.3 8.3.9 2.5.6 4.6 1.6 6.5 2.9l3.5-2.9h2.8l.5 14.1h-3.4c-1.6-4.2-3.9-7.3-6.8-9.5s-6.4-3.2-10.4-3.2c-3 0-5.4.4-7.2 1.2-1.8.8-4.6 2.1-5.5 3.8-.7 1.3-1.2 3.1-1.5 5.5-.3 2.4-.4 7.1-.4 14.2 0 10 .8 16.1 2.3 18.3 1.5 2.2 5.9 3.3 10.3 3.3 3 0 5.3-.5 6.9-1.6 1.6-1 3.3-2.5 3.3-4.5v-9.2h-8.9v-2.3h29.8v2.3zm7.7 16.4v-2.4h4.5c1.3 0 2.3-.1 3-.4.7-.3 1.6-1.1 2.8-2.4l14.5-17-18.6-24.1H595v-2.2h29.9v2.2l-7.5.5 10.9 14.6 11.3-13.2s.1-.1.1-.2c.3-.3.4-.6.4-.8 0-.3-.1-.5-.5-.7-.3-.1-.8-.2-1.4-.2h-5.9v-2.2h20.9v2.2h-4.1c-2 0-3.4.2-4.1.5-.8.3-1.6 1-2.5 2l-12.7 14.5 21 27.6 6.2-.5v2.4h-29.6V602h7.4l-13.5-17.7-12 14.6c-.2.3-.5.6-.6 1-.1.4-.2.7-.2.9 0 .4.2.7.6.9.4.2 1 .3 1.8.3h5.3v2.4H595zm94.1-176.7c1.4-2.3 1.7-2.8 2.3-7.9.2-1.8.5-3.2 1.3-4.4.9-1.2 2.3-1.9 4.6-1.9 1.4 0 3.3.5 4.9 1.3 1.5.8 2.7 1.8 3.1 3.1.8 2.4-.2 5.4-1.1 7.8 2.5.2 6.1.5 6.2.5 2.4.2 9.8-1.1 15.4-2.2 3.2-.6 5.9-1.1 6.8-1.1 1.4 0 3.7.5 5.8 1.3 2.1.8 4 1.8 4.7 2.7.3.4.5 1 .7 1.8.2 1.1.3 2.7 0 4.1-.3 1.6-1 3.1-2.3 4-.6.4-1.3.7-2.1.9-1.3.3-3.4.1-5.8-.1-3-.3-6.6-.6-9.7-.1-2.2.3-4.5.8-6.6 1.2-3.9.8-7.3 1.4-9.2 1.2-2.1-.3-4.7.5-5.1.7-.2.1-.4.1-.6.2-1 .3-3.2 1.1-4.8 2.4-2.8 2.4-4.1 3.8-5.5 5.3.9-.3 2-.6 3.4-.8 3.6-.4 8-.8 12.5-1 5-.3 10-.5 14-.6h.1c1.1.1 2.6.1 4.4.1 5.2.1 12.2.2 13.9 1.4h.1c1.1.9 1.8 1.8 2.1 2.7.5 1.5.1 2.8-1 4-.9 1-2.2 1.9-3.6 2.6-3.9 2-9.3 3.2-11 3.2-.5 0-4.4.7-7.5 1.5-1.5.4-2.6.4-2.9.5 0 .3-.1.7-.2 1.1-.4 2.3-1.1 6.1-.7 8.4.2.9.6 1.5 1.4 1.4 3.8-.7 8.2-2 8.7-2.1h.1c3.9-1.4 8.6-3.2 12.9-1.8 1.5.5 2.5 1.4 3.2 2.5.5 1 .7 2.2.6 3.5-.1 1.2-.6 2.4-1.4 3.5-1.3 1.8-3.4 3.3-6.3 3.9-1.3.3-6.3 1.1-10.3 1.7-2.3.3-4.3.6-5.2.5l-3.6.8c-.1 1.2-.3 2.3-.5 3.3-.4 2.6-.8 4.9-.3 8.2.1.8.1 1.6 0 2.2 0 .7-.1 1.3.1 1.5l.1.1.1.1c.3.4 4.8-2.5 10.3-4.8 7.4-3 15.4-6.3 16.6-5.5l.3.3c.6.7.7 2.3.3 4.2-.4 1.7-1.2 3.7-2.5 5.6-.7 1.1-1.6 2.1-2.7 3.1-7.2 6.2-15.3 10.6-23.8 15.3-3.9 2.1-7.9 4.3-12 6.8-3.6 2.2-6.9 2.8-9.4 2.4-1.3-.2-2.5-.7-3.3-1.4-.9-.7-1.5-1.7-1.8-2.8-.3-1.3 0-2.7.8-4.1.7-1.2 1.6-2.6 2.5-4 3.2-5.1 6.8-10.8 7-13.7v-.2l.1-.2c.6-1.6 2.3-7.3 2.9-11.5.3-1.9.4-3.4.2-3.5 0 0-.9.2-2 .5-.9.2-2 .5-3.1.7-.4.1-.8.1-1.3.1-.7 0-1.4.1-2.6.3-.5.1-1.4.4-2.4.8-2.1.8-4.6 1.7-5.8 1.3-2.1-.7-3.1-2.3-3.6-4.2-.4-1.7-.4-3.6-.3-5.1 0-.6.3-2 .7-3 .4-.9.9-1.6 1.7-1.9h.1c2.3-.9 2.7-1 5.4-.9 1.7.1 5.6.1 8.7-.2 1.8-.2 3.3-.5 3.7-.9.2-.2.4-.6.5-.9.2-.6.3-1.3.3-1.5-.3-2.5-.1-3.1.4-5.3l.1-.5c0-.6.2-1.3.4-2 .1-.4.2-.7.3-1l-3.9.4c-.1 0-.2.2-.7.4-2.6 1.4-8.6 4.5-12 .9-.8-.9-1.4-1.9-1.9-3-.4-1.1-.7-2.3-.7-3.5 0-1 .3-2.3.7-3.4.5-1.3 1.2-2.5 1.8-2.8.2-.1.3-.2.5-.2l-1.4.4c-2.9.9-5.5 1.1-7.6.9-2.6-.3-4.4-1.3-5.2-2.8-3.7-7 .7-9.3 6.3-12.4 1.6-.9 3.3-1.8 4.9-2.9l1.2-.8c.8-.6 1.2-.8 1.5-1.1.2-.3.5-.8 1-1.7.3-.6.8-1.4 1.4-2.5.6-.5.9-1 1.2-1.4zm62.2 6.9c.2-4.2.5-8.7.7-11.1.1-.9.3-1.7.7-2.4.3-.6.7-1 1.2-1.3.5-.3 1.2-.4 1.9-.4.6.1 1.3.3 2.1.7 1.3.7 5.4 2 9.4 3.1 3.6 1 7 1.9 8.1 1.9 3.9 0 6.7-.1 9.4-.5s5.3-1.1 8.9-2.4c2.9-1.1 8.8-2 14.2-2.8 1.3-.2 2.5-.4 3.8-.6 3.2-.5 5.6.6 7.4 2.5 1.7 1.8 2.8 4.4 3.5 7 .8 2.9.4 5.7-.7 8.3-1 2.5-2.6 4.8-4.2 7s-2.3 2.8-3.6 4l-.7.7c-1.2 1.1-.9 4.9-.8 5.2 0 .2.1.8.2 1.4.7 3.7 1.9 10.7.6 13.1-3.6 6.6-5.3 7.1-9.4 8.6-1.3.5-2.9 1-4.9 1.9-1.1.5-1.2 1.3-.8 2.3 1.3 2.8 6 6.7 9.5 9.6 2.1 1.7 3.8 3.2 4.4 4 1.6 2.5 4.6 4.9 8.1 6.6 3.4 1.6 7.3 2.6 10.8 2.4 2.8-.1 3.1 0 5.3.9.6.3 1.4.6 2.3.9 2.8 1.1 2.7 2.8 2.7 5 0 2.3-1.2 3.5-3.4 3.9-2.3 1.9-4.3 3.9-6 5.6-1.6 1.6-3 3-4.5 4.2-4.6 3.6-8.5 3.9-14.8-4.2-1-1.3-2-4.3-2.9-7-.4-1.3-.8-2.5-1.2-3.3-1.5-3.7-2.9-5.5-4.6-5.9-1.7-.4-3.8.6-6.6 2.8l-.1.1-.2.1s-6.5 2.6-13.4 4.8c-.5.1-1.1.3-1.9.6-4 1.2-10.7 3.3-12.1 5.2-.4.5-2.6 2.6-4.8 4.4-1.7 1.4-3.5 2.8-4.4 3.3-.3.1-.6.3-.9.5-4.7 2.5-8.5 4.6-11.8-1.4-.9-1.7-.6-7.4-.2-9.7.3-1.1.9-2.5 1.8-4 .8-1.4 1.7-2.8 1.7-3.5 0-7.1.4-14.3.9-21.6.7-12.3 1.5-24.6.1-36.7-.1-.8-.2-1.3-.3-1.7-.2-.7-.3-1.4-.5-3.4-.2-2.1-.1-5.3 0-8.7zm14.2 65.1c-.2.4-.2.8-.2 1.1 0 .5.4.8.9 1.1.8.4 1.8.5 3 .6 2.7.1 5.8-.4 7.4-.9 1.2-.4 7.5-3 12.3-5.2 2.7-1.2 4.9-1.5 4.8-1.8-.1-.5-.2-.9-.3-1.4-.7-2.1-2.3-3.7-4.1-4.7-1.9-1-4.1-1.3-6.1-1-.5.1-.9.2-1.4.3l-.4.1c-7.5 2.7-13.3 4.7-15.9 11.8zm-.5-27.4c.1 3.9.8 10.4 1.1 12.3.7-.2 4.3-3 7.6-5 2.5-1.5 4.6-2.7 5.5-3.1 4.1-1.4 7.1-2.7 10.2-4.2 1.4-.6 2.8-1.3 4.4-2h-1.5c-3.1-.1-6.5-.2-8.9.1-3.2.4-6.4.7-9.7 1.1-2.9.3-5.8.6-8.7.8zm2.9-17.3-1.5 7.3v.1h.3c.6.1 1.4.1 2.4 0 2.7-.3 5.9-1.3 7.1-1.7 1.3-.4 6.7-.5 11.9-.6 4.7-.1 9.2-.1 10.4-.4.8-.2 1.6-.5 2.2-1 .4-.4.7-.9.8-1.4.1-.6.2-1.1.4-1.5.1-.2.1-.4.1-.5 0-.2-.3.3-1.3.2-2-.1-5.4-.6-8.2-1-2.4-.3-4.4-.6-5-.6h-2.3c-7 .1-17.1 0-17.3 1.1zm-2.2-15.6c-.4 1 .6 1.8 2.4 2.5 4.5 1.7 13.1 2.2 21.1 1.6 7.8-.5 14.9-2 16.5-4.1.3-.5.1-1.1-1-1.9-.3-.3-.9-.5-1.5-.8-4-1.5-12.2-2.5-20.1-2.3-7.7.2-14.9 1.4-17 4.3-.2.2-.3.5-.4.7zM406.5 452c-.1-.9-.2-1.8-.3-2.9-2.5.2-6.1 1.5-8.6 1.6-2.9.1-5 .6-7.8.6-2.5.8-4.8 2.5-7 4.1-3.7 2.7-7.2 5.2-11.8 4-6.3-1.7-6.1-6.5-5.7-13.2.1-1.5.2-3.2.2-5 0-2.7.4-5 1.1-6.8.9-2.3 2.3-4 3.9-5 1.7-1.1 3.6-1.6 5.5-1.6 1.6 0 3.3.3 4.9 1 7.1 2.8 9.8 2.6 13.8 2.3 2.5-.2 5.5-.4 10.2-.1h.2c2.2.5 4.4.8 6.7.9 2.2.1 4.4-.2 6.5-.9 2.4-.8 8.6-1.6 15.3-2.3 9.2-.9 19.6-1.6 23-1.6 1.2 0 2.3.3 3.2.8 1.1.7 2 1.7 2.5 2.9s.8 2.6.8 4c0 2.4-.7 5.1-2.2 7.6-2.9 5-11.8 3.9-18.9 3-2.6-.3-4.9-.6-6.4-.5-1.1.1-2.2.1-3.1.1-3.9 0-5.8 0-9 5.7-1.3 4.5-3.8 21.4-4.7 28.9-.2 1.5-.3 2.8-.3 3.7 0 0 0 .1-.1.1 1.3.2 2.5.4 3.8.5 1.5.2 3 .3 4.6.3 2.6.3 7.3.3 11.7 1.8 1.5.8 3 1 3.8 1.3 1.2.5 3.6.6 6 .5 2.7-.1 5.3-.5 6.4-1.1 1.4-.7 3.4-3.3 5.1-5.6.7-.9 1.3-1.8 1.9-2.5 1.3-1.6 2.7-1.8 4.4-1.3.9.3 2.9 1.4 3.5 2 .7.8 1 1.7 1.2 3.3.2 1.7.1 3.8-.1 6-.5 5.3-1.9 11.4-3.8 14-.8 1.2-1.3 2.8-1.8 4.4-1 3.6-2.2 7.5-7.2 9.9-2.2 1-4.6.8-7-.3-2.8-1.2-5.5-3.4-7.3-5.5-3.7-4.3-13.2-6-24-6.2-15.3-.3-32.9 2.5-40.7 5.2-1.1 1.6-2.1 3.4-3.1 5.1-1.7 3-3.4 5.8-5.2 7.6-3.1 3-6.6 3.4-11.6-1.9-2.2-3.1 0-8 2.1-11.8 1.2-2.2 1.5-2.9 1.8-5.4 3.5-14.1 4.8-16.4 19.7-17.3 5.5-.3 11.3-.6 15.5-1.2.4-.1.6-.1.7-.1 1.9-.3 4.2-.6 4.8-2.6 3.9-12 3.9-18.7 2.9-30.5zm-48.8 43.8c-3.8 4-3.6 4.2-8.4 6.2-4.3 1.7-4.1.2-8.3 4.3-3.4 3.4-6.7 5.8-10.8 6.8-11.1 6.3-8.6 3-11.5 17.1-.9 4.6-19.7 5.9-19.7-8.4 0-11.4 3.2-21 11.9-23 0 0 2.2-.7 3.4-.5 6.5.9 6.8.9 12.4-2.8 4.4-2.9 13.2-9 17.9-9 1.2 0 2.7-.6 3.9-.6 2.3 0 8-2.3 9 0 1.3 3.1 1.6 8.5.2 9.9zm-17.3-17.1c-2.1.6-8.6 2.1-10.5 2.1-4.9 0-8.4-.8-13.2.2-1.2.3-3.1 2.4-4.1 2.9-1.7.8-3.6 1.2-5 2.5s-1.6 3.9-3.1 5.2c-1.3 1.1-3.3 2.2-4.8 1.6-2.1-.9-3-2.5-4.3-4.3-.6-.9.5-13.1 1.1-14.5 1.5-3.6 2.1-11.9 6.8-12.9 8-1.6 17.2-.4 25.2.8 5.5 0 9.9-.2 15.4-.8 0 0 13.7-1.5 14.6 2.8 1 4.9 1.1 7.2-2.3 9.8-4.5 3.6-10.6 3-15.8 4.6zm9.9-22.4c-3.3-.3-17-7.2-17.3-7.4-3.3-1.8-4-3.7-6.5-5.4-5.6-3.8-17.7 1.3-22.8-2-2.1-1.4-2.4-6.3-2-9.9.6-6.1 7.4-8.5 11.1-13.9 1.2-1.8.6-3.6 1.5-4.9 1.3-1.9 3.7-1.6 5.1.6 1.5 2.4.1 2.1 3.4 3.6 3.6 1.7 8.3 11.3 27.7 19.3 3.2 1.5 5.8 3.8 7.8 7.1 2.8 4.5-4.7 13.2-8 12.9zm572.9-14.5c-1.3.7-5.9.8-11.5.9-7.9.2-17.9.4-23.2 2-1.5.5-4.1 1.6-6.6 2.7-3.5 1.5-7 3-8.3 3.2-1.2.1-2.2-.1-3-.5-1.5-.7-2.4-2-2.8-3.6-.4-1.5-.5-3.2-.2-4.9.4-2.7 1.4-5.4 2.8-7.2.9-1.7 2.3-3.6 4-5.1 1.4-1.2 3-2.1 4.8-2.2 1.9-.1 3.1-.1 4.1 0 1 .1 1.8.3 2.6.5 5 1.7 8.7 1 12.8.2 2.6-.5 5.3-1 8.5-1 0 0 4.6.2 6.4 1.3 1.2.7 4.5.9 7.1 1.1 1.6.1 3 .2 3.6.4.1 0 .4.1.8.2s.7.1 1 .2c1.8.4 3.7 1.1 3.3 3-.4 1.8-.9 3.5-1.9 5-1.2 1.6-2.5 2.9-4.3 3.8zm5.3 19.3c1.4-1.7 3.3-3.6 4.9-4.9 1.5-1.2 3.6-2.1 6.1-2.7 2.4-.6 5.1-.9 7.8-1.1 4.4-.3 8 .1 12.1.5.8.1 1.7.2 2.4.3 19.9 2.5 28.2.8 36.3-2 5.3-1.8 10.7-6.5 19.6-5.4 5.3.9 5.8 3 6.1 6.8.1 1.2.1 2.5.1 3.8v1.1c-2.4 11.4-5.7 11.6-13.6 12.1-1.5.1-3.1.2-5 .4-4.9.5-9.8.7-14.8.9-5.2.2-10.5.4-16 1-.1 0 .2 6.1.4 9.6 0 1 .1 1.9.1 2.3 0 4.2.2 8.5.5 12.9.2 4.3.5 6.4.5 10.2 0 2.1.2 1.9.6 2.5.2.3 1.3 4.1 1.6 4.8.8 1.9 1 3.6.9 5.5v1.7c0 1.4-.9 2.9-1.4 4-.9 1.6-2.3 2.4-4 3-1.6.6-3.4.9-5.2.9-2.8 0-5.6-.7-7.1-1.5-5.1-2.9-4.5-7.2-3.9-11.6.2-1.4.4-2.7.4-4.1 0-2.5-.4-11.5-.4-11.6v-.1c.1-3.5.2-6.4.3-9.1.3-6 .6-10.8-.4-17.4 0-.2-.1-.4-.1-.6-.5-1.4-1.7-2.3-3.3-2.7-1.7-.5-3.6-.6-5.2-.3-.5.1-1 .2-1.3.3-1.6.5-2.3 1.6-3 2.8-.4.7-.8 1.4-1.4 2.1-1.4 1.6-3.2 2.8-5.1 3.5-2.2.9-4.6 1.2-6.9 1.2-1 0-1.7-.5-2.4-1.2-.5-.5-.8-1.2-1.1-1.7-1.1-2-1-7-.9-10.3v-1.7c-.2-1.3.6-2.8 1.8-4.2zm8.5-15.6s-4.2-.5-5.6-3.4c-.2-.4-.4-.8-.5-1.2-.8-2.5-.6-5.2.4-7.5s2.9-4.3 5.4-5.5c.5-.2.9-.4 1.4-.6 1.6-.5 2.5-1 3.2-1.3 1.4-.7 1.9-.9 4.6-.7 2.8.2 3.5 1.1 4.2 2 .5.6 1 1.3 4.1 1.5 8 .5 13.7-.6 19.1-1.6 4.1-.8 8-1.5 12.5-1.5.7 0 1.7-.1 2.8-.1 1.7-.1 3.9-.3 6-.3 5.9 0 12 1.1 12 6.6v.3c0 1.9.1 5.7-4 6.9-2.6.8-3.4.7-4.4.6-.7-.1-1.4-.2-3.5.3-1.1.3-2.1.5-3.1.8-4.6 1.1-9.7 2.4-14.1 2.4-3.6 0-7.2-.2-10.8-.5-3.4-.2-6.8-.4-10.2-.4-3.2.1-5.5.9-7.8 1.7-3 .9-6.2 2-11.7 1.5zm-47.3 14.6c2.7-.4 5-.9 5.4-1.2 1.6-1.3 5.1-2.6 9-3.7 4.4-1.2 9.2-2 11.9-2 5.2 0 5.3 6.7 5.4 10.8v1.4c.1 2.7-.7 5.5-1.5 8-.4 1.5-.9 2.8-1 3.9-.6 4.8-2 9.4-3.8 13.8-1.8 4.4-4.1 8.6-6.4 12.7-.1.3-.3.5-.5.7-3.4 5.2-12 10.5-21.1 13.6-9.2 3.1-19.1 4-25.2.5-.3-.1-.5-.3-.7-.4-1.1-.7-1.6-3.1-1.9-5.6-.2-2.3-.2-4.6-.2-5.7 0-1.8 1.1-3.3 2.6-4.4 2-1.5 4.7-2.5 5.9-2.6 1.1-.1 3.2.7 5.4 1.4 2 .7 4.2 1.5 5.2 1.5 10.6 0 12.7-3.2 17.6-10.8l.4-.7c1.1-1.7 2-2.8 2.8-3.7 1.1-1.2 1.9-2.2 3.1-4.9.5-1.3.9-2.6 1-3.7.1-.7 0-1.4-.3-1.9-.2-.5-.6-.9-1.3-1.2-.5-.2-1.1-.3-1.8-.4-4.2 0-8 .2-12 .4l-1.8.1c-2.3.1-3.9.2-5 .5-.9.3-1.5.8-1.9 1.7-.2.5-.4 1-.5 1.5-.4 1.3-.7 2.4-2.2 3.4-1.6 1.2-4 2.1-6.2 2.1-2 0-3.9-.7-5.2-2.3-1.9-2.3-2.2-4-2.7-6.1-.2-.8-.3-1.6-.7-2.6l-.3-1.2c-.4-2.7.3-5.9 1.9-8.6 1.6-2.7 4-4.9 7-5.8.4-.1.9-.2 1.4-.3 1.6-.2 2.9-.3 4-.1 1.7.2 2.8.6 3.4.9.4.2.8.6 1.1.9.4.4.8.9 1.5 1 1 0 4.8-.4 8.2-.9zM533.5 445c-9-3.9-16.6-.1-23.4 3.3-5.9 2.9-11.2 5.6-16.8 3.4-1.5-.6-2.7-1.5-3.6-2.7-1.9-2.5-2.7-6-2.6-9.8 0-3.6.9-7.5 2-10.6 1-2.7 2.4-4.9 3.8-6 3.2-2.5 5.9-.6 9 1.6 1.8 1.3 3.7 2.6 5.8 3l1.3.3c3.4.7 5 1 6.5 1 1.4 0 2.8-.2 5.6-.7.5-.1 1.1-.2 2.1-.4h.2c7.4-.3 14.9-.7 22.3-1.1 22.6-1.2 45.3-2.3 68-1.6h.1c3.3.3 11.3 1 19 .9 7.3-.1 14.3-1 15.8-3.6.8-1.3 2.3-2 3.9-2.1.9 0 1.8.1 2.6.4.9.3 1.7.9 2.3 1.6 1.1 1.3 1.7 3.1 1.1 5.4-.4 1.6-1 2.6-1.5 3.5-.4.7-.8 1.4-1 2.2-.1.4-.1.8-.2 1.2-.7 3-2.2 6.5-4.4 9-2.3 2.7-5.5 4.4-9.4 3.8-.2 0-.4-.1-.6-.1-1.7-.4-3.4-1.1-5.3-1.9-2.7-1.1-5.8-2.3-9.8-3-3.8-.7-10.9-1.2-19.1-1.2-6.7 0-14.2.2-21.1 1h-.1c-.4 0-1.5 2.9-2.5 5.9-.4 1.3-.8 2.6-1 3.7-.2.9-.3 1.7-.2 2.2 2.6.4 8.1.7 13.9.8 8.9.2 18.6.2 20.6 0 2.5-.3 4.1-1.8 5.6-3.3 1-1 1.9-1.9 3.1-2.6.5-.3 1-.5 1.5-.6 1.5-.4 3.1 0 4.5.7 1.3.7 2.5 1.7 3.2 2.9.3.5.5 1 .6 1.4 1.5 6.5.2 8.9-1.2 11.2-.7 1.2-1.4 2.4-1.4 4.3-.1 4.2-2.1 9.3-3.9 13.9-1 2.4-1.9 4.7-2.4 6.7-.5 1.9-.3 6.6 0 11.7.5 9 1.1 19.4-2.7 21.2-4.7 2.2-9.5-1.2-13.3-3.9-1.8-1.3-3.4-2.4-4.2-2.4-9.3 0-17.7-.5-26.1-.9-14-.8-27.6-1.5-44.6 0-4.2.6-7.3.7-13.6 4-.5.4-1.8 1.5-3.3 3-1.5 1.6-5.2 2.1-6.7 2.3-.8.1-1.6.1-2.4-.2-.7-.2-1.4-.6-2-1.2-1.2-1.1-2-2.8-2.3-5.1-1-6-1.8-25.1-1.3-40.1.3-9.4 1.6-17.4 4.7-19.9 1.4-1.1 3.6-2 5.8-2.3 2.1-.3 4.1-.1 5.3.9 1.7 1.4 2.5 2 3.2 2.2.6.2 1.3.2 2.6.1h1.8c.3 0 1.1 0 2.2.1 3.2.1 8.8-.6 8.9-1 .1-.8.2-1.7.3-2.5.7-5.2 1-7.3-5.2-10zm21.9 26.4-2.4 5.5c-2.4 5.8-5.8 9.9-9.3 12.6-4.3 3.4-9.1 4.7-13 4.5-5.2-.3-9-3.4-11.6-5.5.3 2.4.8 6 .9 8.5.2 4.8 1.2 6 4.3 5.9 1.4 0 3.4-.3 5.8-.7.7-.1 1.5-.2 2.5-.4 10.1-1.4 28.3-1.6 47.3-1.9 10.8-.1 21.9-.2 32-.6 1.4 0 1.7-4.6 1.9-8.8.1-2.4.3-4.6.7-6.2.5-1.7.8-2.7 1.1-3.6.7-2.3.9-2.7.7-7.9 0-.4.1-1 .2-1.8.2-1.7.6-4.2-.1-4.5-.6-.3-3-.3-5.8-.3-4.2 0-9.1.2-10.8.4-2.8.3-5.7.4-8.4.4-4.1.1-7.7.1-9.7 1.1-1.3.6-1.7 1.8-.6 4.2.4.9 1.1 2.1 1.8 2.9.7.7 1.4 1.2 2.2 1.1 5.8-.7 8.8-2.9 10.7-4.2.6-.4 1.1-.8 1.5-1 1.4-.7 2.9-1.1 4.4-1.1 1.2 0 2.3.3 3.2.9.9.6 1.6 1.6 1.9 3 .3 1.2.2 2.7-.4 4.6-.2.7-.4 1.3-.7 2-2 4.3-5.9 8.2-10.4 10.6-4.6 2.4-9.9 3.4-14.6 2-.6-.2-1.2-.4-1.8-.7-14.7-6.3-12.9-14.7-11.9-19.7.3-1.4.5-2.4.4-2.5-1.5-.7-3.7-.7-5.9-.3-2.2.3-4.4 1-6.1 1.5zm-31.2 6.5c6.4-.2 14.1-2.3 15.2-5.4.2-.6.2-.9.1-.9-.6-.2-1.9-.1-3.2.1-.5.1-1 .1-1.4.2-2.4.2-5.3.1-8.1 0-3.8-.2-5.4-.2-6.2.6-1.8 1.6-2.5 2.8-2.4 3.6.1.6.9 1.1 2.1 1.5 1.5.3 1.6.3 3.9.3zm29.3-21.7c2.3.1 6.6.1 10.4-.2 3-.2 5.6-.4 6.2-.8.2-.2.4-.4.6-.7 1.2-1.6 1.6-4.2 1.6-6.5s-.4-4.2-.8-4.7c-1.9-1.3-5-1.6-8.3-1.5-3.2.1-6.5.7-8.8 1.1-1.3 2.4-1.1 9.6-.9 13.3z" fill="#332C2B"/>
</svg>
