<svg viewBox="0 0 1024 1024" xmlns="http://www.w3.org/2000/svg" height="1em" width="1em">
  <path d="M224 0h576c123.6 0 224 100.4 224 224v576c0 123.6-100.4 224-224 224H224C100.4 1024 0 923.6 0 800V224C0 100.4 100.4 0 224 0z" fill="#FFF"/>
  <path d="M614.4 194c-29.2-9.2-65.6 16.4-98 17.6l8.4 223.6c.4 4 3.2 7.2 6.8 8.8 4.4 2 8.8.8 12-2.4l143.2-174.4c-26.4-18.8-40.8-62.8-72.4-73.2zm165.2 119.2c-18.8-25.2-62-26.4-89.2-43.2L562 455.2c-1.6 2.8-2 6.4-.4 10 1.6 4 5.6 6.4 10 6.4l223.6-56c-9.6-31.6 4-76-15.6-102.4zm17.6 107.2-216 72.8c-4 2-6.4 5.6-6.4 10s2.8 8.4 6.8 10.4l215.2 86.8c10-30 47.2-56.8 47.2-90s-34.8-60.4-46.8-90zm-350.4 72.8-216-72.8C218.8 450 184 477.2 184 510c0 33.2 37.2 60 47.2 90l215.2-86.8c4-1.6 6.8-5.6 6.8-10.4 0-4-2.4-8-6.4-9.6zM413.6 194c-31.6 10-46 54.4-72.4 73.6L484.4 442c3.2 3.2 8 4 12 2.4 3.6-1.6 6.4-4.8 6.8-8.8l8.4-223.6c-32.8-1.6-68.8-27.2-98-18zm-76.4 76c-27.2 16.8-70.4 18-89.2 43.2-19.2 26.4-6 70.4-16 102.4L456 472c4.4 0 8.4-2.4 10.4-6.4 1.6-3.2 1.2-6.8-.4-10L337.2 270z" fill="#ED9F2D"/>
  <path d="M514.8 528 232 608c8 31.6-4.4 73.6 13.6 99.2 19.2 26.8 66 27.2 92 46.4 26.4 19.6 40.8 64.8 72.8 75.2C441.2 839.2 479.6 812 514 812c33.2 0 70.4 27.2 100.4 17.6 31.6-10.4 46-54.8 72.4-74 26.4-19.2 73.2-19.2 92.4-45.6 19.2-26.4 5.6-71.2 16-103.2L514.8 528z" fill="#C60009"/>
</svg>
