<svg viewBox="0 0 1024 1024" xmlns="http://www.w3.org/2000/svg" height="1em" width="1em">
  <path d="M224 0h576c123.6 0 224 100.4 224 224v576c0 123.6-100.4 224-224 224H224C100.4 1024 0 923.6 0 800V224C0 100.4 100.4 0 224 0z" fill="#FFF"/>
  <path d="M512 172c140.4 0 261.6 86 313.2 208h-448v210h203.6v31.2H190c-11.6-34-18-70.8-18-108.8C172 324.8 324.8 172 512 172zm324 237.2c10.4 32.4 16 67.2 16 102.8 0 187.2-152.8 340-340 340-138.4 0-257.6-83.2-310.8-202h445.6V434H443.2v-25.2H836z" fill="#E30016"/>
</svg>
