<svg viewBox="0 0 1024 1024" xmlns="http://www.w3.org/2000/svg" height="1em" width="1em">
  <path d="M175.9 576.8c-2.6-.1-10.8-.4-15.6 0-.3 0-1.3.2-1.1-.8.1-.1.3-.1.7-.2.6-.1 1.1-.3 1.4-.6s.5-.7.7-1.3c.2-3.5.5-10.2-.1-15-.2-.6-.4-1-.8-1.2-.1-.3-3.3-.5-1.3-1.4l4.8.1c.7 0 1.8 0 3.1-.1.2.1 1.8-.4 1.4.7-.1.1-.5.1-1 .2-.6.1-1.1.3-1.4.5-.8 1.2-.5 2.4-.6 5.5v9.2c0 1.4.1 2.3.4 2.5.7.7 3.8.3 4.8 0 1.9-.7 3-2 4.5-4.8.1 0 .5-1 .9-.1.2 1.1-.1 3.2-.8 6.8zm3.8-20.2c.3 0 1 0 2.1.1.8 0 1.4.1 1.9.1l4.5-.1c.1 0 1.2.3.1.8-.8.1-1.3.2-1.5.5-1.4 2-.6 11.5-.7 14.3-1.3 3.5 5.1 4.3 1.4 4.7-2.6-.2-4.4-.3-6.9-.1-.1 0-2.1.3-.8-.7.8-.1 1.4-.4 1.7-.7.3-.4.5-1.3.5-2.7.1-1.9.2-10.5-.1-12.9-.1-1.1-.3-1.7-.5-2-.3-.2-.7-.4-1.4-.5-.4 0-.5-.2-.5-.5-.4-.2-.2-.3.2-.3zm20.3-.5h1c1.3 2.9 3.1 7.5 5.4 13.7 1.9 3.7.9 5.2 4.1 6.3.8.4.3 1.2-1.8.8-1.3-.1-2.8-.2-5.1 0-.5.1-3.2.3-1.8-.7 3.1-.3 1.2-4 .2-6.8h-6c-.5 2.6-2.2 4.3-.7 6.1 1.1.2 3.3 1.7.2 1.3-1.2-.1-2-.2-4.1.1-.3 0-1.5-.1-.6-.9.6-.2 1-.4 1.4-.6.3-.3.7-.7 1.1-1.5.4-.7.8-1.9 1.4-3.5 1.1-3.5 2.9-8.3 5.3-14.3zm-1 5.3-2.5 6.8 5.1-.1c-.3-.8-.7-1.9-1.3-3.3-.6-1.4-1-2.6-1.3-3.4zm18.9-4.8c4.6 5.5 8.5 10 11.6 13.3v-7.3c0-1.4-.1-2.4-.2-3.1.6-1.4-5.5-2.7-2.1-2.9.8.1 3.8.1 5.5 0 .5-.2 2.2.5.6.9-1.2.2-2.5.9-2.5 3.6l.1 8.6-.1 6.5c-.5 2.8-6-5.5-8.2-7.7-2.4-2.8-4.1-4.9-5.1-6.1.1-.1-.2 8 .2 11.2.1.8.5 1.5 1.1 1.8.7.2 3.7 1.5.9 1.4-.8-.1-3.8-.1-5.3 0-.4.4-2.7-.4-.6-.8 4.6-.8 2.3-15.2 1.4-16.9-.6-.9-1.4-1.5-2.3-1.7-1-.3-.5-1.3 1.6-1 1.1.2 2.3.2 3.4.2zm29.2 9c2.5-3.9 4.6-5.7 3.9-7.5-.1-.2-.6-.5-1.3-.7-.5-.1-.6-.9.5-.9 2.1.1 2.4.3 5.3 0 .2-.1 1.5.2.5.8-.6.1-1.3.3-1.8.7-4.2 3.4-8.5 12.3-5.5 17.7 2.2.5 2.6 1.6-1.1 1.2-1.5-.2-2.7-.1-5.2.1-.2.1-1.8 0-.8-.8 2.7.2 2.4-5.6 1.9-7.9-.2-.6-.7-1.6-1.6-3.1-.9-1.5-1.8-2.9-2.6-4.3-.9-1.4-1.5-2.3-2-2.6-.5-.4-1-.6-1.5-.7-.3 0-.9-1 .8-.9 2.5.2 3.7.3 7 0 .1-.1 2 .1.7.8-1 .1-1.5.5-1.5 1.1 0 .5 1.4 2.9 4.3 7zm11.5-9.1 4.7.2c.4 0 1 0 1.5-.1.1 0 4.3-.5 2.3.7-.4 0-.7 0-1.6.8-.9 3.6-2.2 13.1 1.3 16.1 1.3.9 4.5 1.5 6.7-.1.7-.6 1.2-1.7 1.5-3 .3-1.4.8-9.4-.1-12.3-.3-.8-.9-1.3-1.7-1.4-2.7-1.2 1.6-.6 4.4-.8.1 0 2.8-.3 1.2.7-.9.2-1.8.9-2.1 2.8-.3 1.1.2 10.7-1 13.2-.5 1.2-1.4 2.1-2.6 2.8-2.6 1.2-7.7 1.7-11-.6-1-1-1.9-2.3-1.8-5.1l.1-8.1c-.1-1.3.2-2.7-.8-4.3-.3-.2-.7-.4-1.2-.5-.3 0-.6-.1-.6-.2-.1-.1-.1-.2-.1-.3.3-.4.5-.5.9-.5zm28.2.1c4.6 5.5 8.5 10 11.6 13.3v-7.3c0-1.4-.1-2.4-.2-3.1.6-1.4-5.5-2.7-2.1-2.9.8.1 3.8.1 5.5 0 .5-.2 2.2.5.6.9-1.2.2-2.5.9-2.5 3.6l.1 8.6-.1 6.5c0 .3-.1 1-.8.7-1.9-1.9-4.3-4.6-7.4-8.4-2.4-2.8-4.1-4.9-5.1-6.1.6.6-1.3 10.3 1.3 13 .7.2 3.7 1.5.9 1.4-.8-.1-3.8-.1-5.3 0-.4.4-2.7-.4-.6-.8 1.1-.1 1.8-.5 2.1-1.2.6-5.9 1-11.9-.7-15.7-.6-.9-1.4-1.5-2.3-1.7-1-.3-.5-1.3 1.6-1 1.1.2 2.3.2 3.4.2zm37.9 1.6.4 4.4c0 .1.1 1.7-1 .5-1.5-4.4-8.5-8.2-12.2-2.8-3.6 4.9-1.7 18.2 7 15.3.8-.4 1.3-.7 1.5-1.2.2-1.3.9-4.4-.5-5.9-.3-.2-.9-.3-1.8-.4-.1 0-1-.4 0-.8h2.2l6.7-.2c.1-.1.6.3.2.7-.1.1-.5.2-1.2.3-1.8.1-1 3.1-1.4 6.2-.8.6-2.9 1.7-5.2 2.4-2.3.6-6.2.6-8.9-.8-5.8-2.7-6.9-11.4-2.3-16.5 2.3-2.5 7-4 11.1-2.7 1 .3 2 .7 3.3 1.3.2-.1.4.6 1.1-.2.1-.4.3-.6.5-.6.3 0 .4.3.5 1zm13.9-2.1h1c1.3 2.9 3.1 7.5 5.4 13.7 1.1 2.9 1.8 4.6 2.2 5.2.4.6 1.1 1 1.9 1.1.8.4.3 1.2-1.8.8-1.3-.1-2.8-.2-5.1 0-.5.1-3.2.3-1.8-.7 3.1-.3 1.2-4 .2-6.8h-6.1c-.5 2.8-2.8 5 0 6.4 1.4 0 1.9 1.5-.5.9-1.2-.1-2-.2-4.1.1-.3 0-1.5-.1-.6-.9.6-.2 1-.4 1.4-.6.3-.3.7-.7 1.1-1.5.4-.7.8-1.9 1.4-3.5 1.3-3.4 3-8.2 5.4-14.2zm-1 5.3-2.5 6.8 5.1-.1c-.3-.8-.7-1.9-1.3-3.3-.5-1.4-1-2.6-1.3-3.4zm18.9-4.8c4.6 5.5 8.5 10 11.6 13.3v-7.3c0-1.4-.1-2.4-.2-3.1.6-1.4-5.5-2.7-2.1-2.9.7.1 3.8.1 5.4 0 .5-.2 2.1.5.5.9-1.2.2-2.5.9-2.5 3.6l.1 8.6-.1 6.5c0 .3-.1 1-.8.7-1.9-1.9-4.3-4.6-7.4-8.4-2.4-2.8-4.1-4.9-5.1-6.1.6.6-1.3 10.3 1.3 13 .7.2 3.7 1.5.9 1.4-.8-.1-3.8-.1-5.3 0-.4.4-2.7-.4-.6-.8 1.1-.1 1.8-.5 2.1-1.2.3-6.7 2.2-15.2-3-17.4-1-.3-.5-1.3 1.6-1 1.4.2 2.6.2 3.6.2zm38 1.6.4 4.4c0 .1.1 1.7-1 .5-1.5-4.4-8.5-8.2-12.2-2.8-3.6 4.9-1.7 18.2 7 15.3.8-.4 1.3-.7 1.5-1.2.2-1.3.9-4.4-.5-5.9-.3-.2-.9-.3-1.8-.4-.1 0-1-.4 0-.8h2.2l6.7-.2c.1-.1.6.3.2.7-.1.1-.5.2-1.2.3-1.8.1-1 3.1-1.4 6.2-.8.6-2.9 1.7-5.2 2.4-2.3.6-6.2.6-8.9-.8-5.8-2.7-6.9-11.4-2.3-16.5 2.3-2.5 7-4 11.1-2.7 1 .3 2 .7 3.3 1.3.2-.1.4.6 1.1-.2.1-.4.3-.6.5-.6.3 0 .4.3.5 1zm25.3 18.8c-.4 0-2.2 0-5.3-.1h-5.1c-.4 0-.7 0-.8-.1-.7-.8.9-.6 2.1-1.2 1-1.2.7-3 1-6.2.1-2.7.4-9-.3-11.3-.3-.6-.9-.9-1.8-1-.9-.5-.3-1.2 1.9-.7 1.2.1 2 .2 2.5.2l5.5-.1c1.8 0 3.6.4 5.3 1.1 6 2.4 7.8 12.4 2.1 17.1-1.1.9-2.2 1.5-3.3 1.8-1.2.3-2.5.5-3.8.5zm-1-1.1c2 0 3.6-.7 4.8-2.2 3.7-4.8 1.8-17.5-6.9-15.9-.5.4-.3 1-.5 3.7l-.2 5.2c.4 1.9-.9 6.6 1 8.8.2.2.9.4 1.8.4zm25.5-19.5c2 0 3.7.4 5.1 1.2 5.3 2.9 6.4 11.3 1.8 16.3-10.4 10-23.4-4.3-14.4-14.3 2-2.2 4.5-3.2 7.5-3.2zm5 10.3c0-3.1-.5-5.4-1.5-6.9-1.7-2.7-5.4-3.3-7.6 0-1.8 2.7-2 10.3-.1 13.8 1.6 2.7 5 3.5 7.5.2 1.2-1.6 1.7-3.9 1.7-7.1zm13-10.1c4.6 5.5 8.5 10 11.6 13.3v-7.3c0-1.4-.1-2.4-.2-3.1.6-1.4-5.5-2.7-2.1-2.9.7.1 3.8.1 5.5 0h.7c.3.1 1.2.5-.1.9-1.2.2-2.5.9-2.5 3.6l.1 8.6-.1 6.5c0 .3-.1 1-.8.7-1.9-1.9-4.3-4.6-7.4-8.4-2.4-2.8-4.1-4.9-5-6.1.6.6-1.3 10.3 1.3 13 .7.2 3.7 1.5.9 1.4-.8-.1-3.8-.1-5.3 0-.4.4-2.7-.4-.6-.8 1.1-.1 1.8-.5 2.1-1.2.6-5.9 1-11.9-.7-15.7-.6-.9-1.4-1.5-2.3-1.7-1-.3-.5-1.3 1.6-1 1 .2 2.2.2 3.3.2zm38.6 1.6.4 4.4c0 .1.1 1.7-1 .5-.8-1.6-1.7-3-3-4-2.1-1.9-7.1-2.3-9.1 1.2-3.5 4.9-1.7 18.2 7.1 15.3.8-.4 1.3-.7 1.5-1.2.2-1.3.9-4.4-.5-5.9-.3-.2-.9-.3-1.8-.4-.1 0-1-.4 0-.8h2.2l6.7-.2c.1-.1.6.3.2.7-.1.1-.5.2-1.2.3-1.8.1-1 3.1-1.4 6.2-.8.6-2.9 1.7-5.2 2.4-2.3.6-6.2.6-8.9-.8-5.8-2.7-6.9-11.4-2.3-16.5 3.3-3.6 9.2-4.2 14.3-1.4.1-.1.5.6 1-.2.1-.4.3-.6.5-.6s.4.3.5 1zm21.5-1.5.7 4.6v.2c0 .1 0 .7-.7.1-.7-1.2-1.6-2.2-2.5-2.8-5.4-2-8.1-2.3-7.2 7 1.1 0 1.9-.1 2.5-.2 1.1-.4 1.6-.9 2.2-3 .2-.3.4-.8.7.2l-.1 4.9c0 1.7-.1 2.6-.1 2.7-.4.2-.3.5-.7-.4-.2-1.6-1.1-3.1-4.4-3v5.6c0 1.1.1 1.9.2 2.4.3 1.1 1.2 1.3 3 1.4.6 1.1-.8 1-2.8.8-.9-.1-1.6-.1-2.1-.1l-4.6.2c-2.2-.8 1.6-.4 2-2.2.2 0 .6-14.1-.1-16-.2-.7-.8-1-1.8-1h-.4c-.1.1-1-.9.3-.9h15.9v-.5zm7.9-.6h1c1.3 2.9 3.1 7.5 5.4 13.7 1.7 3.5 1.1 5.4 4.1 6.3.8.4.3 1.2-1.8.8-1.2-.1-2.8-.2-5.1 0-.5.1-3.2.3-1.8-.7 3.1-.3 1.2-4 .2-6.8h-6c-.5 2.6-2.2 4.3-.7 6.1 1.1.2 3.1 1.7.1 1.3-1.2-.1-2-.2-4.1.1-.3 0-1.5-.1-.6-.9.6-.2 1-.4 1.4-.6.3-.3.7-.7 1.1-1.5.4-.7.8-1.9 1.4-3.5 1.3-3.5 3.1-8.3 5.4-14.3zm-1 5.3-2.5 6.8 5.1-.1c-.3-.8-.7-1.9-1.2-3.3-.6-1.4-1.1-2.6-1.4-3.4zm18.9-4.8c4.6 5.5 8.5 10 11.6 13.3v-7.3c0-1.4-.1-2.4-.2-3.1.6-1.3-5.4-2.7-2-2.9.7.1 3.8.1 5.4 0 .5-.2 2.1.5.5.9-1.2.2-2.5.9-2.5 3.6l.1 8.6-.1 6.5c-.5 2.8-6-5.5-8.2-7.7-2.4-2.8-4.1-4.9-5-6.1.1-.1-.2 8 .2 11.2.1.8.5 1.5 1.1 1.8.7.2 3.7 1.5.9 1.4-.8-.1-3.8-.1-5.3 0-.4.4-2.7-.4-.6-.8 4.6-.8 2.3-15.2 1.4-16.9-.6-.9-1.4-1.5-2.3-1.7-1-.3-.5-1.3 1.6-1 1.1.2 2.3.2 3.4.2zm37.8 1.6.4 4.4c0 .1.1 1.7-1 .5-.8-1.6-1.7-3-3-4-2.2-1.9-7.1-2.3-9.1 1.2-2.1 3.2-2.4 9.6.2 13.2 1.7 2 3.6 3.3 6.9 2.1.8-.4 1.3-.7 1.5-1.2.4-.6.3-4.3.1-5-.1-.4-.3-.7-.6-.9-.3-.2-.9-.3-1.8-.4-.1 0-1-.4 0-.8h2.2l6.7-.2c.1-.1.6.3.2.7-.1.1-.5.2-1.2.3-1.8.1-1 3.1-1.4 6.2 0 .1-.6.4-1.7 1s-2.3 1.1-3.5 1.4c-2.3.6-6.2.6-8.9-.8-5.8-2.7-6.9-11.4-2.3-16.5 3.3-3.6 9.2-4.2 14.3-1.4.1-.1.5.6 1-.2.1-.4.3-.6.5-.6.3 0 .4.3.5 1zm25 8.3c2.4.4 4.3 1.2 5.1 5 .8 2.4.5 4 3.7 4.5.2.4.4.7-.9.8l-5.6-.1c-.6-.6-1-1.7-1.2-3.3-.7-3.2-.2-6.8-5-6.5.3 4.5-.6 5.6.5 8.4 2.4 1.4 2.4 1.1 1.8 1.5-1.5-.8-.8-1.6 0 0l-4.4-.1c-1.1.2-7.1.2-2.5-1 .5-.3.7-1.5.7-3.6v-8.3c0-2.8-.1-4.5-.4-5.2-.2-.6-.9-.9-1.9-1-1.8-1.5 5.9-.6 7.1-1 1.8-.3 5.6-.1 7.5 1.3 1.6 1.2 2.7 3.9 1 6.3-.6.8-1.3 1.4-2.2 1.8-1.1.2-2.1.4-3.3.5zm-3.9-.6c1 0 1.2 0 3.1-.5.9-.3 1.5-.9 1.8-1.6.6-1 .9-3.7-.6-5.3-.8-.7-2.3-1.5-4.4-.8l.1 8.2zm13.6-9.4 4.7.2c.4 0 1 0 1.5-.1 1.2 0 5.2-.7.6 1.5-.3.5-.6 1.5-.7 3-.1 2.1-.3 8.6.3 10.7.3 1 .8 1.8 1.7 2.4 1.3.9 4.5 1.5 6.7-.1.7-.6 1.2-1.7 1.5-3 .3-1.4.8-9.4-.1-12.3-.3-.8-.9-1.3-1.7-1.4-2.7-1.2 1.5-.6 4.4-.8.1 0 2.8-.3 1.2.7-.5.1-.9.3-1.3.7-.4.4-.6 1.1-.8 2.1-.3 1.1.3 10.7-1 13.2-.5 1.2-1.4 2.1-2.6 2.8-1.8 1-5.4 1.3-8.4.6-1.1-.3-1.9-.7-2.5-1.2-.6-.6-1.1-1.2-1.3-1.9-.3-.7-.4-1.8-.4-3.2l.1-8.1c0-1.1-.1-2.1-.2-2.8-.1-.7-.3-1.2-.6-1.5-.3-.2-.7-.4-1.2-.5-.1-.1-.5.1-.7-.5.2-.4.4-.5.8-.5zm33.4 10c2.4.4 4.3 1.2 5.1 5 .8 2.4.5 4 3.7 4.5.2.4.4.7-.9.8l-5.6-.1c-.6-.6-1-1.7-1.2-3.3-.7-3.2-.2-6.8-5-6.5.3 4.5-.6 5.6.5 8.4 2.3 1.4 2.3 1.1 1.7 1.5-1.3-.8-.7-1.5 0 0l-4.4-.1c-1.1.2-7.1.2-2.5-1 .5-.3.7-1.5.7-3.6v-8.3c0-2.8-.1-4.5-.3-5.2-.2-.6-.9-.9-1.9-1-1.8-1.5 5.9-.6 7.1-1 1.8-.3 5.6-.1 7.5 1.3 1.6 1.2 2.7 3.9 1 6.3-.6.8-1.3 1.4-2.2 1.8-1.1.2-2.1.4-3.3.5zm-3.9-.6c1 0 1.3 0 3.1-.5 2.3-.8 3.2-4.4 1.2-6.9-.8-.7-2.3-1.5-4.4-.8l.1 8.2zm23.6-9.8h1c1.3 2.9 3.1 7.5 5.4 13.7 1.9 3.7.9 5.2 4.1 6.3.8.4.3 1.2-1.8.8-1.2-.1-2.8-.2-5.1 0-.5.1-3.2.3-1.8-.7 3.1-.3 1.2-4 .2-6.8h-6c-.5 2.6-2.2 4.3-.7 6.1 1.1.2 3.1 1.7.1 1.3-1.2-.1-2-.2-4.1.1-.3 0-1.5-.1-.6-.9.6-.2 1-.4 1.4-.6.3-.3.7-.7 1.1-1.5.4-.7.8-1.9 1.4-3.5 1.2-3.5 3-8.3 5.4-14.3zm-1 5.3-2.5 6.8 5.1-.1c-.3-.8-.7-1.9-1.2-3.3-.7-1.4-1.1-2.6-1.4-3.4zm30 15.4c-2.6-.1-10.8-.4-15.6 0-.2.3-2.3-.5-.3-1 .6-.1 1.1-.3 1.4-.6.3-.3.5-.7.7-1.3.2-3.5.5-10.2-.1-15-.2-.6-.4-1-.7-1.2-.1-.3-3.3-.5-1.3-1.4l4.8.1c.7 0 1.8 0 3.1-.1.2.1 1.8-.4 1.4.7-.1.1-.5.1-1 .2-.6.1-1.1.3-1.4.5-.8 1.2-.5 2.4-.6 5.5v9.2c0 1.4.1 2.3.4 2.5.7.7 3.8.3 4.8 0 1.9-.7 2.9-2 4.5-4.8.1 0 .5-1 .9-.1 0 1.1-.4 3.2-1 6.8zm28-18.8.6-.9c.2-.1.2-.8 1.1-.4.1.1.1.4.1.9l.3 4.8v.6s-.3 1.2-1 .1c-.9-2.8-4.9-7.9-8.9-4.5-.8.7-1.4 1.7-1.8 2.9-3.2 7.6 3.8 20.4 11.1 10.2.4-.9 1.6-.2.7 1-9.8 12.6-23.3-3.7-14.7-13.4 1.8-2.1 4-3.2 6.7-3.2 1.9.2 3.8.8 5.8 1.9zm15.7-1.6c2 0 3.7.4 5.1 1.2 5.3 2.9 6.4 11.3 1.8 16.3-3.4 3.9-10.2 4.6-14.5.6-6.2-5.8-1.8-18.3 7.6-18.1zm5 10.3c0-3.1-.5-5.4-1.5-6.9-1.7-2.7-5.4-3.3-7.6 0-1.8 2.7-2 10.3-.1 13.8 1.6 2.7 5.1 3.5 7.5.2 1.2-1.6 1.7-3.9 1.7-7.1zm14.5-10c.6 1.4 2.2 4.7 3.4 7.2.7 1.4 1.4 2.9 2.2 4.4.7 1.2 1 2 1.1 2.2 2.4-5.7 4.3-10.3 5.5-13.8 2.3 0 4.5-.1 6.4-.2 2.4.4-.7.8-1.7 2.1-.3.8-.5 2.7-.5 5.7v7.5c0 1.5.2 2.6.6 3.2.4.6 1 .9 1.9 1 .1 0 .9.2.3.8h-4.1c-1.2 0-2.9 0-5.1.1-.8-.6.6-.9 1.6-1.3.5-.7.6-1.1.7-3.1l.1-6.8v-6c-2.6 6.4-4.3 10.5-4.9 12.3l-1.5 4.1c-.1.2-.5 1.3-1.1-.1-.7-1.6-3.2-6.7-7.5-15.5.1 2.4-.5 10.9.3 14.5.2.6.9.9 2 1 .4-.1.9.9-.1.8-.7-.4-8.7.7-5.6-.9.9-.2 1.5-.5 1.8-1.1.3-.5.4-1.4.4-2.5l.1-8.7c-.2-2.4.5-3.5-.8-5.4-.4-.3-1-.6-1.8-.8-.4-.1-.8-1 .3-.9.9.2 2.9.2 6 .2zm28.5 0c.6 1.4 2.2 4.7 3.4 7.2.7 1.4 1.4 2.9 2.2 4.4.7 1.2 1 2 1.1 2.2 2.4-5.7 4.3-10.3 5.5-13.8 2.3 0 4.5-.1 6.4-.2 2.4.4-.7.8-1.7 2.1-.3.8-.5 2.7-.5 5.7v7.5c0 1.5.2 2.6.6 3.2.4.6 1 .9 1.9 1 .1 0 .9.2.3.8h-4.1c-1.2 0-2.9 0-5.1.1-.8-.6.6-.9 1.6-1.3.5-.7.6-1.1.7-3.1l.1-6.8v-6c-2.6 6.4-4.3 10.5-4.9 12.3l-1.5 4.1c-.1.2-.5 1.3-1.1-.1-.7-1.6-3.2-6.7-7.5-15.5.1 2.4-.5 10.9.3 14.5.2.6.9.9 2 1 .4-.1.9.9-.1.8-.7-.4-8.7.7-5.6-.9.9-.2 1.5-.5 1.8-1.1.3-.5.4-1.4.4-2.5l.1-8.7c-.4-2.9 1.1-5.2-2.6-6.2-.4-.1-.8-1 .3-.9.9.2 2.9.2 6 .2zm37.4 0 .9 4.5c0 .1-.2.8-.9 0-2.3-3.3-4.1-4.1-8.8-3.4-.2 1.8-.3 4.3-.3 7.3h1.1c1.2.1 3.1-.7 3.7-2.7 0-.2.9-.9.9 0 0 .5-.4 3.6-.1 6.5v.2c.1.2-.8.8-1-.4-.2-.9-.6-1.6-1.3-2-.7-.5-1.8-.7-3.3-.7-2.3 10.6 5.4 10.5 10.2 5 .2-.4 1.2-.9.8.5l-.9 4.1h-5.3c-1.5 0-2.9 0-4.1-.1-2.4-.1-3.4-.1-6.7 0-2.3-.3-.7-.5 1.3-1.6.3-.5.5-1.5.5-3.1l.1-7.4c-.5-3.2 1.4-5.6-2.1-6.4 0 0-1-.4 0-.8l3.5.1 11.8.4zm15 9.3c2.3.4 4.3 1.2 5.1 4.8.8 2.2.4 3.5 3.2 4.2.7 0 1.3.8-.4.8l-5.6-.1c-.6-.6-1-1.6-1.2-3.1-.6-2.4 0-3.9-2.1-5.7-.7-.2-1-.5-2.9-.5.3 4.2-.6 5.4.5 8 .3.3.8.5 1.7.6 0 0 1.4.4.1.8l-4.5-.1c-1.1.2-7.1.2-2.5-1 .5-.3.7-1.4.7-3.4v-7.9c0-2.7-.1-4.3-.4-4.9-6.3-2.8 3.1-1.3 5.2-1.9 3.8-.8 12.2 1.3 8.5 7.1-.6.7-1.3 1.3-2.2 1.7-.9.2-2 .5-3.2.6zm-3.9-.6c1 0 1.2 0 3.1-.5.9-.3 1.5-.8 1.8-1.5.6-.9.9-3.4-.6-5-.8-.7-2.4-1.4-4.4-.7l.1 7.7zm29.4-7.5c.2-.2.4-.5.6-.8.3-.2.1-.6 1.1-.5.1.1.1.4.1.9l.3 4.5v.6s-.3 1.2-1 .1c-.8-2.5-5-7.5-8.9-4.3-.8.7-1.4 1.6-1.8 2.7-1 2.6-1 8.2 1.1 10.8 2.6 3.4 7 3.4 10.1-1.1 1.5-1.2 1.2 1.3-1.2 3.1-3 2.9-9.7 2.8-12.9-.7-5.3-5.3-2-17.1 6.8-17 1.7.1 3.7.7 5.7 1.7zm5.6-1.3c.3 0 1 0 2.1.1.8 0 1.4.1 1.9.1l4.5-.1c.1 0 1.2.3.1.8-.8.1-1.3.2-1.5.4-1.4 1.9-.6 10.7-.7 13.5.1 1.7.3 2.7.6 3.1.3.4 4.1 1.3.8 1.5-2.6-.2-4.4-.3-6.9-.1-.1 0-2.1.3-.8-.7 1.3-.2 2.2-.6 2.2-3.2.1-1.7.2-10-.1-12.2-.1-1-.3-1.6-.5-1.9-.2-.4-.9.1-2-.8-.2-.4 0-.5.3-.5zm20.2-.5h1c1.3 2.8 3.1 7.1 5.4 13 1.1 2.7 1.8 4.4 2.2 4.9.4.6 1.1.9 1.9 1 .8.4.3 1-1.8.7-1.3-.1-2.8-.2-5.1 0-.5.1-3.2.3-1.8-.7 3.1-.3 1.3-3.6.2-6.3h-6c-.5 2.5-2.2 4-.7 5.7 1.1.2 3 1.6.1 1.2-1.2-.1-2-.2-4.1 0-.2 0-1.3 0-.6-.8.6-.2 1-.4 1.4-.6.3-.2.7-.7 1.1-1.4.4-.7.8-1.8 1.4-3.3 1.3-3.1 3.1-7.7 5.4-13.4zm-1 5-2.5 6.4 5.1-.1c-.4-1.3-1.8-4.2-2.6-6.3zm30.2 14.6c-2.6-.1-10.8-.4-15.6 0-.3.2-2.3-.5-.4-.9.6-.1 1.1-.3 1.4-.5.3-.3.5-.7.7-1.2.2-3.3.5-9.7-.1-14.3-.2-.5-.4-.9-.7-1.2-.1-.1-3.3-.7-1.3-1.3l4.8.1c.7 0 1.8 0 3.1-.1.2.1 1.8-.4 1.4.7-.1.1-.5.1-1 .2-.6.1-1.1.2-1.4.5-.8 1.1-.5 2.4-.6 5.3v8.8c0 1.3.1 2.1.4 2.4.7.7 3.8.3 4.8 0 1.5-.4 3.2-1.9 4.5-4.6.1 0 .5-1 .9-.1.1.8-.3 2.8-.9 6.2zm23.1-10.3c2 .4 3.5 1.1 4.5 1.9 1.5 1.5 2.2 3.9.4 6.3-.7.9-1.6 1.5-2.7 1.8-1.8.4-3.5.6-6.9.4-1.4 0-2.3-.2-4.7 0-1.6-.5-1.6-.3-1.1-.7.7.5.3 1.3 0 0 .6-.1 1.1-.2 1.3-.3.2 0 1-.7 1-2.2l.1-6.7c0-2.1 0-3.8-.1-5-.1-1.3-.1-2.1-.3-2.4-.1-.4-.3-.6-.5-.8-.2-.1-.5-.2-1-.3-.4 0-.6-.1-.7-.1-.1-.2-.4-.3.1-.7 1.3-.1 5-.1 7.3-.3 2.8-.3 8.1-.2 8.3 4.2.1 2.2-1.6 3.9-5 4.9zm-4-.3c4.1.3 6.4-3.6 4.1-7.1-.8-.6-1.7-1.3-4.2-.5-.1 1-.1 2-.1 3 .1 1 .1 2.5.2 4.6zm0 1.2c-.1 2-.2 6.3.1 8.2.6.7 3.2.5 4.5-.7 1.1-1.1 1.5-4.2-.1-6.3-.7-.8-1.8-1.3-3.3-1.3-.2 0-.7 0-1.2.1zm21.5-10.2h1c1.3 2.8 3.1 7.1 5.4 13 1.1 2.7 1.8 4.4 2.2 4.9.4.6 1.1.9 1.9 1 .8.4.3 1-1.8.7-1.3-.1-2.8-.2-5.1 0-.5.1-3.2.3-1.8-.7 3.1-.3 1.3-3.6.2-6.3h-6c-.5 2.5-2.2 4-.7 5.7 1.1.2 3 1.6.1 1.2-1.2-.1-2-.2-4.1 0-.2 0-1.3 0-.6-.8.6-.2 1-.4 1.4-.6.3-.2.7-.7 1.1-1.4.4-.7.8-1.8 1.4-3.3 1.3-3.1 3.1-7.7 5.4-13.4zm-1 5-2.5 6.4 5.1-.1c-.3-.8-.7-1.8-1.2-3.1-.6-1.3-1.1-2.4-1.4-3.2zm19-4.5c4.6 5.2 8.5 9.4 11.6 12.6v-7c0-1.3-.1-2.3-.2-2.9-.2-.6-.5-1-1-1.4-.5-.3-1.1-.5-1.8-.6-.5 0-.9-1.1.7-.7.7.1 3.7.1 5.4 0 .5-.2 2.1.5.5.9-1.1.2-2.5.9-2.5 3.5l.1 8.2-.1 6.2c-.7 2.6-5.7-5.1-8.2-7.2-2.4-2.7-4.1-4.6-5-5.8.1 0-.2 7.5.2 10.6.1.8.5 1.4 1.1 1.7.7.1 3.7 1.4.9 1.2-.8-.1-3.8-.1-5.3 0-.4.4-2.7-.4-.6-.8 1.1-.1 1.8-.5 2.1-1.1.3-6.5 2.2-14.2-3-16.4-.9-.2-.7-1.1 1.6-.9 1.2-.2 2.4-.1 3.5-.1zm24.6 9.1c.8-1.4 9.1-6.9 5.1-8.3-.6-.1-.8-1.1.5-.9 1.1.1 2.4.3 4.9.1 2.1.6 2.1.3 1.5.7-.8-.5-.2-1.3 0 0-.6.1-1.1.2-1.7.5-.8.3-2.8 1.8-4.4 3.6l-2.9 3.1h1c1.1 0 2 .2 2.8.7 1.3.8 2 2.4 2.7 5.2.3 1.3.6 2.1.8 2.6.2.5.5.9 1 1.3.4.4 3.5 1.2 1 1.4-1.2-.1-2.5-.2-5.5.1-.3-.5-.6-1.1-.7-1.6-.2-.6-.4-2-.8-4.2-.4-2.7-1.8-5.8-5-2.8v3.7c.4 2.2-.8 3.4 1.9 4 .9.1 1.1 1.1-.8.8-1.5-.2-3.8-.3-6.5 0-.2 0-1.6.4-1.1-.7.1-.1.4-.1.7-.1.6-.2 1.1-.1 1.5-1.4.1-.4.2-1.5.2-3.2.1-2 .2-7.6 0-10.1-.1-.9-.2-1.5-.3-1.9-.2-.4-.3-.7-.5-.8s-.6-.2-1.2-.3c-.9-.4-.2-1.1 1.8-.7 1.5.1 2.2.1 5 0h1.1c.3.1 1.1.5 0 .9-.7.2-1.6.1-1.6 1.7-.4.4-.4 2.6-.5 6.6z" fill="#1B1918"/>
  <path d="M45.9 512.9c8.9 5.9 17 14.3 23.9 26.2 5-9.8 12.9-18.3 24.2-25.4-13.7-9-19.7-17.3-24.7-25.4-6.4 11.2-14.5 18.9-23.4 24.6" fill="#AE935C"/>
  <path d="M0 512.6c0 1.6.1 3.1.2 4.6 23.3 2.6 42.6-13.9 62.8-40.5 16.6-21.8 46.6-26 70.9 5.7-11.4-24-35.6-40.7-63.7-40.7-38.8 0-70.2 31.8-70.2 70.9" fill="#EC440E"/>
  <path d="M77.6 549.5c-16.9 21.8-47 24-71.5-9 10.8 24.8 35.6 42.3 64.6 42.3 38.9 0 70.4-31.3 70.4-70 0-1.1 0-2.2-.1-3.3-1.8-.2-3.6-.3-5.3-.3-21.3 0-39.3 15.8-58.1 40.3" fill="#83120E"/>
  <path d="M412.1 515.1c1.1-.2 2.1-.4 3.2-.5v.2c-4.8 2.4-.7 8.8-8.2 9.2-2.8-4.1.3-11.2 2.7-14.6 2.1.1 3.5 1.3 3.4 3.1-.7.6-1.1 1.2-1.1 2.6zm-241.7-11c5.8 2.5 15.3 6.5 12.7 13.4 31.7 9.7 56.4-5 56.3 5.6-19.5 13.6-51.9 2.7-74.4-2.6v-.2c2-2.5 8.5-2.2 12.3-4.5v-.5c-2.6-3.2-6.4-5.7-8.4-9.4.7 0 .3 0 1.8-.2v-.2c-.7-.6-.5-.5-.3-1.4zm196.8-5.3c18.3.5 2 11.6-3.4 16.2 4.7 7.8 17.7-.2 21.8 8.5-25.9 18-38.1-27.2-23.5-13.5 1.4-2.1 2.8-2.7 3.8-5.6-.1-.2-.2-.4-.4-.5-3.3.6-7.2 1.6-9.7-.5 1.9-2.1 7.4-2.9 11.4-4.6zm139-2c-5.4 2-13.3 13.2-8.8 19.3 5.5 1.6 12.9-12.2 13.6-17.6-.2-.4-.5-.8-.7-1.3-1.1-.2-2.3-.4-4.1-.4zm-142.4-5.7c10.8-.6 20-1 26.8 7.1-.2.7-.4 1.4-.5 2.2-7.8 2.6-18-5.7-26.5-7.7.1-.6.1-1.1.2-1.6zm-44.2-6.1h.5c5.6 7.1-2.7 21.2 2 29.6 2.3-3.9 5.4-10.5 6.5-16.7 1.3 8.1-.6 30.8-6.4 30.2-7.2-8.8-3.8-30.3-3.3-42.6.5-.2.5-.2.7-.5zm-151.4-1.7c4.3-.1 8.2 1.8 8.2 6-3.1 2.5-4.6 6.1-6.8 11.1-2.3-3.7 1.2-11.1-3.3-15.5.8-.6 1.4-1.1 1.9-1.6zM281 483c4.1 0 10.5 3.1 12.4 5.8-8.6 9-26.4 12.3-32.9 25.2 13 3.6 35.9-20.2 42.5-1.3-2.9 5.8-13.1 10.1-21.2 10.7 1.1-5 6.9-6 7.5-11.6-7.3-2.7-14.5 6.9-21.5 11-31 5.9 5.2-25.6 5.3-30.8-7.9 3-16.4 6.6-24.8 9.4-.8-1-1.8-1.7-2.7-2.5-.1-1.3-.1-2.5-.2-3.8 2.3-1.7 2.4-6.4 5.2-6.9 9.3 4.1 20.1-4.1 30.4-5.2zm-68.2-8.2c.2 1.6.4 3.1.5 4.7.5-.5 1-1 1.4-1.5v-.5c-.6-.9-1.3-1.8-1.9-2.7zm284.6-1.4c-7.4 1.8-19.6 4.4-21.1 13.8 5.7.3 20.5-10 23.7-13.4h-.4v-.4h-2.2zm-132-1.7c-1.1.2-2.3.5-3.4.7 0 1.4 0 2.9.4 3.8h.2c1.5-1.4 3.1-3.2 4.7-4.4v-.2l-1.9.1zm-158.2-3.6c-4.9 4.9-9.8 11.4-12.5 18.3.4.2 10.9-3.7 11.9-4.2-.1-.1 1.3-13.3.6-14.1zm61.6-6.5c8.1-.2 21.6 5.4 16.7 13.6-5.1-2.1-11.3 1.1-17.9.6-.1-.2-.1-.4-.2-.5 2.2-2.7 6-3.6 7.9-6.7v-.2c-3.7-2-16.7-5.2-6.5-6.8zm224.6-4.2c6.4 1.8 10.4 8.6 15.4 12.9 2.9-1.3 6.2-3.5 9.9-3.8 2.2 1.1 4.1 2 5.2 4.2-3.4 2.3-16.2 3.9-16.9 8.7 2.4 4 5.8 7.3.9 12.5.1.1.1.2.2.4 29.3-4.6-5.3 49.3-13.5 24.1-3-5.2-17 16.6-23.6 5.9 18.3-6 23.1-32.4 35.6-44.1v-.4c-9.5 3.1-25.1 18.5-33.2 11.5 1.4-9.8 17.2-16.4 25.9-18.5-2.2-3.2-9.8-7.9-5.9-13.4zm-168.2-.8c25.7 10.6 4.6 13.9-4.8 22.9.7-3.4 4.9-8.1 5.4-13-1.1-.9-5.1-6.9-3.8-8.9 1-.3 2.1-.6 3.2-1zm102 41.3c-7.3.5-10.2 8.9-18.1 7.8-6.3-11.5 6.3-19.6 11.1-30.7-2.4-2.5-9.3-5.7-12.5-7.4v-.2h1.1c-.2-.8-.4-.9-1.1-1.3v-.2c5.7 1.4 11.4.7 17.6-2.8.3-3.8-2.3-8.6-.5-11.2 3.9 1.2 6.3 3.5 5.2 8.2l.2.2c6.1-1.1 16.4-3.1 16.3 5.2-.8.3-1.6.6-2.3.9-.2 3-6.9 3.2-10.7 4.3-4.4 2.6-7.9 13.9-12.1 18.8v1.6c2.3-.1 5.1-1.6 8.1-2.9l.9-12.3c6.1-2.8 4.9 4.6 7 8.4 3.7-.5 5.1-1 7.3 1.8-3 11.1-14.8 6.8-11.5 20.5 10.6 1.1 29.4 2 30 12.3-3.6 2.7-10 3.2-15.4.6v-.2c.5-.5 1.1-1 1.6-1.4-4.3-2.3-9.6-7.2-16.1-5.5-2.4 8.3 4.6 17.4-4.2 19.9-2.6-4.2-7.8-7.4-9-13 2.3.1 3.3 1.4 5.4.9.1-2.8 1.3-7.9.2-10.3-1-.3-2.5.2-3.3-2.5 5.5 1.4 5.2-4.6 4.8-9.5zm-73.1-46.4c2.4-.1 3.2.7 4.5 1.6 1.9 17.7-.8 16.8 12.5 13.8 1.5-2.7 2.6-5.3 1.8-9.6.7-.3 1.3-.6 2-.9.7.4 1.4.7 2.1 1.1.1 1.4.7 1.9 1.6 2.4-.6 2.1-1.2 4.1-1.8 6.2 1.1.1 2.9-.2 3.8-2.2 2.2.8 3.8.3 5.9 2.7-.2.4-.4.7-.5 1.1-5.4 1.5-14 2.1-16.5 9.1 2.3 0 5.2-1.6 5.7 3-15 8.3-23.3 30.1-40.5 36-4-10.8 27.4-26.3 30.2-33.3-6.3 1.2-15.7 8.6-21.6 11.2-1.2-.7-1.7-1.6-2.7-2.4.9-1.2 1.7-2.5 2.7-3.6 3 .9 12.5-4.4 13.8-6-.4-2.8-2.1-3.4-3.2-5.3.8-.8 1.6-1.7 2.3-2.5v-.2c-4.8.8-7.6 4.4-11.6 5.3-1.4-2-4.2-6.3-.7-8.3 3.2 1.3 10.2 1 12.4-1.5-1.3-4.1-.1-9.3-2.3-12.3-2.9.3-3.1-3.5.1-5.4zm-142.2 47.3c3.2-.1 5.6-.3 7.5 1.1.2 1 .4 1.9.5 2.9l-3.6 2.4c-1.2-.6-2.2-1-3.9-1.1-.9 4 1.7 12.9-5.8 9.9.2-3-1-3.7-1.6-6-4.4.6-7.6 4.8-12.4 3.4-5.2-9.4 6.2-9 12-10.7.5-2.2.3-5.4 0-7.6-6.7.4-11.1 7.2-18.9 7.2-1.5-2.2-3.8-3.7-4.1-7.1 3.3-6.2 8.1-12.3 11.6-19.5-4.6 2.4-11.1-.6-14-5.1.1-.1.1-.2.2-.4 43.2-10 11.8-19.1 25-22.1 6.8-.3 6.2 4.4 7.4 9.3 4.3 2.7 13.8 2.7 5.3 9.3-5.2-1.2-5.6 4.9-4.5 9 1.8-.7 4.5 3.3 5.6 4.7.7-.2.6-.3 1.1-.7 1.1 1.2 2.6 1.5 3 4.7-3.2 2.1-6.3 4.2-9.5 6.3-.3 3.5-.6 6.7-.9 10.1zm691.9 11.6c-1.2-.1-.5 2.8-1.3 5h.2c.2-.2.1-.5 1.2-1.2.1-.3 2.7-3.6-.1-3.8zm-171.4-.2c-5.9 1.1-1.9 7.4.6.1-.2-.1-.3-.1-.6-.1zm-160.8-13.1c-6.9 1-13.1 10.1-10.5 17.9 3.1-.8 23.2-17.1 10.5-17.9zm339.5 1.3c-.7 1.1-10.8 5.4-7.1 7.6 4.8 1.6 6.7-3.3 7.1-7.6zM583.3 491c-1.6.9-2.2 1.5-5.1 3.5 1.1 2.9 3.5-1 5.5-3.2v-.2l-.4-.1zm326 2c-1.6.3-3.7 0-6.6.1-.9 10.1 1.7 8.1 7.1-.2-.2.2-.4.2-.5.1zm-178.6-.1c-3.8 1.1.4 6 .9 0h-.9zm88.7-2.8c-3.1 2.2-9.4.3-7 13.9 7.2-6.1 6.1-1.9 7.9-13.4-.3-.4-.1-.5-.9-.5zm92.1.8c-.1.1-.2.2-.2.4.2.1.2.1.3 0 0-.1.1-.3-.1-.4zm-81.9-5c-1 .5-3.7.9-2.2 3.5.4 0 2.9-2.1 2.8-3.4-.2-.1-.4-.1-.6-.1zm77.1-3.5c-2.1.8-3.7 1.3-4.2 5.4 1.6 1.5 7.5-2.2 4.2-5.4zm-149.3-.5c12.7 1.8 6.2 20.1 6.6 31.4 5.4 31.2-16.5 25.8-22.6 9.7 14.5 5.3 17.1-1.2 16.9-20.3-.1-5.4 5.4-22.7-9.5-15.8-10.3 5.9 20.8 7.4-15.9 11.9v-.3c2.9-1.5 3.4-3.5 4.1-7.8-5.2-.5-3.9 10.4-6.8 14-1.9 4.4 17.7-9.4 22.5-.6 1.1 1.7-2.9 4.8-3.8 6.6 2.5 2.2 7.2 3.7 3.5 6.9-3.5 2-12.1.4-17.9 1.9-12.9 6.7-13.2-3.2-10.1-13-1.4-4.2-2.1-4.4-1.4-10.6-10.6.4-6.9 12.8-7 21.8 4.2 13.8-18.3 10.7-5.2-16.9 0-1.4-4.6-2.9-.9-5.1 9.8-3.9 19.6-5.3 30.7-9.5-.7-2.9 8.3-1.4 13.8-4.7.1.3 2.1.7 3 .4zm-179.2-17.5c-1.4.6-4.6 1-4.7 2.6.1.1.2.2.3.4-1.1.5 8.7-2.7 4.4-3zm-11.3-6.3c4.7 1.2 7.9 4.8 14.3 2.5 12.7-4.7 21.8 5.8 2.3 12.8-8.2 4.4-19.2-8.1-18 18.8 5.8 2.3 38.4-30.7 27.8-9.2-3 3.5-7.7 5-8.2 10.8-4.1 5.3 6.6 4.2 16.4 11.2 6.8 4.4 13.4 16.8-.3 7.5-8.3-4.4-20.1-17.4-24.7-4.3-12.3 28.2-30.5 18.3-19.6-12.1-5.7 8.5-16.5 21.5-12.4-1.3 3.8-7.8 13.6-13.8 15.5-22.9-4.7 1.5-6.9 8.1-12.2 10.3-8.6-4.2-3.2-17.1-.1-23.8 8.2.1-.9 17.4 16.5 5.4-.3-2.6-4-5 1.6-6 .3.3.7.3 1.1.3zm110.1-1.5c3.3-.6 4 4.4 7.6 5.6 3.7.2 9.5 4.6 4.5 8.7-11.3 3.4-10.1-4.5-6.8 39.8-.2 6.4 4.9 20.9-11.4 19.2-3.4-1.9-5.4-2.8-4.9-9.3-.5-1.5-4.5-3.2-4.2-5.9.1 0 .3 0 .4-.1.7.2 1.2 2.2 3 1.9 1-3.4 6.3 3.6 8.9-.5.4-7.9 3.7-17.3-10.2-14.3.7-3.2 4.4-7-4-3.6-9.9 13.9-6.7-15.2 13-2.8.5-36.1-7.7-5.2-16.2-11.6 3.1-11.5-8.2 13.8-12.6 15.9v.3c2.2.2 1.2 1.8-.7 3.5-1.3 9.2-8.8 9.2-.9 22.3-5.1 5-9.4-4.4-9.7-9.8-7.9 15.3-19.9-.4-3-15.3 1.2-3.2 4.7-6.2 5.7-11.9-3.2-.1-7.6 4.6-12.4 2.7-2.4-2.8-10.6-11.3-3-15 32.3-4.4 6.4-14.3 23.1-19.7 3.9 1.7.7 4.6-.5 9.2 5.8 3.8 15.1 3.8 3.7 14.4 5 7.6 4.7-.2 23.3-13 2.2-6.8-5.9-5.9 7.3-10.7zm151.6 1.4c5.6-.4 7.6 2.6 2.9 7.7.4-.8-7.4 21-2.7 18 4.1-3.9 19.3-1.7 13.5 7.6-4.7 2.5-8 6-12.5 10.9-14.3 11.2 13.8 5.3 8 14.8-6.1 6-14.1 2.4-22.9 4.9-6.2.1-11.2 5.1-18.1 3-13-12.1 6.4-3.7 4.4-15.8 3.3-26.5-18.3 18.3-25.6-11-.3-9.4 5.2.3 11.6.3 4.5-1.5 11.4-1.5 14-5.4-1.1-6.6 2.7-14.9-4.5-19.1-2.5-6.5 27.1-5 15.5 16 9.4.4 11.4-12.1 9.8-24.3-3.8-3.7-1.6-7.1 6.6-7.6zm86.5.8c12.7 3.8.1 18.4-2.1 27.9-.2.2-1.2 1.6-1.2 3.6h.2-.1c22.5-9 .8 11.7 3.6 15.2 21.6-3.7 38.6 22.4-2.9 6.3-23.5 45.8-14-17.2-15.2-36.1-2-3.6 2.1-4.7 4.9 0 .4 1.9-.4 5.4.7 7.2.6-.9 3-3.2.5-4.7 12.7-5.1-5.7-3.7-3.4-9.6 8.4-2.5 9.7-6.2 15-9.8zm-37.9-2.2c5.4.8 4 6.2 1.8 11.5 14.9-6.3 22.3 5 1.6 8.4-2.7-7.3-17.4 15.1-4 7.3 1.5-2.4 11.1-5.6 11 .8-2.1.9-3.5 4.6-3.3 8.5 5.9-1.8 10.7 4.4.3 5.8-1.1 1-1 7-.7 9.2 29.8-34.3-8.5 31.3-15.9 15.8-5.7-6.1 1.8-7.1 4.2-13.8 3.7.9 4.1-4.9 3.7-8.9-2.1-.3-2.9.9-5.7 2.9-2.6 1.8-11.7 0-3.9-5.7 3.2-1.5 13.6-.5 11.5-7.9-1.4 0-3.2 2-6 2.1-2.3-12.8-14.9 23.1-18.4.6 8.1-9 20.9-27 20.5-32.3-1.7-1.1.4-3 3.3-4.3zm115.7-1.3c30.8 4.3 1.8 12.1-8.2 26.5 6.4-.4 15.5-7.1 24.4-4.8 5.2-.3 15.1 9.1 3.1 10.3-5.2-.5-9.7.2-14.2 6 10.9 18.8 8.2 49.8-19.4 37 9-3 28.8-15.7 13.2-29.8-3.3-3 1.5-2.1 1.1-9.4-8.8 1.9-27.6 17.4-19.7-9.7 2.7.1 15.2-7.6 17-13.4 1.8-9.8-19.2-1.9 1.8-11.9-.1-.3.4-.5.9-.8zm-256.5-.7c2.3.5 9.4.8 7.1 6.3 2.3 1.5 4-4 8.2-3.2 11.5 5.3 9.2 6.7-4.3 9.7.9 2.4 12.5 2.7 6.2 7.8 0-2.3-42.8 25.8-9.8-6.8-6.4-.1-10.8 2.7-20 5.7-7.4 10.8 4.4-.1 7.1 2-13.3 23-19.4 9-9.9-1.3-3.7 1.9-12.9 1.1-7.9-6.3 27.5-2.5 14-9 23.3-13.9zm224.2-2c9.8 13.5 9.1 12.7-3.4 29.4 16.2 3.1 11 8.2 2.6 20.1 3.4 3.9 3.8 23.2-4.4 16.3-.2-1.4-1.3-4.2-1.6-7.3-.1 0 0 0-.1-.1-8.7 20.7-18.4 5.1-4.2-10.2.1-.5.5-.6 1.6-2.8.5-.3.8-1.3 1.6-2.5-4.1-3.4-12.1 10-9.2-10.7 13.8-14.9 17.9-16.5 17.1-32.2z" fill="#1B1918"/>
</svg>
