<svg viewBox="0 0 1024 1024" version="1.1" xmlns="http://www.w3.org/2000/svg" height="1em" width="1em">
  <path d="M224 0h576c123.6 0 224 100.4 224 224v576c0 123.6-100.4 224-224 224H224c-123.6 0-224-100.4-224-224V224C0 100.4 100.4 0 224 0z" fill="#FFFFFF"/>
  <path d="M172 512.8c0 126 69.2 236 172 294.4 46.8 26.4 100.4 42.4 158 43.6h0.8c2.4 0 4.4 0.4 6.8 0.4h3.2c2.4 0 4.4 0 6.8-0.4h0.4c57.2-1.6 111.2-17.2 158-43.6 50-30.8 81.6-75.6 81.6-125.2v-0.8c0-4.8-0.4-10-0.8-14.8-62 44-150 71.6-247.6 71.6s-185.6-27.2-247.6-71.6c-56.8-40-91.6-94-91.6-153.6z" fill="#885A12"/>
  <path d="M263.6 666.8c63.2 45.2 150.4 71.2 248.4 71.2V512c-130 0-236.8-68-248-154.4-0.8-4.8-1.2-10-1.2-15.2 0-50 31.6-94.8 81.6-125.6C241.2 274.8 172 385.2 172 512c0 59.6 32.4 112.4 91.6 154.8z" fill="#C4A15F"/>
  <path d="M263.6 356.8c62-44 150-71.6 248-71.6v226.4c-130 0-236.8-68-248-154.8" fill="#FEFEFE"/>
  <path d="M514.4 172h-7.2c-61.6 1.6-115.2 17.2-162 44-50 31.2-81.6 76-81.6 126v0.4c0 4.8 0.4 10 1.2 14.8 62-44 150-71.6 247.6-71.6s185.6 27.6 247.6 71.6c56.4 40.4 91.2 94.8 91.2 154.8 0-126.8-69.2-237.6-172-295.6-46.8-27.2-100.8-42.8-158-44.4h-6.8z" fill="#885A12"/>
  <path d="M512.8 285.2v226.4c129.6 0 236 68 246.8 154.4 0.8 5.2 0.8 10 0.8 15.2 0 49.6-31.2 94.8-81.2 125.6 102.4-58.4 171.6-168.8 171.6-295.2 0-59.6-34.4-114-91.2-154.4-61.6-44.4-149.2-72-246.8-72z" fill="#C4A15F"/>
</svg>
