<svg viewBox="0 0 1025 1024" xmlns="http://www.w3.org/2000/svg" height="1em" width="1em">
  <path d="M0 512.1c0 43 23.6 80.4 58.6 100.2 16 9 34.2 14.4 53.8 14.9h.3c.8.1 1.5.1 2.3.1h1.1c.8 0 1.5 0 2.3-.1h.2c19.5-.5 37.8-5.9 53.8-14.9 17-10.5 27.7-25.7 27.7-42.6v-.2c0-1.7-.1-3.3-.3-5-21.1 15-51 24.3-84.3 24.3s-63.3-9.3-84.3-24.3C11.8 550.8 0 532.4 0 512.1z" fill="#885A12"/>
  <path d="M31.1 564.5c21.5 15.4 51.3 24.2 84.6 24.2v-77c-44.3 0-80.7-23.1-84.5-52.6-.2-1.7-.4-3.4-.4-5.1 0-17 10.7-32.2 27.8-42.8C23.6 431 0 468.6 0 511.7c0 20.4 11.1 38.4 31.1 52.8z" fill="#C4A15F"/>
  <path d="M31.2 458.9c21.1-15 51.1-24.4 84.5-24.4v77.1c-44.3 0-80.7-23.1-84.5-52.7" fill="#FEFEFE"/>
  <path d="M116.6 396h-2.4c-21 .6-39.3 5.9-55.3 15-17 10.6-27.7 25.9-27.7 42.9v.1c0 1.7.1 3.4.4 5 21.1-15 51.1-24.4 84.3-24.4 33.3 0 63.2 9.4 84.3 24.4 19.3 13.8 31.1 32.3 31.1 52.7 0-43.2-23.6-80.9-58.6-100.7-15.9-9.1-34.2-14.5-53.8-15h-2.3z" fill="#885A12"/>
  <path d="M116.1 434.5v77c44.1 0 80.3 23.1 84.1 52.6.2 1.7.3 3.4.3 5.2 0 17-10.7 32.3-27.7 42.8 34.9-19.9 58.4-57.5 58.4-100.6 0-20.3-11.8-38.9-31.1-52.6-20.9-15-50.8-24.4-84-24.4z" fill="#C4A15F"/>
  <path d="M489.8 516.4v3.3h-6.7v-68.3c.1-1.5.8-2.2 2.2-2.2h63.3c1.5.1 2.3.8 2.3 2.2v68.3h-6.7v-3.3h-54.4zm46.5-61.1c.6 1.7 1.2 3.4 1.8 5.3h3.6v6.1h-14.6c1.1 8.6 2.2 14.9 3.2 18.9 2-4.6 3.7-9.7 5-15.3l5.9 1.6c-2.3 8.8-5.1 15.8-8.3 21.2-.2.2-.3.4-.4.6.7 2.1 1.4 3.9 2.1 5.6.7 1.8 1.2 2.7 1.4 2.6.4-.1.7-.6.8-1.6.2-2.3.2-5 0-8.3l5.9 1.5c-.2 6.3-.9 10.9-2.2 13.8-.8 1.1-1.4 1.8-2.1 2-.7.3-1.5.4-2.2.4-1.5-.2-3-1.2-4.4-2.9-1.2-1.9-2.3-4.3-3.4-7.1-2.8 4-5.6 7.3-8.4 10.1l-5.1-3.9c1.5-1.4 2.9-2.9 4.4-4.3-7.7 1.9-16.2 3.1-25.4 3.6l-1.3-6.3c11.8-.9 20.7-2.2 26.9-3.9l1.2 5.3c2.2-2.7 4.1-5.1 5.6-7.3-2-6.8-3.8-15.5-5.2-26.2h-27.7v-6.1h27c-.2-1.9-.3-3.6-.4-5.3h-29.3c-.7 0-1 .3-.9.9v54.1h54.5v-54.2c0-.6-.3-.9-1-.9h-7zm-17.6 36.5c0 .6-.3.9-.8.9h-23.5c-.5-.1-.8-.3-.8-.9v-19.3c0-.5.3-.8.8-.8h23.5c.6 0 .8.3.8.8v19.3zm-6.4-14.6h-12.4c-.2 0-.3.1-.2.2v9.4c-.1.2 0 .3.2.3h12.4c.2 0 .3-.2.3-.3v-9.4c0-.1-.1-.2-.3-.2zm19.3-16.6c-.7-2.1-1.3-3.9-1.9-5.3H526c.1 1.7.3 3.5.5 5.3h5.1zm83.3 18.2c-2.9 2.7-6.2 5.2-9.9 7.6l-4.6-4.4c4.1-2.3 7.5-4.7 10.3-7.1-1-1-3.8-3.5-8.4-7.6-.6.6-1.3 1.2-1.9 1.8l-3.2-3.2-1.8 6.3c-.4 1.2-.4 2.1 0 2.7 2.8 4.1 4.7 8 5.6 11.8 1.2 6.1.7 10.5-1.5 13.5-1.4 1.6-2.9 2.5-4.5 2.9-2.7.5-5.8.2-9.4-.8v17.3H579v-69.7c0-.4.1-.6.2-.8.2-.1.4-.2.7-.2h17l4.5 2.8-3.6 11.9c2.3-2 4.1-3.9 5.3-5.7 1.6-2.5 3.2-6 4.7-10.4l5.8-.3c-.3.8-.5 1.6-.7 2.4h11.8l4.5 2.2c-.2.6-.4 1.1-.5 1.8 2 5 4 9.2 6 12.4 2.8-3.3 5.3-6.6 7.5-9.8h-9.5v-5.7H648l2.4 4c-2.8 5-6.8 10.3-12 16 3 3.5 7.1 6.9 12.1 10.3l-5.1 4.1c-2.8-2.1-5.4-4.4-7.7-6.7v5.3H615v-4.7zM592.3 455H586c-.2.1-.3.1-.4.2-.1 0-.2.2-.2.4v39.8c2.1 1.4 4.3 2 6.7 1.8.9-.2 1.6-.6 2.1-1.2.5-.7.8-1.6.9-2.8.5-4-1.8-10.2-6.7-18.8.1-.2.1-.4.1-.5l5.2-17.3c.3-1.1-.1-1.7-1.4-1.6zm18.3 44.4 5.1 3.8c-5.4 6.7-10.7 11.3-16 13.9l-4.2-5c6.1-3.2 11.1-7.5 15.1-12.7zm13-3.5h-18v-6h43.1v6H630v16.3c-.1 2.9-1.2 5-3.4 6.4-2.3 1.5-6.8 1.4-13.7-.5l.1-6.6c5.5 1.6 8.8 2 9.8 1.1.5-.4.7-1.1.7-2.1v-14.6zm-14.2-29.8c2 1.7 3.7 3.3 5.1 4.9.9-1.1 1.8-2.3 2.6-3.5.2-.3.3-.6.5-.9-3.2-2.1-6.5-4-9.9-5.5-.6.7-1.2 1.4-1.7 2.2 1 .7 2.1 1.7 3.4 2.8zm6-7.4c1.7.9 3.3 1.8 4.9 2.8.5-1.1 1-2.3 1.6-3.6.3-1.6.1-2.4-.5-2.4h-10.5c-.2.3-.3.5-.3.7 1.2.6 2.8 1.5 4.8 2.5zm.7 19h20.7c-4.4-4.8-8-9.9-10.8-15.4-2.9 6.6-6.1 11.5-9.4 14.9-.2.1-.4.3-.5.5zm18.2 25.8 5-4c3.6 3.6 7.3 8.3 11.1 14.1l-5.3 3.8c-4-6.2-7.6-10.8-10.8-13.9zm-316.7-55.9h6.7V483c-.3 9.9-2 17.6-5.3 23.1-2 3.3-4.5 5.8-7.4 7.7-3.2 2-7.7 3.7-13.4 5l-4.1-6.4c4.2-.4 8.3-1.5 12.2-3.4 7-3.8 10.8-11.5 11.3-23.1-5.4 4.2-11.9 8.4-19.4 12.8l-3.5-6.3c9.8-5.2 17.5-10.1 23.1-14.5v-30.3zm-16.2 5.8c4.1 4.5 8.3 10.4 12.5 17.8l-5.7 3.7c-4.6-7.6-8.7-13.5-12.3-17.5l5.5-4zm39.2-6v60c.1 1.1.4 2 1.1 2.7.8.7 1.7 1 2.7 1.1h11.3c.6 0 1.3-.3 2-.8.5-.3.8-3.5 1.2-9.8l6.6 1.1c-.6 8.3-1.3 12.8-2.1 13.4-1.6 1.8-3.2 2.7-4.8 2.7h-18c-1.6-.1-3.2-.9-4.8-2.3-1.3-1.4-1.9-2.9-1.9-4.5v-63.6h6.7zm22.9 7.9c-3.7 5.7-8.8 11.7-15.5 18.2l-5.1-4.5c6.9-7 12-12.9 15.3-17.9l5.3 4.2zm-16.2 22.1c5.6 3.3 11.6 8.1 18.2 14.4l-4.3 5.1c-7.1-6.5-13.1-11.3-18-14.2l4.1-5.3zm57.9 30.2h-10.6c-.5-.1-.8-.3-.8-.9v-12.5c0-.5.3-.8.8-.8h56.8c.6 0 .8.3.8.8v12.6c0 .6-.3.9-.8.9h-10l-2.1 5.1h19.5v6.1h-71.5v-6.1h20.2l-2.3-5.2zm52.6-16.5h-69.6v-5.5h69.6v5.5zm-28.9-18v-4.9h6.9v-3.8h-6.9v-4.9h6.9v-4h-7.2v-4.9h7.2v-4.2h5.5v4.2h6.7v4.9h-6.7v4h6.4v4.9h-6.4v3.8h6.7v4.9h-6.7v3.8h8.5c.7 0 1-.3 1-1v-28.4h6v32.2c0 1.8-.9 2.7-2.7 2.7h-62.3c-1.7 0-2.6-1-2.6-2.7v-32.2h6.1v28.4c0 .7.3 1 .9 1h8.3v-3.8h-6.9v-4.9h6.9v-4h-6.6v-4.9h6.6v-3.8h-6.9v-4.9h6.9v-4.2h5.5v4.2h6.1v4.9H410v3.8h6.1v4.9H410v4h6.4v4.9H410v3.8h9.6v-30.4h6v30.4h10.2v-3.8h-6.9zm-28.8 25.6c-.2 0-.3.1-.2.2v3.2l.2.3h45.8l.3-.3v-3.2l-.3-.2h-45.8zm32.6 14 1.9-4.1.4-1h-23.3l2.1 5.1h18.9zm293.8-.7c3 .9 5 1.1 5.8.6 1.2-.8 1.8-1.8 1.8-3.1v-22.1H715c-2 0-3-1-3-3.1v-11.8h-9.3l-.6 3.9c-1.9 6-7.5 10.9-16.7 14.6l-3.9-5.7c4-1.4 6.9-2.6 8.6-3.5 3.9-2.5 6-5.5 6.2-9.2h-15c-.4 0-.5.2-.5.5v46.6H674v-52c0-1.1.5-1.6 1.6-1.6h16.8l-3.2-7.4h-16.9v-6.4h32v-5.9h6.7v5.9h31.8v6.4h-17.1l-1.6 4.2-1.3 3.2h16.5c1.1 0 1.7.5 1.7 1.6v44.5c0 2.7-1.1 4.8-3.2 6.2-2.4 1.6-6.6 1.7-12.8.3l-.2-6.7h-36c-.6 0-.9-.3-.9-.9v-18.6c0-.6.3-.9.9-.9h37.4c.6 0 .9.3.9.9v18.7c-.1.4-.2.6-.6.8zm-31.7-14.4c-.2 0-.3.1-.2.3v7.7c0 .2 0 .3.2.4H720l.3-.4v-7.7c0-.2-.1-.3-.3-.3h-25.2zm20.6-31.5 3.1-7.4h-22.2l3 7.4h16.1zm18.7 15.3v-8.3c0-.4-.3-.5-.6-.5h-15v7.2c0 1.1.6 1.6 1.7 1.6h13.9zm70.6 38.3h-6.4v-15.5c-11.1 6.6-21.3 10.6-30.5 11.9l-2.5-6.4c11-1.6 21.2-5.3 30.8-11h-28.5v-6h30.8v-4.3h-26.8v-5.5h26.8v-4.7h-28.9v-5.5h17.3c-1.1-2.9-2.1-5.2-3.1-7.1h-17v-6H780c-1.7-3.5-3.3-6.1-4.7-8l5.2-3.2c2 2.5 3.8 5.6 5.5 9.5l-3.3 1.8h9.2v-12.3h6.1v12.1h7.1v-12.1h6.1v12.1h7.6l-2.4-1.8c3-3.9 5.2-7.1 6.4-9.8l5.2 3.2c-1.3 2.6-3.1 5.4-5.3 8.3h13v6H818l-2.8 7.1h18.1v5.5h-28.7v4.7h26.6v5.5h-26.6v4.3h30.6v6h-27.4c8.3 5.6 18.2 9.5 29.8 11.8l-3.3 6c-11.7-3.1-21.6-7.3-29.7-12.9v16.3zm3.8-47.1 3.1-7.1h-21.1l2.8 7.1h15.2zm57.4-7.6-5.6-4.2c8.3-4.4 13.7-8.9 16.3-13.4l6.1.4-.5 1.2c3.6 2.7 7.3 5.1 11 7.5l-4.5 5c-3.3-2.5-6.5-5-9.4-7.7-2.9 3.4-7.4 7.2-13.4 11.2zm7.5 21.2h-10.8v-6.1h10.8V472h-8.6v-6.1h24.4v6.1h-9.4v8.1h11.5v6.1h-11.5v22.3l10.8-2.5 1.1 6.2c-13.9 3.1-23.9 4.9-29.9 5.5l-.6-6.3 12.2-1.7v-23.5zm-5.3 4.1c1.3 7.3 2.1 12.7 2.2 16.1l-6.1.2c-.2-4.9-.9-10.1-2.1-15.7l6-.6zm22.5.6c-.8 4.9-1.7 9.1-2.7 12.6l-5.5-1.8c1.4-4.7 2.3-8.8 2.6-12.2l5.6 1.4zm37.7-2.6 3.4 5.1c-3.4 2.6-7.5 5.3-12.5 7.9 3.3 5.1 8.1 9.8 14.4 14.1l-5.5 4.2c-5.8-4.6-9.1-7.5-9.7-8.8-6-6.9-9.4-15.8-10-26.7h-6.7v26.6c4.4-1.1 8.2-2.3 11.3-3.6l1.9 6.1c-6.4 2.6-14.3 4.6-23.7 6.2l-1.5-6.3 5.6-1v-61.8c0-1.2.6-1.8 1.8-1.8h30c1.3 0 1.9.6 1.9 1.8v32c-.1 1.3-.7 2-2 2h-12.3c.3 4.5.9 8.3 1.9 11.4 5-2.7 8.9-5.2 11.7-7.4zm-5.7-24.8V456c-.1-1-.6-1.5-1.5-1.5h-17.9c-1 .1-1.5.6-1.5 1.5v7.4h20.9zm-20.9 6v8.7h19.9c.7 0 1-.3 1-1v-7.7h-20.9zm54.5 24.5-5.4-4.3c7.7-6.4 13.4-13.9 17.1-22.6l6.1 2.8c-2 4.1-4 7.7-5.9 10.6v39.2h-6.7v-30.6l-5.2 4.9zm15-44.3c-4.1 9.8-8.8 17.1-14.2 21.8l-5.7-3.9c6.2-5.6 10.8-12.3 13.7-20.3l6.2 2.4zm5.7 26.2v-6.7h47.1v6.7h-12.3v35.2c0 3-1.2 5.2-3.6 6.7-4.3 2.8-12 2.5-23.2-.8l.2-7c4 1.2 7.9 2.1 11.8 2.8 3.4.4 5.9 0 7.5-1.3.5-.4.7-1.1.7-2.2v-33.4h-28.2zm44-18.3h-41.5v-6.7h41.5v6.7zm-722.4 87.5h7l9.7 28.1h.1l9.7-28.1h6.9v34.4h-4.5V551h-.1l-9.8 28.5h-4.7L303 551v28.5h-4.5v-34.4zm56.5 33.6c-1.9.4-3.3.8-5.9.8-7.1 0-11.7-4.2-11.7-13.3 0-10 6.6-11.1 9.6-11.1 5.7 0 8.5 3.9 8.5 9.4v1.1h-13.6c0 4.4 2.2 10.5 8.7 10.5 2 0 3.4-.5 4.4-.8v3.4zm-3.9-16.1c0-1.5-.9-4.1-4.3-4.1-3.7 0-4.7 3.1-4.7 4.1h9zm28 17.2c0 6.8-3.8 9.6-10.8 9.6-3.6 0-6.1-.6-7.2-.8v-4.5c1.4.7 3.9 1.9 6.7 1.9 6.8 0 6.8-4.8 6.8-7.4V575h-.1c-.4 1.3-2.4 4-6.4 4-6.1 0-8-5.7-8-11.7 0-6.6 2.4-12.2 8.3-12.2 3.7 0 5.7 2.5 6.2 3.8h.1v-3.2h4.4v24.1zm-9.6-4.3c3.8 0 5.2-5 5.2-8.8 0-3.5-1.2-8.2-5.1-8.2-3.9 0-4.6 5.1-4.6 8.7 0 3 .6 8.3 4.5 8.3zm27.8.5h-.1c-.6 1.3-2.5 3.4-6 3.4-4.4 0-6.6-2.6-6.6-6.3 0-6.2 6.8-7.7 12.8-7.7v-4.1c-.4-2.3-1.9-3-3.6-3-2.7 0-3.7 1.7-3.7 3.6h-4.7c0-3.7 2.2-7 8.8-7 7.7 0 7.7 5.7 7.7 7.8v16h-4.4V576zm-.9-7.6c-3.5 0-7 1.6-7 4.6 0 1.8 1.2 3 2.6 3 3.1 0 5.3-3.5 5.3-6.2v-1.3h-.9zm24.3 11V545h4.5v34.4h-4.5zm12.6-23.8h4.4v5.1h.1c.8-2 2.6-5.7 7.4-5.7 5.4 0 6.2 4.9 6.2 7.9v16.6H447v-13c0-4.4 0-6.9-3.2-6.9-3.6 0-6.2 5-6.2 9.8v10.1h-4.4v-23.9zm36.7 23.5c-1.2.3-2.3.3-3.6.3-5.8 0-7.2-2.5-7.2-5.8v-15H455v-3.5h4.3v-5.6l4.5-2.8v8.4h6.6v3.5h-6.6v12.6c0 2.1.3 4.6 3.8 4.6.8 0 1.8-.1 2.4-.3v3.6zm20.7-.4c-1.9.4-3.3.8-5.9.8-7.1 0-11.7-4.2-11.7-13.3 0-10 6.6-11.1 9.6-11.1 5.7 0 8.5 3.9 8.5 9.4v1.1h-13.6c0 4.4 2.2 10.5 8.6 10.5 2 0 3.4-.5 4.5-.8v3.4zm-3.9-16.1c0-1.5-.9-4.1-4.3-4.1-3.6 0-4.7 3.1-4.7 4.1h9zm9.9-7h4.4v4.8h.1c.6-1.9 2.6-5.4 7.2-5.4v4.9c-4 0-7.3 2.1-7.3 9.4v10.1h-4.4v-23.8zm16.2 0h4.4v5.1h.1c.8-2 2.6-5.7 7.4-5.7 5.4 0 6.3 4.9 6.3 7.9v16.6h-4.4v-13c0-4.4 0-6.9-3.2-6.9-3.6 0-6.1 5-6.1 9.8v10.1H513v-23.9zm36.3 20.4h-.1c-.6 1.3-2.4 3.4-6 3.4-4.4 0-6.6-2.6-6.6-6.3 0-6.2 6.8-7.7 12.8-7.7v-4.1c-.4-2.3-1.9-3-3.6-3-2.6 0-3.7 1.7-3.7 3.6h-4.7c0-3.7 2.2-7 8.7-7 7.7 0 7.7 5.7 7.7 7.8v16h-4.4V576zm-.9-7.6c-3.5 0-7 1.6-7 4.6 0 1.8 1.2 3 2.6 3 3 0 5.3-3.5 5.3-6.2v-1.3h-.9zm24.8 10.7c-1.2.3-2.4.3-3.6.3-5.8 0-7.2-2.5-7.2-5.8v-15H558v-3.5h4.3v-5.6l4.5-2.8v8.4h6.6v3.5h-6.6v12.6c0 2.1.3 4.6 3.8 4.6.8 0 1.8-.1 2.4-.3v3.6zm4.1-29V545h5.4v5.1h-5.4zm.4 5.6h4.5v23.7h-4.5v-23.7zm10.4 11.5c0-7.5 3.3-12.2 10.4-12.2 7.1 0 10.4 4.7 10.4 12.2 0 7.4-3.3 12.2-10.4 12.2-7.1 0-10.4-4.8-10.4-12.2zm10.4 8.8c4.8 0 5.4-5 5.4-8.8 0-3.8-.6-8.8-5.4-8.8-4.9 0-5.5 5-5.5 8.8.1 3.8.7 8.8 5.5 8.8zm16.8-20.4h4.4v5.1h.1c.8-2 2.6-5.7 7.4-5.7 5.4 0 6.2 4.9 6.2 7.9v16.6h-4.4v-13c0-4.4 0-6.9-3.2-6.9-3.6 0-6.2 5-6.2 9.8v10.1h-4.4v-23.9zm36.2 20.4h-.1c-.6 1.3-2.4 3.4-6 3.4-4.4 0-6.6-2.6-6.6-6.3 0-6.2 6.8-7.7 12.8-7.7v-4.1c-.4-2.3-1.9-3-3.6-3-2.6 0-3.7 1.7-3.7 3.6h-4.7c0-3.7 2.2-7 8.7-7 7.7 0 7.7 5.7 7.7 7.8v16h-4.4V576zm-.8-7.6c-3.5 0-7 1.6-7 4.6 0 1.8 1.2 3 2.5 3 3 0 5.3-3.5 5.3-6.2v-1.3h-.8zm12.5 11V545h4.5v34.4h-4.5zm44.8-2c-1.4.6-4.9 2-8.8 2-7.4 0-13.4-4.7-13.4-18 0-9.1 2.9-17.2 12.7-17.2 6.9 0 10.8 4.1 10.8 9.9h-5.7c0-2.1-.6-5.9-5.3-5.9-6.3 0-7.2 7.8-7.2 12.5 0 8.6 2 14.9 9 14.9 4.1 0 7-2.1 7.8-2.7v4.5zm3.1-10.2c0-7.5 3.3-12.2 10.4-12.2 7.1 0 10.4 4.7 10.4 12.2 0 7.4-3.3 12.2-10.4 12.2-7 0-10.4-4.8-10.4-12.2zm10.5 8.8c4.8 0 5.4-5 5.4-8.8 0-3.8-.6-8.8-5.4-8.8-4.9 0-5.5 5-5.5 8.8 0 3.8.6 8.8 5.5 8.8zm16.7-20.4h4.4v4.8h.1c.7-1.9 2.3-5.3 6.5-5.3 4.1 0 5.6 2.9 5.9 5.1h.1c.8-2 2.7-5.1 6.6-5.1 5.5 0 6.3 4.9 6.3 7.9v16.6h-4.4v-13c0-4.5 0-6.9-3.2-6.9-2.7 0-5.1 4.5-5.1 8.5v11.4H751v-13c0-4.4 0-6.9-3.1-6.9s-5.3 5-5.3 9.8v10.1h-4.4v-24zm37.1 0h4.4v4.8h.1c.7-1.9 2.3-5.3 6.5-5.3 4.1 0 5.6 2.9 5.9 5.1h.1c.8-2 2.7-5.1 6.6-5.1 5.5 0 6.3 4.9 6.3 7.9v16.6h-4.4v-13c0-4.5 0-6.9-3.2-6.9-2.7 0-5.1 4.5-5.1 8.5v11.4H788v-13c0-4.4 0-6.9-3.1-6.9s-5.3 5-5.3 9.8v10.1h-4.4v-24zm52.8 23.1c-1.9.4-3.3.8-5.9.8-7.1 0-11.7-4.2-11.7-13.3 0-10 6.6-11.1 9.6-11.1 5.7 0 8.5 3.9 8.5 9.4v1.1H815c0 4.4 2.2 10.5 8.7 10.5 2 0 3.4-.5 4.4-.8v3.4zm-3.9-16.1c0-1.5-.9-4.1-4.3-4.1-3.7 0-4.7 3.1-4.7 4.1h9zm9.9-7h4.4v4.8h.1c.6-1.9 2.6-5.4 7.2-5.4v4.9c-4 0-7.3 2.1-7.3 9.4v10.1h-4.4v-23.8zm32.1 23c-1.7.5-3.7.9-6.4.9-8.8 0-11.3-7.3-11.3-13.1 0-6.5 3-11.4 9.8-11.4 6.6 0 8.2 4.3 8.2 8.1h-5c0-1.8-.3-4.7-3.5-4.7-2.9 0-4.7 2.8-4.7 7.1 0 4.6 1.9 10.4 9.2 10.4 1.2 0 2.4-.1 3.7-.5v3.2zm5-28.5V545h5.4v5.1h-5.4zm.4 5.6h4.5v23.7h-4.5v-23.7zm23.2 20.3h-.1c-.6 1.3-2.4 3.4-6 3.4-4.4 0-6.6-2.6-6.6-6.3 0-6.2 6.8-7.7 12.8-7.7v-4.1c-.4-2.3-1.9-3-3.6-3-2.7 0-3.7 1.7-3.7 3.6h-4.7c0-3.7 2.2-7 8.8-7 7.6 0 7.6 5.7 7.6 7.8v16h-4.4V576zm-.9-7.6c-3.5 0-7 1.6-7 4.6 0 1.8 1.2 3 2.6 3 3 0 5.3-3.5 5.3-6.2v-1.3h-.9zm12.5 11V545h4.5v34.4h-4.5zm24.5-34.3H941c3.4 0 9.1 1.3 9.1 8.2 0 5.7-3.8 7.3-5.4 7.9v.1c2.6.4 7.1 2.2 7.1 8.8 0 8.4-6.8 9.4-11.2 9.4H931v-34.4zm5 14.2h3.2c2.3 0 5.9-.6 5.9-5.2 0-4.9-3.5-5.1-6.2-5.1h-2.9v10.3zm0 16.1h3.9c4.5 0 6.8-2.6 6.8-5.9 0-5.7-5.3-6.3-7.3-6.3h-3.4v12.2zm32.2.6c-.7 1.3-2.6 3.4-6.1 3.4-4.4 0-6.6-2.6-6.6-6.3 0-6.2 6.8-7.7 12.8-7.7v-4.1c-.4-2.3-1.9-3-3.6-3-2.6 0-3.7 1.7-3.7 3.6h-4.7c0-3.7 2.2-7 8.8-7 7.6 0 7.6 5.7 7.6 7.8v16h-4.4V576zm-.9-7.6c-3.5 0-7 1.6-7 4.6 0 1.8 1.2 3 2.6 3 3 0 5.3-3.5 5.3-6.2v-1.3h-.9zm12.5-12.8h4.4v5.1h.1c.8-2 2.6-5.7 7.4-5.7 5.4 0 6.2 4.9 6.2 7.9v16.6h-4.4v-13c0-4.4 0-6.9-3.2-6.9-3.6 0-6.1 5-6.1 9.8v10.1h-4.4v-23.9zm25.3-10.5h4.4v20.1l8.2-9.5h5.6l-8.7 10.4 9.5 13.4h-5.6l-8.9-12.3h-.1v12.3h-4.4v-34.4z" fill="#231916"/>
</svg>
