<svg viewBox="0 0 1024 1024" xmlns="http://www.w3.org/2000/svg" height="1em" width="1em">
  <path d="M224 0h576q224 0 224 224v576q0 224-224 224H224Q0 1024 0 800V224Q0 0 224 0Z" fill="#FFF"/>
  <path d="m342.372 712.048 32.592 84.848 31.776-84.848h48.796L467 860h-33.008l-8.508-106.924L389.424 860h-29.732l-34.056-98.96-8.508 98.96H284l13.608-147.952h44.76zm245.064 0v19.288h-44.92V860h-34.24V731.336h-45.78v-19.288h124.94zM704 712a32 32 0 0 1 32 32v13.58a32 32 0 0 1-17.288 28.424A31.984 31.984 0 0 1 736 814.42V828a32 32 0 0 1-32 32H599.116V747.608h34.032v17.24h.016v34.812h-.016v34.48h50.832a17.24 17.24 0 1 0 0-34.48h-33.796v-34.812h33.8a17.24 17.24 0 1 0 0-34.48h-84.872V712H704zM315.392 265.92c-29.544 124.928 19.696 240 131.312 292.6 13.132 3.288 22.98 9.864 36.108 13.152 13.132 3.288 22.98 6.576 36.112 6.576 13.132 3.288 22.98 3.288 36.112 3.288 72.22 0 141.16-36.168 196.964-95.344-36.112 92.056-111.612 141.368-193.68 154.52C545.188 644 535.336 644 522.208 644c-13.132 0-22.98-3.288-36.112-3.288-29.544-3.288-59.088-13.152-85.352-29.588-74.748-42.312-120.54-116.848-124.632-198.084l-.112-2.464v-16.44c0-42.74 16.412-88.768 39.392-128.22zm239.64 62.464 36.112 108.492-108.332 34.272-36.108-106.6 108.332-36.164zm0-164.384c26.264 0 55.808 6.576 82.072 23.012 121.46 72.332 98.48 220.276 52.52 269.592 29.548-115.068-42.672-207.124-134.588-226.852-12.312-3.08-21.736-3.272-33.688-3.284H516.5c-11.952.012-21.376.2-33.688 3.284-36.108 6.576-75.5 29.592-108.328 65.756 9.848-36.164 52.52-88.768 108.328-115.068 13.132-6.576 22.98-9.864 36.112-13.152C532.056 164 541.904 164 555.036 164z" fill="#ED1C24"/>
</svg>
