<svg viewBox="0 0 1024 1024" version="1.1" xmlns="http://www.w3.org/2000/svg" height="1em" width="1em">
  <path d="M15.025 557.17l7.358 19.028 7.172-19.029h11.015l2.589 33.18h-7.451l-1.921-23.98-8.14 23.98H18.935l-7.687-22.193-1.92 22.193h-7.48l3.073-33.18H15.025z m55.319 0v4.325h-10.14v28.854H52.475v-28.854H42.141v-4.326h28.203z m28.619-0.012a4.917 4.917 0 0 1 4.917 4.918v7.563a4.913 4.913 0 0 1-2.225 4.116 4.907 4.907 0 0 1 2.225 4.114v7.563a4.917 4.917 0 0 1-4.917 4.917H72.98v-25.205h7.683v3.867h0.004v7.806h-0.004v7.733h11.5a3.866 3.866 0 0 0 0-7.732h-7.655v-7.808l7.655 0.001a3.866 3.866 0 0 0 0-7.732H72.98v-4.12h25.983zM8.907 456.1c-6.677 28.316 4.45 54.396 29.672 66.318 2.968 0.745 5.193 2.236 8.16 2.981 2.968 0.745 5.193 1.49 8.16 1.49 2.967 0.745 5.193 0.745 8.16 0.745 16.32 0 31.898-8.196 44.509-21.609-8.16 20.864-25.222 32.042-43.767 35.022-2.967 0.745-5.193 0.745-8.16 0.745-2.967 0-5.193-0.745-8.16-0.745-6.676-0.745-13.353-2.98-19.287-6.706C11.303 524.75 0.955 507.857 0.03 489.445L0.005 488.886v-3.725c0-9.687 3.71-20.12 8.902-29.061z m54.152 14.158l8.16 24.59-24.4 7.862-8.24-24.256 24.48-8.196z m0-37.258c5.935 0 12.611 1.49 18.546 5.216 27.447 16.393 22.254 49.925 11.869 61.103 6.676-26.08-9.644-46.945-30.415-51.416-2.967-0.745-5.193-0.745-8.16-0.745-2.967 0-5.192 0-8.16 0.745-8.16 1.49-17.061 6.706-24.48 14.903 2.226-8.197 11.87-20.119 24.48-26.08 2.968-1.49 5.193-2.236 8.16-2.98 2.967-0.746 5.193-0.746 8.16-0.746z" fill="#ED1C24"/>
  <path d="M460.897 446.292v28.083h-32.815c-0.302 7.01 0.13 11.016 1.297 12.016 2.89-0.041 13.397-0.041 31.518 0v7.967h-29.627c2.287 7.878 6.043 14.495 11.269 19.85 7.837 8.032 10.686 8.764 13.071 8.508 2.386-0.255 4.346-1.705 5.287-4.12 0.628-1.61 0.966-3.536 1.015-5.776h7.355c-2.25 8.825-4.726 14.382-7.428 16.672-4.054 3.434-10.045 4.236-16.12 1.183-6.075-3.054-17.267-14.354-22.003-24.008-3.157-6.436-5.022-10.54-5.596-12.31H384.865v24.239l24.503-3.18v4.513c-18.76 6.551-29.122 10.133-31.09 10.746-1.932-0.518-4.102-1.594-6.511-3.229v-81.154h89.13z m387.555 25.906v6.843h-10.552v16.247h13.183v5.148h-13.183v19.378l13.183-2.79v4.446l-21.175 11.022h-4.198v-32.056h-9.558v-5.148h9.558V479.04h-9.558v-6.843h32.3z m-662.558-29.14v16.25h11.056v5.082l-11.056 0.037v20.42c0.637-0.153 1.842-0.712 3.615-1.675 1.773-0.963 4.253-0.963 7.44 0l-11.402 9.582v36.057c0 1.358-1.1 2.459-2.459 2.459H164.775v-9.365h8.665a1.23 1.23 0 0 0 1.229-1.214c0.108-9.203 0.103-17.116-0.015-23.738-2.247 0.91-4.994 3.171-8.24 6.784-4.793-6.502-6.517-9.754-5.17-9.754 1.347 0 5.817-2.193 13.41-6.58V464.39h-13.41v-5.082h13.41v-16.25h11.24z m556.84 0.668v78.592h11.239v-78.592h13.683v78.592h31.367v8.76H698.391v-8.76h30.381v-78.592h13.961z m-73.119 13.687l-8.897 11.829h23.641v59.378c0 1.358-1.1 2.459-2.458 2.459h-15.428v-6.81h4.106c0.679 0 1.229-0.55 1.229-1.229v-47.682H604.875v55.72h-13.867v-61.836h22.607l-7.454-11.83h13.452l5.983 11.83h23.391c3.555-5.745 5.332-9.688 5.332-11.83 4.708-0.095 9.806-0.095 15.296 0z m232.437-11.37v41.36H886.635c1.732 8.553 3.325 14.251 4.778 17.094 1.91 0 5.145-3.69 9.704-11.068 2.154 1.781 4.67 4.15 7.546 7.104-2.168 2.987-6.953 6.215-14.355 9.684 2 4.563 3.891 7.851 5.675 9.865 1.784 2.015 5.083 4.588 9.898 7.72-0.702 0.916-1.511 2.008-2.428 3.277-3.77-0.632-14.303-5.785-22.964-18.628-2.798-4.148-6.156-12.276-10.074-24.384l-0.214-0.665h-8.302v35.84l12.716-4.428c2.463 0.582 3.57 1.599 3.318 3.05-0.724 0-6.581 2.983-17.573 8.95l-0.488 0.265h-8.747v-85.036h46.927z m-368.725 40.46v42.117c0 1.358-1.1 2.459-2.458 2.459h-16.586v-8.621h7.271c0.68 0 1.23-0.55 1.23-1.23v-34.724h10.543z m13.705 24.3c13.936 5.062 21.546 7.989 22.83 8.78-1.91 2.947-6.42 8.278-6.42 9.887 0 1.072-8.054-4.375-24.162-16.342l7.752-2.325z m-311.694-68.389c1.46 0 3.293 3.548 5.499 10.643-17.19 1.671-27.197 2.03-30.023 1.079 0.33 6.369 0.33 12.398 0 18.088h30.023v6.538h-8.054v49.818H222.645v-49.818h-11.832v20.049c0 8.02-9.815 30.68-15.755 30.68h-5.068v-3.277c2.124-0.656 4.209-2.85 6.254-6.581 3.038-5.541 5.09-8.068 5.132-27.757v-3.006c0.002-19.028-0.002-33.099-1.359-35.813-1.413-2.828 0.42-5.547 3.724-5.547 3.305 0 12.429 0.266 18.904-1.51 6.475-1.777 10.502-3.586 12.692-3.586z m117.228 3.878v7.424h-28.495v68.176h28.495v7.6h-72.463v-7.6h29.02v-68.176h-24.073v-7.424h67.516z m160.893 63.405l3.07 4.536c-16.618 8.09-25.803 13.168-27.555 15.237-1.667-3.966-4.825-7.172-6.466-8.53 2.87-1.349 13.187-5.096 30.951-11.243z m505.014-37.5v5.83h-20.326v48.541c0 1.358-1.1 2.459-2.459 2.459h-20.948v-10.6h9.056c0.678 0 1.229-0.55 1.229-1.23v-39.17h-30.238v-5.83h63.686zM951.01 469a160.222 160.222 0 0 1-7.226 12.55v47.478h-11.098v-37.548l-10.498 8.232-3.05-4.592c7.4-6.854 12.235-11.756 14.505-14.707 6.347-8.25 8.04-14.542 9.023-15.02 2.263-1.1 2.263 3.607 8.344 3.607z m-799.062 27.954l9.296 5.26c-12.762 17.578-19.671 26.367-20.727 26.367-1.055 0-3.023-0.551-5.905-1.654 4.96-6.613 8.514-11.776 10.661-15.488 2.147-3.712 4.372-8.54 6.675-14.485z m118.859 0l9.296 5.26c-12.763 17.578-19.672 26.367-20.727 26.367-1.055 0-3.024-0.551-5.905-1.654 4.96-6.613 8.514-11.776 10.66-15.488 2.148-3.712 4.373-8.54 6.676-14.485z m392.52 2.155v23.21H613.615v-23.21h49.713z m-10.554 6.054h-29.123v11.861h29.123v-11.86z m-119.14-62.988v4.118h36.331v6.532h-39.295l-4.429 7.47h40.198v7.469h-44.02l-4.651 7.595h58.636v5.476h-28.802c1.038 1.69 15.772 11.442 21.114 13.568 5.342 2.126 9.45 2.652 7.688 4.878-1.761 2.225-3.614 7.296-5.014 7.296-0.646 0-6.1-3.165-16.138-11.49-8.069 6.237-12.32 9.595-12.754 10.076-1.388-0.228-3.102-0.809-5.142-1.74l11.131-14.343a627.645 627.645 0 0 1-8.667-8.245h-27.848c-1.011 1.095-3.335 3.268-6.971 6.518l9.502 16.852c-2.516 1.23-4.104 2.098-4.766 2.605-1.253-2.092-5.2-6.489-11.84-13.19a2425.895 2425.895 0 0 1-16.336 14.104c-2.297 1.853-4.38 0.56-6.25-3.876 8.33-4.304 16.668-11.975 25.012-23.013H476.135v-5.374h27.916c1.252 0 3.102-2.566 5.548-7.697h-25.942v-7.47h29.732c0.906 0 2.366-2.49 4.379-7.469h-37.648v-6.532h39.317v-4.118h14.196z m178.468 16.981c1.047 7.626 2.285 14.294 3.715 20.004 1.43 5.71 4.032 14.377 7.806 26.003-0.786 1.953-2.306 2.929-4.559 2.929-3.379 0-21.115-43.826-18.603-43.826 1.675 0 5.556-1.704 11.64-5.11z m84.651 2.03s0.894 4.247-2.548 11.72c-2.295 4.98-7.337 16.71-15.127 35.186h-6.09c3.338-9.762 5.745-17.58 7.22-23.453 1.476-5.873 2.997-13.69 4.564-23.452h11.981zM633.348 479.16c-13.473 12.16-20.89 18.125-22.253 17.897-1.363-0.229-2.045-1.177-2.045-2.846l11.875-15.051h12.423z m22.88 0c-0.76 6.932-0.132 10.399 1.887 10.399h8.358v4.652h-17.895a2.459 2.459 0 0 1-2.459-2.459V479.16h10.11z m-394.262-10.15c3.173 2.162 5.587 3.85 7.241 5.063 1.655 1.214 4.172 3.142 7.55 5.785l-6.103 6.715-0.012 0.013s-2.034-2.452-6.425-6.728c-1.16-1.131-3.302-3.06-6.424-5.785z m-118.859 0c3.173 2.162 5.587 3.85 7.242 5.063 1.655 1.214 4.171 3.142 7.55 5.785l-6.104 6.715-0.012 0.013s-2.033-2.452-6.424-6.728c-1.162-1.131-3.303-3.06-6.425-5.785z m270.676 5.185h-28.833v12.24c16.35 0.093 26.465 0.093 30.346 0-0.64-0.972-1.145-5.052-1.513-12.24z m477.332-4.15h-24.968v11.506h24.968v-11.505z m42.6-19.513c3.915-5.58 7.161-10.584 8.564-7.317 0.935 2.177 2.806 3.433 5.614 3.767-4.678 5.962-8.31 10.4-10.895 13.313-2.585 2.913-6.62 7.116-12.108 12.61l-6.686-2.86c7.731-9.288 12.902-15.793 15.511-19.513z m-109.014-8.304c1.55 1 4.726 2.37 9.53 4.11-3.948 4.937-6.696 8.578-8.243 10.925h25.095v5.601h-29.595l-8.19 7.825-4.565-2.951c4.456-5.202 7.42-8.962 8.895-11.28 4.201-6.605 5.886-11.99 7.073-14.23z m-377.138 10.597h-62.613v14.939h62.613v-14.939z m443.552-0.037h-24.968v11.505h24.968v-11.505z m-747.288-10.373c3.22 2.29 5.713 4.117 7.48 5.483 1.769 1.366 4.407 3.505 7.917 6.416-2.557 3.793-5.196 5.97-7.916 6.53 0-0.862-4.125-5.178-12.374-12.946z m118.86 0c3.218 2.29 5.712 4.117 7.48 5.483 1.767 1.366 4.406 3.505 7.916 6.416-2.558 3.793-5.196 5.97-7.917 6.53 0-0.862-4.124-5.178-12.373-12.946z m374.89-2.653l4.686 9.208h44.378v5.232h-98.13v-5.232h43.751l-5.002-9.208h10.317z m377.766 6.282v6.744h-55.421v-6.744h55.421z" fill="#585755"/>
  <path d="M133.998 585.32l19.919-20.901h-19.92v-4.11h26.894v4.337l-19.65 20.302h19.65v4.172h-26.893v-3.8z m36.9-25.011v11.875h16.484V560.31h6.165v28.811h-6.165v-12.888h-16.484v12.888h-6.165v-28.811h6.165z m54.519 0v4.11H207.025v7.786h17.262v4.13H207.025v8.613h19.178v4.172h-24.973v-28.811h24.187z m25.758 0v20.268c0 1.518-0.287 2.818-0.86 3.899a7.498 7.498 0 0 1-2.311 2.65c-0.967 0.684-2.093 1.188-3.376 1.51-1.284 0.323-2.144 0.484-4.057 0.484-1.275 0-2.731-0.36-4.368-1.077v-4.211c1.534 0.608 2.481 0.964 2.84 1.067 0.54 0.155 1.075 0.232 1.605 0.232 0.428 0 0.899-0.06 1.412-0.182 0.514-0.12 0.997-0.325 1.45-0.614a3.68 3.68 0 0 0 1.143-1.169c0.309-0.49 0.463-1.104 0.463-1.843v-21.014h6.059z m11.525 0v28.811h-5.762v-28.811h5.762z m24.366 0l12.132 28.811h-5.876l-3.568-8.427h-11.942c-0.38 0.928-0.77 1.86-1.168 2.8l-0.604 1.414a269.203 269.203 0 0 0-1.772 4.213h-5.805l12.132-28.811h6.47z m-2.667 5.889h-1.271l-3.968 10.17h9.077l-3.838-10.17z m27.115-5.89l14.591 21.914v-21.913h5.749v28.811h-6.48L310.71 567v22.12h-5.75v-28.811h6.554z m33.735 13.456c0 1.804 0.266 3.402 0.799 4.794 0.532 1.391 1.254 2.563 2.166 3.514a9.202 9.202 0 0 0 3.182 2.17c1.21 0.497 2.493 0.745 3.848 0.745a7.937 7.937 0 0 0 3.267-0.713 10.744 10.744 0 0 0 2.892-1.898 10.952 10.952 0 0 0 2.166-2.738 8.894 8.894 0 0 0 1.09-3.23h-9.972v-4.154h15.586v16.132h-4.284l-0.677-3.482a16.851 16.851 0 0 1-2.142 1.646 17.22 17.22 0 0 1-2.457 1.332c-0.855 0.378-1.742 0.679-2.662 0.902-0.92 0.224-1.83 0.336-2.734 0.336-2.42 0-4.603-0.388-6.547-1.164-1.944-0.776-3.602-1.85-4.973-3.22s-2.424-2.993-3.158-4.867-1.101-3.909-1.101-6.105c0-1.272 0.157-2.538 0.472-3.797a15.833 15.833 0 0 1 1.38-3.597 15.377 15.377 0 0 1 2.238-3.168 14.307 14.307 0 0 1 3.061-2.528 15.358 15.358 0 0 1 3.836-1.678c1.404-0.405 2.928-0.608 4.574-0.608 2.097 0 3.969 0.258 5.614 0.776 1.646 0.517 3.09 1.234 4.332 2.15a13.154 13.154 0 0 1 3.134 3.262 17.03 17.03 0 0 1 2.021 4.133h-5.93c-0.854-2.084-2.032-3.64-3.532-4.668s-3.38-1.542-5.64-1.542c-1.451 0-2.778 0.298-3.98 0.892a9.634 9.634 0 0 0-3.11 2.433c-0.871 1.028-1.549 2.224-2.033 3.588-0.484 1.363-0.726 2.814-0.726 4.352z m50.427-13.455l9.08 22.594 9.267-22.594h6.194v28.811h-5.495v-19.022l-7.474 19.022h-4.657l-7.614-19.084v19.084h-5.495v-28.811h6.194z m39.908 0v28.811h-5.762v-28.811h5.762z m12.316 0l14.591 21.913v-21.913h5.75v28.811h-6.48L447.095 567v22.12h-5.749v-28.811h6.553z m51.075 0v4.11h-10.598v24.701H482.705v-24.701h-10.623v-4.11h26.893z m20.524 0l12.132 28.811h-5.876l-3.568-8.427H510.245c-0.38 0.928-0.77 1.86-1.168 2.8l-0.604 1.414a269.203 269.203 0 0 0-1.772 4.213h-5.805l12.132-28.811h6.471z m-2.613 5.777h-1.386l-3.932 9.672h9.195l-3.877-9.672z m24.35-5.777v28.811h-5.763v-28.811h5.763z m21.092 13.036c0 2.014 0.287 3.755 0.861 5.223 0.575 1.469 1.33 2.682 2.269 3.64a9.106 9.106 0 0 0 3.19 2.14 9.752 9.752 0 0 0 3.602 0.702c1.245 0 2.377-0.22 3.396-0.66a9.132 9.132 0 0 0 2.68-1.752 9.815 9.815 0 0 0 1.905-2.486 11.46 11.46 0 0 0 1.091-2.863h5.822a16.675 16.675 0 0 1-1.783 4.646 14.034 14.034 0 0 1-3.105 3.755c-1.253 1.07-2.717 1.91-4.39 2.518-1.674 0.608-3.546 0.912-5.616 0.912-2.394 0-4.553-0.353-6.477-1.06-1.925-0.706-3.566-1.733-4.925-3.083-1.358-1.35-2.405-3.003-3.14-4.961-0.737-1.958-1.105-4.189-1.105-6.692 0-1.944 0.348-3.815 1.043-5.612a14.19 14.19 0 0 1 3.045-4.772c1.334-1.385 2.967-2.49 4.9-3.315 1.933-0.825 4.136-1.237 6.61-1.237 2.103 0 3.979 0.258 5.628 0.776 1.65 0.517 3.097 1.234 4.342 2.15a13.168 13.168 0 0 1 3.142 3.262 17.014 17.014 0 0 1 2.025 4.133h-5.943c-0.857-2.084-2.038-3.64-3.542-4.668s-3.388-1.542-5.652-1.542c-1.455 0-2.785 0.287-3.99 0.86a9.67 9.67 0 0 0-3.117 2.34c-0.874 0.985-1.553 2.136-2.038 3.45a12.02 12.02 0 0 0-0.728 4.196z m57.666 0.335c0 2.266-0.341 4.346-1.024 6.241-0.683 1.895-1.68 3.525-2.99 4.888-1.31 1.364-2.92 2.423-4.825 3.178-1.906 0.755-4.09 1.133-6.552 1.133-2.462 0-4.642-0.381-6.54-1.143-1.898-0.762-3.503-1.825-4.813-3.189-1.31-1.363-2.303-2.993-2.978-4.888-0.675-1.895-1.013-3.975-1.013-6.24 0-2.266 0.338-4.336 1.013-6.21 0.675-1.874 1.668-3.482 2.978-4.825 1.31-1.342 2.915-2.384 4.813-3.125 1.898-0.742 4.078-1.112 6.54-1.112 2.462 0 4.646 0.374 6.552 1.122 1.906 0.748 3.514 1.794 4.825 3.136 1.31 1.343 2.307 2.951 2.99 4.825 0.683 1.874 1.024 3.944 1.024 6.21z m-4.94 0.23c0-1.672-0.275-3.16-0.826-4.463-0.551-1.303-1.305-2.4-2.26-3.288a9.795 9.795 0 0 0-3.358-2.034c-1.283-0.467-2.665-0.7-4.146-0.7-1.499 0-2.89 0.233-4.172 0.7-1.283 0.467-2.394 1.145-3.333 2.034-0.938 0.889-1.679 1.985-2.221 3.288-0.542 1.303-0.814 2.79-0.814 4.462 0 1.672 0.272 3.166 0.814 4.483 0.542 1.316 1.283 2.432 2.221 3.347a9.469 9.469 0 0 0 3.333 2.093c1.283 0.48 2.673 0.72 4.172 0.72 1.48 0 2.863-0.24 4.146-0.72a9.735 9.735 0 0 0 3.358-2.093c0.955-0.915 1.709-2.03 2.26-3.347 0.551-1.317 0.827-2.81 0.827-4.483z m18.817-13.601l9.081 22.594 9.267-22.594h6.194v28.811h-5.495v-19.022l-7.474 19.022h-4.657l-7.614-19.084v19.084h-5.495v-28.811h6.193z m40.34 0l9.08 22.594 9.268-22.594h6.193v28.811h-5.495v-19.022l-7.474 19.022h-4.657l-7.613-19.084v19.084h-5.495v-28.811h6.193z m58.333 0v4.11h-18.392v7.786h17.262v4.13h-17.262v8.613h19.177v4.172h-24.972v-28.811h24.187z m34.018 8.447c0 1.267-0.418 2.454-1.253 3.562-0.834 1.109-2.104 2.07-3.809 2.882 0.809 0.22 1.503 0.537 2.083 0.95 0.58 0.413 1.054 0.877 1.423 1.394 0.37 0.516 0.642 1.067 0.817 1.652 0.176 0.585 0.264 1.167 0.264 1.745v4.172c0 0.524 0.163 1.136 0.488 1.838a11.96 11.96 0 0 0 1.331 2.169H761.105a5.308 5.308 0 0 1-1.015-2.086 7.101 7.101 0 0 1-0.159-0.97l-0.035-0.56a7.198 7.198 0 0 1-0.004-0.246v-4.379c0-0.427-0.092-0.853-0.277-1.28a3.092 3.092 0 0 0-0.883-1.146c-0.404-0.338-0.94-0.613-1.608-0.827-0.668-0.213-1.476-0.32-2.425-0.32h-9.385v11.814h-6.222v-28.811h15.607c1.898 0 3.585 0.247 5.061 0.743s2.72 1.143 3.73 1.941c1.011 0.8 1.775 1.7 2.294 2.706 0.518 1.005 0.778 2.024 0.778 3.057z m-21.707 4.998h9.615c0.774 0 1.508-0.117 2.2-0.35a6.155 6.155 0 0 0 1.837-0.969 4.55 4.55 0 0 0 1.256-1.5c0.306-0.585 0.46-1.232 0.46-1.938 0-0.691-0.145-1.334-0.433-1.927a4.584 4.584 0 0 0-1.202-1.533 5.857 5.857 0 0 0-1.823-1.015 6.849 6.849 0 0 0-2.295-0.372h-9.615v9.604z m32.618-0.41c0 2.015 0.287 3.756 0.861 5.224 0.574 1.469 1.33 2.682 2.268 3.64a9.106 9.106 0 0 0 3.19 2.14 9.752 9.752 0 0 0 3.602 0.702c1.246 0 2.378-0.22 3.397-0.66a9.132 9.132 0 0 0 2.68-1.752 9.815 9.815 0 0 0 1.904-2.486 11.46 11.46 0 0 0 1.092-2.863h5.822a16.675 16.675 0 0 1-1.783 4.646 14.034 14.034 0 0 1-3.105 3.755c-1.253 1.07-2.717 1.91-4.39 2.518-1.675 0.608-3.547 0.912-5.617 0.912-2.393 0-4.552-0.353-6.476-1.06-1.925-0.706-3.566-1.733-4.925-3.083-1.358-1.35-2.405-3.003-3.141-4.961-0.736-1.958-1.104-4.189-1.104-6.692 0-1.944 0.348-3.815 1.043-5.612a14.19 14.19 0 0 1 3.044-4.772c1.335-1.385 2.968-2.49 4.9-3.315 1.933-0.825 4.137-1.237 6.61-1.237 2.103 0 3.98 0.258 5.629 0.776 1.65 0.517 3.097 1.234 4.342 2.15a13.168 13.168 0 0 1 3.141 3.262 17.014 17.014 0 0 1 2.026 4.133h-5.943c-0.857-2.084-2.038-3.64-3.542-4.668s-3.388-1.542-5.652-1.542c-1.456 0-2.786 0.287-3.99 0.86a9.67 9.67 0 0 0-3.118 2.34c-0.873 0.985-1.552 2.136-2.037 3.45a12.02 12.02 0 0 0-0.728 4.196z m34.615-13.035v28.811h-5.763v-28.811h5.763z m22.444 0l12.132 28.811h-5.875l-3.569-8.427h-11.942c-0.38 0.928-0.77 1.86-1.168 2.8l-0.604 1.414a269.213 269.213 0 0 0-1.772 4.213h-5.805l12.133-28.811h6.47z m-2.742 5.782h-0.981l-4.123 9.576h8.716l-3.612-9.576z m26.635-5.782v24.64h17.053v4.171h-23.05v-28.811h5.997z m32.42 0h13.299c1.538 0 2.915 0.192 4.13 0.578 1.217 0.385 2.244 0.905 3.084 1.56 0.84 0.653 1.483 1.414 1.93 2.281 0.447 0.868 0.67 1.79 0.67 2.768 0 1.212-0.31 2.337-0.929 3.377-0.62 1.04-1.557 1.972-2.813 2.798 1.005 0.372 1.86 0.816 2.566 1.332 0.706 0.517 1.283 1.081 1.73 1.694 0.447 0.613 0.776 1.263 0.988 1.952 0.212 0.688 0.318 1.39 0.318 2.106a6.626 6.626 0 0 1-0.847 3.264 8.803 8.803 0 0 1-2.272 2.654c-0.949 0.75-2.043 1.346-3.283 1.786-1.24 0.44-2.526 0.661-3.86 0.661h-14.71v-28.811z m5.764 11.524h7.64c0.842 0 1.62-0.111 2.335-0.333 0.714-0.223 1.33-0.524 1.845-0.904a4.19 4.19 0 0 0 1.2-1.335c0.284-0.509 0.426-1.043 0.426-1.603 0-0.516-0.103-0.986-0.31-1.41a3.06 3.06 0 0 0-0.942-1.108c-0.421-0.316-0.959-0.56-1.613-0.732-0.653-0.172-1.42-0.258-2.297-0.258h-8.284v7.683z m0 13.446h8.669c0.788 0 1.58-0.088 2.377-0.263a7.417 7.417 0 0 0 2.154-0.82 4.856 4.856 0 0 0 1.563-1.422c0.403-0.576 0.604-1.273 0.604-2.09 0-0.67-0.184-1.312-0.551-1.925-0.368-0.612-0.898-1.145-1.59-1.597-0.692-0.452-1.537-0.813-2.535-1.083-0.998-0.27-2.119-0.404-3.362-0.404h-7.33v9.604z m43.575-24.97l12.132 28.811h-5.876l-3.568-8.427h-11.942c-0.38 0.928-0.77 1.86-1.169 2.8l-0.603 1.414a269.203 269.203 0 0 0-1.773 4.213h-5.804l12.132-28.811h6.47z m-2.754 5.811h-1.154l-4.043 9.638h9.106l-3.909-9.638z m27.201-5.811l14.592 21.913v-21.913h5.749v28.811h-6.48L963.827 567v22.12h-5.748v-28.811h6.552z m35.827 0v12.619l15.074-12.62h7.488l-13.963 11.628 14.333 17.184h-7.043l-11.268-13.796-4.621 3.78v10.016h-5.882v-28.811h5.882z" fill="#585755"/>
</svg>
