<svg viewBox="0 0 1024 1024" version="1.1" xmlns="http://www.w3.org/2000/svg" height="1em" width="1em">
  <path d="M284.6 487h23.7v-9.6h-23.7v-8.7h10.2l-4.3-11.1h16.2l4.3 11.2h12.9l4.3-11.1h16.2l-4.3 11.1h8.5v8.7h-23.4v9.6h23.3v8.7h-23.3v19.1h-16.9v-19.2h-23.7V487z m85.7 12.9c0 6.4-4.6 15.3-14.9 15.3h-13.8v-9.9h5.2c3.2 0 6.6-2.5 6.6-6.7v-45.1h-73.7v61.8h-16.9V444h45.4v-8.6h-45.3v-9.5h45.3v-6h16.9v6h45.3v9.4h-45.3v8.6h45.2v56z m134.8-18.4h-3.6v17.4c0 9.3-6 15.5-15.6 15.5h-60.5v-32.9h-4.5v-10.3h4.5v-25.8h-8.1l13.5-26.3h17.6l-3.5 6.9h56.7v9.4H440l-2.7 5.4c-0.5 1.1-1.1 2.1-2 2.9h66.2v27.6h3.6v10.2z m-88.5-13h-17.1l-7.4-20.7h17.1l7.4 20.7z m0-27.6h-17.1l-7.4-20.7h17.1l7.4 20.7z m-5.8 69.2c-0.6 2.5-2.6 4.2-5.6 4.2h-13.5l7.7-38.5H417l-6.2 34.3z m30.9-57.8v18.8h15l-3.7-14.5h15l3.6 14.6h13.1v-18.9h-43z m43.1 48.5v-19.3h-43.1v24.2h15.6l-4.2-17h15l4.2 17h7.2c5.2-0.1 5.3-2.6 5.3-4.9z m350.4 14.4c-6.5 0-9.4-4.1-9.4-8.2v-83.9h65.7v34.8c0 6.7-4.2 10.3-12.2 10.3h-36.7v9h18.9l9.7 11.4 6.8-11.2h17l-10.5 17.2c-1.5 2.4-3.3 2.9-5.7 2.9l15.2 17.7h-16.7c-3 0-5.2-1.4-7.3-3.9l-27.3-33.7v25.1c0 1.5 0.7 2.2 2.1 2.2h9.7v10.3h-19.3zM806 425.9h16.1v9.5h-20.4l-2.4 5.2c-1.2 2.6-3 3.2-5.9 3.2h-13.3l10.3-23h17.9l-2.3 5.1z m-22.8 30.7v-9.7h38.1v9.7h-13.5v12.7h13.5v9.7h-13.5v19.5c0 4.4 1.3 6.5 6.5 6.5h6.1v10.2h-13.9c-13.2 0-14.2-10.6-14.2-13.8v-22.5h-9.1v-9.7h9.1v-12.6h-9.1z m59.5-23.9v8.9h32.1v-8.9h-32.1z m0 17.5v8.4H871c3.2 0 3.7-1.3 3.7-4.3v-4.1h-32z m-148.3 17.9c-1.8 2.8-3.8 3.3-6.7 3.3h-13.5l9.2-17h-13.1V515h-17.1v-69.6H675l-4.1-10.9h-19.6v-9.4h46v-5.2h18.6v5.2h44.6v9.4h-20.2l-4.1 10.9h23.5v58.5c0 7-3.8 11.3-10.1 11.3h-13v-9.8h2.3c2.8 0 4.2-1.9 4.2-5.6v-45.4h-13.3l9.2 17h-13.5c-2.9 0-4.9-0.6-6.7-3.3l-7.2-13.7h-10l-7.2 13.7z m23.4-22.7l4.1-10.9h-32.7l4.1 10.9h24.5z m16.6 29.9v21.9c0 6-3.1 12.4-11.9 12.4h-43.4v-34.3h55.3zM719.7 497v-14.1h-25.6v18.6H715c3.1 0 4.7-1.6 4.7-4.5z m-168.3-25v27.7c0 4.2 1 5.1 4.3 5.1h24.5l-4.7 10.4h-28.6c-10.6 0-13-7.6-13-14.2v-18.4h-12.4l38.5-46.7h-18.3v11.8h-17V426h43.5l4.4-5.3h20.9l-4.3 5.3h41.4v22.2h-16.9v-12.3H581L551.4 472z m52.9 38.9l-43.9-49.1h21.9l17.4 18.9 11.4-18.8h19.1l-12.6 20.6c-1.9 2.9-4 3.5-7 3.5h-6l26.9 29.2h-17.2c-4.4 0-7.5-1.4-10-4.3z m329.5-70.7c-2.2 2.8-4.7 3.3-8.3 3.3h-15.6l17.5-22.8h21.4l-15 19.5z m4.7 75h-16.8v-42.8h-11.8l17.5-22.8h21.4l-10.3 13.3v52.3z m17.1-82.2v-10.2h66.4V433h-66.4z m41.7 66.1V461h-44.8v-10.6h71.5V461h-8.6v39.2c0 4.5-1.5 15-14.9 15h-29.9l-4.7-11.5h26.2c3.6 0 5.2-1.4 5.2-4.6zM305.7 601c-13.4-17.6-30.5-40.3-30.7-40.6l-1.2-1.6v44.5H262v-61.6h10.3c3 0 5 2.2 5 2.2l31.8 42.3v-44.5h12v61.6h-10.3c-3 0-4.4-1.3-5.1-2.3z m64.3-22.4l-1 0.2 17.8 24.5h-11.6c-1.3 0-3-0.5-4.1-2l-14.6-21.1h-12.2v23.1h-12.5v-61.6h26.1c8 0 14.4 1.7 19 4.9 4.3 3.2 6.4 7.8 6.4 13.9 0 9.5-4.9 16.2-13.3 18.1z m-14.3-7c9.7 0 14.6-3.7 14.6-11 0-3.2-1.3-5.8-4-7.7-2.5-1.6-6-2.4-10.3-2.4h-11.7v21l11.4 0.1z m85.8 13.3l7.5 7.8c-4.4 4.2-8.6 7.2-12.5 8.9s-8.5 2.5-13.6 2.5c-9.3 0-17.1-3-23-8.9-6-5.9-9-13.6-9-22.8 0-6 1.4-11.4 4.1-16 2.7-4.6 6.6-8.4 11.7-11.2 5-2.8 10.5-4.3 16.4-4.3 5 0 9.8 1.1 14.4 3.2 4.5 2.1 8.5 5 11.8 8.8l-7.8 7.4c-5.5-5.7-11.7-8.6-18.6-8.6-5.8 0-10.8 2-14.8 6s-6 9-6 14.8c0 4.1 0.9 7.7 2.7 10.9s4.3 5.7 7.6 7.5c3.2 1.8 6.9 2.7 10.8 2.7 3.4 0 6.5-0.6 9.3-1.9 2.7-1.3 5.7-3.6 9-6.8z m117.7-43.2h11.1l26 61.6h-10c-2.8 0-3.9-2.4-3.9-2.5l-4.8-10.6H552l-5.3 13.1h-12.8l25.3-61.6z m-4.3 38.9h19.9l-10.1-24.2-9.8 24.2z m-25.2 5.6c0 5.4-2.1 9.5-6.3 12.5-4.3 3-10.6 4.5-18.8 4.5h-27.4v-61.6h26.4c7.1 0 12.7 1.3 16.6 3.8 3.7 2.5 5.6 5.9 5.6 10.4 0 2.7-0.9 5.1-2.7 7.3-3.4 4.4-9.4 6.3-12.1 6.6 2.8 0.2 10.9 1.6 15.3 6.6 2.2 2.9 3.4 6.2 3.4 9.9z m-39.4-36.7v17.4h10.5c3.3 0 6.2-0.8 8.4-2.4 2.2-1.7 3.4-4 3.4-6.8 0-2.3-1-4.2-3.1-5.8-2-1.5-4.7-2.3-8-2.3l-11.2-0.1z m11.1 46c9.8 0 14.8-3.3 14.8-9.8 0-5.1-2.4-11.2-14.1-11.2h-11.9v21h11.2z m147.5 5.5c-13.4-17.6-30.5-40.3-30.7-40.6l-1.2-1.6v44.5h-11.8v-61.6h10.3c3 0 5 2.2 5 2.2l31.9 42.3v-44.5h12v61.6h-10.3c-3.1 0-4.4-1.3-5.2-2.3z m53.5-29.5l28.5 31.8h-12.7c-3 0-4.9-2.1-4.9-2.1l-26-29v28s0 1.4-0.8 2.2c-0.5 0.5-1.3 0.8-2.3 0.8h-9.9v-61.6h13V571.8l27.8-30.2h15l-27.7 29.9z" fill="#1B1918"/>
  <path d="M134.5 500.2c6.1-0.6 11.4-2 14.9-4.3v16.8c-6.6 4.3-19.5 5.6-33.3 3.8v12.9c13.8 1.8 26.6 0.5 33.3-3.8v16.7c-6.6 4.3-19.5 5.6-33.3 3.8v23.4H152c7.8 0 14.2-6.3 14.2-14.1v-69.6h-31.7v14.4zM66.4 516.8v-16.7c3.6-2.9 8.7-4.2 14.5-4.5v-9.8H47.2v69.6c0 7.7 6.4 14.1 14.2 14.1h36.7v-26.7c-11.4-1.6-24.6-2-31.7 3.6v-16.8c7.1-5.6 20.3-5.1 31.7-3.5v-12.9c-11.4-1.6-24.6-2-31.7 3.6z" fill="#D50030"/>
  <path d="M107.1 406.1C49 406.1 2 453.2 2 511.2c0 58.1 47 105.1 105.1 105.1 58 0 105.1-47.1 105.1-105.1s-47.1-105.1-105.1-105.1z m0.4 192.2c-47.8 0-86.6-38.8-86.6-86.7 0-47.8 38.8-86.6 86.6-86.6 47.9 0 86.7 38.8 86.7 86.6 0 47.9-38.8 86.7-86.7 86.7z" fill="#D50030"/>
  <path d="M153 461.2h-35.6v-6.7H98v6.7H60.4c-7.9 0-13.2 5.2-13.2 13.1v4.8H98v17.3c3.8 0.5 7.5 1.3 10.7 1.9 2.9 0.6 5.8 1.1 8.7 1.4V479.1h48.8v-4.8c0-7.9-5.2-13.1-13.2-13.1z" fill="#D50030"/>
  <path d="M98.1 526.1c-11.4-1.6-24.6-2.1-31.7 3.5v16.8c7.1-5.6 20.3-5.2 31.7-3.6v26.7H61.4c-7.8 0-14.2-6.4-14.2-14.1v-69.6h33.7v9.8c-5.8 0.3-10.9 1.6-14.5 4.5v16.7c7.1-5.6 20.3-5.2 31.7-3.6v12.9z m68.1 29.3c0 7.8-6.4 14.1-14.2 14.1h-35.9v-23.4c13.8 1.8 26.7 0.5 33.3-3.8v-16.7c-6.7 4.3-19.5 5.6-33.3 3.8v-12.9c13.8 1.8 26.7 0.5 33.3-3.8v-16.8c-3.5 2.3-8.8 3.7-14.9 4.3v-14.4h31.7v69.6z m0-76.3h-48.8v20.6c-2.9-0.3-5.8-0.8-8.7-1.4-3.2-0.6-6.9-1.4-10.7-1.9v-17.3H47.2v-4.8c0-7.9 5.3-13.1 13.2-13.1H98v-6.7h19.4v6.7H153c8 0 13.2 5.2 13.2 13.1v4.8z" fill="#D50030"/>
</svg>
