<svg viewBox="0 0 1024 1024" version="1.1" xmlns="http://www.w3.org/2000/svg" height="1em" width="1em">
  <path d="M224 0h576c123.6 0 224 100.4 224 224v576c0 123.6-100.4 224-224 224H224c-123.6 0-224-100.4-224-224V224C0 100.4 100.4 0 224 0z" fill="#FFFFFF"/>
  <path d="M600.8 475.6c20-1.6 36.8-6.4 48.4-14V516c-21.6 14-63.2 18-108 12.4v41.6c44.8 6 86.4 1.6 108-12.4V612c-21.6 14-63.2 18-108 12.4v76h116.4c25.2 0 45.6-20.4 45.6-45.6v-225.2h-102.4v46zM380 529.6v-54c11.6-9.2 28.4-13.6 46.8-14.8v-31.6H318v225.2c0 25.2 20.8 45.6 46 45.6h118.8v-86c-36.8-5.2-79.6-6.8-102.4 11.6v-54.4c23.2-18 65.6-16.8 102.4-11.2v-41.6c-36.8-6-79.6-7.2-102.8 11.2z" fill="#D50030"/>
  <path d="M512 171.2c-187.6 0-340 152.4-340 340s152 340 340 340c187.6 0 340-152.4 340-340s-152.4-340-340-340z m1.2 621.6c-154.8 0-280-125.2-280-280.4 0-154.8 125.6-280 280-280 154.8 0 280.4 125.6 280.4 280 0 155.2-125.6 280.4-280.4 280.4z" fill="#D50030"/>
  <path d="M482.8 559.6c-36.8-5.2-79.6-6.8-102.4 11.2v54.4c23.2-18 65.6-16.8 102.4-11.6V700H364c-25.2 0-46-20.4-46-45.6v-225.2h109.2v31.6c-18.4 1.2-35.2 5.6-46.8 14.8v54c23.2-18 65.6-16.8 102.4-11.6v41.6z m220.4 94.8c0 25.2-20.4 45.6-45.6 45.6h-116.4v-76c44.8 6 86.4 1.6 108-12.4v-54c-21.6 14-63.2 18-108 12.4v-41.6c44.8 6 86.4 1.6 108-12.4v-54c-11.6 7.2-28.4 12-48.4 14v-46.8h102.4v225.2z m0-246.8h-158v66.8c-9.2-0.8-18.8-2.8-28-4.8-10.4-2-22-4.4-34.8-6.4v-56H318V392c0-25.6 17.2-42.4 42.8-42.4h121.6V328h62.8v21.6h115.2c25.6 0 42.8 16.8 42.8 42.4v15.6z" fill="#D50030"/>
  <path d="M660.4 349.6h-115.2V328h-62.8v21.6H360.8c-26 0-42.8 16.8-42.8 42.4v15.6h164.4v56c12.4 2 24.4 4 34.8 6.4 9.2 2 18.8 3.6 28 4.8V408h158v-16c0-25.6-17.2-42.4-42.8-42.4z" fill="#D50030"/>
</svg>
