<svg viewBox="0 0 1024 1024" version="1.1" xmlns="http://www.w3.org/2000/svg" height="1em" width="1em">
  <path d="M224 0h576c123.6 0 224 100.4 224 224v576c0 123.6-100.4 224-224 224H224c-123.6 0-224-100.4-224-224V224C0 100.4 100.4 0 224 0z" fill="#FFFFFF"/>
  <path d="M526.4 296c235.6-32.8 362 34 328 246-24-3.6-48-6.8-72.4-10.4 46.8-164.8-67.6-208.4-255.2-197.2 0-12.8 0-25.6-0.4-38.4z m-301.6 149.6c51.6-61.2 121.2-108.8 216.4-136.4-0.8 16.8-1.6 33.6-2.4 50-58.8 20-105.2 50-139.2 90-24.8-1.2-50-2.4-74.8-3.6z m-49.6 78.8l57.6 2.4c-12.4 150.4 80.4 211.6 268.4 192-0.8 14.4-1.2 28.8-2 43.2-253.6 16.4-361.6-62.8-324-237.6z m418.8 171.2c50.4-20 97.2-45.6 135.6-85.2 22.4 2.8 44.4 5.2 66.8 8-51.6 63.6-118 104-199.6 121.2-1.2-15.2-2-29.6-2.8-44z" fill="#002C6F"/>
  <path d="M88 467.2c106.8 2.4 213.2-2.8 320-0.4-69.2 124.8-24 165.6 138.8 121.6-4.4 81.6-6.8 170.4-11.6 251.6-9.6-53.2-21.2-114-30.8-167.2-191.2 33.2-248.4-34.4-214-170.4-67.2-14.4-134.8-20.8-202.4-35.2zM486 184c7.6 59.2 2.8 122.8 11.2 182 167.2-24.4 263.2 10.4 202.8 175.6 79.2 13.2 156.8 6.4 236 19.6-116-2-230.4 16-346.4 14 80-125.2 36-169.2-130.4-131.6 4-84.8 17.6-173.6 26.8-259.6z" fill="#00B2E7"/>
</svg>
