<svg viewBox="0 0 1024 1024" xmlns="http://www.w3.org/2000/svg" height="1em" width="1em">
  <path d="M224 0h576q224 0 224 224v576q0 224-224 224H224Q0 1024 0 800V224Q0 0 224 0Z" fill="#FFF"/>
  <path d="m392.136 500.532 5.896-186.912c.456-16.332 6.352-27.22 26.764-27.22h25.86V224a12 12 0 0 1 12-12h96.664a12 12 0 0 1 12 12v62.4h25.856c20.864 0 26.308 10.888 26.76 27.22l5.9 186.008-86.188 49.9V437.472c0-15.424-12.704-27.672-27.672-27.672h-9.072c-15.424 0-27.672 12.704-27.672 27.672v112.964l-87.096-49.904zm244.816 12.904 159.612 98.54c13.98 8.56 20.5 19.088 10.292 36.692l-12.928 22.296 54.268 31.2a12 12 0 0 1 4.768 15.74l-.368.68-48.296 83.292a12 12 0 0 1-16.36 4.384l-54.344-31.24-12.928 22.296c-10.432 17.996-22.624 17.248-37.056 9.472l-164.72-87.92-.308-99.276 97.46 56.028c13.412 7.716 30.416 2.884 37.904-10.024l4.536-7.824c7.712-13.3 2.788-30.212-10.236-37.7l-98.244-56.48 86.948-50.156zm-249.904 0-159.612 98.54c-13.98 8.56-20.5 19.088-10.292 36.692l12.928 22.296-54.268 31.2a12 12 0 0 0-4.768 15.74l.368.68 48.296 83.292a12 12 0 0 0 16.36 4.384l54.344-31.24 12.928 22.296c10.432 17.996 22.624 17.248 37.056 9.472l164.72-87.92.308-99.276-97.46 56.028c-13.412 7.716-30.416 2.884-37.904-10.024l-4.536-7.824c-7.712-13.3-2.788-30.212 10.236-37.7l98.244-56.48-86.948-50.156z" fill="#E50619"/>
</svg>
