<svg viewBox="0 0 1024 1024" version="1.1" xmlns="http://www.w3.org/2000/svg" height="1em" width="1em">
  <path d="M345.071 479.42L389.12 436h60.755l45.567 42.658v57.13s-15.19 7.618-28.86 3.81c-14.429-3.81-20.504-9.903-20.504-9.903v-51.037h-51.642v60.94s25.061-12.189 40.25-6.095c15.949 6.094 32.656 19.806 50.883 15.235 18.986-4.57 18.986-12.188 18.986-12.188v42.658s-18.227 10.664-36.453 9.141c-18.227-1.523-24.302-9.903-37.972-12.95-13.67-3.047-17.468-2.285-25.821 0-8.354 2.286-18.227 7.618-18.227 7.618l-41.77-41.134 0.76-62.464z" fill="#D80313"/>
  <path d="M570.23 569.508V515.21c0-0.329 0.267-0.596 0.596-0.596h74.932c0.329 0 0.595 0.267 0.595 0.596v51.32c0 1.974-1.6 3.574-3.574 3.574h-21.945a0.596 0.596 0 0 1-0.596-0.596v-11.257c0-0.329 0.267-0.595 0.596-0.595h9.686a2.383 2.383 0 0 0 2.382-2.383v-5.282a0.596 0.596 0 0 0-0.595-0.596l-49.25-0.002a0.596 0.596 0 0 0-0.597 0.596v19.52a0.596 0.596 0 0 1-0.595 0.595h-11.04a0.596 0.596 0 0 1-0.595-0.596z m183.753-11.43h6.344a2.383 2.383 0 0 0 2.383-2.382V524.45a0.596 0.596 0 0 0-0.596-0.596h-68.131a2.383 2.383 0 0 1-2.383-2.383v-57.114c0-0.33 0.267-0.596 0.596-0.596h20.96a0.596 0.596 0 0 0 0.596-0.596v-6.912c0-0.33 0.266-0.596 0.595-0.596h13.526c0.246 0 0.467 0.151 0.556 0.38l2.838 7.343c0.09 0.23 0.31 0.38 0.556 0.38H760.4c0.329 0 0.596 0.268 0.596 0.597v40.077c0 1.974-1.6 3.574-3.575 3.574h-19.414a0.596 0.596 0 0 1-0.596-0.596v-10.72c0-0.33 0.267-0.597 0.596-0.597h6.797a2.383 2.383 0 0 0 2.382-2.382v-17.945a0.596 0.596 0 0 0-0.595-0.596h-39.016a0.596 0.596 0 0 0-0.596 0.596v33.966c0 0.658 0.534 1.191 1.192 1.191h67.332c0.329 0 0.596 0.267 0.596 0.596v55.151c0 1.974-1.6 3.575-3.574 3.575h-18.542a0.596 0.596 0 0 1-0.595-0.596v-10.978c0-0.329 0.266-0.595 0.595-0.595z m107.731-41.267h-1.306a0.596 0.596 0 0 0-0.596 0.596v31.504a0.596 0.596 0 0 0 0.756 0.574l9.52-2.655a0.596 0.596 0 0 1 0.756 0.573v11.613c0 0.237-0.14 0.451-0.357 0.546l-22.735 9.939a1.787 1.787 0 0 1-2.455-1.226l-2.782-11.755a0.596 0.596 0 0 1 0.343-0.684l4.423-1.915a0.596 0.596 0 0 0 0.359-0.546V463.86c0-0.329 0.266-0.596 0.595-0.596h48.26c0.33 0 0.596 0.267 0.596 0.596v52.356a0.596 0.596 0 0 1-0.595 0.595H877.92a0.596 0.596 0 0 0-0.572 0.763c0.295 1.013 0.656 2.523 1.082 4.529 0.52 2.454 1.578 6.31 3.17 11.566a0.596 0.596 0 0 0 0.972 0.267l12.475-11.401a0.596 0.596 0 0 1 0.87 0.07l6.453 8.168a0.596 0.596 0 0 1-0.062 0.806l-14.003 13a0.596 0.596 0 0 0-0.105 0.744c1.266 2.107 3.28 4.92 6.043 8.443 2.95 3.76 7.053 7.142 12.31 10.147l-11.668 6.427a2.383 2.383 0 0 1-2.87-0.439c-8.274-8.642-14.12-16.097-17.538-22.366-3.431-6.292-6.89-15.923-10.374-28.892a2.473 2.473 0 0 0-2.389-1.832z m75.327 53.098v-47.805a0.596 0.596 0 0 0-0.964-0.468l-12.174 9.575a0.596 0.596 0 0 1-0.941-0.305l-3.766-13.22a0.596 0.596 0 0 1 0.214-0.639l35.041-26.504a0.596 0.596 0 0 1 0.935 0.321l3.311 12.347a0.596 0.596 0 0 1-0.219 0.632l-9.254 6.905a0.596 0.596 0 0 0-0.24 0.477v58.684a0.596 0.596 0 0 1-0.596 0.595h-10.751a0.596 0.596 0 0 1-0.596-0.595z m-97.134-14.224a0.596 0.596 0 0 1-0.305 0.52l-23.475 13.106a1.787 1.787 0 0 1-2.564-0.987l-3.998-11.812a0.596 0.596 0 0 1 0.283-0.716l7.275-3.891a0.596 0.596 0 0 0 0.314-0.525v-23.365a0.596 0.596 0 0 0-0.595-0.595h-11.604a0.596 0.596 0 0 1-0.596-0.596v-10.216c0-0.33 0.267-0.596 0.596-0.596H816.842a0.596 0.596 0 0 0 0.593-0.598l-0.039-9.383a0.596 0.596 0 0 0-0.595-0.594h-5.218a0.596 0.596 0 0 1-0.596-0.595v-3.96a0.596 0.596 0 0 0-1-0.436l-4.973 4.606a0.596 0.596 0 0 1-0.821-0.01l-8.4-8.209a0.596 0.596 0 0 1-0.068-0.771c5.2-7.293 8.888-13.106 11.061-17.44 2.166-4.317 4.593-10.682 7.282-19.095l0.002-0.007a0.596 0.596 0 0 1 0.754-0.377l10.737 3.58a1.787 1.787 0 0 1 1.153 2.187l-1.632 5.71a0.596 0.596 0 0 0 0.572 0.76h16.111a0.596 0.596 0 0 1 0.595 0.634l-0.613 9.505a1.787 1.787 0 0 1-1.783 1.672h-20.009a0.596 0.596 0 0 0-0.54 0.343l-4.765 10.152a0.596 0.596 0 0 0 0.539 0.849h22.051c0.33 0 0.596 0.267 0.596 0.596v7.924a2.383 2.383 0 0 1-2.383 2.382h-6.056-0.002a0.596 0.596 0 0 0-0.594 0.599l0.039 9.383a0.596 0.596 0 0 0 0.596 0.593h9.875c0.33 0 0.596 0.267 0.596 0.596v8.429a2.383 2.383 0 0 1-2.383 2.383h-8.086a0.596 0.596 0 0 0-0.596 0.595v17.623a0.596 0.596 0 0 0 0.87 0.529l9.325-4.844a0.596 0.596 0 0 1 0.87 0.528v13.834z m137.728 0.974h12.417a2.383 2.383 0 0 0 2.383-2.382v-41.994a0.596 0.596 0 0 0-0.596-0.596h-27.877a0.596 0.596 0 0 1-0.595-0.596v-11.657c0-0.328 0.266-0.595 0.594-0.596l59.442-0.114c0.33 0 0.596 0.266 0.597 0.595v11.772a0.596 0.596 0 0 1-0.596 0.596h-18.101a0.596 0.596 0 0 0-0.596 0.596v54.647c0 1.974-1.6 3.574-3.574 3.574h-23.498a0.596 0.596 0 0 1-0.596-0.595v-12.654c0-0.329 0.267-0.596 0.596-0.596z m-281.004 12.993a0.596 0.596 0 0 1-0.596 0.596h-13.174a0.596 0.596 0 0 1-0.596-0.596v-38.285c0-0.33 0.267-0.596 0.596-0.596h13.174c0.329 0 0.596 0.267 0.596 0.596v18.679c0 0.329 0.266 0.595 0.595 0.595h11.21a0.596 0.596 0 0 0 0.596-0.595v-18.68c0-0.328 0.267-0.595 0.596-0.595h12.178c0.329 0 0.595 0.267 0.595 0.596v18.679c0 0.329 0.267 0.595 0.596 0.595h13.818a0.596 0.596 0 0 0 0.596-0.595v-18.68c0-0.328 0.267-0.595 0.596-0.595h10.981c0.329 0 0.596 0.267 0.596 0.596v30.123a0.596 0.596 0 0 1-0.596 0.596h-51.762a0.596 0.596 0 0 0-0.595 0.595v6.971z m-113.576-28.806l49.25 0.097a0.596 0.596 0 0 0 0.597-0.594V536.4a0.596 0.596 0 0 0-0.594-0.595l-49.25-0.098a0.596 0.596 0 0 0-0.598 0.595v3.947c0 0.329 0.266 0.595 0.595 0.596z m49.847-13.87v-3.964a0.596 0.596 0 0 0-0.594-0.596l-49.25-0.08a0.596 0.596 0 0 0-0.598 0.594v3.965c0 0.329 0.266 0.595 0.595 0.596l49.25 0.08a0.596 0.596 0 0 0 0.597-0.595z m-75.927-28.687h43.648a0.596 0.596 0 0 0 0.595-0.596v-5.882a0.596 0.596 0 0 0-0.595-0.595h-32.7a0.596 0.596 0 0 1-0.596-0.596v-6.592c0-0.329 0.267-0.595 0.596-0.595h32.7a0.596 0.596 0 0 0 0.595-0.596v-5.538a0.596 0.596 0 0 0-0.595-0.596h-39.13a0.596 0.596 0 0 1-0.597-0.596v-7.934c0-0.33 0.267-0.596 0.596-0.596h39.13a0.596 0.596 0 0 0 0.596-0.596v-5.889c0-0.329 0.267-0.595 0.596-0.595h12.503c0.329 0 0.596 0.266 0.596 0.595v5.89c0 0.328 0.266 0.595 0.595 0.595H655.4c0.329 0 0.596 0.267 0.596 0.596v6.147a2.383 2.383 0 0 1-2.383 2.383h-38.105a0.596 0.596 0 0 0-0.595 0.596v5.538c0 0.329 0.266 0.596 0.595 0.596h33.217c0.329 0 0.595 0.266 0.595 0.595v6.592a0.596 0.596 0 0 1-0.595 0.596h-33.977a0.596 0.596 0 0 0-0.596 0.595v5.882c0 0.33 0.267 0.596 0.596 0.596h45.283c0.329 0 0.595 0.267 0.595 0.596v6.104a2.383 2.383 0 0 1-2.382 2.383H556.975a0.596 0.596 0 0 1-0.596-0.596v-7.891c0-0.33 0.267-0.596 0.596-0.596z m303.433 8.904h24.024a0.596 0.596 0 0 0 0.596-0.595v-9.526a0.596 0.596 0 0 0-0.596-0.595h-24.024a0.596 0.596 0 0 0-0.596 0.595v9.526c0 0.329 0.267 0.595 0.596 0.595zM733.505 495.63a0.596 0.596 0 0 1-0.113 0.823l-8.933 6.962a0.596 0.596 0 0 1-0.836-0.104L711.32 487.54l-0.001-0.002a0.596 0.596 0 0 1 0.105-0.835l9.381-7.277a0.595 0.595 0 0 1 0.845 0.117l11.854 16.088z m222.657-20.228a0.596 0.596 0 0 1-0.18 0.678l-30.106 24.437a0.596 0.596 0 0 1-0.944-0.283l-4.327-13.7a0.596 0.596 0 0 1 0.194-0.642l29.366-23.773a0.596 0.596 0 0 1 0.93 0.248l5.067 13.035z m-95.754 9.566h24.024a0.596 0.596 0 0 0 0.596-0.596v-9.104a0.596 0.596 0 0 0-0.596-0.596h-24.024a0.596 0.596 0 0 0-0.596 0.596v9.104c0 0.329 0.267 0.596 0.596 0.596z m105.451-5.593v-12.382c0-0.33 0.267-0.596 0.596-0.596h52.297c0.329 0 0.595 0.267 0.595 0.596v10.595a2.383 2.383 0 0 1-2.382 2.382h-50.51a0.596 0.596 0 0 1-0.596-0.595zM56.865 513.816c12.508 3.155 21.767 14.48 21.767 27.969 0 15.929-12.913 28.842-28.843 28.842H0V463.998h45.422c14.481 0 26.22 11.739 26.22 26.22 0 10.379-6.03 19.349-14.777 23.598z m-46.38-37.582v33.212h32.32c9.17 0 16.606-7.435 16.606-16.606 0-9.171-7.435-16.606-16.607-16.606h-32.32z m0 45.448v36.709h35.814c10.136 0 18.354-8.218 18.354-18.354 0-10.137-8.218-18.355-18.354-18.355H10.484z m165.777 33.033a7.304 7.304 0 0 0 6.87 4.822h8.682v11.09h-14.838c-5.353 0-10.041-2.848-12.632-7.11-6.538 3.433-13.895 5.362-21.675 5.362-27.142 0-49.145-23.478-49.145-52.44 0-28.963 22.003-52.441 49.145-52.441 27.142 0 49.145 23.478 49.145 52.44 0 15.1-5.98 28.709-15.552 38.277z m-33.593 3.676c21.326 0 38.614-18.783 38.614-41.953s-17.288-41.952-38.614-41.952c-21.326 0-38.614 18.783-38.614 41.952 0 23.17 17.288 41.953 38.614 41.953z m71.781-94.393h41.699c23.687 0 42.89 19.202 42.89 42.89v20.85c0 23.687-19.203 42.89-42.89 42.89H214.45a1.191 1.191 0 0 1-1.191-1.192V465.189c0-0.658 0.533-1.191 1.191-1.191z m12.255 12.236c-0.658 0-1.192 0.533-1.192 1.191V557.2c0 0.658 0.534 1.19 1.192 1.19h27.693c15.953 0 28.885-12.931 28.885-28.884v-24.387c0-15.953-12.932-28.885-28.885-28.885h-27.693z" fill="#231815"/>
</svg>
