<svg viewBox="0 0 1024 1024" version="1.1" xmlns="http://www.w3.org/2000/svg" height="1em" width="1em">
  <path d="M136.4 394.4c1.9 0.2 3.8 0.1 5.7 0.4 0.2 0-0.2 0.5 0 0.6 0.8 0.3 1.7 0 2.5 0.2 0.1 0-0.1 0.3 0 0.4 1 0.3 2.1 0.1 3.2 0.3 0.1 0-0.1 0.4 0 0.4 1 0.3 2.1 0 3.1 0.3 0.2 0.1-0.2 0.5 0 0.6 1.1 0.4 2.4 0.1 3.6 0.3 0.1 0-0.1 0.3 0 0.4 0.4 0.4 1.6-0.4 1.4 0.7 0 0.4 0.9-0.2 1 0.5 0.1 0.5 1.6-0.4 1.4 0.7 0 0.4 0.9-0.2 1 0.5 0 0.4 1.2-0.4 1 0.7-0.1 0.4 1-0.2 1 0.5 0 0.4 0.9-0.2 1 0.5 0.1 0.5 1.6-0.4 1.4 0.7 0 0.3 0.5 0.1 0.7 0.2 0.1 0.1 0.3 0 0.4 0 0-0.2 0.4-0.2 0.4-0.1-0.1 0.5 0.3 0.4 0.5 0.5 0.1 0 0 0.2 0 0.2 0.4 0.1 0.8-0.1 1.1 0.1 0.2 0.1-0.2 0.6 0 0.6 0.6 0.2 1.6-0.4 1.8 0.1 0.3 0.7 1 0.1 1 0.5 0 1 1.2-0.2 1 1.1-0.1 0.4 1.4-0.3 1.5 0.1 0.2 1 1.1-0.2 1 1.1 0 0.5 1.5-0.4 1.7 0.2 0.2 0.7 0.6 0.2 0.8 0.5 0.1 0.2-0.1 0.4 0 0.6 0 0.1 0.2 0.1 0.3 0.1v-0.1c0.1 0 0.3-0.1 0.4 0 0.1 0.1-0.1 0.2 0 0.2 0 0 0 0.1 0.1 0.1 0.2 0.3 1.1-0.3 1 0.7 0 0.3 0.8 0 1 0.2 0.1 0.1 0.3-0.1 0.4 0 0.1 0.1-0.1 0.3 0 0.4 0.6 0.2 1.4 0 2 0.2 0.2 0-0.1 0.5 0 0.6 0.3 0.2 0.9-0.3 1 0.5 0 0.4 1.2-0.4 1 0.7-0.1 0.4 1.2-0.2 1 0.5 0 0.1 0.4-0.1 0.4 0.1-0.2 1 1.3-0.2 1 1.1-0.1 0.4 1-0.2 1 0.5 0 0.4 1.2-0.4 1 0.7-0.1 0.4 0.8-0.2 1 0.5 0.1 0.4 1.1-0.2 1.5 0.1 0.3 0.2-0.2 0.7-0.1 1 0.2 0.3 1.2-0.2 1 0.5 0 0.1 0.5-0.1 0.4 0.1-0.3 0.9 0.9 0.3 1 0.7 0.2 0.5 0.3 0.3 0.6 0.5 0.2 0.1 0.2 0.1 0.4 0.7 0.4 0.9 1.5-0.1 1 1.1 0 0.1 0.4-0.1 0.4 0.1-0.2 1 1.4-0.2 1 1.1-0.1 0.2 0.4-0.1 0.6 0.1 0.2 0.2-0.2 0.6 0 0.8 0.2 0.2 0.4 0.1 0.2 0.6h0.2c0.1 0 0.2-0.1 0.2 0 0 0.2-0.1 0.4 0 0.4h0.3c0.2 0 0.6-0.1 0.7 0 0.1 0.3-0.2 0.7-0.1 1 0.2 0.3 1.1-0.2 1 0.5 0 0.2 0.4 0 0.6 0.1 0.2 0.1-0.2 0.7 0.4 0.7 0.2 0-0.1 0.5 0.3 0.4 0.2 0-0.1 0.4 0.1 0.6 0.2 0.3 1-0.2 1 0.5 0 0.3 0.8-0.1 1 0.1 0.3 0.3-0.2 0.4 0.5 1.1 0.7 0.7 1.5-0.2 1 1.1-0.1 0.1 0.3 0 0.4 0.1 0.1 0.2-0.1 0.5 0.3 0.4 0.2 0-0.1 0.5 0.1 0.6 0.2 0.2 0.1 0.3 0.6 0.5 0.7 0.4-0.2 0.9 0.9 0.7 0.2 0 0 0.3 0.4 0.4 0.2 0-0.2 0.4 0 0.6 0.2 0.2 0.7-0.1 0.6 0.5 0 0.1 0.4-0.1 0.4 0-0.2 0.8 0.8 0.2 1 0.5 0.2 0.3-0.3 1 0.2 1.1 0.2 0-0.1 0.5 0.1 0.6 0.2 0.2 0.1 0.3 0.6 0.5 0.7 0.4-0.2 0.9 0.9 0.7 0.2 0 0 0.3 0.4 0.4 0.2 0-0.2 0.4 0 0.6 0.2 0.2 0.7-0.1 0.6 0.5 0 0.1 0.3-0.1 0.4 0 0.1 0.2-0.1 0.5 0.3 0.4 0.2 0-0.1 0.5 0.1 0.6 0.2 0.2 0.2 0.2 0.6 0.5 0.6 0.4 0.1 0.8 0.3 1 0.3 0.3 1.3-0.3 1 0.7-0.1 0.2 0.4 0 0.6 0.1 0.2 0.2-0.4 0.9 0.4 0.9 0.2 0-0.2 0.4 0 0.6 0.2 0.2 0.1 0.3 0.6 0.5 0.8 0.3-0.2 0.6 0.8 0.7 0.4 0-0.5 1.2 0.5 1.1 0.2 0 0 0.4 0.4 0.4 0.2 0-0.1 0.4 0 0.6 0.1 0.2 0.4 0 0.6 0.1 0.2 0.2-0.4 0.9 0.4 0.9 0.2 0-0.2 0.5 0 0.6 0.2 0.2 0.2 0.2 0.6 0.5 0.6 0.4 0.1 0.7 0.3 1 0.1 0.1 0.3-0.1 0.4 0.1 0.1 0.2-0.2 0.5 0 0.6 0.2 0.2 0.2 0.2 0.6 0.5 0.6 0.4 0 1 0.3 1 0.9 0.1 0.4 0.6 0.6 1.1 0 0.1 0.4-0.1 0.4 0.1-0.1 0.5 0.3 0.3 0.6 0.5 0.2 0.2-0.1 0.7 0 1 0 0.1 0.4-0.1 0.4 0.1 0.2 0.4-0.5 1.2 0.5 1.1 0.2 0-0.2 0.6 0.4 0.7 0.3 0-0.3 0.9 0.2 0.9 0.2 0-0.1 0.6 0.1 0.6 0.9 0 0.4 0.6 0.6 1.1 0 0.1 0.4-0.1 0.4 0.1-0.1 0.5 0.3 0.3 0.6 0.5 0.2 0.2-0.1 0.7 0 1 0 0.1 0.3-0.1 0.4 0.1 0.2 0.4-0.5 0.8 0.5 1.1 0.6 0.2-0.2 1.4-0.1 2 0 0.1 0.3-0.1 0.4 0.1 0.2 0.4-0.5 1.2 0.5 1.1 0.2 0 0.1 0.6 0 0.8-0.1 0.2-0.5-0.2-0.6 0-0.3 0.8-0.4 1.8-0.2 2.7 0.1 0.3 0.2 0.2 0.6 0.5 0.6 0.4 0.2 0.7 0.3 1 0.1 0.1 0.4-0.1 0.4 0.1-0.1 0.5 0.4 0.2 0.6 0.5 0.3 0.6-0.2 1.4-0.1 2 0 0.1 0.4-0.1 0.4 0.1 0.1 0.5-0.1 1-0.1 1.4h0.1c0 0.2-0.1 0.4 0 0.6 0.1 0.1 0.5-0.1 0.5 0 0.2 0.6-0.2 1.4-0.1 2 0 0.1 0.3 0 0.4 0.1 0.1 0.1 0 0.3 0 0.4h0.1c0 0.4-0.2 0.9 0 1.4 0 0.2 0.4-0.1 0.5 0 0.2 0.6-0.2 1.4-0.1 2 0 0.1 0.3 0 0.4 0.1 0.1 0.1-0.1 0.3 0 0.4 0.1 0.2 0.1 0.3 0.1 0.6h0.2c0.1 0.4-0.5 1 0.5 1.1 0.4 0-0.1 1-0.1 1.4 0 0.1 0.4-0.1 0.4 0.1 0.1 0.9-0.3 1.8-0.2 2.7 0 0.2 0.5-0.1 0.6 0.1 0.2 0.4-0.1 1-0.1 1.4 0 0.1 0.4-0.1 0.4 0.1-0.1 0.5 0.3 0.3 0.6 0.5 0.2 0.2-0.1 0.7 0 1 0 0.1 0.3-0.1 0.4 0.1 0.1 0.2-0.2 0.4 0 0.6 0.2 0.2 0.7-0.1 0.6 0.5 0 0.1 0.3-0.1 0.4 0 0.1 0.1-0.1 0.3 0 0.4 0.6 0.2 1.5-0.2 2 0.2 0.4 0.3-0.2 1.1-0.1 1.6 0 0.1 0.4-0.1 0.4 0.1 0.1 0.7-0.8 1.8-0.1 2 1.1 0.5 0.2 1.3 0.5 1.9 0 0.1 0.4-0.1 0.4 0.1 0 1.4-0.4 2.7-0.3 4.1 0 0.2 0.5-0.1 0.6 0.1 0.2 0.9-0.2 1.9-0.2 2.9 0 0.1 0.4-0.1 0.4 0.1 0.1 0.9-0.2 1.8-0.2 2.7 0 0.1 0.4-0.1 0.4 0.1 0 1.5-0.4 3-0.3 4.5 0 0.2 0.6-0.1 0.6 0.1-0.1 5.2-0.9 10.4-1.1 15.6 0 0.2 0.5-0.1 0.6 0 0.1 0.1 0.1 0.4 0 0.4-0.5-0.1-0.5 0.2-0.5 0.5 0 0.2 0.3 0 0.4 0.1 0.1 0.2-0.1 0.5 0.3 0.4 0.2-0.1 0.3 0.4 0.1 0.4-0.5-0.1-0.5 0.2-0.5 0.5 0 0.2 0.3 0 0.4 0.1 0.1 0.1 0.1 0.3 0 0.4-0.1 0.1-0.4-0.1-0.4 0-0.3 1-0.3 2.1-0.3 3.1 0 0.1 0.3 0 0.4 0.1 0.1 0.1 0.1 0.4 0 0.4-0.5-0.1-0.5 0.2-0.5 0.5 0 0.2 0.4 0 0.4 0.1 0 2.3 0.5 4.9-0.5 7.1-0.3 0.7-0.3 0.7-0.5 1-0.1 0.1-0.3-0.1-0.4 0-0.4 0.4 0.4 1.4-0.7 1.4-0.5 0 0 1.1-0.1 1.7 0 0.1-0.3-0.1-0.4 0-0.2 0.6 0.1 1.3-0.2 1.9-0.1 0.2-0.4-0.1-0.6 0-0.2 0.1-0.2 0.4-0.1 0.6 0.1 0.2 1 0 0.6 0.5-0.1 0.2-0.5-0.2-0.6 0-0.3 0.7 0 1.7-0.2 2.5 0 0.1-0.3-0.1-0.4 0-0.2 0.5 0.4 1.6-0.2 1.7-1.2 0.1-0.4 1-0.7 1.4-0.1 0.1-0.5-0.1-0.4 0.2 0.1 0.2-0.3 0-0.4 0.1-0.2 0.5 0.1 1.2-0.1 1.7-0.2 0.3-1-0.3-1.1 0.2 0 0.2 0.2 0.2 0.3 0.2h0.1c-0.1 0.3 0.3 1.1-0.5 1-0.2 0 0 0.4-0.1 0.6-0.1 0.2-0.6-0.2-0.6 0-0.2 0.9 0 1.9-0.2 2.9 0 0.1-0.3-0.1-0.4 0-0.2 0.8 0.6 2.2-0.2 2.5-1.1 0.4-0.4 1.2-0.7 1.6-0.1 0.2-0.5-0.1-0.4 0.2 0 0.2-0.5-0.1-0.6 0.1-0.3 0.5 0.4 1.6-0.2 1.7-0.9 0.2 0 0.6-0.9 0.8-0.5 0.1 0.1 1.2-0.2 1.7-0.1 0.2-0.8-0.3-0.6 0.2 0.1 0.2-0.3 0-0.4 0.1-0.3 0.4 0.4 1.6-0.7 1.4-0.3 0-0.1 0.3-0.5 0.6-0.5 0.4 0.1 1.4-0.1 2.1-0.1 0.2-0.8-0.3-0.7 0.2 0.1 0.2-0.3 0-0.4 0.1-0.3 0.3 0.4 1.2-0.7 1-0.4-0.1 0.2 1-0.5 1-0.4 0 0.2 1.2-0.5 1-0.1 0 0.1 0.4-0.1 0.4-0.2 0.1-0.4-0.2-0.6 0-0.3 0.2 0 0.4-0.5 0.6-0.4 0.1 0.3 1.3-0.7 1-0.1 0 0.1 0.4-0.1 0.4-1-0.2 0.1 1.5-1.1 1-0.1 0 0.1 0.5-0.1 0.4-0.9-0.3 0 0.2-0.9 0.6-0.7 0.3-0.7 0.1-1 0.3-0.1 0.1 0 0.4-0.1 0.6-0.1 0.2-0.7-0.2-0.7 0.4 0 0.2-0.5-0.1-0.4 0.2 0 0.2-0.5-0.1-0.6 0.1-0.2 0.2 0.1 0.7-0.5 0.6-0.1 0 0.1 0.3 0 0.4-0.5 0.3-1.5-0.7-1.5 0.5 0 0.3-0.7-0.1-1 0-0.1 0 0.1 0.3-0.1 0.4-0.4 0.2-1.4-0.5-1.1 0.5v0.1c0.3 0.2 1.5-0.1 1 0.5-0.2 0.3-0.7-0.2-1-0.1-0.4 0.2 0.1 1.7-0.7 1-0.3-0.2 0.3-1.1-0.2-1.1-0.1 0-0.1 0-0.2 0.1v0.5c0 0.3-0.3 0.8-0.1 1 0.4 0.3 1.1 0 1.4 0.1 0.2 0 0-0.4 0.1-0.4 0.9-0.4 0.3 0.7 0.5 1 0.2 0.3 1.8 0.3 1 0.5-1 0.2-0.3 1-0.7 1-1 0.1 0.2 1.3-1.1 1-0.3-0.1-0.2 0.2-0.5 0.6-0.4 0.6-0.7 0.1-1 0.3-0.1 0.1 0.1 0.4-0.1 0.4-0.3 0.1-0.6 0.1-0.6-0.4 0-0.3-1 0.2-0.8-0.5 0-0.2-0.4-0.1-0.6-0.1h-0.1c-0.1 0.2 0 0.2-0.4 0.8-0.6 0.7-0.6 0.4-1.1 0.5-0.1 0 0 0.3-0.1 0.4-0.1 0.1-0.3-0.2-0.4 0-0.2 0.5 0.1 1.1-0.1 1.6-0.1 0.2-0.8-0.3-0.6 0.3 0.1 0.2-0.3 0-0.4 0.1-0.1 0.1 0 0.4-0.1 0.6-0.1 0.1-0.5-0.1-0.6 0-0.2 0.2 0.3 0.9-0.4 0.8-0.2 0 0.1 0.4-0.1 0.6-0.2 0.2-0.1 0.1-0.7 0.4-0.7 0.4-0.1 0.9-0.5 1-0.5 0.1-0.3 0.3-0.5 0.5-0.1 0.2-0.3-0.1-0.7 0.4-0.3 0.4-0.3 0.3-0.5 0.5-0.1 0.2-0.9-0.2-0.7 0.4h-0.1v0.1c0.1 0.1 0.3 0 0.4 0.1 0.1 0.1 0.1 0.3 0 0.4-0.1 0.1-0.3 0.1-0.4 0-0.1-0.2 0.1-0.6-0.3-0.4h-0.1v0.2c0 0.1-0.1 0.1-0.1 0.1-0.1 0.7 0.5 2-0.2 2.2-1 0.3-0.3 1-0.7 1-1 0.1 0.1 1.5-1.1 1-0.1 0 0.1 0.4-0.1 0.4-0.5-0.1-0.3 0.3-0.5 0.5-0.1 0.2-0.3-0.1-0.7 0.4-0.3 0.4-0.3 0.3-0.5 0.5-0.1 0.2 0 0.3-0.7 0.4-1 0.3-0.1 0-0.9 0.6-0.7 0.5-0.5-0.2-0.7 0.8-0.1 0.5-0.3 0.3-0.5 0.5-0.1 0.2-0.5-0.2-0.7 0.4-0.1 0.4-1.2-0.5-1.1 0.5 0 0.2-0.1 0.3-0.4 0.4-0.5 0.2-0.3 0.3-0.5 0.5-0.1 0.2-0.5-0.2-0.7 0.4-0.1 0.3-1.1-0.3-1.1 0.2 0 0.3-0.4 0-0.4 0.1 0.1 0.9-0.6 0.4-1.1 0.6-0.1 0 0.1 0.3-0.1 0.4-0.2 0.1-0.4-0.1-0.6 0-0.2 0.1 0 0.4-0.1 0.6-0.2 0.3-0.8-0.4-0.9 0.4-0.1 0.4-1.2-0.5-1.1 0.5 0 0.2-0.5-0.2-0.7 0.4-0.1 0.4-1.2-0.5-1.1 0.5 0 0.3-0.7-0.1-1 0-0.1 0 0.1 0.3-0.1 0.4-0.2 0.2-0.9-0.3-0.9 0.2 0 0.2-0.4 0.2-0.6 0.1-0.2-0.1 0.1-0.5-0.3-0.4-0.2 0-0.2 0.2-0.2 0.3 0 0.2-0.5-0.1-0.6 0.1-0.2 0.2-0.1 0.2-0.5 0.6-0.4 0.4-0.4 0.5-0.6 0.3-0.2-0.1 0.1-0.6-0.3-0.4 0 0-0.1-0.1-0.1 0-0.2 0.3 0.2 1.2-0.5 1-0.1 0 0 0.4-0.1 0.4-0.3 0.2-1.2-0.5-1.1 0.5 0 0.3-0.7-0.1-1 0-0.1 0 0.1 0.4-0.1 0.4-0.3 0.2-1.2-0.5-1.1 0.5 0 0.2-0.7-0.2-0.7 0.4 0 0.2-0.6-0.1-0.4 0.3v0.1c-0.4 0.1-1.2-0.5-1.1 0.5 0 0.3-0.7-0.1-1 0-0.1 0 0.1 0.4-0.1 0.4-0.5-0.1-0.3 0.3-0.5 0.5s-0.7 0.2-0.9 0c-0.6-0.9 3.1-2.8 2.8-3.8-0.3-1-0.7-2-1-3.1-0.3-1 0.3-5.9-1-6.7-1.3-0.9-4.4 2.2-4.7 1.1-2.7-9.5-5.1-19.8-7-29.3-0.5-2.4-1.8-3.2-2.2-5.5-1.9-10.1-2.3-20.7-1.9-26.9 0.5-1 0.9-1.9 1.4-2.9 3.7-0.3 12.3-1.8 12.4-2.7 6.5 0.5 17.3 2.9 18-5.3 0.2-3 0.3-6.3 0.2-9.9 0-1.7-0.1-3.5-0.2-5.3-0.1-1.1-0.6-1-0.6-2.2-0.1-1.9-2.9 1.4-3-0.6-0.4-5.4 0.6-17.6 0.3-22.9-0.1-1.7-0.2-3.4-0.2-5-0.1-4.2-0.2-8.1 0.1-11.5 0.3-3.8-1.2-5.8-4.5-6-4.7-0.3-9.4 0.1-14.1-0.2-6.4 0.5-12.7 0.2-19.1 0.7-3.7 0-7.4 0.6-11.1 0.6-0.7-2.5-1.4-5-2.1-7.4-1.7-0.2-3.3-0.5-5-0.7-4.8 0.3-9.6 0.7-14.3 1-2.1 0.1-3.1-0.5-3.7 1.9-0.6 2.5-1.4 4.3-2.4 5.7-1.5 2.2-3.3 2.2-5.2 2.7-4.5 1.1-9.2 0.2-9.4 2.7-2.3-0.3-4.6-0.7-6.8-1-2-0.1-4-0.3-6-0.4-3.4-0.2-8.4-3.1-11.1 0.5-1.2 1.6-1.7-0.2-2.6 2.2-1.1 3-0.2 2.1-1.1 5-1.8 5.6-5.2 14.1-6.6 21.5-0.5 2.5-2.6 8.2-3 10.1-0.6 3.1 2.1 4.2 1.4 8.2-0.8 5.2-1.6 10.5-2.1 14.8-2.9 0.1 13 1.2 21.9 2.7 0.5-0.1 1-0.3 1.5-0.4l8.1 3.3c-1.5 7.9-1.9 19-3.6 32.7-0.2 1.4-0.4 3.6-0.6 5-0.3 3.5-0.7 7-1.2 10.4-0.4 3.4-0.4 6.9-1.4 10-1.8 5.5-2.6 11.8-3 17.4-0.6-0.1-1.2-0.1-1.8-0.1-0.1-0.2 0-0.5 0-0.6-0.6 0-1.6 0.4-1.9-0.1-0.3-0.7-1-0.1-1-0.5 0-1-1.2 0.2-1-1.1 0.1-0.5-1.4 0.3-1.5-0.1-0.2-1-1.1 0.2-1-1.1 0-0.6-1.5 0.4-1.7-0.2-0.2-0.7-0.6-0.2-0.8-0.5-0.1-0.2 0.2-0.5 0-0.6-0.2-0.2-0.5 0-0.6-0.5-0.1-0.4-0.9 0.3-1-0.5 0-0.5-1.2 0.4-1-0.7 0.1-0.4-1.1 0.2-1-0.5 0-0.3-0.9 0.2-0.8-0.1 0.2-1-0.6-0.5-1-0.7-0.1-0.1 0.1-0.3 0-0.4-0.5-0.2-1.2 0-1.7-0.2-0.2-0.1 0.3-0.8-0.3-0.6-0.2 0.1 0-0.3-0.1-0.4-0.3-0.3-1.2 0.3-1-0.7 0.1-0.4-1.2 0.2-1-0.5 0-0.1-0.4 0.1-0.4-0.1 0.2-1-1.3 0.2-1-1.1 0.1-0.4-1.2 0.2-1-0.5 0-0.1-0.5 0.1-0.4-0.1 0.3-0.9-1-0.3-1-0.7-0.1-1-1.3 0.2-1-1.1 0.1-0.4-1.1 0.2-1-0.5 0-0.2-0.4 0-0.6-0.1-0.2-0.1-0.1-0.1-0.4-0.7-0.4-0.7-0.8-0.2-1-0.5-0.1-0.2 0.1-0.5-0.3-0.4-0.2 0 0.1-0.5-0.1-0.6-0.2-0.2-0.5 0-0.6-0.5-0.1-0.4-1.3 0.3-1-0.7 0-0.1-0.4 0.1-0.4-0.1 0.2-1-1.5 0.1-1-1.1 0.1-0.1-0.4 0.1-0.4-0.1 0.2-0.8-0.8-0.2-1-0.5-0.2-0.3 0.2-0.7 0.1-1-0.2-0.3-1.1 0.2-1-0.5 0-0.2-0.4 0.1-0.6-0.1-0.2-0.1 0.2-0.7-0.4-0.7-0.2 0 0.1-0.5-0.3-0.4-0.2 0 0-0.5-0.1-0.6-0.2-0.3-1 0.2-1-0.5 0-0.3-0.8 0.1-1.1-0.1-0.3-0.3 0.2-0.4-0.5-1.1-0.7-0.7-1.5 0.2-1-1.1 0.1-0.1-0.3 0.1-0.4-0.1-0.1-0.2 0.1-0.5-0.3-0.4-0.2 0 0.1-0.5-0.1-0.6-0.2-0.2-0.1-0.3-0.6-0.5-0.8-0.4 0.2-0.9-0.9-0.7-0.2 0 0-0.3-0.4-0.4-0.2-0.1 0.2-0.5 0-0.6-0.2-0.2-0.7 0.1-0.6-0.5 0-0.1-0.4 0.1-0.4 0 0.2-0.8-0.8-0.2-1-0.5-0.2-0.3 0.3-1-0.2-1.1-0.2 0 0.1-0.5-0.1-0.6-0.2-0.2-0.1-0.2-0.6-0.5-0.7-0.4 0.2-0.9-0.9-0.7-0.2 0 0-0.4-0.4-0.5-0.2-0.1 0.2-0.5 0-0.6-0.2-0.2-0.7 0.1-0.6-0.5 0-0.1-0.3 0.1-0.4 0-0.1-0.2 0.1-0.5-0.3-0.4-0.2 0 0.1-0.5-0.1-0.6-0.2-0.2-0.2-0.2-0.6-0.5-0.6-0.4-0.1-0.8-0.3-1-0.3-0.4-1.3 0.3-1-0.7 0.1-0.2-0.4 0-0.6-0.1-0.3-0.2 0.4-0.9-0.4-0.9-0.2 0 0.2-0.5 0-0.6-0.2-0.2-0.1-0.3-0.6-0.5-0.9-0.3 0.2-0.6-0.8-0.7-0.4 0 0.5-1.2-0.5-1.1-0.2 0 0-0.4-0.4-0.5-0.2 0 0.1-0.4 0-0.6-0.1-0.2-0.4 0-0.6-0.1-0.3-0.2 0.4-0.9-0.4-0.9-0.2 0 0.2-0.5 0-0.6-0.2-0.2-0.2-0.2-0.6-0.5-0.6-0.4-0.2-0.7-0.3-1-0.1-0.1-0.4 0-0.4-0.1-0.1-0.2 0.2-0.4 0-0.6-0.2-0.2-0.2-0.2-0.6-0.5-0.6-0.4 0-1-0.3-1-0.9-0.1-0.4-0.6-0.6-1.1 0-0.1-0.4 0.1-0.4-0.1 0.1-0.5-0.3-0.3-0.6-0.5-0.2-0.2 0.1-0.7 0-1 0-0.1-0.4 0.1-0.4-0.1-0.2-0.4 0.5-1.2-0.5-1.1-0.2 0 0.2-0.6-0.4-0.7-0.3 0 0.3-0.9-0.2-0.9-0.2 0 0.1-0.6-0.1-0.6-0.9 0-0.4-0.6-0.6-1.1 0-0.1-0.4 0.1-0.4-0.1 0.1-0.5-0.4-0.3-0.6-0.5-0.2-0.2 0.1-0.7 0-1 0-0.1-0.3 0.1-0.4-0.1-0.2-0.4 0.5-0.8-0.5-1.1-0.6-0.2 0.2-1.4 0.1-2 0-0.1-0.3 0.1-0.4-0.1-0.2-0.4 0.5-1.2-0.5-1.1-0.2 0-0.1-0.6 0-0.8 0.1-0.1 0.5 0.2 0.6 0 0.3-0.8 0.4-1.8 0.2-2.7-0.1-0.3-0.2-0.2-0.6-0.5-0.6-0.4-0.2-0.7-0.3-1-0.1-0.1-0.4 0.1-0.4-0.1 0.1-0.5-0.4-0.2-0.6-0.5-0.3-0.6 0.2-1.4 0.1-2.1 0-0.1-0.4 0.1-0.4-0.1-0.1-0.7 0.2-1.4 0.1-2.1 0-0.2-0.5 0.1-0.6-0.1-0.2-0.6 0.2-1.4 0.1-2.1 0-0.1-0.4 0.1-0.4-0.1-0.1-0.6 0.2-1.3 0.1-1.8 0-0.2-0.5 0.1-0.6-0.1-0.2-0.6 0.2-1.4 0.1-2.1 0-0.1-0.3 0.1-0.4-0.1-0.2-0.3 0.3-1.1-0.2-1.1h-0.1c-0.1-0.4 0.5-1-0.5-1.1-0.4 0 0.2-1 0.1-1.4 0-0.1-0.4 0.1-0.4-0.1-0.1-0.9 0.3-1.8 0.2-2.7 0-0.2-0.5 0.1-0.6-0.1-0.2-0.4 0.1-1 0.1-1.4 0-0.1-0.4 0.1-0.4-0.1 0.1-0.5-0.3-0.3-0.6-0.5-0.2-0.2 0.1-0.7 0-1 0-0.1-0.3 0.1-0.4-0.1-0.1-0.2 0.2-0.5 0-0.6-0.2-0.2-0.7 0.1-0.6-0.5 0-0.1-0.3 0.1-0.4 0-0.1-0.1 0.1-0.3 0-0.4-0.6-0.2-1.5 0.2-2.1-0.2-0.4-0.3 0.2-1.1 0.1-1.6 0-0.1-0.4 0.1-0.4-0.1-0.1-0.7 0.8-1.8 0.1-2.1-1.1-0.5-0.3-1.3-0.5-1.9-0.1-0.1-0.4 0.1-0.4-0.1 0-1.4 0.4-2.8 0.3-4.1 0-0.2-0.5 0.1-0.6-0.1 0.8-0.6 1.3-1.7 1.2-2.7 0-0.1-0.4 0.1-0.4-0.1-0.1-0.9 0.2-1.8 0.2-2.7 0-0.1-0.4 0.1-0.4-0.1 0-1.5 0.4-3 0.3-4.6 0-0.2-0.6 0.1-0.6-0.1 0.1-6.1 0.7-12.2 1.3-18.3 0-0.2 0.5 0.2 0.6 0 0.4-1.6 0.1-3.3 0.4-5 0-0.1 0.3 0.1 0.4 0 0.1-0.2 0.1-0.4 0.1-0.7 0.1-1.9-0.5-4 0.4-5.6 0.4-0.7 0.2-0.7 0.5-1 0.1-0.1 0.3 0.1 0.4 0 0.3-0.3-0.1-1.2 0.4-1.5 0.2-0.1-0.1-0.5 0.1-0.8 0.1-0.1 0.3 0.1 0.4 0 0.1-0.1 0.1-0.3 0.1-0.5v-0.3c0.1-0.6-0.1-1.3 0.1-1.9 0.1-0.2 0.3 0.1 0.4 0.1h0.1c0.2-0.1 0.3-0.4 0.2-0.6-0.1-0.2-0.4-0.1-0.2-0.4 0-0.1 0.2 0.1 0.2 0 0.1-0.2 0-0.4 0.1-0.5 0.1-0.1 0.3 0.1 0.4 0v-0.1c0.1-0.6 0.1-1.2 0.1-1.8 0.1-0.1 0.3 0.1 0.4 0 0.2-0.5 0-1.1 0.1-1.6-0.2 0.1 0 0.4 0 0.3 0.1-0.1-0.1-0.3 0-0.3 0.1-0.1 0.3 0.1 0.4 0 0.1 0 0-0.2 0-0.3 0-0.3-0.1-0.7 0-0.9 0-0.2-0.1-0.6 0-0.5 1 0.3 0.5-0.6 0.7-1 0 0 0.2 0.1 0.2 0 0.1-0.2-0.1-0.4 0-0.5 0.1-0.1 0.5 0.1 0.7 0.1 0.1 0 0.1-0.3 0-0.5h-0.1c0.1-0.3-0.3-1.1 0.5-1 0.2 0 0-0.4 0.1-0.6 0.1-0.2 0.6 0.2 0.6 0 0.2-0.9 0-1.9 0.2-2.9 0-0.1 0.3 0.1 0.4 0 0.2-0.8-0.6-2.2 0.2-2.5 1.1-0.4 0.4-1.2 0.7-1.6 0.1-0.2 0.5 0.1 0.4-0.3 0-0.1 0.2 0 0.3-0.1 0.2-0.3-0.1-0.8 0.1-1 0.1-0.2 0.3 0.1 0.4 0 0.1-0.2 0-0.4 0-0.6h0.1c0-0.3 0-0.4 0.4-0.5 0.2-0.1 0.1-0.2 0.3-0.3 0.2-0.2 0.1-0.4 0.2-0.6 0.2-0.3 0-0.7 0.1-1 0-0.1 0.2 0.1 0.3 0h0.3c0.1 0 0-0.1 0-0.2s0.1-0.1 0.1-0.1c0.1-0.5-0.1-1 0.4-1.1 0.2-0.1 0.2-0.1 0.4-0.4 0.2-0.3-0.1-0.5 0.4-0.6 0.4-0.1-0.2-1 0.4-1.1 0.3-0.1 0-0.6 0.1-0.9 0-0.1 0.2 0.1 0.3 0 0.1 0 0.1-0.1 0.3-0.1v-0.2c0-0.1 0.1-0.1 0.1-0.1 0.1-0.4-0.1-0.6 0.3-0.8 0.2-0.1 0.2-0.1 0.4-0.3 0.2-0.2-0.1-0.6 0.3-0.6 0.1 0 0-0.3 0.1-0.3v-0.1c0.2 0 0.3 0.1 0.3 0 0.1-0.3 0-0.8 0.2-0.9 0.1-0.1 0.1-0.1 0.3-0.2 0.1 0-0.1-0.2 0-0.2s0.3 0.1 0.3 0c0.1-0.4-0.1-0.8 0.4-0.7 0.1 0 0-0.3 0.1-0.4 0-0.1 0.3 0.1 0.3 0 0.1-0.4 0-0.6 0.6-0.5 0.1 0-0.1-0.4 0.1-0.4 1 0.2-0.1-1.4 1.1-1 0.1 0-0.1-0.5 0.1-0.4 0.9 0.3 0-0.2 0.9-0.6 0.7-0.3 0.7-0.1 1-0.3 0.1-0.1 0-0.4 0.1-0.6 0.1-0.2 0.7 0.2 0.7-0.4 0-0.2 0.5 0.1 0.4-0.2 0-0.2 0.4 0.1 0.6-0.1 0.2-0.2-0.1-0.7 0.5-0.6 0.1 0-0.1-0.3 0-0.4 0.5-0.3 1.5 0.7 1.5-0.5 0-0.3 0.7 0.1 1 0 0.1 0 0-0.3 0.1-0.4 0.1-0.1 0.3 0.1 0.4 0 0.2-0.1 0.2-0.5 0-0.6-0.2-0.2-0.6-0.1-0.4-0.4 0.1-0.1 0.4 0.2 0.4 0 0.1-0.3 0.4-0.9 0.1-1-0.7-0.2-0.1-0.8-0.3-1.1-0.2-0.3-1.7-0.3-1-0.5 1-0.2 0.3-0.9 0.7-1 0.9-0.1 0-1.3 0.9-1v-0.2c0.1 0 0.2 0.1 0.2 0.1 0.1-0.2 0-0.4 0.2-0.5v-0.1h0.2c0.1-0.2 0.3-0.2 0.5-0.2 0.1 0-0.2-0.3 0-0.2 0.5 0.2 0.4-0.3 0.5-0.5 0.1-0.2 0.5 0.1 0.6 0 0.2-0.2 0-0.2 0.4-0.8 0.6-0.7 0.6-0.4 1.1-0.5 0.1 0 0-0.3 0.1-0.4 0.1-0.1 0.3 0.2 0.4 0 0.2-0.5-0.1-1.1 0.2-1.7 0.1-0.2 0.8 0.3 0.6-0.3-0.1-0.2 0.3 0 0.4-0.1 0.1-0.1 0-0.4 0.1-0.6 0.1-0.1 0.5 0.1 0.6 0 0.2-0.2-0.3-1 0.4-0.8 0.2 0-0.1-0.4 0.1-0.6 0.2-0.2 0.1-0.1 0.7-0.4 0.7-0.4 0.1-1 0.5-1 0.5-0.1 0.3-0.3 0.5-0.5 0.1-0.2 0.3 0.1 0.7-0.4 0.3-0.4 0.3-0.3 0.5-0.5 0.1-0.2 0.7 0.2 0.7-0.4 0-0.2 0.5 0.1 0.4-0.3 0-0.2 0.4 0.1 0.6-0.1 0.2-0.2 0.2-0.1 0.5-0.6 0.4-0.8 0.9 0.2 0.7-0.9 0-0.2 0.1-0.3 0.5-0.4 0.5-0.2 0.4-0.3 0.5-0.5h0.1c0.1-0.2 0.2-0.1 0.6 0 0.1 0-0.1-0.4 0.1-0.4 0.5 0.1 0.3-0.3 0.5-0.5 0.1-0.2 0.3 0.1 0.7-0.4 0.3-0.4 0.3-0.3 0.5-0.5 0.1-0.2 0-0.3 0.7-0.4 0.9-0.3 0.1 0 0.9-0.6 0.7-0.5 0.5 0.2 0.7-0.7 0.1-0.5 0.3-0.3 0.5-0.5 0.1-0.2 0.5 0.2 0.7-0.4 0.1-0.4 1.2 0.5 1.1-0.5 0-0.2 0.1-0.3 0.4-0.4 0.5-0.2 0.3-0.3 0.5-0.5 0.1-0.2 0.5 0.2 0.7-0.4 0.1-0.4 1.1 0.3 1.1-0.2 0-0.2 0.4 0 0.4-0.1-0.1-0.9 0.6-0.4 1.1-0.5 0.1 0-0.1-0.4 0.1-0.4 0.2-0.1 0.4 0.1 0.6 0 0.2-0.1 0-0.4 0.1-0.6 0.2-0.3 0.7 0.4 0.9-0.4 0.1-0.4 1.4 0.4 1.1-0.5 0.2-0.1 0.9 0.2 0.7-0.4 0.4-0.1 1.4 0.4 1.1-0.5h1c0.1-0.1 0-0.3 0.1-0.4 0.3-0.1 0.9 0.3 0.9-0.2 0-0.2 0.4 0 0.6-0.1 0 0.2-0.1 0.6 0.3 0.4 0.2 0.1 0.2-0.2 0.2-0.3 0-0.2 0.4-0.1 0.6-0.1 0.1-0.3 0-0.8 0.5-0.6-0.2-0.5 0.3-0.3 0.6-0.3 0 0.2-0.1 0.6 0.3 0.4h0.1c0.2-0.3-0.2-1.3 0.5-1 0.1-0.1 0.1-0.3 0.1-0.4 0.2 0 0.4 0 0.7 0.1v-0.1c0.3 0.1 0.4 0 0.4-0.3 0-0.1 0-0.1-0.1-0.2h0.1c0-0.4 0-0.8 0.6-0.5 0.1-0.1 0-0.3 0.1-0.4 0.5 0.2 0.4-0.3 0.5-0.5 0.2-0.1 0.9 0.2 0.7-0.4 0.5 0.2 0.4-0.3 0.5-0.5 0.5 0 1.1 0 1.6 0.1 0.1-0.1 0-0.3 0.1-0.4 0.2 0 0.6 0.1 0.4-0.3v-0.1c0.4-0.1 1.4 0.4 1.1-0.5 0.4-0.1 1 0 1.4 0 0.1-0.1 0-0.3 0.1-0.4 0.2-0.1 0.6 0 0.9 0.1v-0.1h0.6c0.1-0.1 0.1-0.2 0-0.5 0.2-0.1 0.6 0 0.9 0 0-0.1 0-0.3 0.1-0.5h1c0.1-0.1 0.1-0.3 0.1-0.4h0.2v-0.1c0.2-0.1 0.9 0.2 0.7-0.4 0.2 0 0.4 0 0.7 0.1v-0.5h0.4v-0.1h0.3v-0.3h0.7v-0.1c0.2-0.1 0.8 0.3 0.6-0.3v-0.1h0.2c0.2-0.1 0.9 0.2 0.7-0.4h0.2v-0.1c0.3-0.1 0.7 0.1 1 0 0.1 0 0-0.3 0.1-0.4 0.1-0.1 0.4 0 0.6 0 0.2-0.1 0.8 0.2 0.7-0.4 0-0.1 0.2 0 0.3 0 0 0-0.1-0.1 0-0.1 0.3-0.1 0.7 0.1 1 0 0.1 0-0.1-0.4 0.1-0.4 0.5-0.3 1.5 0.6 1.5-0.5 0-0.3 0.7 0.1 1 0 0.1 0-0.1-0.3 0.1-0.4 0.4-0.2 0.8 0.5 1.1-0.5 0.2-0.6 1.4 0.2 2.1 0.1 0.1 0-0.1-0.4 0.1-0.4 0.5-0.1 1 0.2 1.4 0.1 0.1 0 0-0.3 0.1-0.4 0.1-0.1 0.5 0 0.8 0.1h0.6c0.1 0-0.2-0.4 0.1-0.6 0.5-0.3 1.4 0.2 2.1 0.1 0.1 0-0.1-0.4 0.1-0.4 0.4-0.1 0.8 0.1 1.1 0.1 0.3 0 0.9 0.4 0.9 0.1-1-1.3-0.5-0.9 0-0.9 0.1 0-0.1 0.2-0.1 0.2 0.7 0.1 1.5 0.2 2.2 0.2 0.1 0-0.1-0.3 0.1-0.4 0.4-0.3 1 0.6 1.5-0.5 0.3-0.7 1.6 0.2 2.5 0.1 0.1 0-0.1-0.4 0.1-0.4 0.5-0.1 1 0.3 1.5 0.1 0.2-0.1 0.1-0.2 0.6-0.2 0.2 0-0.1-0.5 0.1-0.6 0.6-0.2 1.4 0.2 2.1 0.1 0.1 0-0.1-0.4 0.1-0.4 1-0.1 1.9 0.2 2.9 0.2 0.1 0-0.1-0.4 0.1-0.4 1.2-0.1 2.3 0.3 3.5 0.3 0.2 0-0.1-0.6 0.1-0.6 6 0.1 12 0.9 18 1.2 0.1 0-0.1-0.4 0.1-0.4 1-0.1 1.9 0 2.9 0.2-0.1 0-0.2 0.3-0.2 0.4M154.8 625c0.1 0.3-2.4 1.2-2.8 1.7-0.3 0.4-1.1-0.2-1.6-0.1-0.2 0 0.1 0.5-0.1 0.6-0.4 0.2-1-0.1-1.4-0.1-0.1 0 0.1 0.4-0.1 0.4-0.7 0.1-1.4-0.2-2.1-0.1-0.2 0 0.1 0.5-0.1 0.6-0.4 0.2-1-0.1-1.4 0-0.1 0 0.1 0.4-0.1 0.4-0.4 0.1-1 0.1-1.4-0.1-1.1-0.6-1.9-0.4-2.7 0.4h-0.2c-0.1 0 0 0.2-0.1 0.3 0 0 0 0.1-0.1 0.1-0.8 0-1.6-0.2-2.4-0.2-0.1 0 0.1 0.3-0.1 0.4-0.5 0.3-1.7-0.7-1.5 0.5 0 0.1-0.3 0.1-0.3 0-1.1-2.9-1.9-5.5-2.9-10.1-0.2-1-1.6-2.1-1.8-3.1-0.5-2.5 0.7 0.4-0.3-7.4-3.9-30.4-8.8-66.6-7.8-88 5-0.4 4.4-0.2 5.8-1 1.1 0.1 2.3 0.2 3.4 0.2 0.8-0.1 1.6-0.3 2.3-0.4 6.2-1 10-0.9 10.3-4.9 0.3-3.8 1.6-10-2.2-10.3 0.1-1.6-7-0.7-14.7-0.8l-15.7-0.3c-11.9 0.1-18.8-1.5-18.2 2.6v12.4c7 1 15.6-0.4 15.6 0.7 0 0.4 0 0.7-0.1 1.1-0.1 1.3-1 5.4-1 6.6-0.1 1.8 1 0 0.9 1.8-0.8 17-1.4 34.3-1.1 51 0 0.8 0.8 0.8 1.2 1.6 0.5 1.1 1.1 2.8 0.1 3.4-0.7 0.2-2-0.4-0.3 5.2 0.5 1.8-0.7 3.6-0.6 5.1 0.4 12.7 0.8 22.6 1.6 34.6-2.3-0.1-4.6-0.1-6.9-0.5-0.2 0 0.2-0.5 0-0.6-0.6-0.3-1.4-0.1-2.1-0.2-0.1 0 0.1-0.4 0-0.4-0.2-0.1-0.4 0-0.6 0-0.1 0 0.2-0.4 0-0.4-1.5-0.3-2.1 0.1-3.6-0.2-0.2 0-0.7-0.6-0.9-0.7-0.7-0.3-0.5 0-1.3-0.2-0.1 0-1.1-0.4-1.2-0.4-1-0.3-2.1-0.1-3.1-0.3-0.1 0 0.1-0.3 0-0.4-0.6-0.2-1.2-0.1-1.9-0.2 1.4-16.2 1.9-30.9 4.9-47.3 0.3-1.5 1.1 0.7 1.8-12 0.2-3.8 1.9-7.5 2.3-12 1-11.1 4.7-25 0.3-23.4 0.3-3.6-0.9 0.1-8.4-2.9-3-0.2-5.9-0.4-8.9-0.6-3.3-0.2-6.3 2-8-1.3 0-0.5 0.1-1.1 0.1-1.6 0.4-5.9 1-14.1 4.4-22.4 1.6-3.9 1.9-9.7 4.7-9.5 9.8 0.7 17.2-1.2 20.5-2.2 3.3-0.9 5.9-0.5 8.4-0.2 1.1 0.1-0.7-4.3 0.2-4.1 1.7 0.2 3.4 0.4 5.2 0.6 5.1-0.3 10.1-0.6 15.2-1 0.3 1.2 0.5 2.4 0.8 3.6 2.7-0.2 5.4-0.3 8.2-0.5 6.6-0.1 13.2-0.3 19.8-0.4 0.4 0.3 0.7 0.6 1.1 0.9 0 0.4-0.1 0.7-0.1 1.1 0.1 8.8 0.3 17.7 0.4 26.5 0 1.6 0.1 3.1 0.1 4.7 0 0.9-9.5 1.5-16.8 3.7-2.6-0.2-3.6 1.9-7.1 1.3-4.8-0.8-0.6 6.3-1.6 9.1l0.3 6.9c-0.5 7.7-0.3 15.9 0.5 24.2 0.4 4.1 1 8.2 1.6 12.4 0.2 1.2 2.7 1.2 2.9 2.5 2.4 13.2 4.9 27 8.5 39.2 0.9 2.1 4 2.5 4.3 4.4" fill="#004D99"/>
  <path d="M386.4 572.2h13.5c3.3 0 6 0.6 8.1 1.8 2.4 1.4 3.5 3.4 3.5 6.2 0 2.9-1.4 5-4.3 6.3-0.9 0.4-2.2 0.8-3.8 1.2 1.8 0.3 3.2 0.7 4.4 1.2 3 1.4 4.5 3.7 4.5 6.9 0 3.1-1.5 5.5-4.4 7.2-2 1.1-4.3 1.7-7 1.7h-14.4c0.2-0.4 0.3-1 0.3-1.6v-29.3c-0.2-0.7-0.2-1.2-0.4-1.6z m6.9 14.5h2.9c2.6 0 4.5-0.4 5.9-1.1 1.9-1 2.8-2.8 2.8-5.4 0-3.8-2.4-5.6-7.3-5.6H393.3v12.1z m0 15.4h4.8c4.9 0 7.4-2.1 7.4-6.2 0-2.4-0.9-4.2-2.6-5.4-0.8-0.5-1.7-0.9-2.7-1.1-1-0.2-2.3-0.3-3.9-0.3h-3v13z m32.3-7.7l-3.9 8.8c-0.2 0.4-0.3 0.8-0.2 1.4h-3.8c0.4-0.5 0.7-0.9 0.8-1.4l13.1-29.9c0.2-0.4 0.3-0.8 0.3-1.2h5.8c0 0.3 0.1 0.7 0.3 1.1l13.5 30c0.2 0.4 0.5 0.8 1 1.4h-7.8c0-0.4-0.1-0.9-0.3-1.4l-3.8-8.8h-15z m1-2.4h12.8l-6.5-14.7-6.3 14.7z m36.5-13.8V603c0 0.6 0.1 1.1 0.3 1.6h-3.6c0.2-0.5 0.3-1 0.3-1.6v-29.3c0-0.6-0.1-1.1-0.3-1.6h6.4c0.1 0.3 0.3 0.7 0.7 1.1l21.9 24.8v-24.3c0-0.6-0.1-1.1-0.3-1.6h3.6c-0.1 0.4-0.2 0.9-0.3 1.5V603c0 0.6 0.1 1.1 0.3 1.5H486.3c-0.1-0.3-0.4-0.7-0.9-1.2l-22.3-25.1z m47.6 11V603c0 0.6 0.1 1.1 0.3 1.6h-7.2c0.2-0.5 0.3-1 0.3-1.6v-29.3c0-0.6-0.1-1.1-0.3-1.6h7.2c-0.2 0.5-0.3 1-0.3 1.5v12.8l12.9-13.3c0.2-0.3 0.5-0.6 0.7-1.1h5c-0.5 0.3-1 0.7-1.4 1.2L515.5 586l15.7 17.3c0.6 0.6 1.1 1.1 1.5 1.3h-8.6c-0.2-0.5-0.4-0.9-0.7-1.2l-12.7-14.2z m59.6-17.5c5.9 0 10.6 1.3 14.1 3.9 3.8 2.9 5.7 7.2 5.7 12.7 0 5.5-1.8 9.7-5.4 12.6-3.4 2.8-8.2 4.1-14.4 4.1-6.5 0-11.3-1.5-14.6-4.4-3.4-3-5.1-7.2-5.1-12.6 0-3.4 0.8-6.4 2.4-8.9 3.1-4.8 8.8-7.3 17.3-7.4z m0 2.5c-4.4 0-7.7 1.3-9.8 4-1.9 2.5-2.8 5.7-2.8 9.9 0 9.6 4.2 14.4 12.7 14.4 4.2 0 7.4-1.3 9.6-4 1-1.3 1.8-2.7 2.2-4.3 0.5-1.6 0.7-3.5 0.7-5.7 0-9.4-4.2-14.2-12.6-14.3z m29.7-2h20.4v2.6c-0.7-0.1-1.4-0.2-2.1-0.2h-11.3V587h9.6c0.7 0 1.4-0.1 2.1-0.2v2.7c-0.6-0.1-1.2-0.2-2-0.2h-9.7V603c0 0.6 0.1 1.1 0.3 1.6h-7.2c0.2-0.5 0.3-1 0.3-1.6v-29.3c-0.1-0.5-0.2-1-0.4-1.5z m78.1 36.1l-6.1 3.2c-4.9-2.3-8.3-3.9-10.2-4.6-1.9-0.8-5.1-1.8-9.4-3-2.1-0.6-3.8-1.3-5-2-1.2-0.7-2.3-1.6-3.2-2.7-2.5-2.9-3.7-6.5-3.7-10.7 0-3.6 0.9-6.8 2.6-9.6 1.8-2.8 4.6-4.8 8.3-6 2.7-0.8 5.6-1.3 8.9-1.3 5.7 0 10.2 1.1 13.4 3.4 2.3 1.6 4 3.9 5.1 6.8 0.8 2.1 1.2 4.3 1.2 6.6 0 3.2-0.7 6-2.1 8.5-1.2 2.1-2.7 3.7-4.7 4.9-1.9 1.2-4.5 2.1-7.6 2.6 0.7 0.2 2.2 0.8 4.5 1.7 3.4 1.2 6 1.9 8 2.2z m-17.6-34.1c-4.6 0-7.8 1.3-9.8 3.8-2 2.5-3 6-3 10.5 0 4.6 1.2 8.1 3.5 10.6 2 2.2 5 3.3 9.1 3.3 3.9 0 6.8-1.1 8.8-3.2 2.5-2.7 3.8-6.2 3.8-10.6 0-2.1-0.3-4.1-0.8-6-0.5-1.9-1.2-3.4-2.2-4.6-1.8-2.4-5-3.7-9.4-3.8z m61.4-2c-0.2 0.4-0.3 1-0.3 1.6v20.1c0 2.6-0.8 4.8-2.3 6.6-1.6 1.8-3.6 3-6.1 3.7-2.4 0.6-5 0.9-7.8 0.9-4.1 0-7.3-0.6-9.6-1.8-1.9-0.9-3.3-2.2-4.4-3.8-1-1.6-1.6-3.4-1.6-5.3v-20.4c0-0.6-0.1-1.1-0.3-1.6h7.2c-0.2 0.5-0.3 1-0.3 1.5v20.5c0 1.9 0.6 3.6 1.7 4.9 1.8 2.2 4.8 3.3 9 3.3 3.6 0 6.4-0.8 8.3-2.3 2-1.6 2.9-3.8 2.9-6.6v-19.7c0-0.6-0.1-1.2-0.3-1.6h3.9z m13.6 22.2l-3.9 8.8c-0.2 0.4-0.3 0.8-0.2 1.4h-3.8c0.4-0.5 0.7-0.9 0.8-1.4l13.1-29.9c0.2-0.4 0.3-0.8 0.3-1.2h5.8c0 0.3 0.1 0.7 0.3 1.1l13.5 30c0.2 0.4 0.5 0.8 1 1.4h-7.8c0-0.4-0.1-0.9-0.3-1.4l-3.8-8.8h-15z m1-2.4H749.3l-6.5-14.7-6.3 14.7z m36.5-13.8V603c0 0.6 0.1 1.1 0.3 1.6h-3.6c0.2-0.5 0.3-1 0.3-1.6v-29.3c0-0.6-0.1-1.1-0.3-1.6h6.4c0.1 0.3 0.3 0.7 0.7 1.1l21.9 24.8v-24.3c0-0.6-0.1-1.1-0.3-1.6h3.6c-0.1 0.4-0.2 0.9-0.3 1.5V603c0 0.6 0.1 1.1 0.3 1.5h-5.8c-0.1-0.3-0.4-0.7-0.9-1.2l-22.3-25.1z m37.7 26.4v-2.9l20.7-27h-17.8c-0.8 0-1.7 0.1-2.8 0.2v-2.7h28.2v2.7L818.3 602h18c1.1 0 2-0.1 2.6-0.2v2.8h-28.2z m44.1-15.6v14c0 0.6 0.1 1.1 0.3 1.5h-7.2c0.2-0.4 0.3-0.9 0.3-1.5v-29.3c0-0.6-0.1-1.1-0.3-1.5h7.2c-0.2 0.5-0.3 1-0.3 1.6v12.9h17.6v-12.9c0-0.5-0.1-1-0.3-1.6h7.2c-0.2 0.5-0.3 1-0.3 1.5V603c0 0.6 0.1 1.1 0.3 1.5h-7.2c0.2-0.5 0.3-1 0.3-1.5v-14h-17.6z m54.3-17.3c5.9 0 10.6 1.3 14.1 3.9 3.8 2.9 5.7 7.2 5.7 12.7 0 5.5-1.8 9.7-5.4 12.6-3.4 2.8-8.2 4.1-14.4 4.1-6.5 0-11.3-1.5-14.6-4.4-3.4-3-5.1-7.2-5.1-12.6 0-3.4 0.8-6.4 2.4-8.9 3-4.8 8.8-7.3 17.3-7.4z m0 2.5c-4.4 0-7.7 1.3-9.8 4-1.9 2.5-2.8 5.7-2.8 9.9 0 9.6 4.2 14.4 12.7 14.4 4.2 0 7.4-1.3 9.6-4 1-1.3 1.8-2.7 2.2-4.3 0.5-1.6 0.7-3.5 0.7-5.7 0-9.4-4.2-14.2-12.6-14.3z m61.5-2c-0.2 0.4-0.3 1-0.3 1.6v20.1c0 2.6-0.8 4.8-2.3 6.6-1.6 1.8-3.6 3-6.1 3.7-2.4 0.6-5 0.9-7.8 0.9-4.1 0-7.3-0.6-9.6-1.8-1.9-0.9-3.3-2.2-4.4-3.8-1-1.6-1.6-3.4-1.6-5.3v-20.4c0-0.6-0.1-1.1-0.3-1.6h7.2c-0.2 0.5-0.3 1-0.3 1.5v20.5c0 1.9 0.6 3.6 1.7 4.9 1.8 2.2 4.8 3.3 9 3.3 3.6 0 6.4-0.8 8.3-2.3 2-1.6 2.9-3.8 2.9-6.6v-19.7c0-0.6-0.1-1.2-0.3-1.6h3.9zM361 406.9c0.9 0.1 1.8 0.3 2.8 0.4 0.9 0.1 1.8 0.3 2.8 0.4 1.8 0.2 3.2 1.3 4 3.1 0.8 1.8 1.1 4.3 0.9 7.7-0.6 1.5-1.2 3.1-1.7 4.6-0.6 1.5-1.2 3.1-1.7 4.6 5.6 0.6 11.3 1.3 16.9 1.9 5.6 0.6 11.3 1.3 16.9 1.9 12.4 1.3 22.3 3.9 29.7 7.8 7.4 4 12.2 9.3 14.5 15.9-0.2 2.8-0.5 5.6-0.7 8.4-0.2 2.8-0.5 5.6-0.7 8.4-0.5 1.8-2.9 4-7.4 6.7s-11 5.8-19.5 9.4c-1.8-0.6-3.7-1.3-5.5-1.9-1.8-0.6-3.7-1.3-5.5-1.9-0.6 0.4-1.1 0.8-1.7 1.2-0.6 0.4-1.1 0.8-1.7 1.2-0.7 9.2-1.4 18.3-2.1 27.5-0.7 9.2-0.5 18.5-2.1 27.5-0.3 1.5-2.1 2-3.1 3.1-1 1-1.7 3.2-3.1 3.1-1.5-0.2-1.8-2.6-2.8-3.8-0.9-1.3-2.5-2.2-2.7-3.8-0.5-2.6 0.5-5.4 0.7-8 0.2-2.7 0.6-5.3 0.7-8 0.2-6.4 0.2-12.7 0.3-19.1l0.3-19.1c-9.1 0.1-18.2 0.3-27.2 0.4-9.1 0.1-18.2 0.3-27.2 0.4-0.3-0.6-0.7-1.3-1-1.9-0.3-0.6-0.7-1.3-1-1.9-1 1-2.1 2-3.1 3.1-1 1-2.1 2-3.1 3.1-3.4-0.5-6.1-4.1-7.9-10.9-1.8-6.8-2.9-16.6-3.1-29.6 7.1-6.9 13.7-11.9 19.7-15.1 6-3.2 11.4-4.5 16.2-4 1.6-7.4 3.2-12.9 4.8-16.6 1.2-4.4 2.8-6.2 4.4-6.2z m-28.9 45.9v3.8c0.2-3.1 6.3-5.4 18.3-6.9s35.4-2.3 59.1-2.3v-1.5-1.5c-23.7-1-47.1-0.8-59.1 0.6-12 1.3-18.1 4-18.3 7.8z m70.3 10.7c-12.4-1.3-23.8-1.6-34.3-1-10.5 0.6-19.9 2.2-28.4 4.8-1.4-0.8-2.8-1.5-4.1-2.3-1.4-0.8-2.8-1.5-4.1-2.3-0.1 1.1-0.2 2.3-0.3 3.4-0.1 1.1-0.2 2.3-0.3 3.4h93.8c0.1-0.5 0.2-1 0.4-1.5 0.1-0.5 0.2-1 0.4-1.5-1.8-0.8-3.1-3.9-4.9-4.7-1.8-0.8-5.2-0.3-7-1.1-0.6 0.5-0.3 2.2-0.8 2.7-0.6 0.5-1.1 1-1.7 1.5-1.4-0.3-2.8-0.5-4.2-0.8-1.7-0.1-3.1-0.3-4.5-0.6z m17.2 31.3c0.5 0.1 0.9 0.2 1.4 0.4 0.5 0.1 0.9 0.2 1.4 0.4 1.8 0 3.2 1.4 4 4.2 0.8 2.8 1.1 7 0.9 12.6 4.6 1 8 2.4 10.2 4.2 2.2 1.8 2.9 3.9 2.9 6.5v1.5c0 0.5 0.3 1.1 0 1.5-0.8 1.2-2.1 2-3.1 3.1-1 1-1.7 2.9-3.1 3.1-5.3 0.4-9.9-2.6-14-6.3-4-3.7-7.4-9-10.2-15.9 0.1-1 0.2-2 0.4-3.1 0.1-1 0.2-2 0.4-3.1 1.5-1.5 3-3.1 4.5-4.6 1.4-1.4 2.8-2.9 4.3-4.5z m-60-3c2.9 0.4 5.7 0.8 8.6 1.1 2.9 0.4 5.7 0.8 8.6 1.1 0.9 1.1 1.8 2.3 2.8 3.4 0.9 1.1 1.8 2.3 2.8 3.4-0.1 0.5-0.2 1-0.4 1.5-0.1 0.5-0.2 1-0.4 1.5-6.7 6.4-13.3 12.7-20 19.1-6.7 6.4-12.9 13.3-20 19.1-0.7 0.6-1.8-0.3-2.8-0.4-0.9-0.1-2 0.2-2.8-0.4-1.1-0.8-1.6-2.3-2.4-3.4-0.8-1.1-1.8-2.1-2.4-3.4-0.3-0.6 0-1.3 0-1.9 0-0.6-0.4-1.5 0-1.9 4.3-4.1 9.2-7.4 13.8-11.1l13.8-11.1c-0.9-0.1-1.8-0.3-2.8-0.4-0.9-0.1-1.8-0.3-2.8-0.4-6.2 0.4-12.4 0.8-18.6 1.1-6.2 0.4-12.4 0.8-18.6 1.1-0.8-1.7-1.6-3.3-2.4-5-0.8-1.7-1.6-3.3-2.4-5 0.2-3.3 4.4-5.7 12.4-7.1 8.2-1 20.2-1.4 36-0.9z m284.4-43.7v43.6c-2.5 3-4.9 6-7.4 9h-0.9l-0.9-0.1-0.9-0.2-0.8-0.4-0.8-0.5-0.7-0.6-0.6-0.7-0.5-0.8c-0.3-0.6-0.6-1.2-0.9-1.9-0.2-0.6-0.4-1.1-0.6-1.7l-0.3-1.2-0.3-2.1-0.1-1.5 0.1-1.6c0.2-1.9 0.5-3.8 0.7-5.7 0.7-5.3 1.3-10.7 2-16-5.1 1.2-10.3 2.4-15.4 3.6h-21.2c-3-3.4-6.1-6.7-9.1-10.1 2.3-0.2 4.6-0.4 6.9-0.7 2-0.2 3.9-0.5 5.9-0.8 2.5-0.4 4.9-0.8 7.3-1.3l4.6-1.1 4.1-1.2 2.2-0.8 2-0.9 1.2-0.6 1.2-0.6 1.1-0.6 1-0.7 0.9-0.7 0.8-0.7 0.7-0.7 0.7-0.7 0.6-0.7 0.5-0.7 0.4-0.8 0.3-0.8 0.3-0.8 0.2-0.8 0.1-0.8 0.1-3 0.1-3 0.4-3.5 0.4-2.3 0.4-1.4 0.7-1.8 0.5-1 0.6-0.9 0.3-0.4 0.3-0.4 0.4-0.3 0.4-0.3 0.4-0.3 0.4-0.2 0.4-0.2 0.5-0.1 0.5-0.1 0.5-0.1h0.9l7.4 9.8v15.9z m-64.9 4.5l-1.3 12v8.3c0.5 4.9 1.1 9.8 1.6 14.6 0.6 5.7 1.3 11.4 1.9 17.2-2.6 2.1-5.2 4.2-7.8 6.4-1.2 1-2.4 2-3.6 2.9-2.6-3.1-5.1-6.3-7.7-9.4v-5l3.3-21c-7.6 1.4-15.3 2.9-22.9 4.3h-17.1V496c0 3.4-0.1 6.9-0.3 10.3-0.1 2.1-0.3 4.3-0.6 6.4-0.2 1.8-0.5 3.7-0.9 5.5l-0.6 2.4-0.3 1.1-0.7 2.1-0.4 1-0.4 0.9-0.4 0.8-0.4 0.8-0.5 0.7-0.5 0.7-0.5 0.6-0.5 0.6-0.6 0.5-0.6 0.4-0.6 0.4-0.7 0.3-1.3 0.5c-2.5-3.4-5.1-6.7-7.6-10.1 0.5-1.6 1.1-3.2 1.6-4.8l8.7-25.8 0.1-0.3c-0.7-8.9-1.8-17.8-3.6-26.6-0.5-2.3-1-4.5-1.7-6.8-0.5-1.6-0.9-3.1-1.5-4.7-0.5-1.4-1-2.7-1.6-4-0.5-1-1-2-1.5-2.9l-0.6-0.9 7.5-10h4.4l0.5 0.1 0.5 0.2 0.5 0.3 0.4 0.4 0.4 0.4 0.4 0.5 0.3 0.5 0.3 0.6 0.3 0.6 0.5 1.5 0.5 1.7 0.5 2.4 1.3 14.5c0.1 2.3 0.1 4.6 0.1 6.9 0.7-0.8 1.5-1.7 2.3-2.5l14.8 3.9 21-3.9 2.2 2.4 0.5-16.3 0.8-8.4 0.4-2.8 0.6-3.1 0.6-2.1 0.3-0.9 0.3-0.9 0.4-0.8 0.4-0.7 0.4-0.7 0.4-0.6 0.5-0.5 0.5-0.4 0.5-0.4 0.6-0.3 0.6-0.2 1.1-0.1 2.8 4.6h3.9l-2.2 21.6z m-89.1 21l12.6 8V496h-5.4l-18.8-18.5c1.7-1.9 3.4-3.7 5-5.6h4.1l2.5 1.7z m288.2-52.5c0.4 0 0.9 0.2 1.3 0.6 0.4 0.3 0.8 0.8 1.2 1.2 0.4 0.5 0.8 0.9 1.2 1.3 0.4 0.4 0.8 0.6 1.2 0.6 4.1 0.3 8 0.8 11.6 1.6 3.7 0.8 7.1 1.8 10.3 3.3 3.2 1.4 6.1 3.3 8.8 5.6 2.7 2.3 6.5 4.5 7.4 8.6 1.5 7-1 13.5-3.1 18.9-2 5.4-5.1 9.9-9.2 13.5-4.1 3.6-9.2 6.3-15.3 8.1-6.1 1.8-13.3 2.5-21.4 2.7-0.8 0-1.5 0.5-2.3 0.7-0.8 0.2-1.5 0.5-2.3 0.7-0.8 0.2-1.5 0.5-2.3 0.7-0.8 0.2-1.9 0-2.3 0.7-0.5 0.9 0 2.2 0 3.3v6.6c0 1.1-0.4 2.3 0 3.3 0.4 1.1 1.5 1.7 2.3 2.6 0.8 0.9 1.5 1.7 2.3 2.6 0.8 0.9 1.5 1.7 2.3 2.6 0.8 0.9 1.3 2.2 2.3 2.6 2 0.6 4.1 0 6.1 0h12.2c2 0 4.1 0.4 6.1 0 0.7-0.1 1-1.1 1.5-1.7 0.5-0.6 1-1.1 1.5-1.7 0.5-0.5 1-1.1 1.5-1.7 0.5-0.6 2.1-1.3 1.5-1.7-1.4-0.7-2.9-0.1-4-0.4-1.2-0.3-2.1-0.7-2.9-1.2-0.8-0.6-1.4-1.2-1.7-2.1-0.4-0.8-0.6-1.8-0.6-2.9 0-0.9 0.6-1.9 1.9-3.2 1.3-1.3 3.2-2.7 5.8-4.4 2.6-1.6 5.8-3.5 9.7-5.5 3.9-2 8.3-4.6 13.6-6.7 0.3-0.1 0.5 0.5 0.8 0.7 0.3 0.2 0.5 0.5 0.8 0.7 0.3 0.2 0.5 0.5 0.8 0.7 0.3 0.2 0.7 0.4 0.8 0.7 0.1 0.3 0 0.6 0 0.9v1.8c0 0.3 0.2 0.8 0 0.9-0.7 0.5-1.5 0.5-2.3 0.7-0.8 0.2-1.5 0.5-2.3 0.7-0.8 0.2-1.5 0.5-2.3 0.7-0.8 0.2-1.7 0.1-2.3 0.7-0.4 0.4 0 1.1 0 1.7v3.4c0 0.5-0.5 1.6 0 1.7 2.8 0.5 5.5 0.4 8 1.1 2.5 0.7 4.7 1.8 6.7 3.2 2 1.4 3.9 3.2 5.5 5.3 1.6 2.1 3.4 4.4 4.3 7.4 0.1 0.4-0.6 0.5-0.8 0.7-0.3 0.2-0.6 0.5-0.8 0.7-0.3 0.2-0.5 0.5-0.8 0.7-0.3 0.2-0.5 0.6-0.8 0.7-0.2 0.1-0.4 0-0.7 0H836.9c-2.3-0.5-4.6-1.1-6.9-1.6-2.3-0.5-4.6-1.1-6.9-1.6-2.3-0.5-4.6-1.1-6.9-1.6-2.3-0.5-4.6-1.4-6.9-1.6-0.3 0 0.4 0.6 0.7 0.9 0.2 0.3 0.4 0.6 0.7 0.9 0.2 0.3 0.4 0.6 0.7 0.9 0.2 0.3 0.5 0.6 0.7 0.9 0.1 0.2 0 0.5 0 0.7V516.1c-0.2 1.7-0.9 3.2-2 4.5-1.1 1.3-2.7 2.4-4.8 3.2-2 0.9-4.5 1.5-7.5 1.9-2.9 0.4-6.4 0.6-10.2 0.6H772.3c-3.6 0-6.8-0.9-9.5-2.7s-5-4.5-6.8-8.1c-1.8-3.6-3.2-8.1-4.1-13.5-0.9-5.4-1.4-11.7-1.4-18.9V478c0-0.6 0.5-1.8 0-1.7-3.2 1.2-6.1 3-9.4 4.1-3.3 1-6.8 1.8-10.4 2.3-3.6 0.5-7.4 0.8-11.4 1-4 0.2-8.1-0.2-12.4 0.2-0.4 0 0 0.9 0 1.4v2.8c0 0.5-0.4 1.2 0 1.4 0.7 0.4 1.5 0 2.3 0h4.6c0.8 0 1.5 0.1 2.3 0 1.6-0.2 3.1-0.5 4.6-0.7 1.5-0.2 3.1-0.5 4.6-0.7 1.5-0.2 3.1-0.5 4.6-0.7 1.5-0.2 3.1-0.7 4.6-0.7 0.4 0 0.6 0.5 0.8 0.7 0.3 0.2 0.5 0.5 0.8 0.7 0.3 0.2 0.6 0.5 0.8 0.7 0.3 0.2 0.7 0.4 0.8 0.7 0.1 0.3 0 0.6 0 0.9v2.7c0 1.3-0.7 2.6-2.1 3.9-1.4 1.2-3.5 2.4-6.3 3.5s-6.3 2.1-10.5 3.1-9.3 0.9-14.8 2.8c-0.9 0.3 0 2.2 0 3.3v6.6c0 1.1-0.9 2.9 0 3.3 2.4 1 5.1-0.2 7.6-0.6 2.5-0.4 5.1-1.1 7.6-1.9 2.5-0.9 5.1-1.9 7.6-3.2 2.5-1.3 4.9-3.1 7.6-4.5 0.4-0.2 0.6 0.6 0.8 0.9 0.3 0.3 0.5 0.6 0.8 0.9 0.3 0.3 0.6 0.6 0.8 0.9 0.3 0.3 0.6 0.5 0.8 0.9 0.1 0.2 0 0.5 0 0.7V515.8c0 1.3-0.6 2.7-1.9 4.1-1.3 1.4-3.2 2.8-5.8 4.2-2.6 1.4-5.7 3.6-9.6 5.4-3.8 1.8-8.4 3.3-13.7 3.3h-8.5c-0.9 0-1.9-0.6-3-1.9-1.1-1.3-2.3-3.1-3.6-5.6-1.3-2.5-2.8-5.6-4.3-9.4-1.5-3.8-3.3-8.1-5-13.2-0.1-0.2 0-0.5 0-0.7V499.9c0-1.1 0.2-2.1 0.6-2.9 0.4-0.8 1-1.5 1.9-2.1 0.8-0.5 1.9-1 3.1-1.2 1.2-0.3 2.7-0.1 4.3-0.4 0.3 0 0-0.6 0-0.9V491c0-0.3 0.3-0.9 0-0.9-1.6-0.3-3.1-0.1-4.3-0.4-1.2-0.3-2.3-0.7-3.1-1.2-0.8-0.5-1.4-1.2-1.9-2.1-0.4-0.8-0.6-1.8-0.6-2.9V480.6c0-1.1 0.2-2.1 0.6-2.9 0.4-0.8 1-1.5 1.9-2.1 0.8-0.5 1.9-0.9 3.1-1.2 1.2-0.2 2.7-0.4 4.3-0.5 4.6-0.3 9.2-0.6 13.7-0.9 4.6-0.3 9.2-0.6 13.7-0.9 4.6-0.3 9.2-0.6 13.7-0.9 4.6-0.3 9.1-0.9 13.7-0.9 0.4 0 0.6 0.6 0.8 0.9 0.3 0.3 0.6 0.6 0.8 0.9 0.3 0.3 0.6 0.6 0.8 0.9 0.3 0.3 0.7 1.3 0.8 0.9 0.4-1 0-2.2 0-3.3V464c0-1.1 1-3.2 0-3.3-5.2-0.3-10.3 1.6-15.4 2.4-5.1 0.8-10.3 1.6-15.4 2.4-5.1 0.8-10.3 1.6-15.4 2.4-5.1 0.8-10.2 2.4-15.4 2.4-0.9 0-1.1-1.6-1.6-2.4-0.5-0.8-1.1-1.6-1.7-2.4-0.6-0.8-1.1-1.6-1.7-2.4-0.5-0.8-1.5-1.4-1.7-2.4-0.4-3 0.3-5.8 0.8-8.3 0.5-2.5 1.3-4.7 2.4-6.7 1-2 2.4-3.6 3.9-5 1.6-1.4 3.3-3.1 5.5-3.4 0.7-0.1 1.1 1.1 1.7 1.6 0.5 0.6 1.1 1.1 1.7 1.7 0.6 0.5 1.1 1.1 1.7 1.6 0.5 0.6 1.7 0.8 1.7 1.7 0 0.8-1.1 1.1-1.7 1.6-0.5 0.6-1.1 1.1-1.7 1.7-0.5 0.5-1.1 1.1-1.7 1.6-0.5 0.5-1.7 0.8-1.7 1.7 0 0.8 1.1 1.1 1.7 1.7l1.7 1.7c0.6 0.6 1.1 1.1 1.7 1.6 0.5 0.6 0.9 1.7 1.7 1.7 4.1 0 8.2-1.1 12.2-1.7 4.1-0.5 8.2-1.1 12.2-1.6 4.1-0.6 8.2-1.1 12.2-1.7 4.1-0.6 8.1-1.4 12.2-1.7 0.4 0 0.4 0.6 0.7 0.9 0.2 0.3 0.4 0.6 0.7 0.9 0.2 0.3 0.4 0.6 0.7 0.9 0.2 0.3 0.6 1.3 0.7 0.9 1.4-5.4 2.5-10.3 4-14.4 1.6-4.1 3.4-7.6 5.5-10.3 2.1-2.7 4.4-4.8 7-6.2 3-1.4 5.8-2.1 8.9-2.1z m-9.2 16.2c-1 0.9 0 2.8 0 4.2v8.4c0 1.4-1.2 3.6 0 4.2 2.6 1.3 5.6 0 8.4 0h16.8c2.8 0 5.7 0.5 8.4 0 0.7-0.1 1.1-1.1 1.7-1.7 0.6-0.5 1.1-1.1 1.7-1.6l1.7-1.7c0.6-0.5 2.1-1 1.7-1.6-1.5-2.3-3.9-3.2-5.8-4.5-1.9-1.3-3.8-2.4-5.6-3.2-1.8-0.9-3.6-1.5-5.3-1.9-1.7-0.4-3.4-0.6-5.1-0.6H773.8c-1.8 0-3.6-1.1-4.8 0z m-3.3 26.4c-1 0.3-0.8 2.2-1.2 3.3l-1.2 3.3-1.2 3.3c-0.4 1.1-0.9 2.2-1.2 3.3 0 0.2 0.3 0 0.5 0h1.5c2.7-0.5 5.3-1.1 8-1.7 2.7-0.6 5.3-1.1 8-1.7 2.7-0.5 5.3-1.1 8-1.7 2.7-0.5 5.4-0.9 8-1.6 0.2-0.1 0-0.5 0-0.7v-1.4c0-0.2 0.2-0.7 0-0.7-2.4-0.5-4.9-0.6-7.3-0.9-2.4-0.3-4.9-0.6-7.3-0.9-2.4-0.3-4.9-0.6-7.3-0.9-2.5-0.4-5-1.7-7.3-1z m146.8-43.5l3 4.5 0.3 0.4v4.2l-8.6 7.8-10.1 9.9-6.2 6.5-7.7 8.8-6.3 7.8-5.6 7.7-2.7 4.1-4.4-5.4v-4.9c2.9-4.3 5.8-8.6 8.8-12.8l14.3-18.9 5.4-6.3c1.1-1.2 2.1-2.3 3.2-3.4 1.3-1.3 2.6-2.5 4-3.7 0.6-0.5 1.3-1 1.9-1.5 1-0.7 1.9-1.4 3-2.1 0.6-0.3 1.1-0.7 1.7-1 0.5-0.3 1.1-0.5 1.6-0.7 0.5-0.2 1-0.4 1.5-0.5l1.5-0.3 1.4-0.2z m106.4 13.4c0.3 0.4 0.6 0.8 0.9 1.1l0.4 0.4c0.2 0.2 0.3 0.4 0.4 0.7l0.1 0.5v3.7c0 0.3 0 0.5-0.1 0.7-0.1 0.2-0.2 0.5-0.3 0.7-0.2 0.2-0.3 0.4-0.5 0.6-0.5 0.7-0.9 1.4-1.4 2.1-0.2 0.3-0.4 0.5-0.6 0.8 0.1 0.7 0 1.4 0 2.2 0 0.1 0.1 0.3 0.1 0.4v0.7l-0.3 0.6-0.6 0.2h-0.6l-0.9-0.2-1.9-0.7-6.2-1.7-1.6-0.6-1-0.2-2.2 0.1c-6.4 0.4-12.7 1.2-19 1.8-10.7 1-21.5 1.9-32.2 2.9-10.5 0.9-20.9 1.9-31.4 2.8-1.3-1.6-2.7-3.2-4-4.9v-4.6c19.8-2.3 39.6-4.7 59.4-7 5.5-0.7 10.9-1.3 16.4-1.9 7.6-0.9 15.1-2 22.7-2.7 0.8-0.1 1.6-0.1 2.5-0.2l0.4 0.1 0.4 0.2 0.2 0.3 0.3 0.6c0.3 0 0.5 0.2 0.6 0.5z m-114.5 43.9c-0.3 0.1-0.6 0.2-1 0.3l-1.5 0.6-1.2 0.6-1.1 0.7-1.1 0.8-1 1-1 1.1-0.9 1.2c-0.4 0.5-0.8 1.1-1.1 1.7-0.6 1-1.1 2-1.6 3-0.4 0.8-0.7 1.7-1.1 2.6l4.5 6.9c0.3 0.4 0.6 0.9 0.9 1.3v24.1H886.3v-25.9c-2.6 2.2-5.2 4.4-7.7 6.5h-7.4v-8.7l0.2-0.8c0.4-1 0.8-2 1.3-3 0.2-0.4 0.5-0.8 0.7-1.2 1.1-1.7 2.2-3.2 3.5-4.7 3.3-3.8 6.9-7.3 10.7-10.6 4.3-3.8 8.8-7.4 13.4-10.9l1.1-0.8h7.4V477h-2c-1.1 0.1-2.1 0.2-3.1 0.5z m97.1-8.3c-1.5 0.3-2.9 0.6-4.4 0.9l-5.3 1 0.2 0.1 0.8 0.1 0.4 0.1 0.4 0.4 0.2 0.5c0.2 2.7 0.3 5.4 0.4 8.1 0.1 5.5 0 11.1-0.1 16.6 0 2.8-0.1 5.6-0.1 8.4-0.2 7.8-0.6 15.6-1.6 23.4-0.2 1.5-0.5 3-0.8 4.4-0.2 1-0.4 2-0.7 3l-0.4 1.3-0.4 1.1-0.5 1-0.5 0.9-0.6 0.7-0.7 0.6-0.8 0.4-1.2 0.2-0.7-1-0.6-1.2-0.5-2-0.6-4.6c-0.1-0.6-0.2-1.1-0.4-1.6-1.4-4.4-2.8-8.9-3.8-13.4-0.3-1.4-0.6-2.9-0.8-4.3-0.7-4.8-1.4-9.5-1.9-14.3-0.2-2-0.3-4-0.4-6-0.2-5.3 0-10.6 0.2-15.9 0-1.2 0-2.4-0.1-3.6-4.1 0.8-8.3 1.6-12.4 2.5-4.7-1.1-9.4-2.1-14.2-3.2-1-0.2-1.9-0.6-2.9-0.8l-1.7-0.2-1.2 0.6-1.9 0.9-3.6 1.6-1.8 0.7v1.9c0 0.2 0.1 0.4 0.1 0.7v0.4l-0.3 0.4-0.7 0.1-0.8-0.2-1.3-0.5c-1-0.4-1.9-0.9-2.9-1.3-5.3-2.1-10.6-4.3-15.8-6.5 1-0.6 2-1.2 3-1.7 1-0.4 1.9-0.8 2.9-1.1 4.3-1.4 8.8-2.4 13.2-3.2l25.4-4.1 20.6-2.6c8.2-1 16.3-2 24.5-2.9 4.6-0.5 9.2-0.9 13.8-1.3l1.5-0.1 0.4 0.1 0.4 0.2 0.3 0.3c0.2 0.2 0.3 0.5 0.4 0.8 0.2 0.2 0.4 0.5 0.6 0.7 0.4 0.4 0.7 0.9 1.1 1.3 0.2 0.3 0.5 0.5 0.7 0.7 0.2 0.2 0.3 0.4 0.4 0.7l0.1 0.3v3.3l0.1 0.7v0.4l-0.2 0.5-0.4 0.3c-0.8 0.2-1.6 0.4-2.3 0.6l-6.6 1.2-13.2 2.5z" fill="#161918"/>
</svg>
