<svg viewBox="0 0 1024 1024" xmlns="http://www.w3.org/2000/svg" height="1em" width="1em">
  <path d="M190.31 400.87v13.322H180c-15.42 0-24.108-7.13-24.108-23.852v-79.409h14.4v23.339h20.02v12.375h-20.02v43.885c0 6.112 2.855 10.34 9.732 10.34h10.288zM54.352 376.206h14.73v.568c0 8.356 3.226 15.107 9.33 19.573 5.385 3.923 13.014 6.128 21.459 6.128 9.994 0 26.748-2.509 26.748-19.198 0-13.462-14.722-16.634-30.33-20.005l-3.621-.815c-18.438-4.058-35.027-9.355-35.027-29.376 0-22.474 19.94-32.476 39.66-32.476 24.764 0 39.47 12.735 40.324 35.025l.008.607H122.91l-.048-.512c-1.534-14.18-10.563-21.754-26.17-21.754-7.053 0-23.53 1.837-23.53 18.047 0 11.377 13.1 14.181 28.21 17.513l5.882 1.286c16.889 3.907 34.869 9.867 34.869 32.004 0 22.794-21.435 33.092-42.704 33.092-21.79 0-45.068-10.322-45.068-39.14v-.567zm176.025 25.215c17.227 0 23.671-10.63 23.671-17.348V371.72c.322-.193 0 0 0 0-3.92 2.301-9.682 3.05-15.789 3.854-2.362.314-4.861.644-7.175 1.039-7.634 1.36-15.452 4.144-15.452 13.76 0 9.945 10.325 11.047 14.745 11.047zm45.985-1.046v11.29l-.297.177c-2.507 1.513-5.568 2.35-9.65 2.35-5.055 0-10.944-2.237-11.49-11.588-7.024 7.564-16.176 11.588-27.457 11.588-16.81 0-26.83-8.626-26.83-22.893 0-18.258 13.515-22.378 27.328-25.025 3.085-.588 6.002-1.014 8.87-1.417 10.053-1.416 17.365-2.478 17.365-9.648 0-8.69-5.464-12.673-17.067-12.673-12.583 0-18.698 4.659-19.22 14.532l-.032.555h-14.15l.008-.62c.916-23.649 21.8-27.14 34.166-27.14 20.41 0 30.325 7.298 30.325 22.441v40.821c0 6.414.152 8.296 3.567 8.296.836 0 1.993-.08 3.76-.764l.804-.282zm12.047-66.982h13.141v11.338c5.427-8.755 13.778-13.148 24.953-13.148 18.363 0 27.305 9.514 27.305 29.093v51.795h-13.951v-53.296c0-9.284-5.82-15.131-15.162-15.131-14.022 0-22.35 8.976-22.35 23.87v44.557h-13.936v-79.078zm117.842 68.129c17.305 0 23.427-15.025 23.427-29.156 0-6.826-1.754-29.26-24.168-29.26-20.813 0-23.036 20.933-23.036 29.867 0 14.242 7.349 28.549 23.777 28.549zm22.972-99.196H443.3v109.918h-14.077v-9.589c-4.328 7.257-13.28 11.537-24.79 11.537-11.573 0-21.115-4.471-27.635-12.662-5.874-7.417-9.222-17.852-9.222-29.46 0-25.276 14.348-41.554 36.563-41.554 8.313 0 19.146 3.106 25.084 11.56v-39.75zm57.54 99.097c17.267 0 23.65-10.62 23.65-17.347v-12.35c.321-.194 0 0 0 0-3.859 2.292-9.606 3.04-15.764 3.877-2.444.29-4.871.628-7.187 1.022-7.604 1.352-15.37 4.136-15.37 13.75 0 9.945 10.25 11.048 14.671 11.048zm46.03-1.054v11.304l-.282.17c-2.5 1.52-5.563 2.349-9.694 2.349-5.089 0-10.973-2.237-11.536-11.587-6.945 7.572-16.158 11.587-27.42 11.587-16.84 0-26.793-8.626-26.793-22.891 0-18.256 13.465-22.368 27.275-25.023 3.087-.587 5.997-1.014 8.891-1.416 10.089-1.408 17.332-2.47 17.332-9.655 0-8.585-5.378-12.656-17.042-12.656-12.573 0-18.65 4.658-19.165 14.523l-.032.555h-14.244l.024-.62c.924-23.647 21.8-27.147 34.212-27.147 20.362 0 30.306 7.338 30.306 22.448v40.825c0 6.413.153 8.288 3.626 8.288.82 0 1.985-.08 3.77-.765l.772-.29zm53.35-68.747v14.664h-.572c-18.419 0-27.059 9.9-27.059 30.955v35.23H544.84v-79.063h12.937v15.256c6.433-12.27 15.066-17.476 27.825-17.058l.542.016zm40.416 69.9c17.19 0 23.37-15.025 23.37-29.156 0-6.826-1.736-29.26-24.118-29.26-20.805 0-23.012 20.933-23.012 29.867 0 14.242 7.304 28.549 23.76 28.549zm22.94-99.196h14.09v109.918h-14.09v-9.597c-4.38 7.241-13.262 11.545-24.795 11.545-11.574 0-21.06-4.471-27.568-12.662-6.045-7.417-9.271-17.852-9.271-29.46 0-25.276 14.393-41.554 36.472-41.554 8.435 0 19.14 3.106 25.162 11.56v-39.75zM83.496 522.54h15.601l-.055.64c-1.382 13.549-6.34 24.826-14.386 32.416-8.159 7.678-19.59 11.765-33.015 11.765C20.407 567.361 1 545.36 1 509.951c0-16.06 4.71-30.648 13.242-40.893 9.31-11.15 22.648-17.004 38.623-17.004 11.566 0 21.909 3.135 29.805 9.078 8.412 6.318 13.695 15.572 15.292 26.817l.103.68H82.487l-.087-.496c-2.797-14.277-13.878-22.73-29.702-22.73-11.71 0-21.258 4.566-27.549 13.252-5.52 7.654-8.603 18.364-8.603 30.233 0 13.045 2.995 24.026 8.635 31.816 6.275 8.854 15.617 13.3 27.684 13.3 17.428 0 29.145-11.9 30.575-30.928l.056-.536zm29.37-67.044h13.92v40.417c4.948-8.95 15.935-12.113 24.217-12.113 18.342 0 27.26 9.598 27.26 29.295v52.545h-13.92v-54.062c0-9.366-5.813-15.21-15.18-15.21-14 0-22.376 8.998-22.376 24.137v45.135h-13.921V455.496zm107.185 99.17c17.25 0 23.631-10.721 23.631-17.455v-12.276c.314-.185 0 0 0 0-3.842 2.344-9.637 3.101-15.802 3.899-2.34.298-4.799.604-7.106 1.014-7.676 1.362-15.473 4.036-15.473 13.67 0 10.085 10.305 11.148 14.75 11.148zm-12.483-43.924h-14.21v-.62c.924-23.578 21.83-27.09 34.2-27.09 20.408 0 30.351 7.338 30.351 22.377v40.872c0 6.54.153 8.385 3.545 8.385.86 0 2.01-.064 3.786-.725l.795-.273v11.269l-.29.185c-2.499 1.522-5.585 2.24-9.636 2.24-5.032 0-11.004-2.135-11.55-11.495-6.921 7.563-16.18 11.494-27.41 11.494-16.79 0-26.838-8.554-26.838-22.917 0-18.18 13.512-22.296 27.345-24.946 3.062-.596 6.004-1.023 8.85-1.418 10.087-1.418 17.329-2.449 17.329-9.755 0-8.61-5.377-12.606-17.032-12.606-12.604 0-18.696 4.583-19.227 14.459l-.008.564zm418.99 44.026c17.19 0 23.37-15.125 23.37-29.18 0-6.824-1.736-29.293-24.118-29.293-20.805 0-23.012 20.975-23.012 29.924 0 14.183 7.304 28.55 23.76 28.55zm37.03 10.788h-14.09v-9.66c-4.38 7.262-13.262 11.465-24.795 11.465-11.574 0-21.06-4.386-27.568-12.577-6.045-7.447-9.271-17.97-9.271-29.492 0-25.298 14.393-41.582 36.472-41.582 8.435 0 19.14 3.1 25.162 11.57v-39.784h14.09v110.06zM409.6 495.71c-13.742 0-20.873 10.552-21.912 21.306h43.984c-.895-12.212-10.224-21.306-22.072-21.306zm21.577 44.803h14.126c-3.75 17.076-16.117 26.847-34.176 26.847-23.559 0-37.54-15.433-38.388-42.418 0-24.327 15.804-41.911 37.629-41.911 10.096 0 18.33 3.31 24.598 9.876 7.858 8.248 12.295 21.885 11.728 36.216l-.04.58h-59.03c-.12 7.314 2.127 13.782 6.427 18.285 4.165 4.366 10.257 6.67 17.532 6.67 10.336 0 17.18-5.027 19.594-14.145zm109.209-44.803c-13.691 0-20.849 10.552-21.96 21.306h44.072c-.896-12.212-10.293-21.306-22.112-21.306zm21.568 44.98h14.106c-3.734 16.964-16.098 26.67-34.139 26.67-23.6 0-37.562-15.433-38.386-42.418 0-24.327 15.803-41.911 37.626-41.911 10.053 0 18.362 3.31 24.591 9.876 7.95 8.248 12.292 21.885 11.74 36.216l-.032.58h-59.1c-.112 7.314 2.183 13.782 6.518 18.285 4.174 4.366 10.212 6.67 17.481 6.67 10.228 0 17.146-4.946 19.593-13.968zm-268.47 24.95h-13.68v-79.167h12.946V501.7c6.33-12.15 14.972-17.357 27.817-16.923l.542.008v14.651h-.565c-18.44 0-27.06 9.791-27.06 30.904v35.3zm180.735 0H460.51v-79.126h12.974v15.2c6.318-12.16 14.877-17.371 27.79-16.937l.54.008v14.663h-.572c-18.487 0-27.023 9.79-27.023 30.928v35.263zm-106.643-13.303v13.302h-10.24c-15.475 0-24.18-7.16-24.18-23.98v-79.28h14.454v23.317h19.966v12.38H347.61v43.789c0 6.198 2.841 10.472 9.75 10.472h10.216z" fill="#0070AF"/>
  <path d="M824.183 716.484c-11.612 6.787-22.026 10.876-33.102 10.876-28.42 0-52.13-23.118-53.49-50.959l55.336-32.771 86.16 38.273-54.904 34.58zm73.706-331.121-42.002 25.557c-3.802 2.241-8.769 5.853-8.769 11.467 0 6.38 9.734 11.284 18.327 15.359l-52.66-23.221c-15.433-6.826-30.97-14.577-30.97-33.285 0-7.87 2.248-14.234 5.891-19.696L901.556 292c13.663 7.703 26.888 23.34 26.888 44.353 0 22.447-11.375 37.487-30.555 49.01zm16.813 155.735 50.739 22.977c19.926 8.609 25.247 19.245 25.247 32.04 0 7.272-4.046 14.59-9.871 19.605l-85.787-38.388 14.495-8.243c12.282-6.785 16.392-10.955 16.392-15.483 0-4.728-2.908-7.837-11.215-11.648v-.86z" fill="#82B9D8"/>
  <path d="M817.295 557.963c-18.383-8.064-36.472-15.037-36.472-34.978 0-10.317 1.402-16.088 8.233-22.843l88.038 39.716-21.627 12.278c-6.013 3.583-10.187 6.725-10.187 11.277 0 4.852 5.708 8.986 13.414 12.436l-41.399-17.886zm170.761-89.775-10.354 5.989-86.658-38.57 100.65-61.108c13.602 7.926 26.895 23.484 26.895 44.502 0 22.572-10.959 38.105-30.533 49.187z" fill="#B1D6A0"/>
  <path d="M1005.73 731.348c-21.905-16.866-45.262-28.261-73.633-41.132l-131.1-58.06c-32.97-14.689-54.804-34.266-54.804-67.191 0-32.049 15.433-47.535 35.625-60.286l7.238-4.537c-4.998 5.43-8.139 10.917-8.139 21.363 0 20.19 17.362 27.049 35.617 35.214l152.543 67.255c26.546 11.411 50.843 31.02 50.843 64.376 0 18.373-6.935 34.784-14.19 42.998" fill="#00A439"/>
  <path d="m990.192 609.273-9.518 5.949c5.875-5.016 9.957-12.337 9.957-19.617 0-12.775-5.907-22.95-25.19-31.53l-163.074-71.856c-32.97-14.561-53.465-33.34-53.465-66.17 0-30.183 15.05-49.952 38.805-64.505-3.643 5.463-5.89 11.826-5.89 19.697 0 18.707 15.536 26.458 30.969 33.284l158.53 69.998c28.825 12.735 52.198 32.01 52.198 67.216 0 27.463-12.77 44.76-33.322 57.534M187.177 715.698l-.016-.637.637.04c5.632.458 71.095.458 76.969 0l.628.05-.25 5.612.25 5.571-.628-.033c-5.874-.449-71.07-.31-77.001 0l-.605.017.153-5.539-.137-5.081zm-12.626-38.403.145-.768.677.392c1.523.866 6.744 3.84 10.306 5.171l.467.172-5.512 22.734c-.362 1.528-4.907 20.464-5.398 23.152l-.194.988-.733-.662c-2.635-2.311-9.13-7.009-11.225-8.201l-.41-.254.16-.449c.742-1.928 3.957-11.813 6.487-20.807 2.498-8.806 4.778-19.352 5.23-21.468zm70.506 16.46H209.12v5.948c0 1.192.339 1.568 1.499 1.568h32.812c1.2 0 1.627-.425 1.627-1.674v-5.841zm-35.938-13.928v5.874h35.938v-5.874c0-.94-.491-1.397-1.458-1.397h-33.15c-.975 0-1.33.384-1.33 1.397zm17.816-8.88 23.868-.008c2.94 0 4.496 1.585 4.496 4.559v29.433c0 2.86-1.62 4.493-4.424 4.493h-47.106c-2.708 0-4.327-1.634-4.327-4.395v-29.54c0-2.908 1.579-4.525 4.407-4.525l23.086-.017zM167.5 650.753l.29-.457 20.322 11.494.548.31-7.51 11.102-.467-.335c-.049-.033-3.36-2.671-8.276-5.661l-11.353-6.625.419-.531c1.192-1.47 5.415-8.267 6.027-9.297zm6.954-27.734.33-.433 18.268 12.817s-3.232 4.036-3.288 4.093c-.79.809-2.337 2.851-4.56 6.094l-.38.531-.467-.457c-1.313-1.283-4.818-4.526-7.872-6.911-3.232-2.5-7.696-5.629-8.8-6.29l-.556-.376 4.062-4.714 3.263-4.354zm58.371-4.011.629-.016-.057.653c-.37 3.889-.556 7.32-.556 10.26v4.33h20.097c3.287 0 7.357-.22 12.054-.686l.637-.057-.161 5.342.161 5.719-.645-.057c-4.44-.45-8.404-.695-11.845-.695l-10.894-.073c2.216 3.186 5.778 8.03 11.7 12.948 7.39 6.135 12.522 8.063 13.078 8.25l.733.254-.475.645c-.629.809-3.82 5.09-4.786 8.365l-.218.67-.596-.335c-.435-.245-10.492-5.873-15.165-10.611-7.728-7.834-11.878-15.317-13.513-18.601v22.963l-.597-.04c-3.368-.221-6.003-.221-9.355 0l-.62.04.056-23.135c-9.033 18.977-24.94 26.795-26.768 27.653l-.532.228-.226-.539c-1.635-4.06-4.577-8.226-4.915-8.684l-.443-.604.717-.27c9.508-3.39 17.163-9.868 22.82-19.124h-7.55c-3.191 0-6.753.245-10.556.678l-.66.082s.193-5.408.217-5.408l-.218-5.661.653.057c4.11.466 7.647.686 10.564.686h17.123v-4.33l-.564-10.268-.033-.645 5.705.106 5.004-.09zm370.545 5.794-.017-.647.644.058c7.99.522 44.115.448 52.039 0l.66.05-.26 5.766.268 6.173-.668-.067c-6.26-.522-46.222-.431-52.014 0l-.652.033.175-5.982-.175-5.384zm-22.772-8.775.4-.477.46.436c2.898 2.617 7.927 6.674 9.347 7.72l.5.378-.4.469c-11.677 13.554-22.803 24.606-32.158 31.922l-.484.379-.351-.494c-2.899-3.917-6.449-7.588-7.484-8.625l-.426-.436.46-.387c11.543-10.031 19.995-18.689 30.136-30.885zm5.34 25.873.373-.535.47.446c1.826 1.734 4.917 4.296 9.201 7.61l.487.39-.422.446c-.966 1.013-5.598 6.355-13.72 15.887 0 .405 1.014 60.688 1.014 60.688l-.048.583-6.378-.235-6.255.235.08-.656c.025-.244.658-5.326.658-11.9 0 0 .106-33.557.122-36.313-.958 1.094-2.459 2.82-2.483 2.82-1.233 1.484-3.667 4.02-7.383 7.733l-1.842 1.986-.406-.51c-1.712-2.14-5.704-6.704-7.278-8.268l-.405-.406.405-.389c12.13-11.972 24.438-26.416 33.81-39.612zm12.252 15.562v-.608l.62.04c6.968.56 59.547.416 65.88 0l.62-.016-.237 6.356.236 6.003s-21.394-.864-22.536-.896c.016 4.834.082 40.143.082 40.143 0 12.735-6.169 18.931-18.832 18.931h-8.258V716.25h8.258c4.577 0 6.984-2.634 6.984-7.613l-.016-40.32c-3.158.049-24.193.425-32.19.913l-.611.04.114-5.931-.114-5.876zm-261.562-29.229-.031-.636.61.04c5.583.384 53.756.294 59.007 0h.618l-.293 5.887.253 5.118.04.645s-16.974-.547-18.067-.58c.024 5.952.032 67.663.032 67.663 0 13.005-5.98 19.324-18.296 19.324h-7.992v-11.38h7.992c4.467 0 6.803-2.694 6.803-7.772 0 0-.031-66.683-.055-67.834-1.085 0-30.058.58-30.058.58h-.594l.158-5.887-.127-5.168zm-28.343-10.962H319.6l.579.008s-.658 23.264-.674 24.078c1.569.073 7.322.139 14.17-.61l.625.04-.166 5.816.166 5.694-.626-.057c-1.434-.18-8.218-.725-14.074-.758v20.551c.594-.228 2.211-.782 2.211-.782 3.899-1.344 9.795-3.364 16.57-6.67l.595-.278.166.66c.064.212.175 1.434.468 5.238l.38 4.659.048.513-.38.138c-8.987 3.813-17.926 6.875-20.058 7.608v25.382c0 12.74-5.88 18.914-17.95 18.914h-6.521v-11.542h6.522c4.358 0 6.649-2.631 6.649-7.576l-.008-21.78c-1.015.3-15.858 4.878-15.858 4.878l-.657.196-.048-.717s-.27-4.847-.27-4.822l-.594-6.321.508-.114c8.344-1.523 15.247-3.747 16.919-4.285v-23.85h-.088c-9.311.293-15.342.538-17.457.709l-.619.049.206-6.077-.206-5.547.642.065c3.218.391 13.932.603 17.498.676-.008-.839-.555-24.086-.555-24.086h.57zm185.68 59.963h-5.589l-.008 35.283a6139.168 6139.168 0 0 0 13.224-10.575c-.975-1.824-1.836-3.647-2.486-5.39-1.811-4.55-3.558-11.055-5.141-19.318zm20.485-22.347h-26.074v11.772c0 1.09.406 1.506 1.495 1.506h23.06c1.153 0 1.519-.383 1.519-1.571v-11.707zm-26.074-19.652v10.689h26.074v-10.649c0-.977-.488-1.457-1.47-1.457h-23.182c-1.178 0-1.422.773-1.422 1.417zm-6.246-11.08h38.623c2.802 0 4.492 1.652 4.492 4.404v44.246c0 2.833-1.65 4.429-4.525 4.429h-16.44c.756 5.788 3.16 12.48 3.964 14.491.837-.92 12.33-13.058 12.33-13.058l.333-.35 9.439 6.211s-17.269 14.622-18.081 15.305c5.426 7.482 11.883 12.765 20.339 16.527 0 0 .796.358.82.358l.366.179.723.366-8.31 8.255-1.478 1.514-.3.383-.39-.285s-2.056-1.465-2.04-1.465c-2.412-1.946-5.718-5.04-9.868-9.2-4.208-4.615-7.465-9.101-9.91-13.465.114.774 1.324 9.322 1.324 9.322l-.268.195c-.707.546-16.367 12.44-18.276 13.807-1.576 1.156-3.606 1.368-5.158.578-1.356-.692-2.12-2.019-2.12-3.655l.106-94.713c0-2.727 1.6-4.38 4.305-4.38zm-49.897 60.628.673-.393 5.23 23.967-.488.154a42.984 42.984 0 0 0-7.73 3.022l-.704.393-.104-.748s-.553-3.87-.553-3.816c-1.153-7-2.187-12.164-3.172-15.71l-1.017-3.716.52-.139c3.108-.956 5.583-1.98 7.345-3.014zm25.515.327.105-.72.654.29c1.104.523 6.94 2.307 8.218 2.55l.668.101-.27.65c-.744 1.752-2.637 7.416-3.343 9.81l-3.162 10.208-.173.485s-6.31-1.369-6.317-1.369l-2.224-.454.165-.579c4.89-15.676 5.597-20.237 5.68-20.972zm-10.575-48.952a325.184 325.184 0 0 1-10.728 14.66c5.04.066 23.242.358 26.708 0-2.278-2.514-6.915-7.098-15.98-14.66zm-2.415-18.376.266-.511 10.398 6.28s-2.917 4.315-3.402 5.062c.825.617 22.257 16.689 22.257 16.689l-1.672 1.5s-2.933 2.621-2.868 2.573l-4.217 4.357-.396-.568c-.153-.228-.582-.763-1.333-1.631 0 .195-.105 3.521-.105 3.521l.13 6.661-.63-.032c-5.583-.422-9.534-.422-11.885-.422v11.131c2.311-.024 11.133-.097 11.141-.097l7.125-.633-.032.909-.137 4.648.137 4.609.032.925-.646-.065c-4.96-.503-8.41-.78-10.26-.78h-7.489v29.476c6.859-1.817 7.7-2.036 7.74-2.036 0-.008 7.57-2.588 7.57-2.588l.8-.26-.243 5.874v5.671l-.453.09c-15.309 3.488-41.968 9.703-44.707 10.766l-.606.235-3.11-12.397.662-.04a179.71 179.71 0 0 0 15.301-1.94s6.1-1.095 6.77-1.208v-31.642h-9.678l-9.913.779-.638.065.137-5.534-.137-5.557.638.073c4.532.43 7.869.657 9.897.657h9.694v-11.115c-1.034.049-9.274.406-9.274.406H431s.137-2.775.186-4.146c-1.35 1.63-4.654 5.638-4.654 5.638l-.444-.454c-2.052-2.118-5.09-4.162-8.063-6.101l-.541-.349.404-.495c10.518-12.6 20.318-26.457 26.87-37.994z" fill="#0070AF"/>
</svg>
