<svg viewBox="0 0 1024 1024" xmlns="http://www.w3.org/2000/svg" height="1em" width="1em">
  <path d="M.15 511.3c0 42.56 34.766 77.325 77.524 77.325 38.562 0 70.731-28.372 76.525-65.236-6.793 5.794-18.781 13.786-34.866 14.885-15.484 1.1-21.578 1.599-26.274 2.698l-9.99 9.99c-2.997 2.997-7.892 2.997-10.89 0l-34.166-34.267c-2.997-2.997-2.997-7.892 0-10.889l34.167-34.167c2.997-2.997 7.892-2.997 10.889 0l20.78 20.78c6.293-2.098 12.288-3.696 17.982-5.195 6.993-1.498 17.883-5.395 22.678-14.785-13.487-22.978-38.463-38.463-66.935-38.463-42.658 0-77.424 34.766-77.424 77.325" fill="#D52018"/>
  <path d="M110.342 499.912C92.46 506.306 92.36 532.18 92.36 532.18s8.691-2.797 15.385-2.797c6.693 0 25.875 1.898 37.663-8.492 11.788-10.39 7.692-27.473 2.697-38.362-5.694 7.193-19.98 10.89-37.763 17.383" fill="#9FC90F"/>
  <path d="M1016.657 478.033c.3.5.5.9.5 1.1 0 .199-.4.299-1.2.299H984.19c-2.298 0-4.096.3-5.495.899l-3.097-3.696c2.098.3 4.396.4 6.894.4h23.177l5.095-5.995 5.894 6.993zm-17.083 22.778h-20.58c-2.398 0-4.196.3-5.595.899l-3.097-3.696c2.098.3 4.396.4 6.894.4h33.767l5.394-6.594 6.095 7.492c.4.5.599.8.599 1s-.4.3-1.199.3h-15.784v33.966c0 2.897-.3 4.995-.8 6.194s-1.898 2.497-3.996 3.696c-2.098 1.2-3.396 1.799-3.896 1.799s-.9-.4-1.099-1.3c-.4-1.897-1.399-3.296-2.997-4.195-1.598-.9-4.795-1.898-9.49-2.797l.299-1.799c5.195.6 8.691.9 10.69.9s3.296-.2 3.796-.5c.6-.3.799-.9.799-1.598V500.81zm-25.775-28.073c.3.4.5.8.5 1.1 0 .299-.5.599-1.499.699-.999.2-2.298.999-3.896 2.397-6.893 5.795-14.486 10.89-22.778 15.086l-1.099-1.1c11.19-8.191 19.181-16.184 24.177-23.876l4.595 5.694zm-13.986 33.867c-3.797 3.697-8.392 7.893-13.987 12.588l-.999-1.399c10.59-11.089 18.482-22.178 23.877-33.367l5.095 4.396c.6.5.9 1.099.9 1.598s-.3.9-1 .9c-.6 0-1.598 1.098-3.197 3.196s-3.596 4.496-5.894 7.093l2.398.8c.699.3.999.599.999.898s-.3.7-.9 1.1l-1.298.998v21.08c0 5.794 0 9.79.1 12.088s.1 3.597.1 4.096c0 .5-.2.9-.5 1.299-.4.4-1.199.899-2.497 1.498s-2.198.9-2.898.9c-.599 0-.899-.6-.899-1.899l.4-8.691c.2-3.797.3-7.593.3-11.29v-17.882zm-56.745-2.797h20.08V491.42h-20.08v12.388zm0-14.885h20.08v-12.588h-20.08v12.588zm.8-15.286h18.381l3.097-3.996 5.195 3.996c.6.5.9.9.9 1.3 0 .299-.3.699-.8.898l-1.598 1v17.782c0 2.897.1 5.395.3 7.393.2 1.998.3 3.097.3 3.197 0 .899-.9 1.698-2.598 2.397-1.699.8-2.798 1.2-3.197 1.2-.5 0-.7-.4-.7-1.3v-1.398H910.96c1.499 5.794 3.597 10.79 6.294 14.985 5.595-4.795 10.29-9.29 14.086-13.587l4.596 5.495c.4.4.6.7.6.999s-.1.5-.4.6c-.3.1-.6.1-.9.1h-.699c-.799 0-2.397.599-4.495 1.698-2.198 1.099-5.994 3.396-11.29 6.793 4.696 5.994 11.99 10.49 21.98 13.387v1.299c-2.199.4-3.697.899-4.596 1.398-.9.6-1.599 1.499-2.198 2.898-.2.599-.6.899-1 .899-.598 0-3.396-2.098-8.191-6.294-4.895-4.196-8.392-8.392-10.59-12.688-2.198-4.296-3.996-10.29-5.494-17.982h-5.595v30.37l13.587-4.995.6 1.299-10.39 7.093a32.426 32.426 0 0 0-3.197 2.397c-.7.6-1.699 1.699-2.998 3.097-.5.6-.799.9-1.198.9-.3 0-.7-.2-1-.5l-4.395-4.296c1.498-1.099 2.398-1.998 2.797-2.797.4-.8.6-1.998.6-3.597v-50.95c0-5.395-.1-10.19-.3-14.286l6.693 3.796zm-28.972 12.089c-1.899 4.395-3.797 8.292-5.595 11.588h15.385l4.396-5.095 4.995 6.194c.3.3.5.6.5.9s-.3.399-1 .399H880.19V512.5h6.094l4.096-4.996 5.096 6.094c.4.5.599.8.599 1 0 .2-.3.3-.9.3H880.29v19.18l13.887-10.59.799 1.2-11.788 12.987c-2.098 2.298-3.797 4.695-5.096 7.093-.3.6-.599.9-.999.9s-.799-.2-1.298-.5l-4.796-3.297c2.298-2.298 3.497-4.496 3.497-6.694v-20.28H870.3c-2.398 0-4.296.3-5.794.9L861.509 512c1.998.3 4.295.5 7.093.5h5.994v-12.788h-6.594c-1.698 2.897-3.696 5.894-6.094 8.791l-1.199-.799c6.095-11.688 10.89-25.375 14.486-41.26l6.694 3.697c.799.5 1.299.899 1.299 1.199 0 .4-.4.699-1.3 1.099-.898.4-1.797 1.698-2.697 3.896l-2.997 6.693h10.89l3.996-4.795 4.595 5.495c.3.5.4.899.4 1.198 0 .4-.4.6-1.099.6h-20.08zm-88.114 4.295c4.196 5.695 7.193 10.99 9.09 15.785 1.899 4.795 2.898 9.59 2.898 14.486 0 1.399-.4 2.697-1.299 3.796-.899 1.1-1.798 1.699-2.797 1.699-1 0-1.698-.3-2.198-.9-.5-.599-.7-1.298-.7-2.197l.1-3.297c0-9.191-2.097-18.782-6.393-28.572l1.299-.8zm18.282 48.353v-54.147c0-5.594-.1-10.09-.3-13.587l8.592 3.297c.699.2.999.5.999.8 0 .3-.3.599-1 .998l-2.297 1.3v61.34h10.29v-54.947c0-5.195-.1-9.79-.3-13.687l8.292 4.196c.7.3 1 .7 1 1s-.3.699-.8.898l-2.198 1.299v48.253c7.792-13.787 12.488-26.674 14.086-38.463l7.393 4.596c.8.5 1.199.9 1.199 1.199 0 .3-.4.7-1.299 1.199s-1.498 1.099-1.998 1.798-1.399 2.597-2.997 5.894c-1.498 3.197-3.996 7.693-7.193 13.387-3.297 5.695-6.394 10.29-9.191 13.787v9.59h14.686l5.594-6.593 6.394 7.392c.3.5.5.8.5 1.1 0 .3-.4.399-1.1.399h-67.533c-2.098 0-3.997.3-5.595.8l-3.097-3.597c2.098.3 4.296.5 6.693.5h21.18zm-69.532-38.562c5.394 1.399 9.39 2.897 11.988 4.496 2.597 1.598 3.996 3.096 3.996 4.495 0 1.299-.2 2.398-.5 3.097-.3.7-.699 1.099-1.098 1.099-1.2 0-2.198-.7-2.997-1.998-.3-.6-1.899-1.998-4.596-4.296s-5.195-4.196-7.393-5.494l.6-1.4zm-9.69-33.667c3.995.899 6.693 1.798 7.991 2.697 1.3.9 1.899 2.098 1.899 3.597s-.3 2.597-.9 3.396c-.599.7-1.398 1.1-2.197 1.1-.9 0-1.599-.3-2.198-.9-.6-.6-1.1-1.299-1.399-2.298-.999-3.097-2.298-5.394-3.796-6.693l.6-.9zm-1.3 61.84h15.186v-12.988h-15.186v12.987zm-8.491-47.055c3.297.9 5.794 1.998 7.592 3.397 1.699 1.299 2.598 2.697 2.598 3.996s-.3 2.398-.9 3.297c-.599.899-1.498 1.299-2.597 1.299s-1.798-.9-2.198-2.598c-.6-2.597-2.198-5.494-4.995-8.591l.5-.8zm9.49 31.77h13.687l2.098-2.598 4.596 3.297c.5.2.699.5.699.799s-.2.6-.7.899l-1.498 1.099v5.195c0 2.198.1 4.096.2 5.794l.3 3.796c0 1.1-.6 1.999-1.899 2.798-1.298.799-2.098 1.199-2.597 1.199-.4 0-.6-.4-.6-1.3v-3.096h-15.185v1.698c0 1.199-.2 1.998-.5 2.398-.299.4-.998.8-1.997 1.199-1 .4-1.798.6-2.298.6-.6 0-.9-.3-.9-1s.1-1.299.2-1.998c.5-3.696.7-7.293.7-10.59v-3.496c0-2.298-.1-5.095-.2-8.292-3.097 2.298-5.694 4.096-7.892 5.395l-.8-1.399c5.795-5.595 10.49-11.09 14.087-16.584l4.695 3.397c.7.5 1 .999 1 1.398 0 .4-.5.7-1.599 1a8.683 8.683 0 0 0-3.297 1.698c-1.898 1.798-3.496 3.097-4.795 3.996l4.495 2.697zm-15.784-16.485v28.972c0 5.595.1 9.59.2 12.088s.2 3.897.2 4.196c0 1.399-.8 2.498-2.298 3.097-1.499.7-2.498 1-2.897 1-.8 0-1.2-.7-1.2-1.999l.4-8.891c.2-3.896.3-7.693.3-11.29v-19.98c0-4.395-.1-9.09-.4-13.986l7.893 4.396h24.975c1.998-3.697 3.797-8.192 5.495-13.487l6.494 2.597c.799.3 1.198.7 1.198 1.1 0 .399-.4.699-1.098.998-.8.3-1.699 1-2.798 1.998s-3.197 3.397-6.294 6.894h13.587l2.997-3.897 5.894 4.296c.4.3.6.6.6.9 0 .3-.3.699-1 1.198l-1.697 1v36.963c0 1.998-.3 3.597-.8 4.596-.5.999-1.698 2.297-3.696 3.796-1.898 1.498-3.197 2.298-3.796 2.298-.6 0-.9-.5-.9-1.399 0-1.798-.499-3.097-1.398-3.896-1-.9-2.997-1.798-6.094-2.997l.1-1.399c2.997.5 5.295.8 6.693.8 1.399 0 2.498-.2 3.197-.6.7-.4 1-1.199 1-2.597v-36.765h-44.857zm-16.284-19.28c2.098.299 4.495.499 6.993.499h57.744l5.394-6.494 6.194 7.693c.3.3.5.599.5.899 0 .3-.4.5-1.1.5h-66.934c-2.298 0-4.196.299-5.694.898l-3.097-3.996zm-45.556 22.677c7.393 4.895 10.99 9.191 10.99 12.987 0 1.599-.4 2.997-1.2 4.296-.799 1.299-1.598 1.898-2.397 1.898-.8 0-1.498-.3-2.198-.899-.6-.6-.999-1.298-.999-2.098-.2-3.097-.6-5.694-1.299-7.692-.599-1.998-1.798-4.596-3.596-7.793l.7-.699zm24.077-7.493v40.76c0 3.497-.3 5.795-.9 6.994-.599 1.199-1.898 2.497-3.995 3.696-1.999 1.299-3.297 1.898-3.797 1.898s-.799-.6-.899-1.698c-.1-1.099-.3-2.098-.8-2.797-.499-.7-1.298-1.399-2.696-2.098-1.3-.7-3.497-1.499-6.594-2.398l.3-1.199c4.295.4 7.392.6 9.29.6s2.998-.2 3.497-.6c.5-.4.8-1.199.8-2.297v-40.86h-13.388c-2.197 0-4.096.3-5.494.899l-2.897-3.597c2.098.3 4.295.4 6.793.4h14.985v-9.191c0-4.496-.1-9.091-.3-13.587l8.093 3.197c.7.4 1.099.799 1.099 1.199s-.4.799-1.1 1.198l-1.897 1.2v15.984h4.096l4.595-5.595 4.995 6.194c.4.3.6.7.6 1.099 0 .4-.4.6-1.1.6h-13.286zm-41.56-1.998v9.491c4.796 1.998 7.893 3.696 9.391 5.095 1.499 1.299 2.298 2.697 2.298 4.196s-.3 2.597-.8 3.497c-.599.899-1.298 1.298-2.197 1.298-1.499 0-2.398-.799-2.797-2.397-1-4.396-2.898-7.793-5.895-10.19v23.677c0 4.595 0 8.092.1 10.19l.2 5.194c0 .9-.8 1.899-2.398 2.998-1.598 1.098-2.697 1.598-3.396 1.598-.6 0-1-.7-1-1.998l.3-8.392c.2-3.696.3-7.493.3-11.389v-20.38c-3.297 8.991-8.791 17.083-16.484 24.177l-1.099-.5c4.696-6.194 7.992-11.689 10.09-16.484 2.098-4.795 4.396-11.289 6.794-19.68h-6.893c-2.298 0-4.196.3-5.595.898l-2.897-3.596c1.998.3 4.296.5 6.793.5h9.191v-7.693c0-1.099-.1-5.595-.3-13.587l8.492 3.697c.6.3.9.6.9.899 0 .3-.3.6-.9.999l-2.397 1.398v14.486h4.495l3.796-4.795 4.296 5.095c.3.4.5.8.5 1.199 0 .4-.3.6-1 .6h-11.888zm-67.634-2.098c-2.597 7.093-5.594 13.587-9.19 19.381v28.373l18.182-8.292.599 1.399-14.985 10.39a25.295 25.295 0 0 0-4.196 3.596c-1.499 1.498-2.398 2.697-2.798 3.397-.4.699-.799 1.098-1.298 1.098s-1-.4-1.499-1.298l-3.696-6.194c1.498-.8 2.497-1.699 3.197-2.698.699-.999 1.099-2.497 1.099-4.495v-17.583c-5.695 7.093-13.387 13.487-23.178 19.081l-.799-1.099c9.89-7.492 17.883-16.184 23.877-25.974l-.4-8.292 3.896 2.198c2.198-4.296 4.096-8.991 5.695-13.987h-17.583c.2 1.399.3 2.598.3 3.697 0 2.997-.8 5.295-2.298 6.893-1.499 1.598-3.197 2.398-4.795 2.398-1 0-1.699-.3-2.298-.9-.6-.599-.8-1.298-.8-2.197 0-.9.7-1.998 2.198-3.597 3.297-3.297 4.996-7.892 4.996-13.487h1.598c.4 1.599.7 3.097.8 4.596h18.681a135.781 135.781 0 0 0 3.896-17.383l7.493 2.398c.6.2.8.5.8.999s-.2.799-.7 1.099c-.5.2-1.1.999-1.798 2.197-.7 1.2-1.999 4.796-3.797 10.79h21.58l4.495-5.295 6.893 6.793c.7.7.999 1.2.999 1.599s-.5.6-1.498.6c-2.498 0-4.896.699-7.193 1.997s-4.796 3.397-7.393 6.194l-1-.899 5.096-8.492h-21.68c1.7 10.19 4.297 18.482 7.693 24.876 6.194-4.795 10.99-9.79 14.586-15.185l4.696 5.794c.5.7.799 1.2.799 1.499s-.5.6-1.599.6c-.999.1-2.697.699-4.995 1.897s-6.394 3.697-12.188 7.593c5.894 9.79 15.585 16.484 28.972 20.18v1.399c-1.898.1-3.397.4-4.596.999-1.198.6-2.198 1.798-2.897 3.696-.3.7-.6 1-.999 1-.7 0-3.996-2.199-9.69-6.594s-10.49-10.29-14.187-17.583c-3.696-7.193-6.094-16.884-7.093-29.172zm-63.138-15.584c3.397.599 5.994 1.398 7.792 2.597 1.799 1.199 2.698 2.498 2.698 3.796 0 1.399-.4 2.498-1.1 3.397-.698.9-1.498 1.299-2.397 1.299s-1.398-.7-1.798-2.098a13.292 13.292 0 0 0-1.898-3.996 39.383 39.383 0 0 0-3.697-4.296l.4-.7zm-8.791 13.287c-.3-8.092-.8-14.586-1.399-19.581l8.092 2.298c.6.2.8.4.8.699s-.2.6-.6.999l-1.599 1.798c-.1 3.197-.2 5.595-.2 7.193 0 1.599 0 3.796.1 6.594h13.088l4.296-5.195 4.495 5.494c.6.7.8 1.2.8 1.499s-.5.5-1.3.5h-21.378c.599 15.384 1.898 26.074 3.796 32.168 3.596-6.394 6.294-14.286 8.192-23.877l6.294 4.196c.699.5 1.099.8 1.099 1.1s-.4.599-1.2.898c-.798.3-1.298.7-1.598 1.2-.3.399-.799 1.498-1.398 3.096-2.997 8.292-5.994 14.486-8.892 18.782 1.1 2.098 2.598 4.196 4.396 6.294s2.997 3.396 3.497 3.796c.6.4.999.6 1.398.6.9 0 1.499-.5 1.799-1.6l3.296-11.188 1.399.5c-.999 6.193-1.499 10.29-1.499 12.487 0 2.198.2 3.896.7 5.095.5 1.299.7 2.198.7 2.797 0 1.3-.6 1.998-1.8 1.998-1.598 0-4.095-1.498-7.492-4.395-3.397-2.997-6.593-7.093-9.59-12.288-4.096 4.795-11.29 9.49-21.68 14.186l-.699-1.399c8.792-4.795 15.485-10.59 20.08-17.383-1.698-3.696-2.996-8.392-3.895-14.086-.8-5.595-1.499-13.287-1.998-22.978h-16.285v13.687h7.293l2.298-3.596 4.396 3.796c.6.5.799.899.799 1.099 0 .2-.3.5-.8.899l-1.598.899-.799 19.68c-.1 1.799-.4 3.198-1.099 4.297-.6 1.099-1.998 2.397-4.096 3.796-2.098 1.498-3.297 2.198-3.696 2.198-.4 0-.6-.5-.8-1.499-.3-1.798-2.097-3.496-5.194-4.995l.4-.999c1.897.4 3.496.6 4.795.6 1.398 0 2.397-.4 3.196-1.1.8-.799 1.2-2.297 1.4-4.595l.898-18.082h-7.592c0 11.888-1.899 20.98-5.595 27.273s-9.69 11.389-17.882 15.285l-.5-.999c5.595-4.495 9.69-8.492 12.288-12.188 2.598-3.596 4.296-7.692 5.095-12.288.8-4.595 1.299-10.99 1.299-19.281v-10.69c0-2.897-.1-5.994-.3-8.99l6.194 3.596h15.785zm-38.862 34.666v-26.474h-3.397c-2.398 0-4.296.3-5.695.899l-2.997-3.697c2.098.3 4.496.4 6.994.4h5.095v-16.384c0-2.298-.1-4.895-.3-7.892l7.692 3.996c1 .5 1.399.799 1.399 1.099s-.4.699-1.099 1.199l-2.198 1.598v16.484h2.698l3.596-4.396 4.096 4.995c.3.4.5.8.5 1.1 0 .399-.3.599-1 .599h-9.89v24.975l8.792-2.497.4 1.298-13.987 7.293c-4.196 2.198-6.694 3.697-7.593 4.396-.799.7-1.398 1.099-1.698 1.099-.3 0-.6-.3-.999-.9l-3.297-5.494 12.888-3.696zm-49.452-36.764c4.695 1.898 8.092 3.496 10.09 4.695l7.193-10.59h-17.283c-2.298 0-4.196.3-5.595.9l-2.997-3.697c2.098.3 4.396.4 6.794.4h19.18l3.997-3.896 5.694 5.294c.5.5.8 1 .8 1.499s-.8.8-2.398.9c-1.598.099-3.197.798-4.795 1.897-1.599 1.1-4.496 3.896-8.892 8.292 1.399 1.199 2.098 2.498 2.098 3.996s-.3 2.698-.799 3.497c-.5.899-1.099 1.299-1.798 1.299s-1.499-.7-2.498-2.198c-1.598-2.698-2.897-4.696-3.996-6.094-1.099-1.3-2.997-3.097-5.694-5.295l.899-.9zm7.992 18.382h-9.89c-2.298 0-4.196.3-5.595.899l-3.097-3.697c2.298.2 4.596.3 6.993.3h26.574l2.998-3.197 5.394 5.295c.7.7 1 1.299 1 1.698 0 .5-.5.7-1.6.8-2.097.1-5.394 3.296-9.89 9.69l-1.098-.7 3.996-11.088h-10.29v32.168c0 2.898-.3 4.995-.8 6.194s-1.698 2.598-3.496 3.996-2.997 2.098-3.597 2.098c-.599 0-.899-.6-.999-1.898-.1-1.199-.3-2.198-.699-2.897-.4-.7-1.299-1.299-2.697-1.998-1.399-.6-3.497-1.299-6.394-1.998l.4-1.599c3.896.4 6.693.6 8.391.6 1.699 0 2.798-.2 3.297-.5s.8-.899.8-1.698V502.01zm-40.96 31.07h16.184v-13.587H369.59v13.586zm-3.497-41.06c-3.296 3.496-6.693 6.393-10.09 8.79l-.999-.898c3.996-4.096 7.993-9.191 11.889-15.285a113.035 113.035 0 0 0 9.39-17.683l5.795 3.297c.8.5 1.199.899 1.199 1.299 0 .3-.6.699-1.699.999-1.198.3-2.098 1.198-2.797 2.497 10.79 2.198 16.284 5.495 16.284 10.09 0 2.997-.7 4.496-2.198 4.496-.6 0-1.298-.7-2.297-1.998-2.997-4.696-7.193-8.492-12.588-11.29-3.497 5.795-7.293 10.89-11.389 15.186 1.898.2 3.796.3 5.994.3h10.89l3.296-3.797 3.797 4.396c.5.5.799 1 .799 1.299 0 .4-.5.6-1.399.6h-9.39v10.989h7.692l3.496-4.096 3.897 4.595c.5.6.799 1 .799 1.299s-.5.4-1.299.4h-14.486v9.59h5.595l2.497-2.997 4.896 3.796c.4.3.599.7.599 1s-.2.599-.5.898l-2.197 1.2v7.592c0 1.598.1 3.197.2 4.895l.3 4.196c0 1.099-.7 1.998-2.199 2.897s-2.397 1.299-2.897 1.299-.8-.4-.8-1.199v-5.095H369.99v5.495c0 .999-.2 1.598-.6 1.998-.4.4-1.199.799-2.397 1.398-1.2.5-1.998.8-2.498.8s-.7-.2-.8-.6c-.1-.4-.1-1.099 0-2.298.5-4.695.8-8.99.8-12.987v-5.994c0-3.697-.1-7.093-.3-10.19l5.495 3.996h5.894v-9.69h-9.39c-2.398 0-4.197.3-5.595.899l-2.897-3.597c2.098.3 4.395.4 6.893.4h11.09v-10.99c-2.898 0-5.096.3-6.395.9l-3.197-3.097zm-33.467 28.572c2.698-8.092 4.196-17.583 4.496-28.772h-8.392l-1.698 3.696c1.498 12.088 3.396 20.38 5.594 25.076zm-18.981 3.796c2.597 1.399 4.495 2.597 5.694 3.696 1.199 1.1 1.898 2.198 1.898 3.297 0 1.099-.2 1.998-.699 2.897-.5.8-1.099 1.2-1.798 1.2-.8 0-1.299-.1-1.499-.4-.2-.3-.4-1-.6-2.198-.199-1.2-.599-2.498-1.298-3.996-.7-1.499-1.498-2.698-2.398-3.397l.7-1.1zm7.492-45.755-1.298.699v4.795c0 1.798 0 3.197.1 4.196.1 1.099.1 1.599.1 1.698 0 .5-.6 1.2-1.899 1.899-1.298.799-2.098 1.198-2.397 1.198-.3 0-.5-.5-.5-1.598v-.9h-14.885l-1 1.4c-.2.3-.399.4-.599.4-.3 0-.5-.1-.899-.3l-3.097-2.099c.9-.999 1.299-2.597 1.299-4.795v-5.494c0-1-.1-2.898-.3-5.695l5.495 2.298c.4.1.6.3.6.5s-.2.499-.5.799l-1.299 1.398v9.49h5.994v-13.786c0-2.197-.1-4.595-.3-7.492l6.094 2.297c.5.2.8.4.8.6 0 .3-.2.5-.5.6l-1.698 1.098v16.684h4.795v-6.294c0-2.098-.1-4.595-.3-7.593l5.695 2.398c.7.3.999.6.999.8.2.3 0 .499-.5.799zm29.372 60.44c-1.499.1-2.598.3-3.497.8s-1.598 1.398-2.198 2.897c-.1.3-.3.4-.5.4-.499 0-2.397-1.799-5.594-5.295-3.197-3.497-5.295-6.094-6.094-7.793-4.695 6.494-11.688 11.689-21.08 15.785l-.798-1c9.39-5.194 15.984-11.688 19.78-19.38-2.497-7.093-4.196-15.885-5.095-26.474-1.798 2.997-3.496 5.394-5.095 7.293l-.7-.3c.7-1.599 1.5-3.796 2.498-6.594H308.55c-3.597 4.196-6.794 7.393-9.491 9.69l9.39.4c2.698-2.897 4.596-5.294 5.595-7.093l3.497 3.197c.6.5.8.9.8 1.2 0 .299-.4.598-1.1.698-.799.2-2.697 1.499-5.794 4.096a80.72 80.72 0 0 1-9.291 6.994l14.885-.9c-.799-1.598-2.098-3.097-3.796-4.595l.6-1c5.994 2.498 8.89 4.896 8.89 7.194 0 .899-.299 1.698-.998 2.597-.7.9-1.299 1.3-1.998 1.3s-1.1-.4-1.2-1.3c-.099-.899-.399-1.698-.698-2.597-2.898.3-5.395.7-7.593 1.099v17.383c0 1.898-.9 3.496-2.697 4.595-1.799 1.1-2.898 1.699-3.297 1.699-.4 0-.6-.3-.7-1-.3-2.497-2.397-4.195-6.293-4.994l.4-1.3c2.497.5 4.295.8 5.194.8 1 0 1.599-.1 2.098-.3.4-.2.6-.699.6-1.398V521.19c-4.896.9-7.893 1.499-8.992 1.998-1.099.5-1.798.7-2.098.7-.3 0-.5-.2-.699-.7l-1.299-3.896c2.198 0 4.096-.3 5.895-1 1.698-.599 4.495-2.996 8.292-6.992-4.596.3-7.393.699-8.392 1.099s-1.699.599-2.098.599c-.4 0-.7-.4-.9-1.099l-.898-3.696c3.296-.5 6.293-3.497 9.09-8.892h-5.494c-2.398 0-4.196.3-5.595.9l-2.897-3.497c1.998.3 4.296.4 6.694.4h19.48l3.298-3.797 3.796 4.496c2.897-6.993 5.295-17.183 7.193-30.57l6.793 3.396c.6.3.9.6.9.9 0 .3-.3.499-1 .799-.699.3-1.099.6-1.398 1.099-.3.5-.6 1.298-.9 2.397a250.808 250.808 0 0 1-5.095 13.887h10.79l4.496-5.395 5.394 6.494c.2.3.3.5.3.799 0 .2-.3.3-.8.3h-7.492c-1.199 16.084-3.397 27.273-6.693 33.567 4.395 6.094 9.39 10.29 15.085 12.687v.9zm-48.253-12.188c.5.4.7.7.7.9 0 .2-.3.4-.9.599-.8.1-2.198 1.299-3.996 3.696-1.898 2.298-4.596 4.996-8.292 7.993l-.7-.6c3.497-4.296 6.694-9.49 9.491-15.585l3.697 2.997zm-11.489-55.345c.6.599.9.999.9 1.298 0 .3-.4.5-1.1.6-1.199.2-2.697 1.498-4.595 3.996-3.996 5.295-8.392 9.79-13.087 13.387l-.8-.9c6.294-7.992 11.09-15.584 14.087-22.677l4.595 4.296zm-19.58 42.358c7.092-9.091 12.986-19.78 17.682-32.069l4.296 3.997c.6.599.899.999.899 1.198 0 .2-.2.4-.7.6-1.198.5-2.297 1.598-3.296 3.396l-5.395 8.892 2.597 1.299c.6.2.8.499.8.699s-.1.5-.4.7l-1.299 1.098v24.476c0 4.596.1 7.992.2 10.09s.2 3.397.2 3.797-.2.799-.5 1.198c-.3.4-1.098.9-2.497 1.699-1.299.7-2.198 1.099-2.697 1.099-.4 0-.6-.4-.6-1.1 0-.699.1-3.396.4-7.991.3-4.596.4-8.092.4-10.59v-21.48c-1.6 1.999-4.596 5.196-9.192 9.492l-.899-.5zm-52.35-46.854c6.194 1.598 9.99 2.997 11.19 4.196 1.298 1.199 1.898 2.597 1.898 4.096 0 1.498-.5 2.697-1.499 3.696-.999.9-2.198 1.399-3.497 1.399-1.298 0-2.098-.8-2.197-2.398-.6-4.296-2.698-7.592-6.294-9.89l.4-1.1zm8.692 58.043c3.896-4.895 6.893-10.989 8.891-18.082h-16.484l-7.293 14.386c4.496.999 9.391 2.198 14.886 3.696zm-27.174-48.153c.7 2.298 1.1 3.896 1.2 4.596h50.95l3.596-4.396 7.093 6.294c.7.6.999 1.099.999 1.598s-.6.8-1.898.9c-1.299.1-3.097.899-5.395 2.397-2.298 1.499-4.695 3.597-7.093 6.194l-1.598-.8 5.195-9.89h-51.45c.2 1.4.3 2.798.3 3.997 0 2.997-.5 5.494-1.599 7.392-1.099 1.899-2.597 2.898-4.595 2.898-.9 0-1.699-.3-2.398-.8s-1-1.298-1-2.497c0-1.1.6-2.398 1.8-3.797 2.696-3.296 4.095-7.093 4.095-11.588 0-.8-.1-1.599-.2-2.398l1.998-.1zm4.396 47.054c3.097-4.395 6.294-10.09 9.59-16.983h-17.382c-2.398 0-4.296.3-5.695.899l-3.097-3.796c2.098.3 4.496.5 7.093.5h20.18c3.397-7.294 5.895-13.488 7.293-18.483l6.894 3.397c.7.3 1.099.7 1.099.999 0 .3-.4.7-1.299 1.099l-2.198 1.099-6.094 11.988h33.867l5.495-6.593 5.694 6.793c.6.7.8 1.199.8 1.598 0 .4-.4.6-1.3.6h-22.278c-2.697 7.892-6.094 14.486-10.39 19.68 9.89 2.798 16.185 5.295 19.082 7.493 2.797 2.198 4.296 4.596 4.296 7.193 0 1.898-.5 2.797-1.599 2.797-.799 0-1.798-.499-2.997-1.398-6.194-4.995-13.387-9.191-21.779-12.588-7.992 8.392-21.079 13.587-39.061 15.685l-.5-1.898c15.485-2.897 26.974-8.092 34.366-15.685-6.293-2.098-12.987-3.497-20.08-4.396z" fill="#0A170D"/>
</svg>
