<svg viewBox="0 0 1024 1024" version="1.1" xmlns="http://www.w3.org/2000/svg" height="1em" width="1em">
  <path d="M682.12 515.181v9.011c-0.01 3.41 1.434 5.489 4.249 5.608h27.018V515.18H682.12z m-12.216-10.442h55.99v35.503h-42.58c-8.06 0-13.791-4.844-13.7-12.245l0.29-23.258z m3.878-45.944c1.798 4.84 4.358 8.978 7.546 12.53h31.18c2.698-3.795 5.152-7.88 7.132-12.53h-45.858zM692.106 440h10.532v7.367h46.184v11.156h-15.46c-1.512 4.324-3.66 8.356-6.336 12.094l5.456-0.025c13.382-0.064 16.426 9.973 16.126 19.2v58.803h-11.307v-57.993c0.154-2.641-0.997-8.85-7.388-9.01H719.3c3.319 5.054 8.483 8.772 12.361 11.807l-3.928 10.351c-7.392-4.006-19.145-15.955-22.533-22.158h-15.952c-3.774 7.6-13.666 16.986-23.194 22.35-1.277-4.65-2.435-6.775-3.743-10.583 4.516-2.269 11.93-8.928 12.94-11.767h-19.337v67.003H644.6v-77.978h22.707c-2.184-3.098-4.313-6.863-6.325-12.094H644.6v-11.156h47.506V440z m-261.908 0h12v8.114h31.313v10.644h-31.314v6.857h31.314v19.175c0.072 7.722-6.445 13.802-12.561 13.683h-62.812v-32.858h32.06v-6.857h-32.06v-10.644h32.06V440z m-67.654 25.346c6.45-5.411 13.11-12.67 17.802-21.17 2.612 2.962 4.714 5.525 7.323 8.489-4.794 7.43-10.98 14.939-17.83 20.749-2.6-2.821-4.693-5.243-7.295-8.068z m87.943 67.03l10.93 2.157c-3.825-4.587-5.06-7.057-8.1-10.586 3.039-2 6.53-3.743 10.222-5.83 1.932 2.949 12.685 17.043 14.16 18.9l-9.057 8.445-6.711-10.078c-0.82 6.629-4.033 13.056-11.488 13.056l-30.77-0.183c-3.873-0.073-12.471-1.796-12.587-10.628l-0.102-12.854-10.239 21.013-10.401-5.5v8.307h-10.618v-53.212l-6.7 4.203-6.482-9.053c10.565-5.238 19.575-14.01 24.834-21.296l6.571 8.43c-1.602 2.59-5.202 6.761-7.605 8.836v53.431l10.646-20.893c2.835 1.434 7.108 3.702 9.944 5.135l0.075-4.263h10.8c0.03 0.04-0.03 2.436-0.018 3.296l0.113 8.794c0.042 3.212 2.451 5.51 5.363 5.51h14.465l9.006-0.038c2.664-0.011 3.749-2.94 3.749-5.1z m-41.88-44.344h10.468v-10.441h-10.469v10.441z m20.958 0h10.447v-10.441h-10.447c-0.012 3.055-0.042 5.565 0 10.441z m23.01-10.441v10.441h7.279c1.848 0.03 3.197-1.442 3.189-3.442v-7h-10.469z m-54.437 25.06h75.373v10.903h-43.825c0 0.489 6.197 4.006 12.597 11.266l-6.853 9.156c-3.997-4.401-8.228-8.012-12.647-10.993 2.327-3.358 4.752-6.053 6.621-9.429h-31.266v-10.903z m-94.848-16.527h11.176c0.29 18.228-1.36 30.53 3.218 36.588 5.448 7.676 13.165 15.902 21.538 25.792-4.701 0-10.148 0.091-14.847 0.091-3.795-4.446-10.47-12.41-14.619-16.523-1.098 1.496-11.01 12.67-14.207 16.523h-14.691c1.667-2.248 18.96-20.523 21.092-27.627 2.062-7.455 1.38-23.233 1.34-34.844z m-51.614 52.06V456.97h10.422v81.212h-10.422z m31.266-91.625h52.111v10.337h-20.528v10.785h9.652c5.094-0.114 10.703 4.25 10.876 9.613v50.477h-11.311v-41.178c0-5.663-1.56-7.548-7.693-7.548h-20.474v48.726h-12.193v-60.09h20.089v-10.785h-20.529v-10.337z m-16.492 0h10.239v102.036h-10.422c0.122-8.128 0.183-22.94 0.183-33.526v-68.51z m-31.45 0h10.422v102.036h-10.328L235 515.069v-68.51z m603.26 41.473h35.4v-12.53h-35.4v12.53z m-62.254-14.618h45.595v11.625h-18.09v12.538h17.976v11.674h-17.976v19.058c-0.003 5.459 3.028 8.083 6.695 8.297l11.221 0.252v11.467l-11.504 0.263c-12.684 0.29-17.937-8.624-18.109-19.415-0.113-7.11 0.379-12.358 0-19.922H775.79v-11.674h16.025v-12.538h-15.808v-11.625z m62.253-8.354h35.4v-12.53h-35.4v12.53z m-10.411-22.972h57.375v48.402c0 4.54-1.255 7.87-6.99 8.052-4.008 0-26.963 0.481-24.975-0.008l13.583 17.293 12.026-13.726 7.02 8.892-12.292 13.72 18.806 23.882h-14.51l-38.933-49.855v31.923c-0.074 4.625 2.109 6.285 5.008 6.511h8.46v11.421l-14.132-0.238c-7.26-0.124-10.446-5.702-10.446-12.548v-93.72z m-42.7-2.088h12.203c-0.51 3.092-2.568 7.486-3.076 10.578h27.326v11.472h-30.898l-2.712 9.275h-12.202c2.54-9.79 6.816-21.535 9.359-31.325z m165.89 31.325h73.28v11.055h-9.08v43.736c-0.194 19.625-12.037 22.325-24.338 22.479h-27.449V537.6h29.403c8.836-0.255 11.672-7.156 11.655-11.935V482.38h-53.471v-11.055z m-15.437-6.265l7.062 9.003c-2.365 3.139-6.431 7.598-8.066 9.318v65.214H923.14v-55.713l-6.776 4.194c-1.38-2.005-5.367-7.471-7.201-9.688 12.608-6.206 19.874-13.662 26.437-22.328z m19.624-10.441v-10.442h69.093v10.442h-69.093z m-38.637 14.618c0-0.15-7.097-8.117-7.424-8.758 14.15-10.017 18.877-20.408 19.089-20.479 0.355 0.057 7.893 8.17 8.129 8.413-1.344 3.088-13.055 16.775-19.794 20.824zM554.978 440l10.383 2.004-2.842 10.409h31.9c9.28 0.189 13.51 7.186 13.52 11.016v13.4c-2.806 0.163-5.482-0.021-9.893-0.011v-8.092c-0.013-3.9-3.464-5.96-7.73-6.024h-29.538c4.063 16.381 12.487 31.988 16.787 40.026l19.847-15.758 5.768 10.042c-1.244 0.896-17.728 14.083-19.515 15.273 6.035 9.567 15.33 19.307 25.223 26.89l-8.64 7.79c-7.803-5.681-19.56-18.524-29.904-35.285-6.569-10.645-12.688-22.945-16.49-35.765-3.642 7.862-7.35 14.85-11.81 20.782l-0.299 33.243c-0.054 6.143 2.309 8.414 9.072 8.414h20.186v10.241h-25.52c-7.01-0.115-13.731-5.42-13.786-13.854l0.086-25.134c-3.706 5.332-17.42 16.329-23.809 19.134a420.606 420.606 0 0 0-7.681-8.201c11.436-6.079 22.476-16.081 30.542-27.369 9.687-13.559 16.19-26.752 16.853-30.47h-29.753v14.6h-10.187v-24.888h44.237c1.196-3.839 2.243-7.903 2.993-12.413z" fill="#1B1918"/>
  <path d="M993.69 605.984V571h5.28v16.466L1011.025 571h3.878l-10.839 15.203 12.221 19.532h-7.026l-10.287-18.269v18.518h-5.28z m-34.983 0V571h4.914l15.555 25.364h0.053V571h4.258v34.984h-4.806l-15.663-25.557h-0.082v25.557h-4.23z m-22.985-12.788h10.142l-5.089-16.713-5.053 16.713z m-7.626 12.788L939.066 571h5.033l10.964 34.984h-5.3l-2.618-8.749h-12.701l-2.665 8.749h-3.683z m-17.958-4.04h3.85c2.808 0 4.74-0.362 5.803-1.088 1.054-0.727 1.584-2.065 1.584-4.012 0-2.251-0.87-4.048-2.602-5.37-1.74-1.331-4.1-1.991-7.079-1.991h-1.556v12.461z m0-15.811h1.49c5.737 0 8.604-2.021 8.604-6.05 0-1.983-0.552-3.32-1.665-4.01-1.107-0.688-3.252-1.033-6.437-1.033h-1.992v11.093z m-4.636 19.85V571h9.326c6.481 0 9.726 2.708 9.726 8.125 0 2.076-0.561 3.853-1.673 5.36-1.115 1.5-2.678 2.56-4.675 3.201 5.138 1.321 7.704 4.412 7.704 9.241 0 2.765-0.76 4.933-2.271 6.497-0.974 1.034-2.095 1.724-3.348 2.058-1.253 0.334-3.267 0.502-6.044 0.502h-8.745z m-40.814 0V571h5.418v30.944h14.99v4.04h-20.408z m-26.517-12.787h9.32l-4.677-16.713-4.643 16.713z m-7.009 12.788L841.242 571h4.627l10.073 34.984h-4.868l-2.406-8.749h-11.673l-2.45 8.749h-3.383z m-12.39 0V571h4.373v34.984h-4.373z m-5.83-1.846c-2.787 1.234-5.41 1.846-7.872 1.846-4.3 0-8.144-1.591-10.775-4.775-2.625-3.179-3.947-7.359-3.947-12.543 0-5.254 1.685-9.516 4.3-12.776 2.614-3.256 6.035-4.89 10.257-4.89 2.391 0 4.948 0.505 7.678 1.508v4.714c-2.788-1.58-5.388-2.37-7.81-2.37-2.801 0-5.105 1.27-6.914 3.8-1.808 2.53-2.708 5.753-2.708 9.667 0 3.96 1.023 7.19 3.061 9.703 2.04 2.512 4.66 3.773 7.873 3.773 1.938 0 4.228-0.622 6.857-1.874v4.217z m-47.069-16.776h2.269c2.313 0 4.145-0.634 5.49-1.908 1.355-1.275 2.033-2.988 2.033-5.156 0-2.01-0.506-3.397-1.526-4.142-1.02-0.744-2.895-1.116-5.625-1.116h-2.64v12.322z m-4.678 18.622V571h8.211c3.252 0 5.512 0.343 6.778 1.006 2.698 1.412 4.056 3.88 4.056 7.426 0 2.429-0.468 4.467-1.406 6.096-0.937 1.619-2.5 3.135-4.695 4.533l9.65 15.923h-5.207l-8.833-14.556h-3.876v14.556h-4.678z m-24.78 0V571h19.398v4.04h-14.694v10.6h12.454v4.038H741.12v12.266h15.703v4.04h-20.407z m-67.78 0V571h5.798l7.605 26.205L689.295 571h4.12v34.984h-3.736V583.05l-6.71 22.817h-3.136l-7.251-25.046-0.171 25.163h-3.777z m32.796 0V571h5.799l7.606 26.205L722.092 571h4.12v34.984h-3.736V583.05l-6.71 22.817h-3.136l-7.251-25.046-0.171 25.163h-3.777z m-62.423-17.504c0 4.367 0.7 7.74 2.106 10.1 1.407 2.37 3.416 3.552 6.02 3.552 2.604 0 4.614-1.181 6.028-3.551 1.416-2.361 2.12-5.734 2.12-10.101 0-4.35-0.704-7.716-2.12-10.077-1.414-2.37-3.424-3.552-6.028-3.552-2.604 0-4.613 1.182-6.02 3.552-1.406 2.36-2.106 5.727-2.106 10.077z m-5.357 0c0-5.327 1.182-9.57 3.543-12.73 2.364-3.166 5.954-4.75 9.94-4.75 3.985 0 7.575 1.584 9.94 4.75 2.36 3.16 3.543 7.403 3.543 12.73 0 5.342-1.184 9.594-3.544 12.755-2.364 3.168-5.954 4.749-9.94 4.749-3.985 0-7.575-1.581-9.94-4.75-2.36-3.16-3.542-7.412-3.542-12.754z m-3.645 15.658c-3.107 1.234-6.032 1.846-8.78 1.846-4.794 0-8.666-1.588-11.598-4.775-2.932-3.178-4.402-7.359-4.402-12.543 0-5.254 1.463-9.516 4.377-12.776 2.917-3.257 6.732-4.89 11.44-4.89 2.665 0 5.518 0.505 8.563 1.508v4.714c-3.109-1.58-6.01-2.37-8.71-2.37-3.123 0-5.278 1.27-7.294 3.8s-3.02 5.753-3.02 9.667c0 3.96 1.14 7.191 3.413 9.703 2.272 2.512 4.782 3.773 8.364 3.773 2.161 0 4.715-0.622 7.647-1.874v4.217z m-61.95 1.846V571h5.419v30.944h14.988v4.04h-20.407z m-27.467-12.788h10.964l-5.502-16.713-5.462 16.713z m-8.245 12.788L544.204 571h5.44l11.853 34.984h-5.728l-2.831-8.749h-13.733l-2.878 8.749h-3.983z m-21.872-18.622h2.31c2.354 0 4.217-0.634 5.586-1.908 1.377-1.275 2.067-2.988 2.067-5.156 0-2.01-0.514-3.397-1.553-4.142-1.037-0.744-2.945-1.116-5.721-1.116h-2.689v12.322z m-4.366 18.622V571h7.963c3.307 0 5.608 0.335 6.895 1.006 2.748 1.405 4.126 3.88 4.126 7.426 0 2.429-0.477 4.467-1.431 6.096-0.954 1.619-2.544 3.135-4.777 4.533l9.818 15.923h-5.298l-8.985-14.556h-3.945v14.556h-4.366zM473.31 571h5.033v20.736c0 3.626 0.505 6.243 1.513 7.87 1.01 1.628 2.643 2.435 4.892 2.435 2.376 0 4.09-0.807 5.137-2.436 1.05-1.626 1.57-4.287 1.57-7.996V571h4.448v19.837c0 4.28-0.449 7.352-1.337 9.214-1.887 3.954-5.425 5.933-9.772 5.933-3.77 0-6.974-1.17-8.779-3.516-1.802-2.342-2.705-5.942-2.705-10.805V571z m-26.66 16.362h2.268c2.314 0 4.144-0.634 5.49-1.908 1.354-1.275 2.033-2.988 2.033-5.156 0-2.01-0.507-3.397-1.526-4.142-1.02-0.744-2.894-1.116-5.624-1.116h-2.642v12.322z m-4.68 18.622V571h8.213c3.25 0 5.511 0.343 6.778 1.006 2.697 1.412 4.055 3.88 4.055 7.426 0 2.429-0.47 4.467-1.407 6.096-0.937 1.619-2.5 3.135-4.694 4.533l9.649 15.923h-5.207l-8.831-14.556h-3.877v14.556h-4.679z m-40.814 0V571h19.378v4.04h-14.468v10.6h12.186v4.038h-12.186v12.266h15.497v4.04h-20.407z m-25.839-4.04h1.738c4.137 0 7.084-1.01 8.838-3.052 1.752-2.035 2.629-5.453 2.629-10.248 0-4.876-0.795-8.358-2.38-10.459-1.582-2.095-4.221-3.145-7.922-3.145h-2.903v26.904z m-4.772 4.04V571h8.516c9.386 0 14.078 5.603 14.078 16.799 0 5.173-1.021 9.371-3.056 12.563-1.277 2.02-2.853 3.463-4.723 4.327-1.869 0.867-4.354 1.295-7.463 1.295h-7.352z m-34.983 0V571h4.913l15.556 25.364h0.054V571h4.257v34.984h-4.807l-15.663-25.557h-0.081v25.557h-4.23zM302.035 571h5.124v20.736c0 3.626 0.496 6.243 1.49 7.87 0.995 1.628 2.605 2.435 4.821 2.435 2.344 0 4.032-0.807 5.064-2.436 1.035-1.626 1.547-4.287 1.547-7.996V571h4.547v19.837c0 4.277-0.443 7.354-1.318 9.214-1.86 3.952-5.508 5.933-9.794 5.933-3.714 0-7.037-1.17-8.815-3.516-1.777-2.342-2.666-5.942-2.666-10.805V571z m-32.797 34.984V571h4.523v15.29h11.337V571h4.547v34.984h-4.547V590.33h-11.337v15.653h-4.523z m-8.117-33.395v4.448c-3.1-1.457-5.856-2.186-8.268-2.186-3.815 0-5.723 1.564-5.723 4.68 0 1.27 0.358 2.28 1.074 3.053 0.71 0.772 2.033 1.572 3.962 2.38l2.697 1.146 2.566 1.073c3.983 1.696 5.978 4.572 5.978 8.627 0 3.09-1.016 5.558-3.047 7.405-2.04 1.846-4.759 2.769-8.172 2.769-2.368 0-5.43-0.612-9.188-1.847v-5.077c3.743 2.05 6.85 3.072 9.313 3.072 2.09 0 3.749-0.498 4.991-1.49 1.243-1.005 1.865-2.337 1.865-4.023 0-1.278-0.365-2.299-1.104-3.045-0.737-0.746-2.251-1.624-4.554-2.655l-2.821-1.243c-2.814-1.269-4.766-2.564-5.862-3.904-1.09-1.333-1.637-3.108-1.637-5.328 0-3 0.84-5.326 2.515-6.977 1.68-1.642 4.042-2.467 7.081-2.467 2.472 0 5.248 0.533 8.334 1.59z" fill="#020202"/>
  <path d="M92.425 419c29.581 0 56.01 13.897 73.084 35.492-11.261 14.8-20.896 16.616-28.351 17.042-8.012 0.457-13.735-2.057-39.828-16.917-26.094-14.858-47.28-1.879-47.28-1.879 18.48-0.632 31.975 7.177 46.31 20.835 11.43 10.888 23.688 24.394 41.256 22.42 18.312-2.056 38.131-24.366 38.131-24.366l0.378-0.284a92.096 92.096 0 0 1 8.268 26.193c-3.728 3.988-8.74 8.885-18.024 14.532-32.407 19.712-51.684 10.683-72.616-6.848-20.933-17.53-33.343-27.108-53.603-27.845-13.906-0.506-29.529 6.843-37.964 11.743C12.431 448.898 49.041 419 92.426 419m89.78 116.066c-10.237 40.444-46.84 70.513-90.215 70.513-29.727 0-56.27-14.124-73.33-36.031 11.165-14.616 20.719-16.417 28.123-16.842 8.009-0.46 13.73 2.069 39.817 17.01 26.087 14.94 47.298 2.068 47.298 2.068-18.476 0.636-31.996-7.395-46.329-21.128-11.427-10.949-23.681-24.529-41.244-22.544-18.307 2.068-38.121 24.5-38.121 24.5l-0.041 0.031A92.972 92.972 0 0 1 0 526.31c5.808-5.432 10.774-9.651 15.884-12.973 9.462-6.15 23.427-12.685 35.168-12.708 13.309-0.029 26.144 7.634 38.316 17.356 8.287 6.618 17.623 14.75 27.463 20.927 9.184 5.764 23.76 9.039 34.374 7.629 13.402-1.781 25.755-8.36 31.001-11.474" fill="#1A2E92"/>
</svg>
