<svg viewBox="0 0 1024 1024" xmlns="http://www.w3.org/2000/svg" height="1em" width="1em">
  <path d="M224 0h576c123.6 0 224 100.4 224 224v576c0 123.6-100.4 224-224 224H224C100.4 1024 0 923.6 0 800V224C0 100.4 100.4 0 224 0z" fill="#FFF"/>
  <path d="M596.8 540c-14 34-47.6 58-86.8 58-39.2 0-72.8-24-86.8-58H160v184h700V540H596.8z" fill="#F9BE00"/>
  <path d="M418 501.6v2.4H84l428-204 428 204H605.6v-2.4c0-51.2-42-92.8-93.6-92.8-52-.4-94 41.2-94 92.8zm150.8 2.8s1.6-.4 2.4 0c.8.4.8.8.8 1.2-1.6 32.4-28 58-60 58-32.4 0-60-26.8-60-60 0-30 20.8-54.8 50-59.6 3.2-.4 11.6-1.2 19.2 6.4l36.4 36-12.4 12.4s-1.6 1.6-2.8 1.2c-1.2-.4-2.4-1.6-2.4-1.6l-26.8-27.2c-.4-.4-1.2-.4-1.6 0L481.2 502c-.4.4-.4 1.2 0 1.6l30.4 30.4c.4.4 1.2.4 1.6 0l28.8-28.8s1.2-1.2 1.6-1.2c.8-.4 2.4 0 2.4 0h22.8zm-40.4-52C520 442 512 442 512 442s19.2-8.8 36.4 9.6l18.4 19.2s1.2 1.2 1.2 2c-.4 1.2-1.2 2.8-1.2 2.8l-8.4 8.4-30-31.6z" fill="#005BAB"/>
  <path d="M464 644v-24h92v24h-92zm0 60v-24h92v24h-92zm48-32v-24h92v24h-92zm-96 0v-24h92v24h-92z" fill="#E50113"/>
</svg>
