<svg viewBox="0 0 1024 1024" version="1.1" xmlns="http://www.w3.org/2000/svg" height="1em" width="1em">
  <path d="M0 0m224 0l576 0q224 0 224 224l0 576q0 224-224 224l-576 0q-224 0-224-224l0-576q0-224 224-224Z" fill="#FFFFFF"/>
  <path d="M390.568 532.236v77.192a24 24 0 0 0 24 24h81.24V852H260c-48.6 0-88-39.4-88-88v-231.764h218.568z m461.432 0V764c0 48.6-39.4 88-88 88h-235.812v-218.572h81.24a24 24 0 0 0 23.984-23.1l0.016-0.9V532.24H852zM495.808 172v218.568h-81.24a24 24 0 0 0-23.98 23.104l-0.016 0.9-0.004 85.284H172V260c0-48.6 39.4-88 88-88h235.808zM764 172c48.6 0 88 39.4 88 88v239.856h-218.572v-85.284a24 24 0 0 0-23.1-23.984l-0.9-0.016-81.24-0.004V172H764z" fill="#E60019"/>
</svg>
