<svg viewBox="0 0 1024 1024" xmlns="http://www.w3.org/2000/svg" height="1em" width="1em">
  <path d="M224 0h576c123.6 0 224 100.4 224 224v576c0 123.6-100.4 224-224 224H224C100.4 1024 0 923.6 0 800V224C0 100.4 100.4 0 224 0z" fill="#FFF"/>
  <path d="M301.2 770c33.2 18 68.8 30.4 105.2 36.4 93.6 14.8 199.2-11.6 275.2-86.4 50.8-50 76-99.2 86.4-151.2 6-32.4 5.6-70.4-13.6-97.2 0 0 10.4 6 22 18.4 46.8 50 58.8 136 8.8 221.6-12 20.4-33.2 42.8-35.2 44.8C621.6 878.8 424.4 884 301.2 770zM724 254.8c-33.6-18.4-69.2-30.4-106-36.8-94-15.2-200 11.6-276.4 87.2-51.2 50.4-76.4 100-86.8 152.4-6 32.8-6 71.2 13.6 98 0 0-10.4-6-22.4-18.8-46.8-50.4-58.8-137.2-8.4-223.6 12-20.8 33.2-43.2 35.6-45.2C402 145.2 600 139.6 724 254.8z" fill="#F4A000"/>
  <path d="M773.2 502c-62.8-62.4-170.8-56.4-246.4 11.6L357.6 345.2c121.2-120.8 292-136 396.8-42.4 132.4 118 128.8 324-2.8 454.8 73.6-81.6 84-193.6 21.6-255.6zm-522.8 21.6c62 62.4 170 56.4 244.8-11.6L664 680.8c-120.8 120.8-290.4 136-394.8 42.4-132-118-128.4-324 2.8-454.8-73.2 81.2-83.6 193.2-21.6 255.2z" fill="#00469B"/>
</svg>
