<svg viewBox="0 0 1024 1024" version="1.1" xmlns="http://www.w3.org/2000/svg" height="1em" width="1em">
  <path d="M225.120623 3.984436h573.758754c123.119066 0 223.128405 100.009339 223.128405 223.128404v573.758755c0 123.119066-100.009339 223.128405-223.128405 223.128405H225.120623c-123.119066 0-223.128405-100.009339-223.128405-223.128405V227.11284C1.992218 103.993774 102.001556 3.984436 225.120623 3.984436z" fill="#FFFFFF"/>
  <path d="M668.189883 687.713619c-89.649805-5.57821-160.174319-80.08716-160.174319-170.932296 0-94.431128 76.899611-171.330739 171.33074-171.330739s171.330739 76.899611 171.330739 171.330739-76.899611 171.330739-171.330739 171.330739v155.392996h-171.33074c-182.48716 0-330.708171-148.221012-330.708171-330.708171C177.307393 330.708171 324.731518 183.284047 506.820233 183.284047h1.195331l171.33074 0.796887v160.971206h-175.315176c-94.431128 0-171.330739 76.899611-171.330739 171.330739s76.899611 171.330739 171.330739 171.33074h164.158755zM617.189105 454.225681v124.71284h124.712841V454.225681h-124.712841z" fill="#007A55"/>
</svg>
