<svg viewBox="0 0 1024 1024" xmlns="http://www.w3.org/2000/svg" height="1em" width="1em">
  <path d="M224 0h576q224 0 224 224v576q0 224-224 224H224Q0 1024 0 800V224Q0 0 224 0Z" fill="#FFF"/>
  <path d="M538.892 540.372V884c21.384-21.2 44.824-32.872 64.496-44.852l128.42-79.96C787.584 724.54 792 701.96 792 669.696c0-62.364-92.904-98.44-253.108-129.32" fill="#782A85"/>
  <path d="M232 402.792c-.088 53.284 30.052 75.052 71.256 89.14L717.28 619.34c26.148 8.176 71.556 23.584 71.556 50.288V401.6c0-32.624-4.388-72.54-55.936-89.64L303.256 176.984c-29.132-9.12-55.3-22.944-71.052-36.984L232 402.792z" fill="#E16420"/>
</svg>
