<svg viewBox="0 0 1024 1024" xmlns="http://www.w3.org/2000/svg" height="1em" width="1em">
  <path d="M268.1 565.4h6.3v13.5c-.3 5.4-4.5 8.1-12.5 8.3-8.2-.2-12.4-2.9-12.6-8.3v-13.5h6.3v11.8c-.4 4.8 1.7 7.1 6.4 6.9 4.5.2 6.6-2.1 6.3-6.9l-.2-11.8zm20 3.6v5.7h5.2c2.8 0 4.3-1 4.4-3-.1-1.8-1.6-2.7-4.4-2.7h-5.2zm0 9.2v8.7h-6.2v-21.5h12.2c6.6.2 9.9 2 10 5.6-.1 2.8-2.1 4.6-5.9 5.3v.1c2.8.2 4.5 1.8 5.2 4.8 0 .2.1.5.2.7.2 2.7.7 4.4 1.6 5.1h-6.7c-.6-1.9-1-3.8-1.1-5.8-.3-1.9-1.2-2.8-2.7-2.8H288l.1-.2zm41.8-12.8h6.3v13.5c-.3 5.4-4.5 8.1-12.5 8.3-8.2-.2-12.4-2.9-12.6-8.3v-13.6h6.3v11.8c-.4 4.8 1.7 7.1 6.4 6.9 4.5.2 6.6-2.1 6.3-6.9l-.2-11.7zm40.5 3-8.1 18.5h-5.2l-7.7-18.5-.2.1v18.4h-5.8v-21.5h10.2l6.1 15.7h.2l6.6-15.7h9.7v21.5h-5.8v-18.5zm26.1 15.6c4.8 0 7.2-2.6 7.2-7.8 0-5.3-2.4-8-7.2-8-5 0-7.4 2.6-7.3 8 0 5.2 2.4 7.8 7.3 7.8zm15.2-.5v3.4h-12.1c-.5 0-.9 0-1.4.1h-.9c-.2.1-.4.1-.6.1-9.1-.2-13.6-3.8-13.8-11 .2-7.3 4.8-11.1 13.8-11.4 8.9.2 13.4 4 13.8 11.4-.3 3-1.8 5.7-4.2 7.6.6 0 1.1 0 1.7-.1.6 0 1.3 0 1.9-.1h1.8zm5 3.4v-21.5h6.3v21.5h-6.3zm45.1-14.6h-6.6c-.2-2.6-2.1-3.9-5.6-4.1-3.4.2-5.3 2.8-5.5 8 .2 5.1 2 7.8 5.5 7.8s5.4-1.4 5.6-4.1h6.6c-.4 4.8-4.5 7.2-12.2 7.2-7.8-.2-11.8-3.8-12-11 .2-7.3 4.2-11.1 12-11.4 7.8.3 11.8 2.8 12.2 7.6zm5.7 14.6v-21.5h6.3v21.5h-6.3zm11.2-17.9v-3.6H502v3.6h-8.6v17.9h-6.2V569h-8.5zm36.3 17.9v-7l-9.8-14.5h7.3l5.9 9.9 6.1-9.9h6.2l-9.6 14.6v7l-6.1-.1zm52.8-14.5h-6.6c-.2-2.6-2.1-3.9-5.6-4.1-3.4.2-5.3 2.8-5.5 8 .2 5.1 2 7.8 5.5 7.8s5.4-1.4 5.6-4.1h6.6c-.4 4.8-4.5 7.2-12.2 7.2-7.8-.2-11.8-3.8-12-11 .2-7.3 4.2-11.1 12-11.4 7.7.2 11.7 2.7 12.2 7.6zm18.6 14.7c-9.1-.2-13.7-3.8-13.8-11 .2-7.3 4.8-11.1 13.8-11.4 8.9.2 13.3 4 13.7 11.4-.2 7.2-4.8 10.9-13.7 11zm0-18.8c-5 0-7.4 2.6-7.3 8-.1 5.3 2.3 7.9 7.3 7.8 4.8 0 7.2-2.6 7.2-7.8 0-5.4-2.4-8-7.2-8zm46.7.1-8.1 18.5h-5l-7.7-18.5-.2.1v18.4h-5.8v-21.5h10.2l6.1 15.7h.2l6.6-15.7h9.6v21.5h-5.8v-18.4l-.1-.1zm39.8 0-8.1 18.5h-5.2l-7.6-18.5-.2.1v18.4H646v-21.5h10.2l6.1 15.7h.2l6.6-15.7h9.7v21.5H673l-.1-18.5zm13 18.5v-21.5h19.3v3.6h-13v5h12.2v3.6h-12.3v5.7h13.5v3.6h-19.7zm32.6-17.9v5.7h5.2c2.8 0 4.3-1 4.4-3-.1-1.8-1.6-2.7-4.4-2.7h-5.2zm0 9.3v8.7h-6.2v-21.5h12.2c6.6.2 9.9 2 10 5.6-.1 2.8-2.1 4.6-5.9 5.3v.1c2.8.2 4.5 1.8 5.2 4.8 0 .2.1.5.2.7.2 2.7.7 4.4 1.6 5.1H729c-.6-1.9-1-3.8-1.1-5.8-.3-1.9-1.2-2.8-2.7-2.8l-6.7-.2zm45.7-5.9h-6.6c-.2-2.6-2.1-3.9-5.6-4.1-3.4.2-5.3 2.8-5.5 8 .2 5.1 2 7.8 5.5 7.8s5.4-1.4 5.6-4.1h6.6c-.4 4.8-4.5 7.2-12.2 7.2-7.8-.2-11.8-3.8-12-11 .2-7.3 4.2-11.1 12-11.4 7.7.2 11.7 2.7 12.2 7.6zm5.6 14.5v-21.5h6.3v21.5h-6.3zm17.1 0H781l10.5-21.5h7.3l10.2 21.5h-6.2l-2.2-4.6h-11.4l-2.3 4.6zm3.8-8.1h8.3l-3.9-9.2h-.2l-4.2 9.2zm42 8.1h-18.5v-21.5h6.1v17.9h12.5l-.1 3.6zm20.7-3.6h4.8c3.4.2 5.1-.8 5-2.8.1-2-1.6-3-5-2.9h-4.8v5.7zm0-9.3h4.8c2.6 0 4-.8 4.1-2.5-.1-1.7-1.5-2.6-4.1-2.6h-4.8v5.1zm4.7 12.9h-10.8v-21.5h10.8c6.7 0 10.2 1.9 10.5 5.6-.1 2.3-1.8 3.8-5.2 4.7v.1c4.1.9 6.2 2.7 6.4 5.6-.4 3.5-4.4 5.3-11.7 5.5zm21.4 0h-5.9l10.5-21.5h7.3l10.2 21.5h-6.2l-2.2-4.6h-11.4l-2.3 4.6zm3.8-8.1h8.3l-3.9-9.2h-.2l-4.2 9.2zm49.4 8.1h-8.9L912.6 569l-.2.1v17.8h-5.8v-21.5h9.2l10.9 17 .2-.1v-16.9h5.8v21.5zm13.4-21.5v9.4l9.7-9.4h7.2l-10.6 9.7L964 587h-7.7l-10.2-11v11h-6.3v-21.6h6.3z" fill="#1B1918"/>
  <path d="M67.6 445.1c14.1-3.5 29-1.7 41.9 5a68.35 68.35 0 0 0-31.8.3C45.4 458.2 26 488.5 34.4 518c1.6 5.4 4.1 10.4 7.4 14.9-6.5-6.3-11.2-14.1-13.6-22.8-8.4-28.5 9.3-57.7 39.4-65zm35.2 103.5c-5.4 3.2-11.3 5.5-17.4 6.9-31.9 7.2-65-11.3-73.7-41.4-8.2-27.2 6.7-55 33.3-65.1-19.3 12.5-28.9 36.4-22.1 60.1 8.9 30.2 41.2 49.1 71.8 41.9 2.7-.6 5.5-1.4 8.1-2.4zM3.4 497.7c5.1 79.6 111.5 83.8 125.1 19.6 8.6-39.3-39.4-73.4-80.1-42.3 24.4-32.6 77.8-27.9 95.6 8.6 1.6 3.2 2.9 6.6 4 10 1.5 5.6 2.4 11.3 2.6 17v.9c0 2-.2 4-.5 6-2.3 25.1-19.7 47.5-45.5 57.2-.6.2-1.1.4-1.6.7h-.2c-.5.3-1 .5-1.6.7h-.2C50.3 592.5-7.8 553.5 3.4 497.7z" fill="#005DA9"/>
  <path d="M80.6 473c20.6 0 37.6 15.9 37.6 35.4s-16.9 35.2-37.6 35.2c-20.9 0-37.8-15.7-37.8-35.2s17-35.4 37.8-35.4zm0 51.3 18.3-15.9-18.3-16.3-18.3 16.2 18.3 16z" fill="#F8A600"/>
  <path d="M841.5 460.1c-.8-.1-4.7.3-6 0-.8 6.1-8.4 13.6-16.4 8 6.8-.5 11.7-2.6 14.5-6.2l-.6-1.1c-9.7 3.9-3.3-19.5 2.7-5.8 3.1.1 2.6-.1 7.6-.1v.1c2-.1 4.6.1 6.6-.2-.5-1.1-1.1-2.3-1.6-3.5.5-1.2 1.2-2.4 2.1-3.4h.4c3.6 4.1 1.4 14-9.3 12.2zm-9.8-6.1c-1-1.5-4.5 2 .1 1.5 0-.4-.1-.9-.1-1.5zm-56.4 1.7h1.9c4.5-15.3 18.8 8.2-4.5 5.1v-.7c-3.9-.6-3.8 1.7-8.1-1.5 0-.1-.1-.1-.1-.2-1.6 2.9-12.8 1.8-15.8 2v.1c-1.9.2-7.9-.4-9.8.3 20.9 3.3-25.8 23.1-7.9-5.5h.4c-7.8 9.4.3 16.3 11 9.9-9.2 1.3-4.4-11.7 5-9.5v-.1h15.5c.1-.1.2-.1.3-.2-2.4-.6-7.3-6.9-10.1-2.3 2.5-8.9 11.5-.9 17.1 2.4 1.7-.1 3.3-.2 5-.1l.1.3zm-82.2 5.1c-3.9-.9-6.6 2.2-9.1-2-7.8.9-8.8-3.5-.6-10.5.2-1.4.5-2.1 2.3-4.2h.5c-3 13.8 7.5 15.4 13.2 8.7.4.5-.3.8 1.4 3h2.7c.7-.9 1.3-1.8 1.7-2.9.3.5-.4.7 1.2 2.8h3.5c1.5-1.4-3.9-1.4.4-7.9h.3c2.3 2.8.9 19.2-7 11-.4.7-.8 1.3-1.3 1.9-.7-.7-2.4 2.3-4.4-2.4-.3.8-1.4 2.9-4.8 2.5zm-37.7-5.1v-.5h3.5l3.4-5.7c-.7-.8.1-1.4 1.4-3.5 16.9 5.6 8.3 16.9-7.2 14.1v.6c-3.9-.9-6.6 2.2-9.1-2-7.8.9-8.8-3.5-.6-10.5.2-1.4.5-2.1 2.3-4.2h.5c.7 7-3 13.1 5.8 11.7zm-48.9 4.5v.6c-3.5-.7-6.9 1.9-9.4-2.2-.7 1.8-3.4 2.6-6.1 2.2v-.7c-3-.3-2.9 1-6.7-.8-.1.1-.1.2-.8.8-7-.8-30.8 5.1-19.9-11.3.1 1-1.1 2.3-1 4.7 31.9 8.2 12.7-6.7 22.3-16.7v18c.1.1 0 0 .3.1 0-.1 0-.1-.1-.1 2.6.9 4.1.3 9.2.4v.5c2.9.1 2.3.7 4.4-3.6.3 2.3 3.5 4.4 6.9 3.5v-.4c13 2.7 6.3-8.2 7.9-14l2.6-4.5c-.8 7.5 4.1 26.5-9.6 23.4v.1zm-83.4-.1c-.3-.1-2.7.3-4.2 0-1 5.9-8.6 12.6-16.3 7.3 6.8-.5 11.7-2.6 14.5-6.1l-.6-1.1c-10.3 3.9-2.7-19.9 2.8-5.2 3.1.1 2.6-.1 7.7-.1v.6c1.4-.3 1.6 1.2 3.6-3 .4.5-.3.8 1.4 3h2.7c.7-.9 1.3-1.9 1.7-2.9.3.5-.4.7 1.2 2.8h3.4c.1-1.5.2.5-1.5-4.5.5-.8-.5.3 1.9-3.4h.3c2.3 2.8.9 19.2-7 11-.4.7-.8 1.3-1.3 1.9-.8-.7-2.4 2.3-4.4-2.5-.3 1.5-2.9 3-6 2.5l.1-.3zm-7.9-5c0-.4-.1-1-.1-1.6-1-1.4-4.4 2.1.1 1.6zm-58.3 0c2.5-.2 2.8.5 6.5-.5-.1-1.1-.1.5-1.5-4.2.5-.8-.2 0 2.5-3.8 8.6 19.6-30.7 20.6-14.6-8.7.9 6.2-3.9 20.5 7.1 17.2zm-24.1.1c3.2-.2.7.4 5.9-.4-.1-1.1-.1.5-1.5-4.2.8-1.3 1.6-2.6 2.5-3.8 3.1 4.4.3 15.8-8.8 13.4v-.2c-3.8-.8-5.9 2.3-9.2-2.6-1.6 4.4-14.9 3.2-18.6 3.3v-.1c-2.8-.7-2.2 1.8-5.7-2.3-.8 2-4.5 3.7-6.1-.3-.3 1.6-2.8 4.6-5.6.8-1 1.5-2.3 2.2-4.9 1.9v-.2c-1.9.2-6.5-.4-8.5.3 20.9 3.3-25.8 23.1-7.9-5.5h.4c-7.8 9.4.3 16.3 11 9.9-10.2.9-3.2-12.2 6.3-9.5v-.2c1.5-.4 2.8 1.4 5.4-2.7 0 1.8 4.1 5 5.7.1.2 1.6 4.7 5.2 5.9-.1.4 1 2.8 3.5 6 2.8v.2c5-.2 10.9.4 16.3-.3 0-.4-.1-.9-.1-1.5-18.2.5-21.6-4-.1-11.2l.4.1c-.4.7-1 1.9-1.9 3.4 0-.2-.1-.3-.2-.4-25.1 9.6 5.3.5 4.3 9.1h.2s0-.1-.1-.1c.7.4 2.2.5 4.1.5.3-.2 1.4-.4 4.8-.2zm8.1-13.9-2.4 2.7-2.8-2.9 2.3-2.7 2.9 2.9zm21.7 24.8-2.5 2.7-2.8-2.8 2.4-2.7 2.9 2.8zm20.3-11v-13.4l2.5-3.9c-.5 5.5 1.6 18.4-2.5 22.9-.1-2.5.2-1.6 0-5.6zm18.5-2.5c.1.9-1.2 3.7-2.5 5.6-2.9 2.8-15.1 4.6-9.9-6.3-1 3.6 6.6 4.2 10 2.6-1.3-1.3-4.4-7.2-7.7-3.4.1-4.9 8.1-7.4 10.1 1.5zm77-3.4c.7 1.9-7.3 2.8-11.4 2.5l-.2-.2c0-.1.2-.3.6-.7 3.4-.2 3.1.1 7.3-.3.8.4-13.1-3 3.2-5.2-.6.5-.6.6-4.8 1.5.4 1.2 1.6-1.4 5.3 2.4zm55.3 10.4c-.4 6.3-8.3 13.2-16.1 8 6.5-.5 11.2-2.5 14.4-6.1l-2.1-7c0-.3 1-2.6 1.8-4.2.7 1.7 1.6 3 2 9.3zm13.3-6.8c0-.5.1-.4-.2-2.9-1.2.3-4.7 3.9.2 2.9zm18.7 2.5c1.3-4.4-10.9-2.2 0 .1v-.1zm5.1-.5c-.4-.3.8-.5-2.3-2.1-.4.8-.7 1.6-.9 2.4h3.2l.1-.1c-.1 0-.1-.1-.1-.2zm12.8-2c0-.5.1-.4-.2-2.9-1.2.3-4.7 3.9.2 2.9zm20-7.8-2 2.9-3.4-2.6 2.1-2.9 3.3 2.6zm2-4.7-2.1 3-3.4-2.6 2.2-2.9 3.3 2.5zm4 4.3-2.1 3-3.5-2.6 2.2-2.9 3.4 2.5zm47.6 20-2.5 2.6-2.8-2.8 2.4-2.7 2.9 2.9zm3.3 4.7-2.5 2.6-2.9-2.8 2.4-2.7 3 2.9zm2.4-4.4-2.5 2.6-2.8-2.8 2.4-2.7 2.9 2.9zm19.9-9.7c0-.8-4.3-3.7-3.8.3.1-.2 3 .4 3.8-.3zm17.1 5.5c-6.1 3.3-7.5-11.4.4-9.6 7.8 6.8-3.3 24.9-14.3 16.7 6.8-.5 11.7-2.6 14.5-6.2l-.6-.9zm-.4-5.2c0-.2-2.2-3.8-3.6-.7.4 1 1.8.6 3.6.7zm.8-13.3c0 .8-.7 2.8-2 5.8-1.7-.2-2.6-12.3 2-5.8zm18.3 17.3c-.4 6.3-8.3 13.2-16.1 8 6.5-.5 11.3-2.5 14.5-6.1l-2.1-7c0-.3 1-2.6 1.8-4.2.6 1.7 1.4 3.1 1.9 9.3zm15-17.3c0 .8-.7 2.8-2 5.8-1.6-.3-2.6-12.3 2-5.8zm23.3-.9c-.5 3.3-9.4 6.9-14.2 6.7 1.3-.4 2.6-1 3.8-1.8-.6-.4.1.4-2.6-1.4-1.8-3.2 14.8-9.9 7.4-2.6-1.6.1-1.1-1.1-4.6.3v.2c2.7 1.3 5.2 1.4 10.2-1.4zM307.4 543.9h3v1h-3zm-41.1-25.4-.2-.2c-.9-.2-1.7-.2-2.6-.2-.7.1-1.4.4-1.9 1-.9 0-1.9 0-2.8-.2-1-.2-1.7-.3-2.4-.5s-.7-.3-.9-.3v-.1c-.7-.3-1.5-.6-2.3-.9-.7-.2-1.4-.3-2.1-.5-1.5.1-3-.1-4.4-.5-1-.1-1.9-.4-2.8-.7h-.2c-2.2-.5-4.4-.6-6.7-.3-1.8 0-5.6.8-8.5 0h-.2c-1.9-.4-3.8-.5-5.7-.2h-.2c-2.9.4-5.7 1-8.5 1.9-1.7.1-2.7.7-4.9 0-.2-.4-.5-.2-.1-2.3.7-1.1 1.1-2.3 1.4-3.6.5-1.4.8-2.8.9-4.3h-.2c-.2-1.3 0-2.6.5-3.8.4-1.1 1.3-2.1 2.4-2.6 1.9-.8 3.9-1.4 5.9-1.9 1.1-.3 2-.3 2.7-.5l.3.1c.3-.1.5 0 .7.2 1.6-.1 4.2.3 5.8-.3 1.6 0 3.3.1 4.9.3 1.7.2 3.3.6 5.2.9.4.5.5 1.1.2 1.7-1 1-2.2 1.7-3.5 2.2h-4.4c-.8.4-1.7.7-2.6.7-1.2.3-4.9 0-7.3.7-.6 0-1.1.1-1.6.3-.5.2-1 .3-1.4.5s-.9.3-1.4.5c-.5 0-.9.3-1.2.7-.6.8-.6 1.8 0 2.6.4.4.9.7 1.4.9 1.6.9 3.4 1.4 5.2 1.5 1.2.2 2.8.3 4.5.5 2.8.1 5.2.3 7.3.3 1.8-.1 3.6-.4 5.4-.7h.2c.7-.5 1.2-1 1.9-1.5s1.1-1 1.6-1.5v-.2c.5-.5.8-1.2 1.2-1.5.4-.3.7-.6 1-1l-.2-.5c.1.2.3.2.3 0 .2-.2.4-.6.7-.9.1-.3.3-.6.5-.9.1-.1.2-.3.2-.5 1.2-1.8 2.5-3.1 3.5-4.5 1-1.2 2-2.3 3.1-3.3.6-.8 1-1.8 1-2.8-.3-.8-.8-1.5-1.6-1.9v-.1c-.6-.1-1.3-.1-1.9 0-.7 0-1.4.1-2.1.3-.9.1-1.7.2-2.6.3-1-.2-2-.4-3-.7-.9 0-1.9-.1-2.8-.3-1.3 0-2.7-.1-4-.3-.8.1-1.6.1-2.3-.2-.7-.2-1.3-.6-1.9-1-.8-.6-1.5-1.3-2.1-2.1-.7-.6-1.3-1.3-1.6-2.2l-.1-.1c-1.4-1.2-2.5-1.7-3.4-1.6s-1.9.7-2.4 2.1c-.2.2.2 0-.6.8-1.2 1.5-2.8 2.7-4.5 3.6-2 .9-4.2 1.5-6.4 1.7-3.1-.7-6.9-.2-11.1 1-.3 0-.6.1-.9.3-.4.1-.7.5-.7.9 0 .1.1.3.2.4.2.4.6.5.9.7s.9.3 1.4.5c.9.9 1.7 1.9 2.4 2.9.7 1.3 1.2 2.7 1.4 4.1 0 1.1-.1 2.3-.3 3.4-.2 1.4-.6 2.9-.9 4.8-.7.7-1.2 1.6-1.4 2.6-.4 1-.7 2.2-.7 3.3-.6 1.9-.7 3.7-2.5 5.9-.4.7-.5 1.6-.2 2.4.3.8.9 1.4 1.6 1.7.1.1.3.2.5.2l.2.2c3.1.1 7.1-.5 11.9-1.1h.2c1.2-.4 2.5-.7 3.8-.9 1.2-.2 2.6-.3 3.8-.5.5.2 0 .1 1.7.2.4.2 1 .2 1.4 0 .9 0 1.8-.2 2.6-.5 1.7-.1 3.1-.3 4.3-.3 1-.2 2-.2 3 0 .5.2 1.2.3 1.9.5.9.2 1.9.2 2.8.2 1.2.2 2.3.2 3.5.2 1.4.3 3.9 0 6.6.7 1.3.4 2.6.8 3.8 1.4.6 1.1 1.2 1.9-.2 4.5h.2c-3 4.3-5.7 7.4-8.7 9.1-2.5 1.7-5.5 2.5-8.5 2.2h-.2c-1.3-.2-2.5-.2-3.8-.2-1.2.2-2.6.2-3.8.5h-.2l-.9.9c.1.3-.4.9.9 1.5 2.5 1.6 6.5 2.5 10.7 3.1 1.1.2 2.2.2 3.3 0 1-.1 1.9-.3 2.8-.7h.3v-.3c.5-.1.9-.2 1.4-.3.4-.2.8-.2 1.2-.2l.2-.2c1.9-.8 3.7-2 5-3.6 2-2.2 3.8-4.7 5.2-7.4.3-.8.8-1.6 1.4-2.2 1-1.3 2.1-2.5 3.3-3.6v-.2c.8-.7 1.5-1.5 2.1-2.4.7-.7 1.2-1.5 1.6-2.4-.1-.5.1-1 .5-1.4.2-.3.4-.5.7-.7l.2-.2c.3-1.3-.2-2.5-1.3-3.1zm755.5-12.4c0-.3-.2-.7-.1-.9-.2.1-.2-.6-1.4-.1-.1.2-.2.4-.3.5-.7.5-1.5.9-2.4 1.2-1.1.4-2.3.6-3.5.7-9.4-.7-18.9-.7-28.3 0h-.2c-.9.3-1.8.5-2.8.5-1.5.3-3 .3-4.5 0-.3-.1-.2.1-1.1-.5-2.6.2-6-1.2-8.4 1.5-1 1.1-2.2 4.6-2.5 7.1 0 1.1.2 1.8.7 2.1 1.5 1 3.4.8 6.6 0 5.3-.9 10.8-2.1 16.4-1.8.8.1 1.6.4 2.3.9.4.3.7.9.7 1.4.4 6 .4 12.1 0 18.1 0 .7-.2 1.8-.2 2.8-.2 1.2-.2 2.3-.2 3.5.2.3.2.7.4 1v.7c.4.8 1 1.5 1.6 2.2.7.5 1.2 1 1.9 1l.3.2.2-.2c0-.2 0-.2.2-.2.1-.3.5-.2 1.4-.2 1.5-.8 2.6-2.3 3-4 .7-2.2 1-4.6.7-6.9 0-2.3-.2-4.1-.2-5.7-.5-4 .2-6.7.8-11.8.2-.7.7-1.2 1.4-1.4 1.2-.1 2.5 0 3.7.3 1.9 1 4.1 1.2 6.1.4.4 0 .8-.1 1.2-.3.5 0 .9-.2 1.2-.2.8-.2 1.5-.7 1.9-1.4.8-1.2 1.4-2.5 1.9-3.8.3-1.2.7-2.4 1-3.4.3-1 .6-2 .7-3.1l-.2-.2zm-733.2-6.5c3.5.5 7.5 0 12.1-1.4 4-1.7 6.7-2.8 8.3-3.3h.1c0-.2.1-.2.3-.2 3.1-.9 6.1-2.1 9-3.4.7-.7 2.8-.6 6.3.3.5.3.8-.1 3.1.6 0 .2-.4.5-.7.7-7.5 3.2-11.5 4.6-12.5 4.1-1.9.2-3.7.5-5.6.9v.1c-2.1.4-4.3.9-6.9 1.4-1.9.7-3.9 1.3-5.9 1.7-1.5.1-3 .7-4.2 1.7 0 .7.7 1.7 2.1 3.1.9 1.6 1.4 4.3 1.4 8.3-.9 3.1 0 4.9 4.1 4.5 1.6-.6 3.2-1.1 4.9-1.4 1.6.2 2.5.2 2.8-.3.6-.2 1.1-.3 1.7-.3v-.1c3-.8 6.1-1.1 9.3-1h5.6c2.7-.2 5.5-.2 8.3-.2l.1.2c1.1 0 2.1.1 3.2.1l.7.3c1.2 0 2.3-.1 3.5-.3 2.1-.9 3.8-2.9 5.2-6.2.3-2 1.2-3.9 2.4-5.5l.7-1c.7-.9 1-1.6 1.4-2.1.7-1.6 0-2.6-2.1-2.8-.5 0-1.7-.1-3.8-.3l-2.1-.3c-2.7-.5-5.7-.7-9-1l-.1-.1h-1.7c0-.5.3-.8 1-1 .2.2.4.2.7 0 .8-.2 1.5-.5 2.1-1 .9-.7 2-.9 3.1-.7 1.6-.6 2.8-1.8 3.5-3.4-1.4-3-5-1.5-8.7-1.9-.8 0-1.7-.3-2.4-.7-.8-1-6.9-.1-8-1.7-1.3-.7-2.8-1-4.2-.7-.7.5-1.9.6-3.1 1.5-.5.5-.8.7-1 .7-1.4.8-2.9 1.3-4.5 1.7l-.1.1h-.6c-1.2.3-2.4.8-3.5 1.4-1.8.8-3.7 1.2-5.6 1.4-1.2-.1-2.3 0-3.5.3-3.7.6-6.1.5-7-.9-.5-.9-.9-1.1-1.4-.9-1.3.4-.7 1.3-1.4 3.8-.5 1.2-.5 1.9-.3 2.1-.4 1.9.6 2.9 2.9 3.1zm27.3 11.5c-2.8.5-5.1.9-7 1.2v.1c-3.6.3-6.5 2.2-9.3 1.5.2-1.3 1.4-2.2 3.5-2.7.1 0 1-.1 2.4-.3 1.2-.2 2.5-.3 3.5-.5v-.1c1.5-.2 3-.5 4.5-.9 1.3-.2 2.5-.2 3.8 0 .3 1.2 0 1.7-1.4 1.7zm.8-7.2c-2.6.3-5.1.8-7.7 1.4v.1c-2.2.6-4.4 1.3-6.6 2.1-1 .2-1.5.2-1.7 0-.5-.2-.5-.7 0-1.4 2.6-1.4 5.4-2.4 8.3-2.9v-.1c2.8-.5 5.6-.8 8.4-.9.2.4.3.9.3 1.4-.3.5-.6.5-1 .3zm22.1 7.4h-6.6l-.1-.2h-9.7c-.5-.1-.5-.8 0-1.7.3-.8 1.4-1.2 3.1-1 1.6.4 3.2.7 4.9.7h1.7l.1.1c.8.1 1.6 0 2.4-.3 1.7-.2 3.4 0 4.9.7.3.8.2 1.5-.7 1.7zm-6.6-10.1.1.1c4.8 0 8.1.5 9.7 1.4 0 .7-.7 1.2-2.1 1.7h-7.7l-.1-.1h-1c-2.4-.2-3.6-.5-3.8-.7h-3.8c-.9.3-1.7-1.2 0-2.1h3.5c1.7-.3 3.5-.4 5.2-.3z" fill="#1B1918"/>
  <path d="M338.8 526.3c-1.4.3-3.4.1-6.6-.3-1-.2-1.7-.6-1.7-.5-1-.3-2.1-.2-3.1.3h-6.3c-4.1-.1-8.1.2-12.1.9v-.2c-.4 0-.7.1-1.1.2-2 .8-4.1 1.2-6.3 1-2.1.2-3.8.9-3.5 2.8.4.9.9 1.4 1.4 1.4.9 4 .8 8.1-.3 12-1.2 1.3-1.5 2.5-1 3.4.4 1.4 1.8 1.9 4.2 1.4 2.1-.9 4.3-1.5 6.6-2.1v-.1c1-.1 2-.3 3-.3 2.6-.1 13-.7 14-.3 2.1-.1 4.2-.1 6.3.2.7.2 1.4.3 2.2.6 1.6.8 3.4 1.2 5.2 1 .9-1 1.3-2.4 1-3.8-.7-.9-1-3.3-.7-6.9 0-3.3.4-5.3 1.4-6.2.5-.7.8-1.5 1-2.4-.6-1.4-2.1-2.3-3.6-2.1zm-4.5 14.5-2.1.3c-1.3.1-2.6 0-3.9-.3-1.2 0-2.3.1-3.5.3h-1.7c-3.4.4-7.8 0-14.2 1.3v.1c-.9.1-1.4.3-1.6.3-.7.4-1.6.5-2.4.3-.4 0-.2-.3.3-1 1.4-1.4 2.5-2.2 3.5-2.4h.3v.1c1.2-.1 2.4-.3 3.5-.7 4.9-.5 8.7-.7 11.5-.7 2.7.2 5.3.2 8 0 .1-.1.2-.2.3-.2v.1c.2-.2.4-.2.7-.2.7-.2 1.2.1 1.7 1s.3 1.5-.4 1.7zm1-8.6c0 .5-.3.7-1 .7-.7.2-1.4.3-2.1.2v-.1c-3.2.3-6.5.3-9.7-.1-4.6 0-9.1.7-13.5 1.9v-.1c-.4 0-.5 0-.7.2-1.1.5-1.7.5-2.1.3s-.5-.7 0-1.4c.8-.6 1.8-1.1 2.8-1.5v.2c1.9-.7 4.2-.3 7.6-1.2 1.6-.4 3.2-.6 4.9-.7l4.5.3c2.5.1 4.6.1 6.3.3h2.4c.6.1.8.5.6 1zm-96.6 3c2.9-1 5.3-2.9 7-5.5.2-.2.3-.5.5-.7v-.7c-.1-.4-.1-.5-.3-.7-.3-.2-.7-.3-1.1-.3-2.4.6-4.9.6-7.3 0-4.9-.7-9.8-.9-14.8-.7-1 0-1.9.1-2.9.3-7 .4-14 1.4-20.9 2.9h-.2c-1.6.5-2.8.8-3.7 1-.6.1-1.2 0-1.7-.2v-.2c-.8-.5-1.7-.5-2.6-.2-.8.5-1.5 1.2-1.9 2.1v.1c-.4 1.1-.4 2.2-.2 3.3.3 1 .9 1.9 1.7 2.6 1.1.8 3.4 1.4 6.6 1 1.6-.1 3.1-.2 4.7-.5 1.5-.3 2.9-.7 4.4-1.2 5.5-.8 11.1-1.1 16.6-1.2h5.6c3.6.3 7.1-.1 10.5-1.2zM806 518c-1 .9-2.2 1.5-3.5 1.9-.3.1-.7.3-1 .5 0 .5-.7.5 0 2.1.3.1.7.2 1 .3 2.6.5 4.7.4 6.4-.5 1.3-.5 2.5-1.4 3.3-2.6l.9-1.5c1.6-3.1 2.6-5.6 3.5-7.1.5-.8.6-2.1 1.2-2.1l.2-.2c1.2-1.6 2.2-3.1 3.1-4.5.7-1.3 1.3-2.6 1.7-4 .6-2.5.9-6-3.3-5.3-1.2.2-2.3.7-3.3 1.4-1.1.7-2 1.6-2.8 2.6h-.2c-.4 1.1-.7 2.2-1 3.3-.3 1.2-.5 2.4-.7 3.8.1.5 0 1-.2 1.5-.1.5-.1 1.1-.5 1.4-.1.2-.8 1.5-1.7 3.1v.2c-.1.6-.3 1.2-.5 1.7-.1.3-.3.6-.5.9v.2c-.5 1.1-1.2 2.1-2.1 2.9zm167.6-19c.7.5 1.5.9 2.4 1 2.3.2 4.7.1 7-.3 6.2-.3 12.8.2 19.4-.3.7 0 2.6-.3 4.2-.2 1.6-.1 3.2-.5 4.7-1.2 1-.5 1.7-1.5 1.9-2.6v-.2c-.1-.8-.4-1.5-.9-2.1-.4-.6-.9-1.1-1.6-1.4h-.4c-.4.2-.8.3-1.2.3-.6-.2-1.4-.4-2.3-.7-4.2-.2-9.3-.2-14.9 0-1.4.2-2.9.2-4.3.2-1.5-.2-2.9-.3-4.5-.5h-.7l-.4-.4c-2.8-.5-5-.3-6.4.6-1.7.8-2.8 2.4-3 4.3-.2.5-.2 1.1 0 1.6 0 .8.4 1.5 1 1.9zm-31.5 2.5c1.1 2 3.1 3.4 5.4 3.6 1.7 0 3.4-.4 4.9-1.2.8-.6 1.5-1.1 2.3-1.6h.2c.4-.3.9-.7 1.6-1.2.5-.5 1.1-1.1 1.7-1.5.5-.2 1-.4 1.4-.7 1.7-1.3 3.1-3 4-5 .5-1.3.4-2.8-.3-4l-.2-.2c-1-.5-2.1-.6-3.1-.3-1 .5-1.9 1.2-2.6 2.1-1.6 1-3.3 1.8-5 2.6-.8.4-1.7.8-2.6 1.1-2.3.7-4 1-5.4.7-.8-.1-1.1-.9-2.6-.2-.3 0-.5.3-.7.5v.7c-.4.7-.4 1.6-.2 2.4.3.8.7 1.6 1.2 2.2zm-179.6 9c1.2 1.4 2.2 2.4 3.1 3.6 1.2 1.8 1.4 2.3 2.6 5.4.2.6.5 1.2 1 1.6.8 1.7 1.8 3.2 3.1 4.6.2.2.3.5.5.7.2 0 .2.2.4.2.4.2.5.2.7 0 .4 0 .6-.4.9-.7.2-.4.3-.9.3-1.4.6-7.2 1-14.5-3.1-19.8l-.2-.2c-.7-.3-1.3-.9-1.6-1.6-.8-1-.4-3-1.1-5-.4-.5-.6-.9-.9-1.2-.2 0-.4-.1-.4-.2-.8-.1-.6-.7-2.7 0h-.2c-2 1.6-3.3 3.9-3.8 6.4-.5 2.2 0 4.8 1.2 7.7l.2-.1zM481 502c10.7-1.9 20.7-4 28.8-4.3v.2h.2c9.1-.1 19.8 2.4 29.6 2.7 1.3 0 2.5-.6 3.3-1.5v-.2c.2-.3.4-.6.5-.9.2-.4 0-.7 0-.9-.2-.4-.2-.6-.5-.9-.4-.3-.8-.5-1.2-.7-3.1-.9-6.3-1.6-9.6-2.1-3.9-.5-8.4-1.2-13.5-1.7-.8-.2-1.6-.5-2.4-.9-.8-.4-1.6-1-2.1-1.7-1.2-1.4-2.6-2.4-4.3-3.1-.3-.2-.9-.4-1-.3-1.7-.4-2.9.5-3.8 2.2v.2c-.1 1.3-.6 2.5-1.6 3.4-.7.9-2 1.2-3.7 1.2-1.2-.2-2.4-.2-5.2.7-.7.1-1.4.3-2.1.5-.7 0-1.3.2-1.6.2-1.7-.4-3.5 0-5 1-1.3.4-2.1.7-3 .9-.8 0-1.5 0-2.3-.2-.6-.5-1.3-.7-2.1-.7-.8.2-1.6.5-2.3 1l-.2.2c-.1 1.7.3 3.3 1.2 4.8.9 1.1 2.2 1.2 3.9.9zm483.1.1c-.3 0-.5-.1-.7-.3-.6-.3-1.4-.4-2.1-.3-.7 0-1.3.4-1.6 1 0 .1-.1.2-.2.2v.2c-.2.6-.5 1.1-1 1.6-.5.6-1.2 1.2-1.9 1.5-1.8 1.1-3.1 1.9-4.3 2.7-.2 0-.4.2-.4 0-1.4.9-2.3 1.6-3 2.1-1.3.9-2.7 1.5-4.2 1.9-.8.3-1.7.2-2.4-.2-2.2 0-3.5 2.3-4.4 5.4v.2c-.3 1.7-.3 3.5 0 5.2.6 1.4 1.3 1.7 2.3 1.4 2-.9 4-1.9 5.9-3.1 1.7-1 3.4-2.2 5-3.4.3-.3.6-.5.9-.7.1-.2.1-.2.2-.2v.1h.5c.4 5.8 0 10.5-.1 17-.1.3-.2.7-.3 1-.1.1-.2.3-.2.5-.5.8-.8 1.5-1.2 2.2-.3.4-.6.9-.9 1.4-.3.4-.9.5-1.2.7-.5 0-1 0-1.4-.2l-.2-.2c-.8.8-1.4 1.8-.3 3.9l.2.2c1.3.5 2.6.8 4 1 1.5 0 3-.1 4.5-.5h.2c.3-.2.7-.3 1-.3.5-.1.9-.2 1.4-.3 2.2-1.2 3.2-3.9 2.9-7.6-.6-3.8-.7-7.6-.4-11.5.4-2.7.3-5.4-.3-8.1v-.2c-.2-.3-.2-.7-.2-1 .2-.3.4-.9.9-1.2.4-.5.7-1 .9-1.5.2-.4.2-.9.2-1.4l.3-.5v-.2c.1-.1.2-.2.2-.3.3-.3.6-.5.9-.7v-.2c.9-1 1.5-2.2 1.6-3.6.1-1.3-.2-2.5-.9-3.6l-.2-.1z" fill="#1B1918"/>
  <path d="M832.5 531.7v-.2c-.8 0-.5-.7-2.2 0-.5.5-1.2.8-1.9.9-.6 0-1.3 0-1.9-.2-2.4-.3-4.8-.3-7.2 0-1.7.2-3.5.2-5.2 0-.7-.2-1.4-.3-2.1-.5v-.1c-.7-.1-1.4-.3-1.9-.8-1.9-.5-3.3-1-4.7-1.5s-2.5-.7-3.5-.9h-.2c-.4.2-.7.2-.7 0-.4-.7-.1-1.5-.4-3.6-.3-1.1-.3-2.3 0-3.5.2-.3.3-.9.5-1.2v-.2c.4-2.1.8-4.2 1-6.4.6-3.7-.2-5.9 1.3-10.5.9-2.6 1.9-5.2 3.1-7.7v.1c.8-1.9 1.2-3.9 1-6-.2-1.5-1.5-2.7-3.1-2.8h-.2c-2.3.2-5.7 2.1-8.6 4.9-.3.2-.5.3-.5.5-.2.2-.4.5-.2.7 0 .4 0 .5.2.7.2.4.6.6.9.9 2 1.2 2.1 3.8 1.2 7.1-.4 1.2-.6 2.4-.7 3.6-.1 1.2-.3 2.7-.3 4.3-.7 6.2-2.1 12.4-4 18.3-1.7.6-3.5 1.1-5.3-.9v-2.6c.4-.9.4-2.2 0-4.3-.3-4 1.7-7.8 0-13v-.2c-.4-.8-.5-1.7-.2-2.6.1-.5.3-1.2.5-1.9.1-2.2.1-4.3-.2-6.5-.1-2-.5-4.1-1.2-6l-.2-.2c-1-1.2-2.5-1.8-4-1.6-1.7.3-3.2 1.1-4.4 2.4-.8 3.8-.4 7.7 1.1 11.2 1.4 3.5 2.2 7.2 2.4 11-.4 1.4-.4 2.9 0 4.3.2 1.3.2 2.7.2 4-.2 1.4-.2 3-.5 4.5-.3 1.2-.9 2.3-1.6 3.3-.5.6-1.1 1-1.9 1.2-2.1.3-4.2.9-6.3 1.2-.9.1-1.9.2-2.8.3-1.2.2-2.2.3-3.2.4-1.4.1-2.9.1-4.3 0-.7.1-1.4 0-2.1-.3-.4 0-.8-.1-1.2-.3-1-.2-2.1-.1-3.1.3-.7.4-1.3 1.1-1.6 1.9.1.4-.3 8.7.2 9.1.1.7.4 1.2 1 1.6.7.3 1.4.4 2.1.2.3 0 .7 0 1-.2 1.2-.2 2.4-.5 5.2-1 2-.2 4.1-.5 6.1-.9v-.2c3.3-.6 9-2.2 14.2-3.3.7-.2 1.4-.2 2.1-.2 1.1.2 2.3.3 3.7.5 1.3.2 2.7.2 4 .2 3.2-.1 6.5.1 9.7.7 2.8.6 5.5 1.6 8 3.1h.2c.7.2 1.4.4 2.1.7v.1c1.4.3 2.7.7 4 1.2 1.2.3 2.5.4 3.8.3 2.6-.8 5.1-2.1 7.1-4 2.3-2.1 4.2-4.5 5.7-7.2v-.2c.5-.6.4-1.4 0-2zm-96.1-39.1c-.6.4-1.2.7-1.9 1-.5 0-.8 0-1-.2h-7.4c-.3-.2-.4.1-1.8-.4-2.7-.6-5.4-1.1-8.2-1.4-1.2 0-2.3-.2-3.3-.2v.1c-1.4 0-2.8.1-4.1.2-1 0-2-.1-3-.3-.6-.3-1.2-.8-1.6-1.4h.2c-.5-.8-1.2-1.5-1.9-2.1-1.2-.9-2.4-1.6-3.8-2.1v-.2h-.4c-.9-.3-2-.3-2.9.1-.9.3-1.6 1.2-1.6 2.2-.1 1.2-.8 2.2-1.7 2.9-1.2.9-2.6 1.4-4 1.7l-2.1.3h-2.7l-.2-.1c-.8.2-1.7.2-2.5.4-.9 0-1.7.1-2.6.3-.3 0-.6 0-.9.2-.4 0-.8 0-1.2.2-.5.2 0 .1-1.3.2l-.2-.2h-.2c-1.7.1-3.3.1-4.5.3-1.1 0-2.2.1-3.3.3h-.2c-.8.1-1.4.8-3 .3h-.2c-.5-.4-1.1-.4-1.7-.2-.5.3-.8.8-1 1.4v.2c.2 3.1-.8 8.1 3.8 7.4.7-.3 1.5-.6 2.3-.7.9-.2 1.8-.5 2.8-.7 1.9-.1 3.8-.4 5.6-1 1.6-.6 3.1-1.3 4.5-2.1 1.2-.3 2.5-.4 3.8-.3l.2.1c.2 0 .4.1.5.2.6.4 1.1.9 1.4 1.5.3.4.4.8.5 1.2-.6.8-1.5 1.3-2.4 1.7l-.2-.1c-.5.3-1.1.6-1.7.9-2.2.3-4.4.2-6.6-.3-1-.2-2-.2-3 0l-.5.5-.3.9c.2.4.4.8.7 1.1.3.5.4 1.1.5 1.7.2.4.2.8 0 1.2-.4 1.1-.4 2.3 0 3.4.3 2.8.1 5.5-.4 8.3-.5 2.9-1.3 5.8-2.3 8.6-1.9 4.7-5.1 8.8-9.3 11.8-.3 0-.7.1-.9.3.1.2-.7.5 0 1.4.4.2.1 0 2.2.6.3.4.9.6 1.2.9h.2c1.6.5 3.3.5 4.9.2 1.7-.5 3.3-1.4 4.7-2.6h.2c1.3-2 2.3-4.1 3.1-6.4.9-2.4 1.4-5 1.6-7.6.1-2-.3-5.2.3-7.1v-.3h.7c.3.5 1.4.7 3.1.5.5 0 1.1.1 1.6.3l.2.3c.3.1.5.1.7.3.6.4 1.1.9 1.4 1.6-.1 1.4-.2 2.7-.5 4.1-.4 1.6-.9 3.5-1.6 5.7l-.2-.3c0 .4-.1.7-.3 1l-.3 1.5v.1c-.1.6 0 1.1.1 1.7.2.2.3.5.5.7l.2.3c.5.3 1.1.4 1.6.2 1.3-.6 2.6-1.1 4-1.5 1.2-.3 2.5-.5 3.8-.7h.5c.5.1.9.2 1.4.3 1.6-.1 1.9.3 3.8-.2v-.3c1.5-.1 3.1 0 4.6.2 2.4.3 4.9.3 7.3 0h.2l.2-.2c.3-.8.6-1.7.7-2.6.2-1.3.1-2.6-.3-3.8-.2-.4-.1.1-.2-.9l.2-.3v-4.5c-.3-.4-.4-1-.2-1.5.2-.4.5-.5 1.2-.7h.9v-.1c1.7-.3 3.3-1 4.6-2.1h.3l.3-.3c.2-.1.4-.1.4-.3.1 0 .3 0 .3.2.1 0 .1.1.3.3 0 .3.1.5.3.7-.3 2.3-.1 5.2-.5 8.9-.1 4.8.2 10.8-.2 15.7.1.6-.3.6.5 1.4 1.3.3 2.7.2 4-.3h.2c.7-.4 1.3-1.1 1.7-1.9v-.1c.4-.9.6-2 .5-3l-.2-.3h-.3v-1.5c.2-.2.2-.5.3-.9.2-.2.2-1.2 0-3.1 0-1.4-.1-2.7-.3-4.1-.1-.6-.3-6.7-.2-7.9.2-2.7.2-5.4 0-8.1-.3-1.3-.3-2.7 0-4 0-.3.2-.7.2-1 .4-.7.7-1.2 1-1.7v-.2c.3-1.1.7-3-1-3.9v-.1c-.8-.4-1.7-.7-2.7-.7-3.2 0-6.4-.2-9.6-.8-1-.3-1.9-.7-2.8-1.1v-.5c0-1.2-.4-2.6 2.2-3.2h.6v-.1c1 .4 2 .7 3.1.9 1.1.3 2.1.7 3 1 1.7 1 3.7 1.8 5.7 2.1.1.1.3.2.5.2 1.5.3 3.1.4 4.7.3 1.3-.1 2.5-.7 3.3-1.7 1.3-1.4 2.3-3 3.1-4.8.2-.5.4-1 .7-1.4l.5-.5h.2c.3-.5.3-1.1 0-1.6-.5-.1-.9-.4-1.2.1zm-50 20.6c-.9.6-1.8 1.5-3 2.2h-.2c-.5.6-1.2 1-1.9 1.4-.8.4-1.8 1.3-3.1-.2-.3-.9-.4-1.9-.3-2.9.2-.8.6-1.4 1.2-1.9h.7c.8-.4 1.7-.6 2.4-.9.3 0 .7-.2 1-.2l.2.1c1.7-.3 3.3-.7 4.9-1.2.3.2.5.3.5.5.1.1.2.3.2.5-.7 1-1.6 1.8-2.6 2.6zm15.8.1c.2 1 .8 1.9 1.7 2.4 0 .2.2.5.2.7-1.9-.3-3.9-.3-5.8 0v.2c-1.7 0-3.5.1-5.2.3-.1 0-.3.2-.5.2v-.2c.2 0 .2-.3.4-.5l.3-1c.1-.5.3-.9.5-1.4.1-.4.3-.8.5-1.2v-.2c.3-1.1.3-2.9 3.1-4h.9v-.1h3.7v.5c-.1 1.4 0 2.9.2 4.3zm-9-16c1.7-.2 3.5-.2 5.2-.2v-.1h.9c1.8.2 3.5.3 4.9.5 0 .3-.1.6-.3.9-.6.9-1.3 1.7-2.1 2.4-1 .4-2 .6-3.1.7h-.3v.1c-1.4.2-2.9.2-4.3.2-.8-.3-1.4-.9-1.6-1.7 0-1 .2-2 .7-2.8zm12.2 30.7c-.1.7-.1 1-.3 1.2h-6.8v.3c-2.1 0-4.2.1-6.3.3-.7-.6-1.4-2.7-.4-5 .3-.4.7-.8 1.2-1 1-.4 2-.7 3.1-.9.8.2 1.6.3 2.4.3v-.2c1.5.4 2.8.2 5.7 0 .4.2.7.5.9.9.2.1.3.7.5 1-.1.3-.2.7-.3 1v1.6l.3.5zm7-18.7c.2 0 .4.2.7.2v-.1c1.9.2 3.9.6 6.1.9.6 1.4.7 2.9.3 4.3-.6.8-.7 1-2.6-.2-.7-.5-1.5-.9-2.4-1.2-.5-.3-1-.5-1.6-.7v.1l-2-.4c-.7-.2-1.4-.6-2.4-.9-.5-.3-1-.5-1.6-.7-.1-.1-.3-.1-.3-.3.2-.1-1.3-.8.2-1.5 1.6.2 3.5.3 5.6.5zm214.9 31.2c-2.9.8-6.4-2.2-9-4.5-.5-.4-.7-.5-.7-.7-3.8-3-7-6.6-9.6-10.7-1.3-1.7-1.5-2.8-.3-3.1 1.1-.7 1.8-1.8 2.1-3.1 1.6-10 3-15.7 4.2-17.8.9-1.5 1.7-3.1 2.4-4.8.2-1 .5-1.9 1-2.8.1-.2.2-.5.3-.7.7-.9.6-2.3-.3-3.1-1.4-.9-2.8-1.2-3.8-.7-1.2.7-2.9.7-5.2 0-2.4-.3-4.8-.3-7.3-.2v-.1h-3.7c-2.2.2-4.5.5-6.8.8v.1c-1.5.4-3.1.4-4.6 0-2.1-.7-3.6-.6-4.5.3-.6 4.1-.4 7 .3 8.9.2 1.9.2 3.9 0 5.8-.5 1.8-.5 3.7 0 5.5.5 2.2.2 5.2-.7 8.6-.5.9-.5 2.7-.3 5.5-.1 2.6-.5 5.3-1 7.9-1.2 2.9-3.5 5.2-6.4 6.5v-.2c-.8.4-1.7.7-2.6.9-2.1.4-3.3 2.1-3.8 5.2-.2 1.1.5 1.6 2.1 1.4h.3c1.3-.6 2.6-1.1 4-1.5v.2c2.1-.3 6.2-.2 8.9-1.6 2.6-1.4 5.4-2.3 8.4-2.6v-.1c2.2-.3 4.4-.5 6.7-.5 1.3-.1 2.5-.3 3.7-.7 1.5-.6 2.8-1.6 3.7-2.9.7-.7 1.2-.7 1.7.3.6 2.7 1.7 5.2 3.1 7.6.3 1.6 2.4 2.8 5.9 3.8 2.3.1 4.5-.4 6.6-1.4 1.7-1.4 3.6-2.6 5.6-3.4.3-.3.7-.7.7-1-.3-.6-.7-.9-1.1-1.1zm-31.8-17.4c-1.2 3.2-2.8 6.2-4.9 8.9v.2c-.4.3-.8.6-1.3.9-2.2.7-3.8.9-3.5-1 1.2-4-.7-6.7 3.1-9.3.9-.1 1.9-.2 2.8-.4.8-.3 1.6-.5 2.4-.7 1.1.2 1.6.7 1.4 1.4zm6.3 9.2h-.7c-.8 0-3.6 1-3.5-.7 1.1-1.9 2.1-3.5 2.8-4.5 0-.3.4-.5.7-.5v.1c.5.1 1 .2 1.4.5.5 1.7 1.2 3.3 2.1 4.8-1 .2-1.9.3-2.8.3zm3.5-17.8c-1.4-.1-2.8-.1-4.2 0h-3.7c-2.4.4-4.9.7-6.7 1.1h-.1c-.7.2-1.4.4-2.1.7-1.9-.7-2-2.4-.3-5.2.7-.2 1.5-.3 2.4-.5 2.2-.5 4.5-.8 6.8-.9 2.9-.1 5.7 0 8.6.3.3 1.5.1 3.1-.7 4.5zm.7-13c-1.5-.2-6.4-.2-8.6-.2-2.3.2-4.5.5-6.8 1-.2 0-.5.2-.7.2-1 .2-2.1-.4-2.4-1.4-1.1-1.5-.7-2.7 1-3.4l2.1-.3v-.1c2.5-.2 4.7-.3 6.8-.5 1.3 0 2.5-.2 3.7-.2v.1c2.2-.1 4.4.2 6.6.7.6 2.2 0 3.6-1.7 4.1z" fill="#1B1918"/>
  <path d="M752.3 534.6c-.1 1.2-.1 2.4 0 3.6 0 1.3.1 2.5.3 3.8h.1v-8.6c0 .2-.1.4-.2.5 0 .2-.1.5-.2.7zm-392.8-15.1c-1.3.2-2.6.1-3.8-.3-3.1-.5-4.7 0-8.7.3-1.4-.1-2.8-.3-4.2-.7-.8 0-1.6-.1-2.4-.3-1.5-.3-3-.6-4.5-.7-1.3.3-2.6.2-3.8-.3-1.9.1-3.8.3-5.9.3-1.8.2-2.6 0-2.8-.3-1-.4-3.7-.2-8 .3-2.6.2-4.7.5-6.6.7-2 .3-3.9.7-5.9 1.3-5.1.5-10.1 1.6-14.9 3.1-1.2.7-1.9.6-2.4-.3-1.1-.1-2.2.4-2.8 1.4-.2 1.4-.3 2.7-.3 4.1 1.1 3.5 3.2 1.2 7.3 1.4 1.3-.1 2.6-.4 3.8-1 4.5-1.8 9.1-3.2 13.8-4.1.4-.2.9-.2 1.4-.2 3.6-.6 8.4-1.3 12.1-.9.7.7 2.1.9 4.5.7 3.5-.6 8.9.2 14.1.9 2.3.7 4.5 1.7 6.6 2.8 2.7 1.8 6.3 1.6 8.7-.7.8-.9 1.8-1.7 2.8-2.4.9-.5 1.5-1.4 1.7-2.4 0-.6.2-1.3.7-1.7.2 0 .2-.2 0-.7-.2-.2-.3-.3-.5-.3zm513.3 10.6.5-.5h.2c.4-.4.5-.7.8-.9s.3-.7.5-1 .3-.9.5-1.4c.3-.2-.2-.5 1-1.2v-.2c.3-.5.3-1.2 0-1.7-.5-.1-.2-.8-1.9-.3l-.9.9h-.2c-.3.2-.7.3-1 .5-.9.5-1.8.9-2.8 1.2h-.2c-1 .7-2.1 1.4-3.1 2.1-.8.7-1.6 1.3-2.3 2.1-.3-.2-.5-.2-.5-.5-.4-.9-.5-1.9-.2-2.9.5-1.4 1.1-2.4 1.4-3.3.2-.4.5-.8.9-1.2 1-.1 2-.3 3-.5.5-.1 1-.3 1.2-.3 1.3-.1 2.5-.6 3.5-1.4h.2l.1-.2c1.3-1.1 2.5-2.5 3.4-4 .4-.5.4-1.1.2-1.7-.1-.5-.5-.9-1-1v-.2c-.9 0-1.7-.2-2.6-.2l-.1.2h-1.7c-1.7.2-3.6.6-5.9.9-.2.2-.3.2-.5 0-.1 0-.3 0-.3-.2-.2-.2-.2-.4-.2-.7.2-.5.4-1 .7-1.7 2.7-.1 5.4-.6 8-1.5v-.2c1-.4 2-1.1 2.8-1.8.7-.8 1.3-1.8 1.6-2.9.2-.8 0-1.6-.5-2.2h-.2c-1.2-.3-2.4-.6-3.7-.7v.2c-2-.3-4-.4-6.1-.3-3.3-.5-8.3 2.2-12.3 1.8 1.1-1 2.1-1.9 2.8-2.6.9-.7 1.6-1.2 1.9-1.4h2.8c1.9-.4 3.6-.7 5.2-.9s3.3 0 5.8-.4c.7-.1 1.4-.4 2.1-.7.9-.2 1.7-.8 2.1-1.7 0-.2-.1-.1.2-.5 0-.2.1-.4.2-.5.2-.4.4-.7.7-1 .1-.3.3-.6.5-.9.1 0 .1-.2.3-.2-.1-.2.7-.4 0-1.6 0-.2-.2-.3-.2-.5h-3.3l-1-.3c-2.3-.2-4.7-.3-7-.1-.7.2-1.4.3-2.1.3-1 .1-2 .1-3 0-.4-.1-.7-.3-.9-.7-.1-.6-.1-1.3.2-1.9l-.2-.3c-.4-1.1-1.1-2-2.1-2.6-.9-.5-2-.3-2.6.5-.7 1.2-1.4 2.3-2.3 3.3-1 1.2-2 2.3-3.1 3.4-.7.4-1.3.9-1.9 1.4-.7.6-1.3 1.3-1.9 2.1h-.2c-.6 1-1.3 1.9-2.1 2.8-.7.7-1.4 1.4-2.3 1.9l-.2.2v.2c.3 1.5 1.2 2.7 2.6 3.3 1.4.7 3.1 1.1 4.7 1 .1 1.6-.3 3.7.2 5.5.6.9 1 2.1 3.8 1.9 1 0 2.1-.2 3-.7.4 0 .5 0 .7.2.1 0 .1.4.3.7v1.2c-1.1.5-2.4 1-4.7 2v.2c-.4.2-.8.4-1.2.5-.7.2-1.4.2-2.1 0h-.2c-1.1.3-2.1 1-2.8 1.9-.4.8-1.3 2.4-.7 4.1.4 2.1 2.2 2.5 5.2 2.6 1.1-.2 2.3-.4 3.7-.7.2.2.5-.5 1.1 0 .1.1.2-.2.6.2.2 0 .2.3.2.5-1.1 6-3.4 11.6-6.8 16.6-.4.7-.7 1.4-.9 2.2-.1.5 0 1 .2 1.5l.2.2c1.1.3 2.4.3 3.5 0 1.2-.7 2.5-1.4 3.5-2.1 1.1-.8 2.1-1.8 3.1-2.8 3.1-3.2 6.6-6 10.4-8.4.4-.6 1-1.3 1.7-2zm-321.2-11.3c-.7-.7-1.4-.7-2.3 0-1 0-1.8.7-4.2-.2-.9 0-1.9-.1-2.8-.3-1.2 0-2.3-.1-3.5-.3-.9 0-1.9-.2-2.8-.5-.9-.4-1.7-1-2.4-1.7-2.8-1.3-5.5-2.7-8.5-4.1-2.8-1.4-5.5-2.8-8.5-4-.2-.2-.2 0-.2-.2l.9-.9c.8-.3 1.5-.7 2.4-1 .8-.3 1.6-.7 2.3-1.2.6-.1 1.2-.3 1.7-.7.6-.5 1.1-1.2 1.4-1.9l.2-.3-.2-.2c-1-1.2-2.4-2-4-2.1-2 0-4 .4-5.9 1.2l-.2.1c-1.3 1.2-2.8 2.2-4.5 2.8-.4 0-.6.2-.9.2-.9.2-1.9 0-2.7-.4h-.2c-1.1-.2-2.2-.5-3.3-.9-1.3-.4-2.5-.9-3.7-1.7l-.2-.2c-1.6-.5-3.4-.5-5 0-1.4.4-2.7 1.3-3.5 2.6v.3c.2 1.2 1 2.3 2.1 2.9 1.5.8 3.2 1.3 4.9 1.5.4 0 .8.1 1.2.3l.2.2v.2c-.3.2-.6.3-1 .3l-.2.2c-.4.1-.7.2-1 .5-.3.1-.7.2-1 .3-1 .5-2.4 1-4 1.7-1.8.6-3.9 1.2-6.3 2.1-2.7 1.3-5.5 2.2-8.5 2.8-1.8.4-2.8.2-3-.5l-.2-.2c-.3-.1-.6-.3-.9-.5-.3 0-.5 0-.7.2-.2.1-.5-.1-.9.9v.2c-.5 2.7-.5 5.5 0 8.3v.2c.3 2 2.4 2.9 6.4 2.2v-.2c5.4-2.3 11.3-5.1 17-8.1 0 .2 1-.6 1.5 0 .1.2.2.5.3.7 0 3.6-.5 7.2-1.7 10.7-1.1 2.4-2.5 4-4.2 4.5h-.2c-1.7.8-3.3 1.6-4.9 2.6-1.6.9-3.1 1.8-4.7 2.8l-.2.2c-.1.2-.3.3-.3.5-.2.5-.2.9.2 1.2.3.3.6.5.9.7.8.4 1.7.6 2.6.7 1.8.2 3.5.5 5.2 1 1.9.3 3.9 0 5.7-.9 2.2-1.2 4.1-2.8 5.7-4.8.7-.6 1.3-1.5 1.6-2.4.3-.9.6-1.8.7-2.8v-.2c-.4-2.1.3-5 .7-8.9v-.7c.1-.2.2-.5.3-.7v-.2c-.4-1.4-.6-2.8-.9-4-.2-1.2-.5-2.3-.9-3.4.1-.3.3-.6.5-.9.2-.4.5-.5.9-.7l.7-.3h.2c.6-.3 1.1-.7 1.6-1l1-1c.9 0 1.6.2 2.1.2 1.2.1 2.3.4 3.3 1 1.1.5 1.9 1.6 2.1 2.9-.4.7-.7 1.4-.9 2.1-.2.8-.3 1.9-.5 2.9-.4 3.6.2 7.9-.2 13-.1 1.9-.2 3.9-.5 5.8v4c.1.8.4 1.5.7 2.2.4.5 1 .9 1.6 1 1.4-.2 2.7-.5 4-.9 4.7-3.3 2.5-13.7 2.2-19.7-.2-1.7-.2-3.3 0-5 .1-.9.4-1.8 1-2.6 3.5 2.1 6.7 4.9 9.2 8.2h.2c2.3 2.2 5 3.8 9.3 2.8 3.7-.8 7.2-4 10.2-8.3.5-.5.6-1.3.3-2l.1-.2zm-96.8 8.1c-.9.5-2 .7-3 .5-1.1-.3-2.1-.7-3-1.4-1.1-.7-2.3-1.2-3.5-1.7-1.2-.4-2.5-.7-3.8-.7-4.2-1.3-8.1-3.4-11.5-6.2-4.2-3.5-8.1-7.5-11.5-11.9v-.2c-.5-.4-.9-.9-1.2-1.5-.1-.5-.6-.5.5-.8.7-.2 1.4-.3 2.1-.2 4.9.3 11 .7 16 1.4 2.1.7 4.3.5 6.3-.5 1.8-1 2.8-2.9 3.5-5.5l.2-.2c.1-1-.2-2.1-.9-2.9-.5-.7-1.4-.8-2.6-.5h-.2c-.8.4-1.4.2-3.6-.3-3.8-.5-7.3-1.1-10.1-1.4-3-.1-5.4-.3-7.3-.3-1-.1-2-.4-2.8-1-.9-.5-1.6-1.2-2.1-2.1 0-.8-.3-1.5-.9-2.1-.6-.6-2-1.4-3.8.3-.7.5-1.2 1.3-1.4 2.2-.7 1-1.7 1.9-2.8 2.6-1.1.7-2.2 1.1-3.5 1.2-3.8 0-7.9 0-11.8 1.1-1.3.5-2.8.6-4.2.3h.1c-2.6-.7-4.4-.4-5.4 1-1.1 1.2-1.2 3.3-.7 6.2.4 8 14.1 3.6 20.9 1.3 1.3-.2 2.9-.9 4.7-.2.6.9 1.2 1.5-.3 3.4-5.2 6.8-13.2 12.2-21.8 16.8h-.2c-2.7 1.6-4.8 2.6-6.4 2.8-.5.1-1.1.1-1.6 0-.4-.1-.7-.3-.9-.7l-.3-1.2c-.3-.4-.6-.9-.9-1.4-.3-.4-.8-.4-1.2-.2-.4.1-.7.5-.7 1-.2.5-.4 1.1-.4 1.7-.2 2.3-.1 4.6.5 6.9.4 1.6 1.5 3 3 3.6 1.8.8 3.9.7 5.6-.2 2.6-.9 4.9-2.3 7-4 3.9-2.8 8.2-6.6 13.1-10.6 1.1-.8 1.6-1.4 2.1-1.7.9-.7 2-1.6 3.5-2.9.4-.1.3-.5 1.3-.1.2.1.2.5.2 1-.5 5-1.1 9.3-1.4 12.7s-.5 6-.7 7.9c.1 2.5-.3 4.8.5 7.3l.2.2c1.2.9 2.7 1.2 4.2.9 1.5-.4 2.8-1.3 3.7-2.6l.2-.3v-26.2h-.2v-1.7c.2-.3.3-.5.5-.5l.2-.2c0-.2.2-.2.5 0 .3 0 .7.4 1.2.7 5.2 3.9 9.6 10.1 14.7 17.2 7.4 9.4 15.5 5.8 23.9-3.1.3-.4.5-.8.7-1.2.2-.4.2-.8 0-1.2-.2-.9-1.1-1.1-2.5-.6zm167.9-21.3h-.2c-.8.3-1.6.3-2.4 0-.9-.4-1.8-.6-2.8-.7-.9-.2-1.7-.2-2.6 0-.9 0-1.7-.2-2.6-.2-1-.2-2.1-.3-3.1-.5-.6 0-1.3-.1-1.8-.5-.5-.3-.7-.8-.7-1.4-.7-.8-1.3-2.7-4.3-2.6-.9.3-1.7.8-2.3 1.5-.7.8-1.2 1.8-1.6 2.8-.6.2-1.1.5-1.6.7-1.6.9-3.3 1.5-5.1 1.8-2.3.5-4.7.5-7 .2-1.7.1-3.2.9-4.2 2.2-.8 1.8-1.1 3.9-.9 5.9 1.1 4.5 1.2 8.3.2 11.7-.8 3.4-2.7 6.5-5.4 8.8-1.3 1-2.6 2.1-3.7 3.3-1.1 1.1-2.2 2.3-3.1 3.6-.4.7-.5 1.2-.2 1.7.5.6.4.4 2.6.9.6.2 1.1.4 1.6.7l.2.2c1.2.1 2.4 0 3.6-.3 1.1-.3 2.1-.8 3-1.5 2.4-2.3 4.5-4.9 6.4-7.7 1.3-2.3 1.9-4.2 1.6-5.7.1-1.3.4-2.7.7-4 .1-.8.4-1.6 1-2.2.3-.5.4-1 .5-1.6.3-.9-.1-2.4.7-4.2.2-.6.6-.7.9-.9h.7c.9-.2 1.7-.4 2.6-.7l2.4-1.2c.3 0 .6 0 .9-.2v.1c.4 0 .7.1 1.1.2.6.3.7.9.9 1.9-.1 1.8-.3 3.5-.3 5.2-.1 1.2-.3 2.6-.3 4-.2 7.5-2 14.7-.6 21.5.4.5 1 .8 1.6.9.8.1 1.6 0 2.4-.2.7-.3 1.2-.8 1.6-1.4.2-.5.5-1 .9-1.4.3-.4.7-.7 1.2-.9h.2c.6-.6 1-1.4 1.2-2.2.4-1.1.6-2.2.7-3.4v-.2c-.2-1.9-.3-4.6-.5-7.7 0-3.3 0-7.1.2-11.4-.9-6.4 4.1-6.5 9.3-5.4.7.4 2.2.3 1.7 2.2v.2c.4 2.8.6 5.6.7 8.4.2 1.5.2 3.1 0 4.6-.1 1.4-.1 2.9 0 4.3 0 .8.1 1.6.4 2.4.1.5.1 1.2.3 2.1v3.6c.6 1.2 1.3 1.9 2.3 1.7.5 0 2-.6 3.5-2.1.3-.6.4-1.2.5-1.9 0-1 0-1.9-.2-2.9 0-1.7-.1-3.3-.4-5-.1-2.4-.5-5.3-1-8.9-.4-1.6-.4-3.2 0-4.8.5-2.4 1.2-4.7 2.1-6.9.3-2.3.3-4-.2-5-.7-1.2-2-1.8-3.3-1.5z" fill="#1B1918"/>
  <path d="M644.1 494.6c-.2-.4-.5-.7-.9-.9-.4-.2-1-.2-1.4 0-.6.3-1.2.4-1.9.5-.5.1-1.1 0-1.6-.2s-1.2-.2-1.7 0c-.9.1-1.8.4-2.6.7h-.2c-1.2.2-.6 1.1-3 0h-.2c-2.7-.8-5.4-1.4-8.2-1.9-2.5-.5-5-.7-7.5-.8-1.2.3-2.5.2-3.7-.3-.9-.4-1.5-1.2-1.7-2.1-.5-1.2-1.3-2.3-2.4-3.1-1.5-1-3.1-1.7-4.9-2.2-1.6-.5-2.8-.5-3.7.2-.9.7-1.6 1.7-1.9 2.8 0 .2-.1.3-.1.5-.6 1.9-2.1 3.5-4 4.3-3.2 1.8-11.2 1.3-15.6 2.2-1.6.3-3.2.7-4.7 1.4-.8.6-1.7 1.4-3.3.4h-.2c-1.2-.4-2.5-.1-3.5.7-.6.6-1 1.3-1.2 2.1v1.4c-1.3 15 22.8-.5 28.4 0 1.6-.3 3-.7 4.2-1 2.3-.5 4.7-.6 7-.4 4.3-.2 8.6.2 12.8 1.1 3.8 1 7.5 2.6 10.8 4.8 2.9 1.4 5.7 2.5 9.7 1l.2-.2c2.1-1.2 3.9-3 5-5.2v-.3c-.1-.5 0-1 .2-1.4.3-.5.7-.9 1.2-1.2h.2c.3-.3.5-.7.5-1.2.1-.5.1-1 0-1.5l-.1-.2z" fill="#1B1918"/>
</svg>
