<svg viewBox="0 0 1024 1024" xmlns="http://www.w3.org/2000/svg" height="1em" width="1em">
  <path d="M224 0h576c123.6 0 224 100.4 224 224v576c0 123.6-100.4 224-224 224H224C100.4 1024 0 923.6 0 800V224C0 100.4 100.4 0 224 0z" fill="#FFF"/>
  <path d="M484 476h56V194c0-12 10-22 22-22h32.4c12 0 22 10 22 22v282h60V194c0-12 10-22 22-22h32.4c12 0 22 10 22 22v282h78c12 0 22 10 22 22v32.4c0 12-10 22-22 22H752v278c0 12-10 22-22 22h-32.4c-12 0-22-10-22-22V552h-60v278c0 12-10 22-22 22h-32.4c-12 0-22-10-22-22V552h-56v278c0 12-10 22-22 22h-32.4c-12 0-22-10-22-22V552H348v278c0 12-10 22-22 22h-32.4c-12 0-22-10-22-22V552H194c-12 0-22-10-22-22v-32.4c0-12 10-22 22-22h78V194c0-12 10-22 22-22h32.4c12 0 22 10 22 22v282h60V194c0-12 10-22 22-22h32.4c12 0 22 10 22 22v282z" fill="#E50113"/>
</svg>
