<svg viewBox="0 0 1024 1024" xmlns="http://www.w3.org/2000/svg" height="1em" width="1em">
  <path d="M296.403 538.664c-3.331-4.668-5.117-9.964-6.16-15.449-6.356-33.085 17.212-63.862 50.835-67.352 27.5-2.866 55.89 14.512 62.824 43.551 7.652 32.021-14.585 64.158-47.248 68.364-12.039 1.557-23.178-.818-33.622-6.665-15.802-8.853-23.603-25.765-20.417-43.58 1.62-9.047 4.473-17.372 11.207-24.058 9.627-9.557 29.858-12.676 41.522-2.016.177.164.435.239.751.18-2.452-3.316-5.731-5.413-9.645-6.801-5.381-1.883-7.208-6.018-4.53-11.079 1.986 4.796 6.34 6.25 10.195 8.425 6.958 3.904 9.136 8.158 8.201 16.221-4.069-3.48-8.801-4.538-13.74-4.992-12.438-1.12-22.835 6.873-24.203 18.72-1.043 8.891 5.49 18.834 15.142 23.045 13.534 5.925 30.519-1.045 37.594-15.406 9.805-19.976-4.29-45.955-26.674-48.65-19.304-2.316-33.704 6.27-44.142 21.802-9.143 13.566-10.89 28.75-8.092 44.643.066.366.14.725.202 1.097zm41.242-23.597c0-2.313-.043-4.633.016-6.97.05-3.297 1.898-5.293 5.147-5.368a373.685 373.685 0 0 1 14.837 0c2.925.057 4.932 2.048 4.98 4.971.119 5.015.118 10.055.018 15.093-.057 2.82-1.923 4.806-4.748 4.875a332.85 332.85 0 0 1-15.694-.028c-2.648-.072-4.416-2.027-4.534-4.722-.09-2.617-.006-5.232-.006-7.851h-.016z" fill="#D31219"/>
  <path d="M425.443 488.133v-7.487h59.708v7.487h-26.415c-.214 3.167-.61 7.653-1.21 13.433 0-.384-.099 0-.305 1.208h32.998v7.757h-34.173c-.19.395-.306.81-.306 1.203h8.03v20.613c-.205 4.17 1.687 6.171 5.652 5.963h6.235c3.564.208 5.653-1.682 6.228-5.687.206-1.583.519-4.586.906-8.948 2.963 1.204 5.627 2.08 8.02 2.671-.592 4.795-1.084 8.485-1.488 11.054-1.185 5.389-5.25 7.972-12.184 7.782h-10.408c-7.732.19-11.476-3.278-11.262-10.454V512.32c-3.397 14.56-13.393 26.312-30.028 35.235-.6-.596-1.596-1.667-2.97-3.286-1.38-1.582-2.386-2.79-2.97-3.573 16.052-7.962 25.258-18.024 27.618-30.165h-27.033v-7.757h28.522c.81-4.612 1.292-9.475 1.498-14.64h-24.663zm105.52 13.675h23.238v-5.952h-23.238v5.952zm0-11.058h23.238v-5.68h-23.238v5.68zm-7.16 17.04v-28.705h37.556v28.705h-37.556zm-3.571 20.057a45.48 45.48 0 0 0-2.088-2.99c-1.179-1.208-1.972-2.107-2.358-2.684l1.765-1.234h-6.854v14.083l7.168-4.78c0 2.772.196 5.073.584 6.857 7.54-4.582 12.818-10.457 15.787-17.63h-5.648c-2.986 3.571-5.759 6.387-8.356 8.378zm-21.15-23.631c-.584-1.207-1.485-2.82-2.673-4.8-.593-.987-.989-1.678-1.196-2.086 3.952-6.178 6.946-13.347 8.925-21.526l7.457 1.18c-.808 3.005-1.691 5.698-2.672 8.086h10.724v6.585h-13.413c-.388.795-.982 1.99-1.774 3.578-1.006 1.8-1.683 3.085-2.088 3.902h15.179v6.555h-6.854v8.696h7.753v5.97c3.77-2.796 7.152-6.88 10.137-12.26l7.152.616c-.8 1.781-1.7 3.366-2.69 4.764l32.155-.002-.002 1.194c-.363 10.585-.792 17.849-1.179 21.838 0 6.388-3.168 9.576-9.51 9.576h-8.06c0-.406-.083-.987-.297-1.816-.19-2.167-.495-3.874-.89-5.082a89.882 89.882 0 0 0 7.447.305c2.766.185 4.258-1.09 4.464-3.88.404-2.595.783-7.389 1.204-14.354v-1.786H553.3c-2.376 12.363-8.546 21.723-18.452 28.086-.214-.186-.612-.597-1.212-1.198-1.569-1.568-2.763-2.76-3.564-3.573 8.72-5.169 14.294-12.961 16.694-23.315h-5.36c-4.19 10.773-10.946 18.721-20.267 23.926-1.6-2.004-3.077-3.587-4.472-4.772-2.39 1.184-4.957 2.69-7.744 4.466-1.196.795-2.385 1.795-3.581 2.993l-3.885-5.69c1.6-1.598 2.393-3.776 2.393-6.577v-12.876h-8.034v-6.553h8.035v-8.696h-3.86v-2.376c-.207.195-.497.505-.91.902zm139.872 37.822c-18.264-8.73-29.763-21.249-34.543-37.504-2.364 4.754-5.539 9.238-9.536 13.39h3.288v18.457c.792-.398 2.77-1.186 5.967-2.381 4.937-1.775 8.408-3.076 10.41-3.855.208.981.297 2.356.297 4.148.207 1.796.296 3.192.296 4.194-5.165 1.35-11.109 3.46-17.843 6.233-2.414.998-4.295 2.064-5.67 3.275l-4.773-6.83c2.39-1.42 3.487-3.906 3.297-7.463V522.69c-4.369 3.779-9.636 7.617-15.785 11.604-1.003-2.371-2.283-4.933-3.873-7.731 15.892-9.133 26.102-20.334 30.66-33.645H583.89v10.707h-8.027v-18.16h27.372c.79-3.173 1.284-6.237 1.498-9.22h8.63c-.206 1.004-.511 2.487-.907 4.468-.394 2.2-.71 3.774-.89 4.753l28.263-.001v15.794h-8.028v-8.341h-22.318c-.182.194-.29.402-.29.593-.199.396-.305.722-.305.884 2.58 8.365 5.257 14.796 8.036 19.378 3.966-2.597 8.926-6.06 14.876-10.43l5.671 5.945c-2.397 1.78-6.643 4.675-12.792 8.636-1.409 1-2.49 1.7-3.289 2.087 5.342 5.77 12.892 10.81 22.608 15.185a64.49 64.49 0 0 1-2.382 2.972c-1.383 1.779-2.282 3.076-2.661 3.87zm51.038-17.446c-.403-.797-.881-1.789-1.457-2.967-3.185-5.995-5.768-10.658-7.783-14.044l6.574-3.27c3.365 5.16 6.631 10.743 9.815 16.686l-7.149 3.595zm-9.798-26.551v-7.763h22.296v-14.034h8.302v14.034h8.918v7.763h-8.92v36.397c.397 7.763-3.348 11.647-11.288 11.647h-5.635c-2.583.208-4.55.275-5.949.275a67.134 67.134 0 0 0-.897-3.87 111.511 111.511 0 0 0-.89-3.848c1.59.17 4.946.272 10.105.272 4.362 0 6.45-2.183 6.254-6.549v-34.324h-22.296zm-31.21-.602v-7.447h10.41v-13.748h7.748v13.748h9.793v7.447h-9.793v11.636l2.938-2.68c3.58 4.18 7.043 7.952 10.432 11.343l-5.676 5.065c-.781-.799-1.893-2.085-3.25-3.866-1.999-2.39-3.464-4.086-4.444-5.07v33.688h-7.749v-33.689a92.242 92.242 0 0 1-9.513 17.293c-.986-4.987-1.793-8.555-2.361-10.742 4.747-6.361 8.581-14.023 11.585-22.978h-10.12zm103.174 34.766h15.507v-9.27h-15.507v9.27zm-16.1-27.181v11.056c5.146-2.995 10.416-6.651 15.794-11.056l4.775 4.77a52.682 52.682 0 0 0-2.38 1.822c-3.178 2.57-5.682 4.386-7.46 5.377h26.85c-.999-.605-2.685-1.726-5.08-3.287-2.371-1.6-4.255-2.897-5.651-3.912l4.463-4.77c4.385 2.824 9.754 6.28 16.116 10.448v-10.448h-47.428zm3.544 16.73a938.095 938.095 0 0 1-2.363-3.601c-.578-.781-1-1.373-1.183-1.765l.001 30.727h-7.78v-48.34h17.313c-2.197-2.964-3.882-5.468-5.08-7.46l7.47-1.48c1.578 1.604 3.484 4.169 5.682 7.747.174.393.38.685.585.901l-2.09.293h12.816c1.429-1.589 3.187-4.17 5.376-7.771a9.993 9.993 0 0 0 .9-1.491h-47.136v-6.256h32.516c-.19-.591-.495-1.498-.901-2.692-.593-1.78-1.099-3.071-1.479-3.863l9.261-.899c.182.59.462 1.59.876 2.982.588 1.987.999 3.46 1.205 4.472h29.832v6.256h-23.866l7.442 1.8c-.396.804-1.182 1.993-2.378 3.57a132.82 132.82 0 0 1-2.695 3.892h17.325v37.593c.18 6.569-2.983 9.76-9.567 9.554h-4.75c-2.222.208-3.997.276-5.378.276-.2-.565-.406-1.377-.604-2.358-.403-1.978-.801-3.595-1.199-4.8h8.949c3.596.214 5.187-1.078 4.783-3.86v-18.793l-3.287 5.078-5.958-4.191v20.883h-28.946v-20.004l-5.692 3.6zm118.574 1.868-7.448-3.28c2.985-6.352 7.025-16.397 12.204-30.096l7.439 2.678c-4.74 12.325-8.823 22.536-12.196 30.698zm-44.976 0c-3.761-11.14-7.44-21.466-11.02-30.963l7.144-2.413c5.155 13.308 8.93 23.554 11.329 30.677l-7.453 2.699zm-12.495 19.97v-7.45h21.425v-59.018h8.353v59.017h11.308v-59.017h8.054v59.017h21.73v7.452h-70.87zm111.825-34.381h22.96v-8.345h-22.96v8.345zm0-14.93h22.96v-8.339h-22.96v8.338zm31.919 51.642c-13.939-5.787-22.582-15.717-25.976-29.841l-5.944-.002v21.17c.983-.4 2.467-.985 4.465-1.775a171.798 171.798 0 0 1 7.753-2.995c0 2.817.09 5.2.298 7.183-1.99.767-5.061 1.992-9.24 3.58-1.609.403-2.782.786-3.566 1.175-2.013.997-3.782 1.905-5.366 2.697l-4.186-5.95c1.775-1.635 2.574-3.588 2.385-5.984v-56.103h37.56v37.002h-16.966c1.164 3.77 2.674 7.066 4.449 9.842 4.395-2.591 8.463-5.362 12.229-8.342l4.475 5.96a26.86 26.86 0 0 0-2.082 1.207c-4.4 2.577-7.867 4.585-10.443 5.952 3.576 3.39 8.338 6.059 14.316 8.054a92.316 92.316 0 0 1-1.792 3.287c-1.171 1.606-1.998 2.899-2.367 3.883zm-64.733-42.085a90.635 90.635 0 0 0-4.179-6.852c4.179-5.981 7.573-13.022 10.141-21.182l7.472 1.178c0 .207-.116.59-.307 1.181-1.195 3.41-2.295 5.882-3.287 7.473l11.933-.001v6.58h-14.896c-.601 1.18-1.511 2.774-2.682 4.77-.612 1.192-1.132 2.097-1.512 2.68h17.3v6.284h-7.746v9.23h9.23v6.574h-9.23v14.324a108.048 108.048 0 0 0 8.941-5.38c0 2.79.2 5.381.595 7.783-3.774 1.574-7.571 3.56-11.335 5.938-.595.215-1.397.702-2.388 1.505-.387.4-.702.697-.891.874l-4.17-5.946c1.585-1.596 2.27-3.6 2.089-5.962l.002-13.136h-8.637v-6.573h8.637v-9.231h-5.08v-2.111zm103.894-15.487v-7.472h37.454v7.473H983.61zm-3.571 22.435v-7.777h44.283v7.777h-12.178v24.236c.181 7.375-3.481 11.06-10.985 11.06h-12.202c-.574-2.39-1.184-4.89-1.768-7.459 2.18.17 5.742.272 10.703.272 4.156 0 6.139-1.796 5.942-5.385v-22.724h-23.795zm-23.168-8.978c-1.376-3.58-2.569-6.17-3.555-7.762 7.133-5.588 13.072-11.676 17.845-18.243l6.806 4.774c-7.126 8.387-14.17 15.46-21.096 21.231zm-2.09 24.834c-.397-1.389-1.086-3.389-2.067-5.981-.205-.8-.412-1.393-.584-1.787 6.92-5.777 13.453-13.466 19.599-23.017l6.542 4.461c-1.39 2.41-3.647 5.583-6.838 9.553-.19.195-.387.428-.593.622v37.062h-8.004v-28.398c-2.386 2.593-5.054 5.08-8.055 7.485z" fill="#29241B"/>
  <path d="M29.157 548.434H14.98L0 484.167h13.287l9.539 44.161 11.592-44.16h15.336l11.234 44.88 9.718-44.88h12.93L68.3 548.433H54.48l-12.572-48.02-12.75 48.021zm74.504 0H90.679v-64.267h27.22c6.893 0 11.91.539 14.953 1.707 3.134 1.165 5.643 3.23 7.52 6.193 1.882 2.962 2.778 6.282 2.778 10.143 0 4.757-1.432 8.796-4.209 11.938-2.865 3.14-7.073 5.115-12.626 5.923 2.777 1.616 5.017 3.41 6.896 5.385 1.79 1.975 4.21 5.476 7.343 10.413l7.79 12.566h-15.492l-9.223-14.002c-3.402-5.026-5.64-8.169-6.894-9.425-1.254-1.346-2.508-2.245-3.94-2.693-1.343-.45-3.492-.717-6.536-.717h-2.597v26.837zm0-53.406v16.337h9.58c6.18 0 10.12-.27 11.642-.808 1.522-.54 2.777-1.436 3.582-2.693.895-1.257 1.343-2.874 1.343-4.846 0-2.155-.537-3.95-1.701-5.207-1.164-1.347-2.774-2.245-4.925-2.603-.985-.09-4.207-.18-9.402-.18h-10.12zm87.073 39.846h-.002c2.508-2.152 4.3-5.652 5.376-10.316l12.542 3.858c-1.882 7.086-5.106 12.288-9.586 15.788-4.48 3.408-10.212 5.112-17.113 5.112-8.51 0-15.497-2.96-20.963-8.79-5.465-5.832-8.242-13.725-8.242-23.862 0-10.675 2.777-19.017 8.242-24.936 5.554-5.921 12.812-8.882 21.77-8.882 7.885 0 14.247 2.333 19.172 6.997 2.867 2.782 5.108 6.727 6.541 11.84l-12.812 3.051c-.716-3.32-2.33-5.92-4.747-7.893-2.42-1.884-5.375-2.872-8.782-2.871-4.747 0-8.598 1.704-11.557 5.113-2.957 3.408-4.476 8.968-4.478 16.594 0 8.164 1.434 13.904 4.39 17.314 2.957 3.498 6.719 5.202 11.377 5.202 3.494 0 6.45-1.077 8.872-3.32zm28.921 13.561v-64.267h25.597c5.104 0 8.862.179 11.368.628 2.507.45 4.746 1.347 6.713 2.693 1.97 1.257 3.582 3.052 4.924 5.296 1.343 2.244 1.968 4.756 1.968 7.54 0 2.962-.804 5.744-2.416 8.257s-3.849 4.398-6.534 5.655c3.85 1.078 6.893 3.05 8.95 5.834 2.06 2.692 3.133 6.014 3.133 9.695 0 2.962-.715 5.744-2.059 8.526-1.343 2.783-3.22 5.025-5.549 6.643-2.327 1.705-5.19 2.692-8.682 3.05-2.148.27-7.34.36-15.573.45h-21.84zm20.407-53.586h-7.43v14.81h8.504c5.012 0 8.146-.09 9.398-.18 2.148-.27 3.937-1.076 5.191-2.333 1.253-1.256 1.881-2.961 1.88-5.026 0-1.974-.536-3.592-1.611-4.847-1.075-1.168-2.773-1.976-4.924-2.244-1.252-.09-4.92-.18-11.008-.18zm3.042 25.49h-10.471v17.234l11.994.002c4.654 0 7.61-.09 8.861-.36 1.97-.36 3.492-1.256 4.745-2.603 1.164-1.346 1.791-3.23 1.79-5.475 0-1.974-.447-3.591-1.434-4.937-.895-1.346-2.235-2.335-4.027-2.962-1.79-.628-5.55-.9-11.457-.9z" fill="#1B1918"/>
</svg>
