<svg viewBox="0 0 1024 1024" version="1.1" xmlns="http://www.w3.org/2000/svg" height="1em" width="1em">
  <path d="M224 0h576c123.6 0 224 100.4 224 224v576c0 123.6-100.4 224-224 224H224c-123.6 0-224-100.4-224-224V224C0 100.4 100.4 0 224 0z" fill="#FFFFFF"/>
  <path d="M482.8 488.8c19.6-29.2 43.2-2 45.2-29.2h-16c-16.4 0-35.6 29.6-42 42 11.6-2.8 15.2-6.4 29.2-6.4 24.4 0 39.6 9.6 52 9.6h3.2c20 0 37.2-11.2 38.8-29.2-5.2 2.8-14.8 9.6-19.6 9.6h-3.2l-51.6-7.2c-8 0-28.4 9.2-36 10.8M172 514.8v6.4c0 100.4 51.6 187.6 104.4 236 66 60 124 94.8 248.8 94.8 138.8 0 278.4-111.2 314.8-240.4 14.8-52.8 16.8-131.2 1.6-184-8-28-20.8-57.6-28-71.6-16.8-32.8-38.8-59.6-64-85.2-30.4-30.4-92.8-72.4-154.4-88.8-46.4-12.8-113.6-12.8-160.4-2-69.6 16-134 65.2-171.2 102.4C213.2 332.4 172 415.2 172 514.8m233.2-191.2c0-29.6 22-55.2 48.4-55.2h12.8c20.8 0 24.8 6.4 45.2 6.4 20.8 0 24.8-6.4 45.2-6.4h16c18.4 0 45.2 23.6 45.2 42v16.4c0 28-11.2 37.2-16.4 58.4 16.8-11.2 45.6-38.8 71.2-38.8 29.2 0 54.4 27.2 55.2 58.4 0.8 43.2 29.2 64.4 29.2 84.4v22.8c0 49.6-51.2 45.2-100.4 45.2 10.8 14.8 58.4 31.2 58.4 64.8v12.8c0 44.4-36.8 45.2-63.6 62.8-26.4 17.6-36 49.6-75.6 50.4 6.8-25.6 22.8-34.4 22.8-77.6v-32.4c0-54.4-50.8-126.4-103.6-126.4h-19.6c-12.8 0-21.6 1.6-29.2 6.4 45.2 0 74.4 37.6 74.4 81.2v32.4c0 39.2-48.8 113.6-84.4 113.6h-3.2c-23.6 0-41.2-28.8-56-41.2-19.2-16.4-43.2-19.6-60-37.2-58.8-61.2 40-97.6 51.2-113.6l-45.2 4c-28.8 2.8-61.6-24.4-61.6-52 0-36.8 21.6-47.6 29.6-87.2 6-30.4 11.2-71.6 48.4-71.6h16c25.6 0 51.6 31.2 68 42-3.2-18.4-18.4-38-18.4-64.8" fill="#BE3338"/>
</svg>
