<svg viewBox="0 0 1024 1024" xmlns="http://www.w3.org/2000/svg" height="1em" width="1em">
  <path d="M224 0h576c123.6 0 224 100.4 224 224v576c0 123.6-100.4 224-224 224H224C100.4 1024 0 923.6 0 800V224C0 100.4 100.4 0 224 0z" fill="#FFF"/>
  <path d="M822.4 440.8c40 40.4 39.6 105.6-.8 145.6l-238.4 236c-40.4 40-105.6 39.6-145.6-.8l-236-238.4c-40-40.4-39.6-105.6.8-145.6l238.4-236c40.4-40 105.6-39.6 145.6.8l236 238.4zM546 449.6c-3.2-.4-6.4-.4-9.2.4-2.4.4-5.2 4.4-7.6 6.8-8 7.2-22.4 20.8-22.4 20.8l-37.2-34.8 35.6-34.8s15.6 14.8 23.6 22c2.8 2.4 5.6 6.4 8.4 7.2 2.4.8 5.6.8 8.4.8h26c-3.2-32.4-30.4-58-64-58-35.2 0-64 28.8-64 64s28.8 64 64 64c33.2 0 60.8-25.6 64-58-3.2 0-24.8 0-25.6-.4zm156.4 34c-37.6-48-75.2-96.4-112.8-143.6-4.4 2.8-10 8-14.8 11.6 8.4 11.2 17.2 22.8 25.6 34.8 8.4 11.6 18.8 23.6 23.6 37.2 4 12 2.8 24.4-2.8 34.8-4.4 8.4-12.4 16-19.2 24-14 16-27.2 31.6-40.4 47.6-10.8 13.2-24.8 24.4-28.4 44-3.6 16.8 4 32 9.6 41.6 9.2 16 23.2 31.6 35.6 46 2.4 2.8 11.2 12.4 12.8 14h85.6c-2-2.4-11.2-13.6-16.4-19.6-5.6-6.8-11.2-13.6-14.8-20.8-7.2-14.4-3.6-32 3.2-42.8 8.4-13.6 22-28 33.2-40.8 8-9.2 24.4-31.6 24.4-31.6s0-.4.4-.4c7.6-12.4 7.6-20.4-4.4-36zm-384.8 0c-12 15.6-12.4 23.6-4 36l.4.4s16.4 22.4 24.4 31.6c11.6 13.2 24.8 27.2 33.2 40.8 6.8 10.8 10.4 28.4 3.2 42.8-3.6 7.2-9.2 14.4-14.8 20.8-5.2 6-14.4 17.2-16 19.6h86c1.2-1.6 10.4-11.6 12.8-14 12.4-14.4 26-30 35.6-46 5.6-9.6 13.2-24.8 9.6-41.6-4-19.6-18-30.8-28.4-44-13.2-16-26.4-31.2-40.4-47.6-6.8-8-14.8-15.6-19.2-24-5.6-10.4-6.8-22.8-2.8-34.8 4.8-14 14.8-25.6 23.6-37.2 8.8-12 17.2-23.6 25.6-34.8-4.8-4-10.4-8.8-14.8-11.6-38.8 47.2-76 95.6-114 143.6z" fill="#D20016"/>
</svg>
