<svg viewBox="0 0 1024 1024" xmlns="http://www.w3.org/2000/svg" height="1em" width="1em">
  <path d="M224 0h576c123.6 0 224 100.4 224 224v576c0 123.6-100.4 224-224 224H224C100.4 1024 0 923.6 0 800V224C0 100.4 100.4 0 224 0z" fill="#FFF"/>
  <path d="M566 213.2C728 239.2 852 382 852 554c0 190.4-152.4 345.2-340 345.2S172 744.4 172 554c0-172.4 124.8-315.6 287.6-341.2-4 3.6-8.4 7.6-13.2 11.2C249.2 395.6 258 538.8 285.2 636.4c27.2 97.6 146 178.4 235.6 167.6 90-10.8 176-48.8 220.4-169.6 44.4-120.8-22.4-240-62.8-292.4-30-38.8-85.6-100-112.4-128.8" fill="#0088C2"/>
  <path d="M467.6 344c-10.8 0-19.6 8.8-19.6 19.6V452c-8.8-.4-18.4-1.2-28.8-3.6-2-.4-3.6 0-5.6 0-16.4 0-30 13.6-30 30v286.8l93.2 70.4V660.8c0-20.4 16.8-37.2 37.2-37.2 20.4 0 37.2 16.8 37.2 37.2V836l94.4-70V478.4c0-16.4-13.6-30-30-30-2 0-4-.4-6.4 0-10.8 1.6-20 2.4-28 2.8v-87.6c0-10.8-8.8-19.6-19.6-19.6h-94z" fill="#E50E1B"/>
  <path d="M256.8 175.2c32.4 28.4 75.6 50 75.6 50 98 60.4 150.8 35.2 146 10.4-2.8-14-24.4-28.4-67.2-26.8-116.8 3.6-195.2-79.2-196.8-80.8 1.6 1.6 10.4 18.8 42.4 47.2" fill="#009BCE"/>
</svg>
