<svg viewBox="0 0 1024 1024" xmlns="http://www.w3.org/2000/svg" height="1em" width="1em">
  <path d="M225.12 0h573.76c123.118 0 223.128 100.01 223.128 223.128v573.76c0 123.118-100.01 223.128-223.129 223.128H225.121c-123.12 0-223.129-100.01-223.129-223.129V223.128C1.992 100.01 102.002 0 225.121 0z" fill="#FFF"/>
  <path d="M316.763 730.347c0 72.517 49.805 122.322 122.322 122.322H588.5c72.915 0 122.322-49.805 122.322-122.322H438.686V458.21H316.763v272.137zm415.576-21.117c72.517 0 122.322-49.806 122.322-122.323V437.491c0-72.915-49.805-122.322-122.322-122.322v272.137H460.202V709.23H732.34zm-21.117-415.577c0-72.517-49.806-122.322-122.322-122.322H439.483c-72.915 0-122.72 49.805-122.72 122.322H588.9V565.79h122.322V293.653zM295.645 314.77c-72.517 0-122.322 49.806-122.322 122.323v149.416c0 72.915 49.805 122.322 122.322 122.322V436.694h272.137V314.77H295.645z" fill="#C00220"/>
</svg>
