<svg xmlns="http://www.w3.org/2000/svg" width="15" height="15"><path d="M2.998 3.069s.188-1.062 1-1.062h1.006v-.28a.5.5 0 0 1 .5-.5h3.984a.5.5 0 0 1 .5.5v.28h1.01a.832.832 0 0 1 .638.293 1.759 1.759 0 0 1 .362.769s.311 1.572.592 2.918h-.938L11 3l-7.018-.004-.648 2.99h-.952Zm11 4.914a1 1 0 0 1-.999 1l-1 3.973s-.188 1.042-1 1.042h-7c-.813 0-1-1.042-1-1.042L1.981 8.98a.999.999 0 0 1 .016-1.997h11a1 1 0 0 1 1 1ZM5.033 12.13l-.003-1.125-.39-1.536a.537.537 0 1 0-1.066.144l.206 1.395.187 1.267a.537.537 0 1 0 1.066-.145Zm2-2.597A.533.533 0 0 0 6.499 9h-.01a.5.5 0 0 0-.358.15.529.529 0 0 0-.165.384v2.68a.533.533 0 1 0 1.067 0Zm1.998 0a.531.531 0 0 0-.337-.493.5.5 0 0 0-.393 0 .531.531 0 0 0-.337.493v2.68a.533.533 0 1 0 1.067 0Zm2.385.08a.537.537 0 1 0-1.065-.144l-.391 1.525-.002 1.136a.537.537 0 1 0 1.065.145Z"/></svg>