<svg xmlns="http://www.w3.org/2000/svg" viewBox="0 0 24 24">
  <path class="cls-2" d="M12 2a10 10 0 1 0 10 10A10 10 0 0 0 12 2Zm0 18a8 8 0 1 1 8-8 8 8 0 0 1-8 8Z"/>
  <path class="cls-2" d="M10.52 11.78a1.4 1.4 0 0 0 1.12-1.43c0-1-.77-1.6-1.94-1.6H7v6.5h2.7c1.3-.05 2.3-.72 2.3-1.88a1.52 1.52 0 0 0-1.48-1.59ZM8.26 9.67h1.15c.6 0 .95.32.95.85s-.38.89-1.25.89h-.85Zm1 4.57h-1V12.3h1.23c.75 0 1.17.38 1.17 1s-.42.94-1.44.94Z"/>
  <path class="cls-2" d="M14.75 10.3a2.11 2.11 0 0 0-2.28 2.25V13a2.15 2.15 0 0 0 2.34 2.31A2 2 0 0 0 17 13.75h-1.21a.9.9 0 0 1-1 .63 1.07 1.07 0 0 1-1.09-1.19v-.14H17v-.47a2.12 2.12 0 0 0-2.25-2.28Zm1 2h-2.02a1 1 0 0 1 1-1.09 1 1 0 0 1 1 1.09Z"/>
  <rect class="cls-2" x="13.25" y="9.2" width="3" height="0.5"/>
</svg>
