<svg xmlns="http://www.w3.org/2000/svg" viewBox="0 0 24 24">
  <g id="Layer_2">
    <g id="pantone">
      <path d="M20 13.18h-4.06l2.3-2.47a1 1 0 0 0 0-1.41l-4.19-3.86a.93.93 0 0 0-.71-.26 1 1 0 0 0-.7.31l-1.82 2V4a1 1 0 0 0-1-1H4a1 1 0 0 0-1 1v13.09A3.91 3.91 0 0 0 6.91 21H20a1 1 0 0 0 1-1v-5.82a1 1 0 0 0-1-1Zm-6.58-5.59 2.67 2.49-5.27 5.66v-5.36ZM8.82 10v3H5v-3Zm0-5v3H5V5ZM5 17.09V15h3.82v2.09a1.91 1.91 0 0 1-3.82 0ZM19 19h-8.49l3.56-3.82H19Z" style="fill:#231f20" id="pantone-2"/>
    </g>
  </g>
</svg>
