<svg viewBox="0 0 16 16" fill="none" xmlns="http://www.w3.org/2000/svg" height="1em" width="1em">
  <g clip-path="url(#a)" fill="#424242">
    <path d="m7.294 9.006-.88.88A2.484 2.484 0 0 0 4 8a2.488 2.488 0 0 0-2.413 1.886l-.88-.88L0 9.712l1.147 1.146-.147.146v1H0v.999h1v.053a3.9 3.9 0 0 0 .274.946L0 15.294.707 16l1.1-1.099A2.873 2.873 0 0 0 4 16a2.875 2.875 0 0 0 2.194-1.099L7.294 16 8 15.294l-1.273-1.292A3.92 3.92 0 0 0 7 13.036v-.067h1v-.965H7v-1l-.146-.146L8 9.712l-.706-.706ZM4 9.006a1.5 1.5 0 0 1 1.5 1.499h-3A1.498 1.498 0 0 1 4 9.006Zm2 3.997A2.217 2.217 0 0 1 4 15a2.22 2.22 0 0 1-2-1.998v-1.499h4v1.499Z"/>
    <path fill-rule="evenodd" clip-rule="evenodd" d="M6 7V2l8.915 6.24L9 12.38v-1.215l4.181-2.925-6.186-4.328V7H6Z"/>
  </g>
  <defs>
    <clipPath id="a">
      <path fill="#fff" d="M0 0h16v16H0z"/>
    </clipPath>
  </defs>
</svg>
