<svg viewBox="0 0 16 16" fill="none" xmlns="http://www.w3.org/2000/svg" height="1em" width="1em">
  <path d="M7.55 10.078a4.9 4.9 0 0 1 1.257.725c.378.3.702.65.97 1.046a4.826 4.826 0 0 1 .848 2.714V15H9.75v-.438a3.894 3.894 0 0 0-1.155-2.782 4.054 4.054 0 0 0-1.251-.84 3.898 3.898 0 0 0-1.531-.315A3.894 3.894 0 0 0 3.03 11.78c-.356.36-.636.777-.841 1.251a3.91 3.91 0 0 0-.315 1.531V15H1v-.438a4.724 4.724 0 0 1 .848-2.713 4.918 4.918 0 0 1 2.229-1.77 2.994 2.994 0 0 1-.554-.493 3.156 3.156 0 0 1-.417-.602 2.942 2.942 0 0 1-.26-.683 3.345 3.345 0 0 1-.096-.739c0-.423.08-.82.24-1.189a3.095 3.095 0 0 1 1.626-1.627 3.067 3.067 0 0 1 2.386-.007A3.095 3.095 0 0 1 8.63 6.366a3.067 3.067 0 0 1 .157 1.928 2.93 2.93 0 0 1-.266.684 3.506 3.506 0 0 1-.417.608 2.75 2.75 0 0 1-.554.492ZM5.812 9.75c.3 0 .583-.057.847-.17a2.194 2.194 0 0 0 1.163-1.163C7.94 8.148 8 7.863 8 7.563a2.138 2.138 0 0 0-.643-1.538 2.383 2.383 0 0 0-.697-.472 2.048 2.048 0 0 0-.847-.178c-.301 0-.584.057-.848.17a2.218 2.218 0 0 0-1.169 1.17c-.114.264-.17.547-.17.848 0 .3.056.583.17.847.114.264.269.497.465.697a2.168 2.168 0 0 0 1.552.643ZM15 1v7h-1.75l-2.625 2.625V8H9.75v-.875h1.75v1.388l1.388-1.388h1.237v-5.25h-8.75v1.572a7.256 7.256 0 0 0-.437.069 2.62 2.62 0 0 0-.438.123V1H15Z" fill="#424242"/>
</svg>
