<svg viewBox="0 0 16 16" fill="none" xmlns="http://www.w3.org/2000/svg" height="1em" width="1em">
  <path fill-rule="evenodd" clip-rule="evenodd" d="m10.57 1.14 3.28 3.3.15.36v9.7l-.5.5h-11l-.5-.5v-13l.5-.5h7.72l.35.14ZM3 2v12h10V5l-3-3H3Zm1.46 4.052c0 1.287.458 1.93 1.375 1.93.456 0 .806-.173 1.05-.52.245-.348.368-.847.368-1.499C7.253 4.654 6.805 4 5.91 4c-.471 0-.83.175-1.08.526-.247.35-.37.858-.37 1.526Zm.862-.022c0-.922.183-1.383.55-1.383.344 0 .516.448.516 1.343s-.176 1.343-.526 1.343c-.36 0-.54-.434-.54-1.303Zm3.187 1.886h2.436v-.672h-.793V4l-1.665.336v.687l.82-.177v2.398h-.798v.672Zm-1.337 5H4.736v-.672h.798V9.846l-.82.177v-.687L6.38 9v3.244h.792v.671Zm1.035-1.931c0 1.287.459 1.93 1.375 1.93.457 0 .807-.173 1.05-.52.246-.348.368-.847.368-1.499 0-1.309-.447-1.963-1.343-1.963-.47 0-.83.175-1.08.526-.246.35-.37.858-.37 1.526Zm.862-.022c0-.922.184-1.383.55-1.383.345 0 .517.448.517 1.343s-.176 1.343-.527 1.343c-.36 0-.54-.434-.54-1.303Z" fill="#424242"/>
</svg>
