<svg viewBox="0 0 16 16" fill="none" xmlns="http://www.w3.org/2000/svg" height="1em" width="1em">
  <path d="M13.273 7.73a2.51 2.51 0 0 0-3.158-.31 2.5 2.5 0 0 0-.922 1.12c-.058.142-.102.29-.13.44a4.52 4.52 0 0 1-4-4 2.23 2.23 0 0 0 .44-.13 2.5 2.5 0 0 0 1.54-2.31 2.45 2.45 0 0 0-.19-1A2.48 2.48 0 0 0 5.503.19a2.45 2.45 0 0 0-1-.19 2.5 2.5 0 0 0-2.31 1.54 2.52 2.52 0 0 0 .54 2.73c.35.343.791.579 1.27.68v5.1a2.411 2.411 0 0 0-.89.37 2.57 2.57 0 0 0-.92 1.12 2.5 2.5 0 0 0 4.39 2.349 2.5 2.5 0 0 0 .42-1.388 2.45 2.45 0 0 0-.19-1 2.48 2.48 0 0 0-1.81-1.49v-2.4a5.52 5.52 0 0 0 2 1.73 5.65 5.65 0 0 0 2.09.6 2.5 2.5 0 0 0 4.95-.49 2.51 2.51 0 0 0-.77-1.72Zm-8.2 3.38c.276.117.512.312.68.56a1.5 1.5 0 0 1-2.08 2.08 1.55 1.55 0 0 1-.56-.68 1.49 1.49 0 0 1-.08-.86 1.49 1.49 0 0 1 1.18-1.18 1.49 1.49 0 0 1 .86.08ZM4.503 4a1.5 1.5 0 0 1-1.39-.93 1.49 1.49 0 0 1-.08-.86 1.49 1.49 0 0 1 1.18-1.18 1.49 1.49 0 0 1 .86.08A1.5 1.5 0 0 1 4.503 4Zm8.06 6.56a1.5 1.5 0 0 1-2.45-.49 1.49 1.49 0 0 1-.08-.86 1.49 1.49 0 0 1 1.18-1.18 1.49 1.49 0 0 1 .86.08 1.5 1.5 0 0 1 .49 2.45Z" fill="#424242"/>
</svg>
