<svg viewBox="0 0 16 16" fill="none" xmlns="http://www.w3.org/2000/svg" height="1em" width="1em">
  <g clip-path="url(#a)">
    <path fill-rule="evenodd" clip-rule="evenodd" d="M3.89 2.1a6.5 6.5 0 1 1 7.183 10.836A6.5 6.5 0 0 1 3.89 2.1Zm.55 10A5.5 5.5 0 1 0 9.6 2.42a5.38 5.38 0 0 0-3.17-.31 5.47 5.47 0 0 0-4.32 4.32 5.5 5.5 0 0 0 2.33 5.64v.03ZM8.41 4a2.26 2.26 0 0 0-.85-.17 2.09 2.09 0 0 0-.85.17 2.33 2.33 0 0 0-.7.47 2.14 2.14 0 0 0-.46.69 1.93 1.93 0 0 0-.17.84h.87a1.3 1.3 0 0 1 .8-1.21 1.3 1.3 0 0 1 .51-.11c.18.002.356.04.52.11.315.135.566.385.7.7.064.163.098.335.1.51a1.18 1.18 0 0 1-.13.52 2.34 2.34 0 0 1-.33.43L8 7.32c-.15.14-.29.29-.42.45a2.14 2.14 0 0 0-.32.55 1.57 1.57 0 0 0-.13.68v.44H8V9a1.06 1.06 0 0 1 .13-.52c.092-.156.203-.3.33-.43a5.42 5.42 0 0 1 .42-.4c.15-.14.29-.29.42-.45a2.14 2.14 0 0 0 .32-.55A1.72 1.72 0 0 0 9.75 6a2.26 2.26 0 0 0-.17-.85A2.3 2.3 0 0 0 8.41 4ZM8 11.22v-.88h-.87v.88H8Z" fill="#424242"/>
  </g>
  <defs>
    <clipPath id="a">
      <path fill="#fff" d="M0 0h16v16H0z"/>
    </clipPath>
  </defs>
</svg>
