<svg viewBox="0 0 16 16" fill="none" xmlns="http://www.w3.org/2000/svg" height="1em" width="1em">
  <g clip-path="url(#a)">
    <path d="M6 3h4v1H6V3Zm0 6h4v1H6V9Zm0 2h4v1H6v-1Zm9.14 5H.86l1.25-5H4V2a.95.95 0 0 1 .078-.383c.052-.12.123-.226.211-.32a.922.922 0 0 1 .32-.219C4.736 1.026 4.866 1 5 1h6a.95.95 0 0 1 .383.078c.12.052.227.123.32.211a.923.923 0 0 1 .22.32c.051.125.077.256.077.391v9h1.89l1.25 5ZM5 13h6V2H5v11Zm8.86 2-.75-3H12v2H4v-2H2.89l-.75 3h11.72Z" fill="#424242"/>
  </g>
  <defs>
    <clipPath id="a">
      <path fill="#fff" d="M0 0h16v16H0z"/>
    </clipPath>
  </defs>
</svg>
