<svg viewBox="0 0 16 16" fill="none" xmlns="http://www.w3.org/2000/svg" height="1em" width="1em">
  <path fill-rule="evenodd" clip-rule="evenodd" d="M2 2 1 3v9l1 1h12l1-1V3l-1-1H2Zm0 10V3h12v9H2Zm3.356-3.07H6V7.22C6 6.408 5.686 6 5.056 6c-.135 0-.285.024-.45.073a1.443 1.443 0 0 0-.388.167v.665c.237-.203.487-.304.75-.304.261 0 .392.156.392.469l-.599.103c-.507.086-.76.406-.76.961 0 .263.06.473.182.631A.61.61 0 0 0 4.69 9c.29 0 .51-.16.657-.48h.009v.41Zm.004-1.355v.193a.75.75 0 0 1-.12.436.368.368 0 0 1-.313.17.276.276 0 0 1-.22-.095.38.38 0 0 1-.08-.248c0-.222.111-.351.332-.389l.401-.067Zm2.241 1.051h-.007v.31H7V5h.594v1.677H7.6c.147-.31.355-.465.626-.465.247 0 .438.118.572.353.134.236.201.557.201.966 0 .443-.078.798-.235 1.067C8.61 8.866 8.4 9 8.138 9c-.236 0-.415-.125-.537-.374Zm-.017-1.121v.272a.78.78 0 0 0 .107.426c.072.113.163.169.274.169.136 0 .24-.072.314-.216.075-.145.113-.35.113-.615 0-.22-.035-.39-.103-.514-.068-.124-.165-.187-.292-.187-.119 0-.217.062-.296.185a.887.887 0 0 0-.117.48ZM11.262 9c.322 0 .568-.058.738-.173v-.71a.9.9 0 0 1-.552.207.619.619 0 0 1-.5-.215c-.12-.145-.18-.345-.18-.598 0-.26.062-.464.188-.612a.644.644 0 0 1 .516-.223c.194 0 .37.069.528.207v-.749c-.129-.09-.338-.134-.626-.134-.417 0-.75.14-1.001.422-.248.28-.373.662-.373 1.148 0 .42.117.764.35 1.03.232.267.536.4.912.4Z" fill="#424242"/>
</svg>
