<svg stroke-width="1.5" viewBox="0 0 24 24" fill="none" xmlns="http://www.w3.org/2000/svg" height="1em" width="1em">
  <path d="M15 2.2c4.564.926 8 4.962 8 9.8 0 4.838-3.436 8.873-8 9.8" stroke="currentColor" stroke-linecap="round" stroke-linejoin="round"/>
  <path d="M15 9c1.141.284 2 1.519 2 3s-.859 2.716-2 3M1 2h10v20H1" stroke="currentColor" stroke-linecap="round" stroke-linejoin="round"/>
  <path d="M4 15.5a1.5 1.5 0 1 1-3 0 1.5 1.5 0 0 1 3 0Z" fill="currentColor"/>
  <path d="M4 15.5a1.5 1.5 0 1 1-3 0 1.5 1.5 0 0 1 3 0Zm0 0V7.6a.6.6 0 0 1 .6-.6H7" stroke="currentColor" stroke-linecap="round"/>
</svg>
