<svg stroke-width="1.5" viewBox="0 0 24 24" fill="none" xmlns="http://www.w3.org/2000/svg" height="1em" width="1em">
  <path d="M14 5h7.4a.6.6 0 0 1 .6.6v12.8a.6.6 0 0 1-.6.6H14m0-14v14m0-14h-4m4 14h-4m0 0H2.6a.6.6 0 0 1-.6-.6V5.6a.6.6 0 0 1 .6-.6H10m0 14V5" stroke="currentColor" stroke-linecap="round" stroke-linejoin="round"/>
  <path d="M7 9.849c0-.414-.413-.699-.75-.457A2.996 2.996 0 0 0 5 11.829c0 1.004.493 1.893 1.25 2.438.337.242.75-.043.75-.457V9.85Zm10 0c0-.414.413-.699.75-.457A2.996 2.996 0 0 1 19 11.829a2.996 2.996 0 0 1-1.25 2.438c-.337.242-.75-.043-.75-.457V9.85Z" fill="currentColor"/>
</svg>
