<svg viewBox="0 0 24 24" stroke-width="1.5" fill="none" xmlns="http://www.w3.org/2000/svg" height="1em" width="1em">
  <path d="m14.25 14.75.25-2.25.426-3.834A.6.6 0 0 0 14.33 8H9.67a.6.6 0 0 0-.596.666l.867 7.8a.6.6 0 0 0 .596.534H11" stroke="currentColor" stroke-linecap="round"/>
  <path d="M4.5 7a2.5 2.5 0 1 0 0-5 2.5 2.5 0 0 0 0 5Z" stroke="currentColor" stroke-miterlimit="1.5" stroke-linecap="round" stroke-linejoin="round"/>
  <path d="M4.5 4.5 9 8M4.5 19.5l5-4m10-11L15 8" stroke="currentColor" stroke-linecap="round" stroke-linejoin="round"/>
  <path d="M4.5 22a2.5 2.5 0 1 0 0-5 2.5 2.5 0 0 0 0 5Zm15-15a2.5 2.5 0 1 0 0-5 2.5 2.5 0 0 0 0 5Z" stroke="currentColor" stroke-miterlimit="1.5" stroke-linecap="round" stroke-linejoin="round"/>
  <path d="M23 19v2m-8-2v2m2-2v2" stroke="currentColor" stroke-linecap="round" stroke-linejoin="round"/>
  <path d="M13 22.4v-4.8a.6.6 0 0 1 .6-.6h6.8a.6.6 0 0 1 .6.6v4.8a.6.6 0 0 1-.6.6h-6.8a.6.6 0 0 1-.6-.6Z" stroke="currentColor"/>
</svg>
