<svg viewBox="0 0 24 24" stroke-width="1.5" fill="none" xmlns="http://www.w3.org/2000/svg" height="1em" width="1em">
  <path d="M2.6 4h6.178a.6.6 0 0 1 .39.144l3.164 2.712a.6.6 0 0 0 .39.144H21.4a.6.6 0 0 1 .6.6v2.8a.6.6 0 0 1-.6.6H2.6a.6.6 0 0 1-.6-.6V4.6a.6.6 0 0 1 .6-.6ZM22 10v4" stroke="currentColor" stroke-linecap="round" stroke-linejoin="round"/>
  <path d="M2 10v9.4a.6.6 0 0 0 .6.6H13m6 1a2 2 0 1 0 0-4 2 2 0 0 0 0 4Z" stroke="currentColor" stroke-linecap="round" stroke-linejoin="round"/>
  <path d="M19 22a3 3 0 1 0 0-6 3 3 0 0 0 0 6Z" stroke="currentColor" stroke-linecap="round" stroke-linejoin="round" stroke-dasharray="0.3 2"/>
</svg>
