<svg stroke-width="1.5" viewBox="0 0 24 24" fill="none" xmlns="http://www.w3.org/2000/svg" height="1em" width="1em">
  <path d="M16 22.027v-2.87a3.37 3.37 0 0 0-.94-2.61c3.14-.35 6.44-1.54 6.44-7a5.44 5.44 0 0 0-1.5-3.75 5.07 5.07 0 0 0-.09-3.77s-1.18-.35-3.91 1.48a13.38 13.38 0 0 0-7 0c-2.73-1.83-3.91-1.48-3.91-1.48A5.07 5.07 0 0 0 5 5.797a5.44 5.44 0 0 0-1.5 3.78c0 5.42 3.3 6.61 6.44 7a3.37 3.37 0 0 0-.94 2.58v2.87" stroke="currentColor" stroke-linecap="round" stroke-linejoin="round"/>
  <path d="M9 20.027c-3 .973-5.5 0-7-3" stroke="currentColor" stroke-linecap="round" stroke-linejoin="round"/>
</svg>
