<svg stroke-width="1.5" viewBox="0 0 24 24" fill="none" xmlns="http://www.w3.org/2000/svg" height="1em" width="1em">
  <path d="M13.992 17h6" stroke="currentColor" stroke-linecap="round" stroke-linejoin="round"/>
  <path d="M4 9.4V4.6a.6.6 0 0 1 .6-.6h4.8a.6.6 0 0 1 .6.6v4.8a.6.6 0 0 1-.6.6H4.6a.6.6 0 0 1-.6-.6Zm0 10v-4.8a.6.6 0 0 1 .6-.6h4.8a.6.6 0 0 1 .6.6v4.8a.6.6 0 0 1-.6.6H4.6a.6.6 0 0 1-.6-.6Zm10-10V4.6a.6.6 0 0 1 .6-.6h4.8a.6.6 0 0 1 .6.6v4.8a.6.6 0 0 1-.6.6h-4.8a.6.6 0 0 1-.6-.6Z" stroke="currentColor"/>
</svg>
