<svg stroke-width="1.5" viewBox="0 0 24 24" fill="none" xmlns="http://www.w3.org/2000/svg" height="1em" width="1em">
  <g clip-path="url(#a)">
    <path d="M6.327 2.774a.6.6 0 0 1 .52-.3h10.307a.6.6 0 0 1 .52.3l5.153 8.926a.6.6 0 0 1 0 .6l-5.154 8.926a.6.6 0 0 1-.52.3H6.847a.6.6 0 0 1-.52-.3L1.174 12.3a.6.6 0 0 1 0-.6l5.154-8.926Z" stroke="currentColor" stroke-linecap="round" stroke-linejoin="round"/>
  </g>
  <defs>
    <clipPath id="a">
      <path fill="#fff" d="M0 0h24v24H0z"/>
    </clipPath>
  </defs>
</svg>
