<svg viewBox="0 0 24 24" stroke-width="1.5" fill="none" xmlns="http://www.w3.org/2000/svg" height="1em" width="1em">
  <path d="M12 22c5.523 0 10-4.477 10-10S17.523 2 12 2 2 6.477 2 12s4.477 10 10 10Z" stroke="currentColor" stroke-linecap="round" stroke-linejoin="round"/>
  <path d="M5 6a1 1 0 1 0 0-2 1 1 0 0 0 0 2Z" fill="currentColor" stroke="currentColor" stroke-linecap="round" stroke-linejoin="round"/>
  <path d="M5 10.5V9m0 6v-1.5" stroke="currentColor" stroke-linecap="round" stroke-linejoin="round"/>
  <path d="M5 20a1 1 0 1 0 0-2 1 1 0 0 0 0 2Zm14 0a1 1 0 1 0 0-2 1 1 0 0 0 0 2Z" fill="currentColor" stroke="currentColor" stroke-linecap="round" stroke-linejoin="round"/>
  <path d="M10.5 19H9m6 0h-1.5" stroke="currentColor" stroke-linecap="round" stroke-linejoin="round"/>
</svg>
