<svg stroke-width="1.5" viewBox="0 0 24 24" fill="none" xmlns="http://www.w3.org/2000/svg" height="1em" width="1em">
  <path d="M12 10v3m0 4.01.01-.011" stroke="currentColor" stroke-linecap="round" stroke-linejoin="round"/>
  <path d="M17 22H7a2 2 0 0 1-2-2v-8.818a.6.6 0 0 0-.1-.333L3.1 8.15a.6.6 0 0 1-.1-.333V2.6a.6.6 0 0 1 .6-.6h1.8a.6.6 0 0 1 .6.6v1.8a.6.6 0 0 0 .6.6h2.8a.6.6 0 0 0 .6-.6V2.6a.6.6 0 0 1 .6-.6h2.8a.6.6 0 0 1 .6.6v1.8a.6.6 0 0 0 .6.6h2.8a.6.6 0 0 0 .6-.6V2.6a.6.6 0 0 1 .6-.6h1.8a.6.6 0 0 1 .6.6v5.218a.6.6 0 0 1-.1.333l-1.8 2.698a.6.6 0 0 0-.1.333V20a2 2 0 0 1-2 2Z" stroke="currentColor"/>
</svg>
