<svg width="24" height="24" fill="none" xmlns="http://www.w3.org/2000/svg"><path d="M7.757 8.464 9.172 7.05 12 9.88l2.828-2.829 1.415 1.415L12 12.707 7.757 8.464Z" fill="currentColor"/><path d="m9.172 11.293-1.415 1.414L12 16.95l4.243-4.243-1.415-1.414L12 14.12l-2.828-2.828Z" fill="currentColor"/><path fill-rule="evenodd" clip-rule="evenodd" d="M1 5a4 4 0 0 1 4-4h14a4 4 0 0 1 4 4v14a4 4 0 0 1-4 4H5a4 4 0 0 1-4-4V5Zm4-2h14a2 2 0 0 1 2 2v14a2 2 0 0 1-2 2H5a2 2 0 0 1-2-2V5a2 2 0 0 1 2-2Z" fill="currentColor"/></svg>