<svg width="24" height="24" fill="none" xmlns="http://www.w3.org/2000/svg"><path fill-rule="evenodd" clip-rule="evenodd" d="M12.226 2.003a9.971 9.971 0 0 0-7.297 2.926c-3.905 3.905-3.905 10.237 0 14.142 3.905 3.905 10.237 3.905 14.142 0a9.972 9.972 0 0 0 2.926-7.297 10.037 10.037 0 0 0-.337-2.368 14.87 14.87 0 0 1-1.744 1.436c-1.351.949-2.733 1.563-3.986 1.842-1.906.423-3.214.032-3.93-.684-.716-.716-1.107-2.024-.684-3.93.279-1.253.893-2.635 1.841-3.986.415-.592.894-1.177 1.437-1.744-.776-.207-1.571-.32-2.368-.337Zm5.43 15.654a7.964 7.964 0 0 0 2.251-4.438c-3.546 2.045-7.269 2.247-9.321.195-2.052-2.052-1.85-5.775.195-9.321a8 8 0 1 0 6.876 13.564Z" fill="currentColor"/></svg>