<svg width="24" height="24" fill="none" xmlns="http://www.w3.org/2000/svg"><path fill-rule="evenodd" clip-rule="evenodd" d="M12 18.939a4 4 0 1 0 0-8 4 4 0 0 0 0 8Zm0-2a2 2 0 1 0 0-4 2 2 0 0 0 0 4Z" fill="currentColor"/><path d="M12 9.044a2 2 0 1 0 0-4 2 2 0 0 0 0 4Z" fill="currentColor"/><path fill-rule="evenodd" clip-rule="evenodd" d="M7 1a3 3 0 0 0-3 3v16a3 3 0 0 0 3 3h10a3 3 0 0 0 3-3V4a3 3 0 0 0-3-3H7Zm10 2H7a1 1 0 0 0-1 1v16a1 1 0 0 0 1 1h10a1 1 0 0 0 1-1V4a1 1 0 0 0-1-1Z" fill="currentColor"/></svg>