<svg xmlns="http://www.w3.org/2000/svg" viewBox="0 0 1280 2048" height="1em" width="1em">
  <path d="M640 1024q-80 0-149-30t-122-82q-53-52-83-122t-30-150q0-79 30-149t82-122q52-52 122-83t150-30q79 0 149 30t122 82q52 52 83 123t30 149q0 80-30 149t-82 122q-52 53-123 83t-149 30zm0-640q-53 0-99 20t-82 55q-36 35-55 81t-20 100q0 53 20 99t55 82q35 36 81 55t100 20q53 0 99-20t82-55q36-35 55-81t20-100q0-53-20-99t-55-82q-35-36-81-55t-100-20zm640 256q0 104-32 202t-96 182v1024l-512-256-512 256V1024q-63-83-95-181T0 640q0-133 50-249t137-204q87-88 203-137T640 0q133 0 249 50t204 137q88 87 137 203t50 250zM640 128q-106 0-199 40T279 278q-69 70-110 163t-41 199q0 106 40 199t110 162q70 69 163 110t199 41q106 0 199-40t162-110q69-70 110-163t41-199q0-106-40-199t-110-162q-70-69-163-110t-199-41Zm384 1728v-704q-83 63-181 95t-203 33q-104 0-202-32t-182-96v704l384-192z"/>
</svg>
