<svg xmlns="http://www.w3.org/2000/svg" viewBox="0 0 339.857 260.816" fill="none" height="1em" width="1em">
  <g clip-path="url(#a)" transform="translate(0 -39.6)">
    <g clip-path="url(#b)">
      <mask id="c" mask-type="alpha" maskUnits="userSpaceOnUse" x="-1" y="39" width="341" height="262">
        <path d="M325.674 76.303h-.011a54.944 54.944 0 0 0-23.082-25.931c-26.395-15.239-60.145-6.197-75.385 20.196h-.015a119.988 119.988 0 0 0-4.215-3.586C176.198 28.989 103.074 28.818 49.15 77.292c-48.44 43.542-63.594 120.26-35.12 186.74l.017.001c4.557 10.402 12.353 19.494 22.942 25.608 26.386 15.233 60.123 6.202 75.37-20.171l.015.001.014-.024a119.271 119.271 0 0 0 4.213 3.588c46.768 37.993 119.892 38.163 173.816-10.31 48.362-43.473 63.545-120.015 35.257-186.422z" fill="#c4c4c4"/>
      </mask>
      <g mask="url(#c)">
        <path fill-rule="evenodd" clip-rule="evenodd" d="M139.902 221.798c46.136 26.636 87.59 16.36 111.032-24.242 23.442-40.603 14.628-95.968-27.966-130.57C176.2 28.991 103.076 28.821 49.151 77.295c-48.439 43.542-63.593 120.26-35.12 186.74l.015.001a54.94 54.94 0 0 0 22.942 25.607c26.386 15.234 60.123 6.203 75.37-20.17h.018z" fill="url(#d)" style="fill:url(#d)"/>
        <path fill-rule="evenodd" clip-rule="evenodd" d="M325.662 76.303h.013c28.289 66.407 13.106 142.949-35.256 186.422-53.925 48.473-127.048 48.303-173.816 10.31-42.594-34.603-51.408-89.968-27.966-130.57 23.442-40.603 64.895-50.879 111.031-24.242l27.514-47.656.015.001c15.241-26.391 48.99-35.433 75.384-20.194a54.944 54.944 0 0 1 23.081 25.929z" fill="url(#e)" style="fill:url(#e)"/>
        <path fill-rule="evenodd" clip-rule="evenodd" d="M199.669 118.226c-46.136-26.637-87.59-16.361-111.032 24.241-22.648 39.228-15.188 92.235 23.755 126.985l27.512-47.653c46.136 26.637 87.59 16.361 111.031-24.241 22.648-39.228 15.189-92.235-23.754-126.985z" fill="#088142"/>
        <path opacity=".25" transform="rotate(30 216.834 32.269)" fill="url(#f)" style="fill:url(#f)" d="M216.834 32.269h28.122v345.122h-28.122z"/>
        <g filter="url(#g)">
          <path d="M221.587 199.911c-16.512 28.599-53.082 38.398-81.681 21.886-28.6-16.512-38.399-53.082-21.887-81.682 16.512-28.599 53.082-38.398 81.682-21.886 28.599 16.512 38.398 53.082 21.886 81.682z" fill="url(#h)" style="fill:url(#h)"/>
        </g>
      </g>
    </g>
  </g>
  <defs>
    <linearGradient id="d" x1="124.665" y1="36.265" x2="154.132" y2="303.732" gradientUnits="userSpaceOnUse">
      <stop stop-color="#096738"/>
      <stop offset="1" stop-color="#0A4C2D"/>
    </linearGradient>
    <linearGradient id="e" x1="245.933" y1="32.867" x2="301.467" y2="298.067" gradientUnits="userSpaceOnUse">
      <stop stop-color="#4ED062"/>
      <stop offset="1" stop-color="#209B4E"/>
    </linearGradient>
    <linearGradient id="f" x1="244.956" y1="306.88" x2="216.834" y2="306.88" gradientUnits="userSpaceOnUse">
      <stop/>
      <stop offset=".272" stop-opacity=".561"/>
      <stop offset=".621" stop-opacity=".265"/>
      <stop offset="1" stop-opacity="0"/>
    </linearGradient>
    <linearGradient id="h" x1="229.608" y1="229.818" x2="186.334" y2="95.67" gradientUnits="userSpaceOnUse">
      <stop stop-color="#66EB6E"/>
      <stop offset="1" stop-color="#9FE0A2"/>
    </linearGradient>
    <clipPath id="a">
      <path fill="#fff" d="M0 0h340v340H0z"/>
    </clipPath>
    <clipPath id="b">
      <path fill="#fff" d="M0 0h340v340H0z"/>
    </clipPath>
    <filter id="g" x="105.998" y="107.208" width="127.611" height="127.611" filterUnits="userSpaceOnUse" color-interpolation-filters="sRGB">
      <feFlood flood-opacity="0" result="BackgroundImageFix"/>
      <feColorMatrix in="SourceAlpha" values="0 0 0 0 0 0 0 0 0 0 0 0 0 0 0 0 0 0 127 0"/>
      <feOffset dy=".19"/>
      <feGaussianBlur stdDeviation=".19"/>
      <feColorMatrix values="0 0 0 0 0 0 0 0 0 0 0 0 0 0 0 0 0 0 0.24 0"/>
      <feBlend in2="BackgroundImageFix" result="effect1_dropShadow"/>
      <feColorMatrix in="SourceAlpha" values="0 0 0 0 0 0 0 0 0 0 0 0 0 0 0 0 0 0 127 0"/>
      <feOffset dy="1"/>
      <feGaussianBlur stdDeviation="2"/>
      <feColorMatrix values="0 0 0 0 0 0 0 0 0 0 0 0 0 0 0 0 0 0 0.32 0"/>
      <feBlend in2="effect1_dropShadow" result="effect2_dropShadow"/>
      <feBlend in="SourceGraphic" in2="effect2_dropShadow" result="shape"/>
    </filter>
  </defs>
</svg>
