<svg xmlns="http://www.w3.org/2000/svg" viewBox="0 0 1920 1920" version="1.1" height="1em" width="1em">
  <path d="M 0,128 V 0 H 128 V 128 Z M 0,384 V 256 H 128 V 384 Z M 0,640 V 512 H 128 V 640 Z M 0,896 V 768 h 128 v 128 z m 0,256 v -128 h 128 v 128 z m 0,256 v -128 h 128 v 128 z m 0,256 v -128 h 128 v 128 z m 0,256 v -128 h 128 v 128 z M 1792,384 V 256 h 128 v 128 z m 0,256 V 512 h 128 v 128 z m 0,256 V 768 h 128 v 128 z m 0,256 v -128 h 128 v 128 z m 0,256 v -128 h 128 v 128 z m 0,256 v -128 h 128 v 128 z m 0,256 v -128 h 128 v 128 z M 384,0 V 128 H 256 V 0 Z M 640,0 V 128 H 512 V 0 Z M 896,0 V 128 H 768 V 0 Z m 256,0 V 128 H 1024 V 0 Z m 256,0 V 128 H 1280 V 0 Z m 128,128 V 0 h 128 V 128 Z M 256,1920 v -128 h 128 v 128 z m 256,0 v -128 h 128 v 128 z m 256,0 v -128 h 128 v 128 z m 256,0 v -128 h 128 v 128 z m 256,0 v -128 h 128 v 128 z m 256,0 v -128 h 128 v 128 z M 1792,0 h 128 V 128 H 1792 Z M 1536,384 V 1536 H 384 V 384 Z M 1408,896 V 512 H 1024 V 896 Z M 896,512 H 512 v 384 h 384 z m -384,512 v 384 h 384 v -384 z m 512,384 h 384 v -384 h -384 z"/>
</svg>
