<svg xmlns="http://www.w3.org/2000/svg" viewBox="0 0 96 84" fill="none" height="1em" width="1em">
  <defs>
    <linearGradient id="c" x1="66.5" y1="90.5" x2="38.5" y2="8" gradientUnits="userSpaceOnUse">
      <stop stop-color="#E6AD10"/>
      <stop offset="1" stop-color="#F2C811"/>
    </linearGradient>
    <linearGradient id="d" x1="46" y1="-5.469" x2="79.299" y2="90.713" gradientUnits="userSpaceOnUse">
      <stop stop-color="#E6AD10"/>
      <stop offset="1" stop-color="#C87E0E"/>
    </linearGradient>
    <linearGradient id="g" x1="36.998" y1="46" x2="61.786" y2="93.593" gradientUnits="userSpaceOnUse">
      <stop stop-color="#F6D751"/>
      <stop offset="1" stop-color="#E6AD10"/>
    </linearGradient>
    <linearGradient id="h" x1="23.998" y1="64" x2="39.527" y2="108.11" gradientUnits="userSpaceOnUse">
      <stop stop-color="#F9E589"/>
      <stop offset="1" stop-color="#F6D751"/>
    </linearGradient>
    <filter id="e">
      <feFlood flood-opacity="0" result="BackgroundImageFix"/>
      <feBlend in="SourceGraphic" in2="BackgroundImageFix" result="shape"/>
      <feGaussianBlur stdDeviation=".4" result="effect1_foregroundBlur"/>
    </filter>
    <filter id="f">
      <feFlood flood-opacity="0" result="BackgroundImageFix"/>
      <feBlend in="SourceGraphic" in2="BackgroundImageFix" result="shape"/>
      <feGaussianBlur stdDeviation="4" result="effect1_foregroundBlur"/>
    </filter>
    <clipPath id="a">
      <path fill="#fff" d="M0 0h96v96H0z"/>
    </clipPath>
  </defs>
  <g clip-path="url(#a)" transform="translate(0 -12)">
    <mask id="b" mask-type="alpha" maskUnits="userSpaceOnUse" x="0" y="12" width="96" height="84">
      <path d="M4 12a4 4 0 0 0-4 4v64a4 4 0 0 0 4 4h20v8a4 4 0 0 0 4 4h40a4 4 0 0 0 4-4v-8h20a4 4 0 0 0 4-4V16a4 4 0 0 0-4-4z" fill="#c4c4c4"/>
    </mask>
    <g mask="url(#b)">
      <path d="M0 84V12h96v72z" fill="url(#c)" style="fill:url(#c)"/>
      <path d="M72 32v64H54a4 4 0 0 1-4-4V32a4 4 0 0 1 4-4h14a4 4 0 0 1 4 4z" fill="url(#d)" style="fill:url(#d)"/>
      <g filter="url(#e)">
        <path d="M59 96.4v-46a4 4 0 0 0-4-4H41a4 4 0 0 0-4 4v14h-9a4 4 0 0 0-4 4v28z" fill="#000" fill-opacity=".2"/>
      </g>
      <g filter="url(#f)">
        <path d="M59 98V52a4 4 0 0 0-4-4H41a4 4 0 0 0-4 4v14h-9a4 4 0 0 0-4 4v28z" fill="#000" fill-opacity=".18"/>
      </g>
      <path d="M59 50v46H41a4 4 0 0 1-4-4V50a4 4 0 0 1 4-4h14a4 4 0 0 1 4 4z" fill="url(#g)" style="fill:url(#g)"/>
      <path d="M24 68v28h22V68a4 4 0 0 0-4-4H28a4 4 0 0 0-4 4z" fill="url(#h)" style="fill:url(#h)"/>
    </g>
  </g>
</svg>
