<svg xmlns="http://www.w3.org/2000/svg" viewBox="0 0 2048 1792" height="1em" width="1em">
  <path d="M1963 0q35 0 60 25t25 60v1622q0 35-25 60t-60 25H597q-35 0-60-25t-25-60v-299H85q-35 0-60-25t-25-60V469q0-35 25-60t60-25h427V85q0-35 25-60t60-25ZM512 1005l121 227h183L613 902l199-324H637L525 783q-2 3-3 6t-4 8q-27-55-55-109t-56-110H221l194 326-212 328h184zm704 659v-256H640v256zm0-384V960h-192v320zm0-448V512h-192v320zm0-448V128H640v256zm704 1280v-256h-576v256zm0-384V960h-576v320zm0-448V512h-576v320zm0-448V128h-576v256z"/>
</svg>
