<svg xmlns="http://www.w3.org/2000/svg" viewBox="0 0 2048 1536" height="1em" width="1em">
  <path d="M1792 640h-640V512h640zm-256 384h-384V896h384zM2048 0v1536H0V0Zm-128 128H128v1280h1792ZM640 896q-53 0-99 20t-82 55q-36 35-55 81t-20 100H256q0-52 14-101t39-93q25-44 62-80t83-62q-33-35-51-81t-19-95q0-53 20-99t55-82q35-36 81-55t100-20q53 0 99 20t82 55q36 35 55 81t20 100q0 49-18 95t-52 81q46 26 82 62t62 79q26 43 40 93t14 102H896q0-53-20-99t-55-82q-35-36-81-55t-100-20zM512 640q0 27 10 50t27 40q17 17 41 28t50 10q27 0 50-10t40-27q17-17 28-41t10-50q0-27-10-50t-27-40q-17-17-41-28t-50-10q-27 0-50 10t-40 27q-17 17-28 41t-10 50z"/>
</svg>
