<svg xmlns="http://www.w3.org/2000/svg" viewBox="0 0 2048 1280" height="1em" width="1em">
  <path d="M1536 384v128q76 0 145 17t123 56q54 39 84 99t32 148q0 66-25 124t-69 101q-44 43-102 69t-124 26h-512q-66 0-124-25t-101-69q-43-44-69-102t-26-124q0-87 31-147t85-99q54-39 122-56t146-18V384h-64q-93 0-174 35t-142 96q-61 61-96 142t-36 175q0 93 35 174t96 142q61 61 142 96t175 36h512q93 0 174-35t142-96q61-61 96-142t36-175q0-93-35-174t-96-142q-61-61-142-96t-175-36zM896 896V768q76 0 145-17t123-56q54-39 84-99t32-148q0-66-25-124t-69-101q-44-43-102-69t-124-26H448q-66 0-124 25t-101 69q-43 44-69 102t-26 124q0 87 31 147t85 99q54 39 122 56t146 18v128h-64q-93 0-174-35t-142-96q-61-61-96-142T0 448q0-93 35-174t96-142q61-61 142-96T448 0h512q93 0 174 35t142 96q61 61 96 142t36 175q0 93-35 174t-96 142q-61 61-142 96t-175 36z"/>
</svg>
