<svg xmlns="http://www.w3.org/2000/svg" viewBox="0 0 2013 1664" height="1em" width="1em">
  <path d="M2013 832q0 56-37 98l-597 683q-21 24-51 37t-62 14H149q-31 0-58-12t-47-32q-20-20-32-47t-12-59q0-56 37-98l511-584L37 248Q0 206 0 150q0-31 11-58t32-48q21-21 48-32t58-12h1117q32 0 62 13t51 38l597 683q37 42 37 98zM633 735l527-607H149q-9 0-15 6t-6 16q0 6 5 13zm-484 801h477l948-1067-271-310q-292 336-584 671t-586 671q-5 7-5 13 0 9 6 15t15 7zm1736-704q0-7-5-14l-221-252-862 970h469q9 0 16-7l598-683q5-7 5-14z"/>
</svg>
