<svg xmlns="http://www.w3.org/2000/svg" viewBox="0 0 2055 1920" height="1em" width="1em">
  <path d="M1158 768H669l309 792q-69 107-94 228L15 745Q0 727 0 704q0-18 9-33L393 31q8-14 23-22t32-9h1152q17 0 32 8t23 23l384 640q9 15 9 33 0 14-9 30t-21 31q-12 15-25 30t-22 25q-49-62-112-108t-139-72h151l-307-512h-253l193 484q-32 2-64 8t-64 17l-203-509H875L671 640h695q-59 20-111 51t-97 77zM484 128 177 640h356l204-512Zm338 1386L532 768H201Zm949-53q64 33 116 81t90 108q38 60 58 128t20 142h-128q0-79-30-149t-83-122q-53-52-122-82t-149-31q-80 0-149 30t-122 82q-53 52-83 123t-30 149h-128q0-73 20-141t57-128q37-60 89-108t118-82q-74-55-115-136t-41-173q0-79 30-149t82-122q52-52 122-83t150-30q79 0 149 30t122 82q52 52 83 123t30 149q0 92-41 173t-115 136zm-228-53q53 0 99-20t82-55q36-35 55-81t20-100q0-53-20-99t-55-82q-35-36-81-55t-100-20q-53 0-99 20t-82 55q-36 35-55 81t-20 100q0 53 20 99t55 82q35 36 81 55t100 20z"/>
</svg>
