<svg viewBox="0 0 256 256" fill="none" xmlns="http://www.w3.org/2000/svg" height="1em" width="1em">
  <rect width="256" height="256" rx="60" fill="#242938"/>
  <path d="M200.778 121.534h-.05c-1.044 3.267-1.852 6.816-2.005 10.858-.289 7.591.482 12.21-.392 17.127-.873 4.917-3.456 9.757-10.026 17.347-7.821 9.034-20.215 16.025-34.53 18.388a74.243 74.243 0 0 1-8.436 4.647c11.143 4.195 22.796 4.423 32.034 1.392 16.274-5.341 15.014-9.177 22.306-20.351 2.298-3.521 4.95-6.208 7.614-8.415 7.589 3.309 15.064 5.434 19.721 4.907 2.504-5.805-.061-12.537-4.323-18.901 3.496-10.86-1.809-21.734-13.559-25.579-3.065-1.002-5.819-1.474-8.354-1.425v.005Zm8.814 15.945a4.436 4.436 0 0 1 1.873.369 4.374 4.374 0 0 1 2.61 4.35 4.532 4.532 0 0 1-.466 1.691 4.587 4.587 0 0 1-1.078 1.397c-.9.792-2.073 1.2-3.259 1.135a4.404 4.404 0 0 1-3.067-1.483 4.356 4.356 0 0 1-.863-1.503 4.414 4.414 0 0 1-.214-1.728 4.523 4.523 0 0 1 .466-1.692 4.596 4.596 0 0 1 3.998-2.536Zm-72.825 48.332c.135.08.274.15.41.229l.42-.16c-.277-.025-.553-.042-.83-.069Z" fill="#787878"/>
  <path d="M142.322 54c-6.362-.037-12.885 2.501-18.491 7.945-7.363 7.15-9.65 13.586-8.359 21.616l.354 2.203-2.201-.358c-16.176-2.621-36.197-1.297-58.975 7.917 6.696 2.87 18.986 7.661 32.625 14.211l4.324 2.078-4.7.952c-18.01 3.651-39.38 14.195-58.899 37.208 8.732-.679 26.577-2.779 45.19-2.75 10.345.016 20.541.731 28.848 2.885 8.307 2.154 15.856 7.083 16.92 10.694 1.064 3.612.46 5.513-.588 8.338-1.048 2.825-4.27 7.117-8.728 9.95-4.458 2.833-10.114 5.309-15.991 7.414-11.754 4.209-24.263 6.899-29.785 7.412-1.174.109-1.643.531-2.095 1.352-.452.821-.702 2.112-.739 3.462-.048 1.802.232 2.743.74 3.457.51.714 1.305.999 2.124 1.055 34.703 2.348 60.65-6.381 79.496-13.859 21.675-9.938 35.375-29.564 38.349-47.234 1.864-11.072 1.464-16.498-.333-21.119-1.797-4.621-5.242-8.724-9.613-16.561-2.808-5.035-4.375-9.976-5.346-14.578l-.206-.97.774-.62c8.031-6.437 14.571-13.467 16.946-18.584-4.872-5.182-13.291-6.277-22.71-5.27l-.774.081-.545-.555c-5.019-5.113-11.249-7.734-17.612-7.772Zm2.821 11.964c2.762-.044 5.198 1.87 5.86 4.603.778 3.219-1.152 6.447-4.31 7.21-3.159.765-6.351-1.224-7.129-4.443-.779-3.218 1.151-6.446 4.31-7.21.416-.1.841-.154 1.269-.16Z" fill="#ECECEC"/>
  <path d="M184.657 79.978a26.24 26.24 0 0 0-6.368.674c-.148.034-.278.075-.424.11-2.422 2.394-5.126 4.798-8.02 7.154.932 4.11 2.315 8.396 4.762 12.783 4.247 7.615 7.748 11.679 9.802 16.962 2.055 5.283 2.412 11.497.506 22.819-2.363 14.035-10.907 28.898-24.454 39.87 10.515-3.067 19.477-8.725 25.411-15.579 6.404-7.399 8.541-11.584 9.29-15.802.749-4.217.047-8.84.345-16.683.193-5.054 1.269-9.475 2.638-13.362l.329-.932.982-.129c8.764-1.137 16.685-3.373 20.779-6.016-1.315-5.914-6.902-10.502-14.301-13.99l-.706-.332-.176-.76c-2.347-10.077-10.215-16.576-20.395-16.787Zm5.094 12.446c.524 0 1.044.08 1.542.239a5.092 5.092 0 0 1 2.993 2.566 5.313 5.313 0 0 1-.676 5.771 5.236 5.236 0 0 1-1.577 1.279 5.075 5.075 0 0 1-3.927.355 5.09 5.09 0 0 1-2.993-2.566 5.28 5.28 0 0 1-.306-3.983 5.301 5.301 0 0 1 1.89-2.646 5.142 5.142 0 0 1 3.054-1.015Z" fill="#B2B2B2"/>
</svg>
