<svg viewBox="0 0 256 256" fill="none" xmlns="http://www.w3.org/2000/svg" height="1em" width="1em">
  <rect width="256" height="256" rx="60" fill="#242938"/>
  <path d="M61.39 100.77a22.467 22.467 0 0 1-9.605 9.569l52.727 52.981 12.712-6.448-55.835-56.102Zm69.548 69.882-12.712 6.448 26.717 26.846a22.466 22.466 0 0 1 9.606-9.57l-23.611-23.724Z" fill="#A730B8"/>
  <path d="m191.943 121.734-29.851 15.142 2.201 14.091 33.775-17.133a22.486 22.486 0 0 1-6.125-12.1Zm-47.18 23.932-70.579 35.802a22.484 22.484 0 0 1 6.127 12.101l66.653-33.812-2.201-14.091Z" fill="#5496BE"/>
  <path d="m122.066 57.476-34.057 66.548 10.055 10.103 36.059-70.459a22.449 22.449 0 0 1-12.057-6.192Zm-42.915 83.856-17.25 33.708c4.56.772 8.77 2.934 12.056 6.192l15.249-29.797-10.055-10.103Z" fill="#CE3D1A"/>
  <path d="M51.492 110.487a22.443 22.443 0 0 1-11.218 2.347 22.51 22.51 0 0 1-2.168-.226l10.073 64.489a22.442 22.442 0 0 1 11.218-2.347c.726.04 1.449.116 2.167.227l-10.072-64.49Z" fill="#D0188F"/>
  <path d="M80.364 193.888c.23 1.498.31 3.014.235 4.528a22.49 22.49 0 0 1-2.369 8.867l64.42 10.347a22.495 22.495 0 0 1-.236-4.528 22.49 22.49 0 0 1 2.37-8.867l-64.42-10.347Z" fill="#5B36E9"/>
  <path d="m198.294 134.069-29.733 58.102a22.45 22.45 0 0 1 12.058 6.193l29.734-58.101a22.448 22.448 0 0 1-12.059-6.194Z" fill="#30B873"/>
  <path d="M157.741 51.894a22.468 22.468 0 0 1-9.606 9.57l46.047 46.267a22.468 22.468 0 0 1 9.606-9.57l-46.047-46.267Z" fill="#EBE305"/>
  <path d="m115.713 45.14-58.21 29.527a22.485 22.485 0 0 1 6.127 12.1l58.208-29.528a22.486 22.486 0 0 1-6.125-12.098Z" fill="#F47601"/>
  <path d="M148.029 61.518a22.44 22.44 0 0 1-11.403 2.44 22.427 22.427 0 0 1-1.966-.206l5.157 33.048 14.069 2.26-5.857-37.542Zm-5.216 54.494 12.191 78.134a22.448 22.448 0 0 1 11.055-2.265 22.58 22.58 0 0 1 2.349.258l-11.525-73.868-14.07-2.259Z" fill="#57C115"/>
  <path d="M63.671 87.014a22.5 22.5 0 0 1 .247 4.6 22.496 22.496 0 0 1-2.334 8.803l33.043 5.312 6.494-12.695-37.45-6.02Zm56.632 9.103-6.495 12.696 78.072 12.55c-.224-1.481-.3-2.98-.226-4.476a22.488 22.488 0 0 1 2.395-8.915l-73.746-11.855Z" fill="#DBB210"/>
  <path d="M136.737 61.918c11.258.614 20.881-8.023 21.495-19.292.613-11.268-8.016-20.9-19.275-21.515-11.258-.613-20.881 8.024-21.495 19.292-.613 11.269 8.017 20.901 19.275 21.515Z" fill="#FFCA00" fill-opacity=".996"/>
  <path d="M212.966 138.513c11.259.614 20.882-8.023 21.495-19.292.614-11.268-8.016-20.9-19.274-21.514-11.258-.614-20.882 8.023-21.495 19.292-.613 11.268 8.016 20.901 19.274 21.514Z" fill="#64FF00" fill-opacity=".996"/>
  <path d="M163.727 234.728c11.258.614 20.882-8.024 21.495-19.292.613-11.269-8.016-20.901-19.274-21.515-11.258-.614-20.882 8.024-21.495 19.292-.614 11.269 8.016 20.901 19.274 21.515Z" fill="#00A3FF" fill-opacity=".996"/>
  <path d="M57.066 217.597c11.258.613 20.881-8.024 21.495-19.292.613-11.269-8.017-20.901-19.275-21.515-11.258-.614-20.882 8.023-21.495 19.292-.613 11.268 8.016 20.901 19.275 21.515Z" fill="#9500FF" fill-opacity=".996"/>
  <path d="M40.385 110.794c11.258.614 20.881-8.023 21.495-19.292.613-11.268-8.017-20.9-19.275-21.514-11.258-.614-20.881 8.023-21.495 19.292-.613 11.268 8.017 20.901 19.275 21.514Z" fill="red" fill-opacity=".996"/>
</svg>
