<svg viewBox="0 0 256 256" fill="none" xmlns="http://www.w3.org/2000/svg" height="1em" width="1em">
  <rect width="256" height="256" rx="60" fill="#F4F2ED"/>
  <path d="M128.001 30C72.779 30 28 74.77 28 130.001c0 44.183 28.653 81.667 68.387 94.89 4.997.926 6.832-2.169 6.832-4.81 0-2.385-.093-10.262-.136-18.618-27.82 6.049-33.69-11.799-33.69-11.799-4.55-11.559-11.104-14.632-11.104-14.632-9.073-6.207.684-6.079.684-6.079 10.042.705 15.33 10.305 15.33 10.305 8.919 15.288 23.394 10.868 29.1 8.313.898-6.464 3.489-10.875 6.349-13.372-22.212-2.529-45.56-11.104-45.56-49.421 0-10.918 3.906-19.839 10.303-26.842-1.039-2.519-4.462-12.69.968-26.464 0 0 8.398-2.688 27.508 10.25 7.977-2.215 16.531-3.326 25.03-3.364 8.498.038 17.06 1.149 25.051 3.365 19.087-12.939 27.473-10.25 27.473-10.25 5.443 13.773 2.019 23.945.98 26.463 6.412 7.003 10.292 15.924 10.292 26.842 0 38.409-23.394 46.866-45.662 49.341 3.587 3.104 6.783 9.189 6.783 18.519 0 13.38-.116 24.149-.116 27.443 0 2.661 1.8 5.779 6.869 4.797C199.383 211.64 228 174.169 228 130.001 228 74.771 183.227 30 128.001 30ZM65.454 172.453c-.22.497-1.002.646-1.714.305-.726-.326-1.133-1.004-.898-1.502.215-.512.999-.654 1.722-.311.727.326 1.141 1.01.89 1.508Zm4.919 4.389c-.477.443-1.41.237-2.042-.462-.654-.697-.777-1.629-.293-2.078.491-.442 1.396-.235 2.051.462.654.706.782 1.631.284 2.078Zm3.374 5.616c-.613.426-1.615.027-2.234-.863-.613-.889-.613-1.955.013-2.383.621-.427 1.608-.043 2.236.84.611.904.611 1.971-.015 2.406Zm5.707 6.504c-.548.604-1.715.442-2.57-.383-.874-.806-1.118-1.95-.568-2.555.555-.606 1.729-.435 2.59.383.868.804 1.133 1.957.548 2.555Zm7.376 2.195c-.242.784-1.366 1.14-2.499.807-1.13-.343-1.871-1.26-1.642-2.052.235-.788 1.364-1.159 2.505-.803 1.13.341 1.871 1.252 1.636 2.048Zm8.394.932c.028.824-.932 1.508-2.121 1.523-1.196.027-2.163-.641-2.176-1.452 0-.833.939-1.51 2.134-1.53 1.19-.023 2.163.639 2.163 1.459Zm8.246-.316c.143.804-.683 1.631-1.864 1.851-1.161.212-2.236-.285-2.383-1.083-.144-.825.697-1.651 1.856-1.865 1.183-.205 2.241.279 2.391 1.097Z" fill="#161614"/>
</svg>
