<svg xmlns="http://www.w3.org/2000/svg" fill="none" viewBox="0 0 256 256" height="1em" width="1em">
  <rect width="256" height="256" fill="#F4F2ED" rx="60"/>
  <path fill="#000" d="M121.451 28.054c-.43.039-1.799.176-3.031.273-28.406 2.561-55.014 17.889-71.867 41.447C37.17 82.873 31.167 97.731 28.9 113.47c-.801 5.494-.899 7.117-.899 14.565 0 7.449.098 9.072.9 14.565 5.434 37.556 32.16 69.111 68.406 80.802 6.491 2.092 13.333 3.519 21.114 4.379 3.031.332 16.129.332 19.16 0 13.431-1.486 24.809-4.809 36.031-10.538 1.72-.879 2.053-1.114 1.818-1.309-.156-.118-7.488-9.952-16.285-21.838l-15.992-21.603-20.04-29.658c-11.026-16.305-20.097-29.639-20.176-29.639-.078-.019-.156 13.158-.195 29.248-.059 28.172-.078 29.306-.43 29.97-.508.958-.899 1.349-1.721 1.78-.625.312-1.173.371-4.125.371h-3.382l-.9-.567a3.652 3.652 0 0 1-1.31-1.427l-.41-.88.04-39.198.058-39.218.606-.763c.313-.41.978-.938 1.447-1.192.801-.391 1.114-.43 4.496-.43 3.989 0 4.653.156 5.69 1.29.293.313 11.143 16.657 24.125 36.344a89121.985 89121.985 0 0 0 39.452 59.765l15.836 23.989.802-.528c7.096-4.614 14.604-11.183 20.547-18.026 12.649-14.526 20.802-32.238 23.539-51.124.801-5.493.899-7.116.899-14.565 0-7.448-.098-9.071-.899-14.565-5.435-37.556-32.161-69.11-68.407-80.801-6.393-2.073-13.196-3.5-20.821-4.36-1.877-.196-14.8-.41-16.422-.254Zm40.938 60.489c.938.469 1.701 1.368 1.975 2.306.156.509.195 11.379.156 35.875l-.059 35.152-6.197-9.502-6.217-9.501v-25.552c0-16.52.078-25.807.195-26.257.313-1.094.997-1.954 1.936-2.463.801-.41 1.095-.45 4.164-.45 2.894 0 3.402.04 4.047.392Z"/>
</svg>
