<svg viewBox="0 0 256 256" fill="none" xmlns="http://www.w3.org/2000/svg" height="1em" width="1em">
  <rect width="256" height="256" rx="60" fill="#004065"/>
  <path d="M88.763 227.957c-3.55-.217-6.58-1.096-9.007-2.614-.826-.517-1.007-.812-1.007-1.64 0-.436.046-.597.285-1.008.324-.555 1.114-1.235 2.04-1.754.904-.507 3.468-1.542 4.334-1.751 1.466-.352 2.62-.905 3.72-1.781 1.056-.842 1.976-2.155 2.354-3.359.096-.306.47-1.088.83-1.739 4.672-8.431 6.603-18.114 5.446-27.301a71.314 71.314 0 0 1-.26-2.738c-.346-4.534-.99-8.208-2.182-12.43-.184-.649-.315-1.339-.351-1.849-.266-3.705-1.021-8.235-2.066-12.393-.521-2.078-.557-2.622-.573-8.657-.016-6.274-.09-7.671-.526-9.766-.2-.961-.572-2.293-.64-2.293-.033 0-.336.169-.672.377-2.5 1.544-5.868 2.784-9.32 3.43a15.35 15.35 0 0 0-1.543.375c-.808.265-2.018.33-2.847.154-1.362-.289-2.53-1.062-3.198-2.114-.548-.863-1.11-1.077-1.937-.739-.204.084-.858.533-1.452 1-1.14.895-1.595 1.142-2.103 1.142-.391 0-.706-.204-1.084-.703-.65-.859-4.722-3.897-7.487-5.587a21.384 21.384 0 0 1-1.522-1.014c-1.468-1.139-3.483-2.063-5.487-2.514l-.92-.207-.22-.37c-.216-.366-.218-.389-.195-2.03.03-2.126-.014-2.28-.845-2.963-.323-.265-.673-.601-.778-.747-.341-.471-.906-.553-1.993-.29-1.78.43-2.117.112-3.16-2.976-.257-.762-.58-1.614-.72-1.892-.523-1.054-1.206-1.696-2.296-2.161-1.129-.481-2.607-2.157-3.362-3.811-.828-1.813-1.168-3.759-1.369-7.842-.108-2.212-.228-3.682-.396-4.883-.616-4.407-.56-10.664.14-15.796l.177-1.295.774-1.48a115.884 115.884 0 0 0 2.883-5.897c.926-2.036 2.204-5.05 2.204-5.2 0-.138-.933-.692-1.745-1.035-1.473-.623-3.072-.952-6.973-1.435-1.301-.161-2.836-.382-3.41-.49-3.315-.628-5.352-1.749-6.737-3.706-.242-.343-.353-.616-.462-1.147-.419-2.026.411-4.093 2.604-6.485.977-1.065 4.91-4.392 5.727-4.843 1.486-.823 2.922-1.123 6.483-1.354 2.345-.153 3.747-.341 4.93-.662 1.025-.278 1.95-.434 3.307-.56 2.716-.252 3.953-.583 4.862-1.3.47-.372.9-1.001 1.057-1.548.257-.898 1.137-1.887 2.229-2.504.24-.136 1.148-.556 2.015-.933 1.81-.786 2.434-1.12 3.11-1.668.266-.214.561-.423.658-.464.787-.332 1.959-.415 2.917-.205.766.167 1.514.467 3.375 1.351 1.562.742 3.043 1.277 3.544 1.278.395.002 2.92 1.405 4.777 2.654 2.044 1.376 5.73 4.66 6.329 5.636.19.31.43 1.284.65 2.636.225 1.376.436 2.09.792 2.686.255.426.516.674 1.64 1.556 1.066.837 2.226 2.803 2.728 4.625.534 1.935.678 4.005.557 8.027-.061 2.045-.059 3.53.008 4.945.074 1.567.071 2.21-.014 2.861a12.086 12.086 0 0 1-1.368 4.254c-.23.433-.413.912-.474 1.249-.155.85-.465 1.535-1.542 3.412-1.47 2.562-1.623 3.057-1.482 4.796.044.543.053 1.292.02 1.665-.153 1.7-.184 3.07-.078 3.426.232.777.793 1.11 1.759 1.04.313-.022.634-.061.714-.087.37-.122.886-1.525 1.343-3.663.34-1.582.653-2.704.886-3.168.076-.15.508-1.211.962-2.359 1.434-3.628 2.762-6.386 4.377-9.085 2.424-4.054 4.83-6.915 8.026-9.546 1.887-1.553 3.573-2.638 5.684-3.656a17.181 17.181 0 0 0 2.232-1.321c1.34-.935 4.093-3.192 5.299-4.344 3.969-3.795 7.088-8.18 9.159-12.879.638-1.446.844-1.755 1.824-2.741.903-.909 1.892-1.75 4.108-3.494 2.834-2.23 3.902-3.244 4.979-4.722l.572-.784 1.794-.352c3.379-.661 7.325-1.641 8.453-2.099a93.115 93.115 0 0 0 2.753-1.255c2.351-1.106 3.818-1.668 5.089-1.949.693-.153 1.155-.195 2.76-.25 3.068-.103 5.168-.29 8-.71 1.581-.234 1.298-.27 4.266.549 1.972.544 4.814 1.463 6.232 2.016 1.138.444 2.816 1.461 4.602 2.79 4.639 3.453 8.096 8.447 9.41 13.598.331 1.3 1.476 3.799 2.635 5.754 1.725 2.91 3.593 5.341 8.455 11.004 2.771 3.228 4.026 4.75 5.155 6.252 2.265 3.011 3.874 5.711 4.917 8.25.209.508.729 1.503 1.155 2.21 3.9 6.473 8.905 12.466 14.834 17.763a10.844 10.844 0 0 1 2.128 2.528c1.187 1.895 1.9 4.019 2.684 7.99.459 2.322.715 3.449 1.063 4.666.309 1.085.311 1.088.87 1.688 1.458 1.562 1.774 3.199.78 4.039-.343.29-.994.548-1.383.548-.162 0-.169.039-.122.648.027.356.21 1.276.407 2.044.196.768.401 1.701.455 2.072.177 1.221-.049 2.317-.651 3.155-.162.225-.443.824-.626 1.332-1.517 4.22-3.651 8.664-6.412 13.352l-1.456 2.476c-.603 1.034-1.918 1.852-2.975 1.852-.44 0-.54-.029-.825-.24-.461-.342-.621-.711-.778-1.799a83.86 83.86 0 0 0-.394-2.363c-.381-2.098-.523-3.142-.582-4.291-.115-2.229.389-4.082 1.494-5.502.485-.622.583-.866.879-2.193.41-1.835.578-4.035.473-6.197-.099-2.049-.531-4.292-1.181-6.121-.32-.904-.327-.95-.303-1.961.064-2.682-.68-5.137-2.238-7.38-.219-.316-.433-.592-.475-.614-.14-.073-.862.567-1.078.955-.281.505-.457 1.248-.624 2.637-.076.63-.215 1.396-.307 1.701-.203.665-.444 1.953-.741 3.959-1.538 10.377-1.082 20.444 1.4 30.852.262 1.099.516 2.298.565 2.664.127.951.11 2.941-.04 4.668-.277 3.19-.32 4.231-.221 5.387.148 1.732.231 2.004.812 2.646 1.288 1.425 1.77 2.799 1.761 5.019-.006 1.496-.131 2.281-.857 5.438-.262 1.139-.557 2.587-.655 3.218a164.16 164.16 0 0 1-.437 2.627c-1.401 8.006-.673 16.235 2.117 23.934.289.797.428 1.349.538 2.146.29 2.087.842 4.453 1.537 6.592l.346 1.066-.269.407c-1.223 1.844-3.249 3.169-5.744 3.754-.782.184-.987.201-2.346.198-1.619-.004-2.096-.08-3.286-.521-.562-.208-.588-.21-1.928-.18-3.041.07-3.864.046-4.304-.123a2.53 2.53 0 0 1-1.268-1.086c-.381-.69-.245-2.05.334-3.337.147-.326.694-1.342 1.215-2.26 1.322-2.322 1.745-3.48 1.745-4.769 0-.218.116-.775.257-1.236.914-2.995 1.759-6.91 2.192-10.158.928-6.965.752-13.524-.557-20.801-.423-2.347-.528-3.197-.885-7.129-.467-5.148-.802-7.356-1.463-9.645-.26-.901-.304-.987-.841-1.627-3.841-4.58-6.399-9.142-8.241-14.697-.236-.713-.753-2.011-1.148-2.886-1.729-3.826-3.542-8.727-4.741-12.818-.105-.356-.215-.647-.245-.647s-.12.092-.199.203l-.888 1.246c-4.479 6.27-7.198 13.3-8.084 20.895-.19 1.63-.264 5.674-.133 7.25.057.672.139 1.904.183 2.738.058 1.075.182 2.099.427 3.514.607 3.508.658 4.645.269 6.03-.227.808-.84 1.854-1.395 2.379-.24.228-1.396 1.625-2.57 3.105s-2.903 3.657-3.842 4.837c-4.557 5.729-6.841 9.465-8.275 13.536-.603 1.711.109 2.794 2.729 4.151 2.379 1.233 2.914 1.673 3.681 3.03a23.554 23.554 0 0 1 2.798 8.108c.156 1.027.276 3.923.184 4.439-.059.332-.064.336-.692.567-.348.128-1.145.431-1.771.673-2.794 1.081-4.38 1.266-5.796.677-.769-.32-1.24-.803-2.447-2.509-1.5-2.122-4.645-6.103-4.944-6.259-.228-.118-.641 1.2-.964 3.071-.395 2.295-.75 3.147-1.611 3.872-.583.49-1.05.697-2.506 1.11-3.343.946-6.577 1.383-10.241 1.384-2.417 0-3.778-.103-6.086-.462-1.025-.159-1.041-.165-1.334-.468-1.187-1.223-.767-2.857 1.125-4.375 1.147-.92 1.777-1.242 4.02-2.056 2.385-.866 4.545-2.52 5.947-4.554.396-.575 1.134-2.021 1.136-2.225 0-.064.182-.314.404-.555.518-.563.792-1.023.954-1.602.356-1.275-.06-2.528-1.165-3.511-.275-.245-.94-.875-1.478-1.4-1.221-1.193-4.18-3.658-6.031-5.026a419.134 419.134 0 0 0-4.468-3.213c-4.715-3.348-6.493-4.698-8.588-6.522-1.173-1.021-1.608-1.532-2.228-2.618-1.9-3.328-2.065-7.647-.523-13.651.226-.88.333-1.127.897-2.072a12.986 12.986 0 0 0 1.515-3.655c.341-1.357.389-3.371.121-5.013-.305-1.868-.21-2.627.668-5.335.539-1.659.779-2.581.869-3.322l.059-.494-.425-.058c-.658-.09-4.177-.065-5.157.037a34.558 34.558 0 0 0-4.612.782l-.486.119-.058 2.199c-.102 3.88-.508 8.355-1.065 11.727-.113.682-.14.742-.485 1.073-.865.829-2.029 2.534-2.563 3.753-.523 1.197-.794 2.227-.939 3.582-.094.871-.117.944-.443 1.401-.414.579-.63 1.05-.841 1.831-.134.499-.162 1.031-.191 3.618-.046 4.222-.046 4.137.028 6.363.053 1.599.038 2.242-.074 3.219a24.421 24.421 0 0 1-2.522 8.385c-.752 1.486-1.411 3.64-1.949 6.375-.506 2.569-.713 4.236-1.236 9.951-.338 3.697-.484 5.043-.748 6.881-.414 2.88-1.178 6.15-1.561 6.681-.524.728-.647 1.646-.501 3.751.172 2.489.005 3.258-.881 4.067-.57.52-1.156.787-2.574 1.173-3.296.897-6.954 1.307-10.006 1.121Zm67.46-43.035c.317-.127.774-.643.872-.985.029-.102.297-.501.595-.888 2.527-3.273 4.267-6.871 5.17-10.691.394-1.664.556-2.785.675-4.661.088-1.389.078-1.809-.094-3.959-.758-9.459-2.05-18.966-3.738-27.519-.244-1.235-.433-1.996-.514-2.064-.175-.148-.584-.002-1.089.39-.73.568-1.042 1.361-1.326 3.371-.186 1.314-.326 1.899-.577 2.406-.226.455-.451 1.45-.695 3.07-.474 3.14-1.052 4.345-2.45 5.109-.462.252-.612.385-.783.69-.488.872-.762 1.846-.969 3.45-.388 3.003-.601 3.899-1.142 4.807l-.324.543.14.932c.231 1.54.126 2.63-.324 3.376-.438.726-.93.964-2.202 1.065-1.471.118-2.244.585-3.842 2.324-.481.523-1.11 1.139-1.399 1.369-1.005.8-2.472 2.933-2.883 4.191-.285.873-.266 1.875.05 2.664.279.695.525 1.048 1.493 2.145a77.645 77.645 0 0 1 2.081 2.553c1.504 1.918 2.481 2.956 3.377 3.588 1.31.926 2.447 1.324 4.226 1.483 1.281.114 1.113.071 2.673.686.674.266 1.384.525 1.577.577.496.132 1.061.123 1.422-.022Z" fill="#fff"/>
</svg>
