<svg xmlns="http://www.w3.org/2000/svg" fill="none" viewBox="0 0 256 256" height="1em" width="1em">
  <rect width="256" height="256" fill="#F05138" rx="60"/>
  <path fill="#fff" d="m202.677 158.04.724-2.896c10.616-42.224-15.201-92.41-59.114-118.71 19.302 26.058 27.747 57.666 20.267 85.172-.724 2.413-1.448 4.826-2.413 7.239-.965-.724-2.171-1.448-3.86-2.172 0 0-43.672-27.024-90.963-74.556-1.207-1.206 25.334 37.881 55.253 69.489-14.235-7.962-53.564-36.675-78.658-59.355 3.137 5.067 6.756 10.134 10.617 14.718 20.75 26.541 48.015 59.114 80.588 84.207-22.922 13.995-55.254 15.201-87.344 0-7.962-3.619-15.442-8.203-22.44-13.27 13.512 21.715 34.504 40.535 60.08 51.634 30.401 13.029 60.803 12.306 83.242.241 0 0 .241 0 .241-.241.965-.482 1.931-1.206 2.896-1.689 10.857-5.549 32.09-11.099 43.672 11.099 3.378 5.067 9.41-23.887-12.788-50.91Z"/>
</svg>
