<svg viewBox="0 0 256 256" fill="none" xmlns="http://www.w3.org/2000/svg" height="1em" width="1em">
  <rect width="256" height="256" rx="60" fill="#fff"/>
  <rect width="256" height="256" rx="60" fill="#1D9BF0"/>
  <path d="M199.572 91.411c.11 1.587.11 3.174.11 4.776 0 48.797-37.148 105.075-105.075 105.075v-.03A104.54 104.54 0 0 1 38 184.677c2.918.351 5.85.526 8.79.533a74.154 74.154 0 0 0 45.864-15.839 36.976 36.976 0 0 1-34.5-25.645 36.811 36.811 0 0 0 16.672-.636c-17.228-3.481-29.623-18.618-29.623-36.198v-.468a36.705 36.705 0 0 0 16.76 4.622c-16.226-10.845-21.228-32.432-11.43-49.31a104.814 104.814 0 0 0 76.111 38.582 36.95 36.95 0 0 1 10.683-35.283c14.874-13.982 38.267-13.265 52.249 1.601a74.105 74.105 0 0 0 23.451-8.965 37.061 37.061 0 0 1-16.234 20.424A73.446 73.446 0 0 0 218 72.282a75.023 75.023 0 0 1-18.428 19.13Z" fill="#fff"/>
</svg>
