<svg viewBox="0 0 17 16" xmlns="http://www.w3.org/2000/svg" class="si-glyph si-glyph-strolley-arrow-up" height="1em" width="1em">
  <g fill="#434343" fill-rule="evenodd">
    <g transform="translate(1)">
      <ellipse cx="4.438" cy="14.459" rx="1.438" ry="1.459" class="si-glyph-fill"/>
      <ellipse cx="12.457" cy="14.419" rx="1.457" ry="1.419" class="si-glyph-fill"/>
      <path d="M15 10.016H3.953V3.778L1.781.41A.995.995 0 1 0 .174 1.584l1.849 2.901v5.531h-.055c-.553 0-1 .44-1 .984 0 .543.447.984 1 .984H15c.553 0 1-.441 1-.984a.991.991 0 0 0-1-.984Z" class="si-glyph-fill"/>
    </g>
    <path d="m13.768 3.757-2.189-2.513a.811.811 0 0 0-1.143 0L8.247 3.757c-.314.315-.363.876-.049 1.19H10v1.922c0 .559.434 1.01.969 1.01.535 0 .969-.451.969-1.01V4.947h1.781c.315-.315.364-.875.049-1.19Z" class="si-glyph-fill"/>
  </g>
</svg>
