<svg viewBox="0 0 16 17" xmlns="http://www.w3.org/2000/svg" class="si-glyph si-glyph-hardware" height="1em" width="1em">
  <g fill="#434343" fill-rule="evenodd">
    <path d="M8.007 4.014a2.977 2.977 0 0 0 0 5.954 2.977 2.977 0 0 0 0-5.954Zm0 5.021a2.046 2.046 0 0 1 0-4.093 2.046 2.046 0 0 1 0 4.093ZM6 14h3.965v2H6zm0-3h3.964v1.959H6z" class="si-glyph-fill"/>
    <g class="si-glyph-fill">
      <path class="si-glyph-fill" d="m2.473 4.53 2.1-3.066 1.211.83-2.1 3.065zm-2.55-1.626 2.1-3.066L3.23.665l-2.1 3.066z"/>
    </g>
    <path class="si-glyph-fill" d="M11.596 1.171h3.734v3.457h-3.734z"/>
  </g>
</svg>
