<svg viewBox="0 0 16 16" xmlns="http://www.w3.org/2000/svg" class="si-glyph si-glyph-right-justify" height="1em" width="1em">
  <path d="M16 1.938c0 .518-.42.938-.938.938H.98A.938.938 0 0 1 .98 1h14.082c.518 0 .938.42.938.938Zm0 3c0 .518-.42.938-.938.938H.98A.938.938 0 0 1 .98 4h14.082c.518 0 .938.42.938.938Zm0 3c0 .518-.42.938-.938.938H.98A.938.938 0 0 1 .98 7h14.082c.518 0 .938.42.938.938Zm0 3c0 .518-.42.938-.938.938H.98A.938.938 0 0 1 .98 10h14.082c.518 0 .938.42.938.938Zm0 3c0 .518-.42.938-.938.938H5.98a.938.938 0 0 1 0-1.876h9.082c.518 0 .938.42.938.938Z" class="si-glyph-fill" fill="#434343" fill-rule="evenodd"/>
</svg>
