<svg viewBox="0 0 17 16" xmlns="http://www.w3.org/2000/svg" class="si-glyph si-glyph-trumpet" height="1em" width="1em">
  <path d="m14.622 3.308 1.076-1.076-.91-.91-2.431 2.431-.699-.698-.658.66.697.697-1.305 1.305-.667-.667-.721.722.666.667-1.302 1.302-.603-.603-.691.691.603.603L6.139 9.97c-1.369 1.369-4.321 2.119-5.1 1.34 0 0 .396 1.366 1.836 2.805 1.438 1.439 2.834 1.865 2.834 1.865-.779-.778-.008-3.752 1.34-5.099l1.27-1.27 1.037 1.036c.231.231.54.342.875.342.483 0 1.021-.231 1.463-.672L15.33 6.68c.427-.426.671-.959.671-1.463 0-.349-.119-.651-.341-.874l-1.038-1.035Zm.135 2.801-3.636 3.637c-.45.447-.991.532-1.193.33L8.891 9.04l5.159-5.16 1.037 1.036c.086.086.104.212.104.302-.001.282-.167.624-.434.891Zm2.134-4.807L15.703.114c-.092-.093-.299-.037-.461.126-.162.163-.219.369-.127.462l1.189 1.188c.094.092.301.036.461-.126.165-.164.219-.369.126-.462Z" class="si-glyph-fill" fill="#434343" fill-rule="evenodd"/>
</svg>
