<svg viewBox="0 0 17 17" xmlns="http://www.w3.org/2000/svg" class="si-glyph si-glyph-soccer-yard" height="1em" width="1em">
  <g fill="#434343" fill-rule="evenodd">
    <path d="M5.969 3.085h-.885c-.588 0-1.063.45-1.063 1.007v3.865h1.964c.262-1.165 1.292-2.04 2.526-2.04 1.233 0 2.265.875 2.526 2.04h1.9V4.092c0-.557-.477-1.007-1.063-1.007h-.827v.962H5.969v-.962Z" class="si-glyph-fill"/>
    <path d="M8.482 7.038c-.64 0-1.184.4-1.399.962h2.8a1.497 1.497 0 0 0-1.401-.962Zm.028 2.924c.656 0 1.206-.394 1.406-.937H7.104c.2.543.75.937 1.406.937Z" class="si-glyph-fill"/>
    <path d="M8.511 11.146a2.602 2.602 0 0 1-2.542-2.099H4.021v3.904c0 .555.476 1.007 1.065 1.007h.852v-1.021H11v1.021h.889c.588 0 1.064-.452 1.064-1.007V9.047h-1.9a2.604 2.604 0 0 1-2.542 2.099Z" class="si-glyph-fill"/>
    <path d="M14.439 1.042H2.498A.497.497 0 0 0 2 1.537v13.968c0 .273.223.495.498.495h11.941a.497.497 0 0 0 .498-.495V1.537a.495.495 0 0 0-.498-.495Zm-.418 14.02H9.979V14H7.02v1.062H2.937V1.937H7.02v1h2.933v-1h4.068v13.125Z" class="si-glyph-fill"/>
  </g>
</svg>
