<svg viewBox="0 0 16 16" xmlns="http://www.w3.org/2000/svg" class="si-glyph si-glyph-database-plus" height="1em" width="1em">
  <g fill="#434343" fill-rule="evenodd">
    <path d="M7.43 5C10.981 5 14 3.837 14 2.5S10.981 0 7.43 0 1 1.163 1 2.5 3.879 5 7.43 5Z" class="si-glyph-fill"/>
    <path d="M7.494 9.919c3.561 0 6.447-.982 6.447-2.196V4.377c0 .672-2.932 1.674-6.447 1.674S1.047 5.049 1.047 4.377v3.346c0 1.214 2.887 2.196 6.447 2.196ZM11 13h4.915v.957H11z" class="si-glyph-fill"/>
    <path d="M1.016 9.444v3.269c0 1.188 2.887 2.146 6.447 2.146.869 0 1.697-.059 2.455-.162v-2.739h2.04V10.52c-1.169.321-2.76.561-4.495.561-3.516-.001-6.447-.981-6.447-1.637ZM13 11h.958v4.937H13z" class="si-glyph-fill"/>
  </g>
</svg>
