<svg viewBox="0 0 17 16" xmlns="http://www.w3.org/2000/svg" class="si-glyph si-glyph-align-right" height="1em" width="1em">
  <path d="M17 1.938c0 .518-.42.938-.938.938H1.98A.938.938 0 0 1 1.98 1h14.082c.518 0 .938.42.938.938Zm0 12c0 .518-.42.938-.938.938H1.98a.938.938 0 0 1 0-1.876h14.082c.518 0 .938.42.938.938Zm0-6c0 .518-.42.938-.938.938H5.98A.938.938 0 0 1 5.98 7h10.082c.518 0 .938.42.938.938Zm0 3c0 .518-.42.938-.938.938H7.98a.938.938 0 0 1 0-1.876h8.082c.518 0 .938.42.938.938Zm0-6c0 .518-.42.938-.938.938H9.98A.938.938 0 0 1 9.98 4h6.082c.518 0 .938.42.938.938Z" class="si-glyph-fill" fill="#434343" fill-rule="evenodd"/>
</svg>
