<svg viewBox="0 0 17 16" xmlns="http://www.w3.org/2000/svg" class="si-glyph si-glyph-dish" height="1em" width="1em">
  <g fill="#434343" fill-rule="evenodd">
    <path d="M8.979 4.06a3.933 3.933 0 0 0-3.926 3.929 3.933 3.933 0 0 0 3.926 3.931 3.933 3.933 0 0 0 3.926-3.931A3.933 3.933 0 0 0 8.979 4.06Z" class="si-glyph-fill"/>
    <path d="M9.007.072c-4.399 0-7.964 3.562-7.964 7.957a7.96 7.96 0 0 0 7.964 7.96c4.397 0 7.965-3.562 7.965-7.96 0-4.394-3.568-7.957-7.965-7.957Zm-.028 13.064a5.15 5.15 0 0 1-5.143-5.147 5.15 5.15 0 0 1 5.143-5.146 5.15 5.15 0 0 1 5.143 5.146 5.152 5.152 0 0 1-5.143 5.147Z" class="si-glyph-fill"/>
  </g>
</svg>
