<svg viewBox="0 0 17 16" xmlns="http://www.w3.org/2000/svg" class="si-glyph si-glyph-lavabo" height="1em" width="1em">
  <g fill="#434343" fill-rule="evenodd">
    <path d="M13.969 5.021H4.031c0 1.643 2.489 3.646 4.866 3.893l-.849 5.697c0 .738.548 1.386 1.286 1.386h3.299c.738 0 1.336-.598 1.336-1.336v-9.64Z" class="si-glyph-fill"/>
    <path d="M12.062 5.027V1.523c0-.396-.219-.537-.607-.537h-1.09l-.412.967-.911-.284.653-1.328a.487.487 0 0 1 .448-.296h1.499c.789 0 1.299.459 1.299 1.168v3.814h-.879Z" class="si-glyph-fill"/>
    <path class="si-glyph-fill" d="M11 3h1.223v.937H11z"/>
  </g>
</svg>
