<svg viewBox="0 0 17 16" xmlns="http://www.w3.org/2000/svg" class="si-glyph si-glyph-askterisk" height="1em" width="1em">
  <path d="M14.991 6.153c-.351 0-1.952.454-3.948.788 1.422-1.581 2.768-2.755 2.961-3.062.576-.917.235-2.092-.763-2.622-.999-.53-2.274-.216-2.852.702-.19.305-.622 1.949-1.39 3.86-.768-1.911-1.199-3.556-1.388-3.86-.579-.918-1.854-1.232-2.852-.702-.998.531-1.34 1.705-.762 2.622.19.307 1.537 1.48 2.961 3.062-1.998-.334-3.6-.788-3.95-.788-1.08 0-1.955.842-1.955 1.882 0 1.038.875 1.88 1.955 1.88.351 0 1.93-.448 3.907-.782-1.408 1.557-2.731 2.711-2.92 3.014-.576.92-.234 2.092.764 2.624.998.528 2.273.216 2.851-.703.19-.304.622-1.948 1.39-3.86.769 1.912 1.199 3.557 1.392 3.86.575.919 1.851 1.233 2.85.703.998-.531 1.339-1.704.763-2.622-.189-.305-1.511-1.459-2.918-3.016 1.978.334 3.557.782 3.905.782 1.08 0 1.956-.842 1.956-1.88-.001-1.04-.877-1.882-1.957-1.882Z" fill="#434343" class="si-glyph-fill" fill-rule="evenodd"/>
</svg>
