<svg viewBox="0 0 17 16" xmlns="http://www.w3.org/2000/svg" class="si-glyph si-glyph-money-$" height="1em" width="1em">
  <path d="M11.979 10.596c0-1.695-1.358-3.104-3.011-3.381V3.828c.504.156 1.025.195 1.235.67.19.428.671.611 1.072.41.403-.202.573-.714.384-1.143-.473-1.066-1.542-1.494-2.676-1.688V0H8v2.066c-1.664.251-2.995 1.67-2.995 3.383 0 1.71 1.324 3.127 2.995 3.383v3.41c-.536-.148-1.033-.198-1.252-.695-.188-.43-.668-.613-1.068-.412-.404.201-.576.711-.388 1.141.481 1.09 1.554 1.531 2.724 1.711V16h.938v-2.021c1.646-.272 3.025-1.685 3.025-3.383ZM6.617 5.449c0-.774.598-1.424 1.413-1.633v3.269c-.815-.211-1.413-.86-1.413-1.636Zm2.344 6.774V8.969c.815.225 1.41.865 1.41 1.627s-.595 1.402-1.41 1.627Z" fill="#434343" class="si-glyph-fill" fill-rule="evenodd"/>
</svg>
