<svg viewBox="0 0 17 16" xmlns="http://www.w3.org/2000/svg" class="si-glyph si-glyph-cheese" height="1em" width="1em">
  <path d="M11.744 2.128c-.22.039-1.438.411-2.941 1.085.301.464.383.945.158 1.266-.346.5-1.295.416-2.119-.188-.052-.036-.096-.079-.144-.118C3.92 5.454 1.031 6.841 1.031 6.841v2.594c1.207.125 2.154 1.123 2.164 2.354l7.752.698c.144-.975.73-1.706 1.434-1.706.766 0 1.388.865 1.457 1.967l2.43.218.242-2.24c-.727-.065-1.283-.397-1.283-.801 0-.435.647-.786 1.459-.81 0 0 .109-.961.248-2.273.304-1.774-3.886-4.943-5.19-4.714Zm2.79 2.583c.463 0 .838.354.838.792 0 .435-.375.791-.838.791-.461 0-.837-.356-.837-.791 0-.439.376-.792.837-.792Zm-3.003-.945c.566 0 1.025.312 1.025.697 0 .385-.459.696-1.025.696-.566 0-1.024-.312-1.024-.696 0-.386.458-.697 1.024-.697Zm-5.014.924c.458 0 .827.348.827.779 0 .43-.369.777-.827.777-.458 0-.827-.348-.827-.777-.001-.431.369-.779.827-.779Zm-.011 6.435c-.887 0-1.604-.502-1.604-1.125 0-.621.717-1.125 1.604-1.125.885 0 1.603.504 1.603 1.125-.001.623-.718 1.125-1.603 1.125Zm9.525-3.094h-3.01c-.228.482-.714 1.016-1.506 1.016-.794 0-1.285-.533-1.512-1.016h-8.02V6.937h8.051c.255-.447.678-.984 1.434-.984.755 0 1.266.537 1.521.984h3.042v1.094Z" fill="#434343" class="si-glyph-fill" fill-rule="evenodd"/>
</svg>
