<svg viewBox="0 0 17 16" xmlns="http://www.w3.org/2000/svg" class="si-glyph si-glyph-key-2" height="1em" width="1em">
  <path d="M15.797 1.272c-1.549-1.55-4.148-1.65-5.69-.107-1.119 1.117-1.317 2.834-.812 4.233l-8.223 8.223s-.534 2.827 1.85 2.215c.058-.076 1.047-.586 1.047-.586l.023-2.289L6.215 13l.74-.875.014-2.172h1.977l-.002-1.975 2.168-.008.379-.258c1.439.602 3.197.162 4.321-.843 1.626-1.453 1.535-4.048-.015-5.597Zm-.781 1.759h-1.047V1.984h1.047v1.047Z" fill="#434343" class="si-glyph-fill" fill-rule="evenodd"/>
</svg>
