<svg viewBox="0 0 17 16" xmlns="http://www.w3.org/2000/svg" class="si-glyph si-glyph-crown" height="1em" width="1em">
  <g transform="translate(1)" fill="#434343" fill-rule="evenodd">
    <path d="M12.971 15.23c0 .423-.417.768-.932.768H3.951c-.515 0-.932-.345-.932-.768v-.45c0-.422.417-.767.932-.767h8.088c.515 0 .932.345.932.767v.45Zm-.506-2.251H3.547L1.421 5.365l1.141-.709 3.011 4.251 1.772-5.865h1.418l1.594 6.22 3.188-4.606 1.046.709-2.126 7.614Z" class="si-glyph-fill"/>
    <circle cx="14.968" cy="2.968" r=".968" class="si-glyph-fill"/>
    <circle cx="7.964" cy=".964" r=".964" class="si-glyph-fill"/>
    <ellipse cx=".983" cy="2.974" rx=".983" ry=".974" class="si-glyph-fill"/>
  </g>
</svg>
