<svg viewBox="0 0 17 16" xmlns="http://www.w3.org/2000/svg" class="si-glyph si-glyph-mark-snorker" height="1em" width="1em">
  <g fill="#434343" fill-rule="evenodd">
    <path d="M13.555 2.037h-9.07c-1.89 0-3.424 1.402-3.424 3.132v1.605c0 1.73.871 3.133 2.761 3.133h1.862c1.439 0 2.67-.501 3.177-1.649.071-.166.267-.176.335-.018.5 1.16 1.729 1.667 3.167 1.667h1.854c1.883 0 2.746-1.402 2.746-3.133V5.169c0-1.73-1.527-3.132-3.408-3.132Zm2.49 4.919c0 1.157-.293 2.097-1.512 2.097h-1.971c-1.049 0-1.959-.395-2.167-1.368 0 0-.201-.647-1.391-.647-1.188 0-1.354.644-1.354.644-.209.978-1.131 1.372-2.186 1.372H3.488c-1.23 0-1.529-.939-1.529-2.097v-1.86c0-1.155 1-2.096 2.231-2.096h9.641c1.221 0 2.213.94 2.213 2.096v1.859h.001Z" class="si-glyph-fill"/>
    <path d="M12.743 7.98h1.36l.705-3.488a2.268 2.268 0 0 0-1.275-.415l-.79 3.903Zm-.579 3.213-.543 2.481c-.105.525-.857.92-1.375.815-.504-.102-.949-.418-.869-.927.929-.28 1.603-1.07 1.591-2.001-.004-.308-.282-.554-.624-.55-.34.004-.614.257-.609.565.006.537-.473.98-1.066.986-.595.008-1.084-.423-1.091-.961-.004-.307-.283-.553-.623-.549-.342.004-.613.258-.61.564.012.949.73 1.735 1.695 1.977-.06 1.131.83 1.945 1.957 2.172 1.238.25 2.68-.574 2.932-1.83l.596-2.738a210.32 210.32 0 0 1-1.361-.004ZM15.643.889a.713.713 0 0 0-.553-.843.715.715 0 0 0-.836.563l-.213 1.178c.492.043.953.174 1.367.38l.235-1.278Z" class="si-glyph-fill"/>
  </g>
</svg>
